<!-- Generated by IcoMoon.io -->
<svg version="1.1" xmlns="http://www.w3.org/2000/svg" width="36" height="32" viewBox="0 0 36 32">
<title>abacus</title>
<path d="M35 0c-0.553 0-1 0.448-1 1v4h-4v-1c0-1.104-0.896-2-2-2h-2c-1.104 0-2 0.896-2 2v1h-6v-1c0-1.104-0.896-2-2-2h-2c-1.104 0-2 0.896-2 2v1h-2v-1c0-1.104-0.896-2-2-2h-2c-1.104 0-2 0.896-2 2v1h-2v-4c0-0.552-0.448-1-1-1s-1 0.448-1 1v30.5c0 0.276 0.224 0.5 0.5 0.5h1c0.276 0 0.5-0.224 0.5-0.5v-4.5h2v1c0 1.104 0.896 2 2 2h2c1.104 0 2-0.896 2-2v-1h2v1c0 1.104 0.896 2 2 2h2c1.104 0 2-0.896 2-2v-1h6v1c0 1.104 0.896 2 2 2h2c1.104 0 2-0.896 2-2v-1h4v4.5c0 0.276 0.224 0.5 0.5 0.5h1c0.276 0 0.5-0.224 0.5-0.5v-30.5c0-0.552-0.447-1-1-1zM26 4h2v4h-2v-4zM14 4h2v4h-2v-4zM6 4h2v4h-2v-4zM8 28h-2v-4h2v4zM16 28h-2v-4h2v4zM28 28h-2v-4h2v4zM34 25h-4v-1c0-1.104-0.896-2-2-2h-2c-1.104 0-2 0.896-2 2v1h-6v-1c0-1.104-0.896-2-2-2h-2c-1.104 0-2 0.896-2 2v1h-2v-1c0-1.104-0.896-2-2-2h-2c-1.104 0-2 0.896-2 2v1h-2v-8h2v1c0 1.104 0.896 2 2 2h2c1.104 0 2-0.896 2-2v-1h2v1c0 1.104 0.896 2 2 2h2c1.104 0 2-0.896 2-2v-1h2v1c0 1.104 0.896 2 2 2h2c1.104 0 2-0.896 2-2v-1h8v8zM6 18v-4h2v4h-2zM14 18v-4h2v4h-2zM22 18v-4h2v4h-2zM34 15h-8v-1c0-1.104-0.896-2-2-2h-2c-1.104 0-2 0.896-2 2v1h-2v-1c0-1.104-0.896-2-2-2h-2c-1.104 0-2 0.896-2 2v1h-2v-1c0-1.104-0.896-2-2-2h-2c-1.104 0-2 0.896-2 2v1h-2v-8h2v1c0 1.104 0.896 2 2 2h2c1.104 0 2-0.896 2-2v-1h2v1c0 1.104 0.896 2 2 2h2c1.104 0 2-0.896 2-2v-1h6v1c0 1.104 0.896 2 2 2h2c1.104 0 2-0.896 2-2v-1h4v8z"></path>
</svg>
