<!-- Generated by IcoMoon.io -->
<svg version="1.1" xmlns="http://www.w3.org/2000/svg" width="36" height="32" viewBox="0 0 36 32">
<title>abacus-solid</title>
<path d="M2 0c-1.104 0-2 0.896-2 2v29c0 0.552 0.448 1 1 1h2c0.553 0 1-0.448 1-1v-29c0-1.104-0.896-2-2-2zM34 0c-1.104 0-2 0.896-2 2v29c0 0.552 0.447 1 1 1h2c0.553 0 1-0.448 1-1v-29c0-1.104-0.896-2-2-2zM29 2h-2c-0.552 0-1 0.447-1 1v1.5h-10v-1.5c0-0.553-0.447-1-1-1h-2c-0.553 0-1 0.447-1 1v1.5h-2v-1.5c0-0.553-0.447-1-1-1h-2c-0.553 0-1 0.447-1 1v6c0 0.553 0.447 1 1 1h2c0.553 0 1-0.447 1-1v-1.5h2v1.5c0 0.553 0.447 1 1 1h2c0.553 0 1-0.447 1-1v-1.5h10v1.5c0 0.553 0.448 1 1 1h2c0.552 0 1-0.447 1-1v-6c0-0.553-0.448-1-1-1zM22 13c0-0.553-0.448-1-1-1h-2c-0.552 0-1 0.447-1 1v1.5h-2v-1.5c0-0.553-0.447-1-1-1h-2c-0.553 0-1 0.447-1 1v1.5h-2v-1.5c0-0.553-0.447-1-1-1h-2c-0.553 0-1 0.447-1 1v6c0 0.552 0.447 1 1 1h2c0.553 0 1-0.448 1-1v-1.5h2v1.5c0 0.552 0.447 1 1 1h2c0.553 0 1-0.448 1-1v-1.5h2v1.5c0 0.552 0.448 1 1 1h2c0.552 0 1-0.448 1-1v-1.5h8v-3h-8v-1.5zM29 22h-2c-0.552 0-1 0.448-1 1v1.5h-10v-1.5c0-0.552-0.447-1-1-1h-2c-0.553 0-1 0.448-1 1v1.5h-2v-1.5c0-0.552-0.447-1-1-1h-2c-0.553 0-1 0.448-1 1v6c0 0.552 0.447 1 1 1h2c0.553 0 1-0.448 1-1v-1.5h2v1.5c0 0.552 0.447 1 1 1h2c0.553 0 1-0.448 1-1v-1.5h10v1.5c0 0.552 0.448 1 1 1h2c0.552 0 1-0.448 1-1v-6c0-0.552-0.448-1-1-1z"></path>
</svg>
