<!-- Generated by IcoMoon.io -->
<svg version="1.1" xmlns="http://www.w3.org/2000/svg" width="28" height="32" viewBox="0 0 28 32">
<title>acorn-solid</title>
<path d="M10.944 30.472l3.056 1.528 3.056-1.528c5.482-2.741 8.944-8.343 8.944-14.472h-24c0 6.129 3.463 11.731 8.944 14.472zM22 4h-6.281c0.213-0.587 0.529-1.136 0.948-1.627 0.348-0.407 0.332-0.994-0.039-1.366l-0.709-0.708c-0.195-0.198-0.482-0.321-0.748-0.295-0.274 0.009-0.531 0.13-0.707 0.331-0.922 1.050-1.534 2.316-1.837 3.666h-6.626c-3.314 0-6 2.686-6 6v2c0 1.104 0.896 2 2 2h24c1.104 0 2-0.896 2-2v-2c0-3.314-2.686-6.001-6-6.001z"></path>
</svg>
