<!-- Generated by IcoMoon.io -->
<svg version="1.1" xmlns="http://www.w3.org/2000/svg" width="28" height="32" viewBox="0 0 28 32">
<title>acorn</title>
<path d="M22 4h-6.93c0.207-0.9 0.609-1.742 1.216-2.455 0.173-0.203 0.176-0.499-0.013-0.688l-0.708-0.708c-0.201-0.201-0.539-0.202-0.726 0.013-0.961 1.094-1.579 2.417-1.819 3.838h-7.020c-3.314 0-6 2.686-6 6v2c0 1.104 0.896 2 2 2v2c0 6.129 3.463 11.731 8.944 14.472l3.056 1.528 3.056-1.528c5.482-2.741 8.944-8.343 8.944-14.472v-2c1.104 0 2-0.896 2-2v-2c0-3.314-2.686-6-6-6zM24 16c0 5.406-3.004 10.266-7.839 12.683l-2.161 1.081-2.161-1.081c-4.835-2.418-7.839-7.277-7.839-12.683v-2h20v2zM26 12h-24v-2c0-2.206 1.794-4 4-4h16c2.206 0 4 1.794 4 4v2z"></path>
</svg>
