<!-- Generated by IcoMoon.io -->
<svg version="1.1" xmlns="http://www.w3.org/2000/svg" width="32" height="32" viewBox="0 0 32 32">
<title>ad-solid</title>
<path d="M9.845 17h2.31l-1.155-3.326-1.155 3.326zM22 16c-0.827 0-1.5 0.673-1.5 1.5s0.673 1.5 1.5 1.5 1.5-0.673 1.5-1.5-0.673-1.5-1.5-1.5zM29 4h-26c-1.656 0-3 1.344-3 3v18c0 1.656 1.344 3 3 3h26c1.656 0 3-1.344 3-3v-18c0-1.656-1.344-3-3-3zM15.661 22h-1.059c-0.426 0-0.805-0.27-0.945-0.672l-0.461-1.328h-4.393l-0.461 1.328c-0.14 0.394-0.51 0.672-0.945 0.672-0 0-0 0-0 0h-1.059c-0.688 0-1.171-0.678-0.945-1.328l3.356-9.664c0.21-0.591 0.765-1.008 1.417-1.008 0 0 0 0 0 0h1.666c0 0 0 0 0 0 0.652 0 1.207 0.416 1.413 0.998l0.003 0.011 3.356 9.664c0.226 0.65-0.257 1.328-0.944 1.328zM26.5 21c0 0.552-0.448 1-1 1h-1c-0.303 0-0.565-0.142-0.749-0.355-0.539 0.229-1.131 0.355-1.751 0.355-2.481 0-4.5-2.019-4.5-4.5s2.019-4.5 4.5-4.5c0.529 0 1.029 0.108 1.5 0.276v-2.276c0-0.553 0.448-1 1-1h1c0.552 0 1 0.447 1 1v10z"></path>
</svg>
