<!-- Generated by IcoMoon.io -->
<svg version="1.1" xmlns="http://www.w3.org/2000/svg" width="32" height="32" viewBox="0 0 32 32">
<title>ad</title>
<path d="M29 4h-26c-1.656 0-3 1.344-3 3v18c0 1.656 1.344 3 3 3h26c1.656 0 3-1.344 3-3v-18c0-1.656-1.344-3-3-3zM30 25c0 0.551-0.449 1-1 1h-26c-0.551 0-1-0.449-1-1v-18c0-0.551 0.449-1 1-1h26c0.551 0 1 0.449 1 1v18zM25.5 10h-1c-0.276 0-0.5 0.224-0.5 0.5v4.055c-0.591-0.344-1.267-0.555-2-0.555-2.209 0-4 1.791-4 4s1.791 4 4 4c0.733 0 1.409-0.211 2-0.555v0.055c0 0.276 0.224 0.5 0.5 0.5h1c0.276 0 0.5-0.224 0.5-0.5v-11c0-0.276-0.224-0.5-0.5-0.5zM22 20c-1.102 0-2-0.898-2-2s0.898-2 2-2 2 0.898 2 2-0.898 2-2 2zM12.311 10.321c-0.074-0.189-0.255-0.321-0.467-0.321h-1.688c-0.207 0-0.393 0.127-0.467 0.321l-4.231 11c-0.126 0.328 0.116 0.679 0.467 0.679h1.072c0.207 0 0.393-0.128 0.467-0.321l1.416-3.679h4.241l1.415 3.679c0.074 0.189 0.255 0.321 0.467 0.321h1.072c0.351 0 0.593-0.352 0.467-0.679l-4.231-11zM9.648 16l1.352-3.514 1.352 3.514h-2.704z"></path>
</svg>
