<!-- Generated by IcoMoon.io -->
<svg version="1.1" xmlns="http://www.w3.org/2000/svg" width="28" height="32" viewBox="0 0 28 32">
<title>address-book-solid</title>
<path d="M27.25 10c0.413 0 0.75-0.338 0.75-0.75v-2.5c0-0.412-0.337-0.75-0.75-0.75h-1.25v-3c0-1.656-1.344-3-3-3h-20c-1.656 0-3 1.344-3 3v26c0 1.656 1.344 3 3 3h20c1.656 0 3-1.344 3-3v-3h1.25c0.413 0 0.75-0.337 0.75-0.75v-2.5c0-0.413-0.337-0.75-0.75-0.75h-1.25v-4h1.25c0.413 0 0.75-0.337 0.75-0.75v-2.5c0-0.412-0.337-0.75-0.75-0.75h-1.25v-4h1.25zM13 8c2.206 0 4 1.794 4 4s-1.794 4-4 4-4-1.794-4-4 1.794-4 4-4zM20 22.8c0 0.663-0.625 1.2-1.4 1.2h-11.2c-0.775 0-1.4-0.538-1.4-1.2v-1.2c0-1.988 1.881-3.6 4.2-3.6h0.313c0.769 0.319 1.606 0.5 2.488 0.5s1.725-0.181 2.488-0.5h0.313c2.319 0 4.2 1.613 4.2 3.6v1.2z"></path>
</svg>
