<!-- Generated by IcoMoon.io -->
<svg version="1.1" xmlns="http://www.w3.org/2000/svg" width="28" height="32" viewBox="0 0 28 32">
<title>address-book</title>
<path d="M27.25 10c0.413 0 0.75-0.338 0.75-0.75v-2.5c0-0.412-0.337-0.75-0.75-0.75h-1.25v-2c0-2.206-1.794-4-4-4h-18c-2.206 0-4 1.794-4 4v24c0 2.206 1.794 4 4 4h18c2.206 0 4-1.794 4-4v-2h1.25c0.413 0 0.75-0.337 0.75-0.75v-2.5c0-0.413-0.337-0.75-0.75-0.75h-1.25v-4h1.25c0.413 0 0.75-0.337 0.75-0.75v-2.5c0-0.412-0.337-0.75-0.75-0.75h-1.25v-4h1.25zM24 28c0 1.1-0.9 2-2 2h-18c-1.1 0-2-0.9-2-2v-24c0-1.1 0.9-2 2-2h18c1.1 0 2 0.9 2 2v24zM13 17c2.762 0 5-2.238 5-5s-2.238-5-5-5-5 2.238-5 5 2.238 5 5 5zM13 9c1.656 0 3 1.344 3 3s-1.344 3-3 3-3-1.344-3-3 1.344-3 3-3zM15.925 18c-1.219 0-1.525 0.438-2.925 0.438s-1.706-0.438-2.925-0.438c-1.325 0-2.612 0.587-3.362 1.712-0.45 0.669-0.713 1.475-0.713 2.344v2.444c0 0.275 0.225 0.5 0.5 0.5h1c0.275 0 0.5-0.225 0.5-0.5v-2.444c0-0.438 0.131-0.863 0.375-1.225 0.35-0.519 0.988-0.825 1.706-0.825 0.775 0 1.3 0.438 2.925 0.438 1.619 0 2.144-0.438 2.925-0.438 0.719 0 1.356 0.313 1.706 0.825 0.244 0.363 0.375 0.788 0.375 1.225v2.444c0 0.275 0.225 0.5 0.5 0.5h1c0.275 0 0.5-0.225 0.5-0.5v-2.444c0-0.869-0.262-1.675-0.712-2.344-0.769-1.125-2.056-1.712-3.375-1.712z"></path>
</svg>
