<!-- Generated by IcoMoon.io -->
<svg version="1.1" xmlns="http://www.w3.org/2000/svg" width="32" height="32" viewBox="0 0 32 32">
<title>adjust</title>
<path d="M16 2.5c7.497 0 13.5 6.084 13.5 13.5 0 7.497-6.084 13.5-13.5 13.5-7.497 0-13.5-6.084-13.5-13.5 0-7.497 6.084-13.5 13.5-13.5zM16 0.5c-8.56 0-15.5 6.94-15.5 15.5s6.94 15.5 15.5 15.5 15.5-6.94 15.5-15.5-6.94-15.5-15.5-15.5zM14 8.251v15.499c-3.366-0.863-6-3.938-6-7.749s2.634-6.887 6-7.749zM16 6c-5.523 0-10 4.477-10 10s4.477 10 10 10v-20z"></path>
</svg>
