<!-- Generated by IcoMoon.io -->
<svg version="1.1" xmlns="http://www.w3.org/2000/svg" width="24" height="32" viewBox="0 0 24 32">
<title>air-freshener-solid</title>
<path d="M23.684 20.088l-5.89-6.088h3.076c0.956 0 1.479-1.037 0.866-1.721l-7.083-7.907c0.214-0.413 0.347-0.875 0.347-1.373 0-1.657-1.343-3-3-3s-3 1.343-3 3c0 0.498 0.133 0.959 0.347 1.373l-7.083 7.907c-0.613 0.683-0.090 1.721 0.866 1.721h3.076l-5.89 6.088c-0.734 0.759-0.107 1.912 1.040 1.912h8.644v2h-7c-0.553 0-1 0.448-1 1v6c0 0.552 0.447 1 1 1h18c0.552 0 1-0.448 1-1v-6c0-0.552-0.448-1-1-1h-7v-2h8.644c1.148 0 1.774-1.152 1.040-1.912zM12 1.999c0.553 0 1.001 0.448 1.001 1.001s-0.448 1.001-1.001 1.001-1.001-0.449-1.001-1.001c0-0.553 0.448-1.001 1.001-1.001zM19 27v2h-14v-2h14z"></path>
</svg>
