<!-- Generated by IcoMoon.io -->
<svg version="1.1" xmlns="http://www.w3.org/2000/svg" width="36" height="32" viewBox="0 0 36 32">
<title>air-conditioner-solid</title>
<path d="M34 0h-32c-1.105 0-2 0.895-2 2v0 10c0 1.105 0.895 2 2 2v0h32c1.105 0 2-0.895 2-2v0-10c0-1.105-0.895-2-2-2v0zM32 10h-28v-2h28zM13.5 26.5c0 1.381-1.119 2.5-2.5 2.5v0h-0.389c-1.25 0-2.386-0.867-2.58-2.101-0.18-1.151 0.432-2.139 1.365-2.592 0.358-0.174 0.604-0.516 0.604-0.914v-1.101c-0.001-0.555-0.451-1.005-1.006-1.005-0.119 0-0.233 0.021-0.34 0.059l0.007-0.002c-2.151 0.77-3.662 2.79-3.662 5.164 0 0.245 0.016 0.486 0.047 0.723l-0.003-0.028c0.348 2.786 2.866 4.797 5.673 4.797h0.283c3.038 0 5.5-2.462 5.5-5.5v0-10.5h-3zM27.339 19.344c-0.099-0.036-0.213-0.057-0.332-0.057-0.555 0-1.005 0.45-1.006 1.005v1.101c0 0.399 0.246 0.741 0.604 0.914 0.933 0.453 1.545 1.441 1.365 2.592-0.194 1.233-1.331 2.101-2.58 2.101h-0.389c-1.381 0-2.5-1.119-2.5-2.5v0-8.5h-3v8.5c0 3.038 2.462 5.5 5.5 5.5v0h0.283c2.808 0 5.326-2.011 5.673-4.797 0.028-0.209 0.044-0.45 0.044-0.695 0-2.373-1.511-4.394-3.624-5.152l-0.038-0.012z"></path>
</svg>
