<!-- Generated by IcoMoon.io -->
<svg version="1.1" xmlns="http://www.w3.org/2000/svg" width="36" height="32" viewBox="0 0 36 32">
<title>air-conditioner</title>
<path d="M34 0h-32c-1.105 0-2 0.895-2 2v0 10c0 1.105 0.895 2 2 2v0h32c1.105 0 2-0.895 2-2v0-10c0-1.105-0.895-2-2-2v0zM34 12h-32v-10h32zM4.5 10h27c0.276 0 0.5-0.224 0.5-0.5v0-1c0-0.276-0.224-0.5-0.5-0.5v0h-27c-0.276 0-0.5 0.224-0.5 0.5v0 1c0 0.276 0.224 0.5 0.5 0.5v0zM14 26.5c0 1.933-1.567 3.5-3.5 3.5v0h-1c-1.934-0.003-3.501-1.571-3.501-3.506 0-0.258 0.028-0.51 0.081-0.753l-0.004 0.023c0.335-1.636 1.855-2.765 3.525-2.765h0.899c0.276 0 0.5-0.224 0.5-0.5v0-1c0-0.276-0.224-0.5-0.5-0.5v0h-1c-3.038 0.003-5.5 2.467-5.5 5.506 0 0.191 0.010 0.38 0.029 0.567l-0.002-0.023c0.278 2.857 2.848 4.951 5.718 4.951h0.756c3.038 0 5.5-2.462 5.5-5.5v0-10.5h-2zM26.256 19h-0.756c-0.276 0-0.5 0.224-0.5 0.5v0 1c0 0.276 0.224 0.5 0.5 0.5v0h1c1.934 0.003 3.501 1.571 3.501 3.506 0 0.258-0.028 0.51-0.081 0.753l0.004-0.023c-0.335 1.636-1.855 2.765-3.525 2.765h-0.899c-1.933 0-3.5-1.567-3.5-3.5v0-8.5h-2v8.5c0 3.038 2.462 5.5 5.5 5.5v0h1c3.038-0.003 5.5-2.467 5.5-5.506 0-0.191-0.010-0.38-0.029-0.567l0.002 0.023c-0.278-2.857-2.848-4.951-5.717-4.951z"></path>
</svg>
