<!-- Generated by IcoMoon.io -->
<svg version="1.1" xmlns="http://www.w3.org/2000/svg" width="26" height="32" viewBox="0 0 26 32">
<title>air-freshener</title>
<path d="M25.403 20.392l-4.25-4.393h0.717c0.852 0 1.621-0.488 1.957-1.241 0.324-0.726 0.191-1.549-0.346-2.146l-7.677-8.572c0.121-0.325 0.196-0.672 0.196-1.040 0-1.657-1.343-3-3-3s-3 1.343-3 3c0 0.368 0.076 0.715 0.196 1.040l-7.678 8.571c-0.537 0.599-0.67 1.422-0.346 2.148 0.336 0.754 1.106 1.241 1.957 1.241h0.717l-4.25 4.392c-0.592 0.613-0.758 1.467-0.434 2.229 0.354 0.837 1.215 1.378 2.191 1.378h9.146v2h-7.501c-0.553 0-1 0.448-1 1v4.001c0 0.552 0.447 1 1 1h18.001c0.552 0 1-0.448 1-1v-4.001c0-0.552-0.448-1-1-1h-7.501v-2h9.145c0.977 0 1.838-0.541 2.191-1.378 0.325-0.762 0.159-1.617-0.433-2.229zM13 2c0.551 0 1 0.449 1 1s-0.449 1-1 1-1-0.449-1-1 0.449-1 1-1zM21.001 27.999v2.001h-16.001v-2.001h16.001zM23.645 21.999h-21.29c-0.258 0-0.354-0.136-0.321-0.217l6.723-6.947c0.306-0.316 0.084-0.844-0.354-0.848l-4.395-0.043 7.491-8.363c0.443 0.259 0.952 0.418 1.502 0.418 0.523 0 1.008-0.146 1.436-0.381l7.433 8.381h-4.257c-0.441 0-0.666 0.53-0.359 0.848l6.747 6.981c-0.002 0.036-0.098 0.171-0.356 0.171z"></path>
</svg>
