<!-- Generated by IcoMoon.io -->
<svg version="1.1" xmlns="http://www.w3.org/2000/svg" width="32" height="32" viewBox="0 0 32 32">
<title>alarm-clock-solid</title>
<path d="M6 0c-3.314 0-6 2.686-6 6v0c0.005 1.192 0.361 2.3 0.97 3.226l-0.014-0.022 9.119-7.599c-1.064-0.994-2.498-1.605-4.075-1.605h-0zM26 0c-1.576 0-3.009 0.61-4.077 1.607l0.003-0.003 9.118 7.598c0.595-0.904 0.95-2.011 0.956-3.2v-0.001c0-3.314-2.686-6-6-6v0zM16 4c-7.731 0-14 6.268-14 14 0 0.001 0 0.002 0 0.003 0 3.158 1.052 6.071 2.825 8.407l-0.025-0.035-2.506 2.506c-0.181 0.181-0.293 0.431-0.293 0.707s0.112 0.526 0.293 0.707l1.414 1.414c0.181 0.181 0.431 0.293 0.707 0.293s0.526-0.112 0.707-0.293v0l2.504-2.508c2.302 1.748 5.216 2.8 8.375 2.8s6.073-1.052 8.41-2.825l-0.035 0.025 2.506 2.506c0.181 0.181 0.431 0.293 0.707 0.293s0.526-0.112 0.707-0.293l1.414-1.414c0.181-0.181 0.293-0.431 0.293-0.707s-0.112-0.526-0.293-0.707l-2.506-2.504c1.746-2.3 2.797-5.212 2.797-8.369 0-0.002 0-0.005 0-0.007v0c0-7.732-6.266-14-14-14zM21.625 22.219l-1.25 1.563c-0.185 0.23-0.466 0.375-0.781 0.375-0.237 0-0.455-0.083-0.627-0.221l0.002 0.002-4.032-3.226c-0.574-0.462-0.938-1.164-0.938-1.952 0-0 0-0 0-0v0-7.76c0-0.552 0.448-1 1-1v0h2c0.552 0 1 0.448 1 1v0 7.039l3.469 2.775c0.23 0.185 0.375 0.466 0.375 0.781 0 0.237-0.083 0.455-0.221 0.627l0.002-0.002z"></path>
</svg>
