<!-- Generated by IcoMoon.io -->
<svg version="1.1" xmlns="http://www.w3.org/2000/svg" width="32" height="32" viewBox="0 0 32 32">
<title>alarm-exclamation-solid</title>
<path d="M6 0c-3.314 0-6 2.686-6 6v0c0.005 1.192 0.361 2.3 0.97 3.226l-0.014-0.022 9.119-7.599c-1.064-0.994-2.498-1.605-4.075-1.605h-0zM26 0c-1.576 0-3.009 0.61-4.077 1.607l0.003-0.003 9.118 7.598c0.595-0.904 0.95-2.011 0.956-3.2v-0.001c0-3.314-2.686-6-6-6v0zM16 4c-7.731 0-14 6.268-14 14 0 0.001 0 0.002 0 0.003 0 3.158 1.052 6.071 2.825 8.407l-0.025-0.035-2.506 2.506c-0.181 0.181-0.293 0.431-0.293 0.707s0.112 0.526 0.293 0.707l1.414 1.414c0.181 0.181 0.431 0.293 0.707 0.293s0.526-0.112 0.707-0.293v0l2.504-2.508c2.302 1.748 5.216 2.8 8.375 2.8s6.073-1.052 8.41-2.825l-0.035 0.025 2.506 2.506c0.181 0.181 0.431 0.293 0.707 0.293s0.526-0.112 0.707-0.293l1.414-1.414c0.181-0.181 0.293-0.431 0.293-0.707s-0.112-0.526-0.293-0.707l-2.506-2.504c1.746-2.3 2.797-5.212 2.797-8.369 0-0.002 0-0.005 0-0.007v0c0-7.732-6.266-14-14-14zM16 26c-1.105 0-2-0.895-2-2s0.895-2 2-2c1.105 0 2 0.895 2 2v0c0 1.105-0.895 2-2 2v0zM17.587 19.1c-0.052 0.507-0.477 0.899-0.994 0.9h-1.188c-0.517-0.001-0.941-0.393-0.993-0.896l-0-0.004-0.8-8c-0.003-0.029-0.005-0.062-0.005-0.096 0-0.552 0.446-1.001 0.998-1.004h2.788c0.552 0.001 0.999 0.448 0.999 1 0 0.035-0.002 0.070-0.005 0.104l0-0.004z"></path>
</svg>
