<!-- Generated by IcoMoon.io -->
<svg version="1.1" xmlns="http://www.w3.org/2000/svg" width="32" height="32" viewBox="0 0 32 32">
<title>alarm-exclamation</title>
<path d="M16 22c-0.828 0-1.5 0.672-1.5 1.5s0.672 1.5 1.5 1.5c0.828 0 1.5-0.672 1.5-1.5v0c0-0.828-0.672-1.5-1.5-1.5v0zM15.469 20.5h1.063c0.264-0.004 0.479-0.208 0.5-0.467l0-0.002 0.438-8.5c0.001-0.009 0.001-0.020 0.001-0.031 0-0.276-0.224-0.5-0.5-0.5-0 0-0.001 0-0.001 0h-1.937c-0 0-0.001 0-0.001 0-0.276 0-0.5 0.224-0.5 0.5 0 0.011 0 0.022 0.001 0.033l-0-0.001 0.438 8.5c0.017 0.262 0.234 0.469 0.499 0.469 0 0 0.001 0 0.001 0h-0zM2 7c0.003-2.76 2.24-4.997 5-5h0c1.191 0.004 2.282 0.428 3.133 1.132l-0.008-0.007c0.588-0.241 1.306-0.473 2.044-0.653l0.108-0.022c-1.284-1.486-3.161-2.45-5.277-2.45-3.864 0.005-6.995 3.136-7 7v0c0 1.616 0.573 3.088 1.5 4.274 0.358-0.772 0.721-1.42 1.125-2.039l-0.038 0.061c-0.364-0.664-0.581-1.455-0.587-2.295v-0.002zM25 0c-2.116 0-3.993 0.964-5.277 2.453 0.847 0.202 1.565 0.434 2.259 0.713l-0.106-0.038c0.843-0.697 1.934-1.121 3.124-1.125h0.001c2.76 0.003 4.997 2.24 5 5v0c-0.006 0.842-0.222 1.632-0.598 2.323l0.013-0.026c0.366 0.556 0.727 1.204 1.044 1.877l0.041 0.098c0.924-1.188 1.5-2.658 1.5-4.274-0.005-3.864-3.136-6.995-7-7h-0zM16 4c-7.732 0-14 6.268-14 14 0 0.002 0 0.005 0 0.007 0 3.511 1.298 6.718 3.441 9.168l-0.014-0.016-3.281 3.279c-0.091 0.090-0.147 0.216-0.147 0.354s0.056 0.263 0.147 0.354v0l0.707 0.707c0.091 0.091 0.216 0.147 0.354 0.147s0.263-0.056 0.354-0.147v0l3.281-3.281c2.436 2.129 5.646 3.427 9.159 3.427s6.722-1.298 9.175-3.441l-0.016 0.014 3.279 3.283c0.090 0.091 0.216 0.147 0.354 0.147s0.263-0.056 0.354-0.147v0l0.707-0.707c0.091-0.090 0.147-0.216 0.147-0.354s-0.056-0.263-0.147-0.354v0l-3.281-3.281c2.13-2.434 3.429-5.642 3.429-9.153 0-0.002 0-0.004 0-0.006v0c0-7.732-6.268-14-14-14zM16 30c-6.617 0-12-5.383-12-12s5.383-12 12-12 12 5.383 12 12-5.383 12-12 12z"></path>
</svg>
