<!-- Generated by IcoMoon.io -->
<svg version="1.1" xmlns="http://www.w3.org/2000/svg" width="32" height="32" viewBox="0 0 32 32">
<title>album-collection</title>
<path d="M31 5c0-0.552-0.448-1-1-1v0h-28c-0.552 0-1 0.448-1 1v0 1h30zM30 1c0-0.552-0.448-1-1-1v0h-26c-0.552 0-1 0.448-1 1v0 1h28zM30 8h-28c-1.176 0-2.098 1.101-1.992 2.379l1.636 19.636c0.094 1.125 0.957 1.984 1.992 1.984h24.727c1.034 0 1.898-0.861 1.991-1.984l1.637-19.636c0.106-1.278-0.816-2.379-1.992-2.379zM28.362 29.85c-0.008 0.092-0.043 0.144-0.012 0.15l-24.645 0.017c-0.041-0.044-0.066-0.103-0.067-0.167v-0l-1.637-19.636c-0.011-0.131 0.042-0.207 0.007-0.213h27.938c0.034 0.049 0.054 0.11 0.054 0.175 0 0.013-0.001 0.027-0.003 0.040l0-0.002zM16 18.697c-0.909 0-1.641 0.635-1.633 1.413s0.739 1.391 1.633 1.391 1.625-0.619 1.634-1.389-0.724-1.414-1.634-1.414zM16 12c-5.806 0-10.271 3.867-9.987 8.4 0.269 4.288 4.737 7.6 9.987 7.6s9.719-3.313 9.988-7.6c0.283-4.532-4.181-8.4-9.988-8.4zM16 26c-4.209 0-7.794-2.568-7.991-5.725-0.106-1.688 0.732-2.956 1.453-3.724 1.524-1.621 3.907-2.551 6.538-2.551s5.014 0.93 6.538 2.551c0.721 0.768 1.559 2.038 1.454 3.724-0.198 3.157-3.782 5.725-7.991 5.725z"></path>
</svg>
