<!-- Generated by IcoMoon.io -->
<svg version="1.1" xmlns="http://www.w3.org/2000/svg" width="32" height="32" viewBox="0 0 32 32">
<title>album-collection-solid</title>
<path d="M31 6.5c0-0.828-0.672-1.5-1.5-1.5v0h-27c-0.828 0-1.5 0.672-1.5 1.5v0 1.5h30zM30 1.5c0-0.828-0.672-1.5-1.5-1.5v0h-25c-0.828 0-1.5 0.672-1.5 1.5v0 1.5h28zM16 20.353c-1.039 0-1.875 0.621-1.866 1.381s0.844 1.357 1.866 1.357 1.858-0.605 1.867-1.358-0.827-1.381-1.867-1.381zM30 10h-28c-0 0-0 0-0 0-1.105 0-2 0.895-2 2 0 0.064 0.003 0.127 0.009 0.189l-0.001-0.008 1.637 18c0.096 1.024 0.951 1.818 1.991 1.819h24.728c1.041-0 1.895-0.795 1.991-1.811l0.001-0.008 1.637-18c0.005-0.054 0.008-0.117 0.008-0.181 0-1.105-0.895-2-2-2-0 0-0 0-0 0v0zM16 29.556c-5.891 0-10.899-3.408-11.201-7.822-0.317-4.665 4.689-8.646 11.201-8.646s11.518 3.981 11.201 8.646c-0.301 4.414-5.309 7.822-11.201 7.822z"></path>
</svg>
