<!-- Generated by IcoMoon.io -->
<svg version="1.1" xmlns="http://www.w3.org/2000/svg" width="40" height="32" viewBox="0 0 40 32">
<title>alicorn</title>
<path d="M39.499 4h-6.057l-0.015-0.019c0.337-0.591 0.524-1.27 0.524-1.981 0-1.104-0.896-2-2-2h-6.95c-4.324 0-7.836 3.454-7.974 7.745-2.231-0.576-3.944-2.169-5.094-4.788-0.25-0.572-0.816-0.947-1.439-0.957-0.658 0.013-1.178 0.335-1.446 0.899-0.694 1.472-1.046 3.043-1.046 4.669 0 4.711 3.535 8.975 8.304 10.119 0.276 0.066 0.554-0.122 0.606-0.402l0.186-0.981c0.050-0.264-0.121-0.511-0.381-0.575-3.859-0.949-6.715-4.379-6.715-8.161 0-1.019 0.17-2.012 0.504-2.961 1.832 3.533 4.753 5.393 8.492 5.393l0.004-2c0-3.314 2.686-6 6-6h6.95c0 0.831-0.506 1.541-1.227 1.844l1.274 1.549 0.003 5.867c0 0 0 0 0 0.001 0 0.437-0.28 0.808-0.67 0.944l-0.007 0.002-1.595 0.544c-0.583 0.199-1.009-0.172-1.155-0.392l-1.574-2.359-3-1v6.263c0 1.667-0.791 3.136-2 4.1v10.637h-4v-10.082l-6.527-1.451-2.008 5.592 1.505 5.941h-3.596l-1.321-5.491c-0.035-0.139-0.055-0.298-0.055-0.462 0-0.196 0.028-0.385 0.081-0.563l-0.004 0.014 1.727-5.838c-1.088-0.761-1.804-2.019-1.804-3.449 0-0.989 0.355-1.886 0.926-2.605-0.309-0.678-0.561-1.377-0.713-2.108-0.506 0.434-0.949 0.939-1.298 1.511-2.722 0.046-4.916 2.258-4.916 4.991v3.5c0 0.276 0.224 0.5 0.5 0.5h1c0.276 0 0.5-0.224 0.5-0.5v-3.5c0-1.344 0.889-2.467 2.107-2.849-0.060 0.346-0.107 0.697-0.107 1.060 0 1.512 0.556 2.958 1.533 4.078l-1.373 4.642c-0.195 0.673-0.211 1.377-0.050 2.046l1.321 5.491c0.215 0.899 1.019 1.533 1.944 1.533h3.596c1.309 0 2.258-1.234 1.939-2.491l-1.355-5.348 1.206-3.358 3.24 0.72v8.477c0 1.104 0.896 2 2 2h4c1.104 0 2-0.896 2-2v-9.762c1.281-1.344 2-3.109 2-4.974v-3.158l0.909 1.364c1.194 1.792 3.124 1.292 3.466 1.175l1.595-0.544c1.215-0.414 2.031-1.556 2.031-2.84l-0.002-4.052 5.778-2.291c0.411-0.275 0.217-0.917-0.278-0.917zM29.001 6c0-0.553-0.448-1-1-1s-1 0.447-1 1 0.448 1 1 1c0.552 0 1-0.447 1-1z"></path>
</svg>
