<!-- Generated by IcoMoon.io -->
<svg version="1.1" xmlns="http://www.w3.org/2000/svg" width="36" height="32" viewBox="0 0 36 32">
<title>alien-monster-solid</title>
<path d="M35 8h-2c0 0-0 0-0 0-0.552 0-1 0.448-1 1 0 0 0 0 0 0v0 5h-2v-3c0 0 0-0 0-0 0-0.552-0.448-1-1-1 0 0-0 0-0 0h-3v-4h3c0.552-0 1-0.448 1-1v0-2c0 0 0-0 0-0 0-0.552-0.448-1-1-1 0 0-0 0-0 0h-2c0 0-0 0-0 0-0.552 0-1 0.448-1 1 0 0 0 0 0 0v0 1h-3c0 0-0 0-0 0-0.552 0-1 0.448-1 1 0 0 0 0 0 0v0 3h-8v-3c0 0 0-0 0-0 0-0.552-0.448-1-1-1 0 0-0 0-0 0h-3v-1c0 0 0-0 0-0 0-0.552-0.448-1-1-1 0 0-0 0-0 0h-2c0 0-0 0-0 0-0.552 0-1 0.448-1 1 0 0 0 0 0 0v0 2c0 0.552 0.448 1 1 1h3v4h-3c0 0-0 0-0 0-0.552 0-1 0.448-1 1 0 0 0 0 0 0v0 3h-2v-5c0 0 0-0 0-0 0-0.552-0.448-1-1-1 0 0-0 0-0 0h-2c0 0-0 0-0 0-0.552 0-1 0.448-1 1 0 0 0 0 0 0v0 8c0 0.552 0.448 1 1 1h3v5c0 0.552 0.448 1 1 1h3v5c0 0.552 0.448 1 1 1h6c0.552-0 1-0.448 1-1v0-2c0 0 0-0 0-0 0-0.552-0.448-1-1-1 0 0-0 0-0 0h-3v-2h12v2h-3c0 0-0 0-0 0-0.552 0-1 0.448-1 1 0 0 0 0 0 0v0 2c0 0.552 0.448 1 1 1h6c0.552-0 1-0.448 1-1v0-5h3c0.552-0 1-0.448 1-1v0-5h3c0.552-0 1-0.448 1-1v0-8c0 0 0-0 0-0 0-0.552-0.448-1-1-1 0 0-0 0-0 0v0zM14 20h-4v-6h4zM26 20h-4v-6h4z"></path>
</svg>
