<!-- Generated by IcoMoon.io -->
<svg version="1.1" xmlns="http://www.w3.org/2000/svg" width="28" height="32" viewBox="0 0 28 32">
<title>alien-solid</title>
<path d="M14 0c-7.732 0-14 5.502-14 14.528 0 6.986 8.388 14.037 12.179 16.867 0.501 0.378 1.135 0.605 1.821 0.605s1.32-0.227 1.829-0.61l-0.008 0.006c3.791-2.83 12.179-9.881 12.179-16.867 0-9.026-6.268-14.528-14-14.528zM11 20h-2c-2.761 0-5-2.239-5-5v0c0 0 0-0 0-0 0-0.552 0.448-1 1-1 0 0 0 0 0 0h2c0 0 0 0 0 0 2.761 0 5 2.239 5 5 0 0 0 0 0 0v0c-0 0.552-0.448 1-1 1v0zM19 20h-2c-0.552-0-1-0.448-1-1v0c0-0 0-0 0-0 0-2.761 2.239-5 5-5 0 0 0 0 0 0h2c0 0 0 0 0 0 0.552 0 1 0.448 1 1 0 0 0 0 0 0v0c0 2.761-2.239 5-5 5v0z"></path>
</svg>
