<!-- Generated by IcoMoon.io -->
<svg version="1.1" xmlns="http://www.w3.org/2000/svg" width="36" height="32" viewBox="0 0 36 32">
<title>alien-monster</title>
<path d="M12 20h2v-6h-2zM22 20h2v-6h-2zM34 7h-2c-1.104 0.001-1.999 0.896-2 2v1h-4v-2h2c1.104-0.001 1.999-0.896 2-2v-2c-0.001-1.104-0.896-1.999-2-2h-2c-1.104 0.001-1.999 0.896-2 2v0h-2c-1.104 0.001-1.999 0.896-2 2v2h-4v-2c-0.001-1.104-0.896-1.999-2-2h-2c-0.001-1.104-0.896-1.999-2-2h-2c-1.104 0.001-1.999 0.896-2 2v2c0.001 1.104 0.896 1.999 2 2h2v2h-4v-1c-0.001-1.104-0.896-1.999-2-2h-2c-1.104 0.001-1.999 0.896-2 2v9c0.001 1.104 0.896 1.999 2 2h2v2c0.001 1.104 0.896 1.999 2 2h2v4c0.001 1.104 0.896 1.999 2 2h5c1.104-0.001 1.999-0.896 2-2v-2c-0.001-1.104-0.896-1.999-2-2h6c-1.104 0.001-1.999 0.896-2 2v2c0.001 1.104 0.896 1.999 2 2h5c1.104-0.001 1.999-0.896 2-2v-4h2c1.104-0.001 1.999-0.896 2-2v-2h2c1.104-0.001 1.999-0.896 2-2v-9c-0.001-1.104-0.896-1.999-2-2h-0zM26 4h2v2h-2zM8 6v-2h2v2zM15 28h-5v-4h2v2h3zM26 28h-5v-2h3v-2h2zM34 18h-4v4h-24v-4h-4v-9h2v7h2v-4h6v-6h2v4h8v-4h2v6h6v4h2v-7h2z"></path>
</svg>
