<!-- Generated by IcoMoon.io -->
<svg version="1.1" xmlns="http://www.w3.org/2000/svg" width="28" height="32" viewBox="0 0 28 32">
<title>alien</title>
<path d="M14 0c-7.732 0-14 5.502-14 14.528 0 6.986 8.388 14.037 12.179 16.867 0.501 0.378 1.135 0.605 1.821 0.605s1.32-0.227 1.829-0.61l-0.008 0.006c3.791-2.83 12.179-9.881 12.179-16.867 0-9.026-6.27-14.528-14-14.528zM14.624 29.793c-0.172 0.129-0.389 0.207-0.625 0.207s-0.453-0.078-0.627-0.209l0.003 0.002c-2.669-1.992-11.375-8.98-11.375-15.265 0-7.376 4.935-12.528 12-12.528s12 5.152 12 12.528c0 6.284-8.707 13.272-11.376 15.265zM23 13.25h-3c-0 0-0 0-0 0-2.761 0-5 2.239-5 5 0 0 0 0 0 0v0 0.75c0 0.552 0.448 1 1 1h3c2.761 0 5-2.239 5-5v0-0.75c0 0 0-0 0-0 0-0.552-0.448-1-1-1 0 0-0 0-0 0v0zM19 18h-1.99c0.135-1.545 1.422-2.748 2.989-2.75h1.99c-0.135 1.545-1.422 2.748-2.989 2.75h-0zM8 13.25h-3c0 0-0 0-0 0-0.552 0-1 0.448-1 1 0 0 0 0 0 0v0 0.75c0 2.761 2.239 5 5 5h3c0.552-0 1-0.448 1-1v0-0.75c0-0 0-0 0-0 0-2.761-2.239-5-5-5-0 0-0 0-0 0v0zM9 18c-1.568-0.002-2.855-1.205-2.989-2.739l-0.001-0.011h1.99c1.568 0.002 2.855 1.205 2.989 2.739l0.001 0.011z"></path>
</svg>
