<!-- Generated by IcoMoon.io -->
<svg version="1.1" xmlns="http://www.w3.org/2000/svg" width="28" height="32" viewBox="0 0 28 32">
<title>align-center-solid</title>
<path d="M27 10h-26c-0.552 0-1 0.448-1 1v0 2c0 0.552 0.448 1 1 1v0h26c0.552 0 1-0.448 1-1v0-2c0-0.552-0.448-1-1-1v0zM27 26h-26c-0.552 0-1 0.448-1 1v0 2c0 0.552 0.448 1 1 1v0h26c0.552 0 1-0.448 1-1v0-2c0-0.552-0.448-1-1-1v0zM6.756 6h14.488c0.417 0 0.756-0.338 0.756-0.756 0-0 0-0 0-0.001v0-2.488c0-0.417-0.338-0.756-0.756-0.756v0h-14.488c-0 0-0 0-0.001 0-0.417 0-0.756 0.338-0.756 0.756v0 2.488c0 0.418 0.339 0.756 0.756 0.756v0zM21.244 22c0.417 0 0.756-0.338 0.756-0.756 0-0 0-0 0-0.001v0-2.488c0-0.417-0.338-0.756-0.756-0.756v0h-14.488c-0 0-0 0-0.001 0-0.417 0-0.756 0.338-0.756 0.756v0 2.488c0 0.418 0.339 0.756 0.756 0.756v0z"></path>
</svg>
