<!-- Generated by IcoMoon.io -->
<svg version="1.1" xmlns="http://www.w3.org/2000/svg" width="40" height="32" viewBox="0 0 40 32">
<title>align-slash-solid</title>
<path d="M39.614 28.631l-8.58-6.631h1.966c0.552 0 1-0.448 1-1v0-2c0-0.552-0.448-1-1-1v0h-7.142l-5.176-4h12.317c0.552 0 1-0.448 1-1v0-2c0-0.552-0.448-1-1-1v0h-17.492l-5.176-4h22.668c0.552 0 1-0.448 1-1v0-2c0-0.552-0.448-1-1-1v0h-26c-0.439 0.004-0.81 0.293-0.936 0.692l-0.002 0.007-3.221-2.487c-0.168-0.131-0.382-0.211-0.614-0.211-0.32 0-0.605 0.15-0.788 0.384l-0.002 0.002-1.227 1.579c-0.131 0.168-0.21 0.381-0.21 0.614 0 0.32 0.15 0.605 0.384 0.788l0.002 0.002 36.773 28.42c0.168 0.131 0.382 0.211 0.614 0.211 0.32 0 0.605-0.15 0.788-0.384l0.002-0.002 1.227-1.579c0.131-0.168 0.21-0.381 0.21-0.613 0-0.32-0.15-0.605-0.384-0.788l-0.002-0.002zM7 26c-0.552 0-1 0.448-1 1v0 2c0 0.552 0.448 1 1 1v0h21.302l-5.177-4zM7 22h10.951l-5.175-4h-5.776c-0.552 0-1 0.448-1 1v0 2c0 0.552 0.448 1 1 1v0z"></path>
</svg>
