<!-- Generated by IcoMoon.io -->
<svg version="1.1" xmlns="http://www.w3.org/2000/svg" width="28" height="32" viewBox="0 0 28 32">
<title>align-left-solid</title>
<path d="M0.802 22h16.396c0 0 0 0 0.001 0 0.443 0 0.801-0.359 0.801-0.801 0-0 0-0 0-0.001v0-2.396c0-0 0-0 0-0.001 0-0.443-0.359-0.801-0.801-0.801-0 0-0 0-0.001 0h-16.396c-0 0-0 0-0.001 0-0.443 0-0.801 0.359-0.801 0.801 0 0 0 0 0 0.001v-0 2.396c0 0 0 0 0 0.001 0 0.443 0.359 0.801 0.801 0.801 0 0 0 0 0.001 0h-0zM0.802 6h16.396c0 0 0 0 0.001 0 0.443 0 0.801-0.359 0.801-0.801 0-0 0-0 0-0.001v0-2.396c0-0 0-0 0-0.001 0-0.443-0.359-0.801-0.801-0.801-0 0-0 0-0.001 0h-16.396c-0 0-0 0-0.001 0-0.443 0-0.801 0.359-0.801 0.801 0 0 0 0 0 0.001v-0 2.396c0 0 0 0 0 0.001 0 0.443 0.359 0.801 0.801 0.801 0 0 0 0 0.001 0h-0zM27 10h-26c-0.552 0-1 0.448-1 1v0 2c0 0.552 0.448 1 1 1v0h26c0.552 0 1-0.448 1-1v0-2c0-0.552-0.448-1-1-1v0zM27 26h-26c-0.552 0-1 0.448-1 1v0 2c0 0.552 0.448 1 1 1v0h26c0.552 0 1-0.448 1-1v0-2c0-0.552-0.448-1-1-1v0z"></path>
</svg>
