<!-- Generated by IcoMoon.io -->
<svg version="1.1" xmlns="http://www.w3.org/2000/svg" width="28" height="32" viewBox="0 0 28 32">
<title>align-justify-solid</title>
<path d="M27 26h-26c-0.552 0-1 0.448-1 1v0 2c0 0.552 0.448 1 1 1v0h26c0.552 0 1-0.448 1-1v0-2c0-0.552-0.448-1-1-1v0zM27 18h-26c-0.552 0-1 0.448-1 1v0 2c0 0.552 0.448 1 1 1v0h26c0.552 0 1-0.448 1-1v0-2c0-0.552-0.448-1-1-1v0zM27 10h-26c-0.552 0-1 0.448-1 1v0 2c0 0.552 0.448 1 1 1v0h26c0.552 0 1-0.448 1-1v0-2c0-0.552-0.448-1-1-1v0zM27 2h-26c-0.552 0-1 0.448-1 1v0 2c0 0.552 0.448 1 1 1v0h26c0.552 0 1-0.448 1-1v0-2c0-0.552-0.448-1-1-1v0z"></path>
</svg>
