<!-- Generated by IcoMoon.io -->
<svg version="1.1" xmlns="http://www.w3.org/2000/svg" width="40" height="32" viewBox="0 0 40 32">
<title>align-slash</title>
<path d="M33.5 19h-4.848l2.54 2h2.308c0.276 0 0.5-0.224 0.5-0.5v0-1c0-0.276-0.224-0.5-0.5-0.5v0zM34 11.5c0-0.276-0.224-0.5-0.5-0.5v0h-15.007l2.539 2h12.468c0.276 0 0.5-0.224 0.5-0.5v0zM33.5 5c0.276 0 0.5-0.224 0.5-0.5v0-1c0-0.276-0.224-0.5-0.5-0.5v0h-25.166l2.541 2zM6 20.5c0 0.276 0.224 0.5 0.5 0.5v0h15l-2.54-2h-12.46c-0.276 0-0.5 0.224-0.5 0.5v0zM39.813 30.332l-38.375-30.22c-0.084-0.071-0.194-0.113-0.314-0.113-0.157 0-0.296 0.073-0.386 0.187l-0.001 0.001-0.625 0.781c-0.069 0.085-0.112 0.194-0.112 0.313 0 0.157 0.073 0.296 0.186 0.387l0.001 0.001 38.375 30.22c0.084 0.069 0.193 0.11 0.311 0.11 0.157 0 0.296-0.073 0.387-0.186l0.001-0.001 0.625-0.781c0.071-0.084 0.114-0.194 0.114-0.314 0-0.156-0.073-0.295-0.186-0.384l-0.001-0.001zM6.5 27c-0.276 0-0.5 0.224-0.5 0.5v0 1c0 0.276 0.224 0.5 0.5 0.5v0h25.159l-2.54-2zM6.5 13h4.841l-2.54-2h-2.301c-0.276 0-0.5 0.224-0.5 0.5v0 1c0 0.276 0.224 0.5 0.5 0.5v0z"></path>
</svg>
