<!-- Generated by IcoMoon.io -->
<svg version="1.1" xmlns="http://www.w3.org/2000/svg" width="28" height="32" viewBox="0 0 28 32">
<title>allergies-solid</title>
<path d="M26 7c-1.1 0-2 0.9-2 2v4.5c0 0.275-0.225 0.5-0.5 0.5h-1c-0.275 0-0.5-0.225-0.5-0.5v-9.5c0-1.1-0.9-2-2-2s-2 0.9-2 2v9.5c0 0.275-0.225 0.5-0.5 0.5h-1c-0.275 0-0.5-0.225-0.5-0.5v-11.5c0-1.1-0.9-2-2-2s-2 0.9-2 2v11.5c0 0.275-0.225 0.5-0.5 0.5h-1c-0.275 0-0.5-0.225-0.5-0.5v-9.5c0-1.1-0.9-2-2-2s-2 0.9-2 2v15.063l-1.475-2.031c-0.813-1.119-2.375-1.363-3.494-0.55s-1.363 2.375-0.55 3.494l7.85 10.794c0.563 0.775 1.469 1.237 2.425 1.237h12.35c1.394 0 2.6-0.956 2.919-2.313l1.656-7.044c0.2-0.856 0.306-1.769 0.319-2.644v-11.006c0-1.1-0.9-2-2-2zM11 26c-0.55 0-1-0.45-1-1s0.45-1 1-1 1 0.45 1 1-0.45 1-1 1zM11 20c-0.55 0-1-0.45-1-1s0.45-1 1-1 1 0.45 1 1-0.45 1-1 1zM15 28c-0.55 0-1-0.45-1-1s0.45-1 1-1 1 0.45 1 1-0.45 1-1 1zM15 22c-0.55 0-1-0.45-1-1s0.45-1 1-1 1 0.45 1 1-0.45 1-1 1zM19 24c-0.55 0-1-0.45-1-1s0.45-1 1-1 1 0.45 1 1-0.45 1-1 1zM21 28c-0.55 0-1-0.45-1-1s0.45-1 1-1 1 0.45 1 1-0.45 1-1 1zM23 20c-0.55 0-1-0.45-1-1s0.45-1 1-1 1 0.45 1 1-0.45 1-1 1z"></path>
</svg>
