<!-- Generated by IcoMoon.io -->
<svg version="1.1" xmlns="http://www.w3.org/2000/svg" width="28" height="32" viewBox="0 0 28 32">
<title>allergies</title>
<path d="M15 26c-0.55 0-1 0.45-1 1s0.45 1 1 1 1-0.45 1-1-0.45-1-1-1zM21 26c-0.55 0-1 0.45-1 1s0.45 1 1 1 1-0.45 1-1-0.45-1-1-1zM11 24c-0.55 0-1 0.45-1 1s0.45 1 1 1 1-0.45 1-1-0.45-1-1-1zM23 18c-0.55 0-1 0.45-1 1s0.45 1 1 1 1-0.45 1-1-0.45-1-1-1zM19 22c-0.55 0-1 0.45-1 1s0.45 1 1 1 1-0.45 1-1-0.45-1-1-1zM15 20c-0.55 0-1 0.45-1 1s0.45 1 1 1 1-0.45 1-1-0.45-1-1-1zM11 18c-0.55 0-1 0.45-1 1s0.45 1 1 1 1-0.45 1-1-0.45-1-1-1zM24.5 7c-0.538 0-1.044 0.119-1.5 0.338v-1.838c0-1.931-1.569-3.5-3.5-3.5-0.606 0-1.175 0.156-1.669 0.425-0.456-1.406-1.775-2.425-3.331-2.425s-2.875 1.019-3.331 2.425c-0.494-0.269-1.063-0.425-1.669-0.425-1.931 0-3.5 1.569-3.5 3.5v9.55c-0.719-0.738-2.631-1.731-4.506-0.419-1.581 1.106-1.969 3.294-0.863 4.875l7.106 10.706c0.744 1.119 1.988 1.787 3.331 1.787h11.288c1.9 0 3.55-1.35 3.925-3.212l1.288-6.45c0.281-1.419 0.425-2.869 0.425-4.313v-7.525c0.006-1.931-1.563-3.5-3.494-3.5zM26 18.019c0 1.319-0.131 2.631-0.387 3.925l-1.288 6.45c-0.188 0.938-1.006 1.606-1.962 1.606h-11.287c-0.669 0-1.294-0.337-1.669-0.894l-7.138-10.744c-0.475-0.681-0.313-1.613 0.369-2.087 0.988-0.694 1.875 0.063 2.087 0.369l2.362 3.4c0.281 0.4 0.913 0.206 0.913-0.288v-14.256c0-0.831 0.669-1.5 1.5-1.5s1.5 0.669 1.5 1.5v10c0 0.275 0.225 0.5 0.5 0.5h1c0.275 0 0.5-0.225 0.5-0.5v-12c0-0.831 0.669-1.5 1.5-1.5s1.5 0.669 1.5 1.5v12c0 0.275 0.225 0.5 0.5 0.5h1c0.275 0 0.5-0.225 0.5-0.5v-10c0-0.831 0.669-1.5 1.5-1.5s1.5 0.669 1.5 1.5v10c0 0.275 0.225 0.5 0.5 0.5h1c0.275 0 0.5-0.225 0.5-0.5v-5c0-0.831 0.669-1.5 1.5-1.5s1.5 0.669 1.5 1.5v7.519z"></path>
</svg>
