<!-- Generated by IcoMoon.io -->
<svg version="1.1" xmlns="http://www.w3.org/2000/svg" width="40" height="32" viewBox="0 0 40 32">
<title>american-sign-language-interpreting</title>
<path d="M39.744 13.331c0-0.006-2.581-5.194-2.581-5.194-0.6-1.206-2.1-1.781-3.4-1.125l-3.456 1.75-4.938-0.463c-0.319-0.031-2.031-0.044-3.706 0.988-0.469-0.9-1.156-1.281-2.056-1.631 1.063-2.031-0.431-4.813-3.238-4.425 0.1-1.719-1.256-3.231-3.031-3.231-0.706 0-1.394 0.25-1.944 0.7-2.813 2.325-4.631 5.619-5.106 9.231l-2.038 3.7-3.006 1.725c-1.137 0.675-1.563 2.119-0.988 3.319 0 0.006 2.581 5.194 2.581 5.194 0.6 1.206 2.1 1.781 3.4 1.125l3.456-1.75c5.069 0.469 5.075 0.469 5.169 0.469 1.244 0 2.444-0.356 3.475-0.994 0.294 0.569 0.762 1.025 1.344 1.319 0.163 0.081 0.438 0.206 0.706 0.313-1.056 2.019 0.431 4.813 3.238 4.425-0.1 1.738 1.294 3.219 3.038 3.219 0.706 0 1.4-0.25 1.944-0.706 2.813-2.331 4.625-5.619 5.106-9.225l2.038-3.7s3-1.725 3.006-1.725c1.138-0.669 1.563-2.113 0.987-3.306zM18.519 11.65c-1.275-0.644-2.781-0.731-4.131-0.25-0.525 0.188-0.394 0.969 0.169 0.969 2.088 0 3.681 0.944 4.494 2.662 0.575 1.212-1.238 2.181-1.875 0.894-0.438-0.9-1.325-1.463-2.313-1.463-1.412 0-2.556 1.156-2.556 2.569 0 1.587 1.325 2.569 2.556 2.569 0.988 0 1.875-0.563 2.313-1.462 0 0 0-0.006 0.006-0.006 0.587-1.262 2.462-0.337 1.875 0.9-0.769 1.619-2.4 2.669-4.169 2.675-0.294-0.025-4-0.369-5.438-0.5-0.094-0.006-0.188 0.006-0.269 0.050l-3.838 1.944c-0.256 0.131-0.575 0.031-0.706-0.225v-0.006l-2.569-5.175c-0.125-0.262-0.038-0.581 0.206-0.725l3.356-1.925c0.081-0.044 0.144-0.113 0.188-0.194l2.375-4.319c0.031-0.056 0.050-0.119 0.056-0.188 0.356-3.231 1.931-6.144 4.431-8.213 1.037-0.869 2.419 0.706 1.313 1.631-0.781 0.669-1.444 1.4-1.969 2.175-0.306 0.456 0.244 1.006 0.694 0.694 1.244-0.85 2.612-1.375 4.075-1.55 0.538-0.069 1.069 0.269 1.156 0.912 0.075 0.581-0.319 1.106-0.9 1.169-0.962 0.119-1.887 0.438-2.75 0.956-0.481 0.287-0.188 1.037 0.363 0.919 1.519-0.338 3.3-0.106 4.762 0.606 1.288 0.65 0.288 2.494-0.906 1.906zM15.5 17.038c-0.125 0.206-0.225 0.569-0.637 0.569-0.175 0-0.556-0.144-0.556-0.569 0-0.319 0.244-0.569 0.556-0.569 0.412-0.006 0.506 0.35 0.637 0.569zM37.737 14.919l-3.356 1.925c-0.081 0.044-0.144 0.113-0.188 0.194l-2.375 4.319c-0.031 0.056-0.050 0.119-0.056 0.188-0.356 3.231-1.931 6.144-4.438 8.219-1.031 0.863-2.419-0.712-1.313-1.631 0.781-0.669 1.444-1.394 1.969-2.175 0.313-0.462-0.25-1-0.694-0.694-1.244 0.85-2.613 1.375-4.069 1.55-1.35 0.169-1.637-1.925-0.262-2.081 0.962-0.119 1.887-0.438 2.75-0.956 0.481-0.288 0.188-1.038-0.363-0.919-1.519 0.337-3.3 0.106-4.762-0.606-1.3-0.656-0.281-2.488 0.9-1.906 1.275 0.644 2.781 0.731 4.137 0.25 0.525-0.188 0.394-0.969-0.169-0.969-2.087 0-3.681-0.944-4.494-2.663-0.587-1.238 1.281-2.162 1.875-0.9l0.006 0.006c0.438 0.9 1.325 1.462 2.313 1.462 1.413 0 2.556-1.156 2.556-2.569 0-1.588-1.325-2.569-2.556-2.569-0.988 0-1.875 0.563-2.313 1.463l-0.006 0.006c-0.587 1.262-2.462 0.344-1.875-0.9 0.781-1.644 2.413-2.669 4.262-2.675l5.344 0.5c0.094 0.006 0.188-0.006 0.275-0.050l3.838-1.944c0.256-0.131 0.575-0.031 0.706 0.225v0.006l2.569 5.175c0.119 0.262 0.031 0.575-0.212 0.719zM24.5 14.963c0.119-0.206 0.219-0.569 0.637-0.569 0.175 0 0.556 0.144 0.556 0.569 0 0.319-0.244 0.569-0.556 0.569-0.413 0.006-0.506-0.35-0.637-0.569z"></path>
</svg>
