<!-- Generated by IcoMoon.io -->
<svg version="1.1" xmlns="http://www.w3.org/2000/svg" width="40" height="32" viewBox="0 0 40 32">
<title>american-sign-language-interpreting-solid</title>
<path d="M18.159 11.815c-1.268-0.634-2.759-0.7-4.046-0.243 2.663 0 4.45 1.28 5.349 3.161 0.536 1.119-0.322 2.379-1.476 2.379 1.152 0 2.013 1.259 1.476 2.379-0.92 1.928-2.883 3.178-5.019 3.178-0.035 0-5.904-0.538-5.904-0.538l-4.15 2.084c-0.587 0.293-1.238 0.024-1.493-0.486l-2.779-5.558c-0.26-0.538-0.069-1.181 0.434-1.476l3.63-2.067 2.57-4.637c0.399-3.578 2.171-6.86 4.984-9.17 0.712-0.591 1.771-0.486 2.344 0.226 0.59 0.712 0.486 1.754-0.226 2.345-0.781 0.66-1.476 1.407-2.032 2.223 1.354-0.921 2.917-1.546 4.637-1.754 0.92-0.122 1.754 0.521 1.858 1.442 0.122 0.92-0.521 1.754-1.441 1.858-1.007 0.122-1.945 0.469-2.761 0.955 1.632-0.357 3.669-0.196 5.505 0.695 0.834 0.417 1.181 1.407 0.764 2.241-0.399 0.816-1.407 1.164-2.223 0.764zM16.457 16.157c-0.382-0.782-1.146-1.268-2.014-1.268-0.002 0-0.004 0-0.007 0-1.224 0-2.216 0.992-2.216 2.216 0 0.002 0 0.005 0 0.007v-0c0 1.339 1.113 2.223 2.223 2.223 0.868 0 1.632-0.486 2.014-1.268 0.278-0.591 0.851-0.938 1.459-0.955-0.608-0.017-1.181-0.365-1.459-0.955zM39.884 13.83c0.261 0.538 0.069 1.181-0.434 1.476l-3.629 2.067-2.57 4.637c-0.399 3.578-2.171 6.86-4.984 9.17-0.683 0.57-1.737 0.509-2.344-0.226-0.59-0.712-0.486-1.754 0.226-2.345 0.781-0.66 1.476-1.407 2.032-2.223-1.355 0.921-2.917 1.546-4.637 1.754-0.626 0.157-1.722-0.353-1.858-1.442-0.122-0.921 0.521-1.754 1.441-1.858 1.007-0.122 1.945-0.469 2.761-0.955-1.632 0.357-3.669 0.196-5.505-0.695-0.834-0.417-1.181-1.407-0.764-2.241 0.399-0.816 1.407-1.164 2.223-0.764 1.268 0.634 2.759 0.7 4.046 0.243-2.663 0-4.45-1.28-5.349-3.161-0.536-1.119 0.322-2.379 1.476-2.379-1.152 0-2.013-1.258-1.476-2.379 0.877-1.837 2.752-3.18 5.123-3.178l5.8 0.538 4.15-2.084c0.588-0.294 1.239-0.022 1.493 0.486l2.778 5.558zM25.557 12.666c-0.868 0-1.632 0.486-2.014 1.268-0.278 0.591-0.851 0.938-1.459 0.955 0.608 0.017 1.181 0.365 1.459 0.955 0.382 0.782 1.146 1.268 2.014 1.268 0.002 0 0.004 0 0.007 0 1.224 0 2.216-0.992 2.216-2.216 0-0.002 0-0.005 0-0.007v0c0-1.339-1.113-2.223-2.223-2.223z"></path>
</svg>
