<!-- Generated by IcoMoon.io -->
<svg version="1.1" xmlns="http://www.w3.org/2000/svg" width="36" height="32" viewBox="0 0 36 32">
<title>analytics</title>
<path d="M5 22h-4c-0.552 0-1 0.448-1 1v8c0 0.552 0.448 1 1 1h4c0.553 0 1-0.448 1-1v-8c0-0.552-0.447-1-1-1zM4 30h-2v-6h2v6zM35 12h-4c-0.552 0-1 0.447-1 1v18c0 0.552 0.448 1 1 1h4c0.553 0 1-0.448 1-1v-18c0-0.553-0.447-1-1-1zM34 30h-2v-16h2v16zM31.423 5.543c0.459 0.285 0.996 0.457 1.577 0.457 1.657 0 3-1.343 3-3s-1.343-3-3-3-3 1.343-3 3c0 0.344 0.070 0.669 0.177 0.978l-5.6 4.48c-0.459-0.286-0.996-0.458-1.577-0.458s-1.117 0.173-1.577 0.458l-5.6-4.48c0.107-0.308 0.177-0.633 0.177-0.978 0-1.657-1.343-3-3-3s-3 1.343-3 3c0 0.462 0.113 0.895 0.3 1.286l-6.014 6.014c-0.391-0.187-0.824-0.3-1.286-0.3-1.657 0-3 1.343-3 3s1.343 3 3 3 3-1.343 3-3c0-0.463-0.113-0.895-0.3-1.286l6.014-6.014c0.391 0.187 0.824 0.3 1.286 0.3 0.581 0 1.117-0.173 1.577-0.458l5.6 4.48c-0.107 0.308-0.177 0.634-0.177 0.978 0 1.657 1.343 3 3 3s3-1.343 3-3c0-0.344-0.070-0.67-0.177-0.978l5.6-4.479zM33 2c0.551 0 1 0.449 1 1s-0.449 1-1 1-1-0.449-1-1 0.449-1 1-1zM3 14c-0.551 0-1-0.449-1-1s0.449-1 1-1 1 0.449 1 1-0.449 1-1 1zM13 4c-0.551 0-1-0.449-1-1s0.449-1 1-1 1 0.449 1 1-0.449 1-1 1zM23 12c-0.551 0-1-0.449-1-1s0.449-1 1-1 1 0.449 1 1-0.449 1-1 1zM15 12h-4c-0.553 0-1 0.447-1 1v18c0 0.552 0.447 1 1 1h4c0.553 0 1-0.448 1-1v-18c0-0.553-0.447-1-1-1zM14 30h-2v-16h2v16zM25 20h-4c-0.552 0-1 0.448-1 1v10c0 0.552 0.448 1 1 1h4c0.552 0 1-0.448 1-1v-10c0-0.552-0.448-1-1-1zM24 30h-2v-8h2v8z"></path>
</svg>
