<!-- Generated by IcoMoon.io -->
<svg version="1.1" xmlns="http://www.w3.org/2000/svg" width="36" height="32" viewBox="0 0 36 32">
<title>analytics-solid</title>
<path d="M31.914 5.789c0.338 0.132 0.702 0.211 1.086 0.211 1.657 0 3-1.343 3-3s-1.343-3-3-3-3 1.343-3 3c0 0.152 0.023 0.297 0.044 0.443l-5.959 4.767c-0.337-0.132-0.702-0.211-1.086-0.211s-0.748 0.079-1.086 0.211l-5.957-4.766c0.022-0.146 0.044-0.292 0.044-0.444 0-1.657-1.343-3-3-3s-3 1.343-3 3c0 0.267 0.046 0.521 0.111 0.768l-6.344 6.344c-0.246-0.065-0.501-0.111-0.768-0.111-1.657 0-3 1.343-3 3s1.343 3 3 3 3-1.343 3-3c0-0.267-0.046-0.521-0.111-0.768l6.344-6.344c0.246 0.065 0.501 0.111 0.768 0.111 0.384 0 0.748-0.079 1.086-0.211l5.959 4.767c-0.022 0.146-0.044 0.292-0.044 0.444 0 1.657 1.343 3 3 3s3-1.343 3-3c0-0.152-0.023-0.297-0.044-0.443l5.957-4.768zM25 20h-4c-0.552 0-1 0.448-1 1v10c0 0.552 0.448 1 1 1h4c0.552 0 1-0.448 1-1v-10c0-0.552-0.448-1-1-1zM35 12h-4c-0.552 0-1 0.447-1 1v18c0 0.552 0.448 1 1 1h4c0.553 0 1-0.448 1-1v-18c0-0.553-0.447-1-1-1zM15 12h-4c-0.553 0-1 0.447-1 1v18c0 0.552 0.447 1 1 1h4c0.553 0 1-0.448 1-1v-18c0-0.553-0.447-1-1-1zM5 22h-4c-0.552 0-1 0.448-1 1v8c0 0.552 0.448 1 1 1h4c0.553 0 1-0.448 1-1v-8c0-0.552-0.447-1-1-1z"></path>
</svg>
