<!-- Generated by IcoMoon.io -->
<svg version="1.1" xmlns="http://www.w3.org/2000/svg" width="36" height="32" viewBox="0 0 36 32">
<title>anchor</title>
<path d="M31.53 16.53c-0.293-0.293-0.768-0.293-1.061 0l-4.189 4.189c-0.473 0.473-0.138 1.28 0.53 1.28h3.071c-1.062 4.297-5.475 7.6-10.881 7.966v-17.966h3.25c0.414 0 0.75-0.336 0.75-0.75v-0.5c0-0.414-0.336-0.75-0.75-0.75h-3.25v-2.126c1.782-0.459 3.084-2.115 2.996-4.059-0.093-2.051-1.756-3.716-3.807-3.81-2.295-0.106-4.189 1.724-4.189 3.996 0 1.864 1.275 3.43 3 3.874v2.126h-3.25c-0.414 0-0.75 0.336-0.75 0.75v0.5c0 0.414 0.336 0.75 0.75 0.75h3.25v17.966c-5.406-0.366-9.819-3.669-10.881-7.966h3.071c0.668 0 1.003-0.808 0.53-1.28l-4.189-4.189c-0.293-0.293-0.768-0.293-1.061 0l-4.189 4.189c-0.472 0.472-0.138 1.28 0.53 1.28h3.259c1.178 6.024 7.36 10 13.931 10 6.931 0 12.809-4.263 13.931-10h3.258c0.668 0 1.003-0.808 0.53-1.28l-4.189-4.189zM16 4c0-1.103 0.897-2 2-2s2 0.897 2 2-0.897 2-2 2-2-0.897-2-2zM3.828 20l1.172-1.172 1.172 1.172h-2.343zM29.828 20l1.172-1.172 1.172 1.172h-2.343z"></path>
</svg>
