<!-- Generated by IcoMoon.io -->
<svg version="1.1" xmlns="http://www.w3.org/2000/svg" width="36" height="32" viewBox="0 0 36 32">
<title>anchor-solid</title>
<path d="M0.811 22h2.025c1.363 6.421 8.536 10 15.165 10 6.639 0 13.803-3.586 15.165-10h2.025c0.668 0 1.003-0.808 0.53-1.28l-4.189-4.189c-0.293-0.293-0.768-0.293-1.061 0l-4.189 4.189c-0.473 0.473-0.138 1.28 0.53 1.28h2.197c-1.268 3.395-5.31 5.412-9.007 5.876v-11.876h3.25c0.414 0 0.75-0.336 0.75-0.75v-2.5c0-0.414-0.336-0.75-0.75-0.75h-3.25v-0.342c2.33-0.824 4-3.045 4-5.657 0-3.265-2.65-5.955-5.914-6-3.353-0.047-6.086 2.657-6.086 5.999 0 2.612 1.67 4.834 4 5.658v0.342h-3.25c-0.414 0-0.75 0.336-0.75 0.75v2.5c0 0.414 0.336 0.75 0.75 0.75h3.25v11.876c-3.684-0.462-7.739-2.48-9.007-5.876h2.197c0.668 0 1.003-0.808 0.53-1.28l-4.189-4.189c-0.293-0.293-0.768-0.293-1.061 0l-4.189 4.189c-0.472 0.472-0.138 1.28 0.53 1.28zM18 4c1.103 0 2 0.897 2 2s-0.897 2-2 2-2-0.897-2-2 0.897-2 2-2z"></path>
</svg>
