<!-- Generated by IcoMoon.io -->
<svg version="1.1" xmlns="http://www.w3.org/2000/svg" width="36" height="32" viewBox="0 0 36 32">
<title>angel</title>
<path d="M11.044 8.581c0.044-0.713 0.181-1.4 0.425-2.037-0.938-0.537-1.469-1.112-1.469-1.544 0-1.056 3.037-3 8-3s8 1.944 8 3c0 0.431-0.531 1.006-1.469 1.544 0.244 0.644 0.381 1.325 0.425 2.037 1.875-0.906 3.044-2.175 3.044-3.581 0-2.763-4.475-5-10-5s-10 2.237-10 5c0 1.406 1.169 2.675 3.044 3.581zM35.781 29.038l-2.388-4.913c-0.475-0.981-0.475-2.15 0-3.131 1.044-2.137 1.6-2.281 1.6-4.488 0-2.931-2.7-5.5-5.775-5.5-1.438 0-2.781 0.575-3.794 1.606l-4.219 4.256c-0.956-0.556-2.056-0.869-3.206-0.869s-2.244 0.313-3.206 0.862l-4.219-4.256c-1.006-1.031-2.356-1.606-3.794-1.606-3.075 0-5.775 2.569-5.775 5.5 0 2.212 0.563 2.369 1.6 4.488 0.475 0.981 0.475 2.15 0 3.131l-2.381 4.919c-0.731 1.494 0.463 2.962 1.813 2.962h31.925c1.388 0 2.531-1.506 1.819-2.962zM2.038 30l2.369-5.006c0.744-1.531 0.744-3.35 0-4.881-1.119-2.3-1.394-1.994-1.394-3.613 0-1.831 1.8-3.5 3.775-3.5 0.888 0 1.731 0.356 2.362 1.012l4.069 4.106c-0.394 0.431-0.731 0.925-1.006 1.462l-5.206 10.419h-4.969zM9.244 30l4.756-9.525c0.762-1.525 2.294-2.475 4-2.475s3.238 0.95 4 2.475l4.762 9.525h-17.519zM28.994 30l-5.206-10.425c-0.269-0.538-0.613-1.025-1.006-1.462l4.069-4.106c0.631-0.65 1.475-1.012 2.363-1.012 1.975 0 3.775 1.669 3.775 3.5 0 1.625-0.281 1.313-1.4 3.613-0.744 1.531-0.744 3.35 0 4.881l2.369 5.006h-4.962zM13 9c0 2.762 2.238 5 5 5s5-2.238 5-5-2.238-5-5-5-5 2.237-5 5zM21 9c0 1.656-1.344 3-3 3s-3-1.344-3-3 1.344-3 3-3 3 1.344 3 3z"></path>
</svg>
