<!-- Generated by IcoMoon.io -->
<svg version="1.1" xmlns="http://www.w3.org/2000/svg" width="36" height="32" viewBox="0 0 36 32">
<title>angel-solid</title>
<path d="M13 9c0 2.762 2.238 5 5 5s5-2.238 5-5-2.238-5-5-5-5 2.237-5 5zM11.531 6.338c0.256-0.619 0.619-1.181 1.037-1.694-0.363-0.256-0.569-0.494-0.569-0.644 0-0.5 2.125-2 6-2s6 1.5 6 2c0 0.144-0.206 0.381-0.569 0.644 0.413 0.519 0.775 1.075 1.038 1.694 0.95-0.656 1.531-1.463 1.531-2.338 0-2.206-3.581-4-8-4s-8 1.794-8 4c0 0.875 0.581 1.681 1.531 2.338zM35.737 28.319l-2.388-4.913c-0.413-0.844-0.413-1.85 0-2.694 0.3-0.613 0.544-1.044 0.744-1.381 0.594-1.038 0.906-1.656 0.906-3.331 0-3.194-2.931-6-6.275-6-1.55 0-3.063 0.644-4.144 1.756l-4.544 4.588c-0.644-0.212-1.325-0.337-2.031-0.337s-1.381 0.125-2.031 0.337l-4.537-4.581c-1.094-1.125-2.606-1.762-4.156-1.762-3.344 0-6.281 2.806-6.281 6 0 1.675 0.313 2.294 0.906 3.325 0.2 0.344 0.444 0.769 0.744 1.381 0.413 0.844 0.413 1.85 0 2.694l-2.388 4.919c-0.394 0.806-0.344 1.738 0.131 2.494 0.469 0.744 1.262 1.188 2.138 1.188h30.944c0.869 0 1.669-0.444 2.138-1.188 0.469-0.756 0.519-1.694 0.125-2.494zM12.213 19.575l-4.713 9.425h-4.237l2.087-4.288c0.813-1.663 0.813-3.656 0-5.319-0.338-0.7-0.619-1.181-0.844-1.569-0.45-0.775-0.506-0.875-0.506-1.825 0-1.544 1.594-3 3.275-3 0.756 0 1.469 0.306 2.013 0.869l4.069 4.1c-0.45 0.469-0.844 1.006-1.144 1.606zM28.5 29l-4.712-9.425c-0.3-0.6-0.694-1.137-1.15-1.606l4.081-4.113c0.538-0.55 1.25-0.856 2.006-0.856 1.688 0 3.275 1.456 3.275 3 0 0.95-0.056 1.050-0.506 1.825-0.225 0.387-0.5 0.875-0.844 1.569-0.813 1.663-0.813 3.656 0 5.319l2.087 4.288h-4.238z"></path>
</svg>
