<!-- Generated by IcoMoon.io -->
<svg version="1.1" xmlns="http://www.w3.org/2000/svg" width="20" height="32" viewBox="0 0 20 32">
<title>angle-double-down-solid</title>
<path d="M8.938 16.019l-8.5-8.5c-0.588-0.588-0.588-1.537 0-2.119l1.413-1.413c0.587-0.587 1.538-0.587 2.119 0l6.025 6.025 6.025-6.025c0.587-0.587 1.538-0.587 2.119 0l1.425 1.406c0.587 0.588 0.587 1.537 0 2.119l-8.5 8.5c-0.588 0.594-1.537 0.594-2.125 0.006zM11.063 28.019l8.5-8.5c0.587-0.587 0.587-1.538 0-2.119l-1.413-1.412c-0.587-0.588-1.538-0.588-2.119 0l-6.031 6.019-6.025-6.025c-0.587-0.588-1.538-0.588-2.119 0l-1.419 1.412c-0.588 0.587-0.588 1.538 0 2.119l8.5 8.5c0.588 0.594 1.537 0.594 2.125 0.006z"></path>
</svg>
