<!-- Generated by IcoMoon.io -->
<svg version="1.1" xmlns="http://www.w3.org/2000/svg" width="28" height="32" viewBox="0 0 28 32">
<title>angle-double-left-solid</title>
<path d="M13.981 14.938l8.5-8.5c0.587-0.588 1.538-0.588 2.119 0l1.413 1.412c0.587 0.588 0.587 1.537 0 2.119l-6.019 6.031 6.025 6.025c0.587 0.587 0.587 1.538 0 2.119l-1.413 1.419c-0.587 0.587-1.538 0.587-2.119 0l-8.5-8.5c-0.594-0.587-0.594-1.537-0.006-2.125zM1.981 17.063l8.5 8.5c0.588 0.587 1.537 0.587 2.119 0l1.412-1.413c0.588-0.587 0.588-1.538 0-2.119l-6.019-6.031 6.025-6.025c0.588-0.588 0.588-1.537 0-2.119l-1.412-1.419c-0.588-0.588-1.537-0.588-2.119 0l-8.5 8.5c-0.594 0.588-0.594 1.538-0.006 2.125z"></path>
</svg>
