<!-- Generated by IcoMoon.io -->
<svg version="1.1" xmlns="http://www.w3.org/2000/svg" width="28" height="32" viewBox="0 0 28 32">
<title>angle-double-right-solid</title>
<path d="M14.019 17.063l-8.5 8.5c-0.588 0.587-1.538 0.587-2.119 0l-1.413-1.413c-0.587-0.587-0.587-1.538 0-2.119l6.025-6.025-6.025-6.025c-0.587-0.588-0.587-1.537 0-2.119l1.406-1.425c0.587-0.588 1.537-0.588 2.119 0l8.5 8.5c0.594 0.588 0.594 1.538 0.006 2.125zM26.019 14.938l-8.5-8.5c-0.587-0.588-1.537-0.588-2.119 0l-1.412 1.412c-0.588 0.588-0.588 1.537 0 2.119l6.025 6.025-6.025 6.025c-0.588 0.587-0.588 1.538 0 2.119l1.412 1.413c0.588 0.587 1.538 0.587 2.119 0l8.5-8.5c0.587-0.575 0.587-1.525 0-2.113z"></path>
</svg>
