<!-- Generated by IcoMoon.io -->
<svg version="1.1" xmlns="http://www.w3.org/2000/svg" width="31" height="32" viewBox="0 0 31 32">
<title>angry-solid</title>
<path d="M15.5 0.5c-8.563 0-15.5 6.938-15.5 15.5s6.938 15.5 15.5 15.5 15.5-6.938 15.5-15.5-6.938-15.5-15.5-15.5zM8.5 15c0-0.581 0.256-1.094 0.656-1.463l-1.938-0.581c-0.531-0.156-0.831-0.719-0.669-1.244 0.156-0.531 0.713-0.825 1.244-0.669l5 1.5c0.531 0.156 0.831 0.719 0.669 1.244-0.131 0.431-0.525 0.713-0.956 0.713-0.031 0-0.069-0.012-0.106-0.012 0.044 0.169 0.106 0.331 0.106 0.512 0 1.106-0.894 2-2 2s-2.006-0.894-2.006-2zM19 24.637c-1.738-2.087-5.262-2.087-7.006 0-0.844 1.019-2.388-0.262-1.537-1.281 1.25-1.5 3.088-2.363 5.037-2.363s3.787 0.863 5.037 2.363c0.863 1.031-0.694 2.288-1.531 1.281zM23.788 12.956l-1.938 0.581c0.394 0.363 0.656 0.881 0.656 1.463 0 1.106-0.894 2-2 2s-2-0.894-2-2c0-0.181 0.056-0.35 0.106-0.512-0.038 0.006-0.069 0.012-0.106 0.012-0.431 0-0.825-0.281-0.956-0.713-0.156-0.531 0.144-1.088 0.669-1.244l5-1.5c0.525-0.156 1.087 0.144 1.244 0.669 0.156 0.531-0.144 1.088-0.675 1.244z"></path>
</svg>
