<!-- Generated by IcoMoon.io -->
<svg version="1.1" xmlns="http://www.w3.org/2000/svg" width="31" height="32" viewBox="0 0 31 32">
<title>angry</title>
<path d="M15.5 0.5c-8.563 0-15.5 6.938-15.5 15.5s6.938 15.5 15.5 15.5 15.5-6.938 15.5-15.5-6.938-15.5-15.5-15.5zM15.5 29.5c-7.444 0-13.5-6.056-13.5-13.5s6.056-13.5 13.5-13.5 13.5 6.056 13.5 13.5-6.056 13.5-13.5 13.5zM15.5 21c-1.95 0-3.787 0.863-5.037 2.363-0.356 0.425-0.3 1.056 0.125 1.406s1.056 0.3 1.406-0.125c1.744-2.087 5.263-2.087 7.006 0 0.331 0.4 0.962 0.5 1.406 0.125 0.425-0.356 0.481-0.988 0.125-1.406-1.244-1.5-3.081-2.363-5.031-2.363zM12.5 15c0-0.181-0.056-0.35-0.106-0.512 0.037 0.006 0.069 0.012 0.106 0.012 0.431 0 0.825-0.281 0.956-0.713 0.162-0.531-0.137-1.088-0.669-1.244l-5-1.5c-0.525-0.156-1.088 0.144-1.244 0.669-0.162 0.531 0.138 1.088 0.669 1.244l1.938 0.581c-0.394 0.363-0.656 0.881-0.656 1.463 0 1.106 0.894 2 2 2s2.006-0.894 2.006-2zM23.212 11.044l-5 1.5c-0.531 0.156-0.831 0.719-0.669 1.244 0.131 0.431 0.525 0.713 0.956 0.713 0.038 0 0.069-0.012 0.106-0.012-0.044 0.169-0.106 0.331-0.106 0.512 0 1.106 0.894 2 2 2s2-0.894 2-2c0-0.581-0.256-1.094-0.656-1.463l1.938-0.581c0.531-0.156 0.831-0.719 0.669-1.244-0.15-0.531-0.712-0.825-1.238-0.669z"></path>
</svg>
