<!-- Generated by IcoMoon.io -->
<svg version="1.1" xmlns="http://www.w3.org/2000/svg" width="20" height="32" viewBox="0 0 20 32">
<title>ankh</title>
<path d="M19.5 18h-6.036c2.3-2.246 4.536-6.023 4.536-9.429 0-5.26-3.582-8.571-8-8.571s-8 3.311-8 8.571c0 3.406 2.236 7.182 4.536 9.429h-6.036c-0.276 0-0.5 0.224-0.5 0.5v1c0 0.276 0.224 0.5 0.5 0.5h8.5v11.5c0 0.276 0.224 0.5 0.5 0.5h1c0.276 0 0.5-0.224 0.5-0.5v-11.5h8.5c0.276 0 0.5-0.224 0.5-0.5v-1c0-0.276-0.224-0.5-0.5-0.5zM4 8.571c0-3.869 2.467-6.571 6-6.571s6 2.702 6 6.571c0 4.486-4.703 9.314-5.987 9.429h-0.002c-1.308-0.115-6.011-4.942-6.011-9.429z"></path>
</svg>
