<!-- Generated by IcoMoon.io -->
<svg version="1.1" xmlns="http://www.w3.org/2000/svg" width="20" height="32" viewBox="0 0 20 32">
<title>ankh-solid</title>
<path d="M18.5 16h-2.789c1.317-2.124 2.289-4.647 2.289-7 0-5.523-3.582-9-8-9s-8 3.477-8 9c0 2.353 0.971 4.876 2.289 7h-2.789c-0.828 0-1.5 0.671-1.5 1.5v2c0 0.828 0.672 1.5 1.5 1.5h6v9.5c0 0.828 0.672 1.5 1.5 1.5h2c0.828 0 1.5-0.672 1.5-1.5v-9.5h6c0.828 0 1.5-0.672 1.5-1.5v-2c0-0.829-0.672-1.5-1.5-1.5zM10 5c1.851 0 3 1.532 3 4 0 2.166-1.696 4.884-3 6.304-1.304-1.42-3-4.138-3-6.304 0-2.467 1.149-4 3-4z"></path>
</svg>
