<!-- Generated by IcoMoon.io -->
<svg version="1.1" xmlns="http://www.w3.org/2000/svg" width="28" height="32" viewBox="0 0 28 32">
<title>apple-alt-solid</title>
<path d="M21.928 8.063c1.623 0.292 2.954 1.167 3.995 2.625 0.916 1.292 1.54 2.917 1.872 4.875 0.292 1.792 0.27 3.583-0.063 5.375-0.499 2.958-1.498 5.438-2.996 7.438-1.79 2.417-4.037 3.625-6.742 3.625-0.666 0-1.394-0.208-2.185-0.625-0.541-0.333-1.144-0.5-1.811-0.5s-1.269 0.167-1.811 0.5c-0.791 0.417-1.519 0.625-2.185 0.625-2.705 0-4.952-1.208-6.742-3.625-1.498-2-2.497-4.479-2.996-7.438-0.333-1.792-0.354-3.583-0.063-5.375 0.333-1.958 0.957-3.583 1.873-4.875 1.041-1.458 2.372-2.333 3.995-2.625 0.999-0.167 2.372-0.021 4.12 0.438 1.498 0.417 2.768 0.917 3.808 1.5 1.041-0.583 2.31-1.083 3.808-1.5 1.749-0.458 3.122-0.604 4.121-0.438zM18.494 5.5c-0.582 0.542-1.353 0.938-2.31 1.188-0.666 0.208-1.394 0.313-2.185 0.313l-0.936-0.063c-0.083-0.583-0.083-1.25 0-2 0.167-1.5 0.645-2.646 1.436-3.438 0.582-0.542 1.353-0.938 2.31-1.188 0.666-0.208 1.394-0.313 2.185-0.313l0.936 0.063 0.063 0.938c0 0.792-0.104 1.521-0.312 2.188-0.249 0.958-0.644 1.729-1.186 2.313z"></path>
</svg>
