<!-- Generated by IcoMoon.io -->
<svg version="1.1" xmlns="http://www.w3.org/2000/svg" width="32" height="32" viewBox="0 0 32 32">
<title>apple-crate</title>
<path d="M25.139 3.154c0.706-0.762 0.902-2.002 0.826-3.139-0.805-0.054-2.229-0.007-3.126 0.83-1.033 1.038-0.861 2.897-0.826 3.139 1.154 0.077 2.361-0.116 3.126-0.83zM31 14h-1.593c0.172-0.507 0.323-1.035 0.421-1.614 0.852-4.584-1.575-9.752-7.848-6.242-4.105-2.297-5.909-0.478-5.984-0.42-0.074-0.058-1.893-1.876-5.996 0.42-6.286-3.516-8.689 1.718-7.848 6.242 0.098 0.579 0.249 1.107 0.421 1.614h-1.574c-0.552 0-1 0.447-1 1v16c0 0.552 0.448 1 1 1h30c0.552 0 1-0.448 1-1v-16c0-0.553-0.448-1-1-1zM21.004 7.889l0.976 0.546 0.976-0.546c3.421-1.914 4.194-0.231 4.235-0.172 0.753 1.089 0.907 3.030 0.664 4.336-0.124 0.732-0.344 1.36-0.604 1.947h-9.825c0.172-0.507 0.324-1.035 0.421-1.614 0.266-1.431 0.157-3.529-0.624-5.133 0.926-0.663 3.176 0.298 3.78 0.636zM4.797 7.714c0.041-0.059 0.804-1.74 4.227 0.175l0.976 0.546 0.976-0.546c3.421-1.914 4.194-0.231 4.235-0.172 0.752 1.089 0.907 3.030 0.664 4.336-0.124 0.732-0.344 1.361-0.604 1.947h-10.543c-0.261-0.591-0.483-1.227-0.611-1.979-0.239-1.288-0.051-3.251 0.679-4.307zM30 30h-28v-6h28v6zM30 22h-28v-6h28v6zM5 20c0.553 0 1-0.448 1-1s-0.447-1-1-1-1 0.448-1 1 0.447 1 1 1zM5 28c0.553 0 1-0.448 1-1s-0.447-1-1-1-1 0.448-1 1 0.447 1 1 1zM27 20c0.552 0 1-0.448 1-1s-0.448-1-1-1-1 0.448-1 1 0.448 1 1 1zM27 28c0.552 0 1-0.448 1-1s-0.448-1-1-1-1 0.448-1 1 0.448 1 1 1zM13.158 3.154c0.706-0.762 0.902-2.002 0.826-3.139-0.805-0.054-2.229-0.007-3.126 0.83-1.033 1.038-0.861 2.897-0.826 3.139 1.154 0.077 2.361-0.116 3.126-0.83z"></path>
</svg>
