<!-- Generated by IcoMoon.io -->
<svg version="1.1" xmlns="http://www.w3.org/2000/svg" width="32" height="32" viewBox="0 0 32 32">
<title>apple-crate-solid</title>
<path d="M19.887 12h9.987c0.329-2.467-0.322-6.416-3.364-6.962-1.133-0.189-3.244 0.386-4.531 1.106-1.063-0.595-2.653-1.061-3.822-1.112 0.114 0.138 0.239 0.261 0.344 0.411 1.302 1.884 1.609 4.519 1.386 6.557zM13.158 3.154c0.706-0.762 0.902-2.002 0.826-3.139-0.805-0.054-2.229-0.007-3.126 0.83-1.033 1.038-0.861 2.897-0.826 3.139 1.154 0.077 2.361-0.116 3.126-0.83zM25.139 3.154c0.706-0.762 0.902-2.002 0.826-3.139-0.805-0.054-2.229-0.007-3.126 0.83-1.033 1.038-0.861 2.897-0.826 3.139 1.154 0.077 2.361-0.116 3.126-0.83zM17.894 12c0.329-2.467-0.322-6.416-3.364-6.962-1.133-0.189-3.244 0.386-4.53 1.106-1.291-0.723-3.402-1.294-4.53-1.106-3.038 0.546-3.687 4.517-3.364 6.962h15.788zM31 14h-30c-0.552 0-1 0.447-1 1v7h32v-7c0-0.553-0.448-1-1-1zM4 19c-0.553 0-1-0.448-1-1s0.447-1 1-1 1 0.448 1 1-0.447 1-1 1zM28 19c-0.552 0-1-0.448-1-1s0.448-1 1-1 1 0.448 1 1-0.448 1-1 1zM0 31c0 0.552 0.448 1 1 1h30c0.552 0 1-0.448 1-1v-7h-32v7zM28 27c0.552 0 1 0.448 1 1s-0.448 1-1 1-1-0.448-1-1 0.448-1 1-1zM4 27c0.553 0 1 0.448 1 1s-0.447 1-1 1-1-0.448-1-1 0.447-1 1-1z"></path>
</svg>
