<!-- Generated by IcoMoon.io -->
<svg version="1.1" xmlns="http://www.w3.org/2000/svg" width="28" height="32" viewBox="0 0 28 32">
<title>apple-alt</title>
<path d="M14.030 8c1.333 0 3.721-0.233 5.229-1.741 2.183-2.183 1.694-6.212 1.694-6.212s-0.386-0.047-0.984-0.047c-1.333 0-3.721 0.233-5.229 1.741-2.183 2.183-1.694 6.212-1.694 6.212s0.386 0.047 0.983 0.047zM16.156 3.155c0.718-0.719 1.878-0.995 2.792-1.098-0.112 0.981-0.412 2.096-1.102 2.787-0.719 0.718-1.878 0.995-2.791 1.098 0.112-0.986 0.411-2.097 1.102-2.788zM21.949 8.072c-0.279-0.049-0.584-0.072-0.908-0.072-2.26 0-5.449 1.098-7.041 1.998-1.591-0.899-4.781-1.998-7.041-1.998-0.324 0-0.629 0.023-0.908 0.072-5.077 0.894-6.713 7.781-5.818 12.85s3.831 11.078 9.793 11.078c0.754 0 1.508-0.288 2.152-0.646 0.565-0.314 1.194-0.47 1.822-0.47s1.258 0.157 1.822 0.47c0.645 0.358 1.399 0.646 2.152 0.646 5.962 0 8.898-6.009 9.793-11.078s-0.74-11.956-5.819-12.85zM25.797 20.574c-0.277 1.574-1.961 9.426-7.823 9.426-0.303 0-0.723-0.14-1.182-0.396-0.851-0.472-1.816-0.721-2.793-0.721s-1.942 0.249-2.793 0.721c-0.459 0.255-0.878 0.395-1.181 0.395-5.862 0.001-7.545-7.851-7.823-9.426-0.409-2.314-0.196-4.907 0.571-6.936 0.546-1.446 1.618-3.243 3.624-3.596 0.901-0.159 3.644 0.016 7.603 2.253 3.933-2.223 6.699-2.412 7.602-2.253 2.008 0.353 3.079 2.151 3.625 3.596 0.766 2.029 0.979 4.622 0.571 6.937z"></path>
</svg>
