<!-- Generated by IcoMoon.io -->
<svg version="1.1" xmlns="http://www.w3.org/2000/svg" width="32" height="32" viewBox="0 0 32 32">
<title>archive</title>
<path d="M29 2h-26c-1.656 0-3 1.344-3 3v4c0 0.55 0.45 1 1 1h1v17c0 1.656 1.344 3 3 3h22c1.656 0 3-1.344 3-3v-17h1c0.55 0 1-0.45 1-1v-4c0-1.656-1.344-3-3-3zM28 27c0 0.55-0.45 1-1 1h-22c-0.55 0-1-0.45-1-1v-17h24v17zM30 8h-28v-3c0-0.55 0.45-1 1-1h26c0.55 0 1 0.45 1 1v3zM12.75 16h6.5c0.413 0 0.75-0.338 0.75-0.75v-0.5c0-0.412-0.337-0.75-0.75-0.75h-6.5c-0.412 0-0.75 0.338-0.75 0.75v0.5c0 0.412 0.338 0.75 0.75 0.75z"></path>
</svg>
