<!-- Generated by IcoMoon.io -->
<svg version="1.1" xmlns="http://www.w3.org/2000/svg" width="28" height="32" viewBox="0 0 28 32">
<title>arrow-square-right</title>
<path d="M14.781 8.281l7.194 7.188c0.294 0.294 0.294 0.769 0 1.063l-7.194 7.188c-0.294 0.294-0.769 0.294-1.063 0l-0.431-0.431c-0.294-0.294-0.294-0.781 0.012-1.069l5.35-5.156h-11.9c-0.412 0-0.75-0.337-0.75-0.75v-0.625c0-0.412 0.338-0.75 0.75-0.75h11.894l-5.35-5.156c-0.3-0.294-0.306-0.775-0.012-1.069l0.431-0.431c0.3-0.294 0.775-0.294 1.069 0zM3 2h22c1.656 0 3 1.344 3 3v22c0 1.656-1.344 3-3 3h-22c-1.656 0-3-1.344-3-3v-22c0-1.656 1.344-3 3-3zM3 4c-0.55 0-1 0.45-1 1v22c0 0.55 0.45 1 1 1h22c0.55 0 1-0.45 1-1v-22c0-0.55-0.45-1-1-1h-22z"></path>
</svg>
