<!-- Generated by IcoMoon.io -->
<svg version="1.1" xmlns="http://www.w3.org/2000/svg" width="32" height="32" viewBox="0 0 32 32">
<title>arrow-alt-circle-left</title>
<path d="M31.5 16c0-8.563-6.938-15.5-15.5-15.5s-15.5 6.938-15.5 15.5 6.938 15.5 15.5 15.5 15.5-6.938 15.5-15.5zM16 29.5c-7.419 0-13.5-6.006-13.5-13.5 0-7.419 6.006-13.5 13.5-13.5 7.419 0 13.5 6.006 13.5 13.5 0 7.419-6.006 13.5-13.5 13.5zM18 24v-4h6.5c0.825 0 1.5-0.675 1.5-1.5v-5c0-0.825-0.675-1.5-1.5-1.5h-6.5v-4c0-1.775-2.156-2.675-3.412-1.412l-8 8c-0.781 0.781-0.781 2.050 0 2.831l8 8c1.256 1.25 3.412 0.363 3.412-1.419zM8 16l8-8v6h8v4h-8v6l-8-8z"></path>
</svg>
