<!-- Generated by IcoMoon.io -->
<svg version="1.1" xmlns="http://www.w3.org/2000/svg" width="32" height="32" viewBox="0 0 32 32">
<title>arrows</title>
<path d="M21.111 27.169l-4.581 4.611c-0.293 0.293-0.768 0.293-1.061 0l-4.581-4.611c-0.293-0.293-0.293-0.768 0-1.061l0.442-0.442c0.293-0.293 0.768-0.293 1.061 0l2.546 2.576h0.063v-11.243h-11.243v0.063l2.576 2.546c0.293 0.293 0.293 0.768 0 1.061l-0.442 0.442c-0.293 0.293-0.768 0.293-1.061 0l-4.611-4.581c-0.293-0.293-0.293-0.768 0-1.061l4.611-4.581c0.293-0.293 0.768-0.293 1.061 0l0.442 0.442c0.293 0.293 0.293 0.768 0 1.061l-2.577 2.546v0.063h11.243v-11.243h-0.063l-2.546 2.576c-0.293 0.293-0.768 0.293-1.061 0l-0.442-0.442c-0.293-0.293-0.293-0.768 0-1.061l4.581-4.611c0.293-0.293 0.768-0.293 1.061 0l4.581 4.611c0.293 0.293 0.293 0.768 0 1.061l-0.442 0.442c-0.293 0.293-0.768 0.293-1.061 0l-2.546-2.577h-0.063v11.243h11.243v-0.063l-2.576-2.546c-0.293-0.293-0.293-0.768 0-1.061l0.442-0.442c0.293-0.293 0.768-0.293 1.061 0l4.611 4.581c0.293 0.293 0.293 0.768 0 1.061l-4.611 4.581c-0.293 0.293-0.768 0.293-1.061 0l-0.442-0.442c-0.293-0.293-0.293-0.768 0-1.061l2.576-2.546v-0.063h-11.243v11.243h0.063l2.546-2.576c0.293-0.293 0.768-0.293 1.061 0l0.442 0.442c0.293 0.293 0.293 0.768 0 1.061z"></path>
</svg>
