<!-- Generated by IcoMoon.io -->
<svg version="1.1" xmlns="http://www.w3.org/2000/svg" width="32" height="32" viewBox="0 0 32 32">
<title>arrow-circle-left-solid</title>
<path d="M16 31.5c-8.563 0-15.5-6.938-15.5-15.5s6.938-15.5 15.5-15.5 15.5 6.938 15.5 15.5-6.938 15.5-15.5 15.5zM17.806 22.525l-4.719-4.525h11.413c0.831 0 1.5-0.669 1.5-1.5v-1c0-0.831-0.669-1.5-1.5-1.5h-11.412l4.719-4.525c0.606-0.581 0.619-1.55 0.025-2.144l-0.688-0.681c-0.587-0.588-1.537-0.588-2.119 0l-8.294 8.288c-0.588 0.588-0.588 1.538 0 2.119l8.294 8.294c0.588 0.587 1.537 0.587 2.119 0l0.688-0.681c0.594-0.594 0.581-1.563-0.025-2.144z"></path>
</svg>
