<!-- Generated by IcoMoon.io -->
<svg version="1.1" xmlns="http://www.w3.org/2000/svg" width="32" height="32" viewBox="0 0 32 32">
<title>arrow-circle-down-solid</title>
<path d="M31.5 16c0 8.563-6.938 15.5-15.5 15.5s-15.5-6.938-15.5-15.5 6.938-15.5 15.5-15.5 15.5 6.938 15.5 15.5zM22.525 14.194l-4.525 4.719v-11.412c0-0.831-0.669-1.5-1.5-1.5h-1c-0.831 0-1.5 0.669-1.5 1.5v11.412l-4.525-4.719c-0.581-0.606-1.55-0.619-2.144-0.025l-0.681 0.688c-0.588 0.588-0.588 1.537 0 2.119l8.288 8.294c0.588 0.587 1.538 0.587 2.119 0l8.294-8.294c0.587-0.587 0.587-1.537 0-2.119l-0.681-0.688c-0.594-0.594-1.563-0.581-2.144 0.025z"></path>
</svg>
