<!-- Generated by IcoMoon.io -->
<svg version="1.1" xmlns="http://www.w3.org/2000/svg" width="32" height="32" viewBox="0 0 32 32">
<title>arrows-alt-solid</title>
<path d="M22.013 26.611l-4.95 4.95c-0.586 0.586-1.536 0.586-2.121 0l-4.95-4.95c-0.945-0.945-0.276-2.561 1.061-2.561h3.198l-0-6.3h-6.3v3.198c0 1.336-1.616 2.006-2.561 1.061l-4.95-4.95c-0.586-0.586-0.586-1.536 0-2.121l4.95-4.95c0.945-0.945 2.561-0.276 2.561 1.061v3.202h6.3v-6.3h-3.202c-1.336 0-2.006-1.616-1.061-2.561l4.95-4.95c0.586-0.586 1.535-0.586 2.121 0l4.95 4.95c0.945 0.945 0.276 2.561-1.061 2.561h-3.198v6.3h6.3v-3.198c0-1.336 1.616-2.006 2.561-1.061l4.95 4.95c0.586 0.586 0.586 1.536 0 2.121l-4.95 4.95c-0.945 0.945-2.561 0.276-2.561-1.061v-3.202h-6.3v6.3h3.202c1.336 0 2.006 1.616 1.061 2.561z"></path>
</svg>
