<!-- Generated by IcoMoon.io -->
<svg version="1.1" xmlns="http://www.w3.org/2000/svg" width="32" height="32" viewBox="0 0 32 32">
<title>arrow-alt-circle-up-solid</title>
<path d="M0.5 16c0-8.563 6.938-15.5 15.5-15.5s15.5 6.938 15.5 15.5-6.938 15.5-15.5 15.5-15.5-6.938-15.5-15.5zM18.75 23.25v-7.25h4.431c0.669 0 1.006-0.813 0.531-1.281l-7.181-7.144c-0.294-0.294-0.762-0.294-1.056 0l-7.188 7.144c-0.475 0.475-0.137 1.281 0.531 1.281h4.431v7.25c0 0.413 0.338 0.75 0.75 0.75h4c0.413 0 0.75-0.337 0.75-0.75z"></path>
</svg>
