<!-- Generated by IcoMoon.io -->
<svg version="1.1" xmlns="http://www.w3.org/2000/svg" width="28" height="32" viewBox="0 0 28 32">
<title>arrow-square-up</title>
<path d="M6.281 15.219l7.188-7.194c0.294-0.294 0.769-0.294 1.063 0l7.188 7.194c0.294 0.294 0.294 0.769 0 1.063l-0.431 0.431c-0.294 0.294-0.781 0.294-1.069-0.012l-5.156-5.344v11.894c0 0.413-0.338 0.75-0.75 0.75h-0.625c-0.412 0-0.75-0.337-0.75-0.75v-11.894l-5.156 5.35c-0.294 0.3-0.775 0.306-1.069 0.012l-0.431-0.431c-0.294-0.3-0.294-0.775 0-1.069zM0 27v-22c0-1.656 1.344-3 3-3h22c1.656 0 3 1.344 3 3v22c0 1.656-1.344 3-3 3h-22c-1.656 0-3-1.344-3-3zM2 27c0 0.55 0.45 1 1 1h22c0.55 0 1-0.45 1-1v-22c0-0.55-0.45-1-1-1h-22c-0.55 0-1 0.45-1 1v22z"></path>
</svg>
