<!-- Generated by IcoMoon.io -->
<svg version="1.1" xmlns="http://www.w3.org/2000/svg" width="28" height="32" viewBox="0 0 28 32">
<title>arrow-square-up-solid</title>
<path d="M0 27v-22c0-1.656 1.344-3 3-3h22c1.656 0 3 1.344 3 3v22c0 1.656-1.344 3-3 3h-22c-1.656 0-3-1.344-3-3zM7.475 17.806l4.525-4.719v11.413c0 0.831 0.669 1.5 1.5 1.5h1c0.831 0 1.5-0.669 1.5-1.5v-11.412l4.525 4.719c0.581 0.606 1.55 0.619 2.144 0.025l0.681-0.688c0.587-0.587 0.587-1.537 0-2.119l-8.287-8.294c-0.588-0.588-1.537-0.588-2.119 0l-8.3 8.294c-0.588 0.588-0.588 1.537 0 2.119l0.681 0.688c0.6 0.594 1.569 0.581 2.15-0.025z"></path>
</svg>
