<!-- Generated by IcoMoon.io -->
<svg version="1.1" xmlns="http://www.w3.org/2000/svg" width="32" height="32" viewBox="0 0 32 32">
<title>arrows-alt-h</title>
<path d="M31.413 14.588l-4-4c-1.256-1.256-3.413-0.369-3.413 1.412v2.938h-16v-2.938c0-1.775-2.156-2.675-3.412-1.412l-4 4c-0.781 0.781-0.781 2.050 0 2.831l4 4c1.256 1.256 3.412 0.369 3.412-1.413v-2.938h16v2.938c0 1.775 2.156 2.675 3.413 1.413l4-4c0.781-0.788 0.781-2.050 0-2.831zM6.25 20c0 0.219-0.269 0.337-0.425 0.175l-4-4c-0.1-0.1-0.1-0.256 0-0.35l4-4c0.156-0.156 0.425-0.044 0.425 0.175zM30.175 16.175l-4 4c-0.156 0.156-0.425 0.044-0.425-0.175v-8c0-0.219 0.269-0.338 0.425-0.175l4 4c0.1 0.094 0.1 0.256 0 0.35z"></path>
</svg>
