<!-- Generated by IcoMoon.io -->
<svg version="1.1" xmlns="http://www.w3.org/2000/svg" width="28" height="32" viewBox="0 0 28 32">
<title>arrow-alt-from-left</title>
<path d="M0 27.25v-22.5c0-0.412 0.338-0.75 0.75-0.75h0.5c0.413 0 0.75 0.338 0.75 0.75v22.5c0 0.413-0.337 0.75-0.75 0.75h-0.5c-0.412 0-0.75-0.337-0.75-0.75zM6 13.569v4.856c0 0.55 0.45 1 1 1h9v5.869c0 0.444 0.538 0.669 0.85 0.356l8.85-8.944c0.394-0.394 0.394-1.025 0-1.419l-8.85-8.938c-0.313-0.313-0.85-0.094-0.85 0.356v5.869h-9c-0.55-0.006-1 0.444-1 0.994zM4 13.569c0-1.656 1.344-3 3-3h7v-3.869c0-2.225 2.694-3.337 4.262-1.769l8.856 8.944c1.175 1.175 1.175 3.075 0 4.25l-8.856 8.944c-1.575 1.575-4.262 0.45-4.262-1.769v-3.869h-7c-1.656 0-3-1.344-3-3v-4.863z"></path>
</svg>
