<!-- Generated by IcoMoon.io -->
<svg version="1.1" xmlns="http://www.w3.org/2000/svg" width="28" height="32" viewBox="0 0 28 32">
<title>arrow-alt-left</title>
<path d="M24.712 9.994h-8.713v-5.306c0-2.219-2.688-3.344-4.269-1.769l-10.769 10.756c-1.288 1.287-1.288 3.363 0 4.65l10.769 10.756c1.569 1.569 4.269 0.462 4.269-1.769v-5.313h8.712c1.813 0 3.288-1.475 3.288-3.288v-5.431c0-1.813-1.475-3.287-3.288-3.287zM26 18.712c0 0.712-0.575 1.288-1.288 1.288h-10.713v7.313c0 0.444-0.537 0.669-0.856 0.356l-10.769-10.756c-0.5-0.5-0.5-1.319 0-1.819l10.769-10.756c0.313-0.313 0.856-0.094 0.856 0.356v7.312h10.713c0.712 0 1.288 0.575 1.288 1.287z"></path>
</svg>
