<!-- Generated by IcoMoon.io -->
<svg version="1.1" xmlns="http://www.w3.org/2000/svg" width="28" height="32" viewBox="0 0 28 32">
<title>arrow-down-solid</title>
<path d="M25.819 13.906l1.387 1.387c0.587 0.588 0.587 1.538 0 2.119l-12.144 12.15c-0.588 0.587-1.537 0.587-2.119 0l-12.15-12.15c-0.588-0.587-0.588-1.537 0-2.119l1.388-1.387c0.594-0.594 1.563-0.581 2.144 0.025l7.175 7.531v-17.962c0-0.831 0.669-1.5 1.5-1.5h2c0.831 0 1.5 0.669 1.5 1.5v17.962l7.175-7.531c0.581-0.613 1.55-0.625 2.144-0.025z"></path>
</svg>
