<!-- Generated by IcoMoon.io -->
<svg version="1.1" xmlns="http://www.w3.org/2000/svg" width="28" height="32" viewBox="0 0 28 32">
<title>arrow-alt-up</title>
<path d="M11.286 28c-0.71 0-1.286-0.576-1.286-1.286v-10.715h-7.311c-0.445 0-0.668-0.538-0.354-0.853l10.755-10.769c0.502-0.503 1.317-0.503 1.819 0l10.755 10.769c0.315 0.315 0.091 0.853-0.354 0.853h-7.311v10.715c0 0.71-0.576 1.286-1.286 1.286h-5.428zM11.286 30h5.428c1.812 0 3.286-1.474 3.286-3.286v-8.715h5.311c2.219 0 3.344-2.69 1.769-4.267l-10.755-10.769c-1.284-1.286-3.365-1.286-4.65 0l-10.755 10.769c-1.568 1.57-0.459 4.267 1.769 4.267h5.311v8.715c0 1.812 1.474 3.286 3.286 3.286z"></path>
</svg>
