<!-- Generated by IcoMoon.io -->
<svg version="1.1" xmlns="http://www.w3.org/2000/svg" width="24" height="32" viewBox="0 0 24 32">
<title>arrow-to-bottom-solid</title>
<path d="M22.5 30h-21c-0.831 0-1.5-0.669-1.5-1.5v-1.5c0-0.831 0.669-1.5 1.5-1.5h21c0.831 0 1.5 0.669 1.5 1.5v1.5c0 0.831-0.669 1.5-1.5 1.5zM18.35 12.469l-4.1 4.1v-13.069c0-0.831-0.669-1.5-1.5-1.5h-1.5c-0.831 0-1.5 0.669-1.5 1.5v13.069l-4.1-4.1c-0.588-0.588-1.537-0.588-2.119 0l-1.063 1.063c-0.587 0.588-0.587 1.537 0 2.119l8.469 8.469c0.588 0.587 1.537 0.587 2.119 0l8.469-8.469c0.587-0.588 0.587-1.537 0-2.119l-1.063-1.063c-0.581-0.588-1.531-0.588-2.113 0z"></path>
</svg>
