<!-- Generated by IcoMoon.io -->
<svg version="1.1" xmlns="http://www.w3.org/2000/svg" width="24" height="32" viewBox="0 0 24 32">
<title>arrow-from-bottom</title>
<path d="M2.219 11.5l9.25-9.281c0.294-0.294 0.769-0.294 1.063 0l9.25 9.281c0.294 0.294 0.294 0.769 0 1.063l-0.444 0.444c-0.294 0.294-0.769 0.294-1.063 0l-7.213-7.25v19.494c0 0.413-0.338 0.75-0.75 0.75h-0.625c-0.412 0-0.75-0.337-0.75-0.75v-19.494l-7.213 7.244c-0.294 0.294-0.769 0.294-1.063 0l-0.444-0.444c-0.294-0.287-0.294-0.762 0-1.056zM24 29.25v-0.5c0-0.413-0.337-0.75-0.75-0.75h-22.5c-0.412 0-0.75 0.337-0.75 0.75v0.5c0 0.413 0.338 0.75 0.75 0.75h22.5c0.413 0 0.75-0.337 0.75-0.75z"></path>
</svg>
