<!-- Generated by IcoMoon.io -->
<svg version="1.1" xmlns="http://www.w3.org/2000/svg" width="32" height="32" viewBox="0 0 32 32">
<title>arrow-alt-circle-up</title>
<path d="M16 31.5c8.563 0 15.5-6.938 15.5-15.5s-6.938-15.5-15.5-15.5-15.5 6.938-15.5 15.5 6.938 15.5 15.5 15.5zM2.5 16c0-7.419 6.006-13.5 13.5-13.5 7.419 0 13.5 6.006 13.5 13.5 0 7.419-6.006 13.5-13.5 13.5-7.419 0-13.5-6.006-13.5-13.5zM8 18h4v6.5c0 0.825 0.675 1.5 1.5 1.5h5c0.825 0 1.5-0.675 1.5-1.5v-6.5h4c1.775 0 2.675-2.156 1.413-3.412l-8-8c-0.781-0.781-2.050-0.781-2.831 0l-8 8c-1.25 1.256-0.362 3.412 1.419 3.412zM16 8l8 8h-6v8h-4v-8h-6l8-8z"></path>
</svg>
