<!-- Generated by IcoMoon.io -->
<svg version="1.1" xmlns="http://www.w3.org/2000/svg" width="32" height="32" viewBox="0 0 32 32">
<title>arrow-circle-left</title>
<path d="M31.5 16c0-8.563-6.938-15.5-15.5-15.5s-15.5 6.938-15.5 15.5 6.938 15.5 15.5 15.5 15.5-6.938 15.5-15.5zM16 29.5c-7.419 0-13.5-6.006-13.5-13.5 0-7.419 6.006-13.5 13.5-13.5 7.419 0 13.5 6.006 13.5 13.5 0 7.419-6.006 13.5-13.5 13.5zM15.219 23.719l-7.194-7.188c-0.294-0.294-0.294-0.769 0-1.063l7.194-7.188c0.294-0.294 0.769-0.294 1.063 0l0.431 0.431c0.294 0.294 0.294 0.781-0.012 1.069l-5.344 5.156h11.894c0.413 0 0.75 0.338 0.75 0.75v0.625c0 0.413-0.337 0.75-0.75 0.75h-11.894l5.35 5.156c0.3 0.294 0.306 0.775 0.012 1.069l-0.431 0.431c-0.3 0.294-0.775 0.294-1.069 0z"></path>
</svg>
