<!-- Generated by IcoMoon.io -->
<svg version="1.1" xmlns="http://www.w3.org/2000/svg" width="28" height="32" viewBox="0 0 28 32">
<title>arrow-alt-square-down-solid</title>
<path d="M28 5v22c0 1.656-1.344 3-3 3h-22c-1.656 0-3-1.344-3-3v-22c0-1.656 1.344-3 3-3h22c1.656 0 3 1.344 3 3zM11.25 8.75v7.25h-4.431c-0.669 0-1.006 0.813-0.531 1.281l7.181 7.144c0.294 0.294 0.762 0.294 1.056 0l7.181-7.144c0.475-0.475 0.137-1.281-0.531-1.281h-4.425v-7.25c0-0.412-0.337-0.75-0.75-0.75h-4c-0.412 0-0.75 0.338-0.75 0.75z"></path>
</svg>
