<!-- Generated by IcoMoon.io -->
<svg version="1.1" xmlns="http://www.w3.org/2000/svg" width="28" height="32" viewBox="0 0 28 32">
<title>arrow-alt-square-left-solid</title>
<path d="M25 30h-22c-1.656 0-3-1.344-3-3v-22c0-1.656 1.344-3 3-3h22c1.656 0 3 1.344 3 3v22c0 1.656-1.344 3-3 3zM21.25 13.25h-7.25v-4.431c0-0.669-0.813-1.006-1.281-0.531l-7.144 7.181c-0.294 0.294-0.294 0.762 0 1.056l7.144 7.181c0.475 0.475 1.281 0.137 1.281-0.531v-4.425h7.25c0.413 0 0.75-0.337 0.75-0.75v-4c0-0.412-0.337-0.75-0.75-0.75z"></path>
</svg>
