<!-- Generated by IcoMoon.io -->
<svg version="1.1" xmlns="http://www.w3.org/2000/svg" width="28" height="32" viewBox="0 0 28 32">
<title>arrow-up-solid</title>
<path d="M2.181 18.094l-1.387-1.387c-0.588-0.587-0.588-1.537 0-2.119l12.144-12.15c0.588-0.587 1.537-0.587 2.119 0l12.144 12.144c0.587 0.588 0.587 1.538 0 2.119l-1.387 1.387c-0.594 0.594-1.563 0.581-2.144-0.025l-7.169-7.525v17.962c0 0.831-0.669 1.5-1.5 1.5h-2c-0.831 0-1.5-0.669-1.5-1.5v-17.962l-7.175 7.531c-0.581 0.613-1.55 0.625-2.144 0.025z"></path>
</svg>
