<!-- Generated by IcoMoon.io -->
<svg version="1.1" xmlns="http://www.w3.org/2000/svg" width="32" height="32" viewBox="0 0 32 32">
<title>arrow-alt-circle-right-solid</title>
<path d="M16 0.5c8.563 0 15.5 6.938 15.5 15.5s-6.938 15.5-15.5 15.5-15.5-6.938-15.5-15.5 6.938-15.5 15.5-15.5zM8.75 18.75h7.25v4.431c0 0.669 0.813 1.006 1.281 0.531l7.144-7.181c0.294-0.294 0.294-0.762 0-1.056l-7.144-7.188c-0.475-0.475-1.281-0.137-1.281 0.531v4.431h-7.25c-0.412 0-0.75 0.338-0.75 0.75v4c0 0.413 0.338 0.75 0.75 0.75z"></path>
</svg>
