<!-- Generated by IcoMoon.io -->
<svg version="1.1" xmlns="http://www.w3.org/2000/svg" width="24" height="32" viewBox="0 0 24 32">
<title>arrow-alt-from-top</title>
<path d="M0.75 2h22.5c0.413 0 0.75 0.337 0.75 0.75v0.5c0 0.413-0.337 0.75-0.75 0.75h-22.5c-0.412 0-0.75-0.337-0.75-0.75v-0.5c0-0.413 0.338-0.75 0.75-0.75zM14.431 8h-4.856c-0.55 0-1 0.45-1 1v9h-5.869c-0.444 0-0.669 0.538-0.356 0.85l8.944 8.969c0.394 0.394 1.025 0.394 1.419 0l8.944-8.969c0.313-0.313 0.094-0.85-0.356-0.85h-5.869v-9c0-0.55-0.45-1-1-1zM14.431 6c1.656 0 3 1.344 3 3v7h3.869c2.225 0 3.337 2.694 1.769 4.262l-8.944 8.975c-1.175 1.175-3.075 1.175-4.25 0l-8.944-8.975c-1.569-1.575-0.444-4.262 1.775-4.262h3.869v-7c0-1.656 1.344-3 3-3h4.856z"></path>
</svg>
