<!-- Generated by IcoMoon.io -->
<svg version="1.1" xmlns="http://www.w3.org/2000/svg" width="28" height="32" viewBox="0 0 28 32">
<title>arrow-alt-down</title>
<path d="M16.714 4c0.71 0 1.286 0.576 1.286 1.286v10.715h7.311c0.445 0 0.668 0.538 0.354 0.853l-10.755 10.769c-0.502 0.503-1.317 0.503-1.819 0l-10.755-10.769c-0.315-0.315-0.091-0.853 0.354-0.853h7.311v-10.715c0-0.71 0.576-1.286 1.286-1.286h5.428zM16.714 2h-5.428c-1.812 0-3.286 1.474-3.286 3.286v8.715h-5.311c-2.219 0-3.344 2.69-1.769 4.267l10.755 10.769c1.284 1.286 3.365 1.286 4.65 0l10.755-10.769c1.568-1.57 0.459-4.267-1.769-4.267h-5.311v-8.715c0-1.812-1.474-3.286-3.286-3.286z"></path>
</svg>
