<!-- Generated by IcoMoon.io -->
<svg version="1.1" xmlns="http://www.w3.org/2000/svg" width="28" height="32" viewBox="0 0 28 32">
<title>arrow-alt-square-down</title>
<path d="M25 2h-22c-1.656 0-3 1.344-3 3v22c0 1.656 1.344 3 3 3h22c1.656 0 3-1.344 3-3v-22c0-1.656-1.344-3-3-3zM26 27c0 0.55-0.45 1-1 1h-22c-0.55 0-1-0.45-1-1v-22c0-0.55 0.45-1 1-1h22c0.55 0 1 0.45 1 1v22zM22 14h-4v-6.5c0-0.825-0.675-1.5-1.5-1.5h-5c-0.825 0-1.5 0.675-1.5 1.5v6.5h-4c-1.775 0-2.675 2.156-1.412 3.413l8 8c0.781 0.781 2.050 0.781 2.831 0l8-8c1.25-1.256 0.363-3.412-1.419-3.412zM14 24l-8-8h6v-8h4v8h6l-8 8z"></path>
</svg>
