<!-- Generated by IcoMoon.io -->
<svg version="1.1" xmlns="http://www.w3.org/2000/svg" width="12" height="32" viewBox="0 0 12 32">
<title>arrows-v</title>
<path d="M11.338 24.997c-0.293-0.293-0.768-0.293-1.061 0l-3.215 3.245v-24.486l3.215 3.245c0.293 0.293 0.768 0.293 1.061 0l0.442-0.442c0.293-0.293 0.293-0.768 0-1.061l-5.25-5.28c-0.293-0.293-0.768-0.293-1.061 0l-5.25 5.28c-0.293 0.293-0.293 0.768 0 1.061l0.442 0.442c0.293 0.293 0.768 0.293 1.061 0l3.215-3.245v24.486l-3.215-3.245c-0.293-0.293-0.768-0.293-1.061 0l-0.442 0.442c-0.293 0.293-0.293 0.768 0 1.061l5.25 5.28c0.293 0.293 0.768 0.293 1.061 0l5.25-5.28c0.293-0.293 0.293-0.768 0-1.061l-0.442-0.442z"></path>
</svg>
