<!-- Generated by IcoMoon.io -->
<svg version="1.1" xmlns="http://www.w3.org/2000/svg" width="28" height="32" viewBox="0 0 28 32">
<title>arrow-square-left</title>
<path d="M13.219 23.719l-7.194-7.188c-0.294-0.294-0.294-0.769 0-1.063l7.194-7.188c0.294-0.294 0.769-0.294 1.063 0l0.431 0.431c0.294 0.294 0.294 0.781-0.012 1.069l-5.344 5.156h11.894c0.413 0 0.75 0.338 0.75 0.75v0.625c0 0.413-0.337 0.75-0.75 0.75h-11.894l5.35 5.156c0.3 0.294 0.306 0.775 0.012 1.069l-0.431 0.431c-0.3 0.294-0.775 0.294-1.069 0zM25 30h-22c-1.656 0-3-1.344-3-3v-22c0-1.656 1.344-3 3-3h22c1.656 0 3 1.344 3 3v22c0 1.656-1.344 3-3 3zM25 28c0.55 0 1-0.45 1-1v-22c0-0.55-0.45-1-1-1h-22c-0.55 0-1 0.45-1 1v22c0 0.55 0.45 1 1 1h22z"></path>
</svg>
