<!-- Generated by IcoMoon.io -->
<svg version="1.1" xmlns="http://www.w3.org/2000/svg" width="28" height="32" viewBox="0 0 28 32">
<title>arrow-alt-square-up</title>
<path d="M3 30h22c1.656 0 3-1.344 3-3v-22c0-1.656-1.344-3-3-3h-22c-1.656 0-3 1.344-3 3v22c0 1.656 1.344 3 3 3zM2 5c0-0.55 0.45-1 1-1h22c0.55 0 1 0.45 1 1v22c0 0.55-0.45 1-1 1h-22c-0.55 0-1-0.45-1-1v-22zM6 18h4v6.5c0 0.825 0.675 1.5 1.5 1.5h5c0.825 0 1.5-0.675 1.5-1.5v-6.5h4c1.775 0 2.675-2.156 1.413-3.412l-8-8c-0.781-0.781-2.050-0.781-2.831 0l-8 8c-1.25 1.256-0.362 3.412 1.419 3.412zM14 8l8 8h-6v8h-4v-8h-6l8-8z"></path>
</svg>
