<!-- Generated by IcoMoon.io -->
<svg version="1.1" xmlns="http://www.w3.org/2000/svg" width="28" height="32" viewBox="0 0 28 32">
<title>arrow-up</title>
<path d="M0.279 16.471l0.442 0.442c0.293 0.293 0.768 0.293 1.061 0l11.156-11.156v23.493c0 0.414 0.336 0.75 0.75 0.75h0.625c0.414 0 0.75-0.336 0.75-0.75v-23.493l11.156 11.156c0.293 0.293 0.768 0.293 1.061 0l0.442-0.442c0.293-0.293 0.293-0.768 0-1.061l-13.191-13.191c-0.293-0.293-0.768-0.293-1.061 0l-13.191 13.191c-0.293 0.293-0.293 0.768 0 1.061z"></path>
</svg>
