<!-- Generated by IcoMoon.io -->
<svg version="1.1" xmlns="http://www.w3.org/2000/svg" width="32" height="32" viewBox="0 0 32 32">
<title>arrow-circle-down</title>
<path d="M16 0.5c-8.563 0-15.5 6.938-15.5 15.5s6.938 15.5 15.5 15.5 15.5-6.938 15.5-15.5-6.938-15.5-15.5-15.5zM29.5 16c0 7.419-6.006 13.5-13.5 13.5-7.419 0-13.5-6.006-13.5-13.5 0-7.419 6.006-13.5 13.5-13.5 7.419 0 13.5 6.006 13.5 13.5zM23.719 15.719l-0.431-0.431c-0.294-0.294-0.781-0.294-1.069 0.012l-5.156 5.344v-11.894c0-0.412-0.337-0.75-0.75-0.75h-0.625c-0.412 0-0.75 0.338-0.75 0.75v11.894l-5.156-5.35c-0.294-0.3-0.775-0.306-1.069-0.012l-0.431 0.431c-0.294 0.294-0.294 0.769 0 1.063l7.188 7.194c0.294 0.294 0.769 0.294 1.063 0l7.188-7.194c0.294-0.288 0.294-0.762 0-1.056z"></path>
</svg>
