<!-- Generated by IcoMoon.io -->
<svg version="1.1" xmlns="http://www.w3.org/2000/svg" width="28" height="32" viewBox="0 0 28 32">
<title>arrow-to-left</title>
<path d="M13.5 25.781l-9.281-9.25c-0.294-0.294-0.294-0.769 0-1.063l9.281-9.25c0.294-0.294 0.769-0.294 1.063 0l0.444 0.444c0.294 0.294 0.294 0.769 0 1.063l-7.25 7.213h19.494c0.413 0 0.75 0.338 0.75 0.75v0.625c0 0.413-0.337 0.75-0.75 0.75h-19.494l7.244 7.212c0.294 0.294 0.294 0.769 0 1.063l-0.444 0.444c-0.287 0.294-0.762 0.294-1.056 0zM0.75 28h0.5c0.413 0 0.75-0.337 0.75-0.75v-22.5c0-0.412-0.337-0.75-0.75-0.75h-0.5c-0.412 0-0.75 0.338-0.75 0.75v22.5c0 0.413 0.338 0.75 0.75 0.75z"></path>
</svg>
