<!-- Generated by IcoMoon.io -->
<svg version="1.1" xmlns="http://www.w3.org/2000/svg" width="28" height="32" viewBox="0 0 28 32">
<title>arrow-from-left</title>
<path d="M18.5 6.219l9.281 9.25c0.294 0.294 0.294 0.769 0 1.063l-9.281 9.25c-0.294 0.294-0.769 0.294-1.063 0l-0.444-0.444c-0.294-0.294-0.294-0.769 0-1.063l7.25-7.212h-19.494c-0.412 0-0.75-0.337-0.75-0.75v-0.625c0-0.412 0.338-0.75 0.75-0.75h19.494l-7.244-7.213c-0.294-0.294-0.294-0.769 0-1.063l0.444-0.444c0.288-0.294 0.762-0.294 1.056 0zM0.75 28h0.5c0.413 0 0.75-0.337 0.75-0.75v-22.5c0-0.412-0.337-0.75-0.75-0.75h-0.5c-0.412 0-0.75 0.338-0.75 0.75v22.5c0 0.413 0.338 0.75 0.75 0.75z"></path>
</svg>
