<!-- Generated by IcoMoon.io -->
<svg version="1.1" xmlns="http://www.w3.org/2000/svg" width="32" height="32" viewBox="0 0 32 32">
<title>arrows-solid</title>
<path d="M22.040 26.789l-4.625 4.625c-0.781 0.781-2.047 0.781-2.828 0l-4.625-4.625c-0.586-0.586-0.586-1.536 0-2.121l0.678-0.677c0.597-0.597 1.57-0.584 2.15 0.030l1.462 1.628v-7.898h-7.898l1.628 1.462c0.613 0.581 0.627 1.553 0.030 2.15l-0.678 0.677c-0.586 0.586-1.536 0.586-2.121 0l-4.625-4.625c-0.781-0.781-0.781-2.047 0-2.828l4.625-4.625c0.586-0.586 1.536-0.586 2.121 0l0.678 0.678c0.597 0.597 0.584 1.57-0.030 2.15l-1.628 1.462h7.898v-7.898l-1.462 1.628c-0.581 0.613-1.553 0.627-2.15 0.030l-0.678-0.678c-0.586-0.586-0.586-1.536 0-2.121l4.625-4.625c0.781-0.781 2.047-0.781 2.828 0l4.625 4.625c0.586 0.586 0.586 1.536 0 2.121l-0.677 0.678c-0.597 0.597-1.57 0.584-2.15-0.030l-1.462-1.628v7.898h7.898l-1.628-1.462c-0.613-0.581-0.627-1.553-0.030-2.15l0.677-0.678c0.586-0.586 1.536-0.586 2.121 0l4.625 4.625c0.781 0.781 0.781 2.047 0 2.828l-4.625 4.625c-0.586 0.586-1.536 0.586-2.121 0l-0.677-0.677c-0.597-0.597-0.584-1.57 0.030-2.15l1.628-1.462h-7.898v7.898l1.462-1.628c0.581-0.613 1.553-0.627 2.15-0.030l0.677 0.677c0.586 0.586 0.586 1.535 0 2.121z"></path>
</svg>
