<!-- Generated by IcoMoon.io -->
<svg version="1.1" xmlns="http://www.w3.org/2000/svg" width="24" height="32" viewBox="0 0 24 32">
<title>arrow-alt-from-bottom-solid</title>
<path d="M22.5 30h-21c-0.831 0-1.5-0.669-1.5-1.5v-1.5c0-0.831 0.669-1.5 1.5-1.5h21c0.831 0 1.5 0.669 1.5 1.5v1.5c0 0.831-0.669 1.5-1.5 1.5zM16 22.5v-8.5h5.481c1.113 0 1.669-1.344 0.881-2.131l-9.506-9.512c-0.469-0.469-1.238-0.469-1.706 0l-9.519 9.512c-0.787 0.787-0.225 2.131 0.888 2.131h5.481v8.5c0 0.831 0.669 1.5 1.5 1.5h5c0.831 0 1.5-0.669 1.5-1.5z"></path>
</svg>
