<!-- Generated by IcoMoon.io -->
<svg version="1.1" xmlns="http://www.w3.org/2000/svg" width="28" height="32" viewBox="0 0 28 32">
<title>arrow-square-right-solid</title>
<path d="M3 2h22c1.656 0 3 1.344 3 3v22c0 1.656-1.344 3-3 3h-22c-1.656 0-3-1.344-3-3v-22c0-1.656 1.344-3 3-3zM12.194 9.475l4.719 4.525h-11.412c-0.831 0-1.5 0.669-1.5 1.5v1c0 0.831 0.669 1.5 1.5 1.5h11.412l-4.719 4.525c-0.606 0.581-0.619 1.55-0.025 2.144l0.688 0.681c0.588 0.587 1.537 0.587 2.119 0l8.294-8.287c0.587-0.587 0.587-1.537 0-2.119l-8.294-8.3c-0.588-0.588-1.537-0.588-2.119 0l-0.688 0.681c-0.594 0.6-0.581 1.569 0.025 2.15z"></path>
</svg>
