<!-- Generated by IcoMoon.io -->
<svg version="1.1" xmlns="http://www.w3.org/2000/svg" width="28" height="32" viewBox="0 0 28 32">
<title>arrow-from-right-solid</title>
<path d="M28 5.5v21c0 0.831-0.669 1.5-1.5 1.5h-1.5c-0.831 0-1.5-0.669-1.5-1.5v-21c0-0.831 0.669-1.5 1.5-1.5h1.5c0.831 0 1.5 0.669 1.5 1.5zM12.094 22.35l-4.1-4.1h12.506c0.831 0 1.5-0.669 1.5-1.5v-1.5c0-0.831-0.669-1.5-1.5-1.5h-12.506l4.1-4.1c0.588-0.588 0.588-1.537 0-2.119l-1.063-1.063c-0.588-0.588-1.537-0.588-2.119 0l-8.475 8.469c-0.588 0.588-0.588 1.538 0 2.119l8.469 8.469c0.588 0.587 1.537 0.587 2.119 0l1.063-1.063c0.588-0.581 0.588-1.531 0.006-2.113z"></path>
</svg>
