<!-- Generated by IcoMoon.io -->
<svg version="1.1" xmlns="http://www.w3.org/2000/svg" width="32" height="32" viewBox="0 0 32 32">
<title>arrows-h</title>
<path d="M24.997 10.662c-0.293 0.293-0.293 0.768 0 1.061l3.245 3.215h-24.486l3.245-3.215c0.293-0.293 0.293-0.768 0-1.061l-0.442-0.442c-0.293-0.293-0.768-0.293-1.061 0l-5.28 5.25c-0.293 0.293-0.293 0.768 0 1.061l5.28 5.25c0.293 0.293 0.768 0.293 1.061 0l0.442-0.442c0.293-0.293 0.293-0.768 0-1.061l-3.245-3.215h24.486l-3.245 3.215c-0.293 0.293-0.293 0.768 0 1.061l0.442 0.442c0.293 0.293 0.768 0.293 1.061 0l5.28-5.25c0.293-0.293 0.293-0.768 0-1.061l-5.28-5.25c-0.293-0.293-0.768-0.293-1.061 0l-0.442 0.442z"></path>
</svg>
