<!-- Generated by IcoMoon.io -->
<svg version="1.1" xmlns="http://www.w3.org/2000/svg" width="28" height="32" viewBox="0 0 28 32">
<title>arrow-square-down</title>
<path d="M21.719 16.781l-7.188 7.194c-0.294 0.294-0.769 0.294-1.063 0l-7.188-7.194c-0.294-0.294-0.294-0.769 0-1.063l0.431-0.431c0.294-0.294 0.781-0.294 1.069 0.012l5.156 5.35v-11.9c0-0.412 0.338-0.75 0.75-0.75h0.625c0.412 0 0.75 0.338 0.75 0.75v11.894l5.156-5.35c0.294-0.3 0.775-0.306 1.069-0.012l0.431 0.431c0.294 0.3 0.294 0.775 0 1.069zM28 5v22c0 1.656-1.344 3-3 3h-22c-1.656 0-3-1.344-3-3v-22c0-1.656 1.344-3 3-3h22c1.656 0 3 1.344 3 3zM26 5c0-0.55-0.45-1-1-1h-22c-0.55 0-1 0.45-1 1v22c0 0.55 0.45 1 1 1h22c0.55 0 1-0.45 1-1v-22z"></path>
</svg>
