<!-- Generated by IcoMoon.io -->
<svg version="1.1" xmlns="http://www.w3.org/2000/svg" width="24" height="32" viewBox="0 0 24 32">
<title>arrow-alt-to-bottom</title>
<path d="M14.431 4c0.55 0 1 0.45 1 1v9h5.869c0.444 0 0.669 0.537 0.356 0.85l-8.95 8.975c-0.394 0.394-1.025 0.394-1.419 0l-8.938-8.975c-0.313-0.313-0.094-0.85 0.356-0.85h5.869v-9c0-0.55 0.45-1 1-1h4.856zM14.431 2h-4.856c-1.656 0-3 1.344-3 3v7h-3.869c-2.219 0-3.344 2.688-1.769 4.262l8.938 8.975c1.175 1.175 3.075 1.175 4.25 0l8.944-8.969c1.569-1.569 0.456-4.262-1.769-4.262h-3.869v-7.006c0-1.656-1.35-3-3-3zM24 29.25v-0.5c0-0.413-0.337-0.75-0.75-0.75h-22.5c-0.412 0-0.75 0.337-0.75 0.75v0.5c0 0.413 0.338 0.75 0.75 0.75h22.5c0.413 0 0.75-0.337 0.75-0.75z"></path>
</svg>
