<!-- Generated by IcoMoon.io -->
<svg version="1.1" xmlns="http://www.w3.org/2000/svg" width="28" height="32" viewBox="0 0 28 32">
<title>arrow-to-right-solid</title>
<path d="M28 5.5v21c0 0.831-0.669 1.5-1.5 1.5h-1.5c-0.831 0-1.5-0.669-1.5-1.5v-21c0-0.831 0.669-1.5 1.5-1.5h1.5c0.831 0 1.5 0.669 1.5 1.5zM10.469 9.65l4.1 4.1h-13.069c-0.831 0-1.5 0.669-1.5 1.5v1.5c0 0.831 0.669 1.5 1.5 1.5h13.069l-4.1 4.1c-0.588 0.587-0.588 1.538 0 2.119l1.063 1.063c0.588 0.587 1.537 0.587 2.119 0l8.469-8.469c0.587-0.587 0.587-1.537 0-2.119l-8.469-8.475c-0.588-0.588-1.537-0.588-2.119 0l-1.063 1.063c-0.588 0.588-0.588 1.537 0 2.119z"></path>
</svg>
