<!-- Generated by IcoMoon.io -->
<svg version="1.1" xmlns="http://www.w3.org/2000/svg" width="16" height="32" viewBox="0 0 16 32">
<title>arrows-v-solid</title>
<path d="M10 25.387v-18.773l2.733 2.888c0.581 0.613 1.553 0.627 2.15 0.030l0.678-0.678c0.586-0.586 0.586-1.536 0-2.121l-6.146-6.146c-0.781-0.781-2.047-0.781-2.828 0l-6.146 6.146c-0.586 0.586-0.586 1.536 0 2.121l0.677 0.678c0.597 0.597 1.57 0.584 2.15-0.030l2.733-2.888v18.773l-2.733-2.888c-0.581-0.613-1.553-0.627-2.15-0.030l-0.677 0.677c-0.586 0.586-0.586 1.536 0 2.121l6.146 6.146c0.781 0.781 2.047 0.781 2.828 0l6.146-6.146c0.586-0.586 0.586-1.536 0-2.121l-0.678-0.677c-0.597-0.597-1.57-0.584-2.15 0.030l-2.733 2.888z"></path>
</svg>
