<!-- Generated by IcoMoon.io -->
<svg version="1.1" xmlns="http://www.w3.org/2000/svg" width="28" height="32" viewBox="0 0 28 32">
<title>arrow-alt-right</title>
<path d="M2 13.286c0-0.71 0.576-1.286 1.286-1.286v0h10.714v-7.313c0-0 0-0 0-0 0-0.276 0.224-0.5 0.5-0.5 0.138 0 0.263 0.056 0.354 0.147v0l10.771 10.756c0.233 0.233 0.377 0.554 0.377 0.91s-0.144 0.677-0.377 0.91l-0 0-10.771 10.755c-0.091 0.091-0.216 0.147-0.354 0.147-0.276 0-0.499-0.223-0.5-0.498v-7.313h-10.714c-0.71 0-1.286-0.576-1.286-1.286 0-0 0-0 0-0.001v0-5.428zM0 13.286v5.428c0.002 1.814 1.472 3.284 3.285 3.286h8.715v5.313c0 2.219 2.688 3.344 4.267 1.769l10.769-10.755c0.596-0.595 0.965-1.417 0.965-2.325s-0.369-1.73-0.965-2.325l-0-0-10.769-10.757c-1.57-1.568-4.267-0.459-4.267 1.768v5.313h-8.714c-1.814 0.002-3.284 1.472-3.286 3.285v0z"></path>
</svg>
