<!-- Generated by IcoMoon.io -->
<svg version="1.1" xmlns="http://www.w3.org/2000/svg" width="28" height="32" viewBox="0 0 28 32">
<title>arrow-right</title>
<path d="M13.529 2.279l-0.442 0.442c-0.293 0.293-0.293 0.768 0 1.061l11.156 11.156h-23.493c-0.414 0-0.75 0.336-0.75 0.75v0.625c0 0.414 0.336 0.75 0.75 0.75h23.493l-11.156 11.156c-0.293 0.293-0.293 0.768 0 1.061l0.442 0.442c0.293 0.293 0.768 0.293 1.061 0l13.191-13.191c0.293-0.293 0.293-0.768 0-1.061l-13.191-13.191c-0.293-0.293-0.768-0.293-1.061 0z"></path>
</svg>
