<!-- Generated by IcoMoon.io -->
<svg version="1.1" xmlns="http://www.w3.org/2000/svg" width="24" height="32" viewBox="0 0 24 32">
<title>arrow-from-top</title>
<path d="M21.781 20.5l-9.25 9.281c-0.294 0.294-0.769 0.294-1.063 0l-9.25-9.281c-0.294-0.294-0.294-0.769 0-1.063l0.444-0.444c0.294-0.294 0.769-0.294 1.063 0l7.213 7.25v-19.494c0-0.412 0.338-0.75 0.75-0.75h0.625c0.412 0 0.75 0.338 0.75 0.75v19.494l7.212-7.244c0.294-0.294 0.769-0.294 1.063 0l0.444 0.444c0.294 0.288 0.294 0.762 0 1.056zM0 2.75v0.5c0 0.413 0.338 0.75 0.75 0.75h22.5c0.413 0 0.75-0.337 0.75-0.75v-0.5c0-0.413-0.337-0.75-0.75-0.75h-22.5c-0.412 0-0.75 0.337-0.75 0.75z"></path>
</svg>
