<!-- Generated by IcoMoon.io -->
<svg version="1.1" xmlns="http://www.w3.org/2000/svg" width="32" height="32" viewBox="0 0 32 32">
<title>arrow-alt-circle-right</title>
<path d="M0.5 16c0 8.563 6.938 15.5 15.5 15.5s15.5-6.938 15.5-15.5-6.938-15.5-15.5-15.5-15.5 6.938-15.5 15.5zM16 2.5c7.419 0 13.5 6.006 13.5 13.5 0 7.419-6.006 13.5-13.5 13.5-7.419 0-13.5-6.006-13.5-13.5 0-7.419 6.006-13.5 13.5-13.5zM14 8v4h-6.5c-0.825 0-1.5 0.675-1.5 1.5v5c0 0.825 0.675 1.5 1.5 1.5h6.5v4c0 1.775 2.156 2.675 3.413 1.413l8-8c0.781-0.781 0.781-2.050 0-2.831l-8-8c-1.256-1.25-3.412-0.362-3.412 1.419zM24 16l-8 8v-6h-8v-4h8v-6l8 8z"></path>
</svg>
