<!-- Generated by IcoMoon.io -->
<svg version="1.1" xmlns="http://www.w3.org/2000/svg" width="28" height="32" viewBox="0 0 28 32">
<title>arrow-alt-square-up-solid</title>
<path d="M0 27v-22c0-1.656 1.344-3 3-3h22c1.656 0 3 1.344 3 3v22c0 1.656-1.344 3-3 3h-22c-1.656 0-3-1.344-3-3zM16.75 23.25v-7.25h4.431c0.669 0 1.006-0.813 0.531-1.281l-7.181-7.144c-0.294-0.294-0.762-0.294-1.056 0l-7.188 7.144c-0.475 0.469-0.138 1.281 0.531 1.281h4.431v7.25c0 0.413 0.338 0.75 0.75 0.75h4c0.412 0 0.75-0.337 0.75-0.75z"></path>
</svg>
