<!-- Generated by IcoMoon.io -->
<svg version="1.1" xmlns="http://www.w3.org/2000/svg" width="32" height="32" viewBox="0 0 32 32">
<title>arrows-alt</title>
<path d="M31.394 14.544l-4.156-4.156c-1.294-1.294-3.519-0.375-3.519 1.456v3.156h-6.719v-6.725h3.156c1.831 0 2.756-2.219 1.456-3.519l-4.156-4.15c-0.806-0.806-2.113-0.806-2.912 0l-4.156 4.156c-1.294 1.294-0.375 3.519 1.456 3.519h3.156v6.719h-6.725v-3.156c0-1.831-2.219-2.756-3.519-1.456l-4.15 4.156c-0.806 0.806-0.806 2.113 0 2.913l4.156 4.156c1.294 1.294 3.519 0.375 3.519-1.456v-3.156h6.719v6.725h-3.156c-1.831 0-2.756 2.219-1.456 3.519l4.156 4.156c0.806 0.806 2.112 0.806 2.912 0l4.156-4.156c1.294-1.294 0.375-3.519-1.456-3.519h-3.156v-6.725h6.725v3.156c0 1.831 2.219 2.756 3.519 1.456l4.156-4.156c0.8-0.806 0.8-2.106-0.006-2.912zM6.475 20.156c0 0.231-0.275 0.344-0.438 0.181l-4.156-4.156c-0.1-0.1-0.1-0.262 0-0.363l4.156-4.156c0.162-0.162 0.438-0.044 0.438 0.181zM20.156 25.525c0.231 0 0.344 0.275 0.181 0.438l-4.156 4.156c-0.1 0.1-0.262 0.1-0.363 0l-4.156-4.156c-0.162-0.163-0.044-0.438 0.181-0.438zM11.844 6.475c-0.231 0-0.344-0.275-0.181-0.438l4.156-4.156c0.1-0.1 0.263-0.1 0.362 0l4.156 4.156c0.163 0.162 0.044 0.438-0.181 0.438zM30.119 16.181l-4.156 4.156c-0.163 0.163-0.438 0.044-0.438-0.181v-8.306c0-0.231 0.275-0.344 0.438-0.181l4.156 4.156c0.106 0.094 0.106 0.256 0 0.356z"></path>
</svg>
