<!-- Generated by IcoMoon.io -->
<svg version="1.1" xmlns="http://www.w3.org/2000/svg" width="24" height="32" viewBox="0 0 24 32">
<title>arrow-alt-to-top</title>
<path d="M9.569 28c-0.55 0-1-0.45-1-1v-9h-5.862c-0.444 0-0.669-0.538-0.356-0.85l8.944-8.969c0.394-0.394 1.025-0.394 1.419 0l8.944 8.969c0.313 0.313 0.094 0.85-0.356 0.85h-5.869v9c0 0.55-0.45 1-1 1h-4.862zM9.569 30h4.856c1.656 0 3-1.344 3-3v-7h3.869c2.219 0 3.344-2.688 1.769-4.262l-8.938-8.975c-1.175-1.175-3.075-1.175-4.25 0l-8.944 8.975c-1.563 1.569-0.456 4.262 1.775 4.262h3.869v7c-0.006 1.656 1.344 3 2.994 3zM0 2.75v0.5c0 0.413 0.338 0.75 0.75 0.75h22.5c0.413 0 0.75-0.337 0.75-0.75v-0.5c0-0.413-0.337-0.75-0.75-0.75h-22.5c-0.412 0-0.75 0.337-0.75 0.75z"></path>
</svg>
