<!-- Generated by IcoMoon.io -->
<svg version="1.1" xmlns="http://www.w3.org/2000/svg" width="28" height="32" viewBox="0 0 28 32">
<title>arrow-left-solid</title>
<path d="M16.094 27.819l-1.387 1.387c-0.588 0.587-1.537 0.587-2.119 0l-12.15-12.144c-0.588-0.587-0.588-1.537 0-2.119l12.15-12.15c0.588-0.587 1.537-0.587 2.119 0l1.387 1.388c0.594 0.594 0.581 1.563-0.025 2.144l-7.531 7.175h17.962c0.831 0 1.5 0.669 1.5 1.5v2c0 0.831-0.669 1.5-1.5 1.5h-17.962l7.531 7.175c0.613 0.581 0.625 1.55 0.025 2.144z"></path>
</svg>
