<!-- Generated by IcoMoon.io -->
<svg version="1.1" xmlns="http://www.w3.org/2000/svg" width="28" height="32" viewBox="0 0 28 32">
<title>arrow-down</title>
<path d="M27.719 15.531l-0.444-0.444c-0.294-0.294-0.769-0.294-1.063 0l-11.15 11.156v-23.494c0-0.413-0.338-0.75-0.75-0.75h-0.625c-0.412 0-0.75 0.337-0.75 0.75v23.494l-11.156-11.156c-0.294-0.294-0.769-0.294-1.063 0l-0.444 0.444c-0.294 0.294-0.294 0.769 0 1.063l13.188 13.194c0.294 0.294 0.769 0.294 1.063 0l13.188-13.194c0.3-0.3 0.3-0.769 0.006-1.063z"></path>
</svg>
