<!-- Generated by IcoMoon.io -->
<svg version="1.1" xmlns="http://www.w3.org/2000/svg" width="24" height="32" viewBox="0 0 24 32">
<title>arrow-alt-from-bottom</title>
<path d="M23.25 30h-22.5c-0.412 0-0.75-0.337-0.75-0.75v-0.5c0-0.413 0.338-0.75 0.75-0.75h22.5c0.413 0 0.75 0.337 0.75 0.75v0.5c0 0.413-0.337 0.75-0.75 0.75zM9.569 24h4.856c0.55 0 1-0.45 1-1v-9h5.869c0.444 0 0.669-0.537 0.356-0.85l-8.944-8.975c-0.394-0.394-1.025-0.394-1.419 0l-8.938 8.975c-0.313 0.313-0.094 0.85 0.356 0.85h5.869v9c-0.006 0.55 0.444 1 0.994 1zM9.569 26c-1.656 0-3-1.344-3-3v-7h-3.862c-2.225 0-3.337-2.694-1.769-4.262l8.938-8.975c1.175-1.175 3.075-1.175 4.25 0l8.944 8.969c1.575 1.575 0.45 4.263-1.769 4.263h-3.869v7c0 1.656-1.344 3-3 3h-4.863v0.006z"></path>
</svg>
