<!-- Generated by IcoMoon.io -->
<svg version="1.1" xmlns="http://www.w3.org/2000/svg" width="28" height="32" viewBox="0 0 28 32">
<title>arrow-square-down-solid</title>
<path d="M28 5v22c0 1.656-1.344 3-3 3h-22c-1.656 0-3-1.344-3-3v-22c0-1.656 1.344-3 3-3h22c1.656 0 3 1.344 3 3zM20.525 14.194l-4.525 4.719v-11.412c0-0.831-0.669-1.5-1.5-1.5h-1c-0.831 0-1.5 0.669-1.5 1.5v11.412l-4.525-4.719c-0.581-0.606-1.55-0.619-2.144-0.025l-0.681 0.688c-0.588 0.588-0.588 1.537 0 2.119l8.287 8.294c0.588 0.587 1.537 0.587 2.119 0l8.294-8.294c0.587-0.587 0.587-1.537 0-2.119l-0.681-0.688c-0.594-0.594-1.563-0.581-2.144 0.025z"></path>
</svg>
