<!-- Generated by IcoMoon.io -->
<svg version="1.1" xmlns="http://www.w3.org/2000/svg" width="28" height="32" viewBox="0 0 28 32">
<title>arrow-alt-from-right</title>
<path d="M28 4.75v22.5c0 0.413-0.337 0.75-0.75 0.75h-0.5c-0.413 0-0.75-0.337-0.75-0.75v-22.5c0-0.412 0.337-0.75 0.75-0.75h0.5c0.413 0 0.75 0.338 0.75 0.75zM22 18.431v-4.856c0-0.55-0.45-1-1-1h-9v-5.869c0-0.444-0.537-0.669-0.85-0.356l-8.856 8.944c-0.394 0.394-0.394 1.025 0 1.419l8.85 8.944c0.313 0.313 0.85 0.094 0.85-0.356v-5.869h9c0.556 0 1.006-0.45 1.006-1zM24 18.431c0 1.656-1.344 3-3 3h-7v3.869c0 2.225-2.694 3.337-4.262 1.769l-8.856-8.944c-1.175-1.175-1.175-3.075 0-4.25l8.856-8.944c1.575-1.569 4.262-0.444 4.262 1.775v3.869h7c1.656 0 3 1.344 3 3v4.856z"></path>
</svg>
