<!-- Generated by IcoMoon.io -->
<svg version="1.1" xmlns="http://www.w3.org/2000/svg" width="28" height="32" viewBox="0 0 28 32">
<title>arrow-alt-from-left-solid</title>
<path d="M0 26.5v-21c0-0.831 0.669-1.5 1.5-1.5h1.5c0.831 0 1.5 0.669 1.5 1.5v21c0 0.831-0.669 1.5-1.5 1.5h-1.5c-0.831 0-1.5-0.669-1.5-1.5zM7.5 20h8.5v5.481c0 1.113 1.344 1.669 2.131 0.881l9.512-9.512c0.469-0.469 0.469-1.238 0-1.706l-9.512-9.512c-0.788-0.787-2.131-0.231-2.131 0.881v5.487h-8.5c-0.831 0-1.5 0.669-1.5 1.5v5c0 0.831 0.669 1.5 1.5 1.5z"></path>
</svg>
