<!-- Generated by IcoMoon.io -->
<svg version="1.1" xmlns="http://www.w3.org/2000/svg" width="24" height="32" viewBox="0 0 24 32">
<title>arrow-alt-from-top-solid</title>
<path d="M1.5 2h21c0.831 0 1.5 0.669 1.5 1.5v1.5c0 0.831-0.669 1.5-1.5 1.5h-21c-0.831 0-1.5-0.669-1.5-1.5v-1.5c0-0.831 0.669-1.5 1.5-1.5zM8 9.5v8.5h-5.481c-1.113 0-1.669 1.344-0.881 2.131l9.512 9.512c0.469 0.469 1.238 0.469 1.706 0l9.512-9.512c0.788-0.788 0.231-2.131-0.881-2.131h-5.488v-8.5c0-0.831-0.669-1.5-1.5-1.5h-5c-0.831 0-1.5 0.669-1.5 1.5z"></path>
</svg>
