<!-- Generated by IcoMoon.io -->
<svg version="1.1" xmlns="http://www.w3.org/2000/svg" width="12" height="32" viewBox="0 0 12 32">
<title>arrows-alt-v</title>
<path d="M10 24h-2.938v-16h2.938c1.775 0 2.675-2.156 1.412-3.412l-4-4c-0.781-0.781-2.050-0.781-2.831 0l-4 4c-1.25 1.256-0.362 3.412 1.419 3.412h2.938v16h-2.938c-1.775 0-2.675 2.156-1.413 3.413l4 4c0.781 0.781 2.050 0.781 2.831 0l4-4c1.25-1.256 0.363-3.413-1.419-3.413zM2 6.25c-0.219 0-0.337-0.269-0.175-0.425l4-4c0.1-0.1 0.256-0.1 0.35 0l4 4c0.156 0.156 0.044 0.425-0.175 0.425zM10.175 26.175l-4 4c-0.1 0.1-0.256 0.1-0.35 0l-4-4c-0.156-0.156-0.044-0.425 0.175-0.425h8c0.219 0 0.331 0.269 0.175 0.425z"></path>
</svg>
