<!-- Generated by IcoMoon.io -->
<svg version="1.1" xmlns="http://www.w3.org/2000/svg" width="32" height="32" viewBox="0 0 32 32">
<title>arrows-h-solid</title>
<path d="M6.613 18h18.773l-2.888 2.733c-0.613 0.581-0.627 1.553-0.030 2.15l0.677 0.677c0.586 0.586 1.536 0.586 2.121 0l6.146-6.146c0.781-0.781 0.781-2.047 0-2.828l-6.146-6.146c-0.586-0.586-1.536-0.586-2.121 0l-0.677 0.678c-0.597 0.597-0.584 1.57 0.030 2.15l2.888 2.733h-18.773l2.888-2.733c0.613-0.581 0.627-1.553 0.030-2.15l-0.678-0.678c-0.586-0.586-1.536-0.586-2.121 0l-6.146 6.146c-0.781 0.781-0.781 2.047 0 2.828l6.146 6.146c0.586 0.586 1.536 0.586 2.121 0l0.678-0.677c0.597-0.597 0.584-1.57-0.030-2.15l-2.888-2.733z"></path>
</svg>
