<!-- Generated by IcoMoon.io -->
<svg version="1.1" xmlns="http://www.w3.org/2000/svg" width="28" height="32" viewBox="0 0 28 32">
<title>arrow-alt-to-left</title>
<path d="M1.25 4h-0.5c-0.412 0-0.75 0.338-0.75 0.75v22.5c0 0.413 0.338 0.75 0.75 0.75h0.5c0.413 0 0.75-0.337 0.75-0.75v-22.5c0-0.412-0.337-0.75-0.75-0.75zM25 10.575h-7v-3.869c0-2.219-2.688-3.344-4.262-1.769l-8.975 8.938c-1.175 1.175-1.175 3.075 0 4.25l8.969 8.944c1.569 1.569 4.263 0.456 4.263-1.769v-3.869h7c1.663 0 3.006-1.35 3.006-3v-4.856c0-1.656-1.344-3-3-3zM25.994 18.431c0 0.55-0.444 1-0.994 1h-9v5.869c0 0.444-0.537 0.669-0.85 0.356l-8.975-8.95c-0.394-0.394-0.394-1.025 0-1.419l8.969-8.944c0.313-0.313 0.85-0.094 0.85 0.356v5.869h9c0.55 0 1 0.45 1 1z"></path>
</svg>
