<!-- Generated by IcoMoon.io -->
<svg version="1.1" xmlns="http://www.w3.org/2000/svg" width="32" height="32" viewBox="0 0 32 32">
<title>assistive-listening-systems-solid</title>
<path d="M13.5 16.25c0 0.966-0.784 1.75-1.75 1.75s-1.75-0.784-1.75-1.75c0-2.757 2.243-5 5-5s5 2.243 5 5c0 0.966-0.784 1.75-1.75 1.75s-1.75-0.784-1.75-1.75c0-0.827-0.673-1.5-1.5-1.5s-1.5 0.673-1.5 1.5zM15 5.25c-6.065 0-11 4.935-11 11 0 0.966 0.784 1.75 1.75 1.75s1.75-0.784 1.75-1.75c0-4.136 3.364-7.5 7.5-7.5s7.5 3.364 7.5 7.5c0 4.698-4.438 4.394-4.5 8.976l-0 0.024c0 1.792-1.458 3.25-3.25 3.25-0.966 0-1.75 0.784-1.75 1.75s0.784 1.75 1.75 1.75c3.717 0 6.742-3.020 6.75-6.736 0.037-2.152 4.5-3.015 4.5-9.014 0-6.065-4.935-11-11-11zM10 20c-1.105 0-2 0.895-2 2s0.895 2 2 2 2-0.895 2-2-0.895-2-2-2zM2 28c-1.105 0-2 0.895-2 2s0.895 2 2 2 2-0.895 2-2-0.895-2-2-2zM32 16.25c0-0.095-0.001-0.189-0.003-0.283-0.117-7.184-4.737-13.563-11.498-15.873-0.915-0.312-1.909 0.176-2.222 1.090s0.176 1.909 1.090 2.222c5.369 1.835 9.038 6.907 9.13 12.622l0 0.012c0.002 0.070 0.002 0.14 0.002 0.21 0 0.966 0.784 1.75 1.75 1.75s1.75-0.784 1.75-1.75zM9.561 27.439l-5-5-2.121 2.121 5 5 2.121-2.121z"></path>
</svg>
