<!-- Generated by IcoMoon.io -->
<svg version="1.1" xmlns="http://www.w3.org/2000/svg" width="32" height="32" viewBox="0 0 32 32">
<title>assistive-listening-systems</title>
<path d="M13.6 32c-0.552 0-1-0.448-1-1s0.448-1 1-1c2.573 0 4.667-2.093 4.667-4.667 0-5.323 4.587-5.869 4.587-10.333 0-4.448-3.619-8.067-8.067-8.067s-8.067 3.619-8.067 8.067c0 0.552-0.448 1-1 1s-1-0.448-1-1c0-5.551 4.516-10.067 10.067-10.067s10.067 4.516 10.067 10.067c0 5.429-4.587 6.003-4.587 10.333 0 3.676-2.991 6.667-6.667 6.667zM20.833 15c0-3.364-2.736-6.1-6.1-6.1s-6.1 2.736-6.1 6.1c0 0.552 0.448 1 1 1s1-0.448 1-1c0-2.261 1.839-4.1 4.1-4.1s4.1 1.839 4.1 4.1c0 0.552 0.448 1 1 1s1-0.448 1-1zM27.488 12.126c0.528-0.162 0.825-0.721 0.663-1.249-0.915-2.983-2.837-5.612-5.41-7.403-0.453-0.315-1.077-0.204-1.392 0.25s-0.204 1.077 0.25 1.392c2.208 1.536 3.855 3.79 4.64 6.347 0.162 0.528 0.722 0.825 1.249 0.663zM31.293 10.96c0.528-0.162 0.825-0.722 0.663-1.249-1.182-3.849-3.65-7.234-6.952-9.532-0.453-0.315-1.077-0.204-1.392 0.25s-0.204 1.077 0.25 1.392c2.936 2.043 5.132 5.053 6.182 8.477 0.162 0.528 0.721 0.825 1.249 0.662zM15 16c-0.552 0-1 0.448-1 1s0.448 1 1 1 1-0.448 1-1-0.448-1-1-1zM11 20c-0.552 0-1 0.448-1 1s0.448 1 1 1 1-0.448 1-1-0.448-1-1-1zM5 26c-0.552 0-1 0.448-1 1s0.448 1 1 1 1-0.448 1-1-0.448-1-1-1zM1 30c-0.552 0-1 0.448-1 1s0.448 1 1 1 1-0.448 1-1-0.448-1-1-1zM10.707 25.293l-4-4-1.414 1.414 4 4 1.414-1.414z"></path>
</svg>
