<!-- Generated by IcoMoon.io -->
<svg version="1.1" xmlns="http://www.w3.org/2000/svg" width="32" height="32" viewBox="0 0 32 32">
<title>asterisk</title>
<path d="M29.707 22.759l-11.707-6.759 11.707-6.759c0.359-0.207 0.482-0.666 0.274-1.024l-0.25-0.433c-0.207-0.359-0.666-0.482-1.024-0.274l-11.707 6.759v-13.518c0-0.414-0.336-0.75-0.75-0.75h-0.5c-0.414 0-0.75 0.336-0.75 0.75v13.518l-11.707-6.759c-0.359-0.207-0.817-0.084-1.024 0.274l-0.25 0.433c-0.207 0.359-0.084 0.817 0.275 1.024l11.707 6.759-11.707 6.759c-0.359 0.207-0.482 0.666-0.275 1.024l0.25 0.433c0.207 0.359 0.666 0.482 1.025 0.274l11.707-6.759v13.518c0 0.414 0.336 0.75 0.75 0.75h0.5c0.414 0 0.75-0.336 0.75-0.75v-13.518l11.707 6.759c0.359 0.207 0.817 0.084 1.024-0.274l0.25-0.433c0.207-0.359 0.084-0.817-0.274-1.024z"></path>
</svg>
