<!-- Generated by IcoMoon.io -->
<svg version="1.1" xmlns="http://www.w3.org/2000/svg" width="32" height="32" viewBox="0 0 32 32">
<title>asterisk-solid</title>
<path d="M29.888 20.881l-8.888-4.881 8.888-4.881c0.737-0.405 0.998-1.337 0.577-2.065l-1.218-2.109c-0.421-0.728-1.358-0.969-2.077-0.533l-8.671 5.257 0.217-10.138c0.018-0.841-0.659-1.532-1.5-1.532h-2.435c-0.841 0-1.518 0.691-1.5 1.532l0.217 10.138-8.671-5.257c-0.719-0.436-1.656-0.196-2.077 0.533l-1.218 2.109c-0.42 0.728-0.16 1.66 0.577 2.065l8.888 4.881-8.888 4.881c-0.737 0.405-0.998 1.337-0.577 2.065l1.218 2.109c0.421 0.728 1.358 0.969 2.077 0.533l8.671-5.257-0.217 10.138c-0.018 0.841 0.659 1.532 1.5 1.532h2.435c0.841 0 1.518-0.691 1.5-1.532l-0.217-10.138 8.671 5.257c0.719 0.436 1.656 0.196 2.077-0.533l1.218-2.109c0.421-0.728 0.16-1.66-0.577-2.065z"></path>
</svg>
