<!-- Generated by IcoMoon.io -->
<svg version="1.1" xmlns="http://www.w3.org/2000/svg" width="32" height="32" viewBox="0 0 32 32">
<title>at-solid</title>
<path d="M16 0.5c-8.566 0-15.5 6.932-15.5 15.5 0 8.566 6.932 15.5 15.5 15.5 3.010 0 5.959-0.884 8.463-2.514 0.75-0.488 0.914-1.518 0.347-2.211l-0.636-0.777c-0.479-0.586-1.324-0.729-1.961-0.321-1.843 1.182-4.006 1.822-6.213 1.822-6.341 0-11.5-5.159-11.5-11.5s5.159-11.5 11.5-11.5c6.259 0 11.5 3.601 11.5 10 0 2.424-1.318 4.984-3.636 5.231-1.084-0.028-1.057-0.804-0.842-1.877l1.465-7.569c0.179-0.926-0.53-1.785-1.473-1.785h-2.811c0 0 0 0-0 0-0.433 0-0.79 0.326-0.839 0.746l-0 0.004-0.001 0.006c-0.919-1.119-2.528-1.361-3.748-1.361-4.661 0-8.614 3.89-8.614 9.466 0 4.081 2.299 6.617 6 6.617 1.687 0 3.586-0.977 4.687-2.396 0.595 2.131 2.538 2.131 4.419 2.131 6.807 0 9.394-4.476 9.394-9.213 0-8.522-6.874-14-15.5-14zM14.645 19.527c-1.391 0-2.254-0.976-2.254-2.548 0-2.812 1.924-4.546 3.664-4.546 1.393 0 2.225 0.953 2.225 2.548 0 2.816-2.117 4.546-3.635 4.546z"></path>
</svg>
