<!-- Generated by IcoMoon.io -->
<svg version="1.1" xmlns="http://www.w3.org/2000/svg" width="32" height="32" viewBox="0 0 32 32">
<title>at</title>
<path d="M16 0.5c-8.566 0-15.5 6.932-15.5 15.5 0 8.566 6.932 15.5 15.5 15.5 3.308 0 6.543-1.067 9.193-3.020 0.344-0.253 0.401-0.745 0.131-1.076l-0.317-0.387c-0.251-0.307-0.7-0.368-1.019-0.133-2.305 1.692-5.114 2.616-7.988 2.616-7.461 0-13.5-6.038-13.5-13.5 0-7.461 6.038-13.5 13.5-13.5 7.403 0 13.5 5.002 13.5 12.5 0 4.555-3.301 6.765-7.254 6.765-1.233 0-1.481-0.676-1.219-2.117l2.004-10.254c0.091-0.463-0.264-0.894-0.736-0.894h-0.776c-0.364 0-0.667 0.259-0.736 0.603l-0.001 0.005c-0.143 0.74-0.179 0.841-0.241 1.603-0.733-1.692-2.415-2.689-4.586-2.689-4.253 0-8.323 3.934-8.323 9.814 0 3.849 2.12 6.147 5.67 6.147 2.483 0 4.413-1.517 5.415-2.936-0.076 1.737 1.091 2.638 2.873 2.638 6.728 0 9.91-3.577 9.91-8.685 0-8.512-6.884-14.5-15.5-14.5zM13.63 21.914c-2.293 0-3.661-1.569-3.661-4.198 0-4.668 3.173-7.597 6.076-7.597 2.429 0 3.631 1.737 3.631 4.108 0 3.633-2.398 7.686-6.046 7.686z"></path>
</svg>
