<!-- Generated by IcoMoon.io -->
<svg version="1.1" xmlns="http://www.w3.org/2000/svg" width="28" height="32" viewBox="0 0 28 32">
<title>atlas</title>
<path d="M28 24.5v-23c0-0.831-0.669-1.5-1.5-1.5h-21.5c-2.763 0-5 2.237-5 5v23c0 2.209 1.791 4 4 4h23.25c0.413 0 0.75-0.337 0.75-0.75v-0.5c0-0.413-0.337-0.75-0.75-0.75h-0.206c-0.25-1.262-0.2-3.106 0.025-4.113 0.544-0.225 0.931-0.762 0.931-1.387zM25.269 30h-21.269c-1.104 0-2-0.896-2-2s0.896-2 2-2h21.269c-0.181 1.175-0.194 2.725 0 4zM26 24h-22c-0.732 0-1.409 0.211-2 0.555v-19.555c0-1.656 1.344-3 3-3h21v22zM14 21c4.418 0 8-3.582 8-8s-3.582-8-8-8-8 3.582-8 8 3.582 8 8 8zM19.899 12h-2.443c-0.093-1.689-0.409-3.209-0.888-4.401 1.732 0.828 3.001 2.449 3.331 4.401zM17.456 14h2.443c-0.331 1.951-1.599 3.573-3.331 4.401 0.48-1.191 0.795-2.711 0.888-4.401zM14 7.082c0.481 0.466 1.298 2.151 1.464 4.918h-2.929c0.167-2.766 0.984-4.452 1.465-4.918zM15.464 14c-0.166 2.766-0.984 4.453-1.464 4.918-0.481-0.466-1.298-2.151-1.464-4.918h2.929zM11.432 7.599c-0.48 1.191-0.795 2.711-0.888 4.401h-2.443c0.33-1.951 1.599-3.573 3.331-4.401zM10.544 14c0.093 1.689 0.409 3.209 0.888 4.401-1.732-0.828-3.001-2.449-3.331-4.401h2.443z"></path>
</svg>
