<!-- Generated by IcoMoon.io -->
<svg version="1.1" xmlns="http://www.w3.org/2000/svg" width="28" height="32" viewBox="0 0 28 32">
<title>atlas-solid</title>
<path d="M19.899 13h-2.443c-0.093 1.689-0.409 3.209-0.888 4.401 1.732-0.828 3.001-2.449 3.331-4.401zM19.899 11c-0.331-1.951-1.599-3.573-3.331-4.401 0.48 1.191 0.795 2.711 0.888 4.401h2.443zM14 6.082c-0.481 0.466-1.298 2.151-1.464 4.918h2.929c-0.167-2.766-0.984-4.452-1.465-4.918zM11.432 6.599c-1.732 0.827-3.001 2.449-3.331 4.401h2.443c0.093-1.689 0.408-3.209 0.888-4.401zM11.432 17.401c-0.48-1.191-0.795-2.711-0.888-4.401h-2.443c0.33 1.951 1.599 3.573 3.331 4.401zM15.464 13h-2.929c0.166 2.766 0.984 4.453 1.464 4.918 0.481-0.466 1.299-2.152 1.465-4.918zM28 22.4v-20.8c0-1-0.6-1.6-1.6-1.6h-20.4c-3.4 0-6 2.6-6 6v20c0 3.4 2.6 6 6 6h20.4c0.8 0 1.6-0.6 1.6-1.6v-1c0-0.4-0.2-0.8-0.6-1.2-0.2-1-0.2-3.8 0-4.6 0.4-0.2 0.6-0.6 0.6-1.2zM14 4c4.418 0 8 3.582 8 8s-3.582 8-8 8-8-3.582-8-8 3.582-8 8-8zM24 28h-18c-1.2 0-2-0.8-2-2s1-2 2-2h18v4z"></path>
</svg>
