<!-- Generated by IcoMoon.io -->
<svg version="1.1" xmlns="http://www.w3.org/2000/svg" width="28" height="32" viewBox="0 0 28 32">
<title>atom</title>
<path d="M14 12.5c-1.933 0-3.5 1.567-3.5 3.5s1.567 3.5 3.5 3.5 3.5-1.567 3.5-3.5v0c-0.002-1.932-1.568-3.498-3.5-3.5h-0zM14 17.5c-0.828-0-1.5-0.672-1.5-1.5s0.672-1.5 1.5-1.5c0.828 0 1.5 0.672 1.5 1.5v0c-0 0.828-0.672 1.5-1.5 1.5h-0zM25.795 16c0.973-1.267 1.67-2.539 1.994-3.75 0.377-1.413 0.246-2.714-0.379-3.762-1.139-1.906-3.772-2.686-7.094-2.402-1.453-3.723-3.719-6.086-6.317-6.086s-4.863 2.363-6.315 6.086c-3.324-0.283-5.957 0.495-7.094 2.402-0.627 1.048-0.758 2.349-0.381 3.762 0.324 1.211 1.022 2.483 1.994 3.75-0.973 1.267-1.67 2.539-1.994 3.75-0.377 1.413-0.246 2.714 0.379 3.762 0.99 1.656 3.1 2.47 5.815 2.47 0.398 0 0.844-0.071 1.266-0.106 1.453 3.745 3.725 6.125 6.33 6.125s4.877-2.38 6.33-6.125c0.422 0.035 0.867 0.106 1.266 0.106 2.713 0 4.824-0.813 5.813-2.47 0.627-1.048 0.758-2.349 0.381-3.762-0.324-1.211-1.021-2.483-1.994-3.75zM2.306 22.486c-0.346-0.581-0.402-1.328-0.162-2.219 0.23-0.857 0.725-1.775 1.395-2.706 0.829 0.851 1.713 1.638 2.649 2.36l0.058 0.043c0.184 1.518 0.46 2.873 0.833 4.187l-0.046-0.191c-2.357 0.121-4.088-0.408-4.727-1.475zM6.027 17.171q-0.642-0.582-1.195-1.171 0.554-0.59 1.195-1.171c-0.014 0.389-0.029 0.774-0.029 1.171s0.016 0.782 0.029 1.171zM6.246 12.035c-0.995 0.765-1.878 1.552-2.702 2.398l-0.005 0.005c-0.67-0.931-1.164-1.849-1.395-2.706-0.24-0.891-0.184-1.638 0.164-2.219 0.576-0.967 2.045-1.499 4.072-1.499 0.207 0 0.432 0.018 0.652 0.028-0.327 1.122-0.603 2.475-0.774 3.861l-0.013 0.131zM19.481 10.441c-0.523-0.333-1.055-0.661-1.613-0.972-0.402-0.224-0.803-0.432-1.205-0.634 0.601-0.192 1.37-0.383 2.154-0.53l0.131-0.021c0.178 0.588 0.416 1.554 0.533 2.156zM14 2c1.504 0 3.096 1.627 4.262 4.373-1.639 0.341-3.065 0.779-4.433 1.333l0.171-0.061c-1.197-0.494-2.623-0.932-4.096-1.243l-0.166-0.029c1.166-2.746 2.758-4.372 4.262-4.372zM9.053 8.285c0.914 0.168 1.682 0.359 2.432 0.59l-0.149-0.040c-0.4 0.202-0.803 0.41-1.203 0.634-0.559 0.311-1.090 0.639-1.613 0.972 0.117-0.603 0.355-1.568 0.533-2.156zM8.519 21.559c0.523 0.333 1.055 0.661 1.613 0.972 0.42 0.234 0.836 0.405 1.256 0.616-0.615 0.198-1.4 0.396-2.201 0.549l-0.135 0.021c-0.177-0.553-0.362-1.278-0.51-2.016l-0.024-0.142zM14 30c-1.51 0-3.107-1.64-4.276-4.405 1.642-0.337 3.073-0.774 4.444-1.33l-0.169 0.060c1.202 0.495 2.634 0.933 4.112 1.241l0.163 0.028c-1.168 2.766-2.766 4.405-4.276 4.405zM18.947 23.716c-0.934-0.174-1.719-0.371-2.485-0.61l0.151 0.041c0.42-0.211 0.836-0.382 1.254-0.616 0.559-0.311 1.092-0.639 1.615-0.971-0.15 0.763-0.332 1.48-0.535 2.156zM19.867 18.879c-0.848 0.626-1.819 1.257-2.827 1.829l-0.146 0.076c-0.772 0.444-1.722 0.917-2.7 1.339l-0.193 0.074c-1.172-0.496-2.124-0.97-3.045-1.49l0.148 0.077c-1.154-0.649-2.125-1.279-3.054-1.963l0.082 0.057c-0.086-0.92-0.135-1.88-0.135-2.879s0.049-1.959 0.135-2.879c0.848-0.626 1.819-1.257 2.827-1.829l0.146-0.076c0.772-0.445 1.723-0.92 2.701-1.343l0.193-0.075c1.171 0.498 2.122 0.973 3.043 1.495l-0.148-0.077c1.154 0.649 2.125 1.279 3.054 1.963l-0.082-0.057c0.086 0.92 0.135 1.88 0.135 2.879s-0.049 1.959-0.135 2.879zM21.621 8.015c2.025 0 3.494 0.532 4.072 1.498 0.346 0.582 0.402 1.328 0.162 2.219-0.231 0.858-0.725 1.775-1.395 2.707-0.829-0.851-1.712-1.639-2.649-2.36l-0.058-0.043c-0.185-1.518-0.46-2.871-0.832-4.184l0.046 0.192c0.219-0.012 0.443-0.028 0.652-0.028zM21.973 14.829q0.642 0.582 1.195 1.171-0.554 0.59-1.195 1.171c0.014-0.389 0.029-0.774 0.029-1.171s-0.016-0.782-0.029-1.171zM25.692 22.486c-0.635 1.066-2.365 1.596-4.725 1.473 0.327-1.123 0.603-2.477 0.774-3.863l0.013-0.131c0.994-0.765 1.878-1.552 2.702-2.398l0.005-0.005c0.67 0.931 1.164 1.849 1.395 2.706 0.24 0.891 0.184 1.638-0.164 2.219z"></path>
</svg>
