<!-- Generated by IcoMoon.io -->
<svg version="1.1" xmlns="http://www.w3.org/2000/svg" width="28" height="32" viewBox="0 0 28 32">
<title>atom-alt-solid</title>
<path d="M25.055 16c2.969 4.771 4.141 9.695 1.391 12.445-2.59 2.589-7.243 1.824-12.446-1.413-5.224 3.252-9.866 3.993-12.446 1.413-2.75-2.75-1.578-7.675 1.391-12.445-2.969-4.771-4.141-9.695-1.391-12.445 2.75-2.746 7.674-1.576 12.445 1.391 4.77-2.969 9.695-4.142 12.447-1.391 2.75 2.75 1.579 7.675-1.391 12.445zM10.462 24.481c-1.63-1.343-3.148-2.743-4.949-4.929-1.554 2.952-1.901 5.293-1.13 6.066 0.774 0.774 3.12 0.424 6.079-1.137zM5.512 12.448c1.501-1.825 3.122-3.445 4.888-4.897l0.061-0.049c-1.938-1.022-3.611-1.525-4.75-1.525-0.604 0-1.059 0.138-1.328 0.405-0.772 0.773-0.423 3.113 1.13 6.066zM20.184 16.001c-1.793-2.366-3.829-4.412-6.107-6.158l-0.076-0.056c-2.355 1.802-4.391 3.848-6.126 6.135l-0.058 0.079c1.619 2.126 3.382 4.049 6.183 6.183 2.129-1.622 4.050-3.383 6.184-6.183zM16.001 16c0 0 0 0 0 0 0 1.105-0.896 2.001-2.001 2.001s-2.001-0.896-2.001-2.001c0-1.105 0.896-2.001 2.001-2.001v0c0 0 0 0 0 0 1.105 0 2.001 0.896 2.001 2.001 0 0 0 0 0 0v-0zM23.617 6.384c-0.27-0.269-0.724-0.405-1.328-0.405-1.138 0-2.813 0.502-4.75 1.524 1.826 1.501 3.447 3.121 4.9 4.885l0.048 0.061c1.553-2.952 1.901-5.292 1.13-6.065zM22.487 19.552c-1.808 2.193-3.325 3.592-4.948 4.929 2.958 1.559 5.303 1.907 6.078 1.137 0.771-0.772 0.423-3.113-1.13-6.066z"></path>
</svg>
