<!-- Generated by IcoMoon.io -->
<svg version="1.1" xmlns="http://www.w3.org/2000/svg" width="28" height="32" viewBox="0 0 28 32">
<title>atom-alt</title>
<path d="M24.629 16c3.473 5.28 4.447 10.265 2.053 12.654-0.9 0.896-2.156 1.346-3.689 1.346-1.324 0-2.848-0.334-4.527-1.004-1.449-0.578-2.957-1.42-4.465-2.411-1.51 0.992-3.018 1.833-4.465 2.411-1.68 0.67-3.207 1.004-4.527 1.004-1.535 0-2.791-0.449-3.689-1.346-2.394-2.39-1.42-7.374 2.051-12.654-3.471-5.28-4.445-10.265-2.051-12.654 1.676-1.67 4.59-1.788 8.217-0.342 1.447 0.578 2.955 1.42 4.465 2.411 1.508-0.992 3.016-1.833 4.465-2.411 3.633-1.448 6.547-1.325 8.217 0.342 2.395 2.39 1.42 7.374-2.053 12.654zM12.234 25.332c-1.502-1.127-2.832-2.276-4.078-3.508l0.003 0.003c-1.25-1.243-2.415-2.567-3.486-3.967l-0.069-0.093c-2.676 4.328-3.305 8.043-1.871 9.474 1.059 1.052 3.262 1.016 6.055-0.101 1.115-0.446 2.277-1.085 3.445-1.808zM4.608 14.233c2.201-2.89 4.714-5.383 7.528-7.495l0.098-0.071c-1.168-0.723-2.328-1.361-3.445-1.808-1.441-0.575-2.725-0.863-3.777-0.863-0.986 0-1.766 0.254-2.275 0.763-1.436 1.432-0.805 5.145 1.871 9.474zM14 24.171c1.639-1.189 3.082-2.422 4.423-3.758l-0.001 0.001c1.345-1.338 2.584-2.779 3.706-4.311l0.071-0.102c-1.193-1.634-2.432-3.075-3.776-4.411l-0.002-0.002c-1.34-1.335-2.783-2.568-4.317-3.684l-0.105-0.073c-1.64 1.189-3.084 2.421-4.425 3.758l0.001-0.001c-1.345 1.337-2.584 2.778-3.704 4.311l-0.071 0.102c1.192 1.634 2.431 3.075 3.774 4.412l0.002 0.002c1.34 1.335 2.784 2.567 4.319 3.684l0.105 0.073zM17.508 16c0 0.002 0 0.005 0 0.008 0 1.937-1.57 3.508-3.508 3.508s-3.508-1.57-3.508-3.508c0-1.937 1.57-3.508 3.508-3.508v0c1.934 0 3.503 1.566 3.508 3.5v0zM15.502 16c0-0.001 0-0.002 0-0.003 0-0.83-0.673-1.503-1.503-1.503s-1.503 0.673-1.503 1.503c0 0.83 0.673 1.503 1.503 1.503 0 0 0.001 0 0.001 0h-0c0.001 0 0.001 0 0.002 0 0.828 0 1.5-0.672 1.5-1.5v0zM15.764 6.668c1.504 1.126 2.833 2.275 4.079 3.508l-0.003-0.003c1.25 1.242 2.413 2.567 3.484 3.967l0.069 0.093c2.676-4.328 3.307-8.043 1.871-9.474-1.053-1.050-3.258-1.014-6.053 0.101-1.117 0.446-2.277 1.086-3.447 1.808zM23.393 17.767c-1.14 1.493-2.304 2.818-3.551 4.059l-0.002 0.002c-1.243 1.229-2.573 2.377-3.976 3.433l-0.1 0.072c1.168 0.723 2.33 1.361 3.447 1.808 2.793 1.116 4.998 1.151 6.053 0.101 1.436-1.431 0.805-5.145-1.871-9.474z"></path>
</svg>
