<!-- Generated by IcoMoon.io -->
<svg version="1.1" xmlns="http://www.w3.org/2000/svg" width="32" height="32" viewBox="0 0 32 32">
<title>audio-description-solid</title>
<path d="M10.183 14.919l0.551 1.916h-1.6l0.565-1.916c0.080-0.276 0.166-0.625 0.242-0.953 0.076 0.328 0.162 0.676 0.242 0.953zM20.587 12.913h-0.908v6.174h0.908c1.861 0 2.886-1.105 2.886-3.111 0-2.015-1.093-3.063-2.886-3.063zM32 7v18c0 1.657-1.343 3-3 3h-26c-1.657 0-3-1.343-3-3v-18c0-1.657 1.343-3 3-3h26c1.657 0 3 1.343 3 3zM15.341 21.009l-3.569-10.5c-0.104-0.298-0.382-0.509-0.71-0.509h-2.243c-0.328 0-0.607 0.21-0.709 0.503l-0.002 0.005-3.569 10.5c-0.165 0.486 0.196 0.991 0.71 0.991h1.821c0.341 0 0.628-0.227 0.72-0.538l0.001-0.005 0.536-1.869h3.21l0.55 1.874c0.094 0.314 0.381 0.539 0.72 0.539 0 0 0 0 0 0h1.823c0.514 0 0.875-0.505 0.71-0.991zM26.885 15.976c0-3.686-2.37-5.976-6.185-5.976h-3.585c-0.414 0-0.75 0.336-0.75 0.75v10.5c0 0.414 0.336 0.75 0.75 0.75h3.585c3.815 0 6.185-2.308 6.185-6.024z"></path>
</svg>
