<!-- Generated by IcoMoon.io -->
<svg version="1.1" xmlns="http://www.w3.org/2000/svg" width="32" height="32" viewBox="0 0 32 32">
<title>audio-description</title>
<path d="M29 4h-26c-1.657 0-3 1.343-3 3v18c0 1.657 1.343 3 3 3h26c1.657 0 3-1.343 3-3v-18c0-1.657-1.343-3-3-3zM30 25c0 0.551-0.449 1-1 1h-26c-0.551 0-1-0.449-1-1v-18c0-0.551 0.449-1 1-1h26c0.551 0 1 0.449 1 1v18zM11.662 18.924h-4.208l-0.844 2.561c-0.102 0.302-0.382 0.515-0.712 0.515 0 0 0 0 0 0h-0.646c-0.517 0-0.879-0.511-0.707-0.999l3.697-10.5c0.106-0.294 0.383-0.501 0.707-0.501h1.22c0.325 0 0.602 0.207 0.706 0.496l0.002 0.005 3.697 10.5c0.172 0.488-0.19 0.999-0.707 0.999h-0.646c-0.324 0-0.611-0.208-0.712-0.515l-0.844-2.561zM9.549 12.079s-0.27 1.183-0.507 1.859l-1.065 3.211h3.144l-1.065-3.211c-0.22-0.676-0.473-1.859-0.473-1.859h-0.034zM16.462 10.75c0-0.414 0.336-0.75 0.75-0.75h3.34c3.701 0 6.118 2.197 6.118 5.983s-2.417 6.017-6.118 6.017h-3.34c-0.414 0-0.75-0.336-0.75-0.75v-10.5zM20.433 20.124c2.434 0 3.989-1.437 3.989-4.141 0-2.67-1.589-4.107-3.989-4.107h-1.791v8.248h1.791z"></path>
</svg>
