<!-- Generated by IcoMoon.io -->
<svg version="1.1" xmlns="http://www.w3.org/2000/svg" width="24" height="32" viewBox="0 0 24 32">
<title>award</title>
<path d="M12 5.997c-3.308 0-6 2.692-6 6s2.692 6 6 6 6-2.692 6-6-2.691-6-6-6zM12 15.997c-2.206 0-4-1.794-4-4s1.794-4 4-4 4 1.794 4 4-1.794 4-4 4zM22.977 17.021c0.879-0.894 1.224-2.208 0.904-3.429-0.399-1.512-0.399-1.278 0-2.793 0.321-1.22-0.026-2.533-0.904-3.429-1.099-1.107-0.973-0.918-1.369-2.412-0.322-1.227-1.273-2.192-2.482-2.521-1.456-0.395-1.289-0.286-2.359-1.389-0.889-0.901-2.195-1.255-3.408-0.926-1.469 0.407-1.256 0.401-2.717 0-1.203-0.332-2.518 0.025-3.406 0.928-1.081 1.104-0.888 0.986-2.357 1.387-1.211 0.329-2.162 1.294-2.484 2.52-0.397 1.502-0.274 1.304-1.369 2.414-0.879 0.895-1.224 2.209-0.904 3.429 0.399 1.511 0.399 1.276 0 2.793-0.321 1.22 0.026 2.533 0.904 3.429 1.099 1.107 0.973 0.918 1.369 2.412 0.126 0.477 0.369 0.898 0.664 1.274l-2.982 7.336c-0.269 0.661 0.219 1.378 0.924 1.378 0.034 0-0.182 0.008 3.333-0.127l2.266 2.393c0.201 0.212 0.464 0.313 0.724 0.313 0.386 0 0.764-0.221 0.929-0.622l3.278-8.064c0.141-0.050 0.304-0.079 0.473-0.079s0.331 0.029 0.482 0.081l-0.010-0.003 3.277 8.065c0.164 0.402 0.543 0.622 0.929 0.622 0.26 0 0.523-0.1 0.724-0.313l2.266-2.393c3.514 0.134 3.298 0.127 3.332 0.127 0.705 0 1.194-0.717 0.924-1.378l-2.981-7.336c0.294-0.376 0.538-0.796 0.664-1.273 0.398-1.504 0.274-1.306 1.369-2.415zM6.982 29.184c-1.412-1.491-1.035-1.093-1.821-1.923-1.144 0.044-0.591 0.023-2.651 0.102l2.222-5.468c0.049 0.016 0.092 0.047 0.143 0.061 1.367 0.366 1.279 0.288 1.974 0.994 0.621 0.634 1.424 0.973 2.247 1.031l-2.115 5.203zM21.489 27.363c-2.057-0.079-1.508-0.058-2.651-0.101-0.785 0.829-0.409 0.432-1.821 1.923l-2.119-5.213c0.826-0.057 1.629-0.388 2.251-1.022 0.713-0.726 0.614-0.637 1.974-0.994 0.051-0.014 0.093-0.044 0.142-0.060l2.222 5.467zM19.674 18.926c-0.141 0.536-0.552 0.958-1.076 1.101-1.476 0.391-1.774 0.403-2.873 1.523-0.5 0.507-1.262 0.601-1.859 0.218-1.133-0.715-2.598-0.716-3.731 0.001-0.594 0.377-1.359 0.289-1.859-0.22-1.086-1.105-1.383-1.122-2.873-1.523-0.524-0.142-0.936-0.564-1.076-1.101-0.504-1.914-0.471-1.887-1.877-3.304-0.387-0.394-0.539-0.976-0.396-1.519 0.509-1.904 0.513-1.905 0-3.809-0.143-0.543 0.010-1.125 0.396-1.519 1.401-1.419 1.371-1.379 1.877-3.307 0.141-0.536 0.553-0.958 1.076-1.099 1.924-0.526 1.855-0.487 3.258-1.914 0.325-0.332 0.864-0.56 1.455-0.401 1.904 0.524 1.866 0.525 3.768 0 0.512-0.142 1.074 0.012 1.457 0.398 1.393 1.429 1.367 1.403 3.26 1.916 0.521 0.142 0.934 0.564 1.074 1.101 0.504 1.914 0.471 1.887 1.877 3.304 0.387 0.394 0.539 0.976 0.396 1.519-0.512 1.908-0.51 1.909 0 3.809 0.142 0.543-0.010 1.125-0.396 1.519-1.401 1.419-1.371 1.379-1.877 3.307z"></path>
</svg>
