<!-- Generated by IcoMoon.io -->
<svg version="1.1" xmlns="http://www.w3.org/2000/svg" width="24" height="32" viewBox="0 0 24 32">
<title>award-solid</title>
<path d="M6.070 22.664c-0.543-0.543-0.26-0.39-1.57-0.741-0.594-0.159-1.117-0.466-1.589-0.832l-2.836 6.953c-0.274 0.673 0.238 1.404 0.964 1.377l3.293-0.126 2.265 2.392c0.5 0.528 1.377 0.363 1.652-0.31l3.253-7.976c-0.678 0.378-1.429 0.599-2.207 0.599-1.219 0-2.364-0.474-3.226-1.336zM23.925 28.044l-2.836-6.953c-0.473 0.367-0.995 0.673-1.589 0.832-1.317 0.352-1.028 0.199-1.57 0.741-0.862 0.861-2.008 1.336-3.226 1.336-0.777 0-1.529-0.222-2.207-0.599l3.253 7.976c0.274 0.673 1.152 0.838 1.652 0.31l2.266-2.392 3.293 0.126c0.726 0.027 1.239-0.704 0.964-1.377zM16.438 21.25c0.955-0.972 1.064-0.888 2.424-1.259 0.868-0.237 1.547-0.927 1.779-1.811 0.468-1.775 0.346-1.561 1.622-2.859 0.636-0.647 0.884-1.59 0.651-2.474-0.467-1.774-0.468-1.526 0-3.302 0.233-0.884-0.016-1.827-0.651-2.474-1.276-1.299-1.154-1.085-1.622-2.859-0.233-0.884-0.911-1.574-1.779-1.811-1.742-0.476-1.532-0.351-2.809-1.651-0.636-0.647-1.563-0.9-2.431-0.663-1.742 0.475-1.499 0.476-3.244 0-0.868-0.237-1.795 0.016-2.431 0.663-1.276 1.299-1.066 1.175-2.809 1.651-0.868 0.237-1.547 0.928-1.779 1.811-0.467 1.774-0.346 1.561-1.622 2.859-0.636 0.647-0.884 1.59-0.651 2.474 0.467 1.773 0.468 1.525 0 3.301-0.233 0.884 0.016 1.827 0.651 2.474 1.276 1.299 1.154 1.084 1.622 2.859 0.232 0.884 0.911 1.574 1.779 1.811 1.399 0.381 1.503 0.321 2.424 1.259 0.827 0.842 2.115 0.992 3.109 0.364 0.376-0.242 0.836-0.386 1.329-0.386s0.953 0.144 1.339 0.392l-0.010-0.006c0.993 0.629 2.281 0.478 3.108-0.364zM6.104 10.998c0-3.314 2.64-6.001 5.896-6.001s5.896 2.687 5.896 6.001-2.64 6.001-5.896 6.001-5.896-2.687-5.896-6.001z"></path>
</svg>
