<!-- Generated by IcoMoon.io -->
<svg version="1.1" xmlns="http://www.w3.org/2000/svg" width="32" height="32" viewBox="0 0 32 32">
<title>axe-battle-solid</title>
<path d="M32 10.057c-0.427-3.86-2.1-7.289-4.566-9.764-0.576-0.578-1.493-0.258-1.691 0.56-0.752 3.104-2.953 5.517-5.742 6.327v9.639c2.789 0.81 4.991 3.223 5.742 6.327 0.198 0.817 1.116 1.138 1.691 0.56 2.466-2.474 4.139-5.903 4.566-9.764l-3.922-1.943 3.922-1.942zM6.313 0.854c-0.196-0.818-1.105-1.137-1.675-0.56-2.846 2.883-4.638 7.058-4.638 11.706s1.792 8.823 4.638 11.706c0.571 0.578 1.479 0.258 1.675-0.56 0.745-3.104 2.924-5.517 5.688-6.327v-9.639c-2.763-0.81-4.942-3.223-5.688-6.327zM17 4h-2c-0.553 0-1 0.447-1 1v26c0 0.552 0.447 1 1 1h2c0.552 0 1-0.448 1-1v-26c0-0.553-0.448-1-1-1z"></path>
</svg>
