<!-- Generated by IcoMoon.io -->
<svg version="1.1" xmlns="http://www.w3.org/2000/svg" width="32" height="32" viewBox="0 0 32 32">
<title>axe-battle</title>
<path d="M32 10.057c-0.423-3.861-2.195-7.289-4.637-9.764-0.199-0.201-0.439-0.294-0.676-0.294-0.442 0-0.872 0.321-0.999 0.854-0.833 3.471-3.454 6.090-6.688 6.549v-2.402c0-0.553-0.448-1-1-1h-4c-0.553 0-1 0.447-1 1v2.402c-3.234-0.459-5.854-3.078-6.688-6.549-0.128-0.532-0.558-0.854-0.999-0.854-0.237 0-0.477 0.092-0.676 0.294-2.846 2.883-4.638 7.058-4.638 11.706s1.792 8.823 4.638 11.706c0.199 0.202 0.439 0.294 0.676 0.294 0.442 0 0.872-0.321 0.999-0.854 0.833-3.471 3.454-6.090 6.688-6.549v14.402c0 0.552 0.447 1 1 1h4c0.552 0 1-0.448 1-1v-14.402c3.234 0.459 5.854 3.078 6.688 6.549 0.128 0.532 0.558 0.854 0.999 0.854 0.237 0 0.477-0.093 0.676-0.294 2.442-2.474 4.214-5.903 4.637-9.764l-2-1.943 2-1.942zM4.916 20.973c-1.868-2.483-2.916-5.665-2.916-8.973s1.047-6.489 2.916-8.973c0.433 1.063 2.408 5.589 8.084 6.396v5.154c-5.676 0.806-7.651 5.332-8.084 6.395zM17 30h-2v-24h2v24zM28.565 13.393l1.206 1.242c-0.399 2.348-1.326 4.531-2.686 6.338-0.434-1.063-2.408-5.589-8.084-6.396v-5.154c5.676-0.806 7.651-5.332 8.084-6.396 1.359 1.808 2.287 3.989 2.686 6.338l-2.558 2.634 1.352 1.393z"></path>
</svg>
