<!-- Generated by IcoMoon.io -->
<svg version="1.1" xmlns="http://www.w3.org/2000/svg" width="40" height="32" viewBox="0 0 40 32">
<title>axe-solid</title>
<path d="M0.293 27.464c-0.391 0.391-0.391 1.024 0 1.414l2.829 2.828c0.391 0.391 1.024 0.391 1.414 0l14.742-14.742-4.242-4.242-14.742 14.742zM32.859 10l-3.308-3.308 2.156-2.156c0.391-0.391 0.391-1.024 0-1.414l-2.828-2.828c-0.391-0.391-1.024-0.391-1.414 0l-2.156 2.156-1.863-1.864c-0.391-0.391-0.902-0.586-1.414-0.586s-1.024 0.195-1.414 0.586l-6.031 6.031c-0.781 0.781-0.781 2.047 0 2.828l9.414 9.414v7.141h2c7.732 0 14-6.268 14-14v-2h-7.141zM28 21.799v-2.371c2.455-1.016 4.413-2.973 5.428-5.428h2.371c-0.797 3.912-3.886 7.001-7.799 7.799z"></path>
</svg>
