<!-- Generated by IcoMoon.io -->
<svg version="1.1" xmlns="http://www.w3.org/2000/svg" width="40" height="32" viewBox="0 0 40 32">
<title>axe</title>
<path d="M32.859 10l-2.954-2.954 1.51-1.51c0.781-0.781 0.781-2.047 0-2.829l-2.121-2.121c-0.391-0.391-0.902-0.586-1.414-0.586s-1.024 0.195-1.414 0.586l-1.51 1.51-1.509-1.51c-0.391-0.391-0.902-0.586-1.414-0.586s-1.024 0.195-1.414 0.586l-6.031 6.031c-0.781 0.781-0.781 2.048 0 2.828l1.51 1.51-15.51 15.51c-0.781 0.781-0.781 2.047 0 2.829l2.121 2.121c0.391 0.391 0.902 0.586 1.414 0.586s1.024-0.195 1.414-0.586l15.51-15.51 2.954 2.954v7.141h2c7.732 0 14-6.268 14-14v-2h-7.141zM27.877 2h0.002l2.121 2.121-1.51 1.51-2.122-2.123 1.509-1.509zM4.121 30l-2.121-2.121 15.51-15.51 2.121 2.121-15.51 15.51zM26 24v-5.969l-10-10 6.031-6.031 10 10h5.969c0 6.617-5.383 12-12 12z"></path>
</svg>
