<!-- Generated by IcoMoon.io -->
<svg version="1.1" xmlns="http://www.w3.org/2000/svg" width="24" height="32" viewBox="0 0 24 32">
<title>baby-solid</title>
<path d="M12 10c2.762 0 5-2.237 5-5s-2.238-5-5-5-5 2.237-5 5 2.238 5 5 5zM8.662 25.55l1.6-2-3.844-3.2-2.869 3.587c-0.712 0.887-0.731 2.15-0.050 3.063l3 4c0.494 0.656 1.244 1 2 1 0.519 0 1.050-0.163 1.5-0.5 1.106-0.825 1.325-2.394 0.5-3.5l-1.838-2.45zM17.581 20.35l-3.844 3.2 1.6 2-1.838 2.45c-0.825 1.106-0.606 2.675 0.5 3.5 0.45 0.337 0.975 0.5 1.5 0.5 0.762 0 1.512-0.344 2-1l3-4c0.681-0.913 0.663-2.175-0.050-3.063l-2.869-3.587zM23.544 9.063c-0.794-1.131-2.35-1.4-3.481-0.613l-2.538 1.781c-3.294 2.313-7.762 2.313-11.050 0l-2.538-1.775c-1.131-0.794-2.688-0.519-3.481 0.606-0.794 1.131-0.519 2.688 0.606 3.481l2.538 1.781c1.063 0.744 2.213 1.306 3.4 1.744v1.931h10v-1.925c1.188-0.438 2.337-1 3.4-1.744l2.538-1.781c1.131-0.8 1.4-2.356 0.606-3.487z"></path>
</svg>
