<!-- Generated by IcoMoon.io -->
<svg version="1.1" xmlns="http://www.w3.org/2000/svg" width="24" height="32" viewBox="0 0 24 32">
<title>baby</title>
<path d="M23.387 10.019c-1.087-1.575-3.25-2.006-4.869-0.906l-2.275 1.563c-1.838 1.262-5.375 2.144-8.494 0l-2.275-1.563c-1.606-1.1-3.775-0.675-4.862 0.906-1.094 1.594-0.688 3.775 0.9 4.869l2.275 1.556c0.681 0.469 1.425 0.881 2.213 1.238v1.413l-3.394 3.512c-1.2 1.113-1.469 2.9-0.625 4.331l2.394 3.506c0.644 0.962 1.744 1.556 2.912 1.556 0.625 0 1.238-0.169 1.775-0.488 0.813-0.481 3.269-2.531 0.125-6.031l1.15-0.725c0.944 0.331 2.369 0.331 3.319 0l1.15 0.725c-3.144 3.5-0.688 5.55 0.125 6.031 0.537 0.319 1.15 0.488 1.775 0.488 1.169 0 2.262-0.594 2.913-1.556l2.394-3.506c0.844-1.431 0.569-3.219-0.625-4.331l-3.387-3.512v-1.413c0.788-0.35 1.525-0.769 2.212-1.238l2.275-1.556c1.587-1.094 1.994-3.281 0.9-4.869zM8.575 27.738c0.419 0.712 0.181 1.631-0.531 2.056-0.237 0.144-0.5 0.206-0.763 0.206-0.513 0-1.013-0.262-1.294-0.738l-2.288-3.337c-0.375-0.637-0.231-1.456 0.344-1.925l2.425-2.575c0.044 0.050 0.063 0.113 0.106 0.163l2.2 2.2-1.838 1.731 1.637 2.219zM13.756 22.413c-0.825 0.825-2.719 0.8-3.513 0l-2.244-2.244v-0.669h8v0.669l-2.244 2.244zM19.95 24c0.575 0.469 0.719 1.288 0.344 1.925l-2.288 3.337c-0.281 0.475-0.781 0.738-1.294 0.738-0.256 0-0.519-0.069-0.762-0.206-0.713-0.419-0.95-1.344-0.531-2.056l1.631-2.225-1.838-1.731 2.2-2.2c0.044-0.044 0.069-0.113 0.106-0.163l2.431 2.581zM21.35 13.238l-2.269 1.556c-0.962 0.656-2 1.156-3.081 1.525v1.181h-8v-1.181c-1.081-0.369-2.119-0.863-3.081-1.525l-2.269-1.556c-1.65-1.137 0.075-3.581 1.7-2.475l2.269 1.556c2.95 2.025 7.331 2.356 10.756 0l2.269-1.556c1.631-1.106 3.356 1.338 1.706 2.475zM12 10c2.762 0 5-2.237 5-5s-2.238-5-5-5-5 2.237-5 5 2.238 5 5 5zM12 2c1.656 0 3 1.344 3 3s-1.344 3-3 3-3-1.344-3-3 1.344-3 3-3z"></path>
</svg>
