<!-- Generated by IcoMoon.io -->
<svg version="1.1" xmlns="http://www.w3.org/2000/svg" width="32" height="32" viewBox="0 0 32 32">
<title>baby-carriage-solid</title>
<path d="M9.050 1.063c-0.706-1.113-2.325-1.425-3.375-0.588-3.469 2.769-5.675 6.9-5.675 11.525h16l-6.95-10.938zM31 6h-3c-2.206 0-4 1.794-4 4v4h-24c0 3.163 1.438 6.025 3.769 8.169-2.163 0.556-3.769 2.5-3.769 4.831 0 2.762 2.237 5 5 5s5-2.238 5-5c0-0.556-0.113-1.075-0.275-1.575 1.35 0.369 2.787 0.575 4.275 0.575s2.931-0.206 4.275-0.575c-0.169 0.5-0.275 1.019-0.275 1.575 0 2.762 2.238 5 5 5s5-2.238 5-5c0-2.331-1.606-4.275-3.769-4.831 2.331-2.144 3.769-5.006 3.769-8.169v-4h3c0.55 0 1-0.45 1-1v-2c0-0.55-0.45-1-1-1zM5 29c-1.1 0-2-0.9-2-2s0.9-2 2-2 2 0.9 2 2-0.9 2-2 2zM25 27c0 1.1-0.9 2-2 2s-2-0.9-2-2 0.9-2 2-2 2 0.9 2 2z"></path>
</svg>
