<!-- Generated by IcoMoon.io -->
<svg version="1.1" xmlns="http://www.w3.org/2000/svg" width="32" height="32" viewBox="0 0 32 32">
<title>baby-carriage</title>
<path d="M31.5 6h-2.5c-1.656 0-3 1.344-3 3v3h-8.45l-6.656-10.469c-0.5-0.787-1.325-1.325-2.269-1.481-0.925-0.156-1.862 0.075-2.575 0.644-3.844 3.075-6.050 7.556-6.050 12.306v1c0 4.2 2.519 7.887 6.331 10.031-0.112-0.006-0.219-0.031-0.331-0.031-2.206 0-4 1.794-4 4s1.794 4 4 4 4-1.794 4-4c0-1.131-0.475-2.144-1.225-2.875 1.619 0.556 3.375 0.875 5.225 0.875s3.613-0.313 5.225-0.875c-0.75 0.725-1.225 1.744-1.225 2.875 0 2.206 1.794 4 4 4s4-1.794 4-4-1.794-4-4-4c-0.113 0-0.219 0.025-0.331 0.031 3.813-2.144 6.331-5.831 6.331-10.031v-5c0-0.55 0.45-1 1-1h2.5c0.275 0 0.5-0.225 0.5-0.5v-1c0-0.275-0.225-0.5-0.5-0.5zM7.3 2.256c0.369-0.294 0.788-0.275 0.994-0.237 0.387 0.063 0.719 0.275 0.912 0.581l5.975 9.4h-13.144c0.288-3.762 2.169-7.269 5.263-9.744zM6 30c-1.1 0-2-0.9-2-2s0.9-2 2-2 2 0.9 2 2-0.9 2-2 2zM22 26c1.1 0 2 0.9 2 2s-0.9 2-2 2-2-0.9-2-2 0.9-2 2-2zM14 24c-6.619 0-12-4.488-12-10h24c0 5.512-5.381 10-12 10z"></path>
</svg>
