<!-- Generated by IcoMoon.io -->
<svg version="1.1" xmlns="http://www.w3.org/2000/svg" width="28" height="32" viewBox="0 0 28 32">
<title>backpack-solid</title>
<path d="M20 20h-12c-1.104 0-2 0.896-2 2v2h16v-2c0-1.104-0.896-2-2-2zM6 32h16v-6h-16v6zM20 5h-0.5v-1.5c0-1.93-1.57-3.5-3.5-3.5h-4c-1.93 0-3.5 1.57-3.5 3.5v1.5h-0.5c-4.418 0-8 3.582-8 8v15c0 2.209 1.791 4 4 4v-10c0-2.206 1.794-4 4-4h12c2.206 0 4 1.794 4 4v10c2.209 0 4-1.791 4-4v-15c0-4.418-3.582-8-8-8zM11.5 3.5c0-0.276 0.224-0.5 0.5-0.5h4c0.276 0 0.5 0.224 0.5 0.5v1.5h-5v-1.5zM20 12.5c0 0.276-0.224 0.5-0.5 0.5h-11c-0.276 0-0.5-0.224-0.5-0.5v-1c0-0.276 0.224-0.5 0.5-0.5h11c0.276 0 0.5 0.224 0.5 0.5v1z"></path>
</svg>
