<!-- Generated by IcoMoon.io -->
<svg version="1.1" xmlns="http://www.w3.org/2000/svg" width="40" height="32" viewBox="0 0 40 32">
<title>backspace</title>
<path d="M29.354 11.353l-0.707-0.707c-0.195-0.195-0.512-0.195-0.707 0l-3.94 3.939-3.939-3.939c-0.195-0.195-0.512-0.195-0.707 0l-0.707 0.707c-0.195 0.195-0.195 0.512 0 0.707l3.939 3.94-3.939 3.939c-0.195 0.195-0.195 0.512 0 0.707l0.707 0.707c0.195 0.195 0.512 0.195 0.707 0l3.939-3.939 3.939 3.939c0.195 0.195 0.512 0.195 0.707 0l0.707-0.707c0.195-0.195 0.195-0.512 0-0.707l-3.939-3.94 3.939-3.939c0.090-0.091 0.146-0.216 0.146-0.354s-0.056-0.263-0.146-0.354v0zM36 4h-23.171c-1.061 0-2.079 0.421-2.829 1.171l-9.414 9.414c-0.781 0.781-0.781 2.047 0 2.828l9.414 9.414c0.75 0.75 1.768 1.172 2.828 1.172h23.172c2.209 0 4-1.791 4-4v-16c0-2.209-1.791-4-4-4zM38 24c0 1.102-0.898 2-2 2h-23.171c-0.534 0-1.036-0.208-1.414-0.586l-9.414-9.414 9.414-9.414c0.377-0.378 0.88-0.586 1.414-0.586h23.171c1.102 0 2 0.897 2 2v16z"></path>
</svg>
