<!-- Generated by IcoMoon.io -->
<svg version="1.1" xmlns="http://www.w3.org/2000/svg" width="28" height="32" viewBox="0 0 28 32">
<title>backpack</title>
<path d="M20 4h-1v-1c0-1.654-1.346-3-3-3h-4c-1.654 0-3 1.346-3 3v1h-1c-4.418 0-8 3.582-8 8v16c0 2.209 1.791 4 4 4h20c2.209 0 4-1.791 4-4v-16c0-4.418-3.582-8-8-8zM11 3c0-0.552 0.449-1 1-1h4c0.551 0 1 0.448 1 1v1h-6v-1zM21 30h-14v-6h14v6zM21 22h-14v-2c0-1.104 0.896-2 2-2h10c1.104 0 2 0.896 2 2v2zM26 28c0 1.102-0.898 2-2 2h-1v-10c0-2.206-1.794-4-4-4h-10c-2.206 0-4 1.794-4 4v10h-1c-1.103 0-2-0.898-2-2v-16c0-3.309 2.691-6 6-6h12c3.309 0 6 2.691 6 6v16zM19.5 10h-11c-0.276 0-0.5 0.224-0.5 0.5v1c0 0.276 0.224 0.5 0.5 0.5h11c0.276 0 0.5-0.224 0.5-0.5v-1c0-0.276-0.224-0.5-0.5-0.5z"></path>
</svg>
