<!-- Generated by IcoMoon.io -->
<svg version="1.1" xmlns="http://www.w3.org/2000/svg" width="32" height="32" viewBox="0 0 32 32">
<title>backward</title>
<path d="M16.719 17.569l12 9.962c1.288 1.075 3.281 0.175 3.281-1.538v-19.994c0-1.713-1.994-2.612-3.281-1.537l-12 10.037c-0.956 0.8-0.956 2.275 0 3.069zM18 16.038l12-10.037v20l-12-9.962zM0.719 17.569l12 9.962c1.287 1.075 3.281 0.175 3.281-1.538v-19.994c0-1.713-1.994-2.612-3.281-1.537l-12 10.037c-0.956 0.8-0.956 2.275 0 3.069zM2 16.038l12-10.037v20l-12-9.962z"></path>
</svg>
