<!-- Generated by IcoMoon.io -->
<svg version="1.1" xmlns="http://www.w3.org/2000/svg" width="40" height="32" viewBox="0 0 40 32">
<title>backspace-solid</title>
<path d="M36 4h-23.171c-0 0-0.001 0-0.001 0-1.104 0-2.104 0.448-2.828 1.172l-9.414 9.414c-0.781 0.781-0.781 2.047 0 2.828l9.414 9.414c0.75 0.75 1.768 1.172 2.828 1.172h23.172c2.209 0 4-1.791 4-4v-16c0-2.209-1.791-4-4-4zM30.707 19.879c0.391 0.391 0.391 1.024 0 1.414l-1.414 1.414c-0.391 0.391-1.024 0.391-1.414 0l-3.879-3.879-3.879 3.879c-0.391 0.391-1.024 0.391-1.414 0l-1.414-1.414c-0.391-0.391-0.391-1.024 0-1.414l3.879-3.879-3.879-3.879c-0.391-0.391-0.391-1.024 0-1.414l1.414-1.414c0.391-0.391 1.024-0.391 1.414 0l3.879 3.879 3.879-3.879c0.391-0.391 1.024-0.391 1.414 0l1.414 1.414c0.391 0.391 0.391 1.024 0 1.414l-3.879 3.879 3.879 3.879z"></path>
</svg>
