<!-- Generated by IcoMoon.io -->
<svg version="1.1" xmlns="http://www.w3.org/2000/svg" width="36" height="32" viewBox="0 0 36 32">
<title>bacon-solid</title>
<path d="M13.682 21.024c2.181-2.181 2.763-3.731 3.378-5.375 0.663-1.768 1.349-3.596 3.836-6.084s4.316-3.173 6.084-3.836c1.492-0.563 2.915-1.105 4.799-2.836l-2.354-2.337c-0.349-0.344-0.829-0.557-1.359-0.557-0.434 0-0.834 0.143-1.157 0.383l0.005-0.004c-0.852 0.631-1.572 0.899-2.563 1.269-8.914 3.321-11.273 10.307-11.811 11.732-1.859 4.927-5.597 5.917-6.17 6.131-1.554 0.579-3.421 1.274-5.692 3.148-0.866 0.716-0.906 2.028-0.112 2.816l2.235 2.219c2.198-2.038 3.886-2.686 5.511-3.296 1.642-0.615 3.191-1.195 5.37-3.375zM35.432 6.524l-2.234-2.219c-2.199 2.039-3.886 2.688-5.516 3.299-1.641 0.616-3.191 1.197-5.372 3.375s-2.762 3.731-3.375 5.375c-0.665 1.771-1.352 3.597-3.839 6.083s-4.313 3.171-6.081 3.832c-1.491 0.563-2.913 1.104-4.795 2.833l2.355 2.339c0.349 0.344 0.829 0.556 1.359 0.556 0.434 0 0.835-0.143 1.158-0.384l-0.005 0.004c0.85-0.629 1.568-0.896 2.559-1.265 8.888-3.313 11.25-10.256 11.809-11.731 1.858-4.924 5.596-5.917 6.171-6.132 1.554-0.579 3.421-1.275 5.694-3.151 0.868-0.713 0.907-2.028 0.114-2.816z"></path>
</svg>
