<!-- Generated by IcoMoon.io -->
<svg version="1.1" xmlns="http://www.w3.org/2000/svg" width="36" height="32" viewBox="0 0 36 32">
<title>bacon</title>
<path d="M35.433 6.525l-6.008-5.968c-0.349-0.344-0.829-0.557-1.359-0.557-0.434 0-0.834 0.143-1.157 0.383l0.005-0.004c-0.852 0.631-1.572 0.899-2.563 1.269-8.914 3.321-11.273 10.307-11.811 11.733-1.859 4.926-5.597 5.917-6.17 6.13-1.554 0.579-3.421 1.274-5.692 3.148-0.866 0.716-0.906 2.028-0.112 2.816l6.009 5.968c0.347 0.344 0.825 0.556 1.352 0.556 0.002 0 0.004 0 0.005 0h-0c0 0 0.001 0 0.001 0 0.434 0 0.835-0.143 1.159-0.384l-0.005 0.004c0.85-0.629 1.568-0.896 2.559-1.265 8.888-3.313 11.25-10.256 11.809-11.731 1.858-4.926 5.596-5.918 6.171-6.133 1.554-0.579 3.421-1.275 5.694-3.151 0.868-0.713 0.907-2.028 0.114-2.816zM2.027 24.141c1.977-1.613 3.605-2.219 5.129-2.784 4.279-1.456 6.308-4.756 7.256-7.268l0.058-0.156c1.854-4.982 5.413-8.485 10.579-10.409 1.046-0.39 1.951-0.727 3.012-1.5l2.159 2.132c-1.169 0.799-2.188 1.188-3.239 1.58-1.768 0.662-3.598 1.349-6.084 3.836s-3.174 4.313-3.834 6.082c-0.617 1.642-1.197 3.191-3.375 5.372s-3.729 2.76-5.369 3.375c-1.229 0.461-2.491 0.946-3.978 2.023zM28.839 10.647c-4.283 1.459-6.313 4.76-7.259 7.271l-0.055 0.148c-1.861 4.989-5.421 8.493-10.582 10.416-1.058 0.394-1.972 0.734-2.961 1.543l-2.202-2.177c1.167-0.796 2.183-1.182 3.235-1.576 1.768-0.663 3.596-1.348 6.082-3.833s3.172-4.313 3.834-6.084c0.617-1.641 1.197-3.191 3.379-5.375s3.731-2.762 5.375-3.375c1.228-0.461 2.491-0.947 3.979-2.026l2.313 2.282c-1.984 1.616-3.612 2.222-5.136 2.787z"></path>
</svg>
