<!-- Generated by IcoMoon.io -->
<svg version="1.1" xmlns="http://www.w3.org/2000/svg" width="32" height="32" viewBox="0 0 32 32">
<title>bacterium-solid</title>
<path d="M31.938 6.433c-0.19-0.617-0.754-1.057-1.422-1.057-0.151 0-0.297 0.023-0.434 0.064l0.011-0.003-0.945 0.28c-0.691-1.282-1.73-2.3-2.992-2.945l-0.039-0.018 0.237-0.904c0.030-0.112 0.047-0.24 0.047-0.372 0-0.82-0.665-1.485-1.485-1.485-0.688 0-1.266 0.468-1.435 1.102l-0.002 0.010-0.235 0.898c-0.072-0.003-0.156-0.004-0.241-0.004-0.408 0-0.808 0.035-1.197 0.102l0.042-0.006c-1.099 0.192-2.032 0.418-2.942 0.696l0.171-0.045-0.269-0.75c-0.216-0.569-0.757-0.966-1.391-0.966-0.819 0-1.484 0.664-1.484 1.484 0 0.169 0.028 0.332 0.081 0.484l-0.003-0.010 0.269 0.753c-1.415 0.62-2.619 1.285-3.755 2.044l0.087-0.055-0.5-0.664c-0.275-0.362-0.706-0.593-1.19-0.593-0.334 0-0.643 0.11-0.891 0.296l0.004-0.003c-0.364 0.271-0.597 0.7-0.597 1.184 0 0.333 0.111 0.641 0.297 0.888l-0.003-0.004 0.5 0.664c-1.063 0.912-2.018 1.881-2.887 2.926l-0.032 0.039-0.688-0.5c-0.248-0.195-0.566-0.313-0.911-0.313-0.817 0-1.48 0.663-1.48 1.48 0 0.504 0.252 0.949 0.636 1.216l0.005 0.003 0.693 0.504c-0.685 1.047-1.331 2.253-1.873 3.516l-0.060 0.156-0.808-0.277c-0.151-0.057-0.327-0.091-0.509-0.091-0.816 0-1.478 0.662-1.478 1.478 0 0.653 0.423 1.207 1.010 1.403l0.010 0.003 0.813 0.28c-0.203 0.664-0.404 1.518-0.56 2.387l-0.022 0.146c-0.053 0.324-0.084 0.696-0.084 1.076 0 0.179 0.007 0.356 0.020 0.532l-0.001-0.023-0.965 0.285c-0.615 0.188-1.055 0.75-1.055 1.416 0 0.816 0.662 1.478 1.478 1.478 0.151 0 0.296-0.023 0.433-0.064l-0.010 0.003 0.938-0.277c0.692 1.279 1.732 2.293 2.993 2.934l0.040 0.018-0.241 0.922c-0.030 0.111-0.047 0.238-0.047 0.37 0 0.686 0.466 1.262 1.099 1.43l0.010 0.002c0.112 0.030 0.242 0.047 0.375 0.047h0c0.001 0 0.002 0 0.003 0 0.685 0 1.262-0.465 1.432-1.096l0.002-0.010 0.238-0.914c0.086 0.003 0.173 0.022 0.258 0.022 1.418-0.008 2.734-0.439 3.829-1.173l-0.025 0.016 0.716 0.734c0.268 0.266 0.637 0.431 1.044 0.431 0.818 0 1.481-0.663 1.481-1.481 0-0.39-0.15-0.744-0.396-1.008l0.001 0.001-0.762-0.781c0.483-0.739 0.836-1.61 1.001-2.546l0.006-0.042c0.091-0.507 0.203-0.942 0.343-1.364l-0.020 0.070 0.75 0.352c0.19 0.096 0.415 0.152 0.652 0.152 0.817 0 1.479-0.662 1.479-1.479 0-0.596-0.352-1.109-0.86-1.343l-0.009-0.004-0.733-0.343c0.056-0.082 0.099-0.173 0.157-0.254 0.219-0.289 0.433-0.544 0.659-0.787l-0.005 0.006c0.305-0.342 0.623-0.654 0.961-0.944l0.013-0.011c0.246-0.216 0.516-0.43 0.796-0.629l0.031-0.021c0.094-0.063 0.194-0.118 0.289-0.179l0.327 0.738c0.235 0.527 0.755 0.888 1.359 0.888 0.82 0 1.484-0.664 1.484-1.484 0-0.216-0.046-0.421-0.129-0.606l0.004 0.009-0.335-0.757c0.268-0.087 0.614-0.176 0.968-0.246l0.063-0.010c1.068-0.187 2.017-0.594 2.834-1.173l-0.022 0.015 0.833 0.75c0.267 0.264 0.634 0.426 1.040 0.426 0.818 0 1.481-0.663 1.481-1.481 0-0.454-0.204-0.86-0.526-1.131l-0.002-0.002-0.809-0.729c0.621-1.018 0.989-2.249 0.989-3.567 0-0.158-0.005-0.315-0.016-0.47l0.001 0.021 0.987-0.293c0.618-0.185 1.061-0.749 1.061-1.416 0-0.15-0.022-0.295-0.064-0.431l0.003 0.010zM10 23c-1.657 0-3-1.343-3-3s1.343-3 3-3c1.657 0 3 1.343 3 3v0c0 1.657-1.343 3-3 3v0zM15 14.5c-0.828 0-1.5-0.672-1.5-1.5s0.672-1.5 1.5-1.5c0.828 0 1.5 0.672 1.5 1.5v0c0 0.828-0.672 1.5-1.5 1.5v0z"></path>
</svg>
