<!-- Generated by IcoMoon.io -->
<svg version="1.1" xmlns="http://www.w3.org/2000/svg" width="32" height="32" viewBox="0 0 32 32">
<title>bacterium</title>
<path d="M31.957 6.271c-0.132-0.421-0.518-0.721-0.975-0.721-0.104 0-0.204 0.016-0.299 0.044l0.007-0.002-1.398 0.414c-1.131-2.475-3.419-3.364-3.462-3.385l0.356-1.359c0.020-0.076 0.032-0.163 0.032-0.252 0-0.468-0.319-0.862-0.751-0.975l-0.007-0.002c-0.078-0.021-0.167-0.033-0.259-0.033v0c-0.001 0-0.002 0-0.003 0-0.467 0-0.861 0.316-0.978 0.747l-0.002 0.007-0.346 1.329c-0.291-0.048-0.63-0.078-0.975-0.083l-0.005-0c-0.371 0.002-0.732 0.036-1.083 0.099l0.038-0.006c-1.191 0.207-2.214 0.459-3.208 0.775l0.171-0.047-0.395-1.107c-0.146-0.395-0.518-0.671-0.955-0.673h-0c-0.122 0.001-0.239 0.024-0.347 0.065l0.007-0.002c-0.399 0.14-0.679 0.514-0.679 0.952 0 0.12 0.021 0.235 0.060 0.342l-0.002-0.007 0.394 1.1c-1.767 0.714-3.286 1.54-4.696 2.514l0.080-0.052-0.701-0.933c-0.189-0.248-0.484-0.407-0.817-0.407-0.229 0-0.44 0.075-0.61 0.202l0.003-0.002c-0.211 0.156-0.356 0.389-0.396 0.657l-0.001 0.005c-0.007 0.045-0.011 0.097-0.011 0.15 0 0.226 0.075 0.435 0.201 0.602l-0.002-0.003 0.703 0.938c-1.363 1.115-2.567 2.333-3.631 3.668l-0.037 0.049-0.958-0.697c-0.166-0.123-0.375-0.196-0.601-0.196-0.336 0-0.634 0.163-0.819 0.413l-0.002 0.003c-0.122 0.164-0.196 0.371-0.196 0.594 0 0.333 0.163 0.629 0.414 0.81l0.003 0.002 0.972 0.707c-0.897 1.33-1.701 2.854-2.335 4.463l-0.056 0.162-1.165-0.401c-0.099-0.035-0.213-0.056-0.332-0.056-0.441 0-0.817 0.281-0.958 0.674l-0.002 0.007c-0.035 0.098-0.056 0.211-0.056 0.328 0 0.16 0.038 0.311 0.105 0.444l-0.003-0.006c0.119 0.241 0.325 0.425 0.575 0.512l0.007 0.002 1.181 0.406c-0.237 0.747-0.465 1.688-0.637 2.649l-0.022 0.146c-0.125 0.755-0.093 1.492 0.017 2.209l-1.386 0.411c-0.424 0.125-0.728 0.51-0.728 0.967 0 0.101 0.015 0.199 0.043 0.291l-0.002-0.007c0.14 0.421 0.531 0.72 0.991 0.721h0c0 0 0.001 0 0.001 0 0.096 0 0.189-0.014 0.277-0.041l-0.007 0.002 1.378-0.407c0.733 1.507 1.944 2.686 3.434 3.357l0.044 0.018-0.359 1.37c-0.021 0.076-0.033 0.163-0.033 0.252 0 0.188 0.053 0.365 0.144 0.515l-0.002-0.004c0.136 0.229 0.354 0.398 0.614 0.465l0.007 0.002c0.072 0.019 0.155 0.030 0.241 0.030h0c0.472-0.001 0.87-0.316 0.998-0.746l0.002-0.007 0.345-1.32c0.263 0.042 0.572 0.070 0.887 0.077l0.008 0c1.471-0.009 2.832-0.473 3.951-1.26l-0.022 0.015 0.88 0.903c0.188 0.183 0.446 0.296 0.729 0.296 0.274 0 0.523-0.105 0.709-0.277l-0.001 0.001c0.19-0.182 0.309-0.439 0.309-0.723 0-0.274-0.11-0.522-0.289-0.703l0 0-0.838-0.862c0.734-0.895 1.252-1.994 1.46-3.2l0.006-0.041c0.105-0.615 0.247-1.153 0.431-1.673l-0.022 0.070 0.914 0.428c0.12 0.057 0.261 0.090 0.409 0.090 0.001 0 0.003 0 0.004 0h-0c0.001 0 0.002 0 0.004 0 0.406 0 0.758-0.231 0.931-0.569l0.003-0.006c0.061-0.125 0.096-0.272 0.096-0.427 0-0.122-0.022-0.239-0.062-0.347l0.002 0.007c-0.093-0.256-0.28-0.459-0.518-0.571l-0.006-0.003-0.915-0.429c0.92-1.548 2.196-2.797 3.719-3.658l0.050-0.026 0.413 0.934c0.171 0.355 0.528 0.596 0.941 0.596 0.005 0 0.010-0 0.016-0h-0.001c0.002 0 0.004 0 0.006 0 0.421 0 0.781-0.263 0.924-0.634l0.002-0.007c0.043-0.108 0.068-0.232 0.068-0.363 0-0.147-0.032-0.287-0.089-0.413l0.003 0.006-0.408-0.921c0.365-0.124 0.814-0.239 1.274-0.323l0.061-0.009c1.334-0.232 2.504-0.817 3.445-1.653l-0.007 0.006 0.933 0.841c0.177 0.155 0.41 0.25 0.665 0.25 0.005 0 0.010-0 0.015-0h-0.001c0.004 0 0.008 0 0.013 0 0.293 0 0.558-0.124 0.744-0.321l0-0.001c0.163-0.178 0.263-0.416 0.263-0.677 0-0.296-0.128-0.562-0.332-0.746l-0.001-0.001-0.988-0.891c0.683-1.056 1.089-2.347 1.089-3.733 0-0.371-0.029-0.735-0.085-1.090l0.005 0.039 1.364-0.403c0.263-0.079 0.476-0.254 0.602-0.485l0.003-0.005c0.076-0.137 0.121-0.301 0.121-0.475 0-0.103-0.016-0.202-0.044-0.295l0.002 0.007zM23.822 13.929c-5.009 0.835-9.055 4.883-9.89 9.891-0.513 3.081-3.845 5.109-6.957 3.723-1.095-0.492-1.961-1.332-2.473-2.378l-0.013-0.029c-2.044-4.301 3.811-18.761 17.692-21.074 0.656-0.111 3.921-0.231 5.293 2.772 2.114 4.628-2.264 6.863-3.653 7.094zM10 17c-1.657 0-3 1.343-3 3s1.343 3 3 3c1.657 0 3-1.343 3-3v0c0-1.657-1.343-3-3-3v0zM10 21c-0.552 0-1-0.448-1-1s0.448-1 1-1c0.552 0 1 0.448 1 1v0c0 0.552-0.448 1-1 1v0zM15 11.5c-0.828 0-1.5 0.672-1.5 1.5s0.672 1.5 1.5 1.5c0.828 0 1.5-0.672 1.5-1.5v0c0-0.828-0.672-1.5-1.5-1.5v0z"></path>
</svg>
