<!-- Generated by IcoMoon.io -->
<svg version="1.1" xmlns="http://www.w3.org/2000/svg" width="40" height="32" viewBox="0 0 40 32">
<title>bacteria-solid</title>
<path d="M17.022 14.15c0.394-0.175 0.664-0.563 0.664-1.014 0-0.162-0.035-0.316-0.098-0.455l0.003 0.007-0.25-0.568c0.2-0.065 0.46-0.132 0.724-0.184l0.048-0.008c0.801-0.139 1.512-0.443 2.126-0.876l-0.016 0.011 0.625 0.563c0.197 0.179 0.459 0.289 0.747 0.289 0.613 0 1.11-0.497 1.11-1.11 0-0.325-0.14-0.617-0.362-0.82l-0.608-0.548c0.464-0.762 0.739-1.685 0.739-2.671 0-0.12-0.004-0.238-0.012-0.356l0.001 0.016 0.741-0.219c0.462-0.141 0.792-0.563 0.792-1.063 0-0.612-0.496-1.109-1.109-1.109-0.113 0-0.222 0.017-0.325 0.048l0.008-0.002-0.709 0.21c-0.519-0.961-1.298-1.725-2.244-2.209l-0.030-0.014 0.177-0.678c0.023-0.084 0.036-0.18 0.036-0.279 0-0.615-0.498-1.113-1.113-1.113-0.515 0-0.949 0.35-1.075 0.826l-0.002 0.008-0.176 0.674c-0.055-0.002-0.119-0.003-0.184-0.003-0.305 0-0.603 0.026-0.894 0.076l0.031-0.004c-0.711 0.114-1.388 0.316-2.069 0.514l-0.211-0.591c-0.158-0.435-0.567-0.741-1.049-0.741-0.614 0-1.113 0.498-1.113 1.113 0 0.133 0.023 0.261 0.066 0.379l-0.002-0.008 0.218 0.613c-1.060 0.459-1.962 0.951-2.813 1.515l0.067-0.041-0.395-0.527c-0.206-0.271-0.529-0.445-0.893-0.445-0.251 0-0.482 0.083-0.669 0.222l0.003-0.002c-0.273 0.204-0.447 0.526-0.447 0.888 0 0.25 0.083 0.482 0.224 0.667l-0.002-0.003 0.403 0.538c-0.796 0.679-1.511 1.401-2.161 2.18l-0.023 0.028-0.551-0.401c-0.182-0.134-0.41-0.214-0.657-0.214-0.368 0-0.694 0.178-0.897 0.452l-0.002 0.003c-0.134 0.181-0.214 0.408-0.214 0.654 0 0.367 0.179 0.691 0.454 0.892l0.003 0.002 0.555 0.404c-0.509 0.782-0.99 1.684-1.393 2.627l-0.044 0.117-0.655-0.224c-0.108-0.039-0.232-0.061-0.362-0.061-0.612 0-1.108 0.496-1.108 1.108 0 0.482 0.308 0.893 0.738 1.045l0.008 0.002 0.647 0.221c-0.174 0.625-0.362 1.24-0.47 1.889-0.041 0.245-0.065 0.528-0.065 0.816 0 0.131 0.005 0.26 0.014 0.388l-0.001-0.017-0.724 0.214c-0.462 0.141-0.792 0.563-0.792 1.063 0 0.612 0.496 1.109 1.109 1.109 0.113 0 0.222-0.017 0.324-0.048l-0.008 0.002 0.704-0.208c0.518 0.959 1.298 1.72 2.245 2.201l0.030 0.014-0.18 0.691c-0.020 0.078-0.031 0.168-0.031 0.261 0 0.615 0.498 1.113 1.113 1.113 0.509 0 0.939-0.342 1.071-0.809l0.002-0.008 0.179-0.688c0.063 0 0.129 0.016 0.194 0.016 1.063-0.006 2.050-0.329 2.872-0.879l-0.019 0.012 0.537 0.55c0.202 0.209 0.485 0.339 0.799 0.339 0.613 0 1.111-0.497 1.111-1.111 0-0.3-0.119-0.572-0.312-0.772l0 0-0.571-0.586c0.362-0.555 0.626-1.208 0.75-1.909l0.005-0.031c0.069-0.38 0.152-0.706 0.257-1.023l-0.015 0.053 0.563 0.264c0.139 0.067 0.301 0.106 0.473 0.106 0.612 0 1.109-0.497 1.109-1.109 0-0.44-0.257-0.821-0.629-1l-0.007-0.003-0.55-0.257c0.042-0.063 0.075-0.13 0.119-0.191 0.165-0.218 0.326-0.41 0.496-0.593l-0.004 0.005c0.228-0.255 0.466-0.487 0.718-0.704l0.010-0.008c0.185-0.163 0.388-0.323 0.598-0.473l0.023-0.016c0.070-0.048 0.145-0.089 0.217-0.134l0.245 0.553c0.179 0.393 0.568 0.661 1.019 0.661 0 0 0 0 0.001 0h-0c0.001 0 0.001 0 0.002 0 0.162 0 0.316-0.034 0.456-0.095l-0.007 0.003zM8 16c-1.105 0-2-0.895-2-2s0.895-2 2-2c1.105 0 2 0.895 2 2v0c0 1.105-0.895 2-2 2v0zM13 10c-0.552 0-1-0.448-1-1s0.448-1 1-1c0.552 0 1 0.448 1 1v0c0 0.552-0.448 1-1 1v0zM39.954 12.831c-0.142-0.463-0.565-0.793-1.065-0.793-0 0-0.001 0-0.001 0h0c-0.001 0-0.002 0-0.002 0-0.112 0-0.221 0.017-0.323 0.048l0.008-0.002-0.704 0.208c-0.519-0.959-1.299-1.72-2.245-2.201l-0.030-0.014 0.18-0.691c0.019-0.077 0.030-0.165 0.030-0.257 0-0.615-0.498-1.113-1.113-1.113-0.508 0-0.936 0.34-1.070 0.805l-0.002 0.008-0.179 0.688c-0.063 0-0.129-0.016-0.194-0.016-1.064 0.005-2.050 0.329-2.872 0.88l0.019-0.012-0.537-0.551c-0.202-0.209-0.485-0.339-0.799-0.339-0.613 0-1.111 0.497-1.111 1.111 0 0.3 0.119 0.572 0.312 0.772l-0-0 0.571 0.586c-0.363 0.555-0.627 1.208-0.75 1.91l-0.005 0.031c-0.069 0.38-0.152 0.706-0.257 1.023l0.015-0.053-0.563-0.264c-0.139-0.067-0.301-0.106-0.473-0.106-0.612 0-1.109 0.496-1.109 1.109 0 0.44 0.257 0.821 0.629 1l0.007 0.003 0.55 0.257c-0.042 0.063-0.075 0.13-0.118 0.191-0.166 0.219-0.328 0.412-0.5 0.596l0.004-0.004c-0.226 0.253-0.462 0.485-0.713 0.7l-0.010 0.008c-0.186 0.163-0.39 0.323-0.601 0.474l-0.024 0.016c-0.070 0.048-0.145 0.089-0.217 0.134l-0.245-0.553c-0.179-0.393-0.568-0.661-1.019-0.661-0 0-0 0-0.001 0h0c-0.162 0-0.317 0.035-0.456 0.097l0.007-0.003c-0.394 0.175-0.663 0.563-0.663 1.014 0 0.162 0.035 0.315 0.097 0.454l-0.003-0.007 0.25 0.567c-0.201 0.066-0.461 0.132-0.725 0.185l-0.047 0.008c-0.801 0.14-1.513 0.445-2.127 0.88l0.016-0.011-0.625-0.563c-0.198-0.186-0.466-0.301-0.76-0.301-0.613 0-1.111 0.497-1.111 1.111 0 0.331 0.145 0.628 0.374 0.831l0.001 0.001 0.608 0.547c-0.464 0.762-0.739 1.685-0.739 2.671 0 0.12 0.004 0.238 0.012 0.356l-0.001-0.016-0.741 0.219c-0.462 0.141-0.791 0.563-0.791 1.063 0 0.612 0.496 1.109 1.109 1.109 0.113 0 0.222-0.017 0.325-0.049l-0.008 0.002 0.709-0.21c0.519 0.962 1.299 1.725 2.246 2.21l0.030 0.014-0.177 0.678c-0.023 0.084-0.036 0.18-0.036 0.279 0 0.615 0.498 1.113 1.113 1.113 0.515 0 0.949-0.35 1.075-0.826l0.002-0.008 0.176-0.674c0.055 0.002 0.119 0.003 0.183 0.003 0.305 0 0.603-0.026 0.894-0.076l-0.031 0.004c0.711-0.118 1.39-0.317 2.069-0.515l0.211 0.591c0.158 0.435 0.567 0.741 1.049 0.741 0.614 0 1.113-0.498 1.113-1.113 0-0.133-0.023-0.261-0.066-0.379l0.002 0.008-0.218-0.612c1.060-0.459 1.962-0.952 2.813-1.515l-0.067 0.042 0.395 0.527c0.206 0.271 0.529 0.445 0.892 0.445 0.251 0 0.482-0.083 0.669-0.222l-0.003 0.002c0.274-0.203 0.45-0.526 0.45-0.889 0-0.251-0.084-0.483-0.225-0.669l0.002 0.003-0.403-0.538c0.796-0.679 1.511-1.402 2.161-2.18l0.023-0.029 0.551 0.401c0.186 0.146 0.423 0.234 0.681 0.234 0.613 0 1.11-0.497 1.11-1.11 0-0.377-0.188-0.71-0.475-0.911l-0.004-0.002-0.555-0.404c0.509-0.782 0.99-1.684 1.393-2.628l0.044-0.117 0.655 0.224c0.108 0.039 0.232 0.061 0.362 0.061 0.612 0 1.108-0.496 1.108-1.108 0-0.482-0.308-0.893-0.738-1.045l-0.008-0.002-0.646-0.221c0.174-0.625 0.362-1.24 0.47-1.888 0.041-0.246 0.065-0.529 0.065-0.818 0-0.131-0.005-0.261-0.014-0.39l0.001 0.017 0.724-0.214c0.464-0.139 0.796-0.561 0.796-1.062 0-0.112-0.017-0.22-0.047-0.322l0.002 0.008zM26 26c-1.105 0-2-0.895-2-2s0.895-2 2-2c1.105 0 2 0.895 2 2v0c0 1.105-0.895 2-2 2v0z"></path>
</svg>
