<!-- Generated by IcoMoon.io -->
<svg version="1.1" xmlns="http://www.w3.org/2000/svg" width="36" height="32" viewBox="0 0 36 32">
<title>bags-shopping</title>
<path d="M34 16h-20c-1.105 0-2 0.895-2 2v0 12c0 1.105 0.895 2 2 2v0h20c1.105 0 2-0.895 2-2v0-12c0-1.105-0.895-2-2-2v0zM34 30h-20v-12h20zM23.211 27.949c0.235 0.033 0.506 0.051 0.782 0.051 3.315 0 6.003-2.686 6.008-6v-1.5c0-0.276-0.224-0.5-0.5-0.5v0h-1c-0.276 0-0.5 0.224-0.5 0.5v0 1.5c-0.002 2.21-1.794 4-4.004 4-0.139 0-0.276-0.007-0.411-0.021l0.017 0.001c-2.078-0.202-3.601-2.070-3.601-4.158v-1.323c0-0.276-0.224-0.5-0.5-0.5v0h-1c-0.276 0-0.5 0.224-0.5 0.5v0 1.291c0 3.049 2.188 5.771 5.211 6.158zM2 12h24v2h2v-2c0-1.105-0.895-2-2-2v0h-6v-4c0-3.314-2.686-6-6-6s-6 2.686-6 6v0 4h-6c-1.105 0-2 0.895-2 2v0 16c0 1.105 0.895 2 2 2v0h8v-2h-8zM10 6c0-2.209 1.791-4 4-4s4 1.791 4 4v0 4h-8z"></path>
</svg>
