<!-- Generated by IcoMoon.io -->
<svg version="1.1" xmlns="http://www.w3.org/2000/svg" width="36" height="32" viewBox="0 0 36 32">
<title>bags-shopping-solid</title>
<path d="M28 14v-2c0-1.105-0.895-2-2-2v0h-6v-4c0-3.314-2.686-6-6-6s-6 2.686-6 6v0 4h-6c-1.105 0-2 0.895-2 2v0 16c0 1.105 0.895 2 2 2v0h8v-14c0-1.105 0.895-2 2-2v0zM11 6c0-1.657 1.343-3 3-3s3 1.343 3 3v0 4h-6zM34 16h-20c-1.105 0-2 0.895-2 2v0 12c0 1.105 0.895 2 2 2v0h20c1.105 0 2-0.895 2-2v0-12c0-1.105-0.895-2-2-2v0zM30 22c-0.004 3.315-2.692 6-6.008 6-0.276 0-0.547-0.019-0.813-0.055l0.031 0.003c-3.023-0.387-5.211-3.109-5.211-6.158v-1.291c0-0.276 0.224-0.5 0.5-0.5v0h1c0.276 0 0.5 0.224 0.5 0.5v0 1.323c0 2.088 1.523 3.956 3.601 4.158 0.118 0.012 0.256 0.019 0.394 0.019 2.21 0 4.002-1.79 4.004-4v-1.5c0-0.276 0.224-0.5 0.5-0.5v0h1c0.276 0 0.5 0.224 0.5 0.5v0z"></path>
</svg>
