<!-- Generated by IcoMoon.io -->
<svg version="1.1" xmlns="http://www.w3.org/2000/svg" width="32" height="32" viewBox="0 0 32 32">
<title>bahai-solid</title>
<path d="M31.016 12.658l-6.875-0.965 2.614-6.521c0.417-1.040-0.725-2.011-1.662-1.414l-5.878 3.743-2.131-6.699c-0.169-0.534-0.627-0.801-1.084-0.801s-0.915 0.267-1.084 0.801l-2.131 6.699-5.878-3.743c-0.937-0.597-2.078 0.374-1.662 1.414l2.614 6.521-6.875 0.964c-1.096 0.154-1.355 1.642-0.377 2.167l6.135 3.291-4.655 5.221c-0.683 0.766-0.107 1.933 0.831 1.933 0.082 0 0.167-0.009 0.254-0.028l6.786-1.478-0.257 7.034c-0.027 0.728 0.554 1.201 1.151 1.201 0.322 0 0.649-0.138 0.887-0.449l4.261-5.556 4.261 5.556c0.238 0.311 0.565 0.449 0.887 0.449 0.596 0 1.177-0.473 1.151-1.201l-0.257-7.034 6.786 1.478c1.085 0.235 1.826-1.075 1.084-1.906l-4.655-5.221 6.135-3.291c0.977-0.524 0.719-2.013-0.378-2.166zM21.157 19.48l-3.243-0.706 0.123 3.362-2.037-2.656-2.037 2.656 0.123-3.362-3.243 0.706 2.225-2.496-2.932-1.573 3.286-0.461-1.249-3.117 2.809 1.789 1.019-3.202 1.018 3.202 2.809-1.789-1.249 3.117 3.286 0.461-2.933 1.573 2.226 2.496z"></path>
</svg>
