<!-- Generated by IcoMoon.io -->
<svg version="1.1" xmlns="http://www.w3.org/2000/svg" width="32" height="32" viewBox="0 0 32 32">
<title>bahai</title>
<path d="M31.016 12.658l-6.875-0.965 2.614-6.521c0.329-0.819-0.311-1.597-1.056-1.597-0.2 0-0.407 0.056-0.606 0.183l-5.878 3.743-2.131-6.699c-0.169-0.534-0.627-0.801-1.084-0.801s-0.915 0.267-1.084 0.801l-2.131 6.699-5.878-3.743c-0.199-0.126-0.406-0.183-0.606-0.183-0.744 0-1.384 0.777-1.056 1.597l2.614 6.521-6.875 0.965c-1.096 0.154-1.354 1.642-0.377 2.167l6.135 3.291-4.656 5.221c-0.683 0.766-0.107 1.933 0.83 1.933 0.083 0 0.167-0.009 0.254-0.028l6.786-1.478-0.257 7.034c-0.027 0.728 0.554 1.201 1.151 1.201 0.322 0 0.649-0.138 0.887-0.449l4.261-5.556 4.261 5.556c0.238 0.311 0.565 0.449 0.887 0.449 0.597 0 1.177-0.473 1.151-1.201l-0.257-7.034 6.786 1.478c0.087 0.019 0.172 0.028 0.254 0.028 0.938 0 1.512-1.168 0.83-1.933l-4.655-5.221 6.135-3.291c0.978-0.525 0.719-2.013-0.377-2.167zM24.336 16.348l-2.241 1.203 4.624 5.187-6.741-1.469 0.255 6.989-4.233-5.52-4.233 5.52 0.255-6.989-6.741 1.469 4.624-5.187-6.095-3.271 6.831-0.959-2.596-6.479 5.839 3.718 2.116-6.655 2.117 6.656 5.839-3.718-2.596 6.479 6.831 0.959-3.855 2.067z"></path>
</svg>
