<!-- Generated by IcoMoon.io -->
<svg version="1.1" xmlns="http://www.w3.org/2000/svg" width="40" height="32" viewBox="0 0 40 32">
<title>balance-scale-solid</title>
<path d="M16 21h-0.001c0-1.011 0.084-0.546-5.316-11.344-1.103-2.206-4.262-2.21-5.367 0-5.445 10.891-5.315 10.365-5.315 11.344h-0.001c0 2.761 3.582 5 8 5s8-2.239 8-5zM8 11l4.5 9h-9l4.5-9zM39.999 21c0-1.011 0.084-0.546-5.316-11.344-1.103-2.206-4.262-2.21-5.367 0-5.445 10.891-5.315 10.365-5.315 11.344h-0.001c0 2.761 3.582 5 8 5s8-2.239 8-5h-0.001zM27.5 20l4.5-9 4.5 9h-9zM33 28h-11v-18.422c1.469-0.643 2.572-1.968 2.899-3.578h8.101c0.553 0 1-0.447 1-1v-2c0-0.553-0.447-1-1-1h-9.023c-0.913-1.208-2.347-2-3.977-2s-3.065 0.792-3.977 2h-9.023c-0.553 0-1 0.447-1 1v2c0 0.553 0.447 1 1 1h8.101c0.327 1.61 1.429 2.935 2.899 3.578v18.422h-11c-0.553 0-1 0.448-1 1v2c0 0.552 0.447 1 1 1h26c0.553 0 1-0.448 1-1v-2c0-0.552-0.447-1-1-1z"></path>
</svg>
