<!-- Generated by IcoMoon.io -->
<svg version="1.1" xmlns="http://www.w3.org/2000/svg" width="40" height="32" viewBox="0 0 40 32">
<title>balance-scale-right</title>
<path d="M39.65 23.443l-6.816-10.998c-0.198-0.297-0.516-0.445-0.834-0.445s-0.636 0.149-0.834 0.445l-6.816 10.998c-0.242 0.361-0.381 0.795-0.344 1.227 0.342 4.104 3.791 7.329 7.994 7.329s7.653-3.225 7.994-7.329c0.036-0.433-0.102-0.866-0.344-1.227zM31.997 14.89l5.644 9.11h-11.328l5.684-9.11zM32 30c-2.58 0-4.813-1.673-5.651-4h11.325c-0.827 2.304-3.075 4-5.674 4zM33.118 10.174l0.318-0.948c0.087-0.262-0.054-0.545-0.316-0.633l-9.404-3.147c0.179-0.448 0.284-0.934 0.284-1.447 0-2.209-1.791-4-4-4-1.832 0-3.361 1.239-3.834 2.921l-8.651-2.894c-0.262-0.087-0.545 0.054-0.633 0.316l-0.317 0.948c-0.088 0.262 0.054 0.545 0.316 0.632l9.268 3.101c0.369 1.389 1.458 2.474 2.851 2.835v22.141h-12.5c-0.276 0-0.5 0.224-0.5 0.5v1c0 0.276 0.224 0.5 0.5 0.5h14c0.276 0 0.5-0.224 0.5-0.5v-23.641c0.54-0.14 1.031-0.389 1.457-0.724l10.028 3.355c0.261 0.088 0.544-0.054 0.633-0.316zM20 6c-1.102 0-2-0.897-2-2s0.898-2 2-2 2 0.897 2 2-0.898 2-2 2zM15.994 16.671c0.036-0.433-0.102-0.866-0.344-1.227l-6.816-10.998c-0.198-0.296-0.516-0.445-0.834-0.445s-0.636 0.149-0.834 0.445l-6.816 10.998c-0.242 0.361-0.381 0.795-0.344 1.227 0.342 4.104 3.791 7.329 7.994 7.329s7.652-3.225 7.994-7.329zM7.997 6.89l5.644 9.11h-11.328l5.684-9.11zM2.349 18h11.325c-0.827 2.304-3.075 4-5.674 4-2.58 0-4.813-1.673-5.651-4z"></path>
</svg>
