<!-- Generated by IcoMoon.io -->
<svg version="1.1" xmlns="http://www.w3.org/2000/svg" width="40" height="32" viewBox="0 0 40 32">
<title>balance-scale-left</title>
<path d="M39.65 15.443l-6.816-10.998c-0.198-0.296-0.516-0.445-0.834-0.445s-0.636 0.149-0.834 0.445l-6.816 10.998c-0.242 0.361-0.381 0.795-0.344 1.228 0.342 4.104 3.791 7.329 7.994 7.329s7.653-3.225 7.994-7.329c0.036-0.433-0.102-0.866-0.344-1.227zM32 22c-2.599 0-4.847-1.696-5.674-4h11.325c-0.839 2.327-3.071 4-5.651 4zM26.358 16l5.644-9.11 5.684 9.11h-11.328zM33.5 30h-12.5v-22.141c1.393-0.361 2.482-1.446 2.851-2.835l9.268-3.101c0.262-0.087 0.403-0.371 0.316-0.632l-0.318-0.948c-0.087-0.262-0.371-0.403-0.633-0.316l-8.651 2.894c-0.473-1.681-2.001-2.921-3.834-2.921-2.209 0-4 1.791-4 4 0 0.513 0.104 0.999 0.284 1.447l-9.403 3.146c-0.262 0.088-0.403 0.371-0.316 0.633l0.317 0.948c0.088 0.262 0.371 0.403 0.633 0.316l10.028-3.355c0.426 0.335 0.917 0.584 1.457 0.724v23.642c0 0.276 0.224 0.5 0.5 0.5h14c0.276 0 0.5-0.224 0.5-0.5v-1c-0.001-0.276-0.224-0.5-0.501-0.5zM18 4c0-1.103 0.898-2 2-2s2 0.897 2 2-0.898 2-2 2-2-0.897-2-2zM8.834 12.445c-0.198-0.297-0.516-0.445-0.834-0.445s-0.636 0.149-0.834 0.445l-6.816 10.998c-0.242 0.361-0.381 0.795-0.344 1.227 0.342 4.104 3.791 7.329 7.994 7.329s7.652-3.225 7.994-7.329c0.036-0.433-0.102-0.866-0.344-1.227l-6.816-10.998zM8 30c-2.599 0-4.847-1.696-5.674-4h11.325c-0.839 2.327-3.071 4-5.651 4zM2.358 24l5.644-9.11 5.684 9.11h-11.328z"></path>
</svg>
