<!-- Generated by IcoMoon.io -->
<svg version="1.1" xmlns="http://www.w3.org/2000/svg" width="40" height="32" viewBox="0 0 40 32">
<title>balance-scale</title>
<path d="M39.65 17.443l-6.816-10.998c-0.198-0.296-0.516-0.445-0.834-0.445s-0.636 0.149-0.834 0.445l-6.816 10.998c-0.242 0.361-0.381 0.795-0.344 1.227 0.342 4.104 3.791 7.329 7.994 7.329s7.653-3.225 7.994-7.329c0.036-0.433-0.102-0.866-0.344-1.227zM32 24c-2.599 0-4.847-1.696-5.674-4h11.325c-0.839 2.327-3.071 4-5.651 4zM26.358 18l5.644-9.11 5.684 9.11h-11.328zM33.5 30h-12.5v-22.141c1.723-0.446 3-1.997 3-3.859h9.5c0.276 0 0.5-0.224 0.5-0.5v-1c0-0.276-0.224-0.5-0.5-0.5h-10.069c-0.009-0.016-0.273-0.694-1.194-1.317-0.638-0.431-1.408-0.683-2.236-0.683s-1.598 0.252-2.236 0.683c-0.921 0.623-1.185 1.301-1.194 1.317h-10.069c-0.276 0-0.5 0.224-0.5 0.5v1c0 0.276 0.224 0.5 0.5 0.5h9.5c0 1.862 1.277 3.412 3 3.859v22.141h-12.5c-0.276 0-0.5 0.224-0.5 0.5v1c0 0.276 0.224 0.5 0.5 0.5h27c0.276 0 0.5-0.224 0.5-0.5v-1c0-0.276-0.224-0.5-0.5-0.5zM18 4c0-1.104 0.896-2 2-2s2 0.896 2 2-0.896 2-2 2-2-0.896-2-2zM15.994 18.671c0.036-0.433-0.102-0.866-0.344-1.227l-6.816-10.998c-0.198-0.296-0.516-0.445-0.834-0.445s-0.636 0.149-0.834 0.445l-6.816 10.998c-0.242 0.361-0.381 0.795-0.344 1.227 0.342 4.104 3.791 7.329 7.994 7.329s7.652-3.225 7.994-7.329zM8.002 8.89l5.684 9.11h-11.328l5.644-9.11zM2.326 20h11.325c-0.839 2.327-3.071 4-5.651 4-2.599 0-4.847-1.696-5.674-4z"></path>
</svg>
