<!-- Generated by IcoMoon.io -->
<svg version="1.1" xmlns="http://www.w3.org/2000/svg" width="40" height="32" viewBox="0 0 40 32">
<title>balance-scale-right-solid</title>
<path d="M6 29v2c0 0.552 0.447 1 1 1h14c0.552 0 1-0.448 1-1v-21.422c0.285-0.125 0.558-0.272 0.812-0.445l8.878 2.977c0.524 0.176 1.091-0.107 1.266-0.63l0.636-1.896c0.176-0.524-0.107-1.091-0.63-1.266l-8.025-2.691c0.026-0.207 0.063-0.412 0.063-0.627 0-2.761-2.239-5-5-5-1.856 0-3.456 1.022-4.319 2.523l-7.371-2.471c-0.524-0.176-1.091 0.107-1.266 0.63l-0.636 1.896c-0.176 0.524 0.107 1.091 0.63 1.266l8.25 2.766c0.455 1.328 1.435 2.409 2.711 2.967v18.422h-10.999c-0.553 0-1 0.448-1 1zM0 19c0 2.761 3.582 5 8 5s8-2.239 8-5h-0.001c0-0.979 0.13-0.453-5.316-11.344-1.105-2.21-4.264-2.206-5.367 0-5.399 10.799-5.315 10.333-5.315 11.344h-0.001zM3.5 18l4.5-9 4.5 9h-9zM24.001 27h-0.001c0 2.761 3.582 5 8 5s8-2.239 8-5h-0.001c0-0.979 0.13-0.453-5.316-11.344-1.105-2.21-4.264-2.206-5.367 0-5.399 10.799-5.315 10.333-5.315 11.344zM27.5 26l4.5-9 4.5 9h-9z"></path>
</svg>
