<!-- Generated by IcoMoon.io -->
<svg version="1.1" xmlns="http://www.w3.org/2000/svg" width="40" height="32" viewBox="0 0 40 32">
<title>balance-scale-left-solid</title>
<path d="M33 28h-11v-18.422c1.276-0.559 2.256-1.639 2.711-2.967l8.25-2.766c0.524-0.176 0.806-0.743 0.63-1.266l-0.636-1.896c-0.176-0.524-0.742-0.806-1.266-0.63l-7.37 2.471c-0.863-1.501-2.464-2.523-4.319-2.523-2.761 0-5 2.239-5 5 0 0.214 0.037 0.419 0.063 0.627l-8.024 2.691c-0.524 0.176-0.806 0.742-0.63 1.266l0.636 1.896c0.176 0.524 0.742 0.806 1.266 0.63l8.878-2.977c0.254 0.173 0.527 0.32 0.812 0.445v21.422c0 0.552 0.448 1 1 1h14c0.553 0 1-0.448 1-1v-2c-0.001-0.552-0.448-1-1.001-1zM39.999 19c0-1.011 0.084-0.546-5.316-11.344-1.103-2.206-4.262-2.21-5.367 0-5.445 10.891-5.315 10.365-5.315 11.344h-0.001c0 2.761 3.582 5 8 5s8-2.239 8-5h-0.001zM27.5 18l4.5-9 4.5 9h-9zM10.683 15.656c-1.103-2.206-4.262-2.21-5.367 0-5.445 10.891-5.315 10.365-5.315 11.344h-0.001c0 2.761 3.582 5 8 5s8-2.239 8-5h-0.001c0-1.011 0.084-0.546-5.316-11.344zM3.5 26l4.5-9 4.5 9h-9z"></path>
</svg>
