<!-- Generated by IcoMoon.io -->
<svg version="1.1" xmlns="http://www.w3.org/2000/svg" width="36" height="32" viewBox="0 0 36 32">
<title>ball-pile-solid</title>
<path d="M5 22c-2.763 0-5 2.238-5 5s2.237 5 5 5 5-2.238 5-5-2.237-5-5-5zM18 10c2.762 0 5-2.237 5-5s-2.238-5-5-5-5 2.237-5 5 2.238 5 5 5zM16 15.5c0-2.762-2.238-5-5-5s-5 2.238-5 5 2.238 5 5 5 5-2.238 5-5zM18 22c-2.762 0-5 2.238-5 5s2.238 5 5 5 5-2.238 5-5-2.238-5-5-5zM31 22c-2.762 0-5 2.238-5 5s2.238 5 5 5 5-2.238 5-5-2.237-5-5-5zM30 15.5c0-2.762-2.238-5-5-5s-5 2.238-5 5 2.238 5 5 5 5-2.238 5-5z"></path>
</svg>
