<!-- Generated by IcoMoon.io -->
<svg version="1.1" xmlns="http://www.w3.org/2000/svg" width="36" height="32" viewBox="0 0 36 32">
<title>ball-pile</title>
<path d="M30 20c-0.65 0-1.269 0.131-1.856 0.325 1.137-1.094 1.856-2.619 1.856-4.325 0-3.313-2.688-6-6-6-0.65 0-1.269 0.131-1.856 0.325 1.144-1.094 1.856-2.625 1.856-4.325 0-3.313-2.688-6-6-6s-6 2.688-6 6c0 1.7 0.713 3.231 1.856 4.325-0.588-0.194-1.2-0.325-1.856-0.325-3.313 0-6 2.688-6 6 0 1.7 0.713 3.231 1.856 4.325-0.588-0.194-1.2-0.325-1.856-0.325-3.313 0-6 2.688-6 6s2.688 6 6 6 6-2.688 6-6c0-1.7-0.713-3.231-1.856-4.325 0.588 0.194 1.2 0.325 1.856 0.325s1.269-0.131 1.856-0.325c-1.144 1.094-1.856 2.625-1.856 4.325 0 3.313 2.688 6 6 6s6-2.688 6-6c0-1.7-0.712-3.231-1.856-4.325 0.587 0.194 1.2 0.325 1.856 0.325s1.269-0.131 1.856-0.325c-1.144 1.094-1.856 2.625-1.856 4.325 0 3.313 2.688 6 6 6s6-2.688 6-6-2.688-6-6-6zM18 2c2.206 0 4 1.794 4 4s-1.794 4-4 4-4-1.794-4-4 1.794-4 4-4zM19.856 20.325c-0.587-0.194-1.206-0.325-1.856-0.325s-1.269 0.131-1.856 0.325c1.137-1.094 1.856-2.619 1.856-4.325s-0.712-3.231-1.856-4.325c0.587 0.194 1.2 0.325 1.856 0.325s1.269-0.131 1.856-0.325c-1.144 1.094-1.856 2.625-1.856 4.325s0.712 3.231 1.856 4.325zM6 30c-2.206 0-4-1.794-4-4s1.794-4 4-4 4 1.794 4 4-1.794 4-4 4zM12 20c-2.206 0-4-1.794-4-4s1.794-4 4-4 4 1.794 4 4-1.794 4-4 4zM18 30c-2.206 0-4-1.794-4-4s1.794-4 4-4 4 1.794 4 4-1.794 4-4 4zM24 20c-2.206 0-4-1.794-4-4s1.794-4 4-4 4 1.794 4 4-1.794 4-4 4zM30 30c-2.206 0-4-1.794-4-4s1.794-4 4-4 4 1.794 4 4-1.794 4-4 4z"></path>
</svg>
