<!-- Generated by IcoMoon.io -->
<svg version="1.1" xmlns="http://www.w3.org/2000/svg" width="24" height="32" viewBox="0 0 24 32">
<title>ballot-solid</title>
<path d="M22.5 0h-21c-0.831 0-1.5 0.669-1.5 1.5v29c0 0.831 0.669 1.5 1.5 1.5h21c0.831 0 1.5-0.669 1.5-1.5v-29c0-0.831-0.669-1.5-1.5-1.5zM8 25c0 0.55-0.45 1-1 1h-2c-0.55 0-1-0.45-1-1v-2c0-0.55 0.45-1 1-1h2c0.55 0 1 0.45 1 1v2zM8 17c0 0.55-0.45 1-1 1h-2c-0.55 0-1-0.45-1-1v-2c0-0.55 0.45-1 1-1h2c0.55 0 1 0.45 1 1v2zM8 9c0 0.55-0.45 1-1 1h-2c-0.55 0-1-0.45-1-1v-2c0-0.55 0.45-1 1-1h2c0.55 0 1 0.45 1 1v2zM20 24.5c0 0.275-0.225 0.5-0.5 0.5h-9c-0.275 0-0.5-0.225-0.5-0.5v-1c0-0.275 0.225-0.5 0.5-0.5h9c0.275 0 0.5 0.225 0.5 0.5v1zM20 16.5c0 0.275-0.225 0.5-0.5 0.5h-9c-0.275 0-0.5-0.225-0.5-0.5v-1c0-0.275 0.225-0.5 0.5-0.5h9c0.275 0 0.5 0.225 0.5 0.5v1zM20 8.5c0 0.275-0.225 0.5-0.5 0.5h-9c-0.275 0-0.5-0.225-0.5-0.5v-1c0-0.275 0.225-0.5 0.5-0.5h9c0.275 0 0.5 0.225 0.5 0.5v1z"></path>
</svg>
