<!-- Generated by IcoMoon.io -->
<svg version="1.1" xmlns="http://www.w3.org/2000/svg" width="24" height="32" viewBox="0 0 24 32">
<title>ballot-check-solid</title>
<path d="M22.5 0h-21c-0.831 0-1.5 0.669-1.5 1.5v29c0 0.831 0.669 1.5 1.5 1.5h21c0.831 0 1.5-0.669 1.5-1.5v-29c0-0.831-0.669-1.5-1.5-1.5zM4 7c0-0.55 0.45-1 1-1h2c0.55 0 1 0.45 1 1v2c0 0.55-0.45 1-1 1h-2c-0.55 0-1-0.45-1-1v-2zM4.1 15.088l0.794-0.787c0.131-0.131 0.344-0.131 0.475 0l1.288 1.3 2.975-2.95c0.131-0.131 0.344-0.131 0.475 0l0.787 0.794c0.131 0.131 0.131 0.344 0 0.475l-4.013 3.975c-0.131 0.131-0.344 0.131-0.475 0l-2.306-2.331c-0.131-0.131-0.131-0.344 0-0.475zM8 25c0 0.55-0.45 1-1 1h-2c-0.55 0-1-0.45-1-1v-2c0-0.55 0.45-1 1-1h2c0.55 0 1 0.45 1 1v2zM20 24.5c0 0.275-0.225 0.5-0.5 0.5h-9c-0.275 0-0.5-0.225-0.5-0.5v-1c0-0.275 0.225-0.5 0.5-0.5h9c0.275 0 0.5 0.225 0.5 0.5v1zM20 16.5c0 0.275-0.269 0.5-0.6 0.5h-8.762s1.825-1.887 1.9-2h6.856c0.331 0 0.6 0.225 0.6 0.5v1zM20 8.5c0 0.275-0.225 0.5-0.5 0.5h-9c-0.275 0-0.5-0.225-0.5-0.5v-1c0-0.275 0.225-0.5 0.5-0.5h9c0.275 0 0.5 0.225 0.5 0.5v1z"></path>
</svg>
