<!-- Generated by IcoMoon.io -->
<svg version="1.1" xmlns="http://www.w3.org/2000/svg" width="28" height="32" viewBox="0 0 28 32">
<title>ballot</title>
<path d="M9 5h-2c-1.106 0-2 0.9-2 2v2c0 1.1 0.894 2 2 2h2c1.106 0 2-0.9 2-2v-2c0-1.1-0.894-2-2-2zM9 9h-2v-2h2v2zM26 0h-24c-1.106 0-2 0.9-2 2v28c0 1.1 0.894 2 2 2h24c1.106 0 2-0.9 2-2v-28c0-1.1-0.894-2-2-2zM26 30h-24v-28h24v28zM21.5 15h-8c-0.275 0-0.5 0.225-0.5 0.5v1c0 0.275 0.225 0.5 0.5 0.5h8c0.275 0 0.5-0.225 0.5-0.5v-1c0-0.275-0.225-0.5-0.5-0.5zM9 21h-2c-1.106 0-2 0.9-2 2v2c0 1.1 0.894 2 2 2h2c1.106 0 2-0.9 2-2v-2c0-1.1-0.894-2-2-2zM9 25h-2v-2h2v2zM21.5 23h-8c-0.275 0-0.5 0.225-0.5 0.5v1c0 0.275 0.225 0.5 0.5 0.5h8c0.275 0 0.5-0.225 0.5-0.5v-1c0-0.275-0.225-0.5-0.5-0.5zM21.5 7h-8c-0.275 0-0.5 0.225-0.5 0.5v1c0 0.275 0.225 0.5 0.5 0.5h8c0.275 0 0.5-0.225 0.5-0.5v-1c0-0.275-0.225-0.5-0.5-0.5zM9 13h-2c-1.106 0-2 0.9-2 2v2c0 1.1 0.894 2 2 2h2c1.106 0 2-0.9 2-2v-2c0-1.1-0.894-2-2-2zM9 17h-2v-2h2v2z"></path>
</svg>
