<!-- Generated by IcoMoon.io -->
<svg version="1.1" xmlns="http://www.w3.org/2000/svg" width="40" height="32" viewBox="0 0 40 32">
<title>band-aid</title>
<path d="M35 6h-30c-2.756 0-5 2.244-5 5v10c0 2.756 2.244 5 5 5h30c2.756 0 5-2.244 5-5v-10c0-2.756-2.244-5-5-5zM10 24h-5c-1.656 0-3-1.344-3-3v-10c0-1.656 1.344-3 3-3h5v16zM28 24h-16v-16h16v16zM38 21c0 1.656-1.344 3-3 3h-5v-16h5c1.656 0 3 1.344 3 3v10zM17 14.25c0.688 0 1.25-0.563 1.25-1.25s-0.563-1.25-1.25-1.25-1.25 0.563-1.25 1.25 0.563 1.25 1.25 1.25zM23 14.25c0.688 0 1.25-0.563 1.25-1.25s-0.563-1.25-1.25-1.25-1.25 0.563-1.25 1.25 0.563 1.25 1.25 1.25zM17 20.25c0.688 0 1.25-0.563 1.25-1.25s-0.563-1.25-1.25-1.25-1.25 0.563-1.25 1.25 0.563 1.25 1.25 1.25zM23 20.25c0.688 0 1.25-0.563 1.25-1.25s-0.563-1.25-1.25-1.25-1.25 0.563-1.25 1.25 0.563 1.25 1.25 1.25z"></path>
</svg>
