<!-- Generated by IcoMoon.io -->
<svg version="1.1" xmlns="http://www.w3.org/2000/svg" width="32" height="32" viewBox="0 0 32 32">
<title>banjo</title>
<path d="M7.563 20.904c-0.090-0.091-0.216-0.147-0.354-0.147s-0.263 0.056-0.354 0.147v0l-0.709 0.707c-0.090 0.090-0.146 0.215-0.146 0.353s0.056 0.263 0.146 0.353l3.536 3.536c0.090 0.090 0.215 0.146 0.353 0.146s0.263-0.056 0.353-0.146l0.707-0.707c0.090-0.090 0.146-0.215 0.146-0.353s-0.056-0.263-0.146-0.353v0zM31.363 2.654l-2.019-2.015c-0.395-0.395-0.94-0.639-1.543-0.639s-1.148 0.244-1.543 0.639l-3.157 3.158c-0.257 0.257-0.456 0.572-0.576 0.924l-0.005 0.017-1.334 4.004c-0.024 0.019-0.063 0.011-0.082 0.034l-5.933 5.933c-1.17-0.848-2.59-1.422-4.131-1.603l-0.042-0.004v-0.101c0-0.552-0.448-1-1-1s-1 0.448-1 1v0 0.101c-1.758 0.199-3.328 0.883-4.606 1.913l0.017-0.013-0.067-0.067c-0.177-0.161-0.413-0.26-0.672-0.26-0.552 0-1 0.448-1 1 0 0.258 0.098 0.494 0.259 0.671l-0.001-0.001 0.071 0.067c-1.017 1.262-1.701 2.831-1.896 4.549l-0.004 0.041h-0.101c-0.552 0-1 0.448-1 1s0.448 1 1 1v0h0.101c0.199 1.758 0.883 3.328 1.913 4.607l-0.013-0.017-0.067 0.067c-0.203 0.184-0.329 0.448-0.329 0.742 0 0.552 0.448 1 1 1 0.293 0 0.557-0.126 0.74-0.327l0.001-0.001 0.067-0.067c1.262 1.016 2.831 1.698 4.549 1.893l0.041 0.004v0.101c0 0.552 0.448 1 1 1s1-0.448 1-1v0-0.101c1.758-0.198 3.328-0.881 4.607-1.91l-0.017 0.013 0.067 0.067c0.179 0.17 0.422 0.275 0.689 0.275 0.552 0 1-0.448 1-1 0-0.267-0.105-0.51-0.275-0.689l-0.066-0.066c1.016-1.262 1.698-2.831 1.893-4.549l0.004-0.041h0.101c0.552 0 1-0.448 1-1s-0.448-1-1-1v0h-0.101c-0.185-1.582-0.759-3.002-1.625-4.197l0.018 0.026 5.933-5.933c0.023-0.023 0.014-0.057 0.034-0.082l4.004-1.335c0.369-0.125 0.684-0.324 0.941-0.581l3.157-3.158c0.395-0.395 0.639-0.94 0.639-1.543s-0.244-1.148-0.639-1.543v0zM10 29c-3.866 0-7-3.134-7-7s3.134-7 7-7c3.866 0 7 3.134 7 7v0c-0.004 3.864-3.136 6.996-7 7h-0zM29.947 4.326l-3.157 3.158c-0.043 0.043-0.096 0.077-0.155 0.097l-0.003 0.001-3.319 1.106 1.106-3.319c0.021-0.062 0.054-0.115 0.098-0.158v0l3.157-3.158c0.033-0.033 0.078-0.053 0.128-0.053s0.096 0.020 0.128 0.053v0l2.016 2.016c0.033 0.033 0.053 0.078 0.053 0.128s-0.020 0.095-0.053 0.128v0z"></path>
</svg>
