<!-- Generated by IcoMoon.io -->
<svg version="1.1" xmlns="http://www.w3.org/2000/svg" width="32" height="32" viewBox="0 0 32 32">
<title>banjo-solid</title>
<path d="M31.414 2.438l-1.849-1.852c-0.362-0.362-0.862-0.586-1.414-0.586s-1.052 0.224-1.414 0.586l-2.894 2.895c-0.235 0.236-0.416 0.524-0.525 0.846l-0.005 0.016-0.762 2.287-4.676 4.67c-1.246-0.843-2.692-1.39-4.241-1.634v-0.029c0-0.904-0.733-1.636-1.636-1.636s-1.636 0.733-1.636 1.636v0 0.029c-1.719 0.273-3.248 0.931-4.547 1.884l0.029-0.020-0.014-0.014c-0.291-0.272-0.683-0.438-1.115-0.438-0.904 0-1.636 0.733-1.636 1.636 0 0.431 0.167 0.823 0.439 1.115l-0.001-0.001 0.014 0.014c-0.933 1.271-1.592 2.801-1.857 4.462l-0.008 0.059h-0.029c-0.904 0-1.636 0.733-1.636 1.636s0.733 1.636 1.636 1.636v0h0.029c0.273 1.72 0.932 3.25 1.885 4.55l-0.020-0.029-0.014 0.014c-0.321 0.3-0.522 0.725-0.522 1.198 0 0.904 0.733 1.636 1.636 1.636 0.473 0 0.898-0.2 1.197-0.521l0.001-0.001 0.014-0.014c1.271 0.933 2.8 1.591 4.461 1.856l0.059 0.008v0.029c0 0.904 0.733 1.636 1.636 1.636s1.636-0.733 1.636-1.636v0-0.029c1.72-0.273 3.249-0.931 4.549-1.884l-0.029 0.020 0.014 0.014c0.3 0.321 0.725 0.522 1.198 0.522 0.904 0 1.636-0.733 1.636-1.636 0-0.473-0.2-0.898-0.521-1.197l-0.001-0.001-0.014-0.014c0.933-1.271 1.592-2.801 1.857-4.462l0.008-0.059h0.029c0.904 0 1.636-0.733 1.636-1.636s-0.733-1.636-1.636-1.636v0h-0.029c-0.244-1.546-0.789-2.992-1.629-4.236l4.68-4.68 2.272-0.757c0.338-0.115 0.626-0.297 0.862-0.533l2.895-2.894c0.361-0.362 0.584-0.861 0.584-1.413s-0.223-1.050-0.583-1.411l0 0zM12 27c-3.866 0-7-3.134-7-7s3.134-7 7-7c3.866 0 7 3.134 7 7v0c-0.004 3.864-3.136 6.996-7 7h-0zM9.563 19.147c-0.091-0.091-0.216-0.147-0.354-0.147s-0.263 0.056-0.354 0.147v0l-0.707 0.707c-0.090 0.090-0.146 0.215-0.146 0.353s0.056 0.263 0.146 0.353l3.289 3.293c0.090 0.090 0.215 0.146 0.353 0.146s0.263-0.056 0.353-0.146l0.707-0.707c0.091-0.090 0.147-0.216 0.147-0.354s-0.056-0.263-0.147-0.354v0z"></path>
</svg>
