<!-- Generated by IcoMoon.io -->
<svg version="1.1" xmlns="http://www.w3.org/2000/svg" width="40" height="32" viewBox="0 0 40 32">
<title>barcode-read-solid</title>
<path d="M11.5 8h-3c-0.275 0-0.5 0.225-0.5 0.5v15c0 0.275 0.225 0.5 0.5 0.5h3c0.275 0 0.5-0.225 0.5-0.5v-15c0-0.275-0.225-0.5-0.5-0.5zM9 28h-5v-5c0-0.55-0.45-1-1-1h-2c-0.55 0-1 0.45-1 1v8c0 0.55 0.45 1 1 1h8c0.55 0 1-0.45 1-1v-2c0-0.55-0.45-1-1-1zM15.5 8h-1c-0.275 0-0.5 0.225-0.5 0.5v15c0 0.275 0.225 0.5 0.5 0.5h1c0.275 0 0.5-0.225 0.5-0.5v-15c0-0.275-0.225-0.5-0.5-0.5zM1 10h2c0.55 0 1-0.45 1-1v-5h5c0.55 0 1-0.45 1-1v-2c0-0.55-0.45-1-1-1h-8c-0.55 0-1 0.45-1 1v8c0 0.55 0.45 1 1 1zM25.5 8h-3c-0.275 0-0.5 0.225-0.5 0.5v15c0 0.275 0.225 0.5 0.5 0.5h3c0.275 0 0.5-0.225 0.5-0.5v-15c0-0.275-0.225-0.5-0.5-0.5zM19.5 8h-1c-0.275 0-0.5 0.225-0.5 0.5v15c0 0.275 0.225 0.5 0.5 0.5h1c0.275 0 0.5-0.225 0.5-0.5v-15c0-0.275-0.225-0.5-0.5-0.5zM39 0h-8c-0.55 0-1 0.45-1 1v2c0 0.55 0.45 1 1 1h5v5c0 0.55 0.45 1 1 1h2c0.55 0 1-0.45 1-1v-8c0-0.55-0.45-1-1-1zM39 22h-2c-0.55 0-1 0.45-1 1v5h-5c-0.55 0-1 0.45-1 1v2c0 0.55 0.45 1 1 1h8c0.55 0 1-0.45 1-1v-8c0-0.55-0.45-1-1-1zM32 23.5v-15c0-0.275-0.225-0.5-0.5-0.5h-3c-0.275 0-0.5 0.225-0.5 0.5v15c0 0.275 0.225 0.5 0.5 0.5h3c0.275 0 0.5-0.225 0.5-0.5z"></path>
</svg>
