<!-- Generated by IcoMoon.io -->
<svg version="1.1" xmlns="http://www.w3.org/2000/svg" width="32" height="32" viewBox="0 0 32 32">
<title>barcode</title>
<path d="M0 28v-24h1.125v24h-1.125zM1.679 27.983v-23.983h0.571v23.983h-0.571zM3.375 27.983v-23.983h0.554v23.983h-0.554zM6.179 27.983v-23.983h0.554v23.983h-0.554zM8.429 27.983v-23.983h1.107v23.983h-1.107zM11.232 27.983v-23.983h0.554v23.983h-0.554zM12.357 27.983v-23.983h0.554v23.983h-0.554zM13.482 27.983v-23.983h0.554v23.983h-0.554zM15.714 27.983v-23.983h1.125v23.983h-1.125zM18.518 27.983v-23.983h1.125v23.983h-1.125zM20.768 27.983v-23.983h1.125v23.983h-1.125zM23.018 27.983v-23.983h1.125v23.983h-1.125zM24.696 27.983v-23.983h1.125v23.983h-1.125zM27.518 27.983v-23.983h1.679v23.983h-1.679zM29.75 27.983v-23.983h0.571v23.983h-0.571zM30.875 28v-24h1.125v24h-1.125z"></path>
</svg>
