<!-- Generated by IcoMoon.io -->
<svg version="1.1" xmlns="http://www.w3.org/2000/svg" width="40" height="32" viewBox="0 0 40 32">
<title>barcode-alt</title>
<path d="M17.5 6h-1c-0.275 0-0.5 0.225-0.5 0.5v19c0 0.275 0.225 0.5 0.5 0.5h1c0.275 0 0.5-0.225 0.5-0.5v-19c0-0.275-0.225-0.5-0.5-0.5zM13.5 6h-1c-0.275 0-0.5 0.225-0.5 0.5v19c0 0.275 0.225 0.5 0.5 0.5h1c0.275 0 0.5-0.225 0.5-0.5v-19c0-0.275-0.225-0.5-0.5-0.5zM37 0h-34c-1.656 0-3 1.344-3 3v26c0 1.656 1.344 3 3 3h34c1.656 0 3-1.344 3-3v-26c0-1.656-1.344-3-3-3zM38 29c0 0.55-0.45 1-1 1h-34c-0.55 0-1-0.45-1-1v-26c0-0.55 0.45-1 1-1h34c0.55 0 1 0.45 1 1v26zM9.5 6h-3c-0.275 0-0.5 0.225-0.5 0.5v19c0 0.275 0.225 0.5 0.5 0.5h3c0.275 0 0.5-0.225 0.5-0.5v-19c0-0.275-0.225-0.5-0.5-0.5zM33.5 6h-3c-0.275 0-0.5 0.225-0.5 0.5v19c0 0.275 0.225 0.5 0.5 0.5h3c0.275 0 0.5-0.225 0.5-0.5v-19c0-0.275-0.225-0.5-0.5-0.5zM25.5 6h-3c-0.275 0-0.5 0.225-0.5 0.5v19c0 0.275 0.225 0.5 0.5 0.5h3c0.275 0 0.5-0.225 0.5-0.5v-19c0-0.275-0.225-0.5-0.5-0.5z"></path>
</svg>
