<!-- Generated by IcoMoon.io -->
<svg version="1.1" xmlns="http://www.w3.org/2000/svg" width="40" height="32" viewBox="0 0 40 32">
<title>barcode-read</title>
<path d="M9.5 0h-9c-0.275 0-0.5 0.225-0.5 0.5v9.5c0 0.275 0.225 0.5 0.5 0.5h1c0.275 0 0.5-0.225 0.5-0.5v-8h7.5c0.275 0 0.5-0.225 0.5-0.5v-1c0-0.275-0.225-0.5-0.5-0.5zM9.5 30h-7.5v-8c0-0.275-0.225-0.5-0.5-0.5h-1c-0.275 0-0.5 0.225-0.5 0.5v9.5c0 0.275 0.225 0.5 0.5 0.5h9c0.275 0 0.5-0.225 0.5-0.5v-1c0-0.275-0.225-0.5-0.5-0.5zM39.5 0h-9c-0.275 0-0.5 0.225-0.5 0.5v1c0 0.275 0.225 0.5 0.5 0.5h7.5v8c0 0.275 0.225 0.5 0.5 0.5h1c0.275 0 0.5-0.225 0.5-0.5v-9.5c0-0.275-0.225-0.5-0.5-0.5zM39.5 21.5h-1c-0.275 0-0.5 0.225-0.5 0.5v8h-7.5c-0.275 0-0.5 0.225-0.5 0.5v1c0 0.275 0.225 0.5 0.5 0.5h9c0.275 0 0.5-0.225 0.5-0.5v-9.5c0-0.275-0.225-0.5-0.5-0.5zM9.5 6h-3c-0.275 0-0.5 0.225-0.5 0.5v19c0 0.275 0.225 0.5 0.5 0.5h3c0.275 0 0.5-0.225 0.5-0.5v-19c0-0.275-0.225-0.5-0.5-0.5zM30.5 26h3c0.275 0 0.5-0.225 0.5-0.5v-19c0-0.275-0.225-0.5-0.5-0.5h-3c-0.275 0-0.5 0.225-0.5 0.5v19c0 0.275 0.225 0.5 0.5 0.5zM25.5 6h-3c-0.275 0-0.5 0.225-0.5 0.5v19c0 0.275 0.225 0.5 0.5 0.5h3c0.275 0 0.5-0.225 0.5-0.5v-19c0-0.275-0.225-0.5-0.5-0.5zM13.5 6h-1c-0.275 0-0.5 0.225-0.5 0.5v19c0 0.275 0.225 0.5 0.5 0.5h1c0.275 0 0.5-0.225 0.5-0.5v-19c0-0.275-0.225-0.5-0.5-0.5zM17.5 6h-1c-0.275 0-0.5 0.225-0.5 0.5v19c0 0.275 0.225 0.5 0.5 0.5h1c0.275 0 0.5-0.225 0.5-0.5v-19c0-0.275-0.225-0.5-0.5-0.5z"></path>
</svg>
