<!-- Generated by IcoMoon.io -->
<svg version="1.1" xmlns="http://www.w3.org/2000/svg" width="28" height="32" viewBox="0 0 28 32">
<title>bars</title>
<path d="M27.625 7.125h-27.25c-0.207 0-0.375-0.168-0.375-0.375v0-1.5c0-0.207 0.168-0.375 0.375-0.375v0h27.25c0.207 0 0.375 0.168 0.375 0.375v0 1.5c0 0.207-0.168 0.375-0.375 0.375v0zM27.625 17.125h-27.25c-0.207 0-0.375-0.168-0.375-0.375v0-1.5c0-0.207 0.168-0.375 0.375-0.375v0h27.25c0.207 0 0.375 0.168 0.375 0.375v0 1.5c0 0.207-0.168 0.375-0.375 0.375v0zM27.625 27.125h-27.25c-0.207 0-0.375-0.168-0.375-0.375v0-1.5c0-0.207 0.168-0.375 0.375-0.375v0h27.25c0.207 0 0.375 0.168 0.375 0.375v0 1.5c0 0.207-0.168 0.375-0.375 0.375v0z"></path>
</svg>
