<!-- Generated by IcoMoon.io -->
<svg version="1.1" xmlns="http://www.w3.org/2000/svg" width="31" height="32" viewBox="0 0 31 32">
<title>baseball-ball-solid</title>
<path d="M23.031 22.744l1.8-0.869c0.694 1.431 1.625 2.7 2.756 3.806 2.125-2.656 3.406-6.019 3.406-9.681 0-3.656-1.275-7.013-3.387-9.662-1.113 1.081-2.038 2.319-2.725 3.719l-1.794-0.881c0.8-1.625 1.875-3.063 3.175-4.313-2.788-2.694-6.575-4.362-10.762-4.362-4.181 0-7.969 1.663-10.756 4.356 1.294 1.244 2.369 2.681 3.169 4.3l-1.794 0.881c-0.688-1.394-1.606-2.631-2.719-3.713-2.125 2.656-3.4 6.012-3.4 9.675s1.275 7.019 3.4 9.669c1.138-1.106 2.075-2.375 2.769-3.813l1.8 0.869c-0.806 1.669-1.894 3.144-3.219 4.419 2.781 2.694 6.569 4.356 10.75 4.356 4.175 0 7.956-1.656 10.744-4.344-1.319-1.275-2.406-2.744-3.212-4.412zM8.762 20.744l-1.906-0.613c0.931-2.9 0.794-5.863-0.037-8.375l1.9-0.625c0.938 2.85 1.125 6.244 0.044 9.613zM22.281 11.156l1.9 0.625c-0.825 2.506-0.969 5.469-0.038 8.375l-1.906 0.613c-1.081-3.375-0.894-6.769 0.044-9.613z"></path>
</svg>
