<!-- Generated by IcoMoon.io -->
<svg version="1.1" xmlns="http://www.w3.org/2000/svg" width="40" height="32" viewBox="0 0 40 32">
<title>baseball</title>
<path d="M39.2 3.756l-1.475-2.031c-1.413-1.944-4.044-2.237-5.85-0.925l-12.644 9.175c-2.85 2.069-5.456 4.456-7.769 7.113-1.813 2.081-4.531 4.912-8.144 7.537l-1.35 0.981c-0.012-0.019-0.706-1.087-1.594-0.387-0.431 0.344-0.5 0.975-0.156 1.406l4 5c0.325 0.406 0.95 0.519 1.406 0.156 0.031-0.025 0.806-0.594 0.006-1.594l1.138-0.825c4.125-2.994 7.644-4.537 9.694-5.406 3.244-1.375 6.325-3.119 9.175-5.188l12.644-9.175c1.862-1.356 2.275-3.969 0.919-5.838zM4.381 28.625l-1.163-1.45c1.806-1.306 4.487-3.169 7.813-6.644l2.019 2.775c-4.262 2.050-6.85 3.994-8.669 5.319zM37.1 7.975c-15.438 11.2-15.194 11.406-22.494 14.612l-2.419-3.319c5.306-5.944 5.406-5.637 20.863-16.85 0.925-0.669 2.306-0.544 3.056 0.481l1.475 2.031c0.712 0.975 0.494 2.337-0.481 3.044zM31 22c-2.756 0-5 2.244-5 5s2.244 5 5 5 5-2.244 5-5-2.244-5-5-5zM31 30c-1.656 0-3-1.344-3-3s1.344-3 3-3 3 1.344 3 3-1.344 3-3 3z"></path>
</svg>
