<!-- Generated by IcoMoon.io -->
<svg version="1.1" xmlns="http://www.w3.org/2000/svg" width="40" height="32" viewBox="0 0 40 32">
<title>baseball-solid</title>
<path d="M39.35 3.5l-1.494-2.087c-1.1-1.538-3.219-1.875-4.737-0.762l-13.25 9.769c-4.319 3.181-7.025 6.237-8.575 8.019l3.887 5.419c2.163-0.95 5.856-2.613 10.175-5.794l13.256-9.762c1.506-1.112 1.837-3.263 0.737-4.8zM9.094 27.069l-2.7-3.769c-1.875 1.625-2.938 2.387-3.5 2.8-1.2-1.506-2.288-0.563-2.337-0.525-0.644 0.519-0.75 1.462-0.231 2.106l2.994 3.75c0.487 0.613 1.425 0.781 2.106 0.231 0.175-0.137 1.094-1.031 0.144-2.225 0.513-0.369 1.537-1.137 3.525-2.369zM7.681 22.175l2.875 4.006c0.994-0.569 2.019-1.094 3.050-1.594l-3.488-4.863c-0.787 0.844-1.594 1.663-2.438 2.45zM30.931 22c-2.756 0-4.988 2.238-4.988 5s2.231 5 4.988 5 4.987-2.238 4.987-5-2.231-5-4.988-5z"></path>
</svg>
