<!-- Generated by IcoMoon.io -->
<svg version="1.1" xmlns="http://www.w3.org/2000/svg" width="31" height="32" viewBox="0 0 31 32">
<title>baseball-ball</title>
<path d="M15.5 0.5c-8.55 0-15.5 6.95-15.5 15.5s6.95 15.5 15.5 15.5 15.5-6.95 15.5-15.5-6.95-15.5-15.5-15.5zM6.469 26.006c1.044-1.087 1.912-2.325 2.581-3.694l-1.675-0.813c-0.569 1.175-1.362 2.194-2.25 3.125-5.35-6.425-2.831-13.844 0-17.25 0.888 0.931 1.675 1.95 2.25 3.113l1.675-0.819c-0.662-1.363-1.531-2.594-2.575-3.681 4.944-4.463 12.694-4.85 18.063-0.006-1.044 1.088-1.913 2.319-2.575 3.688l1.675 0.813c0.569-1.169 1.356-2.188 2.25-3.125 4.881 5.856 3.413 13.15 0.006 17.244-0.894-0.931-1.681-1.95-2.25-3.119l-1.675 0.819c0.669 1.369 1.531 2.6 2.581 3.681-5.625 5.094-13.394 4.262-18.081 0.025zM9.794 20.469l-1.769-0.575c0.762-2.344 0.875-5.094-0.006-7.794l1.769-0.575c1.019 3.125 0.875 6.275 0.006 8.944zM22.981 19.894l-1.769 0.575c-1.019-3.125-0.875-6.281-0.006-8.944l1.769 0.575c-0.762 2.35-0.869 5.1 0.006 7.794z"></path>
</svg>
