<!-- Generated by IcoMoon.io -->
<svg version="1.1" xmlns="http://www.w3.org/2000/svg" width="31" height="32" viewBox="0 0 31 32">
<title>basketball-ball-solid</title>
<path d="M13.269 0.644c-2.738 0.394-5.388 1.506-7.638 3.362l4.837 4.838c1.738-2.237 2.706-5.075 2.8-8.2zM15.5 13.875l9.869-9.869c-2.65-2.188-5.85-3.344-9.094-3.506-0.075 3.994-1.344 7.644-3.669 10.481l2.894 2.894zM3.506 6.131c-1.856 2.25-2.969 4.9-3.362 7.638 3.125-0.094 5.969-1.063 8.2-2.8l-4.838-4.838zM20.519 18.894c2.831-2.319 6.481-3.588 10.481-3.669-0.163-3.244-1.319-6.444-3.506-9.094l-9.869 9.869 2.894 2.894zM15.5 18.125l-9.869 9.869c2.65 2.181 5.85 3.344 9.094 3.506 0.081-4 1.35-7.65 3.669-10.481l-2.894-2.894zM27.494 25.869c1.856-2.25 2.969-4.9 3.363-7.637-3.131 0.1-5.969 1.069-8.2 2.8l4.837 4.837zM10.481 13.106c-2.838 2.325-6.487 3.6-10.481 3.669 0.163 3.244 1.319 6.444 3.506 9.094l9.869-9.869-2.894-2.894zM17.731 31.356c2.738-0.394 5.387-1.506 7.637-3.363l-4.837-4.837c-1.731 2.231-2.7 5.075-2.8 8.2z"></path>
</svg>
