<!-- Generated by IcoMoon.io -->
<svg version="1.1" xmlns="http://www.w3.org/2000/svg" width="31" height="32" viewBox="0 0 31 32">
<title>basketball-ball</title>
<path d="M26.462 5.037c-6.044-6.044-15.887-6.044-21.931 0s-6.044 15.887 0 21.931c6.050 6.050 15.887 6.044 21.931 0 6.050-6.050 6.050-15.887 0-21.931zM15.075 29.481c-3-0.094-5.975-1.181-8.381-3.256l8.806-8.813 3.55 3.55c-2.119 2.394-3.5 5.356-3.975 8.519zM20.494 22.406l3.813 3.813c-2.081 1.794-4.575 2.85-7.15 3.163 0.462-2.581 1.613-4.988 3.337-6.975zM21.906 20.994c1.988-1.725 4.394-2.875 6.975-3.331-0.319 2.575-1.369 5.069-3.163 7.15l-3.813-3.819zM28.981 15.575c-3.163 0.475-6.125 1.856-8.519 3.969l-3.55-3.544 8.806-8.806c2.081 2.406 3.169 5.381 3.262 8.381zM9.294 11.206c-2.037 1.775-4.537 2.95-7.213 3.381 0.275-2.662 1.35-5.25 3.2-7.394l4.013 4.013zM6.694 5.775c2.144-1.85 4.731-2.919 7.394-3.2-0.431 2.675-1.606 5.175-3.381 7.213l-4.013-4.013zM16.106 2.531c2.938 0.131 5.838 1.212 8.2 3.25l-8.806 8.806-3.381-3.381c2.156-2.431 3.544-5.45 3.988-8.675zM2.031 16.606c3.225-0.45 6.244-1.838 8.675-3.988l3.381 3.381-8.813 8.806c-2.031-2.363-3.112-5.256-3.244-8.2z"></path>
</svg>
