<!-- Generated by IcoMoon.io -->
<svg version="1.1" xmlns="http://www.w3.org/2000/svg" width="40" height="32" viewBox="0 0 40 32">
<title>basketball-hoop-solid</title>
<path d="M13 10h14v3h-14v-3zM39.994 21.056c0 1.425-0.85 2.7-2.169 3.238l-6.512 2.681 0.563-8.975h-1.913l-1.137 14-4.712-4.475-4.113 4.475-4.113-4.475-4.713 4.475-1.137-14h-1.912l0.563 8.975-6.519-2.675c-1.319-0.544-2.169-1.813-2.169-3.244l0.075-8.119c0.037-0.125 4.219-12.438 19.925-12.438s19.881 12.313 19.925 12.438c0.1 0.637 0.069-0.531 0.069 8.119zM12.919 22.025l2.919 2.725 2.75-2.75-2.631-2.631-3.037 2.656zM20 20.587l2.587-2.587h-5.175l2.587 2.587zM21.413 22l2.75 2.75 2.919-2.725-3.038-2.656-2.631 2.631zM12.044 18l0.162 1.994 2.281-1.994h-2.444zM14.425 26.163l-1.869-1.744 0.269 3.344 1.6-1.6zM22.7 26.113l-2.7-2.7-2.7 2.7 2.7 2.519 2.7-2.519zM27.175 27.762l0.269-3.344-1.869 1.744 1.6 1.6zM27.956 18h-2.438l2.281 1.994 0.156-1.994zM34 13.5c0-0.275-0.225-0.5-0.5-0.5h-4.5v-5h-18v5h-4.5c-0.275 0-0.5 0.225-0.5 0.5v1c0 0.275 0.225 0.5 0.5 0.5h27c0.275 0 0.5-0.225 0.5-0.5v-1z"></path>
</svg>
