<!-- Generated by IcoMoon.io -->
<svg version="1.1" xmlns="http://www.w3.org/2000/svg" width="40" height="32" viewBox="0 0 40 32">
<title>basketball-hoop</title>
<path d="M40 21.231c0 1.219-0.65 2.306-1.781 2.775l-6.769 2.781 0.156-2.231 5.85-2.4c0.375-0.156 0.619-0.519 0.619-0.925v-7.731c-5.131-14-30.844-14.056-36 0v7.731c0 0.406 0.244 0.769 0.619 0.925l5.85 2.4 0.156 2.231-6.763-2.781c-1.131-0.469-1.938-1.556-1.938-2.775l0.050-8.213c0.037-0.125 4.281-12.019 20.025-12.019s19.831 11.894 19.869 12.019c0.075 0.444 0.056-0.569 0.056 8.213zM28.9 32l-4.712-4.475-4.113 4.475-4.113-4.475-4.713 4.475-1.137-14h-1.537c-0.275 0-0.5-0.225-0.5-0.5v-1c0-0.275 0.225-0.5 0.5-0.5h23c0.275 0 0.5 0.225 0.5 0.5v1c0 0.275-0.225 0.5-0.5 0.5h-1.538l-1.137 14zM12.994 22.025l2.919 2.725 2.75-2.75-2.631-2.631-3.037 2.656zM20.075 20.587l2.587-2.587h-5.175l2.587 2.587zM21.488 22l2.75 2.75 2.919-2.725-3.031-2.656-2.637 2.631zM28.031 18h-2.438l2.281 1.994 0.156-1.994zM12.119 18l0.162 1.994 2.281-1.994h-2.444zM14.5 26.163l-1.869-1.744 0.269 3.344 1.6-1.6zM22.775 26.113l-2.7-2.7-2.7 2.7 2.7 2.519 2.7-2.519zM27.25 27.762l0.269-3.344-1.869 1.744 1.6 1.6zM29.075 14v-5.619h-18v5.619h2v-3.619h14v3.619h2z"></path>
</svg>
