<!-- Generated by IcoMoon.io -->
<svg version="1.1" xmlns="http://www.w3.org/2000/svg" width="40" height="32" viewBox="0 0 40 32">
<title>bat-solid</title>
<path d="M34.903 8.106c-0.477-1.114-1.828-1.551-2.867-0.927l-6.296 3.777-1.739-6.956-2.667 2h-2.667l-2.666-2-1.739 6.956-6.296-3.777c-1.039-0.624-2.39-0.187-2.868 0.927l-5.097 11.894 3.101-1.034c1.711-0.571 3.592 0.075 4.593 1.576l2.306 3.458 0.739-0.739c1.721-1.721 4.568-1.519 6.029 0.428l3.233 4.311 3.233-4.311c1.461-1.948 4.307-2.149 6.029-0.428l0.739 0.739 2.305-3.458c1.001-1.501 2.882-2.146 4.593-1.576l3.102 1.034-5.097-11.894z"></path>
</svg>
