<!-- Generated by IcoMoon.io -->
<svg version="1.1" xmlns="http://www.w3.org/2000/svg" width="40" height="32" viewBox="0 0 40 32">
<title>bat</title>
<path d="M39.913 17.953l-4.394-9.847c-0.343-0.767-1.116-1.213-1.917-1.213-0.363 0-0.731 0.091-1.069 0.286l-6.556 3.777-1.977-6.957-3.132 3h-1.736l-3.133-3-1.976 6.956-6.556-3.777c-0.338-0.194-0.706-0.286-1.069-0.286-0.802 0-1.575 0.446-1.917 1.213l-4.395 9.848c-0.354 0.793 0.434 1.616 1.286 1.343l1.030-0.329c0.393-0.13 0.846-0.206 1.317-0.206v0c1.364 0 2.678 0.646 3.466 1.782l2.401 3.457 0.769-0.739c0.819-0.787 1.884-1.172 2.943-1.172 1.258 0 2.509 0.543 3.335 1.6l3.366 4.311 3.366-4.311c0.826-1.057 2.077-1.6 3.335-1.6 1.059 0 2.124 0.385 2.943 1.172l0.769 0.739 2.401-3.458c0.788-1.136 2.102-1.782 3.466-1.782 0.439 0 0.883 0.067 1.317 0.206l1.030 0.329c0.852 0.274 1.64-0.549 1.286-1.342zM36.28 16.761c-2.094 0-4.038 0.999-5.199 2.672l-1.082 1.559c-0.981-0.588-2.114-0.902-3.297-0.902-1.987 0-3.81 0.875-5.001 2.4l-1.7 2.177-1.7-2.177c-1.191-1.525-3.014-2.4-5.001-2.4-1.184 0-2.317 0.314-3.297 0.902l-1.082-1.559c-1.162-1.673-3.105-2.672-5.199-2.672-0.289 0-0.576 0.019-0.861 0.058l3.536-7.924 8.967 5.166 1.628-6.254 1.312 1.194h3.396l1.312-1.194 1.628 6.254 8.967-5.166 3.536 7.924c-0.284-0.039-0.572-0.058-0.861-0.058z"></path>
</svg>
