<!-- Generated by IcoMoon.io -->
<svg version="1.1" xmlns="http://www.w3.org/2000/svg" width="32" height="32" viewBox="0 0 32 32">
<title>bath</title>
<path d="M31.5 16h-27.5v-12.172c0-1.010 0.819-1.828 1.829-1.828 0.505 0 0.962 0.204 1.292 0.535v0l1.578 1.578c-0.436 0.676-0.696 1.501-0.699 2.387v0.001c0 1.269 0.55 2.388 1.396 3.204l-0.735 0.734c-0.090 0.090-0.146 0.215-0.146 0.353s0.056 0.263 0.146 0.353l0.707 0.707c0.091 0.091 0.216 0.147 0.354 0.147s0.263-0.056 0.354-0.147v0l7.778-7.776c0.091-0.091 0.147-0.216 0.147-0.354s-0.056-0.263-0.147-0.354l-0.707-0.707c-0.090-0.090-0.215-0.146-0.353-0.146s-0.263 0.056-0.353 0.146l-0.736 0.735c-0.816-0.846-1.935-1.396-3.204-1.396-0.886 0.002-1.712 0.262-2.405 0.709l0.018-0.011-1.578-1.574c-0.693-0.693-1.65-1.122-2.707-1.122-2.113 0-3.826 1.712-3.828 3.825v12.172h-1.5c-0.276 0-0.5 0.224-0.5 0.5v0 1c0 0.276 0.224 0.5 0.5 0.5v0h1.5v6c0 2.609 1.675 4.806 4 5.633v1.867c0 0.276 0.224 0.5 0.5 0.5v0h1c0.276 0 0.5-0.224 0.5-0.5v0-1.5h16v1.5c0 0.276 0.224 0.5 0.5 0.5v0h1c0.276 0 0.5-0.224 0.5-0.5v0-1.867c2.325-0.826 4-3.024 4-5.633v-6h1.5c0.276 0 0.5-0.224 0.5-0.5v0-1c0-0.276-0.224-0.5-0.5-0.5v0zM14.294 4.806l-3.488 3.488c-0.494-0.443-0.804-1.082-0.806-1.794v-0c0-1.381 1.119-2.5 2.5-2.5v0c0.712 0.002 1.352 0.312 1.792 0.804l0.002 0.002zM28 24c-0.003 2.208-1.792 3.997-4 4h-16c-2.208-0.003-3.998-1.792-4-4v-6h24z"></path>
</svg>
