<!-- Generated by IcoMoon.io -->
<svg version="1.1" xmlns="http://www.w3.org/2000/svg" width="32" height="32" viewBox="0 0 32 32">
<title>bath-solid</title>
<path d="M2 24c0.004 1.765 0.773 3.349 1.994 4.438l0.006 0.005v2.557c0 0.552 0.448 1 1 1v0h2c0.552 0 1-0.448 1-1v0-1h16v1c0 0.552 0.448 1 1 1v0h2c0.552 0 1-0.448 1-1v0-2.557c1.227-1.094 1.996-2.679 2-4.442v-3.001h-28zM31 16h-26v-11.672c0.002-0.733 0.596-1.326 1.329-1.326 0.367 0 0.698 0.148 0.939 0.388l1.204 1.204c-0.821 1.867-0.476 3.694 0.539 4.983l-0.011 0.011c-0.18 0.181-0.292 0.43-0.292 0.706s0.111 0.525 0.292 0.706l0.707 0.707c0.181 0.181 0.431 0.293 0.707 0.293s0.526-0.112 0.707-0.293l6.586-6.586c0.181-0.181 0.293-0.431 0.293-0.707s-0.112-0.526-0.293-0.707l-0.707-0.707c-0.181-0.181-0.431-0.293-0.707-0.293s-0.526 0.112-0.707 0.293l-0.011 0.011c-1.289-1.014-3.114-1.359-4.983-0.539l-1.204-1.204c-0.783-0.783-1.865-1.268-3.061-1.268-2.39 0-4.328 1.938-4.328 4.328 0 0 0 0 0 0v-0 11.672h-1c-0.552 0-1 0.448-1 1v0 1c0 0.552 0.448 1 1 1v0h30c0.552 0 1-0.448 1-1v0-1c0-0.552-0.448-1-1-1v0z"></path>
</svg>
