<!-- Generated by IcoMoon.io -->
<svg version="1.1" xmlns="http://www.w3.org/2000/svg" width="40" height="32" viewBox="0 0 40 32">
<title>battery-bolt-solid</title>
<path d="M4 22h11.174l-0.886 4h-11.288c-1.657 0-3-1.343-3-3v-14c0-1.657 1.343-3 3-3h7.247l-0.479 4h-5.768v12zM26.799 12h-5.77l1.731-8.349c0.203-0.833-0.372-1.651-1.159-1.651h-6.8c-0.601 0-1.11 0.487-1.189 1.139l-1.6 13.361c-0.096 0.787 0.464 1.486 1.189 1.486h5.935l-2.303 10.399c-0.18 0.83 0.401 1.615 1.167 1.615 0.418 0 0.819-0.239 1.039-0.655l8.799-15.375c0.462-0.873-0.114-1.97-1.038-1.97zM38.5 10h-0.5v-1c0-1.657-1.343-3-3-3h-9.664l-0.622 3h2.084c1.007 0 1.952 0.36 2.695 1h4.507v4h2v4h-2v4h-7.302l-2.289 4h10.591c1.657 0 3-1.343 3-3v-1h0.5c0.828 0 1.5-0.672 1.5-1.5v-9c0-0.828-0.672-1.5-1.5-1.5z"></path>
</svg>
