<!-- Generated by IcoMoon.io -->
<svg version="1.1" xmlns="http://www.w3.org/2000/svg" width="40" height="32" viewBox="0 0 40 32">
<title>battery-slash</title>
<path d="M39.813 30.328l-38.375-30.219c-0.085-0.068-0.194-0.109-0.312-0.109-0.157 0-0.298 0.073-0.39 0.187l-0.001 0.001-0.625 0.782c-0.068 0.085-0.11 0.194-0.11 0.312 0 0.157 0.073 0.298 0.186 0.389l0.001 0.001 38.375 30.219c0.085 0.068 0.194 0.109 0.312 0.109 0.157 0 0.298-0.073 0.39-0.187l0.001-0.001 0.625-0.782c0.068-0.085 0.11-0.194 0.11-0.312 0-0.157-0.073-0.298-0.186-0.389l-0.001-0.001zM3 24c-0.552 0-1-0.448-1-1v0-14c0-0.552 0.448-1 1-1v0h1.991l-2.478-1.951c-1.432 0.239-2.511 1.469-2.513 2.95v14c0 1.657 1.343 3 3 3v0h24.849l-2.536-2zM38.5 10h-0.5v-1c0-1.657-1.343-3-3-3v0h-22.85l2.537 2h20.313c0.552 0 1 0.448 1 1v0 3h2v8h-2v3c0 0 0 0 0 0 0 0.55-0.444 0.996-0.993 1h-0l1.778 1.401c0.739-0.549 1.213-1.419 1.215-2.4v-1h0.5c0.828 0 1.5-0.672 1.5-1.5v0-9c0-0.828-0.672-1.5-1.5-1.5v0z"></path>
</svg>
