<!-- Generated by IcoMoon.io -->
<svg version="1.1" xmlns="http://www.w3.org/2000/svg" width="40" height="32" viewBox="0 0 40 32">
<title>battery-slash-solid</title>
<path d="M4 22v-10.783l-3.883-3c-0.070 0.233-0.113 0.502-0.117 0.78l-0 0.002v14c0 1.657 1.343 3 3 3v0h20.125l-5.176-4zM38 23v-1h0.5c0.828 0 1.5-0.672 1.5-1.5v0-9c0-0.828-0.672-1.5-1.5-1.5v0h-0.5v-1c0-1.657-1.343-3-3-3v0h-24.668l-7.49-5.789c-0.168-0.132-0.382-0.211-0.615-0.211-0.32 0-0.605 0.15-0.788 0.385l-0.002 0.002-1.227 1.579c-0.131 0.168-0.21 0.381-0.21 0.614 0 0.32 0.15 0.605 0.384 0.788l0.002 0.002 36.772 28.421c0.168 0.132 0.382 0.211 0.614 0.211 0.32 0 0.605-0.15 0.788-0.385l0.002-0.002 1.227-1.579c0.131-0.168 0.211-0.381 0.211-0.614 0-0.32-0.15-0.605-0.384-0.788l-0.002-0.002-3.634-2.809c1.183-0.415 2.017-1.521 2.019-2.822v-0zM36 18h-2v4h-2.966l-15.526-12h18.492v4h2z"></path>
</svg>
