<!-- Generated by IcoMoon.io -->
<svg version="1.1" xmlns="http://www.w3.org/2000/svg" width="40" height="32" viewBox="0 0 40 32">
<title>battery-bolt</title>
<path d="M40 11.5v9c0 0.828-0.672 1.5-1.5 1.5h-0.5v1c0 1.657-1.343 3-3 3h-9.957l1.127-2h8.83c0.551 0 1-0.449 1-1v-3h2v-8h-2v-3c0-0.551-0.449-1-1-1h-5.674c-0.826-0.575-1.764-0.896-2.713-0.979l0.248-0.95c0.006-0.024 0.012-0.048 0.018-0.072h8.121c1.657 0 3 1.343 3 3v1h0.5c0.828 0 1.5 0.672 1.5 1.5zM2 23v-14c0-0.551 0.449-1 1-1h5.962l0.201-2h-6.162c-1.657 0-3 1.343-3 3v14c0 1.657 1.343 3 3 3h9.358c0.002-0.008 0.004-0.017 0.006-0.025l0.482-1.975h-9.846c-0.551 0-1-0.449-1-1zM28.413 13.906l-8.309 14.75c-0.476 0.852-1.366 1.345-2.292 1.345-1.706 0-2.978-1.619-2.538-3.293l2.125-8.707h-3.523c-1.546 0-2.759-1.332-2.613-2.873l1.078-10.75c0.128-1.348 1.259-2.377 2.613-2.377h6.472c1.729 0 2.982 1.642 2.535 3.306l-1.227 4.694h3.388c2.002 0 3.268 2.158 2.291 3.906zM26.122 12h-5.978l1.885-7.213c0.106-0.396-0.192-0.787-0.604-0.787h-6.472c-0.001 0-0.002 0-0.002 0-0.324 0-0.59 0.247-0.62 0.564l-0 0.002-0.001 0.005-0.001 0.005-1.078 10.743c-0.033 0.364 0.256 0.681 0.623 0.681h6.070l-2.737 11.216c-0.108 0.41 0.211 0.784 0.604 0.784 0.178 0 0.415-0.084 0.546-0.32l0.003-0.006 8.307-14.745c0.231-0.415-0.070-0.929-0.546-0.929z"></path>
</svg>
