<!-- Generated by IcoMoon.io -->
<svg version="1.1" xmlns="http://www.w3.org/2000/svg" width="40" height="32" viewBox="0 0 40 32">
<title>battery-half</title>
<path d="M35 8c0.551 0 1 0.449 1 1v3h2v8h-2v3c0 0.551-0.449 1-1 1h-32c-0.551 0-1-0.449-1-1v-14c0-0.551 0.449-1 1-1h32zM35 6h-32c-1.657 0-3 1.343-3 3v14c0 1.657 1.343 3 3 3h32c1.657 0 3-1.343 3-3v-1h0.5c0.828 0 1.5-0.672 1.5-1.5v-9c0-0.828-0.672-1.5-1.5-1.5h-0.5v-1c0-1.657-1.343-3-3-3zM8 19.625v-7.25c0-0.207-0.168-0.375-0.375-0.375v0h-1.25c-0.207 0-0.375 0.168-0.375 0.375v0 7.25c0 0.207 0.168 0.375 0.375 0.375v0h1.25c0.207 0 0.375-0.168 0.375-0.375v0zM12 19.625v-7.25c0-0.207-0.168-0.375-0.375-0.375v0h-1.25c-0.207 0-0.375 0.168-0.375 0.375v0 7.25c0 0.207 0.168 0.375 0.375 0.375v0h1.25c0.207 0 0.375-0.168 0.375-0.375v0zM16 19.625v-7.25c0-0.207-0.168-0.375-0.375-0.375v0h-1.25c-0.207 0-0.375 0.168-0.375 0.375v0 7.25c0 0.207 0.168 0.375 0.375 0.375v0h1.25c0.207 0 0.375-0.168 0.375-0.375v0zM20 19.625v-7.25c0-0.207-0.168-0.375-0.375-0.375v0h-1.25c-0.207 0-0.375 0.168-0.375 0.375v0 7.25c0 0.207 0.168 0.375 0.375 0.375v0h1.25c0.207 0 0.375-0.168 0.375-0.375v0z"></path>
</svg>
