<!-- Generated by IcoMoon.io -->
<svg version="1.1" xmlns="http://www.w3.org/2000/svg" width="32" height="32" viewBox="0 0 32 32">
<title>bed-alt</title>
<path d="M30 14.134v-9.134c0-1.657-1.343-3-3-3v0h-22c-1.657 0-3 1.343-3 3v0 9.134c-1.141 0.303-2 1.296-2 2.533v12.833c0 0.276 0.224 0.5 0.5 0.5v0h1c0.276 0 0.5-0.224 0.5-0.5v0-3.5h28v3.5c0 0.276 0.224 0.5 0.5 0.5v0h1c0.276 0 0.5-0.224 0.5-0.5v0-12.833c0-1.236-0.859-2.229-2-2.533zM4 12c0-1.105 0.895-2 2-2v0h7c1.105 0 2 0.895 2 2v0 2h-11zM28 14h-11v-2c0-1.105 0.895-2 2-2v0h7c1.105 0 2 0.895 2 2v0zM5 4h22c0.552 0 1 0.448 1 1v0 3.556c-0.572-0.346-1.261-0.552-1.999-0.556h-7.001c-0 0-0 0-0 0-1.193 0-2.264 0.523-2.996 1.353l-0.004 0.004c-0.736-0.834-1.806-1.357-2.999-1.357-0 0-0 0-0.001 0h-7c-0.739 0.004-1.428 0.211-2.018 0.566l0.018-0.010v-3.556c0-0.552 0.448-1 1-1v0zM2 24v-7.333c0.001-0.368 0.299-0.666 0.667-0.667h26.666c0.368 0.001 0.666 0.299 0.667 0.667v7.333z"></path>
</svg>
