<!-- Generated by IcoMoon.io -->
<svg version="1.1" xmlns="http://www.w3.org/2000/svg" width="36" height="32" viewBox="0 0 36 32">
<title>bed-bunk</title>
<path d="M29 0h-14c-0.552 0-1 0.448-1 1v0 9h-12v-9.5c0-0.276-0.224-0.5-0.5-0.5v0h-1c-0.276 0-0.5 0.224-0.5 0.5v0 31c0 0.276 0.224 0.5 0.5 0.5v0h1c0.276 0 0.5-0.224 0.5-0.5v0-3.5h32v3.5c0 0.276 0.224 0.5 0.5 0.5v0h1c0.276 0 0.5-0.224 0.5-0.5v0-24.5c0-3.866-3.134-7-7-7v0zM34 23.5v2.5h-18v-8h13c2.76 0.003 4.997 2.24 5 5v0zM34 18.111c-1.268-1.303-3.038-2.111-4.997-2.111-0.001 0-0.002 0-0.003 0h-14c-0.552 0-1 0.448-1 1v0 9h-12v-14h32zM34 10h-18v-8h13c2.76 0.003 4.997 2.24 5 5v0zM8 8c2.209 0 4-1.791 4-4s-1.791-4-4-4c-2.209 0-4 1.791-4 4v0c0 2.209 1.791 4 4 4v0zM8 2c1.105 0 2 0.895 2 2s-0.895 2-2 2c-1.105 0-2-0.895-2-2v0c0-1.105 0.895-2 2-2v0zM8 24c2.209 0 4-1.791 4-4s-1.791-4-4-4c-2.209 0-4 1.791-4 4v0c0 2.209 1.791 4 4 4v0zM8 18c1.105 0 2 0.895 2 2s-0.895 2-2 2c-1.105 0-2-0.895-2-2v0c0-1.105 0.895-2 2-2v0z"></path>
</svg>
