<!-- Generated by IcoMoon.io -->
<svg version="1.1" xmlns="http://www.w3.org/2000/svg" width="32" height="32" viewBox="0 0 32 32">
<title>bed-alt-solid</title>
<path d="M5 10c0-1.105 0.895-2 2-2v0h6c1.105 0 2 0.895 2 2v0 2h2v-2c0-1.105 0.895-2 2-2v0h6c1.105 0 2 0.895 2 2v0 2h3v-8c0-1.105-0.895-2-2-2v0h-24c-1.105 0-2 0.895-2 2v0 8h3zM28 14h-24c-2.209 0-4 1.791-4 4v0 11c0 0.552 0.448 1 1 1v0h2c0.552 0 1-0.448 1-1v0-3h24v3c0 0.552 0.448 1 1 1v0h2c0.552 0 1-0.448 1-1v0-11c0-2.209-1.791-4-4-4v0z"></path>
</svg>
