<!-- Generated by IcoMoon.io -->
<svg version="1.1" xmlns="http://www.w3.org/2000/svg" width="40" height="32" viewBox="0 0 40 32">
<title>bed-empty-solid</title>
<path d="M7 16h6c0.552 0 1-0.448 1-1v0-6c0-0.552-0.448-1-1-1v0h-6c-0.552 0-1 0.448-1 1v0 6c0 0.552 0.448 1 1 1v0zM33 8h-16c-0.552 0-1 0.448-1 1v0 9h-12v-13c0-0.552-0.448-1-1-1v0h-2c-0.552 0-1 0.448-1 1v0 22c0 0.552 0.448 1 1 1v0h2c0.552 0 1-0.448 1-1v0-3h32v3c0 0.552 0.448 1 1 1v0h2c0.552 0 1-0.448 1-1v0-12c0-3.866-3.134-7-7-7v0z"></path>
</svg>
