<!-- Generated by IcoMoon.io -->
<svg version="1.1" xmlns="http://www.w3.org/2000/svg" width="36" height="32" viewBox="0 0 36 32">
<title>bed-bunk-solid</title>
<path d="M29 0h-14c-0.552 0-1 0.448-1 1v0 7h-10v-7c0-0.552-0.448-1-1-1v0h-2c-0.552 0-1 0.448-1 1v0 30c0 0.552 0.448 1 1 1v0h2c0.552 0 1-0.448 1-1v0-3h28v3c0 0.552 0.448 1 1 1v0h2c0.552 0 1-0.448 1-1v0-24c0-3.866-3.134-7-7-7v0zM32 16.699c-0.876-0.436-1.907-0.694-2.998-0.699h-14.002c-0.552 0-1 0.448-1 1v0 7h-10v-12h28zM9 22c1.657 0 3-1.343 3-3s-1.343-3-3-3c-1.657 0-3 1.343-3 3v0c0.002 1.656 1.344 2.998 3 3h0zM9 6c1.657 0 3-1.343 3-3s-1.343-3-3-3c-1.657 0-3 1.343-3 3v0c0.002 1.656 1.344 2.998 3 3h0z"></path>
</svg>
