<!-- Generated by IcoMoon.io -->
<svg version="1.1" xmlns="http://www.w3.org/2000/svg" width="28" height="32" viewBox="0 0 28 32">
<title>beer</title>
<path d="M24 6h-2v-1c0-1.657-1.343-3-3-3h-16c-1.657 0-3 1.343-3 3v22c0 1.657 1.343 3 3 3h16c1.657 0 3-1.343 3-3v-1.382l3.789-1.894c1.364-0.682 2.211-2.053 2.211-3.578v-10.146c0-2.206-1.794-4-4-4zM20 27c0 0.551-0.449 1-1 1h-16c-0.551 0-1-0.449-1-1v-22c0-0.551 0.449-1 1-1h16c0.551 0 1 0.449 1 1v22zM26 20.146c0 0.762-0.424 1.448-1.106 1.789l-2.894 1.447v-15.382h2c1.103 0 2 0.897 2 2v10.146zM12 9v14c0 0.552-0.448 1-1 1s-1-0.448-1-1v-14c0-0.552 0.448-1 1-1s1 0.448 1 1zM8 9v14c0 0.552-0.448 1-1 1s-1-0.448-1-1v-14c0-0.552 0.448-1 1-1s1 0.448 1 1zM16 9v14c0 0.552-0.448 1-1 1s-1-0.448-1-1v-14c0-0.552 0.448-1 1-1s1 0.448 1 1z"></path>
</svg>
