<!-- Generated by IcoMoon.io -->
<svg version="1.1" xmlns="http://www.w3.org/2000/svg" width="28" height="32" viewBox="0 0 28 32">
<title>beer-solid</title>
<path d="M23 6h-3v-2.5c0-0.828-0.672-1.5-1.5-1.5h-17c-0.828 0-1.5 0.672-1.5 1.5v25c0 0.828 0.672 1.5 1.5 1.5h17c0.828 0 1.5-0.672 1.5-1.5v-2.632l5.038-2.249c1.799-0.803 2.962-2.595 2.962-4.566v-8.054c0-2.757-2.243-5-5-5zM24 19.054c-0 0.405-0.241 0.753-0.586 0.911l-0.006 0.003-3.408 1.521v-11.488h3c0.551 0 1 0.449 1 1v8.054zM13 24c-0.552 0-1-0.448-1-1v-14c0-0.552 0.448-1 1-1s1 0.448 1 1v14c0 0.552-0.448 1-1 1zM7 24c-0.552 0-1-0.448-1-1v-14c0-0.552 0.448-1 1-1s1 0.448 1 1v14c0 0.552-0.448 1-1 1z"></path>
</svg>
