<!-- Generated by IcoMoon.io -->
<svg version="1.1" xmlns="http://www.w3.org/2000/svg" width="28" height="32" viewBox="0 0 28 32">
<title>bell</title>
<path d="M14 30c-1.104 0-2-0.899-2-2.002h-2c0 2.207 1.795 4.002 4 4.002s4-1.795 4-4.002h-2c0 1.103-0.896 2.002-2 2.002zM27.086 20.926c-1.747-1.664-3.084-3.405-3.084-9.307 0-4.974-3.962-9.031-9.002-9.522v-1.097c0-0.552-0.447-1-1-1s-1 0.448-1 1v1.097c-5.041 0.491-9.002 4.547-9.002 9.521 0 5.901-1.337 7.643-3.084 9.307-0.873 0.831-1.149 2.088-0.703 3.202 0.455 1.137 1.55 1.872 2.79 1.872h22c1.24 0 2.335-0.736 2.79-1.873 0.446-1.114 0.169-2.37-0.704-3.201zM25 24h-22c-0.889 0-1.334-1.029-0.708-1.626 2.179-2.074 3.705-4.396 3.705-10.755 0-4.211 3.579-7.619 8.002-7.619s8.002 3.408 8.002 7.619c0 6.334 1.513 8.669 3.705 10.755 0.629 0.599 0.178 1.626-0.707 1.626z"></path>
</svg>
