<!-- Generated by IcoMoon.io -->
<svg version="1.1" xmlns="http://www.w3.org/2000/svg" width="40" height="32" viewBox="0 0 40 32">
<title>bell-school-slash</title>
<path d="M17 2c6.063 0 11 4.938 11 11 0 1.662-0.381 3.238-1.050 4.656l1.6 1.262c0.913-1.775 1.444-3.781 1.444-5.919 0.006-7.181-5.813-13-12.994-13-3.238 0-6.194 1.194-8.469 3.15l1.606 1.269c1.887-1.513 4.269-2.419 6.863-2.419zM15.15 8.363l2.112 1.662c1.206 0.106 2.194 0.919 2.569 2.019l2.1 1.65c0.031-0.231 0.069-0.463 0.069-0.7 0-2.756-2.244-5-5-5-0.656 0.006-1.275 0.144-1.85 0.369zM33 21c0.55 0 1 0.45 1 1 0 0.356-0.2 0.65-0.475 0.831l1.581 1.244c0.538-0.538 0.894-1.25 0.894-2.075 0-1.656-1.344-3-3-3-1.075 0-2.006 0.569-2.538 1.419l1.606 1.262c0.131-0.394 0.494-0.681 0.931-0.681zM39.813 30.325l-38.375-30.212c-0.212-0.175-0.531-0.144-0.7 0.075l-0.625 0.781c-0.175 0.219-0.138 0.531 0.075 0.7l38.375 30.219c0.212 0.175 0.531 0.137 0.7-0.075l0.625-0.781c0.175-0.219 0.144-0.531-0.075-0.706zM29 27h-3v-2.456l-2.981-2.35c-1.731 1.137-3.8 1.806-6.019 1.806-6.063 0-11-4.938-11-11 0-1.3 0.237-2.537 0.65-3.694l-1.65-1.3c-0.638 1.537-1 3.225-1 4.994 0 3.681 1.537 7 4 9.369v7.631c0 1.106 0.894 2 2 2h14c1.106 0 2-0.894 2-2v-1h3c0.744 0 1.431-0.181 2.063-0.469l-1.969-1.55c-0.031 0.006-0.056 0.019-0.094 0.019zM24 27v3h-14v-6.056c2.025 1.294 4.419 2.056 7 2.056s4.981-0.762 7-2.056zM17.613 17.938l-5.556-4.375c0.287 2.488 2.381 4.438 4.944 4.438 0.212 0 0.406-0.038 0.613-0.063z"></path>
</svg>
