<!-- Generated by IcoMoon.io -->
<svg version="1.1" xmlns="http://www.w3.org/2000/svg" width="28" height="32" viewBox="0 0 28 32">
<title>bell-plus</title>
<path d="M14 30c-1.105 0-2-0.895-2-2v0h-2c0 2.209 1.791 4 4 4s4-1.791 4-4v0h-2c0 1.105-0.895 2-2 2v0zM27.086 20.926c-1.75-1.664-3.084-3.405-3.084-9.306 0-4.975-3.961-9.031-9-9.523v-1.097c0-0.552-0.448-1-1-1s-1 0.448-1 1v0 1.097c-5.043 0.491-9.002 4.547-9.002 9.522 0 5.9-1.338 7.642-3.084 9.306-0.564 0.531-0.915 1.283-0.915 2.116 0 0.391 0.077 0.765 0.218 1.106l-0.007-0.019c0.452 1.106 1.52 1.872 2.766 1.872 0.008 0 0.016-0 0.024-0h21.999c0.006 0 0.014 0 0.022 0 1.248 0 2.316-0.767 2.76-1.855l0.007-0.020c0.133-0.321 0.21-0.694 0.21-1.085 0-0.833-0.35-1.584-0.912-2.113l-0.001-0.001zM25 24h-22c-0.889 0-1.334-1.029-0.708-1.625 2.179-2.075 3.708-4.396 3.708-10.756 0-4.211 3.576-7.619 8-7.619s8 3.408 8 7.619c0 6.334 1.514 8.668 3.705 10.754 0.631 0.599 0.18 1.626-0.705 1.626zM18.5 14h-3.5v-3.5c0-0.276-0.224-0.5-0.5-0.5v0h-1c-0.276 0-0.5 0.224-0.5 0.5v0 3.5h-3.5c-0.276 0-0.5 0.224-0.5 0.5v0 1c0 0.276 0.224 0.5 0.5 0.5v0h3.5v3.5c0 0.276 0.224 0.5 0.5 0.5v0h1c0.276 0 0.5-0.224 0.5-0.5v0-3.5h3.5c0.276 0 0.5-0.224 0.5-0.5v0-1c0-0.276-0.224-0.5-0.5-0.5v0z"></path>
</svg>
