<!-- Generated by IcoMoon.io -->
<svg version="1.1" xmlns="http://www.w3.org/2000/svg" width="40" height="32" viewBox="0 0 40 32">
<title>bell-on</title>
<path d="M33 4c0.163-0 0.317-0.039 0.453-0.108l-0.006 0.003 4-2c0.33-0.168 0.553-0.505 0.553-0.894 0-0.552-0.448-1-1-1-0.163 0-0.317 0.039-0.453 0.108l0.006-0.003-4 2c-0.33 0.168-0.553 0.505-0.553 0.894 0 0.552 0.448 1 1 1 0 0 0 0 0 0v0zM5 10h-4c-0.552 0-1 0.448-1 1s0.448 1 1 1v0h4c0.552 0 1-0.448 1-1s-0.448-1-1-1v0zM2.553 1.894l4 2c0.13 0.066 0.284 0.105 0.447 0.106h0c0 0 0 0 0 0 0.552 0 1-0.448 1-1 0-0.389-0.222-0.727-0.547-0.892l-0.006-0.003-4-2c-0.13-0.067-0.284-0.106-0.447-0.106-0.552 0-1 0.448-1 1 0 0.389 0.222 0.726 0.547 0.892l0.006 0.003zM39 10h-4c-0.552 0-1 0.448-1 1s0.448 1 1 1v0h4c0.552 0 1-0.448 1-1s-0.448-1-1-1v0zM20 30c-1.105 0-2-0.895-2-2v0h-2c0 2.209 1.791 4 4 4s4-1.791 4-4v0h-2c0 1.105-0.895 2-2 2v0zM30 11.619c0-4.975-3.961-9.031-9-9.523v-1.097c0-0.552-0.448-1-1-1s-1 0.448-1 1v0 1.097c-5.041 0.491-9 4.547-9 9.522 0 5.9-1.338 7.642-3.084 9.306-0.563 0.531-0.914 1.282-0.914 2.115 0 0.392 0.078 0.766 0.219 1.107l-0.007-0.019c0.452 1.106 1.519 1.872 2.766 1.872 0.007 0 0.015-0 0.022-0h21.999c0.007 0 0.014 0 0.022 0 1.248 0 2.316-0.767 2.76-1.855l0.007-0.020c0.133-0.322 0.211-0.695 0.211-1.086 0-0.833-0.35-1.584-0.912-2.114l-0.001-0.001c-1.748-1.662-3.086-3.403-3.086-9.304zM31 24h-22c-0.889 0-1.334-1.029-0.707-1.625 2.178-2.075 3.707-4.396 3.707-10.756 0-4.211 3.576-7.619 8-7.619s8 3.408 8 7.619c0 6.334 1.514 8.668 3.705 10.754 0.631 0.599 0.18 1.626-0.705 1.626z"></path>
</svg>
