<!-- Generated by IcoMoon.io -->
<svg version="1.1" xmlns="http://www.w3.org/2000/svg" width="40" height="32" viewBox="0 0 40 32">
<title>bell-slash-solid</title>
<path d="M39.614 28.631l-5.664-4.378c0.012-0.086 0.050-0.166 0.050-0.254 0.003-0.472-0.163-0.954-0.538-1.357-1.208-1.297-3.467-3.249-3.467-9.643 0-4.856-3.405-8.744-7.996-9.697v-1.302c0-1.104-0.895-2-1.999-2s-1.999 0.896-1.999 2v1.303c-2.521 0.524-4.666 1.942-6.099 3.911l-9.060-7.003c-0.436-0.339-1.065-0.261-1.404 0.176l-1.228 1.579c-0.339 0.436-0.261 1.064 0.176 1.403l36.772 28.421c0.436 0.339 1.064 0.261 1.404-0.176l1.227-1.579c0.339-0.436 0.261-1.064-0.176-1.403zM9.827 15.721c-0.538 4.248-2.276 5.833-3.289 6.922-0.375 0.403-0.541 0.885-0.538 1.357 0.007 1.025 0.811 2 2.006 2h15.12l-13.299-10.279zM20 32c2.207 0 3.998-1.791 3.998-4h-7.996c0 2.209 1.791 4 3.998 4z"></path>
</svg>
