<!-- Generated by IcoMoon.io -->
<svg version="1.1" xmlns="http://www.w3.org/2000/svg" width="40" height="32" viewBox="0 0 40 32">
<title>bells</title>
<path d="M39.9 19.619c-0.131-0.369-0.4-0.7-0.806-0.906-1.313-0.675-3.644-1.556-5.462-6.563-0.050-0.137-0.919-2.531-0.962-2.662-1.231-3.388-4.431-5.487-7.831-5.487-0.944 0-1.906 0.162-2.85 0.506-0.225 0.081-0.413 0.206-0.625 0.3-0.887-1-2.006-1.813-3.344-2.3-0.938-0.344-1.906-0.506-2.85-0.506-3.406 0-6.6 2.1-7.831 5.488-0.050 0.131-0.912 2.525-0.963 2.662-1.825 5.006-4.15 5.894-5.463 6.563-0.406 0.206-0.675 0.538-0.806 0.906-0.287 0.806 0.063 1.8 1 2.137l5.125 1.869c-0.131 0.438-0.225 0.894-0.225 1.375 0 2.762 2.238 5 5 5 2.037 0 3.781-1.225 4.556-2.981l2.631 0.956c-0.175 0.406-0.469 0.925-0.212 1.625 0.306 0.819 1.225 1.331 2.144 0.994l4.75-1.731c0.738 1.837 2.531 3.131 4.631 3.131 2.763 0 5-2.238 5-5 0-0.544-0.119-1.050-0.288-1.531l4.688-1.706c0.931-0.337 1.281-1.331 0.994-2.137zM11 26c-1.656 0-3-1.344-3-3 0-0.244 0.037-0.469 0.094-0.694l5.556 2.025c-0.488 0.981-1.481 1.669-2.65 1.669zM18.794 24.069l-16.288-5.925c1.531-0.8 3.95-2.387 5.738-7.313 0.519-1.431 0.319-0.881 0.963-2.662 0.912-2.494 3.306-4.169 5.956-4.169 2.794 0 4.425 1.819 4.475 1.869-2.706 2.175-3.887 5.875-2.637 9.319 0.050 0.131 0.925 2.525 0.975 2.663 1.056 2.9 1.087 4.831 0.819 6.219zM29.5 28c-1.231 0-2.256-0.762-2.712-1.831l5.581-2.031c0.081 0.275 0.131 0.563 0.131 0.863 0 1.656-1.344 3-3 3zM20.156 26.45c0.663-1.6 1.488-4.363-0.3-9.294-0.6-1.644-0.344-0.938-0.975-2.662-1.194-3.281 0.506-6.925 3.788-8.119 3.313-1.206 6.931 0.531 8.119 3.787 0.606 1.669 0.313 0.863 0.962 2.662 1.794 4.925 4.206 6.512 5.737 7.313l-17.331 6.313z"></path>
</svg>
