<!-- Generated by IcoMoon.io -->
<svg version="1.1" xmlns="http://www.w3.org/2000/svg" width="32" height="32" viewBox="0 0 32 32">
<title>bell-school-solid</title>
<path d="M26 13c0-7.18-5.82-13-13-13s-13 5.82-13 13 5.82 13 13 13 13-5.82 13-13zM8 13c0-2.757 2.243-5 5-5s5 2.243 5 5-2.243 5-5 5-5-2.243-5-5zM16 13c0-1.657-1.343-3-3-3s-3 1.343-3 3 1.343 3 3 3 3-1.343 3-3zM29 20c-1.657 0-3 1.343-3 3 0 1.027 0.517 1.931 1.304 2.472-0.38 0.897-1.269 1.528-2.304 1.528h-3v-2.029c-2.511 1.893-5.621 3.029-9 3.029s-6.489-1.136-9-3.029v5.029c0 1.104 0.896 2 2 2h14c1.104 0 2-0.896 2-2h3c2.637 0 4.843-1.867 5.374-4.348 0.962-0.5 1.626-1.494 1.626-2.652 0-1.657-1.343-3-3-3z"></path>
</svg>
