<!-- Generated by IcoMoon.io -->
<svg version="1.1" xmlns="http://www.w3.org/2000/svg" width="28" height="32" viewBox="0 0 28 32">
<title>bell-exclamation-solid</title>
<path d="M14 32c2.209 0 4-1.791 4-4v0h-8c0 2.209 1.791 4 4 4v0zM27.462 22.643c-1.207-1.297-3.467-3.25-3.467-9.643 0-4.856-3.405-8.744-7.996-9.697v-1.303c0-1.105-0.895-2-2-2s-2 0.895-2 2v0 1.303c-4.589 0.954-7.994 4.841-7.994 9.697 0 6.394-2.259 8.346-3.467 9.643-0.333 0.35-0.538 0.824-0.538 1.346 0 0.004 0 0.008 0 0.011v-0.001c0.007 1.025 0.813 2 2.006 2h23.988c1.195 0 2-0.975 2.006-2 0-0.003 0-0.007 0-0.011 0-0.522-0.205-0.996-0.539-1.347l0.001 0.001zM14 22c-1.105 0-2-0.895-2-2s0.895-2 2-2c1.105 0 2 0.895 2 2v0c0 1.105-0.895 2-2 2v0zM15.588 15.1c-0.052 0.507-0.477 0.899-0.994 0.9h-1.188c-0.517-0.001-0.941-0.393-0.993-0.896l-0-0.004-0.8-6c-0.003-0.029-0.005-0.062-0.005-0.096 0-0.552 0.446-1.001 0.998-1.004h2.788c0.552 0.001 0.999 0.448 0.999 1 0 0.035-0.002 0.070-0.005 0.104l0-0.004z"></path>
</svg>
