<!-- Generated by IcoMoon.io -->
<svg version="1.1" xmlns="http://www.w3.org/2000/svg" width="40" height="32" viewBox="0 0 40 32">
<title>bell-on-solid</title>
<path d="M7 12c0-0.828-0.672-1.5-1.5-1.5v0h-4c-0.828 0-1.5 0.672-1.5 1.5s0.672 1.5 1.5 1.5v0h4c0.828 0 1.5-0.672 1.5-1.5v0zM3.229 4.049l3.464 2c0.221 0.135 0.488 0.215 0.774 0.215 0.828 0 1.5-0.672 1.5-1.5 0-0.562-0.309-1.052-0.766-1.309l-0.008-0.004-3.464-2c-0.221-0.135-0.488-0.215-0.774-0.215-0.828 0-1.5 0.672-1.5 1.5 0 0.562 0.309 1.052 0.766 1.309l0.008 0.004zM32.559 6.25c0.001 0 0.002 0 0.003 0 0.275 0 0.533-0.075 0.754-0.205l-0.007 0.004 3.464-2c0.438-0.267 0.726-0.742 0.726-1.285 0-0.828-0.672-1.5-1.5-1.5-0.267 0-0.517 0.070-0.734 0.191l0.008-0.004-3.464 2c-0.451 0.264-0.75 0.747-0.75 1.299 0 0.828 0.671 1.5 1.499 1.5h0zM20 32c2.209 0 4-1.791 4-4v0h-8c0 2.209 1.791 4 4 4v0zM38.5 10.5h-4c-0.828 0-1.5 0.672-1.5 1.5s0.672 1.5 1.5 1.5v0h4c0.828 0 1.5-0.672 1.5-1.5s-0.672-1.5-1.5-1.5v0zM29.995 13c0-4.856-3.405-8.744-7.996-9.697v-1.303c0-1.105-0.895-2-2-2s-2 0.895-2 2v0 1.303c-4.589 0.953-7.994 4.842-7.994 9.697 0 6.394-2.259 8.346-3.467 9.642-0.333 0.35-0.538 0.825-0.538 1.347 0 0.004 0 0.007 0 0.011v-0.001c0.007 1.026 0.813 2 2.006 2h23.989c1.194 0 2-0.974 2.006-2 0-0.003 0-0.008 0-0.012 0-0.522-0.205-0.996-0.539-1.347l0.001 0.001c-1.208-1.297-3.467-3.248-3.467-9.643z"></path>
</svg>
