<!-- Generated by IcoMoon.io -->
<svg version="1.1" xmlns="http://www.w3.org/2000/svg" width="32" height="32" viewBox="0 0 32 32">
<title>bell-school</title>
<path d="M13 8c-2.757 0-5 2.243-5 5s2.243 5 5 5 5-2.243 5-5-2.243-5-5-5zM13 16c-1.657 0-3-1.343-3-3s1.343-3 3-3 3 1.343 3 3-1.343 3-3 3zM29 19c-1.654 0-3 1.346-3 3 0 1.259 0.782 2.336 1.884 2.78-0.346 1.275-1.501 2.22-2.884 2.22h-3v-4.633c2.461-2.366 4-5.684 4-9.367 0-7.18-5.82-13-13-13s-13 5.82-13 13c0 3.683 1.539 7.002 4 9.367v7.633c0 1.104 0.896 2 2 2h14c1.104 0 2-0.896 2-2v-1h3c2.469 0 4.512-1.802 4.915-4.158 1.205-0.389 2.085-1.509 2.085-2.842 0-1.654-1.346-3-3-3zM20 30h-14v-6.057c2.022 1.296 4.42 2.057 7 2.057s4.978-0.761 7-2.057v6.057zM13 24c-6.066 0-11-4.934-11-11s4.934-11 11-11 11 4.934 11 11-4.934 11-11 11zM29 23c-0.551 0-1-0.448-1-1s0.449-1 1-1 1 0.448 1 1-0.449 1-1 1z"></path>
</svg>
