<!-- Generated by IcoMoon.io -->
<svg version="1.1" xmlns="http://www.w3.org/2000/svg" width="40" height="32" viewBox="0 0 40 32">
<title>bell-slash</title>
<path d="M20 30c-1.106 0-2-0.9-2-2h-2c0 2.206 1.794 4 4 4s4-1.794 4-4h-2c0 1.1-0.894 2-2 2zM20 4c4.425 0 8 3.406 8 7.619 0 3.95 0.587 6.35 1.563 8.094l4.419 3.481c0.044-0.837-0.263-1.663-0.9-2.269-1.75-1.663-3.081-3.406-3.081-9.306 0-4.975-3.962-9.031-9-9.519v-1.1c0-0.55-0.45-1-1-1s-1 0.45-1 1v1.1c-2.744 0.263-5.262 1.638-6.969 3.806l1.544 1.213c1.45-1.881 3.781-3.119 6.425-3.119zM39.813 30.325l-38.375-30.212c-0.212-0.175-0.531-0.144-0.7 0.075l-0.625 0.781c-0.175 0.219-0.138 0.531 0.075 0.7l38.375 30.219c0.212 0.175 0.531 0.137 0.7-0.075l0.625-0.781c0.175-0.219 0.144-0.531-0.075-0.706zM9 24c-0.887 0-1.331-1.031-0.706-1.625 1.95-1.856 3.369-3.938 3.644-8.9l-1.95-1.537c-0.050 5.625-1.363 7.356-3.075 8.988-0.875 0.831-1.15 2.087-0.7 3.2 0.456 1.137 1.55 1.875 2.787 1.875h18.85l-2.538-2z"></path>
</svg>
