<!-- Generated by IcoMoon.io -->
<svg version="1.1" xmlns="http://www.w3.org/2000/svg" width="28" height="32" viewBox="0 0 28 32">
<title>bell-solid</title>
<path d="M14 32c2.207 0 3.998-1.791 3.998-4h-7.996c0 2.209 1.791 4 3.998 4zM27.462 22.643c-1.207-1.297-3.467-3.249-3.467-9.643 0-4.856-3.405-8.744-7.996-9.697v-1.303c0-1.104-0.895-2-1.999-2s-1.999 0.896-1.999 2v1.303c-4.591 0.954-7.996 4.841-7.996 9.697 0 6.394-2.259 8.346-3.467 9.643-0.375 0.403-0.541 0.885-0.538 1.357 0.007 1.025 0.811 2 2.006 2h23.988c1.195 0 2-0.975 2.006-2 0.003-0.472-0.163-0.954-0.538-1.357z"></path>
</svg>
