<!-- Generated by IcoMoon.io -->
<svg version="1.1" xmlns="http://www.w3.org/2000/svg" width="28" height="32" viewBox="0 0 28 32">
<title>bell-plus-solid</title>
<path d="M14 32c2.209 0 4-1.791 4-4v0h-8c0 2.209 1.791 4 4 4v0zM27.462 22.643c-1.207-1.297-3.467-3.25-3.467-9.643 0-4.856-3.405-8.744-7.996-9.697v-1.303c0-1.105-0.895-2-2-2s-2 0.895-2 2v0 1.303c-4.589 0.954-7.994 4.841-7.994 9.697 0 6.394-2.259 8.346-3.467 9.643-0.333 0.35-0.538 0.824-0.538 1.346 0 0.004 0 0.008 0 0.011v-0.001c0.007 1.025 0.813 2 2.006 2h23.988c1.195 0 2-0.975 2.006-2 0-0.003 0-0.007 0-0.011 0-0.522-0.205-0.996-0.539-1.347l0.001 0.001zM20 15.5c0 0.552-0.448 1-1 1v0h-3.5v3.5c0 0.552-0.448 1-1 1v0h-1c-0.552 0-1-0.448-1-1v0-3.5h-3.5c-0.552 0-1-0.448-1-1v0-1c0-0.552 0.448-1 1-1v0h3.5v-3.5c0-0.552 0.448-1 1-1v0h1c0.552 0 1 0.448 1 1v0 3.5h3.5c0.552 0 1 0.448 1 1v0z"></path>
</svg>
