<!-- Generated by IcoMoon.io -->
<svg version="1.1" xmlns="http://www.w3.org/2000/svg" width="40" height="32" viewBox="0 0 40 32">
<title>bell-school-slash-solid</title>
<path d="M17 28c-3.379 0-6.489-1.136-9-3.029v5.029c0 1.104 0.896 2 2 2h14c1.104 0 2-0.896 2-2v-1.779l-2.354-1.819c-2.007 1.006-4.253 1.599-6.646 1.599zM21.887 25.042l-17.765-13.73c-0.072 0.554-0.122 1.114-0.122 1.688 0 7.18 5.82 13 13 13 1.73 0 3.378-0.345 4.887-0.958zM39.614 28.631l-4.516-3.491c0.556-0.544 0.903-1.301 0.903-2.141 0-1.657-1.343-3-3-3-1.114 0-2.075 0.614-2.593 1.516l-2.301-1.778c1.198-1.964 1.893-4.268 1.893-6.738 0-7.18-5.821-13-13-13-3.659 0-6.941 1.531-9.3 3.966l-4.858-3.755c-0.436-0.339-1.065-0.261-1.404 0.176l-1.228 1.579c-0.339 0.436-0.261 1.064 0.176 1.403l36.772 28.421c0.436 0.339 1.064 0.261 1.404-0.176l1.227-1.579c0.339-0.436 0.261-1.064-0.176-1.403zM21.665 14.759l-1.709-1.321c0.021-0.144 0.044-0.288 0.044-0.438 0-1.657-1.343-3-3-3-0.419 0-0.817 0.087-1.179 0.242l-1.688-1.304c0.811-0.581 1.793-0.938 2.867-0.938 2.757 0 5 2.243 5 5 0 0.622-0.126 1.211-0.335 1.759z"></path>
</svg>
