<!-- Generated by IcoMoon.io -->
<svg version="1.1" xmlns="http://www.w3.org/2000/svg" width="40" height="32" viewBox="0 0 40 32">
<title>bells-solid</title>
<path d="M15.125 15.869c-1.744-4.794 0.313-10.037 4.606-12.488-0.531-0.35-1.094-0.656-1.712-0.881-4.331-1.569-9.113 0.663-10.688 4.987-0.050 0.131-0.919 2.525-0.963 2.662-1.825 5.006-4.15 5.894-5.463 6.563-1.256 0.644-1.219 2.538 0.188 3.050l15.206 5.537c0.525-1.2 1.219-2.85-0.206-6.762-0.613-1.688-0.387-1.069-0.969-2.669zM8.631 27.762c1.725 0.631 3.594-0.019 4.612-1.45l-7.213-2.625c-0.144 1.744 0.869 3.444 2.6 4.075zM31.369 29.762c1.725-0.631 2.744-2.325 2.6-4.075l-7.212 2.625c1.019 1.425 2.887 2.075 4.613 1.45zM39.1 18.712c-1.313-0.669-3.644-1.556-5.462-6.563-0.050-0.137-0.919-2.531-0.962-2.662-1.581-4.325-6.363-6.556-10.688-4.981s-6.556 6.356-4.981 10.681c0.050 0.131 0.925 2.525 0.975 2.663 1.825 5.006 0.606 7.181 0.031 8.538-0.55 1.294 0.7 2.725 2.106 2.212l18.788-6.837c1.281-0.469 1.556-2.35 0.194-3.050z"></path>
</svg>
