<!-- Generated by IcoMoon.io -->
<svg version="1.1" xmlns="http://www.w3.org/2000/svg" width="32" height="32" viewBox="0 0 32 32">
<title>betamax</title>
<path d="M20 23h6c1.105 0 2-0.895 2-2v0-6c0-1.105-0.895-2-2-2v0h-6c-1.105 0-2 0.895-2 2v0 6c0 1.105 0.895 2 2 2v0zM20 15h6v6h-6zM10 19.5c0.828 0 1.5-0.672 1.5-1.5s-0.672-1.5-1.5-1.5c-0.828 0-1.5 0.672-1.5 1.5v0c0 0.828 0.672 1.5 1.5 1.5v0zM10 24c3.314 0 6-2.686 6-6s-2.686-6-6-6c-3.314 0-6 2.686-6 6v0c0 3.314 2.686 6 6 6v0zM10 14c2.209 0 4 1.791 4 4s-1.791 4-4 4c-2.209 0-4-1.791-4-4v0c0.003-2.208 1.792-3.998 4-4h0zM31 4h-30c-0.552 0-1 0.448-1 1v0 20c0 1.657 1.343 3 3 3v0h26c1.657 0 3-1.343 3-3v0-20c0-0.552-0.448-1-1-1v0zM30 25c0 0.552-0.448 1-1 1v0h-26c-0.552 0-1-0.448-1-1v0-15h28zM30 8h-28v-2h28z"></path>
</svg>
