<!-- Generated by IcoMoon.io -->
<svg version="1.1" xmlns="http://www.w3.org/2000/svg" width="40" height="32" viewBox="0 0 40 32">
<title>bezier-curve</title>
<path d="M36 11c2.209 0 4-1.791 4-4s-1.791-4-4-4c-1.862 0-3.413 1.277-3.859 3h-7.141v-2c0-1.104-0.896-2-2-2h-6c-1.104 0-2 0.896-2 2v2h-7.141c-0.446-1.723-1.997-3-3.859-3-2.209 0-4 1.791-4 4s1.791 4 4 4c1.862 0 3.413-1.277 3.859-3h7.051c-5.038 1.969-8.446 6.612-8.829 12h-2.080c-1.104 0-2 0.896-2 2v6c0 1.104 0.896 2 2 2h6c1.104 0 2-0.896 2-2v-6c0-1.104-0.896-2-2-2h-1.921c0.36-4.338 3.004-8.096 6.943-9.891 0.060 1.051 0.912 1.891 1.978 1.891h6c1.066 0 1.918-0.84 1.978-1.891 3.939 1.795 6.582 5.553 6.942 9.891h-1.921c-1.104 0-2 0.896-2 2v6c0 1.104 0.896 2 2 2h6c1.104 0 2-0.896 2-2v-6c0-1.104-0.896-2-2-2h-2.079c-0.383-5.388-3.791-10.031-8.829-12h7.051c0.446 1.723 1.996 3 3.858 3zM10 28h-6v-6h6v6zM4 9c-1.103 0-2-0.898-2-2s0.897-2 2-2 2 0.897 2 2-0.897 2-2 2zM23 10h-6v-6h6v6zM36 28h-6v-6h6v6zM36 5c1.102 0 2 0.897 2 2s-0.898 2-2 2-2-0.898-2-2 0.898-2 2-2z"></path>
</svg>
