<!-- Generated by IcoMoon.io -->
<svg version="1.1" xmlns="http://www.w3.org/2000/svg" width="28" height="32" viewBox="0 0 28 32">
<title>bible-solid</title>
<path d="M28 22.4v-20.8c0-1-0.6-1.6-1.6-1.6h-20.4c-3.4 0-6 2.6-6 6v20c0 3.4 2.6 6 6 6h20.4c0.8 0 1.6-0.6 1.6-1.6v-1c0-0.4-0.2-0.8-0.6-1.2-0.2-1-0.2-3.8 0-4.6 0.4-0.2 0.6-0.6 0.6-1.2zM9 9c0-0.553 0.447-1 1-1h3v-3c0-0.553 0.447-1 1-1h2c0.552 0 1 0.447 1 1v3h3c0.552 0 1 0.447 1 1v2c0 0.553-0.448 1-1 1h-3v7c0 0.552-0.448 1-1 1h-2c-0.553 0-1-0.448-1-1v-7h-3c-0.553 0-1-0.447-1-1v-2zM23.8 28h-17.8c-1.2 0-2-0.8-2-2s1-2 2-2h17.8v4z"></path>
</svg>
