<!-- Generated by IcoMoon.io -->
<svg version="1.1" xmlns="http://www.w3.org/2000/svg" width="28" height="32" viewBox="0 0 28 32">
<title>bible</title>
<path d="M28 24.5v-23c0-0.831-0.669-1.5-1.5-1.5h-21.5c-2.763 0-5 2.237-5 5v23c0 2.209 1.791 4 4 4h23.25c0.413 0 0.75-0.337 0.75-0.75v-0.5c0-0.413-0.337-0.75-0.75-0.75h-0.206c-0.25-1.262-0.2-3.106 0.025-4.113 0.544-0.225 0.931-0.762 0.931-1.387zM25.269 30h-21.269c-1.104 0-2-0.896-2-2s0.896-2 2-2h21.269c-0.181 1.175-0.194 2.725 0 4zM26 24h-22c-0.732 0-1.409 0.211-2 0.555v-19.555c0-1.656 1.344-3 3-3h21v22zM9.5 14h2.5v6.5c0 0.827 0.674 1.5 1.5 1.5h3c0.826 0 1.5-0.673 1.5-1.5v-6.5h2.5c0.826 0 1.5-0.673 1.5-1.5v-3c0-0.827-0.674-1.5-1.5-1.5h-2.5v-2.5c0-0.827-0.674-1.5-1.5-1.5h-3c-0.826 0-1.5 0.673-1.5 1.5v2.5h-2.5c-0.826 0-1.5 0.673-1.5 1.5v3c0 0.827 0.674 1.5 1.5 1.5zM10 10h4v-4h2v4h4v2h-4v8h-2v-8h-4v-2z"></path>
</svg>
