<!-- Generated by IcoMoon.io -->
<svg version="1.1" xmlns="http://www.w3.org/2000/svg" width="40" height="32" viewBox="0 0 40 32">
<title>bicycle</title>
<path d="M32.019 12c-1.224-0.003-2.384 0.27-3.422 0.758l-5.252-8.293c-0.18-0.281-0.491-0.465-0.845-0.465 0 0 0 0 0 0h-4.25c-0.414 0-0.75 0.336-0.75 0.75v0.5c0 0.414 0.336 0.75 0.75 0.75h3.7l2.533 4h-8.483v-1.25c0-0.414-0.336-0.75-0.75-0.75h-5.25c-0.552 0-1 0.448-1 1s0.448 1 1 1h3.5l-1.988 2.811c-1.068-0.523-2.269-0.815-3.539-0.81-4.414 0.015-7.973 3.586-7.973 8 0 4.418 3.582 8 8 8 3.728 0 6.86-2.55 7.748-6h3.252c0.338-0 0.636-0.167 0.817-0.423l0.002-0.003 6.296-8.995 0.792 1.251c-1.774 1.466-2.905 3.681-2.908 6.162-0.005 4.373 3.553 7.969 7.925 8.009 4.41 0.040 8.006-3.49 8.075-7.875 0.069-4.406-3.573-8.114-7.98-8.125zM8 26c-3.308 0-6-2.692-6-6s2.691-6 6-6c0.832 0 1.624 0.17 2.345 0.477l-4.164 5.949c-0.464 0.662 0.012 1.573 0.819 1.573h6.657c-0.825 2.328-3.049 4-5.657 4zM14 20h-5.079l3.109-4.442c1.21 1.098 1.97 2.683 1.97 4.442zM18.479 20h-2.479c0-2.44-1.093-4.625-2.815-6.092l1.336-1.908h9.558l-5.6 8zM31.762 25.995c-3.129-0.121-5.658-2.667-5.76-5.797-0.060-1.848 0.721-3.519 1.988-4.659l3.297 5.207c0.222 0.35 0.685 0.454 1.035 0.232l0.422-0.268c0.35-0.222 0.454-0.685 0.232-1.035l-3.299-5.209c0.714-0.301 1.498-0.467 2.32-0.467 3.308 0 6 2.692 6 6 0 3.387-2.821 6.128-6.237 5.995z"></path>
</svg>
