<!-- Generated by IcoMoon.io -->
<svg version="1.1" xmlns="http://www.w3.org/2000/svg" width="40" height="32" viewBox="0 0 40 32">
<title>bicycle-solid</title>
<path d="M32.032 12c-1.023-0.004-2.002 0.185-2.902 0.531l-4.855-7.822c-0.269-0.428-0.739-0.709-1.274-0.709-0 0-0 0-0 0h-4c-0.552 0-1 0.448-1 1v1c0 0.552 0.448 1 1 1h3.166l0.931 1.5h-7.096v-1c0-0.552-0.448-1-1-1h-5.466c-0.84 0-1.549 0.687-1.534 1.527 0.014 0.815 0.68 1.473 1.5 1.473h3.045l-1.839 2.97c-0.84-0.302-1.744-0.468-2.687-0.47-4.389-0.011-7.994 3.563-8.020 7.952-0.026 4.44 3.566 8.048 8 8.048 3.728 0 6.86-2.55 7.748-6h3.252c0.536 0 1.006-0.281 1.272-0.704l0.004-0.006 5.373-8.679 0.934 1.504c-1.591 1.466-2.587 3.568-2.582 5.902 0.009 4.302 3.619 7.941 7.921 7.982 4.413 0.043 8.011-3.488 8.078-7.875 0.068-4.434-3.533-8.107-7.967-8.125zM11.672 16.611c0.608 0.658 1.042 1.479 1.228 2.389h-2.707l1.479-2.389zM8 25c-2.757 0-5-2.243-5-5s2.243-5 5-5c0.367 0 0.724 0.041 1.069 0.116l-2.844 4.594c-0.618 0.997 0.101 2.29 1.275 2.29h5.081c-0.773 1.764-2.535 3-4.581 3zM18.165 19h-2.226c-0.248-1.985-1.222-3.743-2.649-5.002l1.547-2.498h7.972l-4.643 7.5zM31.731 24.993c-2.565-0.135-4.628-2.231-4.727-4.797-0.051-1.32 0.415-2.532 1.208-3.454l2.777 4.474c0.291 0.469 0.908 0.613 1.377 0.322l0.85-0.527c0.469-0.291 0.614-0.908 0.322-1.377l-2.779-4.478c0.372-0.099 0.799-0.156 1.239-0.156 0.001 0 0.002 0 0.003 0h-0c2.757 0 5 2.243 5 5-0 2.846-2.391 5.145-5.27 4.993z"></path>
</svg>
