<!-- Generated by IcoMoon.io -->
<svg version="1.1" xmlns="http://www.w3.org/2000/svg" width="40" height="32" viewBox="0 0 40 32">
<title>biking-mountain</title>
<path d="M9.574 11.153l1.582-1.223-2.226-2.649 3.338-2.604c0.519-0.423 1.188-0.68 1.918-0.68 0.133 0 0.264 0.009 0.393 0.025l-0.015-0.002c0.946 0.121 1.759 0.613 2.298 1.325l0.006 0.008 1.582-1.223c-0.867-1.136-2.155-1.912-3.628-2.094l-0.026-0.003c-0.181-0.023-0.39-0.036-0.602-0.036-1.203 0-2.308 0.42-3.177 1.12l0.010-0.008-3.338 2.602c-0.783 0.633-0.91 1.813-0.281 2.625zM23.396 15.362c0.508 0.406 1.159 0.651 1.867 0.652h3.737c1.657 0 3-1.343 3-3s-1.343-3-3-3v0h-2.684l-1.332-1.066c0.149 0.025 0.327 0.044 0.507 0.052l0.009 0c0.001 0 0.003 0 0.004 0 2.488 0 4.504-2.017 4.504-4.504s-2.017-4.504-4.504-4.504c-2.488 0-4.504 2.017-4.504 4.504 0 0.628 0.129 1.227 0.361 1.77l-0.011-0.029c-0.331-0.141-0.716-0.224-1.12-0.224-0.738 0-1.412 0.274-1.926 0.726l0.003-0.003-6.203 4.938c-0.772 0.657-1.153 1.551-1.098 2.496 0.054 0.969 0.564 1.809 1.317 2.314l0.011 0.007 4.666 3.114v5.394c0 1.657 1.343 3 3 3s3-1.343 3-3v0-7c0-0.001 0-0.002 0-0.003 0-1.035-0.525-1.947-1.322-2.485l-0.011-0.007-0.833-0.563 1.031-0.795zM25.5 2c1.381 0 2.5 1.119 2.5 2.5s-1.119 2.5-2.5 2.5c-1.381 0-2.5-1.119-2.5-2.5v0c0-1.381 1.119-2.5 2.5-2.5v0zM20.556 17.168c0.27 0.182 0.444 0.486 0.444 0.831 0 0 0 0 0 0v-0 7c0 0.552-0.448 1-1 1s-1-0.448-1-1v0-6.465l-5.554-3.703c-0.27-0.182-0.445-0.486-0.445-0.832 0-0.303 0.135-0.574 0.347-0.758l0.001-0.001 6.263-4.986c0.174-0.15 0.402-0.241 0.651-0.241 0.237 0 0.455 0.082 0.626 0.22l-0.002-0.002 4.727 3.781h3.386c0.552 0 1 0.448 1 1s-0.448 1-1 1v0h-3.738c-0 0-0 0-0.001 0-0.237 0-0.455-0.082-0.626-0.22l0.002 0.002-2.756-2.188-4.463 3.446zM8 20.5c-1.933 0-3.5 1.567-3.5 3.5s1.567 3.5 3.5 3.5c1.933 0 3.5-1.567 3.5-3.5v0c-0.002-1.932-1.568-3.498-3.5-3.5h-0zM8 25.5c-0.828 0-1.5-0.672-1.5-1.5s0.672-1.5 1.5-1.5c0.828 0 1.5 0.672 1.5 1.5v0c0 0.828-0.672 1.5-1.5 1.5v0zM38.563 21.302c-0.006-0.012-0.009-0.024-0.016-0.036 0.173-0.279 0.276-0.617 0.276-0.979 0-0.518-0.21-0.986-0.549-1.326l-1.238-1.238c-0.344-0.334-0.814-0.54-1.332-0.54-0.359 0-0.694 0.099-0.981 0.27l0.009-0.005-0.035-0.014c-0.205-0.829-0.942-1.435-1.821-1.436h-1.75c-0.88 0.001-1.618 0.607-1.819 1.425l-0.003 0.013-0.037 0.016c-0.278-0.172-0.616-0.273-0.977-0.273-0.518 0-0.987 0.209-1.328 0.548l-1.237 1.237c-0.338 0.34-0.547 0.809-0.547 1.326 0 0.361 0.102 0.699 0.279 0.986l-0.005-0.008c-0.005 0.010-0.010 0.022-0.015 0.034l-0.001 0.002c-0.829 0.206-1.433 0.942-1.436 1.82v1.75c0.002 0.88 0.608 1.617 1.425 1.82l0.013 0.003c0.004 0.012 0.010 0.024 0.014 0.036-0.172 0.278-0.273 0.615-0.273 0.976 0 0.518 0.209 0.987 0.548 1.327l1.237 1.237c0.34 0.338 0.81 0.548 1.328 0.548 0.361 0 0.698-0.102 0.985-0.278l-0.008 0.005 0.037 0.014c0.205 0.829 0.942 1.435 1.82 1.436h1.75c0.88-0 1.618-0.607 1.82-1.425l0.003-0.013 0.037-0.014c0.279 0.172 0.616 0.274 0.977 0.274 0.518 0 0.987-0.209 1.328-0.548l-0 0 1.236-1.238c0.338-0.34 0.547-0.808 0.547-1.326 0-0.362-0.102-0.699-0.279-0.986l0.005 0.008c0.006-0.010 0.011-0.022 0.015-0.035l0-0.002c0.829-0.206 1.433-0.943 1.436-1.821v-1.75c-0-0.88-0.607-1.619-1.425-1.82l-0.013-0.003zM37.1 24.75l-0.215 0.712c-0.113 0.367-0.247 0.683-0.41 0.982l0.014-0.027-0.358 0.658 0.531 0.527 0.199 0.023-1.063 1.238-0.729-0.729-0.656 0.356c-0.272 0.151-0.587 0.285-0.918 0.385l-0.035 0.009-0.711 0.214v0.744l0.125 0.159-1.625 0.125v-1.028l-0.713-0.214c-0.367-0.111-0.683-0.245-0.982-0.408l0.027 0.013-0.654-0.355-0.527 0.527-0.026 0.201-1.238-1.059 0.738-0.729-0.361-0.659c-0.15-0.271-0.284-0.587-0.385-0.917l-0.010-0.036-0.218-0.711h-0.742l-0.159 0.125-0.125-1.625h1.026l0.214-0.712c0.113-0.367 0.247-0.683 0.41-0.982l-0.014 0.027 0.358-0.658-0.531-0.527-0.199-0.023 1.063-1.237 0.728 0.729 0.656-0.356c0.271-0.151 0.586-0.285 0.916-0.386l0.035-0.009 0.715-0.212v-0.745l-0.127-0.159 1.625-0.125v1.028l0.712 0.214c0.368 0.112 0.685 0.247 0.984 0.41l-0.027-0.014 0.658 0.353 0.526-0.53 0.019-0.198 1.24 1.059-0.73 0.727 0.356 0.657c0.149 0.271 0.282 0.586 0.383 0.916l0.009 0.036 0.213 0.715h0.916l0.115 1.5zM14.566 21.302c-0.005-0.010-0.010-0.022-0.015-0.034l-0.001-0.003c0.171-0.278 0.273-0.615 0.273-0.976 0-0.518-0.209-0.987-0.548-1.328l-1.237-1.237c-0.601-0.603-1.598-0.707-2.304-0.274l-0.037-0.014c-0.205-0.83-0.943-1.435-1.822-1.436h-1.75c-0.88 0.001-1.618 0.607-1.819 1.425l-0.003 0.013-0.035 0.014c-0.279-0.172-0.616-0.274-0.977-0.274-0.518 0-0.987 0.209-1.328 0.548l-1.238 1.237c-0.339 0.34-0.548 0.809-0.548 1.327 0 0.362 0.102 0.7 0.28 0.987l-0.005-0.008c-0.004 0.011-0.010 0.023-0.014 0.034-0.831 0.204-1.437 0.942-1.438 1.821v1.75c0.001 0.88 0.607 1.618 1.425 1.82l0.013 0.003c0.004 0.013 0.008 0.025 0.014 0.035l-0-0.001c-0.173 0.279-0.275 0.617-0.275 0.979 0 0.518 0.209 0.987 0.548 1.327l1.238 1.237c0.34 0.339 0.809 0.548 1.326 0.548 0.362 0 0.7-0.102 0.987-0.28l-0.008 0.005c0.010 0.005 0.022 0.010 0.034 0.015l0.002 0.001c0.205 0.829 0.942 1.435 1.821 1.436h1.75c0.88-0 1.618-0.607 1.82-1.425l0.003-0.013 0.037-0.014c0.703 0.431 1.699 0.329 2.303-0.274l1.239-1.238c0.338-0.34 0.547-0.809 0.547-1.326 0-0.361-0.102-0.699-0.279-0.986l0.005 0.008c0.005-0.010 0.010-0.022 0.015-0.034l0.001-0.002c0.829-0.206 1.433-0.943 1.436-1.821v-1.754c-0.005-0.876-0.608-1.611-1.421-1.816l-0.013-0.003zM13.095 24.75l-0.213 0.716c-0.11 0.365-0.243 0.68-0.406 0.977l0.013-0.026-0.357 0.658 0.531 0.527 0.199 0.023-1.063 1.238-0.728-0.729-0.656 0.356c-0.272 0.151-0.587 0.285-0.918 0.385l-0.035 0.009-0.713 0.214v0.744l0.125 0.159-1.625 0.125v-1.029l-0.715-0.213c-0.368-0.112-0.685-0.246-0.984-0.41l0.027 0.013-0.658-0.354-0.526 0.531-0.019 0.198-1.238-1.059 0.73-0.727-0.356-0.657c-0.148-0.271-0.282-0.588-0.384-0.919l-0.010-0.038-0.214-0.711h-0.743l-0.16 0.125-0.125-1.625h1.028l0.214-0.712c0.112-0.368 0.247-0.686 0.41-0.985l-0.014 0.027 0.351-0.656-0.527-0.526-0.199-0.023 1.058-1.24 0.727 0.733 0.658-0.356c0.272-0.151 0.588-0.285 0.919-0.386l0.036-0.009 0.713-0.214v-0.744l-0.124-0.159 1.625-0.125v1.029l0.715 0.212c0.366 0.112 0.682 0.246 0.98 0.409l-0.027-0.013 0.654 0.354 0.527-0.527 0.026-0.201 1.234 1.063-0.723 0.727 0.353 0.654c0.148 0.271 0.282 0.588 0.385 0.918l0.010 0.037 0.214 0.712h0.912l0.114 1.5zM32 20.5c-1.933 0-3.5 1.567-3.5 3.5s1.567 3.5 3.5 3.5c1.933 0 3.5-1.567 3.5-3.5v0c-0.002-1.932-1.568-3.498-3.5-3.5h-0zM32 25.5c-0.828 0-1.5-0.672-1.5-1.5s0.672-1.5 1.5-1.5c0.828 0 1.5 0.672 1.5 1.5v0c0 0.828-0.672 1.5-1.5 1.5v0z"></path>
</svg>
