<!-- Generated by IcoMoon.io -->
<svg version="1.1" xmlns="http://www.w3.org/2000/svg" width="40" height="32" viewBox="0 0 40 32">
<title>biking-solid</title>
<path d="M25 6c1.657 0 3-1.343 3-3s-1.343-3-3-3c-1.657 0-3 1.343-3 3v0c0 1.657 1.343 3 3 3v0zM24.75 13.563c0.338 0.273 0.773 0.438 1.246 0.438 0.001 0 0.003 0 0.004 0h4c1.105 0 2-0.895 2-2s-0.895-2-2-2v0h-3.299l-4.451-3.563c-0.339-0.274-0.775-0.44-1.25-0.44-0.498 0-0.954 0.183-1.303 0.484l0.003-0.002-7 6c-0.429 0.369-0.698 0.912-0.698 1.518 0 0.691 0.351 1.3 0.884 1.66l0.007 0.005 5.108 3.408v6.93c0 1.105 0.895 2 2 2s2-0.895 2-2v0-8c-0-0.691-0.351-1.3-0.884-1.659l-0.007-0.005-2.585-1.723 3.641-3.12zM32 16c-4.418 0-8 3.582-8 8s3.582 8 8 8c4.418 0 8-3.582 8-8v0c0-4.418-3.582-8-8-8v0zM32 28c-2.209 0-4-1.791-4-4s1.791-4 4-4c2.209 0 4 1.791 4 4v0c0 2.209-1.791 4-4 4v0zM8 16c-4.418 0-8 3.582-8 8s3.582 8 8 8c4.418 0 8-3.582 8-8v0c0-4.418-3.582-8-8-8v0zM8 28c-2.209 0-4-1.791-4-4s1.791-4 4-4c2.209 0 4 1.791 4 4v0c0 2.209-1.791 4-4 4v0z"></path>
</svg>
