<!-- Generated by IcoMoon.io -->
<svg version="1.1" xmlns="http://www.w3.org/2000/svg" width="40" height="32" viewBox="0 0 40 32">
<title>biking-mountain-solid</title>
<path d="M25 6c1.657 0 3-1.343 3-3s-1.343-3-3-3c-1.657 0-3 1.343-3 3v0c0 1.657 1.343 3 3 3v0zM10.794 10.635c0.353 0.425 0.962 0.488 1.361 0.141l6.52-5.557c0.399-0.346 0.438-0.971 0.084-1.396-1.762-2.122-4.807-2.438-6.801-0.706l-3.633 3.047c-0.398 0.347-0.438 0.971-0.084 1.396zM15 22h-0.325c-0.151-0.501-0.335-0.934-0.559-1.341l0.018 0.036 0.229-0.229c0.181-0.181 0.293-0.431 0.293-0.707s-0.112-0.526-0.293-0.707l-1.414-1.414c-0.181-0.181-0.431-0.293-0.707-0.293s-0.526 0.112-0.707 0.293l-0.229 0.229c-0.372-0.206-0.804-0.389-1.257-0.528l-0.049-0.013v-0.325c0-0.552-0.448-1-1-1v0h-2c-0.552 0-1 0.448-1 1v0 0.325c-0.501 0.151-0.934 0.335-1.341 0.559l0.036-0.018-0.229-0.229c-0.181-0.181-0.431-0.293-0.707-0.293s-0.526 0.112-0.707 0.293l-1.414 1.414c-0.181 0.181-0.293 0.431-0.293 0.707s0.112 0.526 0.293 0.707l0.229 0.229c-0.206 0.372-0.389 0.804-0.528 1.257l-0.013 0.049h-0.325c-0.552 0-1 0.448-1 1v0 2c0 0.552 0.448 1 1 1v0h0.325c0.151 0.501 0.335 0.934 0.559 1.341l-0.018-0.036-0.229 0.229c-0.181 0.181-0.293 0.431-0.293 0.707s0.112 0.526 0.293 0.707l1.414 1.414c0.181 0.181 0.431 0.293 0.707 0.293s0.526-0.112 0.707-0.293l0.229-0.229c0.372 0.205 0.804 0.389 1.256 0.528l0.049 0.013v0.325c0 0.552 0.448 1 1 1v0h2c0.552 0 1-0.448 1-1v0-0.325c0.501-0.151 0.934-0.335 1.341-0.559l-0.036 0.018 0.229 0.229c0.181 0.181 0.431 0.293 0.707 0.293s0.526-0.112 0.707-0.293l1.414-1.414c0.181-0.181 0.293-0.431 0.293-0.707s-0.112-0.526-0.293-0.707l-0.229-0.229c0.206-0.372 0.39-0.804 0.528-1.257l0.013-0.049h0.324c0.552 0 1-0.448 1-1v0-2c0-0.552-0.448-1-1-1v0zM8 28c-2.209 0-4-1.791-4-4s1.791-4 4-4c2.209 0 4 1.791 4 4v0c0 2.209-1.791 4-4 4v0zM39 22h-0.325c-0.151-0.501-0.335-0.934-0.559-1.341l0.018 0.036 0.229-0.229c0.181-0.181 0.293-0.431 0.293-0.707s-0.112-0.526-0.293-0.707l-1.414-1.414c-0.181-0.181-0.431-0.293-0.707-0.293s-0.526 0.112-0.707 0.293l-0.229 0.229c-0.372-0.206-0.804-0.389-1.257-0.528l-0.049-0.013v-0.325c0-0.552-0.448-1-1-1v0h-2c-0.552 0-1 0.448-1 1v0 0.325c-0.501 0.151-0.933 0.335-1.341 0.559l0.036-0.018-0.229-0.229c-0.181-0.181-0.431-0.293-0.707-0.293s-0.526 0.112-0.707 0.293l-1.414 1.414c-0.181 0.181-0.293 0.431-0.293 0.707s0.112 0.526 0.293 0.707l0.229 0.229c-0.206 0.372-0.39 0.804-0.529 1.257l-0.013 0.049h-0.324c-0.552 0-1 0.448-1 1v0 2c0 0.552 0.448 1 1 1v0h0.325c0.151 0.501 0.335 0.934 0.559 1.341l-0.018-0.036-0.229 0.229c-0.181 0.181-0.293 0.431-0.293 0.707s0.112 0.526 0.293 0.707l1.414 1.414c0.181 0.181 0.431 0.293 0.707 0.293s0.526-0.112 0.707-0.293l0.229-0.229c0.372 0.205 0.804 0.389 1.256 0.528l0.049 0.013v0.325c0 0.552 0.448 1 1 1v0h2c0.552 0 1-0.448 1-1v0-0.325c0.502-0.151 0.934-0.335 1.342-0.559l-0.036 0.018 0.229 0.229c0.181 0.181 0.431 0.293 0.707 0.293s0.526-0.112 0.707-0.293l1.414-1.414c0.181-0.181 0.293-0.431 0.293-0.707s-0.112-0.526-0.293-0.707l-0.229-0.229c0.205-0.372 0.389-0.804 0.527-1.257l0.013-0.049h0.325c0.552 0 1-0.448 1-1v0-2c0-0.552-0.448-1-1-1v0zM32 28c-2.209 0-4-1.791-4-4s1.791-4 4-4c2.209 0 4 1.791 4 4v0c0 2.209-1.791 4-4 4v0zM24.75 13.563c0.339 0.273 0.774 0.438 1.248 0.438 0.001 0 0.001 0 0.002 0h4c1.105 0 2-0.895 2-2s-0.895-2-2-2v0h-3.299l-4.451-3.563c-0.339-0.274-0.775-0.44-1.25-0.44-0.498 0-0.954 0.183-1.303 0.484l0.003-0.002-7 6c-0.429 0.369-0.698 0.912-0.698 1.519 0 0.691 0.35 1.3 0.883 1.659l0.007 0.005 5.109 3.408v6.93c0 1.105 0.895 2 2 2s2-0.895 2-2v0-8c-0-0.691-0.351-1.3-0.884-1.659l-0.007-0.005-2.584-1.723 3.64-3.12z"></path>
</svg>
