<!-- Generated by IcoMoon.io -->
<svg version="1.1" xmlns="http://www.w3.org/2000/svg" width="40" height="32" viewBox="0 0 40 32">
<title>biking</title>
<path d="M7.5 17c-4.142 0-7.5 3.358-7.5 7.5s3.358 7.5 7.5 7.5c4.142 0 7.5-3.358 7.5-7.5v0c0-4.142-3.358-7.5-7.5-7.5v0zM7.5 30c-3.038 0-5.5-2.462-5.5-5.5s2.462-5.5 5.5-5.5c3.038 0 5.5 2.462 5.5 5.5v0c-0.004 3.036-2.464 5.496-5.5 5.5h-0zM32.5 17c-4.142 0-7.5 3.358-7.5 7.5s3.358 7.5 7.5 7.5c4.142 0 7.5-3.358 7.5-7.5v0c0-4.142-3.358-7.5-7.5-7.5v0zM32.5 30c-3.038 0-5.5-2.462-5.5-5.5s2.462-5.5 5.5-5.5c3.038 0 5.5 2.462 5.5 5.5v0c-0.004 3.036-2.464 5.496-5.5 5.5h-0zM23.394 15.362c0.508 0.406 1.159 0.651 1.868 0.652h3.738c1.657 0 3-1.343 3-3s-1.343-3-3-3v0h-2.684l-1.332-1.066c0.149 0.025 0.327 0.044 0.508 0.052l0.009 0c0.001 0 0.003 0 0.004 0 2.488 0 4.504-2.017 4.504-4.504s-2.017-4.504-4.504-4.504c-2.488 0-4.504 2.017-4.504 4.504 0 0.628 0.129 1.227 0.361 1.77l-0.011-0.029c-0.331-0.141-0.716-0.224-1.12-0.224-0.738 0-1.412 0.274-1.926 0.726l0.003-0.003-6.203 4.938c-0.772 0.657-1.153 1.551-1.098 2.496 0.054 0.969 0.564 1.809 1.317 2.314l0.011 0.007 4.667 3.114v5.394c0 1.657 1.343 3 3 3s3-1.343 3-3v0-7c0-0.001 0-0.002 0-0.003 0-1.035-0.525-1.947-1.322-2.485l-0.011-0.007-0.833-0.563 1.031-0.795zM25.5 2c1.381 0 2.5 1.119 2.5 2.5s-1.119 2.5-2.5 2.5c-1.381 0-2.5-1.119-2.5-2.5v0c0-1.381 1.119-2.5 2.5-2.5v0zM20.555 17.168c0.27 0.182 0.445 0.486 0.445 0.832 0 0 0 0 0 0v0 7c0 0.552-0.448 1-1 1s-1-0.448-1-1v0-6.465l-5.555-3.703c-0.27-0.182-0.445-0.486-0.445-0.832 0-0.303 0.135-0.575 0.348-0.758l0.001-0.001 6.263-4.986c0.174-0.15 0.402-0.241 0.651-0.241 0.237 0 0.455 0.082 0.626 0.22l-0.002-0.002 4.726 3.781h3.386c0.552 0 1 0.448 1 1s-0.448 1-1 1v0h-3.738c-0 0-0 0-0.001 0-0.237 0-0.455-0.082-0.626-0.22l0.002 0.002-2.756-2.188-4.464 3.444z"></path>
</svg>
