<!-- Generated by IcoMoon.io -->
<svg version="1.1" xmlns="http://www.w3.org/2000/svg" width="32" height="32" viewBox="0 0 32 32">
<title>binoculars-solid</title>
<path d="M26 3c0-0.553-0.448-1-1-1h-4c-0.552 0-1 0.447-1 1v3h6v-3zM3.994 9.999c-0.157 5.866-3.778 7.139-3.994 15.251v2.75c0 1.104 0.896 2 2 2h6c1.104 0 2-0.896 2-2v-10h2v-10h-6.010c-1.102 0-1.966 0.898-1.996 1.999zM28.006 9.999c-0.030-1.101-0.894-1.999-1.996-1.999h-6.010v10h2v10c0 1.104 0.896 2 2 2h6c1.104 0 2-0.896 2-2v-2.75c-0.216-8.111-3.837-9.385-3.994-15.251zM11 2h-4c-0.553 0-1 0.447-1 1v3h6v-3c0-0.553-0.447-1-1-1zM14 18h4v-10h-4v10z"></path>
</svg>
