<!-- Generated by IcoMoon.io -->
<svg version="1.1" xmlns="http://www.w3.org/2000/svg" width="32" height="32" viewBox="0 0 32 32">
<title>binoculars</title>
<path d="M31.979 25.25c-0.216-8.111-3.816-11.385-3.974-17.249-0.029-1.103-0.892-2.001-1.995-2.001h-0.010v-2c0-1.104-0.896-2-2-2h-4c-1.104 0-2 0.896-2 2v2h-4v-2c0-1.104-0.896-2-2-2h-4c-1.104 0-2 0.896-2 2v2h-0.010c-1.103 0-1.966 0.899-1.996 2.001-0.158 5.864-3.757 9.138-3.974 17.249l-0.021 1.75c0 1.657 1.343 3 3 3h8c1.657 0 3-1.343 3-3v-9h4v9c0 1.657 1.343 3 3 3h8c1.657 0 3-1.343 3-3l-0.021-1.75zM20 4h4v2h-4v-2zM8 4h4v2h-4v-2zM12 27c0 0.551-0.449 1-1 1h-8c-0.551 0-1-0.449-1-1 0 0 0.059-2.579 0.092-3h9.908v3zM12 22h-9.658c0.399-2.367 1.099-4.281 1.791-6.139 0.874-2.35 1.779-4.78 1.856-7.861h6.010v14zM14 16v-8h4v8h-4zM20 8h6.010l-0.004 0.055c0.081 3.026 0.986 5.456 1.86 7.806 0.691 1.858 1.393 3.771 1.791 6.139h-9.657v-14zM30 27c0 0.551-0.449 1-1 1h-8c-0.551 0-1-0.449-1-1v-3h9.907c0.034 0.421 0.093 3 0.093 3z"></path>
</svg>
