<!-- Generated by IcoMoon.io -->
<svg version="1.1" xmlns="http://www.w3.org/2000/svg" width="36" height="32" viewBox="0 0 36 32">
<title>biohazard-solid</title>
<path d="M17.994 7c1.163 0 2.262 0.237 3.3 0.6 0.831-0.644 1.475-1.519 1.844-2.544-1.575-0.681-3.313-1.063-5.137-1.063-1.819 0-3.556 0.375-5.131 1.056 0.369 1.025 1.012 1.9 1.844 2.544 1.031-0.356 2.125-0.594 3.281-0.594zM10.225 27.419c0.75-0.738 1.275-1.65 1.531-2.65-2.056-1.65-3.425-4.081-3.681-6.85-0.531-0.175-1.075-0.288-1.65-0.288-0.475 0-0.95 0.063-1.406 0.194 0.256 3.925 2.237 7.375 5.206 9.594zM24.238 24.756c0.256 1 0.781 1.919 1.531 2.656 2.962-2.219 4.944-5.669 5.188-9.594-0.45-0.125-0.919-0.188-1.387-0.188-0.575 0-1.125 0.119-1.663 0.294-0.256 2.762-1.625 5.181-3.669 6.831zM31.331 11.944c-1.1-0.65-2.269-1.037-3.456-1.244 0.375-1.106 0.625-2.275 0.625-3.513 0-2.563-0.906-5.050-2.563-7.013-0.156-0.188-0.413-0.231-0.625-0.113-0.206 0.119-0.3 0.375-0.225 0.606 0.281 0.863 0.413 1.644 0.413 2.406 0 4.237-3.363 7.681-7.5 7.681s-7.5-3.444-7.5-7.681c0-0.756 0.137-1.544 0.412-2.406 0.075-0.231-0.019-0.487-0.225-0.606-0.213-0.119-0.469-0.075-0.625 0.112-1.65 1.962-2.563 4.45-2.563 7.013 0 1.237 0.244 2.406 0.625 3.513-1.181 0.206-2.356 0.594-3.456 1.244-2.163 1.281-3.813 3.331-4.644 5.775-0.081 0.231 0.012 0.481 0.219 0.613 0.206 0.125 0.469 0.081 0.625-0.1 0.587-0.675 1.188-1.194 1.825-1.569 3.581-2.119 8.175-0.856 10.244 2.813s0.838 8.375-2.744 10.494c-0.637 0.381-1.375 0.65-2.237 0.837-0.231 0.050-0.4 0.262-0.4 0.506 0.006 0.25 0.169 0.456 0.406 0.5 2.481 0.487 5.038 0.050 7.2-1.231 1.125-0.663 2.056-1.531 2.831-2.506 0.775 0.975 1.706 1.844 2.831 2.506 2.163 1.281 4.719 1.719 7.2 1.231 0.238-0.044 0.4-0.25 0.406-0.5 0-0.244-0.163-0.456-0.4-0.506-0.869-0.181-1.6-0.456-2.238-0.837-3.581-2.119-4.813-6.825-2.744-10.494s6.662-4.931 10.244-2.813c0.638 0.381 1.237 0.894 1.825 1.569 0.156 0.181 0.419 0.225 0.625 0.1s0.3-0.381 0.219-0.613c-0.819-2.444-2.469-4.5-4.631-5.775zM17.994 20.006c-1.656 0-3-1.344-3-3s1.344-3 3-3 3 1.344 3 3-1.344 3-3 3z"></path>
</svg>
