<!-- Generated by IcoMoon.io -->
<svg version="1.1" xmlns="http://www.w3.org/2000/svg" width="36" height="32" viewBox="0 0 36 32">
<title>biohazard</title>
<path d="M18.006 6c1.106 0 2.175 0.169 3.181 0.475 0.406-0.531 0.694-1.15 0.819-1.838-1.262-0.406-2.606-0.631-4-0.631-1.4 0-2.75 0.231-4.012 0.638 0.119 0.688 0.412 1.313 0.819 1.837 1.012-0.313 2.081-0.481 3.194-0.481zM18 15.006c-1.106 0-2 0.894-2 2s0.894 2 2 2 2-0.894 2-2-0.894-2-2-2zM9.131 26.475c0.606-0.35 1.075-0.85 1.412-1.419-1.781-1.65-3.013-3.887-3.4-6.4-0.025 0-0.050-0.012-0.075-0.012-0.65 0-1.294 0.181-1.875 0.494 0.481 2.875 1.9 5.431 3.937 7.338zM35.919 17.288c-0.862-2.519-2.575-4.631-4.825-5.956-0.762-0.45-1.6-0.8-2.506-1.044 0.219-0.869 0.325-1.713 0.325-2.55 0-2.638-0.944-5.2-2.65-7.219-0.456-0.537-1.231-0.681-1.856-0.325-0.606 0.35-0.881 1.087-0.663 1.744 0.231 0.706 0.344 1.344 0.344 1.944 0 3.419-2.725 6.206-6.081 6.206s-6.081-2.781-6.081-6.206c0-0.6 0.113-1.237 0.338-1.938 0.219-0.669-0.056-1.406-0.669-1.75-0.613-0.35-1.387-0.219-1.85 0.325-1.713 2.019-2.656 4.581-2.656 7.219 0 0.838 0.106 1.681 0.325 2.55-0.906 0.25-1.744 0.6-2.506 1.044-2.25 1.319-3.962 3.438-4.825 5.956-0.231 0.663 0.031 1.387 0.637 1.756 0.606 0.363 1.387 0.238 1.856-0.3 0.481-0.55 0.962-0.969 1.475-1.269 1.394-0.819 3.019-1.038 4.575-0.619 1.581 0.425 2.9 1.45 3.719 2.887 1.681 2.969 0.681 6.775-2.231 8.488-0.512 0.3-1.106 0.519-1.813 0.669-0.688 0.144-1.175 0.756-1.169 1.462 0.006 0.7 0.506 1.306 1.194 1.444 0.688 0.131 1.381 0.2 2.069 0.2 1.9 0 3.775-0.5 5.431-1.475 0.781-0.456 1.506-1.031 2.169-1.706 0.669 0.681 1.394 1.25 2.169 1.706 2.25 1.325 4.913 1.781 7.494 1.275 0.694-0.131 1.181-0.725 1.194-1.444 0.006-0.706-0.488-1.319-1.169-1.462-0.712-0.15-1.3-0.369-1.813-0.669-2.913-1.712-3.913-5.519-2.231-8.488 0.819-1.438 2.137-2.462 3.719-2.887 1.556-0.419 3.181-0.2 4.575 0.619 0.512 0.3 0.994 0.712 1.475 1.269 0.469 0.538 1.25 0.656 1.862 0.294 0.619-0.369 0.875-1.087 0.65-1.75zM26.85 14.925c-2.106 0.563-3.856 1.925-4.938 3.831-2.225 3.913-0.894 8.938 2.95 11.194 0.012 0.006 0.019 0.012 0.025 0.012-1.3-0.106-2.569-0.5-3.706-1.169-0.881-0.519-1.688-1.231-2.4-2.113l-0.781-0.962-0.781 0.969c-0.712 0.881-1.519 1.594-2.4 2.113-1.137 0.669-2.406 1.063-3.706 1.169 0.006-0.006 0.019-0.012 0.025-0.012 3.85-2.262 5.175-7.281 2.956-11.194-1.081-1.906-2.838-3.269-4.944-3.831-0.688-0.188-1.388-0.275-2.075-0.275-1.394 0-2.769 0.369-4.006 1.088 0.744-1.094 1.712-2.012 2.85-2.681 0.869-0.506 1.825-0.85 2.931-1.044l1.156-0.2-0.381-1.113c-0.356-1.044-0.537-2.013-0.537-2.969 0-1.319 0.287-2.619 0.831-3.806 0.025 4.5 3.637 8.156 8.081 8.156 4.438 0 8.056-3.656 8.081-8.156 0.544 1.188 0.831 2.487 0.831 3.806 0 0.95-0.175 1.919-0.531 2.969l-0.381 1.106 1.156 0.2c1.106 0.194 2.063 0.531 2.931 1.044 1.137 0.669 2.106 1.588 2.85 2.681-1.856-1.075-4.019-1.369-6.087-0.813zM28.869 18.663c-0.387 2.512-1.619 4.75-3.406 6.406 0.344 0.569 0.806 1.069 1.406 1.425 2.044-1.906 3.462-4.463 3.944-7.338-0.587-0.319-1.231-0.5-1.887-0.5-0.019 0-0.038 0.006-0.056 0.006z"></path>
</svg>
