<!-- Generated by IcoMoon.io -->
<svg version="1.1" xmlns="http://www.w3.org/2000/svg" width="28" height="32" viewBox="0 0 28 32">
<title>birthday-cake-solid</title>
<path d="M28 24c-1.751 0-1.954-2-4.656-2-2.714 0-2.927 2-4.672 2-1.731 0-1.966-2-4.672-2-2.678 0-2.951 2-4.656 2-1.759 0-1.95-2-4.672-2s-2.916 2-4.672 2v-5c0-1.656 1.344-3 3-3h1v-9h4v9h4v-9h4v9h4v-9h4v9h1c1.656 0 3 1.344 3 3v5zM28 32h-28v-6c2.71 0 2.923-2 4.672-2 1.747 0 1.953 2 4.672 2 2.678 0 2.951-2 4.656-2 1.759 0 1.95 2 4.672 2 2.71 0 2.923-2 4.672-2 1.718 0 1.953 2 4.656 2v6zM6 6c-1.109 0-2-0.891-2-2 0-1.938 2-1.438 2-4 0.75 0 2 1.844 2 3.5s-0.891 2.5-2 2.5zM14 6c-1.109 0-2-0.891-2-2 0-1.938 2-1.438 2-4 0.75 0 2 1.844 2 3.5s-0.891 2.5-2 2.5zM22 6c-1.109 0-2-0.891-2-2 0-1.938 2-1.438 2-4 0.75 0 2 1.844 2 3.5s-0.891 2.5-2 2.5z"></path>
</svg>
