<!-- Generated by IcoMoon.io -->
<svg version="1.1" xmlns="http://www.w3.org/2000/svg" width="28" height="32" viewBox="0 0 28 32">
<title>birthday-cake</title>
<path d="M6 6c-1.109 0-2-0.891-2-2 0-1.938 2-1.438 2-4 0.75 0 2 1.844 2 3.5s-0.891 2.5-2 2.5zM14 6c-1.109 0-2-0.891-2-2 0-1.938 2-1.438 2-4 0.75 0 2 1.844 2 3.5s-0.891 2.5-2 2.5zM22 6c-1.109 0-2-0.891-2-2 0-1.938 2-1.438 2-4 0.75 0 2 1.844 2 3.5s-0.891 2.5-2 2.5zM25 16h-2v-9h-2v9h-6v-9h-2v9h-6v-9h-2v9h-2c-1.656 0-3 1.344-3 3v13h28v-13c0-1.656-1.344-3-3-3zM26 30h-24v-4.503c1.014-0.592 1.495-1.497 2.672-1.497 1.747 0 1.953 2 4.672 2 2.678 0 2.951-2 4.656-2 1.759 0 1.95 2 4.672 2 2.71 0 2.923-2 4.672-2 1.155 0 1.64 0.905 2.656 1.497v4.503zM26 22.977c-0.602-0.492-1.326-0.977-2.656-0.977-2.714 0-2.927 2-4.672 2-1.731 0-1.966-2-4.672-2-2.678 0-2.951 2-4.656 2-1.759 0-1.95-2-4.672-2-1.341 0-2.069 0.486-2.672 0.979v-3.979c0-0.551 0.449-1 1-1h22c0.551 0 1 0.449 1 1v3.977z"></path>
</svg>
