<!-- Generated by IcoMoon.io -->
<svg version="1.1" xmlns="http://www.w3.org/2000/svg" width="32" height="32" viewBox="0 0 32 32">
<title>blanket</title>
<path d="M27.887 24h-21.387c-0.275 0-0.5 0.225-0.5 0.5v1c0 0.275 0.225 0.5 0.5 0.5h21.5c2.206 0 4-1.794 4-4v-17c0-2.763-2.238-5-5-5h-22c-2.763 0-5 2.237-5 5v20c0 3.869 3.131 7 7 7h24.5c0.275 0 0.5-0.225 0.5-0.5v-1c0-0.275-0.225-0.5-0.5-0.5h-24.275c-2.612 0-4.944-1.9-5.2-4.5-0.294-2.981 2.050-5.5 4.975-5.5h21c1.212 0 2.181 1.087 1.975 2.337-0.163 0.981-1.094 1.663-2.087 1.663zM28 18h-21c-1.963 0-3.725 0.813-5 2.119v-15.119c0-1.656 1.344-3 3-3h22c1.656 0 3 1.344 3 3v13.556c-0.594-0.344-1.269-0.556-2-0.556z"></path>
</svg>
