<!-- Generated by IcoMoon.io -->
<svg version="1.1" xmlns="http://www.w3.org/2000/svg" width="36" height="32" viewBox="0 0 36 32">
<title>blender-phone-solid</title>
<path d="M24.5 4h10.409l1.091-4h-24v22h18l1.091-4h-6.591c-0.276 0-0.5-0.224-0.5-0.5v-1c0-0.276 0.224-0.5 0.5-0.5h7.136l1.091-4h-8.227c-0.276 0-0.5-0.224-0.5-0.5v-1c0-0.276 0.224-0.5 0.5-0.5h8.773l1.091-4h-9.864c-0.276 0-0.5-0.224-0.5-0.5v-1c0-0.276 0.224-0.5 0.5-0.5zM9.925 20.938l-1.611-3.954c-0.174-0.426-0.612-0.687-1.077-0.641l-2.814 0.276c-1.080-2.934-1.103-6.236 0-9.232l2.814 0.276c0.464 0.046 0.904-0.216 1.077-0.641l1.611-3.954c0.189-0.462 0.012-0.991-0.418-1.254l-2.455-1.506c-0.896-0.549-2.047-0.339-2.743 0.441-5.786 6.475-5.75 16.222 0.131 22.656 0.617 0.675 1.82 0.78 2.603 0.3l2.463-1.511c0.431-0.264 0.606-0.792 0.418-1.254zM30 24h-18c-2.209 0-4 1.791-4 4v2c0 1.104 0.896 2 2 2h22c1.104 0 2-0.896 2-2v-2c0-2.209-1.791-4-4-4zM21 30c-1.104 0-2-0.896-2-2s0.896-2 2-2 2 0.896 2 2-0.896 2-2 2z"></path>
</svg>
