<!-- Generated by IcoMoon.io -->
<svg version="1.1" xmlns="http://www.w3.org/2000/svg" width="32" height="32" viewBox="0 0 32 32">
<title>blender-solid</title>
<path d="M26 24h-16c-2.209 0-4 1.791-4 4v2c0 1.104 0.896 2 2 2h20c1.104 0 2-0.896 2-2v-2c0-2.209-1.791-4-4-4zM18 30c-1.104 0-2-0.896-2-2s0.896-2 2-2 2 0.896 2 2-0.896 2-2 2zM20.5 4h10.409l1.091-4h-29c-1.657 0-3 1.343-3 3v10c0 1.657 1.343 3 3 3h6.454l0.546 6h16l1.091-4h-6.591c-0.276 0-0.5-0.224-0.5-0.5v-1c0-0.276 0.224-0.5 0.5-0.5h7.136l1.091-4h-8.227c-0.276 0-0.5-0.224-0.5-0.5v-1c0-0.276 0.224-0.5 0.5-0.5h8.773l1.091-4h-9.864c-0.276 0-0.5-0.224-0.5-0.5v-1c0-0.276 0.224-0.5 0.5-0.5zM4 12v-8h4.364l0.727 8h-5.091z"></path>
</svg>
