<!-- Generated by IcoMoon.io -->
<svg version="1.1" xmlns="http://www.w3.org/2000/svg" width="32" height="32" viewBox="0 0 32 32">
<title>blender</title>
<path d="M18 25c-0.829 0-1.5 0.671-1.5 1.5s0.671 1.5 1.5 1.5 1.5-0.672 1.5-1.5c0-0.829-0.671-1.5-1.5-1.5zM26.391 21.502l5.609-21.502h-29c-1.654 0-3 1.346-3 3v10c0 1.654 1.346 3 3 3h6.391l0.471 5.41c-2.254 0.864-3.862 3.032-3.862 5.59v3c0 1.104 0.896 2 2 2h20c1.104 0 2-0.896 2-2v-3c0-2.462-1.487-4.574-3.609-5.498zM3 14c-0.551 0-1-0.448-1-1v-10c0-0.552 0.449-1 1-1h5.174l1.044 12h-6.218zM29.411 2l-1.044 4h-9.867c-0.276 0-0.5 0.224-0.5 0.5v1c0 0.276 0.224 0.5 0.5 0.5h9.346l-1.044 4h-8.302c-0.276 0-0.5 0.224-0.5 0.5v1c0 0.276 0.224 0.5 0.5 0.5h7.781l-1.826 7h-12.621l-1.652-19h19.23zM28 30h-20v-3c0-2.206 1.794-4 4-4h12c2.206 0 4 1.794 4 4v3z"></path>
</svg>
