<!-- Generated by IcoMoon.io -->
<svg version="1.1" xmlns="http://www.w3.org/2000/svg" width="36" height="32" viewBox="0 0 36 32">
<title>blender-phone</title>
<path d="M30.391 21.502l5.609-21.502h-24l1.862 21.41c-2.254 0.864-3.862 3.032-3.862 5.59v3c0 1.104 0.896 2 2 2h20c1.104 0 2-0.896 2-2v-3c0-2.462-1.487-4.574-3.609-5.498zM33.411 2l-1.044 4h-9.867c-0.276 0-0.5 0.224-0.5 0.5v1c0 0.276 0.224 0.5 0.5 0.5h9.346l-1.044 4h-8.302c-0.276 0-0.5 0.224-0.5 0.5v1c0 0.276 0.224 0.5 0.5 0.5h7.781l-1.826 7h-12.621l-1.652-19h19.23zM32 30h-20v-3c0-2.206 1.794-4 4-4h12c2.206 0 4 1.794 4 4v3zM22 25c-0.829 0-1.5 0.671-1.5 1.5s0.671 1.5 1.5 1.5 1.5-0.672 1.5-1.5c0-0.829-0.671-1.5-1.5-1.5zM11.027 19.817l-1.476-3.623c-0.322-0.795-1.129-1.301-2.012-1.208l-1.783 0.175c-0.288-0.947-0.453-2.035-0.453-3.161 0-1.124 0.165-2.21 0.472-3.235l-0.021 0.080 1.785 0.175c0.858 0.092 1.688-0.41 2.010-1.205l1.479-3.626c0.357-0.881 0.027-1.881-0.785-2.378l-2.252-1.381c-1.213-0.743-2.807-0.501-3.783 0.59-5.658 6.333-5.601 15.838 0.129 22.108 0.519 0.569 1.313 0.871 2.113 0.871 0.537 0 1.076-0.136 1.535-0.417l2.256-1.385c0.815-0.499 1.145-1.499 0.787-2.379zM6.937 21.876c-0.324 0.203-0.896 0.153-1.125-0.098-5.037-5.51-5.086-13.862-0.113-19.426 0.205-0.231 0.486-0.351 0.766-0.351 0.166 0 0.332 0.043 0.479 0.134l2.233 1.3-1.441 3.595-3.349-0.328-0.266 0.724c-1.088 2.951-1.088 6.202 0 9.154l0.266 0.724 3.313-0.358 1.457 3.569-2.217 1.359z"></path>
</svg>
