<!-- Generated by IcoMoon.io -->
<svg version="1.1" xmlns="http://www.w3.org/2000/svg" width="32" height="32" viewBox="0 0 32 32">
<title>blinds-solid</title>
<path d="M6 14.184v-4.184h-5l-1 6h4.184c0.308-0.85 0.966-1.508 1.795-1.81l0.021-0.007zM9.816 18c-0.419 1.174-1.521 1.999-2.816 1.999s-2.397-0.825-2.81-1.979l-0.006-0.021h-3.184l-1 6h32l-1-6zM1 26l-1 6h32l-1-6zM32 3v-2c0-0.552-0.448-1-1-1v0h-30c-0.552 0-1 0.448-1 1v0 2c0.001 0.434 0.281 0.803 0.671 0.935l0.007 0.002-0.677 4.063h6v-4h2v4h24l-0.677-4.063c0.396-0.135 0.676-0.503 0.677-0.937v-0zM8 10v4.184c0.85 0.308 1.508 0.966 1.81 1.795l0.007 0.021h22.184l-1-6z"></path>
</svg>
