<!-- Generated by IcoMoon.io -->
<svg version="1.1" xmlns="http://www.w3.org/2000/svg" width="24" height="32" viewBox="0 0 24 32">
<title>blind-solid</title>
<path d="M23.759 31.927c-0.074 0.046-0.164 0.073-0.259 0.073-0.18 0-0.338-0.095-0.426-0.238l-0.001-0.002-7.833-12.902c0.325-0.131 0.597-0.334 0.807-0.589l0.003-0.003 7.878 12.976c0.046 0.074 0.073 0.164 0.073 0.259 0 0.18-0.095 0.338-0.238 0.426l-0.002 0.001zM8.925 19.646l-2.034 5.593 2.258 5.518c0.418 1.023 1.586 1.512 2.608 1.094s1.512-1.586 1.094-2.608l-3.926-9.596zM6 5.5c1.519 0 2.75-1.231 2.75-2.75s-1.231-2.75-2.75-2.75-2.75 1.231-2.75 2.75 1.231 2.75 2.75 2.75zM15.677 16.070l-7.5-9.5c-0.296-0.375-0.734-0.569-1.177-0.569v-0.001l-2 0.002c-0.447 0-0.889 0.198-1.184 0.577l-3.816 4.906v5.981c0 0.841 0.688 1.549 1.529 1.534 0.815-0.015 1.471-0.681 1.471-1.5v-4.985l1-1.286v8.794l-3.38 9.293c-0.378 1.038 0.158 2.186 1.196 2.563s2.186-0.158 2.563-1.196l4.12-11.331v-6.7l-1.963-2.489c-0.034-0.042-0.054-0.096-0.054-0.155 0-0.138 0.112-0.25 0.25-0.25 0.079 0 0.15 0.037 0.196 0.094l0 0.001 6.394 8.076c0.572 0.724 1.523 0.709 2.107 0.248 0.651-0.514 0.76-1.458 0.248-2.107z"></path>
</svg>
