<!-- Generated by IcoMoon.io -->
<svg version="1.1" xmlns="http://www.w3.org/2000/svg" width="32" height="32" viewBox="0 0 32 32">
<title>blinds-open</title>
<path d="M31 30h-30c-0.552 0-1 0.448-1 1s0.448 1 1 1v0h30c0.552 0 1-0.448 1-1s-0.448-1-1-1v0zM1 22h4.022c-0.436-0.561-0.757-1.234-0.916-1.967l-0.006-0.033h-3.101c-0.552 0-1 0.448-1 1s0.448 1 1 1v0zM31 20h-17.101c-0.165 0.766-0.486 1.439-0.93 2.011l0.008-0.011h18.023c0.552 0 1-0.448 1-1s-0.448-1-1-1v0zM31 0h-30c-0.552 0-1 0.448-1 1v0 4c0 0.552 0.448 1 1 1v0h7v4h-7c-0.552 0-1 0.448-1 1s0.448 1 1 1v0h7v4.184c-1.175 0.424-2 1.53-2 2.828 0 1.657 1.343 3 3 3s3-1.343 3-3c0-1.298-0.825-2.404-1.979-2.822l-0.021-0.007v-10.184h21c0.552 0 1-0.448 1-1v0-4c0-0.552-0.448-1-1-1v0zM9 20c-0.552 0-1-0.448-1-1s0.448-1 1-1c0.552 0 1 0.448 1 1v0c0 0.552-0.448 1-1 1v0zM30 4h-28v-2h28zM31 10h-19v2h19c0.552 0 1-0.448 1-1s-0.448-1-1-1v0z"></path>
</svg>
