<!-- Generated by IcoMoon.io -->
<svg version="1.1" xmlns="http://www.w3.org/2000/svg" width="32" height="32" viewBox="0 0 32 32">
<title>blinds</title>
<path d="M31.28 22h-2.063l0.5 2h-27.436l0.5-2h-2.063l-0.688 2.758c-0.019 0.073-0.030 0.156-0.030 0.242 0 0.552 0.447 0.999 0.999 1h30c0.552-0 1-0.448 1-1 0-0.086-0.011-0.17-0.031-0.249l0.002 0.007zM31.28 28h-2.063l0.5 2h-27.436l0.5-2h-2.063l-0.688 2.758c-0.019 0.073-0.030 0.156-0.030 0.242 0 0.552 0.447 0.999 0.999 1h30c0.552-0 1-0.448 1-1 0-0.086-0.011-0.17-0.031-0.249l0.002 0.007zM31 0h-30c-0.552 0-1 0.448-1 1v0 4c0 0.552 0.448 1 1 1v0h7v6h-5.719l1-4h-2.063l-1.188 4.758c-0.019 0.073-0.030 0.156-0.030 0.242 0 0.552 0.447 0.999 0.999 1h7v2.184c-0.85 0.308-1.508 0.966-1.81 1.795l-0.007 0.021h-3.902l0.5-2h-2.063l-0.688 2.758c-0.019 0.073-0.030 0.156-0.030 0.242 0 0.552 0.447 0.999 0.999 1h5.184c0.422 1.175 1.526 2.001 2.824 2.001 1.653 0 2.993-1.34 2.993-2.993 0-1.297-0.825-2.402-1.98-2.817l-0.021-0.007v-10.184h21c0.552 0 1-0.448 1-1v0-4c0-0.552-0.448-1-1-1v0zM9 20c-0.552 0-1-0.448-1-1s0.448-1 1-1c0.552 0 1 0.448 1 1v0c0 0.552-0.448 1-1 1v0zM30 4h-28v-2h28zM30.78 8h-2.063l1 4h-17.718v2h19c0.552-0 1-0.448 1-1 0-0.086-0.011-0.17-0.031-0.249l0.002 0.007zM31.28 16h-2.063l0.5 2h-15.818c0.064 0.301 0.101 0.646 0.101 1s-0.037 0.699-0.106 1.033l0.006-0.033h17.101c0.552-0 1-0.448 1-1 0-0.086-0.011-0.17-0.031-0.249l0.002 0.007z"></path>
</svg>
