<!-- Generated by IcoMoon.io -->
<svg version="1.1" xmlns="http://www.w3.org/2000/svg" width="32" height="32" viewBox="0 0 32 32">
<title>blinds-raised</title>
<path d="M31.28 14h-2.063l0.5 2h-17.718v2h19c0.552-0 1-0.448 1-1 0-0.086-0.011-0.17-0.031-0.249l0.002 0.007zM31.28 8h-2.063l0.5 2h-17.718v2h19c0.552-0 1-0.448 1-1 0-0.086-0.011-0.17-0.031-0.249l0.002 0.007zM31 0h-30c-0.552 0-1 0.448-1 1v0 4c0 0.552 0.448 1 1 1v0h7v4h-5.719l0.5-2h-2.063l-0.688 2.758c-0.019 0.073-0.030 0.156-0.030 0.242 0 0.552 0.447 0.999 0.999 1h7v4h-5.719l0.5-2h-2.063l-0.688 2.758c-0.019 0.073-0.030 0.156-0.030 0.242 0 0.552 0.447 0.999 0.999 1h7v8.184c-1.175 0.424-2 1.53-2 2.828 0 1.657 1.343 3 3 3s3-1.343 3-3c0-1.298-0.825-2.404-1.979-2.822l-0.021-0.007v-20.184h21c0.552 0 1-0.448 1-1v0-4c0-0.552-0.448-1-1-1v0zM9 30c-0.552 0-1-0.448-1-1s0.448-1 1-1c0.552 0 1 0.448 1 1v0c0 0.552-0.448 1-1 1v0zM30 4h-28v-2h28z"></path>
</svg>
