<!-- Generated by IcoMoon.io -->
<svg version="1.1" xmlns="http://www.w3.org/2000/svg" width="24" height="32" viewBox="0 0 24 32">
<title>blind</title>
<path d="M12.926 30.622c0.208 0.512-0.037 1.095-0.549 1.303s-1.095-0.036-1.303-0.549l-4.19-10.285 0.972-2.916 5.071 12.446zM6.416 7.596c-0.028-0.040-0.045-0.090-0.045-0.143 0-0.138 0.112-0.25 0.25-0.25 0.085 0 0.159 0.042 0.205 0.106l0.001 0.001 7.058 10.119c0.238 0.342 0.707 0.421 1.044 0.186 0.335-0.234 0.425-0.702 0.186-1.044l-7.5-10.75c-0.137-0.195-0.361-0.321-0.614-0.321-0 0-0.001 0-0.001 0h0v-0l-2 0.001c-0.206 0-0.411 0.084-0.559 0.249l-4.441 4.964v6.287c0 0.414 0.336 0.75 0.75 0.75s0.75-0.336 0.75-0.75v-5.713l3-3.353v12.404l-3.449 10.346c-0.175 0.524 0.109 1.090 0.632 1.265s1.090-0.108 1.265-0.632l4.551-13.654v-8.513l-1.084-1.553zM23.962 31.617l-8.6-13.713c-0.118 0.112-0.259 0.202-0.415 0.262l-0.009 0.003 8.6 13.713c0.045 0.072 0.123 0.12 0.213 0.12 0.138 0 0.25-0.112 0.25-0.25 0-0.050-0.015-0.097-0.040-0.136l0.001 0.001zM6 0c-1.381 0-2.5 1.119-2.5 2.5s1.119 2.5 2.5 2.5 2.5-1.119 2.5-2.5-1.119-2.5-2.5-2.5z"></path>
</svg>
