<!-- Generated by IcoMoon.io -->
<svg version="1.1" xmlns="http://www.w3.org/2000/svg" width="32" height="32" viewBox="0 0 32 32">
<title>blinds-open-solid</title>
<path d="M1 29l-1 3h32l-1-3zM4 13.013v-1.013h-3l-1 3h2.447c0.353-0.802 0.882-1.47 1.541-1.978l0.012-0.009zM10.974 20c-0.912 1.219-2.352 2-3.974 2s-3.063-0.781-3.965-1.987l-0.009-0.013h-2.026l-1 3h32l-1-3zM10 12v1.013c0.671 0.516 1.199 1.185 1.54 1.955l0.013 0.032h20.447l-1-3zM32 3v-2c0-0.552-0.448-1-1-1v0h-30c-0.552 0-1 0.448-1 1v0 2c0 0.552 0.448 1 1 1v0l-1 3h4v-3h2v10.184c-1.175 0.424-2 1.53-2 2.828 0 1.657 1.343 3 3 3s3-1.343 3-3c0-1.298-0.825-2.404-1.979-2.822l-0.021-0.007v-10.184h2v3h22l-1-3c0.552 0 1-0.448 1-1v0z"></path>
</svg>
