<!-- Generated by IcoMoon.io -->
<svg version="1.1" xmlns="http://www.w3.org/2000/svg" width="32" height="32" viewBox="0 0 32 32">
<title>blog</title>
<path d="M12.519 0c-0.281-0.006-0.512 0.225-0.512 0.506v0.994c0 0.275 0.219 0.488 0.494 0.494 9.55 0.237 17.25 7.956 17.5 17.506 0.006 0.275 0.225 0.494 0.494 0.494h1c0.281 0 0.513-0.231 0.506-0.512-0.269-10.619-8.863-19.212-19.481-19.481zM12.519 6c-0.281-0.013-0.512 0.225-0.512 0.506v1c0 0.269 0.219 0.487 0.488 0.5 6.238 0.25 11.281 5.263 11.512 11.5 0.012 0.269 0.225 0.488 0.5 0.488h0.988c0.281 0 0.512-0.231 0.506-0.512-0.269-7.313-6.169-13.213-13.481-13.481zM7.563 16h-0.563c-0.55 0-1 0.45-1 1v1c0 0.55 0.45 1 1 1h0.681c2.938 0 5.5 2.4 5.306 5.331-0.162 2.494-2.162 4.488-4.65 4.656-2.938 0.2-5.338-2.363-5.338-5.306v-14.681c0-0.55-0.45-1-1-1h-1c-0.55 0-1 0.45-1 1v14.563c0 4.637 3.756 8.656 8.394 8.431 4.1-0.2 7.4-3.5 7.6-7.6 0.219-4.637-3.794-8.394-8.431-8.394z"></path>
</svg>
