<!-- Generated by IcoMoon.io -->
<svg version="1.1" xmlns="http://www.w3.org/2000/svg" width="32" height="32" viewBox="0 0 32 32">
<title>blog-solid</title>
<path d="M10.762 14.175c-0.912-0.181-1.762 0.556-1.762 1.488v3.15c0 0.637 0.444 1.15 1.044 1.375 1.137 0.425 1.956 1.525 1.956 2.813 0 1.656-1.344 3-3 3s-3-1.344-3-3v-15.5c0-0.831-0.669-1.5-1.5-1.5h-3c-0.831 0-1.5 0.669-1.5 1.5v15.5c0 5.594 5.131 10.013 10.938 8.794 3.4-0.712 6.144-3.462 6.856-6.856 1.087-5.181-2.313-9.825-7.031-10.762zM13.063 0c-0.575-0.031-1.063 0.425-1.063 1v1.975c0 0.531 0.412 0.969 0.938 0.994 8.087 0.438 14.587 7 15.056 15.094 0.031 0.525 0.469 0.938 0.994 0.938h2.006c0.575 0 1.031-0.488 1-1.063-0.531-10.2-8.731-18.4-18.931-18.938zM13.081 6c-0.581-0.044-1.081 0.419-1.081 1.006v2.006c0 0.525 0.406 0.956 0.925 0.994 4.8 0.394 8.625 4.263 9.056 9.075 0.050 0.519 0.475 0.919 0.994 0.919h2.012c0.581 0 1.050-0.5 1.006-1.081-0.525-6.881-6.031-12.387-12.912-12.919z"></path>
</svg>
