<!-- Generated by IcoMoon.io -->
<svg version="1.1" xmlns="http://www.w3.org/2000/svg" width="24" height="32" viewBox="0 0 24 32">
<title>bold-solid</title>
<path d="M20.843 14.875c0.917-1.114 1.528-2.511 1.685-4.043l0.003-0.032c0.461-4.769-3.281-8.799-7.942-8.799h-12.464c-0.552 0-1 0.448-1 1v0 3c0 0.552 0.448 1 1 1v0h1.992v18h-1.992c-0.552 0-1 0.448-1 1v0 3c0 0.552 0.448 1 1 1v0h13.082c4.425 0 8.384-3.234 8.813-7.65 0.296-3.028-1.024-5.754-3.177-7.475zM9.104 7h5.485c1.657 0 3 1.343 3 3s-1.343 3-3 3v0h-5.485zM14.589 25h-5.485v-7h5.485c1.933 0 3.5 1.567 3.5 3.5s-1.567 3.5-3.5 3.5v0z"></path>
</svg>
