<!-- Generated by IcoMoon.io -->
<svg version="1.1" xmlns="http://www.w3.org/2000/svg" width="24" height="32" viewBox="0 0 24 32">
<title>bold</title>
<path d="M19.125 14.633c1.734-1.274 2.875-3.313 2.875-5.633 0-3.866-3.134-7-7-7v0h-12.5c-0.276 0-0.5 0.224-0.5 0.5v0 1c0 0.276 0.224 0.5 0.5 0.5v0h1.5v24h-1.5c-0.276 0-0.5 0.224-0.5 0.5v0 1c0 0.276 0.224 0.5 0.5 0.5v0h13.5c0.002 0 0.005 0 0.007 0 4.418 0 8-3.582 8-8 0-3.292-1.989-6.12-4.83-7.348l-0.052-0.020zM6 4h9c2.761 0 5 2.239 5 5s-2.239 5-5 5v0h-9zM16 28h-10v-12h10c3.314 0 6 2.686 6 6s-2.686 6-6 6v0z"></path>
</svg>
