<!-- Generated by IcoMoon.io -->
<svg version="1.1" xmlns="http://www.w3.org/2000/svg" width="20" height="32" viewBox="0 0 20 32">
<title>bolt</title>
<path d="M18.5 10h-7.213l2.662-8.113c0.25-0.95-0.469-1.887-1.45-1.887h-9c-0.75 0-1.388 0.556-1.487 1.3l-2 15c-0.119 0.9 0.581 1.7 1.488 1.7h7.419l-2.881 12.156c-0.225 0.95 0.5 1.844 1.456 1.844 0.519 0 1.025-0.275 1.3-0.75l11-19c0.581-0.994-0.137-2.25-1.294-2.25zM8.769 27.306l2.094-8.85 0.581-2.463h-9.375l1.869-13.994h7.869l-2.419 7.375-0.863 2.625h9.106l-8.863 15.306z"></path>
</svg>
