<!-- Generated by IcoMoon.io -->
<svg version="1.1" xmlns="http://www.w3.org/2000/svg" width="32" height="32" viewBox="0 0 32 32">
<title>bomb</title>
<path d="M26.294 4.294l-3.5 3.5-2.381-2.381c-0.781-0.781-2.050-0.781-2.831 0l-1.069 1.069c-1.119-0.313-2.3-0.481-3.519-0.481-6.994 0-12.787 5.619-12.988 12.613-0.212 7.356 5.688 13.387 12.994 13.387 7.194 0 13-5.887 13-13 0-1.219-0.169-2.4-0.481-3.519l1.069-1.069c0.781-0.781 0.781-2.050 0-2.831l-2.381-2.381 3.5-3.5-1.413-1.406zM23.275 14.894c0.363 1.281 0.725 2.363 0.725 4.106 0 6.012-4.906 11-11 11-1.512 0-2.981-0.3-4.356-0.894-4.075-1.762-6.775-5.838-6.638-10.438 0.169-5.912 5.069-10.669 10.994-10.669 1.744 0 2.819 0.363 4.106 0.725l1.894-1.894 6.169 6.169s-0.113 0.119-1.894 1.894zM32 4.5c0 0.412-0.337 0.75-0.75 0.75h-1.5c-0.413 0-0.75-0.338-0.75-0.75s0.337-0.75 0.75-0.75h1.5c0.413 0 0.75 0.338 0.75 0.75zM28.25 0.75v1.5c0 0.413-0.337 0.75-0.75 0.75s-0.75-0.337-0.75-0.75v-1.5c0-0.412 0.337-0.75 0.75-0.75s0.75 0.338 0.75 0.75zM28.563 3.438c-0.294-0.294-0.294-0.769 0-1.063l1.063-1.063c0.294-0.294 0.769-0.294 1.063 0s0.294 0.769 0 1.063l-1.063 1.063c-0.294 0.294-0.769 0.294-1.063 0zM24.319 2.381c-0.294-0.294-0.294-0.769 0-1.063s0.769-0.294 1.063 0l1.063 1.063c0.294 0.294 0.294 0.769 0 1.063s-0.769 0.294-1.063 0l-1.063-1.063zM30.681 6.619c0.294 0.294 0.294 0.769 0 1.063s-0.769 0.294-1.063 0l-1.063-1.063c-0.294-0.294-0.294-0.769 0-1.063s0.769-0.294 1.063 0l1.063 1.063zM12 12c0 0.55-0.45 1-1 1-2.206 0-4 1.794-4 4 0 0.55-0.45 1-1 1s-1-0.45-1-1c0-3.306 2.694-6 6-6 0.55 0 1 0.45 1 1z"></path>
</svg>
