<!-- Generated by IcoMoon.io -->
<svg version="1.1" xmlns="http://www.w3.org/2000/svg" width="32" height="32" viewBox="0 0 32 32">
<title>bomb-solid</title>
<path d="M27.531 5.531l-3.25 3.25 1.656 1.656c0.587 0.588 0.587 1.537 0 2.119l-1.087 1.088c0.738 1.631 1.15 3.444 1.15 5.35 0 7.181-5.819 13-13 13s-13-5.813-13-12.994 5.819-13 13-13c1.906 0 3.719 0.412 5.35 1.15l1.087-1.088c0.587-0.588 1.538-0.588 2.119 0l1.656 1.656 3.25-3.25 1.069 1.063zM31.25 3.75h-1.5c-0.413 0-0.75 0.338-0.75 0.75s0.337 0.75 0.75 0.75h1.5c0.413 0 0.75-0.338 0.75-0.75s-0.337-0.75-0.75-0.75zM27.5 0c-0.413 0-0.75 0.338-0.75 0.75v1.5c0 0.413 0.337 0.75 0.75 0.75s0.75-0.337 0.75-0.75v-1.5c0-0.412-0.337-0.75-0.75-0.75zM29.619 3.438l1.063-1.063c0.294-0.294 0.294-0.769 0-1.063s-0.769-0.294-1.063 0l-1.063 1.063c-0.294 0.294-0.294 0.769 0 1.063 0.3 0.294 0.775 0.294 1.063 0zM25.381 3.438c0.294 0.294 0.769 0.294 1.063 0s0.294-0.769 0-1.063l-1.063-1.063c-0.294-0.294-0.769-0.294-1.063 0s-0.294 0.769 0 1.063l1.063 1.063zM29.619 5.563c-0.294-0.294-0.769-0.294-1.063 0s-0.294 0.769 0 1.063l1.063 1.063c0.294 0.294 0.769 0.294 1.063 0s0.294-0.769 0-1.063l-1.063-1.063zM7 17c0-2.206 1.794-4 4-4 0.55 0 1-0.45 1-1s-0.45-1-1-1c-3.306 0-6 2.694-6 6 0 0.55 0.45 1 1 1s1-0.45 1-1z"></path>
</svg>
