<!-- Generated by IcoMoon.io -->
<svg version="1.1" xmlns="http://www.w3.org/2000/svg" width="40" height="32" viewBox="0 0 40 32">
<title>bone-solid</title>
<path d="M37.43 15.285c1.575-0.787 2.57-2.398 2.57-4.158v-0.477c0-2.568-2.081-4.649-4.649-4.649-2.001 0-3.777 1.281-4.411 3.179-0.48 1.439-0.725 2.821-2.382 2.821h-17.117c-1.711 0-1.974-1.596-2.382-2.821-0.633-1.898-2.409-3.179-4.41-3.179-2.568 0-4.649 2.081-4.649 4.649v0.477c0 1.761 0.995 3.371 2.57 4.158 0.589 0.294 0.589 1.136 0 1.43-1.575 0.788-2.57 2.398-2.57 4.158v0.477c0 2.568 2.081 4.649 4.649 4.649 2.001 0 3.778-1.281 4.411-3.179 0.48-1.439 0.725-2.821 2.382-2.821h17.117c1.711 0 1.974 1.596 2.382 2.821 0.633 1.898 2.41 3.179 4.411 3.179 2.568 0 4.649-2.081 4.649-4.649v-0.477c0-1.761-0.995-3.371-2.57-4.158-0.589-0.294-0.589-1.136 0.001-1.43z"></path>
</svg>
