<!-- Generated by IcoMoon.io -->
<svg version="1.1" xmlns="http://www.w3.org/2000/svg" width="40" height="32" viewBox="0 0 40 32">
<title>bone-break</title>
<path d="M37.528 10c1.806-1.109 2.472-2.771 2.472-4.816 0-2.858-2.377-5.184-5.301-5.184-2.281 0-4.301 1.422-5.026 3.537-0.474 1.414-0.451 1.463-1.174 1.463h-5.5c-1.104 0-2 0.896-2 2h7.5c2.029 0 2.508-1.15 3.064-2.814 0.449-1.308 1.709-2.186 3.135-2.186 1.82 0 3.301 1.429 3.301 3.184 0 1.465-0.43 2.599-1.814 3.272v0.001c-0.599 0.291-0.971 0.883-0.971 1.542s0.371 1.251 0.971 1.542v0.001c1.384 0.673 1.814 1.807 1.814 3.272 0 1.756-1.481 3.184-3.301 3.184-1.426 0-2.686-0.878-3.135-2.186-0.556-1.664-1.035-2.814-3.064-2.814h-3.5c-1.104 0-2 0.896-2 2h5.5c0.723 0 0.699 0.049 1.174 1.463 0.724 2.115 2.744 3.537 5.026 3.537 2.924 0 5.301-2.326 5.301-5.184 0-2.044-0.667-3.706-2.472-4.816zM20.454 18.617c-0.781-0.781-2.047-0.781-2.829 0l-2.475 2.475c-1.435 1.435-0.96 2.587-0.177 4.157 0.607 1.242 0.337 2.754-0.671 3.762-1.287 1.287-3.344 1.324-4.586 0.082-1.036-1.036-1.534-2.142-1.031-3.597l-0.001-0.001c0.218-0.63 0.062-1.311-0.404-1.777s-1.147-0.622-1.777-0.404l-0.001-0.001c-1.455 0.503-2.561 0.005-3.597-1.031-1.242-1.242-1.205-3.299 0.082-4.586 1.008-1.008 2.52-1.278 3.762-0.671 1.571 0.783 2.722 1.258 4.157-0.177l5.303-5.303c-0.781-0.781-2.047-0.781-2.828 0l-3.889 3.889c-0.511 0.511-0.529 0.46-1.864-0.204-2.007-0.983-4.441-0.561-6.053 1.053-2.067 2.067-2.103 5.393-0.083 7.414 1.446 1.446 3.092 2.149 5.154 1.657-0.492 2.061 0.211 3.708 1.657 5.154 2.021 2.021 5.347 1.986 7.414-0.082 1.613-1.613 2.036-4.046 1.052-6.054-0.664-1.335-0.716-1.353-0.204-1.864l3.888-3.89z"></path>
</svg>
