<!-- Generated by IcoMoon.io -->
<svg version="1.1" xmlns="http://www.w3.org/2000/svg" width="40" height="32" viewBox="0 0 40 32">
<title>bone-break-solid</title>
<path d="M37.43 9.285c1.575-0.787 2.57-2.397 2.57-4.158v-0.478c0-2.568-2.081-4.649-4.649-4.649-2.001 0-3.777 1.281-4.411 3.179l-0.484 1.454c-0.273 0.801-1.019 1.367-1.898 1.367h-6.559l2 4-2 4h6.559c0.861 0 1.625 0.551 1.898 1.367l0.484 1.454c0.633 1.898 2.409 3.179 4.41 3.179 2.568 0 4.649-2.081 4.649-4.649v-0.477c0-1.761-0.995-3.371-2.57-4.158-0.589-0.294-0.589-1.136 0.001-1.43zM20 17.657l-4-1.657-1.657-4-3.936 3.936c-0.609 0.609-1.539 0.759-2.309 0.374l-1.371-0.685c-1.79-0.895-3.951-0.544-5.367 0.871-1.816 1.816-1.816 4.759 0 6.575l0.337 0.337c1.245 1.245 3.087 1.68 4.758 1.123 0.625-0.208 1.219 0.386 1.011 1.011-0.557 1.671-0.122 3.512 1.123 4.758l0.338 0.337c1.816 1.816 4.759 1.816 6.575 0 1.415-1.415 1.766-3.577 0.871-5.367l-0.685-1.371c-0.385-0.77-0.234-1.7 0.374-2.309l3.937-3.934z"></path>
</svg>
