<!-- Generated by IcoMoon.io -->
<svg version="1.1" xmlns="http://www.w3.org/2000/svg" width="40" height="32" viewBox="0 0 40 32">
<title>bone</title>
<path d="M37.528 16c1.806-1.109 2.472-2.771 2.472-4.816 0-2.858-2.377-5.184-5.301-5.184-2.281 0-4.301 1.422-5.026 3.537-0.474 1.414-0.451 1.463-1.174 1.463h-17c-0.723 0-0.699-0.049-1.174-1.463-0.725-2.115-2.744-3.537-5.026-3.537-2.924 0-5.301 2.326-5.301 5.184 0 2.044 0.667 3.706 2.473 4.816-1.806 1.109-2.473 2.771-2.473 4.816 0 2.858 2.377 5.184 5.301 5.184 2.281 0 4.301-1.422 5.026-3.537 0.474-1.414 0.451-1.463 1.174-1.463h17c0.723 0 0.699 0.049 1.174 1.463 0.724 2.115 2.744 3.537 5.026 3.537 2.924 0 5.301-2.326 5.301-5.184 0-2.044-0.667-3.706-2.472-4.816zM34.699 24c-1.426 0-2.686-0.878-3.135-2.186-0.556-1.664-1.035-2.814-3.064-2.814h-17c-2.029 0-2.508 1.15-3.064 2.814-0.449 1.308-1.709 2.186-3.135 2.186-1.82 0-3.301-1.429-3.301-3.184 0-1.465 0.43-2.599 1.814-3.273v-0.001c0.599-0.291 0.971-0.883 0.971-1.542s-0.371-1.251-0.971-1.542v-0.001c-1.384-0.673-1.814-1.807-1.814-3.272 0-1.756 1.481-3.184 3.301-3.184 1.426 0 2.686 0.878 3.135 2.186 0.556 1.664 1.035 2.814 3.064 2.814h17c2.029 0 2.508-1.15 3.064-2.814 0.449-1.308 1.709-2.186 3.135-2.186 1.82 0 3.301 1.429 3.301 3.184 0 1.465-0.43 2.599-1.814 3.273v0.001c-0.599 0.291-0.971 0.883-0.971 1.542s0.371 1.251 0.971 1.542v0.001c1.384 0.673 1.814 1.808 1.814 3.273 0 1.756-1.481 3.184-3.301 3.184z"></path>
</svg>
