<!-- Generated by IcoMoon.io -->
<svg version="1.1" xmlns="http://www.w3.org/2000/svg" width="28" height="32" viewBox="0 0 28 32">
<title>bong-solid</title>
<path d="M18.906 32c1.449 0 2.777-0.786 3.5-2.041 1.012-1.755 1.594-3.787 1.594-5.959 0-2.258-0.63-4.363-1.715-6.164l2.715-2.715 0.586 0.586c0.391 0.391 1.024 0.391 1.414 0l0.706-0.707c0.391-0.391 0.391-1.024 0-1.414l-3.293-3.293c-0.391-0.391-1.024-0.391-1.414 0l-0.707 0.707c-0.391 0.391-0.391 1.024 0 1.414l0.586 0.586-2.463 2.463c-0.723-0.711-1.533-1.333-2.416-1.844v-9.635l0.998-0.001c0.551-0.001 0.998-0.448 0.999-0.999l0.003-1.982c0.001-0.553-0.448-1.002-1.001-1.001l-13.996 0.016c-0.551 0.001-0.998 0.448-0.999 0.999l-0.003 1.983c-0.001 0.553 0.448 1.001 1.001 1.001l0.998-0.001v9.621c-3.583 2.076-6 5.943-6 10.382 0 2.172 0.582 4.204 1.594 5.959 0.724 1.255 2.052 2.041 3.5 2.041h13.813zM7.504 16.214l1.496-0.867v-11.353l6-0.007v11.36l1.496 0.867c1.551 0.898 2.758 2.233 3.535 3.786h-16.063c0.778-1.552 1.984-2.887 3.535-3.786z"></path>
</svg>
