<!-- Generated by IcoMoon.io -->
<svg version="1.1" xmlns="http://www.w3.org/2000/svg" width="28" height="32" viewBox="0 0 28 32">
<title>bong</title>
<path d="M27.854 14.036l-3.889-3.889c-0.195-0.195-0.512-0.195-0.707 0l-0.707 0.707c-0.195 0.195-0.195 0.512 0 0.707l1.238 1.238-3.036 3.036c-0.807-0.862-1.724-1.619-2.753-2.215v-11.618h1.5c0.276 0 0.5-0.224 0.5-0.5v-1c0-0.276-0.224-0.5-0.5-0.5h-15.001c-0.276 0-0.5 0.224-0.5 0.5v1c0 0.276 0.224 0.5 0.5 0.5h1.5v11.619c-3.583 2.076-6 5.942-6 10.381 0 2.738 0.925 5.254 2.47 7.272 0.364 0.476 0.951 0.728 1.549 0.728h15.961c0.599 0 1.186-0.253 1.549-0.728 1.546-2.017 2.471-4.534 2.471-7.272 0-2.44-0.749-4.692-2.002-6.584l3.204-3.204 1.238 1.238c0.195 0.195 0.512 0.195 0.707 0l0.707-0.707c0.091-0.090 0.147-0.216 0.147-0.354s-0.056-0.263-0.146-0.353v0zM7.003 15.349l0.997-0.578v-12.772h8v12.771l0.997 0.578c1.871 1.084 3.302 2.733 4.147 4.651h-18.289c0.845-1.918 2.276-3.567 4.147-4.65zM19.981 30l-15.922 0.056c-1.347-1.758-2.058-3.852-2.058-6.056 0-0.68 0.091-1.346 0.227-2h19.547c0.136 0.654 0.227 1.32 0.227 2-0.001 2.204-0.712 4.298-2.020 6z"></path>
</svg>
