<!-- Generated by IcoMoon.io -->
<svg version="1.1" xmlns="http://www.w3.org/2000/svg" width="28" height="32" viewBox="0 0 28 32">
<title>book</title>
<path d="M22.25 10h-10.5c-0.412 0-0.75-0.338-0.75-0.75v-0.5c0-0.412 0.338-0.75 0.75-0.75h10.5c0.413 0 0.75 0.338 0.75 0.75v0.5c0 0.412-0.337 0.75-0.75 0.75zM23 13.25v-0.5c0-0.412-0.337-0.75-0.75-0.75h-10.5c-0.412 0-0.75 0.338-0.75 0.75v0.5c0 0.412 0.338 0.75 0.75 0.75h10.5c0.413 0 0.75-0.338 0.75-0.75zM27.044 30h0.206c0.413 0 0.75 0.337 0.75 0.75v0.5c0 0.413-0.337 0.75-0.75 0.75h-22.25c-2.763 0-5-2.238-5-5v-22c0-2.763 2.237-5 5-5h21.5c0.831 0 1.5 0.669 1.5 1.5v23c0 0.625-0.387 1.163-0.931 1.387-0.225 1.006-0.275 2.85-0.025 4.113zM8 24h18v-22h-18v22zM2 25c0.837-0.625 1.875-1 3-1h1v-22h-1c-1.656 0-3 1.344-3 3v20zM25.269 30c-0.194-1.275-0.181-2.825 0-4h-20.269c-4 0-4 4 0 4h20.269z"></path>
</svg>
