<!-- Generated by IcoMoon.io -->
<svg version="1.1" xmlns="http://www.w3.org/2000/svg" width="28" height="32" viewBox="0 0 28 32">
<title>book-medical</title>
<path d="M28 24.5v-23c0-0.001 0-0.002 0-0.004 0-0.826-0.67-1.496-1.496-1.496-0.001 0-0.003 0-0.004 0h-21.5c-2.761 0-5 2.239-5 5v0 23c0 2.209 1.791 4 4 4v0h23.25c0.414 0 0.75-0.336 0.75-0.75v0-0.5c0-0.414-0.336-0.75-0.75-0.75v0h-0.206c-0.25-1.262-0.2-3.106 0.025-4.113 0.55-0.231 0.929-0.765 0.931-1.387v-0zM25.269 30h-21.269c-1.105 0-2-0.895-2-2s0.895-2 2-2v0h21.269c-0.090 0.601-0.141 1.294-0.141 2s0.051 1.399 0.15 2.077l-0.009-0.077zM26 24h-22c-0.739 0.004-1.428 0.21-2.018 0.565l0.018-0.010v-19.555c0-1.657 1.343-3 3-3v0h21zM9.5 15h3.5v3.5c0 0.276 0.224 0.5 0.5 0.5v0h3c0.276 0 0.5-0.224 0.5-0.5v0-3.5h3.5c0.276 0 0.5-0.224 0.5-0.5v0-3c0-0.276-0.224-0.5-0.5-0.5v0h-3.5v-3.5c0-0.276-0.224-0.5-0.5-0.5v0h-3c-0.276 0-0.5 0.224-0.5 0.5v0 3.5h-3.5c-0.276 0-0.5 0.224-0.5 0.5v0 3c0 0.276 0.224 0.5 0.5 0.5v0z"></path>
</svg>
