<!-- Generated by IcoMoon.io -->
<svg version="1.1" xmlns="http://www.w3.org/2000/svg" width="32" height="32" viewBox="0 0 32 32">
<title>book-reader-solid</title>
<path d="M22 6c0-3.314-2.686-6-6-6s-6 2.686-6 6 2.686 6 6 6 6-2.686 6-6zM14.599 15.069c-3.708-2.27-9.714-2.894-12.737-3.066-1.016-0.057-1.863 0.716-1.863 1.693v13.925c0 0.896 0.724 1.642 1.656 1.691 2.729 0.143 8.249 0.668 12.065 2.589 0.586 0.295 1.28-0.107 1.28-0.742v-15.374c-0.001-0.292-0.145-0.559-0.401-0.716zM30.137 12.003c-3.022 0.171-9.029 0.796-12.736 3.066-0.256 0.157-0.401 0.435-0.401 0.727v15.362c0 0.637 0.696 1.039 1.284 0.744 3.815-1.92 9.332-2.444 12.061-2.587 0.931-0.049 1.656-0.796 1.656-1.691v-13.926c-0.001-0.977-0.848-1.751-1.863-1.693z"></path>
</svg>
