<!-- Generated by IcoMoon.io -->
<svg version="1.1" xmlns="http://www.w3.org/2000/svg" width="28" height="32" viewBox="0 0 28 32">
<title>book-user-solid</title>
<path d="M28 22.4v-20.8c0-1-0.6-1.6-1.6-1.6h-20.4c-3.4 0-6 2.6-6 6v20c0 3.4 2.6 6 6 6h20.4c0.8 0 1.6-0.6 1.6-1.6v-1q0-0.6-0.6-1.2c-0.2-1-0.2-3.8 0-4.6q0.6-0.3 0.6-1.2zM15 4c2.209 0 4 1.791 4 4s-1.791 4-4 4c-2.209 0-4-1.791-4-4v0c0-2.209 1.791-4 4-4v0zM8 17.6c0-1.988 1.881-3.6 4.2-3.6h0.313c0.736 0.316 1.592 0.5 2.491 0.5s1.755-0.184 2.533-0.516l-0.042 0.016h0.309c2.319 0 4.2 1.612 4.2 3.6v1.2c0 0.663-0.625 1.2-1.4 1.2h-11.203c-0.775 0-1.4-0.538-1.4-1.2zM23.8 28h-17.8c-1.2 0-2-0.8-2-2s1-2 2-2h17.8z"></path>
</svg>
