<!-- Generated by IcoMoon.io -->
<svg version="1.1" xmlns="http://www.w3.org/2000/svg" width="28" height="32" viewBox="0 0 28 32">
<title>book-dead-solid</title>
<path d="M17 8.5c0.55 0 1-0.45 1-1s-0.45-1-1-1-1 0.45-1 1 0.45 1 1 1zM28 22.4v-20.8c0-1-0.6-1.6-1.6-1.6h-20.4c-3.4 0-6 2.6-6 6v20c0 3.4 2.6 6 6 6h20.4c0.8 0 1.6-0.6 1.6-1.6v-1c0-0.4-0.2-0.8-0.6-1.2-0.2-1-0.2-3.8 0-4.6 0.4-0.2 0.6-0.6 0.6-1.2zM15 3.5c2.762 0 5 1.794 5 4 0 1.306-0.794 2.45-2 3.181v0.819c0 0.55-0.45 1-1 1h-4c-0.55 0-1-0.45-1-1v-0.819c-1.206-0.731-2-1.875-2-3.181 0-2.206 2.238-4 5-4zM7.8 13.956l0.394-0.919c0.106-0.256 0.4-0.369 0.656-0.262l6.144 2.631 6.15-2.631c0.256-0.106 0.55 0.006 0.656 0.262l0.394 0.919c0.106 0.256-0.006 0.55-0.262 0.656l-4.394 1.887 4.394 1.881c0.256 0.106 0.369 0.4 0.262 0.656l-0.394 0.919c-0.106 0.256-0.4 0.369-0.656 0.262l-6.144-2.631-6.144 2.637c-0.256 0.106-0.55-0.006-0.656-0.262l-0.394-0.919c-0.106-0.256 0.006-0.55 0.263-0.656l4.4-1.881-4.406-1.894c-0.256-0.106-0.369-0.4-0.263-0.656zM23.8 28h-17.8c-1.2 0-2-0.8-2-2s1-2 2-2h17.8zM13 8.5c0.55 0 1-0.45 1-1s-0.45-1-1-1-1 0.45-1 1 0.45 1 1 1z"></path>
</svg>
