<!-- Generated by IcoMoon.io -->
<svg version="1.1" xmlns="http://www.w3.org/2000/svg" width="36" height="32" viewBox="0 0 36 32">
<title>books-solid</title>
<path d="M35.944 27.703l-7.1-26.512c-0.207-0.772-0.994-1.39-1.96-1.131l-0.966 0.259c-0.386 0.104-0.721 0.4-1.004 0.89-0.877 0.434-3.269 1.076-4.25 1.139-0.49-0.283-0.928-0.373-1.314-0.269l-0.966 0.259c-0.151 0.041-0.262 0.122-0.384 0.192v-0.53c0-1.104-0.896-2-2-2h-4c-1.104 0-2 0.896-2 2v4h8l6.354 24.809c0.207 0.773 0.994 1.39 1.96 1.131l0.966-0.259c0.386-0.104 0.721-0.4 1.004-0.89 0.869-0.43 3.261-1.075 4.25-1.139 0.49 0.283 0.928 0.372 1.314 0.269l0.966-0.259c0.966-0.259 1.338-1.187 1.131-1.959zM27.544 27.262l-5.754-21.489 3.864-1.035 5.754 21.489-3.864 1.035zM0 24h8v-16h-8v16zM6 0h-4c-1.104 0-2 0.896-2 2v4h8v-4c0-1.104-0.896-2-2-2zM0 30c0 1.104 0.896 2 2 2h4c1.104 0 2-0.896 2-2v-4h-8v4zM10 24h8v-16h-8v16zM10 30c0 1.104 0.896 2 2 2h4c1.104 0 2-0.896 2-2v-4h-8v4z"></path>
</svg>
