<!-- Generated by IcoMoon.io -->
<svg version="1.1" xmlns="http://www.w3.org/2000/svg" width="28" height="32" viewBox="0 0 28 32">
<title>book-dead</title>
<path d="M13.5 10c0.55 0 1-0.45 1-1s-0.45-1-1-1-1 0.45-1 1 0.45 1 1 1zM16.5 10c0.55 0 1-0.45 1-1s-0.45-1-1-1-1 0.45-1 1 0.45 1 1 1zM11 12.713v0.787c0 0.825 0.675 1.5 1.5 1.5h5c0.825 0 1.5-0.675 1.5-1.5v-0.787c1.275-0.944 2-2.275 2-3.713 0-2.756-2.694-5-6-5s-6 2.244-6 5c0 1.438 0.725 2.769 2 3.713zM15 6c2.206 0 4 1.344 4 3 0 0.894-0.55 1.744-1.519 2.325l-0.481 0.294v1.381h-4v-1.381l-0.481-0.294c-0.963-0.581-1.519-1.431-1.519-2.325 0-1.656 1.794-3 4-3zM28 24.5v-23c0-0.831-0.669-1.5-1.5-1.5h-21.5c-2.763 0-5 2.237-5 5v23c0 2.206 1.794 4 4 4h23.25c0.413 0 0.75-0.337 0.75-0.75v-0.5c0-0.413-0.337-0.75-0.75-0.75h-0.206c-0.25-1.262-0.2-3.106 0.025-4.113 0.544-0.225 0.931-0.762 0.931-1.387zM25.269 30h-21.269c-1.106 0-2-0.894-2-2s0.894-2 2-2h21.269c-0.181 1.175-0.194 2.725 0 4zM26 24h-22c-0.731 0-1.406 0.212-2 0.556v-19.556c0-1.656 1.344-3 3-3h21zM7.8 20.775l0.394 0.919c0.106 0.256 0.4 0.369 0.656 0.262l6.144-2.637 6.15 2.631c0.256 0.106 0.55-0.006 0.656-0.262l0.394-0.919c0.106-0.256-0.006-0.55-0.262-0.656l-4.394-1.881 4.394-1.887c0.256-0.106 0.369-0.4 0.262-0.656l-0.394-0.919c-0.106-0.256-0.4-0.369-0.656-0.262l-6.144 2.644-6.144-2.631c-0.256-0.106-0.55 0.006-0.656 0.262l-0.394 0.919c-0.106 0.256 0.006 0.55 0.263 0.656l4.394 1.887-4.4 1.875c-0.25 0.113-0.369 0.406-0.263 0.656z"></path>
</svg>
