<!-- Generated by IcoMoon.io -->
<svg version="1.1" xmlns="http://www.w3.org/2000/svg" width="28" height="32" viewBox="0 0 28 32">
<title>book-heart-solid</title>
<path d="M28 22.5v-21c0-0.831-0.669-1.5-1.5-1.5h-20.5c-3.313 0-6 2.688-6 6v20c0 3.313 2.688 6 6 6h20.5c0.831 0 1.5-0.669 1.5-1.5v-1c0-0.469-0.219-0.894-0.556-1.169-0.262-0.962-0.262-3.706 0-4.669 0.337-0.269 0.556-0.694 0.556-1.163zM9.363 6.819c1.5-1.25 3.731-1.025 5.1 0.362l0.537 0.544 0.537-0.544c1.375-1.388 3.606-1.612 5.1-0.362 1.719 1.438 1.806 4.013 0.269 5.569l-5.294 5.35c-0.344 0.344-0.894 0.344-1.238 0l-5.294-5.35c-1.531-1.556-1.438-4.131 0.281-5.569zM23.837 28h-17.837c-1.106 0-2-0.894-2-2 0-1.1 0.9-2 2-2h17.837c-0.119 1.069-0.119 2.931 0 4z"></path>
</svg>
