<!-- Generated by IcoMoon.io -->
<svg version="1.1" xmlns="http://www.w3.org/2000/svg" width="28" height="32" viewBox="0 0 28 32">
<title>book-spells</title>
<path d="M4 9c0 0.379 0.215 0.724 0.553 0.894l2.367 1.184 1.186 2.369c0.17 0.339 0.516 0.553 0.894 0.553s0.724-0.214 0.894-0.553l1.184-2.369 2.369-1.184c0.338-0.169 0.553-0.516 0.553-0.894s-0.215-0.726-0.553-0.894l-2.369-1.184-1.184-2.369c-0.17-0.339-0.516-0.553-0.894-0.553s-0.724 0.214-0.894 0.553l-1.186 2.369-2.367 1.184c-0.338 0.17-0.553 0.516-0.553 0.894zM8.113 8.561c0.194-0.099 0.348-0.253 0.445-0.442l0.003-0.006 0.439-0.878 0.438 0.878c0.098 0.193 0.254 0.351 0.447 0.447l0.877 0.439-0.877 0.439c-0.194 0.099-0.348 0.253-0.445 0.442l-0.003 0.006-0.438 0.878-0.439-0.878c-0.099-0.194-0.253-0.348-0.442-0.445l-0.006-0.003-0.877-0.439 0.877-0.439zM12 16c0 0.379 0.215 0.724 0.553 0.894l3.035 1.518 1.518 3.035c0.17 0.339 0.516 0.552 0.894 0.552s0.724-0.214 0.894-0.552l1.518-3.035 3.035-1.517c0.338-0.17 0.552-0.516 0.552-0.894s-0.215-0.724-0.552-0.894l-3.035-1.518-1.517-3.035c-0.34-0.678-1.449-0.678-1.789 0l-1.518 3.035-3.035 1.518c-0.338 0.17-0.553 0.516-0.553 0.894zM16.781 15.227c0.194-0.099 0.348-0.253 0.445-0.442l0.003-0.006 0.771-1.544 0.771 1.544c0.098 0.193 0.254 0.351 0.448 0.447l1.545 0.773-1.545 0.773c-0.194 0.099-0.348 0.253-0.445 0.442l-0.003 0.006-0.771 1.544-0.771-1.544c-0.099-0.194-0.253-0.348-0.442-0.445l-0.006-0.003-1.545-0.773 1.545-0.773zM28 24.5v-23c0-0.831-0.669-1.5-1.5-1.5h-21.5c-2.763 0-5 2.237-5 5v23c0 2.209 1.791 4 4 4h23.25c0.413 0 0.75-0.337 0.75-0.75v-0.5c0-0.413-0.337-0.75-0.75-0.75h-0.206c-0.25-1.262-0.2-3.106 0.025-4.113 0.544-0.225 0.931-0.762 0.931-1.387zM25.269 30h-21.269c-1.104 0-2-0.896-2-2s0.896-2 2-2h21.269c-0.181 1.175-0.194 2.725 0 4zM26 24h-22c-0.732 0-1.409 0.211-2 0.555v-19.555c0-1.656 1.344-3 3-3h21v22z"></path>
</svg>
