<!-- Generated by IcoMoon.io -->
<svg version="1.1" xmlns="http://www.w3.org/2000/svg" width="32" height="32" viewBox="0 0 32 32">
<title>book-reader</title>
<path d="M28.744 12.001c-0.044 0-0.087 0.001-0.129 0.003-3.113 0.178-8.782 0.813-12.615 2.973-3.833-2.161-9.503-2.796-12.615-2.973-0.042-0.002-0.085-0.003-0.129-0.003-1.275-0.001-3.257 0.896-3.257 3.138v11.128c0 1.668 1.328 3.044 3.021 3.133 2.151 0.113 7.535 0.567 11.063 2.342 0.293 0.148 0.604 0.219 0.916 0.24v0.017h0.142c0.006 0 0.011 0.002 0.016 0.002h1.684c0.006 0 0.011-0.002 0.016-0.002h0.142v-0.017c0.313-0.021 0.624-0.093 0.916-0.24 3.527-1.774 8.912-2.228 11.063-2.342 1.693-0.089 3.021-1.465 3.021-3.133v-11.128c0-2.241-1.982-3.137-3.256-3.137zM15 29.959c-0.006-0.003-0.011-0.001-0.018-0.004-3.724-1.873-9.027-2.403-11.856-2.552-0.631-0.033-1.126-0.532-1.126-1.136v-11.128c0-0.378 0.111-0.625 0.371-0.825 0.279-0.215 0.654-0.313 0.9-0.313 2.313 0.132 8.079 0.661 11.729 2.71v13.249zM30 26.267c0 0.604-0.495 1.102-1.127 1.136-2.829 0.149-8.132 0.679-11.86 2.554-0.004 0.003-0.009 0.001-0.014 0.003v-13.249c3.649-2.049 9.416-2.578 11.719-2.709l0.024-0.001c0.012 0 1.256 0.031 1.256 1.138v11.128zM16 11.999c3.314 0 6-2.686 6-5.999s-2.686-6-6-6-6 2.686-6 5.999 2.686 6 6 6zM16 2c2.206 0 4 1.794 4 4s-1.794 4-4 4-4-1.794-4-4 1.794-4 4-4z"></path>
</svg>
