<!-- Generated by IcoMoon.io -->
<svg version="1.1" xmlns="http://www.w3.org/2000/svg" width="36" height="32" viewBox="0 0 36 32">
<title>book-open-solid</title>
<path d="M33.889 2.003c-3.425 0.194-10.233 0.902-14.435 3.474-0.29 0.178-0.454 0.493-0.454 0.823v22.742c0 0.722 0.789 1.178 1.455 0.843 4.324-2.176 10.577-2.77 13.669-2.933 1.056-0.056 1.876-0.902 1.876-1.916v-21.115c0.001-1.107-0.959-1.984-2.111-1.919zM16.546 5.478c-4.202-2.572-11.009-3.279-14.434-3.474-1.151-0.065-2.111 0.812-2.111 1.919v21.116c0 1.015 0.821 1.861 1.876 1.916 3.093 0.163 9.349 0.757 13.673 2.934 0.664 0.334 1.451-0.121 1.451-0.841v-22.758c0-0.331-0.164-0.634-0.454-0.812z"></path>
</svg>
