<!-- Generated by IcoMoon.io -->
<svg version="1.1" xmlns="http://www.w3.org/2000/svg" width="28" height="32" viewBox="0 0 28 32">
<title>book-heart</title>
<path d="M14.381 19.244c0.344 0.344 0.894 0.344 1.238 0l5.294-5.35c1.538-1.556 1.45-4.131-0.269-5.569-0.869-0.725-2.981-1.781-5.637 0.906-2.662-2.688-4.775-1.631-5.637-0.906-1.719 1.438-1.806 4.012-0.269 5.569l5.281 5.35zM10.644 9.863c0.856-0.719 1.95-0.213 2.4 0.231l1.963 1.981 1.962-1.981c0.444-0.45 1.538-0.95 2.4-0.231 0.9 0.75 0.769 1.975 0.131 2.625l-4.5 4.537-4.488-4.537c-0.644-0.65-0.769-1.875 0.131-2.625zM28 24.5v-23c0-0.831-0.669-1.5-1.5-1.5h-21.5c-2.763 0-5 2.237-5 5v23c0 2.206 1.794 4 4 4h23.25c0.413 0 0.75-0.337 0.75-0.75v-0.5c0-0.413-0.337-0.75-0.75-0.75h-0.206c-0.25-1.262-0.2-3.106 0.025-4.113 0.544-0.225 0.931-0.762 0.931-1.387zM25.269 30h-21.269c-1.106 0-2-0.894-2-2s0.894-2 2-2h21.269c-0.181 1.175-0.194 2.725 0 4zM26 24h-22c-0.731 0-1.406 0.212-2 0.556v-19.556c0-1.656 1.344-3 3-3h21v22z"></path>
</svg>
