<!-- Generated by IcoMoon.io -->
<svg version="1.1" xmlns="http://www.w3.org/2000/svg" width="36" height="32" viewBox="0 0 36 32">
<title>book-open</title>
<path d="M32.182 2h-0.010c-1.505 0.007-9.047 0.552-13.723 3.006-0.253 0.133-0.646 0.133-0.899 0-4.676-2.454-12.218-2.998-13.723-3.006h-0.010c-2.106 0-3.818 1.654-3.818 3.688v18.544c0 1.963 1.588 3.58 3.616 3.681 2.173 0.11 7.627 0.516 11.368 1.898 0.329 0.122 0.665 0.189 1.016 0.189h4c0.351 0 0.687-0.067 1.016-0.189 3.742-1.382 9.195-1.788 11.37-1.898 2.026-0.101 3.614-1.718 3.614-3.681v-18.544c0.001-2.034-1.712-3.688-3.818-3.688zM17 27.063c0 0.538-0.446 0.946-0.954 0.946-0.111 0-0.224-0.019-0.337-0.061-3.903-1.451-9.312-1.896-11.994-2.032-0.962-0.048-1.715-0.788-1.715-1.683v-18.544c0-0.931 0.816-1.688 1.818-1.688 1.205 0.006 7.654 0.461 12.008 2.393 0.704 0.313 1.165 0.984 1.166 1.74l0.008 6.27v12.659zM34 24.232c0 0.896-0.753 1.635-1.716 1.683-2.683 0.136-8.091 0.581-11.994 2.032-0.113 0.042-0.226 0.061-0.337 0.061-0.507 0-0.954-0.407-0.954-0.946v-12.659l0.008-6.27c0.001-0.756 0.462-1.428 1.166-1.74 4.354-1.932 10.802-2.387 12.008-2.393 1.002 0 1.818 0.757 1.818 1.688v18.544z"></path>
</svg>
