<!-- Generated by IcoMoon.io -->
<svg version="1.1" xmlns="http://www.w3.org/2000/svg" width="28" height="32" viewBox="0 0 28 32">
<title>book-medical-solid</title>
<path d="M28 22.4v-20.8c0-1-0.6-1.6-1.6-1.6h-20.4c-3.4 0-6 2.6-6 6v20c0 3.4 2.6 6 6 6h20.4c0.8 0 1.6-0.6 1.6-1.6v-1q0-0.6-0.6-1.2c-0.2-1-0.2-3.8 0-4.6q0.6-0.3 0.6-1.2zM9 10.5c0-0.276 0.224-0.5 0.5-0.5v0h3.5v-3.5c0-0.276 0.224-0.5 0.5-0.5v0h3c0.276 0 0.5 0.224 0.5 0.5v0 3.5h3.5c0.276 0 0.5 0.224 0.5 0.5v0 3c0 0.276-0.224 0.5-0.5 0.5v0h-3.5v3.5c0 0.276-0.224 0.5-0.5 0.5v0h-3c-0.276 0-0.5-0.224-0.5-0.5v0-3.5h-3.5c-0.276 0-0.5-0.224-0.5-0.5v0zM23.8 28h-17.8c-1.2 0-2-0.8-2-2s1-2 2-2h17.8z"></path>
</svg>
