<!-- Generated by IcoMoon.io -->
<svg version="1.1" xmlns="http://www.w3.org/2000/svg" width="40" height="32" viewBox="0 0 40 32">
<title>books-medical</title>
<path d="M39.958 28.527l-11.021-28.027c-0.106-0.294-0.383-0.5-0.707-0.5-0.001 0-0.002 0-0.002 0h0c-0.188 0-0.313 0.063-0.718 0.207s-0.614 0.515-0.392 1.149c-1.029 0.606-3.697 1.506-4.719 1.651-0.083-0.236-0.125-0.414-0.4-0.577v-0.43c0-1.104-0.895-2-1.999-2h-6c-0.375 0-0.701 0.129-1 0.306-0.299-0.177-0.625-0.306-1-0.306h-6c-1.105 0-2 0.895-2 2v0 4.848c0.571-0.262 1.239-0.484 1.935-0.634l0.065-0.012v-4.202h6v4.848c0.763 0.348 1.42 0.75 2.022 1.22l-0.022-0.017v-0.051h6v16h-6v-0.051c-0.58 0.453-1.237 0.855-1.938 1.178l-0.062 0.026v4.848h-6v-4.202c-0.761-0.161-1.429-0.384-2.062-0.671l0.062 0.025v4.848c0 1.105 0.895 2 2 2v0h6c0.375 0 0.701-0.129 1-0.306 0.299 0.177 0.625 0.306 1 0.306h6c1.105 0 2-0.895 2-2v0-22.57l9.464 24.070c0.107 0.294 0.384 0.5 0.709 0.5h0c0.188 0 0.313-0.063 0.718-0.207s0.614-0.514 0.392-1.149c1.029-0.606 3.697-1.506 4.719-1.651 0.228 0.65 0.633 0.791 1.024 0.654l0.472-0.165c0.295-0.106 0.502-0.382 0.502-0.708 0-0.089-0.015-0.174-0.044-0.252l0.002 0.005zM20 30h-6v-4h6zM20 6h-6v-4h6zM32.697 28.971l-9.71-24.291c1.576-0.296 4-1.271 4.719-1.651l9.71 24.291c-1.577 0.297-4.001 1.271-4.719 1.652zM16 16c0-4.418-3.582-8-8-8s-8 3.582-8 8c0 4.418 3.582 8 8 8v0c4.418 0 8-3.582 8-8v0zM2 16c0-3.314 2.686-6 6-6s6 2.686 6 6c0 3.314-2.686 6-6 6v0c-3.314 0-6-2.686-6-6v0zM9.333 19.667v-2.334h2.334c0.184 0 0.333-0.149 0.333-0.333v-2c0-0.184-0.149-0.333-0.333-0.333v0h-2.334v-2.334c0-0.184-0.149-0.333-0.333-0.333h-2c-0.184 0-0.333 0.149-0.333 0.333v0 2.334h-2.334c-0.184 0-0.333 0.149-0.333 0.333v0 2c0 0.184 0.149 0.333 0.333 0.333v0h2.334v2.334c0 0.184 0.149 0.333 0.333 0.333h2c0.184 0 0.333-0.149 0.333-0.333v0z"></path>
</svg>
