<!-- Generated by IcoMoon.io -->
<svg version="1.1" xmlns="http://www.w3.org/2000/svg" width="36" height="32" viewBox="0 0 36 32">
<title>books</title>
<path d="M35.958 28.527l-11.021-28.026c-0.108-0.307-0.399-0.501-0.709-0.501-0.188 0-0.311 0.064-0.718 0.207-0.404 0.141-0.614 0.515-0.392 1.149-1.029 0.606-3.697 1.506-4.719 1.651-0.083-0.236-0.123-0.414-0.4-0.577v-0.43c0-1.104-0.896-2-2-2h-6c-0.373 0-0.701 0.129-1 0.306-0.298-0.177-0.627-0.306-0.999-0.306h-6c-1.104 0-2 0.896-2 2v28c0 1.104 0.896 2 2 2h6c0.373 0 0.701-0.129 1-0.306 0.299 0.177 0.627 0.306 1 0.306h6c1.104 0 2-0.896 2-2v-22.57l9.464 24.069c0.108 0.308 0.4 0.501 0.709 0.501 0.188 0 0.31-0.064 0.718-0.207 0.402-0.141 0.614-0.514 0.392-1.149 1.029-0.606 3.697-1.506 4.719-1.651 0.228 0.65 0.633 0.791 1.024 0.654l0.472-0.165c0.389-0.137 0.596-0.567 0.46-0.955zM8 30h-6v-4h6v4zM8 24h-6v-16h6v16zM8 6h-6v-4h6v4zM16 30h-6v-4h6v4zM16 24h-6v-16h6v16zM16 6h-6v-4h6v4zM28.697 28.971l-9.71-24.291c1.576-0.296 4.001-1.271 4.719-1.651l9.71 24.291c-1.577 0.297-4.001 1.271-4.719 1.652z"></path>
</svg>
