<!-- Generated by IcoMoon.io -->
<svg version="1.1" xmlns="http://www.w3.org/2000/svg" width="28" height="32" viewBox="0 0 28 32">
<title>book-user</title>
<path d="M15 14c2.761 0 5-2.239 5-5s-2.239-5-5-5c-2.761 0-5 2.239-5 5v0c0.003 2.76 2.24 4.997 5 5h0zM15 6c1.657 0 3 1.343 3 3s-1.343 3-3 3c-1.657 0-3-1.343-3-3v0c0.002-1.656 1.344-2.998 3-3h0zM28 24.5v-23c0-0.001 0-0.002 0-0.004 0-0.826-0.67-1.496-1.496-1.496-0.001 0-0.003 0-0.004 0h-21.5c-2.761 0-5 2.239-5 5v0 23c0 2.209 1.791 4 4 4v0h23.25c0.414 0 0.75-0.336 0.75-0.75v0-0.5c0-0.414-0.336-0.75-0.75-0.75v0h-0.206c-0.25-1.262-0.2-3.106 0.025-4.113 0.55-0.231 0.929-0.765 0.931-1.387v-0zM25.269 30h-21.269c-1.105 0-2-0.895-2-2s0.895-2 2-2v0h21.269c-0.090 0.601-0.141 1.294-0.141 2s0.051 1.399 0.15 2.077l-0.009-0.077zM26 24h-22c-0.739 0.004-1.428 0.21-2.018 0.565l0.018-0.010v-19.555c0-1.657 1.343-3 3-3v0h21zM9.401 22h11.199c1.213 0 2.401-0.813 2.401-2.401 0-2.537-2.332-4.599-5.199-4.599-1.344 0.149-1.413 0.5-2.801 0.5s-1.457-0.349-2.801-0.5c-2.867 0-5.199 2.062-5.199 4.599 0 1.588 1.188 2.401 2.401 2.401zM12.199 17c0.291 0 1.152 0.5 2.801 0.5s2.509-0.5 2.801-0.5c1.762 0 3.199 1.166 3.199 2.599 0 0.201 0.026 0.401-0.401 0.401h-11.199c-0.426 0-0.401-0.199-0.401-0.401 0-1.433 1.438-2.599 3.199-2.599z"></path>
</svg>
