<!-- Generated by IcoMoon.io -->
<svg version="1.1" xmlns="http://www.w3.org/2000/svg" width="40" height="32" viewBox="0 0 40 32">
<title>books-medical-solid</title>
<path d="M8 8c-4.418 0-8 3.582-8 8s3.582 8 8 8c4.418 0 8-3.582 8-8v0c0-4.418-3.582-8-8-8v0zM12 17c0 0.184-0.149 0.333-0.333 0.333v0h-2.334v2.334c0 0.184-0.149 0.333-0.333 0.333h-2c-0.184 0-0.333-0.149-0.333-0.333v0-2.334h-2.334c-0.184 0-0.333-0.149-0.333-0.333v-2c0-0.184 0.149-0.333 0.333-0.333v0h2.334v-2.334c0-0.184 0.149-0.333 0.333-0.333h2c0.184 0 0.333 0.149 0.333 0.333v0 2.334h2.334c0.184 0 0.333 0.149 0.333 0.333v0zM4 30c0 1.105 0.895 2 2 2v0h4c1.105 0 2-0.895 2-2v0-4h-8zM12 2c0-1.105-0.895-2-2-2v0h-4c-1.105 0-2 0.895-2 2v0 4h8zM39.944 27.703l-7.1-26.512c-0.207-0.772-0.994-1.39-1.96-1.129l-0.966 0.256q-0.579 0.156-1.004 0.89c-0.875 0.434-3.269 1.076-4.25 1.139q-0.735-0.425-1.313-0.269l-0.968 0.259c-0.151 0.041-0.262 0.125-0.384 0.192v-0.53c0-1.105-0.895-2-2-2v0h-4c-1.105 0-2 0.895-2 2v0 4h8l6.354 24.809c0.209 0.773 0.994 1.39 1.959 1.129l0.966-0.259q0.579-0.156 1.004-0.89c0.869-0.43 3.261-1.075 4.25-1.139q0.735 0.425 1.313 0.269l0.968-0.256c0.967-0.259 1.339-1.187 1.132-1.959zM31.544 27.262l-5.754-21.489 3.864-1.035 5.754 21.489zM14 8.051c2.414 1.828 4 4.695 4 7.949s-1.586 6.125-4 7.949v0.051h8v-16h-8zM14 30c0 1.105 0.895 2 2 2v0h4c1.105 0 2-0.895 2-2v0-4h-8z"></path>
</svg>
