<!-- Generated by IcoMoon.io -->
<svg version="1.1" xmlns="http://www.w3.org/2000/svg" width="28" height="32" viewBox="0 0 28 32">
<title>book-spells-solid</title>
<path d="M28 22.4v-20.8c0-1-0.6-1.6-1.6-1.6h-20.4c-3.4 0-6 2.6-6 6v20c0 3.4 2.6 6 6 6h20.4c0.8 0 1.6-0.6 1.6-1.6v-1c0-0.4-0.2-0.8-0.6-1.2-0.2-1-0.2-3.8 0-4.6 0.4-0.2 0.6-0.6 0.6-1.2zM17 10l1.666 3.333 3.334 1.667-3.334 1.667-1.666 3.333-1.666-3.333-3.334-1.667 3.334-1.667 1.666-3.333zM10 6l1-2 1 2 2 1-2 1-1 2-1-2-2-1 2-1zM23.8 28h-17.8c-1.2 0-2-0.8-2-2s1-2 2-2h17.8v4z"></path>
</svg>
