<!-- Generated by IcoMoon.io -->
<svg version="1.1" xmlns="http://www.w3.org/2000/svg" width="40" height="32" viewBox="0 0 40 32">
<title>boombox-solid</title>
<path d="M28.938 16c-2.761 0-5 2.239-5 5s2.239 5 5 5c2.761 0 5-2.239 5-5v0c-0.003-2.76-2.24-4.997-5-5h-0zM10.938 16c-2.761 0-5 2.239-5 5s2.239 5 5 5c2.761 0 5-2.239 5-5v0c-0.003-2.76-2.24-4.997-5-5h-0zM37.938 10.184v-6.684c-0.002-1.932-1.568-3.498-3.5-3.5h-29c-1.932 0.002-3.498 1.568-3.5 3.5v6.684c-1.173 0.421-1.997 1.522-2 2.816v16c0 1.657 1.343 3 3 3v0h34c1.657 0 3-1.343 3-3v0-16c-0.003-1.294-0.827-2.396-1.979-2.81l-0.021-0.007zM10.938 28c-3.866 0-7-3.134-7-7s3.134-7 7-7c3.866 0 7 3.134 7 7v0c0 3.866-3.134 7-7 7v0zM20.938 8h-2c-0.552 0-1 0.448-1 1v0 1h-2v-1c0-0.552-0.448-1-1-1v0h-2c-0.552 0-1 0.448-1 1v0 1h-7v-6.5c0-0.276 0.224-0.5 0.5-0.5v0h29c0.276 0 0.5 0.224 0.5 0.5v0 6.5h-7v-1c0-0.552-0.448-1-1-1v0h-2c-0.552 0-1 0.448-1 1v0 1h-2v-1c0-0.552-0.448-1-1-1v0zM28.938 28c-3.866 0-7-3.134-7-7s3.134-7 7-7c3.866 0 7 3.134 7 7v0c0 3.866-3.134 7-7 7v0z"></path>
</svg>
