<!-- Generated by IcoMoon.io -->
<svg version="1.1" xmlns="http://www.w3.org/2000/svg" width="40" height="32" viewBox="0 0 40 32">
<title>boombox</title>
<path d="M11 14c-3.866 0-7 3.134-7 7s3.134 7 7 7c3.866 0 7-3.134 7-7v0c0-3.866-3.134-7-7-7v0zM11 26c-2.761 0-5-2.239-5-5s2.239-5 5-5c2.761 0 5 2.239 5 5v0c-0.003 2.76-2.24 4.997-5 5h-0zM29 14c-3.866 0-7 3.134-7 7s3.134 7 7 7c3.866 0 7-3.134 7-7v0c0-3.866-3.134-7-7-7v0zM29 26c-2.761 0-5-2.239-5-5s2.239-5 5-5c2.761 0 5 2.239 5 5v0c-0.003 2.76-2.24 4.997-5 5h-0zM37 10h-1v-6.5c-0.002-1.932-1.568-3.498-3.5-3.5h-25c-1.932 0.002-3.498 1.568-3.5 3.5v6.5h-1c-1.657 0-3 1.343-3 3v0 16c0 1.657 1.343 3 3 3v0h34c1.657 0 3-1.343 3-3v0-16c0-1.657-1.343-3-3-3v0zM6 3.5c0-0.828 0.672-1.5 1.5-1.5v0h25c0.828 0 1.5 0.672 1.5 1.5v0 6.5h-6v-1c0-0.552-0.448-1-1-1v0h-2c-0.552 0-1 0.448-1 1v0 1h-2v-1c0-0.552-0.448-1-1-1v0h-2c-0.552 0-1 0.448-1 1v0 1h-2v-1c0-0.552-0.448-1-1-1v0h-2c-0.552 0-1 0.448-1 1v0 1h-6zM38 29c0 0.552-0.448 1-1 1v0h-34c-0.552 0-1-0.448-1-1v0-16c0-0.552 0.448-1 1-1v0h34c0.552 0 1 0.448 1 1v0zM29 19c-1.105 0-2 0.895-2 2s0.895 2 2 2c1.105 0 2-0.895 2-2v0c0-1.105-0.895-2-2-2v0zM11 19c-1.105 0-2 0.895-2 2s0.895 2 2 2c1.105 0 2-0.895 2-2v0c0-1.105-0.895-2-2-2v0z"></path>
</svg>
