<!-- Generated by IcoMoon.io -->
<svg version="1.1" xmlns="http://www.w3.org/2000/svg" width="32" height="32" viewBox="0 0 32 32">
<title>booth-curtain</title>
<path d="M0 2v29.5c0 0.275 0.225 0.5 0.5 0.5h1c0.275 0 0.5-0.225 0.5-0.5v-29.5h4v22c0 2.206 1.794 4 4 4 1.2 0 2.269-0.544 3-1.381 0.731 0.837 1.8 1.381 3 1.381s2.269-0.544 3-1.381c0.731 0.837 1.8 1.381 3 1.381s2.269-0.544 3-1.381c0.731 0.837 1.8 1.381 3 1.381 0.731 0 1.406-0.212 2-0.556v4.056c0 0.275 0.225 0.5 0.5 0.5h1c0.275 0 0.5-0.225 0.5-0.5v-29.5c0-1.106-0.894-2-2-2h-28c-1.106 0-2 0.894-2 2zM26 2h4v22c0 1.106-0.894 2-2 2s-2-0.894-2-2v-22zM20 2h4v22c0 1.106-0.894 2-2 2s-2-0.894-2-2v-22zM14 2h4v22c0 1.106-0.894 2-2 2s-2-0.894-2-2v-22zM8 2h4v22c0 1.106-0.894 2-2 2s-2-0.894-2-2v-22z"></path>
</svg>
