<!-- Generated by IcoMoon.io -->
<svg version="1.1" xmlns="http://www.w3.org/2000/svg" width="32" height="32" viewBox="0 0 32 32">
<title>boot-solid</title>
<path d="M0 30l2 2h4l2-2 2 2h4l2-2 2 2h4l2-2 2 2h4l2-2v-2h-32v2zM22 5v-4c0-0.55-0.45-1-1-1h-20c-0.55 0-1 0.45-1 1v5h21c0.55 0 1-0.45 1-1zM27.456 17.863l-7.456-1.863h-3.5c-0.275 0-0.5-0.225-0.5-0.5v-1c0-0.275 0.225-0.5 0.5-0.5h3.5v-2h-3.5c-0.275 0-0.5-0.225-0.5-0.5v-1c0-0.275 0.225-0.5 0.5-0.5h3.5v-2h-20v18h32v-2.313c0-2.756-1.875-5.156-4.544-5.825z"></path>
</svg>
