<!-- Generated by IcoMoon.io -->
<svg version="1.1" xmlns="http://www.w3.org/2000/svg" width="32" height="32" viewBox="0 0 32 32">
<title>booth-curtain-solid</title>
<path d="M30 0h-2v31c0 0.55 0.45 1 1 1h2c0.55 0 1-0.45 1-1v-29c0-1.106-0.894-2-2-2zM0 2v29c0 0.55 0.45 1 1 1h2c0.55 0 1-0.45 1-1v-27h2v-4h-4c-1.106 0-2 0.894-2 2zM26 0h-18v25c0 1.656 1.344 3 3 3 0.919 0 1.744-0.413 2.294-1.063 0.356-0.425 1.056-0.425 1.412 0 0.55 0.65 1.375 1.063 2.294 1.063s1.744-0.413 2.294-1.063c0.356-0.425 1.056-0.425 1.413 0 0.55 0.65 1.375 1.063 2.294 1.063 1.656 0 3-1.344 3-3v-25z"></path>
</svg>
