<!-- Generated by IcoMoon.io -->
<svg version="1.1" xmlns="http://www.w3.org/2000/svg" width="32" height="32" viewBox="0 0 32 32">
<title>boot</title>
<path d="M25.938 15.488l-3.938-0.988v-6.5c1.106 0 2-0.894 2-2v-4c0-1.106-0.894-2-2-2h-20c-1.106 0-2 0.894-2 2v27.169c0 0.531 0.212 1.038 0.588 1.413l0.831 0.831c0.375 0.375 0.881 0.587 1.413 0.587h2.344c0.531 0 1.037-0.212 1.412-0.587l1.412-1.413 1.412 1.413c0.375 0.375 0.881 0.587 1.412 0.587h2.344c0.531 0 1.037-0.212 1.412-0.587l1.419-1.413 1.412 1.413c0.375 0.375 0.881 0.587 1.413 0.587h2.344c0.531 0 1.038-0.212 1.413-0.587l1.419-1.413 1.413 1.413c0.375 0.375 0.881 0.587 1.413 0.587h2.344c0.531 0 1.038-0.212 1.413-0.587l0.831-0.831c0.375-0.375 0.588-0.881 0.588-1.413v-5.925c0-3.669-2.5-6.869-6.063-7.756zM2 2h20v4h-20v-4zM30 29.169l-0.831 0.831h-2.344l-1.413-1.413c-0.375-0.375-0.881-0.587-1.413-0.587s-1.038 0.212-1.413 0.587l-1.419 1.413h-2.344l-1.413-1.413c-0.375-0.375-0.881-0.587-1.412-0.587s-1.037 0.212-1.412 0.587l-1.419 1.413h-2.344l-1.412-1.413c-0.375-0.375-0.881-0.587-1.412-0.587s-1.037 0.212-1.412 0.587l-1.419 1.413h-2.337l-0.831-0.831v-3.169h28v3.169zM30 24h-28v-16h18v2h-5.5c-0.275 0-0.5 0.225-0.5 0.5v1c0 0.275 0.225 0.5 0.5 0.5h5.5v2h-5.5c-0.275 0-0.5 0.225-0.5 0.5v1c0 0.275 0.225 0.5 0.5 0.5h5.5l5.456 1.425c2.675 0.669 4.544 3.063 4.544 5.819v0.756z"></path>
</svg>
