<!-- Generated by IcoMoon.io -->
<svg version="1.1" xmlns="http://www.w3.org/2000/svg" width="28" height="32" viewBox="0 0 28 32">
<title>border-bottom</title>
<path d="M27.5 28h-27c-0.276 0-0.5 0.224-0.5 0.5v0 1c0 0.276 0.224 0.5 0.5 0.5v0h27c0.276 0 0.5-0.224 0.5-0.5v0-1c0-0.276-0.224-0.5-0.5-0.5v0zM13.5 17.5h1c0.552 0 1-0.448 1-1v0-1c0-0.552-0.448-1-1-1v0h-1c-0.552 0-1 0.448-1 1v0 1c0 0.552 0.448 1 1 1v0zM13.5 23.5h1c0.552 0 1-0.448 1-1v0-1c0-0.552-0.448-1-1-1v0h-1c-0.552 0-1 0.448-1 1v0 1c0 0.552 0.448 1 1 1v0zM7.5 17.5h1c0.552 0 1-0.448 1-1v0-1c0-0.552-0.448-1-1-1v0h-1c-0.552 0-1 0.448-1 1v0 1c0 0.552 0.448 1 1 1v0zM7.5 5h1c0.552 0 1-0.448 1-1v0-1c0-0.552-0.448-1-1-1v0h-1c-0.552 0-1 0.448-1 1v0 1c0 0.552 0.448 1 1 1v0zM19.5 17.5h1c0.552 0 1-0.448 1-1v0-1c0-0.552-0.448-1-1-1v0h-1c-0.552 0-1 0.448-1 1v0 1c0 0.552 0.448 1 1 1v0zM19.5 5h1c0.552 0 1-0.448 1-1v0-1c0-0.552-0.448-1-1-1v0h-1c-0.552 0-1 0.448-1 1v0 1c0 0.552 0.448 1 1 1v0zM13.5 11.5h1c0.552 0 1-0.448 1-1v0-1c0-0.552-0.448-1-1-1v0h-1c-0.552 0-1 0.448-1 1v0 1c0 0.552 0.448 1 1 1v0zM13.5 5h1c0.552 0 1-0.448 1-1v0-1c0-0.552-0.448-1-1-1v0h-1c-0.552 0-1 0.448-1 1v0 1c0 0.552 0.448 1 1 1v0zM1 5h1c0.552 0 1-0.448 1-1v0-1c0-0.552-0.448-1-1-1v0h-1c-0.552 0-1 0.448-1 1v0 1c0 0.552 0.448 1 1 1v0zM27 8.5h-1c-0.552 0-1 0.448-1 1v0 1c0 0.552 0.448 1 1 1v0h1c0.552 0 1-0.448 1-1v0-1c0-0.552-0.448-1-1-1v0zM27 2h-1c-0.552 0-1 0.448-1 1v0 1c0 0.552 0.448 1 1 1v0h1c0.552 0 1-0.448 1-1v0-1c0-0.552-0.448-1-1-1v0zM27 14.5h-1c-0.552 0-1 0.448-1 1v0 1c0 0.552 0.448 1 1 1v0h1c0.552 0 1-0.448 1-1v0-1c0-0.552-0.448-1-1-1v0zM27 20.5h-1c-0.552 0-1 0.448-1 1v0 1c0 0.552 0.448 1 1 1v0h1c0.552 0 1-0.448 1-1v0-1c0-0.552-0.448-1-1-1v0zM1 11.5h1c0.552 0 1-0.448 1-1v0-1c0-0.552-0.448-1-1-1v0h-1c-0.552 0-1 0.448-1 1v0 1c0 0.552 0.448 1 1 1v0zM1 17.5h1c0.552 0 1-0.448 1-1v0-1c0-0.552-0.448-1-1-1v0h-1c-0.552 0-1 0.448-1 1v0 1c0 0.552 0.448 1 1 1v0zM1 23.5h1c0.552 0 1-0.448 1-1v0-1c0-0.552-0.448-1-1-1v0h-1c-0.552 0-1 0.448-1 1v0 1c0 0.552 0.448 1 1 1v0z"></path>
</svg>
