<!-- Generated by IcoMoon.io -->
<svg version="1.1" xmlns="http://www.w3.org/2000/svg" width="28" height="32" viewBox="0 0 28 32">
<title>border-center-h-solid</title>
<path d="M13 30h2c0.552 0 1-0.448 1-1v0-2c0-0.552-0.448-1-1-1v0h-2c-0.552 0-1 0.448-1 1v0 2c0 0.552 0.448 1 1 1v0zM19 30h2c0.552 0 1-0.448 1-1v0-2c0-0.552-0.448-1-1-1v0h-2c-0.552 0-1 0.448-1 1v0 2c0 0.552 0.448 1 1 1v0zM27 26h-2c-0.552 0-1 0.448-1 1v0 2c0 0.552 0.448 1 1 1v0h2c0.552 0 1-0.448 1-1v0-2c0-0.552-0.448-1-1-1v0zM7 30h2c0.552 0 1-0.448 1-1v0-2c0-0.552-0.448-1-1-1v0h-2c-0.552 0-1 0.448-1 1v0 2c0 0.552 0.448 1 1 1v0zM27 20h-2c-0.552 0-1 0.448-1 1v0 2c0 0.552 0.448 1 1 1v0h2c0.552 0 1-0.448 1-1v0-2c0-0.552-0.448-1-1-1v0zM27 8h-2c-0.552 0-1 0.448-1 1v0 2c0 0.552 0.448 1 1 1v0h2c0.552 0 1-0.448 1-1v0-2c0-0.552-0.448-1-1-1v0zM13 24h2c0.552 0 1-0.448 1-1v0-2c0-0.552-0.448-1-1-1v0h-2c-0.552 0-1 0.448-1 1v0 2c0 0.552 0.448 1 1 1v0zM13 12h2c0.552 0 1-0.448 1-1v0-2c0-0.552-0.448-1-1-1v0h-2c-0.552 0-1 0.448-1 1v0 2c0 0.552 0.448 1 1 1v0zM13 6h2c0.552 0 1-0.448 1-1v0-2c0-0.552-0.448-1-1-1v0h-2c-0.552 0-1 0.448-1 1v0 2c0 0.552 0.448 1 1 1v0zM19 6h2c0.552 0 1-0.448 1-1v0-2c0-0.552-0.448-1-1-1v0h-2c-0.552 0-1 0.448-1 1v0 2c0 0.552 0.448 1 1 1v0zM27 2h-2c-0.552 0-1 0.448-1 1v0 2c0 0.552 0.448 1 1 1v0h2c0.552 0 1-0.448 1-1v0-2c0-0.552-0.448-1-1-1v0zM1 30h2c0.552 0 1-0.448 1-1v0-2c0-0.552-0.448-1-1-1v0h-2c-0.552 0-1 0.448-1 1v0 2c0 0.552 0.448 1 1 1v0zM1 24h2c0.552 0 1-0.448 1-1v0-2c0-0.552-0.448-1-1-1v0h-2c-0.552 0-1 0.448-1 1v0 2c0 0.552 0.448 1 1 1v0zM1 12h2c0.552 0 1-0.448 1-1v0-2c0-0.552-0.448-1-1-1v0h-2c-0.552 0-1 0.448-1 1v0 2c0 0.552 0.448 1 1 1v0zM1 6h2c0.552 0 1-0.448 1-1v0-2c0-0.552-0.448-1-1-1v0h-2c-0.552 0-1 0.448-1 1v0 2c0 0.552 0.448 1 1 1v0zM7 6h2c0.552 0 1-0.448 1-1v0-2c0-0.552-0.448-1-1-1v0h-2c-0.552 0-1 0.448-1 1v0 2c0 0.552 0.448 1 1 1v0zM27 14h-26c-0.552 0-1 0.448-1 1v0 2c0 0.552 0.448 1 1 1v0h26c0.552 0 1-0.448 1-1v0-2c0-0.552-0.448-1-1-1v0z"></path>
</svg>
