<!-- Generated by IcoMoon.io -->
<svg version="1.1" xmlns="http://www.w3.org/2000/svg" width="28" height="32" viewBox="0 0 28 32">
<title>border-style</title>
<path d="M27.5 2h-26.5c-0.552 0-1 0.448-1 1v0 26.5c0 0.276 0.224 0.5 0.5 0.5v0h1c0.276 0 0.5-0.224 0.5-0.5v0-25.5h25.5c0.276 0 0.5-0.224 0.5-0.5v0-1c0-0.276-0.224-0.5-0.5-0.5v0zM14.5 27h-1c-0.552 0-1 0.448-1 1v0 1c0 0.552 0.448 1 1 1v0h1c0.552 0 1-0.448 1-1v0-1c0-0.552-0.448-1-1-1v0zM20.5 27h-1c-0.552 0-1 0.448-1 1v0 1c0 0.552 0.448 1 1 1v0h1c0.552 0 1-0.448 1-1v0-1c0-0.552-0.448-1-1-1v0zM8.5 27h-1c-0.552 0-1 0.448-1 1v0 1c0 0.552 0.448 1 1 1v0h1c0.552 0 1-0.448 1-1v0-1c0-0.552-0.448-1-1-1v0zM27 14.5h-1c-0.552 0-1 0.448-1 1v0 1c0 0.552 0.448 1 1 1v0h1c0.552 0 1-0.448 1-1v0-1c0-0.552-0.448-1-1-1v0zM27 8.5h-1c-0.552 0-1 0.448-1 1v0 1c0 0.552 0.448 1 1 1v0h1c0.552 0 1-0.448 1-1v0-1c0-0.552-0.448-1-1-1v0zM27 27h-1c-0.552 0-1 0.448-1 1v0 1c0 0.552 0.448 1 1 1v0h1c0.552 0 1-0.448 1-1v0-1c0-0.552-0.448-1-1-1v0zM27 20.5h-1c-0.552 0-1 0.448-1 1v0 1c0 0.552 0.448 1 1 1v0h1c0.552 0 1-0.448 1-1v0-1c0-0.552-0.448-1-1-1v0z"></path>
</svg>
