<!-- Generated by IcoMoon.io -->
<svg version="1.1" xmlns="http://www.w3.org/2000/svg" width="28" height="32" viewBox="0 0 28 32">
<title>border-inner</title>
<path d="M27.438 15h-12.5v-12.5c0-0.276-0.224-0.5-0.5-0.5v0h-1c-0.276 0-0.5 0.224-0.5 0.5v0 12.5h-12.5c-0.276 0-0.5 0.224-0.5 0.5v0 1c0 0.276 0.224 0.5 0.5 0.5v0h12.5v12.5c0 0.276 0.224 0.5 0.5 0.5v0h1c0.276 0 0.5-0.224 0.5-0.5v0-12.5h12.5c0.276 0 0.5-0.224 0.5-0.5v0-1c0-0.276-0.224-0.5-0.5-0.5v0zM0.938 11.5h1c0.552 0 1-0.448 1-1v0-1c0-0.552-0.448-1-1-1v0h-1c-0.552 0-1 0.448-1 1v0 1c0 0.552 0.448 1 1 1v0zM1.938 27h-1c-0.552 0-1 0.448-1 1v0 1c0 0.552 0.448 1 1 1v0h1c0.552 0 1-0.448 1-1v0-1c0-0.552-0.448-1-1-1v0zM0.938 5h1c0.552 0 1-0.448 1-1v0-1c0-0.552-0.448-1-1-1v0h-1c-0.552 0-1 0.448-1 1v0 1c0 0.552 0.448 1 1 1v0zM1.938 20.5h-1c-0.552 0-1 0.448-1 1v0 1c0 0.552 0.448 1 1 1v0h1c0.552 0 1-0.448 1-1v0-1c0-0.552-0.448-1-1-1v0zM19.438 5h1c0.552 0 1-0.448 1-1v0-1c0-0.552-0.448-1-1-1v0h-1c-0.552 0-1 0.448-1 1v0 1c0 0.552 0.448 1 1 1v0zM7.438 5h1c0.552 0 1-0.448 1-1v0-1c0-0.552-0.448-1-1-1v0h-1c-0.552 0-1 0.448-1 1v0 1c0 0.552 0.448 1 1 1v0zM26.938 8.5h-1c-0.552 0-1 0.448-1 1v0 1c0 0.552 0.448 1 1 1v0h1c0.552 0 1-0.448 1-1v0-1c0-0.552-0.448-1-1-1v0zM8.438 27h-1c-0.552 0-1 0.448-1 1v0 1c0 0.552 0.448 1 1 1v0h1c0.552 0 1-0.448 1-1v0-1c0-0.552-0.448-1-1-1v0zM26.938 2h-1c-0.552 0-1 0.448-1 1v0 1c0 0.552 0.448 1 1 1v0h1c0.552 0 1-0.448 1-1v0-1c0-0.552-0.448-1-1-1v0zM26.938 20.5h-1c-0.552 0-1 0.448-1 1v0 1c0 0.552 0.448 1 1 1v0h1c0.552 0 1-0.448 1-1v0-1c0-0.552-0.448-1-1-1v0zM20.438 27h-1c-0.552 0-1 0.448-1 1v0 1c0 0.552 0.448 1 1 1v0h1c0.552 0 1-0.448 1-1v0-1c0-0.552-0.448-1-1-1v0zM26.938 27h-1c-0.552 0-1 0.448-1 1v0 1c0 0.552 0.448 1 1 1v0h1c0.552 0 1-0.448 1-1v0-1c0-0.552-0.448-1-1-1v0z"></path>
</svg>
