<!-- Generated by IcoMoon.io -->
<svg version="1.1" xmlns="http://www.w3.org/2000/svg" width="28" height="32" viewBox="0 0 28 32">
<title>border-center-v</title>
<path d="M13 2.5v27c0 0.276 0.224 0.5 0.5 0.5v0h1c0.276 0 0.5-0.224 0.5-0.5v0-27c0-0.276-0.224-0.5-0.5-0.5v0h-1c-0.276 0-0.5 0.224-0.5 0.5v0zM21.5 16.5v-1c0-0.552-0.448-1-1-1v0h-1c-0.552 0-1 0.448-1 1v0 1c0 0.552 0.448 1 1 1v0h1c0.552 0 1-0.448 1-1v0zM3 22.5v-1c0-0.552-0.448-1-1-1v0h-1c-0.552 0-1 0.448-1 1v0 1c0 0.552 0.448 1 1 1v0h1c0.552 0 1-0.448 1-1v0zM3 10.5v-1c0-0.552-0.448-1-1-1v0h-1c-0.552 0-1 0.448-1 1v0 1c0 0.552 0.448 1 1 1v0h1c0.552 0 1-0.448 1-1v0zM9.5 16.5v-1c0-0.552-0.448-1-1-1v0h-1c-0.552 0-1 0.448-1 1v0 1c0 0.552 0.448 1 1 1v0h1c0.552 0 1-0.448 1-1v0zM3 16.5v-1c0-0.552-0.448-1-1-1v0h-1c-0.552 0-1 0.448-1 1v0 1c0 0.552 0.448 1 1 1v0h1c0.552 0 1-0.448 1-1v0zM3 29v-1c0-0.552-0.448-1-1-1v0h-1c-0.552 0-1 0.448-1 1v0 1c0 0.552 0.448 1 1 1v0h1c0.552 0 1-0.448 1-1v0zM6.5 3v1c0 0.552 0.448 1 1 1v0h1c0.552 0 1-0.448 1-1v0-1c0-0.552-0.448-1-1-1v0h-1c-0.552 0-1 0.448-1 1v0zM0 3v1c0 0.552 0.448 1 1 1v0h1c0.552 0 1-0.448 1-1v0-1c0-0.552-0.448-1-1-1v0h-1c-0.552 0-1 0.448-1 1v0zM28 22.5v-1c0-0.552-0.448-1-1-1v0h-1c-0.552 0-1 0.448-1 1v0 1c0 0.552 0.448 1 1 1v0h1c0.552 0 1-0.448 1-1v0zM28 10.5v-1c0-0.552-0.448-1-1-1v0h-1c-0.552 0-1 0.448-1 1v0 1c0 0.552 0.448 1 1 1v0h1c0.552 0 1-0.448 1-1v0zM28 16.5v-1c0-0.552-0.448-1-1-1v0h-1c-0.552 0-1 0.448-1 1v0 1c0 0.552 0.448 1 1 1v0h1c0.552 0 1-0.448 1-1v0zM28 29v-1c0-0.552-0.448-1-1-1v0h-1c-0.552 0-1 0.448-1 1v0 1c0 0.552 0.448 1 1 1v0h1c0.552 0 1-0.448 1-1v0zM25 3v1c0 0.552 0.448 1 1 1v0h1c0.552 0 1-0.448 1-1v0-1c0-0.552-0.448-1-1-1v0h-1c-0.552 0-1 0.448-1 1v0zM18.5 3v1c0 0.552 0.448 1 1 1v0h1c0.552 0 1-0.448 1-1v0-1c0-0.552-0.448-1-1-1v0h-1c-0.552 0-1 0.448-1 1v0zM9.5 29v-1c0-0.552-0.448-1-1-1v0h-1c-0.552 0-1 0.448-1 1v0 1c0 0.552 0.448 1 1 1v0h1c0.552 0 1-0.448 1-1v0zM21.5 29v-1c0-0.552-0.448-1-1-1v0h-1c-0.552 0-1 0.448-1 1v0 1c0 0.552 0.448 1 1 1v0h1c0.552 0 1-0.448 1-1v0z"></path>
</svg>
