<!-- Generated by IcoMoon.io -->
<svg version="1.1" xmlns="http://www.w3.org/2000/svg" width="32" height="32" viewBox="0 0 32 32">
<title>bow-arrow-solid</title>
<path d="M9.111 17.939l2.829-2.828-5.661-5.661c1.736-0.945 3.689-1.45 5.721-1.45 2.002 0 3.929 0.487 5.646 1.404l2.913-2.913c-2.537-1.614-5.477-2.491-8.559-2.491-3.111 0-6.081 0.892-8.635 2.537l-0.244-0.244c-0.391-0.391-1.024-0.391-1.414 0l-1.414 1.414c-0.391 0.391-0.391 1.024 0 1.414l8.818 8.818zM25.509 11.399l-2.913 2.913c0.918 1.717 1.404 3.644 1.404 5.646 0 2.032-0.505 3.986-1.45 5.722l-5.661-5.661-2.829 2.829 8.86 8.86c0.391 0.391 1.024 0.391 1.414 0l1.414-1.414c0.391-0.391 0.391-1.024 0-1.414l-0.286-0.286c1.646-2.554 2.537-5.524 2.537-8.635 0-3.081-0.877-6.022-2.491-8.559zM30.826 0.019l-8.037 1.607c-0.768 0.154-1.055 1.101-0.501 1.656l2.154 2.154-15.665 15.664-3.106-1.036c-0.121-0.042-0.261-0.066-0.406-0.066-0.355 0-0.676 0.144-0.909 0.376l-3.979 3.98c-0.675 0.675-0.404 1.825 0.502 2.128l3.479 1.159 1.159 3.478c0.302 0.906 1.452 1.178 2.128 0.503l3.979-3.979c0.233-0.233 0.377-0.554 0.377-0.909 0-0.145-0.024-0.285-0.069-0.415l0.003 0.009-1.036-3.106 15.665-15.665 2.154 2.154c0.554 0.554 1.502 0.267 1.656-0.501l1.608-8.037c0.136-0.686-0.469-1.291-1.156-1.154z"></path>
</svg>
