<!-- Generated by IcoMoon.io -->
<svg version="1.1" xmlns="http://www.w3.org/2000/svg" width="32" height="32" viewBox="0 0 32 32">
<title>bow-arrow</title>
<path d="M25.236 11.007l-1.467 1.467c3.154 4.937 2.927 11.422-0.726 16.114l-7.694-7.694-1.414 1.414 9.547 9.546c0.195 0.195 0.512 0.195 0.707 0l0.707-0.707c0.091-0.090 0.147-0.215 0.147-0.353s-0.056-0.263-0.147-0.353v0l-0.422-0.422c4.429-5.503 4.685-13.252 0.763-19.011zM9.693 18.065l1.414-1.414-7.694-7.694c4.692-3.652 11.177-3.88 16.114-0.726l1.467-1.467c-5.759-3.922-13.508-3.666-19.010 0.763l-0.423-0.423c-0.196-0.195-0.512-0.195-0.707 0l-0.708 0.708c-0.091 0.090-0.147 0.215-0.147 0.353s0.056 0.263 0.147 0.353v0l9.546 9.546zM31.023 0c-0.064 0-0.129 0.006-0.196 0.019l-8.038 1.607c-0.768 0.154-1.055 1.101-0.501 1.656l2.508 2.507-15.773 15.773-3.352-1.497c-0.121-0.042-0.261-0.066-0.407-0.066-0.355 0-0.676 0.144-0.908 0.376l-3.979 3.98c-0.675 0.675-0.404 1.825 0.502 2.128l3.479 1.159 1.159 3.478c0.187 0.561 0.699 0.879 1.223 0.879 0.321 0 0.647-0.12 0.904-0.377l3.979-3.979c0.233-0.233 0.377-0.554 0.377-0.909 0-0.145-0.024-0.285-0.069-0.415l0.003 0.009-1.498-3.351 15.773-15.773 2.508 2.508c0.198 0.197 0.445 0.288 0.689 0.288 0.44 0 0.867-0.295 0.966-0.789l1.607-8.037c0.124-0.619-0.358-1.173-0.958-1.173zM7.048 29.391l-1.11-3.329-3.329-1.11 2.808-2.808 3.068 1.371 1.371 3.068-2.808 2.809zM28.786 6.951l-3.737-3.736 4.671-0.934-0.934 4.671z"></path>
</svg>
