<!-- Generated by IcoMoon.io -->
<svg version="1.1" xmlns="http://www.w3.org/2000/svg" width="30" height="32" viewBox="0 0 30 32">
<title>bowling-pins</title>
<path d="M29.7 19.512c-0.813-3.4-3.081-5.575-3.369-8.613-0.212-2.169 1.325-3.588 1.169-6.213-0.163-2.706-2.056-4.681-4.5-4.688-2.444 0.006-4.331 1.981-4.494 4.688-0.156 2.625 1.375 4.050 1.169 6.213-0.288 3.037-2.563 5.219-3.369 8.613-0.781 3.269 0.025 8.744 1.762 11.956l0.281 0.525h9.313l0.281-0.525c1.731-3.212 2.538-8.688 1.756-11.956zM25.5 4.806c0.106 1.787-1.006 3.081-1.169 5.194h-2.663c-0.163-2.119-1.281-3.4-1.169-5.194 0.225-3.756 4.775-3.756 5 0zM26.444 29.994h-6.887c-1.313-2.825-1.938-7.419-1.313-10.019 0.669-2.8 2.619-4.813 3.256-7.981h3c0.637 3.169 2.587 5.181 3.256 7.981 0.619 2.606-0.006 7.194-1.313 10.019zM10.331 10.906c-0.206-2.169 1.325-3.588 1.169-6.213-0.162-2.712-2.056-4.681-4.5-4.688-2.444 0-4.331 1.975-4.5 4.688-0.163 2.625 1.375 4.044 1.169 6.213-0.288 3.044-2.563 5.219-3.369 8.613-0.781 3.269 0.025 8.75 1.762 11.963l0.281 0.525h9.313l0.281-0.525c1.738-3.212 2.544-8.688 1.762-11.962-0.806-3.394-3.081-5.575-3.369-8.613zM9.5 4.813c0.106 1.794-1.006 3.069-1.169 5.188h-2.662c-0.162-2.119-1.281-3.394-1.169-5.188 0.225-3.756 4.775-3.756 5 0zM10.444 30h-6.888c-1.313-2.825-1.938-7.419-1.313-10.019 0.669-2.8 2.625-4.813 3.256-7.981h3c0.637 3.169 2.588 5.181 3.256 7.981 0.625 2.6 0 7.194-1.313 10.019z"></path>
</svg>
