<!-- Generated by IcoMoon.io -->
<svg version="1.1" xmlns="http://www.w3.org/2000/svg" width="28" height="32" viewBox="0 0 28 32">
<title>bowling-pins-solid</title>
<path d="M19.675 10c-0.050-2.237-1.306-3.694-1.175-6 0.119-2.138 1.419-3.994 3.5-4 2.087 0.006 3.381 1.856 3.5 4 0.131 2.306-1.125 3.769-1.175 6h-4.65zM27.731 20c-0.675-3.006-2.494-5.175-3.169-8h-5.119c-0.675 2.825-2.494 4.994-3.169 8-0.719 3.194 0.038 8.781 1.669 12h8.125c1.625-3.219 2.375-8.813 1.663-12zM8.325 10c0.050-2.237 1.306-3.694 1.175-6-0.119-2.138-1.419-3.994-3.5-4-2.087 0.006-3.381 1.863-3.5 4-0.131 2.306 1.125 3.763 1.175 6h4.65zM8.556 12h-5.112c-0.675 2.825-2.5 4.994-3.169 8-0.719 3.194 0.031 8.781 1.663 12h8.125c1.631-3.219 2.381-8.806 1.669-12-0.675-3.006-2.5-5.175-3.175-8z"></path>
</svg>
