<!-- Generated by IcoMoon.io -->
<svg version="1.1" xmlns="http://www.w3.org/2000/svg" width="28" height="32" viewBox="0 0 28 32">
<title>box-alt-solid</title>
<path d="M27.919 10c0.025-0.031 0.031-0.044 0.056-0.075l-3.519-6.556c-0.275-0.819-1.038-1.369-1.9-1.369h-6.556l2 8h9.919zM10 10l2-8h-6.556c-0.862 0-1.625 0.55-1.9 1.369l-3.519 6.556c0.025 0.031 0.031 0.044 0.056 0.075h9.919zM18 12v5c0 0.55-0.45 1-1 1h-6c-0.55 0-1-0.45-1-1v-5h-10v16c0 1.106 0.894 2 2 2h24c1.106 0 2-0.894 2-2v-16h-10z"></path>
</svg>
