<!-- Generated by IcoMoon.io -->
<svg version="1.1" xmlns="http://www.w3.org/2000/svg" width="40" height="32" viewBox="0 0 40 32">
<title>box-full-solid</title>
<path d="M24.019 22.538l-4.019-6.662-4.012 6.662c-0.4 0.669-1.631 1.863-3.419 1.35l-8.569-2.45v5.125c0 0.919 0.625 1.719 1.513 1.938l13.512 3.381c0.637 0.156 1.306 0.156 1.938 0l13.525-3.381c0.888-0.225 1.513-1.025 1.513-1.938v-5.125l-8.563 2.444c-1.781 0.512-3.012-0.669-3.419-1.344zM12.137 8.981c-0.081-0.319-0.137-0.644-0.137-0.981 0-2.206 1.794-4 4-4s4 1.794 4 4c0 0.7-0.194 1.344-0.512 1.919l0.512 0.063 9.706-1.231 2.231-6.144c0.188-0.519-0.081-1.094-0.6-1.281l-3.469-1.262c-0.519-0.188-1.094 0.081-1.281 0.6l-2.606 7.15c-0.106-4.331-3.625-7.813-7.981-7.813-4.419 0-8 3.581-8 8 0 0.156 0.037 0.306 0.044 0.463zM3.325 10.563l-3.219 6.425c-0.287 0.575 0.019 1.262 0.631 1.438l12.369 3.531c0.444 0.125 0.919-0.063 1.156-0.456l5.737-9.5-15.637-1.994c-0.431-0.050-0.844 0.169-1.038 0.556zM39.894 16.988l-3.219-6.425c-0.194-0.387-0.612-0.613-1.044-0.556l-15.631 1.994 5.731 9.506c0.238 0.394 0.712 0.581 1.156 0.456l12.369-3.531c0.619-0.181 0.919-0.869 0.638-1.444z"></path>
</svg>
