<!-- Generated by IcoMoon.io -->
<svg version="1.1" xmlns="http://www.w3.org/2000/svg" width="28" height="32" viewBox="0 0 28 32">
<title>box-fragile</title>
<path d="M24.5 2h-21c-1.931 0-3.5 1.569-3.5 3.5v21c0 1.931 1.569 3.5 3.5 3.5h21c1.931 0 3.5-1.569 3.5-3.5v-21c0-1.931-1.569-3.5-3.5-3.5zM26 26.5c0 0.825-0.675 1.5-1.5 1.5h-21c-0.825 0-1.5-0.675-1.5-1.5v-21c0-0.825 0.675-1.5 1.5-1.5h21c0.825 0 1.5 0.675 1.5 1.5v21zM19 6h-10c-1.106 0-2 0.894-2 2v5c0 3.525 2.613 6.413 6 6.9v4.1h-2.5c-0.275 0-0.5 0.225-0.5 0.5v1c0 0.275 0.225 0.5 0.5 0.5h7c0.275 0 0.5-0.225 0.5-0.5v-1c0-0.275-0.225-0.5-0.5-0.5h-2.5v-4.1c3.387-0.488 6-3.375 6-6.9v-5c0-1.106-0.894-2-2-2zM19 13c0 2.756-2.244 5-5 5s-5-2.244-5-5v-5h4.3c0.144 0.419 0.3 0.831 0.456 1.244-0.494 0.506-2.269 2.4-2.269 2.4s2.975 2.175 4.2 2.738c0.162 0.075 0.356 0.063 0.512-0.044 0.231-0.162 0.288-0.481 0.125-0.713-0.556-0.781-1.863-2.106-1.863-2.106l1.788-1.769s-0.569-1.381-0.725-1.75h3.475v5z"></path>
</svg>
