<!-- Generated by IcoMoon.io -->
<svg version="1.1" xmlns="http://www.w3.org/2000/svg" width="36" height="32" viewBox="0 0 36 32">
<title>box-ballot</title>
<path d="M35.712 17.288l-3.206-8.012c-0.3-0.769-1.038-1.269-1.863-1.269h-2.637v-6.006c0-1.106-0.894-2-2-2h-16c-1.106 0-2 0.894-2 2v6h-2.631c-0.825 0-1.563 0.506-1.862 1.269l-3.225 8.006c-0.194 0.475-0.287 0.988-0.287 1.5l0.019 11.213c-0.006 1.106 0.894 2.013 2 2.013h31.981c1.106 0 2.006-0.9 2-2.012v-11.219c0-0.506-0.1-1.012-0.288-1.481zM10.012 2h16v12h-16v-12zM5.375 10h2.637v4h-1.513c-0.275 0-0.5 0.225-0.5 0.5v1c0 0.275 0.225 0.5 0.5 0.5h23c0.275 0 0.5-0.225 0.5-0.5v-1c0-0.275-0.225-0.5-0.5-0.5h-1.488v-4h2.637l0.006 0.012 3.188 7.988h-31.688l3.219-8zM34 30l-31.981-0.012-0.006-9.988h31.988v10z"></path>
</svg>
