<!-- Generated by IcoMoon.io -->
<svg version="1.1" xmlns="http://www.w3.org/2000/svg" width="32" height="32" viewBox="0 0 32 32">
<title>box-tissue</title>
<path d="M29 14h-3.667l2.667-8h-6.837c-0 0-0 0-0 0-1.927 0-3.564-1.242-4.153-2.969l-0.009-0.031c-0.599-1.758-2.235-3-4.162-3-0 0-0 0-0.001 0h-8.837l3.111 14h-4.111c-1.657 0-3 1.343-3 3v0 12c0 1.657 1.343 3 3 3v0h26c1.657 0 3-1.343 3-3v0-12c0-1.657-1.343-3-3-3v0zM6.493 2h6.344c0.001 0 0.001 0 0.002 0 1.048 0 1.938 0.676 2.258 1.616l0.005 0.017c0.869 2.559 3.25 4.367 6.054 4.367 0.003 0 0.006 0 0.009 0h4.062l-3.336 10h-11.843zM30 29c0 0.552-0.448 1-1 1v0h-26c-0.552 0-1-0.448-1-1v0-3h28zM30 24h-28v-7c0-0.552 0.448-1 1-1v0h4.556l0.444 2h-1c-0.552 0-1 0.448-1 1s0.448 1 1 1v0h18c0.552 0 1-0.448 1-1s-0.448-1-1-1v0h-1l0.667-2h4.333c0.552 0 1 0.448 1 1v0z"></path>
</svg>
