<!-- Generated by IcoMoon.io -->
<svg version="1.1" xmlns="http://www.w3.org/2000/svg" width="28" height="32" viewBox="0 0 28 32">
<title>box-usd-solid</title>
<path d="M27.975 9.925l-3.519-6.556c-0.275-0.819-1.038-1.369-1.9-1.369h-7.556v8h12.919c0.025-0.031 0.031-0.044 0.056-0.075zM13 10v-8h-7.556c-0.862 0-1.625 0.55-1.9 1.369l-3.519 6.556c0.025 0.031 0.031 0.044 0.056 0.075h12.919zM0 12v16c0 1.106 0.894 2 2 2h24c1.106 0 2-0.894 2-2v-16h-28zM15 25.994v1.006c0 0.275-0.225 0.5-0.5 0.5h-1c-0.275 0-0.5-0.225-0.5-0.5v-1.019c-0.706-0.038-1.394-0.281-1.963-0.706-0.244-0.181-0.256-0.55-0.037-0.756l0.738-0.7c0.175-0.163 0.431-0.175 0.631-0.044 0.244 0.15 0.519 0.231 0.8 0.231h1.756c0.406 0 0.738-0.369 0.738-0.825 0-0.375-0.225-0.7-0.55-0.794l-2.813-0.844c-1.162-0.35-1.975-1.462-1.975-2.712 0-1.531 1.188-2.775 2.669-2.819v-1.012c0-0.275 0.225-0.5 0.5-0.5h1c0.275 0 0.5 0.225 0.5 0.5v1.019c0.706 0.038 1.394 0.281 1.962 0.706 0.244 0.181 0.256 0.55 0.038 0.756l-0.731 0.706c-0.175 0.163-0.431 0.175-0.631 0.044-0.244-0.15-0.519-0.231-0.8-0.231h-1.756c-0.406 0-0.738 0.369-0.738 0.825 0 0.375 0.225 0.7 0.55 0.794l2.813 0.844c1.163 0.35 1.975 1.462 1.975 2.712-0.006 1.531-1.2 2.781-2.675 2.819z"></path>
</svg>
