<!-- Generated by IcoMoon.io -->
<svg version="1.1" xmlns="http://www.w3.org/2000/svg" width="28" height="32" viewBox="0 0 28 32">
<title>box-usd</title>
<path d="M15.588 19.431l-2.6-0.781c-0.262-0.081-0.45-0.35-0.45-0.663 0-0.375 0.269-0.681 0.606-0.681h1.619c0.244 0 0.481 0.069 0.688 0.194 0.2 0.119 0.456 0.075 0.625-0.087l0.712-0.681c0.219-0.212 0.212-0.575-0.031-0.756-0.512-0.375-1.125-0.6-1.756-0.644v-0.831c0-0.275-0.225-0.5-0.5-0.5h-1c-0.275 0-0.5 0.225-0.5 0.5v0.838c-1.369 0.081-2.463 1.225-2.463 2.656 0 1.188 0.769 2.244 1.875 2.575l2.6 0.781c0.262 0.081 0.45 0.35 0.45 0.663 0 0.375-0.269 0.681-0.606 0.681h-1.619c-0.244 0-0.481-0.069-0.688-0.194-0.2-0.119-0.456-0.075-0.625 0.087l-0.713 0.681c-0.219 0.212-0.213 0.575 0.031 0.756 0.512 0.375 1.125 0.6 1.756 0.644v0.831c0 0.275 0.225 0.5 0.5 0.5h1c0.275 0 0.5-0.225 0.5-0.5v-0.837c1.369-0.081 2.462-1.225 2.462-2.656 0-1.181-0.775-2.244-1.875-2.575zM27.994 11c0-0.662-0.163-1.313-0.475-1.894l-3.069-5.744c-0.269-0.813-1.031-1.363-1.894-1.363h-17.113c-0.862 0-1.625 0.55-1.9 1.369l-3.069 5.744c-0.313 0.581-0.475 1.231-0.475 1.894 0.006 3.781 0 16.994 0 16.994 0 1.106 0.894 2 2 2h24c1.106 0 2-0.894 2-2 0 0-0.006-13.213-0.006-17zM15 4h7.556l3.175 6h-10.731v-6zM5.444 4h7.556v6h-10.731l3.175-6zM2 28s0.006-11.319 0.006-16h23.994c0 4.681 0.006 16 0.006 16h-24.006z"></path>
</svg>
