<!-- Generated by IcoMoon.io -->
<svg version="1.1" xmlns="http://www.w3.org/2000/svg" width="28" height="32" viewBox="0 0 28 32">
<title>box-alt</title>
<path d="M27.994 11c0-0.662-0.163-1.313-0.475-1.894l-3.069-5.744c-0.269-0.813-1.031-1.363-1.894-1.363h-17.113c-0.862 0-1.625 0.55-1.9 1.369l-3.069 5.744c-0.313 0.581-0.475 1.231-0.475 1.894 0.006 3.781 0 16.994 0 16.994 0 1.106 0.894 2 2 2h24c1.106 0 2-0.894 2-2 0 0-0.006-13.213-0.006-17zM22.556 4l3.175 6h-7.85l-0.75-6h5.425zM12 12h4v4h-4v-4zM15.119 4l0.75 6h-3.737l0.75-6h2.238zM5.444 4h5.425l-0.75 6h-7.85l3.175-6zM2 28s0.006-11.319 0.006-16h7.994v4c0 1.106 0.894 2 2 2h4c1.106 0 2-0.894 2-2v-4h7.994c0 4.681 0.006 16 0.006 16h-24z"></path>
</svg>
