<!-- Generated by IcoMoon.io -->
<svg version="1.1" xmlns="http://www.w3.org/2000/svg" width="40" height="32" viewBox="0 0 40 32">
<title>box-check</title>
<path d="M30.781 8.338l-2.1-6.287c-0.406-1.225-1.55-2.050-2.844-2.050h-19.675c-1.294 0-2.438 0.825-2.844 2.050l-3.163 9.488c-0.1 0.306-0.156 0.625-0.156 0.95v16.512c0 1.656 1.344 3 3 3h25c6.625 0 12-5.375 12-12 0-5.669-3.938-10.406-9.219-11.662zM17 2h8.837c0.431 0 0.813 0.275 0.95 0.681l1.781 5.344c-0.188-0.006-0.375-0.031-0.569-0.031-3.55 0-6.731 1.55-8.925 4h-2.075v-9.994zM5.213 2.681c0.138-0.406 0.519-0.681 0.95-0.681h8.837v10h-12.894l3.106-9.319zM3 30c-0.55 0-1-0.45-1-1v-15h15.619c-1.025 1.769-1.619 3.813-1.619 6 0 4.175 2.138 7.85 5.375 10h-18.375zM28 30c-5.512 0-10-4.488-10-10s4.488-10 10-10 10 4.488 10 10-4.487 10-10 10zM32.038 16.144c-0.194-0.194-0.506-0.194-0.7 0l-4.369 4.331-1.894-1.913c-0.194-0.194-0.506-0.194-0.7 0l-1.169 1.163c-0.194 0.194-0.194 0.506 0 0.7l3.4 3.431c0.194 0.194 0.506 0.194 0.7 0l5.888-5.844c0.194-0.194 0.194-0.506 0-0.7l-1.156-1.169z"></path>
</svg>
