<!-- Generated by IcoMoon.io -->
<svg version="1.1" xmlns="http://www.w3.org/2000/svg" width="28" height="32" viewBox="0 0 28 32">
<title>box-fragile-solid</title>
<path d="M26 2h-24c-1.106 0-2 0.894-2 2v24c0 1.106 0.894 2 2 2h24c1.106 0 2-0.894 2-2v-24c0-1.106-0.894-2-2-2zM20 12c0 2.969-2.163 5.419-5 5.9v6.1h2.5c0.275 0 0.5 0.225 0.5 0.5v1c0 0.275-0.225 0.5-0.5 0.5h-7c-0.275 0-0.5-0.225-0.5-0.5v-1c0-0.275 0.225-0.5 0.5-0.5h2.5v-6.1c-2.838-0.481-5-2.925-5-5.9v-5c0-0.55 0.45-1 1-1h3.775l1.531 1.725-4 2 5.688 4.275-2.313-3.725 4-2-1.425-2.275h2.744c0.55 0 1 0.45 1 1v5z"></path>
</svg>
