<!-- Generated by IcoMoon.io -->
<svg version="1.1" xmlns="http://www.w3.org/2000/svg" width="38" height="32" viewBox="0 0 38 32">
<title>box-open</title>
<path d="M37.9 8.988l-3.056-6.425c-0.169-0.35-0.506-0.563-0.869-0.563-0.038 0-14.975 2-14.975 2s-14.938-2-14.975-2c-0.362 0-0.7 0.219-0.869 0.563l-3.056 6.425c-0.275 0.575 0.019 1.262 0.6 1.438l3.094 0.931v13.206c0 0.919 0.594 1.719 1.438 1.938l12.838 3.381c0.813 0.212 1.481 0.094 1.844 0l12.85-3.381c0.844-0.225 1.438-1.025 1.438-1.938v-13.206l3.094-0.931c0.587-0.175 0.875-0.863 0.606-1.438zM4.563 4.081l11.306 1.519-3.569 6.237-9.994-3.006 2.256-4.75zM5.7 11.931c7.319 2.2 6.831 2.069 7.025 2.069 0.338 0 0.656-0.181 0.831-0.494l4.494-7.844v22.15l-12.35-3.25v-12.631zM32.3 24.563l-12.35 3.25v-22.156l4.494 7.844c0.181 0.313 0.5 0.494 0.831 0.494 0.194 0-0.313 0.131 7.025-2.069v12.637zM25.706 11.831l-3.569-6.237 11.3-1.513 2.256 4.75-9.988 3z"></path>
</svg>
