<!-- Generated by IcoMoon.io -->
<svg version="1.1" xmlns="http://www.w3.org/2000/svg" width="36" height="32" viewBox="0 0 36 32">
<title>box-ballot-solid</title>
<path d="M27 12l-0.031-10.963c0-0.55-0.45-1-1-1l-15.988-0.037c-0.556 0-1.012 0.45-1.012 1.012l0.031 10.988h18zM0 20v10c0 1.106 0.894 2 2 2h32c1.106 0 2-0.894 2-2v-10h-36zM35.919 18c0.025-0.031 0.031-0.044 0.050-0.075l-3.469-8.662c-0.306-0.756-1.038-1.256-1.856-1.256h-1.663l0.012 4 1 2h-24.025l1-2h0.031l-0.013-4h-1.631c-0.819 0-1.55 0.5-1.856 1.256l-3.475 8.662c0.019 0.031 0.031 0.044 0.050 0.075h35.844z"></path>
</svg>
