<!-- Generated by IcoMoon.io -->
<svg version="1.1" xmlns="http://www.w3.org/2000/svg" width="40" height="32" viewBox="0 0 40 32">
<title>box-full</title>
<path d="M39.894 14.988l-3.219-6.425c-0.175-0.35-0.531-0.563-0.913-0.563-0.063 0 0.269-0.044-3.519 0.438l1.638-4.487c0.375-1.038-0.156-2.188-1.194-2.563l-3.481-1.269c-1.031-0.375-2.181 0.156-2.563 1.194l-2.675 7.356c-0.175-4.813-4.113-8.669-8.969-8.669-4.706 0-8.519 3.625-8.919 8.225-1.844-0.237-1.769-0.225-1.844-0.225-0.381 0-0.737 0.219-0.913 0.563l-3.219 6.425c-0.287 0.575 0.019 1.262 0.631 1.438l3.263 0.931v9.206c0 0.919 0.625 1.719 1.513 1.938l13.512 3.381c0.85 0.212 1.563 0.094 1.938 0l13.525-3.381c0.888-0.225 1.513-1.025 1.513-1.938v-9.206l3.256-0.931c0.619-0.175 0.919-0.863 0.638-1.438zM28.525 2l3.475 1.263-1.988 5.456-4.125 0.525 2.637-7.244zM2.425 14.831l2.375-4.75 11.9 1.519-3.756 6.238-10.519-3.006zM19 29.813l-13-3.25v-8.631c7.706 2.2 7.188 2.069 7.394 2.069 0.35 0 0.688-0.181 0.875-0.494l4.731-7.85v18.156zM20 10c-5.981-0.762-9.662-1.231-11.944-1.525 0.269-3.612 3.263-6.475 6.944-6.475 3.863 0 7 3.138 7 7 0 0.256-0.038 0.506-0.069 0.756l-1.931 0.244zM34 26.563l-13 3.25v-18.156l4.731 7.844c0.188 0.313 0.525 0.494 0.875 0.494 0.206 0-0.325 0.131 7.394-2.069v8.637zM27.056 17.831l-3.756-6.238 11.9-1.519 2.375 4.75-10.519 3.006z"></path>
</svg>
