<!-- Generated by IcoMoon.io -->
<svg version="1.1" xmlns="http://www.w3.org/2000/svg" width="32" height="32" viewBox="0 0 32 32">
<title>box-tissue-solid</title>
<path d="M23.992 17.989l4-12h-6.838c-1.927-0-3.563-1.242-4.153-2.969l-0.009-0.031c-0.599-1.758-2.236-3-4.162-3h-8.838l4 18zM-0.007 29.989c0 1.105 0.895 2 2 2v0h28c1.105 0 2-0.895 2-2v0-4h-32zM29.992 13.989h-2.559l-1.333 4h0.892c0.552 0 1 0.448 1 1s-0.448 1-1 1v0h-22c-0.552 0-1-0.448-1-1s0.448-1 1-1v0h0.951l-0.889-4h-3.063c-1.105 0-2 0.895-2 2v0 8h32v-8c0-1.104-0.895-2-1.999-2h-0z"></path>
</svg>
