<!-- Generated by IcoMoon.io -->
<svg version="1.1" xmlns="http://www.w3.org/2000/svg" width="28" height="32" viewBox="0 0 28 32">
<title>box-heart-solid</title>
<path d="M27.975 9.925l-3.519-6.556c-0.275-0.819-1.038-1.369-1.9-1.369h-7.556v8h12.919c0.025-0.031 0.031-0.044 0.056-0.075zM0 12v16c0 1.106 0.894 2 2 2h24c1.106 0 2-0.894 2-2v-16h-28zM19.069 21.325l-4.537 4.463c-0.294 0.288-0.769 0.288-1.063 0l-4.537-4.462c-1.319-1.294-1.237-3.444 0.231-4.637 1.281-1.044 3.194-0.856 4.375 0.3l0.463 0.456 0.463-0.456c1.175-1.156 3.087-1.344 4.375-0.3 1.469 1.194 1.544 3.337 0.231 4.637zM13 10v-8h-7.556c-0.862 0-1.625 0.55-1.9 1.369l-3.519 6.556c0.025 0.031 0.031 0.044 0.056 0.075h12.919z"></path>
</svg>
