<!-- Generated by IcoMoon.io -->
<svg version="1.1" xmlns="http://www.w3.org/2000/svg" width="40" height="32" viewBox="0 0 40 32">
<title>box-check-solid</title>
<path d="M15 0h-8.838c-1.294 0-2.438 0.825-2.844 2.050l-3.163 9.488c-0.050 0.15-0.050 0.306-0.075 0.463h14.919v-12zM29.7 5.106l-1.019-3.050c-0.406-1.231-1.55-2.056-2.844-2.056h-8.837v9.838c2.744-2.969 6.65-4.838 11-4.838 0.575 0 1.144 0.037 1.7 0.106zM13 20c0-2.131 0.456-4.162 1.262-6h-14.262v15c0 1.656 1.344 3 3 3h16.038c-3.656-2.738-6.037-7.087-6.037-12zM28 8c-6.625 0-12 5.375-12 12s5.375 12 12 12 12-5.375 12-12-5.375-12-12-12zM35.131 17.238l-8.188 8.125c-0.269 0.269-0.706 0.269-0.975-0.006l-4.731-4.769c-0.269-0.269-0.262-0.706 0.006-0.975l1.625-1.613c0.269-0.269 0.706-0.262 0.975 0.006l2.631 2.656 6.075-6.025c0.269-0.269 0.706-0.262 0.975 0.006l1.612 1.625c0.263 0.269 0.263 0.706-0.006 0.969z"></path>
</svg>
