<!-- Generated by IcoMoon.io -->
<svg version="1.1" xmlns="http://www.w3.org/2000/svg" width="40" height="32" viewBox="0 0 40 32">
<title>box-open-solid</title>
<path d="M26.606 16c-1.056 0-2.050-0.563-2.587-1.463l-4.019-6.662-4.012 6.662c-0.544 0.906-1.537 1.469-2.594 1.469-0.281 0-0.563-0.037-0.831-0.119l-8.563-2.45v11.125c0 0.919 0.625 1.719 1.513 1.938l13.512 3.381c0.637 0.156 1.306 0.156 1.938 0l13.525-3.381c0.888-0.225 1.513-1.025 1.513-1.938v-11.125l-8.563 2.444c-0.269 0.081-0.55 0.119-0.831 0.119zM39.894 8.988l-3.219-6.425c-0.194-0.388-0.612-0.613-1.044-0.556l-15.631 1.994 5.731 9.506c0.238 0.394 0.712 0.581 1.156 0.456l12.369-3.531c0.619-0.181 0.919-0.869 0.638-1.444zM3.325 2.563l-3.219 6.425c-0.287 0.575 0.019 1.262 0.631 1.438l12.369 3.531c0.444 0.125 0.919-0.063 1.156-0.456l5.737-9.5-15.637-1.994c-0.431-0.050-0.844 0.169-1.038 0.556z"></path>
</svg>
