<!-- Generated by IcoMoon.io -->
<svg version="1.1" xmlns="http://www.w3.org/2000/svg" width="28" height="32" viewBox="0 0 28 32">
<title>box-up-solid</title>
<path d="M26 2h-24c-1.106 0-2 0.894-2 2v24c0 1.106 0.894 2 2 2h24c1.106 0 2-0.894 2-2v-24c0-1.106-0.894-2-2-2zM3.612 11.188l4-5c0.188-0.237 0.594-0.237 0.781 0l4 5c0.262 0.325 0.025 0.813-0.387 0.813h-2v7c0 0.55-0.45 1-1 1h-2c-0.55 0-1-0.45-1-1v-7h-2.006c-0.419 0-0.65-0.488-0.388-0.813zM24 25.5c0 0.275-0.225 0.5-0.5 0.5h-19c-0.275 0-0.5-0.225-0.5-0.5v-1c0-0.275 0.225-0.5 0.5-0.5h19c0.275 0 0.5 0.225 0.5 0.5v1zM24 12h-2v7c0 0.55-0.45 1-1 1h-2c-0.55 0-1-0.45-1-1v-7h-2c-0.419 0-0.65-0.488-0.387-0.813l4-5c0.188-0.237 0.594-0.237 0.781 0l4 5c0.256 0.325 0.025 0.813-0.394 0.813z"></path>
</svg>
