<!-- Generated by IcoMoon.io -->
<svg version="1.1" xmlns="http://www.w3.org/2000/svg" width="28" height="32" viewBox="0 0 28 32">
<title>box-heart</title>
<path d="M27.994 11c0-0.662-0.163-1.313-0.475-1.894l-3.069-5.744c-0.269-0.813-1.031-1.363-1.894-1.363h-17.113c-0.862 0-1.625 0.55-1.9 1.369l-3.069 5.744c-0.313 0.581-0.475 1.231-0.475 1.894 0.006 3.781 0 16.994 0 16.994 0 1.106 0.894 2 2 2h24c1.106 0 2-0.894 2-2 0 0-0.006-13.213-0.006-17zM15 4h7.556l3.175 6h-10.731v-6zM5.444 4h7.556v6h-10.731l3.175-6zM14 28h-12s0.006-11.319 0.006-16h23.994c0 4.681 0.006 16 0.006 16h-12.006zM19.637 14.825c-0.869-0.725-2.981-1.781-5.637 0.906-2.662-2.688-4.775-1.631-5.637-0.906-1.719 1.438-1.806 4.012-0.269 5.569l5.294 5.35c0.344 0.344 0.894 0.344 1.238 0l5.294-5.35c1.531-1.556 1.438-4.131-0.281-5.569zM18.488 18.981l-4.488 4.544-4.488-4.538c-0.637-0.644-0.769-1.875 0.131-2.625 0.856-0.719 1.95-0.212 2.4 0.231l1.963 1.981 1.963-1.981c0.444-0.45 1.538-0.95 2.4-0.231 0.887 0.75 0.762 1.975 0.119 2.619z"></path>
</svg>
