<!-- Generated by IcoMoon.io -->
<svg version="1.1" xmlns="http://www.w3.org/2000/svg" width="32" height="32" viewBox="0 0 32 32">
<title>box</title>
<path d="M31.844 11.537l-3.163-9.488c-0.406-1.225-1.55-2.050-2.844-2.050h-19.675c-1.294 0-2.438 0.825-2.844 2.050l-3.163 9.488c-0.1 0.306-0.156 0.625-0.156 0.95v16.513c0 1.656 1.344 3 3 3h26c1.656 0 3-1.344 3-3v-16.512c0-0.325-0.050-0.644-0.156-0.95zM2 12.488c0-0.106 0.019-0.213 0.050-0.319l3.163-9.488c0.138-0.406 0.519-0.681 0.95-0.681h8.837v10.5l-13-0.012zM30 29c0 0.55-0.45 1-1 1h-26c-0.55 0-1-0.45-1-1v-14.5h28v14.5zM30 12.5h-13v-10.5h8.837c0.431 0 0.813 0.275 0.95 0.681l3.163 9.488c0.031 0.1 0.050 0.206 0.050 0.319v0.012z"></path>
</svg>
