<!-- Generated by IcoMoon.io -->
<svg version="1.1" xmlns="http://www.w3.org/2000/svg" width="40" height="32" viewBox="0 0 40 32">
<title>boxes-alt</title>
<path d="M39 14h-9v-13c0-0.55-0.45-1-1-1h-18c-0.55 0-1 0.45-1 1v13h-9c-0.55 0-1 0.45-1 1v16c0 0.55 0.45 1 1 1h38c0.55 0 1-0.45 1-1v-16c0-0.55-0.45-1-1-1zM32 16v4h-4v-4h4zM18 2h4v4h-4v-4zM12 2h4v4c0 1.106 0.894 2 2 2h4c1.106 0 2-0.894 2-2v-4h4v12h-16v-12zM8 16h4v4h-4v-4zM19 30h-17v-14h4v4c0 1.106 0.894 2 2 2h4c1.106 0 2-0.894 2-2v-4h5v14zM38 30h-17v-14h5v4c0 1.106 0.894 2 2 2h4c1.106 0 2-0.894 2-2v-4h4v14z"></path>
</svg>
