<!-- Generated by IcoMoon.io -->
<svg version="1.1" xmlns="http://www.w3.org/2000/svg" width="40" height="32" viewBox="0 0 40 32">
<title>boxes</title>
<path d="M39 14h-9v-13c0-0.55-0.45-1-1-1h-18c-0.55 0-1 0.45-1 1v13h-9c-0.55 0-1 0.45-1 1v16c0 0.55 0.45 1 1 1h38c0.55 0 1-0.45 1-1v-16c0-0.55-0.45-1-1-1zM28 16h4v3.894l-2-0.669-2 0.669v-3.894zM22 2v3.894l-2-0.669-2 0.669v-3.894h4zM12 2h4v6.669l4-1.331 4 1.331v-6.669h4v12h-16v-12zM12 16v3.894l-2-0.669-2 0.669v-3.894h4zM2 16h4v6.669l4-1.331 4 1.331v-6.669h5v14h-17v-14zM38 30h-17v-14h5v6.669l4-1.331 4 1.331v-6.669h4v14z"></path>
</svg>
