<!-- Generated by IcoMoon.io -->
<svg version="1.1" xmlns="http://www.w3.org/2000/svg" width="36" height="32" viewBox="0 0 36 32">
<title>boxes-solid</title>
<path d="M35 18h-5v6l-2-1.331-2 1.331v-6h-5c-0.55 0-1 0.45-1 1v12c0 0.55 0.45 1 1 1h14c0.55 0 1-0.45 1-1v-12c0-0.55-0.45-1-1-1zM11 14h14c0.55 0 1-0.45 1-1v-12c0-0.55-0.45-1-1-1h-5v6l-2-1.331-2 1.331v-6h-5c-0.55 0-1 0.45-1 1v12c0 0.55 0.45 1 1 1zM15 18h-5v6l-2-1.331-2 1.331v-6h-5c-0.55 0-1 0.45-1 1v12c0 0.55 0.45 1 1 1h14c0.55 0 1-0.45 1-1v-12c0-0.55-0.45-1-1-1z"></path>
</svg>
