<!-- Generated by IcoMoon.io -->
<svg version="1.1" xmlns="http://www.w3.org/2000/svg" width="28" height="32" viewBox="0 0 28 32">
<title>boxing-glove</title>
<path d="M15.775 22.55l0.45 0.894c0.125 0.25 0.025 0.55-0.225 0.669l-1.762 0.887 1.762 0.881c0.25 0.125 0.35 0.425 0.225 0.669l-0.45 0.894c-0.125 0.25-0.425 0.35-0.669 0.225l-3.106-1.55-3.106 1.55c-0.25 0.125-0.55 0.025-0.669-0.225l-0.45-0.894c-0.125-0.25-0.025-0.55 0.225-0.669l1.762-0.881-1.762-0.881c-0.25-0.125-0.35-0.425-0.225-0.669l0.45-0.894c0.125-0.25 0.425-0.35 0.669-0.225l3.106 1.55 3.106-1.55c0.244-0.125 0.544-0.025 0.669 0.219zM24.15 23.419l-2.15 2.012v4.569c0 1.106-0.894 2-2 2h-16c-1.106 0-2-0.894-2-2v-6l-1.069-6.031c-0.619-3.744-0.931-7.556-0.931-11.344 0-3.65 2.95-6.625 6.575-6.625h10.925c3.581 0 6.5 2.975 6.5 6.625v2.725c2.325 0.787 4 2.869 4 5.338 0 3.3-1.369 6.4-3.85 8.731zM22.781 21.956c2.075-1.944 3.219-4.525 3.219-7.269 0-2.031-1.794-3.688-4-3.688h-1.95c-1.644 0-3.019 1.3-3.050 2.944-0.031 1.537 1.1 2.819 2.569 3.025 0.25 0.038 0.431 0.256 0.431 0.506v1c0 0.294-0.256 0.531-0.55 0.5-2.5-0.275-4.45-2.4-4.45-4.969 0-0.713 0.156-1.387 0.425-2h-5.594c-1.912 0-3.719-0.681-5.144-1.925-0.219-0.194-0.231-0.525-0.025-0.731l0.706-0.706c0.188-0.188 0.481-0.194 0.681-0.025 1.056 0.9 2.381 1.394 3.781 1.394h7.169v0.025c0.837-0.631 1.869-1.025 3-1.025h2v-2.375c0-2.594-1.975-4.625-4.5-4.625h-10.925c-2.525-0.013-4.575 2.063-4.575 4.612 0 9.35 1.981 15.781 1.987 17.375h1.513c0.275 0 0.5 0.225 0.5 0.5v1c0 0.275-0.225 0.5-0.5 0.5h-1.513l0.013 4h16v-4h-1.5c-0.275 0-0.5-0.225-0.5-0.5v-1c0-0.275 0.225-0.5 0.5-0.5h2.106l2.175-2.044z"></path>
</svg>
