<!-- Generated by IcoMoon.io -->
<svg version="1.1" xmlns="http://www.w3.org/2000/svg" width="28" height="32" viewBox="0 0 28 32">
<title>boxing-glove-solid</title>
<path d="M24 10h-1.944c-1.644 0-3.019 1.3-3.050 2.944-0.031 1.537 1.1 2.819 2.569 3.025 0.25 0.038 0.431 0.256 0.431 0.506v1c0 0.294-0.256 0.531-0.55 0.5-2.5-0.275-4.45-2.4-4.45-4.969 0-0.344 0.038-0.675 0.1-1h-8.281c-1.912 0-3.719-0.681-5.144-1.925-0.219-0.194-0.231-0.525-0.025-0.731l0.706-0.706c0.188-0.188 0.481-0.194 0.681-0.025 1.056 0.9 2.381 1.394 3.781 1.394h9.175v0.031c1.775-2.381 4.181-2.031 6-2.031v-2.013c0-3.313-2.688-6-6-6h-12c-3.294 0-6 2.694-6 5.994 0 3.994 0.331 7.987 0.988 11.925l1.012 6.081h2.5c0.275 0 0.5 0.225 0.5 0.5v1c0 0.275-0.225 0.5-0.5 0.5h-2.5v4c0 1.106 0.894 2 2 2h16c1.106 0 2-0.894 2-2v-4h-2.5c-0.275 0-0.5-0.225-0.5-0.5v-1c0-0.275 0.225-0.5 0.5-0.5h2.5l3.656-3.656c2.519-2.525 2.344-5.481 2.344-6.344 0-2.206-1.794-4-4-4zM16.3 27.6l-0.6 0.8c-0.162 0.219-0.481 0.269-0.7 0.1l-3-2.25-3 2.25c-0.219 0.169-0.537 0.119-0.7-0.1l-0.6-0.8c-0.162-0.219-0.119-0.531 0.1-0.7l2.531-1.9-2.531-1.9c-0.219-0.163-0.269-0.481-0.1-0.7l0.6-0.8c0.162-0.219 0.481-0.269 0.7-0.1l3 2.25 3-2.25c0.219-0.169 0.537-0.119 0.7 0.1l0.6 0.8c0.163 0.219 0.119 0.531-0.1 0.7l-2.531 1.9 2.531 1.9c0.219 0.163 0.262 0.481 0.1 0.7z"></path>
</svg>
