<!-- Generated by IcoMoon.io -->
<svg version="1.1" xmlns="http://www.w3.org/2000/svg" width="28" height="32" viewBox="0 0 28 32">
<title>brackets</title>
<path d="M7.5 2h-4.5c-1.657 0-3 1.343-3 3v0 22c0 1.657 1.343 3 3 3v0h4.5c0.276 0 0.5-0.224 0.5-0.5v0-1c0-0.276-0.224-0.5-0.5-0.5v0h-4.5c-0.552 0-1-0.448-1-1v0-22c0-0.552 0.448-1 1-1v0h4.5c0.276 0 0.5-0.224 0.5-0.5v0-1c0-0.276-0.224-0.5-0.5-0.5v0zM25 2h-4.5c-0.276 0-0.5 0.224-0.5 0.5v0 1c0 0.276 0.224 0.5 0.5 0.5v0h4.5c0.552 0 1 0.448 1 1v0 22c0 0.552-0.448 1-1 1v0h-4.5c-0.276 0-0.5 0.224-0.5 0.5v0 1c0 0.276 0.224 0.5 0.5 0.5v0h4.5c1.657 0 3-1.343 3-3v0-22c0-1.657-1.343-3-3-3v0z"></path>
</svg>
