<!-- Generated by IcoMoon.io -->
<svg version="1.1" xmlns="http://www.w3.org/2000/svg" width="28" height="32" viewBox="0 0 28 32">
<title>brackets-solid</title>
<path d="M9 2h-7c-1.105 0-2 0.895-2 2v0 24c0 1.105 0.895 2 2 2v0h7c0.552 0 1-0.448 1-1v0-2c0-0.552-0.448-1-1-1v0h-5v-20h5c0.552 0 1-0.448 1-1v0-2c0-0.552-0.448-1-1-1v0zM26 2h-7c-0.552 0-1 0.448-1 1v0 2c0 0.552 0.448 1 1 1v0h5v20h-5c-0.552 0-1 0.448-1 1v0 2c0 0.552 0.448 1 1 1v0h7c1.105 0 2-0.895 2-2v0-24c0-1.105-0.895-2-2-2v0z"></path>
</svg>
