<!-- Generated by IcoMoon.io -->
<svg version="1.1" xmlns="http://www.w3.org/2000/svg" width="36" height="32" viewBox="0 0 36 32">
<title>brackets-curly</title>
<path d="M35.707 15.293l-2.828-2.828c-0.543-0.543-0.879-1.293-0.879-2.121 0-0 0-0 0-0.001v0-5.343c0-1.657-1.343-3-3-3v0h-4.5c-0.276 0-0.5 0.224-0.5 0.5v0 1c0 0.276 0.224 0.5 0.5 0.5v0h4.5c0.552 0 1 0.448 1 1v0 5.343c0 0 0 0 0 0 0 1.381 0.56 2.631 1.465 3.536l2.121 2.121-2.121 2.121c-0.905 0.905-1.465 2.155-1.465 3.536 0 0 0 0 0 0v0 5.343c0 0.552-0.448 1-1 1v0h-4.5c-0.276 0-0.5 0.224-0.5 0.5v0 1c0 0.276 0.224 0.5 0.5 0.5v0h4.5c1.657 0 3-1.343 3-3v0-5.343c0-0 0-0 0-0 0-0.828 0.336-1.578 0.879-2.121l2.828-2.828c0.181-0.181 0.293-0.431 0.293-0.707s-0.112-0.526-0.293-0.707v0zM11.5 2h-4.5c-1.657 0-3 1.343-3 3v0 5.343c0 0 0 0 0 0 0 0.828-0.336 1.579-0.879 2.121l-2.828 2.828c-0.181 0.181-0.293 0.431-0.293 0.707s0.112 0.526 0.293 0.707l2.828 2.828c0.543 0.543 0.879 1.293 0.879 2.121 0 0 0 0 0 0v-0 5.343c0 1.657 1.343 3 3 3v0h4.5c0.276 0 0.5-0.224 0.5-0.5v0-1c0-0.276-0.224-0.5-0.5-0.5v0h-4.5c-0.552 0-1-0.448-1-1v0-5.343c0-0 0-0 0-0 0-1.381-0.56-2.631-1.465-3.536l-2.121-2.121 2.121-2.121c0.905-0.905 1.465-2.155 1.465-3.536 0-0 0-0 0-0v0-5.343c0-0.552 0.448-1 1-1v0h4.5c0.276 0 0.5-0.224 0.5-0.5v0-1c0-0.276-0.224-0.5-0.5-0.5v0z"></path>
</svg>
