<!-- Generated by IcoMoon.io -->
<svg version="1.1" xmlns="http://www.w3.org/2000/svg" width="36" height="32" viewBox="0 0 36 32">
<title>brackets-curly-solid</title>
<path d="M13 2h-3c-3.314 0-6 2.686-6 6v0 2.342c-0 0.553-0.224 1.053-0.586 1.416v0l-2.828 2.828c-0.362 0.362-0.586 0.862-0.586 1.414s0.224 1.052 0.586 1.414l2.828 2.828c0.362 0.362 0.586 0.862 0.586 1.414v2.343c0 3.314 2.686 6 6 6v0h3c0.552 0 1-0.448 1-1v0-2c0-0.552-0.448-1-1-1v0h-3c-1.105 0-2-0.895-2-2v0-2.343c-0-1.657-0.672-3.157-1.758-4.243l-1.414-1.414 1.414-1.414c1.086-1.086 1.758-2.586 1.758-4.243 0-0 0-0 0-0v0-2.342c0-1.105 0.895-2 2-2v0h3c0.552 0 1-0.448 1-1v0-2c0-0.552-0.448-1-1-1v0zM35.414 14.586l-2.828-2.828c-0.362-0.362-0.586-0.863-0.586-1.416v-2.343c0-3.314-2.686-6-6-6v0h-3c-0.552 0-1 0.448-1 1v0 2c0 0.552 0.448 1 1 1v0h3c1.105 0 2 0.895 2 2v0 2.342c0 0 0 0.001 0 0.001 0 1.657 0.672 3.158 1.758 4.243l1.414 1.414-1.414 1.414c-1.086 1.086-1.758 2.586-1.758 4.243v0 2.343c0 1.105-0.895 2-2 2v0h-3c-0.552 0-1 0.448-1 1v0 2c0 0.552 0.448 1 1 1v0h3c3.314 0 6-2.686 6-6v0-2.343c0-0.552 0.224-1.052 0.586-1.414l2.828-2.828c0.362-0.362 0.586-0.862 0.586-1.414s-0.224-1.052-0.586-1.414v0z"></path>
</svg>
