<!-- Generated by IcoMoon.io -->
<svg version="1.1" xmlns="http://www.w3.org/2000/svg" width="36" height="32" viewBox="0 0 36 32">
<title>brain-solid</title>
<path d="M13 0c-1.869 0-3.419 1.281-3.863 3.013-0.050 0-0.088-0.013-0.137-0.013-2.206 0-4 1.794-4 4 0 0.3 0.037 0.594 0.106 0.875-1.825 0.75-3.106 2.537-3.106 4.625 0 0.787 0.2 1.519 0.519 2.181-1.5 0.863-2.519 2.463-2.519 4.319 0 2.081 1.275 3.869 3.087 4.619-0.056 0.288-0.087 0.581-0.087 0.881 0 2.488 2.013 4.5 4.5 4.5 0.256 0 0.506-0.031 0.75-0.075 0.6 1.781 2.262 3.075 4.25 3.075 2.488 0 4.5-2.012 4.5-4.5v-23.5c0-2.206-1.794-4-4-4zM36 19c0-1.856-1.019-3.456-2.519-4.319 0.325-0.662 0.519-1.394 0.519-2.181 0-2.088-1.281-3.875-3.106-4.625 0.063-0.281 0.106-0.575 0.106-0.875 0-2.206-1.794-4-4-4-0.050 0-0.094 0.013-0.137 0.013-0.444-1.731-1.994-3.013-3.863-3.013-2.206 0-4 1.788-4 4v23.5c0 2.488 2.012 4.5 4.5 4.5 1.988 0 3.65-1.294 4.25-3.075 0.244 0.044 0.494 0.075 0.75 0.075 2.488 0 4.5-2.012 4.5-4.5 0-0.3-0.031-0.594-0.087-0.881 1.813-0.75 3.087-2.538 3.087-4.619z"></path>
</svg>
