<!-- Generated by IcoMoon.io -->
<svg version="1.1" xmlns="http://www.w3.org/2000/svg" width="34" height="32" viewBox="0 0 34 32">
<title>brain</title>
<path d="M31.85 14.394c1.094-3.406-1.256-5.825-2.569-6.581 0.169-2.356-1.619-4.644-4.169-4.963-0.738-1.712-2.438-2.85-4.35-2.85-1.538 0-2.887 0.744-3.762 1.869-0.875-1.125-2.225-1.869-3.762-1.869-1.912 0-3.606 1.137-4.356 2.85-2.55 0.319-4.331 2.606-4.169 4.963-1.313 0.763-3.663 3.181-2.569 6.581-1.337 1.069-2.144 2.694-2.144 4.419 0 2.044 1.087 3.9 2.831 4.906-0.144 3.012 2.294 5.544 5.306 5.462 0.887 1.712 2.662 2.813 4.631 2.813 1.744 0 3.281-0.863 4.238-2.175 0.95 1.313 2.494 2.175 4.238 2.175 1.969 0 3.738-1.1 4.625-2.813 3.012 0.075 5.45-2.456 5.306-5.462 1.744-1.012 2.831-2.863 2.831-4.906-0.006-1.725-0.813-3.35-2.156-4.419zM15.994 26.781c0 1.775-1.45 3.219-3.231 3.219-1.994 0-2.762-1.363-3.319-3.012-1.019 0.169-1.144 0.2-1.387 0.2-1.781 0-3.231-1.444-3.231-3.219 0-0.387 0.056-0.569 0.231-1.438-1.587-0.656-3.050-1.512-3.050-3.719 0-2.119 1.438-2.931 2.681-3.644-0.788-1.606-0.8-1.825-0.8-2.45 0-2.119 1.369-3.031 3.087-3.731-0.156-0.681-0.263-1.037-0.263-1.425 0-1.506 1.225-2.737 2.844-2.737h0.025l0.794 0.019c0.369-1.431 0.938-2.844 2.862-2.844 1.519 0 2.762 1.231 2.762 2.75v22.031zM28.938 22.531c0.175 0.863 0.231 1.050 0.231 1.438 0 1.775-1.45 3.219-3.231 3.219-0.244 0-0.369-0.031-1.387-0.2-0.556 1.65-1.325 3.012-3.319 3.012-1.781 0-3.231-1.444-3.231-3.219v-22.031c0-1.519 1.238-2.75 2.762-2.75 1.919 0 2.494 1.406 2.863 2.844l0.819-0.019c1.619 0 2.844 1.231 2.844 2.737 0 0.388-0.106 0.744-0.262 1.425 1.719 0.7 3.087 1.613 3.087 3.731 0 0.625-0.012 0.838-0.8 2.45 1.244 0.713 2.681 1.531 2.681 3.644 0 2.206-1.462 3.063-3.056 3.719z"></path>
</svg>
