<!-- Generated by IcoMoon.io -->
<svg version="1.1" xmlns="http://www.w3.org/2000/svg" width="40" height="32" viewBox="0 0 40 32">
<title>braille-solid</title>
<path d="M8 16c0 2.209-1.791 4-4 4s-4-1.791-4-4 1.791-4 4-4 4 1.791 4 4zM4 24c-1.105 0-2 0.895-2 2s0.895 2 2 2 2-0.895 2-2-0.895-2-2-2zM4 2c-2.209 0-4 1.791-4 4s1.791 4 4 4 4-1.791 4-4-1.791-4-4-4zM14 14c-1.105 0-2 0.895-2 2s0.895 2 2 2 2-0.895 2-2-0.895-2-2-2zM14 24c-1.105 0-2 0.895-2 2s0.895 2 2 2 2-0.895 2-2-0.895-2-2-2zM14 2c-2.209 0-4 1.791-4 4s1.791 4 4 4 4-1.791 4-4-1.791-4-4-4zM28 14c-1.105 0-2 0.895-2 2s0.895 2 2 2 2-0.895 2-2-0.895-2-2-2zM28 24c-1.105 0-2 0.895-2 2s0.895 2 2 2 2-0.895 2-2-0.895-2-2-2zM28 2c-2.209 0-4 1.791-4 4s1.791 4 4 4 4-1.791 4-4-1.791-4-4-4zM38 14c-1.105 0-2 0.895-2 2s0.895 2 2 2 2-0.895 2-2-0.895-2-2-2zM38 24c-1.105 0-2 0.895-2 2s0.895 2 2 2 2-0.895 2-2-0.895-2-2-2zM38 4c-1.105 0-2 0.895-2 2s0.895 2 2 2 2-0.895 2-2-0.895-2-2-2z"></path>
</svg>
