<!-- Generated by IcoMoon.io -->
<svg version="1.1" xmlns="http://www.w3.org/2000/svg" width="40" height="32" viewBox="0 0 40 32">
<title>bread-loaf</title>
<path d="M25 2h-10c-8.284 0-15 4.477-15 10 0 2.209 1.929 4 4 4v12c0 1.105 0.895 2 2 2v0h28c1.105 0 2-0.895 2-2v0-12c2.071 0 4-1.791 4-4 0-5.523-6.716-10-15-10zM24 28h-18v-14h-2c-0.965 0-2-0.898-2-2 0-4.336 5.953-8 13-8s13 3.664 13 8c0 1.102-0.785 2-1.75 2h-2.25zM34 28h-8v-12h8zM36.25 14h-6.77c0.325-0.577 0.517-1.266 0.52-1.999v-0.001c0-3.277-2.375-6.176-6.027-8h1.027c7.047 0 13 3.664 13 8 0 1.102-0.785 2-1.75 2z"></path>
</svg>
