<!-- Generated by IcoMoon.io -->
<svg version="1.1" xmlns="http://www.w3.org/2000/svg" width="40" height="32" viewBox="0 0 40 32">
<title>bread-loaf-solid</title>
<path d="M30 12c0-5.523-6.716-10-15-10s-15 4.477-15 10c0 2.209 1.679 4 3.75 4h0.25v12c0 1.105 0.895 2 2 2v0h18c1.105 0 2-0.895 2-2v0-12h0.25c2.071 0 3.75-1.791 3.75-4zM25 2c-0.152 0-0.299 0.013-0.449 0.015 4.524 2.134 7.449 5.774 7.449 9.985 0 2.672-1.683 4.941-4 5.716v10.284c-0.004 0.739-0.211 1.428-0.566 2.018l0.010-0.018h6.556c1.105 0 2-0.895 2-2v0-12h0.25c2.071 0 3.75-1.791 3.75-4 0-5.523-6.716-10-15-10z"></path>
</svg>
