<!-- Generated by IcoMoon.io -->
<svg version="1.1" xmlns="http://www.w3.org/2000/svg" width="36" height="32" viewBox="0 0 36 32">
<title>bread-slice</title>
<path d="M18 0c-10.768 0-18 5.68-18 10.984 0 2.125 1.662 3.789 4 4.161v13.966c0 1.593 1.402 2.889 3.125 2.889h21.75c1.723 0 3.125-1.296 3.125-2.889v-13.966c2.338-0.375 4-2.037 4-4.161 0-5.304-7.233-10.984-18-10.984zM31 13.223h-1v15.889c0 0.481-0.516 0.889-1.125 0.889h-21.75c-0.609 0-1.125-0.407-1.125-0.889v-15.889h-1c-1.711 0-3-0.962-3-2.238 0-3.672 5.697-8.984 16-8.984s16 5.313 16 8.984c0 1.276-1.289 2.238-3 2.238z"></path>
</svg>
