<!-- Generated by IcoMoon.io -->
<svg version="1.1" xmlns="http://www.w3.org/2000/svg" width="32" height="32" viewBox="0 0 32 32">
<title>briefcase-medical-solid</title>
<path d="M29 8h-5v-3c0-1.656-1.344-3-3-3h-10c-1.656 0-3 1.344-3 3v3h-5c-1.656 0-3 1.344-3 3v18c0 1.656 1.344 3 3 3h26c1.656 0 3-1.344 3-3v-18c0-1.656-1.344-3-3-3zM12 6h8v2h-8v-2zM22 21.5c0 0.275-0.225 0.5-0.5 0.5h-3.5v3.5c0 0.275-0.225 0.5-0.5 0.5h-3c-0.275 0-0.5-0.225-0.5-0.5v-3.5h-3.5c-0.275 0-0.5-0.225-0.5-0.5v-3c0-0.275 0.225-0.5 0.5-0.5h3.5v-3.5c0-0.275 0.225-0.5 0.5-0.5h3c0.275 0 0.5 0.225 0.5 0.5v3.5h3.5c0.275 0 0.5 0.225 0.5 0.5v3z"></path>
</svg>
