<!-- Generated by IcoMoon.io -->
<svg version="1.1" xmlns="http://www.w3.org/2000/svg" width="32" height="32" viewBox="0 0 32 32">
<title>briefcase</title>
<path d="M29 8h-7v-4.5c0-0.829-0.671-1.5-1.5-1.5h-9c-0.829 0-1.5 0.671-1.5 1.5v4.5h-7c-1.657 0-3 1.343-3 3v16c0 1.657 1.343 3 3 3h26c1.657 0 3-1.343 3-3v-16c0-1.657-1.343-3-3-3zM12 4h8v4h-8v-4zM30 27c0 0.551-0.449 1-1 1h-26c-0.551 0-1-0.449-1-1v-9h10v2.5c0 0.828 0.672 1.5 1.5 1.5h5c0.828 0 1.5-0.672 1.5-1.5v-2.5h10v9zM14 20v-2h4v2h-4zM30 16h-28v-5c0-0.551 0.449-1 1-1h26c0.551 0 1 0.449 1 1v5z"></path>
</svg>
