<!-- Generated by IcoMoon.io -->
<svg version="1.1" xmlns="http://www.w3.org/2000/svg" width="32" height="32" viewBox="0 0 32 32">
<title>briefcase-medical</title>
<path d="M21.5 18h-3.5v-3.5c0-0.275-0.225-0.5-0.5-0.5h-3c-0.275 0-0.5 0.225-0.5 0.5v3.5h-3.5c-0.275 0-0.5 0.225-0.5 0.5v3c0 0.275 0.225 0.5 0.5 0.5h3.5v3.5c0 0.275 0.225 0.5 0.5 0.5h3c0.275 0 0.5-0.225 0.5-0.5v-3.5h3.5c0.275 0 0.5-0.225 0.5-0.5v-3c0-0.275-0.225-0.5-0.5-0.5zM29 8h-7v-4.5c0-0.831-0.669-1.5-1.5-1.5h-9c-0.831 0-1.5 0.669-1.5 1.5v4.5h-7c-1.656 0-3 1.344-3 3v18c0 1.656 1.344 3 3 3h26c1.656 0 3-1.344 3-3v-18c0-1.656-1.344-3-3-3zM12 4h8v4h-8v-4zM30 29c0 0.55-0.45 1-1 1h-26c-0.55 0-1-0.45-1-1v-18c0-0.55 0.45-1 1-1h26c0.55 0 1 0.45 1 1v18z"></path>
</svg>
