<!-- Generated by IcoMoon.io -->
<svg version="1.1" xmlns="http://www.w3.org/2000/svg" width="32" height="32" viewBox="0 0 32 32">
<title>bring-forward</title>
<path d="M22 19v-16c0-1.657-1.343-3-3-3v0h-16c-1.657 0-3 1.343-3 3v0 16c0 1.657 1.343 3 3 3v0h16c1.657 0 3-1.343 3-3v0zM2 19v-16c0-0.552 0.448-1 1-1v0h16c0.552 0 1 0.448 1 1v0 16c0 0.552-0.448 1-1 1v0h-16c-0.552 0-1-0.448-1-1v0zM29 10h-5v2h5c0.552 0 1 0.448 1 1v0 16c0 0.552-0.448 1-1 1v0h-16c-0.552 0-1-0.448-1-1v0-5h-2v5c0 1.657 1.343 3 3 3v0h16c1.657 0 3-1.343 3-3v0-16c0-1.657-1.343-3-3-3v0zM26 26h-10v-2h-2v3c0 0.552 0.448 1 1 1v0h12c0.552 0 1-0.448 1-1v0-12c0-0.552-0.448-1-1-1v0h-3v2h2z"></path>
</svg>
