<!-- Generated by IcoMoon.io -->
<svg version="1.1" xmlns="http://www.w3.org/2000/svg" width="40" height="32" viewBox="0 0 40 32">
<title>bring-front</title>
<path d="M2 13v-10c0-0.552 0.448-1 1-1v0h10c0.552 0 1 0.448 1 1v0 1h2v-1c0-1.657-1.343-3-3-3v0h-10c-1.657 0-3 1.343-3 3v0 10c0 1.657 1.343 3 3 3v0h5v-2h-5c-0.552 0-1-0.448-1-1v0zM30 23v-14c0-1.657-1.343-3-3-3v0h-14c-1.657 0-3 1.343-3 3v0 14c0 1.657 1.343 3 3 3v0h14c1.657 0 3-1.343 3-3v0zM12 23v-14c0-0.552 0.448-1 1-1v0h14c0.552 0 1 0.448 1 1v0 14c0 0.552-0.448 1-1 1v0h-14c-0.552 0-1-0.448-1-1v0zM37 16h-5v2h5c0.552 0 1 0.448 1 1v0 10c0 0.552-0.448 1-1 1v0h-10c-0.552 0-1-0.448-1-1v0-1h-2v1c0 1.657 1.343 3 3 3v0h10c1.657 0 3-1.343 3-3v0-10c0-1.657-1.343-3-3-3v0zM29 28h6c0.552 0 1-0.448 1-1v0-6c0-0.552-0.448-1-1-1v0h-3v2h2v4h-3.026c-0.639 0.839-1.522 1.462-2.543 1.768l-0.035 0.009c0.163 0.135 0.373 0.219 0.603 0.223h0.001zM11 4h-6c-0.552 0-1 0.448-1 1v0 6c0 0.552 0.448 1 1 1v0h3v-2h-2v-4h3.026c0.639-0.839 1.522-1.462 2.543-1.768l0.035-0.009c-0.163-0.135-0.373-0.219-0.603-0.223h-0.001z"></path>
</svg>
