<!-- Generated by IcoMoon.io -->
<svg version="1.1" xmlns="http://www.w3.org/2000/svg" width="36" height="32" viewBox="0 0 36 32">
<title>broadcast-tower</title>
<path d="M2.534 0c-0.388 0-0.748 0.221-0.909 0.573-1.035 2.266-1.626 4.776-1.626 7.427s0.591 5.161 1.626 7.427c0.161 0.352 0.522 0.573 0.909 0.573 0.731 0 1.2-0.755 0.896-1.42-0.914-2.008-1.431-4.233-1.431-6.58s0.516-4.572 1.431-6.58c0.303-0.665-0.165-1.42-0.897-1.42zM20.402 11.178c0.964-0.731 1.598-1.877 1.598-3.178 0-2.206-1.795-4-4-4s-4 1.794-4 4c0 1.308 0.639 2.459 1.612 3.189l-8.571 19.712c-0.11 0.253 0.006 0.548 0.259 0.658l0.919 0.399c0.253 0.11 0.547-0.006 0.658-0.259l4.217-9.699h9.831l4.217 9.699c0.11 0.253 0.404 0.369 0.657 0.259l0.919-0.399c0.178-0.079 0.301-0.255 0.301-0.459 0-0.072-0.015-0.141-0.043-0.203l0.001 0.003-8.576-19.724zM18 6c1.104 0 2 0.896 2 2s-0.896 2-2 2-2-0.896-2-2 0.896-2 2-2zM13.964 20l3.502-8.054c0.176 0.024 0.351 0.054 0.534 0.054 0.189 0 0.371-0.031 0.554-0.056l3.503 8.056h-8.092zM7.437 12c0.669 0 1.131-0.64 0.947-1.283-0.248-0.864-0.384-1.774-0.384-2.717s0.136-1.853 0.384-2.717c0.184-0.643-0.278-1.283-0.947-1.283h-0.009c-0.433 0-0.83 0.276-0.951 0.692-0.306 1.051-0.477 2.159-0.477 3.308s0.171 2.257 0.477 3.308c0.121 0.416 0.518 0.692 0.951 0.692h0.009zM28.573 4h-0.009c-0.669 0-1.131 0.64-0.947 1.283 0.248 0.864 0.384 1.774 0.384 2.717s-0.136 1.853-0.384 2.717c-0.184 0.643 0.278 1.283 0.947 1.283h0.009c0.434 0 0.83-0.276 0.951-0.692 0.306-1.051 0.476-2.159 0.476-3.308s-0.171-2.257-0.476-3.308c-0.121-0.416-0.518-0.692-0.951-0.692zM34.374 0.573c-0.161-0.352-0.521-0.573-0.909-0.573-0.731 0-1.199 0.755-0.896 1.42 0.914 2.008 1.431 4.233 1.431 6.58s-0.516 4.572-1.431 6.58c-0.303 0.666 0.165 1.42 0.896 1.42 0.388 0 0.748-0.221 0.909-0.573 1.036-2.266 1.626-4.777 1.626-7.427s-0.59-5.161-1.626-7.427z"></path>
</svg>
