<!-- Generated by IcoMoon.io -->
<svg version="1.1" xmlns="http://www.w3.org/2000/svg" width="40" height="32" viewBox="0 0 40 32">
<title>broadcast-tower-solid</title>
<path d="M9.434 12h2.108c0.688 0 1.163-0.677 0.929-1.324-0.308-0.849-0.472-1.749-0.472-2.676s0.164-1.827 0.472-2.676c0.235-0.647-0.241-1.324-0.929-1.324h-2.108c-0.438 0-0.841 0.281-0.963 0.702-0.306 1.061-0.471 2.166-0.471 3.298s0.165 2.237 0.471 3.297c0.121 0.421 0.524 0.703 0.963 0.703zM5.62 1.459c0.353-0.664-0.122-1.459-0.872-1.459h-2.208c-0.392 0-0.759 0.224-0.921 0.582-1.031 2.264-1.618 4.771-1.618 7.418 0 1.547 0.195 4.271 1.668 7.429 0.164 0.352 0.526 0.571 0.913 0.571h2.178c0.751 0 1.226-0.796 0.872-1.461-3.111-5.832-1.044-11.134-0.011-13.081zM38.379 0.581c-0.163-0.357-0.529-0.581-0.921-0.581h-2.214c-0.749 0-1.229 0.791-0.876 1.453 1.142 2.143 3.026 7.464 0.017 13.077-0.358 0.668 0.112 1.47 0.869 1.47h2.202c0.392 0 0.758-0.224 0.921-0.581 1.033-2.264 1.623-4.772 1.623-7.419s-0.589-5.155-1.621-7.419zM30.566 4h-2.108c-0.688 0-1.163 0.677-0.929 1.324 0.308 0.849 0.472 1.749 0.472 2.676s-0.164 1.828-0.472 2.676c-0.235 0.647 0.241 1.324 0.929 1.324h2.108c0.439 0 0.841-0.281 0.963-0.703 0.306-1.061 0.471-2.165 0.471-3.297s-0.165-2.237-0.471-3.297c-0.121-0.422-0.524-0.702-0.962-0.702zM23.297 10.258c0.441-0.643 0.7-1.419 0.7-2.258 0-2.209-1.789-4-3.997-4s-3.997 1.791-3.997 4c0 0.838 0.259 1.614 0.7 2.258l-8.156 19.588c-0.213 0.509 0.029 1.095 0.538 1.308l1.844 0.769c0.509 0.213 1.095-0.029 1.307-0.538l3.074-7.384h9.379l3.075 7.384c0.212 0.51 0.797 0.751 1.307 0.538l1.844-0.769c0.509-0.212 0.75-0.798 0.538-1.308l-8.156-19.588zM16.976 20l3.024-7.262 3.024 7.262h-6.047z"></path>
</svg>
