<!-- Generated by IcoMoon.io -->
<svg version="1.1" xmlns="http://www.w3.org/2000/svg" width="40" height="32" viewBox="0 0 40 32">
<title>broom-solid</title>
<path d="M16.029 13.548l5.421 6.824s-1.038 6.398-4.786 9.383c-3.748 2.986-16.664 2.133-16.664 2.133s0.237-1.446 0.688-3.464l5.914-7.011c0.248-0.294-0.054-0.726-0.416-0.594l-3.775 1.381c0.902-2.604 2.045-5.003 3.413-6.092 3.748-2.985 10.206-2.559 10.206-2.559zM39.783 1.939l-1.241-1.563c-0.343-0.431-0.97-0.503-1.401-0.16l-14.53 11.113-2.134-2.686c-0.318-0.401-0.946-0.326-1.162 0.138l-1.583 3.409 5.421 6.824 3.675-0.778c0.5-0.106 0.714-0.7 0.396-1.1l-2.131-2.683 14.53-11.113c0.431-0.343 0.502-0.971 0.159-1.403z"></path>
</svg>
