<!-- Generated by IcoMoon.io -->
<svg version="1.1" xmlns="http://www.w3.org/2000/svg" width="40" height="32" viewBox="0 0 40 32">
<title>broom</title>
<path d="M39.891 0.971l-0.623-0.782c-0.172-0.216-0.486-0.252-0.703-0.080l-15.259 12.058-2.84-3.567c-0.311-0.391-0.91-0.374-1.199 0.033l-3.039 4.287c-1.783 0.020-6.7 0.311-9.876 2.836-3.93 3.124-6.354 16.207-6.354 16.207 0.961 0.042 13.444 0.426 17.228-2.581 3.183-2.53 4.582-7.264 4.999-8.986l4.842-1.954c0.465-0.188 0.618-0.77 0.306-1.163l-2.823-3.547 15.259-12.058c0.115-0.092 0.189-0.233 0.189-0.391 0-0.118-0.041-0.227-0.11-0.312l0.001 0.001zM15.983 27.851c-1.669 1.326-6.84 2.15-13.496 2.15h-0.038c0.254-1.109 0.56-2.301 0.9-3.495l4.299-3.418c0.31-0.246 0.076-0.742-0.311-0.661l-2.874 0.607c0.938-2.602 2.021-4.832 3.134-5.716 2.1-1.669 5.606-2.328 8.369-2.399l4.236 5.321c-0.449 1.721-1.698 5.606-4.221 7.611zM21.427 18.547l-3.559-4.471 1.775-2.529c0.144-0.205 0.444-0.214 0.601-0.018l4.226 5.308c0.157 0.198 0.078 0.491-0.157 0.583l-2.886 1.127z"></path>
</svg>
