<!-- Generated by IcoMoon.io -->
<svg version="1.1" xmlns="http://www.w3.org/2000/svg" width="32" height="32" viewBox="0 0 32 32">
<title>browser-solid</title>
<path d="M29 2h-26c-1.656 0-3 1.344-3 3v22c0 1.656 1.344 3 3 3h26c1.656 0 3-1.344 3-3v-22c0-1.656-1.344-3-3-3zM8 9.25c0 0.412-0.338 0.75-0.75 0.75h-2.5c-0.412 0-0.75-0.338-0.75-0.75v-2.5c0-0.412 0.338-0.75 0.75-0.75h2.5c0.412 0 0.75 0.338 0.75 0.75v2.5zM28 9.25c0 0.412-0.337 0.75-0.75 0.75h-15.5c-0.412 0-0.75-0.338-0.75-0.75v-2.5c0-0.412 0.338-0.75 0.75-0.75h15.5c0.413 0 0.75 0.338 0.75 0.75v2.5z"></path>
</svg>
