<!-- Generated by IcoMoon.io -->
<svg version="1.1" xmlns="http://www.w3.org/2000/svg" width="32" height="32" viewBox="0 0 32 32">
<title>bug-solid</title>
<path d="M31.999 18.056c-0.030 1.089-0.951 1.944-2.041 1.944h-3.458v1c0 1.366-0.305 2.662-0.85 3.822l3.764 3.764c0.781 0.781 0.781 2.047 0 2.828s-2.047 0.781-2.829 0l-3.421-3.421c-1.547 1.255-3.518 2.007-5.665 2.007v-15.25c0-0.414-0.336-0.75-0.75-0.75h-1.5c-0.414 0-0.75 0.336-0.75 0.75v15.25c-2.147 0-4.118-0.752-5.665-2.007l-3.421 3.421c-0.781 0.781-2.047 0.781-2.829 0s-0.781-2.047 0-2.828l3.764-3.764c-0.545-1.16-0.85-2.455-0.85-3.822v-1h-3.458c-1.090 0-2.011-0.854-2.041-1.944-0.031-1.13 0.876-2.056 1.999-2.056h3.5v-3.672l-2.914-2.914c-0.781-0.781-0.781-2.047 0-2.828s2.047-0.781 2.829 0l3.414 3.414h14.343l3.414-3.414c0.781-0.781 2.047-0.781 2.829 0s0.781 2.047 0 2.828l-2.914 2.914v3.672h3.5c1.123 0 2.030 0.926 1.999 2.056zM16.063 0c-3.866 0-7 3.134-7 7h14c0-3.866-3.134-7-7-7z"></path>
</svg>
