<!-- Generated by IcoMoon.io -->
<svg version="1.1" xmlns="http://www.w3.org/2000/svg" width="36" height="32" viewBox="0 0 36 32">
<title>bug</title>
<path d="M34 17h-4v-7.586l2.207-2.207c0.391-0.391 0.391-1.024 0-1.414s-1.024-0.391-1.414 0l-2.207 2.207h-2.523c0-4.421-3.578-8-8-8s-8 3.578-8 8h-2.648l-2.707-2.707c-0.391-0.391-1.024-0.391-1.414 0s-0.39 1.024 0 1.414l2.707 2.707v7.586h-4c-0.552 0-1 0.448-1 1s0.448 1 1 1h4v1.5c0 2.29 0.704 4.418 1.905 6.181l-3.612 3.612c-0.391 0.39-0.391 1.024 0 1.414s1.024 0.39 1.414 0l3.476-3.476c1.995 2.017 4.762 3.269 7.817 3.269h2c3.055 0 5.822-1.252 7.817-3.269l3.476 3.476c0.391 0.391 1.024 0.39 1.414 0s0.391-1.024 0-1.414l-3.612-3.612c1.202-1.763 1.905-3.891 1.905-6.181v-1.5h4c0.552 0 1-0.448 1-1s-0.448-1-1-1zM18.063 2c3.314 0 6 2.686 6 6h-12c0-3.314 2.686-6 6-6zM19 29.5v-14.75c0-0.414-0.336-0.75-0.75-0.75h-0.5c-0.414 0-0.75 0.336-0.75 0.75v14.75c-4.963 0-9-4.037-9-9v-10.5h20v10.5c0 4.963-4.037 9-9 9z"></path>
</svg>
