<!-- Generated by IcoMoon.io -->
<svg version="1.1" xmlns="http://www.w3.org/2000/svg" width="28" height="32" viewBox="0 0 28 32">
<title>building</title>
<path d="M12 6.688v2.5c0 0.414-0.336 0.75-0.75 0.75h-2.5c-0.414 0-0.75-0.336-0.75-0.75v-2.5c0-0.414 0.336-0.75 0.75-0.75h2.5c0.414 0 0.75 0.336 0.75 0.75zM19.25 5.938h-2.5c-0.414 0-0.75 0.336-0.75 0.75v2.5c0 0.414 0.336 0.75 0.75 0.75h2.5c0.414 0 0.75-0.336 0.75-0.75v-2.5c0-0.414-0.336-0.75-0.75-0.75zM11.25 11.938h-2.5c-0.414 0-0.75 0.336-0.75 0.75v2.5c0 0.414 0.336 0.75 0.75 0.75h2.5c0.414 0 0.75-0.336 0.75-0.75v-2.5c0-0.414-0.336-0.75-0.75-0.75zM19.25 11.938h-2.5c-0.414 0-0.75 0.336-0.75 0.75v2.5c0 0.414 0.336 0.75 0.75 0.75h2.5c0.414 0 0.75-0.336 0.75-0.75v-2.5c0-0.414-0.336-0.75-0.75-0.75zM11.25 17.938h-2.5c-0.414 0-0.75 0.336-0.75 0.75v2.5c0 0.414 0.336 0.75 0.75 0.75h2.5c0.414 0 0.75-0.336 0.75-0.75v-2.5c0-0.414-0.336-0.75-0.75-0.75zM19.25 17.938h-2.5c-0.414 0-0.75 0.336-0.75 0.75v2.5c0 0.414 0.336 0.75 0.75 0.75h2.5c0.414 0 0.75-0.336 0.75-0.75v-2.5c0-0.414-0.336-0.75-0.75-0.75zM28 30.75v1.25h-28v-1.25c0-0.414 0.336-0.75 0.75-0.75h1.25v-28.5c0-0.828 0.672-1.5 1.5-1.5h21c0.828 0 1.5 0.672 1.5 1.5v28.5h1.25c0.414 0 0.75 0.336 0.75 0.75zM24 30v-28h-20v28h8v-5.313c0-0.414 0.336-0.75 0.75-0.75h2.5c0.414 0 0.75 0.336 0.75 0.75v5.313h8z"></path>
</svg>
