<!-- Generated by IcoMoon.io -->
<svg version="1.1" xmlns="http://www.w3.org/2000/svg" width="28" height="32" viewBox="0 0 28 32">
<title>building-solid</title>
<path d="M27.25 30h-1.25v-28.5c0-0.828-0.672-1.5-1.5-1.5h-21c-0.828 0-1.5 0.672-1.5 1.5v28.5h-1.25c-0.414 0-0.75 0.336-0.75 0.75v1.25h28v-1.25c0-0.414-0.336-0.75-0.75-0.75zM8 4.75c0-0.414 0.336-0.75 0.75-0.75h2.5c0.414 0 0.75 0.336 0.75 0.75v2.5c0 0.414-0.336 0.75-0.75 0.75h-2.5c-0.414 0-0.75-0.336-0.75-0.75v-2.5zM8 10.75c0-0.414 0.336-0.75 0.75-0.75h2.5c0.414 0 0.75 0.336 0.75 0.75v2.5c0 0.414-0.336 0.75-0.75 0.75h-2.5c-0.414 0-0.75-0.336-0.75-0.75v-2.5zM11.25 20h-2.5c-0.414 0-0.75-0.336-0.75-0.75v-2.5c0-0.414 0.336-0.75 0.75-0.75h2.5c0.414 0 0.75 0.336 0.75 0.75v2.5c0 0.414-0.336 0.75-0.75 0.75zM16 30h-4v-5.25c0-0.414 0.336-0.75 0.75-0.75h2.5c0.414 0 0.75 0.336 0.75 0.75v5.25zM20 19.25c0 0.414-0.336 0.75-0.75 0.75h-2.5c-0.414 0-0.75-0.336-0.75-0.75v-2.5c0-0.414 0.336-0.75 0.75-0.75h2.5c0.414 0 0.75 0.336 0.75 0.75v2.5zM20 13.25c0 0.414-0.336 0.75-0.75 0.75h-2.5c-0.414 0-0.75-0.336-0.75-0.75v-2.5c0-0.414 0.336-0.75 0.75-0.75h2.5c0.414 0 0.75 0.336 0.75 0.75v2.5zM20 7.25c0 0.414-0.336 0.75-0.75 0.75h-2.5c-0.414 0-0.75-0.336-0.75-0.75v-2.5c0-0.414 0.336-0.75 0.75-0.75h2.5c0.414 0 0.75 0.336 0.75 0.75v2.5z"></path>
</svg>
