<!-- Generated by IcoMoon.io -->
<svg version="1.1" xmlns="http://www.w3.org/2000/svg" width="36" height="32" viewBox="0 0 36 32">
<title>bullhorn-solid</title>
<path d="M36 15c0-1.477-0.809-2.752-2-3.445v-9.554c0-0.547-0.436-2.001-2-2.001-0.445 0-0.887 0.149-1.249 0.439l-5.314 4.252c-2.669 2.134-6.021 3.309-9.437 3.309h-12c-2.209 0-4 1.791-4 4v6c0 2.209 1.791 4 4 4h2.106c-0.087 0.655-0.136 1.321-0.136 2 0 2.486 0.579 4.834 1.598 6.934 0.324 0.668 1.032 1.066 1.775 1.066h4.643c1.628 0 2.606-1.865 1.619-3.16-1.025-1.345-1.634-3.023-1.634-4.84 0-0.694 0.101-1.362 0.276-2h1.755c3.416 0 6.767 1.176 9.436 3.309l5.314 4.252c0.339 0.273 0.774 0.438 1.249 0.439h0c1.557 0 2-1.424 2-2v-9.554c1.191-0.693 2.001-1.969 2.001-3.446zM30 23.839l-2.066-1.652c-3.375-2.7-7.614-4.186-11.934-4.186v-6c4.32 0 8.559-1.486 11.934-4.186l2.066-1.652v17.677z"></path>
</svg>
