<!-- Generated by IcoMoon.io -->
<svg version="1.1" xmlns="http://www.w3.org/2000/svg" width="31" height="32" viewBox="0 0 31 32">
<title>bullseye-pointer-solid</title>
<path d="M15.135 15.042l-13.386 3.805c-0.948 0.269-1.059 1.569-0.171 1.995l4.279 2.056-5.573 5.573c-0.379 0.379-0.379 0.994 0 1.372l1.373 1.372c0.379 0.379 0.994 0.379 1.373 0l5.573-5.573 2.056 4.279c0.427 0.889 1.726 0.777 1.995-0.171l3.804-13.386c0.23-0.807-0.516-1.552-1.322-1.323zM17.692 19.339l-1.299 4.571c3.992-0.449 7.108-3.797 7.108-7.91 0-4.418-3.582-8-8-8-4.113 0-7.461 3.115-7.91 7.107l4.571-1.299c0.716-1.088 1.943-1.809 3.339-1.809 2.206 0 4 1.794 4 4 0 1.396-0.721 2.624-1.808 3.339zM15.5 0.5c-8.561 0-15.5 6.939-15.5 15.5 0 0.524 0.028 1.042 0.079 1.553 0.326-0.274 0.691-0.507 1.124-0.63l2.804-0.797c-0.001-0.043-0.006-0.083-0.006-0.126 0-6.356 5.143-11.5 11.5-11.5 6.356 0 11.5 5.143 11.5 11.5 0 6.356-5.143 11.5-11.5 11.5-0.043 0-0.084-0.006-0.126-0.006l-0.797 2.804c-0.123 0.434-0.356 0.798-0.629 1.124 0.511 0.051 1.028 0.078 1.552 0.078 8.561 0 15.5-6.939 15.5-15.5s-6.941-15.501-15.501-15.501z"></path>
</svg>
