<!-- Generated by IcoMoon.io -->
<svg version="1.1" xmlns="http://www.w3.org/2000/svg" width="31" height="32" viewBox="0 0 31 32">
<title>bullseye-solid</title>
<path d="M15.5 0.5c-8.561 0-15.5 6.939-15.5 15.5s6.939 15.5 15.5 15.5 15.5-6.939 15.5-15.5-6.939-15.5-15.5-15.5zM15.5 27.5c-6.356 0-11.5-5.143-11.5-11.5 0-6.356 5.143-11.5 11.5-11.5 6.356 0 11.5 5.143 11.5 11.5 0 6.356-5.143 11.5-11.5 11.5zM15.5 8c-4.418 0-8 3.582-8 8s3.582 8 8 8 8-3.582 8-8-3.582-8-8-8zM15.5 20c-2.206 0-4-1.794-4-4s1.794-4 4-4 4 1.794 4 4-1.794 4-4 4z"></path>
</svg>
