<!-- Generated by IcoMoon.io -->
<svg version="1.1" xmlns="http://www.w3.org/2000/svg" width="31" height="32" viewBox="0 0 31 32">
<title>bullseye-arrow</title>
<path d="M19.066 6.171l1.497 3.351-5.771 5.771c-0.391 0.391-0.391 1.024 0 1.414 0.195 0.195 0.451 0.293 0.707 0.293s0.512-0.098 0.707-0.293l5.771-5.771 3.351 1.498c0.121 0.042 0.261 0.066 0.407 0.066 0.355 0 0.676-0.144 0.908-0.376l3.979-3.979c0.675-0.675 0.404-1.825-0.503-2.127l-3.479-1.159-1.159-3.478c-0.186-0.562-0.698-0.879-1.222-0.879-0.321 0-0.648 0.12-0.904 0.377l-3.979 3.979c-0.233 0.233-0.376 0.554-0.376 0.909 0 0.145 0.024 0.285 0.068 0.415l-0.003-0.009zM23.952 3.109l1.11 3.329 3.329 1.11-2.808 2.808-3.068-1.371-1.371-3.068 2.808-2.809zM30.277 11.319l-1.636 1.636c0.227 0.981 0.359 1.997 0.359 3.045 0 7.444-6.056 13.5-13.5 13.5s-13.5-6.056-13.5-13.5 6.056-13.5 13.5-13.5c1.049 0 2.065 0.132 3.045 0.359l1.636-1.636c-1.398-0.459-3.007-0.723-4.678-0.723-0.001 0-0.003 0-0.004 0h0c-8.561 0-15.5 6.939-15.5 15.5s6.939 15.5 15.5 15.5 15.5-6.939 15.5-15.5c0-1.632-0.256-3.204-0.723-4.681zM17.169 6.803c-0.092-0.267-0.152-0.575-0.167-0.895l-0-0.007c-0.494-0.072-0.987-0.151-1.501-0.151-5.666 0-10.25 4.585-10.25 10.25s4.585 10.25 10.25 10.25c5.666 0 10.25-4.585 10.25-10.25 0-0.522-0.078-1.022-0.153-1.523-0.306-0.013-0.61-0.049-0.901-0.146-0.133-0.044 0.064 0.039-1.293-0.567 0.203 0.716 0.347 1.456 0.347 2.236 0 4.549-3.701 8.25-8.25 8.25s-8.25-3.701-8.25-8.25 3.701-8.25 8.25-8.25c0.78 0 1.52 0.144 2.236 0.347-0.606-1.356-0.523-1.16-0.567-1.294zM15.5 11c-2.757 0-5 2.243-5 5s2.243 5 5 5 5-2.243 5-5c0-0.236-0.038-0.461-0.069-0.688l-2.81 2.809c-0.544 0.543-1.294 0.879-2.121 0.879-1.654 0-3-1.346-3-3 0-0.827 0.336-1.577 0.879-2.121l-0.001-0.001 2.809-2.809c-0.227-0.031-0.453-0.069-0.688-0.069z"></path>
</svg>
