<!-- Generated by IcoMoon.io -->
<svg version="1.1" xmlns="http://www.w3.org/2000/svg" width="31" height="32" viewBox="0 0 31 32">
<title>bullseye-pointer</title>
<path d="M15.094 15.044l-13.792 3.919c-0.977 0.277-1.091 1.616-0.176 2.056l3.454 1.659-3.787 3.787c-0.781 0.781-0.781 2.047 0 2.828l1.414 1.414c0.391 0.391 0.902 0.586 1.414 0.586s1.024-0.195 1.414-0.586l3.787-3.787 1.659 3.454c0.203 0.422 0.598 0.626 0.991 0.626 0.459 0 0.915-0.276 1.065-0.802l3.92-13.792c0.236-0.831-0.533-1.598-1.364-1.362zM11.259 27.376l-1.856-3.866-5.782 5.782-1.414-1.414 5.782-5.782-3.865-1.857 9.969-2.833-2.834 9.969zM20.5 16c0-2.757-2.243-5-5-5-2.109 0-3.908 1.317-4.641 3.168 3.396-0.966 3.933-1.168 4.641-1.168 1.654 0 3 1.346 3 3 0 0.704-0.194 1.215-1.168 4.641 1.851-0.733 3.168-2.532 3.168-4.641zM15.745 26.226c5.549-0.134 10.005-4.645 10.005-10.226 0-5.666-4.585-10.25-10.25-10.25-5.582 0-10.092 4.456-10.226 10.005l2.059-0.585c0.424-4.156 3.901-7.42 8.166-7.42 4.549 0 8.25 3.701 8.25 8.25 0 4.264-3.265 7.742-7.419 8.166l-0.586 2.059zM15.5 0.5c-8.561 0-15.5 6.939-15.5 15.5 0 0.456 0.029 0.906 0.068 1.352 0.216-0.123 0.438-0.242 0.687-0.313l1.279-0.364c-0.011-0.225-0.034-0.448-0.034-0.676 0-7.444 6.056-13.5 13.5-13.5s13.5 6.056 13.5 13.5-6.056 13.5-13.5 13.5c-0.228 0-0.451-0.023-0.676-0.034l-0.364 1.279c-0.071 0.251-0.197 0.469-0.321 0.686 0.449 0.039 0.901 0.069 1.361 0.069 8.561 0 15.5-6.939 15.5-15.5s-6.939-15.499-15.5-15.499z"></path>
</svg>
