<!-- Generated by IcoMoon.io -->
<svg version="1.1" xmlns="http://www.w3.org/2000/svg" width="31" height="32" viewBox="0 0 31 32">
<title>bullseye</title>
<path d="M15.5 5.75c-5.666 0-10.25 4.585-10.25 10.25s4.585 10.25 10.25 10.25c5.666 0 10.25-4.585 10.25-10.25s-4.585-10.25-10.25-10.25zM15.5 24.25c-4.549 0-8.25-3.701-8.25-8.25s3.701-8.25 8.25-8.25 8.25 3.701 8.25 8.25-3.701 8.25-8.25 8.25zM15.5 11c-2.757 0-5 2.243-5 5s2.243 5 5 5 5-2.243 5-5-2.243-5-5-5zM15.5 19c-1.654 0-3-1.346-3-3s1.346-3 3-3 3 1.346 3 3-1.346 3-3 3zM15.5 0.5c-8.561 0-15.5 6.939-15.5 15.5s6.939 15.5 15.5 15.5 15.5-6.939 15.5-15.5-6.939-15.5-15.5-15.5zM15.5 29.5c-7.444 0-13.5-6.056-13.5-13.5s6.056-13.5 13.5-13.5 13.5 6.056 13.5 13.5-6.056 13.5-13.5 13.5z"></path>
</svg>
