<!-- Generated by IcoMoon.io -->
<svg version="1.1" xmlns="http://www.w3.org/2000/svg" width="31" height="32" viewBox="0 0 31 32">
<title>bullseye-arrow-solid</title>
<path d="M19.066 6.171l1.036 3.106-5.662 5.662c-0.586 0.586-0.586 1.535 0 2.121s1.535 0.586 2.121 0l5.662-5.662 3.106 1.036c0.462 0.154 0.971 0.034 1.315-0.31l3.979-3.979c0.675-0.675 0.404-1.825-0.503-2.127l-3.479-1.159-1.159-3.478c-0.302-0.906-1.452-1.177-2.128-0.502l-3.979 3.979c-0.233 0.233-0.376 0.554-0.376 0.909 0 0.145 0.024 0.285 0.068 0.415l-0.003-0.009zM14.367 12.183l3.446-3.446-0.133-0.399c-0.698-0.198-1.42-0.338-2.181-0.338-4.418 0-8 3.582-8 8s3.582 8 8 8 8-3.582 8-8c0-0.761-0.14-1.483-0.339-2.181l-0.398-0.133-3.446 3.446c-0.492 1.651-2.008 2.867-3.817 2.867-2.206 0-4-1.794-4-4 0-1.809 1.216-3.324 2.867-3.817zM30.277 11.319l-2.219 2.219c-0.344 0.344-0.754 0.592-1.198 0.754 0.083 0.559 0.141 1.126 0.141 1.708 0 6.356-5.143 11.5-11.5 11.5-6.356 0-11.5-5.143-11.5-11.5 0-6.356 5.143-11.5 11.5-11.5 0.589 0 1.163 0.058 1.727 0.143 0.161-0.439 0.389-0.856 0.735-1.201l2.219-2.219c-1.398-0.459-3.007-0.723-4.678-0.723-0.001 0-0.003 0-0.004 0h0c-8.561 0-15.5 6.939-15.5 15.5s6.939 15.5 15.5 15.5 15.5-6.939 15.5-15.5c0-1.632-0.256-3.204-0.723-4.681z"></path>
</svg>
