<!-- Generated by IcoMoon.io -->
<svg version="1.1" xmlns="http://www.w3.org/2000/svg" width="36" height="32" viewBox="0 0 36 32">
<title>bullhorn</title>
<path d="M34 11.555v-9.555c0-0.546-0.436-2-1.999-2h-0.001c-0.445 0-0.887 0.149-1.249 0.439l-5.314 4.252c-2.669 2.134-6.021 3.309-9.437 3.309h-12c-2.209 0-4 1.791-4 4v6c0 2.209 1.791 4 4 4l-0.030 2c0 2.486 0.579 4.834 1.597 6.934 0.324 0.668 1.032 1.066 1.775 1.066h6.643c1.628 0 2.606-1.865 1.619-3.16-1.025-1.345-1.634-3.023-1.634-4.84 0-0.694 0.101-1.362 0.276-2h1.755c3.416 0 6.767 1.176 9.436 3.309l5.314 4.252c0.339 0.273 0.774 0.438 1.249 0.439h0c1.557 0 2-1.424 2-2v-9.555c1.191-0.693 2-1.968 2-3.445s-0.809-2.752-1.999-3.445zM13.985 30l-6.618-0.002c-0.927-1.91-1.397-3.887-1.397-5.968l0.030-2 0.001-0.030h6.208c-0.144 0.669-0.238 1.339-0.238 2 0 2.206 0.706 4.299 2.015 6zM4 20c-1.103 0-2-0.898-2-2v-6c0-1.102 0.897-2 2-2h12v10h-12zM32.003 27.933c-0.002 0.016-0.008 0.036-0.016 0.056l-5.302-4.242c-2.499-1.997-5.527-3.239-8.686-3.614v-10.266c3.159-0.376 6.187-1.617 8.686-3.615l5.304-4.244c0.002 0.002 0.004 0.003 0.005 0.003 0.003 0 0.004-0.003 0.004-0.011l0.003 25.933z"></path>
</svg>
