<!-- Generated by IcoMoon.io -->
<svg version="1.1" xmlns="http://www.w3.org/2000/svg" width="40" height="32" viewBox="0 0 40 32">
<title>burger-soda</title>
<path d="M40 23.5c-0.003-1.023-0.446-1.941-1.151-2.576l-0.003-0.003c0.716-0.672 1.163-1.625 1.163-2.682 0-0.812-0.263-1.563-0.709-2.171l0.007 0.010c-2.182-3.078-6.619-5.074-11.307-5.078-4.688 0.004-9.125 2-11.305 5.078-0.439 0.598-0.703 1.349-0.703 2.161 0 1.057 0.446 2.010 1.161 2.68l0.002 0.002c-0.709 0.634-1.154 1.552-1.154 2.573 0 0.872 0.324 1.669 0.858 2.276l-0.003-0.004c-0.527 0.499-0.855 1.203-0.856 1.983v0c0.003 2.346 1.904 4.247 4.25 4.25h15.5c2.346-0.003 4.247-1.904 4.25-4.25v-0c-0.001-0.781-0.329-1.485-0.854-1.983l-0.001-0.001c0.528-0.603 0.851-1.396 0.855-2.265v-0.001zM18.326 17.233c1.674-2.366 5.361-4.229 9.674-4.233s8 1.867 9.674 4.233c0.826 1.166-0.011 2.767-1.451 2.767h-16.446c-1.44 0-2.277-1.601-1.451-2.767zM35.75 30h-15.5c-1.243 0-2.25-1.007-2.25-2.25v0c0-0.414 0.336-0.75 0.75-0.75v0h18.5c0.414 0 0.75 0.336 0.75 0.75v0c0 1.243-1.007 2.25-2.25 2.25v0zM36.5 25h-17c-0.828 0-1.5-0.672-1.5-1.5s0.672-1.5 1.5-1.5v0h17c0.828 0 1.5 0.672 1.5 1.5s-0.672 1.5-1.5 1.5v0zM28 17c0.552 0 1-0.448 1-1s-0.448-1-1-1c-0.552 0-1 0.448-1 1v0c0 0.552 0.448 1 1 1v0zM33 18c0.552 0 1-0.448 1-1s-0.448-1-1-1c-0.552 0-1 0.448-1 1v0c0 0.552 0.448 1 1 1v0zM23 18c0.552 0 1-0.448 1-1s-0.448-1-1-1c-0.552 0-1 0.448-1 1v0c0 0.552 0.448 1 1 1v0zM5.993 29.944l-2-19.944h17.507c0.276 0 0.5-0.224 0.5-0.5v0-1c0-0.276-0.224-0.5-0.5-0.5v0h-8.219l1.5-6h2.719c0.276 0 0.5-0.224 0.5-0.5v0-1c0-0.276-0.224-0.5-0.5-0.5v0h-2.719c-0 0-0.001 0-0.001 0-0.933 0-1.716 0.638-1.937 1.502l-0.003 0.014-1.621 6.484h-10.719c-0.276 0-0.5 0.224-0.5 0.5v0 1c0 0.276 0.224 0.5 0.5 0.5v0h1.5v0.105l2 20.038c0.073 1.041 0.935 1.857 1.988 1.857 0.004 0 0.009 0 0.013-0h9.694c-0.529-0.564-0.955-1.231-1.247-1.967l-0.015-0.042z"></path>
</svg>
