<!-- Generated by IcoMoon.io -->
<svg version="1.1" xmlns="http://www.w3.org/2000/svg" width="40" height="32" viewBox="0 0 40 32">
<title>burger-soda-solid</title>
<path d="M22 11v-2c0-0.552-0.448-1-1-1v0h-8.079l1.25-5h2.829c0.552 0 1-0.448 1-1v0-1c0-0.552-0.448-1-1-1v0h-3.219c-0 0-0 0-0 0-1.165 0-2.145 0.797-2.422 1.876l-0.004 0.017-1.527 6.106h-8.829c-0.552 0-1 0.448-1 1v0 2c0 0.552 0.448 1 1 1v0h20c0.552 0 1-0.448 1-1v0zM16.472 19.889c-0.297-0.549-0.471-1.201-0.471-1.895 0-0.852 0.264-1.643 0.714-2.295l-0.009 0.014c0.42-0.617 0.942-1.179 1.506-1.713h-15.819l1.611 16.143c0.073 1.041 0.935 1.857 1.988 1.857 0.003 0 0.006 0 0.009-0h10c0.312-0.005 0.605-0.082 0.864-0.215l-0.011 0.005c-0.534-0.781-0.853-1.746-0.853-2.785 0-0.002 0-0.004 0-0.005v0c0-0.916 0.411-1.735 1.058-2.285l0.004-0.004c-0.658-0.71-1.062-1.664-1.062-2.712 0-1.189 0.52-2.257 1.344-2.989l0.004-0.004c-0.351-0.314-0.644-0.684-0.866-1.097l-0.010-0.021zM39 28h-20c-0.552 0-1 0.448-1 1v0c0 1.657 1.343 3 3 3v0h16c1.657 0 3-1.343 3-3v0c0-0.552-0.448-1-1-1v0zM38 22h-18c-1.105 0-2 0.895-2 2s0.895 2 2 2v0h18c1.105 0 2-0.895 2-2s-0.895-2-2-2v0zM18.359 16.838c-0.908 1.332 0.012 3.162 1.596 3.162h18.091c1.584 0 2.5-1.829 1.596-3.162-1.841-2.705-5.895-4.834-10.641-4.838s-8.799 2.133-10.641 4.838zM34 15c0.552 0 1 0.448 1 1s-0.448 1-1 1c-0.552 0-1-0.448-1-1v0c0-0.552 0.448-1 1-1v0zM29 14c0.552 0 1 0.448 1 1s-0.448 1-1 1c-0.552 0-1-0.448-1-1v0c0-0.552 0.448-1 1-1v0zM24 15c0.552 0 1 0.448 1 1s-0.448 1-1 1c-0.552 0-1-0.448-1-1v0c0-0.552 0.448-1 1-1v0z"></path>
</svg>
