<!-- Generated by IcoMoon.io -->
<svg version="1.1" xmlns="http://www.w3.org/2000/svg" width="24" height="32" viewBox="0 0 24 32">
<title>burn</title>
<path d="M12 0c-7.019 6.331-12 13.806-12 18.781 0 7.781 4.938 13.219 12 13.219s12-5.438 12-13.219c0-4.994-5.012-12.475-12-18.781zM6.181 24.075c0-0.831 0.263-3.825 5.819-10.075 5.556 6.25 5.819 9.244 5.819 10.075 0 3.031-1.806 5.256-4.525 5.794-0.425 0.050-0.844 0.131-1.294 0.131s-0.869-0.075-1.294-0.131c-2.719-0.531-4.525-2.762-4.525-5.794zM19.431 26.556c0.231-0.775 0.387-1.594 0.387-2.481 0-5.056-7.044-12.219-7.819-13.088-0.806 0.906-7.819 8.037-7.819 13.088 0 0.887 0.156 1.706 0.388 2.481-1.612-1.956-2.569-4.625-2.569-7.775 0-5.675 7.662-13.488 10-15.744 2.338 2.25 10 10.069 10 15.744 0 3.15-0.956 5.819-2.569 7.775z"></path>
</svg>
