<!-- Generated by IcoMoon.io -->
<svg version="1.1" xmlns="http://www.w3.org/2000/svg" width="32" height="32" viewBox="0 0 32 32">
<title>burrito</title>
<path d="M32 7.688c-0.003-2.069-1.361-3.819-3.233-4.412l-0.033-0.009c-0.601-1.907-2.353-3.266-4.423-3.266-0.699 0-1.362 0.155-1.956 0.433l0.028-0.012c-0.593-0.266-1.286-0.421-2.014-0.421-2.051 0-3.815 1.227-4.598 2.987l-0.013 0.032-13.633 13.634c-1.312 1.312-2.123 3.125-2.123 5.127s0.811 3.815 2.124 5.127l2.969 2.969c1.312 1.312 3.125 2.123 5.127 2.123s3.815-0.811 5.127-2.124l13.634-13.633c1.792-0.796 3.019-2.56 3.019-4.611 0-0.729-0.155-1.421-0.434-2.046l0.013 0.032c0.266-0.563 0.421-1.223 0.421-1.92 0-0.003 0-0.007 0-0.010v0.001zM16.722 4.883c0.804 1.482 1.277 3.244 1.278 5.116v0c0 6.066-4.938 11-11 11-1.693-0.007-3.294-0.396-4.723-1.085l0.066 0.029c0.274-0.732 0.68-1.357 1.195-1.875l-0 0zM13.932 28.462c-0.95 0.95-2.263 1.538-3.712 1.538s-2.762-0.588-3.712-1.538l-2.971-2.97c-0.894-0.898-1.464-2.121-1.515-3.476l-0-0.010c1.471 0.627 3.182 0.992 4.978 0.994h0.001c5.634 0 10.429-3.609 12.229-8.632 0.829-0.22 1.78-0.347 2.761-0.347 1.876 0 3.644 0.463 5.196 1.28l-0.061-0.029zM30 11.625c0 0.959-0.459 1.791-1.15 2.349-2.694-1.67-5.958-2.281-9.053-1.762 0.125-0.663 0.198-1.427 0.202-2.208l0-0.004c0-2.446-0.706-4.782-1.986-6.838 0.553-0.706 1.404-1.157 2.36-1.163h0.001c0.793 0.002 1.514 0.307 2.055 0.806l-0.002-0.002c0.478-0.496 1.147-0.804 1.889-0.804 1.448 0 2.621 1.174 2.621 2.621 0 0.001 0 0.003 0 0.004v-0c-0.001 0.173-0.019 0.341-0.052 0.503l0.003-0.017c0.151-0.031 0.325-0.049 0.503-0.049 1.441 0 2.609 1.168 2.609 2.609 0 0.006-0 0.011-0 0.017v-0.001c-0 0.74-0.308 1.409-0.803 1.884l-0.001 0.001c0.497 0.538 0.802 1.259 0.804 2.052v0z"></path>
</svg>
