<!-- Generated by IcoMoon.io -->
<svg version="1.1" xmlns="http://www.w3.org/2000/svg" width="32" height="32" viewBox="0 0 32 32">
<title>burrito-solid</title>
<path d="M19.206 14.395c-1.81 5.008-6.602 8.605-12.232 8.605-2.571-0.001-4.966-0.752-6.979-2.046l0.051 0.031c-0.233 2.113 0.429 4.305 2.046 5.921l2.971 2.969c1.314 1.312 3.128 2.124 5.132 2.124s3.818-0.811 5.132-2.124l13.5-13.483c-1.855-1.49-4.239-2.392-6.833-2.392-0.002 0-0.003 0-0.004 0h0c-0.951 0-1.878 0.158-2.784 0.395zM17.985 10c0-0 0-0.001 0-0.001 0-2.594-0.903-4.976-2.412-6.85l0.016 0.021-13.5 13.483c-0.633 0.636-1.148 1.391-1.509 2.227l-0.018 0.047c1.776 1.296 4.003 2.073 6.411 2.073v0c6.071 0 11.012-4.934 11.012-11zM32 7.688c-0.003-2.069-1.363-3.82-3.237-4.412l-0.033-0.009c-0.604-1.907-2.358-3.265-4.429-3.265-0.699 0-1.361 0.155-1.955 0.431l0.029-0.012c-0.592-0.266-1.282-0.421-2.009-0.421-0.001 0-0.002 0-0.004 0h0c-1.379 0-2.625 0.586-3.551 1.516 1.972 2.236 3.175 5.19 3.175 8.425 0 0.794-0.072 1.571-0.211 2.324l0.012-0.078c0.662-0.119 1.423-0.187 2.201-0.188h0c0 0 0 0 0.001 0 3.256 0 6.232 1.201 8.507 3.185l-0.015-0.013c0.933-0.922 1.518-2.172 1.518-3.547-0-0.726-0.155-1.416-0.434-2.039l0.013 0.032c0.266-0.563 0.421-1.223 0.421-1.92 0-0.004 0-0.007 0-0.011v0.001z"></path>
</svg>
