<!-- Generated by IcoMoon.io -->
<svg version="1.1" xmlns="http://www.w3.org/2000/svg" width="32" height="32" viewBox="0 0 32 32">
<title>bus-school-solid</title>
<path d="M30.5 7h-1.5v-2c0-2.8-5.757-5-13-5s-13 2.2-13 5v2h-1.5c-0.828 0-1.5 0.671-1.5 1.5v5c0 0.828 0.672 1.5 1.5 1.5h1.5v1.306c-0.587 0.348-1 0.961-1 1.694v8c0 1.104 0.896 2 2 2v2c0 1.104 0.896 2 2 2h2c1.104 0 2-0.896 2-2v-2h12v2c0 1.104 0.896 2 2 2h2c1.104 0 2-0.896 2-2v-2c1.104 0 2-0.896 2-2v-8c0-0.733-0.413-1.345-1-1.694v-1.306h1.5c0.828 0 1.5-0.672 1.5-1.5v-5c0-0.829-0.672-1.5-1.5-1.5zM10 4.5c0-0.276 0.224-0.5 0.5-0.5h11c0.276 0 0.5 0.224 0.5 0.5v1c0 0.276-0.224 0.5-0.5 0.5h-11c-0.276 0-0.5-0.224-0.5-0.5v-1zM7 24c-1.104 0-2-0.896-2-2s0.896-2 2-2 2 0.896 2 2-0.896 2-2 2zM15 16h-6c-1.104 0-2-0.896-2-2v-4c0-1.104 0.896-2 2-2h6v8zM17 16v-8h6c1.104 0 2 0.896 2 2v4c0 1.104-0.896 2-2 2h-6zM25 24c-1.104 0-2-0.896-2-2s0.896-2 2-2 2 0.896 2 2-0.896 2-2 2z"></path>
</svg>
