<!-- Generated by IcoMoon.io -->
<svg version="1.1" xmlns="http://www.w3.org/2000/svg" width="32" height="32" viewBox="0 0 32 32">
<title>bus-school</title>
<path d="M8 20c-1.104 0-2 0.896-2 2s0.896 2 2 2 2-0.896 2-2-0.896-2-2-2zM24 20c-1.104 0-2 0.896-2 2s0.896 2 2 2 2-0.896 2-2-0.896-2-2-2zM30 8h-2v-3.384c0-2.585-5.314-4.616-12-4.616s-12 2.031-12 4.616v3.384h-2c-1.104 0-2 0.896-2 2v6c0 1.104 0.896 2 2 2h1.044c-0.642 0.836-1.044 1.864-1.044 3v5c0 1.104 0.896 2 2 2v2c0 1.104 0.896 2 2 2h3c1.104 0 2-0.896 2-2v-2h10v2c0 1.104 0.896 2 2 2h3c1.104 0 2-0.896 2-2v-2c1.104 0 2-0.896 2-2v-5c0-1.136-0.402-2.164-1.044-3h1.044c1.104 0 2-0.896 2-2v-6c0-1.104-0.896-2-2-2zM16 2c6.435 0 9.807 1.912 10 2.616v1.384h-6v-0.5c0-0.829-0.672-1.5-1.5-1.5h-5c-0.828 0-1.5 0.671-1.5 1.5v0.5h-6.003v-1.362c0.196-0.726 3.567-2.638 10.003-2.638zM26 8v8.101c-0.301-0.064-0.646-0.101-1-0.101h-8v-8h9zM15 8v8h-8c-0.343 0-0.677 0.036-1 0.101v-8.101h9zM2 16v-6h2v6h-2zM9 30h-3v-2h3v2zM26 30h-3v-2h3v2zM28 26h-24v-5c0-1.654 1.346-3 3-3h18c1.654 0 3 1.346 3 3v5zM30 16h-2v-6h2v6z"></path>
</svg>
