<!-- Generated by IcoMoon.io -->
<svg version="1.1" xmlns="http://www.w3.org/2000/svg" width="32" height="32" viewBox="0 0 32 32">
<title>bus-solid</title>
<path d="M30.5 8h-0.5v-3c0-2.8-6.2-5-14-5s-14 2.2-14 5v3h-0.5c-0.828 0-1.5 0.671-1.5 1.5v5c0 0.828 0.672 1.5 1.5 1.5h0.5v10c0 1.104 0.896 2 2 2v2c0 1.104 0.896 2 2 2h2c1.104 0 2-0.896 2-2v-2h12v2c0 1.104 0.896 2 2 2h2c1.104 0 2-0.896 2-2v-2h0.4c1 0 1.6-0.8 1.6-1.6v-10.4h0.5c0.828 0 1.5-0.672 1.5-1.5v-5c0-0.829-0.672-1.5-1.5-1.5zM7 25c-1.104 0-2-0.896-2-2s0.896-2 2-2 2 0.896 2 2-0.896 2-2 2zM8 18c-1.104 0-2-0.896-2-2v-8c0-1.104 0.896-2 2-2h16c1.104 0 2 0.896 2 2v8c0 1.104-0.896 2-2 2h-16zM25 25c-1.104 0-2-0.896-2-2s0.896-2 2-2 2 0.896 2 2-0.896 2-2 2z"></path>
</svg>
