<!-- Generated by IcoMoon.io -->
<svg version="1.1" xmlns="http://www.w3.org/2000/svg" width="32" height="32" viewBox="0 0 32 32">
<title>bus</title>
<path d="M8 24c1.104 0 2-0.896 2-2s-0.896-2-2-2-2 0.896-2 2 0.896 2 2 2zM24 24c1.104 0 2-0.896 2-2s-0.896-2-2-2-2 0.896-2 2 0.896 2 2 2zM30.5 8h-0.5v-3c0-2.8-6.2-5-14-5s-14 2.2-14 5v3h-0.5c-0.828 0-1.5 0.671-1.5 1.5v5c0 0.828 0.672 1.5 1.5 1.5h0.5v10c0 1.104 0.896 2 2 2v2c0 1.104 0.896 2 2 2h3c1.104 0 2-0.896 2-2v-2h10v2c0 1.104 0.896 2 2 2h3c1.104 0 2-0.896 2-2v-2c1.104 0 2-0.896 2-2v-10h0.5c0.828 0 1.5-0.672 1.5-1.5v-5c0-0.829-0.672-1.5-1.5-1.5zM9 30h-3v-2h3v2zM26 30h-3v-2h3v2zM28 26h-24l-0.001-8h24.001l-0.001 8zM28.001 16h-24.001l-0.001-8h24.003l-0.001 8zM28.002 6h-24.004v-0.981c0.209-0.832 4.215-3.019 12.002-3.019s11.793 2.188 12.002 3.019v0.981z"></path>
</svg>
