<!-- Generated by IcoMoon.io -->
<svg version="1.1" xmlns="http://www.w3.org/2000/svg" width="40" height="32" viewBox="0 0 40 32">
<title>business-time-solid</title>
<path d="M31 14c-4.974 0-9 4.026-9 9s4.026 9 9 9 9-4.026 9-9-4.026-9-9-9zM35 23.393c0 0.334-0.273 0.607-0.607 0.607h-3.786c-0.334 0-0.607-0.273-0.607-0.607v-4.786c0-0.334 0.273-0.607 0.607-0.607h0.786c0.334 0 0.607 0.273 0.607 0.607v3.392h2.393c0.334 0 0.607 0.273 0.607 0.607v0.786zM31 12c0.337 0 0.67 0.021 1 0.051v-3.051c0-1.6-1.4-3-3-3h-5v-3c0-1.6-1.4-3-3-3h-10c-1.6 0-3 1.4-3 3v3h-5c-1.6 0-3 1.4-3 3v5h24.695c1.788-1.256 3.959-2 6.305-2zM20 6h-8v-2h8v2zM20.426 20h-7.426c-0.553 0-1-0.448-1-1v-3h-12v9c0 1.6 1.4 3 3 3h18.214c-0.771-1.503-1.214-3.199-1.214-5 0-1.041 0.155-2.045 0.426-3z"></path>
</svg>
