<!-- Generated by IcoMoon.io -->
<svg version="1.1" xmlns="http://www.w3.org/2000/svg" width="40" height="32" viewBox="0 0 40 32">
<title>business-time</title>
<path d="M3 26c-0.551 0-1-0.449-1-1v-9h10v2.5c0 0.828 0.672 1.5 1.5 1.5h5c0.828 0 1.5-0.672 1.5-1.5v-2.5h2.514c0.629-0.762 1.363-1.431 2.173-2h-22.688v-5c0-0.551 0.449-1 1-1h26c0.551 0 1 0.449 1 1v3.051c0.33-0.030 0.663-0.051 1-0.051s0.67 0.021 1 0.051v-3.051c0-1.657-1.343-3-3-3h-7v-4.5c0-0.829-0.671-1.5-1.5-1.5h-9c-0.829 0-1.5 0.671-1.5 1.5v4.5h-7c-1.657 0-3 1.343-3 3v16c0 1.657 1.343 3 3 3h18.211c-0.298-0.567-0.566-1.231-0.766-1.923l-0.019-0.077h-17.425zM14 16h4v2h-4v-2zM12 2h8v4h-8v-4zM34.393 22h-2.393v-3.393c0-0.334-0.273-0.607-0.607-0.607h-0.786c-0.334 0-0.607 0.273-0.607 0.607v4.786c0 0.334 0.273 0.607 0.607 0.607h3.786c0.334 0 0.607-0.273 0.607-0.607v-0.786c0-0.334-0.273-0.607-0.607-0.607zM31 14c-4.974 0-9 4.026-9 9s4.026 9 9 9 9-4.026 9-9-4.026-9-9-9zM31 30c-3.86 0-7-3.14-7-7s3.14-7 7-7 7 3.14 7 7-3.14 7-7 7z"></path>
</svg>
