<!-- Generated by IcoMoon.io -->
<svg version="1.1" xmlns="http://www.w3.org/2000/svg" width="32" height="32" viewBox="0 0 32 32">
<title>cabinet-filing</title>
<path d="M29 0h-26c-1.657 0-3 1.343-3 3v26c0 1.657 1.343 3 3 3h26c1.657 0 3-1.343 3-3v-26c0-1.657-1.343-3-3-3zM30 29c0 0.551-0.449 1-1 1h-26c-0.551 0-1-0.449-1-1v-12h28v12zM30 15h-28v-12c0-0.551 0.449-1 1-1h26c0.551 0 1 0.449 1 1v12zM21 6h-10c-0.553 0-1 0.447-1 1v2.5c0 0.276 0.224 0.5 0.5 0.5h1c0.276 0 0.5-0.224 0.5-0.5v-1.5h8v1.5c0 0.276 0.224 0.5 0.5 0.5h1c0.276 0 0.5-0.224 0.5-0.5v-2.5c0-0.553-0.448-1-1-1zM10.5 26h1c0.276 0 0.5-0.224 0.5-0.5v-1.5h8v1.5c0 0.276 0.224 0.5 0.5 0.5h1c0.276 0 0.5-0.224 0.5-0.5v-2.5c0-0.552-0.448-1-1-1h-10c-0.553 0-1 0.448-1 1v2.5c0 0.276 0.224 0.5 0.5 0.5z"></path>
</svg>
