<!-- Generated by IcoMoon.io -->
<svg version="1.1" xmlns="http://www.w3.org/2000/svg" width="32" height="32" viewBox="0 0 32 32">
<title>cabinet-filing-solid</title>
<path d="M30 0h-28c-1.104 0-2 0.896-2 2v12h32v-12c0-1.104-0.896-2-2-2zM22 9.5c0 0.276-0.224 0.5-0.5 0.5h-1c-0.276 0-0.5-0.224-0.5-0.5v-1.5h-8v1.5c0 0.276-0.224 0.5-0.5 0.5h-1c-0.276 0-0.5-0.224-0.5-0.5v-2.5c0-0.553 0.447-1 1-1h10c0.552 0 1 0.447 1 1v2.5zM0 30c0 1.104 0.896 2 2 2h28c1.104 0 2-0.896 2-2v-14h-32v14zM10 23c0-0.552 0.447-1 1-1h10c0.552 0 1 0.448 1 1v2.5c0 0.276-0.224 0.5-0.5 0.5h-1c-0.276 0-0.5-0.224-0.5-0.5v-1.5h-8v1.5c0 0.276-0.224 0.5-0.5 0.5h-1c-0.276 0-0.5-0.224-0.5-0.5v-2.5z"></path>
</svg>
