<!-- Generated by IcoMoon.io -->
<svg version="1.1" xmlns="http://www.w3.org/2000/svg" width="32" height="32" viewBox="0 0 32 32">
<title>cactus</title>
<path d="M27.909 13.049c-1.721 0.284-2.909 1.904-2.909 3.648v1.803c0 0.276-0.224 0.5-0.5 0.5v0h-2.5v-12.661c0-3.25-2.433-6.161-5.678-6.331-0.096-0.006-0.209-0.009-0.322-0.009-3.314 0-6 2.686-6 6v0 6h-2.5c-0.276 0-0.5-0.224-0.5-0.5v0-1.803c0-1.744-1.188-3.364-2.909-3.648-0.176-0.031-0.379-0.049-0.586-0.049-1.934 0-3.502 1.567-3.505 3.5v2c0 4.142 3.358 7.5 7.5 7.5v0h2.5v12c0 0.552 0.448 1 1 1v0h10c0.552 0 1-0.448 1-1v0-5h2.5c4.142 0 7.5-3.358 7.5-7.5v0-2c-0.003-1.934-1.571-3.501-3.505-3.501-0.207 0-0.41 0.018-0.607 0.052l0.021-0.003zM10 17h-2.5c-3.036-0.003-5.497-2.464-5.5-5.5v-2c0-0.828 0.672-1.5 1.5-1.5s1.5 0.672 1.5 1.5v0 2c0 1.381 1.119 2.5 2.5 2.5v0h2.5zM20 30h-8v-24c0-2.209 1.791-4 4-4s4 1.791 4 4v0zM30 18.5c-0.003 3.036-2.464 5.497-5.5 5.5h-2.5v-3h2.5c1.381 0 2.5-1.119 2.5-2.5v0-2c0-0.828 0.672-1.5 1.5-1.5s1.5 0.672 1.5 1.5v0zM15 8c-0.552 0-1 0.448-1 1s0.448 1 1 1c0.552 0 1-0.448 1-1v0c0-0.552-0.448-1-1-1v0zM17 22c-0.552 0-1 0.448-1 1s0.448 1 1 1c0.552 0 1-0.448 1-1v0c0-0.552-0.448-1-1-1v0z"></path>
</svg>
