<!-- Generated by IcoMoon.io -->
<svg version="1.1" xmlns="http://www.w3.org/2000/svg" width="32" height="32" viewBox="0 0 32 32">
<title>cactus-solid</title>
<path d="M29 14c-1.657 0-3 1.343-3 3v0 4c0 0.552-0.448 1-1 1v0h-3v-15.661c0-3.25-2.433-6.161-5.678-6.331-0.096-0.006-0.209-0.009-0.322-0.009-3.314 0-6 2.686-6 6v0 8h-3c-0.552 0-1-0.448-1-1v0-4c0-1.657-1.343-3-3-3s-3 1.343-3 3v0 4c0 3.866 3.134 7 7 7v0h3v10c0 1.105 0.895 2 2 2v0h8c1.105 0 2-0.895 2-2v0-2h3c3.866 0 7-3.134 7-7v0-4c0-1.657-1.343-3-3-3v0zM14 11c-0.552 0-1-0.448-1-1s0.448-1 1-1c0.552 0 1 0.448 1 1v0c0 0.552-0.448 1-1 1v0zM18 25c-0.552 0-1-0.448-1-1s0.448-1 1-1c0.552 0 1 0.448 1 1v0c0 0.552-0.448 1-1 1v0z"></path>
</svg>
