<!-- Generated by IcoMoon.io -->
<svg version="1.1" xmlns="http://www.w3.org/2000/svg" width="30" height="32" viewBox="0 0 30 32">
<title>calculator-alt</title>
<path d="M4.5 10h7c0.276 0 0.5-0.224 0.5-0.5v-1c0-0.276-0.224-0.5-0.5-0.5h-7c-0.276 0-0.5 0.224-0.5 0.5v1c0 0.276 0.224 0.5 0.5 0.5zM4.818 25.475l0.707 0.707c0.195 0.195 0.512 0.195 0.707 0l1.768-1.768 1.768 1.768c0.195 0.195 0.512 0.195 0.707 0l0.707-0.707c0.195-0.195 0.195-0.512 0-0.707l-1.768-1.769 1.768-1.768c0.195-0.195 0.195-0.512 0-0.707l-0.707-0.707c-0.195-0.195-0.512-0.195-0.707 0l-1.769 1.768-1.768-1.768c-0.195-0.195-0.512-0.195-0.707 0l-0.707 0.707c-0.195 0.195-0.195 0.512 0 0.707l1.768 1.768-1.768 1.767c-0.090 0.090-0.146 0.215-0.146 0.353s0.056 0.264 0.147 0.354v0zM28 1h-26c-1.104 0-2 0.896-2 2v26c0 1.104 0.896 2 2 2h26c1.104 0 2-0.896 2-2v-26c0-1.104-0.896-2-2-2zM14 29h-12v-12h12v12zM14 15h-12v-12h12v12zM28 29h-12v-12h12v12zM28 15h-12v-12h12v12zM18.5 10h2.5v2.5c0 0.276 0.224 0.5 0.5 0.5h1c0.276 0 0.5-0.224 0.5-0.5v-2.5h2.5c0.276 0 0.5-0.224 0.5-0.5v-1c0-0.276-0.224-0.5-0.5-0.5h-2.5v-2.5c0-0.276-0.224-0.5-0.5-0.5h-1c-0.276 0-0.5 0.224-0.5 0.5v2.5h-2.5c-0.276 0-0.5 0.224-0.5 0.5v1c0 0.276 0.224 0.5 0.5 0.5zM18.5 26h7c0.276 0 0.5-0.224 0.5-0.5v-1c0-0.276-0.224-0.5-0.5-0.5h-7c-0.276 0-0.5 0.224-0.5 0.5v1c0 0.276 0.224 0.5 0.5 0.5zM18.5 22h7c0.276 0 0.5-0.224 0.5-0.5v-1c0-0.276-0.224-0.5-0.5-0.5h-7c-0.276 0-0.5 0.224-0.5 0.5v1c0 0.276 0.224 0.5 0.5 0.5z"></path>
</svg>
