<!-- Generated by IcoMoon.io -->
<svg version="1.1" xmlns="http://www.w3.org/2000/svg" width="28" height="32" viewBox="0 0 28 32">
<title>calculator-solid</title>
<path d="M25 0h-22c-1.6 0-3 1.4-3 3v26c0 1.6 1.4 3 3 3h22c1.6 0 3-1.4 3-3v-26c0-1.6-1.4-3-3-3zM8 27.2c0 0.4-0.4 0.8-0.8 0.8h-2.4c-0.4 0-0.8-0.4-0.8-0.8v-2.4c0-0.4 0.4-0.8 0.8-0.8h2.4c0.4 0 0.8 0.4 0.8 0.8v2.4zM8 19.2c0 0.4-0.4 0.8-0.8 0.8h-2.4c-0.4 0-0.8-0.4-0.8-0.8v-2.4c0-0.4 0.4-0.8 0.8-0.8h2.4c0.4 0 0.8 0.4 0.8 0.8v2.4zM16 27.2c0 0.4-0.4 0.8-0.8 0.8h-2.4c-0.4 0-0.8-0.4-0.8-0.8v-2.4c0-0.4 0.4-0.8 0.8-0.8h2.4c0.4 0 0.8 0.4 0.8 0.8v2.4zM16 19.2c0 0.4-0.4 0.8-0.8 0.8h-2.4c-0.4 0-0.8-0.4-0.8-0.8v-2.4c0-0.4 0.4-0.8 0.8-0.8h2.4c0.4 0 0.8 0.4 0.8 0.8v2.4zM24 27.2c0 0.4-0.4 0.8-0.8 0.8h-2.4c-0.4 0-0.8-0.4-0.8-0.8v-10.4c0-0.4 0.4-0.8 0.8-0.8h2.4c0.4 0 0.8 0.4 0.8 0.8v10.4zM24 11.2c0 0.4-0.4 0.8-0.8 0.8h-18.4c-0.4 0-0.8-0.4-0.8-0.8v-6.4c0-0.4 0.4-0.8 0.8-0.8h18.4c0.4 0 0.8 0.4 0.8 0.8v6.4z"></path>
</svg>
