<!-- Generated by IcoMoon.io -->
<svg version="1.1" xmlns="http://www.w3.org/2000/svg" width="28" height="32" viewBox="0 0 28 32">
<title>calculator</title>
<path d="M5 28h18c0.552 0 1-0.448 1-1v-12c0-0.553-0.448-1-1-1h-18c-0.553 0-1 0.447-1 1v12c0 0.552 0.447 1 1 1zM18 22v-6h4v10h-4v-4zM12 16h4v4h-4v-4zM12 22h4v4h-4v-4zM6 16h4v4h-4v-4zM6 22h4v4h-4v-4zM25 0h-22c-1.6 0-3 1.4-3 3v26c0 1.6 1.4 3 3 3h22c1.6 0 3-1.4 3-3v-26c0-1.6-1.4-3-3-3zM26 29c0 0.496-0.504 1-1 1h-22c-0.496 0-1-0.504-1-1v-17h24v17zM26 10h-24v-7c0-0.496 0.504-1 1-1h22c0.496 0 1 0.504 1 1v7z"></path>
</svg>
