<!-- Generated by IcoMoon.io -->
<svg version="1.1" xmlns="http://www.w3.org/2000/svg" width="32" height="32" viewBox="0 0 32 32">
<title>calculator-alt-solid</title>
<path d="M12 18h-10c-1.104 0-2 0.896-2 2v10c0 1.104 0.896 2 2 2h10c1.104 0 2-0.896 2-2v-10c0-1.104-0.896-2-2-2zM10.182 26.768c0.195 0.195 0.195 0.512 0 0.707l-0.707 0.707c-0.195 0.195-0.512 0.195-0.707 0l-1.768-1.768-1.768 1.768c-0.195 0.195-0.512 0.195-0.707 0l-0.707-0.707c-0.195-0.195-0.195-0.512 0-0.707l1.768-1.768-1.768-1.768c-0.195-0.195-0.195-0.512 0-0.707l0.707-0.707c0.195-0.195 0.512-0.195 0.707 0l1.769 1.768 1.768-1.768c0.195-0.195 0.512-0.195 0.707 0l0.707 0.707c0.195 0.195 0.195 0.512 0 0.707l-1.768 1.769 1.768 1.768zM30 0h-10c-1.104 0-2 0.896-2 2v10c0 1.104 0.896 2 2 2h10c1.104 0 2-0.896 2-2v-10c0-1.104-0.896-2-2-2zM29 7.5c0 0.276-0.224 0.5-0.5 0.5h-2.5v2.5c0 0.276-0.224 0.5-0.5 0.5h-1c-0.276 0-0.5-0.224-0.5-0.5v-2.5h-2.5c-0.276 0-0.5-0.224-0.5-0.5v-1c0-0.276 0.224-0.5 0.5-0.5h2.5v-2.5c0-0.276 0.224-0.5 0.5-0.5h1c0.276 0 0.5 0.224 0.5 0.5v2.5h2.5c0.276 0 0.5 0.224 0.5 0.5v1zM30 18h-10c-1.104 0-2 0.896-2 2v10c0 1.104 0.896 2 2 2h10c1.104 0 2-0.896 2-2v-10c0-1.104-0.896-2-2-2zM29 27.5c0 0.276-0.224 0.5-0.5 0.5h-7c-0.276 0-0.5-0.224-0.5-0.5v-1c0-0.276 0.224-0.5 0.5-0.5h7c0.276 0 0.5 0.224 0.5 0.5v1zM29 23.5c0 0.276-0.224 0.5-0.5 0.5h-7c-0.276 0-0.5-0.224-0.5-0.5v-1c0-0.276 0.224-0.5 0.5-0.5h7c0.276 0 0.5 0.224 0.5 0.5v1zM12 0h-10c-1.104 0-2 0.896-2 2v10c0 1.104 0.896 2 2 2h10c1.104 0 2-0.896 2-2v-10c0-1.104-0.896-2-2-2zM11 7.5c0 0.276-0.224 0.5-0.5 0.5h-7c-0.276 0-0.5-0.224-0.5-0.5v-1c0-0.276 0.224-0.5 0.5-0.5h7c0.276 0 0.5 0.224 0.5 0.5v1z"></path>
</svg>
