<!-- Generated by IcoMoon.io -->
<svg version="1.1" xmlns="http://www.w3.org/2000/svg" width="28" height="32" viewBox="0 0 28 32">
<title>calendar-edit</title>
<path d="M25 4h-3v-3.25c0-0.412-0.337-0.75-0.75-0.75h-0.5c-0.413 0-0.75 0.338-0.75 0.75v3.25h-12v-3.25c0-0.412-0.338-0.75-0.75-0.75h-0.5c-0.412 0-0.75 0.338-0.75 0.75v3.25h-3c-1.656 0-3 1.344-3 3v22c0 1.656 1.344 3 3 3h22c1.656 0 3-1.344 3-3v-22c0-1.656-1.344-3-3-3zM3 6h22c0.55 0 1 0.45 1 1v3h-24v-3c0-0.55 0.45-1 1-1zM25 30h-22c-0.55 0-1-0.45-1-1v-17h24v17c0 0.55-0.45 1-1 1zM15.981 16.856l2.163 2.163c0.131 0.131 0.131 0.337 0 0.462l-8.2 8.2-2.194 0.313c-0.431 0.063-0.806-0.306-0.744-0.744l0.313-2.194 8.2-8.2c0.125-0.125 0.338-0.125 0.463 0zM20.681 16.944l-1.2 1.2c-0.131 0.131-0.337 0.131-0.462 0l-2.163-2.162c-0.131-0.131-0.131-0.338 0-0.463l1.2-1.2c0.425-0.425 1.119-0.425 1.544 0l1.081 1.081c0.425 0.425 0.425 1.119 0 1.544z"></path>
</svg>
