<!-- Generated by IcoMoon.io -->
<svg version="1.1" xmlns="http://www.w3.org/2000/svg" width="28" height="32" viewBox="0 0 28 32">
<title>calendar-exclamation</title>
<path d="M25 4h-3v-3.25c0-0.412-0.337-0.75-0.75-0.75h-0.5c-0.413 0-0.75 0.338-0.75 0.75v3.25h-12v-3.25c0-0.412-0.338-0.75-0.75-0.75h-0.5c-0.412 0-0.75 0.338-0.75 0.75v3.25h-3c-1.656 0-3 1.344-3 3v22c0 1.656 1.344 3 3 3h22c1.656 0 3-1.344 3-3v-22c0-1.656-1.344-3-3-3zM3 6h22c0.55 0 1 0.45 1 1v3h-24v-3c0-0.55 0.45-1 1-1zM25 30h-22c-0.55 0-1-0.45-1-1v-17h24v17c0 0.55-0.45 1-1 1zM13.294 14h1.412c0.431 0 0.775 0.363 0.75 0.794l-0.419 7.5c-0.025 0.4-0.35 0.706-0.75 0.706h-0.581c-0.4 0-0.725-0.313-0.75-0.706l-0.419-7.5c-0.019-0.431 0.325-0.794 0.756-0.794zM15.75 26c0 0.969-0.781 1.75-1.75 1.75s-1.75-0.781-1.75-1.75 0.781-1.75 1.75-1.75 1.75 0.781 1.75 1.75z"></path>
</svg>
