<!-- Generated by IcoMoon.io -->
<svg version="1.1" xmlns="http://www.w3.org/2000/svg" width="28" height="32" viewBox="0 0 28 32">
<title>calendar-plus</title>
<path d="M20 20.75v0.5c0 0.413-0.337 0.75-0.75 0.75h-4.25v4.25c0 0.413-0.338 0.75-0.75 0.75h-0.5c-0.412 0-0.75-0.337-0.75-0.75v-4.25h-4.25c-0.412 0-0.75-0.337-0.75-0.75v-0.5c0-0.413 0.338-0.75 0.75-0.75h4.25v-4.25c0-0.412 0.338-0.75 0.75-0.75h0.5c0.412 0 0.75 0.338 0.75 0.75v4.25h4.25c0.413 0 0.75 0.337 0.75 0.75zM28 7v22c0 1.656-1.344 3-3 3h-22c-1.656 0-3-1.344-3-3v-22c0-1.656 1.344-3 3-3h3v-3.25c0-0.412 0.338-0.75 0.75-0.75h0.5c0.412 0 0.75 0.338 0.75 0.75v3.25h12v-3.25c0-0.412 0.337-0.75 0.75-0.75h0.5c0.413 0 0.75 0.338 0.75 0.75v3.25h3c1.656 0 3 1.344 3 3zM2 7v3h24v-3c0-0.55-0.45-1-1-1h-22c-0.55 0-1 0.45-1 1zM26 29v-17h-24v17c0 0.55 0.45 1 1 1h22c0.55 0 1-0.45 1-1z"></path>
</svg>
