<!-- Generated by IcoMoon.io -->
<svg version="1.1" xmlns="http://www.w3.org/2000/svg" width="28" height="32" viewBox="0 0 28 32">
<title>calendar-star</title>
<path d="M9.363 23.063l-0.494 2.894c-0.113 0.663 0.156 1.319 0.7 1.712 0.306 0.219 0.669 0.337 1.025 0.337 0.275 0 0.556-0.069 0.813-0.206l2.594-1.363 2.594 1.363c0.594 0.313 1.3 0.262 1.844-0.131s0.813-1.050 0.7-1.712l-0.494-2.894 2.094-2.044c0.481-0.469 0.65-1.156 0.444-1.794s-0.75-1.094-1.413-1.188l-2.9-0.425-1.294-2.631c-0.306-0.606-0.906-0.981-1.575-0.981s-1.269 0.375-1.563 0.975l-1.294 2.631-2.9 0.425c-0.662 0.094-1.206 0.55-1.412 1.188s-0.037 1.325 0.444 1.794l2.088 2.050zM12.463 19.431l1.537-3.119 1.537 3.119 3.438 0.5-2.488 2.431 0.587 3.425-3.075-1.613-3.075 1.619 0.588-3.425-2.487-2.431 3.438-0.506zM25 4h-3v-3.5c0-0.275-0.225-0.5-0.5-0.5h-1c-0.275 0-0.5 0.225-0.5 0.5v3.5h-12v-3.5c0-0.275-0.225-0.5-0.5-0.5h-1c-0.275 0-0.5 0.225-0.5 0.5v3.5h-3c-1.656 0-3 1.344-3 3v22c0 1.656 1.344 3 3 3h22c1.656 0 3-1.344 3-3v-22c0-1.656-1.344-3-3-3zM26 29c0 0.55-0.45 1-1 1h-22c-0.55 0-1-0.45-1-1v-17h24v17zM26 10h-24v-3c0-0.55 0.45-1 1-1h22c0.55 0 1 0.45 1 1v3z"></path>
</svg>
