<!-- Generated by IcoMoon.io -->
<svg version="1.1" xmlns="http://www.w3.org/2000/svg" width="28" height="32" viewBox="0 0 28 32">
<title>calendar-star-solid</title>
<path d="M25 4h-3v-3c0-0.55-0.45-1-1-1h-2c-0.55 0-1 0.45-1 1v3h-8v-3c0-0.55-0.45-1-1-1h-2c-0.55 0-1 0.45-1 1v3h-3c-1.656 0-3 1.344-3 3v3h28v-3c0-1.656-1.344-3-3-3zM0 29c0 1.656 1.344 3 3 3h22c1.656 0 3-1.344 3-3v-17h-28v17zM8.381 20.019l3.419-0.5 1.531-3.1c0.275-0.563 1.069-0.55 1.344 0l1.531 3.1 3.419 0.5c0.613 0.087 0.856 0.844 0.413 1.281l-2.475 2.413 0.587 3.413c0.106 0.619-0.544 1.075-1.087 0.788l-3.063-1.613-3.056 1.613c-0.544 0.288-1.194-0.175-1.088-0.788l0.588-3.413-2.475-2.413c-0.45-0.438-0.2-1.194 0.412-1.281z"></path>
</svg>
