<!-- Generated by IcoMoon.io -->
<svg version="1.1" xmlns="http://www.w3.org/2000/svg" width="28" height="32" viewBox="0 0 28 32">
<title>calendar-edit-solid</title>
<path d="M27.25 10h-26.5c-0.412 0-0.75-0.338-0.75-0.75v-2.25c0-1.656 1.344-3 3-3h3v-3.25c0-0.412 0.338-0.75 0.75-0.75h2.5c0.412 0 0.75 0.338 0.75 0.75v3.25h8v-3.25c0-0.412 0.337-0.75 0.75-0.75h2.5c0.413 0 0.75 0.338 0.75 0.75v3.25h3c1.656 0 3 1.344 3 3v2.25c0 0.412-0.337 0.75-0.75 0.75zM0.75 12h26.5c0.413 0 0.75 0.338 0.75 0.75v16.25c0 1.656-1.344 3-3 3h-22c-1.656 0-3-1.344-3-3v-16.25c0-0.412 0.338-0.75 0.75-0.75zM13.775 18.85l-5.938 5.938-0.338 3.012c-0.044 0.4 0.294 0.744 0.7 0.7l3.012-0.337 5.938-5.938c0.125-0.125 0.125-0.325 0-0.45l-2.925-2.925c-0.125-0.125-0.325-0.125-0.45 0zM20.631 16.956l-1.587-1.588c-0.494-0.494-1.294-0.494-1.788 0l-1.625 1.625c-0.125 0.125-0.125 0.325 0 0.45l2.925 2.925c0.125 0.125 0.325 0.125 0.45 0l1.625-1.625c0.494-0.494 0.494-1.294 0-1.788z"></path>
</svg>
