<!-- Generated by IcoMoon.io -->
<svg version="1.1" xmlns="http://www.w3.org/2000/svg" width="28" height="32" viewBox="0 0 28 32">
<title>calendar</title>
<path d="M25 4h-3v-3.25c0-0.414-0.336-0.75-0.75-0.75h-0.5c-0.414 0-0.75 0.336-0.75 0.75v3.25h-12v-3.25c0-0.414-0.336-0.75-0.75-0.75h-0.5c-0.414 0-0.75 0.336-0.75 0.75v3.25h-3c-1.657 0-3 1.343-3 3v22c0 1.657 1.343 3 3 3h22c1.657 0 3-1.343 3-3v-22c0-1.657-1.343-3-3-3zM3 6h22c0.551 0 1 0.449 1 1v3h-24v-3c0-0.551 0.449-1 1-1zM25 30h-22c-0.551 0-1-0.449-1-1v-17h24v17c0 0.551-0.449 1-1 1z"></path>
</svg>
