<!-- Generated by IcoMoon.io -->
<svg version="1.1" xmlns="http://www.w3.org/2000/svg" width="28" height="32" viewBox="0 0 28 32">
<title>calendar-alt-solid</title>
<path d="M0 29c0 1.656 1.344 3 3 3h22c1.656 0 3-1.344 3-3v-17h-28v17zM20 16.75c0-0.413 0.337-0.75 0.75-0.75h2.5c0.413 0 0.75 0.337 0.75 0.75v2.5c0 0.413-0.337 0.75-0.75 0.75h-2.5c-0.413 0-0.75-0.337-0.75-0.75v-2.5zM20 24.75c0-0.413 0.337-0.75 0.75-0.75h2.5c0.413 0 0.75 0.337 0.75 0.75v2.5c0 0.413-0.337 0.75-0.75 0.75h-2.5c-0.413 0-0.75-0.337-0.75-0.75v-2.5zM12 16.75c0-0.413 0.338-0.75 0.75-0.75h2.5c0.412 0 0.75 0.337 0.75 0.75v2.5c0 0.413-0.338 0.75-0.75 0.75h-2.5c-0.412 0-0.75-0.337-0.75-0.75v-2.5zM12 24.75c0-0.413 0.338-0.75 0.75-0.75h2.5c0.412 0 0.75 0.337 0.75 0.75v2.5c0 0.413-0.338 0.75-0.75 0.75h-2.5c-0.412 0-0.75-0.337-0.75-0.75v-2.5zM4 16.75c0-0.413 0.338-0.75 0.75-0.75h2.5c0.412 0 0.75 0.337 0.75 0.75v2.5c0 0.413-0.338 0.75-0.75 0.75h-2.5c-0.412 0-0.75-0.337-0.75-0.75v-2.5zM4 24.75c0-0.413 0.338-0.75 0.75-0.75h2.5c0.412 0 0.75 0.337 0.75 0.75v2.5c0 0.413-0.338 0.75-0.75 0.75h-2.5c-0.412 0-0.75-0.337-0.75-0.75v-2.5zM25 4h-3v-3c0-0.55-0.45-1-1-1h-2c-0.55 0-1 0.45-1 1v3h-8v-3c0-0.55-0.45-1-1-1h-2c-0.55 0-1 0.45-1 1v3h-3c-1.656 0-3 1.344-3 3v3h28v-3c0-1.656-1.344-3-3-3z"></path>
</svg>
