<!-- Generated by IcoMoon.io -->
<svg version="1.1" xmlns="http://www.w3.org/2000/svg" width="28" height="32" viewBox="0 0 28 32">
<title>calendar-check-solid</title>
<path d="M27.25 10h-26.5c-0.414 0-0.75-0.336-0.75-0.75v-2.25c0-1.657 1.343-3 3-3h3v-3.25c0-0.414 0.336-0.75 0.75-0.75h2.5c0.414 0 0.75 0.336 0.75 0.75v3.25h8v-3.25c0-0.414 0.336-0.75 0.75-0.75h2.5c0.414 0 0.75 0.336 0.75 0.75v3.25h3c1.657 0 3 1.343 3 3v2.25c0 0.414-0.336 0.75-0.75 0.75zM0.75 12h26.5c0.414 0 0.75 0.336 0.75 0.75v16.25c0 1.657-1.343 3-3 3h-22c-1.657 0-3-1.343-3-3v-16.25c0-0.414 0.336-0.75 0.75-0.75zM21.581 17.997l-1.761-1.775c-0.292-0.294-0.767-0.296-1.061-0.004l-6.627 6.574-2.874-2.897c-0.292-0.294-0.767-0.296-1.061-0.004l-1.775 1.761c-0.294 0.292-0.296 0.767-0.004 1.061l5.163 5.204c0.292 0.294 0.767 0.296 1.061 0.004l8.935-8.863c0.294-0.292 0.296-0.767 0.004-1.061z"></path>
</svg>
