<!-- Generated by IcoMoon.io -->
<svg version="1.1" xmlns="http://www.w3.org/2000/svg" width="28" height="32" viewBox="0 0 28 32">
<title>calendar-alt</title>
<path d="M25 4h-3v-3.25c0-0.412-0.337-0.75-0.75-0.75h-0.5c-0.413 0-0.75 0.338-0.75 0.75v3.25h-12v-3.25c0-0.412-0.338-0.75-0.75-0.75h-0.5c-0.412 0-0.75 0.338-0.75 0.75v3.25h-3c-1.656 0-3 1.344-3 3v22c0 1.656 1.344 3 3 3h22c1.656 0 3-1.344 3-3v-22c0-1.656-1.344-3-3-3zM3 6h22c0.55 0 1 0.45 1 1v3h-24v-3c0-0.55 0.45-1 1-1zM25 30h-22c-0.55 0-1-0.45-1-1v-17h24v17c0 0.55-0.45 1-1 1zM9.25 20h-2.5c-0.412 0-0.75-0.337-0.75-0.75v-2.5c0-0.413 0.338-0.75 0.75-0.75h2.5c0.412 0 0.75 0.337 0.75 0.75v2.5c0 0.413-0.338 0.75-0.75 0.75zM15.25 20h-2.5c-0.412 0-0.75-0.337-0.75-0.75v-2.5c0-0.413 0.338-0.75 0.75-0.75h2.5c0.412 0 0.75 0.337 0.75 0.75v2.5c0 0.413-0.338 0.75-0.75 0.75zM21.25 20h-2.5c-0.413 0-0.75-0.337-0.75-0.75v-2.5c0-0.413 0.337-0.75 0.75-0.75h2.5c0.413 0 0.75 0.337 0.75 0.75v2.5c0 0.413-0.337 0.75-0.75 0.75zM15.25 26h-2.5c-0.412 0-0.75-0.337-0.75-0.75v-2.5c0-0.413 0.338-0.75 0.75-0.75h2.5c0.412 0 0.75 0.337 0.75 0.75v2.5c0 0.413-0.338 0.75-0.75 0.75zM9.25 26h-2.5c-0.412 0-0.75-0.337-0.75-0.75v-2.5c0-0.413 0.338-0.75 0.75-0.75h2.5c0.412 0 0.75 0.337 0.75 0.75v2.5c0 0.413-0.338 0.75-0.75 0.75zM21.25 26h-2.5c-0.413 0-0.75-0.337-0.75-0.75v-2.5c0-0.413 0.337-0.75 0.75-0.75h2.5c0.413 0 0.75 0.337 0.75 0.75v2.5c0 0.413-0.337 0.75-0.75 0.75z"></path>
</svg>
