<!-- Generated by IcoMoon.io -->
<svg version="1.1" xmlns="http://www.w3.org/2000/svg" width="28" height="32" viewBox="0 0 28 32">
<title>calendar-times</title>
<path d="M25 4h-3v-3.25c0-0.412-0.337-0.75-0.75-0.75h-0.5c-0.413 0-0.75 0.338-0.75 0.75v3.25h-12v-3.25c0-0.412-0.338-0.75-0.75-0.75h-0.5c-0.412 0-0.75 0.338-0.75 0.75v3.25h-3c-1.656 0-3 1.344-3 3v22c0 1.656 1.344 3 3 3h22c1.656 0 3-1.344 3-3v-22c0-1.656-1.344-3-3-3zM3 6h22c0.55 0 1 0.45 1 1v3h-24v-3c0-0.55 0.45-1 1-1zM25 30h-22c-0.55 0-1-0.45-1-1v-17h24v17c0 0.55-0.45 1-1 1zM18.419 24.006c0.294 0.294 0.294 0.769 0 1.063l-0.356 0.356c-0.294 0.294-0.769 0.294-1.063 0l-3-3.012-3.006 3.006c-0.294 0.294-0.769 0.294-1.063 0l-0.356-0.356c-0.294-0.294-0.294-0.769 0-1.063l3.006-3.006-3.006-3.006c-0.294-0.294-0.294-0.769 0-1.063l0.356-0.356c0.294-0.294 0.769-0.294 1.063 0l3.006 3.006 3.006-3.006c0.294-0.294 0.769-0.294 1.063 0l0.356 0.356c0.294 0.294 0.294 0.769 0 1.063l-3.012 3.012 3.006 3.006z"></path>
</svg>
