<!-- Generated by IcoMoon.io -->
<svg version="1.1" xmlns="http://www.w3.org/2000/svg" width="28" height="32" viewBox="0 0 28 32">
<title>calendar-week</title>
<path d="M25 4h-3v-3.5c0-0.275-0.225-0.5-0.5-0.5h-1c-0.275 0-0.5 0.225-0.5 0.5v3.5h-12v-3.5c0-0.275-0.225-0.5-0.5-0.5h-1c-0.275 0-0.5 0.225-0.5 0.5v3.5h-3c-1.656 0-3 1.344-3 3v22c0 1.656 1.344 3 3 3h22c1.656 0 3-1.344 3-3v-22c0-1.656-1.344-3-3-3zM26 29c0 0.55-0.45 1-1 1h-22c-0.55 0-1-0.45-1-1v-17h24v17zM26 10h-24v-3c0-0.55 0.45-1 1-1h22c0.55 0 1 0.45 1 1v3zM5 22h18c0.55 0 1-0.45 1-1v-6c0-0.55-0.45-1-1-1h-18c-0.55 0-1 0.45-1 1v6c0 0.55 0.45 1 1 1zM6 16h16v4h-16v-4z"></path>
</svg>
