<!-- Generated by IcoMoon.io -->
<svg version="1.1" xmlns="http://www.w3.org/2000/svg" width="28" height="32" viewBox="0 0 28 32">
<title>calendar-exclamation-solid</title>
<path d="M0 9.25v-2.25c0-1.656 1.344-3 3-3h3v-3.25c0-0.412 0.338-0.75 0.75-0.75h2.5c0.412 0 0.75 0.338 0.75 0.75v3.25h8v-3.25c0-0.412 0.337-0.75 0.75-0.75h2.5c0.413 0 0.75 0.338 0.75 0.75v3.25h3c1.656 0 3 1.344 3 3v2.25c0 0.412-0.337 0.75-0.75 0.75h-26.5c-0.412 0-0.75-0.338-0.75-0.75zM28 12.75v16.25c0 1.656-1.344 3-3 3h-22c-1.656 0-3-1.344-3-3v-16.25c0-0.412 0.338-0.75 0.75-0.75h26.5c0.413 0 0.75 0.338 0.75 0.75zM14 24.5c-1.381 0-2.5 1.119-2.5 2.5s1.119 2.5 2.5 2.5 2.5-1.119 2.5-2.5-1.119-2.5-2.5-2.5zM11.55 15.8l0.45 7c0.025 0.394 0.35 0.7 0.75 0.7h2.5c0.394 0 0.725-0.306 0.75-0.7l0.45-7c0.025-0.431-0.313-0.8-0.75-0.8h-3.4c-0.431 0-0.775 0.369-0.75 0.8z"></path>
</svg>
