<!-- Generated by IcoMoon.io -->
<svg version="1.1" xmlns="http://www.w3.org/2000/svg" width="28" height="32" viewBox="0 0 28 32">
<title>calendar-times-solid</title>
<path d="M27.25 10h-26.5c-0.412 0-0.75-0.338-0.75-0.75v-2.25c0-1.656 1.344-3 3-3h3v-3.25c0-0.412 0.338-0.75 0.75-0.75h2.5c0.412 0 0.75 0.338 0.75 0.75v3.25h8v-3.25c0-0.412 0.337-0.75 0.75-0.75h2.5c0.413 0 0.75 0.338 0.75 0.75v3.25h3c1.656 0 3 1.344 3 3v2.25c0 0.412-0.337 0.75-0.75 0.75zM0.75 12h26.5c0.413 0 0.75 0.338 0.75 0.75v16.25c0 1.656-1.344 3-3 3h-22c-1.656 0-3-1.344-3-3v-16.25c0-0.412 0.338-0.75 0.75-0.75zM16.831 22l3.006-3.006c0.294-0.294 0.294-0.769 0-1.063l-1.769-1.769c-0.294-0.294-0.769-0.294-1.063 0l-3.006 3.006-3.006-3.006c-0.294-0.294-0.769-0.294-1.063 0l-1.769 1.769c-0.294 0.294-0.294 0.769 0 1.063l3.006 3.006-3.006 3.006c-0.294 0.294-0.294 0.769 0 1.063l1.769 1.769c0.294 0.294 0.769 0.294 1.063 0l3.006-3.006 3.006 3.006c0.294 0.294 0.769 0.294 1.063 0l1.769-1.769c0.294-0.294 0.294-0.769 0-1.063l-3.006-3.006z"></path>
</svg>
