<!-- Generated by IcoMoon.io -->
<svg version="1.1" xmlns="http://www.w3.org/2000/svg" width="36" height="32" viewBox="0 0 36 32">
<title>camcorder-solid</title>
<path d="M32.849 10.356l-6.849 4.725v9.838l6.849 4.719c1.326 0.913 3.151-0.018 3.151-1.612v-16.057c0-1.588-1.818-2.526-3.151-1.613zM21.012 10h-15.012v-2c0-1.105 0.895-2 2-2v0h11c0.552 0 1-0.448 1-1v0-2c0-0.552-0.448-1-1-1v0h-11c-3.314 0-6 2.686-6 6v0 2.181c-1.172 0.417-1.997 1.515-2 2.807v14.025c0 1.65 1.338 2.987 2.987 2.988h18.025c1.65-0 2.987-1.338 2.988-2.987v-14.025c-0-1.65-1.338-2.987-2.987-2.987h-0zM20 15.6c-0 0.221-0.179 0.4-0.4 0.4h-15.2c-0.221-0-0.4-0.179-0.4-0.4v-1.2c0-0.221 0.179-0.4 0.4-0.4h15.2c0.221 0 0.4 0.179 0.4 0.4v0z"></path>
</svg>
