<!-- Generated by IcoMoon.io -->
<svg version="1.1" xmlns="http://www.w3.org/2000/svg" width="36" height="32" viewBox="0 0 36 32">
<title>camcorder</title>
<path d="M31.992 10l0.008 1.969-0.014 16.023-5.986-4.134v-7.718l5.991-4.139v-2c-0.427 0.001-0.823 0.135-1.148 0.362l0.006-0.004-4.849 3.349v-0.707c0-1.657-1.343-3-3-3v0h-15v-3c0-1.657 1.343-3 3-3v0h10.5c0.276 0 0.5-0.224 0.5-0.5v0-1c0-0.276-0.224-0.5-0.5-0.5v0h-10.5c-2.761 0-5 2.239-5 5v0 3h-1c-1.657 0-3 1.343-3 3v0 14c0 1.657 1.343 3 3 3v0h18c1.657 0 3-1.343 3-3v0-0.712l4.849 3.349c0.318 0.225 0.714 0.361 1.141 0.363h0c1.039 0 2.009-0.813 2.009-1.974v-16.057c0-1.156-0.968-1.969-2.008-1.969zM24 27c0 0.552-0.448 1-1 1v0h-18c-0.552 0-1-0.448-1-1v0-14c0-0.552 0.448-1 1-1v0h18c0.552 0 1 0.448 1 1v0zM21.6 14h-15.2c-0.221 0-0.4 0.179-0.4 0.4v1.2c0 0.221 0.179 0.4 0.4 0.4h15.2c0.221-0 0.4-0.179 0.4-0.4v-1.2c-0-0.221-0.179-0.4-0.4-0.4h-0z"></path>
</svg>
