<!-- Generated by IcoMoon.io -->
<svg version="1.1" xmlns="http://www.w3.org/2000/svg" width="36" height="32" viewBox="0 0 36 32">
<title>camera-movie</title>
<path d="M23 5c-2.209 0-4 1.791-4 4s1.791 4 4 4c2.209 0 4-1.791 4-4v0c0-2.209-1.791-4-4-4v0zM23 11c-1.105 0-2-0.895-2-2s0.895-2 2-2c1.105 0 2 0.895 2 2v0c0 1.105-0.895 2-2 2v0zM11 5c-2.209 0-4 1.791-4 4s1.791 4 4 4c2.209 0 4-1.791 4-4v0c-0.002-2.208-1.792-3.998-4-4h-0zM11 11c-1.105 0-2-0.895-2-2s0.895-2 2-2c1.105 0 2 0.895 2 2v0c0 1.105-0.895 2-2 2v0zM34.393 16c-0.342 0.001-0.658 0.108-0.918 0.29l0.005-0.003-5.48 3.813v-1.099c-0.001-0.803-0.318-1.532-0.835-2.068l0.001 0.001c2.861-1.508 4.834-4.474 4.834-7.933 0-4.971-4.029-9-9-9v0c-2.313 0-4.405 0.899-6 2.336-1.595-1.437-3.684-2.336-6-2.336-4.971 0-9 4.029-9 9v0c0 2.845 1.346 5.351 3.407 7h-3.407c-1.105 0-2 0.895-2 2v0 2c0 1.105 0.895 2 2 2v0h4v7c0 1.657 1.343 3 3 3v0h16c1.657 0 3-1.343 3-3v0-1.096l5.48 3.809c0.254 0.18 0.571 0.287 0.912 0.288h0c0.831 0 1.608-0.648 1.608-1.578v-12.846c0-0.927-0.774-1.577-1.607-1.577zM26 29c0 0.552-0.448 1-1 1v0h-16c-0.552 0-1-0.448-1-1v0-9h-6v-2h23c0.552 0 1 0.448 1 1v0zM23 16h-12c-0.015 0-0.032 0-0.049 0-3.866 0-7-3.134-7-7s3.134-7 7-7c1.817 0 3.472 0.692 4.716 1.827l-0.006-0.005 1.339 1.206 1.339-1.206c1.233-1.113 2.874-1.794 4.675-1.794 3.858 0 6.986 3.128 6.986 6.986s-3.128 6.986-6.986 6.986c-0.005 0-0.009 0-0.014 0h0.001zM34 29.639l-6-4.171v-2.938l6-4.171z"></path>
</svg>
