<!-- Generated by IcoMoon.io -->
<svg version="1.1" xmlns="http://www.w3.org/2000/svg" width="36" height="32" viewBox="0 0 36 32">
<title>camera-polaroid-solid</title>
<path d="M35.664 21.496l-3.664-5.496v-11c0-1.657-1.343-3-3-3v0h-22c-1.657 0-3 1.343-3 3v0 11l-3.664 5.496c-0.211 0.312-0.336 0.696-0.336 1.109v5.394c0 1.105 0.895 2 2 2v0h32c1.105 0 2-0.895 2-2v0-5.394c0-0 0-0 0-0 0-0.413-0.125-0.797-0.34-1.116l0.005 0.007zM24.5 7c0-0.276 0.224-0.5 0.5-0.5v0h2c0.276 0 0.5 0.224 0.5 0.5v0 2c0 0.276-0.224 0.5-0.5 0.5v0h-2c-0.276 0-0.5-0.224-0.5-0.5v0zM18 8c2.209 0 4 1.791 4 4s-1.791 4-4 4c-2.209 0-4-1.791-4-4v0c0.004-2.208 1.792-3.996 4-4h0zM30 25.5c0 0.276-0.224 0.5-0.5 0.5v0h-23c-0.276 0-0.5-0.224-0.5-0.5v0-1c0-0.276 0.224-0.5 0.5-0.5v0h23c0.276 0 0.5 0.224 0.5 0.5v0z"></path>
</svg>
