<!-- Generated by IcoMoon.io -->
<svg version="1.1" xmlns="http://www.w3.org/2000/svg" width="36" height="32" viewBox="0 0 36 32">
<title>camera-polaroid</title>
<path d="M18 8c-2.761 0-5 2.239-5 5s2.239 5 5 5c2.761 0 5-2.239 5-5v0c-0.004-2.76-2.24-4.996-5-5h-0zM18 16c-1.657 0-3-1.343-3-3s1.343-3 3-3c1.657 0 3 1.343 3 3v0c-0.002 1.656-1.344 2.998-3 3h-0zM6.5 26h23c0.276 0 0.5-0.224 0.5-0.5v0-1c0-0.276-0.224-0.5-0.5-0.5v0h-23c-0.276 0-0.5 0.224-0.5 0.5v0 1c0 0.276 0.224 0.5 0.5 0.5v0zM35.902 20.504c-0.061-0.192-0.141-0.359-0.242-0.511l0.005 0.007-3.664-4v-11c0-1.657-1.343-3-3-3v0h-22c-1.657 0-3 1.343-3 3v0 11l-3.664 4c-0.206 0.313-0.331 0.696-0.336 1.108l-0 0.002v6.891c0 1.105 0.895 2 2 2v0h32c1.105 0 2-0.895 2-2v0-6.891c-0.001-0.217-0.037-0.425-0.102-0.62l0.004 0.014zM6 16.777v-11.777c0-0.552 0.448-1 1-1v0h22c0.552 0 1 0.448 1 1v0 11.777l2.952 3.223h-29.904zM34 28h-32v-6h32zM27 6.5h-2c-0.276 0-0.5 0.224-0.5 0.5v0 2c0 0.276 0.224 0.5 0.5 0.5v0h2c0.276 0 0.5-0.224 0.5-0.5v0-2c0-0.276-0.224-0.5-0.5-0.5v0z"></path>
</svg>
