<!-- Generated by IcoMoon.io -->
<svg version="1.1" xmlns="http://www.w3.org/2000/svg" width="32" height="32" viewBox="0 0 32 32">
<title>camera-retro-solid</title>
<path d="M3 2c-1.656 0-3 1.344-3 3v22c0 1.656 1.344 3 3 3h26c1.656 0 3-1.344 3-3v-22c0-1.656-1.344-3-3-3h-26zM3 4h6.625c0.206 0 0.375 0.169 0.375 0.375v1.25c0 0.206-0.169 0.375-0.375 0.375h-7.25c-0.206 0-0.375-0.169-0.375-0.375v-0.625c0-0.55 0.45-1 1-1zM29.625 10h-27.25c-0.206 0-0.375-0.169-0.375-0.375v-2.25c0-0.206 0.169-0.375 0.375-0.375h8.625l1.887-2.831c0.069-0.106 0.188-0.169 0.313-0.169h15.8c0.55 0 1 0.45 1 1v4.625c0 0.206-0.169 0.375-0.375 0.375zM16 26.5c-4.137 0-7.5-3.363-7.5-7.5s3.363-7.5 7.5-7.5 7.5 3.363 7.5 7.5-3.363 7.5-7.5 7.5zM16 13.5c-3.031 0-5.5 2.469-5.5 5.5s2.469 5.5 5.5 5.5 5.5-2.469 5.5-5.5-2.469-5.5-5.5-5.5zM13 20c-0.55 0-1-0.45-1-1 0-2.206 1.794-4 4-4 0.55 0 1 0.45 1 1s-0.45 1-1 1c-1.1 0-2 0.9-2 2 0 0.55-0.45 1-1 1z"></path>
</svg>
