<!-- Generated by IcoMoon.io -->
<svg version="1.1" xmlns="http://www.w3.org/2000/svg" width="32" height="32" viewBox="0 0 32 32">
<title>camera-solid</title>
<path d="M32 9v18c0 1.656-1.344 3-3 3h-26c-1.656 0-3-1.344-3-3v-18c0-1.656 1.344-3 3-3h5.5l0.769-2.056c0.438-1.169 1.556-1.944 2.806-1.944h7.844c1.25 0 2.369 0.775 2.806 1.944l0.775 2.056h5.5c1.656 0 3 1.344 3 3zM23.5 18c0-4.137-3.363-7.5-7.5-7.5s-7.5 3.363-7.5 7.5 3.363 7.5 7.5 7.5 7.5-3.363 7.5-7.5zM21.5 18c0 3.031-2.469 5.5-5.5 5.5s-5.5-2.469-5.5-5.5 2.469-5.5 5.5-5.5 5.5 2.469 5.5 5.5z"></path>
</svg>
