<!-- Generated by IcoMoon.io -->
<svg version="1.1" xmlns="http://www.w3.org/2000/svg" width="36" height="32" viewBox="0 0 36 32">
<title>camera-movie-solid</title>
<path d="M33.48 16.287l-5.48 3.779v7.872l5.479 3.774c1.063 0.73 2.52-0.014 2.52-1.289v-12.846c0.001-1.27-1.453-2.020-2.519-1.289zM23.012 18h-22.012c-0.552 0-1 0.448-1 1v0 2c0 0.552 0.448 1 1 1v0h3v7.012c0 1.65 1.338 2.987 2.987 2.988h16.025c1.65-0 2.987-1.338 2.988-2.987v-8.025c-0-1.65-1.338-2.987-2.987-2.988h-0zM22 0c-3.036 0-5.644 1.711-7 4.202-1.356-2.491-3.964-4.202-7-4.202-4.418 0-8 3.582-8 8s3.582 8 8 8v0h14c4.418 0 8-3.582 8-8s-3.582-8-8-8v0zM8 12c-2.209 0-4-1.791-4-4s1.791-4 4-4c2.209 0 4 1.791 4 4v0c-0.002 2.208-1.792 3.998-4 4h-0zM22 12c-2.209 0-4-1.791-4-4s1.791-4 4-4c2.209 0 4 1.791 4 4v0c-0.003 2.208-1.792 3.998-4 4h-0z"></path>
</svg>
