<!-- Generated by IcoMoon.io -->
<svg version="1.1" xmlns="http://www.w3.org/2000/svg" width="32" height="32" viewBox="0 0 32 32">
<title>camera-retro</title>
<path d="M2 3.625v-1.25c0-0.206 0.169-0.375 0.375-0.375h7.25c0.206 0 0.375 0.169 0.375 0.375v1.25c0 0.206-0.169 0.375-0.375 0.375h-7.25c-0.206 0-0.375-0.169-0.375-0.375zM23.5 18c0-4.137-3.363-7.5-7.5-7.5s-7.5 3.363-7.5 7.5 3.363 7.5 7.5 7.5 7.5-3.363 7.5-7.5zM21.5 18c0 3.031-2.469 5.5-5.5 5.5s-5.5-2.469-5.5-5.5 2.469-5.5 5.5-5.5 5.5 2.469 5.5 5.5zM14 18c0-1.1 0.9-2 2-2 0.55 0 1-0.45 1-1s-0.45-1-1-1c-2.206 0-4 1.794-4 4 0 0.55 0.45 1 1 1s1-0.45 1-1zM32 5v22c0 1.656-1.344 3-3 3h-26c-1.656 0-3-1.344-3-3v-18c0-1.656 1.344-3 3-3h8.5l2.1-2.8c0.569-0.756 1.456-1.2 2.4-1.2h13c1.656 0 3 1.344 3 3zM14 6h15c0.35 0 0.688 0.063 1 0.169v-1.169c0-0.55-0.45-1-1-1h-13c-0.313 0-0.613 0.15-0.8 0.4l-1.2 1.6zM30 9c0-0.55-0.45-1-1-1h-26c-0.55 0-1 0.45-1 1v18c0 0.55 0.45 1 1 1h26c0.55 0 1-0.45 1-1v-18z"></path>
</svg>
