<!-- Generated by IcoMoon.io -->
<svg version="1.1" xmlns="http://www.w3.org/2000/svg" width="28" height="32" viewBox="0 0 28 32">
<title>camera-home-solid</title>
<path d="M24 0h-20c-2.209 0-4 1.791-4 4v0 18c0 2.209 1.791 4 4 4v0h4.544l-3.761 2.177c-0.431 0.271-0.781 0.903-0.781 1.413v0.744c0 0.92 0.746 1.667 1.667 1.667h16.667c0.919-0.002 1.664-0.747 1.664-1.667v-0.743c0-0.511-0.353-1.144-0.786-1.414l-3.759-2.177h4.545c2.209 0 4-1.791 4-4v0-18c0-2.209-1.791-4-4-4v0zM14 22h-0.003c-4.97-0.001-8.998-4.030-8.998-9s4.029-9 9-9 9 4.029 9 9c0 4.97-4.029 8.999-8.998 9h-0zM14 6h-0.003c-3.865 0.001-6.998 3.135-6.998 7s3.134 7 7 7 7-3.134 7-7c0-3.865-3.133-6.999-6.998-7h-0zM14 11c-1.105 0-2 0.895-2 2v0c0 0.552-0.448 1-1 1s-1-0.448-1-1v0c0.002-2.208 1.792-3.998 4-4h0c0.552 0 1 0.448 1 1s-0.448 1-1 1v0z"></path>
</svg>
