<!-- Generated by IcoMoon.io -->
<svg version="1.1" xmlns="http://www.w3.org/2000/svg" width="32" height="32" viewBox="0 0 32 32">
<title>campfire</title>
<path d="M16 20c4.971 0 9-4.029 9-9 0-2.081-2.089-6.372-5-9-0.836 0.754-1.591 1.547-2.259 2.342-1.095-1.467-2.453-2.954-3.991-4.343-3.948 3.561-6.75 8.201-6.75 11 0 4.971 4.029 9 9 9zM13.756 2.776c0.882 0.899 1.69 1.836 2.382 2.763l1.511 2.023 1.624-1.934c0.223-0.265 0.452-0.526 0.687-0.779 1.913 2.309 3.040 5.102 3.040 6.151 0 3.86-3.14 7-7 7s-7-3.14-7-7c0-1.734 1.753-5.102 4.756-8.224zM18.494 25l13.206-5.126c0.178-0.079 0.3-0.254 0.3-0.458 0-0.073-0.015-0.141-0.043-0.204l0.001 0.003-0.4-0.916c-0.079-0.178-0.255-0.3-0.458-0.3-0.072 0-0.141 0.015-0.203 0.043l0.003-0.001-14.899 5.867-14.899-5.867c-0.059-0.026-0.128-0.042-0.2-0.042-0.204 0-0.379 0.122-0.457 0.297l-0.001 0.003-0.4 0.916c-0.026 0.059-0.042 0.128-0.042 0.2 0 0.204 0.122 0.379 0.296 0.457l0.003 0.001 13.206 5.126-13.206 5.126c-0.178 0.079-0.299 0.254-0.299 0.458 0 0.073 0.015 0.141 0.043 0.204l-0.001-0.003 0.4 0.916c0.111 0.253 0.406 0.369 0.659 0.258l14.899-5.866 14.899 5.867c0.253 0.111 0.548-0.004 0.659-0.258l0.4-0.916c0.026-0.059 0.042-0.128 0.042-0.2 0-0.204-0.122-0.379-0.296-0.457l-0.003-0.001-13.206-5.127z"></path>
</svg>
