<!-- Generated by IcoMoon.io -->
<svg version="1.1" xmlns="http://www.w3.org/2000/svg" width="40" height="32" viewBox="0 0 40 32">
<title>campground</title>
<path d="M39.5 30h-1.5l-16.766-23.176 3.938-5.443c0.163-0.223 0.113-0.536-0.111-0.698l-0.808-0.588c-0.223-0.163-0.536-0.113-0.699 0.111l-3.554 4.912-3.554-4.912c-0.092-0.126-0.239-0.206-0.405-0.206-0.111 0-0.213 0.036-0.296 0.097l0.001-0.001-0.808 0.588c-0.223 0.162-0.273 0.475-0.111 0.698l3.938 5.443-16.766 23.176h-1.5c-0.276 0-0.5 0.224-0.5 0.5v1c0 0.276 0.224 0.5 0.5 0.5h39c0.276 0 0.5-0.224 0.5-0.5v-1c0-0.276-0.224-0.5-0.5-0.5zM13.887 30l6.113-8.559 6.113 8.559h-12.226zM28.572 30l-7.758-10.861c-0.399-0.558-1.229-0.558-1.628 0l-7.758 10.861h-6.96l15.532-21.47 15.532 21.47h-6.96z"></path>
</svg>
