<!-- Generated by IcoMoon.io -->
<svg version="1.1" xmlns="http://www.w3.org/2000/svg" width="40" height="32" viewBox="0 0 40 32">
<title>campground-solid</title>
<path d="M39 28h-1.542l-14.986-20.641 3.338-4.597c0.324-0.447 0.226-1.073-0.221-1.397l-1.619-1.174c-0.447-0.324-1.072-0.226-1.397 0.222l-2.573 3.543-2.573-3.544c-0.324-0.447-0.95-0.546-1.397-0.222l-1.617 1.175c-0.447 0.324-0.546 0.95-0.221 1.397l3.338 4.597-14.987 20.641h-1.542c-0.552 0-1 0.448-1 1v2c0 0.552 0.448 1 1 1h38c0.553 0 1-0.448 1-1v-2c0-0.552-0.447-1-1-1zM20 18l7.273 10h-14.545l7.272-10z"></path>
</svg>
