<!-- Generated by IcoMoon.io -->
<svg version="1.1" xmlns="http://www.w3.org/2000/svg" width="32" height="32" viewBox="0 0 32 32">
<title>campfire-solid</title>
<path d="M31.313 28.136l-8.748-2.793 8.748-2.793c0.516-0.165 0.804-0.726 0.642-1.253l-0.584-1.909c-0.161-0.527-0.711-0.821-1.226-0.656l-14.144 4.515-14.144-4.515c-0.516-0.164-1.065 0.129-1.226 0.656l-0.584 1.909c-0.161 0.527 0.126 1.088 0.642 1.253l8.748 2.793-8.748 2.793c-0.516 0.164-0.804 0.726-0.642 1.253l0.584 1.909c0.161 0.527 0.711 0.821 1.226 0.656l14.144-4.515 14.144 4.515c0.516 0.164 1.065-0.129 1.226-0.656l0.584-1.909c0.161-0.527-0.126-1.087-0.642-1.253zM16 20c4.971 0 9-4.029 9-9 0-2.081-2.089-6.372-5-9-0.836 0.754-1.591 1.547-2.259 2.342-1.095-1.467-2.453-2.954-3.991-4.343-3.948 3.561-6.75 8.201-6.75 11 0 4.971 4.029 9 9 9zM13.781 5.78c0.264 0.318 3.776 5.004 3.776 5.004l2.24-2.67c0.158 0.273 0.302 0.541 0.431 0.797 1.044 2.083 0.604 4.749-1.277 6.124-0.828 0.606-1.848 0.964-2.951 0.964-2.757 0-5-1.906-5-5 0-1.541 0.929-2.899 2.781-5.22z"></path>
</svg>
