<!-- Generated by IcoMoon.io -->
<svg version="1.1" xmlns="http://www.w3.org/2000/svg" width="40" height="32" viewBox="0 0 40 32">
<title>candy-corn-solid</title>
<path d="M11.693 19.196c-2.734 2.734-4.482 5.066-5.561 6.723 7.241 4.249 15.248 7.643 17.557 5.333l0.004-0.004c2.305-2.318-1.086-10.329-5.337-17.574-1.653 1.082-3.961 2.821-6.662 5.522zM20.375 27.934c-1.226-0.219-3.132-0.876-5.481-1.93 0.534-0.596 1.102-1.207 1.751-1.856 0.628-0.628 1.223-1.183 1.801-1.703 1.054 2.352 1.71 4.261 1.929 5.489zM17.319 11.951c-0.606-0.984-1.219-1.946-1.83-2.863-1.164-1.747-2.781-3.481-10.181 3.775-7.256 7.4-5.522 9.017-3.775 10.181 0.921 0.613 1.887 1.23 2.876 1.838 1.143-1.764 2.996-4.227 5.869-7.101 2.841-2.841 5.281-4.684 7.041-5.83zM30 0c-10.363 0.101-10.28 2.471-9.868 4.529 0.217 1.084 0.465 2.204 0.734 3.333 2.056-0.439 5.107-0.871 9.171-0.871 4.018 0 7.047 0.423 9.101 0.856 0.267-1.124 0.514-2.238 0.73-3.319 0.412-2.058 0.495-4.428-9.868-4.529zM21.351 9.814c2.116 8.124 5.378 16.186 8.643 16.186h0.006c3.269-0.009 6.536-8.072 8.652-16.201-1.934-0.404-4.796-0.807-8.616-0.807-3.867 0-6.752 0.412-8.686 0.822zM29.997 21.31c-0.711-1.022-1.596-2.833-2.511-5.24 0.799-0.043 1.634-0.074 2.551-0.074 0.887 0 1.701 0.028 2.477 0.069-0.918 2.409-1.804 4.223-2.517 5.245z"></path>
</svg>
