<!-- Generated by IcoMoon.io -->
<svg version="1.1" xmlns="http://www.w3.org/2000/svg" width="32" height="32" viewBox="0 0 32 32">
<title>candy-cane</title>
<path d="M31.094 5.75c-1.744-3.681-5.356-5.75-9.069-5.75-1.744 0-3.512 0.456-5.113 1.413l-1.719 1.025c-0.95 0.569-1.256 1.794-0.688 2.744l2.050 3.431c0.587 0.981 1.831 1.238 2.744 0.688l1.719-1.025c2.244-1.344 4.35 2.063 2.050 3.431l-22.094 13.144c-0.95 0.569-1.256 1.794-0.688 2.744l2.050 3.431c0.375 0.625 1.038 0.975 1.719 0.975 0.35 0 0.7-0.094 1.025-0.281l21.706-12.906c4.481-2.681 6.537-8.344 4.306-13.063zM18.269 7.588l-2.050-3.431c2.019-1.206 3.319-2.15 5.781-2.156v4c-1.475 0.019-2.331 0.756-3.731 1.588zM23.956 6.5h0.044v-4.244c2.294 0.575 4.238 2.125 5.288 4.344 0.212 0.45 0.375 0.919 0.494 1.394h-4.281v0.006c-0.012-0.019-0.019-0.037-0.025-0.056-0.369-0.619-0.9-1.106-1.519-1.444zM16.050 18.212l5.144-3.063 4.019 2.262-5.144 3.063-4.019-2.262zM18.087 21.656l-5.469 3.25-4.019-2.262 5.469-3.25 4.019 2.262zM4.050 30l-2.056-3.431 4.619-2.744 4.019 2.262-6.581 3.913zM27.050 16.156l-3.875-2.181 0.913-0.544c1.25-0.744 1.931-2.075 1.931-3.431h3.938c-0.056 2.281-1.075 4.55-2.906 6.156z"></path>
</svg>
