<!-- Generated by IcoMoon.io -->
<svg version="1.1" xmlns="http://www.w3.org/2000/svg" width="28" height="32" viewBox="0 0 28 32">
<title>candle-holder-solid</title>
<path d="M10 12c2.871 0 4.875-2.038 4.875-4.956 0-1.874-2.037-4.681-4.875-7.044-2.851 2.375-4.875 5.178-4.875 7.044 0 2.917 2.004 4.956 4.875 4.956zM23.5 23c-2.481 0-4.5 2.019-4.5 4.5 0 0.529 0.108 1.029 0.276 1.5h-18.276c-0.552 0-1 0.448-1 1v1c0 0.552 0.448 1 1 1h22.5c2.481 0 4.5-2.019 4.5-4.5s-2.019-4.5-4.5-4.5zM23.5 29c-0.827 0-1.5-0.673-1.5-1.5s0.673-1.5 1.5-1.5 1.5 0.673 1.5 1.5-0.673 1.5-1.5 1.5zM16 16c0-1.104-0.896-2-2-2h-4v3c0 0.552-0.447 1-1 1s-1-0.448-1-1v-3h-2c-1.104 0-2 0.896-2 2v11h12v-11z"></path>
</svg>
