<!-- Generated by IcoMoon.io -->
<svg version="1.1" xmlns="http://www.w3.org/2000/svg" width="32" height="32" viewBox="0 0 32 32">
<title>candy-cane-solid</title>
<path d="M31.094 5.75c-1.744-3.681-5.356-5.75-9.069-5.75-1.744 0-3.512 0.456-5.113 1.413l-1.719 1.025c-0.95 0.569-1.256 1.794-0.688 2.744l2.050 3.431c0.375 0.625 1.038 0.975 1.719 0.975 0.35 0 0.7-0.094 1.025-0.281l1.719-1.025c0.319-0.194 0.675-0.281 1.025-0.281 0.681 0 1.344 0.35 1.719 0.975 0.569 0.944 0.256 2.175-0.688 2.744l-22.1 13.131c-0.95 0.569-1.256 1.794-0.688 2.744l2.050 3.431c0.375 0.625 1.038 0.975 1.719 0.975 0.35 0 0.7-0.094 1.025-0.281l21.706-12.906c4.481-2.681 6.538-8.344 4.306-13.063zM19.988 6.563l-0.156 0.094-1.281-3.844c0.606-0.294 1.238-0.506 1.894-0.638l1.288 3.862c-0.613 0.050-1.212 0.206-1.744 0.525zM9.119 26.988l-3.781-2.406 1.925-1.144 3.781 2.406-1.925 1.144zM15.838 22.994l-3.781-2.406 1.925-1.144 3.781 2.406-1.925 1.144zM22.769 18.875l-3.781-2.406 1.925-1.144 3.781 2.406-1.925 1.144zM24.044 6.544l2.875-2.875c0.525 0.406 1 0.881 1.413 1.413l-2.856 2.856c-0.356-0.581-0.856-1.056-1.431-1.394zM29.175 13.281l-3.719-1.238c0.2-0.331 0.363-0.681 0.462-1.069 0.069-0.281 0.106-0.569 0.113-0.85l3.775 1.256c-0.131 0.65-0.344 1.287-0.631 1.9z"></path>
</svg>
