<!-- Generated by IcoMoon.io -->
<svg version="1.1" xmlns="http://www.w3.org/2000/svg" width="28" height="32" viewBox="0 0 28 32">
<title>candle-holder</title>
<path d="M10 12c2.871 0 4.875-2.038 4.875-4.956 0-1.874-2.037-4.681-4.875-7.044-2.851 2.375-4.875 5.178-4.875 7.044 0 2.917 2.004 4.956 4.875 4.956zM10 2.692c1.973 1.936 2.875 3.641 2.875 4.352 0 1.823-1.102 2.956-2.875 2.956s-2.875-1.133-2.875-2.956c0-0.711 0.902-2.416 2.875-4.352zM24 24c-2.209 0-4 1.791-4 4 0 0.733 0.211 1.409 0.555 2h-4.555v-14c0-1.104-0.896-2-2-2h-8c-1.104 0-2 0.896-2 2v14h-3.5c-0.276 0-0.5 0.224-0.5 0.5v1c0 0.276 0.224 0.5 0.5 0.5h23.5c2.209 0 4-1.791 4-4s-1.791-4-4-4zM14 30h-8v-14h2v3c0 0.552 0.447 1 1 1s1-0.448 1-1v-3h4v14zM24 30c-1.102 0-2-0.898-2-2s0.898-2 2-2 2 0.898 2 2-0.898 2-2 2z"></path>
</svg>
