<!-- Generated by IcoMoon.io -->
<svg version="1.1" xmlns="http://www.w3.org/2000/svg" width="40" height="32" viewBox="0 0 40 32">
<title>candy-corn</title>
<path d="M30 0c-10.363 0.101-10.28 2.471-9.868 4.529 1.896 9.472 5.879 21.471 9.863 21.471h0.006c3.986-0.011 7.971-11.994 9.868-21.471 0.412-2.058 0.495-4.428-9.868-4.529zM29.994 23.999c-0.797-0.002-2.454-2.316-4.214-6.794 2.736-0.233 5.7-0.233 8.436-0.001-1.763 4.477-3.423 6.793-4.222 6.795zM34.936 15.262c-3.177-0.31-6.698-0.31-9.875 0-0.592-1.691-1.183-3.62-1.747-5.788 4.162-0.61 9.208-0.611 13.371 0-0.565 2.168-1.156 4.098-1.749 5.788zM37.914 4.135c-0.237 1.188-0.489 2.305-0.746 3.389-4.457-0.676-9.88-0.676-14.337 0-0.257-1.084-0.508-2.202-0.746-3.389-0.124-0.618-0.097-0.777-0.079-0.817 0.006-0.013 0.803-1.244 7.994-1.316 7.191 0.072 7.988 1.304 7.994 1.316 0.017 0.041 0.044 0.2-0.079 0.818zM5.309 12.863c-7.256 7.4-5.522 9.016-3.775 10.181 8.039 5.357 19.339 11.025 22.156 8.209l0.004-0.004c2.81-2.826-2.845-14.117-8.204-22.16-1.164-1.748-2.78-3.482-10.18 3.774zM22.275 29.837c-0.564 0.563-3.373 0.098-7.784-1.824 1.77-2.1 3.866-4.195 5.965-5.966 1.919 4.412 2.382 7.223 1.819 7.79zM19.591 20.164c-2.466 2.027-4.956 4.517-6.982 6.983-1.614-0.777-3.396-1.724-5.328-2.858 2.512-3.374 6.079-6.942 9.454-9.454 1.133 1.932 2.080 3.714 2.856 5.329zM5.56 23.253c-0.948-0.585-1.916-1.198-2.924-1.869-0.524-0.349-0.618-0.481-0.634-0.522-0.004-0.013-0.312-1.448 4.722-6.584 5.136-5.034 6.571-4.726 6.584-4.722 0.040 0.016 0.172 0.11 0.522 0.634 0.671 1.008 1.284 1.976 1.869 2.924-3.63 2.674-7.464 6.509-10.138 10.139z"></path>
</svg>
