<!-- Generated by IcoMoon.io -->
<svg version="1.1" xmlns="http://www.w3.org/2000/svg" width="32" height="32" viewBox="0 0 32 32">
<title>cannabis-solid</title>
<path d="M31.467 22.516c-0.098-0.051-2.024-1.056-4.799-1.613 4.016-4.695 5.253-10.104 5.308-10.352 0.074-0.333-0.027-0.681-0.269-0.923-0.189-0.19-0.445-0.294-0.707-0.294-0.071 0-0.143 0.008-0.215 0.024-0.242 0.053-5.409 1.224-10.036 4.985 0.001-0.091 0.001-0.183 0.001-0.275 0-7.424-3.749-13.357-3.908-13.606-0.18-0.279-0.489-0.461-0.841-0.461-0 0-0 0-0 0v0c-0.341 0-0.658 0.174-0.842 0.461-0.159 0.249-3.908 6.182-3.908 13.606 0 0.092 0.001 0.184 0.001 0.275-4.627-3.76-9.793-4.931-10.036-4.985-0.071-0.016-0.143-0.024-0.215-0.024-0.263 0-0.518 0.104-0.708 0.294-0.18 0.181-0.292 0.43-0.292 0.706 0 0.077 0.009 0.152 0.025 0.224l-0.001-0.007c0.055 0.248 1.292 5.658 5.308 10.353-2.774 0.558-4.701 1.562-4.799 1.613-0.319 0.171-0.533 0.503-0.533 0.884s0.213 0.712 0.526 0.881l0.005 0.003c0.153 0.081 3.797 1.983 8.343 1.983 0.384 0 0.748-0.006 1.094-0.019-0.711 1.389-1.033 2.394-1.051 2.451-0.113 0.355-0.018 0.743 0.244 1.007 0.181 0.182 0.432 0.294 0.709 0.294 0.106 0 0.208-0.017 0.304-0.047l-0.007 0.002c0.114-0.036 2.357-0.749 4.831-2.456v4.001c0 0.276 0.224 0.5 0.5 0.5h1c0.276 0 0.5-0.224 0.5-0.5v-4.001c2.474 1.706 4.717 2.419 4.831 2.456 0.089 0.029 0.191 0.045 0.297 0.045 0.277 0 0.528-0.113 0.709-0.294l0-0c0.262-0.264 0.357-0.652 0.244-1.007-0.018-0.057-0.341-1.062-1.051-2.451 0.346 0.013 0.711 0.019 1.094 0.019 4.545 0 8.19-1.902 8.343-1.982 0.328-0.174 0.532-0.514 0.532-0.884s-0.206-0.712-0.533-0.884z"></path>
</svg>
