<!-- Generated by IcoMoon.io -->
<svg version="1.1" xmlns="http://www.w3.org/2000/svg" width="32" height="32" viewBox="0 0 32 32">
<title>cannabis</title>
<path d="M30.901 20.214c-0.075-0.038-1.225-0.611-2.997-1.114 3.019-4.015 3.996-8.106 4.045-8.315 0.033-0.136 0.052-0.292 0.052-0.452 0-0.545-0.218-1.039-0.572-1.399l0 0c-0.363-0.371-0.869-0.601-1.429-0.601v0c-0.137 0-0.275 0.014-0.412 0.043-0.209 0.044-4.144 0.897-8.168 3.498-0.537-6.112-3.616-10.774-3.759-10.988-0.372-0.554-0.996-0.887-1.663-0.887s-1.29 0.333-1.661 0.887c-0.143 0.213-3.223 4.876-3.759 10.988-4.023-2.601-7.959-3.454-8.168-3.498-0.137-0.029-0.275-0.043-0.412-0.043-0.532 0-1.049 0.213-1.429 0.601-0.353 0.36-0.571 0.854-0.571 1.399 0 0.16 0.019 0.316 0.054 0.466l-0.003-0.014c0.048 0.209 1.026 4.299 4.045 8.315-1.773 0.503-2.923 1.077-2.998 1.114-0.657 0.336-1.099 1.009-1.1 1.784v0c0 0 0 0.001 0 0.001 0 0.775 0.441 1.447 1.085 1.779l0.011 0.005c0.144 0.073 3.401 1.699 7.561 1.868-0.178 0.427-0.266 0.691-0.276 0.719-0.064 0.188-0.101 0.404-0.101 0.628 0 1.105 0.895 2 2 2 0 0 0 0 0 0v0c0.19 0 0.382-0.027 0.57-0.083 0.104-0.031 1.966-0.597 4.149-1.919v4.503c0 0.276 0.224 0.5 0.5 0.5h1c0.276 0 0.5-0.224 0.5-0.5v-4.502c2.184 1.323 4.046 1.888 4.149 1.919 0.188 0.056 0.38 0.083 0.57 0.083 0.533 0 1.054-0.213 1.436-0.608 0.349-0.359 0.564-0.851 0.564-1.392 0-0.225-0.037-0.441-0.106-0.643l0.004 0.014c-0.009-0.028-0.098-0.292-0.276-0.719 4.159-0.169 7.416-1.796 7.561-1.868 0.673-0.341 1.097-1.031 1.096-1.786s-0.424-1.445-1.098-1.785zM22.65 23.666c-1.083 0-1.949-0.056-2.656-0.151-0.014 0.008-0.025 0.010-0.039 0.017 1.238 1.876 1.764 3.468 1.764 3.468s-3.005-0.894-5.72-3.156c-2.715 2.262-5.72 3.156-5.72 3.156s0.527-1.592 1.764-3.468c-0.014-0.008-0.025-0.010-0.039-0.017-0.706 0.096-1.572 0.151-2.656 0.151-4.059 0-7.35-1.666-7.35-1.666s2.559-1.292 5.946-1.599c-0.053-0.050-0.098-0.085-0.152-0.136-4.48-4.266-5.794-9.932-5.794-9.932s5.949 1.251 10.428 5.518c0.058 0.056 0.098 0.102 0.155 0.157-0.053-0.705-0.083-1.479-0.083-2.341 0-6.443 3.5-11.666 3.5-11.666s3.5 5.223 3.5 11.667c0 0.862-0.030 1.636-0.083 2.341 0.057-0.055 0.097-0.101 0.155-0.157 4.479-4.267 10.428-5.518 10.428-5.518s-1.314 5.665-5.794 9.931c-0.054 0.051-0.099 0.086-0.152 0.136 3.386 0.308 5.946 1.599 5.946 1.599s-3.291 1.666-7.35 1.666z"></path>
</svg>
