<!-- Generated by IcoMoon.io -->
<svg version="1.1" xmlns="http://www.w3.org/2000/svg" width="34" height="32" viewBox="0 0 34 32">
<title>capsules</title>
<path d="M33.063 18.55l-6.969-12.069c-1.925-3.325-6.188-4.469-9.519-2.55-1.325 0.763-2.281 1.906-2.863 3.206-0.819-2.95-3.5-5.138-6.713-5.138-3.862 0-7 3.138-7 7v14c0 3.863 3.138 7 7 7s7-3.137 7-7v-9.613c0.012 0.019 0.012 0.037 0.025 0.056l6.969 12.069c1.288 2.231 3.637 3.481 6.050 3.481 1.181 0 2.375-0.3 3.469-0.931 1.613-0.931 2.762-2.431 3.244-4.231 0.487-1.794 0.237-3.669-0.694-5.281zM7 4c2.756 0 5 2.244 5 5v7h-10v-7c0-2.756 2.244-5 5-5zM7 28c-2.756 0-5-2.244-5-5v-5h10v5c0 2.756-2.244 5-5 5zM17.575 5.656c2.525-1.456 5.512-0.406 6.8 1.819l2.975 5.15-8.619 4.975-2.981-5.144c-1.369-2.381-0.556-5.431 1.825-6.8zM31.837 23.325c-0.344 1.281-1.169 2.356-2.319 3.025-2.375 1.369-5.425 0.55-6.8-1.819l-2.994-5.188 8.619-4.975 2.994 5.188c0.669 1.137 0.844 2.481 0.5 3.769z"></path>
</svg>
