<!-- Generated by IcoMoon.io -->
<svg version="1.1" xmlns="http://www.w3.org/2000/svg" width="36" height="32" viewBox="0 0 36 32">
<title>capsules-solid</title>
<path d="M34.706 18.756l-8.194-11.706c-1.394-1.987-3.613-3.050-5.863-3.050-1.413 0-2.844 0.419-4.094 1.294-1.231 0.862-2.106 2.050-2.594 3.362-0.181-3.706-3.213-6.656-6.963-6.656-3.869 0-7 3.131-7 7v14c0 3.869 3.131 7 7 7s7-3.131 7-7v-9.319c0.206 0.537 0.456 1.069 0.8 1.563l8.2 11.706c1.387 1.988 3.606 3.050 5.863 3.050 1.419 0 2.844-0.419 4.094-1.294 3.231-2.262 4.013-6.719 1.75-9.95zM10 16h-6v-7c0-1.656 1.344-3 3-3s3 1.344 3 3v7zM22.175 18.806l-4.1-5.856c-0.481-0.688-0.669-1.525-0.519-2.35 0.144-0.825 0.606-1.55 1.294-2.031 0.531-0.375 1.156-0.569 1.8-0.569 1.031 0 1.994 0.5 2.581 1.344l4.1 5.856-5.156 3.606z"></path>
</svg>
