<!-- Generated by IcoMoon.io -->
<svg version="1.1" xmlns="http://www.w3.org/2000/svg" width="40" height="32" viewBox="0 0 40 32">
<title>car-side-solid</title>
<path d="M34 12h-1l-6.799-8.499c-0.739-0.918-1.863-1.501-3.124-1.501h-13.369c-1.636 0-3.106 0.996-3.714 2.514l-2.994 7.627c-1.722 0.446-3 1.997-3 3.859v7c0 0.552 0.448 1 1 1h3c0 3.314 2.686 6 6 6s6-2.686 6-6h8c0 3.314 2.686 6 6 6s6-2.686 6-6h3c0.553 0 1-0.448 1-1v-5c0-3.314-2.686-6-6-6zM10 27c-1.654 0-3-1.346-3-3s1.346-3 3-3 3 1.346 3 3-1.346 3-3 3zM14.5 12h-7.192l2.4-6h4.792v6zM17.5 12v-6h5.578l4.8 6h-10.378zM30 27c-1.654 0-3-1.346-3-3s1.346-3 3-3 3 1.346 3 3-1.346 3-3 3z"></path>
</svg>
