<!-- Generated by IcoMoon.io -->
<svg version="1.1" xmlns="http://www.w3.org/2000/svg" width="40" height="32" viewBox="0 0 40 32">
<title>car-crash-solid</title>
<path d="M8.953 13.801l-0.776 2.898c-0.188 0.703-0.227 1.431-0.151 2.149l-2.2 1.811c-0.411 0.338-1.019-0.027-0.914-0.548l0.965-4.793c0.066-0.329-0.166-0.643-0.5-0.674l-4.866-0.472c-0.529-0.051-0.702-0.739-0.259-1.034l4.072-2.706c0.279-0.186 0.336-0.572 0.124-0.831l-3.107-3.776c-0.338-0.411 0.027-1.019 0.549-0.914l4.793 0.965c0.329 0.066 0.643-0.166 0.675-0.5l0.472-4.866c0.051-0.53 0.739-0.702 1.034-0.259l2.706 4.071c0.186 0.279 0.572 0.336 0.831 0.124l3.775-3.107c0.411-0.338 1.019 0.027 0.914 0.548l-0.708 3.51c-0.169 0.191-0.339 0.381-0.494 0.588l-2.679 3.581c-2.046 0.547-3.699 2.158-4.255 4.234zM39.864 22.082l-0.776 2.898c-0.196 0.73-0.586 1.351-1.097 1.835-0.164 0.156-0.343 0.299-0.533 0.428l-0.015 0.009-0.874 3.264c-0.071 0.267-0.194 0.506-0.353 0.711-0.479 0.615-1.296 0.918-2.096 0.703l-1.932-0.517c-1.067-0.286-1.7-1.383-1.414-2.449l0.517-1.932-15.455-4.141-0.518 1.932c-0.286 1.067-1.383 1.7-2.449 1.414l-1.932-0.517c-0.8-0.214-1.356-0.885-1.464-1.657-0.036-0.258-0.022-0.526 0.049-0.793l0.874-3.264c-0.093-0.183-0.179-0.399-0.248-0.624l-0.008-0.029c-0.2-0.674-0.228-1.407-0.033-2.137l0.776-2.898c0.332-1.238 1.21-2.177 2.306-2.638 0.337-0.146 0.729-0.251 1.138-0.294l0.017-0.001 3.143-4.2c0.216-0.288 0.449-0.556 0.7-0.803 0.5-0.493 1.064-0.902 1.671-1.219 0.304-0.159 0.618-0.294 0.941-0.406 0.646-0.224 1.324-0.352 2.015-0.378s1.394 0.051 2.089 0.237l7.668 2.054c0.695 0.186 1.343 0.471 1.928 0.839 0.88 0.558 1.606 1.28 2.152 2.129l0.017 0.027c0.551 0.867 0.915 1.865 1.042 2.937l0.398 3.331 0.224 1.878c0.641 0.466 1.132 1.103 1.412 1.843l0.009 0.028c0.274 0.742 0.331 1.574 0.109 2.399zM15.974 14.646c-1.159-0.311-2.138 0.252-2.448 1.408s0.257 2.133 1.416 2.443c1.159 0.311 2.846 0.969 3.156-0.186s-0.964-3.354-2.123-3.665zM34.137 16.407l-0.398-3.331c-0.036-0.304-0.118-0.596-0.239-0.866-0.362-0.812-1.075-1.438-1.964-1.676l-7.668-2.054c-0.233-0.065-0.5-0.102-0.776-0.102-0.979 0-1.849 0.469-2.397 1.195l-0.006 0.008-2.009 2.686 15.456 4.141zM35.292 19.823c-1.159-0.311-3.363 0.957-3.672 2.112s1.481 1.429 2.64 1.739 2.138-0.253 2.448-1.408c0.309-1.155-0.257-2.133-1.416-2.443z"></path>
</svg>
