<!-- Generated by IcoMoon.io -->
<svg version="1.1" xmlns="http://www.w3.org/2000/svg" width="30" height="32" viewBox="0 0 30 32">
<title>car-alt-solid</title>
<path d="M27.416 13.271l-1.948-4.871c-1.069-2.673-3.62-4.4-6.499-4.4h-7.938c-2.879 0-5.43 1.727-6.499 4.4l-1.948 4.871c-1.508 0.573-2.584 2.021-2.584 3.729v3c0 1.008 0.385 1.917 1 2.621v3.379c0 1.104 0.896 2 2 2h2c1.104 0 2-0.896 2-2v-2h16v2c0 1.104 0.896 2 2 2h2c1.104 0 2-0.896 2-2v-3.379c0.615-0.703 1-1.613 1-2.621v-3c0-1.709-1.076-3.156-2.584-3.729zM8.246 9.886c0.456-1.139 1.559-1.886 2.786-1.886h7.938c1.227 0 2.33 0.747 2.786 1.886l1.246 3.114h-16l1.246-3.114zM5 19.988c-1.2 0-2-0.797-2-1.994s0.8-1.994 2-1.994 3 1.794 3 2.991-1.8 0.997-3 0.997zM25 19.988c-1.2 0-3 0.199-3-0.997s1.8-2.991 3-2.991 2 0.797 2 1.994-0.8 1.994-2 1.994z"></path>
</svg>
