<!-- Generated by IcoMoon.io -->
<svg version="1.1" xmlns="http://www.w3.org/2000/svg" width="30" height="32" viewBox="0 0 30 32">
<title>car-alt</title>
<path d="M26.449 12.238l-1.559-4.786c-0.671-2.059-2.589-3.452-4.754-3.452h-10.271c-2.165 0-4.084 1.393-4.754 3.451l-1.559 4.786c-2.050 0.624-3.551 2.508-3.551 4.762v8.001c0 1.654 1.346 3 3 3h1c1.654 0 3-1.346 3-3v-1h16v1c0 1.654 1.346 3 3 3h1c1.654 0 3-1.346 3-3v-8.001c0-2.254-1.501-4.137-3.551-4.761zM7.012 8.071c0.404-1.239 1.55-2.071 2.852-2.071h10.271c1.302 0 2.449 0.833 2.852 2.071l1.279 3.928h-18.535l1.279-3.928zM5 25c0 0.552-0.449 1-1 1h-1c-0.551 0-1-0.448-1-1v-1h3v1zM28 25c0 0.552-0.449 1-1 1h-1c-0.551 0-1-0.448-1-1v-1h3v1zM28 19.999v2h-26v-5c0-1.654 1.346-3 3-3h20c1.654 0 3 1.346 3 3v3zM6.55 15.5c-1.622 0-2.8 1.050-2.8 2.497s1.178 2.497 2.8 2.497l0.634 0.006c2.451 0 2.816-1.256 2.816-2.005 0-1.543-1.944-2.995-3.45-2.995zM7.184 19c-0.219 0-0.439-0.006-0.634-0.006-0.78 0-1.3-0.399-1.3-0.997s0.52-0.997 1.3-0.997 1.95 0.898 1.95 1.496c0 0.448-0.658 0.504-1.316 0.504zM23.45 15.5c-1.506 0-3.45 1.453-3.45 2.996 0 0.749 0.366 2.005 2.816 2.005l0.634-0.006c1.622 0 2.8-1.050 2.8-2.497s-1.177-2.498-2.8-2.498zM23.45 18.994c-0.195 0-0.414 0.006-0.634 0.006-0.658 0-1.316-0.056-1.316-0.504 0-0.598 1.17-1.496 1.95-1.496s1.3 0.399 1.3 0.997-0.52 0.997-1.3 0.997z"></path>
</svg>
