<!-- Generated by IcoMoon.io -->
<svg version="1.1" xmlns="http://www.w3.org/2000/svg" width="40" height="32" viewBox="0 0 40 32">
<title>car-building</title>
<path d="M37.212 18.402l-0.992-4.302c-0.416-1.788-1.996-3.101-3.883-3.101-0.005 0-0.010 0-0.015 0h-10.817c-0.004-0-0.010-0-0.015-0-1.887 0-3.467 1.312-3.877 3.074l-0.005 0.027-1.017 4.409c-1.527 0.767-2.589 2.333-2.589 4.157v3.444c0.005 1.273 0.833 2.35 1.98 2.729l0.020 0.006v2.154c0 0.552 0.448 1 1 1v0h1c0.552 0 1-0.448 1-1v0-2h16v2c0 0.552 0.448 1 1 1v0h1c0.552 0 1-0.448 1-1v0-2.154c1.167-0.384 1.995-1.462 2-2.734v-3.445c-0.004-1.894-1.135-3.524-2.758-4.253l-0.030-0.012zM19.556 14.55c0.212-0.895 1.004-1.55 1.949-1.55 0 0 0 0 0 0h10.818c0 0 0 0 0 0 0.945 0 1.737 0.655 1.946 1.536l0.003 0.014 0.796 3.45h-16.308zM38 26.111c-0.001 0.491-0.398 0.888-0.889 0.889h-20.223c-0.491-0.001-0.888-0.398-0.889-0.889v-3.444c0.002-1.472 1.195-2.665 2.667-2.667h16.666c1.472 0.002 2.665 1.195 2.667 2.667v0zM20 3v6h2v-6c0-1.657-1.343-3-3-3v0h-16c-1.657 0-3 1.343-3 3v0 24.5c0 0.276 0.224 0.5 0.5 0.5v0h1c0.276 0 0.5-0.224 0.5-0.5v0-24.5c0-0.552 0.448-1 1-1v0h16c0.552 0 1 0.448 1 1v0zM12.75 6c-0.414 0-0.75 0.336-0.75 0.75v0 2.5c0 0.414 0.336 0.75 0.75 0.75v0h2.5c0.414 0 0.75-0.336 0.75-0.75v0-2.5c0-0.414-0.336-0.75-0.75-0.75v0zM9.25 12h-2.5c-0.414 0-0.75 0.336-0.75 0.75v0 2.5c0 0.414 0.336 0.75 0.75 0.75v0h2.5c0.414 0 0.75-0.336 0.75-0.75v0-2.5c0-0.414-0.336-0.75-0.75-0.75v0zM9.25 18h-2.5c-0.414 0-0.75 0.336-0.75 0.75v0 2.5c0 0.414 0.336 0.75 0.75 0.75v0h2.5c0.414 0 0.75-0.336 0.75-0.75v0-2.5c0-0.414-0.336-0.75-0.75-0.75v0zM19.25 22c-0.69 0-1.25 0.56-1.25 1.25s0.56 1.25 1.25 1.25c0.69 0 1.25-0.56 1.25-1.25v0c0-0.69-0.56-1.25-1.25-1.25v0zM34.75 22c-0.69 0-1.25 0.56-1.25 1.25s0.56 1.25 1.25 1.25c0.69 0 1.25-0.56 1.25-1.25v0c0-0.69-0.56-1.25-1.25-1.25v0zM9.25 6h-2.5c-0.414 0-0.75 0.336-0.75 0.75v0 2.5c0 0.414 0.336 0.75 0.75 0.75v0h2.5c0.414 0 0.75-0.336 0.75-0.75v0-2.5c0-0.414-0.336-0.75-0.75-0.75v0zM15.658 13.651c0.090-0.385 0.2-0.718 0.338-1.036l-0.015 0.039c-0.045-0.368-0.354-0.651-0.73-0.654h-2.5c-0.414 0-0.75 0.336-0.75 0.75v0 2.5c0 0.414 0.336 0.75 0.75 0.75v0h2.366z"></path>
</svg>
