<!-- Generated by IcoMoon.io -->
<svg version="1.1" xmlns="http://www.w3.org/2000/svg" width="32" height="32" viewBox="0 0 32 32">
<title>car-battery-solid</title>
<path d="M30 8h-2v-3c0-0.553-0.448-1-1-1h-6c-0.552 0-1 0.447-1 1v3h-8v-3c0-0.553-0.447-1-1-1h-6c-0.553 0-1 0.447-1 1v3h-2c-1.104 0-2 0.896-2 2v16c0 1.104 0.896 2 2 2h28c1.104 0 2-0.896 2-2v-16c0-1.104-0.896-2-2-2zM12 16.5c0 0.276-0.224 0.5-0.5 0.5h-7c-0.276 0-0.5-0.224-0.5-0.5v-1c0-0.276 0.224-0.5 0.5-0.5h7c0.276 0 0.5 0.224 0.5 0.5v1zM28 16.5c0 0.276-0.224 0.5-0.5 0.5h-2.5v2.5c0 0.276-0.224 0.5-0.5 0.5h-1c-0.276 0-0.5-0.224-0.5-0.5v-2.5h-2.5c-0.276 0-0.5-0.224-0.5-0.5v-1c0-0.276 0.224-0.5 0.5-0.5h2.5v-2.5c0-0.276 0.224-0.5 0.5-0.5h1c0.276 0 0.5 0.224 0.5 0.5v2.5h2.5c0.276 0 0.5 0.224 0.5 0.5v1z"></path>
</svg>
