<!-- Generated by IcoMoon.io -->
<svg version="1.1" xmlns="http://www.w3.org/2000/svg" width="40" height="32" viewBox="0 0 40 32">
<title>car-tilt-solid</title>
<path d="M39 28h-19.18l-2.631-2.631 12.021-12.021 1.414 1.414c0.781 0.781 2.047 0.781 2.828 0l1.414-1.414c0.781-0.781 0.781-2.047 0-2.829l-2.39-2.389c-0.063-0.932-0.433-1.848-1.146-2.56l-2.121-2.121c-1.208-1.208-2.992-1.471-4.464-0.81l-4.822-2.067c-2.646-1.134-5.671-0.552-7.707 1.484l-5.612 5.613c-2.036 2.036-2.618 5.061-1.484 7.707l2.066 4.822c-0.661 1.471-0.398 3.256 0.81 4.464l3.339 3.338h-10.335c-0.552 0-1 0.448-1 1v2c0 0.552 0.448 1 1 1h38c0.553 0 1-0.448 1-1v-2c0-0.552-0.447-1-1-1zM24.967 6.277c0.849-0.849 1.978-0.851 2.824-0.004s0.844 1.976-0.004 2.824-1.981 2.262-2.826 1.416c-0.846-0.846-0.842-3.388 0.007-4.236zM8.796 13.801c-0.153-0.348-0.242-0.755-0.242-1.182 0-0.829 0.336-1.579 0.879-2.121l5.613-5.612c0.543-0.543 1.293-0.879 2.121-0.879 0.427 0 0.833 0.089 1.201 0.25l-0.019-0.008 3.083 1.321-11.314 11.313-1.321-3.082zM13.644 23.238c-0.849 0.849-1.978 0.851-2.824 0.004s-0.844-1.976 0.004-2.824c0.849-0.849 3.39-0.852 4.236-0.007s-0.568 1.978-1.416 2.826z"></path>
</svg>
