<!-- Generated by IcoMoon.io -->
<svg version="1.1" xmlns="http://www.w3.org/2000/svg" width="36" height="32" viewBox="0 0 36 32">
<title>car-bump-solid</title>
<path d="M35.979 30.777c0.129 0.619-0.366 1.204-1.008 1.204h-9.931c-0.643 0-1.137-0.584-1.008-1.204 0.567-2.734 3.026-4.792 5.974-4.792s5.407 2.058 5.974 4.792zM10.857 28.323c0.45 1.011-0.015 2.19-1.039 2.634l-2.013 0.874c-1.024 0.444-2.219-0.014-2.669-1.025l-1.41-3.165c-0.874-0.392-1.618-1.079-2.036-2.015l-1.351-3.032c-0.709-1.593-0.27-3.384 0.945-4.512l-0.065-1.906-0.118-3.446c-0.101-2.958 1.607-5.639 4.351-6.83l7.567-3.285c2.745-1.191 5.901-0.622 8.041 1.451l3.872 3.751c1.663-0.122 3.297 0.769 4.008 2.362l1.351 3.033c0.418 0.936 0.427 1.941 0.129 2.843l1.41 3.165c0.45 1.011-0.015 2.19-1.039 2.634l-2.013 0.874c-1.024 0.444-2.219-0.014-2.669-1.025l-0.862-1.934-15.254 6.621 0.862 1.934zM22.196 15.467c0.501 1.126 2.134 0.193 3.278-0.303s1.573-1.578 1.071-2.704c-0.501-1.126-1.599-1.545-2.742-1.049s-2.108 2.93-1.606 4.056zM8.849 21.261c-0.501-1.126-2.97-2.069-4.114-1.573s-1.572 1.578-1.071 2.704c0.501 1.126 1.599 1.545 2.742 1.049s2.944-1.054 2.442-2.179zM20.638 9.416l-2.493-2.415c-0.912-0.883-2.277-1.129-3.446-0.622l-7.567 3.285c-1.169 0.508-1.908 1.667-1.865 2.928l0.118 3.446 15.254-6.621z"></path>
</svg>
