<!-- Generated by IcoMoon.io -->
<svg version="1.1" xmlns="http://www.w3.org/2000/svg" width="40" height="32" viewBox="0 0 40 32">
<title>car-garage-solid</title>
<path d="M32.031 18.306l-1.563-3.906c-1.069-2.673-3.62-4.4-6.499-4.4h-7.938c-2.879 0-5.43 1.727-6.499 4.4l-1.563 3.906c-1.449 0.602-2.469 2.028-2.469 3.694v2c0 1.258 0.593 2.366 1.5 3.099v2.901c0 1.104 0.896 2 2 2h2c1.104 0 2-0.896 2-2v-2h14v2c0 1.104 0.896 2 2 2h2c1.104 0 2-0.896 2-2v-2.901c0.907-0.733 1.5-1.842 1.5-3.099v-2c0-1.666-1.021-3.093-2.469-3.694zM10 24.988c-1.2 0-2-0.797-2-1.994s0.8-1.994 2-1.994 3 1.794 3 2.991-1.8 0.997-3 0.997zM12.4 18.001l0.846-2.114c0.456-1.139 1.559-1.886 2.786-1.886h7.938c1.227 0 2.33 0.747 2.786 1.886l0.846 2.114h-15.2zM30 24.988c-1.2 0-3 0.199-3-0.997s1.8-2.991 3-2.991 2 0.797 2 1.994-0.8 1.994-2 1.994zM39.485 10.514l-18.756-10.326c-0.21-0.119-0.462-0.189-0.729-0.189s-0.519 0.070-0.737 0.193l0.008-0.004-18.756 10.326c-0.483 0.269-0.657 0.878-0.389 1.362l0.486 0.876c0.269 0.484 0.878 0.658 1.362 0.389l18.026-9.92 18.026 9.921c0.484 0.269 1.093 0.094 1.362-0.389l0.486-0.876c0.269-0.484 0.094-1.094-0.389-1.363z"></path>
</svg>
