<!-- Generated by IcoMoon.io -->
<svg version="1.1" xmlns="http://www.w3.org/2000/svg" width="40" height="32" viewBox="0 0 40 32">
<title>car-tilt</title>
<path d="M11.222 19.121c-1.143 1.143-1.232 2.711-0.214 3.729s2.588 0.929 3.73-0.213l0.451-0.442c1.726-1.726 1.099-2.867 0.571-3.394-1.086-1.086-3.477-0.741-4.538 0.32zM14.133 21.139c-0.154 0.154-0.313 0.304-0.451 0.442-0.549 0.549-1.196 0.634-1.617 0.213s-0.336-1.068 0.213-1.617c0.549-0.549 2.004-0.741 2.426-0.32 0.316 0.316-0.107 0.819-0.571 1.282zM39.5 30h-20.288c0.818-1.165 0.76-2.762-0.28-3.803l-1.408-1.408 11.266-11.266 1.408 1.408c1.165 1.165 3.060 1.165 4.225 0l0.704-0.704c1.165-1.165 1.165-3.060 0-4.225l-6.338-6.337c-1.587-1.587-3.971-1.856-5.853-0.852l-4.468-2.272c-1.921-0.977-4.253-0.607-5.777 0.917l-7.232 7.232c-1.524 1.524-1.894 3.856-0.918 5.778l2.272 4.468c-1.004 1.883-0.735 4.266 0.852 5.853l5.211 5.211h-12.376c-0.276 0-0.5 0.224-0.5 0.5v1c0 0.276 0.224 0.5 0.5 0.5h39c0.276 0 0.5-0.224 0.5-0.5v-1c0-0.276-0.224-0.5-0.5-0.5zM33.718 11.411c0.389 0.389 0.388 1.021 0 1.408l-0.704 0.704c-0.388 0.388-1.020 0.388-1.408 0l-1.408-1.408 2.112-2.112 1.408 1.408zM6.316 13.566c-0.588-1.156-0.367-2.549 0.551-3.467l7.232-7.232c0.54-0.541 1.287-0.876 2.112-0.876 0.495 0 0.961 0.12 1.372 0.334l-0.017-0.008 3.667 1.865-13.051 13.051-1.865-3.667zM12.594 26.902l-3.521-3.521c-1.165-1.164-1.165-3.060 0-4.225l14.082-14.082c1.165-1.165 3.060-1.165 4.225 0l3.521 3.521-18.308 18.308zM17.523 29.014l-0.704 0.704c-0.181 0.181-0.418 0.27-0.656 0.282h-0.096c-0.239-0.011-0.475-0.1-0.657-0.282l-1.408-1.408 2.112-2.113 1.408 1.408c0.389 0.389 0.389 1.021 0.001 1.408zM26.851 7.008c-1.019-1.019-2.587-0.929-3.729 0.213-1.061 1.061-1.406 3.452-0.32 4.538 0.527 0.527 1.669 1.154 3.394-0.571l0.442-0.451c1.143-1.142 1.232-2.71 0.213-3.729zM25.581 9.682c-0.137 0.137-0.288 0.296-0.442 0.451-0.463 0.463-0.966 0.887-1.282 0.571-0.421-0.421-0.229-1.877 0.32-2.426s1.196-0.634 1.617-0.214 0.336 1.068-0.214 1.617z"></path>
</svg>
