<!-- Generated by IcoMoon.io -->
<svg version="1.1" xmlns="http://www.w3.org/2000/svg" width="40" height="32" viewBox="0 0 40 32">
<title>car-crash</title>
<path d="M10.159 5.289c0.232 0.349 0.604 0.587 1.019 0.649 0.402 0.061 0.838-0.054 1.166-0.322l3.26-2.684c0.427-0.352 0.488-0.981 0.137-1.408-0.352-0.429-0.984-0.488-1.406-0.137l-2.823 2.324-2.024-3.043c-0.354-0.532-0.977-0.778-1.604-0.62-0.619 0.155-1.059 0.666-1.119 1.299l-0.354 3.639-3.583-0.722c-0.631-0.132-1.242 0.146-1.571 0.694s-0.278 1.22 0.129 1.711l2.322 2.823-3.045 2.024c-0.531 0.354-0.774 0.981-0.619 1.599 0.154 0.619 0.664 1.059 1.301 1.121l3.639 0.352-0.723 3.584c-0.109 0.541 0.242 1.068 0.783 1.177 0.066 0.014 0.133 0.019 0.199 0.019 0.465 0 0.883-0.328 0.979-0.802l0.834-4.141c0.082-0.411-0.014-0.841-0.264-1.178-0.25-0.338-0.633-0.555-1.053-0.596l-2.771-0.269 2.316-1.54c0.352-0.231 0.588-0.604 0.651-1.019 0.011-0.068 0.017-0.146 0.017-0.225 0-0.36-0.128-0.689-0.342-0.946l0.002 0.002-1.768-2.149 2.731 0.55c0.402 0.079 0.842-0.014 1.18-0.266 0.338-0.25 0.553-0.634 0.594-1.050l0.268-2.771 1.541 2.317zM17.567 13.565c-1.567-0.42-2.976 0.289-3.351 1.687s0.491 2.717 2.058 3.137l0.611 0.17c2.367 0.634 3.046-0.484 3.239-1.207 0.399-1.49-1.102-3.396-2.558-3.786zM17.273 17.11c-0.212-0.057-0.422-0.119-0.611-0.17-0.753-0.202-1.152-0.722-0.998-1.299s0.76-0.828 1.514-0.626c0.753 0.202 1.651 1.371 1.496 1.949-0.116 0.433-0.766 0.316-1.402 0.146zM37.632 15.564l-0.267-5.026c-0.115-2.162-1.608-4.004-3.699-4.564l-9.921-2.659c-2.091-0.56-4.305 0.289-5.486 2.103l-2.744 4.219c-2.142 0.072-4.079 1.502-4.662 3.68l-2.329 8.693c-0.428 1.598 0.523 3.246 2.121 3.674l0.966 0.259c1.598 0.428 3.246-0.524 3.674-2.121l0.518-1.932 15.455 4.141-0.517 1.932c-0.428 1.598 0.523 3.246 2.121 3.674l0.966 0.259c1.598 0.428 3.246-0.523 3.674-2.121l2.329-8.693c0.583-2.177-0.38-4.385-2.199-5.518zM19.936 6.509c0.711-1.092 2.033-1.599 3.291-1.262l9.921 2.658c1.258 0.337 2.15 1.438 2.219 2.739l0.219 4.126-17.904-4.797 2.253-3.463zM13.352 23.306c-0.143 0.533-0.693 0.85-1.225 0.707l-0.966-0.259c-0.532-0.142-0.85-0.692-0.707-1.225l0.518-1.932 2.898 0.776-0.518 1.933zM35.569 29.259c-0.143 0.533-0.693 0.849-1.225 0.707l-0.966-0.259c-0.532-0.142-0.85-0.692-0.707-1.225l0.517-1.932 2.898 0.776-0.517 1.933zM37.898 20.565l-1.294 4.83-25.114-6.729 1.294-4.829c0.428-1.598 2.076-2.549 3.674-2.121l19.319 5.176c1.597 0.427 2.549 2.076 2.121 3.673zM33.891 17.939c-1.455-0.39-3.708 0.51-4.108 2.001-0.194 0.723-0.166 2.031 2.201 2.665l0.614 0.158c1.567 0.42 2.976-0.289 3.351-1.687s-0.491-2.717-2.058-3.137zM34.501 20.688c-0.155 0.578-0.761 0.828-1.514 0.626-0.188-0.051-0.402-0.101-0.614-0.158-0.636-0.17-1.257-0.395-1.141-0.828 0.155-0.578 1.517-1.142 2.271-0.94s1.152 0.722 0.998 1.3z"></path>
</svg>
