<!-- Generated by IcoMoon.io -->
<svg version="1.1" xmlns="http://www.w3.org/2000/svg" width="36" height="32" viewBox="0 0 36 32">
<title>car-bump</title>
<path d="M9.848 25.634l14.621-6.619 0.852 1.774c0.705 1.468 2.508 2.105 4.019 1.421l0.914-0.414c1.512-0.684 2.168-2.435 1.463-3.902l-3.835-7.984c-0.961-2-3.135-3.049-5.274-2.755l-3.464-3.601c-1.49-1.549-3.837-1.991-5.815-1.095l-9.385 4.249c-1.978 0.896-3.138 2.925-2.874 5.029l0.615 4.891c-1.607 1.402-2.177 3.694-1.216 5.693l3.835 7.984c0.705 1.468 2.508 2.105 4.019 1.421l0.914-0.414c1.512-0.684 2.168-2.435 1.463-3.902l-0.853-1.774zM29.889 18.721c0.235 0.489 0.016 1.073-0.488 1.301l-0.914 0.414c-0.503 0.228-1.105 0.016-1.34-0.473l-0.852-1.774 2.741-1.241 0.852 1.774zM4.796 8.482l9.386-4.249c1.19-0.539 2.593-0.275 3.489 0.657l2.843 2.956-16.937 7.668-0.505-4.014c-0.159-1.266 0.534-2.479 1.724-3.018zM8.385 29.537l-0.914 0.414c-0.503 0.228-1.105 0.016-1.34-0.474l-0.853-1.774 2.741-1.241 0.852 1.774c0.236 0.49 0.016 1.074-0.487 1.301zM4.427 25.929l-2.131-4.436c-0.705-1.468-0.049-3.218 1.463-3.902l18.276-8.274c1.512-0.684 3.315-0.047 4.019 1.421l2.13 4.436-23.758 10.756zM24.88 12.346c-0.617-1.284-2.14-1.728-3.622-1.057-1.376 0.623-2.534 2.716-1.876 4.084 0.319 0.664 1.188 1.627 3.428 0.613l0.576-0.268c1.483-0.671 2.111-2.089 1.495-3.373zM22.746 14.389c-0.178 0.081-0.376 0.177-0.576 0.268-0.601 0.273-1.227 0.495-1.418 0.097-0.255-0.531 0.432-1.811 1.144-2.133s1.357-0.184 1.613 0.346-0.050 1.1-0.762 1.422zM5.815 18.281c-1.482 0.671-2.111 2.090-1.494 3.373s2.14 1.728 3.622 1.057l0.581-0.257c2.239-1.014 2.038-2.279 1.719-2.943-0.658-1.369-3.052-1.853-4.429-1.23zM7.886 21.123c-0.201 0.091-0.404 0.176-0.581 0.257-0.713 0.323-1.357 0.184-1.612-0.347s0.051-1.099 0.763-1.422 2.164-0.011 2.419 0.52c0.191 0.398-0.387 0.72-0.988 0.992zM35.979 30.797c-0.67-3.24-3.598-5.592-6.959-5.592s-6.288 2.352-6.957 5.592c-0.113 0.541 0.234 1.070 0.776 1.183 0.531 0.108 1.068-0.236 1.182-0.776 0.481-2.316 2.582-3.998 5-3.998s4.521 1.682 5.002 3.998c0.097 0.472 0.514 0.797 0.977 0.797 0.068 0 0.137-0.007 0.205-0.021 0.541-0.112 0.888-0.641 0.775-1.183z"></path>
</svg>
