<!-- Generated by IcoMoon.io -->
<svg version="1.1" xmlns="http://www.w3.org/2000/svg" width="40" height="32" viewBox="0 0 40 32">
<title>car-building-solid</title>
<path d="M13.345 28.442c-0.836-0.963-1.345-2.229-1.345-3.613 0-0 0-0.001 0-0.001v0-1.793c0-0.003 0-0.006 0-0.009 0-1.987 1.041-3.732 2.608-4.717l0.023-0.014 0.472-1.294h-1.352c-0.414 0-0.75-0.336-0.75-0.75v0-2.5c0-0.414 0.336-0.75 0.75-0.75v0h2.5c0.242 0.003 0.456 0.123 0.588 0.305l0.001 0.002c1.233-1.639 3.037-2.792 5.111-3.164l0.050-0.007v-8.136c0-1.105-0.895-2-2-2v0h-18c-1.105 0-2 0.895-2 2v0 29c0 0.552 0.448 1 1 1v0h12.816c-0.293-0.517-0.467-1.134-0.471-1.792v-0.001zM13 5.75c0-0.414 0.336-0.75 0.75-0.75v0h2.5c0.414 0 0.75 0.336 0.75 0.75v0 2.5c0 0.414-0.336 0.75-0.75 0.75v0h-2.5c-0.414 0-0.75-0.336-0.75-0.75v0zM9 24.25c0 0.414-0.336 0.75-0.75 0.75v0h-2.5c-0.414 0-0.75-0.336-0.75-0.75v0-2.5c0-0.414 0.336-0.75 0.75-0.75v0h2.5c0.414 0 0.75 0.336 0.75 0.75v0zM9 16.25c0 0.414-0.336 0.75-0.75 0.75v0h-2.5c-0.414 0-0.75-0.336-0.75-0.75v0-2.5c0-0.414 0.336-0.75 0.75-0.75v0h2.5c0.414 0 0.75 0.336 0.75 0.75v0zM9 8.25c0 0.414-0.336 0.75-0.75 0.75v0h-2.5c-0.414 0-0.75-0.336-0.75-0.75v0-2.5c0-0.414 0.336-0.75 0.75-0.75v0h2.5c0.414 0 0.75 0.336 0.75 0.75v0zM37.786 19.723l-0.286-0.71-1.117-3.067c-0.941-2.331-3.185-3.945-5.806-3.945-0.007 0-0.013 0-0.020 0h-7.115c-0.006-0-0.013-0-0.021-0-2.621 0-4.865 1.614-5.792 3.903l-0.015 0.042-1.114 3.067-0.284 0.709c-1.31 0.554-2.213 1.828-2.214 3.312v1.793c0.003 1.122 0.525 2.122 1.338 2.773l0.007 0.005v2.601c0 0.99 0.802 1.792 1.791 1.793h1.793c0.99-0 1.793-0.803 1.793-1.793v0-2.207h12.552v2.207c0 0.99 0.803 1.793 1.793 1.793h1.793c0.99-0 1.793-0.803 1.793-1.793v-2.601c0.82-0.656 1.342-1.656 1.345-2.778v-1.794c-0.001-1.485-0.904-2.759-2.19-3.303l-0.024-0.009zM20.944 17.75c0.408-1.058 1.398-1.75 2.5-1.75h7.114c1.1 0 2.089 0.694 2.5 1.75l0.754 2.25h-13.625zM18.75 25.491c-0.9 0-1.5-0.598-1.5-1.496s0.6-1.495 1.5-1.495 2.25 1.346 2.25 2.243-1.35 0.747-2.25 0.747zM35.25 25.491c-0.9 0-2.25 0.149-2.25-0.75s1.35-2.241 2.25-2.241 1.5 0.598 1.5 1.495-0.6 1.496-1.5 1.496z"></path>
</svg>
