<!-- Generated by IcoMoon.io -->
<svg version="1.1" xmlns="http://www.w3.org/2000/svg" width="40" height="32" viewBox="0 0 40 32">
<title>car-bus-solid</title>
<path d="M37.786 19.723l-0.286-0.71-1.117-3.067c-0.941-2.331-3.185-3.945-5.806-3.945-0.007 0-0.013 0-0.020 0h-7.115c-0.006-0-0.014-0-0.021-0-2.621 0-4.865 1.614-5.791 3.903l-0.015 0.042-1.115 3.067-0.284 0.71c-1.31 0.553-2.213 1.827-2.214 3.312v1.793c0.003 1.122 0.525 2.122 1.338 2.773l0.007 0.005v2.393c0 1.105 0.895 2 2 2v0h1.379c1.105 0 2-0.895 2-2v0-2h12.549v2c0 1.105 0.895 2 2 2v0h1.379c1.105 0 2-0.895 2-2v0-2.394c0.82-0.656 1.342-1.656 1.345-2.778v-1.794c-0.001-1.485-0.904-2.759-2.19-3.303l-0.024-0.009zM20.944 17.75c0.408-1.058 1.398-1.75 2.5-1.75h7.114c1.1 0 2.089 0.694 2.5 1.75l0.754 2.25h-13.625zM18.75 25.491c-0.9 0-1.5-0.598-1.5-1.495s0.6-1.496 1.5-1.496 2.25 1.346 2.25 2.243-1.35 0.747-2.25 0.747zM35.25 25.491c-0.9 0-2.25 0.149-2.25-0.75s1.35-2.241 2.25-2.241 1.5 0.598 1.5 1.496-0.6 1.495-1.5 1.495zM15.758 15.202c0.191-0.467 0.393-0.863 0.624-1.238l-0.021 0.036h-4.361v-9h5.083c0.506 0 0.917 0.41 0.917 0.917v0 6.129c1.090-0.958 2.449-1.634 3.95-1.903l0.050-0.007v-6.207c0-2.2-4.871-3.929-11-3.929s-11 1.729-11 3.929v16.238c0 1.012 0.821 1.833 1.833 1.833v0h0.667v2c0 1.105 0.895 2 2 2v0h1.448c1.105 0 2-0.895 2-2v0-2h4.188c0.289-1.531 1.171-2.88 2.5-3.706zM5 19.5c-0.828 0-1.5-0.672-1.5-1.5s0.672-1.5 1.5-1.5c0.828 0 1.5 0.672 1.5 1.5v0c0 0.828-0.672 1.5-1.5 1.5v0zM10 14h-5.083c-0.506 0-0.917-0.411-0.917-0.917v0-7.166c0-0.506 0.41-0.917 0.917-0.917v0h5.083z"></path>
</svg>
