<!-- Generated by IcoMoon.io -->
<svg version="1.1" xmlns="http://www.w3.org/2000/svg" width="32" height="32" viewBox="0 0 32 32">
<title>car-mechanic-solid</title>
<path d="M31.494 6.5h-3.499l-1.5-1.5 1.5-1.5h3.498c0.372 0 0.619-0.394 0.453-0.728-0.949-1.907-3.063-3.127-5.428-2.679-1.603 0.304-2.92 1.436-3.566 2.907h-13.891c-0.774-1.761-2.513-3-4.559-3-1.958 0-3.636 1.133-4.452 2.773-0.166 0.333 0.082 0.727 0.453 0.727h3.499l1.5 1.5-1.5 1.5h-3.499c-0.372 0-0.619 0.394-0.453 0.728 0.949 1.907 3.063 3.128 5.428 2.679 1.603-0.304 2.921-1.437 3.566-2.907h13.891c0.774 1.761 2.512 3 4.559 3 1.957 0 3.636-1.133 4.452-2.773 0.166-0.333-0.081-0.727-0.453-0.727zM28.031 18.307l-1.563-3.906c-1.069-2.673-3.62-4.4-6.499-4.4h-7.938c-2.879 0-5.43 1.727-6.499 4.4l-1.563 3.906c-1.449 0.601-2.469 2.027-2.469 3.694v2c0 1.258 0.592 2.366 1.5 3.099v2.901c0 1.104 0.896 2 2 2h2c1.104 0 2-0.896 2-2v-2h14v2c0 1.104 0.896 2 2 2h2c1.104 0 2-0.896 2-2v-2.901c0.907-0.733 1.5-1.842 1.5-3.099v-2c0-1.666-1.021-3.093-2.469-3.693zM6 24.988c-1.2 0-2-0.797-2-1.994s0.8-1.994 2-1.994 3 1.794 3 2.991-1.8 0.997-3 0.997zM8.4 18.001l0.846-2.114c0.456-1.139 1.559-1.886 2.786-1.886h7.938c1.227 0 2.33 0.747 2.786 1.886l0.846 2.114h-15.2zM26 24.988c-1.2 0-3 0.199-3-0.997s1.8-2.991 3-2.991 2 0.797 2 1.994-0.8 1.994-2 1.994z"></path>
</svg>
