<!-- Generated by IcoMoon.io -->
<svg version="1.1" xmlns="http://www.w3.org/2000/svg" width="40" height="32" viewBox="0 0 40 32">
<title>car-garage</title>
<path d="M39.742 10l-19.256-9.874c-0.305-0.168-0.668-0.168-0.973 0l-19.256 10.063c-0.242 0.134-0.329 0.439-0.194 0.68l0.486 0.874c0.134 0.241 0.439 0.328 0.68 0.194l18.771-9.793 18.771 9.605c0.241 0.134 0.546 0.047 0.679-0.194l0.487-0.874c0.134-0.242 0.047-0.546-0.194-0.681zM30.836 16.359l-0.947-2.906c-0.671-2.058-2.589-3.451-4.754-3.451h-10.271c-2.165 0-4.084 1.393-4.754 3.451l-0.947 2.906c-1.85 0.733-3.163 2.53-3.163 4.641v8c0 1.654 1.346 3 3 3h1c1.654 0 3-1.346 3-3v-1h14v1c0 1.654 1.346 3 3 3h1c1.654 0 3-1.346 3-3v-8c0-2.111-1.313-3.908-3.164-4.641zM12.012 14.072c0.401-1.212 1.524-2.071 2.847-2.071 0.002 0 0.004 0 0.005 0h10.271c1.302 0 2.449 0.832 2.852 2.071l0.628 1.928h-17.233l0.628-1.928zM11 29c0 0.552-0.449 1-1 1h-1c-0.551 0-1-0.448-1-1v-1h3v1zM32 29c0 0.552-0.449 1-1 1h-1c-0.551 0-1-0.448-1-1v-1h3v1zM32 24v2h-24v-5c0-1.654 1.346-3 3-3h18c1.654 0 3 1.346 3 3v3zM27.45 19.501c-1.506 0-3.45 1.453-3.45 2.996 0 0.749 0.366 2.004 2.816 2.004l0.634-0.006c1.622 0 2.8-1.050 2.8-2.497s-1.177-2.497-2.8-2.497zM27.45 22.994c-0.195 0-0.414 0.006-0.634 0.006-0.658 0-1.316-0.056-1.316-0.504 0-0.598 1.17-1.496 1.95-1.496s1.3 0.399 1.3 0.997-0.521 0.997-1.3 0.997zM12.55 19.501c-1.623 0-2.8 1.050-2.8 2.497s1.178 2.497 2.8 2.497l0.634 0.006c2.451 0 2.816-1.256 2.816-2.004 0-1.543-1.944-2.996-3.45-2.996zM13.184 23.001c-0.219 0-0.439-0.006-0.634-0.006-0.78 0-1.3-0.399-1.3-0.997s0.52-0.997 1.3-0.997 1.95 0.898 1.95 1.496c0 0.448-0.658 0.504-1.316 0.504z"></path>
</svg>
