<!-- Generated by IcoMoon.io -->
<svg version="1.1" xmlns="http://www.w3.org/2000/svg" width="40" height="32" viewBox="0 0 40 32">
<title>car-side</title>
<path d="M34 12h-1l-6.799-8.499c-0.739-0.918-1.863-1.501-3.123-1.501h-12.369c-1.636 0-3.106 0.996-3.714 2.514l-2.994 7.486c-2.209 0-4 1.791-4 4v7c0 0.552 0.448 1 1 1h3c0 3.314 2.686 6 6 6s6-2.686 6-6h8c0 3.314 2.686 6 6 6s6-2.686 6-6h3c0.553 0 1-0.448 1-1v-5c0-3.314-2.686-6-6-6zM18 4h5.078c0.611 0 1.18 0.274 1.562 0.751l5.799 7.249h-12.439v-8zM8.851 5.258c0.306-0.764 1.034-1.258 1.857-1.258h5.292v8h-9.846l2.697-6.742zM10 28c-2.209 0-4-1.791-4-4s1.791-4 4-4 4 1.791 4 4-1.791 4-4 4zM30 28c-2.209 0-4-1.791-4-4s1.791-4 4-4 4 1.791 4 4-1.791 4-4 4zM38 22h-2.367c-0.826-2.325-3.024-4-5.633-4s-4.806 1.675-5.633 4h-8.735c-0.826-2.325-3.024-4-5.633-4s-4.806 1.675-5.633 4h-2.368v-6c0-1.102 0.897-2 2-2h30c2.206 0 4 1.794 4 4v4z"></path>
</svg>
