<!-- Generated by IcoMoon.io -->
<svg version="1.1" xmlns="http://www.w3.org/2000/svg" width="32" height="32" viewBox="0 0 32 32">
<title>car-mechanic</title>
<path d="M31.884 3.33c-0.708-1.992-2.597-3.33-4.701-3.33-1.627 0-3.061 0.793-3.974 2h-14.419c-0.913-1.207-2.348-2-3.974-2-2.104 0-3.993 1.338-4.701 3.33-0.073 0.199-0.116 0.43-0.116 0.67 0 0.368 0.1 0.713 0.273 1.009l-0.005-0.009c-0.168 0.287-0.268 0.632-0.268 1 0 0.24 0.042 0.47 0.12 0.684l-0.004-0.014c0.708 1.992 2.597 3.33 4.701 3.33 1.626 0 3.059-0.793 3.973-1.998h14.421c0.914 1.206 2.347 1.998 3.973 1.998 2.104 0 3.993-1.338 4.701-3.33 0.073-0.199 0.115-0.43 0.115-0.67 0-0.368-0.099-0.713-0.273-1.010l0.005 0.009c0.292-0.505 0.35-1.115 0.152-1.67zM27.184 6h2.816c-0.413 1.162-1.512 2-2.816 2s-2.403-0.838-2.816-2h-16.734c-0.413 1.162-1.512 2-2.816 2s-2.404-0.838-2.817-2h2.816l1-1-1-1h-2.816c0.413-1.163 1.512-2 2.816-2s2.404 0.838 2.817 2.002h16.733c0.413-1.164 1.512-2.002 2.817-2.002s2.403 0.837 2.816 2h-2.816l-1 1 1 1zM26.836 16.359l-0.947-2.906c-0.671-2.058-2.589-3.451-4.754-3.451h-10.271c-2.165 0-4.084 1.393-4.754 3.451l-0.947 2.906c-1.85 0.733-3.163 2.53-3.163 4.641v8c0 1.654 1.346 3 3 3h1c1.654 0 3-1.346 3-3v-1h14v1c0 1.654 1.346 3 3 3h1c1.654 0 3-1.346 3-3v-8c0-2.111-1.313-3.908-3.164-4.641zM8.012 14.072c0.401-1.212 1.524-2.071 2.847-2.071 0.002 0 0.004 0 0.005 0h10.271c1.302 0 2.449 0.832 2.852 2.071l0.628 1.928h-17.233l0.628-1.928zM7 29c0 0.552-0.449 1-1 1h-1c-0.551 0-1-0.448-1-1v-1h3v1zM28 29c0 0.552-0.449 1-1 1h-1c-0.551 0-1-0.448-1-1v-1h3v1zM28 24v2h-24v-5c0-1.654 1.346-3 3-3h18c1.654 0 3 1.346 3 3v3zM23.45 19.501c-1.506 0-3.45 1.453-3.45 2.996 0 0.749 0.366 2.004 2.816 2.004l0.634-0.006c1.622 0 2.8-1.050 2.8-2.497s-1.177-2.497-2.8-2.497zM23.45 22.994c-0.195 0-0.414 0.006-0.634 0.006-0.658 0-1.316-0.056-1.316-0.504 0-0.598 1.17-1.496 1.95-1.496s1.3 0.399 1.3 0.997-0.52 0.997-1.3 0.997zM8.55 19.501c-1.623 0-2.8 1.050-2.8 2.497s1.178 2.497 2.8 2.497l0.634 0.006c2.451 0 2.816-1.256 2.816-2.004 0-1.543-1.944-2.996-3.45-2.996zM9.184 23.001c-0.219 0-0.439-0.006-0.634-0.006-0.78 0-1.3-0.399-1.3-0.997s0.52-0.997 1.3-0.997 1.95 0.898 1.95 1.496c0 0.448-0.658 0.504-1.316 0.504z"></path>
</svg>
