<!-- Generated by IcoMoon.io -->
<svg version="1.1" xmlns="http://www.w3.org/2000/svg" width="32" height="32" viewBox="0 0 32 32">
<title>car</title>
<path d="M7.551 15.5c-1.623 0-2.8 1.050-2.8 2.497s1.178 2.497 2.8 2.497l0.634 0.006c2.451 0 2.816-1.256 2.816-2.005-0.001-1.543-1.944-2.995-3.45-2.995zM8.184 19c-0.219 0-0.439-0.006-0.634-0.006-0.78 0-1.3-0.399-1.3-0.997s0.52-0.997 1.3-0.997 1.95 0.898 1.95 1.496c0 0.448-0.659 0.504-1.316 0.504zM24.449 15.5c-1.506 0-3.449 1.453-3.449 2.996 0 0.749 0.366 2.005 2.816 2.005l0.634-0.006c1.622 0 2.8-1.050 2.8-2.497s-1.178-2.498-2.801-2.498zM24.449 18.994c-0.195 0-0.414 0.006-0.634 0.006-0.658 0-1.316-0.056-1.316-0.504 0-0.598 1.17-1.496 1.95-1.496s1.3 0.399 1.3 0.997-0.52 0.997-1.3 0.997zM31.624 10.185c-0.459-0.742-1.254-1.186-2.127-1.186h-3.104l-0.504-1.548c-0.671-2.059-2.589-3.452-4.754-3.452h-10.271c-2.165 0-4.083 1.393-4.754 3.451l-0.504 1.547h-3.104c-0.873 0-1.668 0.443-2.127 1.186s-0.5 1.651-0.109 2.432l0.361 0.726c0.248 0.492 0.62 0.881 1.063 1.159-0.432 0.734-0.689 1.582-0.689 2.498v8.001c0 1.654 1.346 3 3 3h1c1.654 0 3-1.346 3-3v-1h15.999v1c0 1.654 1.346 3 3 3h1c1.654 0 3-1.346 3-3v-8.001c0-0.916-0.258-1.764-0.689-2.499 0.443-0.279 0.815-0.668 1.063-1.161l0.361-0.723c0.39-0.781 0.349-1.691-0.11-2.432zM8.012 8.071c0.404-1.239 1.55-2.071 2.852-2.071h10.271c1.302 0 2.449 0.833 2.852 2.071l1.279 3.928h-18.534l1.279-3.928zM2.417 12.447l-0.361-0.724c-0.113-0.224-0.021-0.415 0.021-0.486 0.054-0.089 0.184-0.238 0.426-0.238h2.452l-0.403 1.239c-0.548 0.17-1.026 0.411-1.453 0.716l0.015-0.010c-0.294-0.063-0.559-0.22-0.697-0.496zM6.001 25c0 0.552-0.449 1-1 1h-1c-0.551 0-1-0.448-1-1v-1h3v1zM28.999 25c0 0.552-0.449 1-1 1h-1c-0.551 0-1-0.448-1-1v-1h3v1zM28.999 19.999v2h-25.999v-5c0-1.654 1.346-3 3-3h19.999c1.654 0 3 1.346 3 3v3zM29.944 11.724l-0.361 0.722c-0.138 0.277-0.402 0.436-0.697 0.498-0.434-0.306-0.918-0.547-1.438-0.706l-0.403-1.239h2.453c0.242 0 0.371 0.149 0.426 0.238 0.043 0.071 0.135 0.261 0.021 0.487z"></path>
</svg>
