<!-- Generated by IcoMoon.io -->
<svg version="1.1" xmlns="http://www.w3.org/2000/svg" width="40" height="32" viewBox="0 0 40 32">
<title>caravan</title>
<path d="M26 15c0.552 0 1-0.448 1-1s-0.448-1-1-1c-0.552 0-1 0.448-1 1v0c0 0.552 0.448 1 1 1v0zM39.5 22h-3.5v-12c0-5.523-4.477-10-10-10v0h-20c-3.314 0-6 2.686-6 6v0 12c0 3.314 2.686 6 6 6v0c0 3.314 2.686 6 6 6s6-2.686 6-6v0h21.5c0.276 0 0.5-0.224 0.5-0.5v0-1c0-0.276-0.224-0.5-0.5-0.5v0zM12 28c-2.209 0-4-1.791-4-4s1.791-4 4-4c2.209 0 4 1.791 4 4v0c-0.002 2.208-1.792 3.997-4 4h-0zM28 22h-6v-14h6zM34 22h-4v-14c0-1.105-0.895-2-2-2v0h-6c-1.105 0-2 0.895-2 2v0 14h-2.367c-0.826-2.325-3.024-4-5.633-4s-4.806 1.675-5.633 4h-0.367c-2.208-0.003-3.998-1.792-4-4v-12c0.002-2.208 1.792-3.998 4-4h20c4.416 0.005 7.995 3.584 8 8v0zM15 6h-8c-1.105 0-2 0.895-2 2v0 4c0 1.105 0.895 2 2 2v0h8c1.105 0 2-0.895 2-2v0-4c0-1.105-0.895-2-2-2v0zM15 12h-8v-4h8z"></path>
</svg>
