<!-- Generated by IcoMoon.io -->
<svg version="1.1" xmlns="http://www.w3.org/2000/svg" width="40" height="32" viewBox="0 0 40 32">
<title>caravan-alt-solid</title>
<path d="M39 20h-3v-10c0-5.523-4.477-10-10-10v0h-22c-2.209 0-4 1.791-4 4v0 16c0 2.209 1.791 4 4 4v0h2c0 3.314 2.686 6 6 6s6-2.686 6-6v0h21c0.552 0 1-0.448 1-1v0-2c0-0.552-0.448-1-1-1v0zM12 27c-1.657 0-3-1.343-3-3s1.343-3 3-3c1.657 0 3 1.343 3 3v0c-0.002 1.656-1.344 2.998-3 3h-0zM16 12c0 1.105-0.895 2-2 2v0h-8c-1.105 0-2-0.895-2-2v0-4c0-1.105 0.895-2 2-2v0h8c1.105 0 2 0.895 2 2v0zM28 12c0 1.105-0.895 2-2 2v0h-4c-1.105 0-2-0.895-2-2v0-4c0-1.105 0.895-2 2-2v0h4c1.105 0 2 0.895 2 2v0z"></path>
</svg>
