<!-- Generated by IcoMoon.io -->
<svg version="1.1" xmlns="http://www.w3.org/2000/svg" width="28" height="32" viewBox="0 0 28 32">
<title>caret-square-right</title>
<path d="M0 5v22c0 1.656 1.344 3 3 3h22c1.656 0 3-1.344 3-3v-22c0-1.656-1.344-3-3-3h-22c-1.656 0-3 1.344-3 3zM25 4c0.55 0 1 0.45 1 1v22c0 0.55-0.45 1-1 1h-22c-0.55 0-1-0.45-1-1v-22c0-0.55 0.45-1 1-1h22zM12 10l6 6-6 6v-12zM10 22c0 1.775 2.156 2.675 3.412 1.413l6-6c0.781-0.781 0.781-2.050 0-2.831l-6-6c-1.256-1.256-3.412-0.369-3.412 1.412v12.006z"></path>
</svg>
