<!-- Generated by IcoMoon.io -->
<svg version="1.1" xmlns="http://www.w3.org/2000/svg" width="28" height="32" viewBox="0 0 28 32">
<title>caret-square-down</title>
<path d="M25 2h-22c-1.656 0-3 1.344-3 3v22c0 1.656 1.344 3 3 3h22c1.656 0 3-1.344 3-3v-22c0-1.656-1.344-3-3-3zM26 27c0 0.55-0.45 1-1 1h-22c-0.55 0-1-0.45-1-1v-22c0-0.55 0.45-1 1-1h22c0.55 0 1 0.45 1 1v22zM20 14l-6 6-6-6h12zM8 12c-1.775 0-2.675 2.156-1.412 3.412l6 6c0.781 0.781 2.050 0.781 2.831 0l6-6c1.256-1.256 0.369-3.412-1.413-3.412h-12.006z"></path>
</svg>
