<!-- Generated by IcoMoon.io -->
<svg version="1.1" xmlns="http://www.w3.org/2000/svg" width="32" height="32" viewBox="0 0 32 32">
<title>caret-circle-left</title>
<path d="M31.5 16c0-8.563-6.938-15.5-15.5-15.5s-15.5 6.938-15.5 15.5 6.938 15.5 15.5 15.5 15.5-6.938 15.5-15.5zM16 29.5c-7.419 0-13.5-6.006-13.5-13.5 0-7.419 6.006-13.5 13.5-13.5 7.419 0 13.5 6.006 13.5 13.5 0 7.419-6.006 13.5-13.5 13.5zM18 22l-6-6 6-6v12zM20 10c0-1.775-2.156-2.675-3.413-1.412l-6 6c-0.781 0.781-0.781 2.050 0 2.831l6 6c1.256 1.256 3.413 0.369 3.413-1.413v-12.006z"></path>
</svg>
