<!-- Generated by IcoMoon.io -->
<svg version="1.1" xmlns="http://www.w3.org/2000/svg" width="28" height="32" viewBox="0 0 28 32">
<title>caret-square-left</title>
<path d="M28 27v-22c0-1.656-1.344-3-3-3h-22c-1.656 0-3 1.344-3 3v22c0 1.656 1.344 3 3 3h22c1.656 0 3-1.344 3-3zM3 28c-0.55 0-1-0.45-1-1v-22c0-0.55 0.45-1 1-1h22c0.55 0 1 0.45 1 1v22c0 0.55-0.45 1-1 1h-22zM16 22l-6-6 6-6v12zM18 10c0-1.775-2.156-2.675-3.412-1.412l-6 6c-0.781 0.781-0.781 2.050 0 2.831l6 6c1.256 1.256 3.412 0.369 3.412-1.413v-12.006z"></path>
</svg>
