<!-- Generated by IcoMoon.io -->
<svg version="1.1" xmlns="http://www.w3.org/2000/svg" width="32" height="32" viewBox="0 0 32 32">
<title>caret-circle-up</title>
<path d="M16 31.5c8.563 0 15.5-6.938 15.5-15.5s-6.938-15.5-15.5-15.5-15.5 6.938-15.5 15.5 6.938 15.5 15.5 15.5zM2.5 16c0-7.419 6.006-13.5 13.5-13.5 7.419 0 13.5 6.006 13.5 13.5 0 7.419-6.006 13.5-13.5 13.5-7.419 0-13.5-6.006-13.5-13.5zM10 18l6-6 6 6h-12zM22 20c1.775 0 2.675-2.156 1.413-3.413l-6-6c-0.781-0.781-2.050-0.781-2.831 0l-6 6c-1.256 1.256-0.369 3.413 1.412 3.413h12.006z"></path>
</svg>
