<!-- Generated by IcoMoon.io -->
<svg version="1.1" xmlns="http://www.w3.org/2000/svg" width="32" height="32" viewBox="0 0 32 32">
<title>caret-circle-right</title>
<path d="M0.5 16c0 8.563 6.938 15.5 15.5 15.5s15.5-6.938 15.5-15.5-6.938-15.5-15.5-15.5-15.5 6.938-15.5 15.5zM16 2.5c7.419 0 13.5 6.006 13.5 13.5 0 7.419-6.006 13.5-13.5 13.5-7.419 0-13.5-6.006-13.5-13.5 0-7.419 6.006-13.5 13.5-13.5zM14 10l6 6-6 6v-12zM12 22c0 1.775 2.156 2.675 3.412 1.413l6-6c0.781-0.781 0.781-2.050 0-2.831l-6-6c-1.256-1.256-3.412-0.369-3.412 1.412v12.006z"></path>
</svg>
