<!-- Generated by IcoMoon.io -->
<svg version="1.1" xmlns="http://www.w3.org/2000/svg" width="28" height="32" viewBox="0 0 28 32">
<title>caret-square-up</title>
<path d="M3 30h22c1.656 0 3-1.344 3-3v-22c0-1.656-1.344-3-3-3h-22c-1.656 0-3 1.344-3 3v22c0 1.656 1.344 3 3 3zM2 5c0-0.55 0.45-1 1-1h22c0.55 0 1 0.45 1 1v22c0 0.55-0.45 1-1 1h-22c-0.55 0-1-0.45-1-1v-22zM8 18l6-6 6 6h-12zM20 20c1.775 0 2.675-2.156 1.413-3.413l-6-6c-0.781-0.781-2.050-0.781-2.831 0l-6 6c-1.25 1.256-0.362 3.413 1.419 3.413h12z"></path>
</svg>
