<!-- Generated by IcoMoon.io -->
<svg version="1.1" xmlns="http://www.w3.org/2000/svg" width="32" height="32" viewBox="0 0 32 32">
<title>carrot-solid</title>
<path d="M18.637 9.787c-3.294-1.606-7.156-0.656-9.387 2.050l3.45 3.45c0.394 0.394 0.394 1.025 0 1.413-0.194 0.194-0.45 0.294-0.706 0.294s-0.512-0.1-0.706-0.294l-3.137-3.137-8.006 16.419c-0.181 0.375-0.194 0.831 0 1.231 0.338 0.694 1.181 0.981 1.875 0.644l8.35-4.075-3.075-3.075c-0.394-0.387-0.394-1.025 0-1.413s1.025-0.387 1.413 0l3.563 3.563 6.375-3.113c1.5-0.731 2.781-1.956 3.569-3.569 1.881-3.856 0.281-8.506-3.575-10.387zM24.394 7.606c1.219-2.544 0.587-5.55-1.894-7.606-3.144 2.606-3.281 6.719-0.494 9.494l0.5 0.5c2.775 2.787 6.894 2.65 9.494-0.494-2.056-2.481-5.063-3.112-7.606-1.894z"></path>
</svg>
