<!-- Generated by IcoMoon.io -->
<svg version="1.1" xmlns="http://www.w3.org/2000/svg" width="32" height="32" viewBox="0 0 32 32">
<title>carrot</title>
<path d="M31.538 8.656c-1.431-1.725-3.337-2.713-5.4-2.8-0.1-2.006-1.069-3.962-2.794-5.394-0.369-0.306-0.819-0.463-1.275-0.463-0.45 0-0.906 0.156-1.275 0.463-1.7 1.413-2.694 3.313-2.788 5.362-0.044 0.906 0.113 1.794 0.413 2.638-0.831-0.275-1.675-0.456-2.519-0.456-3 0-5.881 1.675-7.287 4.55l-8.463 17.337c-0.188 0.387-0.206 0.863 0 1.281 0.256 0.519 0.775 0.819 1.313 0.819 0.212 0 0.431-0.050 0.638-0.15l17.35-8.469c1.563-0.762 2.9-2.038 3.725-3.725 0.962-1.969 1.044-4.137 0.406-6.069 0.738 0.256 1.494 0.412 2.275 0.412 2.169 0 4.188-0.994 5.681-2.794 0.619-0.731 0.619-1.806 0-2.544zM21.381 18.781c-0.6 1.231-1.575 2.206-2.806 2.806l-7.8 3.806c-0.025-0.031-0.037-0.069-0.069-0.1l-2-2c-0.387-0.387-1.025-0.387-1.412 0s-0.388 1.025 0 1.413l1.6 1.6-6.263 3.063 6.994-14.331 1.669 1.669c0.194 0.194 0.45 0.294 0.706 0.294s0.512-0.1 0.706-0.294c0.387-0.387 0.387-1.025 0-1.412l-2-2c-0.044-0.044-0.106-0.069-0.156-0.106 1.069-1.969 3.088-3.188 5.35-3.188 0.931 0 1.825 0.206 2.669 0.619 1.462 0.713 2.563 1.956 3.094 3.5s0.431 3.194-0.281 4.663zM25.863 12c-1.344 0-2.694-0.556-3.788-1.656l-0.419-0.419c-2.325-2.319-2.212-5.75 0.413-7.925 2.075 1.719 2.594 4.225 1.581 6.35 0.7-0.331 1.438-0.5 2.181-0.5 1.506 0 3.019 0.694 4.169 2.081-1.144 1.381-2.644 2.069-4.137 2.069z"></path>
</svg>
