<!-- Generated by IcoMoon.io -->
<svg version="1.1" xmlns="http://www.w3.org/2000/svg" width="40" height="32" viewBox="0 0 40 32">
<title>cars-solid</title>
<path d="M15.758 15.202c1.242-3.073 4.2-5.202 7.657-5.202 0.010 0 0.019 0 0.029 0h2.399c-0.32-1.037-1.068-1.858-2.033-2.269l-0.023-0.009-0.286-0.71-1.115-3.067c-0.941-2.331-3.185-3.945-5.806-3.945-0.007 0-0.015 0-0.022 0h-7.115c-0.006-0-0.014-0-0.021-0-2.621 0-4.865 1.614-5.791 3.903l-0.015 0.042-1.115 3.067-0.284 0.71c-1.311 0.553-2.215 1.827-2.216 3.312v1.793c0.003 1.122 0.525 2.122 1.338 2.773l0.007 0.005v2.394c0 1.105 0.895 2 2 2v0h1.379c1.105 0 2-0.895 2-2v0-2h8.742zM6.944 5.75c0.408-1.058 1.397-1.75 2.5-1.75h7.114c1.1 0 2.089 0.694 2.5 1.75l0.754 2.25h-13.625zM4.75 13.491c-0.9 0-1.5-0.598-1.5-1.495s0.6-1.496 1.5-1.496 2.25 1.346 2.25 2.243-1.35 0.748-2.25 0.748zM37.786 19.723l-0.286-0.71-1.117-3.067c-0.941-2.331-3.185-3.945-5.806-3.945-0.007 0-0.013 0-0.020 0h-7.115c-0.006-0-0.014-0-0.021-0-2.621 0-4.865 1.614-5.791 3.903l-0.015 0.042-1.115 3.067-0.284 0.71c-1.31 0.553-2.213 1.827-2.214 3.312v1.793c0.003 1.122 0.525 2.122 1.338 2.773l0.007 0.005v2.393c0 1.105 0.895 2 2 2v0h1.379c1.105 0 2-0.895 2-2v0-2h12.549v2c0 1.105 0.895 2 2 2v0h1.379c1.105 0 2-0.895 2-2v0-2.394c0.82-0.656 1.342-1.656 1.345-2.778v-1.794c-0.001-1.485-0.904-2.759-2.19-3.303l-0.024-0.009zM20.944 17.75c0.408-1.058 1.398-1.75 2.5-1.75h7.114c1.1 0 2.089 0.694 2.5 1.75l0.754 2.25h-13.625zM18.75 25.491c-0.9 0-1.5-0.598-1.5-1.496s0.6-1.495 1.5-1.495 2.25 1.346 2.25 2.243-1.35 0.747-2.25 0.747zM35.25 25.491c-0.9 0-2.25 0.149-2.25-0.75s1.35-2.241 2.25-2.241 1.5 0.598 1.5 1.495-0.6 1.496-1.5 1.496z"></path>
</svg>
