<!-- Generated by IcoMoon.io -->
<svg version="1.1" xmlns="http://www.w3.org/2000/svg" width="36" height="32" viewBox="0 0 36 32">
<title>cart-plus-solid</title>
<path d="M31.545 20h-18.322l0.409 2h16.776c0.963 0 1.676 0.894 1.463 1.832l-0.345 1.517c1.168 0.567 1.974 1.765 1.974 3.15 0 1.95-1.595 3.528-3.552 3.5-1.864-0.027-3.397-1.539-3.447-3.403-0.027-1.018 0.38-1.941 1.050-2.597h-13.103c0.649 0.635 1.052 1.52 1.052 2.5 0 1.988-1.658 3.589-3.667 3.496-1.784-0.083-3.234-1.524-3.328-3.307-0.072-1.377 0.652-2.591 1.753-3.224l-4.39-21.465h-4.368c-0.828 0-1.5-0.672-1.5-1.5v-1c0-0.828 0.672-1.5 1.5-1.5h6.408c0.713 0 1.327 0.501 1.47 1.199l0.573 2.801h24.549c0.963 0 1.676 0.894 1.463 1.832l-2.955 13c-0.155 0.683-0.762 1.168-1.463 1.168zM25.5 10.5h-3v-2.5c0-0.552-0.448-1-1-1h-1c-0.552 0-1 0.448-1 1v2.5h-3c-0.552 0-1 0.448-1 1v1c0 0.552 0.448 1 1 1h3v2.5c0 0.552 0.448 1 1 1h1c0.552 0 1-0.448 1-1v-2.5h3c0.552 0 1-0.448 1-1v-1c0-0.552-0.448-1-1-1z"></path>
</svg>
