<!-- Generated by IcoMoon.io -->
<svg version="1.1" xmlns="http://www.w3.org/2000/svg" width="32" height="32" viewBox="0 0 32 32">
<title>cash-register</title>
<path d="M14.5 15.5c0-0.55-0.45-1-1-1h-1c-0.55 0-1 0.45-1 1v1c0 0.55 0.45 1 1 1h1c0.55 0 1-0.45 1-1v-1zM8.5 15.5c0-0.55-0.45-1-1-1h-1c-0.55 0-1 0.45-1 1v1c0 0.55 0.45 1 1 1h1c0.55 0 1-0.45 1-1v-1zM10.5 18.5h-1c-0.55 0-1 0.45-1 1v1c0 0.55 0.45 1 1 1h1c0.55 0 1-0.45 1-1v-1c0-0.55-0.45-1-1-1zM16.5 18.5h-1c-0.55 0-1 0.45-1 1v1c0 0.55 0.45 1 1 1h1c0.55 0 1-0.45 1-1v-1c0-0.55-0.45-1-1-1zM20.5 15.5c0-0.55-0.45-1-1-1h-1c-0.55 0-1 0.45-1 1v1c0 0.55 0.45 1 1 1h1c0.55 0 1-0.45 1-1v-1zM31.962 23.719l-1.594-11.144c-0.212-1.475-1.475-2.575-2.969-2.575h-15.4v-4h5c0.55 0 1-0.45 1-1v-4c0-0.55-0.45-1-1-1h-12c-0.55 0-1 0.45-1 1v4c0 0.55 0.45 1 1 1h5v4h-5.4c-1.494 0-2.756 1.1-2.969 2.575l-1.594 11.144c-0.025 0.188-0.037 0.375-0.037 0.569v4.712c0 1.656 1.344 3 3 3h26c1.656 0 3-1.344 3-3v-4.719c0-0.188-0.012-0.375-0.038-0.563zM6 4v-2h10v2h-10zM3.612 12.856c0.069-0.488 0.494-0.856 0.987-0.856h22.794c0.494 0 0.919 0.369 0.988 0.856l1.6 11.144h-27.962l1.594-11.144zM30 29c0 0.55-0.45 1-1 1h-26c-0.55 0-1-0.45-1-1v-3h28v3zM25.5 14.5h-1c-0.55 0-1 0.45-1 1v1c0 0.55 0.45 1 1 1h1c0.55 0 1-0.45 1-1v-1c0-0.55-0.45-1-1-1zM22.5 18.5h-1c-0.55 0-1 0.45-1 1v1c0 0.55 0.45 1 1 1h1c0.55 0 1-0.45 1-1v-1c0-0.55-0.45-1-1-1z"></path>
</svg>
