<!-- Generated by IcoMoon.io -->
<svg version="1.1" xmlns="http://www.w3.org/2000/svg" width="32" height="32" viewBox="0 0 32 32">
<title>cash-register-solid</title>
<path d="M31.944 23.675l-1.669-10c-0.163-0.963-0.994-1.669-1.975-1.669h-15.3v-4h6c0.55 0 1-0.45 1-1v-6.006c0-0.55-0.45-1-1-1h-16c-0.55 0-1 0.45-1 1v6c0 0.55 0.45 1 1 1h6v4h-5.306c-0.975 0-1.813 0.706-1.975 1.669l-1.669 10c-0.037 0.219-0.056 0.438-0.056 0.656v5.675c0 1.106 0.894 2 2 2h28c1.106 0 2-0.894 2-2v-5.669c0.006-0.219-0.012-0.438-0.050-0.656zM17.5 15.5c0-0.55 0.45-1 1-1h1c0.55 0 1 0.45 1 1v1c0 0.55-0.45 1-1 1h-1c-0.55 0-1-0.45-1-1v-1zM15.5 19.5h1c0.55 0 1 0.45 1 1v1c0 0.55-0.45 1-1 1h-1c-0.55 0-1-0.45-1-1v-1c0-0.55 0.45-1 1-1zM13.5 14.5c0.55 0 1 0.45 1 1v1c0 0.55-0.45 1-1 1h-1c-0.55 0-1-0.45-1-1v-1c0-0.55 0.45-1 1-1h1zM5 5v-2h12v2h-12zM7.5 17.5h-1c-0.55 0-1-0.45-1-1v-1c0-0.55 0.45-1 1-1h1c0.55 0 1 0.45 1 1v1c0 0.55-0.45 1-1 1zM8.5 21.5v-1c0-0.55 0.45-1 1-1h1c0.55 0 1 0.45 1 1v1c0 0.55-0.45 1-1 1h-1c-0.55 0-1-0.45-1-1zM22 28.5c0 0.275-0.225 0.5-0.5 0.5h-11c-0.275 0-0.5-0.225-0.5-0.5v-1c0-0.275 0.225-0.5 0.5-0.5h11c0.275 0 0.5 0.225 0.5 0.5v1zM23.5 21.5c0 0.55-0.45 1-1 1h-1c-0.55 0-1-0.45-1-1v-1c0-0.55 0.45-1 1-1h1c0.55 0 1 0.45 1 1v1zM26.5 16.5c0 0.55-0.45 1-1 1h-1c-0.55 0-1-0.45-1-1v-1c0-0.55 0.45-1 1-1h1c0.55 0 1 0.45 1 1v1z"></path>
</svg>
