<!-- Generated by IcoMoon.io -->
<svg version="1.1" xmlns="http://www.w3.org/2000/svg" width="32" height="32" viewBox="0 0 32 32">
<title>cassette-tape-solid</title>
<path d="M29 3.938h-26c-1.657 0-3 1.343-3 3v0 18c0 1.657 1.343 3 3 3v0h2l3-6h16l3 6h2c1.657 0 3-1.343 3-3v0-18c0-1.657-1.343-3-3-3v0zM8 15.938c-1.105 0-2-0.895-2-2s0.895-2 2-2c1.105 0 2 0.895 2 2v0c0 1.105-0.895 2-2 2v0zM19.424 15.938h-6.848c0.268-0.588 0.424-1.276 0.424-2s-0.156-1.412-0.436-2.031l0.013 0.031h6.848c-0.268 0.588-0.424 1.276-0.424 2s0.156 1.412 0.436 2.031l-0.013-0.031zM24 15.938c-1.105 0-2-0.895-2-2s0.895-2 2-2c1.105 0 2 0.895 2 2v0c0 1.105-0.895 2-2 2v0zM9.236 23.938l-2 4h17.528l-2-4z"></path>
</svg>
