<!-- Generated by IcoMoon.io -->
<svg version="1.1" xmlns="http://www.w3.org/2000/svg" width="32" height="32" viewBox="0 0 32 32">
<title>cassette-tape</title>
<path d="M29 4h-26c-1.657 0-3 1.343-3 3v0 18c0 1.657 1.343 3 3 3v0h26c1.657 0 3-1.343 3-3v0-18c0-1.657-1.343-3-3-3v0zM7.736 26l1.5-3h13.528l1.5 3zM30 25c0 0.552-0.448 1-1 1v0h-2.5l-2.5-5h-16l-2.5 5h-2.5c-0.552 0-1-0.448-1-1v0-18c0-0.552 0.448-1 1-1v0h26c0.552 0 1 0.448 1 1v0zM23 10h-14c-2.209 0-4 1.791-4 4s1.791 4 4 4v0h14c2.209 0 4-1.791 4-4s-1.791-4-4-4v0zM9 16c-1.105 0-2-0.895-2-2s0.895-2 2-2c1.105 0 2 0.895 2 2v0c0 1.105-0.895 2-2 2v0zM19.555 16h-7.11c0.349-0.571 0.555-1.261 0.555-2s-0.206-1.429-0.565-2.017l0.010 0.017h7.11c-0.349 0.571-0.555 1.261-0.555 2s0.206 1.429 0.565 2.017l-0.010-0.017zM23 16c-1.105 0-2-0.895-2-2s0.895-2 2-2c1.105 0 2 0.895 2 2v0c0 1.105-0.895 2-2 2v0z"></path>
</svg>
