<!-- Generated by IcoMoon.io -->
<svg version="1.1" xmlns="http://www.w3.org/2000/svg" width="40" height="32" viewBox="0 0 40 32">
<title>cat-space-solid</title>
<path d="M34 2.045v-0.045l-0.025 0.025c-1.671-1.254-3.725-2.025-5.975-2.025s-4.304 0.77-5.975 2.025l-0.025-0.025v0.045c-2.416 1.825-4 4.694-4 7.955 0.004 0.762 0.092 1.502 0.256 2.212l-0.013-0.067c-2.24 0.334-5.737 1.454-8.243 5.227v-5.372c-0.004-3.312-2.688-5.996-6-6h-0c-1.105 0-2 0.895-2 2s0.895 2 2 2v0c1.104 0.001 1.999 0.896 2 2v16c0.002 2.208 1.792 3.998 4 4h11c0 0 0 0 0.001 0 0.552 0 0.999-0.447 0.999-0.999 0-0 0-0 0-0.001v0-1c-0-1.105-0.895-2-2-2h-2l8-6v9c0 0 0 0 0 0.001 0 0.552 0.447 0.999 0.999 0.999 0 0 0 0 0.001 0h2c0 0 0 0 0.001 0 0.552 0 0.999-0.447 0.999-0.999 0-0 0-0 0-0.001v0-11.202c4.597-0.964 7.999-4.984 8-9.798v-0c0-3.261-1.584-6.129-4-7.955zM28 2c1.707 0.001 3.289 0.54 4.583 1.458l-0.025-0.017-2.559 2.559h-4l-2.559-2.559c1.27-0.901 2.851-1.441 4.558-1.441h0zM31.5 10c0 0.552-0.448 1-1 1s-1-0.448-1-1c0-0.552 0.448-1 1-1v0c0 0 0 0 0.001 0 0.552 0 0.999 0.447 0.999 0.999 0 0 0 0 0 0.001v-0zM26.5 10c0 0.552-0.448 1-1 1s-1-0.448-1-1c0-0.552 0.448-1 1-1v0c0 0 0 0 0.001 0 0.552 0 0.999 0.447 0.999 0.999 0 0 0 0 0 0.001v-0zM28 18c-4.416-0.005-7.995-3.584-8-8v-0.001c0-2.011 0.771-3.828 2-5.235v5.235c0 3.314 2.686 6 6 6s6-2.686 6-6v0-5.235c1.229 1.407 2 3.225 2 5.235-0.005 4.416-3.584 7.995-8 8h-0zM10.184 4.298l2.482 1.035 1.035 2.482c0.056 0.11 0.168 0.185 0.298 0.185s0.242-0.074 0.297-0.183l0.001-0.002 1.035-2.482 2.482-1.035c0.11-0.056 0.184-0.168 0.184-0.298s-0.074-0.242-0.182-0.297l-0.002-0.001-2.482-1.035-1.035-2.482c-0.056-0.11-0.168-0.185-0.298-0.185s-0.242 0.074-0.297 0.183l-0.001 0.002-1.035 2.482-2.482 1.035c-0.11 0.056-0.184 0.168-0.184 0.298s0.074 0.242 0.182 0.297l0.002 0.001z"></path>
</svg>
