<!-- Generated by IcoMoon.io -->
<svg version="1.1" xmlns="http://www.w3.org/2000/svg" width="32" height="32" viewBox="0 0 32 32">
<title>cat-solid</title>
<path d="M18.162 12c-1.261 0-6.676 0.124-10.162 5.372v-5.372c0-3.309-2.691-6-6-6-1.104 0-2 0.896-2 2s0.896 2 2 2c1.103 0 2 0.898 2 2v16c0 2.206 1.794 4 4 4h11c0.552 0 1-0.448 1-1v-1c0-1.104-0.896-2-2-2h-2l8-6v9c0 0.552 0.448 1 1 1h2c0.552 0 1-0.448 1-1v-12.884c-0.643 0.167-1.306 0.284-2 0.284-3.863 0-7.095-2.753-7.838-6.4zM28 6h-4l-4-4v8.4c0 3.314 2.686 6 6 6s6-2.686 6-6v-8.4l-4 4zM23.5 11c-0.552 0-1-0.447-1-1s0.448-1 1-1 1 0.447 1 1-0.448 1-1 1zM28.5 11c-0.552 0-1-0.447-1-1s0.448-1 1-1 1 0.447 1 1-0.448 1-1 1z"></path>
</svg>
