<!-- Generated by IcoMoon.io -->
<svg version="1.1" xmlns="http://www.w3.org/2000/svg" width="40" height="32" viewBox="0 0 40 32">
<title>cat-space</title>
<path d="M32 11c0.552 0 1-0.448 1-1s-0.448-1-1-1c-0.552 0-1 0.448-1 1v0c0 0 0 0 0 0.001 0 0.552 0.447 0.999 0.999 0.999 0 0 0 0 0.001 0h-0zM36 2.045v-0.045l-0.029 0.022c-1.67-1.253-3.723-2.022-5.971-2.022s-4.301 0.769-5.971 2.022l-0.029-0.022v0.045c-2.416 1.825-4 4.694-4 7.955 0 0.024 0.007 0.046 0.007 0.070-6.063 0.361-11.236 3.847-13.963 8.858l-0.044 0.089v-8.017c-0.003-2.76-2.24-4.997-5-5h-0c-0.552 0-1 0.448-1 1s0.448 1 1 1v0c1.656 0.002 2.998 1.344 3 3v16c0.003 2.76 2.24 4.997 5 5h13c1.104-0.001 1.999-0.896 2-2v-0c-0.003-2.062-1.564-3.759-3.568-3.977l-0.018-0.002 5.586-2.482v6.461c0.001 1.104 0.896 1.999 2 2h2c1.104-0.001 1.999-0.896 2-2v-10.202c4.597-0.964 7.999-4.984 8-9.798v-0c0-3.261-1.584-6.129-4-7.955zM30 2c1.599 0.003 3.086 0.479 4.329 1.294l-0.030-0.019-2.299 1.724h-4l-2.299-1.724c1.214-0.797 2.701-1.272 4.299-1.276h0.001zM34 6v4c0 2.209-1.791 4-4 4s-4-1.791-4-4v0-4l1.333 1h5.333zM30 30h-2v-8c0-0.552-0.448-1-1-1-0.147 0-0.287 0.032-0.413 0.089l0.006-0.003-7.645 3.398c-0.252-2.475-1.913-4.506-4.159-5.292l-0.044-0.013c-0.044-0.014-0.094-0.022-0.146-0.022-0.234 0-0.43 0.161-0.484 0.379l-0.001 0.003-0.242 0.973c-0.008 0.034-0.013 0.073-0.013 0.114 0 0.224 0.144 0.414 0.345 0.483l0.004 0.001c1.541 0.57 2.791 2.367 2.791 4.010v2.881h3c1.104 0.001 1.999 0.896 2 2v0h-13c-1.684 0-3.008-1.392-3-3.076 0.040-7.97 6.332-14.471 14.211-14.884 0.979 4.577 4.989 7.959 9.789 7.96h0zM30 18c-4.416-0.005-7.995-3.584-8-8v-0.001c0-2.011 0.771-3.828 2-5.235v5.235c0 3.314 2.686 6 6 6s6-2.686 6-6v0-5.235c1.229 1.407 2 3.225 2 5.235-0.005 4.416-3.584 7.995-8 8h-0zM27 10c0 0.552 0.448 1 1 1s1-0.448 1-1c0-0.552-0.448-1-1-1v0c-0 0-0 0-0.001 0-0.552 0-0.999 0.447-0.999 0.999 0 0 0 0 0 0.001v-0zM10.184 4.298l2.482 1.035 1.035 2.482c0.056 0.11 0.168 0.185 0.298 0.185s0.242-0.074 0.297-0.183l0.001-0.002 1.035-2.482 2.482-1.035c0.11-0.056 0.184-0.168 0.184-0.298s-0.074-0.242-0.182-0.297l-0.002-0.001-2.482-1.035-1.035-2.482c-0.056-0.11-0.168-0.185-0.298-0.185s-0.242 0.074-0.297 0.183l-0.001 0.002-1.035 2.482-2.482 1.035c-0.11 0.056-0.184 0.168-0.184 0.298s0.074 0.242 0.182 0.297l0.002 0.001z"></path>
</svg>
