<!-- Generated by IcoMoon.io -->
<svg version="1.1" xmlns="http://www.w3.org/2000/svg" width="36" height="32" viewBox="0 0 36 32">
<title>cat</title>
<path d="M27 8c-0.552 0-1 0.447-1 1s0.448 1 1 1 1-0.447 1-1-0.448-1-1-1zM30 9c0 0.553 0.448 1 1 1s1-0.447 1-1-0.448-1-1-1-1 0.447-1 1zM34.001 0c-0.583 0-1.149 0.255-1.537 0.72l-2.734 3.28h-1.46l-2.734-3.281c-0.37-0.441-0.921-0.719-1.537-0.719v0c-1.101 0-1.999 0.894-1.999 2v8h-1c-6.489 0-12.136 3.658-15 9.017v-8.017c0-2.757-2.243-5-5-5-0.552 0-1 0.447-1 1s0.448 1 1 1c1.654 0 3 1.346 3 3v16c0 2.757 2.242 5 5 5h13c1.104 0 2-0.898 2-2 0-2.066-1.574-3.771-3.586-3.979l5.586-2.482v6.461c0 1.102 0.896 2 2 2h2c1.104 0 2-0.898 2-2v-13.702c2.356-1.128 4-3.516 4-6.298v-8c0-1.106-0.898-2-1.999-2zM30 30h-2v-9.539l-9.051 4.023c-0.249-2.438-1.877-4.514-4.203-5.306-0.271-0.092-0.562 0.084-0.631 0.361l-0.242 0.972c-0.064 0.258 0.088 0.506 0.337 0.598 1.643 0.621 2.791 2.181 2.791 4.009 0 0.002 0 0.003 0 0.005v-0 2.877h3c1.104 0 2 0.898 2 2h-13c-1.654 0-3-1.346-3-3 0-8.271 6.729-15 15-15h1.326c0.867 2.881 3.514 5 6.674 5 0.343 0 0.671-0.053 1-0.101v13.101zM34 10c0 2.761-2.239 5-5 5s-5-2.239-5-5v-8l3.333 4h3.333l3.334-4v8z"></path>
</svg>
