<!-- Generated by IcoMoon.io -->
<svg version="1.1" xmlns="http://www.w3.org/2000/svg" width="28" height="32" viewBox="0 0 28 32">
<title>cauldron-solid</title>
<path d="M28 13.25v-2.5c0-0.414-0.392-0.75-0.875-0.75h-26.25c-0.483 0-0.875 0.336-0.875 0.75v2.5c0 0.414 0.392 0.75 0.875 0.75h1.237c-1.337 2.407-2.112 5.080-2.112 7.6 0 2.442 0.739 4.416 2 5.971v2.929c0 0.828 0.672 1.5 1.5 1.5s1.5-0.672 1.5-1.5v-0.468c2.434 1.331 5.571 1.968 9 1.968s6.566-0.637 9-1.968v0.468c0 0.828 0.672 1.5 1.5 1.5s1.5-0.672 1.5-1.5v-2.929c1.261-1.555 2-3.528 2-5.971 0-2.52-0.774-5.192-2.112-7.6h1.237c0.483 0 0.875-0.336 0.875-0.75zM10 4c1.104 0 2-0.896 2-2s-0.896-2-2-2-2 0.896-2 2 0.896 2 2 2zM17 8c1.657 0 3-1.343 3-3s-1.343-3-3-3-3 1.343-3 3 1.343 3 3 3z"></path>
</svg>
