<!-- Generated by IcoMoon.io -->
<svg version="1.1" xmlns="http://www.w3.org/2000/svg" width="28" height="32" viewBox="0 0 28 32">
<title>cauldron</title>
<path d="M17 8c1.657 0 3-1.343 3-3s-1.343-3-3-3-3 1.343-3 3 1.343 3 3 3zM17 4c0.551 0 1 0.449 1 1s-0.449 1-1 1-1-0.449-1-1 0.449-1 1-1zM28 11.5v-1c0-0.276-0.224-0.5-0.5-0.5h-27c-0.276 0-0.5 0.224-0.5 0.5v1c0 0.276 0.224 0.5 0.5 0.5h2.921c-2.122 2.861-3.421 6.351-3.421 9.6 0 2.442 0.739 4.416 2 5.971v3.429c0 0.552 0.447 1 1 1s1-0.448 1-1v-1.584c2.541 1.752 6.080 2.584 10 2.584s7.459-0.832 10-2.583v1.583c0 0.552 0.448 1 1 1s1-0.448 1-1v-3.429c1.261-1.555 2-3.528 2-5.971 0-3.249-1.299-6.739-3.421-9.6h2.921c0.276 0 0.5-0.224 0.5-0.5zM26 21.6c0 7.581-8.392 8.4-12 8.4s-12-0.819-12-8.4c0-3.266 1.509-6.876 3.978-9.6h16.044c2.469 2.724 3.978 6.334 3.978 9.6zM10 4c1.104 0 2-0.896 2-2s-0.896-2-2-2-2 0.896-2 2 0.896 2 2 2z"></path>
</svg>
