<!-- Generated by IcoMoon.io -->
<svg version="1.1" xmlns="http://www.w3.org/2000/svg" width="36" height="32" viewBox="0 0 36 32">
<title>cctv</title>
<path d="M34.771 15.195l-2.527-1.112c0.371-0.471 0.595-1.074 0.595-1.728 0-1.169-0.715-2.171-1.731-2.593l-0.019-0.007-21.727-9.554c-0.311-0.127-0.671-0.2-1.049-0.2-1.050 0-1.967 0.568-2.461 1.412l-0.007 0.013-5.47 9.573c-0.234 0.403-0.371 0.888-0.371 1.404 0 1.21 0.757 2.243 1.823 2.652l0.019 0.007 10.009 4.144-2.547 6.793h-7.308v-3.5c0-0.276-0.224-0.5-0.5-0.5v0h-1c-0.276 0-0.5 0.224-0.5 0.5v0 9c0 0.276 0.224 0.5 0.5 0.5v0h1c0.276 0 0.5-0.224 0.5-0.5v0-3.5h8c0 0 0.001 0 0.001 0 0.426 0 0.79-0.266 0.934-0.641l0.002-0.007 2.766-7.375 4.474 1.852c0.288 0.108 0.622 0.171 0.97 0.171 0.557 0 1.076-0.161 1.514-0.438l-0.012 0.007 1.115-0.697 8.813 3.875c1.163 0.512 2.313-0.146 2.709-1.053l2.542-5.789c0.111-0.244 0.175-0.529 0.175-0.829 0-0.837-0.501-1.556-1.219-1.876l-0.013-0.005zM19.593 19.87c-0.125 0.083-0.279 0.132-0.444 0.132-0.088 0-0.173-0.014-0.253-0.040l0.006 0.002-16.349-6.77c-0.625-0.228-0.619-0.888-0.438-1.201l5.466-9.573c0.109-0.188 0.5-0.573 1.006-0.375l21.729 9.554c0.311 0.127 0.525 0.427 0.525 0.777 0 0.297-0.155 0.558-0.389 0.707l-0.003 0.002zM31.381 22.913l-7.563-3.326 6.588-4.118 3.589 1.625z"></path>
</svg>
