<!-- Generated by IcoMoon.io -->
<svg version="1.1" xmlns="http://www.w3.org/2000/svg" width="36" height="32" viewBox="0 0 36 32">
<title>cctv-solid</title>
<path d="M32.341 10.536l-23.638-10.393c-0.22-0.090-0.475-0.143-0.743-0.143-0.74 0-1.386 0.402-1.732 0.998l-0.005 0.010-5.959 10.429c-0.167 0.286-0.265 0.629-0.265 0.995 0 0.86 0.543 1.593 1.304 1.876l0.014 0.005 9.786 4.053-2.49 6.634h-4.613v-2c0-0.552-0.448-1-1-1v0h-2c-0.552 0-1 0.448-1 1v0 8c0 0.552 0.448 1 1 1v0h2c0.552 0 1-0.448 1-1v0-2h6c0.001 0 0.001 0 0.002 0 0.852 0 1.58-0.533 1.868-1.284l0.005-0.014 2.928-7.809 4.282 1.774c0.203 0.076 0.438 0.12 0.683 0.12 0.393 0 0.759-0.113 1.068-0.309l-0.008 0.005 11.829-7.394c1.388-0.867 1.203-2.944-0.317-3.553zM35.37 17.111l-2.216-0.974-8.65 5.406 7.474 3.286c0.125 0.056 0.271 0.089 0.424 0.089 0.429 0 0.797-0.256 0.962-0.623l0.003-0.007 2.544-5.789c0.056-0.125 0.089-0.271 0.089-0.424 0-0.428-0.256-0.797-0.623-0.962l-0.007-0.003z"></path>
</svg>
