<!-- Generated by IcoMoon.io -->
<svg version="1.1" xmlns="http://www.w3.org/2000/svg" width="32" height="32" viewBox="0 0 32 32">
<title>certificate</title>
<path d="M30.985 17.018l-1.045-1.023 1.045-1.023c1.878-1.799 1.016-4.971-1.489-5.585l-1.423-0.363 0.404-1.419c0.702-2.5-1.632-4.779-4.091-4.091l-1.417 0.404-0.363-1.424c-0.611-2.492-3.801-3.357-5.588-1.486l-1.019 1.050-1.019-1.049c-1.77-1.853-4.971-1.032-5.588 1.487l-0.363 1.423-1.417-0.404c-2.446-0.687-4.792 1.577-4.091 4.091l0.404 1.419-1.423 0.363c-2.505 0.614-3.367 3.786-1.489 5.585l1.045 1.023-1.045 1.023c-1.877 1.799-1.016 4.971 1.489 5.585l1.423 0.363-0.404 1.419c-0.701 2.513 1.641 4.777 4.091 4.091l1.417-0.404 0.363 1.423c0.621 2.536 3.804 3.351 5.585 1.49l1.021-1.044 1.016 1.039c1.766 1.869 4.972 1.042 5.591-1.484l0.363-1.423 1.417 0.404c2.467 0.693 4.787-1.594 4.091-4.091l-0.404-1.419 1.423-0.363c2.505-0.614 3.367-3.786 1.489-5.585zM29.013 20.663l-3.426 0.874 0.966 3.391c0.273 0.975-0.647 1.896-1.622 1.623l-3.39-0.966-0.874 3.427c-0.237 0.993-1.522 1.321-2.205 0.583l-2.46-2.516-2.46 2.516c-0.691 0.73-1.963 0.432-2.205-0.583l-0.874-3.427-3.39 0.966c-0.975 0.273-1.895-0.647-1.622-1.623l0.966-3.391-3.426-0.874c-0.983-0.235-1.333-1.496-0.583-2.206l2.515-2.461-2.515-2.461c-0.749-0.709-0.4-1.971 0.583-2.206l3.426-0.874-0.966-3.392c-0.273-0.975 0.647-1.896 1.622-1.623l3.39 0.966 0.874-3.427c0.234-0.979 1.515-1.313 2.205-0.583l2.46 2.534 2.46-2.534c0.699-0.739 1.974-0.385 2.205 0.583l0.874 3.427 3.39-0.966c0.975-0.273 1.895 0.647 1.622 1.623l-0.966 3.391 3.426 0.874c0.983 0.235 1.333 1.496 0.583 2.206l-2.515 2.461 2.515 2.461c0.749 0.709 0.4 1.971-0.583 2.206z"></path>
</svg>
