<!-- Generated by IcoMoon.io -->
<svg version="1.1" xmlns="http://www.w3.org/2000/svg" width="32" height="32" viewBox="0 0 32 32">
<title>certificate-solid</title>
<path d="M28.664 15.995l2.874-2.813c0.857-0.811 0.457-2.252-0.666-2.521l-3.916-0.999 1.104-3.876c0.312-1.115-0.739-2.166-1.854-1.854l-3.875 1.104-0.999-3.917c-0.264-1.106-1.722-1.511-2.52-0.667l-2.812 2.896-2.812-2.896c-0.789-0.834-2.253-0.452-2.52 0.667l-0.999 3.917-3.875-1.104c-1.115-0.312-2.166 0.74-1.854 1.854l1.104 3.876-3.916 0.999c-1.124 0.269-1.523 1.71-0.667 2.521l2.874 2.813-2.874 2.813c-0.857 0.811-0.457 2.252 0.667 2.521l3.916 0.999-1.104 3.876c-0.312 1.115 0.739 2.166 1.854 1.854l3.875-1.104 0.999 3.917c0.277 1.161 1.731 1.501 2.52 0.667l2.812-2.875 2.812 2.875c0.781 0.843 2.249 0.468 2.52-0.667l0.999-3.917 3.875 1.104c1.115 0.312 2.166-0.74 1.854-1.854l-1.104-3.876 3.916-0.999c1.124-0.269 1.523-1.71 0.666-2.521l-2.874-2.813z"></path>
</svg>
