<!-- Generated by IcoMoon.io -->
<svg version="1.1" xmlns="http://www.w3.org/2000/svg" width="28" height="32" viewBox="0 0 28 32">
<title>chair</title>
<path d="M27.887 21.344l-1.387-4c-0.281-0.806-1.038-1.344-1.887-1.344h-0.613v-8c0-4.419-3.581-8-8-8h-4c-4.419 0-8 3.581-8 8v8h-0.612c-0.85 0-1.613 0.538-1.887 1.344l-1.387 4c-0.45 1.3 0.512 2.656 1.887 2.656v7.5c0 0.275 0.225 0.5 0.5 0.5h1c0.275 0 0.5-0.225 0.5-0.5v-7.5h20v7.5c0 0.275 0.225 0.5 0.5 0.5h1c0.275 0 0.5-0.225 0.5-0.5v-7.5c1.375 0 2.337-1.356 1.887-2.656zM18 2.369c2.325 0.825 4 3.025 4 5.631v8h-4zM12 2h4v14h-4zM6 8c0-2.606 1.675-4.8 4-5.631v13.631h-4zM2 22l1.388-4h21.225l1.387 4z"></path>
</svg>
