<!-- Generated by IcoMoon.io -->
<svg version="1.1" xmlns="http://www.w3.org/2000/svg" width="28" height="32" viewBox="0 0 28 32">
<title>chair-solid</title>
<path d="M7 8c0-1.844 1.012-3.438 2.5-4.306v12.306h3v-13h3v13h3v-12.306c1.488 0.869 2.5 2.463 2.5 4.306v8h3v-8c0-4.419-3.581-8-8-8h-4c-4.419 0-8 3.581-8 8v8h3zM27.894 21.369l-0.669-2c-0.275-0.819-1.038-1.369-1.9-1.369h-22.656c-0.863 0-1.625 0.55-1.9 1.369l-0.669 2c-0.425 1.294 0.537 2.631 1.9 2.631v7c0 0.55 0.45 1 1 1h2c0.55 0 1-0.45 1-1v-7h16v7c0 0.55 0.45 1 1 1h2c0.55 0 1-0.45 1-1v-7c1.363 0 2.325-1.337 1.894-2.631z"></path>
</svg>
