<!-- Generated by IcoMoon.io -->
<svg version="1.1" xmlns="http://www.w3.org/2000/svg" width="28" height="32" viewBox="0 0 28 32">
<title>chair-office-solid</title>
<path d="M4 14v-4c0-1.104-0.896-2-2-2s-2 0.896-2 2v4c0 1.104 0.896 2 2 2s2-0.896 2-2zM26 8c-1.104 0-2 0.896-2 2v4c0 1.104 0.896 2 2 2s2-0.896 2-2v-4c0-1.104-0.896-2-2-2zM22 4c0-2.209-1.791-4-4-4h-8c-2.209 0-4 1.791-4 4v12h16v-12zM25.229 19.367c-0.273-0.801-1.019-1.367-1.897-1.367-0 0-0 0-0 0h-18.664c-0.861 0-1.625 0.551-1.897 1.367l-0.667 2c-0.431 1.295 0.532 2.633 1.898 2.633h7.998v4.21c-1.767 0.376-3.187 1.231-3.866 2.326-0.401 0.646 0.151 1.464 0.939 1.464h9.854c0.788 0 1.34-0.818 0.939-1.464-0.679-1.095-2.099-1.95-3.866-2.326v-4.21h7.998c1.365 0 2.329-1.337 1.898-2.633l-0.666-2z"></path>
</svg>
