<!-- Generated by IcoMoon.io -->
<svg version="1.1" xmlns="http://www.w3.org/2000/svg" width="24" height="32" viewBox="0 0 24 32">
<title>chair-office</title>
<path d="M2 15v-6c0-0.553-0.448-1-1-1s-1 0.447-1 1v6c0 0.553 0.448 1 1 1s1-0.447 1-1zM21.656 17.939c-0.399-0.664-0.984-1.167-1.656-1.501v-12.438c0-2.209-1.791-4-4-4h-8c-2.209 0-4 1.791-4 4v12.438c-0.672 0.334-1.256 0.837-1.656 1.501l-0.911 1.515c-1.202 1.999 0.238 4.546 2.571 4.546h6.996v2.076c-2.226 0.338-4.063 1.784-4.866 3.727-0.401 0.969 0.151 2.196 0.939 2.196h9.854c0.788 0 1.34-1.227 0.939-2.196-0.803-1.942-2.64-3.389-4.866-3.727v-2.076h6.996c2.333 0 3.773-2.546 2.571-4.546l-0.911-1.515zM6 4c0-1.103 0.897-2 2-2h8c1.102 0 2 0.897 2 2v12h-12v-12zM15.725 30h-7.45c0.761-1.217 2.185-2 3.725-2s2.964 0.783 3.725 2zM20.866 21.492c-0.086 0.152-0.344 0.508-0.871 0.508h-15.991c-0.526 0-0.784-0.355-0.871-0.508s-0.258-0.556 0.013-1.008l0.911-1.515c0.361-0.598 1.017-0.97 1.715-0.97h12.455c0.698 0 1.354 0.372 1.714 0.97l0.911 1.515c0.271 0.451 0.099 0.855 0.013 1.008zM23 8c-0.552 0-1 0.447-1 1v6c0 0.553 0.448 1 1 1s1-0.447 1-1v-6c0-0.553-0.448-1-1-1z"></path>
</svg>
