<!-- Generated by IcoMoon.io -->
<svg version="1.1" xmlns="http://www.w3.org/2000/svg" width="40" height="32" viewBox="0 0 40 32">
<title>chalkboard-teacher-solid</title>
<path d="M13 22c-0.149 0-0.299 0.022-0.441 0.068-0.81 0.263-1.662 0.432-2.559 0.432s-1.749-0.169-2.559-0.432c-0.143-0.046-0.291-0.068-0.441-0.068-3.879 0-7.021 3.155-7 7.039 0.009 1.641 1.358 2.961 3 2.961h14c1.642 0 2.991-1.32 3-2.961 0.021-3.884-3.121-7.039-7-7.039zM10 20c3.314 0 6-2.686 6-6s-2.686-6-6-6-6 2.686-6 6 2.686 6 6 6zM37 0h-24c-1.654 0-3 1.391-3 3.099v2.901c1.464 0 2.819 0.424 4 1.112v-3.112h22v18h-4v-4h-8v4h-4.765c1.194 1.043 2.070 2.421 2.481 4h15.284c1.654 0 3-1.391 3-3.099v-19.801c0-1.709-1.346-3.099-3-3.099z"></path>
</svg>
