<!-- Generated by IcoMoon.io -->
<svg version="1.1" xmlns="http://www.w3.org/2000/svg" width="32" height="32" viewBox="0 0 32 32">
<title>chart-line</title>
<path d="M31.5 26h-29.5v-21.5c0-0.276-0.224-0.5-0.5-0.5h-1c-0.276 0-0.5 0.224-0.5 0.5v22.5c0 0.552 0.448 1 1 1h30.5c0.276 0 0.5-0.224 0.5-0.5v-1c0-0.276-0.224-0.5-0.5-0.5zM6.146 16.439c-0.195 0.195-0.195 0.512 0 0.707l0.707 0.707c0.195 0.195 0.512 0.195 0.707 0l4.543-4.501 5.293 5.293c0.391 0.391 1.024 0.391 1.414 0l5.846-5.846 2.753 2.752c0.309 0.309 0.689 0.447 1.063 0.447 0.78 0 1.529-0.606 1.529-1.521v-7.467c0-0.559-0.453-1.012-1.012-1.012h-7.467c-1.352 0-2.029 1.635-1.073 2.591l2.794 2.794-5.139 5.139-5.289-5.289c-0.389-0.389-1.020-0.391-1.411-0.003l-5.258 5.207zM22.685 8h5.315v5.315l-5.315-5.315z"></path>
</svg>
