<!-- Generated by IcoMoon.io -->
<svg version="1.1" xmlns="http://www.w3.org/2000/svg" width="36" height="32" viewBox="0 0 36 32">
<title>charging-station-solid</title>
<path d="M21 28h-20c-0.552 0-1 0.448-1 1v2c0 0.552 0.448 1 1 1h20c0.552 0 1-0.448 1-1v-2c0-0.552-0.448-1-1-1zM34 8v-3c0-0.553-0.447-1-1-1s-1 0.447-1 1v3h-2v-3c0-0.553-0.448-1-1-1s-1 0.447-1 1v3h-1c-0.552 0-1 0.447-1 1v2c0 2.235 1.476 4.106 3.5 4.746v7.406c0 0.872-0.594 1.683-1.454 1.824-1.095 0.181-2.046-0.664-2.046-1.726v-1.75c0-3.038-2.462-5.5-5.5-5.5h-0.5v-12c0-2.209-1.791-4-4-4h-10c-2.209 0-4 1.791-4 4v22h18v-7h0.5c1.381 0 2.5 1.119 2.5 2.5v1.538c0 2.479 1.808 4.697 4.276 4.938 2.831 0.277 5.224-1.951 5.224-4.726v-7.504c2.024-0.64 3.5-2.511 3.5-4.746v-2c0-0.553-0.447-1-1-1h-1zM16.256 10.985l-5.856 8.688c-0.137 0.208-0.388 0.328-0.649 0.328-0.479 0-0.842-0.392-0.729-0.808l1.439-5.192h-3.709c-0.453 0-0.803-0.349-0.743-0.743l1-6.688c0.049-0.326 0.367-0.569 0.743-0.569h4.25c0.492 0 0.851 0.409 0.725 0.826l-0.725 3.174h3.606c0.578 0 0.938 0.549 0.649 0.985z"></path>
</svg>
