<!-- Generated by IcoMoon.io -->
<svg version="1.1" xmlns="http://www.w3.org/2000/svg" width="32" height="32" viewBox="0 0 32 32">
<title>chart-area-solid</title>
<path d="M31.25 24c0.413 0 0.75 0.337 0.75 0.75v2.5c0 0.413-0.337 0.75-0.75 0.75h-30.5c-0.412 0-0.75-0.337-0.75-0.75v-22.5c0-0.412 0.338-0.75 0.75-0.75h2.5c0.413 0 0.75 0.338 0.75 0.75v19.25h27.25zM23.294 9.969l-5.294 3.531-5.331-7.106c-0.319-0.425-0.969-0.394-1.244 0.063l-5.425 9.044v6.5h24l-5.619-11.738c-0.2-0.406-0.712-0.544-1.087-0.294z"></path>
</svg>
