<!-- Generated by IcoMoon.io -->
<svg version="1.1" xmlns="http://www.w3.org/2000/svg" width="32" height="32" viewBox="0 0 32 32">
<title>chart-line-solid</title>
<path d="M31 24h-27v-19c0-0.553-0.447-1-1-1h-2c-0.552 0-1 0.447-1 1v21c0 1.104 0.896 2 2 2h29c0.552 0 1-0.448 1-1v-2c0-0.552-0.448-1-1-1zM29 6h-7.379c-1.336 0-2.006 1.616-1.061 2.561l2.025 2.025-4.586 4.586-4.586-4.586c-0.781-0.781-2.047-0.781-2.828 0l-4.293 4.293c-0.391 0.391-0.391 1.024 0 1.414l1.414 1.414c0.391 0.391 1.024 0.391 1.414 0l2.879-2.879 4.586 4.586c0.781 0.781 2.047 0.781 2.828 0l6-6 2.025 2.025c0.945 0.945 2.561 0.276 2.561-1.061v-7.378c0.001-0.553-0.447-1-0.999-1z"></path>
</svg>
