<!-- Generated by IcoMoon.io -->
<svg version="1.1" xmlns="http://www.w3.org/2000/svg" width="32" height="32" viewBox="0 0 32 32">
<title>chart-line-down-solid</title>
<path d="M31 24h-27v-19c0-0.553-0.447-1-1-1h-2c-0.552 0-1 0.447-1 1v21c0 1.104 0.896 2 2 2h29c0.552 0 1-0.448 1-1v-2c0-0.552-0.448-1-1-1zM30 19v-7.379c0-1.336-1.616-2.006-2.561-1.061l-2.025 2.025-6-6c-0.781-0.781-2.047-0.781-2.828 0l-4.586 4.586-2.879-2.879c-0.391-0.391-1.024-0.391-1.414 0l-1.414 1.414c-0.391 0.391-0.391 1.024 0 1.414l4.293 4.293c0.781 0.781 2.047 0.781 2.828 0l4.586-4.586 4.586 4.586-2.025 2.025c-0.945 0.945-0.276 2.561 1.061 2.561h7.378c0.552 0 1-0.448 1-1z"></path>
</svg>
