<!-- Generated by IcoMoon.io -->
<svg version="1.1" xmlns="http://www.w3.org/2000/svg" width="34" height="32" viewBox="0 0 34 32">
<title>chart-pie</title>
<path d="M32.987 18h-14.831l9.877 9.877c0.186 0.185 0.443 0.3 0.726 0.301h0c0.239 0 0.476-0.084 0.661-0.258 2.419-2.279 4.082-5.351 4.571-8.804 0.084-0.591-0.407-1.116-1.004-1.116zM28.742 25.758l-5.758-5.758h8.805c-0.508 2.135-1.56 4.125-3.047 5.758zM14 18v-14.831c0-0.552-0.449-1.013-0.984-1.013-0.043 0-0.088 0.003-0.132 0.009-7.447 1.053-13.141 7.559-12.876 15.357 0.271 7.947 7.065 14.477 14.999 14.477 0.061 0 0.121-0.001 0.182-0.001 3.15-0.039 6.061-1.054 8.454-2.752 0.494-0.35 0.526-1.077 0.098-1.505l-9.742-9.742zM15.164 29.999l-0.157 0.001c-6.815 0-12.769-5.745-13-12.545-0.212-6.258 4.013-11.689 9.992-13.091v14.464l9.451 9.451c-1.91 1.101-4.060 1.692-6.286 1.72zM31.997 13.95c-0.515-7.466-6.481-13.432-13.948-13.947-0.022-0.002-0.044-0.003-0.065-0.003-0.541 0-0.985 0.466-0.985 1.014v13.986h13.986c0.571 0 1.051-0.48 1.012-1.050zM19 13v-10.881c5.578 0.863 10.017 5.303 10.881 10.881h-10.881z"></path>
</svg>
