<!-- Generated by IcoMoon.io -->
<svg version="1.1" xmlns="http://www.w3.org/2000/svg" width="32" height="32" viewBox="0 0 32 32">
<title>chart-pie-alt</title>
<path d="M28.831 18h-14.831v-14.831c0-0.552-0.449-1.013-0.984-1.013-0.043 0-0.088 0.003-0.132 0.009-7.442 1.051-13.132 7.549-12.876 15.339 0.254 7.752 6.736 14.233 14.488 14.488 0.168 0.006 0.337 0.008 0.504 0.008 7.565 0 13.806-5.604 14.834-12.885 0.083-0.591-0.407-1.115-1.004-1.115zM15 30c-0.146 0-0.293-0.003-0.439-0.008-6.702-0.22-12.334-5.852-12.554-12.554-0.204-6.249 4.021-11.674 9.993-13.074v15.636h15.634c-1.367 5.777-6.604 10-12.634 10zM18.050 0.003c-0.022-0.002-0.044-0.003-0.065-0.003-0.541 0-0.985 0.465-0.985 1.014v13.986h13.986c0.571 0 1.051-0.481 1.012-1.050-0.516-7.466-6.482-13.432-13.948-13.947zM19 13v-10.881c5.578 0.863 10.017 5.303 10.881 10.881h-10.881z"></path>
</svg>
