<!-- Generated by IcoMoon.io -->
<svg version="1.1" xmlns="http://www.w3.org/2000/svg" width="40" height="32" viewBox="0 0 40 32">
<title>chart-network</title>
<path d="M32.1 12.675l-1.2-1.6-3 2.25 1.2 1.6 3-2.25zM36 12c0.831 0 1.6-0.25 2.237-0.681 0.425-0.287 0.794-0.656 1.081-1.081 0.431-0.637 0.681-1.406 0.681-2.237s-0.25-1.6-0.681-2.237c-0.144-0.213-0.306-0.412-0.487-0.594s-0.381-0.344-0.594-0.487c-0.638-0.431-1.406-0.681-2.237-0.681s-1.6 0.25-2.237 0.681c-0.425 0.287-0.794 0.656-1.081 1.081-0.431 0.638-0.681 1.406-0.681 2.237 0 2.206 1.794 4 4 4zM36 6c1.1 0 2 0.9 2 2s-0.9 2-2 2-2-0.9-2-2 0.9-2 2-2zM6.237 15.681c-0.638-0.431-1.406-0.681-2.237-0.681s-1.6 0.25-2.237 0.681c-0.425 0.287-0.794 0.656-1.081 1.081-0.431 0.637-0.681 1.406-0.681 2.238 0 2.206 1.794 4 4 4s4-1.794 4-4c0-0.831-0.25-1.6-0.681-2.238-0.287-0.425-0.656-0.794-1.081-1.081zM4 21c-1.1 0-2-0.9-2-2s0.9-2 2-2 2 0.9 2 2-0.9 2-2 2zM9.5 20h3v-2h-3v2zM38.831 25.169c-0.181-0.181-0.381-0.344-0.594-0.488-0.638-0.431-1.406-0.681-2.237-0.681s-1.6 0.25-2.237 0.681c-0.206 0.137-0.394 0.294-0.569 0.469l-5.738-3.444c0.35-0.831 0.544-1.75 0.544-2.706 0-3.869-3.131-7-7-7-0.706 0-1.369 0.137-2.012 0.325l-2.456-5.256c0.894-0.731 1.469-1.825 1.469-3.069 0-0.831-0.25-1.6-0.681-2.237-0.288-0.425-0.656-0.794-1.081-1.081-0.637-0.431-1.406-0.681-2.238-0.681s-1.6 0.25-2.238 0.681c-0.425 0.287-0.794 0.656-1.081 1.081-0.431 0.637-0.681 1.406-0.681 2.237 0 2.206 1.794 4 4 4 0.25 0 0.494-0.031 0.731-0.075l2.437 5.225c-1.906 1.25-3.169 3.4-3.169 5.85 0 3.869 3.131 7 7 7 2.188 0 4.113-1.025 5.4-2.594l5.775 3.462c-0.106 0.363-0.169 0.738-0.169 1.131 0 2.206 1.794 4 4 4 0.831 0 1.6-0.25 2.237-0.681 0.425-0.288 0.794-0.656 1.081-1.081 0.425-0.637 0.675-1.406 0.675-2.238s-0.25-1.6-0.681-2.238c-0.144-0.212-0.313-0.413-0.487-0.594zM14 6c-1.1 0-2-0.9-2-2s0.9-2 2-2 2 0.9 2 2-0.9 2-2 2zM21 24c-2.756 0-5-2.244-5-5s2.244-5 5-5 5 2.244 5 5-2.244 5-5 5zM36 30c-1.1 0-2-0.9-2-2s0.9-2 2-2 2 0.9 2 2-0.9 2-2 2z"></path>
</svg>
