<!-- Generated by IcoMoon.io -->
<svg version="1.1" xmlns="http://www.w3.org/2000/svg" width="32" height="32" viewBox="0 0 32 32">
<title>chart-scatter</title>
<path d="M31.5 26h-29.5v-21.5c0-0.276-0.224-0.5-0.5-0.5v0h-1c-0.276 0-0.5 0.224-0.5 0.5v0 22.5c0 0.552 0.448 1 1 1v0h30.5c0.276 0 0.5-0.224 0.5-0.5v0-1c0-0.276-0.224-0.5-0.5-0.5v0zM10 19.5c0.828 0 1.5-0.672 1.5-1.5s-0.672-1.5-1.5-1.5c-0.828 0-1.5 0.672-1.5 1.5v0c0 0.828 0.672 1.5 1.5 1.5v0zM26 9.5c0.828 0 1.5-0.672 1.5-1.5s-0.672-1.5-1.5-1.5c-0.828 0-1.5 0.672-1.5 1.5v0c0 0.828 0.672 1.5 1.5 1.5v0zM12 9.5c0.828 0 1.5-0.672 1.5-1.5s-0.672-1.5-1.5-1.5c-0.828 0-1.5 0.672-1.5 1.5v0c0 0.828 0.672 1.5 1.5 1.5v0zM24 19.5c0.828 0 1.5-0.672 1.5-1.5s-0.672-1.5-1.5-1.5c-0.828 0-1.5 0.672-1.5 1.5v0c0 0.828 0.672 1.5 1.5 1.5v0zM18 15.5c0.828 0 1.5-0.672 1.5-1.5s-0.672-1.5-1.5-1.5c-0.828 0-1.5 0.672-1.5 1.5v0c0 0.828 0.672 1.5 1.5 1.5v0z"></path>
</svg>
