<!-- Generated by IcoMoon.io -->
<svg version="1.1" xmlns="http://www.w3.org/2000/svg" width="32" height="32" viewBox="0 0 32 32">
<title>chart-line-down</title>
<path d="M31.5 26h-29.5v-21.5c0-0.276-0.224-0.5-0.5-0.5h-1c-0.276 0-0.5 0.224-0.5 0.5v22.5c0 0.552 0.448 1 1 1h30.5c0.276 0 0.5-0.224 0.5-0.5v-1c0-0.276-0.224-0.5-0.5-0.5zM11.403 14.768c0.391 0.387 1.022 0.386 1.411-0.003l5.289-5.289 5.139 5.139-2.794 2.794c-0.956 0.956-0.279 2.591 1.073 2.591h7.467c0.559 0 1.012-0.453 1.012-1.012v-7.467c0-0.915-0.749-1.521-1.529-1.521-0.373 0-0.753 0.138-1.063 0.447l-2.752 2.752-5.846-5.846c-0.391-0.391-1.024-0.391-1.414 0l-5.293 5.293-4.543-4.501c-0.195-0.195-0.512-0.195-0.707 0l-0.707 0.707c-0.195 0.195-0.195 0.512 0 0.707l5.257 5.207zM28 12.685v5.315h-5.315l5.315-5.315z"></path>
</svg>
