<!-- Generated by IcoMoon.io -->
<svg version="1.1" xmlns="http://www.w3.org/2000/svg" width="32" height="32" viewBox="0 0 32 32">
<title>chart-area</title>
<path d="M31.25 26c0.413 0 0.75 0.337 0.75 0.75v0.5c0 0.413-0.337 0.75-0.75 0.75h-30.5c-0.412 0-0.75-0.337-0.75-0.75v-22.5c0-0.412 0.338-0.75 0.75-0.75h0.5c0.413 0 0.75 0.338 0.75 0.75v21.25h29.25zM23.25 10.125l-5.25 3.375-5.406-5.281c-0.319-0.319-0.838-0.287-1.119 0.063l-7.475 9.719v6h26l-5.644-13.544c-0.188-0.431-0.719-0.588-1.106-0.331zM6 18.7l6.169-8.206 5.581 5.581 5.363-3.575 3.856 9.5h-20.969v-3.3z"></path>
</svg>
