<!-- Generated by IcoMoon.io -->
<svg version="1.1" xmlns="http://www.w3.org/2000/svg" width="40" height="32" viewBox="0 0 40 32">
<title>chart-network-solid</title>
<path d="M36 12c2.206 0 4-1.794 4-4s-1.794-4-4-4-4 1.794-4 4 1.794 4 4 4zM4 15c-2.206 0-4 1.794-4 4s1.794 4 4 4 4-1.794 4-4-1.794-4-4-4zM32.1 12.675l-1.2-1.6-3 2.25 1.2 1.6 3-2.25zM36 24c-0.9 0-1.725 0.313-2.394 0.813l-6-3.6c0.238-0.7 0.394-1.438 0.394-2.219 0-3.869-3.131-7-7-7-0.525 0-1.038 0.069-1.525 0.181l-2.55-5.463c0.663-0.713 1.075-1.662 1.075-2.712 0-2.206-1.794-4-4-4s-4 1.794-4 4 1.794 4 4 4c0.069 0 0.131-0.019 0.2-0.019l2.563 5.487c-1.669 1.275-2.762 3.269-2.762 5.531 0 3.869 3.131 7 7 7 2.006 0 3.8-0.856 5.075-2.206l5.987 3.594c-0.031 0.2-0.063 0.406-0.063 0.613 0 2.206 1.794 4 4 4s4-1.794 4-4-1.794-4-4-4zM21 22c-1.656 0-3-1.344-3-3s1.344-3 3-3 3 1.344 3 3-1.344 3-3 3zM9.5 20h3v-2h-3v2z"></path>
</svg>
