<!-- Generated by IcoMoon.io -->
<svg version="1.1" xmlns="http://www.w3.org/2000/svg" width="34" height="32" viewBox="0 0 34 32">
<title>chart-pie-solid</title>
<path d="M32.987 18h-14.831l9.877 9.877c0.378 0.378 0.999 0.408 1.387 0.043 2.419-2.279 4.082-5.351 4.571-8.804 0.084-0.591-0.407-1.116-1.004-1.116zM31.997 13.95c-0.515-7.466-6.481-13.432-13.948-13.947-0.57-0.039-1.050 0.441-1.050 1.012v13.985h13.986c0.571 0 1.051-0.48 1.012-1.050zM14 18v-14.831c0-0.597-0.524-1.087-1.115-1.004-7.448 1.053-13.141 7.559-12.876 15.357 0.273 8.009 7.168 14.576 15.181 14.476 3.15-0.039 6.061-1.054 8.454-2.752 0.494-0.35 0.526-1.077 0.098-1.505l-9.741-9.742z"></path>
</svg>
