<!-- Generated by IcoMoon.io -->
<svg version="1.1" xmlns="http://www.w3.org/2000/svg" width="36" height="32" viewBox="0 0 36 32">
<title>charging-station</title>
<path d="M35 8h-1v-3c0-0.553-0.447-1-1-1s-1 0.447-1 1v3h-2v-3c0-0.553-0.448-1-1-1s-1 0.447-1 1v3h-1c-0.552 0-1 0.447-1 1v3c0 2.419 1.718 4.436 4 4.899v7.101c0 1.102-0.896 2-2 2s-2-0.898-2-2v-3c0-2.757-2.242-5-5-5h-1v-12c0-2.209-1.791-4-4-4h-10c-2.209 0-4 1.791-4 4v26h-1.5c-0.276 0-0.5 0.224-0.5 0.5v1c0 0.276 0.224 0.5 0.5 0.5h21c0.276 0 0.5-0.224 0.5-0.5v-1c0-0.276-0.224-0.5-0.5-0.5h-1.5v-12h1c1.654 0 3 1.346 3 3v3c0 2.206 1.795 4 4 4s4-1.794 4-4v-7.101c2.282-0.463 4-2.481 4-4.899v-3c0-0.553-0.447-1-1-1zM18 30h-14v-26c0-1.103 0.897-2 2-2h10c1.102 0 2 0.897 2 2v26zM34 12c0 1.654-1.346 3-3 3s-3-1.346-3-3v-2h6v2zM15 11h-1.057l0.992-2.649c0.246-0.656-0.24-1.351-0.936-1.351h-5c-0.408 0-0.777 0.249-0.928 0.629l-2 5c-0.264 0.658 0.223 1.371 0.928 1.371h1.219l-1.189 4.758c-0.243 0.969 0.951 1.672 1.678 0.949l7-7c0.628-0.629 0.183-1.707-0.707-1.707zM9.846 15.74l0.625-2.498c0.158-0.636-0.324-1.242-0.971-1.242h-1.024l1.201-3h2.879l-0.992 2.649c-0.205 0.547 0.091 1.351 1.021 1.351l-2.739 2.74z"></path>
</svg>
