<!-- Generated by IcoMoon.io -->
<svg version="1.1" xmlns="http://www.w3.org/2000/svg" width="28" height="32" viewBox="0 0 28 32">
<title>check-square-solid</title>
<path d="M25 30h-22c-1.657 0-3-1.343-3-3v-22c0-1.657 1.343-3 3-3h22c1.657 0 3 1.343 3 3v22c0 1.657-1.343 3-3 3zM12.207 23.871l11.5-11.5c0.39-0.39 0.39-1.024 0-1.414l-1.414-1.414c-0.39-0.39-1.024-0.391-1.414 0l-9.379 9.379-4.379-4.379c-0.391-0.39-1.024-0.39-1.414 0l-1.414 1.414c-0.39 0.391-0.39 1.024 0 1.414l6.5 6.5c0.391 0.391 1.024 0.391 1.414 0z"></path>
</svg>
