<!-- Generated by IcoMoon.io -->
<svg version="1.1" xmlns="http://www.w3.org/2000/svg" width="28" height="32" viewBox="0 0 28 32">
<title>check-square</title>
<path d="M25 2h-22c-1.657 0-3 1.343-3 3v22c0 1.657 1.343 3 3 3h22c1.657 0 3-1.343 3-3v-22c0-1.657-1.343-3-3-3zM25 4c0.551 0 1 0.449 1 1v22c0 0.551-0.449 1-1 1h-22c-0.551 0-1-0.449-1-1v-22c0-0.551 0.449-1 1-1h22zM22.856 10.143l-0.528-0.533c-0.292-0.294-0.767-0.296-1.061-0.004l-10.215 10.133-4.311-4.346c-0.292-0.294-0.767-0.296-1.061-0.004l-0.532 0.528c-0.294 0.292-0.296 0.767-0.004 1.061l5.367 5.411c0.292 0.294 0.767 0.296 1.061 0.004l11.28-11.19c0.294-0.292 0.296-0.767 0.004-1.061z"></path>
</svg>
