<!-- Generated by IcoMoon.io -->
<svg version="1.1" xmlns="http://www.w3.org/2000/svg" width="28" height="32" viewBox="0 0 28 32">
<title>check-double</title>
<path d="M27.81 9.938l-0.76-0.688c-0.127-0.167-0.295-0.25-0.507-0.25s-0.38 0.083-0.507 0.25l-17.801 17.5-6.272-6.188c-0.127-0.167-0.295-0.25-0.507-0.25s-0.38 0.083-0.507 0.25l-0.76 0.688c-0.127 0.167-0.19 0.354-0.19 0.563s0.063 0.375 0.19 0.5l7.539 7.438c0.168 0.167 0.348 0.25 0.539 0.25s0.37-0.083 0.539-0.25l19.004-18.75c0.127-0.125 0.19-0.292 0.19-0.5s-0.064-0.396-0.191-0.563zM7.948 17.752c0.166 0.166 0.343 0.248 0.529 0.248s0.364-0.082 0.529-0.248l13.806-13.764c0.124-0.125 0.187-0.291 0.187-0.498s-0.063-0.393-0.187-0.559l-0.747-0.683c-0.124-0.166-0.29-0.248-0.498-0.248s-0.374 0.083-0.498 0.248l-12.623 12.523-4.516-4.502c-0.124-0.166-0.29-0.248-0.498-0.248s-0.374 0.082-0.498 0.248l-0.748 0.683c-0.124 0.166-0.187 0.352-0.187 0.559s0.063 0.373 0.187 0.497l5.761 5.744z"></path>
</svg>
