<!-- Generated by IcoMoon.io -->
<svg version="1.1" xmlns="http://www.w3.org/2000/svg" width="32" height="32" viewBox="0 0 32 32">
<title>check-circle</title>
<path d="M16 0.5c-8.56 0-15.5 6.94-15.5 15.5s6.94 15.5 15.5 15.5 15.5-6.94 15.5-15.5-6.94-15.5-15.5-15.5zM16 29.5c-7.416 0-13.5-6.003-13.5-13.5 0-7.416 6.003-13.5 13.5-13.5 7.416 0 13.5 6.003 13.5 13.5 0 7.416-6.003 13.5-13.5 13.5zM24.852 12.315l-11.28 11.19c-0.294 0.292-0.769 0.29-1.061-0.004l-5.367-5.411c-0.292-0.294-0.29-0.769 0.004-1.061l0.532-0.528c0.294-0.292 0.769-0.29 1.061 0.004l4.311 4.346 10.215-10.133c0.294-0.292 0.769-0.29 1.061 0.004l0.528 0.533c0.292 0.294 0.29 0.769-0.004 1.061z"></path>
</svg>
