<!-- Generated by IcoMoon.io -->
<svg version="1.1" xmlns="http://www.w3.org/2000/svg" width="32" height="32" viewBox="0 0 32 32">
<title>check-double-solid</title>
<path d="M31.563 10.925l-2.475-2.475c-0.587-0.588-1.538-0.588-2.119 0l-14.969 14.969-6.963-6.969c-0.588-0.588-1.538-0.588-2.119 0l-2.481 2.481c-0.588 0.587-0.588 1.538 0 2.125l10.5 10.506c0.588 0.587 1.537 0.587 2.119 0l18.5-18.512c0.587-0.594 0.587-1.544 0.006-2.125zM11.294 17.55c0.387 0.394 1.025 0.394 1.412 0l13-13.012c0.387-0.394 0.387-1.025 0-1.413l-2.825-2.831c-0.387-0.394-1.025-0.394-1.413 0l-9.469 9.469-3.463-3.469c-0.387-0.394-1.025-0.394-1.412 0l-2.831 2.831c-0.388 0.394-0.388 1.025 0 1.412l7 7.013z"></path>
</svg>
