<!-- Generated by IcoMoon.io -->
<svg version="1.1" xmlns="http://www.w3.org/2000/svg" width="32" height="32" viewBox="0 0 32 32">
<title>cheeseburger-solid</title>
<path d="M29 16h-3l-6 4-6-4h-11c-1.657 0-3 1.343-3 3s1.343 3 3 3v0h26c1.657 0 3-1.343 3-3s-1.343-3-3-3v0zM3.663 14h24.669c2.163 0 3.413-2.744 2.175-4.744-2.506-4.056-8.038-7.25-14.506-7.256-6.469 0.006-12 3.2-14.512 7.256-1.238 2 0.019 4.744 2.175 4.744zM24 7c0.552 0 1 0.448 1 1s-0.448 1-1 1c-0.552 0-1-0.448-1-1v0c0-0.552 0.448-1 1-1v0zM16 5c0.552 0 1 0.448 1 1s-0.448 1-1 1c-0.552 0-1-0.448-1-1v0c0-0.552 0.448-1 1-1v0zM8 7c0.552 0 1 0.448 1 1s-0.448 1-1 1c-0.552 0-1-0.448-1-1v0c0-0.552 0.448-1 1-1v0zM30 24h-28c-0.552 0-1 0.448-1 1v0 1c0.002 2.208 1.792 3.998 4 4h22c2.208-0.002 3.998-1.792 4-4v-1c0-0.552-0.448-1-1-1v0z"></path>
</svg>
