<!-- Generated by IcoMoon.io -->
<svg version="1.1" xmlns="http://www.w3.org/2000/svg" width="32" height="32" viewBox="0 0 32 32">
<title>cheeseburger</title>
<path d="M19 9c0.552 0 1-0.448 1-1s-0.448-1-1-1c-0.552 0-1 0.448-1 1v0c0 0.552 0.448 1 1 1v0zM32 20c-0.003-1.421-0.75-2.668-1.871-3.372l-0.017-0.010c0.844-1.306 1.156-3.306 0.394-4.944-2.506-5.406-8.037-9.669-14.506-9.675-6.469 0.006-12 4.269-14.512 9.675-0.781 1.675-0.569 3.744 0.231 5.050-1.044 0.725-1.719 1.918-1.719 3.268 0 0.841 0.262 1.622 0.709 2.264l-0.009-0.013c0.188 0.271 0.396 0.506 0.628 0.716l0.004 0.003c-0.194 0.306-0.331 0.65-0.331 1.038v2c0.002 2.208 1.792 3.998 4 4h22c2.208-0.002 3.998-1.792 4-4v-2c0-0.387-0.137-0.731-0.331-1.038 0.814-0.732 1.326-1.787 1.331-2.961v-0.001zM3.301 12.519c2.369-5.088 7.469-8.512 12.699-8.519 5.231 0.006 10.337 3.431 12.699 8.519 0.363 0.781 0.325 1.844-0.087 2.719-0.008 0.020-0.016 0.036-0.026 0.052l0.001-0.002c-0.223 0.426-0.662 0.713-1.167 0.713-0.005 0-0.009-0-0.014-0h-23.024c-0.381 0-0.763-0.15-1-0.45-0.065-0.078-0.118-0.169-0.154-0.269l-0.002-0.006c-0.325-0.869-0.3-1.95 0.075-2.756zM29 26c0 1.105-0.895 2-2 2v0h-22c-1.105 0-2-0.895-2-2v0-2h26zM28 22h-24c-1.105 0-2-0.895-2-2s0.895-2 2-2v0h10l6 3 6-3h2c1.105 0 2 0.895 2 2s-0.895 2-2 2v0zM24 13c0.552 0 1-0.448 1-1s-0.448-1-1-1c-0.552 0-1 0.448-1 1v0c0 0.552 0.448 1 1 1v0zM8 13c0.552 0 1-0.448 1-1s-0.448-1-1-1c-0.552 0-1 0.448-1 1v0c0 0.552 0.448 1 1 1v0zM13 9c0.552 0 1-0.448 1-1s-0.448-1-1-1c-0.552 0-1 0.448-1 1v0c0 0.552 0.448 1 1 1v0z"></path>
</svg>
