<!-- Generated by IcoMoon.io -->
<svg version="1.1" xmlns="http://www.w3.org/2000/svg" width="32" height="32" viewBox="0 0 32 32">
<title>cheese-swiss</title>
<path d="M11 19.994c-1.657 0-3 1.343-3 3s1.343 3 3 3c1.657 0 3-1.343 3-3v0c0-1.657-1.343-3-3-3v0zM11 23.994c-0.552 0-1-0.448-1-1s0.448-1 1-1c0.552 0 1 0.448 1 1v0c0 0.001 0 0.002 0 0.003 0 0.552-0.448 1-1 1 0 0 0 0 0 0v0zM18.739 2h-0.093c-0.466 0.006-0.893 0.17-1.232 0.441l0.004-0.003-17.419 13.554v12.008c0 1.105 0.895 2 2 2v0h28c1.105 0 2-0.895 2-2v0-12.008c0-7.489-5.875-13.604-13.261-13.992zM15 7.987c0.552 0 1 0.448 1 1s-0.448 1-1 1c-0.552 0-1-0.448-1-1v0c0-0.552 0.448-1 1-1v0zM30 28h-28v-10.007h18.184c0.418 1.175 1.521 2.001 2.816 2.001s2.398-0.826 2.81-1.98l0.006-0.021h4.184zM22 16.992c0-0.552 0.448-1 1-1s1 0.448 1 1c0 0.552-0.448 1-1 1v0c-0.552 0-1-0.448-1-1v0zM25.816 15.992c-0.418-1.175-1.521-2.001-2.816-2.001s-2.398 0.826-2.81 1.98l-0.006 0.021h-16.926l8.761-6.813c0.1 1.571 1.399 2.808 2.987 2.808 1.653 0 2.993-1.34 2.993-2.993 0-1.327-0.864-2.453-2.061-2.845l-0.021-0.006 2.75-2.141c6.359 0.349 11.332 5.609 11.332 11.989z"></path>
</svg>
