<!-- Generated by IcoMoon.io -->
<svg version="1.1" xmlns="http://www.w3.org/2000/svg" width="32" height="32" viewBox="0 0 32 32">
<title>cheese-swiss-solid</title>
<path d="M23 21c-1.657 0-3-1.343-3-3v0h-20v10c0 1.105 0.895 2 2 2v0h28c1.105 0 2-0.895 2-2v0-10h-6c0 1.657-1.343 3-3 3v0zM11 27c-1.657 0-3-1.343-3-3s1.343-3 3-3c1.657 0 3 1.343 3 3v0c0 1.657-1.343 3-3 3v0zM18.739 2c-0.021-0.001-0.046-0.001-0.071-0.001-0.475 0-0.911 0.165-1.254 0.442l0.004-0.003-3.86 3.004c0.274 0.443 0.436 0.981 0.436 1.556 0 1.654-1.341 2.994-2.994 2.994-0.836 0-1.592-0.342-2.135-0.895l-0-0-8.865 6.904h32c0-7.493-5.875-13.613-13.261-14z"></path>
</svg>
