<!-- Generated by IcoMoon.io -->
<svg version="1.1" xmlns="http://www.w3.org/2000/svg" width="24" height="32" viewBox="0 0 24 32">
<title>chess-knight-solid</title>
<path d="M1.188 17.029l2.539 1.129c0.239 0.109 0.518 0.172 0.812 0.172 0.268 0 0.523-0.053 0.756-0.148l-0.013 0.005 0.799-0.32c0.564-0.23 0.992-0.693 1.169-1.267l0.004-0.014 0.576-1.916c0.11-0.431 0.397-0.781 0.776-0.974l0.009-0.004 1.383-0.693v3.146c0 0 0 0 0 0.001 0 1.168-0.667 2.18-1.641 2.675l-0.017 0.008-3.576 1.791c-1.651 0.84-2.762 2.526-2.762 4.471 0 0 0 0.001 0 0.001v-0 0.907h19.991v-12c0-6.625-5.37-12-11.995-12h-9.246c-0.414 0-0.75 0.336-0.75 0.75v0c0 0 0 0 0 0.001 0 0.172 0.041 0.335 0.115 0.479l-0.003-0.006 0.888 1.776-0.563 0.563c-0.27 0.271-0.438 0.646-0.438 1.059 0 0.001 0 0.003 0 0.004v-0 8.576c0 0 0 0.001 0 0.001 0 0.81 0.482 1.508 1.175 1.822l0.013 0.005zM3.25 8c0.69 0 1.25 0.56 1.25 1.25s-0.56 1.25-1.25 1.25c-0.69 0-1.25-0.56-1.25-1.25v0c0-0.69 0.56-1.25 1.25-1.25v0zM23 28h-22c-0.552 0-1 0.448-1 1v0 2c0 0.552 0.448 1 1 1v0h22c0.552 0 1-0.448 1-1v0-2c0-0.552-0.448-1-1-1v0z"></path>
</svg>
