<!-- Generated by IcoMoon.io -->
<svg version="1.1" xmlns="http://www.w3.org/2000/svg" width="20" height="32" viewBox="0 0 20 32">
<title>chess-king-alt-solid</title>
<path d="M6.625 13h-0.625c-0.552 0-1 0.448-1 1v0 1c0 0.552 0.448 1 1 1v0h0.996c-0.009 2.845-0.372 5.601-1.047 8.232l0.050-0.232h8c-0.624-2.399-0.987-5.155-0.996-7.994v-0.006h0.996c0.552 0 1-0.448 1-1v0-1c0-0.552-0.448-1-1-1v0h-0.625l2.118-5.649c0.040-0.104 0.064-0.225 0.064-0.351 0-0.552-0.448-1-1-1-0 0-0.001 0-0.001 0h-3.556v-2h1.5c0.276 0 0.5-0.224 0.5-0.5v0-1c0-0.276-0.224-0.5-0.5-0.5v0h-1.5v-1.5c0-0.276-0.224-0.5-0.5-0.5v0h-1c-0.276 0-0.5 0.224-0.5 0.5v0 1.5h-1.5c-0.276 0-0.5 0.224-0.5 0.5v0 1c0 0.276 0.224 0.5 0.5 0.5v0h1.5v2h-3.557c-0 0-0.001 0-0.001 0-0.552 0-1 0.448-1 1 0 0.126 0.023 0.247 0.066 0.358l-0.002-0.007zM17.448 28.724l-1.448-0.724v-1c0-0.552-0.448-1-1-1v0h-10c-0.552 0-1 0.448-1 1v0 1l-1.447 0.724c-0.331 0.168-0.553 0.505-0.553 0.894v0 1.382c0 0.552 0.448 1 1 1v0h14c0.552 0 1-0.448 1-1v0-1.382c0-0 0-0 0-0 0-0.389-0.222-0.726-0.547-0.892l-0.006-0.003z"></path>
</svg>
