<!-- Generated by IcoMoon.io -->
<svg version="1.1" xmlns="http://www.w3.org/2000/svg" width="20" height="32" viewBox="0 0 20 32">
<title>chess-rook-alt</title>
<path d="M19.448 26.724l-1.448-0.724v-1c0-0.552-0.448-1-1-1v0h-0.024l-0.454-9.082 1.901-1.924c0.357-0.361 0.577-0.858 0.578-1.406v0-6.089c-0.002-0.827-0.673-1.498-1.5-1.5h-15c-0.827 0.002-1.498 0.673-1.5 1.5v6.095c0.001 0.548 0.222 1.044 0.58 1.405l1.899 1.917-0.454 9.082h-0.024c-0.552 0-1 0.448-1 1v0 1l-1.447 0.724c-0.331 0.168-0.553 0.505-0.553 0.894v0 3.382c0 0.552 0.448 1 1 1v0h18c0.552 0 1-0.448 1-1v0-3.382c0-0 0-0 0-0 0-0.389-0.222-0.726-0.547-0.892l-0.006-0.003zM3 11.594v-5.594h3v3h2v-3h4v3h2v-3h3v5.59l-2.521 2.547 0.496 9.863h-9.949l0.496-9.861zM18 30h-16v-1.764l2-1v-1.236h12v1.236l2 1zM11.474 14.474c0-0.814-0.66-1.474-1.474-1.474s-1.474 0.66-1.474 1.474v0 2.949h2.949z"></path>
</svg>
