<!-- Generated by IcoMoon.io -->
<svg version="1.1" xmlns="http://www.w3.org/2000/svg" width="32" height="32" viewBox="0 0 32 32">
<title>chess-queen-solid</title>
<path d="M16 7c1.933 0 3.5-1.567 3.5-3.5s-1.567-3.5-3.5-3.5c-1.933 0-3.5 1.567-3.5 3.5v0c0 1.933 1.567 3.5 3.5 3.5v0zM27 28h-22c-0.552 0-1 0.448-1 1v0 2c0 0.552 0.448 1 1 1v0h22c0.552 0 1-0.448 1-1v0-2c0-0.552-0.448-1-1-1v0zM31.554 11.51l-1.782-0.995c-0.465-0.313-1.057-0.154-1.393 0.293-0.548 0.728-1.411 1.194-2.383 1.194-0.201 0-0.398-0.020-0.588-0.058l0.019 0.003c-1.446-0.268-2.428-1.639-2.428-3.109 0-0.463-0.375-0.838-0.837-0.838v0h-2.423c-0.375 0-0.726 0.25-0.804 0.619-0.296 1.37-1.498 2.382-2.936 2.382s-2.64-1.012-2.932-2.362l-0.004-0.020c-0.078-0.37-0.426-0.619-0.804-0.619h-2.423c-0.463 0-0.838 0.375-0.838 0.838v0c0 1.606-1.188 3.047-2.792 3.156-0.062 0.005-0.135 0.007-0.209 0.007-0.975 0-1.841-0.47-2.382-1.196l-0.006-0.008c-0.33-0.443-0.921-0.591-1.381-0.284l-1.786 1c-0.27 0.182-0.446 0.487-0.446 0.832 0 0.163 0.039 0.317 0.108 0.453l-0.003-0.006 6.409 13.208h18.97l6.409-13.211c0.067-0.13 0.106-0.284 0.106-0.447 0-0.346-0.175-0.65-0.442-0.83l-0.004-0.002z"></path>
</svg>
