<!-- Generated by IcoMoon.io -->
<svg version="1.1" xmlns="http://www.w3.org/2000/svg" width="16" height="32" viewBox="0 0 16 32">
<title>chess-queen-alt</title>
<path d="M8 3c0.828 0 1.5-0.672 1.5-1.5s-0.672-1.5-1.5-1.5c-0.828 0-1.5 0.672-1.5 1.5v0c0 0.828 0.672 1.5 1.5 1.5v0zM15.447 27.224l-1.447-0.724v-1c-0.006-0.753-0.572-1.372-1.302-1.461l-0.007-0.001c-0.434-1.878-0.685-4.036-0.691-6.252v-1.787h1.5c0.276 0 0.5-0.224 0.5-0.5v0-1c0-0.276-0.224-0.5-0.5-0.5v0h-1.399l3.183-7.764c0.031-0.061 0.049-0.133 0.049-0.209 0-0.161-0.082-0.303-0.206-0.387l-0.002-0.001-0.697-0.465c-0.069-0.047-0.154-0.075-0.246-0.076h-0c-0.166 0.004-0.311 0.086-0.402 0.211l-0.001 0.001c-0.256 0.339-0.658 0.556-1.111 0.556-0 0-0 0-0.001 0h0c-0.094-0-0.187-0.009-0.276-0.026l0.009 0.001c-0.675-0.125-1.133-0.764-1.133-1.451 0 0 0 0 0 0 0-0.216-0.175-0.391-0.391-0.391-0 0-0 0-0.001 0h-1.129c-0.003-0-0.007-0-0.010-0-0.177 0-0.325 0.122-0.364 0.286l-0.001 0.003c-0.138 0.64-0.699 1.112-1.371 1.112s-1.233-0.472-1.369-1.103l-0.002-0.009c-0.040-0.167-0.188-0.289-0.365-0.289-0.004 0-0.007 0-0.011 0h-1.129c-0.216 0-0.391 0.175-0.391 0.391v0c0 0.75-0.556 1.422-1.303 1.473-0.033 0-0.063 0.003-0.097 0.003-0 0-0 0-0 0-0.455 0-0.859-0.22-1.112-0.559l-0.003-0.004c-0.090-0.124-0.234-0.205-0.396-0.208h-0c-0 0-0.001 0-0.002 0-0.093 0-0.179 0.028-0.25 0.077l0.002-0.001-0.697 0.467c-0.126 0.085-0.208 0.227-0.208 0.388 0 0.076 0.018 0.148 0.051 0.212l-0.001-0.003 3.183 7.764h-1.399c-0.276 0-0.5 0.224-0.5 0.5v0 1c0 0.276 0.224 0.5 0.5 0.5v0h1.5v1.783c-0.004 2.219-0.255 4.377-0.725 6.452l0.037-0.196c-0.738 0.088-1.306 0.707-1.313 1.461v1.001l-1.447 0.724c-0.331 0.168-0.553 0.505-0.553 0.894v0 2.882c0 0.552 0.448 1 1 1v0h14c0.552 0 1-0.448 1-1v0-2.882c0-0 0-0 0-0 0-0.389-0.222-0.726-0.547-0.892l-0.006-0.003zM3.544 7.861h0.021c0.94-0.067 1.764-0.513 2.33-1.183l0.004-0.005c0.571 0.456 1.304 0.731 2.101 0.731 0.794 0 1.525-0.274 2.102-0.732l-0.007 0.005c0.486 0.577 1.158 0.985 1.922 1.132l0.021 0.003c0.119 0.023 0.262 0.042 0.408 0.051l0.010 0.001-2.519 6.135h-3.875zM10.631 24h-5.263c0.399-1.868 0.628-4.015 0.631-6.215v-1.785h4v1.783c0.003 2.202 0.232 4.349 0.667 6.421l-0.036-0.204zM14 30h-12v-1.264l2-1v-1.736h8v1.736l2 1z"></path>
</svg>
