<!-- Generated by IcoMoon.io -->
<svg version="1.1" xmlns="http://www.w3.org/2000/svg" width="24" height="32" viewBox="0 0 24 32">
<title>chess-knight</title>
<path d="M2.217 18.852c2.375 1.056 2.299 1.029 2.524 1.105-1.665 1.149-2.742 3.047-2.742 5.196 0 0.008 0 0.016 0 0.024v-0.001 2.824h2v-2.824c0-1.686 0.964-3.147 2.37-3.864l0.025-0.011 2.644-1.551c0.859-0.437 1.437-1.314 1.438-2.326v-3.891l-1.010 0.599c-0.336 0.171-0.584 0.474-0.677 0.838l-0.002 0.009-0.5 1.661c-0.157 0.509-0.528 0.91-1.005 1.105l-0.012 0.004-0.692 0.277c-0.191 0.079-0.412 0.124-0.643 0.124-0.255 0-0.497-0.055-0.715-0.154l0.011 0.004-2.2-0.976c-0.612-0.277-1.030-0.882-1.030-1.584v0-7.438c0-0.65 0.403-0.941 0.866-1.406l-0.769-1.535c-0.292-0.583 0.102-1.063 0.553-1.063h5.35c6.625 0 12 5.375 12 12v12h2v-12c0-7.719-6.281-14-14-14h-5.35c-1.463 0.002-2.648 1.187-2.65 2.65v0c0.001 0.476 0.115 0.926 0.316 1.323l-0.008-0.017 0.168 0.337c-0.299 0.486-0.477 1.074-0.477 1.705 0 0.003 0 0.006 0 0.008v-0 7.438c0.002 1.512 0.901 2.813 2.194 3.4l0.023 0.010zM4 10.25c0 0.69 0.56 1.25 1.25 1.25s1.25-0.56 1.25-1.25c0-0.69-0.56-1.25-1.25-1.25v0c-0.69 0-1.25 0.56-1.25 1.25v0zM23.5 30h-23c-0.276 0-0.5 0.224-0.5 0.5v0 1c0 0.276 0.224 0.5 0.5 0.5v0h23c0.276 0 0.5-0.224 0.5-0.5v0-1c0-0.276-0.224-0.5-0.5-0.5v0z"></path>
</svg>
