<!-- Generated by IcoMoon.io -->
<svg version="1.1" xmlns="http://www.w3.org/2000/svg" width="32" height="32" viewBox="0 0 32 32">
<title>chess-board-solid</title>
<path d="M15.994 0.013h-4v4h4zM0 4.011v4h4v-4zM8 0.013h-4v4h4zM12 16.006v4h4v-4zM0 12.008v4h4v-4zM23.991 0.013h-4v4h4zM31.991 0.013h-4v4h4zM8 16.006h-4v4h4zM31.988 28v-4h-4v4zM31.988 20v-4h-4v4zM23.991 32h4v-4h-4zM31.991 12.008v-4h-4v4zM8 32h4v-4h-4zM0 32h4v-4h-4zM15.994 32h4v-4h-4zM0 20.004v4h4v-4zM19.992 8.009v-4h-4v4zM15.992 16.009h4v-4h-4zM11.992 24.009v4h4v-4zM19.992 20.009h4v-4h-4zM19.992 12.012h4v-4h-4zM19.992 24.008v4h4v-4zM4 24.003v4h4v-4zM12 8.009v-4h-4v4zM23.995 24.003h4v-4h-4zM15.995 12.008v-4h-4v4zM23.995 4.011v4h4v-4zM15.995 20.004v4h4v-4zM11.995 12.008h-3.995v4h4zM23.99 16.008h4v-4h-4zM8 8.009h-4v4h4zM8 20.004v4h4v-4z"></path>
</svg>
