<!-- Generated by IcoMoon.io -->
<svg version="1.1" xmlns="http://www.w3.org/2000/svg" width="16" height="32" viewBox="0 0 16 32">
<title>chess-bishop-alt</title>
<path d="M15.447 27.224l-1.447-0.724v-1c0-0.828-0.672-1.5-1.5-1.5v0h0.088c-0.363-1.8-0.574-3.873-0.582-5.994l-0-0.006h1.494c0.276 0 0.5-0.224 0.5-0.5v0-1c0-0.276-0.224-0.5-0.5-0.5v0h-0.576c1.227-1.335 1.066-3.234 1.066-3.288 0-3.088-2.277-7.343-4.412-8.712h-0.069c0.552 0 1-0.448 1-1s-0.448-1-1-1v0h-3c-0.552 0-1 0.448-1 1s0.448 1 1 1v0h-0.067c-2.144 1.375-4.421 5.646-4.421 8.717 0 0.044-0.159 1.943 1.069 3.283h-0.591c-0.276 0-0.5 0.224-0.5 0.5v0 1c0 0.276 0.224 0.5 0.5 0.5v0h1.494c-0.008 2.127-0.219 4.2-0.616 6.206l0.034-0.206h0.088c-0.828 0-1.5 0.672-1.5 1.5v0 1l-1.447 0.724c-0.331 0.168-0.553 0.505-0.553 0.894v0 2.882c0 0.552 0.448 1 1 1v0h14c0.552 0 1-0.448 1-1v0-2.882c0-0 0-0 0-0 0-0.389-0.222-0.726-0.547-0.892l-0.006-0.003zM8.010 5.556c0.412 0 1.356 0.692 2.349 2.321l-2.793 2.896c-0.067 0.072-0.109 0.169-0.109 0.276s0.041 0.204 0.109 0.276l-0-0 0.881 0.913c0.067 0.069 0.161 0.112 0.266 0.112s0.198-0.043 0.266-0.112l0-0 2.344-2.431c0.418 1.058 0.668 2.101 0.668 2.911 0 2.151-1.194 2.301-1.981 2.534v0.75h-4v-0.752c-0.776-0.227-1.981-0.375-1.981-2.534 0-2.856 2.731-7.16 3.981-7.16zM10.553 24h-5.105c0.34-1.8 0.539-3.874 0.547-5.993l0-0.007h4.011c0.008 2.126 0.207 4.2 0.58 6.213l-0.033-0.213zM14 30h-12v-1.264l2-1v-1.736h8v1.736l2 1z"></path>
</svg>
