<!-- Generated by IcoMoon.io -->
<svg version="1.1" xmlns="http://www.w3.org/2000/svg" width="20" height="32" viewBox="0 0 20 32">
<title>chess-pawn-solid</title>
<path d="M6.569 14h-1.569c-0.552 0-1 0.448-1 1v0 2c0 0.552 0.448 1 1 1v0h1v0.343c0 2.75-0.259 5.413-1.5 7.657h11c-1.243-2.244-1.5-4.907-1.5-7.657v-0.343h1c0.552 0 1-0.448 1-1v0-2c0-0.552-0.448-1-1-1v0h-1.569c1.837-1.149 3.069-3.174 3.069-5.5 0-3.59-2.91-6.5-6.5-6.5s-6.5 2.91-6.5 6.5v0c0 2.326 1.232 4.351 3.069 5.5zM19 28h-18c-0.552 0-1 0.448-1 1v0 2c0 0.552 0.448 1 1 1v0h18c0.552 0 1-0.448 1-1v0-2c0-0.552-0.448-1-1-1v0z"></path>
</svg>
