<!-- Generated by IcoMoon.io -->
<svg version="1.1" xmlns="http://www.w3.org/2000/svg" width="32" height="32" viewBox="0 0 32 32">
<title>chess</title>
<path d="M25 20c0-0.552-0.448-1-1-1s-1 0.448-1 1v0 2h2zM31.448 27.223l-1.448-0.723v-1.5c0-0.552-0.448-1-1-1v0h-0.069l-0.177-5.138 1.538-1.299c0.434-0.369 0.708-0.916 0.708-1.527 0-0.001 0-0.001 0-0.002v0-5.034c0-0.552-0.448-1-1-1v0h-12c-0.552 0-1 0.448-1 1v0 5.038c0.001 0.61 0.275 1.156 0.706 1.523l0.003 0.002 1.536 1.297-0.176 5.14h-0.069c-0.552 0-1 0.448-1 1v0 1.5l-1.447 0.723c-0.331 0.168-0.553 0.505-0.553 0.894v0c0-0 0-0 0-0 0-0.389-0.222-0.726-0.547-0.892l-0.006-0.003-1.447-0.723v-1.5c0-0.552-0.448-1-1-1v0h-0.4c-0.375-1.885-0.6-3.797-0.6-5.717v-2.283h1.5c0.276 0 0.5-0.224 0.5-0.5v0-1c0-0.276-0.224-0.5-0.5-0.5v0h-1.056l1.988-5.299c0.080-0.208 0.127-0.449 0.127-0.701 0-1.105-0.895-2-2-2-0.001 0-0.001 0-0.002 0h-3.557v-2h1.5c0.276 0 0.5-0.224 0.5-0.5v0-1c0-0.276-0.224-0.5-0.5-0.5v0h-1.5v-1.5c0-0.276-0.224-0.5-0.5-0.5v0h-1c-0.276 0-0.5 0.224-0.5 0.5v0 1.5h-1.5c-0.276 0-0.5 0.224-0.5 0.5v0 1c0 0.276 0.224 0.5 0.5 0.5v0h1.5v2h-3.557c-0.001 0-0.002 0-0.003 0-1.105 0-2 0.895-2 2 0 0.253 0.047 0.494 0.132 0.717l-0.005-0.014 1.989 5.297h-1.057c-0.276 0-0.5 0.224-0.5 0.5v0 1c0 0.276 0.224 0.5 0.5 0.5v0h1.5v2.283c0 1.919-0.223 3.832-0.6 5.717h-0.4c-0.552 0-1 0.448-1 1v0 1.5l-1.448 0.723c-0.266 0.133-0.419 0.387-0.488 0.668-0.019 0.078-0.063 0.146-0.063 0.227v2.882c0 0.552 0.448 1 1 1v0h13.998c0.552 0 1-0.448 1-1v0c0 0.552 0.448 1 1 1v0h14c0.552 0 1-0.448 1-1v0-2.883c0-0 0-0 0-0 0-0.389-0.222-0.726-0.547-0.892l-0.006-0.003zM3.443 8h9.116l-2.25 6h-4.616zM10.555 24h-5.11c0.344-1.714 0.545-3.689 0.555-5.709l0-0.008v-2.283h4v2.283c0.010 2.028 0.211 4.003 0.587 5.915l-0.032-0.198zM14 30h-12v-1.264l2-1v-1.736h8v1.736l2 1zM19 16.038v-4.037h2v2h2v-2h2v2h2v-2h2v4.034l-2.277 1.926 0.033 0.969 0.174 5.071h-5.86l0.174-5.069 0.033-0.97-0.741-0.625zM30 30h-12v-1.264l2-1v-1.736h8v1.736l2 1z"></path>
</svg>
