<!-- Generated by IcoMoon.io -->
<svg version="1.1" xmlns="http://www.w3.org/2000/svg" width="28" height="32" viewBox="0 0 28 32">
<title>chess-king</title>
<path d="M25.5 30h-23c-0.276 0-0.5 0.224-0.5 0.5v0 1c0 0.276 0.224 0.5 0.5 0.5v0h23c0.276 0 0.5-0.224 0.5-0.5v0-1c0-0.276-0.224-0.5-0.5-0.5v0zM27.459 11.133c-0.506-0.69-1.313-1.133-2.224-1.133-0.005 0-0.011 0-0.016 0h-10.219v-4h3.5c0.276 0 0.5-0.224 0.5-0.5v0-1c0-0.276-0.224-0.5-0.5-0.5v0h-3.5v-3.5c0-0.276-0.224-0.5-0.5-0.5v0h-1c-0.276 0-0.5 0.224-0.5 0.5v0 3.5h-3.5c-0.276 0-0.5 0.224-0.5 0.5v0 1c0 0.276 0.224 0.5 0.5 0.5v0h3.5v4h-10.221c-1.534 0-2.778 1.244-2.778 2.779 0 0.302 0.048 0.593 0.138 0.866l-0.006-0.020 4.805 14.375h2.109l-5.010-14.99c-0.023-0.070-0.036-0.15-0.036-0.234 0-0.429 0.348-0.776 0.776-0.776 0.001 0 0.001 0 0.002 0h22.441c0.661 0 0.854 0.649 0.75 0.992l-5.019 15.008h2.113l4.813-14.393c0.081-0.248 0.128-0.533 0.128-0.83 0-0.62-0.205-1.192-0.551-1.652l0.005 0.007z"></path>
</svg>
