<!-- Generated by IcoMoon.io -->
<svg version="1.1" xmlns="http://www.w3.org/2000/svg" width="16" height="32" viewBox="0 0 16 32">
<title>chess-bishop-alt-solid</title>
<path d="M4 18h0.931c-0.142 2.203-0.473 4.253-0.981 6.232l0.050-0.232h8c-0.457-1.747-0.788-3.797-0.925-5.901l-0.005-0.099h0.931c0.552 0 1-0.448 1-1v0-1c0-0.552-0.448-1-1-1v0h-0.729c1-0.417 1.655-1.568 1.655-3.152 0-1.207-0.45-2.646-1.108-3.958l-3.037 3.037c-0.045 0.045-0.108 0.073-0.177 0.073s-0.132-0.028-0.177-0.073v0l-0.354-0.354c-0.045-0.045-0.073-0.108-0.073-0.177s0.028-0.131 0.073-0.177v0l3.239-3.239c-0.639-1.051-1.387-1.951-2.116-2.458 0.511-0.174 0.804-0.657 0.804-1.228 0-0.716-0.505-1.296-1.221-1.296h-1.559c-0.716 0-1.221 0.58-1.221 1.296 0 0.57 0.293 1.054 0.804 1.228-1.786 1.242-3.73 4.797-3.73 7.325 0 1.584 0.656 2.735 1.655 3.152h-0.729c-0.552 0-1 0.448-1 1v0 1c0 0.552 0.448 1 1 1v0zM15.447 28.724l-1.447-0.724v-1c0-0.552-0.448-1-1-1v0h-10c-0.552 0-1 0.448-1 1v0 1l-1.447 0.724c-0.331 0.168-0.553 0.505-0.553 0.894v0 1.382c0 0.552 0.448 1 1 1v0h14c0.552 0 1-0.448 1-1v0-1.382c0-0 0-0 0-0 0-0.389-0.222-0.726-0.547-0.892l-0.006-0.003z"></path>
</svg>
