<!-- Generated by IcoMoon.io -->
<svg version="1.1" xmlns="http://www.w3.org/2000/svg" width="24" height="32" viewBox="0 0 24 32">
<title>chess-rook</title>
<path d="M23.5 30h-23c-0.276 0-0.5 0.224-0.5 0.5v0 1c0 0.276 0.224 0.5 0.5 0.5v0h23c0.276 0 0.5-0.224 0.5-0.5v0-1c0-0.276-0.224-0.5-0.5-0.5v0zM22 2h-20c-1.105 0-2 0.895-2 2v0 10.459l3.5 3c0 2.666 0.098 5.837-0.666 10.541h2.029c0.726-4.657 0.636-7.588 0.636-11.459l-3.5-3v-9.541h5l0.006 4h2v-4h5.994v4h2v-4h5v9.541l-3.5 3c0 3.914-0.088 6.813 0.636 11.459h2.029c-0.764-4.702-0.666-7.872-0.666-10.541l3.5-3v-10.459c0-1.105-0.895-2-2-2v0zM12 12c-1.656 0.002-2.998 1.344-3 3v5h6v-5c-0.002-1.656-1.344-2.998-3-3h-0zM13 18h-2v-3c0-0.552 0.448-1 1-1s1 0.448 1 1v0z"></path>
</svg>
