<!-- Generated by IcoMoon.io -->
<svg version="1.1" xmlns="http://www.w3.org/2000/svg" width="40" height="32" viewBox="0 0 40 32">
<title>chess-clock-alt-solid</title>
<path d="M37.5 8h-7.016v-3h2.516c0.552 0 1-0.448 1-1v0-1c0-0.552-0.448-1-1-1v0h-8c-0.552 0-1 0.448-1 1v0 1c0 0.552 0.448 1 1 1v0h2.484v3h-11.49v-1c0-0.552-0.448-1-1-1v0h-8c-0.552 0-1 0.448-1 1v0 1h-3.494c-1.381 0.006-2.498 1.126-2.5 2.507v16.993c0 1.381 1.119 2.5 2.5 2.5v0h35c1.381 0 2.5-1.119 2.5-2.5v0-16.993c-0.002-1.381-1.119-2.501-2.499-2.507h-0.001zM10.996 26.004c-3.866 0-7-3.134-7-7s3.134-7 7-7c3.866 0 7 3.134 7 7 0 0.001 0 0.002 0 0.003v-0c-0.002 3.865-3.135 6.997-7 6.997v0zM28.989 26.004c-3.866 0-7-3.134-7-7s3.134-7 7-7c3.866 0 7 3.134 7 7 0 0.001 0 0.002 0 0.003v-0c-0.002 3.865-3.135 6.997-7 6.997v0zM14.445 15.188c-0.136-0.136-0.324-0.221-0.531-0.221s-0.395 0.084-0.531 0.221l-3.181 3.181c-0.136 0.136-0.221 0.324-0.221 0.531s0.084 0.395 0.221 0.531l0.354 0.354c0.136 0.136 0.324 0.221 0.531 0.221s0.395-0.084 0.531-0.221l3.181-3.181c0.136-0.136 0.221-0.324 0.221-0.531s-0.084-0.395-0.221-0.531l-0-0zM29.239 14.010h-0.5c-0.414 0-0.75 0.336-0.75 0.75v0 4.5c0 0.414 0.336 0.75 0.75 0.75v0h0.5c0.414 0 0.75-0.336 0.75-0.75v0-4.5c0-0 0-0.001 0-0.001 0-0.414-0.336-0.75-0.75-0.75 0 0 0 0 0 0v0z"></path>
</svg>
