<!-- Generated by IcoMoon.io -->
<svg version="1.1" xmlns="http://www.w3.org/2000/svg" width="20" height="32" viewBox="0 0 20 32">
<title>chess-knight-alt-solid</title>
<path d="M19.448 28.724l-1.448-0.724v-1c0-0.552-0.448-1-1-1v0h-14c-0.552 0-1 0.448-1 1v0 1l-1.447 0.724c-0.331 0.168-0.553 0.505-0.553 0.894v0 1.382c0 0.552 0.448 1 1 1v0h18c0.552 0 1-0.448 1-1v0-1.382c0-0 0-0 0-0 0-0.389-0.222-0.726-0.547-0.892l-0.006-0.003zM2.847 14.72l1.802 0.804c0.17 0.078 0.368 0.123 0.577 0.123 0.19 0 0.371-0.037 0.537-0.106l-0.009 0.003 0.568-0.228c0.401-0.164 0.705-0.495 0.83-0.904l0.003-0.010 0.408-1.367c0.078-0.307 0.282-0.556 0.551-0.694l0.006-0.003 0.887-0.339v2.326c0 0 0 0 0 0 0 0.722-0.428 1.344-1.045 1.626l-0.011 0.005-2.909 1.481c-2.488 1.264-3.016 4.589-1.042 6.563h12c0.438-0.491 1-1.144 1-2v-9.303c0-4.784-3.914-8.697-8.697-8.697h-5.77c-0.294 0.001-0.532 0.239-0.532 0.534 0 0 0 0.001 0 0.001v-0c0 0.001 0 0.001 0 0.002 0 0.123 0.029 0.239 0.081 0.342l-0.002-0.004 0.631 1.268-0.398 0.397c-0.193 0.194-0.312 0.462-0.313 0.757v6.119c0 0 0 0 0 0 0 0.578 0.344 1.076 0.838 1.301l0.009 0.004zM5.004 8c0.001 0 0.002 0 0.004 0 0.552 0 1 0.448 1 1s-0.448 1-1 1c-0.552 0-1-0.448-1-1v0c0 0 0 0 0 0 0-0.551 0.446-0.998 0.996-1h0z"></path>
</svg>
