<!-- Generated by IcoMoon.io -->
<svg version="1.1" xmlns="http://www.w3.org/2000/svg" width="40" height="32" viewBox="0 0 40 32">
<title>chess-clock-solid</title>
<path d="M32.461 15.188c-0.136-0.136-0.324-0.221-0.531-0.221s-0.395 0.084-0.531 0.221l-3.181 3.181c-0.136 0.136-0.221 0.324-0.221 0.531s0.084 0.395 0.221 0.531l0 0 0.353 0.354c0.136 0.136 0.324 0.221 0.531 0.221s0.395-0.084 0.531-0.221l0-0 3.179-3.185c0.136-0.136 0.221-0.324 0.221-0.531s-0.084-0.395-0.221-0.531l-0-0zM37.494 8h-3.5v-1c0-0.552-0.448-1-1-1v0h-8c-0.552 0-1 0.448-1 1v0 1h-11.484v-3.004h2.491c0.552 0 1-0.448 1-1v0-0.996c0-0.552-0.448-1-1-1v0h-8c-0.552 0-1 0.448-1 1v0 0.996c0 0.552 0.448 1 1 1v0h2.511v3.004h-7.018c-1.381 0-2.5 1.119-2.5 2.5v0 17c0 1.381 1.119 2.5 2.5 2.5v0h35c1.381 0 2.5-1.119 2.5-2.5v0-17c0-1.381-1.119-2.5-2.5-2.5v0zM11.012 26.004c-3.866 0-7-3.134-7-7s3.134-7 7-7c3.866 0 7 3.134 7 7 0 0.001 0 0.002 0 0.003v-0c0 3.864-3.133 6.997-6.997 6.997-0.001 0-0.002 0-0.003 0h0zM29.012 26.004c-3.866 0-7-3.134-7-7s3.134-7 7-7c3.866 0 7 3.134 7 7 0 0.001 0 0.002 0 0.003v-0c0 3.864-3.133 6.997-6.997 6.997-0.001 0-0.002 0-0.003 0h0zM11.262 14.009h-0.5c-0.414 0-0.75 0.336-0.75 0.75v0 4.5c0 0.414 0.336 0.75 0.75 0.75v0h0.5c0.414 0 0.75-0.336 0.75-0.75v0-4.5c0-0.414-0.336-0.75-0.75-0.75v0z"></path>
</svg>
