<!-- Generated by IcoMoon.io -->
<svg version="1.1" xmlns="http://www.w3.org/2000/svg" width="40" height="32" viewBox="0 0 40 32">
<title>chess-clock-alt</title>
<path d="M29 26c3.866 0 7-3.134 7-7s-3.134-7-7-7c-3.866 0-7 3.134-7 7v0c0 3.866 3.134 7 7 7v0zM28 14.102v5.148c0 0.414 0.336 0.75 0.75 0.75v0h0.5c0.414 0 0.75-0.336 0.75-0.75v0-5.148c2.299 0.482 4 2.492 4 4.899 0 2.761-2.239 5-5 5s-5-2.239-5-5c0-2.407 1.701-4.418 3.967-4.893l0.033-0.006zM38 8h-8v-4h3.5c0.276 0 0.5-0.224 0.5-0.5v0-1c0-0.276-0.224-0.5-0.5-0.5v0h-9c-0.276 0-0.5 0.224-0.5 0.5v0 1c0 0.276 0.224 0.5 0.5 0.5v0h3.5v4h-12.5c0.276 0 0.5-0.224 0.5-0.5v0-1c0-0.276-0.224-0.5-0.5-0.5v0h-9c-0.276 0-0.5 0.224-0.5 0.5v0 1c0 0.276 0.224 0.5 0.5 0.5v0h-4.5c-1.105 0-2 0.895-2 2v0 18c0 1.105 0.895 2 2 2v0h36c1.105 0 2-0.895 2-2v0-18c0-1.105-0.895-2-2-2v0zM38 28h-36v-18h36zM11 26c3.866 0 7-3.134 7-7s-3.134-7-7-7c-3.866 0-7 3.134-7 7v0c0 3.866 3.134 7 7 7v0zM11 14c1.021 0 1.97 0.309 2.759 0.838l-0.018-0.011-3.533 3.533c-0.136 0.136-0.221 0.324-0.221 0.531s0.084 0.395 0.221 0.531l0.353 0.353c0.136 0.136 0.324 0.221 0.531 0.221s0.395-0.084 0.531-0.221l3.538-3.538c0.52 0.776 0.83 1.731 0.83 2.758 0 2.759-2.237 4.996-4.996 4.996s-4.996-2.237-4.996-4.996c0-2.759 2.237-4.996 4.996-4.996 0.001 0 0.003 0 0.004 0h-0z"></path>
</svg>
