<!-- Generated by IcoMoon.io -->
<svg version="1.1" xmlns="http://www.w3.org/2000/svg" width="32" height="32" viewBox="0 0 32 32">
<title>chess-board</title>
<path d="M20.004 28h4v-4h-4zM12.008 28h4v-4h-4zM4.011 16.006v4h4v-4zM12.008 4.011h-4v4h4zM28 16.006v-4h-4v4zM28 4.011h-4v4h4zM28 24.003v-4h-4v4zM20 4.011h-4v4h4zM4.007 8.011v4h4v-4zM20 16.011v-4h-4v4zM16 12.011v-4h-4v4zM12 12.011h-4v4h4zM8 24.006h-4v4h4zM12 20.006h-4v4h4zM24.003 12.008v-4h-4v4zM16.006 16.008h-4v4h4zM16.006 20.008v4h4v-4zM20.006 20.008h4v-4h-4zM30 0h-28c-1.105 0-2 0.895-2 2v0 28c0 1.105 0.895 2 2 2v0h28c1.105 0 2-0.895 2-2v0-28c0-1.105-0.895-2-2-2v0zM30 30h-28v-28h28z"></path>
</svg>
