<!-- Generated by IcoMoon.io -->
<svg version="1.1" xmlns="http://www.w3.org/2000/svg" width="20" height="32" viewBox="0 0 20 32">
<title>chess-pawn</title>
<path d="M19.5 30h-19c-0.276 0-0.5 0.224-0.5 0.5v0 1c0 0.276 0.224 0.5 0.5 0.5v0h19c0.276 0 0.5-0.224 0.5-0.5v0-1c0-0.276-0.224-0.5-0.5-0.5v0zM3.5 16h2.5v2c0 4.601-0.71 8.021-2.063 10h2.3c1.166-2.346 1.763-5.688 1.763-10v-2h4v2c0 4.313 0.596 7.654 1.762 10h2.3c-1.35-1.979-2.063-5.399-2.063-10v-2h2.5c0.276 0 0.5-0.224 0.5-0.5v0-1c0-0.276-0.224-0.5-0.5-0.5v0h-1.611c1.303-1.272 2.111-3.047 2.111-5.010 0-3.866-3.134-7-7-7s-7 3.134-7 7c0 1.963 0.808 3.738 2.11 5.009l0.001 0.001h-1.611c-0.276 0-0.5 0.224-0.5 0.5v0 1c0 0.276 0.224 0.5 0.5 0.5v0zM5 9c0-2.761 2.239-5 5-5s5 2.239 5 5c0 2.761-2.239 5-5 5v0c-2.76-0.003-4.997-2.24-5-5v-0z"></path>
</svg>
