<!-- Generated by IcoMoon.io -->
<svg version="1.1" xmlns="http://www.w3.org/2000/svg" width="16" height="32" viewBox="0 0 16 32">
<title>chess-pawn-alt-solid</title>
<path d="M4 18h0.931c-0.142 2.203-0.473 4.253-0.981 6.232l0.050-0.232h8c-0.457-1.747-0.788-3.797-0.925-5.901l-0.005-0.099h0.931c0.552 0 1-0.448 1-1v0-1c0-0.552-0.448-1-1-1v0h-1.027c1.236-0.921 2.027-2.378 2.027-4.020 0-2.761-2.239-5-5-5s-5 2.239-5 5c0 1.642 0.792 3.1 2.014 4.011l0.013 0.009h-1.027c-0.552 0-1 0.448-1 1v0 1c0 0.552 0.448 1 1 1v0zM15.447 28.724l-1.447-0.724v-1c0-0.552-0.448-1-1-1v0h-10c-0.552 0-1 0.448-1 1v0 1l-1.447 0.724c-0.331 0.168-0.553 0.505-0.553 0.894v0 1.382c0 0.552 0.448 1 1 1v0h14c0.552 0 1-0.448 1-1v0-1.382c0-0 0-0 0-0 0-0.389-0.222-0.726-0.547-0.892l-0.006-0.003z"></path>
</svg>
