<!-- Generated by IcoMoon.io -->
<svg version="1.1" xmlns="http://www.w3.org/2000/svg" width="20" height="32" viewBox="0 0 20 32">
<title>chess-rook-alt-solid</title>
<path d="M19.448 28.724l-1.448-0.724v-1c0-0.552-0.448-1-1-1v0h-14c-0.552 0-1 0.448-1 1v0 1l-1.447 0.724c-0.331 0.168-0.553 0.505-0.553 0.894v0 1.382c0 0.552 0.448 1 1 1v0h18c0.552 0 1-0.448 1-1v0-1.382c0-0 0-0 0-0 0-0.389-0.222-0.726-0.547-0.892l-0.006-0.003zM4.488 13.145l-0.905 10.855h12.834l-0.905-10.856 1.914-1.944c0.355-0.361 0.574-0.856 0.574-1.403 0-0 0-0 0-0v0-5.296c0-0.276-0.224-0.5-0.5-0.5v0h-2.199c-0.276 0-0.5 0.224-0.5 0.5v0 2.5h-2.059v-2.5c0-0.276-0.224-0.5-0.5-0.5v0h-4.484c-0.276 0-0.5 0.224-0.5 0.5v0 2.5h-2.059v-2.5c0-0.276-0.224-0.5-0.5-0.5v0h-2.199c-0.276 0-0.5 0.224-0.5 0.5v0 5.301c0 0 0 0 0 0 0 0.547 0.22 1.043 0.576 1.404l-0-0zM8.526 14.474c0-0.814 0.66-1.474 1.474-1.474s1.474 0.66 1.474 1.474v0 2.949h-2.949z"></path>
</svg>
