<!-- Generated by IcoMoon.io -->
<svg version="1.1" xmlns="http://www.w3.org/2000/svg" width="16" height="32" viewBox="0 0 16 32">
<title>chess-pawn-alt</title>
<path d="M15.447 27.224l-1.447-0.724v-1c0-0.828-0.672-1.5-1.5-1.5v0h0.088c-0.363-1.8-0.574-3.873-0.582-5.994l-0-0.006h1.494c0.276 0 0.5-0.224 0.5-0.5v0-1c0-0.276-0.224-0.5-0.5-0.5v0h-1.057c0.955-1.057 1.539-2.465 1.539-4.009 0-3.309-2.682-5.991-5.991-5.991s-5.991 2.682-5.991 5.991c0 0.003 0 0.007 0 0.010v-0.001c0.004 1.544 0.595 2.949 1.561 4.005l-0.004-0.005h-1.057c-0.276 0-0.5 0.224-0.5 0.5v0 1c0 0.276 0.224 0.5 0.5 0.5v0h1.494c-0.008 2.127-0.219 4.2-0.616 6.206l0.034-0.206h0.088c-0.828 0-1.5 0.672-1.5 1.5v0 1l-1.447 0.724c-0.331 0.168-0.553 0.505-0.553 0.894v0 2.882c0 0.552 0.448 1 1 1v0h14c0.552 0 1-0.448 1-1v0-2.882c0-0 0-0 0-0 0-0.389-0.222-0.726-0.547-0.892l-0.006-0.003zM10.006 18c0.008 2.126 0.207 4.2 0.58 6.213l-0.033-0.213h-5.105c0.34-1.8 0.539-3.874 0.547-5.993l0-0.007zM8 8c2.209 0 4 1.791 4 4s-1.791 4-4 4c-2.209 0-4-1.791-4-4v0c0.003-2.208 1.792-3.998 4-4h0zM14 30h-12v-1.264l2-1v-1.736h8v1.736l2 1z"></path>
</svg>
