<!-- Generated by IcoMoon.io -->
<svg version="1.1" xmlns="http://www.w3.org/2000/svg" width="20" height="32" viewBox="0 0 20 32">
<title>chess-bishop-solid</title>
<path d="M0.5 17.992c0 3.227 1.384 4.614 3.5 5.288v2.72h12v-2.72c2.116-0.673 3.5-2.063 3.5-5.288 0-1.913-0.671-4.194-1.668-6.41l-6.269 6.271c-0.090 0.090-0.215 0.146-0.353 0.146s-0.263-0.056-0.353-0.146l-0.707-0.707c-0.090-0.090-0.146-0.215-0.146-0.353s0.056-0.263 0.146-0.353l6.743-6.746c-1.3-2.369-2.904-4.506-4.429-5.787 0.875-0.214 1.537-0.966 1.537-1.907 0-1.105-0.895-2-2-2v0h-4c-1.105 0-2 0.895-2 2v0c0 0.938 0.662 1.693 1.537 1.907-3.299 2.768-7.037 9.499-7.037 14.086zM19 28h-18c-0.552 0-1 0.448-1 1v0 2c0 0.552 0.448 1 1 1v0h18c0.552 0 1-0.448 1-1v0-2c0-0.552-0.448-1-1-1v0z"></path>
</svg>
