<!-- Generated by IcoMoon.io -->
<svg version="1.1" xmlns="http://www.w3.org/2000/svg" width="20" height="32" viewBox="0 0 20 32">
<title>chess-bishop</title>
<path d="M4 25v3h2v-4.463l-1.394-0.443c-1.259-0.4-2.606-1.686-2.606-4.094 0-3.643 3.42-10.167 6.225-13h3.55c1.206 1.218 2.512 3.125 3.625 5.188l-5.25 5.25c-0.091 0.090-0.147 0.216-0.147 0.354s0.056 0.263 0.147 0.354v0l0.707 0.707c0.091 0.091 0.216 0.147 0.354 0.147s0.263-0.056 0.354-0.147v0l4.777-4.777c0.977 2.161 1.659 4.323 1.659 5.926 0 2.407-1.346 3.694-2.606 4.094l-1.394 0.443v4.463h2v-3c2.116-0.672 4-2.773 4-6 0-4.54-4.152-12.161-7.438-15h-5.125c-3.286 2.839-7.438 10.46-7.438 15 0 3.227 1.884 5.328 4 6zM19.5 30h-19c-0.276 0-0.5 0.224-0.5 0.5v0 1c0 0.276 0.224 0.5 0.5 0.5v0h19c0.276 0 0.5-0.224 0.5-0.5v0-1c0-0.276-0.224-0.5-0.5-0.5v0zM7 2h6c0.552 0 1-0.448 1-1s-0.448-1-1-1v0h-6c-0.552 0-1 0.448-1 1s0.448 1 1 1v0z"></path>
</svg>
