<!-- Generated by IcoMoon.io -->
<svg version="1.1" xmlns="http://www.w3.org/2000/svg" width="20" height="32" viewBox="0 0 20 32">
<title>chess-knight-alt</title>
<path d="M5.733 10.667c-0.002-0.512-0.417-0.926-0.929-0.926-0.513 0-0.929 0.416-0.929 0.929s0.416 0.929 0.929 0.929v0c0.514-0.001 0.929-0.418 0.929-0.932 0-0 0-0.001 0-0.001v0zM19.448 27.224l-1.448-0.724v-1c0-0.732-0.534-1.313-1.227-1.445l0.055-0.055c0.724-0.72 1.172-1.717 1.172-2.818 0-0.004 0-0.008-0-0.012v0.001-7.054c0-5.579-4.539-10.117-10.117-10.117h-5.383c-1.381 0-2.5 1.119-2.5 2.5v0c0.001 0.44 0.105 0.855 0.291 1.222l-0.007-0.016 0.023 0.046c-0.193 0.385-0.306 0.839-0.306 1.319 0 0.002 0 0.003 0 0.005v-0 5.211c0.001 1.349 0.802 2.511 1.955 3.036l0.021 0.009 1.667 0.744c-1.285 1.381-2.229 3.41-1.168 6.339-0.291 0.271-0.474 0.657-0.475 1.085v1l-1.447 0.724c-0.331 0.168-0.553 0.505-0.553 0.894v0 2.882c0 0.552 0.448 1 1 1v0h18c0.552 0 1-0.448 1-1v0-2.882c0-0 0-0 0-0 0-0.389-0.222-0.726-0.547-0.892l-0.006-0.003zM2.791 15.506c-0.47-0.214-0.791-0.679-0.791-1.219v0-5.211c0-0 0-0 0-0 0-0.275 0.111-0.525 0.291-0.706l0.375-0.375-0.592-1.183c-0.046-0.091-0.074-0.199-0.074-0.312v-0c0-0.276 0.224-0.5 0.5-0.5v0h5.385c4.462 0 8.115 3.653 8.115 8.117v7.054c0 0 0 0 0 0 0 0.552-0.224 1.052-0.586 1.414l-1.414 1.414h-9.559c-2.208-5.414 4.601-5.967 4.601-8.363v-2.671l-1.329 0.316c-0.258 0.132-0.448 0.366-0.519 0.648l-0.001 0.007-0.381 1.272c-0.12 0.391-0.404 0.7-0.771 0.85l-0.009 0.003-0.53 0.212c-0.146 0.060-0.315 0.096-0.493 0.096-0.195 0-0.38-0.042-0.547-0.118l0.008 0.003zM18 30h-16v-1.264l2-1v-1.736h12v1.736l2 1z"></path>
</svg>
