<!-- Generated by IcoMoon.io -->
<svg version="1.1" xmlns="http://www.w3.org/2000/svg" width="24" height="32" viewBox="0 0 24 32">
<title>chess-rook-solid</title>
<path d="M23 2h-3.5c-0.552 0-1 0.448-1 1v0 3h-3v-3c0-0.552-0.448-1-1-1v0h-5c-0.552 0-1 0.448-1 1v0 3h-2.994v-3c0-0.552-0.448-1-1-1v0h-3.506c-0.552 0-1 0.448-1 1v0 11l4 2c0 3.021-0.096 5.938-0.826 10h17.651c-0.729-4.063-0.826-7.017-0.826-10l4-2v-11c0-0.552-0.448-1-1-1v0zM14 20h-4v-4c0-1.105 0.895-2 2-2s2 0.895 2 2v0zM23 28h-22c-0.552 0-1 0.448-1 1v0 2c0 0.552 0.448 1 1 1v0h22c0.552 0 1-0.448 1-1v0-2c0-0.552-0.448-1-1-1v0z"></path>
</svg>
