<!-- Generated by IcoMoon.io -->
<svg version="1.1" xmlns="http://www.w3.org/2000/svg" width="32" height="32" viewBox="0 0 32 32">
<title>chess-queen</title>
<path d="M16 7c1.933 0 3.5-1.567 3.5-3.5s-1.567-3.5-3.5-3.5c-1.933 0-3.5 1.567-3.5 3.5v0c0 1.933 1.567 3.5 3.5 3.5v0zM16 2c0.828 0 1.5 0.672 1.5 1.5s-0.672 1.5-1.5 1.5c-0.828 0-1.5-0.672-1.5-1.5v0c0-0.828 0.672-1.5 1.5-1.5v0zM27.5 30h-23c-0.276 0-0.5 0.224-0.5 0.5v0 1c0 0.276 0.224 0.5 0.5 0.5v0h23c0.276 0 0.5-0.224 0.5-0.5v0-1c0-0.276-0.224-0.5-0.5-0.5v0zM31.554 11.51l-1.782-0.995c-0.148-0.101-0.331-0.162-0.528-0.162v0c-0.355 0.008-0.668 0.184-0.863 0.451l-0.002 0.003c-0.547 0.727-1.408 1.192-2.378 1.192-0 0-0.001 0-0.001 0h0c-0.203-0-0.401-0.020-0.592-0.056l0.020 0.003c-1.446-0.268-2.427-1.639-2.427-3.109 0-0.463-0.375-0.838-0.837-0.838v0h-2.423c-0.375 0-0.726 0.25-0.804 0.619-0.296 1.37-1.498 2.382-2.936 2.382s-2.64-1.012-2.932-2.362l-0.004-0.020c-0.078-0.37-0.426-0.619-0.804-0.619h-2.423c-0.463 0-0.838 0.375-0.838 0.838v0c0 1.606-1.188 3.047-2.792 3.156-0.070 0.004-0.139 0.007-0.208 0.007-0.001 0-0.001 0-0.002 0-0.975 0-1.84-0.47-2.381-1.196l-0.006-0.008c-0.193-0.266-0.501-0.439-0.85-0.446l-0.001-0c-0 0-0 0-0 0-0.198 0-0.381 0.060-0.533 0.164l0.003-0.002-1.786 1c-0.27 0.182-0.446 0.487-0.446 0.832 0 0.163 0.039 0.317 0.108 0.453l-0.003-0.006 7.235 15.208h2.214l-7.25-15.239 0.257-0.142c0.885 0.854 2.091 1.381 3.42 1.381 0.006 0 0.013 0 0.019-0h-0.001c0.113 0 0.228-0.004 0.343-0.012 2.227-0.151 4.043-1.819 4.529-3.988h0.546c0.791 1.781 2.545 3 4.582 3s3.791-1.219 4.57-2.968l0.013-0.032h0.543c0.434 1.979 1.957 3.546 3.938 3.913 0.282 0.055 0.606 0.086 0.937 0.087h0c0.005 0 0.011 0 0.018 0 1.329 0 2.535-0.526 3.421-1.382l-0.001 0.001 0.254 0.142-7.247 15.239h2.215l7.235-15.211c0.067-0.13 0.106-0.284 0.106-0.447 0-0.346-0.175-0.65-0.442-0.83l-0.004-0.002z"></path>
</svg>
