<!-- Generated by IcoMoon.io -->
<svg version="1.1" xmlns="http://www.w3.org/2000/svg" width="20" height="32" viewBox="0 0 20 32">
<title>chess-king-alt</title>
<path d="M18.448 27.224l-1.448-0.724v-1c0-0.828-0.672-1.5-1.5-1.5v0h-0.818c-0.428-1.866-0.676-4.011-0.682-6.213v-1.787h1.5c0.276 0 0.5-0.224 0.5-0.5v0-1c0-0.276-0.224-0.5-0.5-0.5v0h-1.056l1.988-5.299c0.080-0.208 0.127-0.449 0.127-0.701 0-1.105-0.895-2-2-2-0.001 0-0.001 0-0.002 0h-3.557v-2h1.5c0.276 0 0.5-0.224 0.5-0.5v0-1c0-0.276-0.224-0.5-0.5-0.5v0h-1.5v-1.5c0-0.276-0.224-0.5-0.5-0.5v0h-1c-0.276 0-0.5 0.224-0.5 0.5v0 1.5h-1.5c-0.276 0-0.5 0.224-0.5 0.5v0 1c0 0.276 0.224 0.5 0.5 0.5v0h1.5v2h-3.557c-0.001 0-0.002 0-0.003 0-1.105 0-2 0.895-2 2 0 0.253 0.047 0.494 0.132 0.717l-0.005-0.014 1.989 5.297h-1.057c-0.276 0-0.5 0.224-0.5 0.5v0 1c0 0.276 0.224 0.5 0.5 0.5v0h1.5v1.783c-0.005 2.206-0.254 4.351-0.719 6.413l0.037-0.196h-0.818c-0.828 0-1.5 0.672-1.5 1.5v0 1l-1.447 0.724c-0.331 0.168-0.553 0.505-0.553 0.894v0 2.882c0 0.552 0.448 1 1 1v0h16c0.552 0 1-0.448 1-1v0-2.882c0-0 0-0 0-0 0-0.389-0.222-0.726-0.547-0.892l-0.006-0.003zM5.443 8h9.116l-2.25 6h-4.616zM8 17.783v-1.783h4v1.783c0.003 2.202 0.232 4.349 0.667 6.421l-0.036-0.204h-5.263c0.399-1.868 0.628-4.015 0.631-6.215v-0.002zM17 30h-14v-1.264l2-1v-1.736h10v1.736l2 1z"></path>
</svg>
