<!-- Generated by IcoMoon.io -->
<svg version="1.1" xmlns="http://www.w3.org/2000/svg" width="16" height="32" viewBox="0 0 16 32">
<title>chess-queen-alt-solid</title>
<path d="M4.211 12h-0.211c-0.552 0-1 0.448-1 1v0 1c0 0.552 0.448 1 1 1v0h1v0.875c0 0.001 0 0.002 0 0.003 0 2.885-0.365 5.684-1.051 8.354l0.051-0.232h8c-0.635-2.438-1-5.238-1-8.122 0-0.001 0-0.002 0-0.003v0-0.875h1c0.552 0 1-0.448 1-1v0-1c0-0.552-0.448-1-1-1v0h-0.211l2.781-5.983c0.028-0.055 0.045-0.12 0.045-0.189 0-0.146-0.074-0.274-0.186-0.349l-0.002-0.001-0.629-0.419c-0.196-0.13-0.445-0.063-0.586 0.125-0.231 0.306-0.594 0.503-1.003 0.503-0.085 0-0.168-0.008-0.248-0.024l0.008 0.001c-0.609-0.113-1.022-0.688-1.022-1.313-0.001-0.194-0.159-0.35-0.352-0.351h-1.021c-0.002-0-0.005-0-0.007-0-0.16 0-0.294 0.11-0.331 0.258l-0.001 0.002c-0.125 0.576-0.631 1.002-1.236 1.002s-1.111-0.425-1.235-0.993l-0.002-0.008c-0.037-0.151-0.171-0.261-0.331-0.261-0.002 0-0.005 0-0.007 0h-1.020c-0.195 0-0.352 0.158-0.353 0.352v0c0 0.676-0.5 1.283-1.176 1.329-0.026 0.002-0.057 0.003-0.088 0.003-0.411 0-0.775-0.198-1.003-0.504l-0.002-0.003c-0.078-0.113-0.206-0.186-0.352-0.186-0.085 0-0.164 0.025-0.231 0.068l0.002-0.001-0.63 0.42c-0.114 0.076-0.188 0.205-0.188 0.35 0 0.069 0.016 0.134 0.046 0.191l-0.001-0.002zM8 3c0.828 0 1.5-0.672 1.5-1.5s-0.672-1.5-1.5-1.5c-0.828 0-1.5 0.672-1.5 1.5v0c0 0.828 0.672 1.5 1.5 1.5v0zM15.447 28.725l-1.447-0.725v-1c0-0.552-0.448-1-1-1v0h-10c-0.552 0-1 0.448-1 1v0 1l-1.447 0.724c-0.331 0.168-0.553 0.505-0.553 0.894v0 1.382c0 0.552 0.448 1 1 1v0h14c0.552 0 1-0.448 1-1v0-1.382c0-0 0-0 0-0 0-0.389-0.222-0.726-0.547-0.892l-0.006-0.003z"></path>
</svg>
