<!-- Generated by IcoMoon.io -->
<svg version="1.1" xmlns="http://www.w3.org/2000/svg" width="28" height="32" viewBox="0 0 28 32">
<title>chess-king-solid</title>
<path d="M25 28h-22c-0.552 0-1 0.448-1 1v0 2c0 0.552 0.448 1 1 1v0h22c0.552 0 1-0.448 1-1v0-2c0-0.552-0.448-1-1-1v0zM26 10h-10v-3h2.5c0.276 0 0.5-0.224 0.5-0.5v0-3c0-0.276-0.224-0.5-0.5-0.5v0h-2.5v-2.5c0-0.276-0.224-0.5-0.5-0.5v0h-3c-0.276 0-0.5 0.224-0.5 0.5v0 2.5h-2.5c-0.276 0-0.5 0.224-0.5 0.5v0 3c0 0.276 0.224 0.5 0.5 0.5v0h2.5v3h-10c-1.104 0.001-1.998 0.896-1.998 2 0 0.213 0.033 0.418 0.095 0.61l-0.004-0.014 4.567 13.404h18.68l4.567-13.404c0.058-0.178 0.091-0.383 0.091-0.596 0-1.104-0.895-1.999-1.998-2h-0z"></path>
</svg>
