<!-- Generated by IcoMoon.io -->
<svg version="1.1" xmlns="http://www.w3.org/2000/svg" width="24" height="32" viewBox="0 0 24 32">
<title>chevron-double-right</title>
<path d="M2.156 2.281l13.194 13.188c0.294 0.294 0.294 0.769 0 1.063l-13.194 13.188c-0.294 0.294-0.769 0.294-1.063 0l-0.444-0.444c-0.294-0.294-0.294-0.769 0-1.063l12.219-12.213-12.213-12.219c-0.294-0.294-0.294-0.769 0-1.063l0.444-0.444c0.288-0.288 0.762-0.288 1.056 0.006zM9.094 2.281l-0.444 0.444c-0.294 0.294-0.294 0.769 0 1.063l12.219 12.213-12.213 12.219c-0.294 0.294-0.294 0.769 0 1.063l0.444 0.444c0.294 0.294 0.769 0.294 1.063 0l13.194-13.188c0.294-0.294 0.294-0.769 0-1.063l-13.194-13.188c-0.3-0.3-0.775-0.3-1.069-0.006z"></path>
</svg>
