<!-- Generated by IcoMoon.io -->
<svg version="1.1" xmlns="http://www.w3.org/2000/svg" width="32" height="32" viewBox="0 0 32 32">
<title>chevron-circle-left-solid</title>
<path d="M16 31.5c-8.563 0-15.5-6.938-15.5-15.5s6.938-15.5 15.5-15.5 15.5 6.938 15.5 15.5-6.938 15.5-15.5 15.5zM8.881 17.063l8.469 8.469c0.587 0.587 1.538 0.587 2.119 0l1.063-1.063c0.587-0.587 0.587-1.538 0-2.119l-6.35-6.35 6.35-6.35c0.587-0.588 0.587-1.537 0-2.119l-1.063-1.063c-0.587-0.588-1.538-0.588-2.119 0l-8.469 8.469c-0.588 0.588-0.588 1.538 0 2.125z"></path>
</svg>
