<!-- Generated by IcoMoon.io -->
<svg version="1.1" xmlns="http://www.w3.org/2000/svg" width="28" height="32" viewBox="0 0 28 32">
<title>chevron-square-up-solid</title>
<path d="M0 27v-22c0-1.657 1.343-3 3-3h22c1.657 0 3 1.343 3 3v22c0 1.657-1.343 3-3 3h-22c-1.657 0-3-1.343-3-3zM12.939 9.379l-8.47 8.47c-0.586 0.586-0.586 1.536 0 2.121l1.061 1.061c0.586 0.586 1.536 0.586 2.121 0l6.348-6.348 6.348 6.348c0.586 0.586 1.536 0.586 2.121 0l1.061-1.061c0.586-0.586 0.586-1.536 0-2.121l-8.47-8.47c-0.586-0.586-1.536-0.586-2.121 0z"></path>
</svg>
