<!-- Generated by IcoMoon.io -->
<svg version="1.1" xmlns="http://www.w3.org/2000/svg" width="32" height="32" viewBox="0 0 32 32">
<title>chevron-circle-up</title>
<path d="M16 31.5c8.563 0 15.5-6.938 15.5-15.5s-6.938-15.5-15.5-15.5-15.5 6.938-15.5 15.5 6.938 15.5 15.5 15.5zM2.5 16c0-7.419 6.006-13.5 13.5-13.5 7.419 0 13.5 6.006 13.5 13.5 0 7.419-6.006 13.5-13.5 13.5-7.419 0-13.5-6.006-13.5-13.5zM16.531 10.588l7.188 7.194c0.294 0.294 0.294 0.769 0 1.063l-0.444 0.444c-0.294 0.294-0.769 0.294-1.063 0l-6.213-6.225-6.219 6.219c-0.294 0.294-0.769 0.294-1.063 0l-0.444-0.444c-0.294-0.294-0.294-0.769 0-1.063l7.188-7.194c0.3-0.287 0.775-0.287 1.069 0.006z"></path>
</svg>
