<!-- Generated by IcoMoon.io -->
<svg version="1.1" xmlns="http://www.w3.org/2000/svg" width="28" height="32" viewBox="0 0 28 32">
<title>chevron-square-right</title>
<path d="M0 5v22c0 1.656 1.344 3 3 3h22c1.656 0 3-1.344 3-3v-22c0-1.656-1.344-3-3-3h-22c-1.656 0-3 1.344-3 3zM25 4c0.55 0 1 0.45 1 1v22c0 0.55-0.45 1-1 1h-22c-0.55 0-1-0.45-1-1v-22c0-0.55 0.45-1 1-1h22zM18.975 16.531l-7.194 7.188c-0.294 0.294-0.769 0.294-1.063 0l-0.444-0.444c-0.294-0.294-0.294-0.769 0-1.063l6.225-6.213-6.219-6.219c-0.294-0.294-0.294-0.769 0-1.063l0.444-0.444c0.294-0.294 0.769-0.294 1.063 0l7.194 7.188c0.281 0.3 0.281 0.775-0.006 1.069z"></path>
</svg>
