<!-- Generated by IcoMoon.io -->
<svg version="1.1" xmlns="http://www.w3.org/2000/svg" width="32" height="32" viewBox="0 0 32 32">
<title>chevron-circle-left</title>
<path d="M31.5 16c0-8.563-6.938-15.5-15.5-15.5s-15.5 6.938-15.5 15.5 6.938 15.5 15.5 15.5 15.5-6.938 15.5-15.5zM16 29.5c-7.419 0-13.5-6.006-13.5-13.5 0-7.419 6.006-13.5 13.5-13.5 7.419 0 13.5 6.006 13.5 13.5 0 7.419-6.006 13.5-13.5 13.5zM10.588 15.469l7.194-7.188c0.294-0.294 0.769-0.294 1.063 0l0.444 0.444c0.294 0.294 0.294 0.769 0 1.063l-6.225 6.213 6.219 6.219c0.294 0.294 0.294 0.769 0 1.063l-0.444 0.444c-0.294 0.294-0.769 0.294-1.063 0l-7.194-7.188c-0.287-0.3-0.287-0.775 0.006-1.069z"></path>
</svg>
