<!-- Generated by IcoMoon.io -->
<svg version="1.1" xmlns="http://www.w3.org/2000/svg" width="28" height="32" viewBox="0 0 28 32">
<title>chevron-double-down-solid</title>
<path d="M12.938 29.844l-12.144-12.15c-0.588-0.587-0.588-1.538 0-2.119l1.419-1.419c0.587-0.588 1.531-0.588 2.119 0l9.669 9.625 9.669-9.625c0.587-0.581 1.531-0.581 2.119 0l1.419 1.419c0.587 0.587 0.587 1.538 0 2.119l-12.144 12.15c-0.588 0.581-1.537 0.581-2.125 0zM15.063 17.844l12.144-12.15c0.587-0.588 0.587-1.537 0-2.119l-1.419-1.419c-0.587-0.587-1.531-0.587-2.119 0l-9.669 9.625-9.669-9.625c-0.587-0.581-1.531-0.581-2.119 0l-1.419 1.419c-0.588 0.588-0.588 1.538 0 2.119l12.144 12.15c0.588 0.581 1.537 0.581 2.125 0z"></path>
</svg>
