<!-- Generated by IcoMoon.io -->
<svg version="1.1" xmlns="http://www.w3.org/2000/svg" width="32" height="32" viewBox="0 0 32 32">
<title>chevron-circle-down-solid</title>
<path d="M31.5 16c0 8.563-6.938 15.5-15.5 15.5s-15.5-6.938-15.5-15.5 6.938-15.5 15.5-15.5 15.5 6.938 15.5 15.5zM17.063 23.119l8.469-8.469c0.587-0.588 0.587-1.537 0-2.119l-1.063-1.063c-0.587-0.588-1.538-0.588-2.119 0l-6.35 6.35-6.35-6.35c-0.588-0.588-1.537-0.588-2.119 0l-1.063 1.063c-0.588 0.588-0.588 1.537 0 2.119l8.469 8.469c0.588 0.587 1.538 0.587 2.125 0z"></path>
</svg>
