<!-- Generated by IcoMoon.io -->
<svg version="1.1" xmlns="http://www.w3.org/2000/svg" width="28" height="32" viewBox="0 0 28 32">
<title>chevron-double-down</title>
<path d="M27.719 6.156l-13.188 13.194c-0.294 0.294-0.769 0.294-1.063 0l-13.188-13.194c-0.294-0.294-0.294-0.769 0-1.063l0.444-0.444c0.294-0.294 0.769-0.294 1.063 0l12.213 12.219 12.219-12.213c0.294-0.294 0.769-0.294 1.063 0l0.444 0.444c0.288 0.287 0.288 0.763-0.006 1.056zM27.719 13.094l-0.444-0.444c-0.294-0.294-0.769-0.294-1.063 0l-12.213 12.219-12.219-12.213c-0.294-0.294-0.769-0.294-1.063 0l-0.444 0.444c-0.294 0.294-0.294 0.769 0 1.063l13.188 13.194c0.294 0.294 0.769 0.294 1.063 0l13.188-13.194c0.3-0.3 0.3-0.775 0.006-1.069z"></path>
</svg>
