<!-- Generated by IcoMoon.io -->
<svg version="1.1" xmlns="http://www.w3.org/2000/svg" width="32" height="32" viewBox="0 0 32 32">
<title>chevron-circle-up-solid</title>
<path d="M0.5 16c0-8.563 6.938-15.5 15.5-15.5s15.5 6.938 15.5 15.5-6.938 15.5-15.5 15.5-15.5-6.938-15.5-15.5zM14.938 8.881l-8.469 8.469c-0.588 0.587-0.588 1.538 0 2.119l1.063 1.063c0.588 0.587 1.537 0.587 2.119 0l6.35-6.35 6.35 6.35c0.587 0.587 1.538 0.587 2.119 0l1.063-1.063c0.587-0.587 0.587-1.538 0-2.119l-8.469-8.469c-0.587-0.588-1.537-0.588-2.125 0z"></path>
</svg>
