<!-- Generated by IcoMoon.io -->
<svg version="1.1" xmlns="http://www.w3.org/2000/svg" width="32" height="32" viewBox="0 0 32 32">
<title>chevron-circle-right</title>
<path d="M0.5 16c0 8.563 6.938 15.5 15.5 15.5s15.5-6.938 15.5-15.5-6.938-15.5-15.5-15.5-15.5 6.938-15.5 15.5zM16 2.5c7.419 0 13.5 6.006 13.5 13.5 0 7.419-6.006 13.5-13.5 13.5-7.419 0-13.5-6.006-13.5-13.5 0-7.419 6.006-13.5 13.5-13.5zM21.413 16.531l-7.194 7.188c-0.294 0.294-0.769 0.294-1.063 0l-0.444-0.444c-0.294-0.294-0.294-0.769 0-1.063l6.225-6.213-6.219-6.219c-0.294-0.294-0.294-0.769 0-1.063l0.444-0.444c0.294-0.294 0.769-0.294 1.063 0l7.194 7.188c0.288 0.3 0.288 0.775-0.006 1.069z"></path>
</svg>
