<!-- Generated by IcoMoon.io -->
<svg version="1.1" xmlns="http://www.w3.org/2000/svg" width="32" height="32" viewBox="0 0 32 32">
<title>chevron-double-right-solid</title>
<path d="M29.844 17.063l-12.15 12.144c-0.587 0.587-1.538 0.587-2.119 0l-1.419-1.419c-0.588-0.587-0.588-1.531 0-2.119l9.625-9.669-9.625-9.669c-0.581-0.588-0.581-1.531 0-2.119l1.419-1.419c0.587-0.587 1.538-0.587 2.119 0l12.15 12.144c0.581 0.588 0.581 1.538 0 2.125zM17.844 14.938l-12.15-12.144c-0.588-0.587-1.537-0.587-2.119 0l-1.419 1.419c-0.587 0.588-0.587 1.531 0 2.119l9.625 9.669-9.625 9.669c-0.581 0.587-0.581 1.531 0 2.119l1.419 1.419c0.588 0.587 1.538 0.587 2.119 0l12.15-12.144c0.581-0.587 0.581-1.537 0-2.125z"></path>
</svg>
