<!-- Generated by IcoMoon.io -->
<svg version="1.1" xmlns="http://www.w3.org/2000/svg" width="28" height="32" viewBox="0 0 28 32">
<title>chevron-double-up</title>
<path d="M0.281 25.844l13.188-13.194c0.294-0.294 0.769-0.294 1.063 0l13.188 13.194c0.294 0.294 0.294 0.769 0 1.063l-0.444 0.444c-0.294 0.294-0.769 0.294-1.063 0l-12.213-12.219-12.219 12.212c-0.294 0.294-0.769 0.294-1.063 0l-0.444-0.444c-0.287-0.288-0.287-0.762 0.006-1.056zM0.281 18.906l0.444 0.444c0.294 0.294 0.769 0.294 1.063 0l12.213-12.219 12.219 12.219c0.294 0.294 0.769 0.294 1.063 0l0.444-0.444c0.294-0.294 0.294-0.769 0-1.063l-13.188-13.194c-0.294-0.294-0.769-0.294-1.063 0l-13.194 13.194c-0.294 0.294-0.294 0.769 0 1.063z"></path>
</svg>
