<!-- Generated by IcoMoon.io -->
<svg version="1.1" xmlns="http://www.w3.org/2000/svg" width="28" height="32" viewBox="0 0 28 32">
<title>chevron-square-right-solid</title>
<path d="M3 2h22c1.657 0 3 1.343 3 3v22c0 1.657-1.343 3-3 3h-22c-1.657 0-3-1.343-3-3v-22c0-1.657 1.343-3 3-3zM20.621 14.939l-8.47-8.47c-0.586-0.586-1.536-0.586-2.121 0l-1.061 1.061c-0.586 0.586-0.586 1.536 0 2.121l6.348 6.348-6.348 6.348c-0.586 0.586-0.586 1.536 0 2.121l1.061 1.061c0.586 0.586 1.536 0.586 2.121 0l8.47-8.47c0.586-0.586 0.586-1.536-0-2.121z"></path>
</svg>
