<!-- Generated by IcoMoon.io -->
<svg version="1.1" xmlns="http://www.w3.org/2000/svg" width="28" height="32" viewBox="0 0 28 32">
<title>child</title>
<path d="M25.83 5.672c-1.482-1.482-3.958-1.701-5.832 0.173-0.082-3.237-2.741-5.845-5.998-5.845s-5.915 2.608-5.998 5.845c-1.88-1.88-4.357-1.649-5.832-0.174-1.56 1.56-1.56 4.097-0 5.657l4.83 4.829v12.343c0 1.93 1.57 3.5 3.5 3.5h1c0.978 0 1.864-0.404 2.5-1.053 0.636 0.649 1.522 1.053 2.5 1.053h1c1.93 0 3.5-1.57 3.5-3.5v-12.343l4.83-4.829c1.559-1.56 1.559-4.097 0-5.657zM14 2c2.209 0 4 1.791 4 4s-1.791 4-4 4-4-1.791-4-4 1.791-4 4-4zM24.414 9.914l-5.414 5.414v13.172c0 0.828-0.672 1.5-1.5 1.5h-1c-0.828 0-1.5-0.672-1.5-1.5v-7h-2v7c0 0.828-0.672 1.5-1.5 1.5h-1c-0.828 0-1.5-0.672-1.5-1.5v-13.171l-5.414-5.414c-0.781-0.781-0.781-2.047 0-2.829s2.047-0.781 2.829 0l4.914 4.914h5.343l4.914-4.914c0.781-0.781 2.047-0.781 2.829 0s0.781 2.047 0 2.828z"></path>
</svg>
