<!-- Generated by IcoMoon.io -->
<svg version="1.1" xmlns="http://www.w3.org/2000/svg" width="24" height="32" viewBox="0 0 24 32">
<title>child-solid</title>
<path d="M7.5 4.5c0-2.485 2.015-4.5 4.5-4.5s4.5 2.015 4.5 4.5c0 2.485-2.015 4.5-4.5 4.5s-4.5-2.015-4.5-4.5zM23.414 4.586c-0.781-0.781-2.047-0.781-2.828 0l-5.414 5.414h-6.343l-5.414-5.414c-0.781-0.781-2.047-0.781-2.828 0s-0.781 2.047 0 2.828l5.914 5.914v16.672c0 1.105 0.895 2 2 2h1c1.105 0 2-0.895 2-2v-7h1v7c0 1.105 0.895 2 2 2h1c1.105 0 2-0.895 2-2v-16.672l5.914-5.914c0.781-0.781 0.781-2.047 0-2.828z"></path>
</svg>
