<!-- Generated by IcoMoon.io -->
<svg version="1.1" xmlns="http://www.w3.org/2000/svg" width="40" height="32" viewBox="0 0 40 32">
<title>church-solid</title>
<path d="M29.029 15.418l-7.029-4.218v-3.2h3c0.552 0 1-0.447 1-1v-2c0-0.553-0.448-1-1-1h-3v-3c0-0.552-0.448-1-1-1h-2c-0.552 0-1 0.448-1 1v3h-3c-0.553 0-1 0.447-1 1v2c0 0.553 0.447 1 1 1h3v3.2l-7.029 4.218c-0.586 0.356-0.971 0.99-0.971 1.715v0 14.867h6v-6c0-2.209 1.791-4 4-4s4 1.791 4 4v6h6v-14.867c0-0.703-0.369-1.354-0.971-1.715zM0 24.747v6.253c0 0.552 0.448 1 1 1h7v-12l-6.788 2.909c-0.719 0.314-1.212 1.019-1.212 1.839v0zM38.788 22.909l-6.788-2.909v12h7c0.553 0 1-0.448 1-1v-6.253c0-0.8-0.477-1.523-1.212-1.839z"></path>
</svg>
