<!-- Generated by IcoMoon.io -->
<svg version="1.1" xmlns="http://www.w3.org/2000/svg" width="36" height="32" viewBox="0 0 36 32">
<title>church</title>
<path d="M17.607 20.019c-2.080 0.198-3.607 2.064-3.607 4.153v7.328c0 0.276 0.224 0.5 0.5 0.5h1c0.276 0 0.5-0.224 0.5-0.5v-7.387c0-0.997 0.679-1.922 1.662-2.085 1.251-0.206 2.338 0.759 2.338 1.973v7.5c0 0.276 0.224 0.5 0.5 0.5h1c0.276 0 0.5-0.224 0.5-0.5v-7.5c0-2.339-2.008-4.209-4.393-3.981zM34.911 22.249l-6.911-3.296v-1.821c0-0.703-0.369-1.354-0.971-1.715l-8.029-4.817v-4.6h4.5c0.276 0 0.5-0.224 0.5-0.5v-1c0-0.276-0.224-0.5-0.5-0.5h-4.5v-3.5c0-0.276-0.224-0.5-0.5-0.5h-1c-0.276 0-0.5 0.224-0.5 0.5v3.5h-4.5c-0.276 0-0.5 0.224-0.5 0.5v1c0 0.276 0.224 0.5 0.5 0.5h4.5v4.6l-8.029 4.817c-0.586 0.356-0.971 0.99-0.971 1.715v0 1.822l-6.911 3.295c-0.654 0.313-1.089 1.119-1.089 2.021v7.23c0 0.276 0.224 0.5 0.5 0.5h1c0.276 0 0.5-0.224 0.5-0.5v-7.23c0-0.124 0.028-0.214 0.050-0.263l5.95-2.837v10.331c0 0.276 0.224 0.5 0.5 0.5h1c0.276 0 0.5-0.224 0.5-0.5v-14.367l8-4.8 8 4.8v14.367c0 0.276 0.224 0.5 0.5 0.5h1c0.276 0 0.5-0.224 0.5-0.5v-10.331l5.95 2.837c0.022 0.049 0.050 0.139 0.050 0.263v7.23c0 0.276 0.224 0.5 0.5 0.5h1c0.276 0 0.5-0.224 0.5-0.5v-7.23c0-0.902-0.435-1.708-1.089-2.021z"></path>
</svg>
