<!-- Generated by IcoMoon.io -->
<svg version="1.1" xmlns="http://www.w3.org/2000/svg" width="32" height="32" viewBox="0 0 32 32">
<title>circle-notch-solid</title>
<path d="M18 2.441v1.041c0 0.675 0.455 1.26 1.105 1.442 4.845 1.353 8.395 5.796 8.395 11.076 0 6.356-5.143 11.5-11.5 11.5s-11.5-5.143-11.5-11.5c0-5.279 3.549-9.723 8.395-11.076 0.65-0.182 1.105-0.766 1.105-1.442v-1.040c0-0.982-0.927-1.697-1.878-1.452-6.709 1.728-11.66 7.836-11.622 15.094 0.045 8.566 6.967 15.435 15.533 15.417 8.545-0.018 15.467-6.951 15.467-15.5 0-7.227-4.946-13.299-11.638-15.015-0.944-0.242-1.862 0.481-1.862 1.456z"></path>
</svg>
