<!-- Generated by IcoMoon.io -->
<svg version="1.1" xmlns="http://www.w3.org/2000/svg" width="32" height="32" viewBox="0 0 32 32">
<title>circle-notch</title>
<path d="M18 1.506v0.511c0 0.363 0.258 0.666 0.601 0.735l0.005 0.001c6.184 1.212 10.894 6.651 10.894 13.247 0 7.416-6.003 13.5-13.5 13.5-7.416 0-13.5-6.003-13.5-13.5 0-6.533 4.659-12.032 10.894-13.249 0.348-0.069 0.606-0.372 0.606-0.736v0-0.509c0-0.47-0.428-0.825-0.89-0.737-7.206 1.359-12.65 7.704-12.61 15.314 0.045 8.566 6.967 15.435 15.533 15.417 8.545-0.018 15.467-6.951 15.467-15.5 0-7.574-5.433-13.879-12.614-15.232-0.461-0.087-0.886 0.269-0.886 0.738z"></path>
</svg>
