<!-- Generated by IcoMoon.io -->
<svg version="1.1" xmlns="http://www.w3.org/2000/svg" width="40" height="32" viewBox="0 0 40 32">
<title>clarinet-solid</title>
<path d="M39.383 8.076c-0.113-0.048-0.245-0.077-0.383-0.077-0.276 0-0.526 0.112-0.706 0.293l-2.707 2.707h-5.586v-2h1.5c0.276 0 0.5-0.224 0.5-0.5v0-1c0-0.276-0.224-0.5-0.5-0.5v0h-17c-0.276 0-0.5 0.224-0.5 0.5v0 1c0 0.276 0.224 0.5 0.5 0.5v0h1.5v2h-9.676c-0 0-0 0-0 0-0.226 0-0.443 0.038-0.646 0.107l0.014-0.004-5.008 1.669c-0.401 0.136-0.684 0.51-0.684 0.949 0 0 0 0 0 0v0 4.559c0 0 0 0 0 0 0 0.439 0.283 0.812 0.677 0.947l0.007 0.002 5.008 1.669c0.189 0.065 0.406 0.102 0.632 0.102 0 0 0 0 0 0h29.262l2.707 2.707c0.181 0.181 0.431 0.293 0.707 0.293h0c0.001 0 0.002 0 0.003 0 0.137 0 0.268-0.028 0.386-0.079l-0.006 0.002c0.365-0.154 0.617-0.51 0.617-0.924v0-14c-0-0.414-0.252-0.77-0.611-0.921l-0.007-0.002zM24 9h4v2h-4zM18 9h4v2h-4zM17 17.5c-0.828 0-1.5-0.672-1.5-1.5s0.672-1.5 1.5-1.5c0.828 0 1.5 0.672 1.5 1.5v0c0 0.828-0.672 1.5-1.5 1.5v0zM23 17.5c-0.828 0-1.5-0.672-1.5-1.5s0.672-1.5 1.5-1.5c0.828 0 1.5 0.672 1.5 1.5v0c0 0.828-0.672 1.5-1.5 1.5v0zM29 17.5c-0.828 0-1.5-0.672-1.5-1.5s0.672-1.5 1.5-1.5c0.828 0 1.5 0.672 1.5 1.5v0c0 0.828-0.672 1.5-1.5 1.5v0z"></path>
</svg>
