<!-- Generated by IcoMoon.io -->
<svg version="1.1" xmlns="http://www.w3.org/2000/svg" width="40" height="32" viewBox="0 0 40 32">
<title>clarinet</title>
<path d="M17 14.5c-0.828 0-1.5 0.672-1.5 1.5s0.672 1.5 1.5 1.5c0.828 0 1.5-0.672 1.5-1.5v0c0-0.828-0.672-1.5-1.5-1.5v0zM23 14.5c-0.828 0-1.5 0.672-1.5 1.5s0.672 1.5 1.5 1.5c0.828 0 1.5-0.672 1.5-1.5v0c0-0.828-0.672-1.5-1.5-1.5v0zM29 14.5c-0.828 0-1.5 0.672-1.5 1.5s0.672 1.5 1.5 1.5c0.828 0 1.5-0.672 1.5-1.5v0c0-0.828-0.672-1.5-1.5-1.5v0zM38.5 7c-0.002 0-0.004 0-0.006 0-0.307 0-0.593 0.093-0.829 0.253l0.005-0.003-4.125 2.75h-3.545v-2h1.5c0.276 0 0.5-0.224 0.5-0.5v0-1c0-0.276-0.224-0.5-0.5-0.5v0h-17c-0.276 0-0.5 0.224-0.5 0.5v0 1c0 0.276 0.224 0.5 0.5 0.5v0h1.5v2h-9.675c-0 0-0.001 0-0.001 0-0.226 0-0.443 0.038-0.645 0.107l0.014-0.004-4.325 1.442c-0.801 0.273-1.367 1.019-1.367 1.897v5.118c0 0.878 0.566 1.624 1.353 1.893l0.014 0.004 4.325 1.442c0.188 0.065 0.405 0.102 0.631 0.102 0 0 0.001 0 0.001 0h27.221l4.125 2.75c0.233 0.157 0.52 0.25 0.829 0.25 0.828 0 1.5-0.672 1.5-1.5 0-0 0-0 0-0v0-15c0-0.828-0.672-1.5-1.5-1.5v0zM24 8h4v2h-4zM18 8h4v2h-4zM38 22.566l-3.849-2.566h-27.826l-4.325-1.441v-5.117l4.325-1.441h27.826l3.849-2.563z"></path>
</svg>
