<!-- Generated by IcoMoon.io -->
<svg version="1.1" xmlns="http://www.w3.org/2000/svg" width="32" height="32" viewBox="0 0 32 32">
<title>claw-marks-solid</title>
<path d="M0.437 14.032c-0.313-0.148-0.588 0.256-0.343 0.5l5.32 5.321c0.375 0.375 0.586 0.884 0.586 1.414v2.733h2.734c0.531 0 1.039 0.211 1.414 0.586l7.322 7.322c0.241 0.241 0.645-0.035 0.499-0.343-5.069-10.746-14.009-15.861-17.532-17.533zM15.414 1.852c0.375 0.375 0.586 0.884 0.586 1.414v2.734h2.734c0.531 0 1.039 0.211 1.414 0.586l3.266 3.266c0.375 0.375 0.586 0.884 0.586 1.414v2.734h2.733c0.531 0 1.039 0.211 1.414 0.586l3.322 3.322c0.241 0.241 0.645-0.035 0.499-0.343-5.069-10.746-14.009-15.861-17.532-17.533-0.313-0.148-0.588 0.256-0.343 0.5l1.321 1.32zM12.767 7.52c-0.488-0.378-0.767-0.947-0.767-1.564v-1.956h-3.624c-0.376 0-0.752-0.115-1.070-0.316-2.627-1.66-4.907-2.857-6.529-3.627-0.555-0.263-1.044 0.454-0.609 0.889l11.248 11.248c0.375 0.375 0.586 0.884 0.586 1.414v2.393h2.393c0.531 0 1.039 0.211 1.414 0.586l5.607 5.607c0.375 0.375 0.586 0.884 0.586 1.414v2.393h2.393c0.531 0 1.039 0.211 1.414 0.586l5.251 5.251c0.429 0.429 1.146-0.062 0.887-0.61-5.171-10.959-12.597-18.603-19.179-23.706z"></path>
</svg>
