<!-- Generated by IcoMoon.io -->
<svg version="1.1" xmlns="http://www.w3.org/2000/svg" width="32" height="32" viewBox="0 0 32 32">
<title>claw-marks</title>
<path d="M31.852 29.846l-0.092-0.195c-2.788-5.971-11.253-20.795-29.599-29.501-0.672-0.319-1.445-0.116-1.875 0.491-0.434 0.615-0.365 1.418 0.168 1.952l10.527 10.522c0.027 0.066 0.026 0.301 0.021 0.641v3.243h3.493c0.231 0 0.455 0.094 0.606 0.244l4.692 4.844c0.164 0.165 0.256 0.384 0.256 0.596l-0.070 3.337 3.314-0.071c0.231 0 0.457 0.094 0.629 0.266l5.488 5.336c0.295 0.298 0.677 0.449 1.064 0.449 0.302 0 0.609-0.093 0.879-0.283 0.611-0.428 0.816-1.197 0.499-1.871zM25.326 24.791c-0.535-0.535-1.275-0.842-2.053-0.842h-0.002l-1.25 0.026 0.027-1.271c0-0.767-0.299-1.489-0.83-2.021l-4.692-4.844c-0.543-0.543-1.263-0.842-2.031-0.842h-1.494l0.002-1.403c0.006-0.503 0.016-1.264-0.594-1.873l-8.394-8.395c13.925 7.481 21.4 18.517 24.753 24.814l-3.443-3.35zM1.845 13.25l-0.002-0.001c-0.161-0.078-0.35-0.123-0.549-0.123-0.432 0-0.815 0.214-1.047 0.541l-0.003 0.004c-0.363 0.514-0.302 1.213 0.066 1.573l4.439 5.573c0.164 0.165 0.256 0.385 0.256 0.619v3.563h3.562c0.234 0 0.453 0.091 0.678 0.311l7.428 6.309c0.25 0.25 0.58 0.379 0.912 0.379 0.258 0 0.517-0.078 0.742-0.236 0.514-0.359 0.693-1.031 0.426-1.598-4.876-10.337-13.448-15.273-16.906-16.914zM10.599 23.84c-0.543-0.543-1.266-0.842-2.033-0.842h-1.562v-1.563c0-0.769-0.299-1.49-0.766-1.948l-2.201-2.761c3.261 2.014 7.686 5.495 11.091 10.963l-4.53-3.849zM19.611 6.706c0.106 0.104 0.164 0.247 0.172 0.512l0.318 2.681 2.8 0.327c0.146 0 0.289 0.059 0.476 0.238l6.503 5.172c0.24 0.24 0.556 0.363 0.875 0.363 0.25 0 0.5-0.075 0.719-0.229 0.492-0.347 0.662-0.993 0.406-1.535-4.067-8.623-11.22-12.742-14.108-14.114-0.545-0.258-1.191-0.090-1.541 0.403-0.349 0.496-0.293 1.167 0.027 1.467l3.352 4.715zM28.191 11.745l-3.482-2.771c-0.469-0.47-1.117-0.742-1.669-0.742h-0.019l-1.122-0.134-0.123-1c0-0.681-0.266-1.322-0.639-1.678l-1.346-1.891c2.523 1.611 5.776 4.241 8.401 8.214z"></path>
</svg>
