<!-- Generated by IcoMoon.io -->
<svg version="1.1" xmlns="http://www.w3.org/2000/svg" width="24" height="32" viewBox="0 0 24 32">
<title>clipboard-solid</title>
<path d="M24 7v22c0 1.657-1.343 3-3 3h-18c-1.657 0-3-1.343-3-3v-22c0-1.657 1.343-3 3-3h5c0-2.206 1.794-4 4-4s4 1.794 4 4h5c1.657 0 3 1.343 3 3zM12 2.5c-0.828 0-1.5 0.672-1.5 1.5s0.672 1.5 1.5 1.5 1.5-0.672 1.5-1.5-0.672-1.5-1.5-1.5zM18 9.625v-1.25c0-0.207-0.168-0.375-0.375-0.375v0h-11.25c-0.207 0-0.375 0.168-0.375 0.375v0 1.25c0 0.207 0.168 0.375 0.375 0.375v0h11.25c0.207 0 0.375-0.168 0.375-0.375v0z"></path>
</svg>
