<!-- Generated by IcoMoon.io -->
<svg version="1.1" xmlns="http://www.w3.org/2000/svg" width="24" height="32" viewBox="0 0 24 32">
<title>clipboard-prescription</title>
<path d="M21 4h-5.537c0.025-0.163 0.037-0.331 0.037-0.5 0-1.931-1.569-3.5-3.5-3.5s-3.5 1.569-3.5 3.5c0 0.169 0.012 0.337 0.037 0.5h-5.537c-1.656 0-3 1.344-3 3v22c0 1.656 1.344 3 3 3h18c1.656 0 3-1.344 3-3v-22c0-1.656-1.344-3-3-3zM12 2c0.831 0 1.5 0.669 1.5 1.5 0 0.825-0.669 1.5-1.5 1.5s-1.5-0.675-1.5-1.5c0-0.831 0.669-1.5 1.5-1.5zM22 29c0 0.55-0.45 1-1 1h-18c-0.55 0-1-0.45-1-1v-22c0-0.55 0.45-1 1-1h3v1.25c0 0.412 0.338 0.75 0.75 0.75h10.5c0.413 0 0.75-0.338 0.75-0.75v-1.25h3c0.55 0 1 0.45 1 1zM17.856 18.856l-0.706-0.706c-0.194-0.194-0.512-0.194-0.706 0l-2.438 2.438-1.963-1.962c1.156-0.569 1.956-1.75 1.956-3.125 0-1.931-1.569-3.5-3.5-3.5h-4c-0.275 0-0.5 0.225-0.5 0.5v9c0 0.275 0.225 0.5 0.5 0.5h1c0.275 0 0.5-0.225 0.5-0.5v-2.5h1.588l3 3-2.438 2.438c-0.194 0.194-0.194 0.512 0 0.706l0.706 0.706c0.194 0.194 0.512 0.194 0.706 0l2.438-2.438 2.438 2.438c0.194 0.194 0.512 0.194 0.706 0l0.706-0.706c0.194-0.194 0.194-0.512 0-0.706l-2.438-2.438 2.438-2.438c0.2-0.2 0.2-0.512 0.006-0.706zM10.5 17h-2.5v-3h2.5c0.825 0 1.5 0.675 1.5 1.5s-0.675 1.5-1.5 1.5z"></path>
</svg>
