<!-- Generated by IcoMoon.io -->
<svg version="1.1" xmlns="http://www.w3.org/2000/svg" width="24" height="32" viewBox="0 0 24 32">
<title>clipboard-check</title>
<path d="M21 4h-5.537c0.025-0.163 0.037-0.331 0.037-0.5 0-1.931-1.569-3.5-3.5-3.5s-3.5 1.569-3.5 3.5c0 0.169 0.012 0.337 0.037 0.5h-5.537c-1.656 0-3 1.344-3 3v22c0 1.656 1.344 3 3 3h18c1.656 0 3-1.344 3-3v-22c0-1.656-1.344-3-3-3zM12 2c0.831 0 1.5 0.669 1.5 1.5s-0.669 1.5-1.5 1.5-1.5-0.669-1.5-1.5 0.669-1.5 1.5-1.5zM22 29c0 0.55-0.45 1-1 1h-18c-0.55 0-1-0.45-1-1v-22c0-0.55 0.45-1 1-1h3v1.25c0 0.412 0.338 0.75 0.75 0.75h10.5c0.413 0 0.75-0.338 0.75-0.75v-1.25h3c0.55 0 1 0.45 1 1v22zM18.319 14.225c-0.294-0.294-0.769-0.294-1.063-0.006l-7.356 7.3-3.15-3.163c-0.294-0.294-0.769-0.294-1.063 0l-0.531 0.531c-0.294 0.294-0.294 0.769 0 1.063l4.213 4.225c0.294 0.294 0.769 0.294 1.063 0l8.425-8.356c0.294-0.294 0.294-0.769 0.006-1.063l-0.544-0.531z"></path>
</svg>
