<!-- Generated by IcoMoon.io -->
<svg version="1.1" xmlns="http://www.w3.org/2000/svg" width="24" height="32" viewBox="0 0 24 32">
<title>clipboard-user-solid</title>
<path d="M21 4h-5c0-2.209-1.791-4-4-4s-4 1.791-4 4v0h-5c-1.657 0-3 1.343-3 3v0 22c0 1.657 1.343 3 3 3v0h18c1.657 0 3-1.343 3-3v0-22c0-1.657-1.343-3-3-3v0zM12 2.5c0.828 0 1.5 0.672 1.5 1.5s-0.672 1.5-1.5 1.5c-0.828 0-1.5-0.672-1.5-1.5v0c0-0.828 0.672-1.5 1.5-1.5v0zM12 12c2.209 0 4 1.791 4 4s-1.791 4-4 4c-2.209 0-4-1.791-4-4v0c0-2.209 1.791-4 4-4v0zM19 26.8c0 0.663-0.625 1.2-1.4 1.2h-11.2c-0.775 0-1.4-0.538-1.4-1.2v-1.2c0-1.988 1.881-3.6 4.2-3.6h0.313c0.736 0.316 1.592 0.5 2.491 0.5s1.755-0.184 2.533-0.516l-0.042 0.016h0.313c2.319 0 4.2 1.612 4.2 3.6z"></path>
</svg>
