<!-- Generated by IcoMoon.io -->
<svg version="1.1" xmlns="http://www.w3.org/2000/svg" width="24" height="32" viewBox="0 0 24 32">
<title>clipboard-list-check-solid</title>
<path d="M21 4h-5c0-2.206-1.794-4-4-4s-4 1.794-4 4h-5c-1.656 0-3 1.344-3 3v22c0 1.656 1.344 3 3 3h18c1.656 0 3-1.344 3-3v-22c0-1.656-1.344-3-3-3zM12 2.5c0.831 0 1.5 0.669 1.5 1.5s-0.669 1.5-1.5 1.5-1.5-0.669-1.5-1.5 0.669-1.5 1.5-1.5zM4.1 13.088l0.794-0.787c0.131-0.131 0.344-0.131 0.475 0l1.288 1.3 2.975-2.95c0.131-0.131 0.344-0.131 0.475 0l0.787 0.794c0.131 0.131 0.131 0.344 0 0.475l-4.013 3.975c-0.131 0.131-0.344 0.131-0.475 0l-2.306-2.331c-0.131-0.131-0.131-0.344 0-0.475zM6 24.5c-0.831 0-1.5-0.669-1.5-1.5s0.669-1.5 1.5-1.5 1.5 0.669 1.5 1.5-0.669 1.5-1.5 1.5zM20 23.5c0 0.275-0.225 0.5-0.5 0.5h-9c-0.275 0-0.5-0.225-0.5-0.5v-1c0-0.275 0.225-0.5 0.5-0.5h9c0.275 0 0.5 0.225 0.5 0.5v1zM20 15.5c0 0.275-0.269 0.5-0.6 0.5h-9.769l2.019-2h7.75c0.331 0 0.6 0.225 0.6 0.5v1z"></path>
</svg>
