<!-- Generated by IcoMoon.io -->
<svg version="1.1" xmlns="http://www.w3.org/2000/svg" width="24" height="32" viewBox="0 0 24 32">
<title>clipboard-check-solid</title>
<path d="M21 4h-5c0-2.206-1.794-4-4-4s-4 1.794-4 4h-5c-1.656 0-3 1.344-3 3v22c0 1.656 1.344 3 3 3h18c1.656 0 3-1.344 3-3v-22c0-1.656-1.344-3-3-3zM12 2.5c0.831 0 1.5 0.669 1.5 1.5s-0.669 1.5-1.5 1.5-1.5-0.669-1.5-1.5 0.669-1.5 1.5-1.5zM19.575 16.988l-8.938 8.863c-0.294 0.294-0.769 0.288-1.063-0.006l-5.162-5.206c-0.294-0.294-0.287-0.769 0.006-1.063l1.775-1.762c0.294-0.294 0.769-0.288 1.063 0.006l2.875 2.9 6.625-6.575c0.294-0.294 0.769-0.287 1.063 0.006l1.762 1.775c0.294 0.3 0.288 0.769-0.006 1.063z"></path>
</svg>
