<!-- Generated by IcoMoon.io -->
<svg version="1.1" xmlns="http://www.w3.org/2000/svg" width="24" height="32" viewBox="0 0 24 32">
<title>clipboard-list-check</title>
<path d="M21 4h-5.537c0.025-0.163 0.037-0.331 0.037-0.5 0-1.931-1.569-3.5-3.5-3.5s-3.5 1.569-3.5 3.5c0 0.169 0.012 0.337 0.037 0.5h-5.537c-1.656 0-3 1.344-3 3v22c0 1.656 1.344 3 3 3h18c1.656 0 3-1.344 3-3v-22c0-1.656-1.344-3-3-3zM12 2c0.831 0 1.5 0.669 1.5 1.5s-0.669 1.5-1.5 1.5-1.5-0.669-1.5-1.5 0.669-1.5 1.5-1.5zM22 29c0 0.55-0.45 1-1 1h-18c-0.55 0-1-0.45-1-1v-22c0-0.55 0.45-1 1-1h3v1.25c0 0.412 0.338 0.75 0.75 0.75h10.5c0.413 0 0.75-0.338 0.75-0.75v-1.25h3c0.55 0 1 0.45 1 1v22zM7 20.5c-0.831 0-1.5 0.669-1.5 1.5s0.669 1.5 1.5 1.5 1.5-0.669 1.5-1.5-0.669-1.5-1.5-1.5zM17.5 21h-7c-0.275 0-0.5 0.225-0.5 0.5v1c0 0.275 0.225 0.5 0.5 0.5h7c0.275 0 0.5-0.225 0.5-0.5v-1c0-0.275-0.225-0.5-0.5-0.5zM7.888 16.9l4.013-3.975c0.131-0.131 0.131-0.344 0-0.475l-0.787-0.794c-0.131-0.131-0.344-0.131-0.475 0l-2.975 2.95-1.287-1.306c-0.131-0.131-0.344-0.131-0.475 0l-0.794 0.787c-0.131 0.131-0.131 0.344 0 0.475l2.319 2.338c0.119 0.131 0.331 0.131 0.463 0zM17.5 15h-4.85l-2.019 2h6.869c0.275 0 0.5-0.225 0.5-0.5v-1c0-0.275-0.225-0.5-0.5-0.5z"></path>
</svg>
