<!-- Generated by IcoMoon.io -->
<svg version="1.1" xmlns="http://www.w3.org/2000/svg" width="24" height="32" viewBox="0 0 24 32">
<title>clipboard-prescription-solid</title>
<path d="M11 15h-3v2h3c0.551 0 1-0.449 1-1s-0.449-1-1-1zM21 4h-5c0-2.206-1.794-4-4-4s-4 1.794-4 4h-5c-1.657 0-3 1.343-3 3v22c0 1.657 1.343 3 3 3h18c1.657 0 3-1.343 3-3v-22c0-1.657-1.343-3-3-3zM12 2.5c0.829 0 1.5 0.671 1.5 1.5s-0.671 1.5-1.5 1.5-1.5-0.672-1.5-1.5c0-0.829 0.671-1.5 1.5-1.5zM19 27l-0.707 0.707c-0.391 0.391-1.024 0.391-1.414 0l-1.879-1.879-1.879 1.879c-0.391 0.391-1.024 0.391-1.414 0l-0.707-0.707c-0.391-0.391-0.391-1.024 0-1.414l1.879-1.879-3.707-3.707h-1.171v3c0 0.552-0.447 1-1 1h-1c-0.553 0-1-0.448-1-1v-10c0-0.553 0.447-1 1-1h5c2.209 0 4 1.791 4 4 0 1.514-0.851 2.816-2.091 3.495l2.091 2.091 1.869-1.869c0.391-0.391 1.024-0.391 1.414 0l0.706 0.707c0.391 0.391 0.391 1.024 0 1.414l-1.869 1.869 1.879 1.879c0.39 0.39 0.39 1.023 0 1.414z"></path>
</svg>
