<!-- Generated by IcoMoon.io -->
<svg version="1.1" xmlns="http://www.w3.org/2000/svg" width="24" height="32" viewBox="0 0 24 32">
<title>clipboard-user</title>
<path d="M21 4h-5.536c0.023-0.15 0.036-0.323 0.036-0.5v-0c0-1.933-1.567-3.5-3.5-3.5s-3.5 1.567-3.5 3.5v0c0 0.177 0.014 0.35 0.039 0.519l-0.002-0.019h-5.536c-1.657 0-3 1.343-3 3v0 22c0 1.657 1.343 3 3 3v0h18c1.657 0 3-1.343 3-3v0-22c0-1.657-1.343-3-3-3v0zM12 2c0.828 0 1.5 0.672 1.5 1.5s-0.672 1.5-1.5 1.5c-0.828 0-1.5-0.672-1.5-1.5v0c0-0.828 0.672-1.5 1.5-1.5v0zM22 29c0 0.552-0.448 1-1 1v0h-18c-0.552 0-1-0.448-1-1v0-22c0-0.552 0.448-1 1-1v0h3v1.25c0 0.414 0.336 0.75 0.75 0.75v0h10.5c0.414 0 0.75-0.336 0.75-0.75v0-1.25h3c0.552 0 1 0.448 1 1v0zM14.801 21c-1.344 0.149-1.412 0.5-2.801 0.5s-1.457-0.349-2.801-0.5c-2.867 0-5.199 2.063-5.199 4.599 0 1.588 1.188 2.401 2.401 2.401h11.199c1.213 0 2.401-0.813 2.401-2.401 0-2.537-2.332-4.599-5.199-4.599zM17.599 26h-11.199c-0.426 0-0.401-0.199-0.401-0.401 0-1.433 1.438-2.599 3.199-2.599 0.291 0 1.152 0.5 2.801 0.5s2.509-0.5 2.801-0.5c1.762 0 3.199 1.166 3.199 2.599 0 0.201 0.026 0.401-0.401 0.401zM12 20c2.761 0 5-2.239 5-5s-2.239-5-5-5c-2.761 0-5 2.239-5 5v0c0.003 2.76 2.24 4.997 5 5h0zM12 12c1.657 0 3 1.343 3 3s-1.343 3-3 3c-1.657 0-3-1.343-3-3v0c0.002-1.656 1.344-2.998 3-3h0z"></path>
</svg>
