<!-- Generated by IcoMoon.io -->
<svg version="1.1" xmlns="http://www.w3.org/2000/svg" width="32" height="32" viewBox="0 0 32 32">
<title>clock-solid</title>
<path d="M16 0.5c-8.563 0-15.5 6.938-15.5 15.5s6.938 15.5 15.5 15.5 15.5-6.938 15.5-15.5-6.938-15.5-15.5-15.5zM21.781 20.063v0l-1.25 1.563c-0.185 0.23-0.466 0.375-0.781 0.375-0.237 0-0.455-0.083-0.627-0.221l0.002 0.002-4.188-3.108c-0.574-0.462-0.938-1.164-0.938-1.952 0-0 0-0 0-0v0-9.722c0-0.552 0.448-1 1-1v0h2c0.552 0 1 0.448 1 1v0 9l3.625 2.656c0.23 0.185 0.375 0.466 0.375 0.781 0 0.238-0.083 0.456-0.221 0.627l0.002-0.002z"></path>
</svg>
