<!-- Generated by IcoMoon.io -->
<svg version="1.1" xmlns="http://www.w3.org/2000/svg" width="32" height="32" viewBox="0 0 32 32">
<title>clone</title>
<path d="M29 0h-20c-1.657 0-3 1.343-3 3v3h-3c-1.657 0-3 1.343-3 3v20c0 1.657 1.343 3 3 3h20c1.657 0 3-1.343 3-3v-3h3c1.657 0 3-1.343 3-3v-20c0-1.657-1.343-3-3-3zM24 29c0 0.551-0.449 1-1 1h-20c-0.551 0-1-0.449-1-1v-20c0-0.551 0.449-1 1-1h3v15c0 1.657 1.343 3 3 3h15v3zM30 23c0 0.551-0.449 1-1 1h-20c-0.551 0-1-0.449-1-1v-20c0-0.551 0.449-1 1-1h20c0.551 0 1 0.449 1 1v20z"></path>
</svg>
