<!-- Generated by IcoMoon.io -->
<svg version="1.1" xmlns="http://www.w3.org/2000/svg" width="32" height="32" viewBox="0 0 32 32">
<title>closed-captioning</title>
<path d="M15.387 11.781l-0.613 0.95c-0.125 0.188-0.356 0.231-0.537 0.094-2.544-1.95-7.063-0.894-7.063 3.031 0 4.050 4.381 5.331 6.975 2.975 0.169-0.15 0.425-0.119 0.563 0.063l0.669 0.913c0.113 0.15 0.094 0.363-0.037 0.494-3.075 3.125-10.344 1.837-10.344-4.412 0-6.019 7.394-7.319 10.325-4.594 0.137 0.131 0.162 0.338 0.063 0.488zM29 4h-26c-1.656 0-3 1.344-3 3v18c0 1.656 1.344 3 3 3h26c1.656 0 3-1.344 3-3v-18c0-1.656-1.344-3-3-3zM30 25c0 0.55-0.45 1-1 1h-26c-0.55 0-1-0.45-1-1v-18c0-0.55 0.45-1 1-1h26c0.55 0 1 0.45 1 1v18zM26.938 11.781l-0.613 0.95c-0.125 0.188-0.356 0.231-0.538 0.094-2.544-1.95-7.063-0.894-7.063 3.031 0 4.050 4.381 5.331 6.975 2.975 0.169-0.15 0.425-0.119 0.563 0.063l0.669 0.913c0.113 0.15 0.094 0.363-0.038 0.494-3.069 3.131-10.338 1.844-10.338-4.406 0-6.019 7.394-7.319 10.325-4.594 0.131 0.125 0.156 0.331 0.056 0.481z"></path>
</svg>
