<!-- Generated by IcoMoon.io -->
<svg version="1.1" xmlns="http://www.w3.org/2000/svg" width="32" height="32" viewBox="0 0 32 32">
<title>cloud-sleet-solid</title>
<path d="M32 14c0-3.313-2.688-6-6-6-0.038 0-0.069 0.012-0.1 0.012 0.069-0.325 0.1-0.662 0.1-1.013 0-2.763-2.238-5-5-5-1.538 0-2.894 0.706-3.813 1.8-1.163-2.25-3.481-3.8-6.188-3.8-3.869 0-7 3.131-7 7 0 0.456 0.050 0.894 0.131 1.325-2.394 0.787-4.131 3.019-4.131 5.675 0 3.313 2.688 6 6 6h20c3.313 0 6-2.688 6-6zM5.45 22.106c-0.494-0.244-1.094-0.044-1.344 0.45l-4 8c-0.244 0.494-0.050 1.094 0.45 1.344 0.144 0.069 0.3 0.106 0.45 0.106 0.363 0 0.719-0.2 0.894-0.55l4-8c0.237-0.506 0.044-1.106-0.45-1.35zM21.45 22.106c-0.494-0.244-1.094-0.044-1.344 0.45l-4 8c-0.244 0.494-0.050 1.094 0.45 1.344 0.144 0.069 0.3 0.106 0.45 0.106 0.363 0 0.719-0.2 0.894-0.55l4-8c0.238-0.506 0.044-1.106-0.45-1.35zM30.931 24.319l-0.5-0.869c-0.137-0.238-0.444-0.319-0.681-0.181l-1.75 1.006v-1.775c0-0.275-0.225-0.5-0.5-0.5h-1c-0.275 0-0.5 0.225-0.5 0.5v1.775l-1.75-1.006c-0.238-0.137-0.544-0.056-0.681 0.181l-0.5 0.869c-0.137 0.238-0.056 0.544 0.181 0.681l1.744 1-1.744 1c-0.238 0.137-0.319 0.444-0.181 0.681l0.5 0.869c0.137 0.238 0.444 0.319 0.681 0.181l1.75-1.006v1.775c0 0.275 0.225 0.5 0.5 0.5h1c0.275 0 0.5-0.225 0.5-0.5v-1.775l1.75 1.006c0.238 0.137 0.544 0.056 0.681-0.181l0.5-0.869c0.137-0.238 0.056-0.544-0.181-0.681l-1.744-1 1.744-1c0.238-0.137 0.319-0.444 0.181-0.681zM14.931 24.319l-0.5-0.869c-0.137-0.238-0.444-0.319-0.681-0.181l-1.75 1.006v-1.775c0-0.275-0.225-0.5-0.5-0.5h-1c-0.275 0-0.5 0.225-0.5 0.5v1.775l-1.75-1.006c-0.238-0.137-0.544-0.056-0.681 0.181l-0.5 0.869c-0.138 0.238-0.056 0.544 0.181 0.681l1.744 1-1.744 1c-0.237 0.137-0.319 0.444-0.181 0.681l0.5 0.869c0.138 0.238 0.444 0.319 0.681 0.181l1.75-1.006v1.775c0 0.275 0.225 0.5 0.5 0.5h1c0.275 0 0.5-0.225 0.5-0.5v-1.775l1.75 1.006c0.238 0.137 0.544 0.056 0.681-0.181l0.5-0.869c0.137-0.238 0.056-0.544-0.181-0.681l-1.744-1 1.744-1c0.238-0.137 0.319-0.444 0.181-0.681z"></path>
</svg>
