<!-- Generated by IcoMoon.io -->
<svg version="1.1" xmlns="http://www.w3.org/2000/svg" width="36" height="32" viewBox="0 0 36 32">
<title>cloud-sun-rain-solid</title>
<path d="M31.906 14.094c-0.431-2.325-2.456-4.094-4.906-4.094-0.769 0-1.494 0.188-2.144 0.5-1.087-1.506-2.85-2.5-4.856-2.5-3.313 0-6 2.688-6 6 0 0.031 0.012 0.069 0.012 0.1-2.287 0.463-4.012 2.475-4.012 4.9 0 2.762 2.238 5 5 5h16c2.763 0 5-2.238 5-5 0-2.45-1.763-4.481-4.094-4.906zM7.756 16.244c-2.338-2.338-2.338-6.144 0-8.488 2.162-2.162 5.569-2.3 7.919-0.463 1.25-0.806 2.725-1.294 4.325-1.294 0.044 0 0.081 0.013 0.125 0.013l0.556-1.669c0.212-0.638-0.394-1.237-1.031-1.025l-4.706 1.569-2.219-4.438c-0.3-0.6-1.156-0.6-1.456 0l-2.219 4.438-4.706-1.569c-0.638-0.212-1.237 0.394-1.025 1.031l1.569 4.706-4.438 2.219c-0.6 0.3-0.6 1.156 0 1.456l4.438 2.219-1.569 4.706c-0.212 0.637 0.394 1.238 1.031 1.031l3.7-1.231c-0.012-0.15-0.044-0.294-0.044-0.45 0-0.781 0.144-1.531 0.387-2.244-0.225-0.169-0.444-0.325-0.638-0.519zM12.119 12.619c0.269-1.531 0.988-2.9 1.994-4-0.613-0.387-1.338-0.619-2.113-0.619-2.206 0-4 1.794-4 4 0 1.169 0.512 2.213 1.319 2.944 0.706-0.994 1.662-1.806 2.8-2.325zM32.781 26.131c-0.475-0.269-1.087-0.113-1.363 0.375l-2.288 4c-0.275 0.481-0.106 1.087 0.375 1.363 0.156 0.087 0.325 0.131 0.494 0.131 0.344 0 0.681-0.181 0.869-0.506l2.287-4c0.269-0.481 0.106-1.087-0.375-1.363zM26.781 26.131c-0.475-0.269-1.087-0.113-1.363 0.375l-2.288 4c-0.275 0.481-0.106 1.087 0.375 1.363 0.156 0.087 0.325 0.131 0.494 0.131 0.344 0 0.681-0.181 0.869-0.506l2.288-4c0.269-0.481 0.106-1.087-0.375-1.363zM20.781 26.131c-0.475-0.269-1.087-0.113-1.363 0.375l-2.288 4c-0.275 0.481-0.106 1.087 0.375 1.363 0.156 0.087 0.325 0.131 0.494 0.131 0.344 0 0.681-0.181 0.869-0.506l2.288-4c0.269-0.481 0.106-1.087-0.375-1.363zM14.781 26.131c-0.475-0.269-1.088-0.113-1.363 0.375l-2.287 4c-0.275 0.481-0.106 1.087 0.375 1.363 0.156 0.087 0.325 0.131 0.494 0.131 0.344 0 0.681-0.181 0.869-0.506l2.287-4c0.269-0.481 0.106-1.087-0.375-1.363z"></path>
</svg>
