<!-- Generated by IcoMoon.io -->
<svg version="1.1" xmlns="http://www.w3.org/2000/svg" width="32" height="32" viewBox="0 0 32 32">
<title>cloud-showers-heavy</title>
<path d="M11.494 23.131c-0.475-0.275-1.088-0.113-1.363 0.375l-4 7c-0.275 0.481-0.106 1.094 0.375 1.363 0.156 0.087 0.325 0.131 0.494 0.131 0.344 0 0.681-0.181 0.869-0.506l4-7c0.275-0.475 0.106-1.087-0.375-1.363zM17.494 23.131c-0.475-0.275-1.087-0.113-1.363 0.375l-4 7c-0.275 0.481-0.106 1.094 0.375 1.363 0.156 0.087 0.325 0.131 0.494 0.131 0.344 0 0.681-0.181 0.869-0.506l4-7c0.275-0.475 0.106-1.087-0.375-1.363zM5.494 23.131c-0.475-0.275-1.088-0.113-1.362 0.375l-4 7c-0.275 0.481-0.106 1.094 0.375 1.363 0.156 0.087 0.325 0.131 0.494 0.131 0.344 0 0.681-0.181 0.869-0.506l4-7c0.275-0.475 0.106-1.087-0.375-1.363zM29.494 23.131c-0.475-0.275-1.087-0.113-1.363 0.375l-4 7c-0.275 0.481-0.106 1.094 0.375 1.363 0.156 0.087 0.325 0.131 0.494 0.131 0.344 0 0.681-0.181 0.869-0.506l4-7c0.275-0.475 0.106-1.087-0.375-1.363zM23.494 23.131c-0.475-0.275-1.087-0.113-1.363 0.375l-4 7c-0.275 0.481-0.106 1.094 0.375 1.363 0.156 0.087 0.325 0.131 0.494 0.131 0.344 0 0.681-0.181 0.869-0.506l4-7c0.275-0.475 0.106-1.087-0.375-1.363zM25.981 7.019c-0.244-2.806-2.613-5.019-5.481-5.019-1.113 0-2.175 0.331-3.075 0.95-1.406-1.844-3.581-2.95-5.925-2.95-4.131 0-7.5 3.362-7.5 7.5v0.025c-2.394 1-4 3.344-4 5.975 0 3.581 2.919 6.5 6.5 6.5h19c3.581 0 6.5-2.919 6.5-6.5 0-3.425-2.663-6.237-6.019-6.481zM25.5 18h-19c-2.481 0-4.5-2.019-4.5-4.5 0-2.019 1.369-3.794 3.331-4.325l0.831-0.225-0.125-1.075c-0.019-0.125-0.037-0.25-0.037-0.375 0-3.031 2.469-5.5 5.5-5.5 2.012 0 3.863 1.119 4.825 2.925l0.663 1.237 0.95-1.031c0.681-0.731 1.587-1.131 2.563-1.131 1.931 0 3.5 1.569 3.5 3.5 0 0.1-0.019 0.194-0.050 0.431l-0.156 1.25 1.469-0.15c0.075-0.012 0.156-0.025 0.238-0.025 2.481 0 4.5 2.019 4.5 4.5s-2.019 4.494-4.5 4.494z"></path>
</svg>
