<!-- Generated by IcoMoon.io -->
<svg version="1.1" xmlns="http://www.w3.org/2000/svg" width="32" height="32" viewBox="0 0 32 32">
<title>cloud-drizzle-solid</title>
<path d="M26 8c-0.038 0-0.069 0.012-0.1 0.012 0.069-0.325 0.1-0.662 0.1-1.013 0-2.763-2.238-5-5-5-1.538 0-2.894 0.706-3.813 1.8-1.163-2.25-3.481-3.8-6.188-3.8-3.869 0-7 3.131-7 7 0 0.456 0.050 0.894 0.131 1.325-2.394 0.787-4.131 3.019-4.131 5.675 0 3.313 2.688 6 6 6h20c3.313 0 6-2.688 6-6s-2.688-6-6-6zM3 22.5c-0.55 0-1 0.45-1 1v2.5c0 0.55 0.45 1 1 1s1-0.45 1-1v-2.5c0-0.55-0.45-1-1-1zM9 27.5c-0.55 0-1 0.45-1 1v2.5c0 0.55 0.45 1 1 1s1-0.45 1-1v-2.5c0-0.55-0.45-1-1-1zM15 22.5c-0.55 0-1 0.45-1 1v2.5c0 0.55 0.45 1 1 1s1-0.45 1-1v-2.5c0-0.55-0.45-1-1-1zM21 27.5c-0.55 0-1 0.45-1 1v2.5c0 0.55 0.45 1 1 1s1-0.45 1-1v-2.5c0-0.55-0.45-1-1-1zM27 22.5c-0.55 0-1 0.45-1 1v2.5c0 0.55 0.45 1 1 1s1-0.45 1-1v-2.5c0-0.55-0.45-1-1-1z"></path>
</svg>
