<!-- Generated by IcoMoon.io -->
<svg version="1.1" xmlns="http://www.w3.org/2000/svg" width="40" height="32" viewBox="0 0 40 32">
<title>cloud-download-alt</title>
<path d="M35.731 14.925c0.175-0.619 0.269-1.262 0.269-1.925 0-3.869-3.131-7-7-7-1.044 0-2.056 0.225-3 0.675-1.975-2.813-5.269-4.675-9-4.675-5.9 0-10.731 4.656-10.988 10.512-3.563 1.25-6.013 4.631-6.013 8.488 0 4.975 4.025 9 9 9h23c4.419 0 8-3.575 8-8 0-2.938-1.612-5.675-4.269-7.075zM32 28h-23c-3.869 0-7-3.131-7-7 0-3.55 2.638-6.481 6.063-6.938-0.044-0.35-0.063-0.706-0.063-1.063 0-4.969 4.031-9 9-9 3.769 0 6.994 2.313 8.337 5.6 0.913-0.981 2.212-1.6 3.663-1.6 2.762 0 5 2.238 5 5 0 1.156-0.394 2.225-1.056 3.075 2.869 0.45 5.056 2.931 5.056 5.925 0 3.313-2.688 6-6 6zM24 15.5h-4v-5.25c0-0.412-0.337-0.75-0.75-0.75h-0.5c-0.413 0-0.75 0.338-0.75 0.75v5.25h-4c-1.825 0-2.7 2.262-1.338 3.488l5 4.5c0.762 0.688 1.913 0.688 2.675 0l5-4.5c1.356-1.225 0.494-3.488-1.337-3.488zM19 22l-5-4.5h10l-5 4.5z"></path>
</svg>
