<!-- Generated by IcoMoon.io -->
<svg version="1.1" xmlns="http://www.w3.org/2000/svg" width="40" height="32" viewBox="0 0 40 32">
<title>cloud-upload</title>
<path d="M19.531 10.531c-0.294-0.294-0.769-0.294-1.063 0l-6.144 6.144c-0.294 0.294-0.294 0.769 0 1.063l0.356 0.356c0.294 0.294 0.769 0.294 1.063 0l4.262-4.262v9.419c0 0.413 0.337 0.75 0.75 0.75h0.5c0.413 0 0.75-0.337 0.75-0.75v-9.419l4.262 4.262c0.294 0.294 0.769 0.294 1.063 0l0.356-0.356c0.294-0.294 0.294-0.769 0-1.063l-6.156-6.144zM35.731 14.925c0.175-0.619 0.269-1.262 0.269-1.925 0-3.869-3.131-7-7-7-1.044 0-2.056 0.225-3 0.675-1.975-2.813-5.269-4.675-9-4.675-5.9 0-10.731 4.656-10.988 10.512-3.563 1.25-6.013 4.631-6.013 8.488 0 4.975 4.025 9 9 9h23c4.419 0 8-3.575 8-8 0-2.938-1.612-5.675-4.269-7.075zM32 28h-23c-3.869 0-7-3.131-7-7 0-3.55 2.638-6.481 6.063-6.938-0.044-0.35-0.063-0.706-0.063-1.063 0-4.969 4.031-9 9-9 3.769 0 6.994 2.313 8.337 5.6 0.913-0.981 2.212-1.6 3.663-1.6 2.762 0 5 2.238 5 5 0 1.156-0.394 2.225-1.056 3.075 2.869 0.45 5.056 2.931 5.056 5.925 0 3.313-2.688 6-6 6z"></path>
</svg>
