<!-- Generated by IcoMoon.io -->
<svg version="1.1" xmlns="http://www.w3.org/2000/svg" width="36" height="32" viewBox="0 0 36 32">
<title>cloud-rainbow-solid</title>
<path d="M26.925 19.056c0.619 0.35 1.188 0.775 1.681 1.269 1.837-2.025 4.456-3.325 7.394-3.325v-4c-3.813 0-7.269 1.537-9.8 4.019 0.356 0.619 0.613 1.306 0.725 2.038zM24.95 20.35c0.012-0.119 0.050-0.231 0.050-0.35 0-2.206-1.794-4-4-4-0.788 0-1.512 0.238-2.131 0.625-1.1-2.431-3.531-4.125-6.369-4.125-3.869 0-7 3.131-7 7 0 0.188 0.044 0.363 0.056 0.544-3.106 0.231-5.556 2.794-5.556 5.956 0 3.313 2.688 6 6 6h17c3.313 0 6-2.688 6-6 0-2.625-1.7-4.837-4.050-5.65zM14.912 10.85c1.313 0.369 2.525 1.031 3.537 1.938 4.025-5.325 10.381-8.787 17.55-8.787v-4c-8.681 0-16.363 4.294-21.087 10.85zM20.363 14.069c0.462-0.050 2.294-0.338 4.275 1.181 2.9-2.925 6.919-4.75 11.362-4.75v-4c-6.331 0-11.975 2.963-15.637 7.569z"></path>
</svg>
