<!-- Generated by IcoMoon.io -->
<svg version="1.1" xmlns="http://www.w3.org/2000/svg" width="36" height="32" viewBox="0 0 36 32">
<title>cloud-rainbow</title>
<path d="M35.513 2c0.269-0.006 0.487-0.219 0.487-0.494v-1c0-0.281-0.231-0.512-0.513-0.506-8.788 0.181-16.619 5.019-20.731 12.762-1-0.488-2.106-0.762-3.256-0.762-4.138 0-7.5 3.363-7.5 7.5v0.025c-2.394 1-4 3.344-4 5.975 0 3.581 2.919 6.5 6.5 6.5h19c3.581 0 6.5-2.919 6.5-6.5 0-2.425-1.35-4.525-3.319-5.637 1.581-2.256 4.112-3.694 6.844-3.844 0.269-0.012 0.481-0.225 0.481-0.494v-1c0-0.281-0.237-0.519-0.519-0.506-3.55 0.169-6.813 2.1-8.738 5.131-0.256-0.050-0.506-0.113-0.775-0.131-0.144-1.644-1.019-3.063-2.288-3.975 2.85-3.669 7.144-5.894 11.825-6.037 0.269-0.006 0.487-0.225 0.487-0.494v-1c0-0.281-0.237-0.519-0.519-0.506-5.444 0.156-10.419 2.813-13.637 7.175-0.431-0.113-0.875-0.188-1.344-0.188-1.113 0-2.175 0.331-3.075 0.95-0.294-0.387-0.637-0.719-0.994-1.037 3.744-7.206 10.956-11.731 19.081-11.906zM17.938 17.131c0.675-0.731 1.587-1.131 2.563-1.131 1.931 0 3.5 1.569 3.5 3.5 0 0.1-0.019 0.194-0.050 0.431l-0.156 1.25 1.469-0.15c0.075-0.012 0.156-0.025 0.238-0.025 2.481 0 4.5 2.019 4.5 4.5s-2.019 4.5-4.5 4.5h-19c-2.481 0-4.5-2.019-4.5-4.5 0-2.019 1.369-3.794 3.331-4.325l0.831-0.225-0.125-1.075c-0.019-0.125-0.037-0.25-0.037-0.375 0-3.031 2.469-5.5 5.5-5.5 2.012 0 3.863 1.119 4.825 2.925l0.663 1.238 0.95-1.038z"></path>
</svg>
