<!-- Generated by IcoMoon.io -->
<svg version="1.1" xmlns="http://www.w3.org/2000/svg" width="40" height="32" viewBox="0 0 40 32">
<title>cloud-upload-solid</title>
<path d="M33.6 14.162c0.256-0.669 0.4-1.4 0.4-2.162 0-3.313-2.688-6-6-6-1.231 0-2.381 0.375-3.331 1.013-1.731-3-4.963-5.013-8.669-5.013-5.525 0-10 4.475-10 10 0 0.169 0.006 0.338 0.013 0.506-3.5 1.231-6.013 4.569-6.013 8.494 0 4.969 4.031 9 9 9h23c4.419 0 8-3.581 8-8 0-3.869-2.75-7.1-6.4-7.838zM24.856 18.144l-0.675 0.675c-0.6 0.6-1.575 0.581-2.156-0.031l-2.025-2.156v7.869c0 0.831-0.669 1.5-1.5 1.5h-1c-0.831 0-1.5-0.669-1.5-1.5v-7.869l-2.025 2.156c-0.581 0.619-1.556 0.631-2.156 0.031l-0.675-0.675c-0.588-0.587-0.588-1.538 0-2.119l5.794-5.794c0.587-0.588 1.538-0.588 2.119 0l5.794 5.794c0.587 0.587 0.587 1.538 0.006 2.119z"></path>
</svg>
