<!-- Generated by IcoMoon.io -->
<svg version="1.1" xmlns="http://www.w3.org/2000/svg" width="32" height="32" viewBox="0 0 32 32">
<title>cloud-snow-solid</title>
<path d="M6 20h20c3.313 0 6-2.688 6-6s-2.688-6-6-6c-0.038 0-0.069 0.012-0.1 0.012 0.069-0.325 0.1-0.662 0.1-1.013 0-2.763-2.238-5-5-5-1.538 0-2.894 0.706-3.813 1.8-1.163-2.25-3.481-3.8-6.188-3.8-3.869 0-7 3.131-7 7 0 0.456 0.050 0.894 0.131 1.325-2.394 0.787-4.131 3.019-4.131 5.675 0 3.313 2.688 6 6 6zM7.931 24.319l-0.5-0.869c-0.138-0.238-0.444-0.319-0.681-0.181l-1.75 1.006v-1.775c0-0.275-0.225-0.5-0.5-0.5h-1c-0.275 0-0.5 0.225-0.5 0.5v1.775l-1.75-1.006c-0.238-0.137-0.544-0.056-0.681 0.181l-0.5 0.869c-0.138 0.238-0.056 0.544 0.181 0.681l1.744 1-1.744 1c-0.237 0.137-0.319 0.444-0.181 0.681l0.5 0.869c0.138 0.238 0.444 0.319 0.681 0.181l1.75-1.006v1.775c0 0.275 0.225 0.5 0.5 0.5h1c0.275 0 0.5-0.225 0.5-0.5v-1.775l1.75 1.006c0.237 0.137 0.544 0.056 0.681-0.181l0.5-0.869c0.137-0.238 0.056-0.544-0.181-0.681l-1.744-1 1.744-1c0.237-0.137 0.319-0.444 0.181-0.681zM19.931 26.319l-0.5-0.869c-0.137-0.238-0.444-0.319-0.681-0.181l-1.75 1.006v-1.775c0-0.275-0.225-0.5-0.5-0.5h-1c-0.275 0-0.5 0.225-0.5 0.5v1.775l-1.75-1.006c-0.238-0.137-0.544-0.056-0.681 0.181l-0.5 0.869c-0.137 0.238-0.056 0.544 0.181 0.681l1.744 1-1.744 1c-0.238 0.137-0.319 0.444-0.181 0.681l0.5 0.869c0.137 0.238 0.444 0.319 0.681 0.181l1.75-1.006v1.775c0 0.275 0.225 0.5 0.5 0.5h1c0.275 0 0.5-0.225 0.5-0.5v-1.775l1.75 1.006c0.238 0.137 0.544 0.056 0.681-0.181l0.5-0.869c0.137-0.238 0.056-0.544-0.181-0.681l-1.744-1 1.744-1c0.238-0.137 0.319-0.444 0.181-0.681zM31.931 24.319l-0.5-0.869c-0.137-0.238-0.444-0.319-0.681-0.181l-1.75 1.006v-1.775c0-0.275-0.225-0.5-0.5-0.5h-1c-0.275 0-0.5 0.225-0.5 0.5v1.775l-1.75-1.006c-0.238-0.137-0.544-0.056-0.681 0.181l-0.5 0.869c-0.137 0.238-0.056 0.544 0.181 0.681l1.744 1-1.744 1c-0.238 0.137-0.319 0.444-0.181 0.681l0.5 0.869c0.137 0.238 0.444 0.319 0.681 0.181l1.75-1.006v1.775c0 0.275 0.225 0.5 0.5 0.5h1c0.275 0 0.5-0.225 0.5-0.5v-1.775l1.75 1.006c0.238 0.137 0.544 0.056 0.681-0.181l0.5-0.869c0.138-0.238 0.056-0.544-0.181-0.681l-1.744-1 1.744-1c0.238-0.137 0.319-0.444 0.181-0.681z"></path>
</svg>
