<!-- Generated by IcoMoon.io -->
<svg version="1.1" xmlns="http://www.w3.org/2000/svg" width="40" height="32" viewBox="0 0 40 32">
<title>cloud-download-alt-solid</title>
<path d="M33.6 14.162c0.256-0.669 0.4-1.4 0.4-2.162 0-3.313-2.688-6-6-6-1.231 0-2.381 0.375-3.331 1.013-1.731-3-4.963-5.013-8.669-5.013-5.525 0-10 4.475-10 10 0 0.169 0.006 0.338 0.013 0.506-3.5 1.231-6.013 4.569-6.013 8.494 0 4.969 4.031 9 9 9h23c4.419 0 8-3.581 8-8 0-3.869-2.75-7.1-6.4-7.838zM25.294 19.706l-6.588 6.588c-0.387 0.387-1.025 0.387-1.413 0l-6.588-6.587c-0.631-0.631-0.181-1.706 0.706-1.706h4.088v-7c0-0.55 0.45-1 1-1h3c0.55 0 1 0.45 1 1v7h4.088c0.887 0 1.337 1.075 0.706 1.706z"></path>
</svg>
