<!-- Generated by IcoMoon.io -->
<svg version="1.1" xmlns="http://www.w3.org/2000/svg" width="40" height="32" viewBox="0 0 40 32">
<title>cloud-music-solid</title>
<path d="M33.599 14.162c0.255-0.641 0.403-1.384 0.403-2.161 0-3.314-2.686-6-6-6-1.243 0-2.397 0.378-3.355 1.025l0.021-0.014c-1.759-3.018-4.981-5.014-8.668-5.014-5.523 0-10 4.477-10 10 0 0 0 0.001 0 0.001v-0c0 0.169 0.006 0.338 0.012 0.506-3.539 1.266-6.026 4.59-6.026 8.494 0 4.971 4.029 9 9 9 0.005 0 0.010 0 0.015 0h22.999c4.418-0.001 7.998-3.582 7.998-8 0-3.851-2.722-7.067-6.347-7.829l-0.052-0.009zM24 22c0 1.104-1.344 2-3 2s-3-0.896-3-2 1.344-2 3-2c0.356 0.003 0.701 0.049 1.030 0.131l-0.030-0.006v-4.773l-6 2.345v6.303c0 1.104-1.344 2-3 2s-3-0.896-3-2 1.344-2 3-2c0.356 0.003 0.701 0.049 1.030 0.131l-0.030-0.006v-7.172c0-0.445 0.291-0.821 0.692-0.951l0.007-0.002 8-2.953c0.090-0.029 0.193-0.046 0.301-0.046 0.552 0 1 0.447 1 0.999v0z"></path>
</svg>
