<!-- Generated by IcoMoon.io -->
<svg version="1.1" xmlns="http://www.w3.org/2000/svg" width="40" height="32" viewBox="0 0 40 32">
<title>clouds-solid</title>
<path d="M34 20c-0.038 0-0.069 0.012-0.1 0.012 0.069-0.325 0.1-0.663 0.1-1.012 0-2.762-2.238-5-5-5-1.538 0-2.894 0.706-3.813 1.8-1.163-2.244-3.488-3.8-6.188-3.8-3.869 0-7 3.131-7 7 0 0.456 0.050 0.894 0.131 1.325-2.394 0.788-4.131 3.019-4.131 5.675 0 3.313 2.688 6 6 6h20c3.313 0 6-2.688 6-6s-2.688-6-6-6zM19 10c2.544 0 4.913 1.075 6.587 2.906 0.613-0.35 1.281-0.588 1.975-0.738 0.269-0.675 0.438-1.394 0.438-2.169 0-3.313-2.688-6-6-6-0.881 0-1.712 0.2-2.469 0.544-0.994-2.65-3.531-4.544-6.531-4.544-3.525 0-6.419 2.619-6.9 6.013-0.031 0-0.063-0.013-0.1-0.013-3.313 0-6 2.688-6 6s2.688 6 6 6h4.1c0.506-4.488 4.281-8 8.9-8z"></path>
</svg>
