<!-- Generated by IcoMoon.io -->
<svg version="1.1" xmlns="http://www.w3.org/2000/svg" width="40" height="32" viewBox="0 0 40 32">
<title>clouds-moon</title>
<path d="M28.913 20.069c-0.438-2.313-2.475-4.069-4.913-4.069 0-3.306-2.694-6-6-6h-0.344c-0.831-2.362-3.094-4-5.656-4s-4.825 1.638-5.656 4h-0.344c-3.306 0-6 2.694-6 6s2.694 6 6 6h2.55c-0.963 1.069-1.55 2.469-1.55 4 0 3.306 2.694 6 6 6h15c3.306 0 6-2.694 6-6 0-3-2.212-5.488-5.087-5.931zM6 20c-2.206 0-4-1.794-4-4s1.794-4 4-4h1.919l0.163-0.8c0.375-1.856 2.025-3.2 3.919-3.2s3.544 1.344 3.919 3.2l0.163 0.8h1.919c2.206 0 4 1.794 4 4 0 0.163-0.044 0.313-0.063 0.462-0.025 0.012-0.056 0.019-0.087 0.031-1.113-1.544-2.919-2.494-4.85-2.494-3.306 0-6 2.694-6 6h-5zM28 30h-15c-2.206 0-4-1.794-4-4 0-1.938 1.387-3.587 3.3-3.925l1.031-0.181-0.225-1.019c-0.069-0.313-0.106-0.6-0.106-0.869 0-2.206 1.794-4 4-4 1.538 0 2.95 0.906 3.606 2.313l0.538 1.15 0.988-0.794c0.55-0.438 1.194-0.669 1.863-0.669 1.656 0 3 1.344 3 3v1h1c2.206 0 4 1.794 4 4s-1.788 3.994-3.994 3.994zM39.862 15.588c-0.237-0.506-0.75-0.831-1.306-0.831h-0.094l-0.181 0.025c-0.413 0.075-0.825 0.119-1.237 0.119-3.575 0-6.481-2.888-6.481-6.444 0-2.313 1.256-4.456 3.287-5.6 0.538-0.3 0.819-0.887 0.712-1.494-0.1-0.606-0.563-1.069-1.169-1.181-0.631-0.125-1.281-0.181-1.925-0.181-5.188 0-9.488 3.737-10.375 8.637 0.681 0.287 1.313 0.669 1.887 1.131 0.375-4.344 4.012-7.769 8.488-7.769h0.119c-1.9 1.587-3.025 3.95-3.025 6.456 0 4.656 3.806 8.444 8.481 8.444h0.063c-1.469 1.281-3.344 2-5.319 2.075 0.819 0.45 1.544 1.038 2.156 1.731 2.231-0.531 4.244-1.775 5.725-3.587 0.362-0.438 0.431-1.025 0.194-1.531z"></path>
</svg>
