<!-- Generated by IcoMoon.io -->
<svg version="1.1" xmlns="http://www.w3.org/2000/svg" width="32" height="32" viewBox="0 0 32 32">
<title>cloud-rain</title>
<path d="M7.406 23.075c-0.175-0.637-0.737-1.069-1.394-1.075-0.725 0.044-1.231 0.425-1.419 1.069-0.294 1.019-0.737 1.681-1.175 2.319-0.538 0.794-1.087 1.613-1.087 2.831 0 2.087 1.644 3.781 3.669 3.781s3.669-1.694 3.669-3.781c0-1.225-0.55-2.038-1.088-2.825-0.438-0.644-0.881-1.3-1.175-2.319zM6 30c-0.919 0-1.669-0.8-1.669-1.781 0-0.581 0.256-0.988 0.744-1.706 0.287-0.425 0.619-0.919 0.919-1.538 0.3 0.619 0.638 1.113 0.925 1.538 0.487 0.719 0.744 1.125 0.744 1.706 0.006 0.981-0.744 1.781-1.663 1.781zM17.406 23.075c-0.175-0.637-0.738-1.069-1.394-1.075h-0.012c-0.656 0-1.219 0.425-1.406 1.069-0.294 1.019-0.738 1.681-1.175 2.319-0.537 0.794-1.088 1.613-1.088 2.831 0 2.087 1.644 3.781 3.669 3.781s3.669-1.694 3.669-3.781c0-1.225-0.55-2.038-1.087-2.825-0.438-0.644-0.881-1.3-1.175-2.319zM16 30c-0.919 0-1.669-0.8-1.669-1.781 0-0.581 0.256-0.988 0.744-1.706 0.287-0.425 0.619-0.919 0.919-1.538 0.3 0.619 0.638 1.113 0.925 1.538 0.488 0.719 0.744 1.125 0.744 1.706 0.006 0.981-0.744 1.781-1.662 1.781zM27.406 23.075c-0.175-0.637-0.738-1.069-1.394-1.075-0.65 0.044-1.231 0.425-1.419 1.069-0.294 1.019-0.738 1.681-1.175 2.319-0.538 0.794-1.087 1.613-1.087 2.831 0 2.087 1.644 3.781 3.669 3.781s3.669-1.694 3.669-3.781c0-1.225-0.55-2.038-1.087-2.825-0.438-0.644-0.881-1.3-1.175-2.319zM26 30c-0.919 0-1.669-0.8-1.669-1.781 0-0.581 0.256-0.988 0.744-1.706 0.288-0.425 0.619-0.919 0.919-1.538 0.3 0.619 0.637 1.113 0.925 1.538 0.488 0.719 0.744 1.125 0.744 1.706 0.006 0.981-0.744 1.781-1.663 1.781zM25.981 7.019c-0.244-2.806-2.613-5.019-5.481-5.019-1.113 0-2.175 0.331-3.075 0.95-1.406-1.844-3.581-2.95-5.925-2.95-4.138 0-7.5 3.362-7.5 7.5v0.025c-2.394 1-4 3.344-4 5.975 0 3.581 2.919 6.5 6.5 6.5h19c3.581 0 6.5-2.919 6.5-6.5 0-3.425-2.663-6.237-6.019-6.481zM25.5 18h-19c-2.481 0-4.5-2.019-4.5-4.5 0-2.019 1.369-3.794 3.331-4.325l0.831-0.225-0.125-1.075c-0.019-0.125-0.037-0.25-0.037-0.375 0-3.031 2.469-5.5 5.5-5.5 2.012 0 3.863 1.119 4.825 2.925l0.663 1.237 0.95-1.031c0.681-0.731 1.587-1.131 2.563-1.131 1.931 0 3.5 1.569 3.5 3.5 0 0.1-0.019 0.194-0.050 0.431l-0.156 1.25 1.469-0.15c0.075-0.012 0.156-0.025 0.238-0.025 2.481 0 4.5 2.019 4.5 4.5s-2.019 4.494-4.5 4.494z"></path>
</svg>
