<!-- Generated by IcoMoon.io -->
<svg version="1.1" xmlns="http://www.w3.org/2000/svg" width="40" height="32" viewBox="0 0 40 32">
<title>clouds</title>
<path d="M33.981 19.019c-0.244-2.806-2.606-5.019-5.481-5.019-0.444 0-0.875 0.069-1.294 0.169 0.494-0.956 0.794-2.025 0.794-3.169 0-3.862-3.137-7-7-7-0.656 0-1.306 0.094-1.938 0.281-1.375-2.594-4.1-4.281-7.063-4.281-3.863 0-7.112 2.744-7.819 6.487-2.462 0.737-4.181 3-4.181 5.625 0 3.25 2.644 5.887 5.888 5.887h6.263c-0.1 0.488-0.15 0.988-0.15 1.5v0.025c-2.394 1-4 3.344-4 5.975 0 3.581 2.919 6.5 6.5 6.5h19c3.581 0 6.5-2.919 6.5-6.5 0-3.425-2.663-6.238-6.019-6.481zM5.888 16c-2.144 0-3.888-1.744-3.888-3.887 0-1.894 1.362-3.5 3.237-3.819l0.75-0.125 0.075-0.756c0.313-3.088 2.863-5.412 5.938-5.412 2.469 0 4.719 1.563 5.6 3.894l0.375 1 0.969-0.438c0.663-0.3 1.356-0.456 2.056-0.456 2.756 0 5 2.244 5 5 0 1.244-0.462 2.381-1.231 3.263-1.387-1.406-3.25-2.262-5.269-2.262-2.863 0-5.331 1.631-6.594 4h-7.019zM33.5 30h-19c-2.481 0-4.5-2.019-4.5-4.5 0-2.019 1.369-3.794 3.331-4.325l0.831-0.225-0.125-1.075c-0.019-0.125-0.037-0.25-0.037-0.375 0-3.031 2.469-5.5 5.5-5.5 2.012 0 3.863 1.119 4.825 2.925l0.663 1.238 0.95-1.031c0.675-0.731 1.587-1.131 2.563-1.131 1.931 0 3.5 1.569 3.5 3.5 0 0.1-0.019 0.194-0.050 0.431l-0.156 1.25 1.469-0.15c0.075-0.012 0.156-0.025 0.237-0.025 2.481 0 4.5 2.019 4.5 4.5s-2.019 4.494-4.5 4.494z"></path>
</svg>
