<!-- Generated by IcoMoon.io -->
<svg version="1.1" xmlns="http://www.w3.org/2000/svg" width="40" height="32" viewBox="0 0 40 32">
<title>clouds-sun</title>
<path d="M40 16.144c0-3.225-2.513-5.844-5.6-5.844h-0.031c-1.038-2.544-3.456-4.325-6.212-4.325-2.9 0-5.387 1.881-6.344 4.638-1.581 0.55-2.825 1.819-3.419 3.431-3.019 0.313-5.394 2.844-5.394 5.944 0 0.113 0.006 0.231 0.012 0.35-2.375 0.825-4.012 3.075-4.012 5.656 0 3.313 2.694 6.006 6 6.006h15c3.306 0 6-2.694 6-6.006 0-1.544-0.587-2.944-1.55-4.006 3.063-0.031 5.55-2.637 5.55-5.844zM30 30h-15c-2.206 0-4-1.794-4-4.006 0-1.938 1.387-3.594 3.3-3.931l1.031-0.181-0.225-1.019c-0.069-0.313-0.106-0.6-0.106-0.869 0-2.206 1.794-4.006 4-4.006 1.538 0 2.95 0.906 3.613 2.313l0.538 1.15 0.988-0.794c0.55-0.438 1.194-0.669 1.863-0.669 1.656 0 3 1.344 3 3v1h1c2.206 0 4 1.794 4 4.006s-1.794 4.006-4 4.006zM34.4 19.988h-3.506c-0.469-2.281-2.481-4.006-4.894-4.006-0.75 0-1.481 0.169-2.15 0.494-0.813-1.125-2-1.925-3.325-2.281 0.6-1.081 1.669-1.819 2.919-1.881 0.35-2.456 2.313-4.338 4.706-4.338 2.519 0 4.556 2.081 4.744 4.719 0.462-0.231 0.956-0.394 1.5-0.394 1.987 0 3.6 1.719 3.6 3.844 0.006 2.125-1.606 3.844-3.594 3.844zM10.344 19.506c-0.131-0.063-0.269-0.106-0.412-0.106-0.063 0-0.131 0.006-0.194 0.019l-3.95 0.781 0.781-3.95c0.075-0.394-0.088-0.8-0.425-1.031l-3.344-2.238 3.344-2.238c0.338-0.225 0.5-0.631 0.425-1.031l-0.781-3.95 3.95 0.781c0.406 0.081 0.8-0.094 1.025-0.425l2.237-3.344 2.238 3.35c0.225 0.331 0.619 0.506 1.025 0.425l3.95-0.781-0.756 3.825c0.262-0.175 0.525-0.344 0.813-0.488 0.456-0.981 1.094-1.838 1.831-2.575l0.363-1.844c0.063-0.325-0.038-0.662-0.275-0.9s-0.563-0.344-0.9-0.275l-4.762 0.944-2.694-4.037c-0.375-0.556-1.287-0.556-1.662 0l-2.7 4.037-4.763-0.95c-0.331-0.069-0.662 0.044-0.9 0.275-0.237 0.238-0.337 0.575-0.275 0.9l0.944 4.769-4.031 2.7c-0.275 0.188-0.444 0.5-0.444 0.831s0.169 0.644 0.444 0.831l4.031 2.7-0.944 4.762c-0.063 0.331 0.038 0.669 0.275 0.9s0.575 0.337 0.9 0.275l3.519-0.694c0.55-0.875 1.269-1.644 2.119-2.25zM13 9.363c1.8 0 3.281 1.325 3.556 3.050 0.15-0.050 0.3-0.113 0.456-0.15 0.313-0.563 0.7-1.069 1.125-1.531-0.869-1.981-2.844-3.369-5.137-3.369-3.094 0-5.612 2.519-5.612 5.619 0 2.469 1.606 4.544 3.819 5.3 0.144-0.663 0.369-1.288 0.662-1.881-1.438-0.475-2.487-1.819-2.487-3.419 0.006-1.994 1.625-3.619 3.619-3.619z"></path>
</svg>
