<!-- Generated by IcoMoon.io -->
<svg version="1.1" xmlns="http://www.w3.org/2000/svg" width="40" height="32" viewBox="0 0 40 32">
<title>clouds-sun-solid</title>
<path d="M32 20h-0.1c-0.462-2.281-2.481-4-4.9-4-1.538 0-2.894 0.706-3.813 1.8-1.163-2.244-3.488-3.8-6.188-3.8-3.644 0-6.6 2.794-6.931 6.35-2.362 0.806-4.069 3.019-4.069 5.65 0 3.313 2.688 6 6 6h20c3.313 0 6-2.688 6-6s-2.688-6-6-6zM35 10h-1.1c-0.462-2.281-2.481-4-4.9-4s-4.438 1.719-4.9 4h-1.1c-1.725 0-3.238 0.869-4.137 2.194 1.819 0.387 3.469 1.331 4.725 2.706 1.031-0.588 2.206-0.906 3.413-0.906 2.788 0 5.269 1.662 6.381 4.119 1.281 0.225 2.444 0.769 3.438 1.525 1.862-0.731 3.181-2.531 3.181-4.644 0-2.756-2.237-4.994-5-4.994zM8.269 18.95c0.15-0.644 0.381-1.244 0.656-1.819-0.412-0.25-0.813-0.531-1.169-0.887-2.337-2.338-2.337-6.144 0-8.488 2.337-2.338 6.144-2.338 8.488 0 0.762 0.762 1.244 1.681 1.506 2.65 0.381-0.438 0.806-0.831 1.288-1.162l1.644-4.9c0.212-0.638-0.394-1.237-1.031-1.025l-4.706 1.569-2.219-4.438c-0.3-0.6-1.156-0.6-1.456 0l-2.219 4.438-4.706-1.569c-0.638-0.212-1.237 0.394-1.031 1.031l1.569 4.706-4.438 2.219c-0.6 0.3-0.6 1.156 0 1.456l4.438 2.219-1.569 4.706c-0.212 0.637 0.394 1.238 1.031 1.031l2.669-0.887c0.394-0.319 0.806-0.613 1.256-0.85zM8 12c0 1.463 0.8 2.738 1.981 3.431 1.444-1.844 3.575-3.075 6.012-3.344 0-0.031 0.006-0.056 0.006-0.088 0-2.206-1.794-4-4-4s-4 1.794-4 4z"></path>
</svg>
