<!-- Generated by IcoMoon.io -->
<svg version="1.1" xmlns="http://www.w3.org/2000/svg" width="40" height="32" viewBox="0 0 40 32">
<title>cloud-sun-rain</title>
<path d="M18.637 26.131c-0.475-0.269-1.087-0.113-1.363 0.375l-2.287 4c-0.275 0.481-0.106 1.087 0.375 1.363 0.156 0.087 0.325 0.131 0.494 0.131 0.344 0 0.681-0.181 0.869-0.506l2.288-4c0.275-0.481 0.106-1.087-0.375-1.363zM12 8.75c1.65 0 3 1.25 3.194 2.85 0.3-0.225 0.613-0.431 0.944-0.619 0.094-0.525 0.244-1.031 0.425-1.519-0.894-1.606-2.594-2.713-4.563-2.713-2.887 0-5.231 2.35-5.231 5.237s2.344 5.238 5.231 5.238c0.019 0 0.037-0.006 0.056-0.006 0.069-0.712 0.231-1.4 0.481-2.050-0.175 0.031-0.35 0.056-0.531 0.056-1.781 0-3.231-1.45-3.231-3.231-0.006-1.787 1.444-3.244 3.225-3.244zM10.019 18.231c-0.225-0.331-0.619-0.506-1.025-0.425l-3.5 0.694 0.694-3.5c0.075-0.4-0.088-0.8-0.425-1.025l-2.962-1.988 2.962-1.988c0.338-0.225 0.5-0.631 0.425-1.025l-0.694-3.5 3.5 0.694c0.406 0.081 0.8-0.088 1.025-0.425l1.981-2.969 1.988 2.969c0.225 0.331 0.625 0.506 1.025 0.425l4.963-0.981c0.544-0.106 0.894-0.631 0.788-1.175s-0.644-0.906-1.175-0.788l-4.306 0.85-2.45-3.656c-0.369-0.556-1.287-0.556-1.662 0l-2.444 3.656-4.313-0.856c-0.331-0.069-0.669 0.038-0.9 0.275-0.237 0.237-0.337 0.575-0.275 0.906l0.856 4.313-3.65 2.444c-0.275 0.188-0.444 0.494-0.444 0.831 0 0.331 0.169 0.644 0.444 0.831l3.65 2.444-0.856 4.312c-0.063 0.331 0.038 0.669 0.275 0.906s0.562 0.344 0.9 0.275l4.306-0.856 2.444 3.656c0.194 0.288 0.512 0.444 0.831 0.444 0.194 0 0.387-0.056 0.556-0.169 0.456-0.306 0.581-0.931 0.275-1.387l-2.806-4.213zM30.637 26.131c-0.475-0.269-1.087-0.113-1.363 0.375l-2.288 4c-0.275 0.481-0.106 1.087 0.375 1.363 0.156 0.087 0.325 0.131 0.494 0.131 0.344 0 0.681-0.181 0.869-0.506l2.288-4c0.275-0.481 0.106-1.087-0.375-1.363zM35.956 12.331c-0.331-2.444-2.425-4.331-4.956-4.331-0.538 0-1.063 0.088-1.575 0.269-1.231-1.431-3.012-2.269-4.925-2.269-3.531 0-6.419 2.831-6.5 6.35-2.363 0.831-4 3.081-4 5.65 0 3.306 2.694 6 6 6h14c3.306 0 6-2.694 6-6 0-2.581-1.663-4.85-4.044-5.669zM34 22h-14c-2.206 0-4-1.794-4-4 0-1.913 1.363-3.563 3.25-3.925l0.906-0.175-0.125-1.125c-0.012-0.094-0.025-0.181-0.025-0.275 0-2.481 2.019-4.5 4.5-4.5 1.519 0 2.925 0.762 3.762 2.050l0.506 0.775 0.813-0.444c2.044-1.113 4.419 0.512 4.425 2.525l-0.013 1.012 0.8 0.162c1.862 0.375 3.206 2.019 3.206 3.919-0.006 2.206-1.8 4-4.006 4zM36.638 26.131c-0.475-0.269-1.087-0.113-1.362 0.375l-2.288 4c-0.275 0.481-0.106 1.087 0.375 1.363 0.156 0.087 0.325 0.131 0.494 0.131 0.344 0 0.681-0.181 0.869-0.506l2.288-4c0.275-0.481 0.106-1.087-0.375-1.363zM24.637 26.131c-0.475-0.269-1.087-0.113-1.363 0.375l-2.288 4c-0.275 0.481-0.106 1.087 0.375 1.363 0.156 0.087 0.325 0.131 0.494 0.131 0.344 0 0.681-0.181 0.869-0.506l2.288-4c0.275-0.481 0.106-1.087-0.375-1.363z"></path>
</svg>
