<!-- Generated by IcoMoon.io -->
<svg version="1.1" xmlns="http://www.w3.org/2000/svg" width="32" height="32" viewBox="0 0 32 32">
<title>cloud-rain-solid</title>
<path d="M26 8c-0.038 0-0.069 0.012-0.1 0.012 0.069-0.325 0.1-0.662 0.1-1.013 0-2.763-2.238-5-5-5-1.538 0-2.894 0.706-3.813 1.8-1.163-2.25-3.481-3.8-6.188-3.8-3.869 0-7 3.131-7 7 0 0.456 0.050 0.894 0.131 1.325-2.394 0.787-4.131 3.019-4.131 5.675 0 3.313 2.688 6 6 6h20c3.313 0 6-2.688 6-6s-2.688-6-6-6zM5.5 23.387c-0.8 2.775-2.5 3.525-2.5 5.481 0 1.731 1.344 3.131 3 3.131s3-1.4 3-3.131c0-1.962-1.7-2.694-2.5-5.481-0.138-0.506-0.844-0.531-1 0zM15.5 23.387c-0.8 2.775-2.5 3.525-2.5 5.481 0 1.731 1.344 3.131 3 3.131s3-1.4 3-3.131c0-1.962-1.7-2.694-2.5-5.481-0.137-0.506-0.844-0.531-1 0zM25.5 23.387c-0.8 2.775-2.5 3.525-2.5 5.481 0 1.731 1.344 3.131 3 3.131s3-1.4 3-3.131c0-1.962-1.7-2.694-2.5-5.481-0.137-0.506-0.844-0.531-1 0z"></path>
</svg>
