<!-- Generated by IcoMoon.io -->
<svg version="1.1" xmlns="http://www.w3.org/2000/svg" width="40" height="32" viewBox="0 0 40 32">
<title>cloud-sun</title>
<path d="M33.981 19.019c-0.244-2.806-2.606-5.019-5.481-5.019-1.113 0-2.175 0.331-3.075 0.95-1.406-1.844-3.581-2.95-5.925-2.95-4.137 0-7.5 3.363-7.5 7.5v0.025c-2.394 1-4 3.344-4 5.975 0 3.581 2.919 6.5 6.5 6.5h19c3.581 0 6.5-2.919 6.5-6.5 0-3.425-2.663-6.238-6.019-6.481zM33.5 30h-19c-2.481 0-4.5-2.019-4.5-4.5 0-2.019 1.369-3.794 3.331-4.325l0.831-0.225-0.125-1.075c-0.019-0.125-0.037-0.25-0.037-0.375 0-3.031 2.469-5.5 5.5-5.5 2.012 0 3.863 1.119 4.825 2.925l0.663 1.238 0.95-1.031c0.675-0.731 1.587-1.131 2.563-1.131 1.931 0 3.5 1.569 3.5 3.5 0 0.1-0.019 0.194-0.050 0.431l-0.156 1.25 1.469-0.15c0.075-0.012 0.156-0.025 0.237-0.025 2.481 0 4.5 2.019 4.5 4.5s-2.019 4.494-4.5 4.494zM5.787 20.188l0.781-3.95c0.075-0.394-0.088-0.8-0.425-1.025l-3.344-2.237 3.344-2.238c0.338-0.225 0.5-0.631 0.425-1.025l-0.781-3.956 3.95 0.781c0.4 0.081 0.8-0.094 1.025-0.425l2.237-3.344 2.238 3.344c0.225 0.331 0.619 0.506 1.025 0.425l3.95-0.781-0.781 3.95c-0.019 0.1-0.006 0.2 0 0.3 0.025 0 0.044-0.006 0.069-0.006 0.631 0 1.25 0.069 1.85 0.188 0.012-0.031 0.031-0.056 0.038-0.094l1.075-5.419c0.063-0.325-0.038-0.662-0.275-0.9s-0.575-0.344-0.9-0.275l-4.762 0.944-2.694-4.025c-0.375-0.556-1.287-0.556-1.662 0l-2.7 4.031-4.756-0.944c-0.331-0.069-0.669 0.038-0.9 0.275-0.237 0.237-0.337 0.575-0.275 0.9l0.944 4.763-4.037 2.694c-0.275 0.188-0.444 0.5-0.444 0.831s0.169 0.644 0.444 0.831l4.031 2.7-0.944 4.762c-0.063 0.325 0.038 0.663 0.275 0.9 0.188 0.188 0.444 0.294 0.706 0.294 0.063 0 0.131-0.006 0.194-0.019l2.050-0.406c0.388-0.863 0.912-1.656 1.569-2.35l-2.537 0.506zM13 9.356c1.156 0 2.175 0.556 2.838 1.4 0.638-0.269 1.3-0.475 1.994-0.6-0.975-1.662-2.762-2.8-4.831-2.8-3.094 0-5.612 2.519-5.612 5.612 0 2.063 1.131 3.856 2.8 4.831 0.125-0.694 0.331-1.356 0.6-1.994-0.85-0.662-1.4-1.681-1.4-2.838 0-1.988 1.619-3.613 3.613-3.613z"></path>
</svg>
