<!-- Generated by IcoMoon.io -->
<svg version="1.1" xmlns="http://www.w3.org/2000/svg" width="40" height="32" viewBox="0 0 40 32">
<title>cloud-moon</title>
<path d="M21.969 19.6c-0.281-2.581-2.475-4.6-5.131-4.6-0.869 0-1.706 0.219-2.469 0.644-1.144-1.050-2.619-1.644-4.175-1.644-3.356 0-6.094 2.675-6.2 6.013-2.394 0.894-4 3.169-4 5.794 0.006 3.413 2.788 6.194 6.206 6.194h15.6c3.419 0 6.2-2.781 6.2-6.2 0-3.363-2.688-6.106-6.031-6.2zM21.8 30h-15.6c-2.319 0-4.2-1.881-4.2-4.2 0-1.975 1.344-3.656 3.275-4.088l0.875-0.369-0.125-0.913c-0.013-0.075-0.025-0.156-0.025-0.238 0-2.319 1.881-4.2 4.2-4.2 1.256 0 2.438 0.575 3.25 1.575l0.631 0.781 0.775-0.631c0.581-0.469 1.269-0.719 1.981-0.719 1.744 0 3.163 1.419 3.163 3.163 0 0.094-0.012 0.175-0.044 0.4l-0.163 1.331 1.325-0.225c0.225-0.038 0.45-0.075 0.688-0.075 2.319 0 4.2 1.887 4.2 4.2s-1.887 4.206-4.206 4.206zM39.85 17.95c-0.256-0.538-0.775-0.869-1.362-0.869-0.094 0-0.188 0.006-0.288 0.025-0.481 0.094-0.969 0.137-1.45 0.137-4.188 0-7.594-3.419-7.594-7.619 0-2.731 1.475-5.269 3.85-6.625 0.556-0.319 0.85-0.938 0.744-1.569-0.106-0.637-0.587-1.119-1.219-1.238-0.719-0.125-1.45-0.194-2.188-0.194-6.606 0-11.988 5.381-11.988 12 0 0.406 0.025 0.8 0.069 1.2 0.794 0.181 1.538 0.488 2.212 0.912-0.163-0.681-0.281-1.375-0.281-2.106 0-5.513 4.481-10 9.988-10 0.188 0 0.369 0.006 0.556 0.013-2.337 1.806-3.744 4.619-3.744 7.619 0 5.3 4.306 9.613 9.594 9.613 0.163 0 0.325-0.006 0.487-0.012-1.85 1.769-4.3 2.762-6.894 2.762-0.469 0-0.925-0.044-1.369-0.119 0.356 0.644 0.606 1.344 0.781 2.069 0.194 0.012 0.387 0.044 0.587 0.044 3.631 0 7.025-1.619 9.313-4.444 0.375-0.45 0.45-1.069 0.194-1.6z"></path>
</svg>
