<!-- Generated by IcoMoon.io -->
<svg version="1.1" xmlns="http://www.w3.org/2000/svg" width="32" height="32" viewBox="0 0 32 32">
<title>cloud-meatball-solid</title>
<path d="M3 22c-1.656 0-3 1.344-3 3s1.344 3 3 3 3-1.344 3-3-1.344-3-3-3zM29 22c-1.656 0-3 1.344-3 3s1.344 3 3 3 3-1.344 3-3-1.344-3-3-3zM21.563 22.694c0.288-0.906 0.1-1.925-0.613-2.644-0.719-0.719-1.738-0.9-2.644-0.619-0.438-0.844-1.294-1.438-2.306-1.438s-1.869 0.594-2.306 1.438c-0.906-0.288-1.925-0.1-2.644 0.619s-0.9 1.738-0.619 2.644c-0.844 0.438-1.438 1.294-1.438 2.306s0.594 1.869 1.438 2.306c-0.287 0.906-0.1 1.925 0.619 2.644 0.512 0.512 1.181 0.769 1.856 0.769 0.269 0 0.531-0.069 0.787-0.156 0.438 0.844 1.294 1.438 2.306 1.438s1.869-0.594 2.306-1.438c0.256 0.081 0.519 0.156 0.788 0.156 0.675 0 1.344-0.256 1.856-0.769 0.719-0.719 0.9-1.738 0.613-2.644 0.844-0.438 1.438-1.294 1.438-2.306s-0.594-1.869-1.438-2.306zM32 14c0-3.313-2.688-6-6-6-0.038 0-0.069 0.012-0.1 0.012 0.069-0.325 0.1-0.662 0.1-1.013 0-2.763-2.238-5-5-5-1.538 0-2.894 0.706-3.813 1.8-1.163-2.25-3.481-3.8-6.188-3.8-3.869 0-7 3.131-7 7 0 0.456 0.050 0.894 0.131 1.325-2.394 0.787-4.131 3.019-4.131 5.675 0 3.313 2.688 6 6 6h2.713c0.225-0.5 0.525-0.962 0.925-1.363 0.844-0.844 1.969-1.319 3.175-1.331 0.844-0.825 1.981-1.306 3.188-1.306s2.344 0.481 3.188 1.306c1.206 0.012 2.331 0.488 3.175 1.331 0.4 0.4 0.706 0.863 0.925 1.363h2.712c3.313 0 6-2.688 6-6z"></path>
</svg>
