<!-- Generated by IcoMoon.io -->
<svg version="1.1" xmlns="http://www.w3.org/2000/svg" width="32" height="32" viewBox="0 0 32 32">
<title>cloud-meatball</title>
<path d="M3 22c-1.656 0-3 1.344-3 3s1.344 3 3 3 3-1.344 3-3-1.344-3-3-3zM3 26c-0.55 0-1-0.45-1-1s0.45-1 1-1 1 0.45 1 1-0.45 1-1 1zM29 22c-1.656 0-3 1.344-3 3s1.344 3 3 3 3-1.344 3-3-1.344-3-3-3zM29 26c-0.55 0-1-0.45-1-1s0.45-1 1-1 1 0.45 1 1-0.45 1-1 1zM21.656 18.344c-0.762-0.762-1.831-1.119-2.894-1.019-1.363-1.662-4.169-1.662-5.525 0-1.056-0.1-2.125 0.256-2.894 1.019-0.762 0.762-1.125 1.825-1.019 2.894-0.831 0.681-1.325 1.688-1.325 2.762s0.494 2.081 1.325 2.762c-0.106 1.069 0.256 2.131 1.019 2.894 0.769 0.769 1.906 1.188 2.906 1.038 0.681 0.819 1.675 1.306 2.75 1.306s2.069-0.488 2.75-1.306c1.012 0.15 2.137-0.269 2.906-1.038 0.762-0.762 1.125-1.825 1.019-2.894 0.831-0.681 1.325-1.688 1.325-2.762s-0.494-2.081-1.325-2.762c0.106-1.069-0.256-2.131-1.019-2.894zM21.106 25.419l-0.744 0.387 0.256 0.8c0.188 0.594 0.050 1.219-0.369 1.637-0.306 0.306-0.712 0.475-1.15 0.475-0.125 0-0.281-0.044-0.488-0.106l-0.8-0.256-0.387 0.75c-0.575 1.106-2.262 1.106-2.838 0l-0.387-0.75-0.8 0.256c-0.2 0.063-0.363 0.106-0.488 0.106-0.431 0-0.844-0.169-1.15-0.475-0.419-0.419-0.556-1.044-0.369-1.637l0.256-0.8-0.744-0.387c-0.55-0.288-0.894-0.831-0.894-1.419s0.344-1.131 0.894-1.419l0.744-0.387-0.256-0.8c-0.188-0.594-0.050-1.219 0.369-1.637s1.044-0.556 1.637-0.369l0.8 0.256 0.387-0.744c0.575-1.106 2.262-1.106 2.837 0l0.387 0.744 0.8-0.256c0.587-0.188 1.219-0.050 1.637 0.369s0.556 1.044 0.369 1.637l-0.256 0.8 0.744 0.387c0.55 0.288 0.894 0.831 0.894 1.419s-0.344 1.131-0.894 1.419zM32 13.5c0-3.425-2.663-6.237-6.019-6.481-0.244-2.806-2.613-5.019-5.481-5.019-1.113 0-2.175 0.331-3.075 0.95-1.406-1.844-3.581-2.95-5.925-2.95-4.138 0-7.5 3.362-7.5 7.5v0.025c-2.394 1-4 3.344-4 5.975 0 3.581 2.919 6.5 6.5 6.5h0.894c0.112-0.712 0.356-1.387 0.725-2h-1.619c-2.481 0-4.5-2.019-4.5-4.5 0-2.019 1.369-3.794 3.331-4.325l0.831-0.225-0.125-1.075c-0.019-0.125-0.037-0.25-0.037-0.375 0-3.031 2.469-5.5 5.5-5.5 2.012 0 3.863 1.119 4.825 2.925l0.663 1.237 0.95-1.031c0.681-0.731 1.587-1.131 2.563-1.131 1.931 0 3.5 1.569 3.5 3.5 0 0.1-0.019 0.194-0.050 0.431l-0.156 1.25 1.469-0.15c0.075-0.012 0.156-0.025 0.238-0.025 2.481 0 4.5 2.019 4.5 4.5s-2.019 4.5-4.5 4.5h-1.619c0.369 0.613 0.613 1.288 0.725 2h0.894c3.581-0.006 6.5-2.925 6.5-6.506z"></path>
</svg>
