<!-- Generated by IcoMoon.io -->
<svg version="1.1" xmlns="http://www.w3.org/2000/svg" width="36" height="32" viewBox="0 0 36 32">
<title>cloud-moon-rain-solid</title>
<path d="M21.906 14.094c-0.431-2.325-2.456-4.094-4.906-4.094-0.769 0-1.494 0.188-2.144 0.5-1.088-1.506-2.85-2.5-4.856-2.5-3.313 0-6 2.688-6 6 0 0.031 0.013 0.069 0.013 0.1-2.288 0.456-4.013 2.475-4.013 4.9 0 2.762 2.237 5 5 5h16c2.762 0 5-2.238 5-5 0-2.45-1.762-4.481-4.094-4.906zM35.494 13.988c-4.4 0.831-8.438-2.519-8.438-6.925 0-2.538 1.369-4.875 3.594-6.131 0.344-0.194 0.256-0.713-0.131-0.781-0.544-0.1-1.1-0.15-1.656-0.15-4.869 0-8.819 3.825-9.025 8.619 1.669 0.744 3.012 2.113 3.681 3.856 2.319 0.894 4 2.963 4.387 5.425 0.319 0.031 0.625 0.094 0.95 0.094 2.794 0 5.35-1.262 7.038-3.331 0.263-0.3-0.013-0.75-0.4-0.675zM22.781 26.131c-0.475-0.269-1.087-0.113-1.363 0.375l-2.288 4c-0.275 0.481-0.106 1.087 0.375 1.363 0.156 0.087 0.325 0.131 0.494 0.131 0.344 0 0.681-0.181 0.869-0.506l2.288-4c0.269-0.481 0.106-1.087-0.375-1.363zM16.781 26.131c-0.475-0.269-1.088-0.113-1.363 0.375l-2.287 4c-0.275 0.481-0.106 1.087 0.375 1.363 0.156 0.087 0.325 0.131 0.494 0.131 0.344 0 0.681-0.181 0.869-0.506l2.287-4c0.269-0.481 0.106-1.087-0.375-1.363zM10.781 26.131c-0.475-0.269-1.088-0.113-1.363 0.375l-2.287 4c-0.275 0.481-0.106 1.087 0.375 1.363 0.156 0.087 0.325 0.131 0.494 0.131 0.344 0 0.681-0.181 0.869-0.506l2.287-4c0.269-0.481 0.106-1.087-0.375-1.363zM4.781 26.131c-0.475-0.269-1.087-0.113-1.362 0.375l-2.288 4c-0.275 0.481-0.106 1.087 0.375 1.363 0.156 0.087 0.325 0.131 0.494 0.131 0.344 0 0.681-0.181 0.869-0.506l2.288-4c0.269-0.481 0.106-1.087-0.375-1.363z"></path>
</svg>
