<!-- Generated by IcoMoon.io -->
<svg version="1.1" xmlns="http://www.w3.org/2000/svg" width="40" height="32" viewBox="0 0 40 32">
<title>clouds-moon-solid</title>
<path d="M28 20h-0.1c-0.462-2.281-2.481-4-4.9-4-1.538 0-2.894 0.706-3.813 1.8-1.163-2.244-3.488-3.8-6.188-3.8-3.644 0-6.6 2.794-6.931 6.35-2.362 0.806-4.069 3.019-4.069 5.65 0 3.313 2.688 6 6 6h20c3.313 0 6-2.688 6-6s-2.688-6-6-6zM39.438 15.544c-4.888 0.925-9.375-2.794-9.375-7.694 0-2.819 1.519-5.412 3.994-6.813 0.381-0.213 0.288-0.787-0.15-0.869-0.6-0.113-1.219-0.169-1.837-0.169-5.556 0-10.069 4.475-10.069 10 0 0.044 0.012 0.081 0.012 0.125 1.019 1.050 1.688 2.425 1.894 3.944 2.406 0.319 4.481 1.869 5.475 4.050 1.444 0.25 2.75 0.9 3.819 1.819 2.656-0.294 5.044-1.625 6.694-3.637 0.275-0.344-0.025-0.838-0.456-0.756zM4.269 18.95c0.931-4.037 4.494-6.95 8.731-6.95 2.544 0 4.913 1.075 6.587 2.906 0.719-0.406 1.506-0.675 2.319-0.806-0.425-2.331-2.456-4.1-4.906-4.1h-1.1c-0.463-2.281-2.481-4-4.9-4s-4.438 1.719-4.9 4h-1.1c-2.763 0-5 2.238-5 5 0 2.119 1.325 3.925 3.188 4.65 0.344-0.256 0.7-0.5 1.081-0.7z"></path>
</svg>
