<!-- Generated by IcoMoon.io -->
<svg version="1.1" xmlns="http://www.w3.org/2000/svg" width="40" height="32" viewBox="0 0 40 32">
<title>cloud-sun-solid</title>
<path d="M35.95 20.356c0.013-0.119 0.050-0.231 0.050-0.35 0-2.206-1.794-4-4-4-0.788 0-1.512 0.238-2.131 0.625-1.1-2.425-3.531-4.125-6.369-4.125-3.863 0-7 3.131-7 7 0 0.188 0.044 0.363 0.056 0.544-3.1 0.231-5.556 2.794-5.556 5.956 0 3.313 2.688 6 6 6h17c3.313 0 6-2.688 6-6 0-2.631-1.7-4.837-4.050-5.65zM9.050 18.944c-2.731-2.731-2.731-7.169 0-9.894 2.731-2.731 7.169-2.731 9.9 0 0.606 0.606 1.056 1.306 1.394 2.044 0.613-0.231 1.256-0.375 1.919-0.469l1.863-5.556c0.25-0.744-0.456-1.444-1.2-1.2l-5.488 1.831-2.594-5.175c-0.344-0.7-1.344-0.7-1.694 0l-2.588 5.175-5.494-1.831c-0.737-0.244-1.444 0.463-1.2 1.2l1.831 5.487-5.175 2.594c-0.7 0.35-0.7 1.344 0 1.694l5.175 2.588-1.831 5.488c-0.25 0.744 0.456 1.444 1.2 1.2l4.756-1.581c0.381-0.775 0.875-1.481 1.475-2.094-0.819-0.337-1.588-0.837-2.25-1.5zM8.75 13.994c0 2.55 1.831 4.675 4.244 5.144 0.5-0.294 1.019-0.55 1.575-0.731 0.338-2.769 1.938-5.156 4.213-6.563-0.825-1.819-2.656-3.094-4.781-3.094-2.894 0-5.25 2.35-5.25 5.244z"></path>
</svg>
