<!-- Generated by IcoMoon.io -->
<svg version="1.1" xmlns="http://www.w3.org/2000/svg" width="40" height="32" viewBox="0 0 40 32">
<title>cloud-music</title>
<path d="M35.731 14.925c0.171-0.577 0.27-1.239 0.27-1.925 0-3.866-3.134-7-7-7-0 0-0 0-0.001 0h0c-0.006-0-0.013-0-0.020-0-1.083 0-2.108 0.249-3.021 0.693l0.041-0.018c-2.014-2.842-5.29-4.675-8.994-4.675-0.002 0-0.004 0-0.006 0h0c-5.901 0-10.731 4.656-10.988 10.512-3.529 1.271-6.006 4.59-6.006 8.488 0 4.969 4.026 8.997 8.994 9h23c4.417-0.002 7.996-3.583 7.996-8 0-3.052-1.709-5.705-4.223-7.054l-0.043-0.021zM32 28h-23c-0.001 0-0.003 0-0.004 0-3.866 0-7-3.134-7-7 0-3.537 2.623-6.461 6.030-6.933l0.037-0.004c-0.040-0.313-0.063-0.674-0.063-1.041 0-0.008 0-0.015 0-0.023v0.001c0.002-4.971 4.032-9 9.003-9 3.745 0 6.956 2.287 8.313 5.54l0.022 0.060c0.915-0.973 2.21-1.579 3.647-1.579 2.761 0 5 2.239 5 5 0 1.156-0.392 2.22-1.050 3.066l0.008-0.011c2.882 0.473 5.054 2.945 5.054 5.925 0 3.313-2.685 5.999-5.997 6h-0zM22.699 11.047l-8 2.953c-0.409 0.132-0.699 0.508-0.699 0.953v6.172c-0.299-0.077-0.644-0.122-0.998-0.125h-0.002c-1.656 0-3 0.896-3 2s1.344 2 3 2 3-0.896 3-2v-6.803l6-2.345v5.272c-0.299-0.077-0.644-0.122-0.998-0.125h-0.002c-1.656 0-3 0.896-3 2s1.344 2 3 2 3-0.896 3-2v-9c-0-0.552-0.448-0.999-1-0.999-0.107 0-0.211 0.017-0.308 0.048l0.007-0.002z"></path>
</svg>
