<!-- Generated by IcoMoon.io -->
<svg version="1.1" xmlns="http://www.w3.org/2000/svg" width="36" height="32" viewBox="0 0 36 32">
<title>cloud-moon-solid</title>
<path d="M21.425 22.044c0.356-0.6 0.575-1.294 0.575-2.044 0-2.206-1.794-4-4-4-1.075 0-2.050 0.431-2.769 1.119-1.019-1.85-2.969-3.119-5.231-3.119-3.313 0-6 2.688-6 6 0 0.125 0.031 0.238 0.037 0.356-2.344 0.819-4.037 3.025-4.037 5.644 0 3.313 2.688 6 6 6h15c2.762 0 5-2.238 5-5 0-2.619-2.019-4.738-4.575-4.956zM35.331 18.65c-5.819 1.106-11.156-3.356-11.156-9.231 0-3.388 1.813-6.5 4.756-8.175 0.456-0.256 0.337-0.944-0.175-1.044-0.731-0.131-1.462-0.2-2.194-0.2-6.619 0-11.994 5.369-11.994 12 0 0.531 0.044 1.050 0.113 1.563 0.369 0.269 0.725 0.556 1.044 0.887 0.713-0.294 1.481-0.45 2.275-0.45 3.306 0 6 2.694 6 6 0 0.225-0.012 0.45-0.038 0.669 1.475 0.675 2.65 1.844 3.344 3.288 3.4-0.212 6.481-1.831 8.569-4.4 0.331-0.406-0.031-1.006-0.544-0.906z"></path>
</svg>
