<!-- Generated by IcoMoon.io -->
<svg version="1.1" xmlns="http://www.w3.org/2000/svg" width="32" height="32" viewBox="0 0 32 32">
<title>cloud-hail-mixed-solid</title>
<path d="M11.494 23.131c-0.475-0.275-1.088-0.113-1.363 0.375l-4 7c-0.275 0.481-0.106 1.094 0.375 1.363 0.156 0.087 0.325 0.131 0.494 0.131 0.344 0 0.681-0.181 0.869-0.506l4-7c0.275-0.475 0.106-1.087-0.375-1.363zM17.45 23.106c-0.494-0.244-1.094-0.050-1.344 0.45l-1 2c-0.244 0.494-0.050 1.094 0.45 1.344 0.144 0.069 0.3 0.106 0.45 0.106 0.363 0 0.719-0.2 0.894-0.55l1-2c0.238-0.506 0.044-1.106-0.45-1.35zM5.45 23.106c-0.494-0.244-1.094-0.050-1.344 0.45l-1 2c-0.244 0.494-0.050 1.094 0.45 1.344 0.144 0.069 0.3 0.106 0.45 0.106 0.362 0 0.719-0.2 0.894-0.55l1-2c0.237-0.506 0.044-1.106-0.45-1.35zM29.45 23.106c-0.494-0.244-1.094-0.050-1.344 0.45l-1 2c-0.244 0.494-0.050 1.094 0.45 1.344 0.144 0.069 0.3 0.106 0.45 0.106 0.363 0 0.719-0.2 0.894-0.55l1-2c0.238-0.506 0.044-1.106-0.45-1.35zM23.494 23.131c-0.475-0.275-1.087-0.113-1.363 0.375l-4 7c-0.275 0.481-0.106 1.094 0.375 1.363 0.156 0.087 0.325 0.131 0.494 0.131 0.344 0 0.681-0.181 0.869-0.506l4-7c0.275-0.475 0.106-1.087-0.375-1.363zM26 8c-0.038 0-0.069 0.012-0.1 0.012 0.069-0.325 0.1-0.662 0.1-1.013 0-2.763-2.238-5-5-5-1.538 0-2.894 0.706-3.813 1.8-1.163-2.25-3.481-3.8-6.188-3.8-3.869 0-7 3.131-7 7 0 0.456 0.050 0.894 0.131 1.325-2.394 0.787-4.131 3.019-4.131 5.675 0 3.313 2.688 6 6 6h20c3.313 0 6-2.688 6-6s-2.688-6-6-6zM2 28c-1.106 0-2 0.894-2 2s0.894 2 2 2 2-0.894 2-2-0.894-2-2-2zM14 28c-1.106 0-2 0.894-2 2s0.894 2 2 2 2-0.894 2-2-0.894-2-2-2zM26 28c-1.106 0-2 0.894-2 2s0.894 2 2 2 2-0.894 2-2-0.894-2-2-2z"></path>
</svg>
