<!-- Generated by IcoMoon.io -->
<svg version="1.1" xmlns="http://www.w3.org/2000/svg" width="36" height="32" viewBox="0 0 36 32">
<title>cloud-moon-rain</title>
<path d="M35.869 14.844c-0.225-0.481-0.719-0.787-1.244-0.787h-0.087l-0.175 0.025c-0.394 0.075-0.788 0.113-1.181 0.113-3.4 0-6.169-2.75-6.169-6.137 0-2.2 1.2-4.244 3.131-5.331 0.512-0.288 0.775-0.85 0.681-1.425-0.1-0.581-0.531-1.019-1.113-1.125-0.606-0.119-1.225-0.175-1.837-0.175-4.194 0-7.725 2.587-9.231 6.219 0.637 0.156 1.25 0.394 1.813 0.713 1.194-2.85 3.994-4.875 7.281-4.931-1.706 1.525-2.719 3.725-2.719 6.050 0 4.419 3.563 8.031 7.975 8.131-1.394 1.137-3.144 1.775-4.988 1.8v0.012c0 0.688-0.094 1.356-0.256 1.994 0.044 0 0.087 0.006 0.131 0.006 3.044 0 5.894-1.35 7.813-3.7 0.331-0.406 0.4-0.969 0.175-1.45zM21.956 12.331c-0.331-2.444-2.425-4.331-4.956-4.331-0.538 0-1.063 0.088-1.575 0.269-1.231-1.438-3.012-2.269-4.925-2.269-3.531 0-6.419 2.831-6.5 6.35-2.362 0.831-4 3.081-4 5.65 0 3.306 2.694 6 6 6h14c3.306 0 6-2.694 6-6 0-0.081-0.019-0.163-0.019-0.25-0.106-2.475-1.719-4.625-4.025-5.419zM20 22h-14c-2.206 0-4-1.794-4-4 0-1.913 1.362-3.563 3.25-3.925l0.906-0.175-0.125-1.125c-0.013-0.094-0.025-0.181-0.025-0.275 0-2.481 2.019-4.5 4.5-4.5 1.519 0 2.925 0.762 3.763 2.050l0.506 0.775 0.813-0.444c2.044-1.113 4.419 0.512 4.425 2.525l-0.012 1.012 0.8 0.162c1.863 0.375 3.206 2.019 3.206 3.919-0.006 2.206-1.8 4-4.006 4zM10.637 26.131c-0.475-0.269-1.088-0.113-1.363 0.375l-2.287 4c-0.275 0.481-0.106 1.087 0.375 1.363 0.156 0.087 0.325 0.131 0.494 0.131 0.344 0 0.681-0.181 0.869-0.506l2.287-4c0.275-0.481 0.106-1.087-0.375-1.363zM4.638 26.131c-0.475-0.269-1.087-0.113-1.362 0.375l-2.288 4c-0.275 0.481-0.106 1.087 0.375 1.363 0.156 0.087 0.325 0.131 0.494 0.131 0.344 0 0.681-0.181 0.869-0.506l2.288-4c0.275-0.481 0.106-1.087-0.375-1.363zM16.637 26.131c-0.475-0.269-1.088-0.113-1.363 0.375l-2.287 4c-0.275 0.481-0.106 1.087 0.375 1.363 0.156 0.087 0.325 0.131 0.494 0.131 0.344 0 0.681-0.181 0.869-0.506l2.287-4c0.275-0.481 0.106-1.087-0.375-1.363zM22.637 26.131c-0.475-0.269-1.087-0.113-1.363 0.375l-2.288 4c-0.275 0.481-0.106 1.087 0.375 1.363 0.156 0.087 0.325 0.131 0.494 0.131 0.344 0 0.681-0.181 0.869-0.506l2.288-4c0.275-0.481 0.106-1.087-0.375-1.363z"></path>
</svg>
