<!-- Generated by IcoMoon.io -->
<svg version="1.1" xmlns="http://www.w3.org/2000/svg" width="32" height="32" viewBox="0 0 32 32">
<title>cloud-showers</title>
<path d="M25.981 7.019c-0.244-2.806-2.613-5.019-5.481-5.019-1.113 0-2.175 0.331-3.075 0.95-1.406-1.844-3.581-2.95-5.925-2.95-4.138 0-7.5 3.362-7.5 7.5v0.025c-2.394 1-4 3.344-4 5.975 0 3.581 2.919 6.5 6.5 6.5h19c3.581 0 6.5-2.919 6.5-6.5 0-3.425-2.663-6.237-6.019-6.481zM25.5 18h-19c-2.481 0-4.5-2.019-4.5-4.5 0-2.019 1.369-3.794 3.331-4.325l0.831-0.225-0.125-1.075c-0.019-0.125-0.037-0.25-0.037-0.375 0-3.031 2.469-5.5 5.5-5.5 2.012 0 3.863 1.119 4.825 2.925l0.663 1.237 0.95-1.031c0.681-0.731 1.587-1.131 2.563-1.131 1.931 0 3.5 1.569 3.5 3.5 0 0.1-0.019 0.194-0.050 0.431l-0.156 1.25 1.469-0.15c0.075-0.012 0.156-0.025 0.238-0.025 2.481 0 4.5 2.019 4.5 4.5s-2.019 4.494-4.5 4.494zM3 23c-0.55 0-1 0.45-1 1v5c0 0.55 0.45 1 1 1s1-0.45 1-1v-5c0-0.55-0.45-1-1-1zM9 25c-0.55 0-1 0.45-1 1v5c0 0.55 0.45 1 1 1s1-0.45 1-1v-5c0-0.55-0.45-1-1-1zM15 23c-0.55 0-1 0.45-1 1v5c0 0.55 0.45 1 1 1s1-0.45 1-1v-5c0-0.55-0.45-1-1-1zM21 25c-0.55 0-1 0.45-1 1v5c0 0.55 0.45 1 1 1s1-0.45 1-1v-5c0-0.55-0.45-1-1-1zM27 23c-0.55 0-1 0.45-1 1v5c0 0.55 0.45 1 1 1s1-0.45 1-1v-5c0-0.55-0.45-1-1-1z"></path>
</svg>
