<!-- Generated by IcoMoon.io -->
<svg version="1.1" xmlns="http://www.w3.org/2000/svg" width="32" height="32" viewBox="0 0 32 32">
<title>club-solid</title>
<path d="M23.219 10.569c1.975-5.044-1.738-10.569-7.219-10.569-5.488 0-9.188 5.531-7.219 10.569-4.675-0.619-8.781 3.013-8.781 7.681 0 4.281 3.469 7.75 7.75 7.75 2.281 0 4.331-0.988 5.75-2.556-0.006 2.294-0.050 3.275-3.313 4.725-0.863 0.381-1.338 1.319-1.144 2.244s1.012 1.587 1.956 1.587h10c0.944 0 1.762-0.663 1.956-1.587s-0.281-1.856-1.144-2.244c-3.225-1.438-3.3-2.381-3.313-4.725 1.419 1.569 3.469 2.556 5.75 2.556 4.281 0 7.75-3.469 7.75-7.75 0-4.675-4.113-8.3-8.781-7.681z"></path>
</svg>
