<!-- Generated by IcoMoon.io -->
<svg version="1.1" xmlns="http://www.w3.org/2000/svg" width="32" height="32" viewBox="0 0 32 32">
<title>club</title>
<path d="M16 2c4.056 0 6.819 4.1 5.356 7.838l-1 2.563c-0.106 0.269 0.119 0.544 0.4 0.506l2.731-0.363c3.462-0.456 6.488 2.231 6.512 5.656 0.025 3.231-2.675 5.825-5.906 5.794-2.563-0.025-3.413-0.706-5.45-2.825-0.231-0.244-0.644-0.075-0.644 0.262v1.563c0 2.538 0 3.288 1.819 5.581 0.456 0.575 0.044 1.419-0.688 1.419h-6.269c-0.731 0-1.144-0.844-0.688-1.419 1.825-2.288 1.825-3.038 1.825-5.575v-1.563c0-0.337-0.412-0.506-0.644-0.262-2.019 2.106-2.869 2.794-5.444 2.825-3.237 0.031-5.938-2.569-5.906-5.8 0.031-3.425 3.063-6.106 6.513-5.644l2.731 0.363c0.281 0.037 0.5-0.244 0.4-0.506l-1-2.563c-1.475-3.756 1.3-7.85 5.35-7.85zM16 0c-5.463 0-9.194 5.513-7.219 10.569-4.681-0.619-8.781 3.031-8.781 7.681 0 4.275 3.475 7.75 7.75 7.75 2.219 0 3.25-0.5 4.75-2 0 1.5-0.606 1.725-1.887 3.337-1.494 1.881-0.15 4.663 2.25 4.663h6.269c2.406 0 3.75-2.781 2.25-4.663-1.188-1.506-1.881-1.837-1.881-3.337 1.5 1.5 3.056 2 4.75 2 4.275 0 7.75-3.475 7.75-7.75 0-4.656-4.113-8.3-8.781-7.681 1.975-5.044-1.75-10.569-7.219-10.569z"></path>
</svg>
