<!-- Generated by IcoMoon.io -->
<svg version="1.1" xmlns="http://www.w3.org/2000/svg" width="36" height="32" viewBox="0 0 36 32">
<title>cocktail</title>
<path d="M24.457 8h-22.915c-1.372 0-2.059 1.658-1.089 2.628l11.546 11.546v7.826h-3.333c-0.921 0-1.667 0.746-1.667 1.667 0 0.184 0.149 0.333 0.333 0.333h11.333c0.184 0 0.333-0.149 0.333-0.333 0-0.921-0.746-1.667-1.667-1.667h-3.332v-7.826l11.546-11.546c0.97-0.971 0.283-2.629-1.088-2.629zM13 20.346l-10.346-10.346h20.691l-10.346 10.346zM27 0c-3.909 0-7.181 2.514-8.413 6h2.144c1.122-2.355 3.489-4 6.269-4 3.86 0 7 3.14 7 7s-3.14 7-7 7c-1.156 0-2.23-0.308-3.191-0.806l-1.47 1.47c1.363 0.831 2.948 1.336 4.661 1.336 4.971 0 9-4.029 9-9s-4.029-9-9-9zM27 12c-0.003 0-0.005-0.001-0.008-0.001-0.012 0.013-0.019 0.030-0.032 0.043l-1.645 1.645c0.529 0.191 1.091 0.313 1.685 0.313 2.758 0 5-2.243 5-5s-2.242-5-5-5c-1.628 0-3.063 0.793-3.976 2h3.976c1.654 0 3 1.346 3 3s-1.346 3-3 3z"></path>
</svg>
