<!-- Generated by IcoMoon.io -->
<svg version="1.1" xmlns="http://www.w3.org/2000/svg" width="36" height="32" viewBox="0 0 36 32">
<title>cocktail-solid</title>
<path d="M18.5 29h-3.5v-7.826l10.546-10.546c0.97-0.97 0.283-2.628-1.089-2.628h-22.915c-1.372 0-2.059 1.658-1.089 2.628l10.546 10.546v7.826h-3.5c-1.381 0-2.5 1.119-2.5 2.5 0 0.276 0.224 0.5 0.5 0.5h15c0.276 0 0.5-0.224 0.5-0.5 0-1.381-1.119-2.5-2.5-2.5zM27 0c-3.913 0-7.209 2.513-8.449 6h3.284c1.041-1.784 2.954-3 5.165-3 3.308 0 6 2.691 6 6s-2.692 6-6 6c-0.878 0-1.706-0.2-2.457-0.54l-2.204 2.204c1.363 0.831 2.948 1.336 4.661 1.336 4.971 0 9-4.029 9-9s-4.029-9-9-9z"></path>
</svg>
