<!-- Generated by IcoMoon.io -->
<svg version="1.1" xmlns="http://www.w3.org/2000/svg" width="40" height="32" viewBox="0 0 40 32">
<title>code-commit-solid</title>
<path d="M8 16c0 0.675 0.056 1.344 0.162 2h-7.412c-0.412 0-0.75-0.337-0.75-0.75v-2.5c0-0.412 0.338-0.75 0.75-0.75h7.412c-0.106 0.656-0.162 1.325-0.162 2zM39.25 14h-7.413c0.113 0.656 0.163 1.325 0.163 2s-0.056 1.344-0.163 2h7.413c0.413 0 0.75-0.337 0.75-0.75v-2.5c0-0.412-0.337-0.75-0.75-0.75zM20 13.375c-1.45 0-2.625 1.175-2.625 2.625s1.175 2.625 2.625 2.625 2.625-1.175 2.625-2.625-1.175-2.625-2.625-2.625zM20 6c5.525 0 10 4.475 10 10s-4.475 10-10 10-10-4.475-10-10 4.475-10 10-10z"></path>
</svg>
