<!-- Generated by IcoMoon.io -->
<svg version="1.1" xmlns="http://www.w3.org/2000/svg" width="24" height="32" viewBox="0 0 24 32">
<title>code-merge</title>
<path d="M19 12c-2.606 0-4.75 2-4.981 4.55-1.575-0.081-3.85-0.494-5.55-1.981-1.269-1.113-2.050-2.688-2.344-4.694 2.219-0.512 3.875-2.5 3.875-4.869 0-2.763-2.237-5-5-5s-5 2.231-5 4.994c0 2.419 1.719 4.438 4 4.9v12.2c-2.281 0.462-4 2.481-4 4.9 0 2.762 2.237 5 5 5s5-2.238 5-5c0-2.419-1.719-4.438-4-4.9v-7.262c0.344 0.45 0.731 0.869 1.162 1.244 2.275 1.981 5.206 2.425 7.088 2.481 0.656 1.994 2.531 3.438 4.75 3.438 2.762 0 5-2.238 5-5s-2.238-5-5-5zM2 5c0-1.656 1.344-3 3-3s3 1.344 3 3-1.344 3-3 3-3-1.344-3-3zM8 27c0 1.656-1.344 3-3 3s-3-1.344-3-3 1.344-3 3-3 3 1.344 3 3zM19 20c-1.656 0-3-1.344-3-3s1.344-3 3-3 3 1.344 3 3-1.344 3-3 3z"></path>
</svg>
