<!-- Generated by IcoMoon.io -->
<svg version="1.1" xmlns="http://www.w3.org/2000/svg" width="24" height="32" viewBox="0 0 24 32">
<title>code-merge-solid</title>
<path d="M19 12c-2.375 0-4.363 1.656-4.869 3.875-1.494-0.219-3.625-0.806-5.244-2.35-1.037-0.994-1.744-2.281-2.106-3.85 1.881-0.719 3.219-2.544 3.219-4.675 0-2.763-2.237-5-5-5s-5 2.237-5 5c0 2.237 1.469 4.131 3.5 4.769v12.456c-2.031 0.644-3.5 2.538-3.5 4.775 0 2.762 2.237 5 5 5s5-2.238 5-5c0-2.238-1.469-4.131-3.5-4.769v-6.85c0.1 0.106 0.206 0.213 0.313 0.313 2.456 2.344 5.65 3.037 7.575 3.237 0.756 1.806 2.538 3.075 4.613 3.075 2.762 0 5-2.238 5-5s-2.238-5.006-5-5.006zM5 4c0.55 0 1 0.45 1 1s-0.45 1-1 1-1-0.45-1-1 0.45-1 1-1zM5 28c-0.55 0-1-0.45-1-1s0.45-1 1-1 1 0.45 1 1-0.45 1-1 1zM19 18c-0.55 0-1-0.45-1-1s0.45-1 1-1 1 0.45 1 1-0.45 1-1 1z"></path>
</svg>
