<!-- Generated by IcoMoon.io -->
<svg version="1.1" xmlns="http://www.w3.org/2000/svg" width="40" height="32" viewBox="0 0 40 32">
<title>code-commit</title>
<path d="M20 8c2.137 0 4.146 0.832 5.657 2.343s2.343 3.52 2.343 5.657-0.832 4.146-2.343 5.657-3.52 2.343-5.657 2.343-4.146-0.832-5.657-2.343-2.343-3.52-2.343-5.657 0.832-4.146 2.343-5.657 3.52-2.343 5.657-2.343zM20 6c-5.523 0-10 4.477-10 10s4.477 10 10 10 10-4.477 10-10-4.477-10-10-10zM39.25 15h-7.292c0.027 0.331 0.042 0.664 0.042 1s-0.014 0.669-0.042 1h7.292c0.414 0 0.75-0.336 0.75-0.75v-0.5c0-0.414-0.336-0.75-0.75-0.75zM8 16c0-0.336 0.014-0.669 0.042-1h-7.292c-0.414 0-0.75 0.336-0.75 0.75v0.5c0 0.414 0.336 0.75 0.75 0.75h7.292c-0.027-0.331-0.042-0.664-0.042-1z"></path>
</svg>
