<!-- Generated by IcoMoon.io -->
<svg version="1.1" xmlns="http://www.w3.org/2000/svg" width="24" height="32" viewBox="0 0 24 32">
<title>code-branch</title>
<path d="M24 9c0-2.763-2.238-5-5-5s-5 2.237-5 5c0 2.45 1.762 4.488 4.094 4.919-0.050 1.075-0.313 1.9-0.794 2.5-1.094 1.363-3.319 1.575-5.669 1.794-1.762 0.163-3.588 0.337-5.025 1.056-0.213 0.106-0.419 0.225-0.606 0.356v-9.725c2.281-0.463 4-2.481 4-4.9 0-2.763-2.237-5-5-5s-5 2.237-5 5c0 2.419 1.719 4.438 4 4.9v12.2c-2.281 0.462-4 2.481-4 4.9 0 2.762 2.237 5 5 5s5-2.238 5-5c0-2.306-1.556-4.244-3.681-4.825 0.313-0.6 0.769-0.913 1.188-1.125 1.094-0.55 2.656-0.7 4.306-0.856 2.662-0.25 5.419-0.506 7.044-2.531 0.775-0.969 1.188-2.219 1.238-3.794 2.238-0.494 3.906-2.488 3.906-4.869zM2 5c0-1.656 1.344-3 3-3s3 1.344 3 3-1.344 3-3 3-3-1.344-3-3zM8 27c0 1.656-1.344 3-3 3s-3-1.344-3-3c0-1.65 1.337-2.994 2.987-3h0.037c1.644 0.012 2.975 1.356 2.975 3zM19.738 11.906l-0.738 0.094c-1.656 0-3-1.344-3-3s1.344-3 3-3 3 1.344 3 3c0 1.4-0.962 2.575-2.262 2.906z"></path>
</svg>
