<!-- Generated by IcoMoon.io -->
<svg version="1.1" xmlns="http://www.w3.org/2000/svg" width="24" height="32" viewBox="0 0 24 32">
<title>code-branch-solid</title>
<path d="M24 9c0-2.763-2.238-5-5-5s-5 2.237-5 5c0 2.275 1.519 4.194 3.594 4.8-0.038 1.006-0.262 1.781-0.688 2.306-0.963 1.2-3.081 1.4-5.325 1.606-1.762 0.163-3.588 0.337-5.081 1.056v-9c2.031-0.637 3.5-2.531 3.5-4.769 0-2.763-2.237-5-5-5s-5 2.237-5 5c0 2.237 1.469 4.131 3.5 4.769v12.456c-2.031 0.644-3.5 2.538-3.5 4.775 0 2.762 2.237 5 5 5s5-2.238 5-5c0-2.125-1.325-3.944-3.2-4.663 0.194-0.325 0.487-0.613 0.931-0.837 1.013-0.512 2.525-0.65 4.131-0.8 2.637-0.244 5.625-0.525 7.387-2.712 0.875-1.087 1.319-2.488 1.35-4.244 1.975-0.675 3.4-2.544 3.4-4.744zM5 4c0.55 0 1 0.45 1 1s-0.45 1-1 1-1-0.45-1-1 0.45-1 1-1zM5 28c-0.55 0-1-0.45-1-1s0.45-1 1-1 1 0.45 1 1-0.45 1-1 1zM19 8c0.55 0 1 0.45 1 1s-0.45 1-1 1-1-0.45-1-1 0.45-1 1-1z"></path>
</svg>
