<!-- Generated by IcoMoon.io -->
<svg version="1.1" xmlns="http://www.w3.org/2000/svg" width="36" height="32" viewBox="0 0 36 32">
<title>code</title>
<path d="M14.281 31.988l-1.563-0.444c-0.2-0.056-0.313-0.262-0.256-0.462l8.794-30.806c0.056-0.2 0.262-0.313 0.462-0.256l1.563 0.444c0.2 0.056 0.313 0.262 0.256 0.463l-8.794 30.8c-0.056 0.2-0.269 0.319-0.463 0.262zM9.556 24.156l1.156-1.306c0.119-0.131 0.1-0.331-0.031-0.444l-7.563-6.406 7.563-6.406c0.131-0.113 0.15-0.313 0.031-0.444l-1.156-1.306c-0.113-0.131-0.313-0.144-0.444-0.025l-9.006 7.95c-0.144 0.125-0.144 0.344 0 0.469l9.006 7.95c0.131 0.113 0.331 0.1 0.444-0.031zM26.887 24.181l9.006-7.95c0.144-0.125 0.144-0.344 0-0.469l-9.006-7.944c-0.131-0.112-0.325-0.1-0.444 0.025l-1.156 1.306c-0.119 0.131-0.1 0.331 0.031 0.444l7.563 6.406-7.563 6.406c-0.131 0.113-0.15 0.313-0.031 0.444l1.156 1.306c0.113 0.131 0.313 0.144 0.444 0.025z"></path>
</svg>
