<!-- Generated by IcoMoon.io -->
<svg version="1.1" xmlns="http://www.w3.org/2000/svg" width="32" height="32" viewBox="0 0 32 32">
<title>coffee-pot</title>
<path d="M26.966 11.103l0.367-1.103 2.667-8h-25c-2.761 0-5 2.239-5 5v0 6.5c0 0.276 0.224 0.5 0.5 0.5v0h1c0.276 0 0.5-0.224 0.5-0.5v0-6.5c0-1.657 1.343-3 3-3v0h1.667l2.378 7.135c-3.082 2.484-5.045 6.221-5.045 10.404 0 3.217 1.164 5.298 3.103 7.357 0.652 0.681 1.568 1.104 2.583 1.104 0.004 0 0.009 0 0.013-0h16.604c0.004 0 0.009 0 0.014 0 1.012 0 1.926-0.422 2.575-1.099l0.001-0.001c1.938-2.059 3.106-4.14 3.107-7.358 0-4.144-1.914-7.928-5.034-10.439zM8.775 4h18.45l-2 6h-14.45zM11.159 12h13.731c1.313 1.058 3.418 2.63 4.531 6h-22.835c1.132-3.375 3.301-4.976 4.572-6zM27.438 27.528c-0.283 0.291-0.679 0.472-1.117 0.472-0.006 0-0.013-0-0.019-0h-16.603c-0.005 0-0.010 0-0.016 0-0.441 0-0.839-0.182-1.123-0.476l-0-0c-1.865-1.979-2.559-3.602-2.559-5.985 0.004-0.547 0.047-1.079 0.126-1.6l-0.008 0.062h23.764c0.071 0.46 0.113 0.994 0.117 1.538l0 0.004c0 2.383-0.695 4.005-2.563 5.986z"></path>
</svg>
