<!-- Generated by IcoMoon.io -->
<svg version="1.1" xmlns="http://www.w3.org/2000/svg" width="36" height="32" viewBox="0 0 36 32">
<title>coffee</title>
<path d="M32.369 28h-30.738c-1.531 0-2.069-2-1.25-2h33.237c0.819 0 0.281 2-1.25 2zM36 9.944c0.031 3.338-2.669 6.056-6 6.056h-2v2c0 3.313-2.688 6-6 6h-12c-3.313 0-6-2.688-6-6v-13.25c0-0.412 0.338-0.75 0.75-0.75h25.175c3.3 0 6.044 2.638 6.075 5.944zM26 6h-20v12c0 2.206 1.794 4 4 4h12c2.206 0 4-1.794 4-4v-12zM34 10c0-2.206-1.794-4-4-4h-2v8h2c2.206 0 4-1.794 4-4z"></path>
</svg>
