<!-- Generated by IcoMoon.io -->
<svg version="1.1" xmlns="http://www.w3.org/2000/svg" width="28" height="32" viewBox="0 0 28 32">
<title>coffee-togo</title>
<path d="M27 4h-1l-1.448-2.894c-0.336-0.661-1.010-1.106-1.789-1.106h-17.527c-0.779 0-1.453 0.445-1.784 1.094l-0.005 0.011-1.448 2.894h-1c-0.552 0-1 0.447-1 1v4c0 0.553 0.448 1 1 1h1.167l1.681 20.166c0.086 1.036 0.952 1.834 1.992 1.834h16.319c1.040 0 1.907-0.797 1.993-1.834l1.681-20.166h1.167c0.552 0 1-0.447 1-1v-4c0-0.553-0.448-1-1-1zM22.16 30h-16.32l-0.333-4h16.986l-0.333 4zM22.66 24h-17.32l-0.666-8h18.653l-0.667 8zM23.493 14h-18.986l-0.333-4h19.653l-0.334 4zM26 8h-24v-2h1.236l2-4h17.528l2 4h1.236v2z"></path>
</svg>
