<!-- Generated by IcoMoon.io -->
<svg version="1.1" xmlns="http://www.w3.org/2000/svg" width="28" height="32" viewBox="0 0 28 32">
<title>coffee-togo-solid</title>
<path d="M27 4h-1l-1.448-2.894c-0.336-0.661-1.010-1.106-1.789-1.106h-17.527c-0.779 0-1.453 0.445-1.784 1.094l-0.005 0.011-1.448 2.894h-1c-0.552 0-1 0.447-1 1v2c0 0.553 0.448 1 1 1h26c0.552 0 1-0.447 1-1v-2c0-0.553-0.448-1-1-1zM6.674 32h14.653c1.040 0 1.907-0.797 1.993-1.834l1.681-20.166h-22l1.681 20.166c0.086 1.036 0.953 1.834 1.993 1.834zM20.486 16l-0.834 10h-11.305l-0.834-10h12.972z"></path>
</svg>
