<!-- Generated by IcoMoon.io -->
<svg version="1.1" xmlns="http://www.w3.org/2000/svg" width="24" height="32" viewBox="0 0 24 32">
<title>coffin-cross</title>
<path d="M23.164 7.044l-6.174-6.202c-0.544-0.543-1.264-0.842-2.028-0.842h-5.922c-0.764 0-1.484 0.299-2.029 0.844l-6.173 6.2c-0.708 0.711-0.994 1.757-0.752 2.728l4.991 20.050c0.319 1.282 1.463 2.179 2.782 2.179h8.286c1.319 0 2.463-0.896 2.782-2.179l4.991-20.048c0.242-0.973-0.045-2.018-0.752-2.729zM16.983 29.339c-0.096 0.389-0.441 0.661-0.84 0.661h-8.286c-0.399 0-0.744-0.271-0.84-0.661l-4.991-20.052c-0.074-0.297 0.014-0.616 0.229-0.833l6.171-6.198c0.166-0.165 0.383-0.256 0.613-0.256h5.922c0.231 0 0.447 0.091 0.611 0.254l6.173 6.2c0.215 0.217 0.302 0.536 0.229 0.835l-4.991 20.050zM17.001 9h-2v-2c0-0.553-0.447-1-1-1h-4.001c-0.553 0-1 0.447-1 1v2h-2c-0.553 0-1 0.447-1 1v4c0 0.553 0.447 1 1 1h2v6c0 0.552 0.447 1 1 1h4c0.553 0 1-0.448 1-1v-6h2c0.552 0 1-0.447 1-1v-4c0.001-0.553-0.447-1-0.999-1zM16.001 13h-3.001v7h-2v-7h-3.001v-2h3.001v-3h2v3h3.001v2z"></path>
</svg>
