<!-- Generated by IcoMoon.io -->
<svg version="1.1" xmlns="http://www.w3.org/2000/svg" width="24" height="32" viewBox="0 0 24 32">
<title>coffin</title>
<path d="M23.164 7.044l-6.174-6.202c-0.517-0.52-1.233-0.842-2.024-0.842-0.002 0-0.003 0-0.005 0h-5.922c-0.001 0-0.003 0-0.004 0-0.792 0-1.508 0.323-2.025 0.844l-0 0-6.173 6.2c-0.516 0.523-0.834 1.241-0.834 2.034 0 0.246 0.031 0.485 0.089 0.714l-0.004-0.020 4.988 20.050c0.319 1.261 1.443 2.179 2.781 2.179 0 0 0.001 0 0.001 0h8.286c0 0 0 0 0.001 0 1.339 0 2.463-0.918 2.777-2.159l0.004-0.020 4.991-20.048c0.054-0.208 0.084-0.448 0.084-0.694 0-0.793-0.319-1.512-0.835-2.036l0 0zM16.983 29.339c-0.095 0.382-0.435 0.661-0.84 0.661h-8.286c-0 0-0 0-0 0-0.405 0-0.745-0.279-0.838-0.655l-0.001-0.006-4.991-20.052c-0.016-0.064-0.026-0.137-0.026-0.212 0-0.242 0.097-0.461 0.255-0.621l-0 0 6.171-6.198c0.157-0.158 0.373-0.255 0.613-0.256h5.923c0 0 0.001 0 0.001 0 0.239 0 0.454 0.097 0.61 0.254l0 0 6.173 6.2c0.157 0.16 0.255 0.38 0.255 0.623 0 0.075-0.009 0.149-0.027 0.219l0.001-0.006-4.991 20.050z"></path>
</svg>
