<!-- Generated by IcoMoon.io -->
<svg version="1.1" xmlns="http://www.w3.org/2000/svg" width="32" height="32" viewBox="0 0 32 32">
<title>coffee-pot-solid</title>
<path d="M26.966 11.103l3.034-9.103h-24.5c-3.038 0-5.5 2.462-5.5 5.5v0 5.5c0 0.552 0.448 1 1 1v0h2c0.552 0 1-0.448 1-1v0-4.5c0-1.381 1.119-2.5 2.5-2.5v0h0.833l1.712 5.135c-3.082 2.484-5.045 6.221-5.045 10.404 0 3.217 1.164 5.298 3.103 7.357 0.652 0.681 1.568 1.104 2.583 1.104 0.004 0 0.009 0 0.013-0h16.604c0.004 0 0.009 0 0.014 0 1.012 0 1.926-0.422 2.575-1.099l0.001-0.001c1.938-2.059 3.106-4.14 3.107-7.358 0-4.144-1.914-7.928-5.034-10.439zM27.869 20h-19.706c0.419-2.441 1.808-4.553 3.781-6h12.238c1.936 1.45 3.286 3.576 3.688 6z"></path>
</svg>
