<!-- Generated by IcoMoon.io -->
<svg version="1.1" xmlns="http://www.w3.org/2000/svg" width="24" height="32" viewBox="0 0 24 32">
<title>coffin-cross-solid</title>
<path d="M23.403 7.199l-6.734-6.614c-0.382-0.375-0.9-0.586-1.44-0.586h-6.459c-0.54 0-1.058 0.211-1.44 0.586l-6.734 6.614c-0.506 0.497-0.709 1.217-0.536 1.899l5.444 21.386c0.226 0.891 1.041 1.515 1.976 1.515h9.039c0.934 0 1.749-0.624 1.976-1.515l5.444-21.386c0.172-0.682-0.031-1.402-0.537-1.899zM18 12c0 0.553-0.448 1-1 1h-3.5v8c0 0.552-0.447 1-1 1h-1c-0.553 0-1-0.448-1-1v-8h-3.5c-0.553 0-1-0.447-1-1v-1c0-0.553 0.447-1 1-1h3.5v-3c0-0.553 0.447-1 1-1h1c0.553 0 1 0.447 1 1v3h3.5c0.552 0 1 0.447 1 1v1z"></path>
</svg>
