<!-- Generated by IcoMoon.io -->
<svg version="1.1" xmlns="http://www.w3.org/2000/svg" width="32" height="32" viewBox="0 0 32 32">
<title>cog-solid</title>
<path d="M30.462 19.731l-2.663-1.538c0.269-1.45 0.269-2.938 0-4.387l2.663-1.537c0.306-0.175 0.444-0.537 0.344-0.875-0.694-2.225-1.875-4.237-3.419-5.912-0.238-0.256-0.625-0.319-0.925-0.144l-2.663 1.538c-1.119-0.963-2.406-1.706-3.8-2.194v-3.069c0-0.35-0.244-0.656-0.587-0.731-2.294-0.512-4.644-0.487-6.825 0-0.344 0.075-0.588 0.381-0.588 0.731v3.075c-1.387 0.494-2.675 1.237-3.8 2.194l-2.656-1.537c-0.306-0.175-0.688-0.119-0.925 0.144-1.544 1.669-2.725 3.681-3.419 5.912-0.106 0.338 0.038 0.7 0.344 0.875l2.662 1.537c-0.269 1.45-0.269 2.938 0 4.388l-2.663 1.538c-0.306 0.175-0.444 0.538-0.344 0.875 0.694 2.225 1.875 4.238 3.419 5.912 0.237 0.256 0.625 0.319 0.925 0.144l2.663-1.538c1.119 0.962 2.406 1.706 3.8 2.194v3.075c0 0.35 0.244 0.656 0.588 0.731 2.294 0.512 4.644 0.488 6.825 0 0.344-0.075 0.587-0.381 0.587-0.731v-3.075c1.387-0.494 2.675-1.238 3.8-2.194l2.663 1.538c0.306 0.175 0.688 0.119 0.925-0.144 1.544-1.669 2.725-3.681 3.419-5.913 0.094-0.344-0.044-0.706-0.35-0.881zM16 21c-2.756 0-5-2.244-5-5s2.244-5 5-5 5 2.244 5 5-2.244 5-5 5z"></path>
</svg>
