<!-- Generated by IcoMoon.io -->
<svg version="1.1" xmlns="http://www.w3.org/2000/svg" width="32" height="32" viewBox="0 0 32 32">
<title>cog</title>
<path d="M30.169 18.705l-2.038-1.177c0.061-0.459 0.096-0.989 0.096-1.528s-0.035-1.069-0.103-1.589l0.007 0.061 2.038-1.177c0.599-0.345 0.887-1.056 0.69-1.719-0.701-2.359-1.948-4.483-3.596-6.225-0.477-0.504-1.239-0.615-1.84-0.268l-2.035 1.175c-0.765-0.587-1.636-1.1-2.567-1.5l-0.079-0.030v-2.351c0-0.696-0.478-1.3-1.155-1.46-2.353-0.557-4.82-0.557-7.173 0-0.677 0.16-1.155 0.765-1.155 1.46v2.351c-1.010 0.43-1.881 0.943-2.675 1.551l0.029-0.021-2.035-1.175c-0.601-0.347-1.363-0.237-1.84 0.268-1.647 1.742-2.895 3.865-3.596 6.225-0.197 0.662 0.092 1.373 0.69 1.719l2.038 1.177c-0.061 0.459-0.096 0.989-0.096 1.528s0.035 1.069 0.103 1.589l-0.007-0.061-2.038 1.177c-0.599 0.346-0.887 1.056-0.69 1.719 0.701 2.359 1.948 4.483 3.596 6.225 0.477 0.504 1.239 0.615 1.84 0.268l2.035-1.175c0.765 0.587 1.636 1.1 2.567 1.5l0.079 0.030v2.351c0 0.696 0.478 1.3 1.155 1.46 2.353 0.557 4.82 0.557 7.173 0 0.677-0.16 1.155-0.765 1.155-1.46v-2.351c1.010-0.43 1.881-0.943 2.675-1.551l-0.029 0.021 2.035 1.175c0.601 0.347 1.363 0.237 1.84-0.268 1.648-1.742 2.895-3.865 3.596-6.225 0.197-0.662-0.092-1.373-0.69-1.719zM26.076 24.984l-2.894-1.671c-1.687 1.442-2.285 1.805-4.44 2.566v3.342c-0.824 0.178-1.771 0.28-2.742 0.28s-1.918-0.102-2.831-0.296l0.089 0.016v-3.342c-2.101-0.742-2.71-1.087-4.44-2.566l-2.894 1.671c-1.232-1.381-2.168-2.999-2.746-4.747l2.896-1.671c-0.408-2.214-0.409-2.915 0-5.13l-2.896-1.671c0.578-1.748 1.514-3.367 2.746-4.748l2.894 1.672c1.711-1.465 2.316-1.817 4.44-2.567v-3.342c0.824-0.178 1.771-0.28 2.742-0.28s1.918 0.102 2.83 0.296l-0.089-0.016v3.342c2.124 0.75 2.729 1.102 4.44 2.567l2.894-1.673c1.232 1.381 2.168 3 2.746 4.748l-2.896 1.671c0.409 2.214 0.409 2.915 0 5.13l2.896 1.671c-0.578 1.748-1.514 3.367-2.746 4.747zM16 10c-3.308 0-6 2.692-6 6s2.692 6 6 6 6-2.692 6-6-2.692-6-6-6zM16 20c-2.206 0-4-1.794-4-4s1.794-4 4-4 4 1.794 4 4-1.794 4-4 4z"></path>
</svg>
