<!-- Generated by IcoMoon.io -->
<svg version="1.1" xmlns="http://www.w3.org/2000/svg" width="40" height="32" viewBox="0 0 40 32">
<title>cogs-solid</title>
<path d="M32.006 11.938l-0.512 0.894c-0.188 0.331-0.587 0.469-0.944 0.338-0.738-0.275-1.413-0.669-2.006-1.162-0.288-0.238-0.363-0.656-0.175-0.981l0.512-0.894c-0.431-0.5-0.769-1.081-0.994-1.713h-1.031c-0.375 0-0.7-0.269-0.762-0.644-0.125-0.75-0.131-1.538 0-2.319 0.063-0.375 0.387-0.65 0.762-0.65h1.031c0.225-0.631 0.563-1.212 0.994-1.712l-0.512-0.894c-0.188-0.325-0.119-0.744 0.175-0.981 0.594-0.494 1.275-0.887 2.006-1.163 0.356-0.131 0.756 0.006 0.944 0.338l0.512 0.894c0.656-0.119 1.325-0.119 1.981 0l0.513-0.894c0.188-0.331 0.587-0.469 0.944-0.338 0.737 0.275 1.413 0.669 2.006 1.163 0.288 0.238 0.362 0.656 0.175 0.981l-0.513 0.894c0.431 0.5 0.769 1.081 0.994 1.713h1.031c0.375 0 0.7 0.269 0.763 0.644 0.125 0.75 0.131 1.538 0 2.319-0.063 0.375-0.388 0.65-0.763 0.65h-1.031c-0.225 0.631-0.563 1.213-0.994 1.713l0.513 0.894c0.188 0.325 0.119 0.744-0.175 0.981-0.594 0.494-1.275 0.887-2.006 1.162-0.356 0.131-0.756-0.006-0.944-0.338l-0.513-0.894c-0.65 0.119-1.325 0.119-1.981 0zM31.35 8.262c2.406 1.85 5.15-0.894 3.3-3.3-2.406-1.856-5.15 0.894-3.3 3.3zM24.144 17.881l2.106 1.050c0.631 0.363 0.906 1.131 0.656 1.819-0.556 1.512-1.65 2.9-2.663 4.113-0.462 0.556-1.262 0.694-1.894 0.331l-1.819-1.050c-1 0.856-2.163 1.538-3.431 1.981v2.1c0 0.725-0.519 1.35-1.231 1.475-1.537 0.262-3.15 0.275-4.744 0-0.719-0.125-1.25-0.744-1.25-1.475v-2.1c-1.269-0.45-2.431-1.125-3.431-1.981l-1.819 1.044c-0.625 0.363-1.431 0.225-1.894-0.331-1.012-1.212-2.081-2.6-2.638-4.106-0.25-0.681 0.025-1.45 0.656-1.819l2.081-1.050c-0.244-1.306-0.244-2.65 0-3.963l-2.081-1.056c-0.631-0.363-0.912-1.131-0.656-1.813 0.556-1.512 1.625-2.9 2.638-4.112 0.462-0.556 1.263-0.694 1.894-0.331l1.819 1.050c1-0.856 2.162-1.538 3.431-1.981v-2.106c0-0.719 0.512-1.344 1.225-1.469 1.537-0.262 3.156-0.275 4.75-0.006 0.719 0.125 1.25 0.744 1.25 1.475v2.1c1.269 0.45 2.431 1.125 3.431 1.981l1.819-1.050c0.625-0.362 1.431-0.225 1.894 0.331 1.012 1.212 2.075 2.6 2.631 4.112 0.25 0.681 0.006 1.45-0.625 1.819l-2.106 1.050c0.244 1.313 0.244 2.656 0 3.969zM16.794 19.2c3.7-4.813-1.794-10.306-6.606-6.606-3.7 4.813 1.794 10.306 6.606 6.606zM32.006 30.619l-0.512 0.894c-0.188 0.331-0.587 0.469-0.944 0.337-0.738-0.275-1.413-0.669-2.006-1.163-0.288-0.238-0.363-0.656-0.175-0.981l0.512-0.894c-0.431-0.5-0.769-1.081-0.994-1.712h-1.031c-0.375 0-0.7-0.269-0.762-0.644-0.125-0.75-0.131-1.538 0-2.319 0.063-0.375 0.387-0.65 0.762-0.65h1.031c0.225-0.631 0.563-1.212 0.994-1.712l-0.512-0.894c-0.188-0.325-0.119-0.744 0.175-0.981 0.594-0.494 1.275-0.887 2.006-1.163 0.356-0.131 0.756 0.006 0.944 0.337l0.512 0.894c0.656-0.119 1.325-0.119 1.981 0l0.513-0.894c0.188-0.331 0.587-0.469 0.944-0.337 0.737 0.275 1.413 0.669 2.006 1.163 0.288 0.238 0.362 0.656 0.175 0.981l-0.513 0.894c0.431 0.5 0.769 1.081 0.994 1.712h1.031c0.375 0 0.7 0.269 0.763 0.644 0.125 0.75 0.131 1.538 0 2.319-0.063 0.375-0.388 0.65-0.763 0.65h-1.031c-0.225 0.631-0.563 1.212-0.994 1.712l0.513 0.894c0.188 0.325 0.119 0.744-0.175 0.981-0.594 0.494-1.275 0.887-2.006 1.163-0.356 0.131-0.756-0.006-0.944-0.337l-0.513-0.894c-0.65 0.119-1.325 0.119-1.981 0zM31.35 26.938c2.406 1.85 5.15-0.894 3.3-3.3-2.406-1.85-5.15 0.894-3.3 3.3z"></path>
</svg>
