<!-- Generated by IcoMoon.io -->
<svg version="1.1" xmlns="http://www.w3.org/2000/svg" width="40" height="32" viewBox="0 0 40 32">
<title>cogs</title>
<path d="M33.663 12.275l-0.156-0.244c-0.256 0.019-0.506 0.019-0.763 0l-0.156 0.25c-0.362 0.575-1.069 0.838-1.719 0.631-0.863-0.269-1.438-0.55-2.144-1.131-0.563-0.463-0.7-1.269-0.337-1.9l0.156-0.269c-0.144-0.213-0.269-0.431-0.381-0.662h-0.569c-0.725 0-1.337-0.512-1.475-1.225-0.163-0.856-0.169-1.513 0.006-2.406 0.131-0.706 0.756-1.219 1.475-1.219h0.563c0.113-0.231 0.238-0.45 0.381-0.663l-0.163-0.281c-0.363-0.625-0.225-1.419 0.325-1.894 0.663-0.569 1.231-0.894 2.094-1.188 0.675-0.231 1.419 0.044 1.781 0.662l0.163 0.275c0.256-0.019 0.506-0.019 0.763 0l0.163-0.275c0.362-0.619 1.106-0.894 1.788-0.656 0.831 0.281 1.394 0.6 2.094 1.194 0.55 0.469 0.681 1.263 0.319 1.888l-0.163 0.275c0.144 0.212 0.269 0.431 0.381 0.663h0.319c0.725 0 1.337 0.513 1.475 1.225 0.163 0.856 0.169 1.513-0.006 2.406-0.131 0.706-0.756 1.219-1.475 1.219h-0.313c-0.112 0.231-0.237 0.45-0.381 0.662l0.156 0.269c0.369 0.637 0.219 1.444-0.344 1.906-0.669 0.55-1.244 0.838-2.125 1.119-0.656 0.206-1.369-0.050-1.731-0.631zM34.425 10.119l0.663 1.144c0.419-0.175 0.806-0.4 1.169-0.675l-0.663-1.144 0.4-0.469c0.3-0.356 0.538-0.756 0.688-1.194l0.206-0.581h1.319c0.056-0.444 0.056-0.9 0-1.344h-1.319l-0.206-0.581c-0.156-0.438-0.388-0.838-0.688-1.194l-0.4-0.469 0.656-1.15c-0.356-0.275-0.75-0.5-1.169-0.675l-0.663 1.144-0.606-0.112c-0.456-0.087-0.925-0.087-1.381 0l-0.606 0.112-0.663-1.144c-0.413 0.169-0.806 0.4-1.163 0.675l0.663 1.144-0.4 0.469c-0.3 0.356-0.538 0.756-0.688 1.194l-0.206 0.581h-1.319c-0.056 0.444-0.056 0.9 0 1.344h1.319l0.206 0.581c0.156 0.438 0.387 0.838 0.688 1.194l0.4 0.469-0.663 1.15c0.356 0.275 0.75 0.5 1.169 0.675l0.663-1.144 0.606 0.113c0.456 0.088 0.925 0.088 1.381 0l0.606-0.113zM9.081 28.4v-1.975c-0.806-0.344-1.569-0.788-2.275-1.319l-1.719 0.994c-0.612 0.35-1.381 0.231-1.856-0.288-1.512-1.644-2.406-3.094-3.163-5.506-0.212-0.669 0.069-1.394 0.675-1.75l1.706-0.994c-0.106-0.875-0.106-1.756 0-2.631l-1.706-0.988c-0.606-0.35-0.887-1.081-0.675-1.75 0.756-2.4 1.637-3.85 3.163-5.506 0.475-0.519 1.25-0.638 1.856-0.287l1.713 0.994c0.706-0.531 1.469-0.969 2.275-1.319v-1.975c0-0.706 0.488-1.313 1.175-1.462 2.169-0.487 3.875-0.544 6.356 0 0.688 0.15 1.181 0.762 1.181 1.462v1.975c0.806 0.344 1.569 0.787 2.275 1.313l1.712-0.987c0.613-0.35 1.387-0.231 1.863 0.287 1.681 1.85 2.594 3.494 3.256 5.531 0.212 0.656-0.050 1.369-0.637 1.731l-1.563 0.988c0.106 0.875 0.106 1.756 0 2.631l1.756 1.094c0.538 0.337 0.813 0.975 0.675 1.594-0.431 1.956-2.063 4.038-3.494 5.575-0.475 0.512-1.244 0.625-1.85 0.275l-1.719-0.994c-0.706 0.531-1.469 0.969-2.275 1.319v1.975c0 0.7-0.488 1.313-1.175 1.462-2.344 0.519-4.056 0.512-6.369 0-0.675-0.156-1.162-0.769-1.162-1.469zM11.081 28.012c1.55 0.313 3.156 0.313 4.706 0v-2.981l0.669-0.238c1.050-0.369 2.019-0.931 2.869-1.656l0.538-0.462 2.587 1.494c1.050-1.194 2.125-2.581 2.631-4.075l-2.587-1.494 0.131-0.694c0.2-1.1 0.2-2.219 0-3.319l-0.131-0.694 2.587-1.494c-0.506-1.494-1.581-2.888-2.631-4.075l-2.587 1.494-0.538-0.463c-0.85-0.731-1.813-1.287-2.869-1.656l-0.669-0.237v-2.975c-1.55-0.313-3.156-0.313-4.706 0v2.981l-0.669 0.237c-1.050 0.369-2.019 0.931-2.869 1.656l-0.537 0.463-2.588-1.494c-1.011 1.145-1.813 2.501-2.331 3.991l-0.026 0.084 2.587 1.494-0.131 0.694c-0.2 1.1-0.2 2.219 0 3.319l0.131 0.694-2.587 1.494c0.506 1.494 1.306 2.887 2.356 4.075l2.588-1.494 0.537 0.462c0.85 0.731 1.813 1.288 2.869 1.656l0.669 0.238v2.975zM13.481 21.431c-2.856 0-5.181-2.325-5.181-5.181s2.325-5.181 5.181-5.181 5.181 2.325 5.181 5.181-2.325 5.181-5.181 5.181zM13.481 13.069c-1.75 0-3.181 1.425-3.181 3.181s1.425 3.181 3.181 3.181c1.75 0 3.181-1.425 3.181-3.181s-1.425-3.181-3.181-3.181zM33.663 31.3l-0.156-0.244c-0.256 0.019-0.506 0.019-0.763 0l-0.156 0.25c-0.362 0.575-1.069 0.838-1.719 0.631-0.863-0.269-1.438-0.55-2.144-1.131-0.563-0.462-0.7-1.269-0.337-1.9l0.156-0.269c-0.144-0.212-0.269-0.431-0.381-0.663h-0.569c-0.725 0-1.337-0.512-1.475-1.225-0.163-0.856-0.169-1.512 0.006-2.406 0.131-0.706 0.756-1.219 1.475-1.219h0.563c0.113-0.231 0.238-0.45 0.381-0.663l-0.163-0.281c-0.363-0.625-0.225-1.419 0.325-1.894 0.663-0.569 1.231-0.894 2.094-1.188 0.675-0.231 1.419 0.044 1.781 0.663l0.163 0.275c0.256-0.019 0.506-0.019 0.763 0l0.163-0.275c0.362-0.619 1.106-0.894 1.788-0.656 0.831 0.281 1.394 0.6 2.094 1.194 0.55 0.469 0.681 1.262 0.319 1.887l-0.163 0.275c0.144 0.212 0.269 0.431 0.381 0.663h0.319c0.725 0 1.337 0.512 1.475 1.225 0.163 0.856 0.169 1.512-0.006 2.406-0.131 0.706-0.756 1.219-1.475 1.219h-0.313c-0.112 0.231-0.237 0.45-0.381 0.663l0.156 0.269c0.369 0.637 0.219 1.444-0.344 1.906-0.669 0.55-1.244 0.837-2.125 1.119-0.656 0.2-1.369-0.056-1.731-0.631zM34.425 29.137l0.663 1.144c0.419-0.175 0.806-0.4 1.169-0.675l-0.663-1.144 0.4-0.469c0.3-0.356 0.538-0.756 0.688-1.194l0.206-0.581h1.319c0.056-0.444 0.056-0.9 0-1.344h-1.319l-0.206-0.581c-0.156-0.438-0.388-0.837-0.688-1.194l-0.4-0.469 0.663-1.144c-0.356-0.275-0.75-0.5-1.169-0.675l-0.663 1.144-0.606-0.113c-0.456-0.087-0.925-0.087-1.381 0l-0.606 0.113-0.663-1.144c-0.419 0.175-0.806 0.4-1.169 0.675l0.663 1.144-0.4 0.469c-0.3 0.356-0.538 0.756-0.688 1.194l-0.206 0.581h-1.319c-0.056 0.444-0.056 0.9 0 1.344h1.319l0.206 0.581c0.156 0.438 0.387 0.837 0.688 1.194l0.4 0.469-0.663 1.144c0.356 0.275 0.75 0.5 1.169 0.675l0.663-1.144 0.606 0.113c0.456 0.087 0.925 0.087 1.381 0l0.606-0.113zM35 25.5c0-1.106-0.894-2-2-2s-2 0.894-2 2 0.894 2 2 2 2-0.894 2-2zM35 6.481c0-1.106-0.894-2-2-2s-2 0.894-2 2 0.894 2 2 2 2-0.9 2-2z"></path>
</svg>
