<!-- Generated by IcoMoon.io -->
<svg version="1.1" xmlns="http://www.w3.org/2000/svg" width="32" height="32" viewBox="0 0 32 32">
<title>coin</title>
<path d="M16 4c-8.833 0-16 4.027-16 9v7c0 4.42 7.167 8 16 8s16-3.58 16-8v-7c0-4.973-7.167-9-16-9zM4 22.913c-1.269-0.913-2-1.933-2-2.913v-2.646c0.591 0.586 1.246 1.108 1.953 1.556l0.047 0.028zM9 25.121c-1.166-0.308-2.164-0.669-3.119-1.107l0.119 0.049v-4.043c0.829 0.382 1.827 0.745 2.856 1.029l0.144 0.034zM15 25.976c-1.449-0.047-2.827-0.195-4.172-0.439l0.172 0.026v-4.017c1.176 0.219 2.554 0.365 3.959 0.407l0.041 0.001zM21 25.563c-1.173 0.219-2.551 0.368-3.955 0.414l-0.045 0.001v-4.024c1.446-0.043 2.824-0.189 4.169-0.433l-0.169 0.025zM26 24.063c-0.836 0.388-1.834 0.749-2.866 1.026l-0.134 0.031v-4.038c1.174-0.318 2.171-0.68 3.129-1.115l-0.129 0.052zM30 20c0 0.98-0.731 2-2 2.913v-3.976c0.754-0.476 1.409-0.999 2.001-1.586l-0.001 0.001zM16 20c-8.25 0-14-3.688-14-7s5.75-7 14-7 14 3.688 14 7-5.75 7-14 7z"></path>
</svg>
