<!-- Generated by IcoMoon.io -->
<svg version="1.1" xmlns="http://www.w3.org/2000/svg" width="32" height="32" viewBox="0 0 32 32">
<title>coin-solid</title>
<path d="M0 20c0 1.736 1.125 3.336 3 4.646v-4.021c-1.178-0.75-2.212-1.585-3-2.524zM16 22c8.833 0 16-4.027 16-9s-7.167-9-16-9-16 4.027-16 9 7.167 9 16 9zM5 25.782c1.693 0.806 3.729 1.426 6 1.8v-4.019c-2.212-0.375-4.238-0.992-6-1.813zM29 24.646c1.878-1.313 3-2.91 3-4.646v-1.898c-0.788 0.938-1.822 1.773-3 2.524zM21 27.583c2.271-0.375 4.307-0.994 6-1.8v-4.033c-1.762 0.82-3.788 1.438-6 1.813zM13 23.825v4.006c0.976 0.094 1.968 0.169 3 0.169s2.024-0.075 3-0.169v-4.006c-0.89 0.103-1.932 0.166-2.987 0.175l-0.013 0c-1.068-0.009-2.11-0.072-3.136-0.187l0.136 0.012z"></path>
</svg>
