<!-- Generated by IcoMoon.io -->
<svg version="1.1" xmlns="http://www.w3.org/2000/svg" width="32" height="32" viewBox="0 0 32 32">
<title>coins-solid</title>
<path d="M0 25.331v2.669c0 2.206 5.375 4 12 4s12-1.794 12-4v-2.669c-2.581 1.819-7.3 2.669-12 2.669s-9.419-0.85-12-2.669zM20 8c6.625 0 12-1.794 12-4s-5.375-4-12-4-12 1.794-12 4 5.375 4 12 4zM0 18.775v3.225c0 2.206 5.375 4 12 4s12-1.794 12-4v-3.225c-2.581 2.125-7.306 3.225-12 3.225s-9.419-1.1-12-3.225zM26 19.462c3.581-0.694 6-1.981 6-3.463v-2.669c-1.45 1.025-3.581 1.725-6 2.156v3.975zM12 10c-6.625 0-12 2.238-12 5s5.375 5 12 5 12-2.238 12-5-5.375-5-12-5zM25.706 13.519c3.75-0.675 6.294-2 6.294-3.519v-2.669c-2.219 1.569-6.031 2.413-10.044 2.612 1.844 0.894 3.2 2.094 3.75 3.575z"></path>
</svg>
