<!-- Generated by IcoMoon.io -->
<svg version="1.1" xmlns="http://www.w3.org/2000/svg" width="32" height="32" viewBox="0 0 32 32">
<title>coins</title>
<path d="M21 2c-3.038 0-5.787 0.563-7.781 1.462-0.056 0.025-3.219 1.313-3.219 3.538v1.044c-5.244 0.219-10 2.169-10 4.956v12c0 2.762 4.925 5 11 5s11-2.238 11-5v-1.025c5.606-0.231 10-2.369 10-4.975v-12c0-2.313-3.881-5-11-5zM20 25c0 0.869-3.156 3-9 3s-9-2.131-9-3v-3.131c1.987 1.288 5.275 2.131 9 2.131s7.012-0.844 9-2.131v3.131zM20 19c0 0.869-3.156 3-9 3s-9-2.131-9-3v-3.131c1.987 1.287 5.275 2.131 9 2.131s7.012-0.844 9-2.131v3.131zM11 16c-5.063 0-9.169-1.344-9.169-3s4.106-3 9.169-3 9.169 1.344 9.169 3-4.106 3-9.169 3zM30 19c0 0.819-2.813 2.725-8 2.956v-4.006c3.3-0.137 6.194-0.913 8-2.081v3.131zM30 13c0 0.819-2.819 2.713-8 2.95v-2.95c0-0.35-0.106-0.688-0.256-1.019 3.413-0.106 6.4-0.906 8.256-2.113v3.131zM21 10c-0.456 0-0.875-0.031-1.306-0.056-2.306-1.356-5.313-1.762-7.225-1.875-0.394-0.331-0.631-0.688-0.631-1.069 0-1.656 4.106-3 9.169-3s9.169 1.344 9.169 3-4.113 3-9.175 3z"></path>
</svg>
