<!-- Generated by IcoMoon.io -->
<svg version="1.1" xmlns="http://www.w3.org/2000/svg" width="32" height="32" viewBox="0 0 32 32">
<title>comet-solid</title>
<path d="M30.695 0.044c-2.419 0.725-6.986 2.144-11.73 3.831-0.131-0.438-0.25-0.844-0.35-1.162-0.129-0.415-0.51-0.711-0.96-0.711-0.172 0-0.335 0.044-0.477 0.12l0.005-0.003c-2.65 1.381-9.548 5.162-13.398 8.906-0.068 0.063-0.156 0.125-0.219 0.188-2.205 2.204-3.568 5.249-3.568 8.612 0 6.725 5.452 12.177 12.177 12.177 3.365 0 6.411-1.365 8.614-3.571l0-0c0.063-0.063 0.125-0.15 0.187-0.219 3.737-3.851 7.523-10.757 8.905-13.4 0.074-0.136 0.118-0.299 0.118-0.471 0-0.45-0.296-0.831-0.704-0.958l-0.007-0.002c-0.325-0.1-0.725-0.219-1.163-0.35 1.687-4.75 3.106-9.312 3.831-11.731 0.026-0.086 0.042-0.185 0.042-0.288 0-0.559-0.453-1.011-1.011-1.011-0.104 0-0.205 0.016-0.3 0.045l0.007-0.002zM19.709 18.772l-3.162 3.083 0.745 4.358c0.009 0.049 0.014 0.105 0.014 0.162 0 0.528-0.428 0.956-0.956 0.956-0.163 0-0.316-0.041-0.45-0.112l0.005 0.003-3.908-2.058-3.908 2.058c-0.692 0.371-1.521-0.221-1.387-1.009l0.75-4.358-3.162-3.083c-0.179-0.174-0.29-0.417-0.29-0.686 0-0.48 0.353-0.877 0.814-0.947l0.005-0.001 4.366-0.637 1.954-3.967c0.159-0.319 0.483-0.534 0.858-0.534s0.699 0.215 0.855 0.529l0.002 0.006 1.954 3.967 4.366 0.637c0.467 0.070 0.82 0.468 0.82 0.949 0 0.268-0.11 0.51-0.287 0.684l-0 0z"></path>
</svg>
