<!-- Generated by IcoMoon.io -->
<svg version="1.1" xmlns="http://www.w3.org/2000/svg" width="32" height="32" viewBox="0 0 32 32">
<title>comet</title>
<path d="M14.807 16.002l-1.954-3.967c-0.159-0.319-0.484-0.534-0.858-0.534s-0.699 0.215-0.856 0.529l-0.002 0.006-1.954 3.967-4.367 0.637c-0.466 0.070-0.819 0.467-0.819 0.947 0 0.269 0.111 0.512 0.29 0.686l0 0 3.163 3.083-0.75 4.358c-0.009 0.049-0.014 0.104-0.014 0.161 0 0.529 0.428 0.958 0.956 0.961h0c0.163-0 0.316-0.042 0.449-0.116l-0.005 0.002 3.908-2.058 3.908 2.058c0.13 0.070 0.284 0.112 0.448 0.112 0.527 0 0.954-0.427 0.954-0.954 0-0.059-0.005-0.116-0.015-0.172l0.001 0.006-0.745-4.358 3.162-3.083c0.177-0.174 0.287-0.416 0.287-0.684 0-0.481-0.354-0.879-0.815-0.948l-0.005-0.001zM15.148 19.924l-0.752 0.733 0.177 1.036 0.389 2.274-2.968-1.563-2.965 1.562 0.391-2.27 0.178-1.037-2.405-2.345 3.319-0.484 1.483-3.010 1.483 3.010 3.322 0.485zM31.547 0.452c-0.279-0.279-0.664-0.452-1.090-0.452-0.157 0-0.309 0.024-0.452 0.067l0.011-0.003c-2.018 0.612-6.805 2.099-10.461 3.681-0.051-0.182-0.107-0.344-0.15-0.494-0.174-0.557-0.576-0.998-1.095-1.22l-0.013-0.005c-0.22-0.096-0.477-0.152-0.747-0.152-0.33 0-0.641 0.084-0.912 0.231l0.010-0.005c-2.701 1.406-9.375 5.074-13.020 8.717-4.838 4.837-4.838 12.716 0 17.552 2.248 2.243 5.351 3.63 8.778 3.63s6.53-1.387 8.779-3.63l-0 0c3.643-3.643 7.307-10.316 8.719-13.015 0.139-0.263 0.221-0.574 0.221-0.905 0-0.269-0.054-0.525-0.152-0.758l0.005 0.013c-0.227-0.531-0.667-0.933-1.211-1.102l-0.014-0.004c-0.15-0.043-0.313-0.094-0.494-0.149 1.563-3.637 3.063-8.435 3.676-10.46 0.041-0.132 0.065-0.285 0.065-0.442 0-0.427-0.173-0.814-0.453-1.094v0zM25.967 12.655l-0.494 1.056 1.125 0.324c0.605 0.176 1.15 0.338 1.525 0.388-1.363 2.618-4.912 9.086-8.358 12.528-4.055 4.056-10.668 4.062-14.725 0s-4.057-10.666 0-14.721c3.443-3.443 9.912-6.992 12.451-8.386 0.125 0.412 0.287 0.956 0.461 1.562l0.326 1.125 1.057-0.494c3.211-1.506 7.893-3.018 10.418-3.792-0.77 2.524-2.293 7.223-3.787 10.41z"></path>
</svg>
