<!-- Generated by IcoMoon.io -->
<svg version="1.1" xmlns="http://www.w3.org/2000/svg" width="32" height="32" viewBox="0 0 32 32">
<title>comment-alt-times-solid</title>
<path d="M28 0h-24c-2.206 0-4 1.794-4 4v18c0 2.206 1.794 4 4 4h6v5.25c0 0.613 0.7 0.969 1.194 0.606l7.806-5.856h9c2.206 0 4-1.794 4-4v-18c0-2.206-1.794-4-4-4zM21.306 16.181c0.387 0.387 0.387 1.025 0 1.413l-0.706 0.706c-0.387 0.387-1.025 0.387-1.413 0l-3.188-3.181-3.181 3.181c-0.387 0.387-1.025 0.387-1.412 0l-0.706-0.706c-0.387-0.387-0.387-1.025 0-1.413l3.181-3.181-3.181-3.181c-0.387-0.387-0.387-1.025 0-1.412l0.706-0.706c0.387-0.388 1.025-0.388 1.412 0l3.181 3.181 3.181-3.181c0.387-0.388 1.025-0.388 1.413 0l0.706 0.706c0.387 0.387 0.387 1.025 0 1.412l-3.181 3.181 3.188 3.181z"></path>
</svg>
