<!-- Generated by IcoMoon.io -->
<svg version="1.1" xmlns="http://www.w3.org/2000/svg" width="36" height="32" viewBox="0 0 36 32">
<title>comments-dollar</title>
<path d="M33.251 24.136c1.717-1.695 2.749-3.821 2.749-6.136 0-5.001-4.778-9.133-11.011-9.871 0 0.001 0.001 0.001 0.001 0.002-1.966-3.601-6.593-6.131-11.989-6.131-7.18 0-13 4.477-13 10 0 2.315 1.032 4.441 2.749 6.136-0.956 1.921-2.334 3.408-2.356 3.431-0.394 0.418-0.503 1.033-0.276 1.562 0.227 0.517 0.734 0.872 1.324 0.872h0c3.346 0 6.042-1.265 7.823-2.424 0.568 0.131 1.153 0.23 1.75 0.301 1.969 3.597 6.594 6.122 11.986 6.122 1.299 0 2.552-0.151 3.736-0.424 1.781 1.159 4.477 2.424 7.823 2.424 0.576 0 1.097-0.344 1.324-0.872s0.118-1.144-0.276-1.562c-0.022-0.023-1.399-1.509-2.356-3.43zM9.714 19.628l-0.828-0.191-0.712 0.463c-1.254 0.816-3.156 1.766-5.48 2.029 0.548-0.706 1.261-1.726 1.846-2.902l0.645-1.297-1.031-1.018c-0.983-0.971-2.155-2.576-2.155-4.713 0-4.411 4.934-8 11-8s11 3.589 11 8-4.934 8-11 8c-1.108 0-2.214-0.126-3.286-0.372zM27.826 25.899l-0.712-0.463-0.828 0.191c-0.987 0.237-2.12 0.373-3.285 0.373-0.001 0-0.002 0-0.002 0h0c-4.071 0-7.625-1.621-9.527-4.018 6.959-0.193 12.527-4.582 12.527-9.982 0-0.591-0.079-1.166-0.207-1.729 4.715 0.902 8.208 4.021 8.208 7.729 0 2.137-1.172 3.742-2.154 4.712l-1.031 1.017 0.645 1.297c0.586 1.179 1.301 2.199 1.846 2.902-2.324-0.264-4.225-1.213-5.479-2.029zM14.586 11.432l-2.598-0.779c-0.264-0.079-0.449-0.351-0.449-0.661 0-0.377 0.271-0.684 0.604-0.684h1.621c0.244 0 0.478 0.068 0.685 0.194 0.198 0.121 0.457 0.072 0.625-0.088l0.715-0.679c0.221-0.21 0.211-0.576-0.034-0.757-0.511-0.377-1.123-0.599-1.755-0.645v-0.832c0-0.276-0.224-0.5-0.5-0.5h-1c-0.276 0-0.5 0.224-0.5 0.5v0.838c-1.366 0.081-2.461 1.226-2.461 2.654 0 1.186 0.771 2.246 1.875 2.577l2.598 0.779c0.264 0.079 0.449 0.351 0.449 0.661 0 0.377-0.271 0.684-0.604 0.684h-1.621c-0.244 0-0.478-0.068-0.685-0.194-0.198-0.121-0.457-0.072-0.625 0.088l-0.715 0.679c-0.221 0.21-0.211 0.576 0.034 0.757 0.511 0.377 1.123 0.599 1.755 0.645v0.832c0 0.276 0.224 0.5 0.5 0.5h1c0.276 0 0.5-0.224 0.5-0.5v-0.837c1.366-0.081 2.461-1.226 2.461-2.654 0-1.186-0.772-2.246-1.875-2.577z"></path>
</svg>
