<!-- Generated by IcoMoon.io -->
<svg version="1.1" xmlns="http://www.w3.org/2000/svg" width="36" height="32" viewBox="0 0 36 32">
<title>comments-alt-solid</title>
<path d="M26 14v-10c0-2.206-1.794-4-4-4h-18c-2.206 0-4 1.794-4 4v10c0 2.206 1.794 4 4 4v3.387c0 0.5 0.569 0.788 0.969 0.488l5.175-3.881h11.856c2.206 0.006 4-1.788 4-3.994zM32 10h-4v4c0 3.306-2.694 6-6 6h-10v4c0 2.206 1.794 4 4 4h7.856l5.175 3.881c0.4 0.3 0.969 0.012 0.969-0.488v-3.394h2c2.206 0 4-1.794 4-4v-10c0-2.206-1.794-4-4-4z"></path>
</svg>
