<!-- Generated by IcoMoon.io -->
<svg version="1.1" xmlns="http://www.w3.org/2000/svg" width="32" height="32" viewBox="0 0 32 32">
<title>comment-check-solid</title>
<path d="M16 2c-8.838 0-16 5.819-16 13 0 3.1 1.337 5.938 3.563 8.169-0.781 3.15-3.394 5.956-3.425 5.988-0.138 0.144-0.175 0.356-0.094 0.544s0.256 0.3 0.456 0.3c4.144 0 7.25-1.988 8.787-3.212 2.044 0.769 4.313 1.212 6.713 1.212 8.837 0 16-5.819 16-13s-7.163-13-16-13zM23.131 12.238l-8.188 8.125c-0.269 0.269-0.706 0.269-0.975-0.006l-4.731-4.769c-0.269-0.269-0.262-0.706 0.006-0.975l1.625-1.613c0.269-0.269 0.706-0.262 0.975 0.006l2.631 2.656 6.075-6.025c0.269-0.269 0.706-0.262 0.975 0.006l1.613 1.625c0.262 0.269 0.262 0.706-0.006 0.969z"></path>
</svg>
