<!-- Generated by IcoMoon.io -->
<svg version="1.1" xmlns="http://www.w3.org/2000/svg" width="32" height="32" viewBox="0 0 32 32">
<title>comment-alt-music-solid</title>
<path d="M28-0.063h-24c-2.208 0.002-3.998 1.792-4 4v18c0.002 2.208 1.792 3.998 4 4h6v5.25c0 0 0 0.001 0 0.001 0 0.414 0.336 0.75 0.75 0.75 0.167 0 0.321-0.054 0.445-0.146l-0.002 0.001 7.807-5.856h9c2.208-0.002 3.998-1.792 4-4v-18c-0.002-2.208-1.792-3.998-4-4h-0zM22 15.938c0 1.104-1.344 2-3 2s-3-0.896-3-2 1.344-2 3-2c0.356 0.003 0.701 0.049 1.030 0.131l-0.030-0.006v-4.773l-6 2.345v6.303c0 1.104-1.344 2-3 2s-3-0.896-3-2 1.344-2 3-2c0.356 0.003 0.701 0.049 1.030 0.131l-0.030-0.006v-7.172c0-0.445 0.291-0.821 0.692-0.951l0.007-0.002 8-2.953c0.090-0.029 0.193-0.046 0.301-0.046 0.552 0 1 0.447 1 0.999v0z"></path>
</svg>
