<!-- Generated by IcoMoon.io -->
<svg version="1.1" xmlns="http://www.w3.org/2000/svg" width="32" height="32" viewBox="0 0 32 32">
<title>comment-alt-times</title>
<path d="M28 0h-24c-2.206 0-4 1.794-4 4v18c0 2.206 1.794 4 4 4h6v5.25c0 0.444 0.363 0.75 0.75 0.75 0.15 0 0.306-0.044 0.444-0.15l7.806-5.85h9c2.206 0 4-1.794 4-4v-18c0-2.206-1.794-4-4-4zM30 22c0 1.1-0.9 2-2 2h-9.669l-0.531 0.4-5.8 4.35v-4.75h-8c-1.1 0-2-0.9-2-2v-18c0-1.1 0.9-2 2-2h24c1.1 0 2 0.9 2 2v18zM20.594 9.113l-0.706-0.706c-0.1-0.1-0.225-0.144-0.356-0.144s-0.256 0.050-0.356 0.144l-3.175 3.181-3.181-3.181c-0.1-0.1-0.225-0.144-0.356-0.144s-0.256 0.050-0.356 0.144l-0.706 0.706c-0.194 0.194-0.194 0.512 0 0.706l3.181 3.181-3.181 3.181c-0.194 0.194-0.194 0.512 0 0.706l0.706 0.706c0.1 0.1 0.225 0.144 0.356 0.144s0.256-0.050 0.356-0.144l3.181-3.181 3.181 3.181c0.1 0.1 0.225 0.144 0.356 0.144s0.256-0.050 0.356-0.144l0.706-0.706c0.194-0.194 0.194-0.512 0-0.706l-3.188-3.181 3.181-3.181c0.2-0.194 0.2-0.512 0-0.706z"></path>
</svg>
