<!-- Generated by IcoMoon.io -->
<svg version="1.1" xmlns="http://www.w3.org/2000/svg" width="36" height="32" viewBox="0 0 36 32">
<title>comments-alt-dollar</title>
<path d="M14 14.662c1.366-0.081 2.461-1.226 2.461-2.654 0-1.186-0.771-2.246-1.875-2.577l-2.598-0.779c-0.264-0.079-0.449-0.351-0.449-0.661 0-0.377 0.271-0.684 0.604-0.684h1.621c0.244 0 0.478 0.067 0.685 0.194 0.198 0.121 0.457 0.072 0.625-0.088l0.715-0.679c0.221-0.21 0.211-0.576-0.034-0.757-0.511-0.377-1.123-0.599-1.755-0.645v-0.832c0-0.276-0.224-0.5-0.5-0.5h-1c-0.276 0-0.5 0.224-0.5 0.5v0.838c-1.366 0.081-2.461 1.226-2.461 2.654 0 1.186 0.771 2.246 1.875 2.577l2.598 0.779c0.264 0.079 0.449 0.351 0.449 0.661 0 0.377-0.271 0.684-0.604 0.684h-1.621c-0.244 0-0.478-0.068-0.685-0.194-0.198-0.121-0.457-0.072-0.625 0.088l-0.715 0.679c-0.221 0.21-0.211 0.576 0.034 0.757 0.511 0.377 1.123 0.599 1.755 0.645v0.832c0 0.276 0.224 0.5 0.5 0.5h1c0.276 0 0.5-0.224 0.5-0.5v-0.838zM32 10h-6v-6c0-2.209-1.791-4-4-4h-18c-2.209 0-4 1.791-4 4v12c0 2.209 1.791 4 4 4h2v3.249c0 0.444 0.364 0.751 0.753 0.751 0.151 0 0.304-0.046 0.442-0.148l4.804-2.719v2.867c0 2.209 1.791 4 4 4h6l6.804 3.852c0.138 0.102 0.293 0.148 0.442 0.148 0.389 0 0.753-0.308 0.753-0.751v-3.249h2c2.209 0 4-1.791 4-4v-10c0-2.209-1.791-4-4-4zM8 21.098v-3.098h-4c-1.103 0-2-0.898-2-2v-12c0-1.103 0.897-2 2-2h18c1.102 0 2 0.897 2 2v12c0 1.102-0.898 2-2 2h-8.527l-5.473 3.098zM34 24c0 1.102-0.898 2-2 2h-4v3.098l-5.473-3.098h-6.527c-1.102 0-2-0.898-2-2v-4h8c2.209 0 4-1.791 4-4v-4h6c1.102 0 2 0.898 2 2v10z"></path>
</svg>
