<!-- Generated by IcoMoon.io -->
<svg version="1.1" xmlns="http://www.w3.org/2000/svg" width="32" height="32" viewBox="0 0 32 32">
<title>comment-edit-solid</title>
<path d="M16 2c-8.838 0-16 5.819-16 13 0 3.1 1.337 5.938 3.563 8.169-0.781 3.15-3.394 5.956-3.425 5.988-0.138 0.144-0.175 0.356-0.094 0.544s0.256 0.3 0.456 0.3c4.144 0 7.25-1.988 8.787-3.212 2.044 0.769 4.313 1.212 6.713 1.212 8.837 0 16-5.819 16-13s-7.163-13-16-13zM13.463 21.413l-3.013 0.337c-0.406 0.044-0.744-0.3-0.7-0.7l0.338-3.012 6.019-6.019 3.375 3.375-6.019 6.019zM22.881 11.994l-1.988 1.988-3.375-3.375 1.988-1.988c0.494-0.494 1.294-0.494 1.788 0l1.587 1.588c0.494 0.494 0.494 1.294 0 1.787z"></path>
</svg>
