<!-- Generated by IcoMoon.io -->
<svg version="1.1" xmlns="http://www.w3.org/2000/svg" width="36" height="32" viewBox="0 0 36 32">
<title>comments-alt-dollar-solid</title>
<path d="M26 14v-10c0-2.209-1.791-4-4-4h-18c-2.209 0-4 1.791-4 4v10c0 2.209 1.791 4 4 4v3.389c0 0.5 0.569 0.788 0.971 0.49l5.174-3.879h11.854c2.209 0 4-1.791 4-4zM14 13.992v1.008c0 0.276-0.224 0.5-0.5 0.5h-1c-0.276 0-0.5-0.224-0.5-0.5v-1.018c-0.706-0.036-1.392-0.283-1.961-0.709-0.244-0.183-0.256-0.548-0.036-0.759l0.734-0.701c0.173-0.165 0.431-0.172 0.633-0.046 0.242 0.151 0.516 0.232 0.801 0.232h1.757c0.406 0 0.738-0.37 0.738-0.824 0-0.372-0.226-0.699-0.548-0.796l-2.813-0.844c-1.162-0.349-1.974-1.464-1.974-2.712 0-1.532 1.191-2.777 2.667-2.817v-1.008c0-0.276 0.224-0.5 0.5-0.5h1c0.276 0 0.5 0.224 0.5 0.5v1.018c0.706 0.036 1.392 0.282 1.961 0.709 0.244 0.183 0.256 0.548 0.036 0.759l-0.734 0.701c-0.173 0.165-0.431 0.173-0.633 0.046-0.242-0.152-0.516-0.232-0.801-0.232h-1.757c-0.406 0-0.738 0.37-0.738 0.824 0 0.372 0.226 0.699 0.548 0.796l2.813 0.844c1.162 0.349 1.974 1.464 1.974 2.712 0 1.533-1.191 2.777-2.667 2.817zM32 10h-4v4c0 3.308-2.691 6-6 6h-10v4c0 2.209 1.791 4 4 4h7.854l5.174 3.879c0.402 0.298 0.971 0.010 0.971-0.49v-3.389h2c2.209 0 4-1.791 4-4v-10c0-2.209-1.791-4-4-4z"></path>
</svg>
