<!-- Generated by IcoMoon.io -->
<svg version="1.1" xmlns="http://www.w3.org/2000/svg" width="32" height="32" viewBox="0 0 32 32">
<title>comment-alt-smile</title>
<path d="M28 0h-24c-2.206 0-4 1.794-4 4v18c0 2.206 1.794 4 4 4h6v5.25c0 0.444 0.363 0.75 0.75 0.75 0.15 0 0.306-0.044 0.444-0.15l7.806-5.85h9c2.206 0 4-1.794 4-4v-18c0-2.206-1.794-4-4-4zM30 22c0 1.1-0.9 2-2 2h-9.669l-0.531 0.4-5.8 4.35v-4.75h-8c-1.1 0-2-0.9-2-2v-18c0-1.1 0.9-2 2-2h24c1.1 0 2 0.9 2 2v18zM20.738 14.831c-1.175 1.381-2.9 2.169-4.738 2.169s-3.563-0.788-4.738-2.162c-0.356-0.419-0.988-0.463-1.406-0.113-0.425 0.363-0.469 0.988-0.113 1.412 1.55 1.819 3.831 2.863 6.256 2.863s4.706-1.044 6.263-2.869c0.363-0.419 0.306-1.050-0.113-1.412-0.419-0.356-1.050-0.306-1.413 0.113zM12 11.5c0.831 0 1.5-0.669 1.5-1.5s-0.669-1.5-1.5-1.5-1.5 0.669-1.5 1.5 0.669 1.5 1.5 1.5zM20 11.5c0.831 0 1.5-0.669 1.5-1.5s-0.669-1.5-1.5-1.5-1.5 0.669-1.5 1.5 0.669 1.5 1.5 1.5z"></path>
</svg>
