<!-- Generated by IcoMoon.io -->
<svg version="1.1" xmlns="http://www.w3.org/2000/svg" width="32" height="32" viewBox="0 0 32 32">
<title>comment-alt-medical-solid</title>
<path d="M28 0h-24c-2.209 0-4 1.791-4 4v0 18c0 2.209 1.791 4 4 4v0h6v5.25c0 0.414 0.336 0.75 0.75 0.75 0.168 0 0.323-0.055 0.448-0.148l-0.002 0.001 7.804-5.853h9c2.209 0 4-1.791 4-4v0-18c0-2.209-1.791-4-4-4v0zM22 14.5c0 0.276-0.224 0.5-0.5 0.5v0h-3.5v3.5c0 0.276-0.224 0.5-0.5 0.5v0h-3c-0.276 0-0.5-0.224-0.5-0.5v0-3.5h-3.5c-0.276 0-0.5-0.224-0.5-0.5v0-3c0-0.276 0.224-0.5 0.5-0.5v0h3.5v-3.5c0-0.276 0.224-0.5 0.5-0.5v0h3c0.276 0 0.5 0.224 0.5 0.5v0 3.5h3.5c0.276 0 0.5 0.224 0.5 0.5v0z"></path>
</svg>
