<!-- Generated by IcoMoon.io -->
<svg version="1.1" xmlns="http://www.w3.org/2000/svg" width="32" height="32" viewBox="0 0 32 32">
<title>comment-lines-solid</title>
<path d="M16 2c-8.838 0-16 5.819-16 13 0 3.1 1.337 5.938 3.563 8.169-0.781 3.15-3.394 5.956-3.425 5.988-0.138 0.144-0.175 0.356-0.094 0.544s0.256 0.3 0.456 0.3c4.144 0 7.25-1.988 8.787-3.212 2.044 0.769 4.313 1.212 6.713 1.212 8.837 0 16-5.819 16-13s-7.163-13-16-13zM18 18.5c0 0.275-0.225 0.5-0.5 0.5h-9c-0.275 0-0.5-0.225-0.5-0.5v-1c0-0.275 0.225-0.5 0.5-0.5h9c0.275 0 0.5 0.225 0.5 0.5v1zM24 12.5c0 0.275-0.225 0.5-0.5 0.5h-15c-0.275 0-0.5-0.225-0.5-0.5v-1c0-0.275 0.225-0.5 0.5-0.5h15c0.275 0 0.5 0.225 0.5 0.5v1z"></path>
</svg>
