<!-- Generated by IcoMoon.io -->
<svg version="1.1" xmlns="http://www.w3.org/2000/svg" width="32" height="32" viewBox="0 0 32 32">
<title>comment-alt-minus</title>
<path d="M28 0h-24c-2.206 0-4 1.794-4 4v18c0 2.206 1.794 4 4 4h6v5.25c0 0.444 0.363 0.75 0.75 0.75 0.15 0 0.306-0.044 0.444-0.15l7.806-5.85h9c2.206 0 4-1.794 4-4v-18c0-2.206-1.794-4-4-4zM30 22c0 1.1-0.9 2-2 2h-9.669l-0.531 0.4-5.8 4.35v-4.75h-8c-1.1 0-2-0.9-2-2v-18c0-1.1 0.9-2 2-2h24c1.1 0 2 0.9 2 2v18zM21.5 12h-11c-0.275 0-0.5 0.225-0.5 0.5v1c0 0.275 0.225 0.5 0.5 0.5h11c0.275 0 0.5-0.225 0.5-0.5v-1c0-0.275-0.225-0.5-0.5-0.5z"></path>
</svg>
