<!-- Generated by IcoMoon.io -->
<svg version="1.1" xmlns="http://www.w3.org/2000/svg" width="32" height="32" viewBox="0 0 32 32">
<title>comment-alt-dollar-solid</title>
<path d="M28 0h-24c-2.209 0-4 1.791-4 4v18c0 2.209 1.791 4 4 4h6v5.249c0 0.616 0.701 0.969 1.196 0.603l7.804-5.852h9c2.209 0 4-1.791 4-4v-18c0-2.209-1.791-4-4-4zM17.5 18.902v1.098c0 0.552-0.448 1-1 1h-1c-0.553 0-1-0.448-1-1v-1.108c-0.714-0.084-1.393-0.324-1.986-0.716-0.389-0.257-0.426-0.819-0.097-1.149l1.095-1.095c0.234-0.234 0.582-0.265 0.882-0.127 0.199 0.091 0.416 0.139 0.641 0.139h2.049c0.291 0 0.527-0.236 0.527-0.526 0-0.234-0.157-0.443-0.383-0.507l-3.129-0.894c-1.391-0.397-2.501-1.544-2.682-2.979-0.253-2.004 1.189-3.714 3.082-3.941v-1.097c0-0.553 0.447-1 1-1h1c0.552 0 1 0.447 1 1v1.108c0.714 0.084 1.392 0.324 1.986 0.716 0.389 0.257 0.426 0.819 0.097 1.149l-1.095 1.095c-0.234 0.234-0.582 0.265-0.882 0.127-0.187-0.088-0.406-0.139-0.637-0.139-0.001 0-0.003 0-0.004 0h-2.049c-0.291 0-0.527 0.236-0.527 0.526 0 0.234 0.158 0.443 0.383 0.507l3.129 0.894c1.391 0.398 2.501 1.544 2.682 2.979 0.253 2.004-1.189 3.714-3.082 3.94z"></path>
</svg>
