<!-- Generated by IcoMoon.io -->
<svg version="1.1" xmlns="http://www.w3.org/2000/svg" width="32" height="32" viewBox="0 0 32 32">
<title>comment-alt-dollar</title>
<path d="M28 0h-24c-2.209 0-4 1.791-4 4v18c0 2.209 1.791 4 4 4h6v5.249c0 0.444 0.364 0.751 0.753 0.751 0.151 0 0.304-0.046 0.443-0.148l7.804-5.852h9c2.209 0 4-1.791 4-4v-18c0-2.209-1.791-4-4-4zM30 22c0 1.102-0.898 2-2 2h-9.666l-6.334 4.749v-4.749h-8c-1.103 0-2-0.898-2-2v-18c0-1.103 0.897-2 2-2h24c1.102 0 2 0.897 2 2v18zM18.121 12.566l-3.691-1.054c-0.547-0.158-0.93-0.663-0.93-1.231 0-0.706 0.574-1.28 1.279-1.28h2.307c0.515 0 1.005 0.16 1.414 0.457 0.187 0.136 0.451 0.091 0.615-0.072l0.714-0.714c0.219-0.219 0.184-0.576-0.062-0.764-0.766-0.588-1.699-0.907-2.681-0.907h-0.086v-1.501c0-0.276-0.224-0.5-0.5-0.5h-1c-0.276 0-0.5 0.224-0.5 0.5v1.5h-0.221c-1.912 0-3.446 1.644-3.265 3.593 0.129 1.385 1.191 2.508 2.528 2.889l3.527 1.007c0.547 0.158 0.93 0.663 0.93 1.231 0 0.706-0.574 1.28-1.279 1.28h-2.307c-0.515 0-1.005-0.16-1.414-0.457-0.187-0.136-0.451-0.091-0.615 0.073l-0.714 0.714c-0.219 0.219-0.184 0.576 0.062 0.764 0.766 0.588 1.699 0.907 2.681 0.907h0.086v1.5c0 0.276 0.224 0.5 0.5 0.5h1c0.276 0 0.5-0.224 0.5-0.5v-1.5h0.085c1.426 0 2.771-0.849 3.233-2.198 0.634-1.852-0.455-3.737-2.196-4.236z"></path>
</svg>
