<!-- Generated by IcoMoon.io -->
<svg version="1.1" xmlns="http://www.w3.org/2000/svg" width="32" height="32" viewBox="0 0 32 32">
<title>comment-music-solid</title>
<path d="M16 2c-8.838 0-16 5.818-16 13 0 3.099 1.338 5.938 3.563 8.169-0.781 3.149-3.394 5.956-3.426 5.988-0.084 0.089-0.136 0.21-0.136 0.343 0 0.073 0.016 0.142 0.043 0.204l-0.001-0.003c0.077 0.178 0.251 0.3 0.453 0.3 0.001 0 0.003 0 0.004-0h-0c4.144 0 7.25-1.988 8.787-3.213 1.986 0.768 4.285 1.213 6.688 1.213 0.009 0 0.018 0 0.027-0h-0.001c8.838 0 16-5.818 16-13s-7.162-13-16-13zM22 18c0 1.104-1.344 2-3 2s-3-0.896-3-2 1.344-2 3-2c0.356 0.003 0.701 0.049 1.030 0.131l-0.030-0.006v-4.773l-6 2.345v6.303c0 1.104-1.344 2-3 2s-3-0.896-3-2 1.344-2 3-2c0.356 0.003 0.701 0.049 1.030 0.131l-0.030-0.006v-7.172c0-0.445 0.291-0.821 0.692-0.951l0.007-0.002 8-2.953c0.090-0.029 0.193-0.046 0.301-0.046 0.552 0 1 0.447 1 0.999v0z"></path>
</svg>
