<!-- Generated by IcoMoon.io -->
<svg version="1.1" xmlns="http://www.w3.org/2000/svg" width="32" height="32" viewBox="0 0 32 32">
<title>comment-exclamation-solid</title>
<path d="M16 2c-8.838 0-16 5.819-16 13 0 3.1 1.337 5.938 3.563 8.169-0.781 3.15-3.394 5.956-3.425 5.988-0.138 0.144-0.175 0.356-0.094 0.544s0.256 0.3 0.456 0.3c4.144 0 7.25-1.988 8.787-3.212 2.044 0.769 4.313 1.212 6.713 1.212 8.837 0 16-5.819 16-13s-7.163-13-16-13zM16 23c-1.106 0-2-0.894-2-2s0.894-2 2-2 2 0.894 2 2-0.894 2-2 2zM17.587 16.1c-0.050 0.512-0.481 0.9-0.994 0.9h-1.188c-0.512 0-0.944-0.387-0.994-0.9l-0.8-8c-0.056-0.588 0.406-1.1 0.994-1.1h2.788c0.594 0 1.056 0.513 0.994 1.1l-0.8 8z"></path>
</svg>
