<!-- Generated by IcoMoon.io -->
<svg version="1.1" xmlns="http://www.w3.org/2000/svg" width="32" height="32" viewBox="0 0 32 32">
<title>comment-alt-edit</title>
<path d="M28 0h-24c-2.206 0-4 1.794-4 4v18c0 2.206 1.794 4 4 4h6v5.25c0 0.444 0.363 0.75 0.75 0.75 0.15 0 0.306-0.044 0.444-0.15l7.806-5.85h9c2.206 0 4-1.794 4-4v-18c0-2.206-1.794-4-4-4zM30 22c0 1.1-0.9 2-2 2h-9.669l-0.531 0.4-5.8 4.35v-4.75h-8c-1.1 0-2-0.9-2-2v-18c0-1.1 0.9-2 2-2h24c1.1 0 2 0.9 2 2v18zM21 6.588c-0.781-0.781-2.050-0.781-2.825 0l-7.881 7.875c-0.125 0.125-0.213 0.281-0.262 0.456l-1 3.825c-0.088 0.344 0.006 0.706 0.262 0.962 0.188 0.188 0.444 0.294 0.706 0.294 0.081 0 0.169-0.012 0.25-0.031l3.825-1c0.175-0.044 0.331-0.137 0.456-0.262l7.881-7.881c0.781-0.781 0.781-2.050 0-2.825l-1.413-1.412zM13.313 17.1l-1.912 0.5 0.5-1.912 4.687-4.688 1.413 1.412-4.688 4.688zM19.413 11l-1.413-1.412 1.587-1.588 1.413 1.412-1.587 1.588z"></path>
</svg>
