<!-- Generated by IcoMoon.io -->
<svg version="1.1" xmlns="http://www.w3.org/2000/svg" width="36" height="32" viewBox="0 0 36 32">
<title>comments-solid</title>
<path d="M26 12c0-5.525-5.819-10-13-10s-13 4.475-13 10c0 2.144 0.881 4.119 2.375 5.75-0.837 1.887-2.219 3.387-2.237 3.406-0.138 0.144-0.175 0.356-0.094 0.544s0.256 0.3 0.456 0.3c2.288 0 4.181-0.769 5.544-1.563 2.013 0.981 4.394 1.563 6.956 1.563 7.181 0 13-4.475 13-10zM33.625 25.75c1.494-1.625 2.375-3.606 2.375-5.75 0-4.181-3.344-7.762-8.081-9.256 0.056 0.412 0.081 0.831 0.081 1.256 0 6.619-6.731 12-15 12-0.675 0-1.331-0.050-1.981-0.119 1.969 3.594 6.594 6.119 11.981 6.119 2.563 0 4.944-0.575 6.956-1.563 1.363 0.794 3.256 1.563 5.544 1.563 0.2 0 0.381-0.119 0.456-0.3 0.081-0.181 0.044-0.394-0.094-0.544-0.019-0.019-1.4-1.512-2.237-3.406z"></path>
</svg>
