<!-- Generated by IcoMoon.io -->
<svg version="1.1" xmlns="http://www.w3.org/2000/svg" width="32" height="32" viewBox="0 0 32 32">
<title>comment-smile-solid</title>
<path d="M16 2c-8.838 0-16 5.819-16 13 0 3.1 1.337 5.938 3.563 8.169-0.781 3.15-3.394 5.956-3.425 5.988-0.138 0.144-0.175 0.356-0.094 0.544s0.256 0.3 0.456 0.3c4.144 0 7.25-1.988 8.787-3.212 2.044 0.769 4.313 1.212 6.713 1.212 8.837 0 16-5.819 16-13s-7.163-13-16-13zM20 10.325c0.925 0 1.675 0.75 1.675 1.675s-0.75 1.675-1.675 1.675-1.675-0.75-1.675-1.675 0.75-1.675 1.675-1.675zM12 10.325c0.925 0 1.675 0.75 1.675 1.675s-0.75 1.675-1.675 1.675-1.675-0.75-1.675-1.675 0.75-1.675 1.675-1.675zM22.262 19.131c-1.556 1.825-3.837 2.869-6.262 2.869s-4.706-1.044-6.262-2.869c-0.363-0.419-0.313-1.050 0.113-1.406 0.419-0.356 1.050-0.313 1.406 0.113 1.175 1.375 2.906 2.163 4.738 2.163 1.837 0 3.563-0.788 4.738-2.169 0.363-0.419 0.994-0.469 1.413-0.113 0.425 0.363 0.475 0.994 0.119 1.413z"></path>
</svg>
