<!-- Generated by IcoMoon.io -->
<svg version="1.1" xmlns="http://www.w3.org/2000/svg" width="32" height="32" viewBox="0 0 32 32">
<title>comment-music</title>
<path d="M16 2c-8.835 0-15.996 5.818-15.996 13 0 2.974 1.246 5.7 3.308 7.894-0.932 2.462-2.869 4.549-2.9 4.575-0.254 0.268-0.411 0.631-0.411 1.031 0 0.828 0.671 1.499 1.498 1.5h0c3.843 0 6.875-1.606 8.692-2.894 1.736 0.566 3.734 0.893 5.808 0.894h0c8.837 0 16-5.818 16-13s-7.161-13-16-13zM16 26c-0.003 0-0.007 0-0.011 0-1.852 0-3.637-0.293-5.309-0.834l0.122 0.034-0.951-0.299-0.813 0.574c-1.438 1.020-3.656 2.207-6.411 2.476 0.75-0.944 1.863-2.525 2.551-4.351l0.447-1.168-0.86-0.913c-1.804-1.913-2.761-4.169-2.761-6.519 0-6.063 6.281-11 14-11s14 4.938 14 11-6.284 11-14.004 11zM20.699 8.047l-7.997 2.953c-0.41 0.131-0.701 0.508-0.702 0.953v6.172c-0.299-0.076-0.644-0.122-0.998-0.125h-0.002c-1.656 0-3 0.896-3 2s1.344 2 3 2 3-0.896 3-2v-6.803l6-2.345v5.273c-0.299-0.076-0.644-0.122-0.998-0.125h-0.002c-1.656 0-3 0.896-3 2s1.344 2 3 2 3-0.896 3-2v-9c-0.001-0.552-0.448-0.999-1-0.999-0.107 0-0.21 0.017-0.306 0.048l0.007-0.002z"></path>
</svg>
