<!-- Generated by IcoMoon.io -->
<svg version="1.1" xmlns="http://www.w3.org/2000/svg" width="32" height="32" viewBox="0 0 32 32">
<title>comment-alt-exclamation-solid</title>
<path d="M28 0h-24c-2.206 0-4 1.794-4 4v18c0 2.206 1.794 4 4 4h6v5.25c0 0.613 0.7 0.969 1.194 0.606l7.806-5.856h9c2.206 0 4-1.794 4-4v-18c0-2.206-1.794-4-4-4zM16 21c-1.106 0-2-0.894-2-2s0.894-2 2-2 2 0.894 2 2-0.894 2-2 2zM17.587 14.1c-0.050 0.512-0.481 0.9-0.994 0.9h-1.188c-0.512 0-0.944-0.387-0.994-0.9l-0.8-8c-0.056-0.588 0.406-1.1 0.994-1.1h2.788c0.594 0 1.056 0.513 0.994 1.1l-0.8 8z"></path>
</svg>
