<!-- Generated by IcoMoon.io -->
<svg version="1.1" xmlns="http://www.w3.org/2000/svg" width="32" height="32" viewBox="0 0 32 32">
<title>comment-dollar</title>
<path d="M16 2c-8.836 0-16 5.82-16 13 0 2.972 1.241 5.702 3.306 7.892-0.931 2.466-2.871 4.549-2.897 4.577-0.41 0.434-0.524 1.074-0.287 1.624s0.777 0.907 1.377 0.907c3.844 0 6.876-1.608 8.697-2.896 1.801 0.571 3.754 0.896 5.804 0.896 8.836 0 16-5.82 16-13s-7.164-13-16-13zM16 26c-1.771 0-3.52-0.27-5.201-0.802l-0.947-0.3-0.812 0.574c-1.439 1.018-3.658 2.209-6.414 2.474 0.749-0.943 1.864-2.527 2.551-4.347l0.442-1.169-0.857-0.909c-1.806-1.916-2.761-4.171-2.761-6.521 0-6.066 6.281-11 14-11s14 4.934 14 11-6.281 11-14 11zM18.121 14.566l-3.691-1.054c-0.547-0.158-0.93-0.663-0.93-1.231 0-0.706 0.574-1.28 1.279-1.28h2.307c0.515 0 1.005 0.16 1.414 0.457 0.187 0.136 0.451 0.091 0.615-0.072l0.714-0.714c0.219-0.219 0.184-0.576-0.062-0.764-0.766-0.588-1.699-0.907-2.681-0.907h-0.086v-1.5c0-0.276-0.224-0.5-0.5-0.5h-1c-0.276 0-0.5 0.224-0.5 0.5v1.5h-0.221c-1.912 0-3.446 1.644-3.265 3.592 0.129 1.385 1.191 2.508 2.528 2.889l3.527 1.007c0.547 0.157 0.93 0.663 0.93 1.231 0 0.706-0.574 1.28-1.279 1.28h-2.307c-0.515 0-1.005-0.16-1.414-0.457-0.187-0.136-0.451-0.091-0.615 0.073l-0.714 0.714c-0.219 0.219-0.184 0.576 0.062 0.764 0.766 0.588 1.699 0.907 2.681 0.907h0.086v1.5c0 0.276 0.224 0.5 0.5 0.5h1c0.276 0 0.5-0.224 0.5-0.5v-1.5h0.085c1.426 0 2.771-0.849 3.233-2.198 0.634-1.853-0.455-3.738-2.196-4.236z"></path>
</svg>
