<!-- Generated by IcoMoon.io -->
<svg version="1.1" xmlns="http://www.w3.org/2000/svg" width="40" height="32" viewBox="0 0 40 32">
<title>comment-alt-slash</title>
<path d="M39.813 30.325l-38.375-30.212c-0.212-0.175-0.531-0.138-0.7 0.075l-0.625 0.781c-0.175 0.219-0.138 0.531 0.075 0.706l38.375 30.212c0.212 0.175 0.531 0.137 0.7-0.075l0.625-0.781c0.175-0.219 0.138-0.531-0.075-0.706zM23 24h-0.669l-0.531 0.4-5.8 4.35v-4.75h-8c-1.1 0-2-0.9-2-2v-11.931l-2-1.575v13.506c0 2.206 1.794 4 4 4h6v5.25c0 0.444 0.363 0.75 0.75 0.75 0.15 0 0.306-0.044 0.444-0.15l7.806-5.85h3.231l-2.538-2h-0.694zM32 2c1.1 0 2 0.9 2 2v17.931l1.763 1.387c0.144-0.413 0.237-0.856 0.237-1.319v-18c0-2.206-1.794-4-4-4h-24c-0.525 0-1.025 0.106-1.481 0.294l2.169 1.706h23.313z"></path>
</svg>
