<!-- Generated by IcoMoon.io -->
<svg version="1.1" xmlns="http://www.w3.org/2000/svg" width="32" height="32" viewBox="0 0 32 32">
<title>comment-alt-edit-solid</title>
<path d="M28 0h-24c-2.206 0-4 1.794-4 4v18c0 2.206 1.794 4 4 4h6v5.25c0 0.613 0.7 0.969 1.194 0.606l7.806-5.856h9c2.206 0 4-1.794 4-4v-18c0-2.206-1.794-4-4-4zM13.463 19.413l-3.013 0.337c-0.406 0.044-0.744-0.3-0.7-0.7l0.338-3.012 6.019-6.019 3.375 3.375-6.019 6.019zM22.881 9.994l-1.988 1.988-3.375-3.375 1.988-1.987c0.494-0.494 1.294-0.494 1.788 0l1.587 1.587c0.494 0.494 0.494 1.294 0 1.787z"></path>
</svg>
