<!-- Generated by IcoMoon.io -->
<svg version="1.1" xmlns="http://www.w3.org/2000/svg" width="40" height="32" viewBox="0 0 40 32">
<title>comment-alt-slash-solid</title>
<path d="M4 22c0 2.206 1.794 4 4 4h6v5.25c0 0.613 0.7 0.969 1.194 0.606l7.806-5.856h0.125l-19.125-14.781v10.781zM39.612 28.631l-4.85-3.75c0.756-0.725 1.237-1.75 1.237-2.881v-18c0-2.206-1.794-4-4-4h-24c-1.344 0-2.525 0.669-3.25 1.688l-1.906-1.475c-0.438-0.338-1.063-0.263-1.406 0.175l-1.225 1.575c-0.338 0.438-0.263 1.063 0.175 1.4l36.775 28.419c0.438 0.337 1.063 0.263 1.406-0.175l1.225-1.581c0.337-0.425 0.256-1.056-0.181-1.394z"></path>
</svg>
