<!-- Generated by IcoMoon.io -->
<svg version="1.1" xmlns="http://www.w3.org/2000/svg" width="32" height="32" viewBox="0 0 32 32">
<title>comment-minus</title>
<path d="M21.5 14h-11c-0.275 0-0.5 0.225-0.5 0.5v1c0 0.275 0.225 0.5 0.5 0.5h11c0.275 0 0.5-0.225 0.5-0.5v-1c0-0.275-0.225-0.5-0.5-0.5zM16 2c-8.838 0-16 5.819-16 13 0 2.975 1.244 5.7 3.306 7.894-0.931 2.462-2.869 4.55-2.9 4.575-0.412 0.438-0.525 1.075-0.287 1.625s0.781 0.906 1.381 0.906c3.844 0 6.875-1.606 8.694-2.894 1.806 0.569 3.756 0.894 5.806 0.894 8.837 0 16-5.819 16-13s-7.163-13-16-13zM16 26c-1.769 0-3.519-0.269-5.2-0.8l-0.95-0.3-0.813 0.575c-1.438 1.019-3.656 2.206-6.412 2.475 0.75-0.944 1.862-2.525 2.55-4.35l0.444-1.169-0.856-0.913c-1.806-1.913-2.763-4.169-2.763-6.519 0-6.063 6.281-11 14-11s14 4.938 14 11-6.281 11-14 11z"></path>
</svg>
