<!-- Generated by IcoMoon.io -->
<svg version="1.1" xmlns="http://www.w3.org/2000/svg" width="32" height="32" viewBox="0 0 32 32">
<title>comment-alt-plus-solid</title>
<path d="M28 0h-24c-2.206 0-4 1.794-4 4v18c0 2.206 1.794 4 4 4h6v5.25c0 0.613 0.7 0.969 1.194 0.606l7.806-5.856h9c2.206 0 4-1.794 4-4v-18c0-2.206-1.794-4-4-4zM23 13.5c0 0.55-0.45 1-1 1h-4.5v4.5c0 0.55-0.45 1-1 1h-1c-0.55 0-1-0.45-1-1v-4.5h-4.5c-0.55 0-1-0.45-1-1v-1c0-0.55 0.45-1 1-1h4.5v-4.5c0-0.55 0.45-1 1-1h1c0.55 0 1 0.45 1 1v4.5h4.5c0.55 0 1 0.45 1 1v1z"></path>
</svg>
