<!-- Generated by IcoMoon.io -->
<svg version="1.1" xmlns="http://www.w3.org/2000/svg" width="32" height="32" viewBox="0 0 32 32">
<title>comment-alt-exclamation</title>
<path d="M28 0h-24c-2.206 0-4 1.794-4 4v18c0 2.206 1.794 4 4 4h6v5.25c0 0.444 0.363 0.75 0.75 0.75 0.15 0 0.306-0.044 0.444-0.15l7.806-5.85h9c2.206 0 4-1.794 4-4v-18c0-2.206-1.794-4-4-4zM30 22c0 1.1-0.9 2-2 2h-9.669l-0.531 0.4-5.8 4.35v-4.75h-8c-1.1 0-2-0.9-2-2v-18c0-1.1 0.9-2 2-2h24c1.1 0 2 0.9 2 2v18zM16 16.5c-0.831 0-1.5 0.669-1.5 1.5s0.669 1.5 1.5 1.5 1.5-0.669 1.5-1.5-0.669-1.5-1.5-1.5zM15.469 15h1.063c0.262 0 0.481-0.206 0.5-0.469l0.438-7c0.019-0.287-0.212-0.531-0.5-0.531h-1.938c-0.287 0-0.519 0.244-0.5 0.531l0.438 7c0.019 0.262 0.238 0.469 0.5 0.469z"></path>
</svg>
