<!-- Generated by IcoMoon.io -->
<svg version="1.1" xmlns="http://www.w3.org/2000/svg" width="32" height="32" viewBox="0 0 32 32">
<title>comment-alt-check-solid</title>
<path d="M28 0h-24c-2.206 0-4 1.794-4 4v18c0 2.206 1.794 4 4 4h6v5.25c0 0.613 0.7 0.969 1.194 0.606l7.806-5.856h9c2.206 0 4-1.794 4-4v-18c0-2.206-1.794-4-4-4zM23.131 10.238l-8.188 8.125c-0.269 0.269-0.706 0.269-0.975-0.006l-4.731-4.769c-0.269-0.269-0.262-0.706 0.006-0.975l1.625-1.613c0.269-0.269 0.706-0.262 0.975 0.006l2.631 2.656 6.075-6.025c0.269-0.269 0.706-0.263 0.975 0.006l1.613 1.625c0.262 0.269 0.262 0.706-0.006 0.969z"></path>
</svg>
