<!-- Generated by IcoMoon.io -->
<svg version="1.1" xmlns="http://www.w3.org/2000/svg" width="32" height="32" viewBox="0 0 32 32">
<title>comment-medical</title>
<path d="M21.5 13h-3.5v-3.5c0-0.276-0.224-0.5-0.5-0.5v0h-3c-0.276 0-0.5 0.224-0.5 0.5v0 3.5h-3.5c-0.276 0-0.5 0.224-0.5 0.5v0 3c0 0.276 0.224 0.5 0.5 0.5v0h3.5v3.5c0 0.276 0.224 0.5 0.5 0.5v0h3c0.276 0 0.5-0.224 0.5-0.5v0-3.5h3.5c0.276 0 0.5-0.224 0.5-0.5v0-3c0-0.276-0.224-0.5-0.5-0.5v0zM16 2c-8.836 0-16 5.82-16 13 0 2.972 1.241 5.702 3.306 7.892-0.931 2.466-2.869 4.549-2.897 4.577-0.254 0.268-0.411 0.631-0.411 1.031 0 0.828 0.672 1.5 1.5 1.5 0.001 0 0.001 0 0.002 0h-0c3.844 0 6.875-1.608 8.697-2.896 1.733 0.568 3.726 0.896 5.797 0.896 0.002 0 0.004 0 0.007 0h-0c8.836 0 16-5.82 16-13s-7.164-13-16-13zM16 26c-0.003 0-0.006 0-0.009 0-1.854 0-3.64-0.294-5.313-0.837l0.122 0.034-0.947-0.3-0.813 0.574c-1.438 1.018-3.658 2.209-6.414 2.474 0.75-0.946 1.865-2.527 2.553-4.347l0.441-1.169-0.857-0.91c-1.806-1.915-2.761-4.169-2.761-6.519 0-6.063 6.281-11 14-11s14 4.938 14 11-6.281 11-14 11z"></path>
</svg>
