<!-- Generated by IcoMoon.io -->
<svg version="1.1" xmlns="http://www.w3.org/2000/svg" width="36" height="32" viewBox="0 0 36 32">
<title>comments-dollar-solid</title>
<path d="M26 12c0-5.523-5.82-10-13-10s-13 4.477-13 10c0 2.142 0.883 4.122 2.373 5.749-0.835 1.89-2.216 3.386-2.236 3.407-0.085 0.089-0.137 0.211-0.137 0.344 0 0.276 0.224 0.5 0.5 0.5 0 0 0 0 0 0v0c2.286 0 4.183-0.766 5.546-1.561 2.012 0.984 4.393 1.561 6.954 1.561 7.18 0 13-4.477 13-10zM12 18v-1.018c-0.706-0.036-1.392-0.282-1.961-0.709-0.244-0.183-0.256-0.548-0.036-0.759l0.734-0.701c0.173-0.165 0.431-0.172 0.633-0.046 0.242 0.151 0.516 0.232 0.801 0.232h1.757c0.406 0 0.738-0.37 0.738-0.824 0-0.372-0.226-0.699-0.548-0.796l-2.813-0.844c-1.162-0.349-1.974-1.464-1.974-2.712 0-1.533 1.191-2.777 2.667-2.817v-1.008c0-0.276 0.224-0.5 0.5-0.5h1c0.276 0 0.5 0.224 0.5 0.5v1.018c0.706 0.036 1.392 0.282 1.961 0.709 0.244 0.183 0.256 0.548 0.036 0.759l-0.734 0.701c-0.173 0.165-0.431 0.172-0.633 0.046-0.242-0.152-0.516-0.232-0.801-0.232h-1.757c-0.406 0-0.738 0.37-0.738 0.824 0 0.372 0.226 0.699 0.548 0.796l2.813 0.844c1.162 0.349 1.974 1.464 1.974 2.712 0 1.533-1.191 2.777-2.667 2.817v1.008c0 0.276-0.224 0.5-0.5 0.5h-1c-0.276 0-0.5-0.224-0.5-0.5zM33.626 25.749c1.491-1.627 2.374-3.608 2.374-5.749 0-4.184-3.343-7.762-8.083-9.254 0.054 0.412 0.083 0.831 0.083 1.254 0 6.617-6.729 12-15 12-0.674 0-1.332-0.048-1.983-0.117 1.971 3.594 6.594 6.117 11.983 6.117 2.561 0 4.942-0.578 6.954-1.561 1.363 0.796 3.259 1.561 5.546 1.561 0.2 0 0.381-0.119 0.459-0.302 0.079-0.184 0.041-0.396-0.097-0.542-0.019-0.021-1.401-1.515-2.236-3.406z"></path>
</svg>
