<!-- Generated by IcoMoon.io -->
<svg version="1.1" xmlns="http://www.w3.org/2000/svg" width="32" height="32" viewBox="0 0 32 32">
<title>comment-alt-smile-solid</title>
<path d="M28 0h-24c-2.206 0-4 1.794-4 4v18c0 2.206 1.794 4 4 4h6v5.25c0 0.613 0.7 0.969 1.194 0.606l7.806-5.856h9c2.206 0 4-1.794 4-4v-18c0-2.206-1.794-4-4-4zM20 8.325c0.925 0 1.675 0.75 1.675 1.675s-0.75 1.675-1.675 1.675-1.675-0.75-1.675-1.675 0.75-1.675 1.675-1.675zM12 8.325c0.925 0 1.675 0.75 1.675 1.675s-0.75 1.675-1.675 1.675-1.675-0.75-1.675-1.675 0.75-1.675 1.675-1.675zM22.262 17.131c-1.556 1.825-3.837 2.869-6.262 2.869s-4.706-1.044-6.262-2.869c-0.363-0.419-0.313-1.050 0.113-1.406 0.419-0.356 1.050-0.313 1.406 0.113 1.175 1.375 2.906 2.163 4.738 2.163 1.837 0 3.563-0.788 4.738-2.169 0.363-0.419 0.994-0.469 1.413-0.113 0.425 0.363 0.475 0.994 0.119 1.413z"></path>
</svg>
