<!-- Generated by IcoMoon.io -->
<svg version="1.1" xmlns="http://www.w3.org/2000/svg" width="32" height="32" viewBox="0 0 32 32">
<title>comment-alt-medical</title>
<path d="M28 0h-24c-2.209 0-4 1.791-4 4v0 18c0 2.209 1.791 4 4 4v0h6v5.25c0 0 0 0 0 0 0 0.414 0.336 0.75 0.75 0.75 0.001 0 0.002 0 0.003 0h-0c0.167-0 0.321-0.056 0.444-0.149l-0.002 0.001 7.804-5.852h9c2.209 0 4-1.791 4-4v0-18c0-2.209-1.791-4-4-4v0zM30 22c0 1.105-0.895 2-2 2v0h-9.666l-6.334 4.75v-4.75h-8c-1.105 0-2-0.895-2-2v0-18c0-1.105 0.895-2 2-2v0h24c1.105 0 2 0.895 2 2v0zM21.5 11h-3.5v-3.5c0-0.276-0.224-0.5-0.5-0.5v0h-3c-0.276 0-0.5 0.224-0.5 0.5v0 3.5h-3.5c-0.276 0-0.5 0.224-0.5 0.5v0 3c0 0.276 0.224 0.5 0.5 0.5v0h3.5v3.5c0 0.276 0.224 0.5 0.5 0.5v0h3c0.276 0 0.5-0.224 0.5-0.5v0-3.5h3.5c0.276 0 0.5-0.224 0.5-0.5v0-3c0-0.276-0.224-0.5-0.5-0.5v0z"></path>
</svg>
