<!-- Generated by IcoMoon.io -->
<svg version="1.1" xmlns="http://www.w3.org/2000/svg" width="40" height="32" viewBox="0 0 40 32">
<title>comment-slash-solid</title>
<path d="M4 15c0 3.1 1.338 5.938 3.563 8.169-0.787 3.144-3.394 5.95-3.425 5.988-0.138 0.144-0.175 0.356-0.094 0.544 0.081 0.181 0.256 0.3 0.456 0.3 4.144 0 7.25-1.988 8.787-3.212 2.044 0.769 4.313 1.212 6.713 1.212 1.712 0 3.356-0.225 4.9-0.625l-20.344-15.725c-0.35 1.069-0.556 2.188-0.556 3.35zM39.612 28.631l-7.15-5.525c2.2-2.225 3.538-5.031 3.538-8.106 0-7.181-7.163-13-16-13-4.069 0-7.762 1.256-10.588 3.294l-6.569-5.081c-0.438-0.338-1.063-0.263-1.406 0.175l-1.225 1.575c-0.338 0.438-0.263 1.063 0.175 1.4l36.775 28.419c0.438 0.338 1.063 0.262 1.406-0.175l1.225-1.581c0.337-0.425 0.256-1.056-0.181-1.394z"></path>
</svg>
