<!-- Generated by IcoMoon.io -->
<svg version="1.1" xmlns="http://www.w3.org/2000/svg" width="36" height="32" viewBox="0 0 36 32">
<title>comments-alt</title>
<path d="M32 10h-6v-6c0-2.206-1.794-4-4-4h-18c-2.206 0-4 1.794-4 4v10c0 2.206 1.794 4 4 4h2v3.25c0 0.444 0.362 0.75 0.75 0.75 0.15 0 0.306-0.044 0.444-0.15l4.806-2.719v4.869c0 2.206 1.794 4 4 4h6l6.806 3.85c0.137 0.1 0.294 0.15 0.444 0.15 0.387 0 0.75-0.306 0.75-0.75v-3.25h2c2.206 0 4-1.794 4-4v-10c0-2.206-1.794-4-4-4zM4 16c-1.1 0-2-0.9-2-2v-10c0-1.1 0.9-2 2-2h18c1.1 0 2 0.9 2 2v10c0 1.1-0.9 2-2 2h-8.525l-0.456 0.262-5.019 2.837v-3.1zM34 24c0 1.1-0.9 2-2 2h-4v3.1l-5.469-3.1h-6.531c-1.1 0-2-0.9-2-2v-6h8c2.206 0 4-1.794 4-4v-2h6c1.1 0 2 0.9 2 2z"></path>
</svg>
