<!-- Generated by IcoMoon.io -->
<svg version="1.1" xmlns="http://www.w3.org/2000/svg" width="40" height="32" viewBox="0 0 40 32">
<title>comment-slash</title>
<path d="M20 4c7.719 0 14 4.938 14 11 0 1.988-0.688 3.85-1.869 5.462l1.563 1.231c1.456-1.956 2.306-4.244 2.306-6.694 0-7.181-7.163-13-16-13-3.2 0-6.169 0.769-8.669 2.081l1.738 1.369c2.050-0.919 4.413-1.45 6.931-1.45zM39.813 30.325l-38.375-30.212c-0.212-0.175-0.531-0.138-0.7 0.075l-0.625 0.781c-0.175 0.219-0.138 0.531 0.075 0.706l38.375 30.212c0.212 0.175 0.531 0.137 0.7-0.075l0.625-0.781c0.175-0.219 0.138-0.531-0.075-0.706zM20 26c-1.769 0-3.519-0.269-5.2-0.8l-0.95-0.3-0.813 0.575c-1.438 1.019-3.656 2.206-6.412 2.475 0.75-0.944 1.863-2.525 2.55-4.35l0.444-1.169-0.856-0.913c-1.806-1.913-2.763-4.169-2.763-6.519 0-1.456 0.369-2.85 1.031-4.125l-1.587-1.25c-0.919 1.644-1.444 3.456-1.444 5.375 0 2.975 1.244 5.7 3.306 7.894-0.931 2.462-2.869 4.55-2.9 4.575-0.413 0.438-0.525 1.075-0.287 1.625s0.781 0.906 1.381 0.906c3.844 0 6.875-1.606 8.694-2.894 1.806 0.569 3.756 0.894 5.806 0.894 2.538 0 4.931-0.494 7.063-1.35l-1.844-1.45c-1.619 0.512-3.375 0.8-5.219 0.8z"></path>
</svg>
