<!-- Generated by IcoMoon.io -->
<svg version="1.1" xmlns="http://www.w3.org/2000/svg" width="32" height="32" viewBox="0 0 32 32">
<title>comment-medical-solid</title>
<path d="M16 2c-8.836 0-16 5.82-16 13 0 3.098 1.338 5.938 3.563 8.171-0.784 3.144-3.394 5.954-3.425 5.985-0.085 0.089-0.137 0.21-0.137 0.344 0 0.276 0.224 0.5 0.499 0.5h0c4.141 0 7.25-1.984 8.787-3.211 1.985 0.767 4.282 1.211 6.683 1.211 0.010 0 0.021 0 0.031-0h-0.002c8.837 0 16-5.82 16-13s-7.163-13-16-13zM22 16.5c0 0.276-0.224 0.5-0.5 0.5v0h-3.5v3.5c0 0.276-0.224 0.5-0.5 0.5v0h-3c-0.276 0-0.5-0.224-0.5-0.5v0-3.5h-3.5c-0.276 0-0.5-0.224-0.5-0.5v0-3c0-0.276 0.224-0.5 0.5-0.5v0h3.5v-3.5c0-0.276 0.224-0.5 0.5-0.5v0h3c0.276 0 0.5 0.224 0.5 0.5v0 3.5h3.5c0.276 0 0.5 0.224 0.5 0.5v0z"></path>
</svg>
