<!-- Generated by IcoMoon.io -->
<svg version="1.1" xmlns="http://www.w3.org/2000/svg" width="32" height="32" viewBox="0 0 32 32">
<title>comment-alt-music</title>
<path d="M28 0h-24c-2.208 0.002-3.998 1.792-4 4v18c0.002 2.208 1.792 3.998 4 4h6v5.25c0 0.414 0.336 0.75 0.75 0.75v0c0.002 0 0.004 0 0.006 0 0.166 0 0.318-0.057 0.439-0.152l-0.002 0.001 7.807-5.849h9c2.208-0.002 3.998-1.792 4-4v-18c-0.002-2.208-1.792-3.998-4-4h-0zM30 22c-0.004 1.103-0.897 1.996-2 2h-9.668l-0.531 0.401-5.801 4.349v-4.75h-8c-1.103-0.004-1.996-0.897-2-2v-18c0.004-1.103 0.897-1.996 2-2h24c1.103 0.004 1.996 0.897 2 2v0zM20.699 6.047l-8 2.953c-0.409 0.132-0.699 0.508-0.699 0.953v6.172c-0.299-0.076-0.644-0.122-0.998-0.125h-0.002c-1.656 0-3 0.896-3 2s1.344 2 3 2 3-0.896 3-2v-6.803l6-2.345v5.273c-0.299-0.076-0.644-0.122-0.998-0.125h-0.002c-1.656 0-3 0.896-3 2s1.344 2 3 2 3-0.896 3-2v-9c-0-0.552-0.448-0.999-1-0.999-0.107 0-0.211 0.017-0.308 0.048l0.007-0.002z"></path>
</svg>
