<!-- Generated by IcoMoon.io -->
<svg version="1.1" xmlns="http://www.w3.org/2000/svg" width="32" height="32" viewBox="0 0 32 32">
<title>compress-arrows-alt-solid</title>
<path d="M12.5 18h-7c-1.338 0-2.006 1.613-1.063 2.563l2.056 1.938-6.2 6.206c-0.388 0.387-0.388 1.025 0 1.413l1.587 1.587c0.388 0.387 1.025 0.387 1.413 0l6.206-6.206 1.944 2.063c0.944 0.944 2.556 0.275 2.556-1.063v-7c0-0.831-0.669-1.5-1.5-1.5zM19.5 14h7c1.337 0 2.006-1.619 1.063-2.563l-2.063-1.938 6.206-6.206c0.387-0.388 0.387-1.025 0-1.413l-1.587-1.587c-0.387-0.388-1.025-0.388-1.413 0l-6.206 6.206-1.944-2.063c-0.944-0.944-2.556-0.275-2.556 1.063v7c0 0.831 0.669 1.5 1.5 1.5zM25.5 22.5l2.063-1.944c0.944-0.944 0.275-2.556-1.063-2.556h-7c-0.831 0-1.5 0.669-1.5 1.5v7c0 1.337 1.619 2.006 2.563 1.063l1.938-2.056 6.206 6.206c0.387 0.387 1.025 0.387 1.413 0l1.587-1.587c0.387-0.387 0.387-1.025 0-1.413l-6.206-6.213zM11.438 4.444l-1.938 2.056-6.206-6.206c-0.388-0.388-1.025-0.388-1.413 0l-1.587 1.587c-0.388 0.388-0.388 1.025 0 1.413l6.206 6.206-2.063 1.944c-0.944 0.944-0.275 2.556 1.063 2.556h7c0.831 0 1.5-0.669 1.5-1.5v-7c0-1.331-1.619-2-2.563-1.056z"></path>
</svg>
