<!-- Generated by IcoMoon.io -->
<svg version="1.1" xmlns="http://www.w3.org/2000/svg" width="31" height="32" viewBox="0 0 31 32">
<title>compass-solid</title>
<path d="M14.086 14.586c-0.781 0.781-0.781 2.047 0 2.828s2.047 0.781 2.828 0c0.781-0.781 0.781-2.047 0-2.828s-2.047-0.781-2.828 0zM15.5 0.5c-8.561 0-15.5 6.939-15.5 15.5s6.939 15.5 15.5 15.5 15.5-6.939 15.5-15.5-6.939-15.5-15.5-15.5zM23.384 9.753l-4.123 9.022c-0.203 0.438-0.548 0.782-0.973 0.98l-0.012 0.005-9.021 4.123c-1.041 0.476-2.113-0.597-1.638-1.637l4.124-9.022c0.204-0.438 0.548-0.782 0.973-0.98l0.012-0.005 9.021-4.123c1.041-0.475 2.113 0.597 1.637 1.637z"></path>
</svg>
