<!-- Generated by IcoMoon.io -->
<svg version="1.1" xmlns="http://www.w3.org/2000/svg" width="31" height="32" viewBox="0 0 31 32">
<title>compass</title>
<path d="M16.561 17.061c0.586-0.586 0.586-1.536 0-2.121s-1.536-0.586-2.121 0c-0.586 0.586-0.586 1.536 0 2.121s1.536 0.586 2.121 0zM21.965 7.813c-0.141 0-0.282 0.023-0.419 0.072l-9.681 3.491c-0.468 0.169-0.819 0.519-0.988 0.988l-3.491 9.682c-0.353 0.979 0.646 2.142 1.65 2.142 0.141 0 0.282-0.023 0.419-0.073l9.681-3.491c0.468-0.169 0.819-0.519 0.988-0.988l3.491-9.681c0.352-0.979-0.646-2.143-1.65-2.143zM18.299 18.799l-8.756 3.157 3.157-8.757 8.757-3.157-3.157 8.757zM15.5 0.5c-8.561 0-15.5 6.939-15.5 15.5s6.939 15.5 15.5 15.5 15.5-6.939 15.5-15.5-6.939-15.5-15.5-15.5zM15.5 29.5c-7.444 0-13.5-6.056-13.5-13.5s6.056-13.5 13.5-13.5 13.5 6.056 13.5 13.5-6.056 13.5-13.5 13.5z"></path>
</svg>
