<!-- Generated by IcoMoon.io -->
<svg version="1.1" xmlns="http://www.w3.org/2000/svg" width="32" height="32" viewBox="0 0 32 32">
<title>compress-wide</title>
<path d="M31.25 14h-7.75c-0.831 0-1.5-0.669-1.5-1.5v-7.75c0-0.412 0.337-0.75 0.75-0.75h0.5c0.413 0 0.75 0.338 0.75 0.75v7.25h7.25c0.413 0 0.75 0.338 0.75 0.75v0.5c0 0.412-0.337 0.75-0.75 0.75zM10 12.5v-7.75c0-0.412-0.338-0.75-0.75-0.75h-0.5c-0.412 0-0.75 0.338-0.75 0.75v7.25h-7.25c-0.412 0-0.75 0.338-0.75 0.75v0.5c0 0.412 0.338 0.75 0.75 0.75h7.75c0.831 0 1.5-0.669 1.5-1.5zM10 27.25v-7.75c0-0.831-0.669-1.5-1.5-1.5h-7.75c-0.412 0-0.75 0.337-0.75 0.75v0.5c0 0.413 0.338 0.75 0.75 0.75h7.25v7.25c0 0.413 0.338 0.75 0.75 0.75h0.5c0.412 0 0.75-0.337 0.75-0.75zM24 27.25v-7.25h7.25c0.413 0 0.75-0.337 0.75-0.75v-0.5c0-0.413-0.337-0.75-0.75-0.75h-7.75c-0.831 0-1.5 0.669-1.5 1.5v7.75c0 0.413 0.337 0.75 0.75 0.75h0.5c0.413 0 0.75-0.337 0.75-0.75z"></path>
</svg>
