<!-- Generated by IcoMoon.io -->
<svg version="1.1" xmlns="http://www.w3.org/2000/svg" width="28" height="32" viewBox="0 0 28 32">
<title>computer-classic-solid</title>
<path d="M2 31c0 0.552 0.448 1 1 1v0h22c0.552 0 1-0.448 1-1v0-3h-24zM26 0h-24c-1.105 0-2 0.895-2 2v0 23c0 0.552 0.448 1 1 1v0h26c0.552 0 1-0.448 1-1v0-23c0-1.105-0.895-2-2-2v0zM5 22.25c-0.69 0-1.25-0.56-1.25-1.25s0.56-1.25 1.25-1.25c0.69 0 1.25 0.56 1.25 1.25v0c0 0.69-0.56 1.25-1.25 1.25v0zM24 21.5c0 0.276-0.224 0.5-0.5 0.5v0h-9c-0.276 0-0.5-0.224-0.5-0.5v0-1c0-0.276 0.224-0.5 0.5-0.5v0h9c0.276 0 0.5 0.224 0.5 0.5v0zM24 14c0 1.105-0.895 2-2 2v0h-16c-1.105 0-2-0.895-2-2v0-8c0-1.105 0.895-2 2-2v0h16c1.105 0 2 0.895 2 2v0z"></path>
</svg>
