<!-- Generated by IcoMoon.io -->
<svg version="1.1" xmlns="http://www.w3.org/2000/svg" width="40" height="32" viewBox="0 0 40 32">
<title>compass-slash-solid</title>
<path d="M39.614 28.631l-6.241-4.823c1.344-2.295 2.127-4.957 2.127-7.808 0-8.561-6.939-15.5-15.5-15.5-4.269 0-8.127 1.732-10.926 4.527l-6.232-4.817c-0.436-0.339-1.065-0.261-1.404 0.176l-1.228 1.579c-0.339 0.436-0.261 1.064 0.176 1.403l36.773 28.421c0.436 0.339 1.064 0.261 1.404-0.176l1.227-1.579c0.338-0.436 0.26-1.064-0.176-1.403zM27.884 9.753l-3.314 7.251-6.603-5.104 8.28-3.784c1.041-0.475 2.113 0.597 1.637 1.637zM13.753 23.884c-1.041 0.476-2.113-0.597-1.637-1.637l1.606-3.515-8.686-6.713c-0.338 1.272-0.536 2.603-0.536 3.982 0 8.561 6.939 15.5 15.5 15.5 2.777 0 5.377-0.739 7.631-2.018l-9.708-7.504-4.17 1.906z"></path>
</svg>
