<!-- Generated by IcoMoon.io -->
<svg version="1.1" xmlns="http://www.w3.org/2000/svg" width="40" height="32" viewBox="0 0 40 32">
<title>compass-slash</title>
<path d="M20.125 29.631c-3.625 0-7.162-1.456-9.7-3.994-2.519-2.512-3.906-5.913-3.925-9.575-0.006-2.075 0.444-4.063 1.281-5.869l-1.612-1.269c-2.962 5.894-1.95 13.338 2.838 18.125 3.025 3.025 7.069 4.581 11.119 4.581 3.6 0 7.194-1.25 10.075-3.781l-1.594-1.25c-2.356 1.962-5.325 3.031-8.481 3.031zM25.694 16.669l2.419-6.713c0.35-0.981-0.644-2.144-1.65-2.144-0.144 0-0.281 0.025-0.419 0.075l-7.887 2.844 1.85 1.456 5.95-2.144-1.919 5.319zM19.831 2.5c3.637 0 7.075 1.438 9.681 4.044 4.125 4.125 5.025 10.256 2.731 15.275l1.612 1.269c2.888-5.838 1.919-13.113-2.931-17.962-3.075-3.069-7.087-4.625-11.094-4.625-3.55 0-7.088 1.238-9.956 3.706l1.594 1.256c2.369-1.919 5.281-2.962 8.363-2.962zM14.306 15.331l-2.419 6.713c-0.356 0.981 0.644 2.144 1.65 2.144 0.144 0 0.281-0.025 0.419-0.075l7.888-2.844-1.85-1.456-5.95 2.144 1.919-5.319zM39.813 30.325l-38.375-30.212c-0.212-0.175-0.531-0.144-0.7 0.075l-0.625 0.781c-0.175 0.219-0.138 0.531 0.075 0.7l38.375 30.219c0.212 0.175 0.531 0.137 0.7-0.075l0.625-0.781c0.175-0.219 0.144-0.531-0.075-0.706z"></path>
</svg>
