<!-- Generated by IcoMoon.io -->
<svg version="1.1" xmlns="http://www.w3.org/2000/svg" width="31" height="32" viewBox="0 0 31 32">
<title>compact-disc</title>
<path d="M15.5 0.5c-8.563 0-15.5 6.938-15.5 15.5s6.938 15.5 15.5 15.5 15.5-6.938 15.5-15.5-6.938-15.5-15.5-15.5zM15.5 29.5c-7.444 0-13.5-6.056-13.5-13.5s6.056-13.5 13.5-13.5 13.5 6.056 13.5 13.5-6.056 13.5-13.5 13.5zM15.5 10c-3.313 0-6 2.688-6 6s2.688 6 6 6 6-2.688 6-6-2.688-6-6-6zM15.5 20c-2.206 0-4-1.794-4-4s1.794-4 4-4 4 1.794 4 4-1.794 4-4 4zM15.5 14.5c-0.825 0-1.5 0.675-1.5 1.5s0.675 1.5 1.5 1.5 1.5-0.675 1.5-1.5-0.675-1.5-1.5-1.5zM15 5.5c-5.512 0-10 4.488-10 10h2c0-4.412 3.588-8 8-8v-2z"></path>
</svg>
