<!-- Generated by IcoMoon.io -->
<svg version="1.1" xmlns="http://www.w3.org/2000/svg" width="28" height="32" viewBox="0 0 28 32">
<title>computer-classic</title>
<path d="M23.5 20h-9c-0.276 0-0.5 0.224-0.5 0.5v0 1c0 0.276 0.224 0.5 0.5 0.5v0h9c0.276 0 0.5-0.224 0.5-0.5v0-1c0-0.276-0.224-0.5-0.5-0.5v0zM26 0h-24c-1.105 0-2 0.895-2 2v0 25c0 0.552 0.448 1 1 1v0h1v3c0 0.552 0.448 1 1 1v0h22c0.552 0 1-0.448 1-1v0-3h1c0.552 0 1-0.448 1-1v0-25c0-1.105-0.895-2-2-2v0zM24 30h-20v-2h20zM26 26h-24v-24h24zM6 16h16c1.105 0 2-0.895 2-2v0-8c0-1.105-0.895-2-2-2v0h-16c-1.105 0-2 0.895-2 2v0 8c0 1.105 0.895 2 2 2v0zM6 6h16v8h-16zM5 22.25c0.69 0 1.25-0.56 1.25-1.25s-0.56-1.25-1.25-1.25c-0.69 0-1.25 0.56-1.25 1.25v0c0 0.69 0.56 1.25 1.25 1.25v0z"></path>
</svg>
