<!-- Generated by IcoMoon.io -->
<svg version="1.1" xmlns="http://www.w3.org/2000/svg" width="32" height="32" viewBox="0 0 32 32">
<title>compress-arrows-alt</title>
<path d="M19.5 14h7c1.337 0 2.006-1.619 1.063-2.563l-2.794-2.794 7.088-7.081c0.194-0.194 0.194-0.512 0-0.706l-0.712-0.713c-0.194-0.194-0.512-0.194-0.706 0l-7.088 7.088-2.788-2.787c-0.306-0.306-0.681-0.444-1.050-0.444-0.769 0-1.512 0.6-1.512 1.506v7c0 0.825 0.669 1.494 1.5 1.494zM20 6.706l5.294 5.294h-5.294v-5.294zM24.769 23.35l2.794-2.794c0.306-0.306 0.444-0.681 0.444-1.050 0-0.769-0.6-1.512-1.506-1.512h-7c-0.831 0-1.5 0.669-1.5 1.5v7c0 1.337 1.619 2.006 2.563 1.063l2.794-2.794 7.081 7.094c0.194 0.194 0.512 0.194 0.706 0l0.706-0.706c0.194-0.194 0.194-0.512 0-0.706l-7.081-7.094zM20 25.294v-5.294h5.294l-5.294 5.294zM12.5 18h-7c-1.338 0-2.006 1.619-1.063 2.563l2.794 2.794-7.088 7.081c-0.194 0.194-0.194 0.512 0 0.706l0.706 0.706c0.194 0.194 0.512 0.194 0.706 0l7.088-7.087 2.794 2.794c0.306 0.306 0.681 0.444 1.050 0.444 0.769 0 1.512-0.6 1.512-1.506v-6.994c0-0.831-0.669-1.5-1.5-1.5zM12 25.294l-5.294-5.294h5.294v5.294zM11.438 4.444l-2.794 2.794-7.081-7.094c-0.194-0.194-0.512-0.194-0.706 0l-0.713 0.713c-0.194 0.194-0.194 0.513 0 0.706l7.088 7.088-2.787 2.787c-0.306 0.306-0.444 0.681-0.444 1.050 0 0.769 0.6 1.512 1.506 1.512h7c0.831 0 1.5-0.669 1.5-1.5v-7c-0.006-1.331-1.625-2-2.569-1.056zM12 12h-5.294l5.294-5.294v5.294z"></path>
</svg>
