<!-- Generated by IcoMoon.io -->
<svg version="1.1" xmlns="http://www.w3.org/2000/svg" width="40" height="32" viewBox="0 0 40 32">
<title>computer-speaker-solid</title>
<path d="M18 26h-10c-1.105 0-2 0.895-2 2s0.895 2 2 2v0h11.026c-0.636-0.821-1.021-1.865-1.026-2.999v-0.001zM0 5v16c0 1.657 1.343 3 3 3v0h15v-4h-14v-14h14v-1c0.004-1.135 0.389-2.179 1.034-3.011l-0.008 0.011h-16.026c-1.657 0-3 1.343-3 3v0zM37 2h-14c-1.657 0-3 1.343-3 3v0 22c0 1.657 1.343 3 3 3v0h14c1.657 0 3-1.343 3-3v0-22c0-1.657-1.343-3-3-3v0zM30 6c1.105 0 2 0.895 2 2s-0.895 2-2 2c-1.105 0-2-0.895-2-2v0c0-1.105 0.895-2 2-2v0zM30 26c-3.314 0-6-2.686-6-6s2.686-6 6-6c3.314 0 6 2.686 6 6v0c0 3.314-2.686 6-6 6v0zM30 16c-2.209 0-4 1.791-4 4s1.791 4 4 4c2.209 0 4-1.791 4-4v0c0-2.209-1.791-4-4-4v0z"></path>
</svg>
