<!-- Generated by IcoMoon.io -->
<svg version="1.1" xmlns="http://www.w3.org/2000/svg" width="40" height="32" viewBox="0 0 40 32">
<title>computer-speaker</title>
<path d="M30 12c1.657 0 3-1.343 3-3s-1.343-3-3-3c-1.657 0-3 1.343-3 3v0c0 1.657 1.343 3 3 3v0zM30 8c0.552 0 1 0.448 1 1s-0.448 1-1 1c-0.552 0-1-0.448-1-1v0c0-0.552 0.448-1 1-1v0zM30 14c-3.314 0-6 2.686-6 6s2.686 6 6 6c3.314 0 6-2.686 6-6v0c-0.004-3.312-2.688-5.996-6-6h-0zM30 24c-2.209 0-4-1.791-4-4s1.791-4 4-4c2.209 0 4 1.791 4 4v0c-0.003 2.208-1.792 3.997-4 4h-0zM30 18.5c-0.828 0-1.5 0.672-1.5 1.5s0.672 1.5 1.5 1.5c0.828 0 1.5-0.672 1.5-1.5v0c0-0.828-0.672-1.5-1.5-1.5v0zM37 2h-14c-1.657 0-3 1.343-3 3v0 22c0 1.657 1.343 3 3 3v0h14c1.657 0 3-1.343 3-3v0-22c0-1.657-1.343-3-3-3v0zM38 27c0 0.552-0.448 1-1 1v0h-14c-0.552 0-1-0.448-1-1v0-22c0-0.552 0.448-1 1-1v0h14c0.552 0 1 0.448 1 1v0zM6.5 28c-0.276 0-0.5 0.224-0.5 0.5v0 1c0 0.276 0.224 0.5 0.5 0.5v0h12.526c-0.437-0.561-0.759-1.234-0.918-1.967l-0.006-0.033zM0 4v18c0 1.105 0.895 2 2 2v0h16v-2h-16v-18h16.101c0.165-0.766 0.488-1.439 0.933-2.011l-0.008 0.011h-17.026c-1.105 0-2 0.895-2 2v0z"></path>
</svg>
