<!-- Generated by IcoMoon.io -->
<svg version="1.1" xmlns="http://www.w3.org/2000/svg" width="28" height="32" viewBox="0 0 28 32">
<title>compress-alt-solid</title>
<path d="M0.293 26.707l6.207-6.207-2.058-1.939c-0.945-0.945-0.276-2.561 1.061-2.561h7c0.828 0 1.497 0.672 1.497 1.5v7c0 1.336-1.613 2.006-2.558 1.061l-1.942-2.061-6.207 6.207c-0.39 0.39-1.024 0.39-1.414 0l-1.586-1.586c-0.391-0.39-0.391-1.024 0-1.414zM27.707 5.293l-6.207 6.207 2.058 1.939c0.945 0.945 0.276 2.561-1.061 2.561h-7c-0.828 0-1.497-0.672-1.497-1.5v-7c0-1.336 1.613-2.006 2.558-1.061l1.942 2.061 6.207-6.207c0.39-0.391 1.024-0.391 1.414 0l1.586 1.586c0.39 0.391 0.39 1.024 0 1.414z"></path>
</svg>
