<!-- Generated by IcoMoon.io -->
<svg version="1.1" xmlns="http://www.w3.org/2000/svg" width="28" height="32" viewBox="0 0 28 32">
<title>compress-alt</title>
<path d="M0.573 29.78l-0.353-0.354c-0.293-0.293-0.293-0.768 0-1.061l10.366-10.366h-3.836c-0.414 0-0.75-0.336-0.75-0.75v-0.5c0-0.414 0.336-0.75 0.75-0.75h6.25c0.552 0 1 0.448 1 1v6.25c0 0.414-0.336 0.75-0.75 0.75h-0.5c-0.414 0-0.75-0.336-0.75-0.75v-3.836l-10.366 10.366c-0.293 0.293-0.768 0.293-1.061 0zM15 16h6.25c0.414 0 0.75-0.336 0.75-0.75v-0.5c0-0.414-0.336-0.75-0.75-0.75h-3.836l10.366-10.366c0.293-0.293 0.293-0.768 0-1.061l-0.354-0.353c-0.293-0.293-0.768-0.293-1.061 0l-10.366 10.366v-3.836c0-0.414-0.336-0.75-0.75-0.75h-0.5c-0.414 0-0.75 0.336-0.75 0.75v6.25c0 0.552 0.448 1 1 1z"></path>
</svg>
