<!-- Generated by IcoMoon.io -->
<svg version="1.1" xmlns="http://www.w3.org/2000/svg" width="32" height="32" viewBox="0 0 32 32">
<title>concierge-bell</title>
<path d="M31.5 26h-1.5v-4c0-7.394-5.737-13.435-13-13.949v-2.051h2.5c0.276 0 0.5-0.224 0.5-0.5v-1c0-0.276-0.224-0.5-0.5-0.5h-7c-0.276 0-0.5 0.224-0.5 0.5v1c0 0.276 0.224 0.5 0.5 0.5h2.5v2.051c-7.263 0.514-13 6.555-13 13.949v4h-1.5c-0.276 0-0.5 0.224-0.5 0.5v1c0 0.276 0.224 0.5 0.5 0.5h31c0.276 0 0.5-0.224 0.5-0.5v-1c0-0.276-0.224-0.5-0.5-0.5zM28 26h-24v-4c0-6.261 4.894-11.512 11.141-11.954 1.054-0.074 0.646-0.076 1.718 0 6.247 0.443 11.141 5.694 11.141 11.954v4z"></path>
</svg>
