<!-- Generated by IcoMoon.io -->
<svg version="1.1" xmlns="http://www.w3.org/2000/svg" width="40" height="32" viewBox="0 0 40 32">
<title>construction-solid</title>
<path d="M39.666 28.761l-17.823-27.766c-0.851-1.327-2.836-1.327-3.688 0l-17.823 27.766c-0.905 1.41 0.136 3.239 1.844 3.239h35.644c1.708 0 2.749-1.829 1.844-3.239zM19.25 10c0.966 0 1.75 0.784 1.75 1.75s-0.784 1.75-1.75 1.75c-0.966 0-1.75-0.784-1.75-1.75v0c0-0.966 0.784-1.75 1.75-1.75v0zM19 27c0 0.552-0.448 1-1 1s-1-0.448-1-1v0-2.048l-2.894-1.87-1.141 4.181c-0.119 0.428-0.506 0.738-0.965 0.738-0 0-0 0-0 0v0c-0.001 0-0.003 0-0.004 0-0.092 0-0.182-0.013-0.266-0.037l0.007 0.002c-0.428-0.119-0.738-0.506-0.738-0.965 0-0.093 0.013-0.184 0.037-0.27l-0.002 0.007 1.859-6.819 5.191 3.354c0.554 0.36 0.916 0.977 0.916 1.677 0 0.001 0 0.001 0 0.002v-0zM22 28l0.75-1.871c0.151-0.371 0.509-0.628 0.927-0.629h2.228l-5.925-3.646s-0.005 0-0.007-0.004l-6.497-4c-0.287-0.179-0.476-0.493-0.476-0.851 0-0.226 0.075-0.435 0.202-0.602l-0.002 0.003 0.726-0.968c0.552-0.731 1.419-1.198 2.395-1.198 0.233 0 0.46 0.027 0.677 0.077l-0.020-0.004 1.536 0.455c1.091 0.239 1.99 1.158 2.223 2.321l0.659 3.294 5.479 3.375 1.323-2.652c0.168-0.331 0.505-0.553 0.895-0.553 0.352 0 0.661 0.181 0.839 0.456l0.002 0.004 4.491 6.996z"></path>
</svg>
