<!-- Generated by IcoMoon.io -->
<svg version="1.1" xmlns="http://www.w3.org/2000/svg" width="40" height="32" viewBox="0 0 40 32">
<title>construction</title>
<path d="M18.086 23.25l-5.188-3.363-1.859 6.838c-0.023 0.080-0.036 0.171-0.036 0.266 0 0.459 0.309 0.846 0.731 0.963l0.007 0.002c0.078 0.022 0.168 0.035 0.26 0.035 0.001 0 0.002 0 0.004 0h-0c0.458-0.002 0.843-0.312 0.959-0.733l0.002-0.007 1.141-4.191 2.894 1.875v2.053c0 0.552 0.448 1 1 1s1-0.448 1-1v0-2.053c0-0.001 0-0.003 0-0.004 0-0.701-0.361-1.318-0.907-1.675l-0.008-0.005zM19.25 13.451c0.002 0 0.003 0 0.005 0 0.969 0 1.755-0.786 1.755-1.755s-0.786-1.755-1.755-1.755c-0.969 0-1.755 0.786-1.755 1.755 0 0 0 0 0 0.001v-0c0 0.001 0 0.003 0 0.004 0 0.966 0.784 1.75 1.75 1.75 0 0 0 0 0 0v0zM29.804 20.774c-0.099-0.205-0.292-0.351-0.521-0.383l-0.004-0c-0.091-0.040-0.198-0.067-0.309-0.077l-0.004-0h-0.004c-0.753 0.161-0.907 0.199-1.060 0.238l0.603-0.128c-0.154 0.079-0.28 0.193-0.373 0.331l-0.002 0.004-1.771 2.652-4.966-3.063-0.659-3.304c-0.233-1.166-1.132-2.088-2.223-2.328l-1.536-0.456c-0.196-0.046-0.422-0.073-0.653-0.073h-0c-0.978 0.002-1.845 0.472-2.391 1.197l-0.006 0.008-0.725 0.971c-0.125 0.166-0.2 0.375-0.2 0.601 0 0.359 0.188 0.673 0.471 0.851l0.004 0.002 6.496 4.009c0.002 0.001 0.004 0.003 0.007 0.004l0 0 4.416 2.725h-1.332c-0.005-0-0.010-0-0.015-0-0.513 0-0.95 0.322-1.12 0.776l-0.003 0.008-0.924 2.651h11.593c0.002 0 0.004 0 0.006 0 0.552 0 1-0.448 1-1 0-0.202-0.060-0.391-0.163-0.548l0.002 0.004zM15.459 16.683l0.068-0.092c0.183-0.244 0.471-0.402 0.796-0.404h0c0.001 0 0.002 0 0.003 0 0.058 0 0.114 0.005 0.169 0.015l-0.006-0.001 1.526 0.453 0.071 0.016c0.326 0.072 0.616 0.392 0.688 0.762l0.295 1.476zM27.049 25.984l0.211-0.317 1.688-2.523 1.817 2.84zM39.519 27.406l-16.929-26.099c-1.129-1.744-4.050-1.744-5.179 0l-16.929 26.099c-0.302 0.45-0.482 1.004-0.482 1.6 0 0.514 0.134 0.996 0.368 1.415l-0.008-0.015c0.532 0.957 1.538 1.594 2.692 1.594 0.006 0 0.013-0 0.019-0h33.858c0.005 0 0.011 0 0.017 0 1.155 0 2.161-0.638 2.685-1.581l0.008-0.016c0.226-0.404 0.36-0.886 0.36-1.399 0-0.596-0.18-1.149-0.488-1.61l0.007 0.011zM37.883 29.448c-0.185 0.329-0.532 0.548-0.929 0.548-0.008 0-0.017-0-0.025-0l0.001 0h-33.859c-0.007 0-0.015 0-0.024 0-0.398 0-0.745-0.219-0.927-0.542l-0.003-0.005c-0.072-0.127-0.114-0.279-0.114-0.441 0-0.189 0.057-0.364 0.155-0.509l-0.002 0.003 16.929-26.1c0.203-0.291 0.537-0.479 0.914-0.479s0.71 0.188 0.911 0.475l0.002 0.004 16.929 26.1c0.096 0.142 0.153 0.317 0.153 0.506 0 0.162-0.042 0.314-0.116 0.446l0.002-0.005z"></path>
</svg>
