<!-- Generated by IcoMoon.io -->
<svg version="1.1" xmlns="http://www.w3.org/2000/svg" width="40" height="32" viewBox="0 0 40 32">
<title>conveyor-belt-alt-solid</title>
<path d="M5 16h14c0.55 0 1-0.45 1-1v-14c0-0.55-0.45-1-1-1h-14c-0.55 0-1 0.45-1 1v14c0 0.55 0.45 1 1 1zM25 16h10c0.55 0 1-0.45 1-1v-10c0-0.55-0.45-1-1-1h-10c-0.55 0-1 0.45-1 1v10c0 0.55 0.45 1 1 1zM34 20h-28c-3.313 0-6 2.688-6 6s2.688 6 6 6h28c3.313 0 6-2.688 6-6s-2.688-6-6-6zM8 28c-1.106 0-2-0.894-2-2s0.894-2 2-2 2 0.894 2 2-0.894 2-2 2zM20 28c-1.106 0-2-0.894-2-2s0.894-2 2-2 2 0.894 2 2-0.894 2-2 2zM32 28c-1.106 0-2-0.894-2-2s0.894-2 2-2 2 0.894 2 2-0.894 2-2 2z"></path>
</svg>
