<!-- Generated by IcoMoon.io -->
<svg version="1.1" xmlns="http://www.w3.org/2000/svg" width="40" height="32" viewBox="0 0 40 32">
<title>conveyor-belt-alt</title>
<path d="M34 20h-28c-3.313 0-6 2.688-6 6s2.688 6 6 6h28c3.313 0 6-2.688 6-6s-2.688-6-6-6zM34 30h-28c-2.206 0-4-1.794-4-4s1.794-4 4-4h28c2.206 0 4 1.794 4 4s-1.794 4-4 4zM9 23c-1.656 0-3 1.344-3 3s1.344 3 3 3 3-1.344 3-3-1.344-3-3-3zM9 27c-0.55 0-1-0.45-1-1s0.45-1 1-1 1 0.45 1 1-0.45 1-1 1zM31 23c-1.656 0-3 1.344-3 3s1.344 3 3 3 3-1.344 3-3-1.344-3-3-3zM31 27c-0.55 0-1-0.45-1-1s0.45-1 1-1 1 0.45 1 1-0.45 1-1 1zM20 23c-1.656 0-3 1.344-3 3s1.344 3 3 3 3-1.344 3-3-1.344-3-3-3zM20 27c-0.55 0-1-0.45-1-1s0.45-1 1-1 1 0.45 1 1-0.45 1-1 1zM7 18h26c0.55 0 1-0.45 1-1v-12c0-0.55-0.45-1-1-1h-9v-3c0-0.55-0.45-1-1-1h-16c-0.55 0-1 0.45-1 1v16c0 0.55 0.45 1 1 1zM24 6h8v10h-8v-10zM8 2h14v14h-14v-14z"></path>
</svg>
