<!-- Generated by IcoMoon.io -->
<svg version="1.1" xmlns="http://www.w3.org/2000/svg" width="32" height="32" viewBox="0 0 32 32">
<title>cookie</title>
<path d="M22 20.5c-0.828 0-1.5 0.671-1.5 1.5s0.672 1.5 1.5 1.5 1.5-0.672 1.5-1.5c0-0.829-0.672-1.5-1.5-1.5zM21.5 8c0-0.829-0.672-1.5-1.5-1.5s-1.5 0.671-1.5 1.5c0 0.828 0.672 1.5 1.5 1.5s1.5-0.672 1.5-1.5zM11.5 12c0-0.829-0.672-1.5-1.5-1.5s-1.5 0.671-1.5 1.5c0 0.828 0.672 1.5 1.5 1.5s1.5-0.672 1.5-1.5zM12 20.5c-0.828 0-1.5 0.671-1.5 1.5s0.672 1.5 1.5 1.5 1.5-0.672 1.5-1.5c0-0.829-0.672-1.5-1.5-1.5zM18 14.5c-0.828 0-1.5 0.671-1.5 1.5s0.672 1.5 1.5 1.5 1.5-0.672 1.5-1.5c0-0.829-0.672-1.5-1.5-1.5zM31.898 15.924l-0.755-4.766c-0.292-1.796-1.124-3.361-2.323-4.559l-3.422-3.422c-1.233-1.232-2.824-2.044-4.544-2.316l-4.794-0.759c-0.428-0.068-0.859-0.102-1.289-0.102-1.295 0-2.578 0.305-3.743 0.899l-4.32 2.201c-1.562 0.808-2.804 2.050-3.59 3.566l-0.022 0.046-2.194 4.304c-0.569 1.094-0.903 2.389-0.903 3.762 0 0.458 0.037 0.907 0.108 1.344l-0.006-0.048 0.755 4.767c0.292 1.796 1.124 3.361 2.323 4.559l3.422 3.422c1.195 1.195 2.754 2.025 4.497 2.309l0.048 0.006 4.794 0.759c0.429 0.068 0.859 0.101 1.289 0.101 1.295 0 2.578-0.305 3.742-0.899l4.32-2.201c1.562-0.808 2.804-2.050 3.59-3.566l0.022-0.046 2.194-4.304c0.569-1.094 0.903-2.389 0.903-3.762 0-0.458-0.037-0.907-0.108-1.344l0.006 0.048zM29.315 20.075l-2.194 4.305c-0.605 1.188-1.552 2.134-2.738 2.739l-4.32 2.201c-0.874 0.446-1.854 0.681-2.835 0.681-0.326 0-0.654-0.026-0.977-0.077l-4.793-0.759c-1.312-0.208-2.502-0.815-3.443-1.755l-3.422-3.422c-0.943-0.943-1.553-2.139-1.761-3.458l-0.755-4.766c-0.209-1.32 0.001-2.648 0.607-3.838l2.194-4.305c0.605-1.188 1.552-2.134 2.737-2.739l4.32-2.201c0.874-0.445 1.854-0.681 2.835-0.681 0.326 0 0.654 0.026 0.976 0.077l4.794 0.759c1.312 0.208 2.503 0.814 3.442 1.755l3.422 3.422c0.943 0.943 1.552 2.139 1.761 3.458l0.755 4.766c0.209 1.32-0.001 2.648-0.608 3.837z"></path>
</svg>
