<!-- Generated by IcoMoon.io -->
<svg version="1.1" xmlns="http://www.w3.org/2000/svg" width="32" height="32" viewBox="0 0 32 32">
<title>cookie-solid</title>
<path d="M31.898 15.924l-0.755-4.766c-0.292-1.796-1.124-3.361-2.323-4.559l-3.422-3.422c-1.233-1.232-2.824-2.044-4.544-2.316l-4.794-0.759c-1.719-0.273-3.481 0.007-5.032 0.797l-4.32 2.201c-1.562 0.808-2.804 2.050-3.59 3.566l-0.022 0.046-2.194 4.305c-0.569 1.094-0.903 2.389-0.903 3.762 0 0.458 0.037 0.907 0.108 1.344l-0.006-0.048 0.755 4.767c0.292 1.796 1.124 3.361 2.323 4.559l3.422 3.422c1.195 1.195 2.754 2.025 4.497 2.309l0.048 0.006 4.794 0.759c1.719 0.272 3.481-0.007 5.032-0.797l4.32-2.201c1.562-0.808 2.804-2.050 3.59-3.566l0.022-0.046 2.194-4.304c0.794-1.56 1.075-3.331 0.801-5.060zM11 23c-1.104 0-2-0.896-2-2s0.896-2 2-2 2 0.896 2 2-0.896 2-2 2zM13 13c-1.104 0-2-0.896-2-2s0.896-2 2-2 2 0.896 2 2-0.896 2-2 2zM23 21c-1.104 0-2-0.896-2-2s0.896-2 2-2 2 0.896 2 2-0.896 2-2 2z"></path>
</svg>
