<!-- Generated by IcoMoon.io -->
<svg version="1.1" xmlns="http://www.w3.org/2000/svg" width="32" height="32" viewBox="0 0 32 32">
<title>cookie-bite</title>
<path d="M22 20.5c-0.828 0-1.5 0.671-1.5 1.5s0.672 1.5 1.5 1.5 1.5-0.672 1.5-1.5c0-0.829-0.672-1.5-1.5-1.5zM11.5 12c0-0.829-0.672-1.5-1.5-1.5s-1.5 0.671-1.5 1.5c0 0.828 0.672 1.5 1.5 1.5s1.5-0.672 1.5-1.5zM12 20.5c-0.828 0-1.5 0.671-1.5 1.5s0.672 1.5 1.5 1.5 1.5-0.672 1.5-1.5c0-0.829-0.672-1.5-1.5-1.5zM18 14.5c-0.828 0-1.5 0.671-1.5 1.5s0.672 1.5 1.5 1.5 1.5-0.672 1.5-1.5c0-0.829-0.672-1.5-1.5-1.5zM31.907 15.989c-4.373-0.053-7.904-3.606-7.904-7.991-4.386 0-7.938-3.531-7.991-7.903-0.414-0.063-0.831-0.094-1.246-0.094-1.293 0-2.574 0.303-3.737 0.896l-4.321 2.201c-1.563 0.808-2.804 2.050-3.59 3.567l-0.022 0.046-2.194 4.305c-0.569 1.094-0.903 2.39-0.903 3.763 0 0.458 0.037 0.907 0.108 1.344l-0.006-0.048 0.755 4.767c0.292 1.796 1.124 3.361 2.323 4.56l3.423 3.422c1.195 1.195 2.754 2.025 4.497 2.31l0.048 0.006 4.794 0.759c0.429 0.068 0.86 0.101 1.29 0.101 1.295 0 2.578-0.305 3.743-0.899l4.321-2.201c1.563-0.808 2.804-2.050 3.59-3.567l0.022-0.046 2.194-4.305c0.785-1.539 1.063-3.286 0.807-4.994zM29.319 20.074l-2.194 4.306c-0.605 1.188-1.552 2.134-2.738 2.739l-4.321 2.201c-0.874 0.445-1.854 0.681-2.835 0.681-0.326 0-0.654-0.026-0.977-0.077l-4.794-0.759c-1.313-0.208-2.503-0.815-3.443-1.755l-3.423-3.422c-0.944-0.943-1.553-2.139-1.761-3.458l-0.755-4.767c-0.209-1.32 0.001-2.648 0.607-3.838l2.194-4.305c0.605-1.188 1.552-2.134 2.738-2.739l4.32-2.202c0.708-0.361 1.488-0.583 2.282-0.654 0.822 3.947 3.99 7.059 7.953 7.804 0.744 3.964 3.857 7.132 7.804 7.953-0.069 0.796-0.29 1.571-0.658 2.293z"></path>
</svg>
