<!-- Generated by IcoMoon.io -->
<svg version="1.1" xmlns="http://www.w3.org/2000/svg" width="32" height="32" viewBox="0 0 32 32">
<title>cookie-bite-solid</title>
<path d="M31.907 15.989c-4.373-0.053-7.904-3.606-7.904-7.991-4.386 0-7.938-3.531-7.991-7.903-1.704-0.259-3.446 0.019-4.982 0.801l-4.321 2.201c-1.563 0.808-2.804 2.050-3.59 3.567l-0.022 0.046-2.194 4.305c-0.569 1.094-0.903 2.39-0.903 3.763 0 0.458 0.037 0.907 0.108 1.344l-0.006-0.048 0.755 4.767c0.291 1.796 1.124 3.361 2.323 4.56l3.423 3.422c1.195 1.195 2.754 2.025 4.497 2.31l0.048 0.006 4.794 0.759c1.719 0.272 3.481-0.007 5.033-0.797l4.321-2.201c1.562-0.808 2.804-2.050 3.59-3.567l0.022-0.046 2.194-4.305c0.785-1.54 1.063-3.286 0.807-4.994zM11 23c-1.104 0-2-0.896-2-2s0.896-2 2-2 2 0.896 2 2-0.896 2-2 2zM13 13c-1.104 0-2-0.896-2-2s0.896-2 2-2 2 0.896 2 2-0.896 2-2 2zM23 21c-1.104 0-2-0.896-2-2s0.896-2 2-2 2 0.896 2 2-0.896 2-2 2z"></path>
</svg>
