<!-- Generated by IcoMoon.io -->
<svg version="1.1" xmlns="http://www.w3.org/2000/svg" width="28" height="32" viewBox="0 0 28 32">
<title>copy</title>
<path d="M27.121 4.121l-3.243-3.243c-0.543-0.543-1.293-0.879-2.121-0.879h-10.757c-1.657 0-3 1.343-3 3v3h-5c-1.657 0-3 1.343-3 3v20c0 1.657 1.343 3 3 3h14c1.657 0 3-1.343 3-3v-3h5c1.657 0 3-1.343 3-3v-16.757c0-0.828-0.336-1.578-0.879-2.121v0zM22 2.031c0.183 0.046 0.34 0.138 0.464 0.262v0l3.243 3.243c0.124 0.124 0.216 0.282 0.261 0.458l0.001 0.007h-3.969v-3.969zM18 29c0 0.551-0.449 1-1 1h-14c-0.551 0-1-0.449-1-1v-20c0-0.551 0.449-1 1-1h5v15c0 1.657 1.343 3 3 3h7v3zM26 23c0 0.551-0.449 1-1 1h-14c-0.551 0-1-0.449-1-1v-20c0-0.551 0.449-1 1-1h9v4.5c0 0.825 0.675 1.5 1.5 1.5h4.5v15z"></path>
</svg>
