<!-- Generated by IcoMoon.io -->
<svg version="1.1" xmlns="http://www.w3.org/2000/svg" width="28" height="32" viewBox="0 0 28 32">
<title>copy-solid</title>
<path d="M20 28v2.5c0 0.828-0.672 1.5-1.5 1.5h-17c-0.828 0-1.5-0.672-1.5-1.5v-23c0-0.828 0.672-1.5 1.5-1.5h4.5v18.5c0 1.93 1.57 3.5 3.5 3.5h10.5zM20 6.5v-6.5h-10.5c-0.828 0-1.5 0.672-1.5 1.5v23c0 0.828 0.672 1.5 1.5 1.5h17c0.828 0 1.5-0.672 1.5-1.5v-16.5h-6.5c-0.825 0-1.5-0.675-1.5-1.5zM27.561 4.561l-4.121-4.121c-0.271-0.271-0.646-0.439-1.061-0.439h-0.379v6h6v-0.379c0-0.414-0.168-0.789-0.439-1.061v0z"></path>
</svg>
