<!-- Generated by IcoMoon.io -->
<svg version="1.1" xmlns="http://www.w3.org/2000/svg" width="32" height="32" viewBox="0 0 32 32">
<title>copyright-solid</title>
<path d="M16 0.5c-8.56 0-15.5 6.94-15.5 15.5s6.94 15.5 15.5 15.5 15.5-6.94 15.5-15.5-6.94-15.5-15.5-15.5zM23.321 22.172c-0.099 0.117-2.486 2.858-6.866 2.858-5.293 0-9.030-3.954-9.030-9.098 0-5.081 3.875-8.963 8.985-8.963 4.185 0 6.373 2.332 6.464 2.431 0.122 0.133 0.197 0.311 0.197 0.507 0 0.151-0.045 0.292-0.122 0.41l0.002-0.003-1.399 2.166c-0.253 0.392-0.798 0.459-1.14 0.143-0.015-0.013-1.658-1.492-3.867-1.492-2.882 0-4.62 2.098-4.62 4.755 0 2.475 1.595 4.981 4.642 4.981 2.419 0 4.080-1.771 4.096-1.789 0.321-0.348 0.879-0.315 1.157 0.066l1.534 2.098c0.090 0.122 0.145 0.276 0.145 0.443 0 0.186-0.068 0.356-0.18 0.487l0.001-0.001z"></path>
</svg>
