<!-- Generated by IcoMoon.io -->
<svg version="1.1" xmlns="http://www.w3.org/2000/svg" width="32" height="32" viewBox="0 0 32 32">
<title>copyright</title>
<path d="M16 0.5c-8.56 0-15.5 6.94-15.5 15.5s6.94 15.5 15.5 15.5 15.5-6.94 15.5-15.5-6.94-15.5-15.5-15.5zM29.5 16c0 7.416-6.003 13.5-13.5 13.5-7.416 0-13.5-6.003-13.5-13.5 0-7.416 6.003-13.5 13.5-13.5 7.416 0 13.5 6.003 13.5 13.5zM22.53 22.335c-0.588 0.571-2.778 2.435-6.257 2.435-4.864 0-8.532-3.784-8.532-8.803 0-4.872 3.647-8.6 8.464-8.6 3.347 0 5.344 1.549 5.877 2.024 0.155 0.138 0.251 0.337 0.251 0.559 0 0.166-0.054 0.319-0.145 0.443l0.001-0.002-0.548 0.755c-0.252 0.348-0.742 0.411-1.075 0.146-0.558-0.445-2.094-1.48-4.316-1.48-3.395 0-5.885 2.612-5.885 6.133 0 3.638 2.549 6.382 5.93 6.382 2.471 0 4.158-1.38 4.616-1.802 0.317-0.293 0.816-0.257 1.089 0.077l0.588 0.721c0.248 0.304 0.223 0.739-0.059 1.013z"></path>
</svg>
