<!-- Generated by IcoMoon.io -->
<svg version="1.1" xmlns="http://www.w3.org/2000/svg" width="32" height="32" viewBox="0 0 32 32">
<title>corn</title>
<path d="M27.876 0c-0.809 0-1.579 0.237-2.229 0.664-0.959-0.255-1.759-0.094-2.181 0.031-0.676 0.197-1.256 0.541-1.727 0.998l0.001-0.001c-0.39-0.028-1.097-0.024-1.904 0.319-0.626 0.282-1.157 0.696-1.565 1.2-0.689 0.038-1.324 0.242-1.873 0.572l0.018-0.010c-0.547 0.31-1.008 0.749-1.351 1.27-0.636 0.093-1.239 0.336-1.77 0.714-0.006 0.004-0.009 0.010-0.015 0.014-0.435-0.596-0.905-1.171-1.437-1.702l-1.321-1.321c-0.565-0.565-1.531-0.272-1.688 0.511l-1.485 7.426-5.034 5.035c-1.255 1.256-2.13 2.885-2.287 4.653-0.194 2.182 0.568 4.268 2.094 5.793l3.888 3.889 0.018-0.017c1.711 1.598 4.048 2.306 6.457 1.805 1.429-0.297 2.714-1.078 3.746-2.11l5.082-5.084 7.425-1.485c0.783-0.157 1.076-1.123 0.511-1.688l-1.321-1.321c-0.541-0.541-1.126-1.019-1.734-1.46 0.31-0.484 0.527-1.013 0.612-1.566 0.542-0.356 0.982-0.823 1.298-1.37l0.010-0.020c0.331-0.556 0.516-1.178 0.552-1.809 0.507-0.401 0.918-0.919 1.189-1.522 0.279-0.621 0.396-1.286 0.352-1.941 0.453-0.46 0.799-1.025 0.999-1.656l0.008-0.029c0.107-0.35 0.169-0.753 0.169-1.17 0-0.35-0.044-0.691-0.126-1.016l0.006 0.029c1.751-2.549 0.275-6.624-3.389-6.624zM3.538 17.326l5.656-5.657 1.237-6.187c3.021 3.021 4.084 7.216 3.282 11.108-2.217 0.67-4.249 1.881-5.933 3.565l-4.401 4.402c-1.873-2.061-1.831-5.241 0.159-7.231zM26.514 21.568l-6.186 1.238-5.656 5.657c-1.025 1.025-2.368 1.538-3.712 1.538s-2.687-0.512-3.712-1.538l-2.474-2.475 4.419-4.419c2.392-2.392 5.526-3.588 8.661-3.588s6.269 1.196 8.661 3.588zM28.837 6.178c0.469 0.519 0.686 1.272 0.469 2.009-0.218 0.703-0.771 1.222-1.423 1.422 0.367 0.569 0.452 1.306 0.151 1.976s-0.904 1.088-1.573 1.206c0.302 0.603 0.284 1.339-0.083 1.958-0.352 0.619-0.988 0.988-1.657 1.038 0.224 0.591 0.163 1.27-0.206 1.841-2.027-1.075-4.299-1.648-6.659-1.648-0.676 0-1.341 0.063-1.999 0.155 0.096-0.655 0.162-1.317 0.162-1.992 0-2.362-0.572-4.635-1.649-6.664 0.842-0.701 1.724-0.463 2.031-0.348 0.051-0.652 0.419-1.289 1.038-1.641 0.989-0.587 1.933-0.096 1.958-0.083 0.117-0.653 0.552-1.256 1.222-1.557 0.841-0.357 1.589-0.083 1.976 0.168 0.201-0.669 0.736-1.205 1.439-1.406 0.188-0.056 1.165-0.314 2.009 0.502 0.354-0.677 1.048-1.114 1.834-1.114 0.032 0 2.116-0.059 2.116 2.37-0.034 0.803-0.502 1.473-1.155 1.808z"></path>
</svg>
