<!-- Generated by IcoMoon.io -->
<svg version="1.1" xmlns="http://www.w3.org/2000/svg" width="32" height="32" viewBox="0 0 32 32">
<title>corn-solid</title>
<path d="M7.414 23.171l-4.242 4.242 2.828 2.829c2.343 2.343 6.142 2.343 8.485 0l5.657-5.657 6.104-1.221c0.402-0.081 0.553-0.599 0.244-0.868-5.5-4.782-13.843-4.558-19.076 0.674zM12.564 17.803c0.964-4.235-0.049-8.829-3.063-12.294-0.268-0.309-0.786-0.157-0.867 0.244l-1.221 6.105-5.657 5.657c-2.343 2.343-2.343 6.142 0 8.486l4.243-4.243c1.899-1.899 4.162-3.211 6.564-3.954zM31.996 2.831v-0.2c0.080-1.34-0.92-2.5-2.28-2.619-1.039-0.101-1.979 0.439-2.439 1.319-0.62-0.599-1.521-0.859-2.401-0.6-0.84 0.241-1.479 0.88-1.719 1.68-0.68-0.439-1.56-0.54-2.361-0.2-0.799 0.361-1.319 1.080-1.46 1.861-0.72-0.34-1.599-0.34-2.34 0.099-0.741 0.42-1.18 1.181-1.24 1.96-0.739-0.279-1.619-0.199-2.319 0.301-0.204 0.144-0.371 0.321-0.519 0.511 1.771 3.202 2.359 6.879 1.769 10.402 3.524-0.585 7.203-0.023 10.405 1.758 0.106-0.104 0.214-0.206 0.304-0.332 0.5-0.7 0.58-1.561 0.299-2.3 0.8-0.061 1.56-0.5 1.981-1.241 0.439-0.74 0.46-1.62 0.099-2.34 0.8-0.141 1.519-0.641 1.88-1.441s0.259-1.679-0.18-2.361c0.779-0.239 1.439-0.859 1.7-1.699 0.26-0.88 0-1.78-0.561-2.401 0.782-0.398 1.341-1.198 1.381-2.158z"></path>
</svg>
