<!-- Generated by IcoMoon.io -->
<svg version="1.1" xmlns="http://www.w3.org/2000/svg" width="40" height="32" viewBox="0 0 40 32">
<title>couch-solid</title>
<path d="M10 14v4h20v-4c0-2.206 1.794-4 4-4h2c0-3.313-2.688-6-6-6h-20c-3.313 0-6 2.688-6 6h2c2.206 0 4 1.794 4 4zM36 12h-2c-1.106 0-2 0.894-2 2v6h-24v-6c0-1.106-0.894-2-2-2h-2c-2.206 0-4 1.794-4 4 0 1.475 0.813 2.75 2 3.444v7.556c0 0.55 0.45 1 1 1h4c0.55 0 1-0.45 1-1v-1h24v1c0 0.55 0.45 1 1 1h4c0.55 0 1-0.45 1-1v-7.556c1.188-0.694 2-1.969 2-3.444 0-2.206-1.794-4-4-4z"></path>
</svg>
