<!-- Generated by IcoMoon.io -->
<svg version="1.1" xmlns="http://www.w3.org/2000/svg" width="40" height="32" viewBox="0 0 40 32">
<title>couch</title>
<path d="M36 12.119v-2.106c0-3.319-2.688-6.013-6-6.013h-20c-3.313 0-6 2.694-6 6.013v2.106c-2.281 0.469-4 2.488-4 4.913 0 1.569 0.756 3.050 2 3.988v4.975c0 1.106 0.894 2.006 2 2.006h4c1.081 0 1.956-0.919 1.988-2h20.025c0.031 1.081 0.906 2 1.988 2h4c1.106 0 2-0.9 2-2.006v-4.975c1.244-0.944 2-2.419 2-3.988 0-2.419-1.719-4.444-4-4.912zM8 25.994h-4v-6.087c-1.069-0.625-2-1.319-2-2.875 0-1.656 1.344-3.006 3-3.006h2c0.55 0 1 0.45 1 1v10.969zM30 24h-20v-5.969h20v5.969zM30 15.025v0.975h-20v-0.975c0-1.656-1.344-3.006-3-3.006h-1v-2.006c0-2.213 1.794-4.006 4-4.006h20c2.206 0 4 1.8 4 4.006v2.006h-1c-1.656 0-3 1.35-3 3.006zM36 19.906v6.087h-4v-10.969c0-0.55 0.45-1 1-1h2c1.656 0 3 1.35 3 3.006 0 1.494-0.869 2.212-2 2.875z"></path>
</svg>
