<!-- Generated by IcoMoon.io -->
<svg version="1.1" xmlns="http://www.w3.org/2000/svg" width="40" height="32" viewBox="0 0 40 32">
<title>cow-solid</title>
<path d="M39.626 17.295l-0.625-0.863v-4.814c0-0.743-0.782-1.227-1.447-0.894-0.676 0.338-1.217 0.849-1.644 1.438l-4.114-5.681c-1.103-1.51-2.868-2.481-4.86-2.481h-19.935c-3.038 0-5.5 2.463-5.5 5.5v5.401c-0.907 0.733-1.5 1.842-1.5 3.099v2h0.5c2.209 0 4-1.791 4-4v-6.5c0-1.054 0.659-1.947 1.584-2.315-0.054 0.264-0.084 0.536-0.084 0.815v19c0 0.552 0.447 1 1 1h4c0.553 0 1-0.448 1-1v-7c0.582 0.582 1.268 1.031 2.002 1.367v1.633c0 0.552 0.447 1 1 1s1-0.448 1-1v-1.082c0.569 0.070 0.801 0.148 2-0.001v1.082c0 0.552 0.448 1 1 1s1-0.448 1-1v-1.636c0.732-0.335 1.415-0.782 1.995-1.362v6.998c0 0.552 0.448 1 1 1h4c0.552 0 1-0.448 1-1v-11l2 2v2.593c0 0 0 0 0 0 0 0.827 0.251 1.595 0.681 2.233l-0.009-0.014 2.583 3.874c0.537 0.797 1.436 1.314 2.456 1.314 0 0 0 0 0 0v0c1.407 0 2.619-0.993 2.895-2.373l1.358-6.789c0.108-0.539-0.014-1.098-0.336-1.543zM23.578 10.46l-1.431 1.422c-1.364 1.356-3.213 2.117-5.141 2.117h-0.011c-1.929 0-3.778-0.762-5.141-2.117l-1.431-1.422c-0.982-0.977-0.144-2.46 1.391-2.46h10.372c1.535 0 2.374 1.483 1.391 2.46zM36.001 22c-0.553 0-1-0.448-1-1s0.447-1 1-1 1 0.448 1 1-0.448 1-1 1z"></path>
</svg>
