<!-- Generated by IcoMoon.io -->
<svg version="1.1" xmlns="http://www.w3.org/2000/svg" width="40" height="32" viewBox="0 0 40 32">
<title>cow</title>
<path d="M39.629 17.479l-0.629-0.883v-3.435c0-1.209-0.984-2.193-2.193-2.193-0.568 0-0.891 0.184-1.476 0.478l-3.538-4.966c-1.104-1.51-2.868-2.48-4.86-2.48-0 0-0 0-0 0h-19.934c-2.758 0-5 2.243-5 5v5.555c-1.191 0.693-2 1.968-2 3.445v2c2.209 0 4-1.791 4-4v-7c0-1.493 1.099-2.724 2.529-2.953-0.327 0.58-0.529 1.239-0.529 1.952v18c0 1.104 0.896 2 2 2h3c1.104 0 2-0.896 2-2v-3.224c0.457 0.183 0.976 0.311 1.502 0.428v1.296c0 0.552 0.447 1 1 1s1-0.448 1-1v-1.044c0.171 0.008 0.324 0.044 0.497 0.044 0.176 0 0.331-0.038 0.503-0.045v1.045c0 0.552 0.448 1 1 1s1-0.448 1-1v-1.297c0.524-0.117 1.043-0.245 1.497-0.427v3.224c0 1.104 0.896 2 2 2h2.997c1.104 0 2-0.895 2-1.999l0.003-8.998 1.997 0.997v2.624c0 0.77 0.222 1.524 0.64 2.17l2.216 3.431c0.702 1.075 1.899 1.775 3.259 1.775 0 0 0 0 0 0h0.007c2.143 0 3.88-1.737 3.88-3.88v-5.481c0-0.416-0.13-0.821-0.371-1.16zM13.296 6h7.409c1.096 0 1.695 1.236 0.993 2.050-2.506 2.907-3.622 2.95-4.694 2.95h-0.068c-1.075 0-2.114-0.027-4.633-2.95-0.701-0.814-0.102-2.050 0.994-2.050zM13.037 20.637c0.186-2.034 1.883-3.637 3.963-3.637s3.777 1.603 3.963 3.637c-0.887 0.355-3.591 1.733-7.926 0zM38 24.12c0 1.037-0.843 1.88-1.887 1.88-0.641 0-1.231-0.321-1.579-0.86l-2.216-3.431c-0.201-0.306-0.32-0.681-0.32-1.084 0-0 0-0.001 0-0.001v0-3.861l-5.997-2.995-0.001 3.234-0.003 8.998h-2.997v-5c0-1.929-1.591-6-6-6-4.429 0-6 4.034-6 6v5h-3v-18c0-1.103 0.898-2 2-2h0.268c-0.482 1.136-0.294 2.412 0.519 3.356 2.641 3.063 4.198 3.644 6.148 3.644 2.058 0 3.637-0.581 6.277-3.644 0.813-0.944 1.001-2.22 0.519-3.356h3.203c1.279 0 2.489 0.618 3.231 1.641l4.916 6.901c0.281-1.077 1.182-1.539 1.418-1.539 0.263 0 0.5 0.211 0.5 0.501v3.731l1 1.404v5.481zM35.5 19c-0.553 0-1 0.448-1 1s0.447 1 1 1 1-0.448 1-1-0.447-1-1-1z"></path>
</svg>
