<!-- Generated by IcoMoon.io -->
<svg version="1.1" xmlns="http://www.w3.org/2000/svg" width="40" height="32" viewBox="0 0 40 32">
<title>cowbell-more-solid</title>
<path d="M17.986 22c0-4.701 2.729-8.767 6.683-10.735l-0.651-3.618c-0.175-0.943-0.991-1.647-1.972-1.647-0 0-0.001 0-0.002 0h-0.994v-3c-0.002-1.656-1.344-2.998-3-3h-8c-1.656 0.002-2.998 1.344-3 3v3h-1.089c-0.001 0-0.003 0-0.004 0-0.98 0-1.795 0.705-1.967 1.635l-0.002 0.012-3.957 22c-0.020 0.106-0.031 0.228-0.031 0.353 0 1.105 0.895 2 2 2 0.001 0 0.003 0 0.004 0h21.375c-3.247-2.151-5.393-5.829-5.393-10zM17.049 6h-6v-2h6zM30 12c-5.523 0-10 4.477-10 10s4.477 10 10 10c5.523 0 10-4.477 10-10v0c0-5.523-4.477-10-10-10v0zM35 22.5c0 0.276-0.224 0.5-0.5 0.5v0h-3.5v3.5c0 0.276-0.224 0.5-0.5 0.5v0h-1c-0.276 0-0.5-0.224-0.5-0.5v0-3.5h-3.5c-0.276 0-0.5-0.224-0.5-0.5v0-1c0-0.276 0.224-0.5 0.5-0.5v0h3.5v-3.5c0-0.276 0.224-0.5 0.5-0.5v0h1c0.276 0 0.5 0.224 0.5 0.5v0 3.5h3.5c0.276 0 0.5 0.224 0.5 0.5v0z"></path>
</svg>
