<!-- Generated by IcoMoon.io -->
<svg version="1.1" xmlns="http://www.w3.org/2000/svg" width="28" height="32" viewBox="0 0 28 32">
<title>cowbell</title>
<path d="M24.012 7.647c-0.174-0.942-0.989-1.647-1.969-1.647-0.001 0-0.002 0-0.003 0h-1v-3c-0.004-1.658-1.348-3-3.006-3-0 0-0.001 0-0.001 0h-8.014c-1.658 0-3.002 1.343-3.006 3v3h-1.053c-0.001 0-0.002 0-0.003 0-0.98 0-1.795 0.705-1.967 1.635l-0.002 0.012-3.956 22c-0.020 0.106-0.031 0.228-0.031 0.353 0 1.105 0.895 2 2 2 0.001 0 0.003 0 0.004 0h23.991c0.001 0 0.003 0 0.004 0 1.105 0 2-0.895 2-2 0-0.125-0.011-0.247-0.033-0.365l0.002 0.012zM9.012 3c0.002-0.553 0.451-1 1.004-1 0 0 0.001 0 0.001 0h8.014c0 0 0.001 0 0.001 0 0.553 0 1.002 0.447 1.004 1v3h-10.026zM2 30l3.96-22h16.084l3.952 22z"></path>
</svg>
