<!-- Generated by IcoMoon.io -->
<svg version="1.1" xmlns="http://www.w3.org/2000/svg" width="40" height="32" viewBox="0 0 40 32">
<title>cowbell-more</title>
<path d="M30 12c-5.523 0-10 4.477-10 10s4.477 10 10 10c5.523 0 10-4.477 10-10v0c0-5.523-4.477-10-10-10v0zM30 30c-4.418 0-8-3.582-8-8s3.582-8 8-8c4.418 0 8 3.582 8 8v0c-0.005 4.416-3.584 7.995-8 8h-0zM34.5 21h-3.5v-3.5c0-0.276-0.224-0.5-0.5-0.5v0h-1c-0.276 0-0.5 0.224-0.5 0.5v0 3.5h-3.5c-0.276 0-0.5 0.224-0.5 0.5v0 1c0 0.276 0.224 0.5 0.5 0.5v0h3.5v3.5c0 0.276 0.224 0.5 0.5 0.5v0h1c0.276 0 0.5-0.224 0.5-0.5v0-3.5h3.5c0.276 0 0.5-0.224 0.5-0.5v0-1c0-0.276-0.224-0.5-0.5-0.5v0zM2 30l3.96-22h16.083l0.789 4.391c0.531-0.401 1.13-0.776 1.762-1.097l0.068-0.031-0.651-3.617c-0.174-0.942-0.989-1.646-1.968-1.646-0.001 0-0.002 0-0.004 0h-1v-3c-0.004-1.658-1.348-3-3.006-3-0 0-0.001 0-0.001 0h-8.014c-1.658 0-3.002 1.343-3.006 3v3h-1.053c-0.001 0-0.003 0-0.004 0-0.98 0-1.795 0.705-1.967 1.635l-0.002 0.012-3.956 22c-0.020 0.106-0.031 0.228-0.031 0.353 0 1.105 0.895 2 2 2 0.001 0 0.003 0 0.004 0h21.37c-0.87-0.586-1.624-1.246-2.288-1.988l-0.010-0.012zM9.012 3c0.002-0.553 0.451-1 1.004-1 0 0 0.001 0 0.001 0h8.014c0 0 0.001 0 0.001 0 0.553 0 1.002 0.447 1.004 1v3h-10.026z"></path>
</svg>
