<!-- Generated by IcoMoon.io -->
<svg version="1.1" xmlns="http://www.w3.org/2000/svg" width="36" height="32" viewBox="0 0 36 32">
<title>credit-card-front</title>
<path d="M33 1.938h-30c-1.656 0-3 1.344-3 3v22c0 1.656 1.344 3 3 3h30c1.656 0 3-1.344 3-3v-22c0-1.656-1.344-3-3-3zM34 26.938c0 0.55-0.45 1-1 1h-30c-0.55 0-1-0.45-1-1v-22c0-0.55 0.45-1 1-1h30c0.55 0 1 0.45 1 1v22zM12 22.688v0.5c0 0.413-0.338 0.75-0.75 0.75h-4.5c-0.412 0-0.75-0.337-0.75-0.75v-0.5c0-0.413 0.338-0.75 0.75-0.75h4.5c0.412 0 0.75 0.337 0.75 0.75zM24 22.688v0.5c0 0.413-0.337 0.75-0.75 0.75h-8.5c-0.412 0-0.75-0.337-0.75-0.75v-0.5c0-0.413 0.338-0.75 0.75-0.75h8.5c0.413 0 0.75 0.337 0.75 0.75zM30.5 5.938h-5c-0.831 0-1.5 0.669-1.5 1.5v3c0 0.831 0.669 1.5 1.5 1.5h5c0.831 0 1.5-0.669 1.5-1.5v-3c0-0.831-0.669-1.5-1.5-1.5zM30 9.938h-4v-2h4v2zM16.25 19.938h-3.5c-0.412 0-0.75-0.337-0.75-0.75v-2.5c0-0.413 0.338-0.75 0.75-0.75h3.5c0.413 0 0.75 0.337 0.75 0.75v2.5c0 0.413-0.337 0.75-0.75 0.75zM18 19.188v-2.5c0-0.413 0.337-0.75 0.75-0.75h3.5c0.413 0 0.75 0.337 0.75 0.75v2.5c0 0.413-0.337 0.75-0.75 0.75h-3.5c-0.413 0-0.75-0.337-0.75-0.75zM6 19.188v-2.5c0-0.413 0.338-0.75 0.75-0.75h3.5c0.412 0 0.75 0.337 0.75 0.75v2.5c0 0.413-0.338 0.75-0.75 0.75h-3.5c-0.412 0-0.75-0.337-0.75-0.75zM30 16.688v2.5c0 0.413-0.337 0.75-0.75 0.75h-4.5c-0.413 0-0.75-0.337-0.75-0.75v-2.5c0-0.413 0.337-0.75 0.75-0.75h4.5c0.413 0 0.75 0.337 0.75 0.75z"></path>
</svg>
