<!-- Generated by IcoMoon.io -->
<svg version="1.1" xmlns="http://www.w3.org/2000/svg" width="36" height="32" viewBox="0 0 36 32">
<title>credit-card-solid</title>
<path d="M0 27c0 1.656 1.344 3 3 3h30c1.656 0 3-1.344 3-3v-11h-36v11zM12 22.75c0-0.413 0.338-0.75 0.75-0.75h8.5c0.413 0 0.75 0.337 0.75 0.75v2.5c0 0.413-0.337 0.75-0.75 0.75h-8.5c-0.412 0-0.75-0.337-0.75-0.75v-2.5zM4 22.75c0-0.413 0.338-0.75 0.75-0.75h4.5c0.412 0 0.75 0.337 0.75 0.75v2.5c0 0.413-0.338 0.75-0.75 0.75h-4.5c-0.412 0-0.75-0.337-0.75-0.75v-2.5zM36 5v3h-36v-3c0-1.656 1.344-3 3-3h30c1.656 0 3 1.344 3 3z"></path>
</svg>
