<!-- Generated by IcoMoon.io -->
<svg version="1.1" xmlns="http://www.w3.org/2000/svg" width="36" height="32" viewBox="0 0 36 32">
<title>credit-card-front-solid</title>
<path d="M33 2h-30c-1.656 0-3 1.344-3 3v22c0 1.656 1.344 3 3 3h30c1.656 0 3-1.344 3-3v-22c0-1.656-1.344-3-3-3zM12 16.75c0-0.413 0.338-0.75 0.75-0.75h4c0.413 0 0.75 0.337 0.75 0.75v2.5c0 0.413-0.337 0.75-0.75 0.75h-4c-0.412 0-0.75-0.337-0.75-0.75v-2.5zM10 25.25c0 0.413-0.338 0.75-0.75 0.75h-4.5c-0.412 0-0.75-0.337-0.75-0.75v-0.5c0-0.413 0.338-0.75 0.75-0.75h4.5c0.412 0 0.75 0.337 0.75 0.75v0.5zM11 19.25c0 0.413-0.338 0.75-0.75 0.75h-5.5c-0.412 0-0.75-0.337-0.75-0.75v-2.5c0-0.413 0.338-0.75 0.75-0.75h5.5c0.412 0 0.75 0.337 0.75 0.75v2.5zM22 25.25c0 0.413-0.337 0.75-0.75 0.75h-8.5c-0.412 0-0.75-0.337-0.75-0.75v-0.5c0-0.413 0.338-0.75 0.75-0.75h8.5c0.413 0 0.75 0.337 0.75 0.75v0.5zM24 19.25c0 0.413-0.337 0.75-0.75 0.75h-4c-0.413 0-0.75-0.337-0.75-0.75v-2.5c0-0.413 0.337-0.75 0.75-0.75h4c0.413 0 0.75 0.337 0.75 0.75v2.5zM32 19.25c0 0.413-0.337 0.75-0.75 0.75h-5.5c-0.413 0-0.75-0.337-0.75-0.75v-2.5c0-0.413 0.337-0.75 0.75-0.75h5.5c0.413 0 0.75 0.337 0.75 0.75v2.5zM32 10.5c0 0.831-0.669 1.5-1.5 1.5h-5c-0.831 0-1.5-0.669-1.5-1.5v-3c0-0.831 0.669-1.5 1.5-1.5h5c0.831 0 1.5 0.669 1.5 1.5v3z"></path>
</svg>
