<!-- Generated by IcoMoon.io -->
<svg version="1.1" xmlns="http://www.w3.org/2000/svg" width="40" height="32" viewBox="0 0 40 32">
<title>cricket-solid</title>
<path d="M26.344 20.094l-16.469 11.531c-0.556 0.388-1.281 0.494-1.9 0.219-4.55-2.031-7.619-6.413-7.969-11.381-0.050-0.675 0.3-1.325 0.856-1.712l16.469-11.531-1.931 10.944 10.944 1.931zM39.731 1.9l-0.95-1.262c-0.475-0.675-1.413-0.844-2.094-0.369l-9 6.281c-0.906 0.631-2.15 0.412-2.788-0.494l-1.369-1.956c-0.319-0.45-0.938-0.563-1.394-0.244l-1.331 0.931-1.931 10.944 10.944 1.931 1.331-0.931c0.45-0.319 0.563-0.938 0.244-1.394l-1.531-2.188c-0.631-0.906-0.413-2.15 0.494-2.787l9.006-6.369c0.675-0.475 0.844-1.413 0.369-2.094zM31 22c-2.762 0-5 2.238-5 5s2.238 5 5 5 5-2.238 5-5-2.237-5-5-5z"></path>
</svg>
