<!-- Generated by IcoMoon.io -->
<svg version="1.1" xmlns="http://www.w3.org/2000/svg" width="40" height="32" viewBox="0 0 40 32">
<title>cricket</title>
<path d="M39.55 1.887l-0.575-0.819c-0.381-0.55-0.956-0.912-1.612-1.031-0.656-0.125-1.319 0.031-1.869 0.412l-9.3 6.55c-0.906 0.631-2.15 0.412-2.788-0.494l-0.575-0.819c-0.631-0.906-1.875-1.125-2.781-0.494l-18.762 13.144c-0.875 0.613-1.363 1.619-1.281 2.625 0.381 4.688 3.275 8.825 7.556 10.788 1.3 0.594 2.463 0.006 2.906-0.306l18.756-13.137c0.9-0.631 1.137-1.869 0.494-2.787l-0.575-0.819c-0.631-0.906-0.413-2.15 0.494-2.787l9.294-6.544c1.131-0.794 1.406-2.35 0.619-3.481zM9.319 29.806c-0.287 0.206-0.65 0.25-0.925 0.125-5.069-2.331-6.338-7.281-6.394-9.137-0.025-0.3 0.144-0.619 0.431-0.825l14.081-9.856-1.475 8.356 8.356 1.475-14.075 9.863zM27.669 16.956l-1.956 1.369-8.356-1.475 1.475-8.356 1.956-1.369c0.225-0.156 0.538-0.106 0.694 0.125l6.306 9.012c0.163 0.225 0.106 0.531-0.119 0.694zM37.788 3.731l-10.938 7.694-1.15-1.637 10.938-7.694c0.206-0.144 0.525-0.125 0.694 0.125l0.575 0.819c0.163 0.225 0.106 0.538-0.119 0.694zM31 22c-2.756 0-5 2.244-5 5s2.244 5 5 5 5-2.244 5-5-2.244-5-5-5zM31 30c-1.656 0-3-1.344-3-3s1.344-3 3-3 3 1.344 3 3-1.344 3-3 3z"></path>
</svg>
