<!-- Generated by IcoMoon.io -->
<svg version="1.1" xmlns="http://www.w3.org/2000/svg" width="32" height="32" viewBox="0 0 32 32">
<title>croissant</title>
<path d="M31.756 10.979c-0.719-1.896-1.866-3.532-3.273-4.886 0.008-0.089 0.012-0.192 0.012-0.297 0-0.162-0.010-0.322-0.031-0.479l0.002 0.019c-0.137-1.027-0.67-1.908-1.437-2.5l-0.009-0.006c-2.298-1.76-5.211-2.822-8.372-2.829h-0.001c-1.301 0.010-2.553 0.201-3.737 0.549l0.096-0.024c-0.641-0.364-1.556-0.713-2.745-0.412-5.994 1.527-10.622 6.155-12.126 12.033l-0.025 0.115c-0.070 0.271-0.111 0.582-0.111 0.903 0 0.705 0.195 1.364 0.535 1.926l-0.009-0.017c-1.11 4.095-0.326 8.5 2.303 11.946 0.599 0.776 1.48 1.308 2.487 1.444l0.019 0.002c0.574 0.073 0.568 0 0.713-0.010 1.361 1.42 3.015 2.575 4.93 3.301 2.659 1.008 5.438-1.247 4.969-4.074l-0.909-5.452c0.545-0.511 0.932-1.184 1.088-1.941l0.004-0.024c0.646-0.177 1.201-0.505 1.646-0.945l1.548-1.548c0.44-0.445 0.769-1.001 0.942-1.622l0.006-0.026c0.778-0.16 1.448-0.546 1.956-1.086l0.002-0.002 5.453 0.909c2.839 0.475 5.078-2.321 4.074-4.967zM18.648 2c2.704 0.006 5.196 0.914 7.189 2.44l-0.029-0.021c0.87 0.664 0.842 1.801 0.313 2.471l-5.25 6.688c-0.097 0.125-0.575 0.584-0.619 0.441l-3.5-11.375c-0.048-0.155-0.144-0.279-0.209-0.424 0.629-0.132 1.355-0.211 2.099-0.219l0.006-0zM2.204 16.569c0.12 0.062 0.266 0.125 0.417 0.179l0.026 0.008 11.375 3.5c0.141 0.043-0.318 0.522-0.442 0.619l-6.688 5.25c-0.88 0.691-1.974 0.337-2.472-0.313-1.503-1.954-2.409-4.436-2.409-7.129 0-0.747 0.070-1.479 0.203-2.187l-0.011 0.073zM11.688 29.886c-1.376-0.536-2.558-1.278-3.572-2.201l0.009 0.008 5.125-4.020 0.723 4.339c0.217 1.301-1.063 2.337-2.286 1.874zM17.91 16.359l-1.548 1.547c-0.25 0.25-0.9 0.697-1.75 0.438l-11.375-3.5c-0.721-0.227-1.235-0.89-1.235-1.673 0-0.151 0.019-0.297 0.055-0.436l-0.003 0.012c1.345-5.277 5.419-9.351 10.595-10.673l0.102-0.022c0.127-0.033 0.272-0.051 0.421-0.051 0.783 0 1.445 0.514 1.669 1.222l0.003 0.012 3.5 11.375c0.049 0.153 0.077 0.329 0.077 0.512 0 0.483-0.195 0.92-0.512 1.237l0-0zM28.012 13.976l-4.339-0.726 4.021-5.125c0.914 1.005 1.656 2.187 2.166 3.485l0.027 0.077c0.468 1.235-0.585 2.503-1.876 2.288z"></path>
</svg>
