<!-- Generated by IcoMoon.io -->
<svg version="1.1" xmlns="http://www.w3.org/2000/svg" width="32" height="32" viewBox="0 0 32 32">
<title>croissant-solid</title>
<path d="M13.069 24.246l-6.194 4.862c1.238 1.163 2.705 2.099 4.325 2.73l0.092 0.031c0.21 0.082 0.454 0.13 0.709 0.13 1.105 0 2-0.895 2-2 0-0.116-0.010-0.23-0.029-0.341l0.002 0.012zM31.87 11.291c-0.663-1.711-1.599-3.179-2.768-4.423l0.007 0.007-4.862 6.194 5.425 0.904c0.099 0.017 0.213 0.027 0.329 0.027 0 0 0 0 0 0v0c1.104-0 2-0.896 2-2 0-0.255-0.048-0.498-0.134-0.722l0.005 0.014zM14.681 1.412c-0.26-0.823-1.017-1.409-1.911-1.409-0.173 0-0.34 0.022-0.5 0.063l0.014-0.003c-6.029 1.538-10.684 6.193-12.197 12.106l-0.025 0.116c-0.038 0.146-0.060 0.313-0.060 0.486 0 0.894 0.587 1.651 1.396 1.907l0.014 0.004 13 4c0.175 0.055 0.376 0.087 0.584 0.087 0.553 0 1.054-0.224 1.416-0.587l1.769-1.769c0.363-0.362 0.587-0.863 0.587-1.416 0-0.208-0.032-0.409-0.091-0.598l0.004 0.014zM27.984 4.099c-0.072-0.548-0.356-1.018-0.766-1.333l-0.005-0.003c-2.246-1.72-5.093-2.757-8.183-2.763h-0.001c-0.958 0.002-1.892 0.104-2.792 0.296l0.088-0.016c0.088 0.183 0.206 0.345 0.267 0.544l4 13c0.004 0.012 0 0.026 0.006 0.039 0.375-0.121 0.726-0.313 0.975-0.625l6-7.645c0.266-0.336 0.426-0.767 0.426-1.234 0-0.090-0.006-0.179-0.018-0.266l0.001 0.010zM13.863 20.598c-0.012-0.004-0.026 0-0.039-0.006l-13-4c-0.21-0.071-0.386-0.146-0.556-0.233l0.022 0.010c-0.174 0.811-0.274 1.744-0.274 2.699 0 3.076 1.033 5.911 2.772 8.177l-0.024-0.032c0.319 0.415 0.789 0.699 1.327 0.77l0.010 0.001c0.076 0.010 0.164 0.016 0.253 0.016h0c0.468 0 0.899-0.161 1.239-0.43l-0.004 0.003 7.645-6c0.319-0.249 0.508-0.599 0.628-0.975z"></path>
</svg>
