<!-- Generated by IcoMoon.io -->
<svg version="1.1" xmlns="http://www.w3.org/2000/svg" width="32" height="32" viewBox="0 0 32 32">
<title>crop-solid</title>
<path d="M30.5 22h-2.5v-15.172l3.707-3.707c0.391-0.391 0.391-1.024 0-1.414l-1.414-1.414c-0.391-0.391-1.024-0.391-1.414 0l-3.707 3.707h-13.172v6h7.172l-9.172 9.172v-17.672c0-0.829-0.672-1.5-1.5-1.5h-3c-0.828 0-1.5 0.671-1.5 1.5v2.5h-2.5c-0.828 0-1.5 0.671-1.5 1.5v3c0 0.828 0.672 1.5 1.5 1.5h2.5v16.5c0 0.828 0.672 1.5 1.5 1.5h14.5v-6h-7.172l9.172-9.172v17.672c0 0.828 0.672 1.5 1.5 1.5h3c0.828 0 1.5-0.672 1.5-1.5v-2.5h2.5c0.828 0 1.5-0.672 1.5-1.5v-3c0-0.829-0.672-1.5-1.5-1.5z"></path>
</svg>
