<!-- Generated by IcoMoon.io -->
<svg version="1.1" xmlns="http://www.w3.org/2000/svg" width="32" height="32" viewBox="0 0 32 32">
<title>crop</title>
<path d="M30.5 20h-4.5v-12.586l5.854-5.854c0.195-0.195 0.195-0.512 0-0.707l-0.707-0.707c-0.195-0.195-0.512-0.195-0.707 0l-5.854 5.854h-12.586v-4.5c0-0.829-0.672-1.5-1.5-1.5h-3c-0.828 0-1.5 0.671-1.5 1.5v4.5h-4.5c-0.828 0-1.5 0.671-1.5 1.5v3c0 0.828 0.672 1.5 1.5 1.5h4.5v12c0 1.104 0.896 2 2 2h12v4.5c0 0.828 0.672 1.5 1.5 1.5h3c0.828 0 1.5-0.672 1.5-1.5v-4.5h4.5c0.828 0 1.5-0.672 1.5-1.5v-3c0-0.828-0.672-1.5-1.5-1.5zM6 10h-4v-2h4v2zM12 8h10.586l-2 2h-8.586v-2zM18.586 12l-6.586 6.586v-6.586h6.586zM20 24h-12v-22h2v20h10v2zM13.414 20l6.586-6.586v6.586h-6.586zM22 30v-18.586l2-2v20.586h-2zM30 24h-4v-2h4v2z"></path>
</svg>
