<!-- Generated by IcoMoon.io -->
<svg version="1.1" xmlns="http://www.w3.org/2000/svg" width="32" height="32" viewBox="0 0 32 32">
<title>crop-alt</title>
<path d="M30.5 20h-4.5v-12c0-1.104-0.896-2-2-2h-12v-4.5c0-0.829-0.672-1.5-1.5-1.5h-3c-0.828 0-1.5 0.671-1.5 1.5v4.5h-4.5c-0.828 0-1.5 0.671-1.5 1.5v3c0 0.828 0.672 1.5 1.5 1.5h4.5v12c0 1.104 0.896 2 2 2h12v4.5c0 0.828 0.672 1.5 1.5 1.5h3c0.828 0 1.5-0.672 1.5-1.5v-4.5h4.5c0.828 0 1.5-0.672 1.5-1.5v-3c0-0.829-0.672-1.5-1.5-1.5zM6 10h-4v-2h4v2zM20 24h-12v-22h2v20h10v2zM20 20h-8v-8h8v8zM24 30h-2v-20h-10v-2h12v22zM30 24h-4v-2h4v2z"></path>
</svg>
