<!-- Generated by IcoMoon.io -->
<svg version="1.1" xmlns="http://www.w3.org/2000/svg" width="32" height="32" viewBox="0 0 32 32">
<title>crop-alt-solid</title>
<path d="M30.5 22h-2.5v-16c0-1.104-0.896-2-2-2h-14v6h10v20.5c0 0.828 0.672 1.5 1.5 1.5h3c0.828 0 1.5-0.672 1.5-1.5v-2.5h2.5c0.828 0 1.5-0.672 1.5-1.5v-3c0-0.829-0.672-1.5-1.5-1.5zM10 1.5c0-0.829-0.672-1.5-1.5-1.5h-3c-0.828 0-1.5 0.671-1.5 1.5v2.5h-2.5c-0.828 0-1.5 0.671-1.5 1.5v3c0 0.828 0.672 1.5 1.5 1.5h2.5v16c0 1.104 0.896 2 2 2h14v-6h-10v-20.5z"></path>
</svg>
