<!-- Generated by IcoMoon.io -->
<svg version="1.1" xmlns="http://www.w3.org/2000/svg" width="32" height="32" viewBox="0 0 32 32">
<title>crosshairs-solid</title>
<path d="M31.25 14h-1.898c-0.869-5.855-5.498-10.483-11.352-11.352v-1.898c0-0.414-0.336-0.75-0.75-0.75h-2.5c-0.414 0-0.75 0.336-0.75 0.75v1.898c-5.855 0.869-10.483 5.498-11.352 11.352h-1.898c-0.414 0-0.75 0.336-0.75 0.75v2.5c0 0.414 0.336 0.75 0.75 0.75h1.898c0.869 5.855 5.498 10.483 11.352 11.352v1.898c0 0.414 0.336 0.75 0.75 0.75h2.5c0.414 0 0.75-0.336 0.75-0.75v-1.898c5.855-0.869 10.483-5.498 11.352-11.352h1.898c0.414 0 0.75-0.336 0.75-0.75v-2.5c0-0.414-0.336-0.75-0.75-0.75zM18 25.29v-2.54c0-0.414-0.336-0.75-0.75-0.75h-2.5c-0.414 0-0.75 0.336-0.75 0.75v2.54c-3.636-0.775-6.514-3.649-7.29-7.29h2.54c0.414 0 0.75-0.336 0.75-0.75v-2.5c0-0.414-0.336-0.75-0.75-0.75h-2.54c0.775-3.636 3.649-6.514 7.29-7.29v2.54c0 0.414 0.336 0.75 0.75 0.75h2.5c0.414 0 0.75-0.336 0.75-0.75v-2.54c3.636 0.775 6.514 3.649 7.29 7.29h-2.54c-0.414 0-0.75 0.336-0.75 0.75v2.5c0 0.414 0.336 0.75 0.75 0.75h2.54c-0.775 3.636-3.649 6.514-7.29 7.29zM18 16c0 1.105-0.895 2-2 2s-2-0.895-2-2c0-1.105 0.895-2 2-2s2 0.895 2 2z"></path>
</svg>
