<!-- Generated by IcoMoon.io -->
<svg version="1.1" xmlns="http://www.w3.org/2000/svg" width="32" height="32" viewBox="0 0 32 32">
<title>crosshairs</title>
<path d="M31.625 15h-2.162c-0.488-6.659-5.804-11.976-12.463-12.463v-2.162c0-0.207-0.168-0.375-0.375-0.375v0h-1.25c-0.207 0-0.375 0.168-0.375 0.375v0 2.162c-6.659 0.488-11.976 5.804-12.463 12.463h-2.162c-0.207 0-0.375 0.168-0.375 0.375v0 1.25c0 0.207 0.168 0.375 0.375 0.375v0h2.162c0.488 6.659 5.804 11.976 12.463 12.463v2.162c0 0.207 0.168 0.375 0.375 0.375v0h1.25c0.207 0 0.375-0.168 0.375-0.375v0-2.162c6.659-0.488 11.976-5.804 12.463-12.463h2.162c0.207 0 0.375-0.168 0.375-0.375v0-1.25c0-0.207-0.168-0.375-0.375-0.375v0zM17 27.457v-4.082c0-0.207-0.168-0.375-0.375-0.375v0h-1.25c-0.207 0-0.375 0.168-0.375 0.375v0 4.082c-5.545-0.475-9.98-4.892-10.457-10.457h4.082c0.207 0 0.375-0.168 0.375-0.375v0-1.25c0-0.207-0.168-0.375-0.375-0.375v0h-4.082c0.475-5.545 4.892-9.98 10.457-10.457v4.082c0 0.207 0.168 0.375 0.375 0.375v0h1.25c0.207 0 0.375-0.168 0.375-0.375v0-4.082c5.545 0.475 9.98 4.892 10.457 10.457h-4.082c-0.207 0-0.375 0.168-0.375 0.375v0 1.25c0 0.207 0.168 0.375 0.375 0.375v0h4.082c-0.475 5.545-4.892 9.98-10.457 10.457zM17.5 16c0 0.828-0.672 1.5-1.5 1.5s-1.5-0.672-1.5-1.5 0.672-1.5 1.5-1.5 1.5 0.672 1.5 1.5z"></path>
</svg>
