<!-- Generated by IcoMoon.io -->
<svg version="1.1" xmlns="http://www.w3.org/2000/svg" width="40" height="32" viewBox="0 0 40 32">
<title>crow-solid</title>
<path d="M34 2h-1.023c-0.913-1.208-2.347-2-3.977-2-2.761 0-5 2.239-5 5v1.311l-23.244 18.287c-0.461 0.348-0.755 0.895-0.756 1.511v0c0 1.404 1.478 2.317 2.733 1.689l7.596-3.798h6.031l2.776 7.506c0.142 0.389 0.572 0.59 0.961 0.448l1.409-0.513c0.389-0.142 0.59-0.572 0.448-0.961l-2.396-6.48h2.441c0.119 0 0.235-0.014 0.354-0.018l2.782 7.524c0.142 0.389 0.572 0.59 0.961 0.448l1.409-0.513c0.389-0.142 0.59-0.572 0.448-0.961l-2.578-6.971c4.982-1.459 8.623-6.055 8.623-11.509v-5l6-1c0-2.209-2.686-4-6-4zM29 6.5c-0.828 0-1.5-0.672-1.5-1.5s0.672-1.5 1.5-1.5 1.5 0.671 1.5 1.5c0 0.828-0.672 1.5-1.5 1.5z"></path>
</svg>
