<!-- Generated by IcoMoon.io -->
<svg version="1.1" xmlns="http://www.w3.org/2000/svg" width="40" height="32" viewBox="0 0 40 32">
<title>crow</title>
<path d="M26 4.5c-0.828 0-1.5 0.671-1.5 1.5s0.672 1.5 1.5 1.5 1.5-0.672 1.5-1.5c0-0.829-0.672-1.5-1.5-1.5zM32.5 4h-0.867c-0.826-2.325-3.024-4-5.633-4-3.314 0-6 2.686-6 6v2.475l-19.289 16.123c-0.448 0.357-0.711 0.916-0.711 1.511 0 1.095 0.846 1.891 1.778 1.891 0.264 0 0.534-0.064 0.794-0.202l7.928-3.798h6.843l2.776 7.506c0.142 0.389 0.572 0.59 0.961 0.448l0.427-0.156c0.389-0.142 0.59-0.572 0.448-0.961l-2.529-6.838h1.279c0.868 0 1.71-0.114 2.522-0.311l2.891 7.817c0.142 0.389 0.572 0.59 0.961 0.448l0.427-0.156c0.389-0.142 0.59-0.572 0.448-0.961l-2.874-7.773c4.065-1.816 6.919-6.086 6.919-11.065v-1.933l8-1.067c0-2.761-3.358-5-7.5-5zM30 12c0 5.514-4.169 10-9.294 10h-3.564l2.833-0.809c3.002-0.858 5.526-2.952 6.92-5.743 0.246-0.494 0.047-1.095-0.448-1.342-0.494-0.243-1.092-0.048-1.342 0.447-1.144 2.291-3.215 4.010-5.682 4.714-12.011 3.432-7.232 1.704-16.664 6.226l19.241-16.082v-3.41c0-2.206 1.794-4 4-4s4 1.794 4 4v6zM32 8.049v-2.049h0.5c1.927 0 3.555 0.593 4.529 1.378l-5.029 0.671z"></path>
</svg>
