<!-- Generated by IcoMoon.io -->
<svg version="1.1" xmlns="http://www.w3.org/2000/svg" width="40" height="32" viewBox="0 0 40 32">
<title>crown-solid</title>
<path d="M33 28h-26c-0.55 0-1 0.45-1 1v2c0 0.55 0.45 1 1 1h26c0.55 0 1-0.45 1-1v-2c0-0.55-0.45-1-1-1zM37 8c-1.656 0-3 1.344-3 3 0 0.444 0.1 0.856 0.275 1.238l-4.525 2.713c-0.962 0.575-2.206 0.25-2.762-0.725l-5.094-8.912c0.669-0.55 1.106-1.375 1.106-2.313 0-1.656-1.344-3-3-3s-3 1.344-3 3c0 0.938 0.438 1.763 1.106 2.313l-5.094 8.912c-0.556 0.975-1.806 1.3-2.762 0.725l-4.519-2.713c0.169-0.375 0.275-0.794 0.275-1.238 0-1.656-1.344-3-3-3s-3.006 1.344-3.006 3 1.344 3 3 3c0.163 0 0.325-0.025 0.481-0.050l4.519 12.050h24l4.519-12.050c0.156 0.025 0.319 0.050 0.481 0.050 1.656 0 3-1.344 3-3s-1.344-3-3-3z"></path>
</svg>
