<!-- Generated by IcoMoon.io -->
<svg version="1.1" xmlns="http://www.w3.org/2000/svg" width="32" height="32" viewBox="0 0 32 32">
<title>crutch</title>
<path d="M31.707 11.607l-11.313-11.313c-0.181-0.181-0.431-0.293-0.707-0.293s-0.526 0.112-0.707 0.293l-2.637 2.634c-0.181 0.181-0.293 0.431-0.293 0.707s0.112 0.526 0.293 0.707l1.414 1.414-7.046 7.045c-0.644 0.644-1.113 1.463-1.329 2.379l-0.007 0.034-1.8 7.796-7.429 7.426c-0.090 0.090-0.146 0.215-0.146 0.353s0.056 0.263 0.146 0.353l0.708 0.707c0.090 0.090 0.215 0.146 0.353 0.146s0.263-0.056 0.353-0.146l7.429-7.427 7.795-1.799c0.949-0.224 1.767-0.693 2.41-1.337l7.048-7.045 1.414 1.414c0.181 0.181 0.431 0.293 0.707 0.293s0.526-0.112 0.707-0.293l2.636-2.636c0.181-0.181 0.293-0.431 0.293-0.707s-0.112-0.526-0.293-0.707v0zM17.781 19.875c-0.385 0.386-0.876 0.667-1.425 0.797l-0.020 0.004-6.518 1.505 1.506-6.517c0.133-0.57 0.414-1.061 0.801-1.446l1.339-1.339 5.657 5.657zM20.536 17.12l-5.657-5.657 4.293-4.293 5.656 5.656zM28.364 13.534l-9.899-9.898 1.223-1.222 9.898 9.898z"></path>
</svg>
