<!-- Generated by IcoMoon.io -->
<svg version="1.1" xmlns="http://www.w3.org/2000/svg" width="40" height="32" viewBox="0 0 40 32">
<title>crutches-solid</title>
<path d="M39.707 11.607l-11.313-11.313c-0.181-0.181-0.431-0.293-0.707-0.293s-0.526 0.112-0.707 0.293v0l-1.418 1.413c-0.181 0.181-0.293 0.431-0.293 0.707s0.112 0.526 0.293 0.707l11.313 11.313c0.181 0.181 0.431 0.293 0.707 0.293s0.526-0.112 0.707-0.293l1.414-1.414c0.182-0.181 0.294-0.431 0.294-0.708 0-0.275-0.111-0.524-0.29-0.704l0 0zM27.563 24.735c-0.606 0.346-1.308 0.625-2.050 0.802l-0.054 0.011-2.224 0.515 5.645 5.645c0.181 0.181 0.431 0.293 0.707 0.293s0.526-0.112 0.707-0.293l1.414-1.414c0.181-0.181 0.293-0.431 0.293-0.707s-0.112-0.526-0.293-0.707v0zM12.238 22.104l0.606-0.606 0.826-3.582-7.014-7.015 4.243-4.243 4.922 4.922c0.245-0.331 0.497-0.624 0.768-0.897l1.995-1.995-4.857-4.859 0.709-0.708c0.181-0.181 0.293-0.431 0.293-0.707s-0.112-0.526-0.293-0.707v0l-1.417-1.414c-0.181-0.181-0.431-0.293-0.707-0.293s-0.526 0.112-0.707 0.293l-11.313 11.313c-0.181 0.181-0.293 0.431-0.293 0.707s0.112 0.526 0.293 0.707v0l1.413 1.418c0.181 0.181 0.431 0.293 0.707 0.293s0.526-0.112 0.707-0.293v0l0.708-0.707 8.268 8.266c0.043 0.043 0.099 0.066 0.143 0.108zM28.486 15.758l-4.243-4.243 3.444-3.444-2.828-2.828-6.854 6.854c-0.772 0.772-1.335 1.754-1.596 2.852l-0.008 0.041-1.734 7.516-6.375 6.375c-0.181 0.181-0.293 0.431-0.293 0.707s0.112 0.526 0.293 0.707l1.414 1.414c0.181 0.181 0.431 0.293 0.707 0.293s0.526-0.112 0.707-0.293l6.375-6.375 7.516-1.734c1.139-0.268 2.121-0.831 2.893-1.603l6.855-6.855-2.828-2.829zM25.075 19.168c-0.258 0.257-0.585 0.445-0.952 0.531l-0.014 0.003-4.956 1.145 1.144-4.956c0.090-0.38 0.278-0.708 0.535-0.966l0.582-0.582 4.243 4.243z"></path>
</svg>
