<!-- Generated by IcoMoon.io -->
<svg version="1.1" xmlns="http://www.w3.org/2000/svg" width="32" height="32" viewBox="0 0 32 32">
<title>cube-solid</title>
<path d="M14.944 0.394l-13 4.875c-1.169 0.438-1.944 1.563-1.944 2.813v14.069c0 1.137 0.644 2.175 1.656 2.681l13 6.5c0.844 0.425 1.837 0.425 2.681 0l13-6.5c1.019-0.506 1.656-1.55 1.656-2.681v-14.069c0-1.25-0.775-2.369-1.944-2.806l-13-4.875c-0.675-0.263-1.425-0.263-2.106-0.006zM16 4.275l12 4.5v0.069l-12 4.875-12-4.875v-0.069l12-4.5zM18 26.525v-9.306l10-4.063v8.369l-10 5z"></path>
</svg>
