<!-- Generated by IcoMoon.io -->
<svg version="1.1" xmlns="http://www.w3.org/2000/svg" width="32" height="32" viewBox="0 0 32 32">
<title>cubes-solid</title>
<path d="M30.538 15.637l-6.038-2.262v-6.781c0-0.938-0.581-1.775-1.462-2.106l-6.25-2.344c-0.506-0.194-1.069-0.194-1.581 0l-6.25 2.344c-0.881 0.331-1.463 1.169-1.463 2.106v6.781l-6.037 2.262c-0.875 0.331-1.456 1.169-1.456 2.106v6.881c0 0.85 0.481 1.631 1.244 2.012l6.25 3.125c0.631 0.319 1.381 0.319 2.013 0l6.494-3.25 6.494 3.25c0.631 0.319 1.381 0.319 2.012 0l6.25-3.125c0.762-0.381 1.244-1.163 1.244-2.012v-6.881c0-0.938-0.581-1.775-1.462-2.106zM22.375 13.425l-5.313 1.994v-4.263l5.313-2.313v4.581zM9.625 6.506l6.375-2.388 6.375 2.388v0.037l-6.375 2.588-6.375-2.588v-0.037zM14.875 24.7l-5.313 2.656v-4.944l5.313-2.425v4.713zM14.875 17.7l-6.375 2.587-6.375-2.587v-0.038l6.375-2.387 6.375 2.387v0.038zM29.875 24.7l-5.313 2.656v-4.944l5.313-2.425v4.713zM29.875 17.7l-6.375 2.587-6.375-2.587v-0.038l6.375-2.387 6.375 2.387v0.038z"></path>
</svg>
