<!-- Generated by IcoMoon.io -->
<svg version="1.1" xmlns="http://www.w3.org/2000/svg" width="32" height="32" viewBox="0 0 32 32">
<title>cube</title>
<path d="M14.944 0.394l-13 4.875c-1.169 0.438-1.944 1.563-1.944 2.813v14.069c0 1.137 0.644 2.175 1.656 2.681l13 6.5c0.844 0.425 1.837 0.425 2.681 0l13-6.5c1.019-0.506 1.656-1.55 1.656-2.681v-14.069c0-1.25-0.775-2.369-1.944-2.806l-13-4.875c-0.675-0.263-1.425-0.263-2.106-0.006zM16 2.138l14 5.25v0.019l-14 6.069-14-6.069v-0.019l14-5.25zM2 9.588l13 5.631v14.044l-13-6.5v-13.175zM17 29.262v-14.044l13-5.631v13.181l-13 6.494z"></path>
</svg>
