<!-- Generated by IcoMoon.io -->
<svg version="1.1" xmlns="http://www.w3.org/2000/svg" width="32" height="32" viewBox="0 0 32 32">
<title>cubes</title>
<path d="M30.538 16.044l-6.288-2.356v-6.944c0-0.938-0.581-1.775-1.462-2.106l-6-2.25c-0.506-0.194-1.069-0.194-1.581 0l-6 2.25c-0.881 0.331-1.463 1.169-1.463 2.106v6.944l-6.281 2.356c-0.881 0.331-1.462 1.169-1.462 2.106v6.331c0 0.85 0.481 1.631 1.244 2.012l6 3c0.631 0.319 1.381 0.319 2.013 0l6.744-3.369 6.744 3.375c0.631 0.319 1.381 0.319 2.012 0l6-3c0.762-0.381 1.244-1.163 1.244-2.012v-6.338c0-0.938-0.581-1.775-1.462-2.106zM1.031 25.238v-6.794l6.7 2.906v7.238zM15.469 25.238l-6.7 3.35v-7.238l6.7-2.906zM15.469 17.319l-7.219 3.125-7.219-3.125v-0.012l7.156-2.681 7.281 2.681zM15.488 16.087l-3.3-1.113-3.406-1.275v-6.669l6.706 2.906zM8.781 5.906v-0.006l7.219-2.712 7.219 2.706v0.013l-7.219 3.125zM16.512 9.938l6.7-2.906v6.669l-3.4 1.275-3.3 1.112zM23.238 28.587l-6.7-3.35v-6.794l6.7 2.906zM30.969 25.238l-6.7 3.35v-7.238l6.7-2.906zM30.969 17.319l-7.219 3.125-7.219-3.131v-0.012l0.556-0.206 6.725-2.469 7.156 2.681z"></path>
</svg>
