<!-- Generated by IcoMoon.io -->
<svg version="1.1" xmlns="http://www.w3.org/2000/svg" width="40" height="32" viewBox="0 0 40 32">
<title>curling</title>
<path d="M32.369 12.137c-1.125-2.494-3.6-4.138-6.369-4.138h-7c0-1.106 0.894-2 2-2h8c1.106 0 2-0.894 2-2v-2c0-1.106-0.894-2-2-2h-8c-4.413 0-8 3.587-8 8v0.075c-2.356 0.338-4.387 1.881-5.375 4.069-4.313 0.662-7.625 4.356-7.625 8.856v2c0 4.969 4.031 9 9 9h22c4.969 0 9-4.031 9-9v-2c0-4.5-3.319-8.2-7.631-8.863zM15 10v-2c0-3.306 2.694-6 6-6h8v2h-8c-2.206 0-4 1.794-4 4v2h9c1.6 0 3.069 0.769 4 2h-20c1.675-2.225 4.019-2 5-2zM31 30h-22c-3.862 0-7-3.137-7-7h36c0 3.863-3.138 7-7 7zM2 21c0-3.863 3.138-7 7-7h22c3.862 0 7 3.137 7 7h-36z"></path>
</svg>
