<!-- Generated by IcoMoon.io -->
<svg version="1.1" xmlns="http://www.w3.org/2000/svg" width="28" height="32" viewBox="0 0 28 32">
<title>cut-solid</title>
<path d="M17.379 16l10.401-10.402c0.293-0.293 0.293-0.768 0-1.061-2.050-2.050-5.374-2.050-7.424 0l-7.219 7.22-1.554-1.554c0.269-0.682 0.418-1.426 0.418-2.204 0-3.314-2.686-6-6-6s-6 2.686-6 6 2.686 6 6 6c0.284 0 0.562-0.020 0.835-0.058l2.058 2.058-2.058 2.058c-0.273-0.038-0.552-0.058-0.835-0.058-3.314 0-6 2.686-6 6s2.686 6 6 6 6-2.686 6-6c0-0.778-0.148-1.521-0.418-2.204l1.554-1.554 7.219 7.22c2.050 2.050 5.374 2.050 7.424 0 0.293-0.293 0.293-0.767 0-1.061l-10.401-10.402zM6 10c-1.103 0-2-0.898-2-2s0.897-2 2-2 2 0.897 2 2-0.897 2-2 2zM6 26c-1.103 0-2-0.898-2-2s0.897-2 2-2 2 0.898 2 2-0.897 2-2 2z"></path>
</svg>
