<!-- Generated by IcoMoon.io -->
<svg version="1.1" xmlns="http://www.w3.org/2000/svg" width="28" height="32" viewBox="0 0 28 32">
<title>cut</title>
<path d="M15.595 16l12.332-12.323c0.045-0.045 0.073-0.108 0.073-0.177s-0.028-0.131-0.073-0.177v0c-0.781-0.781-2.047-0.781-2.828 0l-11.095 11.086-3.040-3.038c0.654-0.961 1.036-2.122 1.036-3.372 0-3.314-2.686-6-6-6s-6 2.686-6 6 2.686 6 6 6c1.251 0 2.411-0.383 3.373-1.037l3.039 3.037-3.039 3.038c-0.961-0.655-2.122-1.038-3.373-1.038-3.314 0-6 2.686-6 6s2.686 6 6 6 6-2.686 6-6c0-1.25-0.383-2.411-1.036-3.372l3.040-3.038 11.095 11.086c0.781 0.781 2.047 0.781 2.828 0 0.045-0.045 0.073-0.108 0.073-0.177s-0.028-0.131-0.073-0.177v0l-12.332-12.323zM6 12c-2.206 0-4-1.794-4-4s1.794-4 4-4 4 1.794 4 4-1.794 4-4 4zM6 28c-2.206 0-4-1.794-4-4s1.794-4 4-4 4 1.794 4 4-1.794 4-4 4z"></path>
</svg>
