<!-- Generated by IcoMoon.io -->
<svg version="1.1" xmlns="http://www.w3.org/2000/svg" width="24" height="32" viewBox="0 0 24 32">
<title>dagger</title>
<path d="M20.951 7.997h-5.951v-6.997c0-0.552-0.447-1-1-1h-4c-0.553 0-1 0.448-1 1v6.998h-5.951c-1.645 0-3.021 1.303-3.049 2.948-0.028 1.679 1.326 3.049 2.999 3.049 1.657 0 3-1.342 3-2.999 0-0.352-0.072-0.686-0.184-1h2.184v16.808l3.168 4.751c0.396 0.594 1.268 0.594 1.664 0l3.168-4.75v-16.808h2.184c-0.112 0.314-0.184 0.648-0.184 1 0 1.656 1.343 2.999 3 2.999 1.674 0 3.027-1.371 2.999-3.051-0.027-1.644-1.404-2.948-3.049-2.948zM4 10.997c0 0.551-0.449 1-1 1s-1-0.449-1-1 0.449-1 1-1 1 0.449 1 1zM11 1.999h2v5.998h-2v-5.998zM14 26.199l-2 2.999-2-2.999v-16.202h4v16.202zM21 11.996c-0.551 0-1-0.449-1-1s0.449-1 1-1 1 0.449 1 1-0.449 1-1 1z"></path>
</svg>
