<!-- Generated by IcoMoon.io -->
<svg version="1.1" xmlns="http://www.w3.org/2000/svg" width="28" height="32" viewBox="0 0 28 32">
<title>database</title>
<path d="M14 2c6.625 0 12 1.797 12 4v2c0 2.203-5.375 4-12 4s-12-1.797-12-4v-2c0-2.203 5.375-4 12-4zM26 11.344v2.656c0 2.203-5.375 4-12 4s-12-1.797-12-4v-2.656c2.578 1.813 7.297 2.656 12 2.656s9.422-0.844 12-2.656zM26 17.344v2.656c0 2.203-5.375 4-12 4s-12-1.797-12-4v-2.656c2.578 1.813 7.297 2.656 12 2.656s9.422-0.844 12-2.656zM26 23.344v2.656c0 2.203-5.375 4-12 4s-12-1.797-12-4v-2.656c2.578 1.813 7.297 2.656 12 2.656s9.422-0.844 12-2.656zM14 0c-4.884 0-14 1.175-14 6v20c0 4.834 9.131 6 14 6 4.884 0 14-1.175 14-6v-20c0-4.834-9.131-6-14-6z"></path>
</svg>
