<!-- Generated by IcoMoon.io -->
<svg version="1.1" xmlns="http://www.w3.org/2000/svg" width="28" height="32" viewBox="0 0 28 32">
<title>database-solid</title>
<path d="M28 4.571v2.857c0 2.518-6.271 4.571-14 4.571s-14-2.054-14-4.571v-2.857c0-2.518 6.271-4.571 14-4.571s14 2.054 14 4.571zM28 11v6.429c0 2.518-6.271 4.571-14 4.571s-14-2.054-14-4.571v-6.429c3.008 2.071 8.513 3.036 14 3.036s10.992-0.964 14-3.036zM28 21v6.429c0 2.518-6.271 4.571-14 4.571s-14-2.054-14-4.571v-6.429c3.008 2.071 8.513 3.036 14 3.036s10.992-0.964 14-3.036z"></path>
</svg>
