<!-- Generated by IcoMoon.io -->
<svg version="1.1" xmlns="http://www.w3.org/2000/svg" width="32" height="32" viewBox="0 0 32 32">
<title>deaf</title>
<path d="M25.573 6.78l-0.354-0.354c-0.293-0.293-0.293-0.768 0-1.061l5.146-5.146c0.293-0.293 0.768-0.293 1.061 0l0.354 0.353c0.293 0.293 0.293 0.768 0 1.061l-5.146 5.146c-0.293 0.293-0.768 0.293-1.061 0zM1.634 31.78l11.646-11.646c0.293-0.293 0.293-0.768 0-1.061l-0.354-0.354c-0.293-0.293-0.768-0.293-1.061 0l-11.646 11.646c-0.293 0.293-0.293 0.768 0 1.061l0.353 0.354c0.293 0.293 0.768 0.293 1.061 0zM21.48 25.333c0-4.331 4.587-4.905 4.587-10.333 0-5.551-4.516-10.067-10.067-10.067s-10.067 4.516-10.067 10.067c0 0.552 0.448 1 1 1s1-0.448 1-1c0-4.448 3.619-8.067 8.067-8.067s8.067 3.619 8.067 8.067c0 4.465-4.587 5.010-4.587 10.333 0 2.573-2.093 4.667-4.667 4.667-0.552 0-1 0.448-1 1s0.448 1 1 1c3.676 0 6.667-2.991 6.667-6.667zM21.046 16c-0.552 0-1-0.448-1-1 0-2.261-1.839-4.1-4.1-4.1s-4.1 1.839-4.1 4.1c0 0.552-0.448 1-1 1s-1-0.448-1-1c0-3.364 2.736-6.1 6.1-6.1s6.1 2.736 6.1 6.1c0 0.552-0.448 1-1 1z"></path>
</svg>
