<!-- Generated by IcoMoon.io -->
<svg version="1.1" xmlns="http://www.w3.org/2000/svg" width="32" height="32" viewBox="0 0 32 32">
<title>deaf-solid</title>
<path d="M13.5 16.25c0 0.966-0.784 1.75-1.75 1.75s-1.75-0.784-1.75-1.75c0-2.757 2.243-5 5-5s5 2.243 5 5c0 0.966-0.784 1.75-1.75 1.75s-1.75-0.784-1.75-1.75c0-0.827-0.673-1.5-1.5-1.5s-1.5 0.673-1.5 1.5zM15 5.25c-6.065 0-11 4.935-11 11 0 0.966 0.784 1.75 1.75 1.75s1.75-0.784 1.75-1.75c0-4.136 3.364-7.5 7.5-7.5s7.5 3.364 7.5 7.5c0 4.698-4.438 4.394-4.5 8.976l-0 0.024c0 1.792-1.458 3.25-3.25 3.25-0.966 0-1.75 0.784-1.75 1.75s0.784 1.75 1.75 1.75c3.717 0 6.742-3.020 6.75-6.736 0.037-2.152 4.5-3.015 4.5-9.014 0-6.065-4.935-11-11-11zM31.78 1.987l-1.768-1.768c-0.293-0.293-0.768-0.293-1.061 0l-5.439 5.439c-0.293 0.293-0.293 0.768 0 1.061l1.768 1.768c0.293 0.293 0.768 0.293 1.061 0l5.439-5.439c0.293-0.293 0.293-0.768 0-1.061zM10.561 19.672c-0.293-0.293-0.768-0.293-1.061 0l-9.28 9.28c-0.293 0.293-0.293 0.768 0 1.061l1.768 1.768c0.293 0.293 0.768 0.293 1.061 0l9.28-9.28c0.293-0.293 0.293-0.768 0-1.061l-1.768-1.768z"></path>
</svg>
