<!-- Generated by IcoMoon.io -->
<svg version="1.1" xmlns="http://www.w3.org/2000/svg" width="32" height="32" viewBox="0 0 32 32">
<title>debug-solid</title>
<path d="M9.142 18.99l1.93-0.276c0.076 0.529 0.224 1.008 0.436 1.45l-0.013-0.030-1.55 1.034c-0.278 0.181-0.46 0.49-0.46 0.842 0 0.552 0.448 1 1 1 0.213 0 0.41-0.067 0.572-0.18l-0.003 0.002 1.649-1.099c0.853 0.786 1.996 1.268 3.252 1.268 0.437 0 0.86-0.058 1.262-0.167l-0.034 0.008-6.184-6.184v0.047l-2.142 0.306c-0.488 0.072-0.858 0.488-0.858 0.99 0 0.552 0.448 1 1 1 0.050 0 0.099-0.004 0.147-0.011l-0.005 0.001zM16 0.5c-8.563 0-15.5 6.938-15.5 15.5s6.938 15.5 15.5 15.5 15.5-6.938 15.5-15.5-6.938-15.5-15.5-15.5zM16 27.5c-6.341 0-11.5-5.159-11.5-11.5 0-0.001 0-0.001 0-0.002 0-2.467 0.781-4.751 2.11-6.619l-0.024 0.035 16 16c-1.832 1.305-4.116 2.086-6.583 2.086-0.001 0-0.003 0-0.004 0h0zM25.414 22.586l-3.769-3.769 1.213 0.173c0.043 0.006 0.092 0.010 0.142 0.010v0c0.552-0 1-0.448 1-1 0-0.503-0.371-0.918-0.854-0.989l-0.005-0.001-2.141-0.306v-1.408l2.142-0.306c0.488-0.072 0.858-0.488 0.858-0.99 0-0.552-0.448-1-1-1-0.050 0-0.099 0.004-0.147 0.011l0.005-0.001-1.93 0.276c-0.076-0.529-0.224-1.008-0.436-1.45l0.013 0.030 1.549-1.034c0.278-0.181 0.46-0.49 0.46-0.842 0-0.552-0.448-1-1-1-0.213 0-0.41 0.067-0.572 0.18l0.003-0.002-1.649 1.099c-0.866-0.786-2.021-1.267-3.289-1.267-1.174 0-2.251 0.412-3.095 1.1l0.009-0.007-3.507-3.507c1.833-1.305 4.117-2.086 6.583-2.086 0.001 0 0.002 0 0.002 0h-0c6.341 0 11.5 5.159 11.5 11.5 0 0.001 0 0.001 0 0.002 0 2.467-0.781 4.751-2.11 6.619l0.024-0.035z"></path>
</svg>
