<!-- Generated by IcoMoon.io -->
<svg version="1.1" xmlns="http://www.w3.org/2000/svg" width="32" height="32" viewBox="0 0 32 32">
<title>debug</title>
<path d="M8.141 19.49l2.867-0.409c0.012 0.45 0.082 0.878 0.203 1.285l-0.009-0.035-2.757 1.837c-0.27 0.182-0.445 0.486-0.445 0.832 0 0.207 0.063 0.399 0.17 0.559l-0.002-0.004c0.213 0.318 0.804 0.665 1.387 0.277l2.57-1.711c0.914 1.137 2.301 1.879 3.875 1.879 1.069-0.001 2.058-0.34 2.867-0.916l-0.015 0.010-1.456-1.456c-0.403 0.224-0.884 0.358-1.395 0.361h-0.001c-1.656-0.002-2.998-1.344-3-3v-1.758l-2-2v1.82l-3.141 0.449c-0.489 0.071-0.859 0.487-0.859 0.99 0 0.050 0.004 0.099 0.011 0.147l-0.001-0.005c0.123 0.849 0.96 0.872 1.131 0.847zM16 0.5c-8.563 0-15.5 6.938-15.5 15.5s6.938 15.5 15.5 15.5 15.5-6.938 15.5-15.5-6.938-15.5-15.5-15.5zM16 29.5c-7.444 0-13.5-6.056-13.5-13.5 0-0 0-0 0-0.001 0-3.374 1.244-6.457 3.299-8.816l-0.014 0.016 19.016 19.016c-2.343 2.041-5.426 3.285-8.8 3.285-0 0-0 0-0.001 0h0zM13.24 11.826c0.469-1.082 1.528-1.824 2.76-1.824 1.656 0 2.999 1.342 3 2.998v4.586zM26.215 24.801l-5.273-5.273c0.022-0.126 0.040-0.28 0.049-0.436l0.001-0.012 2.867 0.409c0.171 0.025 1.008 0 1.131-0.848 0.006-0.043 0.010-0.092 0.010-0.142 0-0.503-0.371-0.919-0.854-0.989l-0.005-0.001-3.141-0.448v-1.625l3.141-0.449c0.494-0.066 0.87-0.485 0.87-0.992 0-0.552-0.448-1-1-1-0.054 0-0.106 0.004-0.157 0.012l0.006-0.001-2.859 0.409c0-1.082-0.088-1.339-0.202-1.75l2.757-1.838c0.27-0.182 0.445-0.486 0.445-0.832 0-0.552-0.448-1-1-1-0.207 0-0.399 0.063-0.559 0.17l0.004-0.002-2.567 1.711c-0.917-1.136-2.304-1.878-3.878-1.878-1.79 0-3.338 0.954-4.216 2.37l-4.584-4.585c2.343-2.041 5.426-3.285 8.8-3.285 0 0 0 0 0.001 0h-0c7.444 0 13.5 6.056 13.5 13.5 0 0 0 0 0 0.001 0 3.374-1.244 6.457-3.299 8.816l0.014-0.016z"></path>
</svg>
