<!-- Generated by IcoMoon.io -->
<svg version="1.1" xmlns="http://www.w3.org/2000/svg" width="32" height="32" viewBox="0 0 32 32">
<title>deer-rudolph</title>
<path d="M23 10c-0.55 0-1 0.45-1 1s0.45 1 1 1 1-0.45 1-1-0.45-1-1-1zM30 7c-0.831 0-1.538 0.506-1.844 1.219l-5.356-1.506 0.694-0.35c0.775-0.388 1.438-0.975 1.919-1.694l1.131-1.7c0.156-0.231 0.094-0.538-0.137-0.694l-0.831-0.556c-0.231-0.156-0.538-0.094-0.694 0.137l-1.125 1.706c-0.288 0.438-0.688 0.787-1.156 1.019l-2.663 1.331-2.113-0.594 0.519-0.644c0.425-0.531 0.656-1.194 0.656-1.875v-2.3c0-0.275-0.225-0.5-0.5-0.5h-1c-0.275 0-0.5 0.225-0.5 0.5v2.3c0 0.225-0.075 0.444-0.219 0.625l-1.050 1.306-1.006-0.281c-0.431-0.119-0.731-0.513-0.731-0.962v-2.987c0-0.275-0.225-0.5-0.5-0.5h-1c-0.275 0-0.5 0.225-0.5 0.5v2.987c0 1.344 0.894 2.525 2.188 2.888l4.931 1.388-2.113 4.237h-11c-3.313 0-6 2.688-6 6v2h2v1.719l-0.744 1.988c-0.287 0.762-0.331 1.587-0.137 2.375l1.438 4.525c0.263 0.831 1.038 1.394 1.906 1.394h2.981c1.3 0 2.256-1.219 1.944-2.481l-1.063-4.287 1.213-3.231h4.463v8c0 1.106 0.894 2 2 2h4c1.106 0 2-0.894 2-2v-10l2-4h3c1.656 0 3-1.344 3-3v-2c1.106 0 2-0.894 2-2s-0.894-2-2-2zM28 13c0 0.55-0.45 1-1 1h-4.238l-2.762 5.525v10.475h-4v-10h-7.85l-1.919 5.113 1.212 4.887h-2.981l-1.413-4.45c-0.087-0.381-0.056-0.769 0.081-1.137l0.875-2.325v-4.088h-2.006c0-2.206 1.794-4 4-4h12.238l2.106-4.213c0.431-0.856 1.406-1.287 2.331-1.031l4.6 1.294c0.431 0.119 0.731 0.512 0.731 0.963v1.988z"></path>
</svg>
