<!-- Generated by IcoMoon.io -->
<svg version="1.1" xmlns="http://www.w3.org/2000/svg" width="32" height="32" viewBox="0 0 32 32">
<title>deer-rudolph-solid</title>
<path d="M30 6c-1.106 0-2 0.894-2 2 0 0.069 0.031 0.125 0.038 0.188l-5.238-1.469 0.694-0.35c0.775-0.388 1.438-0.975 1.919-1.694l1.131-1.7c0.156-0.231 0.094-0.538-0.137-0.694l-0.831-0.556c-0.231-0.156-0.538-0.094-0.694 0.137l-1.125 1.7c-0.288 0.437-0.688 0.788-1.156 1.019l-2.663 1.331-2.113-0.594 0.519-0.644c0.425-0.531 0.656-1.194 0.656-1.875v-2.3c0-0.275-0.225-0.5-0.5-0.5h-1c-0.275 0-0.5 0.225-0.5 0.5v2.3c0 0.225-0.075 0.444-0.219 0.625l-1.050 1.306-1.006-0.281c-0.431-0.119-0.731-0.513-0.731-0.962v-2.987c0-0.275-0.225-0.5-0.5-0.5h-1c-0.275 0-0.5 0.225-0.5 0.5v2.987c0 1.344 0.894 2.525 2.188 2.888l4.931 1.388-2.113 4.237h-13c-2.206 0-4 1.794-4 4v4l2-1.331v3.056l-0.744 1.988c-0.287 0.762-0.331 1.587-0.137 2.375l1.556 5.156c0.112 0.444 0.513 0.756 0.969 0.756h3.987c0.65 0 1.125-0.613 0.969-1.244l-1.644-5.525 1.212-3.231h7.831v9c0 0.55 0.45 1 1 1h4c0.55 0 1-0.45 1-1v-13l2-4h4c1.106 0 2-0.894 2-2v-1.744c0-0.094-0.031-0.175-0.044-0.262 0.012 0 0.031 0.006 0.044 0.006 1.106 0 2-0.894 2-2s-0.894-2-2-2zM24 11c-0.55 0-1-0.45-1-1s0.45-1 1-1 1 0.45 1 1-0.45 1-1 1z"></path>
</svg>
