<!-- Generated by IcoMoon.io -->
<svg version="1.1" xmlns="http://www.w3.org/2000/svg" width="40" height="32" viewBox="0 0 40 32">
<title>democrat-solid</title>
<path d="M39.831 16.056l-1.225-1.838c-1.763-2.644-4.706-4.219-7.881-4.219h-14.725l-5.075-5.075c1.256-1.256 1.412-3.194 0.469-4.619-0.213-0.325-0.675-0.369-0.95-0.094l-2.612 2.612-2.681-2.675c-0.225-0.225-0.6-0.188-0.775 0.075-0.769 1.163-0.644 2.75 0.381 3.775 0.206 0.206 0.456 0.331 0.706 0.469-0.138 0.106-0.294 0.194-0.4 0.338l-4.662 6.206c-0.456 0.606-0.525 1.419-0.188 2.094l0.894 1.787c0.338 0.675 1.031 1.106 1.788 1.106h1.938c0.531 0 1.038-0.213 1.413-0.588l2.381-2.162 3.375 6.75h22v-4.863c1.013 0.762 1.144 1.1 2.506 3.144 0.306 0.462 0.925 0.581 1.388 0.275l1.663-1.106c0.456-0.313 0.581-0.931 0.275-1.394zM18.512 15.206l-1.031 1.006 0.244 1.419c0.044 0.256-0.225 0.45-0.45 0.331l-1.275-0.669-1.275 0.669c-0.225 0.119-0.494-0.075-0.45-0.331l0.244-1.419-1.031-1.006c-0.188-0.181-0.081-0.494 0.175-0.531l1.425-0.206 0.637-1.294c0.113-0.231 0.444-0.231 0.563 0l0.637 1.294 1.425 0.206c0.25 0.037 0.35 0.35 0.163 0.531zM25.512 15.206l-1.031 1.006 0.244 1.419c0.044 0.256-0.225 0.45-0.45 0.331l-1.275-0.669-1.275 0.669c-0.225 0.119-0.494-0.075-0.45-0.331l0.244-1.419-1.031-1.006c-0.188-0.181-0.081-0.494 0.175-0.531l1.425-0.206 0.637-1.294c0.113-0.231 0.444-0.231 0.563 0l0.637 1.294 1.425 0.206c0.25 0.037 0.35 0.35 0.163 0.531zM32.513 15.206l-1.031 1.006 0.244 1.419c0.044 0.256-0.225 0.45-0.45 0.331l-1.275-0.669-1.275 0.669c-0.225 0.119-0.494-0.075-0.45-0.331l0.244-1.419-1.031-1.006c-0.188-0.181-0.081-0.494 0.175-0.531l1.425-0.206 0.637-1.294c0.113-0.231 0.444-0.231 0.563 0l0.637 1.294 1.425 0.206c0.25 0.037 0.35 0.35 0.163 0.531zM12 31c0 0.55 0.45 1 1 1h4c0.55 0 1-0.45 1-1v-5h10v5c0 0.55 0.45 1 1 1h4c0.55 0 1-0.45 1-1v-9h-22v9z"></path>
</svg>
