<!-- Generated by IcoMoon.io -->
<svg version="1.1" xmlns="http://www.w3.org/2000/svg" width="40" height="32" viewBox="0 0 40 32">
<title>democrat</title>
<path d="M17.731 14.175l-0.512-1.031c-0.094-0.188-0.356-0.188-0.45 0l-0.512 1.031-1.137 0.169c-0.206 0.031-0.287 0.281-0.137 0.425l0.825 0.806-0.194 1.138c-0.037 0.206 0.181 0.356 0.363 0.262l1.019-0.538 1.019 0.538c0.181 0.094 0.4-0.056 0.363-0.262l-0.194-1.137 0.825-0.806c0.15-0.144 0.069-0.394-0.137-0.425l-1.137-0.169zM23.731 14.175l-0.512-1.031c-0.094-0.188-0.356-0.188-0.45 0l-0.512 1.031-1.137 0.169c-0.206 0.031-0.288 0.281-0.137 0.425l0.825 0.806-0.194 1.138c-0.038 0.206 0.181 0.356 0.363 0.262l1.019-0.538 1.019 0.538c0.181 0.094 0.4-0.056 0.363-0.262l-0.194-1.137 0.825-0.806c0.15-0.144 0.069-0.394-0.137-0.425l-1.137-0.169zM39.919 14.137l-0.95-1.425c-2.744-4.106-6.7-3.713-8.644-3.713h-13.338l-1.55-2.025c1.081-1.75 1.094-4.025-0.075-5.794-0.475-0.719-1.275-1.144-2.137-1.15-0.688 0-1.331 0.269-1.819 0.75l-0.931 0.931-0.988-0.988c-0.469-0.469-1.088-0.725-1.75-0.725-0.825 0-1.594 0.412-2.050 1.1-0.925 1.4-1.019 3.156-0.344 4.619l-4.7 5.744c-0.731 0.894-0.85 2.119-0.3 3.125l0.994 1.819c0.538 0.988 1.594 1.594 2.763 1.594h2.15c0.8 0 1.55-0.281 2.131-0.794l0.912-0.762 1.7 3.969v8.669c0 1.606 1.306 2.919 2.919 2.919h3.163c1.606 0 2.919-1.306 2.919-2.919v-3.081h7.081v3.081c0 1.606 1.306 2.919 2.919 2.919h3.081c1.606 0 2.919-1.306 2.919-2.919v-14.406c0-1.025-0.294-1.975-0.775-2.806 0.813 0.488 1.531 1.137 2.075 1.956l0.956 1.425c0.15 0.231 0.462 0.294 0.694 0.137l0.831-0.556c0.231-0.15 0.294-0.463 0.144-0.694zM34 29.081c0 0.506-0.413 0.919-0.919 0.919h-3.081c-0.506 0-0.919-0.413-0.919-0.919v-5.081h-11.081v5.081c0 0.506-0.413 0.919-0.919 0.919h-3.162c-0.506 0-0.919-0.413-0.919-0.919v-8.081h21v8.081zM34 19h-21.431l-2.488-5.813-3.006 2.506c-0.213 0.194-0.513 0.306-0.819 0.306h-2.156c-0.431 0-0.831-0.213-1.013-0.544l-0.994-1.819c-0.163-0.294-0.125-0.631 0.094-0.9l5.181-6.325c0.194-0.237 0.513-0.375 0.856-0.394-0.175-0.106-0.362-0.194-0.519-0.344-0.944-0.944-1.056-2.394-0.35-3.462 0.088-0.138 0.237-0.206 0.388-0.206 0.119 0 0.237 0.044 0.331 0.138l2.406 2.406 2.344-2.344c0.113-0.112 0.256-0.169 0.4-0.169 0.181 0 0.363 0.087 0.469 0.25 0.863 1.306 0.719 3.087-0.431 4.237-0.131 0.131-0.275 0.244-0.425 0.344l3.163 4.131h14.331c2.031 0 3.675 1.644 3.675 3.675v4.325zM29.731 14.175l-0.512-1.031c-0.094-0.188-0.356-0.188-0.45 0l-0.512 1.031-1.137 0.169c-0.206 0.031-0.288 0.281-0.137 0.425l0.825 0.806-0.194 1.138c-0.038 0.206 0.181 0.356 0.363 0.262l1.019-0.538 1.019 0.538c0.181 0.094 0.4-0.056 0.363-0.262l-0.194-1.137 0.825-0.806c0.15-0.144 0.069-0.394-0.137-0.425l-1.137-0.169z"></path>
</svg>
