<!-- Generated by IcoMoon.io -->
<svg version="1.1" xmlns="http://www.w3.org/2000/svg" width="28" height="32" viewBox="0 0 28 32">
<title>dewpoint</title>
<path d="M11 0c-0.775 0-1.544 0.425-1.825 1.294-2.925 9.244-9.175 13.756-9.175 20.269 0 5.769 4.919 10.438 11 10.438s11-4.669 11-10.438c0-6.55-6.238-10.988-9.175-20.269-0.25-0.85-1.037-1.294-1.825-1.294zM20 21.563c0 4.65-4.037 8.438-9 8.438s-9-3.781-9-8.438c0-2.969 1.631-5.575 3.7-8.875 1.825-2.912 3.888-6.206 5.3-10.537 1.419 4.356 3.481 7.644 5.306 10.55 2.063 3.287 3.694 5.881 3.694 8.862zM24 0c-2.206 0-4 1.794-4 4s1.794 4 4 4 4-1.794 4-4-1.794-4-4-4zM24 6c-1.106 0-2-0.894-2-2s0.894-2 2-2 2 0.894 2 2-0.894 2-2 2z"></path>
</svg>
