<!-- Generated by IcoMoon.io -->
<svg version="1.1" xmlns="http://www.w3.org/2000/svg" width="32" height="32" viewBox="0 0 32 32">
<title>dharmachakra-solid</title>
<path d="M30.938 14.066l-1.076 0.068c-0.329-2.468-1.299-4.728-2.741-6.615l0.809-0.714c0.433-0.382 0.453-1.049 0.046-1.457l-1.323-1.322c-0.408-0.408-1.076-0.387-1.457 0.046l-0.714 0.809c-1.887-1.441-4.147-2.411-6.614-2.741l0.067-1.076c0.036-0.576-0.421-1.063-0.998-1.063h-1.871c-0.577 0-1.034 0.487-0.998 1.063l0.068 1.076c-2.468 0.329-4.727 1.299-6.614 2.741l-0.714-0.809c-0.382-0.433-1.049-0.453-1.457-0.046l-1.323 1.322c-0.408 0.408-0.387 1.076 0.046 1.457l0.809 0.714c-1.441 1.887-2.411 4.147-2.741 6.615l-1.076-0.068c-0.576-0.036-1.063 0.421-1.063 0.998v1.871c0 0.577 0.487 1.034 1.063 0.998l1.076-0.067c0.329 2.468 1.299 4.727 2.741 6.614l-0.809 0.714c-0.433 0.382-0.453 1.049-0.046 1.457l1.323 1.323c0.408 0.408 1.076 0.387 1.457-0.046l0.714-0.809c1.887 1.441 4.147 2.411 6.615 2.741l-0.068 1.076c-0.036 0.576 0.421 1.063 0.998 1.063h1.871c0.577 0 1.034-0.487 0.998-1.063l-0.067-1.076c2.468-0.329 4.727-1.299 6.615-2.741l0.714 0.809c0.382 0.433 1.049 0.453 1.457 0.046l1.323-1.323c0.408-0.408 0.387-1.076-0.046-1.457l-0.809-0.714c1.441-1.887 2.411-4.147 2.741-6.614l1.076 0.067c0.576 0.036 1.063-0.421 1.063-0.998v-1.871c-0.001-0.577-0.488-1.034-1.063-0.998zM17.615 6.163c1.551 0.254 2.977 0.854 4.202 1.736l-2.664 3.018c-0.546-0.34-1.145-0.596-1.789-0.747l0.251-4.008zM14.385 6.163l0.251 4.008c-0.643 0.151-1.243 0.408-1.789 0.747l-2.664-3.018c1.225-0.883 2.651-1.482 4.202-1.736zM7.899 10.184l3.019 2.663c-0.34 0.546-0.596 1.146-0.748 1.789l-4.008-0.251c0.254-1.551 0.854-2.976 1.736-4.201zM6.163 17.615l4.008-0.251c0.151 0.643 0.408 1.243 0.747 1.789l-3.018 2.664c-0.883-1.225-1.482-2.651-1.736-4.202zM14.385 25.837c-1.551-0.254-2.977-0.854-4.202-1.736l2.663-3.019c0.546 0.34 1.146 0.596 1.789 0.747l-0.25 4.008zM16 18c-1.104 0-2-0.896-2-2s0.896-2 2-2 2 0.896 2 2-0.896 2-2 2zM17.615 25.837l-0.251-4.008c0.643-0.151 1.243-0.407 1.789-0.747l2.663 3.019c-1.225 0.883-2.651 1.482-4.201 1.736zM24.101 21.816l-3.018-2.664c0.34-0.546 0.596-1.145 0.747-1.789l4.008 0.251c-0.254 1.551-0.854 2.977-1.736 4.202zM21.829 14.636c-0.151-0.643-0.407-1.243-0.747-1.789l3.019-2.663c0.883 1.225 1.482 2.651 1.736 4.202l-4.008 0.25z"></path>
</svg>
