<!-- Generated by IcoMoon.io -->
<svg version="1.1" xmlns="http://www.w3.org/2000/svg" width="32" height="32" viewBox="0 0 32 32">
<title>dharmachakra</title>
<path d="M31.479 14.522l-1.551 0.064c-0.281-2.806-1.392-5.365-3.082-7.434l1.144-1.053c0.209-0.192 0.216-0.521 0.015-0.721l-1.384-1.384c-0.201-0.201-0.529-0.194-0.721 0.015l-1.052 1.144c-2.069-1.689-4.628-2.801-7.434-3.082l0.064-1.551c0-0.006 0-0.013 0-0.021 0-0.276-0.224-0.5-0.5-0.5h-1.957c-0.284 0-0.511 0.237-0.499 0.521l0.064 1.551c-2.805 0.281-5.365 1.393-7.434 3.082l-1.053-1.144c-0.192-0.209-0.521-0.216-0.721-0.015l-1.384 1.384c-0.091 0.090-0.147 0.215-0.147 0.353 0 0.145 0.062 0.276 0.161 0.367l0 0 1.144 1.053c-1.69 2.069-2.801 4.628-3.082 7.434l-1.551-0.064c-0.284-0.011-0.521 0.216-0.521 0.5v1.958c0 0.284 0.237 0.511 0.521 0.499l1.551-0.064c0.281 2.806 1.393 5.365 3.082 7.434l-1.144 1.052c-0.209 0.192-0.216 0.521-0.015 0.721l1.384 1.384c0.201 0.201 0.529 0.194 0.721-0.015l1.053-1.144c2.069 1.69 4.628 2.801 7.434 3.082l-0.064 1.551c-0 0.006-0 0.014-0 0.021 0 0.276 0.224 0.5 0.5 0.5h1.957c0.284 0 0.511-0.237 0.499-0.521l-0.064-1.551c2.806-0.281 5.365-1.393 7.434-3.082l1.052 1.144c0.192 0.209 0.521 0.216 0.721 0.015l1.384-1.384c0.091-0.090 0.147-0.215 0.147-0.353 0-0.145-0.062-0.276-0.161-0.367l-0-0-1.144-1.052c1.69-2.069 2.801-4.628 3.082-7.434l1.551 0.064c0.284 0.012 0.521-0.215 0.521-0.499v-1.957c0.001-0.284-0.236-0.511-0.52-0.499zM27.922 14.67l-6.031 0.251c-0.155-0.852-0.484-1.642-0.959-2.328l4.432-4.078c1.383 1.727 2.301 3.841 2.558 6.154zM16 20c-2.206 0-4-1.794-4-4s1.794-4 4-4 4 1.794 4 4-1.794 4-4 4zM23.484 6.636l-4.078 4.432c-0.686-0.475-1.475-0.804-2.328-0.959l0.251-6.031c2.313 0.256 4.426 1.174 6.154 2.558zM14.67 4.078l0.251 6.031c-0.852 0.155-1.642 0.484-2.328 0.959l-4.078-4.432c1.727-1.383 3.841-2.301 6.154-2.558zM6.636 8.516l4.432 4.078c-0.475 0.686-0.804 1.475-0.959 2.328l-6.031-0.251c0.256-2.313 1.174-4.426 2.558-6.154zM4.078 17.33l6.031-0.251c0.155 0.852 0.484 1.642 0.959 2.328l-4.432 4.078c-1.383-1.727-2.301-3.841-2.558-6.154zM8.516 25.364l4.078-4.432c0.686 0.475 1.475 0.804 2.328 0.959l-0.251 6.031c-2.313-0.256-4.426-1.174-6.154-2.558zM17.33 27.922l-0.251-6.031c0.852-0.155 1.642-0.484 2.328-0.959l4.078 4.432c-1.727 1.383-3.841 2.301-6.154 2.558zM25.364 23.484l-4.432-4.078c0.475-0.686 0.804-1.475 0.959-2.328l6.031 0.251c-0.256 2.313-1.174 4.426-2.558 6.154z"></path>
</svg>
