<!-- Generated by IcoMoon.io -->
<svg version="1.1" xmlns="http://www.w3.org/2000/svg" width="40" height="32" viewBox="0 0 40 32">
<title>diagnoses</title>
<path d="M10 16c0 0.031-0.006 0.063-0.006 0.087 2.919-1.131 6.437-2.088 10.006-2.088 2.806 0 5.563 0.6 8.038 1.4-0.081-0.613-0.025-1.256 0.413-1.969-2.594-0.825-5.488-1.431-8.45-1.431-3.819 0-7.531 1-10.625 2.188 0.387 0.506 0.625 1.125 0.625 1.813zM31 16c0.55 0 1-0.45 1-1s-0.45-1-1-1-1 0.45-1 1 0.45 1 1 1zM36.538 20.525l-1.112 1.669c-0.313 0.469-0.906 0.563-1.337 0.306-1.4-0.825-4.481-2.481-8.087-3.544v8.794c0 0.137 0.113 0.25 0.25 0.25h1.5c0.137 0 0.25-0.113 0.25-0.25v-5.988c2.369 0.931 4.237 1.969 5.075 2.462 1.275 0.75 3.069 0.506 4.019-0.919l1.112-1.669c0.819-1.231 0.712-3.238-0.944-4.231-0.775-0.462-1.931-1.106-3.325-1.781-0.144 0.688-0.538 1.281-1.069 1.706 1.45 0.694 2.638 1.35 3.369 1.788 0.487 0.294 0.619 0.931 0.3 1.406zM26 6c0-3.306-2.694-6-6-6s-6 2.694-6 6 2.694 6 6 6 6-2.694 6-6zM20 10c-2.206 0-4-1.794-4-4s1.794-4 4-4 4 1.794 4 4-1.794 4-4 4zM2.906 23.306c0.938 1.413 2.731 1.681 4.019 0.919 0.831-0.494 2.706-1.538 5.075-2.462v5.988c0 0.137 0.113 0.25 0.25 0.25h1.5c0.137 0 0.25-0.113 0.25-0.25v-8.788c-3.606 1.056-6.694 2.719-8.088 3.544-0.438 0.256-1.025 0.156-1.338-0.306l-1.112-1.669c-0.319-0.475-0.181-1.113 0.306-1.406 0.356-0.212 0.837-0.488 1.381-0.781-0.531-0.425-0.925-1.012-1.075-1.694-0.513 0.281-0.969 0.544-1.331 0.762-1.65 0.988-1.769 2.988-0.944 4.231zM39.5 30h-39c-0.275 0-0.5 0.225-0.5 0.5v1c0 0.275 0.225 0.5 0.5 0.5h39c0.275 0 0.5-0.225 0.5-0.5v-1c0-0.275-0.225-0.5-0.5-0.5zM7 17c0.55 0 1-0.45 1-1s-0.45-1-1-1-1 0.45-1 1 0.45 1 1 1zM16 19c0 0.55 0.45 1 1 1s1-0.45 1-1-0.45-1-1-1-1 0.45-1 1zM22 25c0 0.55 0.45 1 1 1s1-0.45 1-1-0.45-1-1-1-1 0.45-1 1z"></path>
</svg>
