<!-- Generated by IcoMoon.io -->
<svg version="1.1" xmlns="http://www.w3.org/2000/svg" width="40" height="32" viewBox="0 0 40 32">
<title>diagnoses-solid</title>
<path d="M31 16c0.55 0 1-0.45 1-1s-0.45-1-1-1-1 0.45-1 1 0.45 1 1 1zM20 11c3.031 0 5.5-2.469 5.5-5.5s-2.469-5.5-5.5-5.5-5.5 2.469-5.5 5.5 2.469 5.5 5.5 5.5zM3.737 22.75c0.638 0.956 1.831 1.113 2.681 0.613 1.013-0.6 3.512-1.981 6.581-3.038v5.675h14v-5.669c3.069 1.050 5.569 2.438 6.581 3.038 0.85 0.5 2.044 0.331 2.681-0.613l1.112-1.669c0.55-0.825 0.475-2.163-0.625-2.819-0.744-0.444-1.856-1.063-3.194-1.712-1.756 2.881-6.212 1.113-5.481-2.194-2.494-0.787-5.256-1.363-8.075-1.363-3.563 0-7.056 0.906-10 2.013-0.012 2.512-2.975 3.956-4.95 2.25-0.7 0.375-1.331 0.725-1.794 1-1.1 0.656-1.175 1.988-0.625 2.819l1.106 1.669zM23 21.5c0.831 0 1.5 0.669 1.5 1.5s-0.669 1.5-1.5 1.5-1.5-0.669-1.5-1.5 0.669-1.5 1.5-1.5zM17 15.5c0.831 0 1.5 0.669 1.5 1.5s-0.669 1.5-1.5 1.5-1.5-0.669-1.5-1.5 0.669-1.5 1.5-1.5zM7 16c0.55 0 1-0.45 1-1s-0.45-1-1-1-1 0.45-1 1 0.45 1 1 1zM39 28h-38c-0.55 0-1 0.45-1 1v2c0 0.55 0.45 1 1 1h38c0.55 0 1-0.45 1-1v-2c0-0.55-0.45-1-1-1z"></path>
</svg>
