<!-- Generated by IcoMoon.io -->
<svg version="1.1" xmlns="http://www.w3.org/2000/svg" width="28" height="32" viewBox="0 0 28 32">
<title>diamond</title>
<path d="M15.813 0.838c-0.956-1.119-2.675-1.119-3.631 0l-11.6 13.594c-0.775 0.906-0.775 2.225 0 3.138l11.606 13.594c0.956 1.119 2.675 1.119 3.631 0l11.6-13.594c0.775-0.906 0.775-2.225 0-3.137l-11.606-13.594zM25.9 16.269l-11.606 13.594c-0.156 0.181-0.431 0.181-0.588 0l-11.606-13.594c-0.131-0.156-0.131-0.387 0-0.537l11.606-13.594c0.156-0.181 0.431-0.181 0.588 0l11.606 13.594c0.131 0.156 0.131 0.381 0 0.537z"></path>
</svg>
