<!-- Generated by IcoMoon.io -->
<svg version="1.1" xmlns="http://www.w3.org/2000/svg" width="32" height="32" viewBox="0 0 32 32">
<title>dice-d8</title>
<path d="M31.381 14.506l-13.887-13.887c-0.413-0.412-0.956-0.619-1.494-0.619s-1.081 0.206-1.494 0.619l-13.887 13.887c-0.825 0.825-0.825 2.156 0 2.981l13.887 13.887c0.412 0.413 0.95 0.619 1.494 0.619s1.081-0.206 1.494-0.619l13.887-13.887c0.825-0.819 0.825-2.156 0-2.981zM15 29.044l-11.175-11.175 11.175 4.788zM15 20.481l-12.269-5.256 12.269-12.269zM17 29.044v-6.387l11.175-4.788zM17 20.481v-17.525l12.269 12.269z"></path>
</svg>
