<!-- Generated by IcoMoon.io -->
<svg version="1.1" xmlns="http://www.w3.org/2000/svg" width="32" height="32" viewBox="0 0 32 32">
<title>dice-d12-solid</title>
<path d="M16 17.118l-6.787 3.393 3.676 11.489h6.221l3.676-11.489-6.786-3.393zM17 15.382l6.803 3.401 7.726-7.726-3.214-6.428-11.314 4.073v6.679zM15 15.382v-6.679l-11.314-4.073-3.214 6.428 7.726 7.726 6.803-3.402zM26.392 3.196l-5.548-2.774c-0.521-0.266-1.136-0.422-1.787-0.422-0 0-0.001 0-0.001 0h-6.112c-0.621 0-1.233 0.144-1.789 0.422l-5.548 2.774 10.392 3.741 10.392-3.741zM24.878 20.536l-3.438 10.744 5.367-2.684c0.777-0.395 1.394-1.011 1.778-1.766l0.011-0.023 2.981-5.963c0.266-0.521 0.422-1.137 0.422-1.789v-5.642l-7.122 7.121zM0 13.414v5.642c0 0.621 0.144 1.234 0.422 1.789l2.981 5.962c0.394 0.778 1.011 1.394 1.766 1.778l0.023 0.011 5.367 2.684-3.438-10.744-7.122-7.121z"></path>
</svg>
