<!-- Generated by IcoMoon.io -->
<svg version="1.1" xmlns="http://www.w3.org/2000/svg" width="32" height="32" viewBox="0 0 32 32">
<title>dice-d8-solid</title>
<path d="M14.096 0.158l-13.948 14.457c-0.263 0.273-0.16 0.732 0.194 0.861l14.633 5.316v-20.267c-0.001-0.468-0.557-0.701-0.879-0.367zM31.852 14.614l-13.948-14.457c-0.322-0.334-0.879-0.101-0.879 0.367v20.267l14.633-5.316c0.354-0.129 0.457-0.589 0.194-0.861zM2.096 19.399l12 12.444c0.322 0.334 0.879 0.101 0.879-0.367v-8.457l-12.341-4.48c-0.513-0.186-0.92 0.464-0.538 0.861zM29.367 18.538l-12.341 4.48v8.457c0 0.469 0.557 0.701 0.879 0.367l12-12.444c0.383-0.396-0.024-1.047-0.538-0.861z"></path>
</svg>
