<!-- Generated by IcoMoon.io -->
<svg version="1.1" xmlns="http://www.w3.org/2000/svg" width="28" height="32" viewBox="0 0 28 32">
<title>dice-d20</title>
<path d="M26.992 7.258l-12-6.989c-0.284-0.169-0.627-0.269-0.992-0.269s-0.708 0.1-1.002 0.274l0.009-0.005-12 6.99c-0.623 0.362-1.008 1.038-1.008 1.77v13.943c0 0.732 0.384 1.407 1.008 1.77l12 6.989c0.284 0.169 0.627 0.269 0.992 0.269s0.708-0.1 1.002-0.274l-0.009 0.005 12-6.989c0.623-0.363 1.008-1.039 1.008-1.77v-13.943c0-0.732-0.384-1.407-1.008-1.771zM14 3.601l5.919 7.399h-11.838l5.919-7.399zM7.789 13h12.422l-6.211 10.092-6.211-10.092zM12.056 23.749l-8.561-1.070 2.777-8.33 5.784 9.4zM21.728 14.349l2.777 8.33-8.561 1.071 5.784-9.401zM22.176 10.618l-5.759-7.198 8.626 5.049-2.866 2.149zM5.824 10.618l-2.89-2.168 8.659-5.044-5.769 7.211zM4.823 12.367l-2.821 8.462 0.011-10.57 2.81 2.107zM13 25.883v3.527l-7.662-4.484 7.662 0.957zM22.725 24.917l-7.725 4.511v-3.545l7.725-0.966zM23.177 12.367l2.822-2.116-0.011 10.549-2.811-8.433zM14.009 30h0.011l-0.006 0.003-0.005-0.003z"></path>
</svg>
