<!-- Generated by IcoMoon.io -->
<svg version="1.1" xmlns="http://www.w3.org/2000/svg" width="32" height="32" viewBox="0 0 32 32">
<title>dice-d12</title>
<path d="M31.578 11.156l-2.981-5.963c-0.395-0.778-1.011-1.394-1.766-1.778l-0.023-0.010-5.963-2.981c-0.521-0.266-1.136-0.422-1.788-0.422-0 0-0.001 0-0.001 0h-6.111c-0.621 0-1.233 0.144-1.789 0.422l-5.963 2.981c-0.778 0.394-1.394 1.011-1.778 1.766l-0.010 0.023-2.981 5.963c-0.266 0.521-0.422 1.136-0.422 1.787 0 0 0 0.001 0 0.001v-0 6.111c0 0.621 0.144 1.233 0.422 1.789l2.981 5.963c0.394 0.778 1.011 1.394 1.766 1.778l0.023 0.011 5.963 2.981c0.521 0.266 1.137 0.422 1.789 0.422h6.111c0.621 0 1.233-0.144 1.789-0.422l5.963-2.981c0.778-0.395 1.394-1.011 1.778-1.766l0.011-0.023 2.981-5.963c0.266-0.521 0.422-1.137 0.422-1.789v-6.111c0-0.621-0.144-1.234-0.422-1.789zM29.731 11.933l-5.974 6.827-6.757-3.378v-6.618l9.809-2.675 2.922 5.844zM19.3 30h-6.6l-3.456-9.504 6.756-3.378 6.756 3.378-3.456 9.504zM12.472 2h7.056l5.178 2.589-8.706 2.374-8.706-2.374 5.178-2.589zM5.191 6.089l9.809 2.675v6.617l-6.757 3.378-5.974-6.826 2.922-5.844zM2 19.528v-4.867l5.124 5.856 3.026 8.322-4.66-2.33-3.491-6.981zM26.509 26.509l-4.66 2.33 3.026-8.322 5.124-5.856v4.867l-3.491 6.981z"></path>
</svg>
