<!-- Generated by IcoMoon.io -->
<svg version="1.1" xmlns="http://www.w3.org/2000/svg" width="32" height="32" viewBox="0 0 32 32">
<title>dice-d10</title>
<path d="M31.492 16.331l-14.005-15.666c-0.397-0.443-0.942-0.665-1.488-0.665s-1.091 0.222-1.488 0.665l-14.005 15.666c-0.738 0.826-0.662 2.094 0.168 2.826l14.005 12.345c0.377 0.332 0.848 0.498 1.319 0.498s0.942-0.166 1.319-0.498l14.005-12.346c0.831-0.732 0.906-2.001 0.168-2.826zM16 18.622l-4.741-3.161 4.741-11.063 4.741 11.063-4.741 3.161zM9.295 14.982l-6.314 1.579 10.83-12.116-4.516 10.537zM22.705 14.982l-4.516-10.537 10.842 12.118-6.326-1.581zM1.994 17.664l0.001 0.003-0.002-0.001 0.001-0.001zM3.059 18.603l6.771-1.693 5.173 3.449v8.764l-11.944-10.52zM16.997 29.119v-8.759l5.172-3.449 6.762 1.691-11.935 10.517z"></path>
</svg>
