<!-- Generated by IcoMoon.io -->
<svg version="1.1" xmlns="http://www.w3.org/2000/svg" width="40" height="32" viewBox="0 0 40 32">
<title>dice-solid</title>
<path d="M37 12h-7.421c0.793 1.849 0.445 4.075-1.063 5.582l-8.516 8.516v2.901c0 1.657 1.343 3 3 3h14c1.657 0 3-1.343 3-3v-14c0-1.657-1.343-3-3-3zM30 23.5c-0.828 0-1.5-0.672-1.5-1.5s0.672-1.5 1.5-1.5 1.5 0.671 1.5 1.5c0 0.828-0.672 1.5-1.5 1.5zM27.102 11.831l-10.933-10.933c-1.197-1.198-3.139-1.198-4.337 0l-10.934 10.933c-1.198 1.197-1.198 3.139 0 4.337l10.933 10.934c1.197 1.198 3.139 1.198 4.337 0l10.934-10.933c1.198-1.198 1.198-3.14 0-4.338zM6 15.5c-0.828 0-1.5-0.672-1.5-1.5s0.672-1.5 1.5-1.5 1.5 0.671 1.5 1.5c0 0.828-0.672 1.5-1.5 1.5zM14 23.5c-0.828 0-1.5-0.672-1.5-1.5s0.672-1.5 1.5-1.5 1.5 0.671 1.5 1.5c0 0.828-0.672 1.5-1.5 1.5zM14 15.5c-0.828 0-1.5-0.672-1.5-1.5s0.672-1.5 1.5-1.5 1.5 0.671 1.5 1.5c0 0.828-0.672 1.5-1.5 1.5zM14 7.5c-0.828 0-1.5-0.672-1.5-1.5s0.672-1.5 1.5-1.5 1.5 0.671 1.5 1.5c0 0.828-0.672 1.5-1.5 1.5zM22 15.5c-0.828 0-1.5-0.672-1.5-1.5s0.672-1.5 1.5-1.5 1.5 0.671 1.5 1.5c0 0.828-0.672 1.5-1.5 1.5z"></path>
</svg>
