<!-- Generated by IcoMoon.io -->
<svg version="1.1" xmlns="http://www.w3.org/2000/svg" width="28" height="32" viewBox="0 0 28 32">
<title>dice-d6</title>
<path d="M26.992 7.258l-12-6.989c-0.284-0.169-0.627-0.269-0.992-0.269s-0.708 0.1-1.002 0.274l0.009-0.005-12 6.99c-0.623 0.362-1.008 1.038-1.008 1.77v13.943c0 0.732 0.384 1.407 1.008 1.77l12 6.989c0.284 0.169 0.627 0.269 0.992 0.269s0.708-0.1 1.002-0.274l-0.009 0.005 12-6.989c0.623-0.363 1.008-1.039 1.008-1.77v-13.943c0-0.732-0.384-1.407-1.008-1.771zM14 2.005l10.984 6.429-10.984 6.409-11.011-6.424 11.011-6.414zM2.013 10.166l10.987 6.408v12.836l-11-6.438 0.013-12.806zM15 29.427v-12.854l10.999-6.415-0.013 12.854-10.986 6.414z"></path>
</svg>
