<!-- Generated by IcoMoon.io -->
<svg version="1.1" xmlns="http://www.w3.org/2000/svg" width="32" height="32" viewBox="0 0 32 32">
<title>dice-d4</title>
<path d="M31.556 18.064l-14.004-17.323c-0.399-0.494-0.976-0.741-1.553-0.741s-1.153 0.247-1.553 0.741l-14.003 17.323c-0.707 0.875-0.552 2.161 0.342 2.843l14.003 10.684c0.357 0.273 0.784 0.409 1.211 0.409s0.854-0.136 1.211-0.409l14.003-10.684c0.894-0.683 1.049-1.969 0.342-2.843zM1.999 19.321l13.001-16.087v26.003l-13.001-9.916zM16.001 30h0.002l-0.001 0.001-0.001-0.001zM17 29.239v-26l13.001 16.079-13.001 9.921z"></path>
</svg>
