<!-- Generated by IcoMoon.io -->
<svg version="1.1" xmlns="http://www.w3.org/2000/svg" width="28" height="32" viewBox="0 0 28 32">
<title>dice-d6-solid</title>
<path d="M26.387 6.872l-10.374-6.305c-1.244-0.756-2.783-0.756-4.027 0l-10.373 6.305c-0.333 0.202-0.331 0.704 0.004 0.904l12.383 7.384 12.384-7.384c0.334-0.199 0.336-0.701 0.003-0.904zM27.252 9.661l-12.252 7.305v13.989c0 0.805 0.837 1.307 1.503 0.902l9.51-5.78c1.23-0.747 1.987-2.121 1.987-3.606v-12.356c0-0.401-0.415-0.652-0.748-0.453zM0 10.114v12.356c0 1.486 0.757 2.859 1.987 3.606l9.51 5.779c0.667 0.405 1.503-0.096 1.503-0.902v-13.988l-12.252-7.305c-0.333-0.199-0.748 0.053-0.748 0.453z"></path>
</svg>
