<!-- Generated by IcoMoon.io -->
<svg version="1.1" xmlns="http://www.w3.org/2000/svg" width="30" height="32" viewBox="0 0 30 32">
<title>dice-d20-solid</title>
<path d="M6.672 13.441l-6.597 9.743c-0.193 0.313 0.006 0.719 0.371 0.759l13.016 1.379-6.79-11.881zM0.463 19.714l4.706-7.647-4.79-2.874c-0.167-0.1-0.379 0.020-0.379 0.214v10.176c0 0.252 0.331 0.346 0.463 0.131zM1.141 26.475l12.15 5.479c0.331 0.153 0.709-0.089 0.709-0.454v-4.104l-12.722-1.394c-0.278-0.031-0.389 0.349-0.137 0.473zM6.217 10.364l4.996-8.934c0.271-0.441-0.224-0.953-0.674-0.696l-9.426 6.163c-0.154 0.101-0.149 0.329 0.008 0.424l5.096 3.043zM15 11h6.826l-5.974-10.524c-0.196-0.318-0.524-0.476-0.852-0.476s-0.656 0.159-0.852 0.476l-5.974 10.524h6.826zM29.621 9.194l-4.79 2.874 4.706 7.647c0.132 0.215 0.463 0.121 0.463-0.131v-10.176c0-0.194-0.212-0.314-0.379-0.214zM23.783 10.364l5.096-3.044c0.158-0.095 0.163-0.322 0.008-0.424l-9.426-6.162c-0.449-0.257-0.945 0.255-0.674 0.696l4.996 8.934zM28.722 26.002l-12.722 1.393v4.104c0 0.365 0.378 0.607 0.709 0.454l12.15-5.479c0.252-0.123 0.141-0.504-0.137-0.473zM23.328 13.441l-6.789 11.881 13.016-1.379c0.364-0.041 0.563-0.446 0.371-0.759l-6.598-9.743zM15 13h-6.277l6.277 10.984 6.277-10.984h-6.277z"></path>
</svg>
