<!-- Generated by IcoMoon.io -->
<svg version="1.1" xmlns="http://www.w3.org/2000/svg" width="32" height="32" viewBox="0 0 32 32">
<title>dice-d10-solid</title>
<path d="M0.693 15.956l8.149-1.703 4.236-13.281c0.184-0.575-0.525-0.995-0.903-0.534l-11.987 14.617c-0.328 0.399 0.013 1.004 0.505 0.901zM23.157 14.253l8.149 1.703c0.493 0.103 0.833-0.503 0.506-0.902l-11.988-14.617c-0.378-0.461-1.087-0.041-0.904 0.534l4.237 13.282zM16.502 0.378c-0.161-0.504-0.843-0.504-1.004 0l-4.588 14.382 5.089 3.544 5.089-3.545-4.587-14.381zM31.574 18.267l-9.004-1.882-5.512 3.841v11.221c0 0.474 0.534 0.729 0.876 0.417l13.883-12.637c0.332-0.301 0.187-0.869-0.243-0.959zM0.426 18.267c-0.431 0.090-0.575 0.657-0.244 0.959l13.884 12.637c0.342 0.311 0.876 0.058 0.876-0.417v-11.22l-5.512-3.841-9.004 1.882z"></path>
</svg>
