<!-- Generated by IcoMoon.io -->
<svg version="1.1" xmlns="http://www.w3.org/2000/svg" width="40" height="32" viewBox="0 0 40 32">
<title>dice</title>
<path d="M30 20.5c-0.828 0-1.5 0.671-1.5 1.5s0.672 1.5 1.5 1.5 1.5-0.672 1.5-1.5c0-0.829-0.672-1.5-1.5-1.5zM14 12.5c-0.828 0-1.5 0.671-1.5 1.5s0.672 1.5 1.5 1.5 1.5-0.672 1.5-1.5c0-0.829-0.672-1.5-1.5-1.5zM20 12.5c-0.828 0-1.5 0.671-1.5 1.5s0.672 1.5 1.5 1.5 1.5-0.672 1.5-1.5c0-0.829-0.672-1.5-1.5-1.5zM8 12.5c-0.828 0-1.5 0.671-1.5 1.5s0.672 1.5 1.5 1.5 1.5-0.672 1.5-1.5c0-0.829-0.672-1.5-1.5-1.5zM14 18.5c-0.828 0-1.5 0.671-1.5 1.5s0.672 1.5 1.5 1.5 1.5-0.672 1.5-1.5c0-0.829-0.672-1.5-1.5-1.5zM14 6.5c-0.828 0-1.5 0.671-1.5 1.5s0.672 1.5 1.5 1.5 1.5-0.672 1.5-1.5c0-0.829-0.672-1.5-1.5-1.5zM36 12h-8.539c-0.181-0.323-0.391-0.634-0.666-0.909l-9.887-9.886c-0.803-0.804-1.856-1.205-2.909-1.205s-2.106 0.401-2.909 1.205l-9.886 9.886c-1.606 1.606-1.606 4.211 0 5.818l9.886 9.886c0.803 0.803 1.856 1.205 2.909 1.205s2.106-0.402 2.909-1.205l3.091-3.091v4.296c0 2.209 1.791 4 4 4h12c2.209 0 4-1.791 4-4v-12c0-2.209-1.791-4-4-4zM15.454 25.341c-0.388 0.388-0.905 0.602-1.454 0.602s-1.066-0.214-1.454-0.602l-9.886-9.886c-0.388-0.389-0.603-0.905-0.603-1.454s0.214-1.066 0.603-1.454l9.886-9.886c0.388-0.388 0.905-0.603 1.454-0.603s1.066 0.214 1.454 0.603l9.886 9.886c0.389 0.388 0.602 0.905 0.602 1.454s-0.214 1.066-0.602 1.454l-9.886 9.886zM38 28c0 1.102-0.898 2-2 2h-12c-1.102 0-2-0.898-2-2v-6.296l4.795-4.795c0.803-0.803 1.205-1.856 1.205-2.909h8c1.102 0 2 0.897 2 2v12z"></path>
</svg>
