<!-- Generated by IcoMoon.io -->
<svg version="1.1" xmlns="http://www.w3.org/2000/svg" width="36" height="32" viewBox="0 0 36 32">
<title>digging-solid</title>
<path d="M17 6c1.657 0 3-1.343 3-3s-1.343-3-3-3c-1.657 0-3 1.343-3 3v0c0 1.657 1.343 3 3 3v0zM13.11 22.335q-2.419-1.611-4.972-3.006l-4.473-2.438-3.589 12.563c-0.049 0.165-0.077 0.354-0.077 0.55 0 1.105 0.896 2.001 2.001 2.001 0.909 0 1.677-0.606 1.92-1.437l0.004-0.014 2.288-8.010 3.788 2.526v4.931c0 1.105 0.895 2 2 2s2-0.895 2-2v0-6c0-0 0-0.001 0-0.001 0-0.691-0.35-1.3-0.883-1.659l-0.007-0.005zM19.442 26c-0 0-0 0-0 0-0.878 0-1.624 0.566-1.893 1.353l-0.004 0.014-1.544 4.633h20l-6.371-12.895c-0.706-1.412-2.692-1.488-3.504-0.134l-1.991 3.393-4.081-2.226-1.499-7.575c-0.509-2.518-2.127-4.577-4.311-5.679l-0.046-0.021c-0.063-0.031-0.132-0.041-0.194-0.071-0.13-0.069-0.28-0.126-0.438-0.164l-0.013-0.003c-0.959-0.381-1.973-0.625-3.004-0.625h-4.546c-0.599 0-1.136 0.263-1.502 0.68l-0.002 0.002-3.5 4c-0.050 0.058-0.097 0.123-0.14 0.191l-0.004 0.007c-0.552 0.881-0.188 2.054 0.726 2.553l21.038 11.519-0.616 1.048zM6.619 12.813l-1.468-0.803 1.758-2.009h2.146zM12.477 16.008l2.171-2.577 0.844 4.221z"></path>
</svg>
