<!-- Generated by IcoMoon.io -->
<svg version="1.1" xmlns="http://www.w3.org/2000/svg" width="36" height="32" viewBox="0 0 36 32">
<title>digging</title>
<path d="M13 29c0 0.552-0.448 1-1 1s-1-0.448-1-1v0-8.681l-2.984-1.563-4.078 10.602c-0.148 0.378-0.51 0.641-0.933 0.641-0.001 0-0.003 0-0.004 0h0c-0.129-0-0.253-0.025-0.366-0.069l0.007 0.002c-0.378-0.148-0.641-0.51-0.641-0.933 0-0.129 0.025-0.253 0.069-0.366l-0.002 0.007 4.162-10.821-1.784-0.934-4.245 11.037c-0.126 0.319-0.199 0.688-0.199 1.075 0 1.27 0.789 2.356 1.904 2.793l0.020 0.007c0.319 0.128 0.688 0.203 1.075 0.203h0c0 0 0.001 0 0.001 0 1.27 0 2.355-0.789 2.793-1.903l0.007-0.020 3.168-8.238 0.031 0.015v7.146c0 1.657 1.343 3 3 3s3-1.343 3-3v0-6.586l-2-1.047zM19.441 26c-0.878 0-1.624 0.566-1.893 1.353l-0.004 0.014-1.544 4.633h20l-6.371-12.895c-0.336-0.661-1.010-1.106-1.789-1.106-0.725 0-1.36 0.386-1.71 0.963l-0.005 0.009-2.25 3.837-0.921-0.475c0.018-0.121 0.028-0.26 0.028-0.402 0-0.341-0.059-0.668-0.166-0.972l0.006 0.020c-0.635-1.759-1.154-3.238-1.592-4.49-1.421-4.051-2.191-6.188-3.541-7.668 1.903-0.525 3.313-2.25 3.313-4.321 0-2.485-2.015-4.5-4.5-4.5s-4.5 2.015-4.5 4.5v0c0.004 0.576 0.116 1.124 0.317 1.627l-0.011-0.030c-0.377-0.059-0.815-0.094-1.26-0.097l-0.003-0h-4.546c-0 0-0 0-0 0-0.924 0-1.75 0.417-2.3 1.074l-0.004 0.005-2.5 3c-0.433 0.516-0.695 1.188-0.695 1.92 0 0.924 0.418 1.751 1.075 2.301l0.005 0.004c0.51 0.426 1.173 0.685 1.896 0.685 0.115 0 0.229-0.007 0.341-0.019l-0.014 0.001 18.555 9.563-0.859 1.466zM16.5 2c1.381 0 2.5 1.119 2.5 2.5s-1.119 2.5-2.5 2.5c-1.381 0-2.5-1.119-2.5-2.5v0c0-1.381 1.119-2.5 2.5-2.5v0zM12.824 17.111l1.666-1.648c0.285 0.767 0.631 1.739 1.077 3.011 0.007 0.019 0.015 0.043 0.022 0.063zM18.18 19.875c-0.264-0.744-0.511-1.445-0.726-2.063-1.049-2.991-1.62-4.582-2.178-5.552l-4.034 4.033-4.664-2.406 3.889-3.888h-3.497l-2.2 2.64c-0.185 0.224-0.462 0.366-0.773 0.366-0.552 0-1-0.448-1-1 0-0.247 0.090-0.474 0.238-0.648l-0.001 0.001 2.168-2.631c0.37-0.446 0.924-0.728 1.543-0.728 0 0 0 0 0 0h4.022c1.093 0 2.183 0.217 3.166 0.698 2.709 1.325 3.121 2.496 5.207 8.453 0.401 1.142 0.879 2.504 1.441 4.063zM23.146 28l0.579-0.988 4.107-7.012h0.008l4.942 10h-14.006l0.666-2h3.704z"></path>
</svg>
