<!-- Generated by IcoMoon.io -->
<svg version="1.1" xmlns="http://www.w3.org/2000/svg" width="40" height="32" viewBox="0 0 40 32">
<title>digital-tachograph</title>
<path d="M38 6h-36c-1.104 0-2 0.896-2 2v16c0 1.104 0.896 2 2 2h36c1.104 0 2-0.896 2-2v-16c0-1.104-0.896-2-2-2zM38 24h-36v-16h36v16zM5 17h13c0.552 0 1-0.448 1-1v-5c0-0.553-0.448-1-1-1h-13c-0.553 0-1 0.447-1 1v5c0 0.552 0.447 1 1 1zM5.5 11.5h12v4h-12v-4zM4.5 22.5h14c0.276 0 0.5-0.224 0.5-0.5v-0.5c0-0.276-0.224-0.5-0.5-0.5h-14c-0.276 0-0.5 0.224-0.5 0.5v0.5c0 0.276 0.224 0.5 0.5 0.5zM21.5 22.5h14c0.276 0 0.5-0.224 0.5-0.5v-0.5c0-0.276-0.224-0.5-0.5-0.5h-14c-0.276 0-0.5 0.224-0.5 0.5v0.5c0 0.276 0.224 0.5 0.5 0.5zM5 18c-0.276 0-0.5 0.224-0.5 0.5v1c0 0.276 0.224 0.5 0.5 0.5h1c0.276 0 0.5-0.224 0.5-0.5v-1c0-0.276-0.224-0.5-0.5-0.5h-1zM9 18c-0.276 0-0.5 0.224-0.5 0.5v1c0 0.276 0.224 0.5 0.5 0.5h1c0.276 0 0.5-0.224 0.5-0.5v-1c0-0.276-0.224-0.5-0.5-0.5h-1zM13 18c-0.276 0-0.5 0.224-0.5 0.5v1c0 0.276 0.224 0.5 0.5 0.5h1c0.276 0 0.5-0.224 0.5-0.5v-1c0-0.276-0.224-0.5-0.5-0.5h-1zM17 18c-0.276 0-0.5 0.224-0.5 0.5v1c0 0.276 0.224 0.5 0.5 0.5h1c0.276 0 0.5-0.224 0.5-0.5v-1c0-0.276-0.224-0.5-0.5-0.5h-1z"></path>
</svg>
