<!-- Generated by IcoMoon.io -->
<svg version="1.1" xmlns="http://www.w3.org/2000/svg" width="40" height="32" viewBox="0 0 40 32">
<title>diploma</title>
<path d="M38.040 2.973c-0.351-0.597-1.066-0.973-1.836-0.973-0.158 0-0.319 0.016-0.479 0.049l-7.935 2.674c-2.324 0.81-5.002 1.277-7.79 1.277-0 0-0 0-0.001 0h0c-2.649 0-5.28-0.431-7.791-1.277l-7.935-2.674c-0.16-0.033-0.321-0.049-0.478-0.049-0.769 0-1.484 0.376-1.836 0.973-2.613 4.434-2.613 13.622 0 18.056 0.352 0.596 1.066 0.972 1.836 0.972 0.158 0 0.318-0.016 0.478-0.049l7.935-2.674c0.268-0.091 0.546-0.144 0.818-0.223l-3.514 5.924c-0.176 0.292-0.28 0.644-0.28 1.021 0 0.364 0.097 0.705 0.267 0.999l-0.005-0.010c0.351 0.608 0.998 1.010 1.738 1.010 0 0 0 0 0 0h1.262l0.976 1.238c0.37 0.466 0.935 0.762 1.571 0.762h0c0.723 0 1.389-0.39 1.744-1.020l3.217-5.723 3.221 5.719c0.35 0.613 0.999 1.019 1.743 1.019 0.636 0 1.202-0.296 1.568-0.759l0.003-0.004 0.97-1.232 1.272-0.001c1.104-0 1.999-0.896 1.999-2 0-0.377-0.104-0.73-0.286-1.031l0.005 0.009-3.519-5.921c0.27 0.078 0.546 0.131 0.813 0.221l7.935 2.674c0.16 0.033 0.321 0.049 0.479 0.049 0.769 0 1.484-0.376 1.836-0.972 2.612-4.434 2.612-13.622-0.001-18.056zM11.571 17.382l-7.774 2.618c-0.050 0-0.091-0.010-0.109-0.010-0.010 0-0.014 0.003-0.010 0.012-2.245-3.824-2.243-12.199-0.033-15.964 0.009-0.008 0.054-0.032 0.176-0.032l7.751 2.612c1.124 0.379 2.271 0.661 3.429 0.884v8.226l-0.522 0.879c-0.98 0.209-1.953 0.452-2.908 0.774zM26.535 26l-1.57 1.994-4.965-8.817-4.959 8.822-1.576-2h-2.232l5.768-9.723v-8.469c0.994 0.114 1.994 0.192 3 0.192s2.006-0.078 3-0.192v8.469l5.777 9.722-2.242 0.001zM36.356 19.962c-0.009 0.007-0.054 0.031-0.177 0.031l-7.75-2.612c-0.954-0.321-1.927-0.565-2.906-0.774l-0.523-0.879v-8.225c1.157-0.224 2.305-0.506 3.429-0.884l7.775-2.619c0.050 0 0.091 0.010 0.109 0.010 0.010 0 0.014-0.003 0.010-0.013 2.244 3.824 2.242 12.199 0.032 15.964z"></path>
</svg>
