<!-- Generated by IcoMoon.io -->
<svg version="1.1" xmlns="http://www.w3.org/2000/svg" width="40" height="32" viewBox="0 0 40 32">
<title>diploma-solid</title>
<path d="M24 16.792v-8.792h-8v8.792l-5.947 10.25c-0.191 0.468 0.166 0.977 0.671 0.957l2.29 0.001 1.576 1.782c0.348 0.367 0.958 0.253 1.149-0.216l4.262-7.567 4.262 7.567c0.191 0.468 0.802 0.582 1.149 0.216l1.575-1.782 2.29-0.001c0.505 0.019 0.861-0.489 0.671-0.957l-5.947-10.25zM14 16.254v-9.008c-0.602-0.153-1.201-0.324-1.791-0.523l-7.935-2.674c-0.939-0.194-1.891 0.204-2.314 0.923-2.613 4.434-2.613 13.622 0 18.056 0.424 0.719 1.376 1.117 2.314 0.923l6.538-2.203 3.188-5.494zM38.040 4.973c-0.424-0.719-1.376-1.117-2.314-0.923l-7.935 2.674c-0.59 0.199-1.188 0.371-1.791 0.523v9.008l3.188 5.495 6.537 2.203c0.939 0.194 1.891-0.204 2.314-0.923 2.613-4.434 2.613-13.622 0-18.056z"></path>
</svg>
