<!-- Generated by IcoMoon.io -->
<svg version="1.1" xmlns="http://www.w3.org/2000/svg" width="32" height="32" viewBox="0 0 32 32">
<title>directions-solid</title>
<path d="M31.413 14.582l-13.996-13.996c-0.782-0.782-2.052-0.782-2.835 0l-13.996 13.996c-0.782 0.783-0.782 2.052 0 2.835l13.996 13.996c0.783 0.783 2.052 0.783 2.835 0l13.996-13.996c0.782-0.783 0.782-2.052 0-2.835zM25.102 15.367l-5.263 4.858c-0.32 0.296-0.839 0.069-0.839-0.367v-3.358h-6v4c0 0.276-0.224 0.5-0.5 0.5h-2c-0.276 0-0.5-0.224-0.5-0.5v-5c0-1.104 0.896-2 2-2h7v-3.358c0-0.436 0.519-0.663 0.839-0.367l5.263 4.858c0.214 0.198 0.214 0.537 0 0.735z"></path>
</svg>
