<!-- Generated by IcoMoon.io -->
<svg version="1.1" xmlns="http://www.w3.org/2000/svg" width="32" height="32" viewBox="0 0 32 32">
<title>directions</title>
<path d="M31.413 14.582l-13.996-13.996c-0.391-0.391-0.904-0.587-1.418-0.587s-1.026 0.196-1.418 0.587l-13.996 13.996c-0.782 0.783-0.782 2.052 0 2.835l13.996 13.996c0.391 0.391 0.904 0.587 1.418 0.587s1.026-0.196 1.418-0.587l13.996-13.996c0.782-0.783 0.782-2.052 0-2.835zM15.997 29.999l-13.996-14.002 13.996-13.996c0.001 0 0.001-0.001 0.003-0.001l0.003 0.001 13.996 14.002-14.002 13.996zM20.681 14h-7.681c-1.657 0-3 1.343-3 3v2.5c0 0.276 0.224 0.5 0.5 0.5h1c0.276 0 0.5-0.224 0.5-0.5v-2.5c0-0.552 0.447-1 1-1h7.681l-3.414 3.152c-0.203 0.188-0.216 0.504-0.028 0.706l0.677 0.734c0.188 0.203 0.504 0.216 0.706 0.028l4.9-4.523c0.304-0.283 0.479-0.684 0.479-1.099s-0.174-0.816-0.483-1.101l-4.896-4.519c-0.203-0.188-0.519-0.174-0.706 0.028l-0.677 0.734c-0.188 0.203-0.174 0.519 0.028 0.706l3.414 3.154z"></path>
</svg>
