<!-- Generated by IcoMoon.io -->
<svg version="1.1" xmlns="http://www.w3.org/2000/svg" width="32" height="32" viewBox="0 0 32 32">
<title>disc-drive</title>
<path d="M16 14c-1.105 0-2 0.895-2 2s0.895 2 2 2c1.105 0 2-0.895 2-2v0c0-1.105-0.895-2-2-2v0zM31.5 28h-1.5v-22c0-2.209-1.791-4-4-4v0h-20c-2.209 0-4 1.791-4 4v0 22h-1.5c-0.276 0-0.5 0.224-0.5 0.5v0 1c0 0.276 0.224 0.5 0.5 0.5v0h31c0.276 0 0.5-0.224 0.5-0.5v0-1c0-0.276-0.224-0.5-0.5-0.5v0zM28 28h-24v-22c0-1.105 0.895-2 2-2v0h20c1.105 0 2 0.895 2 2v0zM16 6c-5.523 0-10 4.477-10 10s4.477 10 10 10c5.523 0 10-4.477 10-10v0c0-5.523-4.477-10-10-10v0zM16 24c-4.418 0-8-3.582-8-8s3.582-8 8-8c4.418 0 8 3.582 8 8v0c-0.005 4.416-3.584 7.995-8 8h-0z"></path>
</svg>
