<!-- Generated by IcoMoon.io -->
<svg version="1.1" xmlns="http://www.w3.org/2000/svg" width="32" height="32" viewBox="0 0 32 32">
<title>disc-drive-solid</title>
<path d="M31 26h-1v-20c0-2.209-1.791-4-4-4v0h-20c-2.209 0-4 1.791-4 4v0 20h-1c-0.552 0-1 0.448-1 1v0 2c0 0.552 0.448 1 1 1v0h30c0.552 0 1-0.448 1-1v0-2c0-0.552-0.448-1-1-1v0zM16 26c-5.523 0-10-4.477-10-10s4.477-10 10-10c5.523 0 10 4.477 10 10v0c0 5.523-4.477 10-10 10v0zM16 14c-1.105 0-2 0.895-2 2s0.895 2 2 2c1.105 0 2-0.895 2-2v0c0-1.105-0.895-2-2-2v0z"></path>
</svg>
