<!-- Generated by IcoMoon.io -->
<svg version="1.1" xmlns="http://www.w3.org/2000/svg" width="32" height="32" viewBox="0 0 32 32">
<title>disease</title>
<path d="M28.995 11.566l-3.933-1.332c-0.813-0.276-1.406-0.849-1.587-1.533l-0.938-3.51c-0.392-1.461-1.598-2.588-3.225-3.015-1.794-0.469-3.677 0.011-4.899 1.261l-2.703 2.768c-0.574 0.586-1.469 0.9-2.383 0.822l-4.211-0.326c-1.957-0.151-3.777 0.757-4.636 2.313-0.73 1.324-0.621 2.852 0.297 4.088l2.257 3.043c0.426 0.574 0.493 1.256 0.182 1.87l-1.666 3.308c-0.667 1.326-0.516 2.829 0.406 4.021 1.116 1.441 3.074 2.103 5.004 1.688l4.102-0.884c0.909-0.196 1.848-0.005 2.536 0.504l3.181 2.369c0.829 0.612 1.87 0.979 2.997 0.979 0.009 0 0.019-0 0.028-0h-0.001c0.002 0 0.004 0 0.006 0 0.784 0 1.528-0.172 2.196-0.481l-0.032 0.013c1.465-0.666 2.406-1.938 2.517-3.397l0.277-3.591c0.051-0.679 0.517-1.308 1.25-1.679l3.633-1.842c1.554-0.789 2.451-2.264 2.339-3.849-0.116-1.639-1.266-3.021-2.996-3.609zM28.745 17.241l-3.633 1.842c-1.359 0.691-2.234 1.928-2.337 3.313l-0.274 3.588c-0.078 1.041-0.971 1.556-1.351 1.729-1.045 0.477-2.291 0.364-3.174-0.294l-3.184-2.371c-0.854-0.634-1.938-0.974-3.035-0.974-0.002 0-0.004 0-0.006 0-0.393 0-0.776 0.043-1.144 0.125l0.035-0.007-4.1 0.887c-1.438 0.313-2.509-0.324-3-0.96-0.261-0.337-0.634-1.034-0.201-1.896l1.66-3.306c0.654-1.295 0.519-2.775-0.361-3.963l-2.256-3.043c-0.607-0.818-0.356-1.558-0.152-1.927 0.484-0.875 1.584-1.369 2.73-1.287l4.211 0.326c1.519 0.117 2.986-0.413 3.969-1.419l2.703-2.766c0.711-0.728 1.879-1.012 2.97-0.725 0.922 0.241 1.596 0.838 1.797 1.596l0.938 3.509c0.358 1.333 1.434 2.421 2.881 2.912l3.928 1.332c0.971 0.329 1.586 1.022 1.644 1.856 0.052 0.779-0.417 1.499-1.254 1.924zM10 12c-1.105 0-2 0.895-2 2s0.895 2 2 2c1.105 0 2-0.895 2-2v0c0-1.105-0.895-2-2-2v0zM18 18c-1.105 0-2 0.895-2 2s0.895 2 2 2c1.105 0 2-0.895 2-2v0c0-1.105-0.895-2-2-2v0zM19 12c-0.552 0-1 0.448-1 1s0.448 1 1 1c0.552 0 1-0.448 1-1v0c0-0.552-0.448-1-1-1v0z"></path>
</svg>
