<!-- Generated by IcoMoon.io -->
<svg version="1.1" xmlns="http://www.w3.org/2000/svg" width="32" height="32" viewBox="0 0 32 32">
<title>disease-solid</title>
<path d="M29.518 12.244l-4.191-1.438c-1.205-0.412-2.096-1.307-2.384-2.394l-1-3.778c-0.724-2.736-4.786-3.571-6.875-1.414l-2.881 2.982c-0.829 0.857-2.096 1.308-3.388 1.207l-4.494-0.351c-3.25-0.254-5.433 2.806-3.688 5.177l2.409 3.276c0.692 0.942 0.801 2.116 0.29 3.14l-1.777 3.563c-1.291 2.578 1.426 5.304 4.591 4.613l4.375-0.955c1.257-0.274 2.591 0 3.567 0.733l3.395 2.552c2.457 1.848 6.313 0.473 6.528-2.326l0.294-3.866c0.084-1.113 0.8-2.117 1.914-2.688l3.875-1.984c2.803-1.435 2.472-5.011-0.562-6.049zM10 16c-1.105 0-2-0.895-2-2s0.895-2 2-2c1.105 0 2 0.895 2 2v0c0 1.105-0.895 2-2 2v0zM18 22c-1.105 0-2-0.895-2-2s0.895-2 2-2c1.105 0 2 0.895 2 2v0c0 1.105-0.895 2-2 2v0zM19 14c-0.552 0-1-0.448-1-1s0.448-1 1-1c0.552 0 1 0.448 1 1v0c0 0.552-0.448 1-1 1v0z"></path>
</svg>
