<!-- Generated by IcoMoon.io -->
<svg version="1.1" xmlns="http://www.w3.org/2000/svg" width="31" height="32" viewBox="0 0 31 32">
<title>dizzy-solid</title>
<path d="M15.5 0.5c-8.563 0-15.5 6.938-15.5 15.5s6.938 15.5 15.5 15.5 15.5-6.938 15.5-15.5-6.938-15.5-15.5-15.5zM9.5 13.412l-1.794 1.794c-0.925 0.925-2.362-0.469-1.413-1.412l1.794-1.794-1.794-1.794c-0.938-0.938 0.481-2.35 1.413-1.412l1.794 1.794 1.794-1.794c0.938-0.938 2.35 0.481 1.412 1.412l-1.794 1.794 1.794 1.794c0.95 0.95-0.494 2.337-1.412 1.412l-1.794-1.794zM15.5 26c-2.206 0-4-1.794-4-4s1.794-4 4-4 4 1.794 4 4-1.794 4-4 4zM24.706 13.794c0.95 0.95-0.494 2.337-1.413 1.412l-1.794-1.794-1.794 1.794c-0.925 0.925-2.363-0.469-1.413-1.412l1.794-1.794-1.794-1.794c-0.938-0.938 0.481-2.35 1.413-1.412l1.794 1.794 1.794-1.794c0.938-0.938 2.35 0.481 1.413 1.412l-1.794 1.794 1.794 1.794z"></path>
</svg>
