<!-- Generated by IcoMoon.io -->
<svg version="1.1" xmlns="http://www.w3.org/2000/svg" width="31" height="32" viewBox="0 0 31 32">
<title>dizzy</title>
<path d="M15.5 0.5c-8.563 0-15.5 6.938-15.5 15.5s6.938 15.5 15.5 15.5 15.5-6.938 15.5-15.5-6.938-15.5-15.5-15.5zM15.5 29.5c-7.444 0-13.5-6.056-13.5-13.5s6.056-13.5 13.5-13.5 13.5 6.056 13.5 13.5-6.056 13.5-13.5 13.5zM15.5 18c-2.206 0-4 1.794-4 4s1.794 4 4 4 4-1.794 4-4-1.794-4-4-4zM15.5 24c-1.1 0-2-0.9-2-2s0.9-2 2-2 2 0.9 2 2-0.9 2-2 2zM13.706 15.206c0.387-0.387 0.387-1.025 0-1.412l-1.794-1.794 1.794-1.794c0.387-0.387 0.387-1.025 0-1.412s-1.025-0.387-1.412 0l-1.794 1.794-1.794-1.794c-0.387-0.387-1.025-0.387-1.412 0s-0.388 1.025 0 1.412l1.794 1.794-1.794 1.794c-0.388 0.387-0.388 1.025 0 1.412s1.025 0.394 1.413 0l1.794-1.794 1.794 1.794c0.387 0.394 1.025 0.394 1.412 0zM23.706 8.794c-0.387-0.387-1.025-0.387-1.413 0l-1.794 1.794-1.794-1.794c-0.387-0.387-1.025-0.387-1.413 0s-0.387 1.025 0 1.412l1.794 1.794-1.794 1.794c-0.387 0.387-0.387 1.025 0 1.412s1.025 0.394 1.413 0l1.794-1.794 1.794 1.794c0.387 0.387 1.025 0.394 1.413 0 0.387-0.387 0.387-1.025 0-1.412l-1.794-1.794 1.794-1.794c0.394-0.387 0.394-1.025 0-1.412z"></path>
</svg>
