<!-- Generated by IcoMoon.io -->
<svg version="1.1" xmlns="http://www.w3.org/2000/svg" width="28" height="32" viewBox="0 0 28 32">
<title>dna-solid</title>
<path d="M0.006 30.881c-0.069 0.594 0.394 1.113 0.994 1.113l2.019 0.006c0.506 0 0.931-0.369 1-0.869 0.044-0.306 0.112-0.694 0.213-1.131h19.519c0.1 0.431 0.181 0.825 0.219 1.131 0.069 0.5 0.494 0.875 1 0.869l2.019-0.006c0.6 0 1.069-0.519 0.994-1.113-0.288-2.369-1.6-8.063-7.431-12.981-1.1 0.775-2.319 1.512-3.656 2.212 0.387 0.288 0.712 0.587 1.063 0.887h-7.975c1.331-1.131 2.938-2.225 4.919-3.212 10.756-5.344 12.731-13.675 13.094-16.669 0.069-0.594-0.394-1.113-0.994-1.113l-2.025-0.006c-0.506 0-0.931 0.369-1 0.869-0.044 0.306-0.113 0.694-0.212 1.131h-19.525c-0.1-0.438-0.169-0.819-0.213-1.131-0.069-0.5-0.494-0.875-1-0.869l-2.019 0.006c-0.6 0-1.069 0.519-1 1.113 0.325 2.681 1.956 9.619 9.994 14.881-8.031 5.263-9.669 12.2-9.994 14.881zM14 13.725c-1.569-0.856-2.9-1.775-4.019-2.725h8.031c-1.113 0.95-2.444 1.875-4.012 2.725zM22.194 6c-0.363 0.65-0.8 1.319-1.313 2h-13.756c-0.519-0.681-0.956-1.35-1.313-2h16.381zM5.806 26c0.362-0.65 0.8-1.319 1.313-2h13.713c0.519 0.681 0.962 1.35 1.325 2h-16.35z"></path>
</svg>
