<!-- Generated by IcoMoon.io -->
<svg version="1.1" xmlns="http://www.w3.org/2000/svg" width="24" height="32" viewBox="0 0 24 32">
<title>dna</title>
<path d="M0 31.469c-0.019 0.288 0.206 0.531 0.5 0.531h1.006c0.262 0 0.481-0.194 0.5-0.456 0.025-0.35 0.087-0.881 0.219-1.544h19.538c0.137 0.669 0.206 1.206 0.231 1.55 0.025 0.256 0.238 0.45 0.5 0.45h1.006c0.294 0 0.519-0.244 0.5-0.531-0.144-1.969-1.156-8.875-8.262-14.244-0.581 0.394-1.2 0.775-1.85 1.144 1.625 1.15 2.912 2.387 3.95 3.637h-11.731c1.506-1.8 3.563-3.594 6.375-5.125 10.075-5.488 11.356-14.106 11.519-16.35 0.019-0.287-0.206-0.531-0.5-0.531h-1.006c-0.262 0-0.481 0.194-0.5 0.456-0.025 0.35-0.087 0.887-0.219 1.55h-19.538c-0.138-0.669-0.2-1.206-0.231-1.55-0.025-0.256-0.238-0.45-0.5-0.45l-1.006-0.006c-0.287 0-0.519 0.244-0.5 0.531 0.156 2.125 1.356 9.969 10.063 15.456-8.731 5.488-9.906 13.356-10.063 15.481zM21.25 4c-0.394 1.2-0.994 2.575-1.9 4h-14.662c-0.9-1.431-1.506-2.8-1.906-4h18.469zM12 14.838c-2.544-1.456-4.45-3.138-5.862-4.838h11.756c-1.419 1.694-3.338 3.369-5.894 4.838zM2.75 28c0.394-1.2 0.994-2.569 1.9-4h14.656c0.906 1.431 1.512 2.806 1.913 4h-18.469z"></path>
</svg>
