<!-- Generated by IcoMoon.io -->
<svg version="1.1" xmlns="http://www.w3.org/2000/svg" width="31" height="32" viewBox="0 0 31 32">
<title>do-not-enter</title>
<path d="M24.667 12h-18.334c-0.46 0-0.833 0.447-0.833 1v6c0 0.552 0.373 1 0.833 1h18.333c0.46 0 0.833-0.448 0.833-1v-6c0.001-0.553-0.372-1-0.832-1zM23.5 18h-16v-4h16v4zM15.5 0.5c-8.561 0-15.5 6.939-15.5 15.5s6.939 15.5 15.5 15.5 15.5-6.939 15.5-15.5-6.939-15.5-15.5-15.5zM15.5 29.5c-7.444 0-13.5-6.056-13.5-13.5s6.056-13.5 13.5-13.5 13.5 6.056 13.5 13.5-6.056 13.5-13.5 13.5z"></path>
</svg>
