<!-- Generated by IcoMoon.io -->
<svg version="1.1" xmlns="http://www.w3.org/2000/svg" width="36" height="32" viewBox="0 0 36 32">
<title>dog-leashed-solid</title>
<path d="M4.228 0.211l13.773 10.294v1.495h-3.029l-12.586-9.422c-0.236-0.185-0.386-0.469-0.386-0.789 0-0.232 0.079-0.446 0.212-0.616l-0.002 0.002 0.614-0.789c0.185-0.236 0.47-0.386 0.789-0.386 0.232 0 0.446 0.079 0.616 0.212l-0.002-0.002zM8 14h10v10h-6v7c0 0.552-0.448 1-1 1v0h-4c-0.552 0-1-0.448-1-1v0-13.369c-2.323-0.828-4-3.027-4-5.631 0-1.105 0.895-2 2-2s2 0.895 2 2v0c0 1.105 0.895 2 2 2v0zM34 7v2c0 2.209-1.791 4-4 4v0h-2v2.224l-8-2.857v-9.367c0-0.891 1.077-1.337 1.707-0.707l1.705 1.707h3.351c0.683 0 1.484 0.495 1.789 1.106l0.448 0.894h4c0.552 0 1 0.448 1 1v0zM20 14.49l8 2.857v13.653c0 0.552-0.448 1-1 1v0h-4c-0.552 0-1-0.448-1-1v0-7h-2zM27 7c0-0.552-0.448-1-1-1s-1 0.448-1 1c0 0.552 0.448 1 1 1v0c0.552 0 1-0.448 1-1v0z"></path>
</svg>
