<!-- Generated by IcoMoon.io -->
<svg version="1.1" xmlns="http://www.w3.org/2000/svg" width="36" height="32" viewBox="0 0 36 32">
<title>dog-solid</title>
<path d="M18.629 14l9.371 3.347v13.653c0 0.552-0.448 1-1 1v0h-4c-0.552 0-1-0.448-1-1v0-7h-10v7c0 0.552-0.448 1-1 1v0h-4c-0.552 0-1-0.448-1-1v0-13.369c-2.322-0.828-4-3.027-4-5.631 0-1.105 0.895-2 2-2s2 0.895 2 2v0c0.002 1.104 0.896 1.998 2 2h0zM34 7v2c0 2.209-1.791 4-4 4v0h-2v2.224l-8-2.857v-9.367c0-0.891 1.076-1.337 1.707-0.707l1.705 1.707h3.352c0.682 0 1.484 0.495 1.789 1.106l0.448 0.894h4c0.552 0 1 0.448 1 1v0zM27 7c0-0.552-0.448-1-1-1s-1 0.448-1 1c0 0.552 0.448 1 1 1v0c0.552 0 1-0.448 1-1v0z"></path>
</svg>
