<!-- Generated by IcoMoon.io -->
<svg version="1.1" xmlns="http://www.w3.org/2000/svg" width="36" height="32" viewBox="0 0 36 32">
<title>dog-leashed</title>
<path d="M34 7v4c0 2.209-1.791 4-4 4v0h-2v15c0 1.105-0.895 2-2 2v0h-4c-1.105 0-2-0.895-2-2v0-6h-6v6c0 1.105-0.895 2-2 2v0h-4c-1.105 0-2-0.895-2-2v0-10c0.006-1.114 0.318-2.155 0.856-3.043l-0.015 0.026c-2.688-0.088-4.834-2.284-4.841-4.983v-0.001c0-0.552 0.448-1 1-1s1 0.448 1 1v0c0.002 1.656 1.344 2.998 3 3h1.691c0.929-0.626 2.075-1 3.307-1 0.001 0 0.002 0 0.003 0h4.996l-14.816-12.347c-0.11-0.092-0.179-0.23-0.179-0.383 0-0.123 0.044-0.235 0.117-0.322l-0.001 0.001 0.639-0.769c0.092-0.11 0.23-0.179 0.383-0.179 0.123 0 0.235 0.044 0.322 0.117l15.538 12.944v-10.063c0 0 0-0 0-0 0-0.552 0.448-1 1-1 0.003 0 0.005 0 0.008 0h-0c0.274 0 0.522 0.113 0.7 0.295l1.705 1.705h4.351c0.683 0 1.484 0.496 1.789 1.106l0.448 0.894h4c0.552 0 1 0.448 1 1v0zM18 16h-6c-2.208 0.003-3.998 1.792-4 4v10h4v-8h6zM26 17.655l-6-1.5v5.845h2v8h4zM32 8h-4.236l-1-2h-5.18l-0.584-0.584v8.929l5 1.25v-2.595h4c1.105 0 2-0.895 2-2v0zM26 8c0 0.552-0.448 1-1 1s-1-0.448-1-1c0-0.552 0.448-1 1-1v0c0.552 0 1 0.448 1 1v0z"></path>
</svg>
