<!-- Generated by IcoMoon.io -->
<svg version="1.1" xmlns="http://www.w3.org/2000/svg" width="36" height="32" viewBox="0 0 36 32">
<title>dog</title>
<path d="M33 6h-4l-0.448-0.894c-0.302-0.611-1.107-1.106-1.789-1.106h-4.352l-1.705-1.705c-0.177-0.182-0.424-0.295-0.698-0.295-0 0-0.001 0-0.001 0h0c-0.002-0-0.005-0-0.008-0-0.552 0-1 0.448-1 1 0 0 0 0 0 0v0 11h-7c-0 0-0.001 0-0.001 0-1.233 0-2.378 0.373-3.329 1.014l0.021-0.014h-1.691c-1.656-0.002-2.998-1.344-3-3v-0c0-0.552-0.448-1-1-1s-1 0.448-1 1v0c0.006 2.7 2.154 4.897 4.834 4.983l0.008 0c-0.523 0.862-0.836 1.902-0.842 3.015v10.002c0 1.105 0.895 2 2 2v0h4c1.105 0 2-0.895 2-2v0-6h6v6c0 1.105 0.895 2 2 2v0h4c1.105 0 2-0.895 2-2v0-15h2c2.209 0 4-1.791 4-4v0-4c0-0.552-0.448-1-1-1v0zM26 30h-4v-8h-10v8h-4v-10c0.002-2.208 1.792-3.997 4-4h7.379l6.621 1.655zM32 11c0 1.105-0.895 2-2 2v0h-4v2.595l-5-1.25v-8.929l0.584 0.584h5.18l1 2h4.236zM26 8c0 0.552-0.448 1-1 1s-1-0.448-1-1c0-0.552 0.448-1 1-1v0c0.552 0 1 0.448 1 1v0z"></path>
</svg>
