<!-- Generated by IcoMoon.io -->
<svg version="1.1" xmlns="http://www.w3.org/2000/svg" width="36" height="32" viewBox="0 0 36 32">
<title>dolly-empty-solid</title>
<path d="M35.95 20.4l-0.638-1.9c-0.175-0.525-0.744-0.806-1.263-0.631l-13.344 4.45c-1.075-1.375-2.725-2.275-4.594-2.313l-6.213-18.637c-0.275-0.819-1.037-1.369-1.9-1.369h-7c-0.55 0-1 0.45-1 1v2c0 0.55 0.45 1 1 1h5.556l5.763 17.294c-1.631 1.275-2.606 3.35-2.25 5.656 0.381 2.462 2.369 4.519 4.831 4.95 3.762 0.669 7.019-2.175 7.087-5.788l13.325-4.45c0.525-0.175 0.813-0.738 0.638-1.262zM16 29c-1.656 0-3-1.344-3-3s1.344-3 3-3 3 1.344 3 3-1.344 3-3 3z"></path>
</svg>
