<!-- Generated by IcoMoon.io -->
<svg version="1.1" xmlns="http://www.w3.org/2000/svg" width="36" height="32" viewBox="0 0 36 32">
<title>dolly</title>
<path d="M35.975 19.363l-0.319-0.95c-0.087-0.262-0.369-0.406-0.631-0.319l-2.15 0.725-4.656-13.95c-0.169-0.506-0.525-0.919-1-1.156-0.481-0.237-1.019-0.275-1.525-0.106l-14.675 4.894-1.125-3.169c-0.713-2-2.6-3.331-4.719-3.331h-4.675c-0.275 0-0.5 0.225-0.5 0.5v1c0 0.275 0.225 0.5 0.5 0.5h4.675c1.269 0 2.4 0.8 2.825 1.994l6.044 16.994c-1.456 1.075-2.325 2.906-1.963 4.931 0.35 1.956 1.9 3.563 3.844 3.969 3.231 0.669 6.075-1.775 6.075-4.887 0-0.819-0.212-1.575-0.563-2.256l14.219-4.75c0.263-0.087 0.406-0.369 0.319-0.631zM11.688 10.381l6.65-2.219 1.563 4.681c0.087 0.262 0.369 0.406 0.631 0.319l0.95-0.319c0.262-0.088 0.406-0.369 0.319-0.631l-1.563-4.681 6.088-2.031 4.656 13.956-10.9 3.631c-0.856-0.669-1.913-1.087-3.081-1.087-0.394 0-0.769 0.056-1.131 0.144l-4.181-11.762zM17 30c-1.656 0-3-1.344-3-3s1.344-3 3-3 3 1.344 3 3-1.344 3-3 3z"></path>
</svg>
