<!-- Generated by IcoMoon.io -->
<svg version="1.1" xmlns="http://www.w3.org/2000/svg" width="18" height="32" viewBox="0 0 18 32">
<title>dollar-sign-solid</title>
<path d="M13.075 14.588l-6.75-1.975c-0.781-0.225-1.325-0.956-1.325-1.769 0-1.019 0.825-1.844 1.844-1.844h4.144c0.762 0 1.512 0.231 2.138 0.656 0.381 0.256 0.894 0.194 1.219-0.125l2.175-2.125c0.444-0.431 0.381-1.15-0.113-1.531-1.531-1.2-3.444-1.869-5.406-1.875v-3c0-0.55-0.45-1-1-1h-2c-0.55 0-1 0.45-1 1v3h-0.156c-3.981 0-7.181 3.419-6.813 7.475 0.263 2.881 2.462 5.225 5.237 6.037l6.406 1.875c0.781 0.231 1.325 0.956 1.325 1.769 0 1.019-0.825 1.844-1.844 1.844h-4.144c-0.763 0-1.513-0.231-2.138-0.656-0.381-0.256-0.894-0.194-1.219 0.125l-2.175 2.125c-0.444 0.431-0.381 1.15 0.113 1.531 1.531 1.2 3.444 1.869 5.406 1.875v3c0 0.55 0.45 1 1 1h2c0.55 0 1-0.45 1-1v-3.012c2.912-0.056 5.644-1.788 6.606-4.544 1.344-3.85-0.913-7.8-4.531-8.856z"></path>
</svg>
