<!-- Generated by IcoMoon.io -->
<svg version="1.1" xmlns="http://www.w3.org/2000/svg" width="40" height="32" viewBox="0 0 40 32">
<title>dolly-flatbed-solid</title>
<path d="M13 20h24c0.55 0 1-0.45 1-1v-16c0-0.55-0.45-1-1-1h-9v8l-3-2-3 2v-8h-9c-0.55 0-1 0.45-1 1v16c0 0.55 0.45 1 1 1zM39 24h-31v-23c0-0.55-0.45-1-1-1h-6c-0.55 0-1 0.45-1 1v2c0 0.55 0.45 1 1 1h3v23c0 0.55 0.45 1 1 1h5.181c-0.113 0.313-0.181 0.65-0.181 1 0 1.656 1.344 3 3 3s3-1.344 3-3c0-0.35-0.075-0.688-0.181-1h12.369c-0.113 0.313-0.181 0.65-0.181 1 0 1.656 1.344 3 3 3s3-1.344 3-3c0-0.35-0.075-0.688-0.181-1h5.175c0.55 0 1-0.45 1-1v-2c0-0.55-0.45-1-1-1z"></path>
</svg>
