<!-- Generated by IcoMoon.io -->
<svg version="1.1" xmlns="http://www.w3.org/2000/svg" width="40" height="32" viewBox="0 0 40 32">
<title>dolly-flatbed-empty</title>
<path d="M39.5 26h-31.5v-25.5c0-0.275-0.225-0.5-0.5-0.5h-7c-0.275 0-0.5 0.225-0.5 0.5v1c0 0.275 0.225 0.5 0.5 0.5h5.5v25.5c0 0.275 0.225 0.5 0.5 0.5h3.681c-0.113 0.313-0.181 0.65-0.181 1 0 1.656 1.344 3 3 3s3-1.344 3-3c0-0.35-0.075-0.688-0.181-1h12.369c-0.113 0.313-0.181 0.65-0.181 1 0 1.656 1.344 3 3 3s3-1.344 3-3c0-0.35-0.075-0.688-0.181-1h5.675c0.275 0 0.5-0.225 0.5-0.5v-1c0-0.275-0.225-0.5-0.5-0.5zM14 29c0 0.55-0.45 1-1 1s-1-0.45-1-1 0.45-1 1-1 1 0.45 1 1zM32 29c0 0.55-0.45 1-1 1s-1-0.45-1-1 0.45-1 1-1 1 0.45 1 1z"></path>
</svg>
