<!-- Generated by IcoMoon.io -->
<svg version="1.1" xmlns="http://www.w3.org/2000/svg" width="36" height="32" viewBox="0 0 36 32">
<title>dolly-empty</title>
<path d="M35.656 18.413c-0.087-0.262-0.369-0.406-0.631-0.319l-14.944 4.988c-0.856-0.663-1.913-1.081-3.081-1.081-0.394 0-0.769 0.056-1.131 0.144l-5.981-16.813c-0.706-2-2.594-3.331-4.713-3.331h-4.675c-0.275 0-0.5 0.225-0.5 0.5v1c0 0.275 0.225 0.5 0.5 0.5h4.675c1.269 0 2.4 0.8 2.825 1.994l6.044 16.994c-1.456 1.075-2.325 2.906-1.963 4.931 0.35 1.956 1.9 3.569 3.844 3.969 3.231 0.675 6.075-1.775 6.075-4.887 0-0.819-0.212-1.575-0.563-2.256l14.219-4.75c0.263-0.087 0.406-0.369 0.319-0.631l-0.319-0.95zM17 30c-1.656 0-3-1.344-3-3s1.344-3 3-3 3 1.344 3 3-1.344 3-3 3z"></path>
</svg>
