<!-- Generated by IcoMoon.io -->
<svg version="1.1" xmlns="http://www.w3.org/2000/svg" width="16" height="32" viewBox="0 0 16 32">
<title>dollar-sign</title>
<path d="M11.994 16.206l-7.388-2.319c-1.531-0.481-2.606-2.075-2.606-3.869 0-2.219 1.6-4.019 3.563-4.019h4.613c1.387 0 2.706 0.537 3.756 1.531 0.194 0.181 0.488 0.2 0.688 0.019l0.744-0.675c0.213-0.194 0.225-0.525 0.025-0.725-1.425-1.375-3.294-2.156-5.206-2.156h-1.181v-3.494c0-0.275-0.225-0.5-0.5-0.5h-1c-0.275 0-0.5 0.225-0.5 0.5v3.5h-1.438c-3.069 0-5.563 2.7-5.563 6.019 0 2.662 1.65 5.037 4.006 5.775l7.387 2.319c1.537 0.481 2.606 2.075 2.606 3.869 0 2.212-1.6 4.019-3.563 4.019h-4.612c-1.388 0-2.706-0.538-3.756-1.531-0.194-0.181-0.488-0.2-0.688-0.019l-0.738 0.675c-0.206 0.188-0.225 0.525-0.019 0.719 1.425 1.375 3.294 2.156 5.206 2.156h1.169v3.5c0 0.275 0.225 0.5 0.5 0.5h1c0.275 0 0.5-0.225 0.5-0.5v-3.5h1.438c3.069 0 5.563-2.7 5.563-6.019 0-2.656-1.65-5.031-4.006-5.775z"></path>
</svg>
