<!-- Generated by IcoMoon.io -->
<svg version="1.1" xmlns="http://www.w3.org/2000/svg" width="32" height="32" viewBox="0 0 32 32">
<title>donate-solid</title>
<path d="M16 26c7.181 0 13-5.819 13-13s-5.819-13-13-13-13 5.819-13 13 5.819 13 13 13zM14.613 6.088v-1.050c0-0.575 0.463-1.038 1.037-1.038h0.694c0.575 0 1.038 0.463 1.038 1.037v1.063c0.969 0.050 1.906 0.381 2.688 0.963 0.35 0.256 0.387 0.769 0.075 1.069l-1.019 0.969c-0.238 0.231-0.594 0.238-0.875 0.063-0.337-0.213-0.712-0.319-1.113-0.319h-2.431c-0.563 0-1.019 0.512-1.019 1.144 0 0.512 0.313 0.969 0.756 1.1l3.894 1.169c1.606 0.481 2.731 2.025 2.731 3.756 0 2.125-1.65 3.844-3.694 3.9v1.050c0 0.575-0.462 1.038-1.038 1.038h-0.694c-0.575 0-1.037-0.462-1.037-1.038v-1.063c-0.969-0.050-1.906-0.381-2.688-0.962-0.35-0.256-0.387-0.769-0.075-1.069l1.019-0.969c0.238-0.231 0.594-0.238 0.875-0.063 0.338 0.212 0.713 0.319 1.113 0.319h2.431c0.563 0 1.019-0.512 1.019-1.144 0-0.512-0.313-0.969-0.756-1.1l-3.894-1.169c-1.606-0.481-2.731-2.025-2.731-3.756 0.006-2.125 1.65-3.844 3.694-3.9zM30 22h-2.031c-1.225 1.625-2.788 2.981-4.563 4h3.988c0.331 0 0.6 0.225 0.6 0.5v1c0 0.275-0.269 0.5-0.6 0.5h-22.794c-0.331 0-0.6-0.225-0.6-0.5v-1c0-0.275 0.269-0.5 0.6-0.5h3.988c-1.775-1.019-3.331-2.375-4.563-4h-2.025c-1.106 0-2 0.894-2 2v6c0 1.106 0.894 2 2 2h28c1.106 0 2-0.894 2-2v-6c0-1.106-0.894-2-2-2z"></path>
</svg>
