<!-- Generated by IcoMoon.io -->
<svg version="1.1" xmlns="http://www.w3.org/2000/svg" width="32" height="32" viewBox="0 0 32 32">
<title>donate</title>
<path d="M14.044 13.481l3.525 1.006c0.55 0.156 0.931 0.662 0.931 1.231 0 0.706-0.575 1.281-1.281 1.281h-2.306c-0.512 0-1.006-0.163-1.412-0.456-0.188-0.137-0.45-0.094-0.613 0.075l-0.713 0.712c-0.219 0.219-0.181 0.575 0.063 0.762 0.769 0.587 1.7 0.906 2.681 0.906h0.088v1.5c0 0.275 0.225 0.5 0.5 0.5h1c0.275 0 0.5-0.225 0.5-0.5v-1.5h0.087c1.425 0 2.769-0.85 3.231-2.2 0.631-1.85-0.456-3.738-2.194-4.238l-3.694-1.056c-0.55-0.156-0.931-0.662-0.931-1.231 0-0.706 0.575-1.281 1.281-1.281h2.306c0.512 0 1.006 0.162 1.413 0.456 0.188 0.137 0.45 0.094 0.613-0.075l0.712-0.713c0.219-0.219 0.181-0.575-0.063-0.763-0.769-0.588-1.7-0.906-2.681-0.906h-0.087v-1.494c0-0.275-0.225-0.5-0.5-0.5h-1c-0.275 0-0.5 0.225-0.5 0.5v1.5h-0.219c-1.912 0-3.444 1.644-3.262 3.594 0.125 1.381 1.188 2.506 2.525 2.888zM30 18h-2c0.644-1.538 1-3.225 1-5 0-7.181-5.819-13-13-13s-13 5.819-13 13c0 1.775 0.356 3.462 1 5h-2c-1.106 0-2 0.9-2 2v10c0 1.1 0.894 2 2 2h28c1.106 0 2-0.9 2-2v-10c0-1.1-0.894-2-2-2zM16 2c6.063 0 11 4.938 11 11s-4.938 11-11 11-11-4.938-11-11 4.938-11 11-11zM30 30h-28v-10h3.056c1.037 1.613 2.412 2.981 4.037 4h-2.594c-0.275 0-0.5 0.225-0.5 0.5v1c0 0.275 0.225 0.5 0.5 0.5h19c0.275 0 0.5-0.225 0.5-0.5v-1c0-0.275-0.225-0.5-0.5-0.5h-2.594c1.625-1.019 3-2.387 4.038-4h3.056v10z"></path>
</svg>
