<!-- Generated by IcoMoon.io -->
<svg version="1.1" xmlns="http://www.w3.org/2000/svg" width="40" height="32" viewBox="0 0 40 32">
<title>door-open</title>
<path d="M18 18c0.828 0 1.5-0.896 1.5-2s-0.672-2-1.5-2-1.5 0.896-1.5 2 0.672 2 1.5 2zM39.5 30h-7.5v-24c0-1.104-0.896-2-2-2h-6v-1.926c0-1.173-0.925-2.074-1.996-2.074-0.161 0-0.324 0.020-0.489 0.063l-12 3.109c-0.89 0.231-1.514 1.059-1.514 2.011v24.817h-7.5c-0.276 0-0.5 0.224-0.5 0.5v1c0 0.276 0.224 0.5 0.5 0.5h39c0.276 0 0.5-0.224 0.5-0.5v-1c0-0.276-0.224-0.5-0.5-0.5zM22 2.074v27.926h-12l0.016-24.892 11.988-3.106-0.004 0.071zM30 30h-6v-24h6v24z"></path>
</svg>
