<!-- Generated by IcoMoon.io -->
<svg version="1.1" xmlns="http://www.w3.org/2000/svg" width="40" height="32" viewBox="0 0 40 32">
<title>door-open-solid</title>
<path d="M39 28h-5v-20.909c0-1.704-1.346-3.091-3-3.091h-7v4h6v24h9c0.553 0 1-0.448 1-1v-2c0-0.552-0.447-1-1-1zM19.515 0.063l-12 3.109c-0.891 0.231-1.515 1.059-1.515 2.011v22.817h-5c-0.552 0-1 0.448-1 1v2c0 0.552 0.448 1 1 1h21v-29.926c0-1.349-1.223-2.338-2.485-2.011zM16.5 18c-0.828 0-1.5-0.896-1.5-2s0.672-2 1.5-2 1.5 0.896 1.5 2-0.672 2-1.5 2z"></path>
</svg>
