<!-- Generated by IcoMoon.io -->
<svg version="1.1" xmlns="http://www.w3.org/2000/svg" width="32" height="32" viewBox="0 0 32 32">
<title>dove-solid</title>
<path d="M18 10.45v-1.756c-1.762-2.269-2.944-4.956-3.381-7.825-0.131-0.844-1.188-1.175-1.738-0.519-1.319 1.556-2.356 3.381-3.056 5.406 2.137 2.394 5 4.037 8.175 4.694zM25 4c-2.762 0-5 2.244-5 5.006v3.713c-6.525-0.387-12.063-4.406-14.563-10.106-0.344-0.781-1.45-0.825-1.813-0.056-1.038 2.194-1.625 4.644-1.625 7.231 0 4.425 2.131 8.556 5.319 11.619 0.825 0.794 1.631 1.45 2.431 2.050l-8.994 2.25c-0.669 0.169-0.969 0.944-0.594 1.525 1.087 1.681 3.775 4.531 9.575 4.769 0.5 0.019 1-0.163 1.381-0.494l4.075-3.506h4.806c5.525 0 10-4.469 10-9.994v-10.006l2-4h-7zM25 10.006c-0.55 0-1-0.45-1-1s0.45-1 1-1 1 0.45 1 1-0.45 1-1 1z"></path>
</svg>
