<!-- Generated by IcoMoon.io -->
<svg version="1.1" xmlns="http://www.w3.org/2000/svg" width="32" height="32" viewBox="0 0 32 32">
<title>dove</title>
<path d="M23 10.006c0 0.55 0.45 1 1 1s1-0.45 1-1-0.45-1-1-1-1 0.444-1 1zM24 4c-2.906 0-5.331 2.069-5.881 4.819-1.825-2.287-3.056-5.019-3.5-7.956-0.131-0.825-1.181-1.181-1.744-0.519-2.206 2.606-3.313 5.531-3.669 7.644-1.581-1.525-2.875-3.331-3.775-5.375-0.344-0.788-1.456-0.819-1.819-0.044-1 2.125-1.581 4.494-1.613 7-0.038 2.681 0.613 8.137 6.912 13.237l-8.050 2.012c-0.769 0.194-1.106 1.075-0.675 1.744 1.244 1.919 4.306 5.162 10.925 5.438 0.838 0.037 1.419-0.425 1.575-0.563l3.994-3.425h3.319c5.525 0 10-4.481 10-10.006v-8.006l2-6h-8zM13.119 3.394c0.881 3.144 2.575 6 4.881 8.313v0.794c-2.569-0.463-4.925-1.519-6.956-2.988 0.2-2.612 1.213-4.737 2.075-6.119zM28 9.669v8.344c0 4.412-3.587 8.006-8 8.006h-4.056s-4.7 3.988-4.75 3.988c-4.662-0.194-7.237-2.025-8.588-3.556l10.675-2.669c-2.975-2.419-9.381-6.506-9.281-14.188 0.019-1.419 0.231-2.806 0.644-4.15 5.131 8.694 14.106 9.3 15.356 9.444v-4.881c0-2.213 1.794-4.006 4-4.006h5.225l-1.225 3.669z"></path>
</svg>
