<!-- Generated by IcoMoon.io -->
<svg version="1.1" xmlns="http://www.w3.org/2000/svg" width="32" height="32" viewBox="0 0 32 32">
<title>download-solid</title>
<path d="M13.5 0h5c0.831 0 1.5 0.669 1.5 1.5v10.5h5.481c1.113 0 1.669 1.344 0.881 2.131l-9.506 9.512c-0.469 0.469-1.238 0.469-1.706 0l-9.519-9.512c-0.787-0.787-0.231-2.131 0.881-2.131h5.487v-10.5c0-0.831 0.669-1.5 1.5-1.5zM32 23.5v7c0 0.831-0.669 1.5-1.5 1.5h-29c-0.831 0-1.5-0.669-1.5-1.5v-7c0-0.831 0.669-1.5 1.5-1.5h9.169l3.063 3.063c1.256 1.256 3.281 1.256 4.537 0l3.063-3.063h9.169c0.831 0 1.5 0.669 1.5 1.5zM24.25 29c0-0.688-0.563-1.25-1.25-1.25s-1.25 0.563-1.25 1.25 0.563 1.25 1.25 1.25 1.25-0.563 1.25-1.25zM28.25 29c0-0.688-0.563-1.25-1.25-1.25s-1.25 0.563-1.25 1.25 0.563 1.25 1.25 1.25 1.25-0.563 1.25-1.25z"></path>
</svg>
