<!-- Generated by IcoMoon.io -->
<svg version="1.1" xmlns="http://www.w3.org/2000/svg" width="32" height="32" viewBox="0 0 32 32">
<title>download</title>
<path d="M28.25 27c0 0.688-0.563 1.25-1.25 1.25s-1.25-0.563-1.25-1.25 0.563-1.25 1.25-1.25 1.25 0.563 1.25 1.25zM23 25.75c-0.688 0-1.25 0.563-1.25 1.25s0.563 1.25 1.25 1.25 1.25-0.563 1.25-1.25-0.563-1.25-1.25-1.25zM32 22.75v6.5c0 1.519-1.231 2.75-2.75 2.75h-26.5c-1.519 0-2.75-1.231-2.75-2.75v-6.5c0-1.519 1.231-2.75 2.75-2.75h6.213l-3.525-3.525c-1.575-1.575-0.456-4.269 1.769-4.269h3.294v-9.706c0-1.381 1.119-2.5 2.5-2.5h6c1.381 0 2.5 1.119 2.5 2.5v9.706h3.294c2.225 0 3.337 2.694 1.769 4.269l-3.525 3.525h6.212c1.519 0 2.75 1.231 2.75 2.75zM15.644 23.856c0.194 0.194 0.512 0.194 0.706 0l8.794-8.794c0.313-0.313 0.094-0.856-0.356-0.856h-5.288v-11.706c0-0.275-0.225-0.5-0.5-0.5h-6c-0.275 0-0.5 0.225-0.5 0.5v11.706h-5.294c-0.444 0-0.669 0.537-0.356 0.856l8.794 8.794zM30 22.75c0-0.413-0.337-0.75-0.75-0.75h-8.212l-3.269 3.269c-0.975 0.975-2.563 0.975-3.537 0l-3.269-3.269h-8.213c-0.413 0-0.75 0.337-0.75 0.75v6.5c0 0.413 0.337 0.75 0.75 0.75h26.5c0.413 0 0.75-0.337 0.75-0.75v-6.5z"></path>
</svg>
