<!-- Generated by IcoMoon.io -->
<svg version="1.1" xmlns="http://www.w3.org/2000/svg" width="32" height="32" viewBox="0 0 32 32">
<title>drafting-compass-solid</title>
<path d="M28.563 21.526c-1.566 1.271-3.289 2.324-5.159 3.066l3.399 5.887 3.372 1.44c0.613 0.262 1.306-0.138 1.386-0.8l0.439-3.641-3.436-5.952zM31.219 15.616c0.304-0.479 0.118-1.124-0.378-1.399l-1.754-0.973c-0.468-0.259-1.038-0.091-1.329 0.357-2.569 3.971-6.992 6.399-11.758 6.399-1.496 0-2.952-0.266-4.338-0.721l4.21-7.293c0.044 0.001 0.084 0.013 0.127 0.013s0.084-0.012 0.127-0.013l3.193 5.531c1.952-0.56 3.723-1.609 5.163-3.058l-3.237-5.607c0.466-0.852 0.754-1.814 0.754-2.854 0-3.314-2.686-6-6-6s-6 2.686-6 6c0 1.039 0.288 2.002 0.753 2.854l-4.269 7.394c-0.784-0.726-1.497-1.537-2.105-2.438-0.299-0.444-0.873-0.601-1.336-0.333l-1.734 1.004c-0.491 0.284-0.664 0.931-0.353 1.404 0.973 1.477 2.168 2.763 3.499 3.876l-4.455 7.716 0.439 3.641c0.080 0.662 0.772 1.062 1.386 0.8l3.372-1.44 4.425-7.664c2.012 0.765 4.168 1.185 6.379 1.185 6.191 0 11.93-3.188 15.219-8.384zM16 4c1.104 0 2 0.896 2 2s-0.896 2-2 2-2-0.896-2-2 0.896-2 2-2z"></path>
</svg>
