<!-- Generated by IcoMoon.io -->
<svg version="1.1" xmlns="http://www.w3.org/2000/svg" width="32" height="32" viewBox="0 0 32 32">
<title>drafting-compass</title>
<path d="M27.116 19.019c1.342-1.136 2.537-2.459 3.484-3.988 0.149-0.239 0.063-0.559-0.181-0.701l-0.866-0.502c-0.233-0.135-0.526-0.056-0.668 0.173-0.768 1.234-1.718 2.318-2.782 3.263l-4.857-8.412c0.465-0.851 0.753-1.814 0.753-2.853 0-3.314-2.686-6-6-6s-6 2.686-6 6c0 1.039 0.288 2.002 0.753 2.854l-4.746 8.221c-0.988-0.902-1.888-1.911-2.611-3.071-0.143-0.229-0.435-0.309-0.668-0.173l-0.866 0.502c-0.244 0.141-0.329 0.461-0.181 0.701 0.902 1.456 2.047 2.701 3.312 3.798l-4.994 8.649 0.439 3.641c0.063 0.522 0.507 0.881 0.992 0.881 0.13 0 0.263-0.026 0.393-0.081l3.372-1.44 4.928-8.536c1.898 0.732 3.927 1.146 6.016 1.146 2.004 0 3.954-0.383 5.789-1.051l4.874 8.441 3.372 1.44c0.129 0.055 0.262 0.081 0.393 0.081 0.486 0 0.93-0.359 0.992-0.881l0.439-3.641-4.884-8.459zM24.507 18.499c-0.554 0.373-1.132 0.706-1.731 1.003l-4.579-7.931c0.632-0.249 1.199-0.611 1.705-1.047l4.604 7.976zM16 2c2.209 0 4 1.791 4 4s-1.791 4-4 4-4-1.791-4-4 1.791-4 4-4zM3.797 28.901l-1.533 0.654-0.199-1.654 10.032-17.378c0.506 0.436 1.073 0.798 1.705 1.047l-10.006 17.33zM16.141 21.088c-1.733 0-3.42-0.319-5.007-0.894l4.738-8.207c0.044 0.001 0.084 0.013 0.127 0.013s0.084-0.012 0.127-0.013l4.784 8.286c-1.521 0.514-3.122 0.815-4.77 0.815zM29.735 29.556l-1.532-0.654-4.426-7.666c0.596-0.301 1.171-0.637 1.729-1.006l4.429 7.672-0.199 1.654z"></path>
</svg>
