<!-- Generated by IcoMoon.io -->
<svg version="1.1" xmlns="http://www.w3.org/2000/svg" width="40" height="32" viewBox="0 0 40 32">
<title>dragon</title>
<path d="M30.063 7.497c0.933 0.054 1.709-0.618 1.93-1.536l-3.651-0.961c-0.406 1.695 0.969 2.454 1.721 2.497zM33.469 15.734c-1.865-1.061-3.476-1.977-3.476-3.211v-0.523h1.060l1.789 1.377c0.521 0.401 1.171 0.623 1.829 0.623h1.824c1.322 0 2.506-0.886 2.876-2.153l0.462-1.572c0.365-1.238 0.117-2.59-0.664-3.619l-3.558-4.681c-0.939-1.236-2.426-1.974-3.979-1.974h-13.061c-1.217 0-2.068 1.502-0.962 2.578l2.343 1.891-2.034 0.839c-1.012 0.496-1.196 2.051 0.071 2.665l3.007 1.203v3.181l-11.894-2.992c-1.199-0.304-2.48 0.177-3.187 1.192l-5.681 8.139c-0.314 0.494-0.313 1.108 0.002 1.599 0.106 0.164 0.596 0.819 1.562 0.682l7.189-1.363-0.754 1.081c-0.314 0.494-0.313 1.108 0.002 1.599 0.419 0.653 1.117 0.741 1.509 0.691l12.679-1.712c0.521 1.044 1.136 2.022 1.948 2.858-8.159 0.547-15.774 2.3-22.758 3.833-0.935 0.204-1.613 1.042-1.613 1.992 0 1.125 0.922 2.040 2.054 2.040l29.626 0.003c2.666 0 5.196-1.236 6.768-3.306 1.462-1.925 1.906-4.296 1.244-6.675-0.906-3.259-3.855-4.938-6.223-6.285zM2.607 18.789l4.948-7.088c0.234-0.337 0.662-0.491 1.062-0.398l5.254 1.314-3.248 4.652-8.018 1.52zM10.556 20.858l5.389-7.718 5.049 1.281c0 2.994 0.543 4.539 0.663 4.938l-11.101 1.499zM31.681 30h-29.681c14.408-3.548 22.039-3.898 25.029-4.001 0.971-0.033 1.326-1.302 0.514-1.834-3.060-2.014-4.547-5.058-4.547-9.302v-6.364c0-0.409-0.248-0.776-0.629-0.929l-2.384-0.952 2.294-0.943c0.326-0.135 0.559-0.432 0.609-0.781s-0.088-0.7-0.363-0.922l-2.451-1.972h11.562c0.931 0 1.824 0.442 2.386 1.184l3.557 4.682c0.399 0.524 0.525 1.212 0.34 1.842l-0.462 1.574c-0.125 0.422-0.519 0.717-0.959 0.717h-1.824c-0.222 0-0.431-0.071-0.609-0.208l-2.060-1.585c-0.167-0.129-0.379-0.207-0.609-0.207-0 0-0 0-0 0h-2.4c-0.552 0-1 0.447-1 1v1.524c0 2.396 2.179 3.637 4.487 4.949 2.261 1.287 4.599 2.618 5.286 5.083 1.21 4.366-2.571 7.444-6.086 7.444z"></path>
</svg>
