<!-- Generated by IcoMoon.io -->
<svg version="1.1" xmlns="http://www.w3.org/2000/svg" width="40" height="32" viewBox="0 0 40 32">
<title>dragon-solid</title>
<path d="M1.145 15.986l10.855-1.989-5.705 4.293c-0.63 0.63-0.184 1.707 0.707 1.707h13.919c-0.59-1.65-0.921-3.404-0.921-5.211v-2.642l-7.483-5.475c-1.489-0.992-3.456-0.876-4.816 0.287l-7.338 7.271c-0.774 0.646-0.216 1.901 0.782 1.759zM35.949 18.117l-6.291-3.144c-0.991-0.503-1.658-1.515-1.658-2.682v-2.293h4l1.756 1.414c0.375 0.375 0.884 0.586 1.414 0.586h1.936c0.779-0 1.453-0.445 1.783-1.094l0.005-0.011 0.894-1.789c0.133-0.261 0.211-0.568 0.211-0.894 0-0.452-0.15-0.87-0.404-1.205l0.004 0.005-4.658-6.211c-0.378-0.504-0.971-0.797-1.6-0.797h-14.841c-0.446 0-0.669 0.536-0.354 0.851l3.852 3.147-3.724 1.553c-0.369 0.184-0.369 0.71 0 0.894l3.724 1.553v6.789c0 4.505 2.252 8.712 6 11.211-12.224 0.426-21.535 2.563-27.131 3.807-0.507 0.113-0.869 0.563-0.869 1.083 0 0.613 0.497 1.113 1.11 1.113h31.192c3.956 0.001 7.476-2.973 7.687-6.922 0.157-2.955-1.421-5.65-4.040-6.96zM30.574 4.141l2.853 0.713c-0.172 0.682-0.779 1.181-1.508 1.141-0.81-0.044-1.616-0.783-1.345-1.854z"></path>
</svg>
