<!-- Generated by IcoMoon.io -->
<svg version="1.1" xmlns="http://www.w3.org/2000/svg" width="32" height="32" viewBox="0 0 32 32">
<title>draw-circle</title>
<path d="M32 16c0-2.094-1.615-3.793-3.664-3.966-1.28-3.969-4.401-7.089-8.369-8.369-0.173-2.049-1.872-3.664-3.966-3.664s-3.793 1.615-3.966 3.664c-3.969 1.28-7.089 4.401-8.369 8.369-2.049 0.173-3.664 1.872-3.664 3.966s1.615 3.793 3.664 3.966c1.28 3.969 4.401 7.089 8.369 8.369 0.173 2.049 1.872 3.664 3.966 3.664s3.793-1.615 3.966-3.664c3.969-1.28 7.089-4.401 8.369-8.369 2.049-0.173 3.664-1.872 3.664-3.966zM16 2c1.102 0 2 0.897 2 2s-0.898 2-2 2-2-0.897-2-2 0.898-2 2-2zM2 16c0-1.102 0.897-2 2-2s2 0.898 2 2-0.897 2-2 2-2-0.898-2-2zM16 30c-1.102 0-2-0.898-2-2s0.898-2 2-2 2 0.898 2 2-0.898 2-2 2zM19.633 26.346c-0.63-1.381-2.015-2.346-3.633-2.346s-3.002 0.964-3.633 2.346c-3.135-1.104-5.608-3.578-6.713-6.712 1.381-0.631 2.345-2.016 2.345-3.633s-0.964-3.002-2.346-3.633c1.104-3.136 3.578-5.608 6.713-6.713 0.631 1.381 2.016 2.345 3.633 2.345s3.003-0.964 3.633-2.346c3.135 1.104 5.608 3.578 6.712 6.713-1.381 0.631-2.345 2.016-2.345 3.633s0.964 3.003 2.346 3.633c-1.105 3.136-3.578 5.609-6.713 6.713zM28 18c-1.102 0-2-0.898-2-2s0.898-2 2-2 2 0.898 2 2-0.898 2-2 2z"></path>
</svg>
