<!-- Generated by IcoMoon.io -->
<svg version="1.1" xmlns="http://www.w3.org/2000/svg" width="32" height="32" viewBox="0 0 32 32">
<title>draw-circle-solid</title>
<path d="M32 16c0-1.683-1.042-3.117-2.514-3.707-1.305-4.74-5.038-8.473-9.778-9.778-0.59-1.472-2.024-2.514-3.707-2.514s-3.117 1.042-3.707 2.514c-4.74 1.305-8.473 5.038-9.778 9.778-1.472 0.59-2.514 2.024-2.514 3.707s1.042 3.117 2.514 3.707c1.305 4.74 5.038 8.473 9.778 9.778 0.59 1.473 2.024 2.514 3.707 2.514s3.117-1.042 3.707-2.514c4.74-1.305 8.473-5.038 9.778-9.778 1.473-0.59 2.514-2.024 2.514-3.707zM28 15c0.551 0 1 0.449 1 1s-0.449 1-1 1-1-0.449-1-1 0.449-1 1-1zM17 4c0 0.551-0.449 1-1 1s-1-0.449-1-1 0.449-1 1-1 1 0.449 1 1zM4 17c-0.551 0-1-0.449-1-1s0.449-1 1-1 1 0.449 1 1-0.449 1-1 1zM15 28c0-0.551 0.449-1 1-1s1 0.449 1 1-0.449 1-1 1-1-0.449-1-1zM19.072 25.467c-0.734-0.889-1.829-1.467-3.072-1.467s-2.338 0.578-3.072 1.467c-3.038-1.011-5.384-3.357-6.375-6.325l-0.020-0.070c0.889-0.734 1.467-1.829 1.467-3.072s-0.578-2.339-1.467-3.072c1.011-3.038 3.357-5.384 6.325-6.375l0.070-0.020c0.734 0.889 1.829 1.467 3.072 1.467s2.338-0.578 3.072-1.467c3.038 1.011 5.384 3.357 6.375 6.325l0.020 0.070c-0.889 0.733-1.467 1.829-1.467 3.072s0.578 2.338 1.467 3.072c-1.011 3.038-3.357 5.384-6.325 6.375l-0.070 0.020z"></path>
</svg>
