<!-- Generated by IcoMoon.io -->
<svg version="1.1" xmlns="http://www.w3.org/2000/svg" width="28" height="32" viewBox="0 0 28 32">
<title>draw-square</title>
<path d="M25 22.141v-12.283c1.723-0.446 3-1.997 3-3.859 0-2.209-1.791-4-4-4-1.862 0-3.413 1.278-3.859 3h-12.283c-0.446-1.722-1.997-3-3.859-3-2.209 0-4 1.791-4 4 0 1.862 1.278 3.412 3 3.859v12.283c-1.722 0.446-3 1.996-3 3.858 0 2.209 1.791 4 4 4 1.862 0 3.413-1.277 3.859-3h12.283c0.446 1.723 1.997 3 3.859 3 2.209 0 4-1.791 4-4-0.001-1.862-1.278-3.413-3.001-3.859zM20.141 25h-12.283c-0.362-1.401-1.457-2.496-2.859-2.859v-12.283c1.401-0.363 2.496-1.457 2.859-2.859h12.283c0.363 1.401 1.457 2.496 2.859 2.859v12.283c-1.401 0.363-2.496 1.457-2.859 2.858zM24 4c1.102 0 2 0.897 2 2s-0.898 2-2 2-2-0.897-2-2 0.898-2 2-2zM2 6c0-1.103 0.897-2 2-2s2 0.897 2 2-0.897 2-2 2-2-0.897-2-2zM4 28c-1.103 0-2-0.898-2-2s0.897-2 2-2 2 0.898 2 2-0.897 2-2 2zM24 28c-1.102 0-2-0.898-2-2s0.898-2 2-2 2 0.898 2 2-0.898 2-2 2z"></path>
</svg>
