<!-- Generated by IcoMoon.io -->
<svg version="1.1" xmlns="http://www.w3.org/2000/svg" width="28" height="32" viewBox="0 0 28 32">
<title>draw-polygon</title>
<path d="M24 22c-0.394 0-0.766 0.074-1.126 0.181l-2.026-3.376c0.711-0.723 1.152-1.711 1.152-2.804s-0.441-2.082-1.151-2.804l2.026-3.376c0.359 0.106 0.732 0.181 1.126 0.181 2.209 0 4-1.791 4-4s-1.791-4-4-4c-1.862 0-3.413 1.278-3.859 3h-12.283c-0.446-1.722-1.997-3-3.859-3-2.209 0-4 1.791-4 4 0 1.862 1.278 3.412 3 3.859v12.283c-1.722 0.446-3 1.996-3 3.858 0 2.209 1.791 4 4 4 1.862 0 3.413-1.277 3.859-3h12.283c0.446 1.723 1.997 3 3.859 3 2.209 0 4-1.791 4-4s-1.791-4-4.001-4zM5 22.141v-12.283c1.401-0.363 2.496-1.457 2.859-2.859h12.283c0.179 0.69 0.525 1.312 1.010 1.804l-2.026 3.376c-0.359-0.106-0.732-0.181-1.126-0.181-2.209 0-4 1.791-4 4s1.791 4 4 4c0.394 0 0.766-0.074 1.126-0.181l2.026 3.376c-0.485 0.492-0.831 1.114-1.010 1.804h-12.283c-0.373-1.403-1.456-2.486-2.831-2.852l-0.028-0.006zM18 18c-1.102 0-2-0.898-2-2s0.898-2 2-2 2 0.898 2 2-0.898 2-2 2zM24 4c1.102 0 2 0.897 2 2s-0.898 2-2 2-2-0.897-2-2 0.898-2 2-2zM2 6c0-1.103 0.897-2 2-2s2 0.897 2 2-0.897 2-2 2-2-0.897-2-2zM4 28c-1.103 0-2-0.898-2-2s0.897-2 2-2 2 0.898 2 2-0.897 2-2 2zM24 28c-1.102 0-2-0.898-2-2s0.898-2 2-2 2 0.898 2 2-0.898 2-2 2z"></path>
</svg>
