<!-- Generated by IcoMoon.io -->
<svg version="1.1" xmlns="http://www.w3.org/2000/svg" width="28" height="32" viewBox="0 0 28 32">
<title>draw-polygon-solid</title>
<path d="M24 22c-0.022 0-0.042 0.006-0.064 0.006l-2.45-4.082c0.317-0.573 0.514-1.223 0.514-1.924s-0.196-1.351-0.514-1.924l2.45-4.082c0.022 0.001 0.042 0.006 0.064 0.006 2.209 0 4-1.791 4-4s-1.791-4-4-4c-1.477 0-2.753 0.809-3.445 2h-13.11c-0.692-1.191-1.968-2-3.445-2-2.209 0-4 1.791-4 4 0 1.477 0.809 2.752 2 3.445v13.109c-1.191 0.693-2 1.969-2 3.446 0 2.209 1.791 4 4 4 1.477 0 2.752-0.809 3.445-2h13.109c0.693 1.191 1.968 2 3.445 2 2.209 0 4-1.791 4-4s-1.79-4-3.999-4zM6 22.555v-13.11c0.602-0.354 1.091-0.843 1.435-1.426l0.010-0.019h13.023l-2.404 4.006c-0.022-0.001-0.042-0.006-0.064-0.006-2.209 0-4 1.791-4 4s1.791 4 4 4c0.022 0 0.042-0.006 0.064-0.006l2.404 4.006h-13.023c-0.354-0.602-0.843-1.091-1.426-1.435l-0.019-0.010zM17 16c0-0.551 0.449-1 1-1s1 0.449 1 1-0.449 1-1 1-1-0.449-1-1zM25 6c0 0.551-0.449 1-1 1s-1-0.449-1-1 0.449-1 1-1 1 0.449 1 1zM4 5c0.551 0 1 0.449 1 1s-0.449 1-1 1-1-0.449-1-1 0.449-1 1-1zM3 26c0-0.551 0.449-1 1-1s1 0.449 1 1-0.449 1-1 1-1-0.449-1-1zM24 27c-0.551 0-1-0.449-1-1s0.449-1 1-1 1 0.449 1 1-0.449 1-1 1z"></path>
</svg>
