<!-- Generated by IcoMoon.io -->
<svg version="1.1" xmlns="http://www.w3.org/2000/svg" width="28" height="32" viewBox="0 0 28 32">
<title>dreidel</title>
<path d="M27.413 4l-1.413-1.413c-0.781-0.781-2.050-0.781-2.831 0l-5.787 5.787-3.787-3.787c-0.406-0.406-0.944-0.612-1.475-0.612s-1.069 0.206-1.475 0.612l-9.419 9.412c-0.787 0.781-1.225 1.844-1.225 2.956v8.863c0 2.313 1.869 4.181 4.181 4.181h8.863c1.106 0 2.169-0.438 2.956-1.225l9.419-9.419c0.819-0.819 0.819-2.137 0-2.956l-3.788-3.787 5.788-5.787c0.775-0.775 0.775-2.044-0.006-2.825zM14.588 27.363c-0.412 0.413-0.956 0.637-1.544 0.637h-8.863c-1.206 0-2.181-0.975-2.181-2.181v-8.863c0-0.581 0.225-1.131 0.637-1.544l3.712-3.713 11.95 11.95-3.713 3.712zM24 17.944l-4.294 4.294-11.944-11.95 4.294-4.287c0.006-0.006 0.025-0.025 0.063-0.025l0.063 0.025 11.819 11.819c0.038 0.031 0.038 0.094 0 0.125zM20.212 11.2l-1.413-1.412 5.788-5.787 1.413 1.412-5.788 5.787z"></path>
</svg>
