<!-- Generated by IcoMoon.io -->
<svg version="1.1" xmlns="http://www.w3.org/2000/svg" width="28" height="32" viewBox="0 0 28 32">
<title>dreidel-solid</title>
<path d="M1.225 14c-0.787 0.781-1.225 1.844-1.225 2.956v8.863c0 2.313 1.869 4.181 4.181 4.181h8.863c1.106 0 2.169-0.438 2.956-1.225l3.681-3.681-14.775-14.775-3.681 3.681zM27.706 3.706l-1.413-1.413c-0.387-0.387-1.025-0.387-1.413 0l-6.813 6.813-4.494-4.494c-0.819-0.819-2.138-0.819-2.956 0l-4.294 4.294 14.775 14.775 4.294-4.294c0.819-0.819 0.819-2.137 0-2.956l-4.5-4.494 6.813-6.813c0.394-0.394 0.394-1.025 0-1.419z"></path>
</svg>
