<!-- Generated by IcoMoon.io -->
<svg version="1.1" xmlns="http://www.w3.org/2000/svg" width="40" height="32" viewBox="0 0 40 32">
<title>drone-alt-solid</title>
<path d="M18 8.5c0-0.828-0.672-1.5-1.5-1.5v0h-6.101c-0.205-0.587-0.754-1-1.399-1s-1.194 0.413-1.396 0.99l-0.003 0.010h-6.101c-0.828 0-1.5 0.672-1.5 1.5s0.672 1.5 1.5 1.5v0h15c0.828 0 1.5-0.672 1.5-1.5v0zM38.525 7.004l-6.114 0.019c-0.195-0.601-0.75-1.029-1.405-1.029-0.658 0-1.215 0.431-1.405 1.027l-0.003 0.010-6.125 0.019c-0.798 0.019-1.437 0.671-1.437 1.471 0 0.804 0.645 1.457 1.445 1.472l0.001 0 15.051-0.048c0.811-0.003 1.467-0.66 1.467-1.471 0-0.813-0.659-1.471-1.471-1.471-0.002 0-0.003 0-0.005 0h0zM29.5 14.853l-6.053-1.816c-1.032-0.321-2.218-0.506-3.448-0.506s-2.416 0.185-3.533 0.529l0.085-0.023-6.051 1.816v-2.853h-3v4.003c0 1.105 0.895 2 2 2v0h2.838c-1.827 1.777-3.049 4.169-3.329 6.842l-0.004 0.048c-0.003 0.029-0.005 0.064-0.005 0.098 0 0.556 0.449 1.006 1.005 1.009h1.016c0.521 0 0.922-0.411 0.98-0.929 0.271-2.364 1.522-4.392 3.33-5.695l0.024-0.017 2.057 2.058c0.362 0.362 0.862 0.586 1.414 0.586 0 0 0 0 0 0h2.343c0 0 0 0 0 0 0.552 0 1.052-0.224 1.414-0.586l2.058-2.058c1.833 1.319 3.086 3.346 3.355 5.673l0.004 0.038c0.058 0.518 0.459 0.928 0.98 0.929h1.016c0.555-0.002 1.005-0.453 1.005-1.009 0-0.035-0.002-0.069-0.005-0.102l0 0.004c-0.285-2.721-1.506-5.113-3.331-6.887l-0.003-0.003h2.837c1.105 0 2-0.895 2-2v0-4.003h-3z"></path>
</svg>
