<!-- Generated by IcoMoon.io -->
<svg version="1.1" xmlns="http://www.w3.org/2000/svg" width="32" height="32" viewBox="0 0 32 32">
<title>drone</title>
<path d="M18.929 8c0.418 0 0.797-0.161 1.132-0.397-0.031-0.174-0.053-0.382-0.062-0.593l-0-0.010c0-2.761 2.239-5 5-5s5 2.239 5 5c0 2.761-2.239 5-5 5v0c-0.221-0.009-0.429-0.032-0.632-0.067l0.029 0.004c-0.237 0.335-0.397 0.714-0.397 1.132v0.829c0.296 0.044 0.638 0.070 0.986 0.070 3.857 0 6.984-3.127 6.984-6.984s-3.127-6.984-6.984-6.984c-3.857 0-6.984 3.127-6.984 6.984 0 0.006 0 0.011 0 0.017v-0.001c0.010 0.361 0.046 0.706 0.107 1.042l-0.006-0.042zM23.172 10.242l1.341-1.341c0.16 0.041 0.313 0.098 0.488 0.098 1.105 0 2-0.895 2-2s-0.895-2-2-2c-1.105 0-2 0.895-2 2v0c0 0.173 0.057 0.327 0.098 0.487l-1.341 1.341c-0.724 0.724-1.724 1.172-2.828 1.172h-5.859c-1.104-0-2.104-0.448-2.828-1.172l-1.341-1.341c0.041-0.16 0.098-0.313 0.098-0.487 0-1.105-0.895-2-2-2s-2 0.895-2 2c0 1.105 0.895 2 2 2v0c0.173 0 0.327-0.057 0.487-0.098l1.341 1.341c0.724 0.724 1.172 1.724 1.172 2.828v5.859c-0 1.105-0.448 2.104-1.172 2.828l-1.341 1.341c-0.16-0.041-0.313-0.098-0.487-0.098-1.105 0-2 0.895-2 2s0.895 2 2 2c1.105 0 2-0.895 2-2v0c0-0.173-0.057-0.328-0.098-0.488l1.341-1.341c0.724-0.724 1.724-1.171 2.828-1.171 0 0 0 0 0 0h5.859c0 0 0 0 0 0 1.104 0 2.104 0.448 2.828 1.171l1.341 1.341c-0.041 0.16-0.098 0.313-0.098 0.488 0 1.105 0.895 2 2 2s2-0.895 2-2c0-1.105-0.895-2-2-2v0c-0.173 0-0.328 0.057-0.488 0.098l-1.341-1.341c-0.724-0.724-1.172-1.724-1.172-2.828v-5.859c0-1.104 0.448-2.104 1.172-2.828v0zM20 20h-8v-8h8zM7 14c0.361-0.010 0.706-0.046 1.042-0.107l-0.042 0.006v-0.829c0-0.418-0.161-0.797-0.397-1.132-0.174 0.031-0.382 0.053-0.593 0.062l-0.010 0c-2.761 0-5-2.239-5-5s2.239-5 5-5c2.761 0 5 2.239 5 5v0c-0.009 0.221-0.032 0.429-0.067 0.632l0.004-0.029c0.335 0.236 0.714 0.397 1.132 0.397h0.829c0.055-0.294 0.091-0.639 0.102-0.991l0-0.010c0-3.866-3.134-7-7-7s-7 3.134-7 7c0 3.866 3.134 7 7 7v0zM13.071 24c-0.418 0-0.797 0.16-1.132 0.396 0.031 0.174 0.053 0.382 0.062 0.594l0 0.010c0 2.761-2.239 5-5 5s-5-2.239-5-5c0-2.761 2.239-5 5-5v0c0.221 0.009 0.429 0.032 0.632 0.067l-0.029-0.004c0.237-0.334 0.397-0.714 0.397-1.132v-0.83c-0.295-0.054-0.64-0.090-0.991-0.1l-0.010-0c-0.066-0.002-0.144-0.003-0.222-0.003-3.99 0-7.225 3.235-7.225 7.225s3.235 7.225 7.225 7.225c3.99 0 7.225-3.235 7.225-7.225 0-0.432-0.038-0.854-0.11-1.265l0.006 0.044zM25 18c-0.361 0.010-0.706 0.046-1.042 0.107l0.042-0.006v0.829c0 0.418 0.161 0.797 0.397 1.132 0.174-0.031 0.382-0.053 0.593-0.062l0.010-0c2.761 0 5 2.239 5 5s-2.239 5-5 5c-2.761 0-5-2.239-5-5v0c0.009-0.221 0.032-0.429 0.067-0.632l-0.004 0.029c-0.335-0.236-0.714-0.397-1.132-0.397h-0.83c-0.044 0.296-0.070 0.638-0.070 0.986 0 3.857 3.127 6.984 6.984 6.984s6.984-3.127 6.984-6.984c0-3.857-3.127-6.984-6.984-6.984-0.005 0-0.011 0-0.016 0h0.001z"></path>
</svg>
