<!-- Generated by IcoMoon.io -->
<svg version="1.1" xmlns="http://www.w3.org/2000/svg" width="40" height="32" viewBox="0 0 40 32">
<title>drone-alt</title>
<path d="M39.013 7.996l-7.013 0.014v-1.009c0-0.552-0.448-1-1-1s-1 0.448-1 1v0 1.013l-7.019 0.014c-0.006-0-0.014-0-0.022-0-0.544 0-0.984 0.441-0.984 0.984s0.441 0.984 0.984 0.984c0.010 0 0.019-0 0.029-0l-0.001 0 7.013-0.014v4.212l-5.943-1.621c-1.216-0.344-2.614-0.542-4.057-0.542s-2.84 0.198-4.166 0.568l0.109-0.026-5.943 1.621v-4.216l7.027-0.014c0.542-0.002 0.981-0.442 0.981-0.984 0-0.543-0.44-0.984-0.984-0.984-0.001 0-0.002 0-0.003 0l-7.021 0.014v-1.009c0-0.552-0.448-1-1-1s-1 0.448-1 1v0 1.013l-7.019 0.014c-0.006-0-0.014-0-0.021-0-0.544 0-0.984 0.441-0.984 0.984s0.441 0.984 0.984 0.984c0.010 0 0.019-0 0.029-0l-0.001 0 7.013-0.014v8.019c0 0.552 0.448 1 1 1v0h3.407c-1.66 1.704-2.824 3.899-3.253 6.347l-0.011 0.073c-0.004 0.023-0.006 0.049-0.006 0.076 0 0.279 0.226 0.505 0.505 0.505 0 0 0.001 0 0.001 0h1.024c0.242-0.002 0.442-0.177 0.483-0.407l0-0.003c0.468-2.446 1.761-4.532 3.573-6.003l0.019-0.015 1.74 1.581c0.582 0.525 1.356 0.847 2.206 0.847 0.008 0 0.016-0 0.024-0h2.576c0.007 0 0.015 0 0.023 0 0.849 0 1.622-0.321 2.206-0.848l-0.003 0.003 1.768-1.606c1.848 1.488 3.153 3.583 3.615 5.978l0.010 0.064c0.041 0.233 0.242 0.409 0.484 0.41h1.024c0 0 0.001 0 0.001 0 0.279 0 0.504-0.226 0.504-0.504 0-0.027-0.002-0.053-0.006-0.079l0 0.003c-0.44-2.521-1.604-4.716-3.267-6.422l0.003 0.003h3.349c0.552 0 1-0.448 1-1v0-8.023l7.019-0.014c0.542-0.002 0.981-0.442 0.981-0.984 0-0.543-0.44-0.984-0.984-0.984-0.001 0-0.002 0-0.003 0h0zM30 17h-4.5c-0.259 0-0.495 0.099-0.673 0.261l0.001-0.001-2.658 2.415c-0.231 0.202-0.536 0.325-0.869 0.325-0.004 0-0.009-0-0.013-0h-2.577c-0.003 0-0.008 0-0.012 0-0.334 0-0.64-0.124-0.873-0.328l0.002 0.001-2.656-2.414c-0.177-0.161-0.413-0.26-0.672-0.26h-4.5v-0.733l6.471-1.767c1.058-0.299 2.274-0.472 3.529-0.472s2.471 0.172 3.624 0.494l-0.095-0.023 6.471 1.767z"></path>
</svg>
