<!-- Generated by IcoMoon.io -->
<svg version="1.1" xmlns="http://www.w3.org/2000/svg" width="32" height="32" viewBox="0 0 32 32">
<title>drone-solid</title>
<path d="M7 14c0.366-0.010 0.717-0.047 1.058-0.109l-0.042 0.006-2.246-3.111c-1.621-0.531-2.771-2.030-2.771-3.798 0-2.203 1.786-3.989 3.989-3.989 1.768 0 3.267 1.15 3.79 2.743l0.008 0.028 3.111 2.246c0.056-0.299 0.093-0.65 0.102-1.007l0-0.009c0-3.866-3.134-7-7-7s-7 3.134-7 7c0 3.866 3.134 7 7 7v0zM21.213 5.771c0.531-1.621 2.030-2.771 3.798-2.771 2.203 0 3.989 1.786 3.989 3.989 0 1.768-1.15 3.267-2.743 3.79l-0.028 0.008-2.246 3.111c0.299 0.056 0.65 0.093 1.007 0.102l0.009 0c3.866 0 7-3.134 7-7s-3.134-7-7-7c-3.866 0-7 3.134-7 7v0c0.010 0.366 0.047 0.717 0.109 1.058l-0.006-0.042zM10.787 26.229c-0.531 1.621-2.030 2.771-3.798 2.771-2.203 0-3.989-1.786-3.989-3.989 0-1.768 1.15-3.267 2.743-3.79l0.028-0.008 2.246-3.111c-0.299-0.056-0.65-0.093-1.007-0.102l-0.009-0c-3.866 0-7 3.134-7 7s3.134 7 7 7c3.866 0 7-3.134 7-7v0c-0.010-0.366-0.047-0.717-0.109-1.058l0.006 0.042zM25 18c-0.366 0.010-0.717 0.047-1.058 0.109l0.042-0.006 2.246 3.111c1.621 0.531 2.771 2.030 2.771 3.798 0 2.203-1.786 3.989-3.989 3.989-1.768 0-3.267-1.15-3.79-2.743l-0.008-0.028-3.111-2.245c-0.056 0.299-0.093 0.65-0.102 1.007l-0 0.009c0 3.866 3.134 7 7 7s7-3.134 7-7c0-3.866-3.134-7-7-7v0zM25.063 8.988c1.077-0.031 1.938-0.912 1.938-1.994 0-1.101-0.893-1.994-1.994-1.994-1.082 0-1.962 0.861-1.994 1.935l-0 0.003-4.241 3.063h-5.543l-4.241-3.063c-0.031-1.077-0.912-1.938-1.994-1.938-1.101 0-1.994 0.893-1.994 1.994 0 1.082 0.861 1.962 1.935 1.994l0.003 0 3.063 4.241v5.543l-3.063 4.241c-1.077 0.031-1.938 0.912-1.938 1.994 0 1.101 0.893 1.994 1.994 1.994 1.082 0 1.962-0.861 1.994-1.935l0-0.003 4.241-3.063h5.543l4.241 3.063c0.031 1.077 0.912 1.938 1.994 1.938 1.101 0 1.994-0.893 1.994-1.994 0-1.082-0.861-1.962-1.935-1.994l-0.003-0-3.063-4.241v-5.543z"></path>
</svg>
