<!-- Generated by IcoMoon.io -->
<svg version="1.1" xmlns="http://www.w3.org/2000/svg" width="32" height="32" viewBox="0 0 32 32">
<title>drumstick</title>
<path d="M29.453 3.599c-1.891-2.141-4.615-3.509-7.659-3.595l-0.015-0c-2.931-0.080-5.804 1.039-7.875 3.103-1.678 1.664-3.904 4.389-3.904 8.803v4.331l-2.709 2.709c-0.196 0.196-0.569 0.332-1.076 0.129-0.498-0.205-1.076-0.324-1.682-0.324-2.504 0-4.533 2.030-4.533 4.533 0 0.001 0 0.002 0 0.002v-0c0 1.346 0.974 4.316 4.232 4.479 0.125 2.461 2.147 4.229 4.48 4.229 3.241 0 5.391-3.264 4.212-6.213-0.063-0.158-0.242-0.705 0.129-1.076l2.706-2.711h4.383c2.429 0 4.563-0.637 6.521-1.948 2.902-1.938 4.813-4.98 5.25-8.344 0.384-3.008-0.489-5.889-2.459-8.109zM11.641 23.296c-0.819 0.817-1.039 2.054-0.572 3.234 1.467 3.669-4.648 4.93-4.838 1.141l-0.091-1.807-1.807-0.091c-3.164-0.159-3.063-5.019 0.201-5.019 0.001 0 0.003 0 0.004 0 0.336 0 0.657 0.066 0.95 0.187l-0.017-0.006c1.107 0.446 2.375 0.294 3.238-0.57l1.625-1.625c0.521 1.358 1.575 2.41 2.899 2.918l0.034 0.012zM29.927 11.456c-0.354 2.75-1.988 5.341-4.375 6.937-1.619 1.082-3.389 1.607-5.41 1.607h-5.119c-0.003 0-0.006 0-0.009 0-1.66 0-3.006-1.341-3.015-2.999v-5.091c0-2.831 1.022-5.108 3.313-7.384 1.558-1.56 3.712-2.525 6.091-2.525 0.012 0 0.024 0 0.036 0h-0.002q0.138 0 0.281 0.004c2.487 0.070 4.701 1.183 6.23 2.915l0.008 0.009c1.582 1.781 2.283 4.099 1.971 6.528z"></path>
</svg>
