<!-- Generated by IcoMoon.io -->
<svg version="1.1" xmlns="http://www.w3.org/2000/svg" width="32" height="32" viewBox="0 0 32 32">
<title>drumstick-bite-solid</title>
<path d="M28.925 3.098c-1.916-1.914-4.562-3.098-7.484-3.098s-5.568 1.184-7.484 3.098l0-0c-2.217 2.214-3.948 4.902-3.948 8.902v5.364l-2.539 2.537c-0.606 0.606-1.5 0.692-2.299 0.375-0.414-0.17-0.895-0.269-1.398-0.269-2.082 0-3.771 1.688-3.771 3.771 0 1.042 0.423 1.986 1.106 2.668l0 0c0.954 0.953 2.282 1.223 3.508 0.942-0.281 1.225-0.011 2.552 0.944 3.506 0.683 0.686 1.629 1.111 2.673 1.111 2.083 0 3.772-1.689 3.772-3.772 0-0.505-0.099-0.986-0.279-1.427l0.009 0.025c-0.318-0.796-0.232-1.688 0.375-2.297l2.538-2.535h5.368c0.026 0 0.057 0 0.087 0 1.353 0 2.653-0.229 3.863-0.65l-0.082 0.025c-2.477-2.743-2.489-6.889 0.066-9.442 2.149-2.148 5.422-2.466 8.046-1.050 0.081-2.81-0.926-5.643-3.071-7.785z"></path>
</svg>
