<!-- Generated by IcoMoon.io -->
<svg version="1.1" xmlns="http://www.w3.org/2000/svg" width="36" height="32" viewBox="0 0 36 32">
<title>drum-steelpan-solid</title>
<path d="M18 2c-9.941 0-18 3.582-18 8v12c0 4.418 8.059 8 18 8s18-3.582 18-8v-12c0-4.418-8.059-8-18-8zM12.813 11.898c-0.278 1.038-0.909 1.911-1.769 2.53-4.779-0.836-8.044-2.504-8.044-4.428 0-1.885 3.132-3.524 7.753-4.377l1.6 2.771c0.616 1.068 0.78 2.312 0.461 3.503zM18 15c-1.317 0-2.588-0.063-3.806-0.169 0.504-1.633 2.009-2.831 3.806-2.831s3.302 1.198 3.806 2.831c-1.218 0.106-2.488 0.169-3.806 0.169zM22 6c0 2.206-1.794 4-4 4s-4-1.794-4-4v-0.815c1.275-0.117 2.613-0.185 4-0.185s2.725 0.067 4 0.185v0.815zM24.933 14.431c-0.863-0.619-1.496-1.494-1.775-2.534-0.319-1.191-0.156-2.435 0.461-3.502l1.603-2.776c4.635 0.85 7.777 2.493 7.777 4.381 0 1.927-3.275 3.596-8.067 4.431z"></path>
</svg>
