<!-- Generated by IcoMoon.io -->
<svg version="1.1" xmlns="http://www.w3.org/2000/svg" width="32" height="32" viewBox="0 0 32 32">
<title>drumstick-solid</title>
<path d="M28.902 3.098c-1.914-1.914-4.558-3.098-7.478-3.098s-5.565 1.184-7.478 3.098v0c-2.216 2.214-3.945 4.902-3.945 8.902v5.364l-2.537 2.537c-0.607 0.606-1.5 0.692-2.297 0.375-0.415-0.171-0.898-0.271-1.403-0.271-2.082 0-3.769 1.688-3.769 3.769 0 1.044 0.424 1.989 1.11 2.671l0 0c0.954 0.954 2.281 1.224 3.506 0.943-0.281 1.225-0.011 2.552 0.943 3.506 0.683 0.685 1.627 1.109 2.671 1.109 2.082 0 3.77-1.688 3.77-3.77 0-0.505-0.099-0.987-0.279-1.427l0.009 0.025c-0.318-0.796-0.232-1.688 0.375-2.297l2.537-2.536h5.364c4 0 6.688-1.729 8.902-3.945 1.914-1.914 3.097-4.558 3.097-7.478s-1.184-5.565-3.098-7.479v0z"></path>
</svg>
