<!-- Generated by IcoMoon.io -->
<svg version="1.1" xmlns="http://www.w3.org/2000/svg" width="32" height="32" viewBox="0 0 32 32">
<title>drumstick-bite</title>
<path d="M29.462 3.599c-1.893-2.141-4.618-3.509-7.663-3.595l-0.015-0c-2.971-0.076-5.804 1.041-7.877 3.103-1.676 1.664-3.904 4.389-3.904 8.803v4.331l-2.712 2.711c-0.196 0.196-0.569 0.332-1.076 0.129-0.498-0.205-1.076-0.324-1.682-0.324-2.504 0-4.533 2.030-4.533 4.533 0 0.001 0 0.002 0 0.002v-0c0 1.346 0.974 4.316 4.232 4.479 0.125 2.461 2.147 4.229 4.48 4.229 3.241 0 5.391-3.264 4.212-6.213-0.063-0.158-0.242-0.705 0.129-1.076l2.712-2.711h4.384c1.121-0 2.205-0.156 3.233-0.447l-0.084 0.020c0.429-0.119 0.739-0.506 0.739-0.965 0-0.192-0.054-0.371-0.147-0.523l0.002 0.004c-0.553-0.878-0.882-1.945-0.885-3.089v-0.001c0.005-3.312 2.688-5.995 6-6h0c0.522 0 1.063 0.089 1.706 0.281 0.086 0.027 0.185 0.042 0.288 0.042 0.552 0 1-0.448 1-1 0-0.001 0-0.002 0-0.002v0c0-2.53-0.879-4.854-2.538-6.722zM11.639 23.296c-0.819 0.817-1.039 2.054-0.572 3.234 1.467 3.669-4.648 4.93-4.838 1.141l-0.091-1.807-1.807-0.091c-3.164-0.159-3.063-5.019 0.201-5.019 0.001 0 0.003 0 0.004 0 0.336 0 0.657 0.066 0.95 0.187l-0.017-0.006c1.107 0.446 2.375 0.294 3.238-0.57l1.625-1.625c0.522 1.358 1.577 2.412 2.903 2.918l0.034 0.012zM29.009 9c-4.416 0.006-7.994 3.584-8 7.999v0.001c0.003 1.044 0.209 2.039 0.581 2.949l-0.019-0.052c-0.424 0.066-0.913 0.103-1.41 0.103-0.004 0-0.008 0-0.013 0h-5.12c-0.003 0-0.006 0-0.009 0-1.66 0-3.006-1.341-3.015-2.999v-5.091c0-2.831 1.022-5.108 3.313-7.385 1.559-1.56 3.713-2.526 6.093-2.526 0.011 0 0.023 0 0.034 0h-0.002q0.141 0 0.281 0.004c2.488 0.069 4.704 1.183 6.234 2.915l0.008 0.009c1.001 1.116 1.694 2.528 1.932 4.089l0.006 0.044c-0.268-0.038-0.578-0.060-0.892-0.061h-0.001z"></path>
</svg>
