<!-- Generated by IcoMoon.io -->
<svg version="1.1" xmlns="http://www.w3.org/2000/svg" width="32" height="32" viewBox="0 0 32 32">
<title>drum-solid</title>
<path d="M26.959 7.628l4.596-2.964c0.27-0.182 0.445-0.487 0.445-0.832 0-0.207-0.063-0.399-0.17-0.558l0.002 0.004-0.554-0.832c-0.182-0.27-0.487-0.445-0.832-0.445-0.207 0-0.399 0.063-0.558 0.17l0.004-0.002-6.879 4.438c-3.11-0.549-6.061-0.606-7.012-0.606-2.278 0-16 0.284-16 7.009v10.014c0 1.892 1.719 3.605 4.5 4.866v-6.369c0-0.828 0.672-1.5 1.5-1.5s1.5 0.672 1.5 1.5v0 7.433c2.066 0.569 4.442 0.941 7 1.046v-6.476c0-0.828 0.672-1.5 1.5-1.5s1.5 0.672 1.5 1.5v0 6.476c2.558-0.104 4.934-0.476 7-1.046v-7.433c0-0.828 0.672-1.5 1.5-1.5s1.5 0.672 1.5 1.5v0 6.369c2.781-1.261 4.5-2.974 4.5-4.866v-10.014c0-2.707-2.235-4.36-5.041-5.381zM16 17.015c-7.18 0-13-1.793-13-4.006s5.82-4.005 13-4.005c1.072 0 2.108 0.044 3.105 0.119l-4.551 2.938c-0.27 0.182-0.445 0.486-0.445 0.832 0 0.207 0.063 0.399 0.17 0.559l-0.002-0.004 0.554 0.832c0.182 0.27 0.487 0.445 0.832 0.445 0.207 0 0.399-0.063 0.558-0.17l-0.004 0.002 7.415-4.782c3.247 0.725 5.366 1.902 5.366 3.234 0 2.213-5.821 4.006-13 4.006z"></path>
</svg>
