<!-- Generated by IcoMoon.io -->
<svg version="1.1" xmlns="http://www.w3.org/2000/svg" width="32" height="32" viewBox="0 0 32 32">
<title>drum</title>
<path d="M25.907 7.361l5.625-3.514c0.269-0.182 0.444-0.486 0.444-0.831 0-0.552-0.448-1-1-1-0.185 0-0.359 0.050-0.508 0.138l0.005-0.003-7.243 4.526c-2.281-0.455-4.784-0.678-7.23-0.678-7.706 0-16 2.188-16 7v10c0 3.866 7.164 7 16 7s16-3.134 16-7v-10c0-2.655-2.532-4.508-6.093-5.639zM6 26.341c-2.555-1.008-4-2.295-4-3.341v-6.381c1.033 0.813 2.409 1.474 4 1.988zM15 27.978c-2.696-0.074-5.058-0.438-7-0.975v-7.851c2.178 0.5 4.595 0.771 7 0.83zM24 27.003c-1.942 0.534-4.304 0.901-7 0.975v-7.996c2.405-0.059 4.822-0.331 7-0.83zM30 23c0 1.046-1.445 2.334-4 3.341v-7.734c1.591-0.514 2.967-1.174 4-1.988zM16 18c-7.732 0-14-2.239-14-5s6.268-5 14-5c0.006 0 0.012 0 0.018 0 1.634 0 3.243 0.105 4.821 0.308l-0.187-0.020-6.182 3.864c-0.269 0.182-0.444 0.486-0.444 0.831 0 0.552 0.448 1 1 1 0.185 0 0.359-0.050 0.508-0.138l-0.005 0.003 8.069-5.044c3.849 0.891 6.401 2.436 6.401 4.196 0 2.761-6.268 5-14 5z"></path>
</svg>
