<!-- Generated by IcoMoon.io -->
<svg version="1.1" xmlns="http://www.w3.org/2000/svg" width="36" height="32" viewBox="0 0 36 32">
<title>drum-steelpan</title>
<path d="M18 2c-9.941 0-18 3.582-18 8v12c0 4.418 8.059 8 18 8s18-3.582 18-8v-12c0-4.418-8.059-8-18-8zM18 4c1.605 0 3.152 0.091 4.614 0.256l-0.966 3.755c-0.282 1.097-1.919 1.989-3.648 1.989s-3.366-0.892-3.648-1.989l-0.966-3.756c1.462-0.164 3.009-0.256 4.614-0.256zM23.927 15.57c-1.834 0.275-3.831 0.43-5.927 0.43-2.112 0-4.122-0.158-5.968-0.436 1.254-1.228 2.086-2.84 2.32-4.592 1.020 0.648 2.314 1.027 3.648 1.027 1.314 0 2.592-0.367 3.605-0.997 0.227 1.755 1.066 3.359 2.323 4.567zM11.141 4.586l1.061 3.752c0.753 2.666-0.477 5.419-2.796 6.717-4.449-1.065-7.406-2.929-7.406-5.055 0-2.392 3.742-4.451 9.141-5.414zM34 22c0 2.446-6.233 6-16 6s-16-3.554-16-6v-8.346c2.988 2.579 9.024 4.346 16 4.346s13.012-1.767 16-4.346v8.346zM26.601 15.054c-2.253-1.168-3.534-3.74-2.935-6.322l0.973-4.186c5.519 0.946 9.362 3.030 9.362 5.454 0 2.125-2.955 3.988-7.399 5.054z"></path>
</svg>
