<!-- Generated by IcoMoon.io -->
<svg version="1.1" xmlns="http://www.w3.org/2000/svg" width="28" height="32" viewBox="0 0 28 32">
<title>dryer-alt-solid</title>
<path d="M24 0h-20c-2.209 0-4 1.791-4 4v0 26c0 1.105 0.895 2 2 2v0h24c1.105 0 2-0.895 2-2v0-26c0-2.209-1.791-4-4-4v0zM11.5 4c0.828 0 1.5 0.672 1.5 1.5s-0.672 1.5-1.5 1.5c-0.828 0-1.5-0.672-1.5-1.5v0c0-0.828 0.672-1.5 1.5-1.5v0zM4 5.5c0-0.828 0.672-1.5 1.5-1.5s1.5 0.672 1.5 1.5c0 0.828-0.672 1.5-1.5 1.5v0c-0.828 0-1.5-0.672-1.5-1.5v0zM14 28c-4.971 0-9-4.029-9-9s4.029-9 9-9c4.971 0 9 4.029 9 9v0c0 4.971-4.029 9-9 9v0zM14 12c-3.866 0-7 3.134-7 7s3.134 7 7 7c3.866 0 7-3.134 7-7v0c0-3.866-3.134-7-7-7v0zM14 24c-0 0-0 0-0 0-2.407 0-4.418-1.701-4.893-3.967l-0.006-0.033h2.399c0.276 0 0.5-0.224 0.5-0.5v0-1c0-0.276-0.224-0.5-0.5-0.5v0h-2.399c0.482-2.299 2.492-4 4.899-4 2.761 0 5 2.239 5 5s-2.238 5-5 5h-0z"></path>
</svg>
