<!-- Generated by IcoMoon.io -->
<svg version="1.1" xmlns="http://www.w3.org/2000/svg" width="28" height="32" viewBox="0 0 28 32">
<title>dryer-alt</title>
<path d="M24-0.063h-20c-2.209 0-4 1.791-4 4v0 26c0 1.105 0.895 2 2 2v0h24c1.105 0 2-0.895 2-2v0-26c0-2.209-1.791-4-4-4v0zM26 29.938h-24v-26c0-1.105 0.895-2 2-2v0h20c1.105 0 2 0.895 2 2v0zM5 5.938c0.552 0 1-0.448 1-1s-0.448-1-1-1c-0.552 0-1 0.448-1 1v0c0 0.552 0.448 1 1 1v0zM9 5.938c0.552 0 1-0.448 1-1s-0.448-1-1-1c-0.552 0-1 0.448-1 1v0c0 0.552 0.448 1 1 1v0zM14 7.938c-5.523 0-10 4.477-10 10s4.477 10 10 10c5.523 0 10-4.477 10-10v0c0-5.523-4.477-10-10-10v0zM14 25.938c-4.418 0-8-3.582-8-8s3.582-8 8-8c4.418 0 8 3.582 8 8v0c-0.005 4.416-3.584 7.995-8 8h-0zM14 11.938c-3.314 0-6 2.686-6 6s2.686 6 6 6c3.314 0 6-2.686 6-6v0c0-3.314-2.686-6-6-6v0zM14 21.938c-1.848-0.007-3.399-1.266-3.852-2.972l-0.006-0.028h2.358c0.276 0 0.5-0.224 0.5-0.5v0-1c0-0.276-0.224-0.5-0.5-0.5v0h-2.358c0.462-1.732 2.017-2.988 3.865-2.988 2.206 0 3.994 1.788 3.994 3.994s-1.788 3.994-3.994 3.994c-0.002 0-0.005 0-0.007 0h0z"></path>
</svg>
