<!-- Generated by IcoMoon.io -->
<svg version="1.1" xmlns="http://www.w3.org/2000/svg" width="28" height="32" viewBox="0 0 28 32">
<title>dryer</title>
<path d="M24-0.063h-20c-2.209 0-4 1.791-4 4v0 26c0 1.105 0.895 2 2 2v0h24c1.105 0 2-0.895 2-2v0-26c0-2.209-1.791-4-4-4v0zM26 29.938h-24v-26c0-1.105 0.895-2 2-2v0h20c1.105 0 2 0.895 2 2v0zM5 5.938c0.552 0 1-0.448 1-1s-0.448-1-1-1c-0.552 0-1 0.448-1 1v0c0 0.552 0.448 1 1 1v0zM9 5.938c0.552 0 1-0.448 1-1s-0.448-1-1-1c-0.552 0-1 0.448-1 1v0c0 0.552 0.448 1 1 1v0zM14 7.938c-5.523 0-10 4.477-10 10s4.477 10 10 10c5.523 0 10-4.477 10-10v0c0-5.523-4.477-10-10-10v0zM14 25.938c-4.418 0-8-3.582-8-8s3.582-8 8-8c4.418 0 8 3.582 8 8v0c-0.005 4.416-3.584 7.995-8 8h-0zM13.556 16.161c0-1.258-0.664-1.922-1.149-2.407-0.324-0.324-0.513-0.525-0.589-0.813-0.049-0.194-0.221-0.335-0.426-0.338h-0.907c-0.248 0.003-0.448 0.205-0.448 0.453 0 0.027 0.002 0.053 0.007 0.079l-0-0.003c0.153 0.924 0.694 1.466 1.107 1.875 0.438 0.438 0.629 0.65 0.629 1.15s-0.193 0.716-0.629 1.154c-0.486 0.484-1.149 1.149-1.149 2.406s0.664 1.92 1.149 2.404c0.323 0.324 0.513 0.524 0.589 0.813 0.050 0.193 0.222 0.334 0.427 0.337h0.907c0.248-0.003 0.448-0.205 0.448-0.453 0-0.027-0.002-0.053-0.007-0.079l0 0.003c-0.154-0.922-0.695-1.464-1.107-1.875-0.438-0.438-0.628-0.649-0.628-1.148s0.193-0.714 0.628-1.15c0.485-0.488 1.149-1.151 1.149-2.409zM18 16.161c0-1.258-0.664-1.922-1.149-2.407-0.324-0.324-0.513-0.525-0.589-0.813-0.049-0.194-0.221-0.335-0.426-0.338h-0.907c-0.248 0.003-0.448 0.205-0.448 0.453 0 0.027 0.002 0.053 0.007 0.079l-0-0.003c0.154 0.924 0.695 1.466 1.107 1.875 0.438 0.438 0.628 0.65 0.628 1.15s-0.192 0.716-0.628 1.154c-0.485 0.485-1.149 1.149-1.149 2.407s0.664 1.919 1.149 2.406c0.323 0.324 0.513 0.524 0.589 0.813 0.049 0.193 0.221 0.335 0.426 0.337h0.907c0.248-0.003 0.448-0.205 0.448-0.453 0-0.027-0.002-0.053-0.007-0.079l0 0.003c-0.154-0.922-0.695-1.464-1.107-1.875-0.438-0.438-0.629-0.649-0.629-1.148s0.193-0.714 0.629-1.15c0.486-0.489 1.149-1.153 1.149-2.411z"></path>
</svg>
