<!-- Generated by IcoMoon.io -->
<svg version="1.1" xmlns="http://www.w3.org/2000/svg" width="28" height="32" viewBox="0 0 28 32">
<title>dryer-solid</title>
<path d="M24 0h-20c-2.209 0-4 1.791-4 4v0 26c0 1.105 0.895 2 2 2v0h24c1.105 0 2-0.895 2-2v0-26c0-2.209-1.791-4-4-4v0zM11.5 4c0.828 0 1.5 0.672 1.5 1.5s-0.672 1.5-1.5 1.5c-0.828 0-1.5-0.672-1.5-1.5v0c0-0.828 0.672-1.5 1.5-1.5v0zM4 5.5c0-0.828 0.672-1.5 1.5-1.5s1.5 0.672 1.5 1.5c0 0.828-0.672 1.5-1.5 1.5v0c-0.828 0-1.5-0.672-1.5-1.5v0zM14 28c-4.971 0-9-4.029-9-9s4.029-9 9-9c4.971 0 9 4.029 9 9v0c0 4.971-4.029 9-9 9v0zM13.5 17c0-1.415-0.747-2.162-1.293-2.708-0.364-0.364-0.578-0.591-0.662-0.914-0.056-0.218-0.25-0.377-0.482-0.378h-1.018c-0.28 0.002-0.507 0.229-0.507 0.51 0 0.030 0.003 0.060 0.008 0.089l-0-0.003c0.173 1.040 0.782 1.649 1.246 2.112 0.493 0.49 0.71 0.729 0.71 1.292s-0.217 0.804-0.707 1.294c-0.543 0.548-1.293 1.295-1.293 2.71s0.747 2.16 1.293 2.705c0.364 0.364 0.577 0.59 0.662 0.912 0.056 0.218 0.25 0.378 0.482 0.379h1.020c0.28-0.002 0.507-0.229 0.507-0.51 0-0.030-0.003-0.060-0.008-0.089l0 0.003c-0.173-1.038-0.782-1.647-1.246-2.109-0.495-0.49-0.712-0.733-0.712-1.291s0.217-0.804 0.707-1.294c0.546-0.546 1.293-1.293 1.293-2.71zM18.5 17c0-1.415-0.747-2.162-1.293-2.708-0.364-0.364-0.578-0.591-0.663-0.914-0.056-0.218-0.25-0.377-0.482-0.378h-1.018c-0.28 0.002-0.507 0.229-0.507 0.51 0 0.030 0.003 0.060 0.008 0.089l-0-0.003c0.173 1.040 0.782 1.649 1.246 2.112 0.493 0.49 0.71 0.729 0.71 1.292s-0.217 0.804-0.707 1.294c-0.543 0.548-1.293 1.295-1.293 2.71s0.747 2.16 1.293 2.705c0.364 0.364 0.577 0.59 0.663 0.912 0.056 0.218 0.25 0.378 0.482 0.379h1.020c0.279-0.003 0.504-0.23 0.504-0.51 0-0.030-0.003-0.060-0.008-0.089l0 0.003c-0.173-1.038-0.782-1.647-1.246-2.109-0.492-0.49-0.709-0.733-0.709-1.291s0.217-0.804 0.707-1.294c0.546-0.546 1.293-1.293 1.293-2.71z"></path>
</svg>
