<!-- Generated by IcoMoon.io -->
<svg version="1.1" xmlns="http://www.w3.org/2000/svg" width="32" height="32" viewBox="0 0 32 32">
<title>duck-solid</title>
<path d="M26 14c3.314 0 6-2.686 6-6h-4c0-3.314-2.686-6-6-6s-6 2.686-6 6c0 1.447 0.523 2.759 1.381 3.787 0.391 0.467 0.619 1.049 0.619 1.658 0 1.411-1.144 2.555-2.555 2.555h-1.356c-1.969 0-5.011-0.825-6.355-2.265-0.626-0.671-1.734-0.224-1.734 0.679 0 5.294 4.292 9.586 9.586 9.586h-2c-4.751 0-8.667-3.465-9.426-8h-3.15c-0.57 0-1.049 0.479-1.008 1.047 0.536 7.243 6.582 12.953 13.962 12.953h6.7c3.469 0 6.926-2.782 7.295-6.232 0.284-2.652-0.922-5.025-2.878-6.429-0.678-0.487-1.081-1.267-1.081-2.102 0-0.445 0.123-0.864 0.333-1.237h1.667zM22 9c-0.552 0-1-0.447-1-1s0.448-1 1-1 1 0.447 1 1-0.448 1-1 1z"></path>
</svg>
