<!-- Generated by IcoMoon.io -->
<svg version="1.1" xmlns="http://www.w3.org/2000/svg" width="36" height="32" viewBox="0 0 36 32">
<title>duck</title>
<path d="M27 16c4.418 0 9-3.582 9-8h-6.098c-0.027-0.201-0.035-0.397-0.081-0.601-0.564-2.534-2.601-4.608-5.129-5.201-0.574-0.135-1.141-0.199-1.692-0.199-3.866 0-7 3.134-7 7v7h-3.796c-1.605 0-3.112-0.629-4.372-1.624-0.313-0.247-0.696-0.376-1.084-0.376-0.226 0-0.452 0.044-0.669 0.133-0.656 0.273-1.079 0.906-1.079 1.615 0 0.087 0.023 0.167 0.026 0.253h-3.010c-1.211 0-2.186 1.076-1.991 2.271 1.085 6.652 6.858 11.729 13.817 11.729h6.246c4.265 0 8.053-3.491 7.908-7.754-0.063-1.859-0.818-3.533-1.996-4.811v-1.435h0.999zM29.921 10h3.737c-0.724 2.043-3.525 3.578-5.717 3.925 1.044-1.038 1.759-2.398 1.98-3.925zM24.529 18.79c0.902 0.98 1.424 2.231 1.468 3.524 0.047 1.386-0.497 2.739-1.531 3.81-1.152 1.192-2.748 1.876-4.378 1.876h-6.246c-5.936 0-10.878-4.332-11.833-10h3.301c1.013 4.011 4.622 7 8.943 7h1.247c0.276 0 0.5-0.224 0.5-0.5v-1c0-0.276-0.224-0.5-0.5-0.5h-1.248c-3.8 0-6.928-2.938-7.229-6.662 1.329 1.103 3.068 1.662 5.18 1.662h5.796v-9c0-2.761 2.239-5 5-5s5 2.239 5 5c0 2.114-1.317 3.912-3.172 4.644-0.801 0.383-0.726 0.346-0.828 0.396v4.177l0.529 0.574zM23 8c-0.552 0-1 0.447-1 1s0.448 1 1 1 1-0.447 1-1-0.448-1-1-1z"></path>
</svg>
