<!-- Generated by IcoMoon.io -->
<svg version="1.1" xmlns="http://www.w3.org/2000/svg" width="40" height="32" viewBox="0 0 40 32">
<title>dumbbell</title>
<path d="M39.5 15h-1.5v-6c0-1.656-1.344-3-3-3h-2c-0.35 0-0.688 0.075-1 0.181v-1.181c0-1.656-1.344-3-3-3h-2c-1.656 0-3 1.344-3 3v10h-8v-10c0-1.656-1.344-3-3-3h-2c-1.656 0-3 1.344-3 3v1.181c-0.313-0.112-0.65-0.181-1-0.181h-2c-1.656 0-3 1.344-3 3v6h-1.5c-0.275 0-0.5 0.225-0.5 0.5v1c0 0.275 0.225 0.5 0.5 0.5h1.5v6c0 1.656 1.344 3 3 3h2c0.35 0 0.688-0.075 1-0.181v1.181c0 1.656 1.344 3 3 3h2c1.656 0 3-1.344 3-3v-10h8v10c0 1.656 1.344 3 3 3h2c1.656 0 3-1.344 3-3v-1.181c0.313 0.113 0.65 0.181 1 0.181h2c1.656 0 3-1.344 3-3v-6h1.5c0.275 0 0.5-0.225 0.5-0.5v-1c0-0.275-0.225-0.5-0.5-0.5zM7 24h-2c-0.55 0-1-0.45-1-1v-14c0-0.55 0.45-1 1-1h2c0.55 0 1 0.45 1 1v14c0 0.55-0.45 1-1 1zM14 27c0 0.55-0.45 1-1 1h-2c-0.55 0-1-0.45-1-1v-22c0-0.55 0.45-1 1-1h2c0.55 0 1 0.45 1 1v22zM30 27c0 0.55-0.45 1-1 1h-2c-0.55 0-1-0.45-1-1v-22c0-0.55 0.45-1 1-1h2c0.55 0 1 0.45 1 1v22zM36 23c0 0.55-0.45 1-1 1h-2c-0.55 0-1-0.45-1-1v-14c0-0.55 0.45-1 1-1h2c0.55 0 1 0.45 1 1v14z"></path>
</svg>
