<!-- Generated by IcoMoon.io -->
<svg version="1.1" xmlns="http://www.w3.org/2000/svg" width="40" height="32" viewBox="0 0 40 32">
<title>dumbbell-solid</title>
<path d="M6.5 6h-3c-0.831 0-1.5 0.669-1.5 1.5v6.5h-1.5c-0.275 0-0.5 0.225-0.5 0.5v3c0 0.275 0.225 0.5 0.5 0.5h1.5v6.5c0 0.831 0.669 1.5 1.5 1.5h3c0.831 0 1.5-0.669 1.5-1.5v-17c0-0.831-0.669-1.5-1.5-1.5zM39.5 14h-1.5v-6.5c0-0.831-0.669-1.5-1.5-1.5h-3c-0.831 0-1.5 0.669-1.5 1.5v17c0 0.831 0.669 1.5 1.5 1.5h3c0.831 0 1.5-0.669 1.5-1.5v-6.5h1.5c0.275 0 0.5-0.225 0.5-0.5v-3c0-0.275-0.225-0.5-0.5-0.5zM28.5 2h-3c-0.831 0-1.5 0.669-1.5 1.5v10.5h-8v-10.5c0-0.831-0.669-1.5-1.5-1.5h-3c-0.831 0-1.5 0.669-1.5 1.5v25c0 0.831 0.669 1.5 1.5 1.5h3c0.831 0 1.5-0.669 1.5-1.5v-10.5h8v10.5c0 0.831 0.669 1.5 1.5 1.5h3c0.831 0 1.5-0.669 1.5-1.5v-25c0-0.831-0.669-1.5-1.5-1.5z"></path>
</svg>
