<!-- Generated by IcoMoon.io -->
<svg version="1.1" xmlns="http://www.w3.org/2000/svg" width="36" height="32" viewBox="0 0 36 32">
<title>dumpster-solid</title>
<path d="M35 10c0.65 0 1.125-0.613 0.969-1.244l-1.5-6c-0.112-0.444-0.513-0.756-0.969-0.756h-6.181l1.6 8h6.081zM17 2h-6.281l-1.6 8h7.881v-8zM25.281 2h-6.281v8h7.881l-1.6-8zM1 10h6.081l1.6-8h-6.181c-0.456 0-0.856 0.313-0.969 0.756l-1.5 6c-0.156 0.631 0.319 1.244 0.969 1.244zM35 14h-1.25l0.25-2h-32l0.25 2h-1.25c-0.55 0-1 0.45-1 1v2c0 0.55 0.45 1 1 1h1.75l1.25 10v1c0 0.55 0.45 1 1 1h2c0.55 0 1-0.45 1-1v-1h20v1c0 0.55 0.45 1 1 1h2c0.55 0 1-0.45 1-1v-1l1.25-10h1.75c0.55 0 1-0.45 1-1v-2c0-0.55-0.45-1-1-1z"></path>
</svg>
