<!-- Generated by IcoMoon.io -->
<svg version="1.1" xmlns="http://www.w3.org/2000/svg" width="36" height="32" viewBox="0 0 36 32">
<title>dumpster</title>
<path d="M35.5 16h-2.169l0.444-4h1.225c0.65 0 1.125-0.762 0.969-1.556l-1.5-7.5c-0.112-0.556-0.513-0.944-0.969-0.944h-31c-0.456 0-0.856 0.388-0.969 0.944l-1.5 7.5c-0.156 0.794 0.319 1.556 0.969 1.556h1.219l0.444 4h-2.163c-0.275 0-0.5 0.225-0.5 0.5v1c0 0.275 0.225 0.5 0.5 0.5h2.388l1.112 10v1c0 0.55 0.45 1 1 1h4c0.55 0 1-0.45 1-1v-1h16v1c0 0.55 0.45 1 1 1h4c0.55 0 1-0.45 1-1v-1l1.112-10h2.388c0.275 0 0.5-0.225 0.5-0.5v-1c0-0.275-0.225-0.5-0.5-0.5zM33.837 10h-4.919l-1.2-6h4.919l1.2 6zM9.119 10l1.2-6h6.681v6h-7.881zM19 4h6.681l1.2 6h-7.881v-6zM3.362 4h4.919l-1.2 6h-4.919l1.2-6zM30 28h-2v-2h-20v2h-2l-1.763-16h27.531l-1.769 16z"></path>
</svg>
