<!-- Generated by IcoMoon.io -->
<svg version="1.1" xmlns="http://www.w3.org/2000/svg" width="40" height="32" viewBox="0 0 40 32">
<title>dumpster-fire</title>
<path d="M34.444 10.2c-0.931 0.831-1.769 1.7-2.512 2.575-1.219-1.613-2.725-3.25-4.438-4.775-4.387 3.919-7.5 9.019-7.5 12.1 0 5.469 4.475 9.9 10 9.9s10-4.431 10-9.9c0.006-2.288-2.313-7.012-5.55-9.9zM30.881 27.913c-0.294 0.031-0.575 0.087-0.881 0.087s-0.587-0.056-0.881-0.087c-1.988-0.4-3.488-2.137-3.488-4.212 0-0.875 0.962-2.881 2.781-4.894 0.444 0.475 0.85 0.956 1.212 1.438l1.506 1.994 1.619-1.906c0.006-0.006 0.006-0.012 0.013-0.012 1.013 1.387 1.594 2.881 1.594 3.381 0.006 2.075-1.494 3.813-3.475 4.212zM36.225 25c0.087-0.419 0.138-0.856 0.138-1.3 0-1.456-1.475-4.463-3.538-6.3-0.594 0.525-1.125 1.081-1.6 1.637-0.775-1.025-1.738-2.069-2.825-3.037-2.794 2.494-4.775 5.744-4.775 7.7 0 0.444 0.050 0.881 0.137 1.3-1.094-1.35-1.775-3.044-1.775-4.9 0-1.975 2.031-5.825 5.506-9.344 1.050 1.044 2.012 2.144 2.831 3.225l1.506 1.994 1.619-1.906c0.306-0.363 0.619-0.713 0.944-1.050 2.144 2.494 3.594 5.713 3.594 7.081 0.013 1.863-0.669 3.55-1.763 4.9zM8 26v2h-2l-1.763-16h17.050c0.469-0.669 0.969-1.338 1.519-2h-3.806v-6h6.681l0.5 2.5c0.375-0.331 0.85-0.5 1.319-0.5 0.219 0 0.438 0.044 0.644 0.119l-0.425-2.119h4.919l0.894 4.456c0.288-0.15 0.594-0.256 0.913-0.256 0.413 0 0.806 0.15 1.156 0.4l-1.131-5.656c-0.112-0.556-0.513-0.944-0.969-0.944h-31c-0.456 0-0.856 0.388-0.969 0.944l-1.5 7.5c-0.156 0.794 0.319 1.556 0.969 1.556h1.219l0.444 4h-2.163c-0.275 0-0.5 0.225-0.5 0.5v1c0 0.275 0.225 0.5 0.5 0.5h2.388l1.112 10v1c0 0.55 0.45 1 1 1h4c0.55 0 1-0.45 1-1v-1h11.050c-0.55-0.613-1.044-1.281-1.456-2h-11.594zM10.319 4h6.681v6h-7.881l1.2-6zM2.163 10l1.2-6h4.919l-1.2 6h-4.919z"></path>
</svg>
