<!-- Generated by IcoMoon.io -->
<svg version="1.1" xmlns="http://www.w3.org/2000/svg" width="40" height="32" viewBox="0 0 40 32">
<title>dumpster-fire-solid</title>
<path d="M26.169 6.506l0.012-0.013-0.9-4.5h-6.281v8h3.8c1.012-1.206 2.137-2.388 3.369-3.487zM17 2h-6.281l-1.6 8h7.881v-8zM28.831 6.506c1.137 1.019 2.219 2.106 3.194 3.219 0.356-0.35 0.712-0.694 1.081-1.019l1.331-1.188 1.331 1.188c0.069 0.056 0.131 0.131 0.194 0.194-0.006-0.050 0.013-0.094 0-0.144l-1.5-6c-0.106-0.444-0.506-0.756-0.962-0.756h-6.181l0.769 3.844 0.744 0.662zM1 10h6.081l1.6-8h-6.181c-0.456 0-0.856 0.313-0.969 0.756l-1.5 6c-0.156 0.631 0.319 1.244 0.969 1.244zM21.288 12h-19.288l0.25 2h-1.25c-0.55 0-1 0.45-1 1v2c0 0.55 0.45 1 1 1h1.75l1.25 10v1c0 0.55 0.45 1 1 1h2c0.55 0 1-0.45 1-1v-1h13.050c-1.887-2.106-3.050-4.869-3.050-7.9 0-2.244 1.244-5.181 3.288-8.1zM34.444 10.2c-0.931 0.831-1.769 1.7-2.512 2.575-1.219-1.613-2.725-3.25-4.438-4.775-4.387 3.919-7.5 9.019-7.5 12.1 0 5.469 4.475 9.9 10 9.9s10-4.431 10-9.9c0.006-2.288-2.313-7.012-5.55-9.9zM33.281 24.538c-0.919 0.669-2.056 1.063-3.281 1.063-3.063 0-5.556-2.094-5.556-5.5 0-1.694 1.031-3.188 3.087-5.744 0.294 0.35 4.194 5.506 4.194 5.506l2.487-2.938c0.175 0.3 0.337 0.594 0.481 0.875 1.163 2.294 0.675 5.225-1.413 6.738z"></path>
</svg>
