<!-- Generated by IcoMoon.io -->
<svg version="1.1" xmlns="http://www.w3.org/2000/svg" width="32" height="32" viewBox="0 0 32 32">
<title>dungeon-solid</title>
<path d="M8.046 12.207l-5.176-3.235c-0.502-0.314-1.187-0.136-1.433 0.403-0.765 1.632-1.268 3.531-1.401 5.531l-0.003 0.048c-0.037 0.568 0.441 1.045 1.009 1.045h6.071c0.497 0 0.88-0.391 0.938-0.885 0.068-0.583 0.203-1.146 0.39-1.684 0.16-0.459 0.016-0.966-0.396-1.224zM19.939 0.5c-1.261-0.324-2.579-0.5-3.939-0.5s-2.679 0.176-3.939 0.5c-0.573 0.147-0.869 0.788-0.649 1.337l2.342 6.502c0.143 0.389 0.51 0.661 0.941 0.661h2.613c0.422 0 0.798-0.264 0.941-0.661l2.342-6.502c0.22-0.549-0.076-1.189-0.649-1.337zM7 18h-6c-0.552 0-1 0.448-1 1v4c0 0.552 0.448 1 1 1h6c0.553 0 1-0.448 1-1v-4c0-0.552-0.447-1-1-1zM7 26h-6c-0.552 0-1 0.448-1 1v4c0 0.552 0.448 1 1 1h6c0.553 0 1-0.448 1-1v-4c0-0.552-0.447-1-1-1zM11.832 8.271l-2.27-5.675c-0.221-0.552-0.883-0.812-1.401-0.519-1.748 0.999-3.23 2.247-4.455 3.717l-0.021 0.026c-0.379 0.458-0.241 1.155 0.264 1.47l5.183 3.239c0.407 0.254 0.916 0.164 1.257-0.174 0.324-0.322 0.674-0.616 1.049-0.878 0.393-0.276 0.572-0.761 0.394-1.206zM24.886 16h6.071c0.569 0 1.046-0.477 1.009-1.045-0.135-2.048-0.639-3.947-1.444-5.677l0.041 0.098c-0.246-0.539-0.931-0.717-1.433-0.403l-5.176 3.235c-0.412 0.258-0.556 0.765-0.396 1.224 0.188 0.538 0.322 1.101 0.39 1.684 0.058 0.494 0.441 0.885 0.938 0.885zM28.314 5.819c-1.245-1.496-2.727-2.744-4.397-3.702l-0.078-0.041c-0.517-0.292-1.18-0.033-1.401 0.519l-2.27 5.675c-0.178 0.445 0.001 0.93 0.394 1.205 0.375 0.262 0.726 0.556 1.049 0.878 0.34 0.338 0.85 0.429 1.257 0.174l5.183-3.239c0.504-0.314 0.643-1.012 0.264-1.469zM31 18h-6c-0.552 0-1 0.448-1 1v4c0 0.552 0.448 1 1 1h6c0.552 0 1-0.448 1-1v-4c0-0.552-0.448-1-1-1zM31 26h-6c-0.552 0-1 0.448-1 1v4c0 0.552 0.448 1 1 1h6c0.552 0 1-0.448 1-1v-4c0-0.552-0.448-1-1-1zM15 11.101v18.399c0 0.276 0.224 0.5 0.5 0.5h1c0.276 0 0.5-0.224 0.5-0.5v-18.399c-0.327-0.056-0.657-0.101-1-0.101s-0.673 0.046-1 0.101zM11 13.696v15.804c0 0.276 0.224 0.5 0.5 0.5h1c0.276 0 0.5-0.224 0.5-0.5v-17.665c-0.799 0.466-1.49 1.092-2 1.861zM19 11.835v17.665c0 0.276 0.224 0.5 0.5 0.5h1c0.276 0 0.5-0.224 0.5-0.5v-15.804c-0.51-0.769-1.201-1.395-2-1.861z"></path>
</svg>
