<!-- Generated by IcoMoon.io -->
<svg version="1.1" xmlns="http://www.w3.org/2000/svg" width="32" height="32" viewBox="0 0 32 32">
<title>dungeon</title>
<path d="M15 11.101v18.399c0 0.276 0.224 0.5 0.5 0.5h1c0.276 0 0.5-0.224 0.5-0.5v-18.399c-0.327-0.056-0.657-0.101-1-0.101s-0.673 0.046-1 0.101zM11 13.696v15.804c0 0.276 0.224 0.5 0.5 0.5h1c0.276 0 0.5-0.224 0.5-0.5v-17.665c-0.799 0.466-1.49 1.092-2 1.861zM32 18.5c0-0.567-0.19-1.092-0.51-1.512 0.341-0.457 0.521-1.023 0.499-1.593-0.082-2.199-0.61-4.323-1.568-6.311-0.281-0.582-0.78-1.026-1.371-1.249 0.054-0.634-0.135-1.268-0.532-1.766-1.334-1.678-2.961-3.052-4.835-4.083-0.346-0.193-0.759-0.308-1.199-0.308h-0c-0.216 0-0.427 0.028-0.631 0.082-0.323-0.551-0.847-0.961-1.462-1.137-1.434-0.412-2.912-0.622-4.39-0.622s-2.956 0.209-4.391 0.622c-0.614 0.176-1.139 0.586-1.462 1.137-0.204-0.054-0.415-0.082-0.631-0.082-0.418 0-0.833 0.106-1.199 0.308-1.875 1.031-3.502 2.405-4.836 4.084-0.396 0.499-0.585 1.132-0.531 1.766-0.592 0.224-1.091 0.667-1.371 1.249-0.958 1.988-1.485 4.111-1.568 6.312-0.022 0.57 0.158 1.136 0.499 1.593-0.318 0.413-0.51 0.939-0.51 1.508 0 0.001 0 0.002 0 0.004v-0 4c0 0.563 0.187 1.082 0.501 1.5-0.314 0.418-0.501 0.938-0.501 1.5v4c0 1.378 1.121 2.5 2.5 2.5h4c1.379 0 2.5-1.122 2.5-2.5v-4c0-0.563-0.187-1.082-0.501-1.5 0.314-0.418 0.501-0.938 0.501-1.5v-4c0-0.558-0.183-1.073-0.492-1.489 0.289-0.379 0.473-0.852 0.502-1.366l0-0.007c0.044-0.784 0.234-1.57 0.564-2.338 0.166-0.387 0.229-0.793 0.2-1.186 0.375-0.145 0.715-0.38 0.986-0.691 0.456-0.521 0.986-0.971 1.576-1.338 0.356-0.221 0.64-0.519 0.84-0.861 0.196 0.048 0.401 0.074 0.611 0.074 0.211 0 0.421-0.026 0.626-0.079 0.589-0.151 1.092-0.221 1.587-0.221s0.999 0.070 1.588 0.221c0.205 0.053 0.416 0.079 0.626 0.079s0.414-0.025 0.611-0.074c0.2 0.341 0.484 0.639 0.84 0.861 0.59 0.367 1.12 0.817 1.576 1.338 0.272 0.311 0.612 0.546 0.987 0.691-0.030 0.393 0.034 0.799 0.2 1.186 0.33 0.768 0.519 1.554 0.564 2.337 0.029 0.516 0.212 0.988 0.503 1.372-0.308 0.409-0.492 0.926-0.492 1.486 0 0.001 0 0.002 0 0.003v-0 4c0 0.563 0.187 1.082 0.501 1.5-0.314 0.418-0.501 0.938-0.501 1.5v4c0 1.378 1.121 2.5 2.5 2.5h4c1.379 0 2.5-1.122 2.5-2.5v-4c0-0.563-0.187-1.082-0.501-1.5 0.314-0.418 0.501-0.938 0.501-1.5v-3.999zM7 29.5c0 0.276-0.224 0.5-0.5 0.5h-4c-0.276 0-0.5-0.224-0.5-0.5v-4c0-0.276 0.224-0.5 0.5-0.5h4c0.276 0 0.5 0.224 0.5 0.5v4zM7 22.5c0 0.276-0.224 0.5-0.5 0.5h-4c-0.276 0-0.5-0.224-0.5-0.5v-4c0-0.276 0.224-0.5 0.5-0.5h4c0.276 0 0.5 0.224 0.5 0.5v4zM7.736 12.511c-0.402 0.937-0.663 1.947-0.723 3.014-0.015 0.264-0.219 0.474-0.484 0.474h-4.004c-0.286 0-0.526-0.244-0.516-0.529 0.074-1.971 0.561-3.836 1.371-5.519 0.087-0.18 0.27-0.281 0.458-0.281 0.094 0 0.188 0.025 0.273 0.078l3.44 2.15c0.207 0.13 0.281 0.387 0.184 0.613zM11.28 8.388c-0.776 0.486-1.443 1.056-2.016 1.709l-0.009 0.010c-0.099 0.114-0.238 0.175-0.378 0.175-0.087 0-0.175-0.024-0.255-0.074l-3.438-2.149c-0.254-0.159-0.322-0.513-0.136-0.748 1.158-1.449 2.564-2.645 4.162-3.539l0.071-0.037c0.075-0.041 0.156-0.060 0.236-0.060 0.204 0 0.403 0.124 0.482 0.327l1.487 3.786c0.088 0.225-0.002 0.472-0.207 0.599zM18.679 6.992c-0.076 0.192-0.265 0.307-0.466 0.307-0.044 0-0.087-0.005-0.131-0.016-0.739-0.189-1.413-0.282-2.083-0.282-0.674 0-1.346 0.095-2.081 0.282-0.044 0.011-0.088 0.016-0.131 0.016-0.201 0-0.389-0.114-0.465-0.308l-1.483-3.776c-0.107-0.274 0.040-0.592 0.323-0.673 1.219-0.35 2.506-0.543 3.838-0.543s2.618 0.193 3.839 0.544c0.283 0.081 0.431 0.399 0.323 0.673l-1.483 3.776zM23.378 10.209c-0.080 0.050-0.168 0.074-0.255 0.074-0.141 0-0.279-0.061-0.378-0.175-0.582-0.663-1.249-1.232-1.988-1.697l-0.037-0.022c-0.204-0.127-0.294-0.374-0.207-0.598l1.487-3.786c0.079-0.203 0.279-0.328 0.483-0.328 0.080 0 0.161 0.019 0.236 0.060 1.669 0.93 3.075 2.126 4.211 3.548l0.022 0.028c0.187 0.235 0.119 0.589-0.136 0.748l-3.438 2.148zM24.264 12.511c-0.097-0.226-0.023-0.482 0.185-0.613l3.44-2.15c0.077-0.049 0.171-0.078 0.272-0.078 0.001 0 0.001 0 0.002 0h-0c0.188 0 0.371 0.101 0.457 0.281 0.811 1.682 1.297 3.548 1.371 5.519 0.011 0.286-0.23 0.529-0.516 0.529h-4.004c-0.264 0-0.469-0.21-0.484-0.474-0.061-1.067-0.321-2.077-0.724-3.014zM30 29.5c0 0.276-0.224 0.5-0.5 0.5h-4c-0.276 0-0.5-0.224-0.5-0.5v-4c0-0.276 0.224-0.5 0.5-0.5h4c0.276 0 0.5 0.224 0.5 0.5v4zM30 22.5c0 0.276-0.224 0.5-0.5 0.5h-4c-0.276 0-0.5-0.224-0.5-0.5v-4c0-0.276 0.224-0.5 0.5-0.5h4c0.276 0 0.5 0.224 0.5 0.5v4zM19 11.835v17.665c0 0.276 0.224 0.5 0.5 0.5h1c0.276 0 0.5-0.224 0.5-0.5v-15.804c-0.51-0.769-1.201-1.395-2-1.861z"></path>
</svg>
