<!-- Generated by IcoMoon.io -->
<svg version="1.1" xmlns="http://www.w3.org/2000/svg" width="24" height="32" viewBox="0 0 24 32">
<title>ear-solid</title>
<path d="M12 0c-6.628 0-12 5.372-12 12v11c0 4.971 4.029 9 9 9s9-4.029 9-9v-0.619c3.583-2.076 6-5.942 6-10.381 0-6.628-5.372-12-12-12zM20 12.5c0 0.276-0.224 0.5-0.5 0.5h-1c-0.276 0-0.5-0.224-0.5-0.5v-0.5c0-3.309-2.691-6-6-6s-6 2.691-6 6c0 1.102 0.897 2 2 2h2c2.206 0 4 1.794 4 4s-1.794 4-4 4h-0.5c-0.276 0-0.5-0.224-0.5-0.5v-1c0-0.276 0.224-0.5 0.5-0.5h0.5c1.102 0 2-0.898 2-2s-0.898-2-2-2h-2c-2.206 0-4-1.794-4-4 0-4.411 3.589-8 8-8s8 3.589 8 8v0.5z"></path>
</svg>
