<!-- Generated by IcoMoon.io -->
<svg version="1.1" xmlns="http://www.w3.org/2000/svg" width="40" height="32" viewBox="0 0 40 32">
<title>ear-muffs-solid</title>
<path d="M9.5 14c-0.744 0-1.394 0.338-1.85 0.856-0.662-0.431-1.487-0.581-2.275-0.275-0.737 0.3-1.263 0.919-1.481 1.638-0.737-0.019-1.462 0.3-1.981 0.9-0.5 0.619-0.662 1.381-0.519 2.1-0.637 0.319-1.163 0.919-1.319 1.681-0.181 0.762 0.019 1.5 0.463 2.081-0.438 0.563-0.637 1.319-0.481 2.081 0.181 0.762 0.681 1.363 1.337 1.7-0.163 0.7 0 1.481 0.5 2.081 0.5 0.619 1.238 0.919 1.981 0.919 0.2 0.719 0.719 1.319 1.462 1.637 0.319 0.119 0.619 0.181 0.938 0.181 0.494 0 0.975-0.15 1.381-0.425 0.456 0.512 1.106 0.844 1.844 0.844 1.381 0 2.5-1.119 2.5-2.5 0-0.625-0.25-1.181-0.631-1.619 0.381-0.438 0.631-0.994 0.631-1.619 0-0.619-0.219-1.2-0.6-1.637 0.381-0.438 0.6-1 0.6-1.619s-0.219-1.181-0.6-1.619c0.381-0.438 0.6-1 0.6-1.619 0-0.637-0.256-1.194-0.637-1.631 0.381-0.438 0.637-1 0.637-1.625 0-1.394-1.119-2.512-2.5-2.512zM39.944 20.938c-0.181-0.762-0.681-1.363-1.337-1.681 0.163-0.719 0-1.5-0.5-2.1-0.5-0.619-1.237-0.919-1.981-0.919-0.2-0.719-0.719-1.338-1.462-1.637-0.794-0.313-1.631-0.156-2.3 0.281-0.456-0.525-1.113-0.881-1.869-0.881-1.381 0-2.5 1.119-2.5 2.5 0 0.631 0.256 1.188 0.637 1.625-0.381 0.438-0.637 0.994-0.637 1.631 0 0.619 0.219 1.181 0.6 1.619-0.381 0.438-0.6 1-0.6 1.619s0.219 1.181 0.6 1.619c-0.381 0.438-0.6 1-0.6 1.619 0 0.637 0.256 1.194 0.637 1.631-0.381 0.438-0.637 1-0.637 1.625 0 1.381 1.119 2.5 2.5 2.5 0.731 0 1.375-0.325 1.831-0.825 0.406 0.262 0.881 0.406 1.375 0.406 0.3 0 0.619-0.038 0.919-0.181 0.737-0.281 1.263-0.9 1.462-1.619 0.737 0.019 1.481-0.3 2-0.9 0.5-0.619 0.663-1.381 0.519-2.1 0.638-0.319 1.138-0.919 1.319-1.681s-0.019-1.519-0.462-2.081c0.45-0.544 0.65-1.306 0.487-2.069zM31.644 12.156c0.356 0.1 0.706 0.238 1.031 0.425 0.369-0.094 0.744-0.144 1.125-0.144 0.331 0 0.656 0.050 0.981 0.125-1.169-7.112-7.344-12.563-14.781-12.563s-13.606 5.444-14.781 12.556c0.331-0.081 0.669-0.131 1.013-0.131 0.381 0 0.756 0.050 1.125 0.144 0.319-0.175 0.656-0.313 1-0.406 1.281-5.25 6.006-9.162 11.644-9.162s10.363 3.912 11.644 9.156z"></path>
</svg>
