<!-- Generated by IcoMoon.io -->
<svg version="1.1" xmlns="http://www.w3.org/2000/svg" width="40" height="32" viewBox="0 0 40 32">
<title>ear-muffs</title>
<path d="M40 22c0-0.944-0.381-1.806-1-2.438 0.025-1.506-0.9-2.813-2.237-3.331-0.45-1.156-1.506-1.975-2.763-2.156v-0.075c0-7.719-6.281-14-14-14s-14 6.281-14 14v0.075c-1.263 0.188-2.313 1.006-2.763 2.156-1.331 0.525-2.263 1.825-2.237 3.331-0.619 0.631-1 1.494-1 2.438 0 0.344 0.050 0.675 0.15 1-0.1 0.325-0.15 0.656-0.15 1 0 0.944 0.381 1.806 1 2.438-0.025 1.506 0.9 2.813 2.237 3.331 0.506 1.3 1.775 2.231 3.263 2.231 0.344 0 0.675-0.050 1-0.15 0.325 0.1 0.656 0.15 1 0.15 1.931 0 3.5-1.569 3.5-3.5 0-0.481-0.1-0.95-0.281-1.375 0.137-0.325 0.556-1.444 0-2.75 0.137-0.325 0.556-1.444 0-2.75 0.137-0.325 0.556-1.444 0-2.75 0.181-0.425 0.281-0.894 0.281-1.375 0-1.931-1.569-3.5-3.5-3.5-0.169 0-0.331 0.050-0.5 0.075v-0.075c0-6.619 5.381-12 12-12s12 5.381 12 12v0.075c-0.169-0.025-0.331-0.075-0.5-0.075-1.931 0-3.5 1.569-3.5 3.5 0 0.481 0.1 0.95 0.281 1.375-0.137 0.325-0.556 1.444 0 2.75-0.137 0.325-0.556 1.444 0 2.75-0.137 0.325-0.556 1.444 0 2.75-0.181 0.425-0.281 0.894-0.281 1.375 0 1.931 1.569 3.5 3.5 3.5 0.344 0 0.675-0.050 1-0.15 0.325 0.1 0.656 0.15 1 0.15 1.481 0 2.756-0.931 3.263-2.238 1.331-0.519 2.263-1.819 2.237-3.331 0.619-0.631 1-1.494 1-2.438 0-0.344-0.050-0.675-0.15-1 0.1-0.319 0.15-0.65 0.15-0.994zM8.5 16c0.831 0 1.5 0.669 1.5 1.5 0 0.619-0.375 1.144-0.906 1.375 0.531 0.231 0.906 0.756 0.906 1.375s-0.375 1.144-0.906 1.375c0.531 0.231 0.906 0.756 0.906 1.375s-0.375 1.144-0.906 1.375c0.531 0.231 0.906 0.756 0.906 1.375s-0.375 1.144-0.906 1.375c0.531 0.231 0.906 0.756 0.906 1.375 0 0.831-0.669 1.5-1.5 1.5-0.387 0-0.731-0.156-1-0.4-0.269 0.244-0.612 0.4-1 0.4-0.831 0-1.5-0.669-1.5-1.5 0-0.25 0.075-0.481 0.188-0.688-0.206 0.113-0.438 0.188-0.688 0.188-0.831 0-1.5-0.669-1.5-1.5 0-0.394 0.163-0.75 0.413-1.019-0.788-0.050-1.413-0.688-1.413-1.481 0-0.387 0.156-0.731 0.4-1-0.244-0.269-0.4-0.613-0.4-1 0-0.794 0.625-1.431 1.413-1.481-0.25-0.269-0.413-0.625-0.413-1.019 0-0.831 0.669-1.5 1.5-1.5 0.25 0 0.481 0.075 0.688 0.188-0.112-0.206-0.188-0.438-0.188-0.688 0-0.831 0.669-1.5 1.5-1.5 0.388 0 0.731 0.156 1 0.4 0.269-0.244 0.613-0.4 1-0.4zM38 24c0 0.794-0.625 1.431-1.413 1.481 0.25 0.269 0.413 0.625 0.413 1.019 0 0.831-0.669 1.5-1.5 1.5-0.25 0-0.481-0.075-0.688-0.188 0.112 0.206 0.188 0.438 0.188 0.688 0 0.831-0.669 1.5-1.5 1.5-0.388 0-0.731-0.156-1-0.4-0.269 0.244-0.613 0.4-1 0.4-0.831 0-1.5-0.669-1.5-1.5 0-0.619 0.375-1.144 0.906-1.375-0.531-0.231-0.906-0.756-0.906-1.375s0.375-1.144 0.906-1.375c-0.531-0.231-0.906-0.756-0.906-1.375s0.375-1.144 0.906-1.375c-0.531-0.231-0.906-0.756-0.906-1.375s0.375-1.144 0.906-1.375c-0.531-0.231-0.906-0.756-0.906-1.375 0-0.831 0.669-1.5 1.5-1.5 0.387 0 0.731 0.156 1 0.4 0.269-0.244 0.612-0.4 1-0.4 0.831 0 1.5 0.669 1.5 1.5 0 0.25-0.075 0.481-0.188 0.688 0.206-0.113 0.438-0.188 0.688-0.188 0.831 0 1.5 0.669 1.5 1.5 0 0.394-0.163 0.75-0.413 1.019 0.788 0.050 1.413 0.688 1.413 1.481 0 0.387-0.156 0.731-0.4 1 0.244 0.269 0.4 0.613 0.4 1z"></path>
</svg>
