<!-- Generated by IcoMoon.io -->
<svg version="1.1" xmlns="http://www.w3.org/2000/svg" width="24" height="32" viewBox="0 0 24 32">
<title>ear</title>
<path d="M12 6c-3.309 0-6 2.691-6 6 0 2.206 1.795 4 4 4 1.104 0 2 0.898 2 2s-0.896 2-2 2h-1.5c-0.276 0-0.5 0.224-0.5 0.5v1c0 0.276 0.224 0.5 0.5 0.5h1.5c2.205 0 4-1.794 4-4s-1.795-4-4-4c-1.104 0-2-0.898-2-2 0-2.206 1.795-4 4-4s4 1.794 4 4v1.5c0 0.276 0.224 0.5 0.5 0.5h1c0.276 0 0.5-0.224 0.5-0.5v-1.5c0-3.309-2.691-6-6-6zM12 0c-6.628 0-12 5.372-12 12v11c0 4.971 4.029 9 9 9s9-4.029 9-9v-0.619c3.583-2.076 6-5.942 6-10.381 0-6.628-5.372-12-12-12zM16.997 20.651l-0.998 0.578v1.771c0 3.86-3.14 7-7 7s-7-3.14-7-7v-11c0-5.514 4.486-10 10-10s10 4.486 10 10c0 3.549-1.917 6.863-5.003 8.651z"></path>
</svg>
