<!-- Generated by IcoMoon.io -->
<svg version="1.1" xmlns="http://www.w3.org/2000/svg" width="40" height="32" viewBox="0 0 40 32">
<title>eclipse-solid</title>
<path d="M29 5c-6.075 0-11 4.925-11 11s4.925 11 11 11 11-4.925 11-11-4.925-11-11-11zM10.344 21.656c-3.119-3.119-3.119-8.194 0-11.313 2.194-2.194 5.344-2.813 8.113-1.919 0.469-0.65 0.988-1.256 1.569-1.806l-3.056-6.019c-0.4-0.8-1.537-0.8-1.938 0l-2.956 5.919-6.281-2.094c-0.85-0.281-1.656 0.525-1.369 1.369l2.094 6.275-5.919 2.963c-0.8 0.4-0.8 1.537 0 1.937l5.919 2.956-2.094 6.281c-0.281 0.85 0.525 1.656 1.369 1.369l6.275-2.094 2.956 5.919c0.4 0.8 1.538 0.8 1.938 0l2.956-5.919 0.331 0.113c-0.669-0.606-1.269-1.281-1.8-2.019-2.762 0.894-5.912 0.275-8.106-1.919zM16 10c-3.306 0-6 2.694-6 6s2.694 6 6 6c0.481 0 0.944-0.075 1.394-0.181-0.887-1.75-1.394-3.725-1.394-5.819s0.506-4.069 1.394-5.819c-0.45-0.106-0.913-0.181-1.394-0.181z"></path>
</svg>
