<!-- Generated by IcoMoon.io -->
<svg version="1.1" xmlns="http://www.w3.org/2000/svg" width="32" height="32" viewBox="0 0 32 32">
<title>eclipse-alt-solid</title>
<path d="M31.4 15.031l-5.919-2.956 2.094-6.275c0.281-0.85-0.525-1.656-1.369-1.369l-6.275 2.094-2.962-5.925c-0.4-0.8-1.537-0.8-1.938 0l-2.956 5.919-6.281-2.094c-0.85-0.281-1.656 0.525-1.369 1.369l2.094 6.275-5.919 2.963c-0.8 0.4-0.8 1.538 0 1.938l5.919 2.956-2.094 6.281c-0.281 0.85 0.525 1.656 1.369 1.369l6.275-2.094 2.956 5.919c0.4 0.8 1.538 0.8 1.938 0l2.956-5.919 6.275 2.094c0.85 0.281 1.656-0.525 1.369-1.369l-2.094-6.275 5.919-2.956c0.813-0.406 0.813-1.544 0.012-1.944zM21.656 21.656c-3.119 3.119-8.194 3.119-11.313 0s-3.119-8.194 0-11.313 8.194-3.119 11.313 0c3.119 3.119 3.119 8.194 0 11.313zM20.381 19.325c-2.906 0.556-5.581-1.675-5.581-4.619 0-1.694 0.906-3.25 2.375-4.088 0.225-0.131 0.169-0.475-0.087-0.519-0.363-0.069-0.725-0.1-1.094-0.1-3.306 0-5.994 2.681-5.994 6 0 3.313 2.681 6 5.994 6 1.85 0 3.538-0.844 4.656-2.219 0.169-0.206-0.012-0.506-0.269-0.456z"></path>
</svg>
