<!-- Generated by IcoMoon.io -->
<svg version="1.1" xmlns="http://www.w3.org/2000/svg" width="40" height="32" viewBox="0 0 40 32">
<title>eclipse</title>
<path d="M16 29.212l-3.025-4.475c-0.188-0.275-0.5-0.438-0.825-0.438-0.063 0-0.125 0.006-0.188 0.019l-5.3 1.025 1.025-5.3c0.075-0.394-0.088-0.794-0.425-1.019l-4.475-3.025 4.475-3.025c0.331-0.225 0.5-0.625 0.425-1.019l-1.025-5.3 5.3 1.025c0.387 0.069 0.794-0.094 1.019-0.425l3.019-4.469 2.194 3.244c0.475-0.469 0.994-0.9 1.538-1.294l-2.906-4.3c-0.188-0.275-0.494-0.438-0.825-0.438s-0.644 0.163-0.825 0.438l-3.488 5.15-6.106-1.175c-0.325-0.063-0.662 0.044-0.894 0.275s-0.338 0.569-0.275 0.894l1.175 6.106-5.15 3.488c-0.275 0.188-0.438 0.494-0.438 0.825s0.163 0.644 0.438 0.825l5.15 3.488-1.181 6.106c-0.063 0.325 0.044 0.663 0.275 0.894s0.575 0.337 0.894 0.275l6.106-1.181 3.487 5.15c0.188 0.275 0.494 0.438 0.825 0.438s0.644-0.163 0.825-0.438l2.9-4.288c-0.544-0.4-1.063-0.825-1.538-1.294l-2.181 3.238zM14.887 11.137c0.275-0.738 0.606-1.444 0.994-2.119-1.781 0.025-3.494 0.694-4.831 2.031-2.363 2.362-2.719 5.875-0.906 8.95 0.45 0.762 1.094 1.4 1.856 1.856 1.256 0.744 2.594 1.113 3.894 1.137-0.394-0.675-0.725-1.381-1-2.125-0.6-0.125-1.231-0.356-1.875-0.738-0.469-0.275-0.875-0.681-1.15-1.15-1.619-2.744-0.694-5.225 0.6-6.519 0.588-0.581 1.425-1.094 2.419-1.325zM28 4c-6.625 0-12 5.375-12 12s5.375 12 12 12 12-5.375 12-12-5.375-12-12-12zM28 26c-5.512 0-10-4.488-10-10s4.488-10 10-10 10 4.488 10 10-4.487 10-10 10z"></path>
</svg>
