<!-- Generated by IcoMoon.io -->
<svg version="1.1" xmlns="http://www.w3.org/2000/svg" width="32" height="32" viewBox="0 0 32 32">
<title>eclipse-alt</title>
<path d="M32 16c0-0.331-0.163-0.644-0.438-0.825l-5.156-3.488 1.181-6.106c0.063-0.325-0.044-0.662-0.275-0.894s-0.569-0.331-0.894-0.275l-6.106 1.175-3.488-5.15c-0.188-0.275-0.494-0.438-0.825-0.438s-0.644 0.163-0.825 0.438l-3.488 5.15-6.106-1.175c-0.325-0.063-0.662 0.044-0.894 0.275s-0.338 0.569-0.275 0.894l1.175 6.106-5.15 3.488c-0.275 0.188-0.438 0.494-0.438 0.825s0.163 0.644 0.438 0.825l5.15 3.488-1.181 6.106c-0.063 0.325 0.044 0.663 0.275 0.894s0.569 0.337 0.894 0.275l6.106-1.181 3.487 5.15c0.188 0.275 0.494 0.438 0.825 0.438s0.644-0.163 0.825-0.438l3.488-5.15 6.106 1.181c0.325 0.063 0.663-0.044 0.894-0.275s0.337-0.569 0.275-0.894l-1.169-6.106 5.15-3.488c0.275-0.181 0.438-0.494 0.438-0.825zM24.744 19.025c-0.331 0.225-0.5 0.625-0.425 1.019l1.025 5.3-5.3-1.025c-0.394-0.075-0.794 0.094-1.019 0.425l-3.025 4.469-3.025-4.475c-0.188-0.275-0.5-0.438-0.825-0.438-0.063 0-0.125 0.006-0.188 0.019l-5.3 1.025 1.025-5.3c0.075-0.394-0.088-0.794-0.425-1.019l-4.475-3.025 4.475-3.025c0.331-0.225 0.5-0.625 0.425-1.019l-1.025-5.3 5.3 1.025c0.387 0.069 0.794-0.094 1.019-0.425l3.019-4.469 3.025 4.475c0.225 0.331 0.631 0.494 1.019 0.425l5.3-1.025-1.025 5.3c-0.075 0.394 0.087 0.794 0.425 1.019l4.475 3.025-4.475 3.019zM20.438 18.319c-0.063 0-0.181 0.012-0.244 0.025-0.231 0.044-0.469 0.069-0.706 0.069-2.031 0-3.688-1.663-3.688-3.7 0-1.325 0.719-2.563 1.869-3.219 0.475-0.269 0.719-0.787 0.631-1.325s-0.494-0.95-1.031-1.044c-0.419-0.075-0.85-0.119-1.275-0.119-3.856-0.006-6.994 3.131-6.994 6.994s3.137 7 6.994 7c2.119 0 4.1-0.944 5.431-2.594 0.313-0.387 0.375-0.906 0.163-1.356-0.212-0.444-0.663-0.731-1.15-0.731zM15.994 21c-2.756 0-4.994-2.244-4.994-5 0-2.456 1.775-4.5 4.106-4.919-0.813 0.978-1.306 2.247-1.306 3.631v0c0 2.806 2.037 5.15 4.706 5.619-0.756 0.431-1.619 0.669-2.512 0.669z"></path>
</svg>
