<!-- Generated by IcoMoon.io -->
<svg version="1.1" xmlns="http://www.w3.org/2000/svg" width="36" height="32" viewBox="0 0 36 32">
<title>edit-solid</title>
<path d="M25.163 5.2l5.637 5.638c0.238 0.238 0.238 0.625 0 0.863l-13.65 13.65-5.8 0.644c-0.775 0.087-1.431-0.569-1.344-1.344l0.644-5.8 13.65-13.65c0.238-0.237 0.625-0.237 0.863 0zM35.288 3.769l-3.050-3.050c-0.95-0.95-2.494-0.95-3.45 0l-2.212 2.212c-0.238 0.237-0.238 0.625 0 0.863l5.637 5.638c0.237 0.238 0.625 0.238 0.862 0l2.212-2.213c0.95-0.956 0.95-2.5 0-3.45zM24 21.637v6.363h-20v-20h14.363c0.2 0 0.387-0.081 0.531-0.219l2.5-2.5c0.475-0.475 0.137-1.281-0.531-1.281h-17.863c-1.656 0-3 1.344-3 3v22c0 1.656 1.344 3 3 3h22c1.656 0 3-1.344 3-3v-9.863c0-0.669-0.806-1-1.281-0.531l-2.5 2.5c-0.137 0.144-0.219 0.331-0.219 0.531z"></path>
</svg>
