<!-- Generated by IcoMoon.io -->
<svg version="1.1" xmlns="http://www.w3.org/2000/svg" width="36" height="32" viewBox="0 0 36 32">
<title>edit</title>
<path d="M26.113 19.719l1.25-1.25c0.238-0.238 0.637-0.069 0.637 0.262v10.269c0 1.656-1.344 3-3 3h-22c-1.656 0-3-1.344-3-3v-22c0-1.656 1.344-3 3-3h18.269c0.331 0 0.5 0.406 0.262 0.638l-1.25 1.25c-0.069 0.069-0.169 0.112-0.262 0.112h-17.019c-0.55 0-1 0.45-1 1v22c0 0.55 0.45 1 1 1h22c0.55 0 1-0.45 1-1v-9.019c0-0.1 0.038-0.194 0.113-0.262zM35.231 7.769l-19.531 19.531-6.244 0.694c-0.838 0.094-1.544-0.613-1.45-1.45l0.694-6.244 19.531-19.531c1.025-1.025 2.688-1.025 3.712 0l3.288 3.287c1.025 1.025 1.025 2.688 0 3.713zM29.381 10.794l-4.169-4.169-14.6 14.594-0.519 4.694 4.694-0.519 14.594-14.6zM33.819 5.469l-3.288-3.288c-0.238-0.238-0.637-0.25-0.881 0l-3.025 3.025 4.169 4.169 3.025-3.025c0.244-0.237 0.244-0.638 0-0.881z"></path>
</svg>
