<!-- Generated by IcoMoon.io -->
<svg version="1.1" xmlns="http://www.w3.org/2000/svg" width="32" height="32" viewBox="0 0 32 32">
<title>egg-fried</title>
<path d="M14 7.008c-4.41 0-8 3.592-8 8.009s3.588 8.007 8 8.007 8-3.592 8-8.008-3.588-8.009-8-8.009zM14 21.023c-3.314-0.005-5.998-2.692-6-6.005v-0c0-3.313 2.692-6.008 6-6.008s6 2.696 6 6.008c-0.002 3.314-2.686 6-6 6.006h-0.001zM14 10.511c-2.485 0.005-4.499 2.020-4.5 4.505v0c0 0.552 0.448 1 1 1s1-0.448 1-1v0c0.001-1.381 1.119-2.501 2.5-2.504h0c0.552 0 1-0.448 1-1s-0.448-1-1-1v0zM29.895 9.403c-2.469-2.544-6.296-2.893-9.024-5.14s-4.894-4.263-8.336-4.263c-0.557 0.002-1.101 0.049-1.631 0.139l0.058-0.008c-5.424 0.875-6.982 5-7.813 9.821-0.694 4.021-3.401 7.938-3.125 12.057s3.302 8.028 7.186 9.422c1.102 0.395 2.114 0.569 3.058 0.569 4.041 0 6.809-3.199 9.732-5.973 2.73-2.59 5.837-2.357 8.808-4.618 3.518-2.676 4.482-8.784 1.087-12.006zM29.99 14.985c-0.106 1.938-1.022 3.788-2.392 4.83-1.133 0.862-2.346 1.305-3.631 1.775-1.675 0.612-3.574 1.306-5.343 2.984-0.342 0.324-0.682 0.654-1.022 0.985-2.349 2.282-4.569 4.438-7.335 4.438-0.756 0-1.535-0.148-2.383-0.453-3.183-1.141-5.651-4.366-5.87-7.669-0.135-2.030 0.667-4.153 1.516-6.401 0.625-1.661 1.276-3.379 1.587-5.182 0.944-5.461 2.556-7.604 6.162-8.184 0.375-0.066 0.809-0.105 1.252-0.108h0.003c2.474 0 4.155 1.394 6.481 3.324l0.584 0.488c1.479 1.218 3.125 1.916 4.716 2.592s3.094 1.313 4.203 2.454c1.403 1.329 1.524 3.156 1.471 4.126z"></path>
</svg>
