<!-- Generated by IcoMoon.io -->
<svg version="1.1" xmlns="http://www.w3.org/2000/svg" width="32" height="32" viewBox="0 0 32 32">
<title>egg-fried-solid</title>
<path d="M29.895 9.403c-2.469-2.544-6.296-2.893-9.024-5.14-3.113-2.563-5.508-4.841-9.909-4.132-5.424 0.875-6.982 5-7.813 9.821-0.694 4.021-3.401 7.938-3.125 12.057s3.302 8.027 7.186 9.421c5.813 2.087 9.184-1.982 12.79-5.403 2.73-2.59 5.837-2.357 8.808-4.618 3.518-2.676 4.482-8.784 1.087-12.006zM14 22.024c-3.859 0-7-3.144-7-7.007s3.141-7.008 7-7.008 7 3.143 7 7.008-3.137 7.007-7 7.007zM13.5 10c-2.484 0.003-4.497 2.016-4.5 4.5v0c0 0.552 0.448 1 1 1s1-0.448 1-1v0c0.002-1.38 1.12-2.498 2.5-2.5h0c0.552 0 1-0.448 1-1s-0.448-1-1-1v0z"></path>
</svg>
