<!-- Generated by IcoMoon.io -->
<svg version="1.1" xmlns="http://www.w3.org/2000/svg" width="28" height="32" viewBox="0 0 28 32">
<title>eject</title>
<path d="M27.208 14.973l-10.996-12c-1.188-1.296-3.234-1.297-4.423 0l-10.997 12c-1.759 1.919-0.397 5.027 2.211 5.027h21.993c2.603 0 3.974-3.105 2.211-5.027zM24.996 18h-21.993c-0.867 0-1.323-1.037-0.737-1.676l10.996-12c0.395-0.431 1.078-0.432 1.474-0l10.996 12.001c0.586 0.639 0.13 1.676-0.737 1.676zM28 25v2c0 1.657-1.343 3-3 3h-22c-1.657 0-3-1.343-3-3v-2c0-1.657 1.343-3 3-3h22c1.657 0 3 1.343 3 3zM25 24h-22c-0.551 0-1 0.449-1 1v2c0 0.551 0.449 1 1 1h22c0.551 0 1-0.449 1-1v-2c0-0.551-0.449-1-1-1z"></path>
</svg>
