<!-- Generated by IcoMoon.io -->
<svg version="1.1" xmlns="http://www.w3.org/2000/svg" width="40" height="32" viewBox="0 0 40 32">
<title>elephant-solid</title>
<path d="M32 2c-0.823 0-1.595 0.166-2.337 0.4-0.618-1.411-2.023-2.4-3.663-2.4-2.209 0-4 1.791-4 4 0 1.477 0.809 2.752 2 3.445v2.555c0 1.104 0.896 2 2 2h0.5c0.276 0 0.5 0.224 0.5 0.5v1c0 0.276-0.224 0.5-0.5 0.5h-0.5c-2.206 0-4-1.794-4-4v-1.55c-1.255-1.127-2-2.745-2-4.45 0-0.705 0.144-1.371 0.369-2h-8.369c-6.628 0-12 5.372-12 12v7c0 0.552 0.448 1 1 1h1v9c0 0.552 0.447 1 1 1h4c0.553 0 1-0.448 1-1v-6.741c2.022 1.097 4.42 1.741 7 1.741s4.978-0.644 7-1.741v6.741c0 0.552 0.448 1 1 1h4c0.552 0 1-0.448 1-1v-13h4c1.465 0 2.819-0.422 4-1.109v6.109c0 0.552-0.448 1-1 1s-1-0.448-1-1c0-0.552-0.447-1-1-1h-2c-0.552 0-1 0.448-1 1 0 2.929 2.532 5.279 5.523 4.973 2.601-0.266 4.477-2.654 4.477-5.269v-12.704c0-4.418-3.582-8-8-8zM33 10c-0.553 0-1-0.447-1-1s0.447-1 1-1 1 0.447 1 1-0.447 1-1 1z"></path>
</svg>
