<!-- Generated by IcoMoon.io -->
<svg version="1.1" xmlns="http://www.w3.org/2000/svg" width="40" height="32" viewBox="0 0 40 32">
<title>elephant</title>
<path d="M32 1.998h-2.863c-0.353-0.363-1.814-1.998-4.637-1.998-2.38 0-3.906 1.139-4.722 1.998h-7.777c-6.628 0-12 5.372-12 12.001v8.001h2v8.001c0 1.104 0.896 2 2 2h4c1.104 0 2-0.896 2-2v-5.001c3.027 1.513 5.192 2.404 10 0v5.001c0 1.104 0.896 2 2 2h4c1.104 0 2-0.896 2-2v-12.001h6v2h-2c-1.104 0-2 0.896-2 2v0.704c0 2.615 1.876 5.004 4.477 5.269 2.991 0.305 5.523-2.044 5.523-4.974v-13c0-4.419-3.582-8-8-8zM26 30h-4v-8.237l-2.894 1.448c-3.426 1.713-4.779 1.716-8.211 0l-2.894-1.448v8.237h-4v-10.001h-2v-6.001c0-5.514 4.486-10.001 10-10.001h6.524c-0.069 0.169-0.169 0.324-0.222 0.5-0.56 1.843-0.339 3.742 0.621 5.342 0.721 1.199 1.807 2.128 3.076 2.658 0 2.509 1.699 4.608 4 5.266v12.236zM38 22.999c0 1.654-1.346 3-3 3s-3-1.346-3-3v-1h2v1c0 0.552 0.449 1 1 1s1-0.448 1-1v-7.001h-8.5c-1.93 0-3.5-1.57-3.5-3.5v-1.332l-1.229-0.513c-1.797-0.751-3.369-2.893-2.554-5.573 0.536-1.766 2.184-3.080 4.283-3.080 2.054 0 2.92 1.101 3.794 1.998h3.707c3.309 0 6 2.692 6 6.001v13.001zM33 7.998c-0.553 0-1 0.447-1 1s0.447 1 1 1 1-0.447 1-1-0.447-1-1-1z"></path>
</svg>
