<!-- Generated by IcoMoon.io -->
<svg version="1.1" xmlns="http://www.w3.org/2000/svg" width="32" height="32" viewBox="0 0 32 32">
<title>ellipsis-h-alt</title>
<path d="M16 11.5c-2.488 0-4.5 2.012-4.5 4.5s2.012 4.5 4.5 4.5 4.5-2.012 4.5-4.5-2.012-4.5-4.5-4.5zM16 18.5c-1.381 0-2.5-1.119-2.5-2.5s1.119-2.5 2.5-2.5 2.5 1.119 2.5 2.5-1.119 2.5-2.5 2.5zM27 11.5c-2.488 0-4.5 2.012-4.5 4.5s2.012 4.5 4.5 4.5 4.5-2.012 4.5-4.5-2.012-4.5-4.5-4.5zM27 18.5c-1.381 0-2.5-1.119-2.5-2.5s1.119-2.5 2.5-2.5 2.5 1.119 2.5 2.5-1.119 2.5-2.5 2.5zM5 11.5c-2.487 0-4.5 2.012-4.5 4.5s2.013 4.5 4.5 4.5 4.5-2.012 4.5-4.5-2.013-4.5-4.5-4.5zM5 18.5c-1.381 0-2.5-1.119-2.5-2.5s1.119-2.5 2.5-2.5 2.5 1.119 2.5 2.5-1.119 2.5-2.5 2.5z"></path>
</svg>
