<!-- Generated by IcoMoon.io -->
<svg version="1.1" xmlns="http://www.w3.org/2000/svg" width="12" height="32" viewBox="0 0 12 32">
<title>ellipsis-v-alt-solid</title>
<path d="M6 15.125c0.481 0 0.875 0.394 0.875 0.875s-0.394 0.875-0.875 0.875-0.875-0.394-0.875-0.875 0.394-0.875 0.875-0.875zM6 11.5c-2.487 0-4.5 2.012-4.5 4.5s2.013 4.5 4.5 4.5 4.5-2.012 4.5-4.5-2.012-4.5-4.5-4.5zM6 4.125c0.481 0 0.875 0.394 0.875 0.875s-0.394 0.875-0.875 0.875-0.875-0.394-0.875-0.875 0.394-0.875 0.875-0.875zM6 0.5c-2.487 0-4.5 2.013-4.5 4.5s2.013 4.5 4.5 4.5 4.5-2.013 4.5-4.5-2.012-4.5-4.5-4.5zM6 26.125c0.481 0 0.875 0.394 0.875 0.875s-0.394 0.875-0.875 0.875-0.875-0.394-0.875-0.875 0.394-0.875 0.875-0.875zM6 22.5c-2.487 0-4.5 2.012-4.5 4.5s2.013 4.5 4.5 4.5 4.5-2.012 4.5-4.5-2.012-4.5-4.5-4.5z"></path>
</svg>
