<!-- Generated by IcoMoon.io -->
<svg version="1.1" xmlns="http://www.w3.org/2000/svg" width="32" height="32" viewBox="0 0 32 32">
<title>ellipsis-h-alt-solid</title>
<path d="M16 15.125c0.481 0 0.875 0.394 0.875 0.875s-0.394 0.875-0.875 0.875-0.875-0.394-0.875-0.875 0.394-0.875 0.875-0.875zM16 11.5c-2.488 0-4.5 2.012-4.5 4.5s2.012 4.5 4.5 4.5 4.5-2.012 4.5-4.5-2.012-4.5-4.5-4.5zM27 15.125c0.481 0 0.875 0.394 0.875 0.875s-0.394 0.875-0.875 0.875-0.875-0.394-0.875-0.875 0.394-0.875 0.875-0.875zM27 11.5c-2.488 0-4.5 2.012-4.5 4.5s2.012 4.5 4.5 4.5 4.5-2.012 4.5-4.5-2.012-4.5-4.5-4.5zM5 15.125c0.481 0 0.875 0.394 0.875 0.875s-0.394 0.875-0.875 0.875-0.875-0.394-0.875-0.875 0.394-0.875 0.875-0.875zM5 11.5c-2.487 0-4.5 2.012-4.5 4.5s2.013 4.5 4.5 4.5 4.5-2.012 4.5-4.5-2.013-4.5-4.5-4.5z"></path>
</svg>
