<!-- Generated by IcoMoon.io -->
<svg version="1.1" xmlns="http://www.w3.org/2000/svg" width="32" height="32" viewBox="0 0 32 32">
<title>empty-set-solid</title>
<path d="M31.707 1.707l-1.414-1.414c-0.391-0.391-1.024-0.391-1.414 0l-4.506 4.506c-2.337-1.75-5.229-2.799-8.373-2.799-7.732 0-14 6.268-14 14 0 3.144 1.049 6.036 2.799 8.373l-4.506 4.506c-0.391 0.391-0.391 1.024 0 1.414l1.414 1.414c0.391 0.391 1.024 0.391 1.414 0l4.506-4.506c2.337 1.749 5.229 2.798 8.373 2.798 7.732 0 14-6.268 14-14 0-3.144-1.049-6.036-2.799-8.373l4.506-4.506c0.391-0.391 0.391-1.024 0-1.415zM7 16c0-4.963 4.037-9 9-9 1.757 0 3.385 0.526 4.772 1.399l-12.373 12.373c-0.874-1.387-1.399-3.015-1.399-4.772zM25 16c0 4.962-4.038 9-9 9-1.757 0-3.385-0.526-4.772-1.399l12.372-12.373c0.874 1.387 1.4 3.015 1.4 4.772z"></path>
</svg>
