<!-- Generated by IcoMoon.io -->
<svg version="1.1" xmlns="http://www.w3.org/2000/svg" width="28" height="32" viewBox="0 0 28 32">
<title>empty-set</title>
<path d="M27.854 2.853l-0.707-0.707c-0.195-0.195-0.512-0.195-0.707 0l-4.695 4.695c-2.091-1.769-4.791-2.841-7.745-2.841-6.628 0-12 5.372-12 12 0 2.954 1.072 5.654 2.841 7.744l-4.695 4.695c-0.195 0.195-0.195 0.512 0 0.707l0.707 0.707c0.195 0.195 0.512 0.195 0.707 0l4.695-4.695c2.091 1.77 4.791 2.842 7.745 2.842 6.628 0 12-5.372 12-12 0-2.954-1.072-5.654-2.841-7.744l4.695-4.695c0.090-0.091 0.146-0.216 0.146-0.354s-0.056-0.263-0.146-0.354v0zM4 16c0-5.514 4.486-10 10-10 2.396 0 4.569 0.883 6.293 2.293l-14 14c-1.411-1.724-2.293-3.897-2.293-6.293zM24 16c0 5.514-4.486 10-10 10-2.396 0-4.569-0.883-6.293-2.293l14-14c1.411 1.724 2.293 3.897 2.293 6.293z"></path>
</svg>
