<!-- Generated by IcoMoon.io -->
<svg version="1.1" xmlns="http://www.w3.org/2000/svg" width="40" height="32" viewBox="0 0 40 32">
<title>engine-warning-solid</title>
<path d="M3 16c0-3.721 1.222-7.336 3.46-10.282 0.324-0.426 0.28-1.019-0.127-1.366l-0.763-0.651c-0.432-0.369-1.101-0.316-1.447 0.134-2.666 3.478-4.124 7.758-4.124 12.164 0 4.404 1.458 8.685 4.122 12.164 0.346 0.451 1.014 0.503 1.447 0.135l0.762-0.65c0.407-0.347 0.451-0.94 0.128-1.366-2.237-2.947-3.459-6.562-3.459-10.283zM20 2c-7.731 0-14 6.269-14 14 0 7.735 6.269 14 14 14s14-6.265 14-14c0-7.731-6.269-14-14-14zM20 24c-1.104 0-2-0.896-2-2s0.896-2 2-2 2 0.896 2 2-0.896 2-2 2zM21.59 17.099c-0.051 0.511-0.481 0.901-0.995 0.901h-1.19c-0.514 0-0.944-0.389-0.995-0.901l-0.8-8c-0.059-0.589 0.403-1.099 0.995-1.099h2.79c0.592 0 1.054 0.511 0.995 1.099l-0.8 8zM35.796 3.732c-0.349-0.449-1.018-0.497-1.448-0.125l-0.759 0.657c-0.404 0.35-0.444 0.943-0.117 1.367 2.282 2.961 3.529 6.607 3.529 10.369 0 3.764-1.248 7.411-3.529 10.372-0.326 0.424-0.287 1.017 0.117 1.367l0.759 0.656c0.429 0.372 1.099 0.324 1.448-0.125 2.717-3.496 4.204-7.813 4.204-12.27 0-4.454-1.487-8.771-4.204-12.268z"></path>
</svg>
