<!-- Generated by IcoMoon.io -->
<svg version="1.1" xmlns="http://www.w3.org/2000/svg" width="40" height="32" viewBox="0 0 40 32">
<title>engine-warning</title>
<path d="M20 2c-7.731 0-14 6.269-14 14 0 7.735 6.269 14 14 14s14-6.265 14-14c0-7.731-6.269-14-14-14zM20 28c-6.617 0-12-5.383-12-12s5.383-12 12-12 12 5.383 12 12-5.383 12-12 12zM21.165 7.999h-2.33c-0.494 0-0.88 0.426-0.831 0.918l0.668 9.331c0.043 0.427 0.402 0.752 0.831 0.752h0.994c0.429 0 0.788-0.325 0.831-0.752l0.668-9.331c0.049-0.491-0.337-0.918-0.831-0.918zM20 20.5c-0.829 0-1.5 0.671-1.5 1.5s0.671 1.5 1.5 1.5 1.5-0.672 1.5-1.5c0-0.829-0.671-1.5-1.5-1.5zM5.668 4.323l-0.775-0.632c-0.218-0.178-0.547-0.144-0.719 0.078-2.696 3.488-4.174 7.811-4.174 12.231 0 4.421 1.478 8.742 4.172 12.228 0.173 0.223 0.501 0.256 0.719 0.078l0.775-0.632c0.21-0.171 0.24-0.474 0.074-0.688-2.416-3.133-3.741-7.015-3.741-10.986s1.325-7.853 3.743-10.989c0.166-0.214 0.136-0.518-0.074-0.688zM35.826 3.769c-0.172-0.223-0.501-0.256-0.719-0.078l-0.775 0.632c-0.21 0.171-0.239 0.474-0.074 0.688 2.417 3.136 3.742 7.018 3.742 10.989s-1.325 7.854-3.741 10.987c-0.165 0.214-0.136 0.517 0.074 0.688l0.775 0.632c0.218 0.178 0.547 0.144 0.719-0.078 2.694-3.486 4.172-7.808 4.172-12.229 0-4.42-1.478-8.742-4.174-12.231z"></path>
</svg>
