<!-- Generated by IcoMoon.io -->
<svg version="1.1" xmlns="http://www.w3.org/2000/svg" width="32" height="32" viewBox="0 0 32 32">
<title>envelope-open-text-solid</title>
<path d="M11 13.5h10c0.552 0 1-0.447 1-1v-1c0-0.553-0.448-1-1-1h-10c-0.553 0-1 0.447-1 1v1c0 0.553 0.447 1 1 1zM10 18.5c0 0.552 0.447 1 1 1h10c0.552 0 1-0.448 1-1v-1c0-0.552-0.448-1-1-1h-10c-0.553 0-1 0.448-1 1v1zM16 26.071c-1.026 0-2.053-0.316-2.929-0.949l-13.071-9.443v13.321c0 1.657 1.343 3 3 3h26c1.657 0 3-1.343 3-3v-13.321l-13.071 9.443c-0.876 0.633-1.902 0.949-2.929 0.949zM30.851 10.184c-0.553-0.434-1.078-0.842-1.851-1.426v-2.759c0-1.657-1.343-3-3-3h-4.847c-0.19-0.138-0.367-0.266-0.565-0.41-1.051-0.767-3.138-2.612-4.588-2.59-1.45-0.022-3.537 1.823-4.588 2.59-0.198 0.144-0.375 0.272-0.565 0.41h-4.847c-1.657 0-3 1.343-3 3v2.759c-0.773 0.583-1.298 0.992-1.851 1.426-0.702 0.554-1.149 1.405-1.149 2.361v0.666l6 4.334v-11.545h20v11.545l6-4.334v-0.666c0-0.921-0.424-1.792-1.149-2.361z"></path>
</svg>
