<!-- Generated by IcoMoon.io -->
<svg version="1.1" xmlns="http://www.w3.org/2000/svg" width="32" height="32" viewBox="0 0 32 32">
<title>envelope</title>
<path d="M29 4h-26c-1.656 0-3 1.344-3 3v18c0 1.656 1.344 3 3 3h26c1.656 0 3-1.344 3-3v-18c0-1.656-1.344-3-3-3zM3 6h26c0.55 0 1 0.45 1 1v2.588c-1.369 1.156-3.325 2.75-9.413 7.581-1.056 0.837-3.137 2.856-4.588 2.831-1.45 0.025-3.537-1.994-4.588-2.831-6.088-4.831-8.044-6.425-9.412-7.581v-2.588c0-0.55 0.45-1 1-1zM29 26h-26c-0.55 0-1-0.45-1-1v-12.813c1.425 1.169 3.675 2.975 8.169 6.544 1.281 1.025 3.544 3.281 5.831 3.269 2.275 0.019 4.519-2.219 5.831-3.269 4.494-3.569 6.744-5.375 8.169-6.544v12.813c0 0.55-0.45 1-1 1z"></path>
</svg>
