<!-- Generated by IcoMoon.io -->
<svg version="1.1" xmlns="http://www.w3.org/2000/svg" width="28" height="32" viewBox="0 0 28 32">
<title>envelope-square-solid</title>
<path d="M25 2h-22c-1.657 0-3 1.343-3 3v22c0 1.657 1.343 3 3 3h22c1.657 0 3-1.343 3-3v-22c0-1.657-1.343-3-3-3zM11.132 16.381c-5.668-4.114-5.61-4.124-7.132-5.309v-1.573c0-0.828 0.672-1.5 1.5-1.5h17c0.828 0 1.5 0.672 1.5 1.5v1.573c-1.523 1.186-1.465 1.195-7.132 5.309-0.656 0.478-1.962 1.633-2.868 1.618-0.906 0.014-2.21-1.139-2.868-1.618zM24 13.611v8.889c0 0.828-0.672 1.5-1.5 1.5h-17c-0.828 0-1.5-0.672-1.5-1.5v-8.889c0.872 0.675 2.083 1.577 5.956 4.388 0.885 0.646 2.373 2.009 4.043 2.001 1.68 0.008 3.19-1.378 4.045-2.002 3.872-2.81 5.083-3.713 5.955-4.387z"></path>
</svg>
