<!-- Generated by IcoMoon.io -->
<svg version="1.1" xmlns="http://www.w3.org/2000/svg" width="32" height="32" viewBox="0 0 32 32">
<title>envelope-open-solid</title>
<path d="M32 29c0 1.657-1.343 3-3 3h-26c-1.657 0-3-1.343-3-3v-16.455c0-0.956 0.447-1.807 1.143-2.356l0.006-0.005c1.557-1.221 2.844-2.21 10.262-7.594 1.052-0.767 3.138-2.611 4.588-2.59 1.45-0.022 3.537 1.823 4.588 2.59 7.418 5.384 8.706 6.375 10.262 7.595 0.702 0.554 1.149 1.405 1.149 2.361v0 16.455zM27.896 16.712c-0.16-0.233-0.481-0.287-0.709-0.119-1.428 1.055-3.466 2.544-6.599 4.817-1.052 0.767-3.138 2.611-4.588 2.589-1.451 0.021-3.535-1.821-4.588-2.589-3.132-2.273-5.171-3.763-6.599-4.817-0.227-0.168-0.548-0.114-0.709 0.119l-0.567 0.825c-0.055 0.079-0.088 0.177-0.088 0.283 0 0.164 0.079 0.31 0.202 0.401l0.001 0.001c1.43 1.056 3.466 2.543 6.581 4.804 1.267 0.924 3.533 2.988 5.767 2.973 2.233 0.015 4.498-2.048 5.766-2.973 3.116-2.261 5.151-3.748 6.581-4.804 0.124-0.092 0.203-0.238 0.203-0.402 0-0.106-0.033-0.204-0.089-0.285l0.001 0.002-0.567-0.825z"></path>
</svg>
