<!-- Generated by IcoMoon.io -->
<svg version="1.1" xmlns="http://www.w3.org/2000/svg" width="32" height="32" viewBox="0 0 32 32">
<title>envelope-open-text</title>
<path d="M22 15.5v-1c0-0.276-0.224-0.5-0.5-0.5h-11c-0.276 0-0.5 0.224-0.5 0.5v1c0 0.276 0.224 0.5 0.5 0.5h11c0.276 0 0.5-0.224 0.5-0.5zM10.5 12h11c0.276 0 0.5-0.224 0.5-0.5v-1c0-0.276-0.224-0.5-0.5-0.5h-11c-0.276 0-0.5 0.224-0.5 0.5v1c0 0.276 0.224 0.5 0.5 0.5zM30.912 10.283c-0.124-0.102-1.387-1.119-2.912-2.346v-1.937c0-1.104-0.896-2-2-2h-2.904c-0.258-0.207-0.482-0.385-0.637-0.509-1.381-1.104-3.743-3.491-6.458-3.491-2.701 0-5.040 2.357-6.459 3.491-0.158 0.126-0.381 0.304-0.637 0.509h-2.904c-1.104 0-2 0.896-2 2v1.936c-1.532 1.232-2.797 2.251-2.905 2.339-0.671 0.554-1.095 1.386-1.095 2.317v16.408c0 1.657 1.343 3 3 3h26c1.657 0 3-1.343 3-3v-16.406c0-0.894-0.399-1.742-1.088-2.312zM16 2c1.361 0 2.79 1.045 3.946 2h-7.89c1.158-0.954 2.589-2 3.944-2zM6 6h20v10.834c-2.021 1.625-4.081 3.277-5.412 4.334-1.053 0.839-3.137 2.855-4.588 2.832-1.451 0.024-3.535-1.992-4.588-2.832-1.331-1.056-3.39-2.708-5.412-4.334v-10.834zM2 12.592c0-0.3 0.133-0.582 0.365-0.772 0.078-0.064 0.726-0.586 1.635-1.317v4.722c-0.721-0.58-1.407-1.133-2-1.611v-1.021zM30 29c0 0.551-0.449 1-1 1h-26c-0.551 0-1-0.449-1-1v-12.818c2.672 2.152 6.207 4.995 8.168 6.551 1.281 1.023 3.546 3.283 5.832 3.266 2.278 0.016 4.517-2.216 5.832-3.266 1.963-1.558 5.496-4.399 8.168-6.552v12.819zM30 13.613c-0.601 0.484-1.267 1.021-2 1.612v-4.721c0.902 0.726 1.55 1.248 1.637 1.32 0.231 0.191 0.363 0.471 0.363 0.771v1.019z"></path>
</svg>
