<!-- Generated by IcoMoon.io -->
<svg version="1.1" xmlns="http://www.w3.org/2000/svg" width="32" height="32" viewBox="0 0 32 32">
<title>envelope-open-dollar-solid</title>
<path d="M16 26.071c-1.026 0-2.053-0.316-2.929-0.949l-13.071-9.443v13.321c0 1.657 1.343 3 3 3h26c1.657 0 3-1.343 3-3v-13.321l-13.071 9.443c-0.876 0.633-1.902 0.949-2.929 0.949zM30.851 10.184c-0.553-0.434-1.078-0.842-1.851-1.426v-2.759c0-1.657-1.343-3-3-3h-4.847c-0.19-0.138-0.367-0.266-0.565-0.41-1.051-0.766-3.138-2.612-4.588-2.59-1.45-0.022-3.537 1.823-4.588 2.59-0.198 0.144-0.375 0.272-0.565 0.41h-4.847c-1.657 0-3 1.343-3 3v2.759c-0.773 0.583-1.298 0.992-1.851 1.426-0.702 0.554-1.149 1.405-1.149 2.361v0.666l6 4.334v-11.545h20v11.545l6-4.334v-0.666c0-0.921-0.424-1.792-1.149-2.361zM16.5 8.5h-1c-0.276 0-0.5 0.224-0.5 0.5v1.008c-1.476 0.039-2.667 1.284-2.667 2.817 0 1.248 0.811 2.363 1.974 2.712l2.813 0.844c0.323 0.097 0.548 0.424 0.548 0.796 0 0.454-0.331 0.824-0.738 0.824h-1.757c-0.285 0-0.56-0.081-0.801-0.233-0.203-0.127-0.46-0.119-0.633 0.046l-0.734 0.701c-0.221 0.211-0.208 0.576 0.036 0.759 0.569 0.427 1.255 0.673 1.961 0.709v1.018c0 0.276 0.224 0.5 0.5 0.5h1c0.276 0 0.5-0.224 0.5-0.5v-1.008c1.476-0.039 2.667-1.284 2.667-2.817 0-1.248-0.811-2.363-1.974-2.712l-2.813-0.844c-0.322-0.097-0.548-0.424-0.548-0.796 0-0.454 0.331-0.824 0.738-0.824h1.757c0.285 0 0.56 0.081 0.801 0.232 0.203 0.127 0.46 0.119 0.633-0.046l0.734-0.701c0.221-0.211 0.208-0.576-0.036-0.759-0.569-0.427-1.255-0.673-1.961-0.709v-1.018c0-0.276-0.224-0.5-0.5-0.5z"></path>
</svg>
