<!-- Generated by IcoMoon.io -->
<svg version="1.1" xmlns="http://www.w3.org/2000/svg" width="28" height="32" viewBox="0 0 28 32">
<title>envelope-square</title>
<path d="M25 2h-22c-1.657 0-3 1.343-3 3v22c0 1.657 1.343 3 3 3h22c1.657 0 3-1.343 3-3v-22c0-1.657-1.343-3-3-3zM26 27c0 0.551-0.449 1-1 1h-22c-0.551 0-1-0.449-1-1v-22c0-0.551 0.449-1 1-1h22c0.551 0 1 0.449 1 1v22zM22 8h-16c-1.105 0-2 0.895-2 2v12c0 1.105 0.895 2 2 2h16c1.105 0 2-0.895 2-2v-12c0-1.105-0.895-2-2-2zM22 10v2.116c-0.884 0.727-2.285 1.854-5.132 4.114-0.654 0.521-1.946 1.77-2.852 1.77l-0.016-0-0.016 0c-0.906 0-2.198-1.249-2.852-1.77-2.846-2.259-4.249-3.387-5.132-4.114v-2.116h16zM6 22v-7.307c0.882 0.71 2.101 1.684 3.889 3.103 0.861 0.688 2.369 2.204 4.095 2.204l0.016-0 0.016 0c1.721 0 3.212-1.498 4.096-2.205 1.786-1.418 3.006-2.392 3.888-3.102v7.307h-16z"></path>
</svg>
