<!-- Generated by IcoMoon.io -->
<svg version="1.1" xmlns="http://www.w3.org/2000/svg" width="32" height="32" viewBox="0 0 32 32">
<title>envelope-open</title>
<path d="M21.832 3.266c-1.315-1.048-3.524-3.266-5.832-3.266-2.292 0-4.465 2.173-5.832 3.266-2.162 1.716-6.845 5.494-9.069 7.313-0.673 0.554-1.1 1.388-1.1 2.321 0 0 0 0 0 0v-0 16.099c0 1.657 1.343 3 3 3h26c1.657 0 3-1.343 3-3v-16.099c0-0 0-0 0-0 0-0.933-0.426-1.767-1.095-2.317l-0.005-0.004c-2.223-1.819-6.906-5.597-9.068-7.313zM29 30h-26c-0.552 0-1-0.448-1-1v-16.115c0-0.3 0.135-0.585 0.367-0.774 1.643-1.341 7.611-6.14 9.044-7.278 1.101-0.878 3.108-2.833 4.588-2.833s3.487 1.954 4.588 2.833c1.433 1.138 7.402 5.938 9.045 7.279 0.225 0.185 0.367 0.463 0.367 0.774 0 0 0 0 0 0v-0 16.114c0 0.552-0.448 1-1 1zM28.453 16.48c0.262 0.322 0.212 0.796-0.111 1.057-1.427 1.152-3.446 2.765-6.51 5.197-1.315 1.050-3.554 3.282-5.832 3.266-2.286 0.017-4.552-2.244-5.832-3.266-3.063-2.432-5.083-4.045-6.509-5.196-0.323-0.261-0.373-0.734-0.111-1.057l0.315-0.388c0.261-0.321 0.732-0.37 1.053-0.111 1.423 1.148 3.438 2.759 6.496 5.186 1.053 0.84 3.138 2.856 4.588 2.832 1.451 0.023 3.535-1.992 4.588-2.832 3.058-2.427 5.074-4.038 6.496-5.186 0.322-0.26 0.792-0.21 1.053 0.111l0.316 0.388z"></path>
</svg>
