<!-- Generated by IcoMoon.io -->
<svg version="1.1" xmlns="http://www.w3.org/2000/svg" width="32" height="32" viewBox="0 0 32 32">
<title>eraser</title>
<path d="M31.121 17.121c0.543-0.543 0.879-1.293 0.879-2.121s-0.336-1.578-0.879-2.121l-10-10c-0.543-0.543-1.293-0.879-2.121-0.879s-1.578 0.336-2.121 0.879l-16 16c-0.543 0.543-0.879 1.293-0.879 2.121s0.336 1.578 0.879 2.121l6 6c0.543 0.543 1.293 0.879 2.121 0.879h22.25c0.414 0 0.75-0.336 0.75-0.75v0-0.5c0-0.414-0.336-0.75-0.75-0.75v0h-11.008l10.879-10.879zM18.293 4.293c0.181-0.181 0.431-0.293 0.707-0.293s0.526 0.112 0.707 0.293l10 10c0.181 0.181 0.293 0.431 0.293 0.707s-0.112 0.526-0.293 0.707l-7.293 7.293-11.414-11.414zM9 28c-0.001 0-0.002 0-0.003 0-0.275 0-0.524-0.112-0.704-0.293l-6-6c-0.181-0.181-0.293-0.431-0.293-0.707s0.112-0.526 0.293-0.707l7.293-7.293 11.414 11.414-3.293 3.293c-0.18 0.181-0.429 0.293-0.704 0.293-0.001 0-0.002 0-0.003 0h0z"></path>
</svg>
