<!-- Generated by IcoMoon.io -->
<svg version="1.1" xmlns="http://www.w3.org/2000/svg" width="32" height="32" viewBox="0 0 32 32">
<title>eraser-solid</title>
<path d="M31.121 17.121c1.172-1.172 1.172-3.071 0-4.243l-10-10c-1.172-1.172-3.071-1.172-4.243 0l-16 16c-1.172 1.172-1.172 3.071 0 4.243l6 6c0.543 0.543 1.293 0.879 2.121 0.879h22.25c0.414 0 0.75-0.336 0.75-0.75v-2.5c0-0.414-0.336-0.75-0.75-0.75h-9.007l8.879-8.879zM12.207 13.207l8.586 8.586-4.207 4.207h-7.172l-5-5 7.793-7.793z"></path>
</svg>
