<!-- Generated by IcoMoon.io -->
<svg version="1.1" xmlns="http://www.w3.org/2000/svg" width="20" height="32" viewBox="0 0 20 32">
<title>euro-sign-solid</title>
<path d="M19.419 25.86c-0.082-0.414-0.49-0.68-0.901-0.586-0.668 0.152-1.714 0.338-2.839 0.338-3.548 0-6.371-2.174-7.591-5.341h7.106c0.356 0 0.654-0.248 0.731-0.581l0.001-0.005 0.398-1.773c0.105-0.469-0.251-0.914-0.732-0.914h-8.39c-0.076-0.895-0.088-1.768 0.009-2.64h9.162c0 0 0 0 0 0 0.357 0 0.656-0.25 0.732-0.585l0.001-0.005 0.407-1.86c0.102-0.468-0.254-0.91-0.733-0.91h-8.642c1.29-2.812 3.918-4.689 7.351-4.689 0.905 0 1.785 0.141 2.366 0.259 0.389 0.079 0.772-0.156 0.875-0.539l0.749-2.773c0.114-0.421-0.154-0.851-0.583-0.932-0.756-0.143-1.976-0.325-3.293-0.325-6.074 0-10.975 3.766-12.785 9h-2.067c-0.414 0-0.75 0.336-0.75 0.75v1.86c0 0.414 0.336 0.75 0.75 0.75h1.348c-0.063 0.85-0.074 1.83-0.011 2.64h-1.337c-0.414 0-0.75 0.336-0.75 0.75v1.773c0 0.414 0.336 0.75 0.75 0.75h1.882c1.564 5.646 6.447 9.727 12.97 9.727 1.644 0 3.035-0.284 3.819-0.487 0.385-0.1 0.627-0.482 0.549-0.872l-0.551-2.781z"></path>
</svg>
