<!-- Generated by IcoMoon.io -->
<svg version="1.1" xmlns="http://www.w3.org/2000/svg" width="20" height="32" viewBox="0 0 20 32">
<title>euro-sign</title>
<path d="M18.977 27.758c-0.096-0.405-0.504-0.653-0.909-0.555-0.626 0.152-1.606 0.331-2.739 0.331-5.045 0-8.858-2.913-10.052-7.535h9.703c0 0 0 0 0 0 0.364 0 0.668-0.259 0.736-0.603l0.001-0.005 0.096-0.5c0.089-0.463-0.265-0.892-0.736-0.892h-10.222c-0.116-1.309-0.116-2.729 0.038-4h11.166c0 0 0 0 0 0 0.364 0 0.668-0.259 0.736-0.603l0.001-0.005 0.096-0.5c0.089-0.463-0.265-0.892-0.736-0.892h-10.839c1.309-4.391 5.007-7.535 9.975-7.535 0.92 0 1.778 0.137 2.347 0.255 0.393 0.082 0.779-0.161 0.878-0.55l0.246-0.967c0.106-0.416-0.158-0.836-0.579-0.92-0.656-0.13-1.678-0.283-2.853-0.283-6.355 0-11.362 4.261-12.864 10h-1.715c-0.414 0-0.75 0.336-0.75 0.75v0.5c0 0.414 0.336 0.75 0.75 0.75h1.368c-0.154 1.117-0.116 3.114-0.039 4h-1.33c-0.414 0-0.75 0.336-0.75 0.75v0.5c0 0.414 0.336 0.75 0.75 0.75h1.638c1.348 6.047 6.355 10 12.941 10 1.407 0 2.6-0.214 3.318-0.382 0.404-0.094 0.654-0.5 0.558-0.904l-0.228-0.956z"></path>
</svg>
