<!-- Generated by IcoMoon.io -->
<svg version="1.1" xmlns="http://www.w3.org/2000/svg" width="32" height="32" viewBox="0 0 32 32">
<title>exchange-solid</title>
<path d="M0 10.5v-1c0-0.828 0.672-1.5 1.5-1.5h23.873l-1.904-1.733c-0.613-0.581-0.627-1.553-0.030-2.15l0.677-0.678c0.586-0.586 1.535-0.586 2.121 0l5.176 5.146c0.781 0.781 0.781 2.047 0 2.828l-5.176 5.146c-0.586 0.586-1.536 0.586-2.121 0l-0.677-0.678c-0.597-0.597-0.584-1.57 0.030-2.15l1.904-1.733h-23.873c-0.828 0-1.5-0.672-1.5-1.5zM30.5 20h-23.873l1.904-1.733c0.613-0.581 0.627-1.553 0.030-2.15l-0.678-0.678c-0.586-0.586-1.535-0.586-2.121 0l-5.176 5.146c-0.781 0.781-0.781 2.047 0 2.828l5.176 5.146c0.586 0.586 1.536 0.586 2.121 0l0.678-0.677c0.597-0.597 0.584-1.57-0.030-2.15l-1.904-1.733h23.873c0.828 0 1.5-0.672 1.5-1.5v-1c0-0.828-0.672-1.5-1.5-1.5z"></path>
</svg>
