<!-- Generated by IcoMoon.io -->
<svg version="1.1" xmlns="http://www.w3.org/2000/svg" width="32" height="32" viewBox="0 0 32 32">
<title>exchange</title>
<path d="M31.78 11.53l-5.78 5.75c-0.293 0.293-0.768 0.293-1.061 0l-0.442-0.442c-0.293-0.293-0.293-0.768 0-1.061l3.808-3.778h-27.556c-0.414 0-0.75-0.336-0.75-0.75v-0.5c0-0.414 0.336-0.75 0.75-0.75h27.557l-3.809-3.778c-0.293-0.293-0.293-0.768 0-1.061l0.442-0.442c0.293-0.293 0.768-0.293 1.061 0l5.78 5.75c0.293 0.293 0.293 0.768 0 1.061zM0.22 21.53l5.78 5.75c0.293 0.293 0.768 0.293 1.061 0l0.442-0.442c0.293-0.293 0.293-0.768 0-1.061l-3.809-3.778h27.557c0.414 0 0.75-0.336 0.75-0.75v-0.5c0-0.414-0.336-0.75-0.75-0.75h-27.556l3.808-3.778c0.293-0.293 0.293-0.768 0-1.061l-0.442-0.442c-0.293-0.293-0.768-0.293-1.061 0l-5.78 5.75c-0.293 0.293-0.293 0.768 0 1.061z"></path>
</svg>
