<!-- Generated by IcoMoon.io -->
<svg version="1.1" xmlns="http://www.w3.org/2000/svg" width="32" height="32" viewBox="0 0 32 32">
<title>exchange-alt</title>
<path d="M0.75 12h23.25v3.5c0 1.847 2.283 2.692 3.495 1.329l4-4.5c0.674-0.758 0.674-1.9 0-2.657l-4-4.5c-1.211-1.363-3.495-0.519-3.495 1.329v3.5h-23.25c-0.414 0-0.75 0.336-0.75 0.75v0.5c0 0.414 0.336 0.75 0.75 0.75zM26 6.5l4 4.5-4 4.5v-9zM31.25 20h-23.25v-3.5c0-1.847-2.283-2.692-3.495-1.329l-4 4.5c-0.674 0.758-0.674 1.9 0 2.657l4 4.5c1.211 1.363 3.495 0.519 3.495-1.329v-3.5h23.25c0.414 0 0.75-0.336 0.75-0.75v-0.5c0-0.414-0.336-0.75-0.75-0.75zM6 25.5l-4-4.5 4-4.5v9z"></path>
</svg>
