<!-- Generated by IcoMoon.io -->
<svg version="1.1" xmlns="http://www.w3.org/2000/svg" width="32" height="32" viewBox="0 0 32 32">
<title>exchange-alt-solid</title>
<path d="M0 10.5v-1c0-0.828 0.672-1.5 1.5-1.5h22.5v-3c0-1.335 1.619-2.003 2.561-1.061l5 5c0.586 0.586 0.586 1.536 0 2.121l-5 5c-0.938 0.938-2.561 0.28-2.561-1.061v-3h-22.5c-0.828 0-1.5-0.672-1.5-1.5zM30.5 20h-22.5v-3c0-1.332-1.616-2.005-2.561-1.061l-5 5c-0.586 0.586-0.586 1.536 0 2.121l5 5c0.939 0.939 2.561 0.279 2.561-1.061v-3h22.5c0.828 0 1.5-0.672 1.5-1.5v-1c0-0.828-0.672-1.5-1.5-1.5z"></path>
</svg>
