<!-- Generated by IcoMoon.io -->
<svg version="1.1" xmlns="http://www.w3.org/2000/svg" width="28" height="32" viewBox="0 0 28 32">
<title>exclamation-square-solid</title>
<path d="M25 2h-22c-1.657 0-3 1.343-3 3v22c0 1.657 1.343 3 3 3h22c1.657 0 3-1.343 3-3v-22c0-1.657-1.343-3-3-3zM12.019 8h3.961c0.43 0 0.772 0.361 0.749 0.791l-0.464 8.5c-0.022 0.398-0.351 0.709-0.749 0.709h-3.034c-0.398 0-0.727-0.311-0.749-0.709l-0.464-8.5c-0.023-0.43 0.319-0.791 0.749-0.791zM14 24.875c-1.588 0-2.875-1.287-2.875-2.875s1.287-2.875 2.875-2.875 2.875 1.287 2.875 2.875-1.287 2.875-2.875 2.875z"></path>
</svg>
