<!-- Generated by IcoMoon.io -->
<svg version="1.1" xmlns="http://www.w3.org/2000/svg" width="36" height="32" viewBox="0 0 36 32">
<title>exclamation-triangle-solid</title>
<path d="M35.595 27.501c1.154 2-0.294 4.499-2.599 4.499h-29.993c-2.309 0-3.75-2.503-2.599-4.499l14.997-26.002c1.154-2.001 4.045-1.997 5.197 0l14.996 26.002zM18 22.125c-1.588 0-2.875 1.287-2.875 2.875s1.287 2.875 2.875 2.875 2.875-1.287 2.875-2.875-1.287-2.875-2.875-2.875zM15.27 11.791l0.464 8.5c0.022 0.398 0.351 0.709 0.749 0.709h3.034c0.398 0 0.727-0.311 0.749-0.709l0.464-8.5c0.023-0.43-0.319-0.791-0.749-0.791h-3.961c-0.43 0-0.772 0.361-0.749 0.791z"></path>
</svg>
