<!-- Generated by IcoMoon.io -->
<svg version="1.1" xmlns="http://www.w3.org/2000/svg" width="28" height="32" viewBox="0 0 28 32">
<title>exclamation-square</title>
<path d="M13.719 20h0.563c0.4 0 0.731-0.319 0.75-0.719l0.438-10.5c0.019-0.425-0.325-0.781-0.75-0.781h-1.438c-0.425 0-0.769 0.356-0.75 0.781l0.438 10.5c0.019 0.4 0.35 0.719 0.75 0.719zM25 2h-22c-1.656 0-3 1.344-3 3v22c0 1.656 1.344 3 3 3h22c1.656 0 3-1.344 3-3v-22c0-1.656-1.344-3-3-3zM26 27c0 0.55-0.45 1-1 1h-22c-0.55 0-1-0.45-1-1v-22c0-0.55 0.45-1 1-1h22c0.55 0 1 0.45 1 1zM14 21.25c-0.969 0-1.75 0.781-1.75 1.75s0.781 1.75 1.75 1.75 1.75-0.781 1.75-1.75-0.781-1.75-1.75-1.75z"></path>
</svg>
