<!-- Generated by IcoMoon.io -->
<svg version="1.1" xmlns="http://www.w3.org/2000/svg" width="12" height="32" viewBox="0 0 12 32">
<title>exclamation</title>
<path d="M8.707 2c0.431 0 0.773 0.362 0.749 0.792l-0.917 16.5c-0.022 0.397-0.351 0.708-0.749 0.708h-3.581c-0.398 0-0.727-0.311-0.749-0.708l-0.917-16.5c-0.024-0.43 0.318-0.792 0.749-0.792h5.414zM6 22c2.206 0 4 1.794 4 4s-1.794 4-4 4-4-1.794-4-4 1.794-4 4-4zM8.707 0h-5.414c-1.577 0-2.833 1.328-2.746 2.903l0.917 16.5c0.041 0.733 0.367 1.386 0.866 1.854-1.416 1.099-2.33 2.816-2.33 4.743 0 3.308 2.692 6 6 6s6-2.692 6-6c0-1.927-0.913-3.645-2.33-4.743 0.499-0.468 0.825-1.121 0.866-1.854l0.917-16.5c0.088-1.574-1.169-2.903-2.746-2.903z"></path>
</svg>
