<!-- Generated by IcoMoon.io -->
<svg version="1.1" xmlns="http://www.w3.org/2000/svg" width="32" height="32" viewBox="0 0 32 32">
<title>exclamation-circle</title>
<path d="M16 2.5c7.414 0 13.5 6.005 13.5 13.5 0 7.456-6.038 13.5-13.5 13.5-7.453 0-13.5-6.035-13.5-13.5 0-7.45 6.038-13.5 13.5-13.5zM16 0.5c-8.56 0-15.5 6.943-15.5 15.5 0 8.562 6.94 15.5 15.5 15.5s15.5-6.938 15.5-15.5c0-8.557-6.94-15.5-15.5-15.5zM15.282 8h1.436c0.426 0 0.767 0.355 0.749 0.781l-0.438 10.5c-0.017 0.402-0.347 0.719-0.749 0.719h-0.561c-0.402 0-0.733-0.317-0.749-0.719l-0.438-10.5c-0.018-0.426 0.323-0.781 0.749-0.781zM16 21.25c-0.966 0-1.75 0.784-1.75 1.75s0.784 1.75 1.75 1.75 1.75-0.784 1.75-1.75-0.784-1.75-1.75-1.75z"></path>
</svg>
