<!-- Generated by IcoMoon.io -->
<svg version="1.1" xmlns="http://www.w3.org/2000/svg" width="32" height="32" viewBox="0 0 32 32">
<title>exclamation-circle-solid</title>
<path d="M31.5 16c0 8.562-6.94 15.5-15.5 15.5s-15.5-6.938-15.5-15.5c0-8.557 6.94-15.5 15.5-15.5s15.5 6.943 15.5 15.5zM16 19.125c-1.588 0-2.875 1.287-2.875 2.875s1.287 2.875 2.875 2.875 2.875-1.287 2.875-2.875-1.287-2.875-2.875-2.875zM13.27 8.791l0.464 8.5c0.022 0.398 0.351 0.709 0.749 0.709h3.034c0.398 0 0.727-0.311 0.749-0.709l0.464-8.5c0.023-0.43-0.319-0.791-0.749-0.791h-3.961c-0.43 0-0.772 0.361-0.749 0.791z"></path>
</svg>
