<!-- Generated by IcoMoon.io -->
<svg version="1.1" xmlns="http://www.w3.org/2000/svg" width="36" height="32" viewBox="0 0 36 32">
<title>exclamation-triangle</title>
<path d="M16.887 10h2.219c0.212 0 0.381 0.175 0.375 0.387l-0.469 12.25c-0.006 0.2-0.175 0.363-0.375 0.363h-1.281c-0.2 0-0.369-0.156-0.375-0.363l-0.469-12.25c-0.006-0.213 0.163-0.387 0.375-0.387zM18 24.25c-0.969 0-1.75 0.781-1.75 1.75s0.781 1.75 1.75 1.75 1.75-0.781 1.75-1.75-0.781-1.75-1.75-1.75zM35.594 27.5l-14.994-26c-1.15-2-4.044-2-5.2 0l-14.994 26c-1.15 1.994 0.287 4.5 2.6 4.5h29.994c2.3 0 3.75-2.5 2.594-4.5zM33 30h-30c-0.769 0-1.25-0.831-0.869-1.5l15-26c0.381-0.663 1.35-0.669 1.731 0l15 26c0.388 0.663-0.094 1.5-0.862 1.5z"></path>
</svg>
