<!-- Generated by IcoMoon.io -->
<svg version="1.1" xmlns="http://www.w3.org/2000/svg" width="28" height="32" viewBox="0 0 28 32">
<title>expand-alt</title>
<path d="M12.427 17.22l0.354 0.354c0.293 0.293 0.293 0.768 0 1.061l-9.366 9.366h3.836c0.414 0 0.75 0.336 0.75 0.75v0.5c0 0.414-0.336 0.75-0.75 0.75h-6.5c-0.414 0-0.75-0.336-0.75-0.75v-6.5c0-0.414 0.336-0.75 0.75-0.75h0.5c0.414 0 0.75 0.336 0.75 0.75v3.836l9.366-9.366c0.293-0.293 0.768-0.293 1.061 0zM27.25 2h-6.5c-0.414 0-0.75 0.336-0.75 0.75v0.5c0 0.414 0.336 0.75 0.75 0.75h3.836l-9.366 9.366c-0.293 0.293-0.293 0.768 0 1.061l0.354 0.354c0.293 0.293 0.768 0.293 1.061 0l9.366-9.366v3.836c0 0.414 0.336 0.75 0.75 0.75h0.5c0.414 0 0.75-0.336 0.75-0.75v-6.5c0-0.414-0.336-0.75-0.75-0.75z"></path>
</svg>
