<!-- Generated by IcoMoon.io -->
<svg version="1.1" xmlns="http://www.w3.org/2000/svg" width="28" height="32" viewBox="0 0 28 32">
<title>expand-arrows-alt</title>
<path d="M24.481 20.606l-2.231 2.231-6.838-6.838 6.838-6.838 2.231 2.231c1.294 1.294 3.519 0.375 3.519-1.456v-5.875c0-1.138-0.925-2.063-2.063-2.063h-5.875c-1.831 0-2.756 2.219-1.456 3.519l2.231 2.231-6.838 6.838-6.838-6.838 2.231-2.231c1.294-1.294 0.375-3.519-1.456-3.519h-5.875c-1.137 0-2.063 0.925-2.063 2.063v5.875c0 1.831 2.219 2.756 3.519 1.456l2.231-2.231 6.838 6.838-6.838 6.838-2.231-2.231c-1.294-1.294-3.519-0.375-3.519 1.456v5.875c0 1.137 0.925 2.063 2.063 2.063h5.875c1.831 0 2.756-2.219 1.456-3.519l-2.231-2.231 6.838-6.837 6.837 6.837-2.231 2.231c-1.294 1.294-0.375 3.519 1.456 3.519h5.875c1.137 0 2.063-0.925 2.063-2.063v-5.875c0-1.831-2.225-2.756-3.519-1.456zM20.063 3.806h5.875c0.144 0 0.256 0.119 0.256 0.256v5.875c0 0.231-0.275 0.344-0.438 0.181l-5.875-5.875c-0.163-0.162-0.050-0.438 0.181-0.438zM2.244 10.119c-0.163 0.162-0.438 0.050-0.438-0.181v-5.875c0-0.144 0.119-0.256 0.256-0.256h5.875c0.231 0 0.344 0.275 0.181 0.438l-5.875 5.875zM7.938 28.194h-5.875c-0.144 0-0.256-0.119-0.256-0.256v-5.875c0-0.231 0.275-0.344 0.438-0.181l5.875 5.875c0.162 0.163 0.050 0.438-0.181 0.438zM25.938 28.194h-5.875c-0.231 0-0.344-0.275-0.181-0.438l5.875-5.875c0.163-0.163 0.438-0.050 0.438 0.181v5.875c0.006 0.144-0.113 0.256-0.256 0.256z"></path>
</svg>
