<!-- Generated by IcoMoon.io -->
<svg version="1.1" xmlns="http://www.w3.org/2000/svg" width="28" height="32" viewBox="0 0 28 32">
<title>expand-arrows-solid</title>
<path d="M28 19.5v8.5c0 1.106-0.894 2-2 2h-8.5c-0.831 0-1.5-0.669-1.5-1.5v-0.956c0-0.844 0.7-1.525 1.544-1.5l4.144 0.119-7.688-7.688-7.688 7.688 4.144-0.119c0.844-0.025 1.544 0.656 1.544 1.5v0.956c0 0.831-0.669 1.5-1.5 1.5h-8.5c-1.106 0-2-0.894-2-2v-8.5c0-0.831 0.669-1.5 1.5-1.5h0.956c0.844 0 1.525 0.7 1.5 1.544l-0.119 4.144 7.688-7.688-7.688-7.688 0.119 4.144c0.025 0.844-0.656 1.544-1.5 1.544h-0.956c-0.831 0-1.5-0.669-1.5-1.5v-8.5c0-1.106 0.894-2 2-2h8.5c0.831 0 1.5 0.669 1.5 1.5v0.956c0 0.844-0.7 1.525-1.544 1.5l-4.144-0.119 7.687 7.687 7.688-7.688-4.144 0.119c-0.844 0.025-1.544-0.656-1.544-1.5v-0.956c0-0.831 0.669-1.5 1.5-1.5h8.5c1.106 0 2 0.894 2 2v8.5c0 0.831-0.669 1.5-1.5 1.5h-0.956c-0.844 0-1.525-0.7-1.5-1.544l0.119-4.144-7.688 7.688 7.688 7.688-0.119-4.144c-0.025-0.844 0.656-1.544 1.5-1.544h0.956c0.831 0 1.5 0.669 1.5 1.5z"></path>
</svg>
