<!-- Generated by IcoMoon.io -->
<svg version="1.1" xmlns="http://www.w3.org/2000/svg" width="28" height="32" viewBox="0 0 28 32">
<title>expand-arrows</title>
<path d="M27.981 22.75l0.019 6.5c0 0.413-0.337 0.75-0.75 0.75l-6.5-0.019c-0.413 0-0.75-0.337-0.75-0.75v-0.625c0-0.413 0.337-0.75 0.75-0.75l3.625 0.019 0.044-0.044-10.419-10.419-10.419 10.419 0.044 0.044 3.625-0.019c0.412 0 0.75 0.337 0.75 0.75v0.625c0 0.413-0.338 0.75-0.75 0.75l-6.5 0.019c-0.412 0-0.75-0.337-0.75-0.75l0.019-6.5c0-0.413 0.338-0.75 0.75-0.75h0.625c0.412 0 0.75 0.337 0.75 0.75l-0.019 3.625 0.044 0.044 10.419-10.419-10.419-10.419-0.044 0.044 0.019 3.625c0 0.412-0.337 0.75-0.75 0.75h-0.625c-0.412 0-0.75-0.338-0.75-0.75l-0.019-6.5c0-0.413 0.338-0.75 0.75-0.75l6.5 0.019c0.412 0 0.75 0.337 0.75 0.75v0.625c0 0.413-0.338 0.75-0.75 0.75l-3.625-0.019-0.044 0.044 10.419 10.419 10.419-10.419-0.044-0.044-3.625 0.019c-0.413 0-0.75-0.337-0.75-0.75v-0.625c0-0.413 0.337-0.75 0.75-0.75l6.5-0.019c0.413 0 0.75 0.338 0.75 0.75l-0.019 6.5c0 0.412-0.337 0.75-0.75 0.75h-0.625c-0.413 0-0.75-0.338-0.75-0.75l0.019-3.625-0.044-0.044-10.419 10.419 10.419 10.419 0.044-0.044-0.019-3.625c0-0.413 0.337-0.75 0.75-0.75h0.625c0.413 0 0.75 0.337 0.75 0.75z"></path>
</svg>
