<!-- Generated by IcoMoon.io -->
<svg version="1.1" xmlns="http://www.w3.org/2000/svg" width="28" height="32" viewBox="0 0 28 32">
<title>expand-solid</title>
<path d="M0 11.25v-7.75c0-0.831 0.669-1.5 1.5-1.5h7.75c0.412 0 0.75 0.337 0.75 0.75v2.5c0 0.412-0.338 0.75-0.75 0.75h-5.25v5.25c0 0.412-0.337 0.75-0.75 0.75h-2.5c-0.412 0-0.75-0.338-0.75-0.75zM18 2.75v2.5c0 0.412 0.337 0.75 0.75 0.75h5.25v5.25c0 0.412 0.337 0.75 0.75 0.75h2.5c0.413 0 0.75-0.338 0.75-0.75v-7.75c0-0.831-0.669-1.5-1.5-1.5h-7.75c-0.413 0-0.75 0.337-0.75 0.75zM27.25 20h-2.5c-0.413 0-0.75 0.337-0.75 0.75v5.25h-5.25c-0.413 0-0.75 0.337-0.75 0.75v2.5c0 0.413 0.337 0.75 0.75 0.75h7.75c0.831 0 1.5-0.669 1.5-1.5v-7.75c0-0.413-0.337-0.75-0.75-0.75zM10 29.25v-2.5c0-0.413-0.338-0.75-0.75-0.75h-5.25v-5.25c0-0.413-0.337-0.75-0.75-0.75h-2.5c-0.412 0-0.75 0.337-0.75 0.75v7.75c0 0.831 0.669 1.5 1.5 1.5h7.75c0.412 0 0.75-0.337 0.75-0.75z"></path>
</svg>
