<!-- Generated by IcoMoon.io -->
<svg version="1.1" xmlns="http://www.w3.org/2000/svg" width="28" height="32" viewBox="0 0 28 32">
<title>expand-arrows-alt-solid</title>
<path d="M28 21.5v7c0 0.001 0 0.002 0 0.004 0 0.826-0.67 1.496-1.496 1.496-0.001 0-0.003 0-0.004 0h-7c-1.337 0-2.006-1.619-1.063-2.563l2.262-2.262-6.7-6.7-6.702 6.706 2.264 2.256c0.943 0.944 0.274 2.563-1.063 2.563h-7c-0.001 0-0.002 0-0.004 0-0.826 0-1.496-0.67-1.496-1.496 0-0.001 0-0.003 0-0.004v0-7c0-1.337 1.618-2.006 2.563-1.063l2.262 2.262 6.704-6.7-6.705-6.706-2.261 2.269c-0.944 0.944-2.563 0.275-2.563-1.063v-7c0-0.001 0-0.002 0-0.004 0-0.826 0.67-1.496 1.496-1.496 0.001 0 0.003 0 0.004 0h7c1.337 0 2.006 1.619 1.063 2.563l-2.263 2.263 6.7 6.7 6.702-6.706-2.264-2.256c-0.943-0.944-0.274-2.563 1.063-2.563h7c0.001 0 0.002 0 0.004 0 0.826 0 1.496 0.67 1.496 1.496 0 0.001 0 0.003 0 0.004v-0 7c0 1.338-1.618 2.006-2.563 1.063l-2.262-2.262-6.704 6.7 6.705 6.706 2.261-2.262c0.944-0.95 2.563-0.281 2.563 1.056z"></path>
</svg>
