<!-- Generated by IcoMoon.io -->
<svg version="1.1" xmlns="http://www.w3.org/2000/svg" width="32" height="32" viewBox="0 0 32 32">
<title>external-link</title>
<path d="M27.5 16h-1c-0.276 0-0.5 0.224-0.5 0.5v0 12.5c0 0.552-0.448 1-1 1v0h-22c-0.552 0-1-0.448-1-1v0-22c0-0.552 0.448-1 1-1v0h12.5c0.276 0 0.5-0.224 0.5-0.5v0-1c0-0.276-0.224-0.5-0.5-0.5v0h-12.5c-1.657 0-3 1.343-3 3v0 22c0 1.657 1.343 3 3 3v0h22c1.657 0 3-1.343 3-3v0-12.5c0-0.276-0.224-0.5-0.5-0.5v0zM31.25 0l-8.5 0.021c-0.414 0-0.75 0.336-0.75 0.75v0 0.625c0 0.414 0.336 0.75 0.75 0.75v0l5.625-0.021 0.044 0.044-20.199 20.197c-0.136 0.136-0.221 0.324-0.221 0.531s0.084 0.395 0.221 0.531l0.354 0.354c0.136 0.136 0.324 0.221 0.531 0.221s0.395-0.084 0.531-0.221l20.195-20.199 0.044 0.044-0.021 5.625c0 0.414 0.336 0.75 0.75 0.75v0h0.625c0.414 0 0.75-0.336 0.75-0.75v0l0.021-8.502c0-0.414-0.336-0.75-0.75-0.75v0z"></path>
</svg>
