<!-- Generated by IcoMoon.io -->
<svg version="1.1" xmlns="http://www.w3.org/2000/svg" width="32" height="32" viewBox="0 0 32 32">
<title>external-link-alt-solid</title>
<path d="M27 20h-2c-0.552 0-1 0.448-1 1v0 7h-20v-20h9c0.552 0 1-0.448 1-1v0-2c0-0.552-0.448-1-1-1v0h-10c-1.657 0-3 1.343-3 3v0 22c0 1.657 1.343 3 3 3v0h22c1.657 0 3-1.343 3-3v0-8c0-0.552-0.448-1-1-1v0zM30.5 0h-8c-1.336 0-2.003 1.619-1.063 2.563l2.233 2.233-15.233 15.228c-0.273 0.272-0.441 0.647-0.441 1.063s0.169 0.791 0.441 1.062l0 0 1.417 1.414c0.272 0.273 0.647 0.441 1.063 0.441s0.791-0.169 1.062-0.441l15.226-15.23 2.232 2.23c0.938 0.938 2.563 0.281 2.563-1.063v-8c0-0.828-0.672-1.5-1.5-1.5v0z"></path>
</svg>
