<!-- Generated by IcoMoon.io -->
<svg version="1.1" xmlns="http://www.w3.org/2000/svg" width="28" height="32" viewBox="0 0 28 32">
<title>external-link-square-alt</title>
<path d="M25 2h-22c-1.657 0-3 1.343-3 3v22c0 1.657 1.343 3 3 3h22c1.657 0 3-1.343 3-3v-22c0-1.657-1.343-3-3-3zM26 27c0 0.551-0.449 1-1 1h-22c-0.551 0-1-0.449-1-1v-22c0-0.551 0.449-1 1-1h22c0.551 0 1 0.449 1 1v22zM20 8h-0.003l-6.010 0.010c-1.778 0.003-2.666 2.159-1.411 3.414l2.204 2.204-8.621 8.621c-0.293 0.293-0.293 0.768 0 1.061l0.53 0.53c0.293 0.293 0.768 0.293 1.061 0l8.621-8.621 2.204 2.205c1.251 1.251 3.411 0.374 3.414-1.411l0.010-6.010c0.002-1.106-0.895-2.003-2-2.003zM19.99 16.010l-6-6 6.010-0.010-0.010 6.010z"></path>
</svg>
