<!-- Generated by IcoMoon.io -->
<svg version="1.1" xmlns="http://www.w3.org/2000/svg" width="32" height="32" viewBox="0 0 32 32">
<title>external-link-alt</title>
<path d="M27.5 16h-1c-0.276 0-0.5 0.224-0.5 0.5v0 12.5c0 0.552-0.448 1-1 1v0h-22c-0.552 0-1-0.448-1-1v0-22c0-0.552 0.448-1 1-1v0h12.5c0.276 0 0.5-0.224 0.5-0.5v0-1c0-0.276-0.224-0.5-0.5-0.5v0h-12.5c-1.657 0-3 1.343-3 3v0 22c0 1.657 1.343 3 3 3v0h22c1.657 0 3-1.343 3-3v0-12.5c0-0.276-0.224-0.5-0.5-0.5v0zM30 0h-0.004l-6.010 0.011c-1.778 0-2.666 2.159-1.411 3.414l2.205 2.205-16.563 16.563c-0.136 0.136-0.221 0.324-0.221 0.531s0.084 0.395 0.221 0.531l0.531 0.531c0.136 0.136 0.324 0.221 0.531 0.221s0.395-0.084 0.531-0.221l16.563-16.563 2.205 2.204c1.25 1.25 3.411 0.375 3.414-1.411l0.008-6.013c0-0.001 0-0.002 0-0.003 0-1.105-0.895-2-2-2 0 0 0 0 0 0v0zM29.989 8.011l-6-6 6.011-0.011z"></path>
</svg>
