<!-- Generated by IcoMoon.io -->
<svg version="1.1" xmlns="http://www.w3.org/2000/svg" width="28" height="32" viewBox="0 0 28 32">
<title>external-link-square</title>
<path d="M25 2h-22c-1.657 0-3 1.343-3 3v22c0 1.657 1.343 3 3 3h22c1.657 0 3-1.343 3-3v-22c0-1.657-1.343-3-3-3zM26 27c0 0.551-0.449 1-1 1h-22c-0.551 0-1-0.449-1-1v-22c0-0.551 0.449-1 1-1h22c0.551 0 1 0.449 1 1v22zM6.22 23.427c-0.293-0.293-0.293-0.768 0-1.061l12.197-12.197-0.044-0.044-5.622 0.021c-0.414 0-0.75-0.336-0.75-0.75v-0.625c0-0.414 0.336-0.75 0.75-0.75l8.5-0.021c0.414 0 0.75 0.336 0.75 0.75l-0.021 8.5c0 0.414-0.336 0.75-0.75 0.75h-0.625c-0.414 0-0.75-0.336-0.75-0.75l0.021-5.622-0.044-0.044-12.197 12.197c-0.293 0.293-0.768 0.293-1.061 0l-0.354-0.354z"></path>
</svg>
