<!-- Generated by IcoMoon.io -->
<svg version="1.1" xmlns="http://www.w3.org/2000/svg" width="28" height="32" viewBox="0 0 28 32">
<title>external-link-square-alt-solid</title>
<path d="M28 5v22c0 1.657-1.343 3-3 3h-22c-1.657 0-3-1.343-3-3v-22c0-1.657 1.343-3 3-3h22c1.657 0 3 1.343 3 3zM22.5 6h-6.998c-1.332 0-2.005 1.616-1.061 2.561l1.999 1.999-12.22 12.22c-0.293 0.293-0.293 0.768 0 1.061l1.939 1.939c0.293 0.293 0.768 0.293 1.061 0l12.22-12.22 1.999 1.999c0.939 0.939 2.561 0.28 2.561-1.061v-6.999c0-0.828-0.672-1.5-1.5-1.5z"></path>
</svg>
