<!-- Generated by IcoMoon.io -->
<svg version="1.1" xmlns="http://www.w3.org/2000/svg" width="28" height="32" viewBox="0 0 28 32">
<title>external-link-square-solid</title>
<path d="M28 5v22c0 1.657-1.343 3-3 3h-22c-1.657 0-3-1.343-3-3v-22c0-1.657 1.343-3 3-3h22c1.657 0 3 1.343 3 3zM24 7.944c0-1.074-0.871-1.944-1.944-1.944h-8.264c-0.805 0-1.458 0.653-1.458 1.458v0.931c0 0.821 0.678 1.48 1.498 1.458l3.5-0.099-12.963 12.871c-0.491 0.488-0.493 1.282-0.003 1.771l1.244 1.244c0.489 0.489 1.283 0.488 1.771-0.003l12.871-12.963-0.099 3.5c-0.023 0.821 0.637 1.498 1.458 1.498h0.931c0.805 0 1.458-0.653 1.458-1.458v-8.264z"></path>
</svg>
