<!-- Generated by IcoMoon.io -->
<svg version="1.1" xmlns="http://www.w3.org/2000/svg" width="32" height="32" viewBox="0 0 32 32">
<title>external-link-solid</title>
<path d="M27 20h-2c-0.552 0-1 0.448-1 1v0 7h-20v-20h9c0.552 0 1-0.448 1-1v0-2c0-0.552-0.448-1-1-1v0h-10c-1.657 0-3 1.343-3 3v0 22c0 1.657 1.343 3 3 3v0h22c1.657 0 3-1.343 3-3v0-8c0-0.552-0.448-1-1-1v0zM29.667 0h-9.917c-0.966 0-1.75 0.783-1.75 1.75v0 1.169c0.028 0.945 0.8 1.7 1.749 1.7 0.018 0 0.035-0 0.053-0.001l-0.003 0 4.201-0.119-15.563 15.447c-0.271 0.271-0.439 0.646-0.439 1.061s0.168 0.789 0.439 1.061v0l1.5 1.494c0.271 0.269 0.645 0.436 1.057 0.436 0.415 0 0.791-0.169 1.062-0.441l0-0 15.443-15.557-0.117 4.201v0.049c0 0.966 0.784 1.75 1.75 1.75v0h1.117c0.966 0 1.75-0.784 1.75-1.75v0-9.917c0-1.289-1.045-2.333-2.333-2.333v0z"></path>
</svg>
