<!-- Generated by IcoMoon.io -->
<svg version="1.1" xmlns="http://www.w3.org/2000/svg" width="40" height="32" viewBox="0 0 40 32">
<title>eye-evil</title>
<path d="M39.189 14.943l-7.010-1.899c-0.296-0.406-0.626-0.829-0.995-1.266 0.086-0.132 3.454-5.506 3.454-5.506 0.556-0.891-0.377-1.961-1.403-1.589l-7.478 2.708c-0.608-0.304-1.252-0.563-1.927-0.777l-2.774-5.942c-0.209-0.448-0.632-0.671-1.055-0.671s-0.846 0.224-1.055 0.671l-2.774 5.942c-0.676 0.214-1.319 0.474-1.928 0.777-8.116-2.938-7.596-2.782-7.899-2.782-0.836 0-1.463 0.895-0.982 1.664 0 0 3.368 5.375 3.454 5.506-0.369 0.436-0.699 0.859-0.995 1.266l-7.009 1.899c-1.081 0.293-1.081 1.822 0 2.115l7.010 1.899c0.295 0.405 0.624 0.826 0.991 1.261-0.086 0.133-3.45 5.511-3.45 5.511-0.558 0.894 0.379 1.959 1.403 1.589l7.478-2.707c0.608 0.304 1.252 0.563 1.928 0.777l2.774 5.942c0.208 0.447 0.631 0.671 1.054 0.671s0.846-0.224 1.055-0.671l2.774-5.942c0.676-0.214 1.319-0.474 1.928-0.777l7.478 2.707c1.026 0.372 1.959-0.698 1.403-1.589 0 0-3.364-5.378-3.45-5.511 0.367-0.435 0.696-0.856 0.991-1.261l7.010-1.899c1.080-0.293 1.080-1.822-0.001-2.115zM30.977 17.209c-0.936 1.284-0.791 1.094-2.27 2.845l2.861 4.532-5.938-2.149c-1.548 0.774-1.507 0.758-3.243 1.309l-2.388 5.115-2.388-5.115c-1.735-0.551-1.692-0.535-3.243-1.309l-5.938 2.149 2.861-4.532c-1.481-1.753-1.334-1.56-2.27-2.845l-4.466-1.209 4.466-1.209c0.933-1.28 0.784-1.087 2.281-2.857l-2.872-4.52 5.938 2.15c1.543-0.771 1.5-0.756 3.242-1.31l2.389-5.114 2.388 5.115c1.739 0.553 1.692 0.536 3.242 1.31l5.938-2.15-2.872 4.52c1.49 1.763 1.342 1.57 2.281 2.857l4.466 1.209-4.466 1.209zM20 13.333c-2.051 0-3.919-0.549-5.403-1.443-0.692 1.033-1.097 2.274-1.097 3.61 0 3.59 2.91 6.5 6.5 6.5s6.5-2.91 6.5-6.5c0-1.336-0.405-2.577-1.097-3.609-1.484 0.893-3.352 1.442-5.403 1.442zM20 20c-2.481 0-4.5-2.019-4.5-4.5 0-0.314 0.033-0.625 0.096-0.928 0.776 0.283 1.595 0.467 2.432 0.594-0.005 0.059-0.028 0.107-0.028 0.168 0 1.778 2 2.667 2 2.667s2-0.889 2-2.667c0-0.061-0.024-0.109-0.028-0.168 0.837-0.126 1.656-0.311 2.432-0.594 0.064 0.303 0.096 0.614 0.096 0.928 0 2.481-2.019 4.5-4.5 4.5z"></path>
</svg>
