<!-- Generated by IcoMoon.io -->
<svg version="1.1" xmlns="http://www.w3.org/2000/svg" width="40" height="32" viewBox="0 0 40 32">
<title>eye-evil-solid</title>
<path d="M39.189 14.943l-6.992-1.894c-0.299-0.41-0.634-0.838-1.008-1.278 0.084-0.129 3.449-5.499 3.449-5.499 0.559-0.895-0.381-1.959-1.403-1.589l-7.485 2.71c-0.605-0.301-1.244-0.557-1.916-0.77l-2.779-5.952c-0.418-0.894-1.692-0.894-2.11 0l-2.779 5.952c-0.671 0.213-1.311 0.469-1.916 0.77l-7.486-2.71c-1.022-0.371-1.961 0.694-1.403 1.589 0 0 3.365 5.37 3.449 5.499-0.319 0.373-0.649 0.789-0.965 1.217l-0.043 0.062-6.992 1.894c-1.081 0.293-1.081 1.822 0 2.114l6.992 1.894c0.299 0.409 0.632 0.834 1.004 1.274-0.084 0.131-3.445 5.503-3.445 5.503-0.559 0.895 0.381 1.959 1.403 1.589l7.486-2.71c0.605 0.301 1.244 0.558 1.916 0.77l2.779 5.953c0.418 0.894 1.692 0.894 2.11 0l2.779-5.953c0.671-0.212 1.311-0.469 1.916-0.77l7.486 2.71c1.022 0.37 1.962-0.694 1.403-1.589 0 0-3.361-5.372-3.445-5.503 0.372-0.439 0.706-0.865 1.004-1.274l6.992-1.894c1.080-0.293 1.080-1.821-0.001-2.114zM20 22c-3.314 0-6-2.686-6-6 0-1.233 0.374-2.379 1.012-3.332 0.994 0.598 2.173 1.021 3.474 1.208-0.276 0.578-0.487 1.276-0.487 2.124 0 2.667 2 4 2 4s2-1.333 2-4c0-0.848-0.211-1.546-0.487-2.124 1.301-0.188 2.48-0.61 3.474-1.208 0.638 0.953 1.012 2.099 1.012 3.332 0 3.314-2.686 6-6 6z"></path>
</svg>
