<!-- Generated by IcoMoon.io -->
<svg version="1.1" xmlns="http://www.w3.org/2000/svg" width="40" height="32" viewBox="0 0 40 32">
<title>eye-slash</title>
<path d="M39.813 30.328l-38.375-30.219c-0.085-0.068-0.194-0.109-0.312-0.109-0.157 0-0.298 0.073-0.39 0.187l-0.001 0.001-0.625 0.782c-0.068 0.085-0.11 0.194-0.11 0.312 0 0.157 0.073 0.298 0.186 0.389l0.001 0.001 38.375 30.219c0.085 0.068 0.194 0.11 0.313 0.11 0.158 0 0.298-0.073 0.39-0.187l0.001-0.001 0.625-0.782c0.068-0.085 0.109-0.194 0.109-0.312 0-0.157-0.073-0.298-0.187-0.39l-0.001-0.001zM20 6c4.416 0.005 7.995 3.584 8 8v0c0 1.351-0.369 2.606-0.962 3.723l1.591 1.25c0.85-1.468 1.372-3.152 1.372-4.973 0-2.302-0.807-4.394-2.111-6.083 3.511 1.799 6.303 4.58 8.066 7.981l0.048 0.103c-1.108 2.124-2.525 3.928-4.216 5.431l-0.019 0.017 1.582 1.246c1.779-1.643 3.304-3.579 4.433-5.782 0.137-0.265 0.217-0.579 0.217-0.912s-0.080-0.647-0.223-0.924l0.005 0.011c-3.389-6.613-10.099-11.088-17.783-11.088-0.003 0-0.007 0-0.010 0-2.946 0-5.739 0.655-8.241 1.827l0.119-0.050 2.861 2.25c1.412-1.244 3.244-2.027 5.272-2.027zM23.804 15.177c0.125-0.367 0.197-0.79 0.197-1.23 0-2.18-1.767-3.947-3.947-3.947-0.019 0-0.038 0-0.056 0l0.003-0c-0.063 0-0.118 0.015-0.178 0.018 0.113 0.293 0.178 0.632 0.178 0.986 0 0.369-0.071 0.722-0.2 1.045l0.007-0.019zM10.203 12.104c-0.124 0.568-0.197 1.222-0.202 1.892l-0 0.004c-0 0.011-0 0.025-0 0.038 0 5.502 4.46 9.962 9.962 9.962 1.517 0 2.954-0.339 4.241-0.945l-0.061 0.026-1.849-1.456c-0.731 0.221-1.491 0.375-2.293 0.375-4.416-0.005-7.995-3.584-8.001-8v-0.001c0-0.152 0.037-0.295 0.045-0.445zM20 26c-6.71 0-12.842-3.832-16-10 1.089-2.125 2.568-3.92 4.269-5.42l-1.616-1.273c-1.78 1.643-3.304 3.578-4.433 5.781-0.137 0.265-0.217 0.579-0.217 0.912s0.080 0.647 0.223 0.924l-0.005-0.011c3.387 6.613 10.097 11.088 17.78 11.088 0.003 0 0.006 0 0.010 0 2.946 0 5.739-0.655 8.242-1.827l-0.119 0.050-1.828-1.438c-1.988 0.767-4.108 1.214-6.304 1.214z"></path>
</svg>
