<!-- Generated by IcoMoon.io -->
<svg version="1.1" xmlns="http://www.w3.org/2000/svg" width="32" height="32" viewBox="0 0 32 32">
<title>eye-dropper</title>
<path d="M30.226 1.664c-2.219-2.228-5.803-2.208-8.002 0l-5.164 5.184-1.063-1.066c-0.586-0.588-1.536-0.588-2.122 0l-2.561 2.571c-0.586 0.588-0.586 1.542 0 2.13l1.061 1.066-9.206 9.365c-0.725 0.728-1.173 1.731-1.173 2.839 0 0 0 0.001 0 0.001v-0 2.109l-1.688 2.487c-0.499 0.794-0.383 1.828 0.278 2.491l0.569 0.571c0.661 0.663 1.691 0.779 2.482 0.279l2.478-1.694h2.101c1.106-0 2.106-0.45 2.829-1.176l0-0 9.332-9.241 1.060 1.065c0.586 0.588 1.536 0.588 2.122 0l2.561-2.571c0.586-0.588 0.586-1.542 0-2.13l-1.059-1.064 5.164-5.184c1.854-1.861 2.827-5.194 0-8.032zM9.631 27.526c-0.378 0.379-0.88 0.463-1.414 0.463h-2.679l-2.967 2.003-0.569-0.571 1.996-2.978v-2.689c0-0.536 0.208-1.041 0.586-1.42l9.206-9.366 5.173 5.193-9.332 9.366zM28.811 8.276l-6.579 6.603 2.121 2.129-1.854 1.861-9.417-9.453 1.854-1.861 2.123 2.131 6.579-6.604c1.426-1.432 3.747-1.432 5.173 0 2.462 2.471 0.432 4.759 0 5.192z"></path>
</svg>
