<!-- Generated by IcoMoon.io -->
<svg version="1.1" xmlns="http://www.w3.org/2000/svg" width="32" height="32" viewBox="0 0 32 32">
<title>eye-dropper-solid</title>
<path d="M3.172 20.828c-0.75 0.75-1.172 1.767-1.172 2.829v2.843l-2 3.5 2 2 3.5-2h2.843c1.061 0 2.078-0.421 2.828-1.171l7.915-7.914-8-8-7.914 7.913zM30.242 1.758c-2.342-2.344-6.142-2.344-8.484 0l-4.818 4.818-0.819-0.819c-0.59-0.59-1.541-0.582-2.121 0l-2.561 2.561c-0.586 0.586-0.586 1.536 0 2.121l10.121 10.121c0.59 0.59 1.541 0.582 2.121 0l2.561-2.56c0.586-0.586 0.586-1.536 0-2.121l-0.819-0.819 4.818-4.818c2.344-2.342 2.344-6.141 0.001-8.484z"></path>
</svg>
