<!-- Generated by IcoMoon.io -->
<svg version="1.1" xmlns="http://www.w3.org/2000/svg" width="36" height="32" viewBox="0 0 36 32">
<title>eye</title>
<path d="M18 18c2.209 0 4-1.791 4-4s-1.791-4-4-4v0c-0.063 0-0.117 0.015-0.178 0.018 0.113 0.301 0.178 0.65 0.178 1.013 0 1.64-1.329 2.969-2.969 2.969-0.364 0-0.712-0.065-1.034-0.185l0.021 0.007c0 0.063-0.018 0.117-0.018 0.178 0 2.209 1.791 4 4 4v0zM35.782 15.088c-3.389-6.613-10.099-11.088-17.782-11.088s-14.395 4.477-17.782 11.088c-0.137 0.265-0.217 0.579-0.217 0.912s0.080 0.647 0.223 0.924l-0.005-0.011c3.389 6.613 10.099 11.088 17.782 11.088s14.395-4.477 17.782-11.088c0.137-0.265 0.217-0.579 0.217-0.912s-0.080-0.647-0.223-0.924l0.005 0.011zM18 6c4.418 0 8 3.582 8 8s-3.582 8-8 8c-4.418 0-8-3.582-8-8v0c0.005-4.416 3.584-7.995 8-8h0zM18 26c-6.71 0-12.841-3.832-16-10 1.81-3.503 4.601-6.284 8.008-8.035l0.104-0.048c-1.304 1.689-2.111 3.781-2.111 6.083 0 5.523 4.477 10 10 10s10-4.477 10-10v0c0-2.302-0.807-4.394-2.111-6.083 3.511 1.799 6.301 4.58 8.063 7.981l0.048 0.103c-3.158 6.168-9.29 10-16 10z"></path>
</svg>
