<!-- Generated by IcoMoon.io -->
<svg version="1.1" xmlns="http://www.w3.org/2000/svg" width="28" height="32" viewBox="0 0 28 32">
<title>fan-table-solid</title>
<path d="M20 28h-4.5v-2.093c6.472-0.745 11.5-6.235 11.5-12.907 0-7.179-5.82-13-13-13s-13 5.821-13 13c0 6.672 5.028 12.162 11.5 12.907v2.093h-4.5c-1.776 0-3.434 1.158-3.956 2.76-0.201 0.615 0.324 1.24 0.973 1.24h17.968c0.649 0 1.174-0.625 0.973-1.24-0.519-1.602-2.18-2.76-3.956-2.76zM7.479 20.925c-0.443-0.255-0.911-1.054-0.321-1.768l4.217-5.125c-3.573-1.268-4.324-4.831-3.728-7.063 0.418-1.542 1.408-2.804 2.722-3.569l0.028-0.015c0.813-0.462 1.516 0.147 1.688 0.608l2.317 6.187c1.023-0.876 2.362-1.409 3.825-1.409 3.257 0 5.898 2.64 5.898 5.898 0 0.006 0 0.012-0 0.018v-0.001c-0 0.65-0.527 1.177-1.177 1.177-0.068 0-0.134-0.006-0.199-0.017l0.007 0.001-6.544-1.091c0.067 0.331 0.105 0.712 0.105 1.102 0 1.069-0.287 2.071-0.789 2.932l0.015-0.028c-1.040 1.776-2.939 2.951-5.112 2.951-1.087 0-2.105-0.294-2.979-0.806l0.028 0.015zM14 12c0.552 0 1 0.448 1 1s-0.448 1-1 1c-0.552 0-1-0.448-1-1v0c0-0.552 0.448-1 1-1v0z"></path>
</svg>
