<!-- Generated by IcoMoon.io -->
<svg version="1.1" xmlns="http://www.w3.org/2000/svg" width="28" height="32" viewBox="0 0 28 32">
<title>fan-table</title>
<path d="M14 13.089c-0.503 0-0.911 0.408-0.911 0.911s0.408 0.911 0.911 0.911c0.503 0 0.911-0.408 0.911-0.911v0c0-0.503-0.408-0.911-0.911-0.911v0zM28 14c0-7.732-6.268-14-14-14s-14 6.268-14 14c0 7.394 5.737 13.438 13 13.949v2.051h-7.5c-0.828 0-1.5 0.672-1.5 1.5v0c0 0.276 0.224 0.5 0.5 0.5v0h19c0.276 0 0.5-0.224 0.5-0.5v0c0-0.828-0.672-1.5-1.5-1.5v0h-7.5v-2.051c7.263-0.512 13-6.555 13-13.949zM14 25.846c-6.532 0-11.846-5.313-11.846-11.846s5.314-11.846 11.846-11.846 11.846 5.313 11.846 11.846-5.314 11.846-11.846 11.846zM23.951 15.208c0-0.002 0-0.003 0-0.005 0-3.51-2.845-6.355-6.355-6.355-0.87 0-1.699 0.175-2.454 0.491l0.042-0.016-1.308-3.497c-0.5-1.335-2.132-2.047-3.5-1.257-1.914 1.12-3.179 3.166-3.179 5.508 0 1.171 0.316 2.268 0.868 3.21l-0.016-0.030c0.425 0.728 0.967 1.339 1.606 1.83l0.015 0.011-2.381 2.893c-0.345 0.418-0.555 0.959-0.555 1.548 0 0.899 0.487 1.685 1.212 2.107l0.012 0.006c0.908 0.533 1.999 0.849 3.165 0.851h0c1.805 0 4.163-0.836 5.517-3.181 0.392-0.669 0.668-1.453 0.777-2.291l0.003-0.031c0.772 0.125 1.973 0.327 3.696 0.614 1.314 0.219 2.837-0.743 2.837-2.406zM21.473 15.642c-0.101 0-4.803-0.807-4.934-0.807-0.008 0-0.003 0-0.012 0-0.625 0-1.089 0.537-1.063 1.154 0.003 0.061 0.005 0.133 0.005 0.205 0 0.783-0.211 1.516-0.578 2.146l0.011-0.020c-1.218 2.11-3.381 2.181-3.738 2.181-0.011 0-0.024 0-0.037 0-0.803 0-1.556-0.218-2.201-0.598l0.020 0.011c-0.131-0.077-0.218-0.218-0.218-0.379 0-0.105 0.037-0.202 0.099-0.278l-0.001 0.001 3.063-3.717c0.489-0.594 0.173-1.351-0.364-1.629-0.737-0.382-1.332-0.948-1.739-1.639l-0.011-0.020c-0.367-0.625-0.584-1.377-0.584-2.179 0-1.605 0.867-3.007 2.159-3.764l0.021-0.011c0.063-0.037 0.139-0.059 0.219-0.059 0.187 0 0.347 0.118 0.41 0.283l0.001 0.003 1.688 4.5c0.157 0.4 0.54 0.678 0.988 0.678 0.219 0 0.422-0.066 0.591-0.18l-0.004 0.002c0.661-0.425 1.467-0.678 2.333-0.678 2.405 0 4.354 1.95 4.354 4.354 0 0.002 0 0.003 0 0.005v-0c0.001 0.228-0.161 0.432-0.477 0.432z"></path>
</svg>
