<!-- Generated by IcoMoon.io -->
<svg version="1.1" xmlns="http://www.w3.org/2000/svg" width="32" height="32" viewBox="0 0 32 32">
<title>fan</title>
<path d="M21.659 7.5c-0.015-0-0.033-0-0.051-0-1.177 0-2.323 0.137-3.421 0.395l0.101-0.020 0.578-5.734c0.006-0.058 0.010-0.125 0.010-0.194 0-0.5-0.19-0.955-0.501-1.299l0.001 0.002c-0.364-0.4-0.887-0.65-1.468-0.651h-0c-0 0-0 0-0.001 0-0.088 0-0.174 0.006-0.259 0.017l0.010-0.001c-5.219 0.654-9.157 5.094-9.157 10.326-0 0.015-0 0.033-0 0.050 0 1.178 0.137 2.323 0.395 3.422l-0.020-0.101-5.784-0.583-0.147-0.005c-0.577 0.002-1.094 0.255-1.448 0.655l-0.002 0.002c-0.308 0.348-0.495 0.808-0.495 1.312 0 0.088 0.006 0.175 0.017 0.261l-0.001-0.010c0.654 5.218 5.094 9.155 10.326 9.155 0.015 0 0.033 0 0.051 0 1.177 0 2.323-0.137 3.421-0.395l-0.101 0.020-0.578 5.734c-0.006 0.058-0.010 0.126-0.010 0.194 0 0.5 0.19 0.955 0.501 1.298l-0.001-0.002c0.365 0.4 0.888 0.651 1.47 0.651 0.088 0 0.174-0.006 0.259-0.017l-0.010 0.001c5.219-0.654 9.156-5.094 9.156-10.326 0-0.015 0-0.033 0-0.050 0-1.177-0.137-2.323-0.395-3.421l0.020 0.101 5.784 0.582 0.146 0.005c0.576-0.001 1.094-0.254 1.448-0.655l0.002-0.002c0.307-0.348 0.495-0.808 0.495-1.312 0-0.088-0.006-0.175-0.017-0.26l0.001 0.010c-0.653-5.218-5.093-9.156-10.324-9.156zM22.846 16.148l-1.583-0.159 0.543 1.496c0.461 1.266 0.694 2.672 0.694 4.174 0 4.226-3.184 7.813-7.375 8.402l0.727-7.213 0.159-1.583-1.496 0.543c-1.266 0.46-2.672 0.693-4.174 0.693-4.226 0-7.812-3.184-8.404-7.375l8.797 0.886-0.543-1.496c-0.458-1.266-0.691-2.672-0.691-4.174 0-4.214 3.165-7.791 7.369-8.337l-0.721 7.148-0.159 1.583 1.496-0.543c1.266-0.461 2.672-0.694 4.174-0.694 4.226 0 7.813 3.184 8.402 7.375zM16 14c-1.105 0-2 0.895-2 2s0.895 2 2 2c1.105 0 2-0.895 2-2v0c0-1.105-0.895-2-2-2v0z"></path>
</svg>
