<!-- Generated by IcoMoon.io -->
<svg version="1.1" xmlns="http://www.w3.org/2000/svg" width="36" height="32" viewBox="0 0 36 32">
<title>farm</title>
<path d="M9.669 12l1-2h-8.669v-2.705c0-2.615 1.875-5 4.478-5.268 0.155-0.017 0.335-0.027 0.517-0.027 2.763 0 5.002 2.238 5.006 5v0.41c0.411-0.737 1.027-1.317 1.77-1.674l0.024-0.010c-0.688-3.063-3.203-5.548-6.418-5.716-0.112-0.006-0.244-0.010-0.376-0.010-3.866 0-7 3.134-7 7 0 0 0 0 0 0v0 24c0 0.552 0.448 1 1 1v0h7v-2h-6v-18zM25.5 14h-5c-0.276 0-0.5 0.224-0.5 0.5v0 5c0 0.276 0.224 0.5 0.5 0.5v0h5c0.276 0 0.5-0.224 0.5-0.5v0-5c0-0.276-0.224-0.5-0.5-0.5v0zM24 18h-2v-2h2zM35.789 15.389l-3.468-6.938c-0.211-0.415-0.55-0.74-0.964-0.928l-0.013-0.005-7.532-3.346c-0.239-0.109-0.518-0.172-0.813-0.172s-0.574 0.064-0.825 0.178l0.013-0.005-7.532 3.348c-0.418 0.188-0.842 0.664-0.976 0.933l-3.468 6.938c-0.133 0.26-0.211 0.568-0.211 0.893v14.716c0 0.552 0.448 1 1 1v0h8c0.552 0 1-0.448 1-1v0-5h6v5c0 0.552 0.448 1 1 1v0h8c0.552 0 1-0.448 1-1v0-14.716c-0-0.326-0.078-0.634-0.217-0.906l0.005 0.011zM34 30h-6v-5c0-0.552-0.448-1-1-1v0h-8c-0.552 0-1 0.448-1 1v0 5h-6v-13.716l3.468-6.938 7.532-3.346 7.532 3.348 3.468 6.937z"></path>
</svg>
