<!-- Generated by IcoMoon.io -->
<svg version="1.1" xmlns="http://www.w3.org/2000/svg" width="36" height="32" viewBox="0 0 36 32">
<title>farm-solid</title>
<path d="M13.844 5.692l0.023-0.011c-0.639-3.258-3.472-5.682-6.871-5.682-3.864 0-6.996 3.132-6.996 6.996 0 0.002 0 0.003 0 0.005v-0 25h8v-15.716c0.001-0.652 0.157-1.268 0.433-1.812l-0.011 0.023 3.467-6.938c0.423-0.83 1.1-1.479 1.929-1.854l0.025-0.010zM35.789 15.389l-3.468-6.938c-0.211-0.415-0.55-0.74-0.964-0.928l-0.013-0.005-7.532-3.346c-0.239-0.109-0.518-0.172-0.813-0.172s-0.574 0.064-0.825 0.178l0.013-0.005-7.532 3.348c-0.427 0.193-0.765 0.518-0.971 0.922l-0.005 0.011-3.468 6.938c-0.133 0.26-0.211 0.568-0.211 0.893v15.716h8v-6h10v6h8v-15.716c-0-0.326-0.078-0.634-0.217-0.906l0.005 0.011zM26 20h-6v-6h6z"></path>
</svg>
