<!-- Generated by IcoMoon.io -->
<svg version="1.1" xmlns="http://www.w3.org/2000/svg" width="32" height="32" viewBox="0 0 32 32">
<title>fast-backward</title>
<path d="M0.75 27.938h0.5c0.413 0 0.75-0.337 0.75-0.75v-9.856c0.056 0.063 0.119 0.125 0.188 0.181l12.531 9.963c1.288 1.075 3.281 0.175 3.281-1.538v-7.363l10.719 8.9c1.288 1.075 3.281 0.175 3.281-1.538v-20c0-1.713-1.994-2.612-3.281-1.537l-10.719 8.969v-7.425c0-1.712-1.994-2.612-3.281-1.538l-12.531 10.031c-0.069 0.056-0.131 0.119-0.188 0.181v-9.931c0-0.412-0.337-0.75-0.75-0.75h-0.5c-0.412 0-0.75 0.338-0.75 0.75v22.5c0 0.413 0.338 0.75 0.75 0.75zM18.281 15.975l0.025-0.012 11.694-10.025v20l-11.719-9.963zM3.813 15.95l12.188-10.012v20l-0.012-0.012-12.175-9.925v-0.050z"></path>
</svg>
