<!-- Generated by IcoMoon.io -->
<svg version="1.1" xmlns="http://www.w3.org/2000/svg" width="32" height="32" viewBox="0 0 32 32">
<title>fast-forward</title>
<path d="M31.25 3.938h-0.5c-0.413 0-0.75 0.338-0.75 0.75v9.856c-0.056-0.063-0.119-0.125-0.188-0.181l-12.531-9.963c-1.287-1.069-3.281-0.175-3.281 1.537v7.362l-10.719-8.9c-1.288-1.069-3.281-0.175-3.281 1.537v20c0 1.712 1.994 2.613 3.281 1.538l10.719-8.963v7.425c0 1.712 1.994 2.613 3.281 1.538l12.531-10.037c0.069-0.056 0.131-0.119 0.188-0.181v9.931c0 0.413 0.337 0.75 0.75 0.75h0.5c0.413 0 0.75-0.337 0.75-0.75v-22.5c0-0.412-0.337-0.75-0.75-0.75zM13.719 15.9l-0.025 0.012-11.694 10.025v-20l11.719 9.963zM28.188 15.931l-12.188 10.006v-20l0.012 0.013 12.175 9.925v0.056z"></path>
</svg>
