<!-- Generated by IcoMoon.io -->
<svg version="1.1" xmlns="http://www.w3.org/2000/svg" width="32" height="32" viewBox="0 0 32 32">
<title>fast-backward-solid</title>
<path d="M0 27.25v-22.5c0-0.412 0.338-0.75 0.75-0.75h2.5c0.413 0 0.75 0.338 0.75 0.75v9.494l10.719-9.781c1.288-1.069 3.281-0.175 3.281 1.537v8.244l10.719-9.781c1.288-1.069 3.281-0.175 3.281 1.537v20c0 1.712-1.994 2.606-3.281 1.538l-10.719-9.706v8.169c0 1.712-1.994 2.606-3.281 1.538l-10.719-9.706v9.419c0 0.413-0.337 0.75-0.75 0.75h-2.5c-0.412 0-0.75-0.337-0.75-0.75z"></path>
</svg>
