<!-- Generated by IcoMoon.io -->
<svg version="1.1" xmlns="http://www.w3.org/2000/svg" width="32" height="32" viewBox="0 0 32 32">
<title>fast-forward-solid</title>
<path d="M32 4.75v22.5c0 0.413-0.337 0.75-0.75 0.75h-2.5c-0.413 0-0.75-0.337-0.75-0.75v-9.494l-10.719 9.781c-1.287 1.075-3.281 0.175-3.281-1.538v-8.244l-10.719 9.781c-1.288 1.075-3.281 0.175-3.281-1.538v-20c0-1.713 1.994-2.606 3.281-1.537l10.719 9.713v-8.175c0-1.713 1.994-2.606 3.281-1.537l10.719 9.713v-9.425c0-0.412 0.337-0.75 0.75-0.75h2.5c0.413 0 0.75 0.338 0.75 0.75z"></path>
</svg>
