<!-- Generated by IcoMoon.io -->
<svg version="1.1" xmlns="http://www.w3.org/2000/svg" width="32" height="32" viewBox="0 0 32 32">
<title>faucet-drip</title>
<path d="M4.099 5.994l8.901-0.939 8.901 0.938c0.589 0.063 1.099-0.426 1.099-1.050v-1.887c0-0.625-0.511-1.113-1.099-1.050l-7.901 0.834v-2.339c0-0.276-0.224-0.5-0.5-0.5v0h-1c-0.276 0-0.5 0.224-0.5 0.5v0 2.339l-7.901-0.834c-0.589-0.063-1.099 0.426-1.099 1.050v1.889c0 0.624 0.511 1.112 1.099 1.050zM23 11h-3.768c-1.27-1.576-3.104-2.652-5.192-2.919l-0.040-0.004v-0.905l-1-0.106-1 0.106v0.905c-2.127 0.271-3.962 1.347-5.22 2.908l-0.012 0.015h-6.268c-0.276 0-0.5 0.224-0.5 0.5v0 1c0 0.276 0.224 0.5 0.5 0.5v0h7.332c1.043-1.786 2.953-3 5.168-3s4.128 1.214 5.168 3h4.832c3.864 0.005 6.995 3.136 7 7v2h-6v-2c0-0.552-0.448-1-1-1v0h-4.832c-1.040 1.786-2.953 3-5.168 3s-4.125-1.214-5.168-3h-7.332c-0.276 0-0.5 0.224-0.5 0.5v0 1c0 0.276 0.224 0.5 0.5 0.5v0h6.268c1.473 1.835 3.717 3 6.232 3s4.759-1.165 6.22-2.985l0.012-0.016h2.768v1c0 1.105 0.895 2 2 2v0h6c1.105 0 2-0.895 2-2v0-2c0-4.963-4.037-9-9-9zM25 30c0 1.105 0.895 2 2 2s2-0.895 2-2v0c0-1.104-2-4-2-4s-2 2.896-2 4z"></path>
</svg>
