<!-- Generated by IcoMoon.io -->
<svg version="1.1" xmlns="http://www.w3.org/2000/svg" width="32" height="32" viewBox="0 0 32 32">
<title>faucet-solid</title>
<path d="M22 16h-2.413c-0.982-0.84-2.216-1.442-3.587-1.75v-2.973l-2-0.211-2 0.211v2.973c-1.371 0.313-2.605 0.912-3.587 1.75h-7.413c-0.552 0-1 0.448-1 1v0 6c0 0.552 0.448 1 1 1v0h5.799c1.287 2.358 4.013 4 7.201 4s5.914-1.642 7.201-4h0.799c1.105 0 2 0.895 2 2v0c0 1.105 0.895 2 2 2v0h4c1.105 0 2-0.895 2-2v0c0-5.523-4.477-10-10-10v0zM5.099 9.994l8.901-0.938 8.901 0.938c0.589 0.063 1.099-0.426 1.099-1.050v-1.889c0-0.625-0.511-1.112-1.099-1.051l-6.901 0.729v-1.734c0-0.552-0.448-1-1-1v0h-2c-0.552 0-1 0.448-1 1v0 1.734l-6.901-0.729c-0.589-0.062-1.099 0.426-1.099 1.051v1.889c0 0.624 0.511 1.113 1.099 1.050z"></path>
</svg>
