<!-- Generated by IcoMoon.io -->
<svg version="1.1" xmlns="http://www.w3.org/2000/svg" width="32" height="32" viewBox="0 0 32 32">
<title>fax-solid</title>
<path d="M30 10v-5.172c-0-0.552-0.224-1.052-0.586-1.414l-2.828-2.828c-0.362-0.362-0.862-0.586-1.414-0.586h-15.172c-1.105 0-2 0.895-2 2v0 28c0 1.105 0.895 2 2 2v0h20c1.105 0 2-0.895 2-2v0-18c0-1.105-0.895-2-2-2v0zM18 27c0 0.552-0.448 1-1 1v0h-2c-0.552 0-1-0.448-1-1v0-2c0-0.552 0.448-1 1-1v0h2c0.552 0 1 0.448 1 1v0zM18 19c0 0.552-0.448 1-1 1v0h-2c-0.552 0-1-0.448-1-1v0-2c0-0.552 0.448-1 1-1v0h2c0.552 0 1 0.448 1 1v0zM26 27c0 0.552-0.448 1-1 1v0h-2c-0.552 0-1-0.448-1-1v0-2c0-0.552 0.448-1 1-1v0h2c0.552 0 1 0.448 1 1v0zM26 19c0 0.552-0.448 1-1 1v0h-2c-0.552 0-1-0.448-1-1v0-2c0-0.552 0.448-1 1-1v0h2c0.552 0 1 0.448 1 1v0zM26 12h-14v-8h10v3c0 0.552 0.448 1 1 1v0h3zM4 8h-2c-1.105 0-2 0.895-2 2v0 20c0 1.105 0.895 2 2 2v0h2c1.105 0 2-0.895 2-2v0-20c0-1.105-0.895-2-2-2v0z"></path>
</svg>
