<!-- Generated by IcoMoon.io -->
<svg version="1.1" xmlns="http://www.w3.org/2000/svg" width="32" height="32" viewBox="0 0 32 32">
<title>fax</title>
<path d="M24.5 19h1c0.276 0 0.5-0.224 0.5-0.5v0-1c0-0.276-0.224-0.5-0.5-0.5v0h-1c-0.276 0-0.5 0.224-0.5 0.5v0 1c0 0.276 0.224 0.5 0.5 0.5v0zM24.5 27h1c0.276 0 0.5-0.224 0.5-0.5v0-1c0-0.276-0.224-0.5-0.5-0.5v0h-1c-0.276 0-0.5 0.224-0.5 0.5v0 1c0 0.276 0.224 0.5 0.5 0.5v0zM5 8h-2c-1.657 0-3 1.343-3 3v0 18c0 1.657 1.343 3 3 3v0h2c1.657 0 3-1.343 3-3v0-18c0-1.657-1.343-3-3-3v0zM6 29c0 0.552-0.448 1-1 1v0h-2c-0.552 0-1-0.448-1-1v0-18c0-0.552 0.448-1 1-1v0h2c0.552 0 1 0.448 1 1v0zM24.5 23h1c0.276 0 0.5-0.224 0.5-0.5v0-1c0-0.276-0.224-0.5-0.5-0.5v0h-1c-0.276 0-0.5 0.224-0.5 0.5v0 1c0 0.276 0.224 0.5 0.5 0.5v0zM16.5 27h1c0.276 0 0.5-0.224 0.5-0.5v0-1c0-0.276-0.224-0.5-0.5-0.5v0h-1c-0.276 0-0.5 0.224-0.5 0.5v0 1c0 0.276 0.224 0.5 0.5 0.5v0zM16.5 23h1c0.276 0 0.5-0.224 0.5-0.5v0-1c0-0.276-0.224-0.5-0.5-0.5v0h-1c-0.276 0-0.5 0.224-0.5 0.5v0 1c0 0.276 0.224 0.5 0.5 0.5v0zM30 10.184v-3.356c-0-0.552-0.224-1.052-0.586-1.414l-4.828-4.827c-0.362-0.362-0.862-0.586-1.414-0.586h-10.172c-1.657 0-3 1.343-3 3v0 26c0 1.657 1.343 3 3 3v0h16c1.657 0 3-1.343 3-3v0-16c-0.003-1.294-0.827-2.395-1.979-2.81l-0.021-0.007zM24 2.828l3.172 3.172h-3.172zM12 3c0-0.552 0.448-1 1-1v0h9v4c0 1.105 0.895 2 2 2v0h4v4h-16zM30 29c0 0.552-0.448 1-1 1v0h-16c-0.552 0-1-0.448-1-1v0-15h18zM20.5 27h1c0.276 0 0.5-0.224 0.5-0.5v0-1c0-0.276-0.224-0.5-0.5-0.5v0h-1c-0.276 0-0.5 0.224-0.5 0.5v0 1c0 0.276 0.224 0.5 0.5 0.5v0zM20.5 23h1c0.276 0 0.5-0.224 0.5-0.5v0-1c0-0.276-0.224-0.5-0.5-0.5v0h-1c-0.276 0-0.5 0.224-0.5 0.5v0 1c0 0.276 0.224 0.5 0.5 0.5v0zM20.5 19h1c0.276 0 0.5-0.224 0.5-0.5v0-1c0-0.276-0.224-0.5-0.5-0.5v0h-1c-0.276 0-0.5 0.224-0.5 0.5v0 1c0 0.276 0.224 0.5 0.5 0.5v0zM16.5 19h1c0.276 0 0.5-0.224 0.5-0.5v0-1c0-0.276-0.224-0.5-0.5-0.5v0h-1c-0.276 0-0.5 0.224-0.5 0.5v0 1c0 0.276 0.224 0.5 0.5 0.5v0z"></path>
</svg>
