<!-- Generated by IcoMoon.io -->
<svg version="1.1" xmlns="http://www.w3.org/2000/svg" width="32" height="32" viewBox="0 0 32 32">
<title>feather-alt-solid</title>
<path d="M32 0c-3.236 0.223-25.973 2.388-27.562 17.976-0.193 1.666-0.303 3.34-0.374 5.015l11.179-11.168c0.391-0.391 1.025-0.391 1.416 0s0.391 1.024 0 1.414l-16.219 16.203c-0.586 0.586-0.586 1.536 0 2.121s1.537 0.586 2.124 0l3.571-3.567c2.631-0.009 5.259-0.158 7.872-0.46 3.343-0.34 6.064-1.654 8.286-3.534h-6.309l9.174-3.055c0.703-0.931 1.336-1.919 1.903-2.945h-5.071l6.659-3.326c2.619-6.371 3.238-13.033 3.351-14.674z"></path>
</svg>
