<!-- Generated by IcoMoon.io -->
<svg version="1.1" xmlns="http://www.w3.org/2000/svg" width="32" height="32" viewBox="0 0 32 32">
<title>feather-solid</title>
<path d="M29.196 2.803c-3.909-3.905-10.104-4.049-15.768 1.608-4.913 4.907-3.811 3.808-5.359 5.354-3.779 3.774-4.399 9.427-3.978 13.198l11.152-11.141c0.391-0.391 1.025-0.391 1.416 0s0.391 1.024 0 1.414l-16.22 16.203c-0.586 0.586-0.586 1.536 0 2.121s1.538 0.586 2.124 0l4.131-4.127c3.269 0.982 10.742 1.136 15.427-3.434h-6.137l9.223-3.071c3.124-3.121 2.274-2.261 2.894-2.929h-6.111l8.221-2.738c2.84-4.654 2.144-9.303-1.016-12.46z"></path>
</svg>
