<!-- Generated by IcoMoon.io -->
<svg version="1.1" xmlns="http://www.w3.org/2000/svg" width="32" height="32" viewBox="0 0 32 32">
<title>feather-alt</title>
<path d="M4.466 17.976c-0.304 2.626-0.454 5.267-0.461 7.91l-0.002 0.698-3.71 3.71c-0.181 0.18-0.293 0.43-0.293 0.705 0 0.001 0 0.001 0 0.002v-0c0 0.571 0.467 1 1 1 0.256 0 0.512-0.098 0.707-0.293l3.71-3.71 0.697-0.002c2.643-0.008 5.284-0.158 7.91-0.461 15.588-1.588 17.753-24.301 17.976-27.534-3.233 0.223-25.946 2.388-27.534 17.976zM6.456 18.178c1.216-11.937 16.981-15.137 23.309-15.943-0.354 2.779-1.172 7.377-2.989 11.764h-7.361l2.293-2.293c0.391-0.391 0.391-1.024 0-1.414s-1.024-0.391-1.414 0l-14.247 14.247c0.047-2.136 0.168-4.266 0.409-6.362zM13.414 20l4-4h8.444c-0.711 1.421-1.554 2.769-2.524 4h-9.921zM13.795 25.547c-2.072 0.239-4.2 0.36-6.335 0.407l3.954-3.954h10.090c-2.047 1.891-4.57 3.227-7.709 3.547z"></path>
</svg>
