<!-- Generated by IcoMoon.io -->
<svg version="1.1" xmlns="http://www.w3.org/2000/svg" width="32" height="32" viewBox="0 0 32 32">
<title>feather</title>
<path d="M29.194 2.806c-1.804-1.804-4.094-2.806-6.594-2.806-2.919 0-6.122 1.366-9.172 4.416l-5.359 5.359c-4.957 4.957-4.489 13.169-3.346 16.087l-4.43 4.429c-0.181 0.181-0.293 0.43-0.293 0.706 0 0 0 0.001 0 0.001v-0c0 0.534 0.429 1.001 1.001 1.001 0.256 0 0.512-0.098 0.708-0.293l4.433-4.433c1.075 0.422 2.862 0.755 4.952 0.755 3.574 0 8.002-0.968 11.132-4.098l5.359-5.359c5.662-5.663 5.519-11.857 1.61-15.767zM9.485 11.19l5.359-5.359c2.505-2.505 5.188-3.829 7.757-3.829 1.936 0 3.726 0.768 5.178 2.219 2.645 2.645 2.859 6.256 0.821 9.793h-9.198l2.328-2.328c0.391-0.391 0.391-1.024 0-1.416s-1.024-0.391-1.416 0l-13.989 13.989c-0.619-2.708-0.831-9.079 3.161-13.070zM11.094 26.026c-1.456 0-2.561-0.174-3.343-0.362l3.672-3.672 9.887 0.023-0.499 0.499c-3.055 3.055-7.399 3.511-9.716 3.511zM23.305 20.021h-9.91l4.004-4.004h9.771c-0.319 0.383-3.866 4.004-3.866 4.004z"></path>
</svg>
