<!-- Generated by IcoMoon.io -->
<svg version="1.1" xmlns="http://www.w3.org/2000/svg" width="16" height="32" viewBox="0 0 16 32">
<title>female-solid</title>
<path d="M8 0c2.209 0 4 1.791 4 4s-1.791 4-4 4c-2.209 0-4-1.791-4-4s1.791-4 4-4zM15.455 22.136l-3-12c-0.168-0.658-0.756-1.136-1.455-1.136h-0.71c-1.419 0.653-3.099 0.681-4.58 0h-0.71c-0.699 0-1.287 0.478-1.453 1.126l-0.002 0.010-3 12c-0.236 0.945 0.479 1.864 1.455 1.864h3.5v6.5c0 0.828 0.672 1.5 1.5 1.5h2c0.828 0 1.5-0.672 1.5-1.5v-6.5h3.5c0.974 0 1.692-0.917 1.455-1.864z"></path>
</svg>
