<!-- Generated by IcoMoon.io -->
<svg version="1.1" xmlns="http://www.w3.org/2000/svg" width="16" height="32" viewBox="0 0 16 32">
<title>female</title>
<path d="M15.915 21.306l-2.494-10.267c-0.163-0.676-0.535-1.247-1.044-1.657l-0.006-0.005c-0.083-0.067-0.176-0.133-0.272-0.193l-0.012-0.007c0.878-0.975 1.413-2.264 1.413-3.676 0-3.033-2.467-5.5-5.5-5.5s-5.5 2.467-5.5 5.5c0 1.412 0.535 2.702 1.413 3.676-0.109 0.068-0.202 0.134-0.29 0.205l0.006-0.005c-0.514 0.414-0.887 0.986-1.045 1.641l-0.004 0.021-2.494 10.267c-0.451 1.854 0.96 3.694 2.918 3.694h0.81v3.688c0 1.826 1.486 3.313 3.313 3.313h1.75c1.826 0 3.313-1.486 3.313-3.313v-3.688h0.809c1.958 0 3.37-1.84 2.918-3.694zM8 2c1.933 0 3.5 1.567 3.5 3.5s-1.567 3.5-3.5 3.5-3.5-1.567-3.5-3.5 1.567-3.5 3.5-3.5zM13 23h-2.813v5.688c0 0.725-0.588 1.313-1.313 1.313h-1.75c-0.725 0-1.313-0.588-1.313-1.313v-5.688h-2.813c-0.641 0-1.117-0.596-0.975-1.222l2.5-10.278c0.105-0.449 0.501-0.778 0.975-0.778h0.772c0.516 0.177 1.11 0.278 1.728 0.278s1.212-0.102 1.767-0.29l-0.039 0.011h0.772c0.474 0 0.87 0.329 0.974 0.772l0.001 0.007 2.5 10.278c0.142 0.625-0.334 1.222-0.975 1.222z"></path>
</svg>
