<!-- Generated by IcoMoon.io -->
<svg version="1.1" xmlns="http://www.w3.org/2000/svg" width="40" height="32" viewBox="0 0 40 32">
<title>field-hockey-solid</title>
<path d="M35.044 0h4.206c0.413 0 0.75 0.338 0.75 0.75v7.806c0 0.2-0.081 0.387-0.219 0.531l-2.781 2.787-7.063-7.069 4.581-4.581c0.138-0.144 0.325-0.225 0.525-0.225zM31.706 17.169l3.175-3.175-7.063-7.069-14.419 14.437c-1.875 1.869-4.688-0.962-2.825-2.831 1.95-1.95 1.95-5.119 0-7.069s-5.112-1.95-7.063 0c-2.269 2.269-3.513 5.281-3.513 8.487 0 6.625 5.35 12 11.988 12 5.381 0 8.281-3.325 9.212-4.25-1.206-6.281 4.281-11.725 10.506-10.531zM30.012 20c-3.313 0-5.994 2.688-5.994 6s2.681 6 5.994 6 5.994-2.688 5.994-6-2.681-6-5.994-6z"></path>
</svg>
