<!-- Generated by IcoMoon.io -->
<svg version="1.1" xmlns="http://www.w3.org/2000/svg" width="40" height="32" viewBox="0 0 40 32">
<title>field-hockey</title>
<path d="M38.719 7.325l-3.481 3.487-4.238-4.237 5.287-5.294c0.475-0.475 0.138-1.281-0.531-1.281h-0.706c-0.2 0-0.388 0.081-0.531 0.219l-21.119 21.144c-1.838 1.844-4.719-0.925-2.825-2.825 1.95-1.95 1.95-5.119 0-7.069s-5.106-1.956-7.063 0c-2.269 2.263-3.513 5.275-3.513 8.481 0 6.656 5.381 11.994 11.988 11.994 5.588 0 8.375-3.406 10.256-5.294 0.769 3.15 3.65 5.481 7.063 5.344 3.619-0.144 6.55-3.081 6.7-6.706 0.138-3.413-2.188-6.3-5.337-7.069l9.119-9.125c0.138-0.144 0.219-0.331 0.219-0.531v-0.706c-0.006-0.669-0.813-1.006-1.288-0.531zM11.988 29.944c-5.55 0-9.988-4.488-9.988-9.994 0-2.675 1.038-5.181 2.925-7.075 1.169-1.175 3.063-1.175 4.237 0 1.169 1.169 1.169 3.075 0 4.244-1.556 1.556-1.556 4.094 0.006 5.663 1.563 1.556 4.094 1.556 5.644-0.006l14.775-14.794 4.237 4.244-5.869 5.881c-3 0.462-5.356 2.825-5.819 5.825-3.131 3.137-5.281 6.012-10.15 6.012zM34.006 25c0 2.756-2.238 5-4.994 5s-4.994-2.244-4.994-5 2.238-5 4.994-5 4.994 2.244 4.994 5z"></path>
</svg>
