<!-- Generated by IcoMoon.io -->
<svg version="1.1" xmlns="http://www.w3.org/2000/svg" width="40" height="32" viewBox="0 0 40 32">
<title>fighter-jet-solid</title>
<path d="M34 14l-8-1-3-1h-1.5l-7.303-9.25h2.469c0.729 0 1.333-0.164 1.333-0.375s-0.604-0.375-1.333-0.375h-7.167v0.75h1v10.25h-3l-4.167-5h-2.167l-0.667 0.667v4.333h0.5v1h3v0.167l-4 0.5v2.667l4 0.5v0.167h-3v1h-0.5v4.333l0.667 0.667h2.167l4.167-5h3v10.25h-1v0.75h7.167c0.729 0 1.333-0.164 1.333-0.375s-0.604-0.375-1.333-0.375h-2.469l7.303-9.25h1.5l3-1 8-1c6-1.333 6-1.661 6-2s0-0.667-6-2z"></path>
</svg>
