<!-- Generated by IcoMoon.io -->
<svg version="1.1" xmlns="http://www.w3.org/2000/svg" width="40" height="32" viewBox="0 0 40 32">
<title>fighter-jet</title>
<path d="M32.924 12.246l-6.435-0.704-2.604-1.042h-0.928l-5.258-6.524c1.307-0.099 2.301-0.491 2.301-0.976 0-0.563-1.336-1-2.949-1h-8.051v2h1v7.5h-0.102l-4-4.5h-3.619l-1.779 1.757v4.228l-0.5 0.062v5.907l0.5 0.062v4.228l1.779 1.757h3.619l4-4.5h0.102v7.5h-1v2h8.051c1.613 0 2.949-0.438 2.949-1 0-0.485-0.994-0.877-2.301-0.976l5.258-6.524h0.928l2.604-1.042 6.435-0.704c4.512-0.99 7.076-1.432 7.076-3.754 0-2.341-2.616-2.775-7.076-3.754zM32.6 17.778l-6.6 0.722-2.5 1h-1.5l-6.85 8.5h-3.15v-9.5h-3l-4 4.5h-1.9l-0.6-0.593v-3.407h0.5v-1h2.6v-0.37l-3.6-0.444v-2.37l3.6-0.444v-0.37h-2.6v-1h-0.5v-3.407l0.6-0.593h1.9l4 4.5h3v-9.5h3.15l6.85 8.5h1.5l2.5 1 6.6 0.722c5.4 1.185 5.4 1.477 5.4 1.778s0 0.593-5.4 1.778z"></path>
</svg>
