<!-- Generated by IcoMoon.io -->
<svg version="1.1" xmlns="http://www.w3.org/2000/svg" width="24" height="32" viewBox="0 0 24 32">
<title>file-audio-solid</title>
<path d="M14 8.5v-8.5h-12.5c-0.831 0-1.5 0.669-1.5 1.5v29c0 0.831 0.669 1.5 1.5 1.5h21c0.831 0 1.5-0.669 1.5-1.5v-20.5h-8.5c-0.825 0-1.5-0.675-1.5-1.5zM10 25.25c0 0.669-0.806 1-1.281 0.531l-2.219-2.281h-1.75c-0.412 0-0.75-0.337-0.75-0.75v-3.5c0-0.413 0.338-0.75 0.75-0.75h1.75l2.219-2.281c0.475-0.475 1.281-0.137 1.281 0.531v8.5zM12.075 22.275c0.569-0.581 0.569-1.506 0-2.087-1.381-1.425 0.762-3.512 2.15-2.094 1.7 1.744 1.7 4.525 0 6.275-1.363 1.394-3.556-0.65-2.15-2.094zM17.45 14.956c3.4 3.494 3.4 9.050 0 12.55-1.363 1.4-3.563-0.644-2.15-2.094 2.263-2.325 2.269-6.031 0-8.363-1.381-1.425 0.769-3.519 2.15-2.094zM24 7.619v0.381h-8v-8h0.381c0.4 0 0.781 0.156 1.063 0.438l6.119 6.125c0.281 0.281 0.438 0.662 0.438 1.056z"></path>
</svg>
