<!-- Generated by IcoMoon.io -->
<svg version="1.1" xmlns="http://www.w3.org/2000/svg" width="24" height="32" viewBox="0 0 24 32">
<title>file-video</title>
<path d="M14 17.537c0-0.849-0.688-1.537-1.537-1.537h-6.926c-0.849 0-1.537 0.688-1.537 1.537v6.926c0 0.849 0.688 1.537 1.537 1.537h6.926c0.849 0 1.537-0.688 1.537-1.537v-0.65l1.748 1.748c0.271 0.271 0.646 0.439 1.061 0.439 0 0 0 0 0 0h1.691c0.828 0 1.5-0.672 1.5-1.5v-7c0-0.828-0.672-1.5-1.5-1.5h-1.691c-0.414 0-0.789 0.168-1.061 0.439l-1.748 1.748v-0.65zM12 24h-6v-6h6v6zM17.016 18h0.984v6h-0.984l-3.016-2.573v-0.853l3.016-2.573zM23.121 6.121l-5.243-5.243c-0.543-0.543-1.293-0.879-2.121-0.879 0 0-0 0-0 0h-12.757c-1.657 0-3 1.343-3 3v26c0 1.657 1.343 3 3 3h18c1.657 0 3-1.343 3-3v-20.757c0-0.828-0.336-1.578-0.879-2.121v0zM16 2.031c0.183 0.046 0.34 0.138 0.465 0.262l5.243 5.243c0.125 0.124 0.216 0.282 0.261 0.458l0.001 0.007h-5.969v-5.969zM22 29c0 0.552-0.448 1-1 1h-18c-0.552 0-1-0.448-1-1v-26c0-0.552 0.448-1 1-1h11v6.5c0 0.828 0.672 1.5 1.5 1.5h6.5v19z"></path>
</svg>
