<!-- Generated by IcoMoon.io -->
<svg version="1.1" xmlns="http://www.w3.org/2000/svg" width="24" height="32" viewBox="0 0 24 32">
<title>file-medical</title>
<path d="M14 14.5c0-0.275-0.225-0.5-0.5-0.5h-3c-0.275 0-0.5 0.225-0.5 0.5v3.5h-3.5c-0.275 0-0.5 0.225-0.5 0.5v3c0 0.275 0.225 0.5 0.5 0.5h3.5v3.5c0 0.275 0.225 0.5 0.5 0.5h3c0.275 0 0.5-0.225 0.5-0.5v-3.5h3.5c0.275 0 0.5-0.225 0.5-0.5v-3c0-0.275-0.225-0.5-0.5-0.5h-3.5v-3.5zM23.119 6.125l-5.244-5.244c-0.563-0.563-1.325-0.881-2.119-0.881h-12.756c-1.656 0.006-3 1.35-3 3.006v25.994c0 1.656 1.344 3 3 3h18c1.656 0 3-1.344 3-3v-20.75c0-0.794-0.319-1.563-0.881-2.125zM16 2.038c0.175 0.044 0.331 0.131 0.462 0.263l5.244 5.244c0.131 0.131 0.219 0.287 0.262 0.463h-5.969v-5.969zM22 29c0 0.55-0.45 1-1 1h-18c-0.55 0-1-0.45-1-1v-25.994c0-0.55 0.45-1.006 1-1.006h11v6.506c0 0.831 0.669 1.494 1.5 1.494h6.5v19z"></path>
</svg>
