<!-- Generated by IcoMoon.io -->
<svg version="1.1" xmlns="http://www.w3.org/2000/svg" width="24" height="32" viewBox="0 0 24 32">
<title>file-chart-line-solid</title>
<path d="M23.563 6.563l-6.119-6.125c-0.281-0.281-0.663-0.438-1.063-0.438h-0.381v8h8v-0.381c0-0.394-0.156-0.775-0.438-1.056zM14 8.5v-8.5h-12.5c-0.831 0-1.5 0.669-1.5 1.5v29c0 0.831 0.669 1.5 1.5 1.5h21c0.831 0 1.5-0.669 1.5-1.5v-20.5h-8.5c-0.825 0-1.5-0.675-1.5-1.5zM8 27.2c0 0.4-0.4 0.8-0.8 0.8h-2.4c-0.4 0-0.8-0.4-0.8-0.8v-4.4c0-0.4 0.4-0.8 0.8-0.8h2.4c0.4 0 0.8 0.4 0.8 0.8v4.4zM14 27.2c0 0.4-0.4 0.8-0.8 0.8h-2.4c-0.4 0-0.8-0.4-0.8-0.8v-12.4c0-0.4 0.4-0.8 0.8-0.8h2.4c0.4 0 0.8 0.4 0.8 0.8v12.4zM16 18.8c0-0.4 0.4-0.8 0.8-0.8h2.4c0.4 0 0.8 0.4 0.8 0.8v8.4c0 0.4-0.4 0.8-0.8 0.8h-2.4c-0.4 0-0.8-0.4-0.8-0.8v-8.4z"></path>
</svg>
