<!-- Generated by IcoMoon.io -->
<svg version="1.1" xmlns="http://www.w3.org/2000/svg" width="24" height="32" viewBox="0 0 24 32">
<title>file-invoice-dollar</title>
<path d="M13.693 20.464l-2.813-0.844c-0.322-0.097-0.548-0.424-0.548-0.796 0-0.454 0.331-0.824 0.738-0.824h1.757c0.285 0 0.56 0.081 0.801 0.233 0.203 0.127 0.46 0.119 0.633-0.046l0.734-0.701c0.221-0.211 0.208-0.576-0.036-0.759-0.569-0.427-1.255-0.673-1.961-0.709v-1.518c0-0.276-0.224-0.5-0.5-0.5h-1c-0.276 0-0.5 0.224-0.5 0.5v1.507c-1.476 0.039-2.667 1.284-2.667 2.817 0 1.248 0.811 2.363 1.974 2.712l2.813 0.844c0.322 0.097 0.548 0.424 0.548 0.796 0 0.454-0.331 0.824-0.738 0.824h-1.757c-0.285 0-0.56-0.081-0.801-0.233-0.203-0.127-0.46-0.119-0.633 0.046l-0.734 0.701c-0.221 0.211-0.208 0.576 0.036 0.759 0.569 0.427 1.255 0.673 1.961 0.709v1.518c0 0.276 0.224 0.5 0.5 0.5h1c0.276 0 0.5-0.224 0.5-0.5v-1.508c1.476-0.039 2.667-1.284 2.667-2.817 0-1.248-0.811-2.363-1.974-2.712zM4.5 6h7c0.276 0 0.5-0.224 0.5-0.5v-1c0-0.276-0.224-0.5-0.5-0.5h-7c-0.276 0-0.5 0.224-0.5 0.5v1c0 0.276 0.224 0.5 0.5 0.5zM12 9.5v-1c0-0.276-0.224-0.5-0.5-0.5h-7c-0.276 0-0.5 0.224-0.5 0.5v1c0 0.276 0.224 0.5 0.5 0.5h7c0.276 0 0.5-0.224 0.5-0.5zM23.119 6.124l-5.242-5.242c-0.563-0.563-1.325-0.881-2.118-0.881h-12.759c-1.656 0.006-2.999 1.35-2.999 3.006v25.995c0 1.656 1.344 2.999 2.999 2.999h18.001c1.656 0 2.999-1.344 2.999-2.999v-20.753c0-0.793-0.319-1.562-0.881-2.124zM16.002 2.037c0.175 0.044 0.331 0.131 0.462 0.263l5.242 5.242c0.131 0.131 0.219 0.287 0.262 0.462h-5.968v-5.968zM22.001 29.001c0 0.55-0.45 1-1 1h-18.001c-0.55 0-1-0.45-1-1v-25.995c0-0.55 0.45-1.006 1-1.006h11.002v6.504c0 0.831 0.669 1.496 1.5 1.496h6.499v19.001z"></path>
</svg>
