<!-- Generated by IcoMoon.io -->
<svg version="1.1" xmlns="http://www.w3.org/2000/svg" width="32" height="32" viewBox="0 0 32 32">
<title>file-certificate</title>
<path d="M31.119 6.124l-5.242-5.242c-0.563-0.563-1.324-0.881-2.118-0.881h-12.758c-1.656 0.006-2.999 1.35-2.999 3.006v7.351c-0.373 0-0.746-0.105-1.508-0.314-0.106-0.029-0.21-0.041-0.31-0.041-0.348 0-0.652 0.156-0.854 0.362-1.122 1.141-1.067 1.111-2.606 1.531-0.419 0.113-0.748 0.451-0.861 0.879-0.404 1.542-0.381 1.51-1.501 2.645-0.309 0.315-0.431 0.78-0.318 1.214 0.41 1.524 0.407 1.524 0 3.047-0.114 0.434 0.007 0.9 0.318 1.216 1.125 1.134 1.099 1.112 1.501 2.643 0.113 0.43 0.442 0.767 0.861 0.881 0.112 0.030 0.183 0.050 0.279 0.076v6.504c0 0.347 0.179 0.668 0.474 0.851 0.291 0.182 0.662 0.197 0.973 0.044l3.552-1.776 3.553 1.776c0.141 0.070 0.295 0.106 0.447 0.106h17c1.656 0 2.999-1.344 2.999-2.999v-20.753c0-0.793-0.319-1.562-0.881-2.124zM24.002 2.037c0.175 0.044 0.331 0.131 0.462 0.263l5.242 5.242c0.131 0.131 0.219 0.287 0.262 0.462h-5.968v-5.968zM2.080 19.793c0.356-1.394 0.356-1.889 0.001-3.274 0.978-1.012 1.222-1.436 1.602-2.816 1.348-0.383 1.754-0.62 2.743-1.606 0.612 0.164 1.051 0.259 1.576 0.259 0.518 0 0.953-0.093 1.574-0.26 0.973 0.969 1.406 1.224 2.741 1.605 0.374 1.372 0.607 1.789 1.603 2.817-0.361 1.403-0.36 1.875 0 3.275-0.976 1.011-1.222 1.435-1.601 2.81-0.914 0.245-1.5 0.46-2.328 1.21-0.621-0.283-1.299-0.431-1.991-0.431s-1.369 0.148-1.991 0.431c-0.824-0.742-1.41-0.959-2.327-1.208-0.373-1.368-0.607-1.786-1.603-2.813zM8.448 28.106c-0.281-0.141-0.613-0.141-0.894 0l-2.553 1.276v-3.763c0.008 0.008 0.012 0.011 0.019 0.018 0.234 0.239 0.543 0.362 0.853 0.362 0.219 0 0.439-0.061 0.635-0.186 0.453-0.287 0.973-0.43 1.492-0.43s1.039 0.143 1.492 0.429c0.197 0.126 0.418 0.188 0.636 0.188 0.31 0 0.617-0.124 0.852-0.362 0.008-0.008 0.013-0.011 0.021-0.020v3.764l-2.553-1.276zM30.001 29.001c0 0.55-0.45 1-1 1h-16v-5.507c0.096-0.025 0.166-0.044 0.277-0.074 0.419-0.114 0.748-0.451 0.861-0.88 0.404-1.543 0.381-1.51 1.502-2.645 0.309-0.315 0.431-0.781 0.317-1.215-0.408-1.521-0.409-1.521 0-3.047 0.114-0.434-0.008-0.9-0.317-1.216-1.125-1.134-1.099-1.112-1.502-2.643-0.113-0.429-0.442-0.767-0.859-0.881-1.514-0.411-1.493-0.389-2.607-1.533-0.184-0.186-0.424-0.283-0.671-0.322v-7.032c0-0.55 0.45-1.006 1-1.006h11.002v6.504c0 0.831 0.669 1.496 1.5 1.496h6.499v19.001z"></path>
</svg>
