<!-- Generated by IcoMoon.io -->
<svg version="1.1" xmlns="http://www.w3.org/2000/svg" width="24" height="32" viewBox="0 0 24 32">
<title>file-csv</title>
<path d="M23.119 6.124l-5.242-5.242c-0.563-0.563-1.325-0.881-2.118-0.881h-12.759c-1.656 0.006-2.999 1.35-2.999 3.006v25.995c0 1.656 1.344 2.999 2.999 2.999h18.001c1.656 0 2.999-1.344 2.999-2.999v-20.753c0-0.793-0.319-1.562-0.881-2.124zM16.002 2.037c0.175 0.044 0.331 0.131 0.462 0.263l5.242 5.242c0.131 0.131 0.219 0.287 0.262 0.462h-5.968v-5.968zM22.001 29.001c0 0.55-0.45 1-1 1h-18.001c-0.55 0-1-0.45-1-1v-25.995c0-0.55 0.45-1.006 1-1.006h11.002v6.504c0 0.831 0.669 1.496 1.5 1.496h6.499v19.001zM7.5 16h-0.5c-1.657 0-3 1.343-3 3v2c0 1.657 1.343 3 3 3h0.5c0.276 0 0.5-0.224 0.5-0.5v-1c0-0.276-0.224-0.5-0.5-0.5h-0.5c-0.553 0-1-0.448-1-1v-2c0-0.552 0.447-1 1-1h0.5c0.276 0 0.5-0.224 0.5-0.5v-1c0-0.276-0.224-0.5-0.5-0.5zM14.5 16c-0.276 0-0.5 0.224-0.5 0.5v1.3c0 2.218 0.805 4.306 2.267 5.881 0.189 0.203 0.454 0.319 0.733 0.319s0.544-0.116 0.733-0.319c1.463-1.575 2.267-3.663 2.267-5.881v-1.3c0-0.276-0.224-0.5-0.5-0.5h-1c-0.276 0-0.5 0.224-0.5 0.5v1.3c0 1.267-0.356 2.511-1 3.555-0.644-1.044-1-2.288-1-3.555v-1.3c0-0.276-0.224-0.5-0.5-0.5h-1zM11.216 18.654c-0.086-0.074-0.133-0.159-0.133-0.24 0-0.195 0.278-0.414 0.651-0.414h0.766c0.276 0 0.5-0.224 0.5-0.5v-1c0-0.276-0.224-0.5-0.5-0.5h-0.767c-1.462 0-2.651 1.083-2.651 2.414 0 0.666 0.304 1.308 0.833 1.759l1.368 1.173c0.086 0.074 0.133 0.159 0.133 0.24 0 0.195-0.278 0.414-0.651 0.414h-0.766c-0.276 0-0.5 0.224-0.5 0.5v1c0 0.276 0.224 0.5 0.5 0.5h0.767c1.462 0 2.651-1.083 2.651-2.414 0-0.666-0.304-1.308-0.833-1.759l-1.369-1.173z"></path>
</svg>
