<!-- Generated by IcoMoon.io -->
<svg version="1.1" xmlns="http://www.w3.org/2000/svg" width="24" height="32" viewBox="0 0 24 32">
<title>file-word</title>
<path d="M23.119 6.119l-5.244-5.244c-0.563-0.563-1.325-0.881-2.119-0.881h-12.756c-1.656 0.006-3 1.35-3 3.006v26c0 1.656 1.344 3 3 3h18c1.656 0 3-1.344 3-3v-20.756c0-0.794-0.319-1.563-0.881-2.125zM21.706 7.537c0.131 0.131 0.219 0.287 0.262 0.463h-5.969v-5.969c0.175 0.044 0.331 0.131 0.462 0.263l5.244 5.244zM21 30h-18c-0.55 0-1-0.45-1-1v-26c0-0.55 0.45-1 1-1h11v6.5c0 0.831 0.669 1.5 1.5 1.5h6.5v19c0 0.55-0.45 1-1 1zM17.65 14.594c-0.425 2.050-2.031 8.731-2.088 9.394-0.363-1.819-0.044 0.1-2.612-9.431-0.088-0.325-0.387-0.556-0.725-0.556h-0.4c-0.338 0-0.637 0.225-0.725 0.556-2.394 8.894-2.338 8.787-2.463 9.669-0.256-1.494 0.131-0.181-2.15-9.65-0.081-0.338-0.381-0.575-0.731-0.575h-0.45c-0.487 0-0.844 0.456-0.725 0.931 0.594 2.375 2.156 8.588 2.638 10.5 0.081 0.331 0.381 0.569 0.725 0.569h1.062c0.338 0 0.637-0.231 0.725-0.556 2.138-7.981 2.094-7.713 2.294-8.931 0.406 1.944 0.012 0.438 2.294 8.931 0.088 0.325 0.387 0.556 0.725 0.556h0.875c0.344 0 0.856-0.231 0.944-0.563l2.675-10.5c0.119-0.475-0.238-0.938-0.725-0.938h-0.425c-0.356 0-0.663 0.25-0.738 0.594z"></path>
</svg>
