<!-- Generated by IcoMoon.io -->
<svg version="1.1" xmlns="http://www.w3.org/2000/svg" width="36" height="32" viewBox="0 0 36 32">
<title>file-export-solid</title>
<path d="M24 7.619c0-0.394-0.156-0.775-0.438-1.056l-6.119-6.125c-0.281-0.281-0.663-0.438-1.063-0.438h-0.381v8h8zM35.688 19.25l-5.981-6.025c-0.631-0.631-1.712-0.188-1.712 0.706v4.069h-4v4h4v4.075c0 0.894 1.081 1.337 1.712 0.706l5.981-6.031c0.413-0.413 0.413-1.087 0-1.5zM12 21v-2c0-0.55 0.45-1 1-1h11v-8h-8.5c-0.825 0-1.5-0.675-1.5-1.5v-8.5h-12.5c-0.831 0-1.5 0.669-1.5 1.5v29c0 0.831 0.669 1.5 1.5 1.5h21c0.831 0 1.5-0.669 1.5-1.5v-8.5h-11c-0.55 0-1-0.45-1-1z"></path>
</svg>
