<!-- Generated by IcoMoon.io -->
<svg version="1.1" xmlns="http://www.w3.org/2000/svg" width="24" height="32" viewBox="0 0 24 32">
<title>file-video-solid</title>
<path d="M24 7.621v0.379h-8v-8h0.379c0.398 0 0.779 0.158 1.061 0.439l6.121 6.121c0.271 0.271 0.439 0.646 0.439 1.061v0zM14 8.5v-8.5h-12.5c-0.828 0-1.5 0.672-1.5 1.5v29c0 0.828 0.672 1.5 1.5 1.5h21c0.828 0 1.5-0.672 1.5-1.5v-20.5h-8.5c-0.825 0-1.5-0.675-1.5-1.5zM20 17.501v6.998c0 1.34-1.621 2-2.561 1.061l-3.439-3.438v2.379c0 0.828-0.672 1.5-1.5 1.5h-7c-0.828 0-1.5-0.672-1.5-1.5v-7c0-0.828 0.672-1.5 1.5-1.5h7c0.828 0 1.5 0.672 1.5 1.5v2.379l3.439-3.438c0.938-0.938 2.561-0.281 2.561 1.061z"></path>
</svg>
