<!-- Generated by IcoMoon.io -->
<svg version="1.1" xmlns="http://www.w3.org/2000/svg" width="24" height="32" viewBox="0 0 24 32">
<title>file-spreadsheet-solid</title>
<path d="M18.5 23h-3v3h3v-3zM13.5 18h-3v3h3v-3zM18.5 18h-3v3h3v-3zM13.5 23h-3v3h3v-3zM14 8.5v-8.5h-12.5c-0.831 0-1.5 0.669-1.5 1.5v29c0 0.831 0.669 1.5 1.5 1.5h21c0.831 0 1.5-0.669 1.5-1.5v-20.5h-8.5c-0.825 0-1.5-0.675-1.5-1.5zM20.5 15v12c0 0.552-0.448 1-1 1h-15c-0.553 0-1-0.448-1-1v-12c0-0.553 0.447-1 1-1h15c0.552 0 1 0.447 1 1zM23.563 6.563l-6.119-6.125c-0.281-0.281-0.663-0.438-1.063-0.438h-0.381v8h8v-0.381c0-0.394-0.156-0.775-0.438-1.056zM8.5 18h-3v3h3v-3zM8.5 23h-3v3h3v-3z"></path>
</svg>
