<!-- Generated by IcoMoon.io -->
<svg version="1.1" xmlns="http://www.w3.org/2000/svg" width="24" height="32" viewBox="0 0 24 32">
<title>file-pdf</title>
<path d="M23.119 6.119l-5.244-5.244c-0.563-0.563-1.325-0.881-2.119-0.881h-12.756c-1.656 0.006-3 1.35-3 3.006v26c0 1.656 1.344 3 3 3h18c1.656 0 3-1.344 3-3v-20.756c0-0.794-0.319-1.563-0.881-2.125zM21.706 7.537c0.131 0.131 0.219 0.287 0.262 0.463h-5.969v-5.969c0.175 0.044 0.331 0.131 0.462 0.263l5.244 5.244zM21 30h-18c-0.55 0-1-0.45-1-1v-26c0-0.55 0.45-1 1-1h11v6.5c0 0.831 0.669 1.5 1.5 1.5h6.5v19c0 0.55-0.45 1-1 1zM19.625 19.3c-0.844-0.831-3.438-0.575-4.606-0.419-1.325-0.8-2.2-1.9-2.819-3.537 0.269-1.125 0.75-2.95 0.4-4.056-0.275-1.756-2.481-1.544-2.787-0.425-0.313 1.144-0.019 2.775 0.525 4.863-0.744 1.775-1.856 4.181-2.631 5.538-1.3 0.669-3.381 1.831-3.675 3.275-0.219 1.050 1.431 2.462 3.319 0.4 0.569-0.619 1.206-1.55 1.956-2.844 1.669-0.55 3.506-1.238 5.125-1.5 1.369 0.75 2.975 1.244 4.037 1.244 1.731 0.006 1.806-1.887 1.156-2.538zM5.3 24.863c0.369-0.994 1.788-2.15 2.219-2.55-1.381 2.206-2.219 2.594-2.219 2.55zM11.25 10.969c0.544 0 0.488 2.344 0.131 2.975-0.325-1.019-0.313-2.975-0.131-2.975zM9.475 20.925c0.706-1.238 1.313-2.7 1.8-3.981 0.606 1.106 1.381 1.981 2.194 2.594-1.519 0.294-2.838 0.944-3.994 1.387zM19.063 20.556s-0.363 0.438-2.719-0.569c2.563-0.188 2.981 0.4 2.719 0.569z"></path>
</svg>
