<!-- Generated by IcoMoon.io -->
<svg version="1.1" xmlns="http://www.w3.org/2000/svg" width="24" height="32" viewBox="0 0 24 32">
<title>file-music</title>
<path d="M23.119 6.125l-5.244-5.244c-0.542-0.543-1.291-0.88-2.119-0.881h-12.756c-1.656 0.005-2.998 1.348-3 3.005v25.995c0 1.657 1.343 3 3 3v0h18c1.657 0 3-1.343 3-3v0-20.75c-0.001-0.83-0.337-1.581-0.881-2.125l0 0zM16 2.037c0.183 0.046 0.34 0.137 0.463 0.262l5.244 5.243c0.125 0.123 0.216 0.28 0.26 0.456l0.001 0.007h-5.969zM22 29c0 0.552-0.448 1-1 1v0h-18c-0.552 0-1-0.448-1-1v0-25.995c0-0.552 0.448-1 1-1v0h11v6.5c0 0.001 0 0.003 0 0.004 0 0.826 0.67 1.496 1.496 1.496 0.002 0 0.003 0 0.005 0h6.5zM8 16.95v6.168c-0.299-0.077-0.644-0.122-0.998-0.125h-0.002c-1.656 0-3 0.896-3 2s1.344 2 3 2 3-0.895 3-2v-6.799l6-2.344v5.268c-0.3-0.076-0.644-0.12-0.999-0.122h-0.001c-1.656 0-3 0.895-3 2s1.344 2 3 2 3-0.896 3-2v-8.996c-0.001-0.552-0.448-0.999-1-0.999-0.107 0-0.211 0.017-0.308 0.048l0.007-0.002-8 2.952c-0.408 0.131-0.698 0.507-0.699 0.95v0z"></path>
</svg>
