<!-- Generated by IcoMoon.io -->
<svg version="1.1" xmlns="http://www.w3.org/2000/svg" width="24" height="32" viewBox="0 0 24 32">
<title>file-archive</title>
<path d="M8 6v2h2v-2zM12.119 16.6c-0.069-0.35-0.375-0.6-0.738-0.6h-1.381v-2h-2v2l-1.213 6.075c-0.406 2.031 1.144 3.925 3.213 3.925s3.619-1.894 3.213-3.925zM10.019 24.381c-1.119 0-2.025-0.756-2.025-1.688s0.906-1.688 2.025-1.688 2.025 0.756 2.025 1.688-0.906 1.688-2.025 1.688zM8 10v2h2v-2zM12 4h-2v2h2zM23.119 6.119l-5.244-5.244c-0.563-0.563-1.325-0.881-2.119-0.881h-12.756c-1.656 0.006-3 1.35-3 3.006v26c0 1.656 1.344 3 3 3h18c1.656 0 3-1.344 3-3v-20.756c0-0.794-0.319-1.563-0.881-2.125zM16 2.031c0.175 0.044 0.337 0.131 0.462 0.263l5.244 5.244c0.125 0.125 0.219 0.287 0.262 0.462h-5.969zM22 29c0 0.55-0.45 1-1 1h-18c-0.55 0-1-0.45-1-1v-26c0-0.55 0.45-1 1-1h4.981v2h2v-2h4.019v6.5c0 0.831 0.669 1.5 1.5 1.5h6.5zM12 12h-2v2h2zM12 8h-2v2h2z"></path>
</svg>
