<!-- Generated by IcoMoon.io -->
<svg version="1.1" xmlns="http://www.w3.org/2000/svg" width="36" height="32" viewBox="0 0 36 32">
<title>file-signature-solid</title>
<path d="M13.636 26.509c-0.184-0.37-0.506-0.407-0.636-0.407s-0.451 0.037-0.626 0.387l-0.479 0.959c-0.398 0.799-1.564 0.711-1.842-0.131l-1.052-3.154-0.663 1.992c-0.368 1.104-1.399 1.846-2.563 1.846h-0.774c-0.553 0-1-0.448-1-1s0.447-1 1-1h0.774c0.302 0 0.569-0.192 0.665-0.479l1.137-3.415c0.206-0.613 0.778-1.026 1.424-1.026s1.217 0.412 1.423 1.026l0.867 2.602c1.234-1.012 3.379-0.606 4.125 0.885 0.118 0.236 0.343 0.372 0.585 0.391v-5.133l8-7.943v-2.909h-8.501c-0.825 0-1.5-0.675-1.5-1.5v-8.5h-12.5c-0.831 0-1.5 0.669-1.5 1.5v29c0 0.831 0.669 1.5 1.5 1.5h21c0.831 0 1.5-0.669 1.5-1.5v-2.5l-8-0.007c-1.008-0.019-1.911-0.58-2.364-1.484zM24 7.619c0-0.394-0.156-0.775-0.438-1.056l-6.119-6.125c-0.281-0.281-0.663-0.438-1.063-0.438h-0.381v8h8v-0.381zM18 21.685v4.315h4.312l10.105-10.174-4.242-4.242-10.174 10.101zM35.534 10.458l-1.992-1.992c-0.621-0.621-1.629-0.621-2.251 0l-1.703 1.703 4.242 4.242 1.703-1.703c0.622-0.621 0.622-1.629 0-2.251z"></path>
</svg>
