<!-- Generated by IcoMoon.io -->
<svg version="1.1" xmlns="http://www.w3.org/2000/svg" width="24" height="32" viewBox="0 0 24 32">
<title>file-user</title>
<path d="M23.119 6.124l-5.242-5.242c-0.563-0.563-1.325-0.881-2.118-0.881h-12.759c-1.656 0.006-2.999 1.35-2.999 3.006v25.995c0 1.656 1.344 2.999 2.999 2.999h18.001c1.656 0 2.999-1.344 2.999-2.999v-20.753c0-0.793-0.319-1.562-0.881-2.124zM16.002 2.037c0.175 0.044 0.331 0.131 0.462 0.263l5.242 5.242c0.131 0.131 0.219 0.287 0.262 0.462h-5.968v-5.968zM17 30.001h-10v-1.947c0-1.149 0.816-2.054 2.078-2.054 0.778 0 1.3 0.437 2.922 0.437 1.594 0 2.16-0.437 2.922-0.437 1.26 0 2.078 0.902 2.078 2.054v1.947zM22.001 29.001c0 0.55-0.45 1-1 1h-2.001v-1.947c0-0.867-0.263-1.673-0.713-2.343-0.755-1.121-2.042-1.711-3.365-1.711-1.216 0-1.522 0.437-2.922 0.437-1.401 0-1.704-0.437-2.922-0.437-1.323 0-2.61 0.59-3.364 1.711-0.451 0.669-0.714 1.475-0.714 2.343v1.947h-2.001c-0.55 0-1-0.45-1-1v-25.995c0-0.55 0.45-1.006 1-1.006h11.002v6.504c0 0.831 0.669 1.496 1.5 1.496h6.499v19.001zM7 18c0 2.761 2.239 5 5 5s5-2.239 5-5c0-2.762-2.239-5-5-5s-5 2.238-5 5zM15 18c0 1.654-1.346 3-3 3s-3-1.346-3-3 1.346-3 3-3 3 1.346 3 3z"></path>
</svg>
