<!-- Generated by IcoMoon.io -->
<svg version="1.1" xmlns="http://www.w3.org/2000/svg" width="24" height="32" viewBox="0 0 24 32">
<title>file-prescription-solid</title>
<path d="M14 8.5v-8.5h-12.5c-0.831 0-1.5 0.669-1.5 1.5v29c0 0.831 0.669 1.5 1.5 1.5h21c0.831 0 1.5-0.669 1.5-1.5v-20.5h-8.5c-0.825 0-1.5-0.675-1.5-1.5zM18.283 19.718l0.707 0.707c0.391 0.391 0.391 1.024 0 1.414l-1.869 1.869 1.879 1.879c0.391 0.391 0.391 1.024 0 1.414l-0.707 0.707c-0.391 0.391-1.024 0.391-1.414 0l-1.879-1.879-1.879 1.879c-0.391 0.391-1.024 0.391-1.414 0l-0.707-0.707c-0.391-0.391-0.391-1.024 0-1.414l1.879-1.879-3.707-3.707h-1.171v3c0 0.552-0.447 1-1 1h-1c-0.553 0-1-0.448-1-1v-10c0-0.553 0.447-1 1-1h5c2.209 0 4 1.791 4 4 0 1.514-0.851 2.816-2.091 3.495l2.091 2.091 1.869-1.869c0.391-0.391 1.024-0.391 1.414 0zM11 17h-3v-2h3c0.551 0 1 0.449 1 1s-0.449 1-1 1zM24 7.619v0.381h-8v-8h0.381c0.4 0 0.781 0.156 1.063 0.438l6.119 6.125c0.281 0.281 0.438 0.662 0.438 1.056z"></path>
</svg>
