<!-- Generated by IcoMoon.io -->
<svg version="1.1" xmlns="http://www.w3.org/2000/svg" width="24" height="32" viewBox="0 0 24 32">
<title>file-code-solid</title>
<path d="M24 7.621v0.379h-8v-8h0.379c0.398 0 0.779 0.158 1.061 0.439l6.121 6.121c0.271 0.271 0.439 0.646 0.439 1.061v0zM15.5 10c-0.825 0-1.5-0.675-1.5-1.5v-8.5h-12.5c-0.828 0-1.5 0.672-1.5 1.5v29c0 0.828 0.672 1.5 1.5 1.5h21c0.828 0 1.5-0.672 1.5-1.5v-20.5h-8.5zM7.7 25.032c-0.062 0.066-0.149 0.107-0.246 0.107-0.089 0-0.171-0.035-0.231-0.091l0 0-4.054-3.801c-0.066-0.062-0.107-0.149-0.107-0.246s0.041-0.184 0.107-0.246l0-0 4.054-3.801c0.060-0.057 0.141-0.091 0.231-0.091 0.097 0 0.184 0.041 0.246 0.107l0 0 1.224 1.305c0.057 0.060 0.091 0.141 0.091 0.231 0 0.101-0.044 0.191-0.114 0.253l-0 0-2.548 2.242 2.548 2.242c0.070 0.062 0.115 0.153 0.115 0.253 0 0.089-0.035 0.171-0.091 0.231l0-0-1.224 1.305zM10.906 28.186l-1.716-0.498c-0.142-0.042-0.243-0.171-0.243-0.324 0-0.034 0.005-0.066 0.014-0.096l-0.001 0.002 3.84-13.227c0.042-0.142 0.171-0.243 0.324-0.243 0.034 0 0.066 0.005 0.096 0.014l-0.002-0.001 1.716 0.498c0.142 0.042 0.243 0.171 0.243 0.324 0 0.034-0.005 0.066-0.014 0.097l0.001-0.002-3.84 13.227c-0.042 0.142-0.171 0.243-0.324 0.243-0.034 0-0.066-0.005-0.097-0.014l0.002 0.001zM20.956 21.246l-4.054 3.801c-0.060 0.057-0.141 0.091-0.231 0.091-0.097 0-0.184-0.041-0.246-0.107l-0-0-1.224-1.305c-0.057-0.060-0.091-0.141-0.091-0.231 0-0.101 0.044-0.191 0.114-0.253l0-0 2.548-2.242-2.548-2.242c-0.070-0.062-0.115-0.153-0.115-0.253 0-0.089 0.035-0.171 0.091-0.231l-0 0 1.224-1.305c0.062-0.066 0.149-0.107 0.246-0.107 0.089 0 0.171 0.035 0.231 0.091l-0-0 4.054 3.801c0.066 0.062 0.107 0.149 0.107 0.246s-0.041 0.184-0.107 0.246l-0 0z"></path>
</svg>
