<!-- Generated by IcoMoon.io -->
<svg version="1.1" xmlns="http://www.w3.org/2000/svg" width="24" height="32" viewBox="0 0 24 32">
<title>file-check-solid</title>
<path d="M24 7.621v0.379h-8v-8h0.379c0.398 0 0.779 0.158 1.061 0.439l6.121 6.121c0.271 0.271 0.439 0.646 0.439 1.061v0zM15.5 10h8.5v20.5c0 0.828-0.672 1.5-1.5 1.5h-21c-0.828 0-1.5-0.672-1.5-1.5v-29c0-0.828 0.672-1.5 1.5-1.5h12.5v8.5c0 0.825 0.675 1.5 1.5 1.5zM19.581 16.858l-1.761-1.775c-0.292-0.294-0.767-0.296-1.061-0.004l-6.627 6.574-2.874-2.897c-0.292-0.294-0.767-0.296-1.061-0.004l-1.775 1.761c-0.294 0.292-0.296 0.767-0.004 1.061l5.163 5.204c0.292 0.294 0.767 0.296 1.061 0.004l8.935-8.863c0.294-0.292 0.296-0.767 0.004-1.061z"></path>
</svg>
