<!-- Generated by IcoMoon.io -->
<svg version="1.1" xmlns="http://www.w3.org/2000/svg" width="24" height="32" viewBox="0 0 24 32">
<title>file-minus-solid</title>
<path d="M23.563 6.563l-6.119-6.125c-0.271-0.27-0.646-0.438-1.059-0.438-0.001 0-0.003 0-0.004 0h-0.381v8h8v-0.381c-0-0.412-0.167-0.786-0.438-1.056v0zM14 8.5v-8.5h-12.5c-0.001 0-0.002 0-0.004 0-0.826 0-1.496 0.67-1.496 1.496 0 0.001 0 0.003 0 0.004v-0 29c0 0.001 0 0.002 0 0.004 0 0.826 0.67 1.496 1.496 1.496 0.001 0 0.003 0 0.004 0h21c0.001 0 0.002 0 0.004 0 0.826 0 1.496-0.67 1.496-1.496 0-0.001 0-0.003 0-0.004v0-20.5h-8.5c-0.827-0.002-1.498-0.673-1.5-1.5v-0zM18.5 19.5v1c0 0.552-0.448 1-1 1v0h-11c-0.552 0-1-0.448-1-1v0-1c0-0.552 0.448-1 1-1v0h11c0.552 0 1 0.448 1 1v0z"></path>
</svg>
