<!-- Generated by IcoMoon.io -->
<svg version="1.1" xmlns="http://www.w3.org/2000/svg" width="24" height="32" viewBox="0 0 24 32">
<title>file-image</title>
<path d="M9.938 21l-2.469-2.469c-0.294-0.294-0.769-0.294-1.063 0l-2.438 2.438-0.031 7.031h16v-9l-3.469-3.469c-0.294-0.294-0.769-0.294-1.063 0l-5.469 5.469zM15.938 17.831l2 2v6.169h-11.994l0.019-4.2 0.975-0.975 3 3c1.269-1.269 4.856-4.85 6-5.994zM7.938 16c2.206 0 4-1.794 4-4s-1.794-4-4-4-4 1.794-4 4 1.794 4 4 4zM7.938 10c1.1 0 2 0.9 2 2s-0.9 2-2 2-2-0.9-2-2 0.9-2 2-2zM23.119 6.119l-5.244-5.244c-0.563-0.563-1.325-0.881-2.119-0.881h-12.756c-1.656 0.006-3 1.35-3 3.006v26c0 1.656 1.344 3 3 3h18c1.656 0 3-1.344 3-3v-20.756c0-0.794-0.319-1.563-0.881-2.125zM16 2.031c0.175 0.044 0.331 0.131 0.462 0.263l5.244 5.244c0.131 0.131 0.219 0.287 0.262 0.462h-5.969v-5.969zM22 29c0 0.55-0.45 1-1 1h-18c-0.55 0-1-0.45-1-1v-26c0-0.55 0.45-1 1-1h11v6.5c0 0.831 0.669 1.5 1.5 1.5h6.5v19z"></path>
</svg>
