<!-- Generated by IcoMoon.io -->
<svg version="1.1" xmlns="http://www.w3.org/2000/svg" width="24" height="32" viewBox="0 0 24 32">
<title>file-archive-solid</title>
<path d="M23.563 6.563l-6.119-6.125c-0.281-0.281-0.663-0.438-1.063-0.438h-0.381v8h8v-0.381c0-0.394-0.156-0.775-0.438-1.056zM8.025 21c-1.119 0-2.025 0.756-2.025 1.688 0 0.938 0.912 1.688 2.031 1.688s2.025-0.756 2.025-1.688-0.912-1.688-2.031-1.688zM14 8.5v-8.5h-3.975v2h-2v-2h-6.525c-0.831 0-1.5 0.669-1.5 1.5v29c0 0.831 0.669 1.5 1.5 1.5h21c0.831 0 1.5-0.669 1.5-1.5v-20.5h-8.5c-0.825 0-1.5-0.675-1.5-1.5zM5.994 2h2v2h-2zM8.012 26c-2.075 0-3.625-1.9-3.213-3.931l1.225-6.069v-2h2v-2h-2v-2h2v-2h-2v-2h2v-2h2v2h-2v2h2v2h-2v2h2v2h-2v2h1.381c0.356 0 0.669 0.256 0.738 0.606l1.081 5.481c0.4 2.025-1.15 3.913-3.213 3.913z"></path>
</svg>
