<!-- Generated by IcoMoon.io -->
<svg version="1.1" xmlns="http://www.w3.org/2000/svg" width="24" height="32" viewBox="0 0 24 32">
<title>file-chart-pie-solid</title>
<path d="M14 8.5v-8.5h-12.5c-0.831 0-1.5 0.669-1.5 1.5v29c0 0.831 0.669 1.5 1.5 1.5h21c0.831 0 1.5-0.669 1.5-1.5v-20.5h-8.5c-0.825 0-1.5-0.675-1.5-1.5zM8.532 27.408c-1.796-0.698-3.242-2.144-3.94-3.939-1.878-4.835 1.090-9.419 5.408-10.303v8.834h8.834c-0.884 4.318-5.468 7.286-10.302 5.408zM19.509 19.999c0 0.001 0.001 0.001 0 0.001h-7.509v-7.509c0-0.001 0.001 0 0.001 0 4.146 0.001 7.507 3.361 7.507 7.508zM23.563 6.563l-6.119-6.125c-0.281-0.281-0.663-0.438-1.063-0.438h-0.381v8h8v-0.381c0-0.394-0.156-0.775-0.438-1.056z"></path>
</svg>
