<!-- Generated by IcoMoon.io -->
<svg version="1.1" xmlns="http://www.w3.org/2000/svg" width="28" height="32" viewBox="0 0 28 32">
<title>files-medical-solid</title>
<path d="M6 24.5v-18.5h-4.5c-0.828 0-1.5 0.672-1.5 1.5v0 23c0 0.828 0.672 1.5 1.5 1.5v0h17c0.828 0 1.5-0.672 1.5-1.5v0-2.5h-10.5c-1.932-0.002-3.498-1.568-3.5-3.5v-0zM20 6.5v-6.5h-10.5c-0.828 0-1.5 0.672-1.5 1.5v0 23c0 0.828 0.672 1.5 1.5 1.5v0h17c0.828 0 1.5-0.672 1.5-1.5v0-16.5h-6.5c-0.827-0.002-1.498-0.673-1.5-1.5v-0zM24 14.5v3c0 0.276-0.224 0.5-0.5 0.5v0h-3.5v3.5c0 0.276-0.224 0.5-0.5 0.5v0h-3c-0.276 0-0.5-0.224-0.5-0.5v0-3.5h-3.5c-0.276 0-0.5-0.224-0.5-0.5v0-3c0-0.276 0.224-0.5 0.5-0.5v0h3.5v-3.5c0-0.276 0.224-0.5 0.5-0.5v0h3c0.276 0 0.5 0.224 0.5 0.5v0 3.5h3.5c0.276 0 0.5 0.224 0.5 0.5v0zM27.563 4.563l-4.125-4.125c-0.271-0.27-0.646-0.438-1.059-0.438-0.001 0-0.003 0-0.004 0h-0.375v6h6v-0.379c-0-0.413-0.167-0.787-0.438-1.059l0 0z"></path>
</svg>
