<!-- Generated by IcoMoon.io -->
<svg version="1.1" xmlns="http://www.w3.org/2000/svg" width="24" height="32" viewBox="0 0 24 32">
<title>file-spreadsheet</title>
<path d="M23.119 6.124l-5.242-5.242c-0.563-0.563-1.325-0.881-2.118-0.881h-12.759c-1.656 0.006-2.999 1.35-2.999 3.006v25.995c0 1.656 1.344 2.999 2.999 2.999h18.001c1.656 0 2.999-1.344 2.999-2.999v-20.753c0-0.793-0.319-1.562-0.881-2.124zM16.002 2.037c0.175 0.044 0.331 0.131 0.462 0.263l5.242 5.242c0.131 0.131 0.219 0.287 0.262 0.462h-5.968v-5.968zM22.001 29.001c0 0.55-0.45 1-1 1h-18.001c-0.55 0-1-0.45-1-1v-25.995c0-0.55 0.45-1.006 1-1.006h11.002v6.504c0 0.831 0.669 1.496 1.5 1.496h6.499v19.001zM4 13v14c0 0.552 0.447 1 1 1h14c0.552 0 1-0.448 1-1v-14c0-0.553-0.448-1-1-1h-14c-0.553 0-1 0.447-1 1zM18 26h-5v-3h5v3zM18 21h-5v-3h5v3zM6 14h12v2h-12v-2zM6 18h5v3h-5v-3zM6 23h5v3h-5v-3z"></path>
</svg>
