<!-- Generated by IcoMoon.io -->
<svg version="1.1" xmlns="http://www.w3.org/2000/svg" width="28" height="32" viewBox="0 0 28 32">
<title>files-medical</title>
<path d="M27.121 4.121l-3.242-3.243c-0.543-0.543-1.293-0.879-2.121-0.879h-10.758c-1.657 0-3 1.343-3 3v0 3h-5c-1.657 0-3 1.343-3 3v0 20c0 1.657 1.343 3 3 3v0h14c1.657 0 3-1.343 3-3v0-3h5c1.657 0 3-1.343 3-3v0-16.758c-0-0.828-0.336-1.578-0.879-2.121v0zM22 2.031c0.183 0.046 0.34 0.138 0.464 0.262l3.243 3.243c0.124 0.125 0.216 0.282 0.261 0.457l0.002 0.007h-3.969zM18 29c0 0.552-0.448 1-1 1v0h-14c-0.552 0-1-0.448-1-1v0-20c0-0.552 0.448-1 1-1v0h5v15c0 1.657 1.343 3 3 3v0h7zM26 23c0 0.552-0.448 1-1 1v0h-14c-0.552 0-1-0.448-1-1v0-20c0-0.552 0.448-1 1-1v0h9v4.5c0.002 0.827 0.673 1.498 1.5 1.5h4.5zM19.667 11.417c0-0.23-0.187-0.417-0.417-0.417h-2.5c-0.23 0-0.417 0.187-0.417 0.417v0 2.916h-2.916c-0.23 0-0.417 0.187-0.417 0.417v2.5c0 0.23 0.187 0.417 0.417 0.417v0h2.916v2.916c0 0.23 0.187 0.417 0.417 0.417h2.5c0.23 0 0.417-0.187 0.417-0.417v0-2.916h2.916c0.23 0 0.417-0.187 0.417-0.417v0-2.5c0-0.23-0.187-0.417-0.417-0.417v0h-2.916z"></path>
</svg>
