<!-- Generated by IcoMoon.io -->
<svg version="1.1" xmlns="http://www.w3.org/2000/svg" width="24" height="32" viewBox="0 0 24 32">
<title>file-powerpoint</title>
<path d="M23.119 6.119l-5.244-5.244c-0.563-0.563-1.325-0.881-2.119-0.881h-12.756c-1.656 0.006-3 1.35-3 3.006v26c0 1.656 1.344 3 3 3h18c1.656 0 3-1.344 3-3v-20.756c0-0.794-0.319-1.563-0.881-2.125zM21.706 7.537c0.131 0.131 0.219 0.287 0.262 0.463h-5.969v-5.969c0.175 0.044 0.331 0.131 0.462 0.263l5.244 5.244zM21 30h-18c-0.55 0-1-0.45-1-1v-26c0-0.55 0.45-1 1-1h11v6.5c0 0.831 0.669 1.5 1.5 1.5h6.5v19c0 0.55-0.45 1-1 1zM12.769 13h-4.019c-0.412 0-0.75 0.338-0.75 0.75v11.5c0 0.413 0.338 0.75 0.75 0.75h0.5c0.412 0 0.75-0.337 0.75-0.75v-3.775h2.769c2.419 0 4.231-1.706 4.231-4.313 0-2.412-1.488-4.162-4.231-4.162zM14.394 19.106c-0.469 0.475-1.113 0.712-1.938 0.712h-2.456v-5.256h2.481c0.806 0 1.444 0.231 1.912 0.694 0.956 0.944 0.938 2.906 0 3.85z"></path>
</svg>
