<!-- Generated by IcoMoon.io -->
<svg version="1.1" xmlns="http://www.w3.org/2000/svg" width="24" height="32" viewBox="0 0 24 32">
<title>file-download-solid</title>
<path d="M14 8.5v-8.5h-12.5c-0.831 0-1.5 0.669-1.5 1.5v29c0 0.831 0.669 1.5 1.5 1.5h21c0.831 0 1.5-0.669 1.5-1.5v-20.5h-8.5c-0.825 0-1.5-0.675-1.5-1.5zM18.778 21.71l-6.026 5.981c-0.416 0.413-1.087 0.413-1.502 0l-6.026-5.981c-0.634-0.629-0.189-1.71 0.703-1.71h4.074v-5c0-0.553 0.447-1 1-1h2c0.553 0 1 0.447 1 1v5h4.074c0.892 0 1.337 1.081 0.704 1.71zM23.563 6.563l-6.119-6.125c-0.281-0.281-0.663-0.438-1.063-0.438h-0.381v8h8v-0.381c0-0.394-0.156-0.775-0.438-1.056z"></path>
</svg>
