<!-- Generated by IcoMoon.io -->
<svg version="1.1" xmlns="http://www.w3.org/2000/svg" width="24" height="32" viewBox="0 0 24 32">
<title>file-audio</title>
<path d="M23.119 6.119l-5.244-5.244c-0.563-0.563-1.325-0.881-2.119-0.881h-12.756c-1.656 0.006-3 1.35-3 3.006v26c0 1.656 1.344 3 3 3h18c1.656 0 3-1.344 3-3v-20.756c0-0.794-0.319-1.563-0.881-2.125zM21.706 7.537c0.131 0.131 0.219 0.287 0.262 0.463h-5.969v-5.969c0.175 0.044 0.331 0.131 0.462 0.263l5.244 5.244zM21 30h-18c-0.55 0-1-0.45-1-1v-26c0-0.55 0.45-1 1-1h11v6.5c0 0.831 0.669 1.5 1.5 1.5h6.5v19c0 0.55-0.45 1-1 1zM16.15 25.837c2.406-1.625 3.85-4.331 3.85-7.231 0-1.544-0.406-3.056-1.181-4.381-0.75-1.287-1.819-2.362-3.1-3.125-0.444-0.262-1.019-0.119-1.287 0.325-0.262 0.444-0.119 1.019 0.325 1.287 2.069 1.231 3.356 3.488 3.356 5.894 0 2.281-1.131 4.4-3.019 5.681-0.431 0.288-0.544 0.875-0.25 1.3 0.181 0.269 0.475 0.413 0.775 0.413 0.194 0 0.375-0.050 0.531-0.163zM14.488 23.444c1.625-1.081 2.594-2.887 2.594-4.837 0-2.056-1.106-3.981-2.887-5.019-0.45-0.262-1.019-0.106-1.281 0.338-0.262 0.45-0.106 1.019 0.338 1.281 1.206 0.7 1.956 2 1.956 3.394 0 1.319-0.656 2.544-1.756 3.275-0.431 0.288-0.55 0.869-0.262 1.3 0.181 0.275 0.481 0.419 0.781 0.419 0.175 0.006 0.356-0.044 0.519-0.15zM12.8 21.056c0.856-0.531 1.363-1.444 1.363-2.45 0-1.063-0.581-2.031-1.512-2.538-0.456-0.244-1.025-0.075-1.269 0.381s-0.075 1.025 0.381 1.269c0.325 0.175 0.531 0.519 0.531 0.887 0 0.35-0.181 0.675-0.475 0.856-0.438 0.275-0.575 0.85-0.3 1.294 0.175 0.288 0.481 0.444 0.8 0.444 0.156 0 0.325-0.044 0.481-0.144zM8.625 16.669v4.669l-1.625-1.212h-1.125v-2.25h1.125l1.625-1.206zM9.744 13.5c-0.181 0-0.375 0.069-0.525 0.219l-2.719 2.281h-1.75c-0.412 0-0.75 0.337-0.75 0.75v4.5c0 0.413 0.338 0.75 0.75 0.75h1.75l2.719 2.281c0.15 0.15 0.338 0.219 0.525 0.219 0.387 0 0.756-0.3 0.756-0.75v-9.5c0-0.45-0.369-0.75-0.756-0.75z"></path>
</svg>
