<!-- Generated by IcoMoon.io -->
<svg version="1.1" xmlns="http://www.w3.org/2000/svg" width="24" height="32" viewBox="0 0 24 32">
<title>file-code</title>
<path d="M23.121 6.121l-5.243-5.243c-0.543-0.543-1.293-0.879-2.121-0.879h-12.757c-1.657 0-3 1.343-3 3v26c0 1.657 1.343 3 3 3h18c1.657 0 3-1.343 3-3v-20.757c0-0.828-0.336-1.578-0.879-2.121v0zM21.707 7.536c0.124 0.124 0.216 0.282 0.261 0.458l0.001 0.007h-5.969v-5.969c0.183 0.046 0.34 0.138 0.464 0.262v0l5.243 5.243zM21 30h-18c-0.552 0-1-0.448-1-1v-26c0-0.552 0.448-1 1-1h11v6.5c0 0.828 0.672 1.5 1.5 1.5h6.5v19c0 0.552-0.448 1-1 1zM10.908 25.787l-1.62-0.47c-0.134-0.040-0.23-0.162-0.23-0.306 0-0.032 0.005-0.062 0.013-0.091l-0.001 0.002 3.627-12.492c0.040-0.134 0.162-0.23 0.306-0.23 0.032 0 0.062 0.005 0.091 0.013l-0.002-0.001 1.62 0.47c0.134 0.040 0.23 0.162 0.23 0.306 0 0.032-0.005 0.062-0.013 0.091l0.001-0.002-3.627 12.492c-0.040 0.134-0.162 0.23-0.306 0.23-0.032 0-0.062-0.005-0.091-0.013l0.002 0.001zM7.88 22.808l1.156-1.233c0.053-0.057 0.086-0.134 0.086-0.218 0-0.095-0.042-0.181-0.108-0.239l-0-0-2.406-2.118 2.406-2.118c0.066-0.059 0.108-0.144 0.108-0.239 0-0.084-0.033-0.161-0.086-0.218l0 0-1.156-1.233c-0.058-0.062-0.141-0.101-0.233-0.101-0.084 0-0.161 0.033-0.218 0.086l0-0-3.829 3.59c-0.062 0.058-0.101 0.141-0.101 0.233s0.039 0.174 0.101 0.232l0 0 3.829 3.59c0.057 0.053 0.134 0.086 0.218 0.086 0.092 0 0.174-0.039 0.232-0.101l0-0zM16.57 22.822l3.829-3.59c0.062-0.058 0.101-0.141 0.101-0.233s-0.039-0.174-0.101-0.232l-0-0-3.829-3.59c-0.057-0.053-0.134-0.086-0.218-0.086-0.092 0-0.174 0.039-0.232 0.101l-0 0-1.156 1.233c-0.053 0.057-0.086 0.134-0.086 0.218 0 0.095 0.042 0.181 0.108 0.239l0 0 2.406 2.118-2.406 2.118c-0.066 0.059-0.108 0.144-0.108 0.239 0 0.084 0.033 0.161 0.086 0.218l-0-0 1.156 1.233c0.058 0.062 0.141 0.101 0.233 0.101 0.084 0 0.161-0.033 0.218-0.086l-0 0z"></path>
</svg>
