<!-- Generated by IcoMoon.io -->
<svg version="1.1" xmlns="http://www.w3.org/2000/svg" width="24" height="32" viewBox="0 0 24 32">
<title>file-pdf-solid</title>
<path d="M11.369 16.006c-0.313-1-0.306-2.931-0.125-2.931 0.525 0 0.475 2.306 0.125 2.931zM11.262 18.956c-0.481 1.262-1.081 2.706-1.775 3.919 1.144-0.438 2.438-1.075 3.931-1.369-0.794-0.6-1.556-1.462-2.156-2.55zM5.381 26.756c0 0.050 0.825-0.337 2.181-2.512-0.419 0.394-1.819 1.531-2.181 2.512zM15.5 10h8.5v20.5c0 0.831-0.669 1.5-1.5 1.5h-21c-0.831 0-1.5-0.669-1.5-1.5v-29c0-0.831 0.669-1.5 1.5-1.5h12.5v8.5c0 0.825 0.675 1.5 1.5 1.5zM15 20.738c-1.25-0.762-2.081-1.813-2.669-3.363 0.281-1.156 0.725-2.912 0.387-4.012-0.294-1.838-2.65-1.656-2.988-0.425-0.313 1.144-0.025 2.756 0.506 4.813-0.725 1.725-1.794 4.038-2.55 5.363-0.006 0-0.006 0.006-0.013 0.006-1.694 0.869-4.6 2.781-3.406 4.25 0.35 0.431 1 0.625 1.344 0.625 1.119 0 2.231-1.125 3.819-3.863 1.613-0.531 3.381-1.194 4.938-1.45 1.356 0.738 2.944 1.219 4 1.219 1.825 0 1.95-2 1.231-2.712-0.869-0.85-3.394-0.606-4.6-0.45zM23.563 6.563l-6.125-6.125c-0.281-0.281-0.663-0.438-1.063-0.438h-0.375v8h8v-0.381c0-0.394-0.156-0.775-0.438-1.056zM18.931 22.519c0.256-0.169-0.156-0.744-2.675-0.563 2.319 0.988 2.675 0.563 2.675 0.563z"></path>
</svg>
