<!-- Generated by IcoMoon.io -->
<svg version="1.1" xmlns="http://www.w3.org/2000/svg" width="24" height="32" viewBox="0 0 24 32">
<title>file-excel-solid</title>
<path d="M14 8.5v-8.5h-12.5c-0.831 0-1.5 0.669-1.5 1.5v29c0 0.831 0.669 1.5 1.5 1.5h21c0.831 0 1.5-0.669 1.5-1.5v-20.5h-8.5c-0.825 0-1.5-0.675-1.5-1.5zM17.756 15.156l-3.756 5.844 3.756 5.844c0.319 0.5-0.038 1.156-0.631 1.156h-2.181c-0.275 0-0.531-0.15-0.662-0.394-1.225-2.262-2.281-4.294-2.281-4.294-0.4 0.925-0.625 1.25-2.287 4.3-0.131 0.244-0.381 0.394-0.656 0.394h-2.181c-0.594 0-0.95-0.656-0.631-1.156l3.769-5.844-3.769-5.844c-0.325-0.5 0.037-1.156 0.631-1.156h2.175c0.275 0 0.531 0.15 0.662 0.394 1.631 3.050 1.25 2.1 2.287 4.281 0 0 0.381-0.731 2.287-4.281 0.131-0.244 0.387-0.394 0.662-0.394h2.175c0.594-0.006 0.95 0.65 0.631 1.15zM24 7.619v0.381h-8v-8h0.381c0.4 0 0.781 0.156 1.063 0.438l6.119 6.125c0.281 0.281 0.438 0.662 0.438 1.056z"></path>
</svg>
