<!-- Generated by IcoMoon.io -->
<svg version="1.1" xmlns="http://www.w3.org/2000/svg" width="32" height="32" viewBox="0 0 32 32">
<title>file-certificate-solid</title>
<path d="M31.562 6.563l-6.119-6.125c-0.482-0.482-1-0.438-1.444-0.438v8h8c0-0.471 0.040-0.959-0.438-1.438zM21.999 8.501v-8.5h-12.499c-0.831 0-1.5 0.669-1.5 1.5v6.812c1.144-0.313 1.224-0.313 1.653-0.313 1.014 0 2.006 0.417 2.721 1.144 0.545 0.599 0.276 0.436 1.143 0.672 1.317 0.359 2.352 1.408 2.702 2.738 0.194 0.825 0.038 0.541 0.672 1.187 0.953 0.969 1.329 2.391 0.981 3.71-0.234 0.827-0.232 0.501 0 1.383 0.348 1.319-0.028 2.741-0.981 3.711-0.602 0.585-0.44 0.305-0.672 1.187-0.306 1.162-1.135 2.109-2.219 2.57v5.699h16.499c0.831 0 1.5-0.669 1.5-1.5v-20.499h-8.5c-0.825 0-1.5-0.675-1.5-1.5zM15.464 21.142c0.463-0.471 0.643-1.156 0.474-1.799-0.339-1.291-0.34-1.109 0-2.401 0.169-0.642-0.011-1.329-0.474-1.799-0.929-0.945-0.839-0.788-1.179-2.079-0.169-0.643-0.662-1.145-1.294-1.317-1.268-0.346-1.115-0.256-2.043-1.201-0.463-0.471-1.136-0.654-1.768-0.482-1.27 0.346-1.091 0.346-2.359 0-0.631-0.172-1.305 0.012-1.768 0.482-0.932 0.949-0.781 0.856-2.043 1.201-0.632 0.172-1.125 0.674-1.294 1.317-0.341 1.296-0.25 1.133-1.179 2.079-0.463 0.471-0.643 1.156-0.474 1.799 0.341 1.294 0.339 1.112 0 2.401-0.169 0.642 0.011 1.329 0.474 1.799 0.928 0.944 0.839 0.788 1.179 2.079 0.169 0.642 0.663 1.145 1.294 1.317 0.894 0.244 0.72 0.186 0.99 0.313v7.149l4-2 4 2v-7.149c0.269-0.126 0.095-0.069 0.99-0.313 0.632-0.172 1.125-0.674 1.294-1.317 0.342-1.296 0.251-1.133 1.18-2.079zM8 22.001c-2.209 0-4-1.791-4-4s1.791-4 4-4 4 1.791 4 4-1.791 4-4 4z"></path>
</svg>
