<!-- Generated by IcoMoon.io -->
<svg version="1.1" xmlns="http://www.w3.org/2000/svg" width="24" height="32" viewBox="0 0 24 32">
<title>file-powerpoint-solid</title>
<path d="M12.106 16.95c0.55 0 0.969 0.169 1.269 0.506 0.6 0.681 0.613 2.044-0.012 2.756-0.306 0.35-0.744 0.531-1.319 0.531h-1.681v-3.794h1.744zM23.563 6.563l-6.125-6.125c-0.281-0.281-0.663-0.438-1.063-0.438h-0.375v8h8v-0.381c0-0.394-0.156-0.775-0.438-1.056zM14 8.5v-8.5h-12.5c-0.831 0-1.5 0.669-1.5 1.5v29c0 0.831 0.669 1.5 1.5 1.5h21c0.831 0 1.5-0.669 1.5-1.5v-20.5h-8.5c-0.825 0-1.5-0.675-1.5-1.5zM17.313 18.825c0 5.644-5.55 4.85-6.944 4.85v3.575c0 0.413-0.338 0.75-0.75 0.75h-1.925c-0.412 0-0.75-0.337-0.75-0.75v-12.488c0-0.412 0.338-0.75 0.75-0.75h5.063c2.781 0 4.556 2.050 4.556 4.813z"></path>
</svg>
