<!-- Generated by IcoMoon.io -->
<svg version="1.1" xmlns="http://www.w3.org/2000/svg" width="40" height="32" viewBox="0 0 40 32">
<title>file-search-solid</title>
<path d="M18 20c0-4.091 2.474-7.605 6-9.152v-0.848h-8.5c-0.827-0.002-1.498-0.673-1.5-1.5v-8.5h-12.5c-0.001 0-0.002 0-0.004 0-0.826 0-1.496 0.67-1.496 1.496 0 0.001 0 0.003 0 0.004v-0 29c0 0.001 0 0.002 0 0.004 0 0.826 0.67 1.496 1.496 1.496 0.001 0 0.003 0 0.004 0h21c0.001 0 0.002 0 0.004 0 0.826 0 1.496-0.67 1.496-1.496 0-0.001 0-0.003 0-0.004v0-1.348c-3.526-1.547-6-5.062-6-9.152zM24 7.619c-0-0.412-0.167-0.786-0.438-1.056l-6.119-6.125c-0.271-0.27-0.646-0.438-1.059-0.438-0.001 0-0.003 0-0.004 0h-0.381v8h8zM39.707 28.879l-4.838-4.838c0.704-1.153 1.124-2.547 1.131-4.039v-0.002c0-4.418-3.582-8-8-8s-8 3.582-8 8c0 4.418 3.582 8 8 8v0c1.481 0 2.851-0.43 4.041-1.132l4.838 4.839c0.181 0.181 0.431 0.293 0.707 0.293s0.526-0.112 0.707-0.293l1.414-1.414c0.181-0.181 0.293-0.431 0.293-0.707s-0.112-0.526-0.293-0.707v0zM28 24c-2.209 0-4-1.791-4-4s1.791-4 4-4c2.209 0 4 1.791 4 4v0c0 2.209-1.791 4-4 4v0z"></path>
</svg>
