<!-- Generated by IcoMoon.io -->
<svg version="1.1" xmlns="http://www.w3.org/2000/svg" width="24" height="32" viewBox="0 0 24 32">
<title>file-user-solid</title>
<path d="M14 8.5v-8.5h-12.5c-0.831 0-1.5 0.669-1.5 1.5v29c0 0.831 0.669 1.5 1.5 1.5h21c0.831 0 1.5-0.669 1.5-1.5v-20.5h-8.5c-0.825 0-1.5-0.675-1.5-1.5zM19 25.6v1.2c0 0.663-0.627 1.2-1.4 1.2h-11.2c-0.773 0-1.4-0.538-1.4-1.2v-1.2c0-1.988 1.881-3.6 4.2-3.6h0.309c0.768 0.32 1.608 0.5 2.491 0.5s1.723-0.18 2.491-0.5h0.309c2.319 0 4.2 1.612 4.2 3.6zM12 20c-2.209 0-4-1.791-4-4s1.791-4 4-4 4 1.791 4 4-1.791 4-4 4zM23.563 6.563l-6.119-6.125c-0.281-0.281-0.663-0.438-1.063-0.438h-0.381v8h8v-0.381c0-0.394-0.156-0.775-0.438-1.056z"></path>
</svg>
