<!-- Generated by IcoMoon.io -->
<svg version="1.1" xmlns="http://www.w3.org/2000/svg" width="36" height="32" viewBox="0 0 36 32">
<title>file-export</title>
<path d="M35.457 17.743l-4.486-4.26c-0.517-0.488-1.276-0.617-1.927-0.336-0.644 0.276-1.043 0.874-1.043 1.561v3.293h-4v-9.752c0-0.794-0.319-1.563-0.881-2.124l-5.242-5.242c-0.563-0.563-1.325-0.881-2.118-0.881h-12.759c-1.656 0.006-2.999 1.35-2.999 3.006v25.995c0 1.656 1.344 2.999 2.999 2.999h18.001c1.656 0 2.999-1.344 2.999-2.999v-7.001h-1.999v7.001c0 0.55-0.45 1-1 1h-18.001c-0.55 0-1-0.45-1-1v-25.995c0-0.55 0.45-1.006 1-1.006h11.002v6.504c0 0.831 0.669 1.496 1.5 1.496h6.499v8h-11.501c-0.276 0-0.5 0.224-0.5 0.5v1c0 0.276 0.224 0.5 0.5 0.5h17.5v3.292c0 0.686 0.399 1.284 1.043 1.561 0.933 0.403 1.68-0.101 1.93-0.337l4.482-4.258c0.351-0.333 0.545-0.78 0.545-1.258s-0.194-0.926-0.544-1.258zM16.002 8.004v-5.968c0.175 0.044 0.331 0.131 0.462 0.263l5.242 5.242c0.131 0.131 0.219 0.287 0.262 0.463h-5.968zM30 22.68v-7.36l3.875 3.68-3.875 3.68z"></path>
</svg>
