<!-- Generated by IcoMoon.io -->
<svg version="1.1" xmlns="http://www.w3.org/2000/svg" width="24" height="32" viewBox="0 0 24 32">
<title>file-times-solid</title>
<path d="M14 8.5v-8.5h-12.5c-0.001 0-0.002 0-0.004 0-0.826 0-1.496 0.67-1.496 1.496 0 0.001 0 0.003 0 0.004v-0 29c0 0.001 0 0.002 0 0.004 0 0.826 0.67 1.496 1.496 1.496 0.001 0 0.003 0 0.004 0h21c0.001 0 0.002 0 0.004 0 0.826 0 1.496-0.67 1.496-1.496 0-0.001 0-0.003 0-0.004v0-20.5h-8.5c-0.827-0.002-1.498-0.673-1.5-1.5v-0zM16.242 15.050l0.707 0.707c0.181 0.181 0.293 0.431 0.293 0.707s-0.112 0.526-0.293 0.707l-2.829 2.828 2.829 2.828c0.181 0.181 0.293 0.431 0.293 0.707s-0.112 0.526-0.293 0.707l-0.707 0.707c-0.181 0.181-0.431 0.293-0.707 0.293s-0.526-0.112-0.707-0.293l-2.828-2.829-2.828 2.829c-0.181 0.181-0.431 0.293-0.707 0.293s-0.526-0.112-0.707-0.293l-0.707-0.707c-0.181-0.181-0.293-0.431-0.293-0.707s0.112-0.526 0.293-0.707l2.829-2.828-2.829-2.828c-0.181-0.181-0.293-0.431-0.293-0.707s0.112-0.526 0.293-0.707l0.707-0.707c0.181-0.181 0.431-0.293 0.707-0.293s0.526 0.112 0.707 0.293l2.828 2.829 2.828-2.829c0.181-0.181 0.431-0.293 0.707-0.293s0.526 0.112 0.707 0.293v0zM23.563 6.563l-6.119-6.125c-0.271-0.27-0.646-0.438-1.059-0.438-0.001 0-0.003 0-0.004 0h-0.381v8h8v-0.381c-0-0.412-0.167-0.786-0.438-1.056v0z"></path>
</svg>
