<!-- Generated by IcoMoon.io -->
<svg version="1.1" xmlns="http://www.w3.org/2000/svg" width="24" height="32" viewBox="0 0 24 32">
<title>file-prescription</title>
<path d="M23.119 6.125l-5.244-5.244c-0.563-0.563-1.325-0.881-2.119-0.881h-12.756c-1.656 0.006-3 1.35-3 3.006v25.994c0 1.656 1.344 3 3 3h18c1.656 0 3-1.344 3-3v-20.75c0-0.794-0.319-1.563-0.881-2.125zM16 2.038c0.175 0.044 0.331 0.131 0.462 0.263l5.244 5.244c0.131 0.131 0.219 0.287 0.262 0.463h-5.969zM22 29c0 0.55-0.45 1-1 1h-18c-0.55 0-1-0.45-1-1v-25.994c0-0.55 0.45-1.006 1-1.006h11v6.506c0 0.831 0.669 1.494 1.5 1.494h6.5zM12.044 18.625c1.156-0.569 1.956-1.75 1.956-3.125 0-1.931-1.569-3.5-3.5-3.5h-4c-0.275 0-0.5 0.225-0.5 0.5v9c0 0.275 0.225 0.5 0.5 0.5h1c0.275 0 0.5-0.225 0.5-0.5v-2.5h1.588l3 3-2.438 2.438c-0.194 0.194-0.194 0.512 0 0.706l0.706 0.706c0.194 0.194 0.512 0.194 0.706 0l2.438-2.438 2.437 2.438c0.194 0.194 0.512 0.194 0.706 0l0.706-0.706c0.194-0.194 0.194-0.512 0-0.706l-2.438-2.438 2.438-2.438c0.194-0.194 0.194-0.512 0-0.706l-0.706-0.706c-0.194-0.194-0.512-0.194-0.706 0l-2.438 2.438zM10.5 17h-2.5v-3h2.5c0.825 0 1.5 0.675 1.5 1.5s-0.675 1.5-1.5 1.5z"></path>
</svg>
