<!-- Generated by IcoMoon.io -->
<svg version="1.1" xmlns="http://www.w3.org/2000/svg" width="24" height="32" viewBox="0 0 24 32">
<title>file-exclamation-solid</title>
<path d="M24 7.619v0.381h-8v-8h0.381c0.4 0 0.781 0.156 1.063 0.438l6.119 6.125c0.281 0.281 0.438 0.662 0.438 1.056zM24 10v20.5c0 0.831-0.669 1.5-1.5 1.5h-21c-0.831 0-1.5-0.669-1.5-1.5v-29c0-0.831 0.669-1.5 1.5-1.5h12.5v8.5c0 0.825 0.675 1.5 1.5 1.5h8.5zM9.55 13.8l0.45 7c0.025 0.394 0.35 0.7 0.75 0.7h2.5c0.394 0 0.725-0.306 0.75-0.7l0.45-7c0.025-0.431-0.313-0.8-0.75-0.8h-3.4c-0.431 0-0.775 0.363-0.75 0.8zM14.5 25c0-1.381-1.119-2.5-2.5-2.5s-2.5 1.119-2.5 2.5 1.119 2.5 2.5 2.5 2.5-1.119 2.5-2.5z"></path>
</svg>
