<!-- Generated by IcoMoon.io -->
<svg version="1.1" xmlns="http://www.w3.org/2000/svg" width="32" height="32" viewBox="0 0 32 32">
<title>file-import-solid</title>
<path d="M1 18c-0.55 0-1 0.45-1 1v2c0 0.55 0.45 1 1 1h7v-4zM31.563 6.563l-6.119-6.125c-0.281-0.281-0.663-0.438-1.063-0.438h-0.381v8h8v-0.381c0-0.394-0.156-0.775-0.438-1.056zM22 8.5v-8.5h-12.5c-0.831 0-1.5 0.669-1.5 1.5v16.5h8v-4.075c0-0.894 1.081-1.338 1.712-0.706l5.975 6.031c0.413 0.419 0.413 1.087 0 1.5l-5.981 6.025c-0.631 0.631-1.713 0.188-1.713-0.706v-4.069h-7.994v8.5c0 0.831 0.669 1.5 1.5 1.5h21c0.831 0 1.5-0.669 1.5-1.5v-20.5h-8.5c-0.825 0-1.5-0.675-1.5-1.5z"></path>
</svg>
