<!-- Generated by IcoMoon.io -->
<svg version="1.1" xmlns="http://www.w3.org/2000/svg" width="24" height="32" viewBox="0 0 24 32">
<title>file-edit</title>
<path d="M23.119 6.119l-5.244-5.244c-0.563-0.563-1.325-0.881-2.119-0.881h-12.756c-1.656 0.006-3 1.35-3 3.006v26c0 1.656 1.344 3 3 3h18c1.656 0 3-1.344 3-3v-20.756c0-0.794-0.319-1.563-0.881-2.125zM21.706 7.537c0.131 0.131 0.219 0.287 0.262 0.463h-5.969v-5.969c0.175 0.044 0.331 0.131 0.462 0.263l5.244 5.244zM21 30h-18c-0.55 0-1-0.45-1-1v-26c0-0.55 0.45-1 1-1h11v6.5c0 0.831 0.669 1.5 1.5 1.5h6.5v19c0 0.55-0.45 1-1 1zM13.7 15.45l1.85 1.85c0.113 0.113 0.113 0.288 0 0.4l-7.025 7.025-1.881 0.269c-0.369 0.050-0.688-0.262-0.638-0.637l0.269-1.881 7.025-7.025c0.113-0.113 0.287-0.113 0.4 0zM17.725 15.525l-1.025 1.025c-0.113 0.113-0.288 0.113-0.4 0l-1.85-1.85c-0.113-0.113-0.113-0.287 0-0.4l1.025-1.025c0.369-0.369 0.962-0.369 1.325 0l0.925 0.925c0.369 0.363 0.369 0.956 0 1.325z"></path>
</svg>
