<!-- Generated by IcoMoon.io -->
<svg version="1.1" xmlns="http://www.w3.org/2000/svg" width="24" height="32" viewBox="0 0 24 32">
<title>file-chart-pie</title>
<path d="M23.119 6.124l-5.242-5.242c-0.563-0.563-1.325-0.881-2.118-0.881h-12.759c-1.656 0.006-2.999 1.35-2.999 3.006v25.995c0 1.656 1.344 2.999 2.999 2.999h18.001c1.656 0 2.999-1.344 2.999-2.999v-20.753c0-0.793-0.319-1.562-0.881-2.124zM16.002 2.037c0.175 0.044 0.331 0.131 0.462 0.263l5.242 5.242c0.131 0.131 0.219 0.287 0.262 0.462h-5.968v-5.968zM22.001 29.001c0 0.55-0.45 1-1 1h-18.001c-0.55 0-1-0.45-1-1v-25.995c0-0.55 0.45-1.006 1-1.006h11.002v6.504c0 0.831 0.669 1.496 1.5 1.496h6.499v19.001zM12 12v8h7.999c0.001 0 0-0.001 0-0.001-0.001-4.418-3.581-7.998-7.998-7.999h-0.001zM14 14.343c1.701 0.604 3.053 1.955 3.656 3.657h-3.656v-3.657zM11 26c-2.758 0-5-2.243-5-5 0-2.414 1.72-4.434 4-4.899v-2c-3.383 0.491-6 3.382-6 6.899 0 3.859 3.141 7 7 7 3.517 0 6.409-2.617 6.899-6h-2c-0.464 2.279-2.484 4-4.899 4z"></path>
</svg>
