<!-- Generated by IcoMoon.io -->
<svg version="1.1" xmlns="http://www.w3.org/2000/svg" width="24" height="32" viewBox="0 0 24 32">
<title>file-check</title>
<path d="M23.121 6.121l-5.243-5.243c-0.543-0.543-1.293-0.879-2.121-0.879h-12.757c-1.657 0-3 1.343-3 3v26c0 1.657 1.343 3 3 3h18c1.657 0 3-1.343 3-3v-20.757c0-0.828-0.336-1.578-0.879-2.121v0zM21.707 7.536c0.124 0.124 0.216 0.282 0.261 0.458l0.001 0.007h-5.969v-5.969c0.183 0.046 0.34 0.138 0.464 0.262v0l5.243 5.243zM21 30h-18c-0.552 0-1-0.448-1-1v-26c0-0.552 0.448-1 1-1h11v6.5c0 0.828 0.672 1.5 1.5 1.5h6.5v19c0 0.552-0.448 1-1 1zM18.846 16.816l-8.424 8.357c-0.294 0.291-0.768 0.29-1.060-0.003l-4.21-4.222c-0.293-0.294-0.292-0.769 0.002-1.062l0.532-0.53c0.294-0.293 0.769-0.292 1.062 0.002l3.153 3.162 7.361-7.302c0.294-0.292 0.77-0.29 1.062 0.004l0.529 0.533c0.292 0.294 0.29 0.77-0.004 1.062z"></path>
</svg>
