<!-- Generated by IcoMoon.io -->
<svg version="1.1" xmlns="http://www.w3.org/2000/svg" width="24" height="32" viewBox="0 0 24 32">
<title>file-music-solid</title>
<path d="M14 8.5v-8.5h-12.5c-0.001 0-0.002 0-0.004 0-0.826 0-1.496 0.67-1.496 1.496 0 0.001 0 0.003 0 0.004v-0 29c0 0.001 0 0.002 0 0.004 0 0.826 0.67 1.496 1.496 1.496 0.001 0 0.003 0 0.004 0h21c0.001 0 0.002 0 0.004 0 0.826 0 1.496-0.67 1.496-1.496 0-0.001 0-0.003 0-0.004v0-20.5h-8.5c-0.827-0.003-1.497-0.673-1.5-1.5v-0zM18 14v10c0 1.104-1.344 2-3 2s-3-0.896-3-2 1.344-2 3-2c0.356 0.003 0.701 0.049 1.030 0.131l-0.030-0.006v-4.773l-6 2.345v6.303c0 1.104-1.344 2-3 2s-3-0.896-3-2 1.344-2 3-2c0.356 0.003 0.701 0.049 1.030 0.131l-0.030-0.006v-7.172c0-0.445 0.291-0.821 0.692-0.951l0.007-0.002 8-2.953c0.090-0.029 0.193-0.046 0.301-0.046 0.552 0 1 0.447 1 0.999v0zM23.563 6.563l-6.119-6.125c-0.271-0.27-0.646-0.438-1.059-0.438-0.001 0-0.003 0-0.004 0h-0.38v8h8v-0.381c0-0 0-0 0-0 0-0.413-0.167-0.786-0.438-1.056v0z"></path>
</svg>
