<!-- Generated by IcoMoon.io -->
<svg version="1.1" xmlns="http://www.w3.org/2000/svg" width="24" height="32" viewBox="0 0 24 32">
<title>file-minus</title>
<path d="M23.119 6.119l-5.244-5.244c-0.542-0.543-1.291-0.88-2.118-0.881h-12.757c-1.657 0.006-2.998 1.349-3 3.006v26c0 1.657 1.343 3 3 3v0h18c1.657 0 3-1.343 3-3v0-20.756c-0.001-0.83-0.338-1.581-0.881-2.125l0 0zM21.706 7.537c0.125 0.124 0.216 0.28 0.261 0.456l0.001 0.007h-5.969v-5.969c0.182 0.046 0.339 0.138 0.462 0.262l0 0zM21 30h-18c-0.552 0-1-0.448-1-1v0-26c0-0.552 0.448-1 1-1v0h11v6.5c0 0.001 0 0.002 0 0.004 0 0.826 0.67 1.496 1.496 1.496 0.001 0 0.003 0 0.004 0h6.5v19c0 0.552-0.448 1-1 1v0zM18 18.75v0.5c0 0.414-0.336 0.75-0.75 0.75v0h-10.5c-0.414 0-0.75-0.336-0.75-0.75v0-0.5c0-0.414 0.336-0.75 0.75-0.75v0h10.5c0.414 0 0.75 0.336 0.75 0.75v0z"></path>
</svg>
