<!-- Generated by IcoMoon.io -->
<svg version="1.1" xmlns="http://www.w3.org/2000/svg" width="28" height="32" viewBox="0 0 28 32">
<title>file-medical-alt-solid</title>
<path d="M18 8.5v-8.5h-12.5c-0.831 0-1.5 0.669-1.5 1.5v14.5h-3.5c-0.275 0-0.5 0.225-0.5 0.5v1c0 0.275 0.225 0.5 0.5 0.5h8.806c0.188 0 0.363 0.106 0.45 0.275l1.244 2.488 3.55-7.106c0.181-0.369 0.713-0.369 0.894 0l2.169 4.344h4.387c0.55 0 1 0.45 1 1s-0.45 1-1 1h-5.619l-1.381-2.762-3.55 7.106c-0.181 0.369-0.713 0.369-0.894 0l-2.175-4.344h-4.381v10.5c0 0.831 0.669 1.5 1.5 1.5h21c0.831 0 1.5-0.669 1.5-1.5v-20.5h-8.5c-0.825 0-1.5-0.675-1.5-1.5zM27.563 6.563l-6.119-6.125c-0.281-0.281-0.663-0.438-1.063-0.438h-0.381v8h8v-0.381c0-0.394-0.156-0.775-0.438-1.056z"></path>
</svg>
