<!-- Generated by IcoMoon.io -->
<svg version="1.1" xmlns="http://www.w3.org/2000/svg" width="24" height="32" viewBox="0 0 24 32">
<title>file-csv-solid</title>
<path d="M14 8.5v-8.5h-12.5c-0.831 0-1.5 0.669-1.5 1.5v29c0 0.831 0.669 1.5 1.5 1.5h21c0.831 0 1.5-0.669 1.5-1.5v-20.5h-8.5c-0.825 0-1.5-0.675-1.5-1.5zM8 17.5c0 0.276-0.224 0.5-0.5 0.5h-0.5c-0.553 0-1 0.448-1 1v2c0 0.552 0.447 1 1 1h0.5c0.276 0 0.5 0.224 0.5 0.5v1c0 0.276-0.224 0.5-0.5 0.5h-0.5c-1.657 0-3-1.343-3-3v-2c0-1.657 1.343-3 3-3h0.5c0.276 0 0.5 0.224 0.5 0.5v1zM10.767 24h-0.767c-0.276 0-0.5-0.224-0.5-0.5v-1c0-0.276 0.224-0.5 0.5-0.5h0.767c0.372 0 0.651-0.219 0.651-0.414 0-0.081-0.047-0.166-0.133-0.24l-1.368-1.173c-0.529-0.451-0.833-1.093-0.833-1.759 0-1.331 1.189-2.414 2.651-2.414h0.766c0.276 0 0.5 0.224 0.5 0.5v1c0 0.276-0.224 0.5-0.5 0.5h-0.767c-0.372 0-0.651 0.219-0.651 0.414 0 0.081 0.047 0.166 0.133 0.24l1.368 1.173c0.529 0.451 0.833 1.093 0.833 1.759 0.001 1.331-1.188 2.414-2.649 2.414zM16 16.5v1.3c0 1.267 0.356 2.511 1 3.555 0.644-1.044 1-2.288 1-3.555v-1.3c0-0.276 0.224-0.5 0.5-0.5h1c0.276 0 0.5 0.224 0.5 0.5v1.3c0 2.218-0.805 4.306-2.267 5.881-0.189 0.203-0.454 0.319-0.733 0.319s-0.544-0.116-0.733-0.319c-1.463-1.575-2.268-3.663-2.268-5.881v-1.3c0-0.276 0.224-0.5 0.5-0.5h1c0.276 0 0.5 0.224 0.5 0.5zM23.563 6.563l-6.119-6.125c-0.281-0.281-0.663-0.438-1.063-0.438h-0.381v8h8v-0.381c0-0.394-0.156-0.775-0.438-1.056z"></path>
</svg>
