<!-- Generated by IcoMoon.io -->
<svg version="1.1" xmlns="http://www.w3.org/2000/svg" width="28" height="32" viewBox="0 0 28 32">
<title>file-medical-alt</title>
<path d="M27.119 6.125l-5.244-5.244c-0.563-0.563-1.325-0.881-2.119-0.881h-12.75c-1.656 0.006-3 1.35-3 3.006v14.994h-3.506c-0.275 0-0.5 0.225-0.5 0.5v1c0 0.275 0.225 0.5 0.5 0.5h7.881l2.169 4.344c0.181 0.369 0.713 0.369 0.894 0l3.556-7.106 1.381 2.762h5.619c0.55 0 1-0.45 1-1s-0.45-1-1-1h-4.381l-2.169-4.344c-0.181-0.369-0.713-0.369-0.894 0l-3.556 7.106-1.244-2.488c-0.088-0.169-0.256-0.275-0.45-0.275h-3.306v-14.994c0-0.55 0.456-1.006 1.006-1.006h11v6.506c0 0.831 0.669 1.494 1.5 1.494h6.5v19c0 0.55-0.45 1-1 1h-18c-0.55 0-1.006-0.45-1.006-1v-7h-1.994v7c0 1.656 1.344 3 3 3h17.994c1.656 0 3-1.344 3-3v-20.75c0-0.794-0.319-1.563-0.881-2.125zM20 8.006v-5.969c0.175 0.044 0.331 0.131 0.462 0.263l5.244 5.244c0.131 0.131 0.219 0.287 0.262 0.462h-5.969z"></path>
</svg>
