<!-- Generated by IcoMoon.io -->
<svg version="1.1" xmlns="http://www.w3.org/2000/svg" width="40" height="32" viewBox="0 0 40 32">
<title>file-search</title>
<path d="M37.853 30.441l-5.556-5.555c1.054-1.355 1.707-3.036 1.707-4.886 0-4.418-3.582-8-8-8s-8 3.582-8 8c0 4.418 3.582 8 8 8v0c1.847 0 3.527-0.651 4.881-1.703l5.556 5.556c0.090 0.091 0.216 0.147 0.354 0.147s0.263-0.056 0.354-0.147v0l0.707-0.707c0.089-0.090 0.144-0.214 0.144-0.351 0-0.138-0.056-0.264-0.147-0.354l-0-0zM26.003 26c-3.314 0-6-2.686-6-6s2.686-6 6-6c3.314 0 6 2.686 6 6v0c-0.004 3.312-2.688 5.996-6 6h-0zM23 30h-18c-0.552 0-1-0.448-1-1v0-25.994c0-0.552 0.448-1 1-1v0h11v6.5c0 0.001 0 0.003 0 0.004 0 0.826 0.67 1.496 1.496 1.496 0.002 0 0.003 0 0.005 0l8.5-0.006v-1.75c-0.001-0.83-0.338-1.581-0.881-2.125l-5.244-5.244c-0.542-0.544-1.292-0.88-2.12-0.881h-12.755c-1.657 0.006-2.998 1.349-3 3.005v25.995c0 1.657 1.343 3 3 3v0h18c1.301-0.003 2.406-0.836 2.815-1.997l0.006-0.021c-0.76-0.016-1.489-0.115-2.189-0.287l0.069 0.014c-0.18 0.179-0.428 0.29-0.702 0.291h-0zM18 2.037c0.182 0.046 0.339 0.138 0.462 0.262l5.244 5.243c0.125 0.123 0.216 0.28 0.261 0.455l0.001 0.007h-5.969z"></path>
</svg>
