<!-- Generated by IcoMoon.io -->
<svg version="1.1" xmlns="http://www.w3.org/2000/svg" width="24" height="32" viewBox="0 0 24 32">
<title>file-contract</title>
<path d="M12.291 22.708l-0.867-2.601c-0.205-0.613-0.777-1.026-1.424-1.026s-1.219 0.412-1.424 1.026l-1.139 3.416c-0.094 0.286-0.361 0.477-0.662 0.477h-0.776c-0.553 0-1 0.448-1 1s0.447 1 1 1h0.776c1.164 0 2.193-0.742 2.561-1.846l0.664-1.993 1.051 3.155c0.129 0.378 0.469 0.651 0.876 0.68l0.003 0c0.024 0.002 0.047 0.003 0.070 0.003 0.377 0 0.724-0.213 0.894-0.554l0.479-0.958c0.174-0.349 0.496-0.387 0.627-0.387s0.453 0.037 0.637 0.408c0.461 0.919 1.387 1.49 2.414 1.49h0.95c0.552 0 1-0.448 1-1s-0.448-1-1-1h-0.949c-0.267 0-0.508-0.149-0.635-0.406-0.748-1.491-2.89-1.896-4.124-0.885zM4.5 6h7c0.276 0 0.5-0.224 0.5-0.5v-1c0-0.276-0.224-0.5-0.5-0.5h-7c-0.276 0-0.5 0.224-0.5 0.5v1c0 0.276 0.224 0.5 0.5 0.5zM12 9.5v-1c0-0.276-0.224-0.5-0.5-0.5h-7c-0.276 0-0.5 0.224-0.5 0.5v1c0 0.276 0.224 0.5 0.5 0.5h7c0.276 0 0.5-0.224 0.5-0.5zM23.119 6.124l-5.242-5.242c-0.563-0.563-1.325-0.881-2.118-0.881h-12.759c-1.656 0.006-2.999 1.35-2.999 3.006v25.995c0 1.656 1.344 2.999 2.999 2.999h18.001c1.656 0 2.999-1.344 2.999-2.999v-20.753c0-0.793-0.319-1.562-0.881-2.124zM16.002 2.037c0.175 0.044 0.331 0.131 0.462 0.263l5.242 5.242c0.131 0.131 0.219 0.287 0.262 0.462h-5.968v-5.968zM22.001 29.001c0 0.55-0.45 1-1 1h-18.001c-0.55 0-1-0.45-1-1v-25.995c0-0.55 0.45-1.006 1-1.006h11.002v6.504c0 0.831 0.669 1.496 1.5 1.496h6.499v19.001z"></path>
</svg>
