<!-- Generated by IcoMoon.io -->
<svg version="1.1" xmlns="http://www.w3.org/2000/svg" width="36" height="32" viewBox="0 0 36 32">
<title>file-signature</title>
<path d="M35.052 8.498l-1.549-1.549c-1.264-1.265-3.313-1.266-4.579 0l-4.924 4.909v-3.609c0-0.794-0.319-1.563-0.881-2.124l-5.242-5.242c-0.563-0.563-1.325-0.881-2.118-0.881h-12.759c-1.656 0.006-2.999 1.35-2.999 3.006v25.995c0 1.656 1.344 2.999 2.999 2.999h18.001c1.656 0 2.999-1.344 2.999-2.999v-5.034c0.393-0.293 0.789-0.584 1.136-0.934l9.915-9.956c0.612-0.611 0.948-1.424 0.948-2.289s-0.336-1.678-0.947-2.289zM16.002 2.037c0.175 0.044 0.331 0.131 0.462 0.263l5.242 5.242c0.131 0.131 0.219 0.287 0.262 0.462h-5.968v-5.968zM22.001 29.001c0 0.55-0.45 1-1 1h-18.001c-0.55 0-1-0.45-1-1v-25.995c0-0.55 0.45-1.006 1-1.006h11.002v6.504c0 0.831 0.669 1.496 1.5 1.496h6.499v3.846l-3.032 3.015c-1.884 1.872-2.964 4.469-2.967 7.125-0.246-0.018-0.467-0.151-0.585-0.392-0.748-1.491-2.891-1.896-4.125-0.886l-0.867-2.601c-0.205-0.613-0.777-1.026-1.424-1.026s-1.219 0.412-1.424 1.026l-1.139 3.416c-0.094 0.286-0.361 0.477-0.662 0.477h-0.776c-0.553 0-1 0.448-1 1s0.447 1 1 1h0.776c1.164 0 2.193-0.742 2.561-1.846l0.664-1.993 1.051 3.155c0.284 0.844 1.446 0.927 1.844 0.13l0.479-0.958c0.251-0.504 0.988-0.537 1.264 0.021 0.453 0.904 1.357 1.472 2.363 1.491h2c1.378-0.001 2.747-0.306 4.001-0.85v3.851zM23.718 21.622c-1.461 1.469-3.483 2.378-5.717 2.378-0 0-0.001 0-0.001 0h0v-0.002c0-2.147 0.856-4.206 2.379-5.719l7.534-7.492 3.3 3.3-7.495 7.536zM33.638 11.662l-1.324 1.324-3.3-3.3 1.325-1.324c0.483-0.483 1.267-0.484 1.751 0l1.549 1.549c0.483 0.483 0.483 1.267-0.001 1.751z"></path>
</svg>
