<!-- Generated by IcoMoon.io -->
<svg version="1.1" xmlns="http://www.w3.org/2000/svg" width="24" height="32" viewBox="0 0 24 32">
<title>file-word-solid</title>
<path d="M14 8.5v-8.5h-12.5c-0.831 0-1.5 0.669-1.5 1.5v29c0 0.831 0.669 1.5 1.5 1.5h21c0.831 0 1.5-0.669 1.5-1.5v-20.5h-8.5c-0.825 0-1.5-0.675-1.5-1.5zM17.569 16h1.494c0.481 0 0.837 0.444 0.731 0.919l-2.375 10.5c-0.075 0.344-0.381 0.581-0.731 0.581h-2.375c-0.344 0-0.644-0.238-0.725-0.569-1.613-6.469-1.3-5.075-1.6-6.906h-0.031c-0.069 0.894-0.15 1.087-1.6 6.906-0.081 0.331-0.381 0.569-0.725 0.569h-2.319c-0.35 0-0.656-0.244-0.731-0.587l-2.362-10.5c-0.106-0.469 0.25-0.913 0.731-0.913h1.531c0.356 0 0.669 0.25 0.737 0.606 0.975 4.875 1.256 6.844 1.313 7.637 0.1-0.637 0.456-2.044 1.838-7.669 0.081-0.337 0.381-0.569 0.731-0.569h1.819c0.35 0 0.65 0.238 0.731 0.575 1.5 6.275 1.8 7.75 1.85 8.087-0.012-0.7-0.162-1.113 1.35-8.075 0.063-0.35 0.369-0.594 0.719-0.594zM24 7.619v0.381h-8v-8h0.381c0.4 0 0.781 0.156 1.063 0.438l6.119 6.125c0.281 0.281 0.438 0.662 0.438 1.056z"></path>
</svg>
