<!-- Generated by IcoMoon.io -->
<svg version="1.1" xmlns="http://www.w3.org/2000/svg" width="24" height="32" viewBox="0 0 24 32">
<title>file-invoice-dollar-solid</title>
<path d="M23.563 6.563l-6.119-6.125c-0.281-0.281-0.663-0.438-1.063-0.438h-0.381v8h8v-0.381c0-0.394-0.156-0.775-0.438-1.056zM14 8.5v-8.5h-12.5c-0.831 0-1.5 0.669-1.5 1.5v29c0 0.831 0.669 1.5 1.5 1.5h21c0.831 0 1.5-0.669 1.5-1.5v-20.5h-8.5c-0.825 0-1.5-0.675-1.5-1.5zM4 4.5c0-0.276 0.224-0.5 0.5-0.5h5c0.276 0 0.5 0.224 0.5 0.5v1c0 0.276-0.224 0.5-0.5 0.5h-5c-0.276 0-0.5-0.224-0.5-0.5v-1zM4 9.5v-1c0-0.276 0.224-0.5 0.5-0.5h5c0.276 0 0.5 0.224 0.5 0.5v1c0 0.276-0.224 0.5-0.5 0.5h-5c-0.276 0-0.5-0.224-0.5-0.5zM13 25.992v1.508c0 0.276-0.224 0.5-0.5 0.5h-1c-0.276 0-0.5-0.224-0.5-0.5v-1.518c-0.706-0.036-1.392-0.282-1.961-0.709-0.244-0.183-0.256-0.548-0.036-0.759l0.734-0.701c0.173-0.165 0.431-0.172 0.633-0.046 0.242 0.151 0.516 0.233 0.801 0.233h1.757c0.406 0 0.738-0.37 0.738-0.824 0-0.372-0.226-0.699-0.548-0.796l-2.813-0.844c-1.162-0.349-1.974-1.464-1.974-2.712 0-1.532 1.191-2.777 2.667-2.817v-1.508c0-0.276 0.224-0.5 0.5-0.5h1c0.276 0 0.5 0.224 0.5 0.5v1.518c0.706 0.036 1.392 0.282 1.961 0.709 0.244 0.183 0.256 0.548 0.036 0.759l-0.734 0.701c-0.173 0.165-0.431 0.172-0.633 0.046-0.242-0.152-0.516-0.233-0.801-0.233h-1.757c-0.406 0-0.738 0.37-0.738 0.824 0 0.372 0.226 0.699 0.548 0.796l2.813 0.844c1.162 0.349 1.974 1.464 1.974 2.712 0 1.533-1.191 2.777-2.667 2.817z"></path>
</svg>
