<!-- Generated by IcoMoon.io -->
<svg version="1.1" xmlns="http://www.w3.org/2000/svg" width="32" height="32" viewBox="0 0 32 32">
<title>file-import</title>
<path d="M31.119 6.124l-5.242-5.242c-0.563-0.563-1.325-0.881-2.118-0.881h-12.759c-1.656 0.006-2.999 1.35-2.999 3.006v14.994h-7.5c-0.276 0-0.5 0.224-0.5 0.5v1c0 0.276 0.224 0.5 0.5 0.5h15.5v3.292c0 0.686 0.399 1.284 1.043 1.561 0.933 0.403 1.68-0.101 1.93-0.337l4.482-4.258c0.351-0.333 0.545-0.78 0.545-1.258s-0.193-0.925-0.543-1.257l-4.486-4.26c-0.517-0.488-1.276-0.617-1.927-0.336-0.644 0.276-1.043 0.874-1.043 1.561v3.292h-6.001v-14.994c0-0.55 0.45-1.006 1-1.006h11.002v6.504c0 0.831 0.669 1.496 1.5 1.496h6.499v19.001c0 0.55-0.45 1-1 1h-18.002c-0.55 0-1-0.45-1-1v-7.001h-1.999v7.001c0 1.656 1.344 2.999 2.999 2.999h18.001c1.656 0 2.999-1.344 2.999-2.999v-20.753c0-0.793-0.319-1.562-0.881-2.124zM18 15.32l3.875 3.68-3.875 3.68v-7.36zM24.002 8.004v-5.968c0.175 0.044 0.331 0.131 0.462 0.263l5.242 5.242c0.131 0.131 0.219 0.287 0.262 0.463h-5.968z"></path>
</svg>
