<!-- Generated by IcoMoon.io -->
<svg version="1.1" xmlns="http://www.w3.org/2000/svg" width="24" height="32" viewBox="0 0 24 32">
<title>file-excel</title>
<path d="M23.119 6.119l-5.244-5.244c-0.563-0.563-1.325-0.881-2.119-0.881h-12.756c-1.656 0.006-3 1.35-3 3.006v26c0 1.656 1.344 3 3 3h18c1.656 0 3-1.344 3-3v-20.756c0-0.794-0.319-1.563-0.881-2.125zM21.706 7.537c0.131 0.131 0.219 0.287 0.262 0.463h-5.969v-5.969c0.175 0.044 0.331 0.131 0.462 0.263l5.244 5.244zM21 30h-18c-0.55 0-1-0.45-1-1v-26c0-0.55 0.45-1 1-1h11v6.5c0 0.831 0.669 1.5 1.5 1.5h6.5v19c0 0.55-0.45 1-1 1zM13.231 19.25l3.156-5.113c0.3-0.5-0.056-1.137-0.644-1.137h-0.256c-0.256 0-0.494 0.131-0.631 0.344-1.938 3.031-2.275 3.344-2.856 4.656-1.075-2.012-0.525-1-2.863-4.656-0.137-0.213-0.375-0.344-0.631-0.344h-0.256c-0.588 0-0.944 0.644-0.638 1.137l3.2 5.113-3.694 5.594c-0.319 0.5 0.037 1.156 0.631 1.156h0.219c0.256 0 0.494-0.131 0.631-0.344 2.325-3.625 2.831-3.906 3.4-5.156 1.969 3.544 2.769 4.2 3.4 5.163 0.137 0.212 0.375 0.337 0.625 0.337h0.225c0.594 0 0.95-0.65 0.631-1.15l-3.65-5.6z"></path>
</svg>
