<!-- Generated by IcoMoon.io -->
<svg version="1.1" xmlns="http://www.w3.org/2000/svg" width="24" height="32" viewBox="0 0 24 32">
<title>file-image-solid</title>
<path d="M24 7.621v0.379h-8v-8h0.379c0.414 0 0.789 0.168 1.061 0.439l6.121 6.121c0.271 0.271 0.439 0.646 0.439 1.061v0zM15.5 10c-0.825 0-1.5-0.675-1.5-1.5v-8.5h-12.5c-0.828 0-1.5 0.672-1.5 1.5v29c0 0.828 0.672 1.5 1.5 1.5h21c0.828 0 1.5-0.672 1.5-1.5v-20.5h-8.5zM7.034 11c1.657 0 3 1.343 3 3s-1.343 3-3 3-3-1.343-3-3 1.343-3 3-3zM20.034 26h-16l0.030-3.030 2.47-2.47c0.293-0.293 0.737-0.263 1.030 0.030l2.47 2.47 6.47-6.47c0.293-0.293 0.768-0.293 1.061 0l2.47 2.47v7z"></path>
</svg>
