<!-- Generated by IcoMoon.io -->
<svg version="1.1" xmlns="http://www.w3.org/2000/svg" width="24" height="32" viewBox="0 0 24 32">
<title>file-edit-solid</title>
<path d="M24 7.619v0.381h-8v-8h0.381c0.4 0 0.781 0.156 1.063 0.438l6.119 6.125c0.281 0.281 0.438 0.662 0.438 1.056zM15.5 10h8.5v20.5c0 0.831-0.669 1.5-1.5 1.5h-21c-0.831 0-1.5-0.669-1.5-1.5v-29c0-0.831 0.669-1.5 1.5-1.5h12.5v8.5c0 0.825 0.675 1.5 1.5 1.5zM11.775 16.85l-5.938 5.938-0.338 3.012c-0.044 0.4 0.294 0.744 0.7 0.7l3.013-0.337 5.938-5.938c0.125-0.125 0.125-0.325 0-0.45l-2.925-2.925c-0.125-0.125-0.325-0.125-0.45 0zM18.631 14.956l-1.587-1.588c-0.494-0.494-1.294-0.494-1.787 0l-1.625 1.625c-0.125 0.125-0.125 0.325 0 0.45l2.925 2.925c0.125 0.125 0.325 0.125 0.45 0l1.625-1.625c0.494-0.494 0.494-1.294 0-1.787z"></path>
</svg>
