<!-- Generated by IcoMoon.io -->
<svg version="1.1" xmlns="http://www.w3.org/2000/svg" width="24" height="32" viewBox="0 0 24 32">
<title>file-contract-solid</title>
<path d="M14 8.5v-8.5h-12.5c-0.831 0-1.5 0.669-1.5 1.5v29c0 0.831 0.669 1.5 1.5 1.5h21c0.831 0 1.5-0.669 1.5-1.5v-20.5h-8.5c-0.825 0-1.5-0.675-1.5-1.5zM4 4.5c0-0.276 0.224-0.5 0.5-0.5h5c0.276 0 0.5 0.224 0.5 0.5v1c0 0.276-0.224 0.5-0.5 0.5h-5c-0.276 0-0.5-0.224-0.5-0.5v-1zM4 8.5c0-0.276 0.224-0.5 0.5-0.5h5c0.276 0 0.5 0.224 0.5 0.5v1c0 0.276-0.224 0.5-0.5 0.5h-5c-0.276 0-0.5-0.224-0.5-0.5v-1zM16.051 24h2.949c0.552 0 1 0.448 1 1s-0.448 1-1 1h-2.949c-1.028 0-1.954-0.571-2.415-1.491-0.184-0.37-0.506-0.407-0.636-0.407s-0.451 0.037-0.626 0.387l-0.479 0.959c-0.168 0.33-0.505 0.552-0.894 0.552-0 0-0 0-0.001 0h0c-0.024 0-0.047-0.001-0.071-0.003-0.403-0.028-0.75-0.297-0.877-0.681l-1.052-3.154-0.663 1.992c-0.368 1.104-1.399 1.846-2.563 1.846h-0.774c-0.553 0-1-0.448-1-1s0.447-1 1-1h0.774c0.302 0 0.569-0.192 0.665-0.479l1.137-3.415c0.206-0.613 0.778-1.026 1.424-1.026s1.217 0.412 1.423 1.026l0.867 2.602c1.236-1.012 3.378-0.606 4.125 0.885 0.126 0.254 0.373 0.406 0.635 0.406zM23.563 6.563l-6.119-6.125c-0.281-0.281-0.663-0.438-1.063-0.438h-0.381v8h8v-0.381c0-0.394-0.156-0.775-0.438-1.056z"></path>
</svg>
