<!-- Generated by IcoMoon.io -->
<svg version="1.1" xmlns="http://www.w3.org/2000/svg" width="24" height="32" viewBox="0 0 24 32">
<title>file-upload</title>
<path d="M23.119 6.124l-5.242-5.242c-0.563-0.563-1.325-0.881-2.118-0.881h-12.759c-1.656 0.006-2.999 1.35-2.999 3.006v25.995c0 1.656 1.344 2.999 2.999 2.999h18.001c1.656 0 2.999-1.344 2.999-2.999v-20.753c0-0.793-0.319-1.562-0.881-2.124zM16.002 2.037c0.175 0.044 0.331 0.131 0.462 0.263l5.242 5.242c0.131 0.131 0.219 0.287 0.262 0.462h-5.968v-5.968zM22.001 29.001c0 0.55-0.45 1-1 1h-18.001c-0.55 0-1-0.45-1-1v-25.995c0-0.55 0.45-1.006 1-1.006h11.002v6.504c0 0.831 0.669 1.496 1.5 1.496h6.499v19.001zM10.744 13.543l-4.258 4.484c-0.488 0.512-0.621 1.269-0.34 1.927 0.276 0.644 0.875 1.045 1.563 1.045h3.291v5.501c0 0.276 0.224 0.5 0.5 0.5h1c0.276 0 0.5-0.224 0.5-0.5v-5.501h3.291c0.688 0 1.287-0.401 1.563-1.045 0.281-0.657 0.149-1.414-0.34-1.926l-4.258-4.486c-0.668-0.699-1.844-0.7-2.512 0.001zM8.322 18.999l3.678-3.875 3.678 3.875h-7.355z"></path>
</svg>
