<!-- Generated by IcoMoon.io -->
<svg version="1.1" xmlns="http://www.w3.org/2000/svg" width="32" height="32" viewBox="0 0 32 32">
<title>fill</title>
<path d="M31.414 13.566l-12.981-12.981c-0.391-0.391-0.902-0.586-1.414-0.586s-1.024 0.195-1.414 0.586l-5.803 5.803-6.242-6.242c-0.195-0.195-0.512-0.195-0.707 0l-0.708 0.707c-0.195 0.195-0.195 0.512 0 0.707l6.242 6.242-6.631 6.631c-2.343 2.343-2.343 6.141 0 8.484l7.324 7.324c1.172 1.171 2.707 1.758 4.242 1.758s3.071-0.586 4.242-1.758l13.848-13.848c0.781-0.781 0.781-2.047 0-2.828zM16.152 28.829c-0.756 0.755-1.76 1.171-2.828 1.171s-2.072-0.416-2.828-1.171l-7.325-7.325c-0.43-0.43-0.736-0.946-0.932-1.504h22.741l-8.828 8.829zM26.98 18h-24.914c0.138-0.81 0.513-1.559 1.106-2.152l6.631-6.632 5.491 5.491c0.391 0.391 1.024 0.391 1.414 0s0.391-1.024 0-1.414l-5.491-5.491 5.803-5.803 12.981 12.98-3.020 3.020z"></path>
</svg>
