<!-- Generated by IcoMoon.io -->
<svg version="1.1" xmlns="http://www.w3.org/2000/svg" width="32" height="32" viewBox="0 0 32 32">
<title>fill-solid</title>
<path d="M31.414 13.566l-12.981-12.981c-0.391-0.391-0.902-0.586-1.414-0.586s-1.024 0.195-1.414 0.586l-5.099 5.099-5.386-5.386c-0.39-0.391-1.024-0.391-1.414 0l-1.414 1.413c-0.39 0.391-0.39 1.024 0 1.414l5.387 5.386-5.923 5.922c-2.343 2.343-2.343 6.141 0 8.484l7.324 7.324c1.172 1.171 2.707 1.758 4.242 1.758s3.071-0.586 4.242-1.758l13.848-13.848c0.781-0.781 0.781-2.047 0-2.829zM24.151 18.002h-20.030c0.085-0.24 0.223-0.499 0.464-0.739l5.922-5.922 3.663 3.662c0.781 0.781 2.047 0.781 2.828 0s0.781-2.047 0-2.828l-3.663-3.662 3.684-3.684 10.153 10.152-3.022 3.021z"></path>
</svg>
