<!-- Generated by IcoMoon.io -->
<svg version="1.1" xmlns="http://www.w3.org/2000/svg" width="36" height="32" viewBox="0 0 36 32">
<title>film-canister</title>
<path d="M34 6h-14v-2h1.5c0.276 0 0.5-0.224 0.5-0.5v0-1c0-0.276-0.224-0.5-0.5-0.5v0h-5.5v-1c0-0.552-0.448-1-1-1v0h-8c-0.552 0-1 0.448-1 1v0 1h-5.5c-0.276 0-0.5 0.224-0.5 0.5v0 1c0 0.276 0.224 0.5 0.5 0.5v0h1.5v26h-1.5c-0.276 0-0.5 0.224-0.5 0.5v0 1c0 0.276 0.224 0.5 0.5 0.5v0h21c0.276 0 0.5-0.224 0.5-0.5v0-1c0-0.276-0.224-0.5-0.5-0.5v0h-1.5v-2h10c1.105 0 2-0.895 2-2v0-4c0-1.105 0.895-2 2-2v0c1.105 0 2-0.895 2-2v0-10c0-1.105-0.895-2-2-2v0zM18 30h-14v-26h14zM34 18c-2.208 0.003-3.997 1.792-4 4v4h-10v-18h14zM30 13h1c0.552 0 1-0.448 1-1v0-1c0-0.552-0.448-1-1-1v0h-1c-0.552 0-1 0.448-1 1v0 1c0 0.552 0.448 1 1 1v0zM23 24h1c0.552 0 1-0.448 1-1v0-1c0-0.552-0.448-1-1-1v0h-1c-0.552 0-1 0.448-1 1v0 1c0 0.552 0.448 1 1 1v0zM23 13h1c0.552 0 1-0.448 1-1v0-1c0-0.552-0.448-1-1-1v0h-1c-0.552 0-1 0.448-1 1v0 1c0 0.552 0.448 1 1 1v0z"></path>
</svg>
