<!-- Generated by IcoMoon.io -->
<svg version="1.1" xmlns="http://www.w3.org/2000/svg" width="32" height="32" viewBox="0 0 32 32">
<title>film-alt</title>
<path d="M30.5 4h-0.5v1.25c0 0.412-0.337 0.75-0.75 0.75h-2.5c-0.413 0-0.75-0.338-0.75-0.75v-1.25h-20v1.25c0 0.412-0.338 0.75-0.75 0.75h-2.5c-0.413 0-0.75-0.338-0.75-0.75v-1.25h-0.5c-0.831 0-1.5 0.669-1.5 1.5v21c0 0.831 0.669 1.5 1.5 1.5h0.5v-1.25c0-0.413 0.337-0.75 0.75-0.75h2.5c0.412 0 0.75 0.337 0.75 0.75v1.25h20v-1.25c0-0.413 0.337-0.75 0.75-0.75h2.5c0.413 0 0.75 0.337 0.75 0.75v1.25h0.5c0.831 0 1.5-0.669 1.5-1.5v-21c0-0.831-0.669-1.5-1.5-1.5zM6 23.25c0 0.413-0.338 0.75-0.75 0.75h-2.5c-0.413 0-0.75-0.337-0.75-0.75v-2.5c0-0.413 0.337-0.75 0.75-0.75h2.5c0.412 0 0.75 0.337 0.75 0.75v2.5zM6 17.25c0 0.413-0.338 0.75-0.75 0.75h-2.5c-0.413 0-0.75-0.337-0.75-0.75v-2.5c0-0.412 0.337-0.75 0.75-0.75h2.5c0.412 0 0.75 0.338 0.75 0.75v2.5zM6 11.25c0 0.412-0.338 0.75-0.75 0.75h-2.5c-0.413 0-0.75-0.338-0.75-0.75v-2.5c0-0.412 0.337-0.75 0.75-0.75h2.5c0.412 0 0.75 0.338 0.75 0.75v2.5zM24 25.25c0 0.413-0.337 0.75-0.75 0.75h-14.5c-0.412 0-0.75-0.337-0.75-0.75v-18.5c0-0.412 0.338-0.75 0.75-0.75h14.5c0.413 0 0.75 0.338 0.75 0.75v18.5zM30 23.25c0 0.413-0.337 0.75-0.75 0.75h-2.5c-0.413 0-0.75-0.337-0.75-0.75v-2.5c0-0.413 0.337-0.75 0.75-0.75h2.5c0.413 0 0.75 0.337 0.75 0.75v2.5zM30 17.25c0 0.413-0.337 0.75-0.75 0.75h-2.5c-0.413 0-0.75-0.337-0.75-0.75v-2.5c0-0.412 0.337-0.75 0.75-0.75h2.5c0.413 0 0.75 0.338 0.75 0.75v2.5zM30 11.25c0 0.412-0.337 0.75-0.75 0.75h-2.5c-0.413 0-0.75-0.338-0.75-0.75v-2.5c0-0.412 0.337-0.75 0.75-0.75h2.5c0.413 0 0.75 0.338 0.75 0.75v2.5z"></path>
</svg>
