<!-- Generated by IcoMoon.io -->
<svg version="1.1" xmlns="http://www.w3.org/2000/svg" width="36" height="32" viewBox="0 0 36 32">
<title>film-canister-solid</title>
<path d="M34 8h-12v18h8c1.105 0 2-0.895 2-2v0-2c0-1.105 0.895-2 2-2v0c1.105 0 2-0.895 2-2v0-8c0-1.105-0.895-2-2-2v0zM27.5 22.5c0 0.552-0.448 1-1 1v0h-1c-0.552 0-1-0.448-1-1v0-1c0-0.552 0.448-1 1-1v0h1c0.552 0 1 0.448 1 1v0zM27.5 12.5c0 0.552-0.448 1-1 1v0h-1c-0.552 0-1-0.448-1-1v0-1c0-0.552 0.448-1 1-1v0h1c0.552 0 1 0.448 1 1v0zM33.5 12.5c0 0.552-0.448 1-1 1v0h-1c-0.552 0-1-0.448-1-1v0-1c0-0.552 0.448-1 1-1v0h1c0.552 0 1 0.448 1 1v0zM21 28h-1v-22h1c0.552 0 1-0.448 1-1v0-2c0-0.552-0.448-1-1-1v0h-5v-1c0-0.552-0.448-1-1-1v0h-8c-0.552 0-1 0.448-1 1v0 1h-5c-0.552 0-1 0.448-1 1v0 2c0 0.552 0.448 1 1 1v0h1v22h-1c-0.552 0-1 0.448-1 1v0 2c0 0.552 0.448 1 1 1v0h20c0.552 0 1-0.448 1-1v0-2c0-0.552-0.448-1-1-1v0z"></path>
</svg>
