<!-- Generated by IcoMoon.io -->
<svg version="1.1" xmlns="http://www.w3.org/2000/svg" width="32" height="32" viewBox="0 0 32 32">
<title>fingerprint-solid</title>
<path d="M16.008 15.373c-0.828 0-1.5 0.671-1.5 1.5 0.071 4.516-0.509 8.869-1.731 13.222-0.171 0.608 0.134 1.906 1.445 1.906 0.655 0 1.257-0.433 1.443-1.095 0.846-2.994 1.94-7.838 1.842-14.032 0.001-0.828-0.671-1.5-1.499-1.5zM15.954 10.264c-3.829-0.004-6.501 2.942-6.447 6.318 0.047 2.996-0.234 5.994-0.836 8.909-0.168 0.811 0.354 1.606 1.165 1.773 0.816 0.167 1.604-0.354 1.773-1.165 0.646-3.131 0.948-6.349 0.898-9.564-0.026-1.622 1.245-3.281 3.403-3.271 1.957 0.029 3.572 1.584 3.601 3.467 0.048 3.003-0.176 6.021-0.663 8.972-0.136 0.816 0.418 1.589 1.235 1.724 1.248 0.208 1.676-0.944 1.724-1.236 0.517-3.127 0.754-6.326 0.704-9.507-0.055-3.488-2.996-6.367-6.557-6.42zM9.036 9.028c-0.644-0.521-1.586-0.425-2.11 0.217-1.601 1.969-2.462 4.455-2.422 7 0.037 2.349-0.154 4.704-0.569 7.003-0.146 0.816 0.394 1.596 1.21 1.743 1.257 0.219 1.692-0.926 1.743-1.21 0.449-2.49 0.656-5.041 0.616-7.583-0.029-1.867 0.575-3.617 1.75-5.061 0.522-0.643 0.424-1.587-0.218-2.11zM15.877 5.133c-0.963-0.026-1.929 0.090-2.861 0.311-0.806 0.191-1.304 0.999-1.114 1.806 0.191 0.806 1 1.302 1.806 1.114 0.691-0.163 1.404-0.236 2.125-0.231 4.714 0.071 8.608 3.844 8.68 8.411 0.037 2.367-0.080 4.757-0.349 7.102-0.094 0.823 0.497 1.567 1.319 1.661 1.045 0.122 1.594-0.742 1.661-1.319 0.239-1.978 0.375-4.268 0.375-6.59 0-0.317-0.003-0.633-0.008-0.949l0.001 0.048c-0.098-6.172-5.317-11.271-11.635-11.364zM31.632 12.723c-0.179-0.807-0.969-1.325-1.788-1.142-0.809 0.179-1.32 0.979-1.141 1.788 0.294 1.338 0.307 2.338 0.294 3.85-0.007 0.829 0.659 1.506 1.488 1.512h0.012c0.823 0 1.493-0.663 1.5-1.488 0.011-1.386 0.025-2.757-0.364-4.521zM29.124 7.053c-3.044-4.337-8.024-6.973-13.324-7.052-4.362-0.052-8.396 1.556-11.397 4.558-2.898 2.902-4.46 6.756-4.395 10.857l-0.007 1.342c-0.024 0.828 0.627 1.519 1.455 1.543 0.014 0.001 0.030 0.001 0.045 0.001 0.807 0 1.474-0.644 1.498-1.456l0.010-1.477c-0.052-3.281 1.197-6.366 3.518-8.688 2.422-2.425 5.709-3.729 9.23-3.679 4.341 0.064 8.421 2.223 10.914 5.774 0.476 0.679 1.41 0.841 2.089 0.366 0.677-0.476 0.841-1.412 0.365-2.089z"></path>
</svg>
