<!-- Generated by IcoMoon.io -->
<svg version="1.1" xmlns="http://www.w3.org/2000/svg" width="32" height="32" viewBox="0 0 32 32">
<title>fingerprint</title>
<path d="M16 10.62c-1.768 0.026-3.303 0.601-4.461 1.761-1.125 1.125-1.731 2.621-1.705 4.215 0.049 3.139-0.244 6.281-0.875 9.337-0.113 0.541 0.236 1.070 0.776 1.182 0.531 0.104 1.068-0.236 1.182-0.777 0.66-3.198 0.969-6.486 0.918-9.772-0.016-1.048 0.381-2.031 1.119-2.769 1.166-1.166 2.642-1.175 3.047-1.175 2.32 0.034 4.151 1.887 4.186 4.129 0.049 3.148-0.186 6.304-0.695 9.379-0.090 0.545 0.277 1.059 0.823 1.149 0.057 0.010 0.111 0.014 0.166 0.014 0.481 0 0.904-0.347 0.984-0.837 0.529-3.192 0.771-6.468 0.723-9.737-0.054-3.313-2.801-6.047-6.188-6.098zM15.994 16.001c-0.553 0.009-0.992 0.463-0.984 1.016 0.070 4.587-0.514 9.062-1.736 13.442l-0.076 0.271c-0.116 0.414 0.109 1.271 0.963 1.271 0.438 0 0.838-0.288 0.963-0.729l0.076-0.273c1.276-4.567 1.885-9.234 1.811-14.013-0.009-0.552-0.514-0.994-1.016-0.984zM7.041 9.362c-1.574 1.936-2.42 4.382-2.381 6.884 0.039 2.473-0.164 4.946-0.599 7.351-0.098 0.544 0.262 1.064 0.807 1.163 0.061 0.011 0.119 0.016 0.179 0.016 0.473 0 0.894-0.339 0.982-0.821 0.459-2.533 0.67-5.136 0.631-7.739-0.033-2.063 0.637-3.997 1.932-5.592 0.349-0.429 0.283-1.059-0.144-1.407-0.428-0.347-1.057-0.286-1.407 0.145zM31.992 15.801c-0.016-1.031-0.137-2.064-0.359-3.071-0.119-0.538-0.646-0.875-1.191-0.761-0.539 0.119-0.881 0.652-0.762 1.193 0.193 0.875 0.299 1.774 0.313 2.671 0.008 0.479 0.010 0.957 0.006 1.436-0.004 0.552 0.439 1.003 0.992 1.008h0.008c0.549 0 0.996-0.442 1-0.992 0.004-0.494 0.003-0.988-0.005-1.482zM15.787 0.003c-4.373-0.084-8.393 1.552-11.393 4.554-2.893 2.894-4.449 6.741-4.385 10.831 0.007 0.472 0.004 0.943-0.010 1.414-0.016 0.552 0.42 1.012 0.973 1.028h0.027c0.539 0 0.984-0.429 1-0.972 0.014-0.5 0.017-1.001 0.010-1.502-0.056-3.543 1.293-6.877 3.799-9.385 2.611-2.615 6.181-4.023 9.947-3.967 4.668 0.068 9.054 2.389 11.734 6.207 0.32 0.452 0.945 0.561 1.392 0.244 0.453-0.318 0.563-0.941 0.244-1.393-3.047-4.343-8.033-6.981-13.339-7.059zM15.867 5.311c-0.057-0.001-0.124-0.002-0.191-0.002-0.934 0-1.843 0.112-2.712 0.325l0.078-0.016c-0.537 0.127-0.869 0.666-0.742 1.204 0.127 0.536 0.672 0.867 1.203 0.741 0.758-0.179 1.568-0.266 2.332-0.252 5.174 0.076 9.445 4.223 9.523 9.243 0.039 2.478-0.084 4.974-0.363 7.419-0.063 0.549 0.332 1.044 0.881 1.106 0.039 0.005 0.076 0.007 0.115 0.007 0.5 0 0.934-0.376 0.992-0.887 0.289-2.529 0.414-5.112 0.375-7.676-0.093-6.090-5.249-11.12-11.491-11.212z"></path>
</svg>
