<!-- Generated by IcoMoon.io -->
<svg version="1.1" xmlns="http://www.w3.org/2000/svg" width="28" height="32" viewBox="0 0 28 32">
<title>fire-extinguisher</title>
<path d="M26.852 2.011l-10 1.5c-0.966 0.145-0.852 1.14-0.852 1.489h-3.837c1.094-2.302-0.581-5-3.163-5-2.696 0-4.352 2.913-3.048 5.219-2.681 0.602-4.692 2.442-5.88 5.41-0.205 0.513 0.044 1.095 0.557 1.3s1.095-0.045 1.3-0.557c1.983-4.957 5.598-4.371 9.071-4.371v2.085c-2.848 0.485-5 3.008-5 5.991v15.425c0 0.828 0.672 1.5 1.5 1.5h9c0.828 0 1.5-0.672 1.5-1.5v-15.5c0-2.973-2.162-5.44-5-5.917v-2.083h3c0 0.306-0.136 1.341 0.852 1.489l10 1.5c0.603 0.090 1.148-0.376 1.148-0.989v-6c0-0.611-0.543-1.079-1.148-0.989zM16 15v15h-8v-14.925c0-2.231 1.781-4.059 3.969-4.075l0.031-0c2.206 0 4 1.794 4 4zM9 2c0.827 0 1.5 0.673 1.5 1.5s-0.673 1.5-1.5 1.5-1.5-0.673-1.5-1.5 0.673-1.5 1.5-1.5zM26 7.839l-8-1.2v-1.278l8-1.2v3.678z"></path>
</svg>
