<!-- Generated by IcoMoon.io -->
<svg version="1.1" xmlns="http://www.w3.org/2000/svg" width="40" height="32" viewBox="0 0 40 32">
<title>fireplace</title>
<path d="M39 0h-38c-0.55 0-1 0.45-1 1v6c0 0.55 0.45 1 1 1h1v22c0 1.106 0.894 2 2 2h4c1.106 0 2-0.894 2-2v-7.569c0-5.225 3.819-9.887 9.019-10.381 0.331-0.031 0.656-0.050 0.981-0.050 5.525 0 10 4.475 10 10v8c0 1.106 0.894 2 2 2h4c1.106 0 2-0.894 2-2v-22h1c0.55 0 1-0.45 1-1v-6c0-0.55-0.45-1-1-1zM36 30h-4v-8c0-6.619-5.381-12-12-12-0.387 0-0.775 0.019-1.175 0.056-6.069 0.581-10.825 6.013-10.825 12.375v7.569h-4v-22h32v22zM38 6h-36v-4h36v4zM21.394 19.475c-0.875-1.175-1.962-2.363-3.194-3.475-3.156 2.85-5.4 6.563-5.4 8.8 0 3.975 3.225 7.2 7.2 7.2s7.2-3.225 7.2-7.2c0-1.663-1.669-5.1-4-7.2-0.669 0.6-1.275 1.238-1.806 1.875zM20 30c-2.869 0-5.2-2.331-5.2-5.2 0-1.225 1.275-3.681 3.406-6 0.581 0.613 1.113 1.244 1.581 1.869l1.512 2.025 1.625-1.931 0.225-0.262c1.281 1.681 2.050 3.587 2.050 4.3 0 2.869-2.331 5.2-5.2 5.2z"></path>
</svg>
