<!-- Generated by IcoMoon.io -->
<svg version="1.1" xmlns="http://www.w3.org/2000/svg" width="40" height="32" viewBox="0 0 40 32">
<title>fire-smoke-solid</title>
<path d="M33 18c-2.319 0-4.356 1.144-5.631 2.881-1.219-2.869-4.056-4.881-7.369-4.881s-6.15 2.012-7.369 4.881c-1.275-1.738-3.313-2.881-5.631-2.881-3.869 0-7 3.131-7 7s3.131 7 7 7h26c3.869 0 7-3.131 7-7s-3.131-7-7-7zM12.231 17.7c0.606-0.75 1.331-1.394 2.119-1.938-0.294-0.725-0.463-1.544-0.463-2.456 0-1.863 1.137-3.506 3.4-6.319 0.325 0.388 4.613 6.056 4.613 6.056l2.738-3.231c0.194 0.331 0.369 0.656 0.525 0.963 0.775 1.531 0.869 3.319 0.319 4.862 0.856 0.563 1.631 1.25 2.281 2.050 0.844-0.606 1.788-1.044 2.781-1.331 0.288-0.969 0.45-1.994 0.45-3.056 0-2.519-2.55-7.713-6.113-10.887-1.019 0.913-1.944 1.869-2.762 2.838-1.331-1.769-2.988-3.569-4.869-5.25-4.825 4.306-8.25 9.925-8.25 13.313 0 1.063 0.162 2.088 0.45 3.056 0.994 0.288 1.938 0.725 2.781 1.331z"></path>
</svg>
