<!-- Generated by IcoMoon.io -->
<svg version="1.1" xmlns="http://www.w3.org/2000/svg" width="28" height="32" viewBox="0 0 28 32">
<title>fire-alt-solid</title>
<path d="M20.223 3.2c-1.3 1.206-2.474 2.474-3.514 3.748-1.704-2.347-3.816-4.728-6.209-6.948-6.141 5.698-10.5 13.123-10.5 17.6 0 7.953 6.268 14.4 14 14.4s14-6.447 14-14.4c0-3.329-3.249-10.196-7.777-14.4zM19.006 24.491c-1.354 0.948-3.023 1.509-4.827 1.509-4.509 0-8.179-2.984-8.179-7.828 0-2.413 1.519-4.539 4.549-8.172 0.433 0.499 6.177 7.834 6.177 7.834l3.664-4.18c0.259 0.428 0.494 0.847 0.704 1.248 1.709 3.262 0.988 7.436-2.089 9.589z"></path>
</svg>
