<!-- Generated by IcoMoon.io -->
<svg version="1.1" xmlns="http://www.w3.org/2000/svg" width="40" height="32" viewBox="0 0 40 32">
<title>fireplace-solid</title>
<path d="M2 32h6v-8c0-6.625 5.375-12 12-12s12 5.375 12 12v8h6v-24h-36v24zM21.394 19.475c-0.875-1.175-1.962-2.363-3.194-3.475-3.156 2.85-5.4 6.563-5.4 8.8 0 3.975 3.225 7.2 7.2 7.2s7.2-3.225 7.2-7.2c0-1.663-1.669-5.1-4-7.2-0.669 0.6-1.275 1.238-1.806 1.875zM22.363 28.031c-0.663 0.481-1.481 0.769-2.363 0.769-2.206 0-4-1.525-4-4 0-1.231 0.744-2.319 2.225-4.175 0.212 0.256 3.019 4.006 3.019 4.006l1.794-2.137c0.125 0.219 0.244 0.431 0.344 0.637 0.837 1.663 0.488 3.8-1.019 4.9zM39 0h-38c-0.55 0-1 0.45-1 1v4c0 0.55 0.45 1 1 1h38c0.55 0 1-0.45 1-1v-4c0-0.55-0.45-1-1-1z"></path>
</svg>
