<!-- Generated by IcoMoon.io -->
<svg version="1.1" xmlns="http://www.w3.org/2000/svg" width="28" height="32" viewBox="0 0 28 32">
<title>fire-extinguisher-solid</title>
<path d="M27.127 1.646l-10.5 1.75c-0.708 0.118-0.627 0.842-0.627 1.104h-3.646c0.668-2.243-1.014-4.5-3.354-4.5-2.465 0-4.148 2.48-3.264 4.763-3.252 0.816-4.711 3.388-5.628 5.68-0.308 0.769 0.066 1.642 0.836 1.95s1.642-0.067 1.95-0.836c1.798-4.495 3.792-4.057 7.607-4.057v1.692c-2.596 0.679-4.5 3.077-4.5 5.883v15.425c0 0.828 0.672 1.5 1.5 1.5h9c0.828 0 1.5-0.672 1.5-1.5v-15.5c0-2.796-1.912-5.145-4.5-5.811v-1.689h2.5c0 0.186-0.106 0.982 0.627 1.104l10.5 1.75c0.457 0.076 0.873-0.276 0.873-0.74v-7.229c0-0.464-0.416-0.816-0.873-0.74zM9 4.5c-0.551 0-1-0.449-1-1s0.449-1 1-1 1 0.449 1 1-0.449 1-1 1z"></path>
</svg>
