<!-- Generated by IcoMoon.io -->
<svg version="1.1" xmlns="http://www.w3.org/2000/svg" width="28" height="32" viewBox="0 0 28 32">
<title>fire-alt</title>
<path d="M28 17.6c0-3.329-3.249-10.196-7.777-14.4-1.3 1.206-2.474 2.474-3.514 3.748-1.704-2.347-3.816-4.728-6.209-6.948-6.141 5.698-10.5 13.123-10.5 17.6 0 7.953 6.268 14.4 14 14.4 0.033 0 0.065-0.005 0.099-0.005 0.020 0 0.037 0.005 0.057 0.005 0.117 0 0.232-0.022 0.349-0.026 7.496-0.276 13.495-6.596 13.495-14.374zM2 17.6c0-3.139 2.969-9.215 8.503-14.818 1.711 1.716 3.277 3.537 4.587 5.342l1.526 2.101 1.642-2.012c0.654-0.799 1.287-1.51 1.948-2.196l-0.011 0.011c3.538 3.961 5.806 9.33 5.806 11.571 0 3.418-1.346 6.517-3.518 8.763 0.782-2.206 0.68-4.745-0.502-7.001-0.272-0.52-0.496-0.912-0.732-1.297l0.055 0.097-1.414-2.338-3.418 3.898c-1.558-1.986-3.707-4.719-3.981-5.034l-1.541-1.774-1.505 1.804c-2.685 3.218-4.445 5.544-4.445 8.431 0 1.189 0.226 2.291 0.611 3.299-2.225-2.252-3.611-5.386-3.611-8.85zM14.096 29.995c-3.918-0.027-7.096-2.628-7.096-6.844 0-2.111 1.329-3.972 3.981-7.151 0.379 0.436 5.405 6.855 5.405 6.855l3.206-3.657c0.163 0.259 0.368 0.617 0.562 0.98l0.055 0.112c1.495 2.854 0.864 6.506-1.829 8.39-1.101 0.771-2.446 1.232-3.898 1.296-0.129 0.004-0.256 0.018-0.386 0.019z"></path>
</svg>
