<!-- Generated by IcoMoon.io -->
<svg version="1.1" xmlns="http://www.w3.org/2000/svg" width="24" height="32" viewBox="0 0 24 32">
<title>fire</title>
<path d="M13.5 1.501c0-1.488-1.947-2.069-2.759-0.815-5.956 9.205 1.759 14.235 1.759 17.314 0 1.379-1.121 2.5-2.5 2.5s-2.5-1.121-2.5-2.5v-6.617c0-1.212-1.366-1.922-2.358-1.23-3.22 2.246-5.142 5.927-5.142 9.847 0 6.617 5.383 12 12 12s12-5.383 12-12c0-10.643-10.5-12.053-10.5-18.499zM12 30c-5.514 0-10-4.486-10-10 0-2.934 1.292-6.109 3.5-8v6c0 2.481 2.019 4.5 4.5 4.5s4.5-2.019 4.5-4.5c0-4.069-7-8-2.838-15.5 1.338 7.5 10.338 8.456 10.338 17.5 0 5.514-4.486 10-10 10z"></path>
</svg>
