<!-- Generated by IcoMoon.io -->
<svg version="1.1" xmlns="http://www.w3.org/2000/svg" width="36" height="32" viewBox="0 0 36 32">
<title>fire-smoke</title>
<path d="M29 18c-1.594 0-3.125 0.556-4.363 1.55-1.462-2.194-3.944-3.55-6.637-3.55s-5.175 1.356-6.637 3.55c-1.238-0.994-2.769-1.55-4.362-1.55-3.862 0-7 3.137-7 7s3.138 7 7 7h22c3.862 0 7-3.137 7-7s-3.138-7-7-7zM29 30h-22c-2.756 0-5-2.244-5-5s2.244-5 5-5c1.469 0 2.863 0.669 3.825 1.825l1.031 1.244 0.65-1.481c0.969-2.175 3.119-3.587 5.494-3.587s4.525 1.413 5.488 3.587l0.65 1.481 1.031-1.244c0.962-1.163 2.363-1.825 3.825-1.825 2.756 0 5 2.244 5 5s-2.238 5-4.994 5zM25.056 16.925c0.106-0.050 0.212-0.087 0.319-0.137 0.456-1.806 0.275-3.794-0.606-5.525-0.2-0.394-0.425-0.813-0.675-1.231l-4.094 1.969s-4.881-5.088-5.294-5.581c-2.894 3.587-4.344 5.688-4.344 8.069 0 0.844 0.144 1.613 0.35 2.337 0.075 0.038 0.156 0.063 0.231 0.1 0.469-0.462 0.988-0.863 1.537-1.225-0.069-0.381-0.113-0.775-0.113-1.213 0-1.356 0.775-2.769 2.475-5 1.313 1.381 3.013 3.156 3.719 3.894l1.006 1.044 1.306-0.631 2.35-1.131c0.4 1 0.494 2.050 0.35 3.044 0.525 0.363 1.025 0.762 1.481 1.219zM7 16c0.394 0 0.775 0.031 1.162 0.081-0.081-0.512-0.162-1.025-0.162-1.563 0-2.494 2.575-7.369 6.963-11.738 0.956 1.056 1.8 2.2 2.625 3.319 0.275 0.375 0.544 0.744 0.819 1.1l1.506 1.994 1.619-1.906c0.456-0.537 1.087-1.206 1.769-1.875 2.875 3.175 4.706 7.35 4.706 9.1 0 0.537-0.075 1.050-0.163 1.563 0.381-0.050 0.769-0.081 1.163-0.081 0.3 0 0.587 0.063 0.881 0.087 0.069-0.512 0.119-1.037 0.119-1.569 0-2.744-2.788-8.412-6.669-11.881-1.119 1.006-2.45 2.319-3.337 3.369-1.462-1.938-2.95-4.169-5-6-5.262 4.7-9 10.825-9 14.519 0 0.531 0.050 1.056 0.119 1.569 0.294-0.025 0.581-0.088 0.881-0.088z"></path>
</svg>
