<!-- Generated by IcoMoon.io -->
<svg version="1.1" xmlns="http://www.w3.org/2000/svg" width="36" height="32" viewBox="0 0 36 32">
<title>first-aid</title>
<path d="M12.5 18h3.5v3.5c0 0.275 0.225 0.5 0.5 0.5h3c0.275 0 0.5-0.225 0.5-0.5v-3.5h3.5c0.275 0 0.5-0.225 0.5-0.5v-3c0-0.275-0.225-0.5-0.5-0.5h-3.5v-3.5c0-0.275-0.225-0.5-0.5-0.5h-3c-0.275 0-0.5 0.225-0.5 0.5v3.5h-3.5c-0.275 0-0.5 0.225-0.5 0.5v3c0 0.275 0.225 0.5 0.5 0.5zM33 2h-30c-1.656 0-3 1.344-3 3v22c0 1.656 1.344 3 3 3h30c1.656 0 3-1.344 3-3v-22c0-1.656-1.344-3-3-3zM6 28h-3c-0.55 0-1-0.45-1-1v-22c0-0.55 0.45-1 1-1h3v24zM28 28h-20v-24h20v24zM34 27c0 0.55-0.45 1-1 1h-3v-24h3c0.55 0 1 0.45 1 1v22z"></path>
</svg>
