<!-- Generated by IcoMoon.io -->
<svg version="1.1" xmlns="http://www.w3.org/2000/svg" width="36" height="32" viewBox="0 0 36 32">
<title>first-aid-solid</title>
<path d="M0 5v22c0 1.656 1.344 3 3 3h3v-28h-3c-1.656 0-3 1.344-3 3zM8 30h20v-28h-20v28zM12 14.5c0-0.275 0.225-0.5 0.5-0.5h3.5v-3.5c0-0.275 0.225-0.5 0.5-0.5h3c0.275 0 0.5 0.225 0.5 0.5v3.5h3.5c0.275 0 0.5 0.225 0.5 0.5v3c0 0.275-0.225 0.5-0.5 0.5h-3.5v3.5c0 0.275-0.225 0.5-0.5 0.5h-3c-0.275 0-0.5-0.225-0.5-0.5v-3.5h-3.5c-0.275 0-0.5-0.225-0.5-0.5v-3zM33 2h-3v28h3c1.656 0 3-1.344 3-3v-22c0-1.656-1.344-3-3-3z"></path>
</svg>
