<!-- Generated by IcoMoon.io -->
<svg version="1.1" xmlns="http://www.w3.org/2000/svg" width="40" height="32" viewBox="0 0 40 32">
<title>fish-cooked-solid</title>
<path d="M22.715 4c-6.25 0-11.704 4.107-14.741 7.625l-6.063-4.954c-0.844-0.691-2.099 0.043-1.887 1.097l1.679 8.232-1.68 8.233c-0.212 1.054 1.042 1.787 1.884 1.099l6.063-4.954c3.039 3.514 8.496 7.621 14.744 7.621 9.546 0 17.285-9.6 17.285-12s-7.739-12-17.285-12zM15.354 16.353l-0.707-0.707c-0.090-0.090-0.146-0.215-0.146-0.353s0.056-0.263 0.146-0.353l5.291-5.293c0.090-0.091 0.216-0.147 0.354-0.147s0.263 0.056 0.354 0.147v0l0.707 0.707c0.091 0.091 0.147 0.216 0.147 0.354s-0.056 0.263-0.147 0.354v0l-5.289 5.293c-0.091 0.091-0.216 0.147-0.354 0.147s-0.264-0.056-0.354-0.147l-0-0zM19.061 21.353c-0.090 0.090-0.215 0.146-0.353 0.146s-0.263-0.056-0.353-0.146l-0.707-0.707c-0.090-0.090-0.146-0.215-0.146-0.353s0.056-0.263 0.146-0.353l9.291-9.293c0.090-0.091 0.216-0.147 0.354-0.147s0.263 0.056 0.354 0.147v0l0.707 0.707c0.091 0.091 0.147 0.216 0.147 0.354s-0.056 0.263-0.147 0.354v0zM31.354 17.063l-5.291 5.291c-0.090 0.090-0.215 0.146-0.353 0.146s-0.263-0.056-0.353-0.146l-0.707-0.707c-0.090-0.090-0.146-0.215-0.146-0.353s0.056-0.263 0.146-0.353l5.289-5.293c0.090-0.091 0.216-0.147 0.354-0.147s0.263 0.056 0.354 0.147v0l0.707 0.707c0.092 0.091 0.149 0.217 0.149 0.356s-0.056 0.263-0.147 0.354v0z"></path>
</svg>
