<!-- Generated by IcoMoon.io -->
<svg version="1.1" xmlns="http://www.w3.org/2000/svg" width="36" height="32" viewBox="0 0 36 32">
<title>fish-solid</title>
<path d="M20.444 6c-5.623 0-10.534 3.423-13.267 6.352l-5.458-4.128c-0.758-0.574-1.89 0.037-1.696 0.916l1.511 6.86-1.512 6.861c-0.194 0.879 0.938 1.489 1.696 0.916l5.458-4.128c2.733 2.928 7.644 6.351 13.268 6.351 8.591 0 15.556-8 15.556-10s-6.965-10-15.556-10zM25.908 17.5c-0.828 0-1.5-0.672-1.5-1.5s0.672-1.5 1.5-1.5c0.829 0 1.5 0.671 1.5 1.5s-0.672 1.5-1.5 1.5z"></path>
</svg>
