<!-- Generated by IcoMoon.io -->
<svg version="1.1" xmlns="http://www.w3.org/2000/svg" width="40" height="32" viewBox="0 0 40 32">
<title>fish</title>
<path d="M22.715 5c-6.247 0-11.704 3.766-14.741 6.987l-6.065-4.541c-0.228-0.171-0.486-0.246-0.738-0.246-0.678 0-1.304 0.549-1.147 1.254l1.681 7.547-1.68 7.546c-0.157 0.705 0.47 1.254 1.147 1.254 0.251 0 0.509-0.076 0.738-0.246l6.065-4.541c3.036 3.222 8.493 6.988 14.741 6.988 9.546 0 17.285-8.8 17.285-11s-7.739-11-17.285-11zM22.715 25c-5.376 0-10.388-3.285-13.286-6.359l-1.225-1.299-5.7 4.268 1.249-5.609-0.097-0.434-1.152-5.175 5.7 4.268 1.225-1.299c2.898-3.075 7.909-6.36 13.286-6.36 7.848 0 14.526 6.958 15.254 9-0.727 2.042-7.406 9-15.254 9zM28 14.5c-0.828 0-1.5 0.671-1.5 1.5s0.672 1.5 1.5 1.5 1.5-0.672 1.5-1.5c0-0.829-0.672-1.5-1.5-1.5z"></path>
</svg>
