<!-- Generated by IcoMoon.io -->
<svg version="1.1" xmlns="http://www.w3.org/2000/svg" width="24" height="32" viewBox="0 0 24 32">
<title>fist-raised</title>
<path d="M21.926 10.496c0.029-0.164 0.074-0.324 0.074-0.496v-5c0-1.657-1.343-3-3-3h-1c-0.395 0-0.77 0.081-1.116 0.22-0.346-1.275-1.502-2.22-2.884-2.22h-1c-1.383 0-2.539 0.945-2.884 2.22-0.346-0.139-0.721-0.22-1.116-0.22h-1c-1.383 0-2.539 0.945-2.884 2.22-0.346-0.139-0.721-0.22-1.116-0.22h-1c-1.657 0-3 1.343-3 3v11.686c0 2.386 0.948 4.674 2.634 6.361l1.366 1.367v5.086c0 0.276 0.224 0.5 0.5 0.5h1c0.276 0 0.5-0.224 0.5-0.5v-5.914l-1.951-1.952c-1.266-1.266-2.049-3.015-2.049-4.947 0 0 0-0 0-0v0-2.871c0.314 0.112 0.647 0.184 1 0.184h1c0.771 0 1.468-0.301 2-0.78 0.532 0.48 1.229 0.78 2 0.78h1c0.822 0 1.568-0.334 2.111-0.872 0.015 0.019 0.584 0.914 1.914 1.478-1.229 0.987-2.12 2.234-3.579 4.423-0.053 0.078-0.084 0.174-0.084 0.277 0 0.173 0.088 0.325 0.221 0.415l0.002 0.001 0.832 0.555c0.078 0.053 0.174 0.084 0.277 0.084 0.173 0 0.325-0.088 0.415-0.221l0.001-0.002 0.394-0.592c1.994-2.992 3.223-4.393 6.007-4.535 0.266-0.014 0.489-0.229 0.489-0.496v-1.016c0-0.276-0.224-0.5-0.5-0.5h-2.542c-1.635 0-2.96-1.326-2.96-2.96v-0.046c0-0.549 0.445-0.994 0.994-0.994h5.009c2.209 0 4 1.791 4 4v5.52c0 1.588-0.631 3.111-1.754 4.234l-2.246 2.246v4.5c0 0.276 0.224 0.5 0.5 0.5h1c0.276 0 0.5-0.224 0.5-0.5v-3.672l1.657-1.657c1.5-1.5 2.343-3.535 2.343-5.657v-5.514c0-1.804-0.813-3.404-2.074-4.504zM5 13c0 0.553-0.447 1-1 1h-1c-0.553 0-1-0.447-1-1v-6c0-0.553 0.447-1 1-1h1c0.553 0 1 0.447 1 1v6zM10 13c0 0.553-0.447 1-1 1h-1c-0.553 0-1-0.447-1-1v-8c0-0.553 0.447-1 1-1h1c0.553 0 1 0.447 1 1v8zM15 9h-2.002c-0.349 0-0.682 0.069-0.998 0.178v-6.178c0-0.553 0.447-1 1-1h1c0.553 0 1 0.447 1 1v6zM20 9.367c-0.628-0.223-1.295-0.367-2-0.367h-1v-4c0-0.553 0.448-1 1-1h1c0.552 0 1 0.447 1 1v4.367z"></path>
</svg>
