<!-- Generated by IcoMoon.io -->
<svg version="1.1" xmlns="http://www.w3.org/2000/svg" width="24" height="32" viewBox="0 0 24 32">
<title>fist-raised-solid</title>
<path d="M15.999 10v-9c0-0.552-0.447-1-1-1h-2c-0.553 0-1 0.448-1 1v9.183c0.314-0.111 0.646-0.183 0.998-0.183h3.002zM23.999 15.999c-0.001-2.209-1.791-3.999-3.999-3.999h-7.009c-0.549 0-0.994 0.442-0.994 0.991v0.035c0 1.642 1.331 2.974 2.973 2.974h2.204c0.605 0 0.825 0.224 0.825 0.5v1.012c0 0.268-0.224 0.486-0.492 0.5-2.783 0.142-4.010 1.544-6.003 4.534l-0.394 0.592c-0.091 0.135-0.243 0.223-0.416 0.223-0.103 0-0.199-0.031-0.279-0.085l0.002 0.001-0.832-0.555c-0.135-0.091-0.223-0.243-0.223-0.416 0-0.103 0.031-0.199 0.085-0.279l-0.001 0.002 0.394-0.592c0.983-1.475 1.887-2.704 2.957-3.63-1.079-0.344-1.963-1.133-2.429-2.153-0.412 0.213-0.873 0.345-1.367 0.345h-2c-0.771 0-1.468-0.301-2-0.78-0.532 0.48-1.229 0.781-2 0.781h-2c-0.353 0-0.686-0.072-1-0.184v4.871c0 2.122 0.843 4.156 2.343 5.657l1.656 1.657v4h15.999v-3.997l2.244-2.245c1.086-1.086 1.758-2.586 1.758-4.244 0-0 0-0 0-0.001v0l-0.001-5.514zM21.998 10.369v-7.369c0-0.553-0.448-1-1-1h-2c-0.552 0-1 0.447-1 1v7h2c0.705 0 1.371 0.144 2 0.369zM1 14h2c0.553 0 1-0.447 1-1v-8c0-0.553-0.447-1-1-1h-2c-0.552 0-1 0.447-1 1v8c0 0.553 0.448 1 1 1zM6.999 14h2c0.553 0 1-0.447 1-1v-10c0-0.553-0.447-1-1-1h-2c-0.553 0-1 0.447-1 1v10c0 0.553 0.447 1 1 1z"></path>
</svg>
