<!-- Generated by IcoMoon.io -->
<svg version="1.1" xmlns="http://www.w3.org/2000/svg" width="32" height="32" viewBox="0 0 32 32">
<title>flag-usa-solid</title>
<path d="M2 0c-1.106 0-2 0.894-2 2v29c0 0.55 0.45 1 1 1h2c0.55 0 1-0.45 1-1v-29c0-1.106-0.894-2-2-2zM18.744 18.975c-3.575-0.944-6.981-1.8-12.744 0.694v4.331c11.606-5.762 13.856 3.331 24.844-1.444 0.712-0.313 1.156-1.031 1.156-1.8v-2.25c-2.725 1.081-5.012 1.506-7.006 1.506-2.337-0.006-4.306-0.525-6.25-1.038zM18.744 12.975c-3.575-0.944-6.981-1.8-12.744 0.694v3.844c5.925-2.35 9.662-1.419 13.256-0.475 3.575 0.944 6.981 1.8 12.744-0.694v-3.844c-2.725 1.081-5.012 1.506-7.006 1.506-2.337 0-4.306-0.519-6.25-1.031zM19.337 5.106c3.238 0.975 6.087 1.813 12.663-1.256v-1.925c0-1.569-1.675-2.381-3.087-1.663-10.706 5.456-9.825-4.15-22.913 1.762v9.494c5.925-2.344 9.662-1.419 13.256-0.475 3.575 0.938 6.981 1.794 12.744-0.694v-4.306c-3.35 1.469-5.831 1.963-7.881 1.963s-3.688-0.487-5.356-0.994c-0.25-0.075-0.506-0.15-0.756-0.219v-2.075c0.45 0.125 0.894 0.256 1.331 0.388zM10 8.006c-0.55 0-1-0.444-1-1 0-0.55 0.45-1 1-1s1 0.444 1 1-0.45 1-1 1zM10 4.519c-0.55 0-1-0.444-1-1 0-0.55 0.45-1 1-1s1 0.444 1 1c0 0.55-0.45 1-1 1zM14 7.513c-0.55 0-1-0.444-1-1 0-0.55 0.45-1 1-1s1 0.444 1 1c0 0.55-0.45 1-1 1zM14 4.019c-0.55 0-1-0.444-1-1 0-0.55 0.45-1 1-1s1 0.444 1 1c0 0.55-0.45 1-1 1z"></path>
</svg>
