<!-- Generated by IcoMoon.io -->
<svg version="1.1" xmlns="http://www.w3.org/2000/svg" width="32" height="32" viewBox="0 0 32 32">
<title>flag-checkered-solid</title>
<path d="M15.2 11.869v4.256c1.631 0.369 3.081 0.975 4.6 1.394v-4.262c-1.625-0.363-3.087-0.969-4.6-1.387zM29.156 4.181c-2.144 0.994-4.781 1.994-7.313 1.994-3.344 0-6.113-2.175-10.325-2.175-1.563 0-2.956 0.275-4.25 0.75 0.175-0.456 0.256-0.95 0.225-1.475-0.112-1.775-1.569-3.2-3.35-3.275-2-0.081-3.644 1.519-3.644 3.5 0 1.188 0.594 2.237 1.5 2.869v24.131c0 0.831 0.669 1.5 1.5 1.5h1c0.831 0 1.5-0.669 1.5-1.5v-5.9c1.769-0.756 3.975-1.381 7.15-1.381 3.35 0 6.113 2.175 10.325 2.175 3.012 0 5.419-1.019 7.656-2.556 0.544-0.375 0.863-0.988 0.863-1.65v-15.194c0.006-1.456-1.512-2.425-2.837-1.813zM10.6 20.344c-1.613 0.169-3.125 0.512-4.6 1.038v-4.406c1.638-0.581 2.969-0.938 4.6-1.088zM29 11.938c-1.475 0.613-2.894 1.219-4.6 1.494v4.444c1.55-0.212 3.212-0.738 4.6-1.625v4.406c-1.569 1.006-3.031 1.544-4.6 1.694v-4.475c-1.688 0.231-2.994 0.094-4.6-0.35v4.212c-1.494-0.462-2.956-1.044-4.6-1.331v-4.281c-1.231-0.275-2.55-0.425-4.6-0.238v-4.375c-1.4 0.194-2.787 0.637-4.6 1.306v-4.406c2.075-0.763 3.131-1.237 4.6-1.375v4.475c1.688-0.231 3.025-0.081 4.6 0.356v-4.213c1.481 0.463 2.95 1.044 4.6 1.331v4.275c1.481 0.331 2.975 0.431 4.6 0.169v-4.494c1.688-0.3 3.269-0.85 4.6-1.406z"></path>
</svg>
