<!-- Generated by IcoMoon.io -->
<svg version="1.1" xmlns="http://www.w3.org/2000/svg" width="32" height="32" viewBox="0 0 32 32">
<title>flag-solid</title>
<path d="M21.848 6.174c-3.349 0-6.115-2.174-10.326-2.174-1.56 0-2.957 0.274-4.253 0.751 0.146-0.371 0.231-0.801 0.231-1.25 0-0.078-0.003-0.156-0.008-0.233l0.001 0.010c-0.111-1.777-1.568-3.203-3.347-3.275-2-0.081-3.646 1.516-3.646 3.497 0 1.189 0.594 2.239 1.5 2.872v24.128c0 0.828 0.672 1.5 1.5 1.5h1c0.828 0 1.5-0.672 1.5-1.5v-5.9c1.769-0.754 3.974-1.383 7.152-1.383 3.349 0 6.115 2.174 10.326 2.174 3.011 0 5.417-1.018 7.657-2.554 0.543-0.372 0.865-0.989 0.865-1.647v-15.194c0-1.462-1.517-2.429-2.843-1.813-2.146 0.997-4.778 1.991-7.309 1.991z"></path>
</svg>
