<!-- Generated by IcoMoon.io -->
<svg version="1.1" xmlns="http://www.w3.org/2000/svg" width="32" height="32" viewBox="0 0 32 32">
<title>flag-alt</title>
<path d="M29.531 0c-0.438 0-0.894 0.094-1.325 0.287-3.156 1.419-5.488 1.894-7.444 1.894-4.131 0-6.531-2.156-11.3-2.156-1.975 0-4.388 0.406-7.463 1.45v-0.475c0-0.55-0.45-1-1-1s-1 0.45-1 1v30.5c0 0.275 0.225 0.5 0.5 0.5h1c0.275 0 0.5-0.225 0.5-0.5v-6.275c2.763-0.988 5.1-1.375 7.156-1.375 5.075 0 8.613 2.15 13.694 2.15 2.206 0 4.694-0.406 7.731-1.563 0.875-0.337 1.425-1.119 1.425-1.95v-20.4c-0.006-1.275-1.169-2.087-2.475-2.087zM22.844 24c-4.725 0-8.313-2.15-13.694-2.15-2.294 0-4.65 0.406-7.156 1.238v-19.512c2.875-1.044 5.331-1.55 7.463-1.55 4.344 0 6.775 2.156 11.3 2.156 2.488 0 5.113-0.656 8.256-2.069 0.587-0.262 0.981-0.031 0.981 0.35v20.006c-0.050 0.156-3.675 1.531-7.15 1.531z"></path>
</svg>
