<!-- Generated by IcoMoon.io -->
<svg version="1.1" xmlns="http://www.w3.org/2000/svg" width="32" height="32" viewBox="0 0 32 32">
<title>flag</title>
<path d="M21.522 4.667c-3.538 0-6.369-2.167-10.739-2.167-1.78 0-3.355 0.333-4.81 0.903 0.25-1.859-1.234-3.474-3.093-3.401-1.534 0.060-2.79 1.294-2.875 2.827-0.076 1.379 0.78 2.569 1.995 2.999v25.421c0 0.414 0.336 0.75 0.75 0.75h0.5c0.414 0 0.75-0.336 0.75-0.75v-7.6c1.964-0.909 4.504-1.817 8.478-1.817 3.538 0 6.369 2.167 10.739 2.167 3.207 0 5.746-1.077 8.125-2.685 0.412-0.278 0.657-0.744 0.657-1.241v-16.354c0-1.097-1.138-1.822-2.133-1.36-2.299 1.068-5.391 2.307-8.346 2.307zM3 1.75c0.689 0 1.25 0.561 1.25 1.25s-0.561 1.25-1.25 1.25-1.25-0.561-1.25-1.25 0.561-1.25 1.25-1.25zM30 19.833c-1.445 1.044-4.034 2.167-6.783 2.167-3.976 0-6.765-2.167-10.739-2.167-2.876 0-6.392 0.637-8.478 1.625v-14.792c1.445-1.043 4.034-2.167 6.783-2.167 3.976 0 6.765 2.167 10.739 2.167 2.87 0 6.389-1.176 8.478-2.167v15.333z"></path>
</svg>
