<!-- Generated by IcoMoon.io -->
<svg version="1.1" xmlns="http://www.w3.org/2000/svg" width="32" height="32" viewBox="0 0 32 32">
<title>flag-checkered</title>
<path d="M29 6.019c-1.406 0.556-3.106 1.087-4.8 1.388v4.537c1.675-0.275 3.231-0.863 4.8-1.481zM29 19.3v-4.444c-1.050 0.662-2.925 1.344-4.8 1.594v4.5c1.919-0.2 3.663-0.931 4.8-1.65zM5 11.644c1.013-0.637 2.931-1.294 4.8-1.563v-4.531c-1.919 0.2-3.662 0.931-4.8 1.65zM5 19.988c1.444-0.481 3.144-0.819 4.8-1v-4.481c-1.625 0.169-3.25 0.525-4.8 1.037zM19.4 16.044c-1.569-0.431-3.1-1.037-4.8-1.387v4.356c1.731 0.294 3.25 0.875 4.8 1.337v-4.306c1.719 0.475 3.106 0.631 4.8 0.406v-4.506c-1.525 0.25-3.038 0.225-4.8-0.156zM29.869 2.362c-2.3 1.069-5.394 2.306-8.344 2.306-3.544 0-6.375-2.169-10.744-2.169-1.781 0-3.356 0.331-4.813 0.9 0.256-1.856-1.231-3.469-3.087-3.4-1.538 0.063-2.794 1.3-2.875 2.831-0.075 1.381 0.781 2.569 1.994 3v25.419c0 0.413 0.337 0.75 0.75 0.75h0.5c0.413 0 0.75-0.337 0.75-0.75v-7.6c1.963-0.906 4.506-1.819 8.481-1.819 3.537 0 6.369 2.169 10.738 2.169 3.206 0 5.744-1.075 8.125-2.688 0.413-0.281 0.656-0.744 0.656-1.244v-16.35c0-1.094-1.137-1.819-2.131-1.356zM3 4.25c-0.688 0-1.25-0.563-1.25-1.25s0.563-1.25 1.25-1.25 1.25 0.563 1.25 1.25-0.563 1.25-1.25 1.25zM30 19.831c-1.444 1.044-4.031 2.169-6.781 2.169-3.975 0-6.762-2.169-10.738-2.169-2.875 0-6.394 0.637-8.481 1.625v-14.787c1.444-1.044 4.031-2.169 6.781-2.169 3.975 0 6.762 2.169 10.738 2.169 2.869 0 6.387-1.175 8.481-2.169zM19.4 7.481c-1.731-0.294-3.269-0.888-4.8-1.337v4.244c1.581 0.419 3.1 1.025 4.8 1.4zM9.8 10.075v4.431c2.137-0.225 3.512-0.106 4.8 0.156v-4.275c-1.856-0.488-3.206-0.544-4.8-0.313z"></path>
</svg>
