<!-- Generated by IcoMoon.io -->
<svg version="1.1" xmlns="http://www.w3.org/2000/svg" width="32" height="32" viewBox="0 0 32 32">
<title>flag-usa</title>
<path d="M29.531 0c-0.438 0-0.894 0.094-1.325 0.287-3.156 1.419-5.488 1.894-7.444 1.894-4.131 0-6.531-2.156-11.3-2.156-1.975 0-4.388 0.406-7.463 1.45v-0.475c0-0.55-0.45-1-1-1s-1 0.45-1 1v30.5c0 0.275 0.225 0.5 0.5 0.5h1c0.275 0 0.5-0.225 0.5-0.5v-6.275c2.763-0.988 5.1-1.375 7.156-1.375 5.075 0 8.613 2.15 13.694 2.15 2.206 0 4.694-0.406 7.731-1.563 0.875-0.337 1.425-1.119 1.425-1.95v-20.4c-0.006-1.275-1.169-2.087-2.475-2.087zM16 3.394c3.644 1.094 7.119 1.362 13.019-1.281 0.587-0.262 0.981-0.031 0.981 0.35v3.275c-6.175 2.606-9.575 1.769-14 1.006v-3.35zM16 8.769c2.156 0.381 4.012 0.75 6.175 0.75 2.2 0 4.738-0.438 7.825-1.644v3.85c-6.469 2.088-10.175 1.15-14 0.25v-3.206zM2 3.575c2.875-1.044 5.331-1.55 7.463-1.55 1.731 0 3.156 0.344 4.537 0.756v8.75c-3.194-0.65-6.787-0.925-12 0.65v-8.606zM2 14.269c6.287-2.025 9.944-1.2 13.775-0.294 3.594 0.85 7.513 1.875 14.231-0.15v3.406c-6.281 2.025-9.938 1.2-13.775 0.294-3.813-0.9-7.781-1.787-14.231 0.156v-3.412zM22.844 24c-4.725 0-8.313-2.15-13.694-2.15-2.294 0-4.65 0.406-7.156 1.238v-3.319c6.287-2.025 9.938-1.2 13.769-0.294 3.675 0.863 7.531 1.869 14.231-0.15v3.144c-0.050 0.156-3.675 1.531-7.15 1.531zM6 4c-0.55 0-1 0.45-1 1s0.45 1 1 1 1-0.45 1-1-0.45-1-1-1zM10.5 6c0.55 0 1-0.45 1-1s-0.45-1-1-1-1 0.45-1 1 0.45 1 1 1zM6 7.5c-0.55 0-1 0.45-1 1s0.45 1 1 1 1-0.45 1-1-0.45-1-1-1zM10.5 9.5c0.55 0 1-0.45 1-1s-0.45-1-1-1-1 0.45-1 1 0.45 1 1 1z"></path>
</svg>
