<!-- Generated by IcoMoon.io -->
<svg version="1.1" xmlns="http://www.w3.org/2000/svg" width="24" height="32" viewBox="0 0 24 32">
<title>flame-solid</title>
<path d="M12 0c-7.019 6.333-12 13.807-12 18.784 0 7.781 4.934 13.216 12 13.216s12-5.434 12-13.216c0-4.997-5.014-12.481-12-18.784zM12 28c-4.411 0-8-3.306-8-7.368 0-2.758 1.615-4.469 2.146-4.985 0.195-0.195 0.512-0.195 0.707 0 0.090 0.090 0.146 0.215 0.146 0.353 0 0 0 0.001 0 0.001v-0 2.5c0 1.933 1.567 3.5 3.5 3.5s3.5-1.567 3.5-3.5c0-4.5-7.040-4.048-2.464-10.271 0.181-0.246 0.467-0.26 0.661-0.198 0.101 0.033 0.336 0.14 0.336 0.424 0 2.097 1.566 3.436 3.223 4.852 2.086 1.784 4.244 3.627 4.244 7.326 0.001 4.061-3.588 7.367-7.999 7.367z"></path>
</svg>
