<!-- Generated by IcoMoon.io -->
<svg version="1.1" xmlns="http://www.w3.org/2000/svg" width="24" height="32" viewBox="0 0 24 32">
<title>flame</title>
<path d="M12 0c-7.019 6.333-12 13.807-12 18.784 0 7.781 4.934 13.216 12 13.216s12-5.434 12-13.216c0-4.997-5.014-12.481-12-18.784zM12 30c-5.981 0-10-4.508-10-11.216 0-3.942 3.964-10.255 10-16.052 6.036 5.797 10 12.11 10 16.052 0 6.708-4.019 11.216-10 11.216zM15.756 13.306c-1.658-1.416-3.223-2.755-3.223-4.852 0-0.284-0.236-0.391-0.336-0.424-0.060-0.019-0.128-0.031-0.2-0.031-0.161 0-0.337 0.059-0.461 0.229-4.576 6.223 2.464 5.771 2.464 10.271 0 1.933-1.567 3.5-3.5 3.5s-3.5-1.567-3.5-3.5v-2.5c0-0.128-0.049-0.256-0.146-0.354s-0.226-0.146-0.354-0.146-0.256 0.049-0.354 0.146c-0.531 0.516-2.146 2.228-2.146 4.986 0 4.063 3.589 7.368 8 7.368s8-3.306 8-7.368c0-3.698-2.157-5.542-4.244-7.326zM12 26c-2.829 0-5.206-1.76-5.836-4.121 1.008 1.29 2.577 2.121 4.336 2.121 3.033 0 5.5-2.468 5.5-5.5 0-1.291-0.38-2.303-0.907-3.126 1.668 1.456 2.907 2.786 2.907 5.258 0 2.96-2.691 5.368-6 5.368z"></path>
</svg>
