<!-- Generated by IcoMoon.io -->
<svg version="1.1" xmlns="http://www.w3.org/2000/svg" width="28" height="32" viewBox="0 0 28 32">
<title>flask-solid</title>
<path d="M27.325 25.219l-7.325-11.781v-9.438h0.5c0.831 0 1.5-0.669 1.5-1.5v-1c0-0.831-0.669-1.5-1.5-1.5h-13c-0.831 0-1.5 0.669-1.5 1.5v1c0 0.831 0.669 1.5 1.5 1.5h0.5v9.438l-7.325 11.781c-1.831 2.944 0.281 6.781 3.756 6.781h19.138c3.481 0 5.587-3.844 3.756-6.781zM8.619 20l3.013-4.85c0.231-0.325 0.363-0.725 0.363-1.15v-10h4v10c0 0.431 0.137 0.825 0.363 1.15l3.012 4.85h-10.75z"></path>
</svg>
