<!-- Generated by IcoMoon.io -->
<svg version="1.1" xmlns="http://www.w3.org/2000/svg" width="26" height="32" viewBox="0 0 26 32">
<title>flask-poison</title>
<path d="M18 9.999v-7.999h1.5c0.276 0 0.5-0.224 0.5-0.5v-1c0-0.276-0.224-0.5-0.5-0.5h-13c-0.276 0-0.5 0.224-0.5 0.5v1c0 0.276 0.224 0.5 0.5 0.5h1.5v7.999c-4.697 1.96-8 6.593-8 12.001 0 3.362 1.277 6.424 3.371 8.731 0.747 0.823 1.826 1.269 2.938 1.269h13.378c1.129 0 2.218-0.465 2.974-1.303 0.808-0.896 3.328-3.871 3.321-8.697h0.019c0-5.407-3.303-10.041-8-12.001zM21.174 29.358c-0.368 0.408-0.91 0.642-1.488 0.642h-13.377c-0.572 0-1.103-0.223-1.456-0.613-1.839-2.027-2.853-4.65-2.853-7.387 0-4.453 2.658-8.439 6.77-10.154l1.23-0.513v-9.332h6v9.332l1.23 0.513c3.91 1.631 6.504 5.314 6.751 9.499l0.001 0.658c0.004 3.499-1.524 5.932-2.807 7.355zM11 19c-0.553 0-1 0.448-1 1s0.447 1 1 1 1-0.448 1-1-0.447-1-1-1zM15 19c-0.553 0-1 0.448-1 1s0.447 1 1 1 1-0.448 1-1-0.447-1-1-1zM13 14c-4.418 0-8 2.686-8 6 0 1.887 1.181 3.549 3 4.644v2.356c0 0.552 0.447 1 1 1h8c0.552 0 1-0.448 1-1v-2.356c1.819-1.096 3-2.758 3-4.644 0-3.314-3.582-6-8-6zM16.968 22.931l-0.968 0.583v2.486h-6v-2.486l-0.968-0.583c-1.291-0.777-2.032-1.846-2.032-2.931 0-2.168 2.748-4 6-4s6 1.832 6 4c0 1.085-0.741 2.153-2.032 2.931z"></path>
</svg>
