<!-- Generated by IcoMoon.io -->
<svg version="1.1" xmlns="http://www.w3.org/2000/svg" width="26" height="32" viewBox="0 0 26 32">
<title>flask-poison-solid</title>
<path d="M5 3v-2c0-0.552 0.447-1 1-1h14c0.552 0 1 0.448 1 1v2c0 0.553-0.448 1-1 1h-14c-0.553 0-1-0.447-1-1zM10.5 18c-0.828 0-1.5 0.671-1.5 1.5s0.672 1.5 1.5 1.5 1.5-0.672 1.5-1.5c0-0.829-0.672-1.5-1.5-1.5zM25.997 22.292c-0.071 3.23-1.322 6.169-3.337 8.405-0.756 0.838-1.845 1.303-2.974 1.303h-13.377c-1.111 0-2.191-0.446-2.938-1.269-2.094-2.307-3.371-5.369-3.371-8.731 0-5.008 2.851-9.322 7-11.492v-4.508h12v4.566c4.199 2.258 7.107 6.729 6.997 11.726zM20 19.5c0-3.038-3.134-5.5-7-5.5s-7 2.462-7 5.5c0 1.867 1.19 3.511 3 4.505v1.995c0 0.552 0.447 1 1 1h6c0.552 0 1-0.448 1-1v-1.995c1.81-0.994 3-2.638 3-4.505zM15.5 18c-0.828 0-1.5 0.671-1.5 1.5s0.672 1.5 1.5 1.5 1.5-0.672 1.5-1.5c0-0.829-0.672-1.5-1.5-1.5z"></path>
</svg>
