<!-- Generated by IcoMoon.io -->
<svg version="1.1" xmlns="http://www.w3.org/2000/svg" width="40" height="32" viewBox="0 0 40 32">
<title>flashlight</title>
<path d="M18 13h-2c-1.657 0-3 1.343-3 3s1.343 3 3 3v0h2c1.657 0 3-1.343 3-3s-1.343-3-3-3v0zM18 17h-2c-0.552 0-1-0.448-1-1s0.448-1 1-1v0h2c0.552 0 1 0.448 1 1s-0.448 1-1 1v0zM38 6h-2c-3.688 0-7.282 1.063-10.412 3h-21.588c-2.209 0-4 1.791-4 4v0 6c0 2.209 1.791 4 4 4v0h21.589c3.129 1.938 6.724 3 10.411 3h2c1.105 0 2-0.895 2-2v0-16c0-1.105-0.895-2-2-2v0zM32 23.531c-2.030-0.492-3.818-1.259-5.434-2.275l0.075 0.044-0.484-0.299h-22.157c-1.105 0-2-0.895-2-2v0-6c0-1.105 0.895-2 2-2v0h22.157l0.483-0.299c1.541-0.972 3.329-1.74 5.235-2.206l0.124-0.026zM38 24h-2c-0.705-0-1.4-0.043-2.083-0.126l0.083 0.008v-15.765c0.6-0.074 1.295-0.117 1.999-0.117h2.001z"></path>
</svg>
