<!-- Generated by IcoMoon.io -->
<svg version="1.1" xmlns="http://www.w3.org/2000/svg" width="28" height="32" viewBox="0 0 28 32">
<title>flask</title>
<path d="M27.181 25.669l-9.181-12.006v-11.662h1.625c0.206 0 0.375-0.169 0.375-0.375v-1.25c0-0.206-0.169-0.375-0.375-0.375h-11.25c-0.206 0-0.375 0.169-0.375 0.375v1.25c0 0.206 0.169 0.375 0.375 0.375h1.625v11.662l-9.181 12.006c-1.981 2.594-0.131 6.331 3.125 6.331h20.112c3.262 0 5.106-3.738 3.125-6.331zM24.056 30h-20.113c-1.606 0-2.519-1.837-1.538-3.113l9.387-12.281c0.131-0.175 0.206-0.387 0.206-0.606v-12h4v12c0 0.219 0.075 0.431 0.206 0.606l9.387 12.281c0.975 1.275 0.075 3.113-1.538 3.113z"></path>
</svg>
