<!-- Generated by IcoMoon.io -->
<svg version="1.1" xmlns="http://www.w3.org/2000/svg" width="26" height="32" viewBox="0 0 26 32">
<title>flask-potion</title>
<path d="M26 22c0-5.407-3.303-10.041-8-12.001v-7.999h1.5c0.276 0 0.5-0.224 0.5-0.5v-1c0-0.276-0.224-0.5-0.5-0.5h-13c-0.276 0-0.5 0.224-0.5 0.5v1c0 0.276 0.224 0.5 0.5 0.5h1.5v7.999c-4.697 1.96-8 6.593-8 12.001 0 3.362 1.277 6.424 3.371 8.731 0.747 0.823 1.826 1.269 2.938 1.269h13.378c1.129 0 2.218-0.465 2.974-1.303 0.808-0.896 3.328-3.871 3.321-8.697h0.019zM8.77 11.846l1.23-0.513v-9.332h6v9.332l1.23 0.513c3.801 1.586 6.339 5.114 6.706 9.154h-3.209c-1.791 0-3.588-0.474-5.193-1.373-3.863-2.16-8.476-2.16-12.34 0l-1.038 0.581c0.608-3.705 3.064-6.881 6.614-8.362zM21.174 29.358c-0.368 0.408-0.91 0.642-1.488 0.642h-13.377c-0.572 0-1.103-0.223-1.456-0.613-1.712-1.887-2.671-4.297-2.801-6.829l2.118-1.185c3.256-1.819 7.139-1.817 10.387 0 1.904 1.064 4.037 1.627 6.169 1.627h3.187c-0.216 2.353-1.147 4.591-2.739 6.358z"></path>
</svg>
