<!-- Generated by IcoMoon.io -->
<svg version="1.1" xmlns="http://www.w3.org/2000/svg" width="26" height="32" viewBox="0 0 26 32">
<title>flask-potion-solid</title>
<path d="M25.997 22.292c-0.071 3.23-1.322 6.169-3.337 8.405-0.756 0.838-1.845 1.303-2.974 1.303h-13.377c-1.111 0-2.191-0.446-2.938-1.269-2.094-2.307-3.371-5.369-3.371-8.731 0-5.008 2.851-9.322 7-11.492v-4.508h4v6.929c-1.263 0.661-6.271 2.421-6.928 8.035 4.116-2.058 7.977-1.939 11.363-0.247 2.812 1.406 5.082 1.283 6.553 1.283-0.017-5.74-4.708-7.818-6.987-9.044v-6.956h4v4.566c4.199 2.258 7.106 6.729 6.996 11.726zM6 4h14c0.552 0 1-0.447 1-1v-2c0-0.552-0.448-1-1-1h-14c-0.553 0-1 0.448-1 1v2c0 0.553 0.447 1 1 1z"></path>
</svg>
