<!-- Generated by IcoMoon.io -->
<svg version="1.1" xmlns="http://www.w3.org/2000/svg" width="32" height="32" viewBox="0 0 32 32">
<title>flower-tulip</title>
<path d="M30.992 18h-2.954c-0.003 0-0.006 0-0.010 0-4.465 0-8.441 2.090-11.005 5.345l-0.023 0.030v-5.375c4.971 0 9-4.029 9-9v0-8c-0.001-0.551-0.448-0.998-1-0.998-0.222 0-0.427 0.072-0.593 0.195l0.003-0.002-4.619 3.353-3.022-3.188c-0.185-0.221-0.46-0.36-0.768-0.36s-0.583 0.139-0.767 0.358l-0.001 0.002-3.022 3.188-4.619-3.353c-0.163-0.121-0.368-0.193-0.591-0.193-0.552 0-0.999 0.447-1 0.998v8c0 4.971 4.029 9 9 9v0 5.375c-2.586-3.285-6.563-5.375-11.028-5.375-0.003 0-0.007 0-0.010 0h-2.954c-0.574 0-1.063 0.563-1.004 1.228 0.624 7.156 6.647 12.772 13.985 12.772h4.021c7.338 0 13.361-5.616 13.985-12.772 0.058-0.666-0.429-1.228-1.004-1.228zM8 9v-6.037l4.455 3.233 3.545-3.74 3.545 3.74 4.455-3.233v6.037c0 3.866-3.134 7-7 7v0h-2c-3.866 0-7-3.134-7-7v0zM15 30h-1.011c-5.868 0-10.908-4.321-11.871-10h1.844c0.001 0 0.001 0 0.002 0 4.355 0 8.17 2.315 10.281 5.781l0.030 0.053c0.85 1.421 0.725 2.544 0.725 4.166zM18 30h-1c0-1.625-0.125-2.744 0.727-4.166 2.141-3.52 5.955-5.834 10.311-5.834h1.844c-0.964 5.679-6.004 10-11.882 10z"></path>
</svg>
