<!-- Generated by IcoMoon.io -->
<svg version="1.1" xmlns="http://www.w3.org/2000/svg" width="32" height="32" viewBox="0 0 32 32">
<title>flower-daffodil-solid</title>
<path d="M30.992 20h-2.954c-3.938 0-7.489 1.389-10.038 3.62v-6.042c0.593 0.268 1.285 0.425 2.014 0.425 2.755 0 4.988-2.233 4.988-4.988 0-1.641-0.793-3.097-2.016-4.006l-0.013-0.009c1.235-0.918 2.027-2.373 2.027-4.013 0-2.754-2.232-4.986-4.986-4.986-1.64 0-3.095 0.792-4.003 2.013l-0.009 0.013c-0.918-1.235-2.373-2.027-4.013-2.027-2.754 0-4.986 2.232-4.986 4.986 0 1.64 0.792 3.095 2.013 4.003l0.013 0.009c-1.234 0.919-2.025 2.373-2.025 4.013 0 2.755 2.233 4.988 4.988 4.988 0.727 0 1.418-0.156 2.041-0.435l-0.032 0.013v6.042c-2.549-2.231-6.102-3.62-10.038-3.62h-2.954c-0.574 0-1.063 0.483-1.004 1.052 0.624 6.135 6.647 10.948 13.985 10.948h4.021c7.338 0 13.361-4.813 13.985-10.947 0.058-0.57-0.429-1.052-1.004-1.052zM16 12c-1.657 0-3-1.343-3-3s1.343-3 3-3c1.657 0 3 1.343 3 3v0c0 1.657-1.343 3-3 3v0z"></path>
</svg>
