<!-- Generated by IcoMoon.io -->
<svg version="1.1" xmlns="http://www.w3.org/2000/svg" width="32" height="32" viewBox="0 0 32 32">
<title>flower-solid</title>
<path d="M30 10c0-4.418-3.582-8-8-8v0c-2.403 0-4.534 1.081-6 2.759-1.466-1.678-3.597-2.759-6-2.759-4.418 0-8 3.582-8 8v0c0 2.403 1.081 4.534 2.759 6-1.678 1.466-2.759 3.597-2.759 6 0 4.418 3.582 8 8 8v0c2.403 0 4.534-1.081 6-2.759 1.466 1.677 3.597 2.759 6 2.759 4.418 0 8-3.582 8-8v0c0-2.403-1.081-4.534-2.759-6 1.677-1.466 2.759-3.597 2.759-6zM16 21c-2.761 0-5-2.239-5-5s2.239-5 5-5c2.761 0 5 2.239 5 5v0c0 2.761-2.239 5-5 5v0z"></path>
</svg>
