<!-- Generated by IcoMoon.io -->
<svg version="1.1" xmlns="http://www.w3.org/2000/svg" width="32" height="32" viewBox="0 0 32 32">
<title>flower</title>
<path d="M28.844 16c1.919-1.675 3.156-4.113 3.156-6.856 0-5.050-4.094-9.144-9.144-9.144-2.744 0-5.181 1.238-6.856 3.156-1.675-1.919-4.113-3.156-6.856-3.156-5.050 0-9.144 4.094-9.144 9.144 0 2.744 1.238 5.181 3.156 6.856-1.919 1.675-3.156 4.113-3.156 6.856 0 5.050 4.094 9.144 9.144 9.144 2.744 0 5.181-1.238 6.856-3.156 1.675 1.919 4.113 3.156 6.856 3.156 5.050 0 9.144-4.094 9.144-9.144 0-2.744-1.238-5.181-3.156-6.856zM22.856 30c-2.056 0-3.956-0.875-5.35-2.469l-1.506-1.725-1.506 1.725c-1.394 1.594-3.294 2.469-5.35 2.469-3.938 0-7.144-3.206-7.144-7.144 0-2.056 0.875-3.956 2.469-5.35l1.725-1.506-1.725-1.506c-1.594-1.394-2.469-3.294-2.469-5.35 0-3.938 3.206-7.144 7.144-7.144 2.056 0 3.956 0.875 5.35 2.469l1.506 1.725 1.506-1.725c1.394-1.594 3.294-2.469 5.35-2.469 3.938 0 7.144 3.206 7.144 7.144 0 2.056-0.875 3.956-2.469 5.35l-1.725 1.506 1.725 1.506c1.594 1.394 2.469 3.294 2.469 5.35 0 3.938-3.206 7.144-7.144 7.144zM16 10c-3.306 0-6 2.694-6 6s2.694 6 6 6 6-2.694 6-6-2.694-6-6-6zM16 20c-2.206 0-4-1.794-4-4s1.794-4 4-4 4 1.794 4 4-1.794 4-4 4z"></path>
</svg>
