<!-- Generated by IcoMoon.io -->
<svg version="1.1" xmlns="http://www.w3.org/2000/svg" width="32" height="32" viewBox="0 0 32 32">
<title>flower-tulip-solid</title>
<path d="M30.992 20h-2.954c-3.938 0-7.489 1.389-10.038 3.62v-7.62c4.418 0 8-3.582 8-8v0-6l-5 3-4.929-5-5.071 5-5-3v6c0 4.418 3.582 8 8 8v0 7.62c-2.549-2.231-6.102-3.62-10.038-3.62h-2.954c-0.574 0-1.063 0.483-1.004 1.052 0.624 6.135 6.647 10.948 13.985 10.948h4.021c7.337 0 13.361-4.813 13.985-10.947 0.057-0.57-0.429-1.052-1.004-1.052z"></path>
</svg>
