<!-- Generated by IcoMoon.io -->
<svg version="1.1" xmlns="http://www.w3.org/2000/svg" width="32" height="32" viewBox="0 0 32 32">
<title>flower-daffodil</title>
<path d="M18 9c0-1.105-0.895-2-2-2s-2 0.895-2 2c0 1.105 0.895 2 2 2v0c1.105 0 2-0.895 2-2v0zM30.992 18h-2.954c-0.003 0-0.006 0-0.010 0-4.465 0-8.441 2.090-11.005 5.345l-0.023 0.030v-6.034c0.737 0.411 1.617 0.655 2.553 0.659h0.001c3.006-0.003 5.442-2.439 5.446-5.444v-0c0-0.004 0-0.009 0-0.013 0-1.361-0.507-2.603-1.341-3.548l0.005 0.006c0.83-0.94 1.336-2.182 1.336-3.542 0-0.005 0-0.009-0-0.014v0.001c-0.004-3.006-2.44-5.441-5.445-5.444h-0c-0.004 0-0.009-0-0.014-0-1.36 0-2.601 0.506-3.546 1.34l0.006-0.005c-0.939-0.829-2.181-1.335-3.541-1.335-0.005 0-0.010 0-0.015 0h0.001c-3.006 0.003-5.442 2.439-5.446 5.444v0c0 0.004-0 0.009-0 0.013 0 1.361 0.507 2.603 1.341 3.548l-0.005-0.006c-0.83 0.94-1.336 2.182-1.336 3.542 0 0.005 0 0.009 0 0.014v-0.001c0.004 3.006 2.44 5.441 5.445 5.444h0c0.937-0.003 1.817-0.247 2.582-0.673l-0.027 0.014v6.034c-2.586-3.285-6.563-5.375-11.028-5.375-0.003 0-0.007 0-0.010 0h-2.954c-0.574 0-1.063 0.563-1.004 1.228 0.624 7.156 6.647 12.772 13.985 12.772h4.021c7.337 0 13.361-5.616 13.985-12.772 0.057-0.666-0.429-1.228-1.004-1.228zM15 30h-1.011c-5.868 0-10.908-4.321-11.871-10h1.844c0.001 0 0.001 0 0.002 0 4.355 0 8.17 2.315 10.281 5.781l0.030 0.053c0.85 1.421 0.725 2.544 0.725 4.166zM16 13.524l-0.803 1.076c-0.627 0.851-1.624 1.398-2.75 1.399h-0c-1.903-0-3.445-1.542-3.447-3.444v-0c0.001-1.127 0.548-2.126 1.391-2.747l0.009-0.007 1.076-0.802-1.076-0.802c-0.853-0.627-1.4-1.627-1.401-2.754v-0c0.002-1.902 1.544-3.443 3.446-3.444h0c1.126 0.002 2.123 0.548 2.743 1.39l0.007 0.009 0.804 1.076 0.802-1.076c0.627-0.851 1.624-1.398 2.75-1.399h0c1.903 0 3.445 1.542 3.447 3.444v0c-0.001 1.127-0.548 2.126-1.391 2.747l-0.009 0.007-1.076 0.802 1.076 0.802c0.853 0.627 1.4 1.627 1.401 2.754v0c-0.002 1.902-1.544 3.443-3.445 3.444h-0c-1.126-0.002-2.123-0.548-2.743-1.39l-0.007-0.009zM18 30h-1c0-1.625-0.125-2.744 0.727-4.166 2.141-3.52 5.955-5.834 10.311-5.834h1.844c-0.964 5.679-6.004 10-11.882 10z"></path>
</svg>
