<!-- Generated by IcoMoon.io -->
<svg version="1.1" xmlns="http://www.w3.org/2000/svg" width="31" height="32" viewBox="0 0 31 32">
<title>flushed-solid</title>
<path d="M21.5 12.5c-0.831 0-1.5 0.669-1.5 1.5s0.669 1.5 1.5 1.5 1.5-0.669 1.5-1.5-0.669-1.5-1.5-1.5zM9.5 12.5c-0.831 0-1.5 0.669-1.5 1.5s0.669 1.5 1.5 1.5 1.5-0.669 1.5-1.5-0.669-1.5-1.5-1.5zM15.5 0.5c-8.563 0-15.5 6.938-15.5 15.5s6.938 15.5 15.5 15.5 15.5-6.938 15.5-15.5-6.938-15.5-15.5-15.5zM5 14c0-2.488 2.013-4.5 4.5-4.5s4.5 2.012 4.5 4.5-2.012 4.5-4.5 4.5-4.5-2.012-4.5-4.5zM19.5 25h-8c-1.325 0-1.325-2 0-2h8c1.325 0 1.325 2 0 2zM21.5 18.5c-2.488 0-4.5-2.012-4.5-4.5s2.012-4.5 4.5-4.5 4.5 2.012 4.5 4.5-2.012 4.5-4.5 4.5z"></path>
</svg>
