<!-- Generated by IcoMoon.io -->
<svg version="1.1" xmlns="http://www.w3.org/2000/svg" width="28" height="32" viewBox="0 0 28 32">
<title>flux-capacitor</title>
<path d="M28 7v18c-0.005 2.759-2.241 4.995-4.999 5h-18.001c-2.759-0.005-4.995-2.241-5-4.999v-18.001c0.005-2.759 2.241-4.995 4.999-5h18.001c2.759 0.005 4.995 2.241 5 4.999v0.001zM26 7c-0.003-1.656-1.344-2.997-3-3h-18c-1.656 0.003-2.997 1.344-3 3v18c0.003 1.656 1.344 2.997 3 3h18c1.656-0.003 2.997-1.344 3-3v-0zM24 11c-0.001 2.761-2.239 4.999-5 5h-0c-0.254-0.007-0.495-0.030-0.732-0.067l0.032 0.004 2.82-2.816c0.477-0.483 0.861-1.426 0.861-2.104-0-1.657-1.343-3-3-3h-0c-0.678 0-1.619 0.386-2.104 0.861l-2.879 2.879-2.879-2.882c-0.484-0.476-1.426-0.861-2.104-0.861-1.657 0-3 1.343-3 3v0c0 0.678 0.385 1.621 0.861 2.104l2.82 2.818c-0.204 0.033-0.446 0.055-0.691 0.062l-0.008 0c-2.761 0-5-2.239-5-5s2.239-5 5-5c2.761 0 5 2.239 5 5v0c0-2.761 2.239-5 5-5s5 2.239 5 5v0zM13 21v-4.586l-4.707-4.707c-0.159-0.185-0.26-0.424-0.273-0.686l-0-0.003c0-0.001 0-0.001 0-0.002 0-0.551 0.447-0.998 0.998-0.998 0.001 0 0.001 0 0.002 0h-0c0.264 0.015 0.502 0.116 0.689 0.276l-0.002-0.001 4.293 4.293 4.293-4.293c0.185-0.158 0.423-0.26 0.684-0.274l0.003-0c0.001 0 0.001 0 0.002 0 0.551 0 0.998 0.447 0.998 0.998 0 0.001 0 0.001 0 0.002v-0c-0.014 0.265-0.115 0.503-0.275 0.69l0.001-0.002-4.707 4.707v4.586c0 0.552-0.448 1-1 1s-1-0.448-1-1v0zM19 21c0 0.009 0 0.020 0 0.031 0 2.761-2.239 5-5 5s-5-2.239-5-5c0-1.576 0.729-2.982 1.869-3.899l0.010-0.008 0.121 0.117v3.758c0 1.657 1.343 3 3 3s3-1.343 3-3v0-3.758l0.121-0.117c1.146 0.914 1.875 2.309 1.879 3.874v0.001z"></path>
</svg>
