<!-- Generated by IcoMoon.io -->
<svg version="1.1" xmlns="http://www.w3.org/2000/svg" width="28" height="32" viewBox="0 0 28 32">
<title>flux-capacitor-solid</title>
<path d="M28 7v18c-0.005 2.759-2.241 4.995-4.999 5h-18.001c-2.759-0.005-4.995-2.241-5-4.999v-18.001c0.005-2.759 2.241-4.995 4.999-5h18.001c2.759 0.005 4.995 2.241 5 4.999v0.001zM8.691 14.927l-2.813-2.81c-0.476-0.483-0.861-1.426-0.861-2.104 0-1.657 1.343-3 3-3h0c0.678 0 1.62 0.386 2.104 0.861l2.81 2.813c0.033-0.198 0.058-0.434 0.069-0.675l0-0.013c0-2.761-2.239-5-5-5s-5 2.239-5 5c0 2.761 2.239 5 5 5v0c0.255-0.012 0.493-0.038 0.726-0.078l-0.035 0.005zM13 16.414v5.586c0 0.552 0.448 1 1 1s1-0.448 1-1v0-5.586l5.707-5.707c0.159-0.185 0.26-0.424 0.274-0.686l0-0.003c0-0 0-0 0-0.001 0-0.552-0.447-0.999-0.999-0.999-0 0-0 0-0.001 0h0c-0.265 0.014-0.503 0.116-0.69 0.276l0.002-0.001-5.293 5.293-5.293-5.293c-0.185-0.159-0.424-0.26-0.686-0.274l-0.003-0c-0 0-0 0-0.001 0-0.552 0-0.999 0.447-0.999 0.999 0 0 0 0 0 0.001v-0c0.014 0.265 0.116 0.503 0.276 0.69l-0.001-0.002zM14.015 27c2.753-0.001 4.984-2.232 4.985-4.985v-0c0-1.378-0.896-3.167-2-3.992v3.978c0 1.657-1.343 3-3 3s-3-1.343-3-3v0-3.978c-1.104 0.825-2 2.614-2 3.992 0.001 2.753 2.232 4.984 4.985 4.985h0.029zM25 10c0-2.761-2.239-5-5-5s-5 2.239-5 5v0c0.012 0.255 0.038 0.493 0.078 0.726l-0.005-0.035 2.81-2.813c0.483-0.476 1.426-0.861 2.104-0.861 1.657 0 3 1.343 3 3v0c0 0.678-0.386 1.62-0.861 2.104l-2.813 2.81c0.198 0.033 0.434 0.058 0.675 0.069l0.013 0c2.761-0.001 4.999-2.239 5-5v-0z"></path>
</svg>
