<!-- Generated by IcoMoon.io -->
<svg version="1.1" xmlns="http://www.w3.org/2000/svg" width="40" height="32" viewBox="0 0 40 32">
<title>folders</title>
<path d="M37 4h-12l-3.414-3.414c-0.375-0.375-0.884-0.586-1.414-0.586h-9.171c-1.657 0-3 1.343-3 3v5h-5c-1.657 0-3 1.343-3 3v18c0 1.657 1.343 3 3 3h26c1.657 0 3-1.343 3-3v-5h5c1.657 0 3-1.343 3-3v-14c0-1.657-1.343-3-3-3zM30 29c0 0.552-0.448 1-1 1h-26c-0.553 0-1-0.448-1-1v-18c0-0.553 0.447-1 1-1h5v11c0 1.657 1.343 3 3 3h19v5zM38 21c0 0.552-0.447 1-1 1h-26c-0.553 0-1-0.448-1-1v-18c0-0.553 0.447-1 1-1h9.171l3.414 3.414c0.375 0.375 0.884 0.586 1.414 0.586h12c0.553 0 1 0.447 1 1v14z"></path>
</svg>
