<!-- Generated by IcoMoon.io -->
<svg version="1.1" xmlns="http://www.w3.org/2000/svg" width="32" height="32" viewBox="0 0 32 32">
<title>folder-times-solid</title>
<path d="M29 8h-12l-4-4h-10c-1.657 0-3 1.343-3 3v18c0 1.657 1.343 3 3 3h26c1.657 0 3-1.343 3-3v-14c0-1.657-1.343-3-3-3zM21.303 21.182c0.391 0.391 0.391 1.024 0 1.414l-0.707 0.707c-0.391 0.391-1.024 0.391-1.414 0l-3.182-3.182-3.182 3.182c-0.391 0.391-1.024 0.391-1.414 0l-0.707-0.707c-0.391-0.391-0.391-1.024 0-1.414l3.182-3.182-3.182-3.182c-0.391-0.391-0.391-1.024 0-1.414l0.707-0.707c0.391-0.391 1.024-0.391 1.414 0l3.182 3.182 3.182-3.182c0.391-0.391 1.024-0.391 1.414 0l0.707 0.707c0.391 0.391 0.391 1.024 0 1.414l-3.182 3.182 3.182 3.182z"></path>
</svg>
