<!-- Generated by IcoMoon.io -->
<svg version="1.1" xmlns="http://www.w3.org/2000/svg" width="32" height="32" viewBox="0 0 32 32">
<title>folder-upload-solid</title>
<path d="M29 8h-12l-4-4h-10c-1.657 0-3 1.343-3 3v0 18c0 1.657 1.343 3 3 3v0h26c1.657 0 3-1.343 3-3v0-14c0-1.657-1.343-3-3-3v0zM22.074 20h-4.074v3c0 0.552-0.448 1-1 1v0h-2c-0.552 0-1-0.448-1-1v0-3h-4.073c-0.552-0.001-0.999-0.448-0.999-1 0-0.277 0.113-0.528 0.294-0.709l0-0 6.027-5.979c0.192-0.191 0.457-0.309 0.75-0.309s0.557 0.118 0.75 0.309l-0-0 6.026 5.981c0.18 0.181 0.292 0.431 0.292 0.706 0 0.55-0.444 0.997-0.994 1h-0z"></path>
</svg>
