<!-- Generated by IcoMoon.io -->
<svg version="1.1" xmlns="http://www.w3.org/2000/svg" width="36" height="32" viewBox="0 0 36 32">
<title>folder-open-solid</title>
<path d="M35.793 18.256l-4.526 7.76c-0.706 1.195-1.989 1.985-3.455 1.985-0 0-0 0-0 0h-24.998c-1.158 0-1.879-1.256-1.296-2.256l4.527-7.76c0.707-1.195 1.989-1.985 3.455-1.985 0 0 0 0 0 0h24.998c1.158 0 1.879 1.256 1.296 2.256zM9.5 14h20.5v-3c0-1.657-1.343-3-3-3h-10l-4-4h-10c-1.657 0-3 1.343-3 3v17.378l4.317-7.401c1.071-1.836 3.057-2.977 5.183-2.977z"></path>
</svg>
