<!-- Generated by IcoMoon.io -->
<svg version="1.1" xmlns="http://www.w3.org/2000/svg" width="32" height="32" viewBox="0 0 32 32">
<title>folder-download-solid</title>
<path d="M29 8h-12l-4-4h-10c-1.657 0-3 1.343-3 3v0 18c0 1.657 1.343 3 3 3v0h26c1.657 0 3-1.343 3-3v0-14c0-1.657-1.343-3-3-3v0zM22.777 17.71l-6.027 5.981c-0.192 0.191-0.457 0.309-0.75 0.309s-0.557-0.118-0.75-0.309l0 0-6.026-5.981c-0.183-0.181-0.296-0.432-0.296-0.71 0-0.551 0.446-0.999 0.998-1h4.075v-3c0-0.552 0.448-1 1-1v0h2c0.552 0 1 0.448 1 1v0 3h4.074c0.552 0 1 0.448 1 1 0 0.278-0.113 0.529-0.296 0.71l-0 0z"></path>
</svg>
