<!-- Generated by IcoMoon.io -->
<svg version="1.1" xmlns="http://www.w3.org/2000/svg" width="32" height="32" viewBox="0 0 32 32">
<title>folder-plus</title>
<path d="M29 8h-12l-3.414-3.414c-0.362-0.362-0.862-0.586-1.414-0.586-0 0-0 0-0 0h-9.171c-1.657 0-3 1.343-3 3v0 18c0 1.657 1.343 3 3 3v0h26c1.657 0 3-1.343 3-3v0-14c0-1.657-1.343-3-3-3v0zM30 25c0 0.552-0.448 1-1 1v0h-26c-0.552 0-1-0.448-1-1v0-18c0-0.552 0.448-1 1-1v0h9.171l3.414 3.414c0.362 0.362 0.862 0.586 1.414 0.586 0 0 0 0 0 0h12c0.552 0 1 0.448 1 1v0zM21.219 17h-4.25v-4.25c0-0.414-0.336-0.75-0.75-0.75v0h-0.5c-0.414 0-0.75 0.336-0.75 0.75v0 4.25h-4.25c-0.414 0-0.75 0.336-0.75 0.75v0 0.5c0 0.414 0.336 0.75 0.75 0.75v0h4.25v4.25c0 0.414 0.336 0.75 0.75 0.75v0h0.5c0.414 0 0.75-0.336 0.75-0.75v0-4.25h4.25c0.414 0 0.75-0.336 0.75-0.75v0-0.5c0-0.414-0.336-0.75-0.75-0.75v0z"></path>
</svg>
