<!-- Generated by IcoMoon.io -->
<svg version="1.1" xmlns="http://www.w3.org/2000/svg" width="32" height="32" viewBox="0 0 32 32">
<title>folder-plus-solid</title>
<path d="M29 8h-12l-4-4h-10c-1.657 0-3 1.343-3 3v0 18c0 1.657 1.343 3 3 3v0h26c1.657 0 3-1.343 3-3v0-14c0-1.657-1.343-3-3-3v0zM22.469 18.5c0 0.552-0.448 1-1 1v0h-4v4c0 0.552-0.448 1-1 1v0h-1c-0.552 0-1-0.448-1-1v0-4h-4c-0.552 0-1-0.448-1-1v0-1c0-0.552 0.448-1 1-1v0h4v-4c0-0.552 0.448-1 1-1v0h1c0.552 0 1 0.448 1 1v0 4h4c0.552 0 1 0.448 1 1v0z"></path>
</svg>
