<!-- Generated by IcoMoon.io -->
<svg version="1.1" xmlns="http://www.w3.org/2000/svg" width="36" height="32" viewBox="0 0 36 32">
<title>folder-open</title>
<path d="M32.997 14h-2.997v-3c0-1.657-1.343-3-3-3h-10l-4-4h-10c-1.657 0-3 1.343-3 3v18c0 1.657 1.343 3 3 3h24.066c1.754 0 3.383-0.921 4.287-2.428l4.216-7.029c1.196-1.993-0.239-4.543-2.572-4.543zM3 6h9.172l4 4h10.828c0.552 0 1 0.448 1 1v3h-17.301c-1.754 0-3.383 0.921-4.287 2.428l-4.411 7.352v-16.779c0-0.552 0.448-1 1-1zM33.856 17.515l-4.217 7.029c-0.534 0.879-1.486 1.456-2.572 1.456-0 0-0 0-0 0h-24.265l5.126-8.544c0.534-0.879 1.486-1.457 2.572-1.457 0 0 0 0 0 0h22.498c0.777 0 1.257 0.848 0.858 1.514z"></path>
</svg>
