<!-- Generated by IcoMoon.io -->
<svg version="1.1" xmlns="http://www.w3.org/2000/svg" width="36" height="32" viewBox="0 0 36 32">
<title>folder-tree</title>
<path d="M18 14h14c1.105 0 2-0.895 2-2v0-8c0-1.105-0.895-2-2-2v0h-7l-2-2h-5c-1.105 0-2 0.895-2 2v0 4h-12v-5.5c0-0.276-0.224-0.5-0.5-0.5v0h-1c-0.276 0-0.5 0.224-0.5 0.5v0 24.5c0 0.552 0.448 1 1 1v0h13v4c0 1.105 0.895 2 2 2v0h14c1.105 0 2-0.895 2-2v0-8c0-1.105-0.895-2-2-2v0h-7l-2-2h-5c-1.105 0-2 0.895-2 2v0 4h-12v-16h12v4c0 1.105 0.895 2 2 2v0zM18 20h4.171l2 2h7.829v8h-14zM18 2h4.171l2 2h7.829v8h-14z"></path>
</svg>
