<!-- Generated by IcoMoon.io -->
<svg version="1.1" xmlns="http://www.w3.org/2000/svg" width="36" height="32" viewBox="0 0 36 32">
<title>folder-tree-solid</title>
<path d="M34 2h-7l-2-2h-5c-1.105 0-2 0.895-2 2v0 10c0 1.105 0.895 2 2 2v0h14c1.105 0 2-0.895 2-2v0-8c0-1.105-0.895-2-2-2v0zM34 20h-7l-2-2h-5c-1.105 0-2 0.895-2 2v0 10c0 1.105 0.895 2 2 2v0h14c1.105 0 2-0.895 2-2v0-8c0-1.105-0.895-2-2-2v0zM4 1c0-0.552-0.448-1-1-1v0h-2c-0.552 0-1 0.448-1 1v0 25c0 1.105 0.895 2 2 2v0h14v-4h-12v-14h12v-4h-12z"></path>
</svg>
