<!-- Generated by IcoMoon.io -->
<svg version="1.1" xmlns="http://www.w3.org/2000/svg" width="32" height="32" viewBox="0 0 32 32">
<title>folder-download</title>
<path d="M29 8h-12l-3.414-3.414c-0.362-0.362-0.862-0.586-1.414-0.586-0 0-0 0-0 0h-9.171c-1.657 0-3 1.343-3 3v0 18c0 1.657 1.343 3 3 3v0h26c1.657 0 3-1.343 3-3v0-14c0-1.657-1.343-3-3-3v0zM19.678 18l-3.678 3.875-3.678-3.875zM30 25c0 0.552-0.448 1-1 1v0h-26c-0.552 0-1-0.448-1-1v0-18c0-0.552 0.448-1 1-1v0h9.171l2.829 2.829v7.171h-3.291c-0.001 0-0.003 0-0.005 0-0.7 0-1.299 0.427-1.554 1.034l-0.004 0.011c-0.092 0.208-0.146 0.45-0.146 0.705 0 0.473 0.185 0.903 0.487 1.221l-0.001-0.001 4.258 4.486c0.668 0.699 1.844 0.7 2.512 0l4.258-4.484c0.301-0.318 0.486-0.748 0.486-1.221 0-0.255-0.054-0.498-0.151-0.717l0.004 0.011c-0.258-0.618-0.858-1.045-1.558-1.045-0.002 0-0.003 0-0.005 0h-3.291v-6.001h12c0.552 0 1 0.448 1 1v0z"></path>
</svg>
