<!-- Generated by IcoMoon.io -->
<svg version="1.1" xmlns="http://www.w3.org/2000/svg" width="32" height="32" viewBox="0 0 32 32">
<title>folder-times</title>
<path d="M20.596 14.111l-0.707-0.707c-0.195-0.195-0.512-0.195-0.707 0l-3.183 3.182-3.182-3.182c-0.195-0.195-0.512-0.195-0.707 0l-0.707 0.707c-0.195 0.195-0.195 0.512 0 0.707l3.181 3.182-3.182 3.182c-0.195 0.195-0.195 0.512 0 0.707l0.707 0.707c0.195 0.195 0.512 0.195 0.707 0l3.182-3.181 3.182 3.182c0.195 0.195 0.512 0.195 0.707 0l0.707-0.707c0.195-0.195 0.195-0.512 0-0.707l-3.181-3.183 3.182-3.182c0.090-0.091 0.146-0.216 0.146-0.354s-0.056-0.263-0.146-0.354v0zM12.171 6l3.414 3.414c0.375 0.375 0.884 0.586 1.414 0.586h12c0.552 0 1 0.447 1 1v14c0 0.552-0.448 1-1 1h-26c-0.553 0-1-0.448-1-1v-18c0-0.553 0.447-1 1-1h9.171zM3 4c-1.657 0-3 1.343-3 3v18c0 1.657 1.343 3 3 3h26c1.657 0 3-1.343 3-3v-14c0-1.657-1.343-3-3-3h-12l-3.414-3.414c-0.375-0.375-0.884-0.586-1.414-0.586h-9.171z"></path>
</svg>
