<!-- Generated by IcoMoon.io -->
<svg version="1.1" xmlns="http://www.w3.org/2000/svg" width="40" height="32" viewBox="0 0 40 32">
<title>font-case-solid</title>
<path d="M14.367 5.356c-0.276-0.795-1.019-1.356-1.893-1.356-0 0-0 0-0 0h-2.947c-0 0-0 0-0 0-0.874 0-1.617 0.561-1.889 1.342l-0.004 0.014-7.579 21.325c-0.033 0.095-0.052 0.205-0.052 0.319 0 0.552 0.447 1 0.999 1h3.164c0.438-0 0.81-0.282 0.945-0.674l0.002-0.007 1.192-3.319h9.394l1.192 3.319c0.137 0.399 0.51 0.681 0.948 0.681h3.164c0.552-0 1-0.448 1-1 0-0.114-0.019-0.224-0.054-0.326l0.002 0.007zM8.099 19l2.901-8.079 2.901 8.079zM39 10h-2c-0.552 0-1 0.448-1 1v0 0.113c-1.181-0.688-2.536-1.113-4-1.113-4.416 0.005-7.995 3.584-8 8v2c0.005 4.416 3.584 7.995 8 8h0c1.464 0 2.819-0.424 4-1.113v0.113c0 0.552 0.448 1 1 1v0h2c0.552 0 1-0.448 1-1v0-16c0-0.552-0.448-1-1-1v0zM35 20c0 1.657-1.343 3-3 3s-3-1.343-3-3v0-2c0-1.657 1.343-3 3-3s3 1.343 3 3v0z"></path>
</svg>
