<!-- Generated by IcoMoon.io -->
<svg version="1.1" xmlns="http://www.w3.org/2000/svg" width="28" height="32" viewBox="0 0 28 32">
<title>font-solid</title>
<path d="M27 26h-1.463l-8.169-22.644c-0.276-0.795-1.019-1.356-1.893-1.356-0 0-0 0-0 0h-2.947c-0 0-0 0-0 0-0.874 0-1.617 0.56-1.889 1.342l-0.004 0.014-8.169 22.644h-1.463c-0.552 0-1 0.448-1 1v0 2c0 0.552 0.448 1 1 1v0h8c0.552 0 1-0.448 1-1v0-2c0-0.552-0.448-1-1-1v0h-1.224l1.456-4h9.535l1.456 4h-1.224c-0.552 0-1 0.448-1 1v0 2c0 0.552 0.448 1 1 1v0h8c0.552 0 1-0.448 1-1v0-2c0-0.552-0.448-1-1-1v0zM11.053 17l2.947-8.093 2.947 8.093z"></path>
</svg>
