<!-- Generated by IcoMoon.io -->
<svg version="1.1" xmlns="http://www.w3.org/2000/svg" width="250" height="32" viewBox="0 0 250 32">
<title>font-awesome-logo-full-solid</title>
<path d="M28.413 0h-24.825c-1.969 0-3.587 1.619-3.587 3.587v24.831c0 1.962 1.619 3.581 3.587 3.581h24.831c1.962 0 3.587-1.619 3.587-3.587v-24.825c-0.006-1.969-1.625-3.587-3.594-3.587zM24.731 20.306c0 0.3-0.256 0.431-0.556 0.556-1.2 0.506-2.481 0.981-3.844 0.981-2.531 0-4.294-2.8-10.2 0.156v3.238c0 1.894-2.856 1.887-2.856 0v-15.625c-0.563-0.438-0.938-1.119-0.938-1.894 0-1.313 1.069-2.388 2.388-2.388 1.313 0 2.387 1.069 2.387 2.388 0 0.763-0.363 1.45-0.931 1.888v1.313c2.319-0.75 4.094-2.15 9.131-0.213 1.663 0.713 4.294-0.981 4.781-0.981 0.344 0 0.644 0.256 0.644 0.556v10.025zM51.788 9.419h-8.563v4.381h8.337c2.487 0 2.525 3.888 0 3.888h-8.337v6.6c0 2.844-4.419 2.9-4.419 0v-16.269c0-1.375 1.125-2.487 2.487-2.487h10.488c2.475 0 2.531 3.888 0.006 3.888zM63.731 10.881c-10.581 0-10.569 15.775 0 15.775 10.619 0 10.619-15.775 0-15.775zM63.731 23.137c-5.1 0-5.131-8.738 0-8.738 5.156 0 5.15 8.738 0 8.738zM87.006 26.475c-1.094 0-1.963-0.869-1.963-1.962v-7.313c0-3.9-4.537-3.281-6.194-1.025v8.337c0 2.594-3.956 2.613-3.956 0v-11.512c0-2.5 3.944-2.6 3.944 0v0.213c2.706-3.225 10.15-3.775 10.15 2.456v8.844c0.019 1.9-1.969 1.962-1.981 1.962zM98.237 26.656c-2.769 0-4.269-1.431-4.269-4.113v-7.844h-0.969c-2.225 0-2.294-3.456 0-3.456h0.969v-2.331c0-2.581 3.987-2.631 3.987 0v2.344h1.556c2.213 0 2.231 3.456 0 3.456h-1.556v6.781c0 1.85 1.631 1.644 1.713 1.644 1.963 0 3.287 3.519-1.431 3.519zM124.5 7.688c-1.219-3.138-5.969-3.125-7.156 0-6.706 17.231-6.219 15.794-6.219 16.425 0 2.675 3.644 3.2 4.506 0.9l0.844-2.244h8.9l0.813 2.244c0.888 2.356 4.506 1.7 4.506-0.9 0-0.631 0.331 0.425-6.194-16.425zM117.694 18.881l3.231-8.931 3.237 8.931h-6.469zM154.65 13.531l-3.356 11.019c-0.775 2.575-4.5 2.563-5.25 0l-2.644-8.494-2.644 8.494c-0.775 2.556-4.5 2.575-5.281 0l-3.387-11.019c-0.781-2.463 3.113-3.506 3.762-1.056l2.463 8.9 2.831-8.719c0.681-2.044 3.725-2.169 4.45 0l2.831 8.719 2.456-8.9c0.644-2.394 4.537-1.488 3.769 1.056zM171.863 18.225c0-2.65-2.119-7.344-7.469-7.344-4.575 0-7.775 3.519-7.775 7.875 0 4.825 3.456 7.9 8.031 7.9 1.981 0 5.813-0.719 5.813-2.488 0-1.144-1.319-1.969-2.456-1.4-3.088 1.637-6.813 0.525-7.244-2.738h9.269c1.019 0 1.831-0.837 1.831-1.806zM160.688 17.356c0.594-4.588 7.119-4.287 7.412 0h-7.412zM180.481 26.656c-1.963 0-5.1-0.656-6.037-1.994-0.775-1.063 0.156-2.488 1.363-2.488 1.019 0 2.3 1.431 4.856 1.431 1.713 0 2.525-0.688 2.525-1.613 0-2.488-8.931-0.462-8.931-6.375 0-2.525 2.206-4.731 6.162-4.731 1.963 0 4.631 0.619 5.475 1.838 0.675 0.925-0.088 2.263-1.306 2.263-0.944 0-1.669-1.081-4.137-1.081-1.431 0-2.363 0.656-2.363 1.488 0 2.244 8.9 0.375 8.9 6.444-0.006 2.731-2.338 4.819-6.506 4.819zM197.156 10.881c-10.581 0-10.569 15.775 0 15.775 10.631 0 10.6-15.775 0-15.775zM197.156 23.137c-5.113 0-5.125-8.738 0-8.738 5.156 0 5.15 8.738 0 8.738zM226.963 24.512v-7.719c0-3.363-3.838-2.863-5.356-0.656v8.375c0 2.581-3.988 2.631-3.988 0v-7.719c0-3.256-3.719-2.963-5.356-0.631v8.35c0 2.594-3.956 2.613-3.956 0v-11.512c0-2.5 3.944-2.6 3.944 0v0.213c0.619-0.9 2.613-2.331 4.912-2.331 2.206 0 3.606 1.025 4.169 2.738 0.869-1.363 2.863-2.738 5.162-2.738 2.769 0 4.419 1.463 4.419 4.544v9.081c0.031 1.081-0.844 1.962-1.994 1.962 0.219 0.006-1.956 0.069-1.956-1.956zM249.5 18.225c0-2.65-2.025-7.344-7.369-7.344-4.575 0-7.969 3.519-7.969 7.875 0 4.825 3.644 7.9 8.225 7.9 1.981 0 5.719-0.719 5.719-2.488 0-1.144-1.319-1.969-2.456-1.4-3.088 1.637-6.906 0.525-7.344-2.738h9.363c1.019 0 1.819-0.837 1.831-1.806zM238.219 17.356c0.606-4.65 7.244-4.269 7.506 0h-7.506z"></path>
</svg>
