<!-- Generated by IcoMoon.io -->
<svg version="1.1" xmlns="http://www.w3.org/2000/svg" width="28" height="32" viewBox="0 0 28 32">
<title>font</title>
<path d="M26.5 28h-2.288l-8.767-25.327c-0.14-0.395-0.51-0.673-0.945-0.673-0 0-0 0-0.001 0h-1c-0.435 0-0.805 0.278-0.943 0.666l-0.002 0.007-8.768 25.327h-2.288c-0.276 0-0.5 0.224-0.5 0.5v0 1c0 0.276 0.224 0.5 0.5 0.5v0h7c0.276 0 0.5-0.224 0.5-0.5v0-1c0-0.276-0.224-0.5-0.5-0.5v0h-2.595l2.769-8h10.652l2.769 8h-2.596c-0.276 0-0.5 0.224-0.5 0.5v0 1c0 0.276 0.224 0.5 0.5 0.5v0h7c0.276 0 0.5-0.224 0.5-0.5v0-1c0-0.276-0.224-0.5-0.5-0.5v0zM9.366 18l4.634-13.387 4.634 13.387z"></path>
</svg>
