<!-- Generated by IcoMoon.io -->
<svg version="1.1" xmlns="http://www.w3.org/2000/svg" width="40" height="32" viewBox="0 0 40 32">
<title>font-case</title>
<path d="M39.5 10h-1c-0.276 0-0.5 0.224-0.5 0.5v0 2.259c-1.466-1.678-3.597-2.759-6-2.759-4.418 0-8 3.582-8 8v0 2c0 4.418 3.582 8 8 8v0c2.403 0 4.534-1.081 6-2.759v2.259c0 0.276 0.224 0.5 0.5 0.5v0h1c0.276 0 0.5-0.224 0.5-0.5v0-17c0-0.276-0.224-0.5-0.5-0.5v0zM38 20c0 3.314-2.686 6-6 6s-6-2.686-6-6v0-2c0-3.314 2.686-6 6-6s6 2.686 6 6v0zM12.536 4.616c-0.155-0.365-0.51-0.616-0.923-0.616-0 0-0 0-0 0h-1.224c-0.414 0-0.769 0.251-0.921 0.61l-0.002 0.007-9.429 22.692c-0.024 0.057-0.038 0.123-0.038 0.192 0 0.276 0.224 0.5 0.5 0.5 0.001 0 0.002 0 0.003 0h1.080c0 0 0 0 0 0 0.207 0 0.384-0.126 0.46-0.305l0.001-0.003 3.196-7.692h11.523l3.196 7.692c0.077 0.182 0.255 0.308 0.462 0.308 0 0 0 0 0 0h1.084c0 0 0 0 0 0 0.276 0 0.5-0.224 0.5-0.5 0-0.069-0.014-0.135-0.040-0.195l0.001 0.003zM6.069 18l4.931-11.865 4.931 11.865z"></path>
</svg>
