<!-- Generated by IcoMoon.io -->
<svg version="1.1" xmlns="http://www.w3.org/2000/svg" width="32" height="32" viewBox="0 0 32 32">
<title>football-helmet</title>
<path d="M30 20h-7.781l-0.95-4.75 8.55-1.113c0.563-0.075 0.975-0.613 0.869-1.169-1.413-7.106-7.669-12.469-15.188-12.469-8.319 0-14.363 6.344-15.338 13.244-0.637 4.506 0.669 8.831 3.194 12.013 0.194 0.244 0.487 0.381 0.8 0.381h3.344l5.356 2.681c0.581 0.294 1.213 0.431 1.831 0.431 2.906 0 4.881-3.075 3.806-5.756l-0.594-1.494h2.681l0.594 3.087c0.594 2.962 3 5.2 5.994 5.575 2.75 0.344 2.656 0.337 2.831 0.337 1.406 0 2-1.231 2-2v-7c0-1.106-0.894-2-2-2zM17.1 20l-0.644-1.606c-1.119-2.806 2.819-2.887 2.825-2.887l0.9 4.494h-3.081zM17.8 13.681c-2.588 0.338-4.169 3.025-3.2 5.45l2.038 5.231c0.313 0.781 0.131 1.669-0.462 2.262-0.8 0.8-1.831 0.688-2.425 0.394-5.537-2.769-5.181-2.725-5.781-3.025h-3.338c-2.119-2.863-3-6.387-2.494-9.975 0.831-5.856 6.063-11.519 13.363-11.519 6.050 0 11.338 4.056 12.969 9.794l-10.669 1.387zM30 29l-2.581-0.325c-1.619-0.2-3-1.169-3.756-2.544h6.338v2.869zM30 24h-6.981l-0.4-2h7.381v2zM11 19.5c-0.831 0-1.5 0.669-1.5 1.5s0.669 1.5 1.5 1.5 1.5-0.669 1.5-1.5-0.669-1.5-1.5-1.5z"></path>
</svg>
