<!-- Generated by IcoMoon.io -->
<svg version="1.1" xmlns="http://www.w3.org/2000/svg" width="31" height="32" viewBox="0 0 31 32">
<title>football-ball-solid</title>
<path d="M30.094 3.769c-0.3-1.138-1.194-2.031-2.331-2.337-1.494-0.4-3.825-0.875-6.55-0.931l9.788 9.8c-0.050-2.719-0.512-5.037-0.906-6.531zM0.906 28.231c0.3 1.137 1.194 2.031 2.331 2.337 1.494 0.4 3.825 0.875 6.55 0.931l-9.787-9.8c0.050 2.719 0.512 5.038 0.906 6.531zM0.263 17.712l13.512 13.538c8.281-1.212 15.55-7.419 16.969-16.962l-13.519-13.537c-8.281 1.212-15.55 7.419-16.962 16.962zM20.094 9.988c0.194-0.194 0.512-0.194 0.706 0l0.706 0.706c0.194 0.194 0.194 0.512 0 0.706l-1.769 1.769 1.769 1.769c0.194 0.194 0.194 0.512 0 0.706l-0.706 0.706c-0.194 0.194-0.512 0.194-0.706 0l-1.769-1.769-1.413 1.419 1.769 1.769c0.194 0.194 0.194 0.512 0 0.706l-0.706 0.706c-0.194 0.194-0.512 0.194-0.706 0l-1.769-1.769-1.412 1.413 1.769 1.769c0.194 0.194 0.194 0.512 0 0.706l-0.706 0.706c-0.194 0.194-0.512 0.194-0.706 0l-1.769-1.769-1.769 1.769c-0.194 0.194-0.512 0.194-0.706 0l-0.706-0.706c-0.194-0.194-0.194-0.512 0-0.706l1.769-1.769-1.769-1.762c-0.194-0.194-0.194-0.512 0-0.706l0.706-0.706c0.194-0.194 0.512-0.194 0.706 0l1.769 1.769 1.412-1.413-1.769-1.769c-0.194-0.194-0.194-0.512 0-0.706l0.706-0.706c0.194-0.194 0.512-0.194 0.706 0l1.769 1.769 1.413-1.412-1.769-1.769c-0.194-0.194-0.194-0.512 0-0.706l0.706-0.706c0.194-0.194 0.512-0.194 0.706 0l1.769 1.769 1.769-1.781z"></path>
</svg>
