<!-- Generated by IcoMoon.io -->
<svg version="1.1" xmlns="http://www.w3.org/2000/svg" width="31" height="32" viewBox="0 0 31 32">
<title>football-ball</title>
<path d="M21.512 11.406l-1.769 1.769 1.769 1.769c0.194 0.194 0.194 0.512 0 0.706l-0.706 0.706c-0.194 0.194-0.512 0.194-0.706 0l-1.769-1.769-1.419 1.413 1.769 1.769c0.194 0.194 0.194 0.512 0 0.706l-0.706 0.706c-0.194 0.194-0.512 0.194-0.706 0l-1.769-1.769-1.412 1.413 1.769 1.769c0.194 0.194 0.194 0.512 0 0.706l-0.706 0.706c-0.194 0.194-0.512 0.194-0.706 0l-1.769-1.769-1.769 1.769c-0.194 0.194-0.512 0.194-0.706 0l-0.706-0.706c-0.194-0.194-0.194-0.512 0-0.706l1.769-1.769-1.775-1.762c-0.194-0.194-0.194-0.512 0-0.706l0.706-0.706c0.194-0.194 0.512-0.194 0.706 0l1.769 1.769 1.412-1.413-1.769-1.769c-0.194-0.194-0.194-0.512 0-0.706l0.706-0.706c0.194-0.194 0.512-0.194 0.706 0l1.769 1.769 1.412-1.412-1.769-1.769c-0.194-0.194-0.194-0.512 0-0.706l0.706-0.706c0.194-0.194 0.512-0.194 0.706 0l1.769 1.769 1.769-1.769c0.194-0.194 0.512-0.194 0.706 0l0.706 0.706c0.206 0.188 0.206 0.5 0.012 0.7zM25.094 25.606c-8.619 8.637-20.363 5.35-21.85 4.95-1.138-0.306-2.025-1.194-2.325-2.331-1.069-4.044-2.681-14.15 4.987-21.831 8.619-8.637 20.362-5.35 21.85-4.95 1.137 0.306 2.025 1.194 2.325 2.331 1.069 4.044 2.681 14.15-4.988 21.831zM27.244 3.375c-1.269-0.337-3.175-0.712-5.394-0.825l7.119 7.119c-0.1-2.231-0.481-4.131-0.813-5.381-0.119-0.444-0.469-0.794-0.913-0.913zM3.756 28.625c1.269 0.337 3.175 0.712 5.394 0.825l-7.112-7.119c0.1 2.231 0.481 4.131 0.813 5.381 0.112 0.444 0.462 0.794 0.906 0.913zM28.925 12.45l-9.887-9.881c-4.637 0.331-8.575 2.081-11.719 5.231-3.65 3.656-4.956 7.956-5.244 11.744l9.881 9.881c4.637-0.331 8.575-2.081 11.719-5.231 3.656-3.65 4.963-7.95 5.25-11.744z"></path>
</svg>
