<!-- Generated by IcoMoon.io -->
<svg version="1.1" xmlns="http://www.w3.org/2000/svg" width="32" height="32" viewBox="0 0 32 32">
<title>football-helmet-solid</title>
<path d="M30 20h-7.781l-0.95-4.75 8.55-1.113c0.563-0.075 0.975-0.613 0.869-1.169-1.55-7.806-8.944-13.506-17.444-12.306-6.706 0.944-12.131 6.375-13.081 13.081-0.637 4.506 0.669 8.694 3.194 11.875 0.194 0.244 0.487 0.381 0.8 0.381h3.344l5.356 2.813c1.575 0.788 3.481 0.481 4.731-0.769 2.262-2.262 0.681-5.119 0.313-6.044h2.681l0.594 2.956c0.594 2.962 3 5.331 5.994 5.706 2.75 0.344 2.656 0.337 2.831 0.337 1.406 0 2-1.231 2-2v-7c0-1.106-0.894-2-2-2zM11 22.5c-0.831 0-1.5-0.669-1.5-1.5s0.669-1.5 1.5-1.5 1.5 0.669 1.5 1.5-0.669 1.5-1.5 1.5zM17.1 20l-0.644-1.606c-0.488-1.212 0.306-2.556 1.6-2.725l1.225-0.162 0.9 4.494h-3.081zM30 29l-2.581-0.325c-1.619-0.2-3-1.169-3.756-2.544h6.338v2.869zM30 24h-6.981l-0.4-2h7.381v2z"></path>
</svg>
