<!-- Generated by IcoMoon.io -->
<svg version="1.1" xmlns="http://www.w3.org/2000/svg" width="40" height="32" viewBox="0 0 40 32">
<title>forklift</title>
<path d="M26 23.025v-6.2c0-0.544-0.113-1.075-0.325-1.575l-4.894-11.431c-0.475-1.106-1.556-1.819-2.762-1.819h-9.019c-1.656 0-3 1.344-3 3v7h-3c-1.656 0-3 1.344-3 3v12c0 2.762 2.237 5 5 5 2.419 0 4.438-1.719 4.9-4h8.2c0.462 2.281 2.481 4 4.9 4 2.762 0 5-2.238 5-5 0-1.631-0.794-3.063-2-3.975zM8 5c0-0.55 0.45-1 1-1h9.019c0.4 0 0.762 0.237 0.919 0.606l4.9 11.425c0.106 0.25 0.163 0.512 0.163 0.788v1.181h-8.519c-0.713 0-1.406-0.256-1.95-0.719l-5.531-4.744v-7.537zM5 30c-1.656 0-3-1.344-3-3s1.344-3 3-3 3 1.344 3 3-1.344 3-3 3zM18.1 26h-8.2c-0.463-2.281-2.481-4-4.9-4-1.131 0-2.163 0.387-3 1.025v-8.025c0-0.55 0.45-1 1-1h3.631l5.594 4.794c0.906 0.775 2.063 1.206 3.25 1.206h8.525v2.1c-0.325-0.069-0.656-0.1-1-0.1-2.419 0-4.438 1.719-4.9 4zM23 30c-1.656 0-3-1.344-3-3s1.344-3 3-3 3 1.344 3 3-1.344 3-3 3zM39.5 26h-7.5v-25.5c0-0.275-0.225-0.5-0.5-0.5h-1c-0.275 0-0.5 0.225-0.5 0.5v27c0 0.275 0.225 0.5 0.5 0.5h9c0.275 0 0.5-0.225 0.5-0.5v-1c0-0.275-0.225-0.5-0.5-0.5z"></path>
</svg>
