<!-- Generated by IcoMoon.io -->
<svg version="1.1" xmlns="http://www.w3.org/2000/svg" width="40" height="32" viewBox="0 0 40 32">
<title>forklift-solid</title>
<path d="M39 24h-5v-23c0-0.55-0.45-1-1-1h-2c-0.55 0-1 0.45-1 1v26c0 0.55 0.45 1 1 1h8c0.55 0 1-0.45 1-1v-2c0-0.55-0.45-1-1-1zM26 14.819c0-0.544-0.113-1.075-0.325-1.575l-4.894-11.425c-0.475-1.106-1.556-1.819-2.762-1.819h-9.019c-1.656 0-3 1.344-3 3v7h-3c-1.656 0-3 1.344-3 3v13c0 3.313 2.688 6 6 6s6-2.688 6-6h4c0 3.313 2.688 6 6 6s6-2.688 6-6c0-1.769-0.781-3.344-2-4.444v-6.738zM6 29c-1.656 0-3-1.344-3-3s1.344-3 3-3 3 1.344 3 3-1.344 3-3 3zM16 16l-6-6v-6h7.363l4.637 10.819v1.181h-6zM22 29c-1.656 0-3-1.344-3-3s1.344-3 3-3 3 1.344 3 3-1.344 3-3 3z"></path>
</svg>
