<!-- Generated by IcoMoon.io -->
<svg version="1.1" xmlns="http://www.w3.org/2000/svg" width="32" height="32" viewBox="0 0 32 32">
<title>forward</title>
<path d="M15.281 14.431l-12-9.969c-1.288-1.069-3.281-0.175-3.281 1.537v20c0 1.712 1.994 2.613 3.281 1.538l12-10.031c0.956-0.806 0.956-2.281 0-3.075zM14 15.963l-12 10.037v-20l12 9.963zM31.281 14.431l-12-9.963c-1.288-1.075-3.281-0.181-3.281 1.531v20c0 1.712 1.994 2.613 3.281 1.538l12-10.031c0.956-0.806 0.956-2.281 0-3.075zM30 15.963l-12 10.037v-20l12 9.963z"></path>
</svg>
