<!-- Generated by IcoMoon.io -->
<svg version="1.1" xmlns="http://www.w3.org/2000/svg" width="18" height="32" viewBox="0 0 18 32">
<title>fragile-solid</title>
<path d="M17.962 12.044l-1-11.131c-0.044-0.519-0.469-0.912-0.981-0.912h-3.969l1.912 3.981-5.344 3.5 3.088 6.519-7.594-7.481 5.344-3.5-2.050-3.019h-5.35c-0.512 0-0.938 0.394-0.981 0.912l-1 11.131c-0.45 5 3.169 9.306 7.963 9.85v8.106h-3.369c-1.531 0-2.075 2-1.25 2h11.238c0.819 0 0.281-2-1.25-2h-3.369v-8.106c4.794-0.55 8.413-4.85 7.962-9.85z"></path>
</svg>
