<!-- Generated by IcoMoon.io -->
<svg version="1.1" xmlns="http://www.w3.org/2000/svg" width="18" height="32" viewBox="0 0 18 32">
<title>fragile</title>
<path d="M13.369 30h-3.369v-8.106c4.794-0.544 8.413-4.85 7.962-9.85l-1-11.131c-0.044-0.519-0.469-0.912-0.981-0.912h-13.963c-0.512 0-0.938 0.394-0.981 0.912l-1 11.131c-0.45 5 3.169 9.306 7.963 9.85v8.106h-3.369c-1.531 0-2.075 2-1.25 2h11.238c0.819 0 0.281-2-1.25-2zM2.031 12.219l0.913-10.219h4.488l2.194 3.656c-5.169 3.1-3.8 2.281-5.394 3.238 1.694 1.313 0.781 0.606 7.094 5.494 0.206 0.156 0.5 0.144 0.688-0.044 0.206-0.2 0.206-0.531 0-0.738l-4.406-4.412c4.506-2.706 3.644-2.188 4.762-2.856l-2.6-4.338h5.287l0.912 10.219c0.319 3.575-2.294 7.781-6.969 7.781s-7.294-4.194-6.969-7.781z"></path>
</svg>
