<!-- Generated by IcoMoon.io -->
<svg version="1.1" xmlns="http://www.w3.org/2000/svg" width="32" height="32" viewBox="0 0 32 32">
<title>french-fries-solid</title>
<path d="M27 14h-2.125c-0.433 0-0.856 0.267-0.949 0.688-0.538 2.438-3.881 4.313-7.924 4.313s-7.387-1.875-7.924-4.313c-0.093-0.422-0.517-0.688-0.949-0.688h-2.127c0 0-0 0-0 0-0.552 0-1 0.448-1 1 0 0.077 0.009 0.152 0.025 0.224l-0.001-0.007 3.381 15.217c0.206 0.903 1.002 1.566 1.952 1.566 0 0 0.001 0 0.001 0h13.284c0 0 0 0 0 0 0.951 0 1.747-0.664 1.95-1.553l0.003-0.013 3.381-15.217c0.015-0.065 0.024-0.14 0.024-0.217 0-0.552-0.447-1-0.999-1h-0zM21.972 14.259c0.025-0.111 0.091-0.201 0.129-0.307l1.884-10.779c0.009-0.052 0.015-0.111 0.015-0.172 0-0.552-0.448-1-1-1-0.102 0-0.2 0.015-0.293 0.044l0.007-0.002-2.142 0.641c-0.265 0.079-0.448 0.282-0.571 0.521v12.954c1.097-0.524 1.822-1.221 1.971-1.9zM26.966 12l1.019-5.827c0.009-0.052 0.015-0.111 0.015-0.172 0-0.552-0.448-1-1-1-0.102 0-0.2 0.015-0.293 0.044l0.007-0.002-1.082 0.323-1.172 6.704c0.14-0.020 0.271-0.070 0.414-0.070zM18 16.799v-14.799c0-0 0-0 0-0 0-0.389-0.222-0.726-0.547-0.892l-0.006-0.003-2-1c-0.13-0.067-0.284-0.106-0.447-0.106-0.552 0-1 0.448-1 1 0 0 0 0 0 0v0 15.799c0.601 0.128 1.292 0.201 2 0.201s1.399-0.073 2.065-0.213l-0.065 0.011zM7.125 12c0.225 0 0.438 0.063 0.647 0.109l-1.25-6.697-1.234-0.369c-0.086-0.027-0.185-0.042-0.287-0.042-0.552 0-1 0.448-1 1 0 0.061 0.005 0.12 0.016 0.178l-0.001-0.006 1.019 5.827zM12 16.159v-14.086l-0.235-1.256c-0.090-0.468-0.496-0.816-0.983-0.816-0.228 0-0.438 0.076-0.606 0.205l0.002-0.002-1.782 1.351c-0.242 0.184-0.396 0.473-0.396 0.797 0 0.065 0.006 0.128 0.018 0.19l-0.001-0.006 2.306 12.326c0.331 0.474 0.906 0.929 1.677 1.297z"></path>
</svg>
