<!-- Generated by IcoMoon.io -->
<svg version="1.1" xmlns="http://www.w3.org/2000/svg" width="32" height="32" viewBox="0 0 32 32">
<title>french-fries</title>
<path d="M27.331 5.509c-0.35-0.316-0.815-0.509-1.326-0.509-0.206 0-0.405 0.032-0.593 0.090l0.014-0.004-0.619 0.188 0.161-0.923c0.019-0.104 0.030-0.224 0.030-0.346 0-1.105-0.895-2-2-2-0.204 0-0.402 0.031-0.587 0.088l0.014-0.004-2.141 0.638c-0.6 0.186-1.069 0.634-1.281 1.208l-0.004 0.014v-0.948c0-0.002 0-0.004 0-0.006 0-0.777-0.445-1.45-1.094-1.778l-0.011-0.005-2-1c-0.261-0.133-0.568-0.211-0.894-0.211-1.105 0-2 0.895-2 2 0 0 0 0 0 0.001v-0 0.982l-0.25-1.347c-0.179-0.936-0.991-1.633-1.966-1.633-0.457 0-0.878 0.153-1.214 0.411l0.005-0.004-1.779 1.349c-0.485 0.365-0.796 0.939-0.796 1.586 0 0.133 0.013 0.263 0.038 0.388l-0.002-0.013 0.298 1.592-0.759-0.227c-0.171-0.053-0.368-0.084-0.572-0.084-1.105 0-2 0.895-2 2 0 0.121 0.011 0.24 0.032 0.356l-0.002-0.012 1.219 6.959c-0.219 0.117-0.406 0.266-0.561 0.443l-0.002 0.002c-0.274 0.339-0.44 0.776-0.44 1.252 0 0.154 0.017 0.305 0.051 0.449l-0.003-0.013 3.111 14c0.207 0.901 1.002 1.563 1.952 1.563 0 0 0 0 0 0h13.284c0 0 0 0 0 0 0.951 0 1.747-0.664 1.95-1.553l0.003-0.013 3.111-14c0.037-0.139 0.058-0.299 0.058-0.464 0-0.721-0.407-1.347-1.004-1.661l-0.010-0.005 1.219-6.957c0.020-0.106 0.032-0.228 0.032-0.352 0-0.591-0.258-1.121-0.668-1.485l-0.002-0.002zM24.422 7.474l1.578-0.474-1.262 7.22c-0.445 0.209-0.791 0.566-0.983 1.005l-0.005 0.013c-0.199 0.483-0.524 0.927-0.921 1.337zM20.86 4.643l2.14-0.643-2.465 14.1c-0.425 0.19-0.936 0.368-1.464 0.504l-0.071 0.016v-3.354zM17 3v15.948c-0.33 0.026-0.661 0.052-1 0.052s-0.67-0.027-1-0.052v-16.948zM10.783 2l2.217 11.857v4.763c-0.49-0.125-0.896-0.259-1.29-0.415l0.072 0.025-2.782-14.877zM6.287 6.044l-0.287 0.956 1.746 0.522 1.75 9.368c-0.563-0.491-1-1.044-1.25-1.654-0.197-0.453-0.544-0.81-0.977-1.014l-0.012-0.005-1.262-7.217zM22.642 30h-13.284l-3.108-14c1.215 2.944 5.221 5 9.753 5s8.539-2.055 9.753-5z"></path>
</svg>
