<!-- Generated by IcoMoon.io -->
<svg version="1.1" xmlns="http://www.w3.org/2000/svg" width="36" height="32" viewBox="0 0 36 32">
<title>frog</title>
<path d="M23 7.5c-0.828 0-1.5 0.671-1.5 1.5s0.672 1.5 1.5 1.5 1.5-0.672 1.5-1.5c0-0.829-0.672-1.5-1.5-1.5zM34.667 28h-4.218l-6.43-7.233 10.124-5.725c1.116-0.635 1.857-1.816 1.857-3.17 0-0 0-0 0-0v0c0-1.337-0.733-2.559-1.905-3.202-2.535-1.389-6.187-2.579-6.187-2.579-0.429-2.326-2.459-4.090-4.908-4.090-2.452 0-4.483 1.768-4.909 4.096-10.169 0.964-18.122 9.536-18.091 19.965 0.007 2.182 1.817 3.939 4 3.939h19.333c0.368 0 0.667-0.299 0.667-0.667 0-0.736-0.597-1.333-1.333-1.333h-3.916l2.154-2.87c0.667-0.985 1.072-2.195 1.093-3.498l0-0.005 7.553 8.374h5.782c0.368 0 0.667-0.299 0.667-0.667 0-0.736-0.597-1.333-1.333-1.333zM21.677 19.567c-0.388-1.238-1.127-2.375-2.226-3.219-2.369-1.82-5.719-1.664-8.109 0.129l-1.942 1.457c-0.441 0.331-0.531 0.958-0.201 1.401 0.332 0.442 0.959 0.528 1.401 0.199l2.036-1.527c1.471-1.103 3.483-1.333 5.078-0.419 2.313 1.325 2.959 4.286 1.56 6.387l-3.021 4.025h-12.252c-1.099 0-1.997-0.872-2-1.945-0.028-9.361 6.971-17.085 16.28-17.968l1.506-0.143 0.273-1.488c0.26-1.423 1.497-2.456 2.941-2.456 1.442 0 2.679 1.031 2.941 2.453l0.216 1.169 1.13 0.369c0.035 0.011 3.509 1.152 5.846 2.432 0.534 0.293 0.866 0.848 0.866 1.448 0 0.591-0.32 1.137-0.836 1.426l-11.487 6.27z"></path>
</svg>
