<!-- Generated by IcoMoon.io -->
<svg version="1.1" xmlns="http://www.w3.org/2000/svg" width="36" height="32" viewBox="0 0 36 32">
<title>frog-solid</title>
<path d="M27.908 6.089c-0.429-2.325-2.459-4.089-4.908-4.089-2.452 0-4.483 1.768-4.909 4.096-10.169 0.964-18.122 9.536-18.091 19.965 0.007 2.183 1.817 3.939 4 3.939h19c0.552 0 1-0.448 1-1 0-1.104-0.896-2-2-2h-4.968l2.238-3.021c1.509-2.264 0.647-5.518-2.107-6.662-1.493-0.621-3.222-0.291-4.515 0.68l-2.047 1.537c-0.441 0.332-1.068 0.244-1.401-0.199-0.331-0.442-0.242-1.069 0.199-1.401l2.174-1.631c2.303-1.729 5.518-1.726 7.821 0 0.679 0.509 2.867 2.441 2.55 5.826l7.408 7.871h5.649c0.553 0 1-0.448 1-1 0-1.104-0.896-2-2-2h-3.352l-6.157-6.543 9.652-5.416c1.116-0.635 1.857-1.816 1.857-3.17 0-0 0-0 0-0v0c0-1.338-0.733-2.559-1.905-3.202-2.535-1.389-6.187-2.58-6.187-2.58zM23 8.5c-0.829 0-1.5-0.672-1.5-1.5s0.671-1.5 1.5-1.5c0.828 0 1.5 0.671 1.5 1.5s-0.672 1.5-1.5 1.5z"></path>
</svg>
