<!-- Generated by IcoMoon.io -->
<svg version="1.1" xmlns="http://www.w3.org/2000/svg" width="24" height="32" viewBox="0 0 24 32">
<title>frosty-head-solid</title>
<path d="M20 1c0-0.55-0.45-1-1-1h-14c-0.55 0-1 0.45-1 1v12h16v-12zM23 15h-22c-0.55 0-1 0.45-1 1v1c0 0.55 0.45 1 1 1h1.525c-0.656 1.381-1.025 2.925-1.025 4.556 0 3.744 1.956 7.006 4.888 8.875 0.638 0.406 1.406 0.569 2.163 0.569h6.85c0.919 0 1.819-0.288 2.569-0.813 3.212-2.238 5.137-6.212 4.344-10.6-0.163-0.906-0.469-1.769-0.856-2.587h1.544c0.55 0 1-0.45 1-1v-1c0-0.55-0.45-1-1-1zM8.169 22.669c-0.737 0-1.331-0.6-1.331-1.331 0-0.738 0.6-1.331 1.331-1.331 0.738 0 1.331 0.6 1.331 1.331s-0.6 1.331-1.331 1.331zM12 29s-2-2.894-2-4c0-1.106 0.894-2 2-2s2 0.894 2 2-2 4-2 4zM15.831 22.669c-0.738 0-1.331-0.6-1.331-1.331 0-0.738 0.6-1.331 1.331-1.331 0.738 0 1.331 0.6 1.331 1.331 0.006 0.731-0.594 1.331-1.331 1.331z"></path>
</svg>
