<!-- Generated by IcoMoon.io -->
<svg version="1.1" xmlns="http://www.w3.org/2000/svg" width="24" height="32" viewBox="0 0 24 32">
<title>frosty-head</title>
<path d="M23.5 14h-3.5v-12c0-1.106-0.894-2-2-2h-12c-1.106 0-2 0.894-2 2v12h-3.5c-0.275 0-0.5 0.225-0.5 0.5v1c0 0.275 0.225 0.5 0.5 0.5h2.344c-1.156 1.75-1.844 3.844-1.844 6.106 0 3.925 2.050 7.344 5.125 9.3 0.669 0.425 1.475 0.594 2.262 0.594h1.35c-0.275-0.394-0.738-1.063-1.3-2h-0.044c-0.344 0-0.825-0.050-1.188-0.281-2.638-1.675-4.206-4.519-4.206-7.613 0-2.369 0.931-4.5 2.425-6.106h13.231c1.1 1.219 1.887 2.731 2.194 4.4 0.644 3.569-0.788 7.056-3.731 9.106-0.462 0.319-0.994 0.488-1.55 0.488-0.563 0.938-1.031 1.606-1.3 2h1.3c0.962 0 1.906-0.3 2.694-0.85 3.369-2.35 5.381-6.506 4.55-11.106-0.269-1.475-0.869-2.831-1.681-4.044h2.369c0.275 0 0.5-0.225 0.5-0.5v-1c0-0.269-0.225-0.494-0.5-0.494zM18 14h-12v-4h12v4zM18 8h-12v-6h12v6zM15.331 25.331c0-1.837-1.494-3.331-3.331-3.331s-3.331 1.494-3.331 3.331c0 1.725 2.45 5.144 3.331 6.425 0.887-1.281 3.331-4.7 3.331-6.425zM12 24c0.738 0 1.331 0.6 1.331 1.331 0 0.419-0.606 1.625-1.331 2.825-0.725-1.194-1.331-2.406-1.331-2.825 0-0.731 0.594-1.331 1.331-1.331zM16 22c0.738 0 1.331-0.6 1.331-1.331 0-0.738-0.6-1.331-1.331-1.331-0.738 0-1.331 0.6-1.331 1.331s0.594 1.331 1.331 1.331zM9.331 20.669c0-0.738-0.6-1.331-1.331-1.331-0.737 0-1.331 0.6-1.331 1.331 0 0.738 0.6 1.331 1.331 1.331 0.738 0 1.331-0.6 1.331-1.331z"></path>
</svg>
