<!-- Generated by IcoMoon.io -->
<svg version="1.1" xmlns="http://www.w3.org/2000/svg" width="31" height="32" viewBox="0 0 31 32">
<title>frown-open-solid</title>
<path d="M15.5 0.5c-8.563 0-15.5 6.938-15.5 15.5s6.938 15.5 15.5 15.5 15.5-6.938 15.5-15.5-6.938-15.5-15.5-15.5zM8.5 13c0-1.106 0.894-2 2-2s2 0.894 2 2-0.894 2-2 2-2-0.894-2-2zM20.206 24.456c-1.95-0.6-3.712-0.956-4.706-0.956s-2.756 0.356-4.706 0.956c-0.719 0.219-1.406-0.394-1.281-1.131 0.438-2.5 3.756-3.825 5.988-3.825s5.55 1.331 5.988 3.825c0.125 0.744-0.569 1.35-1.281 1.131zM20.5 15c-1.106 0-2-0.894-2-2s0.894-2 2-2 2 0.894 2 2-0.894 2-2 2z"></path>
</svg>
