<!-- Generated by IcoMoon.io -->
<svg version="1.1" xmlns="http://www.w3.org/2000/svg" width="31" height="32" viewBox="0 0 31 32">
<title>frown-solid</title>
<path d="M15.5 0.5c-8.563 0-15.5 6.938-15.5 15.5s6.938 15.5 15.5 15.5 15.5-6.938 15.5-15.5-6.938-15.5-15.5-15.5zM20.5 11c1.106 0 2 0.894 2 2s-0.894 2-2 2-2-0.894-2-2 0.894-2 2-2zM10.5 11c1.106 0 2 0.894 2 2s-0.894 2-2 2-2-0.894-2-2 0.894-2 2-2zM21.137 24.637c-1.4-1.675-3.456-2.637-5.637-2.637s-4.238 0.962-5.637 2.637c-0.844 1.019-2.381-0.262-1.537-1.281 1.781-2.131 4.4-3.356 7.175-3.356s5.394 1.225 7.169 3.363c0.85 1.012-0.688 2.294-1.531 1.275z"></path>
</svg>
