<!-- Generated by IcoMoon.io -->
<svg version="1.1" xmlns="http://www.w3.org/2000/svg" width="31" height="32" viewBox="0 0 31 32">
<title>frown-open</title>
<path d="M15.5 0.5c-8.563 0-15.5 6.938-15.5 15.5s6.938 15.5 15.5 15.5 15.5-6.938 15.5-15.5-6.938-15.5-15.5-15.5zM15.5 29.5c-7.444 0-13.5-6.056-13.5-13.5s6.056-13.5 13.5-13.5 13.5 6.056 13.5 13.5-6.056 13.5-13.5 13.5zM10.5 15c1.106 0 2-0.894 2-2s-0.894-2-2-2-2 0.894-2 2 0.894 2 2 2zM20.5 11c-1.106 0-2 0.894-2 2s0.894 2 2 2 2-0.894 2-2-0.894-2-2-2zM15.5 18c-2.481 0-6.412 1.481-6.969 4.656-0.119 0.681 0.125 1.387 0.644 1.844 0.512 0.456 1.244 0.619 1.912 0.413 1.831-0.563 3.525-0.913 4.412-0.913s2.581 0.35 4.413 0.913c0.481 0.15 1.256 0.163 1.913-0.413 0.512-0.456 0.762-1.163 0.644-1.844-0.556-3.175-4.488-4.656-6.969-4.656zM15.5 22c-1.106 0-2.931 0.363-5 1 0.325-1.856 3.131-3 5-3s4.675 1.144 5 3c-2.069-0.637-3.894-1-5-1z"></path>
</svg>
