<!-- Generated by IcoMoon.io -->
<svg version="1.1" xmlns="http://www.w3.org/2000/svg" width="40" height="32" viewBox="0 0 40 32">
<title>function-solid</title>
<path d="M18.046 20c0-3.271 1.060-6.451 3.001-9.059 0.323-0.434 0.278-1.034-0.134-1.384l-1.543-1.311c-0.438-0.372-1.114-0.318-1.461 0.139-2.527 3.329-3.908 7.414-3.908 11.615s1.381 8.287 3.908 11.615c0.348 0.458 1.024 0.511 1.461 0.139l1.543-1.312c0.412-0.351 0.457-0.95 0.134-1.384-1.941-2.607-3.001-5.788-3.001-9.059zM14 1c0-0.552-0.447-1-1-1h-3c-3.59 0-6.5 2.91-6.5 6.5v4h-2.5c-0.552 0-1 0.447-1 1v3c0 0.553 0.448 1 1 1h2.5v8c0 0.825-0.675 1.5-1.5 1.5h-1c-0.552 0-1 0.448-1 1v3c0 0.552 0.448 1 1 1h1c3.59 0 6.5-2.91 6.5-6.5v-8h2.5c0.553 0 1-0.447 1-1v-3c0-0.553-0.447-1-1-1h-2.5v-4c0-0.825 0.675-1.5 1.5-1.5h3c0.553 0 1-0.447 1-1v-3zM36.093 8.385c-0.347-0.457-1.024-0.511-1.461-0.139l-1.543 1.311c-0.412 0.351-0.457 0.95-0.134 1.384 1.941 2.607 3.001 5.788 3.001 9.059s-1.060 6.452-3.001 9.059c-0.323 0.434-0.278 1.034 0.134 1.384l1.543 1.312c0.438 0.372 1.114 0.318 1.461-0.139 2.527-3.33 3.907-7.414 3.907-11.616s-1.381-8.287-3.907-11.615zM32.707 22.879l-2.879-2.879 2.879-2.879c0.391-0.391 0.391-1.024 0-1.414l-1.414-1.414c-0.391-0.391-1.024-0.391-1.414 0l-2.879 2.879-2.879-2.879c-0.391-0.391-1.024-0.391-1.414 0l-1.414 1.414c-0.391 0.391-0.391 1.024 0 1.414l2.879 2.879-2.879 2.879c-0.391 0.391-0.391 1.024 0 1.414l1.414 1.414c0.391 0.391 1.024 0.391 1.414 0l2.879-2.879 2.879 2.879c0.391 0.391 1.024 0.391 1.414 0l1.414-1.414c0.391-0.391 0.391-1.024 0-1.414z"></path>
</svg>
