<!-- Generated by IcoMoon.io -->
<svg version="1.1" xmlns="http://www.w3.org/2000/svg" width="40" height="32" viewBox="0 0 40 32">
<title>function</title>
<path d="M19.3 6.662l-0.794-0.569c-0.225-0.162-0.538-0.112-0.7 0.112-2.494 3.556-3.813 7.625-3.813 11.794s1.319 8.238 3.813 11.794c0.156 0.225 0.475 0.275 0.7 0.113l0.794-0.569c0.212-0.156 0.262-0.45 0.106-0.663-2.262-3.225-3.45-6.906-3.45-10.675s1.194-7.444 3.45-10.675c0.156-0.213 0.113-0.506-0.106-0.662zM14 2.5c0-0.275-0.225-0.5-0.5-0.5h-3.5c-2.763 0-5 2.237-5 5v5h-4.5c-0.275 0-0.5 0.225-0.5 0.5v1c0 0.275 0.225 0.5 0.5 0.5h4.5v9c0 1.656-1.344 3-3 3h-1.5c-0.275 0-0.5 0.225-0.5 0.5v1c0 0.275 0.225 0.5 0.5 0.5h1.5c2.763 0 5-2.238 5-5v-9h4.5c0.275 0 0.5-0.225 0.5-0.5v-1c0-0.275-0.225-0.5-0.5-0.5h-4.5v-5c0-1.656 1.344-3 3-3h3.5c0.275 0 0.5-0.225 0.5-0.5zM36.188 6.206c-0.156-0.225-0.475-0.275-0.7-0.112l-0.794 0.569c-0.212 0.156-0.263 0.45-0.106 0.662 2.263 3.225 3.45 6.906 3.45 10.675s-1.194 7.444-3.45 10.675c-0.15 0.219-0.106 0.512 0.106 0.663l0.794 0.569c0.225 0.163 0.544 0.113 0.7-0.113 2.494-3.556 3.813-7.625 3.813-11.794s-1.319-8.238-3.813-11.794zM31.856 13.85l-0.706-0.706c-0.194-0.194-0.512-0.194-0.706 0l-3.438 3.437-3.438-3.438c-0.194-0.194-0.512-0.194-0.706 0l-0.706 0.706c-0.194 0.194-0.194 0.512 0 0.706l3.438 3.438-3.438 3.438c-0.194 0.194-0.194 0.512 0 0.706l0.706 0.706c0.194 0.194 0.512 0.194 0.706 0l3.438-3.438 3.438 3.438c0.194 0.194 0.512 0.194 0.706 0l0.706-0.706c0.194-0.194 0.194-0.512 0-0.706l-3.438-3.438 3.438-3.438c0.194-0.194 0.194-0.506 0-0.706z"></path>
</svg>
