<!-- Generated by IcoMoon.io -->
<svg version="1.1" xmlns="http://www.w3.org/2000/svg" width="40" height="32" viewBox="0 0 40 32">
<title>funnel-dollar-solid</title>
<path d="M27.091 10.371l6.325-6.992c1.247-1.247 0.364-3.379-1.4-3.379h-30.032c-1.764 0-2.647 2.132-1.4 3.379l11.416 12.621v9.745c0 0.787 0.371 1.527 1 2l4.999 3.75c1.304 0.977 3.029 0.436 3.701-0.848-2.276-2.186-3.701-5.25-3.701-8.647 0-5.612 3.878-10.323 9.091-11.629zM30 12c-5.523 0-10 4.477-10 10s4.477 10 10 10 10-4.477 10-10-4.477-10-10-10zM31 26.992v1.008c0 0.276-0.224 0.5-0.5 0.5h-1c-0.276 0-0.5-0.224-0.5-0.5v-1.018c-0.706-0.036-1.392-0.282-1.961-0.709-0.244-0.183-0.256-0.548-0.036-0.759l0.734-0.701c0.173-0.165 0.431-0.172 0.633-0.046 0.242 0.151 0.516 0.233 0.801 0.233h1.757c0.406 0 0.738-0.37 0.738-0.824 0-0.372-0.226-0.699-0.548-0.796l-2.813-0.844c-1.162-0.349-1.974-1.464-1.974-2.712 0-1.532 1.191-2.777 2.667-2.817v-1.008c0-0.276 0.224-0.5 0.5-0.5h1c0.276 0 0.5 0.224 0.5 0.5v1.018c0.706 0.036 1.392 0.282 1.961 0.709 0.244 0.183 0.256 0.548 0.036 0.759l-0.734 0.701c-0.173 0.165-0.431 0.172-0.633 0.046-0.242-0.152-0.516-0.233-0.801-0.233h-1.757c-0.406 0-0.738 0.37-0.738 0.824 0 0.372 0.226 0.699 0.548 0.796l2.813 0.844c1.162 0.349 1.974 1.464 1.974 2.712 0 1.533-1.19 2.777-2.667 2.817z"></path>
</svg>
