<!-- Generated by IcoMoon.io -->
<svg version="1.1" xmlns="http://www.w3.org/2000/svg" width="40" height="32" viewBox="0 0 40 32">
<title>funnel-dollar</title>
<path d="M29.001 10c-0.294 0-0.582 0.021-0.871 0.044l7.373-7.163c1.060-1.060 0.309-2.881-1.193-2.881h-32.621c-1.499 0-2.255 1.819-1.193 2.881l13.504 13.119v11.375c0 0.551 0.269 1.067 0.72 1.383l4.625 2.936c0.301 0.211 0.634 0.306 0.96 0.306 0.874 0 1.695-0.689 1.695-1.689v-0.826c1.902 1.57 4.341 2.513 7.001 2.513 6.084 0 10.999-4.924 10.999-10.999 0-6.084-4.924-10.999-10.999-10.999zM20 29.625l-4-2.404v-12.066l-13.541-13.154h31.081l-9.419 9.151c-3.626 1.799-6.119 5.526-6.119 9.848 0 2.353 0.742 4.526 1.997 6.313v2.314zM29.001 29.997c-4.962 0-8.999-4.037-8.999-8.999s4.037-8.999 8.999-8.999 8.999 4.037 8.999 8.999-4.037 8.999-8.999 8.999zM30.696 20.464l-2.813-0.844c-0.323-0.097-0.548-0.424-0.548-0.796 0-0.454 0.331-0.824 0.738-0.824h1.757c0.285 0 0.56 0.081 0.801 0.233 0.203 0.127 0.46 0.119 0.633-0.046l0.734-0.701c0.221-0.211 0.208-0.576-0.036-0.759-0.569-0.427-1.255-0.673-1.961-0.709v-1.018c0-0.276-0.224-0.5-0.5-0.5h-1c-0.276 0-0.5 0.224-0.5 0.5v1.007c-1.476 0.039-2.667 1.284-2.667 2.817 0 1.248 0.811 2.363 1.974 2.712l2.813 0.844c0.323 0.097 0.548 0.424 0.548 0.796 0 0.454-0.331 0.824-0.738 0.824h-1.757c-0.285 0-0.56-0.081-0.801-0.233-0.203-0.127-0.46-0.119-0.633 0.046l-0.734 0.701c-0.221 0.211-0.208 0.576 0.036 0.759 0.569 0.427 1.255 0.673 1.961 0.709v1.018c0 0.276 0.224 0.5 0.5 0.5h1c0.276 0 0.5-0.224 0.5-0.5v-1.008c1.476-0.039 2.667-1.284 2.667-2.817 0-1.248-0.811-2.363-1.974-2.712z"></path>
</svg>
