<!-- Generated by IcoMoon.io -->
<svg version="1.1" xmlns="http://www.w3.org/2000/svg" width="31" height="32" viewBox="0 0 31 32">
<title>futbol</title>
<path d="M30.231 11.213c-2.125-6.55-8.2-10.713-14.725-10.713-10.431 0-18.006 10.213-14.738 20.288 2.125 6.55 8.213 10.712 14.731 10.712 10.431 0 18-10.212 14.731-20.288zM27.544 22.069l-5.894 0.725-1.113-1.556 2.106-6.506 1.806-0.563 4.35 4.062c-0.225 1.319-0.644 2.613-1.256 3.837zM2.225 18.219l4.338-4.056 1.806 0.563 2.119 6.481-1.131 1.575-5.888-0.725c-0.813-1.625-1.075-2.825-1.244-3.837zM14.506 6.925v2.056l-5.369 3.894-1.969-0.613-1.125-5.869c0.956-0.944 2.050-1.737 3.25-2.362l5.213 2.894zM23.844 12.262l-1.969 0.613-5.369-3.894v-2.056l5.225-2.9c1.194 0.625 2.294 1.419 3.25 2.369l-1.137 5.869zM10.381 14.45l5.125-3.719 5.131 3.725-1.944 6h-6.35l-1.963-6.006zM28.988 15.669l-3.194-2.981 0.831-4.269c2.156 3.175 2.331 6.075 2.363 7.25zM19.325 3.075l-3.819 2.119-3.813-2.112c4.469-1.325 7.625-0.006 7.631-0.006zM4.394 8.381l0.825 4.306-3.194 2.969c0.050-1.988 0.544-3.963 1.475-5.787 0.263-0.519 0.569-1.012 0.894-1.488zM4.862 24.256l4.294 0.525 1.825 3.919c-2.425-0.863-4.544-2.406-6.119-4.444zM13.481 29.337l-2.506-5.375 1.088-1.512h6.887l1.081 1.512-2.506 5.375c-1.419 0.219-2.65 0.212-4.044 0zM20.031 28.7l1.825-3.919 4.313-0.531c-1.563 2.038-3.675 3.569-6.137 4.45z"></path>
</svg>
