<!-- Generated by IcoMoon.io -->
<svg version="1.1" xmlns="http://www.w3.org/2000/svg" width="32" height="32" viewBox="0 0 32 32">
<title>futbol-solid</title>
<path d="M31.5 16c0 8.56-6.94 15.5-15.5 15.5s-15.5-6.94-15.5-15.5 6.94-15.5 15.5-15.5 15.5 6.94 15.5 15.5zM28.5 16l-0-0.018-1.629 1.421-3.917-3.656 1.028-5.272 2.144 0.192c-1.556-2.139-3.75-3.756-6.294-4.571l0.853 1.996-4.685 2.595-4.685-2.595 0.853-1.996c-2.539 0.814-4.736 2.429-6.294 4.571l2.16-0.192 1.012 5.272-3.917 3.656-1.629-1.421-0 0.018c0 2.688 0.844 5.247 2.405 7.374l0.481-2.119 5.321 0.653 2.269 4.864-1.869 1.112c2.513 0.82 5.268 0.822 7.786 0l-1.869-1.112 2.269-4.864 5.321-0.653 0.482 2.119c1.561-2.127 2.405-4.686 2.405-7.374zM12.994 20.348l-1.868-5.707 4.875-3.533 4.875 3.533-1.851 5.707h-6.030z"></path>
</svg>
