<!-- Generated by IcoMoon.io -->
<svg version="1.1" xmlns="http://www.w3.org/2000/svg" width="32" height="32" viewBox="0 0 32 32">
<title>galaxy-solid</title>
<path d="M31.661 17.131c-1.050-4.444-4.709-7.99-9.187-8.884-0.728-0.155-1.564-0.244-2.421-0.244-1.411 0-2.767 0.241-4.027 0.683l0.085-0.026c0.483-3.128 2.522-5.689 5.287-6.899l0.058-0.023c0.832-0.356 0.645-1.589-0.256-1.679-0.362-0.038-0.782-0.059-1.207-0.059-1.016 0-2.003 0.123-2.947 0.356l0.084-0.018c-4.444 1.050-7.99 4.709-8.884 9.187-0.155 0.728-0.244 1.564-0.244 2.421 0 1.411 0.241 2.767 0.683 4.027l-0.026-0.085c-3.128-0.483-5.689-2.522-6.899-5.287l-0.023-0.058c-0.356-0.832-1.589-0.645-1.679 0.256-0.038 0.362-0.059 0.782-0.059 1.207 0 1.016 0.123 2.003 0.356 2.947l-0.018-0.084c1.050 4.444 4.709 7.99 9.187 8.884 0.728 0.155 1.564 0.244 2.421 0.244 1.411 0 2.767-0.241 4.027-0.683l-0.085 0.026c-0.483 3.128-2.522 5.689-5.287 6.899l-0.058 0.023c-0.832 0.356-0.645 1.589 0.256 1.679 0.362 0.038 0.782 0.059 1.207 0.059 1.016 0 2.003-0.123 2.947-0.356l-0.084 0.018c4.444-1.050 7.99-4.709 8.884-9.187 0.155-0.728 0.244-1.564 0.244-2.421 0-1.411-0.241-2.767-0.683-4.027l0.026 0.085c3.128 0.483 5.689 2.522 6.899 5.287l0.023 0.058c0.356 0.832 1.589 0.645 1.679-0.256 0.038-0.362 0.059-0.782 0.059-1.207 0-1.016-0.123-2.003-0.356-2.947l0.018 0.084zM16 19c-1.657 0-3-1.343-3-3s1.343-3 3-3c1.657 0 3 1.343 3 3v0c0 0 0 0 0 0 0 1.657-1.343 3-3 3 0 0 0 0 0 0v0z"></path>
</svg>
