<!-- Generated by IcoMoon.io -->
<svg version="1.1" xmlns="http://www.w3.org/2000/svg" width="32" height="32" viewBox="0 0 32 32">
<title>galaxy</title>
<path d="M16 12.001c-2.209 0-4 1.791-4 4s1.791 4 4 4c2.209 0 4-1.791 4-4v0c-0.003-2.208-1.792-3.997-4-4h-0zM16 18c-1.105 0-2-0.895-2-2s0.895-2 2-2c1.105 0 2 0.895 2 2v0c0 0 0 0 0 0 0 1.105-0.895 2-2 2-0 0-0 0-0 0v0zM31.654 16.682l-0.002-0.001c-1.078-4.572-4.894-8.26-9.49-9.177-0.756-0.159-1.626-0.251-2.517-0.252h-0.001c-0.001 0-0.002 0-0.003 0-0.452 0-0.898 0.024-1.337 0.072l0.054-0.005c0.724-1.275 1.817-2.267 3.133-2.847l0.043-0.017c1.866-0.797 2.439-4.455-1.913-4.456-1.045 0.002-2.059 0.128-3.030 0.366l0.088-0.018c-4.57 1.081-8.258 4.895-9.176 9.492-0.157 0.747-0.247 1.606-0.247 2.486 0 0.464 0.025 0.923 0.074 1.375l-0.005-0.056c-1.278-0.722-2.274-1.816-2.854-3.134l-0.017-0.043c-0.927-2.174-4.157-1.693-4.393 0.67-0.040 0.374-0.062 0.808-0.062 1.248 0 1.041 0.127 2.053 0.365 3.021l-0.018-0.086c1.078 4.572 4.894 8.26 9.49 9.177 0.755 0.159 1.622 0.251 2.511 0.252h0.001c0 0 0.001 0 0.001 0 0.455 0 0.903-0.025 1.345-0.072l-0.055 0.005c-0.724 1.275-1.817 2.267-3.133 2.847l-0.043 0.017c-1.864 0.796-2.438 4.455 1.91 4.455 1.046-0.002 2.061-0.128 3.033-0.365l-0.088 0.018c4.57-1.081 8.258-4.895 9.176-9.492 0.157-0.747 0.247-1.606 0.247-2.486 0-0.464-0.025-0.923-0.074-1.375l0.005 0.056c1.278 0.722 2.273 1.816 2.854 3.134l0.017 0.043c0.931 2.185 4.158 1.683 4.393-0.67 0.040-0.375 0.062-0.81 0.062-1.25 0-1.040-0.126-2.051-0.363-3.018l0.018 0.087zM29.947 20.665c-0.028 0.275-0.435 0.384-0.564 0.082-0.778-1.77-2.072-3.194-3.69-4.113l-0.043-0.022c-1.412-0.79-3.135 0.343-2.965 1.955 0.037 0.333 0.058 0.719 0.058 1.11 0 0.741-0.076 1.464-0.22 2.162l0.012-0.069c-0.767 3.843-3.852 7.033-7.672 7.937-0.744 0.186-1.598 0.293-2.477 0.293-0.369 0-0.734-0.019-1.093-0.056l0.045 0.004c-0.151-0.014-0.268-0.139-0.268-0.292 0-0.122 0.074-0.227 0.18-0.271l0.002-0.001c1.767-0.777 3.189-2.067 4.11-3.68l0.022-0.043c0.748-1.331-0.215-2.98-1.743-2.98-0.306 0-1.56 0.225-3.412-0.146-3.845-0.767-7.033-3.851-7.935-7.676-0.186-0.743-0.293-1.596-0.293-2.474 0-0.369 0.019-0.734 0.056-1.094l-0.004 0.045c0.027-0.273 0.435-0.384 0.564-0.082 0.778 1.77 2.072 3.194 3.69 4.113l0.043 0.022c1.406 0.787 3.136-0.336 2.965-1.955-0.037-0.333-0.058-0.719-0.058-1.11 0-0.741 0.076-1.464 0.22-2.162l-0.012 0.069c0.98-4.907 5.689-8.743 11.197-8.178 0.151 0.014 0.268 0.139 0.268 0.292 0 0.122-0.074 0.227-0.18 0.271l-0.002 0.001c-1.767 0.777-3.189 2.067-4.11 3.68l-0.022 0.043c-0.748 1.331 0.215 2.98 1.743 2.98 0.299 0 1.55-0.224 3.412 0.146 5.016 1.001 8.728 5.776 8.176 11.199z"></path>
</svg>
