<!-- Generated by IcoMoon.io -->
<svg version="1.1" xmlns="http://www.w3.org/2000/svg" width="40" height="32" viewBox="0 0 40 32">
<title>gamepad-alt</title>
<path d="M39.912 23.014l-2.086-13.224c-0.554-3.141-3.025-5.673-6.291-6.446h-0.004c-3.464-0.853-7.44-1.342-11.531-1.342s-8.067 0.489-11.874 1.413l0.343-0.070c-3.27 0.772-5.741 3.304-6.294 6.446l-2.086 13.224c-0.644 3.657 2.337 6.986 6.256 6.986 3.104 0 5.861-1.879 6.842-4.665l0.47-1.335h12.688l0.468 1.335c0.983 2.786 3.739 4.665 6.843 4.665 3.919 0 6.901-3.329 6.256-6.986zM37.093 26.444c-0.83 0.989-2.083 1.556-3.438 1.556-2.262 0-4.254-1.338-4.956-3.329l-0.471-1.335-0.47-1.336h-15.518l-0.941 2.671c-0.701 1.991-2.693 3.329-4.956 3.329-1.354 0-2.607-0.567-3.438-1.556-0.563-0.652-0.906-1.507-0.906-2.442 0-0.239 0.022-0.473 0.065-0.7l-0.004 0.023 2.080-13.188c0.416-2.356 2.295-4.259 4.783-4.848 3.327-0.82 7.146-1.29 11.074-1.29s7.748 0.47 11.404 1.357l-0.329-0.068c2.49 0.589 4.367 2.491 4.776 4.813l2.092 13.259c0.194 1.102-0.108 2.197-0.85 3.082zM15.886 12.773h-2.659v-2.659c-0.001-0.338-0.275-0.612-0.614-0.614h-1.228c-0.338 0.001-0.612 0.275-0.614 0.614v2.659h-2.659c-0.338 0.001-0.612 0.275-0.614 0.614v1.228c0.001 0.338 0.275 0.612 0.614 0.614h2.659v2.659c0.001 0.338 0.275 0.612 0.614 0.614h1.228c0.338-0.001 0.612-0.275 0.614-0.614v-2.659h2.659c0.338-0.001 0.612-0.275 0.614-0.614v-1.228c-0.001-0.338-0.275-0.612-0.614-0.614h-0zM26 14c-1.105 0-2 0.895-2 2s0.895 2 2 2c1.105 0 2-0.895 2-2v0c0-1.105-0.895-2-2-2v0zM30 10c-1.105 0-2 0.895-2 2s0.895 2 2 2c1.105 0 2-0.895 2-2v0c0-1.105-0.895-2-2-2v0z"></path>
</svg>
