<!-- Generated by IcoMoon.io -->
<svg version="1.1" xmlns="http://www.w3.org/2000/svg" width="24" height="32" viewBox="0 0 24 32">
<title>game-console-handheld-solid</title>
<path d="M22 0h-20c-1.105 0-2 0.895-2 2v0 28c0 1.105 0.895 2 2 2v0h16c3.314 0 6-2.686 6-6v0-24c0-1.105-0.895-2-2-2v0zM10 21.5c0 0.276-0.224 0.5-0.5 0.5v0h-1.5v1.5c0 0.276-0.224 0.5-0.5 0.5v0h-1c-0.276 0-0.5-0.224-0.5-0.5v0-1.5h-1.5c-0.276 0-0.5-0.224-0.5-0.5v0-1c0-0.276 0.224-0.5 0.5-0.5v0h1.5v-1.5c0-0.276 0.224-0.5 0.5-0.5v0h1c0.276 0 0.5 0.224 0.5 0.5v0 1.5h1.5c0.276 0 0.5 0.224 0.5 0.5v0zM14.5 24c-0.828 0-1.5-0.672-1.5-1.5s0.672-1.5 1.5-1.5c0.828 0 1.5 0.672 1.5 1.5v0c0 0.828-0.672 1.5-1.5 1.5v0zM7 14c-0.552 0-1-0.448-1-1v0-8c0-0.552 0.448-1 1-1v0h10c0.552 0 1 0.448 1 1v0 7c0 1.105-0.895 2-2 2v0zM18.5 21c-0.828 0-1.5-0.672-1.5-1.5s0.672-1.5 1.5-1.5c0.828 0 1.5 0.672 1.5 1.5v0c0 0.828-0.672 1.5-1.5 1.5v0z"></path>
</svg>
