<!-- Generated by IcoMoon.io -->
<svg version="1.1" xmlns="http://www.w3.org/2000/svg" width="24" height="32" viewBox="0 0 24 32">
<title>game-console-handheld</title>
<path d="M14.5 21c-0.828 0-1.5 0.672-1.5 1.5s0.672 1.5 1.5 1.5c0.828 0 1.5-0.672 1.5-1.5v0c0-0.828-0.672-1.5-1.5-1.5v0zM17 19.5c0 0.828 0.672 1.5 1.5 1.5s1.5-0.672 1.5-1.5c0-0.828-0.672-1.5-1.5-1.5v0c-0.828 0-1.5 0.672-1.5 1.5v0zM22 0h-20c-1.105 0-2 0.895-2 2v0 28c0 1.105 0.895 2 2 2v0h16c3.314 0 6-2.686 6-6v0-24c0-1.105-0.895-2-2-2v0zM22 26c-0.003 2.208-1.792 3.997-4 4h-16v-28h20zM7 14h9c1.105 0 2-0.895 2-2v0-7c0-0.552-0.448-1-1-1v0h-10c-0.552 0-1 0.448-1 1v0 8c0 0.552 0.448 1 1 1v0zM8 6h8v6h-8zM4.5 22h1.5v1.5c0 0.276 0.224 0.5 0.5 0.5v0h1c0.276 0 0.5-0.224 0.5-0.5v0-1.5h1.5c0.276 0 0.5-0.224 0.5-0.5v0-1c0-0.276-0.224-0.5-0.5-0.5v0h-1.5v-1.5c0-0.276-0.224-0.5-0.5-0.5v0h-1c-0.276 0-0.5 0.224-0.5 0.5v0 1.5h-1.5c-0.276 0-0.5 0.224-0.5 0.5v0 1c0 0.276 0.224 0.5 0.5 0.5v0z"></path>
</svg>
