<!-- Generated by IcoMoon.io -->
<svg version="1.1" xmlns="http://www.w3.org/2000/svg" width="40" height="32" viewBox="0 0 40 32">
<title>gamepad</title>
<path d="M30.004 6h-20.004c-0 0-0.001 0-0.001 0-5.523 0-10 4.477-10 10s4.477 10 10 10c2.797 0 5.325-1.148 7.14-2.998l0.002-0.002h5.72c1.816 1.852 4.345 3 7.141 3 5.523 0 10-4.477 10-10 0-5.522-4.475-9.998-9.997-10h-0zM30 24c-0.007 0-0.015 0-0.024 0-2.229 0-4.243-0.919-5.685-2.398l-0.591-0.602h-7.4l-0.588 0.6c-1.443 1.481-3.458 2.4-5.687 2.4-0.009 0-0.018 0-0.026-0h0.001c-4.411 0-8-3.589-8-8s3.589-8 8-8h20c4.413 0 8 3.589 8 8s-3.589 8-8 8zM13.886 14.773h-2.659v-2.659c-0.001-0.338-0.275-0.612-0.614-0.614h-1.228c-0.338 0.001-0.612 0.275-0.614 0.614v2.659h-2.659c-0.338 0.001-0.612 0.275-0.614 0.614v1.228c0.001 0.338 0.275 0.612 0.614 0.614h2.659v2.659c0.001 0.338 0.275 0.612 0.614 0.614h1.228c0.338-0.001 0.612-0.275 0.614-0.614v-2.659h2.659c0.338-0.001 0.612-0.275 0.614-0.614v-1.228c-0.001-0.338-0.275-0.612-0.614-0.614h-0zM28 16c-1.105 0-2 0.895-2 2s0.895 2 2 2c1.105 0 2-0.895 2-2v0c0-1.105-0.895-2-2-2v0zM32 12c-1.105 0-2 0.895-2 2s0.895 2 2 2c1.105 0 2-0.895 2-2v0c0-1.105-0.895-2-2-2v0z"></path>
</svg>
