<!-- Generated by IcoMoon.io -->
<svg version="1.1" xmlns="http://www.w3.org/2000/svg" width="40" height="32" viewBox="0 0 40 32">
<title>gamepad-solid</title>
<path d="M30.004 6h-20.004c-0 0-0.001 0-0.001 0-5.523 0-10 4.477-10 10s4.477 10 10 10c2.797 0 5.325-1.148 7.14-2.998l0.002-0.002h5.72c1.816 1.852 4.345 3 7.141 3 5.523 0 10-4.477 10-10 0-5.522-4.475-9.998-9.997-10h-0zM15.5 16.75c0 0.414-0.336 0.75-0.75 0.75v0h-3.25v3.25c0 0.414-0.336 0.75-0.75 0.75v0h-1.5c-0.414 0-0.75-0.336-0.75-0.75v0-3.25h-3.25c-0.414 0-0.75-0.336-0.75-0.75v0-1.5c0-0.414 0.336-0.75 0.75-0.75v0h3.25v-3.25c0-0.414 0.336-0.75 0.75-0.75v0h1.5c0.414 0 0.75 0.336 0.75 0.75v0 3.25h3.25c0.414 0 0.75 0.336 0.75 0.75v0zM29 21.5c-1.381 0-2.5-1.119-2.5-2.5s1.119-2.5 2.5-2.5c1.381 0 2.5 1.119 2.5 2.5v0c0 1.381-1.119 2.5-2.5 2.5v0zM33 15.5c-1.381 0-2.5-1.119-2.5-2.5s1.119-2.5 2.5-2.5c1.381 0 2.5 1.119 2.5 2.5v0c0 1.381-1.119 2.5-2.5 2.5v0z"></path>
</svg>
