<!-- Generated by IcoMoon.io -->
<svg version="1.1" xmlns="http://www.w3.org/2000/svg" width="32" height="32" viewBox="0 0 32 32">
<title>game-board</title>
<path d="M16 10h-6v6h6zM14 14h-2v-2h2zM28 16v-6h-6v6zM24 12h2v2h-2zM22 4h-6v6h6zM20 8h-2v-2h2zM10 16h-6v6h6zM8 20h-2v-2h2zM10 28h6v-6h-6zM12 24h2v2h-2zM28 28v-6h-6v6zM24 24h2v2h-2zM16 22h6v-6h-6zM18 18h2v2h-2zM30 0h-28c-1.105 0-2 0.895-2 2v0 28c0 1.105 0.895 2 2 2v0h28c1.105 0 2-0.895 2-2v0-28c0-1.105-0.895-2-2-2v0zM30 30h-28v-28h28zM4 4v6h6v-6zM8 8h-2v-2h2z"></path>
</svg>
