<!-- Generated by IcoMoon.io -->
<svg version="1.1" xmlns="http://www.w3.org/2000/svg" width="40" height="32" viewBox="0 0 40 32">
<title>gamepad-alt-solid</title>
<path d="M39.912 23.014l-2.086-13.224c-0.554-3.141-3.025-5.673-6.291-6.446h-0.004c-3.464-0.853-7.44-1.342-11.531-1.342s-8.067 0.489-11.874 1.413l0.343-0.070c-3.27 0.772-5.741 3.304-6.294 6.446l-2.086 13.224c-0.644 3.657 2.337 6.986 6.256 6.986 3.104 0 5.861-1.879 6.842-4.665l0.47-1.335h12.688l0.468 1.335c0.983 2.786 3.739 4.665 6.843 4.665 3.919 0 6.901-3.329 6.256-6.986zM17.5 14.75c0 0.414-0.336 0.75-0.75 0.75v0h-3.25v3.25c0 0.414-0.336 0.75-0.75 0.75v0h-1.5c-0.414 0-0.75-0.336-0.75-0.75v0-3.25h-3.25c-0.414 0-0.75-0.336-0.75-0.75v0-1.5c0-0.414 0.336-0.75 0.75-0.75v0h3.25v-3.25c0-0.414 0.336-0.75 0.75-0.75v0h1.5c0.414 0 0.75 0.336 0.75 0.75v0 3.25h3.25c0.414 0 0.75 0.336 0.75 0.75v0zM27 19.5c-1.381 0-2.5-1.119-2.5-2.5s1.119-2.5 2.5-2.5c1.381 0 2.5 1.119 2.5 2.5v0c0 1.381-1.119 2.5-2.5 2.5v0zM31 13.5c-1.381 0-2.5-1.119-2.5-2.5s1.119-2.5 2.5-2.5c1.381 0 2.5 1.119 2.5 2.5v0c0 1.381-1.119 2.5-2.5 2.5v0z"></path>
</svg>
