<!-- Generated by IcoMoon.io -->
<svg version="1.1" xmlns="http://www.w3.org/2000/svg" width="40" height="32" viewBox="0 0 40 32">
<title>garage-car</title>
<path d="M15 24c-0.552 0-1 0.448-1 1s0.448 1 1 1c0.552 0 1-0.448 1-1v0c0-0.552-0.448-1-1-1v0zM25 24c-0.552 0-1 0.448-1 1s0.448 1 1 1c0.552 0 1-0.448 1-1v0c0-0.552-0.448-1-1-1v0zM38.162 7.396l-17-7.161c-0.343-0.148-0.742-0.234-1.162-0.234s-0.819 0.086-1.181 0.242l0.020-0.007-17 7.161c-1.089 0.463-1.838 1.524-1.838 2.759 0 0.001 0 0.002 0 0.003v-0 21.342c0 0.276 0.224 0.5 0.5 0.5v0h1c0.276 0 0.5-0.224 0.5-0.5v0-21.342c0-0.001 0-0.001 0-0.002 0-0.413 0.25-0.767 0.607-0.92l0.006-0.002 17-7.162c0.114-0.050 0.247-0.079 0.387-0.079s0.273 0.029 0.393 0.082l-0.006-0.002 17 7.162c0.363 0.154 0.613 0.507 0.613 0.918 0 0.002 0 0.004-0 0.006v-0 21.342c0 0.276 0.224 0.5 0.5 0.5v0h1c0.276 0 0.5-0.224 0.5-0.5v0-21.342c0-0.001 0-0.002 0-0.003 0-1.236-0.749-2.296-1.819-2.752l-0.020-0.007zM32 12h-24c-1.105 0-2 0.895-2 2v0 17.5c0 0.276 0.224 0.5 0.5 0.5v0h1c0.276 0 0.5-0.224 0.5-0.5v0-17.5h24v17.5c0 0.276 0.224 0.5 0.5 0.5v0h1c0.276 0 0.5-0.224 0.5-0.5v0-17.5c0-1.105-0.895-2-2-2v0zM27.745 21.106l-0.589-2.359c-0.407-1.59-1.827-2.746-3.517-2.746-0 0-0 0-0.001 0h-7.277c-1.691 0-3.112 1.158-3.512 2.725l-0.005 0.025-0.589 2.358c-1.304 0.34-2.251 1.505-2.255 2.891v3c0 1.105 0.895 2 2 2v0 2c0 0.552 0.448 1 1 1v0h1c0.552 0 1-0.448 1-1v0-2h10v2c0 0.552 0.448 1 1 1v0h1c0.552 0 1-0.448 1-1v0-2c1.105 0 2-0.895 2-2v0-3c-0.003-1.388-0.951-2.555-2.234-2.89l-0.021-0.005zM14.785 19.231c0.183-0.712 0.819-1.231 1.576-1.231h7.277c0.757 0 1.394 0.518 1.574 1.219l0.002 0.011 0.442 1.769h-11.313zM28 27h-16v-3c0-0.552 0.448-1 1-1v0h14c0.552 0 1 0.448 1 1v0z"></path>
</svg>
