<!-- Generated by IcoMoon.io -->
<svg version="1.1" xmlns="http://www.w3.org/2000/svg" width="40" height="32" viewBox="0 0 40 32">
<title>garage-car-solid</title>
<path d="M38.156 7.313l-17.006-7.083c-0.34-0.133-0.734-0.215-1.145-0.229l-0.006-0c-0.419 0.013-0.814 0.096-1.181 0.238l0.025-0.008-17 7.083c-1.091 0.466-1.841 1.529-1.844 2.767v20.92c0 0.552 0.448 1 1 1v0h4c0.552 0 1-0.448 1-1v0-17c0-1.099 0.912-2 2.037-2h23.926c1.125 0 2.037 0.901 2.037 2v17c0 0.552 0.448 1 1 1v0h4c0.552 0 1-0.448 1-1v0-20.92c-0.002-1.239-0.753-2.301-1.824-2.76l-0.020-0.007zM29.094 22.214l-0.984-3.938c-0.483-1.896-2.176-3.276-4.191-3.276-0.002 0-0.004 0-0.006 0h-7.826c-0.001 0-0.003 0-0.004 0-2.014 0-3.706 1.379-4.184 3.244l-0.007 0.030-0.984 3.938c-1.126 0.447-1.907 1.526-1.908 2.788v2c0 0.733 0.413 1.345 1 1.694v1.806c0 0.828 0.672 1.5 1.5 1.5v0h2c0.828 0 1.5-0.672 1.5-1.5v0-1.5h10v1.5c0 0.828 0.672 1.5 1.5 1.5v0h2c0.828 0 1.5-0.672 1.5-1.5v0-1.806c0.587-0.349 1-0.961 1-1.694v-2c-0.001-1.262-0.783-2.341-1.888-2.78l-0.020-0.007zM14.803 19.003c0.148-0.581 0.666-1.003 1.283-1.003 0.001 0 0.001 0 0.002 0h7.826c0 0 0.001 0 0.002 0 0.617 0 1.135 0.423 1.281 0.994l0.002 0.009 0.75 2.997h-11.894zM13 26.991c-0.9 0-1.5-0.598-1.5-1.495s0.6-1.496 1.5-1.496 2.25 1.346 2.25 2.243-1.35 0.747-2.25 0.747zM27 26.991c-0.9 0-2.25 0.149-2.25-0.75s1.35-2.241 2.25-2.241 1.5 0.599 1.5 1.496-0.6 1.495-1.5 1.495z"></path>
</svg>
