<!-- Generated by IcoMoon.io -->
<svg version="1.1" xmlns="http://www.w3.org/2000/svg" width="40" height="32" viewBox="0 0 40 32">
<title>garage-solid</title>
<path d="M8 32h24v-10h-23.993zM17 26h6c0.552 0 1 0.448 1 1s-0.448 1-1 1v0h-6c-0.552 0-1-0.448-1-1s0.448-1 1-1v0zM8 20h23.967l0.033-6h-24s0 6 0 6zM38.156 7.313l-17.006-7.083c-0.34-0.133-0.734-0.215-1.145-0.229l-0.006-0c-0.419 0.013-0.814 0.096-1.181 0.238l0.025-0.008-17 7.083c-1.091 0.466-1.841 1.529-1.844 2.767v20.92c0 0.552 0.448 1 1 1v0h4c0.552 0 1-0.448 1-1v0-17c0-1.099 0.912-2 2.037-2h23.926c1.125 0 2.037 0.901 2.037 2v17c0 0.552 0.448 1 1 1v0h4c0.552 0 1-0.448 1-1v0-20.92c-0.002-1.239-0.753-2.301-1.824-2.76l-0.020-0.007z"></path>
</svg>
