<!-- Generated by IcoMoon.io -->
<svg version="1.1" xmlns="http://www.w3.org/2000/svg" width="32" height="32" viewBox="0 0 32 32">
<title>gas-pump-solid</title>
<path d="M21 28h-20c-0.55 0-1 0.45-1 1v2c0 0.55 0.45 1 1 1h20c0.55 0 1-0.45 1-1v-2c0-0.55-0.45-1-1-1zM30.825 6.706l-5.063-5.063c-0.387-0.387-1.025-0.387-1.413 0l-0.706 0.706c-0.387 0.388-0.387 1.025 0 1.413l2.356 2.356v3.881c0 1.756 1.306 3.206 3 3.45v10.050c0 0.825-0.675 1.5-1.5 1.5s-1.5-0.675-1.5-1.5v-2c0-3.038-2.462-5.5-5.5-5.5h-0.5v-12c0-2.206-1.794-4-4-4h-10c-2.206 0-4 1.794-4 4v22h18v-7h0.5c1.381 0 2.5 1.119 2.5 2.5v1.738c0 2.356 1.688 4.5 4.031 4.744 2.688 0.269 4.969-1.844 4.969-4.481v-13.963c0-1.063-0.425-2.081-1.175-2.831zM16 12h-10v-8h10v8z"></path>
</svg>
