<!-- Generated by IcoMoon.io -->
<svg version="1.1" xmlns="http://www.w3.org/2000/svg" width="40" height="32" viewBox="0 0 40 32">
<title>gas-pump-slash</title>
<path d="M30 4.912v5.088c0 1.656 1.344 3 3 3h1v10.206l1.919 1.512c0.044-0.238 0.081-0.469 0.081-0.719v-15.088c0-0.531-0.212-1.037-0.587-1.412l-5.85-5.856c-0.194-0.194-0.512-0.194-0.706 0l-0.706 0.706c-0.194 0.194-0.194 0.513 0 0.706zM32 6.912l2 2v2.088h-1c-0.55 0-1-0.45-1-1zM39.813 30.325l-38.375-30.212c-0.212-0.175-0.531-0.144-0.7 0.075l-0.625 0.781c-0.175 0.219-0.138 0.531 0.075 0.7l38.375 30.219c0.212 0.175 0.531 0.137 0.7-0.075l0.625-0.781c0.175-0.219 0.144-0.531-0.075-0.706zM25.5 30h-1.5v-7.031l-2-1.575v8.606h-14v-19.631l-2-1.575v21.206h-1.5c-0.275 0-0.5 0.225-0.5 0.5v1c0 0.275 0.225 0.5 0.5 0.5h21c0.275 0 0.5-0.225 0.5-0.5v-1c0-0.275-0.225-0.5-0.5-0.5zM10 2h10c1.1 0 2 0.9 2 2v9.756l2 1.575v-11.331c0-2.206-1.788-4-4-4h-10c-1.363 0-2.563 0.681-3.281 1.719l1.6 1.263c0.35-0.575 0.956-0.981 1.681-0.981z"></path>
</svg>
