<!-- Generated by IcoMoon.io -->
<svg version="1.1" xmlns="http://www.w3.org/2000/svg" width="32" height="32" viewBox="0 0 32 32">
<title>gas-pump</title>
<path d="M31.413 7.5l-5.85-5.856c-0.194-0.194-0.512-0.194-0.706 0l-0.706 0.706c-0.194 0.194-0.194 0.513 0 0.706l1.85 1.856v5.088c0 1.656 1.344 3 3 3h1v10.887c0 0.994-0.681 1.925-1.663 2.087-1.25 0.206-2.337-0.756-2.337-1.975v-3c0-2.762-2.238-5-5-5h-1v-12c0-2.206-1.794-4-4-4h-10c-2.206 0-4 1.794-4 4v26h-1.5c-0.275 0-0.5 0.225-0.5 0.5v1c0 0.275 0.225 0.5 0.5 0.5h21c0.275 0 0.5-0.225 0.5-0.5v-1c0-0.275-0.225-0.5-0.5-0.5h-1.5v-12h1c1.656 0 3 1.344 3 3v2.775c0 1.994 1.356 3.844 3.325 4.169 2.506 0.413 4.675-1.519 4.675-3.944v-15.088c0-0.531-0.212-1.037-0.587-1.412zM30 11h-1c-0.55 0-1-0.45-1-1v-3.088l2 2v2.088zM18 30h-14v-16h14v16zM18 12h-14v-8c0-1.1 0.9-2 2-2h10c1.1 0 2 0.9 2 2v8z"></path>
</svg>
