<!-- Generated by IcoMoon.io -->
<svg version="1.1" xmlns="http://www.w3.org/2000/svg" width="40" height="32" viewBox="0 0 40 32">
<title>gas-pump-slash-solid</title>
<path d="M39.614 28.631l-4.091-3.161c0.295-0.596 0.477-1.259 0.477-1.97v-13.964c0-1.061-0.421-2.078-1.172-2.829l-5.061-5.061c-0.391-0.391-1.024-0.391-1.414 0l-0.707 0.707c-0.391 0.391-0.391 1.024 0 1.414l2.354 2.354v3.879c0 1.759 1.308 3.204 3 3.449v10.051c0 0.006-0.003 0.011-0.003 0.017l-8.997-6.953v-12.564c0-2.209-1.791-4-4-4h-10c-1.791 0-3.289 1.185-3.799 2.808l-3.359-2.597c-0.436-0.339-1.065-0.261-1.404 0.176l-1.228 1.579c-0.339 0.436-0.261 1.064 0.176 1.403l36.773 28.421c0.436 0.339 1.064 0.261 1.404-0.176l1.227-1.579c0.338-0.436 0.26-1.064-0.176-1.403zM6 26h17.127l-17.127-13.237v13.237zM25 28h-20c-0.553 0-1 0.448-1 1v2c0 0.552 0.447 1 1 1h20c0.552 0 1-0.448 1-1v-2c0-0.552-0.448-1-1-1z"></path>
</svg>
