<!-- Generated by IcoMoon.io -->
<svg version="1.1" xmlns="http://www.w3.org/2000/svg" width="32" height="32" viewBox="0 0 32 32">
<title>gavel-solid</title>
<path d="M31.561 12.46l-1.414-1.414c-0.586-0.586-1.536-0.586-2.121 0l-0.354 0.354-7.071-7.071 0.354-0.354c0.586-0.586 0.586-1.536 0-2.121l-1.414-1.414c-0.586-0.586-1.536-0.586-2.121 0l-7.778 7.778c-0.586 0.586-0.586 1.536 0 2.121l1.414 1.414c0.586 0.586 1.536 0.586 2.121 0l0.354-0.354 2.475 2.475-5.065 5.065-0.354-0.354c-0.781-0.781-2.047-0.781-2.828 0l-7.171 7.172c-0.781 0.781-0.781 2.047 0 2.828l2.828 2.828c0.781 0.781 2.047 0.781 2.828 0l7.172-7.172c0.781-0.781 0.781-2.047 0-2.828l-0.354-0.354 5.065-5.065 2.475 2.475-0.354 0.354c-0.586 0.586-0.586 1.536 0 2.121l1.414 1.414c0.586 0.586 1.536 0.586 2.121 0l7.778-7.778c0.586-0.586 0.586-1.536 0-2.121z"></path>
</svg>
