<!-- Generated by IcoMoon.io -->
<svg version="1.1" xmlns="http://www.w3.org/2000/svg" width="32" height="32" viewBox="0 0 32 32">
<title>gavel</title>
<path d="M31.306 11.66l-1.29-1.29c-0.807-0.807-2.026-0.896-2.921-0.341l-5.125-5.125c0.555-0.895 0.467-2.114-0.34-2.921l-1.29-1.29c-0.925-0.925-2.424-0.926-3.349 0l-7.096 7.095c-0.923 0.923-0.923 2.426 0 3.349l1.29 1.29c0.791 0.791 2.007 0.905 2.92 0.34l1.856 1.856-3.675 3.675-0.505-0.505c-1.058-1.058-2.78-1.058-3.839 0l-7.148 7.147c-1.058 1.058-1.058 2.78 0 3.839l2.426 2.426c1.058 1.058 2.78 1.058 3.839 0l7.147-7.148c1.058-1.058 1.058-2.78 0-3.839l-0.505-0.505 3.675-3.675 1.856 1.856c-0.564 0.913-0.451 2.129 0.34 2.92l1.29 1.29c0.924 0.924 2.426 0.924 3.349 0l7.095-7.096c0.925-0.926 0.926-2.424-0-3.349zM12.791 22.644l-7.147 7.147c-0.279 0.279-0.732 0.279-1.010 0v0l-2.424-2.424c-0.278-0.279-0.278-0.732 0-1.010l7.147-7.147c0.278-0.279 0.732-0.279 1.010-0l2.424 2.424c0.278 0.279 0.278 0.732 0 1.010zM29.892 13.595l-7.096 7.096c-0.067 0.067-0.159 0.108-0.261 0.108s-0.194-0.041-0.261-0.108l-1.29-1.29c-0.067-0.067-0.108-0.159-0.108-0.261s0.041-0.194 0.108-0.26v0l1.030-1.030-7.865-7.865-1.030 1.030c-0.067 0.067-0.159 0.108-0.261 0.108s-0.194-0.041-0.26-0.108v0l-1.29-1.29c-0.067-0.067-0.108-0.159-0.108-0.261s0.041-0.194 0.108-0.261v0l7.096-7.096c0.067-0.067 0.159-0.108 0.261-0.108s0.194 0.041 0.261 0.108l1.29 1.29c0.067 0.067 0.108 0.159 0.108 0.26s-0.041 0.194-0.108 0.261l-1.029 1.030 7.865 7.865 1.030-1.030c0.067-0.067 0.159-0.108 0.26-0.108s0.194 0.041 0.26 0.108l1.29 1.29c0.067 0.067 0.108 0.159 0.108 0.26s-0.041 0.194-0.108 0.261v0z"></path>
</svg>
