<!-- Generated by IcoMoon.io -->
<svg version="1.1" xmlns="http://www.w3.org/2000/svg" width="36" height="32" viewBox="0 0 36 32">
<title>gem-solid</title>
<path d="M30.344 0l5.656 10h-6.319l-4.325-10h4.988zM22.344 0l4.325 10h-17.337l4.325-10h8.688zM5.656 0h4.988l-4.325 10h-6.319l5.656-10zM0 12h6.294l7.687 15.731c0.094 0.194-0.169 0.369-0.313 0.206l-13.669-15.938zM9.262 12h17.475l-8.563 19.887c-0.063 0.15-0.281 0.15-0.344 0l-8.569-19.887zM22.019 27.731l7.688-15.731h6.294l-13.669 15.931c-0.144 0.169-0.406-0.006-0.313-0.2z"></path>
</svg>
