<!-- Generated by IcoMoon.io -->
<svg version="1.1" xmlns="http://www.w3.org/2000/svg" width="36" height="32" viewBox="0 0 36 32">
<title>gem</title>
<path d="M28.981 0h-21.962c-0.263 0-0.506 0.138-0.644 0.362l-6.269 10.175c-0.169 0.275-0.138 0.631 0.075 0.875l17.25 20.325c0.3 0.35 0.837 0.35 1.137 0l17.25-20.325c0.212-0.244 0.237-0.6 0.075-0.875l-6.269-10.175c-0.137-0.225-0.381-0.362-0.644-0.362zM28.131 2.25l4.644 7.75h-5.188l-3.55-7.75h4.094zM21.563 2.25l3.55 7.75h-14.231l3.556-7.75h7.125zM7.869 2.25h4.094l-3.55 7.75h-5.188l4.644-7.75zM3.825 12h4.562l5.113 12-9.675-12zM10.825 12h14.344l-7.169 16.488-7.175-16.488zM22.5 24l5.113-12h4.562l-9.675 12z"></path>
</svg>
