<!-- Generated by IcoMoon.io -->
<svg version="1.1" xmlns="http://www.w3.org/2000/svg" width="24" height="32" viewBox="0 0 24 32">
<title>ghost-solid</title>
<path d="M11.631 0.006c-6.568 0.197-11.631 5.927-11.631 12.498v16.495c0 0.891 1.077 1.337 1.707 0.707l1.558-1.158c0.416-0.309 1-0.249 1.344 0.138l2.684 3.022c0.391 0.391 1.024 0.391 1.414 0l2.545-2.866c0.398-0.448 1.098-0.448 1.495 0l2.545 2.866c0.391 0.391 1.024 0.391 1.414 0l2.684-3.022c0.344-0.387 0.928-0.448 1.344-0.138l1.558 1.158c0.63 0.63 1.707 0.184 1.707-0.707v-16.998c0-6.75-5.573-12.198-12.369-11.994zM8 14c-1.104 0-2-0.896-2-2s0.896-2 2-2 2 0.896 2 2-0.896 2-2 2zM16 14c-1.104 0-2-0.896-2-2s0.896-2 2-2 2 0.896 2 2-0.896 2-2 2z"></path>
</svg>
