<!-- Generated by IcoMoon.io -->
<svg version="1.1" xmlns="http://www.w3.org/2000/svg" width="24" height="32" viewBox="0 0 24 32">
<title>ghost</title>
<path d="M12 0c-0.123 0-0.246 0.002-0.369 0.006-6.567 0.197-11.631 5.927-11.631 12.498v16.495c0 0.602 0.493 1.002 1.008 1.002 0.246 0 0.496-0.091 0.7-0.295l1.558-1.158c0.179-0.133 0.388-0.198 0.596-0.198 0.277 0 0.551 0.114 0.748 0.336l2.684 3.022c0.195 0.195 0.451 0.293 0.707 0.293s0.512-0.098 0.707-0.293l2.545-2.866c0.199-0.224 0.473-0.336 0.748-0.336s0.549 0.112 0.748 0.336l2.545 2.866c0.195 0.195 0.451 0.293 0.707 0.293s0.512-0.098 0.707-0.293l2.684-3.022c0.184-0.207 0.451-0.336 0.748-0.336 0.225 0 0.432 0.074 0.599 0.199l-0.003-0.002 1.558 1.158c0.204 0.204 0.454 0.295 0.7 0.295 0.514 0 1.008-0.399 1.008-1.002v-16.998c0-6.628-5.372-12-12-12zM22 26.995l-0.071-0.052c-0.521-0.388-1.14-0.593-1.79-0.593-0.857 0-1.674 0.367-2.243 1.008l-1.896 2.134-1.757-1.978c-0.569-0.641-1.386-1.008-2.243-1.008s-1.674 0.367-2.243 1.008l-1.757 1.978-1.896-2.134c-0.552-0.619-1.352-1.007-2.243-1.008v0c-0.649 0-1.268 0.205-1.789 0.593l-0.071 0.052v-14.492c0-5.628 4.348-10.338 9.691-10.498l0.309-0.005c5.514 0 10 4.486 10 10v14.995zM8 10c-1.104 0-2 0.896-2 2s0.896 2 2 2 2-0.896 2-2-0.896-2-2-2zM16 10c-1.104 0-2 0.896-2 2s0.896 2 2 2 2-0.896 2-2-0.896-2-2-2z"></path>
</svg>
