<!-- Generated by IcoMoon.io -->
<svg version="1.1" xmlns="http://www.w3.org/2000/svg" width="32" height="32" viewBox="0 0 32 32">
<title>gift-solid</title>
<path d="M2 28c0 1.106 0.894 2 2 2h10v-10h-12v8zM18 30h10c1.106 0 2-0.894 2-2v-8h-12v10zM30 10h-2.631c0.387-0.756 0.631-1.594 0.631-2.5 0-3.031-2.469-5.5-5.5-5.5-2.6 0-4.281 1.331-6.438 4.269-2.156-2.938-3.838-4.269-6.438-4.269-3.031 0-5.5 2.469-5.5 5.5 0 0.906 0.237 1.744 0.631 2.5h-2.756c-1.106 0-2 0.894-2 2v5c0 0.55 0.45 1 1 1h30c0.55 0 1-0.45 1-1v-5c0-1.106-0.894-2-2-2zM9.619 10c-1.381 0-2.5-1.119-2.5-2.5s1.119-2.5 2.5-2.5c1.244 0 2.162 0.206 5.381 5h-5.381zM22.5 10h-5.381c3.212-4.781 4.106-5 5.381-5 1.381 0 2.5 1.119 2.5 2.5s-1.119 2.5-2.5 2.5z"></path>
</svg>
