<!-- Generated by IcoMoon.io -->
<svg version="1.1" xmlns="http://www.w3.org/2000/svg" width="40" height="32" viewBox="0 0 40 32">
<title>gifts</title>
<path d="M38 14h-1.706c0.444-0.625 0.706-1.344 0.706-2.119 0-1.906-1.581-3.881-4.237-3.881-2.681 0-4.663 2.175-5.762 3.887-1.106-1.713-3.081-3.888-5.762-3.888-0.45 0-0.85 0.075-1.238 0.175v-0.175c0-1.106-0.894-2-2-2h-4.4l2.694-1.925c0.225-0.163 0.275-0.475 0.119-0.7l-0.581-0.813c-0.162-0.225-0.475-0.275-0.7-0.119l-3.319 2.375 1.425-3.794c0.1-0.256-0.031-0.544-0.294-0.644l-0.938-0.35c-0.256-0.1-0.55 0.031-0.644 0.294l-1.363 3.631-1.363-3.631c-0.1-0.256-0.387-0.388-0.644-0.294l-0.938 0.35c-0.256 0.1-0.388 0.388-0.294 0.644l1.425 3.794-3.313-2.369c-0.225-0.163-0.537-0.106-0.7 0.119l-0.581 0.813c-0.163 0.225-0.106 0.538 0.119 0.7l2.688 1.919h-4.4c-1.106 0-2 0.894-2 2v22c0 1.106 0.894 2 2 2h36c1.106 0 2-0.894 2-2v-14c0-1.106-0.894-2-2-2zM21.238 10c2.35 0 4.125 2.869 4.669 4h-3.594c-1.369 0-2.15-0.387-2.569-0.713-0.488-0.375-0.744-0.863-0.744-1.406 0-0.925 0.837-1.881 2.238-1.881zM14 16v14h-12v-22h16v1.375c-0.644 0.713-1 1.613-1 2.506 0 0.775 0.256 1.494 0.706 2.119h-1.706c-1.106 0-2 0.894-2 2zM26 30h-10v-6h10v6zM26 22h-10v-6h10v6zM32.763 10c1.4 0 2.237 0.956 2.237 1.881 0 0.544-0.256 1.031-0.744 1.406-0.419 0.325-1.2 0.713-2.569 0.713h-3.594c0.544-1.131 2.319-4 4.669-4zM38 30h-10v-6h10v6zM38 22h-10v-6h10v6z"></path>
</svg>
