<!-- Generated by IcoMoon.io -->
<svg version="1.1" xmlns="http://www.w3.org/2000/svg" width="36" height="32" viewBox="0 0 36 32">
<title>gift-card</title>
<path d="M33 8h-4.456c0.594-0.838 0.956-1.869 0.956-3 0-2.756-2.087-5-4.656-5-2.644 0-4.175 1.587-6.844 5.987-2.669-4.4-4.2-5.987-6.844-5.987-2.569 0-4.656 2.244-4.656 5 0 1.131 0.362 2.162 0.956 3h-4.456c-1.657 0-3 1.343-3 3v18c0 1.657 1.343 3 3 3h30c1.657 0 3-1.343 3-3v-18c0-1.657-1.343-3-3-3zM19.262 7.775c3.094-5.206 4.125-5.775 5.581-5.775 1.462 0 2.656 1.344 2.656 3s-1.194 3-2.656 3h-5.719l0.137-0.225zM11.156 2c1.463 0 2.488 0.569 5.581 5.775l0.131 0.225h-5.719c-1.463 0-2.656-1.344-2.656-3 0.006-1.656 1.2-3 2.662-3zM34 29c0 0.551-0.449 1-1 1h-30c-0.551 0-1-0.449-1-1v-2h32v2zM34 25h-32v-4h32v4zM34 19h-32v-8c0-0.553 0.447-1 1-1h12.586l-4.939 4.939c-0.195 0.195-0.195 0.512 0 0.707l0.707 0.707c0.195 0.195 0.512 0.195 0.707 0l5.939-5.939 5.939 5.939c0.195 0.195 0.512 0.195 0.707 0l0.707-0.707c0.195-0.195 0.195-0.512 0-0.707l-4.939-4.939h12.586c0.553 0 1 0.447 1 1v8z"></path>
</svg>
