<!-- Generated by IcoMoon.io -->
<svg version="1.1" xmlns="http://www.w3.org/2000/svg" width="36" height="32" viewBox="0 0 36 32">
<title>gift-card-solid</title>
<path d="M33 8h-3.629c0.389-0.754 0.629-1.595 0.629-2.5 0-3.033-2.468-5.5-5.5-5.5-2.6 0-4.282 1.334-6.44 4.271-2.158-2.938-3.839-4.271-6.439-4.271-3.033 0-5.5 2.467-5.5 5.5 0 0.905 0.241 1.746 0.629 2.5h-3.75c-1.657 0-3 1.343-3 3v18c0 1.657 1.343 3 3 3h30c1.657 0 3-1.343 3-3v-18c0-1.657-1.343-3-3-3zM24.5 3c1.379 0 2.5 1.121 2.5 2.5s-1.121 2.5-2.5 2.5h-5.379c3.21-4.779 4.107-5 5.379-5zM9.121 5.5c0-1.379 1.121-2.5 2.5-2.5 1.246 0 2.161 0.204 5.379 5h-5.379c-1.379 0-2.5-1.122-2.5-2.5zM12.879 12l-2.232 2.232c-0.391 0.391-0.391 1.024 0 1.414l0.707 0.707c0.391 0.391 1.024 0.391 1.414 0l4.354-4.354h1.758l4.353 4.353c0.391 0.391 1.024 0.391 1.414 0l0.707-0.707c0.391-0.391 0.391-1.024 0-1.414l-2.232-2.232h8.879v8h-28v-8h8.879zM4 28v-4h28v4h-28z"></path>
</svg>
