<!-- Generated by IcoMoon.io -->
<svg version="1.1" xmlns="http://www.w3.org/2000/svg" width="40" height="32" viewBox="0 0 40 32">
<title>gifts-solid</title>
<path d="M15.037 12.131c0.119-1.925 1.081-3.825 2.75-4.987-0.325-0.675-0.994-1.144-1.788-1.144h-1.838l1.919-1.375c0.45-0.319 0.556-0.944 0.231-1.394l-0.581-0.813c-0.319-0.45-0.944-0.556-1.394-0.231l-2 1.431 0.719-1.913c0.194-0.519-0.069-1.094-0.588-1.288l-0.938-0.35c-0.519-0.194-1.094 0.069-1.287 0.588l-1.244 3.313-1.244-3.319c-0.194-0.519-0.769-0.781-1.287-0.588l-0.938 0.35c-0.519 0.194-0.781 0.775-0.581 1.288l0.719 1.912-2.006-1.425c-0.45-0.319-1.075-0.219-1.394 0.231l-0.581 0.813c-0.319 0.45-0.219 1.075 0.231 1.394l1.919 1.375h-1.837c-1.106 0-2 0.894-2 2v22c0 1.106 0.894 2 2 2h10.556c-0.344-0.594-0.556-1.269-0.556-2v-14c0-1.869 1.3-3.438 3.037-3.869zM14 30c0 1.106 0.894 2 2 2h10v-8h-12v6zM28 32h10c1.106 0 2-0.894 2-2v-6h-12v8zM38 14h-1.275c0.163-0.475 0.275-0.969 0.275-1.488 0-2.219-1.688-4.513-4.506-4.513-3.006 0-4.744 2.981-5.494 4.706-0.756-1.725-2.494-4.706-5.494-4.706-2.819 0-4.506 2.294-4.506 4.513 0 0.519 0.106 1.012 0.275 1.488h-1.275c-1.106 0-2 0.894-2 2v6h12v-8h0.956l0.044-0.012 0.044 0.012h0.956v8h12v-6c0-1.106-0.894-2-2-2zM21 14c-0.169-0.088-0.319-0.188-0.45-0.3-0.456-0.4-0.55-0.863-0.55-1.188 0-0.606 0.4-1.512 1.506-1.512 1.169 0 2.225 1.713 2.781 3h-3.288zM33.45 13.7c-0.131 0.113-0.281 0.213-0.45 0.3h-3.288c0.55-1.269 1.613-3 2.781-3 1.106 0 1.506 0.906 1.506 1.512 0 0.325-0.094 0.787-0.55 1.188z"></path>
</svg>
