<!-- Generated by IcoMoon.io -->
<svg version="1.1" xmlns="http://www.w3.org/2000/svg" width="32" height="32" viewBox="0 0 32 32">
<title>gift</title>
<path d="M29 9h-2.456c0.594-0.838 0.956-1.869 0.956-3 0-2.756-2.087-5-4.656-5-2.644 0-4.175 1.587-6.844 5.987-2.669-4.4-4.2-5.987-6.844-5.987-2.569 0-4.656 2.244-4.656 5 0 1.131 0.362 2.162 0.956 3h-2.456c-1.656 0-3 1.344-3 3v6c0 0.55 0.45 1 1 1h1v9c0 1.656 1.344 3 3 3h22c1.656 0 3-1.344 3-3v-9h1c0.55 0 1-0.45 1-1v-6c0-1.656-1.344-3-3-3zM17.262 8.775c3.094-5.206 4.125-5.775 5.581-5.775 1.462 0 2.656 1.344 2.656 3s-1.194 3-2.656 3h-5.719l0.137-0.225zM9.156 3c1.463 0 2.488 0.569 5.581 5.775l0.131 0.225h-5.719c-1.463 0-2.656-1.344-2.656-3 0.006-1.656 1.2-3 2.662-3zM12 29h-7c-0.55 0-1-0.45-1-1v-9h8v10zM12 17h-10v-5c0-0.55 0.45-1 1-1h9v6zM18 29h-4v-18h4v18zM28 28c0 0.55-0.45 1-1 1h-7v-10h8v9zM30 17h-10v-6h9c0.55 0 1 0.45 1 1v5z"></path>
</svg>
