<!-- Generated by IcoMoon.io -->
<svg version="1.1" xmlns="http://www.w3.org/2000/svg" width="28" height="32" viewBox="0 0 28 32">
<title>gingerbread-man</title>
<path d="M14 21c-0.55 0-1 0.45-1 1s0.45 1 1 1 1-0.45 1-1-0.45-1-1-1zM12 5.5c-0.55 0-1 0.45-1 1s0.45 1 1 1 1-0.45 1-1-0.45-1-1-1zM14 17c-0.55 0-1 0.45-1 1s0.45 1 1 1 1-0.45 1-1-0.45-1-1-1zM14 13c-0.55 0-1 0.45-1 1s0.45 1 1 1 1-0.45 1-1-0.45-1-1-1zM16 5.5c-0.55 0-1 0.45-1 1s0.45 1 1 1 1-0.45 1-1-0.45-1-1-1zM28 15c0-2.756-2.244-5-5-5h-2.475c0.644-1.444 0.788-3.088 0.363-4.725-0.619-2.425-2.587-4.4-5-5.031-0.625-0.163-1.256-0.244-1.887-0.244-1.906 0-3.694 0.744-5.037 2.087s-2.088 3.131-2.088 5.037c0 1 0.213 1.981 0.612 2.875h-2.487c-2.756 0-5 2.244-5 5s2.244 5 5 5h1.744l-3.625 3.85c-1.738 2.137-1.413 5.294 0.725 7.031 0.894 0.719 2.013 1.119 3.156 1.119 1.512 0 2.931-0.675 3.881-1.85l3.119-3.225 3.119 3.225c0.95 1.175 2.369 1.85 3.881 1.85 1.144 0 2.262-0.4 3.15-1.119 2.137-1.738 2.462-4.894 0.725-7.031l-3.625-3.85h1.75c2.756 0 5-2.244 5-5zM19.038 20.444l4.288 4.663c1.044 1.288 0.85 3.175-0.438 4.219-0.556 0.45-1.225 0.675-1.887 0.675-0.875 0-1.738-0.381-2.331-1.106l-3.119-3.225c-0.4-0.494-0.975-0.738-1.55-0.738s-1.15 0.244-1.55 0.738l-3.119 3.225c-0.594 0.731-1.456 1.106-2.331 1.106-0.662 0-1.331-0.219-1.888-0.675-1.288-1.044-1.481-2.931-0.438-4.219l4.287-4.663c0.794-0.981 0.1-2.444-1.162-2.444h-2.8c-1.656 0-3-1.344-3-3s1.344-3 3-3h5.1c0.581 0 0.887-0.719 0.456-1.106-1.031-0.931-1.681-2.269-1.681-3.769 0-2.831 2.294-5.125 5.125-5.125 0.45 0 0.912 0.056 1.381 0.181 1.725 0.45 3.131 1.863 3.569 3.594 0.519 2.031-0.169 3.919-1.5 5.119-0.431 0.394-0.137 1.113 0.45 1.113h5.1c1.656 0 3 1.344 3 3s-1.344 3-3 3h-2.794c-1.262-0.006-1.962 1.456-1.169 2.438z"></path>
</svg>
