<!-- Generated by IcoMoon.io -->
<svg version="1.1" xmlns="http://www.w3.org/2000/svg" width="26" height="32" viewBox="0 0 26 32">
<title>gingerbread-man-solid</title>
<path d="M20.137 19h1.863c2.431 0 4.35-2.169 3.944-4.675-0.319-1.969-2.169-3.325-4.156-3.325h-4.119c-0.444 0-0.656-0.525-0.344-0.844 1.3-1.35 1.975-3.3 1.556-5.394-0.469-2.344-2.406-4.237-4.75-4.662-3.819-0.688-7.131 2.219-7.131 5.9 0 1.606 0.638 3.069 1.669 4.144 0.313 0.325 0.106 0.856-0.344 0.856h-4.112c-1.994 0-3.837 1.363-4.156 3.325-0.406 2.506 1.512 4.675 3.944 4.675h1.862c0.631 0 1.138 0.512 1.138 1.137 0 0.269-0.094 0.525-0.263 0.731l-3.638 4.363c-1.456 1.744-1.35 4.525 0.444 5.919 0.725 0.575 1.594 0.85 2.456 0.85 1.144 0 2.281-0.488 3.075-1.438l2.394-2.869c0.8-0.962 2.275-0.962 3.075 0l2.394 2.869c0.794 0.95 1.925 1.438 3.075 1.438 0.863 0 1.731-0.275 2.456-0.844 1.794-1.4 1.9-4.175 0.444-5.919l-3.637-4.363c-0.169-0.206-0.262-0.462-0.262-0.731-0.012-0.631 0.5-1.144 1.125-1.144zM11 6c-0.55 0-1-0.45-1-1s0.45-1 1-1 1 0.45 1 1-0.45 1-1 1zM13 23c-0.55 0-1-0.45-1-1s0.45-1 1-1 1 0.45 1 1-0.45 1-1 1zM13 19c-0.55 0-1-0.45-1-1s0.45-1 1-1 1 0.45 1 1-0.45 1-1 1zM13 15c-0.55 0-1-0.45-1-1s0.45-1 1-1 1 0.45 1 1-0.45 1-1 1zM15 6c-0.55 0-1-0.45-1-1s0.45-1 1-1 1 0.45 1 1-0.45 1-1 1z"></path>
</svg>
