<!-- Generated by IcoMoon.io -->
<svg version="1.1" xmlns="http://www.w3.org/2000/svg" width="32" height="32" viewBox="0 0 32 32">
<title>glass-whiskey</title>
<path d="M30 2h-28c-1.219 0-2.15 1.075-1.981 2.281l3.5 22.281c0.281 1.969 1.969 3.431 3.962 3.431h17.063c1.988 0 3.681-1.462 3.962-3.431l3.475-22.281c0.169-1.206-0.762-2.281-1.981-2.281zM26.525 26.281c-0.137 0.981-0.994 1.719-1.981 1.719h-17.063c-0.987 0-1.838-0.738-1.981-1.744l-1.3-8.256h23.613l-1.288 8.281zM28.125 16h-24.238l-1.887-12h28l-1.875 12z"></path>
</svg>
