<!-- Generated by IcoMoon.io -->
<svg version="1.1" xmlns="http://www.w3.org/2000/svg" width="16" height="32" viewBox="0 0 16 32">
<title>glass-champagne</title>
<path d="M15.938 13.269l-1.688-11.556c-0.144-0.981-0.988-1.712-1.981-1.712h-8.537c-0.994 0-1.837 0.731-1.981 1.712l-1.688 11.556c-0.563 4.3 2.619 8.094 6.938 8.625v8.106h-3.331c-0.925 0-1.669 0.744-1.669 1.669 0 0.181 0.15 0.331 0.331 0.331h11.331c0.188 0 0.331-0.15 0.331-0.331 0-0.919-0.744-1.669-1.669-1.669h-3.325v-8.106c4.313-0.525 7.5-4.325 6.938-8.625zM12.269 2l0.875 6h-10.287l0.875-6h8.537zM2.044 13.556l0.519-3.556h10.875l0.512 3.531c0.213 1.606-0.269 3.175-1.363 4.419-1.137 1.3-2.813 2.050-4.588 2.050s-3.45-0.75-4.594-2.050c-1.087-1.244-1.569-2.813-1.362-4.394z"></path>
</svg>
