<!-- Generated by IcoMoon.io -->
<svg version="1.1" xmlns="http://www.w3.org/2000/svg" width="40" height="32" viewBox="0 0 40 32">
<title>glass-cheers-solid</title>
<path d="M39.962 27.1c-0.525-1.275-1.987-1.881-3.263-1.35l-1.381 0.575-2.419-6.369c2.994-2.188 4.050-6.269 2.156-9.55l-5.413-9.406c-0.5-0.869-1.569-1.231-2.5-0.85l-7.144 2.962-7.144-2.962c-0.931-0.388-2-0.019-2.5 0.85l-5.412 9.406c-1.888 3.281-0.838 7.363 2.156 9.544l-2.419 6.369-1.381-0.575c-1.275-0.531-2.731 0.075-3.263 1.35-0.106 0.256 0.012 0.55 0.269 0.656l10.144 4.213c0.256 0.106 0.544-0.012 0.65-0.269 0.525-1.275-0.075-2.738-1.35-3.269l-1.381-0.575 2.463-6.475c0.275 0.031 0.55 0.081 0.819 0.081 3.231 0 6.213-2.069 7.088-5.331l1.262-4.713 1.262 4.713c0.875 3.262 3.856 5.331 7.087 5.331 0.269 0 0.544-0.050 0.819-0.081l2.456 6.475-1.381 0.575c-1.275 0.531-1.881 1.994-1.35 3.269 0.106 0.256 0.4 0.375 0.65 0.269l10.15-4.213c0.25-0.106 0.375-0.394 0.269-0.65zM17.244 10.131l-7.006-2.906 2.281-3.962 5.906 2.45-1.181 4.419zM22.756 10.131l-1.181-4.419 5.906-2.45 2.281 3.963-7.006 2.906z"></path>
</svg>
