<!-- Generated by IcoMoon.io -->
<svg version="1.1" xmlns="http://www.w3.org/2000/svg" width="24" height="32" viewBox="0 0 24 32">
<title>glass</title>
<path d="M22 0h-20c-0 0-0 0-0 0-1.105 0-2 0.895-2 2 0 0.044 0.001 0.088 0.004 0.131l-0-0.006 2 28c0.068 1.049 0.936 1.875 1.996 1.875 0 0 0 0 0 0h16c0 0 0 0 0 0 1.061 0 1.928-0.826 1.996-1.869l0-0.006 2-28c0.003-0.037 0.004-0.081 0.004-0.125 0-1.105-0.895-2-2-2-0 0-0 0-0 0v0zM22 2l-0.572 8h-18.857l-0.571-8zM4 29.983l-1.286-17.983h18.571l-1.286 18z"></path>
</svg>
