<!-- Generated by IcoMoon.io -->
<svg version="1.1" xmlns="http://www.w3.org/2000/svg" width="40" height="32" viewBox="0 0 40 32">
<title>glass-cheers</title>
<path d="M37.837 27.313l-2.188 0.813-2.875-7.712c3.563-2.012 4.969-6.469 2.925-10.006l-5.431-9.406c-0.369-0.637-1.038-1-1.731-1-0.256 0-0.512 0.050-0.762 0.15l-7.538 3.125c-0.087 0.038-0.381 0.038-0.469 0l-7.537-3.125c-0.25-0.106-0.506-0.15-0.762-0.15-0.694 0-1.369 0.363-1.731 1l-5.438 9.406c-2.044 3.537-0.638 7.994 2.925 10.006l-2.875 7.712-2.188-0.813c-0.863-0.319-1.819 0.119-2.144 0.981-0.063 0.175 0.025 0.363 0.194 0.431l8.744 3.262c0.175 0.063 0.363-0.025 0.431-0.194 0.319-0.863-0.119-1.825-0.981-2.144l-2.188-0.813 2.85-7.65c4.444 1.169 8.112-1.6 9.037-5.044l1.894-7.031 1.881 7.012c0.931 3.462 4.613 6.212 9.038 5.044l2.85 7.65-2.188 0.813c-0.863 0.319-1.3 1.281-0.981 2.144 0.063 0.175 0.256 0.262 0.431 0.194l8.744-3.262c0.175-0.063 0.263-0.256 0.194-0.431-0.313-0.85-1.269-1.288-2.131-0.962zM16.188 15.613c-0.988 3.675-4.869 4.438-7.356 3.406-3.037-1.256-4.412-4.813-2.794-7.613l1.594-2.762 9.387 3.887-0.831 3.081zM17.538 10.581l-8.9-3.688 2.825-4.894 7.537 3.125-1.462 5.456zM21 5.125l7.538-3.125 2.825 4.894-8.9 3.688-1.462-5.456zM23.813 15.613l-0.825-3.081 9.387-3.887 1.594 2.762c1.619 2.806 0.244 6.356-2.794 7.613-2.55 1.056-6.4 0.169-7.363-3.406z"></path>
</svg>
