<!-- Generated by IcoMoon.io -->
<svg version="1.1" xmlns="http://www.w3.org/2000/svg" width="32" height="32" viewBox="0 0 32 32">
<title>glass-whiskey-rocks</title>
<path d="M30 2h-28c-1.219 0-2.15 1.075-1.981 2.281l3.5 22.281c0.281 1.969 1.969 3.431 3.962 3.431h17.063c1.988 0 3.681-1.462 3.962-3.431l3.475-22.281c0.169-1.206-0.762-2.281-1.981-2.281zM26.525 26.281c-0.137 0.981-0.994 1.719-1.981 1.719h-17.063c-0.987 0-1.838-0.738-1.981-1.744l-1.3-8.256h1.8v3c0 1.656 1.344 3 3 3h6c0.875 0 1.656-0.387 2.206-0.994l0.675 0.675c0.569 0.569 1.319 0.881 2.119 0.881s1.556-0.313 2.119-0.881l3.563-3.563c0.587-0.587 0.875-1.356 0.875-2.119h1.256l-1.288 8.281zM15.731 18.706c-0.387-0.387-0.387-1.025 0-1.413l3.563-3.563c0.194-0.194 0.45-0.294 0.706-0.294s0.512 0.1 0.706 0.294l3.563 3.563c0.387 0.387 0.387 1.025 0 1.413l-3.563 3.563c-0.194 0.194-0.45 0.294-0.706 0.294s-0.512-0.1-0.706-0.294l-3.563-3.563zM14.319 15.881c-1.169 1.169-1.169 3.075 0 4.244l1.469 1.469c-0.181 0.244-0.456 0.413-0.787 0.413h-6c-0.55 0-1-0.45-1-1v-6c0-0.55 0.45-1 1-1h6c0.325 0 0.606 0.169 0.787 0.412l-1.469 1.463zM28.125 16h-2.363c-0.031-0.037-0.044-0.088-0.081-0.119l-3.563-3.563c-0.563-0.569-1.319-0.881-2.119-0.881s-1.556 0.313-2.119 0.881l-0.675 0.675c-0.55-0.606-1.331-0.994-2.206-0.994h-6c-1.656 0-3 1.344-3 3v1h-2.112l-1.888-12h28l-1.875 12z"></path>
</svg>
