<!-- Generated by IcoMoon.io -->
<svg version="1.1" xmlns="http://www.w3.org/2000/svg" width="32" height="32" viewBox="0 0 32 32">
<title>glass-whiskey-rocks-solid</title>
<path d="M15.756 21.587l2.831 2.831c0.781 0.781 2.050 0.781 2.831 0l2.831-2.831c0.781-0.781 0.781-2.050 0-2.831l-2.831-2.831c-0.781-0.781-2.050-0.781-2.831 0l-2.831 2.831c-0.781 0.781-0.781 2.050 0 2.831zM30 2h-28c-1.219 0-2.15 1.075-1.981 2.281l3.5 22.281c0.281 1.969 1.969 3.431 3.962 3.431h17.063c1.988 0 3.681-1.462 3.962-3.431l3.475-22.281c0.169-1.206-0.762-2.281-1.981-2.281zM25.856 17.587c0.619 0.725 0.975 1.625 0.975 2.587 0 1.069-0.419 2.075-1.169 2.831l-2.831 2.831c-0.756 0.744-1.762 1.163-2.831 1.163s-2.075-0.419-2.831-1.169l-2.825-2.831h-4.344c-2.206 0-4-1.794-4-4v-2.431l-1.662-10.569h23.325l-1.806 11.588zM10 21h3.262c-0.056-0.269-0.088-0.544-0.088-0.831 0-1.069 0.419-2.075 1.169-2.831l1.656-1.65v-0.688c0-1.106-0.894-2-2-2h-4c-1.106 0-2 0.894-2 2v4c0 1.106 0.894 2 2 2z"></path>
</svg>
