<!-- Generated by IcoMoon.io -->
<svg version="1.1" xmlns="http://www.w3.org/2000/svg" width="36" height="32" viewBox="0 0 36 32">
<title>glasses-alt-solid</title>
<path d="M35.032 14.119l-1.985-7.954c-0.419-1.679-2.109-4.165-5.339-4.165-0.977 0-1.439 0.184-2.689 0.6-0.524 0.174-0.808 0.741-0.633 1.265l0.316 0.949c0.14 0.419 0.53 0.684 0.949 0.684 0.221 0 0.301-0.046 1.139-0.326 1.629-0.542 3.012 0.383 3.346 1.721l1.854 7.418c-1.306-0.818-2.837-1.311-4.491-1.311-3.443 0-6.392 2.057-7.728 5h-3.544c-1.336-2.943-4.285-5-7.728-5-1.654 0-3.186 0.492-4.491 1.31l1.854-7.418c0.332-1.338 1.716-2.264 3.346-1.721 0.839 0.279 0.919 0.326 1.139 0.326 0.419 0 0.809-0.265 0.949-0.684l0.316-0.949c0.175-0.524-0.108-1.091-0.633-1.265-1.249-0.416-1.712-0.599-2.689-0.599-3.229 0-4.92 2.486-5.339 4.165l-1.985 7.954c-0.833 3.34-0.968 4.639-0.968 7.381 0 4.694 3.806 8.5 8.5 8.5 4.523 0 8.186-3.543 8.449-8h2.101c0.264 4.457 3.926 8 8.449 8 4.694 0 8.5-3.806 8.5-8.5 0.001-2.742-0.134-4.041-0.968-7.381zM8.5 26c-2.481 0-4.5-2.019-4.5-4.5s2.019-4.5 4.5-4.5 4.5 2.019 4.5 4.5-2.019 4.5-4.5 4.5zM27.5 26c-2.481 0-4.5-2.019-4.5-4.5s2.019-4.5 4.5-4.5 4.5 2.019 4.5 4.5-2.019 4.5-4.5 4.5z"></path>
</svg>
