<!-- Generated by IcoMoon.io -->
<svg version="1.1" xmlns="http://www.w3.org/2000/svg" width="16" height="32" viewBox="0 0 16 32">
<title>glass-champagne-solid</title>
<path d="M13.5 29h-3.5v-7.269c3.794-0.95 6.456-4.5 5.938-8.463l-1.688-11.556c-0.144-0.981-0.988-1.712-1.981-1.712h-8.537c-0.994 0-1.837 0.731-1.981 1.712l-1.688 11.556c-0.519 3.963 2.144 7.513 5.938 8.463v7.269h-3.5c-1.381 0-2.5 1.119-2.5 2.5 0 0.275 0.225 0.5 0.5 0.5h15c0.275 0 0.5-0.225 0.5-0.5 0-1.381-1.119-2.5-2.5-2.5zM3.862 8l0.731-5h6.813l0.731 5h-8.275z"></path>
</svg>
