<!-- Generated by IcoMoon.io -->
<svg version="1.1" xmlns="http://www.w3.org/2000/svg" width="36" height="32" viewBox="0 0 36 32">
<title>glasses</title>
<path d="M35.888 17.536l-2.843-11.75c-0.336-1.347-1.226-2.503-2.443-3.171-1.217-0.666-2.666-0.8-3.988-0.361l-1.428 0.476c-0.262 0.087-0.404 0.371-0.316 0.632l0.316 0.949c0.087 0.262 0.371 0.404 0.633 0.316l1.362-0.454c0.631-0.211 1.323-0.247 1.952-0.030 1.009 0.348 1.723 1.133 1.969 2.115l2.538 10.715c-1.397-0.477-3.328-0.941-5.598-0.941-2.334 0-5.016 0.5-7.813 1.968h-4.457c-2.796-1.468-5.479-1.968-7.813-1.968-2.271 0-4.201 0.465-5.599 0.942l2.536-10.703c0.21-0.84 0.749-1.527 1.518-1.931 0.765-0.402 1.68-0.407 2.499-0.134l1.268 0.423c0.262 0.088 0.545-0.054 0.633-0.316l0.316-0.949c0.088-0.262-0.054-0.545-0.316-0.632l-1.428-0.476c-1.318-0.441-2.769-0.309-3.988 0.359-1.216 0.667-2.106 1.824-2.444 3.182l-2.841 11.737c-0.075 0.308-0.113 0.624-0.113 0.941v4.602c0 3.822 3.134 6.92 7 6.92h2.255c3.663 0 6.706-2.792 6.981-6.402l0.273-3.598h2.982l0.273 3.598c0.274 3.611 3.317 6.402 6.981 6.402h2.255c3.866 0 7-3.098 7-6.92v-4.603c0-0.317-0.038-0.633-0.112-0.941zM14.241 23.446c-0.194 2.554-2.384 4.554-4.986 4.554h-2.255c-2.757 0-5-2.207-5-4.92v-3.831c1.174-0.498 3.326-1.216 5.961-1.216 2.272 0 4.478 0.527 6.573 1.571l-0.292 3.843zM34 23.080c0 2.713-2.243 4.92-5 4.92h-2.255c-2.602 0-4.793-2-4.986-4.554l-0.292-3.843c2.096-1.043 4.302-1.571 6.574-1.571 2.635 0 4.785 0.718 5.959 1.216v3.831z"></path>
</svg>
