<!-- Generated by IcoMoon.io -->
<svg version="1.1" xmlns="http://www.w3.org/2000/svg" width="36" height="32" viewBox="0 0 36 32">
<title>glasses-alt</title>
<path d="M35.774 18.914l-2.727-13.116c-0.338-1.358-1.229-2.514-2.445-3.183-1.219-0.669-2.67-0.801-3.988-0.359l-1.428 0.476c-0.262 0.087-0.404 0.371-0.316 0.632l0.316 0.949c0.087 0.262 0.371 0.404 0.633 0.316l1.268-0.423c0.819-0.273 1.734-0.268 2.499 0.134 0.769 0.404 1.309 1.091 1.518 1.931l1.903 8.803c-1.486-1.276-3.394-2.074-5.506-2.074-4.181 0-7.638 3.024-8.349 7h-2.303c-0.711-3.976-4.168-7-8.349-7-2.112 0-4.020 0.799-5.506 2.074l1.903-8.803c0.21-0.84 0.749-1.527 1.518-1.931 0.765-0.402 1.68-0.407 2.499-0.134l1.268 0.423c0.262 0.088 0.545-0.054 0.633-0.316l0.316-0.949c0.088-0.262-0.054-0.545-0.316-0.632l-1.428-0.476c-1.318-0.441-2.769-0.309-3.988 0.359-1.216 0.669-2.107 1.825-2.445 3.183l-2.728 13.116c-0.136 0.624-0.218 1.343-0.226 2.080l-0 0.006v0.5c0 4.694 3.806 8.5 8.5 8.5 4.523 0 8.186-3.543 8.449-8h2.101c0.264 4.457 3.926 8 8.449 8 4.694 0 8.5-3.806 8.5-8.5v-0.5c-0.006-0.701-0.083-1.399-0.225-2.086zM8.5 28c-3.584 0-6.5-2.916-6.5-6.5s2.916-6.5 6.5-6.5 6.5 2.916 6.5 6.5-2.916 6.5-6.5 6.5zM27.5 28c-3.584 0-6.5-2.916-6.5-6.5s2.916-6.5 6.5-6.5 6.5 2.916 6.5 6.5-2.916 6.5-6.5 6.5z"></path>
</svg>
