<!-- Generated by IcoMoon.io -->
<svg version="1.1" xmlns="http://www.w3.org/2000/svg" width="32" height="32" viewBox="0 0 32 32">
<title>glass-citrus</title>
<path d="M23 0c-3.913 0-7.209 2.513-8.449 6h2.148c1.125-2.358 3.513-4 6.301-4 3.866 0 7 3.134 7 7v0c0 3.721-2.913 6.735-6.578 6.957l-0.201 2.020c4.866-0.119 8.779-4.082 8.779-8.977 0-4.971-4.029-9-9-9v0zM20 8h-18c-1.105 0-2 0.895-2 2 0 0.070 0.004 0.139 0.011 0.207l-0.001-0.009 2 20c0.104 1.016 0.955 1.801 1.99 1.801h14c1.035-0 1.886-0.786 1.989-1.793l0.001-0.009 2-20c0.006-0.060 0.010-0.129 0.010-0.199 0-1.105-0.895-2-2-2v0zM18 30h-14l-1.2-12h16.4zM19.4 16h-16.8l-0.6-6h18z"></path>
</svg>
