<!-- Generated by IcoMoon.io -->
<svg version="1.1" xmlns="http://www.w3.org/2000/svg" width="36" height="32" viewBox="0 0 36 32">
<title>glasses-solid</title>
<path d="M35.881 17.523l-2.834-11.357c-0.369-1.481-1.349-2.753-2.688-3.488-1.34-0.733-2.936-0.882-4.387-0.396l-0.953 0.317c-0.524 0.174-0.808 0.741-0.633 1.265l0.316 0.949c0.174 0.524 0.741 0.807 1.264 0.633l0.824-0.274c0.679-0.226 1.438-0.223 2.073 0.108 0.643 0.336 1.098 0.91 1.273 1.614l2.404 9.614c-1.387-0.426-3.112-0.779-5.075-0.779-2.173 0-4.624 0.439-7.178 1.671h-4.574c-2.554-1.234-5.005-1.672-7.179-1.672-1.964 0-3.689 0.353-5.076 0.779l2.404-9.614c0.174-0.703 0.631-1.278 1.274-1.613 0.635-0.331 1.393-0.334 2.072-0.108l0.823 0.274c0.524 0.174 1.090-0.109 1.264-0.633l0.316-0.949c0.175-0.524-0.108-1.091-0.633-1.265l-0.953-0.317c-1.451-0.486-3.047-0.338-4.387 0.396-1.338 0.736-2.318 2.007-2.688 3.487l-2.834 11.358c-0.075 0.291-0.119 0.624-0.119 0.968v4.391c0 3.931 3.224 7.118 7.2 7.118h2.32c3.768 0 6.898-2.871 7.18-6.586l0.183-2.414h2.234l0.183 2.414c0.281 3.714 3.412 6.586 7.179 6.586h2.32c3.976 0 7.2-3.187 7.2-7.117v-4.391c0-0.327-0.040-0.652-0.119-0.969zM12.711 23.112c-0.123 1.619-1.525 2.888-3.191 2.888h-2.32c-1.764 0-3.2-1.399-3.2-3.118v-2.346c1.133-0.406 2.714-0.808 4.536-0.808 1.491 0 2.954 0.271 4.371 0.808l-0.196 2.576zM32 22.883c0 1.719-1.436 3.117-3.2 3.117h-2.32c-1.667 0-3.069-1.269-3.191-2.888l-0.196-2.576c1.417-0.537 2.88-0.808 4.372-0.808 1.82 0 3.402 0.402 4.534 0.808v2.346z"></path>
</svg>
