<!-- Generated by IcoMoon.io -->
<svg version="1.1" xmlns="http://www.w3.org/2000/svg" width="32" height="32" viewBox="0 0 32 32">
<title>glass-martini</title>
<path d="M31.378 3.6c1.328-1.329 0.387-3.6-1.491-3.6h-27.775c-1.878 0-2.819 2.271-1.491 3.6l14.378 14.377v12.023h-3.333c-0.921 0-1.667 0.746-1.667 1.667 0 0.184 0.149 0.333 0.333 0.333h11.333c0.184 0 0.333-0.149 0.333-0.333 0-0.921-0.746-1.667-1.667-1.667h-3.332v-12.023l14.378-14.377zM16.004 16.146l-13.967-13.96c-0.032-0.032-0.051-0.051-0.024-0.118s0.055-0.067 0.1-0.067h27.775c0.045 0 0.073 0 0.1 0.067s0.009 0.086-0.024 0.118l-13.96 13.961z"></path>
</svg>
