<!-- Generated by IcoMoon.io -->
<svg version="1.1" xmlns="http://www.w3.org/2000/svg" width="28" height="32" viewBox="0 0 28 32">
<title>globe-snow</title>
<path d="M14 6c0.55 0 1-0.45 1-1s-0.45-1-1-1-1 0.45-1 1 0.45 1 1 1zM7 11c0-0.55-0.45-1-1-1s-1 0.45-1 1 0.45 1 1 1 1-0.45 1-1zM20 10c0.55 0 1-0.45 1-1s-0.45-1-1-1-1 0.45-1 1 0.45 1 1 1zM22.706 24.938c3.219-2.563 5.294-6.5 5.294-10.938 0-7.731-6.269-14-14-14s-14 6.269-14 14c0 4.438 2.075 8.375 5.294 10.938l-2.894 3.863c-0.988 1.319-0.050 3.2 1.6 3.2h20c1.65 0 2.587-1.881 1.6-3.2l-2.894-3.863zM2 14c0-6.619 5.381-12 12-12s12 5.381 12 12c0 4.169-2.144 7.85-5.381 10h-5.619v-2h5c0.769 0 1.469-0.438 1.8-1.131s0.238-1.512-0.238-2.113l-1.231-1.538c0.081-0.106 0.15-0.219 0.206-0.337 0.331-0.688 0.244-1.512-0.231-2.113l-4.738-6.019c-0.381-0.481-0.956-0.763-1.569-0.763s-1.194 0.281-1.569 0.763l-4.75 6.019c-0.475 0.6-0.563 1.425-0.225 2.113 0.056 0.119 0.131 0.231 0.206 0.337l-1.225 1.531c-0.481 0.6-0.575 1.425-0.237 2.113 0.331 0.7 1.031 1.137 1.8 1.137h5v2h-5.619c-3.237-2.15-5.381-5.831-5.381-10zM9.25 16.006l4.75-6.019 4.744 6.012h-1.938l3.194 4h-5v-5.5c0-0.275-0.225-0.5-0.5-0.5h-1c-0.275 0-0.5 0.225-0.5 0.5v5.5h-5l3.194-4-1.944 0.006zM4 30l3-4h14l3 4h-20z"></path>
</svg>
