<!-- Generated by IcoMoon.io -->
<svg version="1.1" xmlns="http://www.w3.org/2000/svg" width="31" height="32" viewBox="0 0 31 32">
<title>globe-asia-solid</title>
<path d="M15.5 0.5c-8.561 0-15.5 6.939-15.5 15.5s6.939 15.5 15.5 15.5 15.5-6.939 15.5-15.5-6.939-15.5-15.5-15.5zM14.791 15.514c-0.181 0.301-0.506 0.486-0.857 0.486h-0.019c-0.265 0-0.519 0.106-0.707 0.293l-0.354 0.354c-0.195 0.195-0.195 0.512 0 0.707l0.354 0.354c0.188 0.188 0.293 0.442 0.293 0.707v0.586c0 0.552-0.447 1-1 1h-0.382c-0.379 0-0.725-0.214-0.894-0.553l-1.414-2.827c-0.152-0.305-0.559-0.371-0.801-0.13l-1.217 1.216c-0.188 0.188-0.442 0.293-0.707 0.293h-3.911c-0.106-0.652-0.176-1.317-0.176-1.999 0-6.893 5.607-12.5 12.5-12.5 1.344 0 2.638 0.219 3.852 0.614l-3.135 2.408c-0.319 0.213-0.289 0.691 0.054 0.863l0.677 0.338c0.339 0.169 0.552 0.516 0.552 0.894v4.883c0 0.276-0.224 0.5-0.5 0.5h-0.191c-0.189 0-0.363-0.107-0.447-0.276-0.098-0.195-0.373-0.206-0.485-0.019l-1.086 1.809zM25.5 22.402c0 0.265-0.106 0.519-0.293 0.707l-0.598 0.598c-0.188 0.188-0.442 0.293-0.707 0.293h-0.948c-0.265 0-0.519-0.106-0.707-0.293l-0.813-0.813c-0.303-0.303-0.721-0.49-1.183-0.49-0.144 0-0.284 0.018-0.417 0.052l0.012-0.003-1.329 0.332c-0.079 0.020-0.161 0.030-0.242 0.030h-0.646c-0.265 0-0.519-0.106-0.707-0.293l-0.744-0.744c-0.090-0.091-0.146-0.216-0.146-0.354 0-0 0-0 0-0v0-0.637c0-0.204 0.124-0.388 0.314-0.464l2.459-0.984c0.124-0.049 0.241-0.114 0.349-0.191l1.482-1.056c0.080-0.058 0.181-0.093 0.289-0.093 0 0 0 0 0.001 0h0.756c0.202 0 0.384 0.121 0.462 0.308l0.334 0.803c0.039 0.091 0.127 0.154 0.231 0.154h0.238c0.111 0 0.209-0.074 0.24-0.18l0.262-0.904c0.031-0.107 0.129-0.18 0.24-0.18h0.379c0.138 0 0.25 0.112 0.25 0.25v0.808c0 0.133 0.052 0.26 0.146 0.354l0.744 0.744c0.188 0.188 0.293 0.442 0.293 0.707v1.538z"></path>
</svg>
