<!-- Generated by IcoMoon.io -->
<svg version="1.1" xmlns="http://www.w3.org/2000/svg" width="28" height="32" viewBox="0 0 28 32">
<title>globe-stand</title>
<path d="M22.513 30h-7.504v-3.151c3.148-0.413 6.19-1.822 8.612-4.243 5.451-5.447 5.803-14.026 1.115-19.913l1.134-1.133c0.091-0.090 0.147-0.215 0.147-0.353s-0.056-0.263-0.147-0.353v0l-0.708-0.708c-0.091-0.090-0.216-0.146-0.354-0.146s-0.263 0.056-0.354 0.146v0l-2.466 2.464c0.071 0.068 0.148 0.127 0.218 0.197 2.457 2.456 3.81 5.72 3.81 9.193s-1.353 6.737-3.81 9.192c-2.457 2.455-5.724 3.808-9.198 3.808s-6.741-1.352-9.198-3.808c-0.069-0.069-0.129-0.146-0.197-0.217l-3.466 3.464c-0.091 0.090-0.147 0.215-0.147 0.353s0.056 0.263 0.147 0.353v0l0.708 0.707c0.091 0.090 0.216 0.146 0.354 0.146s0.263-0.056 0.354-0.146v0l2.134-2.133c2.721 2.164 6.016 3.239 9.313 3.248v3.031h-7.506c-0.829 0-1.501 0.671-1.501 1.5 0 0.276 0.224 0.5 0.5 0.5h19.012c0.276 0 0.5-0.224 0.5-0.5 0.001-0.829-0.671-1.5-1.501-1.5zM13.008 23c2.817 0 5.634-1.074 7.783-3.222 4.298-4.296 4.298-11.261 0-15.556-2.149-2.148-4.966-3.222-7.783-3.222s-5.634 1.074-7.783 3.222c-4.298 4.296-4.298 11.261 0 15.556 2.149 2.148 4.966 3.222 7.783 3.222zM6.639 5.636c1.701-1.7 3.962-2.636 6.368-2.636s4.667 0.936 6.368 2.636c1.701 1.7 2.637 3.96 2.637 6.364s-0.937 4.664-2.637 6.364c-1.701 1.7-3.963 2.636-6.368 2.636s-4.667-0.936-6.368-2.636c-1.701-1.7-2.638-3.96-2.638-6.364s0.937-4.664 2.638-6.364z"></path>
</svg>
