<!-- Generated by IcoMoon.io -->
<svg version="1.1" xmlns="http://www.w3.org/2000/svg" width="31" height="32" viewBox="0 0 31 32">
<title>globe-solid</title>
<path d="M21.031 10c-0.906-5.581-3.044-9.5-5.531-9.5s-4.625 3.919-5.531 9.5h11.063zM9.5 16c0 1.387 0.075 2.719 0.206 4h11.581c0.131-1.281 0.206-2.613 0.206-4s-0.075-2.719-0.206-4h-11.581c-0.131 1.281-0.206 2.613-0.206 4zM29.794 10c-1.788-4.244-5.406-7.525-9.875-8.85 1.525 2.112 2.575 5.294 3.125 8.85h6.75zM11.075 1.15c-4.463 1.325-8.088 4.606-9.869 8.85h6.75c0.544-3.556 1.594-6.737 3.119-8.85zM30.462 12h-7.169c0.131 1.313 0.206 2.656 0.206 4s-0.075 2.688-0.206 4h7.162c0.344-1.281 0.538-2.613 0.538-4s-0.194-2.719-0.531-4zM7.5 16c0-1.344 0.075-2.688 0.206-4h-7.169c-0.338 1.281-0.537 2.613-0.537 4s0.2 2.719 0.537 4h7.162c-0.125-1.313-0.2-2.656-0.2-4zM9.969 22c0.906 5.581 3.044 9.5 5.531 9.5s4.625-3.919 5.531-9.5h-11.063zM19.925 30.85c4.463-1.325 8.088-4.606 9.875-8.85h-6.75c-0.55 3.556-1.6 6.738-3.125 8.85zM1.206 22c1.788 4.244 5.406 7.525 9.875 8.85-1.525-2.113-2.575-5.294-3.125-8.85h-6.75z"></path>
</svg>
