<!-- Generated by IcoMoon.io -->
<svg version="1.1" xmlns="http://www.w3.org/2000/svg" width="31" height="32" viewBox="0 0 31 32">
<title>globe-europe-solid</title>
<path d="M15.5 0.5c-8.563 0-15.5 6.938-15.5 15.5s6.938 15.5 15.5 15.5 15.5-6.938 15.5-15.5-6.938-15.5-15.5-15.5zM28 16c0 1.406-0.244 2.762-0.675 4.025h-1.269c-0.269 0-0.525-0.106-0.712-0.3l-2-2.038c-0.281-0.288-0.281-0.756 0.006-1.044l0.781-0.781v-0.544c0-0.188-0.075-0.369-0.206-0.5l-0.587-0.588c-0.131-0.131-0.313-0.206-0.5-0.206h-1c-0.387 0-0.706-0.319-0.706-0.706 0-0.188 0.075-0.369 0.206-0.5l0.587-0.588c0.131-0.131 0.313-0.206 0.5-0.206h2c0.387 0 0.706-0.319 0.706-0.706v-0.588c0-0.387-0.319-0.706-0.706-0.706h-2.294c-0.55 0-1 0.45-1 1v0.281c0 0.431-0.275 0.813-0.681 0.95l-1.975 0.656c-0.206 0.069-0.344 0.256-0.344 0.475v0.137c0 0.275-0.225 0.5-0.5 0.5h-1c-0.275 0-0.5-0.225-0.5-0.5s-0.225-0.5-0.5-0.5h-0.194c-0.188 0-0.363 0.106-0.45 0.275l-0.588 1.169c-0.169 0.338-0.512 0.55-0.894 0.55h-1.381c-0.55 0-1-0.45-1-1v-1.581c0-0.262 0.106-0.519 0.294-0.706l1.256-1.256c0.287-0.287 0.45-0.681 0.45-1.094 0-0.213 0.137-0.406 0.344-0.475l2.5-0.831c0.106-0.037 0.2-0.094 0.275-0.169l1.675-1.675c0.131-0.131 0.206-0.313 0.206-0.5 0-0.388-0.319-0.706-0.706-0.706h-1.294l-1 1v0.5c0 0.275-0.225 0.5-0.5 0.5h-1c-0.275 0-0.5-0.225-0.5-0.5v-1.25c0-0.156 0.075-0.306 0.2-0.4l1.806-1.356c0.119-0.006 0.238-0.019 0.356-0.019 6.906 0 12.513 5.606 12.513 12.5zM8.131 9.319c0-0.188 0.075-0.369 0.206-0.5l1.588-1.588c0.131-0.131 0.313-0.206 0.5-0.206 0.387 0 0.706 0.319 0.706 0.706v1c0 0.188-0.075 0.369-0.206 0.5l-0.588 0.588c-0.131 0.131-0.313 0.206-0.5 0.206h-1c-0.387 0-0.706-0.319-0.706-0.706zM16.131 28.469v-0.444c0-0.55-0.45-1-1-1h-1.262c-0.675 0-1.669-0.331-2.213-0.738l-1.387-1.044c-0.719-0.538-1.137-1.381-1.137-2.275v-1.494c0-1 0.525-1.925 1.381-2.438l2.681-1.606c0.444-0.262 0.95-0.406 1.463-0.406h1.95c0.681 0 1.337 0.244 1.85 0.681l2.7 2.319h1.144c0.531 0 1.038 0.212 1.413 0.587l1.081 1.081c0.212 0.212 0.506 0.331 0.806 0.331h0.837c-2.025 3.681-5.863 6.219-10.306 6.444z"></path>
</svg>
