<!-- Generated by IcoMoon.io -->
<svg version="1.1" xmlns="http://www.w3.org/2000/svg" width="31" height="32" viewBox="0 0 31 32">
<title>globe-africa-solid</title>
<path d="M15.5 0.5c-8.561 0-15.5 6.939-15.5 15.5s6.939 15.5 15.5 15.5 15.5-6.939 15.5-15.5-6.939-15.5-15.5-15.5zM25.5 13.969v0.433c0 0.367-0.207 0.703-0.536 0.866l-0.962 0.481c-0.126 0.065-0.275 0.102-0.433 0.102-0.2 0-0.386-0.061-0.541-0.165l0.003 0.002-1.138-0.759c-0.151-0.102-0.337-0.163-0.538-0.163-0.109 0-0.215 0.018-0.313 0.052l0.007-0.002-0.166 0.055c-0.606 0.202-0.854 0.924-0.499 1.456l0.828 1.241c0.179 0.269 0.482 0.431 0.806 0.431h0.513c0.535 0 0.969 0.434 0.969 0.969v0.709c0 0.209-0.068 0.414-0.194 0.581l-1.171 1.561c-0.089 0.119-0.149 0.256-0.177 0.402l-0.269 1.427c-0.039 0.206-0.143 0.393-0.297 0.535-0.585 0.537-1.1 1.135-1.54 1.787l-0.023 0.035-0.814 1.222c-0.316 0.468-0.844 0.772-1.443 0.773v0c-0.657 0-1.258-0.371-1.551-0.959-0.328-0.643-0.521-1.401-0.521-2.205 0-0 0-0 0-0v0-1.868c0-0.535-0.434-0.969-0.969-0.969h-1.617c-0.906 0-1.774-0.36-2.414-1-0.618-0.618-1-1.472-1-2.414v-0.879c0-1.074 0.506-2.086 1.366-2.731l1.724-1.293c0.564-0.426 1.276-0.683 2.049-0.683h0.056c0.53 0 1.053 0.123 1.527 0.361l0.92 0.46c0.23 0.115 0.496 0.134 0.739 0.053l2.957-0.986c0.396-0.132 0.663-0.502 0.663-0.919 0-0.535-0.434-0.969-0.969-0.969h-0.631c-0.257 0-0.503-0.102-0.685-0.284l-0.433-0.432c-0.175-0.175-0.417-0.284-0.685-0.284-0 0-0 0-0 0h-5.628c-0.535 0-0.969-0.434-0.969-0.969v-0.275c0-0.444 0.303-0.832 0.734-0.94l0.903-0.226c0.234-0.059 0.438-0.202 0.571-0.402l0.505-0.757c0.179-0.269 0.482-0.431 0.806-0.431h1.513c0.535 0 0.969-0.434 0.969-0.969v-1.356c4.951 0.803 8.928 4.514 10.12 9.326h-1.152c-0.535 0-0.969 0.434-0.969 0.969z"></path>
</svg>
