<!-- Generated by IcoMoon.io -->
<svg version="1.1" xmlns="http://www.w3.org/2000/svg" width="31" height="32" viewBox="0 0 31 32">
<title>globe-americas</title>
<path d="M15.5 0.5c-8.561 0-15.5 6.939-15.5 15.5s6.939 15.5 15.5 15.5 15.5-6.939 15.5-15.5-6.939-15.5-15.5-15.5zM28.983 16.341l-2.676-0.669c-0.123-0.031-0.229-0.104-0.297-0.208l-1.123-1.686c-0.052-0.078-0.083-0.174-0.083-0.277s0.031-0.199 0.085-0.279l-0.001 0.002 1.224-1.837c0.049-0.072 0.113-0.131 0.191-0.169l1.498-0.749c0.764 1.691 1.2 3.56 1.2 5.532 0 0.115-0.014 0.226-0.017 0.341zM2 16c0-0.745 0.076-1.471 0.193-2.183 0.447 0.662 0.907 1.341 1.244 1.835 0.368 0.542 0.801 1.038 1.336 1.521 0.67 0.606 1.41 1.114 2.197 1.51 0.863 0.436 2.129 1.122 3.018 1.614 0.314 0.175 0.512 0.51 0.512 0.873v2.001c0 0.801 0.313 1.555 0.879 2.121 0.791 0.791 1.182 1.979 1.121 2.496v1.363c-6.004-1.369-10.501-6.741-10.501-13.152zM14.495 29.449l-0.005-1.527c0.156-1.161-0.59-2.936-1.697-4.043-0.186-0.186-0.293-0.444-0.293-0.707v-2.001c0-1.092-0.592-2.097-1.545-2.623-0.906-0.502-2.199-1.204-3.084-1.651-0.629-0.316-1.221-0.723-1.809-1.253-0.363-0.33-0.684-0.697-0.959-1.097l-0.014-0.021c-0.604-0.887-1.596-2.357-2.212-3.272 1.624-4.304 5.374-7.571 9.973-8.491l3.237 3.237-0.939 0.939c-0.564 0.564-0.584 1.471-0.059 2.059l-0.357 0.002c-0.391 0-0.762 0.151-1.045 0.425l-0.619 0.603c-0.473 0.456-0.592 1.158-0.297 1.747l0.25 0.499c-0.434-0.172-0.924-0.195-1.377-0.041l-1.949 0.649c-0.699 0.238-1.193 0.888-1.193 1.654 0 0.001 0 0.001 0 0.002v-0c0 0.666 0.369 1.264 0.965 1.563l0.693 0.347c0.67 0.335 1.414 0.524 2.164 0.55 0.149 0.144 0.391 0.473 0.543 0.681 0.369 0.505 0.719 0.983 1.188 1.217l0.211 0.106h4.408c0.264 0 0.521 0.106 0.707 0.293l0.856 0.856c0.163 0.165 0.265 0.391 0.266 0.642v0c0 0.503-0.205 0.995-0.566 1.354l-0.709 0.708c-0.299 0.301-0.522 0.678-0.637 1.1l-0.004 0.017-0.070 0.276c-0.059 0.231-0.115 0.461-0.199 0.688l-1.674 4.511c-0.377 0.032-0.756 0.058-1.141 0.058-0.34-0.001-0.672-0.027-1.006-0.052zM18.921 29.044l1.266-3.413c0.111-0.294 0.189-0.596 0.266-0.898l0.064-0.253c0.021-0.082 0.066-0.159 0.256-0.349l0.574-0.573c0.733-0.727 1.152-1.738 1.152-2.769 0-0.766-0.311-1.514-0.851-2.056l-0.856-0.856c-0.559-0.559-1.332-0.879-2.121-0.879h-3.809c-0.119-0.139-0.271-0.349-0.385-0.504-0.513-0.701-1.096-1.496-1.978-1.496-0.5 0-1-0.118-1.447-0.342l-0.146-0.073 1.369-0.456 0.58 0.504c0.274 0.236 0.621 0.367 0.982 0.367h0.354c0.524 0 1-0.266 1.276-0.712 0.276-0.445 0.301-0.991 0.066-1.459l-0.811-1.622 0.211-0.207h0.359c0.401 0 0.777-0.156 1.061-0.439l0.5-0.5c0.564-0.564 0.584-1.471 0.059-2.059l0.588-0.588c0.377-0.378 0.586-0.88 0.586-1.414s-0.209-1.036-0.586-1.414l-2.082-2.082c0.027 0 0.054-0.004 0.082-0.004 4.758 0 8.94 2.48 11.345 6.209l-1.436 0.718c-0.394 0.2-0.719 0.488-0.956 0.84l-0.006 0.009-1.224 1.837c-0.563 0.842-0.563 1.931 0 2.774l1.123 1.686c0.346 0.517 0.867 0.886 1.474 1.038l2.961 0.74c-0.92 5.197-4.815 9.367-9.862 10.692z"></path>
</svg>
