<!-- Generated by IcoMoon.io -->
<svg version="1.1" xmlns="http://www.w3.org/2000/svg" width="28" height="32" viewBox="0 0 28 32">
<title>globe-snow-solid</title>
<path d="M24 26h-20l-2.962 4.444c-0.444 0.669 0.031 1.556 0.831 1.556h24.262c0.8 0 1.275-0.887 0.831-1.556l-2.962-4.444zM12 24v-2h-3.619c-0.888 0-1.375-0.938-0.806-1.556l4.094-4.444h-1.881c-0.669 0-1.031-0.7-0.606-1.169l4.213-4.575c0.313-0.344 0.894-0.344 1.206 0l4.212 4.575c0.425 0.463 0.063 1.169-0.606 1.169h-1.881l4.094 4.444c0.569 0.619 0.081 1.556-0.806 1.556h-3.613v2h7.756c2.606-2.538 4.244-6.069 4.244-10 0-7.731-6.269-14-14-14s-14 6.269-14 14c0 3.931 1.631 7.462 4.244 10h7.756zM21 10c0.55 0 1 0.45 1 1s-0.45 1-1 1-1-0.45-1-1 0.45-1 1-1zM15 4c0.55 0 1 0.45 1 1s-0.45 1-1 1-1-0.45-1-1 0.45-1 1-1zM5 14c0.55 0 1 0.45 1 1s-0.45 1-1 1-1-0.45-1-1 0.45-1 1-1z"></path>
</svg>
