<!-- Generated by IcoMoon.io -->
<svg version="1.1" xmlns="http://www.w3.org/2000/svg" width="31" height="32" viewBox="0 0 31 32">
<title>globe</title>
<path d="M15.5 0.5c-8.563 0-15.5 6.938-15.5 15.5s6.938 15.5 15.5 15.5 15.5-6.938 15.5-15.5-6.938-15.5-15.5-15.5zM27.575 10h-5.156c-0.563-2.775-1.506-5.138-2.7-6.819 3.438 1.138 6.262 3.619 7.856 6.819zM21 16c0 1.431-0.1 2.762-0.269 4h-10.463c-0.169-1.238-0.269-2.569-0.269-4s0.1-2.762 0.269-4h10.463c0.169 1.238 0.269 2.569 0.269 4zM15.5 2.5c1.681 0 3.837 2.756 4.881 7.5h-9.762c1.044-4.744 3.2-7.5 4.881-7.5zM11.281 3.181c-1.188 1.675-2.137 4.037-2.7 6.819h-5.156c1.594-3.2 4.419-5.681 7.856-6.819zM2 16c0-1.394 0.212-2.738 0.606-4h5.656c-0.162 1.281-0.263 2.613-0.263 4s0.094 2.719 0.263 4h-5.656c-0.394-1.262-0.606-2.606-0.606-4zM3.425 22h5.156c0.563 2.775 1.506 5.137 2.7 6.819-3.438-1.137-6.263-3.619-7.856-6.819zM15.5 29.5c-1.681 0-3.838-2.756-4.881-7.5h9.763c-1.044 4.744-3.2 7.5-4.881 7.5zM19.719 28.819c1.188-1.675 2.137-4.038 2.7-6.819h5.156c-1.594 3.2-4.419 5.681-7.856 6.819zM22.738 20c0.163-1.281 0.262-2.613 0.262-4s-0.094-2.719-0.262-4h5.656c0.394 1.262 0.606 2.606 0.606 4s-0.212 2.738-0.606 4h-5.656z"></path>
</svg>
