<!-- Generated by IcoMoon.io -->
<svg version="1.1" xmlns="http://www.w3.org/2000/svg" width="31" height="32" viewBox="0 0 31 32">
<title>globe-europe</title>
<path d="M11.5 7.45c0-0.438-0.356-0.794-0.794-0.794h-0.006c-0.213 0-0.412 0.081-0.556 0.231l-1.781 1.781c-0.15 0.15-0.231 0.35-0.231 0.556v0.006c0 0.438 0.356 0.794 0.794 0.794h1.125c0.213 0 0.412-0.081 0.556-0.231l0.656-0.656c0.15-0.15 0.231-0.35 0.231-0.556v-1.131zM15.5 0.5c-8.563 0-15.5 6.938-15.5 15.5s6.938 15.5 15.5 15.5 15.5-6.938 15.5-15.5-6.938-15.5-15.5-15.5zM18.5 29.15v-2.15c0-1.656-1.344-3-3-3h-1.262c-0.244 0-0.819-0.194-1.012-0.337l-1.387-1.044c-0.213-0.156-0.338-0.413-0.338-0.675v-1.494c0-0.294 0.156-0.569 0.406-0.725l2.681-1.606c0.131-0.081 0.281-0.119 0.431-0.119h1.95c0.2 0 0.394 0.075 0.55 0.2l3.262 2.8h1.887l1.081 1.081c0.594 0.594 1.381 0.919 2.219 0.919h1.050c-1.869 3.069-4.919 5.331-8.519 6.15zM28.031 21h-2.056c-0.3 0-0.594-0.119-0.806-0.331l-1.081-1.081c-0.375-0.375-0.881-0.587-1.413-0.587h-1.144l-2.7-2.319c-0.512-0.444-1.169-0.681-1.85-0.681h-1.95c-0.512 0-1.019 0.138-1.463 0.406l-2.681 1.606c-0.856 0.512-1.381 1.438-1.381 2.438v1.494c0 0.894 0.419 1.738 1.137 2.275l1.387 1.044c0.537 0.406 1.537 0.738 2.213 0.738h1.262c0.55 0 1 0.45 1 1v2.45c-0.331 0.025-0.662 0.050-1 0.050-7.444 0-13.5-6.056-13.5-13.5 0-7.431 6.031-13.475 13.456-13.5l-0.963 0.694c-0.637 0.481-1 1.2-1 1.962v1.45c0 0.4 0.194 1.063 0.369 1.394-0.050 0.131-1.319 0.938-1.537 1.156-0.537 0.537-0.831 1.25-0.831 2.006v1.025c0 1.563 1.275 2.838 2.838 2.838h1.581c0.688 0 1.325-0.244 1.825-0.662 0.244 0.088 0.512 0.131 0.788 0.131h0.837c1.6 0 2.012-1.262 2.256-1.344 0.319 0.569 0.844 1.012 1.469 1.219-0.269 0.887-0.056 1.894 0.631 2.6l1.137 1.194c0.544 0.556 1.288 0.869 2.044 0.869h1.731c-0.15 0.675-0.356 1.331-0.606 1.969zM26.919 17.025c-0.225 0-0.444-0.094-0.6-0.25l-1.156-1.213c-0.11-0.112-0.177-0.265-0.177-0.434 0-0.172 0.070-0.328 0.184-0.441l0-0c0.788-0.787 0.656-0.537 0.656-1.113 0-0.156-0.063-0.306-0.175-0.419l-0.494-0.494c-0.113-0.113-0.262-0.175-0.419-0.175h-0.837c-0.531 0-0.788-0.644-0.419-1.012l0.494-0.456c0.113-0.113 0.262-0.175 0.419-0.175h0.519c0.325 0 0.594-0.262 0.594-0.594v-0.637c0-0.325-0.262-0.594-0.594-0.594h-1.762c-0.462 0-0.837 0.375-0.837 0.838v0.35c0 0.363-0.231 0.681-0.575 0.794l-1.656 0.55c-0.269 0.088-0.288 0.313-0.288 0.512 0 0.231-0.188 0.419-0.419 0.419h-0.837c-0.231 0-0.419-0.188-0.419-0.419 0-0.525-0.781-0.537-0.956-0.188-0.563 0.775-0.719 1.137-1.244 1.137h-1.581c-0.463 0-0.838-0.375-0.838-0.838v-1.025c0-0.225 0.088-0.438 0.244-0.594 1.219-0.875 1.85-1.1 1.85-1.969 0-0.181 0.113-0.344 0.287-0.4l2.1-0.7c0.087-0.031 0.169-0.075 0.231-0.144l1.406-1.406c0.313-0.313 0.219-0.931-0.419-0.931h-1.087l-0.837 1.181v0.419c0 0.231-0.188 0.419-0.419 0.419h-0.938c-0.231 0-0.419-0.188-0.419-0.419v-1.45c0-0.131 0.063-0.256 0.169-0.338l2.75-1.994c6.044 1.344 10.581 6.738 10.581 13.175 0 0.344-0.025 0.688-0.050 1.025h-2.031z"></path>
</svg>
