<!-- Generated by IcoMoon.io -->
<svg version="1.1" xmlns="http://www.w3.org/2000/svg" width="31" height="32" viewBox="0 0 31 32">
<title>globe-africa</title>
<path d="M15.5 0.5c-8.56 0-15.5 6.939-15.5 15.5s6.94 15.5 15.5 15.5 15.5-6.939 15.5-15.5-6.94-15.5-15.5-15.5zM27.576 10h-1.107c-1.086 0-1.969 0.883-1.969 1.969l0.017 0.404-0.789 0.418c-0.166 0.030-0.526 0.041-0.943 0.061-2.019 0.095-2.93 0.167-3.307 0.913l-0.25 0.633 1.152 1.726c0.357 0.532 0.956 0.877 1.636 0.877 0 0 0.001 0 0.001 0h-0l0.483-0.031 0.006 0.689-1.176 1.568c-0.17 0.228-0.294 0.501-0.352 0.798l-0.002 0.013-0.262 1.41c-0.649 0.594-1.226 1.269-1.717 2.005l-0.814 1.221c-0.291 0.436-1.033 0.396-1.267-0.080-0.262-0.511-0.415-1.115-0.416-1.755v-1.868c0-1.086-0.883-1.969-1.969-1.969h-1.617c-0.644 0-1.25-0.251-1.707-0.707-0.455-0.456-0.707-1.063-0.707-1.707v-0.879c0-0.756 0.361-1.479 0.965-1.932l1.726-1.293c0.684-0.517 1.732-0.651 2.582-0.227l0.92 0.46c0.469 0.233 1.002 0.274 1.504 0.106l2.957-0.986c0.788-0.268 1.346-1.002 1.346-1.866 0-0.001 0-0.001 0-0.002v0c0-1.086-0.883-1.969-1.969-1.969l-0.608 0.010-0.434-0.434c-0.371-0.371-0.865-0.576-1.391-0.576l-5.599 0.032-0.024-0.245 0.902-0.226c0.479-0.119 0.891-0.41 1.16-0.816l0.479-0.744h1.514c1.086 0 1.969-0.883 1.969-1.969v-0.184c3.984 0.909 7.294 3.581 9.076 7.152zM15.5 29.5c-7.444 0-13.5-6.056-13.5-13.5s6.056-13.5 13.5-13.5c0.346 0 0.685 0.026 1.024 0.052l0.007 0.448h-1.514c-0.658 0-1.271 0.328-1.637 0.876l-0.486 0.745-0.904 0.226c-0.877 0.221-1.49 1.006-1.49 1.909v0.276c0 1.086 0.883 1.969 1.969 1.969l5.608-0.010 0.434 0.434c0.371 0.372 0.865 0.576 1.391 0.576l0.621-0.061-2.934 0.986-0.92-0.46c-1.396-0.698-3.336-0.594-4.678 0.417l-1.724 1.293c-1.106 0.829-1.766 2.149-1.766 3.531v0.879c0 1.179 0.459 2.287 1.293 3.121s1.941 1.293 3.121 1.293l1.586-0.031v1.867c0 0.918 0.217 1.836 0.627 2.651 0.465 0.933 1.403 1.512 2.445 1.512 0.916 0 1.766-0.455 2.276-1.218l0.814-1.222c0.402-0.602 0.875-1.154 1.401-1.636 0.318-0.289 0.529-0.666 0.609-1.091l0.264-1.414 1.172-1.563c0.254-0.339 0.392-0.758 0.392-1.181v-0.709c0-1.086-0.883-1.969-1.969-1.969l-0.486 0.012-0.076-0.114c0.336-0.021 0.676-0.038 0.908-0.049 0.992-0.046 1.291-0.066 1.573-0.206l0.963-0.481c0.672-0.336 1.088-1.011 1.088-1.761l-0.031-0.401h1.926c0.393 1.264 0.606 2.608 0.606 4-0.001 7.444-6.057 13.5-13.501 13.5z"></path>
</svg>
