<!-- Generated by IcoMoon.io -->
<svg version="1.1" xmlns="http://www.w3.org/2000/svg" width="28" height="32" viewBox="0 0 28 32">
<title>globe-stand-solid</title>
<path d="M20.071 19.071c3.905-3.905 3.905-10.237 0-14.142s-10.237-3.905-14.142 0c-3.905 3.905-3.905 10.237 0 14.142s10.236 3.905 14.142 0zM21.758 29h-5.752v-2.311c2.788-0.563 5.446-1.919 7.609-4.082 5.328-5.326 5.796-13.652 1.432-19.524l0.669-0.669c0.391-0.391 0.391-1.024 0-1.414l-0.707-0.707c-0.391-0.391-1.024-0.391-1.415 0l-2.689 2.688c0.199 0.174 0.399 0.345 0.588 0.533 4.681 4.679 4.681 12.292 0 16.971-2.267 2.267-5.282 3.515-8.488 3.515s-6.221-1.248-8.488-3.515c-0.192-0.192-0.328-0.416-0.504-0.617l-3.719 3.719c-0.391 0.391-0.391 1.024 0 1.414l0.707 0.706c0.391 0.391 1.024 0.391 1.415 0l1.669-1.669c2.361 1.754 5.119 2.725 7.92 2.915v2.047h-5.752c-1.243 0-2.251 1.008-2.251 2.25 0 0.414 0.336 0.75 0.75 0.75h18.506c0.414 0 0.75-0.336 0.75-0.75 0-1.242-1.008-2.25-2.251-2.25z"></path>
</svg>
