<!-- Generated by IcoMoon.io -->
<svg version="1.1" xmlns="http://www.w3.org/2000/svg" width="31" height="32" viewBox="0 0 31 32">
<title>globe-asia</title>
<path d="M15.5 0.5c-8.56 0-15.5 6.939-15.5 15.5s6.94 15.5 15.5 15.5 15.5-6.939 15.5-15.5-6.94-15.5-15.5-15.5zM15.5 2.5c1.18 0 2.318 0.167 3.409 0.453l-3.246 2.736c-0.445 0.295-0.699 0.809-0.668 1.34 0.033 0.533 0.351 1.012 0.828 1.251l0.676 0.338v4.012c-0.109-0.034-0.223-0.055-0.34-0.059-0.445 0-0.904 0.223-1.141 0.619l-1.105 1.809c-0.533 0-1.037 0.208-1.414 0.586l-0.354 0.354c-0.283 0.283-0.439 0.66-0.439 1.061s0.156 0.777 0.439 1.061l0.354 0.354v0.585h-1.383l-1.412-2.827c-0.216-0.425-0.618-0.729-1.095-0.808l-0.009-0.001c-0.461-0.077-0.961 0.080-1.299 0.42l-1.217 1.216h-4.036c-0.024-0.331-0.051-0.663-0.051-1 0-7.444 6.056-13.5 13.5-13.5zM2.348 19h3.738c0.533 0 1.037-0.208 1.414-0.586l0.726-0.726 1.101 2.207c0.342 0.682 1.027 1.104 1.789 1.104h1.384c1.104 0 2-0.898 2-2v-0.586c0-0.521-0.209-1.033-0.576-1.404l0.010-0.010c0.699 0 1.357-0.373 1.715-0.971l0.678-1.129c0.198 0.064 0.422 0.099 0.674 0.099 0.826 0 1.5-0.673 1.5-1.5v-4.882c0-0.76-0.42-1.443-1.098-1.785l3.692-3.104c4.656 2.132 7.906 6.825 7.906 12.273 0 1.419-0.223 2.786-0.631 4.072-0.082-0.111-0.149-0.231-0.247-0.331l-0.305-0.305v-0.187c0-1.241-1.009-2.25-2.25-2.25h-0.379c-0.344 0-0.674 0.079-0.972 0.223-0.303-0.141-0.659-0.223-1.033-0.223-0.001 0-0.001 0-0.002 0h-0.756c-0.523 0-1.024 0.161-1.451 0.464l-1.483 1.056-2.391 0.946c-0.955 0.382-1.571 1.293-1.571 2.321v0.638c0 0.668 0.26 1.296 0.732 1.768l0.745 0.744c0.566 0.566 1.32 0.879 2.121 0.879h0.646c0.245 0 0.49-0.030 0.727-0.089l1.149-0.288 0.682 0.682c0.336 0.336 0.743 0.571 1.183 0.716-2.245 1.665-5.012 2.663-8.016 2.663-6.412 0-11.783-4.497-13.152-10.5zM25.563 24.968c-0.054 0.009-0.105 0.032-0.161 0.032h-0.948c-0.265 0-0.519-0.106-0.707-0.293l-0.813-0.813c-0.303-0.303-0.721-0.49-1.183-0.49-0.144 0-0.284 0.018-0.417 0.052l0.012-0.003-1.329 0.332c-0.079 0.020-0.161 0.030-0.242 0.030h-0.646c-0.265 0-0.519-0.106-0.707-0.293l-0.744-0.744c-0.090-0.091-0.146-0.216-0.146-0.354 0-0 0-0 0-0v0-0.637c0-0.204 0.124-0.388 0.314-0.464l2.459-0.984c0.124-0.049 0.241-0.114 0.349-0.191l1.482-1.056c0.081-0.058 0.181-0.092 0.29-0.093h0.756c0.202 0 0.384 0.121 0.462 0.308l0.334 0.803c0.039 0.091 0.127 0.154 0.231 0.154h0.238c0.111 0 0.209-0.073 0.24-0.18l0.262-0.904c0.031-0.107 0.129-0.18 0.24-0.18h0.379c0.138 0 0.25 0.112 0.25 0.25v0.808c0 0.133 0.052 0.26 0.146 0.354l0.744 0.744c0.188 0.188 0.293 0.442 0.293 0.707v1.172c-0.45 0.728-0.924 1.359-1.448 1.945l0.011-0.013z"></path>
</svg>
