<!-- Generated by IcoMoon.io -->
<svg version="1.1" xmlns="http://www.w3.org/2000/svg" width="40" height="32" viewBox="0 0 40 32">
<title>golf-club-solid</title>
<path d="M39.9 1.869l-13.381 27.863c-0.669 1.387-2.069 2.269-3.606 2.269h-18.913c-2.206 0-4-1.794-4-4v-0.5h7.5c0.275 0 0.5-0.225 0.5-0.5v-2c0-0.275-0.225-0.5-0.5-0.5h-7.5v-3h7.5c0.275 0 0.5-0.225 0.5-0.5v-2c0-0.275-0.225-0.5-0.5-0.5h-7.5v-1.681c0-2.506 2.275-4.394 4.737-3.931l24.356 4.569 8.106-16.894c0.237-0.5 0.837-0.706 1.337-0.463l0.9 0.431c0.494 0.244 0.7 0.844 0.462 1.337z"></path>
</svg>
