<!-- Generated by IcoMoon.io -->
<svg version="1.1" xmlns="http://www.w3.org/2000/svg" width="40" height="32" viewBox="0 0 40 32">
<title>golf-club</title>
<path d="M39.575 0.4l-0.675-0.325c-0.375-0.181-0.819-0.025-1 0.35l-8.337 17.119c-26.813-5.031-25.012-4.725-25.569-4.725-2.156 0-3.994 1.75-3.994 4v11.181c0 2.206 1.794 4 4 4h18.694c1.538 0 2.938-0.881 3.606-2.269l13.625-28.331c0.181-0.369 0.025-0.819-0.35-1zM28.081 20.587l-3.488 7.163c-0.669 1.375-2.069 2.25-3.594 2.25h-17c-1.106 0-2-0.894-2-2v-1h5.5c0.275 0 0.5-0.225 0.5-0.5v-1c0-0.275-0.225-0.5-0.5-0.5h-5.5v-4h5.5c0.275 0 0.5-0.225 0.5-0.5v-1c0-0.275-0.225-0.5-0.5-0.5h-5.5v-2.181c0-1.106 0.894-2 1.994-2 0.281 0-1.231-0.269 23.375 4.35 0.65 0.119 1.006 0.825 0.712 1.419z"></path>
</svg>
