<!-- Generated by IcoMoon.io -->
<svg version="1.1" xmlns="http://www.w3.org/2000/svg" width="26" height="32" viewBox="0 0 26 32">
<title>golf-ball</title>
<path d="M26 13c0-7.269-5.969-13.144-13.269-13-7.006 0.144-12.675 5.888-12.731 12.894-0.031 4.2 1.938 7.919 5 10.319v2.788c0 1.656 1.344 3 3 3 0.456 0 2-0.25 2 1v1.625c0 0.206 0.169 0.375 0.375 0.375h1.25c0.206 0 0.375-0.169 0.375-0.375v-1.625c0-1.656-1.344-3-3-3-0.456 0-2 0.25-2-1v-1h12v1c0 1.25-1.538 1-2 1-1.656 0-3 1.344-3 3v1.625c0 0.206 0.169 0.375 0.375 0.375h1.25c0.206 0 0.375-0.169 0.375-0.375v-1.625c0-1.25 1.538-1 2-1 1.656 0 3-1.344 3-3v-2.788c3.038-2.375 5-6.056 5-10.213zM2 13c0-6.063 4.938-11 11-11s11 4.938 11 11c0 4.438-2.65 8.262-6.444 10h-9.113c-3.794-1.738-6.444-5.563-6.444-10zM17 13.931c0 1.144-0.925 2.069-2.069 2.069-0.9 0-1.644-0.581-1.931-1.381 1.644 0.588 3.219-0.95 2.619-2.619 0.8 0.287 1.381 1.031 1.381 1.931zM22 14.931c0 1.144-0.925 2.069-2.069 2.069-0.9 0-1.644-0.581-1.931-1.381 1.644 0.588 3.219-0.95 2.619-2.619 0.8 0.287 1.381 1.031 1.381 1.931zM18 18.931c0 1.144-0.925 2.069-2.069 2.069-0.9 0-1.644-0.581-1.931-1.381 1.644 0.587 3.219-0.95 2.619-2.619 0.8 0.288 1.381 1.031 1.381 1.931z"></path>
</svg>
