<!-- Generated by IcoMoon.io -->
<svg version="1.1" xmlns="http://www.w3.org/2000/svg" width="26" height="32" viewBox="0 0 26 32">
<title>golf-ball-solid</title>
<path d="M6 26h14c0 1.106-0.894 2-2 2h-1c-1.106 0-2 0.894-2 2v1.25c0 0.413-0.338 0.75-0.75 0.75h-2.5c-0.412 0-0.75-0.337-0.75-0.75v-1.25c0-1.106-0.894-2-2-2h-1c-1.106 0-2-0.894-2-2zM26 13c0 4.637-2.438 8.7-6.094 11h-13.813c-3.656-2.3-6.094-6.363-6.094-11 0-7.181 5.819-13 13-13s13 5.819 13 13zM14.744 15.744c1.144 0 2.069-0.925 2.069-2.069 0-0.9-0.581-1.644-1.381-1.931 0.6 1.675-0.975 3.206-2.619 2.619 0.287 0.8 1.031 1.381 1.931 1.381zM17.813 18.675c0-0.9-0.581-1.644-1.381-1.931 0.6 1.675-0.975 3.206-2.619 2.619 0.287 0.8 1.031 1.381 1.931 1.381 1.144 0 2.069-0.931 2.069-2.069zM21.813 14.675c0-0.9-0.581-1.644-1.381-1.931 0.6 1.675-0.975 3.206-2.619 2.619 0.288 0.8 1.031 1.381 1.931 1.381 1.144 0 2.069-0.931 2.069-2.069z"></path>
</svg>
