<!-- Generated by IcoMoon.io -->
<svg version="1.1" xmlns="http://www.w3.org/2000/svg" width="32" height="32" viewBox="0 0 32 32">
<title>gopuram-solid</title>
<path d="M31 22h-1v-7c0-0.55-0.45-1-1-1h-1v-5c0-0.55-0.45-1-1-1h-1v-7c0-0.55-0.45-1-1-1s-1 0.45-1 1v1h-4v-1c0-0.55-0.45-1-1-1s-1 0.45-1 1v1h-4v-1c0-0.55-0.45-1-1-1s-1 0.45-1 1v1h-4v-1c0-0.55-0.45-1-1-1s-1 0.45-1 1v7h-1c-0.55 0-1 0.45-1 1v5h-1c-0.55 0-1 0.45-1 1v7h-1c-0.55 0-1 0.45-1 1v8c0 0.55 0.45 1 1 1h5v-10h2v-8h2v-6h2v6h-2v8h-2v10h5v-5c0-0.55 0.45-1 1-1h4c0.55 0 1 0.45 1 1v5h5v-10h-2v-8h-2v-6h2v6h2v8h2v10h5c0.55 0 1-0.45 1-1v-8c0-0.55-0.45-1-1-1zM14.5 11c0-0.55 0.45-1 1-1h1c0.55 0 1 0.45 1 1v3h-3zM18 22h-4v-4c0-0.55 0.45-1 1-1h2c0.55 0 1 0.45 1 1z"></path>
</svg>
