<!-- Generated by IcoMoon.io -->
<svg version="1.1" xmlns="http://www.w3.org/2000/svg" width="32" height="32" viewBox="0 0 32 32">
<title>gopuram</title>
<path d="M17.331 26h-2.669c-1.475 0-2.669 1.194-2.669 2.669v2.831c0 0.275 0.225 0.5 0.5 0.5h1c0.275 0 0.5-0.225 0.5-0.5v-2.831c0-0.369 0.3-0.669 0.669-0.669h2.669c0.369 0 0.669 0.3 0.669 0.669v2.831c0 0.275 0.225 0.5 0.5 0.5h1c0.275 0 0.5-0.225 0.5-0.5v-2.831c0-1.475-1.194-2.669-2.669-2.669zM31 22h-1v-7c0-0.55-0.45-1-1-1h-1v-5c0-0.55-0.45-1-1-1h-1v-7c0-0.55-0.45-1-1-1s-1 0.45-1 1v1h-4v-1c0-0.55-0.45-1-1-1s-1 0.45-1 1v1h-4v-1c0-0.55-0.45-1-1-1s-1 0.45-1 1v1h-4v-1c0-0.55-0.45-1-1-1s-1 0.45-1 1v7h-1c-0.55 0-1 0.45-1 1v5h-1c-0.55 0-1 0.45-1 1v7h-1c-0.55 0-1 0.45-1 1v8.5c0 0.275 0.225 0.5 0.5 0.5h1c0.275 0 0.5-0.225 0.5-0.5v-7.5h4v7.5c0 0.275 0.225 0.5 0.5 0.5h1c0.275 0 0.5-0.225 0.5-0.5v-7.5h16v7.5c0 0.275 0.225 0.5 0.5 0.5h1c0.275 0 0.5-0.225 0.5-0.5v-7.5h4v7.5c0 0.275 0.225 0.5 0.5 0.5h1c0.275 0 0.5-0.225 0.5-0.5v-8.5c0-0.55-0.45-1-1-1zM8 4h16v4h-16zM16.331 12h-0.669c-0.369 0-0.669 0.3-0.669 0.669v1.331h-3v-4h8v4h-3v-1.331c0.006-0.369-0.294-0.669-0.663-0.669zM8 22h-4v-6h4zM10 14h-4v-4h4zM17 22h-2v-1.669c0-0.188 0.15-0.331 0.331-0.331h1.331c0.188 0 0.331 0.15 0.331 0.331v1.669zM22 22h-3v-1.669c0-1.288-1.050-2.331-2.331-2.331h-1.331c-1.287 0-2.331 1.050-2.331 2.331v1.669h-3v-6h12v6zM22 14v-4h4v4zM28 22h-4v-6h4z"></path>
</svg>
