<!-- Generated by IcoMoon.io -->
<svg version="1.1" xmlns="http://www.w3.org/2000/svg" width="40" height="32" viewBox="0 0 40 32">
<title>graduation-cap</title>
<path d="M38.26 9.624l-16.563-5.355c-1.113-0.359-2.281-0.359-3.394 0l-16.563 5.355c-1.057 0.342-1.741 1.274-1.741 2.376s0.684 2.034 1.74 2.376l1.857 0.6c-0.206 0.386-0.359 0.802-0.458 1.237-0.668 0.324-1.139 0.994-1.139 1.787 0 0.796 0.473 1.47 1.146 1.792l-1.128 6.991c-0.101 0.624 0.244 1.217 0.709 1.217h2.547c0.464 0 0.81-0.593 0.709-1.217l-1.127-6.991c0.673-0.322 1.146-0.996 1.146-1.792 0-0.663-0.343-1.221-0.839-1.586 0.093-0.291 0.237-0.554 0.411-0.801l3.342 1.081-0.913 7.306c0 2.209 5.372 4 12 4s12-1.791 12-4l-0.913-7.306 7.173-2.319c1.056-0.341 1.74-1.274 1.74-2.375s-0.684-2.034-1.74-2.376zM29.968 23.866c-0.672 0.708-4.090 2.134-9.968 2.134s-9.295-1.426-9.967-2.134l0.818-6.546 7.453 2.409c0.163 0.052 1.608 0.577 3.394 0l7.453-2.409 0.817 6.546zM37.642 12.474l-16.563 5.355c-0.707 0.229-1.453 0.229-2.16 0l-10.979-3.55 12.243-2.296c0.543-0.101 0.901-0.624 0.799-1.167s-0.635-0.899-1.166-0.798l-12.736 2.388c-0.775 0.145-1.469 0.478-2.067 0.927l-2.656-0.859c-0.491-0.159-0.466-0.796 0-0.947l16.563-5.355c0.944-0.305 1.74-0.136 2.16 0l16.563 5.355c0.462 0.149 0.494 0.787 0.001 0.947z"></path>
</svg>
