<!-- Generated by IcoMoon.io -->
<svg version="1.1" xmlns="http://www.w3.org/2000/svg" width="40" height="32" viewBox="0 0 40 32">
<title>graduation-cap-solid</title>
<path d="M38.896 9.575l-17.434-5.356c-0.95-0.292-1.975-0.292-2.924 0l-17.434 5.356c-1.471 0.452-1.471 2.398 0 2.849l3.039 0.934c-0.667 0.824-1.077 1.83-1.117 2.931-0.602 0.345-1.026 0.968-1.026 1.711 0 0.674 0.355 1.241 0.866 1.603l-1.596 7.18c-0.139 0.624 0.336 1.217 0.976 1.217h3.507c0.64 0 1.115-0.593 0.976-1.217l-1.596-7.18c0.511-0.363 0.866-0.929 0.866-1.603 0-0.723-0.404-1.328-0.979-1.679 0.048-0.939 0.527-1.769 1.293-2.295l12.223 3.756c0.566 0.174 1.652 0.391 2.924 0l17.434-5.356c1.472-0.453 1.472-2.398 0-2.85zM22.049 19.693c-1.783 0.547-3.302 0.245-4.099 0l-9.064-2.784-0.886 7.091c0 2.209 5.373 4 12 4s12-1.791 12-4l-0.886-7.092-9.064 2.785z"></path>
</svg>
