<!-- Generated by IcoMoon.io -->
<svg version="1.1" xmlns="http://www.w3.org/2000/svg" width="24" height="32" viewBox="0 0 24 32">
<title>gramophone-solid</title>
<path d="M4.348 19.817c3.928-2.691 10.11-5.9 14.912-4.613 0.72 0.198 1.24 0.847 1.24 1.617v0c-0.001 1.2-0.974 2.172-2.174 2.173h-6.826c-0.828 0-1.5 0.672-1.5 1.5v0 1.5h8.326c2.856-0.003 5.17-2.317 5.174-5.173v-0c-0.001-2.151-1.453-3.962-3.43-4.509l-0.033-0.008c-4.839-1.297-8.599-7.253-10.609-11.454-0.602-1.258-2.442-1.081-2.803 0.261l-4.574 17.079c-0.364 1.351 1.158 2.406 2.296 1.626zM23 28h-1v-2c0-1.105-0.895-2-2-2v0h-16c-1.105 0-2 0.895-2 2v0 2h-1c-0.552 0-1 0.448-1 1v0 2c0 0.552 0.448 1 1 1v0h22c0.552 0 1-0.448 1-1v0-2c0-0.552-0.448-1-1-1v0z"></path>
</svg>
