<!-- Generated by IcoMoon.io -->
<svg version="1.1" xmlns="http://www.w3.org/2000/svg" width="24" height="32" viewBox="0 0 24 32">
<title>gramophone</title>
<path d="M2.844 19.633c0.321 0.23 0.722 0.367 1.155 0.367 0.422 0 0.814-0.131 1.137-0.354l-0.007 0.004c3.731-2.554 7.474-4.134 11.125-4.688 0.091-0.011 4.745-0.656 4.745 2.538 0 1.381-1.119 2.5-2.5 2.5v0h-6.5c-1.105 0-2 0.895-2 2v0h8.151c2.296 0 4.392-1.575 4.78-3.837 0.489-2.854-0.642-3.487-5.547-7.407-2.883-2.305-5.338-5.542-7.293-9.62-0.33-0.677-1.013-1.135-1.802-1.136h-0c-0.002 0-0.005-0-0.008-0-0.063 0-0.126 0.003-0.187 0.009l0.008-0.001c-0.844 0.079-1.53 0.672-1.747 1.46l-0.003 0.014-4.287 16c-0.043 0.154-0.067 0.332-0.067 0.515 0 0.673 0.332 1.268 0.842 1.631l0.006 0.004zM8.286 2c2.089 4.352 4.727 7.823 7.849 10.318l0.707 0.563c-0.286 0.025-0.582 0.063-0.886 0.106-3.952 0.601-7.974 2.287-11.956 5.013zM23.5 30h-1.5v-4c0-1.105-0.895-2-2-2v0h-16c-1.105 0-2 0.895-2 2v0 4h-1.5c-0.276 0-0.5 0.224-0.5 0.5v0 1c0 0.276 0.224 0.5 0.5 0.5v0h23c0.276 0 0.5-0.224 0.5-0.5v0-1c0-0.276-0.224-0.5-0.5-0.5v0zM20 30h-16v-4h16z"></path>
</svg>
