<!-- Generated by IcoMoon.io -->
<svg version="1.1" xmlns="http://www.w3.org/2000/svg" width="28" height="32" viewBox="0 0 28 32">
<title>greater-than-equal-solid</title>
<path d="M3.451 6.731l10.973 4.256-10.965 4.253c-1.149 0.377-1.742 1.524-1.325 2.563l0.756 1.88c0.417 1.038 1.687 1.574 2.836 1.197l18.838-7.491c0.861-0.283 1.436-1.038 1.436-1.886v-0.998c0-0.848-0.576-1.603-1.436-1.886l-18.858-7.499c-1.143-0.375-2.407 0.158-2.822 1.191l-0.752 1.87c-0.415 1.033 0.176 2.174 1.319 2.549zM26.5 25h-25c-0.828 0-1.5 0.671-1.5 1.5v3c0 0.828 0.672 1.5 1.5 1.5h25c0.828 0 1.5-0.672 1.5-1.5v-3c0-0.829-0.672-1.5-1.5-1.5z"></path>
</svg>
