<!-- Generated by IcoMoon.io -->
<svg version="1.1" xmlns="http://www.w3.org/2000/svg" width="24" height="32" viewBox="0 0 24 32">
<title>greater-than-equal</title>
<path d="M2.053 19.934l0.893 1.789c0.084 0.165 0.252 0.277 0.447 0.277 0.082 0 0.159-0.020 0.227-0.054l-0.003 0.001 18.107-9.057c0.165-0.084 0.276-0.252 0.276-0.447v0-0.807c0-0.189-0.106-0.361-0.275-0.446l-18.108-9.136c-0.247-0.124-0.547-0.023-0.671 0.224l-0.894 1.789c-0.033 0.065-0.053 0.142-0.053 0.223 0 0.195 0.111 0.363 0.273 0.446l0.003 0.001 14.528 7.264-14.528 7.264c-0.165 0.084-0.276 0.253-0.276 0.447 0 0.081 0.019 0.158 0.054 0.226l-0.001-0.003zM23.5 27h-23c-0.276 0-0.5 0.224-0.5 0.5v2c0 0.276 0.224 0.5 0.5 0.5h23c0.276 0 0.5-0.224 0.5-0.5v-2c0-0.276-0.224-0.5-0.5-0.5z"></path>
</svg>
