<!-- Generated by IcoMoon.io -->
<svg version="1.1" xmlns="http://www.w3.org/2000/svg" width="31" height="32" viewBox="0 0 31 32">
<title>grimace-solid</title>
<path d="M15.5 0.5c-8.563 0-15.5 6.938-15.5 15.5s6.938 15.5 15.5 15.5 15.5-6.938 15.5-15.5-6.938-15.5-15.5-15.5zM9 25h-0.5c-1.106 0-2-0.894-2-2v-0.5h2.5v2.5zM9 21.5h-2.5v-0.5c0-1.106 0.894-2 2-2h0.5v2.5zM8.5 13c0-1.106 0.894-2 2-2s2 0.894 2 2-0.894 2-2 2-2-0.894-2-2zM13 25h-3v-2.5h3v2.5zM13 21.5h-3v-2.5h3v2.5zM17 25h-3v-2.5h3v2.5zM17 21.5h-3v-2.5h3v2.5zM21 25h-3v-2.5h3v2.5zM21 21.5h-3v-2.5h3v2.5zM20.5 15c-1.106 0-2-0.894-2-2s0.894-2 2-2 2 0.894 2 2-0.894 2-2 2zM24.5 23c0 1.106-0.894 2-2 2h-0.5v-2.5h2.5v0.5zM24.5 21.5h-2.5v-2.5h0.5c1.106 0 2 0.894 2 2v0.5z"></path>
</svg>
