<!-- Generated by IcoMoon.io -->
<svg version="1.1" xmlns="http://www.w3.org/2000/svg" width="31" height="32" viewBox="0 0 31 32">
<title>grimace</title>
<path d="M15.5 0.5c-8.563 0-15.5 6.938-15.5 15.5s6.938 15.5 15.5 15.5 15.5-6.938 15.5-15.5-6.938-15.5-15.5-15.5zM15.5 29.5c-7.444 0-13.5-6.056-13.5-13.5s6.056-13.5 13.5-13.5 13.5 6.056 13.5 13.5-6.056 13.5-13.5 13.5zM10.5 15c1.106 0 2-0.894 2-2s-0.894-2-2-2-2 0.894-2 2 0.894 2 2 2zM20.5 15c1.106 0 2-0.894 2-2s-0.894-2-2-2-2 0.894-2 2 0.894 2 2 2zM21.5 17h-12c-1.656 0-3 1.344-3 3v2c0 1.656 1.344 3 3 3h12c1.656 0 3-1.344 3-3v-2c0-1.656-1.344-3-3-3zM11 23h-1.5c-0.55 0-1-0.45-1-1v-0.5h2.5v1.5zM11 20.5h-2.5v-0.5c0-0.55 0.45-1 1-1h1.5v1.5zM15 23h-3v-1.5h3v1.5zM15 20.5h-3v-1.5h3v1.5zM19 23h-3v-1.5h3v1.5zM19 20.5h-3v-1.5h3v1.5zM22.5 22c0 0.55-0.45 1-1 1h-1.5v-1.5h2.5v0.5zM22.5 20.5h-2.5v-1.5h1.5c0.55 0 1 0.45 1 1v0.5z"></path>
</svg>
