<!-- Generated by IcoMoon.io -->
<svg version="1.1" xmlns="http://www.w3.org/2000/svg" width="31" height="32" viewBox="0 0 31 32">
<title>grin-tongue-wink-solid</title>
<path d="M21.5 11.5c-0.831 0-1.5 0.669-1.5 1.5s0.669 1.5 1.5 1.5 1.5-0.669 1.5-1.5-0.669-1.5-1.5-1.5zM15.5 0.5c-8.563 0-15.5 6.938-15.5 15.5 0 6.644 4.188 12.294 10.063 14.5-0.35-0.762-0.563-1.606-0.563-2.5v-2.844c-1.544-1.012-2.719-2.381-2.987-3.988-0.125-0.738 0.581-1.344 1.294-1.119 1.887 0.606 4.694 0.95 7.694 0.95s5.806-0.344 7.694-0.95c0.719-0.231 1.413 0.381 1.294 1.119-0.269 1.606-1.444 2.975-2.988 3.988v2.844c0 0.894-0.212 1.738-0.563 2.5 5.875-2.206 10.063-7.856 10.063-14.5 0-8.563-6.938-15.5-15.5-15.5zM12 14.563l-0.594-0.531c-0.925-0.825-2.887-0.825-3.813 0l-0.594 0.531c-0.531 0.463-1.35 0.019-1.237-0.675 0.25-1.575 2.138-2.631 3.744-2.631s3.494 1.056 3.744 2.631c0.1 0.694-0.725 1.137-1.25 0.675zM21.5 17c-2.206 0-4-1.794-4-4s1.794-4 4-4 4 1.794 4 4-1.794 4-4 4zM18.319 23.413c-0.9-0.406-1.944 0.137-2.163 1.1l-0.113 0.488c-0.131 0.575-0.95 0.575-1.081 0l-0.113-0.488c-0.219-0.962-1.262-1.506-2.162-1.1-0.056 0.025 0.019-0.012-1.181 0.587v3.938c0 2.2 1.75 4.031 3.944 4.056 2.231 0.031 4.056-1.775 4.056-4v-4c-1.219-0.6-1.137-0.556-1.188-0.581z"></path>
</svg>
