<!-- Generated by IcoMoon.io -->
<svg version="1.1" xmlns="http://www.w3.org/2000/svg" width="32" height="32" viewBox="0 0 32 32">
<title>grin-beam-sweat</title>
<path d="M17.356 15.481c0.212 0.069 0.462-0.031 0.581-0.231l0.594-1.063c0.481-0.856 1.2-1.35 1.969-1.35s1.488 0.494 1.969 1.35l0.594 1.063c0.131 0.231 0.387 0.294 0.581 0.231 0.225-0.069 0.375-0.281 0.356-0.519-0.206-2.631-2.012-4.463-3.5-4.463s-3.294 1.831-3.5 4.463c-0.019 0.231 0.131 0.45 0.356 0.519zM7.356 15.481c0.213 0.069 0.463-0.031 0.581-0.231l0.594-1.063c0.481-0.856 1.2-1.35 1.969-1.35s1.488 0.494 1.969 1.35l0.594 1.063c0.131 0.231 0.387 0.294 0.581 0.231 0.225-0.069 0.375-0.281 0.356-0.519-0.206-2.631-2.012-4.463-3.5-4.463s-3.294 1.831-3.5 4.463c-0.019 0.231 0.131 0.45 0.356 0.519zM23.194 20.050c-1.887 0.606-4.694 0.95-7.694 0.95s-5.806-0.344-7.694-0.95c-0.331-0.106-0.694-0.031-0.956 0.194-0.263 0.231-0.388 0.575-0.331 0.925 0.575 3.438 5.2 5.831 8.988 5.831s8.406-2.394 8.988-5.831c0.056-0.344-0.069-0.694-0.331-0.925-0.269-0.231-0.637-0.306-0.969-0.194zM15.5 25c-2.188 0-4.813-1.019-6.156-2.519 3.594 0.675 8.725 0.675 12.319 0-1.35 1.5-3.975 2.519-6.162 2.519zM31.5 7.331c0-1.7-1.75-4.556-3.212-6.65-0.238-0.344-0.762-0.681-1.288-0.681s-1.050 0.338-1.288 0.675c-0.525 0.75-1.081 1.594-1.581 2.45-2.469-1.656-5.438-2.625-8.631-2.625-8.563 0-15.5 6.938-15.5 15.5s6.938 15.5 15.5 15.5 15.5-6.938 15.5-15.5c0-1.85-0.344-3.619-0.938-5.269 0.881-0.85 1.438-2.056 1.438-3.4zM15.5 29.5c-7.444 0-13.5-6.056-13.5-13.5s6.056-13.5 13.5-13.5c2.856 0 5.5 0.9 7.688 2.419-0.413 0.906-0.688 1.75-0.688 2.413 0 2.575 2.019 4.669 4.5 4.669 0.462 0 0.894-0.094 1.313-0.225 0.438 1.331 0.688 2.75 0.688 4.225 0 7.444-6.056 13.5-13.5 13.5zM27 10c-1.381 0-2.5-1.2-2.5-2.669 0-0.806 0.969-2.737 2.5-4.994 1.531 2.263 2.5 4.188 2.5 4.994 0 1.469-1.119 2.669-2.5 2.669z"></path>
</svg>
