<!-- Generated by IcoMoon.io -->
<svg version="1.1" xmlns="http://www.w3.org/2000/svg" width="32" height="32" viewBox="0 0 32 32">
<title>grin-beam-sweat-solid</title>
<path d="M28.5 8c1.656 0 3-1.313 3-2.938 0-1.25-1.781-3.775-2.6-4.862-0.2-0.269-0.6-0.269-0.8 0-0.819 1.087-2.6 3.612-2.6 4.862 0 1.625 1.344 2.938 3 2.938zM28.5 10c-2.756 0-5-2.213-5-4.938 0-0.275 0.019-0.888 0.506-2.013-2.444-1.606-5.363-2.55-8.506-2.55-8.563 0-15.5 6.938-15.5 15.5s6.938 15.5 15.5 15.5 15.5-6.938 15.5-15.5c0-2.194-0.462-4.275-1.281-6.162-0.394 0.094-0.794 0.162-1.219 0.162zM20.5 9.5c1.488 0 3.294 1.831 3.5 4.463 0.044 0.537-0.675 0.75-0.931 0.281l-0.594-1.063c-0.481-0.856-1.2-1.35-1.969-1.35s-1.488 0.494-1.969 1.35l-0.594 1.063c-0.256 0.463-0.975 0.25-0.931-0.281 0.194-2.631 2-4.463 3.488-4.463zM10.5 9.5c1.488 0 3.294 1.831 3.5 4.463 0.044 0.537-0.675 0.75-0.931 0.281l-0.594-1.063c-0.481-0.856-1.2-1.35-1.969-1.35s-1.488 0.494-1.969 1.35l-0.594 1.063c-0.263 0.463-0.975 0.25-0.931-0.281 0.194-2.631 2-4.463 3.488-4.463zM15.5 27c-3.787 0-8.406-2.394-8.988-5.831-0.125-0.738 0.581-1.35 1.294-1.119 1.888 0.606 4.694 0.95 7.694 0.95s5.806-0.344 7.694-0.95c0.719-0.231 1.413 0.387 1.294 1.119-0.581 3.438-5.2 5.831-8.988 5.831z"></path>
</svg>
