<!-- Generated by IcoMoon.io -->
<svg version="1.1" xmlns="http://www.w3.org/2000/svg" width="31" height="32" viewBox="0 0 31 32">
<title>grin-stars</title>
<path d="M15.5 0.5c-8.563 0-15.5 6.938-15.5 15.5s6.938 15.5 15.5 15.5 15.5-6.938 15.5-15.5-6.938-15.5-15.5-15.5zM15.5 29.5c-7.444 0-13.5-6.056-13.5-13.5s6.056-13.5 13.5-13.5 13.5 6.056 13.5 13.5-6.056 13.5-13.5 13.5zM23.194 20.050c-1.887 0.606-4.694 0.95-7.694 0.95s-5.806-0.344-7.694-0.95c-0.725-0.231-1.412 0.394-1.294 1.119 0.575 3.438 5.2 5.831 8.988 5.831s8.406-2.394 8.988-5.831c0.119-0.725-0.563-1.35-1.294-1.119zM15.5 25c-2.188 0-4.813-1.019-6.156-2.519 3.594 0.675 8.725 0.675 12.319 0-1.35 1.5-3.975 2.519-6.162 2.519zM25.631 9.25l-2.206-0.319-0.988-2.006c-0.594-1.175-2.269-1.181-2.869 0l-0.988 2.006-2.219 0.319c-0.337 0.050-0.625 0.225-0.863 0.463-0.238-0.238-0.525-0.412-0.869-0.463l-2.206-0.319-0.988-2.006c-0.594-1.175-2.269-1.181-2.869 0l-0.987 2.006-2.219 0.319c-1.263 0.188-1.85 1.762-0.881 2.731l1.606 1.556-0.381 2.225c-0.213 1.337 1.2 2.269 2.306 1.656l1.988-1.031 1.969 1.019c1.156 0.637 2.537-0.325 2.325-1.662l-0.381-2.213 1.588-1.531 1.587 1.537-0.381 2.225c-0.212 1.337 1.2 2.269 2.306 1.656l1.988-1.031 1.969 1.019c1.156 0.637 2.538-0.325 2.325-1.662l-0.381-2.213 1.619-1.569c0.931-0.931 0.394-2.519-0.9-2.713zM11.762 12.844l0.419 2.431-2.181-1.137-2.181 1.131 0.419-2.431-1.781-1.731 2.45-0.35 1.094-2.219 1.094 2.219 2.45 0.35-1.781 1.738zM22.762 12.844l0.419 2.431-2.181-1.137-2.181 1.131 0.419-2.431-1.781-1.731 2.45-0.35 1.094-2.219 1.094 2.219 2.45 0.35-1.781 1.738z"></path>
</svg>
