<!-- Generated by IcoMoon.io -->
<svg version="1.1" xmlns="http://www.w3.org/2000/svg" width="40" height="32" viewBox="0 0 40 32">
<title>grin-tears-solid</title>
<path d="M6.4 16.006c-1.412 0.2-4.594 0.75-5.519 1.675-1.194 1.194-1.175 3.163 0.050 4.387s3.188 1.244 4.388 0.044c0.925-0.925 1.469-4.106 1.675-5.519 0.050-0.344-0.244-0.637-0.594-0.587zM39.112 17.681c-0.925-0.925-4.106-1.469-5.519-1.675-0.344-0.050-0.644 0.244-0.594 0.594 0.2 1.413 0.75 4.594 1.675 5.519 1.2 1.2 3.163 1.181 4.388-0.044s1.25-3.2 0.050-4.394zM31.025 16.881c-0.238-1.662 1.194-3.094 2.856-2.856 0.556 0.081 1.050 0.169 1.519 0.256-0.856-7.75-7.419-13.781-15.4-13.781s-14.544 6.031-15.4 13.781c0.469-0.088 0.963-0.175 1.519-0.256 2.075-0.244 3.038 1.581 2.856 2.856-0.738 5.144-1.869 6.275-2.237 6.65-0.056 0.056-0.125 0.1-0.188 0.156 2.669 4.663 7.688 7.813 13.45 7.813s10.781-3.15 13.45-7.819c-0.063-0.056-0.131-0.094-0.188-0.156-0.369-0.369-1.5-1.5-2.238-6.644zM25 9.5c1.488 0 3.294 1.831 3.5 4.463 0.044 0.537-0.675 0.75-0.931 0.281l-0.594-1.063c-0.481-0.856-1.2-1.35-1.969-1.35s-1.488 0.494-1.969 1.35l-0.594 1.063c-0.262 0.463-0.975 0.25-0.931-0.281 0.194-2.631 2-4.463 3.488-4.463zM15 9.5c1.488 0 3.294 1.831 3.5 4.463 0.044 0.537-0.675 0.75-0.931 0.281l-0.594-1.063c-0.481-0.856-1.2-1.35-1.969-1.35s-1.488 0.494-1.969 1.35l-0.594 1.063c-0.262 0.463-0.975 0.25-0.931-0.281 0.194-2.631 2-4.463 3.487-4.463zM20 27c-3.788 0-8.406-2.394-8.988-5.831-0.125-0.731 0.575-1.35 1.294-1.119 1.887 0.606 4.694 0.95 7.694 0.95s5.806-0.344 7.694-0.95c0.712-0.231 1.413 0.381 1.294 1.119-0.581 3.438-5.2 5.831-8.988 5.831z"></path>
</svg>
