<!-- Generated by IcoMoon.io -->
<svg version="1.1" xmlns="http://www.w3.org/2000/svg" width="31" height="32" viewBox="0 0 31 32">
<title>grin-stars-solid</title>
<path d="M15.5 0.5c-8.563 0-15.5 6.938-15.5 15.5s6.938 15.5 15.5 15.5 15.5-6.938 15.5-15.5-6.938-15.5-15.5-15.5zM5.912 10.556l2.181-0.313 0.969-1.975c0.181-0.362 0.688-0.362 0.869 0l0.969 1.975 2.181 0.313c0.387 0.063 0.556 0.537 0.269 0.825l-1.588 1.537 0.375 2.181c0.063 0.387-0.331 0.688-0.688 0.494l-1.95-1.012-1.956 1.019c-0.356 0.194-0.75-0.106-0.688-0.494l0.375-2.181-1.587-1.537c-0.287-0.294-0.119-0.769 0.269-0.831zM15.5 27c-3.787 0-8.406-2.394-8.988-5.831-0.125-0.738 0.581-1.344 1.294-1.119 1.888 0.606 4.694 0.95 7.694 0.95s5.806-0.344 7.694-0.95c0.719-0.231 1.413 0.381 1.294 1.119-0.581 3.438-5.2 5.831-8.988 5.831zM25.356 11.381l-1.587 1.537 0.375 2.181c0.063 0.387-0.331 0.688-0.688 0.494l-1.956-1.012-1.956 1.019c-0.356 0.194-0.75-0.106-0.688-0.494l0.375-2.181-1.587-1.537c-0.281-0.287-0.119-0.762 0.269-0.825l2.181-0.313 0.969-1.975c0.181-0.362 0.688-0.362 0.869 0l0.969 1.975 2.181 0.313c0.394 0.056 0.563 0.531 0.275 0.819z"></path>
</svg>
