<!-- Generated by IcoMoon.io -->
<svg version="1.1" xmlns="http://www.w3.org/2000/svg" width="32" height="32" viewBox="0 0 32 32">
<title>grin-squint-tears-solid</title>
<path d="M25.6 6.994c1.413-0.2 4.594-0.75 5.519-1.675 1.2-1.2 1.181-3.163-0.044-4.388s-3.2-1.244-4.394-0.044c-0.925 0.925-1.469 4.106-1.675 5.519-0.050 0.344 0.244 0.638 0.594 0.588zM6.4 25.006c-1.412 0.2-4.594 0.75-5.519 1.675-1.194 1.194-1.175 3.163 0.050 4.387s3.188 1.244 4.388 0.044c0.925-0.925 1.469-4.106 1.675-5.519 0.050-0.344-0.244-0.637-0.594-0.587zM25.881 8.975c-2.063 0.244-3.038-1.569-2.856-2.856 0.212-1.5 0.462-2.631 0.719-3.531-5.925-3.425-13.631-2.619-18.706 2.45-5.069 5.069-5.875 12.775-2.45 18.706 0.9-0.256 2.025-0.5 3.531-0.719 2.075-0.244 3.038 1.575 2.856 2.856-0.213 1.5-0.463 2.631-0.719 3.531 5.925 3.425 13.631 2.619 18.706-2.45s5.875-12.775 2.45-18.706c-0.9 0.256-2.031 0.5-3.531 0.719zM15.981 6.625c0.206-0.825 1.4-0.719 1.475 0.112l0.3 3.269 3.269 0.3c0.837 0.075 0.931 1.269 0.113 1.475l-5.656 1.412c-0.556 0.137-1.044-0.369-0.906-0.906l1.406-5.662zM10.3 21.019l-0.3-3.269-3.269-0.3c-0.838-0.075-0.931-1.269-0.112-1.475l5.656-1.412c0.55-0.137 1.044 0.363 0.906 0.906l-1.412 5.656c-0.194 0.825-1.387 0.731-1.469-0.106zM23.781 23.781c-1.831 1.831-4.731 3.15-7.294 3.15-1.181 0-2.287-0.281-3.188-0.919-0.613-0.431-0.544-1.363 0.125-1.7 1.769-0.913 3.994-2.65 6.113-4.769s3.856-4.35 4.769-6.113c0.337-0.656 1.262-0.744 1.706-0.125 2.019 2.831 0.444 7.794-2.231 10.475z"></path>
</svg>
