<!-- Generated by IcoMoon.io -->
<svg version="1.1" xmlns="http://www.w3.org/2000/svg" width="31" height="32" viewBox="0 0 31 32">
<title>grin-hearts-solid</title>
<path d="M15.5 0.5c-8.563 0-15.5 6.938-15.5 15.5s6.938 15.5 15.5 15.5 15.5-6.938 15.5-15.5-6.938-15.5-15.5-15.5zM5.65 11.475c0.419-1.1 1.669-1.669 2.806-1.369l0.444 0.119 0.125-0.444c0.313-1.131 1.425-1.931 2.594-1.744 1.338 0.213 2.15 1.512 1.8 2.781l-1.213 4.369c-0.075 0.281-0.369 0.45-0.656 0.375l-4.388-1.137c-1.275-0.338-1.994-1.688-1.513-2.95zM15.5 27c-3.787 0-8.406-2.394-8.988-5.831-0.125-0.738 0.575-1.344 1.294-1.119 1.888 0.606 4.694 0.95 7.694 0.95s5.806-0.344 7.694-0.95c0.712-0.225 1.413 0.381 1.294 1.119-0.581 3.438-5.2 5.831-8.988 5.831zM23.837 14.419l-4.387 1.137c-0.281 0.075-0.575-0.094-0.656-0.375l-1.212-4.369c-0.35-1.269 0.462-2.569 1.8-2.781 1.163-0.188 2.275 0.613 2.594 1.744l0.125 0.444 0.444-0.119c1.137-0.294 2.387 0.269 2.806 1.369 0.481 1.269-0.238 2.619-1.512 2.95z"></path>
</svg>
