<!-- Generated by IcoMoon.io -->
<svg version="1.1" xmlns="http://www.w3.org/2000/svg" width="31" height="32" viewBox="0 0 31 32">
<title>grin-squint-solid</title>
<path d="M15.5 0.5c-8.563 0-15.5 6.938-15.5 15.5s6.938 15.5 15.5 15.5 15.5-6.938 15.5-15.5-6.938-15.5-15.5-15.5zM17.613 12.356l5-3c0.725-0.431 1.5 0.481 0.962 1.125l-2.1 2.519 2.1 2.519c0.544 0.65-0.244 1.55-0.962 1.125l-5-3c-0.481-0.294-0.481-0.994 0-1.287zM7.425 10.481c-0.537-0.644 0.237-1.556 0.962-1.125l5 3c0.488 0.294 0.488 0.994 0 1.287l-5 3c-0.719 0.425-1.5-0.475-0.963-1.125l2.1-2.519-2.1-2.519zM15.5 27c-3.787 0-8.406-2.394-8.988-5.831-0.125-0.744 0.588-1.35 1.294-1.119 1.888 0.606 4.694 0.95 7.694 0.95s5.806-0.344 7.694-0.95c0.719-0.231 1.413 0.387 1.294 1.119-0.581 3.438-5.2 5.831-8.988 5.831z"></path>
</svg>
