<!-- Generated by IcoMoon.io -->
<svg version="1.1" xmlns="http://www.w3.org/2000/svg" width="40" height="32" viewBox="0 0 40 32">
<title>grin-tears</title>
<path d="M21.856 15.481c0.212 0.069 0.462-0.031 0.581-0.231l0.594-1.063c0.481-0.856 1.2-1.35 1.969-1.35s1.488 0.494 1.969 1.35l0.594 1.063c0.131 0.231 0.387 0.294 0.581 0.231 0.225-0.069 0.375-0.281 0.356-0.519-0.206-2.631-2.012-4.463-3.5-4.463s-3.294 1.831-3.5 4.463c-0.019 0.231 0.131 0.45 0.356 0.519zM27.694 20.050c-1.887 0.606-4.694 0.95-7.694 0.95s-5.806-0.344-7.694-0.95c-0.331-0.106-0.694-0.031-0.956 0.194-0.262 0.231-0.394 0.575-0.331 0.925 0.581 3.438 5.2 5.831 8.988 5.831s8.406-2.394 8.988-5.831c0.056-0.344-0.069-0.694-0.331-0.925-0.269-0.231-0.631-0.306-0.969-0.194zM20 25c-2.188 0-4.813-1.019-6.156-2.519 3.594 0.675 8.725 0.675 12.319 0-1.35 1.5-3.975 2.519-6.163 2.519zM11.856 15.481c0.213 0.069 0.463-0.031 0.581-0.231l0.594-1.063c0.481-0.856 1.2-1.35 1.969-1.35s1.488 0.494 1.969 1.35l0.594 1.063c0.131 0.231 0.387 0.294 0.581 0.231 0.225-0.069 0.375-0.281 0.356-0.519-0.206-2.631-2.012-4.463-3.5-4.463s-3.294 1.831-3.5 4.463c-0.019 0.231 0.131 0.45 0.356 0.519zM38.7 16.212c-0.575-0.575-1.675-1.075-3.275-1.494-0.656-7.963-7.3-14.219-15.425-14.219s-14.769 6.256-15.425 14.213c-1.6 0.419-2.7 0.919-3.275 1.494-1.756 1.762-1.731 4.644 0.056 6.431 0.737 0.738 2.763 2.056 5.169 0.919 2.656 4.719 7.669 7.938 13.469 7.938s10.819-3.219 13.469-7.938c2.4 1.131 4.425-0.175 5.169-0.919 1.8-1.781 1.825-4.669 0.069-6.425zM6.375 21.281c-0.969 0.969-2.587 0.969-3.606-0.056-1.006-1.006-1.031-2.625-0.056-3.6 0.413-0.413 2.019-1.050 5.206-1.55-0.494 3.188-1.131 4.794-1.544 5.206zM20 29.5c-5.162 0-9.631-2.931-11.9-7.2 0.975-1.387 1.563-4.219 1.881-6.475 0.075-0.5-0.094-0.994-0.45-1.356-0.363-0.363-0.856-0.525-1.356-0.456-0.544 0.081-1.050 0.162-1.537 0.25 0.856-6.619 6.506-11.762 13.362-11.762s12.506 5.144 13.362 11.769c-0.487-0.088-0.994-0.175-1.538-0.25-0.494-0.069-0.994 0.094-1.356 0.456s-0.525 0.85-0.45 1.356c0.325 2.256 0.906 5.088 1.881 6.475-2.269 4.262-6.738 7.194-11.9 7.194zM37.231 21.225c-1.025 1.031-2.644 1.012-3.6 0.050-0.413-0.413-1.050-2.019-1.55-5.206 3.188 0.5 4.794 1.137 5.206 1.55 0.975 0.988 0.95 2.6-0.056 3.606z"></path>
</svg>
