<!-- Generated by IcoMoon.io -->
<svg version="1.1" xmlns="http://www.w3.org/2000/svg" width="31" height="32" viewBox="0 0 31 32">
<title>grin-beam-solid</title>
<path d="M15.5 0.5c-8.563 0-15.5 6.938-15.5 15.5s6.938 15.5 15.5 15.5 15.5-6.938 15.5-15.5-6.938-15.5-15.5-15.5zM20.5 9.5c1.488 0 3.294 1.831 3.5 4.463 0.044 0.537-0.675 0.744-0.931 0.281l-0.594-1.063c-0.481-0.856-1.2-1.35-1.969-1.35s-1.488 0.494-1.969 1.35l-0.594 1.063c-0.256 0.456-0.975 0.25-0.931-0.281 0.194-2.631 2-4.463 3.488-4.463zM10.5 9.5c1.488 0 3.294 1.831 3.5 4.463 0.044 0.537-0.675 0.744-0.931 0.281l-0.594-1.063c-0.481-0.856-1.2-1.35-1.969-1.35s-1.488 0.494-1.969 1.35l-0.594 1.063c-0.263 0.463-0.975 0.25-0.931-0.281 0.194-2.631 2-4.463 3.488-4.463zM15.5 27c-3.787 0-8.406-2.394-8.988-5.831-0.125-0.744 0.588-1.35 1.294-1.119 1.888 0.606 4.694 0.95 7.694 0.95s5.806-0.344 7.694-0.95c0.712-0.231 1.413 0.381 1.294 1.119-0.581 3.438-5.2 5.831-8.988 5.831z"></path>
</svg>
