<!-- Generated by IcoMoon.io -->
<svg version="1.1" xmlns="http://www.w3.org/2000/svg" width="32" height="32" viewBox="0 0 32 32">
<title>grin-squint-tears</title>
<path d="M25.125 12.881c-0.35 0.025-0.656 0.231-0.819 0.537-0.913 1.769-2.65 3.994-4.769 6.113-2.119 2.125-4.35 3.863-6.113 4.769-0.313 0.156-0.519 0.469-0.544 0.819s0.137 0.681 0.419 0.887c0.894 0.637 2.006 0.919 3.188 0.919 2.563 0 5.462-1.313 7.294-3.15 2.681-2.675 4.25-7.637 2.231-10.481-0.206-0.281-0.563-0.444-0.887-0.412zM22.363 22.363c-1.55 1.544-4.056 2.694-6.137 2.569 1.506-1.031 3.15-2.413 4.719-3.988 1.569-1.569 2.956-3.212 3.988-4.719 0.113 2.012-1.019 4.594-2.569 6.137zM12.994 14.762c-0.188-0.188-0.456-0.262-0.713-0.2l-5.656 1.419c-0.356 0.087-0.594 0.419-0.569 0.788 0.031 0.363 0.319 0.656 0.681 0.688l3.269 0.3 0.3 3.269c0.031 0.363 0.325 0.65 0.688 0.681 0.537 0.025 0.744-0.387 0.787-0.569l1.412-5.656c0.063-0.262-0.012-0.531-0.2-0.719zM15.475 13.194l5.656-1.412c0.356-0.088 0.594-0.419 0.569-0.787-0.031-0.363-0.319-0.656-0.681-0.688l-3.269-0.3-0.3-3.269c-0.031-0.362-0.325-0.65-0.688-0.681-0.356-0.006-0.7 0.213-0.787 0.569l-1.412 5.656c-0.063 0.256 0.012 0.525 0.2 0.713 0.313 0.313 0.706 0.2 0.713 0.2zM30.7 7.787c1.756-1.763 1.731-4.644-0.056-6.431-1.825-1.825-4.706-1.769-6.431-0.050-0.281 0.281-0.531 0.681-0.756 1.156-2.319-1.281-4.881-1.962-7.456-1.962-3.969 0-7.938 1.512-10.963 4.537-4.994 4.994-5.813 12.525-2.563 18.413-0.5 0.238-0.9 0.488-1.169 0.762-1.756 1.762-1.731 4.644 0.056 6.431 1.781 1.781 4.656 1.825 6.431 0.050 0.281-0.281 0.531-0.681 0.756-1.156 2.313 1.281 4.875 1.962 7.45 1.962 3.969 0 7.938-1.512 10.963-4.537 4.994-4.994 5.813-12.519 2.563-18.413 0.5-0.238 0.9-0.494 1.175-0.763zM25.625 2.719c0.462-0.462 1.087-0.719 1.75-0.719h0.025c0.688 0.006 1.331 0.281 1.825 0.775 1.006 1.006 1.031 2.625 0.056 3.6-0.413 0.412-2.019 1.050-5.206 1.55 0.5-3.188 1.137-4.794 1.55-5.206zM6.375 29.281c-0.981 0.981-2.594 0.956-3.6-0.050s-1.031-2.625-0.056-3.6c0.413-0.413 2.019-1.050 5.206-1.55-0.5 3.175-1.138 4.788-1.55 5.2zM25.55 25.544c-2.55 2.55-5.944 3.956-9.55 3.956-2.425 0-4.738-0.675-6.775-1.869 0.338-1.231 0.588-2.6 0.762-3.806 0.075-0.5-0.094-0.994-0.45-1.356-0.363-0.363-0.856-0.525-1.356-0.456-1.487 0.212-2.744 0.469-3.787 0.75-3.006-5.169-2.356-11.894 2.063-16.313 2.544-2.55 5.938-3.95 9.544-3.95 2.425 0 4.738 0.675 6.775 1.869-0.337 1.231-0.587 2.6-0.762 3.806-0.075 0.5 0.094 0.994 0.45 1.356 0.306 0.306 0.706 0.469 1.125 0.469 0.075 0 0.15-0.006 0.231-0.019 1.488-0.213 2.744-0.469 3.788-0.75 3.012 5.162 2.363 11.894-2.056 16.313z"></path>
</svg>
