<!-- Generated by IcoMoon.io -->
<svg version="1.1" xmlns="http://www.w3.org/2000/svg" width="31" height="32" viewBox="0 0 31 32">
<title>grin-wink</title>
<path d="M15.5 0.5c-8.563 0-15.5 6.938-15.5 15.5s6.938 15.5 15.5 15.5 15.5-6.938 15.5-15.5-6.938-15.5-15.5-15.5zM25.044 25.544c-1.238 1.238-2.688 2.212-4.294 2.894-1.663 0.706-3.431 1.063-5.256 1.063s-3.594-0.356-5.256-1.063c-1.606-0.681-3.050-1.656-4.294-2.894s-2.212-2.688-2.894-4.294c-0.706-1.663-1.063-3.431-1.063-5.256s0.356-3.594 1.063-5.256c0.681-1.606 1.656-3.050 2.894-4.294s2.688-2.212 4.294-2.894c1.662-0.706 3.431-1.063 5.256-1.063s3.594 0.356 5.256 1.063c1.606 0.681 3.050 1.656 4.294 2.894s2.212 2.688 2.894 4.294c0.706 1.662 1.063 3.431 1.063 5.256s-0.356 3.594-1.063 5.256c-0.675 1.613-1.65 3.056-2.894 4.294zM10.5 15c1.106 0 2-0.894 2-2s-0.894-2-2-2-2 0.894-2 2 0.894 2 2 2zM18 14.563l0.594-0.531c0.925-0.825 2.887-0.825 3.813 0l0.594 0.531c0.531 0.463 1.35 0.019 1.238-0.675-0.25-1.575-2.137-2.631-3.744-2.631s-3.494 1.056-3.744 2.631c-0.1 0.694 0.725 1.137 1.25 0.675zM23.506 20c-0.1 0-0.206 0.019-0.306 0.050-1.894 0.606-4.7 0.95-7.7 0.95s-5.806-0.344-7.694-0.95c-0.106-0.031-0.206-0.050-0.306-0.050-0.588 0-1.088 0.538-0.981 1.169 0.575 3.438 5.2 5.831 8.988 5.831s8.406-2.394 8.988-5.831c0.1-0.637-0.4-1.169-0.988-1.169zM20.163 23.663c-1.387 0.837-3.131 1.337-4.662 1.337s-3.275-0.5-4.662-1.337c-0.588-0.356-1.081-0.756-1.469-1.175 1.787 0.331 3.919 0.512 6.125 0.512 2.212 0 4.338-0.181 6.125-0.512-0.375 0.419-0.869 0.819-1.456 1.175z"></path>
</svg>
