<!-- Generated by IcoMoon.io -->
<svg version="1.1" xmlns="http://www.w3.org/2000/svg" width="31" height="32" viewBox="0 0 31 32">
<title>grin-hearts</title>
<path d="M15.5 0.5c-8.563 0-15.5 6.938-15.5 15.5s6.938 15.5 15.5 15.5 15.5-6.938 15.5-15.5-6.938-15.5-15.5-15.5zM15.5 29.5c-7.444 0-13.5-6.056-13.5-13.5s6.056-13.5 13.5-13.5 13.5 6.056 13.5 13.5-6.056 13.5-13.5 13.5zM23.194 20.050c-1.887 0.606-4.694 0.95-7.694 0.95s-5.806-0.344-7.694-0.95c-0.725-0.231-1.412 0.394-1.294 1.119 0.575 3.438 5.2 5.831 8.988 5.831s8.406-2.394 8.988-5.831c0.119-0.725-0.563-1.35-1.294-1.119zM15.5 25c-2.188 0-4.813-1.019-6.156-2.519 3.594 0.675 8.725 0.675 12.319 0-1.35 1.5-3.975 2.519-6.162 2.519zM11.637 16.95c0.894 0.231 1.7-0.344 1.906-1.1l1.281-4.619c0.256-0.919 0.106-1.9-0.406-2.7s-1.35-1.344-2.3-1.494c-1.575-0.256-3.088 0.669-3.706 2.125-1.575-0.188-3.138 0.688-3.694 2.144-0.344 0.9-0.294 1.894 0.144 2.738 0.431 0.844 1.212 1.463 2.138 1.7l4.638 1.206zM6.594 12.025c0.325-0.863 1.275-0.969 1.781-0.838l1.425 0.369 0.387-1.419c0.206-0.744 0.919-1.231 1.619-1.125 0.819 0.131 1.306 0.912 1.094 1.688l-1.169 4.206-4.225-1.094c-0.756-0.194-1.213-0.994-0.912-1.787zM26.275 11.313c-0.556-1.456-2.131-2.331-3.688-2.144-0.619-1.456-2.169-2.388-3.706-2.125-0.95 0.15-1.788 0.694-2.3 1.494s-0.662 1.781-0.406 2.7l1.275 4.613c0.212 0.769 1.031 1.331 1.906 1.1l4.637-1.2c0.937-0.246 1.698-0.863 2.129-1.682l0.009-0.018c0.431-0.844 0.488-1.844 0.144-2.737zM23.494 13.813l-4.231 1.094-1.169-4.206c-0.212-0.769 0.275-1.556 1.094-1.688 0.856-0.137 1.462 0.563 1.613 1.119l0.387 1.419 1.438-0.363c0.75-0.194 1.531 0.175 1.781 0.838 0.3 0.794-0.156 1.594-0.913 1.787z"></path>
</svg>
