<!-- Generated by IcoMoon.io -->
<svg version="1.1" xmlns="http://www.w3.org/2000/svg" width="31" height="32" viewBox="0 0 31 32">
<title>grin-tongue-squint</title>
<path d="M15.5 0.5c-8.563 0-15.5 6.938-15.5 15.5 0 7.569 5.425 13.863 12.6 15.219 0.863 0.481 1.844 0.781 2.9 0.781s2.038-0.3 2.9-0.781c7.175-1.356 12.6-7.65 12.6-15.219 0-8.563-6.938-15.5-15.5-15.5zM19.5 26c0 2.225-1.819 4.031-4.056 4-2.194-0.031-3.944-1.863-3.944-4.063v-1.938c1.181-0.594 1.419-0.762 2-0.762h0.019c0.613 0.006 1.137 0.438 1.275 1.038l0.169 0.725c0.131 0.575 0.95 0.575 1.081 0l0.169-0.725c0.137-0.6 0.663-1.031 1.275-1.038h0.019c0.575 0 0.806 0.169 2 0.762v2zM21.038 28.3c0.294-0.706 0.462-1.481 0.462-2.3v-0.85c1.544-1.006 2.712-2.375 2.988-3.988 0.125-0.725-0.563-1.35-1.294-1.119-1.887 0.613-4.694 0.956-7.694 0.956s-5.806-0.344-7.694-0.95c-0.725-0.231-1.412 0.394-1.294 1.119 0.269 1.613 1.438 2.975 2.987 3.988v0.844c0 0.813 0.169 1.587 0.463 2.3-4.688-2.119-7.963-6.831-7.963-12.3 0-7.444 6.056-13.5 13.5-13.5s13.5 6.056 13.5 13.5c0 5.469-3.275 10.181-7.962 12.3zM23.569 9.512c-0.238-0.275-0.637-0.344-0.956-0.156l-5 3c-0.225 0.137-0.363 0.381-0.363 0.644s0.137 0.506 0.363 0.644l5 3c0.337 0.2 0.731 0.106 0.956-0.156 0.238-0.281 0.238-0.688 0.006-0.969l-2.1-2.519 2.1-2.519c0.238-0.281 0.231-0.694-0.006-0.969zM13.387 12.356l-5-3c-0.313-0.188-0.713-0.125-0.956 0.156-0.237 0.281-0.237 0.688-0.006 0.969l2.1 2.519-2.1 2.519c-0.237 0.281-0.231 0.688 0.006 0.969 0.225 0.262 0.619 0.356 0.956 0.156l5-3c0.225-0.137 0.363-0.381 0.363-0.644s-0.137-0.506-0.363-0.644z"></path>
</svg>
