<!-- Generated by IcoMoon.io -->
<svg version="1.1" xmlns="http://www.w3.org/2000/svg" width="31" height="32" viewBox="0 0 31 32">
<title>grin-alt-solid</title>
<path d="M15.5 0.5c-8.563 0-15.5 6.938-15.5 15.5s6.938 15.5 15.5 15.5 15.5-6.938 15.5-15.5-6.938-15.5-15.5-15.5zM19.481 8.544c0.475-0.713 1.544-0.731 2.044 0 0.775 1.15 0.944 2.306 0.981 3.456-0.031 1.15-0.206 2.306-0.981 3.456-0.475 0.712-1.544 0.731-2.044 0-0.775-1.15-0.944-2.306-0.981-3.456 0.031-1.15 0.206-2.306 0.981-3.456zM9.481 8.544c0.475-0.713 1.544-0.731 2.044 0 0.775 1.15 0.944 2.306 0.981 3.456-0.031 1.15-0.206 2.306-0.981 3.456-0.475 0.712-1.544 0.731-2.044 0-0.775-1.15-0.944-2.306-0.981-3.456 0.031-1.15 0.206-2.306 0.981-3.456zM15.5 27c-3.787 0-8.406-2.394-8.988-5.831-0.125-0.738 0.581-1.35 1.294-1.119 1.888 0.606 4.694 0.95 7.694 0.95s5.806-0.344 7.694-0.95c0.712-0.231 1.413 0.381 1.294 1.119-0.581 3.438-5.2 5.831-8.988 5.831z"></path>
</svg>
