<!-- Generated by IcoMoon.io -->
<svg version="1.1" xmlns="http://www.w3.org/2000/svg" width="31" height="32" viewBox="0 0 31 32">
<title>grin-solid</title>
<path d="M15.5 0.5c-8.563 0-15.5 6.938-15.5 15.5s6.938 15.5 15.5 15.5 15.5-6.938 15.5-15.5-6.938-15.5-15.5-15.5zM20.5 11c1.106 0 2 0.894 2 2s-0.894 2-2 2-2-0.894-2-2 0.894-2 2-2zM10.5 11c1.106 0 2 0.894 2 2s-0.894 2-2 2-2-0.894-2-2 0.894-2 2-2zM15.5 27c-3.787 0-8.406-2.394-8.988-5.831-0.125-0.738 0.581-1.35 1.294-1.119 1.888 0.606 4.694 0.95 7.694 0.95s5.806-0.344 7.694-0.95c0.706-0.231 1.413 0.381 1.294 1.119-0.581 3.438-5.2 5.831-8.988 5.831z"></path>
</svg>
