<!-- Generated by IcoMoon.io -->
<svg version="1.1" xmlns="http://www.w3.org/2000/svg" width="31" height="32" viewBox="0 0 31 32">
<title>grin-wink-solid</title>
<path d="M0 16c0 8.563 6.938 15.5 15.5 15.5s15.5-6.938 15.5-15.5-6.938-15.5-15.5-15.5-15.5 6.938-15.5 15.5zM12.5 13c0 1.106-0.894 2-2 2s-2-0.894-2-2 0.894-2 2-2 2 0.894 2 2zM23 14.563l-0.594-0.531c-0.925-0.825-2.887-0.825-3.813 0l-0.594 0.531c-0.519 0.463-1.35 0.025-1.238-0.675 0.25-1.575 2.137-2.631 3.744-2.631s3.494 1.056 3.744 2.631c0.1 0.688-0.719 1.137-1.25 0.675zM7.806 20.050c1.887 0.606 4.694 0.95 7.694 0.95s5.806-0.344 7.694-0.95c0.706-0.231 1.413 0.375 1.294 1.119-0.575 3.438-5.2 5.831-8.988 5.831s-8.406-2.394-8.988-5.831c-0.125-0.744 0.581-1.35 1.294-1.119z"></path>
</svg>
