<!-- Generated by IcoMoon.io -->
<svg version="1.1" xmlns="http://www.w3.org/2000/svg" width="31" height="32" viewBox="0 0 31 32">
<title>grin</title>
<path d="M15.5 0.5c-8.563 0-15.5 6.938-15.5 15.5s6.938 15.5 15.5 15.5 15.5-6.938 15.5-15.5-6.938-15.5-15.5-15.5zM15.5 29.5c-7.444 0-13.5-6.056-13.5-13.5s6.056-13.5 13.5-13.5 13.5 6.056 13.5 13.5-6.056 13.5-13.5 13.5zM23.194 20.050c-1.887 0.606-4.694 0.95-7.694 0.95s-5.806-0.344-7.694-0.95c-0.331-0.106-0.694-0.031-0.956 0.194-0.263 0.231-0.388 0.575-0.331 0.925 0.575 3.438 5.2 5.831 8.988 5.831s8.406-2.394 8.988-5.831c0.056-0.344-0.069-0.694-0.331-0.925-0.269-0.231-0.637-0.306-0.969-0.194zM15.5 25c-2.188 0-4.813-1.019-6.156-2.519 3.594 0.675 8.725 0.675 12.319 0-1.35 1.5-3.975 2.519-6.162 2.519zM10.5 15c1.106 0 2-0.894 2-2s-0.894-2-2-2-2 0.894-2 2 0.894 2 2 2zM20.5 15c1.106 0 2-0.894 2-2s-0.894-2-2-2-2 0.894-2 2 0.894 2 2 2z"></path>
</svg>
