<!-- Generated by IcoMoon.io -->
<svg version="1.1" xmlns="http://www.w3.org/2000/svg" width="31" height="32" viewBox="0 0 31 32">
<title>grin-tongue-squint-solid</title>
<path d="M18.319 23.413c-0.9-0.406-1.944 0.137-2.163 1.1l-0.113 0.488c-0.131 0.575-0.95 0.575-1.081 0l-0.113-0.488c-0.219-0.962-1.262-1.506-2.162-1.1-0.056 0.025 0.019-0.012-1.181 0.587v3.938c0 2.2 1.75 4.031 3.944 4.056 2.231 0.031 4.056-1.775 4.056-4v-4c-1.219-0.6-1.137-0.556-1.188-0.581zM15.5 0.5c-8.563 0-15.5 6.938-15.5 15.5 0 6.644 4.188 12.294 10.063 14.5-0.35-0.762-0.563-1.606-0.563-2.5v-2.844c-1.544-1.012-2.719-2.381-2.987-3.988-0.125-0.738 0.575-1.344 1.294-1.119 1.887 0.606 4.694 0.95 7.694 0.95s5.806-0.344 7.694-0.95c0.712-0.231 1.413 0.381 1.294 1.119-0.269 1.606-1.444 2.975-2.988 3.988v2.844c0 0.894-0.212 1.738-0.563 2.5 5.875-2.206 10.063-7.856 10.063-14.5 0-8.563-6.938-15.5-15.5-15.5zM13.387 13.644l-5 3c-0.719 0.425-1.5-0.475-0.963-1.125l2.1-2.519-2.1-2.519c-0.537-0.644 0.237-1.556 0.963-1.125l5 3c0.481 0.294 0.481 0.994 0 1.287zM23.575 15.519c0.544 0.65-0.244 1.55-0.962 1.125l-5-3c-0.488-0.294-0.488-0.994 0-1.287l5-3c0.731-0.431 1.494 0.481 0.962 1.125l-2.1 2.519 2.1 2.519z"></path>
</svg>
