<!-- Generated by IcoMoon.io -->
<svg version="1.1" xmlns="http://www.w3.org/2000/svg" width="28" height="32" viewBox="0 0 28 32">
<title>grip-horizontal-solid</title>
<path d="M6 18h-4c-1.104 0-2 0.896-2 2v4c0 1.104 0.896 2 2 2h4c1.104 0 2-0.896 2-2v-4c0-1.104-0.896-2-2-2zM16 18h-4c-1.104 0-2 0.896-2 2v4c0 1.104 0.896 2 2 2h4c1.104 0 2-0.896 2-2v-4c0-1.104-0.896-2-2-2zM26 18h-4c-1.104 0-2 0.896-2 2v4c0 1.104 0.896 2 2 2h4c1.104 0 2-0.896 2-2v-4c0-1.104-0.896-2-2-2zM6 6h-4c-1.104 0-2 0.896-2 2v4c0 1.104 0.896 2 2 2h4c1.104 0 2-0.896 2-2v-4c0-1.104-0.896-2-2-2zM16 6h-4c-1.104 0-2 0.896-2 2v4c0 1.104 0.896 2 2 2h4c1.104 0 2-0.896 2-2v-4c0-1.104-0.896-2-2-2zM26 6h-4c-1.104 0-2 0.896-2 2v4c0 1.104 0.896 2 2 2h4c1.104 0 2-0.896 2-2v-4c0-1.104-0.896-2-2-2z"></path>
</svg>
