<!-- Generated by IcoMoon.io -->
<svg version="1.1" xmlns="http://www.w3.org/2000/svg" width="28" height="32" viewBox="0 0 28 32">
<title>grip-horizontal</title>
<path d="M26.5 6h-5c-0.826 0-1.5 0.673-1.5 1.5v5c0 0.827 0.674 1.5 1.5 1.5h5c0.826 0 1.5-0.673 1.5-1.5v-5c0-0.827-0.674-1.5-1.5-1.5zM26 12h-4v-4h4v4zM16.5 6h-5c-0.826 0-1.5 0.673-1.5 1.5v5c0 0.827 0.674 1.5 1.5 1.5h5c0.826 0 1.5-0.673 1.5-1.5v-5c0-0.827-0.674-1.5-1.5-1.5zM16 12h-4v-4h4v4zM6.5 6h-5c-0.826 0-1.5 0.673-1.5 1.5v5c0 0.827 0.674 1.5 1.5 1.5h5c0.826 0 1.5-0.673 1.5-1.5v-5c0-0.827-0.674-1.5-1.5-1.5zM6 12h-4v-4h4v4zM26.5 18h-5c-0.826 0-1.5 0.673-1.5 1.5v5c0 0.827 0.674 1.5 1.5 1.5h5c0.826 0 1.5-0.673 1.5-1.5v-5c0-0.827-0.674-1.5-1.5-1.5zM26 24h-4v-4h4v4zM16.5 18h-5c-0.826 0-1.5 0.673-1.5 1.5v5c0 0.827 0.674 1.5 1.5 1.5h5c0.826 0 1.5-0.673 1.5-1.5v-5c0-0.827-0.674-1.5-1.5-1.5zM16 24h-4v-4h4v4zM6.5 18h-5c-0.826 0-1.5 0.673-1.5 1.5v5c0 0.827 0.674 1.5 1.5 1.5h5c0.826 0 1.5-0.673 1.5-1.5v-5c0-0.827-0.674-1.5-1.5-1.5zM6 24h-4v-4h4v4z"></path>
</svg>
