<!-- Generated by IcoMoon.io -->
<svg version="1.1" xmlns="http://www.w3.org/2000/svg" width="20" height="32" viewBox="0 0 20 32">
<title>grip-vertical-solid</title>
<path d="M6 2h-4c-1.104 0-2 0.896-2 2v4c0 1.104 0.896 2 2 2h4c1.104 0 2-0.896 2-2v-4c0-1.104-0.896-2-2-2zM6 12h-4c-1.104 0-2 0.896-2 2v4c0 1.104 0.896 2 2 2h4c1.104 0 2-0.896 2-2v-4c0-1.104-0.896-2-2-2zM6 22h-4c-1.104 0-2 0.896-2 2v4c0 1.104 0.896 2 2 2h4c1.104 0 2-0.896 2-2v-4c0-1.104-0.896-2-2-2zM18 2h-4c-1.104 0-2 0.896-2 2v4c0 1.104 0.896 2 2 2h4c1.104 0 2-0.896 2-2v-4c0-1.104-0.896-2-2-2zM18 12h-4c-1.104 0-2 0.896-2 2v4c0 1.104 0.896 2 2 2h4c1.104 0 2-0.896 2-2v-4c0-1.104-0.896-2-2-2zM18 22h-4c-1.104 0-2 0.896-2 2v4c0 1.104 0.896 2 2 2h4c1.104 0 2-0.896 2-2v-4c0-1.104-0.896-2-2-2z"></path>
</svg>
