<!-- Generated by IcoMoon.io -->
<svg version="1.1" xmlns="http://www.w3.org/2000/svg" width="20" height="32" viewBox="0 0 20 32">
<title>grip-vertical</title>
<path d="M6.5 2h-5c-0.826 0-1.5 0.673-1.5 1.5v5c0 0.827 0.674 1.5 1.5 1.5h5c0.826 0 1.5-0.673 1.5-1.5v-5c0-0.827-0.674-1.5-1.5-1.5zM6 8h-4v-4h4v4zM6.5 12h-5c-0.826 0-1.5 0.673-1.5 1.5v5c0 0.827 0.674 1.5 1.5 1.5h5c0.826 0 1.5-0.673 1.5-1.5v-5c0-0.827-0.674-1.5-1.5-1.5zM6 18h-4v-4h4v4zM6.5 22h-5c-0.826 0-1.5 0.673-1.5 1.5v5c0 0.827 0.674 1.5 1.5 1.5h5c0.826 0 1.5-0.673 1.5-1.5v-5c0-0.827-0.674-1.5-1.5-1.5zM6 28h-4v-4h4v4zM18.5 2h-5c-0.826 0-1.5 0.673-1.5 1.5v5c0 0.827 0.674 1.5 1.5 1.5h5c0.826 0 1.5-0.673 1.5-1.5v-5c0-0.827-0.674-1.5-1.5-1.5zM18 8h-4v-4h4v4zM18.5 12h-5c-0.826 0-1.5 0.673-1.5 1.5v5c0 0.827 0.674 1.5 1.5 1.5h5c0.826 0 1.5-0.673 1.5-1.5v-5c0-0.827-0.674-1.5-1.5-1.5zM18 18h-4v-4h4v4zM18.5 22h-5c-0.826 0-1.5 0.673-1.5 1.5v5c0 0.827 0.674 1.5 1.5 1.5h5c0.826 0 1.5-0.673 1.5-1.5v-5c0-0.827-0.674-1.5-1.5-1.5zM18 28h-4v-4h4v4z"></path>
</svg>
