<!-- Generated by IcoMoon.io -->
<svg version="1.1" xmlns="http://www.w3.org/2000/svg" width="32" height="32" viewBox="0 0 32 32">
<title>guitar-solid</title>
<path d="M31.414 2.438l-1.852-1.852c-0.362-0.362-0.862-0.586-1.414-0.586s-1.052 0.224-1.414 0.586l-2.892 2.896c-0.236 0.235-0.419 0.524-0.529 0.846l-0.005 0.015-0.76 2.282-4.766 4.766c-0.76-0.547-1.594-0.984-2.506-1.196-2.091-0.486-4.188-0.055-5.617 1.375-0.567 0.57-1.002 1.272-1.255 2.055l-0.010 0.036c-0.375 1.16-1.451 2.043-2.634 2.154-1.481 0.142-2.858 0.716-3.913 1.777-2.853 2.844-2.339 7.969 1.128 11.435s8.589 3.972 11.436 1.129c1.063-1.055 1.635-2.431 1.778-3.919 0.11-1.178 0.993-2.258 2.152-2.634 0.82-0.263 1.523-0.698 2.093-1.266l-0 0c1.429-1.43 1.859-3.523 1.375-5.609-0.212-0.915-0.648-1.75-1.198-2.512l4.765-4.765 2.28-0.76c0.338-0.114 0.627-0.297 0.862-0.533l2.896-2.895c0.362-0.362 0.586-0.862 0.586-1.414s-0.223-1.050-0.584-1.412l0 0zM13 22c-1.657 0-3-1.343-3-3s1.343-3 3-3c1.657 0 3 1.343 3 3v0c0 1.657-1.343 3-3 3v0z"></path>
</svg>
