<!-- Generated by IcoMoon.io -->
<svg version="1.1" xmlns="http://www.w3.org/2000/svg" width="32" height="32" viewBox="0 0 32 32">
<title>guitar-electric-solid</title>
<path d="M31.951 2.471c-0.234-1.205-1.161-2.142-2.342-2.386l-0.019-0.003c-1.434-0.269-1.422-0.033-6.668 3.349-0.556 0.362-0.919 0.98-0.921 1.682v2.078l-6.765 6.76c-0.264-0.386-0.421-0.864-0.421-1.378 0-0.371 0.082-0.723 0.229-1.039l-0.006 0.015 1.081-2.321c0.069-0.146 0.11-0.316 0.11-0.496 0-0.65-0.527-1.176-1.176-1.176-0.325 0-0.619 0.132-0.832 0.345v0l-2.394 2.392c-0.496 0.495-0.885 1.097-1.129 1.769l-0.011 0.034c-0.45 1.237-1.353 2.218-2.503 2.761l-0.030 0.013-4.776 2.211c-3.577 1.429-4.525 6.044-1.802 8.765l4.587 4.583c2.723 2.721 7.341 1.773 8.772-1.799l2.213-4.774c0.556-1.179 1.537-2.081 2.742-2.52l0.034-0.011c0.705-0.255 1.308-0.643 1.804-1.138l1.347-1.347c0.226-0.225 0.366-0.536 0.366-0.88 0-0.686-0.556-1.242-1.242-1.242-0.136 0-0.267 0.022-0.389 0.062l0.009-0.003-1.483 0.472c-0.22 0.071-0.472 0.111-0.734 0.111-0.595 0-1.14-0.21-1.567-0.559l0.004 0.003 10.815-10.806c0.051 0.003 0.098 0.022 0.15 0.022 0 0 0.001 0 0.002 0 1.657 0 3-1.343 3-3 0-0.195-0.019-0.385-0.054-0.569l0.003 0.019zM11.353 24.646l-0.707 0.707c-0.090 0.090-0.215 0.146-0.353 0.146s-0.263-0.056-0.353-0.146l-3.293-3.291c-0.091-0.090-0.147-0.216-0.147-0.354s0.056-0.263 0.147-0.354v0l0.707-0.707c0.090-0.091 0.216-0.147 0.354-0.147s0.263 0.056 0.354 0.147v0l3.293 3.289c0.091 0.091 0.147 0.216 0.147 0.354s-0.056 0.264-0.147 0.354l-0 0zM15.353 20.646l-0.707 0.707c-0.090 0.090-0.215 0.146-0.353 0.146s-0.263-0.056-0.353-0.146l-3.293-3.291c-0.091-0.090-0.147-0.216-0.147-0.354s0.056-0.263 0.147-0.354v0l0.707-0.707c0.091-0.091 0.216-0.147 0.354-0.147s0.263 0.056 0.354 0.147v0l3.293 3.289c0.091 0.091 0.147 0.216 0.147 0.354s-0.056 0.264-0.147 0.354l-0 0z"></path>
</svg>
