<!-- Generated by IcoMoon.io -->
<svg version="1.1" xmlns="http://www.w3.org/2000/svg" width="32" height="32" viewBox="0 0 32 32">
<title>guitars-solid</title>
<path d="M14.329 18.763c0.33-0.62 0.525-1.356 0.527-2.137v-0.001c0-1.821-1.063-3.426-2.696-4.448-0.802-0.5-1.721-0.75-2.66-0.867v-3.389l1.037-2.076c0.121-0.237 0.192-0.516 0.193-0.812v-3.381c0-0.912-0.739-1.651-1.651-1.651-0 0-0 0-0.001 0h-2.158c-0 0-0 0-0.001 0-0.912 0-1.651 0.739-1.651 1.651v0 3.38c0 0.296 0.071 0.576 0.197 0.823l-0.005-0.010 1.039 2.078v3.391c-0.938 0.115-1.859 0.365-2.661 0.864-0.439 0.273-0.819 0.576-1.161 0.917l0-0c-0.962 0.962-1.539 2.188-1.539 3.536 0.002 0.782 0.196 1.517 0.538 2.163l-0.012-0.025c0.5 0.978 0.375 2.224-0.305 3.049-0.853 1.031-1.364 2.273-1.36 3.621-0.004 3.625 3.584 6.563 8 6.563 2.493 0 4.721-0.938 6.188-2.404 0.080-0.079 0.139-0.172 0.214-0.254-0.253-0.691-0.399-1.49-0.399-2.322 0-0.974 0.2-1.901 0.561-2.742l-0.017 0.045 0.641-1.734c-0.179-0.294-0.36-0.548-0.559-0.787l0.008 0.010c-0.681-0.823-0.806-2.073-0.307-3.049zM9.767 20.768c-0.452 0.452-1.077 0.732-1.767 0.732-1.381 0-2.5-1.119-2.5-2.5s1.119-2.5 2.5-2.5c0.69 0 1.315 0.28 1.767 0.732v0c0.453 0.453 0.733 1.078 0.733 1.769s-0.28 1.315-0.732 1.767v0zM31.591 25.051l-1.683-4.591c-0.174-0.461-0.276-0.995-0.276-1.552 0-0.703 0.161-1.369 0.448-1.962l-0.012 0.027c0.276-0.566 0.437-1.231 0.438-1.934v-1.77c-0-0.637-0.517-1.154-1.154-1.154-0.444 0-0.829 0.251-1.023 0.618l-0.003 0.006-0.663 1.284c-0.335 0.648-0.959 1.063-1.664 1.188l-0.5-0.006v-10.62c0.12-0.074 0.224-0.152 0.32-0.239l-0.002 0.002c0.461-0.461 0.746-1.098 0.746-1.801 0-1.407-1.141-2.548-2.548-2.548-0.526 0-1.015 0.16-1.422 0.433l0.009-0.006c-1.024 0.697-0.875 0.834-1.991 6.015-0.024 0.108-0.038 0.232-0.038 0.359 0 0.47 0.19 0.895 0.496 1.203l-0-0 1.429 1.433v5.729l-0.5-0.007c-0.707-0.194-1.302-0.688-1.563-1.398l-0.813-2.235c-0.157-0.423-0.558-0.718-1.027-0.718-0.604 0-1.093 0.489-1.093 1.093 0 0 0 0 0 0v0 3.146c0.001 0.703 0.162 1.368 0.449 1.96l-0.012-0.027c0.275 0.565 0.435 1.23 0.435 1.931 0 0.558-0.102 1.093-0.287 1.586l0.010-0.031-1.688 4.593c-1.413 3.287 0.996 6.941 4.572 6.941h6.026c3.577-0.004 5.989-3.662 4.582-6.949zM27 24.5c0 0.276-0.224 0.5-0.5 0.5v0h-5c-0.276 0-0.5-0.224-0.5-0.5v0-1c0-0.276 0.224-0.5 0.5-0.5v0h5c0.276 0 0.5 0.224 0.5 0.5v0zM27 20.492c0 0.276-0.224 0.5-0.5 0.5v0h-5c-0.276 0-0.5-0.224-0.5-0.5v0-1c0-0.276 0.224-0.5 0.5-0.5v0h5c0.276 0 0.5 0.224 0.5 0.5v0z"></path>
</svg>
