<!-- Generated by IcoMoon.io -->
<svg version="1.1" xmlns="http://www.w3.org/2000/svg" width="32" height="32" viewBox="0 0 32 32">
<title>guitar</title>
<path d="M10 18c-2.209 0-4 1.791-4 4s1.791 4 4 4c2.209 0 4-1.791 4-4v0c0-2.209-1.791-4-4-4v0zM10 24c-1.105 0-2-0.895-2-2s0.895-2 2-2c1.105 0 2 0.895 2 2v0c0 1.105-0.895 2-2 2v0zM31.361 2.656l-2.017-2.017c-0.395-0.395-0.94-0.639-1.543-0.639s-1.148 0.244-1.543 0.639l-3.157 3.158c-0.257 0.256-0.455 0.57-0.576 0.921l-0.005 0.017-1.334 4.008c-0.024 0.019-0.063 0.011-0.082 0.034l-2.913 2.912c-0.862-0.698-1.842-1.243-2.92-1.494-0.489-0.12-1.052-0.19-1.63-0.192h-0.001c-1.511 0-2.929 0.512-3.985 1.569-0.567 0.57-1.002 1.272-1.255 2.055l-0.010 0.037c-0.375 1.16-1.45 2.043-2.634 2.154-1.481 0.142-2.857 0.716-3.912 1.777-2.852 2.844-2.339 7.969 1.127 11.435 1.958 1.957 4.443 2.972 6.748 2.972 1.778 0 3.448-0.603 4.688-1.843 1.063-1.055 1.636-2.431 1.778-3.919 0.11-1.179 0.993-2.259 2.152-2.634 0.82-0.263 1.522-0.698 2.092-1.265l-0 0c1.429-1.431 1.858-3.523 1.375-5.61-0.25-1.079-0.792-2.063-1.489-2.922l2.91-2.911c0.023-0.023 0.015-0.057 0.034-0.081l4.004-1.335c0.369-0.125 0.683-0.324 0.941-0.581l3.157-3.158c0.395-0.395 0.639-0.94 0.639-1.543s-0.244-1.148-0.639-1.543v0zM19.016 20.925c-0.352 0.35-0.788 0.617-1.273 0.77l-0.022 0.006c-1.924 0.625-3.341 2.375-3.525 4.346-0.073 0.757-0.339 1.838-1.202 2.696-1.038 1.039-2.352 1.257-3.273 1.257-1.875 0-3.817-0.87-5.332-2.386s-2.388-3.466-2.388-5.339c0-0.918 0.219-2.229 1.264-3.271 0.853-0.858 1.93-1.125 2.681-1.196 1.978-0.188 3.726-1.603 4.351-3.533 0.159-0.506 0.427-0.94 0.776-1.291l-0 0c0.813-0.813 1.846-0.982 2.571-0.982 0.419 0.002 0.825 0.052 1.214 0.147l-0.036-0.007c0.644 0.15 1.304 0.489 1.944 0.975l-3.294 3.295c-0.136 0.136-0.221 0.324-0.221 0.531s0.084 0.395 0.221 0.531l1.063 1.063c0.136 0.136 0.324 0.221 0.531 0.221s0.395-0.084 0.531-0.221l3.294-3.295c0.485 0.639 0.823 1.298 0.972 1.941 0.342 1.496 0.035 2.861-0.846 3.742zM29.947 4.327l-3.157 3.157c-0.043 0.044-0.096 0.077-0.155 0.098l-0.003 0.001-3.319 1.104 1.106-3.32c0.021-0.062 0.055-0.115 0.098-0.158l3.157-3.158c0.032-0.033 0.077-0.053 0.126-0.053 0.001 0 0.002 0 0.002 0h-0c0.001 0 0.001 0 0.002 0 0.050 0 0.095 0.020 0.127 0.053l2.016 2.017c0.033 0.033 0.053 0.079 0.053 0.129s-0.021 0.097-0.054 0.13v0z"></path>
</svg>
