<!-- Generated by IcoMoon.io -->
<svg version="1.1" xmlns="http://www.w3.org/2000/svg" width="32" height="32" viewBox="0 0 32 32">
<title>guitar-electric</title>
<path d="M8.063 20.647c-0.090-0.090-0.215-0.146-0.353-0.146s-0.263 0.056-0.353 0.146l-0.707 0.707c-0.090 0.090-0.146 0.215-0.146 0.353s0.056 0.263 0.146 0.353l3.289 3.293c0.091 0.091 0.216 0.147 0.354 0.147s0.263-0.056 0.354-0.147v0l0.707-0.707c0.091-0.090 0.147-0.216 0.147-0.354s-0.056-0.263-0.147-0.354v0zM12.063 16.647c-0.090-0.090-0.215-0.146-0.353-0.146s-0.263 0.056-0.353 0.146v0l-0.707 0.707c-0.090 0.090-0.146 0.215-0.146 0.353s0.056 0.263 0.146 0.353l3.289 3.293c0.091 0.091 0.216 0.147 0.354 0.147s0.263-0.056 0.354-0.147v0l0.707-0.707c0.091-0.090 0.147-0.216 0.147-0.354s-0.056-0.263-0.147-0.354v0zM31.951 2.473c-0.234-1.206-1.162-2.143-2.343-2.388l-0.020-0.003c-0.201-0.046-0.434-0.075-0.672-0.082l-0.005-0c-0.925 0-1.696 0.663-5.989 3.434-0.557 0.363-0.921 0.983-0.921 1.687v2.787l-5.202 5.198c-0.108-0.133-0.174-0.304-0.174-0.491 0-0.111 0.023-0.217 0.065-0.313l-0.002 0.005 0.994-2.136c0.153-0.32 0.242-0.695 0.242-1.091 0-1.426-1.156-2.582-2.582-2.582-0.714 0-1.36 0.29-1.827 0.757l-2.202 2.203c-0.608 0.61-1.086 1.35-1.388 2.175l-0.013 0.042c-0.276 0.755-0.827 1.354-1.528 1.687l-0.018 0.008-4.393 2.036c-1.938 0.774-3.403 2.523-3.839 4.647-0.085 0.391-0.133 0.841-0.133 1.302 0 1.774 0.72 3.379 1.883 4.541l4.219 4.219c1.164 1.166 2.773 1.887 4.551 1.887 2.693 0 4.999-1.655 5.957-4.003l0.015-0.043 2.003-4.322c0.341-0.719 0.94-1.27 1.674-1.54l0.021-0.007c0.867-0.315 1.607-0.792 2.218-1.4l-0 0 1.24-1.239c0.479-0.478 0.775-1.139 0.775-1.869s-0.296-1.391-0.775-1.869l-0-0c-0.464-0.476-1.112-0.772-1.828-0.772-0.006 0-0.013 0-0.020 0h0.001c-0.295 0-0.579 0.046-0.845 0.13l0.020-0.005-1.363 0.434c-0.075 0.025-0.16 0.040-0.25 0.041h-0c-0.297 0-0.496-0.181-0.599-0.284l9.336-9.339c0.229 0.067 0.493 0.108 0.765 0.112l0.002 0c1.658-0.001 3.001-1.345 3.001-3.003 0-0.194-0.018-0.385-0.054-0.569l0.003 0.019zM19.496 17.536c0.307-0.001 0.601-0.050 0.878-0.141l-0.020 0.006 1.363-0.434c0.064-0.018 0.138-0.029 0.214-0.029 0.002 0 0.003 0 0.005 0h-0c0.005-0 0.011-0 0.017-0 0.165 0 0.313 0.072 0.415 0.187l0.001 0.001c0.116 0.115 0.188 0.274 0.188 0.45 0 0.002 0 0.004-0 0.006v-0c0 0 0 0.001 0 0.002 0 0.177-0.072 0.337-0.188 0.453v0l-1.241 1.236c-0.405 0.404-0.897 0.721-1.445 0.922l-0.028 0.009c-1.265 0.463-2.268 1.385-2.826 2.559l-0.013 0.030-2.023 4.371-0.020 0.049c-0.671 1.648-2.26 2.788-4.115 2.788-1.225 0-2.333-0.497-3.135-1.3l-4.221-4.219c-0.803-0.8-1.299-1.907-1.299-3.13 0-0.317 0.033-0.626 0.097-0.924l-0.005 0.029c0.296-1.442 1.3-2.666 2.621-3.192l0.051-0.020 0.049-0.023 4.395-2.033c1.205-0.571 2.127-1.574 2.579-2.804l0.011-0.035c0.21-0.576 0.527-1.068 0.931-1.474l2.203-2.202c0.105-0.106 0.251-0.171 0.412-0.171s0.306 0.066 0.412 0.171l0 0c0.104 0.107 0.169 0.253 0.169 0.414 0 0.088-0.019 0.172-0.054 0.247l0.002-0.004-0.996 2.134c-0.158 0.339-0.251 0.735-0.251 1.154 0 0.639 0.216 1.228 0.578 1.697l-0.005-0.006 2.283 2.356c0.721 0.719 1.493 0.869 2.015 0.869zM29.767 3.667c-0.185 0.22-0.46 0.359-0.767 0.359h-0c-0.093-0.005-0.179-0.021-0.262-0.046l-1.105-0.292-3.633 3.63 0.004-2.203c0.894-0.576 4.607-3.007 4.933-3.114 0.106 0.011 0.201 0.027 0.293 0.049l-0.015-0.003c0.386 0.089 0.684 0.39 0.766 0.771l0.001 0.007c0.013 0.060 0.020 0.13 0.020 0.201 0 0.246-0.089 0.471-0.237 0.644l0.001-0.001z"></path>
</svg>
