<!-- Generated by IcoMoon.io -->
<svg version="1.1" xmlns="http://www.w3.org/2000/svg" width="32" height="32" viewBox="0 0 32 32">
<title>guitars</title>
<path d="M5 20c0 1.657 1.343 3 3 3s3-1.343 3-3c0-1.657-1.343-3-3-3v0c-1.657 0-3 1.343-3 3v0zM9 20c0 0.552-0.448 1-1 1s-1-0.448-1-1c0-0.552 0.448-1 1-1v0c0.552 0 1 0.448 1 1v0zM25.5 21h-5c-0.276 0-0.5 0.224-0.5 0.5v0 1c0 0.276 0.224 0.5 0.5 0.5v0h5c0.276 0 0.5-0.224 0.5-0.5v0-1c0-0.276-0.224-0.5-0.5-0.5v0zM31.542 24.183l-1.894-3.165c-0.469-1.279-0.725-1.849-0.14-3.079 0.31-0.637 0.491-1.385 0.492-2.175v-1.992c0-0 0-0 0-0.001 0-0.717-0.581-1.297-1.297-1.297-0 0-0 0-0.001 0h0c-0 0-0 0-0.001 0-0.5 0-0.933 0.282-1.15 0.696l-0.003 0.007-0.747 1.445c-0.375 0.729-0.758 1.242-1.551 1.379h-0.75v-10.414c0.237-0.133 0.441-0.286 0.622-0.462l-0.001 0.001c0.553-0.545 0.895-1.301 0.895-2.138 0-1.657-1.343-3-3-3-0.628 0-1.211 0.193-1.693 0.523l0.010-0.007c-0.201 0.131-0.377 0.27-0.538 0.423l0.002-0.002c-0.654 0.654-0.73 1.668-1.807 6.663-0.029 0.128-0.046 0.275-0.046 0.426 0 0.553 0.224 1.053 0.585 1.416l1.97 1.971v4.599h-0.75c-0.795-0.219-1.155-0.875-1.447-1.678l-0.917-2.514c-0.176-0.475-0.626-0.808-1.154-0.808-0 0-0 0-0 0v0c-0.001 0-0.001 0-0.002 0-0.679 0-1.23 0.551-1.231 1.23v3.539c0 0 0 0.001 0 0.001 0 0.79 0.181 1.538 0.503 2.204l-0.013-0.030c0.584 1.23 0.339 1.801-0.131 3.079l-1.898 3.164c-1.586 3.697 1.125 7.813 5.146 7.813h6.779c4.026-0.004 6.74-4.119 5.157-7.817zM20.946 8.009c0.224-1.038 1.129-5.383 1.286-5.688 0.067-0.055 0.142-0.109 0.22-0.158l0.009-0.005c0.156-0.106 0.349-0.169 0.556-0.169 0.552 0 1 0.448 1 1 0 0.283-0.117 0.538-0.306 0.72l-0 0c-0.062 0.055-0.131 0.105-0.206 0.146l-0.006 0.003-0.999 0.58v5.136zM29.398 28.375c-0.643 0.984-1.739 1.625-2.985 1.625-0.009 0-0.018-0-0.027-0h-6.78c-0 0-0 0-0.001 0-1.989 0-3.601-1.612-3.601-3.601 0-0.471 0.090-0.921 0.255-1.333l-0.009 0.024 1.918-3.2 0.063-0.177 0.045-0.125c0.484-1.313 0.942-2.555 0.016-4.504-0.109-0.224-0.196-0.484-0.247-0.757l-0.003-0.019c0.426 0.65 1.098 1.322 2.171 1.617l0.261 0.072h4.942l0.169-0.029c0.923-0.156 1.714-0.633 2.27-1.31l0.005-0.006c-0.051 0.168-0.107 0.31-0.173 0.446l0.008-0.019c-0.922 1.938-0.468 3.169 0.011 4.471l0.058 0.156 0.063 0.176 0.096 0.162 1.827 3.039c0.16 0.389 0.252 0.84 0.252 1.313 0 0.738-0.226 1.424-0.612 1.992l0.008-0.012zM25.5 25.008h-5c-0.276 0-0.5 0.224-0.5 0.5v0 1c0 0.276 0.224 0.5 0.5 0.5v0h5c0.276 0 0.5-0.224 0.5-0.5v0-1c0-0.276-0.224-0.5-0.5-0.5v0zM8 30c-1.676 0-3.235-0.522-4.39-1.469-1.039-0.852-1.61-1.951-1.61-3.101-0.003-1.029 0.489-1.843 0.9-2.341 1.191-1.438 1.411-3.541 0.546-5.238-0.192-0.356-0.306-0.778-0.306-1.227v-0c0-0.966 0.518-1.688 0.953-2.122 0.237-0.233 0.5-0.44 0.785-0.617l0.019-0.011c0.417-0.259 0.958-0.424 1.604-0.527v0.652c0 0.552 0.448 1 1 1v0h1c0.552 0 1-0.448 1-1v0-0.654c0.646 0.102 1.188 0.268 1.604 0.527 0.303 0.189 0.567 0.398 0.804 0.633l-0-0c0.434 0.438 0.953 1.156 0.953 2.122-0.001 0.449-0.114 0.871-0.313 1.24l0.007-0.014c-0.818 1.603-0.635 3.552 0.389 4.976l1.212-2.022c-0.181-0.671-0.144-1.409 0.179-2.042 0.054-0.118 0.113-0.272 0.165-0.429l0.010-0.035c-0.313-0.809-0.51-1.666-0.51-2.533v-1.851c-0.21-0.309-0.433-0.579-0.679-0.827l0 0c-0.342-0.341-0.723-0.643-1.134-0.901l-0.027-0.016c-0.803-0.5-1.722-0.75-2.661-0.864v-3.389l1.039-2.077c0.121-0.237 0.192-0.516 0.192-0.812v-3.381c0-0.911-0.738-1.65-1.649-1.651h-2.16c-0 0-0 0-0.001 0-0.912 0-1.651 0.739-1.651 1.651v0 3.38c0 0.296 0.071 0.576 0.197 0.823l-0.005-0.010 1.039 2.078v3.391c-0.938 0.115-1.859 0.365-2.661 0.864-0.439 0.274-0.819 0.576-1.162 0.917l0-0c-0.962 0.962-1.539 2.188-1.538 3.536 0.002 0.781 0.196 1.517 0.538 2.163l-0.012-0.025c0.5 0.978 0.375 2.224-0.305 3.049-0.853 1.031-1.364 2.273-1.36 3.621-0.004 3.625 3.584 6.563 8 6.563 1.977 0 3.766-0.611 5.163-1.587-0.335-0.53-0.617-1.142-0.815-1.79l-0.014-0.054c-1.146 0.919-2.682 1.431-4.334 1.431zM8.731 2v3.031l-0.727 1.424-0.003-0.007v0.007l-0.731-1.424v-3.031z"></path>
</svg>
