<!-- Generated by IcoMoon.io -->
<svg version="1.1" xmlns="http://www.w3.org/2000/svg" width="36" height="32" viewBox="0 0 36 32">
<title>h1-solid</title>
<path d="M19 6h-6.184c-0.451 0-0.816 0.365-0.816 0.816v0 2.367c0 0.451 0.365 0.816 0.816 0.816v0h1.184v4h-8v-4h1.184c0.451 0 0.816-0.365 0.816-0.816v0-2.184c0-0.552-0.448-1-1-1v0h-6c-0.552 0-1 0.448-1 1v0 2.184c0 0.451 0.365 0.816 0.816 0.816h1.184v12h-1.184c-0.451 0-0.816 0.365-0.816 0.816v0 2.184c0 0.552 0.448 1 1 1v0h6.184c0.451 0 0.816-0.365 0.816-0.816v-2.367c0-0.451-0.365-0.816-0.816-0.816v0h-1.184v-4h8v4h-1.184c-0.451 0-0.816 0.365-0.816 0.816v2.184c0 0.552 0.448 1 1 1v0h6c0.552 0 1-0.448 1-1v0-2.184c0-0.451-0.365-0.816-0.816-0.816v0h-1.184v-12h1.184c0.451 0 0.816-0.365 0.816-0.816v0-2.184c0-0.552-0.448-1-1-1v0zM35 22h-3v-14.5c0-0.828-0.672-1.5-1.5-1.5v0h-2.5c-0.583 0.001-1.088 0.334-1.336 0.82l-0.004 0.008-1.5 3c-0.1 0.196-0.159 0.427-0.159 0.671 0 0.828 0.671 1.499 1.498 1.5h1.5v10h-3c-0.552 0-1 0.448-1 1v0 2c0 0.552 0.448 1 1 1v0h10c0.552 0 1-0.448 1-1v0-2c0-0.552-0.448-1-1-1v0z"></path>
</svg>
