<!-- Generated by IcoMoon.io -->
<svg version="1.1" xmlns="http://www.w3.org/2000/svg" width="36" height="32" viewBox="0 0 36 32">
<title>h2-solid</title>
<path d="M35 22h-7.451c1.063-2.684 8.451-4.161 8.451-9.976 0-3.739-2.979-6.024-6.679-6.024-2.739 0-5.088 1.336-6.464 3.563-0.093 0.147-0.148 0.326-0.148 0.517 0 0.342 0.175 0.643 0.441 0.818l0.004 0.002 1.766 1.162c0.157 0.105 0.349 0.167 0.557 0.167 0.33 0 0.624-0.159 0.808-0.404l0.002-0.003c0.673-0.929 1.559-1.625 2.741-1.625s2.389 0.654 2.389 2.115c0 3.261-8.881 4.576-8.881 11.535 0.007 0.462 0.046 0.909 0.114 1.346l-0.007-0.054c0.069 0.489 0.485 0.861 0.987 0.861 0.002 0 0.003 0 0.005 0h11.366c0.552 0 1-0.448 1-1v0-2c0-0.552-0.448-1-1-1v0zM19 6h-6.184c-0.451 0-0.816 0.365-0.816 0.816v0 2.367c0 0.451 0.365 0.816 0.816 0.816v0h1.184v4h-8v-4h1.184c0.451 0 0.816-0.365 0.816-0.816v0-2.184c0-0.552-0.448-1-1-1v0h-6c-0.552 0-1 0.448-1 1v0 2.184c0 0.451 0.365 0.816 0.816 0.816h1.184v12h-1.184c-0.451 0-0.816 0.365-0.816 0.816v0 2.184c0 0.552 0.448 1 1 1v0h6.184c0.451 0 0.816-0.365 0.816-0.816v-2.367c0-0.451-0.365-0.816-0.816-0.816v0h-1.184v-4h8v4h-1.184c-0.451 0-0.816 0.365-0.816 0.816v2.184c0 0.552 0.448 1 1 1v0h6c0.552 0 1-0.448 1-1v0-2.184c0-0.451-0.365-0.816-0.816-0.816v0h-1.184v-12h1.184c0.451 0 0.816-0.365 0.816-0.816v0-2.184c0-0.552-0.448-1-1-1v0z"></path>
</svg>
