<!-- Generated by IcoMoon.io -->
<svg version="1.1" xmlns="http://www.w3.org/2000/svg" width="36" height="32" viewBox="0 0 36 32">
<title>h2</title>
<path d="M19.5 6h-7c-0.276 0-0.5 0.224-0.5 0.5v0 1c0 0.276 0.224 0.5 0.5 0.5v0h2.5v7h-10v-7h2.5c0.276 0 0.5-0.224 0.5-0.5v0-1c0-0.276-0.224-0.5-0.5-0.5v0h-7c-0.276 0-0.5 0.224-0.5 0.5v0 1c0 0.276 0.224 0.5 0.5 0.5v0h2.5v16h-2.5c-0.276 0-0.5 0.224-0.5 0.5v0 1c0 0.276 0.224 0.5 0.5 0.5v0h7c0.276 0 0.5-0.224 0.5-0.5v0-1c0-0.276-0.224-0.5-0.5-0.5v0h-2.5v-7h10v7h-2.5c-0.276 0-0.5 0.224-0.5 0.5v0 1c0 0.276 0.224 0.5 0.5 0.5v0h7c0.276 0 0.5-0.224 0.5-0.5v0-1c0-0.276-0.224-0.5-0.5-0.5v0h-2.5v-16h2.5c0.276 0 0.5-0.224 0.5-0.5v0-1c0-0.276-0.224-0.5-0.5-0.5v0zM34.5 24h-9.121c0.24-4.922 9.952-5.914 9.952-12.434 0-3.125-2.308-5.566-6.109-5.566-2.406 0-4.563 1.298-5.738 3.029-0.081 0.117-0.129 0.261-0.129 0.417 0 0.257 0.131 0.483 0.329 0.615l0.003 0.002 0.447 0.297c0.117 0.078 0.262 0.125 0.417 0.125 0.247 0 0.466-0.118 0.604-0.301l0.001-0.002c0.906-1.188 2.357-2.11 3.955-2.11 2.332 0 3.961 1.482 3.961 3.606 0 5.146-10.070 6.063-10.070 12.957 0 0.264 0.012 0.488 0.031 0.699 0.043 0.377 0.36 0.668 0.746 0.668 0.002 0 0.003 0 0.005 0h10.717c0.276 0 0.5-0.224 0.5-0.5v0-1.002c0-0.276-0.224-0.5-0.5-0.5v0z"></path>
</svg>
