<!-- Generated by IcoMoon.io -->
<svg version="1.1" xmlns="http://www.w3.org/2000/svg" width="36" height="32" viewBox="0 0 36 32">
<title>h3-solid</title>
<path d="M31.188 13.606l4.025-4.519c0.154-0.17 0.249-0.396 0.25-0.644v-1.458c-0.009-0.546-0.453-0.985-1-0.985-0.006 0-0.012 0-0.019 0h-10.444c-0.552 0-1 0.448-1 1v0 2c0 0.552 0.448 1 1 1v0h5.324c-0.143 0.153-0.291 0.313-0.449 0.494l-3.319 3.819c-0.138 0.174-0.226 0.393-0.239 0.633l-0 0.003c0.005 0.144 0.037 0.28 0.089 0.404l-0.003-0.008 0.526 1.162c0.147 0.326 0.563 0.589 0.927 0.589h0.997c1.809 0 3.612 0.645 3.612 2.405 0 1.332-1.246 2.299-2.962 2.299-1.38 0-2.574-0.573-3.606-1.427-0.175-0.143-0.402-0.23-0.649-0.23-0.347 0-0.655 0.172-0.841 0.436l-0.002 0.003-1.234 1.8c-0.106 0.153-0.17 0.342-0.17 0.547 0 0.288 0.126 0.547 0.327 0.724l0.001 0.001c1.728 1.547 4.047 2.347 6.391 2.347 4.437 0 7.281-3.054 7.281-6.629 0-2.956-2.046-5.056-4.813-5.766zM19 6h-6.184c-0.451 0-0.816 0.365-0.816 0.816v0 2.367c0 0.451 0.365 0.816 0.816 0.816v0h1.184v4h-8v-4h1.184c0.451 0 0.816-0.365 0.816-0.816v0-2.184c0-0.552-0.448-1-1-1v0h-6c-0.552 0-1 0.448-1 1v0 2.184c0 0.451 0.365 0.816 0.816 0.816h1.184v12h-1.184c-0.451 0-0.816 0.365-0.816 0.816v0 2.184c0 0.552 0.448 1 1 1v0h6.184c0.451 0 0.816-0.365 0.816-0.816v-2.367c0-0.451-0.365-0.816-0.816-0.816v0h-1.184v-4h8v4h-1.184c-0.451 0-0.816 0.365-0.816 0.816v2.184c0 0.552 0.448 1 1 1v0h6c0.552 0 1-0.448 1-1v0-2.184c0-0.451-0.365-0.816-0.816-0.816v0h-1.184v-12h1.184c0.451 0 0.816-0.365 0.816-0.816v0-2.184c0-0.552-0.448-1-1-1v0z"></path>
</svg>
