<!-- Generated by IcoMoon.io -->
<svg version="1.1" xmlns="http://www.w3.org/2000/svg" width="36" height="32" viewBox="0 0 36 32">
<title>h3</title>
<path d="M29.8 13.977l5.671-6.329c0.116-0.129 0.187-0.3 0.188-0.488v-0.419c-0.008-0.411-0.344-0.741-0.756-0.741-0.004 0-0.008 0-0.012 0h-10.453c-0.276 0-0.5 0.224-0.5 0.5v0 1c0 0.276 0.224 0.5 0.5 0.5v0h8.148c-0.204 0.196-0.478 0.473-0.776 0.809l-4.77 5.402c-0.113 0.128-0.182 0.297-0.182 0.483 0 0.102 0.021 0.2 0.059 0.288l-0.002-0.005 0.172 0.401c0.122 0.271 0.389 0.457 0.7 0.457 0.003 0 0.005 0 0.008-0h0.944c2.652 0 4.922 1.432 4.924 4.018-0.009 1.138-0.501 2.16-1.281 2.872l-0.003 0.003c-2.309 2.104-5.75 1.149-7.76-0.602-0.136-0.117-0.314-0.188-0.509-0.188-0.241 0-0.456 0.109-0.6 0.28l-0.404 0.495c-0.103 0.124-0.166 0.285-0.166 0.46 0 0.218 0.096 0.413 0.248 0.545l0.001 0.001c1.415 1.25 3.688 2.279 6.027 2.279 3.767 0.001 6.721-2.723 6.721-6.205 0.006-3.581-2.806-5.539-6.137-5.817zM19.438 6h-7c-0.276 0-0.5 0.224-0.5 0.5v0 1c0 0.276 0.224 0.5 0.5 0.5v0h2.5v7h-10v-7h2.5c0.276 0 0.5-0.224 0.5-0.5v0-1c0-0.276-0.224-0.5-0.5-0.5v0h-7c-0.276 0-0.5 0.224-0.5 0.5v0 1c0 0.276 0.224 0.5 0.5 0.5v0h2.5v16h-2.5c-0.276 0-0.5 0.224-0.5 0.5v0 1c0 0.276 0.224 0.5 0.5 0.5v0h7c0.276 0 0.5-0.224 0.5-0.5v0-1c0-0.276-0.224-0.5-0.5-0.5v0h-2.5v-7h10v7h-2.5c-0.276 0-0.5 0.224-0.5 0.5v0 1c0 0.276 0.224 0.5 0.5 0.5v0h7c0.276 0 0.5-0.224 0.5-0.5v0-1c0-0.276-0.224-0.5-0.5-0.5v0h-2.5v-16h2.5c0.276 0 0.5-0.224 0.5-0.5v0-1c0-0.276-0.224-0.5-0.5-0.5v0z"></path>
</svg>
