<!-- Generated by IcoMoon.io -->
<svg version="1.1" xmlns="http://www.w3.org/2000/svg" width="36" height="32" viewBox="0 0 36 32">
<title>h4</title>
<path d="M19.5 6h-7c-0.276 0-0.5 0.224-0.5 0.5v0 1c0 0.276 0.224 0.5 0.5 0.5v0h2.5v7h-10v-7h2.5c0.276 0 0.5-0.224 0.5-0.5v0-1c0-0.276-0.224-0.5-0.5-0.5v0h-7c-0.276 0-0.5 0.224-0.5 0.5v0 1c0 0.276 0.224 0.5 0.5 0.5v0h2.5v16h-2.5c-0.276 0-0.5 0.224-0.5 0.5v0 1c0 0.276 0.224 0.5 0.5 0.5v0h7c0.276 0 0.5-0.224 0.5-0.5v0-1c0-0.276-0.224-0.5-0.5-0.5v0h-2.5v-7h10v7h-2.5c-0.276 0-0.5 0.224-0.5 0.5v0 1c0 0.276 0.224 0.5 0.5 0.5v0h7c0.276 0 0.5-0.224 0.5-0.5v0-1c0-0.276-0.224-0.5-0.5-0.5v0h-2.5v-16h2.5c0.276 0 0.5-0.224 0.5-0.5v0-1c0-0.276-0.224-0.5-0.5-0.5v0zM35.5 15h-1.5v-8.5c0-0.276-0.224-0.5-0.5-0.5v0h-1c-0.276 0-0.5 0.224-0.5 0.5v0 8.5h-8v-8.5c0-0.276-0.224-0.5-0.5-0.5v0h-1c-0.276 0-0.5 0.224-0.5 0.5v0 9.5c0 0.552 0.448 1 1 1v0h9v8.5c0 0.276 0.224 0.5 0.5 0.5v0h1c0.276 0 0.5-0.224 0.5-0.5v0-8.5h1.5c0.276 0 0.5-0.224 0.5-0.5v0-1c0-0.276-0.224-0.5-0.5-0.5v0z"></path>
</svg>
