<!-- Generated by IcoMoon.io -->
<svg version="1.1" xmlns="http://www.w3.org/2000/svg" width="32" height="32" viewBox="0 0 32 32">
<title>hamburger</title>
<path d="M24 13c0.552 0 1-0.448 1-1s-0.448-1-1-1c-0.552 0-1 0.448-1 1v0c0 0.552 0.448 1 1 1v0zM13 9c0.552 0 1-0.448 1-1s-0.448-1-1-1c-0.552 0-1 0.448-1 1v0c0 0.552 0.448 1 1 1v0zM19 9c0.552 0 1-0.448 1-1s-0.448-1-1-1c-0.552 0-1 0.448-1 1v0c0 0.552 0.448 1 1 1v0zM8 13c0.552 0 1-0.448 1-1s-0.448-1-1-1c-0.552 0-1 0.448-1 1v0c0 0.552 0.448 1 1 1v0zM32 20c-0.003-1.421-0.749-2.667-1.869-3.372l-0.017-0.010c0.846-1.309 1.155-3.309 0.397-4.942-2.511-5.41-8.039-9.669-14.511-9.677-6.471 0.008-12 4.266-14.511 9.676-0.778 1.676-0.569 3.742 0.229 5.047-1.043 0.726-1.718 1.918-1.718 3.269 0 1.179 0.514 2.238 1.33 2.965l0.004 0.003c-0.193 0.308-0.334 0.65-0.334 1.040v2c0 2.209 1.791 4 4 4v0h22c2.209 0 4-1.791 4-4v0-2c0-0.39-0.141-0.733-0.334-1.040 0.817-0.729 1.33-1.784 1.334-2.959v-0.001zM3.303 12.519c2.363-5.088 7.466-8.511 12.697-8.519 5.233 0.008 10.336 3.431 12.697 8.519 0.362 0.779 0.328 1.846-0.088 2.717-0.009 0.018-0.017 0.035-0.026 0.052-0.224 0.426-0.663 0.711-1.169 0.711-0.004 0-0.008-0-0.012-0h-23.021c-0.382 0-0.765-0.149-1-0.451-0.063-0.079-0.115-0.17-0.153-0.268l-0.002-0.007c-0.328-0.867-0.297-1.949 0.078-2.755zM29 26c0 1.105-0.895 2-2 2v0h-22c-1.105 0-2-0.895-2-2v0-2h26zM28 22h-24c-1.105 0-2-0.895-2-2s0.895-2 2-2v0h24c1.105 0 2 0.895 2 2s-0.895 2-2 2v0z"></path>
</svg>
