<!-- Generated by IcoMoon.io -->
<svg version="1.1" xmlns="http://www.w3.org/2000/svg" width="32" height="32" viewBox="0 0 32 32">
<title>hamburger-solid</title>
<path d="M29 16h-26c-1.657 0-3 1.343-3 3s1.343 3 3 3v0h26c1.657 0 3-1.343 3-3s-1.343-3-3-3v0zM30 24h-28c-0.552 0-1 0.448-1 1v0 1c0 2.209 1.791 4 4 4v0h22c2.209 0 4-1.791 4-4v0-1c0-0.552-0.448-1-1-1v0zM3.665 14h24.67c2.161 0 3.414-2.744 2.176-4.742-2.511-4.058-8.039-7.251-14.511-7.258-6.471 0.006-12 3.2-14.511 7.257-1.239 1.999 0.016 4.743 2.176 4.743zM24 7c0.552 0 1 0.448 1 1s-0.448 1-1 1c-0.552 0-1-0.448-1-1v0c0-0.552 0.448-1 1-1v0zM16 5c0.552 0 1 0.448 1 1s-0.448 1-1 1c-0.552 0-1-0.448-1-1v0c0-0.552 0.448-1 1-1v0zM8 7c0.552 0 1 0.448 1 1s-0.448 1-1 1c-0.552 0-1-0.448-1-1v0c0-0.552 0.448-1 1-1v0z"></path>
</svg>
