<!-- Generated by IcoMoon.io -->
<svg version="1.1" xmlns="http://www.w3.org/2000/svg" width="24" height="32" viewBox="0 0 24 32">
<title>hammer-war</title>
<path d="M22.004 2c-0.109 0-0.221 0.009-0.333 0.027l-6.671 1.112v-2.139c0-0.552-0.447-1-1-1h-4c-0.553 0-1 0.448-1 1v2.139l-6.671-1.112c-0.112-0.019-0.224-0.028-0.333-0.028-1.081 0-1.996 0.878-1.996 2.001v11.999c0 1.123 0.915 2.001 1.996 2.001 0.109 0 0.221-0.009 0.333-0.027l6.671-1.112v14.139c0 0.552 0.447 1 1 1h4c0.553 0 1-0.448 1-1v-14.139l6.671 1.112c0.112 0.019 0.223 0.027 0.333 0.027 1.081 0 1.996-0.878 1.996-2.001v-11.999c-0.001-1.123-0.916-2.001-1.996-2.001zM11 2h2v1.473l-1 0.167-1-0.167v-1.473zM13 30h-2v-13.473l1-0.167 1 0.167v13.473zM22 15.999l-10-1.667-10 1.667v-11.999l10 1.667 10-1.667v11.999z"></path>
</svg>
