<!-- Generated by IcoMoon.io -->
<svg version="1.1" xmlns="http://www.w3.org/2000/svg" width="36" height="32" viewBox="0 0 36 32">
<title>hammer</title>
<path d="M35.853 12.557l-0.709-0.707c-0.196-0.195-0.513-0.195-0.709 0l-1.063 1.061-3.311-3.304c0.352-1.332 0.023-2.806-1.024-3.851l-2.835-2.828c-1.957-1.952-4.522-2.929-7.087-2.929s-5.131 0.976-7.088 2.929l4.291 4.281c-0.276 1.044-0.117 2.169 0.462 3.112l-15.439 14.381c-1.747 1.628-1.794 4.376-0.104 6.062 0.826 0.824 1.907 1.234 2.987 1.234 1.128 0 2.256-0.448 3.089-1.339l14.571-15.571c0.802 0.316 1.677 0.394 2.508 0.175l3.311 3.304-1.063 1.061c-0.091 0.090-0.147 0.215-0.147 0.353s0.056 0.263 0.147 0.353l0.709 0.707c0.196 0.195 0.513 0.195 0.709 0l7.796-7.778c0.091-0.090 0.147-0.216 0.147-0.354s-0.056-0.263-0.147-0.354v0zM5.848 29.296c-0.424 0.454-1.001 0.704-1.624 0.704-0.593 0-1.15-0.231-1.569-0.649-0.429-0.429-0.661-0.998-0.65-1.604s0.261-1.168 0.705-1.581l15.398-14.342 2.116 2.111-14.376 15.362zM29.12 17.154l-4.126-4.116-1.114 0.294c-0.706 0.186-1.427-0.002-1.929-0.502l-3.189-3.182c-0.502-0.501-0.69-1.221-0.504-1.925l0.294-1.112-3.511-3.504c1.221-0.721 2.619-1.106 4.075-1.106 2.142 0 4.155 0.833 5.67 2.343l2.835 2.829c0.502 0.501 0.69 1.221 0.504 1.925l-0.294 1.112 4.126 4.117-2.836 2.828z"></path>
</svg>
