<!-- Generated by IcoMoon.io -->
<svg version="1.1" xmlns="http://www.w3.org/2000/svg" width="36" height="32" viewBox="0 0 36 32">
<title>hammer-solid</title>
<path d="M35.707 12.121l-1.414-1.414c-0.391-0.391-1.024-0.391-1.414 0l-0.707 0.707-1.806-1.806c0.352-1.332 0.023-2.806-1.022-3.851l-2.828-2.828c-3.905-3.905-10.237-3.905-14.143 0l5.657 2.828v1.172c0 1.061 0.421 2.078 1.172 2.828l3.071 3.071c1.044 1.044 2.519 1.374 3.851 1.022l1.806 1.806-0.707 0.707c-0.391 0.391-0.391 1.024 0 1.414l1.414 1.414c0.391 0.391 1.024 0.391 1.414 0l5.657-5.657c0.389-0.39 0.389-1.023-0.001-1.414zM17.787 11.171c-0.231-0.231-0.427-0.487-0.616-0.747l-15.944 14.886c-1.598 1.492-1.641 4.012-0.096 5.558s4.066 1.503 5.558-0.096l14.883-15.942c-0.247-0.182-0.494-0.367-0.715-0.588l-3.071-3.071z"></path>
</svg>
