<!-- Generated by IcoMoon.io -->
<svg version="1.1" xmlns="http://www.w3.org/2000/svg" width="24" height="32" viewBox="0 0 24 32">
<title>hammer-war-solid</title>
<path d="M21.671 2.027l-7.671 1.279v-2.306c0-0.552-0.447-1-1-1h-2c-0.553 0-1 0.448-1 1v2.306l-7.671-1.279c-1.219-0.203-2.329 0.737-2.329 1.973v11.999c0 1.236 1.11 2.176 2.329 1.972l9.671-1.611 9.671 1.612c1.219 0.203 2.329-0.737 2.329-1.973v-11.999c0-1.236-1.11-2.176-2.329-1.973zM10 18.721v12.279c0 0.552 0.447 1 1 1h2c0.553 0 1-0.448 1-1v-12.279l-2-0.333-2 0.333z"></path>
</svg>
