<!-- Generated by IcoMoon.io -->
<svg version="1.1" xmlns="http://www.w3.org/2000/svg" width="32" height="32" viewBox="0 0 32 32">
<title>hamsa-solid</title>
<path d="M31.834 19.203c-0.316-0.731-1.037-1.203-1.834-1.203h-4v-13c0-1.375-1.125-2.5-2.5-2.5s-2.5 1.125-2.5 2.5v8.375c0 0.345-0.28 0.625-0.625 0.625h-1.25c-0.345 0-0.625-0.28-0.625-0.625v-10.875c0-1.375-1.125-2.5-2.5-2.5s-2.5 1.125-2.5 2.5v10.875c0 0.345-0.28 0.625-0.625 0.625h-1.25c-0.345 0-0.625-0.28-0.625-0.625v-8.375c0-1.375-1.125-2.5-2.5-2.5s-2.5 1.125-2.5 2.5v13h-4c-0.797 0-1.518 0.473-1.834 1.203-0.105 0.235-0.166 0.509-0.166 0.798 0 0.528 0.204 1.007 0.539 1.364l-0.001-0.001 6.418 6.877c2.23 2.389 5.525 3.759 9.044 3.759s6.814-1.37 9.045-3.759l6.418-6.877c0.333-0.356 0.537-0.836 0.537-1.363 0-0.289-0.061-0.563-0.171-0.811l0.005 0.013zM16 26c-3.314 0-6-4-6-4s2.686-4 6-4 6 4 6 4-2.686 4-6 4zM16 20c-1.104 0-2 0.896-2 2s0.896 2 2 2 2-0.896 2-2-0.896-2-2-2z"></path>
</svg>
