<!-- Generated by IcoMoon.io -->
<svg version="1.1" xmlns="http://www.w3.org/2000/svg" width="32" height="32" viewBox="0 0 32 32">
<title>hamsa</title>
<path d="M16 20.5c-0.828 0-1.5 0.671-1.5 1.5s0.672 1.5 1.5 1.5 1.5-0.671 1.5-1.5-0.672-1.5-1.5-1.5zM28.247 14h-2.247v-8c0-2.206-1.794-4-4-4-0.823 0-1.588 0.249-2.225 0.678-0.547-1.558-2.032-2.678-3.775-2.678s-3.228 1.119-3.775 2.678c-0.623-0.424-1.392-0.678-2.22-0.678-0.002 0-0.004 0-0.006 0h0c-2.206 0-4 1.794-4 4v8h-2.246c-2.569 0-3.751 2.332-3.754 4-0.002 0.949 0.315 1.883 0.924 2.629l5.613 6.878c2.333 2.856 5.783 4.494 9.463 4.494s7.13-1.638 9.463-4.493l5.613-6.878c0.609-0.746 0.926-1.68 0.924-2.629-0.003-1.672-1.207-4-3.753-4zM29.527 19.364l-5.461 6.692c-1.546 1.893-3.667 3.29-6.067 3.752-3.8 0.732-7.543-0.667-9.912-3.567l-5.612-6.877c-0.475-0.582-0.603-1.431-0.324-2.161 0.276-0.731 0.906-1.203 1.604-1.203h4.246v-9.878c0-0.998 0.675-1.928 1.658-2.093 1.249-0.21 2.342 0.759 2.342 1.971v7.5c0 0.276 0.224 0.5 0.5 0.5h1c0.276 0 0.5-0.224 0.5-0.5v-9.378c0-0.998 0.675-1.928 1.658-2.093 1.249-0.21 2.342 0.759 2.342 1.971v9.5c0 0.276 0.224 0.5 0.5 0.5h1c0.276 0 0.5-0.224 0.5-0.5v-7.378c0-0.997 0.675-1.928 1.658-2.093 1.249-0.21 2.342 0.759 2.342 1.971v10h4.247c0.698 0 1.328 0.473 1.604 1.203 0.279 0.731 0.151 1.579-0.324 2.161zM16 17c-1.174 0-3.623 0.114-7.008 4.366-0.287 0.361-0.287 0.907 0 1.267 3.387 4.256 5.835 4.367 7.008 4.367 1.174 0 3.622-0.114 7.008-4.367 0.287-0.361 0.287-0.907 0-1.267-3.387-4.255-5.835-4.366-7.008-4.366zM16 25c-2.761 0-5-3-5-3s2.239-3 5-3 5 3 5 3-2.239 3-5 3z"></path>
</svg>
