<!-- Generated by IcoMoon.io -->
<svg version="1.1" xmlns="http://www.w3.org/2000/svg" width="32" height="32" viewBox="0 0 32 32">
<title>hand-point-right</title>
<path d="M27.6 9.2h-7.612c0.34-0.762 0.612-1.688 0.612-2.8 0-2.53-2.018-4.4-4.6-4.4-3.034 0-3.613 3.366-4.48 4.77-0.691 1.11-2.679 3.567-3.807 4.197-0.35-0.579-0.986-0.966-1.712-0.966h-4c-1.105 0-2 0.895-2 2v14c0 1.105 0.895 2 2 2h4c0.573 0 1.089-0.241 1.454-0.627 2.166 0.485 4.437 2.627 7.819 2.627h1.452c3.725 0 5.641-2.255 5.539-5.367 0.894-1.069 1.33-2.635 1.040-4.093 0.452-0.741 0.709-1.587 0.743-2.474 0.001-0.022 0.002-0.044 0.002-0.066h3.551c2.396 0 4.4-1.995 4.4-4.4 0-2.385-2.048-4.4-4.4-4.4zM2 12h4v14h-4v-14zM27.6 16h-6.206c0.875 1 0.983 2.92-0.337 4.163 0.765 1.339 0.115 3.111-0.881 3.656 0.445 2.668-0.687 4.181-3.45 4.181h-1.452c-2.771 0-4.793-1.954-7.273-2.554v-12.417c1.865-0.669 4.306-3.739 5.219-5.204 0.987-1.595 1.281-3.825 2.781-3.825s2.6 1 2.6 2.4c0 2.4-1.8 3.619-1.8 4.8h10.8c1.256 0 2.4 1.125 2.4 2.4 0 1.294-1.106 2.4-2.4 2.4zM5.25 24c0 0.69-0.56 1.25-1.25 1.25s-1.25-0.56-1.25-1.25 0.56-1.25 1.25-1.25 1.25 0.56 1.25 1.25z"></path>
</svg>
