<!-- Generated by IcoMoon.io -->
<svg version="1.1" xmlns="http://www.w3.org/2000/svg" width="40" height="32" viewBox="0 0 40 32">
<title>hand-sparkles</title>
<path d="M19.224 18c-0.042-0.082-0.126-0.138-0.223-0.138s-0.181 0.055-0.223 0.136l-0.001 0.001-0.777 1.862-1.862 0.776c-0.082 0.042-0.138 0.126-0.138 0.223s0.055 0.181 0.136 0.223l0.001 0.001 1.862 0.776 0.776 1.861c0.042 0.082 0.126 0.138 0.223 0.138s0.181-0.055 0.223-0.136l0.001-0.001 0.777-1.861 1.862-0.776c0.082-0.042 0.138-0.126 0.138-0.223s-0.055-0.181-0.136-0.223l-0.001-0.001-1.862-0.776zM6.666 10.529l0.006-0.003 3.097-1.291c0.132-0.077 0.222-0.215 0.23-0.374l0-0.001c-0.008-0.161-0.097-0.299-0.228-0.374l-0.002-0.001-3.103-1.292-1.291-3.1c-0.069-0.138-0.21-0.231-0.372-0.231s-0.303 0.093-0.371 0.229l-0.001 0.002-1.294 3.102h-0.003l-3.102 1.294c-0.133 0.076-0.222 0.214-0.23 0.374l-0 0.001h-0.001c0.008 0.16 0.098 0.298 0.228 0.374l0.002 0.001 3.103 1.292 1.293 3.099c0.069 0.138 0.21 0.231 0.372 0.231s0.303-0.093 0.371-0.229l0.001-0.002 1.293-3.101zM40 26.861c-0.008-0.161-0.097-0.299-0.228-0.374l-0.002-0.001-3.102-1.292-1.292-3.102c-0.069-0.138-0.21-0.231-0.373-0.231s-0.303 0.093-0.371 0.229l-0.001 0.002-1.294 3.102h-0.003l-3.102 1.294c-0.133 0.076-0.222 0.214-0.23 0.374l-0 0.001c0.008 0.16 0.098 0.298 0.228 0.374l0.002 0.001 3.102 1.292 1.291 3.099c0.069 0.138 0.21 0.231 0.373 0.231s0.303-0.093 0.371-0.229l0.001-0.002 1.293-3.101h0.006l3.097-1.291c0.132-0.077 0.222-0.215 0.23-0.374l0-0.001zM28.368 30h-11.287c-0.693-0.002-1.303-0.353-1.665-0.887l-0.005-0.007-7.137-10.744c-0.17-0.239-0.272-0.538-0.272-0.86 0-0.506 0.252-0.954 0.636-1.224l0.005-0.003c0.987-0.694 1.875 0.063 2.087 0.368l2.363 3.4c0.091 0.132 0.242 0.217 0.412 0.217 0.276 0 0.5-0.224 0.5-0.5 0-0.002 0-0.003-0-0.005v0-14.256c0-0.828 0.672-1.5 1.5-1.5s1.5 0.672 1.5 1.5v10c0 0.276 0.224 0.5 0.5 0.5v0h0.763c0.141-0.049 0.306-0.085 0.477-0.103l0.009-0.001c0.141-0.088 0.25-0.218 0.25-0.396v-12c0-0.828 0.672-1.5 1.5-1.5s1.5 0.672 1.5 1.5v0 12c0 0.276 0.224 0.5 0.5 0.5v0h1c0.276 0 0.5-0.224 0.5-0.5v0-10c0-0.828 0.672-1.5 1.5-1.5s1.5 0.672 1.5 1.5v0 10c0 0.276 0.224 0.5 0.5 0.5v0h1c0.276 0 0.5-0.224 0.5-0.5v0-5c0-0.828 0.672-1.5 1.5-1.5s1.5 0.672 1.5 1.5v0 7.519c-0 1.389-0.141 2.745-0.41 4.054l0.022-0.13-0.392 1.964 0.578-0.241 0.977-2.343 0.026-0.063 0.029-0.059c0.239-0.452 0.602-0.811 1.044-1.037l0.014-0.006c0.069-0.709 0.106-1.422 0.106-2.133v-7.524c0-0.002 0-0.004 0-0.007 0-1.929-1.564-3.493-3.493-3.493-0 0-0.001 0-0.001 0h0c-0.003 0-0.006 0-0.010 0-0.542 0-1.054 0.125-1.511 0.347l0.020-0.009v-1.838c-0.001-1.932-1.568-3.498-3.5-3.498-0.612 0-1.187 0.157-1.687 0.433l0.018-0.009c-0.468-1.419-1.782-2.425-3.331-2.425s-2.863 1.006-3.324 2.401l-0.007 0.025c-0.482-0.267-1.057-0.423-1.669-0.423-1.932 0-3.499 1.566-3.5 3.498v9.55c-0.719-0.738-2.631-1.732-4.506-0.419-0.908 0.642-1.493 1.688-1.493 2.87 0 0.75 0.236 1.446 0.637 2.016l-0.007-0.011 7.106 10.707c0.726 1.083 1.945 1.787 3.328 1.787 0.001 0 0.002 0 0.003 0h11.288c1.45-0.004 2.719-0.775 3.421-1.93l0.010-0.018-1.904-0.794c-0.36 0.448-0.907 0.735-1.52 0.741h-0.001z"></path>
</svg>
