<!-- Generated by IcoMoon.io -->
<svg version="1.1" xmlns="http://www.w3.org/2000/svg" width="36" height="32" viewBox="0 0 36 32">
<title>hand-holding-magic-solid</title>
<path d="M14 14c3.309 0 6-2.691 6-6 0 0-2 2-6 2-1.107 0-2-1.094-2-2v-2c0-1.103 0.898-2 2-2h8c1.102 0 2 0.897 2 2v2c0 2.144-1.094 4.159-2.631 5.675l-3.369 3.325 1.113-0.063c4.816-0.273 8.849-4.079 8.886-8.839 0-0.033 0.001-0.065 0.001-0.098v-2c0-3.309-2.691-6-6-6h-8c-3.309 0-6 2.691-6 6v2c0 3.196 2.804 6 6 6zM35.33 20.506c-0.739-0.668-1.886-0.622-2.664 0l-5.771 4.617c-0.678 0.546-1.55 0.877-2.499 0.877h-7.396c-0.552 0-1-0.448-1-1s0.448-1 1-1h4.892c0.996 0 1.92-0.681 2.080-1.664 0.204-1.253-0.758-2.336-1.973-2.336h-10c-1.686 0-3.319 0.579-4.629 1.642l-2.906 2.358h-3.465c-0.552 0-1 0.448-1 1v6c0 0.552 0.448 1 1 1h22.298c0.908 0 1.789-0.309 2.499-0.877l9.452-7.562c0.949-0.758 1.024-2.204 0.081-3.055z"></path>
</svg>
