<!-- Generated by IcoMoon.io -->
<svg version="1.1" xmlns="http://www.w3.org/2000/svg" width="24" height="32" viewBox="0 0 24 32">
<title>hand-point-up-solid</title>
<path d="M8.478 0c1.477 0 2.739 1.291 2.739 2.8v6.241c1.066-1.021 3.11-1.147 4.434 0.394 1.427-0.893 3.314-0.134 3.895 1.028 3.071-0.561 4.454 1.372 4.454 4.537 0 0.172-0.013 0.83-0.012 1 0.011 3.873-1.942 4.806-2.395 7.733-0.113 0.73-0.743 1.267-1.482 1.267l-10.72-0c-1.148-0.001-2.243-0.663-2.74-1.779-0.812-1.805-3.065-5.963-4.833-6.721-1.137-0.487-1.818-1.337-1.818-2.5-0.001-2.139 2.194-3.61 4.182-2.757 0.522 0.224 1.042 0.52 1.557 0.885v-9.327c0-1.466 1.284-2.8 2.739-2.8zM8.5 26h12c0.828 0 1.5 0.672 1.5 1.5v3c0 0.828-0.672 1.5-1.5 1.5h-12c-0.828 0-1.5-0.672-1.5-1.5v-3c0-0.828 0.672-1.5 1.5-1.5zM19 27.75c-0.69 0-1.25 0.56-1.25 1.25s0.56 1.25 1.25 1.25 1.25-0.56 1.25-1.25-0.56-1.25-1.25-1.25z"></path>
</svg>
