<!-- Generated by IcoMoon.io -->
<svg version="1.1" xmlns="http://www.w3.org/2000/svg" width="36" height="32" viewBox="0 0 36 32">
<title>hand-holding-box</title>
<path d="M7 16h22c0.55 0 1-0.45 1-1v-14c0-0.55-0.45-1-1-1h-22c-0.55 0-1 0.45-1 1v14c0 0.55 0.45 1 1 1zM16 2h4v4.763l-2-1-2 1v-4.763zM8 2h6v8l4-2 4 2v-8h6v12h-20v-12zM34.894 20.85c-0.6-0.538-1.381-0.837-2.2-0.837-0.781 0-1.55 0.269-2.163 0.762l-3.85 3.081c-0.119 0.094-0.262 0.144-0.419 0.144h-2.6c0.288-0.6 0.406-1.294 0.3-2.019-0.25-1.744-1.85-2.981-3.613-2.981h-9.019c-1.3 0-2.563 0.419-3.6 1.2l-2.4 1.8h-4.831c-0.275 0-0.5 0.225-0.5 0.5v1c0 0.275 0.225 0.5 0.5 0.5h5.5l2.931-2.2c0.694-0.519 1.537-0.8 2.4-0.8h9.169c0.831 0 1.5 0.669 1.5 1.5s-0.669 1.5-1.5 1.5h-5.5c-0.55 0-1 0.45-1 1s0.45 1 1 1h11.262c0.606 0 1.194-0.206 1.669-0.581l3.85-3.075c0.262-0.212 0.594-0.325 0.912-0.325 0.313 0 0.619 0.106 0.862 0.325 0.631 0.569 0.581 1.531-0.056 2.038l-6.3 5.044c-0.475 0.381-1.063 0.581-1.669 0.581h-25.031c-0.275 0-0.5 0.225-0.5 0.5v1c0 0.275 0.225 0.5 0.5 0.5h25.031c1.063 0 2.087-0.363 2.913-1.025l6.306-5.044c0.763-0.613 1.219-1.525 1.25-2.5s-0.375-1.925-1.106-2.587z"></path>
</svg>
