<!-- Generated by IcoMoon.io -->
<svg version="1.1" xmlns="http://www.w3.org/2000/svg" width="40" height="32" viewBox="0 0 40 32">
<title>handshake-slash-solid</title>
<path d="M0 8.013v15.987h4c1.105 0 2-0.895 2-2v0-10.5l-4.511-3.487zM3 20.006c0.552 0 1 0.448 1 1s-0.448 1-1 1c-0.552 0-1-0.448-1-1v0c0-0.552 0.448-1 1-1v0zM8 21.994h1.144l5.656 5.118c0.682 0.557 1.562 0.895 2.522 0.895 1.249 0 2.364-0.572 3.098-1.469l0.006-0.007 0.012-0.012 1.119 0.969c0.396 0.324 0.908 0.521 1.466 0.521 0.725 0 1.373-0.333 1.799-0.854l0.003-0.004 0.55-0.676-17.375-13.429zM34 8.013v13.993c0 1.105 0.895 2 2 2v0h4v-15.993zM37 22.006c-0.552 0-1-0.448-1-1s0.448-1 1-1c0.552 0 1 0.448 1 1v0c0 0.552-0.448 1-1 1v0zM18.958 12.667l3.724-3.411c0.175-0.154 0.406-0.248 0.659-0.248 0.552 0 1 0.448 1 1 0 0.285-0.119 0.541-0.31 0.723l-0 0-1.631 1.493 9.099 7.387c0.179 0.151 0.341 0.308 0.49 0.476l0.004 0.005v-12.094l-3.413-3.412c-0.36-0.363-0.859-0.588-1.41-0.588-0.001 0-0.002 0-0.002 0h-5.369c-0 0-0 0-0 0-0.521 0-0.996 0.2-1.351 0.527l0.001-0.001-5.504 5.040-1.602-1.238 4.725-4.327h-5.237c-0.552 0.001-1.051 0.226-1.412 0.588l-0 0-1.271 1.269-7.306-5.646c-0.168-0.132-0.382-0.211-0.615-0.211-0.32 0-0.605 0.15-0.788 0.385l-0.002 0.002-1.226 1.579c-0.131 0.168-0.21 0.381-0.21 0.614 0 0.32 0.15 0.605 0.384 0.788l0.002 0.002 36.771 28.42c0.168 0.132 0.382 0.211 0.614 0.211 0.32 0 0.605-0.15 0.788-0.385l0.002-0.002 1.228-1.579c0.131-0.168 0.21-0.381 0.21-0.613 0-0.32-0.15-0.605-0.384-0.788l-0.002-0.002z"></path>
</svg>
