<!-- Generated by IcoMoon.io -->
<svg version="1.1" xmlns="http://www.w3.org/2000/svg" width="36" height="32" viewBox="0 0 36 32">
<title>hand-holding-heart</title>
<path d="M34.894 20.85c-1.231-1.106-3.087-1.1-4.369-0.075l-3.85 3.081c-0.119 0.094-0.262 0.144-0.419 0.144h-2.6c0.288-0.6 0.406-1.294 0.3-2.019-0.25-1.744-1.85-2.981-3.613-2.981h-9.012c-1.3 0-2.563 0.419-3.6 1.2l-2.4 1.8h-4.831c-0.275 0-0.5 0.225-0.5 0.5v1c0 0.275 0.225 0.5 0.5 0.5h5.5l2.931-2.2c0.694-0.519 1.537-0.8 2.4-0.8h9.169c0.831 0 1.5 0.669 1.5 1.5s-0.669 1.5-1.5 1.5h-5.5c-0.55 0-1 0.45-1 1s0.45 1 1 1h11.262c0.606 0 1.194-0.206 1.669-0.581l3.85-3.075c0.481-0.381 1.25-0.475 1.775 0 0.631 0.569 0.581 1.531-0.056 2.038l-6.3 5.044c-0.475 0.381-1.063 0.581-1.669 0.581h-25.031c-0.275 0-0.5 0.225-0.5 0.5v1c0 0.275 0.225 0.5 0.5 0.5h25.031c1.063 0 2.087-0.363 2.913-1.025l6.306-5.044c0.763-0.613 1.219-1.525 1.25-2.5s-0.375-1.925-1.106-2.587zM17.206 15.656c0.438 0.462 1.15 0.462 1.594 0l6.806-7.131c1.975-2.075 1.863-5.506-0.35-7.419-2.206-1.913-5.087-1.063-6.556 0.481l-0.7 0.725-0.694-0.725c-1.438-1.506-4.331-2.413-6.556-0.481-2.206 1.912-2.325 5.35-0.35 7.419l6.806 7.131zM12.025 2.619c1.3-1.125 3.013-0.544 3.869 0.356l2.106 2.206 2.106-2.206c0.844-0.881 2.563-1.481 3.869-0.356 1.488 1.288 1.262 3.406 0.212 4.506l-6.188 6.488-6.188-6.487c-1.044-1.087-1.269-3.219 0.213-4.506z"></path>
</svg>
