<!-- Generated by IcoMoon.io -->
<svg version="1.1" xmlns="http://www.w3.org/2000/svg" width="28" height="32" viewBox="0 0 28 32">
<title>hand-point-down</title>
<path d="M11.6 32c2.405 0 4.4-2.004 4.4-4.4v-3.551c0.022-0.001 0.044-0.001 0.066-0.002 0.887-0.034 1.733-0.291 2.474-0.743 1.459 0.29 3.024-0.146 4.093-1.040 3.112 0.102 5.367-1.814 5.367-5.539v-1.452c0-3.382-2.143-5.653-2.627-7.819 0.386-0.365 0.627-0.881 0.627-1.454v-4c0-1.105-0.895-2-2-2h-14c-1.105 0-2 0.895-2 2v4c0 0.726 0.387 1.362 0.966 1.712-0.63 1.128-3.087 3.116-4.197 3.807-1.404 0.868-4.77 1.446-4.77 4.48 0 2.582 1.87 4.6 4.4 4.6 1.112 0 2.038-0.272 2.8-0.612v7.612c0 2.352 2.015 4.4 4.4 4.4zM24 2v4h-14v-4h14zM11.6 30c-1.275 0-2.4-1.144-2.4-2.4v-10.8c-1.181 0-2.4 1.8-4.8 1.8-1.4 0-2.4-1.1-2.4-2.6s2.23-1.794 3.825-2.781c1.465-0.912 4.535-3.354 5.204-5.219h12.417c0.6 2.48 2.554 4.502 2.554 7.273v1.452c0 2.763-1.513 3.895-4.181 3.45-0.546 0.996-2.317 1.647-3.656 0.881-1.243 1.32-3.162 1.213-4.162 0.337v6.206c0 1.294-1.106 2.4-2.4 2.4zM20.75 4c0-0.69 0.56-1.25 1.25-1.25s1.25 0.56 1.25 1.25-0.56 1.25-1.25 1.25-1.25-0.56-1.25-1.25z"></path>
</svg>
