<!-- Generated by IcoMoon.io -->
<svg version="1.1" xmlns="http://www.w3.org/2000/svg" width="36" height="32" viewBox="0 0 36 32">
<title>hand-holding-usd-solid</title>
<path d="M16.941 9.019l3.392 0.894c0.234 0.056 0.407 0.26 0.414 0.505l0 0.001c0 0.287-0.256 0.525-0.57 0.525h-2.225c-0.252-0.001-0.493-0.051-0.712-0.142l0.012 0.005c-0.328-0.137-0.705-0.106-0.956 0.125l-1.188 1.094c-0.054 0.048-0.101 0.102-0.139 0.163l-0.002 0.003c-0.066 0.106-0.104 0.234-0.104 0.372 0 0.259 0.138 0.485 0.344 0.61l0.003 0.002c0.618 0.377 1.35 0.633 2.134 0.717l0.023 0.002v1.106c0 0.55 0.489 1 1.086 1h1.086c0.597 0 1.086-0.45 1.086-1v-1.1c2.058-0.225 3.615-1.938 3.344-3.938-0.197-1.438-1.404-2.581-2.91-2.981l-3.392-0.894c-0.234-0.056-0.407-0.26-0.414-0.505l-0-0.001c0-0.287 0.256-0.525 0.57-0.525h2.225c0.253 0 0.494 0.051 0.714 0.142l-0.012-0.005c0.327 0.138 0.705 0.106 0.956-0.125l1.188-1.094c0.052-0.047 0.097-0.1 0.134-0.159l0.002-0.003c0.066-0.106 0.106-0.236 0.106-0.374 0-0.258-0.137-0.485-0.343-0.61l-0.003-0.002c-0.619-0.377-1.351-0.633-2.135-0.717l-0.023-0.002v-1.107c0-0.55-0.489-1-1.086-1h-1.086c-0.597 0-1.086 0.45-1.086 1v1.1c-2.056 0.225-3.616 1.938-3.344 3.938 0.196 1.438 1.407 2.581 2.911 2.981zM35.329 20.506c-0.737-0.669-1.888-0.625-2.663 0l-5.775 4.619c-0.675 0.545-1.543 0.875-2.489 0.875-0.004 0-0.008 0-0.012-0h-7.391c-0.552 0-1-0.448-1-1s0.448-1 1-1v0h4.893c0.994 0 1.919-0.681 2.078-1.663 0.018-0.1 0.029-0.216 0.029-0.334 0-0.003 0-0.005-0-0.008v0c-0.002-1.103-0.897-1.996-2-1.996 0 0 0 0 0 0h-10c-1.762 0-3.378 0.62-4.644 1.654l0.013-0.011-2.906 2.357h-3.462c-0.552 0-1 0.448-1 1v0 6c0 0.552 0.448 1 1 1v0h22.298c0.001 0 0.002 0 0.003 0 0.948 0 1.819-0.33 2.505-0.881l-0.008 0.006 9.452-7.563c0.459-0.37 0.751-0.932 0.751-1.562 0-0.593-0.258-1.126-0.669-1.493l-0.002-0.002z"></path>
</svg>
