<!-- Generated by IcoMoon.io -->
<svg version="1.1" xmlns="http://www.w3.org/2000/svg" width="32" height="32" viewBox="0 0 32 32">
<title>hand-spock-solid</title>
<path d="M31.931 9.079l-4.269 17.926c-0.704 2.886-3.267 4.994-6.323 4.994h-7.96c-2.256 0-4.307-0.879-5.828-2.314l0.004 0.004-6.769-6.37c-0.483-0.457-0.784-1.102-0.784-1.818 0-1.38 1.119-2.5 2.499-2.5 0.662 0 1.264 0.258 1.711 0.678l-0.001-0.001 3.787 3.564c0-1.793-0.267-3.524-0.762-5.155l0.033 0.125-2.668-9.005c-0.065-0.213-0.103-0.457-0.103-0.71 0-1.381 1.119-2.5 2.5-2.5 1.128 0 2.081 0.747 2.393 1.773l0.005 0.018 2.322 7.837c0.066 0.217 0.264 0.373 0.499 0.373 0.288 0 0.521-0.233 0.521-0.521 0-0.046-0.006-0.091-0.017-0.133l0.001 0.004-3.144-12.228c-0.050-0.187-0.079-0.402-0.079-0.623 0-1.381 1.119-2.5 2.5-2.5 1.159 0 2.134 0.789 2.417 1.859l0.004 0.017 3.506 13.635c0.075 0.283 0.329 0.489 0.631 0.489 0.313 0 0.575-0.221 0.637-0.516l0.001-0.004 2.355-11.482c0.243-1.148 1.248-1.997 2.452-1.997 0.27 0 0.529 0.043 0.773 0.122l-0.018-0.005c1.241 0.394 1.929 1.73 1.667 3.005l-2.115 10.31c-0.006 0.029-0.010 0.061-0.010 0.095 0 0.261 0.211 0.472 0.472 0.472 0.222 0 0.408-0.153 0.459-0.359l0.001-0.003 1.837-7.716c0.271-1.11 1.257-1.921 2.432-1.921 1.381 0 2.5 1.119 2.5 2.5 0 0.205-0.025 0.405-0.072 0.596l0.004-0.017z"></path>
</svg>
