<!-- Generated by IcoMoon.io -->
<svg version="1.1" xmlns="http://www.w3.org/2000/svg" width="36" height="32" viewBox="0 0 36 32">
<title>hand-holding-water-solid</title>
<path d="M18 16c3.313 0 6-2.631 6-5.875 0-2.5-3.569-7.544-5.2-9.725-0.4-0.531-1.2-0.531-1.6 0-1.631 2.181-5.2 7.225-5.2 9.725 0 3.244 2.688 5.875 6 5.875zM35.331 20.506c-0.737-0.669-1.888-0.625-2.663 0l-5.775 4.619c-0.706 0.569-1.587 0.875-2.5 0.875h-7.394c-0.55 0-1-0.45-1-1s0.45-1 1-1h4.894c0.994 0 1.919-0.681 2.081-1.663 0.206-1.25-0.756-2.337-1.975-2.337h-10c-1.688 0-3.319 0.581-4.631 1.644l-2.906 2.356h-3.462c-0.55 0-1 0.45-1 1v6c0 0.55 0.45 1 1 1h22.3c0.906 0 1.788-0.306 2.5-0.875l9.45-7.563c0.95-0.756 1.025-2.206 0.081-3.056z"></path>
</svg>
