<!-- Generated by IcoMoon.io -->
<svg version="1.1" xmlns="http://www.w3.org/2000/svg" width="40" height="32" viewBox="0 0 40 32">
<title>hands</title>
<path d="M13.75 15.55c-0.875-1.2-3.069-1.963-4.656-0.244-0.975 1.050-0.994 2.675-0.156 3.831l1.787 2.456c0.406 0.556-0.406 1.194-0.85 0.669l-3.875-4.581v-8.569c0-1.625-1.325-3.081-2.95-3.106-1.681-0.031-3.050 1.319-3.050 2.994v10.65c0 0.681 0.231 1.344 0.656 1.875l6.688 8.356c0.338 0.425 0.556 1.094 0.631 1.688 0.031 0.25 0.25 0.431 0.5 0.431h1c0.3 0 0.531-0.244 0.5-0.544-0.1-1-0.469-2.081-1.069-2.825l-6.688-8.356c-0.144-0.175-0.219-0.4-0.219-0.625v-10.65c0-1.313 2-1.35 2 0.044v9.356l4.037 4.844c2.306 2.762 6.050-0.169 4.425-2.65-0.012-0.019-0.025-0.031-0.031-0.050l-1.912-2.637c-0.294-0.406-0.262-1.044 0.219-1.394 0.438-0.319 1.069-0.238 1.4 0.219l2.65 3.65c0.794 1.056 1.219 2.337 1.219 3.625v7.5c0 0.275 0.225 0.5 0.5 0.5h1c0.275 0 0.5-0.225 0.5-0.5v-7.5c0-1.731-0.563-3.413-1.6-4.8l-2.656-3.656zM40 9c0-1.675-1.369-3.025-3.050-3-1.625 0.025-2.95 1.481-2.95 3.106v8.569l-3.875 4.581c-0.444 0.525-1.256-0.106-0.85-0.669l1.788-2.456c0.837-1.156 0.819-2.788-0.156-3.831-1.594-1.713-3.788-0.956-4.656 0.244l-2.65 3.65c-1.038 1.387-1.6 3.075-1.6 4.806v7.5c0 0.275 0.225 0.5 0.5 0.5h1c0.275 0 0.5-0.225 0.5-0.5v-7.5c0-1.288 0.425-2.569 1.219-3.625l2.65-3.65c0.331-0.456 0.956-0.544 1.4-0.219 0.488 0.35 0.519 0.988 0.219 1.394l-1.913 2.637c-0.012 0.019-0.025 0.031-0.031 0.050-1.631 2.481 2.119 5.419 4.425 2.65l4.037-4.844v-9.356c0-1.394 2-1.356 2-0.044v10.65c0 0.225-0.075 0.45-0.219 0.625l-6.688 8.356c-0.594 0.744-0.969 1.825-1.069 2.825-0.031 0.3 0.2 0.544 0.5 0.544h1c0.25 0 0.469-0.181 0.5-0.431 0.075-0.6 0.288-1.262 0.631-1.688l6.688-8.356c0.425-0.531 0.656-1.194 0.656-1.875l-0.006-10.644z"></path>
</svg>
