<!-- Generated by IcoMoon.io -->
<svg version="1.1" xmlns="http://www.w3.org/2000/svg" width="28" height="32" viewBox="0 0 28 32">
<title>hand-pointer-solid</title>
<path d="M28 15v6c0 0.193-0.022 0.385-0.066 0.573l-2 8.5c-0.266 1.129-1.273 1.927-2.434 1.927h-13c-0.828-0-1.562-0.403-2.017-1.023l-0.005-0.007-8-11c-0.812-1.117-0.565-2.68 0.551-3.492s2.68-0.565 3.492 0.551l1.978 2.72v-17.25c0-1.381 1.119-2.5 2.5-2.5s2.5 1.119 2.5 2.5v12.5h0.5v-2.5c0-1.381 1.119-2.5 2.5-2.5s2.5 1.119 2.5 2.5v2.5h0.5v-1.5c0-1.381 1.119-2.5 2.5-2.5s2.5 1.119 2.5 2.5v1.5h0.5c0-1.381 1.119-2.5 2.5-2.5s2.5 1.119 2.5 2.5zM12 20h-0.5v6h0.5v-6zM17.5 20h-0.5v6h0.5v-6zM23 20h-0.5v6h0.5v-6z"></path>
</svg>
