<!-- Generated by IcoMoon.io -->
<svg version="1.1" xmlns="http://www.w3.org/2000/svg" width="36" height="32" viewBox="0 0 36 32">
<title>hand-holding-medical-solid</title>
<path d="M9.992 10.989h4v4c0 0.552 0.448 1 1 1v0h4c0.552 0 1-0.448 1-1v0-4h4c0.552 0 1-0.448 1-1v0-4c0-0.552-0.448-1-1-1v0h-4v-4c0-0.552-0.448-1-1-1v0h-4c-0.552 0-1 0.448-1 1v0 4h-4c-0.552 0-1 0.448-1 1v0 4c0 0.552 0.448 1 1 1v0zM35.504 21.008c-0.459-0.621-1.189-1.019-2.011-1.019-0.559 0-1.075 0.184-1.491 0.494l0.007-0.005-7.479 5.511h-7.538c-0.552 0-1-0.448-1-1s0.448-1 1-1v0h4.89c1 0 1.922-0.679 2.086-1.663 0.018-0.1 0.028-0.215 0.028-0.332 0-1.107-0.897-2.004-2.004-2.004-0 0-0 0-0 0h-10c-0 0-0.001 0-0.002 0-1.761 0-3.378 0.619-4.644 1.651l0.013-0.011-2.906 2.359h-3.46c-0.551 0.004-0.996 0.449-1 1v6c0.004 0.551 0.449 0.996 1 1h21.688c1.451-0.004 2.79-0.478 3.874-1.279l-0.018 0.013 8.439-6.223c0.619-0.46 1.015-1.19 1.015-2.011 0-0.557-0.182-1.072-0.49-1.487l0.005 0.007z"></path>
</svg>
