<!-- Generated by IcoMoon.io -->
<svg version="1.1" xmlns="http://www.w3.org/2000/svg" width="36" height="32" viewBox="0 0 36 32">
<title>hand-holding-medical</title>
<path d="M10 12h3v3c0 0.552 0.448 1 1 1v0h6c0.552 0 1-0.448 1-1v0-3h3c0.552 0 1-0.448 1-1v0-6c0-0.552-0.448-1-1-1v0h-3v-3c0-0.552-0.448-1-1-1v0h-6c-0.552 0-1 0.448-1 1v0 3h-3c-0.552 0-1 0.448-1 1v0 6c0 0.552 0.448 1 1 1v0zM11 6h4v-4h4v4h4v4h-4v4h-4v-4h-4zM34.892 20.844c-0.58-0.519-1.349-0.837-2.193-0.837-0.002 0-0.005 0-0.007 0h0c-0.822 0.001-1.576 0.288-2.168 0.768l0.006-0.005-3.849 3.081c-0.113 0.090-0.257 0.144-0.415 0.144-0.002 0-0.003 0-0.005-0h-2.6c0.214-0.439 0.34-0.954 0.34-1.499 0-0.183-0.014-0.363-0.041-0.539l0.003 0.020c-0.25-1.744-1.851-2.981-3.613-2.981h-9.018c-0.002 0-0.005 0-0.008 0-1.355 0-2.604 0.451-3.607 1.211l0.015-0.011-2.401 1.8h-4.831c-0.276 0-0.5 0.224-0.5 0.5v0 1c0 0.276 0.224 0.5 0.5 0.5v0h5.5l2.931-2.201c0.66-0.498 1.495-0.798 2.399-0.799h9.17c0.828 0 1.5 0.672 1.5 1.5s-0.672 1.5-1.5 1.5v0h-5.5c-0.552 0-1 0.448-1 1s0.448 1 1 1v0h11.261c0.633-0.001 1.215-0.22 1.675-0.585l-0.006 0.004 3.849-3.075c0.247-0.201 0.565-0.323 0.911-0.326h0.001c0.003-0 0.006-0 0.009-0 0.328 0 0.628 0.124 0.855 0.327l-0.001-0.001c0.276 0.245 0.449 0.6 0.449 0.995 0 0.421-0.196 0.796-0.501 1.039l-0.003 0.002-6.301 5.044c-0.45 0.362-1.028 0.581-1.658 0.581-0.004 0-0.008 0-0.012-0h-25.029c-0.276 0-0.5 0.224-0.5 0.5v0 1c0 0.276 0.224 0.5 0.5 0.5v0h25.030c0 0 0.001 0 0.002 0 1.106 0 2.121-0.386 2.919-1.031l-0.009 0.007 6.308-5.044c0.766-0.617 1.252-1.554 1.252-2.605 0-0.985-0.426-1.87-1.105-2.48l-0.003-0.003z"></path>
</svg>
