<!-- Generated by IcoMoon.io -->
<svg version="1.1" xmlns="http://www.w3.org/2000/svg" width="28" height="32" viewBox="0 0 28 32">
<title>hand-paper-solid</title>
<path d="M25.549 8c-1.402-0.027-2.549 1.147-2.549 2.549v5.451h-0.5v-11.013c0-1.402-1.147-2.576-2.549-2.549-1.358 0.026-2.451 1.135-2.451 2.5v11.063h-0.5v-13.451c0-1.402-1.147-2.576-2.549-2.549-1.358 0.026-2.451 1.135-2.451 2.5v13.5h-0.5v-10.951c0-1.402-1.147-2.576-2.549-2.549-1.358 0.026-2.451 1.135-2.451 2.5v14.749l-1.978-2.72c-0.812-1.117-2.376-1.364-3.492-0.551s-1.363 2.376-0.551 3.492l7.85 10.794c0.552 0.752 1.433 1.236 2.426 1.236h12.349c1.392 0 2.601-0.958 2.92-2.313l1.657-7.041c0.203-0.826 0.319-1.773 0.319-2.748v0-9.397c0-1.364-1.093-2.474-2.451-2.5z"></path>
</svg>
