<!-- Generated by IcoMoon.io -->
<svg version="1.1" xmlns="http://www.w3.org/2000/svg" width="32" height="32" viewBox="0 0 32 32">
<title>hand-rock</title>
<path d="M25.753 5.194c-1.123-2.548-4.331-3.309-6.476-1.627-1.766-2.177-5.056-2.044-6.68 0.139-2.745-2.020-6.707-0.067-6.707 3.365v0.63c-2.728-1.181-5.891 0.79-5.891 3.834v3.708c0 1.961 0.852 3.832 2.337 5.132l6.325 5.539c0.529 0.464 0.401 0.947 0.401 2.585 0 0.828 0.672 1.5 1.5 1.5h16.313c0.828 0 1.5-0.672 1.5-1.5 0-1.549-0.071-2.11 0.305-2.992l2.773-6.488c0.363-0.849 0.547-1.747 0.547-2.668v-7.451c0-3.231-3.472-5.22-6.247-3.708zM9.979 24.41l-6.325-5.539c-1.051-0.921-1.654-2.243-1.654-3.628v-3.708c0-1.22 1.020-2.203 2.257-2.178 1.202 0.020 2.181 1.017 2.181 2.222v2.684c0 0.144 0.062 0.281 0.171 0.376l0.453 0.397c0.088 0.077 0.203 0.124 0.329 0.124 0.276 0 0.5-0.224 0.5-0.5v0-7.589c0-2.828 4.438-2.963 4.438 0.044v1.742c0 0.276 0.224 0.5 0.5 0.5v0h0.453c0.276 0 0.5-0.224 0.5-0.5v0-2.679c0-2.827 4.438-2.964 4.438 0.044v2.634c0 0.276 0.224 0.5 0.5 0.5v0h0.453c0.276 0 0.5-0.224 0.5-0.5v0-2.009c0-2.875 4.438-2.906 4.438 0.044v1.965c0 0.276 0.224 0.5 0.5 0.5v0h0.453c0.276 0 0.5-0.224 0.5-0.5v0c0-2.828 4.438-2.964 4.438 0.044v7.451c0 0.001 0 0.003 0 0.004 0 0.679-0.142 1.325-0.398 1.909l0.012-0.031-2.773 6.488c-0.536 1.255-0.466 2.148-0.466 3.278h-15.313c0-1.193 0.179-2.484-1.083-3.59z"></path>
</svg>
