<!-- Generated by IcoMoon.io -->
<svg version="1.1" xmlns="http://www.w3.org/2000/svg" width="28" height="32" viewBox="0 0 28 32">
<title>hand-point-up</title>
<path d="M7.2 4.4v7.612c-0.762-0.34-1.688-0.612-2.8-0.612-2.53-0-4.4 2.018-4.4 4.6 0 3.034 3.366 3.613 4.77 4.48 1.11 0.691 3.567 2.679 4.197 3.807-0.579 0.35-0.966 0.986-0.966 1.712v4c0 1.105 0.895 2 2 2h14c1.105 0 2-0.895 2-2v-4c0-0.573-0.241-1.089-0.627-1.454 0.485-2.166 2.627-4.437 2.627-7.819v-1.452c0-3.725-2.255-5.641-5.367-5.539-1.069-0.894-2.635-1.33-4.093-1.040-0.741-0.452-1.587-0.709-2.474-0.743-0.012-0.001-0.035-0.001-0.058-0.002l-0.008-0v-3.551c0-2.396-1.995-4.4-4.4-4.4-2.385 0-4.4 2.048-4.4 4.4zM10 30v-4h14v4h-14zM14 4.4v6.206c1-0.875 2.92-0.983 4.163 0.338 1.339-0.765 3.111-0.115 3.656 0.881 2.668-0.445 4.181 0.687 4.181 3.45v1.452c0 2.771-1.954 4.793-2.554 7.273h-12.417c-0.669-1.865-3.739-4.306-5.204-5.219-1.595-0.987-3.825-1.281-3.825-2.781s1-2.6 2.4-2.6c2.4 0 3.619 1.8 4.8 1.8v-10.8c0-1.256 1.125-2.4 2.4-2.4 1.294 0 2.4 1.106 2.4 2.4zM22 26.75c0.69 0 1.25 0.56 1.25 1.25s-0.56 1.25-1.25 1.25-1.25-0.56-1.25-1.25 0.56-1.25 1.25-1.25z"></path>
</svg>
