<!-- Generated by IcoMoon.io -->
<svg version="1.1" xmlns="http://www.w3.org/2000/svg" width="32" height="32" viewBox="0 0 32 32">
<title>hand-point-left-solid</title>
<path d="M2.8 9.739h9.327c-0.365-0.515-0.661-1.035-0.885-1.557-0.852-1.988 0.619-4.183 2.757-4.182 1.163 0 2.013 0.681 2.5 1.818 0.758 1.768 4.916 4.021 6.721 4.833 1.116 0.497 1.778 1.592 1.779 2.74l0 0v10.72c0 0.738-0.537 1.369-1.267 1.481-2.927 0.453-3.86 2.405-7.733 2.395-0.17-0-0.828 0.012-1 0.012-3.166 0-5.098-1.383-4.537-4.454-1.162-0.581-1.921-2.468-1.028-3.895-1.54-1.324-1.415-3.369-0.394-4.434h-6.241c-1.509 0-2.8-1.263-2.8-2.739 0-1.455 1.334-2.739 2.8-2.739zM27.5 11h3c0.828 0 1.5 0.672 1.5 1.5v12c0 0.828-0.672 1.5-1.5 1.5h-3c-0.828 0-1.5-0.672-1.5-1.5v-12c0-0.828 0.672-1.5 1.5-1.5zM29 24.25c0.69 0 1.25-0.56 1.25-1.25s-0.56-1.25-1.25-1.25-1.25 0.56-1.25 1.25 0.56 1.25 1.25 1.25z"></path>
</svg>
