<!-- Generated by IcoMoon.io -->
<svg version="1.1" xmlns="http://www.w3.org/2000/svg" width="28" height="32" viewBox="0 0 28 32">
<title>hand-peace</title>
<path d="M22.728 12.57c-0.817-1.726-2.774-2.553-4.548-1.956v-6.395c0-2.326-1.874-4.219-4.178-4.219s-4.178 1.893-4.178 4.219l0.178 6.781-1.928-5.598c-0.844-2.18-3.28-3.244-5.427-2.388-2.144 0.855-3.195 3.294-2.357 5.459l3.779 9.763c-1.823 1.48-3.083 3.222-1.793 5.514l3.571 6.344c0.662 1.175 1.905 1.906 3.245 1.906h13.392c0.841 0 1.667-0.291 2.326-0.82 0.653-0.525 1.118-1.267 1.308-2.087l1.786-7.703c0.062-0.258 0.098-0.553 0.098-0.858v-4.531c0-2.742-2.821-4.555-5.272-3.43zM4.44 20.51l1.735-1.409c0.113-0.092 0.185-0.232 0.185-0.388 0-0.065-0.012-0.127-0.035-0.184l0.001 0.003-4.173-10.781c-1.063-2.746 2.999-4.351 4.053-1.627l3.892 10.057c0.074 0.189 0.255 0.32 0.466 0.32 0 0 0 0 0 0h0.757c0.276 0 0.5-0.224 0.5-0.5v0-11.781c0-2.933 4.357-2.939 4.357 0v11.781c0 0.276 0.224 0.5 0.5 0.5v0h0.446c0.276 0 0.5-0.224 0.5-0.5v0-1.813c0-2.334 3.464-2.338 3.464 0v1.813c0 0.276 0.224 0.5 0.5 0.5v0h0.446c0.276 0 0.5-0.224 0.5-0.5v0c0-2.334 3.464-2.338 3.464 0v4.531c0 0.137-0.016 0.273-0.046 0.406l-1.786 7.703c-0.186 0.801-0.879 1.36-1.686 1.36h-13.392c-0.619 0-1.194-0.34-1.502-0.887l-3.571-6.344c-0.429-0.762-0.251-1.712 0.423-2.26z"></path>
</svg>
