<!-- Generated by IcoMoon.io -->
<svg version="1.1" xmlns="http://www.w3.org/2000/svg" width="36" height="32" viewBox="0 0 36 32">
<title>hand-lizard</title>
<path d="M34.889 18.621l-9.496-14.783c-0.739-1.151-1.997-1.838-3.366-1.838h-19.028c-1.654 0-3 1.346-3 3v0.5c0 2.481 2.019 4.5 4.5 4.5h13.506l-1.449 3.683c-0.074 0.187-0.254 0.317-0.463 0.317-0.001 0-0.001 0-0.002 0h-7.092c-2.757 0-5 2.243-5 5 0 1.654 1.346 3 3 3h7.865c0 0 0 0 0 0 0.389 0 0.752 0.111 1.059 0.303l-0.008-0.005 5.846 3.612c0.143 0.089 0.237 0.245 0.237 0.424 0 0.001 0 0.001 0 0.002v-0 3.664h14v-7.596c0-1.344-0.384-2.652-1.111-3.783zM34 28h-10v-1.664c0-0.873-0.443-1.668-1.186-2.127l-5.846-3.612c-0.598-0.375-1.324-0.597-2.102-0.597-0 0-0.001 0-0.001 0h-7.865c-0.551 0-1-0.449-1-1 0-1.654 1.346-3 3-3h7.092c1.034 0 1.948-0.622 2.326-1.585l1.584-4.025c0.452-1.148-0.396-2.391-1.628-2.391h-13.873c-1.378 0-2.5-1.122-2.5-2.5v-0.5c0-0.551 0.449-1 1-1h19.028c0.684 0 1.313 0.344 1.683 0.919l9.496 14.783c0.497 0.763 0.793 1.697 0.793 2.7 0 0.001 0 0.002 0 0.003v-0 5.596z"></path>
</svg>
