<!-- Generated by IcoMoon.io -->
<svg version="1.1" xmlns="http://www.w3.org/2000/svg" width="36" height="32" viewBox="0 0 36 32">
<title>hand-lizard-solid</title>
<path d="M24 30h12v-7.264c0 0 0 0 0-0 0-1.188-0.345-2.296-0.941-3.228l0.014 0.024-10.19-16.134c-0.54-0.845-1.474-1.398-2.536-1.398h-20.846c-0.828 0-1.5 0.672-1.5 1.5v1c0 1.933 1.567 3.5 3.5 3.5h14.374c0.803 0 1.347 0.817 1.038 1.558l-1.338 3.212c-0.309 0.729-1.019 1.231-1.846 1.231h-7.728c-2.209 0-4 1.791-4 4v0.5c0 0.828 0.672 1.5 1.5 1.5h9.213c0 0 0 0 0 0 0.596 0 1.151 0.174 1.618 0.473l-0.012-0.007 6.984 4.426c0.422 0.27 0.697 0.736 0.697 1.267v0 3.841z"></path>
</svg>
