<!-- Generated by IcoMoon.io -->
<svg version="1.1" xmlns="http://www.w3.org/2000/svg" width="40" height="32" viewBox="0 0 40 32">
<title>hands-usd-solid</title>
<path d="M24.581 9.963c-0.181-1.438-1.294-2.581-2.681-2.981l-3.131-0.894c-0.225-0.063-0.381-0.275-0.381-0.506 0-0.287 0.238-0.525 0.525-0.525h2.050c0.225 0 0.444 0.050 0.644 0.138 0.3 0.138 0.65 0.106 0.881-0.125l1.094-1.094c0.331-0.331 0.294-0.894-0.094-1.15-0.594-0.394-1.275-0.631-1.988-0.719v-1.106c0-0.55-0.45-1-1-1h-1c-0.55 0-1 0.45-1 1v1.1c-1.894 0.225-3.338 1.938-3.081 3.938 0.181 1.438 1.294 2.581 2.681 2.981l3.131 0.894c0.225 0.063 0.381 0.275 0.381 0.506 0 0.287-0.238 0.525-0.525 0.525h-2.050c-0.225 0-0.444-0.050-0.644-0.137-0.3-0.137-0.65-0.106-0.881 0.125l-1.094 1.094c-0.331 0.331-0.294 0.894 0.094 1.15 0.594 0.394 1.275 0.631 1.988 0.719v1.106c0 0.55 0.45 1 1 1h1c0.55 0 1-0.45 1-1v-1.1c1.894-0.225 3.337-1.931 3.081-3.938zM12.8 14.4c-0.662-0.881-1.919-1.063-2.8-0.4s-1.063 1.919-0.4 2.8l2.381 3.175c0.3 0.4 0.256 0.956-0.094 1.306l-0.8 0.8c-0.419 0.419-1.1 0.387-1.475-0.069l-5.612-6.738v-9.275c0-1.106-0.894-2-2-2s-2 0.894-2 2v13.65c0 0.681 0.231 1.344 0.656 1.875l6.506 8.394c0.313 0.406 0.525 0.869 0.65 1.356 0.112 0.431 0.506 0.725 0.956 0.725h8.231c0.55 0 1-0.45 1-1v-7c0-1.731-0.563-3.413-1.6-4.8l-3.6-4.8zM38 4c-1.106 0-2 0.894-2 2v9.275l-5.613 6.737c-0.375 0.45-1.063 0.481-1.475 0.069l-0.8-0.8c-0.35-0.35-0.394-0.906-0.094-1.306l2.381-3.175c0.663-0.881 0.481-2.137-0.4-2.8s-2.137-0.481-2.8 0.4l-3.6 4.8c-1.038 1.387-1.6 3.069-1.6 4.8v7c0 0.55 0.45 1 1 1h8.231c0.444 0 0.844-0.294 0.956-0.725 0.125-0.488 0.337-0.95 0.65-1.356l6.506-8.394c0.425-0.531 0.656-1.194 0.656-1.875v-13.65c0-1.106-0.894-2-2-2z"></path>
</svg>
