<!-- Generated by IcoMoon.io -->
<svg version="1.1" xmlns="http://www.w3.org/2000/svg" width="40" height="32" viewBox="0 0 40 32">
<title>hands-helping</title>
<path d="M39.931 13.106l-0.5-0.869c-0.138-0.238-0.444-0.319-0.681-0.181l-6.75 3.938v-0.994c0-1.656-1.344-3-3-3h-9v3.888c0 1-0.681 1.925-1.663 2.081-1.25 0.206-2.338-0.762-2.338-1.975v-5.894c0-0.863 0.444-1.662 1.175-2.119l2.087-1.306c0.712-0.444 1.538-0.681 2.381-0.681h6.45l7.406-4.188c0.237-0.137 0.325-0.444 0.188-0.681l-0.5-0.875c-0.138-0.237-0.444-0.325-0.681-0.188l-6.938 3.937h-5.919c-1.219 0-2.413 0.344-3.444 0.987l-2.094 1.306c-1.094 0.688-1.794 1.787-2.012 3.031l-3.906 2.313c-1.35 0.813-2.194 2.294-2.194 3.869v2.412l-7.75 4.4c-0.237 0.137-0.325 0.444-0.188 0.681l0.5 0.869c0.137 0.238 0.444 0.325 0.681 0.188l8.756-4.975v-3.575c0-0.875 0.469-1.7 1.213-2.15l2.787-1.65v4.119c0 2.088 1.519 3.956 3.6 4.156 2.381 0.231 4.4-1.644 4.4-3.981v-2h7c0.55 0 1 0.45 1 1v2c0 0.55-0.45 1-1 1h-1.5v2.25c0 1.238-1 2.238-2.238 2.238h-1.006v1c0 1.387-1.125 2.512-2.512 2.512h-6.838l-7.225 4.206c-0.237 0.137-0.319 0.444-0.181 0.681l0.5 0.863c0.137 0.238 0.444 0.319 0.681 0.181l6.762-3.931h6.3c2.175 0 4-1.55 4.425-3.606 1.9-0.419 3.331-2.119 3.331-4.144v-0.294c0.85-0.144 1.538-0.663 1.988-1.356l8.262-4.813c0.237-0.137 0.319-0.444 0.181-0.681z"></path>
</svg>
