<!-- Generated by IcoMoon.io -->
<svg version="1.1" xmlns="http://www.w3.org/2000/svg" width="36" height="32" viewBox="0 0 36 32">
<title>hands-wash-solid</title>
<path d="M31 14c1.657 0 3-1.343 3-3s-1.343-3-3-3c-1.657 0-3 1.343-3 3v0c0 1.657 1.343 3 3 3v0zM19.467 11.153c0.308-0.097 0.663-0.153 1.031-0.153 0.001 0 0.001 0 0.002 0h-0c0.427 0.004 0.835 0.083 1.212 0.226l-0.024-0.008 0.959-3.038c0.045-0.136 0.071-0.292 0.071-0.455 0-0.773-0.585-1.409-1.336-1.491l-0.007-0.001c-0.721-0.084-1.388 0.402-1.607 1.094l-1.306 4.136zM5.853 24.146c0.050-0.012 0.096-0.034 0.147-0.044v-1.606c0.004-4.288 2.774-7.927 6.623-9.23l0.069-0.020 4.606-1.422 2.135-6.758c0.044-0.135 0.070-0.291 0.070-0.453 0-0.772-0.584-1.408-1.334-1.491l-0.007-0.001c-0.721-0.084-1.389 0.403-1.607 1.095l-2.091 6.651c-0.066 0.204-0.255 0.349-0.477 0.349-0.276 0-0.5-0.224-0.5-0.5 0-0.054 0.009-0.106 0.024-0.154l-0.001 0.004 2.711-8.612c0.044-0.135 0.070-0.291 0.070-0.453 0-0.772-0.584-1.408-1.334-1.491l-0.007-0.001c-0.721-0.084-1.387 0.403-1.607 1.094l-2.996 9.482c-0.066 0.204-0.254 0.349-0.477 0.349-0.276 0-0.5-0.224-0.5-0.5 0-0.054 0.008-0.106 0.024-0.154l-0.001 0.004 2.41-7.625c0.044-0.135 0.070-0.291 0.070-0.453 0-0.772-0.584-1.408-1.334-1.491l-0.007-0.001c-0.721-0.090-1.388 0.399-1.607 1.091l-3.75 11.866-0.129-3.128c0-0.003 0-0.006 0-0.009 0-0.825-0.667-1.495-1.491-1.5h-0c-0.827-0.003-1.545 0.659-1.556 1.491v7.046c0.043 2.798 1.565 5.23 3.817 6.555l0.036 0.020zM32.444 21h-9.944c-0.276 0-0.5-0.224-0.5-0.5s0.224-0.5 0.5-0.5v0h8c0 0 0.001 0 0.001 0 0.828 0 1.5-0.672 1.5-1.5 0-0.105-0.011-0.208-0.032-0.307l0.002 0.010c-0.137-0.712-0.802-1.203-1.527-1.203h-12.444l2.943-1.066c0.618-0.195 1.058-0.763 1.058-1.434 0-0.829-0.672-1.501-1.501-1.501-0.158 0-0.311 0.024-0.454 0.070l0.011-0.003-6.732 2.078c-3.118 1.048-5.324 3.944-5.324 7.355 0 0 0 0 0 0v-0 1.603c2.299 0.475 4.002 2.483 4.002 4.888 0 0.686-0.138 1.339-0.389 1.934l0.012-0.033c1.102 0.69 2.44 1.102 3.873 1.108h13.002c0 0 0.001 0 0.001 0 0.828 0 1.5-0.672 1.5-1.5 0-0.105-0.011-0.208-0.032-0.307l0.002 0.010c-0.137-0.712-0.802-1.203-1.527-1.203h-5.944c-0.276 0-0.5-0.224-0.5-0.5s0.224-0.5 0.5-0.5v0h8c0 0 0.001 0 0.001 0 0.828 0 1.5-0.672 1.5-1.5 0-0.105-0.011-0.208-0.032-0.307l0.002 0.010c-0.137-0.712-0.802-1.203-1.527-1.203h-7.944c-0.276 0-0.5-0.224-0.5-0.5s0.224-0.5 0.5-0.5v0h10c0 0 0.001 0 0.001 0 0.828 0 1.5-0.672 1.5-1.5 0-0.105-0.011-0.208-0.032-0.307l0.002 0.010c-0.137-0.712-0.802-1.203-1.528-1.203zM26 4c1.105 0 2-0.895 2-2s-0.895-2-2-2c-1.105 0-2 0.895-2 2v0c0 1.105 0.895 2 2 2v0zM7 26c-1.657 0-3 1.343-3 3s1.343 3 3 3c1.657 0 3-1.343 3-3v0c0-1.657-1.343-3-3-3v0z"></path>
</svg>
