<!-- Generated by IcoMoon.io -->
<svg version="1.1" xmlns="http://www.w3.org/2000/svg" width="28" height="32" viewBox="0 0 28 32">
<title>hand-pointer</title>
<path d="M22.534 11.76c-1.091-1.781-3.393-2.316-5.134-1.231-0.998-1.302-2.667-1.767-4.132-1.274v-5.489c0-2.076-1.674-3.766-3.732-3.766s-3.732 1.689-3.732 3.766v11.369c-1.271-0.855-2.974-0.868-4.274 0.092-1.66 1.225-2.023 3.568-0.821 5.245l7.142 9.969c0.7 0.976 1.83 1.559 3.025 1.559h11.607c1.732 0 3.239-1.206 3.634-2.908l1.786-7.703c0.062-0.258 0.098-0.553 0.098-0.858v0-5.438c0-2.835-3.001-4.645-5.466-3.334zM5.131 17.224l1.766 2.465c0 0.276 0.224 0.5 0.5 0.5s0.5-0.224 0.5-0.5c0-0.109-0.035-0.21-0.094-0.293l0.001 0.001v-15.632c0-2.334 3.464-2.338 3.464 0v11.328c0 0.276 0.224 0.5 0.5 0.5v0h0.447c0.276 0 0.5-0.224 0.5-0.5v0-2.266c0-2.334 3.464-2.338 3.464 0v2.266c0 0.276 0.224 0.5 0.5 0.5v0h0.446c0.276 0 0.5-0.224 0.5-0.5v0-1.359c0-2.334 3.464-2.338 3.464 0v1.359c0 0.276 0.224 0.5 0.5 0.5v0h0.446c0.276 0 0.5-0.224 0.5-0.5v0c0-2.334 3.464-2.338 3.464 0v5.438c0 0.137-0.016 0.273-0.046 0.406l-1.786 7.703c-0.186 0.8-0.879 1.36-1.686 1.36h-11.607c-0.551 0-1.074-0.271-1.399-0.724l-7.143-9.969c-1.388-1.938 1.488-3.911 2.798-2.083zM11.268 25.063v-5.438c0-0.276 0.224-0.5 0.5-0.5v0h0.447c0.276 0 0.5 0.224 0.5 0.5v0 5.438c0 0.276-0.224 0.5-0.5 0.5v0h-0.447c-0.276 0-0.5-0.224-0.5-0.5v0zM16.179 25.063v-5.438c0-0.276 0.224-0.5 0.5-0.5v0h0.446c0.276 0 0.5 0.224 0.5 0.5v0 5.438c0 0.276-0.224 0.5-0.5 0.5v0h-0.446c-0.276 0-0.5-0.224-0.5-0.5v0zM21.089 25.063v-5.438c0-0.276 0.224-0.5 0.5-0.5v0h0.446c0.276 0 0.5 0.224 0.5 0.5v0 5.438c0 0.276-0.224 0.5-0.5 0.5v0h-0.446c-0.276 0-0.5-0.224-0.5-0.5v0z"></path>
</svg>
