<!-- Generated by IcoMoon.io -->
<svg version="1.1" xmlns="http://www.w3.org/2000/svg" width="36" height="32" viewBox="0 0 36 32">
<title>hand-holding-seedling-solid</title>
<path d="M30 0h-4c-2.544 0-4.844 0.981-6.613 2.55 1.587 2 2.556 4.513 2.6 7.25 4.569-0.925 8.012-4.956 8.012-9.8zM16 10v7c0 0.55 0.45 1 1 1h2c0.55 0 1-0.45 1-1v-7c0-5.525-4.475-10-10-10h-4c0 5.525 4.475 10 10 10zM35.331 20.506c-0.737-0.669-1.888-0.625-2.663 0l-5.775 4.619c-0.706 0.569-1.587 0.875-2.5 0.875h-7.394c-0.55 0-1-0.45-1-1s0.45-1 1-1h4.894c0.994 0 1.919-0.681 2.081-1.663 0.206-1.25-0.756-2.337-1.975-2.337h-10c-1.688 0-3.319 0.581-4.631 1.644l-2.906 2.356h-3.462c-0.55 0-1 0.45-1 1v6c0 0.55 0.45 1 1 1h22.3c0.906 0 1.788-0.306 2.5-0.875l9.45-7.563c0.95-0.756 1.025-2.206 0.081-3.056z"></path>
</svg>
