<!-- Generated by IcoMoon.io -->
<svg version="1.1" xmlns="http://www.w3.org/2000/svg" width="40" height="32" viewBox="0 0 40 32">
<title>handshake-solid</title>
<path d="M27.169 4h-5.369c-0.5 0-0.981 0.188-1.35 0.525l-6.144 5.625c-0.006 0.006-0.012 0.019-0.019 0.025-1.037 0.975-1.019 2.531-0.131 3.5 0.794 0.869 2.463 1.1 3.506 0.169 0.006-0.006 0.019-0.006 0.025-0.012l4.994-4.575c0.406-0.369 1.044-0.344 1.413 0.063 0.375 0.406 0.344 1.037-0.063 1.412l-1.631 1.494 9.1 7.387c0.181 0.15 0.344 0.313 0.494 0.481v-12.094l-3.413-3.412c-0.369-0.375-0.881-0.588-1.413-0.588zM34 8.012v13.994c0 1.106 0.894 2 2 2h4v-15.994h-6zM37 22.006c-0.55 0-1-0.45-1-1s0.45-1 1-1 1 0.45 1 1-0.45 1-1 1zM0 24h4c1.106 0 2-0.894 2-2v-13.988h-6v15.988zM3 20.006c0.55 0 1 0.45 1 1s-0.45 1-1 1-1-0.45-1-1c0-0.556 0.45-1 1-1zM30.244 21.169l-9.331-7.575-1.875 1.719c-1.856 1.694-4.7 1.531-6.356-0.275-1.681-1.838-1.55-4.681 0.275-6.356l5.112-4.681h-5.238c-0.531 0-1.037 0.213-1.412 0.588l-3.419 3.412v13.994h1.144l5.656 5.119c1.712 1.394 4.231 1.131 5.625-0.581l0.012-0.012 1.119 0.969c0.994 0.813 2.462 0.656 3.269-0.337l1.962-2.413 0.337 0.275c0.856 0.694 2.119 0.569 2.813-0.294l0.594-0.731c0.7-0.863 0.569-2.119-0.288-2.819z"></path>
</svg>
