<!-- Generated by IcoMoon.io -->
<svg version="1.1" xmlns="http://www.w3.org/2000/svg" width="32" height="32" viewBox="0 0 32 32">
<title>hand-spock</title>
<path d="M31.44 7.23c-0.52-0.84-1.341-1.45-2.309-1.684l-0.026-0.005c-0.263-0.065-0.565-0.103-0.876-0.103-0.441 0-0.864 0.075-1.257 0.214l0.026-0.008c0.005-1.656-1.021-3.15-2.61-3.654-2.876-0.912-4.555 1.499-4.829 2.832l-1.343 6.548-2.196-8.542c-0.431-1.64-1.9-2.829-3.647-2.829-2.080 0-3.765 1.686-3.765 3.765 0 0.334 0.044 0.658 0.125 0.967l-0.006-0.026 0.234 0.91c-0.337-0.11-0.724-0.173-1.127-0.173-2.076 0-3.759 1.683-3.759 3.759 0 0.383 0.057 0.752 0.164 1.1l-0.007-0.027c2.579 8.705 2.432 8.206 2.456 8.294l-0.343-0.323c-0.672-0.634-1.581-1.023-2.58-1.023-2.079 0-3.765 1.686-3.765 3.765 0 1.080 0.455 2.054 1.183 2.74l0.002 0.002 6.134 5.773c1.638 1.549 3.854 2.501 6.292 2.501 0.005 0 0.009 0 0.014 0h7.213c0.006 0 0.013 0 0.020 0 3.469 0 6.378-2.399 7.159-5.628l0.010-0.050 3.868-16.246c0.066-0.263 0.104-0.566 0.104-0.877 0-0.729-0.209-1.409-0.569-1.984l0.009 0.016zM29.95 9.612l-3.868 16.246c-0.577 2.392-2.699 4.142-5.229 4.142-0.005 0-0.010 0-0.015-0h-7.213c-0.003 0-0.007 0-0.011 0-1.908 0-3.643-0.745-4.928-1.96l0.003 0.003-6.134-5.773c-1.7-1.6 0.72-4.176 2.419-2.571l3.432 3.23c0.34 0.32 0.843 0.044 0.843-0.364 0-0 0-0.001 0-0.002 0-1.675-0.249-3.292-0.712-4.815l0.031 0.117-2.418-8.16c-0.667-2.255 2.723-3.242 3.386-1.003l2.104 7.102c0.362 1.223 2.184 0.692 1.873-0.518l-2.849-11.081c-0.585-2.279 2.837-3.144 3.419-0.88l3.177 12.357c0.288 1.119 1.893 1.071 2.124-0.053l2.134-10.405c0.466-2.268 3.945-1.656 3.437 0.818l-1.917 9.344c-0.24 1.171 1.529 1.588 1.811 0.401l1.665-6.993c0.551-2.309 3.971-1.431 3.434 0.818z"></path>
</svg>
