<!-- Generated by IcoMoon.io -->
<svg version="1.1" xmlns="http://www.w3.org/2000/svg" width="40" height="32" viewBox="0 0 40 32">
<title>handshake-alt</title>
<path d="M14.9 11.037l5.194-4.763c0.188-0.169 0.425-0.263 0.675-0.263h6.313c0.269 0 0.519 0.106 0.712 0.3l3.794 3.694h7.913c0.275 0 0.5-0.225 0.5-0.5v-1c0-0.275-0.225-0.5-0.5-0.5h-7.094l-3.2-3.119c-0.569-0.569-1.319-0.881-2.119-0.881h-6.313c-0.65 0-1.256 0.244-1.769 0.625-0.525-0.406-1.169-0.644-1.831-0.644h-4.344c-0.794 0-1.556 0.319-2.125 0.881l-3.119 3.131h-7.088c-0.275 0-0.5 0.225-0.5 0.5v1c0 0.275 0.225 0.5 0.5 0.5h7.912l3.706-3.706c0.188-0.188 0.444-0.294 0.706-0.294h4.344c0.056 0.138 0.019 0.044 0.069 0.181l-3.688 3.381c-1.762 1.619-1.85 4.325-0.262 6.056 0.894 0.975 3.663 2.456 6.056 0.262l1.425-1.306 7.85 6.369c0.425 0.344 0.494 0.981 0.144 1.406l-0.594 0.731c-0.337 0.413-0.962 0.506-1.406 0.144l-1.113-0.9-2.594 3.188c-0.469 0.581-1.313 0.637-1.837 0.212l-1.913-1.631-0.65 0.8c-1.044 1.281-2.938 1.481-4.162 0.494l-5.619-5.381h-8.375c-0.275 0-0.5 0.225-0.5 0.5v1c0 0.275 0.225 0.5 0.5 0.5h7.575l5.094 4.875c1.863 1.506 4.488 1.462 6.313-0.012l0.45 0.387c0.6 0.488 1.331 0.744 2.094 0.744 1 0 1.944-0.438 2.587-1.225l1.369-1.681c1.025 0.556 2.681 0.563 3.75-0.75l0.594-0.731c0.387-0.475 0.6-1.038 0.656-1.606h8.519c0.275 0 0.5-0.225 0.5-0.5v-1c0-0.275-0.225-0.5-0.5-0.5h-9.075c-0.156-0.219-0.331-0.431-0.55-0.613l-7.619-6.188 1.775-1.631c0.406-0.375 0.438-1.006 0.063-1.412s-1.006-0.431-1.413-0.063l-4.694 4.3c-0.9 0.819-2.412 0.75-3.231-0.137-0.844-0.919-0.787-2.369 0.144-3.225z"></path>
</svg>
