<!-- Generated by IcoMoon.io -->
<svg version="1.1" xmlns="http://www.w3.org/2000/svg" width="32" height="32" viewBox="0 0 32 32">
<title>hand-scissors-solid</title>
<path d="M13.5 27.5c0-1.381 1.119-2.5 2.5-2.5v-0.5h-2c-1.381 0-2.5-1.119-2.5-2.5s1.119-2.5 2.5-2.5h2v-0.5h-13c-1.657 0-3-1.343-3-3s1.343-3 3-3h13v-0.848l-11.097-4.359c-1.542-0.606-2.301-2.347-1.695-3.889s2.347-2.301 3.889-1.695l11.896 4.673 1.555-1.943c0.769-0.961 2.124-1.22 3.193-0.609l7 4c0.758 0.439 1.26 1.246 1.26 2.171v0 15c0 1.16-0.798 2.168-1.927 2.434l-8.5 2c-0.172 0.042-0.369 0.066-0.572 0.066-0 0-0 0-0 0h-5c-1.381 0-2.5-1.119-2.5-2.5z"></path>
</svg>
