<!-- Generated by IcoMoon.io -->
<svg version="1.1" xmlns="http://www.w3.org/2000/svg" width="24" height="32" viewBox="0 0 24 32">
<title>hand-point-down-solid</title>
<path d="M5.739 29.2v-9.327c-0.516 0.365-1.035 0.661-1.557 0.885-1.988 0.852-4.183-0.619-4.182-2.757 0.001-1.163 0.681-2.013 1.818-2.5 1.768-0.758 4.021-4.915 4.833-6.721 0.497-1.116 1.592-1.778 2.74-1.779l0-0h10.72c0.738 0 1.369 0.537 1.481 1.267 0.453 2.927 2.405 3.86 2.395 7.733-0 0.17 0.012 0.828 0.012 1 0 3.166-1.383 5.098-4.454 4.538-0.581 1.162-2.468 1.921-3.895 1.028-1.324 1.54-3.369 1.415-4.434 0.394v6.241c0 1.509-1.263 2.8-2.739 2.8-1.455 0-2.739-1.334-2.739-2.8zM7 4.5v-3c0-0.828 0.672-1.5 1.5-1.5h12c0.828 0 1.5 0.672 1.5 1.5v3c0 0.828-0.672 1.5-1.5 1.5h-12c-0.828 0-1.5-0.672-1.5-1.5zM20.25 3c0-0.69-0.56-1.25-1.25-1.25s-1.25 0.56-1.25 1.25 0.56 1.25 1.25 1.25 1.25-0.56 1.25-1.25z"></path>
</svg>
