<!-- Generated by IcoMoon.io -->
<svg version="1.1" xmlns="http://www.w3.org/2000/svg" width="28" height="32" viewBox="0 0 28 32">
<title>hand-paper</title>
<path d="M23.087 7.444v-1.425c0-2.675-2.675-4.55-5.144-3.531-1.238-3.388-5.9-3.263-7.031 0.050-2.4-0.988-5.112 0.8-5.112 3.494v9.106c-1.269-0.856-2.975-0.869-4.275 0.094-1.663 1.225-2.025 3.569-0.819 5.244l7.812 10.9c0.281 0.394 0.738 0.625 1.219 0.625h14.512c0.7 0 1.306-0.481 1.462-1.163l1.962-8.475c0.212-0.925 0.325-1.875 0.325-2.831v-8.519c0-2.594-2.538-4.381-4.913-3.569zM26 19.531c0 0.8-0.094 1.6-0.275 2.375l-1.875 8.087h-13.856l-7.662-10.688c-0.563-0.788-0.394-1.9 0.381-2.469 0.769-0.569 1.85-0.4 2.413 0.387l1.769 2.462c0.281 0.394 0.906 0.194 0.906-0.294v-13.363c0-2.375 3.463-2.306 3.463 0.044v9.925c0 0.275 0.225 0.5 0.5 0.5h0.444c0.275 0 0.5-0.225 0.5-0.5v-12.238c0-2.375 3.463-2.306 3.463 0.044v12.188c0 0.275 0.225 0.5 0.5 0.5h0.444c0.275 0 0.5-0.225 0.5-0.5v-10.019c0-2.375 3.462-2.306 3.462 0.044v9.981c0 0.275 0.225 0.5 0.5 0.5h0.444c0.275 0 0.5-0.225 0.5-0.5v-4.938c0-2.35 3.462-2.425 3.462-0.044v8.512z"></path>
</svg>
