<!-- Generated by IcoMoon.io -->
<svg version="1.1" xmlns="http://www.w3.org/2000/svg" width="40" height="32" viewBox="0 0 40 32">
<title>handshake-alt-solid</title>
<path d="M30.244 21.169l-9.331-7.575-1.875 1.719c-2.538 2.319-5.425 0.744-6.356-0.275-1.681-1.838-1.55-4.681 0.275-6.356l5.112-4.681h-5.238c-0.531 0-1.037 0.213-1.412 0.588l-3.419 3.412h-7c-0.55 0-1 0.45-1 1v11.994c0 0.55 0.45 1 1 1h8.144l5.656 5.119c1.712 1.394 4.231 1.131 5.625-0.581l0.012-0.012 1.119 0.969c0.994 0.813 2.462 0.656 3.269-0.337l1.962-2.413 0.337 0.275c0.856 0.694 2.119 0.569 2.813-0.294l0.594-0.731c0.7-0.863 0.569-2.119-0.288-2.819zM39 8h-7l-3.413-3.412c-0.375-0.375-0.881-0.588-1.413-0.588h-5.369c-0.5 0-0.981 0.188-1.35 0.525l-6.144 5.625c-0.006 0.006-0.012 0.019-0.019 0.025-1.044 0.981-1.019 2.537-0.131 3.5 0.6 0.656 2.187 1.35 3.506 0.169 0.006-0.006 0.019-0.006 0.025-0.012l5-4.575c0.406-0.369 1.038-0.344 1.413 0.063s0.344 1.037-0.063 1.412l-1.631 1.494 9.1 7.387c0.763 0.619 1.219 1.469 1.388 2.369h6.1c0.55 0 1-0.45 1-1v-11.988c0-0.55-0.45-0.994-1-0.994z"></path>
</svg>
