<!-- Generated by IcoMoon.io -->
<svg version="1.1" xmlns="http://www.w3.org/2000/svg" width="28" height="32" viewBox="0 0 28 32">
<title>hand-peace-solid</title>
<path d="M25.5 13.5c-1.381 0-2.5 1.119-2.5 2.5h-0.5v-2c0-1.381-1.119-2.5-2.5-2.5s-2.5 1.119-2.5 2.5v2h-0.5v-13c0-1.657-1.343-3-3-3s-3 1.343-3 3v13h-0.848l-4.359-11.097c-0.606-1.542-2.347-2.301-3.889-1.695s-2.301 2.347-1.695 3.889l4.673 11.896-1.943 1.555c-0.961 0.769-1.22 2.124-0.609 3.193l4 7c0.439 0.758 1.246 1.26 2.171 1.26 0 0 0 0 0 0h15c1.16 0 2.168-0.798 2.434-1.927l2-8.5c0.042-0.172 0.066-0.369 0.066-0.572 0-0 0-0 0-0v0-5c0-1.381-1.119-2.5-2.5-2.5z"></path>
</svg>
