<!-- Generated by IcoMoon.io -->
<svg version="1.1" xmlns="http://www.w3.org/2000/svg" width="40" height="32" viewBox="0 0 40 32">
<title>handshake</title>
<path d="M1 19.988c0.55 0 1-0.45 1-1s-0.45-1-1-1-1 0.45-1 1c0 0.556 0.45 1 1 1zM39.5 8l-7.094 0.012-3.2-3.119c-0.569-0.569-1.319-0.881-2.119-0.881h-6.313c-0.65 0-1.256 0.244-1.769 0.625-0.525-0.406-1.169-0.644-1.831-0.644h-4.344c-0.794 0-1.556 0.319-2.119 0.881l-3.125 3.125h-7.088c-0.275 0-0.5 0.225-0.5 0.5v1c0 0.275 0.225 0.5 0.5 0.5h3.5v11.994h-3.5c-0.275 0-0.5 0.225-0.5 0.5v1c0 0.275 0.225 0.5 0.5 0.5h3.5c1.1 0 1.987-0.887 1.994-1.981h2.075l5.094 4.875c1.863 1.506 4.488 1.462 6.313-0.012l0.45 0.387c0.6 0.488 1.331 0.744 2.094 0.744 1 0 1.944-0.438 2.587-1.225l1.369-1.681c1.025 0.556 2.681 0.563 3.75-0.75l0.594-0.731c0.387-0.475 0.6-1.038 0.656-1.606h3.037c0.006 1.094 0.9 1.981 1.994 1.981h3.5c0.275 0 0.5-0.225 0.5-0.5v-1c0-0.275-0.225-0.5-0.5-0.5h-3.5v-11.981l3.5-0.012c0.275 0 0.5-0.225 0.5-0.5v-1c-0.006-0.281-0.231-0.5-0.506-0.5zM28.762 22.35l-0.594 0.731c-0.337 0.413-0.962 0.506-1.406 0.144l-1.113-0.9-2.594 3.188c-0.469 0.581-1.313 0.637-1.837 0.212l-1.913-1.631-0.65 0.8c-1.044 1.281-2.938 1.481-4.162 0.494l-5.619-5.381h-2.875v-10.012h2.412l3.706-3.706c0.188-0.188 0.444-0.294 0.706-0.294h4.344c0.056 0.138 0.019 0.044 0.069 0.181l-3.688 3.388c-1.762 1.619-1.85 4.325-0.262 6.056 0.894 0.975 3.663 2.456 6.056 0.262l1.425-1.306 7.85 6.369c0.425 0.35 0.488 0.981 0.144 1.406zM34 20.006h-3.575c-0.156-0.219-0.331-0.431-0.55-0.613l-7.619-6.188 1.775-1.631c0.406-0.375 0.438-1.006 0.063-1.412s-1.006-0.431-1.413-0.063l-4.694 4.3c-0.9 0.819-2.412 0.75-3.231-0.137-0.85-0.925-0.794-2.375 0.137-3.231l5.194-4.763c0.188-0.169 0.425-0.263 0.675-0.263h6.313c0.269 0 0.519 0.106 0.712 0.3l3.794 3.694h2.419v10.006zM39 17.994c-0.55 0-1 0.45-1 1s0.45 1 1 1 1-0.45 1-1c0-0.556-0.45-1-1-1z"></path>
</svg>
