<!-- Generated by IcoMoon.io -->
<svg version="1.1" xmlns="http://www.w3.org/2000/svg" width="36" height="32" viewBox="0 0 36 32">
<title>hands-wash</title>
<path d="M26 10c0 2.209 1.791 4 4 4s4-1.791 4-4c0-2.209-1.791-4-4-4v0c-2.208 0.002-3.998 1.792-4 4v0zM32 10c0 1.105-0.895 2-2 2s-2-0.895-2-2c0-1.105 0.895-2 2-2v0c1.105 0 2 0.895 2 2v0zM27 6c1.657 0 3-1.343 3-3s-1.343-3-3-3c-1.657 0-3 1.343-3 3v0c0.002 1.656 1.344 2.998 3 3h0zM27 2c0.552 0 1 0.448 1 1s-0.448 1-1 1c-0.552 0-1-0.448-1-1v0c0-0.552 0.448-1 1-1v0zM32.201 18.75c0.031-0.171 0.048-0.367 0.048-0.567 0-0.225-0.022-0.445-0.065-0.657l0.004 0.021c-0.297-1.547-1.689-2.672-3.301-2.672h-5.392c0.003-0.054 0.005-0.118 0.005-0.182 0-0.665-0.195-1.285-0.532-1.804l0.008 0.013 0.153-0.484 0.84-2.659c0.098-0.298 0.154-0.642 0.154-0.998 0-1.669-1.234-3.049-2.839-3.279l-0.018-0.002c-0.252-1.421-1.379-2.517-2.795-2.721l-0.018-0.002c-0.256-1.448-1.423-2.561-2.878-2.732l-0.016-0.002c-0.112-0.014-0.243-0.022-0.375-0.022h-0c-0.915 0.008-1.74 0.384-2.336 0.988l-0 0c-0.335-0.177-0.726-0.302-1.14-0.351l-0.016-0.002c-0.113-0.014-0.243-0.022-0.375-0.022h-0c-1.428 0-2.732 0.972-3.172 2.364l-1.625 5.141c-0.341-0.133-0.735-0.211-1.147-0.214h-0.001c-1.846 0-3.353 1.471-3.375 3.279v6.191c0.033 2.083 0.831 4.014 2.125 5.546-1.293 0.915-2.126 2.404-2.126 4.087 0 2.757 2.235 4.992 4.992 4.992 0.003 0 0.007 0 0.010 0h-0c1.506 0 2.842-0.683 3.759-1.74 1.414 1.070 3.142 1.74 5.053 1.74h11.375c0 0 0 0 0 0 1.829 0 3.313-1.483 3.313-3.313 0-0.196-0.017-0.387-0.049-0.574l0.003 0.020c1.075-0.564 1.796-1.672 1.796-2.948 0-0.195-0.017-0.386-0.049-0.571l0.003 0.020c1.077-0.559 1.799-1.665 1.799-2.941s-0.723-2.382-1.781-2.932l-0.018-0.009zM20.813 7.446c0 0 0.001 0 0.002 0 0.049 0 0.098 0.003 0.146 0.009l-0.006-0.001c0.661 0.075 1.169 0.63 1.169 1.305 0 0.142-0.022 0.278-0.064 0.406l0.003-0.009-0.765 2.421c-0.334-0.127-0.721-0.201-1.125-0.201-0.339 0-0.667 0.052-0.974 0.149l0.023-0.006-0.729 0.225 1.052-3.331c0.178-0.559 0.691-0.966 1.268-0.966zM4 17.375v-6.165c0.009-0.727 0.636-1.305 1.357-1.305h0.005c0.722 0.004 1.305 0.59 1.305 1.312 0 0.003 0 0.006-0 0.009v-0l0.114 2.737 3.282-10.382c0.177-0.563 0.688-0.966 1.264-0.966 0.050 0 0.099 0.003 0.147 0.009l-0.006-0.001c0.663 0.073 1.174 0.629 1.174 1.305 0 0.141-0.022 0.278-0.064 0.405l0.003-0.009-2.111 6.676c-0.013 0.039-0.020 0.085-0.020 0.132 0 0.242 0.196 0.438 0.438 0.438 0.195 0 0.359-0.127 0.416-0.303l0.001-0.003 2.621-8.297c0.177-0.563 0.688-0.966 1.264-0.966 0.001 0 0.001 0 0.002 0 0.049 0 0.098 0.003 0.146 0.009l-0.006-0.001c0.662 0.073 1.173 0.629 1.173 1.305 0 0.142-0.022 0.278-0.064 0.405l0.003-0.009-2.372 7.536c-0.013 0.039-0.020 0.085-0.020 0.132 0 0.242 0.196 0.438 0.438 0.438 0.195 0 0.359-0.127 0.416-0.303l0.001-0.003 1.83-5.821c0.176-0.563 0.688-0.966 1.264-0.966 0.001 0 0.001 0 0.002 0 0.049 0 0.097 0.003 0.145 0.009l-0.006-0.001c0.662 0.073 1.173 0.629 1.173 1.305 0 0.141-0.022 0.278-0.064 0.405l0.003-0.009-1.777 5.625-4.157 1.284c-3.647 1.216-6.069 4.564-6.069 8.347v0.339c-0.084-0.004-0.164-0.025-0.25-0.025-0.339 0.001-0.669 0.037-0.988 0.102l0.032-0.006c-1.237-1.2-2.014-2.868-2.044-4.718l-0-0.006zM7 30c-1.657 0-3-1.343-3-3s1.343-3 3-3c1.657 0 3 1.343 3 3v0c0 1.657-1.343 3-3 3v0zM30.688 23h-8.75c-0.242 0-0.438 0.196-0.438 0.438s0.196 0.438 0.438 0.438v0h6.951c0.635 0 1.217 0.429 1.337 1.052 0.017 0.078 0.026 0.168 0.026 0.26 0 0.725-0.588 1.313-1.313 1.313-0 0-0.001 0-0.001 0h-7c-0.242 0-0.438 0.196-0.438 0.438s0.196 0.438 0.438 0.438v0h5.201c0.635 0 1.217 0.429 1.337 1.052 0.017 0.078 0.026 0.168 0.026 0.26 0 0.725-0.588 1.313-1.313 1.313-0 0-0.001 0-0.001 0h-11.375c-1.554-0.005-2.978-0.556-4.091-1.472l0.011 0.009c0.162-0.457 0.259-0.984 0.267-1.533l0-0.003c0-1.944-1.125-3.613-2.75-4.438v-0.875c0-0 0-0.001 0-0.002 0-2.985 1.93-5.519 4.611-6.422l0.048-0.014 5.891-1.818c0.116-0.036 0.248-0.057 0.386-0.057 0.001 0 0.001 0 0.002 0h-0c0 0 0.001 0 0.002 0 0.725 0 1.313 0.588 1.313 1.313 0 0.586-0.384 1.083-0.915 1.251l-0.009 0.003-2.578 0.934h10.888c0.635 0 1.217 0.429 1.337 1.052 0.017 0.078 0.026 0.168 0.026 0.26 0 0.725-0.588 1.313-1.313 1.313-0 0-0.001 0-0.001 0h-7c-0.242 0-0.438 0.196-0.438 0.438s0.196 0.438 0.438 0.438v0h8.701c0.635 0 1.217 0.429 1.337 1.052 0.017 0.078 0.026 0.168 0.026 0.26 0 0.725-0.588 1.313-1.313 1.313-0 0-0.001 0-0.001 0h0z"></path>
</svg>
