<!-- Generated by IcoMoon.io -->
<svg version="1.1" xmlns="http://www.w3.org/2000/svg" width="32" height="32" viewBox="0 0 32 32">
<title>hand-middle-finger-solid</title>
<path d="M29.996 19.82c-0.001-1.087-0.745-2-1.751-2.258l-0.016-0.004-2.228-0.558v-3.099c0-0.715-0.606-1.331-1.447-1.471l-2.4-0.4c-1.114-0.186-2.153 0.524-2.153 1.471v2c0 0.276-0.224 0.5-0.5 0.5s-0.5-0.224-0.5-0.5v0-12.375c0-1.643-1.266-3.075-2.907-3.125-0.028-0.001-0.060-0.001-0.093-0.001-1.657 0-3 1.343-3 3 0 0.001 0 0.001 0 0.002v-0 12.5c0 0.276-0.224 0.5-0.5 0.5s-0.5-0.224-0.5-0.5v0-2c0-0.947-1.039-1.657-2.153-1.471l-1.918 0.32c-1.125 0.188-1.929 1.008-1.929 1.961v9.19c0 0.276-0.224 0.5-0.5 0.5s-0.5-0.224-0.5-0.5v0-4.75l-1.71 0.938c-0.771 0.392-1.29 1.179-1.29 2.087 0 0 0 0 0 0v0 4.592c0 0 0 0 0 0 0 0.644 0.261 1.227 0.683 1.649l1.933 1.933c1.267 1.267 3.016 2.050 4.949 2.051h13.438c3.865-0.002 6.997-3.135 6.997-7v0z"></path>
</svg>
