<!-- Generated by IcoMoon.io -->
<svg version="1.1" xmlns="http://www.w3.org/2000/svg" width="40" height="32" viewBox="0 0 40 32">
<title>handshake-alt-slash-solid</title>
<path d="M22.412 12.225l9.101 7.388c0.712 0.587 1.213 1.409 1.384 2.345l0.004 0.024h6.099c0.552-0.002 0.998-0.448 1-1v-11.988c-0.003-0.55-0.45-0.994-1-0.994 0 0 0 0-0 0h-7l-3.412-3.412c-0.361-0.363-0.861-0.587-1.413-0.588h-5.368c-0.521 0-0.996 0.2-1.352 0.527l0.001-0.001-5.508 5.043-1.606-1.241 4.725-4.327h-5.237c-0.552 0.001-1.051 0.226-1.412 0.588l-0 0-1.271 1.269-7.306-5.646c-0.168-0.132-0.382-0.211-0.615-0.211-0.32 0-0.605 0.15-0.788 0.385l-0.002 0.002-1.226 1.579c-0.131 0.168-0.21 0.381-0.21 0.614 0 0.32 0.15 0.605 0.384 0.788l0.002 0.002 36.772 28.42c0.168 0.131 0.382 0.211 0.614 0.211 0.32 0 0.605-0.15 0.788-0.384l0.002-0.002 1.227-1.579c0.131-0.168 0.211-0.381 0.211-0.614 0-0.32-0.15-0.605-0.384-0.788l-0.002-0.002-20.652-15.961 3.731-3.414c0.177-0.163 0.415-0.262 0.675-0.262 0.552 0 1 0.448 1 1 0 0.292-0.125 0.554-0.324 0.737l-0.001 0.001zM1 8c-0.552 0.002-0.998 0.448-1 1v11.995c0 0.552 0.448 1 1 1v0h8.144l5.656 5.118c0.682 0.557 1.562 0.895 2.522 0.895 1.249 0 2.364-0.572 3.098-1.469l0.006-0.007 0.012-0.012 1.119 0.969c0.396 0.324 0.908 0.521 1.466 0.521 0.725 0 1.373-0.333 1.799-0.854l0.003-0.004 0.55-0.676-23.902-18.474z"></path>
</svg>
