<!-- Generated by IcoMoon.io -->
<svg version="1.1" xmlns="http://www.w3.org/2000/svg" width="40" height="32" viewBox="0 0 40 32">
<title>handshake-slash</title>
<path d="M1 19.993c0.552 0 1-0.448 1-1s-0.448-1-1-1c-0.552 0-1 0.448-1 1v0c0.002 0.552 0.448 0.998 1 1h0zM24.090 10.168c-0.184-0.199-0.446-0.323-0.738-0.323-0.26 0-0.497 0.099-0.675 0.261l0.001-0.001-1.71 1.567 1.594 1.256 1.466-1.347c0.2-0.183 0.325-0.446 0.325-0.738 0-0.261-0.1-0.498-0.263-0.676l0.001 0.001zM23.053 25.519c-0.244 0.3-0.613 0.49-1.027 0.49-0.307 0-0.589-0.105-0.813-0.28l0.003 0.002-1.912-1.631-0.65 0.8c-1.044 1.281-2.938 1.481-4.162 0.494l-5.617-5.382h-2.875v-9.949l-2.611-2.057h-2.889c-0.276 0-0.5 0.224-0.5 0.5v0 1c0 0.276 0.224 0.5 0.5 0.5v0h3.5v11.994h-3.5c-0.276 0-0.5 0.224-0.5 0.5v0 1c0 0.276 0.224 0.5 0.5 0.5v0h3.5c0 0 0 0 0.001 0 1.097 0 1.986-0.886 1.993-1.981v-0.001h2.074l5.093 4.875c0.853 0.692 1.951 1.111 3.148 1.111 1.204 0 2.309-0.424 3.173-1.132l-0.009 0.007 0.45 0.388c0.568 0.463 1.301 0.743 2.099 0.743 1.039 0 1.966-0.475 2.578-1.219l0.005-0.006 1.028-1.264-1.574-1.239zM38.994 18c-0.552 0-1 0.448-1 1s0.448 1 1 1c0.552 0 1-0.448 1-1v0c0-0.552-0.448-1-1-1v0zM40 8.506c-0.003-0.277-0.228-0.5-0.506-0.5 0 0-0 0-0 0v0l-7.093 0.013-3.199-3.119c-0.539-0.544-1.286-0.881-2.112-0.881-0.002 0-0.004 0-0.006 0h-6.312c-0.651 0-1.257 0.243-1.769 0.625-0.499-0.395-1.135-0.637-1.828-0.644h-4.345c-0.453 0.003-0.88 0.107-1.263 0.29l0.018-0.008 2.181 1.718h3.401c0.056 0.137 0.019 0.043 0.069 0.181l-1.496 1.375 1.587 1.25 2.759-2.53c0.177-0.162 0.414-0.262 0.674-0.263h6.313c0 0 0 0 0 0 0.279 0 0.53 0.115 0.711 0.299l0 0 3.793 3.693h2.419v10.006h-2.438l5.063 3.988h2.88c0.276 0 0.5-0.224 0.5-0.5v0-1c0-0.276-0.224-0.5-0.5-0.5v0h-3.5v-11.981l3.5-0.013c0.276 0 0.5-0.224 0.5-0.5v0zM1.442 0.113c-0.084-0.070-0.194-0.113-0.313-0.113-0.156 0-0.296 0.073-0.386 0.187l-0.001 0.001-0.625 0.781c-0.069 0.085-0.111 0.194-0.111 0.313 0 0.156 0.072 0.296 0.185 0.386l0.001 0.001 38.371 30.221c0.084 0.069 0.193 0.11 0.312 0.11 0.157 0 0.296-0.073 0.387-0.186l0.001-0.001 0.625-0.781c0.070-0.084 0.113-0.194 0.113-0.313 0-0.157-0.073-0.296-0.187-0.386l-0.001-0.001z"></path>
</svg>
