<!-- Generated by IcoMoon.io -->
<svg version="1.1" xmlns="http://www.w3.org/2000/svg" width="40" height="32" viewBox="0 0 40 32">
<title>hand-sparkles-solid</title>
<path d="M6.666 10.665h0.006l3.097-1.291c0.132-0.077 0.222-0.215 0.23-0.374l0-0.001c-0.008-0.161-0.097-0.299-0.228-0.374l-0.002-0.001-3.103-1.292-1.291-3.103c-0.070-0.138-0.21-0.231-0.372-0.231s-0.303 0.093-0.371 0.228l-0.001 0.002-1.294 3.102h-0.003l-3.102 1.293c-0.133 0.076-0.223 0.214-0.231 0.374l-0 0.001c0.008 0.16 0.098 0.298 0.228 0.374l0.002 0.001 3.104 1.287 1.291 3.104c0.069 0.138 0.21 0.231 0.372 0.231s0.303-0.093 0.371-0.229l0.001-0.002 1.293-3.101zM29.461 29.213l-0.063-0.026-0.063-0.031c-0.797-0.406-1.334-1.221-1.334-2.161s0.537-1.755 1.32-2.154l0.014-0.006 0.063-0.031 0.063-0.027 2.343-0.977 0.977-2.343 0.026-0.063 0.029-0.059c0.241-0.484 0.661-0.852 1.147-1.084 0-0.083 0.016-0.168 0.017-0.25v-11.002c0-1.105-0.895-2-2-2s-2 0.895-2 2v0 4.5c0 0.276-0.224 0.5-0.5 0.5v0h-1c-0.276 0-0.5-0.224-0.5-0.5v0-9.5c0-1.105-0.895-2-2-2s-2 0.895-2 2v0 9.5c0 0.276-0.224 0.5-0.5 0.5v0h-1c-0.276 0-0.5-0.224-0.5-0.5v0-11.5c0-1.105-0.895-2-2-2s-2 0.895-2 2v0 11.5c0 0.276-0.224 0.5-0.5 0.5v0h-1c-0.276 0-0.5-0.224-0.5-0.5v0-9.5c0-1.105-0.895-2-2-2s-2 0.895-2 2v0 15.062l-1.474-2.031c-0.46-0.627-1.194-1.029-2.022-1.029-1.381 0-2.501 1.12-2.501 2.501 0 0.553 0.18 1.064 0.484 1.479l-0.005-0.007 7.85 10.788c0.552 0.752 1.431 1.235 2.424 1.237h12.351c1.203 0 2.228-0.733 2.703-1.799l-0.004-0.011zM21.862 21.22l-1.862 0.776-0.776 1.861c-0.042 0.082-0.126 0.138-0.223 0.138s-0.181-0.055-0.223-0.136l-0.001-0.001-0.777-1.861-1.862-0.776c-0.083-0.042-0.138-0.126-0.138-0.224s0.056-0.182 0.137-0.223l0.001-0.001 1.862-0.776 0.776-1.861c0.042-0.082 0.126-0.138 0.223-0.138s0.181 0.055 0.223 0.136l0.001 0.001 0.777 1.861 1.862 0.776c0.083 0.042 0.138 0.126 0.138 0.224s-0.056 0.182-0.137 0.223l-0.001 0.001zM40 26.994c-0.008-0.161-0.097-0.299-0.228-0.374l-0.002-0.001-3.102-1.292-1.292-3.101c-0.070-0.138-0.21-0.23-0.373-0.23s-0.303 0.093-0.371 0.228l-0.001 0.002-1.294 3.102h-0.003l-3.102 1.296c-0.133 0.076-0.222 0.214-0.23 0.374l-0 0.001c0.009 0.159 0.098 0.296 0.228 0.371l0.002 0.001 3.102 1.292 1.291 3.099c0.069 0.138 0.21 0.231 0.373 0.231s0.303-0.093 0.371-0.229l0.001-0.002 1.293-3.101h0.006l3.097-1.291c0.132-0.076 0.221-0.213 0.23-0.371l0-0.001z"></path>
</svg>
