<!-- Generated by IcoMoon.io -->
<svg version="1.1" xmlns="http://www.w3.org/2000/svg" width="40" height="32" viewBox="0 0 40 32">
<title>handshake-alt-slash</title>
<path d="M24.094 10.162c-0.184-0.199-0.446-0.323-0.738-0.323-0.26 0-0.497 0.099-0.675 0.261l0.001-0.001-1.717 1.573 1.594 1.255 1.473-1.352c0.2-0.183 0.325-0.446 0.325-0.738 0-0.261-0.1-0.498-0.263-0.676l0.001 0.001zM23.057 25.512c-0.244 0.3-0.613 0.49-1.027 0.49-0.307 0-0.59-0.105-0.814-0.28l0.003 0.002-1.912-1.631-0.651 0.8c-1.044 1.281-2.938 1.481-4.162 0.494l-5.619-5.382h-8.375c-0.276 0-0.5 0.224-0.5 0.5v0 1c0 0.276 0.224 0.5 0.5 0.5v0h7.575l5.094 4.875c0.853 0.693 1.952 1.112 3.149 1.112 1.203 0 2.308-0.424 3.172-1.131l-0.009 0.007 0.451 0.386c0.568 0.463 1.301 0.744 2.099 0.744 1.038 0 1.965-0.475 2.577-1.218l0.005-0.006 1.018-1.25-1.575-1.24zM39.5 20.006h-7.953l2.539 2h5.413c0.276 0 0.5-0.224 0.5-0.5v0-1c0-0.276-0.224-0.5-0.5-0.5v0zM0.5 10h5.416l-2.541-2h-2.875c-0.276 0-0.5 0.224-0.5 0.5v0 1c0 0.276 0.224 0.5 0.5 0.5v0zM39.5 8.006h-7.094l-3.2-3.118c-0.539-0.545-1.286-0.882-2.113-0.882-0.002 0-0.004 0-0.006 0h-6.312c-0.651 0-1.257 0.244-1.77 0.625-0.499-0.396-1.136-0.637-1.829-0.643h-4.345c-0.458 0.003-0.89 0.11-1.276 0.297l0.018-0.008 2.188 1.723h3.408c0.056 0.138 0.019 0.044 0.069 0.182l-1.5 1.375 1.592 1.256 2.764-2.534c0.177-0.163 0.414-0.263 0.675-0.263h6.313c0.279 0 0.531 0.115 0.712 0.3l0 0 3.794 3.693h7.912c0.276 0 0.5-0.224 0.5-0.5v0-1c0-0.001 0-0.002 0-0.002 0-0.276-0.224-0.5-0.5-0.5 0 0 0 0 0 0v0zM1.438 0.113c-0.085-0.071-0.195-0.113-0.314-0.113-0.157 0-0.296 0.073-0.387 0.187l-0.001 0.001-0.625 0.781c-0.069 0.085-0.111 0.193-0.111 0.312 0 0.157 0.073 0.297 0.186 0.388l0.001 0.001 38.375 30.22c0.085 0.068 0.193 0.109 0.311 0.109 0.157 0 0.296-0.072 0.388-0.185l0.001-0.001 0.625-0.781c0.070-0.084 0.113-0.194 0.113-0.313 0-0.157-0.073-0.296-0.187-0.386l-0.001-0.001z"></path>
</svg>
