<!-- Generated by IcoMoon.io -->
<svg version="1.1" xmlns="http://www.w3.org/2000/svg" width="36" height="32" viewBox="0 0 36 32">
<title>hand-holding-heart-solid</title>
<path d="M17.206 15.656c0.438 0.462 1.15 0.462 1.594 0l6.806-7.137c1.975-2.075 1.863-5.513-0.35-7.425-1.925-1.669-4.794-1.369-6.556 0.481l-0.7 0.731-0.694-0.725c-1.762-1.856-4.631-2.156-6.556-0.488-2.206 1.912-2.325 5.35-0.35 7.425l6.806 7.137zM35.331 20.506c-0.737-0.669-1.888-0.625-2.663 0l-5.775 4.619c-0.706 0.569-1.587 0.875-2.5 0.875h-7.394c-0.55 0-1-0.45-1-1s0.45-1 1-1h4.894c0.994 0 1.919-0.681 2.081-1.663 0.206-1.25-0.756-2.337-1.975-2.337h-10c-1.688 0-3.319 0.581-4.631 1.644l-2.906 2.356h-3.462c-0.55 0-1 0.45-1 1v6c0 0.55 0.45 1 1 1h22.3c0.906 0 1.788-0.306 2.5-0.875l9.45-7.563c0.95-0.756 1.025-2.206 0.081-3.056z"></path>
</svg>
