<!-- Generated by IcoMoon.io -->
<svg version="1.1" xmlns="http://www.w3.org/2000/svg" width="28" height="32" viewBox="0 0 28 32">
<title>hand-heart-solid</title>
<path d="M26 7c-1.1 0-2 0.9-2 2v4.5c0 0.275-0.225 0.5-0.5 0.5h-1c-0.275 0-0.5-0.225-0.5-0.5v-9.5c0-1.1-0.9-2-2-2s-2 0.9-2 2v9.5c0 0.275-0.225 0.5-0.5 0.5h-1c-0.275 0-0.5-0.225-0.5-0.5v-11.5c0-1.1-0.9-2-2-2s-2 0.9-2 2v11.5c0 0.275-0.225 0.5-0.5 0.5h-1c-0.275 0-0.5-0.225-0.5-0.5v-9.5c0-1.1-0.9-2-2-2s-2 0.9-2 2v15.063l-1.475-2.031c-0.813-1.119-2.375-1.363-3.494-0.55s-1.363 2.375-0.55 3.494l7.85 10.794c0.563 0.775 1.469 1.237 2.425 1.237h12.35c1.394 0 2.6-0.956 2.919-2.313l1.656-7.044c0.2-0.856 0.306-1.769 0.319-2.644v-11.006c0-1.1-0.9-2-2-2zM22.069 23.325l-4.538 4.463c-0.294 0.288-0.769 0.288-1.063 0l-4.537-4.462c-1.319-1.294-1.238-3.444 0.231-4.637 1.281-1.044 3.194-0.856 4.375 0.3l0.462 0.456 0.462-0.456c1.175-1.156 3.087-1.344 4.375-0.3 1.469 1.194 1.544 3.337 0.231 4.637z"></path>
</svg>
