<!-- Generated by IcoMoon.io -->
<svg version="1.1" xmlns="http://www.w3.org/2000/svg" width="36" height="32" viewBox="0 0 36 32">
<title>hand-holding-magic</title>
<path d="M34.894 20.853c-0.599-0.541-1.381-0.838-2.202-0.838-0.782 0-1.551 0.27-2.164 0.761l-3.848 3.078c-0.113 0.091-0.258 0.146-0.416 0.146h-2.602c0.285-0.599 0.405-1.291 0.301-2.017-0.251-1.746-1.851-2.983-3.614-2.983h-9.015c-1.298 0-2.561 0.421-3.6 1.2l-2.4 1.8h-4.833c-0.276 0-0.5 0.224-0.5 0.5v1c0 0.276 0.224 0.5 0.5 0.5h5.5l2.933-2.2c0.66-0.499 1.495-0.8 2.4-0.8 0 0 0 0 0 0h9.167c0.828 0 1.5 0.671 1.5 1.5s-0.672 1.5-1.5 1.5h-5.5c-0.553 0-1 0.448-1 1s0.447 1 1 1h11.264c0.606 0 1.193-0.206 1.666-0.584l3.848-3.078c0.264-0.211 0.591-0.323 0.914-0.323 0.312 0 0.619 0.104 0.861 0.323 0.628 0.567 0.579 1.532-0.054 2.037l-6.302 5.041c-0.452 0.364-1.033 0.584-1.666 0.584h-25.031c-0.276 0-0.5 0.224-0.5 0.5v1c0 0.276 0.224 0.5 0.5 0.5h25.032c1.059 0 2.087-0.361 2.914-1.023l6.302-5.042c0.764-0.61 1.22-1.523 1.25-2.502s-0.373-1.92-1.104-2.581zM13 14h4.5c2.481 0 4.5-2.019 4.5-4.5s-2.019-4.5-4.5-4.5h-0.957c-1.981 0-3.742 1.174-4.543 2.913 1.107-0.491 2.617-0.913 4.543-0.913h0.957c1.379 0 2.5 1.121 2.5 2.5s-1.121 2.5-2.5 2.5h-4.5c-1.717 0-3-1.584-3-3v-4c0-1.654 1.346-3 3-3h10c1.654 0 3 1.346 3 3v4.327c0 2.258-1.039 4.526-2.928 6.387l-1.303 1.286c3.568-0.924 6.203-4.017 6.231-7.583v-4.417c0-2.757-2.242-5-5-5h-10c-2.758 0-5 2.243-5 5v4c0 2.663 2.336 5 5 5z"></path>
</svg>
