<!-- Generated by IcoMoon.io -->
<svg version="1.1" xmlns="http://www.w3.org/2000/svg" width="40" height="32" viewBox="0 0 40 32">
<title>hands-helping-solid</title>
<path d="M30.5 12h-9.5v3.5c0 2.481-2.019 4.5-4.5 4.5s-4.5-2.019-4.5-4.5v-7.6l-4.056 2.438c-1.206 0.719-1.944 2.025-1.944 3.425v2.956l-5 2.887c-0.956 0.55-1.288 1.775-0.731 2.731l5 8.663c0.55 0.956 1.775 1.281 2.731 0.731l6.463-3.731h8.537c2.206 0 4-1.794 4-4h1c1.106 0 2-0.894 2-2v-4h0.5c0.831 0 1.5-0.669 1.5-1.5v-3c0-0.831-0.669-1.5-1.5-1.5zM39.731 9.662l-5-8.662c-0.55-0.956-1.775-1.281-2.731-0.731l-6.462 3.731h-6.387c-0.75 0-1.481 0.213-2.119 0.606l-2.094 1.306c-0.588 0.362-0.938 1.006-0.938 1.694v7.894c0 1.381 1.119 2.5 2.5 2.5s2.5-1.119 2.5-2.5v-5.5h11.5c1.931 0 3.5 1.569 3.5 3.5v1.781l5-2.887c0.956-0.556 1.281-1.775 0.731-2.731z"></path>
</svg>
