<!-- Generated by IcoMoon.io -->
<svg version="1.1" xmlns="http://www.w3.org/2000/svg" width="32" height="32" viewBox="0 0 32 32">
<title>hand-point-right-solid</title>
<path d="M32 12.478c0 1.477-1.291 2.739-2.8 2.739h-6.241c1.021 1.065 1.147 3.11-0.394 4.434 0.893 1.427 0.134 3.314-1.028 3.895 0.561 3.071-1.372 4.454-4.538 4.454-0.172 0-0.83-0.013-1-0.012-3.873 0.011-4.806-1.942-7.733-2.395-0.73-0.113-1.267-0.743-1.267-1.482v-10.72l0-0c0.001-1.148 0.663-2.243 1.779-2.74 1.805-0.812 5.963-3.065 6.721-4.833 0.487-1.137 1.337-1.818 2.5-1.818 2.139-0.001 3.61 2.194 2.757 4.182-0.224 0.522-0.52 1.042-0.885 1.557h9.327c1.466 0 2.8 1.284 2.8 2.739zM6 12.5v12c0 0.828-0.672 1.5-1.5 1.5h-3c-0.828 0-1.5-0.672-1.5-1.5v-12c0-0.828 0.672-1.5 1.5-1.5h3c0.828 0 1.5 0.672 1.5 1.5zM4.25 23c0-0.69-0.56-1.25-1.25-1.25s-1.25 0.56-1.25 1.25 0.56 1.25 1.25 1.25 1.25-0.56 1.25-1.25z"></path>
</svg>
