<!-- Generated by IcoMoon.io -->
<svg version="1.1" xmlns="http://www.w3.org/2000/svg" width="32" height="32" viewBox="0 0 32 32">
<title>hand-middle-finger</title>
<path d="M29.996 19.559c-0-1.863-1.276-3.428-3.002-3.869l-0.028-0.006-0.971-0.246c0-1.665-1.108-2.808-2.452-3.057-1.927-0.358-1.964-0.382-2.35-0.382-0.431 0-0.841 0.086-1.215 0.242l0.021-0.008v-8.232c-0.058-2.164-1.826-3.897-3.999-3.897-2.16 0-3.921 1.712-3.997 3.854l-0 0.007c0 0.013-0.006 0.022-0.006 0.036v8.232c-0.353-0.147-0.763-0.232-1.193-0.232-0.001 0-0.003 0-0.004 0h0c-0.399 0-0.526 0.042-1.908 0.318-1.659 0.345-2.889 1.793-2.893 3.53v0.916l-1.789 0.894c-1.321 0.666-2.211 2.011-2.211 3.564 0 0.005 0 0.010 0 0.015v-0.001 3.938c0 0.003 0 0.005 0 0.008 0 1.101 0.448 2.098 1.172 2.818l1.656 1.657c1.44 1.447 3.433 2.343 5.635 2.343 0.008 0 0.015 0 0.023-0h11.514c4.418 0 8-3.582 8-8 0-0.002 0-0.003 0-0.005v0zM22 30h-11.515c-1.657-0-3.157-0.672-4.242-1.758l-1.657-1.657c-0.362-0.362-0.586-0.862-0.586-1.414 0-0 0-0 0-0v0-3.938c0-0 0-0 0-0 0-0.779 0.445-1.453 1.094-1.784l0.011-0.005 0.894-0.444v2c0 0.552 0.448 1 1 1s1-0.448 1-1v0-5.152c0.001-0.773 0.549-1.418 1.278-1.568l0.010-0.002c1.216-0.243 1.319-0.279 1.513-0.279 0.662 0.001 1.198 0.538 1.198 1.201 0 0 0 0 0 0v0c0 0 0 0 0 0 0 0.441 0.357 0.799 0.798 0.799h0.401c0.001 0 0.001 0 0.002 0 0.441 0 0.799-0.358 0.799-0.799 0 0 0 0 0 0v0-11.115c0-1.044 0.764-1.978 1.804-2.076 0.059-0.006 0.127-0.010 0.196-0.010 1.105 0 2 0.895 2 2 0 0 0 0 0 0v0 11.201c0 0 0 0 0 0 0 0.441 0.356 0.798 0.797 0.799h0.401c0.001 0 0.002 0 0.003 0 0.441 0 0.799-0.358 0.799-0.799 0 0 0 0 0 0v0c0 0 0 0 0-0 0-0.661 0.534-1.197 1.194-1.201h0c0.18 0 0.207 0.018 1.981 0.348 0.469 0.089 0.82 0.495 0.821 0.984v1.669l2.485 0.621c0.876 0.224 1.514 1.006 1.515 1.937v0l0.004 4.438c0 0.001 0 0.002 0 0.004 0 3.314-2.686 6-6 6v0z"></path>
</svg>
