<!-- Generated by IcoMoon.io -->
<svg version="1.1" xmlns="http://www.w3.org/2000/svg" width="32" height="32" viewBox="0 0 32 32">
<title>hand-scissors</title>
<path d="M16 30h4.531c0.288 0 0.577-0.033 0.858-0.098l7.703-1.786c0.821-0.19 1.562-0.655 2.087-1.308 0.529-0.658 0.82-1.484 0.82-2.326v-13.392c0-1.34-0.73-2.583-1.906-3.245l-6.344-3.571c-2.293-1.291-4.034-0.030-5.514 1.793l-9.763-3.779c-2.165-0.838-4.604 0.213-5.459 2.357-0.856 2.147 0.208 4.583 2.388 5.427l5.598 1.928-6.781-0.178c-2.326 0-4.219 1.874-4.219 4.178s1.893 4.178 4.219 4.178h6.395c-0.597 1.775 0.23 3.732 1.956 4.548-1.125 2.451 0.688 5.272 3.43 5.272zM22.769 6.017l6.344 3.571c0.547 0.308 0.887 0.884 0.887 1.502v13.392c0 0.807-0.559 1.5-1.36 1.686l-7.703 1.786c-0.122 0.029-0.262 0.046-0.406 0.046h-4.531c-2.338 0-2.334-3.464 0-3.464 0.276 0 0.5-0.224 0.5-0.5v0-0.446c0-0.276-0.224-0.5-0.5-0.5v0h-1.813c-2.338 0-2.334-3.464 0-3.464h1.813c0.276 0 0.5-0.224 0.5-0.5v0-0.446c0-0.276-0.224-0.5-0.5-0.5v0h-11.781c-2.939 0-2.933-4.357 0-4.357h11.781c0.276 0 0.5-0.224 0.5-0.5v0-0.757c0 0 0-0 0-0 0-0.211-0.131-0.392-0.316-0.465l-0.003-0.001-10.057-3.892c-2.724-1.054-1.119-5.116 1.627-4.053l10.781 4.173c0.053 0.021 0.116 0.034 0.18 0.034 0.156 0 0.296-0.072 0.387-0.184l0.001-0.001 1.409-1.735c0.547-0.674 1.498-0.852 2.26-0.423z"></path>
</svg>
