<!-- Generated by IcoMoon.io -->
<svg version="1.1" xmlns="http://www.w3.org/2000/svg" width="36" height="32" viewBox="0 0 36 32">
<title>hand-holding-seedling</title>
<path d="M15.556 12h1.444v3.5c0 0.275 0.225 0.5 0.5 0.5h1c0.275 0 0.5-0.225 0.5-0.5v-3.5h1.444c5.269 0 9.556-4.938 9.556-11v-1h-3.444c-3.75 0-6.994 2.506-8.556 6.131-1.563-3.625-4.806-6.131-8.556-6.131h-3.444v1c0 6.063 4.287 11 9.556 11zM26.556 2h1.4c-0.419 4.494-3.625 8-7.506 8h-1.4c0.413-4.494 3.625-8 7.506-8zM9.444 2c3.881 0 7.088 3.506 7.506 8h-1.4c-3.881 0-7.088-3.506-7.506-8h1.4zM34.894 20.85c-0.6-0.538-1.381-0.837-2.2-0.837-0.781 0-1.55 0.269-2.163 0.762l-3.85 3.081c-0.119 0.094-0.262 0.144-0.419 0.144h-2.6c0.288-0.6 0.406-1.294 0.3-2.019-0.25-1.744-1.85-2.981-3.613-2.981h-9.019c-1.3 0-2.563 0.419-3.6 1.2l-2.4 1.8h-4.831c-0.275 0-0.5 0.225-0.5 0.5v1c0 0.275 0.225 0.5 0.5 0.5h5.5l2.931-2.2c0.694-0.519 1.537-0.8 2.4-0.8h9.169c0.831 0 1.5 0.669 1.5 1.5s-0.669 1.5-1.5 1.5h-5.5c-0.55 0-1 0.45-1 1s0.45 1 1 1h11.262c0.606 0 1.194-0.206 1.669-0.581l3.85-3.075c0.262-0.212 0.594-0.325 0.912-0.325 0.313 0 0.619 0.106 0.862 0.325 0.631 0.569 0.581 1.531-0.056 2.038l-6.3 5.044c-0.475 0.381-1.063 0.581-1.669 0.581h-25.031c-0.275 0-0.5 0.225-0.5 0.5v1c0 0.275 0.225 0.5 0.5 0.5h25.031c1.063 0 2.087-0.363 2.913-1.025l6.306-5.044c0.763-0.613 1.219-1.525 1.25-2.5s-0.375-1.925-1.106-2.587z"></path>
</svg>
