<!-- Generated by IcoMoon.io -->
<svg version="1.1" xmlns="http://www.w3.org/2000/svg" width="32" height="32" viewBox="0 0 32 32">
<title>hand-rock-solid</title>
<path d="M29.050 5c-1.681-0.025-3.050 1.325-3.050 3h-0.5v-1.95c0-1.644-1.306-3.019-2.95-3.050-1.681-0.025-3.050 1.325-3.050 3v2h-0.5v-2.95c0-1.644-1.306-3.019-2.95-3.050-1.681-0.025-3.050 1.325-3.050 3v3h-0.5v-1.95c0-1.644-1.306-3.019-2.95-3.050-1.681-0.025-3.050 1.325-3.050 3v8.5l-0.5-0.444v-3.006c0-1.644-1.306-3.019-2.95-3.050-1.681-0.025-3.050 1.325-3.050 3v4.15c0 1.713 0.731 3.344 2.013 4.487l6.981 6.206c0.637 0.569 1.006 1.387 1.006 2.244v0.419c0 0.831 0.669 1.5 1.5 1.5h15c0.831 0 1.5-0.669 1.5-1.5v-0.181c0-0.8 0.163-1.594 0.469-2.331l3.063-7.269c0.313-0.738 0.469-1.531 0.469-2.331v-8.344c0-1.644-1.306-3.025-2.95-3.050z"></path>
</svg>
