<!-- Generated by IcoMoon.io -->
<svg version="1.1" xmlns="http://www.w3.org/2000/svg" width="32" height="32" viewBox="0 0 32 32">
<title>hand-point-left</title>
<path d="M0 13.6c0 2.405 2.004 4.4 4.4 4.4h3.551c0.001 0.022 0.001 0.044 0.002 0.066 0.034 0.887 0.291 1.733 0.743 2.474-0.29 1.459 0.146 3.024 1.040 4.093-0.102 3.112 1.814 5.367 5.539 5.367h1.452c3.382 0 5.653-2.143 7.819-2.627 0.365 0.386 0.881 0.627 1.454 0.627h4c1.105 0 2-0.895 2-2v-14c0-1.105-0.895-2-2-2h-4c-0.726 0-1.362 0.387-1.712 0.966-1.128-0.63-3.116-3.087-3.807-4.197-0.868-1.404-1.446-4.77-4.48-4.77-2.582 0-4.6 1.87-4.6 4.4 0 1.112 0.272 2.038 0.612 2.8h-7.612c-2.352 0-4.4 2.015-4.4 4.4zM30 26h-4v-14h4v14zM2 13.6c0-1.275 1.144-2.4 2.4-2.4h10.8c0-1.181-1.8-2.4-1.8-4.8 0-1.4 1.1-2.4 2.6-2.4s1.794 2.23 2.781 3.825c0.912 1.465 3.354 4.535 5.219 5.204v12.417c-2.48 0.6-4.502 2.554-7.273 2.554h-1.452c-2.763 0-3.895-1.513-3.45-4.181-0.996-0.546-1.647-2.317-0.881-3.656-1.32-1.243-1.213-3.162-0.338-4.163h-6.206c-1.294 0-2.4-1.106-2.4-2.4zM28 22.75c0.69 0 1.25 0.56 1.25 1.25s-0.56 1.25-1.25 1.25-1.25-0.56-1.25-1.25 0.56-1.25 1.25-1.25z"></path>
</svg>
