<!-- Generated by IcoMoon.io -->
<svg version="1.1" xmlns="http://www.w3.org/2000/svg" width="40" height="32" viewBox="0 0 40 32">
<title>hanukiah-solid</title>
<path d="M14.5 10c-0.276 0-0.5 0.224-0.5 0.5v7.5h2v-7.5c0-0.276-0.224-0.5-0.5-0.5h-1zM10.5 10c-0.276 0-0.5 0.224-0.5 0.5v7.5h2v-7.5c0-0.276-0.224-0.5-0.5-0.5h-1zM24.5 10c-0.276 0-0.5 0.224-0.5 0.5v7.5h2v-7.5c0-0.276-0.224-0.5-0.5-0.5h-1zM28.5 10c-0.276 0-0.5 0.224-0.5 0.5v7.5h2v-7.5c0-0.276-0.224-0.5-0.5-0.5h-1zM34 10.5c0-0.276-0.224-0.5-0.5-0.5h-1c-0.276 0-0.5 0.224-0.5 0.5v7.5h2v-7.5zM6.5 10c-0.276 0-0.5 0.224-0.5 0.5v7.5h2v-7.5c0-0.276-0.224-0.5-0.5-0.5h-1zM39 10h-2c-0.553 0-1 0.447-1 1v7c0 1.104-0.896 2-2 2h-12v-12c0-0.553-0.448-1-1-1h-2c-0.552 0-1 0.447-1 1v12h-12c-1.104 0-2-0.896-2-2v-7c0-0.553-0.447-1-1-1h-2c-0.552 0-1 0.447-1 1v7c0 3.314 2.686 6 6 6h12v4h-11c-0.553 0-1 0.448-1 1v2c0 0.552 0.447 1 1 1h26c0.553 0 1-0.448 1-1v-2c0-0.552-0.447-1-1-1h-11v-4h12c3.314 0 6-2.686 6-6v-7c0-0.553-0.447-1-1-1zM38 8c0.828 0 1.5-0.746 1.5-1.667s-1.5-3.333-1.5-3.333-1.5 2.413-1.5 3.333 0.672 1.667 1.5 1.667zM2 8c0.828 0 1.5-0.746 1.5-1.667s-1.5-3.333-1.5-3.333-1.5 2.413-1.5 3.333 0.672 1.667 1.5 1.667zM20 5c0.828 0 1.5-0.746 1.5-1.667s-1.5-3.333-1.5-3.333-1.5 2.413-1.5 3.333 0.672 1.667 1.5 1.667zM7 8c0.828 0 1.5-0.746 1.5-1.667s-1.5-3.333-1.5-3.333-1.5 2.413-1.5 3.333 0.672 1.667 1.5 1.667zM11 8c0.828 0 1.5-0.746 1.5-1.667s-1.5-3.333-1.5-3.333-1.5 2.413-1.5 3.333 0.672 1.667 1.5 1.667zM15 8c0.828 0 1.5-0.746 1.5-1.667s-1.5-3.333-1.5-3.333-1.5 2.413-1.5 3.333 0.672 1.667 1.5 1.667zM25 8c0.828 0 1.5-0.746 1.5-1.667s-1.5-3.333-1.5-3.333-1.5 2.413-1.5 3.333 0.672 1.667 1.5 1.667zM29 8c0.828 0 1.5-0.746 1.5-1.667s-1.5-3.333-1.5-3.333-1.5 2.413-1.5 3.333 0.672 1.667 1.5 1.667zM33 8c0.828 0 1.5-0.746 1.5-1.667s-1.5-3.333-1.5-3.333-1.5 2.413-1.5 3.333 0.672 1.667 1.5 1.667z"></path>
</svg>
