<!-- Generated by IcoMoon.io -->
<svg version="1.1" xmlns="http://www.w3.org/2000/svg" width="39" height="32" viewBox="0 0 39 32">
<title>hanukiah</title>
<path d="M14.5 8c0.828 0 1.5-0.746 1.5-1.667s-1.5-3.333-1.5-3.333-1.5 2.413-1.5 3.333 0.672 1.667 1.5 1.667zM24.5 8c0.828 0 1.5-0.746 1.5-1.667s-1.5-3.333-1.5-3.333-1.5 2.413-1.5 3.333 0.672 1.667 1.5 1.667zM24 10c-0.276 0-0.5 0.224-0.5 0.5v8.5h2v-8.5c0-0.276-0.224-0.5-0.5-0.5h-1zM28 10c-0.276 0-0.5 0.224-0.5 0.5v8.5h2v-8.5c0-0.276-0.224-0.5-0.5-0.5h-1zM28.5 8c0.828 0 1.5-0.746 1.5-1.667s-1.5-3.333-1.5-3.333-1.5 2.413-1.5 3.333 0.672 1.667 1.5 1.667zM32.5 8c0.828 0 1.5-0.746 1.5-1.667s-1.5-3.333-1.5-3.333-1.5 2.413-1.5 3.333 0.672 1.667 1.5 1.667zM32 10c-0.276 0-0.5 0.224-0.5 0.5v8.5h2v-8.5c0-0.276-0.224-0.5-0.5-0.5h-1zM19.5 5c0.828 0 1.5-0.746 1.5-1.667s-1.5-3.333-1.5-3.333-1.5 2.413-1.5 3.333 0.672 1.667 1.5 1.667zM14 10c-0.276 0-0.5 0.224-0.5 0.5v8.5h2v-8.5c0-0.276-0.224-0.5-0.5-0.5h-1zM38 10h-1c-0.276 0-0.5 0.224-0.5 0.5v8.5c0 1.657-1.343 3-3 3h-13v-14.5c0-0.276-0.224-0.5-0.5-0.5h-1c-0.276 0-0.5 0.224-0.5 0.5v14.5h-13c-1.657 0-3-1.343-3-3v-8.5c0-0.276-0.224-0.5-0.5-0.5h-1c-0.276 0-0.5 0.224-0.5 0.5v8.5c0 2.761 2.239 5 5 5h13v6h-12.5c-0.276 0-0.5 0.224-0.5 0.5v1c0 0.276 0.224 0.5 0.5 0.5h27c0.276 0 0.5-0.224 0.5-0.5v-1c0-0.276-0.224-0.5-0.5-0.5h-12.5v-6h13c2.761 0 5-2.239 5-5v-8.5c0-0.276-0.224-0.5-0.5-0.5zM3 6.333c0-0.92-1.5-3.333-1.5-3.333s-1.5 2.413-1.5 3.333 0.672 1.667 1.5 1.667 1.5-0.746 1.5-1.667zM37.5 3s-1.5 2.413-1.5 3.333 0.672 1.667 1.5 1.667 1.5-0.746 1.5-1.667-1.5-3.333-1.5-3.333zM6 10c-0.276 0-0.5 0.224-0.5 0.5v8.5h2v-8.5c0-0.276-0.224-0.5-0.5-0.5h-1zM6.5 8c0.828 0 1.5-0.746 1.5-1.667s-1.5-3.333-1.5-3.333-1.5 2.413-1.5 3.333 0.672 1.667 1.5 1.667zM10.5 8c0.828 0 1.5-0.746 1.5-1.667s-1.5-3.333-1.5-3.333-1.5 2.413-1.5 3.333 0.672 1.667 1.5 1.667zM10 10c-0.276 0-0.5 0.224-0.5 0.5v8.5h2v-8.5c0-0.276-0.224-0.5-0.5-0.5h-1z"></path>
</svg>
