<!-- Generated by IcoMoon.io -->
<svg version="1.1" xmlns="http://www.w3.org/2000/svg" width="32" height="32" viewBox="0 0 32 32">
<title>hard-hat</title>
<path d="M30 22v-2c0-6.334-4.229-11.632-10-13.359v-0.641c0-1.105-0.895-2-2-2v0h-4c-1.105 0-2 0.895-2 2v0 0.641c-5.771 1.727-10 7.026-10 13.359v2c-1.105 0-2 0.895-2 2v0 2c0 1.105 0.895 2 2 2v0h28c1.105 0 2-0.895 2-2v0-2c0-1.105-0.895-2-2-2v0zM4 20c0-4.922 3.015-9.088 7.268-10.93l1.625 6.504c0.064 0.245 0.284 0.423 0.545 0.423 0.31 0 0.561-0.251 0.563-0.56v-9.438h4v9.438c0.004 0.307 0.254 0.555 0.562 0.555 0.26 0 0.478-0.176 0.543-0.415l0.001-0.004 1.625-6.504c4.254 1.843 7.269 6.008 7.269 10.931v2h-24zM30 26h-28v-2h28z"></path>
</svg>
