<!-- Generated by IcoMoon.io -->
<svg version="1.1" xmlns="http://www.w3.org/2000/svg" width="28" height="32" viewBox="0 0 28 32">
<title>hashtag-solid</title>
<path d="M27.542 11.382l0.446-2.5c0.082-0.46-0.271-0.882-0.738-0.882h-4.676l0.914-5.118c0.082-0.46-0.271-0.882-0.738-0.882h-2.54c-0.368 0-0.673 0.264-0.738 0.614l-0.001 0.005-0.961 5.382h-6.165l0.914-5.118c0.082-0.46-0.271-0.882-0.738-0.882h-2.54c-0.368 0-0.673 0.264-0.738 0.614l-0.001 0.005-0.961 5.382h-4.944c-0.368 0-0.673 0.264-0.738 0.614l-0.001 0.005-0.446 2.5c-0.082 0.46 0.271 0.882 0.738 0.882h4.676l-1.429 8h-4.944c-0.368 0-0.673 0.265-0.738 0.614l-0.001 0.005-0.446 2.5c-0.082 0.46 0.271 0.882 0.738 0.882h4.676l-0.914 5.118c-0.082 0.46 0.271 0.882 0.738 0.882h2.54c0.368 0 0.673-0.265 0.738-0.614l0.001-0.005 0.961-5.382h6.165l-0.914 5.118c-0.082 0.46 0.271 0.882 0.738 0.882h2.54c0.368 0 0.673-0.265 0.738-0.614l0.001-0.005 0.961-5.382h4.944c0.368 0 0.673-0.265 0.738-0.614l0.001-0.005 0.446-2.5c0.082-0.46-0.271-0.882-0.738-0.882h-4.676l1.429-8h4.944c0.368 0 0.673-0.264 0.738-0.614l0.001-0.005zM16.368 20h-6.165l1.429-8h6.165l-1.429 8z"></path>
</svg>
