<!-- Generated by IcoMoon.io -->
<svg version="1.1" xmlns="http://www.w3.org/2000/svg" width="28" height="32" viewBox="0 0 28 32">
<title>hashtag</title>
<path d="M27.899 11.382l0.089-0.5c0.082-0.46-0.271-0.882-0.738-0.882h-6.163l1.271-7.118c0.082-0.46-0.271-0.882-0.738-0.882h-0.508c-0.368 0-0.673 0.264-0.738 0.614l-0.001 0.005-1.318 7.382h-7.968l1.271-7.118c0.082-0.46-0.271-0.882-0.738-0.882h-0.508c-0.368 0-0.673 0.264-0.738 0.614l-0.001 0.005-1.318 7.382h-6.43c-0.368 0-0.673 0.264-0.738 0.614l-0.001 0.005-0.089 0.5c-0.082 0.46 0.271 0.882 0.738 0.882h6.162l-1.429 8h-6.43c-0.368 0-0.673 0.265-0.738 0.614l-0.001 0.005-0.089 0.5c-0.082 0.46 0.271 0.882 0.738 0.882h6.163l-1.271 7.118c-0.082 0.46 0.271 0.882 0.738 0.882h0.508c0.368 0 0.673-0.265 0.738-0.614l0.001-0.005 1.318-7.382h7.968l-1.271 7.118c-0.082 0.46 0.271 0.882 0.738 0.882h0.508c0.368 0 0.673-0.265 0.738-0.614l0.001-0.005 1.318-7.382h6.43c0.368 0 0.673-0.265 0.738-0.614l0.001-0.005 0.089-0.5c0.082-0.46-0.271-0.882-0.738-0.882h-6.163l1.429-8h6.43c0 0 0 0 0 0 0.368 0 0.673-0.264 0.738-0.614l0.001-0.005zM17.27 20h-7.968l1.429-8h7.968l-1.429 8z"></path>
</svg>
