<!-- Generated by IcoMoon.io -->
<svg version="1.1" xmlns="http://www.w3.org/2000/svg" width="32" height="32" viewBox="0 0 32 32">
<title>hat-chef-solid</title>
<path d="M26 2c-1.365 0.004-2.62 0.468-3.622 1.244l0.014-0.010c-1.459-1.952-3.767-3.234-6.392-3.234s-4.933 1.281-6.392 3.234c-0.995-0.77-2.261-1.234-3.636-1.234-3.299 0-5.973 2.674-5.973 5.973 0 0.010 0 0.020 0 0.029v-0.002c0 2.609 4 12 4 12h3.756l-0.756-9.422c-0.001-0.012-0.002-0.026-0.002-0.040 0-0.262 0.201-0.477 0.458-0.498l0.002-0 1-0.080c0.012-0.001 0.026-0.002 0.040-0.002 0.262 0 0.477 0.202 0.498 0.459l0 0.002 0.766 9.581h5.196v-9.5c0-0.276 0.224-0.5 0.5-0.5v0h1c0.276 0 0.5 0.224 0.5 0.5v0 9.5h5.279l0.767-9.581c0.021-0.259 0.236-0.46 0.498-0.46 0.014 0 0.028 0.001 0.041 0.002l-0.002-0 1 0.080c0.258 0.021 0.46 0.236 0.46 0.498 0 0.014-0.001 0.028-0.002 0.042l0-0.002-0.756 9.422h3.756s4-9.391 4-12c0-3.314-2.686-6-6-6v0zM4 30c0 1.105 0.895 2 2 2v0h20c1.105 0 2-0.895 2-2v0-8h-24z"></path>
</svg>
