<!-- Generated by IcoMoon.io -->
<svg version="1.1" xmlns="http://www.w3.org/2000/svg" width="32" height="32" viewBox="0 0 32 32">
<title>hat-winter-solid</title>
<path d="M12.2 6.575c-0.344 0.631-0.275 1.425 0.262 1.962 0.325 0.325 0.75 0.488 1.181 0.488 0.275 0 0.537-0.094 0.781-0.225 0.206 0.688 0.819 1.2 1.575 1.2s1.369-0.512 1.575-1.2c0.25 0.131 0.512 0.225 0.781 0.225 0.425 0 0.85-0.162 1.181-0.488 0.538-0.537 0.606-1.331 0.262-1.963 0.688-0.206 1.2-0.819 1.2-1.575s-0.512-1.369-1.2-1.575c0.344-0.631 0.275-1.425-0.262-1.962s-1.331-0.606-1.962-0.262c-0.206-0.688-0.819-1.2-1.575-1.2s-1.369 0.512-1.575 1.2c-0.631-0.344-1.425-0.275-1.963 0.262s-0.606 1.331-0.262 1.962c-0.688 0.206-1.2 0.819-1.2 1.575s0.512 1.369 1.2 1.575zM8 16.881l4 2 4-2 4 2 4-2 4 2 0.45-0.225c-1.231-3.137-3.45-6.556-7.438-8.781-0.025 0.025-0.038 0.050-0.063 0.075-0.663 0.662-1.538 1.044-2.475 1.075-0.656 0.619-1.531 0.981-2.475 0.981-0.95 0-1.825-0.363-2.475-0.981-0.931-0.031-1.806-0.406-2.475-1.075-0.025-0.025-0.037-0.050-0.063-0.075-3.994 2.225-6.213 5.65-7.438 8.781l0.45 0.225 4-2zM31 28h-30c-0.55 0-1 0.45-1 1v2c0 0.55 0.45 1 1 1h30c0.55 0 1-0.45 1-1v-2c0-0.55-0.45-1-1-1zM29.106 20.569l-1.106 0.55-4-2-4 2-4-2-4 2-4-2-4 2-1.106-0.55c-0.881 3.044-0.894 5.431-0.894 5.431h28s-0.012-2.387-0.894-5.431z"></path>
</svg>
