<!-- Generated by IcoMoon.io -->
<svg version="1.1" xmlns="http://www.w3.org/2000/svg" width="32" height="32" viewBox="0 0 32 32">
<title>hat-winter</title>
<path d="M30.619 24.125c-0.738-4.587-2.962-12.094-9.631-16.087v-0.044c0.625-0.487 1.012-1.237 1.012-2.069s-0.381-1.575-1.012-2.069c0.1-0.794-0.163-1.594-0.75-2.175s-1.387-0.838-2.175-0.744c-0.975-1.25-3.15-1.25-4.131 0.006-0.787-0.088-1.588 0.163-2.175 0.744-0.588 0.587-0.844 1.388-0.75 2.175-0.625 0.487-1.012 1.237-1.012 2.069s0.381 1.575 1.012 2.069v0.044c-6.662 3.988-8.887 11.494-9.625 16.081-0.8 0.262-1.381 0.988-1.381 1.875v4c0 1.106 0.894 2 2 2h28c1.106 0 2-0.894 2-2v-4c0-0.887-0.581-1.613-1.381-1.875zM28.55 24h-25.1c0.163-0.9 0.375-1.881 0.675-2.944l3.875-1.938 4 2 4-2 4 2 4-2 3.875 1.938c0.3 1.063 0.519 2.044 0.675 2.944zM12.488 5.319l1.188-0.35-0.588-1.087c-0.113-0.206-0.156-0.531 0.088-0.775 0.244-0.25 0.575-0.2 0.781-0.094l1.088 0.587 0.35-1.188c0.075-0.244 0.287-0.488 0.613-0.488s0.544 0.244 0.613 0.488l0.35 1.188 1.087-0.587c0.206-0.112 0.531-0.156 0.781 0.094 0.244 0.244 0.2 0.569 0.087 0.775l-0.587 1.087 1.188 0.35c0.244 0.069 0.488 0.287 0.488 0.612s-0.244 0.544-0.488 0.612l-1.188 0.35 0.587 1.088c0.113 0.206 0.156 0.531-0.087 0.775-0.181 0.181-0.35 0.325-0.781 0.094l-1.087-0.594-0.35 1.188c-0.075 0.244-0.288 0.488-0.613 0.488s-0.544-0.244-0.613-0.488l-0.35-1.188-1.088 0.594c-0.431 0.238-0.6 0.088-0.781-0.094-0.244-0.244-0.2-0.569-0.088-0.775l0.588-1.088-1.188-0.35c-0.244-0.069-0.488-0.287-0.488-0.612s0.244-0.544 0.488-0.612zM11.656 10.044c0.037 0.044 0.063 0.094 0.106 0.131 0.575 0.575 1.375 0.856 2.188 0.762 0.488 0.619 1.231 0.994 2.056 0.994s1.569-0.375 2.056-0.994c0.813 0.1 1.613-0.188 2.188-0.762 0.044-0.044 0.069-0.088 0.106-0.131 3.275 2.113 5.319 5.225 6.575 8.3l-2.931-1.462-4 2-4-2-4 2-4-2-2.919 1.462c1.256-3.075 3.294-6.188 6.575-8.3zM30 30h-28v-4h28v4z"></path>
</svg>
