<!-- Generated by IcoMoon.io -->
<svg version="1.1" xmlns="http://www.w3.org/2000/svg" width="40" height="32" viewBox="0 0 40 32">
<title>hat-cowboy-solid</title>
<path d="M30.625 18.556c-0.593-3.587-2.468-14.556-6.106-14.556-0.875 0-1.656 0.371-2.313 0.875-0.605 0.465-1.372 0.745-2.206 0.745s-1.601-0.28-2.214-0.751l0.009 0.006c-0.657-0.5-1.438-0.875-2.313-0.875-3.637 0-5.512 10.967-6.107 14.555 2.425 0.787 5.857 1.445 10.624 1.445s8.202-0.657 10.625-1.444zM39.556 16.233c-0.157-0.106-0.35-0.17-0.558-0.17-0.261 0-0.499 0.1-0.677 0.264l0.001-0.001c-0.063 0.056-6.329 5.674-18.323 5.674-11.926 0-18.264-5.621-18.328-5.678-0.177-0.16-0.412-0.258-0.67-0.258-0.552 0-1 0.448-1 1 0 0.123 0.022 0.241 0.063 0.35l-0.002-0.007c0.046 0.126 4.832 12.592 19.938 12.592s19.892-12.466 19.938-12.592c0.039-0.103 0.062-0.222 0.062-0.346 0-0.344-0.174-0.648-0.439-0.828l-0.004-0.002z"></path>
</svg>
