<!-- Generated by IcoMoon.io -->
<svg version="1.1" xmlns="http://www.w3.org/2000/svg" width="32" height="32" viewBox="0 0 32 32">
<title>hat-wizard</title>
<path d="M18 12l-1-2-1 2-2 1 2 1 1 2 1-2 2-1-2-1zM31.5 30h-1.5l-6.301-14.541c-0.239-0.536-0.378-1.161-0.378-1.818 0-0.522 0.088-1.024 0.249-1.491l-0.010 0.032 4.106-12.181-13.678 7.73c-1.726 0.975-3.091 2.469-3.898 4.266l-8.091 18.004h-1.5c-0.276 0-0.5 0.224-0.5 0.5v1c0 0.276 0.224 0.5 0.5 0.5h31c0.276 0 0.5-0.224 0.5-0.5v-1c0-0.276-0.224-0.5-0.5-0.5zM4.192 30l1.982-4.413 3.491 1.746 1.334 2.667h-6.808zM12 27.528l-0.842-1.686-1.686-0.843 1.685-0.843 0.843-1.686 0.842 1.685 1.686 0.843-1.685 0.843-0.843 1.686zM13 30l1.333-2.667 4.667-2.333-4.667-2.333-2.333-4.667-2.333 4.667-2.81 1.405 5.059-11.257c0.637-1.417 1.694-2.574 3.058-3.344l9.13-5.159-2.438 7.231c-0.52 1.543-0.45 3.217 0.198 4.711l1.481 3.419-1.346-0.672-1-2-1 2-2 1 2 1 1 2 1-2 1.579-0.789 4.241 9.789h-14.82z"></path>
</svg>
