<!-- Generated by IcoMoon.io -->
<svg version="1.1" xmlns="http://www.w3.org/2000/svg" width="40" height="32" viewBox="0 0 40 32">
<title>hat-cowboy</title>
<path d="M39.149 16.157c-0.199-0.093-0.433-0.148-0.679-0.148-0.002 0-0.003 0-0.005 0h0c-0.005-0-0.011-0-0.017-0-0.506 0-0.958 0.233-1.254 0.598l-0.002 0.003c-0.023 0.030-1.455 1.928-5.371 3.464-0.642-4.404-2.726-16.074-6.8-16.074-0.973 0-1.84 0.463-2.569 1.091-0.649 0.578-1.509 0.931-2.451 0.931s-1.802-0.353-2.455-0.934l0.004 0.003c-0.729-0.627-1.597-1.091-2.569-1.091-4.082 0-6.161 11.688-6.799 16.074-3.88-1.521-5.322-3.399-5.375-3.461-0.293-0.374-0.745-0.613-1.253-0.613-0.006 0-0.011 0-0.017 0h0.001c-0.001 0-0.001 0-0.002 0-0.243 0-0.474 0.053-0.682 0.147l0.010-0.004c-0.693 0.308-1.028 1.035-0.785 1.701 0.046 0.121 4.631 12.156 19.921 12.156s19.875-12.035 19.922-12.156c0.241-0.66-0.092-1.374-0.773-1.686zM14.98 6c0.372 0 0.797 0.204 1.266 0.607 0.997 0.878 2.313 1.414 3.755 1.414s2.758-0.536 3.761-1.42l-0.006 0.005c0.468-0.402 0.894-0.607 1.266-0.607 0.87 0 2.709 3.363 4.081 10.049-2.375 0.625-5.336 1.072-9.101 1.072s-6.724-0.449-9.101-1.073c1.372-6.686 3.211-10.048 4.081-10.048zM10.527 18.028c2.516 0.643 5.605 1.093 9.473 1.093 3.851 0 6.954-0.447 9.473-1.089 0.149 0.861 0.294 1.75 0.424 2.705-2.492 0.73-5.732 1.263-9.898 1.263s-7.405-0.534-9.898-1.265c0.131-0.953 0.273-1.846 0.425-2.707zM20 28c-9.432 0-14.346-4.924-16.549-8.139 2.591 1.827 7.631 4.139 16.549 4.139s13.983-2.346 16.557-4.155c-2.203 3.223-7.119 8.155-16.557 8.155z"></path>
</svg>
