<!-- Generated by IcoMoon.io -->
<svg version="1.1" xmlns="http://www.w3.org/2000/svg" width="40" height="32" viewBox="0 0 40 32">
<title>hat-cowboy-side-solid</title>
<path d="M16.3 18.191c-1.789-1.434-3.875-2.191-6.025-2.191-4.838 0-8.933 3.92-10.186 9.754-0.222 1.038-0.027 2.114 0.536 2.956 0.547 0.819 1.364 1.29 2.243 1.29h34.133c-6.451 0-9.688-2.317-14.574-6.529zM30.966 17.048l-1.691-9.786c-0.334-1.9-1.972-3.324-3.943-3.324-0.295 0-0.582 0.032-0.859 0.092l0.026-0.005-11.947 2.537c-1.683 0.366-2.956 1.754-3.145 3.469l-0.002 0.018-0.431 4.076c0.431-0.052 0.856-0.125 1.299-0.125 2.612 0 5.125 0.909 7.331 2.676l6.125 5.28c4.442 3.828 7.201 6.044 13.269 6.044 1.657 0 3-1.343 3-3v0c0-1.587-1.85-7.458-9.034-7.952z"></path>
</svg>
