<!-- Generated by IcoMoon.io -->
<svg version="1.1" xmlns="http://www.w3.org/2000/svg" width="32" height="32" viewBox="0 0 32 32">
<title>hat-wizard-solid</title>
<path d="M31 28h-30c-0.552 0-1 0.448-1 1v2c0 0.552 0.448 1 1 1h30c0.552 0 1-0.448 1-1v-2c0-0.552-0.448-1-1-1zM12 24l-4-2 4-2 2-4 2 4 4 2-4 2-1 2h13l-5.401-12.602c-0.205-0.465-0.324-1.006-0.324-1.576 0-0.453 0.075-0.888 0.214-1.293l-0.008 0.028 3.519-10.557-11.724 6.699c-1.476 0.854-2.63 2.123-3.321 3.647l-0.020 0.050-6.935 15.604h9l-1-2zM16 10l1-2 1 2 2 1-2 1-1 2-1-2-2-1 2-1z"></path>
</svg>
