<!-- Generated by IcoMoon.io -->
<svg version="1.1" xmlns="http://www.w3.org/2000/svg" width="36" height="32" viewBox="0 0 36 32">
<title>hat-witch</title>
<path d="M35.874 27.493l-0.656-0.752c-0.177-0.203-0.478-0.222-0.686-0.050-0.961 0.794-2.035 1.405-3.151 1.922l-6.782-15.216c-0.204-0.465-0.323-1.006-0.323-1.576 0-0.453 0.075-0.887 0.214-1.293l-0.008 0.028 0.397-1.19c0.272-0.816 1.036-1.367 1.897-1.367h2.45c0.861 0 1.625 0.551 1.898 1.367l0.877 2.633 1.898-4.827c0.239-0.719 0.053-1.511-0.483-2.047l-4.334-4.54c-0.362-0.362-0.861-0.586-1.413-0.586-0.001 0-0.001 0-0.002 0h0c-0.339 0-0.681 0.086-0.992 0.264l-10.396 6.435c-1.476 0.854-2.631 2.123-3.321 3.647l-0.020 0.050-8.306 18.223c-1.121-0.517-2.199-1.131-3.163-1.927-0.208-0.171-0.509-0.153-0.686 0.050l-0.655 0.753c-0.185 0.212-0.164 0.543 0.052 0.722 2.947 2.444 6.659 3.785 10.504 3.785h14.635c3.846 0 7.556-1.341 10.504-3.785 0.216-0.179 0.237-0.509 0.053-0.722zM14.763 11.208c0.522-1.176 1.389-2.134 2.567-2.809l10.336-6.399 4.332 4.537-0.168 0.426c-0.694-0.599-1.605-0.964-2.601-0.964-0.002 0-0.003 0-0.005 0h-2.45c-0.001 0-0.002 0-0.004 0-1.756 0-3.247 1.133-3.782 2.707l-0.008 0.028-0.397 1.19c-0.465 1.396-0.402 2.909 0.189 4.287l5.147 11.546c-0.839 0.146-1.688 0.242-2.552 0.242h-3.367v-0.25c0-0.965-0.785-1.75-1.75-1.75h-4.5c-0.965 0-1.75 0.785-1.75 1.75v0.25h-3.367c-0.848 0-1.682-0.091-2.506-0.232l6.636-14.561zM6.499 29.338l0.782-1.717c1.099 0.224 2.214 0.379 3.351 0.379h3.367v2h-3.317c-1.435 0-2.834-0.254-4.183-0.662zM16 30v-4h4v4h-4zM22 30v-2h3.367c1.147 0 2.271-0.157 3.379-0.386l0.767 1.72c-1.352 0.41-2.757 0.666-4.196 0.666h-3.317z"></path>
</svg>
