<!-- Generated by IcoMoon.io -->
<svg version="1.1" xmlns="http://www.w3.org/2000/svg" width="40" height="32" viewBox="0 0 40 32">
<title>hat-santa-solid</title>
<path d="M30 24h-28c-1.106 0-2 0.894-2 2v2c0 1.106 0.894 2 2 2h28c1.106 0 2-0.894 2-2v-2c0-1.106-0.894-2-2-2zM24 12l4.481 1.219c0.144-0.256 0.306-0.5 0.512-0.713 0.025-0.906 0.387-1.787 1.063-2.463 0.137-0.137 0.294-0.256 0.45-0.369l-3.319-3.919c-2.025-2.381-4.988-3.756-8.113-3.756-4.287 0-8.15 2.575-9.8 6.531l-5.606 13.469h24.619l-4.288-10zM40 15c0-0.756-0.513-1.369-1.2-1.575 0.344-0.631 0.275-1.425-0.263-1.963s-1.331-0.606-1.962-0.262c-0.206-0.688-0.819-1.2-1.575-1.2s-1.369 0.512-1.575 1.2c-0.631-0.344-1.425-0.275-1.962 0.262s-0.606 1.331-0.262 1.963c-0.688 0.206-1.2 0.819-1.2 1.575s0.512 1.369 1.2 1.575c-0.344 0.631-0.275 1.425 0.262 1.962 0.325 0.325 0.75 0.488 1.181 0.488 0.275 0 0.538-0.094 0.781-0.225 0.206 0.688 0.819 1.2 1.575 1.2s1.369-0.512 1.575-1.2c0.25 0.131 0.513 0.225 0.781 0.225 0.425 0 0.85-0.163 1.181-0.488 0.538-0.538 0.606-1.331 0.263-1.962 0.688-0.206 1.2-0.819 1.2-1.575z"></path>
</svg>
