<!-- Generated by IcoMoon.io -->
<svg version="1.1" xmlns="http://www.w3.org/2000/svg" width="36" height="32" viewBox="0 0 36 32">
<title>hat-witch-solid</title>
<path d="M35.701 26.676l-1.416-1.416c-0.377-0.377-0.968-0.372-1.374-0.027-2.104 1.791-4.747 2.768-7.542 2.768h-14.736c-2.794 0-5.438-0.976-7.543-2.767-0.406-0.346-0.997-0.351-1.374 0.027l-1.416 1.416c-0.403 0.402-0.403 1.078 0.025 1.453 2.854 2.504 6.476 3.871 10.307 3.871h14.736c3.832 0 7.454-1.367 10.308-3.871 0.428-0.375 0.428-1.051 0.024-1.453zM14 26v-4c0-1.104 0.896-2 2-2h4c1.104 0 2 0.896 2 2v4h3.368c1.496 0 2.909-0.362 4.206-0.994l-4.975-11.608c-0.204-0.465-0.323-1.006-0.323-1.576 0-0.453 0.075-0.887 0.214-1.293l-0.008 0.028 0.397-1.19c0.273-0.801 1.019-1.367 1.898-1.367h2.45c0.861 0 1.625 0.551 1.898 1.367l0.878 2.633 1.898-4.827c0.239-0.719 0.053-1.511-0.483-2.047l-4.334-4.54c-0.638-0.637-1.623-0.77-2.406-0.323l-10.397 6.436c-1.476 0.854-2.631 2.123-3.321 3.647l-0.020 0.050-6.496 14.616c1.293 0.629 2.702 0.988 4.192 0.988h3.368zM16 26h4v-4h-4v4z"></path>
</svg>
