<!-- Generated by IcoMoon.io -->
<svg version="1.1" xmlns="http://www.w3.org/2000/svg" width="40" height="32" viewBox="0 0 40 32">
<title>hat-santa</title>
<path d="M39.2 11.844c-0.056-0.769-0.381-1.512-0.956-2.088-0.563-0.563-1.294-0.9-2.081-0.956-0.581-0.506-1.344-0.8-2.156-0.8s-1.575 0.294-2.156 0.8c-0.269 0.019-0.519 0.113-0.769 0.2-4.85-4.9-7.338-7-12.006-7-4.287 0-8.15 2.575-9.8 6.531l-5.606 13.469h-0.669c-1.656 0-3 1.344-3 3v2c0 1.656 1.344 3 3 3h26c1.656 0 3-1.344 3-3v-2c0-1.656-1.344-3-3-3h-0.712l-3.813-8.887c-0.15-0.344 0.119-0.7 0.456-0.7 0.063 0 0.125 0.012 0.188 0.037l2.944 1.181c-0.012 0.125-0.069 0.244-0.069 0.375 0 0.819 0.294 1.569 0.8 2.156 0.056 0.769 0.381 1.512 0.956 2.087 0.569 0.569 1.306 0.906 2.1 0.969 0.581 0.5 1.331 0.794 2.144 0.794s1.563-0.294 2.144-0.794c0.794-0.063 1.531-0.4 2.1-0.969 0.575-0.575 0.9-1.319 0.956-2.087 0.506-0.581 0.8-1.338 0.8-2.156s-0.288-1.575-0.794-2.162zM30 25v2c0 0.55-0.45 1-1 1h-26c-0.55 0-1-0.45-1-1v-2c0-0.55 0.45-1 1-1h26c0.55 0 1 0.45 1 1zM24.931 10.412c-0.844 0-1.619 0.419-2.087 1.125-0.462 0.7-0.544 1.581-0.206 2.356l3.475 8.106h-20.281l5.294-12.7c1.344-3.219 4.463-5.3 7.95-5.3 3.831 0 5.869 1.663 10.369 6.206-0.337 0.475-0.575 1-0.631 1.569l-2.956-1.181c-0.294-0.125-0.606-0.181-0.925-0.181zM37.038 15.256c0.275 0.506 0.219 1.144-0.212 1.569-0.263 0.262-0.6 0.387-0.944 0.387-0.219 0-0.431-0.075-0.625-0.181-0.163 0.55-0.656 0.962-1.256 0.962s-1.094-0.413-1.256-0.962c-0.2 0.106-0.406 0.181-0.625 0.181-0.344 0-0.681-0.131-0.944-0.387-0.425-0.425-0.481-1.063-0.212-1.569-0.55-0.162-0.962-0.656-0.962-1.256s0.413-1.094 0.962-1.256c-0.275-0.506-0.219-1.144 0.212-1.569 0.256-0.256 0.581-0.375 0.913-0.375 0.225 0 0.45 0.056 0.656 0.169 0.163-0.55 0.656-0.963 1.256-0.963s1.094 0.412 1.256 0.963c0.206-0.113 0.431-0.169 0.656-0.169 0.331 0 0.663 0.125 0.913 0.375 0.425 0.425 0.487 1.063 0.212 1.569 0.55 0.162 0.962 0.656 0.962 1.256s-0.413 1.094-0.962 1.256z"></path>
</svg>
