<!-- Generated by IcoMoon.io -->
<svg version="1.1" xmlns="http://www.w3.org/2000/svg" width="40" height="32" viewBox="0 0 40 32">
<title>hat-cowboy-side</title>
<path d="M39.889 24.544c-1.201-5.6-4.883-9.528-9.419-10.345l-1.195-6.875c-0.334-1.898-1.969-3.322-3.937-3.325h-0c-0.585 0 0.202-0.132-12.784 2.625-1.683 0.366-2.956 1.754-3.145 3.468l-0.002 0.018-0.449 4.197c-4.269 1.037-7.696 4.874-8.847 10.239-0.276 1.297-0.027 2.653 0.681 3.718 0.736 1.103 1.857 1.736 3.076 1.736h32.266c1.217 0 2.338-0.633 3.074-1.734 0.711-1.065 0.959-2.422 0.681-3.721zM11.394 10.323c0.094-0.867 0.731-1.561 1.56-1.741l0.013-0.002 11.949-2.534c1.211-0.256 2.21 0.589 2.387 1.625l1.797 10.329h-9.333l-1.844-1.589c-3.063-2.452-5.957-2.412-6.927-2.384zM3.868 28c-1.29 0-2.104-1.613-1.805-3.034 1.153-5.363 4.854-8.966 9.211-8.966 1.922 0 3.789 0.682 5.345 1.926 11.233 9.679 10.221 9.052 11.741 10.074zM24.079 21.714l-1.989-1.714h7.359l1.221 7.019c-2.059-0.988-3.607-2.735-6.591-5.305zM36.133 28c-0.338 0-1.841 0.021-3.313-0.274l-1.981-11.394c3.402 0.954 6.133 4.168 7.091 8.631 0.356 1.647-0.688 3.036-1.797 3.036z"></path>
</svg>
