<!-- Generated by IcoMoon.io -->
<svg version="1.1" xmlns="http://www.w3.org/2000/svg" width="32" height="32" viewBox="0 0 32 32">
<title>hat-chef</title>
<path d="M26 2c-1.365 0.004-2.62 0.468-3.622 1.244l0.014-0.010c-1.459-1.952-3.767-3.234-6.392-3.234s-4.933 1.281-6.392 3.234c-0.995-0.77-2.261-1.234-3.636-1.234-3.299 0-5.973 2.674-5.973 5.973 0 0.010 0 0.020 0 0.029v-0.002c0 2.609 4 14 4 14v8c0 1.105 0.895 2 2 2v0h20c1.105 0 2-0.895 2-2v0-8s4-11.391 4-14c0-3.314-2.686-6-6-6v0zM26 30h-20v-6h20zM26 22h-2.756l0.756-9.422c0.001-0.012 0.002-0.026 0.002-0.040 0-0.262-0.201-0.477-0.458-0.498l-0.002-0-1-0.080h-0.041c-0 0-0.001 0-0.002 0-0.262 0-0.477 0.202-0.498 0.459l-0 0.002-0.764 9.579h-4.279v-9.5c0-0.276-0.224-0.5-0.5-0.5v0h-1c-0.276 0-0.5 0.224-0.5 0.5v0 9.5h-4.196l-0.767-9.581c-0.021-0.259-0.236-0.461-0.498-0.461-0.001 0-0.001 0-0.002 0h-0.041l-1 0.080c-0.258 0.021-0.46 0.236-0.46 0.498 0 0.014 0.001 0.028 0.002 0.042l-0-0.002 0.759 9.424h-2.756s-4-12.581-4-14c0.002-2.208 1.792-3.998 4-4h0c0.908 0.005 1.743 0.315 2.408 0.834l-0.009-0.007 1.605 1.218 1.206-1.614c1.154-1.544 2.9-2.431 4.789-2.431s3.636 0.886 4.789 2.431l1.206 1.614 1.605-1.218c0.656-0.512 1.491-0.823 2.398-0.828h0.001c2.208 0.002 3.997 1.792 4 4v0c0 1.419-4 14-4 14z"></path>
</svg>
