<!-- Generated by IcoMoon.io -->
<svg version="1.1" xmlns="http://www.w3.org/2000/svg" width="36" height="32" viewBox="0 0 36 32">
<title>hdd-solid</title>
<path d="M36 19v6c0 1.657-1.343 3-3 3h-30c-1.657 0-3-1.343-3-3v-6c0-1.657 1.343-3 3-3h30c1.657 0 3 1.343 3 3zM33 14c0.001 0 0.003 0 0.004 0 0.693 0 1.352 0.142 1.952 0.398l-0.032-0.012-6.033-9.049c-0.546-0.81-1.46-1.336-2.496-1.336h-16.789c-1.037 0-1.95 0.526-2.489 1.325l-0.007 0.011-6.033 9.049c0.567-0.244 1.226-0.385 1.919-0.385 0.002 0 0.003 0 0.005 0h30zM30 20c-1.105 0-2 0.895-2 2s0.895 2 2 2 2-0.895 2-2-0.895-2-2-2zM24 20c-1.105 0-2 0.895-2 2s0.895 2 2 2 2-0.895 2-2-0.895-2-2-2z"></path>
</svg>
