<!-- Generated by IcoMoon.io -->
<svg version="1.1" xmlns="http://www.w3.org/2000/svg" width="32" height="32" viewBox="0 0 32 32">
<title>headphones-alt-solid</title>
<path d="M10 18h-1c-2.209 0-4 1.794-4 4.008v3.985c0 2.213 1.791 4.008 4 4.008h1c1.104 0 2-0.898 2-2.004v-7.992c0-1.107-0.896-2.004-2-2.004zM23 18h-1c-1.104 0-2 0.897-2 2.004v7.992c0 1.106 0.896 2.004 2 2.004h1c2.209 0 4-1.794 4-4.008v-3.985c0-2.213-1.791-4.008-4-4.008zM16 2c-8.943 0-15.714 7.446-16 16v7c0 0.552 0.448 1 1 1h1c0.553 0 1-0.448 1-1v-7c0-7.167 5.833-12.988 13-12.989 7.167 0.001 13 5.822 13 12.989v7c0 0.552 0.448 1 1 1h1c0.552 0 1-0.448 1-1v-7c-0.286-8.554-7.057-16-16-16z"></path>
</svg>
