<!-- Generated by IcoMoon.io -->
<svg version="1.1" xmlns="http://www.w3.org/2000/svg" width="32" height="32" viewBox="0 0 32 32">
<title>head-side-headphones</title>
<path d="M31.826 17.188c-1.309-2.945-3.027-9.483-4.568-11.672-2.382-3.354-6.251-5.516-10.626-5.516-0 0-0.001 0-0.001 0h-4.131c-6.532 0-12.241 5.005-12.491 11.534-0.006 0.139-0.009 0.302-0.009 0.465 0 3.543 1.541 6.726 3.989 8.916l0.011 0.010v10.574c0 0.276 0.224 0.5 0.5 0.5v0h1c0.276 0 0.5-0.224 0.5-0.5v0-11.466l-0.664-0.597c-2.050-1.835-3.335-4.49-3.335-7.445 0-0.134 0.003-0.268 0.008-0.401l-0.001 0.019c0.157-4.136 3.072-7.638 6.991-8.991v4.647c-1.823 1.281-3 3.376-3 5.745 0 3.866 3.134 7 7 7s7-3.134 7-7c0-2.369-1.177-4.463-2.978-5.73l-0.022-0.015v-5.244c3.557 0.119 6.672 1.911 8.597 4.61l0.023 0.034c0.783 1.112 1.82 4.172 2.654 6.629 0.608 1.794 1.183 3.489 1.723 4.704h-3.997v6c0 1.105-0.895 2-2 2v0h-6v5.5c0 0.276 0.224 0.5 0.5 0.5v0h1c0.276 0 0.5-0.224 0.5-0.5v0-3.5h4c2.209 0 4-1.791 4-4v0-4h2c1.104-0.001 1.998-0.896 1.998-2 0-0.294-0.064-0.574-0.178-0.825l0.005 0.013zM11 2.143c0.494-0.069 0.988-0.143 1.5-0.143h2.5v4.325c-0.637-0.191-1.3-0.325-2-0.325s-1.363 0.134-2 0.325zM18 13c0 2.761-2.239 5-5 5s-5-2.239-5-5c0-2.761 2.239-5 5-5v0c2.76 0.003 4.997 2.24 5 5v0zM13 10c-1.657 0-3 1.343-3 3s1.343 3 3 3c1.657 0 3-1.343 3-3v0c-0.002-1.656-1.344-2.998-3-3h-0zM13 14c-0.552 0-1-0.448-1-1s0.448-1 1-1c0.552 0 1 0.448 1 1v0c0 0.552-0.448 1-1 1v0z"></path>
</svg>
