<!-- Generated by IcoMoon.io -->
<svg version="1.1" xmlns="http://www.w3.org/2000/svg" width="32" height="32" viewBox="0 0 32 32">
<title>headphones-alt</title>
<path d="M24 18h-2c-1.104 0-2 0.897-2 2.004v7.992c0 1.106 0.896 2.004 2 2.004h2c2.209 0 4-1.794 4-4.008v-3.985c0-2.213-1.791-4.008-4-4.008zM26 25.992c0 1.105-0.898 2.004-2 2.004h-2v-7.992h2c1.102 0 2 0.899 2 2.004v3.985zM10 18h-2c-2.209 0-4 1.794-4 4.008v3.985c0 2.213 1.791 4.008 4 4.008h2c1.104 0 2-0.897 2-2.004v-7.992c0-1.107-0.896-2.004-2-2.004zM10 27.996h-2c-1.103 0-2-0.899-2-2.004v-3.985c0-1.105 0.897-2.004 2-2.004h2v7.992zM16 2c-8.822 0-16 7.178-16 16v7.5c0 0.276 0.224 0.5 0.5 0.5h1c0.276 0 0.5-0.224 0.5-0.5v-7.5c0-7.72 6.281-14 14-14s14 6.28 14 14v7.5c0 0.276 0.224 0.5 0.5 0.5h1c0.276 0 0.5-0.224 0.5-0.5v-7.5c0-8.822-7.178-16-16-16z"></path>
</svg>
