<!-- Generated by IcoMoon.io -->
<svg version="1.1" xmlns="http://www.w3.org/2000/svg" width="32" height="32" viewBox="0 0 32 32">
<title>head-side-brain-solid</title>
<path d="M10 11.184v-0.184c0 0.063-0.014 0.118-0.018 0.178 0.007 0.002 0.013 0.004 0.019 0.006l-0.001-0zM31.826 17.188c-1.309-2.945-3.027-9.483-4.567-11.672-2.382-3.354-6.252-5.516-10.627-5.516-0 0-0 0-0 0h-4.631c-6.625 0-12 5.375-12 12 0 0.001 0 0.001 0 0.002 0 3.542 1.541 6.725 3.988 8.914l0.012 0.010v11.074h16v-4h4c2.209 0 4-1.791 4-4v0-4h2c1.104-0.001 1.998-0.896 1.998-2 0-0.294-0.064-0.574-0.178-0.825l0.005 0.013zM21 13h-3.184c0.113 0.297 0.18 0.64 0.184 0.998v0.002c0 1.657-1.343 3-3 3v0c-0.36-0.004-0.703-0.071-1.020-0.191l0.020 0.007v3.184h-4v-3.184c-0.297 0.113-0.64 0.18-0.998 0.184h-0.002c-1.657 0-3-1.343-3-3v0c0-0.063 0.014-0.118 0.018-0.178-1.184-0.417-2.018-1.526-2.018-2.829 0-1.653 1.34-2.992 2.992-2.992 0.003 0 0.005 0 0.008 0h-0c0-1.657 1.343-3 3-3v0c0.542 0.003 1.049 0.151 1.485 0.408l-0.014-0.008c0.537-0.846 1.468-1.4 2.529-1.4s1.993 0.554 2.522 1.388l0.007 0.012c0.426-0.252 0.939-0.4 1.486-0.4 1.291 0 2.389 0.827 2.794 1.979l0.006 0.021h0.184c1.657 0 3 1.343 3 3s-1.343 3-3 3v0z"></path>
</svg>
