<!-- Generated by IcoMoon.io -->
<svg version="1.1" xmlns="http://www.w3.org/2000/svg" width="32" height="32" viewBox="0 0 32 32">
<title>head-side-medical-solid</title>
<path d="M31.826 17.188c-1.309-2.945-3.027-9.483-4.567-11.672-2.382-3.354-6.252-5.516-10.627-5.516-0 0-0 0-0 0h-4.631c-6.625 0-12 5.375-12 12 0 0.001 0 0.001 0 0.002 0 3.542 1.541 6.725 3.988 8.914l0.012 0.010v11.074h16v-4h4c2.209 0 4-1.791 4-4v0-4h2c1.104-0.001 1.998-0.896 1.998-2 0-0.294-0.064-0.574-0.178-0.825l0.005 0.013zM20 13.5c0 0.276-0.224 0.5-0.5 0.5v0h-3.5v3.5c0 0.276-0.224 0.5-0.5 0.5v0h-3c-0.276 0-0.5-0.224-0.5-0.5v0-3.5h-3.5c-0.276 0-0.5-0.224-0.5-0.5v0-3c0-0.276 0.224-0.5 0.5-0.5v0h3.5v-3.5c0-0.276 0.224-0.5 0.5-0.5v0h3c0.276 0 0.5 0.224 0.5 0.5v0 3.5h3.5c0.276 0 0.5 0.224 0.5 0.5v0z"></path>
</svg>
