<!-- Generated by IcoMoon.io -->
<svg version="1.1" xmlns="http://www.w3.org/2000/svg" width="32" height="32" viewBox="0 0 32 32">
<title>heading-solid</title>
<path d="M28 6v20h2c0.552 0 1 0.448 1 1v0 2c0 0.552-0.448 1-1 1v0h-10c-0.552 0-1-0.448-1-1v0-2c0-0.552 0.448-1 1-1v0h2v-8h-12v8h2c0.552 0 1 0.448 1 1v0 2c0 0.552-0.448 1-1 1v0h-10c-0.552 0-1-0.448-1-1v0-2c0-0.552 0.448-1 1-1v0h2v-20h-2c-0.552 0-1-0.448-1-1v0-2c0-0.552 0.448-1 1-1v0h10c0.552 0 1 0.448 1 1v0 2c0 0.552-0.448 1-1 1v0h-2v8h12v-8h-2c-0.552 0-1-0.448-1-1v0-2c0-0.552 0.448-1 1-1v0h10c0.552 0 1 0.448 1 1v0 2c0 0.552-0.448 1-1 1v0z"></path>
</svg>
