<!-- Generated by IcoMoon.io -->
<svg version="1.1" xmlns="http://www.w3.org/2000/svg" width="40" height="32" viewBox="0 0 40 32">
<title>head-side-cough-solid</title>
<path d="M38.5 19c0.828 0 1.5-0.672 1.5-1.5s-0.672-1.5-1.5-1.5c-0.828 0-1.5 0.672-1.5 1.5v0c0 0.828 0.672 1.5 1.5 1.5v0zM34.5 26c-0.828 0-1.5 0.672-1.5 1.5s0.672 1.5 1.5 1.5c0.828 0 1.5-0.672 1.5-1.5v0c0-0.828-0.672-1.5-1.5-1.5v0zM30.5 22.5c-0.828 0-1.5 0.672-1.5 1.5s0.672 1.5 1.5 1.5c0.828 0 1.5-0.672 1.5-1.5v0c0-0.828-0.672-1.5-1.5-1.5v0zM38.5 29c-0.828 0-1.5 0.672-1.5 1.5s0.672 1.5 1.5 1.5c0.828 0 1.5-0.672 1.5-1.5v0c0-0.828-0.672-1.5-1.5-1.5v0zM38.5 22.5c-0.828 0-1.5 0.672-1.5 1.5s0.672 1.5 1.5 1.5c0.828 0 1.5-0.672 1.5-1.5v0c0-0.828-0.672-1.5-1.5-1.5v0zM34.5 20c-0.828 0-1.5 0.672-1.5 1.5s0.672 1.5 1.5 1.5c0.828 0 1.5-0.672 1.5-1.5v0c0-0.828-0.672-1.5-1.5-1.5v0zM29.826 17.188c-1.313-2.945-3.031-9.484-4.57-11.672-2.383-3.352-6.251-5.513-10.625-5.516h-2.632c-6.625 0-12 5.375-12 12 0 3.547 1.547 6.726 4 8.93v11.070h14v-2h4c2.209 0 4-1.791 4-4v0h-6c-1.105 0-2-0.895-2-2s0.895-2 2-2v0h6v-2h2c1.104-0.001 1.999-0.896 1.999-2 0-0.294-0.064-0.574-0.178-0.825l0.005 0.013zM18 14c-1.105 0-2-0.895-2-2s0.895-2 2-2c1.105 0 2 0.895 2 2v0c-0.002 1.104-0.896 1.998-2 2h-0z"></path>
</svg>
