<!-- Generated by IcoMoon.io -->
<svg version="1.1" xmlns="http://www.w3.org/2000/svg" width="32" height="32" viewBox="0 0 32 32">
<title>head-side-brain</title>
<path d="M31.826 17.188c-1.309-2.945-3.027-9.483-4.567-11.672-2.382-3.354-6.252-5.516-10.627-5.516-0 0-0 0-0 0h-4.131c-6.533 0-12.242 5.005-12.491 11.534-0.006 0.139-0.009 0.303-0.009 0.467 0 3.543 1.541 6.726 3.989 8.915l0.011 0.010v10.574c0 0.276 0.224 0.5 0.5 0.5v0h1c0.276 0 0.5-0.224 0.5-0.5v0-11.466l-0.665-0.596c-2.051-1.836-3.335-4.491-3.335-7.446 0-0.134 0.003-0.267 0.008-0.4l-0.001 0.019c0.203-5.298 4.909-9.611 10.493-9.611h4.13c3.702 0 6.978 1.829 8.972 4.632l0.023 0.034c0.782 1.112 1.819 4.171 2.653 6.629 0.608 1.794 1.183 3.489 1.723 4.704h-4.001v6c0 1.105-0.895 2-2 2v0h-6v5.5c0 0.276 0.224 0.5 0.5 0.5v0h1c0.276 0 0.5-0.224 0.5-0.5v0-3.5h4c2.209 0 4-1.791 4-4v0-4h2c1.104-0.001 1.998-0.896 1.998-2 0-0.294-0.064-0.574-0.178-0.825l0.005 0.013zM19.6 12c1.326 0 2.4-1.030 2.4-2.3s-1.074-2.3-2.4-2.3h-0.163c-0.332-0.936-1.207-1.595-2.237-1.6h-0.001c-0.444 0-0.836 0.153-1.192 0.363-0.423-0.683-1.145-1.163-2.008-1.163s-1.584 0.48-2.007 1.163c-0.357-0.21-0.75-0.363-1.193-0.363-1.325 0-2.4 1.075-2.4 2.4v0c-1.325 0-2.4 1.075-2.4 2.4v0c0 1.053 0.688 1.921 1.632 2.245-0.004 0.054-0.032 0.1-0.032 0.155 0 1.325 1.075 2.4 2.4 2.4v0c0.29-0.008 0.564-0.066 0.816-0.167l-0.016 0.006v2.761h3.2v-2.761c0.236 0.095 0.51 0.154 0.797 0.161l0.003 0c1.325 0 2.4-1.075 2.4-2.4v0c-0.004-0.364-0.089-0.708-0.239-1.014l0.006 0.014z"></path>
</svg>
