<!-- Generated by IcoMoon.io -->
<svg version="1.1" xmlns="http://www.w3.org/2000/svg" width="32" height="32" viewBox="0 0 32 32">
<title>head-side-virus</title>
<path d="M16 14c-0.552 0-1 0.448-1 1s0.448 1 1 1c0.552 0 1-0.448 1-1v0c0-0.552-0.448-1-1-1v0zM31.825 17.188c-1.308-2.945-3.027-9.483-4.567-11.672-2.382-3.354-6.252-5.516-10.626-5.516-0 0-0.001 0-0.001 0h-4.131c-6.533 0-12.242 5.005-12.491 11.534-0.006 0.139-0.009 0.303-0.009 0.467 0 3.542 1.541 6.725 3.989 8.914l0.012 0.010v10.574c0 0.276 0.224 0.5 0.5 0.5v0h1c0.276 0 0.5-0.224 0.5-0.5v0-11.466l-0.665-0.597c-2.051-1.836-3.335-4.491-3.335-7.446 0-0.134 0.003-0.267 0.008-0.4l-0.001 0.019c0.202-5.298 4.909-9.611 10.493-9.611h4.129c3.703 0 6.978 1.829 8.973 4.632l0.023 0.034c0.782 1.112 1.819 4.172 2.654 6.629 0.608 1.794 1.183 3.489 1.723 4.704h-4.001v6c0 1.105-0.895 2-2 2v0h-6v5.5c0 0.276 0.224 0.5 0.5 0.5v0h1c0.276 0 0.5-0.224 0.5-0.5v0-3.5h4c2.209 0 4-1.791 4-4v0-4h2c1.103-0.001 1.997-0.896 1.997-2 0-0.294-0.064-0.574-0.178-0.825l0.005 0.013zM14 12c-0.552 0-1 0.448-1 1s0.448 1 1 1c0.552 0 1-0.448 1-1v0c0-0.552-0.448-1-1-1v0zM19.414 19.828l0.536 0.536c0.182 0.187 0.436 0.303 0.718 0.303 0.552 0 1-0.448 1-1 0-0.281-0.116-0.535-0.303-0.717l-0.536-0.536c-1.26-1.26-0.367-3.414 1.414-3.414h0.758c0.552 0 1-0.448 1-1s-0.448-1-1-1v0h-0.758c-1.782 0-2.674-2.154-1.414-3.414l0.536-0.536c0.181-0.181 0.293-0.431 0.293-0.707 0-0.552-0.448-1-1-1-0.276 0-0.526 0.112-0.707 0.293v0l-0.536 0.536c-0.356 0.364-0.851 0.59-1.4 0.59h-0c-1.028 0-2.014-0.799-2.014-2.004v-0.758c0-0.552-0.448-1-1-1s-1 0.448-1 1v0 0.758c0 1.206-0.986 2.004-2.014 2.004-0.549-0-1.044-0.226-1.4-0.59l-0-0-0.536-0.536c-0.181-0.181-0.431-0.293-0.707-0.293-0.552 0-1 0.448-1 1 0 0.276 0.112 0.526 0.293 0.707v0l0.536 0.536c1.26 1.26 0.367 3.414-1.414 3.414h-0.758c-0.552 0-1 0.448-1 1s0.448 1 1 1v0h0.758c1.782 0 2.674 2.154 1.414 3.414l-0.536 0.536c-0.187 0.182-0.303 0.436-0.303 0.717 0 0.552 0.448 1 1 1 0.281 0 0.536-0.116 0.717-0.303l0-0 0.536-0.536c0.356-0.364 0.852-0.589 1.4-0.589h0c1.028 0 2.014 0.798 2.014 2.004v0.758c0 0.552 0.448 1 1 1s1-0.448 1-1v0-0.758c0-1.206 0.986-2.004 2.014-2.004 0.548 0 1.044 0.226 1.4 0.589l0 0zM15.256 18.328c-0.092 0.086-0.179 0.176-0.261 0.268-0.739-0.834-1.812-1.356-3.007-1.356-0.001 0-0.002 0-0.003 0h0c-0.078 0-0.156 0-0.234 0.007 0.005-0.072 0.007-0.155 0.007-0.24 0-1.195-0.521-2.268-1.349-3.004l-0.004-0.004c0.83-0.74 1.351-1.812 1.351-3.005 0-0.084-0.003-0.168-0.008-0.251l0.001 0.011c0.078 0.004 0.156 0.007 0.234 0.007 0.001 0 0.002 0 0.003 0 1.198 0 2.274-0.525 3.009-1.358l0.004-0.004c0.739 0.837 1.814 1.363 3.012 1.363 0.001 0 0.001 0 0.002 0h-0c0.078 0 0.156 0 0.233-0.007-0.004 0.070-0.007 0.153-0.007 0.236 0 1.195 0.521 2.269 1.349 3.006l0.004 0.004c-0.83 0.74-1.35 1.813-1.35 3.007 0 0.084 0.003 0.167 0.008 0.25l-0.001-0.011c-0.077-0.005-0.155-0.007-0.233-0.007-0.002 0-0.004 0-0.007 0-1.066 0-2.035 0.414-2.756 1.090l0.002-0.002z"></path>
</svg>
