<!-- Generated by IcoMoon.io -->
<svg version="1.1" xmlns="http://www.w3.org/2000/svg" width="32" height="32" viewBox="0 0 32 32">
<title>head-side-mask</title>
<path d="M32 18c0-0.001 0-0.002 0-0.003 0-0.293-0.064-0.572-0.178-0.822l0.005 0.012c-1.313-2.945-3.031-9.484-4.57-11.672-2.383-3.352-6.251-5.513-10.625-5.516h-4.277c-6.513 0-12.105 5.038-12.347 11.546-0.138 3.729 1.434 7.087 3.992 9.384v10.57c0 0.276 0.224 0.5 0.5 0.5v0h1c0.276 0 0.5-0.224 0.5-0.5v0-11.462l-0.663-0.596c-2.051-1.838-3.336-4.495-3.336-7.453 0-0.303 0.013-0.602 0.040-0.898l-0.003 0.038 0.042-0.019 11.92 8.672v11.718c0 0.276 0.224 0.5 0.5 0.5v0h10.617c1.756-0 3.248-1.132 3.786-2.707l0.008-0.028 2.986-8.957c0.065-0.189 0.102-0.406 0.102-0.632 0-0 0-0 0-0v0zM29.226 22h-8.226c-0.552 0-1 0.448-1 1s0.448 1 1 1v0h7.559l-0.667 2h-6.892c-0.552 0-1 0.448-1 1s0.448 1 1 1v0h6.225l-0.211 0.633c-0.273 0.801-1.018 1.367-1.896 1.367h-9.118v-10h13.892zM29.986 18h-15.036l-12.408-9.024c1.368-4.013 5.341-6.976 9.957-6.976h4.134c3.7 0.004 6.972 1.832 8.966 4.632l0.023 0.034c0.78 1.109 1.813 4.161 2.647 6.612 0.611 1.802 1.188 3.504 1.718 4.717zM20 10c-1.105 0-2 0.895-2 2s0.895 2 2 2c1.105 0 2-0.895 2-2v0c-0.002-1.104-0.896-1.998-2-2h-0z"></path>
</svg>
