<!-- Generated by IcoMoon.io -->
<svg version="1.1" xmlns="http://www.w3.org/2000/svg" width="40" height="32" viewBox="0 0 40 32">
<title>head-side-cough</title>
<path d="M30.5 22.5c-0.828 0-1.5 0.672-1.5 1.5s0.672 1.5 1.5 1.5c0.828 0 1.5-0.672 1.5-1.5v0c0-0.828-0.672-1.5-1.5-1.5v0zM29.825 17.188c-1.308-2.945-3.027-9.483-4.567-11.672-2.382-3.354-6.252-5.516-10.626-5.516-0 0-0.001 0-0.001 0h-2.335c-6.516 0-12.067 5.069-12.289 11.581-0.005 0.125-0.007 0.272-0.007 0.419 0 3.543 1.541 6.726 3.989 8.916l0.012 0.010v10.574c0 0.276 0.224 0.5 0.5 0.5v0h1c0.276 0 0.5-0.224 0.5-0.5v0-11.466l-0.356-0.319c-1.241-1.113-2.264-2.465-2.894-4.008-2.834-6.977 2.773-13.707 9.75-13.707h2.131c3.702 0.001 6.977 1.829 8.971 4.632l0.023 0.034c0.782 1.112 1.819 4.172 2.654 6.629 0.608 1.794 1.183 3.489 1.723 4.704h-4.001v3h-2.875c-1.642 0-3.075 1.266-3.125 2.907-0.001 0.028-0.001 0.060-0.001 0.093 0 1.657 1.343 3 3 3 0 0 0.001 0 0.002 0h3v1c0 1.105-0.895 2-2 2v0h-3.5c-0.276 0-0.5 0.224-0.5 0.5v0 1c0 0.276 0.224 0.5 0.5 0.5v0h3.5c2.209 0 4-1.791 4-4v0-2c0-0.552-0.448-1-1-1v0h-3.947c-0.5 0-0.959-0.341-1.039-0.832-0.009-0.050-0.014-0.108-0.014-0.168 0-0.552 0.448-1 1-1 0 0 0 0 0 0h4c0.552 0 1-0.448 1-1v0-2h2c1.103-0.001 1.997-0.896 1.997-2 0-0.294-0.064-0.574-0.178-0.825l0.005 0.013zM20 12c0-1.105-0.895-2-2-2s-2 0.895-2 2c0 1.105 0.895 2 2 2v0c1.105 0 2-0.895 2-2v0zM38.5 19c0.828 0 1.5-0.672 1.5-1.5s-0.672-1.5-1.5-1.5c-0.828 0-1.5 0.672-1.5 1.5v0c0 0.828 0.672 1.5 1.5 1.5v0zM38.5 22.5c-0.828 0-1.5 0.672-1.5 1.5s0.672 1.5 1.5 1.5c0.828 0 1.5-0.672 1.5-1.5v0c0-0.828-0.672-1.5-1.5-1.5v0zM38.5 29c-0.828 0-1.5 0.672-1.5 1.5s0.672 1.5 1.5 1.5c0.828 0 1.5-0.672 1.5-1.5v0c0-0.828-0.672-1.5-1.5-1.5v0zM34.5 20c-0.828 0-1.5 0.672-1.5 1.5s0.672 1.5 1.5 1.5c0.828 0 1.5-0.672 1.5-1.5v0c0-0.828-0.672-1.5-1.5-1.5v0zM34.5 26c-0.828 0-1.5 0.672-1.5 1.5s0.672 1.5 1.5 1.5c0.828 0 1.5-0.672 1.5-1.5v0c0-0.828-0.672-1.5-1.5-1.5v0z"></path>
</svg>
