<!-- Generated by IcoMoon.io -->
<svg version="1.1" xmlns="http://www.w3.org/2000/svg" width="32" height="32" viewBox="0 0 32 32">
<title>head-vr</title>
<path d="M30 4h-6.031c-2.404-2.501-5.744-4-9.339-4h-2.13c-4.526 0-8.631 2.419-10.824 6.065-0.944 0.161-1.676 0.945-1.676 1.935v4c0 1.104 0.896 2 2 2h11.5c0.045 0 0.074-0.037 0.116-0.048 1.187 1.256 2.892 2.048 4.724 2.048h11.661c1.104 0 2-0.896 2-2v-8c0-1.104-0.896-2-2-2zM2 12v-4h10.354c-0.256 0.723-0.388 1.503-0.346 2.322 0.031 0.594 0.181 1.148 0.381 1.678h-10.389zM13.536 6.015c-0.014-0.001-0.022-0.015-0.036-0.015h-9.307c1.927-2.411 4.941-4 8.309-4h2.13c2.268 0 4.424 0.737 6.239 2h-2.87c-1.779 0-3.366 0.785-4.464 2.015zM24 14h-6c-2.206 0-4-1.794-4-4s1.794-4 4-4h6v8zM30 14h-4v-8h4v8zM2.887 16h-2.183c0.679 1.909 1.817 3.599 3.296 4.926v10.574c0 0.276 0.224 0.5 0.5 0.5h1c0.276 0 0.5-0.224 0.5-0.5v-11.466l-0.664-0.596c-1.079-0.968-1.884-2.151-2.449-3.438zM24 18v6c0 1.102-0.898 2-2 2h-4v5.5c0 0.276 0.224 0.5 0.5 0.5h1c0.276 0 0.5-0.224 0.5-0.5v-3.5h2c2.209 0 4-1.791 4-4v-4h1.997c1.153 0 1.987-0.947 1.988-2h-5.985z"></path>
</svg>
