<!-- Generated by IcoMoon.io -->
<svg version="1.1" xmlns="http://www.w3.org/2000/svg" width="32" height="32" viewBox="0 0 32 32">
<title>head-side-headphones-solid</title>
<path d="M31.826 17.063c-1.309-2.945-3.027-9.483-4.569-11.672-2.381-3.354-6.251-5.516-10.625-5.516-0 0-0.001 0-0.001 0h-0.631v6.699c2.359 1.125 4 3.513 4 6.301 0 3.866-3.134 7-7 7s-7-3.134-7-7v0c0-2.787 1.641-5.174 4-6.301v-6.519c-5.673 0.954-10 5.875-10 11.82 0 0.001 0 0.001 0 0.002 0 3.542 1.541 6.725 3.988 8.914l0.012 0.010v11.074h16v-4h4c2.209 0 4-1.791 4-4v0-4h2c1.104-0.001 1.998-0.896 1.998-2 0-0.294-0.064-0.574-0.178-0.825l0.005 0.013zM8 12.875c0 2.761 2.239 5 5 5s5-2.239 5-5c0-2.761-2.239-5-5-5v0c-2.761 0-5 2.239-5 5v0zM13 10.875c1.105 0 2 0.895 2 2s-0.895 2-2 2c-1.105 0-2-0.895-2-2v0c0-1.105 0.895-2 2-2v0z"></path>
</svg>
