<!-- Generated by IcoMoon.io -->
<svg version="1.1" xmlns="http://www.w3.org/2000/svg" width="40" height="32" viewBox="0 0 40 32">
<title>head-side-cough-slash-solid</title>
<path d="M28.382 19.951c1.223-0.238 1.976-1.563 1.444-2.763-1.313-2.945-3.031-9.484-4.57-11.672-2.383-3.352-6.251-5.513-10.625-5.516h-2.632c-0.003 0-0.007 0-0.011 0-2.514 0-4.845 0.778-6.768 2.107l0.040-0.026-2.42-1.87c-0.168-0.131-0.382-0.211-0.614-0.211-0.32 0-0.605 0.15-0.788 0.384l-0.002 0.002-1.227 1.579c-0.131 0.168-0.21 0.381-0.21 0.614 0 0.32 0.15 0.605 0.384 0.788l0.002 0.002 36.772 28.42c0.168 0.132 0.382 0.211 0.614 0.211 0.32 0 0.605-0.15 0.788-0.385l0.002-0.002 1.227-1.579c0.131-0.168 0.211-0.381 0.211-0.614 0-0.32-0.15-0.605-0.384-0.788l-0.002-0.002zM19.587 13.153l-3.111-2.403c0.367-0.446 0.902-0.75 1.523-0.75 1.104 0.002 1.998 0.896 2 2v0c0.002 0.438-0.171 0.823-0.411 1.153zM38.5 19c0.828 0 1.5-0.672 1.5-1.5s-0.672-1.5-1.5-1.5c-0.828 0-1.5 0.672-1.5 1.5v0c0 0.828 0.672 1.5 1.5 1.5v0zM34.5 23c0.828 0 1.5-0.672 1.5-1.5s-0.672-1.5-1.5-1.5c-0.828 0-1.5 0.672-1.5 1.5v0c0 0.828 0.672 1.5 1.5 1.5v0zM18 24c0-1.105 0.895-2 2-2v0h1.221l-19.926-15.401c-0.816 1.571-1.295 3.43-1.296 5.4v0c0 3.547 1.547 6.726 4 8.93v11.070h14v-2h4c2.209 0 4-1.791 4-4v0h-6c-1.105 0-2-0.895-2-2v0zM38.5 22.5c-0.828 0-1.5 0.672-1.5 1.5s0.672 1.5 1.5 1.5c0.828 0 1.5-0.672 1.5-1.5v0c0-0.828-0.672-1.5-1.5-1.5v0z"></path>
</svg>
