<!-- Generated by IcoMoon.io -->
<svg version="1.1" xmlns="http://www.w3.org/2000/svg" width="32" height="32" viewBox="0 0 32 32">
<title>headphones</title>
<path d="M16 2c-8.843 0-16 7.156-16 16v3.214c0 0.374 0.205 0.699 0.508 0.871l0.005 0.003 1.488 0.829c-0 0.028-0.001 0.055-0.001 0.083 0 3.866 3.134 7 7 7h1.5c0.828 0 1.5-0.672 1.5-1.5v-11c0-0.828-0.672-1.5-1.5-1.5h-1.5c-3.105 0-5.737 2.021-6.653 4.82l-0.347-0.193v-2.627c0-7.737 6.261-14 14-14 7.737 0 14 6.261 14 14v2.627l-0.347 0.193c-0.916-2.798-3.549-4.82-6.653-4.82h-1.5c-0.828 0-1.5 0.672-1.5 1.5v11c0 0.828 0.672 1.5 1.5 1.5h1.5c3.866 0 7-3.134 7-7 0-0.028-0.001-0.055-0.001-0.083l1.488-0.829c0.308-0.174 0.513-0.5 0.513-0.874v0-3.214c0-8.843-7.156-16-16-16zM9 18h1v10h-1c-2.757 0-5-2.243-5-5s2.243-5 5-5zM23 28h-1v-10h1c2.757 0 5 2.243 5 5s-2.243 5-5 5z"></path>
</svg>
