<!-- Generated by IcoMoon.io -->
<svg version="1.1" xmlns="http://www.w3.org/2000/svg" width="32" height="32" viewBox="0 0 32 32">
<title>head-side-virus-solid</title>
<path d="M17 15c-0.552 0-1 0.448-1 1s0.448 1 1 1c0.552 0 1-0.448 1-1v0c0-0.552-0.448-1-1-1v0zM13 11c-0.552 0-1 0.448-1 1s0.448 1 1 1c0.552 0 1-0.448 1-1v0c0-0.552-0.448-1-1-1v0zM31.825 17.188c-1.308-2.945-3.027-9.483-4.567-11.672-2.382-3.354-6.252-5.516-10.626-5.516-0 0-0.001 0-0.001 0h-4.631c-6.625 0-12 5.375-12 12 0 0.001 0 0.002 0 0.003 0 3.542 1.541 6.724 3.988 8.913l0.012 0.010v11.074h16v-4h4c2.209 0 4-1.791 4-4v0-4h2c1.103-0.001 1.997-0.896 1.997-2 0-0.294-0.064-0.574-0.178-0.825l0.005 0.013zM23 15h-0.758c-1.782 0-2.674 2.154-1.414 3.414l0.536 0.536c0.181 0.181 0.293 0.431 0.293 0.707 0 0.552-0.448 1-1 1-0.276 0-0.526-0.112-0.707-0.293v0l-0.536-0.536c-1.26-1.26-3.414-0.367-3.414 1.414v0.758c0 0.552-0.448 1-1 1s-1-0.448-1-1v0-0.758c0-1.782-2.154-2.674-3.414-1.414l-0.536 0.536c-0.181 0.181-0.431 0.293-0.707 0.293-0.552 0-1-0.448-1-1 0-0.276 0.112-0.526 0.293-0.707v0l0.536-0.536c1.26-1.26 0.367-3.414-1.414-3.414h-0.758c-0.552 0-1-0.448-1-1s0.448-1 1-1v0h0.758c1.782 0 2.674-2.154 1.414-3.414l-0.536-0.536c-0.181-0.181-0.293-0.431-0.293-0.707 0-0.552 0.448-1 1-1 0.276 0 0.526 0.112 0.707 0.293v0l0.536 0.536c1.26 1.26 3.414 0.367 3.414-1.414v-0.758c0-0.552 0.448-1 1-1s1 0.448 1 1v0 0.758c0 1.782 2.154 2.674 3.414 1.414l0.536-0.536c0.181-0.181 0.431-0.293 0.707-0.293 0.552 0 1 0.448 1 1 0 0.276-0.112 0.526-0.293 0.707v0l-0.536 0.536c-1.26 1.26-0.367 3.414 1.414 3.414h0.758c0.552 0 1 0.448 1 1s-0.448 1-1 1v0z"></path>
</svg>
