<!-- Generated by IcoMoon.io -->
<svg version="1.1" xmlns="http://www.w3.org/2000/svg" width="32" height="32" viewBox="0 0 32 32">
<title>headset-solid</title>
<path d="M12 13c0-1.104-0.896-2-2-2h-1c-2.209 0-4 1.791-4 4v3c0 2.209 1.791 4 4 4h1c1.104 0 2-0.896 2-2v-7zM23 22c2.209 0 4-1.791 4-4v-3c0-2.209-1.791-4-4-4h-1c-1.104 0-2 0.896-2 2v7c0 1.104 0.896 2 2 2h1zM16 0c-8.926 0-15.714 7.427-16 16v1c0 0.552 0.448 1 1 1h1c0.553 0 1-0.448 1-1v-1c0-7.168 5.832-13 13-13s13 5.832 13 13h-0.008c0.005 0.152 0.008 10.358 0.008 10.358 0 1.459-1.183 2.642-2.642 2.642h-6.358c0-1.657-1.343-3-3-3h-2c-1.657 0-3 1.343-3 3s1.343 3 3 3h11.358c3.116 0 5.642-2.526 5.642-5.642v-10.358c-0.286-8.573-7.074-16-16-16z"></path>
</svg>
