<!-- Generated by IcoMoon.io -->
<svg version="1.1" xmlns="http://www.w3.org/2000/svg" width="32" height="32" viewBox="0 0 32 32">
<title>head-vr-solid</title>
<path d="M19 4h7v10h-6.715c-2.616 0-4.999-1.882-5.259-4.484-0.299-2.993 2.043-5.516 4.974-5.516zM32 13v-8c0-0.553-0.448-1-1-1h-3v10h3c0.552 0 1-0.447 1-1zM12.036 9.715c-0.197-1.975 0.449-3.947 1.773-5.411s3.217-2.304 5.191-2.304h4.519c-2.027-1.27-4.396-2-6.888-2h-2.631c-5.223 0-9.654 3.342-11.303 8h-1.698c-0.552 0-1 0.447-1 1v2c0 0.553 0.448 1 1 1h11.718c-0.354-0.707-0.601-1.473-0.682-2.285zM31.344 16h-12.059c-1.946 0-3.733-0.771-5.058-2h-12.043c0.462 2.733 1.838 5.152 3.816 6.926v11.074h14v-4h4c2.209 0 4-1.791 4-4v-4h1.997c1.448 0 2.416-1.49 1.828-2.813-0.154-0.348-0.316-0.753-0.481-1.188z"></path>
</svg>
