<!-- Generated by IcoMoon.io -->
<svg version="1.1" xmlns="http://www.w3.org/2000/svg" width="32" height="32" viewBox="0 0 32 32">
<title>head-side</title>
<path d="M31.826 17.188c-1.309-2.945-3.027-9.483-4.567-11.672-2.403-3.416-6.348-5.516-10.627-5.516h-4.13c-6.534 0-12.243 5.005-12.492 11.534-0.142 3.736 1.435 7.099 3.991 9.392v10.574c0 0.276 0.224 0.5 0.5 0.5h1c0.276 0 0.5-0.224 0.5-0.5v-11.466l-0.665-0.596c-2.228-1.998-3.441-4.851-3.328-7.827 0.203-5.299 4.909-9.611 10.494-9.611h4.13c3.574 0 6.936 1.744 8.991 4.666 0.782 1.112 1.819 4.171 2.653 6.629 0.608 1.794 1.183 3.489 1.723 4.704h-3.998v6c0 1.102-0.898 2-2 2h-6v5.5c0 0.276 0.224 0.5 0.5 0.5h1c0.276 0 0.5-0.224 0.5-0.5v-3.5h4c2.209 0 4-1.791 4-4v-4h1.997c1.448 0 2.416-1.49 1.828-2.813zM22 12c0-1.104-0.896-2-2-2s-2 0.896-2 2 0.896 2 2 2 2-0.896 2-2z"></path>
</svg>
