<!-- Generated by IcoMoon.io -->
<svg version="1.1" xmlns="http://www.w3.org/2000/svg" width="32" height="32" viewBox="0 0 32 32">
<title>headset</title>
<path d="M12 14c0-1.104-0.896-2-2-2h-2c-2.209 0-4 1.791-4 4v3.977c0 2.209 1.791 4 4 4h2c1.104 0 2-0.896 2-2v-7.977zM10 21.977h-2c-1.103 0-2-0.898-2-2v-3.977c0-1.102 0.897-2 2-2h2v7.977zM24 23.977c2.209 0 4-1.791 4-4v-3.977c0-2.209-1.791-4-4-4h-2c-1.104 0-2 0.896-2 2v7.977c0 1.104 0.896 2 2 2h2zM22 14h2c1.102 0 2 0.898 2 2v3.977c0 1.102-0.898 2-2 2h-2v-7.977zM16 0c-8.877 0-15.755 7.364-15.994 16l-0.006 1.5c0 0.276 0.224 0.5 0.5 0.5h1c0.276 0 0.5-0.224 0.5-0.5l0.006-1.5c0.209-7.551 6.221-14 13.994-14 7.719 0 14 6.28 14 14v11c0 1.654-1.346 3-3 3h-5.184c0.112-0.314 0.184-0.648 0.184-1 0-1.657-1.343-3-3-3h-4c-1.657 0-3 1.343-3 3s1.343 3 3 3h12c2.758 0 5-2.243 5-5v-11c0-8.822-7.178-16-16-16zM19 30h-4c-0.551 0-1-0.449-1-1s0.449-1 1-1h4c0.551 0 1 0.449 1 1s-0.449 1-1 1z"></path>
</svg>
