<!-- Generated by IcoMoon.io -->
<svg version="1.1" xmlns="http://www.w3.org/2000/svg" width="32" height="32" viewBox="0 0 32 32">
<title>head-side-medical</title>
<path d="M21 13.5v-3c0-0.276-0.224-0.5-0.5-0.5v0h-3.5v-3.5c0-0.276-0.224-0.5-0.5-0.5v0h-3c-0.276 0-0.5 0.224-0.5 0.5v0 3.5h-3.5c-0.276 0-0.5 0.224-0.5 0.5v0 3c0 0.276 0.224 0.5 0.5 0.5v0h3.5v3.5c0 0.276 0.224 0.5 0.5 0.5v0h3c0.276 0 0.5-0.224 0.5-0.5v0-3.5h3.5c0.276 0 0.5-0.224 0.5-0.5v0zM31.826 17.188c-1.309-2.945-3.027-9.483-4.567-11.672-2.382-3.354-6.252-5.516-10.627-5.516-0 0-0 0-0 0h-4.131c-6.533 0-12.242 5.005-12.491 11.534-0.006 0.139-0.009 0.303-0.009 0.467 0 3.543 1.541 6.726 3.989 8.915l0.011 0.010v10.574c0 0.276 0.224 0.5 0.5 0.5v0h1c0.276 0 0.5-0.224 0.5-0.5v0-11.466l-0.665-0.596c-2.051-1.836-3.335-4.491-3.335-7.446 0-0.134 0.003-0.267 0.008-0.4l-0.001 0.019c0.203-5.298 4.909-9.611 10.493-9.611h4.13c3.702 0 6.978 1.829 8.972 4.632l0.023 0.034c0.782 1.112 1.819 4.171 2.653 6.629 0.608 1.794 1.183 3.489 1.723 4.704h-4.001v6c0 1.105-0.895 2-2 2v0h-6v5.5c0 0.276 0.224 0.5 0.5 0.5v0h1c0.276 0 0.5-0.224 0.5-0.5v0-3.5h4c2.209 0 4-1.791 4-4v0-4h2c1.104-0.001 1.998-0.896 1.998-2 0-0.294-0.064-0.574-0.178-0.825l0.005 0.013z"></path>
</svg>
