<!-- Generated by IcoMoon.io -->
<svg version="1.1" xmlns="http://www.w3.org/2000/svg" width="40" height="32" viewBox="0 0 40 32">
<title>head-side-cough-slash</title>
<path d="M26.688 20h1.313c0 0 0 0 0.001 0 1.105 0 2-0.895 2-2 0-0.294-0.064-0.574-0.178-0.825l0.005 0.013c-1.308-2.945-3.027-9.483-4.567-11.672-2.382-3.354-6.252-5.516-10.626-5.516-0.001 0-0.003 0-0.004 0h-2.335c-2.897 0.005-5.56 1.001-7.67 2.666l0.026-0.020-3.215-2.533c-0.085-0.071-0.195-0.114-0.315-0.114-0.156 0-0.296 0.073-0.386 0.187l-0.001 0.001-0.625 0.781c-0.068 0.085-0.11 0.194-0.11 0.312 0 0.157 0.072 0.297 0.186 0.389l0.001 0.001 38.375 30.219c0.051 0.031 0.111 0.053 0.175 0.062l0.003 0 0.022-0.004c0.188 0.046 0.378 0.022 0.5-0.134l0.625-0.781c0.070-0.084 0.113-0.194 0.113-0.313 0-0.157-0.073-0.296-0.187-0.386l-0.001-0.001zM18.828 13.813c0.701-0.319 1.179-1.013 1.179-1.819 0-1.101-0.892-1.993-1.993-1.993-0.005 0-0.010 0-0.015 0h0.001c-0.977 0-1.75 0.714-1.927 1.639l-9.723-7.656c1.742-1.226 3.859-1.983 6.15-1.983h2.131c3.702 0.001 6.977 1.829 8.971 4.632l0.023 0.034c0.782 1.112 1.819 4.172 2.654 6.629 0.608 1.794 1.183 3.489 1.723 4.704h-3.851zM38.5 19c0.828 0 1.5-0.672 1.5-1.5s-0.672-1.5-1.5-1.5c-0.828 0-1.5 0.672-1.5 1.5v0c0 0.828 0.672 1.5 1.5 1.5v0zM34.5 23c0.828 0 1.5-0.672 1.5-1.5s-0.672-1.5-1.5-1.5c-0.828 0-1.5 0.672-1.5 1.5v0c0 0.828 0.672 1.5 1.5 1.5v0zM38.5 22.5c-0.828 0-1.5 0.672-1.5 1.5s0.672 1.5 1.5 1.5c0.828 0 1.5-0.672 1.5-1.5v0c0-0.828-0.672-1.5-1.5-1.5v0zM2.75 15.707c-1.309-3.219-0.806-6.375 0.784-8.852l-1.61-1.27c-1.131 1.691-1.836 3.754-1.917 5.975l-0.001 0.021c-0.005 0.125-0.007 0.272-0.007 0.419 0 3.543 1.541 6.726 3.989 8.916l0.012 0.010v10.574c0 0.276 0.224 0.5 0.5 0.5v0h1c0.276 0 0.5-0.224 0.5-0.5v0-11.466l-0.356-0.319c-1.241-1.113-2.264-2.465-2.894-4.008zM25 25h-3.947c-0.5 0-0.959-0.341-1.039-0.832-0.009-0.050-0.014-0.108-0.014-0.168 0-0.552 0.448-1 1-1 0 0 0 0 0 0h3.040l-2.54-2h-0.375c-1.643 0-3.075 1.266-3.125 2.907-0.001 0.028-0.001 0.060-0.001 0.093 0 1.657 1.343 3 3 3 0 0 0.001 0 0.002 0h3v1c0 1.105-0.895 2-2 2v0h-3.5c-0.276 0-0.5 0.224-0.5 0.5v0 1c0 0.276 0.224 0.5 0.5 0.5v0h3.5c2.209 0 4-1.791 4-4v0-2c0-0.552-0.448-1-1-1v0z"></path>
</svg>
