<!-- Generated by IcoMoon.io -->
<svg version="1.1" xmlns="http://www.w3.org/2000/svg" width="32" height="32" viewBox="0 0 32 32">
<title>head-side-mask-solid</title>
<path d="M0.009 11.526c-0.145 3.737 1.428 7.103 3.991 9.404v11.070h10v-12.218l-13.771-10.016c-0.111 0.513-0.189 1.118-0.219 1.735l-0.001 0.026zM31.826 17.188c-1.313-2.945-3.031-9.484-4.57-11.672-2.383-3.352-6.251-5.513-10.624-5.516h-4.132c-5.188 0-9.845 3.161-11.672 7.728l14.123 10.272h17.034c0-0.012 0-0.025 0-0.039 0-0.28-0.059-0.545-0.164-0.786l0.005 0.013zM20 14c-1.105 0-2-0.895-2-2s0.895-2 2-2c1.105 0 2 0.895 2 2v0c-0.002 1.104-0.896 1.998-2 2h-0zM21 23h10l1-3h-16v12h9.117c1.756-0 3.248-1.132 3.786-2.707l0.008-0.028 0.088-0.265h-8c-0.552 0-1-0.448-1-1s0.448-1 1-1v0h8.667l0.667-2h-9.334c-0.552 0-1-0.448-1-1s0.448-1 1-1v0z"></path>
</svg>
