<!-- Generated by IcoMoon.io -->
<svg version="1.1" xmlns="http://www.w3.org/2000/svg" width="31" height="32" viewBox="0 0 31 32">
<title>heart-circle</title>
<path d="M15.5 0.5c-8.563 0-15.5 6.938-15.5 15.5s6.938 15.5 15.5 15.5 15.5-6.938 15.5-15.5-6.938-15.5-15.5-15.5zM15.5 29.5c-7.444 0-13.5-6.056-13.5-13.5s6.056-13.5 13.5-13.5 13.5 6.056 13.5 13.5-6.056 13.5-13.5 13.5zM22.75 9.6c-2.619-2.269-5.594-0.525-6.556 0.481l-0.694 0.725-0.694-0.725c-1.662-1.744-4.531-2.244-6.556-0.481-2.206 1.912-2.325 5.35-0.35 7.419l6.806 7.131c0.438 0.462 1.15 0.462 1.594 0l6.806-7.131c1.969-2.075 1.856-5.506-0.356-7.419zM21.688 15.631l-6.188 6.487-6.188-6.488c-1.044-1.094-1.275-3.225 0.213-4.506 1.387-1.206 3.125-0.425 3.869 0.356l2.106 2.206 2.106-2.206c0.544-0.575 2.344-1.675 3.869-0.356 1.488 1.281 1.256 3.406 0.212 4.506z"></path>
</svg>
