<!-- Generated by IcoMoon.io -->
<svg version="1.1" xmlns="http://www.w3.org/2000/svg" width="40" height="32" viewBox="0 0 40 32">
<title>heart-rate-solid</title>
<path d="M39 14h-9c-0.758 0-1.451 0.428-1.789 1.106l-1.659 3.318-4.622-16.95c-0.243-0.889-1.066-1.506-1.984-1.472-0.923 0.026-1.708 0.677-1.902 1.58l-4.321 20.168-1.799-6.299c-0.246-0.858-1.030-1.45-1.923-1.45h-9c-0.552 0-1 0.447-1 1v2c0 0.552 0.448 1 1 1h7.491l3.586 12.549c0.246 0.861 1.033 1.45 1.922 1.45 0.023 0 0.046 0 0.068-0.001 0.917-0.031 1.696-0.683 1.889-1.58l4.277-19.962 3.837 14.070c0.222 0.792 0.898 1.379 1.724 1.463l0.009 0.001c0.823 0.075 1.615-0.356 1.986-1.096l3.447-6.894h7.764c0.553 0 1-0.448 1-1v-2c0-0.553-0.447-1-1-1z"></path>
</svg>
