<!-- Generated by IcoMoon.io -->
<svg version="1.1" xmlns="http://www.w3.org/2000/svg" width="28" height="32" viewBox="0 0 28 32">
<title>heart-square</title>
<path d="M21.25 9.1c-0.9-0.781-1.913-1.1-2.9-1.1-1.425 0-2.787 0.669-3.662 1.581l-0.688 0.725-0.694-0.725c-0.856-0.894-2.225-1.581-3.669-1.581-0.981 0-1.987 0.319-2.894 1.1-2.206 1.912-2.325 5.35-0.35 7.419l6.806 7.131c0.438 0.462 1.15 0.462 1.594 0l6.806-7.131c1.975-2.075 1.863-5.506-0.35-7.419zM20.188 15.131l-6.188 6.487-6.188-6.488c-1.044-1.094-1.275-3.225 0.213-4.506 0.512-0.444 1.081-0.619 1.644-0.619 0.869 0 1.706 0.431 2.225 0.975l2.106 2.206 2.106-2.206c0.512-0.537 1.356-0.969 2.225-0.969 0.556 0 1.131 0.175 1.637 0.619 1.494 1.275 1.262 3.4 0.219 4.5zM25 2h-22c-1.656 0-3 1.344-3 3v22c0 1.656 1.344 3 3 3h22c1.656 0 3-1.344 3-3v-22c0-1.656-1.344-3-3-3zM26 27c0 0.55-0.45 1-1 1h-22c-0.55 0-1-0.45-1-1v-22c0-0.55 0.45-1 1-1h22c0.55 0 1 0.45 1 1v22z"></path>
</svg>
