<!-- Generated by IcoMoon.io -->
<svg version="1.1" xmlns="http://www.w3.org/2000/svg" width="32" height="32" viewBox="0 0 32 32">
<title>heart-broken</title>
<path d="M29.606 4.619c-2.475-2.575-5.238-2.606-5.969-2.606-1.794 0-3.594 0.587-5.081 1.763-0.325 0.256-0.438 0.713-0.306 1.1l1.563 4.713-5.363 3.575c-0.387 0.256-0.544 0.75-0.381 1.181l1.381 3.675-4.875-4.875 4.981-3.325c0.375-0.25 0.538-0.719 0.394-1.144l-1.088-3.281c-0.106-0.313-0.287-0.612-0.525-0.838-2.744-2.6-5.056-2.569-5.938-2.569-0.75 0-3.381 0-6.006 2.619-3.044 3.125-3.175 8.081-0.456 11.394l13.256 13.656c0.219 0.225 0.512 0.344 0.8 0.344 0.294 0 0.581-0.113 0.8-0.344l13.269-13.656c2.719-3.313 2.587-8.269-0.456-11.381zM28.563 14.675l-12.563 12.938-12.563-12.938c-2.044-2.55-1.875-6.338 0.375-8.637 1.256-1.263 2.675-2.037 4.588-2.037 1.706 0 3.225 0.644 4.55 2l0.856 2.594-5.363 3.575c-0.525 0.35-0.6 1.094-0.15 1.537l8.181 8.181c0.95 0.95 2.525-0.063 2.056-1.325l-2.313-6.175 5.338-3.563c0.375-0.25 0.538-0.719 0.394-1.15l-1.575-4.737c0.975-0.606 2.1-0.925 3.262-0.925 1.669 0 3.206 0.619 4.537 2.006 2.269 2.319 2.431 6.106 0.387 8.656z"></path>
</svg>
