<!-- Generated by IcoMoon.io -->
<svg version="1.1" xmlns="http://www.w3.org/2000/svg" width="32" height="32" viewBox="0 0 32 32">
<title>heart</title>
<path d="M28.894 3.919c-3.406-2.9-8.5-2.419-11.662 0.844l-1.231 1.275-1.231-1.269c-2.55-2.638-7.694-4.225-11.662-0.85-3.925 3.35-4.131 9.363-0.619 12.988l12.094 12.488c0.387 0.4 0.9 0.606 1.412 0.606s1.025-0.2 1.412-0.606l12.094-12.488c3.525-3.625 3.319-9.637-0.606-12.988zM28.075 15.519l-12.050 12.488-12.1-12.488c-2.4-2.475-2.9-7.194 0.481-10.075 3.425-2.925 7.45-0.806 8.925 0.719l2.669 2.756 2.669-2.756c1.45-1.5 5.512-3.625 8.925-0.719 3.375 2.875 2.881 7.594 0.481 10.075z"></path>
</svg>
