<!-- Generated by IcoMoon.io -->
<svg version="1.1" xmlns="http://www.w3.org/2000/svg" width="32" height="32" viewBox="0 0 32 32">
<title>heartbeat</title>
<path d="M29.294 4.781c-2.819-2.769-5.856-2.781-6.65-2.781s-3.844 0.013-6.644 2.775c-2.794-2.756-5.844-2.775-6.644-2.775-0.794 0-3.838 0.013-6.65 2.781-1.744 1.719-2.706 4.012-2.706 6.463 0 2.138 0.769 4.131 2.112 5.756h7.55l1.869-4.488 3.556 7.9c0.344 0.769 1.431 0.794 1.806 0.038l3.106-6.213 1.381 2.763h8.5c1.344-1.625 2.113-3.619 2.113-5.756 0.006-2.45-0.956-4.744-2.7-6.463zM28.906 15h-6.288l-1.725-3.45c-0.369-0.738-1.419-0.738-1.788 0l-3.056 6.119-3.637-8.081c-0.363-0.8-1.5-0.781-1.838 0.025l-2.244 5.388h-5.237c-0.575-0.912-2.663-5.169 1.144-8.919 1.412-1.388 3.263-2.081 5.119-2.081 2.119 0 3.406 0.394 6.644 3.581 3.438-3.388 4.656-3.581 6.644-3.581 1.856 0 3.706 0.694 5.113 2.081 3.813 3.756 1.719 8.012 1.15 8.919zM16.794 27.712c-0.387 0.381-1.012 0.381-1.4 0l-8.588-8.712h-2.806l9.994 10.137c1.169 1.156 3.038 1.15 4.206 0l9.8-10.137h-2.781l-8.425 8.712z"></path>
</svg>
