<!-- Generated by IcoMoon.io -->
<svg version="1.1" xmlns="http://www.w3.org/2000/svg" width="31" height="32" viewBox="0 0 31 32">
<title>heart-circle-solid</title>
<path d="M15.5 0.5c-8.563 0-15.5 6.938-15.5 15.5s6.938 15.5 15.5 15.5 15.5-6.938 15.5-15.5-6.938-15.5-15.5-15.5zM23.219 17.519l-6.913 7.137c-0.444 0.462-1.169 0.462-1.619 0l-6.906-7.137c-2.006-2.075-1.888-5.512 0.356-7.425 1.956-1.669 4.869-1.369 6.662 0.481l0.706 0.725 0.706-0.725c1.794-1.85 4.706-2.15 6.663-0.481 2.238 1.912 2.356 5.35 0.344 7.425z"></path>
</svg>
