<!-- Generated by IcoMoon.io -->
<svg version="1.1" xmlns="http://www.w3.org/2000/svg" width="28" height="32" viewBox="0 0 28 32">
<title>heart-square-solid</title>
<path d="M25 2h-22c-1.656 0-3 1.344-3 3v22c0 1.656 1.344 3 3 3h22c1.656 0 3-1.344 3-3v-22c0-1.656-1.344-3-3-3zM21.719 17.519l-6.912 7.137c-0.444 0.462-1.169 0.462-1.619 0l-6.906-7.137c-2.006-2.075-1.888-5.512 0.356-7.425 1.956-1.669 4.869-1.369 6.663 0.481l0.706 0.725 0.706-0.725c1.794-1.85 4.706-2.15 6.662-0.481 2.238 1.912 2.356 5.35 0.344 7.425z"></path>
</svg>
