<!-- Generated by IcoMoon.io -->
<svg version="1.1" xmlns="http://www.w3.org/2000/svg" width="40" height="32" viewBox="0 0 40 32">
<title>heart-rate</title>
<path d="M30 14c-0.408 0-0.777 0.249-0.927 0.629l-2.851 7.128-5.25-20.999c-0.114-0.454-0.491-0.748-0.995-0.758-0.469 0.012-0.865 0.346-0.957 0.804l-5.129 25.639-2.92-11.686c-0.112-0.439-0.504-0.758-0.97-0.758-0 0-0 0-0 0h-9.5c-0.276 0-0.5 0.224-0.5 0.5v1c0 0.276 0.224 0.5 0.5 0.5h8.719l3.811 15.242c0.111 0.446 0.514 0.758 0.971 0.758h0.024c0.469-0.012 0.865-0.346 0.957-0.804l5.129-25.639 4.92 19.686c0.106 0.421 0.471 0.726 0.902 0.756 0.476 0.017 0.836-0.224 0.996-0.627l3.75-9.371h8.822c0.276 0 0.5-0.224 0.5-0.5v-1c0-0.276-0.224-0.5-0.5-0.5h-9.5z"></path>
</svg>
