<!-- Generated by IcoMoon.io -->
<svg version="1.1" xmlns="http://www.w3.org/2000/svg" width="32" height="32" viewBox="0 0 32 32">
<title>heartbeat-solid</title>
<path d="M20.012 15.238l-3.106 6.213c-0.375 0.756-1.463 0.731-1.806-0.038l-3.556-7.894-1.875 4.481h-5.881l11.406 11.656c0.444 0.456 1.162 0.456 1.606 0l11.412-11.656h-6.819l-1.381-2.762zM29.606 4.619l-0.15-0.156c-3.219-3.288-8.488-3.288-11.713 0l-1.744 1.787-1.744-1.781c-3.219-3.294-8.494-3.294-11.713 0l-0.15 0.15c-3.044 3.112-3.175 8.069-0.456 11.381h6.4l2.244-5.387c0.338-0.806 1.475-0.825 1.838-0.025l3.637 8.081 3.063-6.119c0.369-0.738 1.419-0.738 1.788 0l1.725 3.45h7.431c2.719-3.313 2.587-8.269-0.456-11.381z"></path>
</svg>
