<!-- Generated by IcoMoon.io -->
<svg version="1.1" xmlns="http://www.w3.org/2000/svg" width="28" height="32" viewBox="0 0 28 32">
<title>heat</title>
<path d="M12 9.599v-6.599c0-0.552-0.448-1-1-1s-1 0.448-1 1v0 6.516c0 0.003 0 0.007 0 0.011 0 3.205 1.191 6.132 3.153 8.363l-0.012-0.014c1.764 2.012 2.859 4.524 2.859 7.202v3.923c0 0.552 0.448 1 1 1s1-0.448 1-1v0-3.849c0-0.003 0-0.008 0-0.012 0-3.204-1.191-6.13-3.154-8.359l0.012 0.014c-1.764-2.011-2.858-4.52-2.858-7.195zM4 8.275v-1.275c0-0.552-0.448-1-1-1s-1 0.448-1 1v0 1c0.008 3.586 1.186 6.895 3.174 9.567l-0.031-0.043c1.772 2.393 2.857 5.226 2.857 8.201v3.275c0 0.552 0.448 1 1 1s1-0.448 1-1v0-3c-0.008-3.586-1.186-6.895-3.174-9.567l0.031 0.043c-1.772-2.393-2.857-5.226-2.857-8.201zM22.857 16.476c-1.773-2.393-2.857-5.226-2.857-8.201v-1.275c0-0.552-0.448-1-1-1s-1 0.448-1 1v0 1c0.008 3.586 1.186 6.895 3.174 9.567l-0.031-0.043c1.773 2.393 2.857 5.226 2.857 8.201v3.275c0 0.552 0.448 1 1 1s1-0.448 1-1v0-3c-0.008-3.586-1.186-6.895-3.174-9.567l0.031 0.043z"></path>
</svg>
