<!-- Generated by IcoMoon.io -->
<svg version="1.1" xmlns="http://www.w3.org/2000/svg" width="28" height="32" viewBox="0 0 28 32">
<title>heat-solid</title>
<path d="M4 9.516v-2.516c0-0.552-0.448-1-1-1v0h-2c-0.552 0-1 0.448-1 1v0 2.516c0 0.002 0 0.004 0 0.006 0 3.533 1.34 6.752 3.54 9.178l-0.010-0.011c1.532 1.699 2.47 3.96 2.47 6.441 0 0.008 0 0.016-0 0.024v-0.001 3.849c0 0.552 0.448 1 1 1v0h2c0.552 0 1-0.448 1-1v0-3.849c0-0.003 0-0.007 0-0.011 0-3.529-1.339-6.745-3.536-9.168l0.010 0.011c-1.535-1.701-2.474-3.966-2.474-6.449 0-0.006 0-0.012 0-0.019v0.001zM24.474 15.982c-1.535-1.701-2.474-3.966-2.474-6.449 0-0.006 0-0.012 0-0.019v0.001-2.516c0-0.552-0.448-1-1-1v0h-2c-0.552 0-1 0.448-1 1v0 2.516c0 0.002 0 0.004 0 0.006 0 3.533 1.34 6.752 3.54 9.178l-0.010-0.011c1.532 1.699 2.47 3.96 2.47 6.441 0 0.008 0 0.016-0 0.024v-0.001 3.849c0 0.552 0.448 1 1 1v0h2c0.552 0 1-0.448 1-1v0-3.849c0-0.003 0-0.007 0-0.011 0-3.529-1.339-6.745-3.536-9.168l0.010 0.011zM13 9.516v-6.516c0-0.552-0.448-1-1-1v0h-2c-0.552 0-1 0.448-1 1v0 6.516c0 0.002 0 0.004 0 0.006 0 3.533 1.34 6.752 3.54 9.178l-0.010-0.011c1.532 1.699 2.47 3.96 2.47 6.441 0 0.008 0 0.016-0 0.024v-0.001 3.849c0 0.552 0.448 1 1 1v0h2c0.552 0 1-0.448 1-1v0-3.849c0-0.003 0-0.007 0-0.011 0-3.529-1.339-6.745-3.536-9.168l0.010 0.011c-1.535-1.701-2.474-3.966-2.474-6.449 0-0.006 0-0.012 0-0.019v0.001z"></path>
</svg>
