<!-- Generated by IcoMoon.io -->
<svg version="1.1" xmlns="http://www.w3.org/2000/svg" width="40" height="32" viewBox="0 0 40 32">
<title>helicopter</title>
<path d="M19 26h17c1.104 0 2-0.896 2-2 0-7.732-6.268-14-14-14v-6h11.5c0.276 0 0.5-0.224 0.5-0.5v-1c0-0.276-0.224-0.5-0.5-0.5h-27c-0.276 0-0.5 0.224-0.5 0.5v1c0 0.276 0.224 0.5 0.5 0.5h13.5v6h-14l-2.7-3.6c-0.189-0.252-0.486-0.4-0.8-0.4h-3.499c-0.651 0-1.128 0.611-0.97 1.242l1.969 6.758 10 4 5.4 7.2c0.369 0.488 0.948 0.8 1.6 0.8 0 0 0 0 0 0v0zM26 12.181c5.666 0.957 10 5.885 10 11.819h-10v-11.819zM13.264 16.351l-9.617-3.846-1.314-4.505h1.667l3 4h17v12h-5l-5.736-7.649zM39.854 29.353l-0.707-0.707c-0.195-0.195-0.512-0.195-0.707 0l-0.475 0.475c-0.563 0.563-1.325 0.878-2.121 0.878h-21.344c-0.276 0-0.5 0.224-0.5 0.5v1c0 0.276 0.224 0.5 0.5 0.5h21.343c1.326 0 2.599-0.527 3.536-1.465l0.474-0.474c0.196-0.195 0.196-0.511 0.001-0.707z"></path>
</svg>
