<!-- Generated by IcoMoon.io -->
<svg version="1.1" xmlns="http://www.w3.org/2000/svg" width="40" height="32" viewBox="0 0 40 32">
<title>helicopter-solid</title>
<path d="M19 24h17c1.104 0 2-0.896 2-2 0-7.732-6.268-14-14-14v-4h11c0.553 0 1-0.447 1-1v-2c0-0.552-0.447-1-1-1h-26c-0.553 0-1 0.448-1 1v2c0 0.553 0.447 1 1 1h11v4h-13l-2.7-3.6c-0.189-0.252-0.486-0.4-0.8-0.4h-2.499c-0.651 0-1.128 0.611-0.97 1.242l1.969 6.758 10 4 5.4 7.2c0.369 0.488 0.948 0.8 1.6 0.8 0 0 0 0 0 0v0zM26 12.219c3.909 0.799 7.002 3.871 7.799 7.781h-7.799v-7.781zM39.711 28.676l-1.384-1.387c-0.391-0.391-1.015-0.381-1.415 0.001-0.443 0.423-0.865 0.703-1.54 0.703h-20.371c-0.553 0-1 0.449-1 1.002v2.004c0 0.553 0.447 1.002 1 1.002h20.371c0.93 0 2.206-0.029 4.278-1.845 0.439-0.384 0.473-1.066 0.061-1.479z"></path>
</svg>
