<!-- Generated by IcoMoon.io -->
<svg version="1.1" xmlns="http://www.w3.org/2000/svg" width="36" height="32" viewBox="0 0 36 32">
<title>helmet-battle-solid</title>
<path d="M2.001 16c1.104 0 1.999-0.785 1.999-1.754v-14.246l-3.939 13.821c-0.316 1.107 0.639 2.179 1.94 2.179zM35.939 13.821l-3.939-13.821v14.246c0 0.969 0.895 1.754 1.999 1.754 1.301 0 2.256-1.072 1.94-2.179zM30 13.176c0-7.529-12-13.176-12-13.176s-12 5.647-12 13.176c0 5.172-1.429 9.119-1.946 11.294-0.214 0.902 0.224 1.836 1.020 2.203l10.926 5.327v-16l-6-2v-2h16v2l-6 2v16l10.926-5.327c0.796-0.367 1.234-1.301 1.020-2.203-0.517-2.176-1.946-6.122-1.946-11.294z"></path>
</svg>
