<!-- Generated by IcoMoon.io -->
<svg version="1.1" xmlns="http://www.w3.org/2000/svg" width="32" height="32" viewBox="0 0 32 32">
<title>helmet-battle</title>
<path d="M31.892 13.961l-5.054-13.678c-0.072-0.194-0.236-0.283-0.401-0.283-0.219 0-0.438 0.158-0.438 0.433v6.649c-3.411-4.877-10-7.082-10-7.082s-6.587 2.205-9.999 7.081v-6.648c0-0.276-0.219-0.433-0.438-0.433-0.164 0-0.329 0.089-0.401 0.283l-5.054 13.678c-0.241 0.941-0.072 1.932 0.463 2.719 0.562 0.827 1.471 1.32 2.431 1.32 0.206 0 0.405-0.026 0.598-0.069-0.462 2.851-1.201 5.094-1.545 6.54-0.214 0.902 0.224 1.836 1.020 2.203l11.925 5.327v-16l-5-1v-1h11.999v1l-5 1v16l11.926-5.327c0.796-0.367 1.234-1.301 1.020-2.203-0.344-1.446-1.083-3.689-1.545-6.54 0.194 0.043 0.393 0.069 0.599 0.069 0.96 0 1.869-0.493 2.431-1.32 0.536-0.787 0.704-1.779 0.463-2.719zM4.001 14.806c0 0.648-0.458 1.194-1 1.194-0.297 0-0.587-0.166-0.776-0.444-0.199-0.292-0.269-0.659-0.197-1.019l1.974-5.342v5.611zM18.999 28.916v-11.277l5-1v-4.639h-15.999v4.639l5 1v11.277l-8.992-4.016c0.094-0.394 0.22-0.847 0.36-1.356 0.649-2.359 1.632-5.926 1.632-10.367 0-6.513 7.713-10.114 10.002-11.039 2.293 0.919 9.997 4.497 9.997 11.039 0 4.442 0.982 8.008 1.632 10.367 0.14 0.509 0.266 0.962 0.36 1.356l-8.992 4.016zM29.776 15.556c-0.189 0.278-0.479 0.444-0.776 0.444-0.542 0-1-0.547-1-1.194v-5.611l1.974 5.342c0.071 0.36 0.001 0.727-0.198 1.019z"></path>
</svg>
