<!-- Generated by IcoMoon.io -->
<svg version="1.1" xmlns="http://www.w3.org/2000/svg" width="34" height="32" viewBox="0 0 34 32">
<title>highlighter</title>
<path d="M33.038 4.744l-3.781-3.783c-0.638-0.639-1.479-0.962-2.321-0.962-0.001 0-0.002 0-0.003 0-0.834 0-1.595 0.312-2.173 0.825l-17.849 15.538c-0.643 0.567-0.896 1.459-0.646 2.281l0.781 2.564-2.284 2.285c-0.421 0.422-0.421 1.105 0 1.527l0.016 0.016-4.779 4.964 6.242 2.001 2.751-2.749c0.422 0.422 1.106 0.422 1.527 0l2.279-2.279 2.557 0.783c1.126 0.344 1.963-0.284 2.282-0.645l15.541-17.869c1.147-1.301 1.086-3.27-0.141-4.496zM5.691 29.722l-2.013-0.646 2.516-2.627 1.384 1.384-1.887 1.888zM16.138 25.785c-0.039 0.045-0.087 0.059-0.145 0.059-0.016 0-0.034-0.001-0.052-0.003l-3.706-1.135-2.478 2.479-2.928-2.93 2.482-2.482-0.35-1.149-0.781-2.564c-0.021-0.071 0.001-0.148 0.046-0.188l2.811-2.447 7.546 7.55-2.444 2.809zM31.67 7.927l-11.773 13.536-7.35-7.354 13.54-11.787c0.281-0.248 1.097-0.605 1.756 0.055l3.78 3.783c0.478 0.478 0.502 1.25 0.046 1.768z"></path>
</svg>
