<!-- Generated by IcoMoon.io -->
<svg version="1.1" xmlns="http://www.w3.org/2000/svg" width="34" height="32" viewBox="0 0 34 32">
<title>highlighter-solid</title>
<path d="M0 29.999l6.245 2.001 2.216-2.216-4.19-4.19-4.271 4.404zM7.788 14.998c-0.475 0.421-0.774 1.033-0.774 1.715 0 0.238 0.036 0.467 0.104 0.683l-0.004-0.016 0.816 2.677-3.183 3.184 6.014 6.014 3.179-3.179 2.671 0.817c0.858 0.262 1.791-0.001 2.384-0.674l2.222-2.602-10.834-10.834-2.595 2.215zM32.995 4.954l-3.95-3.95c-1.281-1.281-3.336-1.345-4.695-0.147l-12.441 10.623 10.611 10.611 10.622-12.441c1.199-1.359 1.134-3.414-0.147-4.696z"></path>
</svg>
