<!-- Generated by IcoMoon.io -->
<svg version="1.1" xmlns="http://www.w3.org/2000/svg" width="24" height="32" viewBox="0 0 24 32">
<title>hiking</title>
<path d="M23.5 10h-1c-0.276 0-0.5 0.224-0.5 0.5v1.684c-0.314-0.112-0.648-0.184-1-0.184h-1.885l-2.769-3.546-0.087-0.088c0.319-0.19 0.625-0.407 0.899-0.681 0.861-0.86 1.315-1.962 1.315-3.185s-0.455-2.325-1.315-3.185c-0.86-0.86-1.961-1.315-3.184-1.315s-2.325 0.455-3.185 1.315-1.315 1.961-1.315 3.185c0 1.129 0.404 2.146 1.14 2.973l-2.865-0.822c-2.799-0.664-5.664 0.984-6.375 3.693l-1.316 5.099c-0.121 0.469-0.049 0.955 0.201 1.371 0.256 0.427 0.666 0.726 1.113 0.832l5.016 1.434-2.299 9.193c-0.399 1.608 0.582 3.238 2.186 3.637 0.237 0.059 0.482 0.089 0.726 0.089 1.381 0 2.578-0.936 2.911-2.275l1.696-6.782 2.393 1.619v4.439c0 1.654 1.346 3 3 3s3-1.346 3-3v-4.971c0-1.609-0.782-3.13-2.092-4.067l-3.033-1.988 0.314-1.254 0.095 0.122c0.573 0.736 1.436 1.157 2.368 1.157h3.349c0.352 0 0.686-0.072 1-0.184v13.684c0 0.276 0.224 0.5 0.5 0.5h1c0.276 0 0.5-0.224 0.5-0.5v-21c0-0.276-0.224-0.5-0.5-0.5zM12.203 2.729c0.486-0.486 1.077-0.729 1.771-0.729s1.285 0.243 1.771 0.729c0.486 0.486 0.729 1.077 0.729 1.771s-0.243 1.285-0.729 1.771c-0.486 0.486-1.077 0.729-1.771 0.729s-1.285-0.243-1.771-0.729c-0.486-0.486-0.729-1.077-0.729-1.771s0.243-1.285 0.729-1.771zM1.995 15.943l0.007-0.028 0.014 0.033-0.021-0.005zM2.042 15.757l1.268-4.91c0.434-1.663 2.215-2.674 3.931-2.262l1.811 0.52c-0.274 0.412-0.491 0.892-0.622 1.406l-0.007 0.032-1.643 6.569-4.739-1.354zM7.971 29.242c-0.113 0.455-0.521 0.758-0.971 0.758-0.080 0-0.16-0.010-0.242-0.030-0.537-0.134-0.861-0.677-0.729-1.212l2.050-8.2 1.764 1.192-1.873 7.492zM21 16h-3.349c-0.309 0-0.599-0.143-0.789-0.386l-2.617-3.363-1.623 6.491c-0.011 0.043-0.052 0.063-0.068 0.103l4.19 2.742c0.787 0.564 1.256 1.476 1.256 2.441v4.971c0 0.552-0.448 1-1 1s-1-0.448-1-1v-4.971c0-0.323-0.156-0.627-0.42-0.814l-6.511-4.401c-0.255-0.184-0.418-0.48-0.418-0.814 0-0.086 0.011-0.169 0.031-0.249l-0.002 0.007 1.684-6.732c0.298-1.172 1.344-2.026 2.589-2.026 0.002 0 0.003 0 0.005 0h-0c0.713 0 1.383 0.277 1.889 0.783l3.293 4.217h2.861c0.552 0 1 0.447 1 1s-0.448 1-1 1z"></path>
</svg>
