<!-- Generated by IcoMoon.io -->
<svg version="1.1" xmlns="http://www.w3.org/2000/svg" width="24" height="32" viewBox="0 0 24 32">
<title>hiking-solid</title>
<path d="M5.059 29.514c-0.268 1.073 0.384 2.158 1.455 2.426 0.163 0.041 0.326 0.059 0.487 0.059 0.896 0 1.711-0.606 1.939-1.514l1.578-6.311-3.299-3.299-2.16 8.639zM5.99 17.257l2.572-9.944c0.137-0.526-0.196-1.059-0.745-1.191-2.743-0.657-5.522 0.942-6.207 3.573l-1.579 6.133c-0.137 0.526 0.196 1.059 0.745 1.191l3.973 0.953c0.549 0.131 1.105-0.189 1.242-0.715zM23 10h-1c-0.552 0-1 0.447-1 1v1h-2.172l-2.924-2.924c-0.693-0.694-1.616-1.076-2.598-1.076-1.689 0-3.154 1.144-3.564 2.783l-1.683 6.732c-0.038 0.146-0.060 0.313-0.060 0.485 0 0.552 0.224 1.053 0.586 1.415l5.414 5.414v5.172c0 1.104 0.896 2 2 2s2-0.896 2-2v-5.172c0-1.068-0.416-2.072-1.172-2.828l-2.926-2.926c0.009-0.031 0.031-0.056 0.039-0.088l1.243-4.973 1.402 1.402c0.375 0.375 0.884 0.586 1.414 0.586h3v15c0 0.552 0.448 1 1 1h1c0.552 0 1-0.448 1-1v-20.001c0.001-0.553-0.447-1-0.999-1zM15 6c1.657 0 3-1.343 3-3s-1.343-3-3-3-3 1.343-3 3 1.343 3 3 3z"></path>
</svg>
