<!-- Generated by IcoMoon.io -->
<svg version="1.1" xmlns="http://www.w3.org/2000/svg" width="40" height="32" viewBox="0 0 40 32">
<title>hippo-solid</title>
<path d="M36.32 6.013c-1.729-0.009-3.281 1.099-4.788 1.664-0.909-2.159-3.043-3.676-5.532-3.676-0.705 0-1.372 0.144-2 0.367v-0.868c0-0.829-0.672-1.5-1.5-1.5h-1c-0.828 0-1.5 0.671-1.5 1.5v3.061c-2.124-1.588-4.922-2.561-8-2.561-6.628 0-12 4.477-12 10v15c0 0.552 0.448 1 1 1h4c0.553 0 1-0.448 1-1v-4.424c2.022 0.898 4.42 1.424 7 1.424s4.978-0.527 7-1.424v4.424c0 0.552 0.448 1 1 1h4c0.552 0 1-0.448 1-1v-11h8v2c0 0.552 0.447 1 1 1h2c0.553 0 1-0.448 1-1v-2c1.104 0 2-0.896 2-2v-5.751c0-2.131-1.549-4.224-3.68-4.236zM28 11c-0.552 0-1-0.447-1-1s0.448-1 1-1 1 0.447 1 1-0.448 1-1 1z"></path>
</svg>
