<!-- Generated by IcoMoon.io -->
<svg version="1.1" xmlns="http://www.w3.org/2000/svg" width="40" height="32" viewBox="0 0 40 32">
<title>hippo</title>
<path d="M36.507 6.018c-1.803-0.094-3.416 1.074-4.975 1.659-0.908-2.16-3.043-3.677-5.532-3.677 0-1.104-0.896-2-2-2h-2c-1.104 0-2 0.896-2 2v2.561c-2.124-1.588-4.922-2.561-8-2.561-6.628 0-12 4.477-12 10v14c0 1.104 0.896 2 2 2h4c1.104 0 2-0.896 2-2v-3.714c1.541 0.449 3.223 0.714 5 0.714s3.459-0.265 5-0.714v3.714c0 1.104 0.896 2 2 2h4c1.104 0 2-0.896 2-2v-10h6v3c0 0.552 0.447 1 1 1h4c0.553 0 1-0.448 1-1v-3c1.104 0 2-0.896 2-2v-6.026c0-2.011-1.485-3.85-3.493-3.956zM24 28h-4v-6.38c-7.502 2.186-8.928 1.478-14 0v6.38h-4v-14c0-4.411 4.486-8 10-8 2.52 0 4.936 0.768 6.803 2.164l1.198 0.894v3.942c0 2.414 1.72 4.434 4 4.899v10.101zM36 20h-2v-2h2v2zM38 16h-13c-1.654 0-3-1.346-3-3v-9h2v2h2c1.614 0 3.063 0.963 3.689 2.452l0.746 1.772c4.557-1.709 4.734-2.242 5.967-2.209 0.866 0.046 1.598 0.943 1.598 1.959v6.026zM26.988 10c-0.552 0-1 0.447-1 1s0.448 1 1 1 1-0.447 1-1-0.448-1-1-1z"></path>
</svg>
