<!-- Generated by IcoMoon.io -->
<svg version="1.1" xmlns="http://www.w3.org/2000/svg" width="32" height="32" viewBox="0 0 32 32">
<title>history-solid</title>
<path d="M31.5 15.971c0.016 8.54-6.949 15.523-15.489 15.529-3.688 0.003-7.076-1.283-9.739-3.432-0.692-0.559-0.744-1.596-0.115-2.225l0.704-0.704c0.538-0.538 1.397-0.597 1.993-0.124 1.962 1.557 4.444 2.486 7.145 2.486 6.357 0 11.5-5.144 11.5-11.5 0-6.357-5.144-11.5-11.5-11.5-3.051 0-5.822 1.186-7.879 3.121l3.172 3.172c0.63 0.63 0.184 1.707-0.707 1.707h-9.086c-0.552 0-1-0.448-1-1v-9.086c0-0.891 1.077-1.337 1.707-0.707l3.086 3.086c2.783-2.659 6.554-4.293 10.707-4.293 8.551 0 15.484 6.924 15.5 15.471zM20.193 20.895l0.614-0.789c0.509-0.654 0.391-1.596-0.263-2.105l-2.544-1.979v-6.522c0-0.828-0.672-1.5-1.5-1.5h-1c-0.828 0-1.5 0.672-1.5 1.5v8.478l4.088 3.18c0.654 0.509 1.596 0.391 2.105-0.263z"></path>
</svg>
