<!-- Generated by IcoMoon.io -->
<svg version="1.1" xmlns="http://www.w3.org/2000/svg" width="40" height="32" viewBox="0 0 40 32">
<title>hockey-sticks</title>
<path d="M39 22h-13.337c-0.188 0-0.363-0.106-0.45-0.275l-1.863-3.725 7.375-14.762c0.244-0.494 0.044-1.094-0.45-1.344l-3.569-1.788c-0.494-0.25-1.094-0.050-1.344 0.45l-5.363 10.731-5.363-10.738c-0.244-0.494-0.85-0.694-1.344-0.45l-3.581 1.788c-0.494 0.25-0.694 0.85-0.45 1.344l7.375 14.762-1.863 3.725c-0.088 0.169-0.256 0.275-0.45 0.275h-13.325c-0.55 0-1 0.45-1 1v8c0 0.55 0.45 1 1 1h11.644c2.275 0 4.35-1.288 5.369-3.319l1.988-3.975 1.988 3.975c1.019 2.031 3.094 3.319 5.369 3.319h11.644c0.55 0 1-0.45 1-1v-7.994c0-0.55-0.45-1-1-1zM11.506 3.237l1.787-0.894 5.588 11.181-1.119 2.237-6.256-12.525zM2 30v-6h2v6h-2zM16.225 27.788c-0.681 1.363-2.050 2.212-3.575 2.212h-6.65v-6h8.338c0.956 0 1.813-0.531 2.238-1.381l10.131-20.275 1.788 0.894-12.269 24.55zM27.356 30c-1.525 0-2.894-0.85-3.575-2.212l-2.656-5.319 1.119-2.238 1.194 2.381c0.425 0.85 1.281 1.381 2.238 1.381h8.325v6h-6.644zM38 30h-2v-6h2v6z"></path>
</svg>
