<!-- Generated by IcoMoon.io -->
<svg version="1.1" xmlns="http://www.w3.org/2000/svg" width="40" height="32" viewBox="0 0 40 32">
<title>hockey-sticks-solid</title>
<path d="M0 23v8c0 0.55 0.45 1 1 1h3v-10h-3c-0.55 0-1 0.45-1 1zM30.288 1.894l-3.575-1.788c-0.494-0.25-1.094-0.044-1.344 0.45l-10.444 20.894c-0.169 0.337-0.512 0.55-0.894 0.55h-8.031v10h7.881c1.512 0 2.9-0.856 3.575-2.212l13.281-26.55c0.244-0.494 0.044-1.094-0.45-1.344zM14.969 14.644l3.356-6.706-3.694-7.388c-0.25-0.494-0.85-0.694-1.344-0.45l-3.581 1.788c-0.494 0.25-0.694 0.85-0.45 1.344l5.713 11.412zM39 22h-3v10h3c0.55 0 1-0.45 1-1v-8c0-0.55-0.45-1-1-1zM25.031 21.356l-3.356 6.706c0.788 1.575 1.587 3.938 4.444 3.938h7.881v-10h-8.025c-0.288 0-0.675-0.106-0.944-0.644z"></path>
</svg>
