<!-- Generated by IcoMoon.io -->
<svg version="1.1" xmlns="http://www.w3.org/2000/svg" width="28" height="32" viewBox="0 0 28 32">
<title>hockey-mask-solid</title>
<path d="M23.538 3.404c-5.184-4.538-13.891-4.538-19.076 0-4.002 3.502-6.4 10.624-2.422 22.596 1.994 6 11.961 6 11.961 6s9.967 0 11.961-6c3.977-11.973 1.579-19.094-2.422-22.596zM18 4c0.552 0 1 0.447 1 1s-0.448 1-1 1-1-0.447-1-1 0.448-1 1-1zM10 4c0.553 0 1 0.447 1 1s-0.447 1-1 1-1-0.447-1-1 0.447-1 1-1zM11 29c-0.553 0-1-0.448-1-1s0.447-1 1-1 1 0.448 1 1-0.447 1-1 1zM11 25c-0.553 0-1-0.448-1-1s0.447-1 1-1 1 0.448 1 1-0.447 1-1 1zM11 21c-0.553 0-1-0.448-1-1s0.447-1 1-1 1 0.448 1 1-0.447 1-1 1zM8 17c-2.209 0-4-1.791-4-4 0-1.104 0.896-2 2-2h4c1.104 0 2 0.896 2 2 0 2.209-1.791 4-4 4zM14 9c-0.553 0-1-0.447-1-1s0.447-1 1-1 1 0.447 1 1-0.447 1-1 1zM17 29c-0.552 0-1-0.448-1-1s0.448-1 1-1 1 0.448 1 1-0.448 1-1 1zM17 25c-0.552 0-1-0.448-1-1s0.448-1 1-1 1 0.448 1 1-0.448 1-1 1zM17 21c-0.552 0-1-0.448-1-1s0.448-1 1-1 1 0.448 1 1-0.448 1-1 1zM20 17c-2.209 0-4-1.791-4-4 0-1.104 0.896-2 2-2h4c1.104 0 2 0.896 2 2 0 2.209-1.791 4-4 4z"></path>
</svg>
