<!-- Generated by IcoMoon.io -->
<svg version="1.1" xmlns="http://www.w3.org/2000/svg" width="28" height="32" viewBox="0 0 28 32">
<title>hockey-mask</title>
<path d="M23.538 3.404c-2.593-2.269-6.066-3.404-9.538-3.404s-6.946 1.134-9.538 3.404c-4.002 3.502-6.4 10.624-2.422 22.596 1.994 6 11.961 6 11.961 6s9.967 0 11.961-6c3.977-11.973 1.579-19.094-2.422-22.596zM24.063 25.369c-1.255 3.777-7.691 4.623-10.063 4.631-0.085 0-8.566-0.126-10.063-4.631-4.221-12.706-0.658-18.273 1.842-20.461 2.111-1.849 5.108-2.909 8.221-2.909s6.109 1.060 8.221 2.909c2.5 2.188 6.063 7.755 1.842 20.461zM17 7c0.552 0 1-0.447 1-1s-0.448-1-1-1-1 0.447-1 1 0.448 1 1 1zM11 7c0.553 0 1-0.447 1-1s-0.447-1-1-1-1 0.447-1 1 0.447 1 1 1zM12 26c-0.553 0-1 0.448-1 1s0.447 1 1 1 1-0.448 1-1-0.447-1-1-1zM12 22c-0.553 0-1 0.448-1 1s0.447 1 1 1 1-0.448 1-1-0.447-1-1-1zM12 18c-0.553 0-1 0.448-1 1s0.447 1 1 1 1-0.448 1-1-0.447-1-1-1zM10.75 11h-4.5c-1.242 0-2.25 0.896-2.25 2 0 2.209 2.014 4 4.5 4s4.5-1.791 4.5-4c0-1.104-1.008-2-2.25-2zM8.5 15c-2.099 0-3.004-2-2.25-2h4.5c0.732 0-0.181 2-2.25 2zM14 8c-0.553 0-1 0.447-1 1s0.447 1 1 1 1-0.447 1-1-0.447-1-1-1zM16 26c-0.553 0-1 0.448-1 1s0.447 1 1 1 1-0.448 1-1-0.448-1-1-1zM16 22c-0.553 0-1 0.448-1 1s0.447 1 1 1 1-0.448 1-1-0.448-1-1-1zM16 18c-0.553 0-1 0.448-1 1s0.447 1 1 1 1-0.448 1-1-0.448-1-1-1zM21.75 11h-4.5c-1.242 0-2.25 0.896-2.25 2 0 2.209 2.015 4 4.5 4s4.5-1.791 4.5-4c0-1.104-1.008-2-2.25-2zM19.5 15c-2.1 0-3.004-2-2.25-2h4.5c0.733 0-0.182 2-2.25 2z"></path>
</svg>
