<!-- Generated by IcoMoon.io -->
<svg version="1.1" xmlns="http://www.w3.org/2000/svg" width="28" height="32" viewBox="0 0 28 32">
<title>holly-berry-solid</title>
<path d="M9 12c1.656 0 3-1.344 3-3s-1.344-3-3-3-3 1.344-3 3 1.344 3 3 3zM16 9c0 1.656 1.344 3 3 3s3-1.344 3-3-1.344-3-3-3-3 1.344-3 3zM14 6c1.656 0 3-1.344 3-3s-1.344-3-3-3-3 1.344-3 3 1.344 3 3 3zM12.988 14.694c0.006-0.775-0.819-1.256-1.488-0.856-2.144 1.269-4.463 2.044-6.794 2.263-0.606 0.056-0.975 0.706-0.725 1.262 0.387 0.869 0.694 1.788 0.919 2.738s-0.331 1.913-1.263 2.194c-0.931 0.281-1.881 0.475-2.831 0.569-0.606 0.063-0.981 0.706-0.731 1.262 0.938 2.050 1.431 4.344 1.438 6.731 0.006 0.9 0.95 1.444 1.725 1 2.075-1.188 4.306-1.906 6.55-2.119 0.606-0.056 0.975-0.706 0.725-1.262-0.387-0.869-0.694-1.788-0.919-2.738s0.331-1.913 1.262-2.194c0.931-0.281 1.881-0.475 2.831-0.569 0.606-0.063 0.981-0.706 0.731-1.262-0.969-2.137-1.456-4.531-1.431-7.019zM27.188 22.85c-0.95-0.1-1.894-0.294-2.831-0.569-0.931-0.281-1.488-1.244-1.262-2.194s0.531-1.863 0.919-2.738c0.25-0.556-0.119-1.206-0.725-1.262-2.331-0.219-4.65-0.994-6.794-2.262-0.669-0.394-1.494 0.088-1.488 0.856 0 0.1-0.012 0.2-0.012 0.306 0.012 2.081 0.438 4.106 1.244 5.875 0.356 0.775 0.325 1.663-0.038 2.431 0.306 0.075 0.619 0.137 0.925 0.231 0.931 0.281 1.488 1.244 1.262 2.194s-0.531 1.863-0.919 2.738c-0.25 0.556 0.119 1.206 0.725 1.262 2.244 0.212 4.475 0.931 6.55 2.119 0.781 0.444 1.725-0.1 1.725-1 0.012-2.387 0.5-4.688 1.438-6.731 0.269-0.544-0.113-1.194-0.719-1.256z"></path>
</svg>
