<!-- Generated by IcoMoon.io -->
<svg version="1.1" xmlns="http://www.w3.org/2000/svg" width="28" height="32" viewBox="0 0 28 32">
<title>holly-berry</title>
<path d="M27.744 21.475c-0.313-0.544-0.863-0.9-1.481-0.962-0.894-0.094-1.813-0.281-2.738-0.556-0.462-0.137-0.738-0.613-0.625-1.087 0.225-0.944 0.525-1.837 0.894-2.663 0.256-0.569 0.219-1.231-0.1-1.769-0.313-0.537-0.863-0.887-1.469-0.944-0.913-0.088-1.825-0.287-2.731-0.55 1.194-0.688 2.006-1.969 2.006-3.444 0-2.144-1.688-3.875-3.8-3.981 0.194-0.469 0.3-0.981 0.3-1.519 0-2.206-1.794-4-4-4s-4 1.788-4 4c0 0.537 0.113 1.050 0.3 1.519-2.113 0.106-3.8 1.837-3.8 3.981 0 1.481 0.813 2.756 2.006 3.45-0.906 0.262-1.819 0.463-2.731 0.55-0.606 0.056-1.163 0.412-1.469 0.944-0.319 0.544-0.35 1.2-0.1 1.769 0.369 0.825 0.669 1.719 0.894 2.663 0.112 0.469-0.162 0.95-0.625 1.087-0.925 0.275-1.85 0.462-2.737 0.556-0.613 0.063-1.169 0.425-1.481 0.962-0.306 0.538-0.344 1.194-0.087 1.75 0.906 1.981 1.387 4.256 1.4 6.575 0.006 0.8 0.412 1.512 1.094 1.9 0.344 0.194 0.712 0.294 1.087 0.294s0.756-0.1 1.106-0.3c2.013-1.15 4.213-1.869 6.369-2.069 0.606-0.056 1.156-0.413 1.469-0.95 0.313-0.544 0.35-1.2 0.094-1.769-0.369-0.825-0.669-1.719-0.887-2.663-0.113-0.469 0.162-0.95 0.625-1.087 0.494-0.15 0.988-0.269 1.475-0.363 0.488 0.094 0.981 0.212 1.475 0.363 0.463 0.137 0.731 0.613 0.625 1.087-0.225 0.944-0.525 1.837-0.887 2.663-0.256 0.569-0.219 1.225 0.094 1.769 0.313 0.538 0.863 0.887 1.475 0.95 2.156 0.2 4.363 0.919 6.369 2.069 0.344 0.2 0.725 0.3 1.1 0.3s0.75-0.1 1.087-0.294c0.681-0.394 1.087-1.106 1.094-1.9 0.012-2.319 0.494-4.594 1.4-6.575 0.256-0.563 0.219-1.219-0.087-1.756zM17.5 7.5c1.1 0 2 0.9 2 2s-0.9 2-2 2-2-0.9-2-2 0.9-2 2-2zM8.5 9.5c0-1.1 0.9-2 2-2s2 0.9 2 2-0.9 2-2 2-2-0.9-2-2zM11.95 21.256c-1.475 0.444-2.35 1.962-1.994 3.462 0.25 1.063 0.594 2.081 1.081 2.925-2.475 0.231-4.894 1.019-7.375 2.337-0.063-0.038-0.094-0.094-0.094-0.181-0.006-2.644-0.538-5.131-1.631-7.3 1.019-0.106 2.063-0.319 3.112-0.631 1.475-0.444 2.35-1.962 1.994-3.462-0.25-1.063-0.594-2.081-1.081-2.925 2.538-0.238 5.112-1.094 7.469-2.456-0.031 2.681 0.5 5.313 1.537 7.613-0.994 0.106-2.006 0.313-3.019 0.619zM14 6c-1.1 0-2-0.9-2-2s0.9-2 2-2 2 0.9 2 2-0.9 2-2 2zM24.431 29.794c0 0.081-0.031 0.144-0.288 0.175-2.288-1.313-4.706-2.094-7.113-2.238 0.419-0.938 0.762-1.95 1.012-3.019 0.294-1.238-0.256-2.475-1.281-3.125 0.281-0.525 0.313-1.156 0.069-1.694-0.887-1.944-1.35-4.162-1.381-6.45 2.1 1.106 4.35 1.813 6.525 1.944-0.419 0.937-0.762 1.95-1.012 3.019-0.356 1.5 0.519 3.019 1.994 3.462 1.050 0.313 2.094 0.525 3.056 0.525-1.044 2.275-1.575 4.762-1.581 7.4z"></path>
</svg>
