<!-- Generated by IcoMoon.io -->
<svg version="1.1" xmlns="http://www.w3.org/2000/svg" width="36" height="32" viewBox="0 0 36 32">
<title>home-heart</title>
<path d="M35.844 13.744l-3.844-3.094v-6.15c0-0.275-0.225-0.5-0.5-0.5h-1c-0.275 0-0.5 0.225-0.5 0.5v4.537l-10.587-8.537c-0.825-0.669-2.006-0.669-2.825 0l-16.431 13.244c-0.181 0.15-0.212 0.412-0.063 0.594l0.887 1.094c0.15 0.181 0.412 0.213 0.6 0.063l2.419-1.95v17.456c0 0.55 0.45 1 1 1h26c0.55 0 1-0.45 1-1v-17.45l2.425 1.956c0.181 0.15 0.45 0.119 0.6-0.063l0.888-1.094c0.144-0.188 0.106-0.456-0.069-0.606zM30 30h-24v-18.069l11.731-9.463c0.156-0.125 0.375-0.125 0.525 0l11.744 9.469v18.063zM17.306 12.594c-1.662-1.744-4.531-2.244-6.556-0.481-2.206 1.912-2.325 5.35-0.35 7.419l6.806 7.131c0.438 0.462 1.15 0.462 1.594 0l6.806-7.131c1.975-2.075 1.863-5.506-0.35-7.419-2.619-2.269-5.594-0.525-6.556 0.481l-0.7 0.731-0.694-0.731zM20.106 13.988c0.544-0.575 2.344-1.675 3.869-0.356 1.488 1.287 1.262 3.406 0.212 4.506l-6.188 6.488-6.188-6.488c-1.044-1.094-1.275-3.225 0.213-4.506 1.387-1.206 3.125-0.425 3.869 0.356l2.106 2.206 2.106-2.206z"></path>
</svg>
