<!-- Generated by IcoMoon.io -->
<svg version="1.1" xmlns="http://www.w3.org/2000/svg" width="36" height="32" viewBox="0 0 36 32">
<title>home-lg</title>
<path d="M35.843 13.744l-3.843-3.093v-6.151c0-0.276-0.224-0.5-0.5-0.5v0h-1c-0.276 0-0.5 0.224-0.5 0.5v0 4.537l-10.587-8.537c-0.382-0.312-0.875-0.501-1.412-0.501s-1.030 0.189-1.416 0.504l0.004-0.003-16.43 13.244c-0.096 0.078-0.158 0.195-0.158 0.328 0 0.101 0.036 0.194 0.096 0.267l-0.001-0.001 0.887 1.094c0.079 0.097 0.198 0.158 0.331 0.158 0.102 0 0.196-0.036 0.27-0.096l-0.001 0.001 2.417-1.949v17.455c0 0.552 0.448 1 1 1v0h26c0.552 0 1-0.448 1-1v0-17.449l2.425 1.956c0.073 0.059 0.166 0.095 0.269 0.095 0.133 0 0.252-0.061 0.331-0.157l0.001-0.001 0.887-1.094c0.055-0.073 0.088-0.166 0.088-0.266 0-0.136-0.061-0.258-0.157-0.34l-0.001-0.001zM21 30h-6v-10h6zM30 30h-7v-11c0-0.552-0.448-1-1-1v0h-8c-0.552 0-1 0.448-1 1v0 11h-7v-18.067l11.732-9.463c0.071-0.058 0.163-0.094 0.262-0.094s0.192 0.035 0.263 0.094l-0.001-0.001 11.743 9.467z"></path>
</svg>
