<!-- Generated by IcoMoon.io -->
<svg version="1.1" xmlns="http://www.w3.org/2000/svg" width="36" height="32" viewBox="0 0 36 32">
<title>home-alt-solid</title>
<path d="M17.523 9.266l-11.523 9.491v10.243c0 0.552 0.448 1 1 1v0l7.004-0.018c0.55-0.003 0.995-0.449 0.995-1 0 0 0 0 0 0v0-5.982c0-0.552 0.448-1 1-1v0h4c0.552 0 1 0.448 1 1v0 5.977c0 0.001 0 0.002 0 0.003 0 0.552 0.448 1 1 1 0 0 0 0 0 0v0l7.001 0.019c0.552 0 1-0.448 1-1v0-10.25l-11.521-9.484c-0.13-0.105-0.296-0.169-0.478-0.169s-0.349 0.064-0.48 0.17l0.001-0.001zM35.725 15.717l-15.821-13.029c-0.514-0.425-1.18-0.683-1.906-0.683s-1.392 0.258-1.911 0.688l0.005-0.004-15.821 13.029c-0.167 0.139-0.272 0.346-0.272 0.578 0 0.182 0.065 0.349 0.173 0.479l-0.001-0.001 1.594 1.938c0.139 0.168 0.347 0.274 0.579 0.274 0.182 0 0.349-0.065 0.479-0.173l-0.001 0.001 14.701-12.109c0.13-0.105 0.296-0.169 0.478-0.169s0.349 0.064 0.48 0.17l-0.001-0.001 14.702 12.109c0.129 0.107 0.296 0.172 0.478 0.172 0.232 0 0.44-0.105 0.577-0.271l0.001-0.001 1.594-1.938c0.106-0.128 0.171-0.295 0.171-0.476 0-0.234-0.107-0.443-0.276-0.581l-0.001-0.001z"></path>
</svg>
