<!-- Generated by IcoMoon.io -->
<svg version="1.1" xmlns="http://www.w3.org/2000/svg" width="36" height="32" viewBox="0 0 36 32">
<title>home-heart-solid</title>
<path d="M4 19.462v11.538c0 0.55 0.45 1 1 1h26c0.55 0 1-0.45 1-1v-11.538c-0.419-0.344-2.794-2.394-14-12.275-11.256 9.931-13.6 11.944-14 12.275zM23.631 17.819c1.725 1.438 1.819 4.012 0.281 5.569l-5.294 5.35c-0.344 0.344-0.894 0.344-1.238 0l-5.294-5.35c-1.537-1.556-1.45-4.131 0.269-5.569 1.5-1.25 3.731-1.025 5.1 0.363l0.538 0.544 0.538-0.544c1.375-1.387 3.606-1.613 5.1-0.363zM4 19.462v-0.019s-0.169 0.156 0 0.019zM35.669 14.769l-3.669-3.238v-8.531c0-0.55-0.45-1-1-1h-4c-0.55 0-1 0.45-1 1v3.231l-6.331-5.588c-0.956-0.856-2.387-0.856-3.344 0l-16 14.125c-0.412 0.369-0.444 1-0.075 1.413l1.337 1.488c0.369 0.413 1 0.444 1.412 0.075l14.337-12.637c0.375-0.331 0.944-0.331 1.325 0l14.331 12.644c0.413 0.369 1.044 0.337 1.413-0.075l1.337-1.488c0.369-0.419 0.337-1.050-0.075-1.419zM32 19.444v0.019c0.181 0.144 0-0.019 0-0.019z"></path>
</svg>
