<!-- Generated by IcoMoon.io -->
<svg version="1.1" xmlns="http://www.w3.org/2000/svg" width="36" height="32" viewBox="0 0 36 32">
<title>home-alt</title>
<path d="M33.813 14.322l-14.553-11.875c-0.342-0.277-0.782-0.445-1.262-0.445s-0.92 0.168-1.266 0.448l0.004-0.003-14.548 11.875c-0.113 0.092-0.184 0.232-0.184 0.388 0 0.12 0.042 0.23 0.112 0.316l-0.001-0.001 0.631 0.776c0.092 0.113 0.232 0.184 0.388 0.184 0.119 0 0.228-0.041 0.313-0.11l-0.001 0.001 2.554-2.086v15.188c0 0.552 0.448 1 1 1v0h8c0.552 0 1-0.448 1-1v0-8l4 0.019v8.005c0 0.552 0.448 1 1 1v0l8-0.021c0.552 0 1-0.448 1-1v0-15.191l2.554 2.086c0.085 0.070 0.195 0.112 0.315 0.112 0.156 0 0.295-0.072 0.387-0.184l0.001-0.001 0.631-0.776c0.069-0.085 0.111-0.195 0.111-0.315 0-0.157-0.073-0.297-0.186-0.389l-0.001-0.001zM27.993 27.984h0.006l-6 0.019v-8.011c-0.002-0.55-0.447-0.996-0.997-1h-0l-6-0.017c-0.001 0-0.002 0-0.003 0-0.552 0-1 0.448-1 1 0 0 0 0 0 0v0 8.009h-5.999v-15.828l10-8.161 10 8.161z"></path>
</svg>
