<!-- Generated by IcoMoon.io -->
<svg version="1.1" xmlns="http://www.w3.org/2000/svg" width="36" height="32" viewBox="0 0 36 32">
<title>home-lg-alt-solid</title>
<path d="M18 7.188l-13.658 12.044c-0.101 0.091-0.231 0.134-0.342 0.209v11.559c0 0.552 0.448 1 1 1v0h8c0.552 0 1-0.448 1-1v0-8c0-0.552 0.448-1 1-1v0h6c0.552 0 1 0.448 1 1v0 8c0 0.552 0.448 1 1 1v0h8c0.552 0 1-0.448 1-1v0-11.556c-0.106-0.073-0.233-0.114-0.329-0.2zM35.668 14.768l-15.996-14.125c-0.44-0.399-1.027-0.643-1.67-0.643s-1.23 0.244-1.672 0.645l0.002-0.002-16 14.125c-0.204 0.184-0.332 0.449-0.332 0.744 0 0.257 0.097 0.492 0.257 0.669l-0.001-0.001 1.338 1.489c0.184 0.204 0.449 0.332 0.744 0.332 0.257 0 0.492-0.097 0.669-0.257l-0.001 0.001 14.333-12.643c0.175-0.155 0.407-0.25 0.662-0.25s0.486 0.095 0.663 0.251l-0.001-0.001 14.332 12.642c0.176 0.159 0.411 0.256 0.668 0.256 0.295 0 0.56-0.128 0.743-0.331l0.001-0.001 1.337-1.489c0.159-0.176 0.256-0.411 0.256-0.668 0-0.295-0.128-0.56-0.331-0.743l-0.001-0.001z"></path>
</svg>
