<!-- Generated by IcoMoon.io -->
<svg version="1.1" xmlns="http://www.w3.org/2000/svg" width="36" height="32" viewBox="0 0 36 32">
<title>hood-cloak</title>
<path d="M35.603 28.803c-3.604-4.811-3.604-8.803-3.604-8.803v-4c0-5.252-2.898-7.691-6.323-11.419l2.484-2.484c0.774-0.774 0.226-2.097-0.869-2.097h-9.318c-5.974 0-13.972 6.841-13.972 16v4s0 3.992-3.604 8.803c-0.986 1.316-0.021 3.197 1.623 3.197h31.959c1.644 0 2.609-1.881 1.624-3.197zM11.999 30v-10c0-3.309 2.691-6 5.999-6s5.999 2.691 5.999 6v10h-11.999zM25.997 30.001v-10.001c0-4.418-3.581-8-7.999-8s-7.999 3.582-7.999 8v10.001l-8.001 0.001c3.958-5.283 4.004-9.812 4.004-10.002v-4c0-8.121 7.151-14 11.972-14h7.455l-2.522 2.522s2.053 2.225 2.418 2.614c2.816 2.999 4.676 4.98 4.676 8.863v4c0 0.19 0.046 4.719 3.981 10l-7.983 0.001z"></path>
</svg>
