<!-- Generated by IcoMoon.io -->
<svg version="1.1" xmlns="http://www.w3.org/2000/svg" width="36" height="32" viewBox="0 0 36 32">
<title>hood-cloak-solid</title>
<path d="M18.017 12c-4.418 0-8 3.582-8 8v12h16v-12c0-4.418-3.581-8-8-8zM35.602 28.802c-3.604-4.811-3.604-8.802-3.604-8.802h0.004v-4c0-5.252-2.898-7.691-6.324-11.419l2.484-2.484c0.774-0.774 0.226-2.097-0.868-2.097h-9.319c-5.975 0-13.973 6.841-13.973 16v4s0 3.992-3.604 8.803c-0.279 0.372-0.402 0.79-0.398 1.198 0.012 1.032 0.841 2 2.021 2h5.996v-12c0-5.514 4.486-10 10-10s10 4.486 10 10v12h5.962c1.179 0 2.009-0.968 2.021-2 0.004-0.407-0.118-0.825-0.398-1.198z"></path>
</svg>
