<!-- Generated by IcoMoon.io -->
<svg version="1.1" xmlns="http://www.w3.org/2000/svg" width="36" height="32" viewBox="0 0 36 32">
<title>horse-solid</title>
<path d="M35.995 4.787c-0.001-0.508-0.189-0.992-0.536-1.362-0.236-0.252-0.536-0.57-0.856-0.906 0.691-0.428 1.219-1.093 1.386-1.916 0.064-0.31-0.179-0.603-0.496-0.603h-7.499c-4.418 0-8 3.582-8 8h-9.995c-1.803 0-3.4 0.811-4.5 2.069v-0.069c-3.033 0-5.5 2.467-5.5 5.5v3.5c0 0.552 0.448 1 1 1h1c0.553 0 1-0.448 1-1v-3.5c0-0.826 0.429-1.524 1.049-1.98-0.013 0.161-0.049 0.316-0.049 0.48 0 1.727 0.74 3.273 1.909 4.367l-1.607 4.288c-0.161 0.417-0.255 0.899-0.255 1.404 0 0.345 0.044 0.679 0.126 0.998l-0.006-0.028 1.553 6.213c0.112 0.438 0.503 0.758 0.969 0.758 0 0 0 0 0 0h4.123c0.651 0 1.128-0.611 0.97-1.242l-1.644-6.579 1.49-3.974 8.373 1.396v9.4c0 0.552 0.448 1 1 1h4c0.552 0 1-0.448 1-1v-11.111c1.234-1.262 2-2.984 2-4.889 0-0.014-0.004-0.026-0.005-0.040v-6.404l1 0.444 1.181 2.356c0.466 0.929 1.566 1.347 2.531 0.961l2.034-0.814c0.743-0.303 1.258-1.020 1.258-1.857 0-0.001 0-0.001 0-0.002v0l-0.004-4.857zM31.995 6c-0.552 0-1-0.447-1-1s0.448-1 1-1 1 0.447 1 1-0.447 1-1 1z"></path>
</svg>
