<!-- Generated by IcoMoon.io -->
<svg version="1.1" xmlns="http://www.w3.org/2000/svg" width="36" height="32" viewBox="0 0 36 32">
<title>horse-saddle</title>
<path d="M35.996 5.392c0-0.601-0.229-0.996-0.571-1.411 0.329-0.568 0.524-1.25 0.524-1.977 0-0.001 0-0.003 0-0.004v0c0-1.105-0.895-2-2-2v0h-6.949c-4.416 0.005-7.995 3.584-8 8v0h-8.789c-2.25 0-4.205 1.214-5.294 3.008-2.723 0.047-4.912 2.263-4.916 4.992v3.5c0 0.276 0.224 0.5 0.5 0.5v0h1c0.276 0 0.5-0.224 0.5-0.5v0-3.5c0.003-1.334 0.879-2.462 2.086-2.844l0.021-0.006c-0.063 0.317-0.102 0.683-0.107 1.058l-0 0.004c0.002 1.565 0.583 2.993 1.539 4.084l-0.006-0.007-1.375 4.643c-0.101 0.335-0.16 0.72-0.16 1.118 0 0.329 0.040 0.649 0.115 0.955l-0.006-0.027 1.32 5.491c0.219 0.885 1.006 1.531 1.944 1.531 0.001 0 0.002 0 0.004 0h3.595c1.104-0.001 1.999-0.896 1.999-2 0-0.174-0.022-0.344-0.064-0.505l0.003 0.014-1.356-5.349 1.206-3.358 5.242 1.164v8.033c0 1.105 0.895 2 2 2v0h4c1.105 0 2-0.895 2-2v0-9.762c1.238-1.289 2-3.043 2-4.975 0-0 0-0.001 0-0.001v0-3.157l0.91 1.364c1.194 1.792 3.125 1.292 3.465 1.174l1.596-0.545c1.19-0.414 2.029-1.526 2.029-2.835 0-0.002 0-0.003 0-0.005v0zM14 19.029l-2.527-0.563-2.008 5.596 1.506 5.938h-3.596l-1.321-5.491c-0.033-0.137-0.051-0.295-0.051-0.457 0-0.196 0.027-0.386 0.079-0.566l-0.004 0.015 1.726-5.837c-1.099-0.766-1.81-2.023-1.81-3.447 0-1.891 1.254-3.49 2.976-4.010l0.030-0.008v0.802c0.004 2.955 2.147 5.409 4.964 5.894l0.036 0.005zM11 11v-1h8v1c0 2.209-1.791 4-4 4s-4-1.791-4-4v0zM34 11.261c0 0.394-0.303 0.819-0.678 0.946l-1.594 0.543c-0.584 0.199-1.010-0.172-1.156-0.392l-1.573-2.358-3-1v6.262c0 1.668-0.789 3.136-2 4.101v10.637h-4v-9.637l-4-0.889v-2.574c2.853-0.491 4.996-2.944 5-5.899v-3c0-3.314 2.686-6 6-6v0h6.949c-0 0.825-0.5 1.533-1.214 1.839l-0.013 0.005 1.274 1.549 0.004 5.867zM30 5c-0.552 0-1 0.448-1 1s0.448 1 1 1c0.552 0 1-0.448 1-1v0c0-0.552-0.448-1-1-1v0z"></path>
</svg>
