<!-- Generated by IcoMoon.io -->
<svg version="1.1" xmlns="http://www.w3.org/2000/svg" width="32" height="32" viewBox="0 0 32 32">
<title>horse-head</title>
<path d="M18.5 11c-0.831 0-1.5 0.669-1.5 1.5s0.669 1.5 1.5 1.5 1.5-0.669 1.5-1.5-0.669-1.5-1.5-1.5zM31.744 18.7c-4.556-9.825-4.725-10.919-7.344-12.588 0.637-1.244 0.781-2.712 0.381-4.256-0.294-1.094-1.288-1.856-2.431-1.856-0.813 0-0.744 0.131-5.075 2.019-9.85 4.306-17.275 6.675-17.275 21.788v5.194c0 1.656 1.344 3 3 3h14c1.906 0 3.394-1.788 2.913-3.725l-1.144-4.581c0.406-0.15 0.788-0.337 1.156-0.55l0.919 1.288c0.712 0.988 1.85 1.575 3.056 1.575h1.881c0.975 0 1.894-0.369 2.6-1.044l2.531-2.231c1.044-1.063 1.375-2.637 0.831-4.031zM29.488 21.313l-2.475 2.175c-0.325 0.325-0.775 0.512-1.238 0.512h-1.881c-0.563 0-1.094-0.269-1.419-0.725l-2.244-2.837c-1.081 1.069-2.538 1.762-4.181 1.762-2.45 0-4.537-1.481-5.463-3.587-0.137-0.319-0.556-0.394-0.806-0.15l-0.756 0.756c-0.15 0.15-0.194 0.387-0.1 0.581 1.319 2.6 4.012 4.394 7.125 4.394 0.262 0 0.506-0.050 0.762-0.075l1.156 4.631c0.163 0.65-0.337 1.244-0.969 1.244h-14c-0.55 0-1-0.45-1-1v-5.194c0-15.6 7.469-15.956 20.188-21.781 1.094-0.394 1.575 3.206-1.212 4.838 2.331 0.45 4.269 2.075 5.081 4.331l3.825 8.238c0.25 0.656 0.1 1.394-0.394 1.887z"></path>
</svg>
