<!-- Generated by IcoMoon.io -->
<svg version="1.1" xmlns="http://www.w3.org/2000/svg" width="36" height="32" viewBox="0 0 36 32">
<title>horse-saddle-solid</title>
<path d="M8 10v-1.614c-0.994 0.359-1.834 0.936-2.495 1.678l-0.005 0.006v-0.069c-3.036 0.003-5.497 2.464-5.5 5.5v3.5c0 0.552 0.448 1 1 1v0h1c0.552 0 1-0.448 1-1v0-3.5c0-0.826 0.429-1.524 1.049-1.981-0.014 0.162-0.049 0.317-0.049 0.481 0.002 1.724 0.734 3.276 1.904 4.364l0.004 0.003-1.607 4.288c-0.161 0.417-0.254 0.899-0.254 1.404 0 0.345 0.044 0.68 0.125 0.999l-0.006-0.028 1.553 6.212c0.106 0.418 0.539 0.758 0.969 0.758h4.125c0 0 0 0 0 0 0.552 0 1-0.448 1-1 0-0.086-0.011-0.17-0.031-0.249l0.002 0.007-1.646-6.579 1.488-3.974 1.375 0.229v-4.534c-2.853-0.491-4.996-2.944-5-5.899v-0zM18 10v-2h-8v2c0 2.209 1.791 4 4 4s4-1.791 4-4v0zM35.994 4.787c0-0.002 0-0.005 0-0.008 0-0.524-0.204-1.001-0.536-1.355l0.001 0.001c-0.236-0.25-0.537-0.569-0.856-0.906 0.692-0.428 1.219-1.093 1.387-1.916 0.006-0.029 0.009-0.062 0.009-0.096 0-0.279-0.226-0.506-0.505-0.507h-7.5c-4.396 0.001-7.962 3.549-7.994 7.938l-0 0.003v2.063c-0.004 2.955-2.147 5.409-4.964 5.894l-0.036 0.005v4.867l5 0.833v9.398c0 0.552 0.448 1 1 1v0h4c0.552 0 1-0.448 1-1v0-11.111c1.237-1.257 2-2.982 2-4.886 0-0.001 0-0.002 0-0.003v0c-0.001-0.015-0.003-0.028-0.007-0.042l0 0.002v-6.404l1 0.444 1.182 2.356c0.336 0.659 1.010 1.103 1.788 1.103 0.268 0 0.523-0.053 0.757-0.148l-0.013 0.005 2.035-0.813c0.696-0.278 1.258-1.11 1.258-1.857zM31.994 6c-0.552 0-1-0.448-1-1s0.448-1 1-1c0.552 0 1 0.448 1 1v0c0 0.552-0.448 1-1 1v0z"></path>
</svg>
