<!-- Generated by IcoMoon.io -->
<svg version="1.1" xmlns="http://www.w3.org/2000/svg" width="36" height="32" viewBox="0 0 36 32">
<title>horse</title>
<path d="M35.997 5.392c-0.001-0.601-0.229-0.995-0.571-1.41 0.337-0.591 0.524-1.27 0.524-1.982 0-1.104-0.896-2-2-2h-6.949c-4.411 0-8 3.589-8 8h-8.79c-2.249 0-4.204 1.214-5.294 3.008-2.721 0.046-4.916 2.259-4.916 4.992v3.5c0 0.276 0.224 0.5 0.5 0.5h1c0.276 0 0.5-0.224 0.5-0.5v-3.5c0-1.344 0.889-2.467 2.107-2.849-0.060 0.346-0.107 0.697-0.107 1.060 0 1.512 0.556 2.958 1.533 4.078l-1.373 4.642c-0.195 0.673-0.211 1.377-0.050 2.046l1.321 5.491c0.216 0.898 1.019 1.532 1.944 1.532h3.596c1.309 0 2.258-1.234 1.939-2.491l-1.355-5.348 1.206-3.358 5.24 1.164v8.033c0 1.104 0.896 2 2 2h4c1.104 0 2-0.896 2-2v-9.762c1.281-1.344 2-3.109 2-4.975v-3.158l0.909 1.364c1.194 1.792 3.124 1.292 3.466 1.175l1.595-0.544c1.215-0.414 2.031-1.556 2.031-2.841l-0.004-5.867zM33.323 12.207l-1.595 0.544c-0.583 0.199-1.009-0.172-1.155-0.392l-1.573-2.359-3-1v6.263c0 1.667-0.79 3.136-2 4.1v10.637h-4v-9.637l-8.527-1.895-2.008 5.592 1.505 5.941h-3.596l-1.321-5.491c-0.035-0.139-0.055-0.298-0.055-0.462 0-0.196 0.028-0.385 0.081-0.563l-0.004 0.014 1.727-5.838c-1.089-0.761-1.804-2.019-1.804-3.449 0-2.326 1.885-4.211 4.211-4.211h10.789v-2c0-3.314 2.686-6 6-6h6.949c0 0.831-0.507 1.542-1.227 1.844l1.274 1.549 0.003 5.867c0 0 0 0 0 0.001 0 0.437-0.28 0.808-0.67 0.944l-0.007 0.002zM30 5c-0.552 0-1 0.447-1 1s0.448 1 1 1 1-0.447 1-1-0.448-1-1-1z"></path>
</svg>
