<!-- Generated by IcoMoon.io -->
<svg version="1.1" xmlns="http://www.w3.org/2000/svg" width="32" height="32" viewBox="0 0 32 32">
<title>horse-head-solid</title>
<path d="M31.863 20.781l-4.369-10.269c-0.931-2.575-3.15-4.438-5.813-4.95 1.125-0.662 2.894-2.244 2.137-5.144-0.081-0.313-0.444-0.494-0.75-0.381l-12.637 4.731c-8.188 2.944-10.431 10.162-10.431 20.156v5.075c0 1.106 0.894 2 2 2h14.762c1.488 0 2.456-1.563 1.788-2.894l-2.55-5.106v-0.044c-2.85-0.219-5.287-1.919-6.519-4.35-0.1-0.194-0.056-0.431 0.1-0.581l0.756-0.756c0.244-0.244 0.662-0.169 0.806 0.15 0.925 2.106 3.013 3.587 5.463 3.587 1.075 0 2.063-0.319 2.925-0.825l2.875 3.994c0.375 0.525 0.981 0.831 1.625 0.831h3.144c0.531 0 1.038-0.212 1.413-0.587l2.831-2.488c0.556-0.569 0.731-1.413 0.444-2.15zM20.5 14c-0.831 0-1.5-0.669-1.5-1.5s0.669-1.5 1.5-1.5 1.5 0.669 1.5 1.5-0.669 1.5-1.5 1.5z"></path>
</svg>
