<!-- Generated by IcoMoon.io -->
<svg version="1.1" xmlns="http://www.w3.org/2000/svg" width="40" height="32" viewBox="0 0 40 32">
<title>hospitals</title>
<path d="M9.25 12h-2.5c-0.414 0-0.75 0.336-0.75 0.75v0 2.5c0 0.414 0.336 0.75 0.75 0.75v0h2.5c0.414 0 0.75-0.336 0.75-0.75v0-2.5c0-0.414-0.336-0.75-0.75-0.75v0zM9.25 18h-2.5c-0.414 0-0.75 0.336-0.75 0.75v0 2.5c0 0.414 0.336 0.75 0.75 0.75v0h2.5c0.414 0 0.75-0.336 0.75-0.75v0-2.5c0-0.414-0.336-0.75-0.75-0.75v0zM9.25 24h-2.5c-0.414 0-0.75 0.336-0.75 0.75v0 2.5c0 0.414 0.336 0.75 0.75 0.75v0h2.5c0.414 0 0.75-0.336 0.75-0.75v0-2.5c0-0.414-0.336-0.75-0.75-0.75v0zM15.25 18h-2.5c-0.414 0-0.75 0.336-0.75 0.75v0 2.5c0 0.414 0.336 0.75 0.75 0.75v0h2.5c0.414 0 0.75-0.336 0.75-0.75v0-2.5c0-0.414-0.336-0.75-0.75-0.75v0zM15.25 12h-2.5c-0.414 0-0.75 0.336-0.75 0.75v0 2.5c0 0.414 0.336 0.75 0.75 0.75v0h2.5c0.414 0 0.75-0.336 0.75-0.75v0-2.5c0-0.414-0.336-0.75-0.75-0.75v0zM15.25 24h-2.5c-0.414 0-0.75 0.336-0.75 0.75v0 2.5c0 0.414 0.336 0.75 0.75 0.75v0h2.5c0.414 0 0.75-0.336 0.75-0.75v0-2.5c0-0.414-0.336-0.75-0.75-0.75v0zM12 8h1.625c0.207 0 0.375-0.168 0.375-0.375v0-1.25c0-0.207-0.168-0.375-0.375-0.375v0h-1.625v-1.625c0-0.207-0.168-0.375-0.375-0.375v0h-1.25c-0.207 0-0.375 0.168-0.375 0.375v0 1.625h-1.625c-0.207 0-0.375 0.168-0.375 0.375v0 1.25c0 0.207 0.168 0.375 0.375 0.375v0h1.625v1.625c0 0.207 0.168 0.375 0.375 0.375v0h1.25c0.207 0 0.375-0.168 0.375-0.375v0zM29.25 12h-2.5c-0.414 0-0.75 0.336-0.75 0.75v0 2.5c0 0.414 0.336 0.75 0.75 0.75v0h2.5c0.414 0 0.75-0.336 0.75-0.75v0-2.5c0-0.414-0.336-0.75-0.75-0.75v0zM29.25 18h-2.5c-0.414 0-0.75 0.336-0.75 0.75v0 2.5c0 0.414 0.336 0.75 0.75 0.75v0h2.5c0.414 0 0.75-0.336 0.75-0.75v0-2.5c0-0.414-0.336-0.75-0.75-0.75v0zM29.25 24h-2.5c-0.414 0-0.75 0.336-0.75 0.75v0 2.5c0 0.414 0.336 0.75 0.75 0.75v0h2.5c0.414 0 0.75-0.336 0.75-0.75v0-2.5c0-0.414-0.336-0.75-0.75-0.75v0zM35.25 18h-2.5c-0.414 0-0.75 0.336-0.75 0.75v0 2.5c0 0.414 0.336 0.75 0.75 0.75v0h2.5c0.414 0 0.75-0.336 0.75-0.75v0-2.5c0-0.414-0.336-0.75-0.75-0.75v0zM35.25 12h-2.5c-0.414 0-0.75 0.336-0.75 0.75v0 2.5c0 0.414 0.336 0.75 0.75 0.75v0h2.5c0.414 0 0.75-0.336 0.75-0.75v0-2.5c0-0.414-0.336-0.75-0.75-0.75v0zM35.25 24h-2.5c-0.414 0-0.75 0.336-0.75 0.75v0 2.5c0 0.414 0.336 0.75 0.75 0.75v0h2.5c0.414 0 0.75-0.336 0.75-0.75v0-2.5c0-0.414-0.336-0.75-0.75-0.75v0zM32 8h1.625c0.207 0 0.375-0.168 0.375-0.375v0-1.25c0-0.207-0.168-0.375-0.375-0.375v0h-1.625v-1.625c0-0.207-0.168-0.375-0.375-0.375v0h-1.25c-0.207 0-0.375 0.168-0.375 0.375v0 1.625h-1.625c-0.207 0-0.375 0.168-0.375 0.375v0 1.25c0 0.207 0.168 0.375 0.375 0.375v0h1.625v1.625c0 0.207 0.168 0.375 0.375 0.375v0h1.25c0.207 0 0.375-0.168 0.375-0.375v0zM40 6h-1v-4c0-1.105-0.895-2-2-2v0h-12c-1.105 0-2 0.895-2 2v0 4h-4v-4c0-1.105-0.895-2-2-2v0h-12c-1.105 0-2 0.895-2 2v0 4h-1c-1.105 0-2 0.895-2 2v0 23.5c0 0.276 0.224 0.5 0.5 0.5v0h1c0.276 0 0.5-0.224 0.5-0.5v0-23.5h3v-6h12v6h3v23.5c0 0.276 0.224 0.5 0.5 0.5v0h1c0.276 0 0.5-0.224 0.5-0.5v0-23.5h3v-6h12v6h3v23.5c0 0.276 0.224 0.5 0.5 0.5v0h1c0.276 0 0.5-0.224 0.5-0.5v0-23.5c0-1.105-0.895-2-2-2v0z"></path>
</svg>
