<!-- Generated by IcoMoon.io -->
<svg version="1.1" xmlns="http://www.w3.org/2000/svg" width="28" height="32" viewBox="0 0 28 32">
<title>hospital</title>
<path d="M11.25 22h-2.5c-0.414 0-0.75-0.336-0.75-0.75v-2.5c0-0.414 0.336-0.75 0.75-0.75h2.5c0.414 0 0.75 0.336 0.75 0.75v2.5c0 0.414-0.336 0.75-0.75 0.75zM16.75 22h2.5c0.414 0 0.75-0.336 0.75-0.75v-2.5c0-0.414-0.336-0.75-0.75-0.75h-2.5c-0.414 0-0.75 0.336-0.75 0.75v2.5c0 0.414 0.336 0.75 0.75 0.75zM8.75 16h2.5c0.414 0 0.75-0.336 0.75-0.75v-2.5c0-0.414-0.336-0.75-0.75-0.75h-2.5c-0.414 0-0.75 0.336-0.75 0.75v2.5c0 0.414 0.336 0.75 0.75 0.75zM16.75 16h2.5c0.414 0 0.75-0.336 0.75-0.75v-2.5c0-0.414-0.336-0.75-0.75-0.75h-2.5c-0.414 0-0.75 0.336-0.75 0.75v2.5c0 0.414 0.336 0.75 0.75 0.75zM28 32h-28v-1.25c0-0.414 0.336-0.75 0.75-0.75h1.25v-24.688c0-0.725 0.672-1.313 1.5-1.313h5.5v-2.5c0-0.828 0.672-1.5 1.5-1.5h7c0.828 0 1.5 0.672 1.5 1.5v2.5h5.5c0.828 0 1.5 0.588 1.5 1.313v24.688h1.25c0.414 0 0.75 0.336 0.75 0.75v1.25zM4 30h8v-5.25c0-0.414 0.336-0.75 0.75-0.75h2.5c0.414 0 0.75 0.336 0.75 0.75v5.25h8v-24h-5v2.5c0 0.828-0.672 1.5-1.5 1.5h-7c-0.828 0-1.5-0.672-1.5-1.5v-2.5h-5v24zM16.625 4h-1.625v-1.625c0-0.207-0.168-0.375-0.375-0.375v0h-1.25c-0.207 0-0.375 0.168-0.375 0.375v0 1.625h-1.625c-0.207 0-0.375 0.168-0.375 0.375v0 1.25c0 0.207 0.168 0.375 0.375 0.375v0h1.625v1.625c0 0.207 0.168 0.375 0.375 0.375v0h1.25c0.207 0 0.375-0.168 0.375-0.375v0-1.625h1.625c0.207 0 0.375-0.168 0.375-0.375v0-1.25c0-0.207-0.168-0.375-0.375-0.375v0z"></path>
</svg>
