<!-- Generated by IcoMoon.io -->
<svg version="1.1" xmlns="http://www.w3.org/2000/svg" width="40" height="32" viewBox="0 0 40 32">
<title>hospitals-solid</title>
<path d="M16 6v-4c0-1.105-0.895-2-2-2v0h-10c-1.105 0-2 0.895-2 2v0 4c-1.105 0-2 0.895-2 2v0 22c0 1.105 0.895 2 2 2v0h14c1.105 0 2-0.895 2-2v0-22c0-1.105-0.895-2-2-2v0zM8 25.25c0 0.414-0.336 0.75-0.75 0.75v0h-2.5c-0.414 0-0.75-0.336-0.75-0.75v0-2.5c0-0.414 0.336-0.75 0.75-0.75v0h2.5c0.414 0 0.75 0.336 0.75 0.75v0zM8 17.25c0 0.414-0.336 0.75-0.75 0.75v0h-2.5c-0.414 0-0.75-0.336-0.75-0.75v0-2.5c0-0.414 0.336-0.75 0.75-0.75v0h2.5c0.414 0 0.75 0.336 0.75 0.75v0zM9.625 10h-1.25c-0.207 0-0.375-0.168-0.375-0.375v0-1.625h-1.625c-0.207 0-0.375-0.168-0.375-0.375v0-1.25c0-0.207 0.168-0.375 0.375-0.375v0h1.625v-1.625c0-0.207 0.168-0.375 0.375-0.375v0h1.25c0.207 0 0.375 0.168 0.375 0.375v0 1.625h1.625c0.207 0 0.375 0.168 0.375 0.375v0 1.25c0 0.207-0.168 0.375-0.375 0.375v0h-1.625v1.625c0 0.207-0.168 0.375-0.375 0.375v0zM14 25.25c0 0.414-0.336 0.75-0.75 0.75v0h-2.5c-0.414 0-0.75-0.336-0.75-0.75v0-2.5c0-0.414 0.336-0.75 0.75-0.75v0h2.5c0.414 0 0.75 0.336 0.75 0.75v0zM14 17.25c0 0.414-0.336 0.75-0.75 0.75v0h-2.5c-0.414 0-0.75-0.336-0.75-0.75v0-2.5c0-0.414 0.336-0.75 0.75-0.75v0h2.5c0.414 0 0.75 0.336 0.75 0.75v0zM38 6v-4c0-1.105-0.895-2-2-2v0h-10c-1.105 0-2 0.895-2 2v0 4c-1.105 0-2 0.895-2 2v0 22c0 1.105 0.895 2 2 2v0h14c1.105 0 2-0.895 2-2v0-22c0-1.105-0.895-2-2-2v0zM30 25.25c0 0.414-0.336 0.75-0.75 0.75v0h-2.5c-0.414 0-0.75-0.336-0.75-0.75v0-2.5c0-0.414 0.336-0.75 0.75-0.75v0h2.5c0.414 0 0.75 0.336 0.75 0.75v0zM30 17.25c0 0.414-0.336 0.75-0.75 0.75v0h-2.5c-0.414 0-0.75-0.336-0.75-0.75v0-2.5c0-0.414 0.336-0.75 0.75-0.75v0h2.5c0.414 0 0.75 0.336 0.75 0.75v0zM31.625 10h-1.25c-0.207 0-0.375-0.168-0.375-0.375v0-1.625h-1.625c-0.207 0-0.375-0.168-0.375-0.375v0-1.25c0-0.207 0.168-0.375 0.375-0.375v0h1.625v-1.625c0-0.207 0.168-0.375 0.375-0.375v0h1.25c0.207 0 0.375 0.168 0.375 0.375v0 1.625h1.625c0.207 0 0.375 0.168 0.375 0.375v0 1.25c0 0.207-0.168 0.375-0.375 0.375v0h-1.625v1.625c0 0.207-0.168 0.375-0.375 0.375v0zM36 25.25c0 0.414-0.336 0.75-0.75 0.75v0h-2.5c-0.414 0-0.75-0.336-0.75-0.75v0-2.5c0-0.414 0.336-0.75 0.75-0.75v0h2.5c0.414 0 0.75 0.336 0.75 0.75v0zM36 17.25c0 0.414-0.336 0.75-0.75 0.75v0h-2.5c-0.414 0-0.75-0.336-0.75-0.75v0-2.5c0-0.414 0.336-0.75 0.75-0.75v0h2.5c0.414 0 0.75 0.336 0.75 0.75v0z"></path>
</svg>
