<!-- Generated by IcoMoon.io -->
<svg version="1.1" xmlns="http://www.w3.org/2000/svg" width="36" height="32" viewBox="0 0 36 32">
<title>hospital-alt</title>
<path d="M29.25 24h-2.5c-0.413 0-0.75 0.337-0.75 0.75v2.5c0 0.413 0.337 0.75 0.75 0.75h2.5c0.413 0 0.75-0.337 0.75-0.75v-2.5c0-0.413-0.337-0.75-0.75-0.75zM29.25 16h-2.5c-0.413 0-0.75 0.337-0.75 0.75v2.5c0 0.413 0.337 0.75 0.75 0.75h2.5c0.413 0 0.75-0.337 0.75-0.75v-2.5c0-0.413-0.337-0.75-0.75-0.75zM19.25 24h-2.5c-0.413 0-0.75 0.337-0.75 0.75v2.5c0 0.413 0.337 0.75 0.75 0.75h2.5c0.413 0 0.75-0.337 0.75-0.75v-2.5c0-0.413-0.337-0.75-0.75-0.75zM19.25 16h-2.5c-0.413 0-0.75 0.337-0.75 0.75v2.5c0 0.413 0.337 0.75 0.75 0.75h2.5c0.413 0 0.75-0.337 0.75-0.75v-2.5c0-0.413-0.337-0.75-0.75-0.75zM9.25 24h-2.5c-0.412 0-0.75 0.337-0.75 0.75v2.5c0 0.413 0.338 0.75 0.75 0.75h2.5c0.412 0 0.75-0.337 0.75-0.75v-2.5c0-0.413-0.338-0.75-0.75-0.75zM9.25 16h-2.5c-0.412 0-0.75 0.337-0.75 0.75v2.5c0 0.413 0.338 0.75 0.75 0.75h2.5c0.412 0 0.75-0.337 0.75-0.75v-2.5c0-0.413-0.338-0.75-0.75-0.75zM20.625 7h-1.625v-1.625c0-0.206-0.169-0.375-0.375-0.375h-1.25c-0.206 0-0.375 0.169-0.375 0.375v1.625h-1.625c-0.206 0-0.375 0.169-0.375 0.375v1.25c0 0.206 0.169 0.375 0.375 0.375h1.625v1.625c0 0.206 0.169 0.375 0.375 0.375h1.25c0.206 0 0.375-0.169 0.375-0.375v-1.625h1.625c0.206 0 0.375-0.169 0.375-0.375v-1.25c0-0.206-0.169-0.375-0.375-0.375zM33 8h-7v-5c0-1.656-1.344-3-3-3h-10c-1.656 0-3 1.344-3 3v5h-7c-1.656 0-3 1.344-3 3v20.5c0 0.275 0.225 0.5 0.5 0.5h1c0.275 0 0.5-0.225 0.5-0.5v-20.5c0-0.55 0.45-1 1-1h9v-7c0-0.55 0.45-1 1-1h10c0.55 0 1 0.45 1 1v7h9c0.55 0 1 0.45 1 1v20.5c0 0.275 0.225 0.5 0.5 0.5h1c0.275 0 0.5-0.225 0.5-0.5v-20.5c0-1.656-1.344-3-3-3z"></path>
</svg>
