<!-- Generated by IcoMoon.io -->
<svg version="1.1" xmlns="http://www.w3.org/2000/svg" width="40" height="32" viewBox="0 0 40 32">
<title>hospital-user</title>
<path d="M9.25 12h-2.5c-0.414 0-0.75 0.336-0.75 0.75v0 2.5c0 0.414 0.336 0.75 0.75 0.75v0h2.5c0.414 0 0.75-0.336 0.75-0.75v0-2.5c0-0.414-0.336-0.75-0.75-0.75v0zM9.25 18h-2.5c-0.414 0-0.75 0.336-0.75 0.75v0 2.5c0 0.414 0.336 0.75 0.75 0.75v0h2.5c0.414 0 0.75-0.336 0.75-0.75v0-2.5c0-0.414-0.336-0.75-0.75-0.75v0zM9.25 24h-2.5c-0.414 0-0.75 0.336-0.75 0.75v0 2.5c0 0.414 0.336 0.75 0.75 0.75v0h2.5c0.414 0 0.75-0.336 0.75-0.75v0-2.5c0-0.414-0.336-0.75-0.75-0.75v0zM15.25 18h-2.5c-0.414 0-0.75 0.336-0.75 0.75v0 2.5c0 0.414 0.336 0.75 0.75 0.75v0h2.5c0.414 0 0.75-0.336 0.75-0.75v0-2.5c0-0.414-0.336-0.75-0.75-0.75v0zM15.25 12h-2.5c-0.414 0-0.75 0.336-0.75 0.75v0 2.5c0 0.414 0.336 0.75 0.75 0.75v0h2.5c0.414 0 0.75-0.336 0.75-0.75v0-2.5c0-0.414-0.336-0.75-0.75-0.75v0zM15.25 24h-2.5c-0.414 0-0.75 0.336-0.75 0.75v0 2.5c0 0.414 0.336 0.75 0.75 0.75v0h2.5c0.414 0 0.75-0.336 0.75-0.75v0-2.5c0-0.414-0.336-0.75-0.75-0.75v0zM12 8h1.625c0.207 0 0.375-0.168 0.375-0.375v0-1.25c0-0.207-0.168-0.375-0.375-0.375v0h-1.625v-1.625c0-0.207-0.168-0.375-0.375-0.375v0h-1.25c-0.207 0-0.375 0.168-0.375 0.375v0 1.625h-1.625c-0.207 0-0.375 0.168-0.375 0.375v0 1.25c0 0.207 0.168 0.375 0.375 0.375v0h1.625v1.625c0 0.207 0.168 0.375 0.375 0.375v0h1.25c0.207 0 0.375-0.168 0.375-0.375v0zM30 20c3.314 0 6-2.686 6-6s-2.686-6-6-6c-3.314 0-6 2.686-6 6v0c0 3.314 2.686 6 6 6v0zM30 10c2.209 0 4 1.791 4 4s-1.791 4-4 4c-2.209 0-4-1.791-4-4v0c0.003-2.208 1.792-3.998 4-4h0zM38.981 23.821c-1.078-1.602-2.918-2.446-4.806-2.446-1.737 0-2.174 0.625-4.174 0.625s-2.434-0.625-4.174-0.625c-1.889 0-3.728 0.843-4.806 2.444-0.638 0.936-1.019 2.091-1.019 3.336 0 0.004 0 0.008 0 0.012v-0.001 2.333c0 1.381 1.119 2.5 2.5 2.5v0h15c1.381 0 2.5-1.119 2.5-2.5v0-2.333c0-0.003 0-0.007 0-0.010 0-1.245-0.381-2.4-1.033-3.357l0.013 0.021zM38 29.5c0 0.276-0.224 0.5-0.5 0.5v0h-15c-0.276 0-0.5-0.224-0.5-0.5v0-2.333c0-0.003 0-0.006 0-0.009 0-0.828 0.253-1.598 0.687-2.235l-0.009 0.014c0.658-0.977 1.834-1.563 3.148-1.563 1.363 0 1.875 0.625 4.174 0.625s2.812-0.625 4.174-0.625c1.313 0 2.489 0.584 3.148 1.563 0.425 0.623 0.678 1.392 0.678 2.221 0 0.003 0 0.006 0 0.009v-0zM20 8v13.894c0.565-0.621 1.225-1.142 1.961-1.543l0.039-0.020v-12.332c0-1.105-0.895-2-2-2v0h-1v-4c0-1.105-0.895-2-2-2v0h-12c-1.105 0-2 0.895-2 2v0 4h-1c-1.105 0-2 0.895-2 2v0 23.5c0 0.276 0.224 0.5 0.5 0.5v0h1c0.276 0 0.5-0.224 0.5-0.5v0-23.5h3v-6h12v6z"></path>
</svg>
