<!-- Generated by IcoMoon.io -->
<svg version="1.1" xmlns="http://www.w3.org/2000/svg" width="40" height="32" viewBox="0 0 40 32">
<title>hospital-user-solid</title>
<path d="M30 20c3.314 0 6-2.686 6-6s-2.686-6-6-6c-3.314 0-6 2.686-6 6v0c0 3.314 2.686 6 6 6v0zM33 22c-0.002 0-0.003 0-0.005 0-0.156 0-0.306 0.025-0.446 0.071l0.010-0.003c-0.763 0.274-1.642 0.432-2.559 0.432s-1.797-0.158-2.614-0.449l0.055 0.017c-0.13-0.043-0.28-0.068-0.436-0.068-0.002 0-0.004 0-0.005 0h0c-0 0-0 0-0 0-3.866 0-7 3.134-7 7 0 0.014 0 0.027 0 0.041v-0.002c0.009 1.641 1.358 2.961 3 2.961h14c1.642 0 2.991-1.32 3-2.961 0-0.012 0-0.025 0-0.039 0-3.866-3.134-7-7-7-0 0-0 0-0 0v0zM20.619 22.653c0.412-0.405 0.863-0.772 1.347-1.093l0.033-0.021v-13.539c0-1.105-0.895-2-2-2v0h-2v-4c0-1.105-0.895-2-2-2v0h-10c-1.105 0-2 0.895-2 2v0 4h-2c-1.105 0-2 0.895-2 2v0 23c0 0.552 0.448 1 1 1v0h18.019c-0.627-0.808-1.009-1.834-1.019-2.948l-0-0.002c-0-0.022-0-0.047-0-0.073 0-2.469 1.001-4.705 2.62-6.323v0zM9 25.25c0 0.414-0.336 0.75-0.75 0.75v0h-2.5c-0.414 0-0.75-0.336-0.75-0.75v0-2.5c0-0.414 0.336-0.75 0.75-0.75v0h2.5c0.414 0 0.75 0.336 0.75 0.75v0zM9 17.25c0 0.414-0.336 0.75-0.75 0.75v0h-2.5c-0.414 0-0.75-0.336-0.75-0.75v0-2.5c0-0.414 0.336-0.75 0.75-0.75v0h2.5c0.414 0 0.75 0.336 0.75 0.75v0zM12 9.625c0 0.207-0.168 0.375-0.375 0.375v0h-1.25c-0.207 0-0.375-0.168-0.375-0.375v0-1.625h-1.625c-0.207 0-0.375-0.168-0.375-0.375v0-1.25c0-0.207 0.168-0.375 0.375-0.375v0h1.625v-1.625c0-0.207 0.168-0.375 0.375-0.375v0h1.25c0.207 0 0.375 0.168 0.375 0.375v0 1.625h1.625c0.207 0 0.375 0.168 0.375 0.375v0 1.25c0 0.207-0.168 0.375-0.375 0.375v0h-1.625zM17 25.25c0 0.414-0.336 0.75-0.75 0.75v0h-2.5c-0.414 0-0.75-0.336-0.75-0.75v0-2.5c0-0.414 0.336-0.75 0.75-0.75v0h2.5c0.414 0 0.75 0.336 0.75 0.75v0zM17 17.25c0 0.414-0.336 0.75-0.75 0.75v0h-2.5c-0.414 0-0.75-0.336-0.75-0.75v0-2.5c0-0.414 0.336-0.75 0.75-0.75v0h2.5c0.414 0 0.75 0.336 0.75 0.75v0z"></path>
</svg>
