<!-- Generated by IcoMoon.io -->
<svg version="1.1" xmlns="http://www.w3.org/2000/svg" width="32" height="32" viewBox="0 0 32 32">
<title>hospital-symbol-solid</title>
<path d="M16 0c-8.838 0-16 7.162-16 16s7.162 16 16 16 16-7.163 16-16-7.163-16-16-16zM23 23.5c0 0.275-0.225 0.5-0.5 0.5h-3c-0.275 0-0.5-0.225-0.5-0.5v-5.5h-6v5.5c0 0.275-0.225 0.5-0.5 0.5h-3c-0.275 0-0.5-0.225-0.5-0.5v-15c0-0.275 0.225-0.5 0.5-0.5h3c0.275 0 0.5 0.225 0.5 0.5v5.5h6v-5.5c0-0.275 0.225-0.5 0.5-0.5h3c0.275 0 0.5 0.225 0.5 0.5v15z"></path>
</svg>
