<!-- Generated by IcoMoon.io -->
<svg version="1.1" xmlns="http://www.w3.org/2000/svg" width="32" height="32" viewBox="0 0 32 32">
<title>hot-tub-solid</title>
<path d="M25.888 11.103c0.064 0.513 0.484 0.897 0.984 0.897h1.008c0.594 0 1.067-0.536 1-1.147-0.271-2.444-1.4-4.658-3.133-6.072-1.086-0.886-1.801-2.297-1.999-3.884-0.063-0.512-0.484-0.896-0.984-0.896h-1.008c-0.594 0-1.068 0.536-1 1.147 0.271 2.444 1.4 4.658 3.133 6.072 1.085 0.886 1.801 2.297 1.998 3.884zM19.138 11.103c0.064 0.513 0.484 0.897 0.984 0.897h1.008c0.594 0 1.067-0.536 1-1.147-0.271-2.444-1.4-4.658-3.133-6.072-1.086-0.886-1.801-2.297-1.999-3.884-0.063-0.512-0.484-0.896-0.984-0.896h-1.008c-0.594 0-1.068 0.536-1 1.147 0.271 2.444 1.4 4.658 3.133 6.072 1.085 0.886 1.801 2.297 1.998 3.884zM30 16h-14l-6.933-5.2c-0.66-0.499-1.495-0.8-2.4-0.8-0 0-0 0-0 0h-2.667c-2.209 0-4 1.791-4 4v14c0 2.209 1.791 4 4 4h24c2.209 0 4-1.791 4-4v-10c0-1.104-0.896-2-2-2zM8 27.5c0 0.276-0.224 0.5-0.5 0.5h-1c-0.276 0-0.5-0.224-0.5-0.5v-7c0-0.276 0.224-0.5 0.5-0.5h1c0.276 0 0.5 0.224 0.5 0.5v7zM14 27.5c0 0.276-0.224 0.5-0.5 0.5h-1c-0.276 0-0.5-0.224-0.5-0.5v-7c0-0.276 0.224-0.5 0.5-0.5h1c0.276 0 0.5 0.224 0.5 0.5v7zM20 27.5c0 0.276-0.224 0.5-0.5 0.5h-1c-0.276 0-0.5-0.224-0.5-0.5v-7c0-0.276 0.224-0.5 0.5-0.5h1c0.276 0 0.5 0.224 0.5 0.5v7zM26 27.5c0 0.276-0.224 0.5-0.5 0.5h-1c-0.276 0-0.5-0.224-0.5-0.5v-7c0-0.276 0.224-0.5 0.5-0.5h1c0.276 0 0.5 0.224 0.5 0.5v7zM4 8c2.209 0 4-1.791 4-4s-1.791-4-4-4-4 1.791-4 4 1.791 4 4 4z"></path>
</svg>
