<!-- Generated by IcoMoon.io -->
<svg version="1.1" xmlns="http://www.w3.org/2000/svg" width="32" height="32" viewBox="0 0 32 32">
<title>hot-tub</title>
<path d="M5 9c2.485 0 4.5-2.015 4.5-4.5s-2.015-4.5-4.5-4.5-4.5 2.014-4.5 4.5c0 2.485 2.015 4.5 4.5 4.5zM5 2c1.379 0 2.5 1.121 2.5 2.5s-1.121 2.5-2.5 2.5-2.5-1.121-2.5-2.5 1.121-2.5 2.5-2.5zM20.974 13.518c0.016 0.268 0.227 0.482 0.496 0.482h0.999c0.284 0 0.521-0.238 0.507-0.521-0.127-2.523-1.172-4.84-2.85-6.276-1.236-1.058-2.011-2.797-2.122-4.72-0.016-0.268-0.227-0.482-0.496-0.482h-0.999c-0.284 0-0.521 0.237-0.507 0.521 0.127 2.523 1.172 4.84 2.85 6.276 1.235 1.057 2.011 2.796 2.122 4.719zM26.974 13.518c0.016 0.268 0.227 0.482 0.496 0.482h0.999c0.284 0 0.521-0.238 0.507-0.521-0.127-2.523-1.172-4.84-2.85-6.276-1.236-1.058-2.011-2.797-2.122-4.72-0.016-0.268-0.227-0.482-0.496-0.482h-0.999c-0.284 0-0.521 0.237-0.507 0.521 0.127 2.523 1.172 4.84 2.85 6.276 1.235 1.057 2.011 2.796 2.122 4.719zM6.5 28h1c0.276 0 0.5-0.224 0.5-0.5v-7c0-0.276-0.224-0.5-0.5-0.5h-1c-0.276 0-0.5 0.224-0.5 0.5v7c0 0.276 0.224 0.5 0.5 0.5zM12.5 28h1c0.276 0 0.5-0.224 0.5-0.5v-7c0-0.276-0.224-0.5-0.5-0.5h-1c-0.276 0-0.5 0.224-0.5 0.5v7c0 0.276 0.224 0.5 0.5 0.5zM18.5 28h1c0.276 0 0.5-0.224 0.5-0.5v-7c0-0.276-0.224-0.5-0.5-0.5h-1c-0.276 0-0.5 0.224-0.5 0.5v7c0 0.276 0.224 0.5 0.5 0.5zM24.5 28h1c0.276 0 0.5-0.224 0.5-0.5v-7c0-0.276-0.224-0.5-0.5-0.5h-1c-0.276 0-0.5 0.224-0.5 0.5v7c0 0.276 0.224 0.5 0.5 0.5zM30 16h-13l-6.933-5.2c-0.66-0.499-1.495-0.8-2.4-0.8-0 0-0 0-0 0h-3.667c-2.209 0-4 1.791-4 4v14c0 2.209 1.791 4 4 4h24c2.209 0 4-1.791 4-4v-10c0-1.104-0.896-2-2-2zM2 14c0-1.102 0.897-2 2-2h3.667c0.43 0 0.856 0.142 1.2 0.4l4.8 3.6h-11.667v-2zM30 28c0 1.102-0.898 2-2 2h-24c-1.103 0-2-0.898-2-2v-10h28v10z"></path>
</svg>
