<!-- Generated by IcoMoon.io -->
<svg version="1.1" xmlns="http://www.w3.org/2000/svg" width="32" height="32" viewBox="0 0 32 32">
<title>hotdog</title>
<path d="M29.372 11.201l0.851-0.852c1.146-1.144 1.776-2.667 1.776-4.286s-0.631-3.142-1.776-4.287c-1.144-1.144-2.666-1.776-4.286-1.776s-3.142 0.631-4.288 1.777l-0.851 0.851-1.384-1.384c-0.824-0.826-1.891-1.244-2.925-1.244-0.924 0-1.822 0.334-2.499 1.011l-12.98 12.98c-1.434 1.434-1.329 3.863 0.232 5.424l1.384 1.384-0.852 0.852c-1.145 1.144-1.776 2.667-1.776 4.286s0.631 3.142 1.776 4.287c1.144 1.144 2.666 1.776 4.286 1.776s3.142-0.631 4.287-1.777l0.851-0.851 1.384 1.384c0.825 0.825 1.891 1.243 2.926 1.243 0.924 0 1.822-0.334 2.499-1.011l12.98-12.98c1.434-1.434 1.329-3.863-0.233-5.424l-1.385-1.384zM2.425 15.404l12.979-12.979c0.682-0.682 1.862-0.501 2.596 0.232l1.384 1.384-15.343 15.343-1.384-1.384c-0.78-0.78-0.884-1.944-0.232-2.596zM8.935 28.81c-1.585 1.586-4.159 1.587-5.744 0-1.587-1.586-1.587-4.159 0-5.744l19.875-19.875c1.585-1.586 4.159-1.587 5.744 0 1.587 1.586 1.587 4.159 0 5.744l-19.875 19.875zM29.575 16.596l-12.98 12.979c-0.681 0.681-1.861 0.503-2.596-0.233l-1.384-1.384 15.343-15.343 1.384 1.384c0.78 0.78 0.884 1.944 0.233 2.596zM26 6c-0.775 0.776-1.36 0.876-2.169 1.014-0.9 0.154-2.021 0.347-3.245 1.571s-1.417 2.345-1.571 3.245c-0.139 0.809-0.239 1.394-1.014 2.169s-1.36 0.876-2.169 1.014c-0.9 0.154-2.021 0.347-3.245 1.571s-1.417 2.345-1.571 3.245c-0.139 0.81-0.239 1.394-1.014 2.169s-1.36 0.876-2.169 1.014c-0.9 0.154-2.021 0.346-3.245 1.571-0.391 0.391-0.391 1.024 0 1.414 0.195 0.195 0.451 0.293 0.707 0.293s0.512-0.098 0.707-0.293c0.775-0.775 1.36-0.876 2.169-1.014 0.9-0.154 2.021-0.346 3.245-1.571s1.417-2.345 1.571-3.245c0.139-0.809 0.239-1.394 1.014-2.169s1.36-0.876 2.169-1.014c0.9-0.154 2.021-0.347 3.245-1.571s1.417-2.345 1.571-3.245c0.139-0.809 0.239-1.394 1.014-2.169s1.36-0.876 2.169-1.014c0.9-0.154 2.021-0.347 3.245-1.571 0.391-0.391 0.391-1.024 0-1.414s-1.023-0.391-1.414 0z"></path>
</svg>
