<!-- Generated by IcoMoon.io -->
<svg version="1.1" xmlns="http://www.w3.org/2000/svg" width="32" height="32" viewBox="0 0 32 32">
<title>hotdog-solid</title>
<path d="M30.535 1.465c-0.905-0.904-2.155-1.464-3.535-1.464s-2.63 0.559-3.535 1.464l-22 22c-0.942 0.91-1.526 2.185-1.526 3.596 0 2.761 2.239 5 5 5 1.411 0 2.686-0.585 3.595-1.525l0.001-0.001 22-22c0.904-0.905 1.464-2.155 1.464-3.535s-0.559-2.63-1.464-3.535v0zM27.414 7.414c-1.225 1.224-2.345 1.417-3.246 1.571-0.809 0.139-1.394 0.239-2.169 1.014s-0.875 1.36-1.014 2.169c-0.155 0.9-0.347 2.021-1.572 3.245s-2.345 1.417-3.245 1.572c-0.809 0.139-1.394 0.239-2.169 1.014s-0.875 1.359-1.014 2.169c-0.154 0.9-0.346 2.021-1.571 3.245s-2.346 1.418-3.246 1.572c-0.809 0.139-1.394 0.239-2.169 1.014-0.181 0.181-0.431 0.293-0.707 0.293-0.552 0-1-0.448-1-1 0-0.276 0.112-0.526 0.293-0.707v0c1.225-1.224 2.345-1.417 3.245-1.571 0.813-0.139 1.394-0.239 2.169-1.014s0.875-1.359 1.014-2.169c0.155-0.9 0.347-2.021 1.572-3.245s2.345-1.417 3.245-1.571c0.813-0.139 1.394-0.239 2.169-1.014s0.875-1.36 1.015-2.169c0.154-0.9 0.346-2.021 1.571-3.245s2.345-1.418 3.245-1.572c0.809-0.139 1.394-0.239 2.169-1.014 0.181-0.181 0.431-0.293 0.707-0.293 0.552 0 1 0.448 1 1 0 0.276-0.112 0.526-0.293 0.707v0zM1.965 20.136l18.171-18.171-0.721-0.722c-1.563-1.563-3.991-1.666-5.424-0.232l-12.98 12.98c-1.434 1.434-1.329 3.862 0.232 5.424zM30.035 11.864l-18.171 18.171 0.721 0.722c1.563 1.563 3.991 1.666 5.424 0.233l12.98-12.98c1.434-1.434 1.329-3.862-0.233-5.424z"></path>
</svg>
