<!-- Generated by IcoMoon.io -->
<svg version="1.1" xmlns="http://www.w3.org/2000/svg" width="36" height="32" viewBox="0 0 36 32">
<title>hotel</title>
<path d="M24.8 14h2.4c0.4 0 0.8-0.4 0.8-0.8v-2.4c0-0.4-0.4-0.8-0.8-0.8h-2.4c-0.4 0-0.8 0.4-0.8 0.8v2.4c0 0.4 0.4 0.8 0.8 0.8zM16.8 8h2.4c0.4 0 0.8-0.4 0.8-0.8v-2.4c0-0.4-0.4-0.8-0.8-0.8h-2.4c-0.4 0-0.8 0.4-0.8 0.8v2.4c0 0.4 0.4 0.8 0.8 0.8zM24.8 8h2.4c0.4 0 0.8-0.4 0.8-0.8v-2.4c0-0.4-0.4-0.8-0.8-0.8h-2.4c-0.4 0-0.8 0.4-0.8 0.8v2.4c0 0.4 0.4 0.8 0.8 0.8zM8.8 8h2.4c0.4 0 0.8-0.4 0.8-0.8v-2.4c0-0.4-0.4-0.8-0.8-0.8h-2.4c-0.4 0-0.8 0.4-0.8 0.8v2.4c0 0.4 0.4 0.8 0.8 0.8zM16.8 14h2.4c0.4 0 0.8-0.4 0.8-0.8v-2.4c0-0.4-0.4-0.8-0.8-0.8h-2.4c-0.4 0-0.8 0.4-0.8 0.8v2.4c0 0.4 0.4 0.8 0.8 0.8zM35.5 2c0.276 0 0.5-0.224 0.5-0.5v-1c0-0.276-0.224-0.5-0.5-0.5h-35c-0.276 0-0.5 0.224-0.5 0.5v1c0 0.276 0.224 0.5 0.5 0.5h1.499v28h-1.499c-0.276 0-0.5 0.224-0.5 0.5v1c0 0.276 0.224 0.5 0.5 0.5h35c0.276 0 0.5-0.224 0.5-0.5v-1c0-0.276-0.224-0.5-0.5-0.5h-1.5v-28h1.5zM20 30h-4v-5c0-0.552 0.448-1 1-1h2c0.552 0 1 0.448 1 1v5zM32 30h-10v-5c0-1.654-1.346-3-3-3h-2c-1.654 0-3 1.346-3 3v5h-10.001v-28h28.001v28zM8.8 14h2.4c0.4 0 0.8-0.4 0.8-0.8v-2.4c0-0.4-0.4-0.8-0.8-0.8h-2.4c-0.4 0-0.8 0.4-0.8 0.8v2.4c0 0.4 0.4 0.8 0.8 0.8zM10.444 23.854l1.016 0.141c0.269 0.038 0.507-0.14 0.567-0.398 0.623-2.677 3.109-4.643 5.974-4.643s5.351 1.966 5.974 4.642c0.060 0.258 0.298 0.435 0.567 0.398l1.016-0.141c0.288-0.040 0.494-0.308 0.434-0.584-0.789-3.627-4.133-6.301-7.991-6.301s-7.201 2.674-7.989 6.301c-0.060 0.277 0.146 0.544 0.434 0.584z"></path>
</svg>
