<!-- Generated by IcoMoon.io -->
<svg version="1.1" xmlns="http://www.w3.org/2000/svg" width="36" height="32" viewBox="0 0 36 32">
<title>hotel-solid</title>
<path d="M35 4c0.553 0 1-0.447 1-1v-2c0-0.552-0.447-1-1-1h-34c-0.552 0-1 0.448-1 1v2c0 0.553 0.448 1 1 1h0.999v24h-0.999c-0.552 0-1 0.448-1 1v2c0 0.552 0.448 1 1 1h15v-5c0-0.55 0.45-1 1-1h2c0.55 0 1 0.45 1 1v5h15c0.553 0 1-0.448 1-1v-2c0-0.552-0.447-1-1-1h-1v-24h1zM16 6.8c0-0.4 0.4-0.8 0.8-0.8h2.4c0.4 0 0.8 0.4 0.8 0.8v2.4c0 0.4-0.4 0.8-0.8 0.8h-2.4c-0.4 0-0.8-0.4-0.8-0.8v-2.4zM16 12.8c0-0.4 0.4-0.8 0.8-0.8h2.4c0.4 0 0.8 0.4 0.8 0.8v2.4c0 0.4-0.4 0.8-0.8 0.8h-2.4c-0.4 0-0.8-0.4-0.8-0.8v-2.4zM8 6.8c0-0.4 0.4-0.8 0.8-0.8h2.4c0.4 0 0.8 0.4 0.8 0.8v2.4c0 0.4-0.4 0.8-0.8 0.8h-2.4c-0.4 0-0.8-0.4-0.8-0.8v-2.4zM11.2 16h-2.4c-0.4 0-0.8-0.4-0.8-0.8v-2.4c0-0.4 0.4-0.8 0.8-0.8h2.4c0.4 0 0.8 0.4 0.8 0.8v2.4c0 0.4-0.4 0.8-0.8 0.8zM12 24c0-3.314 2.686-6 6-6s6 2.686 6 6h-12zM28 15.2c0 0.4-0.4 0.8-0.8 0.8h-2.4c-0.4 0-0.8-0.4-0.8-0.8v-2.4c0-0.4 0.4-0.8 0.8-0.8h2.4c0.4 0 0.8 0.4 0.8 0.8v2.4zM28 9.2c0 0.4-0.4 0.8-0.8 0.8h-2.4c-0.4 0-0.8-0.4-0.8-0.8v-2.4c0-0.4 0.4-0.8 0.8-0.8h2.4c0.4 0 0.8 0.4 0.8 0.8v2.4z"></path>
</svg>
