<!-- Generated by IcoMoon.io -->
<svg version="1.1" xmlns="http://www.w3.org/2000/svg" width="24" height="32" viewBox="0 0 24 32">
<title>hourglass-start</title>
<path d="M23 2h0.25c0.414 0 0.75-0.336 0.75-0.75v-0.5c0-0.414-0.336-0.75-0.75-0.75h-22.5c-0.414 0-0.75 0.336-0.75 0.75v0.5c0 0.414 0.336 0.75 0.75 0.75h0.25c0 5.739 2.757 12.104 8.103 14-5.363 1.903-8.103 8.28-8.103 14h-0.25c-0.414 0-0.75 0.336-0.75 0.75v0.5c0 0.414 0.336 0.75 0.75 0.75h22.5c0.414 0 0.75-0.336 0.75-0.75v-0.5c0-0.414-0.336-0.75-0.75-0.75h-0.25c0-5.739-2.757-12.104-8.103-14 5.363-1.903 8.103-8.28 8.103-14zM3 2h18c0 6.904-4.029 12.5-9 12.5s-9-5.596-9-12.5zM21 30h-18c0-6.904 4.029-12.5 9-12.5s9 5.596 9 12.5zM17.851 6h-11.703c0 0-0 0-0 0-0.346 0-0.636-0.233-0.724-0.551l-0.001-0.005c-0.028-0.088-0.072-0.265-0.113-0.443l-0.016-0.084c-0.104-0.47 0.25-0.917 0.731-0.917h11.947c0.482 0 0.835 0.447 0.732 0.917-0.057 0.262-0.101 0.439-0.149 0.614l0.020-0.088c-0.089 0.323-0.38 0.556-0.725 0.556v0zM16.854 9.182c-0.15 0.209-0.289 0.387-0.434 0.559l0.011-0.013c-0.144 0.171-0.354 0.272-0.578 0.272h-7.705c-0.223 0-0.434-0.101-0.578-0.272-0.134-0.159-0.273-0.337-0.405-0.52l-0.018-0.026c-0.354-0.494 0.005-1.182 0.613-1.182h8.481c0.608 0 0.967 0.688 0.613 1.182z"></path>
</svg>
