<!-- Generated by IcoMoon.io -->
<svg version="1.1" xmlns="http://www.w3.org/2000/svg" width="24" height="32" viewBox="0 0 24 32">
<title>hourglass-start-solid</title>
<path d="M22.5 0h-21c-0.828 0-1.5 0.672-1.5 1.5v1c0 0.828 0.672 1.5 1.5 1.5 0 5.685 3.188 10.483 7.553 12-4.364 1.517-7.553 6.315-7.553 12-0.828 0-1.5 0.672-1.5 1.5v1c0 0.828 0.672 1.5 1.5 1.5h21c0.828 0 1.5-0.672 1.5-1.5v-1c0-0.828-0.672-1.5-1.5-1.5 0-5.685-3.189-10.483-7.553-12 4.364-1.517 7.553-6.315 7.553-12 0.828 0 1.5-0.672 1.5-1.5v-1c0-0.828-0.672-1.5-1.5-1.5zM18.5 28h-13c0-4.841 2.888-9 6.5-9s6.5 4.157 6.5 9z"></path>
</svg>
