<!-- Generated by IcoMoon.io -->
<svg version="1.1" xmlns="http://www.w3.org/2000/svg" width="24" height="32" viewBox="0 0 24 32">
<title>hourglass</title>
<path d="M23 2h0.25c0.414 0 0.75-0.336 0.75-0.75v-0.5c0-0.414-0.336-0.75-0.75-0.75h-22.5c-0.414 0-0.75 0.336-0.75 0.75v0.5c0 0.414 0.336 0.75 0.75 0.75h0.25c0 5.739 2.757 12.104 8.103 14-5.363 1.903-8.103 8.28-8.103 14h-0.25c-0.414 0-0.75 0.336-0.75 0.75v0.5c0 0.414 0.336 0.75 0.75 0.75h22.5c0.414 0 0.75-0.336 0.75-0.75v-0.5c0-0.414-0.336-0.75-0.75-0.75h-0.25c0-5.739-2.757-12.104-8.103-14 5.363-1.903 8.103-8.28 8.103-14zM3 2h18c0 6.904-4.029 12.5-9 12.5s-9-5.596-9-12.5zM21 30h-18c0-6.904 4.029-12.5 9-12.5s9 5.596 9 12.5z"></path>
</svg>
