<!-- Generated by IcoMoon.io -->
<svg version="1.1" xmlns="http://www.w3.org/2000/svg" width="24" height="32" viewBox="0 0 24 32">
<title>hourglass-half-solid</title>
<path d="M22.5 0h-21c-0.828 0-1.5 0.672-1.5 1.5v1c0 0.828 0.672 1.5 1.5 1.5 0 5.685 3.188 10.483 7.553 12-4.364 1.517-7.553 6.315-7.553 12-0.828 0-1.5 0.672-1.5 1.5v1c0 0.828 0.672 1.5 1.5 1.5h21c0.828 0 1.5-0.672 1.5-1.5v-1c0-0.828-0.672-1.5-1.5-1.5 0-5.685-3.189-10.483-7.553-12 4.364-1.517 7.553-6.315 7.553-12 0.828 0 1.5-0.672 1.5-1.5v-1c0-0.828-0.672-1.5-1.5-1.5zM17.808 24h-11.615c1.066-2.925 3.256-5 5.807-5s4.741 2.075 5.808 5zM17.809 8h-11.616c-0.443-1.216-0.692-2.578-0.692-4h13c0 1.425-0.249 2.787-0.691 4z"></path>
</svg>
