<!-- Generated by IcoMoon.io -->
<svg version="1.1" xmlns="http://www.w3.org/2000/svg" width="36" height="32" viewBox="0 0 36 32">
<title>house-solid</title>
<path d="M35.668 14.767l-3.668-3.239v-8.527c0-0.552-0.448-1-1-1v0h-4c-0.552 0-1 0.448-1 1v0 3.229l-6.328-5.586c-0.392-0.356-1.141-0.644-1.672-0.644s-1.278 0.288-1.671 0.644l-16 14.125c-0.204 0.184-0.332 0.449-0.332 0.744 0 0.258 0.097 0.492 0.257 0.67l-0.001-0.001 1.337 1.488c0.193 0.192 0.454 0.315 0.744 0.331l0.003 0c0.255-0.014 0.486-0.108 0.67-0.259l-0.002 0.002 0.994-0.875v13.132c0 1.105 0.895 2 2 2v0h23.999c1.105 0 2-0.895 2-2v0-13.133l0.994 0.875c0.182 0.149 0.414 0.244 0.667 0.258l0.003 0c0.291-0.016 0.551-0.14 0.742-0.332l0-0 1.338-1.488c0.148-0.182 0.242-0.413 0.255-0.666l0-0.003c-0.016-0.292-0.14-0.552-0.332-0.744v0zM22 18.666c-0.002 0.736-0.599 1.333-1.335 1.334h-5.331c-0.736-0.002-1.332-0.598-1.334-1.334v-5.334c0.002-0.735 0.598-1.331 1.334-1.332h5.331c0.736 0.001 1.333 0.597 1.335 1.332v0z"></path>
</svg>
