<!-- Generated by IcoMoon.io -->
<svg version="1.1" xmlns="http://www.w3.org/2000/svg" width="36" height="32" viewBox="0 0 36 32">
<title>house-flood</title>
<path d="M15.75 12.063c-0.963 0-1.75 0.787-1.75 1.75v4.5c0 0.962 0.787 1.75 1.75 1.75h4.5c0.962 0 1.75-0.788 1.75-1.75v-4.5c0-0.963-0.788-1.75-1.75-1.75h-4.5zM20 18.063h-4v-4h4v4zM35.519 28.063c-1.844-0.094-3.606-0.725-4.887-1.769-0.369-0.3-0.894-0.3-1.262 0.006-2.731 2.244-7.938 2.269-10.738-0.006-0.369-0.3-0.894-0.3-1.262 0.006-2.731 2.244-7.938 2.262-10.738-0.006-0.369-0.3-0.894-0.294-1.263 0.006-1.263 1.038-3.025 1.669-4.888 1.762-0.269 0.012-0.481 0.225-0.481 0.494v1c0 0.281 0.237 0.519 0.519 0.506 2.019-0.094 3.956-0.712 5.488-1.744 3.363 2.256 8.7 2.238 12 0 3.356 2.256 8.7 2.238 12 0 1.538 1.031 3.475 1.65 5.475 1.744 0.281 0.012 0.519-0.225 0.519-0.506v-1c0-0.269-0.212-0.481-0.481-0.494zM2.869 15.775c0.131 0.162 0.369 0.188 0.531 0.056l2.6-2.094v10.338c0.681 0 1.35 0.238 1.888 0.669 0.031 0.025 0.075 0.044 0.112 0.069v-12.688l9.756-7.869c0.137-0.112 0.331-0.112 0.469 0l9.75 7.869v12.706c0.038-0.025 0.081-0.050 0.119-0.075 0.531-0.438 1.2-0.675 1.887-0.681v-10.331l2.6 2.094c0.163 0.131 0.4 0.106 0.531-0.056l0.788-0.975c0.131-0.162 0.1-0.4-0.056-0.531l-3.863-3.106v-4.744c0-0.206-0.169-0.375-0.375-0.375h-1.25c-0.206 0-0.375 0.169-0.375 0.375v3.131l-8.738-7.050c-0.731-0.594-1.781-0.594-2.512 0l-14.594 11.769c-0.163 0.131-0.188 0.369-0.056 0.525l0.788 0.975z"></path>
</svg>
