<!-- Generated by IcoMoon.io -->
<svg version="1.1" xmlns="http://www.w3.org/2000/svg" width="36" height="32" viewBox="0 0 36 32">
<title>house-flood-solid</title>
<path d="M1.337 15.25c-0.369-0.412-0.325-1.044 0.087-1.412l14.925-13.213c0.944-0.838 2.363-0.838 3.306 0l6.344 5.619v-3.244c0-0.55 0.45-1 1-1h2c0.55 0 1 0.45 1 1v6.787l4.575 4.050c0.413 0.369 0.45 1 0.087 1.412l-1.325 1.5c-0.369 0.413-1 0.45-1.413 0.087l-13.925-12.331-13.925 12.331c-0.413 0.369-1.044 0.325-1.413-0.087l-1.325-1.5zM35.131 27.994c-1.344-0.15-2.631-0.656-3.619-1.431-0.881-0.694-2.137-0.706-3.012 0-2.369 1.9-6.7 1.9-9.106-0.094-0.844-0.7-2.063-0.569-2.919 0.113-2.375 1.881-6.681 1.875-9.075-0.106-0.844-0.7-2.081-0.556-2.944 0.125-0.969 0.762-2.25 1.256-3.606 1.4-0.494 0.050-0.85 0.488-0.85 0.981v2.012c0 0.569 0.475 1.050 1.044 1 1.8-0.156 3.506-0.712 4.963-1.619 3.531 2.163 8.563 2.131 12 0 3.531 2.163 8.563 2.131 12 0 1.456 0.887 3.181 1.456 4.944 1.613 0.569 0.050 1.044-0.431 1.044-1v-1.975c0.006-0.5-0.356-0.962-0.862-1.019zM18 7.175l12 10.625v6.238h-0.006c-1 0-1.975 0.344-2.744 0.962-0.762 0.613-1.969 0.975-3.231 0.975-1.325 0-2.544-0.381-3.344-1.044-0.731-0.606-1.631-0.925-2.6-0.925-1.012 0-2.019 0.356-2.844 1.006-0.775 0.613-1.944 0.962-3.219 0.962-1.325 0-2.544-0.381-3.344-1.044-0.725-0.6-1.625-0.919-2.588-0.919-0.031 0-0.056 0.006-0.088 0.006v-6.212l12.006-10.631zM20 14h-4c-0.55 0-1 0.45-1 1v4c0 0.55 0.45 1 1 1h4c0.55 0 1-0.45 1-1v-4c0-0.55-0.45-1-1-1z"></path>
</svg>
