<!-- Generated by IcoMoon.io -->
<svg version="1.1" xmlns="http://www.w3.org/2000/svg" width="40" height="32" viewBox="0 0 40 32">
<title>house-night-solid</title>
<path d="M7 14c0.002 0 0.004 0 0.007 0 2.187 0 4.14-1.005 5.421-2.579l0.010-0.013c0.046-0.056 0.073-0.128 0.073-0.207 0-0.181-0.147-0.328-0.328-0.328-0.022 0-0.043 0.002-0.063 0.006l0.002-0c-0.31 0.062-0.666 0.098-1.031 0.098-3.029 0-5.484-2.455-5.484-5.484 0-2.032 1.106-3.806 2.748-4.754l0.027-0.014c0.099-0.058 0.165-0.164 0.165-0.285 0-0.16-0.114-0.293-0.266-0.323l-0.002-0c-0.38-0.067-0.822-0.11-1.272-0.117l-0.007-0c-3.866 0-7 3.134-7 7s3.134 7 7 7v0zM39.702 18.276l-3.702-3.276v-6c0-0.552-0.448-1-1-1v0h-2c-0.552 0-1 0.448-1 1v0 2.456l-5.53-4.898c-0.388-0.346-0.902-0.557-1.466-0.557s-1.078 0.211-1.468 0.559l0.002-0.002-13.238 11.719c-0.183 0.163-0.298 0.4-0.298 0.664 0 0.225 0.084 0.431 0.222 0.587l-0.001-0.001 1.174 1.33c0.163 0.184 0.4 0.299 0.664 0.299 0.225 0 0.43-0.084 0.587-0.222l-0.001 0.001 1.352-1.192v10.258c0 1.105 0.895 2 2 2v0h18c1.105 0 2-0.895 2-2v0-10.26l1.351 1.198c0.156 0.136 0.361 0.219 0.585 0.219 0.264 0 0.501-0.114 0.664-0.296l0.001-0.001 1.174-1.33c0.138-0.156 0.223-0.363 0.223-0.589 0-0.263-0.114-0.5-0.296-0.663l-0.001-0.001zM28 23c0 0.552-0.448 1-1 1v0h-4c-0.552 0-1-0.448-1-1v0-4c0-0.552 0.448-1 1-1v0h4c0.552 0 1 0.448 1 1v0zM12.188 4.299l2.482 1.035 1.035 2.482c0.056 0.111 0.168 0.185 0.298 0.185s0.243-0.075 0.297-0.183l0.001-0.002 1.035-2.482 2.482-1.035c0.11-0.056 0.184-0.168 0.184-0.298s-0.074-0.242-0.183-0.297l-0.002-0.001-2.486-1.035-1.035-2.48c-0.056-0.111-0.168-0.185-0.298-0.185s-0.243 0.075-0.297 0.183l-0.001 0.002-1.035 2.48-2.479 1.035c-0.11 0.056-0.184 0.168-0.184 0.298s0.074 0.242 0.183 0.297l0.002 0.001zM9.819 23.703l-2.482-1.035-1.038-2.48c-0.056-0.111-0.168-0.185-0.298-0.185s-0.243 0.075-0.297 0.183l-0.001 0.002-1.035 2.48-2.479 1.035c-0.11 0.056-0.184 0.168-0.184 0.298s0.074 0.242 0.183 0.297l0.002 0.001 2.482 1.035 1.035 2.482c0.056 0.111 0.168 0.185 0.298 0.185s0.243-0.075 0.297-0.183l0.001-0.002 1.035-2.483 2.482-1.035c0.11-0.056 0.184-0.168 0.184-0.298s-0.074-0.242-0.183-0.297l-0.002-0.001z"></path>
</svg>
