<!-- Generated by IcoMoon.io -->
<svg version="1.1" xmlns="http://www.w3.org/2000/svg" width="36" height="32" viewBox="0 0 36 32">
<title>house-damage-solid</title>
<path d="M18 7.185l-13.658 12.047c-0.101 0.091-0.231 0.134-0.342 0.209v11.559c0 0.552 0.447 1 1 1h9.327l-2.327-4.551 6.507-4-3.76-7.451 9.253 8.549-6.507 4 2.495 3.453h11.012c0.552 0 1-0.448 1-1v-11.556c-0.106-0.073-0.233-0.114-0.329-0.2l-13.671-12.059zM35.668 14.768l-3.668-3.239v-8.528c0-0.553-0.448-1-1-1h-4c-0.552 0-1 0.447-1 1v3.231l-6.328-5.586c-0.477-0.429-1.074-0.644-1.672-0.644s-1.194 0.213-1.669 0.642l-15.999 14.126c-0.411 0.369-0.445 1.001-0.076 1.412l1.337 1.489c0.369 0.411 1.001 0.445 1.413 0.076l14.333-12.643c0.378-0.333 0.945-0.333 1.323 0l14.333 12.642c0.411 0.369 1.043 0.335 1.413-0.076l1.337-1.489c0.369-0.411 0.335-1.043-0.076-1.412z"></path>
</svg>
