<!-- Generated by IcoMoon.io -->
<svg version="1.1" xmlns="http://www.w3.org/2000/svg" width="40" height="32" viewBox="0 0 40 32">
<title>house-return</title>
<path d="M6 23v-12.5c-0.006-0.091-0.024-0.177-0.053-0.257l0.002 0.007 9.051-7.921 7.326 6.411c0.084-0.113 0.144-0.242 0.233-0.35-0.603-0.871-1.007-1.923-1.123-3.061l-0.002-0.028-5.775-5.051c-0.175-0.153-0.406-0.247-0.658-0.247s-0.483 0.094-0.659 0.248l0.001-0.001-14 12.25c-0.21 0.184-0.342 0.453-0.342 0.753 0 0.553 0.448 1 1 1 0.253 0 0.484-0.094 0.66-0.248l-0.001 0.001 2.341-2.051v11.045c0.002 1.656 1.344 2.998 3 3h13.071l0.421-2h-13.492c-0.552 0-1-0.448-1-1v0zM11.333 10c-0.736 0.002-1.331 0.598-1.333 1.334v5.333c0.002 0.735 0.598 1.331 1.333 1.333h5.331c0.736-0.001 1.334-0.597 1.336-1.333v-5.333c-0.002-0.737-0.599-1.333-1.336-1.334h-0zM16 16h-4v-4h4zM39.125 26.381l-2.962-3.274-1.907-5.219c0.013-0.088 0.025-0.169 0.037-0.257 0.536 0.5 1.258 0.806 2.051 0.806 0.002 0 0.003 0 0.005 0h-0c1.131-0.011 2.124-0.589 2.711-1.463l0.008-0.012c0.619-0.938 0.719-2.094 0.264-3.169l-0.738-1.75c-0.719-1.569-1.932-2.794-3.432-3.45l-0.537-0.238c-1.056-0.476-1.912-0.851-2.832-1.088 0.52-0.738 0.831-1.655 0.831-2.646 0-2.554-2.071-4.625-4.625-4.625s-4.625 2.071-4.625 4.625c0 1.573 0.786 2.963 1.986 3.799l0.015 0.010c-1.244 0.938-2.207 2.293-2.699 3.925l-0.545 1.781-1.224 1.318c-0.918 1-1.163 2.382-0.625 3.601s1.693 2.012 2.962 2.012c0.001 0 0.003 0 0.004 0 0.12 0 0.238-0.007 0.354-0.020l-0.014 0.001c-0.415 0.659-0.733 1.427-0.911 2.247l-0.009 0.047-0.974 4.631c-0.375 1.77 0.662 3.5 2.375 3.932 0.227 0.059 0.487 0.093 0.755 0.094h0c1.488 0 2.801-1.094 3.119-2.613l0.974-4.637c0.009-0.046 0.029-0.086 0.057-0.119l-0 0 0.662-0.668 0.545 1.493c0.327 0.882 0.794 1.64 1.38 2.287l-0.005-0.006 2.918 3.2c0.575 0.638 1.403 1.037 2.325 1.037s1.751-0.399 2.323-1.034l0.002-0.003c1.167-1.281 1.167-3.281 0-4.556zM28 2c1.45 0 2.625 1.175 2.625 2.625s-1.175 2.625-2.625 2.625c-1.45 0-2.625-1.175-2.625-2.625v0c0-1.45 1.175-2.625 2.625-2.625v0zM27.556 23.231c-0.295 0.295-0.505 0.674-0.591 1.098l-0.002 0.014-0.975 4.637c-0.119 0.544-0.576 1.019-1.164 1.019-0.006 0-0.014 0-0.021 0-0.090 0-0.177-0.011-0.259-0.033l0.007 0.002c-0.651-0.162-1.051-0.869-0.901-1.575l0.974-4.63c0.2-0.965 0.659-1.801 1.302-2.457l-0.001 0.001 2.688-2.713-1.306-5.731c-0.375 0.538-0.381 0.688-1.094 3.031-0.144 0.471-0.38 0.877-0.69 1.215l0.002-0.002-1.469 1.581c-0.25 0.276-0.537 0.388-0.813 0.388-0.926 0-1.75-1.307-0.869-2.263l1.462-1.581c0.045-0.048 0.079-0.107 0.099-0.172l0.001-0.003 0.645-2.119c0.718-2.356 2.718-3.938 4.986-3.938 1.744 0 2.65 0.481 4.787 1.424 1.045 0.456 1.894 1.313 2.414 2.45l0.719 1.701c0.438 1.031-0.358 1.868-1.139 1.868-0.406 0-0.806-0.225-1.037-0.769l-0.699-1.661c-0.23-0.514-0.632-0.918-1.13-1.145l-0.014-0.006c-1.082-0.481-1.65-0.738-2.212-0.938l0.988 4.331c0.236 1.031-0.019 2.119-0.744 2.981zM37.656 29.587c-0.21 0.234-0.512 0.382-0.849 0.386h-0.001c-0.338-0.002-0.641-0.15-0.849-0.385l-0.001-0.001-2.919-3.2c-0.413-0.454-0.744-0.993-0.963-1.585l-0.011-0.034-0.668-1.849 1.812-1.831 0.063-0.075 0.006-0.007 1.017 2.788c0.105 0.285 0.256 0.53 0.447 0.739l-0.002-0.002 2.918 3.2c0.218 0.246 0.351 0.571 0.351 0.928s-0.134 0.683-0.353 0.931l0.001-0.001z"></path>
</svg>
