<!-- Generated by IcoMoon.io -->
<svg version="1.1" xmlns="http://www.w3.org/2000/svg" width="36" height="32" viewBox="0 0 36 32">
<title>house-user</title>
<path d="M35.683 15.125l-3.661-3.204v-8.921c0-0.552-0.448-1-1-1v0h-6.005c-0.552 0-1 0.448-1 1v0 1.919l-5.346-4.669c-0.175-0.154-0.406-0.248-0.659-0.248s-0.484 0.094-0.66 0.249l0.001-0.001-17.012 14.875c-0.197 0.192-0.325 0.455-0.342 0.747l-0 0.003c0 0.552 0.448 1 1 1v0c0.251-0.013 0.479-0.104 0.662-0.249l-0.002 0.002 2.342-2.052v14.424c0.004 1.655 1.345 2.996 3 3h22.018c1.655-0.004 2.996-1.345 3-3v-14.423l2.344 2.047c0.176 0.132 0.395 0.215 0.632 0.228l0.003 0c0.552 0 1-0.448 1-1v0c-0.016-0.284-0.134-0.538-0.317-0.729l0 0zM10.982 30c0.004-2.761 2.242-4.997 5.003-5h4c2.761 0.002 4.999 2.239 5.004 5v0zM30.021 29c0 0.552-0.448 1-1 1v0h-2.027c-0.006-3.865-3.139-6.996-7.005-7h-4c-3.867 0.002-7.001 3.134-7.008 6.999v0.001h-1.976c-0.552 0-1-0.448-1-1v0-16.172l12.008-10.5 12.009 10.5zM30.021 10.17l-4-3.5v-2.67h4zM12.984 16c0 0.001 0 0.002 0 0.004 0 2.764 2.24 5.004 5.004 5.004s5.004-2.24 5.004-5.004c0-2.764-2.24-5.004-5.004-5.004v0c-2.761 0.002-4.999 2.239-5.004 5v0zM20.989 16c0 1.657-1.343 3-3 3s-3-1.343-3-3c0-1.657 1.343-3 3-3v0c1.656 0.002 2.997 1.344 3 3v0z"></path>
</svg>
