<!-- Generated by IcoMoon.io -->
<svg version="1.1" xmlns="http://www.w3.org/2000/svg" width="40" height="32" viewBox="0 0 40 32">
<title>house-day-solid</title>
<path d="M8.5 11c0 1.381 1.119 2.5 2.5 2.5s2.5-1.119 2.5-2.5c0-1.381-1.119-2.5-2.5-2.5v0c-1.38 0.002-2.498 1.12-2.5 2.5v0zM39.702 18.276l-3.702-3.276v-6c0-0.552-0.448-1-1-1v0h-2c-0.552 0-1 0.448-1 1v0 2.456l-5.53-4.898c-0.388-0.346-0.902-0.557-1.466-0.557s-1.078 0.211-1.468 0.559l0.002-0.002-13.238 11.719c-0.184 0.163-0.299 0.4-0.299 0.663 0 0.225 0.084 0.431 0.223 0.587l-0.001-0.001 1.174 1.33c0.163 0.184 0.4 0.299 0.664 0.299 0.225 0 0.43-0.084 0.587-0.221l-0.001 0.001 1.353-1.192v10.258c0 1.105 0.895 2 2 2v0h18c1.105 0 2-0.895 2-2v0-10.26l1.351 1.198c0.156 0.136 0.361 0.219 0.585 0.219 0.264 0 0.501-0.114 0.664-0.296l0.001-0.001 1.174-1.33c0.138-0.156 0.223-0.363 0.223-0.589 0-0.263-0.114-0.5-0.296-0.663l-0.001-0.001zM28 23c0 0.552-0.448 1-1 1v0h-4c-0.552 0-1-0.448-1-1v0-4c0-0.552 0.448-1 1-1v0h4c0.552 0 1 0.448 1 1v0zM6.5 11c0-2.485 2.015-4.5 4.5-4.5s4.5 2.015 4.5 4.5v0 0l2.677-2.371-0.659-0.329 1.438-4.313c0.024-0.070 0.038-0.15 0.038-0.234 0-0.41-0.332-0.743-0.742-0.743-0.085 0-0.166 0.014-0.242 0.040l0.005-0.002-4.313 1.438-2.036-4.076c-0.125-0.246-0.376-0.413-0.666-0.413s-0.541 0.166-0.664 0.408l-0.002 0.004-2.033 4.069-4.318-1.438c-0.071-0.025-0.152-0.039-0.236-0.039-0.41 0-0.743 0.332-0.743 0.743 0 0.084 0.014 0.164 0.039 0.239l-0.002-0.005 1.437 4.313-4.067 2.040c-0.246 0.125-0.412 0.376-0.412 0.666s0.166 0.541 0.408 0.664l0.004 0.002 4.069 2.032-1.438 4.319c-0.025 0.071-0.039 0.152-0.039 0.237 0 0.41 0.333 0.743 0.743 0.743 0.085 0 0.166-0.014 0.242-0.040l-0.005 0.002 4.313-1.438 0.046 0.093c0.166-0.323 0.376-0.599 0.628-0.831l0.002-0.002 1.504-1.332c-2.234-0.262-3.979-2.147-3.979-4.449z"></path>
</svg>
