<!-- Generated by IcoMoon.io -->
<svg version="1.1" xmlns="http://www.w3.org/2000/svg" width="36" height="32" viewBox="0 0 36 32">
<title>house</title>
<path d="M35.658 15.125l-3.658-3.203v-8.922c0-0.552-0.448-1-1-1v0h-6c-0.552 0-1 0.448-1 1v0 1.922l-5.342-4.672c-0.175-0.153-0.406-0.247-0.658-0.247s-0.483 0.094-0.659 0.248l0.001-0.001-17 14.875c-0.21 0.184-0.342 0.453-0.342 0.753 0 0.552 0.448 1 1 1 0.253 0 0.484-0.094 0.66-0.248l-0.001 0.001 2.341-2.051v14.421c0.002 1.656 1.344 2.998 3 3h22c1.656-0.002 2.998-1.344 3-3v-14.421l2.341 2.049c0.171 0.141 0.392 0.226 0.633 0.226 0.552 0 1-0.448 1-1 0-0.287-0.121-0.547-0.316-0.729l-0.001-0.001zM30 29c0 0.552-0.448 1-1 1v0h-22c-0.552 0-1-0.448-1-1v0-16.171l12-10.5 12 10.5zM30 10.172l-4-3.5v-2.672h4zM13 13.667v6.667c0.003 0.919 0.747 1.663 1.666 1.666h6.665c0.92-0.002 1.665-0.747 1.669-1.666v-6.667c-0.003-0.92-0.748-1.665-1.669-1.667h-6.665c-0.919 0.003-1.664 0.748-1.666 1.667v0zM15 14h6v6h-6z"></path>
</svg>
