<!-- Generated by IcoMoon.io -->
<svg version="1.1" xmlns="http://www.w3.org/2000/svg" width="40" height="32" viewBox="0 0 40 32">
<title>house-signal</title>
<path d="M0 14v2c8.836 0 16 7.164 16 16h2c0-9.941-8.059-18-18-18zM0 20v2c5.523 0 10 4.477 10 10v0h2c0-6.625-5.375-12-12-12zM0 26v2c2.209 0 4 1.791 4 4v0h2c0-3.314-2.686-6-6-6v0zM39.658 12.5l-3.658-3.203v-6.298c0-0.552-0.448-1-1-1s-1 0.448-1 1v0 4.546l-8.342-7.296c-0.175-0.153-0.406-0.247-0.658-0.247s-0.483 0.094-0.659 0.248l0.001-0.001-14 12.25c-0.215 0.185-0.351 0.457-0.351 0.761 0 0.552 0.448 1 1 1 0.257 0 0.491-0.097 0.668-0.256l-0.001 0.001 2.342-2.050v4.424c0.716 0.638 1.369 1.304 1.977 2.010l0.023 0.028v-7.918c-0.006-0.091-0.024-0.177-0.053-0.257l0.002 0.007 9.051-7.921 9 7.875v12.796c0 0.552-0.448 1-1 1v0h-13.587c0.221 0.51 0.461 1.174 0.667 1.853l0.039 0.147h12.881c1.656-0.002 2.998-1.344 3-3v-11.045l2.341 2.049c0.172 0.144 0.395 0.231 0.639 0.231 0.552 0 1-0.448 1-1 0-0.29-0.124-0.552-0.321-0.734l-0.001-0.001zM27.667 18c0.735-0.002 1.331-0.598 1.333-1.333v-5.333c-0.002-0.736-0.598-1.332-1.333-1.334h-5.331c-0.737 0.001-1.334 0.597-1.336 1.334v5.333c0.002 0.736 0.599 1.332 1.336 1.333h0zM23 12h4v4h-4z"></path>
</svg>
