<!-- Generated by IcoMoon.io -->
<svg version="1.1" xmlns="http://www.w3.org/2000/svg" width="40" height="32" viewBox="0 0 40 32">
<title>house-leave-solid</title>
<path d="M22.304 24.031c0.186-0.183 0.333-0.405 0.43-0.652l0.004-0.013 2.029-5.047c-0.030-0.188-0.051-0.375-0.063-0.563-0.533 0.284-1.165 0.45-1.836 0.45-0.652 0-1.268-0.157-1.811-0.436l0.022 0.010c-1.954-0.984-2.753-3.385-1.782-5.352l0.421-0.853c0.876-1.749 2.326-3.103 4.097-3.835l0.053-0.019 0.47-0.192-7.869-6.972c-0.388-0.346-0.902-0.557-1.466-0.557s-1.078 0.211-1.468 0.559l0.002-0.002-13.238 11.719c-0.184 0.163-0.299 0.4-0.299 0.663 0 0.225 0.084 0.431 0.223 0.587l-0.001-0.001 1.174 1.33c0.163 0.184 0.4 0.299 0.664 0.299 0.225 0 0.43-0.084 0.587-0.222l-0.001 0.001 1.353-1.193v10.258c0 1.105 0.895 2 2 2v0h14.34zM14 17c0 0.552-0.448 1-1 1v0h-4c-0.552 0-1-0.448-1-1v0-4c0-0.552 0.448-1 1-1v0h4c0.552 0 1 0.448 1 1v0zM33 6c1.657 0 3-1.343 3-3s-1.343-3-3-3c-1.657 0-3 1.343-3 3v0c0 1.657 1.343 3 3 3v0zM24.597 24.109c-0.209 0.525-0.509 0.972-0.886 1.343l-0 0-3.125 3.132c-0.338 0.357-0.546 0.841-0.546 1.374 0 1.105 0.895 2 2 2 0.531 0 1.013-0.207 1.371-0.544l-0.001 0.001 3.712-3.712c0.373-0.374 0.673-0.821 0.878-1.317l0.010-0.027 0.844-2.112c-3.456-3.768-2.419-2.612-2.962-3.356zM38.901 15.316l-1.456-0.738-0.606-1.836c-0.919-2.788-3.481-4.738-6.387-4.744-2.25-0.006-3.492 0.631-5.83 1.575-1.365 0.564-2.45 1.578-3.091 2.853l-0.016 0.034-0.419 0.851c-0.132 0.26-0.209 0.567-0.209 0.893 0 0.776 0.441 1.45 1.086 1.783l0.011 0.005c0.258 0.132 0.562 0.21 0.885 0.21 0.773 0 1.442-0.445 1.765-1.093l0.005-0.011 0.422-0.849c0.218-0.436 0.577-0.774 1.017-0.958l0.013-0.005 1.675-0.674-0.95 3.793c-0.075 0.29-0.118 0.623-0.118 0.966 0 1.044 0.399 1.996 1.052 2.71l-0.003-0.003 3.744 4.087c0.434 0.474 0.757 1.057 0.924 1.703l0.006 0.028 1.138 4.581c0.224 0.877 1.008 1.516 1.941 1.516 1.105 0 2-0.895 2-2 0-0.172-0.022-0.339-0.063-0.498l0.003 0.014-1.388-5.563c-0.172-0.674-0.496-1.258-0.934-1.734l0.003 0.003-2.844-3.106 1.075-4.293 0.344 1.031c0.339 1.015 1.046 1.83 1.959 2.302l0.022 0.010 1.456 0.738c0.258 0.132 0.562 0.21 0.885 0.21 0.773 0 1.443-0.445 1.766-1.093l0.005-0.011c0.129-0.259 0.205-0.564 0.205-0.888 0-0.779-0.44-1.455-1.086-1.793l-0.011-0.005z"></path>
</svg>
