<!-- Generated by IcoMoon.io -->
<svg version="1.1" xmlns="http://www.w3.org/2000/svg" width="40" height="32" viewBox="0 0 40 32">
<title>house-return-solid</title>
<path d="M23.425 20.835c-0.431 0.175-0.931 0.276-1.455 0.276-1.557 0-2.904-0.896-3.554-2.201l-0.010-0.023c-0.967-1.969-0.164-4.372 1.785-5.353l0.719-0.364 0.348-1.052c0.615-1.829 1.747-3.347 3.222-4.426l0.025-0.018-8.035-7.116c-0.388-0.346-0.902-0.557-1.466-0.557s-1.078 0.211-1.468 0.559l0.002-0.002-13.238 11.718c-0.183 0.163-0.298 0.4-0.298 0.664 0 0.225 0.084 0.431 0.222 0.587l-0.001-0.001 1.174 1.331c0.163 0.183 0.4 0.298 0.664 0.298 0.225 0 0.43-0.084 0.587-0.222l-0.001 0.001 1.353-1.192v10.258c0 1.105 0.895 2 2 2v0h15.366l0.634-2.539c0.258-1.010 0.743-1.884 1.4-2.598l-0.004 0.004zM14 17c0 0.552-0.448 1-1 1v0h-4c-0.552 0-1-0.448-1-1v0-4c0-0.552 0.448-1 1-1v0h4c0.552 0 1 0.448 1 1v0zM33.188 16.406l-0.95-3.793 1.674 0.674c0.451 0.19 0.809 0.528 1.020 0.952l0.005 0.012 0.419 0.849c0.329 0.659 0.998 1.104 1.771 1.104 0.323 0 0.627-0.077 0.896-0.215l-0.011 0.005c0.656-0.339 1.097-1.012 1.097-1.789 0-0.325-0.077-0.632-0.215-0.904l0.005 0.011-0.419-0.849c-0.656-1.31-1.741-2.323-3.067-2.873l-0.040-0.015c-2.337-0.944-3.581-1.581-5.83-1.575-2.906 0.006-5.468 1.956-6.387 4.743l-0.606 1.836-1.456 0.738c-0.658 0.343-1.099 1.020-1.099 1.8 0 0.323 0.076 0.629 0.21 0.9l-0.005-0.012c0.329 0.659 0.998 1.104 1.772 1.104 0.323 0 0.627-0.077 0.896-0.215l-0.011 0.005 1.456-0.738c0.935-0.483 1.642-1.297 1.973-2.284l0.008-0.028 0.344-1.031 1.075 4.293-2.839 3.105c-0.436 0.473-0.759 1.057-0.925 1.703l-0.006 0.028-1.387 5.563c-0.038 0.145-0.060 0.312-0.060 0.484 0 1.105 0.895 2 2 2 0.933 0 1.716-0.638 1.938-1.502l0.003-0.014 1.143-4.58c0.173-0.674 0.497-1.257 0.933-1.734l-0.003 0.003 3.744-4.087c0.652-0.711 1.051-1.663 1.051-2.707 0-0.344-0.043-0.677-0.124-0.995l0.006 0.028zM27 6c1.657 0 3-1.343 3-3s-1.343-3-3-3c-1.657 0-3 1.343-3 3v0c0 1.657 1.343 3 3 3v0zM39.414 28.584l-3.125-3.131c-0.377-0.371-0.677-0.818-0.877-1.317l-0.009-0.026-1.294-3.218c-0.544 0.744 0.493-0.412-2.962 3.356l0.844 2.112c0.214 0.523 0.515 0.969 0.888 1.343l-0-0 3.712 3.712c0.357 0.336 0.839 0.543 1.37 0.543 1.105 0 2-0.895 2-2 0-0.532-0.208-1.016-0.547-1.374l0.001 0.001z"></path>
</svg>
