<!-- Generated by IcoMoon.io -->
<svg version="1.1" xmlns="http://www.w3.org/2000/svg" width="36" height="32" viewBox="0 0 36 32">
<title>house-damage</title>
<path d="M35.844 13.746l-3.844-3.099v-6.147c0-0.276-0.224-0.5-0.5-0.5h-1c-0.276 0-0.5 0.224-0.5 0.5v4.534l-10.586-8.534c-0.823-0.668-2.004-0.668-2.826 0l-16.43 13.246c-0.182 0.148-0.211 0.415-0.063 0.591l0.886 1.097c0.078 0.097 0.197 0.158 0.33 0.158 0.102 0 0.195-0.036 0.268-0.095l-0.001 0.001 2.422-1.953v17.456c0 0.552 0.447 1 1 1h9.348l-2.328-5.119 6.507-4.499-3.76-8.381 9.253 9.616-6.507 4.499 2.495 3.884h10.991c0.552 0 1-0.448 1-1v-17.451l2.424 1.955c0.183 0.148 0.45 0.119 0.597-0.063l0.886-1.097c0.148-0.182 0.112-0.45-0.063-0.598zM30 30h-8.898l-0.86-1.339 4.917-3.4c0.471-0.328 0.791-0.844 0.852-1.437l0.001-0.009c0.059-0.584-0.142-1.164-0.549-1.586l-9.254-9.616c-0.389-0.404-0.913-0.613-1.442-0.613-0.387 0-0.777 0.113-1.119 0.342-0.806 0.544-1.104 1.589-0.706 2.476l3.079 6.864-5.139 3.553c-0.796 0.551-1.084 1.592-0.683 2.473l1.042 2.292h-5.242v-18.069l11.734-9.462c0.071-0.059 0.163-0.095 0.264-0.095s0.193 0.036 0.264 0.095l-0.001-0.001 11.739 9.467v18.064z"></path>
</svg>
