<!-- Generated by IcoMoon.io -->
<svg version="1.1" xmlns="http://www.w3.org/2000/svg" width="40" height="32" viewBox="0 0 40 32">
<title>house-night</title>
<path d="M7 14c0.005 0 0.010 0 0.016 0 2.184 0 4.134-1.005 5.412-2.578l0.010-0.013c0.179-0.219 0.287-0.501 0.287-0.808 0-0.708-0.574-1.282-1.282-1.282-0.085 0-0.167 0.008-0.247 0.024l0.008-0.001c-0.21 0.042-0.452 0.067-0.7 0.067-2.043 0-3.7-1.657-3.7-3.7 0-1.372 0.747-2.57 1.856-3.208l0.018-0.010c0.39-0.221 0.649-0.634 0.649-1.107 0-0.079-0.007-0.155-0.021-0.23l0.001 0.008c-0.089-0.532-0.499-0.948-1.022-1.043l-0.008-0.001c-0.379-0.067-0.821-0.11-1.27-0.117l-0.007-0c-3.866 0-7 3.134-7 7s3.134 7 7 7v0zM6.111 2.079c-0.812 0.978-1.305 2.246-1.305 3.63 0 2.798 2.016 5.125 4.675 5.609l0.035 0.005c-0.72 0.425-1.585 0.676-2.51 0.676-2.761 0-5-2.239-5-5 0-2.445 1.755-4.48 4.075-4.915l0.031-0.005zM12.183 4.299l2.482 1.035 1.035 2.482c0.056 0.111 0.168 0.185 0.298 0.185s0.243-0.075 0.298-0.183l0.001-0.002 1.035-2.482 2.48-1.035c0.11-0.056 0.184-0.168 0.184-0.298s-0.074-0.242-0.183-0.297l-0.002-0.001-2.48-1.035-1.035-2.48c-0.056-0.111-0.168-0.185-0.298-0.185s-0.243 0.075-0.298 0.183l-0.001 0.002-1.035 2.48-2.482 1.035c-0.11 0.056-0.184 0.168-0.184 0.298s0.074 0.242 0.182 0.297l0.002 0.001zM9.813 23.703l-2.482-1.036-1.032-2.479c-0.056-0.11-0.169-0.184-0.298-0.184s-0.242 0.074-0.298 0.182l-0.001 0.002-1.035 2.479-2.482 1.036c-0.11 0.056-0.184 0.169-0.184 0.298s0.074 0.242 0.182 0.297l0.002 0.001 2.482 1.035 1.035 2.482c0.056 0.111 0.168 0.185 0.298 0.185s0.243-0.075 0.298-0.183l0.001-0.002 1.035-2.482 2.48-1.035c0.11-0.056 0.184-0.168 0.184-0.298s-0.074-0.242-0.183-0.297l-0.002-0.001zM21 17.334v5.333c0.002 0.736 0.599 1.332 1.335 1.333h5.332c0.735-0.002 1.331-0.598 1.333-1.333v-5.333c-0.002-0.736-0.598-1.331-1.333-1.334h-5.332c-0.736 0.001-1.333 0.598-1.335 1.334v0zM23 18h4v4h-4zM39.656 18.5l-3.656-3.203v-6.297c0-0.552-0.448-1-1-1s-1 0.448-1 1v0 4.547l-8.342-7.297c-0.175-0.154-0.406-0.247-0.658-0.247s-0.484 0.094-0.66 0.248l0.001-0.001-14 12.25c-0.21 0.184-0.342 0.453-0.342 0.753 0 0.552 0.448 1 1 1 0.253 0 0.483-0.094 0.66-0.248l-0.001 0.001 2.342-2.051v11.045c0.002 1.656 1.344 2.998 3 3h16c1.656-0.002 2.998-1.344 3-3v-11.045l2.341 2.049c0.171 0.141 0.392 0.226 0.633 0.226 0.552 0 1-0.448 1-1 0-0.288-0.121-0.547-0.316-0.729l-0.001-0zM34 29c0 0.552-0.448 1-1 1v0h-16c-0.552 0-1-0.448-1-1v0-12.5c-0.007-0.092-0.025-0.177-0.053-0.257l0.002 0.007 9.051-7.921 9 7.875z"></path>
</svg>
