<!-- Generated by IcoMoon.io -->
<svg version="1.1" xmlns="http://www.w3.org/2000/svg" width="40" height="32" viewBox="0 0 40 32">
<title>house-signal-solid</title>
<path d="M39.702 12.276l-3.702-3.276v-6c0-0.552-0.448-1-1-1v0h-2c-0.552 0-1 0.448-1 1v0 2.456l-5.53-4.898c-0.388-0.346-0.902-0.557-1.466-0.557s-1.078 0.211-1.468 0.559l0.002-0.002-13.238 11.719c-0.183 0.163-0.298 0.4-0.298 0.664 0 0.225 0.084 0.431 0.222 0.587l-0.001-0.001 1.174 1.33c0.163 0.184 0.4 0.299 0.664 0.299 0.225 0 0.43-0.084 0.587-0.222l-0.001 0.001 1.352-1.192v4c2.282 2.237 4.029 5.010 5.038 8.116l0.040 0.142h14.922c1.105 0 2-0.895 2-2v0-10.26l1.351 1.197c0.156 0.136 0.361 0.219 0.585 0.219 0.264 0 0.501-0.114 0.664-0.296l0.001-0.001 1.174-1.33c0.138-0.156 0.223-0.363 0.223-0.589 0-0.263-0.114-0.5-0.296-0.663l-0.001-0.001zM28 17c0 0.552-0.448 1-1 1v0h-4c-0.552 0-1-0.448-1-1v0-4c0-0.552 0.448-1 1-1v0h4c0.552 0 1 0.448 1 1v0zM0 26v6h6c0-3.314-2.686-6-6-6v0zM0 20v3.996c4.42 0.002 8.003 3.584 8.004 8.004v0h3.996c0-6.625-5.375-12-12-12zM0 14v0 3.996c7.732 0 14.004 6.273 14.004 14.004h3.996c0-9.941-8.059-18-18-18z"></path>
</svg>
