<!-- Generated by IcoMoon.io -->
<svg version="1.1" xmlns="http://www.w3.org/2000/svg" width="40" height="32" viewBox="0 0 40 32">
<title>house-day</title>
<path d="M7.5 11c0 1.933 1.567 3.5 3.5 3.5s3.5-1.567 3.5-3.5c0-1.933-1.567-3.5-3.5-3.5v0c-1.932 0.003-3.497 1.568-3.5 3.5v0zM12.5 11c0 0.828-0.672 1.5-1.5 1.5s-1.5-0.672-1.5-1.5c0-0.828 0.672-1.5 1.5-1.5v0c0.828 0 1.5 0.672 1.5 1.5v0zM39.658 18.5l-3.658-3.203v-6.297c0-0.552-0.448-1-1-1s-1 0.448-1 1v0 4.547l-8.342-7.297c-0.175-0.153-0.406-0.247-0.658-0.247s-0.483 0.094-0.659 0.248l0.001-0.001-14 12.25c-0.205 0.184-0.333 0.449-0.333 0.745 0 0.552 0.448 1 1 1 0.248 0 0.476-0.091 0.65-0.24l-0.001 0.001 2.342-2.051v11.045c0.002 1.656 1.344 2.998 3 3h16c1.656-0.002 2.998-1.344 3-3v-11.045l2.341 2.049c0.171 0.141 0.392 0.226 0.633 0.226 0.552 0 1-0.448 1-1 0-0.288-0.121-0.547-0.316-0.729l-0.001-0zM34 29c0 0.552-0.448 1-1 1v0h-16c-0.552 0-1-0.448-1-1v0-12.5c-0.006-0.091-0.024-0.177-0.053-0.257l0.002 0.007 9.051-7.921 9 7.875zM4.92 17.012l1.375-4.135-3.894-1.946 3.896-1.951-1.375-4.13 4.134 1.375 1.944-3.893 1.951 3.901 4.129-1.379-1.375 4.131 1.563 0.782 1.629-1.422-0.75-0.375 1.036-3.101c0.055-0.158 0.086-0.341 0.086-0.53 0-0.466-0.191-0.888-0.499-1.191l-0-0c-0.299-0.301-0.713-0.487-1.171-0.487-0.192 0-0.376 0.033-0.548 0.093l0.012-0.004-3.1 1.035-1.463-2.927c-0.574-1.144-2.426-1.144-3 0l-1.461 2.924-3.101-1.033c-0.158-0.055-0.341-0.086-0.53-0.086-0.926 0-1.676 0.75-1.676 1.676 0 0.189 0.031 0.37 0.089 0.54l-0.003-0.012 1.035 3.099-2.924 1.463c-0.554 0.281-0.927 0.847-0.927 1.5s0.373 1.219 0.918 1.496l0.010 0.004 2.924 1.46-1.035 3.104c-0.055 0.158-0.087 0.341-0.087 0.531 0 0.466 0.191 0.887 0.499 1.189l0 0c0.298 0.302 0.712 0.488 1.17 0.488 0.193 0 0.379-0.033 0.551-0.095l-0.011 0.004 2.621-0.875 1.944-1.697-0.454-0.91zM21 17.333v5.334c0.002 0.736 0.599 1.332 1.336 1.333h5.331c0.735-0.002 1.331-0.598 1.333-1.333v-5.334c-0.002-0.735-0.598-1.331-1.333-1.333h-5.331c-0.736 0.001-1.334 0.597-1.336 1.333v0zM23 18h4v4h-4z"></path>
</svg>
