<!-- Generated by IcoMoon.io -->
<svg version="1.1" xmlns="http://www.w3.org/2000/svg" width="40" height="32" viewBox="0 0 40 32">
<title>house-leave</title>
<path d="M7 24c-0.552 0-1-0.448-1-1v0-12.5c-0.006-0.091-0.024-0.177-0.053-0.257l0.002 0.007 9.051-7.921 6.775 5.928c0.492-0.444 1.046-0.836 1.643-1.158l0.045-0.022-7.804-6.827c-0.175-0.153-0.406-0.247-0.658-0.247s-0.483 0.094-0.659 0.248l0.001-0.001-14 12.25c-0.21 0.184-0.342 0.453-0.342 0.753 0 0.553 0.448 1 1 1 0.253 0 0.484-0.094 0.66-0.248l-0.001 0.001 2.341-2.051v11.045c0.002 1.656 1.344 2.998 3 3h11.707c0.202-0.364 0.428-0.679 0.686-0.965l-0.004 0.005 0.938-1.039zM11.333 10c-0.736 0.002-1.331 0.598-1.333 1.334v5.333c0.002 0.735 0.598 1.331 1.333 1.333h5.331c0.736-0.001 1.334-0.597 1.336-1.333v-5.333c-0.002-0.737-0.599-1.333-1.336-1.334h-0zM16 16h-4v-4h4zM39.096 15.456l-1.225-1.318-0.544-1.781c-0.492-1.632-1.455-2.987-2.699-3.925 1.215-0.846 1.999-2.235 1.999-3.808 0-2.554-2.071-4.625-4.625-4.625s-4.625 2.071-4.625 4.625c0 0.99 0.311 1.907 0.84 2.659l-0.010-0.015c-0.92 0.237-1.775 0.612-2.832 1.088l-0.537 0.238c-1.5 0.656-2.712 1.881-3.431 3.45l-0.738 1.75c-0.455 1.075-0.356 2.231 0.264 3.169 0.594 0.886 1.587 1.464 2.716 1.474h0.002c0.001 0 0.003 0 0.005 0 0.794 0 1.516-0.307 2.054-0.808l-0.002 0.002c0.011 0.087 0.023 0.169 0.037 0.257l-0.889 2.431-1.018 2.788-2.964 3.274c-1.168 1.275-1.168 3.275 0 4.556 0.574 0.638 1.403 1.037 2.325 1.037s1.751-0.399 2.322-1.034l0.003-0.003 2.918-3.2c0.582-0.641 1.048-1.399 1.359-2.233l0.016-0.048 0.545-1.493 0.662 0.668c0.028 0.032 0.048 0.073 0.057 0.117l0 0.002 0.974 4.637c0.319 1.519 1.632 2.613 3.121 2.613 0.269-0 0.529-0.035 0.777-0.099l-0.022 0.005c1.712-0.432 2.75-2.162 2.375-3.932l-0.975-4.631c-0.187-0.867-0.505-1.635-0.937-2.324l0.017 0.030c0.102 0.012 0.221 0.019 0.34 0.019 0.001 0 0.002 0 0.004 0h-0c1.269 0 2.432-0.788 2.963-2.012s0.292-2.601-0.625-3.601zM32 2c1.45 0 2.625 1.175 2.625 2.625s-1.175 2.625-2.625 2.625c-1.45 0-2.625-1.175-2.625-2.625v0c0-1.45 1.175-2.625 2.625-2.625v0zM27.938 24.769c-0.23 0.626-0.561 1.164-0.978 1.623l0.004-0.004-2.919 3.201c-0.208 0.236-0.511 0.385-0.849 0.386h-0c-0.337-0.004-0.639-0.152-0.848-0.385l-0.001-0.001c-0.218-0.246-0.352-0.572-0.352-0.928s0.133-0.682 0.353-0.93l-0.001 0.001 2.918-3.2c0.189-0.207 0.34-0.452 0.441-0.721l0.005-0.015 1.018-2.788 0.006 0.007 0.063 0.075 1.813 1.831zM36.755 19.076c-0.275 0-0.563-0.113-0.813-0.388l-1.468-1.581c-0.307-0.336-0.544-0.742-0.682-1.191l-0.006-0.022c-0.713-2.344-0.719-2.493-1.094-3.031l-1.307 5.731 2.688 2.713c0.642 0.655 1.101 1.491 1.295 2.424l0.006 0.032 0.974 4.631c0.151 0.706-0.25 1.413-0.9 1.575-0.076 0.020-0.163 0.031-0.253 0.031-0.007 0-0.014-0-0.022-0l0.001 0c-0.588 0-1.045-0.474-1.164-1.019l-0.974-4.637c-0.089-0.438-0.299-0.817-0.594-1.112v0l-3.944-3.994c-0.724-0.863-0.981-1.95-0.744-2.981l0.989-4.331c-0.563 0.2-1.131 0.456-2.213 0.938-0.513 0.233-0.914 0.636-1.139 1.136l-0.006 0.014-0.699 1.662c-0.231 0.544-0.631 0.769-1.038 0.769-0.781 0-1.576-0.837-1.138-1.868l0.719-1.701c0.52-1.137 1.369-1.994 2.414-2.45 2.136-0.943 3.042-1.425 4.786-1.425 2.267 0 4.267 1.581 4.986 3.938l0.644 2.119c0.020 0.068 0.054 0.127 0.1 0.175l-0-0 1.463 1.581c0.881 0.956 0.057 2.263-0.869 2.263z"></path>
</svg>
