<!-- Generated by IcoMoon.io -->
<svg version="1.1" xmlns="http://www.w3.org/2000/svg" width="24" height="32" viewBox="0 0 24 32">
<title>hryvnia</title>
<path d="M23.5 14c0.276 0 0.5-0.224 0.5-0.5v-1c0-0.276-0.224-0.5-0.5-0.5h-6.034l0.796-0.787c1.014-1.003 1.596-2.421 1.596-3.889 0-2.936-2.259-5.324-5.036-5.324h-5.276c-1.378 0-2.7 0.486-3.723 1.365l-2.094 1.8c-0.107 0.092-0.174 0.228-0.174 0.379 0 0.125 0.046 0.239 0.121 0.326l-0.001-0.001 0.651 0.759c0.18 0.209 0.496 0.234 0.705 0.054l2.095-1.801c0.661-0.568 1.52-0.882 2.419-0.882h5.276c1.674 0 3.036 1.491 3.036 3.324 0 0.938-0.365 1.837-1.002 2.467l-2.233 2.209h-14.123c-0.276 0-0.5 0.224-0.5 0.5v1c0 0.276 0.224 0.5 0.5 0.5h12.1l-4.044 4h-8.056c-0.276 0-0.5 0.224-0.5 0.5v1c0 0.276 0.224 0.5 0.5 0.5h6.034l-0.796 0.787c-1.014 1.003-1.596 2.421-1.596 3.889 0 2.936 2.259 5.324 5.036 5.324h5.276c1.378 0 2.7-0.486 3.723-1.365l2.095-1.8c0.107-0.092 0.174-0.228 0.174-0.379 0-0.125-0.046-0.239-0.121-0.326l0.001 0.001-0.651-0.759c-0.092-0.107-0.228-0.174-0.38-0.174-0.125 0-0.239 0.046-0.327 0.121l0.001-0.001-2.095 1.801c-0.661 0.568-1.519 0.882-2.419 0.882h-5.276c-1.674 0-3.036-1.491-3.036-3.324 0-0.938 0.365-1.837 1.002-2.467l2.233-2.209h14.123c0.276 0 0.5-0.224 0.5-0.5v-1c0-0.276-0.224-0.5-0.5-0.5h-12.1l4.044-4h8.056z"></path>
</svg>
