<!-- Generated by IcoMoon.io -->
<svg version="1.1" xmlns="http://www.w3.org/2000/svg" width="24" height="32" viewBox="0 0 24 32">
<title>hryvnia-solid</title>
<path d="M23 15c0.552 0 1-0.447 1-1v-2c0-0.553-0.448-1-1-1h-2.616c0.838-1.789 0.859-3.958-0.258-5.878-1.167-2.007-3.432-3.122-5.753-3.122h-4.926c-1.52 0-2.991 0.533-4.159 1.506l-0.736 0.613c-0.636 0.531-0.723 1.476-0.192 2.112l1.281 1.537c0.531 0.637 1.476 0.722 2.113 0.192l0.733-0.611c0.27-0.225 0.611-0.348 0.962-0.348h5.226c0.731 0 1.325 0.595 1.325 1.325 0 0.369-0.155 0.724-0.426 0.974l-1.843 1.701h-12.731c-0.552 0-1 0.447-1 1v2c0 0.553 0.448 1 1 1h8.398l-2.167 2h-6.231c-0.552 0-1 0.448-1 1v2c0 0.552 0.448 1 1 1h2.616c-0.838 1.789-0.859 3.958 0.258 5.878 1.167 2.006 3.432 3.122 5.753 3.122h4.926c1.52 0 2.991-0.533 4.159-1.506l0.736-0.613c0.636-0.531 0.723-1.476 0.192-2.113l-1.281-1.537c-0.531-0.637-1.476-0.723-2.113-0.192l-0.734 0.613c-0.258 0.216-0.594 0.348-0.96 0.348-0 0-0 0-0 0h-5.227c-0.731 0-1.325-0.595-1.325-1.325 0-0.369 0.155-0.724 0.426-0.974l1.843-1.701h12.731c0.552 0 1-0.448 1-1v-2c0-0.552-0.448-1-1-1h-8.398l2.167-2h6.231z"></path>
</svg>
