<!-- Generated by IcoMoon.io -->
<svg version="1.1" xmlns="http://www.w3.org/2000/svg" width="24" height="32" viewBox="0 0 24 32">
<title>humidity</title>
<path d="M10 18.25c0-0.969-0.781-1.75-1.75-1.75s-1.75 0.781-1.75 1.75 0.781 1.75 1.75 1.75 1.75-0.781 1.75-1.75zM15.75 22c-0.969 0-1.75 0.781-1.75 1.75s0.781 1.75 1.75 1.75 1.75-0.781 1.75-1.75-0.781-1.75-1.75-1.75zM13.994 1.381c-0.275-0.912-1.131-1.381-1.994-1.381-0.844 0-1.688 0.45-1.988 1.381-3.194 9.856-10.012 12.537-10.012 19.488 0 6.15 5.369 11.131 12 11.131s12-4.981 12-11.131c0-6.981-6.806-9.581-10.006-19.488zM12 30c-5.513 0-10-4.094-10-9.131 0-2.975 1.563-5.025 3.725-7.869 2.037-2.675 4.569-6 6.162-10.981 0.006-0.006 0.050-0.019 0.113-0.019 0.044 0 0.075 0.006 0.088 0.006h0.006c1.625 5.025 4.156 8.338 6.194 11.006 2.156 2.825 3.712 4.863 3.712 7.856 0 5.038-4.488 9.131-10 9.131zM15.813 16.738l-0.781-0.625c-0.219-0.175-0.531-0.137-0.7 0.075l-6.219 8.375c-0.175 0.219-0.138 0.531 0.075 0.7l0.781 0.625c0.219 0.175 0.531 0.137 0.7-0.075l6.219-8.375c0.175-0.212 0.137-0.531-0.075-0.7z"></path>
</svg>
