<!-- Generated by IcoMoon.io -->
<svg version="1.1" xmlns="http://www.w3.org/2000/svg" width="24" height="32" viewBox="0 0 24 32">
<title>humidity-solid</title>
<path d="M13.994 1.381c-0.544-1.8-3.369-1.881-3.987 0-3.188 9.856-10.006 12.537-10.006 19.488 0 6.15 5.369 11.131 12 11.131s12-4.981 12-11.131c0-6.981-6.806-9.581-10.006-19.488zM6 18c0-1.106 0.894-2 2-2s2 0.894 2 2-0.894 2-2 2-2-0.894-2-2zM9.094 26.238c-0.175 0.219-0.488 0.25-0.7 0.075l-0.781-0.625c-0.213-0.175-0.25-0.488-0.075-0.7l7.375-9.219c0.175-0.213 0.488-0.25 0.7-0.075l0.781 0.625c0.219 0.175 0.25 0.488 0.075 0.7l-7.375 9.219zM16 26c-1.106 0-2-0.894-2-2s0.894-2 2-2 2 0.894 2 2-0.894 2-2 2z"></path>
</svg>
