<!-- Generated by IcoMoon.io -->
<svg version="1.1" xmlns="http://www.w3.org/2000/svg" width="24" height="32" viewBox="0 0 24 32">
<title>hurricane-solid</title>
<path d="M11 6l1.531-4.675c0.231-0.7-0.35-1.406-1.088-1.319-6.444 0.769-11.444 6.344-11.444 12.994 0 7.181 5.819 13 13 13l-1.531 4.675c-0.231 0.7 0.35 1.406 1.088 1.319 6.444-0.769 11.444-6.344 11.444-12.994 0-7.181-5.819-13-13-13zM12 22c-3.313 0-6-2.688-6-6s2.688-6 6-6 6 2.688 6 6-2.688 6-6 6zM12 14c-1.106 0-2 0.894-2 2s0.894 2 2 2 2-0.894 2-2-0.894-2-2-2z"></path>
</svg>
