<!-- Generated by IcoMoon.io -->
<svg version="1.1" xmlns="http://www.w3.org/2000/svg" width="24" height="32" viewBox="0 0 24 32">
<title>hurricane</title>
<path d="M11 6l1.531-4.675c0.219-0.662-0.287-1.325-0.963-1.325-0.044 0-0.081 0-0.125 0.006-6.444 0.769-11.444 6.344-11.444 12.994 0 7.181 5.819 13 13 13l-1.531 4.675c-0.219 0.663 0.287 1.325 0.963 1.325 0.044 0 0.081 0 0.125-0.006 6.444-0.769 11.444-6.344 11.444-12.994 0-7.181-5.819-13-13-13zM13.894 29.7l1.006-3.081 0.856-2.625h-2.756c-6.063 0-11-4.938-11-11 0-5.069 3.388-9.419 8.106-10.7l-1.006 3.081-0.856 2.625h2.756c6.063 0 11 4.938 11 11 0 5.069-3.387 9.419-8.106 10.7zM12 11.5c-2.488 0-4.5 2.012-4.5 4.5s2.012 4.5 4.5 4.5 4.5-2.012 4.5-4.5-2.012-4.5-4.5-4.5zM12 18.5c-1.381 0-2.5-1.119-2.5-2.5s1.119-2.5 2.5-2.5 2.5 1.119 2.5 2.5-1.119 2.5-2.5 2.5z"></path>
</svg>
