<!-- Generated by IcoMoon.io -->
<svg version="1.1" xmlns="http://www.w3.org/2000/svg" width="36" height="32" viewBox="0 0 36 32">
<title>ice-skate-solid</title>
<path d="M35.5 26h-2c-0.275 0-0.5 0.225-0.5 0.5v1c0 0.831-0.669 1.5-1.5 1.5h-4.5v-3h-3v3h-15v-3h-3v3h-5.5c-0.275 0-0.5 0.225-0.5 0.5v2c0 0.275 0.225 0.5 0.5 0.5h31.5c2.206 0 4-1.794 4-4v-1.5c0-0.275-0.225-0.5-0.5-0.5zM4 24h26c1.106 0 2-0.894 2-2v-2.313c0-2.756-1.875-5.15-4.544-5.819l-7.456-1.869h-3.5c-0.275 0-0.5-0.225-0.5-0.5v-1c0-0.275 0.225-0.5 0.5-0.5h3.5v-2h-3.5c-0.275 0-0.5-0.225-0.5-0.5v-1c0-0.275 0.225-0.5 0.5-0.5h3.5v-5c0-0.55-0.45-1-1-1h-2c-0.55 0-1 0.45-1 1v1l-11.1 3.169c-1.719 0.494-2.9 2.063-2.9 3.844v12.988c0 1.106 0.894 2 2 2z"></path>
</svg>
