<!-- Generated by IcoMoon.io -->
<svg version="1.1" xmlns="http://www.w3.org/2000/svg" width="36" height="32" viewBox="0 0 36 32">
<title>ice-skate</title>
<path d="M35.5 26h-1c-0.275 0-0.5 0.225-0.5 0.5v0.5c0 1.656-1.344 3-3 3h-5v-4h2c2.206 0 4-1.794 4-4v-2.313c0-2.756-1.875-5.156-4.544-5.819l-7.456-1.869v-11.5c0-0.275-0.225-0.5-0.5-0.5h-1c-0.275 0-0.5 0.225-0.5 0.5v1.5h-5.231c-0.506 0-1.012 0.1-1.488 0.288l-8.025 3.212c-0.756 0.3-1.256 1.037-1.256 1.856v14.644c0 2.206 1.794 4 4 4v4h-5.5c-0.275 0-0.5 0.225-0.5 0.5v1c0 0.275 0.225 0.5 0.5 0.5h30.5c2.763 0 5-2.238 5-5v-0.5c0-0.275-0.225-0.5-0.5-0.5zM4 22v-14.644l8.025-3.213c0.238-0.094 0.488-0.144 0.744-0.144h5.231v4h-3.5c-0.275 0-0.5 0.225-0.5 0.5v1c0 0.275 0.225 0.5 0.5 0.5h3.5v2h-3.5c-0.275 0-0.5 0.225-0.5 0.5v1c0 0.275 0.225 0.5 0.5 0.5h5.256l7.219 1.806c1.781 0.444 3.025 2.037 3.025 3.881v2.313c0 1.1-0.9 2-2 2h-22c-1.1 0-2-0.9-2-2zM24 30h-16v-4h16v4z"></path>
</svg>
