<!-- Generated by IcoMoon.io -->
<svg version="1.1" xmlns="http://www.w3.org/2000/svg" width="32" height="32" viewBox="0 0 32 32">
<title>icicles</title>
<path d="M29.125 0h-26.25c-1.856 0-3.331 1.781-2.744 3.737l5.544 15.587c0.144 0.419 0.494 0.706 0.981 0.675 0.438-0.012 0.819-0.319 0.931-0.744l1.469-4.813 2.206 10.756c0.094 0.469 0.506 0.806 0.981 0.806 0.481 0 0.887-0.337 0.981-0.813l2.275-11.344 1.394 5.375c0.1 0.45 0.5 0.775 0.969 0.781h0.006c0.462 0 0.863-0.313 0.969-0.762l2.019-7.456 3.531 19.394c0.087 0.475 0.494 0.819 0.975 0.819h0.012c0.475 0 0.887-0.337 0.981-0.8l5.594-27.781v-0.013c0.337-1.794-1.050-3.406-2.825-3.406zM25.425 25.688l-3.431-18.863c-0.194-1.063-1.7-1.1-1.956-0.063l-2.125 8.644-1.506-6.625c-0.231-1.019-1.744-1.050-1.956 0.031l-2.206 11.375-2.056-10.375c-0.219-1.1-1.7-0.988-1.95-0.063l-1.731 6.544-4.469-13.169c-0.163-0.55 0.237-1.125 0.837-1.125h26.25c0.694 0 0.931 0.656 0.863 1.031l-4.563 22.656z"></path>
</svg>
