<!-- Generated by IcoMoon.io -->
<svg version="1.1" xmlns="http://www.w3.org/2000/svg" width="32" height="32" viewBox="0 0 32 32">
<title>icons-solid</title>
<path d="M7.291 13.709c0.179 0.186 0.43 0.302 0.708 0.302s0.529-0.116 0.707-0.302l0-0 6.047-6.239c1.759-1.813 1.656-4.819-0.307-6.492-1.712-1.459-4.259-1.196-5.83 0.425l-0.616 0.634-0.616-0.634c-1.569-1.621-4.119-1.884-5.831-0.425-1.963 1.674-2.063 4.678-0.313 6.492zM16.286 19.99h-3l-0.443-0.89c-0.25-0.655-0.873-1.111-1.603-1.111-0 0-0.001 0-0.001 0h-4.482c-0 0-0 0-0.001 0-0.73 0-1.353 0.457-1.599 1.1l-0.004 0.012-0.438 0.89h-3c-0 0-0 0-0.001 0-0.948 0-1.716 0.768-1.716 1.716 0 0 0 0 0 0.001v-0 8.578c0 0 0 0 0 0.001 0 0.947 0.767 1.715 1.714 1.715h14.571c0.947-0.001 1.714-0.769 1.714-1.716v0-8.578c0-0 0-0 0-0.001 0-0.947-0.767-1.715-1.714-1.716h-0zM9 29.25c-1.795 0-3.25-1.455-3.25-3.25s1.455-3.25 3.25-3.25c1.795 0 3.25 1.455 3.25 3.25v0c0 1.795-1.455 3.25-3.25 3.25v0zM31.212 22.006h-3.786l1.398-3.172c0.131-0.416-0.246-0.826-0.761-0.826h-4.724c-0.394 0-0.729 0.244-0.781 0.569l-1.050 6.683c-0.063 0.394 0.305 0.743 0.781 0.743h3.894l-1.512 5.188c-0.118 0.416 0.262 0.806 0.764 0.806 0.006 0 0.014 0 0.022 0 0.269 0 0.508-0.128 0.659-0.326l0.001-0.002 5.775-8.682c0.305-0.432-0.073-0.981-0.679-0.981zM29.88 0.021l-9.286 1.427c-0.915 0.141-1.594 0.984-1.594 1.979v6.673c-0.299-0.064-0.644-0.103-0.997-0.106l-0.003-0c-2.209 0-4 1.342-4 3s1.791 3 4 3c2.2 0 3.983-1.332 4-2.979v-6.786l7-1.076v2.949c-0.299-0.064-0.644-0.103-0.997-0.106l-0.003-0c-2.209 0-4 1.343-4 3s1.791 3 4 3c2.2 0 3.983-1.332 4-2.979v-9.016c0-1.218-1-2.151-2.12-1.979z"></path>
</svg>
