<!-- Generated by IcoMoon.io -->
<svg version="1.1" xmlns="http://www.w3.org/2000/svg" width="32" height="32" viewBox="0 0 32 32">
<title>icons</title>
<path d="M6.666 13.463c0.339 0.344 0.81 0.557 1.331 0.557s0.992-0.213 1.331-0.557l0-0 5.291-5.351c0.853-0.864 1.38-2.053 1.38-3.364 0-1.473-0.665-2.79-1.711-3.669l-0.007-0.006c-1.791-1.495-4.506-1.365-6.281 0.263-1.771-1.632-4.486-1.765-6.283-0.262-1.053 0.885-1.718 2.203-1.718 3.677 0 1.31 0.525 2.497 1.377 3.362l-0.001-0.001zM3 2.608c0.441-0.365 1.012-0.587 1.635-0.587 0.008 0 0.016 0 0.024 0h-0.001c0.82 0.005 1.56 0.344 2.091 0.888l0.001 0.001 1.25 1.261 1.25-1.262c1.043-1.054 2.688-1.184 3.75-0.301 0.614 0.515 1.001 1.283 1.001 2.141 0 0.763-0.306 1.454-0.802 1.957l0-0-5.107 5.353-5.293-5.351c-0.494-0.504-0.798-1.194-0.798-1.956 0-0.048 0.001-0.096 0.004-0.143l-0 0.007c0.035-0.808 0.414-1.522 0.992-2.003l0.004-0.004zM16.286 18h-3l-0.443-0.888c-0.25-0.655-0.874-1.112-1.604-1.112 0 0-0 0-0 0h-4.482c-0 0-0.001 0-0.001 0-0.729 0-1.352 0.456-1.599 1.098l-0.004 0.012-0.438 0.888h-3c-0.001 0-0.002 0-0.002 0-0.946 0-1.713 0.766-1.714 1.712v10.579c0.001 0.946 0.768 1.712 1.714 1.712 0 0 0 0 0.001 0h14.571c0 0 0 0 0.001 0 0.946 0 1.713-0.766 1.714-1.712v-10.579c-0.003-0.945-0.769-1.709-1.714-1.709-0 0-0 0-0.001 0h0zM16 30h-14v-10h3.956l0.988-1.997h4.108l0.443 0.888 0.553 1.109h3.952zM30.289 0c-0.087 0-0.172 0.008-0.255 0.022l0.009-0.001-8.571 1.428c-0.847 0.141-1.472 0.985-1.472 1.98v6.996c-0.586-0.256-1.269-0.404-1.987-0.404-0.004 0-0.009 0-0.013 0h0.001c-2.242 0-4 1.318-4 3s1.758 3 4 3 4-1.317 4-3v-9.592c-0-0.006-0.001-0.013-0.001-0.020s0-0.014 0.001-0.021l-0 0.001 8-1.333v6.383c-0.588-0.263-1.274-0.416-1.996-0.416-0.001 0-0.003 0-0.004 0h0c-2.209 0-4 1.343-4 3s1.791 3 4 3 4-1.343 4-3v-9.022c0-1.119-0.782-2-1.711-2zM18 14.021c-1.203 0-2-0.602-2-1s0.797-1 2-1 2 0.601 2 1-0.797 1-2 1zM28 12.021c-1.241 0-2-0.647-2-1s0.759-1 2-1 2 0.647 2 1-0.759 1-2 1zM9 21c-2.209 0-4 1.791-4 4s1.791 4 4 4c2.209 0 4-1.791 4-4v0c-0.002-2.208-1.792-3.997-4-4h-0zM9 27c-1.105 0-2-0.895-2-2s0.895-2 2-2c1.105 0 2 0.895 2 2v0c0 1.105-0.895 2-2 2v0zM26.512 17.448c0.067-0.13 0.106-0.284 0.106-0.448 0-0.552-0.448-1-1-1-0.389 0-0.727 0.222-0.892 0.547l-0.003 0.006-4.223 8.447h6.894l-3.262 5.504c-0.082 0.142-0.131 0.313-0.131 0.495 0 0.371 0.202 0.694 0.501 0.867l0.005 0.003c0.141 0.083 0.312 0.132 0.493 0.132 0 0 0 0 0 0v0c0 0 0.001 0 0.001 0 0.37 0 0.693-0.201 0.866-0.499l0.003-0.005 4.971-8.496h-7.106z"></path>
</svg>
