<!-- Generated by IcoMoon.io -->
<svg version="1.1" xmlns="http://www.w3.org/2000/svg" width="32" height="32" viewBox="0 0 32 32">
<title>icons-alt</title>
<path d="M30.052 0c-0.086 0-0.171 0.008-0.253 0.022l0.009-0.001-8.504 1.428c-0.838 0.141-1.461 0.985-1.461 1.98v6.996c-0.581-0.256-1.259-0.404-1.972-0.404-0.004 0-0.009 0-0.013 0h0.001c-2.224 0-3.969 1.318-3.969 3s1.744 3 3.969 3 3.969-1.317 3.969-3v-9.592c-0-0.006-0.001-0.013-0.001-0.020s0-0.014 0.001-0.021l-0 0.001 7.938-1.333v6.383c-0.583-0.263-1.264-0.416-1.98-0.416-0.002 0-0.003 0-0.005 0h0c-2.192 0-3.969 1.343-3.969 3s1.777 3 3.969 3 3.969-1.343 3.969-3v-9.022c0-1.119-0.776-2-1.698-2zM17.859 14.021c-1.194 0-1.984-0.602-1.984-1s0.791-1 1.984-1 1.984 0.601 1.984 1-0.791 1-1.984 1zM27.781 12.021c-1.231 0-1.984-0.647-1.984-1s0.753-1 1.984-1 1.984 0.647 1.984 1-0.753 1-1.984 1zM0.496 6h5.457v7.5c0 0 0 0 0 0 0 0.275 0.222 0.498 0.496 0.5h0.992c0.275-0.002 0.496-0.225 0.496-0.5 0 0 0 0 0 0v0-7.5h5.457c0.275-0.002 0.496-0.225 0.496-0.5 0 0 0 0 0 0v0-1c0 0 0 0 0 0 0-0.275-0.222-0.498-0.496-0.5h-12.898c-0.275 0.002-0.496 0.225-0.496 0.5 0 0 0 0 0 0v0 1c0 0 0 0 0 0 0 0.275 0.222 0.498 0.496 0.5h0zM20.836 24c0.007 0 0.015 0 0.023 0 1.657 0 3-1.343 3-3s-1.343-3-3-3c-1.657 0-3 1.343-3 3v0c0 0.004-0 0.008-0 0.012 0 1.646 1.331 2.982 2.976 2.988h0.001zM20.836 20c0.002-0 0.005-0 0.008-0 0.552 0 1 0.448 1 1s-0.448 1-1 1c-0.552 0-1-0.448-1-1v0c0 0 0-0 0-0 0-0.55 0.443-0.996 0.992-1h0zM0.496 2h12.898c0.275-0.002 0.496-0.225 0.496-0.5 0 0 0 0 0 0v0-0.979c0 0 0 0 0 0 0-0.275-0.222-0.498-0.496-0.5h-12.898c-0.275 0.002-0.496 0.225-0.496 0.5 0 0 0 0 0 0v0 0.979c0 0 0 0 0 0 0 0.275 0.222 0.498 0.496 0.5h0zM28.774 26c-0.007-0-0.015-0-0.024-0-1.657 0-3 1.343-3 3s1.343 3 3 3c1.657 0 3-1.343 3-3v0c0-0.004 0-0.008 0-0.012 0-1.646-1.331-2.981-2.976-2.988h-0.001zM28.774 30c-0.002 0-0.005 0-0.008 0-0.552 0-1-0.448-1-1s0.448-1 1-1c0.552 0 1 0.448 1 1v0c0 0 0 0 0 0 0 0.549-0.443 0.995-0.991 1h-0zM30.903 18.146c-0.089-0.090-0.213-0.146-0.351-0.146s-0.261 0.056-0.351 0.146l-0 0-12.197 12.291c-0.090 0.091-0.145 0.216-0.145 0.354s0.055 0.263 0.145 0.354l-0-0 0.701 0.707c0.089 0.090 0.213 0.146 0.351 0.146s0.261-0.056 0.351-0.146l0-0 12.197-12.289c0.091-0.090 0.147-0.216 0.147-0.354s-0.056-0.263-0.147-0.354v0zM11.332 28.008l2.325-1.508c0.141-0.091 0.233-0.247 0.233-0.424 0-0.097-0.028-0.188-0.076-0.265l0.001 0.002-0.526-0.849c-0.088-0.142-0.244-0.235-0.421-0.235-0.098 0-0.188 0.028-0.265 0.077l0.002-0.001-2.709 1.758-2.746-2.767c1.62-0.531 2.77-2.028 2.771-3.795v-0c0-2.206-1.781-4-3.969-4s-3.969 1.794-3.969 4c0.002 1.433 0.758 2.69 1.894 3.393l0.017 0.010-1.881 1.141c-1.934 1.172-2.589 3.663-1.463 5.553 0.735 1.227 2.042 1.903 3.403 1.903 0.801-0.001 1.548-0.228 2.182-0.62l-0.018 0.010 3.507-2.275 2.717 2.738c0.089 0.090 0.213 0.146 0.351 0.146s0.261-0.056 0.351-0.146l0-0 0.701-0.707c0.091-0.090 0.147-0.216 0.147-0.354s-0.056-0.263-0.147-0.354v0zM5.953 18c0.005-0 0.010-0 0.016-0 1.105 0 2 0.895 2 2s-0.895 2-2 2c-1.105 0-2-0.895-2-2v0c0-0.002-0-0.005-0-0.008 0-1.097 0.888-1.988 1.984-1.992h0zM5.082 29.688c-0.994 0.604-2.264 0.326-2.829-0.619s-0.211-2.204 0.784-2.809l2.342-1.421 2.813 2.832z"></path>
</svg>
