<!-- Generated by IcoMoon.io -->
<svg version="1.1" xmlns="http://www.w3.org/2000/svg" width="32" height="32" viewBox="0 0 32 32">
<title>icons-alt-solid</title>
<path d="M1 10h4v3c0 0.552 0.448 1 1 1v0h2c0.552 0 1-0.448 1-1v0-3h4c0.552 0 1-0.448 1-1v0-2c0-0.552-0.448-1-1-1v0h-12c-0.552 0-1 0.448-1 1v0 2c0 0.552 0.448 1 1 1v0zM1 4h12c0.552 0 1-0.448 1-1v0-2c0-0.552-0.448-1-1-1v0h-12c-0.552 0-1 0.448-1 1v0 2c0 0.552 0.448 1 1 1v0zM29.88 0.021l-9.286 1.428c-0.915 0.141-1.594 0.985-1.594 1.98v6.677c-0.299-0.064-0.644-0.103-0.997-0.106l-0.003-0c-2.209 0-4 1.343-4 3s1.791 3 4 3c2.2 0 3.983-1.333 4-2.981v-6.786l7-1.077v2.95c-0.299-0.064-0.644-0.103-0.997-0.106l-0.003-0c-2.209 0-4 1.343-4 3s1.791 3 4 3c2.2 0 3.983-1.333 4-2.981v-9.019c0-1.217-1-2.152-2.12-1.979zM20.5 23c1.381 0 2.5-1.119 2.5-2.5s-1.119-2.5-2.5-2.5c-1.381 0-2.5 1.119-2.5 2.5v0c0 1.381 1.119 2.5 2.5 2.5v0zM13.724 23.996l-1.412-1.414c-0.181-0.181-0.431-0.293-0.707-0.293s-0.526 0.112-0.707 0.293v0l-1.745 1.743-1.419-1.419c0.781-0.732 1.268-1.77 1.268-2.922 0-2.209-1.791-4-4-4s-4 1.791-4 4c0 1.050 0.404 2.005 1.065 2.718l-0.002-0.003-0.433 0.433c-1.849 1.849-2.231 4.852-0.613 6.907 0.939 1.198 2.386 1.961 4.011 1.961 1.404 0 2.675-0.569 3.594-1.489l0.53-0.531 1.726 1.726c0.181 0.181 0.431 0.293 0.707 0.293s0.526-0.112 0.707-0.293l1.414-1.414c0.181-0.181 0.293-0.431 0.293-0.707s-0.112-0.526-0.293-0.707l-1.727-1.726 1.743-1.743c0.181-0.181 0.293-0.431 0.293-0.707s-0.112-0.526-0.293-0.707v0zM5 19c0.552 0 1 0.448 1 1s-0.448 1-1 1c-0.552 0-1-0.448-1-1v0c0-0.552 0.448-1 1-1v0zM5.795 27.684c-0.196 0.195-0.466 0.316-0.764 0.316-0.597 0-1.081-0.484-1.081-1.081 0-0.299 0.121-0.569 0.317-0.764l0.53-0.53 1.528 1.528zM30.295 18.293c-0.181-0.181-0.431-0.293-0.707-0.293s-0.526 0.112-0.707 0.293l-10.587 10.586c-0.181 0.181-0.293 0.431-0.293 0.707s0.112 0.526 0.293 0.707l1.414 1.414c0.181 0.181 0.431 0.293 0.707 0.293s0.526-0.112 0.707-0.293l10.586-10.586c0.181-0.181 0.293-0.431 0.293-0.707s-0.112-0.526-0.293-0.707v0zM29.5 27c-1.381 0-2.5 1.119-2.5 2.5s1.119 2.5 2.5 2.5c1.381 0 2.5-1.119 2.5-2.5v0c0-1.381-1.119-2.5-2.5-2.5v0z"></path>
</svg>
