<!-- Generated by IcoMoon.io -->
<svg version="1.1" xmlns="http://www.w3.org/2000/svg" width="36" height="32" viewBox="0 0 36 32">
<title>id-card-alt-solid</title>
<path d="M33 4h-9v6h-12v-6h-9c-1.656 0-3 1.344-3 3v22c0 1.656 1.344 3 3 3h30c1.656 0 3-1.344 3-3v-22c0-1.656-1.344-3-3-3zM18 14c2.206 0 4 1.794 4 4s-1.794 4-4 4-4-1.794-4-4 1.794-4 4-4zM23.831 28h-11.662c-0.65 0-1.175-0.625-0.975-1.238 0.519-1.6 2.025-2.762 3.806-2.762h0.512c0.769 0.319 1.606 0.5 2.487 0.5s1.725-0.181 2.488-0.5h0.512c1.775 0 3.281 1.156 3.806 2.762 0.2 0.613-0.325 1.238-0.975 1.238zM22 2c0-1.106-0.894-2-2-2h-4c-1.106 0-2 0.894-2 2v6h8v-6z"></path>
</svg>
