<!-- Generated by IcoMoon.io -->
<svg version="1.1" xmlns="http://www.w3.org/2000/svg" width="36" height="32" viewBox="0 0 36 32">
<title>id-card-alt</title>
<path d="M18 13c-2.762 0-5 2.238-5 5s2.238 5 5 5 5-2.238 5-5-2.238-5-5-5zM18 21c-1.656 0-3-1.344-3-3s1.344-3 3-3 3 1.344 3 3-1.344 3-3 3zM32 4h-10v-2c0-1.106-0.894-2-2-2h-4c-1.106 0-2 0.894-2 2v2h-10c-2.206 0-4 1.794-4 4v20c0 2.206 1.794 4 4 4h28c2.206 0 4-1.794 4-4v-20c0-2.206-1.794-4-4-4zM16 2h4v6h-4v-6zM24 30h-12v-1.369c0-0.563 0.162-1.1 0.475-1.563 0.45-0.669 1.269-1.075 2.188-1.075 0.994 0 1.469 0.5 3.338 0.5s2.35-0.5 3.337-0.5c0.919 0 1.731 0.4 2.188 1.075 0.313 0.462 0.475 1 0.475 1.563v1.369zM34 28c0 1.1-0.9 2-2 2h-6v-1.369c0-0.994-0.3-1.913-0.813-2.675-0.863-1.281-2.331-1.956-3.844-1.956-1.387 0-1.738 0.5-3.337 0.5s-1.95-0.5-3.338-0.5c-1.512 0-2.981 0.675-3.844 1.956-0.512 0.762-0.813 1.688-0.813 2.675v1.369h-6.013c-1.1 0-2-0.9-2-2v-20c0-1.1 0.9-2 2-2h10v4h8v-4h10c1.1 0 2 0.9 2 2v20z"></path>
</svg>
