<!-- Generated by IcoMoon.io -->
<svg version="1.1" xmlns="http://www.w3.org/2000/svg" width="36" height="32" viewBox="0 0 36 32">
<title>id-card</title>
<path d="M22.5 20h7c0.275 0 0.5-0.225 0.5-0.5v-1c0-0.275-0.225-0.5-0.5-0.5h-7c-0.275 0-0.5 0.225-0.5 0.5v1c0 0.275 0.225 0.5 0.5 0.5zM22.5 16h7c0.275 0 0.5-0.225 0.5-0.5v-1c0-0.275-0.225-0.5-0.5-0.5h-7c-0.275 0-0.5 0.225-0.5 0.5v1c0 0.275 0.225 0.5 0.5 0.5zM22.5 24h7c0.275 0 0.5-0.225 0.5-0.5v-1c0-0.275-0.225-0.5-0.5-0.5h-7c-0.275 0-0.5 0.225-0.5 0.5v1c0 0.275 0.225 0.5 0.5 0.5zM12 22c2.762 0 5-2.238 5-5s-2.238-5-5-5-5 2.238-5 5 2.238 5 5 5zM12 14c1.656 0 3 1.344 3 3s-1.344 3-3 3-3-1.344-3-3 1.344-3 3-3zM32 2h-28c-2.206 0-4 1.794-4 4v20c0 2.206 1.794 4 4 4h28c2.206 0 4-1.794 4-4v-20c0-2.206-1.794-4-4-4zM17 28h-10v-0.944c0-0.438 0.131-0.863 0.375-1.225 0.35-0.519 0.988-0.825 1.706-0.825 0.775 0 1.3 0.438 2.925 0.438 1.619 0 2.144-0.438 2.925-0.438 0.719 0 1.356 0.313 1.706 0.825 0.244 0.363 0.375 0.788 0.375 1.225v0.944h-0.012zM34 26c0 1.1-0.9 2-2 2h-13v-0.944c0-0.869-0.262-1.675-0.712-2.344-0.756-1.119-2.044-1.712-3.363-1.712-1.219 0-1.525 0.438-2.925 0.438s-1.706-0.438-2.925-0.438c-1.325 0-2.612 0.587-3.362 1.712-0.45 0.669-0.713 1.475-0.713 2.344v0.944h-1c-1.1 0-2-0.9-2-2v-16h32v16zM34 8h-32v-2c0-1.1 0.9-2 2-2h28c1.1 0 2 0.9 2 2v2z"></path>
</svg>
