<!-- Generated by IcoMoon.io -->
<svg version="1.1" xmlns="http://www.w3.org/2000/svg" width="36" height="32" viewBox="0 0 36 32">
<title>id-card-solid</title>
<path d="M33 2h-30c-1.656 0-3 1.344-3 3v1h36v-1c0-1.656-1.344-3-3-3zM0 27c0 1.656 1.344 3 3 3h30c1.656 0 3-1.344 3-3v-19h-36v19zM22 12.5c0-0.275 0.225-0.5 0.5-0.5h9c0.275 0 0.5 0.225 0.5 0.5v1c0 0.275-0.225 0.5-0.5 0.5h-9c-0.275 0-0.5-0.225-0.5-0.5v-1zM22 16.5c0-0.275 0.225-0.5 0.5-0.5h9c0.275 0 0.5 0.225 0.5 0.5v1c0 0.275-0.225 0.5-0.5 0.5h-9c-0.275 0-0.5-0.225-0.5-0.5v-1zM22 20.5c0-0.275 0.225-0.5 0.5-0.5h9c0.275 0 0.5 0.225 0.5 0.5v1c0 0.275-0.225 0.5-0.5 0.5h-9c-0.275 0-0.5-0.225-0.5-0.5v-1zM11 12c2.206 0 4 1.794 4 4s-1.794 4-4 4-4-1.794-4-4 1.794-4 4-4zM4.194 24.762c0.525-1.606 2.031-2.762 3.806-2.762h0.512c0.769 0.319 1.606 0.5 2.488 0.5s1.725-0.181 2.488-0.5h0.512c1.775 0 3.281 1.156 3.806 2.762 0.2 0.619-0.325 1.238-0.975 1.238h-11.662c-0.65 0-1.175-0.625-0.975-1.238z"></path>
</svg>
