<!-- Generated by IcoMoon.io -->
<svg version="1.1" xmlns="http://www.w3.org/2000/svg" width="36" height="32" viewBox="0 0 36 32">
<title>igloo-solid</title>
<path d="M20 2.119c-0.656-0.075-1.325-0.119-2-0.119-6.238 0-11.738 3.175-14.963 8h16.962v-7.881zM6 12h-4.106c-1.2 2.412-1.894 5.125-1.894 8h6v-8zM22 2.462v7.537h10.962c-2.512-3.756-6.413-6.506-10.962-7.537zM30 20h6c0-2.875-0.694-5.588-1.894-8h-4.106v8zM26 24v6h8c1.106 0 2-0.894 2-2v-6h-10.281c0.163 0.644 0.281 1.306 0.281 2zM28 12h-20v8h3.113c1.387-2.381 3.938-4 6.887-4s5.5 1.619 6.887 4h3.113v-8zM0 28c0 1.106 0.894 2 2 2h8v-6c0-0.694 0.119-1.356 0.281-2h-10.281v6zM18 18c-3.313 0-6 2.688-6 6v6h12v-6c0-3.313-2.688-6-6-6z"></path>
</svg>
