<!-- Generated by IcoMoon.io -->
<svg version="1.1" xmlns="http://www.w3.org/2000/svg" width="36" height="32" viewBox="0 0 36 32">
<title>igloo</title>
<path d="M18 2c-9.944 0-18 8.056-18 18v8c0 1.106 0.894 2 2 2h32c1.106 0 2-0.894 2-2v-8c0-9.944-8.056-18-18-18zM30.469 10h-8.469v-5.475c3.387 0.875 6.344 2.825 8.469 5.475zM28 20h-3.113c-1.387-2.381-3.938-4-6.887-4s-5.5 1.619-6.887 4h-3.113v-8h20v8zM18 4c0.681 0 1.344 0.056 2 0.138v5.862h-14.469c2.931-3.65 7.431-6 12.469-6zM4.162 12h1.838v8h-4c0-2.919 0.794-5.644 2.162-8zM2 28v-6h8.281c-0.169 0.644-0.281 1.306-0.281 2v4h-8zM12 28v-4c0-3.313 2.688-6 6-6s6 2.688 6 6v4h-12zM34 28h-8v-4c0-0.694-0.119-1.356-0.281-2h8.281v6zM30 20v-8h1.837c1.369 2.356 2.163 5.081 2.163 8h-4z"></path>
</svg>
