<!-- Generated by IcoMoon.io -->
<svg version="1.1" xmlns="http://www.w3.org/2000/svg" width="28" height="32" viewBox="0 0 28 32">
<title>image-polaroid</title>
<path d="M7 12c1.657 0 3-1.343 3-3s-1.343-3-3-3c-1.657 0-3 1.343-3 3v0c0 1.657 1.343 3 3 3v0zM7 8c0.552 0 1 0.448 1 1s-0.448 1-1 1c-0.552 0-1-0.448-1-1v0c0-0.552 0.448-1 1-1v0zM26 2h-24c-1.105 0-2 0.895-2 2v0 24c0 1.105 0.895 2 2 2v0h24c1.105 0 2-0.895 2-2v0-24c0-1.105-0.895-2-2-2v0zM26 28h-24v-5h24zM5.325 21l3.25-4.333 2.5 3.333-0.75 1zM12.825 21l4.75-6.333 4.75 6.333zM26 21h-1.175l-6.45-8.599c-0.379-0.504-1.223-0.504-1.601 0l-4.449 5.932-2.949-3.932c-0.379-0.504-1.223-0.504-1.601 0l-4.95 6.599h-0.824v-17h24z"></path>
</svg>
