<!-- Generated by IcoMoon.io -->
<svg version="1.1" xmlns="http://www.w3.org/2000/svg" width="36" height="32" viewBox="0 0 36 32">
<title>images-solid</title>
<path d="M30 26v1c0 1.657-1.343 3-3 3h-24c-1.657 0-3-1.343-3-3v-16c0-1.657 1.343-3 3-3h1v13c0 2.757 2.243 5 5 5h21zM36 21v-16c0-1.657-1.343-3-3-3h-24c-1.657 0-3 1.343-3 3v16c0 1.657 1.343 3 3 3h24c1.657 0 3-1.343 3-3zM16 8c0 1.657-1.343 3-3 3s-3-1.343-3-3 1.343-3 3-3 3 1.343 3 3zM10 17l3.47-3.47c0.293-0.293 0.768-0.293 1.061 0l2.47 2.47 8.47-8.47c0.293-0.293 0.768-0.293 1.061 0l5.47 5.47v7h-22v-3z"></path>
</svg>
