<!-- Generated by IcoMoon.io -->
<svg version="1.1" xmlns="http://www.w3.org/2000/svg" width="36" height="32" viewBox="0 0 36 32">
<title>images</title>
<path d="M33 2h-26c-1.657 0-3 1.343-3 3v1h-1c-1.657 0-3 1.343-3 3v18c0 1.657 1.343 3 3 3h26c1.657 0 3-1.343 3-3v-1h1c1.657 0 3-1.343 3-3v-18c0-1.657-1.343-3-3-3zM30 27c0 0.551-0.449 1-1 1h-26c-0.551 0-1-0.449-1-1v-18c0-0.551 0.449-1 1-1h1v15c0 1.657 1.343 3 3 3h23v1zM34 23c0 0.551-0.449 1-1 1h-26c-0.551 0-1-0.449-1-1v-18c0-0.551 0.449-1 1-1h26c0.551 0 1 0.449 1 1v18zM11 12.5c1.933 0 3.5-1.567 3.5-3.5s-1.567-3.5-3.5-3.5-3.5 1.567-3.5 3.5 1.567 3.5 3.5 3.5zM11 7.5c0.827 0 1.5 0.673 1.5 1.5s-0.673 1.5-1.5 1.5-1.5-0.673-1.5-1.5 0.673-1.5 1.5-1.5zM26.061 8.939c-0.586-0.586-1.535-0.586-2.121 0l-5.939 5.939-1.939-1.939c-0.586-0.586-1.536-0.586-2.121 0l-5.5 5.5c-0.271 0.271-0.439 0.646-0.439 1.061v0 1.75c0 0.414 0.336 0.75 0.75 0.75h22.5c0.414 0 0.75-0.336 0.75-0.75v-5.75c0-0.398-0.158-0.779-0.439-1.061l-5.5-5.5zM30 20h-20v-0.293l5-5 3 3 7-7 5 5v4.293z"></path>
</svg>
