<!-- Generated by IcoMoon.io -->
<svg version="1.1" xmlns="http://www.w3.org/2000/svg" width="28" height="32" viewBox="0 0 28 32">
<title>image-polaroid-solid</title>
<path d="M8 12c1.105 0 2-0.895 2-2s-0.895-2-2-2c-1.105 0-2 0.895-2 2v0c0 1.105 0.895 2 2 2v0zM26 2h-24c-1.105 0-2 0.895-2 2v0 24c0 1.105 0.895 2 2 2v0h24c1.105 0 2-0.895 2-2v0-24c0-1.105-0.895-2-2-2v0zM24 22h-20v-16h20zM16.8 13.067c-0.184-0.244-0.474-0.4-0.8-0.4s-0.616 0.156-0.798 0.398l-0.002 0.002-3.082 4.109-1.286-1.926c-0.182-0.27-0.486-0.445-0.832-0.445s-0.65 0.175-0.83 0.441l-0.002 0.004-3.168 4.75h16z"></path>
</svg>
