<!-- Generated by IcoMoon.io -->
<svg version="1.1" xmlns="http://www.w3.org/2000/svg" width="36" height="32" viewBox="0 0 36 32">
<title>inbox-solid</title>
<path d="M35.496 15.244l-6.605-9.908c-0.546-0.81-1.46-1.336-2.496-1.336h-16.789c-1.037 0-1.95 0.526-2.489 1.325l-0.007 0.011-6.606 9.908c-0.316 0.468-0.504 1.044-0.504 1.664 0 0 0 0 0 0v0 8.092c0 1.657 1.343 3 3 3h30c1.657 0 3-1.343 3-3v-8.092c0 0 0-0 0-0 0-0.62-0.188-1.196-0.511-1.675l0.007 0.011zM10.141 8h15.719l5.333 8h-7.693l-2 4h-7l-2-4h-7.693l5.333-8z"></path>
</svg>
