<!-- Generated by IcoMoon.io -->
<svg version="1.1" xmlns="http://www.w3.org/2000/svg" width="36" height="32" viewBox="0 0 36 32">
<title>inbox</title>
<path d="M35.426 14.211l-6.528-8.976c-0.552-0.752-1.433-1.236-2.426-1.236h-16.945c0 0-0 0-0 0-0.994 0-1.874 0.483-2.42 1.227l-0.006 0.008-6.528 8.976c-0.359 0.488-0.574 1.101-0.574 1.764 0 0 0 0 0 0v0 9.024c0 1.657 1.343 3 3 3h30c1.657 0 3-1.343 3-3v-9.024c0 0 0-0 0-0 0-0.663-0.215-1.276-0.58-1.773l0.006 0.008zM8.719 6.412c0.184-0.25 0.478-0.411 0.809-0.412h16.945c0.319 0 0.621 0.154 0.809 0.412l5.519 7.588h-8.536l-2 4h-8.528l-2-4h-8.536l5.519-7.588zM34 17v8c0 0.551-0.449 1-1 1h-30c-0.551 0-1-0.449-1-1v-8c0-0.552 0.448-1 1-1h7.5l2 4h11l2-4h7.5c0.552 0 1 0.448 1 1z"></path>
</svg>
