<!-- Generated by IcoMoon.io -->
<svg version="1.1" xmlns="http://www.w3.org/2000/svg" width="36" height="32" viewBox="0 0 36 32">
<title>inbox-in-solid</title>
<path d="M15.656 0h4.288c0.594 0 1.069 0.481 1.069 1.069v8.931h4.269c1.113 0 1.669 1.344 0.881 2.131l-7.463 7.5c-0.494 0.494-1.306 0.488-1.788-0.019l-7.1-7.5c-0.756-0.794-0.194-2.113 0.906-2.113h3.869v-8.931c0-0.588 0.481-1.069 1.069-1.069zM35.344 21.181l-5.913-7.387c-0.281-0.35-0.813-0.375-1.125-0.056l-1.756 1.806c-0.262 0.269-0.281 0.694-0.050 0.994l2.769 3.462h-5.769l-2 4h-7l-2-4h-5.775l2.737-3.419c0.231-0.294 0.219-0.713-0.037-0.981l-1.725-1.844c-0.313-0.331-0.85-0.313-1.131 0.044l-5.9 7.375c-0.438 0.538-0.669 1.194-0.669 1.875v5.95c0 1.656 1.344 3 3 3h30c1.656 0 3-1.344 3-3v-5.95c0-0.681-0.231-1.337-0.656-1.869z"></path>
</svg>
