<!-- Generated by IcoMoon.io -->
<svg version="1.1" xmlns="http://www.w3.org/2000/svg" width="36" height="32" viewBox="0 0 36 32">
<title>inbox-out-solid</title>
<path d="M36 23.050v5.95c0 1.656-1.344 3-3 3h-30c-1.656 0-3-1.344-3-3v-5.95c0-0.681 0.231-1.344 0.656-1.875l5.9-7.375c0.287-0.356 0.819-0.375 1.131-0.044l1.725 1.844c0.256 0.275 0.269 0.688 0.037 0.981l-2.725 3.419h5.775l2 4h7l2-4h5.775l-2.769-3.462c-0.238-0.294-0.219-0.719 0.050-0.994l1.756-1.806c0.313-0.325 0.844-0.3 1.125 0.056l5.913 7.388c0.419 0.531 0.65 1.188 0.65 1.869zM21.413 18.931v-8.931h3.869c1.1 0 1.663-1.319 0.906-2.112l-7.106-7.5c-0.481-0.506-1.294-0.519-1.788-0.019l-7.463 7.5c-0.787 0.787-0.231 2.131 0.881 2.131h4.269v8.931c0 0.594 0.481 1.069 1.069 1.069h4.287c0.594 0 1.075-0.481 1.075-1.069z"></path>
</svg>
