<!-- Generated by IcoMoon.io -->
<svg version="1.1" xmlns="http://www.w3.org/2000/svg" width="36" height="32" viewBox="0 0 36 32">
<title>inbox-in</title>
<path d="M35.050 20.613l-5.913-5.544c-0.15-0.144-0.387-0.131-0.531 0.019l-0.85 0.913c-0.144 0.15-0.131 0.387 0.019 0.531l3.706 3.475h-7.219l-2 4h-8.525l-2-4h-7.213l3.706-3.475c0.15-0.144 0.156-0.381 0.019-0.531l-0.856-0.912c-0.144-0.15-0.381-0.156-0.531-0.019l-5.912 5.544c-0.606 0.563-0.95 1.356-0.95 2.188v6.2c0 1.656 1.344 3 3 3h30c1.656 0 3-1.344 3-3v-6.2c0-0.831-0.344-1.625-0.95-2.188zM34 29c0 0.55-0.45 1-1 1h-30c-0.55 0-1-0.45-1-1v-6c0-0.55 0.45-1 1-1h7.5l2 4h11l2-4h7.5c0.55 0 1 0.45 1 1v6zM26 8h-4v-6.5c0-0.825-0.675-1.5-1.5-1.5h-5c-0.825 0-1.5 0.675-1.5 1.5v6.5h-4c-1.775 0-2.675 2.156-1.412 3.412l8 8c0.781 0.781 2.050 0.781 2.831 0l8-8c1.25-1.256 0.363-3.412-1.419-3.412zM18 18l-8-8h6v-8h4v8h6l-8 8z"></path>
</svg>
