<!-- Generated by IcoMoon.io -->
<svg version="1.1" xmlns="http://www.w3.org/2000/svg" width="28" height="32" viewBox="0 0 28 32">
<title>indent-solid</title>
<path d="M1.707 22.706l6-6c0.181-0.181 0.293-0.431 0.293-0.707s-0.112-0.526-0.293-0.707l-6-6c-0.627-0.626-1.707-0.181-1.707 0.707v12c0 0.894 1.083 1.331 1.707 0.706zM27 26h-26c-0.552 0-1 0.448-1 1v0 2c0 0.552 0.448 1 1 1v0h26c0.552 0 1-0.448 1-1v0-2c0-0.552-0.448-1-1-1v0zM27.198 18h-14.396c-0 0-0 0-0.001 0-0.443 0-0.801 0.359-0.801 0.801 0 0 0 0 0 0.001v-0 2.396c0 0 0 0 0 0.001 0 0.443 0.359 0.801 0.801 0.801 0 0 0 0 0.001 0h14.396c0 0 0 0 0.001 0 0.443 0 0.801-0.359 0.801-0.801 0-0 0-0 0-0.001v0-2.396c0-0 0-0 0-0.001 0-0.443-0.359-0.801-0.801-0.801-0 0-0 0-0.001 0h0zM27.198 10h-14.396c-0 0-0 0-0.001 0-0.443 0-0.801 0.359-0.801 0.801 0 0 0 0 0 0.001v-0 2.396c0 0 0 0 0 0.001 0 0.443 0.359 0.801 0.801 0.801 0 0 0 0 0.001 0h14.396c0 0 0 0 0.001 0 0.443 0 0.801-0.359 0.801-0.801 0-0 0-0 0-0.001v0-2.396c0-0 0-0 0-0.001 0-0.443-0.359-0.801-0.801-0.801-0 0-0 0-0.001 0h0zM27 2h-26c-0.552 0-1 0.448-1 1v0 2c0 0.552 0.448 1 1 1v0h26c0.552 0 1-0.448 1-1v0-2c0-0.552-0.448-1-1-1v0z"></path>
</svg>
