<!-- Generated by IcoMoon.io -->
<svg version="1.1" xmlns="http://www.w3.org/2000/svg" width="32" height="32" viewBox="0 0 32 32">
<title>industry</title>
<path d="M29.829 10.158l-9.829 4.915v-3.573c0-1.125-1.184-1.835-2.171-1.342l-9.829 4.915v-11.573c0-0.828-0.672-1.5-1.5-1.5h-5c-0.828 0-1.5 0.672-1.5 1.5v25c0 0.828 0.672 1.5 1.5 1.5h29c0.828 0 1.5-0.672 1.5-1.5v-17c0-1.125-1.184-1.835-2.171-1.342zM6.724 17.947l11.276-5.638v5.191c0 0.372 0.392 0.613 0.724 0.447l11.276-5.638v15.691h-28v-24h4v13.5c0 0.372 0.392 0.613 0.724 0.447z"></path>
</svg>
