<!-- Generated by IcoMoon.io -->
<svg version="1.1" xmlns="http://www.w3.org/2000/svg" width="32" height="32" viewBox="0 0 32 32">
<title>industry-alt</title>
<path d="M25.25 24h-2.5c-0.414 0-0.75-0.336-0.75-0.75v-2.5c0-0.414 0.336-0.75 0.75-0.75h2.5c0.414 0 0.75 0.336 0.75 0.75v2.5c0 0.414-0.336 0.75-0.75 0.75zM18 23.25v-2.5c0-0.414-0.336-0.75-0.75-0.75h-2.5c-0.414 0-0.75 0.336-0.75 0.75v2.5c0 0.414 0.336 0.75 0.75 0.75h2.5c0.414 0 0.75-0.336 0.75-0.75zM10 23.25v-2.5c0-0.414-0.336-0.75-0.75-0.75h-2.5c-0.414 0-0.75 0.336-0.75 0.75v2.5c0 0.414 0.336 0.75 0.75 0.75h2.5c0.414 0 0.75-0.336 0.75-0.75zM32 11.5v17c0 0.828-0.672 1.5-1.5 1.5h-29c-0.828 0-1.5-0.672-1.5-1.5v-25c0-0.828 0.672-1.5 1.5-1.5h5c0.828 0 1.5 0.672 1.5 1.5v11.573l9.829-4.915c0.987-0.493 2.171 0.216 2.171 1.342v3.573l9.829-4.915c0.987-0.493 2.171 0.216 2.171 1.342zM6 17.5v-13.5h-4v24h28v-15.691l-11.276 5.638c-0.332 0.166-0.724-0.075-0.724-0.447v-5.191l-11.276 5.638c-0.332 0.166-0.724-0.076-0.724-0.447z"></path>
</svg>
