<!-- Generated by IcoMoon.io -->
<svg version="1.1" xmlns="http://www.w3.org/2000/svg" width="32" height="32" viewBox="0 0 32 32">
<title>industry-alt-solid</title>
<path d="M29.695 10.236l-8.695 5.533v-4.268c0-1.182-1.308-1.9-2.305-1.265l-8.695 5.533v-12.269c0-0.828-0.672-1.5-1.5-1.5h-7c-0.828 0-1.5 0.672-1.5 1.5v25c0 0.828 0.672 1.5 1.5 1.5h29c0.828 0 1.5-0.672 1.5-1.5v-16.998c0-1.182-1.308-1.9-2.305-1.265zM25.25 24h-2.5c-0.414 0-0.75-0.336-0.75-0.75v-2.5c0-0.414 0.336-0.75 0.75-0.75h2.5c0.414 0 0.75 0.336 0.75 0.75v2.5c0 0.414-0.336 0.75-0.75 0.75zM17.25 24h-2.5c-0.414 0-0.75-0.336-0.75-0.75v-2.5c0-0.414 0.336-0.75 0.75-0.75h2.5c0.414 0 0.75 0.336 0.75 0.75v2.5c0 0.414-0.336 0.75-0.75 0.75zM9.25 24h-2.5c-0.414 0-0.75-0.336-0.75-0.75v-2.5c0-0.414 0.336-0.75 0.75-0.75h2.5c0.414 0 0.75 0.336 0.75 0.75v2.5c0 0.414-0.336 0.75-0.75 0.75z"></path>
</svg>
