<!-- Generated by IcoMoon.io -->
<svg version="1.1" xmlns="http://www.w3.org/2000/svg" width="40" height="32" viewBox="0 0 40 32">
<title>infinity-solid</title>
<path d="M29.444 6c-4.131 0-7.363 2.581-9.444 4.912-2.081-2.331-5.313-4.912-9.444-4.912-5.819 0-10.556 4.488-10.556 10s4.737 10 10.556 10c4.131 0 7.362-2.581 9.444-4.913 2.081 2.331 5.313 4.913 9.444 4.913 5.819 0 10.556-4.488 10.556-10s-4.737-10-10.556-10zM10.556 20c-2.513 0-4.556-1.794-4.556-4s2.044-4 4.556-4c2.388 0 4.588 2.256 5.875 4-1.275 1.725-3.494 4-5.875 4zM29.444 20c-2.387 0-4.587-2.256-5.875-4 1.275-1.725 3.494-4 5.875-4 2.512 0 4.556 1.794 4.556 4s-2.044 4-4.556 4z"></path>
</svg>
