<!-- Generated by IcoMoon.io -->
<svg version="1.1" xmlns="http://www.w3.org/2000/svg" width="40" height="32" viewBox="0 0 40 32">
<title>infinity</title>
<path d="M30.555 6c-5.161 0-8.917 5.153-10.555 7.903-1.638-2.75-5.394-7.903-10.555-7.903-5.209 0-9.445 4.486-9.445 10s4.236 10 9.445 10c5.16 0 8.917-5.153 10.555-7.904 1.638 2.751 5.394 7.904 10.555 7.904 5.209 0 9.445-4.486 9.445-10s-4.236-10-9.445-10zM9.445 24c-4.105 0-7.445-3.589-7.445-8s3.34-8 7.445-8c4.877 0 8.529 6.288 9.434 8-0.904 1.712-4.556 8-9.434 8zM30.555 24c-4.877 0-8.529-6.288-9.434-8 0.904-1.712 4.557-8 9.434-8 4.105 0 7.445 3.589 7.445 8s-3.34 8-7.445 8z"></path>
</svg>
