<!-- Generated by IcoMoon.io -->
<svg version="1.1" xmlns="http://www.w3.org/2000/svg" width="28" height="32" viewBox="0 0 28 32">
<title>info-square-solid</title>
<path d="M25 2h-22c-1.657 0-3 1.343-3 3v22c0 1.657 1.343 3 3 3h22c1.657 0 3-1.343 3-3v-22c0-1.657-1.343-3-3-3zM14 7.375c1.45 0 2.625 1.175 2.625 2.625s-1.175 2.625-2.625 2.625-2.625-1.175-2.625-2.625 1.175-2.625 2.625-2.625zM17.5 23.25c0 0.414-0.336 0.75-0.75 0.75h-5.5c-0.414 0-0.75-0.336-0.75-0.75v-1.5c0-0.414 0.336-0.75 0.75-0.75h0.75v-4h-0.75c-0.414 0-0.75-0.336-0.75-0.75v-1.5c0-0.414 0.336-0.75 0.75-0.75h4c0.414 0 0.75 0.336 0.75 0.75v6.25h0.75c0.414 0 0.75 0.336 0.75 0.75v1.5z"></path>
</svg>
