<!-- Generated by IcoMoon.io -->
<svg version="1.1" xmlns="http://www.w3.org/2000/svg" width="28" height="32" viewBox="0 0 28 32">
<title>info-square</title>
<path d="M25 2h-22c-1.657 0-3 1.343-3 3v22c0 1.657 1.343 3 3 3h22c1.657 0 3-1.343 3-3v-22c0-1.657-1.343-3-3-3zM26 27c0 0.551-0.449 1-1 1h-22c-0.551 0-1-0.449-1-1v-22c0-0.551 0.449-1 1-1h22c0.551 0 1 0.449 1 1v22zM11.75 22h0.75v-7.5h-0.75c-0.414 0-0.75-0.336-0.75-0.75v-0.5c0-0.414 0.336-0.75 0.75-0.75h3c0.414 0 0.75 0.336 0.75 0.75v8.75h0.75c0.414 0 0.75 0.336 0.75 0.75v0.5c0 0.414-0.336 0.75-0.75 0.75h-4.5c-0.414 0-0.75-0.336-0.75-0.75v-0.5c0-0.414 0.336-0.75 0.75-0.75zM14 7c-1.105 0-2 0.895-2 2s0.895 2 2 2 2-0.895 2-2-0.895-2-2-2z"></path>
</svg>
