<!-- Generated by IcoMoon.io -->
<svg version="1.1" xmlns="http://www.w3.org/2000/svg" width="16" height="32" viewBox="0 0 16 32">
<title>info</title>
<path d="M13 23.042v-10.042c0-0.968-0.461-1.831-1.176-2.38 1.328-1.101 2.176-2.764 2.176-4.62 0-3.308-2.692-6-6-6s-6 2.692-6 6c0 1.535 0.58 2.938 1.532 4h-0.031c-1.654 0-3 1.346-3 3v3c0 1.484 1.083 2.72 2.5 2.958v4.083c-1.417 0.239-2.5 1.474-2.5 2.958v3c0 1.654 1.346 3 3 3h9c1.654 0 3-1.346 3-3v-3c0-1.484-1.083-2.72-2.5-2.958zM8 2c2.209 0 4 1.791 4 4s-1.791 4-4 4-4-1.791-4-4 1.791-4 4-4zM13.5 29c0 0.552-0.448 1-1 1h-9c-0.552 0-1-0.448-1-1v-3c0-0.552 0.448-1 1-1h1.5v-8h-1.5c-0.552 0-1-0.448-1-1v-3c0-0.552 0.448-1 1-1h6.5c0.552 0 1 0.448 1 1v12h1.5c0.552 0 1 0.448 1 1v3z"></path>
</svg>
