<!-- Generated by IcoMoon.io -->
<svg version="1.1" xmlns="http://www.w3.org/2000/svg" width="32" height="32" viewBox="0 0 32 32">
<title>info-circle</title>
<path d="M16 2.5c7.414 0 13.5 6.005 13.5 13.5 0 7.456-6.038 13.5-13.5 13.5-7.453 0-13.5-6.035-13.5-13.5 0-7.45 6.038-13.5 13.5-13.5zM16 0.5c-8.56 0-15.5 6.943-15.5 15.5 0 8.562 6.94 15.5 15.5 15.5s15.5-6.938 15.5-15.5c0-8.557-6.94-15.5-15.5-15.5zM13.75 22h0.75v-7.5h-0.75c-0.414 0-0.75-0.336-0.75-0.75v-0.5c0-0.414 0.336-0.75 0.75-0.75h3c0.414 0 0.75 0.336 0.75 0.75v8.75h0.75c0.414 0 0.75 0.336 0.75 0.75v0.5c0 0.414-0.336 0.75-0.75 0.75h-4.5c-0.414 0-0.75-0.336-0.75-0.75v-0.5c0-0.414 0.336-0.75 0.75-0.75zM16 7c-1.105 0-2 0.895-2 2s0.895 2 2 2 2-0.895 2-2-0.895-2-2-2z"></path>
</svg>
