<!-- Generated by IcoMoon.io -->
<svg version="1.1" xmlns="http://www.w3.org/2000/svg" width="12" height="32" viewBox="0 0 12 32">
<title>info-solid</title>
<path d="M1.25 26.514h1.25v-9.029h-1.25c-0.69 0-1.25-0.56-1.25-1.25v-2.986c0-0.69 0.56-1.25 1.25-1.25h7c0.69 0 1.25 0.56 1.25 1.25v13.264h1.25c0.69 0 1.25 0.56 1.25 1.25v2.986c0 0.69-0.56 1.25-1.25 1.25h-9.5c-0.69 0-1.25-0.56-1.25-1.25v-2.986c0-0.69 0.56-1.25 1.25-1.25zM6 0c-2.485 0-4.5 2.015-4.5 4.5s2.015 4.5 4.5 4.5 4.5-2.015 4.5-4.5-2.015-4.5-4.5-4.5z"></path>
</svg>
