<!-- Generated by IcoMoon.io -->
<svg version="1.1" xmlns="http://www.w3.org/2000/svg" width="40" height="32" viewBox="0 0 40 32">
<title>inhaler</title>
<path d="M1.5 16.5c-0.828 0-1.5 0.672-1.5 1.5s0.672 1.5 1.5 1.5 1.5-0.672 1.5-1.5-0.672-1.5-1.5-1.5zM1.5 22.5c-0.828 0-1.5 0.672-1.5 1.5s0.672 1.5 1.5 1.5 1.5-0.672 1.5-1.5-0.672-1.5-1.5-1.5zM1.5 28.5c-0.828 0-1.5 0.672-1.5 1.5s0.672 1.5 1.5 1.5 1.5-0.672 1.5-1.5-0.672-1.5-1.5-1.5zM38.517 2.376l-8.613-2.308c-0.173-0.046-0.348-0.069-0.519-0.069-0.883 0-1.691 0.589-1.931 1.482l-1.561 5.826-0.319-0.319c-0.201-0.201-0.454-0.294-0.703-0.294-0.429 0-0.848 0.274-0.971 0.747l-2.245 8.558h-7.656c-1.104 0-2 0.896-2 2v12c0 1.104 0.896 2 2 2h16.914c1.818 0 3.408-1.226 3.869-2.985l2.373-9.044c0.18-0.688-0.017-1.419-0.52-1.922l-0.194-0.194 3.49-13.029c0.286-1.067-0.347-2.163-1.414-2.449zM32.848 28.508c-0.231 0.879-1.026 1.492-1.934 1.492h-16.914v-12h9.199l0.391-1.492 1.802-6.872 9.828 9.828-2.373 9.044zM34.807 16.221l-7.279-7.279 1.861-6.941 8.611 2.308-3.193 11.913zM7.5 19.5c-0.828 0-1.5 0.672-1.5 1.5s0.672 1.5 1.5 1.5 1.5-0.672 1.5-1.5-0.672-1.5-1.5-1.5zM7.5 25.5c-0.828 0-1.5 0.672-1.5 1.5s0.672 1.5 1.5 1.5 1.5-0.672 1.5-1.5-0.672-1.5-1.5-1.5z"></path>
</svg>
