<!-- Generated by IcoMoon.io -->
<svg version="1.1" xmlns="http://www.w3.org/2000/svg" width="40" height="32" viewBox="0 0 40 32">
<title>inhaler-solid</title>
<path d="M2 28c-1.104 0-2 0.896-2 2s0.896 2 2 2 2-0.896 2-2-0.896-2-2-2zM2 16c-1.104 0-2 0.896-2 2s0.896 2 2 2 2-0.896 2-2-0.896-2-2-2zM2 22c-1.104 0-2 0.896-2 2s0.896 2 2 2 2-0.896 2-2-0.896-2-2-2zM8 19c-1.104 0-2 0.896-2 2s0.896 2 2 2 2-0.896 2-2-0.896-2-2-2zM38.517 2.376l-8.613-2.308c-1.067-0.286-2.164 0.347-2.449 1.414l-0.963 3.595 10.546 10.546 2.893-10.799c0.286-1.067-0.347-2.163-1.414-2.449zM25.574 6.989c-0.546-0.546-1.479-0.294-1.674 0.454l-2.244 8.558h-7.656c-1.104 0-2 0.896-2 2v12c0 1.104 0.896 2 2 2h18.457c0.909 0 1.704-0.613 1.934-1.492l2.764-10.537c0.18-0.688-0.018-1.419-0.521-1.922l-11.060-11.060zM8 25c-1.104 0-2 0.896-2 2s0.896 2 2 2 2-0.896 2-2-0.896-2-2-2z"></path>
</svg>
