<!-- Generated by IcoMoon.io -->
<svg version="1.1" xmlns="http://www.w3.org/2000/svg" width="23" height="32" viewBox="0 0 23 32">
<title>integral</title>
<path d="M5.529 29.99c-1.206-0.081-2.3-0.744-3.055-1.689l-2.364-2.955c-0.068-0.085-0.11-0.194-0.11-0.312 0-0.158 0.073-0.298 0.187-0.39l0.001-0.001 0.781-0.625c0.085-0.068 0.193-0.11 0.312-0.11 0.157 0 0.298 0.073 0.389 0.187l0.001 0.001 2.482 3.103c0.481 0.602 1.246 0.901 2.026 0.771 0.879-0.146 1.545-0.881 1.746-1.749l4.803-20.832c0.402-1.744 1.806-3.157 3.582-3.361 1.441-0.165 2.82 0.412 3.711 1.524l2.744 3.433c0.068 0.085 0.11 0.194 0.11 0.312 0 0.157-0.073 0.298-0.187 0.39l-0.001 0.001-0.781 0.625c-0.216 0.172-0.53 0.137-0.702-0.078l-2.744-3.433c-0.481-0.601-1.239-0.899-2.018-0.773-0.881 0.143-1.552 0.876-1.752 1.747l-4.847 21.019c-0.457 1.981-2.256 3.334-4.314 3.196z"></path>
</svg>
