<!-- Generated by IcoMoon.io -->
<svg version="1.1" xmlns="http://www.w3.org/2000/svg" width="24" height="32" viewBox="0 0 24 32">
<title>integral-solid</title>
<path d="M23.576 4.564l-1.75-2.261c-1.299-1.68-3.334-2.538-5.448-2.248-2.512 0.345-4.469 2.444-5.039 4.996l-4.885 20.898-1.497-1.932c-0.668-0.862-1.886-1.002-2.721-0.311l-1.511 1.25c-0.834 0.691-0.969 1.949-0.301 2.811l1.339 1.728c0.999 1.289 2.408 2.239 3.993 2.451 3.114 0.417 5.9-1.636 6.584-4.701l4.95-21.194 1.752 2.262c0.668 0.863 1.886 1.002 2.72 0.313l1.511-1.25c0.835-0.689 0.971-1.948 0.302-2.811z"></path>
</svg>
