<!-- Generated by IcoMoon.io -->
<svg version="1.1" xmlns="http://www.w3.org/2000/svg" width="40" height="32" viewBox="0 0 40 32">
<title>inventory</title>
<path d="M39.5 0h-1c-0.275 0-0.5 0.256-0.5 0.569v11.431h-4v-9c0-0.55-0.45-1-1-1h-10c-0.55 0-1 0.45-1 1v9h-20v-11.431c0-0.313-0.225-0.569-0.5-0.569h-1c-0.275 0-0.5 0.256-0.5 0.569v31.431h2v-2h36v2h2v-31.431c0-0.313-0.225-0.569-0.5-0.569zM24 4h8v8h-8v-8zM16 28h-8v-8h8v8zM18 28v-8h8v8h-8zM38 28h-10v-9c0-0.55-0.45-1-1-1h-20c-0.55 0-1 0.45-1 1v9h-4v-14h36v14z"></path>
</svg>
