<!-- Generated by IcoMoon.io -->
<svg version="1.1" xmlns="http://www.w3.org/2000/svg" width="40" height="32" viewBox="0 0 40 32">
<title>inventory-solid</title>
<path d="M39 0h-2c-0.55 0-1 0.45-1 1v9h-32v-9c0-0.55-0.45-1-1-1h-2c-0.55 0-1 0.45-1 1v31h4v-2h32v2h4v-31c0-0.55-0.45-1-1-1zM36 26h-32v-12h32v12zM23 8h6c0.55 0 1-0.45 1-1v-6c0-0.55-0.45-1-1-1h-6c-0.55 0-1 0.45-1 1v6c0 0.55 0.45 1 1 1zM7 24h6c0.55 0 1-0.45 1-1v-6c0-0.55-0.45-1-1-1h-6c-0.55 0-1 0.45-1 1v6c0 0.55 0.45 1 1 1zM17 24h6c0.55 0 1-0.45 1-1v-6c0-0.55-0.45-1-1-1h-6c-0.55 0-1 0.45-1 1v6c0 0.55 0.45 1 1 1z"></path>
</svg>
