<!-- Generated by IcoMoon.io -->
<svg version="1.1" xmlns="http://www.w3.org/2000/svg" width="28" height="32" viewBox="0 0 28 32">
<title>island-tropical</title>
<path d="M18.712 2c-0.962 0-1.875 0.159-2.746 0.389-1.702-1.472-4.062-2.389-6.677-2.389-4.702 0-8.596 2.953-9.274 6.804-0.008 0.049-0.013 0.106-0.013 0.165 0 0.57 0.462 1.032 1.032 1.032 0.006 0 0.011-0 0.017-0h4.59c-2.019 3.117-2.196 6.907-0.328 9.572 0.446 0.636 1.224 0.468 1.577 0.115l5.196-5.196c-0.553 3.563-1.602 6.907-2.604 9.509h-1.282c-4.522 0-8.199 3.679-8.199 8.2 0.002 0.994 0.807 1.799 1.8 1.8h20.399c0.994-0.001 1.799-0.806 1.801-1.8v-0c0-3.887-2.726-7.137-6.363-7.976 0.606-4.644 0.277-9.193-0.119-12.224h9.432c0.005 0 0.011 0 0.016 0 0.57 0 1.032-0.462 1.032-1.032 0-0.058-0.005-0.115-0.014-0.171l0.001 0.006c-0.677-3.851-4.571-6.804-9.273-6.804zM21.996 30h-19.992c0.114-3.335 2.844-5.996 6.195-6h7.602c3.352 0.004 6.081 2.665 6.195 5.99l0 0.010zM15.633 22h-4.017c1.116-3.029 1.918-7.301 2.319-11.357l0.642-0.643h0.923c0.391 2.915 0.736 7.438 0.133 12zM13.75 8l-7.361 7.36c-1.168-3.063 0.493-7.585 4.563-9.418 0.179-0.079 0.301-0.255 0.301-0.459 0-0.065-0.012-0.127-0.035-0.183l0.001 0.003-0.375-0.932c-0.075-0.188-0.255-0.319-0.466-0.319-0.071 0-0.138 0.015-0.199 0.041l0.003-0.001c-1.098 0.505-2.040 1.145-2.861 1.912l0.006-0.006h-4.994c1.027-2.346 3.802-4 6.955-4 2.045 0 3.951 0.675 5.367 1.901l0.797 0.688c0.676-0.175 1.965-0.589 3.259-0.589 3.153 0 5.927 1.655 6.954 4z"></path>
</svg>
