<!-- Generated by IcoMoon.io -->
<svg version="1.1" xmlns="http://www.w3.org/2000/svg" width="28" height="32" viewBox="0 0 28 32">
<title>island-tropical-solid</title>
<path d="M21.033 2c-2.18 0-4.104 0.864-5.394 2.192-0.903-2.424-3.532-4.192-6.672-4.192-3.529 0-6.447 2.214-6.956 5.103-0.006 0.037-0.010 0.080-0.010 0.124 0 0.427 0.346 0.774 0.774 0.774 0.004 0 0.009-0 0.013-0h2.212l1-2 1 2h1.886c-2.138 2.188-2.476 5.43-0.909 7.661 0.273 0.387 0.821 0.457 1.156 0.122l4.438-4.438c0.25 4.976-0.688 9.976-1.313 12.656h-3.333c-0 0-0.001 0-0.001 0-4.502 0-8.232 3.305-8.895 7.622l-0.006 0.050c-0.181 1.22 0.752 2.326 1.985 2.326h19.992c1.154 0 2.132-0.984 1.988-2.128-0.438-3.48-2.941-6.313-6.188-7.383 0.637-5.543-0.457-11.48-1.157-14.489h6.358l1-2 1 2h2.212c0.004 0 0.008 0 0.012 0 0.427 0 0.774-0.346 0.774-0.774 0-0.044-0.004-0.087-0.011-0.128l0.001 0.005c-0.508-2.888-3.426-5.103-6.956-5.103z"></path>
</svg>
