<!-- Generated by IcoMoon.io -->
<svg version="1.1" xmlns="http://www.w3.org/2000/svg" width="36" height="32" viewBox="0 0 36 32">
<title>jack-o-lantern-solid</title>
<path d="M22 6.662v-4.424c0-0.379-0.214-0.725-0.552-0.894l-2.475-1.238c-0.523-0.262-1.159-0.020-1.376 0.523l-2.254 5.634c0.821-0.165 1.698-0.264 2.657-0.264 1.517 0 2.827 0.249 4 0.662zM30.956 9.571c-1.688-1.443-4.085-1.86-6.218-1.308 0.381 0.344 0.76 0.689 1.074 1.113 0.194 0.266 0.341 0.589 0.509 0.886-1.985-1.476-4.726-2.261-8.322-2.261s-6.337 0.784-8.322 2.261c0.168-0.297 0.315-0.619 0.509-0.886 0.314-0.424 0.694-0.768 1.074-1.113-2.133-0.552-4.531-0.135-6.218 1.308-6.725 5.751-6.725 15.108 0 20.859 2.414 2.064 6.301 2.084 8.758 0.078 1.114 0.962 2.494 1.492 4.199 1.492s3.084-0.531 4.199-1.492c2.456 2.006 6.343 1.986 8.758-0.078 6.724-5.751 6.724-15.108-0.001-20.859zM20.053 17.375l2.572-4.167c0.146-0.286 0.538-0.276 0.75 0l2.572 4.167c0.104 0.203 0.056 0.625-0.375 0.625h-5.143c-0.431 0-0.481-0.418-0.376-0.625zM10.053 17.375l2.572-4.167c0.146-0.286 0.537-0.276 0.75 0l2.572 4.167c0.104 0.203 0.056 0.625-0.375 0.625h-5.143c-0.431 0-0.481-0.418-0.376-0.625zM29.363 21.6c-0.372 1.065-0.797 1.789-1.169 2.31-0.586 0.809-1.334 1.488-2.199 2.062-0.016-0.539-0.452-0.972-0.994-0.972h-1c-0.552 0-1 0.448-1 1v1.343c-1.466 0.43-3.135 0.657-4.999 0.657-1.866 0-3.535-0.228-5.001-0.657v-1.343c0-0.552-0.447-1-1-1h-1c-0.544 0-0.982 0.436-0.995 0.977-0.857-0.567-1.596-1.237-2.172-2.032-0.383-0.537-0.814-1.269-1.19-2.341-0.304-0.868 0.66-1.634 1.453-1.167 2.059 1.215 4.399 2.046 6.904 2.428v1.136c0 0.552 0.447 1 1 1h1c0.552 0 1-0.448 1-1v-0.891h0.001c3.649 0 7.045-0.984 9.909-2.674 0.791-0.468 1.756 0.298 1.453 1.166z"></path>
</svg>
