<!-- Generated by IcoMoon.io -->
<svg version="1.1" xmlns="http://www.w3.org/2000/svg" width="36" height="32" viewBox="0 0 36 32">
<title>jack-o-lantern</title>
<path d="M30.922 6.907c-2.157-2.035-5.339-2.449-7.922-1.226v-2.444c0-0.762-0.424-1.448-1.106-1.789l-2.476-1.239c-0.498-0.248-1.086-0.278-1.604-0.079-0.519 0.198-0.938 0.608-1.146 1.127l-1.794 4.484c-0.299 0.152-0.588 0.324-0.859 0.524-2.713-1.893-6.486-1.673-8.938 0.641-3.276 3.088-5.078 7.204-5.078 11.59s1.802 8.5 5.078 11.588c2.449 2.311 6.221 2.538 8.938 0.642 2.285 1.681 5.684 1.681 7.969 0 1.219 0.849 2.649 1.273 4.076 1.273 1.758 0 3.51-0.639 4.861-1.914 3.276-3.087 5.078-7.203 5.078-11.589s-1.803-8.501-5.078-11.589zM18.526 1.999l2.474 1.238v2.444c-1.138-0.549-2.434-0.749-3.698-0.626l1.224-3.057zM29.551 28.63c-1.885 1.776-4.986 1.804-6.914 0.066l-0.688-0.619-0.672 0.637c-0.906 0.86-1.979 1.279-3.277 1.279s-2.371-0.419-3.277-1.279l-0.672-0.637-0.688 0.619c-1.928 1.738-5.029 1.709-6.914-0.066-2.869-2.706-4.449-6.304-4.449-10.134s1.58-7.428 4.449-10.135c1.883-1.775 4.984-1.806 6.914-0.066l0.688 0.619 0.672-0.637c0.906-0.86 1.979-1.279 3.277-1.279s2.371 0.419 3.277 1.279l0.672 0.637 0.688-0.619c1.926-1.739 5.027-1.713 6.914 0.066 2.869 2.706 4.449 6.305 4.449 10.134s-1.58 7.428-4.449 10.134zM29.654 17.433c-0.664-0.524-1.551-0.58-2.267-0.142-3.338 2.046-7.252 2.916-11.283 2.494l-1.104-0.116v1.827h-2v-2.299l-0.686-0.227c-1.41-0.468-2.619-1.016-3.697-1.676-0.717-0.441-1.609-0.38-2.268 0.144-0.676 0.539-0.932 1.418-0.654 2.24 0.344 1.011 0.774 1.886 1.318 2.681 2.115 3.032 5.916 4.636 10.986 4.636 0.731 0 1.424-0.044 2.098-0.109l0.902-0.088v-2.303h2v1.947l1.373-0.551c1.983-0.795 3.543-1.996 4.644-3.574 0.529-0.769 0.951-1.634 1.293-2.646 0.278-0.821 0.020-1.7-0.656-2.238zM28.416 19.033c-0.281 0.833-0.623 1.537-1.043 2.145-0.66 0.946-1.543 1.726-2.633 2.332-0.346-0.606-0.996-1.014-1.74-1.014h-2c-1.104 0-2 0.898-2 1.999v0.471c-0.326 0.019-0.658 0.029-1 0.029-4.389 0-7.621-1.308-9.342-3.774-0.436-0.634-0.785-1.349-1.084-2.223 1.027 0.63 2.154 1.166 3.426 1.631v0.867c0 1.102 0.896 1.999 2 1.999h2c0.973 0 1.785-0.698 1.965-1.62 3.963 0.299 8.053-0.786 11.469-2.879l-0.018 0.038zM15.572 15.997c0.178 0 0.304-0.069 0.375-0.208s0.071-0.277 0-0.416l-2.572-4.167c-0.107-0.139-0.241-0.208-0.402-0.208s-0.277 0.069-0.348 0.208l-2.572 4.166c-0.071 0.139-0.071 0.277 0 0.416s0.197 0.208 0.375 0.208h5.144zM25.572 15.997c0.178 0 0.304-0.069 0.375-0.208s0.071-0.277 0-0.416l-2.572-4.167c-0.107-0.139-0.241-0.208-0.402-0.208s-0.277 0.069-0.348 0.208l-2.572 4.166c-0.071 0.139-0.071 0.277 0 0.416s0.197 0.208 0.375 0.208h5.144z"></path>
</svg>
