<!-- Generated by IcoMoon.io -->
<svg version="1.1" xmlns="http://www.w3.org/2000/svg" width="36" height="32" viewBox="0 0 36 32">
<title>jedi-solid</title>
<path d="M33.497 22c-2.665 5.886-8.603 10-15.499 10q-0.4 0-0.803-0.019c-6.498-0.298-12.116-4.342-14.694-9.981h2.495l-3.663-3.662c-0.156-0.714-0.27-1.559-0.317-2.421l-0.002-0.043c-0.008-0.195-0.012-0.423-0.012-0.652 0-0.43 0.016-0.856 0.047-1.278l-0.003 0.056h2.951l-2.587-2.586c0.956-4.208 3.381-7.736 6.696-10.095l0.052-0.035c0.161-0.116 0.362-0.187 0.58-0.188h0c0.35 0.002 0.659 0.18 0.841 0.45l0.002 0.004c0.11 0.158 0.175 0.355 0.175 0.566 0 0.136-0.027 0.266-0.076 0.384l0.002-0.007c-0.389 0.949-0.615 2.050-0.615 3.204 0 0 0 0 0 0v-0c0 2.819 1.315 5.411 3.607 7.108 0.255 0.187 0.419 0.486 0.419 0.824 0 0.303-0.133 0.576-0.343 0.762l-0.001 0.001c-1.659 1.499-2.573 3.531-2.573 5.724 0 3.752 2.685 6.893 6.243 7.62l0.156-4.079-1.697 1.155c-0.080 0.052-0.177 0.082-0.281 0.082-0.132 0-0.252-0.049-0.344-0.13l0.001 0c-0.097-0.092-0.157-0.221-0.157-0.365 0-0.095 0.026-0.183 0.072-0.259l-0.001 0.002 1.258-2.11-2.629-0.546c-0.23-0.048-0.399-0.249-0.399-0.489s0.17-0.441 0.396-0.489l0.003-0.001 2.629-0.545-1.257-2.108c-0.045-0.074-0.072-0.163-0.072-0.258 0-0.276 0.224-0.499 0.499-0.499 0.105 0 0.203 0.033 0.284 0.088l-0.002-0.001 1.899 1.291 0.72-17.998c0.010-0.267 0.229-0.479 0.498-0.479 0.001 0 0.002 0 0.002 0h0.003c0.268 0.002 0.486 0.215 0.497 0.48l0 0.001 0.721 17.995 1.899-1.292c0.079-0.053 0.176-0.085 0.28-0.085 0.133 0 0.255 0.052 0.345 0.136l-0-0c0.097 0.091 0.157 0.221 0.157 0.364 0 0.094-0.026 0.182-0.071 0.258l0.001-0.002-1.259 2.11 2.63 0.546c0.229 0.049 0.398 0.249 0.398 0.489s-0.169 0.441-0.395 0.489l-0.003 0.001-2.63 0.545 1.257 2.108c0.045 0.074 0.072 0.163 0.072 0.259 0 0.142-0.060 0.271-0.155 0.361l-0 0c-0.091 0.083-0.213 0.133-0.346 0.133-0.105 0-0.202-0.031-0.283-0.084l0.002 0.001-1.698-1.154 0.156 4.084c3.030-0.588 5.474-3.010 6.082-6.031 0.102-0.471 0.16-1.011 0.16-1.566 0-2.282-0.99-4.332-2.563-5.746l-0.007-0.006c-0.212-0.188-0.345-0.46-0.345-0.764 0-0.338 0.164-0.637 0.417-0.823l0.003-0.002c2.291-1.698 3.605-4.288 3.605-7.108 0-0.002 0-0.003 0-0.005 0-1.153-0.226-2.254-0.637-3.259l0.021 0.058c-0.047-0.112-0.075-0.242-0.075-0.378 0-0.211 0.065-0.407 0.177-0.568l-0.002 0.003c0.185-0.273 0.494-0.45 0.843-0.452h0c0.217 0.001 0.418 0.071 0.581 0.189l-0.003-0.002c3.361 2.403 5.783 5.933 6.722 10.029l0.022 0.114-2.578 2.577h2.935c0.022 0.36 0.065 0.716 0.065 1.079-0.002 1.148-0.119 2.268-0.339 3.35l0.018-0.108-3.681 3.68z"></path>
</svg>
