<!-- Generated by IcoMoon.io -->
<svg version="1.1" xmlns="http://www.w3.org/2000/svg" width="36" height="32" viewBox="0 0 36 32">
<title>jedi</title>
<path d="M35 15.077c0 9.331-7.627 16.923-17 16.923-9.152 0-16.576-7.327-16.982-16.128-0.266-5.784 2.404-11.24 7.144-14.594 0.239-0.172 0.537-0.275 0.859-0.275h0c0.829 0.003 1.5 0.675 1.5 1.505 0 0.199-0.039 0.39-0.109 0.564l0.004-0.010c-0.354 0.863-0.56 1.866-0.561 2.916v0c0 2.569 1.199 4.932 3.289 6.479 0.375 0.277 0.615 0.717 0.615 1.214 0 0.445-0.193 0.845-0.5 1.121l-0.001 0.001c-1.43 1.283-2.326 3.138-2.326 5.201 0 0.002 0 0.003 0 0.005v-0c0 3.535 2.646 6.401 6.068 6.889v-4.474l-1.293 1.293c-0.181 0.181-0.431 0.293-0.707 0.293-0.552 0-1-0.448-1-1 0-0.276 0.112-0.526 0.293-0.707v0l1.293-1.293h-1.586c-0.552 0-1-0.448-1-1s0.448-1 1-1v0h1.586l-1.293-1.293c-0.181-0.181-0.293-0.431-0.293-0.707 0-0.552 0.448-1 1-1 0.276 0 0.526 0.112 0.707 0.293v0l1.293 1.293v-16.586c0-0.552 0.448-1 1-1s1 0.448 1 1v16.586l1.293-1.293c0.181-0.181 0.431-0.292 0.707-0.292 0.552 0 1 0.448 1 1 0 0.276-0.112 0.526-0.292 0.707v0l-1.293 1.293h1.586c0.552 0 1 0.448 1 1s-0.448 1-1 1v0h-1.586l1.293 1.294c0.18 0.181 0.292 0.43 0.292 0.706 0 0.552-0.448 1-1 1-0.276 0-0.526-0.112-0.706-0.292l-1.295-1.293v4.479c5.219-0.707 6.060-5.509 6.064-6.894 0-0.005 0-0.010 0-0.016 0-2.059-0.893-3.91-2.314-5.185l-0.006-0.006c-0.31-0.277-0.504-0.677-0.504-1.123 0-0.497 0.241-0.938 0.613-1.211l0.004-0.003c2.088-1.548 3.287-3.909 3.287-6.479-0-1.052-0.207-2.055-0.581-2.972l0.019 0.053c-0.067-0.164-0.106-0.354-0.106-0.554 0-0.829 0.671-1.502 1.5-1.505h0c0.322 0 0.619 0.104 0.862 0.278l-0.004-0.003c4.35 3.1 7.156 8.122 7.168 13.8v0.002zM32.891 16.8l-2.234 1.954c-0.175 0.153-0.405 0.246-0.657 0.246-0.553 0-1-0.448-1-1 0-0.3 0.132-0.568 0.34-0.752l0.001-0.001 3.605-3.154c-0.053-0.848-0.169-1.636-0.343-2.401l0.019 0.1-1.916 1.916c-0.181 0.181-0.431 0.292-0.706 0.292-0.552 0-1-0.447-1-1 0-0.276 0.112-0.525 0.292-0.706l2.65-2.65c-0.908-2.281-2.279-4.208-4.008-5.741l-0.016-0.014c0.142 0.626 0.223 1.345 0.223 2.083 0 0.002 0 0.005 0 0.007v-0c0 0.008 0 0.018 0 0.028 0 3.095-1.411 5.861-3.626 7.689l-0.017 0.014c1.585 1.611 2.564 3.822 2.564 6.263 0 0.010-0 0.021-0 0.031v-0.002c-0.012 5.493-4.553 8.989-9.064 8.989-5 0-9.066-4.051-9.066-9.029 0.010-2.436 0.988-4.642 2.57-6.253l-0.001 0.001c-2.232-1.84-3.644-4.606-3.644-7.702 0-0.010 0-0.020 0-0.030v0.002-0.006c0.014-0.747 0.096-1.466 0.238-2.162l-0.013 0.076c-1.75 1.542-3.125 3.467-3.998 5.648l-0.035 0.1 2.658 2.658c0.181 0.181 0.292 0.431 0.292 0.707 0 0.552-0.448 1-1 1-0.276 0-0.526-0.112-0.707-0.292v0l-1.906-1.906c-0.162 0.653-0.287 1.43-0.348 2.224l-0.003 0.050 3.623 3.172c0.209 0.184 0.34 0.453 0.34 0.752 0 0.552-0.448 1-1 1-0.252 0-0.482-0.093-0.658-0.247l0.001 0.001-2.227-1.95c0.686 5.844 5.81 13.197 14.887 13.197 7.683 0 14.029-5.782 14.89-13.2z"></path>
</svg>
