<!-- Generated by IcoMoon.io -->
<svg version="1.1" xmlns="http://www.w3.org/2000/svg" width="40" height="32" viewBox="0 0 40 32">
<title>joint</title>
<path d="M34.778 5.843c-0.471-0.314-0.778-0.822-0.778-1.389v-3.954c0-0.276-0.224-0.5-0.5-0.5h-1c-0.276 0-0.5 0.224-0.5 0.5v3.894c0 1.26 0.642 2.424 1.689 3.126 2.7 1.811 4.311 4.831 4.311 8.085v1.895c0 0.276 0.224 0.5 0.5 0.5h1c0.276 0 0.5-0.224 0.5-0.5v-1.894c0-3.933-1.953-7.582-5.222-9.763zM31.473 10.851c1.583 1.069 2.527 2.843 2.527 4.755v1.894c0 0.276 0.224 0.5 0.5 0.5h1c0.276 0 0.5-0.224 0.5-0.5v-1.894c0-2.623-1.318-5.055-3.519-6.486-1.601-1.041-2.481-2.899-2.481-4.809v-3.811c0-0.276-0.224-0.5-0.5-0.5h-1c-0.276 0-0.5 0.224-0.5 0.5v4.189c0 2.52 1.384 4.751 3.473 6.161zM38.5 22h-21.066c-6.165 0-12.206 1.733-17.434 5 5.228 3.267 11.269 5 17.434 5h21.066c0.828 0 1.5-0.672 1.5-1.5v-7c0-0.829-0.672-1.5-1.5-1.5zM17.434 30c-4.616 0-9.146-1.029-13.282-3 3.757-1.79 7.844-2.759 12.020-2.93l5.081 5.93h-3.819zM23.888 30l-5.142-6h7.366l5.142 6h-7.366zM38 30h-4.112l-5.142-6h9.254v6z"></path>
</svg>
