<!-- Generated by IcoMoon.io -->
<svg version="1.1" xmlns="http://www.w3.org/2000/svg" width="40" height="32" viewBox="0 0 40 32">
<title>joint-solid</title>
<path d="M27.771 11.319c1.399 0.98 2.229 2.572 2.229 4.287v1.894c0 0.276 0.224 0.5 0.5 0.5h3c0.276 0 0.5-0.224 0.5-0.5v-1.894c0-2.703-1.313-5.213-3.521-6.754-1.488-1.038-2.479-2.643-2.479-4.457v-3.894c0-0.276-0.224-0.5-0.5-0.5h-3c-0.276 0-0.5 0.224-0.5 0.5v4.15c0 2.731 1.535 5.102 3.771 6.669zM12.186 22.436c-4.309 0.693-8.455 2.232-12.186 4.564 5.228 3.267 11.269 5 17.434 5h5.536l-7.045-8.219c-0.921-1.075-2.341-1.569-3.739-1.344zM34.58 5.443c-0.354-0.237-0.58-0.623-0.58-1.049v-3.894c0-0.276-0.224-0.5-0.5-0.5h-3c-0.276 0-0.5 0.224-0.5 0.5v3.894c0 1.376 0.636 2.713 1.79 3.462 2.634 1.709 4.21 4.615 4.21 7.749v1.894c0 0.276 0.224 0.5 0.5 0.5h3c0.276 0 0.5-0.224 0.5-0.5v-1.894c0-4.090-2.026-7.887-5.42-10.162zM22.556 22.003c-2.15 0.004-5.426 0.009-5.513 0.011l7.363 8.589c0.738 0.857 1.824 1.397 3.037 1.397 0 0 0 0 0 0h5.528l-7.372-8.6c-0.737-0.857-1.824-1.397-3.036-1.397-0.002 0-0.005 0-0.007 0h0zM38.5 22h-11.5l7.374 8.603c0.738 0.857 1.824 1.397 3.037 1.397 0 0 0 0 0 0h1.089c0.828 0 1.5-0.672 1.5-1.5v-7c0-0.829-0.672-1.5-1.5-1.5z"></path>
</svg>
