<!-- Generated by IcoMoon.io -->
<svg version="1.1" xmlns="http://www.w3.org/2000/svg" width="28" height="32" viewBox="0 0 28 32">
<title>journal-whills-solid</title>
<path d="M27.4 23.6c-0.2 0.801-0.2 3.601 0 4.601q0.599 0.599 0.6 1.2v1c0 1-0.8 1.6-1.6 1.6h-20.4c-3.4 0-6-2.6-6-6v-20c0-3.4 2.6-6 6-6h20.4c1 0 1.6 0.6 1.6 1.6v20.801q0 0.899-0.6 1.199zM23.8 24h-17.8c-1 0-2 0.8-2 2s0.8 2 2 2h17.8zM8.001 11.001c0 0.032 0.009 0.062 0.009 0.094l2.319 2.029c0.105 0.092 0.17 0.226 0.17 0.376 0 0.276-0.224 0.5-0.5 0.5h-0.001c-0.125-0.007-0.239-0.052-0.329-0.125l0.001 0.001-1.475-1.29c0.722 3.099 3.485 5.414 6.804 5.414s6.082-2.315 6.805-5.414l-1.475 1.29c-0.088 0.076-0.203 0.123-0.329 0.123 0 0 0 0-0 0h-0.001c-0.148-0.008-0.279-0.072-0.376-0.17l-0-0c-0.072-0.090-0.117-0.204-0.124-0.328l-0-0.001c0.008-0.148 0.072-0.28 0.171-0.376l0-0 2.319-2.029c0.001-0.033 0.010-0.063 0.010-0.095 0-0.69-0.131-1.345-0.316-1.975l-1.329 1.328c-0.091 0.091-0.216 0.147-0.354 0.147-0.276 0-0.5-0.224-0.5-0.5 0-0.138 0.056-0.263 0.146-0.353v0l1.651-1.65c-0.64-1.312-1.636-2.367-2.863-3.061l-0.035-0.018c0.376 0.593 0.6 1.315 0.6 2.089 0 1.241-0.574 2.348-1.471 3.070l-0.008 0.006c0.605 0.627 0.979 1.482 0.979 2.423 0 1.674-1.178 3.072-2.75 3.411l-0.023 0.004-0.089-2.143 0.792 0.539c0.039 0.027 0.087 0.043 0.14 0.043 0 0 0.001 0 0.001 0h-0c0 0 0.001 0 0.002 0 0.137 0 0.249-0.111 0.249-0.249 0-0.047-0.013-0.092-0.036-0.129l0.001 0.001-0.533-0.895 1.119-0.232c0.115-0.025 0.199-0.125 0.199-0.245s-0.085-0.221-0.198-0.245l-0.002-0-1.119-0.232 0.533-0.895c0.022-0.037 0.036-0.081 0.036-0.128 0-0.137-0.111-0.249-0.249-0.249-0.001 0-0.001 0-0.002 0h0c-0.052 0.002-0.1 0.017-0.142 0.043l0.001-0.001-0.887 0.604-0.293-7.019c-0.006-0.133-0.116-0.239-0.25-0.239s-0.244 0.106-0.25 0.239l-0 0.001-0.289 6.926-0.75-0.51c-0.039-0.027-0.088-0.043-0.14-0.043-0.138 0-0.25 0.112-0.25 0.25 0 0.047 0.013 0.091 0.036 0.129l-0.001-0.001 0.533 0.895-1.119 0.232c-0.115 0.024-0.199 0.125-0.199 0.245s0.085 0.22 0.198 0.244l0.002 0 1.119 0.233-0.533 0.894c-0.020 0.037-0.033 0.081-0.035 0.127l-0 0.001c0.004 0.071 0.033 0.134 0.078 0.182l-0-0c0.045 0.042 0.105 0.068 0.172 0.068v0c0.052-0 0.101-0.016 0.142-0.044l-0.001 0.001 0.647-0.44-0.085 2.045c-1.595-0.344-2.773-1.743-2.773-3.417 0-0.942 0.373-1.797 0.979-2.425l-0.001 0.001c-0.905-0.728-1.479-1.835-1.479-3.076 0-0.775 0.224-1.497 0.61-2.106l-0.010 0.016c-1.262 0.713-2.258 1.767-2.88 3.038l-0.018 0.041 1.651 1.651c0.090 0.090 0.146 0.215 0.146 0.353 0 0.276-0.224 0.5-0.5 0.5-0.138 0-0.262-0.056-0.353-0.146l-1.329-1.329c-0.187 0.631-0.317 1.285-0.316 1.977z"></path>
</svg>
