<!-- Generated by IcoMoon.io -->
<svg version="1.1" xmlns="http://www.w3.org/2000/svg" width="28" height="32" viewBox="0 0 28 32">
<title>journal-whills</title>
<path d="M27.068 25.888c-0.225 1.006-0.275 2.85-0.025 4.112h0.207c0.414 0.002 0.748 0.336 0.75 0.75v0.5c-0.002 0.414-0.336 0.748-0.75 0.75h-23.25c-2.209-0-4-1.791-4-4v0-23c0-0.001 0-0.001 0-0.002 0-2.76 2.238-4.998 4.998-4.998 0.001 0 0.002 0 0.002 0h21.5c0.001 0 0.002 0 0.003 0 0.827 0 1.497 0.67 1.497 1.497 0 0.001 0 0.002 0 0.003v-0 23c-0.003 0.623-0.382 1.156-0.922 1.384l-0.010 0.004zM26 2h-21c-1.657 0-3 1.343-3 3v19.555c0.572-0.345 1.261-0.551 1.999-0.555h22.001zM25.268 26h-21.268c-1.105 0-2 0.895-2 2s0.895 2 2 2v0h21.268c-0.089-0.601-0.14-1.294-0.14-2s0.051-1.399 0.149-2.077l-0.009 0.077zM6.25 12.935c0-3.137 1.723-6.051 4.496-7.605 0.106-0.061 0.232-0.096 0.367-0.096 0.212 0 0.403 0.088 0.539 0.23l0 0c0.122 0.138 0.201 0.318 0.211 0.516l0 0.002c-0.007 0.145-0.048 0.28-0.116 0.397l0.002-0.004c-0.36 0.566-0.574 1.255-0.574 1.995 0 1.186 0.55 2.243 1.409 2.93l0.007 0.006c0.159 0.128 0.263 0.318 0.275 0.533l0 0.002c0.001 0.014 0.001 0.030 0.001 0.047 0 0.201-0.079 0.384-0.209 0.518l0-0c-0.563 0.581-0.91 1.375-0.91 2.249 0 1.526 1.057 2.805 2.478 3.145l0.022 0.004v-1.596l-0.396 0.396c-0.090 0.090-0.215 0.146-0.353 0.146-0.276 0-0.5-0.224-0.5-0.5 0-0.138 0.056-0.263 0.146-0.353v0l0.646-0.646h-0.793c-0.276 0-0.5-0.224-0.5-0.5s0.224-0.5 0.5-0.5v0h0.793l-0.646-0.646c-0.090-0.090-0.146-0.215-0.146-0.353 0-0.276 0.224-0.5 0.5-0.5 0.138 0 0.263 0.056 0.353 0.146v0l0.396 0.396v-8.043c0-0.414 0.336-0.75 0.75-0.75s0.75 0.336 0.75 0.75v0 8.043l0.397-0.396c0.090-0.090 0.215-0.146 0.353-0.146 0.276 0 0.5 0.224 0.5 0.5 0 0.138-0.056 0.263-0.146 0.353v0l-0.646 0.646h0.793c0.276 0 0.5 0.224 0.5 0.5s-0.224 0.5-0.5 0.5v0h-0.793l0.645 0.646c0.091 0.091 0.147 0.216 0.147 0.354 0 0.276-0.224 0.5-0.5 0.5-0.138 0-0.263-0.056-0.354-0.147v0l-0.396-0.396v1.596c1.444-0.345 2.5-1.625 2.5-3.151 0-0.874-0.346-1.666-0.909-2.249l0.001 0.001c-0.129-0.134-0.209-0.316-0.209-0.517 0-0.016 0.001-0.033 0.002-0.049l-0 0.002c0.024-0.214 0.124-0.4 0.273-0.535l0.001-0.001c0.866-0.693 1.416-1.75 1.416-2.936 0-0.739-0.214-1.429-0.583-2.010l0.009 0.015c-0.070-0.112-0.111-0.248-0.111-0.393 0-0.414 0.335-0.749 0.749-0.749 0.135 0 0.262 0.036 0.371 0.098l-0.004-0.002c2.773 1.556 4.496 4.47 4.496 7.606 0 4.825-3.926 8.75-8.75 8.75s-8.75-3.925-8.75-8.75zM9.375 15.829c-0.093 0.105-0.227 0.17-0.377 0.17-0.127 0-0.242-0.047-0.331-0.124l0.001 0.001-0.428-0.375c1.041 2.73 3.666 4.684 6.758 4.684s5.717-1.953 6.758-4.684l-0.428 0.375c-0.088 0.078-0.204 0.125-0.331 0.125-0.276 0-0.5-0.224-0.5-0.5 0-0.15 0.066-0.285 0.171-0.377l0.001-0.001 1.49-1.305c0.037-0.293 0.090-0.582 0.090-0.885-0.001-0.477-0.047-0.943-0.136-1.393l0.008 0.046-0.768 0.767c-0.090 0.090-0.215 0.146-0.353 0.146-0.276 0-0.5-0.224-0.5-0.5 0-0.138 0.056-0.263 0.146-0.353v0l1.152-1.152c-0.348-0.949-0.853-1.765-1.491-2.455l0.004 0.005c0.008 0.106 0.012 0.212 0.012 0.318-0.003 1.389-0.543 2.652-1.423 3.592l0.003-0.003c0.53 0.756 0.848 1.695 0.848 2.708 0 2.624-2.127 4.751-4.751 4.751s-4.751-2.127-4.751-4.751c0-1.013 0.317-1.953 0.858-2.724l-0.010 0.015c-0.878-0.937-1.418-2.2-1.42-3.588v-0c0-0.106 0.006-0.212 0.010-0.318-0.632 0.687-1.137 1.501-1.47 2.4l-0.016 0.051 1.154 1.152c0.090 0.090 0.146 0.215 0.146 0.353 0 0.276-0.224 0.5-0.5 0.5-0.138 0-0.263-0.056-0.353-0.146v0l-0.768-0.767c-0.082 0.403-0.129 0.866-0.129 1.341 0 0.002 0 0.005 0 0.007v-0c0 0.303 0.053 0.592 0.090 0.885l1.49 1.305c0.104 0.092 0.17 0.226 0.17 0.375 0 0.127-0.047 0.243-0.126 0.331l0-0.001z"></path>
</svg>
