<!-- Generated by IcoMoon.io -->
<svg version="1.1" xmlns="http://www.w3.org/2000/svg" width="28" height="32" viewBox="0 0 28 32">
<title>joystick-solid</title>
<path d="M26 22h-18v-1c0-0.552-0.448-1-1-1v0h-2c-0.552 0-1 0.448-1 1v0 1h-2c-1.105 0-2 0.895-2 2v0 6c0 1.105 0.895 2 2 2v0h24c1.105 0 2-0.895 2-2v0-6c0-1.105-0.895-2-2-2v0zM12 13.675v6.325h4v-6.325c2.884-0.863 5-3.509 5-6.675 0-3.866-3.134-7-7-7s-7 3.134-7 7v0c0 3.166 2.116 5.812 5 6.675zM12.5 3c0.828 0 1.5 0.672 1.5 1.5s-0.672 1.5-1.5 1.5c-0.828 0-1.5-0.672-1.5-1.5v0c0-0.828 0.672-1.5 1.5-1.5v0z"></path>
</svg>
