<!-- Generated by IcoMoon.io -->
<svg version="1.1" xmlns="http://www.w3.org/2000/svg" width="28" height="32" viewBox="0 0 28 32">
<title>joystick</title>
<path d="M12.5 4c-0.828 0-1.5 0.672-1.5 1.5s0.672 1.5 1.5 1.5c0.828 0 1.5-0.672 1.5-1.5v0c0-0.828-0.672-1.5-1.5-1.5v0zM26 22h-11v-8.101c3.388-0.489 6-3.375 6-6.899 0-3.866-3.134-7-7-7s-7 3.134-7 7v0c0 3.524 2.612 6.41 6 6.899v8.101h-5v-1c0-0.552-0.448-1-1-1v0h-2c-0.552 0-1 0.448-1 1v0 1h-2c-1.105 0-2 0.895-2 2v0 6c0 1.105 0.895 2 2 2v0h24c1.105 0 2-0.895 2-2v0-6c0-1.105-0.895-2-2-2v0zM9 7c0-2.761 2.239-5 5-5s5 2.239 5 5c0 2.761-2.239 5-5 5v0c-2.76-0.003-4.997-2.24-5-5v-0zM26 30h-24v-6h24z"></path>
</svg>
