<!-- Generated by IcoMoon.io -->
<svg version="1.1" xmlns="http://www.w3.org/2000/svg" width="28" height="32" viewBox="0 0 28 32">
<title>jug-solid</title>
<path d="M28 10.5c0-0.005 0-0.011 0-0.017 0-2.476-2.007-4.482-4.483-4.482-1.376 0-2.607 0.62-3.43 1.596l-0.006 0.007-0.645-0.805c-0.171-0.224-0.297-0.493-0.358-0.785l-0.002-0.013h-10.154c-0.064 0.305-0.189 0.574-0.364 0.803l0.004-0.005-4.809 6.011c-1.090 1.355-1.75 3.098-1.75 4.994 0 0.002 0 0.004 0 0.007v-0 10.191c0 2.209 1.791 4 4 4v0h15.997c2.209 0 4-1.791 4-4v0-10.194c-0.010-1.156-0.264-2.251-0.714-3.237l0.020 0.050c1.598-0.713 2.693-2.288 2.694-4.119v-0zM22 24c0 1.105-0.895 2-2 2v0h-12c-1.105 0-2-0.895-2-2v0-4c0-1.105 0.895-2 2-2v0h12c1.105 0 2 0.895 2 2v0zM23.586 11.982l-1.506-1.881c0.178-0.63 0.732-1.101 1.419-1.101 0.824 0 1.492 0.668 1.492 1.492 0 0.794-0.62 1.443-1.402 1.49l-0.004 0zM9.5 4h9c0.001 0 0.002 0 0.004 0 0.826 0 1.496-0.67 1.496-1.496 0-0.001 0-0.003 0-0.004v0-1c0-0.001 0-0.002 0-0.004 0-0.826-0.67-1.496-1.496-1.496-0.001 0-0.003 0-0.004 0h-9c-0.001 0-0.002 0-0.004 0-0.826 0-1.496 0.67-1.496 1.496 0 0.001 0 0.003 0 0.004v-0 1c0 0.001 0 0.002 0 0.004 0 0.826 0.67 1.496 1.496 1.496 0.001 0 0.003 0 0.004 0h-0z"></path>
</svg>
