<!-- Generated by IcoMoon.io -->
<svg version="1.1" xmlns="http://www.w3.org/2000/svg" width="28" height="32" viewBox="0 0 28 32">
<title>jug</title>
<path d="M19 17h-10c-1.656 0.002-2.998 1.344-3 3v4c0.002 1.656 1.344 2.998 3 3h10c1.657 0 3-1.343 3-3v0-4c0-1.657-1.343-3-3-3v0zM20 24c0 0.552-0.448 1-1 1v0h-10c-0.552 0-1-0.448-1-1v0-4c0-0.552 0.448-1 1-1v0h10c0.552 0 1 0.448 1 1v0zM28 8.5c0-0.005 0-0.010 0-0.015 0-2.477-2.008-4.484-4.484-4.484-1.839 0-3.419 1.107-4.111 2.691l-0.011 0.029c-0.242-0.323-0.389-0.73-0.393-1.17v-3.55h0.5c0.276 0 0.5-0.224 0.5-0.5v0-1c0-0.276-0.224-0.5-0.5-0.5v0h-11c-0.276 0-0.5 0.224-0.5 0.5v0 1c0 0.276 0.224 0.5 0.5 0.5v0h0.5v3.549c0 0 0 0.001 0 0.002 0 0.474-0.165 0.91-0.441 1.252l0.003-0.004-4.809 6.010c-1.090 1.355-1.75 3.098-1.75 4.994 0 0.002 0 0.004 0 0.007v-0 10.191c0 2.209 1.791 4 4 4v0h15.997c2.209 0 4-1.791 4-4v0-10.194c-0.004-1.851-0.636-3.553-1.693-4.906l0.013 0.018c2.106-0.399 3.678-2.224 3.68-4.417v-0zM24 28c0 1.105-0.895 2-2 2v0h-16c-1.105 0-2-0.895-2-2v0-10.194c0.001-1.424 0.495-2.731 1.322-3.762l-0.009 0.012 4.813-6.009c0.545-0.679 0.875-1.551 0.875-2.5v-3.548h6v3.549c0 0.949 0.33 1.821 0.881 2.508l-0.006-0.008 4.808 6.011c0.817 1.018 1.312 2.326 1.313 3.75v0zM23.5 11c-0.303-0.008-0.59-0.069-0.855-0.175l0.017 0.006-1.593-1.992c-0.017-0.116-0.069-0.219-0.069-0.339 0-1.381 1.119-2.5 2.5-2.5s2.5 1.119 2.5 2.5c0 1.381-1.119 2.5-2.5 2.5v0z"></path>
</svg>
