<!-- Generated by IcoMoon.io -->
<svg version="1.1" xmlns="http://www.w3.org/2000/svg" width="36" height="32" viewBox="0 0 36 32">
<title>kaaba-solid</title>
<path d="M34.633 5.219l-14.735-4.911c-0.566-0.195-1.218-0.308-1.897-0.308s-1.331 0.113-1.939 0.321l0.042-0.013-14.736 4.911c-0.801 0.273-1.367 1.019-1.367 1.897v0 3.063l16.564-4.969c0.939-0.281 1.933-0.281 2.874 0l16.563 4.969v-3.063c0-0.861-0.551-1.625-1.367-1.897zM17.139 7.127l-17.139 5.142v14.274c0 0.938 0.651 1.749 1.566 1.953l15.133 3.363c0.391 0.091 0.84 0.143 1.302 0.143s0.91-0.052 1.342-0.151l-0.040 0.008 15.133-3.363c0.915-0.203 1.566-1.015 1.566-1.953v-14.274l-17.137-5.141c-0.565-0.17-1.162-0.17-1.724 0zM8 14.382c0 0.226-0.151 0.423-0.368 0.482l-5 1.364c-0.318 0.086-0.632-0.153-0.632-0.482v-1.036c0-0.226 0.151-0.423 0.368-0.482l5-1.364c0.318-0.087 0.632 0.152 0.632 0.482v1.036zM17 11.927c0 0.226-0.151 0.423-0.368 0.482l-6 1.636c-0.318 0.087-0.632-0.152-0.632-0.482v-1.036c0-0.226 0.151-0.423 0.368-0.482l6-1.636c0.318-0.087 0.632 0.152 0.632 0.482v1.036zM28 13.346c0-0.33 0.314-0.569 0.632-0.482l5 1.364c0.218 0.059 0.368 0.257 0.368 0.482v1.036c0 0.33-0.314 0.569-0.632 0.483l-5-1.364c-0.214-0.060-0.368-0.253-0.368-0.482 0-0 0-0 0-0v0-1.036zM19 10.891c0-0.33 0.314-0.569 0.632-0.482l6 1.636c0.218 0.059 0.368 0.257 0.368 0.482v1.036c0 0.33-0.314 0.569-0.632 0.482l-6-1.636c-0.214-0.060-0.368-0.253-0.368-0.482 0-0 0-0 0-0v0-1.036z"></path>
</svg>
