<!-- Generated by IcoMoon.io -->
<svg version="1.1" xmlns="http://www.w3.org/2000/svg" width="36" height="32" viewBox="0 0 36 32">
<title>kaaba</title>
<path d="M16.368 10.409l-6 1.636c-0.214 0.060-0.368 0.253-0.368 0.482 0 0 0 0 0 0v-0 1.036c0 0.33 0.314 0.569 0.632 0.482l6-1.636c0.214-0.060 0.368-0.253 0.368-0.482 0-0 0-0 0-0v0-1.036c0-0.331-0.314-0.57-0.632-0.483zM19.368 12.409l6 1.636c0.318 0.087 0.632-0.152 0.632-0.482v-1.036c0-0.226-0.151-0.423-0.368-0.482l-6-1.636c-0.318-0.087-0.632 0.152-0.632 0.482v1.036c0 0 0 0.001 0 0.001 0 0.229 0.154 0.422 0.365 0.481l0.004 0.001zM34.633 5.219l-14.735-4.911c-0.616-0.206-1.257-0.308-1.898-0.308s-1.282 0.102-1.898 0.308l-14.735 4.911c-0.801 0.273-1.367 1.019-1.367 1.897v0 19.425c0 0.938 0.651 1.749 1.566 1.953l15.133 3.363c0.429 0.096 0.865 0.143 1.302 0.143s0.873-0.047 1.302-0.143l15.133-3.363c0.915-0.203 1.566-1.015 1.566-1.953v-19.425c-0.001-0.861-0.552-1.625-1.369-1.897zM34 14.331l-5.368-1.468c-0.318-0.087-0.632 0.152-0.632 0.482v1.036c0 0.226 0.151 0.423 0.368 0.482l5.632 1.516v10.162l-15.133 3.363c-0.261 0.061-0.56 0.095-0.868 0.095s-0.607-0.035-0.895-0.1l0.027 0.005-15.132-3.363v-10.148l5.632-1.53c0.214-0.060 0.368-0.253 0.368-0.482 0-0 0-0 0-0v0-1.036c0-0.33-0.314-0.569-0.632-0.482l-5.368 1.459v-2.652l15.141-4.543c0.563-0.168 1.154-0.169 1.721 0.001l15.139 4.541v2.663zM34 9.58l-14.563-4.368c-0.943-0.285-1.938-0.284-2.873-0.001l-14.564 4.37v-2.463l14.735-4.912c0.473-0.158 1.419-0.37 2.53 0l14.735 4.911v2.463z"></path>
</svg>
