<!-- Generated by IcoMoon.io -->
<svg version="1.1" xmlns="http://www.w3.org/2000/svg" width="32" height="32" viewBox="0 0 32 32">
<title>karget-construction-wrench-screwdriver-tool</title>
<path d="M16.5 19.9c0 0 0 0 0 0l3.1-3.1c0 0 0 0 0 0l2.3-2.3c2.2 0.6 4.5 0 6.2-1.6 1.8-1.8 2.3-4.4 1.4-6.8-0.1-0.3-0.4-0.5-0.7-0.6s-0.7 0-0.9 0.3l-2.3 2.2-1.3-0.3-0.3-1.3 2.2-2.2c0.2-0.2 0.3-0.6 0.3-0.9-0.1-0.3-0.3-0.6-0.6-0.7-2.3-0.9-5-0.4-6.8 1.4-1.6 1.6-2.2 4-1.6 6.2l-1.6 1.6-2.6-2.6-2.3-3.9c-0.1-0.1-0.2-0.3-0.3-0.3l-3.9-2.3c-0.4-0.3-0.9-0.2-1.3 0.1l-3 3.1c-0.4 0.3-0.4 0.8-0.2 1.2l2.3 3.9c0.1 0.1 0.2 0.3 0.3 0.3l3.7 2.2 2.6 2.6-1.2 1.2c-2.2-0.6-4.5 0-6.2 1.6-1.8 1.8-2.3 4.4-1.4 6.8 0.1 0.3 0.4 0.5 0.7 0.6s0.7 0 0.9-0.3l2.4-2 1.3 0.3 0.3 1.3-2.2 2.2c-0.2 0.2-0.3 0.6-0.3 0.9 0.1 0.3 0.3 0.6 0.6 0.7 0.8 0.3 1.5 0.4 2.3 0.4 1.6 0 3.3-0.6 4.5-1.9 1.6-1.6 2.2-4 1.6-6.2l2-1.8z"></path>
<path d="M22.5 16.8l-6 6 6.1 6.1c0.8 0.8 1.9 1.3 3 1.3s2.2-0.4 3-1.3c0.8-0.8 1.3-1.9 1.3-3s-0.4-2.2-1.3-3l-6.1-6.1z"></path>
</svg>
