<!-- Generated by IcoMoon.io -->
<svg version="1.1" xmlns="http://www.w3.org/2000/svg" width="32" height="32" viewBox="0 0 32 32">
<title>karget-home</title>
<path d="M29 19h-4.5c-0.3 0-0.5-0.1-0.7-0.3l-7.8-8.2-7.8 8.2c-0.2 0.2-0.4 0.3-0.7 0.3h-4.5c-0.4 0-0.8-0.2-0.9-0.6-0.2-0.4-0.1-0.8 0.2-1.1l13-14c0.4-0.4 1.1-0.4 1.5 0l13 14c0.3 0.3 0.3 0.7 0.2 1.1-0.2 0.4-0.6 0.6-1 0.6z"></path>
<path d="M24.5 21c-0.8 0-1.6-0.3-2.2-0.9l-6.3-6.7-6.3 6.7c-0.6 0.6-1.4 0.9-2.2 0.9h-1.5v7c0 0.6 0.4 1 1 1h18c0.6 0 1-0.4 1-1v-7h-1.5z"></path>
</svg>
