<!-- Generated by IcoMoon.io -->
<svg version="1.1" xmlns="http://www.w3.org/2000/svg" width="32" height="32" viewBox="0 0 32 32">
<title>karget-construction-engineer-config</title>
<path d="M31.7 20.9c-0.1-0.5-0.7-0.8-1.2-0.7-0.7 0.2-1.2 0-1.3-0.2s0-0.7 0.5-1.3c0.4-0.4 0.4-1 0-1.4-1-1-2.2-1.7-3.6-2.1-0.5-0.1-1.1 0.2-1.2 0.7-0.2 0.7-0.6 1-0.9 1s-0.6-0.4-0.9-1c-0.2-0.5-0.7-0.8-1.2-0.7-1.4 0.4-2.6 1.1-3.6 2.1-0.4 0.4-0.4 1 0 1.4 0.5 0.5 0.6 1 0.5 1.3-0.1 0.2-0.6 0.4-1.3 0.2-0.5-0.1-1.1 0.2-1.2 0.7-0.2 0.7-0.3 1.4-0.3 2.1s0.1 1.4 0.3 2.1c0.1 0.5 0.7 0.8 1.2 0.7 0.7-0.2 1.2 0 1.3 0.2s0 0.7-0.5 1.3c-0.4 0.4-0.4 1 0 1.4 1 1 2.2 1.7 3.6 2.1 0.1 0 0.2 0 0.3 0 0.4 0 0.8-0.3 1-0.7 0.2-0.7 0.6-1 0.9-1s0.6 0.4 0.9 1c0.2 0.5 0.7 0.8 1.2 0.7 1.4-0.4 2.6-1.1 3.6-2.1 0.4-0.4 0.4-1 0-1.4-0.5-0.5-0.6-1-0.5-1.3 0.1-0.2 0.6-0.4 1.3-0.2 0.5 0.1 1.1-0.2 1.2-0.7 0.2-0.7 0.3-1.4 0.3-2.1s-0.2-1.4-0.4-2.1zM24 27c-2.2 0-4-1.8-4-4s1.8-4 4-4c2.2 0 4 1.8 4 4s-1.8 4-4 4z"></path>
<path d="M14 23c0-1.2 0.2-2.3 0.6-3.3 0-0.1 0-0.1 0-0.2 0 0 0.1-0.1 0.1-0.1 0.5-1.2 1.1-2.2 1.9-3.1 0.1-0.4 0.2-0.7 0.3-1.1 0-0.3 0-0.6-0.2-0.8s-0.5-0.4-0.8-0.4c-1.1 0-2.1-0.4-2.9-1h6c0.6 0 1-0.4 1-1s-0.4-1-1-1h-0.2v-0.2c0-1.8-0.6-3.4-1.6-4.8l-0.7 2.5c-0.1 0.4-0.5 0.7-1 0.7-0.1 0-0.2 0-0.3 0-0.5-0.2-0.8-0.7-0.7-1.2l1.2-4.1c0-0.3-0.2-0.6-0.5-0.8-2.6-1.3-5.7-1.3-8.3 0-0.4 0-0.5 0.4-0.6 0.7l1.2 4.1c0.2 0.5-0.2 1.1-0.7 1.2-0.1 0-0.2 0-0.3 0-0.4 0-0.8-0.3-1-0.7l-0.6-2.4c-1 1.4-1.6 3-1.6 4.8v0.2h-0.3c-0.6 0-1 0.4-1 1s0.4 1 1 1h2v1c0 2.2 0.9 4.2 2.4 5.5-0.2 1.4-1.1 2.6-2.5 3-2.5 0.7-4.4 2.9-5 5.7-0.1 0.5 0 0.9 0.3 1.3 0.4 0.3 0.8 0.5 1.3 0.5h15.4c-1.8-1.8-2.9-4.3-2.9-7z"></path>
</svg>
