<!-- Generated by IcoMoon.io -->
<svg version="1.1" xmlns="http://www.w3.org/2000/svg" width="32" height="32" viewBox="0 0 32 32">
<title>karget-construction-engineering</title>
<path d="M29.7 17.3l-1.7-1.7v-1.6c0-3.3-1.3-6.2-3.5-8.5l-1.5 6.7c-0.1 0.5-0.5 0.8-1 0.8-0.1 0-0.1 0-0.2 0-0.5-0.1-0.9-0.7-0.8-1.2l2-8.9c0-0.3-0.2-0.7-0.5-0.8-4-2-8.9-2-12.9 0-0.4 0.2-0.6 0.5-0.6 0.8l2 8.9c0.1 0.5-0.2 1.1-0.8 1.2-0.1 0-0.1 0-0.2 0-0.5 0-0.9-0.3-1-0.8l-1.5-6.7c-2.2 2.3-3.5 5.2-3.5 8.5v1.6l-1.7 1.7c-0.3 0.3-0.4 0.7-0.2 1.1 0.1 0.4 0.5 0.6 0.9 0.6h26c0.4 0 0.8-0.2 0.9-0.6 0.2-0.4 0.1-0.8-0.2-1.1z"></path>
<path d="M19.9 21c0.1 0.3 0.1 0.7 0.1 1 0 2.2-1.8 4-4 4s-4-1.8-4-4c0-0.3 0.1-0.7 0.1-1h-5.4c0 0.3-0.1 0.7-0.1 1 0 0.7 0.1 1.4 0.3 2.2 0.1 0.5 0.6 0.8 1.1 0.7 0.6-0.1 1.2 0.2 1.6 0.8s0.3 1.2-0.1 1.7c-0.3 0.4-0.3 1 0.1 1.3 1.1 1 2.4 1.8 3.8 2.2 0.5 0.1 1-0.1 1.2-0.6 0.2-0.6 0.8-1 1.4-1s1.2 0.4 1.4 1c0.2 0.4 0.5 0.6 0.9 0.6 0.1 0 0.2 0 0.3 0 1.4-0.4 2.7-1.2 3.8-2.2 0.4-0.4 0.4-0.9 0.1-1.3-0.4-0.5-0.4-1.2-0.1-1.7s0.9-0.9 1.6-0.8c0.5 0.1 1-0.3 1.1-0.8 0.2-0.7 0.3-1.5 0.3-2.2 0-0.3 0-0.7-0.1-1h-5.4z"></path>
</svg>
