<!-- Generated by IcoMoon.io -->
<svg version="1.1" xmlns="http://www.w3.org/2000/svg" width="32" height="32" viewBox="0 0 32 32">
<title>karget-setting</title>
<path d="M29 17.6c-1.2-0.4-2-1-2-1.6s0.8-1.3 2-1.6c0.5-0.2 0.8-0.7 0.7-1.2-0.4-1.8-1-3.4-2.1-4.9-0.3-0.4-0.8-0.6-1.3-0.3-1.1 0.6-2.2 0.7-2.6 0.3s-0.3-1.5 0.3-2.6c0.2-0.5 0.1-1-0.3-1.3-1.5-1-3.2-1.7-4.9-2.1-0.5-0.1-1 0.2-1.2 0.7-0.4 1.2-1 2-1.6 2s-1.3-0.8-1.6-2c-0.2-0.5-0.7-0.8-1.2-0.7-1.8 0.4-3.4 1-4.9 2.1-0.5 0.2-0.6 0.8-0.4 1.2 0.6 1.1 0.7 2.2 0.3 2.6s-1.4 0.3-2.6-0.3c-0.5-0.2-1-0.1-1.3 0.3-1 1.5-1.7 3.2-2.1 4.9-0.1 0.5 0.2 1 0.7 1.2 1.2 0.4 2 1 2 1.6s-0.8 1.3-2 1.6c-0.5 0.2-0.8 0.7-0.7 1.2 0.4 1.8 1 3.4 2.1 4.9 0.3 0.4 0.8 0.6 1.3 0.3 1.1-0.6 2.2-0.7 2.6-0.3s0.3 1.5-0.3 2.6c-0.2 0.5-0.1 1 0.3 1.3 1.5 1 3.2 1.7 4.9 2.1 0.5 0.1 1-0.2 1.2-0.7 0.4-1.2 1-2 1.6-2s1.3 0.8 1.6 2c0.1 0.4 0.5 0.7 1 0.7 0.1 0 0.1 0 0.2 0 1.8-0.4 3.4-1 4.9-2.1 0.4-0.3 0.6-0.8 0.3-1.3-0.6-1.1-0.7-2.2-0.3-2.6s1.5-0.3 2.6 0.3c0.5 0.2 1 0.1 1.3-0.3 1-1.5 1.7-3.2 2.1-4.9 0.2-0.4-0.1-0.9-0.6-1.1zM16 23c-3.9 0-7-3.1-7-7s3.1-7 7-7 7 3.1 7 7-3.1 7-7 7z"></path>
</svg>
