<!-- Generated by IcoMoon.io -->
<svg version="1.1" xmlns="http://www.w3.org/2000/svg" width="32" height="32" viewBox="0 0 32 32">
<title>karget-construction-wrench-tool</title>
<path d="M28.7 6.7c-0.1-0.3-0.4-0.5-0.7-0.6s-0.7 0-0.9 0.3l-2 2-1.1-0.3-0.4-1.1 2-2c0.2-0.2 0.3-0.6 0.3-0.9-0.1-0.3-0.3-0.6-0.6-0.7-2.3-0.9-4.8-0.4-6.5 1.3-1.5 1.5-2.1 3.7-1.5 5.8l-6.8 6.8c-2.1-0.6-4.3 0-5.8 1.5-1.7 1.7-2.2 4.2-1.4 6.5 0.1 0.3 0.4 0.5 0.7 0.6s0.7 0 0.9-0.3l2-2 1.1 0.3 0.4 1.1-2 2c-0.2 0.2-0.3 0.6-0.3 0.9 0.1 0.3 0.3 0.6 0.6 0.7 0.7 0.3 1.5 0.4 2.2 0.4 1.6 0 3.1-0.6 4.2-1.8 1.5-1.5 2.1-3.7 1.5-5.8l6.8-6.8c2.1 0.6 4.3 0 5.8-1.5 1.8-1.6 2.3-4.1 1.5-6.4z"></path>
</svg>
