<!-- Generated by IcoMoon.io -->
<svg version="1.1" xmlns="http://www.w3.org/2000/svg" width="40" height="32" viewBox="0 0 40 32">
<title>kazoo</title>
<path d="M29.244 13.525l-0.707-0.707c-0.090-0.091-0.216-0.147-0.354-0.147s-0.263 0.056-0.354 0.147v0l-1.767 1.768-1.768-1.768c-0.090-0.090-0.215-0.146-0.353-0.146s-0.263 0.056-0.353 0.146l-0.707 0.707c-0.090 0.090-0.146 0.215-0.146 0.353s0.056 0.263 0.146 0.353l1.767 1.768-1.767 1.767c-0.091 0.090-0.147 0.216-0.147 0.354s0.056 0.263 0.147 0.354v0l0.707 0.707c0.090 0.090 0.215 0.146 0.353 0.146s0.263-0.056 0.353-0.146l1.768-1.768 1.767 1.767c0.090 0.091 0.216 0.147 0.354 0.147s0.263-0.056 0.354-0.147v0l0.707-0.707c0.091-0.090 0.147-0.216 0.147-0.354s-0.056-0.263-0.147-0.354l-1.768-1.768 1.768-1.768c0.090-0.090 0.146-0.215 0.146-0.353s-0.056-0.263-0.146-0.353v0zM38.063 8h-7.957c-1.221-0.618-2.581-1-4.043-1s-2.822 0.382-4.043 1h-6.837c-0.783 0-1.539 0.112-2.254 0.322l0.057-0.014-11.473 3.278c-0.844 0.247-1.451 1.014-1.451 1.923 0 0 0 0 0 0v0 4.982c0 0 0 0 0 0 0 0.909 0.606 1.676 1.437 1.919l0.014 0.004 11.473 3.277c0.658 0.196 1.415 0.308 2.197 0.308 0 0 0 0 0 0h6.837c1.221 0.618 2.581 1 4.043 1s2.822-0.382 4.043-1h7.957c1.105 0 2-0.895 2-2v0-12c0-1.105-0.895-2-2-2v0zM15.183 22c-0 0-0.001 0-0.002 0-0.586 0-1.153-0.084-1.689-0.242l0.042 0.011-11.473-3.277v-4.982l11.473-3.278c0.493-0.146 1.060-0.231 1.647-0.231 0.001 0 0.001 0 0.002 0h4.177c-1.426 1.583-2.298 3.69-2.298 6s0.872 4.417 2.305 6.008l-0.007-0.008zM26.063 23c-3.866 0-7-3.134-7-7s3.134-7 7-7c3.866 0 7 3.134 7 7v0c-0.004 3.864-3.136 6.996-7 7h-0zM38.063 22h-5.297c1.426-1.583 2.298-3.69 2.298-6s-0.872-4.417-2.305-6.008l0.007 0.008h5.297z"></path>
</svg>
