<!-- Generated by IcoMoon.io -->
<svg version="1.1" xmlns="http://www.w3.org/2000/svg" width="40" height="32" viewBox="0 0 40 32">
<title>kazoo-solid</title>
<path d="M38 8h-5.964c-1.219-0.618-2.578-1-4.036-1s-2.817 0.382-4.036 1h-8.843c-0.783 0-1.54 0.112-2.255 0.322l0.057-0.014-11.472 3.278c-0.844 0.247-1.451 1.014-1.451 1.923 0 0 0 0 0 0v0 4.982c0 0 0 0 0 0 0 0.909 0.606 1.676 1.437 1.919l0.014 0.004 11.472 3.277c0.659 0.196 1.415 0.308 2.198 0.308h8.843c1.219 0.618 2.578 1 4.036 1s2.817-0.382 4.036-1h5.964c1.105 0 2-0.895 2-2v0-12c0-1.105-0.895-2-2-2v0zM28 22c-3.314 0-6-2.686-6-6s2.686-6 6-6c3.314 0 6 2.686 6 6v0c0 3.314-2.686 6-6 6v0zM31.182 13.525l-0.707-0.707c-0.090-0.091-0.216-0.147-0.354-0.147s-0.263 0.056-0.354 0.147v0l-1.767 1.768-1.768-1.768c-0.090-0.090-0.215-0.146-0.353-0.146s-0.263 0.056-0.353 0.146l-0.707 0.707c-0.090 0.090-0.146 0.215-0.146 0.353s0.056 0.263 0.146 0.353l1.767 1.768-1.767 1.767c-0.091 0.090-0.147 0.216-0.147 0.354s0.056 0.263 0.147 0.354v0l0.707 0.707c0.090 0.090 0.215 0.146 0.353 0.146s0.263-0.056 0.353-0.146l1.768-1.768 1.767 1.767c0.090 0.091 0.216 0.147 0.354 0.147s0.263-0.056 0.354-0.147v0l0.707-0.707c0.091-0.090 0.147-0.216 0.147-0.354s-0.056-0.263-0.147-0.354v0l-1.768-1.768 1.767-1.768c0.090-0.090 0.146-0.215 0.146-0.353s-0.056-0.263-0.146-0.353v0z"></path>
</svg>
