<!-- Generated by IcoMoon.io -->
<svg version="1.1" xmlns="http://www.w3.org/2000/svg" width="40" height="32" viewBox="0 0 40 32">
<title>kerning-solid</title>
<path d="M26.034 0h-1.063c-0 0-0 0-0 0-0.216 0-0.4 0.137-0.47 0.329l-0.001 0.003-11.018 31c-0.018 0.050-0.029 0.107-0.029 0.168 0 0.276 0.224 0.5 0.5 0.5 0 0 0.001 0 0.001 0h1.062c0 0 0 0 0 0 0.216 0 0.4-0.137 0.47-0.329l0.001-0.003 11.018-31c0.018-0.050 0.029-0.107 0.029-0.167 0-0.276-0.224-0.5-0.5-0.5-0 0-0.001 0-0.001 0h0zM19 6h-3.164c-0.438 0-0.81 0.282-0.945 0.674l-0.002 0.007-4.889 12.487-4.889-12.487c-0.137-0.399-0.51-0.681-0.947-0.681h-3.164c-0.552 0-0.999 0.448-0.999 1 0 0.114 0.019 0.224 0.054 0.326l-0.002-0.007 6.579 17.325c0.276 0.795 1.019 1.356 1.893 1.356 0 0 0 0 0 0h2.947c0 0 0 0 0 0 0.874 0 1.617-0.561 1.889-1.342l0.004-0.014 6.579-17.325c0.033-0.095 0.052-0.205 0.052-0.319 0-0.552-0.447-1-0.999-1h-0zM39.947 24.681l-6.579-17.325c-0.276-0.795-1.019-1.356-1.893-1.356-0 0-0 0-0 0h-2.947c-0 0-0 0-0 0-0.874 0-1.617 0.561-1.889 1.342l-0.004 0.014-6.579 17.325c-0.033 0.095-0.052 0.205-0.052 0.319 0 0.552 0.447 1 0.999 1h3.163c0.438-0 0.81-0.282 0.945-0.674l0.002-0.007 0.909-2.319h7.961l0.908 2.319c0.137 0.399 0.51 0.681 0.947 0.681h3.164c0.552-0 0.999-0.448 0.999-1 0-0.114-0.019-0.224-0.054-0.326l0.002 0.007zM27.977 18l2.023-5.168 2.023 5.168z"></path>
</svg>
