<!-- Generated by IcoMoon.io -->
<svg version="1.1" xmlns="http://www.w3.org/2000/svg" width="40" height="32" viewBox="0 0 40 32">
<title>kerning</title>
<path d="M26.034 0h-1.063c-0 0-0 0-0 0-0.216 0-0.4 0.137-0.47 0.329l-0.001 0.003-11.018 31c-0.018 0.050-0.029 0.107-0.029 0.168 0 0.276 0.224 0.5 0.5 0.5 0 0 0.001 0 0.001 0h1.062c0 0 0 0 0 0 0.216 0 0.4-0.137 0.47-0.329l0.001-0.003 11.018-31c0.018-0.050 0.029-0.107 0.029-0.167 0-0.276-0.224-0.5-0.5-0.5-0 0-0.001 0-0.001 0h0zM17.846 6h-1.064c-0 0-0 0-0.001 0-0.213 0-0.395 0.133-0.467 0.321l-0.001 0.003-6.314 16.863-6.313-16.863c-0.073-0.191-0.255-0.324-0.468-0.324-0 0-0.001 0-0.001 0h-1.066c-0.276 0-0.5 0.224-0.5 0.5 0 0.063 0.012 0.123 0.033 0.178l-0.001-0.003 7.112 19c0.073 0.191 0.255 0.325 0.468 0.325 0 0 0 0 0 0h1.471c0.213-0 0.395-0.134 0.467-0.322l0.001-0.003 7.113-19c0.020-0.052 0.032-0.112 0.032-0.175 0-0.276-0.224-0.5-0.5-0.5-0 0-0 0-0 0h0zM38.316 25.325l-7.113-19c-0.073-0.191-0.255-0.325-0.468-0.325h-1.471c-0 0-0 0-0 0-0.213 0-0.395 0.134-0.467 0.322l-0.001 0.003-7.113 19c-0.020 0.052-0.032 0.112-0.032 0.175 0 0.276 0.224 0.5 0.5 0.5h1.066c0.213-0 0.395-0.134 0.467-0.322l0.001-0.003 2.126-5.675h8.375l2.125 5.675c0.073 0.191 0.255 0.325 0.468 0.325 0 0 0 0 0 0h1.066c0 0 0.001 0 0.001 0 0.276 0 0.5-0.224 0.5-0.5 0-0.063-0.012-0.123-0.033-0.178l0.001 0.003zM26.563 18l3.438-9.188 3.438 9.188z"></path>
</svg>
