<!-- Generated by IcoMoon.io -->
<svg version="1.1" xmlns="http://www.w3.org/2000/svg" width="32" height="32" viewBox="0 0 32 32">
<title>key-skeleton</title>
<path d="M20.586 8.586c-0.781 0.781-0.781 2.047 0 2.829s2.047 0.781 2.829 0c0.781-0.781 0.781-2.047 0-2.829s-2.047-0.781-2.829 0zM24.586 4.586c-0.781 0.781-0.781 2.047 0 2.829s2.047 0.781 2.829 0 0.781-2.047 0-2.829c-0.781-0.781-2.047-0.781-2.829 0zM28 0h-8c-2.209 0-4 1.791-4 4v8c0 0.741 0.215 1.425 0.566 2.020l-16.419 16.419c-0.195 0.195-0.195 0.512 0 0.707l0.707 0.707c0.195 0.195 0.512 0.195 0.707 0l3.044-3.044 2.9 2.9c0.385 0.385 1.012 0.389 1.402 0l2.804-2.804c0.387-0.387 0.387-1.014 0-1.402l-2.9-2.9 1.794-1.795 2.9 2.9c0.385 0.385 1.012 0.389 1.402 0l2.804-2.804c0.387-0.387 0.387-1.014 0-1.402l-2.9-2.9 3.17-3.17c0.595 0.351 1.279 0.566 2.020 0.566h8c2.209 0 4-1.791 4-4v-7.999c0.001-2.209-1.79-4-3.999-4zM9.607 28.205l-1.402 1.402-2.199-2.199 1.402-1.402 2.199 2.199zM15.607 22.205l-1.402 1.402-2.199-2.199 1.402-1.402 2.199 2.199zM30 12c0 1.102-0.898 2-2 2h-8c-1.102 0-2-0.898-2-2v-8c0-1.103 0.898-2 2-2h8c1.102 0 2 0.897 2 2v8z"></path>
</svg>
