<!-- Generated by IcoMoon.io -->
<svg version="1.1" xmlns="http://www.w3.org/2000/svg" width="32" height="32" viewBox="0 0 32 32">
<title>key-skeleton-solid</title>
<path d="M28 0h-8c-2.209 0-4 1.791-4 4v9.6l-15.707 15.707c-0.391 0.391-0.391 1.024 0 1.414l0.986 0.986c0.391 0.391 1.024 0.391 1.414 0l2.266-2.266 2.257 2.257c0.391 0.391 1.024 0.391 1.414 0l2.697-2.697c0.391-0.391 0.391-1.024 0-1.414l-2.257-2.257 1.929-1.929 2.307 2.307c0.391 0.391 1.024 0.391 1.414 0l0.986-0.986c0.391-0.391 0.391-1.024 0-1.414l-2.307-2.307 5-5h9.6c2.209 0 4-1.791 4-4v-8c0-2.209-1.791-4-4-4zM23.414 11.414c-0.781 0.781-2.047 0.781-2.829 0s-0.781-2.047 0-2.828c0.781-0.781 2.047-0.781 2.829 0s0.781 2.047 0 2.828zM27.414 7.414c-0.781 0.781-2.047 0.781-2.829 0s-0.781-2.047 0-2.828c0.781-0.781 2.047-0.781 2.829 0s0.781 2.047 0 2.828z"></path>
</svg>
