<!-- Generated by IcoMoon.io -->
<svg version="1.1" xmlns="http://www.w3.org/2000/svg" width="32" height="32" viewBox="0 0 32 32">
<title>key</title>
<path d="M21 2c4.971 0 9 4.029 9 9s-4.029 9-9 9c-1.186 0-2.317-0.23-3.354-0.646l-2.646 2.646h-3v4h-4v4h-6v-5l10.646-10.646c-0.416-1.037-0.646-2.168-0.646-3.354 0-4.971 4.029-9 9-9zM21 0c-6.074 0-11 4.923-11 11 0 0.957 0.122 1.897 0.362 2.809l-9.923 9.923c-0.271 0.271-0.439 0.646-0.439 1.061v0 5.707c0 0.828 0.672 1.5 1.5 1.5h7c0.828 0 1.5-0.672 1.5-1.5v-2.5h2.5c0.828 0 1.5-0.672 1.5-1.5v-2.5h1.207c0.398 0 0.779-0.158 1.061-0.439l1.923-1.923c0.912 0.241 1.852 0.362 2.809 0.362 6.074 0 11-4.923 11-11 0-6.074-4.923-11-11-11zM24 6.75c0.689 0 1.25 0.561 1.25 1.25s-0.561 1.25-1.25 1.25-1.25-0.561-1.25-1.25 0.561-1.25 1.25-1.25zM24 5c-1.657 0-3 1.343-3 3s1.343 3 3 3 3-1.343 3-3-1.343-3-3-3z"></path>
</svg>
