<!-- Generated by IcoMoon.io -->
<svg version="1.1" xmlns="http://www.w3.org/2000/svg" width="36" height="32" viewBox="0 0 36 32">
<title>keyboard-solid</title>
<path d="M33 28h-30c-1.657 0-3-1.343-3-3v-18c0-1.657 1.343-3 3-3h30c1.657 0 3 1.343 3 3v18c0 1.657-1.343 3-3 3zM8 11.25v-2.5c0-0.414-0.336-0.75-0.75-0.75h-2.5c-0.414 0-0.75 0.336-0.75 0.75v2.5c0 0.414 0.336 0.75 0.75 0.75h2.5c0.414 0 0.75-0.336 0.75-0.75zM14 11.25v-2.5c0-0.414-0.336-0.75-0.75-0.75h-2.5c-0.414 0-0.75 0.336-0.75 0.75v2.5c0 0.414 0.336 0.75 0.75 0.75h2.5c0.414 0 0.75-0.336 0.75-0.75zM20 11.25v-2.5c0-0.414-0.336-0.75-0.75-0.75h-2.5c-0.414 0-0.75 0.336-0.75 0.75v2.5c0 0.414 0.336 0.75 0.75 0.75h2.5c0.414 0 0.75-0.336 0.75-0.75zM26 11.25v-2.5c0-0.414-0.336-0.75-0.75-0.75h-2.5c-0.414 0-0.75 0.336-0.75 0.75v2.5c0 0.414 0.336 0.75 0.75 0.75h2.5c0.414 0 0.75-0.336 0.75-0.75zM32 11.25v-2.5c0-0.414-0.336-0.75-0.75-0.75h-2.5c-0.414 0-0.75 0.336-0.75 0.75v2.5c0 0.414 0.336 0.75 0.75 0.75h2.5c0.414 0 0.75-0.336 0.75-0.75zM11 17.25v-2.5c0-0.414-0.336-0.75-0.75-0.75h-2.5c-0.414 0-0.75 0.336-0.75 0.75v2.5c0 0.414 0.336 0.75 0.75 0.75h2.5c0.414 0 0.75-0.336 0.75-0.75zM17 17.25v-2.5c0-0.414-0.336-0.75-0.75-0.75h-2.5c-0.414 0-0.75 0.336-0.75 0.75v2.5c0 0.414 0.336 0.75 0.75 0.75h2.5c0.414 0 0.75-0.336 0.75-0.75zM23 17.25v-2.5c0-0.414-0.336-0.75-0.75-0.75h-2.5c-0.414 0-0.75 0.336-0.75 0.75v2.5c0 0.414 0.336 0.75 0.75 0.75h2.5c0.414 0 0.75-0.336 0.75-0.75zM29 17.25v-2.5c0-0.414-0.336-0.75-0.75-0.75h-2.5c-0.414 0-0.75 0.336-0.75 0.75v2.5c0 0.414 0.336 0.75 0.75 0.75h2.5c0.414 0 0.75-0.336 0.75-0.75zM8 23.25v-2.5c0-0.414-0.336-0.75-0.75-0.75h-2.5c-0.414 0-0.75 0.336-0.75 0.75v2.5c0 0.414 0.336 0.75 0.75 0.75h2.5c0.414 0 0.75-0.336 0.75-0.75zM26 23.25v-2.5c0-0.414-0.336-0.75-0.75-0.75h-14.5c-0.414 0-0.75 0.336-0.75 0.75v2.5c0 0.414 0.336 0.75 0.75 0.75h14.5c0.414 0 0.75-0.336 0.75-0.75zM32 23.25v-2.5c0-0.414-0.336-0.75-0.75-0.75h-2.5c-0.414 0-0.75 0.336-0.75 0.75v2.5c0 0.414 0.336 0.75 0.75 0.75h2.5c0.414 0 0.75-0.336 0.75-0.75z"></path>
</svg>
