<!-- Generated by IcoMoon.io -->
<svg version="1.1" xmlns="http://www.w3.org/2000/svg" width="32" height="32" viewBox="0 0 32 32">
<title>keynote</title>
<path d="M31.578 17.156l-3.025-6.050c-0.336-0.661-1.010-1.106-1.789-1.106h-18.764v-1c0-2.486 1.828-4.537 4.209-4.92 0.434 1.121 1.516 1.92 2.791 1.92h4c1.657 0 3-1.343 3-3s-1.343-3-3-3h-4c-1.336 0-2.454 0.879-2.842 2.085-3.459 0.422-6.157 3.344-6.157 6.915v1h-0.764c-0.779 0-1.453 0.445-1.784 1.094l-0.005 0.011-3.025 6.050c-0.266 0.521-0.422 1.136-0.422 1.787 0 0 0 0.001 0 0.001v-0 3.056c0 1.104 0.896 2 2 2h10v6h-3.5c-0.276 0-0.5 0.224-0.5 0.5v1c0 0.276 0.224 0.5 0.5 0.5h15c0.276 0 0.5-0.224 0.5-0.5v-1c0-0.276-0.224-0.5-0.5-0.5h-3.5v-6h10c1.104 0 2-0.896 2-2v-3.056c0-0.621-0.144-1.234-0.422-1.789zM15 2h4c0.551 0 1 0.449 1 1s-0.449 1-1 1h-4c-0.551 0-1-0.449-1-1s0.449-1 1-1zM5.236 12h21.528l3 6h-27.528l3-6zM18 30h-4v-6h4v6zM30 22h-28v-2h28v2z"></path>
</svg>
