<!-- Generated by IcoMoon.io -->
<svg version="1.1" xmlns="http://www.w3.org/2000/svg" width="32" height="32" viewBox="0 0 32 32">
<title>keynote-solid</title>
<path d="M23 28h-5v-4h-4v4h-5c-0.553 0-1 0.448-1 1v2c0 0.552 0.447 1 1 1h14c0.552 0 1-0.448 1-1v-2c0-0.552-0.448-1-1-1zM31.789 17.578l-3.236-6.472c-0.336-0.661-1.010-1.106-1.789-1.106h-17.764c0-2.351 1.638-4.316 3.918-4.847 0.539 0.522 1.272 0.847 2.082 0.847h4c1.657 0 3-1.343 3-3s-1.343-3-3-3h-4c-1.397 0-2.56 0.959-2.894 2.251-3.495 0.856-6.106 3.993-6.106 7.749h-0.764c-0.779 0-1.453 0.445-1.784 1.094l-0.005 0.011-3.236 6.472c-0.133 0.261-0.211 0.568-0.211 0.894v1.528c0 1.104 0.896 2 2 2h28c1.104 0 2-0.896 2-2v-1.528c0-0.31-0.073-0.616-0.211-0.894z"></path>
</svg>
