<!-- Generated by IcoMoon.io -->
<svg version="1.1" xmlns="http://www.w3.org/2000/svg" width="32" height="32" viewBox="0 0 32 32">
<title>khanda</title>
<path d="M25.988 4.125c-0.14-0.078-0.307-0.124-0.485-0.124-0 0-0 0-0 0h0c-0.267 0-0.532 0.107-0.725 0.313-0.169 0.179-0.274 0.42-0.274 0.687 0 0.198 0.058 0.382 0.157 0.537l-0.002-0.004c1.031 1.635 1.575 3.524 1.575 5.463-0.012 3.328-1.673 6.418-4.454 8.276l-4.789 3.334v-1.256l2.753-2.256c0.245-0.262 0.313-0.631 0.176-0.955l-0.491-1.078c2.115-1.204 3.559-3.453 3.559-6.062 0-2.549-1.376-4.758-3.412-5.982l0.326-0.715c0.136-0.321 0.078-0.721-0.223-1.002l-3.687-3.301-3.687 3.301c-0.297 0.277-0.361 0.676-0.223 1.002l0.326 0.715c-2.036 1.224-3.412 3.433-3.412 5.982 0 2.609 1.443 4.858 3.559 6.062l-0.491 1.078c-0.137 0.324-0.069 0.692 0.176 0.955l2.753 2.256v1.244l-4.787-3.333c-2.767-1.848-4.428-4.937-4.439-8.261 0-1.942 0.544-3.832 1.575-5.467 0.242-0.385 0.15-0.861-0.162-1.192-0.188-0.201-0.459-0.3-0.731-0.3-0.181 0-0.362 0.044-0.521 0.131-4.908 2.678-7.322 8.659-5.093 14.328 0.442 1.124 1.118 2.149 1.904 3.066l3.498 4.085c0.195 0.228 0.475 0.349 0.759 0.349 0.159 0 0.321-0.038 0.469-0.117l4.959-2.639 1.826 1.271-2.942 2.049c-0.104-0.023-0.202-0.063-0.313-0.063-0.828 0-1.499 0.671-1.499 1.5s0.671 1.5 1.499 1.5c0.756 0 1.356-0.569 1.458-1.297l2.539-1.767v1.872c-0.587 0.348-0.999 0.961-0.999 1.694 0 1.104 0.895 2 1.999 2s1.999-0.896 1.999-2c0-0.732-0.413-1.345-0.999-1.694v-1.884l2.557 1.78c0.103 0.728 0.703 1.297 1.458 1.297 0.828 0 1.499-0.672 1.499-1.5s-0.671-1.5-1.499-1.5c-0.111 0-0.209 0.040-0.313 0.063l-2.942-2.049 1.826-1.271 4.959 2.639c0.149 0.079 0.309 0.117 0.469 0.117 0.284 0 0.564-0.121 0.759-0.349l3.282-3.832c1.179-1.376 2.125-2.969 2.578-4.724 1.351-5.229-1.028-10.454-5.635-12.969zM7.233 23.741l-2.977-3.476c-0.711-0.831-1.236-1.671-1.561-2.497-1.318-3.352-0.713-6.933 1.382-9.51-0.197 0.824-0.309 1.771-0.309 2.744 0 0.002 0 0.004 0 0.007v-0c0.014 3.992 2.006 7.699 5.296 9.895l1.518 1.057-3.348 1.782zM18.746 6.836c1.349 0.896 2.241 2.427 2.241 4.164 0 1.797-0.961 3.363-2.388 4.244l-0.767-1.683c-0.547-1.533-0.547-3.19 0-4.723l0.914-2.003zM15.991 2.684l1.741 1.558-1.741 3.819-0.024-0.052-1.718-3.766 1.742-1.559zM13.382 15.244c-1.427-0.881-2.388-2.447-2.388-4.244 0-1.738 0.893-3.268 2.241-4.164l0.913 2.004c0.547 1.533 0.547 3.189 0 4.723l-0.766 1.683zM15.991 19.584l-1.74-1.426 1.739-3.819 0.023 0.051 1.717 3.768-1.739 1.426zM29.689 16.594c-0.344 1.331-1.071 2.651-2.161 3.923l-2.761 3.223-3.348-1.782 1.47-1.024c3.332-2.225 5.329-5.938 5.344-9.939 0-0.919-0.102-1.829-0.303-2.714 1.84 2.27 2.538 5.297 1.759 8.313z"></path>
</svg>
