<!-- Generated by IcoMoon.io -->
<svg version="1.1" xmlns="http://www.w3.org/2000/svg" width="32" height="32" viewBox="0 0 32 32">
<title>khanda-solid</title>
<path d="M25.988 4.125c-0.398-0.219-0.898-0.146-1.21 0.189-0.169 0.179-0.274 0.42-0.274 0.687 0 0.198 0.058 0.382 0.157 0.537l-0.002-0.004c1.031 1.635 1.575 3.524 1.575 5.463-0.012 3.328-1.673 6.418-4.454 8.276l-4.789 3.334v-1.256l2.753-2.256c0.245-0.262 0.313-0.631 0.176-0.955l-0.491-1.078c2.115-1.204 3.559-3.453 3.559-6.062 0-2.549-1.376-4.758-3.412-5.982l0.326-0.715c0.146-0.346 0.058-0.739-0.223-1.002l-3.687-3.301-3.687 3.301c-0.281 0.263-0.369 0.657-0.223 1.002l0.326 0.715c-2.036 1.224-3.412 3.433-3.412 5.982 0 2.609 1.443 4.858 3.559 6.062l-0.491 1.078c-0.137 0.324-0.069 0.692 0.176 0.955l2.753 2.256v1.244l-4.787-3.333c-2.767-1.848-4.428-4.937-4.439-8.261 0-1.942 0.544-3.832 1.575-5.467 0.242-0.385 0.15-0.861-0.162-1.192-0.313-0.334-0.855-0.388-1.251-0.169-4.908 2.678-7.322 8.659-5.093 14.328 0.442 1.124 1.118 2.149 1.904 3.066l3.498 4.085c0.304 0.356 0.815 0.453 1.228 0.233l4.959-2.639 1.826 1.271-2.942 2.049c-0.104-0.023-0.202-0.063-0.313-0.063-0.828 0-1.499 0.671-1.499 1.5s0.671 1.5 1.499 1.5c0.756 0 1.356-0.569 1.458-1.297l2.539-1.767v1.872c-0.587 0.348-0.999 0.961-0.999 1.694 0 1.104 0.895 2 1.999 2s1.999-0.896 1.999-2c0-0.732-0.413-1.345-0.999-1.694v-1.884l2.557 1.78c0.103 0.728 0.703 1.297 1.458 1.297 0.828 0 1.499-0.672 1.499-1.5s-0.671-1.5-1.499-1.5c-0.111 0-0.209 0.040-0.313 0.063l-2.942-2.049 1.826-1.271 4.959 2.639c0.413 0.22 0.924 0.123 1.228-0.232l3.282-3.832c1.179-1.376 2.125-2.969 2.578-4.724 1.351-5.229-1.028-10.454-5.635-12.969zM19.989 11c0 1.394-0.718 2.62-1.802 3.336l-0.353-0.776c-0.547-1.533-0.547-3.19 0-4.723l0.489-1.074c1.004 0.728 1.666 1.903 1.666 3.236zM11.993 11c0-1.332 0.661-2.508 1.666-3.235l0.489 1.074c0.547 1.533 0.547 3.189 0 4.723l-0.353 0.776c-1.084-0.716-1.803-1.943-1.803-3.337z"></path>
</svg>
