<!-- Generated by IcoMoon.io -->
<svg version="1.1" xmlns="http://www.w3.org/2000/svg" width="38" height="32" viewBox="0 0 38 32">
<title>kidneys</title>
<path d="M15.525 14.053l-3.508-1.846c0.297-0.573 0.666-1.129 1.178-1.634 2.297-2.265 2.613-6.267 0.458-8.682-1.119-1.252-2.635-1.891-4.158-1.891-1.352 0-2.708 0.502-3.796 1.524-4.819 4.527-6.781 11.194-5.116 17.4 1.303 4.854 4.719 5.076 5.673 5.076 4.867 0 6.203-4.986 5.491-7.632-0.271-1.016-0.373-1.395-0.313-2.232l3.242 1.706c0.322 0.169 0.525 0.516 0.525 0.894v14.764c0 0.276 0.213 0.5 0.475 0.5h0.95c0.262 0 0.475-0.224 0.475-0.5v-14.764c0-1.136-0.61-2.175-1.575-2.683zM9.73 16.206l0.189 0.707c1.366 5.078-5.95 7.273-7.317 2.172l-0.189-0.704c-1.466-5.463 0.279-11.35 4.552-15.364 0.698-0.656 1.597-1.017 2.531-1.017 2.158 0 3.924 1.904 3.799 4.227-0.057 1.066-0.506 2.046-1.264 2.757-2.119 1.989-2.979 4.691-2.3 7.222zM32.301 1.524c-1.088-1.022-2.444-1.524-3.796-1.524-1.523 0-3.039 0.638-4.157 1.891-2.155 2.415-1.839 6.417 0.458 8.682 0.512 0.505 0.881 1.061 1.177 1.634l-3.508 1.846c-0.966 0.508-1.575 1.547-1.575 2.683v14.764c0 0.276 0.212 0.5 0.475 0.5h0.95c0.262 0 0.475-0.224 0.475-0.5v-14.764c0-0.379 0.203-0.725 0.526-0.894l3.241-1.706c0.060 0.838-0.043 1.217-0.313 2.233-0.713 2.646 0.623 7.632 5.49 7.632 0.953 0 4.369-0.222 5.672-5.076 1.666-6.206-0.297-12.874-5.116-17.4zM35.589 18.381l-0.189 0.704c-1.368 5.101-8.684 2.906-7.317-2.172l0.189-0.707c0.679-2.531-0.181-5.232-2.301-7.222-0.758-0.711-1.206-1.691-1.264-2.757-0.125-2.323 1.641-4.227 3.799-4.227 0.934 0 1.833 0.361 2.531 1.017 4.274 4.015 6.018 9.902 4.553 15.364z"></path>
</svg>
