<!-- Generated by IcoMoon.io -->
<svg version="1.1" xmlns="http://www.w3.org/2000/svg" width="40" height="32" viewBox="0 0 40 32">
<title>kidneys-solid</title>
<path d="M14.475 2.004c-2.208-2.473-6.002-2.687-8.476-0.481-3.744 3.342-5.849 7.849-5.991 12.476-0.080 2.628 0.467 4.432 0.806 5.629 0.746 2.644 3.154 4.371 5.772 4.371 4.019 0 6.853-3.842 5.779-7.632-0.065-0.231-1.442-3.152 1.629-5.892 2.474-2.206 2.689-5.999 0.481-8.471zM18.992 16.736c0-1.332-0.74-2.531-1.936-3.131l-2.24-1.12c-0.536 0.633-1.034 1.559-0.729 2.641l0.114 0.406 1.513 0.757c0.17 0.086 0.277 0.256 0.277 0.448v13.263l0.001 1.001c0 0.552 0.448 1 1 1h1c0.552 0 1-0.448 1-1l-0.001-3v-11.264zM22.927 13.605c-1.193 0.599-1.936 1.799-1.936 3.131l0.001 13.263v1.001c0 0.552 0.448 1 1 1h1c0.552 0 1-0.448 1-1l-0.001-3v-11.264c0-0.189 0.108-0.361 0.279-0.448l1.492-0.746 0.133-0.462c0.306-1.059-0.192-1.973-0.726-2.598l-2.243 1.123zM33.993 1.519c-2.472-2.201-6.271-1.984-8.474 0.494-2.204 2.474-1.983 6.267 0.494 8.47 3.1 2.758 1.656 5.697 1.61 5.857-1.093 3.786 1.728 7.661 5.77 7.661 2.609 0 5.008-1.711 5.766-4.341 0.346-1.204 0.909-3.005 0.834-5.659-0.131-4.627-2.238-9.135-6.001-12.481z"></path>
</svg>
