<!-- Generated by IcoMoon.io -->
<svg version="1.1" xmlns="http://www.w3.org/2000/svg" width="31" height="32" viewBox="0 0 31 32">
<title>kiss-beam-solid</title>
<path d="M15.5 0.5c-8.563 0-15.5 6.938-15.5 15.5s6.938 15.5 15.5 15.5 15.5-6.938 15.5-15.5-6.938-15.5-15.5-15.5zM13.063 14.244l-0.594-1.063c-0.481-0.856-1.2-1.35-1.969-1.35s-1.488 0.494-1.969 1.35l-0.594 1.063c-0.263 0.463-0.975 0.25-0.931-0.281 0.206-2.631 2.013-4.463 3.5-4.463s3.294 1.831 3.5 4.463c0.031 0.531-0.681 0.75-0.944 0.281zM19 24.75c0 1.2-1.794 2.594-4.469 2.75-0.531 0.050-0.756-0.738-0.225-0.962l1.063-0.45c0.812-0.344 1.3-0.844 1.3-1.344s-0.488-1-1.3-1.344l-1.063-0.45c-0.375-0.156-0.381-0.762 0-0.925l1.063-0.45c0.813-0.344 1.3-0.844 1.3-1.344s-0.488-1-1.3-1.344l-1.063-0.45c-0.537-0.225-0.3-1.031 0.225-0.962 2.675 0.156 4.469 1.55 4.469 2.75 0 0.813-0.837 1.706-2.2 2.25 1.363 0.569 2.2 1.462 2.2 2.275zM23.063 14.244l-0.594-1.063c-0.481-0.856-1.2-1.35-1.969-1.35s-1.488 0.494-1.969 1.35l-0.594 1.063c-0.256 0.456-0.975 0.25-0.931-0.281 0.206-2.631 2.012-4.463 3.5-4.463s3.294 1.831 3.5 4.463c0.031 0.531-0.681 0.75-0.944 0.281z"></path>
</svg>
