<!-- Generated by IcoMoon.io -->
<svg version="1.1" xmlns="http://www.w3.org/2000/svg" width="31" height="32" viewBox="0 0 31 32">
<title>kiss</title>
<path d="M15.5 0.5c-8.563 0-15.5 6.938-15.5 15.5s6.938 15.5 15.5 15.5 15.5-6.938 15.5-15.5-6.938-15.5-15.5-15.5zM15.5 29.5c-7.444 0-13.5-6.056-13.5-13.5s6.056-13.5 13.5-13.5 13.5 6.056 13.5 13.5-6.056 13.5-13.5 13.5zM19 19.25c0-1.2-1.8-2.594-4.469-2.75-0.238-0.025-0.463 0.15-0.512 0.387-0.056 0.238 0.069 0.481 0.294 0.575l1.056 0.45c0.812 0.344 1.3 0.844 1.3 1.344s-0.488 1-1.294 1.344l-1.063 0.45c-0.356 0.15-0.375 0.762 0 0.925l1.056 0.45c0.812 0.344 1.3 0.844 1.3 1.344s-0.488 1-1.294 1.344l-1.063 0.45c-0.225 0.094-0.35 0.337-0.294 0.575 0.050 0.225 0.256 0.387 0.488 0.387h0.031c2.675-0.156 4.469-1.55 4.469-2.75 0-0.813-0.837-1.706-2.2-2.25 1.356-0.569 2.194-1.462 2.194-2.275zM10.5 11c-1.106 0-2 0.894-2 2s0.894 2 2 2 2-0.894 2-2-0.894-2-2-2zM20.5 11c-1.106 0-2 0.894-2 2s0.894 2 2 2 2-0.894 2-2-0.894-2-2-2z"></path>
</svg>
