<!-- Generated by IcoMoon.io -->
<svg version="1.1" xmlns="http://www.w3.org/2000/svg" width="32" height="32" viewBox="0 0 32 32">
<title>kiss-wink-heart</title>
<path d="M31.225 24.519c-0.325-0.85-0.95-1.519-1.712-1.988 0.938-1.988 1.488-4.188 1.488-6.531 0-8.563-6.938-15.5-15.5-15.5s-15.5 6.938-15.5 15.5 6.938 15.5 15.5 15.5c2.256 0 4.387-0.506 6.325-1.381 0.594 0.725 1.544 1.113 2.544 0.856l4.088-1.056c2.344-0.613 3.644-3.113 2.769-5.4zM20.2 25.15l0.863 3.119c-1.7 0.781-3.575 1.231-5.563 1.231-7.444 0-13.5-6.056-13.5-13.5s6.056-13.5 13.5-13.5 13.5 6.056 13.5 13.5c0 2.119-0.5 4.119-1.375 5.9-0.063-0.006-1.163-1.9-3.506-1.9-2.619 0-4.656 2.488-3.919 5.15zM27.95 27.981l-4.088 1.056c-0.25 0.069-0.531-0.081-0.613-0.35l-1.125-4.069c-0.325-1.181 0.431-2.394 1.675-2.587 1.106-0.175 2.125 0.594 2.413 1.625l0.113 0.413 0.419-0.106c0.894-0.231 2.169 0.106 2.613 1.275 0.45 1.175-0.219 2.431-1.406 2.744zM19 19.25c0-1.2-1.794-2.594-4.469-2.75-0.238-0.025-0.463 0.15-0.512 0.387-0.056 0.238 0.069 0.481 0.294 0.575l1.056 0.45c0.812 0.344 1.294 0.844 1.294 1.344s-0.481 1-1.294 1.344l-1.063 0.45c-0.356 0.15-0.375 0.762 0 0.925l1.056 0.45c0.813 0.344 1.294 0.844 1.294 1.344s-0.481 1-1.294 1.344l-1.063 0.45c-0.225 0.094-0.35 0.337-0.294 0.575 0.050 0.225 0.256 0.387 0.488 0.387h0.031c2.675-0.156 4.469-1.55 4.469-2.75 0-0.813-0.837-1.706-2.2-2.25 1.369-0.569 2.206-1.462 2.206-2.275zM10.5 11c-1.106 0-2 0.894-2 2s0.894 2 2 2 2-0.894 2-2-0.894-2-2-2zM25.238 13.881c-0.25-1.575-2.137-2.631-3.738-2.631s-3.494 1.056-3.738 2.631c-0.113 0.681 0.706 1.15 1.238 0.675l0.594-0.531c0.925-0.825 2.887-0.825 3.813 0l0.594 0.531c0.538 0.469 1.35 0.012 1.238-0.675z"></path>
</svg>
