<!-- Generated by IcoMoon.io -->
<svg version="1.1" xmlns="http://www.w3.org/2000/svg" width="32" height="32" viewBox="0 0 32 32">
<title>kiss-wink-heart-solid</title>
<path d="M31.319 25.156c-0.5-1.3-1.969-1.969-3.319-1.619l-0.525 0.137-0.144-0.525c-0.369-1.337-1.688-2.281-3.063-2.063-1.575 0.25-2.538 1.788-2.125 3.288l1.431 5.162c0.094 0.331 0.438 0.531 0.775 0.444l5.188-1.344c1.506-0.394 2.356-1.988 1.781-3.481zM20.219 24.906c-0.35-1.269-0.144-2.625 0.563-3.731 1.856-2.894 6.169-2.844 7.988 0.269 0.4 0.006 0.788 0.087 1.163 0.181 0.681-1.744 1.069-3.637 1.069-5.625 0-8.563-6.938-15.5-15.5-15.5s-15.5 6.938-15.5 15.5 6.938 15.5 15.5 15.5c2.212 0 4.306-0.469 6.213-1.306-0.019-0.044-1.494-5.288-1.494-5.288zM10.5 15c-1.106 0-2-0.894-2-2s0.894-2 2-2 2 0.894 2 2-0.894 2-2 2zM18 24.75c0 1.2-1.794 2.594-4.469 2.75-0.531 0.050-0.756-0.738-0.225-0.962l1.063-0.45c0.813-0.344 1.3-0.844 1.3-1.344s-0.488-1-1.3-1.344l-1.063-0.45c-0.375-0.156-0.356-0.769 0-0.925l1.063-0.45c0.813-0.344 1.3-0.844 1.3-1.344s-0.488-1-1.3-1.344l-1.063-0.45c-0.55-0.231-0.287-1.038 0.225-0.962 2.675 0.156 4.469 1.55 4.469 2.75 0 0.813-0.837 1.706-2.2 2.25 1.363 0.569 2.2 1.462 2.2 2.275zM19 13.563c-0.519 0.463-1.35 0.025-1.238-0.675 0.25-1.575 2.137-2.631 3.744-2.631s3.494 1.056 3.744 2.631c0.106 0.694-0.706 1.144-1.238 0.675l-0.594-0.531c-0.925-0.825-2.887-0.825-3.813 0l-0.606 0.531z"></path>
</svg>
