<!-- Generated by IcoMoon.io -->
<svg version="1.1" xmlns="http://www.w3.org/2000/svg" width="40" height="32" viewBox="0 0 40 32">
<title>kite</title>
<path d="M38 0h-16.406c-0.931 0-1.738 0.644-1.95 1.55l-5.219 22.613-5.512 5.512c-0.656 0.65-1.912 0.125-1.912-0.794v-6.594l0.75 0.575c0.463 0.356 1.012 0.544 1.581 0.544 1.469 0 2.669-1.244 2.669-2.769v-3.262c0-1.525-1.2-2.769-2.669-2.769-0.575 0-1.119 0.188-1.581 0.544l-0.75 0.575v-1.725c0-2.763-2.237-5-5-5h-1.5c-0.275 0-0.5 0.225-0.5 0.5v1c0 0.275 0.225 0.5 0.5 0.5h1.5c1.656 0 3 1.344 3 3v1.713l-0.75-0.575c-0.462-0.356-1.013-0.544-1.581-0.544-1.469 0.006-2.669 1.25-2.669 2.775v3.262c0 1.525 1.2 2.769 2.669 2.769 0.575 0 1.119-0.188 1.581-0.544l0.75-0.575v6.444c0 1.606 1.144 3.056 2.737 3.25 0.969 0.112 1.906-0.212 2.588-0.894l5.513-5.512 22.612-5.219c0.906-0.212 1.55-1.019 1.55-1.95v-16.4c0-1.106-0.894-2-2-2zM3.038 21.269c-0.444 0.337-1.038-0.025-1.038-0.637v-3.262c0-0.613 0.594-0.975 1.038-0.637l2.962 2.269 2.963-2.269c0.444-0.337 1.037 0.025 1.037 0.637v3.262c0 0.613-0.594 0.975-1.037 0.637l-2.963-2.269zM36.587 2l-6.837 6.838-6.837-6.838zM21.306 3.225l7.031 7.025-11.244 11.244zM18.506 22.906l11.244-11.244 7.025 7.025zM38 17.087l-6.837-6.838 6.837-6.838z"></path>
</svg>
