<!-- Generated by IcoMoon.io -->
<svg version="1.1" xmlns="http://www.w3.org/2000/svg" width="40" height="32" viewBox="0 0 40 32">
<title>kite-solid</title>
<path d="M7.109 19.739l3.336 2.224c0.664 0.443 1.555-0.034 1.555-0.832v-4.263c0-0.799-0.89-1.275-1.555-0.832l-2.946 1.964v-4c0-3.037-2.463-5.5-5.5-5.5h-1c-0.552 0-1 0.447-1 1v1c0 0.553 0.448 1 1 1h1c1.381 0 2.5 1.119 2.5 2.5v4l-2.945-1.964c-0.665-0.443-1.555 0.034-1.555 0.832v4.263c0 0.799 0.89 1.275 1.555 0.832l3.336-2.224c0.312-0.21 0.696-0.336 1.109-0.336s0.797 0.125 1.116 0.34l-0.007-0.005zM38.487 0.098c-0.16-0.041-0.314-0.098-0.487-0.098h-16.409c-0.148 0-0.284 0.042-0.422 0.072l8.672 8.672 8.646-8.647zM20.707 20.707c-0.195 0.195-0.512 0.195-0.707 0l-0.707-0.707c-0.195-0.195-0.195-0.512 0-0.707l9.134-9.134-8.732-8.733c-0.013 0.044-0.041 0.079-0.052 0.124l-4.922 21.332c-0.024 0.106-0.027 0.209-0.034 0.312l-5.521 5.521c-0.614 0.614-1.664 0.179-1.664-0.689v-5.622l-1.5-1-1.5 1v5.304c0 1.034 0.316 2.065 0.981 2.857 1.655 1.971 4.311 1.766 5.804 0.271l5.519-5.519c0.104-0.008 0.207-0.012 0.314-0.036l21.332-4.922c0.045-0.011 0.081-0.039 0.124-0.052l-8.734-8.732-9.134 9.134zM39.902 1.512l-8.647 8.646 8.672 8.672c0.031-0.139 0.072-0.275 0.072-0.422v-16.409c0-0.173-0.057-0.328-0.098-0.488z"></path>
</svg>
