<!-- Generated by IcoMoon.io -->
<svg version="1.1" xmlns="http://www.w3.org/2000/svg" width="36" height="32" viewBox="0 0 36 32">
<title>kiwi-bird-solid</title>
<path d="M35.988 13.624c-0.198-3.786-3.596-6.624-7.386-6.624h-0.586c-3.301 0-6.516-1.016-9.234-2.89-2.624-1.81-6.003-2.601-9.576-1.794-1.126 0.254-9.212 2.574-9.207 11.684 0.003 4.434 2.417 8.3 5.999 10.376v4.624c0 0.552 0.447 1 1 1h1c0.552 0 1-0.448 1-1v-3.391c0.96 0.247 1.963 0.391 3 0.391 0.34 0 0.668-0.046 1-0.074v3.074c0 0.552 0.447 1 1 1h1c0.553 0 1-0.448 1-1v-3.714c0.89-0.316 1.742-0.712 2.521-1.219 2.859-1.863 6.096-3.066 9.508-3.066 1.593 0 1.001-0.019 1.441-0.049l4.651 8.527c0.179 0.327 0.519 0.521 0.878 0.521 0.082 0 0.165-0.010 0.247-0.031 0.443-0.113 0.753-0.512 0.753-0.969 0 0 0.009-15.015-0.010-15.376zM28.998 15.5c-0.828 0-1.5-0.672-1.5-1.5s0.672-1.5 1.5-1.5 1.5 0.671 1.5 1.5c0 0.828-0.672 1.5-1.5 1.5zM33.998 25.078l-2.491-4.567c0.945-0.364 1.796-0.913 2.491-1.624v6.191z"></path>
</svg>
