<!-- Generated by IcoMoon.io -->
<svg version="1.1" xmlns="http://www.w3.org/2000/svg" width="36" height="32" viewBox="0 0 36 32">
<title>kiwi-bird</title>
<path d="M28.999 12.5c-0.828 0-1.5 0.671-1.5 1.5s0.672 1.5 1.5 1.5 1.5-0.672 1.5-1.5c0-0.829-0.672-1.5-1.5-1.5zM35.163 17.251c0.571-1.079 0.896-2.308 0.827-3.627-0.198-3.786-3.596-6.624-7.386-6.624h-0.586c-3.301 0-6.516-1.016-9.234-2.89-1.928-1.33-4.264-2.11-6.784-2.11-0.91 0-1.844 0.101-2.792 0.316-4.435 1.002-7.989 4.615-8.931 9.064-1.163 5.497 1.45 10.521 5.723 12.997v5.123c0 0.276 0.224 0.5 0.5 0.5h1c0.276 0 0.5-0.224 0.5-0.5v-4.183c1.251 0.442 2.598 0.683 4 0.683 0.684 0 1.348-0.071 2-0.182v3.682c0 0.276 0.224 0.5 0.5 0.5h1c0.276 0 0.5-0.224 0.5-0.5v-4.215c0.889-0.317 1.742-0.711 2.521-1.219 2.859-1.863 6.097-3.066 9.509-3.066h0.969c0.161 0 0.312-0.038 0.471-0.049l4.653 8.527c0.178 0.328 0.517 0.521 0.877 0.521 0.094 0 0.188-0.012 0.281-0.040 0.451-0.133 0.75-0.563 0.717-1.031l-0.835-11.678zM31.509 20.51c0.659-0.254 1.261-0.604 1.806-1.034l0.358 5.004-2.164-3.971zM32.627 17.441c-0.954 1.005-2.242 1.559-3.628 1.559h-0.969c-3.581 0-7.148 1.141-10.601 3.391-1.616 1.053-3.493 1.609-5.429 1.609-3.029 0-5.863-1.352-7.773-3.708s-2.636-5.454-1.992-8.499c0.777-3.676 3.758-6.7 7.415-7.526 0.783-0.177 1.574-0.267 2.351-0.267 2.029 0 3.982 0.607 5.649 1.756 3.077 2.122 6.662 3.244 10.369 3.244h0.586c2.835 0 5.252 2.121 5.389 4.728 0.073 1.39-0.412 2.709-1.365 3.713z"></path>
</svg>
