<!-- Generated by IcoMoon.io -->
<svg version="1.1" xmlns="http://www.w3.org/2000/svg" width="36" height="32" viewBox="0 0 36 32">
<title>knife-kitchen-solid</title>
<path d="M16.72 13.537l-16.416 15.827c-0.545 0.526-0.326 1.421 0.406 1.656 7.115 2.287 14.96 0.501 20.263-4.612l3.815-3.678c0.405-0.391 0.405-1.024 0-1.414l-8.068-7.778zM35.392 2.707l-2.201-2.121c-0.81-0.781-2.124-0.781-2.934 0l-12.019 11.588 7.006 6.755 2.147-1.732c0.389-0.375 0.608-0.884 0.608-1.414v-2.782l7.393-7.464c0.81-0.781 0.81-2.047 0-2.829zM27.765 9.354c-0.405 0.391-1.062 0.391-1.467 0s-0.405-1.024 0-1.414 1.062-0.391 1.467 0 0.405 1.024 0 1.414zM31.547 5.707c-0.405 0.391-1.062 0.391-1.467 0s-0.405-1.024 0-1.414 1.062-0.391 1.467 0 0.405 1.024 0 1.414z"></path>
</svg>
