<!-- Generated by IcoMoon.io -->
<svg version="1.1" xmlns="http://www.w3.org/2000/svg" width="36" height="32" viewBox="0 0 36 32">
<title>knife-kitchen</title>
<path d="M35.415 4.121l-3.477-3.536c-0.39-0.391-0.901-0.586-1.412-0.586s-1.022 0.195-1.411 0.586l-28.828 28.423c-0.496 0.497-0.324 1.385 0.333 1.606 2.612 0.877 5.537 1.386 8.432 1.386 4.56 0 9.046-1.262 12.117-4.334l6.278-6.253c0.733-0.729 0.761-1.899 0.132-2.698l0.724-4.302 7.112-7.464c0.78-0.781 0.78-2.048 0-2.829zM19.834 26.225c-2.434 2.434-6.263 3.775-10.783 3.775-2.052 0-4.161-0.274-6.186-0.798l16.354-16.399 6.896 7.166-6.282 6.256zM26.378 13.591l-0.656 3.141-5.085-5.284c3.023-2.892 9.878-9.447 9.889-9.447l3.523 3.543-7.671 8.049zM27 8c-0.552 0-1 0.447-1 1s0.448 1 1 1 1-0.447 1-1-0.448-1-1-1zM29 6c0 0.553 0.448 1 1 1s1-0.447 1-1-0.448-1-1-1-1 0.447-1 1z"></path>
</svg>
