<!-- Generated by IcoMoon.io -->
<svg version="1.1" xmlns="http://www.w3.org/2000/svg" width="28" height="32" viewBox="0 0 28 32">
<title>lambda-solid</title>
<path d="M26.5 24h-2.719l-11.431-20.957c-0.346-0.626-1.003-1.042-1.756-1.042h-9.094c-0.828 0-1.5 0.671-1.5 1.5v3c0 0.828 0.672 1.5 1.5 1.5h6.719l0.289 0.531-8.305 19.379c-0.424 0.989 0.302 2.091 1.379 2.091h3.264c0.6 0 1.143-0.358 1.379-0.909l5.939-13.857 7.486 13.724c0.346 0.626 1.003 1.042 1.756 1.043h5.094c0.828 0 1.5-0.672 1.5-1.5v-3c0-0.829-0.672-1.5-1.5-1.5z"></path>
</svg>
