<!-- Generated by IcoMoon.io -->
<svg version="1.1" xmlns="http://www.w3.org/2000/svg" width="28" height="32" viewBox="0 0 28 32">
<title>lambda</title>
<path d="M27.5 28h-4.539c-0.195 0-0.372-0.113-0.454-0.291l-11.33-24.547c-0.325-0.692-1.015-1.162-1.816-1.162h-8.861c-0.276 0-0.5 0.224-0.5 0.5v1c0 0.276 0.224 0.5 0.5 0.5h8.539c0.195 0 0.373 0.113 0.454 0.291l0.487 1.055-9.941 23.962c-0.137 0.329 0.105 0.692 0.462 0.692h1.085c0 0 0 0 0 0 0.207 0 0.384-0.125 0.46-0.304l0.001-0.003 9.073-21.878 9.703 21.024c0.325 0.692 1.015 1.162 1.816 1.162h4.861c0.276 0 0.5-0.224 0.5-0.5v-1c0-0.276-0.224-0.5-0.5-0.5z"></path>
</svg>
