<!-- Generated by IcoMoon.io -->
<svg version="1.1" xmlns="http://www.w3.org/2000/svg" width="24" height="32" viewBox="0 0 24 32">
<title>lamp-floor</title>
<path d="M23.836 11.212l-4.286-10c-0.314-0.719-1.018-1.212-1.838-1.212-0 0-0 0-0.001 0h-11.424c-0 0-0 0-0.001 0-0.82 0-1.524 0.493-1.833 1.199l-0.005 0.013-4.286 10c-0.102 0.232-0.162 0.503-0.162 0.788 0 1.104 0.894 1.999 1.998 2h9v12h-2c-2.193 0-4.258 1.451-4.908 3.45-0.059 0.175-0.093 0.376-0.093 0.585 0 0.424 0.14 0.815 0.376 1.13l-0.003-0.005c0.374 0.511 0.971 0.839 1.644 0.841h11.969c0.674-0.002 1.27-0.33 1.64-0.835l0.004-0.006c0.233-0.31 0.372-0.701 0.372-1.125 0-0.209-0.034-0.41-0.097-0.598l0.004 0.013c-0.654-1.999-2.717-3.449-4.908-3.449h-2v-12h9c1.104-0.001 1.998-0.896 1.998-2 0-0.285-0.060-0.556-0.167-0.801l0.005 0.013zM15 28c1.349 0 2.615 0.871 2.984 2h-11.99c0.391-1.199 1.654-2 3.006-2zM2 12l4.288-10h11.424l4.288 10z"></path>
</svg>
