<!-- Generated by IcoMoon.io -->
<svg version="1.1" xmlns="http://www.w3.org/2000/svg" width="28" height="32" viewBox="0 0 28 32">
<title>lamp-solid</title>
<path d="M27.844 13.213l-4.844-12c-0.294-0.738-0.975-1.212-1.725-1.212h-13.738c-0.713 0-1.362 0.425-1.688 1.106l-5.65 12c-0.625 1.331 0.287 2.894 1.688 2.894h24.231c1.35 0 2.262-1.469 1.725-2.787zM9.894 18c-2.331 2.325-3.894 6.175-3.894 8.8 0 1.775 0.719 3.394 1.906 4.644 0.356 0.375 0.869 0.556 1.388 0.556h9.412c0.519 0 1.031-0.181 1.387-0.556 1.188-1.256 1.906-2.869 1.906-4.644 0-2.625-1.563-6.475-3.894-8.8h-8.213z"></path>
</svg>
