<!-- Generated by IcoMoon.io -->
<svg version="1.1" xmlns="http://www.w3.org/2000/svg" width="26" height="32" viewBox="0 0 26 32">
<title>lamp</title>
<path d="M25.856 14.863l-4.494-13.5c-0.281-0.825-0.913-1.363-1.613-1.363h-12.75c-0.662 0-1.269 0.481-1.563 1.244l-5.25 13.5c-0.581 1.494 0.263 3.256 1.563 3.256h5.794c-2.15 2.488-3.544 5.994-3.544 8.475 0 1.631 0.606 3.144 1.638 4.381 0.619 0.744 1.631 1.144 2.669 1.144h9.394c1.038 0 2.050-0.4 2.669-1.144 1.031-1.238 1.637-2.744 1.637-4.381 0-2.481-1.394-5.988-3.544-8.475h5.787c1.256 0 2.1-1.65 1.606-3.137zM20 26.475c0 1.1-0.406 2.175-1.175 3.1-0.212 0.256-0.656 0.425-1.125 0.425h-9.394c-0.469 0-0.912-0.169-1.125-0.425-0.769-0.925-1.175-2-1.175-3.1 0-2.606 1.938-6.625 4.4-8.475h5.194c2.463 1.85 4.4 5.869 4.4 8.475zM23.587 16h-21.175c-0.269 0-0.456-0.262-0.369-0.512 0-0.006 0.006-0.012 0.006-0.019l5.244-13.469h12.169l4.494 13.494v0.006c0.087 0.25-0.106 0.5-0.369 0.5z"></path>
</svg>
