<!-- Generated by IcoMoon.io -->
<svg version="1.1" xmlns="http://www.w3.org/2000/svg" width="32" height="32" viewBox="0 0 32 32">
<title>lamp-desk</title>
<path d="M30.901 4h-7.83l-2.536-2.536c-0.905-0.905-2.155-1.464-3.536-1.464-2.761 0-5 2.239-5 5 0 1.381 0.56 2.631 1.464 3.536v0l0.293 0.293-6.464 6.464c-0.181 0.182-0.294 0.432-0.294 0.709 0 0.099 0.014 0.195 0.041 0.285l-0.002-0.007 2.836 9.721h-4.875c-2.193 0-4.258 1.451-4.908 3.45-0.058 0.173-0.092 0.373-0.092 0.581 0 0.425 0.141 0.818 0.378 1.133l-0.003-0.005c0.374 0.51 0.969 0.838 1.641 0.841h19.967c0.673-0.003 1.268-0.331 1.638-0.835l0.004-0.006c0.232-0.31 0.372-0.702 0.372-1.125 0-0.209-0.034-0.41-0.097-0.598l0.004 0.013c-0.654-1.999-2.717-3.449-4.904-3.449h-7.041l-2.834-9.713 6.046-6.044 0.829 0.829v7.83c0 0.001 0 0.002 0 0.003 0 0.605 0.491 1.096 1.096 1.096 0.003 0 0.006 0 0.009-0h-0c0.001 0 0.001 0 0.002 0 0.301 0 0.573-0.124 0.768-0.324l3.76-3.76c0.777 0.661 1.764 1.084 2.865 1.084 2.484-0.003 4.497-2.016 4.5-4.5v-0c0-1.101-0.422-2.088-1.083-2.867l3.759-3.758c0.691-0.694 0.202-1.875-0.775-1.875zM19 28c1.35 0 2.615 0.871 2.984 2h-19.989c0.391-1.199 1.654-2 3.006-2zM24.5 15c-0.551-0.001-1.059-0.184-1.467-0.494l0.006 0.004 3.471-3.471c0.305 0.402 0.489 0.91 0.489 1.46v0c0 1.381-1.119 2.5-2.5 2.5v0zM18 16.721v-6.478l-3.121-3.121c-0.533-0.541-0.861-1.284-0.861-2.104 0-1.657 1.343-3 3-3 0.82 0 1.563 0.329 2.104 0.862l-0-0 3.121 3.121h6.478z"></path>
</svg>
