<!-- Generated by IcoMoon.io -->
<svg version="1.1" xmlns="http://www.w3.org/2000/svg" width="32" height="32" viewBox="0 0 32 32">
<title>lamp-desk-solid</title>
<path d="M30.901 4h-9.245l-2.829-2.829c-0.719-0.699-1.703-1.131-2.787-1.131-2.209 0-4 1.791-4 4 0 1.084 0.431 2.067 1.131 2.788l-0.001-0.001 0.688 0.688-7.421 7.423c-0.272 0.271-0.439 0.647-0.439 1.061 0 0.147 0.021 0.288 0.060 0.422l-0.003-0.011 3.313 11.59h-5.369c-1.776 0-3.434 1.158-3.956 2.76-0.201 0.615 0.324 1.24 0.973 1.24h21.968c0.649 0 1.174-0.625 0.973-1.24-0.519-1.602-2.181-2.76-3.957-2.76h-7.511l-3.301-11.563 6.795-6.799 0.018 0.018v9.245c0 0.977 1.181 1.466 1.875 0.775l13.801-13.801c0.691-0.694 0.202-1.875-0.775-1.875zM23.732 16.646c0.608 0.53 1.408 0.854 2.284 0.854 1.924 0 3.483-1.559 3.483-3.483 0-0.876-0.323-1.676-0.857-2.288l0.004 0.004z"></path>
</svg>
