<!-- Generated by IcoMoon.io -->
<svg version="1.1" xmlns="http://www.w3.org/2000/svg" width="24" height="32" viewBox="0 0 24 32">
<title>lamp-floor-solid</title>
<path d="M16 28h-2v-12.019h-4v12.019h-2c-1.776 0-3.434 1.158-3.956 2.76-0.201 0.615 0.324 1.24 0.973 1.24h13.968c0.649 0 1.174-0.625 0.973-1.24-0.519-1.602-2.18-2.76-3.956-2.76zM23.836 11.213l-4.286-10c-0.314-0.719-1.018-1.212-1.838-1.212-0 0-0 0-0 0h-11.424c-0 0-0 0-0 0-0.82 0-1.525 0.493-1.833 1.2l-0.005 0.013-4.286 10c-0.102 0.232-0.162 0.503-0.162 0.787 0 1.104 0.894 1.999 1.998 2h20c1.104-0.001 1.998-0.896 1.998-2 0-0.285-0.059-0.555-0.167-0.8l0.005 0.013z"></path>
</svg>
