<!-- Generated by IcoMoon.io -->
<svg version="1.1" xmlns="http://www.w3.org/2000/svg" width="36" height="32" viewBox="0 0 36 32">
<title>landmark</title>
<path d="M35.351 5.757l-16.649-5.629c-0.226-0.085-0.464-0.128-0.703-0.128s-0.476 0.043-0.703 0.128l-16.649 5.629c-0.382 0.146-0.649 0.51-0.649 0.936v0 2.307c0 0.553 0.448 1 1 1h34c0.553 0 1-0.447 1-1v-2.307c0-0.417-0.259-0.79-0.649-0.936zM34 8h-32v-0.589l16-5.411 16 5.41v0.59zM35.5 30h-1.5v-4c0-1.104-1.023-2-2.286-2h-0.714v-12h-2v12h-6v-12h-2v12h-6v-12h-2v12h-6v-12h-2v12h-0.714c-1.263 0-2.286 0.896-2.286 2v4h-1.5c-0.276 0-0.5 0.224-0.5 0.5v1c0 0.276 0.224 0.5 0.5 0.5h35c0.276 0 0.5-0.224 0.5-0.5v-1c0-0.276-0.224-0.5-0.5-0.5zM32 30h-28v-3.92c0.044-0.032 0.138-0.080 0.286-0.080h27.429c0.148 0 0.242 0.047 0.286 0.080v3.92z"></path>
</svg>
