<!-- Generated by IcoMoon.io -->
<svg version="1.1" xmlns="http://www.w3.org/2000/svg" width="32" height="32" viewBox="0 0 32 32">
<title>landmark-solid</title>
<path d="M31.351 5.757l-14.649-5.629c-0.209-0.081-0.45-0.128-0.702-0.128s-0.494 0.047-0.716 0.132l0.014-0.005-14.649 5.629c-0.382 0.146-0.649 0.51-0.649 0.936v0 2.307c0 0.553 0.448 1 1 1h30c0.552 0 1-0.447 1-1v-2.307c0-0.417-0.259-0.79-0.649-0.936zM4 12v10h-1c-0.553 0-1 0.448-1 1v3h28v-3c0-0.552-0.448-1-1-1h-1v-10h-4v10h-6v-10h-4v10h-6v-10h-4zM31 28h-30c-0.552 0-1 0.448-1 1v2c0 0.552 0.448 1 1 1h30c0.552 0 1-0.448 1-1v-2c0-0.552-0.448-1-1-1z"></path>
</svg>
