<!-- Generated by IcoMoon.io -->
<svg version="1.1" xmlns="http://www.w3.org/2000/svg" width="32" height="32" viewBox="0 0 32 32">
<title>landmark-alt</title>
<path d="M31.5 30h-1.5v-5c0-0.55-0.45-1-1-1h-1v-8h1.5c0.275 0 0.5-0.225 0.5-0.5v-1c0-0.275-0.225-0.5-0.5-0.5h-1.5c0-6.281-4.85-11.438-11-11.95v-1.55c0-0.275-0.225-0.5-0.5-0.5h-1c-0.275 0-0.5 0.225-0.5 0.5v1.55c-6.15 0.513-11 5.669-11 11.95h-1.5c-0.275 0-0.5 0.225-0.5 0.5v1c0 0.275 0.225 0.5 0.5 0.5h1.5v8h-1c-0.55 0-1 0.45-1 1v5h-1.5c-0.275 0-0.5 0.225-0.5 0.5v1c0 0.275 0.225 0.5 0.5 0.5h31c0.275 0 0.5-0.225 0.5-0.5v-1c0-0.275-0.225-0.5-0.5-0.5zM16 4c5.512 0 10 4.488 10 10h-20c0-5.512 4.488-10 10-10zM26 16v8h-5v-8h5zM19 16v8h-6v-8h6zM6 16h5v8h-5v-8zM28 30h-24v-4h24v4z"></path>
</svg>
