<!-- Generated by IcoMoon.io -->
<svg version="1.1" xmlns="http://www.w3.org/2000/svg" width="32" height="32" viewBox="0 0 32 32">
<title>landmark-alt-solid</title>
<path d="M3 16h26c0.55 0 1-0.45 1-1v-2c0-0.55-0.45-1-1-1h-1.181c-0.844-5.019-4.8-8.975-9.819-9.819v-1.181c0-0.55-0.45-1-1-1h-2c-0.55 0-1 0.45-1 1v1.181c-5.019 0.844-8.975 4.8-9.819 9.819h-1.181c-0.55 0-1 0.45-1 1v2c0 0.55 0.45 1 1 1zM31 28h-1v-1c0-0.55-0.45-1-1-1h-1v-8h-4v8h-6v-8h-4v8h-6v-8h-4v8h-1c-0.55 0-1 0.45-1 1v1h-1c-0.55 0-1 0.45-1 1v2c0 0.55 0.45 1 1 1h30c0.55 0 1-0.45 1-1v-2c0-0.55-0.45-1-1-1z"></path>
</svg>
