<!-- Generated by IcoMoon.io -->
<svg version="1.1" xmlns="http://www.w3.org/2000/svg" width="40" height="32" viewBox="0 0 40 32">
<title>language</title>
<path d="M38.5 6h-37c-0.828 0-1.5 0.672-1.5 1.5v17c0 0.828 0.672 1.5 1.5 1.5h37c0.828 0 1.5-0.672 1.5-1.5v-17c0-0.828-0.672-1.5-1.5-1.5zM19 24h-17v-16h17v16zM38 24h-17v-16h17v16zM5.693 22h0.646c0 0 0 0 0 0 0.33 0 0.611-0.213 0.711-0.51l0.002-0.005 0.844-2.561h4.208l0.844 2.561c0.102 0.302 0.382 0.515 0.712 0.515h0.646c0.517 0 0.879-0.511 0.707-0.999l-3.697-10.5c-0.106-0.294-0.383-0.501-0.707-0.501h-1.22c0 0 0 0-0 0-0.325 0-0.602 0.207-0.706 0.496l-0.002 0.005-3.697 10.5c-0.172 0.488 0.19 0.999 0.707 0.999zM9.484 13.938c0.237-0.676 0.507-1.859 0.507-1.859h0.034s0.254 1.183 0.473 1.859l1.065 3.211h-3.144l1.065-3.211zM24 13.25v-0.5c0-0.414 0.336-0.75 0.75-0.75h4.25v-1.25c0-0.414 0.336-0.75 0.75-0.75h0.5c0.414 0 0.75 0.336 0.75 0.75v1.25h4.25c0.414 0 0.75 0.336 0.75 0.75v0.5c0 0.414-0.336 0.75-0.75 0.75h-0.981c-0.469 1.55-1.465 3.184-2.806 4.678 0.626 0.568 1.28 1.079 1.933 1.505 0.332 0.217 0.437 0.655 0.24 0.999l-0.249 0.436c-0.214 0.375-0.699 0.49-1.062 0.256-0.822-0.531-1.587-1.14-2.285-1.781-0.734 0.653-1.532 1.259-2.375 1.793-0.36 0.228-0.838 0.106-1.049-0.264l-0.248-0.434c-0.2-0.35-0.086-0.792 0.254-1.008 0.711-0.452 1.389-0.964 2.015-1.514-0.627-0.704-1.167-1.41-1.605-2.065-0.24-0.358-0.132-0.842 0.238-1.063l0.429-0.256c0.342-0.204 0.784-0.106 1.006 0.225 0.399 0.596 0.857 1.184 1.355 1.747 0.939-1.058 1.67-2.182 2.097-3.252h-7.405c-0.414 0-0.75-0.336-0.75-0.75z"></path>
</svg>
