<!-- Generated by IcoMoon.io -->
<svg version="1.1" xmlns="http://www.w3.org/2000/svg" width="40" height="32" viewBox="0 0 40 32">
<title>language-solid</title>
<path d="M9.506 14.762c-0.219-0.756-0.488-2.075-0.488-2.075h-0.031s-0.269 1.319-0.488 2.075l-0.694 2.344h2.381zM38.5 6h-17.5v20h17.5c0.831 0 1.5-0.669 1.5-1.5v-17c0-0.831-0.669-1.5-1.5-1.5zM37 13.5c0 0.412-0.337 0.75-0.75 0.75h-0.712c-0.431 1.475-1.356 2.962-2.669 4.369 0.525 0.4 1.069 0.781 1.631 1.125 0.344 0.212 0.456 0.656 0.256 1.012l-0.494 0.869c-0.212 0.369-0.681 0.488-1.044 0.269-0.788-0.488-1.531-1.006-2.212-1.556-0.681 0.544-1.419 1.069-2.212 1.556-0.363 0.219-0.831 0.1-1.044-0.269l-0.494-0.869c-0.2-0.35-0.087-0.8 0.262-1.012 0.581-0.356 1.125-0.731 1.631-1.125-0.494-0.525-0.931-1.063-1.313-1.606-0.25-0.356-0.137-0.85 0.231-1.069l0.406-0.244 0.456-0.269c0.337-0.2 0.775-0.106 1 0.213 0.313 0.437 0.675 0.875 1.087 1.306 0.844-0.887 1.487-1.806 1.875-2.7h-7.144c-0.413 0-0.75-0.338-0.75-0.75v-1c0-0.412 0.337-0.75 0.75-0.75h4v-1c0-0.412 0.337-0.75 0.75-0.75h1c0.413 0 0.75 0.338 0.75 0.75v1h4c0.413 0 0.75 0.338 0.75 0.75zM0 7.5v17c0 0.831 0.669 1.5 1.5 1.5h17.5v-20h-17.5c-0.831 0-1.5 0.669-1.5 1.5zM3.681 21.006l3.594-10.569c0.106-0.306 0.388-0.506 0.713-0.506h2.031c0.319 0 0.606 0.206 0.713 0.506l3.594 10.569c0.162 0.488-0.194 0.994-0.713 0.994h-1.431c-0.338-0-0.624-0.224-0.717-0.532l-0.001-0.005-0.588-1.994h-3.763l-0.569 1.988c-0.094 0.319-0.388 0.544-0.719 0.544h-1.431c-0.513 0-0.875-0.506-0.712-0.994z"></path>
</svg>
