<!-- Generated by IcoMoon.io -->
<svg version="1.1" xmlns="http://www.w3.org/2000/svg" width="40" height="32" viewBox="0 0 40 32">
<title>laptop-medical</title>
<path d="M39 23h-3v-17c-0.002-2.208-1.792-3.998-4-4h-24c-2.208 0.002-3.998 1.792-4 4v17h-3c-0.552 0-1 0.448-1 1v0 3c0.003 2.76 2.24 4.997 5 5h30c2.76-0.003 4.997-2.24 5-5v-3c0-0.552-0.448-1-1-1v0zM6 6c0-1.105 0.895-2 2-2v0h24c1.105 0 2 0.895 2 2v0 17h-9.554c-0.254 0-0.438 0.196-0.495 0.443-0.209 0.898-1.003 1.557-1.95 1.557-0 0-0 0-0 0h-4c-0 0-0 0-0 0-0.947 0-1.741-0.659-1.948-1.543l-0.003-0.014c-0.056-0.25-0.241-0.443-0.495-0.443h-9.554zM38 27c-0.002 1.656-1.344 2.998-3 3h-30c-1.656-0.002-2.998-1.344-3-3v-2h12.172c0.425 1.174 1.53 1.999 2.828 2h6c1.298-0 2.404-0.825 2.822-1.979l0.007-0.021h12.172zM18 19.5c0 0.276 0.224 0.5 0.5 0.5v0h3c0.276 0 0.5-0.224 0.5-0.5v0-3.5h3.5c0.276 0 0.5-0.224 0.5-0.5v0-3c0-0.276-0.224-0.5-0.5-0.5v0h-3.5v-3.5c0-0.276-0.224-0.5-0.5-0.5v0h-3c-0.276 0-0.5 0.224-0.5 0.5v0 3.5h-3.5c-0.276 0-0.5 0.224-0.5 0.5v0 3c0 0.276 0.224 0.5 0.5 0.5v0h3.5z"></path>
</svg>
