<!-- Generated by IcoMoon.io -->
<svg version="1.1" xmlns="http://www.w3.org/2000/svg" width="40" height="32" viewBox="0 0 40 32">
<title>laptop-medical-solid</title>
<path d="M14.5 14h3.5v3.5c0 0.276 0.224 0.5 0.5 0.5v0h3c0.276 0 0.5-0.224 0.5-0.5v0-3.5h3.5c0.276 0 0.5-0.224 0.5-0.5v0-3c0-0.276-0.224-0.5-0.5-0.5v0h-3.5v-3.5c0-0.276-0.224-0.5-0.5-0.5v0h-3c-0.276 0-0.5 0.224-0.5 0.5v0 3.5h-3.5c-0.276 0-0.5 0.224-0.5 0.5v0 3c0 0.276 0.224 0.5 0.5 0.5v0zM36 3c-0.005-1.655-1.345-2.995-3-3h-26c-1.655 0.005-2.995 1.345-3 3v21h32zM32 20h-24v-16h24zM39 26h-15.154c-0.046 1.238-0.919 2-2.046 2h-3.8c-1.168 0-2.063-1.092-2.048-2h-14.952c-0.552 0-1 0.448-1 1v0 1c0.007 2.206 1.794 3.993 3.999 4h32.001c2.206-0.007 3.993-1.794 4-3.999v-1.001c0-0.552-0.448-1-1-1v0z"></path>
</svg>
