<!-- Generated by IcoMoon.io -->
<svg version="1.1" xmlns="http://www.w3.org/2000/svg" width="40" height="32" viewBox="0 0 40 32">
<title>laptop-code-solid</title>
<path d="M15.939 16.353c0.391 0.391 1.024 0.391 1.414 0l0.707-0.707c0.391-0.391 0.391-1.024 0-1.414l-2.232-2.232 2.232-2.232c0.391-0.391 0.391-1.024 0-1.414l-0.707-0.707c-0.391-0.391-1.024-0.391-1.414 0l-3.646 3.646c-0.391 0.391-0.391 1.024 0 1.414l3.647 3.646zM21.94 15.647l0.707 0.707c0.391 0.391 1.024 0.391 1.414 0l3.646-3.646c0.391-0.391 0.391-1.024 0-1.414l-3.646-3.646c-0.391-0.391-1.024-0.391-1.414 0l-0.707 0.707c-0.391 0.391-0.391 1.024 0 1.414l2.232 2.232-2.232 2.232c-0.391 0.391-0.391 1.024 0 1.414zM39 26h-15.154c-0.046 1.238-0.919 2-2.046 2h-3.8c-1.168 0-2.064-1.092-2.048-2h-14.952c-0.55 0-1 0.45-1 1v1c0 2.2 1.8 4 4 4h32c2.2 0 4-1.8 4-4v-1c0-0.55-0.45-1-1-1zM36 3c0-1.65-1.35-3-3-3h-26c-1.65 0-3 1.35-3 3v21h32v-21zM32 20h-24v-16h24v16z"></path>
</svg>
