<!-- Generated by IcoMoon.io -->
<svg version="1.1" xmlns="http://www.w3.org/2000/svg" width="40" height="32" viewBox="0 0 40 32">
<title>laptop</title>
<path d="M39 23h-3v-17c0-2.206-1.795-4-4-4h-24c-2.205 0-4 1.794-4 4v17h-3c-0.552 0-1 0.448-1 1v3c0 2.757 2.243 5 5 5h30c2.758 0 5-2.243 5-5v-3c0-0.552-0.447-1-1-1zM6 6c0-1.104 0.896-2 2-2h24c1.104 0 2 0.896 2 2v17h-9.554c-0.254 0-0.439 0.196-0.495 0.443-0.202 0.891-0.999 1.557-1.951 1.557h-4c-0.952 0-1.749-0.666-1.951-1.557-0.056-0.247-0.241-0.443-0.495-0.443h-9.554v-17zM38 27c0 1.654-1.346 3-3 3h-30c-1.654 0-3-1.346-3-3v-2h12.172c0.412 1.164 1.524 2 2.828 2h6c1.305 0 2.416-0.836 2.828-2h12.172v2z"></path>
</svg>
