<!-- Generated by IcoMoon.io -->
<svg version="1.1" xmlns="http://www.w3.org/2000/svg" width="40" height="32" viewBox="0 0 40 32">
<title>laptop-code</title>
<path d="M16.646 17.353l0.707-0.707c0.195-0.195 0.195-0.512 0-0.707l-2.939-2.939 2.939-2.939c0.195-0.195 0.195-0.512 0-0.707l-0.707-0.707c-0.195-0.195-0.512-0.195-0.707 0l-4 4c-0.195 0.195-0.195 0.512 0 0.707l4 4c0.196 0.195 0.512 0.195 0.707-0.001zM22.646 16.646l0.707 0.707c0.195 0.195 0.512 0.195 0.707 0l4-4c0.195-0.195 0.195-0.512 0-0.707l-4-4c-0.195-0.195-0.512-0.195-0.707 0l-0.707 0.707c-0.195 0.195-0.195 0.512 0 0.707l2.94 2.94-2.939 2.939c-0.091 0.090-0.147 0.216-0.147 0.354s0.056 0.263 0.146 0.353v0zM39 23h-3v-17c0-2.206-1.795-4-4-4h-24c-2.205 0-4 1.794-4 4v17h-3c-0.552 0-1 0.448-1 1v3c0 2.757 2.243 5 5 5h30c2.758 0 5-2.243 5-5v-3c0-0.552-0.447-1-1-1zM6 6c0-1.104 0.896-2 2-2h24c1.104 0 2 0.896 2 2v17h-9.554c-0.254 0-0.439 0.196-0.495 0.443-0.202 0.891-0.999 1.557-1.951 1.557h-4c-0.952 0-1.749-0.666-1.951-1.557-0.056-0.247-0.241-0.443-0.495-0.443h-9.554v-17zM38 27c0 1.654-1.346 3-3 3h-30c-1.654 0-3-1.346-3-3v-2h12.172c0.412 1.164 1.524 2 2.828 2h6c1.305 0 2.416-0.836 2.828-2h12.172v2z"></path>
</svg>
