<!-- Generated by IcoMoon.io -->
<svg version="1.1" xmlns="http://www.w3.org/2000/svg" width="40" height="32" viewBox="0 0 40 32">
<title>laptop-house-solid</title>
<path d="M17 18h-4c-0.552 0-1-0.448-1-1v0-4c0-0.552 0.448-1 1-1v0h4c0.552 0 1 0.448 1 1v0 2.32c0.694-0.805 1.688-1.32 2.8-1.32h8.559l0.416-0.471c0.13-0.161 0.213-0.366 0.226-0.589l0-0.003c-0.015-0.26-0.126-0.492-0.297-0.663v0l-3.703-3.274v-6c0-0.552-0.448-1-1-1v0h-2c-0.552 0-1 0.448-1 1v0 2.456l-5.531-4.899c-0.344-0.307-1.003-0.557-1.466-0.557s-1.121 0.25-1.467 0.557l-13.238 11.719c-0.172 0.17-0.284 0.401-0.299 0.659l-0 0.003c0.012 0.224 0.093 0.427 0.223 0.589l-0.002-0.002 1.174 1.332c0.171 0.173 0.405 0.284 0.664 0.299l0.003 0c0.222-0.011 0.424-0.091 0.586-0.219l-0.002 0.002 1.354-1.195v10.258c0 1.105 0.895 2 2 2v0h11zM39.333 28h-2.333v-10c0-1.104-0.806-2-1.8-2h-14.4c-0.994 0-1.8 0.896-1.8 2v10h-2.333c-0.368 0-0.667 0.299-0.667 0.667v0 0.666c0.005 1.469 1.194 2.659 2.662 2.667h18.676c1.469-0.008 2.657-1.198 2.663-2.666v-0.667c0-0.368-0.299-0.667-0.667-0.667v0zM34 28h-12v-9h12z"></path>
</svg>
