<!-- Generated by IcoMoon.io -->
<svg version="1.1" xmlns="http://www.w3.org/2000/svg" width="40" height="32" viewBox="0 0 40 32">
<title>laptop-house</title>
<path d="M39 26h-2v-8c0-1.105-0.806-2-1.801-2h-14.404c-0.994 0-1.8 0.895-1.8 2v8h-2c-0.552 0-1 0.448-1 1v0 2.334c0.006 1.469 1.194 2.658 2.662 2.666h18.68c1.469-0.008 2.657-1.198 2.663-2.666v-2.334c0-0.552-0.448-1-1-1v0zM20.996 18h14.004v8h-14zM38 29.329c-0.001 0.368-0.296 0.666-0.663 0.671h-18.672c-0.368-0.002-0.666-0.299-0.67-0.666v-1.333h20.005zM12.33 10c-0.736 0.001-1.332 0.596-1.336 1.331v5.335c0.002 0.737 0.6 1.333 1.336 1.334h4.665c-0-0.007-0-0.016-0-0.024 0-1.476 0.796-2.766 1.981-3.465l0.019-0.010v-3.169c-0.005-0.734-0.599-1.327-1.333-1.331h-0zM16.995 16h-4v-4h4zM5.995 23v-12.5c-0.009-0.092-0.027-0.177-0.053-0.258l0.002 0.008 9.050-7.924 9 7.875v3.799h2v-2.047l2.339 2.047h1.25c0.234-0.179 0.384-0.457 0.387-0.77v-0.001c-0.016-0.284-0.133-0.539-0.316-0.73l0 0-3.656-3.205v-6.295c0-0.552-0.448-1-1-1s-1 0.448-1 1v0 4.547l-8.347-7.297c-0.175-0.154-0.406-0.247-0.658-0.247s-0.484 0.094-0.66 0.248l0.001-0.001-14.003 12.25c-0.192 0.192-0.316 0.451-0.333 0.74l-0 0.003c0 0.552 0.448 1 1 1v0c0.247-0.013 0.471-0.101 0.653-0.241l-0.003 0.002 2.342-2.051v11.047c0.004 1.655 1.345 2.996 3 3h7v-2h-7c-0.552-0-0.999-0.448-0.999-1v0z"></path>
</svg>
