<!-- Generated by IcoMoon.io -->
<svg version="1.1" xmlns="http://www.w3.org/2000/svg" width="36" height="32" viewBox="0 0 36 32">
<title>lasso</title>
<path d="M18 0c-10.094 0-18 4.832-18 11 0 2.924 1.816 5.664 5.113 7.716 0.284 0.176 0.594 0.349 0.919 0.521-0.202 1.594 1.306 2.763 2.968 2.763 0.441-0 0.863-0.082 1.252-0.232l-0.024 0.008c1.079 0.984 1.817 2.276 1.77 4.236-0.054 2.229-1.936 3.988-4.162 3.988h-5.336c-0.276 0-0.5 0.224-0.5 0.5v0 1c0 0.276 0.224 0.5 0.5 0.5v0h5.288c3.396 0 6.217-2.781 6.212-6.177 0-1.816-0.526-3.205-1.316-4.303 1.58 0.305 3.398 0.479 5.256 0.479 0.021 0 0.042-0 0.063-0h-0.003c10.094 0 18-4.832 18-11s-7.906-11-18-11zM18 20c-0.010 0-0.022 0-0.034 0-2.124 0-4.189-0.251-6.168-0.724l0.18 0.036c-0.116-1.292-1.397-2.313-2.977-2.313-0.004-0-0.010-0-0.015-0-0.684 0-1.32 0.204-1.85 0.555l0.013-0.008c-0.335-0.175-0.688-0.35-0.978-0.529-2.689-1.674-4.17-3.811-4.17-6.019 0-4.879 7.326-9 16-9s16 4.121 16 9-7.326 9-16 9z"></path>
</svg>
