<!-- Generated by IcoMoon.io -->
<svg version="1.1" xmlns="http://www.w3.org/2000/svg" width="36" height="32" viewBox="0 0 36 32">
<title>lasso-solid</title>
<path d="M18 0c-10.094 0-18 4.977-18 11.331 0 3.111 1.889 5.99 5.313 8.106 0.22 0.136 0.461 0.268 0.706 0.401 0 0.056-0.021 0.107-0.021 0.163 0 2.209 2.239 4 5 4 0.043 0 0.083-0.009 0.125-0.010 0.1 0.334 0.161 0.718 0.168 1.115l0 0.004c0 0.010 0 0.022 0 0.034 0 1.577-1.279 2.856-2.856 2.856-0.001 0-0.001 0-0.002 0h-5.434c0 0 0 0 0 0-0.551 0-0.998 0.446-1 0.996v2.008c0.002 0.551 0.449 0.996 1 0.996 0 0 0 0 0 0h5.434c3.711 0 6.8-2.951 6.86-6.649 0.002-0.065 0.003-0.141 0.003-0.218 0-0.942-0.154-1.847-0.439-2.693l0.017 0.059c0.92 0.103 1.988 0.161 3.068 0.161 0.020 0 0.040-0 0.060-0h-0.003c10.094 0 18-4.977 18-11.33s-7.906-11.331-18-11.331zM18 18.676c-0.796 0-1.577-0.051-2.35-0.125-0.726-1.489-2.525-2.551-4.65-2.551-0.003 0-0.006 0-0.009 0-0.933 0-1.816 0.217-2.601 0.603l0.035-0.015c-0.349-0.179-0.707-0.356-1.003-0.538-1.277-0.789-3.422-2.451-3.422-4.718 0-3.913 6.543-7.346 14-7.346s14 3.433 14 7.346-6.543 7.345-14 7.345z"></path>
</svg>
