<!-- Generated by IcoMoon.io -->
<svg version="1.1" xmlns="http://www.w3.org/2000/svg" width="31" height="32" viewBox="0 0 31 32">
<title>laugh-squint-solid</title>
<path d="M15.5 0.5c-8.563 0-15.5 6.938-15.5 15.5s6.938 15.5 15.5 15.5 15.5-6.938 15.5-15.5-6.938-15.5-15.5-15.5zM17.613 10.606l5-3c0.725-0.431 1.5 0.481 0.962 1.125l-2.1 2.519 2.1 2.519c0.544 0.65-0.244 1.55-0.962 1.125l-5-3c-0.481-0.294-0.481-0.994 0-1.287zM7.425 8.731c-0.537-0.644 0.237-1.556 0.962-1.125l5 3c0.488 0.294 0.488 0.994 0 1.287l-5 3c-0.719 0.425-1.5-0.475-0.963-1.125l2.1-2.519-2.1-2.519zM24.931 19.125c-0.556 4.438-4.344 7.875-8.931 7.875h-1c-4.588 0-8.375-3.438-8.931-7.875-0.075-0.594 0.394-1.125 0.994-1.125h16.875c0.6 0 1.069 0.525 0.994 1.125z"></path>
</svg>
