<!-- Generated by IcoMoon.io -->
<svg version="1.1" xmlns="http://www.w3.org/2000/svg" width="31" height="32" viewBox="0 0 31 32">
<title>laugh-wink-solid</title>
<path d="M15.5 0.5c-8.563 0-15.5 6.938-15.5 15.5s6.938 15.5 15.5 15.5 15.5-6.938 15.5-15.5-6.938-15.5-15.5-15.5zM16.756 12.881c0.25-1.575 2.137-2.631 3.744-2.631s3.494 1.056 3.744 2.631c0.106 0.694-0.712 1.144-1.238 0.675l-0.594-0.531c-0.925-0.825-2.887-0.825-3.813 0l-0.6 0.537c-0.525 0.463-1.35 0.019-1.244-0.681zM10.5 10c1.106 0 2 0.894 2 2s-0.894 2-2 2-2-0.894-2-2 0.894-2 2-2zM24.931 19.125c-0.556 4.438-4.344 7.875-8.931 7.875h-1c-4.588 0-8.375-3.438-8.931-7.875-0.075-0.594 0.394-1.125 0.994-1.125h16.875c0.6 0 1.069 0.525 0.994 1.125z"></path>
</svg>
