<!-- Generated by IcoMoon.io -->
<svg version="1.1" xmlns="http://www.w3.org/2000/svg" width="31" height="32" viewBox="0 0 31 32">
<title>laugh-wink</title>
<path d="M15.5 0.5c-8.563 0-15.5 6.938-15.5 15.5s6.938 15.5 15.5 15.5 15.5-6.938 15.5-15.5-6.938-15.5-15.5-15.5zM25.044 25.544c-1.238 1.238-2.688 2.212-4.294 2.894-1.663 0.706-3.431 1.063-5.256 1.063s-3.594-0.356-5.256-1.063c-1.606-0.681-3.050-1.656-4.294-2.894s-2.212-2.688-2.894-4.294c-0.706-1.663-1.063-3.431-1.063-5.256s0.356-3.594 1.063-5.256c0.681-1.606 1.656-3.050 2.894-4.294s2.688-2.212 4.294-2.894c1.662-0.706 3.431-1.063 5.256-1.063s3.594 0.356 5.256 1.063c1.606 0.681 3.050 1.656 4.294 2.894s2.212 2.688 2.894 4.294c0.706 1.662 1.063 3.431 1.063 5.256s-0.356 3.594-1.063 5.256c-0.675 1.613-1.65 3.056-2.894 4.294zM18 13.563l0.594-0.531c0.925-0.825 2.887-0.825 3.813 0l0.594 0.531c0.531 0.463 1.35 0.019 1.238-0.675-0.25-1.575-2.137-2.631-3.744-2.631s-3.494 1.056-3.744 2.631c-0.1 0.694 0.725 1.137 1.25 0.675zM10.5 14c1.106 0 2-0.894 2-2s-0.894-2-2-2-2 0.894-2 2 0.894 2 2 2zM23.938 18h-16.875c-0.6 0-1.069 0.525-0.994 1.125 0.55 4.438 4.338 7.875 8.931 7.875h1c4.587 0 8.375-3.438 8.931-7.875 0.075-0.6-0.394-1.125-0.994-1.125zM16 25h-1c-3.137 0-5.844-2.081-6.713-5h14.425c-0.869 2.919-3.575 5-6.713 5z"></path>
</svg>
