<!-- Generated by IcoMoon.io -->
<svg version="1.1" xmlns="http://www.w3.org/2000/svg" width="31" height="32" viewBox="0 0 31 32">
<title>laugh-solid</title>
<path d="M15.5 0.5c-8.563 0-15.5 6.938-15.5 15.5s6.938 15.5 15.5 15.5 15.5-6.938 15.5-15.5-6.938-15.5-15.5-15.5zM20.5 10c1.106 0 2 0.894 2 2s-0.894 2-2 2-2-0.894-2-2 0.894-2 2-2zM10.5 10c1.106 0 2 0.894 2 2s-0.894 2-2 2-2-0.894-2-2 0.894-2 2-2zM16 27h-1c-4.588 0-8.375-3.438-8.931-7.875-0.075-0.594 0.394-1.125 0.994-1.125h16.875c0.6 0 1.069 0.525 0.994 1.125-0.556 4.438-4.344 7.875-8.931 7.875z"></path>
</svg>
