<!-- Generated by IcoMoon.io -->
<svg version="1.1" xmlns="http://www.w3.org/2000/svg" width="31" height="32" viewBox="0 0 31 32">
<title>laugh-beam-solid</title>
<path d="M15.5 0.5c-8.563 0-15.5 6.938-15.5 15.5s6.938 15.5 15.5 15.5 15.5-6.938 15.5-15.5-6.938-15.5-15.5-15.5zM17 12.963c0.206-2.631 2.012-4.463 3.5-4.463s3.294 1.831 3.5 4.463c0.044 0.537-0.675 0.744-0.931 0.281l-0.594-1.063c-0.481-0.856-1.2-1.35-1.969-1.35s-1.488 0.494-1.969 1.35l-0.594 1.063c-0.262 0.463-0.988 0.256-0.944-0.281zM7 12.963c0.206-2.631 2.012-4.463 3.5-4.463s3.294 1.831 3.5 4.463c0.044 0.537-0.675 0.744-0.931 0.281l-0.594-1.063c-0.481-0.856-1.2-1.35-1.969-1.35s-1.488 0.494-1.969 1.35l-0.594 1.063c-0.269 0.463-0.987 0.25-0.944-0.281zM24.931 19.125c-0.556 4.438-4.344 7.875-8.931 7.875h-1c-4.588 0-8.375-3.438-8.931-7.875-0.075-0.594 0.394-1.125 0.994-1.125h16.875c0.6 0 1.069 0.525 0.994 1.125z"></path>
</svg>
