<!-- Generated by IcoMoon.io -->
<svg version="1.1" xmlns="http://www.w3.org/2000/svg" width="31" height="32" viewBox="0 0 31 32">
<title>laugh-beam</title>
<path d="M15.5 0.5c-8.563 0-15.5 6.938-15.5 15.5s6.938 15.5 15.5 15.5 15.5-6.938 15.5-15.5-6.938-15.5-15.5-15.5zM25.044 25.544c-1.238 1.238-2.688 2.212-4.294 2.894-1.663 0.706-3.431 1.063-5.256 1.063s-3.594-0.356-5.256-1.063c-1.606-0.681-3.050-1.656-4.294-2.894-1.237-1.238-2.212-2.688-2.894-4.294-0.706-1.663-1.063-3.431-1.063-5.256s0.356-3.594 1.063-5.256c0.681-1.606 1.656-3.050 2.894-4.294 1.237-1.237 2.688-2.212 4.294-2.894 1.662-0.706 3.431-1.063 5.256-1.063s3.594 0.356 5.256 1.063c1.606 0.681 3.050 1.656 4.294 2.894 1.238 1.237 2.212 2.688 2.894 4.294 0.706 1.662 1.063 3.431 1.063 5.256s-0.356 3.594-1.063 5.256c-0.675 1.613-1.65 3.056-2.894 4.294zM17.938 14.244l0.594-1.063c0.481-0.856 1.2-1.35 1.969-1.35s1.488 0.494 1.969 1.35l0.594 1.063c0.256 0.463 0.975 0.25 0.931-0.281-0.206-2.631-2.012-4.463-3.5-4.463s-3.294 1.831-3.5 4.463c-0.038 0.537 0.688 0.744 0.944 0.281zM7.938 14.244l0.594-1.063c0.481-0.856 1.2-1.35 1.969-1.35s1.488 0.494 1.969 1.35l0.594 1.063c0.256 0.463 0.975 0.25 0.931-0.281-0.206-2.631-2.013-4.463-3.5-4.463s-3.294 1.831-3.5 4.463c-0.037 0.531 0.681 0.744 0.944 0.281zM23.938 18h-16.875c-0.6 0-1.069 0.525-0.994 1.125 0.55 4.438 4.338 7.875 8.931 7.875h1c4.587 0 8.375-3.438 8.931-7.875 0.075-0.6-0.394-1.125-0.994-1.125zM16 25h-1c-3.137 0-5.844-2.081-6.713-5h14.425c-0.869 2.919-3.575 5-6.713 5z"></path>
</svg>
