<!-- Generated by IcoMoon.io -->
<svg version="1.1" xmlns="http://www.w3.org/2000/svg" width="32" height="32" viewBox="0 0 32 32">
<title>layer-plus</title>
<path d="M31.5 6h-5.5v-5.5c0-0.276-0.224-0.5-0.5-0.5h-1c-0.276 0-0.5 0.224-0.5 0.5v5.5h-5.5c-0.276 0-0.5 0.224-0.5 0.5v1c0 0.276 0.224 0.5 0.5 0.5h5.5v5.5c0 0.276 0.224 0.5 0.5 0.5h1c0.276 0 0.5-0.224 0.5-0.5v-5.5h5.5c0.276 0 0.5-0.224 0.5-0.5v-1c0-0.276-0.224-0.5-0.5-0.5zM31.077 22.919l-6.233-2.679 6.233-2.679c0.522-0.225 0.762-0.827 0.536-1.345-0.228-0.518-0.832-0.758-1.359-0.53l-14.082 6.054c-0.113 0.048-0.234 0.048-0.342 0l-13.002-5.589 12.091-5.197c0.522-0.224 0.762-0.827 0.536-1.345-0.228-0.518-0.829-0.758-1.359-0.53l-13.169 5.661c-0.563 0.241-0.926 0.794-0.926 1.412s0.363 1.171 0.923 1.411l6.233 2.679-6.231 2.678c-0.562 0.241-0.925 0.795-0.925 1.413 0 0.617 0.363 1.171 0.923 1.411l14.082 6.053c0.316 0.136 0.655 0.205 0.994 0.205s0.678-0.068 0.994-0.205l14.081-6.052c0.563-0.241 0.926-0.795 0.926-1.412 0.001-0.618-0.363-1.172-0.922-1.413zM16.171 29.92c-0.113 0.048-0.234 0.048-0.342 0l-13.002-5.589 6.923-2.976 5.256 2.259c0.316 0.136 0.655 0.205 0.994 0.205s0.677-0.068 0.994-0.205l5.258-2.26 6.924 2.976-13.004 5.589z"></path>
</svg>
