<!-- Generated by IcoMoon.io -->
<svg version="1.1" xmlns="http://www.w3.org/2000/svg" width="32" height="32" viewBox="0 0 32 32">
<title>layer-minus-solid</title>
<path d="M0.776 17.269l14.559 6.599c0.425 0.192 0.906 0.192 1.331 0l14.559-6.599c1.034-0.469 1.034-2.031 0-2.5l-14.559-6.599c-0.195-0.091-0.424-0.144-0.665-0.144s-0.47 0.053-0.675 0.149l0.010-0.004-14.559 6.599c-1.034 0.469-1.034 2.031 0 2.5zM19 4h12c0.552 0 1-0.447 1-1v-2c0-0.552-0.448-1-1-1h-12c-0.552 0-1 0.448-1 1v2c0 0.553 0.448 1 1 1zM31.224 22.756l-3.631-1.646-10.102 4.579c-0.473 0.214-0.974 0.323-1.491 0.323s-1.018-0.109-1.491-0.323l-10.102-4.579-3.631 1.646c-1.034 0.469-1.034 2.031 0 2.5l14.559 6.599c0.425 0.193 0.906 0.193 1.331 0l14.559-6.599c1.034-0.469 1.034-2.031 0-2.5z"></path>
</svg>
