<!-- Generated by IcoMoon.io -->
<svg version="1.1" xmlns="http://www.w3.org/2000/svg" width="32" height="32" viewBox="0 0 32 32">
<title>layer-group</title>
<path d="M32 16.001c0-0.624-0.363-1.184-0.923-1.426l-6.234-2.704 6.231-2.704c0.563-0.243 0.926-0.803 0.926-1.426s-0.363-1.183-0.923-1.424l-14.081-6.109c-0.631-0.278-1.357-0.278-1.992-0.001l-14.079 6.109c-0.563 0.243-0.926 0.803-0.926 1.426s0.363 1.183 0.923 1.424l6.233 2.705-6.231 2.704c-0.562 0.242-0.925 0.802-0.925 1.426s0.363 1.183 0.923 1.424l6.232 2.704-6.231 2.703c-0.562 0.244-0.925 0.803-0.925 1.427s0.363 1.183 0.923 1.424l14.082 6.11c0.293 0.13 0.634 0.206 0.994 0.207h0c0.339 0 0.678-0.069 0.994-0.207l14.081-6.109c0.563-0.243 0.926-0.802 0.926-1.426s-0.363-1.184-0.923-1.426l-6.232-2.704 6.231-2.703c0.563-0.243 0.926-0.802 0.926-1.426zM2.827 7.742l13.004-5.643c0.109-0.044 0.228-0.047 0.341 0.001l13.002 5.641-13.002 5.642c-0.113 0.048-0.234 0.048-0.342 0l-13.002-5.642zM29.173 24.259l-13.002 5.641c-0.113 0.048-0.234 0.048-0.342 0l-13.002-5.642 6.922-3.004 5.257 2.281c0.293 0.13 0.634 0.206 0.994 0.207h0c0.339 0 0.677-0.069 0.994-0.207l5.257-2.281 6.922 3.004zM16.171 21.642c-0.113 0.048-0.234 0.048-0.342 0l-13.002-5.642 6.923-3.004 5.256 2.281c0.293 0.13 0.634 0.206 0.994 0.207h0c0.339 0 0.677-0.069 0.994-0.207l5.256-2.281 6.923 3.004-13.002 5.641z"></path>
</svg>
