<!-- Generated by IcoMoon.io -->
<svg version="1.1" xmlns="http://www.w3.org/2000/svg" width="32" height="32" viewBox="0 0 32 32">
<title>layer-plus-solid</title>
<path d="M19 9h4v4c0 0.553 0.448 1 1 1h2c0.552 0 1-0.447 1-1v-4h4c0.552 0 1-0.447 1-1v-2c0-0.553-0.448-1-1-1h-4v-4c0-0.552-0.448-1-1-1h-2c-0.552 0-1 0.448-1 1v4h-4c-0.552 0-1 0.447-1 1v2c0 0.553 0.448 1 1 1zM31.224 22.756l-3.659-1.658-10.074 4.566c-0.473 0.214-0.974 0.323-1.491 0.323s-1.018-0.109-1.491-0.323l-10.074-4.566-3.659 1.658c-1.034 0.469-1.034 2.031 0 2.5l14.559 6.599c0.425 0.193 0.906 0.193 1.331 0l14.559-6.599c1.034-0.469 1.034-2.031 0-2.5zM0.776 17.244l14.559 6.599c0.425 0.192 0.906 0.192 1.331 0l11.335-5.138v-1.161c-0.957 0.274-1.954 0.456-3 0.456-5.501 0-10.045-4.042-10.857-9.315l-13.367 6.059c-1.034 0.469-1.034 2.031 0 2.5z"></path>
</svg>
