<!-- Generated by IcoMoon.io -->
<svg version="1.1" xmlns="http://www.w3.org/2000/svg" width="32" height="32" viewBox="0 0 32 32">
<title>layer-minus</title>
<path d="M32 15.826c0-0.63-0.363-1.196-0.923-1.44l-14.083-6.178c-0.629-0.277-1.359-0.277-1.988 0l-14.080 6.176c-0.563 0.246-0.926 0.811-0.926 1.441s0.363 1.196 0.923 1.44l6.233 2.734-6.231 2.733c-0.562 0.245-0.925 0.811-0.925 1.441s0.363 1.196 0.923 1.44l14.082 6.176c0.316 0.139 0.655 0.209 0.994 0.209s0.678-0.069 0.994-0.209l14.081-6.176c0.563-0.246 0.926-0.811 0.926-1.441s-0.363-1.196-0.923-1.441l-6.232-2.734 6.231-2.733c0.563-0.244 0.926-0.81 0.926-1.439zM29.176 24.174l-13.004 5.704c-0.113 0.049-0.234 0.049-0.342 0l-13.002-5.704 6.923-3.036 5.256 2.306c0.316 0.139 0.655 0.209 0.994 0.209s0.677-0.069 0.994-0.209l5.258-2.306 6.924 3.037zM16.171 21.529c-0.113 0.049-0.234 0.049-0.342 0l-13.002-5.704 13.002-5.704c0.113-0.049 0.234-0.049 0.342 0l13.002 5.704-13.002 5.704zM31.5 4h-13c-0.276 0-0.5 0.224-0.5 0.5v1c0 0.276 0.224 0.5 0.5 0.5h13c0.276 0 0.5-0.224 0.5-0.5v-1c0-0.276-0.224-0.5-0.5-0.5z"></path>
</svg>
