<!-- Generated by IcoMoon.io -->
<svg version="1.1" xmlns="http://www.w3.org/2000/svg" width="32" height="32" viewBox="0 0 32 32">
<title>layer-group-solid</title>
<path d="M0.776 9.251l14.559 6.604c0.425 0.193 0.906 0.193 1.331 0l14.559-6.604c1.034-0.469 1.034-2.033 0-2.502l-14.558-6.605c-0.195-0.091-0.424-0.145-0.665-0.145s-0.47 0.053-0.675 0.149l0.010-0.004-14.559 6.604c-1.034 0.469-1.034 2.033 0 2.503zM31.224 14.769l-3.631-1.646-10.102 4.579c-0.473 0.214-0.974 0.323-1.491 0.323s-1.018-0.109-1.491-0.323l-10.102-4.579-3.631 1.646c-1.034 0.469-1.034 2.031 0 2.5l14.559 6.599c0.425 0.192 0.906 0.192 1.331 0l14.559-6.599c1.034-0.469 1.034-2.031 0-2.5zM31.224 22.756l-3.617-1.639-10.116 4.586c-0.473 0.214-0.974 0.323-1.491 0.323s-1.018-0.109-1.491-0.323l-10.116-4.586-3.618 1.639c-1.034 0.469-1.034 2.031 0 2.5l14.559 6.599c0.425 0.193 0.906 0.193 1.331 0l14.559-6.599c1.034-0.469 1.034-2.031 0-2.5z"></path>
</svg>
