<!-- Generated by IcoMoon.io -->
<svg version="1.1" xmlns="http://www.w3.org/2000/svg" width="36" height="32" viewBox="0 0 36 32">
<title>leaf-heart-solid</title>
<path d="M34.138 0.606c-0.35-0.781-1.35-0.813-1.769-0.075-1.938 3.369-5.406 5.469-9.369 5.469h-5c-6.625 0-12 5.375-12 12 0 1.2 0.181 2.356 0.506 3.444-4.531 3.525-6.237 7.506-6.356 7.806-0.412 1.019 0.075 2.181 1.094 2.6 1.025 0.425 2.188-0.069 2.612-1.081 0.094-0.225 1.306-2.994 4.494-5.662 2.025 2.744 5.875 5.363 10.931 4.825 9.813-0.712 16.719-9.512 16.719-20.288 0-3.138-0.675-6.388-1.862-9.037zM26.913 18.4l-5.294 5.35c-0.344 0.344-0.894 0.344-1.238 0l-5.294-5.35c-1.537-1.556-1.45-4.131 0.269-5.569 1.5-1.25 3.725-1.025 5.1 0.363l0.538 0.544 0.538-0.544c1.375-1.387 3.606-1.613 5.1-0.363 1.725 1.431 1.819 4.013 0.281 5.569z"></path>
</svg>
