<!-- Generated by IcoMoon.io -->
<svg version="1.1" xmlns="http://www.w3.org/2000/svg" width="32" height="32" viewBox="0 0 32 32">
<title>leaf-oak</title>
<path d="M31.97 12.948c-0.259-2.356-2.326-3.393-2.789-3.677 0.891-3.044-0.279-4.735-1.019-5.433-0.699-0.741-2.388-1.911-5.433-1.019-0.284-0.463-1.321-2.53-3.677-2.789-2.891-0.315-4.058 1.934-5.351 4.217-1.746-1.411-3.191-1.184-3.641-1.096-4.607 0.91-3.469 7.358-3.393 8.068-2.183-0.61-4.626 0.729-4.626 4.088 0 2.414 1.792 4.555 1.337 5.762-0.828 2.298-0.725 4.383 0.241 5.899l-3.326 3.326c-0.391 0.391-0.391 1.024 0 1.414 0.195 0.196 0.451 0.293 0.707 0.293s0.512-0.098 0.707-0.293l3.326-3.326c1.515 0.966 3.601 1.068 5.899 0.241 1.207-0.456 3.348 1.337 5.762 1.337 3.359 0 4.698-2.442 4.088-4.626 0.711 0.077 7.158 1.214 8.068-3.393 0.089-0.449 0.316-1.894-1.096-3.641 2.282-1.293 4.532-2.461 4.216-5.351zM29.396 14.861c-0.372 0.402-0.762 0.631-4.696 2.874 1.463 1.778 1.409 1.706 1.596 1.945 1.32 1.692 0.284 2.829-0.654 3.365-1.5 0.858-2.509 0.515-8.701-0.123 0 0 1.644 2.346 1.691 2.429 1.023 1.781-0.666 3.003-2.783 2.517-0.974-0.224-1.999-0.786-3.125-1.099-2.313-0.651-4.399 1.049-6.246 0.168l14.229-14.229c0.391-0.391 0.391-1.024 0-1.414s-1.024-0.391-1.414 0l-14.229 14.228c-0.881-1.847 0.819-3.933 0.168-6.246-0.314-1.126-0.875-2.151-1.099-3.125-0.487-2.117 0.736-3.806 2.516-2.783 0.083 0.047 2.429 1.691 2.429 1.691-0.638-6.192-0.981-7.201-0.123-8.701 0.536-0.939 1.672-1.974 3.365-0.654 0.24 0.187 0.168 0.133 1.946 1.596 2.244-3.933 2.473-4.322 2.874-4.695 1.245-1.151 3.023-0.563 3.729 1.066 0.394 0.897 1.434 1.353 2.421 1.069 1.524-0.447 2.719-0.268 3.459 0.514 0.782 0.741 0.961 1.936 0.514 3.459-0.285 0.988 0.172 2.027 1.068 2.421 1.629 0.706 2.218 2.484 1.066 3.729z"></path>
</svg>
