<!-- Generated by IcoMoon.io -->
<svg version="1.1" xmlns="http://www.w3.org/2000/svg" width="36" height="32" viewBox="0 0 36 32">
<title>leaf-solid</title>
<path d="M34.138 0.606c-0.35-0.781-1.35-0.813-1.769-0.075-1.938 3.369-5.406 5.469-9.369 5.469h-5c-6.625 0-12 5.375-12 12 0 0.438 0.050 0.856 0.094 1.281 3.988-2.856 9.744-5.281 17.906-5.281 0.55 0 1 0.45 1 1s-0.45 1-1 1c-15.713 0-22.375 9.631-23.85 13.25-0.412 1.019 0.075 2.181 1.094 2.6 1.025 0.425 2.188-0.069 2.612-1.081 0.094-0.225 1.306-2.994 4.494-5.662 2.025 2.744 5.875 5.363 10.931 4.825 9.813-0.712 16.719-9.512 16.719-20.288 0-3.138-0.675-6.388-1.862-9.037z"></path>
</svg>
