<!-- Generated by IcoMoon.io -->
<svg version="1.1" xmlns="http://www.w3.org/2000/svg" width="32" height="32" viewBox="0 0 32 32">
<title>leaf-maple-solid</title>
<path d="M31.474 10.378l-2.328-1.396 0.616-5.549c0.077-0.69-0.506-1.273-1.196-1.196l-5.549 0.616-1.396-2.327c-0.414-0.691-1.411-0.704-1.843-0.024l-5.6 8.799 1.036-4.053c0.175-0.786-0.539-1.481-1.32-1.286l-1.607 0.864-2.831-3.208c-0.434-0.542-1.258-0.542-1.692 0l-2.831 3.208-1.608-0.863c-0.781-0.195-1.495 0.5-1.32 1.286l2.065 10.012-2.318 0.993c-0.876 0.375-0.876 1.616 0 1.992l6.422 2.753-7.588 7.587c-0.781 0.781-0.781 2.047 0 2.828 0.391 0.391 0.902 0.586 1.414 0.586s1.023-0.195 1.414-0.586l12.649-12.648-4.131 7.229 1.822 4.253c0.376 0.876 1.617 0.876 1.992 0l0.993-2.318 10.012 2.065c0.786 0.174 1.481-0.539 1.286-1.32l-0.863-1.607 3.207-2.831c0.542-0.434 0.542-1.258 0-1.692l-3.207-2.831 0.863-1.607c0.195-0.781-0.5-1.495-1.286-1.32l-4.053 1.036 8.799-5.599c0.68-0.434 0.667-1.43-0.024-1.844z"></path>
</svg>
