<!-- Generated by IcoMoon.io -->
<svg version="1.1" xmlns="http://www.w3.org/2000/svg" width="36" height="32" viewBox="0 0 36 32">
<title>leaf-heart</title>
<path d="M26.637 12.825c-0.869-0.725-2.981-1.781-5.637 0.906-2.663-2.688-4.775-1.631-5.637-0.906-1.719 1.438-1.806 4.012-0.269 5.569l5.294 5.35c0.337 0.344 0.894 0.35 1.238 0l5.294-5.35c1.531-1.556 1.438-4.131-0.281-5.569zM25.488 16.988l-4.488 4.537-4.488-4.538c-0.637-0.644-0.769-1.875 0.131-2.625 0.856-0.719 1.95-0.213 2.4 0.231l1.962 1.981 1.962-1.981c0.444-0.45 1.538-0.95 2.4-0.231 0.887 0.75 0.762 1.975 0.119 2.625zM34.138 0.606c-0.181-0.406-0.538-0.606-0.894-0.606-0.331 0-0.669 0.175-0.875 0.531-1.938 3.369-5.406 5.469-9.369 5.469h-5c-6.625 0-12 5.375-12 12 0 1.294 0.213 2.538 0.588 3.7-4.756 4.063-6.463 8.769-6.531 8.969-0.181 0.519 0.094 1.087 0.613 1.275 0.475 0.169 1.081-0.050 1.275-0.613 0.012-0.044 1.512-4.087 5.469-7.681 0.969 1.813 4.7 7.038 11.863 6.281 9.819-0.706 16.725-9.506 16.725-20.288 0-3.138-0.675-6.388-1.862-9.037zM19.063 27.944c-6.063 0.637-11.063-4.15-11.063-9.944 0-5.512 4.488-10 10-10h5c3.956 0 7.563-1.775 9.981-4.825 0.656 2.019 1.019 4.294 1.019 6.469 0 9.975-6.256 17.669-14.938 18.3z"></path>
</svg>
