<!-- Generated by IcoMoon.io -->
<svg version="1.1" xmlns="http://www.w3.org/2000/svg" width="32" height="32" viewBox="0 0 32 32">
<title>leaf-oak-solid</title>
<path d="M30.525 9.697c-0.248-0.171-0.504-0.341-0.779-0.46-0.458-0.199-0.647-0.738-0.504-1.223 0.61-2.067 0.183-3.563-0.777-4.469l0.011-0.011c-0.906-0.959-2.402-1.387-4.469-0.777-0.485 0.143-1.023-0.046-1.223-0.504-0.119-0.274-0.289-0.531-0.46-0.779-1.166-1.686-3.378-1.981-4.863-0.603-0.422 0.392-0.732 0.919-1.041 1.416-0.489 0.789-0.934 1.606-1.446 2.496-0.42-0.344-0.728-0.609-1.048-0.858-1.788-1.389-3.727-0.998-4.851 0.963-0.816 1.421-0.728 2.942-0.529 4.485 0.103 0.803 0.168 1.61 0.274 2.644-0.384-0.267-0.536-0.39-0.704-0.486-1.631-0.934-3.457-0.269-3.948 1.54-0.2 0.739-0.223 1.602-0.054 2.349 0.246 1.082 0.804 2.091 1.101 3.166 0.162 0.588 0.244 1.315 0.045 1.863-0.471 1.294-0.713 2.559-0.369 3.832l-4.304 4.304c-0.781 0.781-0.781 2.047 0 2.828 0.391 0.391 0.902 0.586 1.414 0.586s1.023-0.195 1.414-0.586l11.482-11.482-4.026 7.044c0.226-0.068 0.452-0.132 0.679-0.214 0.548-0.199 1.275-0.117 1.863 0.045 1.075 0.297 2.084 0.855 3.166 1.101 0.746 0.169 1.61 0.147 2.349-0.054 1.809-0.491 2.474-2.317 1.54-3.948-0.096-0.168-0.22-0.32-0.486-0.704 1.034 0.106 1.841 0.17 2.644 0.274 1.543 0.198 3.063 0.286 4.485-0.529 1.961-1.124 2.352-3.064 0.962-4.851-0.249-0.32-0.513-0.628-0.858-1.048 0.89-0.512 1.707-0.957 2.496-1.446 0.497-0.309 1.025-0.618 1.416-1.041 1.379-1.486 1.084-3.697-0.602-4.863z"></path>
</svg>
