<!-- Generated by IcoMoon.io -->
<svg version="1.1" xmlns="http://www.w3.org/2000/svg" width="36" height="32" viewBox="0 0 36 32">
<title>leaf</title>
<path d="M34.138 0.606c-0.181-0.406-0.538-0.606-0.894-0.606-0.331 0-0.669 0.175-0.875 0.531-1.938 3.369-5.406 5.469-9.369 5.469h-5c-6.625 0-12 5.375-12 12 0 1.306 0.213 2.556 0.6 3.731-4.769 4.081-6.513 8.856-6.544 8.938-0.181 0.519 0.094 1.094 0.613 1.275 0.494 0.175 1.087-0.069 1.275-0.613 0.025-0.075 1.494-4.069 5.475-7.669 2.025 3.769 6 6.338 10.581 6.338 0.431 0 0.856-0.025 1.275-0.069 9.819-0.712 16.725-9.506 16.725-20.288 0-3.138-0.675-6.388-1.862-9.037zM19.063 27.944c-0.369 0.038-0.725 0.056-1.063 0.056-3.956 0-7.35-2.325-8.969-5.663 3.238-2.4 7.756-4.337 13.969-4.337 0.55 0 1-0.45 1-1s-0.45-1-1-1c-6.425 0-11.188 1.938-14.675 4.4-0.194-0.775-0.325-1.569-0.325-2.4 0-5.512 4.487-10 10-10h5c3.956 0 7.563-1.775 9.981-4.825 0.656 2.019 1.019 4.294 1.019 6.469 0 9.975-6.256 17.669-14.938 18.3z"></path>
</svg>
