<!-- Generated by IcoMoon.io -->
<svg version="1.1" xmlns="http://www.w3.org/2000/svg" width="32" height="32" viewBox="0 0 32 32">
<title>leaf-maple</title>
<path d="M31.004 10.217l-1.709-1.026 0.527-4.748c0.134-1.219-0.851-2.401-2.266-2.267l-4.748 0.528-1.026-1.709c-0.369-0.614-1.016-0.986-1.732-0.996-0.662-0.001-1.373 0.346-1.758 0.95l-2.682 4.216c-0.521-1.407-2.056-1.526-2.658-1.2l-0.863 0.463-2.193-2.482c-0.386-0.482-0.964-0.769-1.601-0.769-0.627 0-1.211 0.279-1.572 0.731l-2.223 2.521-0.863-0.463c-1.155-0.624-3.131 0.539-2.732 2.332l1.838 8.918-1.5 0.644c-1.653 0.709-1.653 3.063 0 3.771l6.799 2.914-7.749 7.749c-0.391 0.391-0.391 1.024 0 1.414 0.195 0.196 0.451 0.293 0.707 0.293s0.512-0.098 0.707-0.293l7.749-7.749 2.914 6.796c0.324 0.761 1.069 1.245 1.887 1.245 0.82 0 1.561-0.488 1.887-1.244l0.641-1.499 8.904 1.837c1.489 0.331 2.989-1.076 2.436-2.5l-0.552-1.094 2.484-2.193c1.041-0.834 1.004-2.376 0.021-3.186l-2.506-2.211 0.463-0.863c0.396-0.733 0.069-2.199-1.201-2.657l4.219-2.684c1.292-0.823 1.253-2.709-0.047-3.489zM21.434 17.455c-0.953 0.607-0.314 2.092 0.785 1.813l3.924-0.925-1.084 2.019 3.777 3.344-3.777 3.343 1.111 2.070-10.582-2.151-1.379 3.001-3.23-7.534 9.727-9.727c0.391-0.391 0.391-1.024 0-1.414s-1.023-0.391-1.414 0l-9.72 9.719-7.541-3.316 3-1.286-2.102-10.556 2.019 1.085 3.416-3.708 3.276 3.708 2.088-1.122 0.010 0.029-1.006 3.934c-0.278 1.096 1.199 1.739 1.813 0.785l5.523-8.541 1.686 2.809 6.080-0.611-0.668 6.023 2.811 1.774-8.543 5.435z"></path>
</svg>
