<!-- Generated by IcoMoon.io -->
<svg version="1.1" xmlns="http://www.w3.org/2000/svg" width="32" height="32" viewBox="0 0 32 32">
<title>lemon</title>
<path d="M30.565 1.435c-0.953-0.953-2.131-1.435-3.193-1.435-0.546 0-1.061 0.127-1.5 0.383-3.682 2.145-11.328-3.318-20.067 5.422s-3.277 16.385-5.422 20.067c-0.754 1.294-0.391 3.25 1.052 4.693s3.399 1.806 4.693 1.052c3.681-2.144 11.328 3.318 20.067-5.421s3.277-16.385 5.422-20.067c0.754-1.294 0.391-3.25-1.052-4.693zM29.889 5.122c-2.784 4.78 3.104 11.448-5.108 19.659-8.215 8.215-14.877 2.322-19.659 5.108-1.283 0.747-3.758-1.727-3.011-3.010 2.784-4.78-3.104-11.448 5.108-19.659 8.215-8.215 14.876-2.322 19.659-5.108 1.249-0.727 3.777 1.694 3.010 3.011zM16.217 6.976c-1.993 0.443-4.061 1.657-5.822 3.418s-2.976 3.829-3.418 5.822c-0.104 0.466-0.517 0.783-0.975 0.783-0.072 0-0.145-0.008-0.218-0.024-0.539-0.12-0.879-0.654-0.759-1.193 0.524-2.36 1.929-4.776 3.957-6.803s4.443-3.432 6.803-3.957c0.539-0.12 1.073 0.22 1.193 0.759s-0.22 1.073-0.759 1.193z"></path>
</svg>
