<!-- Generated by IcoMoon.io -->
<svg version="1.1" xmlns="http://www.w3.org/2000/svg" width="32" height="32" viewBox="0 0 32 32">
<title>lemon-solid</title>
<path d="M30.565 1.435c-1.443-1.443-3.399-1.806-4.693-1.052-3.682 2.144-11.328-3.317-20.067 5.422s-3.277 16.385-5.422 20.067c-0.754 1.294-0.391 3.25 1.052 4.693s3.399 1.806 4.693 1.052c3.681-2.144 11.328 3.317 20.067-5.421s3.277-16.385 5.422-20.067c0.754-1.294 0.391-3.25-1.052-4.693zM15.243 5.97c-3.637 0.909-8.363 5.635-9.272 9.272-0.114 0.454-0.521 0.758-0.969 0.758-0.080 0-0.162-0.010-0.243-0.030-0.536-0.134-0.861-0.677-0.728-1.213 1.089-4.356 6.365-9.637 10.728-10.728 0.536-0.134 1.079 0.192 1.213 0.728s-0.192 1.079-0.728 1.213z"></path>
</svg>
