<!-- Generated by IcoMoon.io -->
<svg version="1.1" xmlns="http://www.w3.org/2000/svg" width="24" height="32" viewBox="0 0 24 32">
<title>less-than-equal</title>
<path d="M21.724 19.264l-14.528-7.264 14.528-7.264c0.247-0.123 0.347-0.424 0.224-0.671l-0.893-1.789c-0.084-0.165-0.252-0.277-0.447-0.277-0.082 0-0.159 0.020-0.227 0.054l0.003-0.001-18.109 9.136c-0.164 0.084-0.275 0.252-0.275 0.446 0 0 0 0 0 0v0 0.807c0 0.189 0.107 0.363 0.276 0.447l18.107 9.057c0.247 0.124 0.547 0.024 0.671-0.224l0.893-1.789c0.124-0.246 0.024-0.546-0.223-0.67zM0 27.5v2c0 0.276 0.224 0.5 0.5 0.5h23c0.276 0 0.5-0.224 0.5-0.5v-2c0-0.276-0.224-0.5-0.5-0.5h-23c-0.276 0-0.5 0.224-0.5 0.5z"></path>
</svg>
