<!-- Generated by IcoMoon.io -->
<svg version="1.1" xmlns="http://www.w3.org/2000/svg" width="20" height="32" viewBox="0 0 20 32">
<title>less-than</title>
<path d="M0 16.364c0 0.189 0.106 0.361 0.275 0.446l18.108 9.136c0.247 0.124 0.547 0.023 0.671-0.224l0.893-1.789c0.123-0.247 0.023-0.547-0.224-0.671l-14.527-7.264 14.527-7.264c0.247-0.123 0.347-0.424 0.224-0.671l-0.893-1.789c-0.123-0.247-0.424-0.348-0.671-0.224l-18.107 9.058c-0.165 0.084-0.276 0.252-0.276 0.447 0 0 0 0 0 0v-0 0.807z"></path>
</svg>
