<!-- Generated by IcoMoon.io -->
<svg version="1.1" xmlns="http://www.w3.org/2000/svg" width="28" height="32" viewBox="0 0 28 32">
<title>less-than-equal-solid</title>
<path d="M3.436 13.387l18.838 7.492c1.149 0.377 2.419-0.159 2.836-1.197l0.756-1.88c0.418-1.038-0.176-2.186-1.326-2.563l-10.965-4.253 10.973-4.256c1.143-0.375 1.734-1.517 1.319-2.549l-0.752-1.87c-0.415-1.033-1.679-1.566-2.822-1.191l-18.857 7.497c-0.861 0.283-1.436 1.038-1.436 1.886v0.998c0 0.848 0.576 1.603 1.436 1.886zM26.5 25h-25c-0.828 0-1.5 0.671-1.5 1.5v3c0 0.828 0.672 1.5 1.5 1.5h25c0.828 0 1.5-0.672 1.5-1.5v-3c0-0.829-0.672-1.5-1.5-1.5z"></path>
</svg>
