<!-- Generated by IcoMoon.io -->
<svg version="1.1" xmlns="http://www.w3.org/2000/svg" width="22" height="32" viewBox="0 0 22 32">
<title>level-up-solid</title>
<path d="M21.565 9l-8.5-8.556c-0.587-0.592-1.543-0.592-2.13 0l-8.5 8.556c-0.582 0.587-0.58 1.533 0.004 2.117l1.378 1.379c0.601 0.601 1.581 0.583 2.16-0.040l3.522-3.778v18.323h-5.248c-0 0-0 0-0 0-0.207 0-0.395 0.084-0.53 0.22l-3.5 3.5c-0.472 0.472-0.138 1.28 0.53 1.28h12.248c0.828 0 1.5-0.672 1.5-1.5v-21.823l3.522 3.778c0.578 0.623 1.559 0.641 2.16 0.040l1.378-1.379c0.584-0.584 0.586-1.53 0.004-2.117z"></path>
</svg>
