<!-- Generated by IcoMoon.io -->
<svg version="1.1" xmlns="http://www.w3.org/2000/svg" width="16" height="32" viewBox="0 0 16 32">
<title>level-down</title>
<path d="M15.78 25.531l-6.248 6.248c-0.294 0.294-0.769 0.294-1.063 0l-6.248-6.248c-0.293-0.294-0.293-0.769 0-1.063l0.531-0.531c0.294-0.294 0.769-0.294 1.063 0l4.061 4.060v-25.747h-6.373c-0 0-0 0-0 0-0.207 0-0.395-0.084-0.53-0.22l-0.75-0.75c-0.472-0.472-0.138-1.28 0.53-1.28h7.873c0.828 0 1.5 0.672 1.5 1.5v26.497l4.060-4.060c0.294-0.294 0.769-0.294 1.063 0l0.531 0.531c0.294 0.294 0.294 0.769 0 1.063z"></path>
</svg>
