<!-- Generated by IcoMoon.io -->
<svg version="1.1" xmlns="http://www.w3.org/2000/svg" width="32" height="32" viewBox="0 0 32 32">
<title>life-ring</title>
<path d="M16 0.5c-8.56 0-15.5 6.94-15.5 15.5s6.94 15.5 15.5 15.5 15.5-6.94 15.5-15.5-6.94-15.5-15.5-15.5zM26.548 7.574l-3.93 3.93c-0.577-0.84-1.282-1.544-2.094-2.104l-0.027-0.018 3.93-3.93c0.79 0.635 1.486 1.331 2.101 2.095l0.020 0.026zM16 22c-3.308 0-6-2.692-6-6s2.692-6 6-6 6 2.692 6 6-2.692 6-6 6zM22.747 4.303l-4.134 4.134c-1.687-0.583-3.539-0.583-5.226 0l-4.134-4.134c4.17-2.408 9.327-2.406 13.494 0zM7.574 5.452l3.93 3.93c-0.84 0.577-1.544 1.282-2.104 2.094l-0.018 0.027-3.93-3.93c0.635-0.79 1.331-1.486 2.095-2.101l0.026-0.020zM4.303 9.253l4.134 4.134c-0.583 1.687-0.583 3.539 0 5.227l-4.134 4.134c-2.408-4.17-2.406-9.327 0-13.494zM5.452 24.427l3.93-3.93c0.577 0.84 1.282 1.544 2.094 2.104l0.027 0.018-3.93 3.93c-0.79-0.635-1.486-1.331-2.101-2.095l-0.020-0.026zM9.253 27.697l4.134-4.134c1.687 0.583 3.539 0.583 5.227 0l4.134 4.134c-4.17 2.408-9.327 2.406-13.494 0zM24.427 26.548l-3.93-3.93c0.84-0.577 1.544-1.282 2.104-2.094l0.018-0.027 3.93 3.93c-0.635 0.79-1.331 1.486-2.095 2.101l-0.026 0.020zM27.697 22.747l-4.134-4.134c0.583-1.687 0.583-3.539 0-5.226l4.134-4.134c2.408 4.17 2.406 9.327 0 13.494z"></path>
</svg>
