<!-- Generated by IcoMoon.io -->
<svg version="1.1" xmlns="http://www.w3.org/2000/svg" width="32" height="32" viewBox="0 0 32 32">
<title>life-ring-solid</title>
<path d="M16 0.5c-8.56 0-15.5 6.94-15.5 15.5s6.94 15.5 15.5 15.5 15.5-6.94 15.5-15.5-6.94-15.5-15.5-15.5zM26.856 7.972l-3.962 3.962c-0.687-1.16-1.667-2.141-2.828-2.828l3.962-3.962c1.085 0.811 2.018 1.743 2.803 2.793l0.026 0.036zM16 22c-3.314 0-6-2.686-6-6s2.686-6 6-6 6 2.686 6 6-2.686 6-6 6zM7.972 5.144l3.962 3.962c-1.16 0.687-2.141 1.667-2.828 2.828l-3.962-3.962c0.811-1.085 1.743-2.018 2.793-2.803l0.036-0.026zM5.144 24.028l3.962-3.962c0.687 1.16 1.667 2.141 2.828 2.828l-3.962 3.962c-1.085-0.811-2.018-1.743-2.803-2.793l-0.026-0.036zM24.028 26.856l-3.962-3.962c1.16-0.687 2.141-1.667 2.828-2.828l3.962 3.962c-0.811 1.085-1.743 2.018-2.793 2.803l-0.036 0.026z"></path>
</svg>
