<!-- Generated by IcoMoon.io -->
<svg version="1.1" xmlns="http://www.w3.org/2000/svg" width="22" height="32" viewBox="0 0 22 32">
<title>lightbulb-dollar</title>
<path d="M12.693 11.464l-2.813-0.844c-0.322-0.097-0.548-0.424-0.548-0.796 0-0.454 0.331-0.824 0.738-0.824h1.757c0.285 0 0.56 0.081 0.801 0.232 0.203 0.127 0.46 0.119 0.633-0.046l0.734-0.701c0.221-0.211 0.208-0.576-0.036-0.759-0.569-0.427-1.255-0.673-1.961-0.709v-1.018c0-0.276-0.224-0.5-0.5-0.5h-1c-0.276 0-0.5 0.224-0.5 0.5v1.008c-1.476 0.039-2.667 1.284-2.667 2.817 0 1.248 0.811 2.363 1.974 2.712l2.813 0.844c0.322 0.097 0.548 0.424 0.548 0.796 0 0.454-0.331 0.824-0.738 0.824h-1.757c-0.285 0-0.56-0.081-0.801-0.232-0.203-0.127-0.46-0.119-0.633 0.046l-0.734 0.701c-0.221 0.211-0.208 0.576 0.036 0.759 0.569 0.427 1.255 0.673 1.961 0.709v1.018c0 0.276 0.224 0.5 0.5 0.5h1c0.276 0 0.5-0.224 0.5-0.5v-1.008c1.476-0.039 2.667-1.284 2.667-2.817 0-1.248-0.811-2.363-1.974-2.712zM11 0c-6.434 0-11.008 5.221-11 11.015 0.004 2.768 1.031 5.292 2.723 7.221 1.603 1.828 3.143 4.806 3.277 5.764l0.004 4.699c0 0.197 0.059 0.389 0.168 0.552l1.532 2.303c0.186 0.279 0.498 0.446 0.833 0.446h4.928c0.335 0 0.648-0.168 0.832-0.446l1.532-2.303c0.109-0.164 0.167-0.356 0.168-0.552l0.004-4.699c0.141-0.983 1.687-3.949 3.277-5.764 1.694-1.933 2.723-4.463 2.723-7.236 0-6.075-4.925-11-11-11zM13.996 28.394l-1.068 1.606h-3.857l-1.068-1.606-0.001-0.394h5.994v0.394zM13.999 26h-5.998l-0.004-2h6.005l-0.002 2zM17.774 16.918c-0.874 0.997-2.271 3.006-3.161 5.082h-7.224c-0.891-2.076-2.287-4.084-3.161-5.082-1.446-1.649-2.219-3.739-2.224-5.918-0.011-4.812 3.774-9 8.997-9 4.963 0 9 4.037 9 9 0 2.178-0.791 4.28-2.226 5.918z"></path>
</svg>
