<!-- Generated by IcoMoon.io -->
<svg version="1.1" xmlns="http://www.w3.org/2000/svg" width="22" height="32" viewBox="0 0 22 32">
<title>lightbulb-dollar-solid</title>
<path d="M6.004 28.397c0.001 0.393 0.117 0.778 0.335 1.106l1.068 1.606c0.364 0.541 0.973 0.892 1.665 0.892h3.857c0.692 0 1.302-0.351 1.66-0.885l0.005-0.007 1.068-1.606c0.209-0.311 0.335-0.694 0.335-1.105v-0l0.002-2.397h-9.999l0.003 2.397zM10.966 0c-6.376 0.019-10.966 5.186-10.966 11 0 2.773 1.028 5.303 2.723 7.236 1.032 1.178 2.647 3.639 3.263 5.716 0.003 0.016 0.004 0.032 0.007 0.049h10.015c0.003-0.016 0.004-0.032 0.007-0.049 0.616-2.076 2.231-4.537 3.263-5.716 1.694-1.933 2.723-4.463 2.723-7.236 0-6.087-4.943-11.019-11.034-11zM12 15.992v1.008c0 0.276-0.224 0.5-0.5 0.5h-1c-0.276 0-0.5-0.224-0.5-0.5v-1.018c-0.706-0.036-1.392-0.283-1.961-0.709-0.244-0.183-0.256-0.548-0.036-0.759l0.734-0.701c0.173-0.165 0.431-0.172 0.633-0.046 0.242 0.151 0.516 0.232 0.801 0.232h1.757c0.406 0 0.738-0.37 0.738-0.824 0-0.372-0.226-0.699-0.548-0.796l-2.813-0.844c-1.162-0.349-1.974-1.464-1.974-2.712 0-1.532 1.191-2.777 2.667-2.817v-1.008c0-0.276 0.224-0.5 0.5-0.5h1c0.276 0 0.5 0.224 0.5 0.5v1.018c0.706 0.036 1.392 0.282 1.961 0.709 0.244 0.183 0.256 0.548 0.036 0.759l-0.734 0.701c-0.173 0.165-0.431 0.172-0.633 0.046-0.242-0.152-0.516-0.232-0.801-0.232h-1.757c-0.406 0-0.738 0.37-0.738 0.824 0 0.372 0.226 0.699 0.548 0.796l2.813 0.844c1.162 0.349 1.974 1.464 1.974 2.712 0 1.533-1.191 2.777-2.667 2.817z"></path>
</svg>
