<!-- Generated by IcoMoon.io -->
<svg version="1.1" xmlns="http://www.w3.org/2000/svg" width="40" height="32" viewBox="0 0 40 32">
<title>lightbulb-slash</title>
<path d="M14 7.456l1.588 1.25c0.831-1.6 2.487-2.706 4.412-2.706 0.55 0 1-0.45 1-1s-0.45-1-1-1c-2.563 0-4.781 1.4-6 3.456zM20 2c4.962 0 9 4.037 9 9 0 3.694-2.206 5.9-2.519 6.281l1.563 1.231c0.181-0.219 2.956-2.944 2.956-7.519 0-6.069-4.925-10.994-11-10.994-4.694 0-7.7 2.712-9.181 4.95l1.575 1.237c1.2-1.894 3.675-4.188 7.606-4.188zM39.813 30.325l-38.375-30.212c-0.212-0.175-0.531-0.144-0.7 0.075l-0.625 0.781c-0.175 0.219-0.138 0.531 0.075 0.7l38.375 30.219c0.212 0.175 0.531 0.137 0.7-0.075l0.625-0.781c0.175-0.219 0.144-0.531-0.075-0.706zM16.387 22c-0.894-2.075-2.287-4.087-3.162-5.081-1.012-1.156-1.688-2.537-2.006-4.012l-2.206-1.738c0.044 2.706 1.050 5.175 2.706 7.069 1.606 1.831 3.144 4.806 3.275 5.762l0.006 4.7c0 0.194 0.056 0.387 0.169 0.55l1.531 2.3c0.188 0.281 0.5 0.444 0.831 0.444h4.931c0.337 0 0.65-0.169 0.831-0.444l1.531-2.3c0.106-0.163 0.169-0.356 0.169-0.55l0.006-4.7c0.006-0.025 0.056-0.163 0.063-0.194l-2.294-1.806zM22.994 28.394l-1.063 1.606h-3.856l-1.069-1.606v-0.394h5.994v0.394zM23 26h-6l-0.006-2h6.006z"></path>
</svg>
