<!-- Generated by IcoMoon.io -->
<svg version="1.1" xmlns="http://www.w3.org/2000/svg" width="22" height="32" viewBox="0 0 22 32">
<title>lightbulb-solid</title>
<path d="M6.004 28.397c0.001 0.393 0.117 0.778 0.335 1.106l1.068 1.606c0.364 0.541 0.973 0.892 1.665 0.892h3.857c0.692 0 1.302-0.351 1.66-0.885l0.005-0.007 1.068-1.606c0.209-0.311 0.335-0.694 0.335-1.105v-0l0.002-2.397h-9.999l0.003 2.397zM0 11c0 2.773 1.028 5.303 2.723 7.236 1.032 1.178 2.647 3.639 3.263 5.716 0.003 0.016 0.004 0.032 0.007 0.049h10.015c0.003-0.016 0.004-0.032 0.007-0.049 0.616-2.076 2.231-4.537 3.263-5.716 1.694-1.933 2.723-4.463 2.723-7.236 0-6.087-4.943-11.019-11.034-11-6.376 0.019-10.966 5.186-10.966 11zM11 6c-2.757 0-5 2.243-5 5 0 0.553-0.447 1-1 1s-1-0.447-1-1c0-3.86 3.14-7 7-7 0.553 0 1 0.447 1 1s-0.447 1-1 1z"></path>
</svg>
