<!-- Generated by IcoMoon.io -->
<svg version="1.1" xmlns="http://www.w3.org/2000/svg" width="22" height="32" viewBox="0 0 22 32">
<title>lightbulb-exclamation-solid</title>
<path d="M6.004 28.397c0.001 0.393 0.117 0.778 0.335 1.106l1.068 1.606c0.364 0.541 0.973 0.892 1.665 0.892h3.857c0.692 0 1.302-0.351 1.66-0.885l0.005-0.007 1.068-1.606c0.209-0.311 0.335-0.694 0.335-1.105v-0l0.002-2.397h-9.999l0.003 2.397zM10.966 0c-6.376 0.019-10.966 5.186-10.966 11 0 2.773 1.028 5.303 2.723 7.236 1.032 1.178 2.647 3.639 3.263 5.716 0.003 0.016 0.004 0.032 0.007 0.049h10.015c0.003-0.016 0.004-0.032 0.007-0.049 0.616-2.076 2.231-4.537 3.263-5.716 1.694-1.933 2.723-4.463 2.723-7.236 0-6.087-4.943-11.019-11.034-11zM11 20c-1.104 0-2-0.896-2-2s0.896-2 2-2 2 0.896 2 2-0.896 2-2 2zM13.39 5.099l-0.8 8c-0.051 0.511-0.481 0.901-0.995 0.901h-1.19c-0.514 0-0.944-0.389-0.995-0.901l-0.8-8c-0.059-0.589 0.403-1.099 0.995-1.099h2.79c0.592 0 1.054 0.511 0.995 1.099z"></path>
</svg>
