<!-- Generated by IcoMoon.io -->
<svg version="1.1" xmlns="http://www.w3.org/2000/svg" width="40" height="32" viewBox="0 0 40 32">
<title>lightbulb-on</title>
<path d="M20 4c-3.864 0.005-6.995 3.136-7 7v0c0 0.552 0.448 1 1 1s1-0.448 1-1v0c0.003-2.76 2.24-4.997 5-5h0c0.552 0 1-0.448 1-1s-0.448-1-1-1v0zM20 0c-6.434 0-11.008 5.222-11 11.014 0 0 0 0.001 0 0.001 0 2.773 1.032 5.305 2.733 7.233l-0.010-0.012c1.604 1.826 3.143 4.807 3.277 5.764l0.004 4.699c0 0.206 0.063 0.397 0.17 0.555l-0.002-0.003 1.531 2.302c0.182 0.27 0.486 0.446 0.832 0.446h4.928c0 0 0.001 0 0.001 0 0.346 0 0.651-0.176 0.83-0.443l0.002-0.004 1.531-2.304c0.104-0.155 0.167-0.346 0.168-0.552v-0l0.004-4.698c0.141-0.983 1.688-3.949 3.277-5.764 1.691-1.924 2.723-4.463 2.723-7.242 0-6.072-4.922-10.994-10.994-10.994-0.002 0-0.005 0-0.007 0h0zM22.996 28.394l-1.069 1.606h-3.857l-1.066-1.606v-0.394h5.994zM23 26h-6l-0.004-2h6.004zM26.776 16.918c-0.875 0.997-2.27 3.006-3.161 5.081h-7.226c-0.893-2.076-2.287-4.084-3.162-5.081-1.38-1.569-2.223-3.641-2.223-5.909 0-0.003 0-0.006 0-0.009v0.001c-0.011-4.813 3.774-9 8.996-9 4.963 0 9 4.037 9 9-0 2.272-0.844 4.347-2.235 5.928l0.009-0.010zM6 11c0-0.552-0.448-1-1-1v0h-4c-0.552 0-1 0.448-1 1s0.448 1 1 1v0h4c0.552 0 1-0.448 1-1v0zM33 4c0.163-0 0.317-0.039 0.453-0.108l-0.006 0.003 4-2c0.33-0.168 0.553-0.505 0.553-0.894 0-0.552-0.448-1-1-1-0.163 0-0.317 0.039-0.453 0.108l0.006-0.003-4 2c-0.33 0.168-0.553 0.505-0.553 0.894 0 0.552 0.448 1 1 1 0 0 0 0 0 0v0zM39 10h-4c-0.552 0-1 0.448-1 1s0.448 1 1 1v0h4c0.552 0 1-0.448 1-1s-0.448-1-1-1v0zM7.447 2.106l-4-2c-0.13-0.067-0.284-0.106-0.447-0.106-0.552 0-1 0.448-1 1 0 0.389 0.222 0.726 0.547 0.892l0.006 0.003 4 2c0.13 0.066 0.284 0.105 0.447 0.106h0c0 0 0 0 0 0 0.552 0 1-0.448 1-1 0-0.389-0.222-0.727-0.547-0.892l-0.006-0.003zM37.447 20.106l-4-2c-0.13-0.067-0.284-0.106-0.447-0.106-0.552 0-1 0.448-1 1 0 0.389 0.222 0.727 0.547 0.892l0.006 0.003 4 2c0.13 0.067 0.284 0.106 0.447 0.106 0.552 0 1-0.448 1-1 0-0.389-0.222-0.727-0.547-0.892l-0.006-0.003zM7 18c-0.163 0-0.317 0.039-0.453 0.108l0.006-0.003-4 2c-0.33 0.168-0.553 0.505-0.553 0.895 0 0.552 0.448 1 1 1 0.163 0 0.317-0.039 0.453-0.108l-0.006 0.003 4-2c0.331-0.168 0.554-0.505 0.554-0.895 0-0.552-0.448-1-1-1-0 0-0.001 0-0.002 0h0z"></path>
</svg>
