<!-- Generated by IcoMoon.io -->
<svg version="1.1" xmlns="http://www.w3.org/2000/svg" width="40" height="32" viewBox="0 0 40 32">
<title>lights-holiday-solid</title>
<path d="M39.837 6.175l-1.094-1.712c-0.294-0.463-0.888-0.594-1.362-0.319-4.756 2.775-10.881 4.294-17.381 4.294s-12.625-1.519-17.381-4.294c-0.475-0.275-1.069-0.144-1.363 0.319l-1.094 1.712c-0.306 0.487-0.169 1.144 0.325 1.431 2.381 1.4 5.069 2.5 7.938 3.313l-1.256 3.456c-1.594 0.069-3.031 1.012-3.831 3.225-1.131 3.113 0.894 8.063 1.744 8.375 0.844 0.306 5.581-2.181 6.719-5.294 0.806-2.206 0.313-3.856-0.863-4.938l1.425-3.912c1.831 0.325 3.725 0.525 5.65 0.613v3.937c-1.475 0.613-2.5 1.988-2.5 4.344 0 3.313 3.6 7.275 4.5 7.275s4.5-3.956 4.5-7.275c0-2.35-1.025-3.731-2.5-4.344v-3.938c1.925-0.088 3.813-0.287 5.65-0.613l1.425 3.912c-1.175 1.081-1.669 2.725-0.863 4.937 1.131 3.113 5.869 5.6 6.719 5.294 0.844-0.306 2.875-5.262 1.744-8.375-0.806-2.206-2.237-3.156-3.831-3.225l-1.256-3.456c2.869-0.813 5.556-1.912 7.938-3.313 0.469-0.287 0.606-0.944 0.3-1.431zM9.1 19.313c-0.3 0.819-1.65 2.319-2.656 2.906-0.394-1.094-0.463-3.106-0.169-3.931 0.256-0.706 1.1-1.050 1.875-0.769s1.206 1.087 0.95 1.794zM20 24c-0.744-0.894-1.5-2.762-1.5-3.637 0-0.756 0.669-1.363 1.5-1.363s1.5 0.613 1.5 1.363c0 0.875-0.756 2.744-1.5 3.637zM31.844 17.519c0.781-0.281 1.619 0.063 1.875 0.769 0.3 0.819 0.231 2.837-0.169 3.931-1.006-0.581-2.356-2.081-2.656-2.906-0.25-0.706 0.175-1.512 0.95-1.794z"></path>
</svg>
