<!-- Generated by IcoMoon.io -->
<svg version="1.1" xmlns="http://www.w3.org/2000/svg" width="24" height="32" viewBox="0 0 24 32">
<title>light-switch-on</title>
<path d="M14 10h-4v2h4zM20 0h-16c-2.209 0-4 1.791-4 4v0 24c0 2.209 1.791 4 4 4v0h16c2.209 0 4-1.791 4-4v0-24c0-2.209-1.791-4-4-4v0zM22 28c0 1.105-0.895 2-2 2v0h-6.601c0.060-0.148 0.097-0.319 0.101-0.498l0-0.002c0-0.828-0.672-1.5-1.5-1.5s-1.5 0.672-1.5 1.5v0c0.005 0.181 0.041 0.352 0.104 0.51l-0.004-0.010h-6.601c-1.105 0-2-0.895-2-2v0-24c0-1.105 0.895-2 2-2v0h6.601c-0.060 0.148-0.096 0.319-0.101 0.498l-0 0.002c0 0.828 0.672 1.5 1.5 1.5s1.5-0.672 1.5-1.5v0c-0.005-0.181-0.041-0.352-0.105-0.51l0.004 0.010h6.601c1.105 0 2 0.895 2 2v0zM16 6h-8c-1.105 0-2 0.895-2 2v0 16c0 1.105 0.895 2 2 2v0h8c1.105 0 2-0.895 2-2v0-16c0-1.105-0.895-2-2-2v0zM16 24h-8v-7h8zM16 15h-8v-7h8z"></path>
</svg>
