<!-- Generated by IcoMoon.io -->
<svg version="1.1" xmlns="http://www.w3.org/2000/svg" width="40" height="32" viewBox="0 0 40 32">
<title>lightbulb-on-solid</title>
<path d="M15.004 28.396c0.001 0.411 0.126 0.793 0.34 1.111l-0.005-0.007 1.069 1.606c0.327 0.494 1.073 0.892 1.665 0.892h3.856c0.592 0 1.338-0.398 1.665-0.892l1.068-1.606c0.195-0.315 0.318-0.693 0.338-1.098l0-0.006v-2.396h-10zM19.966 0c-6.376 0.019-10.966 5.188-10.966 11 0 0.005 0 0.010 0 0.015 0 2.773 1.032 5.305 2.733 7.233l-0.010-0.012c1.033 1.178 2.648 3.639 3.263 5.715 0 0.017 0.004 0.033 0.007 0.049h10.015c0-0.016 0.004-0.031 0.007-0.049 0.616-2.076 2.231-4.537 3.263-5.715 1.691-1.916 2.723-4.448 2.723-7.221 0-0.005 0-0.011 0-0.016v0.001c0-6.086-4.943-11.019-11.034-11zM20 6c-2.76 0.003-4.997 2.24-5 5v0c0 0.552-0.448 1-1 1s-1-0.448-1-1v0c0.004-3.864 3.136-6.996 7-7h0c0.552 0 1 0.448 1 1s-0.448 1-1 1v0zM7 12c0-0.828-0.672-1.5-1.5-1.5v0h-4c-0.828 0-1.5 0.672-1.5 1.5s0.672 1.5 1.5 1.5v0h4c0.828 0 1.5-0.672 1.5-1.5v0zM38.5 10.5h-4c-0.828 0-1.5 0.672-1.5 1.5s0.672 1.5 1.5 1.5v0h4c0.828 0 1.5-0.672 1.5-1.5s-0.672-1.5-1.5-1.5v0zM8.193 3.451l-3.464-2c-0.221-0.135-0.488-0.215-0.774-0.215-0.828 0-1.5 0.672-1.5 1.5 0 0.562 0.309 1.052 0.766 1.309l0.008 0.004 3.464 2c0.221 0.135 0.488 0.215 0.774 0.215 0.828 0 1.5-0.672 1.5-1.5 0-0.562-0.309-1.052-0.766-1.309l-0.008-0.004zM36.771 19.951l-3.464-2c-0.221-0.135-0.488-0.215-0.774-0.215-0.828 0-1.5 0.672-1.5 1.5 0 0.562 0.309 1.052 0.766 1.309l0.008 0.004 3.464 2c0.209 0.118 0.46 0.188 0.726 0.188 0.828 0 1.5-0.672 1.5-1.5 0-0.543-0.288-1.018-0.72-1.281l-0.007-0.004zM6.692 17.951l-3.464 2c-0.465 0.261-0.774 0.751-0.774 1.312 0 0.828 0.672 1.5 1.5 1.5 0.286 0 0.553-0.080 0.78-0.219l-0.007 0.004 3.464-2c0.438-0.267 0.726-0.742 0.726-1.285 0-0.828-0.672-1.5-1.5-1.5-0.267 0-0.517 0.070-0.734 0.191l0.008-0.004zM32.559 6.25c0.001 0 0.002 0 0.003 0 0.275 0 0.533-0.075 0.754-0.205l-0.007 0.004 3.464-2c0.438-0.267 0.726-0.742 0.726-1.285 0-0.828-0.672-1.5-1.5-1.5-0.267 0-0.517 0.070-0.734 0.191l0.008-0.004-3.464 2c-0.451 0.264-0.75 0.747-0.75 1.299 0 0.828 0.671 1.5 1.499 1.5h0z"></path>
</svg>
