<!-- Generated by IcoMoon.io -->
<svg version="1.1" xmlns="http://www.w3.org/2000/svg" width="40" height="32" viewBox="0 0 40 32">
<title>lights-holiday</title>
<path d="M39.894 4.813l-0.256-0.438c-0.212-0.356-0.663-0.475-1.031-0.275-5.2 2.875-11.775 4.456-18.613 4.456s-13.406-1.581-18.606-4.456c-0.363-0.206-0.819-0.088-1.025 0.275l-0.256 0.438c-0.212 0.369-0.094 0.844 0.281 1.050 2.781 1.544 5.931 2.725 9.287 3.525l-0.606 1.444-0.463-0.194c-0.763-0.319-1.644 0.037-1.963 0.8l-1.35 3.213c-1.138 0.344-2.15 1.238-2.837 2.869-1.288 3.056 0.494 8.1 1.325 8.45s5.681-1.9 6.969-4.956c0.688-1.631 0.619-2.975 0.069-4.031l1.35-3.213c0.319-0.762-0.037-1.644-0.8-1.963l-0.463-0.194 0.762-1.806c2.375 0.444 4.831 0.694 7.331 0.75v1.444h-0.5c-0.825 0-1.5 0.675-1.5 1.5v3.487c-0.913 0.762-1.5 1.975-1.5 3.744 0 3.313 3.6 7.275 4.5 7.275s4.5-3.956 4.5-7.275c0-1.769-0.587-2.981-1.5-3.744v-3.488c0-0.825-0.675-1.5-1.5-1.5h-0.5v-1.45c2.5-0.056 4.956-0.3 7.331-0.75l0.762 1.806-0.462 0.194c-0.762 0.319-1.119 1.2-0.8 1.963l1.35 3.213c-0.55 1.056-0.619 2.4 0.069 4.031 1.288 3.056 6.137 5.306 6.969 4.956s2.612-5.394 1.325-8.45c-0.688-1.631-1.7-2.519-2.837-2.869l-1.344-3.206c-0.319-0.762-1.2-1.119-1.962-0.8l-0.462 0.194-0.606-1.444c3.363-0.8 6.506-1.987 9.287-3.525 0.369-0.213 0.487-0.688 0.275-1.050zM8.906 20.231c-0.656 1.563-2.894 2.975-4.2 3.525-0.519-1.325-1.069-3.906-0.412-5.469 0.725-1.712 1.788-2.206 3.362-1.544s1.969 1.775 1.25 3.488zM9.319 15.375c-0.275-0.175-0.569-0.338-0.887-0.469s-0.638-0.231-0.956-0.306l0.813-1.925 1.844 0.775-0.813 1.925zM35.706 18.294c0.656 1.563 0.106 4.144-0.413 5.469-1.306-0.556-3.538-1.962-4.2-3.525-0.725-1.712-0.325-2.819 1.244-3.481 1.575-0.669 2.644-0.181 3.369 1.538zM31.712 12.675l0.813 1.925c-0.319 0.075-0.637 0.169-0.956 0.306-0.319 0.131-0.613 0.294-0.887 0.469l-0.813-1.925 1.844-0.775zM19 14h2v2.087c-0.325-0.056-0.656-0.088-1-0.088s-0.675 0.031-1 0.088v-2.088zM22.5 20.725c0 1.694-1.512 3.863-2.5 4.881-0.988-1.019-2.5-3.188-2.5-4.881 0-1.863 0.794-2.725 2.5-2.725s2.5 0.869 2.5 2.725z"></path>
</svg>
