<!-- Generated by IcoMoon.io -->
<svg version="1.1" xmlns="http://www.w3.org/2000/svg" width="40" height="32" viewBox="0 0 40 32">
<title>lightbulb-slash-solid</title>
<path d="M39.614 28.631l-12.131-9.376c0.282-0.391 0.554-0.746 0.794-1.019 1.694-1.933 2.723-4.463 2.723-7.236 0-6.075-4.925-11-11-11-6.957 0-9.709 5.798-9.773 5.919l-7.386-5.709c-0.436-0.339-1.065-0.261-1.404 0.176l-1.228 1.579c-0.339 0.436-0.261 1.064 0.176 1.403l36.773 28.421c0.436 0.339 1.064 0.261 1.404-0.176l1.227-1.579c0.338-0.436 0.26-1.064-0.176-1.403zM20 6c-2.321 0-4.261 1.598-4.821 3.746l-1.681-1.299c1.024-2.598 3.545-4.447 6.502-4.447 0.552 0 1 0.447 1 1s-0.448 1-1 1zM15.001 26l0.002 2.397c0.001 0.393 0.117 0.778 0.335 1.106l1.068 1.606c0.363 0.541 0.973 0.892 1.665 0.892h3.857c0.692 0 1.302-0.351 1.66-0.885l0.005-0.007 1.068-1.606c0.209-0.311 0.335-0.694 0.335-1.105v-0l0.001-0.951-1.871-1.446h-8.126zM10.233 16.035c0.411 0.793 0.906 1.536 1.489 2.201 1.033 1.178 2.648 3.639 3.263 5.716 0.002 0.016 0.004 0.032 0.007 0.049h5.546l-10.306-7.966z"></path>
</svg>
