<!-- Generated by IcoMoon.io -->
<svg version="1.1" xmlns="http://www.w3.org/2000/svg" width="32" height="32" viewBox="0 0 32 32">
<title>light-ceiling</title>
<path d="M17 12.046v-12.046h-2v12.046c-7.681 0.467-13.912 6.242-14.98 13.681-0.172 1.199 0.792 2.273 2.015 2.273h9.066c0.482 2.298 2.492 3.999 4.899 3.999s4.417-1.701 4.893-3.966l0.006-0.033h9.066c1.223 0 2.188-1.074 2.015-2.273-1.067-7.438-7.299-13.214-14.98-13.681zM16 30c-1.298-0-2.403-0.825-2.821-1.979l-0.007-0.021h5.655c-0.424 1.175-1.529 2-2.827 2h-0zM2 26.011c0.982-6.848 7-12.011 14-12.011s13.017 5.163 13.965 12z"></path>
</svg>
