<!-- Generated by IcoMoon.io -->
<svg version="1.1" xmlns="http://www.w3.org/2000/svg" width="32" height="32" viewBox="0 0 32 32">
<title>line-columns-solid</title>
<path d="M31 18h-12c-0.552 0-1 0.448-1 1v0 2c0 0.552 0.448 1 1 1v0h12c0.552 0 1-0.448 1-1v0-2c0-0.552-0.448-1-1-1v0zM31 26h-12c-0.552 0-1 0.448-1 1v0 2c0 0.552 0.448 1 1 1v0h12c0.552 0 1-0.448 1-1v0-2c0-0.552-0.448-1-1-1v0zM31 10h-12c-0.552 0-1 0.448-1 1v0 2c0 0.552 0.448 1 1 1v0h12c0.552 0 1-0.448 1-1v0-2c0-0.552-0.448-1-1-1v0zM31 2h-12c-0.552 0-1 0.448-1 1v0 2c0 0.552 0.448 1 1 1v0h12c0.552 0 1-0.448 1-1v0-2c0-0.552-0.448-1-1-1v0zM13 18h-12c-0.552 0-1 0.448-1 1v0 2c0 0.552 0.448 1 1 1v0h12c0.552 0 1-0.448 1-1v0-2c0-0.552-0.448-1-1-1v0zM13 26h-12c-0.552 0-1 0.448-1 1v0 2c0 0.552 0.448 1 1 1v0h12c0.552 0 1-0.448 1-1v0-2c0-0.552-0.448-1-1-1v0zM13 2h-12c-0.552 0-1 0.448-1 1v0 2c0 0.552 0.448 1 1 1v0h12c0.552 0 1-0.448 1-1v0-2c0-0.552-0.448-1-1-1v0zM13 10h-12c-0.552 0-1 0.448-1 1v0 2c0 0.552 0.448 1 1 1v0h12c0.552 0 1-0.448 1-1v0-2c0-0.552-0.448-1-1-1v0z"></path>
</svg>
