<!-- Generated by IcoMoon.io -->
<svg version="1.1" xmlns="http://www.w3.org/2000/svg" width="40" height="32" viewBox="0 0 40 32">
<title>line-height-solid</title>
<path d="M39.143 14h-22.286c-0.473 0-0.857 0.447-0.857 1v2c0 0.552 0.384 1 0.857 1h22.286c0.473 0 0.857-0.448 0.857-1v-2c0-0.553-0.384-1-0.857-1zM39.143 24h-22.286c-0.473 0-0.857 0.448-0.857 1v2c0 0.552 0.384 1 0.857 1h22.286c0.473 0 0.857-0.448 0.857-1v-2c0-0.552-0.384-1-0.857-1zM39.143 4h-22.286c-0.473 0-0.857 0.447-0.857 1v2c0 0.553 0.384 1 0.857 1h22.286c0.473 0 0.857-0.447 0.857-1v-2c0-0.553-0.384-1-0.857-1zM11 9c0.894 0 1.333-1.082 0.707-1.707l-5-5c-0.181-0.181-0.431-0.293-0.707-0.293s-0.526 0.112-0.707 0.293l-5 5c-0.583 0.582-0.271 1.707 0.707 1.707h3v14h-3c-0.893 0-1.332 1.082-0.706 1.707l5 5c0.181 0.181 0.431 0.293 0.707 0.293s0.526-0.112 0.707-0.293l5-5c0.582-0.582 0.269-1.707-0.708-1.707h-3v-14z"></path>
</svg>
