<!-- Generated by IcoMoon.io -->
<svg version="1.1" xmlns="http://www.w3.org/2000/svg" width="40" height="32" viewBox="0 0 40 32">
<title>line-height</title>
<path d="M10.938 9c0.894 0 1.333-1.082 0.707-1.707l-5-5c-0.181-0.181-0.431-0.293-0.707-0.293s-0.526 0.112-0.707 0.293l-5 5c-0.583 0.582-0.27 1.707 0.708 1.707h4v14h-4c-0.893 0-1.332 1.082-0.706 1.707l5 5c0.181 0.181 0.431 0.293 0.707 0.293s0.526-0.112 0.707-0.293l5-5c0.582-0.582 0.269-1.707-0.709-1.707h-4v-14zM8.524 25l-2.586 2.586-2.584-2.586h5.171zM4.938 7h-1.586l2.586-2.586 2.585 2.586h-3.585zM39.438 15h-23c-0.276 0-0.5 0.224-0.5 0.5v0 1c0 0.276 0.224 0.5 0.5 0.5v0h23c0.276 0 0.5-0.224 0.5-0.5v0-1c0-0.276-0.224-0.5-0.5-0.5v0zM39.438 23h-23c-0.276 0-0.5 0.224-0.5 0.5v0 1c0 0.276 0.224 0.5 0.5 0.5v0h23c0.276 0 0.5-0.224 0.5-0.5v0-1c0-0.276-0.224-0.5-0.5-0.5v0zM39.438 7h-23c-0.276 0-0.5 0.224-0.5 0.5v0 1c0 0.276 0.224 0.5 0.5 0.5v0h23c0.276 0 0.5-0.224 0.5-0.5v0-1c0-0.276-0.224-0.5-0.5-0.5v0z"></path>
</svg>
