<!-- Generated by IcoMoon.io -->
<svg version="1.1" xmlns="http://www.w3.org/2000/svg" width="32" height="32" viewBox="0 0 32 32">
<title>link</title>
<path d="M18.822 24.669l-4.95 4.949c-3.174 3.175-8.315 3.177-11.49 0-3.175-3.174-3.176-8.315 0-11.49l4.949-4.95c0.071-0.071 0.143-0.14 0.216-0.208l0.005-0.005c0.472-0.438 1.237-0.125 1.263 0.518 0.012 0.3 0.037 0.6 0.076 0.899 0.030 0.232-0.047 0.465-0.212 0.631-1.030 1.029-4.696 4.695-4.706 4.705-2.296 2.297-2.296 6.012 0 8.309 2.297 2.296 6.012 2.296 8.309 0l4.973-4.973c2.269-2.292 2.259-6.004-0.023-8.286-0.513-0.513-1.099-0.911-1.724-1.194-0.285-0.129-0.464-0.417-0.446-0.729 0.021-0.348 0.084-0.673 0.184-0.981l-0.008 0.027c0.131-0.413 0.596-0.623 0.995-0.455 0.942 0.395 1.824 0.976 2.59 1.742 3.168 3.168 3.167 8.323 0 11.491zM13.178 18.822c0.765 0.765 1.648 1.346 2.59 1.742 0.399 0.168 0.864-0.043 0.995-0.455 0.093-0.281 0.156-0.606 0.176-0.943l0.001-0.011c0.018-0.313-0.161-0.6-0.446-0.729-0.626-0.283-1.211-0.681-1.724-1.194-2.282-2.282-2.292-5.994-0.023-8.286l4.973-4.973c2.297-2.296 6.011-2.296 8.309 0 2.296 2.297 2.296 6.011 0 8.309-0.010 0.010-3.676 3.676-4.706 4.705-0.166 0.166-0.242 0.399-0.212 0.631 0.035 0.254 0.062 0.564 0.075 0.879l0.001 0.020c0.026 0.643 0.791 0.956 1.263 0.518 0.078-0.073 0.15-0.142 0.221-0.213l4.949-4.95c3.176-3.175 3.175-8.316 0-11.49-3.175-3.176-8.316-3.175-11.49 0l-4.95 4.949c-3.167 3.168-3.168 8.323 0 11.491z"></path>
</svg>
