<!-- Generated by IcoMoon.io -->
<svg version="1.1" xmlns="http://www.w3.org/2000/svg" width="40" height="32" viewBox="0 0 40 32">
<title>lips-solid</title>
<path d="M39.446 12.23c-3.229-5.356-10.302-10.23-13.339-10.23 0 0-2.036 0-6.108 3.125-4.072-3.125-6.107-3.125-6.107-3.125-3.037 0-10.109 4.874-13.339 10.23-0.645 1.069-0.727 2.374-0.243 3.524 1.749 4.153 7.039 14.246 17.144 14.246h5.089c10.106 0 15.396-10.093 17.145-14.247 0.484-1.149 0.402-2.454-0.243-3.523zM20 20c-10.666 0-16-6-16-6s4-2 10-2l2.211 0.553c1.176 0.294 2.473 0.447 3.789 0.447s2.613-0.153 3.789-0.447l2.211-0.553c6 0 10 2 10 2s-5.334 6-16 6z"></path>
</svg>
