<!-- Generated by IcoMoon.io -->
<svg version="1.1" xmlns="http://www.w3.org/2000/svg" width="40" height="32" viewBox="0 0 40 32">
<title>lips</title>
<path d="M34.078 13.688c-1.097-0.473-4.098-1.583-8.248-1.681-1.818-0.016-2.723 0.862-5.83 0.862-3.102 0-4.037-0.877-5.83-0.862-4.151 0.098-7.151 1.208-8.248 1.681-0.383 0.164-0.658 0.506-0.732 0.914-0.076 0.408 0.059 0.826 0.361 1.118 7.248 7.086 21.744 6.994 28.899 0 0.303-0.292 0.438-0.71 0.361-1.118-0.074-0.408-0.349-0.75-0.733-0.914zM20 19c-6.26 0-10.271-2.426-12.137-3.909 5.725-1.911 8.496-0.658 8.58-0.637 1.099 0.276 2.328 0.413 3.557 0.413s2.457-0.138 3.557-0.413c0.084-0.021 2.855-1.274 8.58 0.637-1.866 1.484-5.877 3.909-12.137 3.909zM39.446 12.23c-3.229-5.356-10.302-10.23-13.339-10.23 0 0-2.036 0-6.108 3.125-4.072-3.125-6.107-3.125-6.107-3.125-3.037 0-10.109 4.874-13.339 10.23-0.645 1.069-0.727 2.374-0.243 3.524 1.749 4.153 7.039 14.246 17.144 14.246h5.089c10.106 0 15.396-10.093 17.145-14.247 0.484-1.149 0.402-2.454-0.243-3.523zM37.846 14.977c-1.649 3.916-6.441 13.023-15.301 13.023h-5.089c-8.861 0-13.653-9.108-15.302-13.023-0.241-0.572-0.199-1.196 0.112-1.714 3.025-5.018 9.452-9.177 11.562-9.261 1.707 0.266 4.051 2.018 6.171 3.644 2.12-1.627 4.464-3.379 6.171-3.644 2.111 0.084 8.537 4.244 11.562 9.261 0.313 0.518 0.354 1.143 0.114 1.714z"></path>
</svg>
