<!-- Generated by IcoMoon.io -->
<svg version="1.1" xmlns="http://www.w3.org/2000/svg" width="24" height="32" viewBox="0 0 24 32">
<title>lira-sign</title>
<path d="M23.25 15.98h-1.016c-0.4 0-0.732 0.314-0.749 0.713-0.305 7.032-5.141 10.837-11.809 10.837h-2.927v-12.506l10.664-2.37c0.338-0.077 0.587-0.376 0.587-0.732v0-0.512c0-0.48-0.444-0.836-0.913-0.732l-10.339 2.298v-2.951l10.664-2.37c0.338-0.077 0.587-0.376 0.587-0.732v0-0.512c0-0.48-0.444-0.836-0.913-0.732l-10.339 2.298v-5.226c0-0.414-0.336-0.75-0.75-0.75h-1.248c-0.414 0-0.75 0.336-0.75 0.75v5.837l-3.413 0.758c-0.339 0.077-0.587 0.376-0.587 0.732v0 0.512c0 0.48 0.444 0.836 0.913 0.732l3.087-0.686v2.951l-3.413 0.758c-0.339 0.077-0.587 0.376-0.587 0.732v0 0.512c0 0.48 0.444 0.836 0.913 0.732l3.087-0.686v13.614c0 0.414 0.336 0.75 0.75 0.75h5.204c8.157 0 13.726-4.803 14.045-13.245 0.016-0.424-0.326-0.775-0.75-0.775z"></path>
</svg>
