<!-- Generated by IcoMoon.io -->
<svg version="1.1" xmlns="http://www.w3.org/2000/svg" width="24" height="32" viewBox="0 0 24 32">
<title>lira-sign-solid</title>
<path d="M23.25 16h-3.001c-0.396 0-0.748 0.307-0.748 0.703 0 6.297-5.114 9.297-10.5 9.297v-9.951l8.413-1.87c0.338-0.077 0.587-0.376 0.587-0.732v0-2.561c0-0.48-0.444-0.836-0.913-0.732l-8.087 1.797v-1.902l8.413-1.87c0.338-0.077 0.587-0.376 0.587-0.732v0-2.561c0-0.48-0.444-0.836-0.913-0.732l-8.087 1.797v-3.201c0-0.414-0.336-0.75-0.75-0.75h-3.5c-0.414 0-0.75 0.336-0.75 0.75v4.312l-3.413 0.758c-0.339 0.077-0.587 0.376-0.587 0.732v0 2.561c0 0.48 0.444 0.836 0.913 0.732l3.087-0.686v1.902l-3.413 0.758c-0.339 0.077-0.587 0.376-0.587 0.732v0 2.561c0 0.48 0.444 0.836 0.913 0.732l3.087-0.686v12.090c0 0.414 0.336 0.75 0.75 0.75h4.974c8.381 0 13.953-4.865 14.275-13.225 0.016-0.424-0.326-0.776-0.75-0.776z"></path>
</svg>
