<!-- Generated by IcoMoon.io -->
<svg version="1.1" xmlns="http://www.w3.org/2000/svg" width="32" height="32" viewBox="0 0 32 32">
<title>list-music-solid</title>
<path d="M1 16h16c0.552 0 1-0.448 1-1v0-2c0-0.552-0.448-1-1-1v0h-16c-0.552 0-1 0.448-1 1v0 2c0 0.552 0.448 1 1 1v0zM1 8h16c0.552 0 1-0.448 1-1v0-2c0-0.552-0.448-1-1-1v0h-16c-0.552 0-1 0.448-1 1v0 2c0 0.552 0.448 1 1 1v0zM9 20h-8c-0.552 0-1 0.448-1 1v0 2c0 0.552 0.448 1 1 1v0h8c0.552 0 1-0.448 1-1v0-2c0-0.552-0.448-1-1-1v0zM29.434 0.083l-6.033 1.782c-0.818 0.263-1.4 1.016-1.401 1.906v18.729c-0.894-0.316-1.926-0.499-3-0.5h-0c-3.866 0-7 2.239-7 5s3.134 5 7 5 7-2.239 7-5v-17.741l4.563-1.337c0.838-0.251 1.438-1.015 1.438-1.919 0-0 0-0 0-0v0-4.003c-0.001-1.104-0.896-1.999-2-1.999-0.202 0-0.397 0.030-0.58 0.086l0.014-0.004z"></path>
</svg>
