<!-- Generated by IcoMoon.io -->
<svg version="1.1" xmlns="http://www.w3.org/2000/svg" width="32" height="32" viewBox="0 0 32 32">
<title>list-ul</title>
<path d="M2.024 14c-1.104 0-2.024 0.896-2.024 2s0.921 2 2.024 2c1.105 0 2-0.895 2-2s-0.895-2-2-2v0zM2.024 4c-1.104 0-2.024 0.896-2.024 2s0.921 2 2.024 2c1.105 0 2-0.895 2-2s-0.895-2-2-2v0zM2.024 24c-1.104 0-2.024 0.896-2.024 2s0.921 2 2.024 2c1.105 0 2-0.895 2-2s-0.895-2-2-2v0zM31.5 5h-23c-0.276 0-0.5 0.224-0.5 0.5v0 1c0 0.276 0.224 0.5 0.5 0.5v0h23c0.276 0 0.5-0.224 0.5-0.5v0-1c0-0.276-0.224-0.5-0.5-0.5v0zM31.5 15h-23c-0.276 0-0.5 0.224-0.5 0.5v0 1c0 0.276 0.224 0.5 0.5 0.5v0h23c0.276 0 0.5-0.224 0.5-0.5v0-1c0-0.276-0.224-0.5-0.5-0.5v0zM31.5 25h-23c-0.276 0-0.5 0.224-0.5 0.5v0 1c0 0.276 0.224 0.5 0.5 0.5v0h23c0.276 0 0.5-0.224 0.5-0.5v0-1c0-0.276-0.224-0.5-0.5-0.5v0z"></path>
</svg>
