<!-- Generated by IcoMoon.io -->
<svg version="1.1" xmlns="http://www.w3.org/2000/svg" width="32" height="32" viewBox="0 0 32 32">
<title>list-ol</title>
<path d="M3.861 25.063l1.094-1.259c0.197-0.219 0.318-0.511 0.318-0.831 0-0.020-0-0.039-0.001-0.058l0 0.003v-0.207c0-0.459-0.24-0.709-0.709-0.709h-3.563c-0.276 0-0.5 0.224-0.5 0.5v0 1c0 0.276 0.224 0.5 0.5 0.5v0h1.428c-0.237 0.238-0.462 0.489-0.673 0.751l-0.014 0.018-0.351 0.438c-0.25 0.317-0.328 0.633-0.175 0.93l0.066 0.121c0.188 0.36 0.394 0.492 0.766 0.492h0.296c0.646 0 0.996 0.152 0.996 0.568 0 0.295-0.263 0.514-0.897 0.514-0.349-0.003-0.681-0.074-0.984-0.201l0.017 0.006c-0.406-0.242-0.734-0.219-0.975 0.195l-0.349 0.582c-0.233 0.383-0.2 0.733 0.164 0.996 0.482 0.293 1.274 0.59 2.313 0.59 2.135 0 3.031-1.422 3.031-2.758-0.002-0.899-0.57-1.86-1.796-2.18zM0.756 20h4.244c0.276 0 0.5-0.224 0.5-0.5v0-1c0-0.276-0.224-0.5-0.5-0.5v0h-2.417c0.205-0.643 3.021-1.168 3.021-3.527 0-1.816-1.563-2.473-2.779-2.473-1.335 0-2.112 0.625-2.528 1.172-0.274 0.349-0.188 0.678 0.174 0.961l0.536 0.43c0.351 0.285 0.688 0.154 1.008-0.152 0.151-0.148 0.358-0.24 0.587-0.24 0.001 0 0.003 0 0.004 0h-0c0.208 0 0.58 0.098 0.58 0.547 0.002 0.795-3.186 1.365-3.186 4.32v0.25c0 0.463 0.318 0.713 0.756 0.713zM1 10h4c0.276 0 0.5-0.224 0.5-0.5v0-1c0-0.276-0.224-0.5-0.5-0.5v0h-1v-5.5c0-0.276-0.224-0.5-0.5-0.5v0h-1.5c-0.194 0-0.362 0.111-0.445 0.273l-0.001 0.003-0.5 1c-0.033 0.065-0.053 0.142-0.053 0.224 0 0.276 0.223 0.499 0.499 0.5h0.5v4h-1c-0.276 0-0.5 0.224-0.5 0.5v0 1c0 0.276 0.224 0.5 0.5 0.5v0zM31.5 5h-21c-0.276 0-0.5 0.224-0.5 0.5v0 1c0 0.276 0.224 0.5 0.5 0.5v0h21c0.276 0 0.5-0.224 0.5-0.5v0-1c0-0.276-0.224-0.5-0.5-0.5v0zM31.5 25h-21c-0.276 0-0.5 0.224-0.5 0.5v0 1c0 0.276 0.224 0.5 0.5 0.5v0h21c0.276 0 0.5-0.224 0.5-0.5v0-1c0-0.276-0.224-0.5-0.5-0.5v0zM31.5 15h-21c-0.276 0-0.5 0.224-0.5 0.5v0 1c0 0.276 0.224 0.5 0.5 0.5v0h21c0.276 0 0.5-0.224 0.5-0.5v0-1c0-0.276-0.224-0.5-0.5-0.5v0z"></path>
</svg>
