<!-- Generated by IcoMoon.io -->
<svg version="1.1" xmlns="http://www.w3.org/2000/svg" width="32" height="32" viewBox="0 0 32 32">
<title>list-solid</title>
<path d="M5 23h-4c-0.552 0-1 0.448-1 1v0 4c0 0.552 0.448 1 1 1v0h4c0.552 0 1-0.448 1-1v0-4c0-0.552-0.448-1-1-1v0zM5 3h-4c-0.552 0-1 0.448-1 1v0 4c0 0.552 0.448 1 1 1v0h4c0.552 0 1-0.448 1-1v0-4c0-0.552-0.448-1-1-1v0zM5 13h-4c-0.552 0-1 0.448-1 1v0 4c0 0.552 0.448 1 1 1v0h4c0.552 0 1-0.448 1-1v0-4c0-0.552-0.448-1-1-1v0zM31 24h-20c-0.552 0-1 0.448-1 1v0 2c0 0.552 0.448 1 1 1v0h20c0.552 0 1-0.448 1-1v0-2c0-0.552-0.448-1-1-1v0zM31 4h-20c-0.552 0-1 0.448-1 1v0 2c0 0.552 0.448 1 1 1v0h20c0.552 0 1-0.448 1-1v0-2c0-0.552-0.448-1-1-1v0zM31 14h-20c-0.552 0-1 0.448-1 1v0 2c0 0.552 0.448 1 1 1v0h20c0.552 0 1-0.448 1-1v0-2c0-0.552-0.448-1-1-1v0z"></path>
</svg>
