<!-- Generated by IcoMoon.io -->
<svg version="1.1" xmlns="http://www.w3.org/2000/svg" width="32" height="32" viewBox="0 0 32 32">
<title>list-alt</title>
<path d="M29 4c0.551 0 1 0.449 1 1v22c0 0.551-0.449 1-1 1h-26c-0.551 0-1-0.449-1-1v-22c0-0.551 0.449-1 1-1h26zM29 2h-26c-1.657 0-3 1.343-3 3v22c0 1.657 1.343 3 3 3h26c1.657 0 3-1.343 3-3v-22c0-1.657-1.343-3-3-3zM8 8c-1.105 0-2 0.895-2 2s0.895 2 2 2 2-0.895 2-2-0.895-2-2-2zM8 14c-1.105 0-2 0.895-2 2s0.895 2 2 2 2-0.895 2-2-0.895-2-2-2zM8 20c-1.105 0-2 0.895-2 2s0.895 2 2 2 2-0.895 2-2-0.895-2-2-2zM26 10.75v-1.5c0-0.207-0.168-0.375-0.375-0.375v0h-13.25c-0.207 0-0.375 0.168-0.375 0.375v0 1.5c0 0.207 0.168 0.375 0.375 0.375v0h13.25c0.207 0 0.375-0.168 0.375-0.375v0zM26 16.75v-1.5c0-0.207-0.168-0.375-0.375-0.375v0h-13.25c-0.207 0-0.375 0.168-0.375 0.375v0 1.5c0 0.207 0.168 0.375 0.375 0.375v0h13.25c0.207 0 0.375-0.168 0.375-0.375v0zM26 22.75v-1.5c0-0.207-0.168-0.375-0.375-0.375v0h-13.25c-0.207 0-0.375 0.168-0.375 0.375v0 1.5c0 0.207 0.168 0.375 0.375 0.375v0h13.25c0.207 0 0.375-0.168 0.375-0.375v0z"></path>
</svg>
