<!-- Generated by IcoMoon.io -->
<svg version="1.1" xmlns="http://www.w3.org/2000/svg" width="32" height="32" viewBox="0 0 32 32">
<title>list-ul-solid</title>
<path d="M3 3c-1.657 0-3 1.343-3 3s1.343 3 3 3c1.657 0 3-1.343 3-3v0c0-1.657-1.343-3-3-3v0zM3 13c-1.657 0-3 1.343-3 3s1.343 3 3 3c1.657 0 3-1.343 3-3v0c0-1.657-1.343-3-3-3v0zM3 23c-1.657 0-3 1.343-3 3s1.343 3 3 3c1.657 0 3-1.343 3-3v0c0-1.657-1.343-3-3-3v0zM31 24h-20c-0.552 0-1 0.448-1 1v0 2c0 0.552 0.448 1 1 1v0h20c0.552 0 1-0.448 1-1v0-2c0-0.552-0.448-1-1-1v0zM31 4h-20c-0.552 0-1 0.448-1 1v0 2c0 0.552 0.448 1 1 1v0h20c0.552 0 1-0.448 1-1v0-2c0-0.552-0.448-1-1-1v0zM31 14h-20c-0.552 0-1 0.448-1 1v0 2c0 0.552 0.448 1 1 1v0h20c0.552 0 1-0.448 1-1v0-2c0-0.552-0.448-1-1-1v0z"></path>
</svg>
