<!-- Generated by IcoMoon.io -->
<svg version="1.1" xmlns="http://www.w3.org/2000/svg" width="32" height="32" viewBox="0 0 32 32">
<title>list</title>
<path d="M5.5 3.5h-3c-0.552 0-1 0.448-1 1v0 3c0 0.552 0.448 1 1 1v0h3c0.552 0 1-0.448 1-1v0-3c0-0.552-0.448-1-1-1v0zM5.5 13.5h-3c-0.552 0-1 0.448-1 1v0 3c0 0.552 0.448 1 1 1v0h3c0.552 0 1-0.448 1-1v0-3c0-0.552-0.448-1-1-1v0zM5.5 23.5h-3c-0.552 0-1 0.448-1 1v0 3c0 0.552 0.448 1 1 1v0h3c0.552 0 1-0.448 1-1v0-3c0-0.552-0.448-1-1-1v0zM31.5 25h-21c-0.276 0-0.5 0.224-0.5 0.5v0 1c0 0.276 0.224 0.5 0.5 0.5v0h21c0.276 0 0.5-0.224 0.5-0.5v0-1c0-0.276-0.224-0.5-0.5-0.5v0zM31.5 5h-21c-0.276 0-0.5 0.224-0.5 0.5v0 1c0 0.276 0.224 0.5 0.5 0.5v0h21c0.276 0 0.5-0.224 0.5-0.5v0-1c0-0.276-0.224-0.5-0.5-0.5v0zM31.5 15h-21c-0.276 0-0.5 0.224-0.5 0.5v0 1c0 0.276 0.224 0.5 0.5 0.5v0h21c0.276 0 0.5-0.224 0.5-0.5v0-1c0-0.276-0.224-0.5-0.5-0.5v0z"></path>
</svg>
