<!-- Generated by IcoMoon.io -->
<svg version="1.1" xmlns="http://www.w3.org/2000/svg" width="32" height="32" viewBox="0 0 32 32">
<title>list-alt-solid</title>
<path d="M29 30h-26c-1.657 0-3-1.343-3-3v-22c0-1.657 1.343-3 3-3h26c1.657 0 3 1.343 3 3v22c0 1.657-1.343 3-3 3zM8 7.5c-1.381 0-2.5 1.119-2.5 2.5s1.119 2.5 2.5 2.5 2.5-1.119 2.5-2.5-1.119-2.5-2.5-2.5zM8 13.5c-1.381 0-2.5 1.119-2.5 2.5s1.119 2.5 2.5 2.5 2.5-1.119 2.5-2.5-1.119-2.5-2.5-2.5zM8 19.5c-1.381 0-2.5 1.119-2.5 2.5s1.119 2.5 2.5 2.5 2.5-1.119 2.5-2.5-1.119-2.5-2.5-2.5zM26 11v-2c0-0.414-0.336-0.75-0.75-0.75h-12.5c-0.414 0-0.75 0.336-0.75 0.75v2c0 0.414 0.336 0.75 0.75 0.75h12.5c0.414 0 0.75-0.336 0.75-0.75zM26 17v-2c0-0.414-0.336-0.75-0.75-0.75h-12.5c-0.414 0-0.75 0.336-0.75 0.75v2c0 0.414 0.336 0.75 0.75 0.75h12.5c0.414 0 0.75-0.336 0.75-0.75zM26 23v-2c0-0.414-0.336-0.75-0.75-0.75h-12.5c-0.414 0-0.75 0.336-0.75 0.75v2c0 0.414 0.336 0.75 0.75 0.75h12.5c0.414 0 0.75-0.336 0.75-0.75z"></path>
</svg>
