<!-- Generated by IcoMoon.io -->
<svg version="1.1" xmlns="http://www.w3.org/2000/svg" width="32" height="32" viewBox="0 0 32 32">
<title>list-music</title>
<path d="M0.5 14h17c0.276 0 0.5-0.224 0.5-0.5v0-1c0-0.276-0.224-0.5-0.5-0.5v0h-17c-0.276 0-0.5 0.224-0.5 0.5v0 1c0 0.276 0.224 0.5 0.5 0.5v0zM10 20.5c0-0.276-0.224-0.5-0.5-0.5v0h-9c-0.276 0-0.5 0.224-0.5 0.5v0 1c0 0.276 0.224 0.5 0.5 0.5v0h9c0.276 0 0.5-0.224 0.5-0.5v0zM0.5 6h17c0.276 0 0.5-0.224 0.5-0.5v0-1c0-0.276-0.224-0.5-0.5-0.5v0h-17c-0.276 0-0.5 0.224-0.5 0.5v0 1c0 0.276 0.224 0.5 0.5 0.5v0zM29.375 0.102l-6.037 1.992c-0.793 0.264-1.338 1.030-1.338 1.905v19.508c-1.271-0.928-3.039-1.508-5-1.508-3.866 0-7 2.239-7 5s3.134 5 7 5 7-2.239 7-5v-15l6.633-2.211c0.801-0.273 1.367-1.019 1.367-1.897 0-0 0-0 0-0v0-5.892c-0.001-1.104-0.896-1.998-2-1.998-0.224 0-0.438 0.037-0.639 0.104l0.014-0.004zM17 30c-2.946 0-5-1.581-5-3s2.054-3 5-3 5 1.581 5 3-2.054 3-5 3zM30 7.893l-6 2v-5.893h-0.035v-0.008l6.035-1.992z"></path>
</svg>
