<!-- Generated by IcoMoon.io -->
<svg version="1.1" xmlns="http://www.w3.org/2000/svg" width="40" height="32" viewBox="0 0 40 32">
<title>location-slash-solid</title>
<path d="M39.614 28.631l-9.054-6.998c0.604-1.116 1.043-2.334 1.261-3.633h3.179c0.553 0 1-0.448 1-1v-2c0-0.553-0.447-1-1-1h-3.18c-0.844-5.021-4.799-8.976-9.82-9.82v-3.18c0-0.552-0.448-1-1-1h-2c-0.552 0-1 0.448-1 1v3.18c-2.345 0.394-4.453 1.471-6.122 3.015l-9.036-6.984c-0.436-0.339-1.065-0.261-1.404 0.176l-1.228 1.579c-0.339 0.436-0.261 1.064 0.176 1.403l36.773 28.421c0.436 0.339 1.064 0.261 1.404-0.176l1.227-1.579c0.338-0.436 0.26-1.064-0.176-1.403zM27.333 19.14l-2.068-1.599c0.146-0.49 0.235-1.003 0.235-1.541 0-3.037-2.462-5.5-5.5-5.5-1.035 0-1.99 0.3-2.812 0.799l-2.076-1.604c1.353-1.053 3.040-1.695 4.888-1.695 4.419 0 8 3.582 8 8 0 1.121-0.246 2.177-0.667 3.14zM20 24c-3.898 0-7.136-2.791-7.847-6.481l-4.553-3.519h-2.601c-0.553 0-1 0.447-1 1v2c0 0.552 0.447 1 1 1h3.18c0.844 5.021 4.799 8.976 9.82 9.82v3.18c0 0.552 0.448 1 1 1h2c0.552 0 1-0.448 1-1v-3.18c0.879-0.148 1.709-0.422 2.512-0.749l-4.036-3.119c-0.161 0.009-0.313 0.048-0.476 0.048z"></path>
</svg>
