<!-- Generated by IcoMoon.io -->
<svg version="1.1" xmlns="http://www.w3.org/2000/svg" width="32" height="32" viewBox="0 0 32 32">
<title>location</title>
<path d="M31.5 15h-3.551c-0.482-5.828-5.122-10.467-10.949-10.949v-3.551c0-0.276-0.224-0.5-0.5-0.5h-1c-0.276 0-0.5 0.224-0.5 0.5v3.551c-5.828 0.482-10.467 5.122-10.949 10.949h-3.551c-0.276 0-0.5 0.224-0.5 0.5v1c0 0.276 0.224 0.5 0.5 0.5h3.551c0.482 5.828 5.122 10.468 10.949 10.949v3.551c0 0.276 0.224 0.5 0.5 0.5h1c0.276 0 0.5-0.224 0.5-0.5v-3.551c5.828-0.482 10.468-5.122 10.949-10.949h3.551c0.276 0 0.5-0.224 0.5-0.5v-1c0-0.276-0.224-0.5-0.5-0.5zM16 26c-5.514 0-10-4.486-10-10s4.486-10 10-10 10 4.486 10 10-4.486 10-10 10zM16 10c-3.314 0-6 2.686-6 6s2.686 6 6 6 6-2.686 6-6-2.686-6-6-6zM16 20c-2.206 0-4-1.794-4-4s1.794-4 4-4 4 1.794 4 4-1.794 4-4 4z"></path>
</svg>
