<!-- Generated by IcoMoon.io -->
<svg version="1.1" xmlns="http://www.w3.org/2000/svg" width="31" height="32" viewBox="0 0 31 32">
<title>location-circle</title>
<path d="M19.234 9.188l-11.371 5.25c-1.024 0.477-1.549 1.533-1.307 2.628 0.242 1.085 1.146 1.814 2.254 1.814h3.811v3.809c0 1.107 0.729 2.014 1.814 2.254 0.178 0.039 0.356 0.059 0.527 0.059 0.894 0 1.701-0.509 2.101-1.369l5.264-11.403c0.356-0.852 0.146-1.842-0.531-2.521-0.682-0.682-1.67-0.892-2.563-0.521zM15.25 22.792c-0.080 0.17-0.205 0.243-0.383 0.198-0.162-0.036-0.246-0.137-0.246-0.301v-5.809h-5.811c-0.162 0-0.264-0.083-0.301-0.248-0.039-0.174 0.027-0.302 0.195-0.38l11.332-5.232c0.033-0.014 0.063-0.019 0.094-0.019 0.119 0 0.217 0.087 0.25 0.12 0.039 0.039 0.16 0.177 0.106 0.328l-5.236 11.343zM15.5 0.5c-8.561 0-15.5 6.939-15.5 15.5s6.939 15.5 15.5 15.5 15.5-6.939 15.5-15.5-6.939-15.5-15.5-15.5zM15.5 29.5c-7.444 0-13.5-6.056-13.5-13.5s6.056-13.5 13.5-13.5 13.5 6.056 13.5 13.5-6.056 13.5-13.5 13.5z"></path>
</svg>
