<!-- Generated by IcoMoon.io -->
<svg version="1.1" xmlns="http://www.w3.org/2000/svg" width="40" height="32" viewBox="0 0 40 32">
<title>location-slash</title>
<path d="M17.781 10.438l2.012 1.588c0.069-0.006 0.131-0.019 0.206-0.019 1.956 0 3.581 1.412 3.925 3.275l1.988 1.569c0.038-0.275 0.087-0.55 0.087-0.837 0-3.313-2.688-6-6-6-0.788-0.012-1.531 0.15-2.219 0.425zM20 6c5.512 0 10 4.488 10 10 0 1.244-0.256 2.425-0.675 3.525l1.637 1.288c0.519-1.188 0.875-2.462 0.988-3.813h3.55c0.275 0 0.5-0.225 0.5-0.5v-1c0-0.275-0.225-0.5-0.5-0.5h-3.55c-0.481-5.825-5.125-10.469-10.95-10.95v-3.55c0-0.275-0.225-0.5-0.5-0.5h-1c-0.275 0-0.5 0.225-0.5 0.5v3.55c-2.344 0.194-4.475 1.081-6.244 2.425l1.613 1.269c1.606-1.094 3.544-1.744 5.631-1.744zM20 26c-5.512 0-10-4.488-10-10 0-1.244 0.256-2.425 0.675-3.525l-1.637-1.287c-0.519 1.188-0.875 2.463-0.988 3.813h-3.55c-0.275 0-0.5 0.225-0.5 0.5v1c0 0.275 0.225 0.5 0.5 0.5h3.55c0.481 5.825 5.125 10.469 10.95 10.95v3.55c0 0.275 0.225 0.5 0.5 0.5h1c0.275 0 0.5-0.225 0.5-0.5v-3.55c2.344-0.194 4.475-1.081 6.244-2.431l-1.613-1.269c-1.606 1.1-3.544 1.75-5.631 1.75zM39.813 30.325l-38.375-30.212c-0.212-0.175-0.531-0.144-0.7 0.075l-0.625 0.781c-0.175 0.219-0.138 0.531 0.075 0.7l38.375 30.219c0.212 0.175 0.531 0.137 0.7-0.075l0.625-0.781c0.175-0.219 0.144-0.531-0.075-0.706zM22.219 21.563l-2.012-1.587c-0.069 0.006-0.131 0.019-0.206 0.019-1.956 0-3.581-1.413-3.925-3.275l-1.988-1.569c-0.037 0.275-0.088 0.55-0.088 0.838 0 3.313 2.688 6 6 6 0.788 0.012 1.531-0.15 2.219-0.425z"></path>
</svg>
