<!-- Generated by IcoMoon.io -->
<svg version="1.1" xmlns="http://www.w3.org/2000/svg" width="32" height="32" viewBox="0 0 32 32">
<title>location-arrow</title>
<path d="M28.869 0c-0.358 0-0.724 0.069-1.087 0.22l-25.986 11.993c-2.998 1.399-1.999 5.797 1.199 5.797h10.994v10.994c0 1.876 1.513 2.996 3.046 2.996 1.081 0 2.172-0.556 2.751-1.796l11.994-25.986c0.848-2.037-0.897-4.218-2.912-4.218zM29.966 3.38l-11.991 25.979c-0.199 0.426-0.515 0.642-0.939 0.642-0.363 0-1.047-0.208-1.047-0.996v-12.994h-12.992c-0.716 0-0.915-0.552-0.968-0.789-0.069-0.308-0.079-0.874 0.606-1.194l25.918-11.963c0.107-0.044 0.211-0.066 0.318-0.066 0.339 0 0.718 0.228 0.944 0.568 0.137 0.206 0.27 0.526 0.152 0.813z"></path>
</svg>
