<!-- Generated by IcoMoon.io -->
<svg version="1.1" xmlns="http://www.w3.org/2000/svg" width="32" height="32" viewBox="0 0 32 32">
<title>location-solid</title>
<path d="M31 14h-3.18c-0.844-5.021-4.799-8.976-9.82-9.82v-3.18c0-0.552-0.448-1-1-1h-2c-0.553 0-1 0.448-1 1v3.18c-5.021 0.844-8.976 4.799-9.82 9.82h-3.18c-0.552 0-1 0.447-1 1v2c0 0.552 0.448 1 1 1h3.18c0.844 5.021 4.799 8.976 9.82 9.82v3.18c0 0.552 0.447 1 1 1h2c0.552 0 1-0.448 1-1v-3.18c5.021-0.844 8.976-4.799 9.82-9.82h3.18c0.552 0 1-0.448 1-1v-2c0-0.553-0.448-1-1-1zM16 24c-4.419 0-8-3.582-8-8s3.581-8 8-8 8 3.582 8 8-3.581 8-8 8zM16 10.5c-3.037 0-5.5 2.463-5.5 5.5s2.463 5.5 5.5 5.5 5.5-2.462 5.5-5.5-2.462-5.5-5.5-5.5z"></path>
</svg>
