<!-- Generated by IcoMoon.io -->
<svg version="1.1" xmlns="http://www.w3.org/2000/svg" width="28" height="32" viewBox="0 0 28 32">
<title>lock-alt</title>
<path d="M14 26.25c-0.688 0-1.25-0.563-1.25-1.25v-4c0-0.688 0.563-1.25 1.25-1.25s1.25 0.563 1.25 1.25v4c0 0.688-0.563 1.25-1.25 1.25zM28 17v12c0 1.656-1.344 3-3 3h-22c-1.656 0-3-1.344-3-3v-12c0-1.656 1.344-3 3-3h1v-4c0-5.525 4.5-10.019 10.031-10 5.525 0.019 9.969 4.569 9.969 10.094v3.906h1c1.656 0 3 1.344 3 3zM6 14h16v-4c0-4.412-3.587-8-8-8s-8 3.588-8 8v4zM26 29v-12c0-0.55-0.45-1-1-1h-22c-0.55 0-1 0.45-1 1v12c0 0.55 0.45 1 1 1h22c0.55 0 1-0.45 1-1z"></path>
</svg>
