<!-- Generated by IcoMoon.io -->
<svg version="1.1" xmlns="http://www.w3.org/2000/svg" width="40" height="32" viewBox="0 0 40 32">
<title>lock-open-alt</title>
<path d="M14.188 26.063c-0.688 0-1.25-0.563-1.25-1.25v-4c0-0.688 0.563-1.25 1.25-1.25s1.25 0.563 1.25 1.25v4c0 0.688-0.563 1.25-1.25 1.25zM30.031 0c-5.531-0.019-10.031 4.475-10.031 10v4h-17c-1.656 0-3 1.344-3 3v12c0 1.656 1.344 3 3 3h22c1.656 0 3-1.344 3-3v-12c0-1.656-1.344-3-3-3h-3v-3.912c0-4.419 3.544-8.063 7.956-8.088 4.431-0.025 8.044 3.575 8.044 8v5.25c0 0.412 0.337 0.75 0.75 0.75h0.5c0.413 0 0.75-0.338 0.75-0.75v-5.156c0-5.525-4.444-10.075-9.969-10.094zM25 16c0.55 0 1 0.45 1 1v12c0 0.55-0.45 1-1 1h-22c-0.55 0-1-0.45-1-1v-12c0-0.55 0.45-1 1-1h22z"></path>
</svg>
