<!-- Generated by IcoMoon.io -->
<svg version="1.1" xmlns="http://www.w3.org/2000/svg" width="28" height="32" viewBox="0 0 28 32">
<title>lock</title>
<path d="M25 14h-1v-3.906c0-5.525-4.444-10.075-9.969-10.094-5.531-0.019-10.031 4.475-10.031 10v4h-1c-1.656 0-3 1.344-3 3v12c0 1.656 1.344 3 3 3h22c1.656 0 3-1.344 3-3v-12c0-1.656-1.344-3-3-3zM6 10c0-4.412 3.588-8 8-8s8 3.588 8 8v4h-16v-4zM25 30h-22c-0.55 0-1-0.45-1-1v-12c0-0.55 0.45-1 1-1h22c0.55 0 1 0.45 1 1v12c0 0.55-0.45 1-1 1z"></path>
</svg>
