<!-- Generated by IcoMoon.io -->
<svg version="1.1" xmlns="http://www.w3.org/2000/svg" width="28" height="32" viewBox="0 0 28 32">
<title>long-arrow-left-solid</title>
<path d="M12.091 22.348l-4.098-4.098h18.507c0.828 0 1.5-0.672 1.5-1.5v-1.5c0-0.828-0.672-1.5-1.5-1.5h-18.507l4.098-4.098c0.586-0.586 0.586-1.536 0-2.121l-1.061-1.061c-0.586-0.586-1.536-0.586-2.121 0l-8.47 8.47c-0.586 0.586-0.586 1.536 0 2.121l8.47 8.47c0.586 0.586 1.536 0.586 2.121 0l1.061-1.061c0.586-0.586 0.586-1.535 0-2.121z"></path>
</svg>
