<!-- Generated by IcoMoon.io -->
<svg version="1.1" xmlns="http://www.w3.org/2000/svg" width="28" height="32" viewBox="0 0 28 32">
<title>long-arrow-left</title>
<path d="M8.561 23.78l0.442-0.442c0.293-0.293 0.293-0.768 0-1.061l-5.245-5.215h23.493c0.414 0 0.75-0.336 0.75-0.75v-0.625c0-0.414-0.336-0.75-0.75-0.75h-23.493l5.245-5.215c0.293-0.293 0.293-0.768 0-1.061l-0.442-0.442c-0.293-0.293-0.768-0.293-1.061 0l-7.28 7.25c-0.293 0.293-0.293 0.768 0 1.061l7.28 7.25c0.293 0.293 0.768 0.293 1.061-0z"></path>
</svg>
