<!-- Generated by IcoMoon.io -->
<svg version="1.1" xmlns="http://www.w3.org/2000/svg" width="28" height="32" viewBox="0 0 28 32">
<title>long-arrow-right-solid</title>
<path d="M15.909 9.652l4.098 4.098h-18.507c-0.828 0-1.5 0.672-1.5 1.5v1.5c0 0.828 0.672 1.5 1.5 1.5h18.507l-4.098 4.098c-0.586 0.586-0.586 1.536 0 2.121l1.061 1.061c0.586 0.586 1.536 0.586 2.121 0l8.47-8.47c0.586-0.586 0.586-1.536 0-2.121l-8.47-8.47c-0.586-0.586-1.536-0.586-2.121 0l-1.061 1.061c-0.586 0.586-0.586 1.536 0 2.121z"></path>
</svg>
