<!-- Generated by IcoMoon.io -->
<svg version="1.1" xmlns="http://www.w3.org/2000/svg" width="16" height="32" viewBox="0 0 16 32">
<title>long-arrow-down</title>
<path d="M15.78 21.439l-0.442-0.442c-0.293-0.293-0.768-0.293-1.061 0l-5.215 5.245v-23.493c0-0.414-0.336-0.75-0.75-0.75h-0.625c-0.414 0-0.75 0.336-0.75 0.75v23.493l-5.215-5.245c-0.293-0.293-0.768-0.293-1.061 0l-0.442 0.442c-0.293 0.293-0.293 0.768 0 1.061l7.25 7.28c0.293 0.293 0.768 0.293 1.061 0l7.25-7.28c0.293-0.293 0.293-0.768-0-1.061z"></path>
</svg>
