<!-- Generated by IcoMoon.io -->
<svg version="1.1" xmlns="http://www.w3.org/2000/svg" width="16" height="32" viewBox="0 0 16 32">
<title>long-arrow-up</title>
<path d="M0.22 10.561l0.442 0.442c0.293 0.293 0.768 0.293 1.061 0l5.215-5.245v23.493c0 0.414 0.336 0.75 0.75 0.75h0.625c0.414 0 0.75-0.336 0.75-0.75v-23.493l5.215 5.245c0.293 0.293 0.768 0.293 1.061 0l0.442-0.442c0.293-0.293 0.293-0.768 0-1.061l-7.25-7.28c-0.293-0.293-0.768-0.293-1.061 0l-7.25 7.28c-0.293 0.293-0.293 0.768 0 1.061z"></path>
</svg>
