<!-- Generated by IcoMoon.io -->
<svg version="1.1" xmlns="http://www.w3.org/2000/svg" width="20" height="32" viewBox="0 0 20 32">
<title>long-arrow-up-solid</title>
<path d="M3.652 14.091l4.098-4.098v18.507c0 0.828 0.672 1.5 1.5 1.5h1.5c0.828 0 1.5-0.672 1.5-1.5v-18.507l4.098 4.098c0.586 0.586 1.536 0.586 2.121 0l1.061-1.061c0.586-0.586 0.586-1.536 0-2.121l-8.47-8.47c-0.586-0.586-1.536-0.586-2.121 0l-8.47 8.47c-0.586 0.586-0.586 1.536 0 2.121l1.061 1.061c0.586 0.586 1.536 0.586 2.121 0z"></path>
</svg>
