<!-- Generated by IcoMoon.io -->
<svg version="1.1" xmlns="http://www.w3.org/2000/svg" width="20" height="32" viewBox="0 0 20 32">
<title>long-arrow-down-solid</title>
<path d="M16.348 17.909l-4.098 4.098v-18.507c0-0.828-0.672-1.5-1.5-1.5h-1.5c-0.828 0-1.5 0.672-1.5 1.5v18.507l-4.098-4.098c-0.586-0.586-1.536-0.586-2.121 0l-1.061 1.061c-0.586 0.586-0.586 1.536 0 2.121l8.47 8.47c0.586 0.586 1.536 0.586 2.121 0l8.47-8.47c0.586-0.586 0.586-1.536 0-2.121l-1.061-1.061c-0.586-0.586-1.536-0.586-2.121 0z"></path>
</svg>
