<!-- Generated by IcoMoon.io -->
<svg version="1.1" xmlns="http://www.w3.org/2000/svg" width="36" height="32" viewBox="0 0 36 32">
<title>low-vision</title>
<path d="M35.584 14.477c-3.522-5.977-10.093-9.977-17.584-9.977-2.269 0-4.454 0.367-6.496 1.045l-3.886-5.238c-0.25-0.337-0.726-0.407-1.063-0.157l-0.407 0.302c-0.337 0.25-0.407 0.726-0.157 1.063l3.558 4.795c-3.831 1.728-7.028 4.593-9.134 8.167-0.561 0.952-0.545 2.122 0 3.046 1.913 3.246 4.726 5.909 8.096 7.664-6.662-8.983-6.019-8.080-6.373-8.68-0.087-0.145-0.138-0.32-0.138-0.508s0.051-0.362 0.141-0.512l-0.003 0.005c0.367-0.62 0.717-1.14 1.091-1.64l-0.033 0.046 9.598 12.938c0.938 0.244 1.901 0.424 2.886 0.534l-11.166-15.050c0.642-0.684 1.324-1.31 2.051-1.883l0.039-0.030 12.653 17.054c0.776-0.046 1.541-0.136 2.293-0.267l-13.305-17.932c0.077-0.052 0.232-0.146 0.389-0.238l0.086-0.047c0.562-0.334 1.236-0.675 1.933-0.974l0.119-0.045 17.609 23.734c0.25 0.337 0.726 0.407 1.063 0.157l0.407-0.302c0.337-0.25 0.407-0.726 0.157-1.063l-3.557-4.795c3.83-1.727 7.026-4.593 9.133-8.168 0.261-0.436 0.416-0.961 0.416-1.523s-0.154-1.087-0.423-1.537l0.008 0.014zM22.644 20.56l-2.407-3.244c1.72-1.162 2.245-3.417 1.292-5.2v0.001c0 0.91-0.738 1.647-1.647 1.647s-1.648-0.738-1.648-1.648c0-0.909 0.738-1.647 1.648-1.647h0.001c-1.392-0.744-3.137-0.609-4.409 0.426l-2.169-2.923c1.318-0.927 2.94-1.474 4.694-1.474 4.418 0 8 3.47 8 7.75 0 2.602-1.324 4.905-3.356 6.31zM33.861 16.508c-1.994 3.384-5.036 6.015-8.633 7.535l-1.39-1.873c4.64-3.259 5.515-9.595 2.045-13.919 3.395 1.591 6.162 4.159 7.979 7.243 0.087 0.145 0.139 0.32 0.139 0.507s-0.052 0.362-0.141 0.512l0.003-0.005z"></path>
</svg>
