<!-- Generated by IcoMoon.io -->
<svg version="1.1" xmlns="http://www.w3.org/2000/svg" width="36" height="32" viewBox="0 0 36 32">
<title>low-vision-solid</title>
<path d="M35.584 14.477c-3.524-5.98-10.096-9.977-17.584-9.977-1.779 0-3.506 0.226-5.153 0.651l-3.298-4.511c-0.475-0.679-1.41-0.844-2.089-0.369l-0.82 0.574c-0.679 0.475-0.844 1.41-0.369 2.089l2.696 3.65c-3.376 1.649-6.453 4.334-8.549 7.89-0.001 0.001-0.001 0.002-0.002 0.003-0.548 0.93-0.56 2.096 0 3.046 2.406 4.083 6.234 7.241 10.804 8.834l-7.762-11.089c0.558-0.84 1.14-1.573 1.777-2.254l-0.009 0.009 10.003 14.289c0.832 0.119 1.793 0.187 2.77 0.187 0.762 0 1.514-0.041 2.255-0.122l-0.092 0.008-11.874-16.962c0.691-0.468 1.486-0.917 2.316-1.303l0.107-0.045 15.74 22.284c0.475 0.679 1.41 0.844 2.089 0.369l0.82-0.574c0.679-0.475 0.844-1.41 0.369-2.089l-2.695-3.649c3.573-1.749 6.552-4.503 8.551-7.894 0.261-0.436 0.416-0.961 0.416-1.523s-0.155-1.087-0.424-1.537l0.008 0.014zM24.377 21.621l-1.192-1.702c1.543-2.035 1.732-4.772 0.55-6.98v0.002c0 1.478-1.198 2.676-2.676 2.676-1.489 0-2.676-1.209-2.676-2.676 0-1.478 1.198-2.676 2.676-2.676h0.002c-1.547-0.828-3.345-0.978-4.969-0.48l-1.192-1.702c0.96-0.376 2.006-0.583 3.1-0.583 4.698 0 8.5 3.802 8.5 8.5 0 2.156-0.802 4.123-2.123 5.621z"></path>
</svg>
