<!-- Generated by IcoMoon.io -->
<svg version="1.1" xmlns="http://www.w3.org/2000/svg" width="28" height="32" viewBox="0 0 28 32">
<title>luchador</title>
<path d="M14 0c-7.731 0-14 6.269-14 14v8c0 5.525 4.475 10 10 10h8c5.525 0 10-4.475 10-10v-8c0-7.731-6.269-14-14-14zM26 22c0 4.413-3.587 8-8 8h-8c-4.412 0-8-3.587-8-8v-8c0-6.619 5.381-12 12-12s12 5.381 12 12v8zM14.156 14.137c-0.056-0.044-0.262-0.044-0.319 0-0.506-2.369-2.463-4.137-4.838-4.137h-4.25c-0.412 0-0.75 0.338-0.75 0.75v1.919c0 2.944 2.237 5.331 5 5.331h1.4c-0.463 0.762-0.781 1.469-0.988 2.056-1.931 0.288-3.412 1.938-3.412 3.944 0 2.219 1.838 4 4.056 4h7.881c2.219 0 4.056-1.781 4.056-4 0-2.006-1.481-3.656-3.413-3.944-0.206-0.594-0.525-1.294-0.988-2.056h1.406c2.762 0 5-2.387 5-5.331v-1.919c0-0.412-0.337-0.75-0.75-0.75h-4.25c-2.369 0-4.331 1.769-4.844 4.137zM16.419 20h-4.838c0.425-0.925 1.156-2.087 2.419-3.331 1.262 1.244 1.994 2.406 2.419 3.331zM9 16c-1.656 0-3-1.494-3-3.331v-0.669h3c1.656 0 3 1.494 3 3.331v0.544c-0.037 0.044-0.075 0.081-0.113 0.125h-2.887zM20 24c0 1.1-0.9 2-2 2h-8c-1.1 0-2-0.9-2-2s0.9-2 2-2h8c1.1 0 2 0.9 2 2zM22 12.669c0 1.838-1.344 3.331-3 3.331h-2.887c-0.038-0.044-0.075-0.081-0.113-0.125v-0.544c0-1.838 1.344-3.331 3-3.331h3v0.669z"></path>
</svg>
