<!-- Generated by IcoMoon.io -->
<svg version="1.1" xmlns="http://www.w3.org/2000/svg" width="40" height="32" viewBox="0 0 40 32">
<title>luggage-cart-solid</title>
<path d="M14 20h2v-14h-2c-1.104 0-2 0.896-2 2v10c0 1.104 0.896 2 2 2zM36 18v-10c0-1.104-0.896-2-2-2h-2v14h2c1.104 0 2-0.896 2-2zM39 24h-31v-23c0-0.552-0.447-1-1-1h-6c-0.552 0-1 0.448-1 1v2c0 0.553 0.448 1 1 1h3v23c0 0.552 0.447 1 1 1h5.184c-0.112 0.314-0.184 0.648-0.184 1 0 1.657 1.343 3 3 3s3-1.343 3-3c0-0.352-0.072-0.686-0.184-1h12.367c-0.112 0.314-0.184 0.648-0.184 1 0 1.657 1.343 3 3 3s3-1.343 3-3c0-0.352-0.072-0.686-0.184-1h5.184c0.553 0 1-0.448 1-1v-2c0-0.552-0.447-1-1-1zM30 6v-3c0-1.657-1.343-3-3-3h-6c-1.657 0-3 1.343-3 3v17h12v-14zM27 6h-6v-3h6v3z"></path>
</svg>
