<!-- Generated by IcoMoon.io -->
<svg version="1.1" xmlns="http://www.w3.org/2000/svg" width="40" height="32" viewBox="0 0 40 32">
<title>luggage-cart</title>
<path d="M14 22h20c1.104 0 2-0.896 2-2v-12c0-1.104-0.896-2-2-2h-4v-3c0-1.657-1.343-3-3-3h-6c-1.657 0-3 1.343-3 3v3h-4c-1.104 0-2 0.896-2 2v12c0 1.104 0.896 2 2 2zM30 8h4v12h-4v-12zM20 3c0-0.553 0.448-1 1-1h6c0.552 0 1 0.447 1 1v3h-8v-3zM20 8h8v12h-8v-12zM14 8h4v12h-4v-12zM39.5 26h-31.5v-25.5c0-0.276-0.224-0.5-0.5-0.5h-7c-0.276 0-0.5 0.224-0.5 0.5v1c0 0.276 0.224 0.5 0.5 0.5h5.5v25.5c0 0.276 0.224 0.5 0.5 0.5h3.684c-0.112 0.314-0.184 0.648-0.184 1 0 1.657 1.343 3 3 3s3-1.343 3-3c0-0.352-0.072-0.686-0.184-1h12.367c-0.112 0.314-0.184 0.648-0.184 1 0 1.657 1.343 3 3 3s3-1.343 3-3c0-0.352-0.072-0.686-0.184-1h5.684c0.276 0 0.5-0.224 0.5-0.5v-1c0-0.276-0.224-0.5-0.5-0.5zM13 30c-0.551 0-1-0.449-1-1s0.449-1 1-1 1 0.449 1 1-0.449 1-1 1zM31 30c-0.551 0-1-0.449-1-1s0.449-1 1-1 1 0.449 1 1-0.449 1-1 1z"></path>
</svg>
