<!-- Generated by IcoMoon.io -->
<svg version="1.1" xmlns="http://www.w3.org/2000/svg" width="40" height="32" viewBox="0 0 40 32">
<title>lungs-virus-solid</title>
<path d="M21.5 9.418v-8.418c0-0.552-0.448-1-1-1v0h-1c-0.552 0-1 0.448-1 1v0 8.418c0.428-0.262 0.946-0.418 1.5-0.418s1.072 0.155 1.513 0.425l-0.013-0.007zM12.221 27.779c-0.542-0.543-0.877-1.293-0.877-2.121s0.335-1.578 0.877-2.121l0.536-0.536h-0.758c-1.657 0-3-1.343-3-3s1.343-3 3-3v0h0.758l-0.536-0.536c-0.549-0.544-0.888-1.298-0.888-2.131 0-1.657 1.343-3 3-3 0.621 0 1.199 0.189 1.677 0.512l-0.011-0.007v-1.73c0-2.273-1.961-4.109-4.375-4.109-2.75 0-3.625 1.781-5.008 3.946-2.703 4.149-4.885 8.953-6.291 14.078l-0.084 0.36c-0.154 0.551-0.243 1.183-0.243 1.836 0 0.005 0 0.011 0 0.016v-0.001c0 3.828 3.906 6.594 7.828 5.539l3.719-0.992c1.339-0.363 2.465-1.129 3.271-2.158l0.010-0.013c-0.158 0.030-0.339 0.048-0.525 0.048-0.816 0-1.554-0.337-2.082-0.878l-0.001-0.001zM26.364 26.364c0.181-0.181 0.293-0.431 0.293-0.707s-0.112-0.526-0.293-0.707l-0.536-0.536c-1.26-1.26-0.367-3.414 1.414-3.414h0.758c0.552 0 1-0.448 1-1s-0.448-1-1-1v0h-0.758c-1.782 0-2.674-2.154-1.414-3.414l0.536-0.536c0.181-0.181 0.293-0.431 0.293-0.707 0-0.552-0.448-1-1-1-0.276 0-0.526 0.112-0.707 0.293v0l-0.536 0.536c-1.26 1.26-3.414 0.367-3.414-1.414v-0.758c0-0.552-0.448-1-1-1s-1 0.448-1 1v0 0.758c0 1.782-2.154 2.674-3.414 1.414l-0.536-0.536c-0.181-0.181-0.431-0.293-0.707-0.293-0.552 0-1 0.448-1 1 0 0.276 0.112 0.526 0.293 0.707l0.536 0.536c1.26 1.259 0.367 3.414-1.414 3.414h-0.758c-0.552 0-1 0.448-1 1s0.448 1 1 1v0h0.758c1.782 0 2.674 2.154 1.414 3.414l-0.536 0.536c-0.187 0.182-0.303 0.436-0.303 0.717 0 0.552 0.448 1 1 1 0.281 0 0.536-0.116 0.717-0.303l0-0 0.536-0.536c1.26-1.26 3.414-0.367 3.414 1.414v0.758c0 0.552 0.448 1 1 1s1-0.448 1-1v0-0.758c0-1.781 2.154-2.674 3.414-1.414l0.536 0.536c0.181 0.181 0.431 0.293 0.707 0.293s0.526-0.112 0.707-0.293v0zM18 19c-0.552 0-1-0.448-1-1s0.448-1 1-1c0.552 0 1 0.448 1 1v0c0 0.552-0.448 1-1 1v0zM22 23c-0.552 0-1-0.448-1-1s0.448-1 1-1c0.552 0 1 0.448 1 1v0c0 0.552-0.448 1-1 1v0zM39.758 24.383c-1.49-5.484-3.672-10.288-6.496-14.636l0.121 0.199c-1.383-2.164-2.258-3.946-5.008-3.946-2.414 0-4.375 1.836-4.375 4.109v1.732c0.468-0.317 1.045-0.506 1.667-0.506 1.657 0 3 1.343 3 3 0 0.833-0.34 1.587-0.888 2.13l-0 0-0.536 0.533h0.758c1.657 0 3 1.343 3 3s-1.343 3-3 3v0h-0.758l0.536 0.536c0.559 0.543 0.906 1.301 0.906 2.14 0 1.646-1.335 2.981-2.981 2.981-0.188 0-0.372-0.017-0.55-0.051l0.018 0.003c0.816 1.043 1.942 1.809 3.238 2.162l0.043 0.010 3.719 0.992c3.922 1.055 7.828-1.711 7.828-5.539 0-0.004 0-0.010 0-0.015 0-0.653-0.089-1.285-0.254-1.886l0.012 0.050z"></path>
</svg>
