<!-- Generated by IcoMoon.io -->
<svg version="1.1" xmlns="http://www.w3.org/2000/svg" width="40" height="32" viewBox="0 0 40 32">
<title>lungs-solid</title>
<path d="M39.757 24.384c-1.354-5.081-3.502-9.947-6.376-14.439-1.383-2.161-2.254-3.946-5.003-3.946-2.418 0-4.378 1.839-4.378 4.107v3.757l-2.055-1.37c-0.27-0.182-0.445-0.486-0.445-0.832 0-0 0-0 0-0v0-10.662c0-0.552-0.448-1-1-1h-1c-0.552 0-1 0.448-1 1v10.662c0 0.334-0.167 0.646-0.445 0.832l-2.055 1.37v-3.757c0-2.268-1.96-4.107-4.378-4.107-2.749 0-3.621 1.785-5.003 3.946-2.873 4.492-5.021 9.358-6.376 14.439-0.162 0.606-0.243 1.227-0.243 1.852 0 3.827 3.905 6.59 7.827 5.539l3.719-0.997c2.636-0.706 4.454-2.967 4.454-5.539v-5.468l-5.365 3.577c-0.078 0.053-0.174 0.084-0.277 0.084-0.173 0-0.325-0.088-0.415-0.221l-0.001-0.002-0.555-0.832c-0.053-0.078-0.084-0.174-0.084-0.277 0-0.173 0.088-0.325 0.221-0.415l0.002-0.001 10.474-6.982 10.474 6.982c0.135 0.091 0.223 0.243 0.223 0.416 0 0.103-0.031 0.199-0.085 0.279l0.001-0.002-0.555 0.832c-0.091 0.135-0.243 0.223-0.416 0.223-0.103 0-0.199-0.031-0.279-0.085l0.002 0.001-5.365-3.577v5.468c0 2.572 1.817 4.832 4.454 5.539l3.719 0.997c3.922 1.051 7.828-1.712 7.828-5.539 0-0.624-0.081-1.246-0.243-1.852z"></path>
</svg>
