<!-- Generated by IcoMoon.io -->
<svg version="1.1" xmlns="http://www.w3.org/2000/svg" width="40" height="32" viewBox="0 0 40 32">
<title>lungs-virus</title>
<path d="M26.364 26.364c0.181-0.181 0.293-0.431 0.293-0.707s-0.112-0.526-0.293-0.707l-0.536-0.536c-1.26-1.26-0.367-3.414 1.414-3.414h0.758c0.552 0 1-0.448 1-1s-0.448-1-1-1v0h-0.758c-1.781 0-2.674-2.154-1.414-3.414l0.536-0.536c0.175-0.18 0.283-0.426 0.283-0.697 0-0.552-0.448-1-1-1-0.271 0-0.517 0.108-0.697 0.283l0-0-0.536 0.536c-0.355 0.364-0.851 0.59-1.399 0.59h-0c-1.028 0-2.014-0.799-2.014-2.004v-0.758c0-0.552-0.448-1-1-1s-1 0.448-1 1v0 0.758c0 1.206-0.986 2.004-2.014 2.004-0.549-0-1.044-0.226-1.4-0.59l-0-0-0.536-0.536c-0.181-0.181-0.431-0.293-0.707-0.293-0.552 0-1 0.448-1 1 0 0.276 0.112 0.526 0.293 0.707v0l0.536 0.536c1.26 1.26 0.367 3.414-1.414 3.414h-0.758c-0.552 0-1 0.448-1 1s0.448 1 1 1v0h0.758c1.782 0 2.674 2.154 1.414 3.414l-0.536 0.536c-0.187 0.182-0.303 0.436-0.303 0.717 0 0.552 0.448 1 1 1 0.281 0 0.536-0.116 0.717-0.303l0-0 0.536-0.536c0.356-0.363 0.852-0.589 1.4-0.589h0c1.028 0 2.014 0.798 2.014 2.004v0.758c0 0.552 0.448 1 1 1s1-0.448 1-1v0-0.758c0-1.206 0.986-2.004 2.014-2.004 0.548 0 1.044 0.226 1.399 0.589l0 0 0.536 0.536c0.181 0.181 0.431 0.293 0.707 0.293s0.526-0.112 0.707-0.293v0zM23.547 21.469c-0.193 0.453-0.305 0.979-0.305 1.532 0 0.086 0.003 0.171 0.008 0.256l-0.001-0.012c-0.078-0.005-0.155-0.007-0.233-0.007-0.002 0-0.003 0-0.005 0-1.198 0-2.273 0.525-3.008 1.358l-0.004 0.004c-0.739-0.837-1.814-1.363-3.012-1.363-0.001 0-0.002 0-0.002 0h0c-0.078 0-0.156 0-0.234 0.007 0.005-0.071 0.007-0.155 0.007-0.239 0-1.194-0.521-2.267-1.347-3.003l-0.004-0.004c0.83-0.74 1.35-1.812 1.35-3.005 0-0.084-0.003-0.168-0.008-0.251l0.001 0.011c0.078 0.004 0.156 0.007 0.234 0.007 0.001 0 0.002 0 0.003 0 1.198 0 2.274-0.525 3.009-1.358l0.004-0.004c0.739 0.837 1.814 1.363 3.012 1.363 0.001 0 0.001 0 0.002 0h-0c0.078 0 0.156 0 0.233-0.007-0.004 0.070-0.007 0.152-0.007 0.235 0 1.195 0.521 2.269 1.349 3.006l0.004 0.004c-0.447 0.398-0.802 0.888-1.036 1.443l-0.010 0.026zM19 18c-0.552 0-1 0.448-1 1s0.448 1 1 1c0.552 0 1-0.448 1-1v0c0-0.552-0.448-1-1-1v0zM21 20c-0.552 0-1 0.448-1 1s0.448 1 1 1c0.552 0 1-0.448 1-1v0c0-0.552-0.448-1-1-1v0zM12.758 17l-0.009-0.009-0.014 0.009zM21 9.188v-8.688c0-0.276-0.224-0.5-0.5-0.5v0h-1c-0.276 0-0.5 0.224-0.5 0.5v0 8.688c0.297-0.117 0.64-0.184 1-0.184s0.703 0.068 1.019 0.191l-0.019-0.007zM12.572 28.067c-0.433 0.348-0.946 0.617-1.506 0.773l-0.030 0.007c-4.026 1.078-4.128 1.153-4.904 1.153-2.277 0-4.133-1.688-4.133-3.762 0-0.476 0.065-0.936 0.185-1.373l-0.009 0.036c1.435-5.271 3.534-9.887 6.249-14.066l-0.116 0.191c1.739-2.748 2.009-3.026 3.321-3.026s2.38 0.944 2.38 2.106v1.269c0.128-0.022 0.276-0.034 0.427-0.034 0.591 0 1.137 0.19 1.581 0.512l-0.008-0.005v-1.741c0-2.268-1.961-4.106-4.382-4.106-2.75 0-3.625 1.785-5.006 3.945-2.704 4.15-4.887 8.953-6.296 14.077l-0.084 0.36c-0.154 0.554-0.242 1.19-0.242 1.846 0 0.003 0 0.006 0 0.009v-0c0 3.269 2.854 5.762 6.133 5.762 1.132 0 1.529-0.18 5.422-1.222 1.341-0.36 2.469-1.126 3.275-2.156l0.010-0.013c-0.158 0.031-0.34 0.049-0.527 0.049-0.658 0-1.264-0.222-1.747-0.596l0.007 0.005zM39.756 24.385c-1.493-5.485-3.677-10.29-6.502-14.639l0.121 0.199c-1.383-2.16-2.254-3.945-5.006-3.945-2.42 0-4.382 1.839-4.382 4.106v1.744c0.466-0.318 1.042-0.508 1.662-0.508 0.003 0 0.005 0 0.008 0h-0c0.122 0.005 0.236 0.017 0.349 0.035l-0.017-0.002v-1.269c0-1.161 1.067-2.106 2.38-2.106s1.582 0.278 3.32 3.023c2.598 3.988 4.697 8.604 6.052 13.529l0.081 0.346c0.101 0.398 0.165 0.857 0.177 1.33l0 0.008c0 2.076-1.856 3.764-4.134 3.764-0.776 0-0.879-0.075-4.903-1.153-0.59-0.163-1.103-0.431-1.543-0.785l0.008 0.006c-0.477 0.369-1.083 0.591-1.741 0.591-0.186 0-0.368-0.018-0.545-0.052l0.018 0.003c0.816 1.043 1.944 1.809 3.243 2.16l0.043 0.010c3.891 1.041 4.29 1.221 5.421 1.221 3.279 0 6.134-2.493 6.134-5.762-0.001-0.659-0.090-1.297-0.256-1.903l0.012 0.050zM27.242 17h0.023l-0.013-0.009z"></path>
</svg>
