<!-- Generated by IcoMoon.io -->
<svg version="1.1" xmlns="http://www.w3.org/2000/svg" width="40" height="32" viewBox="0 0 40 32">
<title>lungs</title>
<path d="M39.757 24.384c-1.355-5.081-3.505-9.947-6.38-14.439-1.384-2.161-2.256-3.946-5.007-3.946-2.42 0-4.381 1.839-4.381 4.107v4.71l-2.988-1.991v-12.326c0-0.276-0.224-0.5-0.501-0.5h-1.001c-0.276 0-0.501 0.224-0.501 0.5v12.326l-2.988 1.991v-4.71c0-2.268-1.961-4.107-4.381-4.107-2.751 0-3.623 1.785-5.006 3.946-2.875 4.492-5.025 9.358-6.38 14.439-0.162 0.606-0.243 1.227-0.243 1.852 0 3.27 2.854 5.763 6.133 5.763 1.131 0 1.529-0.179 5.421-1.222 2.638-0.706 4.457-2.967 4.457-5.538v-5.617l-2.001 1.333v4.284c0 1.654-1.223 3.137-2.973 3.606-4.026 1.078-4.128 1.154-4.904 1.154-2.278 0-4.132-1.688-4.132-3.763 0-0.45 0.059-0.9 0.176-1.337 1.303-4.886 3.366-9.554 6.133-13.876 1.739-2.746 2.009-3.024 3.321-3.024s2.38 0.945 2.38 2.107v6.043l-6.157 4.102c-0.23 0.153-0.292 0.464-0.139 0.694l0.555 0.832c0.153 0.23 0.464 0.292 0.694 0.139l11.037-7.354 11.037 7.353c0.23 0.153 0.541 0.091 0.694-0.139l0.555-0.832c0.053-0.078 0.084-0.174 0.084-0.277 0-0.173-0.088-0.325-0.221-0.415l-0.002-0.001-6.157-4.102v-6.043c0-1.162 1.067-2.107 2.38-2.107s1.582 0.277 3.321 3.024c2.766 4.321 4.829 8.99 6.133 13.876 0.111 0.401 0.175 0.861 0.176 1.337v0c0 2.075-1.854 3.763-4.132 3.763-0.776 0-0.878-0.076-4.903-1.154-1.751-0.469-2.973-1.952-2.973-3.606v-4.283l-2.001-1.333v5.617c0 2.572 1.819 4.832 4.457 5.538 3.892 1.043 4.29 1.222 5.421 1.222 3.279 0 6.133-2.493 6.133-5.763-0.001-0.625-0.082-1.247-0.244-1.852z"></path>
</svg>
