<!-- Generated by IcoMoon.io -->
<svg version="1.1" xmlns="http://www.w3.org/2000/svg" width="32" height="32" viewBox="0 0 32 32">
<title>mace-solid</title>
<path d="M10.666 18.506l-10.373 10.373c-0.391 0.391-0.391 1.024 0 1.414l1.414 1.414c0.391 0.391 1.024 0.391 1.414 0l10.373-10.373c-1.13-0.756-2.073-1.698-2.806-2.792l-0.023-0.036zM31.311 12.186l-4.687-1.486c-0.788-2.608-2.849-4.637-5.479-5.372l-1.579-4.653c-0.308-0.906-1.091-0.898-1.38 0.014l-1.486 4.688c-2.608 0.787-4.637 2.849-5.372 5.479l-4.652 1.579c-0.906 0.307-0.898 1.091 0.014 1.38l4.687 1.486c0.787 2.608 2.849 4.637 5.479 5.373l1.579 4.652c0.308 0.906 1.091 0.898 1.38-0.014l1.486-4.687c2.608-0.788 4.637-2.849 5.372-5.479l4.652-1.579c0.908-0.308 0.899-1.092-0.012-1.381zM19 15c-1.104 0-2-0.896-2-2s0.896-2 2-2 2 0.896 2 2-0.896 2-2 2z"></path>
</svg>
