<!-- Generated by IcoMoon.io -->
<svg version="1.1" xmlns="http://www.w3.org/2000/svg" width="32" height="32" viewBox="0 0 32 32">
<title>mace</title>
<path d="M31.314 12.432l-4.461-0.893c-0.611-3.297-3.238-5.865-6.558-6.409l-0.986-4.453c-0.201-0.907-0.704-0.902-0.886 0.009l-0.893 4.462c-3.29 0.613-5.851 3.234-6.398 6.547l-4.454 0.986c-0.907 0.201-0.902 0.704 0.009 0.886l4.461 0.893c0.106 0.573 0.293 1.113 0.514 1.636l-11.369 11.369c-0.391 0.391-0.391 1.024 0 1.414l2.829 2.829c0.391 0.391 1.024 0.391 1.414 0l11.375-11.376c0.565 0.238 1.152 0.433 1.774 0.536l0.986 4.455c0.201 0.907 0.704 0.902 0.886-0.009l0.893-4.46c3.299-0.606 5.87-3.23 6.418-6.549l4.454-0.986c0.908-0.201 0.902-0.704-0.008-0.886zM3.828 29.586l-1.414-1.414 10.283-10.283c0.411 0.528 0.892 0.997 1.421 1.407l-10.29 10.291zM19 19c-3.314 0-6-2.686-6-6s2.686-6 6-6 6 2.686 6 6-2.686 6-6 6zM19 10c-1.654 0-3 1.346-3 3s1.346 3 3 3 3-1.346 3-3-1.346-3-3-3zM19 14c-0.551 0-1-0.448-1-1s0.449-1 1-1 1 0.448 1 1-0.449 1-1 1z"></path>
</svg>
