<!-- Generated by IcoMoon.io -->
<svg version="1.1" xmlns="http://www.w3.org/2000/svg" width="32" height="32" viewBox="0 0 32 32">
<title>magic</title>
<path d="M14 6l1-2 2-1-2-1-1-2-1 2-2 1 2 1 1 2zM5 10l1.666-3.333 3.334-1.667-3.334-1.667-1.666-3.333-1.666 3.333-3.334 1.667 3.334 1.667 1.666 3.333zM5 4c0.553 0 1 0.447 1 1s-0.447 1-1 1-1-0.447-1-1 0.447-1 1-1zM27 18l-1.666 3.333-3.334 1.667 3.334 1.667 1.666 3.333 1.666-3.333 3.334-1.667-3.334-1.667-1.666-3.333zM27 24c-0.552 0-1-0.448-1-1s0.448-1 1-1 1 0.448 1 1-0.448 1-1 1zM31.414 4.872l-4.287-4.287c-0.391-0.391-0.902-0.586-1.414-0.586s-1.024 0.195-1.414 0.586l-23.713 23.714c-0.781 0.781-0.781 2.047 0 2.828l4.287 4.287c0.391 0.391 0.902 0.586 1.414 0.586s1.024-0.195 1.414-0.586l23.713-23.713c0.781-0.781 0.781-2.047 0-2.829zM6.287 30l-4.287-4.287 16.149-16.15 4.288 4.287-16.149 16.149zM23.851 12.436l-4.288-4.287 6.15-6.149 4.287 4.287-6.149 6.149z"></path>
</svg>
