<!-- Generated by IcoMoon.io -->
<svg version="1.1" xmlns="http://www.w3.org/2000/svg" width="32" height="32" viewBox="0 0 32 32">
<title>magic-solid</title>
<path d="M14 6l1-2 2-1-2-1-1-2-1 2-2 1 2 1 1 2zM5 10l1.666-3.333 3.334-1.667-3.334-1.667-1.666-3.333-1.666 3.333-3.334 1.667 3.334 1.667 1.666 3.333zM27 18l-1.666 3.333-3.334 1.667 3.334 1.667 1.666 3.333 1.666-3.333 3.334-1.667-3.334-1.667-1.666-3.333zM31.414 5.889l-5.303-5.303c-0.39-0.391-0.902-0.586-1.414-0.586s-1.024 0.195-1.414 0.586l-22.696 22.696c-0.781 0.781-0.781 2.047 0 2.828l5.303 5.303c0.391 0.391 0.902 0.586 1.414 0.586s1.024-0.195 1.414-0.586l22.696-22.697c0.781-0.78 0.781-2.047 0-2.828zM22.466 12.716l-3.182-3.182 5.413-5.412 3.182 3.182-5.413 5.412z"></path>
</svg>
