<!-- Generated by IcoMoon.io -->
<svg version="1.1" xmlns="http://www.w3.org/2000/svg" width="32" height="32" viewBox="0 0 32 32">
<title>magnet</title>
<path d="M23.25 2c-1.244 0-2.25 1.006-2.25 2.25v10.75c0 4-2.5 6-4.994 6-2.5 0-5.006-2-5.006-6v-10.75c0-1.244-1.006-2.25-2.25-2.25h-6.475c-1.25 0-2.263 1.019-2.25 2.275 0.019 1.531 0.038 3.65 0.044 5.725h-0.069v2h0.069c-0.006 1.644-0.025 3.125-0.069 4.081 0 9.419 8.512 15.419 16.050 15.419 7.544 0 15.95-6 15.95-15.419v-11.831c0-1.244-1.006-2.25-2.25-2.25h-6.5zM2.281 4.25h6.469v5.75h-6.431c-0.006-2.088-0.025-4.213-0.038-5.75zM29.75 16.131c-0.006 1.9-0.413 3.706-1.212 5.363-0.744 1.556-1.813 2.95-3.175 4.144-1.288 1.131-2.825 2.056-4.45 2.681-1.594 0.613-3.275 0.938-4.869 0.938s-3.281-0.325-4.887-0.938c-1.637-0.625-3.188-1.556-4.487-2.688-1.375-1.2-2.45-2.594-3.206-4.144-0.806-1.656-1.212-3.456-1.225-5.35 0.044-0.994 0.063-2.481 0.069-4.131h6.444v3c0 3.075 1.181 4.981 2.175 6.037 0.675 0.719 1.469 1.275 2.363 1.656 0.863 0.369 1.781 0.556 2.719 0.556s1.856-0.188 2.719-0.556c0.894-0.381 1.688-0.938 2.356-1.656 0.988-1.056 2.169-2.962 2.169-6.037v-3h6.431c0.006 1.637 0.025 3.131 0.069 4.125zM23.25 10v-5.75h6.469c-0.019 1.537-0.038 3.662-0.038 5.75h-6.431z"></path>
</svg>
