<!-- Generated by IcoMoon.io -->
<svg version="1.1" xmlns="http://www.w3.org/2000/svg" width="32" height="32" viewBox="0 0 32 32">
<title>magnet-solid</title>
<path d="M10.254 9.256h-9.504c-0.414 0-0.75-0.336-0.75-0.75v0-5c0-1.243 1.007-2.25 2.25-2.25v0h6.5c1.243 0 2.25 1.007 2.25 2.25v0 5c0 0.002 0 0.004 0 0.007 0 0.41-0.333 0.743-0.743 0.743-0.001 0-0.002 0-0.003 0h0zM32 8.506v-5.006c0-1.243-1.007-2.25-2.25-2.25v0h-6.5c-1.243 0-2.25 1.007-2.25 2.25v0 5c0 0.414 0.336 0.75 0.75 0.75v0h9.5c0.002 0 0.004 0 0.007 0 0.41 0 0.743-0.333 0.743-0.743 0-0 0-0 0-0.001v0zM21.75 11.256c-0.414 0-0.75 0.336-0.75 0.75v0 3.25c0 8.006-10 7.994-10 0v-3.25c0-0.414-0.336-0.75-0.75-0.75v0h-9.494c0 0-0 0-0 0-0.414 0-0.75 0.336-0.75 0.75 0 0.002 0 0.004 0 0.007v-0c0.006 1.338 0.038 2.519 0 3.331 0 9.413 8.511 15.413 16.047 15.413s15.938-6 15.938-15.419c-0.038-0.8-0.012-2.063 0-3.325 0-0.002 0-0.004 0-0.006 0-0.414-0.336-0.75-0.75-0.75 0 0-0 0-0 0v0z"></path>
</svg>
