<!-- Generated by IcoMoon.io -->
<svg version="1.1" xmlns="http://www.w3.org/2000/svg" width="36" height="32" viewBox="0 0 36 32">
<title>mail-bulk-solid</title>
<path d="M10 28c-1.6 0-3.2-1.4-4-2-4-2.8-5.2-3.8-6-4.4v8.4c0 1.104 0.896 2 2 2h16c1.104 0 2-0.896 2-2v-8.4c-0.8 0.6-2 1.6-6 4.4-0.8 0.6-2.4 2-4 2zM18 16h-16c-1.104 0-2 0.896-2 2v1c1.6 1.2 1.4 1.2 7.2 5.4 0.6 0.4 1.8 1.6 2.8 1.6s2.2-1.2 2.8-1.4c5.8-4.2 5.6-4.2 7.2-5.4v-1.2c0-1.104-0.896-2-2-2zM34 10h-20c-1.104 0-2 0.896-2 2v2h6c2.076 0 3.787 1.589 3.982 3.614l0.018-0.014v8.4h12c1.104 0 2-0.896 2-2v-12c0-1.104-0.896-2-2-2zM32 18h-4v-4h4v4zM10 12c0-2.206 1.794-4 4-4h14v-6c0-1.104-0.896-2-2-2h-20c-1.104 0-2 0.896-2 2v12h6v-2z"></path>
</svg>
