<!-- Generated by IcoMoon.io -->
<svg version="1.1" xmlns="http://www.w3.org/2000/svg" width="36" height="32" viewBox="0 0 36 32">
<title>mailbox</title>
<path d="M27 4h-18c-4.971 0-9 4.029-9 9v0 13c0 1.105 0.895 2 2 2v0h32c1.105 0 2-0.895 2-2v0-13c0-4.971-4.029-9-9-9v0zM16 26h-14v-13c0-3.866 3.134-7 7-7s7 3.134 7 7v0zM34 26h-16v-13c0-2.845-1.346-5.351-3.407-7h12.407c3.864 0.004 6.996 3.136 7 7v0zM31 12h-10.5c-0.276 0-0.5 0.224-0.5 0.5v0 1c0 0.276 0.224 0.5 0.5 0.5v0h5.5v5c0 0.552 0.448 1 1 1v0h4c0.552 0 1-0.448 1-1v0-6c0-0.552-0.448-1-1-1v0zM30 18h-2v-4h2zM11.5 12h-5c-0.276 0-0.5 0.224-0.5 0.5v0 1c0 0.276 0.224 0.5 0.5 0.5v0h5c0.276 0 0.5-0.224 0.5-0.5v0-1c0-0.276-0.224-0.5-0.5-0.5v0z"></path>
</svg>
