<!-- Generated by IcoMoon.io -->
<svg version="1.1" xmlns="http://www.w3.org/2000/svg" width="40" height="32" viewBox="0 0 40 32">
<title>mail-bulk</title>
<path d="M37 6h-22c-1.654 0-3 1.346-3 3v1h2v-1c0-0.553 0.447-1 1-1h22c0.553 0 1 0.447 1 1v14c0 0.552-0.447 1-1 1h-11v2h11c1.654 0 3-1.346 3-3v-14c0-1.654-1.346-3-3-3zM6 3c0-0.553 0.447-1 1-1h18c0.552 0 1 0.447 1 1v1h2v-1c0-1.654-1.346-3-3-3h-18c-1.654 0-3 1.346-3 3v7h2v-7zM35 16c0.553 0 1-0.447 1-1v-4c0-0.553-0.447-1-1-1h-4c-0.552 0-1 0.447-1 1v4c0 0.553 0.448 1 1 1h4zM32 12h2v2h-2v-2zM21 12h-18c-1.654 0-3 1.346-3 3v14c0 1.654 1.346 3 3 3h18c1.654 0 3-1.346 3-3v-14c0-1.654-1.346-3-3-3zM22 29c0 0.552-0.448 1-1 1h-18c-0.553 0-1-0.448-1-1v-9.4c0.8 0.6 2 1.6 6 4.4 0.8 0.6 2.4 2 4 2s3.2-1.4 4-2c4-2.8 5.2-3.8 6-4.4v9.4zM22 17.2c-1.6 1.2-1.4 1.2-7.2 5.4-0.6 0.2-1.8 1.4-2.8 1.4s-2.2-1.2-2.8-1.6c-5.8-4.2-5.6-4.2-7.2-5.4v-2c0-0.553 0.447-1 1-1h18c0.552 0 1 0.447 1 1v2.2z"></path>
</svg>
