<!-- Generated by IcoMoon.io -->
<svg version="1.1" xmlns="http://www.w3.org/2000/svg" width="36" height="32" viewBox="0 0 36 32">
<title>mailbox-solid</title>
<path d="M9 4c-4.971 0-9 4.029-9 9v0 13c0 1.105 0.895 2 2 2v0h16v-15c0-4.971-4.029-9-9-9v0zM14 15c0 0.552-0.448 1-1 1v0h-8c-0.552 0-1-0.448-1-1v0-2c0-0.552 0.448-1 1-1v0h8c0.552 0 1 0.448 1 1v0zM27 4h-11.696c2.835 1.992 4.696 5.28 4.696 9v15h14c1.105 0 2-0.895 2-2v0-13c0-4.971-4.029-9-9-9v0zM32 17c0 0.552-0.448 1-1 1v0h-2c-0.552 0-1-0.448-1-1v0-3h-3.5c-0.276 0-0.5-0.224-0.5-0.5v0-1c0-0.276 0.224-0.5 0.5-0.5v0h6.5c0.552 0 1 0.448 1 1v0z"></path>
</svg>
