<!-- Generated by IcoMoon.io -->
<svg version="1.1" xmlns="http://www.w3.org/2000/svg" width="16" height="32" viewBox="0 0 16 32">
<title>male</title>
<path d="M12.422 8.767c0.677-0.914 1.078-2.045 1.078-3.267 0-3.033-2.467-5.5-5.5-5.5s-5.5 2.467-5.5 5.5c0 1.223 0.401 2.353 1.078 3.267-1.792 0.638-3.078 2.35-3.078 4.358v6.563c0 1.546 1.065 2.849 2.5 3.212v5.788c0 1.826 1.486 3.313 3.312 3.313h3.375c1.826 0 3.313-1.486 3.313-3.313v-5.788c1.435-0.363 2.5-1.665 2.5-3.212v-6.563c0-2.008-1.287-3.72-3.078-4.358zM8 2c1.933 0 3.5 1.567 3.5 3.5s-1.567 3.5-3.5 3.5-3.5-1.567-3.5-3.5 1.567-3.5 3.5-3.5zM13.5 19.688c0 0.725-0.588 1.313-1.313 1.313h-1.188v7.688c0 0.725-0.588 1.313-1.313 1.313h-3.375c-0.725 0-1.313-0.588-1.313-1.313v-7.688h-1.188c-0.725 0-1.313-0.588-1.313-1.313v-6.563c0-1.45 1.175-2.625 2.625-2.625h0.585c1.419 0.653 3.099 0.681 4.58 0h0.585c1.45 0 2.625 1.175 2.625 2.625v6.563z"></path>
</svg>
