<!-- Generated by IcoMoon.io -->
<svg version="1.1" xmlns="http://www.w3.org/2000/svg" width="32" height="32" viewBox="0 0 32 32">
<title>mandolin-solid</title>
<path d="M31.707 3.167l-2.875-2.875c-0.181-0.181-0.431-0.293-0.707-0.293-0.197 0-0.38 0.057-0.535 0.155l0.004-0.002-4 2.504c-0.427 0.271-0.741 0.688-0.872 1.18l-0.003 0.014-0.906 3.508-4.654 4.654c-11.51-0.095-14.284 3.051-15.238 4.006-2.926 2.924-2.47 9.398 1.096 12.966s10.041 4.021 12.965 1.096c0.955-0.954 4.1-3.727 4.005-15.238l4.654-4.653 3.507-0.907c0.506-0.134 0.924-0.447 1.19-0.867l0.005-0.008 2.504-4c0.096-0.151 0.153-0.334 0.153-0.531 0-0.276-0.112-0.527-0.293-0.708v0zM13 22c-1.657 0-3-1.343-3-3s1.343-3 3-3c1.657 0 3 1.343 3 3v0c0 1.657-1.343 3-3 3v0z"></path>
</svg>
