<!-- Generated by IcoMoon.io -->
<svg version="1.1" xmlns="http://www.w3.org/2000/svg" width="32" height="32" viewBox="0 0 32 32">
<title>mandolin</title>
<path d="M31.707 3.167l-2.875-2.875c-0.181-0.181-0.431-0.293-0.707-0.293-0.197 0-0.38 0.057-0.535 0.155l0.004-0.002-4 2.504c-0.427 0.271-0.741 0.688-0.872 1.18l-0.003 0.014-1.152 4.462-3.702 3.702c-0.422-0.008-0.835-0.012-1.234-0.012-11.088 0-13.769 3.076-14.709 4.016-2.926 2.924-2.47 9.397 1.096 12.965 1.997 1.995 4.904 3.017 7.589 3.017 2.113 0 4.089-0.633 5.375-1.921 0.974-0.974 4.239-3.821 4-15.943l3.707-3.703 4.461-1.154c0.506-0.134 0.924-0.447 1.19-0.867l0.005-0.008 2.504-4c0.096-0.151 0.152-0.334 0.152-0.531 0-0.276-0.112-0.526-0.293-0.707v0zM14.671 28.563l-0.102 0.102c-0.848 0.849-2.293 1.336-3.963 1.336-2.308 0-4.674-0.932-6.174-2.431-2.972-2.974-3.089-8.146-1.097-10.137l0.103-0.103c0.791-0.801 3.176-3.188 12.429-3.313l-2.219 2.219c-0.181 0.181-0.293 0.431-0.293 0.707s0.112 0.526 0.293 0.707v0l0.707 0.707c0.181 0.181 0.431 0.293 0.707 0.293s0.526-0.112 0.707-0.293l2.22-2.219c-0.125 9.246-2.499 11.618-3.317 12.426zM27.648 7.343l-4.034 1.043 1.043-4.034 3.325-2.082 1.75 1.75zM10 18c-2.209 0-4 1.791-4 4s1.791 4 4 4c2.209 0 4-1.791 4-4v0c0-2.209-1.791-4-4-4v0zM10 24c-1.105 0-2-0.895-2-2s0.895-2 2-2c1.105 0 2 0.895 2 2v0c0 1.105-0.895 2-2 2v0z"></path>
</svg>
