<!-- Generated by IcoMoon.io -->
<svg version="1.1" xmlns="http://www.w3.org/2000/svg" width="24" height="32" viewBox="0 0 24 32">
<title>map-marker-question-solid</title>
<path d="M12 0c-6.6 0-12 5.4-12 12 0 4.8 1.6 6.2 10.8 19.4 0.6 0.8 1.8 0.8 2.4 0 9.2-13.2 10.8-14.6 10.8-19.4 0-6.6-5.4-12-12-12zM12 22c-1.104 0-2-0.896-2-2s0.896-2 2-2 2 0.896 2 2-0.896 2-2 2zM13.667 14.921v0.089c0 0.547-0.443 0.99-0.99 0.99h-1.020c-0.547 0-0.99-0.443-0.99-0.99v-1.010c0-0.569 0.324-1.089 0.833-1.344 1.913-0.957 3.167-1.659 3.167-2.656 0-1.212-0.876-2.5-2.5-2.5-1.121 0-2.071 0.74-2.387 1.758-0.134 0.431-0.507 0.742-0.958 0.742h-1.053c-0.64 0-1.107-0.598-0.965-1.222 0.557-2.447 2.75-4.278 5.363-4.278 3.442 0 5.5 2.797 5.5 5.5 0 2.559-2.047 3.904-4 4.921z"></path>
</svg>
