<!-- Generated by IcoMoon.io -->
<svg version="1.1" xmlns="http://www.w3.org/2000/svg" width="24" height="32" viewBox="0 0 24 32">
<title>map-marker-edit-solid</title>
<path d="M12 0c-6.6 0-12 5.4-12 12 0 4.8 1.6 6.2 10.8 19.4 0.6 0.8 1.8 0.8 2.4 0 9.2-13.2 10.8-14.6 10.8-19.4 0-6.6-5.4-12-12-12zM9.302 17.697l-2.677 0.3c-0.361 0.039-0.661-0.267-0.622-0.622l0.3-2.677 5.346-5.346 2.999 2.999-5.346 5.346zM17.671 9.328l-1.766 1.766-2.999-2.999 1.766-1.766c0.439-0.439 1.149-0.439 1.588 0l1.411 1.411c0.439 0.438 0.439 1.149 0 1.588z"></path>
</svg>
