<!-- Generated by IcoMoon.io -->
<svg version="1.1" xmlns="http://www.w3.org/2000/svg" width="24" height="32" viewBox="0 0 24 32">
<title>map-marker-plus-solid</title>
<path d="M12 0c-6.6 0-12 5.4-12 12 0 4.8 1.6 6.2 10.8 19.4 0.6 0.8 1.8 0.8 2.4 0 9.2-13.2 10.8-14.6 10.8-19.4 0-6.6-5.4-12-12-12zM19 12.5c0 0.553-0.448 1-1 1h-4.5v4.5c0 0.552-0.447 1-1 1h-1c-0.553 0-1-0.448-1-1v-4.5h-4.5c-0.553 0-1-0.447-1-1v-1c0-0.553 0.447-1 1-1h4.5v-4.5c0-0.553 0.447-1 1-1h1c0.553 0 1 0.447 1 1v4.5h4.5c0.552 0 1 0.447 1 1v1z"></path>
</svg>
