<!-- Generated by IcoMoon.io -->
<svg version="1.1" xmlns="http://www.w3.org/2000/svg" width="32" height="32" viewBox="0 0 32 32">
<title>map-signs-solid</title>
<path d="M31.707 5.293l-2.707-2.708c-0.375-0.375-0.884-0.586-1.414-0.586h-9.586v-1c0-0.552-0.448-1-1-1h-2c-0.553 0-1 0.448-1 1v1h-10.5c-0.828 0-1.5 0.672-1.5 1.5v5c0 0.828 0.672 1.5 1.5 1.5h24.086c0.531 0 1.039-0.211 1.414-0.586l2.707-2.707c0.391-0.391 0.391-1.024 0-1.414zM14 31c0 0.552 0.447 1 1 1h2c0.552 0 1-0.448 1-1v-7h-4v7zM28.5 14h-10.5v-2h-4v2h-9.586c-0.531 0-1.039 0.211-1.414 0.586l-2.707 2.707c-0.391 0.391-0.391 1.024 0 1.414l2.707 2.707c0.375 0.375 0.884 0.586 1.414 0.586h24.086c0.828 0 1.5-0.672 1.5-1.5v-5c0-0.828-0.672-1.5-1.5-1.5z"></path>
</svg>
