<!-- Generated by IcoMoon.io -->
<svg version="1.1" xmlns="http://www.w3.org/2000/svg" width="32" height="32" viewBox="0 0 32 32">
<title>map-signs</title>
<path d="M27.586 12c0.531 0 1.039-0.263 1.414-0.732l2.707-3.384c0.391-0.488 0.391-1.279 0-1.768l-2.707-3.384c-0.375-0.469-0.884-0.732-1.414-0.732h-10.586v-1.5c0-0.276-0.224-0.5-0.5-0.5h-1c-0.276 0-0.5 0.224-0.5 0.5v1.5h-11.5c-0.828 0-1.5 0.839-1.5 1.875v6.25c0 1.036 0.672 1.875 1.5 1.875h11.5v2h-10.586c-0.531 0-1.039 0.263-1.414 0.732l-2.707 3.384c-0.391 0.488-0.391 1.279 0 1.768l2.707 3.383c0.375 0.469 0.884 0.733 1.414 0.733h10.586v7.5c0 0.276 0.224 0.5 0.5 0.5h1c0.276 0 0.5-0.224 0.5-0.5v-7.5h11.5c0.828 0 1.5-0.839 1.5-1.875v-6.25c0-1.036-0.672-1.875-1.5-1.875h-11.5v-2h10.586zM27.984 22h-23.438l-2.4-3 2.403-3h23.449l-0.015 6zM4.016 4h23.438l2.4 3-2.403 3h-23.449l0.015-6z"></path>
</svg>
