<!-- Generated by IcoMoon.io -->
<svg version="1.1" xmlns="http://www.w3.org/2000/svg" width="18" height="32" viewBox="0 0 18 32">
<title>map-pin-solid</title>
<path d="M7 19.809v9.793l1.376 2.064c0.297 0.445 0.951 0.445 1.248 0l1.376-2.064v-9.793c-0.649 0.12-1.316 0.191-2 0.191s-1.351-0.071-2-0.191zM9 0c-4.971 0-9 4.029-9 9s4.029 9 9 9 9-4.029 9-9-4.029-9-9-9zM9 4.75c-2.344 0-4.25 1.906-4.25 4.25 0 0.414-0.336 0.75-0.75 0.75s-0.75-0.336-0.75-0.75c0-3.171 2.58-5.75 5.75-5.75 0.414 0 0.75 0.336 0.75 0.75s-0.336 0.75-0.75 0.75z"></path>
</svg>
