<!-- Generated by IcoMoon.io -->
<svg version="1.1" xmlns="http://www.w3.org/2000/svg" width="24" height="32" viewBox="0 0 24 32">
<title>map-marker-question</title>
<path d="M12 0c-6.6 0-12 5.4-12 12 0 4.8 1.6 6.2 10.8 19.4 0.3 0.4 0.75 0.6 1.2 0.6s0.9-0.2 1.2-0.6c9.2-13.2 10.8-14.6 10.8-19.4 0-6.6-5.4-12-12-12zM12.001 29.626c-1.229-1.761-2.318-3.303-3.281-4.668-6.055-8.584-6.72-9.638-6.72-12.957 0-5.514 4.486-10 10-10s10 4.486 10 10c0 3.319-0.665 4.373-6.72 12.957-0.97 1.376-2.068 2.933-3.279 4.669zM12 18.5c-0.829 0-1.5 0.671-1.5 1.5s0.671 1.5 1.5 1.5 1.5-0.672 1.5-1.5c0-0.829-0.671-1.5-1.5-1.5zM12.043 6c-2.568 0-4.689 1.945-4.969 4.438-0.034 0.298 0.2 0.562 0.5 0.562h1.008c0.247 0 0.456-0.181 0.491-0.426 0.207-1.454 1.46-2.574 2.97-2.574 1.949 0 3 1.546 3 3 0 1.289-1.303 2.033-3.447 3.106-0.33 0.168-0.553 0.505-0.553 0.894 0 0 0 0 0 0v0 1.5c0 0.276 0.224 0.5 0.5 0.5h1c0.276 0 0.5-0.224 0.5-0.5v-0.884c1.979-1.006 4-2.223 4-4.616 0-2.458-1.871-5-5-5z"></path>
</svg>
