<!-- Generated by IcoMoon.io -->
<svg version="1.1" xmlns="http://www.w3.org/2000/svg" width="24" height="32" viewBox="0 0 24 32">
<title>map-marker</title>
<path d="M12 0c-6.627 0-12 5.373-12 12 0 4.838 1.686 6.189 10.767 19.354 0.596 0.861 1.871 0.861 2.467 0 9.081-13.165 10.767-14.516 10.767-19.354 0-6.627-5.373-12-12-12zM12 29.621c-8.706-12.59-10-13.59-10-17.621 0-2.671 1.040-5.182 2.929-7.071s4.4-2.929 7.071-2.929 5.182 1.040 7.071 2.929 2.929 4.4 2.929 7.071c0 4.031-1.293 5.029-10 17.621z"></path>
</svg>
