<!-- Generated by IcoMoon.io -->
<svg version="1.1" xmlns="http://www.w3.org/2000/svg" width="24" height="32" viewBox="0 0 24 32">
<title>map-marker-times-solid</title>
<path d="M12 0c-6.6 0-12 5.4-12 12 0 4.8 1.6 6.2 10.8 19.4 0.6 0.8 1.8 0.8 2.4 0 9.2-13.2 10.8-14.6 10.8-19.4 0-6.6-5.4-12-12-12zM17.303 15.182c0.391 0.391 0.391 1.024 0 1.414l-0.707 0.707c-0.391 0.391-1.024 0.391-1.414 0l-3.182-3.182-3.182 3.182c-0.391 0.391-1.024 0.391-1.414 0l-0.707-0.707c-0.391-0.391-0.391-1.024 0-1.414l3.182-3.182-3.182-3.182c-0.391-0.391-0.391-1.024 0-1.414l0.707-0.707c0.391-0.391 1.024-0.391 1.414 0l3.182 3.182 3.182-3.182c0.391-0.391 1.024-0.391 1.414 0l0.707 0.707c0.391 0.391 0.391 1.024 0 1.414l-3.182 3.182 3.182 3.182z"></path>
</svg>
