<!-- Generated by IcoMoon.io -->
<svg version="1.1" xmlns="http://www.w3.org/2000/svg" width="36" height="32" viewBox="0 0 36 32">
<title>map-marked-alt-solid</title>
<path d="M18 0c-4.349 0-7.875 3.526-7.875 7.875 0 3.516 5.147 9.925 7.119 12.251 0.399 0.471 1.114 0.471 1.512 0 1.972-2.326 7.119-8.735 7.119-12.251 0-4.349-3.526-7.875-7.875-7.875zM18 10.5c-1.45 0-2.625-1.175-2.625-2.625s1.175-2.625 2.625-2.625 2.625 1.175 2.625 2.625-1.175 2.625-2.625 2.625zM1.258 13.497c-0.743 0.303-1.257 1.020-1.258 1.857v15.645c0 0.707 0.714 1.191 1.371 0.929l8.629-3.927v-14.568c-0.553-0.999-1.004-1.971-1.328-2.901l-7.414 2.966zM18 22.479c-0.879 0-1.711-0.386-2.282-1.060-1.229-1.45-2.536-3.101-3.718-4.795v11.375l12 4v-15.374c-1.183 1.693-2.489 3.345-3.718 4.795-0.571 0.673-1.402 1.059-2.282 1.059zM34.629 10.072l-8.629 3.928v18l8.742-3.497c0.743-0.303 1.258-1.020 1.258-1.857v0-15.645c0-0.707-0.714-1.191-1.371-0.929z"></path>
</svg>
