<!-- Generated by IcoMoon.io -->
<svg version="1.1" xmlns="http://www.w3.org/2000/svg" width="36" height="32" viewBox="0 0 36 32">
<title>map-marked-alt</title>
<path d="M35 10c-0.125 0-0.25 0.025-0.375 0.075l-10.625 3.925-0.644-0.225c1.456-2.181 2.644-4.45 2.644-6.088 0-4.25-3.581-7.688-8-7.688s-8 3.444-8 7.688c0 0.738 0.25 1.613 0.65 2.537l-9.394 3.275c-0.756 0.3-1.256 1.037-1.256 1.856v15.644c0 0.575 0.469 1 1 1 0.125 0 0.25-0.025 0.375-0.075l10.625-3.925 10.75 3.794c0.813 0.269 1.688 0.275 2.5 0.012l9.494-3.306c0.763-0.306 1.256-1.038 1.256-1.856v-15.644c0-0.575-0.469-1-1-1zM11 26.238l-9.006 3.325-0.081-14.181 9.088-3.156zM18 2c3.306 0 6 2.55 6 5.688 0 1.688-2.381 5.556-6 9.8-3.619-4.244-6-8.113-6-9.8 0-3.138 2.694-5.688 6-5.688zM23 29.762l-10-3.531v-11.931c1.525 2.206 3.256 4.25 4.231 5.356 0.2 0.231 0.488 0.344 0.769 0.344s0.563-0.113 0.769-0.344c0.8-0.906 2.106-2.444 3.394-4.181l0.837 0.294zM25 29.775v-14.012l9.006-3.325 0.081 14.181zM19.5 8c0-0.831-0.675-1.5-1.5-1.5s-1.5 0.669-1.5 1.5c0 0.825 0.675 1.5 1.5 1.5s1.5-0.669 1.5-1.5z"></path>
</svg>
