<!-- Generated by IcoMoon.io -->
<svg version="1.1" xmlns="http://www.w3.org/2000/svg" width="24" height="32" viewBox="0 0 24 32">
<title>map-marker-exclamation-solid</title>
<path d="M12 0c-6.6 0-12 5.4-12 12 0 4.8 1.6 6.2 10.8 19.4 0.6 0.8 1.8 0.8 2.4 0 9.2-13.2 10.8-14.6 10.8-19.4 0-6.6-5.4-12-12-12zM12 21c-1.104 0-2-0.896-2-2s0.896-2 2-2 2 0.896 2 2-0.896 2-2 2zM13.59 14.099c-0.051 0.511-0.481 0.901-0.995 0.901h-1.19c-0.514 0-0.944-0.389-0.995-0.901l-0.8-8c-0.059-0.589 0.403-1.099 0.995-1.099h2.79c0.592 0 1.054 0.511 0.995 1.099l-0.8 8z"></path>
</svg>
