<!-- Generated by IcoMoon.io -->
<svg version="1.1" xmlns="http://www.w3.org/2000/svg" width="40" height="32" viewBox="0 0 40 32">
<title>map-marker-slash-solid</title>
<path d="M39.614 28.631l-10.713-8.28c2.48-3.756 3.099-5.457 3.099-8.351 0-6.6-5.4-12-12-12-4.262 0-8.015 2.258-10.144 5.633l-7.014-5.422c-0.436-0.339-1.065-0.261-1.404 0.176l-1.228 1.579c-0.339 0.436-0.261 1.064 0.176 1.403l36.772 28.421c0.436 0.339 1.064 0.261 1.404-0.176l1.227-1.579c0.339-0.436 0.261-1.064-0.176-1.403zM18.8 31.4c0.6 0.8 1.8 0.8 2.4 0 1.163-1.668 2.202-3.145 3.134-4.467l-16.117-12.457c0.669 3.284 3.134 6.236 10.583 16.924z"></path>
</svg>
