<!-- Generated by IcoMoon.io -->
<svg version="1.1" xmlns="http://www.w3.org/2000/svg" width="24" height="32" viewBox="0 0 24 32">
<title>map-marker-check-solid</title>
<path d="M12 0c-6.6 0-12 5.4-12 12 0 4.8 1.6 6.2 10.8 19.4 0.6 0.8 1.8 0.8 2.4 0 9.2-13.2 10.8-14.6 10.8-19.4 0-6.6-5.4-12-12-12zM19.13 10.239l-8.19 8.124c-0.269 0.267-0.705 0.266-0.972-0.004l-4.732-4.771c-0.268-0.269-0.266-0.705 0.004-0.973l1.627-1.614c0.269-0.268 0.705-0.266 0.973 0.004l2.634 2.656 6.075-6.026c0.269-0.268 0.705-0.266 0.972 0.004l1.614 1.627c0.267 0.27 0.266 0.705-0.004 0.973z"></path>
</svg>
