<!-- Generated by IcoMoon.io -->
<svg version="1.1" xmlns="http://www.w3.org/2000/svg" width="18" height="32" viewBox="0 0 18 32">
<title>map-pin</title>
<path d="M9 0c-4.971 0-9 4.029-9 9 0 4.628 3.506 8.396 8 8.899v12.902l0.688 1.032c0.149 0.223 0.476 0.223 0.624 0l0.688-1.032v-12.902c4.494-0.503 8-4.271 8-8.899 0-4.971-4.029-9-9-9zM9 16c-3.86 0-7-3.14-7-7s3.14-7 7-7 7 3.14 7 7-3.14 7-7 7zM9 4c-2.758 0-5 2.243-5 5 0 0.553 0.447 1 1 1s1-0.447 1-1c0-1.654 1.346-3 3-3 0.553 0 1-0.447 1-1s-0.447-1-1-1z"></path>
</svg>
