<!-- Generated by IcoMoon.io -->
<svg version="1.1" xmlns="http://www.w3.org/2000/svg" width="24" height="32" viewBox="0 0 24 32">
<title>map-marker-edit</title>
<path d="M12 0c-6.6 0-12 5.4-12 12 0 4.8 1.6 6.2 10.8 19.4 0.3 0.4 0.75 0.6 1.2 0.6s0.9-0.2 1.2-0.6c9.2-13.2 10.8-14.6 10.8-19.4 0-6.6-5.4-12-12-12zM12.001 29.625c-1.229-1.761-2.318-3.303-3.281-4.668-6.055-8.584-6.72-9.637-6.72-12.957 0-5.514 4.486-10 10-10s10 4.486 10 10c0 3.319-0.665 4.373-6.72 12.957-0.97 1.376-2.068 2.933-3.279 4.668zM16.001 6.584c-0.781-0.779-2.047-0.779-2.828 0l-5.881 5.881c-0.125 0.126-0.215 0.282-0.26 0.454l-1 3.828c-0.090 0.344 0.008 0.709 0.26 0.96 0.189 0.191 0.445 0.293 0.707 0.293 0.084 0 0.17-0.011 0.252-0.032l3.828-1c0.172-0.045 0.33-0.134 0.455-0.261l5.881-5.881c0.779-0.779 0.779-2.049 0-2.828l-1.414-1.414zM10.313 15.101l-1.914 0.5 0.5-1.913 5.689-5.689 1.414 1.414-5.689 5.689z"></path>
</svg>
