<!-- Generated by IcoMoon.io -->
<svg version="1.1" xmlns="http://www.w3.org/2000/svg" width="40" height="32" viewBox="0 0 40 32">
<title>map-marker-slash</title>
<path d="M20 2c5.512 0 10 4.487 10 10 0 2.169-0.294 3.381-2.175 6.344l1.581 1.244c2.087-3.262 2.594-4.887 2.594-7.588 0-6.6-5.4-12-12-12-3.856 0-7.294 1.856-9.494 4.706l1.588 1.25c1.825-2.388 4.675-3.956 7.906-3.956zM23.281 24.956c-0.969 1.375-2.069 2.931-3.281 4.669-1.231-1.762-2.319-3.306-3.281-4.669-6.056-8.581-6.719-9.637-6.719-12.956 0-0.019 0.006-0.031 0.006-0.050l-1.894-1.494c-0.069 0.506-0.112 1.019-0.112 1.544 0 4.8 1.6 6.2 10.8 19.4 0.3 0.4 0.75 0.6 1.2 0.6s0.9-0.2 1.2-0.6c1.925-2.756 3.5-4.981 4.813-6.85l-1.575-1.238c-0.363 0.519-0.744 1.063-1.156 1.644zM39.813 30.325l-38.375-30.212c-0.212-0.175-0.531-0.144-0.7 0.075l-0.625 0.781c-0.175 0.219-0.138 0.531 0.075 0.7l38.375 30.219c0.212 0.175 0.531 0.137 0.7-0.075l0.625-0.781c0.175-0.219 0.144-0.531-0.075-0.706z"></path>
</svg>
