<!-- Generated by IcoMoon.io -->
<svg version="1.1" xmlns="http://www.w3.org/2000/svg" width="24" height="32" viewBox="0 0 24 32">
<title>map-marker-times</title>
<path d="M12 0c-6.6 0-12 5.4-12 12 0 4.8 1.6 6.2 10.8 19.4 0.3 0.4 0.75 0.6 1.2 0.6s0.9-0.2 1.2-0.6c9.2-13.2 10.8-14.6 10.8-19.4 0-6.6-5.4-12-12-12zM12.001 29.625c-1.229-1.761-2.318-3.303-3.281-4.668-6.055-8.584-6.72-9.637-6.72-12.957 0-5.514 4.486-10 10-10s10 4.486 10 10c0 3.319-0.665 4.373-6.72 12.957-0.97 1.376-2.068 2.933-3.279 4.668zM16.596 8.111l-0.707-0.707c-0.098-0.098-0.226-0.146-0.354-0.146s-0.256 0.049-0.354 0.146l-3.182 3.182-3.182-3.182c-0.098-0.098-0.226-0.146-0.354-0.146s-0.256 0.049-0.354 0.146l-0.707 0.707c-0.195 0.195-0.195 0.512 0 0.707l3.182 3.182-3.182 3.182c-0.195 0.195-0.195 0.512 0 0.707l0.707 0.707c0.098 0.098 0.226 0.146 0.354 0.146s0.256-0.049 0.354-0.146l3.182-3.181 3.182 3.182c0.098 0.098 0.226 0.146 0.354 0.146s0.256-0.049 0.354-0.146l0.707-0.707c0.195-0.195 0.195-0.512 0-0.707l-3.182-3.183 3.182-3.182c0.090-0.091 0.146-0.216 0.146-0.354s-0.056-0.263-0.146-0.354v0z"></path>
</svg>
