<!-- Generated by IcoMoon.io -->
<svg version="1.1" xmlns="http://www.w3.org/2000/svg" width="24" height="32" viewBox="0 0 24 32">
<title>map-marker-smile-solid</title>
<path d="M12 0c-6.6 0-12 5.4-12 12 0 4.8 1.6 6.2 10.8 19.4 0.6 0.8 1.8 0.8 2.4 0 9.2-13.2 10.8-14.6 10.8-19.4 0-6.6-5.4-12-12-12zM16 7.322c0.926 0 1.677 0.751 1.677 1.678s-0.751 1.678-1.678 1.678-1.678-0.751-1.678-1.678 0.751-1.678 1.678-1.678zM8 7.322c0.926 0 1.678 0.751 1.678 1.678s-0.751 1.678-1.678 1.678-1.678-0.751-1.678-1.678 0.751-1.678 1.678-1.678zM18.261 16.133c-1.554 1.822-3.837 2.867-6.261 2.867-2.422 0-4.704-1.045-6.26-2.866-0.359-0.42-0.309-1.051 0.111-1.409 0.418-0.358 1.051-0.311 1.409 0.111 1.176 1.376 2.904 2.165 4.74 2.165 1.838 0 3.564-0.789 4.739-2.166 0.361-0.421 0.991-0.471 1.41-0.111 0.42 0.359 0.47 0.991 0.111 1.411z"></path>
</svg>
