<!-- Generated by IcoMoon.io -->
<svg version="1.1" xmlns="http://www.w3.org/2000/svg" width="24" height="32" viewBox="0 0 24 32">
<title>map-marker-smile</title>
<path d="M12 0c-6.6 0-12 5.4-12 12 0 4.8 1.6 6.2 10.8 19.4 0.3 0.4 0.75 0.6 1.2 0.6s0.9-0.2 1.2-0.6c9.2-13.2 10.8-14.6 10.8-19.4 0-6.6-5.4-12-12-12zM12.001 29.625c-1.229-1.761-2.318-3.303-3.281-4.668-6.055-8.584-6.72-9.637-6.72-12.957 0-5.514 4.486-10 10-10s10 4.486 10 10c0 3.319-0.665 4.373-6.72 12.957-0.97 1.376-2.068 2.932-3.279 4.668zM16 11.5c0.828 0 1.5-0.672 1.5-1.5s-0.672-1.5-1.5-1.5-1.5 0.671-1.5 1.5c0 0.828 0.672 1.5 1.5 1.5zM16.74 14.834c-1.176 1.377-2.902 2.166-4.74 2.166s-3.564-0.789-4.74-2.165c-0.357-0.421-0.99-0.465-1.408-0.111-0.422 0.359-0.471 0.99-0.111 1.41 1.554 1.821 3.836 2.866 6.259 2.866s4.705-1.045 6.26-2.867c0.359-0.42 0.309-1.052-0.111-1.41-0.416-0.357-1.049-0.309-1.409 0.111zM8 11.5c0.828 0 1.5-0.672 1.5-1.5s-0.672-1.5-1.5-1.5-1.5 0.671-1.5 1.5c0 0.828 0.672 1.5 1.5 1.5z"></path>
</svg>
