<!-- Generated by IcoMoon.io -->
<svg version="1.1" xmlns="http://www.w3.org/2000/svg" width="36" height="32" viewBox="0 0 36 32">
<title>map</title>
<path d="M35.001 2c-0.123 0-0.249 0.023-0.373 0.072l-10.629 3.928-10.75-3.795c-0.377-0.13-0.812-0.205-1.265-0.205h-0c-0.418 0-0.836 0.066-1.238 0.196l-9.489 3.301c-0.743 0.303-1.257 1.020-1.258 1.857v21.645c0 0.574 0.471 1.001 0.999 1.001 0.122 0 0.248-0.023 0.372-0.073l10.628-3.927 10.75 3.794c0.378 0.13 0.813 0.206 1.266 0.206 0.442 0 0.868-0.072 1.266-0.204l-0.028 0.008 9.489-3.301c0.743-0.303 1.258-1.020 1.258-1.857v0-21.645c0-0.574-0.471-1.001-0.999-1.001zM1.914 7.386l9.086-3.161v20.012l-9.006 3.328-0.080-20.179zM13 24.232v-19.994l10 3.53v19.994l-10-3.53zM25 27.774v-20.012l9.006-3.329 0.080 20.179-9.086 3.161z"></path>
</svg>
