<!-- Generated by IcoMoon.io -->
<svg version="1.1" xmlns="http://www.w3.org/2000/svg" width="32" height="32" viewBox="0 0 32 32">
<title>marker</title>
<path d="M26.337 0c-1.448 0-2.896 0.552-4 1.657l-0.392 0.392-1.464-1.464c-0.781-0.781-2.047-0.781-2.828 0l-8.13 8.132c-0.195 0.195-0.195 0.512 0 0.707l0.707 0.707c0.195 0.195 0.512 0.195 0.707 0l8.131-8.131 1.464 1.464-14.659 14.662c-3.176 3.177-5.312 7.395-5.851 12.099l-0.009 0.094-0.002 0.014c-0.1 0.898 0.608 1.666 1.487 1.666 0.056 0 0.111-0.003 0.168-0.009 4.803-0.545 9.026-2.682 12.206-5.862l16.467-16.469c3.571-3.572 0.997-9.659-4-9.659zM12.457 24.714c-2.812 2.813-6.494 4.651-10.379 5.212 0.571-3.915 2.406-7.582 5.207-10.385l4.919-4.92 5.172 5.173-4.919 4.92zM28.923 8.244l-10.133 10.135-5.172-5.173 10.133-10.135c0.691-0.691 1.609-1.071 2.586-1.071 2.020 0 3.657 1.635 3.657 3.658-0.001 0.977-0.381 1.896-1.072 2.586z"></path>
</svg>
