<!-- Generated by IcoMoon.io -->
<svg version="1.1" xmlns="http://www.w3.org/2000/svg" width="32" height="32" viewBox="0 0 32 32">
<title>marker-solid</title>
<path d="M5.872 18.127c-3.177 3.177-5.313 7.395-5.852 12.098l-0.009 0.094-0.002 0.014c-0.106 0.955 0.701 1.763 1.656 1.657 4.804-0.545 9.028-2.682 12.209-5.863l4.713-4.713-8.001-8.001-4.713 4.713zM30.343 1.657c-2.209-2.209-5.792-2.209-8.001 0l-1.36 1.36-2.285-2.284c-0.976-0.976-2.559-0.976-3.535 0l-6.508 6.508c-0.391 0.391-0.391 1.024 0 1.414l1.414 1.414c0.391 0.391 1.024 0.391 1.414 0l5.447-5.447 1.224 1.224-6.155 6.154 8.001 8.001 10.343-10.343c2.209-2.209 2.209-5.791 0-8.001z"></path>
</svg>
