<!-- Generated by IcoMoon.io -->
<svg version="1.1" xmlns="http://www.w3.org/2000/svg" width="18" height="32" viewBox="0 0 18 32">
<title>mars-stroke-v-solid</title>
<path d="M15.363 14.637c-1.244-1.244-2.762-2.050-4.363-2.412v-1.588h1.25c0.412 0 0.75-0.338 0.75-0.75v-2.5c0-0.412-0.338-0.75-0.75-0.75h-1.25v-1.55h1.494c0.669 0 1-0.806 0.531-1.281l-3.494-3.487c-0.294-0.294-0.769-0.294-1.063 0l-3.494 3.494c-0.475 0.475-0.138 1.281 0.531 1.281h1.494v1.544h-1.25c-0.412 0-0.75 0.338-0.75 0.75v2.5c0 0.412 0.338 0.75 0.75 0.75h1.25v1.588c-1.6 0.363-3.119 1.169-4.362 2.412-3.513 3.512-3.513 9.213 0 12.725s9.213 3.512 12.725 0c3.519-3.512 3.519-9.212 0-12.725zM12.537 24.538c-1.95 1.95-5.119 1.95-7.069 0s-1.95-5.119 0-7.069c1.95-1.95 5.119-1.95 7.069 0 1.95 1.944 1.95 5.119 0 7.069z"></path>
</svg>
