<!-- Generated by IcoMoon.io -->
<svg version="1.1" xmlns="http://www.w3.org/2000/svg" width="24" height="32" viewBox="0 0 24 32">
<title>mars-stroke-solid</title>
<path d="M23.25 4h-4.938c-0.669 0-1 0.806-0.531 1.281l1.056 1.056-1.094 1.094-0.881-0.881c-0.294-0.294-0.769-0.294-1.063 0l-1.769 1.762c-0.294 0.294-0.294 0.769 0 1.063l0.881 0.881-1.125 1.125c-1.387-0.875-3.031-1.381-4.794-1.381-4.963 0-8.994 4.031-8.994 9s4.031 9 9 9 9-4.031 9-9c0-1.762-0.506-3.406-1.381-4.794l1.125-1.125 0.881 0.881c0.294 0.294 0.769 0.294 1.063 0l1.769-1.769c0.294-0.294 0.294-0.769 0-1.063l-0.881-0.881 1.094-1.094 1.056 1.056c0.475 0.475 1.281 0.137 1.281-0.531v-4.931c-0.006-0.412-0.344-0.75-0.756-0.75zM9 24c-2.756 0-5-2.244-5-5s2.244-5 5-5 5 2.244 5 5-2.244 5-5 5z"></path>
</svg>
