<!-- Generated by IcoMoon.io -->
<svg version="1.1" xmlns="http://www.w3.org/2000/svg" width="24" height="32" viewBox="0 0 24 32">
<title>mars</title>
<path d="M23.25 4h-5.5c-0.413 0-0.75 0.338-0.75 0.75v0.5c0 0.412 0.337 0.75 0.75 0.75h2.837l-5.969 5.969c-1.544-1.231-3.494-1.969-5.619-1.969-4.969 0-9 4.031-9 9s4.031 9 9 9 9-4.031 9-9c0-2.125-0.738-4.075-1.969-5.619l5.969-5.969v2.838c0 0.412 0.337 0.75 0.75 0.75h0.5c0.413 0 0.75-0.338 0.75-0.75v-5.5c0-0.412-0.337-0.75-0.75-0.75zM9 26c-3.869 0-7-3.125-7-7 0-3.869 3.125-7 7-7 3.869 0 7 3.125 7 7 0 3.869-3.125 7-7 7z"></path>
</svg>
