<!-- Generated by IcoMoon.io -->
<svg version="1.1" xmlns="http://www.w3.org/2000/svg" width="24" height="32" viewBox="0 0 24 32">
<title>mars-stroke</title>
<path d="M23.25 4h-5.5c-0.413 0-0.75 0.338-0.75 0.75v0.5c0 0.412 0.337 0.75 0.75 0.75h2.837l-3.1 3.1-1.944-1.944c-0.294-0.294-0.769-0.294-1.063 0l-0.356 0.356c-0.294 0.294-0.294 0.769 0 1.062l1.944 1.944-1.456 1.456c-1.537-1.238-3.488-1.975-5.613-1.975-4.969 0-9 4.031-9 9s4.031 9 9 9 9-4.031 9-9c0-2.125-0.738-4.075-1.969-5.619l1.456-1.456 1.944 1.944c0.294 0.294 0.769 0.294 1.063 0l0.356-0.356c0.294-0.294 0.294-0.769 0-1.063l-1.944-1.944 3.1-3.1v2.844c0 0.412 0.337 0.75 0.75 0.75h0.5c0.413 0 0.75-0.338 0.75-0.75v-5.5c-0.006-0.412-0.344-0.75-0.756-0.75zM9 26c-3.869 0-7-3.125-7-7 0-3.869 3.125-7 7-7 3.869 0 7 3.125 7 7 0 3.869-3.125 7-7 7z"></path>
</svg>
