<!-- Generated by IcoMoon.io -->
<svg version="1.1" xmlns="http://www.w3.org/2000/svg" width="32" height="32" viewBox="0 0 32 32">
<title>mars-double-solid</title>
<path d="M21.25 0h-4.938c-0.669 0-1 0.806-0.531 1.281l1.056 1.056-3.044 3.044c-1.387-0.875-3.031-1.381-4.794-1.381-4.969 0-9 4.031-9 9s4.031 9 9 9 9-4.031 9-9c0-1.762-0.506-3.406-1.381-4.794l3.044-3.044 1.056 1.056c0.15 0.15 0.344 0.219 0.525 0.219 0.387 0 0.756-0.3 0.756-0.75v-4.938c0-0.412-0.337-0.75-0.75-0.75zM9 18c-2.756 0-5-2.244-5-5s2.244-5 5-5 5 2.244 5 5-2.244 5-5 5zM31.25 9.994h-4.938c-0.669 0-1 0.806-0.531 1.281l1.056 1.056-3.044 3.044c-1.137-0.713-2.438-1.181-3.844-1.331-0.131 1.363-0.512 2.706-1.15 3.956 0.069 0 0.137-0.006 0.2-0.006 2.756 0 5 2.244 5 5s-2.244 5-5 5-5-2.244-5-5c0-0.069 0-0.137 0.006-0.2-1.25 0.637-2.594 1.025-3.956 1.15 0.475 4.531 4.3 8.056 8.95 8.056 4.969 0 9-4.031 9-9 0-1.762-0.506-3.406-1.381-4.794l3.044-3.044 1.056 1.056c0.15 0.15 0.337 0.219 0.525 0.219 0.387 0 0.756-0.3 0.756-0.75v-4.938c0-0.419-0.337-0.756-0.75-0.756z"></path>
</svg>
