<!-- Generated by IcoMoon.io -->
<svg version="1.1" xmlns="http://www.w3.org/2000/svg" width="18" height="32" viewBox="0 0 18 32">
<title>mars-stroke-v</title>
<path d="M15.363 14.637c-1.5-1.5-3.406-2.363-5.363-2.581v-2.056h2.75c0.412 0 0.75-0.338 0.75-0.75v-0.5c0-0.412-0.338-0.75-0.75-0.75h-2.75v-4.388l2.006 2.006c0.294 0.294 0.769 0.294 1.063 0l0.356-0.356c0.294-0.294 0.294-0.769 0-1.063l-3.894-3.881c-0.294-0.294-0.769-0.294-1.063 0l-3.888 3.888c-0.294 0.294-0.294 0.769 0 1.063l0.356 0.356c0.294 0.294 0.769 0.294 1.063 0l2-2.013v4.388h-2.75c-0.412 0-0.75 0.337-0.75 0.75v0.5c0 0.412 0.338 0.75 0.75 0.75h2.75v2.056c-1.963 0.219-3.862 1.075-5.362 2.581-3.513 3.512-3.513 9.213 0 12.725s9.213 3.512 12.725 0c3.519-3.512 3.519-9.212 0-12.725zM9 28c-3.869 0-7-3.125-7-7 0-3.869 3.125-7 7-7 3.869 0 7 3.125 7 7 0 3.869-3.125 7-7 7z"></path>
</svg>
