<!-- Generated by IcoMoon.io -->
<svg version="1.1" xmlns="http://www.w3.org/2000/svg" width="30" height="32" viewBox="0 0 30 32">
<title>mars-stroke-h-solid</title>
<path d="M29.762 15.469l-3.494-3.494c-0.475-0.475-1.281-0.137-1.281 0.531v1.494h-1.488v-1.25c0-0.412-0.337-0.75-0.75-0.75h-2.5c-0.413 0-0.75 0.338-0.75 0.75v1.25h-1.725c-0.363-1.6-1.169-3.119-2.412-4.363-3.513-3.513-9.213-3.513-12.725 0s-3.513 9.213 0 12.725c3.513 3.512 9.213 3.512 12.725 0 1.244-1.244 2.050-2.762 2.412-4.363h1.725v1.25c0 0.413 0.337 0.75 0.75 0.75h2.5c0.413 0 0.75-0.337 0.75-0.75v-1.25h1.494v1.494c0 0.669 0.806 1 1.281 0.531l3.494-3.494c0.288-0.294 0.288-0.769-0.006-1.063zM12.537 19.538c-1.95 1.95-5.119 1.95-7.069 0s-1.95-5.119 0-7.069c1.95-1.95 5.119-1.95 7.069 0 1.95 1.944 1.95 5.119 0 7.069z"></path>
</svg>
