<!-- Generated by IcoMoon.io -->
<svg version="1.1" xmlns="http://www.w3.org/2000/svg" width="30" height="32" viewBox="0 0 30 32">
<title>mars-stroke-h</title>
<path d="M29.681 15.469l-3.887-3.887c-0.294-0.294-0.769-0.294-1.063 0l-0.356 0.356c-0.294 0.294-0.294 0.769 0 1.063l2.006 2.006h-4.381v-2.75c0-0.412-0.337-0.75-0.75-0.75h-0.5c-0.413 0-0.75 0.338-0.75 0.75v2.75h-2.056c-0.219-1.963-1.075-3.862-2.581-5.362-3.512-3.513-9.213-3.513-12.725 0s-3.513 9.213 0 12.725c3.513 3.512 9.213 3.512 12.725 0 1.5-1.5 2.363-3.406 2.581-5.363h2.056v2.75c0 0.413 0.337 0.75 0.75 0.75h0.5c0.413 0 0.75-0.337 0.75-0.75v-2.75h4.387l-2.006 2.006c-0.294 0.294-0.294 0.769 0 1.063l0.356 0.356c0.294 0.294 0.769 0.294 1.063 0l3.887-3.887c0.288-0.306 0.288-0.781-0.006-1.075zM9 23c-3.869 0-7-3.125-7-7 0-3.869 3.125-7 7-7 3.869 0 7 3.125 7 7 0 3.869-3.125 7-7 7z"></path>
</svg>
