<!-- Generated by IcoMoon.io -->
<svg version="1.1" xmlns="http://www.w3.org/2000/svg" width="32" height="32" viewBox="0 0 32 32">
<title>mars-double</title>
<path d="M18 13c0-2.125-0.738-4.075-1.969-5.619l3.969-3.969v2.838c0 0.412 0.337 0.75 0.75 0.75h0.5c0.413 0 0.75-0.338 0.75-0.75v-5.5c0-0.412-0.337-0.75-0.75-0.75h-5.5c-0.412 0-0.75 0.338-0.75 0.75v0.5c0 0.413 0.338 0.75 0.75 0.75h2.837l-3.969 3.969c-1.544-1.231-3.494-1.969-5.619-1.969-4.969 0-9 4.031-9 9s4.031 9 9 9 9-4.031 9-9zM9 20c-3.869 0-7-3.125-7-7 0-3.869 3.125-7 7-7 3.869 0 7 3.125 7 7 0 3.869-3.125 7-7 7zM32 10.75v5.5c0 0.413-0.337 0.75-0.75 0.75h-0.5c-0.413 0-0.75-0.337-0.75-0.75v-2.838l-3.969 3.969c1.231 1.544 1.969 3.494 1.969 5.619 0 4.969-4.031 9-9 9-4.65 0-8.475-3.525-8.95-8.050 0.669-0.063 1.325-0.188 1.975-0.375 0.287 3.594 3.294 6.425 6.975 6.425 3.875 0 7-3.131 7-7 0-3.688-2.837-6.688-6.425-6.975 0.188-0.65 0.306-1.306 0.375-1.975 1.756 0.181 3.363 0.875 4.669 1.919l3.969-3.969h-2.837c-0.413 0-0.75-0.338-0.75-0.75v-0.5c0-0.412 0.337-0.75 0.75-0.75h5.5c0.413 0 0.75 0.338 0.75 0.75z"></path>
</svg>
