<!-- Generated by IcoMoon.io -->
<svg version="1.1" xmlns="http://www.w3.org/2000/svg" width="40" height="32" viewBox="0 0 40 32">
<title>mask-solid</title>
<path d="M20.042 4c-27.663 0-22.348 24-9.904 24 2.494 0 4.842-1.293 6.339-3.491l1.608-2.362c0.979-1.437 2.936-1.437 3.914 0l1.608 2.362c1.496 2.198 3.844 3.491 6.338 3.491 11.866 0 18.164-24-9.904-24zM11.5 19.273c-2.566 0-4.235-1.604-5.005-2.566-0.327-0.408-0.327-1.006 0-1.414 0.77-0.963 2.438-2.566 5.005-2.566s4.235 1.604 5.005 2.566c0.327 0.408 0.327 1.006 0 1.414-0.77 0.962-2.439 2.566-5.005 2.566zM28.5 19.273c-2.566 0-4.235-1.604-5.005-2.566-0.327-0.408-0.327-1.006 0-1.414 0.77-0.963 2.438-2.566 5.005-2.566s4.235 1.604 5.005 2.566c0.327 0.408 0.327 1.006 0 1.414-0.77 0.962-2.439 2.566-5.005 2.566z"></path>
</svg>
