<!-- Generated by IcoMoon.io -->
<svg version="1.1" xmlns="http://www.w3.org/2000/svg" width="40" height="32" viewBox="0 0 40 32">
<title>mask</title>
<path d="M20.042 4c-27.663 0-22.348 24-9.904 24 2.494 0 4.842-1.293 6.339-3.491l1.608-2.362c0.489-0.719 1.223-1.078 1.957-1.078s1.468 0.359 1.957 1.078l1.608 2.362c1.497 2.198 3.845 3.491 6.339 3.491 11.866 0 18.164-24-9.904-24zM29.946 25.818c-1.851 0-3.62-0.976-4.733-2.61l-1.608-2.362c-0.848-1.245-2.146-1.959-3.563-1.959s-2.715 0.714-3.563 1.959l-1.608 2.362c-1.113 1.634-2.882 2.61-4.733 2.61-4.869 0-8.139-4.534-8.139-8.77 0-1.94 0.641-4.749 3.692-7.12 3.155-2.451 8.117-3.746 14.35-3.746 6.254 0 11.209 1.268 14.332 3.666 2.997 2.303 3.626 5.066 3.626 6.978 0 4.253-3.307 8.992-8.054 8.992zM12 11.636c-2.933 0-4.84 1.871-5.72 2.993-0.373 0.476-0.373 1.174 0 1.649 0.88 1.122 2.787 2.993 5.72 2.993s4.84-1.871 5.72-2.993c0.373-0.476 0.373-1.174 0-1.649-0.88-1.123-2.787-2.993-5.72-2.993zM12 17.091c-1.677 0-2.909-0.863-3.676-1.636 0.768-0.774 2-1.636 3.676-1.636s2.909 0.863 3.676 1.636c-0.768 0.774-1.999 1.636-3.676 1.636zM28 11.636c-2.933 0-4.84 1.871-5.72 2.993-0.373 0.476-0.373 1.174 0 1.649 0.88 1.122 2.787 2.993 5.72 2.993s4.84-1.871 5.72-2.993c0.373-0.476 0.373-1.174 0-1.649-0.88-1.123-2.787-2.993-5.72-2.993zM28 17.091c-1.677 0-2.909-0.863-3.676-1.636 0.767-0.774 2-1.636 3.676-1.636s2.909 0.863 3.676 1.636c-0.767 0.774-1.999 1.636-3.676 1.636z"></path>
</svg>
