<!-- Generated by IcoMoon.io -->
<svg version="1.1" xmlns="http://www.w3.org/2000/svg" width="32" height="32" viewBox="0 0 32 32">
<title>meat-solid</title>
<path d="M27.75 4.282c-2.784-2.779-6.181-4.282-9.052-4.282-1.477 0-2.798 0.424-3.842 1.25-0.172 0.109-0.321 0.229-0.456 0.364l0-0c-2.42 2.417-6.391 7.111-6.391 11.475v6.273l-0.538 0.538c-0.607 0.606-1.5 0.692-2.299 0.375-0.414-0.17-0.895-0.269-1.398-0.269-2.082 0-3.771 1.688-3.771 3.771 0 1.042 0.423 1.986 1.106 2.668l0 0c0.954 0.955 2.282 1.224 3.508 0.944-0.281 1.225-0.011 2.552 0.944 3.506 0.683 0.687 1.629 1.112 2.675 1.112 2.084 0 3.773-1.689 3.773-3.773 0-0.505-0.099-0.987-0.279-1.427l0.009 0.025c-0.319-0.796-0.232-1.688 0.375-2.297l0.537-0.537h6.279c4.368 0 9.067-3.966 11.488-6.384 0.16-0.163 0.298-0.348 0.41-0.549l0.007-0.013c2.339-3.088 1.086-8.602-3.084-12.769zM28.296 15.494c-0.61 0.609-1.519 0.737-2.174 0.737-2.17 0-4.824-1.304-6.926-3.404-1.699-1.697-2.894-3.77-3.278-5.688-0.296-1.481-0.074-2.723 0.609-3.405 0.608-0.607 1.518-0.735 2.173-0.735 2.17 0 4.824 1.304 6.926 3.404 3.367 3.365 4.188 7.574 2.669 9.091zM20.743 7.952c-0.613 0.612-0.365 1.854 0.555 2.773s2.163 1.168 2.776 0.554 0.365-1.854-0.555-2.773-2.163-1.167-2.776-0.554z"></path>
</svg>
