<!-- Generated by IcoMoon.io -->
<svg version="1.1" xmlns="http://www.w3.org/2000/svg" width="32" height="32" viewBox="0 0 32 32">
<title>meat</title>
<path d="M21.438 7.244c-0.613 0.612-0.364 1.854 0.555 2.773s2.161 1.168 2.774 0.554 0.364-1.854-0.555-2.773-2.164-1.167-2.774-0.554zM27.729 4.286l-0.003-0.004c-3.467-3.466-7.077-4.282-9.043-4.282-2.414 0-3.871 1.191-4.295 1.616-2.419 2.417-6.389 7.111-6.389 11.475v5.143l-0.717 0.718c-0.196 0.196-0.569 0.332-1.076 0.129-0.497-0.204-1.073-0.322-1.678-0.322-2.502 0-4.53 2.028-4.53 4.53 0 0.001 0 0.003 0 0.004v-0c0 1.346 0.973 4.316 4.229 4.479 0.123 2.461 2.146 4.229 4.476 4.229 3.238 0 5.387-3.264 4.209-6.213-0.063-0.158-0.242-0.705 0.125-1.076l0.714-0.711h5.162c4.365 0 9.063-3.966 11.478-6.384 3.454-3.454 0.764-9.9-2.664-13.329zM18.915 22h-5.99l-1.295 1.296c-0.818 0.817-1.038 2.054-0.572 3.234 1.466 3.669-4.644 4.93-4.834 1.141l-0.091-1.807-1.805-0.091c-3.161-0.159-3.063-5.019 0.2-5.019 0.001 0 0.003 0 0.004 0 0.336 0 0.657 0.066 0.95 0.187l-0.017-0.006c1.106 0.446 2.375 0.294 3.235-0.57l1.299-1.302v-5.972c0-2.354 1.688-5.559 4.582-8.773-0.048 0.318-0.076 0.685-0.076 1.058 0 0.513 0.052 1.014 0.152 1.498l-0.008-0.048c0.459 2.293 1.852 4.739 3.823 6.708 2.5 2.5 5.613 3.989 8.332 3.989 0.303-0.004 0.596-0.028 0.884-0.072l-0.035 0.004c-3.202 2.869-6.391 4.544-8.738 4.544zM28.977 14.786c-1.462 1.464-5.602 0.82-9.092-2.667-3.357-3.356-4.202-7.557-2.668-9.091 1.464-1.466 5.606-0.819 9.094 2.667 3.365 3.367 4.183 7.574 2.667 9.091z"></path>
</svg>
