<!-- Generated by IcoMoon.io -->
<svg version="1.1" xmlns="http://www.w3.org/2000/svg" width="36" height="32" viewBox="0 0 36 32">
<title>medal</title>
<path d="M20.773 17.213l-1.234-2.503c-0.59-1.176-2.494-1.179-3.080 0.005l-1.232 2.498-2.754 0.402c-0.652 0.094-1.184 0.542-1.389 1.169-0.203 0.626-0.037 1.302 0.436 1.761l1.994 1.943-0.473 2.745c-0.244 1.421 1.266 2.469 2.492 1.811l2.467-1.296 2.465 1.295c1.209 0.633 2.742-0.367 2.494-1.809l-0.473-2.745 1.994-1.943c0.473-0.459 0.639-1.135 0.436-1.761-0.205-0.627-0.736-1.074-1.387-1.169l-2.757-0.403zM20.338 21.791l0.552 3.216-2.891-1.519-2.896 1.557 0.559-3.254-2.338-2.279 3.231-0.471 1.445-2.93 1.445 2.93 3.231 0.471-2.337 2.279zM34.998 0h-9.866c-0.703 0-1.354 0.369-1.715 0.971l-5.418 9.029-5.418-9.029c-0.356-0.586-0.99-0.971-1.715-0.971h-9.866c-0.809 0-1.283 0.911-0.819 1.574l9.008 12.867c-1.369 1.834-2.19 4.099-2.19 6.559 0 6.066 4.934 11 11 11s11-4.934 11-11c0-2.459-0.821-4.725-2.19-6.559l9.007-12.867c0.464-0.663-0.010-1.574-0.819-1.574zM2.922 2h7.945l4.933 8.222c-1.997 0.407-3.791 1.365-5.236 2.696l-7.642-10.918zM27 21c0 4.971-4.029 9-9 9s-9-4.029-9-9 4.029-9 9-9 9 4.029 9 9zM25.436 12.918c-1.446-1.331-3.239-2.289-5.236-2.696l4.933-8.222h7.945l-7.642 10.918z"></path>
</svg>
