<!-- Generated by IcoMoon.io -->
<svg version="1.1" xmlns="http://www.w3.org/2000/svg" width="32" height="32" viewBox="0 0 32 32">
<title>medal-solid</title>
<path d="M13.984 8.172l-4.321-7.201c-0.356-0.586-0.99-0.971-1.715-0.971h-6.947c-0.809 0-1.283 0.911-0.819 1.574l6.954 9.935c1.857-1.736 4.22-2.927 6.848-3.337zM30.998 0h-6.947c-0.703 0-1.354 0.369-1.715 0.971l-4.321 7.201c2.628 0.41 4.99 1.601 6.848 3.336l6.954-9.934c0.464-0.663-0.010-1.574-0.819-1.574zM16 10c-6.075 0-11 4.925-11 11s4.925 11 11 11 11-4.925 11-11-4.925-11-11-11zM21.782 19.829l-2.371 2.31 0.561 3.264c0.1 0.585-0.516 1.032-1.041 0.756l-2.932-1.541-2.931 1.541c-0.525 0.278-1.141-0.171-1.041-0.756l0.561-3.264-2.371-2.31c-0.426-0.415-0.191-1.139 0.397-1.224l3.277-0.477 1.464-2.97c0.132-0.268 0.387-0.399 0.643-0.399 0.257 0 0.514 0.134 0.646 0.399l1.464 2.97 3.277 0.477c0.587 0.085 0.823 0.809 0.397 1.224z"></path>
</svg>
