<!-- Generated by IcoMoon.io -->
<svg version="1.1" xmlns="http://www.w3.org/2000/svg" width="32" height="32" viewBox="0 0 32 32">
<title>medkit-solid</title>
<path d="M6 30h20v-22h-2v-3c0-1.657-1.343-3-3-3h-10c-1.657 0-3 1.343-3 3v3h-2v22zM12 6h8v2h-8v-2zM32 11v16c0 1.657-1.343 3-3 3h-1v-22h1c1.657 0 3 1.343 3 3zM4 30h-1c-1.657 0-3-1.343-3-3v-16c0-1.657 1.343-3 3-3h1v22zM22 17v2c0 0.552-0.448 1-1 1h-3v3c0 0.552-0.448 1-1 1h-2c-0.552 0-1-0.448-1-1v-3h-3c-0.552 0-1-0.448-1-1v-2c0-0.552 0.448-1 1-1h3v-3c0-0.552 0.448-1 1-1h2c0.552 0 1 0.448 1 1v3h3c0.552 0 1 0.448 1 1z"></path>
</svg>
