<!-- Generated by IcoMoon.io -->
<svg version="1.1" xmlns="http://www.w3.org/2000/svg" width="32" height="32" viewBox="0 0 32 32">
<title>medkit</title>
<path d="M29 6h-7v-2.5c0-0.828-0.672-1.5-1.5-1.5h-9c-0.828 0-1.5 0.672-1.5 1.5v2.5h-7c-1.657 0-3 1.343-3 3v18c0 1.657 1.343 3 3 3h26c1.657 0 3-1.343 3-3v-18c0-1.657-1.343-3-3-3zM12 4h8v2h-8v-2zM24 8v20h-16v-20h16zM2 27v-18c0-0.551 0.449-1 1-1h3v20h-3c-0.551 0-1-0.449-1-1zM30 27c0 0.551-0.449 1-1 1h-3v-20h3c0.551 0 1 0.449 1 1v18zM22 17v2c0 0.414-0.336 0.75-0.75 0.75h-3.5v3.5c0 0.414-0.336 0.75-0.75 0.75h-2c-0.414 0-0.75-0.336-0.75-0.75v-3.5h-3.5c-0.414 0-0.75-0.336-0.75-0.75v-2c0-0.414 0.336-0.75 0.75-0.75h3.5v-3.5c0-0.414 0.336-0.75 0.75-0.75h2c0.414 0 0.75 0.336 0.75 0.75v3.5h3.5c0.414 0 0.75 0.336 0.75 0.75z"></path>
</svg>
