<!-- Generated by IcoMoon.io -->
<svg version="1.1" xmlns="http://www.w3.org/2000/svg" width="36" height="32" viewBox="0 0 36 32">
<title>megaphone</title>
<path d="M35.5 2h-1c-0.276 0-0.5 0.224-0.5 0.5v1.208l-32 7.529v-0.738c0-0.276-0.224-0.5-0.5-0.5h-1c-0.276 0-0.5 0.224-0.5 0.5v11c0 0.276 0.224 0.5 0.5 0.5h1c0.276 0 0.5-0.224 0.5-0.5v-0.738l8.161 1.92c-0.098 0.425-0.161 0.863-0.161 1.317 0 3.314 2.686 6 6 6 2.821 0 5.153-1.956 5.79-4.581l12.21 2.873v1.208c0 0.276 0.224 0.5 0.5 0.5h1c0.276 0 0.5-0.224 0.5-0.5v-27c0-0.276-0.224-0.5-0.5-0.5zM16 28c-2.206 0-4-1.794-4-4 0-0.297 0.045-0.582 0.11-0.859l7.758 1.826c-0.436 1.738-1.997 3.033-3.868 3.033zM2 18.708v-5.416l32-7.529v20.475l-32-7.529z"></path>
</svg>
