<!-- Generated by IcoMoon.io -->
<svg version="1.1" xmlns="http://www.w3.org/2000/svg" width="36" height="32" viewBox="0 0 36 32">
<title>megaphone-solid</title>
<path d="M2 11c-1.104 0-2 0.896-2 2v6c0 1.104 0.896 2 2 2 0.711 0 1.306-0.392 1.661-0.951l6.687 2.019c-0.209 0.61-0.348 1.253-0.348 1.933 0 3.309 2.691 6 6 6 2.781 0 5.104-1.911 5.781-4.481l8.219 2.481v-24l-26.339 7.951c-0.354-0.559-0.949-0.951-1.661-0.951zM13.206 22.93l5.717 1.726c-0.301 1.339-1.494 2.344-2.922 2.344-1.654 0-3-1.346-3-3 0-0.378 0.078-0.737 0.206-1.070zM35 2h-2c-0.553 0-1 0.447-1 1v26c0 0.552 0.447 1 1 1h2c0.553 0 1-0.448 1-1v-26c0-0.553-0.447-1-1-1z"></path>
</svg>
