<!-- Generated by IcoMoon.io -->
<svg version="1.1" xmlns="http://www.w3.org/2000/svg" width="31" height="32" viewBox="0 0 31 32">
<title>meh-rolling-eyes-solid</title>
<path d="M15.5 0.5c-8.563 0-15.5 6.938-15.5 15.5s6.938 15.5 15.5 15.5 15.5-6.938 15.5-15.5-6.938-15.5-15.5-15.5zM5.5 14c0-1.519 0.856-2.825 2.1-3.5-0.044 0.162-0.1 0.325-0.1 0.5 0 1.106 0.894 2 2 2s2-0.894 2-2c0-0.175-0.056-0.338-0.1-0.5 1.244 0.675 2.1 1.981 2.1 3.5 0 2.206-1.794 4-4 4s-4-1.794-4-4zM19.5 25h-8c-1.325 0-1.325-2 0-2h8c1.325 0 1.325 2 0 2zM21.5 18c-2.206 0-4-1.794-4-4 0-1.519 0.856-2.825 2.1-3.5-0.044 0.162-0.1 0.325-0.1 0.5 0 1.106 0.894 2 2 2s2-0.894 2-2c0-0.175-0.056-0.338-0.1-0.5 1.244 0.675 2.1 1.981 2.1 3.5 0 2.206-1.794 4-4 4z"></path>
</svg>
