<!-- Generated by IcoMoon.io -->
<svg version="1.1" xmlns="http://www.w3.org/2000/svg" width="40" height="32" viewBox="0 0 40 32">
<title>memory-solid</title>
<path d="M40 8.184v-2.184c0-1.104-0.896-2-2-2h-36c-1.104 0-2 0.896-2 2v2.184c1.163 0.413 2 1.512 2 2.816s-0.837 2.403-2 2.816v6.184h40v-6.184c-1.163-0.413-2-1.512-2-2.816s0.837-2.403 2-2.816zM14 16h-4v-8h4v8zM22 16h-4v-8h4v8zM30 16h-4v-8h4v8zM0 28h4v-1.667c0-0.552 0.447-1 1-1s1 0.448 1 1v1.667h8v-1.667c0-0.552 0.447-1 1-1s1 0.448 1 1v1.667h8v-1.667c0-0.552 0.448-1 1-1s1 0.448 1 1v1.667h8v-1.667c0-0.552 0.447-1 1-1s1 0.448 1 1v1.667h4v-6h-40v6z"></path>
</svg>
