<!-- Generated by IcoMoon.io -->
<svg version="1.1" xmlns="http://www.w3.org/2000/svg" width="40" height="32" viewBox="0 0 40 32">
<title>memory</title>
<path d="M31 17h2v-8h-6v8h4zM29 11h2v4h-2v-4zM21 17h2v-8h-6v8h4zM19 11h2v4h-2v-4zM11 17h2v-8h-6v8h4zM9 11h2v4h-2v-4zM39.5 10h0.5v-4c0-1.104-0.896-2-2-2h-36c-1.104 0-2 0.896-2 2v4h0.5c0.829 0 1.5 0.671 1.5 1.5s-0.671 1.5-1.5 1.5h-0.5v15h40v-15h-0.5c-0.828 0-1.5-0.672-1.5-1.5s0.672-1.5 1.5-1.5zM38 26h-5v-1c0-0.552-0.447-1-1-1s-1 0.448-1 1v1h-6v-1c0-0.552-0.448-1-1-1s-1 0.448-1 1v1h-6v-1c0-0.552-0.448-1-1-1s-1 0.448-1 1v1h-6v-1c0-0.552-0.447-1-1-1s-1 0.448-1 1v1h-5v-4h36v4zM38 8.338c-1.182 0.563-2 1.769-2 3.162s0.818 2.599 2 3.162v5.338h-36v-5.338c1.181-0.563 2-1.769 2-3.162s-0.819-2.599-2-3.162v-2.338h36v2.338z"></path>
</svg>
