<!-- Generated by IcoMoon.io -->
<svg version="1.1" xmlns="http://www.w3.org/2000/svg" width="40" height="32" viewBox="0 0 40 32">
<title>menorah-solid</title>
<path d="M9 8h-2c-0.553 0-1 0.447-1 1v9h4v-9c0-0.553-0.447-1-1-1zM15 8h-2c-0.553 0-1 0.447-1 1v9h4v-9c0-0.553-0.447-1-1-1zM27 8h-2c-0.552 0-1 0.447-1 1v9h4v-9c0-0.553-0.448-1-1-1zM33 8h-2c-0.552 0-1 0.447-1 1v9h4v-9c0-0.553-0.447-1-1-1zM38 6c1.104 0 2-0.896 2-2s-2-4-2-4-2 2.896-2 4 0.896 2 2 2zM32 6c1.104 0 2-0.896 2-2s-2-4-2-4-2 2.896-2 4 0.896 2 2 2zM26 6c1.104 0 2-0.896 2-2s-2-4-2-4-2 2.896-2 4 0.896 2 2 2zM20 6c1.104 0 2-0.896 2-2s-2-4-2-4-2 2.896-2 4 0.896 2 2 2zM14 6c1.104 0 2-0.896 2-2s-2-4-2-4-2 2.896-2 4 0.896 2 2 2zM8 6c1.104 0 2-0.896 2-2s-2-4-2-4-2 2.896-2 4 0.896 2 2 2zM2 6c1.104 0 2-0.896 2-2s-2-4-2-4-2 2.896-2 4 0.896 2 2 2zM36 18c0 1.104-0.896 2-2 2h-12v-11c0-0.553-0.448-1-1-1h-2c-0.552 0-1 0.447-1 1v11h-12c-1.104 0-2-0.896-2-2v-9c0-0.553-0.447-1-1-1h-2c-0.552 0-1 0.447-1 1v9c0 3.314 2.686 6 6 6h12v4h-11c-0.553 0-1 0.448-1 1v2c0 0.552 0.447 1 1 1h26c0.553 0 1-0.448 1-1v-2c0-0.552-0.447-1-1-1h-11v-4h12c3.314 0 6-2.686 6-6v-9c0-0.553-0.447-1-1-1h-2c-0.553 0-1 0.447-1 1v9z"></path>
</svg>
