<!-- Generated by IcoMoon.io -->
<svg version="1.1" xmlns="http://www.w3.org/2000/svg" width="40" height="32" viewBox="0 0 40 32">
<title>menorah</title>
<path d="M38 0s-2 2.896-2 4 0.896 2 2 2 2-0.896 2-2-2-4-2-4zM32 6c1.104 0 2-0.896 2-2s-2-4-2-4-2 2.896-2 4 0.896 2 2 2zM26 6c1.104 0 2-0.896 2-2s-2-4-2-4-2 2.896-2 4 0.896 2 2 2zM20 6c1.104 0 2-0.896 2-2s-2-4-2-4-2 2.896-2 4 0.896 2 2 2zM14 6c1.104 0 2-0.896 2-2s-2-4-2-4-2 2.896-2 4 0.896 2 2 2zM8 6c1.104 0 2-0.896 2-2s-2-4-2-4-2 2.896-2 4 0.896 2 2 2zM4 4c0-1.104-2-4-2-4s-2 2.896-2 4 0.896 2 2 2 2-0.896 2-2zM38.5 8h-1c-0.276 0-0.5 0.224-0.5 0.5v10.5c0 1.657-1.343 3-3 3h-13v-13.5c0-0.276-0.224-0.5-0.5-0.5h-1c-0.276 0-0.5 0.224-0.5 0.5v13.5h-13c-1.657 0-3-1.343-3-3v-10.5c0-0.276-0.224-0.5-0.5-0.5h-1c-0.276 0-0.5 0.224-0.5 0.5v10.5c0 2.761 2.239 5 5 5h13v6h-12.5c-0.276 0-0.5 0.224-0.5 0.5v1c0 0.276 0.224 0.5 0.5 0.5h27c0.276 0 0.5-0.224 0.5-0.5v-1c0-0.276-0.224-0.5-0.5-0.5h-12.5v-6h13c2.761 0 5-2.239 5-5v-10.5c0-0.276-0.224-0.5-0.5-0.5zM31.5 8c-0.276 0-0.5 0.224-0.5 0.5v11.5h2v-11.5c0-0.276-0.224-0.5-0.5-0.5h-1zM7.5 8c-0.276 0-0.5 0.224-0.5 0.5v11.5h2v-11.5c0-0.276-0.224-0.5-0.5-0.5h-1zM25.5 8c-0.276 0-0.5 0.224-0.5 0.5v11.5h2v-11.5c0-0.276-0.224-0.5-0.5-0.5h-1zM13.5 8c-0.276 0-0.5 0.224-0.5 0.5v11.5h2v-11.5c0-0.276-0.224-0.5-0.5-0.5h-1z"></path>
</svg>
