<!-- Generated by IcoMoon.io -->
<svg version="1.1" xmlns="http://www.w3.org/2000/svg" width="18" height="32" viewBox="0 0 18 32">
<title>mercury</title>
<path d="M18 13c0-3.563-2.069-6.638-5.069-8.1 1.5-0.931 2.556-2.369 2.831-4.031 0.075-0.456-0.281-0.869-0.744-0.869h-0.506c-0.356 0-0.669 0.256-0.738 0.606-0.35 1.919-2.356 3.394-4.775 3.394s-4.425-1.475-4.775-3.394c-0.063-0.356-0.375-0.606-0.737-0.606h-0.506c-0.462 0-0.819 0.412-0.744 0.869 0.275 1.663 1.331 3.106 2.831 4.031-3 1.463-5.069 4.537-5.069 8.1 0 4.637 3.513 8.456 8.019 8.944-0.012 0.056-0.019 0.113-0.019 0.169v3.887h-3.25c-0.412 0-0.75 0.337-0.75 0.75v0.5c0 0.413 0.338 0.75 0.75 0.75h3.25v3.25c0 0.413 0.337 0.75 0.75 0.75h0.5c0.412 0 0.75-0.337 0.75-0.75v-3.25h3.25c0.412 0 0.75-0.337 0.75-0.75v-0.5c0-0.413-0.338-0.75-0.75-0.75h-3.25v-3.887c0-0.056-0.006-0.113-0.019-0.169 4.506-0.488 8.019-4.306 8.019-8.944zM9 20c-3.869 0-7-3.125-7-7 0-3.869 3.125-7 7-7 3.869 0 7 3.125 7 7 0 3.869-3.125 7-7 7z"></path>
</svg>
