<!-- Generated by IcoMoon.io -->
<svg version="1.1" xmlns="http://www.w3.org/2000/svg" width="18" height="32" viewBox="0 0 18 32">
<title>mercury-solid</title>
<path d="M18 13c0-2.762-1.244-5.231-3.2-6.881 0.156-0.112 0.306-0.237 0.45-0.362 1.544-1.325 2.488-3.050 2.7-4.925 0.056-0.444-0.294-0.831-0.744-0.831h-2.531c-0.363 0-0.669 0.256-0.738 0.613-0.15 0.781-0.6 1.519-1.294 2.112-0.956 0.825-2.25 1.275-3.644 1.275s-2.688-0.45-3.65-1.275c-0.694-0.594-1.138-1.331-1.294-2.112-0.069-0.356-0.375-0.613-0.731-0.613h-2.531c-0.45 0-0.8 0.388-0.744 0.831 0.213 1.881 1.15 3.606 2.7 4.931 0.144 0.125 0.294 0.244 0.45 0.362-1.956 1.644-3.2 4.112-3.2 6.875 0 4.281 2.994 7.869 7 8.775v3.225h-2.25c-0.412 0-0.75 0.337-0.75 0.75v2.5c0 0.413 0.338 0.75 0.75 0.75h2.25v2.25c0 0.413 0.338 0.75 0.75 0.75h2.5c0.412 0 0.75-0.337 0.75-0.75v-2.25h2.25c0.412 0 0.75-0.337 0.75-0.75v-2.5c0-0.413-0.338-0.75-0.75-0.75h-2.25v-3.225c4.006-0.906 7-4.494 7-8.775zM4 13c0-2.756 2.244-5 5-5s5 2.244 5 5-2.244 5-5 5-5-2.244-5-5z"></path>
</svg>
