<!-- Generated by IcoMoon.io -->
<svg version="1.1" xmlns="http://www.w3.org/2000/svg" width="32" height="32" viewBox="0 0 32 32">
<title>meteor</title>
<path d="M31.936 1.989c-0.613 2.025-2.113 6.824-3.676 10.46 0.182 0.056 0.344 0.106 0.494 0.149 0.557 0.173 0.998 0.575 1.22 1.094l0.005 0.013c0.093 0.22 0.147 0.476 0.147 0.745 0 0.331-0.082 0.642-0.226 0.916l0.005-0.011c-1.412 2.7-5.076 9.373-8.719 13.015-2.248 2.243-5.351 3.63-8.779 3.63s-6.53-1.387-8.779-3.63l0 0c-4.838-4.837-4.838-12.716 0-17.552 3.645-3.643 10.319-7.311 13.020-8.717 0.261-0.143 0.571-0.227 0.902-0.227 0.27 0 0.527 0.056 0.759 0.157l-0.012-0.005c0.531 0.227 0.933 0.667 1.104 1.211l0.004 0.014c0.043 0.15 0.1 0.312 0.15 0.494 3.656-1.582 8.444-3.069 10.461-3.681 0.132-0.041 0.283-0.064 0.44-0.064 0.853 0 1.545 0.692 1.545 1.545 0 0.158-0.024 0.31-0.068 0.454l0.003-0.011zM29.754 2.245c-2.525 0.774-7.207 2.287-10.418 3.792l-1.057 0.494-0.326-1.125c-0.174-0.606-0.336-1.15-0.461-1.562-2.539 1.393-9.008 4.942-12.451 8.386-4.057 4.055-4.057 10.66 0 14.721s10.67 4.056 14.725 0c3.445-3.443 6.994-9.91 8.358-12.528-0.375-0.050-0.92-0.212-1.525-0.388l-1.125-0.324 0.494-1.056c1.494-3.187 3.018-7.886 3.787-10.41zM20.492 19.497c0 4.411-3.588 7.998-8 7.998-4.417 0-7.998-3.581-7.998-7.998s3.581-7.998 7.998-7.998v0c4.412 0 8.006 3.593 8 7.998zM18.492 19.503c0-0 0-0.001 0-0.002 0-3.314-2.686-6-6-6s-6 2.686-6 6c0 3.314 2.686 6 6 6v0c3.313 0 6.006-2.693 6-5.999zM12.992 17.498c0 0 0 0 0 0 0 0.828-0.672 1.5-1.5 1.5s-1.5-0.672-1.5-1.5c0-0.828 0.672-1.5 1.5-1.5v0c0.001 0 0.002 0 0.003 0 0.827 0 1.497 0.67 1.497 1.497 0 0.001 0 0.002 0 0.003v-0zM14.992 22.002c0 0 0 0 0 0 0 0.552-0.448 1-1 1s-1-0.448-1-1c0-0.552 0.448-1 1-1v0c0.552 0.002 0.998 0.448 1 1v0z"></path>
</svg>
