<!-- Generated by IcoMoon.io -->
<svg version="1.1" xmlns="http://www.w3.org/2000/svg" width="32" height="32" viewBox="0 0 32 32">
<title>meteor-solid</title>
<path d="M31.958 1.3c-0.725 2.419-2.144 6.981-3.831 11.731 0.437 0.131 0.838 0.25 1.163 0.35 0.415 0.129 0.711 0.51 0.711 0.96 0 0.173-0.044 0.335-0.12 0.477l0.003-0.005c-1.382 2.644-5.168 9.55-8.905 13.4-0.063 0.068-0.125 0.156-0.187 0.219-2.204 2.204-5.248 3.568-8.611 3.568-6.725 0-12.177-5.452-12.177-12.177 0-3.362 1.363-6.406 3.565-8.609l-0 0c0.063-0.063 0.15-0.125 0.219-0.188 3.85-3.744 10.748-7.525 13.398-8.906 0.136-0.074 0.299-0.118 0.471-0.118 0.45 0 0.831 0.296 0.958 0.704l0.002 0.007c0.1 0.318 0.219 0.725 0.35 1.162 4.743-1.687 9.311-3.106 11.73-3.831 0.088-0.027 0.188-0.043 0.293-0.043 0.559 0 1.011 0.453 1.011 1.011 0 0.103-0.015 0.202-0.044 0.295l0.002-0.007zM19.997 20c-0.001-4.417-3.582-7.998-7.999-7.998s-7.999 3.581-7.999 7.999 3.581 7.999 7.999 7.999v0c0 0 0 0 0 0 4.417 0 7.998-3.581 7.998-7.998 0-0 0-0.001 0-0.002v0zM11.998 18c-0 1.104-0.895 1.999-2 1.999s-2-0.895-2-2 0.895-2 2-2v0c0.001 0 0.001 0 0.002 0 1.103 0 1.997 0.894 1.997 1.997 0 0.001 0 0.002 0 0.003v-0zM13.998 23c-0 0.552-0.448 1-1 1s-1-0.448-1-1 0.448-1 1-1v0c0.552 0.002 0.998 0.448 1 1v0z"></path>
</svg>
