<!-- Generated by IcoMoon.io -->
<svg version="1.1" xmlns="http://www.w3.org/2000/svg" width="32" height="32" viewBox="0 0 32 32">
<title>microwave</title>
<path d="M30 4h-28c-1.105 0-2 0.895-2 2v0 20c0 1.105 0.895 2 2 2v0h1l1.5 2h3l1.5-2h14l1.5 2h3l1.5-2h1c1.105 0 2-0.895 2-2v0-20c0-1.105-0.895-2-2-2v0zM30 26h-28v-20h28zM27 16c0.552 0 1-0.448 1-1s-0.448-1-1-1c-0.552 0-1 0.448-1 1v0c0 0.552 0.448 1 1 1v0zM27 12c0.552 0 1-0.448 1-1s-0.448-1-1-1c-0.552 0-1 0.448-1 1v0c0 0.552 0.448 1 1 1v0zM6 24h16c1.105 0 2-0.895 2-2v0-12c0-1.105-0.895-2-2-2v0h-16c-1.105 0-2 0.895-2 2v0 12c0 1.105 0.895 2 2 2v0zM6 10h16v12h-16z"></path>
</svg>
