<!-- Generated by IcoMoon.io -->
<svg version="1.1" xmlns="http://www.w3.org/2000/svg" width="32" height="32" viewBox="0 0 32 32">
<title>microphone-stand</title>
<path d="M29.736 2.094c-1.368-1.297-3.22-2.094-5.258-2.094-2.106 0-4.012 0.851-5.395 2.227l0-0-1.798 1.792c-1.367 1.36-2.216 3.238-2.229 5.315v0.002l-14.303 16.091c-0.469 0.526-0.755 1.223-0.755 1.987 0 0.828 0.336 1.578 0.88 2.12l1.591 1.586c0.545 0.542 1.297 0.878 2.127 0.878 0.766 0 1.465-0.285 1.997-0.755l-0.003 0.003 9.401-8.35v8.604c0 0.276 0.224 0.5 0.5 0.5v0h1.008c0.276 0 0.5-0.224 0.5-0.5v0-10.375l4.741-4.13c2.084-0.011 3.968-0.858 5.336-2.221l1.568-1.562c3.043-3.033 3.208-8.162 0.092-11.117zM5.266 29.75c-0.176 0.156-0.409 0.251-0.665 0.251-0.277 0-0.528-0.112-0.71-0.294l-1.59-1.587c-0.181-0.181-0.293-0.431-0.293-0.707 0-0.253 0.094-0.484 0.249-0.66l-0.001 0.001 13.712-15.427 4.775 4.758zM26.656 13.359c-1.008 1.006-2.397 1.629-3.931 1.636h-0.239l-5.424-5.406v-0.236c0.007-1.533 0.634-2.917 1.642-3.918l0-0 0.691-0.688 7.953 7.923zM28.736 11.225l-7.891-7.864c0.976-0.856 2.264-1.379 3.674-1.379 3.084 0 5.584 2.5 5.584 5.584 0 1.403-0.518 2.685-1.372 3.666l0.006-0.007z"></path>
</svg>
