<!-- Generated by IcoMoon.io -->
<svg version="1.1" xmlns="http://www.w3.org/2000/svg" width="32" height="32" viewBox="0 0 32 32">
<title>microphone-stand-solid</title>
<path d="M18.096 3.783c-1.491 1.49-2.161 3.472-2.063 5.423l6.759 6.759c1.951 0.099 3.934-0.571 5.424-2.063l0.137-0.136-10.121-10.12zM0.421 26.449c-0.261 0.293-0.421 0.681-0.421 1.107 0 0.46 0.186 0.877 0.488 1.178l2.774 2.773c0.303 0.303 0.721 0.49 1.183 0.49 0.425 0 0.814-0.159 1.109-0.421l-0.002 0.002 8.449-7.458v6.879c0 0.552 0.448 1 1 1v0h2c0.552 0 1-0.448 1-1v0-10.41l3.5-3.090-7-7zM29.904 2.096c-1.295-1.295-3.084-2.096-5.060-2.096s-3.765 0.801-5.060 2.096v0l-0.137 0.136 10.121 10.121 0.136-0.136c1.295-1.295 2.096-3.084 2.096-5.060s-0.801-3.765-2.096-5.060v0z"></path>
</svg>
