<!-- Generated by IcoMoon.io -->
<svg version="1.1" xmlns="http://www.w3.org/2000/svg" width="22" height="32" viewBox="0 0 22 32">
<title>microphone-alt-solid</title>
<path d="M21 12h-1c-0.552 0-1 0.447-1 1v3c0 4.675-4.031 8.426-8.799 7.961-4.156-0.406-7.201-4.142-7.201-8.318v-2.644c0-0.553-0.447-1-1-1h-1c-0.552 0-1 0.447-1 1v2.51c0 5.603 3.998 10.597 9.5 11.356v2.134h-3.5c-0.553 0-1 0.448-1 1v1c0 0.552 0.447 1 1 1h10c0.552 0 1-0.448 1-1v-1c0-0.552-0.448-1-1-1h-3.5v-2.111c5.357-0.735 9.5-5.333 9.5-10.889v-3c0-0.553-0.448-1-1-1zM11 22c3.314 0 6-2.686 6-6h-5.333c-0.368 0-0.667-0.224-0.667-0.5v-1c0-0.276 0.299-0.5 0.667-0.5h5.333v-2h-5.333c-0.368 0-0.667-0.224-0.667-0.5v-1c0-0.276 0.299-0.5 0.667-0.5h5.333v-2h-5.333c-0.368 0-0.667-0.224-0.667-0.5v-1c0-0.276 0.299-0.5 0.667-0.5h5.333c0-3.314-2.686-6-6-6s-6 2.686-6 6v10c0 3.314 2.686 6 6 6z"></path>
</svg>
