<!-- Generated by IcoMoon.io -->
<svg version="1.1" xmlns="http://www.w3.org/2000/svg" width="40" height="32" viewBox="0 0 40 32">
<title>microphone-slash</title>
<path d="M16 6c0-2.206 1.794-4 4-4s4 1.794 4 4v9.331l1.919 1.506c0.038-0.275 0.081-0.55 0.081-0.837v-10c0-3.313-2.688-6-6-6s-6 2.688-6 6v1.456l2 1.575zM30 16v-3.5c0-0.275-0.225-0.5-0.5-0.5h-1c-0.275 0-0.5 0.225-0.5 0.5v3.5c0 0.769-0.144 1.5-0.35 2.206l1.688 1.331c0.425-1.1 0.663-2.288 0.663-3.538zM25.5 30h-4.5v-4.063c1.7-0.169 3.256-0.794 4.6-1.706l-1.65-1.3c-1.313 0.75-2.85 1.163-4.494 1.050-4.25-0.281-7.456-4.006-7.456-8.262v-2.2l-1.781-1.406c-0.125 0.094-0.219 0.219-0.219 0.381v3.144c0 5.213 3.856 9.756 9 10.275v4.087h-4.5c-0.275 0-0.5 0.225-0.5 0.5v1c0 0.275 0.225 0.5 0.5 0.5h11c0.275 0 0.5-0.225 0.5-0.5v-1c0-0.275-0.225-0.5-0.5-0.5zM20 22c0.788 0 1.531-0.163 2.219-0.438l-2.012-1.587c-0.069 0.006-0.131 0.019-0.206 0.019-1.956 0-3.581-1.413-3.925-3.275l-2.075-1.625v0.906c0 3.313 2.688 6 6 6zM39.813 30.325l-38.375-30.212c-0.212-0.175-0.531-0.144-0.7 0.075l-0.625 0.781c-0.175 0.219-0.138 0.531 0.075 0.7l38.375 30.219c0.212 0.175 0.531 0.137 0.7-0.075l0.625-0.781c0.175-0.219 0.144-0.531-0.075-0.706z"></path>
</svg>
