<!-- Generated by IcoMoon.io -->
<svg version="1.1" xmlns="http://www.w3.org/2000/svg" width="40" height="32" viewBox="0 0 40 32">
<title>microphone-slash-solid</title>
<path d="M39.614 28.631l-9.863-7.622c0.787-1.501 1.249-3.196 1.249-5.009v-3c0-0.553-0.448-1-1-1h-1c-0.552 0-1 0.447-1 1v3c0 1.12-0.247 2.175-0.67 3.137l-1.659-1.282c0.194-0.587 0.33-1.201 0.33-1.854v-10.001c0-3.314-2.686-6-6-6s-6 2.686-6 6v2.835l-11.159-8.624c-0.436-0.339-1.065-0.261-1.404 0.176l-1.228 1.579c-0.339 0.436-0.261 1.064 0.176 1.403l36.773 28.421c0.436 0.339 1.064 0.261 1.404-0.176l1.227-1.579c0.338-0.436 0.26-1.064-0.176-1.403zM25 29h-3.5v-2.111c0.729-0.1 1.428-0.284 2.104-0.519l-3.132-2.421c-0.419 0.025-0.838 0.054-1.272 0.012-3.491-0.341-6.171-3.039-6.949-6.366l-3.252-2.514v0.428c0 5.602 3.998 10.597 9.5 11.356v2.134h-3.5c-0.553 0-1 0.448-1 1v1c0 0.552 0.447 1 1 1h10c0.552 0 1-0.448 1-1v-1c0-0.552-0.448-1-1-1z"></path>
</svg>
