<!-- Generated by IcoMoon.io -->
<svg version="1.1" xmlns="http://www.w3.org/2000/svg" width="32" height="32" viewBox="0 0 32 32">
<title>microscope</title>
<path d="M28.5 26h-2.562c2.451-1.824 4.062-4.718 4.062-8 0-5.514-4.486-10-10-10v-4c0-1.104-0.896-2-2-2v-1c0-0.552-0.448-1-1-1h-6c-0.553 0-1 0.448-1 1v1c-1.104 0-2 0.896-2 2v14c0 1.104 0.896 2 2 2v3c0 0.552 0.447 1 1 1h6c0.552 0 1-0.448 1-1v-3c1.104 0 2-0.896 2-2v-8c4.412 0 8 3.589 8 8s-3.588 8-8 8h-16.5c-1.93 0-3.5 1.57-3.5 3.5 0 1.379 1.121 2.5 2.5 2.5h27c1.379 0 2.5-1.121 2.5-2.5 0-1.93-1.57-3.5-3.5-3.5zM16 22h-4v-2h4v2zM18 18h-8v-14h2v-2h4v2h2v14zM29.5 30h-27c-0.276 0-0.5-0.224-0.5-0.5 0-0.829 0.672-1.5 1.5-1.5h25c0.828 0 1.5 0.671 1.5 1.5 0 0.276-0.224 0.5-0.5 0.5z"></path>
</svg>
