<!-- Generated by IcoMoon.io -->
<svg version="1.1" xmlns="http://www.w3.org/2000/svg" width="32" height="32" viewBox="0 0 32 32">
<title>microwave-solid</title>
<path d="M29 4h-26c-1.657 0-3 1.343-3 3v0 16c0 1.657 1.343 3 3 3v0 0l1.5 2h3l1.5-2h14l1.5 2h3l1.5-2c1.657 0 3-1.343 3-3v0-16c0-1.657-1.343-3-3-3v0zM24 22h-20v-14h20zM28 17.5c-0.828 0-1.5-0.672-1.5-1.5s0.672-1.5 1.5-1.5c0.828 0 1.5 0.672 1.5 1.5v0c0 0.828-0.672 1.5-1.5 1.5v0zM28 11.5c-0.828 0-1.5-0.672-1.5-1.5s0.672-1.5 1.5-1.5c0.828 0 1.5 0.672 1.5 1.5v0c0 0.828-0.672 1.5-1.5 1.5v0z"></path>
</svg>
