<!-- Generated by IcoMoon.io -->
<svg version="1.1" xmlns="http://www.w3.org/2000/svg" width="20" height="32" viewBox="0 0 20 32">
<title>microphone</title>
<path d="M10 22c3.314 0 6-2.686 6-6v-10c0-3.314-2.686-6-6-6s-6 2.686-6 6v10c0 3.314 2.686 6 6 6zM6 6c0-2.206 1.794-4 4-4s4 1.794 4 4v10c0 2.206-1.794 4-4 4s-4-1.794-4-4v-10zM19.5 12h-1c-0.276 0-0.5 0.224-0.5 0.5v3.5c0 4.591-3.887 8.293-8.546 7.982-4.248-0.283-7.454-4.006-7.454-8.264v-3.218c0-0.276-0.224-0.5-0.5-0.5h-1c-0.276 0-0.5 0.224-0.5 0.5v3.146c0 5.212 3.853 9.758 9 10.277v4.077h-4.5c-0.276 0-0.5 0.224-0.5 0.5v1c0 0.276 0.224 0.5 0.5 0.5h11c0.276 0 0.5-0.224 0.5-0.5v-1c0-0.276-0.224-0.5-0.5-0.5h-4.5v-4.063c5.044-0.506 9-4.762 9-9.937v-3.5c0-0.276-0.224-0.5-0.5-0.5z"></path>
</svg>
