<!-- Generated by IcoMoon.io -->
<svg version="1.1" xmlns="http://www.w3.org/2000/svg" width="32" height="32" viewBox="0 0 32 32">
<title>microscope-solid</title>
<path d="M10 20h0.75v1c0 0.552 0.447 1 1 1h2.5c0.553 0 1-0.448 1-1v-1h0.75c1.104 0 2-0.896 2-2v-14c0-1.104-0.896-2-2-2v-1c0-0.552-0.447-1-1-1h-4c-0.553 0-1 0.448-1 1v1c-1.104 0-2 0.896-2 2v14c0 1.104 0.896 2 2 2zM29 28h-0.081c1.908-2.126 3.081-4.925 3.081-8 0-6.617-5.383-12-12-12v4c4.411 0 8 3.589 8 8s-3.589 8-8 8h-17c-1.657 0-3 1.343-3 3 0 0.552 0.448 1 1 1h30c0.552 0 1-0.448 1-1 0-1.657-1.343-3-3-3zM6.5 26h13c0.276 0 0.5-0.224 0.5-0.5v-1c0-0.276-0.224-0.5-0.5-0.5h-13c-0.276 0-0.5 0.224-0.5 0.5v1c0 0.276 0.224 0.5 0.5 0.5z"></path>
</svg>
