<!-- Generated by IcoMoon.io -->
<svg version="1.1" xmlns="http://www.w3.org/2000/svg" width="32" height="32" viewBox="0 0 32 32">
<title>microchip-solid</title>
<path d="M26 3v26c0 1.657-1.343 3-3 3h-14c-1.657 0-3-1.343-3-3v-26c0-1.657 1.343-3 3-3h14c1.657 0 3 1.343 3 3zM32 6.625v0.75c0 0.207-0.168 0.375-0.375 0.375v0h-1.125v0.375c0 0.207-0.168 0.375-0.375 0.375v0h-2.625v-3h2.625c0.207 0 0.375 0.168 0.375 0.375v0 0.375h1.125c0.207 0 0.375 0.168 0.375 0.375v0zM32 12.625v0.75c0 0.207-0.168 0.375-0.375 0.375v0h-1.125v0.375c0 0.207-0.168 0.375-0.375 0.375v0h-2.625v-3h2.625c0.207 0 0.375 0.168 0.375 0.375v0 0.375h1.125c0.207 0 0.375 0.168 0.375 0.375v0zM32 18.625v0.75c0 0.207-0.168 0.375-0.375 0.375v0h-1.125v0.375c0 0.207-0.168 0.375-0.375 0.375v0h-2.625v-3h2.625c0.207 0 0.375 0.168 0.375 0.375v0 0.375h1.125c0.207 0 0.375 0.168 0.375 0.375v0zM32 24.625v0.75c0 0.207-0.168 0.375-0.375 0.375v0h-1.125v0.375c0 0.207-0.168 0.375-0.375 0.375v0h-2.625v-3h2.625c0.207 0 0.375 0.168 0.375 0.375v0 0.375h1.125c0.207 0 0.375 0.168 0.375 0.375v0zM1.875 23.5h2.625v3h-2.625c-0.207 0-0.375-0.168-0.375-0.375v0-0.375h-1.125c-0.207 0-0.375-0.168-0.375-0.375v0-0.75c0-0.207 0.168-0.375 0.375-0.375v0h1.125v-0.375c0-0.207 0.168-0.375 0.375-0.375v0zM1.875 17.5h2.625v3h-2.625c-0.207 0-0.375-0.168-0.375-0.375v0-0.375h-1.125c-0.207 0-0.375-0.168-0.375-0.375v0-0.75c0-0.207 0.168-0.375 0.375-0.375v0h1.125v-0.375c0-0.207 0.168-0.375 0.375-0.375v0zM1.875 11.5h2.625v3h-2.625c-0.207 0-0.375-0.168-0.375-0.375v0-0.375h-1.125c-0.207 0-0.375-0.168-0.375-0.375v0-0.75c0-0.207 0.168-0.375 0.375-0.375v0h1.125v-0.375c0-0.207 0.168-0.375 0.375-0.375v0zM1.875 5.5h2.625v3h-2.625c-0.207 0-0.375-0.168-0.375-0.375v0-0.375h-1.125c-0.207 0-0.375-0.168-0.375-0.375v0-0.75c0-0.207 0.168-0.375 0.375-0.375v0h1.125v-0.375c0-0.207 0.168-0.375 0.375-0.375v0z"></path>
</svg>
