<!-- Generated by IcoMoon.io -->
<svg version="1.1" xmlns="http://www.w3.org/2000/svg" width="40" height="32" viewBox="0 0 40 32">
<title>microphone-alt-slash-solid</title>
<path d="M39.614 28.631l-9.848-7.611c0.78-1.508 1.234-3.209 1.234-5.021v-3c0-0.553-0.448-1-1-1h-1c-0.552 0-1 0.447-1 1v3c0 1.12-0.247 2.175-0.67 3.137l-1.659-1.282c0.194-0.587 0.33-1.201 0.33-1.854h-2.729l-2.587-2h5.316v-2h-5.333c-0.368 0-0.667-0.224-0.667-0.5v-1c0-0.276 0.299-0.5 0.667-0.5h5.333v-2h-5.333c-0.368 0-0.667-0.224-0.667-0.5v-1c0-0.276 0.299-0.5 0.667-0.5h5.333c0-3.314-2.686-6-6-6s-6 2.686-6 6v2.835l-11.158-8.625c-0.436-0.339-1.065-0.261-1.404 0.176l-1.228 1.579c-0.339 0.436-0.261 1.064 0.176 1.403l36.773 28.421c0.436 0.339 1.064 0.261 1.404-0.176l1.227-1.579c0.338-0.436 0.26-1.064-0.176-1.403zM25 29h-3.5v-2.111c0.732-0.101 1.444-0.267 2.122-0.505l-3.15-2.435c-0.419 0.025-0.838 0.054-1.272 0.012-3.491-0.341-6.171-3.039-6.949-6.366l-3.252-2.514v0.428c0 5.602 3.998 10.597 9.5 11.356v2.134h-3.5c-0.553 0-1 0.448-1 1v1c0 0.552 0.447 1 1 1h10c0.552 0 1-0.448 1-1v-1c0-0.552-0.448-1-1-1z"></path>
</svg>
