<!-- Generated by IcoMoon.io -->
<svg version="1.1" xmlns="http://www.w3.org/2000/svg" width="40" height="32" viewBox="0 0 40 32">
<title>mind-share</title>
<path d="M18.006 17.038v-12.287c0-1.519 1.238-2.75 2.762-2.75 1.919 0 2.494 1.406 2.863 2.844l0.819-0.019c1.619 0 2.844 1.231 2.844 2.737 0 0.388-0.106 0.744-0.262 1.425 1.4 0.569 2.55 1.294 2.938 2.681 0.175-0.106 0.325-0.231 0.519-0.313 0.225-0.094 0.456-0.162 0.694-0.213 0.231-0.050 0.469-0.075 0.706-0.081-0.531-1.631-1.762-2.775-2.594-3.25 0.169-2.356-1.619-4.644-4.169-4.963-0.75-1.712-2.45-2.85-4.363-2.85-1.538 0-2.887 0.744-3.762 1.869-0.875-1.125-2.225-1.869-3.762-1.869-1.912 0-3.606 1.137-4.356 2.85-2.55 0.319-4.331 2.606-4.169 4.963-1.313 0.762-3.663 3.181-2.569 6.581-1.337 1.069-2.144 2.694-2.144 4.419 0 2.044 1.087 3.9 2.831 4.906-0.144 3.012 2.294 5.544 5.306 5.462 0.887 1.712 2.662 2.813 4.631 2.813 1.194 0 2.281-0.425 3.162-1.106-0.394-0.544-0.738-1.119-1.012-1.725-0.569 0.512-1.319 0.831-2.144 0.831-1.994 0-2.762-1.363-3.319-3.012-1.019 0.169-1.144 0.2-1.387 0.2-1.781 0-3.231-1.444-3.231-3.219 0-0.387 0.056-0.569 0.231-1.438-1.6-0.65-3.063-1.506-3.063-3.712 0-2.119 1.438-2.931 2.681-3.644-0.788-1.606-0.8-1.825-0.8-2.45 0-2.119 1.369-3.031 3.087-3.731-0.156-0.681-0.263-1.037-0.263-1.425 0-1.506 1.225-2.737 2.844-2.737h0.025l0.794 0.019c0.369-1.431 0.938-2.844 2.862-2.844 1.519 0 2.762 1.231 2.762 2.75v14.275c0.563-0.756 1.25-1.419 2.006-1.988zM39.394 19.575l-6-5.95c-0.575-0.575-1.4-0.731-2.144-0.425-0.756 0.319-1.244 1.063-1.244 1.9v1.95h-6.075c-0.381-0.006-0.75 0-1.131 0.063-3.363 0.494-6.094 3.163-6.669 6.494 0 0.012-0.006 0.031-0.012 0.044-0.525 3.144 0.825 6.306 3.45 8.050 0.3 0.2 0.637 0.3 0.975 0.3 1.169 0 2.038-1.181 1.644-2.35-0.269-0.8-0.306-2.475 0.462-3.556 0.506-0.7 1.275-1.044 2.356-1.044h5v1.95c0 0.837 0.488 1.581 1.244 1.9 0.744 0.313 1.569 0.15 2.144-0.425l6-5.95c0.388-0.387 0.606-0.913 0.606-1.469s-0.212-1.087-0.606-1.481zM32 27v-3.95h-7c-2.175 0-3.363 1.019-3.981 1.875-1.063 1.481-1.144 3.4-0.906 4.688-1.594-1.363-2.381-3.5-2.025-5.631 0.419-2.512 2.475-4.519 5-4.887 0.275-0.044 0.544-0.038 0.919-0.038h8l-0.019-4.006 6 5.95-5.988 6z"></path>
</svg>
