<!-- Generated by IcoMoon.io -->
<svg version="1.1" xmlns="http://www.w3.org/2000/svg" width="40" height="32" viewBox="0 0 40 32">
<title>mind-share-solid</title>
<path d="M25.65 17.069c0.438-0.063 0.831-0.069 1.163-0.069h3.188v-0.95c0-1.25 0.75-2.331 1.813-2.8 0.175-0.481 0.3-0.988 0.3-1.531 0-1.956-1.206-3.631-2.919-4.331 0.063-0.263 0.1-0.537 0.1-0.825 0-2.069-1.688-3.75-3.762-3.75-0.044 0-0.087 0.013-0.131 0.013-0.413-1.619-1.875-2.825-3.637-2.825-2.075 0-3.762 1.681-3.762 3.75v20.25c0.788-3.569 4-6.394 7.65-6.931zM12.238 0c-1.756 0-3.219 1.206-3.637 2.825-0.044 0-0.088-0.013-0.131-0.013-2.081 0-3.763 1.681-3.763 3.75 0 0.281 0.037 0.556 0.1 0.825-1.712 0.7-2.919 2.375-2.919 4.331 0 0.738 0.188 1.425 0.487 2.044-1.413 0.813-2.375 2.313-2.375 4.050 0 1.956 1.2 3.625 2.906 4.331-0.050 0.269-0.081 0.544-0.081 0.825 0 2.331 1.894 4.219 4.237 4.219 0.244 0 0.475-0.031 0.706-0.069 0.563 1.669 2.131 2.881 4 2.881 2.338 0 4.238-1.887 4.238-4.219l-0.006-22.031c0-2.069-1.688-3.75-3.762-3.75zM39.688 21.238l-6-5.95c-0.631-0.625-1.688-0.162-1.688 0.762v2.95h-4.994c-0.35 0-0.7-0.006-1.063 0.050-2.944 0.431-5.35 2.781-5.837 5.719-0.488 2.919 0.831 5.65 3.019 7.106 0.613 0.406 1.35-0.2 1.113-0.9-0.563-1.663-0.35-5.969 3.769-5.969h4v2.95c0 0.925 1.056 1.387 1.688 0.762l6-5.95c0.413-0.419 0.413-1.119-0.006-1.531z"></path>
</svg>
