<!-- Generated by IcoMoon.io -->
<svg version="1.1" xmlns="http://www.w3.org/2000/svg" width="32" height="32" viewBox="0 0 32 32">
<title>minus-octagon-solid</title>
<path d="M31.119 9.406c0.563 0.563 0.881 1.325 0.881 2.119v8.944c0 0.794-0.319 1.556-0.881 2.119l-8.525 8.531c-0.563 0.563-1.325 0.881-2.119 0.881h-8.944c-0.794 0-1.556-0.319-2.119-0.881l-8.531-8.525c-0.563-0.563-0.881-1.325-0.881-2.119v-8.944c0-0.794 0.319-1.556 0.881-2.119l8.525-8.531c0.563-0.563 1.325-0.881 2.119-0.881h8.944c0.794 0 1.556 0.319 2.119 0.881l8.531 8.525zM24.25 18.5c0.413 0 0.75-0.337 0.75-0.75v-3.5c0-0.412-0.337-0.75-0.75-0.75h-16.5c-0.412 0-0.75 0.338-0.75 0.75v3.5c0 0.413 0.338 0.75 0.75 0.75h16.5z"></path>
</svg>
