<!-- Generated by IcoMoon.io -->
<svg version="1.1" xmlns="http://www.w3.org/2000/svg" width="36" height="32" viewBox="0 0 36 32">
<title>minus-hexagon-solid</title>
<path d="M34.594 14.488c0.544 0.931 0.544 2.087 0 3.025l-7 12c-0.538 0.919-1.525 1.488-2.594 1.488h-14c-1.069 0-2.056-0.569-2.594-1.488l-7-12c-0.544-0.931-0.544-2.088 0-3.025l7-12c0.537-0.919 1.525-1.488 2.594-1.488h14c1.069 0 2.056 0.569 2.594 1.488l7 12zM26.25 18.5c0.413 0 0.75-0.337 0.75-0.75v-3.5c0-0.412-0.337-0.75-0.75-0.75h-16.5c-0.412 0-0.75 0.338-0.75 0.75v3.5c0 0.413 0.338 0.75 0.75 0.75h16.5z"></path>
</svg>
