<!-- Generated by IcoMoon.io -->
<svg version="1.1" xmlns="http://www.w3.org/2000/svg" width="36" height="32" viewBox="0 0 36 32">
<title>mistletoe-solid</title>
<path d="M23.331 7.331c1.475 0 2.669-1.194 2.669-2.669s-1.194-2.663-2.669-2.663-2.669 1.194-2.669 2.669 1.2 2.662 2.669 2.662zM33.881 16.337c-1.625-1.625-5.6-2.412-8.181-2.762l-6.2-6.256c-0.525-0.756-0.831-1.662-0.831-2.65s0.313-1.894 0.831-2.65v-1.019c0-0.55-0.45-1-1-1h-1c-0.55 0-1 0.45-1 1v6.381l-6.194 6.194c-2.581 0.35-6.556 1.137-8.181 2.762-2.5 2.5-2.837 6.212-0.756 8.294s5.8 1.744 8.294-0.756c0.713-0.712 1.256-1.887 1.681-3.188 0.425 0.769 1.219 1.306 2.156 1.306 1.381 0 2.5-1.119 2.5-2.5s-1.119-2.5-2.5-2.5c-0.512 0-0.963 0.194-1.356 0.456 0.113-0.625 0.213-1.225 0.281-1.762l4.075-4.075v4.55c0.913 0.825 1.5 2.006 1.5 3.331 0 2.481-2.019 4.5-4.5 4.5-0.387 0-0.756-0.063-1.113-0.156-0.231 0.619-0.387 1.219-0.387 1.756 0 3.538 2.688 6.4 6 6.4s6-2.863 6-6.4c0-2.381-2.725-5.913-4.5-7.956v-6.019l4.075 4.075c0.35 2.581 1.137 6.556 2.762 8.181 2.5 2.5 6.213 2.837 8.294 0.756 2.087-2.081 1.75-5.794-0.75-8.294z"></path>
</svg>
