<!-- Generated by IcoMoon.io -->
<svg version="1.1" xmlns="http://www.w3.org/2000/svg" width="36" height="32" viewBox="0 0 36 32">
<title>mistletoe</title>
<path d="M33.881 12.338c-1.813-1.813-6.525-2.581-8.994-2.862l-5.887-5.888v-3.087c0-0.275-0.225-0.5-0.5-0.5h-1c-0.275 0-0.5 0.225-0.5 0.5v3.087l-5.887 5.888c-2.469 0.287-7.181 1.056-8.994 2.863-2.5 2.5-2.837 6.213-0.756 8.294 0.919 0.919 2.156 1.369 3.462 1.369 1.663 0 3.437-0.719 4.838-2.119 0.931-0.931 1.581-2.625 2.037-4.387 0.35 0.306 0.794 0.506 1.3 0.506 1.106 0 2-0.894 2-2s-0.894-2-2-2c-0.225 0-0.431 0.063-0.637 0.131 0.069-0.456 0.119-0.869 0.162-1.244l4.475-4.475v10.656c-1.706 1.9-5 5.906-5 8.525 0 3.538 2.688 6.4 6 6.4s6-2.863 6-6.4c0-2.619-3.294-6.625-5-8.525v-10.656l4.475 4.475c0.288 2.469 1.056 7.181 2.863 8.994 1.4 1.4 3.175 2.119 4.838 2.119 1.306 0 2.544-0.45 3.462-1.363 2.081-2.087 1.744-5.8-0.756-8.3zM8.25 18.469c-0.975 0.975-2.225 1.531-3.425 1.531-0.575 0-1.4-0.137-2.044-0.781-1.281-1.275-0.931-3.781 0.75-5.469 1.031-1.031 4.138-1.794 6.9-2.188-0.381 2.762-1.144 5.869-2.181 6.906zM22 25.6c0 2.425-1.794 4.4-4 4.4s-4-1.975-4-4.4c0-1.469 2.056-4.4 4-6.65 1.944 2.25 4 5.175 4 6.65zM33.219 19.219c-0.644 0.644-1.469 0.781-2.044 0.781-1.2 0-2.45-0.556-3.425-1.531-1.031-1.031-1.794-4.137-2.188-6.9 2.762 0.387 5.863 1.15 6.9 2.188 1.688 1.681 2.038 4.188 0.756 5.463zM24 4c1.106 0 2-0.894 2-2s-0.894-2-2-2-2 0.894-2 2 0.894 2 2 2z"></path>
</svg>
