<!-- Generated by IcoMoon.io -->
<svg version="1.1" xmlns="http://www.w3.org/2000/svg" width="28" height="32" viewBox="0 0 28 32">
<title>mitten</title>
<path d="M26.306 12.35c-0.844-0.713-1.913-1.1-3.012-1.1-1.369 0-2.656 0.594-3.556 1.631l-1.275-5.563c-0.981-4.313-4.725-7.319-9.1-7.319-0.706 0-1.419 0.081-2.112 0.244-5.025 1.169-8.169 6.25-7.013 11.319l2.788 12.188c0.025 0.119 0.069 0.231 0.1 0.35-0.587 0.194-1.125 0.738-1.125 1.4v5c0 0.831 0.669 1.5 1.487 1.5h18.944c0.819 0 1.575-0.669 1.575-1.5v-5c0-0.712-0.587-1.275-1.244-1.431l4.15-5.025c1.663-2.012 1.387-5.012-0.606-6.694zM22 30h-18v-4h18v4zM25.387 17.762l-5.156 6.238h-15.050c-0.075-0.231-0.169-0.462-0.225-0.706l-2.788-12.188c-0.913-3.994 1.563-7.994 5.525-8.919 0.55-0.125 1.106-0.194 1.662-0.194 3.45 0 6.4 2.369 7.175 5.769l1.719 7.525 0.45 1.963 2.494-3.019c0.519-0.631 1.281-0.988 2.094-0.988 0.637 0 1.25 0.225 1.744 0.637 1.163 0.975 1.319 2.712 0.356 3.881z"></path>
</svg>
