<!-- Generated by IcoMoon.io -->
<svg version="1.1" xmlns="http://www.w3.org/2000/svg" width="20" height="32" viewBox="0 0 20 32">
<title>mobile-alt</title>
<path d="M12 26c0 1.106-0.894 2-2 2s-2-0.894-2-2 0.894-2 2-2 2 0.894 2 2zM14 6h-8v15h8v-15zM15.25 4c0.412 0 0.75 0.338 0.75 0.75v17.5c0 0.413-0.338 0.75-0.75 0.75h-10.5c-0.412 0-0.75-0.337-0.75-0.75v-17.5c0-0.412 0.338-0.75 0.75-0.75h10.5zM20 3v26c0 1.656-1.344 3-3 3h-14c-1.656 0-3-1.344-3-3v-26c0-1.656 1.344-3 3-3h14c1.656 0 3 1.344 3 3zM18 3c0-0.55-0.45-1-1-1h-14c-0.55 0-1 0.45-1 1v26c0 0.55 0.45 1 1 1h14c0.55 0 1-0.45 1-1v-26z"></path>
</svg>
