<!-- Generated by IcoMoon.io -->
<svg version="1.1" xmlns="http://www.w3.org/2000/svg" width="20" height="32" viewBox="0 0 20 32">
<title>mobile-android-alt</title>
<path d="M14 6v15h-8v-15h8zM17 0h-14c-1.656 0-3 1.344-3 3v26c0 1.656 1.344 3 3 3h14c1.656 0 3-1.344 3-3v-26c0-1.656-1.344-3-3-3zM3 30c-0.55 0-1-0.45-1-1v-26c0-0.55 0.45-1 1-1h14c0.55 0 1 0.45 1 1v26c0 0.55-0.45 1-1 1h-14zM15.25 4h-10.5c-0.412 0-0.75 0.338-0.75 0.75v17.5c0 0.413 0.338 0.75 0.75 0.75h10.5c0.412 0 0.75-0.337 0.75-0.75v-17.5c0-0.412-0.338-0.75-0.75-0.75zM12.25 26h-4.5c-0.412 0-0.75 0.337-0.75 0.75v0.5c0 0.413 0.338 0.75 0.75 0.75h4.5c0.412 0 0.75-0.337 0.75-0.75v-0.5c0-0.413-0.338-0.75-0.75-0.75z"></path>
</svg>
