<!-- Generated by IcoMoon.io -->
<svg version="1.1" xmlns="http://www.w3.org/2000/svg" width="40" height="32" viewBox="0 0 40 32">
<title>money-check</title>
<path d="M39 2h-38c-0.552 0-1 0.447-1 1v25c0 1.104 0.896 2 2 2h36c1.104 0 2-0.896 2-2v-25c0-0.553-0.447-1-1-1zM38 28h-36v-18h36v18zM38 8h-36v-4h36v4zM6.5 24h9c0.276 0 0.5-0.224 0.5-0.5v-1c0-0.276-0.224-0.5-0.5-0.5h-9c-0.276 0-0.5 0.224-0.5 0.5v1c0 0.276 0.224 0.5 0.5 0.5zM24.5 24h9c0.276 0 0.5-0.224 0.5-0.5v-1c0-0.276-0.224-0.5-0.5-0.5h-9c-0.276 0-0.5 0.224-0.5 0.5v1c0 0.276 0.224 0.5 0.5 0.5zM6.5 18h13c0.276 0 0.5-0.224 0.5-0.5v-1c0-0.276-0.224-0.5-0.5-0.5h-13c-0.276 0-0.5 0.224-0.5 0.5v1c0 0.276 0.224 0.5 0.5 0.5zM25 18h8c0.553 0 1-0.448 1-1v-4c0-0.553-0.447-1-1-1h-8c-0.552 0-1 0.447-1 1v4c0 0.552 0.448 1 1 1zM26 14h6v2h-6v-2z"></path>
</svg>
