<!-- Generated by IcoMoon.io -->
<svg version="1.1" xmlns="http://www.w3.org/2000/svg" width="40" height="32" viewBox="0 0 40 32">
<title>money-check-edit-solid</title>
<path d="M28.93 23.414c0.362 0.362 0.862 0.586 1.414 0.586h2.656c0.552 0 1-0.448 1-1v0-2.654c-0-0.552-0.224-1.052-0.586-1.414l-14.464-14.465-4.481 4.481zM13.055 7.539l4.481-4.487-2.612-2.614c-0.272-0.269-0.646-0.435-1.059-0.435s-0.787 0.166-1.059 0.436l-2.368 2.367c-0.269 0.271-0.435 0.644-0.435 1.056s0.166 0.785 0.435 1.056l-0-0zM38 10h-10.688l7.517 7.517c0.723 0.724 1.171 1.723 1.171 2.827 0 0 0 0.001 0 0.001v-0 4.654c0 0.552-0.448 1-1 1v0h-28.5c-0.276 0-0.5-0.224-0.5-0.5v0-1c0-0.276 0.224-0.5 0.5-0.5v0h20.188l-4-4h-16.188c-0.276 0-0.5-0.224-0.5-0.5v0-1c0-0.276 0.224-0.5 0.5-0.5v0h14.188l-8-8h-10.688c-1.105 0-2 0.895-2 2v0 18c0 1.105 0.895 2 2 2v0h36c1.105 0 2-0.895 2-2v0-18c0-1.105-0.895-2-2-2v0z"></path>
</svg>
