<!-- Generated by IcoMoon.io -->
<svg version="1.1" xmlns="http://www.w3.org/2000/svg" width="40" height="32" viewBox="0 0 40 32">
<title>money-bill-wave-alt</title>
<path d="M20 9c-3.314 0-6 3.134-6 7s2.686 7 6 7c3.313 0 6-3.133 6-7s-2.686-7-6-7zM20 21c-2.206 0-4-2.243-4-5s1.794-5 4-5 4 2.243 4 5-1.794 5-4 5zM38.822 3.404c-2.424-1.017-4.851-1.404-7.276-1.404-7.698-0.001-15.396 3.896-23.094 3.896-4.057 0-5.522-0.959-6.438-0.959-1.076 0-2.016 0.832-2.016 1.988v19.829c0 0.789 0.452 1.538 1.177 1.841 2.424 1.017 4.851 1.404 7.276 1.404 7.698 0 15.396-3.897 23.094-3.897 4.057 0 5.521 0.959 6.438 0.959 1.076 0 2.016-0.832 2.016-1.988v-19.829c0-0.79-0.452-1.538-1.178-1.842zM37.404 24.904c-1.059-0.299-2.83-0.8-5.858-0.8-4.098 0-8.134 1.021-12.038 2.009-3.834 0.971-7.456 1.887-11.056 1.887-2.373 0-4.499-0.408-6.453-1.246l-0.031-19.819c0.097 0.011 0.391 0.094 0.626 0.161 1.058 0.299 2.83 0.8 5.857 0.8 4.098 0 8.134-1.022 12.037-2.009 3.836-0.971 7.457-1.888 11.057-1.888 2.373 0 4.5 0.409 6.453 1.246l0.031 19.819c-0.097-0.011-0.391-0.094-0.626-0.161z"></path>
</svg>
