<!-- Generated by IcoMoon.io -->
<svg version="1.1" xmlns="http://www.w3.org/2000/svg" width="40" height="32" viewBox="0 0 40 32">
<title>money-bill</title>
<path d="M20 9c-3.313 0-6 3.131-6 7 0 3.863 2.688 7 6 7s6-3.131 6-7-2.688-7-6-7zM20 21c-2.206 0-4-2.244-4-5s1.794-5 4-5 4 2.244 4 5-1.794 5-4 5zM38 4h-36c-1.106 0-2 0.894-2 2v20c0 1.106 0.894 2 2 2h36c1.106 0 2-0.894 2-2v-20c0-1.106-0.894-2-2-2zM2 6h4c0 2.206-1.794 4-4 4v-4zM2 26v-4c2.206 0 4 1.794 4 4h-4zM38 26h-4c0-2.206 1.794-4 4-4v4zM38 20c-3.306 0-6 2.694-6 6h-24c0-3.306-2.694-6-6-6v-8c3.306 0 6-2.694 6-6h24c0 3.306 2.694 6 6 6v8zM38 10c-2.206 0-4-1.794-4-4h4v4z"></path>
</svg>
