<!-- Generated by IcoMoon.io -->
<svg version="1.1" xmlns="http://www.w3.org/2000/svg" width="40" height="32" viewBox="0 0 40 32">
<title>money-bill-wave</title>
<path d="M20 9c-3.314 0-6 3.134-6 7s2.686 7 6 7c3.313 0 6-3.133 6-7s-2.686-7-6-7zM20 21c-2.206 0-4-2.243-4-5s1.794-5 4-5 4 2.243 4 5-1.794 5-4 5zM38.822 3.404c-2.424-1.017-4.851-1.404-7.276-1.404-7.698-0.001-15.396 3.896-23.094 3.896-4.057 0-5.522-0.959-6.438-0.959-1.076 0-2.016 0.832-2.016 1.988v19.829c0 0.789 0.452 1.538 1.177 1.841 2.424 1.017 4.851 1.404 7.276 1.404 7.698 0 15.396-3.897 23.094-3.897 4.057 0 5.521 0.959 6.438 0.959 1.076 0 2.016-0.832 2.016-1.988v-19.829c0-0.79-0.452-1.538-1.178-1.842zM2.059 6.954c1.264 0.401 2.564 0.658 3.917 0.806-0.123 2.088-1.827 3.752-3.931 3.777l0.014-4.582zM2 26.754l0.008-2.659c2.099 0.004 3.805 1.644 3.961 3.714-1.403-0.19-2.727-0.528-3.969-1.056zM37.941 25.046c-1.26-0.4-2.556-0.657-3.904-0.804 0.181-2.031 1.856-3.634 3.918-3.657l-0.014 4.462zM37.96 18.575c-3.125 0.021-5.662 2.457-5.911 5.537-4.421-0.089-8.574 0.989-12.538 1.992-4.692 1.188-7.909 1.951-11.526 1.867-0.077-3.251-2.717-5.876-5.972-5.883l0.026-8.542c3.166-0.021 5.732-2.52 5.924-5.657 4.408 0.088 8.564-0.989 12.525-1.992 4.674-1.184 7.906-1.951 11.514-1.868 0.011 3.308 2.688 5.996 5.984 6.004l-0.026 8.542zM37.992 8.025c-2.14-0.004-3.877-1.709-3.974-3.836 1.408 0.189 2.736 0.528 3.982 1.057l-0.008 2.779z"></path>
</svg>
