<!-- Generated by IcoMoon.io -->
<svg version="1.1" xmlns="http://www.w3.org/2000/svg" width="40" height="32" viewBox="0 0 40 32">
<title>money-check-edit</title>
<path d="M26.577 25.406c0.363 0.367 0.867 0.594 1.423 0.594h4c1.105 0 2-0.895 2-2v0-4c0-0 0-0 0-0 0-0.556-0.227-1.059-0.594-1.422l-0-0-17.989-17.823c-0.466-0.466-1.109-0.755-1.82-0.755s-1.354 0.288-1.82 0.755l-3.024 3.025c-0.466 0.469-0.754 1.114-0.754 1.828 0 0.004 0 0.008 0 0.012v-0.001c0.001 0.714 0.296 1.358 0.771 1.819l0.001 0.001zM18.091 6.25l13.909 13.75v4h-4l-13.744-13.912 3.835-3.838zM10.168 5.193l3.024-3.025c0.104-0.104 0.248-0.168 0.407-0.168 0 0 0.001 0 0.001 0h-0c0.001 0 0.001 0 0.002 0 0.157 0 0.299 0.064 0.401 0.168l2.783 2.784-3.835 3.836-2.783-2.784c-0.104-0.104-0.168-0.247-0.168-0.406s0.064-0.302 0.168-0.406v0zM8 25.5c0 0.276 0.224 0.5 0.5 0.5v0h15.851l-1.982-2h-13.869c-0.276 0-0.5 0.224-0.5 0.5v0zM8.5 20h9.906l-1.982-2h-7.924c-0.276 0-0.5 0.224-0.5 0.5v0 1c0 0.276 0.224 0.5 0.5 0.5v0zM38 8h-12.428l2.019 2h10.409v20h-36v-20h6.5l-1.125-1.133c-0.254-0.255-0.479-0.539-0.668-0.848l-0.011-0.020h-4.696c-1.105 0-2 0.895-2 2v0 20c0 1.105 0.895 2 2 2v0h36c1.105 0 2-0.895 2-2v0-20c0-1.105-0.895-2-2-2v0z"></path>
</svg>
