<!-- Generated by IcoMoon.io -->
<svg version="1.1" xmlns="http://www.w3.org/2000/svg" width="40" height="32" viewBox="0 0 40 32">
<title>money-bill-alt-solid</title>
<path d="M22 18h-1v-5.5c0-0.276-0.224-0.5-0.5-0.5h-0.849c-0.296 0-0.586 0.088-0.832 0.252l-0.958 0.639c-0.135 0.091-0.223 0.243-0.223 0.416 0 0.103 0.031 0.199 0.085 0.279l-0.001-0.002 0.555 0.832c0.091 0.135 0.243 0.223 0.416 0.223 0.103 0 0.199-0.031 0.279-0.085l-0.002 0.001 0.029-0.019v3.465h-1c-0.276 0-0.5 0.224-0.5 0.5v1c0 0.276 0.224 0.5 0.5 0.5h4c0.276 0 0.5-0.224 0.5-0.5v-1c0-0.276-0.224-0.5-0.5-0.5zM38 4h-36c-1.104 0-2 0.896-2 2v20c0 1.104 0.896 2 2 2h36c1.104 0 2-0.896 2-2v-20c0-1.104-0.896-2-2-2zM3 25v-4c2.209 0 4 1.791 4 4h-4zM3 11v-4h4c0 2.209-1.791 4-4 4zM20 23c-3.314 0-6-3.134-6-7s2.686-7 6-7 6 3.134 6 7c0 3.867-2.688 7-6 7zM37 25h-4c0-2.209 1.791-4 4-4v4zM37 11c-2.209 0-4-1.791-4-4h4v4z"></path>
</svg>
