<!-- Generated by IcoMoon.io -->
<svg version="1.1" xmlns="http://www.w3.org/2000/svg" width="40" height="32" viewBox="0 0 40 32">
<title>money-bill-wave-solid</title>
<path d="M38.822 3.404c-2.424-1.017-4.851-1.404-7.276-1.404-7.698-0.001-15.396 3.896-23.094 3.896-1.931 0-3.86-0.245-5.791-0.857-0.217-0.069-0.434-0.101-0.647-0.101-1.076 0-2.016 0.832-2.016 1.988v19.829c0 0.789 0.452 1.538 1.177 1.841 2.424 1.017 4.851 1.404 7.276 1.404 7.698 0 15.396-3.897 23.094-3.897 1.931 0 3.86 0.245 5.791 0.858 0.217 0.069 0.434 0.101 0.647 0.101 1.076 0 2.016-0.832 2.016-1.988v-19.828c-0.001-0.79-0.453-1.538-1.178-1.842zM3 8.264c1.258 0.315 2.57 0.473 3.92 0.558-0.367 1.837-1.982 3.221-3.92 3.221v-3.779zM3 26.076v-2.986c2.148 0 3.886 1.704 3.982 3.837-1.408-0.113-2.724-0.394-3.982-0.851zM20 22c-2.762 0-5-2.687-5-6s2.239-6 5-6 5 2.686 5 6c0 3.314-2.239 6-5 6zM37 23.736c-1.095-0.274-2.232-0.428-3.395-0.527 0.367-1.63 1.719-2.867 3.395-3.080v3.608zM37 8.979c-1.931-0.244-3.429-1.856-3.488-3.847 1.221 0.136 2.381 0.389 3.488 0.791v3.056z"></path>
</svg>
