<!-- Generated by IcoMoon.io -->
<svg version="1.1" xmlns="http://www.w3.org/2000/svg" width="40" height="32" viewBox="0 0 40 32">
<title>money-bill-alt</title>
<path d="M38 4h-36c-1.106 0-2 0.894-2 2v20c0 1.106 0.894 2 2 2h36c1.106 0 2-0.894 2-2v-20c0-1.106-0.894-2-2-2zM2 6h4c0 2.206-1.794 4-4 4zM2 26v-4c2.206 0 4 1.794 4 4zM38 26h-4c0-2.206 1.794-4 4-4zM38 20c-3.306 0-6 2.694-6 6h-24c0-3.306-2.694-6-6-6v-8c3.306 0 6-2.694 6-6h24c0 3.306 2.694 6 6 6zM38 10c-2.206 0-4-1.794-4-4h4zM20 8c-3.869 0-7 3.581-7 8s3.131 8 7 8c3.863 0 7-3.581 7-8s-3.131-8-7-8zM20 22c-2.756 0-5-2.694-5-6s2.244-6 5-6 5 2.694 5 6-2.244 6-5 6zM22 18.006h-1v-5.5c0-0.275-0.225-0.5-0.5-0.5h-0.856c-0.294 0-0.587 0.088-0.831 0.25l-0.956 0.637c-0.231 0.156-0.288 0.463-0.137 0.694l0.556 0.831c0.156 0.231 0.462 0.287 0.694 0.137l0.031-0.019v3.463h-1c-0.275 0-0.5 0.225-0.5 0.5v1c0 0.275 0.225 0.5 0.5 0.5h4c0.275 0 0.5-0.225 0.5-0.5v-1c0-0.275-0.225-0.5-0.5-0.494z"></path>
</svg>
