<!-- Generated by IcoMoon.io -->
<svg version="1.1" xmlns="http://www.w3.org/2000/svg" width="40" height="32" viewBox="0 0 40 32">
<title>money-check-alt-solid</title>
<path d="M38 2h-36c-1.104 0-2 0.896-2 2v24c0 1.104 0.896 2 2 2h36c1.104 0 2-0.896 2-2v-24c0-1.104-0.896-2-2-2zM11 20.492v1.008c0 0.276-0.224 0.5-0.5 0.5h-1c-0.276 0-0.5-0.224-0.5-0.5v-1.018c-0.706-0.036-1.392-0.282-1.961-0.709-0.244-0.183-0.256-0.548-0.036-0.759l0.734-0.701c0.173-0.165 0.431-0.172 0.633-0.046 0.242 0.151 0.516 0.233 0.801 0.233h1.757c0.406 0 0.738-0.37 0.738-0.824 0-0.372-0.226-0.699-0.548-0.796l-2.813-0.844c-1.162-0.349-1.974-1.464-1.974-2.712 0-1.533 1.191-2.777 2.667-2.817v-1.008c0-0.276 0.224-0.5 0.5-0.5h1c0.276 0 0.5 0.224 0.5 0.5v1.018c0.706 0.036 1.392 0.282 1.961 0.709 0.244 0.183 0.256 0.548 0.036 0.759l-0.734 0.701c-0.173 0.165-0.431 0.172-0.633 0.046-0.242-0.152-0.516-0.232-0.801-0.232h-1.757c-0.406 0-0.738 0.37-0.738 0.824 0 0.372 0.226 0.699 0.548 0.796l2.813 0.844c1.162 0.349 1.974 1.464 1.974 2.712 0 1.533-1.191 2.777-2.667 2.817zM26 19.5c0 0.276-0.224 0.5-0.5 0.5h-7c-0.276 0-0.5-0.224-0.5-0.5v-1c0-0.276 0.224-0.5 0.5-0.5h7c0.276 0 0.5 0.224 0.5 0.5v1zM36 19.5c0 0.276-0.224 0.5-0.5 0.5h-5c-0.276 0-0.5-0.224-0.5-0.5v-1c0-0.276 0.224-0.5 0.5-0.5h5c0.276 0 0.5 0.224 0.5 0.5v1zM36 13.5c0 0.276-0.224 0.5-0.5 0.5h-17c-0.276 0-0.5-0.224-0.5-0.5v-1c0-0.276 0.224-0.5 0.5-0.5h17c0.276 0 0.5 0.224 0.5 0.5v1z"></path>
</svg>
