<!-- Generated by IcoMoon.io -->
<svg version="1.1" xmlns="http://www.w3.org/2000/svg" width="40" height="32" viewBox="0 0 40 32">
<title>money-check-edit-alt-solid</title>
<path d="M12.799 7.279l0.256 0.256 4.481-4.487-2.612-2.611c-0.272-0.269-0.646-0.435-1.059-0.435s-0.787 0.166-1.059 0.436l-2.367 2.367c-0.269 0.271-0.435 0.644-0.435 1.056s0.166 0.785 0.435 1.056l-0-0zM38 10h-10.688l7.516 7.517c0.724 0.724 1.172 1.724 1.172 2.829 0 0 0 0 0 0v0 4.654c0 0.552-0.448 1-1 1v0h-18.5c-0.276 0-0.5-0.224-0.5-0.5v0-1c0-0.276 0.224-0.5 0.5-0.5v0h10.188l-4-4h-6.188c-0.276 0-0.5-0.224-0.5-0.5v0-1c0-0.276 0.224-0.5 0.5-0.5v0h4.188l-8-8h-10.688c-1.105 0-2 0.895-2 2v0 18c0 1.105 0.895 2 2 2v0h36c1.105 0 2-0.895 2-2v0-18c0-1.105-0.895-2-2-2v0zM9 25.992v1.008c0 0.276-0.224 0.5-0.5 0.5v0h-1c-0.276 0-0.5-0.224-0.5-0.5v0-1.018c-0.743-0.039-1.418-0.3-1.97-0.716l0.009 0.007c-0.118-0.092-0.193-0.235-0.193-0.395 0-0.143 0.060-0.273 0.157-0.364l0-0 0.734-0.701c0.091-0.083 0.212-0.134 0.346-0.134 0.107 0 0.207 0.033 0.289 0.089l-0.002-0.001c0.227 0.146 0.504 0.232 0.801 0.233h1.757c0.406 0 0.738-0.37 0.738-0.824 0-0.372-0.226-0.699-0.548-0.796l-2.813-0.844c-1.162-0.349-1.974-1.464-1.974-2.712 0-1.532 1.191-2.777 2.667-2.817v-1.008c0-0.276 0.224-0.5 0.5-0.5v0h1c0.276 0 0.5 0.224 0.5 0.5v0 1.018c0.743 0.039 1.419 0.3 1.97 0.716l-0.009-0.007c0.118 0.092 0.193 0.235 0.193 0.395 0 0.143-0.060 0.273-0.157 0.364l-0 0-0.734 0.701c-0.091 0.083-0.212 0.134-0.346 0.134-0.107 0-0.207-0.033-0.29-0.089l0.002 0.001c-0.227-0.146-0.504-0.233-0.801-0.233h-1.757c-0.406 0-0.737 0.37-0.737 0.824 0 0.372 0.226 0.699 0.548 0.796l2.812 0.844c1.162 0.349 1.973 1.464 1.973 2.712 0 1.533-1.19 2.777-2.666 2.817zM28.929 23.414c0.362 0.362 0.862 0.586 1.414 0.586h2.657c0.552 0 1-0.448 1-1v0-2.654c0-0 0-0 0-0 0-0.552-0.224-1.052-0.586-1.414l-14.466-14.465-4.481 4.481z"></path>
</svg>
