<!-- Generated by IcoMoon.io -->
<svg version="1.1" xmlns="http://www.w3.org/2000/svg" width="40" height="32" viewBox="0 0 40 32">
<title>money-bill-wave-alt-solid</title>
<path d="M38.822 3.404c-2.424-1.017-4.851-1.404-7.276-1.404-7.698-0.001-15.396 3.896-23.094 3.896-1.931 0-3.86-0.245-5.791-0.857-0.217-0.069-0.434-0.101-0.647-0.101-1.076 0-2.016 0.832-2.016 1.988v19.829c0 0.789 0.452 1.538 1.177 1.841 2.424 1.017 4.851 1.404 7.276 1.404 7.698 0 15.396-3.897 23.094-3.897 1.931 0 3.86 0.245 5.791 0.858 0.217 0.069 0.434 0.101 0.647 0.101 1.076 0 2.016-0.832 2.016-1.988v-19.828c-0.001-0.79-0.453-1.538-1.178-1.842zM20 22c-2.762 0-5-2.687-5-6s2.239-6 5-6 5 2.686 5 6c0 3.314-2.239 6-5 6z"></path>
</svg>
