<!-- Generated by IcoMoon.io -->
<svg version="1.1" xmlns="http://www.w3.org/2000/svg" width="40" height="32" viewBox="0 0 40 32">
<title>money-check-alt</title>
<path d="M38 2h-36c-1.104 0-2 0.896-2 2v24c0 1.104 0.896 2 2 2h36c1.104 0 2-0.896 2-2v-24c0-1.104-0.896-2-2-2zM38 28h-36v-24h36v24zM18.5 20h5c0.276 0 0.5-0.224 0.5-0.5v-1c0-0.276-0.224-0.5-0.5-0.5h-5c-0.276 0-0.5 0.224-0.5 0.5v1c0 0.276 0.224 0.5 0.5 0.5zM33.5 18h-5c-0.276 0-0.5 0.224-0.5 0.5v1c0 0.276 0.224 0.5 0.5 0.5h5c0.276 0 0.5-0.224 0.5-0.5v-1c0-0.276-0.224-0.5-0.5-0.5zM18.5 14h15c0.276 0 0.5-0.224 0.5-0.5v-1c0-0.276-0.224-0.5-0.5-0.5h-15c-0.276 0-0.5 0.224-0.5 0.5v1c0 0.276 0.224 0.5 0.5 0.5zM8.42 16.108l2.637 0.715c0.262 0.071 0.443 0.284 0.443 0.519 0 0.3-0.281 0.544-0.629 0.544h-1.646c-0.259 0-0.514-0.065-0.736-0.184-0.193-0.104-0.428-0.086-0.577 0.074l-0.754 0.796c-0.194 0.205-0.162 0.54 0.071 0.699 0.519 0.353 1.129 0.555 1.772 0.595v0.636c0 0.276 0.224 0.5 0.5 0.5h1c0.276 0 0.5-0.224 0.5-0.5v-0.641c1.386-0.069 2.5-1.161 2.5-2.519 0-1.136-0.789-2.143-1.92-2.448l-2.637-0.715c-0.262-0.071-0.443-0.284-0.443-0.519 0-0.3 0.281-0.544 0.629-0.544h1.646c0.259 0 0.514 0.065 0.736 0.184 0.193 0.104 0.428 0.086 0.578-0.074l0.754-0.796c0.194-0.205 0.162-0.54-0.071-0.699-0.519-0.353-1.129-0.555-1.772-0.595v-0.636c0-0.276-0.224-0.5-0.5-0.5h-1c-0.276 0-0.5 0.224-0.5 0.5v0.641c-1.386 0.069-2.5 1.161-2.5 2.519 0 1.136 0.789 2.143 1.92 2.448z"></path>
</svg>
