<!-- Generated by IcoMoon.io -->
<svg version="1.1" xmlns="http://www.w3.org/2000/svg" width="40" height="32" viewBox="0 0 40 32">
<title>money-check-solid</title>
<path d="M0 28c0 1.104 0.896 2 2 2h36c1.104 0 2-0.896 2-2v-20h-40v20zM28 15c0-0.553 0.448-1 1-1h6c0.553 0 1 0.447 1 1v2c0 0.552-0.447 1-1 1h-6c-0.552 0-1-0.448-1-1v-2zM28 22.5c0-0.276 0.224-0.5 0.5-0.5h7c0.276 0 0.5 0.224 0.5 0.5v1c0 0.276-0.224 0.5-0.5 0.5h-7c-0.276 0-0.5-0.224-0.5-0.5v-1zM4 16.5c0-0.276 0.224-0.5 0.5-0.5h19c0.276 0 0.5 0.224 0.5 0.5v1c0 0.276-0.224 0.5-0.5 0.5h-19c-0.276 0-0.5-0.224-0.5-0.5v-1zM4 22.5c0-0.276 0.224-0.5 0.5-0.5h11c0.276 0 0.5 0.224 0.5 0.5v1c0 0.276-0.224 0.5-0.5 0.5h-11c-0.276 0-0.5-0.224-0.5-0.5v-1zM39 2h-38c-0.552 0-1 0.447-1 1v3h40v-3c0-0.553-0.447-1-1-1z"></path>
</svg>
