<!-- Generated by IcoMoon.io -->
<svg version="1.1" xmlns="http://www.w3.org/2000/svg" width="36" height="32" viewBox="0 0 36 32">
<title>monitor-heart-rate</title>
<path d="M34 0h-32c-1.104 0-2 0.896-2 2v28c0 1.104 0.896 2 2 2h32c1.104 0 2-0.896 2-2v-28c0-1.104-0.896-2-2-2zM34 30h-32v-13h8.383l2.723 5.447c0.17 0.341 0.518 0.552 0.894 0.552 0.024 0 0.047-0.001 0.070-0.003 0.404-0.028 0.75-0.297 0.879-0.681l3.052-9.154 1.051 3.153c0.136 0.409 0.519 0.684 0.949 0.684h9.5c0.276 0 0.5-0.224 0.5-0.5v-1c0-0.276-0.224-0.5-0.5-0.5h-8.779l-1.771-5.316c-0.274-0.816-1.625-0.816-1.899 0l-3.236 9.711-1.92-3.841c-0.168-0.33-0.505-0.553-0.894-0.553-0 0-0 0-0 0h-9v-13.001h32v28z"></path>
</svg>
