<!-- Generated by IcoMoon.io -->
<svg version="1.1" xmlns="http://www.w3.org/2000/svg" width="36" height="32" viewBox="0 0 36 32">
<title>monitor-heart-rate-solid</title>
<path d="M30 6h-24v10h6.309c0.189 0 0.363 0.107 0.447 0.276l1.244 2.488 3.106-6.211c0.369-0.737 1.42-0.737 1.789 0l1.724 3.447h4.382c0.552 0 1 0.448 1 1s-0.448 1-1 1h-5.618l-1.382-2.764-3.106 6.211c-0.369 0.737-1.42 0.737-1.789 0l-1.724-3.447h-5.382v8h24v-20zM33 0h-30c-1.657 0-3 1.343-3 3v26c0 1.657 1.343 3 3 3h30c1.657 0 3-1.343 3-3v-26c0-1.657-1.343-3-3-3zM32 28h-28v-24h28v24z"></path>
</svg>
