<!-- Generated by IcoMoon.io -->
<svg version="1.1" xmlns="http://www.w3.org/2000/svg" width="40" height="32" viewBox="0 0 40 32">
<title>monkey</title>
<path d="M36 12c2.209 0 4-1.791 4-4 0-2.616-2.211-4-4-4h-0.367c-0.826-2.325-3.024-4-5.633-4s-4.806 1.675-5.633 4h-0.367c-1.764 0-4 1.371-4 4 0 2.209 1.791 4 4 4h0.367c0.071 0.2-12.367 1.68-12.367 14v2c0 0.732 0.212 1.409 0.556 2h-1.556c-1.654 0-3-1.346-3-3v-15c0-2.206-1.795-4-4-4s-4 1.794-4 4v3c0 0.553 0.448 1 1 1s1-0.447 1-1v-3c0-1.102 0.896-2 2-2s2 0.898 2 2v15c0 2.757 2.242 5 5 5h15c1.104 0 2-0.896 2-2 0-1.656-1.012-3.081-2.451-3.688l4.53-3.424 1.921 5.759v1.352c0 1.104 0.896 2 2 2h2c1.104 0 2-0.896 2-2v-1.675c0-0.539-0.086-1.072-0.257-1.583l-4.089-12.013c0.9-0.697 1.59-1.635 1.978-2.728h0.367zM36 6c0.889 0 2 0.691 2 2 0 1.102-0.898 2-2 2v-4zM24 10c-1.102 0-2-0.898-2-2 0-1.303 1.098-2 2-2v4zM35.846 27.374c0.102 0.306 0.154 0.628 0.154 0.951v1.676h-2v-1.677l-2.904-8.711-11.096 8.387h4c1.104 0 2 0.898 2 2h-10c-1.104 0-2-0.896-2-2v-2c0-6.484 5.146-11.752 11.575-11.979 1.098 1.207 2.665 1.979 4.425 1.979 0.655 0 1.274-0.131 1.864-0.325l3.982 11.699zM34 10c0 2.206-1.794 4-4 4s-4-1.794-4-4v-4c0-2.206 1.794-4 4-4s4 1.794 4 4v4zM28 6c-0.552 0-1 0.447-1 1s0.448 1 1 1 1-0.447 1-1-0.448-1-1-1zM32 6c-0.552 0-1 0.447-1 1s0.448 1 1 1 1-0.447 1-1-0.447-1-1-1z"></path>
</svg>
