<!-- Generated by IcoMoon.io -->
<svg version="1.1" xmlns="http://www.w3.org/2000/svg" width="40" height="32" viewBox="0 0 40 32">
<title>monkey-solid</title>
<path d="M34.342 16.701c-1.252 0.814-2.739 1.299-4.342 1.299-3.542 0-6.518-2.329-7.567-5.524-6.001 1.58-10.432 7.027-10.432 13.524v2c-1.103 0-2-0.898-2-2v-15c0-2.757-2.243-5-5-5s-5 2.243-5 5v3c0 1.104 0.896 2 2 2s2-0.896 2-2v-3c0-0.552 0.448-1 1-1s1 0.448 1 1v15c0 3.309 2.691 6 6 6h15c0.552 0 1-0.448 1-1v-1c0-1.104-0.896-2-2-2h-4l9.73-6.487 2.168 6.501 0.102 0.632v2.354c0 0.552 0.447 1 1 1h2c0.553 0 1-0.448 1-1v-2.351c0-0.646-0.104-1.288-0.309-1.901l-3.349-10.047zM37 4h-1.367c-0.826-2.325-3.024-4-5.633-4s-4.806 1.675-5.633 4h-1.367c-1.657 0-3 1.343-3 3s1.343 3 3 3h1c0 3.314 2.686 6 6 6s6-2.686 6-6h1c1.657 0 3-1.343 3-3s-1.343-3-3-3zM27.5 7.5c-0.552 0-1-0.447-1-1s0.448-1 1-1 1 0.447 1 1-0.448 1-1 1zM32.5 7.5c-0.552 0-1-0.447-1-1s0.448-1 1-1 1 0.447 1 1-0.447 1-1 1z"></path>
</svg>
