<!-- Generated by IcoMoon.io -->
<svg version="1.1" xmlns="http://www.w3.org/2000/svg" width="24" height="32" viewBox="0 0 24 32">
<title>monument-solid</title>
<path d="M23 28h-22c-0.552 0-1 0.448-1 1v2c0 0.552 0.448 1 1 1h22c0.552 0 1-0.448 1-1v-2c0-0.552-0.448-1-1-1zM18.071 6.296c-0.049-0.478-0.26-0.899-0.576-1.215l-4.789-4.788c-0.391-0.391-1.024-0.391-1.414 0l-4.787 4.788c-0.316 0.316-0.527 0.737-0.575 1.206l-0.001 0.009-1.929 19.704h16l-1.929-19.704zM15 19.2c0 0.4-0.4 0.8-0.8 0.8h-4.4c-0.4 0-0.8-0.4-0.8-0.8v-2.4c0-0.4 0.4-0.8 0.8-0.8h4.4c0.4 0 0.8 0.4 0.8 0.8v2.4z"></path>
</svg>
