<!-- Generated by IcoMoon.io -->
<svg version="1.1" xmlns="http://www.w3.org/2000/svg" width="24" height="32" viewBox="0 0 24 32">
<title>monument</title>
<path d="M23 26h-3l-1.929-19.704c-0.049-0.478-0.26-0.899-0.576-1.215l-4.789-4.788c-0.195-0.196-0.451-0.293-0.707-0.293s-0.512 0.098-0.707 0.293l-4.788 4.788c-0.316 0.316-0.527 0.737-0.575 1.206l-0.001 0.009-1.929 19.704h-3c-0.552 0-1 0.448-1 1v4c0 0.552 0.448 1 1 1h22c0.552 0 1-0.448 1-1v-4c0-0.552-0.448-1-1-1zM7.919 6.495l4.081-4.081 4.081 4.077 1.909 19.509h-11.981l1.91-19.505zM22 30h-20v-2h20v2zM14.5 16h-5c-0.275 0-0.5 0.225-0.5 0.5v1c0 0.275 0.225 0.5 0.5 0.5h5c0.275 0 0.5-0.225 0.5-0.5v-1c0-0.275-0.225-0.5-0.5-0.5z"></path>
</svg>
