<!-- Generated by IcoMoon.io -->
<svg version="1.1" xmlns="http://www.w3.org/2000/svg" width="36" height="32" viewBox="0 0 36 32">
<title>moon-cloud</title>
<path d="M20 18.8c0-2.838-2.288-5.15-5.113-5.2-1.006-2.131-3.175-3.6-5.637-3.6-2.606 0-4.85 1.575-5.781 3.906-2.031 0.713-3.469 2.631-3.469 4.894 0 2.869 2.331 5.2 5.2 5.2h9.6c2.869 0 5.2-2.331 5.2-5.2zM14.8 22h-9.6c-1.769 0-3.2-1.431-3.2-3.2 0-1.719 1.362-3.113 3.063-3.188 0.306-2.044 2.056-3.613 4.187-3.613 2.238 0 4.050 1.738 4.219 3.931 0.406-0.194 0.85-0.331 1.331-0.331 1.769 0 3.2 1.431 3.2 3.2s-1.431 3.2-3.2 3.2zM35.85 21.95c-0.256-0.538-0.775-0.869-1.362-0.869-0.094 0-0.188 0.006-0.288 0.025-0.481 0.094-0.969 0.137-1.45 0.137-4.188 0-7.594-3.419-7.594-7.619 0-2.731 1.475-5.269 3.85-6.625 0.556-0.319 0.85-0.938 0.744-1.569-0.106-0.638-0.587-1.119-1.219-1.237-0.719-0.131-1.456-0.2-2.188-0.2-4.788 0-8.919 2.831-10.838 6.906 0.219 0.256 0.425 0.531 0.612 0.813 0.369 0.069 0.725 0.175 1.069 0.3 1.544-3.525 5.063-6.013 9.156-6.013 0.188 0 0.369 0.006 0.556 0.013-2.337 1.806-3.744 4.619-3.744 7.619 0 5.306 4.306 9.619 9.594 9.619 0.163 0 0.325-0.006 0.487-0.012-1.85 1.769-4.3 2.762-6.894 2.762-2.4 0-4.575-0.887-6.3-2.306-0.475 0.506-1.019 0.931-1.619 1.288 2.113 1.869 4.881 3.012 7.919 3.012 3.631 0 7.025-1.619 9.313-4.444 0.375-0.45 0.45-1.069 0.194-1.6z"></path>
</svg>
