<!-- Generated by IcoMoon.io -->
<svg version="1.1" xmlns="http://www.w3.org/2000/svg" width="36" height="32" viewBox="0 0 36 32">
<title>moon-cloud-solid</title>
<path d="M16 16c-0.75 0-1.444 0.219-2.044 0.575-0.219-2.563-2.338-4.575-4.956-4.575-2.425 0-4.444 1.725-4.9 4.012-0.031 0-0.063-0.012-0.1-0.012-2.206 0-4 1.794-4 4s1.794 4 4 4h12c2.206 0 4-1.794 4-4s-1.794-4-4-4zM35.331 22.65c-5.819 1.106-11.156-3.356-11.156-9.231 0-3.387 1.813-6.5 4.756-8.175 0.456-0.256 0.337-0.944-0.175-1.044-0.725-0.131-1.456-0.2-2.188-0.2-5.675 0-10.419 3.95-11.662 9.256 0.156 0.25 0.306 0.512 0.431 0.787 0.225-0.025 0.444-0.037 0.669-0.037 3.306 0 6 2.694 6 6 0 2.256-1.262 4.2-3.106 5.225 2.075 1.731 4.75 2.775 7.669 2.775 3.7 0 7.075-1.681 9.312-4.444 0.325-0.413-0.038-1.012-0.55-0.913z"></path>
</svg>
