<!-- Generated by IcoMoon.io -->
<svg version="1.1" xmlns="http://www.w3.org/2000/svg" width="32" height="32" viewBox="0 0 32 32">
<title>moon-stars-solid</title>
<path d="M20.762 26.65c-5.819 1.106-11.156-3.356-11.156-9.231 0-3.387 1.813-6.5 4.756-8.175 0.456-0.256 0.338-0.944-0.175-1.044-7.394-1.362-14.188 4.3-14.188 11.8 0 6.625 5.362 12 11.988 12 3.7 0 7.075-1.681 9.312-4.444 0.331-0.406-0.031-1.006-0.538-0.906zM19 6l1-2 2-1-2-1-1-2-1 2-2 1 2 1 1 2zM28.669 11.331l-1.669-3.331-1.669 3.331-3.331 1.669 3.331 1.669 1.669 3.331 1.669-3.331 3.331-1.669-3.331-1.669z"></path>
</svg>
