<!-- Generated by IcoMoon.io -->
<svg version="1.1" xmlns="http://www.w3.org/2000/svg" width="32" height="32" viewBox="0 0 32 32">
<title>moon-stars</title>
<path d="M20.869 26.637c-0.038 0-0.075 0.006-0.113 0.012-0.6 0.113-1.2 0.169-1.788 0.169-5.081 0-9.375-4.131-9.375-9.4 0-3.387 1.813-6.5 4.756-8.175 0.456-0.256 0.338-0.944-0.175-1.044-0.725-0.131-1.456-0.2-2.188-0.2-6.619 0-11.988 5.369-11.988 12 0 6.625 5.362 12 11.988 12 3.7 0 7.075-1.681 9.313-4.444 0.306-0.375 0.019-0.919-0.431-0.919zM11.988 30c-5.506 0-9.988-4.488-9.988-10 0-4.906 3.55-9 8.213-9.844-1.662 2.012-2.612 4.575-2.612 7.262 0 5.613 4.069 10.294 9.406 11.231-1.5 0.875-3.225 1.35-5.019 1.35zM31.45 12.106l-3.038-1.519-1.519-3.037c-0.337-0.675-1.45-0.675-1.788 0l-1.519 3.037-3.038 1.519c-0.337 0.169-0.55 0.512-0.55 0.894s0.212 0.725 0.55 0.894l3.038 1.519 1.519 3.038c0.169 0.337 0.512 0.55 0.894 0.55s0.725-0.212 0.894-0.55l1.519-3.037 3.038-1.519c0.337-0.169 0.55-0.512 0.55-0.894s-0.212-0.725-0.55-0.894zM27.219 13.775c-0.194 0.094-0.35 0.256-0.45 0.45l-0.769 1.537-0.769-1.544c-0.1-0.194-0.256-0.35-0.45-0.45l-1.544-0.769 1.544-0.775c0.194-0.094 0.35-0.256 0.45-0.45l0.769-1.544 0.769 1.544c0.1 0.194 0.256 0.35 0.45 0.45l1.544 0.775-1.544 0.775zM19 6l1-2 2-1-2-1-1-2-1 2-2 1 2 1 1 2z"></path>
</svg>
