<!-- Generated by IcoMoon.io -->
<svg version="1.1" xmlns="http://www.w3.org/2000/svg" width="32" height="32" viewBox="0 0 32 32">
<title>moon</title>
<path d="M28.060 22.851c-6.299 1.2-12.114-3.616-12.114-10.012 0-3.681 1.973-7.052 5.161-8.866 1.614-0.919 1.208-3.366-0.626-3.705-0.878-0.17-1.889-0.267-2.922-0.267h-0c-8.833 0-16 7.159-16 16 0 8.833 7.159 16 16 16 4.933 0 9.442-2.245 12.428-5.924 1.178-1.451-0.107-3.572-1.927-3.225zM17.559 30c-7.732 0-14-6.268-14-14s6.268-14 14-14c0.874 0 1.729 0.081 2.559 0.234-3.686 2.098-6.172 6.061-6.172 10.605 0 7.663 6.976 13.408 14.488 11.977-2.567 3.163-6.485 5.184-10.875 5.184z"></path>
</svg>
