<!-- Generated by IcoMoon.io -->
<svg version="1.1" xmlns="http://www.w3.org/2000/svg" width="32" height="32" viewBox="0 0 32 32">
<title>mortar-pestle</title>
<path d="M31.5 12h-7.086l6.671-6.671c1.507-1.507 1.094-4.047-0.811-5-0.407-0.208-0.887-0.329-1.396-0.329v0c-0.664 0-1.323 0.211-1.874 0.624l-15.168 11.376h-11.337c-0.276 0-0.5 0.224-0.5 0.5v1c0 0.276 0.224 0.5 0.5 0.5h1.5v2c0 5.089 3.172 9.427 7.643 11.172-0.797 1.049-1.356 2.289-1.558 3.652-0.091 0.614 0.374 1.176 0.995 1.176h13.839c0.621 0 1.086-0.561 0.995-1.176-0.201-1.363-0.759-2.604-1.558-3.652 4.471-1.745 7.643-6.083 7.643-11.172v-2h1.5c0.276 0 0.5-0.224 0.5-0.5v-1c0-0.276-0.224-0.5-0.5-0.5zM28.204 2.224c1.099-0.824 2.451 0.707 1.467 1.691l-8.084 8.085h-6.416l13.034-9.776zM28 16c0 4.144-2.501 7.798-6.37 9.309l-2.469 0.964 1.605 2.11c0.38 0.5 0.679 1.047 0.887 1.617h-11.304c0.207-0.571 0.506-1.117 0.887-1.617l1.605-2.11-2.469-0.964c-3.87-1.511-6.371-5.164-6.371-9.309v-2h24v2z"></path>
</svg>
