<!-- Generated by IcoMoon.io -->
<svg version="1.1" xmlns="http://www.w3.org/2000/svg" width="32" height="32" viewBox="0 0 32 32">
<title>mortar-pestle-solid</title>
<path d="M31.346 3.807c1.076-1.076 0.782-2.891-0.579-3.571-0.291-0.148-0.634-0.235-0.997-0.235-0.505 0-0.97 0.168-1.344 0.45l0.006-0.004-12.738 9.554h9.461l6.192-6.193zM31 12h-30c-0.552 0-1 0.447-1 1v2c0 0.553 0.448 1 1 1h1c0 5.061 3.138 9.382 7.571 11.145-0.797 1.054-1.357 2.3-1.559 3.668-0.091 0.62 0.377 1.186 1.004 1.186h13.969c0.627 0 1.096-0.566 1.004-1.186-0.201-1.368-0.761-2.614-1.559-3.668 4.433-1.763 7.571-6.084 7.571-11.145h1c0.552 0 1-0.447 1-1v-2c0-0.553-0.448-1-1-1z"></path>
</svg>
