<!-- Generated by IcoMoon.io -->
<svg version="1.1" xmlns="http://www.w3.org/2000/svg" width="40" height="32" viewBox="0 0 40 32">
<title>mosque</title>
<path d="M15 24c-1.846 0-3 1.566-3 3.118v4.382c0 0.276 0.224 0.5 0.5 0.5h1c0.276 0 0.5-0.224 0.5-0.5v-4.5c0-0.552 0.449-1 1-1s1 0.448 1 1v4.5c0 0.276 0.224 0.5 0.5 0.5h1c0.276 0 0.5-0.224 0.5-0.5v-4.5c0-1.654-1.346-3-3-3zM37 16h-0.386c0.236-0.54 0.386-1.099 0.386-1.682 0-3.371-2.72-5.966-5.671-7.791-2.611-1.615-4.679-3.276-7.329-6.527-2.641 3.241-4.663 4.878-7.329 6.527-2.951 1.825-5.671 4.421-5.671 7.791 0 0.582 0.15 1.142 0.386 1.682h-0.386c-0.352 0-0.686 0.072-1 0.184v-8.684c0-5-5-7.5-5-7.5s-5 2.5-5 7.5v24.5h2v-20h6v19.5c0 0.276 0.224 0.5 0.5 0.5h1c0.276 0 0.5-0.224 0.5-0.5v-12.5c0-0.552 0.447-1 1-1h26c0.553 0 1 0.448 1 1v12.5c0 0.276 0.224 0.5 0.5 0.5h1c0.276 0 0.5-0.224 0.5-0.5v-12.5c0-1.657-1.343-3-3-3zM8 10h-6v-2.5c0-2.537 1.847-4.289 3-5.134 1.153 0.846 3 2.597 3 5.134v2.5zM34.317 16h-20.634c-0.454-0.576-0.683-1.14-0.683-1.682 0-2.064 1.535-4.079 4.563-5.99 2.562-1.616 4.681-3.341 6.438-5.241 1.757 1.901 3.876 3.625 6.438 5.241 3.027 1.91 4.562 3.926 4.562 5.99 0 0.542-0.229 1.106-0.683 1.682zM24 20c-3.814 1.907-4 4.762-4 5.618v5.882c0 0.276 0.224 0.5 0.5 0.5h1c0.276 0 0.5-0.224 0.5-0.5v-5.882c0-1.699 1.293-2.833 2-3.326 0.707 0.493 2 1.627 2 3.326v5.882c0 0.276 0.224 0.5 0.5 0.5h1c0.276 0 0.5-0.224 0.5-0.5v-5.882c0-0.857-0.186-3.711-4-5.618zM33 24c-1.846 0-3 1.566-3 3.118v4.382c0 0.276 0.224 0.5 0.5 0.5h1c0.276 0 0.5-0.224 0.5-0.5v-4.5c0-0.552 0.449-1 1-1s1 0.448 1 1v4.5c0 0.276 0.224 0.5 0.5 0.5h1c0.276 0 0.5-0.224 0.5-0.5v-4.5c0-1.654-1.346-3-3-3z"></path>
</svg>
