<!-- Generated by IcoMoon.io -->
<svg version="1.1" xmlns="http://www.w3.org/2000/svg" width="40" height="32" viewBox="0 0 40 32">
<title>mosque-solid</title>
<path d="M0 30c0 1.104 0.896 2 2 2h4c1.104 0 2-0.896 2-2v-20h-8v20zM36.197 18c1.116-1.087 1.803-2.334 1.803-3.682 0-3.304-2.612-5.862-5.495-7.681-2.621-1.654-5.039-3.611-6.997-6.014l-0.508-0.623-0.508 0.623c-1.958 2.403-4.376 4.36-6.997 6.014-2.883 1.819-5.495 4.378-5.495 7.681 0 1.348 0.686 2.595 1.803 3.682h22.395zM38 20h-26c-1.104 0-2 0.896-2 2v8c0 1.104 0.896 2 2 2h2v-4c0-1.104 0.896-2 2-2s2 0.896 2 2v4h4v-4.5c0-3 3-4.5 3-4.5s3 1.5 3 4.5v4.5h4v-4c0-1.104 0.896-2 2-2s2 0.896 2 2v4h2c1.104 0 2-0.896 2-2v-8c0-1.104-0.896-2-2-2zM4 0s-4 2-4 6v2h8v-2c0-4-4-6-4-6z"></path>
</svg>
