<!-- Generated by IcoMoon.io -->
<svg version="1.1" xmlns="http://www.w3.org/2000/svg" width="40" height="32" viewBox="0 0 40 32">
<title>motorcycle</title>
<path d="M32.015 12c-1.121-0.002-2.189 0.227-3.158 0.642l-1.619-2.642h5.263c0.828 0 1.5-0.672 1.5-1.5v-3c0-0.828-0.672-1.5-1.5-1.5h-3.75c-0.489 0-0.923 0.234-1.197 0.596l-0.003 0.004-1.993 2.658-1.704-2.78c-0.179-0.288-0.494-0.477-0.853-0.477h-4.75c-0.414 0-0.75 0.336-0.75 0.75v0.5c0 0.414 0.336 0.75 0.75 0.75h4.19l2.452 4h-11.293c-1.042-1.191-2.612-2-5.599-2h-2.972c-0.538 0-1.002 0.414-1.027 0.952-0.027 0.574 0.431 1.048 0.999 1.048h3c1.517 0 2.509 0.515 3.223 1.247l-0.648 1.178c-0.739-0.26-1.591-0.414-2.478-0.424l-0.005-0c-4.423-0.050-8.075 3.545-8.092 7.968-0.017 4.433 3.571 8.031 8 8.031 3.728 0 6.859-2.55 7.747-6h5.299c0.587 0 1.049-0.504 0.996-1.090-0.32-3.549 1.262-6.925 4.039-8.969l1.049 1.712c-1.914 1.471-3.145 3.788-3.13 6.392 0.024 4.352 3.575 7.916 7.927 7.955 4.411 0.039 8.007-3.492 8.072-7.879 0.066-4.438-3.546-8.113-7.984-8.121zM28.875 5.75h3.375v2.5h-5.25l1.875-2.5zM8 26c-3.308 0-6-2.692-6-6s2.692-6 6-6c0.001 0 0.002 0 0.002 0 0.565 0 1.112 0.078 1.63 0.225l-0.042-0.010-3.467 6.303c-0.366 0.665 0.116 1.482 0.876 1.482h6.656c-0.825 2.328-3.049 4-5.656 4zM20 20h-11.309l4.4-8h9.967c-1.947 2.179-3.058 5.023-3.058 8zM31.763 25.995c-3.114-0.121-5.637-2.644-5.758-5.758-0.076-1.956 0.79-3.717 2.18-4.865l3.593 5.863c0.216 0.353 0.678 0.464 1.031 0.247l0.426-0.261c0.353-0.216 0.464-0.678 0.248-1.031l-3.566-5.818c0.617-0.236 1.331-0.373 2.077-0.373 0.002 0 0.004 0 0.006 0h-0c3.308 0 6 2.692 6 6 0 3.387-2.821 6.128-6.237 5.995z"></path>
</svg>
