<!-- Generated by IcoMoon.io -->
<svg version="1.1" xmlns="http://www.w3.org/2000/svg" width="40" height="32" viewBox="0 0 40 32">
<title>motorcycle-solid</title>
<path d="M32.056 12c-0.931-0.006-1.819 0.144-2.65 0.431l-2.056-3.431h5.15c0.831 0 1.5-0.669 1.5-1.5v-2c0-0.831-0.669-1.5-1.5-1.5h-2.831c-0.425 0-0.831 0.181-1.113 0.494l-2.344 2.606-1.425-2.375c-0.275-0.45-0.762-0.725-1.288-0.725h-5c-0.55 0-1 0.45-1 1v1c0 0.55 0.45 1 1 1h4.15l1.2 2h-9.606c-1.106-1.444-2.806-2.5-6.244-2.5h-3.469c-0.844 0-1.55 0.688-1.531 1.531 0.013 0.813 0.681 1.469 1.5 1.469h3.5c1.531 0 2.419 0.681 2.987 1.55l-0.706 1.281c-0.813-0.244-1.681-0.356-2.581-0.325-4.206 0.15-7.6 3.594-7.7 7.806-0.1 4.506 3.519 8.188 8 8.188 3.725 0 6.856-2.55 7.75-6h5.262c0.856 0 1.538-0.712 1.5-1.569-0.131-2.944 1.094-5.856 3.512-7.813l0.781 1.3c-1.725 1.481-2.819 3.681-2.8 6.137 0.031 4.35 3.575 7.906 7.925 7.944 4.475 0.044 8.113-3.594 8.075-8.069-0.044-4.35-3.6-7.9-7.95-7.931zM8 25c-2.756 0-5-2.244-5-5s2.244-5 5-5c0.262 0 0.525 0.019 0.781 0.063l-2.594 4.712c-0.55 1 0.175 2.225 1.313 2.225h5.081c-0.775 1.762-2.537 3-4.581 3zM36.994 20.275c-0.138 2.538-2.188 4.587-4.719 4.719-2.881 0.156-5.275-2.144-5.275-4.994 0-1.337 0.525-2.55 1.381-3.444l3.087 5.15c0.281 0.475 0.9 0.625 1.375 0.344l0.856-0.512c0.475-0.281 0.625-0.9 0.344-1.375l-3.038-5.056c0.325-0.069 0.656-0.1 0.994-0.1 2.85-0.006 5.144 2.387 4.994 5.269z"></path>
</svg>
