<!-- Generated by IcoMoon.io -->
<svg version="1.1" xmlns="http://www.w3.org/2000/svg" width="40" height="32" viewBox="0 0 40 32">
<title>mountains</title>
<path d="M39.733 25.432l-12.127-18.6c-0.362-0.554-0.984-0.832-1.606-0.832s-1.244 0.277-1.606 0.832l-3.25 4.985-4.424-6.909c-0.387-0.605-1.054-0.907-1.72-0.907s-1.332 0.303-1.72 0.907l-12.994 20.291c-0.786 1.227 0.139 2.801 1.646 2.801h36.264c1.406 0 2.27-1.443 1.537-2.568zM2.107 26.064l12.832-20.053c0.005-0.003 0.027-0.011 0.061-0.011l0.036-0.014 12.816 20.014-25.745 0.064zM29.978 26c-0.024-0.271-0.099-0.544-0.264-0.801l-7.387-11.535 3.672-5.632 11.716 17.968h-7.738z"></path>
</svg>
