<!-- Generated by IcoMoon.io -->
<svg version="1.1" xmlns="http://www.w3.org/2000/svg" width="40" height="32" viewBox="0 0 40 32">
<title>mountain-solid</title>
<path d="M39.682 28.919l-18-28c-0.368-0.573-1.002-0.919-1.683-0.919s-1.314 0.346-1.683 0.919l-18 28c-0.199 0.306-0.318 0.68-0.318 1.082 0 0.351 0.091 0.682 0.25 0.969l-0.005-0.010c0.346 0.625 1.002 1.041 1.755 1.041 0 0 0 0 0 0h36c0.732 0 1.405-0.399 1.756-1.042 0.154-0.277 0.245-0.607 0.245-0.958 0-0.402-0.118-0.776-0.322-1.089l0.005 0.008zM20 5.699l5.337 8.301h-5.337l-4 4-2.379-2.379 6.379-9.922z"></path>
</svg>
