<!-- Generated by IcoMoon.io -->
<svg version="1.1" xmlns="http://www.w3.org/2000/svg" width="20" height="32" viewBox="0 0 20 32">
<title>mouse-pointer</title>
<path d="M9.634 30.527l-2.62-6.367-2.924 3.3c-1.438 1.623-4.090 0.588-4.090-1.617v-23.434c0-2.17 2.588-3.23 4.050-1.662l15.297 16.402c1.419 1.521 0.38 4.068-1.7 4.068h-4.107l2.676 6.502c0.509 1.238-0.065 2.657-1.28 3.163l-2.25 0.938c-1.19 0.495-2.55-0.076-3.052-1.294zM7.644 20.435l3.84 9.332c0.074 0.18 0.257 0.282 0.433 0.209l2.25-0.938c0.195-0.081 0.288-0.341 0.199-0.556l-3.812-9.263h7.092c0.313 0 0.476-0.448 0.237-0.704l-15.297-16.402c-0.225-0.241-0.587-0.057-0.587 0.298v23.434c0 0.361 0.371 0.542 0.594 0.291l5.051-5.7z"></path>
</svg>
