<!-- Generated by IcoMoon.io -->
<svg version="1.1" xmlns="http://www.w3.org/2000/svg" width="24" height="32" viewBox="0 0 24 32">
<title>mouse-alt</title>
<path d="M14 0h-4c-5.523 0-10 4.477-10 10v0 12c0 5.523 4.477 10 10 10v0h4c5.523 0 10-4.477 10-10v0-12c0-5.523-4.477-10-10-10v0zM22 22c-0.005 4.416-3.584 7.995-8 8h-4c-4.416-0.005-7.995-3.584-8-8v-12c0.005-4.416 3.584-7.995 8-8h4c4.416 0.005 7.995 3.584 8 8v0zM12 5c-1.656 0.002-2.998 1.344-3 3v2c0 1.657 1.343 3 3 3s3-1.343 3-3v0-2c-0.002-1.656-1.344-2.998-3-3h-0zM13 10c0 0.552-0.448 1-1 1s-1-0.448-1-1v0-2c0-0.552 0.448-1 1-1s1 0.448 1 1v0z"></path>
</svg>
