<!-- Generated by IcoMoon.io -->
<svg version="1.1" xmlns="http://www.w3.org/2000/svg" width="24" height="32" viewBox="0 0 24 32">
<title>mp3-player</title>
<path d="M4 12h16v-8h-16zM6 6h12v4h-12zM21 0h-18c-1.657 0-3 1.343-3 3v0 26c0 1.657 1.343 3 3 3v0h18c1.657 0 3-1.343 3-3v0-26c0-1.657-1.343-3-3-3v0zM22 29c0 0.552-0.448 1-1 1v0h-18c-0.552 0-1-0.448-1-1v0-26c0-0.552 0.448-1 1-1v0h18c0.552 0 1 0.448 1 1v0zM12 14c-3.866 0-7 3.134-7 7s3.134 7 7 7c3.866 0 7-3.134 7-7v0c-0.005-3.864-3.136-6.995-7-7h-0zM12 26c-2.761 0-5-2.239-5-5s2.239-5 5-5c2.761 0 5 2.239 5 5v0c-0.003 2.76-2.24 4.997-5 5h-0zM12 19.5c-0.828 0-1.5 0.672-1.5 1.5s0.672 1.5 1.5 1.5c0.828 0 1.5-0.672 1.5-1.5v0c0-0.828-0.672-1.5-1.5-1.5v0z"></path>
</svg>
