<!-- Generated by IcoMoon.io -->
<svg version="1.1" xmlns="http://www.w3.org/2000/svg" width="32" height="32" viewBox="0 0 32 32">
<title>mug-marshmallows-solid</title>
<path d="M11.156 4.2l1.4-1.4c-0.369-0.456-0.906-0.775-1.537-0.775h-7.019c-1.106 0-2 0.894-2 2v3.994h8.131c-0.344-1.319-0.012-2.787 1.025-3.819zM12.294 8.025h9.438c0.45-0.769 0.381-1.756-0.275-2.412l-3.031-3.025c-0.781-0.781-2.050-0.781-2.831 0l-3.031 3.025c-0.65 0.656-0.719 1.644-0.269 2.412zM25 10.019h-15v3.969c0 1.106-0.894 2-2 2s-2-0.894-2-2v-3.969h-4c-1.106 0-2 0.894-2 2v11.988c0 3.313 2.688 5.994 6 5.994h12c3.313 0 6-2.681 6-5.994h1c3.863 0 7-3.137 7-6.994s-3.137-6.994-7-6.994zM25 20.012h-1v-5.994h1c1.656 0 3 1.344 3 2.994s-1.344 3-3 3z"></path>
</svg>
