<!-- Generated by IcoMoon.io -->
<svg version="1.1" xmlns="http://www.w3.org/2000/svg" width="32" height="32" viewBox="0 0 32 32">
<title>mug-hot-solid</title>
<path d="M7.944 9.156c0.081 0.481 0.5 0.844 1 0.844h1.031c0.613 0 1.1-0.531 1.019-1.125-0.238-1.763-1.025-3.388-2.287-4.669-0.9-0.919-1.475-2.081-1.65-3.344-0.069-0.494-0.494-0.863-1.006-0.863h-1.025c-0.612 0-1.087 0.531-1.019 1.125 0.244 1.994 1.125 3.831 2.538 5.275 0.75 0.763 1.231 1.719 1.4 2.756zM14.944 9.156c0.081 0.481 0.5 0.844 1 0.844h1.031c0.613 0 1.1-0.531 1.019-1.125-0.238-1.763-1.025-3.388-2.287-4.669-0.9-0.919-1.475-2.081-1.65-3.344-0.069-0.494-0.494-0.863-1.006-0.863h-1.025c-0.613 0-1.094 0.531-1.019 1.125 0.244 1.994 1.125 3.831 2.537 5.275 0.75 0.763 1.231 1.719 1.4 2.756zM25 12h-23c-1.106 0-2 0.894-2 2v12c0 3.313 2.688 6 6 6h12c3.313 0 6-2.688 6-6h1c3.863 0 7-3.137 7-7s-3.137-7-7-7zM25 22h-1v-6h1c1.656 0 3 1.344 3 3s-1.344 3-3 3z"></path>
</svg>
