<!-- Generated by IcoMoon.io -->
<svg version="1.1" xmlns="http://www.w3.org/2000/svg" width="32" height="32" viewBox="0 0 32 32">
<title>mug-hot</title>
<path d="M26 12.006h-24c-1.106 0-2 0.894-2 2v11.994c0 3.313 2.688 6 6 6h12c3.313 0 6-2.688 6-6v-2h2c3.306 0 6-2.688 6-6s-2.694-5.994-6-5.994zM22 26c0 2.206-1.794 4-4 4h-12c-2.206 0-4-1.794-4-4v-11.994h20v11.994zM26 22h-2v-8h2c2.206 0 4 1.794 4 4s-1.794 4-4 4zM11.956 4.906c1.081 1.075 1.9 2.544 2.012 4.588 0.012 0.269 0.231 0.488 0.5 0.488h1c0.281 0 0.512-0.231 0.5-0.512-0.131-2.631-1.206-4.581-2.6-5.969-1.15-1.169-1.319-2.388-1.369-3.056-0.019-0.256-0.244-0.444-0.5-0.444l-1 0.006c-0.294 0-0.512 0.25-0.494 0.544 0.056 0.931 0.325 2.725 1.95 4.356zM5.981 4.906c1.081 1.075 1.9 2.544 2.013 4.588 0.012 0.269 0.231 0.488 0.5 0.488h1c0.281 0 0.512-0.231 0.5-0.512-0.131-2.631-1.206-4.581-2.6-5.969-1.144-1.169-1.313-2.388-1.362-3.056-0.019-0.256-0.244-0.444-0.506-0.444l-1 0.006c-0.294 0-0.513 0.25-0.494 0.544 0.063 0.931 0.325 2.725 1.95 4.356z"></path>
</svg>
