<!-- Generated by IcoMoon.io -->
<svg version="1.1" xmlns="http://www.w3.org/2000/svg" width="40" height="32" viewBox="0 0 40 32">
<title>mug-tea</title>
<path d="M37.619 28h-37.237c-0.819 0-0.281 2 1.25 2h34.737c1.531 0 2.069-2 1.25-2zM34 2h-26c-1.105 0-2 0.895-2 2v0 14c0 3.314 2.686 6 6 6v0h12c3.314 0 6-2.686 6-6v0-4h4c3.314 0 6-2.686 6-6s-2.686-6-6-6v0zM28 18c-0.003 2.208-1.792 3.997-4 4h-12c-2.208-0.003-3.998-1.792-4-4v-14h6v2l-2.414 2.414c-0.362 0.362-0.586 0.862-0.586 1.414v4.172c0 1.105 0.895 2 2 2v0h4c1.105 0 2-0.895 2-2v0-4.172c-0-0.552-0.224-1.052-0.586-1.414l-2.414-2.414v-2h12zM15 7.828l2 2v4.172h-4v-4.172zM34 12h-4v-8h4c2.209 0 4 1.791 4 4s-1.791 4-4 4v0z"></path>
</svg>
