<!-- Generated by IcoMoon.io -->
<svg version="1.1" xmlns="http://www.w3.org/2000/svg" width="32" height="32" viewBox="0 0 32 32">
<title>mug-marshmallows</title>
<path d="M26 10h-4c0.781-0.781 0.781-2.050 0-2.831l-4.587-4.588c-0.387-0.388-0.9-0.587-1.413-0.587s-1.025 0.194-1.412 0.587l-1.669 1.669c-0.281-0.15-0.581-0.25-0.919-0.25h-8c-1.106 0-2 0.894-2 2v4c-1.106 0-2 0.894-2 2v12c0 3.313 2.688 6 6 6h12c3.313 0 6-2.688 6-6v-2h2c3.306 0 6-2.694 6-6s-2.694-6-6-6zM16 4l4.587 4.588-1.419 1.412h-6.338l-1.412-1.412 4.581-4.588zM4 6h7.169l-1.169 1.169c-0.781 0.781-0.781 2.050 0 2.831h-6v-4zM22 24c0 2.206-1.794 4-4 4h-12c-2.206 0-4-1.794-4-4v-12h4v5c0 0.55 0.45 1 1 1s1-0.45 1-1v-5h14v12zM26 20h-2v-8h2c2.206 0 4 1.794 4 4s-1.794 4-4 4z"></path>
</svg>
