<!-- Generated by IcoMoon.io -->
<svg version="1.1" xmlns="http://www.w3.org/2000/svg" width="40" height="32" viewBox="0 0 40 32">
<title>mug-tea-solid</title>
<path d="M37.225 26h-36.453c-1.563 0-0.725 4 2.25 4h31.959c2.981 0 3.806-4 2.243-4zM12 24h12c3.314 0 6-2.686 6-6v0h2c4.418 0 8-3.582 8-8s-3.582-8-8-8v0h-17v4l2.414 2.414c0.362 0.362 0.586 0.862 0.586 1.414v4.172c0 1.105-0.895 2-2 2v0h-4c-1.105 0-2-0.895-2-2v0-4.172c0-0.552 0.224-1.052 0.586-1.414l2.414-2.414v-4h-5.5c-0.001 0-0.002 0-0.004 0-0.826 0-1.496 0.67-1.496 1.496 0 0.001 0 0.003 0 0.004v-0 14.5c0 3.314 2.686 6 6 6v0zM30 6h2c2.209 0 4 1.791 4 4s-1.791 4-4 4v0h-2z"></path>
</svg>
