<!-- Generated by IcoMoon.io -->
<svg version="1.1" xmlns="http://www.w3.org/2000/svg" width="40" height="32" viewBox="0 0 40 32">
<title>music-slash-solid</title>
<path d="M12 24.245c-0.599-0.152-1.288-0.241-1.997-0.245h-0.003c-3.313 0-6 1.791-6 4s2.688 4 6 4 6-1.791 6-4v-7.508l-4-3.091zM39.614 28.631l-4.066-3.142c0.282-0.461 0.453-0.959 0.453-1.489v-22c-0.001-1.104-0.896-1.998-2-1.998-0.215 0-0.422 0.034-0.615 0.096l0.014-0.004-19.998 5.906c-0.638 0.208-1.126 0.711-1.309 1.344l-0.003 0.014-9.246-7.146c-0.168-0.132-0.382-0.211-0.615-0.211-0.32 0-0.605 0.15-0.788 0.385l-0.002 0.002-1.227 1.579c-0.131 0.168-0.21 0.381-0.21 0.614 0 0.32 0.15 0.605 0.384 0.788l0.002 0.002 36.772 28.419c0.168 0.132 0.382 0.211 0.614 0.211 0.32 0 0.605-0.15 0.788-0.385l0.002-0.002 1.227-1.579c0.131-0.168 0.211-0.381 0.211-0.614 0-0.32-0.15-0.605-0.384-0.788l-0.002-0.002zM32 20.245c-0.599-0.152-1.288-0.241-1.997-0.245h-0.003c-0.494 0.007-0.972 0.055-1.437 0.14l0.052-0.008-9.788-7.563 13.172-3.863z"></path>
</svg>
