<!-- Generated by IcoMoon.io -->
<svg version="1.1" xmlns="http://www.w3.org/2000/svg" width="40" height="32" viewBox="0 0 40 32">
<title>music-slash</title>
<path d="M39.813 30.334l-38.375-30.22c-0.085-0.071-0.195-0.114-0.315-0.114-0.156 0-0.295 0.073-0.385 0.187l-0.001 0.001-0.625 0.781c-0.070 0.085-0.112 0.194-0.112 0.314 0 0.157 0.073 0.297 0.187 0.387l0.001 0.001 38.375 30.218c0.084 0.069 0.193 0.111 0.312 0.111 0.156 0 0.295-0.073 0.386-0.186l0.001-0.001 0.625-0.781c0.071-0.084 0.113-0.194 0.113-0.313 0-0.156-0.073-0.294-0.186-0.384l-0.001-0.001zM16 8h-0.035v-0.008l18.035-5.954v5.854l-13.669 4.556 1.88 1.481 11.789-3.929v9.297c-1.063-0.797-2.456-1.297-4-1.297-0.778 0.002-1.525 0.13-2.223 0.365l0.050-0.014 2.102 1.655c0.024 0 0.047-0.006 0.072-0.006 2.168 0 4 1.375 4 3 0 0.063-0.021 0.125-0.027 0.191l1.708 1.345c0.193-0.453 0.309-0.98 0.319-1.532l0-0.004v-21c0-1.141-0.894-2-1.91-2-0.207 0-0.406 0.034-0.591 0.098l0.013-0.004-18.174 6c-0.643 0.214-1.105 0.763-1.264 1.427l1.926 1.517zM14 23.297c-1.063-0.797-2.456-1.297-4-1.297-3.313 0-6 2.238-6 5s2.688 5 6 5 6-2.238 6-5v-10.331l-2-1.575zM10 30c-2.168 0-4-1.375-4-3s1.832-3 4-3 4 1.375 4 3-1.831 3-4 3z"></path>
</svg>
