<!-- Generated by IcoMoon.io -->
<svg version="1.1" xmlns="http://www.w3.org/2000/svg" width="32" height="32" viewBox="0 0 32 32">
<title>music-solid</title>
<path d="M29.399 0.094l-19.998 5.906c-0.818 0.263-1.4 1.017-1.401 1.907v16.338c-0.599-0.152-1.288-0.241-1.997-0.245h-0.003c-3.313 0-6 1.791-6 4s2.688 4 6 4 6-1.791 6-4v-14.605l16-4.688v11.538c-0.599-0.152-1.288-0.242-1.997-0.246h-0.003c-3.313 0-6 1.791-6 4s2.688 4 6 4 6-1.791 6-4v-22c-0.001-1.104-0.896-1.998-2-1.998-0.215 0-0.422 0.034-0.615 0.096l0.014-0.004z"></path>
</svg>
