<!-- Generated by IcoMoon.io -->
<svg version="1.1" xmlns="http://www.w3.org/2000/svg" width="40" height="32" viewBox="0 0 40 32">
<title>music-alt-slash</title>
<path d="M39.813 30.334l-38.375-30.22c-0.085-0.071-0.195-0.114-0.315-0.114-0.156 0-0.295 0.073-0.385 0.187l-0.001 0.001-0.625 0.781c-0.070 0.085-0.112 0.194-0.112 0.314 0 0.157 0.073 0.297 0.187 0.387l0.001 0.001 38.375 30.218c0.084 0.069 0.193 0.111 0.312 0.111 0.156 0 0.295-0.073 0.386-0.186l0.001-0.001 0.625-0.781c0.071-0.084 0.113-0.194 0.113-0.313 0-0.156-0.073-0.294-0.186-0.384l-0.001-0.001zM20 23.508c-1.272-0.928-3.039-1.508-5-1.508-3.866 0-7 2.239-7 5s3.134 5 7 5 7-2.239 7-5v-5.608l-2-1.575zM15 30c-2.947 0-5-1.581-5-3s2.054-3 5-3 5 1.581 5 3-2.054 3-5 3zM22 12l8.633-2.211c0.801-0.273 1.367-1.019 1.367-1.897 0-0 0-0 0-0v0-5.892c-0.001-1.104-0.896-1.998-2-1.998-0.224 0-0.438 0.037-0.639 0.104l0.014-0.004-8.038 1.993c-0.793 0.264-1.337 1.030-1.337 1.905v8.188l2 1.575zM21.965 3.993l8.035-1.993v5.891l-8 2v-5.891h-0.035z"></path>
</svg>
