<!-- Generated by IcoMoon.io -->
<svg version="1.1" xmlns="http://www.w3.org/2000/svg" width="32" height="32" viewBox="0 0 32 32">
<title>music</title>
<path d="M30.090 0c-0.207 0-0.406 0.034-0.591 0.098l0.013-0.004-18.174 6c-0.793 0.264-1.338 1.031-1.338 1.906v15.297c-1.063-0.797-2.457-1.297-4-1.297-3.313 0-6 2.238-6 5s2.688 5 6 5 6-2.238 6-5v-11l18-6v9.297c-1.063-0.797-2.457-1.297-4-1.297-3.313 0-6 2.238-6 5s2.688 5 6 5 6-2.238 6-5v-21c0-1.141-0.894-2-1.91-2zM6 30c-2.168 0-4-1.375-4-3s1.832-3 4-3 4 1.375 4 3-1.832 3-4 3zM26 26c-2.168 0-4-1.375-4-3s1.832-3 4-3 4 1.375 4 3-1.832 3-4 3zM30 7.893l-18 6v-5.893h-0.035v-0.008l18.035-5.954z"></path>
</svg>
