<!-- Generated by IcoMoon.io -->
<svg version="1.1" xmlns="http://www.w3.org/2000/svg" width="40" height="32" viewBox="0 0 40 32">
<title>music-alt-slash-solid</title>
<path d="M17 22c-3.866 0-7 2.239-7 5s3.134 5 7 5 7-2.239 7-5v-0.324l-5.932-4.585c-0.312-0.048-0.681-0.081-1.056-0.091l-0.012-0zM39.614 28.631l-15.614-12.069v-7.303l4.563-1.337c0.838-0.251 1.438-1.015 1.438-1.919 0-0 0-0 0-0v0-4.003c-0.001-1.104-0.896-1.999-2-1.999-0.202 0-0.397 0.030-0.581 0.086l0.014-0.004-6.033 1.782c-0.818 0.263-1.399 1.017-1.4 1.906v9.701l-17.158-13.261c-0.168-0.132-0.382-0.211-0.615-0.211-0.32 0-0.605 0.15-0.788 0.385l-0.002 0.002-1.227 1.579c-0.131 0.168-0.21 0.381-0.21 0.614 0 0.32 0.15 0.605 0.384 0.788l0.002 0.002 36.772 28.419c0.168 0.132 0.382 0.211 0.614 0.211 0.32 0 0.605-0.15 0.788-0.385l0.002-0.002 1.227-1.579c0.131-0.168 0.211-0.381 0.211-0.614 0-0.32-0.15-0.605-0.384-0.788l-0.002-0.002z"></path>
</svg>
