<!-- Generated by IcoMoon.io -->
<svg version="1.1" xmlns="http://www.w3.org/2000/svg" width="40" height="32" viewBox="0 0 40 32">
<title>narwhal</title>
<path d="M37.149 14.027l2.806-11.994c0.17-0.719-0.162-1.469-0.813-1.828-0.387-0.211-0.836-0.264-1.262-0.139-0.424 0.124-0.776 0.405-0.984 0.789l-6.199 11.231c-12.158 0.896-16.753 13.914-19.456 13.914-0.685 0-1.242-0.558-1.242-1.242v-6.758l2.961-1.556c0.649-0.371 1.039-0.996 1.039-1.664v-5.778c0-0.588-0.563-1.002-1.17-1.002-0.217 0-0.439 0.053-0.644 0.169l-5.186 2.964-5.186-2.964c-0.204-0.117-0.427-0.169-0.644-0.169-0.607 0-1.17 0.413-1.17 1.002v5.778c0 0.669 0.39 1.293 1.039 1.664l2.961 1.556v6.758c0 4 3.242 7.242 7.242 7.242h23.758c2.761 0 5-2.239 5-5v-6.966c0-2.444-1.167-4.554-2.851-6.006zM37.44 4.011l-2.069 8.836c-0.764-0.379-1.569-0.629-2.398-0.744l4.468-8.092zM38 27c0 1.654-1.346 3-3 3h-23.758c-2.89 0-5.242-2.352-5.242-5.242v-7.966l-4-2.115v-4.098l5 2.857 5-2.857v4.11l-4 2.102v7.966c0 1.788 1.454 3.242 3.242 3.242 1.863 0 3.122-1.622 5.028-4.077 3.068-3.951 7.705-9.923 15.73-9.923 2.838 0 6 2.478 6 6.034v6.966zM27 22c-0.552 0-1 0.448-1 1s0.448 1 1 1 1-0.448 1-1-0.448-1-1-1z"></path>
</svg>
