<!-- Generated by IcoMoon.io -->
<svg version="1.1" xmlns="http://www.w3.org/2000/svg" width="40" height="32" viewBox="0 0 40 32">
<title>narwhal-solid</title>
<path d="M37.552 13.191l2.431-10.386c0.065-0.279-0.059-0.578-0.321-0.723-0.317-0.175-0.716-0.060-0.891 0.257l-5.334 9.661s0.026 0.011 0.070 0.029c-14.782 0.309-19.259 13.971-23.265 13.971-1.236 0-2.242-1.006-2.242-2.242v-6.124l3.109-1.907c0.54-0.364 0.891-0.973 0.891-1.664 0 0 0-0 0-0v0-5.061c0-0.799-0.89-1.275-1.555-0.832l-4.445 2.964-4.445-2.964c-0.665-0.442-1.555 0.034-1.555 0.832v5.061c0 0.669 0.334 1.293 0.891 1.664l3.109 1.908v6.124c0 3.442 2.8 6.242 6.242 6.242h25.758c2.209 0 4-1.791 4-4v-8c0-1.975-0.971-3.716-2.448-4.809zM27 22c-0.552 0-1-0.448-1-1s0.448-1 1-1 1 0.448 1 1-0.448 1-1 1z"></path>
</svg>
