<!-- Generated by IcoMoon.io -->
<svg version="1.1" xmlns="http://www.w3.org/2000/svg" width="40" height="32" viewBox="0 0 40 32">
<title>network-wired</title>
<path d="M39.5 15h-18.5v-5h5c1.104 0 2-0.896 2-2v-6c0-1.104-0.896-2-2-2h-12c-1.104 0-2 0.896-2 2v6c0 1.104 0.896 2 2 2h5v5h-18.5c-0.276 0-0.5 0.224-0.5 0.5v1c0 0.276 0.224 0.5 0.5 0.5h7.5v5h-4c-1.104 0-2 0.896-2 2v6c0 1.104 0.896 2 2 2h10c1.104 0 2-0.896 2-2v-6c0-1.104-0.896-2-2-2h-4v-5h20v5h-4c-1.104 0-2 0.896-2 2v6c0 1.104 0.896 2 2 2h10c1.104 0 2-0.896 2-2v-6c0-1.104-0.896-2-2-2h-4v-5h7.5c0.276 0 0.5-0.224 0.5-0.5v-1c0-0.276-0.224-0.5-0.5-0.5zM14 24v6h-10v-6h10zM14 8v-6h12v6h-12zM36 24v6h-10v-6h10z"></path>
</svg>
