<!-- Generated by IcoMoon.io -->
<svg version="1.1" xmlns="http://www.w3.org/2000/svg" width="40" height="32" viewBox="0 0 40 32">
<title>network-wired-solid</title>
<path d="M40 16.5v-1c0-0.553-0.447-1-1-1h-17.5v-2.5h4.5c1.104 0 2-0.896 2-2v-8c0-1.104-0.896-2-2-2h-12c-1.104 0-2 0.896-2 2v8c0 1.104 0.896 2 2 2h4.5v2.5h-17.5c-0.552 0-1 0.447-1 1v1c0 0.552 0.448 1 1 1h6.5v2.5h-3.5c-1.104 0-2 0.896-2 2v8c0 1.104 0.896 2 2 2h10c1.104 0 2-0.896 2-2v-8c0-1.104-0.896-2-2-2h-3.5v-2.5h19v2.5h-3.5c-1.104 0-2 0.896-2 2v8c0 1.104 0.896 2 2 2h10c1.104 0 2-0.896 2-2v-8c0-1.104-0.896-2-2-2h-3.5v-2.5h6.5c0.553 0 1-0.448 1-1zM16 8v-4h8v4h-8zM12 28h-6v-4h6v4zM34 28h-6v-4h6v4z"></path>
</svg>
