<!-- Generated by IcoMoon.io -->
<svg version="1.1" xmlns="http://www.w3.org/2000/svg" width="36" height="32" viewBox="0 0 36 32">
<title>newspaper-solid</title>
<path d="M34.5 4h-29c-0.828 0-1.5 0.672-1.5 1.5v0.5h-2.5c-0.828 0-1.5 0.672-1.5 1.5v17c0 1.933 1.567 3.5 3.5 3.5h29.5c1.657 0 3-1.343 3-3v-19.5c0-0.828-0.672-1.5-1.5-1.5zM3.5 25c-0.276 0-0.5-0.224-0.5-0.5v0-15.5h1v15.5c0 0.276-0.224 0.5-0.5 0.5v0zM18.25 24h-9.5c-0.414 0-0.75-0.336-0.75-0.75v-0.5c0-0.414 0.336-0.75 0.75-0.75h9.5c0.414 0 0.75 0.336 0.75 0.75v0.5c0 0.414-0.336 0.75-0.75 0.75zM31.25 24h-9.5c-0.414 0-0.75-0.336-0.75-0.75v-0.5c0-0.414 0.336-0.75 0.75-0.75h9.5c0.414 0 0.75 0.336 0.75 0.75v0.5c0 0.414-0.336 0.75-0.75 0.75zM18.25 18h-9.5c-0.414 0-0.75-0.336-0.75-0.75v-0.5c0-0.414 0.336-0.75 0.75-0.75h9.5c0.414 0 0.75 0.336 0.75 0.75v0.5c0 0.414-0.336 0.75-0.75 0.75zM31.25 18h-9.5c-0.414 0-0.75-0.336-0.75-0.75v-0.5c0-0.414 0.336-0.75 0.75-0.75h9.5c0.414 0 0.75 0.336 0.75 0.75v0.5c0 0.414-0.336 0.75-0.75 0.75zM31.25 12h-22.5c-0.414 0-0.75-0.336-0.75-0.75v-2.5c0-0.414 0.336-0.75 0.75-0.75h22.5c0.414 0 0.75 0.336 0.75 0.75v2.5c0 0.414-0.336 0.75-0.75 0.75z"></path>
</svg>
