<!-- Generated by IcoMoon.io -->
<svg version="1.1" xmlns="http://www.w3.org/2000/svg" width="36" height="32" viewBox="0 0 36 32">
<title>newspaper</title>
<path d="M34.5 4h-29c-0.827 0-1.5 0.673-1.5 1.5v0.5h-2.5c-0.828 0-1.5 0.672-1.5 1.5v17.5c0 1.657 1.343 3 3 3h31.5c0.827 0 1.5-0.673 1.5-1.5v-21c0-0.827-0.673-1.5-1.5-1.5zM2 25v-17h2v17c0 0.551-0.449 1-1 1s-1-0.449-1-1zM34 26h-28.171c0.109-0.297 0.171-0.64 0.171-0.998 0-0.001 0-0.001 0-0.002v0-19h28v20zM8.75 20h10.5c0.414 0 0.75-0.336 0.75-0.75v-10.5c0-0.414-0.336-0.75-0.75-0.75h-10.5c-0.414 0-0.75 0.336-0.75 0.75v10.5c0 0.414 0.336 0.75 0.75 0.75zM10 10h8v8h-8v-8zM8 23.25v-0.5c0-0.414 0.336-0.75 0.75-0.75h10.5c0.414 0 0.75 0.336 0.75 0.75v0.5c0 0.414-0.336 0.75-0.75 0.75h-10.5c-0.414 0-0.75-0.336-0.75-0.75zM22 23.25v-0.5c0-0.414 0.336-0.75 0.75-0.75h8.5c0.414 0 0.75 0.336 0.75 0.75v0.5c0 0.414-0.336 0.75-0.75 0.75h-8.5c-0.414 0-0.75-0.336-0.75-0.75zM22 19.25v-0.5c0-0.414 0.336-0.75 0.75-0.75h8.5c0.414 0 0.75 0.336 0.75 0.75v0.5c0 0.414-0.336 0.75-0.75 0.75h-8.5c-0.414 0-0.75-0.336-0.75-0.75zM22 11.25v-0.5c0-0.414 0.336-0.75 0.75-0.75h8.5c0.414 0 0.75 0.336 0.75 0.75v0.5c0 0.414-0.336 0.75-0.75 0.75h-8.5c-0.414 0-0.75-0.336-0.75-0.75zM22 15.25v-0.5c0-0.414 0.336-0.75 0.75-0.75h8.5c0.414 0 0.75 0.336 0.75 0.75v0.5c0 0.414-0.336 0.75-0.75 0.75h-8.5c-0.414 0-0.75-0.336-0.75-0.75z"></path>
</svg>
