<!-- Generated by IcoMoon.io -->
<svg version="1.1" xmlns="http://www.w3.org/2000/svg" width="28" height="32" viewBox="0 0 28 32">
<title>not-equal-solid</title>
<path d="M26 13c1.104 0 2-0.896 2-2v-2c0-1.104-0.896-2-2-2h-1.492l3.242-4.176c0.336-0.439 0.253-1.066-0.186-1.402l-1.588-1.216c-0.439-0.336-1.066-0.253-1.402 0.186l-5.13 6.608h-17.443c-1.104 0-2 0.896-2 2v2c0 1.104 0.896 2 2 2h12.785l-4.658 6h-8.127c-1.104 0-2 0.896-2 2v2c0 1.104 0.896 2 2 2h3.468l-3.242 4.176c-0.336 0.438-0.252 1.066 0.186 1.402l1.588 1.216c0.439 0.336 1.066 0.253 1.402-0.186l5.131-6.608h15.467c1.104 0 2-0.896 2-2v-2c0-1.104-0.896-2-2-2h-10.809l4.658-6h6.151z"></path>
</svg>
