<!-- Generated by IcoMoon.io -->
<svg version="1.1" xmlns="http://www.w3.org/2000/svg" width="24" height="32" viewBox="0 0 24 32">
<title>not-equal</title>
<path d="M23.5 10h-3.379l3.732-3.732c0.195-0.195 0.195-0.512 0-0.707l-1.414-1.414c-0.195-0.195-0.512-0.195-0.707 0l-5.854 5.854h-15.379c-0.276 0-0.5 0.224-0.5 0.5v2c0 0.276 0.224 0.5 0.5 0.5h12.379l-6 6h-6.379c-0.276 0-0.5 0.224-0.5 0.5v2c0 0.276 0.224 0.5 0.5 0.5h3.379l-3.732 3.732c-0.195 0.195-0.195 0.512 0 0.707l1.414 1.414c0.195 0.195 0.512 0.195 0.707 0l5.854-5.853h15.379c0.276 0 0.5-0.224 0.5-0.5v-2c0-0.276-0.224-0.5-0.5-0.5h-12.379l6-6h6.379c0.276 0 0.5-0.224 0.5-0.5v-2c0-0.276-0.224-0.5-0.5-0.5z"></path>
</svg>
