<!-- Generated by IcoMoon.io -->
<svg version="1.1" xmlns="http://www.w3.org/2000/svg" width="24" height="32" viewBox="0 0 24 32">
<title>notes-medical-solid</title>
<path d="M21 4h-5c0-2.206-1.794-4-4-4s-4 1.794-4 4h-5c-1.656 0-3 1.344-3 3v22c0 1.656 1.344 3 3 3h18c1.656 0 3-1.344 3-3v-22c0-1.656-1.344-3-3-3zM12 2.5c0.831 0 1.5 0.669 1.5 1.5s-0.669 1.5-1.5 1.5-1.5-0.669-1.5-1.5 0.669-1.5 1.5-1.5zM18 21.5c0 0.275-0.225 0.5-0.5 0.5h-3.5v3.5c0 0.275-0.225 0.5-0.5 0.5h-3c-0.275 0-0.5-0.225-0.5-0.5v-3.5h-3.5c-0.275 0-0.5-0.225-0.5-0.5v-3c0-0.275 0.225-0.5 0.5-0.5h3.5v-3.5c0-0.275 0.225-0.5 0.5-0.5h3c0.275 0 0.5 0.225 0.5 0.5v3.5h3.5c0.275 0 0.5 0.225 0.5 0.5v3zM18 9.5c0 0.275-0.225 0.5-0.5 0.5h-11c-0.275 0-0.5-0.225-0.5-0.5v-1c0-0.275 0.225-0.5 0.5-0.5h11c0.275 0 0.5 0.225 0.5 0.5v1z"></path>
</svg>
