<!-- Generated by IcoMoon.io -->
<svg version="1.1" xmlns="http://www.w3.org/2000/svg" width="36" height="32" viewBox="0 0 36 32">
<title>object-ungroup</title>
<path d="M35.25 14c0.414 0 0.75-0.336 0.75-0.75v-4.5c0-0.414-0.336-0.75-0.75-0.75h-4.5c-0.414 0-0.75 0.336-0.75 0.75v1.25h-6v-2h1.25c0.414 0 0.75-0.336 0.75-0.75v-4.5c0-0.414-0.336-0.75-0.75-0.75h-4.5c-0.414 0-0.75 0.336-0.75 0.75v1.25h-14v-1.25c0-0.414-0.336-0.75-0.75-0.75h-4.5c-0.414 0-0.75 0.336-0.75 0.75v4.5c0 0.414 0.336 0.75 0.75 0.75h1.25v10h-1.25c-0.414 0-0.75 0.336-0.75 0.75v4.5c0 0.414 0.336 0.75 0.75 0.75h4.5c0.414 0 0.75-0.336 0.75-0.75v-1.25h6v2h-1.25c-0.414 0-0.75 0.336-0.75 0.75v4.5c0 0.414 0.336 0.75 0.75 0.75h4.5c0.414 0 0.75-0.336 0.75-0.75v-1.25h14v1.25c0 0.414 0.336 0.75 0.75 0.75h4.5c0.414 0 0.75-0.336 0.75-0.75v-4.5c0-0.414-0.336-0.75-0.75-0.75h-1.25v-10h1.25zM24 20v2h-2v-2h2zM22 4h2v2h-2v-2zM2 4h2v2h-2v-2zM4 22h-2v-2h2v2zM5.25 18h-1.25v-10h1.25c0.414 0 0.75-0.336 0.75-0.75v-1.25h14v1.25c0 0.414 0.336 0.75 0.75 0.75h1.25v10h-1.25c-0.414 0-0.75 0.336-0.75 0.75v1.25h-14v-1.25c0-0.414-0.336-0.75-0.75-0.75zM14 28h-2v-2h2v2zM30 24.75v1.25h-14v-1.25c0-0.414-0.336-0.75-0.75-0.75h-1.25v-2h6v1.25c0 0.414 0.336 0.75 0.75 0.75h4.5c0.414 0 0.75-0.336 0.75-0.75v-4.5c0-0.414-0.336-0.75-0.75-0.75h-1.25v-6h6v1.25c0 0.414 0.336 0.75 0.75 0.75h1.25v10h-1.25c-0.414 0-0.75 0.336-0.75 0.75zM34 28h-2v-2h2v2zM32 12v-2h2v2h-2z"></path>
</svg>
