<!-- Generated by IcoMoon.io -->
<svg version="1.1" xmlns="http://www.w3.org/2000/svg" width="32" height="32" viewBox="0 0 32 32">
<title>object-group</title>
<path d="M25.25 12h-5.25v-3.25c0-0.412-0.337-0.75-0.75-0.75h-12.5c-0.412 0-0.75 0.338-0.75 0.75v10.5c0 0.413 0.338 0.75 0.75 0.75h5.25v3.25c0 0.413 0.338 0.75 0.75 0.75h12.5c0.413 0 0.75-0.337 0.75-0.75v-10.5c0-0.412-0.337-0.75-0.75-0.75zM8 18v-8h10v8zM24 22h-10v-2h5.25c0.413 0 0.75-0.337 0.75-0.75v-5.25h4zM31.25 8c0.413 0 0.75-0.338 0.75-0.75v-4.5c0-0.413-0.337-0.75-0.75-0.75h-4.5c-0.413 0-0.75 0.337-0.75 0.75v1.25h-20v-1.25c0-0.413-0.338-0.75-0.75-0.75h-4.5c-0.412 0-0.75 0.337-0.75 0.75v4.5c0 0.412 0.338 0.75 0.75 0.75h1.25v16h-1.25c-0.412 0-0.75 0.337-0.75 0.75v4.5c0 0.413 0.338 0.75 0.75 0.75h4.5c0.412 0 0.75-0.337 0.75-0.75v-1.25h20v1.25c0 0.413 0.337 0.75 0.75 0.75h4.5c0.413 0 0.75-0.337 0.75-0.75v-4.5c0-0.413-0.337-0.75-0.75-0.75h-1.25v-16zM2 4h2v2h-2zM4 28h-2v-2h2zM26 24.75v1.25h-20v-1.25c0-0.413-0.338-0.75-0.75-0.75h-1.25v-16h1.25c0.412 0 0.75-0.338 0.75-0.75v-1.25h20v1.25c0 0.412 0.337 0.75 0.75 0.75h1.25v16h-1.25c-0.413 0-0.75 0.337-0.75 0.75zM30 28h-2v-2h2zM28 6v-2h2v2z"></path>
</svg>
