<!-- Generated by IcoMoon.io -->
<svg version="1.1" xmlns="http://www.w3.org/2000/svg" width="36" height="32" viewBox="0 0 36 32">
<title>object-ungroup-solid</title>
<path d="M4 20v1.625c0 0.207-0.168 0.375-0.375 0.375v0h-3.25c-0.207 0-0.375-0.168-0.375-0.375v0-3.25c0-0.207 0.168-0.375 0.375-0.375v0h1.625v-12h-1.625c-0.207 0-0.375-0.168-0.375-0.375v0-3.25c0-0.207 0.168-0.375 0.375-0.375v0h3.25c0.207 0 0.375 0.168 0.375 0.375v0 1.625h18v-1.625c0-0.207 0.168-0.375 0.375-0.375v0h3.25c0.207 0 0.375 0.168 0.375 0.375v0 3.25c0 0.207-0.168 0.375-0.375 0.375v0h-1.625v12h1.625c0.207 0 0.375 0.168 0.375 0.375v0 3.25c0 0.207-0.168 0.375-0.375 0.375v0h-3.25c-0.207 0-0.375-0.168-0.375-0.375v0-1.625h-18zM34 16v-2h1.625c0.207 0 0.375-0.168 0.375-0.375v0-3.25c0-0.207-0.168-0.375-0.375-0.375v0h-3.25c-0.207 0-0.375 0.168-0.375 0.375v0 1.625h-6.5v4.5h0.5c0.828 0 1.5 0.672 1.5 1.5v4c0 0.828-0.672 1.5-1.5 1.5h-4c-0.828 0-1.5-0.672-1.5-1.5v-0.5h-8.5v4.5h-1.625c-0.207 0-0.375 0.168-0.375 0.375v0 3.25c0 0.207 0.168 0.375 0.375 0.375v0h3.25c0.207 0 0.375-0.168 0.375-0.375v0-1.625h18v1.625c0 0.207 0.168 0.375 0.375 0.375v0h3.25c0.207 0 0.375-0.168 0.375-0.375v0-3.25c0-0.207-0.168-0.375-0.375-0.375v0h-1.625v-10z"></path>
</svg>
