<!-- Generated by IcoMoon.io -->
<svg version="1.1" xmlns="http://www.w3.org/2000/svg" width="32" height="32" viewBox="0 0 32 32">
<title>octagon-solid</title>
<path d="M22.594 0.881c-0.563-0.563-1.325-0.881-2.119-0.881h-8.944c-0.794 0-1.556 0.319-2.119 0.881l-8.531 8.525c-0.563 0.563-0.881 1.325-0.881 2.119v8.944c0 0.794 0.319 1.556 0.881 2.119l8.531 8.531c0.563 0.563 1.325 0.881 2.119 0.881h8.944c0.794 0 1.556-0.319 2.119-0.881l8.531-8.531c0.563-0.563 0.881-1.325 0.881-2.119v-8.938c0-0.794-0.319-1.556-0.881-2.119l-8.531-8.531z"></path>
</svg>
