<!-- Generated by IcoMoon.io -->
<svg version="1.1" xmlns="http://www.w3.org/2000/svg" width="40" height="32" viewBox="0 0 40 32">
<title>oil-can</title>
<path d="M39.362 10.019l-13.363 3.981-3.156-1.578c-0.521-0.266-1.137-0.422-1.789-0.422h-4.056v-4h4.5c0.276 0 0.5-0.224 0.5-0.5v-1c0-0.276-0.224-0.5-0.5-0.5h-11c-0.276 0-0.5 0.224-0.5 0.5v1c0 0.276 0.224 0.5 0.5 0.5h4.5v4l-4-0.001-8.643-1.571c-1.324-0.241-2.357 0.818-2.357 1.968v5.934c0 0.966 0.691 1.795 1.643 1.968l4.357 0.793v2.91c0 1.104 0.896 2 2 2h17.164c0.534 0 1.047-0.214 1.422-0.594l13.266-13.422c0.094-0.094 0.146-0.221 0.146-0.354v-1.13c0.001-0.359-0.343-0.564-0.637-0.481zM6 19.057l-4-0.727 0.002-5.934 3.998 0.727v5.934zM25.164 24h-17.164v-10h13.056c0.311 0 0.617 0.072 0.894 0.211l3.509 1.754c0.227 0.114 0.489 0.136 0.733 0.064l9.709-2.893-10.737 10.863zM36.178 18.432c-0.654 0.947-2.178 3.289-2.178 4.567 0 1.654 1.346 3 3 3s3-1.346 3-3c0-1.278-1.524-3.62-2.178-4.567-0.371-0.541-1.274-0.541-1.645 0.001zM37 23.999c-0.551 0-1-0.448-1-0.999 0.008-0.306 0.424-1.177 1-2.146 0.576 0.97 0.992 1.841 1 2.146 0 0.551-0.449 0.999-1 0.999z"></path>
</svg>
