<!-- Generated by IcoMoon.io -->
<svg version="1.1" xmlns="http://www.w3.org/2000/svg" width="40" height="32" viewBox="0 0 40 32">
<title>oil-can-solid</title>
<path d="M39.362 10.019l-13.363 3.981-3.156-1.578c-0.521-0.266-1.137-0.422-1.789-0.422h-3.556v-3h3.5c0.552 0 1-0.447 1-1v-1c0-0.553-0.448-1-1-1h-10c-0.553 0-1 0.447-1 1v1c0 0.553 0.447 1 1 1h3.5v3h-3.5l-8.643-1.571c-0.109-0.021-0.234-0.033-0.362-0.033v0c-1.079 0-1.996 0.877-1.996 2.001v5.934c0 0.966 0.691 1.795 1.643 1.968l4.357 0.793v2.909c0 1.104 0.896 2 2 2h17.164c0.534 0 1.047-0.214 1.422-0.594l13.266-13.422c0.094-0.094 0.146-0.221 0.146-0.354v-1.13c0.001-0.332-0.318-0.572-0.637-0.481zM6 18.042l-3-0.546v-3.902l3 0.546v3.902zM34.333 23.333c0 1.473 1.194 2.667 2.667 2.667s2.667-1.194 2.667-2.667-2.667-5.333-2.667-5.333-2.667 3.861-2.667 5.333z"></path>
</svg>
