<!-- Generated by IcoMoon.io -->
<svg version="1.1" xmlns="http://www.w3.org/2000/svg" width="40" height="32" viewBox="0 0 40 32">
<title>oil-temp-solid</title>
<path d="M20 24c2.761 0 5-2.239 5-5 0-2.049-1.236-3.806-3-4.578v-1.422h3c0.552 0 1-0.447 1-1v-1c0-0.553-0.448-1-1-1h-3v-2h3c0.552 0 1-0.447 1-1v-1c0-0.553-0.448-1-1-1h-3v-2h3c0.552 0 1-0.447 1-1v-1c0-0.552-0.448-1-1-1h-6c-0.552 0-1 0.448-1 1v13.422c-1.764 0.772-3 2.529-3 4.578 0 2.761 2.239 5 5 5zM1 24h1c2.414 0 4.545-0.762 6-1.99 1.455 1.229 3.586 1.99 6 1.99 0.354 0 0.688-0.049 1.029-0.081-1.044-1.056-1.728-2.448-1.935-3.991-1.174-0.152-2.084-0.571-2.599-1.046-0.556-0.513-1.229-0.881-1.986-0.881h-1.019c-0.757 0-1.429 0.368-1.986 0.881-0.642 0.593-1.877 1.119-3.504 1.119h-1c-0.552 0-1 0.448-1 1v2c0 0.552 0.448 1 1 1zM39 28h-1c-1.627 0-2.862-0.526-3.506-1.119-0.556-0.513-1.229-0.881-1.986-0.881h-1.019c-0.757 0-1.429 0.368-1.986 0.881-0.642 0.593-1.877 1.119-3.504 1.119s-2.863-0.526-3.506-1.119c-0.556-0.513-1.229-0.881-1.986-0.881h-1.019c-0.757 0-1.429 0.368-1.986 0.881-0.642 0.593-1.877 1.119-3.504 1.119s-2.863-0.526-3.506-1.119c-0.556-0.513-1.229-0.881-1.986-0.881h-1.019c-0.757 0-1.429 0.368-1.986 0.881-0.642 0.593-1.877 1.119-3.504 1.119h-1c-0.552 0-1 0.448-1 1v2c0 0.552 0.448 1 1 1h1c2.414 0 4.545-0.762 6-1.99 1.455 1.229 3.586 1.99 6 1.99s4.545-0.762 6-1.99c1.455 1.229 3.586 1.99 6 1.99s4.545-0.762 6-1.99c1.455 1.229 3.586 1.99 6 1.99h1c0.553 0 1-0.448 1-1v-2c0-0.552-0.447-1-1-1zM39 20h-1c-1.627 0-2.862-0.526-3.506-1.119-0.556-0.513-1.229-0.881-1.986-0.881h-1.019c-0.757 0-1.429 0.368-1.986 0.881-0.515 0.475-1.425 0.894-2.599 1.046-0.207 1.543-0.891 2.936-1.935 3.991 0.341 0.032 0.674 0.081 1.029 0.081 2.414 0 4.545-0.762 6-1.99 1.455 1.229 3.586 1.99 6 1.99h1c0.553 0 1-0.448 1-1v-2c0.001-0.552-0.446-1-0.999-1z"></path>
</svg>
