<!-- Generated by IcoMoon.io -->
<svg version="1.1" xmlns="http://www.w3.org/2000/svg" width="40" height="32" viewBox="0 0 40 32">
<title>oil-temp</title>
<path d="M0.5 24h1.5c2.414 0 4.545-0.762 6-1.99 1.455 1.229 3.586 1.99 6 1.99 0.153 0 0.293-0.029 0.444-0.035-0.459-0.603-0.812-1.28-1.056-2.014-1.316-0.115-2.336-0.556-2.893-1.070s-1.229-0.881-1.986-0.881h-1.019c-0.757 0-1.429 0.368-1.986 0.881-0.643 0.593-1.877 1.119-3.505 1.119h-1.5c-0.276 0-0.5 0.224-0.5 0.5v1c0 0.276 0.224 0.5 0.5 0.5zM39.5 22h-1.5c-1.627 0-2.862-0.526-3.506-1.119-0.556-0.513-1.229-0.881-1.986-0.881h-1.019c-0.757 0-1.429 0.368-1.986 0.881s-1.577 0.955-2.893 1.070c-0.244 0.734-0.598 1.411-1.056 2.014 0.151 0.006 0.291 0.035 0.444 0.035 2.414 0 4.545-0.762 6-1.99 1.455 1.229 3.586 1.99 6 1.99h1.5c0.276 0 0.5-0.224 0.5-0.5v-1c0.001-0.276-0.223-0.5-0.499-0.5zM20 25.001c2.758 0 5-2.243 5-5.001 0-2.414-1.72-4.434-4-4.899v-5.101h4.5c0.276 0 0.5-0.224 0.5-0.5v-1c0-0.276-0.224-0.5-0.5-0.5h-4.5v-2h4.5c0.276 0 0.5-0.224 0.5-0.5v-1c0-0.276-0.224-0.5-0.5-0.5h-4.5v-2h4.5c0.276 0 0.5-0.224 0.5-0.5v-1c0-0.276-0.224-0.5-0.5-0.5h-5c-0.825 0-1.5 0.675-1.5 1.5v13.601c-2.28 0.464-4 2.484-4 4.899 0 2.758 2.242 5.001 5 5.001zM20 17c1.654 0 3 1.346 3 3s-1.346 3.001-3 3.001-3-1.347-3-3.001 1.346-3 3-3zM39.5 30h-1.5c-1.627 0-2.862-0.526-3.506-1.119-0.556-0.513-1.229-0.881-1.986-0.881h-1.019c-0.757 0-1.429 0.368-1.986 0.881-0.642 0.593-1.877 1.119-3.504 1.119s-2.863-0.526-3.506-1.119c-0.556-0.513-1.229-0.881-1.986-0.881h-1.019c-0.757 0-1.429 0.368-1.986 0.881-0.642 0.593-1.877 1.119-3.504 1.119s-2.863-0.526-3.506-1.119c-0.556-0.513-1.229-0.881-1.986-0.881h-1.019c-0.757 0-1.429 0.368-1.986 0.881-0.642 0.593-1.877 1.119-3.504 1.119h-1.5c-0.276 0-0.5 0.224-0.5 0.5v1c0 0.276 0.224 0.5 0.5 0.5h1.5c2.414 0 4.545-0.762 6-1.99 1.455 1.229 3.586 1.99 6 1.99s4.545-0.762 6-1.99c1.455 1.229 3.586 1.99 6 1.99s4.545-0.762 6-1.99c1.455 1.229 3.586 1.99 6 1.99h1.5c0.276 0 0.5-0.224 0.5-0.5v-1c0-0.276-0.224-0.5-0.5-0.5z"></path>
</svg>
