<!-- Generated by IcoMoon.io -->
<svg version="1.1" xmlns="http://www.w3.org/2000/svg" width="32" height="32" viewBox="0 0 32 32">
<title>om-solid</title>
<path d="M22.538 3.809c0.118 0.118 0.281 0.191 0.461 0.191s0.343-0.073 0.461-0.191v0l1.348-1.348c0.118-0.118 0.191-0.281 0.191-0.461s-0.073-0.343-0.191-0.461l-1.349-1.347c-0.255-0.254-0.668-0.254-0.922 0l-1.348 1.347c-0.118 0.118-0.191 0.281-0.191 0.461s0.073 0.343 0.191 0.461l1.349 1.348zM25.757 12c-1.668 0-3.236 0.649-4.415 1.828l-1.516 1.516c-0.424 0.423-0.986 0.656-1.586 0.656h-2.928c0.659-1.381 0.886-3.007 0.483-4.702-0.631-2.659-2.898-4.757-5.595-5.199-2.259-0.371-4.431 0.315-6.001 1.799-0.46 0.435-0.436 1.178 0.070 1.558l1.634 1.227c0.357 0.269 0.854 0.27 1.2-0.013 0.528-0.431 1.189-0.669 1.892-0.669 1.654 0 3.001 1.346 3.001 3s-1.346 3-3.001 3h-1.994c-0.748 0-1.234 0.786-0.899 1.455l1.006 2.011c0.158 0.316 0.475 0.506 0.823 0.534h2.064c2.206 0 4.001 1.794 4.001 4s-1.794 4-4.001 4c-6.001 0-7.647-3.376-9.072-5.752-0.283-0.472-0.923-0.224-0.924 0.326-0.006 3.426 2.571 9.426 9.996 9.426 4.412 0 8.001-3.589 8.001-8 0-1.464-0.424-2.819-1.113-4h1.356c1.668 0 3.236-0.649 4.415-1.828l1.516-1.516c0.424-0.423 0.986-0.656 1.586-0.656 1.236 0 2.242 1.006 2.242 2.242v6.258c0 0.827-1.173 1.5-2.001 1.5-2.462 0-4.167-1.515-5.114-2.681-0.298-0.367-0.887-0.159-0.887 0.314v2.367s0 4 6.001 4c3.034 0 6.001-2.467 6.001-5.5v-6.258c0-3.442-2.8-6.242-6.243-6.242zM28.393 4.204c-5.347 4.070-10.566 0.172-10.786 0.003-0.376-0.289-0.902-0.274-1.259 0.034-0.359 0.308-0.454 0.823-0.229 1.237 0.101 0.184 2.523 4.521 7.425 4.521 4.995 0 6.174-1.96 6.359-2.354 0.064-0.133 0.096-0.279 0.096-0.427v-2.22c0-0.826-0.946-1.293-1.606-0.796z"></path>
</svg>
