<!-- Generated by IcoMoon.io -->
<svg version="1.1" xmlns="http://www.w3.org/2000/svg" width="28" height="32" viewBox="0 0 28 32">
<title>om</title>
<path d="M18.539 5.809c0.255 0.254 0.668 0.254 0.922 0l1.348-1.348c0.118-0.118 0.191-0.281 0.191-0.461s-0.073-0.343-0.191-0.461v0l-1.348-1.348c-0.118-0.118-0.281-0.191-0.461-0.191s-0.343 0.073-0.461 0.191v0l-1.348 1.348c-0.118 0.118-0.191 0.281-0.191 0.461s0.073 0.343 0.191 0.461v0l1.348 1.348zM19.41 10c3.537 0 4.365-0.901 4.495-1.082 0.059-0.082 0.095-0.184 0.095-0.295 0-0 0-0 0-0v0-1.623c0-0.411-0.459-0.643-0.781-0.404-1.253 0.929-2.621 1.4-4.066 1.4-2.481 0-4.349-1.384-4.368-1.398-0.437-0.328-1.009 0.211-0.702 0.679 0.073 0.111 1.826 2.723 5.327 2.723zM22.194 13.029c-1.248 0.131-2.393 0.756-3.281 1.643l-1.377 1.377c-0.587 0.587-1.398 0.95-2.294 0.95h-4.535c1.077-1.293 1.609-3.054 1.096-4.964-0.539-2.007-2.234-3.582-4.281-3.946-1.949-0.346-3.824 0.311-5.087 1.703-0.192 0.211-0.143 0.549 0.085 0.721l0.804 0.604c0.211 0.158 0.494 0.114 0.679-0.074 0.792-0.809 1.925-1.19 3.104-0.994 1.348 0.224 2.479 1.274 2.792 2.604 0.542 2.295-1.194 4.346-3.399 4.346l-1.999 0.011c-0.372 0.002-0.613 0.394-0.447 0.727l0.502 1.006c0.079 0.158 0.237 0.253 0.412 0.267l2.331-0.011c2.349 0 4.451 1.713 4.679 4.051 0.261 2.681-1.849 4.948-4.478 4.948h-0.5c-3.599 0-5.591-1.93-6.446-3.196-0.169-0.251-0.554-0.119-0.554 0.174-0.003 1.15 1.71 5.022 7.215 5.022 3.638 0 6.846-2.975 6.784-6.612-0.029-1.704-0.725-3.244-1.828-4.388h3.071c1.391 0 2.724-0.552 3.707-1.536l1.446-1.447c0.455-0.455 1.019-0.806 1.649-0.941 2.096-0.45 3.955 1.144 3.955 3.166v5.258c0 1.381-1.119 2.5-2.5 2.5h-1.5c-1.293 0-2.038-0.811-2.534-1.404-0.156-0.187-0.466-0.081-0.466 0.16v1.206s-0.15 2.039 3 2.039h1.5c2.486 0 4.5-2.015 4.5-4.5v-5.258c0.001-3.078-2.663-5.544-5.806-5.214z"></path>
</svg>
