<!-- Generated by IcoMoon.io -->
<svg version="1.1" xmlns="http://www.w3.org/2000/svg" width="28" height="32" viewBox="0 0 28 32">
<title>omega</title>
<path d="M28 16c0-8.263-7.159-14.854-15.613-13.909-6.348 0.709-11.506 5.813-12.28 12.152-0.711 5.825 2.169 11.033 6.709 13.758h-6.316c-0.276 0-0.5 0.224-0.5 0.5v1c0 0.276 0.224 0.5 0.5 0.5h9c0.276 0 0.5-0.224 0.5-0.5v-1.519c0-0.411-0.256-0.768-0.635-0.927-4.515-1.899-7.638-6.473-7.346-11.733 0.337-6.084 5.394-11.063 11.482-11.311 6.843-0.279 12.499 5.207 12.499 11.99 0 4.973-3.046 9.237-7.365 11.054-0.379 0.159-0.635 0.516-0.635 0.927v1.519c0 0.276 0.224 0.5 0.5 0.5h9c0.276 0 0.5-0.224 0.5-0.5v-1c0-0.276-0.224-0.5-0.5-0.5h-6.316c4.078-2.447 6.816-6.898 6.816-12z"></path>
</svg>
