<!-- Generated by IcoMoon.io -->
<svg version="1.1" xmlns="http://www.w3.org/2000/svg" width="32" height="32" viewBox="0 0 32 32">
<title>omega-solid</title>
<path d="M30.5 26h-2.038c2.681-3.323 4.066-7.73 3.352-12.463-1.057-7.015-6.865-12.609-13.911-13.427-9.669-1.122-17.903 6.441-17.903 15.889 0 3.787 1.329 7.261 3.538 10h-2.038c-0.828 0-1.5 0.672-1.5 1.5v3c0 0.828 0.672 1.5 1.5 1.5h8.5c1.104 0 2-0.896 2-2v-2.669c0-1.283-0.693-2.424-1.742-3.162-3.014-2.12-4.811-5.854-4.104-9.941 0.681-3.933 3.781-7.178 7.687-8.001 6.453-1.359 12.16 3.553 12.16 9.773 0 3.402-1.712 6.407-4.317 8.211-1.031 0.714-1.683 1.852-1.683 3.106v2.683c0 1.104 0.896 2 2 2h8.5c0.828 0 1.5-0.672 1.5-1.5v-3c0-0.828-0.672-1.5-1.5-1.5z"></path>
</svg>
