<!-- Generated by IcoMoon.io -->
<svg version="1.1" xmlns="http://www.w3.org/2000/svg" width="24" height="32" viewBox="0 0 24 32">
<title>ornament-solid</title>
<path d="M18 9.619v-2.619c0-0.55-0.45-1-1-1h-1.556c0.344-0.588 0.556-1.269 0.556-2 0-2.206-1.794-4-4-4s-4 1.794-4 4c0 0.731 0.213 1.412 0.556 2h-1.556c-0.55 0-1 0.45-1 1v2.619c-1.819 1.050-3.331 2.569-4.381 4.381h20.763c-1.050-1.813-2.563-3.331-4.381-4.381zM12 5c-0.55 0-1-0.45-1-1s0.45-1 1-1 1 0.45 1 1-0.45 1-1 1zM23.288 16h-22.575c-0.444 1.256-0.713 2.594-0.713 4s0.256 2.75 0.7 4h22.606c0.444-1.25 0.7-2.594 0.7-4-0.006-1.406-0.275-2.744-0.719-4zM12 32c4.438 0 8.306-2.419 10.381-6h-20.762c2.075 3.581 5.944 6 10.381 6z"></path>
</svg>
