<!-- Generated by IcoMoon.io -->
<svg version="1.1" xmlns="http://www.w3.org/2000/svg" width="24" height="32" viewBox="0 0 24 32">
<title>ornament</title>
<path d="M18 9.619v-3.619c0-1.106-0.894-2-2-2h-1.181c0.113-0.313 0.181-0.65 0.181-1 0-1.656-1.344-3-3-3s-3 1.344-3 3c0 0.35 0.075 0.688 0.181 1h-1.181c-1.106 0-2 0.894-2 2v3.619c-3.581 2.075-6 5.944-6 10.381 0 6.625 5.375 12 12 12s12-5.375 12-12c0-4.438-2.419-8.306-6-10.381zM11 3c0-0.55 0.45-1 1-1s1 0.45 1 1-0.45 1-1 1-1-0.45-1-1zM8 6h8v2.7c-1.25-0.444-2.594-0.7-4-0.7s-2.75 0.256-4 0.7v-2.7zM12 10c3.256 0 6.119 1.588 7.95 4h-15.9c1.831-2.412 4.694-4 7.95-4zM12 30c-3.256 0-6.119-1.587-7.95-4h15.9c-1.831 2.413-4.694 4-7.95 4zM21.15 24h-18.3c-0.544-1.225-0.85-2.575-0.85-4s0.306-2.775 0.85-4h18.306c0.538 1.225 0.85 2.575 0.85 4s-0.313 2.775-0.856 4z"></path>
</svg>
