<!-- Generated by IcoMoon.io -->
<svg version="1.1" xmlns="http://www.w3.org/2000/svg" width="40" height="32" viewBox="0 0 40 32">
<title>otter-solid</title>
<path d="M38 2h-2l-0.828-0.828c-0.724-0.724-1.723-1.172-2.828-1.172-0 0-0.001 0-0.001 0h-1.281c-0.696 0-1.38 0.182-1.984 0.527l-9.578 5.473h-3.5c-6.628 0-12 5.372-12 12v0.101c0 2.047-1 3.884-2.473 5.306-1.137 1.099-1.756 2.73-1.449 4.488 0.422 2.425 2.681 4.106 5.143 4.106h6.779c1.104 0 2-0.896 2-2s-0.896-2-2-2h-7c-0.552 0-1-0.448-1-1s0.448-1 1-1h14c0.552 0 1-0.448 1-1v-1c0-1.104-0.896-2-2-2h-4l9.343-5.031 4.657 9.031h5c0.553 0 1-0.448 1-1v-1c0-1.104-0.896-2-2-2h-1.764l-3.444-6.888 5.779-3.112h1.429c3.314 0 6-2.686 6-6v-2c0-1.104-0.896-2-2-2zM32 3c0.553 0 1 0.447 1 1s-0.447 1-1 1-1-0.447-1-1 0.448-1 1-1zM34 9h-2.185l-6.365 3.428-0.861-1.722 7.411-3.706h4.816c-0.414 1.161-1.514 2-2.816 2z"></path>
</svg>
