<!-- Generated by IcoMoon.io -->
<svg version="1.1" xmlns="http://www.w3.org/2000/svg" width="40" height="32" viewBox="0 0 40 32">
<title>otter</title>
<path d="M32 3.5c-0.552 0-1 0.447-1 1s0.448 1 1 1c0.553 0 1-0.447 1-1s-0.447-1-1-1zM37 2h-1.071l-0.829-0.829c-0.755-0.755-1.76-1.171-2.828-1.171h-1.281c-0.695 0-1.381 0.182-1.984 0.527l-9.578 5.473h-1.429c-6.617 0-12 5.383-12 12v0.071c-3.388 0.487-6 3.408-6 6.929 0 3.86 3.14 7 7 7h9c1.654 0 3-1.346 3-3s-1.346-3-3-3h-9c-0.551 0-1-0.449-1-1s0.449-1 1-1h13c1.104 0 2-0.896 2-2 0-1.438-0.762-2.7-1.903-3.405l3.038-1.616 2.957 5.915c0.336 0.661 1.010 1.106 1.789 1.106h6.119c1.104 0 2-0.896 2-2 0-2.206-1.794-4-4-4h-1.646l-1.919-3.839 2.801-1.49c0.826-0.439 1.829-0.671 2.764-0.671 3.308 0 6-2.691 6-6v-1c0-1.654-1.346-3-3-3zM34 10c-1.266 0-2.585 0.311-3.703 0.906l-0.262 0.139 1.056-1.373c0.565-0.735 1.454-1.172 2.378-1.172h3.631c-0.733 0.908-1.842 1.5-3.099 1.5zM37.949 6.5h-4.481c-1.541 0-3.021 0.729-3.963 1.952l-3.732 4.859 3.344 6.689h2.882c1.104 0 2 0.898 2 2h-6.118l-3.875-7.749-10.811 5.749h4.804c1.104 0 2 0.898 2 2h-13c-1.654 0-3 1.346-3 3s1.346 3 3 3h9c0.552 0 1 0.448 1 1s-0.448 1-1 1h-9c-2.758 0-5-2.243-5-5s2.242-5 5-5h1v-2c0-5.523 4.477-10 10-10h1.96l10.039-5.737c0.285-0.165 0.627-0.263 0.992-0.263 0 0 0 0 0 0h1.281c0.534 0 1.036 0.208 1.414 0.586l1.414 1.414h1.9c0.553 0 1 0.447 1 1 0 0-0.029 1.334-0.051 1.5z"></path>
</svg>
