<!-- Generated by IcoMoon.io -->
<svg version="1.1" xmlns="http://www.w3.org/2000/svg" width="28" height="32" viewBox="0 0 28 32">
<title>outdent</title>
<path d="M6.293 22.706c0.177 0.181 0.425 0.294 0.698 0.294v0c0.003 0 0.006 0 0.009 0 0.552 0 1-0.447 1-0.999v-12c0 0 0-0 0-0 0-0.552-0.448-1-1-1-0.003 0-0.006 0-0.009 0h0c-0.274 0-0.521 0.113-0.699 0.294l-6 6c-0.181 0.181-0.293 0.431-0.293 0.707s0.112 0.526 0.293 0.707v0zM6 12.415v7.17l-3.586-3.585zM27.5 3h-27c-0.276 0-0.5 0.224-0.5 0.5v0 1c0 0.276 0.224 0.5 0.5 0.5v0h27c0.276 0 0.5-0.224 0.5-0.5v0-1c0-0.276-0.224-0.5-0.5-0.5v0zM27.5 27h-27c-0.276 0-0.5 0.224-0.5 0.5v0 1c0 0.276 0.224 0.5 0.5 0.5v0h27c0.276 0 0.5-0.224 0.5-0.5v0-1c0-0.276-0.224-0.5-0.5-0.5v0zM27.5 19h-15c-0.276 0-0.5 0.224-0.5 0.5v0 1c0 0.276 0.224 0.5 0.5 0.5v0h15c0.276 0 0.5-0.224 0.5-0.5v0-1c0-0.276-0.224-0.5-0.5-0.5v0zM27.5 11h-15c-0.276 0-0.5 0.224-0.5 0.5v0 1c0 0.276 0.224 0.5 0.5 0.5v0h15c0.276 0 0.5-0.224 0.5-0.5v0-1c0-0.276-0.224-0.5-0.5-0.5v0z"></path>
</svg>
