<!-- Generated by IcoMoon.io -->
<svg version="1.1" xmlns="http://www.w3.org/2000/svg" width="32" height="32" viewBox="0 0 32 32">
<title>outlet-solid</title>
<path d="M28 0h-24c-2.209 0-4 1.791-4 4v0 24c0 2.209 1.791 4 4 4v0h24c2.209 0 4-1.791 4-4v0-24c0-2.209-1.791-4-4-4v0zM24.141 25.581c-0.259 0.259-0.616 0.419-1.012 0.419-0.005 0-0.010-0-0.015-0h-14.23c-0.004 0-0.009 0-0.014 0-0.395 0-0.753-0.16-1.011-0.419l-0-0c-2.377-2.438-3.859-5.824-3.859-9.581s1.482-7.143 3.859-9.581c0.259-0.259 0.616-0.419 1.011-0.419 0.005 0 0.011 0 0.016 0h14.23c0.004-0 0.010-0 0.015-0 0.395 0 0.752 0.16 1.011 0.419v0c2.375 2.437 3.859 5.825 3.859 9.581s-1.482 7.142-3.859 9.581zM16 19c-1.105 0-2 0.895-2 2v0 1h4v-1c0-1.105-0.895-2-2-2v0zM12 11h-1c-0.552 0-1 0.448-1 1v0 5c0 0.552 0.448 1 1 1v0h1c0.552 0 1-0.448 1-1v0-5c0-0.552-0.448-1-1-1v0zM21 11h-1c-0.552 0-1 0.448-1 1v0 5c0 0.552 0.448 1 1 1v0h1c0.552 0 1-0.448 1-1v0-5c0-0.552-0.448-1-1-1v0z"></path>
</svg>
