<!-- Generated by IcoMoon.io -->
<svg version="1.1" xmlns="http://www.w3.org/2000/svg" width="28" height="32" viewBox="0 0 28 32">
<title>overline-solid</title>
<path d="M27 0h-26c-0.552 0-1 0.448-1 1v0 2c0 0.552 0.448 1 1 1v0h26c0.552 0 1-0.448 1-1v0-2c0-0.552-0.448-1-1-1v0zM14.512 8h-1.024c-5.792 0-10.488 4.696-10.488 10.488v0 3.024c0 5.792 4.696 10.488 10.488 10.488v0h1.024c5.792 0 10.488-4.696 10.488-10.488v-3.024c0-5.792-4.696-10.488-10.488-10.488v0zM20 21.512c-0.004 3.030-2.459 5.485-5.488 5.488h-1.024c-3.030-0.004-5.485-2.459-5.488-5.488v-3.024c0.004-3.030 2.459-5.485 5.488-5.488h1.024c3.030 0.004 5.485 2.459 5.488 5.488v0z"></path>
</svg>
