<!-- Generated by IcoMoon.io -->
<svg version="1.1" xmlns="http://www.w3.org/2000/svg" width="28" height="32" viewBox="0 0 28 32">
<title>overline</title>
<path d="M27.438 0h-27c-0.276 0-0.5 0.224-0.5 0.5v0 1c0 0.276 0.224 0.5 0.5 0.5v0h27c0.276 0 0.5-0.224 0.5-0.5v0-1c0-0.276-0.224-0.5-0.5-0.5v0zM13.938 6c-5.523 0-10 4.477-10 10v0 6c0 5.523 4.477 10 10 10s10-4.477 10-10v0-6c0-5.523-4.477-10-10-10v0zM21.938 22c0 4.418-3.582 8-8 8s-8-3.582-8-8v0-6c0-4.418 3.582-8 8-8s8 3.582 8 8v0z"></path>
</svg>
