<!-- Generated by IcoMoon.io -->
<svg version="1.1" xmlns="http://www.w3.org/2000/svg" width="32" height="32" viewBox="0 0 32 32">
<title>pager-solid</title>
<path d="M28 4h-24c-2.209 0-4 1.791-4 4v0 16c0 2.209 1.791 4 4 4v0h24c2.209 0 4-1.791 4-4v0-16c0-2.209-1.791-4-4-4v0zM10 23h-5c-0.552 0-1-0.448-1-1v0-1c0-0.552 0.448-1 1-1v0h5zM18 22c0 0.552-0.448 1-1 1v0h-5v-3h5c0.552 0 1 0.448 1 1v0zM28 14c0 1.105-0.895 2-2 2v0h-20c-1.105 0-2-0.895-2-2v0-4c0-1.105 0.895-2 2-2v0h20c1.105 0 2 0.895 2 2v0z"></path>
</svg>
