<!-- Generated by IcoMoon.io -->
<svg version="1.1" xmlns="http://www.w3.org/2000/svg" width="36" height="32" viewBox="0 0 36 32">
<title>page-break</title>
<path d="M14.5 17c-0.276 0-0.5 0.224-0.5 0.5v0 1c0 0.276 0.224 0.5 0.5 0.5v0h7c0.276 0 0.5-0.224 0.5-0.5v0-1c0-0.276-0.224-0.5-0.5-0.5v0zM8 2h12v7c0 0.552 0.448 1 1 1v0h7v4h2v-5.173c0-0 0-0.001 0-0.002 0-0.551-0.223-1.050-0.584-1.411v0c-1.478-1.482-5.366-5.366-6.839-6.838-0.357-0.356-0.849-0.577-1.393-0.577-0.004 0-0.008 0-0.012 0h-13.171c-1.105 0-2 0.895-2 2v0 12h2zM22 2.828l5.173 5.172h-5.173zM35.5 17h-9c-0.276 0-0.5 0.224-0.5 0.5v0 1c0 0.276 0.224 0.5 0.5 0.5v0h9c0.276 0 0.5-0.224 0.5-0.5v0-1c0-0.276-0.224-0.5-0.5-0.5v0zM10 18.5v-1c0-0.276-0.224-0.5-0.5-0.5v0h-9c-0.276 0-0.5 0.224-0.5 0.5v0 1c0 0.276 0.224 0.5 0.5 0.5v0h9c0.276 0 0.5-0.224 0.5-0.5v0zM28 30h-20v-8h-2v8c0 1.105 0.895 2 2 2v0h20c1.105 0 2-0.895 2-2v0-8h-2z"></path>
</svg>
