<!-- Generated by IcoMoon.io -->
<svg version="1.1" xmlns="http://www.w3.org/2000/svg" width="36" height="32" viewBox="0 0 36 32">
<title>page-break-solid</title>
<path d="M15.225 16c-0 0-0 0-0.001 0-0.676 0-1.224 0.548-1.224 1.224 0 0 0 0 0 0.001v-0 1.55c0 0 0 0 0 0.001 0 0.676 0.548 1.224 1.224 1.224 0 0 0 0 0.001 0h5.55c0 0 0 0 0.001 0 0.676 0 1.224-0.548 1.224-1.224 0-0 0-0 0-0.001v0-1.55c0-0 0-0 0-0.001 0-0.676-0.548-1.224-1.224-1.224-0 0-0 0-0.001 0h0zM10 4h11v4c0 0.552 0.448 1 1 1v0h4v4h4v-4.754c-0.001-0.83-0.337-1.581-0.881-2.125l-5.244-5.241c-0.542-0.543-1.291-0.88-2.119-0.881h-12.756c-1.656 0.005-2.998 1.348-3 3.004v9.996h4zM35 16h-8c-0.552 0-1 0.448-1 1v0 2c0 0.552 0.448 1 1 1v0h8c0.552 0 1-0.448 1-1v0-2c0-0.552-0.448-1-1-1v0zM26 28h-16v-5h-4v6c0 1.657 1.343 3 3 3v0h18c1.657 0 3-1.343 3-3v0-6h-4zM10 19v-2c0-0.552-0.448-1-1-1v0h-8c-0.552 0-1 0.448-1 1v0 2c0 0.552 0.448 1 1 1v0h8c0.552 0 1-0.448 1-1v0z"></path>
</svg>
