<!-- Generated by IcoMoon.io -->
<svg version="1.1" xmlns="http://www.w3.org/2000/svg" width="32" height="32" viewBox="0 0 32 32">
<title>pager</title>
<path d="M17 20h-5v2h5c0.552 0 1-0.448 1-1s-0.448-1-1-1v0zM28 4h-24c-2.209 0-4 1.791-4 4v0 16c0 2.209 1.791 4 4 4v0h24c2.209 0 4-1.791 4-4v0-16c0-2.209-1.791-4-4-4v0zM30 24c0 1.105-0.895 2-2 2v0h-24c-1.105 0-2-0.895-2-2v0-16c0-1.105 0.895-2 2-2v0h24c1.105 0 2 0.895 2 2v0zM4 21c0 0.552 0.448 1 1 1v0h5v-2h-5c-0.552 0-1 0.448-1 1v0zM26.5 8h-21c-0.828 0-1.5 0.672-1.5 1.5v0 7c0 0.828 0.672 1.5 1.5 1.5v0h21c0.828 0 1.5-0.672 1.5-1.5v0-7c0-0.828-0.672-1.5-1.5-1.5v0zM26 16h-20v-6h20z"></path>
</svg>
