<!-- Generated by IcoMoon.io -->
<svg version="1.1" xmlns="http://www.w3.org/2000/svg" width="32" height="32" viewBox="0 0 32 32">
<title>paint-brush</title>
<path d="M28.474 0c-0.988 0-1.914 0.437-2.621 1.072-13.621 12.167-15.243 12.459-14.605 16.552-2.595 0.31-4.912 1.503-6.27 5.082-0.168 0.442-0.57 0.711-1.040 0.711-0.792 0-3.241-1.973-3.939-2.449 0 5.872 2.704 11.031 9.125 11.031 7.324 0 9.545-5.484 9.066-9.118 3.556-0.438 6.072-3.907 12.903-16.656 0.481-0.936 0.906-1.946 0.906-2.998 0-1.884-1.694-3.229-3.526-3.229zM14.783 27.847c-1.253 1.429-3.156 2.153-5.658 2.153-3.986 0-5.768-2.427-6.547-4.918 0.501 0.228 0.936 0.337 1.361 0.337 1.308 0 2.45-0.786 2.91-2.002 0.416-1.095 1.003-3.372 5.235-3.878l4.068 3.164c0.252 1.918-0.078 3.672-1.369 5.144zM29.332 5.281c-7.4 13.81-8.981 15.319-12.13 15.707l-3.875-3.014c-0.55-3.527-0.925-2.205 13.864-15.415 0.396-0.356 0.863-0.559 1.284-0.559 0.737 0 1.526 0.494 1.526 1.229 0 0.661-0.346 1.424-0.668 2.053z"></path>
</svg>
