<!-- Generated by IcoMoon.io -->
<svg version="1.1" xmlns="http://www.w3.org/2000/svg" width="32" height="32" viewBox="0 0 32 32">
<title>paint-roller</title>
<path d="M29 4h-3v-1c0-1.657-1.343-3-3-3h-20c-1.657 0-3 1.343-3 3v4c0 1.657 1.343 3 3 3h20c1.657 0 3-1.343 3-3v-1h3c0.551 0 1 0.448 1 1v6c0 0.552-0.449 1-1 1h-13c-1.654 0-3 1.346-3 3v3h-1c-1.104 0-2 0.896-2 2v8c0 1.104 0.896 2 2 2h4c1.104 0 2-0.896 2-2v-8c0-1.104-0.896-2-2-2h-1v-3c0-0.552 0.449-1 1-1h13c1.654 0 3-1.346 3-3v-6c0-1.654-1.346-3-3-3zM24 4v3c0 0.551-0.449 1-1 1h-20c-0.551 0-1-0.449-1-1v-4c0-0.551 0.449-1 1-1h20c0.551 0 1 0.449 1 1v1zM16 30h-4v-8h4v8z"></path>
</svg>
