<!-- Generated by IcoMoon.io -->
<svg version="1.1" xmlns="http://www.w3.org/2000/svg" width="32" height="32" viewBox="0 0 32 32">
<title>paint-brush-alt</title>
<path d="M30.573 9.003c3.642-4.002-0.368-9.003-4.416-9.003-1.462 0-2.929 0.652-4.043 2.241l-10.371 15.51c-2.821 0.181-5.381 1.256-6.834 5.084-0.166 0.437-0.563 0.701-1.026 0.701-0.781 0-3.196-1.946-3.884-2.416 0 5.791 2.667 10.88 9 10.88 8.826 0 9.118-7.315 8.932-9.093l0.001-0.001 12.64-13.902zM14.435 28.074c-1.151 1.278-2.98 1.926-5.435 1.926-3.88 0-5.634-2.342-6.411-4.768 0.472 0.207 0.884 0.304 1.295 0.304 1.301 0 2.438-0.782 2.896-1.992 0.429-1.131 1.102-3.541 5.582-3.829l3.556 3.16c0.185 1.763-0.255 3.836-1.482 5.199zM16.898 21.072l-3.116-2.77 9.972-14.913c0.646-0.922 1.455-1.389 2.404-1.389 1.431 0 2.973 1.044 3.585 2.43 0.496 1.123 0.278 2.209-0.649 3.228l-12.196 13.414z"></path>
</svg>
