<!-- Generated by IcoMoon.io -->
<svg version="1.1" xmlns="http://www.w3.org/2000/svg" width="32" height="32" viewBox="0 0 32 32">
<title>paint-brush-solid</title>
<path d="M10.439 19.334c-2.508 0.161-4.783 1.116-6.074 4.519-0.147 0.388-0.5 0.624-0.912 0.624-0.694 0-2.841-1.729-3.453-2.147 0.001 5.147 2.371 9.671 8.001 9.671 4.741 0 8-2.736 8-7.512 0-0.194-0.041-0.38-0.061-0.571l-5.501-4.584zM28.618 0c-0.948 0-1.836 0.419-2.513 1.028-12.776 11.412-14.105 11.681-14.105 15.040 0 0.856 0.203 1.672 0.546 2.419l3.989 3.324c0.451 0.113 0.915 0.189 1.399 0.189 3.882 0 6.132-2.842 13.198-16.029 0.461-0.897 0.869-1.866 0.869-2.874 0-1.807-1.625-3.097-3.382-3.097z"></path>
</svg>
