<!-- Generated by IcoMoon.io -->
<svg version="1.1" xmlns="http://www.w3.org/2000/svg" width="32" height="32" viewBox="0 0 32 32">
<title>palette</title>
<path d="M7 16.5c-0.831 0-1.5 0.669-1.5 1.5s0.669 1.5 1.5 1.5 1.5-0.669 1.5-1.5-0.669-1.5-1.5-1.5zM9 9.5c-0.831 0-1.5 0.669-1.5 1.5s0.669 1.5 1.5 1.5 1.5-0.669 1.5-1.5-0.669-1.5-1.5-1.5zM16 0c-1.056 0-2.137 0.1-3.231 0.313-6.213 1.212-11.219 6.206-12.444 12.4-2.163 10.944 6.95 19.288 14.644 19.288 0.519 0 1.031-0.038 1.537-0.119 2.575-0.4 3.837-3.413 2.656-5.731-1.444-2.837 0.619-6.15 3.806-6.15h4.981c2.238 0 4.050-1.85 4.056-4.081-0.031-8.8-7.188-15.919-16.006-15.919zM27.944 18h-4.981c-2.206 0-4.213 1.119-5.356 2.988-1.137 1.856-1.225 4.125-0.231 6.075 0.306 0.6 0.3 1.35-0.006 1.956-0.15 0.288-0.494 0.788-1.169 0.894-0.394 0.063-0.806 0.094-1.231 0.094-3.412 0-7.131-1.956-9.719-5.1-2.75-3.35-3.806-7.538-2.962-11.794 1.069-5.412 5.438-9.762 10.869-10.825 0.95-0.188 1.906-0.281 2.844-0.281 7.694 0 13.975 6.244 14 13.912 0 1.144-0.925 2.081-2.056 2.081zM23 8.5c-0.831 0-1.5 0.669-1.5 1.5s0.669 1.5 1.5 1.5 1.5-0.669 1.5-1.5-0.669-1.5-1.5-1.5zM15 5.5c-0.831 0-1.5 0.669-1.5 1.5s0.669 1.5 1.5 1.5 1.5-0.669 1.5-1.5-0.669-1.5-1.5-1.5z"></path>
</svg>
