<!-- Generated by IcoMoon.io -->
<svg version="1.1" xmlns="http://www.w3.org/2000/svg" width="32" height="32" viewBox="0 0 32 32">
<title>palette-solid</title>
<path d="M12.769 0.313c-6.213 1.212-11.219 6.206-12.444 12.4-2.313 11.687 8.231 20.4 16.175 19.169 2.575-0.4 3.837-3.413 2.656-5.731-1.444-2.837 0.619-6.15 3.806-6.15h4.981c2.238 0 4.050-1.85 4.056-4.081-0.031-9.85-8.994-17.6-19.231-15.606zM6 20c-1.106 0-2-0.894-2-2s0.894-2 2-2 2 0.894 2 2-0.894 2-2 2zM8 12c-1.106 0-2-0.894-2-2s0.894-2 2-2 2 0.894 2 2-0.894 2-2 2zM16 8c-1.106 0-2-0.894-2-2s0.894-2 2-2 2 0.894 2 2-0.894 2-2 2zM24 12c-1.106 0-2-0.894-2-2s0.894-2 2-2 2 0.894 2 2-0.894 2-2 2z"></path>
</svg>
