<!-- Generated by IcoMoon.io -->
<svg version="1.1" xmlns="http://www.w3.org/2000/svg" width="40" height="32" viewBox="0 0 40 32">
<title>pallet-alt</title>
<path d="M7 18h26c0.55 0 1-0.45 1-1v-12c0-0.55-0.45-1-1-1h-11v-3c0-0.55-0.45-1-1-1h-14c-0.55 0-1 0.45-1 1v16c0 0.55 0.45 1 1 1zM22 6h10v10h-10v-10zM8 2h12v14h-12v-14zM39.5 22c0.275 0 0.5-0.225 0.5-0.5v-1c0-0.275-0.225-0.5-0.5-0.5h-39c-0.275 0-0.5 0.225-0.5 0.5v1c0 0.275 0.225 0.5 0.5 0.5h3.5v8h-3.5c-0.275 0-0.5 0.225-0.5 0.5v1c0 0.275 0.225 0.5 0.5 0.5h39c0.275 0 0.5-0.225 0.5-0.5v-1c0-0.275-0.225-0.5-0.5-0.5h-3.5v-8h3.5zM10 30h-4v-8h4v8zM28 30h-16v-8h16v8zM34 30h-4v-8h4v8z"></path>
</svg>
