<!-- Generated by IcoMoon.io -->
<svg version="1.1" xmlns="http://www.w3.org/2000/svg" width="40" height="32" viewBox="0 0 40 32">
<title>pallet-solid</title>
<path d="M9 16h22c0.55 0 1-0.45 1-1v-14c0-0.55-0.45-1-1-1h-7v8l-4-2-4 2v-8h-7c-0.55 0-1 0.45-1 1v14c0 0.55 0.45 1 1 1zM39 24c0.55 0 1-0.45 1-1v-2c0-0.55-0.45-1-1-1h-38c-0.55 0-1 0.45-1 1v2c0 0.55 0.45 1 1 1h3v4h-3c-0.55 0-1 0.45-1 1v2c0 0.55 0.45 1 1 1h38c0.55 0 1-0.45 1-1v-2c0-0.55-0.45-1-1-1h-3v-4h3zM18 28h-10v-4h10v4zM32 28h-10v-4h10v4z"></path>
</svg>
