<!-- Generated by IcoMoon.io -->
<svg version="1.1" xmlns="http://www.w3.org/2000/svg" width="40" height="32" viewBox="0 0 40 32">
<title>pallet</title>
<path d="M9 18h22c0.55 0 1-0.45 1-1v-16c0-0.55-0.45-1-1-1h-22c-0.55 0-1 0.45-1 1v16c0 0.55 0.45 1 1 1zM18 2h4v4.763l-2-1-2 1v-4.763zM10 2h6v8l4-2 4 2v-8h6v14h-20v-14zM39.5 22c0.275 0 0.5-0.225 0.5-0.5v-1c0-0.275-0.225-0.5-0.5-0.5h-39c-0.275 0-0.5 0.225-0.5 0.5v1c0 0.275 0.225 0.5 0.5 0.5h3.5v8h-3.5c-0.275 0-0.5 0.225-0.5 0.5v1c0 0.275 0.225 0.5 0.5 0.5h39c0.275 0 0.5-0.225 0.5-0.5v-1c0-0.275-0.225-0.5-0.5-0.5h-3.5v-8h3.5zM10 30h-4v-8h4v8zM28 30h-16v-8h16v8zM34 30h-4v-8h4v8z"></path>
</svg>
