<!-- Generated by IcoMoon.io -->
<svg version="1.1" xmlns="http://www.w3.org/2000/svg" width="32" height="32" viewBox="0 0 32 32">
<title>paperclip</title>
<path d="M9.319 32c-2.067 0-4.135-0.787-5.708-2.361-3.148-3.148-3.148-8.269-0-11.417l16.379-16.379c2.458-2.458 6.458-2.458 8.916 0s2.458 6.458 0 8.916l-13.914 13.914c-1.769 1.769-4.647 1.769-6.416 0s-1.769-4.647 0-6.416l10.644-10.644c0.293-0.293 0.768-0.293 1.061 0l0.354 0.354c0.293 0.293 0.293 0.768 0 1.061l-10.644 10.644c-0.989 0.989-0.989 2.598 0 3.587s2.598 0.989 3.587 0l13.914-13.914c1.678-1.678 1.678-4.409 0-6.087s-4.409-1.678-6.087 0l-16.379 16.379c-2.368 2.368-2.368 6.22 0 8.588s6.22 2.368 8.588 0l13.609-13.609c0.293-0.293 0.768-0.293 1.061 0l0.354 0.354c0.293 0.293 0.293 0.768 0 1.061l-13.609 13.609c-1.574 1.574-3.641 2.361-5.708 2.361z"></path>
</svg>
