<!-- Generated by IcoMoon.io -->
<svg version="1.1" xmlns="http://www.w3.org/2000/svg" width="32" height="32" viewBox="0 0 32 32">
<title>paper-plane</title>
<path d="M29 0.269l-28 16.15c-1.438 0.831-1.294 2.95 0.238 3.581l8.762 3.625v6.375c0 1.887 2.363 2.706 3.544 1.269l3.794-4.613 7.9 3.262c1.194 0.494 2.544-0.262 2.738-1.544l4-26.069c0.256-1.669-1.538-2.869-2.975-2.038zM12 30v-5.55l3.406 1.406-3.406 4.144zM26 28.069l-12.887-5.325 12.469-14.738c0.3-0.35-0.181-0.825-0.531-0.525l-15.956 13.6-7.094-2.925 28-16.156-4 26.069z"></path>
</svg>
