<!-- Generated by IcoMoon.io -->
<svg version="1.1" xmlns="http://www.w3.org/2000/svg" width="28" height="32" viewBox="0 0 28 32">
<title>paperclip-solid</title>
<path d="M2.703 29.134c-3.652-3.768-3.584-9.844 0.087-13.599l13.11-13.41c2.77-2.833 7.272-2.833 10.042 0 2.743 2.806 2.746 7.333 0 10.142l-11.428 11.678c-1.866 1.909-4.915 1.882-6.749-0.062-1.767-1.873-1.71-4.842 0.091-6.685l8.984-9.177c0.386-0.395 1.020-0.401 1.414-0.015l1.429 1.399c0.395 0.386 0.401 1.020 0.015 1.414l-8.983 9.176c-0.308 0.315-0.327 0.839-0.040 1.143 0.273 0.29 0.703 0.294 0.98 0.010l11.428-11.678c1.226-1.254 1.226-3.295-0.001-4.55-1.199-1.227-3.122-1.227-4.322 0l-13.11 13.41c-2.173 2.223-2.206 5.82-0.074 8.020 2.126 2.193 5.562 2.196 7.691 0.018l10.754-11c0.386-0.395 1.019-0.402 1.414-0.016l1.43 1.398c0.395 0.386 0.402 1.019 0.016 1.414l-10.754 11c-3.723 3.809-9.746 3.763-13.423-0.030z"></path>
</svg>
