<!-- Generated by IcoMoon.io -->
<svg version="1.1" xmlns="http://www.w3.org/2000/svg" width="32" height="32" viewBox="0 0 32 32">
<title>parachute-box-solid</title>
<path d="M31.994 10.938c-0.569-4.725-4.9-8.275-9.894-9.919 2.275 2.462 3.9 6.287 3.9 10.981h1.756l-7.287 8.094c-0.156-0.038-0.3-0.094-0.469-0.094h-3v-8h7c0-7.2-4.306-12-8-12s-8 4.8-8 12h7v8h-3c-0.169 0-0.313 0.056-0.469 0.094l-7.287-8.094h1.756c0-4.694 1.625-8.519 3.9-10.981-4.994 1.65-9.325 5.2-9.894 9.919-0.069 0.569 0.425 1.063 1 1.063h0.544l8.544 9.494c-0.044 0.163-0.1 0.325-0.1 0.506v8c0 1.106 0.894 2 2 2h8c1.106 0 2-0.894 2-2v-8c0-0.181-0.056-0.337-0.1-0.506l8.55-9.494h0.544c0.581 0 1.075-0.488 1.006-1.063z"></path>
</svg>
