<!-- Generated by IcoMoon.io -->
<svg version="1.1" xmlns="http://www.w3.org/2000/svg" width="24" height="32" viewBox="0 0 24 32">
<title>paragraph-rtl</title>
<path d="M11 14h3v5.5c0 0.276 0.224 0.5 0.5 0.5v0h1c0.276 0 0.5-0.224 0.5-0.5v0-17.5h2v17.5c0 0.276 0.224 0.5 0.5 0.5v0h1c0.276 0 0.5-0.224 0.5-0.5v0-17.5h1.5c0.276 0 0.5-0.224 0.5-0.5v0-1c0-0.276-0.224-0.5-0.5-0.5v0h-10.289c-3.916 0-7.231 3.125-7.211 7.041 0.021 3.979 3.014 6.959 7 6.959zM7.445 3.563c0.965-0.963 2.295-1.559 3.765-1.563h2.79v10h-3c-2.883 0-4.985-2.090-5-4.969 0-0.003 0-0.006 0-0.009 0-1.353 0.553-2.577 1.445-3.459l0-0zM23.5 25h-16.5v-4c0 0 0-0 0-0 0-0.552-0.448-1-1-1-0.003 0-0.005 0-0.008 0h0c-0 0-0 0-0 0-0.274 0-0.521 0.112-0.699 0.294l-5 5c-0.181 0.181-0.293 0.431-0.293 0.707s0.112 0.526 0.293 0.707l5 5c0.182 0.18 0.433 0.292 0.71 0.292 0.003 0 0.005 0 0.008-0h-0c0.5 0 0.989-0.356 0.989-1v-4h16.5c0.276 0 0.5-0.224 0.5-0.5v0-1c0-0.276-0.224-0.5-0.5-0.5v0zM5 25v3.586l-2.586-2.586 2.586-2.585z"></path>
</svg>
