<!-- Generated by IcoMoon.io -->
<svg version="1.1" xmlns="http://www.w3.org/2000/svg" width="28" height="32" viewBox="0 0 28 32">
<title>paragraph</title>
<path d="M27.5 2h-13.5c-0 0-0 0-0 0-5.523 0-10 4.477-10 10 0 0.234 0.008 0.467 0.024 0.697l-0.002-0.031c0.344 5.312 4.994 9.334 10.321 9.334h1.658v7.5c0 0.276 0.224 0.5 0.5 0.5v0h1c0.276 0 0.5-0.224 0.5-0.5v0-25.5h4v25.5c0 0.276 0.224 0.5 0.5 0.5v0h1c0.276 0 0.5-0.224 0.5-0.5v0-25.5h3.5c0.276 0 0.5-0.224 0.5-0.5v0-1c0-0.276-0.224-0.5-0.5-0.5v0zM16 20h-2c-4.418 0-8-3.582-8-8s3.582-8 8-8v0h2z"></path>
</svg>
