<!-- Generated by IcoMoon.io -->
<svg version="1.1" xmlns="http://www.w3.org/2000/svg" width="24" height="32" viewBox="0 0 24 32">
<title>paragraph-rtl-solid</title>
<path d="M23 24h-16v-3c0-0.891-1.077-1.337-1.707-0.707l-5 5c-0.181 0.181-0.293 0.431-0.293 0.707s0.112 0.526 0.293 0.707l5 5c0.582 0.583 1.707 0.271 1.707-0.707v-3h16c0.552 0 1-0.448 1-1v0-2c0-0.552-0.448-1-1-1v0zM9 14h1v5c0 0.552 0.448 1 1 1v0h2c0.552 0 1-0.448 1-1v0-15h2v15c0 0.552 0.448 1 1 1v0h2c0.552 0 1-0.448 1-1v0-15h1c0.552 0 1-0.448 1-1v0-2c0-0.552-0.448-1-1-1v0h-12c-4 0-7 3-7 7s3 7 7 7z"></path>
</svg>
