<!-- Generated by IcoMoon.io -->
<svg version="1.1" xmlns="http://www.w3.org/2000/svg" width="32" height="32" viewBox="0 0 32 32">
<title>parachute-box</title>
<path d="M31.994 12.762c-0.794-7.706-8.944-12.762-15.994-12.762s-15.2 5.056-15.994 12.762c-0.069 0.669 0.425 1.238 1 1.238h2.031l6.963 7.587v8.413c0 1.106 0.894 2 2 2h8c1.106 0 2-0.894 2-2v-8.413l6.956-7.588h2.031c0.581 0 1.075-0.569 1.006-1.238zM16 2c3.238 0 7 4 7 10h-14c0-6 3.762-10 7-10zM2.144 12c0.837-4.069 4.169-7.2 8.069-8.806-1.881 2.044-3.213 5.063-3.213 8.756v0.050h-4.856zM11.256 20l-5.506-6h9.25v6h-3.744zM20 29.5c0 0.275-0.225 0.5-0.5 0.5h-7c-0.275 0-0.5-0.225-0.5-0.5v-7c0-0.275 0.225-0.5 0.5-0.5h7c0.275 0 0.5 0.225 0.5 0.5v7zM20.744 20h-3.744v-6h9.244l-5.5 6zM25 12v-0.050c0-3.694-1.331-6.706-3.212-8.756 3.894 1.606 7.231 4.737 8.069 8.806h-4.856z"></path>
</svg>
