<!-- Generated by IcoMoon.io -->
<svg version="1.1" xmlns="http://www.w3.org/2000/svg" width="31" height="32" viewBox="0 0 31 32">
<title>parking-circle-slash-solid</title>
<path d="M15.5 0.5c-8.561 0-15.5 6.939-15.5 15.5s6.939 15.5 15.5 15.5 15.5-6.939 15.5-15.5-6.939-15.5-15.5-15.5zM15.5 27.5c-6.341 0-11.5-5.159-11.5-11.5 0-1.927 0.482-3.741 1.323-5.338l17.899 13.834c-2.044 1.859-4.749 3.004-7.723 3.004zM14.889 13h2.611c0.551 0 1 0.449 1 1s-0.449 1-1 1h-0.023l-2.588-2zM25.677 21.338l-4.776-3.691c0.979-0.913 1.599-2.203 1.599-3.647 0-2.761-2.239-5-5-5h-6c-0.432 0-0.792 0.277-0.931 0.661l-2.791-2.157c2.044-1.859 4.749-3.004 7.723-3.004 6.341 0 11.5 5.159 11.5 11.5 0 1.927-0.482 3.741-1.323 5.338zM10.5 22c0 0.552 0.447 1 1 1h2c0.553 0 1-0.448 1-1v-1.218l-4-3.091v4.309z"></path>
</svg>
