<!-- Generated by IcoMoon.io -->
<svg version="1.1" xmlns="http://www.w3.org/2000/svg" width="31" height="32" viewBox="0 0 31 32">
<title>parking-circle-solid</title>
<path d="M15.5 0.5c-8.561 0-15.5 6.939-15.5 15.5s6.939 15.5 15.5 15.5 15.5-6.939 15.5-15.5-6.939-15.5-15.5-15.5zM15.5 27.5c-6.341 0-11.5-5.159-11.5-11.5s5.159-11.5 11.5-11.5 11.5 5.159 11.5 11.5-5.159 11.5-11.5 11.5zM17.5 9h-6c-0.553 0-1 0.447-1 1v12c0 0.552 0.447 1 1 1h2c0.553 0 1-0.448 1-1v-3h3c2.761 0 5-2.239 5-5s-2.239-5-5-5zM17.5 15h-3v-2h3c0.551 0 1 0.449 1 1s-0.449 1-1 1z"></path>
</svg>
