<!-- Generated by IcoMoon.io -->
<svg version="1.1" xmlns="http://www.w3.org/2000/svg" width="40" height="32" viewBox="0 0 40 32">
<title>parking-slash-solid</title>
<path d="M18 23c0 0.552-0.448 1-1 1h-2c-0.553 0-1-0.448-1-1v-4.054l-8-6.183v14.237c0 1.656 1.344 3 3 3h19.302l-10.302-7.962v0.962zM39.614 28.631l-5.614-4.339v-19.293c0-1.656-1.344-3-3-3h-22c-0.957 0-1.799 0.457-2.349 1.155l-3.809-2.944c-0.436-0.339-1.065-0.261-1.404 0.176l-1.228 1.579c-0.339 0.436-0.261 1.064 0.176 1.403l36.772 28.421c0.436 0.339 1.064 0.261 1.404-0.176l1.227-1.579c0.339-0.436 0.261-1.064-0.176-1.403zM25.606 17.804l-3.158-2.441c0.337-0.358 0.552-0.834 0.552-1.364 0-1.102-0.898-2-2-2h-2.905l-4.066-3.143c0.072-0.482 0.47-0.857 0.971-0.857h6c3.309 0 6 2.691 6 6 0 1.453-0.531 2.772-1.394 3.804z"></path>
</svg>
