<!-- Generated by IcoMoon.io -->
<svg version="1.1" xmlns="http://www.w3.org/2000/svg" width="28" height="32" viewBox="0 0 28 32">
<title>parking</title>
<path d="M25 2h-22c-1.656 0-3 1.344-3 3v22c0 1.656 1.344 3 3 3h22c1.656 0 3-1.344 3-3v-22c0-1.656-1.344-3-3-3zM26 27c0 0.55-0.45 1-1 1h-22c-0.55 0-1-0.45-1-1v-22c0-0.55 0.45-1 1-1h22c0.55 0 1 0.45 1 1v22zM15.256 7.994h-5.756c-0.275 0-0.5 0.225-0.5 0.5v15c0 0.275 0.225 0.5 0.5 0.5h1c0.275 0 0.5-0.225 0.5-0.5v-4.5h4.5c3.212 0 5.794-2.769 5.475-6.050-0.275-2.856-2.844-4.95-5.719-4.95zM15.5 17h-4.5v-7h4.5c1.931 0 3.5 1.569 3.5 3.5s-1.569 3.5-3.5 3.5z"></path>
</svg>
