<!-- Generated by IcoMoon.io -->
<svg version="1.1" xmlns="http://www.w3.org/2000/svg" width="40" height="32" viewBox="0 0 40 32">
<title>parking-slash</title>
<path d="M31 4c0.55 0 1 0.45 1 1v16.631l2 1.575v-18.206c0-1.656-1.344-3-3-3h-21.994c-0.525 0-1.013 0.15-1.444 0.388l2.050 1.612zM25.863 16.8c0.806-1.056 1.256-2.394 1.113-3.85-0.281-2.856-2.844-4.95-5.719-4.95h-5.756c-0.206 0-0.344 0.137-0.425 0.313l2.144 1.688h4.281c1.931 0 3.5 1.569 3.5 3.5 0 0.781-0.262 1.494-0.7 2.075zM39.813 30.325l-38.375-30.212c-0.212-0.175-0.531-0.144-0.7 0.075l-0.625 0.781c-0.175 0.219-0.138 0.531 0.075 0.7l38.375 30.219c0.212 0.175 0.531 0.137 0.7-0.075l0.625-0.781c0.175-0.219 0.144-0.531-0.075-0.706zM16.506 23.994c0.275 0 0.5-0.225 0.5-0.5v-4.5h1.95l-3.95-3.106v7.606c0 0.275 0.225 0.5 0.5 0.5zM9.006 27.994c-0.55 0-1-0.45-1-1v-16.619l-2-1.575v18.194c0 1.656 1.344 3 3 3h21.994c0.525 0 1.006-0.144 1.438-0.381l-2.056-1.619z"></path>
</svg>
