<!-- Generated by IcoMoon.io -->
<svg version="1.1" xmlns="http://www.w3.org/2000/svg" width="31" height="32" viewBox="0 0 31 32">
<title>parking-circle-slash</title>
<path d="M15.5 0.5c-8.561 0-15.5 6.939-15.5 15.5s6.939 15.5 15.5 15.5 15.5-6.939 15.5-15.5-6.939-15.5-15.5-15.5zM15.5 29.5c-7.444 0-13.5-6.056-13.5-13.5 0-2.791 0.851-5.386 2.308-7.541l21.134 16.642c-2.47 2.696-6.006 4.399-9.941 4.399zM12.5 12.364v-2.369h4.5c1.93 0 3.5 1.57 3.5 3.5 0 1.534-0.999 2.827-2.376 3.298l-5.624-4.429zM19.846 18.149c1.726-1.047 2.842-2.994 2.627-5.203-0.278-2.857-2.846-4.951-5.718-4.951h-5.756c-0.276 0-0.5 0.224-0.5 0.5v2.295l-4.941-3.891c2.47-2.695 6.006-4.398 9.941-4.398 7.444 0 13.5 6.056 13.5 13.5 0 2.791-0.851 5.386-2.308 7.54l-6.846-5.391zM10.5 23.494c0 0.276 0.224 0.5 0.5 0.5h1c0.276 0 0.5-0.224 0.5-0.5v-4.5h1.953l-3.953-3.113v7.613z"></path>
</svg>
