<!-- Generated by IcoMoon.io -->
<svg version="1.1" xmlns="http://www.w3.org/2000/svg" width="31" height="32" viewBox="0 0 31 32">
<title>parking-circle</title>
<path d="M16.756 7.994h-5.756c-0.276 0-0.5 0.224-0.5 0.5v15c0 0.276 0.224 0.5 0.5 0.5h1c0.276 0 0.5-0.224 0.5-0.5v-4.5h4.5c3.214 0 5.793-2.77 5.473-6.049-0.278-2.857-2.846-4.951-5.717-4.951zM17 16.994h-4.5v-7h4.5c1.93 0 3.5 1.57 3.5 3.5s-1.57 3.5-3.5 3.5zM15.5 0.5c-8.561 0-15.5 6.939-15.5 15.5s6.939 15.5 15.5 15.5 15.5-6.939 15.5-15.5-6.939-15.5-15.5-15.5zM15.5 29.5c-7.444 0-13.5-6.056-13.5-13.5s6.056-13.5 13.5-13.5 13.5 6.056 13.5 13.5-6.056 13.5-13.5 13.5z"></path>
</svg>
