<!-- Generated by IcoMoon.io -->
<svg version="1.1" xmlns="http://www.w3.org/2000/svg" width="28" height="32" viewBox="0 0 28 32">
<title>passport-solid</title>
<path d="M8.101 11h2.443c0.093-1.689 0.409-3.209 0.888-4.401-1.732 0.827-3.001 2.449-3.331 4.401zM8.101 13c0.331 1.951 1.599 3.573 3.331 4.401-0.48-1.191-0.795-2.711-0.888-4.401h-2.443zM14 17.918c0.481-0.466 1.298-2.151 1.464-4.918h-2.929c0.167 2.766 0.984 4.453 1.465 4.918zM12.536 11h2.929c-0.166-2.766-0.984-4.452-1.464-4.918-0.481 0.466-1.299 2.152-1.465 4.918zM16.567 17.401c1.732-0.828 3.001-2.449 3.331-4.401h-2.443c-0.093 1.689-0.408 3.209-0.888 4.401zM26 0h-22c-2.209 0-4 1.791-4 4v24c0 2.209 1.791 4 4 4h22c1.104 0 2-0.896 2-2v-28c0-1.104-0.896-2-2-2zM21 26h-14c-0.55 0-1-0.45-1-1s0.45-1 1-1h14c0.55 0 1 0.45 1 1s-0.45 1-1 1zM14 20c-4.418 0-8-3.582-8-8s3.582-8 8-8 8 3.582 8 8-3.582 8-8 8zM16.567 6.599c0.48 1.191 0.795 2.711 0.888 4.401h2.443c-0.33-1.951-1.599-3.573-3.331-4.401z"></path>
</svg>
