<!-- Generated by IcoMoon.io -->
<svg version="1.1" xmlns="http://www.w3.org/2000/svg" width="28" height="32" viewBox="0 0 28 32">
<title>passport</title>
<path d="M26 0h-22c-2.209 0-4 1.791-4 4v24c0 2.209 1.791 4 4 4h22c1.104 0 2-0.896 2-2v-28c0-1.104-0.896-2-2-2zM26 30h-22c-1.103 0-2-0.898-2-2v-24c0-1.103 0.897-2 2-2h22v28zM7 26h14c0.55 0 1-0.45 1-1s-0.45-1-1-1h-14c-0.55 0-1 0.45-1 1s0.45 1 1 1zM14 20c4.418 0 8-3.582 8-8s-3.582-8-8-8-8 3.582-8 8 3.582 8 8 8zM19.899 11h-2.443c-0.093-1.689-0.409-3.209-0.888-4.401 1.732 0.827 3.001 2.449 3.331 4.401zM17.456 13h2.443c-0.331 1.951-1.599 3.573-3.331 4.401 0.48-1.191 0.795-2.711 0.888-4.401zM14 6.082c0.481 0.466 1.298 2.151 1.464 4.918h-2.929c0.167-2.766 0.984-4.452 1.465-4.918zM15.464 13c-0.166 2.766-0.984 4.453-1.464 4.918-0.481-0.466-1.298-2.151-1.464-4.918h2.929zM11.432 6.599c-0.48 1.191-0.795 2.711-0.888 4.401h-2.443c0.33-1.951 1.599-3.573 3.331-4.401zM10.544 13c0.093 1.689 0.409 3.209 0.888 4.401-1.732-0.828-3.001-2.449-3.331-4.401h2.443z"></path>
</svg>
