<!-- Generated by IcoMoon.io -->
<svg version="1.1" xmlns="http://www.w3.org/2000/svg" width="28" height="32" viewBox="0 0 28 32">
<title>paste</title>
<path d="M27.121 12.121l-3.243-3.243c-0.543-0.543-1.293-0.879-2.121-0.879h-1.757v-3c0-1.657-1.343-3-3-3h-4.172c-0.413-1.164-1.524-2-2.828-2s-2.415 0.836-2.828 2h-4.172c-1.657 0-3 1.343-3 3v18c0 1.657 1.343 3 3 3h5v3c0 1.657 1.343 3 3 3h14c1.657 0 3-1.343 3-3v-14.757c0-0.828-0.336-1.578-0.879-2.121v0zM25.707 13.536c0.124 0.124 0.216 0.282 0.261 0.458l0.001 0.007h-3.969v-3.969c0.183 0.046 0.34 0.138 0.464 0.262v0l3.243 3.243zM10 1.875c0.621 0 1.125 0.504 1.125 1.125s-0.504 1.125-1.125 1.125-1.125-0.504-1.125-1.125 0.504-1.125 1.125-1.125zM3 24c-0.551 0-1-0.449-1-1v-18c0-0.551 0.449-1 1-1h4.172c0.413 1.164 1.524 2 2.828 2s2.415-0.836 2.828-2h4.172c0.551 0 1 0.449 1 1v3h-7c-1.657 0-3 1.343-3 3v13h-5zM25 30h-14c-0.551 0-1-0.449-1-1v-18c0-0.551 0.449-1 1-1h9v4.5c0 0.825 0.675 1.5 1.5 1.5h4.5v13c0 0.551-0.449 1-1 1z"></path>
</svg>
