<!-- Generated by IcoMoon.io -->
<svg version="1.1" xmlns="http://www.w3.org/2000/svg" width="40" height="32" viewBox="0 0 40 32">
<title>pastafarianism-solid</title>
<path d="M39.034 21.729c-2.044-0.782-3.585 0.266-4.711 1.028-1.066 0.721-1.453 0.901-1.963 0.71-0.508-0.193-0.677-0.586-0.993-1.836-0.208-0.822-0.465-1.832-1.122-2.666 0.14-0.182 0.277-0.362 0.399-0.536 0.636 0.598 1.463 1.070 2.606 1.070 2.122 0 3.179-1.611 3.879-2.677 0.662-1.009 0.938-1.323 1.371-1.323 0.828 0 1.5-0.672 1.5-1.5s-0.672-1.5-1.5-1.5c-2.122 0-3.179 1.611-3.879 2.677-0.663 1.009-0.938 1.323-1.371 1.323-1.082 0-2.343-3.839-6.079-6.369l1.078-2.156c2.090-0.131 3.751-1.851 3.751-3.974 0-2.209-1.791-4-4-4s-4 1.791-4 4c0 0.814 0.246 1.569 0.664 2.201l-1.134 2.269c-1.061-0.287-2.225-0.469-3.529-0.469s-2.468 0.182-3.529 0.469l-1.134-2.269c0.416-0.632 0.662-1.387 0.662-2.201 0-2.209-1.791-4-4-4s-4 1.791-4 4c0 2.124 1.66 3.844 3.751 3.975l1.078 2.156c-3.724 2.521-5.008 6.369-6.079 6.369-0.434 0-0.709-0.314-1.371-1.323-0.699-1.066-1.756-2.677-3.879-2.677-0.828 0-1.5 0.672-1.5 1.5s0.672 1.5 1.5 1.5c0.434 0 0.709 0.314 1.371 1.323 0.699 1.066 1.757 2.677 3.879 2.677 1.143 0 1.971-0.472 2.606-1.069 0.122 0.174 0.259 0.354 0.399 0.536-0.657 0.833-0.914 1.844-1.122 2.666-0.316 1.25-0.486 1.642-0.993 1.836-0.507 0.191-0.896 0.011-1.963-0.71-1.127-0.762-2.67-1.808-4.711-1.028-0.774 0.295-1.162 1.161-0.867 1.936 0.295 0.776 1.163 1.163 1.936 0.867 0.51-0.193 0.896-0.012 1.962 0.71 0.847 0.573 1.927 1.304 3.276 1.302 0.448 0 0.927-0.080 1.436-0.274 2.041-0.777 2.499-2.583 2.833-3.902 0.138-0.545 0.249-0.906 0.372-1.179 1.039 0.851 2.309 1.617 3.852 2.136-0.623 2.313-2.011 5.675-3.766 5.675-0.828 0-1.5 0.672-1.5 1.5s0.672 1.5 1.5 1.5c4.171 0 6.066-5.539 6.714-8.071 0.418 0.038 0.839 0.071 1.286 0.071s0.868-0.034 1.286-0.071c0.648 2.532 2.543 8.071 6.714 8.071 0.828 0 1.5-0.672 1.5-1.5s-0.672-1.5-1.5-1.5c-1.746 0-3.138-3.363-3.764-5.676 1.543-0.518 2.813-1.285 3.851-2.135 0.122 0.274 0.234 0.634 0.372 1.179 0.334 1.319 0.792 3.125 2.833 3.902 0.509 0.194 0.987 0.274 1.436 0.274 1.349 0 2.429-0.731 3.276-1.302 1.066-0.722 1.455-0.903 1.962-0.71 0.774 0.297 1.642-0.092 1.936-0.867s-0.093-1.641-0.868-1.936zM28 3c0.551 0 1 0.449 1 1s-0.449 1-1 1-1-0.449-1-1 0.449-1 1-1zM12 3c0.551 0 1 0.449 1 1s-0.449 1-1 1-1-0.449-1-1 0.449-1 1-1z"></path>
</svg>
