<!-- Generated by IcoMoon.io -->
<svg version="1.1" xmlns="http://www.w3.org/2000/svg" width="28" height="32" viewBox="0 0 28 32">
<title>paste-solid</title>
<path d="M8 11.5c0-1.93 1.57-3.5 3.5-3.5h8.5v-4.5c0-0.828-0.672-1.5-1.5-1.5h-5.038c-0.693-1.194-1.985-2-3.462-2s-2.769 0.806-3.462 2h-5.038c-0.828 0-1.5 0.672-1.5 1.5v21c0 0.828 0.672 1.5 1.5 1.5h6.5v-14.5zM10 2.5c0.828 0 1.5 0.672 1.5 1.5s-0.672 1.5-1.5 1.5-1.5-0.672-1.5-1.5 0.672-1.5 1.5-1.5zM21.5 18h6.5v12.5c0 0.828-0.672 1.5-1.5 1.5h-15c-0.828 0-1.5-0.672-1.5-1.5v-19c0-0.828 0.672-1.5 1.5-1.5h8.5v6.5c0 0.825 0.675 1.5 1.5 1.5zM28 15.621v0.379h-6v-6h0.379c0.414 0 0.789 0.168 1.061 0.439l4.121 4.121c0.271 0.271 0.439 0.646 0.439 1.061v0z"></path>
</svg>
