<!-- Generated by IcoMoon.io -->
<svg version="1.1" xmlns="http://www.w3.org/2000/svg" width="40" height="32" viewBox="0 0 40 32">
<title>pastafarianism</title>
<path d="M39.33 22.196c-1.871-0.686-3.287 0.236-4.422 0.976-1.061 0.688-1.7 1.059-2.519 0.762-0.819-0.3-1.038-0.989-1.351-2.181-0.209-0.794-0.452-1.709-1.053-2.453 0.469-0.573 0.842-1.119 1.138-1.603 0.609 0.704 1.423 1.302 2.636 1.302 1.877 0 2.805-1.427 3.482-2.47 0.693-1.064 1.063-1.53 1.718-1.53 0.575 0 1.040-0.447 1.040-1s-0.465-1-1.040-1c-1.877 0-2.805 1.428-3.482 2.47-0.693 1.064-1.063 1.53-1.718 1.53-2.88 0-1.292-3.93-7.444-7.396l1.321-2.641c0.121 0.013 0.239 0.037 0.364 0.037 1.933 0 3.5-1.567 3.5-3.5s-1.567-3.5-3.5-3.5-3.5 1.567-3.5 3.5c0 1.089 0.508 2.049 1.286 2.691l-1.285 2.569c-1.297-0.469-2.79-0.76-4.501-0.76s-3.204 0.291-4.502 0.76l-1.285-2.569c0.779-0.642 1.287-1.602 1.287-2.691 0-1.933-1.567-3.5-3.5-3.5s-3.5 1.567-3.5 3.5 1.567 3.5 3.5 3.5c0.124 0 0.242-0.024 0.364-0.037l1.321 2.641c-6.152 3.466-4.564 7.396-7.444 7.396-0.656 0-1.026-0.466-1.718-1.53-0.677-1.043-1.605-2.47-3.482-2.47-0.575 0-1.040 0.447-1.040 1s0.465 1 1.040 1c0.656 0 1.026 0.466 1.718 1.53 0.677 1.043 1.605 2.47 3.482 2.47 1.214 0 2.027-0.599 2.636-1.302 0.296 0.484 0.669 1.030 1.138 1.603-0.601 0.744-0.844 1.659-1.053 2.453-0.313 1.191-0.533 1.881-1.351 2.181-0.819 0.297-1.458-0.075-2.519-0.762-1.136-0.739-2.551-1.661-4.422-0.976-0.538 0.196-0.806 0.774-0.601 1.291 0.203 0.517 0.804 0.776 1.341 0.578 0.819-0.302 1.459 0.073 2.519 0.762 0.855 0.557 1.869 1.216 3.116 1.216 0.408 0 0.845-0.071 1.306-0.24 1.871-0.686 2.291-2.278 2.628-3.558 0.157-0.598 0.291-1.069 0.489-1.428 1.212 1.085 2.794 2.072 4.789 2.651-0.778 3.126-2.276 6.428-4.257 6.428-0.553 0-1 0.471-1 1.052s0.447 1.052 1 1.052c3.777 0 5.582-5.504 6.227-8.116 0.565 0.071 1.152 0.116 1.773 0.116s1.208-0.046 1.773-0.116c0.645 2.613 2.449 8.116 6.227 8.116 0.552 0 1-0.471 1-1.052s-0.448-1.052-1-1.052c-1.981 0-3.479-3.301-4.257-6.428 1.995-0.579 3.578-1.565 4.789-2.651 0.198 0.359 0.331 0.83 0.489 1.428 0.337 1.279 0.758 2.872 2.628 3.558 0.461 0.169 0.898 0.24 1.306 0.24 1.248 0 2.261-0.659 3.116-1.216 1.060-0.689 1.7-1.064 2.519-0.762 0.536 0.198 1.138-0.061 1.341-0.578 0.205-0.516-0.063-1.094-0.601-1.291zM28 2c0.827 0 1.5 0.673 1.5 1.5s-0.673 1.5-1.5 1.5-1.5-0.673-1.5-1.5 0.673-1.5 1.5-1.5zM12 5c-0.827 0-1.5-0.673-1.5-1.5s0.673-1.5 1.5-1.5 1.5 0.673 1.5 1.5-0.673 1.5-1.5 1.5zM20 22c-6.065 0-8.899-4.266-9.801-6.001 0.898-1.727 3.731-5.999 9.801-5.999s8.903 4.273 9.801 5.999c-0.901 1.734-3.736 6.001-9.801 6.001z"></path>
</svg>
