<!-- Generated by IcoMoon.io -->
<svg version="1.1" xmlns="http://www.w3.org/2000/svg" width="32" height="32" viewBox="0 0 32 32">
<title>pause-circle</title>
<path d="M13.625 10h-1.25c-0.206 0-0.375 0.169-0.375 0.375v11.25c0 0.206 0.169 0.375 0.375 0.375h1.25c0.206 0 0.375-0.169 0.375-0.375v-11.25c0-0.206-0.169-0.375-0.375-0.375zM19.625 10h-1.25c-0.206 0-0.375 0.169-0.375 0.375v11.25c0 0.206 0.169 0.375 0.375 0.375h1.25c0.206 0 0.375-0.169 0.375-0.375v-11.25c0-0.206-0.169-0.375-0.375-0.375zM16 0.5c-8.563 0-15.5 6.938-15.5 15.5s6.938 15.5 15.5 15.5 15.5-6.938 15.5-15.5-6.938-15.5-15.5-15.5zM16 29.5c-7.419 0-13.5-6.006-13.5-13.5 0-7.419 6.006-13.5 13.5-13.5 7.419 0 13.5 6.006 13.5 13.5 0 7.419-6.006 13.5-13.5 13.5z"></path>
</svg>
