<!-- Generated by IcoMoon.io -->
<svg version="1.1" xmlns="http://www.w3.org/2000/svg" width="28" height="32" viewBox="0 0 28 32">
<title>pause</title>
<path d="M3 29.938h6c1.656 0 3-1.344 3-3v-22c0-1.656-1.344-3-3-3h-6c-1.656 0-3 1.344-3 3v22c0 1.656 1.344 3 3 3zM2 4.938c0-0.55 0.45-1 1-1h6c0.55 0 1 0.45 1 1v22c0 0.55-0.45 1-1 1h-6c-0.55 0-1-0.45-1-1v-22zM19 29.938h6c1.656 0 3-1.344 3-3v-22c0-1.656-1.344-3-3-3h-6c-1.656 0-3 1.344-3 3v22c0 1.656 1.344 3 3 3zM18 4.938c0-0.55 0.45-1 1-1h6c0.55 0 1 0.45 1 1v22c0 0.55-0.45 1-1 1h-6c-0.55 0-1-0.45-1-1v-22z"></path>
</svg>
