<!-- Generated by IcoMoon.io -->
<svg version="1.1" xmlns="http://www.w3.org/2000/svg" width="28" height="32" viewBox="0 0 28 32">
<title>paw-alt</title>
<path d="M22.957 18.799c-1.643-0.927-2.946-3.838-4.198-6.114-0.983-1.79-2.871-2.684-4.759-2.684s-3.776 0.894-4.759 2.684c-1.268 2.31-2.508 5.16-4.198 6.114-1.816 1.025-3.042 2.962-3.042 5.198 0 3.313 2.686 5.999 6 5.999 0.082 0.003 0.162 0.004 0.242 0.004 3.055 0 4.308-2.004 5.758-2.004s2.703 2.004 5.758 2.004c0.079 0 0.16-0.001 0.242-0.004 3.314 0 6-2.686 6-5.999 0-2.236-1.227-4.173-3.043-5.198zM19.933 27.997l-0.174 0.003c-1.258 0-2.065-0.483-2.921-0.993-0.794-0.474-1.694-1.011-2.837-1.011s-2.043 0.537-2.837 1.011c-0.856 0.511-1.664 0.993-2.921 0.993l-0.242-0.004c-2.206 0-4-1.794-4-3.999 0-1.426 0.776-2.751 2.026-3.457 1.904-1.075 3.127-3.405 4.31-5.658 0.22-0.419 0.439-0.836 0.658-1.234 0.566-1.032 1.69-1.647 3.006-1.647s2.439 0.616 3.006 1.648c0.207 0.376 0.415 0.77 0.626 1.169 1.212 2.293 2.466 4.664 4.341 5.723 1.25 0.706 2.026 2.031 2.026 3.457 0 2.205-1.794 3.999-4.067 4zM7 12.5c0-1.933-1.567-3.5-3.5-3.5s-3.5 1.567-3.5 3.5 1.567 3.5 3.5 3.5 3.5-1.567 3.5-3.5zM2 12.5c0-0.827 0.673-1.5 1.5-1.5s1.5 0.673 1.5 1.5-0.673 1.5-1.5 1.5-1.5-0.673-1.5-1.5zM24.5 9c-1.933 0-3.5 1.567-3.5 3.5s1.567 3.5 3.5 3.5 3.5-1.567 3.5-3.5-1.567-3.5-3.5-3.5zM24.5 14c-0.827 0-1.5-0.673-1.5-1.5s0.673-1.5 1.5-1.5 1.5 0.673 1.5 1.5-0.673 1.5-1.5 1.5zM18.5 9c1.933 0 3.5-1.567 3.5-3.5s-1.567-3.5-3.5-3.5-3.5 1.567-3.5 3.5 1.567 3.5 3.5 3.5zM18.5 4c0.827 0 1.5 0.673 1.5 1.5s-0.673 1.5-1.5 1.5-1.5-0.673-1.5-1.5 0.673-1.5 1.5-1.5zM9.5 9c1.933 0 3.5-1.567 3.5-3.5s-1.567-3.5-3.5-3.5-3.5 1.567-3.5 3.5 1.567 3.5 3.5 3.5zM9.5 4c0.827 0 1.5 0.673 1.5 1.5s-0.673 1.5-1.5 1.5-1.5-0.673-1.5-1.5 0.673-1.5 1.5-1.5z"></path>
</svg>
