<!-- Generated by IcoMoon.io -->
<svg version="1.1" xmlns="http://www.w3.org/2000/svg" width="28" height="32" viewBox="0 0 28 32">
<title>paw-alt-solid</title>
<path d="M9 8c1.657 0 3-1.343 3-3s-1.343-3-3-3-3 1.343-3 3 1.343 3 3 3zM6 12c0-1.657-1.343-3-3-3s-3 1.343-3 3 1.343 3 3 3 3-1.343 3-3zM19 8c1.657 0 3-1.343 3-3s-1.343-3-3-3-3 1.343-3 3 1.343 3 3 3zM25 9c-1.657 0-3 1.343-3 3s1.343 3 3 3 3-1.343 3-3-1.343-3-3-3zM22.957 18.799c-1.643-0.927-2.946-3.838-4.198-6.114-0.983-1.79-2.871-2.684-4.759-2.684s-3.776 0.894-4.759 2.684c-1.268 2.31-2.508 5.16-4.198 6.114-1.816 1.025-3.042 2.962-3.042 5.198 0 3.313 2.686 5.999 6 5.999 3.232 0.11 4.512-1.999 6-1.999s2.768 2.109 6 1.999c3.314 0 6-2.686 6-5.999 0-2.236-1.227-4.173-3.043-5.198z"></path>
</svg>
