<!-- Generated by IcoMoon.io -->
<svg version="1.1" xmlns="http://www.w3.org/2000/svg" width="32" height="32" viewBox="0 0 32 32">
<title>paw-claws</title>
<path d="M19.909 13.913c2.51 0.66 4.347-2.179 4.841-3.992 0.527-1.934 0.188-3.816-0.751-4.922l-4-4.999v4.685c-0.996 0.704-1.843 1.898-2.251 3.393-0.74 2.714 0.227 5.326 2.161 5.835zM19.678 8.605c1.139-4.174 4.162-2.942 3.143 0.791-1.137 4.169-4.162 2.945-3.143-0.791zM30.844 11.898l-2.844-3.898v4.184c-1.239 0.409-2.344 1.527-2.795 3.029-0.65 2.166 0.298 4.274 2.118 4.709 1.904 0.456 3.852-1.069 4.472-3.133 0.553-1.844-0.097-3.719-0.951-4.89zM29.879 16.212c-0.795 2.647-3.556 2.228-2.759-0.426 0.793-2.641 3.557-2.232 2.759 0.426zM16 16c-4.963 0-11.999 7.672-11.999 12.516 0 2.182 1.676 3.484 4.484 3.484 3.053 0 5.068-1.567 7.516-1.567 2.469 0 4.49 1.567 7.516 1.567 2.808 0 4.484-1.303 4.484-3.484-0.001-4.843-7.038-12.516-12.001-12.516zM23.516 30c-1.269 0-2.363-0.361-3.521-0.742-1.23-0.406-2.501-0.824-3.994-0.824-1.478 0-2.741 0.417-3.962 0.82-1.165 0.384-2.266 0.747-3.554 0.747-2.484 0-2.484-1.117-2.484-1.484 0-3.932 6.261-10.516 9.999-10.516s9.999 6.584 9.999 10.516c0 0.367 0 1.484-2.483 1.484zM6.796 15.212c-0.451-1.502-1.556-2.619-2.795-3.029v-4.183l-2.844 3.898c-0.856 1.172-1.504 3.046-0.951 4.89 0.625 2.081 2.585 3.584 4.472 3.133 1.819-0.436 2.768-2.544 2.118-4.709zM2.121 16.212c-0.802-2.673 1.969-3.054 2.759-0.426 0.8 2.668-1.969 3.059-2.759 0.426zM12.091 13.913c1.934-0.509 2.901-3.121 2.161-5.835-0.408-1.495-1.254-2.69-2.251-3.393v-4.685l-4.001 4.999c-0.939 1.106-1.278 2.989-0.751 4.922 0.478 1.753 2.317 4.656 4.841 3.992zM12.322 8.605c1.012 3.712-2 4.984-3.144 0.791-1.012-3.712 2-4.984 3.144-0.791z"></path>
</svg>
