<!-- Generated by IcoMoon.io -->
<svg version="1.1" xmlns="http://www.w3.org/2000/svg" width="32" height="32" viewBox="0 0 32 32">
<title>paw-solid</title>
<path d="M16 14c-4.963 0-12 7.672-12 12.516 0 2.181 1.676 3.484 4.484 3.484 3.053 0 5.068-1.567 7.516-1.567 2.469 0 4.491 1.567 7.516 1.567 2.808 0 4.484-1.303 4.484-3.484 0-4.843-7.037-12.516-12-12.516zM6.795 13.212c-0.65-2.166-2.652-3.568-4.473-3.133s-2.768 2.543-2.118 4.709c0.65 2.166 2.652 3.568 4.473 3.133s2.768-2.543 2.118-4.709zM12.090 11.913c1.934-0.509 2.901-3.121 2.161-5.835s-2.908-4.501-4.841-3.992-2.901 3.121-2.161 5.835c0.74 2.714 2.908 4.501 4.841 3.992zM29.677 10.079c-1.82-0.435-3.822 0.967-4.473 3.133s0.298 4.274 2.118 4.709 3.822-0.968 4.473-3.133c0.65-2.166-0.298-4.274-2.118-4.709zM19.91 11.913c1.934 0.509 4.101-1.278 4.841-3.992s-0.227-5.326-2.161-5.835-4.101 1.278-4.841 3.992c-0.74 2.714 0.227 5.326 2.161 5.835z"></path>
</svg>
