<!-- Generated by IcoMoon.io -->
<svg version="1.1" xmlns="http://www.w3.org/2000/svg" width="32" height="32" viewBox="0 0 32 32">
<title>paw-claws-solid</title>
<path d="M12.090 13.913c1.934-0.509 2.901-3.121 2.161-5.835-0.408-1.495-1.254-2.69-2.251-3.393v-4.685l-4.001 4.999c-0.939 1.106-1.278 2.989-0.751 4.922 0.74 2.714 2.908 4.501 4.841 3.992zM19.91 13.913c1.934 0.509 4.101-1.278 4.841-3.992 0.527-1.934 0.188-3.816-0.751-4.922l-4.001-4.999v4.685c-0.997 0.704-1.843 1.898-2.251 3.393-0.74 2.714 0.227 5.326 2.161 5.835zM16 16c-4.963 0-12 7.672-12 12.516 0 2.181 1.676 3.484 4.484 3.484 3.053 0 5.068-1.567 7.516-1.567 2.469 0 4.491 1.567 7.516 1.567 2.808 0 4.484-1.303 4.484-3.484 0-4.843-7.037-12.516-12-12.516zM6.795 15.212c-0.451-1.502-1.556-2.619-2.795-3.029v-4.183l-2.844 3.898c-0.722 0.98-1.156 2.212-1.156 3.544 0 0 0 0.001 0 0.001v-0c0.002 0.436 0.068 0.889 0.205 1.345 0.65 2.166 2.652 3.568 4.473 3.133s2.768-2.544 2.117-4.709zM30.844 11.898l-2.844-3.898v4.184c-1.239 0.409-2.344 1.527-2.795 3.029-0.65 2.166 0.298 4.274 2.118 4.709s3.822-0.968 4.473-3.133c0.137-0.456 0.203-0.909 0.205-1.345-0-1.333-0.434-2.565-1.168-3.562l0.012 0.017z"></path>
</svg>
