<!-- Generated by IcoMoon.io -->
<svg version="1.1" xmlns="http://www.w3.org/2000/svg" width="32" height="32" viewBox="0 0 32 32">
<title>paw</title>
<path d="M16 14c-4.963 0-12 7.672-12 12.516 0 2.181 1.676 3.484 4.484 3.484 3.053 0 5.068-1.567 7.516-1.567 2.469 0 4.491 1.567 7.516 1.567 2.808 0 4.484-1.303 4.484-3.484 0-4.843-7.037-12.516-12-12.516zM23.516 28c-1.269 0-2.363-0.361-3.522-0.742-1.23-0.406-2.501-0.824-3.994-0.824-1.478 0-2.741 0.417-3.962 0.82-1.165 0.384-2.266 0.747-3.554 0.747-2.484-0.001-2.484-1.118-2.484-1.485 0-3.931 6.262-10.516 10-10.516s10 6.584 10 10.516c0 0.367 0 1.484-2.484 1.484zM29.677 10.079c-0.223-0.054-0.45-0.079-0.676-0.079-1.616 0-3.226 1.313-3.796 3.212-0.65 2.166 0.298 4.274 2.118 4.709 0.224 0.054 0.45 0.079 0.676 0.079 1.616 0 3.226-1.313 3.796-3.212 0.65-2.166-0.298-4.274-2.118-4.709zM29.879 14.213c-0.336 1.118-1.22 1.787-1.881 1.787-0.073 0-0.143-0.008-0.211-0.024-0.231-0.055-0.42-0.207-0.561-0.453-0.258-0.449-0.297-1.097-0.106-1.735 0.336-1.119 1.22-1.787 1.881-1.787 0.073 0 0.143 0.008 0.211 0.024 0.231 0.055 0.42 0.208 0.561 0.453 0.258 0.449 0.297 1.097 0.106 1.736zM19.91 11.913c0.222 0.058 0.447 0.086 0.672 0.086 1.74 0 3.514-1.676 4.169-4.078 0.74-2.714-0.227-5.326-2.161-5.835-0.201-0.055-0.431-0.087-0.669-0.087-0.001 0-0.002 0-0.004 0h0c-1.74 0-3.514 1.676-4.169 4.079-0.74 2.714 0.227 5.326 2.161 5.835zM19.678 6.605c0.464-1.7 1.599-2.605 2.239-2.605 0.057 0 0.111 0.007 0.163 0.021 0.258 0.068 0.445 0.313 0.556 0.506 0.317 0.55 0.532 1.593 0.184 2.869-0.464 1.699-1.598 2.604-2.239 2.604-0.057 0-0.111-0.007-0.164-0.021-0.258-0.068-0.445-0.312-0.556-0.505-0.317-0.551-0.532-1.593-0.184-2.869zM11.418 12c0.226 0 0.451-0.028 0.672-0.086 1.934-0.509 2.901-3.121 2.161-5.835-0.655-2.402-2.429-4.079-4.169-4.079-0.226 0-0.451 0.028-0.672 0.087-1.934 0.509-2.901 3.121-2.161 5.835 0.655 2.402 2.429 4.078 4.169 4.078zM9.363 4.526c0.111-0.193 0.299-0.438 0.556-0.506 0.053-0.014 0.106-0.021 0.163-0.021 0.641 0 1.776 0.905 2.239 2.605 0.348 1.277 0.133 2.319-0.184 2.869-0.111 0.193-0.298 0.438-0.556 0.505-0.053 0.014-0.106 0.021-0.163 0.021-0.641 0-1.776-0.905-2.239-2.605-0.348-1.276-0.133-2.319 0.184-2.869zM4.678 17.921c1.82-0.435 2.768-2.543 2.117-4.709-0.57-1.899-2.181-3.212-3.796-3.212-0.226 0-0.453 0.026-0.676 0.079-1.82 0.435-2.768 2.543-2.118 4.709 0.57 1.899 2.181 3.212 3.796 3.212 0.226 0 0.452-0.026 0.676-0.079zM2.121 14.213c-0.191-0.638-0.152-1.287 0.106-1.735 0.141-0.246 0.33-0.398 0.561-0.453 0.067-0.016 0.138-0.024 0.211-0.024 0.661 0 1.545 0.669 1.881 1.787 0.191 0.638 0.152 1.287-0.106 1.736-0.141 0.246-0.33 0.398-0.561 0.453-0.069 0.016-0.138 0.024-0.211 0.024-0.661 0-1.545-0.669-1.881-1.787z"></path>
</svg>
