<!-- Generated by IcoMoon.io -->
<svg version="1.1" xmlns="http://www.w3.org/2000/svg" width="31" height="32" viewBox="0 0 31 32">
<title>peace-solid</title>
<path d="M15.5 0.5c-8.561 0-15.5 6.939-15.5 15.5s6.939 15.5 15.5 15.5 15.5-6.939 15.5-15.5-6.939-15.5-15.5-15.5zM27 16c0 1.996-0.512 3.873-1.411 5.511l-8.089-6.471v-10.354c5.389 0.951 9.5 5.656 9.5 11.314zM13.5 27.314c-2.116-0.373-4.031-1.325-5.581-2.689l5.581-4.465v7.154zM17.5 20.161l5.581 4.464c-1.55 1.364-3.464 2.316-5.581 2.689v-7.153zM13.5 4.686v10.354l-8.089 6.471c-0.898-1.637-1.411-3.515-1.411-5.511 0-5.658 4.111-10.364 9.5-11.314z"></path>
</svg>
