<!-- Generated by IcoMoon.io -->
<svg version="1.1" xmlns="http://www.w3.org/2000/svg" width="31" height="32" viewBox="0 0 31 32">
<title>peace</title>
<path d="M15.5 0.5c-8.561 0-15.5 6.939-15.5 15.5s6.939 15.5 15.5 15.5 15.5-6.939 15.5-15.5-6.939-15.5-15.5-15.5zM29 16c0 2.828-0.878 5.452-2.369 7.623l-10.131-8.104v-12.968c6.977 0.515 12.5 6.343 12.5 13.449zM14.5 2.551v12.968l-10.131 8.104c-1.491-2.171-2.369-4.796-2.369-7.623 0-7.106 5.523-12.934 12.5-13.449zM5.628 25.178l8.872-7.097v11.368c-3.496-0.258-6.619-1.849-8.872-4.271zM16.5 29.449v-11.368l8.872 7.097c-2.253 2.422-5.376 4.013-8.872 4.271z"></path>
</svg>
