<!-- Generated by IcoMoon.io -->
<svg version="1.1" xmlns="http://www.w3.org/2000/svg" width="36" height="32" viewBox="0 0 36 32">
<title>pegasus</title>
<path d="M35.997 5.392c-0.001-0.601-0.229-0.995-0.571-1.41 0.337-0.591 0.524-1.27 0.524-1.982 0-1.104-0.896-2-2-2h-6.949c-4.324 0-7.836 3.454-7.974 7.745-2.231-0.576-3.944-2.169-5.094-4.787-0.25-0.572-0.816-0.947-1.439-0.957-0.658 0.013-1.178 0.335-1.446 0.899-0.695 1.471-1.047 3.042-1.047 4.668 0 4.711 3.535 8.975 8.304 10.119 0.276 0.066 0.554-0.122 0.606-0.402l0.186-0.981c0.050-0.264-0.121-0.511-0.381-0.575-3.859-0.949-6.715-4.379-6.715-8.161 0-1.019 0.17-2.012 0.504-2.961 1.832 3.533 4.753 5.393 8.492 5.393l0.004-2c0-3.314 2.686-6 6-6h6.949c0 0.831-0.507 1.542-1.227 1.844l1.274 1.549 0.003 5.867c0 0 0 0 0 0.001 0 0.437-0.28 0.808-0.67 0.944l-0.007 0.002-1.595 0.544c-0.584 0.199-1.009-0.173-1.155-0.392l-1.573-2.359-3-1v6.263c0 1.667-0.79 3.136-2 4.1v10.637h-4v-9.637l-8.527-1.895-2.008 5.592 1.505 5.941h-3.596l-1.321-5.491c-0.035-0.139-0.055-0.298-0.055-0.462 0-0.196 0.028-0.385 0.081-0.563l-0.004 0.014 1.727-5.838c-1.089-0.761-1.804-2.019-1.804-3.449 0-1.7 1.013-3.156 2.463-3.821-0.199-0.648-0.326-1.313-0.386-1.995-1.338 0.509-2.427 1.421-3.145 2.587l-0.016 0.027c-2.722 0.046-4.916 2.259-4.916 4.991v3.5c0 0.276 0.224 0.5 0.5 0.5h1c0.276 0 0.5-0.224 0.5-0.5v-3.5c0-1.344 0.889-2.467 2.107-2.849-0.060 0.346-0.107 0.697-0.107 1.060 0 1.512 0.556 2.958 1.533 4.078l-1.373 4.643c-0.195 0.673-0.211 1.377-0.050 2.046l1.321 5.491c0.216 0.898 1.019 1.532 1.944 1.532h3.596c1.309 0 2.258-1.234 1.939-2.491l-1.355-5.348 1.206-3.358 5.24 1.164v8.033c0 1.104 0.896 2 2 2h4c1.104 0 2-0.896 2-2v-9.762c1.281-1.344 2-3.109 2-4.975v-3.158l0.909 1.364c1.194 1.792 3.124 1.292 3.466 1.175l1.595-0.544c1.215-0.414 2.031-1.556 2.031-2.841l-0.004-5.867zM31.001 6c0-0.553-0.448-1-1-1s-1 0.447-1 1 0.448 1 1 1 1-0.447 1-1z"></path>
</svg>
