<!-- Generated by IcoMoon.io -->
<svg version="1.1" xmlns="http://www.w3.org/2000/svg" width="28" height="32" viewBox="0 0 28 32">
<title>pen-square</title>
<path d="M25 2h-22c-1.656 0-3 1.344-3 3v22c0 1.656 1.344 3 3 3h22c1.656 0 3-1.344 3-3v-22c0-1.656-1.344-3-3-3zM26 27c0 0.55-0.45 1-1 1h-22c-0.55 0-1-0.45-1-1v-22c0-0.55 0.45-1 1-1h22c0.55 0 1 0.45 1 1v22zM21.806 6.731c-0.975-0.975-2.556-0.975-3.538 0l-13.769 13.769-0.494 4.462c-0.069 0.6 0.438 1.1 1.037 1.038l4.456-0.5 13.769-13.769c0.975-0.975 0.975-2.556 0-3.537l-1.462-1.463zM8.581 23.587l-2.444 0.269 0.269-2.444 10.169-10.169 2.169 2.169-10.162 10.175zM21.856 10.319l-1.688 1.688-2.169-2.169 1.688-1.688c0.194-0.194 0.512-0.194 0.706 0l1.462 1.463c0.194 0.194 0.194 0.512 0 0.706z"></path>
</svg>
