<!-- Generated by IcoMoon.io -->
<svg version="1.1" xmlns="http://www.w3.org/2000/svg" width="32" height="32" viewBox="0 0 32 32">
<title>pen-nib-solid</title>
<path d="M8.537 8.674c-1.28 0.37-2.279 1.329-2.699 2.556l-0.008 0.028-5.831 17.491 0.918 0.918 9.382-9.382c-0.187-0.391-0.3-0.824-0.3-1.286 0-1.657 1.343-3 3-3s3 1.343 3 3-1.343 3-3 3c-0.463 0-0.895-0.113-1.286-0.3l-9.382 9.382 0.918 0.918 17.491-5.831c1.256-0.427 2.214-1.426 2.577-2.679l0.007-0.028 2.674-9.463-8-8-9.463 2.674zM31.121 4.636l-3.757-3.757c-1.172-1.172-3.073-1.172-4.244 0l-3.534 3.534 8.001 8.001 3.534-3.534c1.172-1.172 1.172-3.072 0-4.244z"></path>
</svg>
