<!-- Generated by IcoMoon.io -->
<svg version="1.1" xmlns="http://www.w3.org/2000/svg" width="32" height="32" viewBox="0 0 32 32">
<title>pen-fancy</title>
<path d="M26.554 0c-1.466 0-2.928 0.603-3.982 1.795l-11.951 13.205-5.364 1.789c-0.636 0.217-1.127 0.708-1.339 1.329l-0.004 0.015-3.913 11.742 2.124 2.125 11.737-3.914c0.636-0.217 1.127-0.708 1.339-1.329l0.004-0.015 1.788-5.367 13.199-11.956c3.839-3.395 1.063-9.419-3.638-9.419zM13.308 26.109c-0.012 0.037-9.089 3.084-9.089 3.084l4.289-4.291c0.16 0.041 0.314 0.098 0.488 0.098 1.104 0 1.999-0.896 1.999-2s-0.895-2-1.999-2-1.999 0.896-1.999 2c0 0.173 0.057 0.328 0.098 0.488l-4.29 4.292s3.045-9.081 3.082-9.093l5.534-1.846 3.731 3.732-1.844 5.537zM28.85 7.936l-12.334 11.173-3.631-3.632 11.184-12.357c0.61-0.688 1.497-1.12 2.484-1.12h0c1.819 0 3.492 1.597 3.432 3.538-0.028 0.924-0.426 1.769-1.136 2.397z"></path>
</svg>
