<!-- Generated by IcoMoon.io -->
<svg version="1.1" xmlns="http://www.w3.org/2000/svg" width="32" height="32" viewBox="0 0 32 32">
<title>pen-fancy-solid</title>
<path d="M4.949 17.684c-0.599 0.204-1.061 0.666-1.261 1.251l-0.004 0.014-3.684 11.051 0.293 0.293 5.806-5.806c-0.041-0.16-0.098-0.314-0.098-0.488 0-1.104 0.896-2 2-2s2 0.896 2 2-0.896 2-2 2c-0.173 0-0.327-0.057-0.487-0.098l-5.806 5.806 0.292 0.293 11.051-3.684c0.599-0.204 1.061-0.666 1.261-1.251l0.004-0.014 2.067-5.254-6.18-6.18-5.254 2.067zM23.078 1.77l-11.444 12.468 6.116 6.116 12.468-11.444c5.307-4.692-2.484-12.406-7.139-7.139z"></path>
</svg>
