<!-- Generated by IcoMoon.io -->
<svg version="1.1" xmlns="http://www.w3.org/2000/svg" width="32" height="32" viewBox="0 0 32 32">
<title>pen-nib</title>
<path d="M30.867 5.975l-4.842-4.842c-0.755-0.756-1.745-1.133-2.735-1.133s-1.98 0.378-2.735 1.133l-5.778 5.778-6.239 1.763c-1.28 0.37-2.279 1.329-2.699 2.556l-0.008 0.028-5.831 17.491 3.25 3.25 17.491-5.831c1.256-0.427 2.214-1.426 2.577-2.679l0.007-0.028 1.763-6.239 5.778-5.778c1.511-1.511 1.511-3.959 0-5.47zM21.401 22.919c-0.185 0.64-0.664 1.14-1.278 1.35l-0.014 0.004-16.319 5.439-0.044-0.044 7.235-7.235c0.595 0.351 1.279 0.567 2.019 0.567 2.205 0 4-1.794 4-4s-1.795-4-4-4-4 1.794-4 4c0 0.739 0.216 1.424 0.567 2.019l-7.234 7.234-0.044-0.044 5.439-16.319c0.214-0.628 0.713-1.108 1.34-1.289l0.014-0.004 6.318-1.786 7.788 7.788-0.022 0.078-1.763 6.24zM11 19c0-1.102 0.896-2 2-2s2 0.898 2 2-0.896 2-2 2-2-0.898-2-2zM29.453 10.031l-5.004 5.004-7.484-7.483 5.004-5.004c0.729-0.729 1.911-0.731 2.642 0l4.842 4.842c0.728 0.728 0.728 1.913 0 2.641z"></path>
</svg>
