<!-- Generated by IcoMoon.io -->
<svg version="1.1" xmlns="http://www.w3.org/2000/svg" width="32" height="32" viewBox="0 0 32 32">
<title>pen-alt</title>
<path d="M30.828 3.516l-2.344-2.344c-0.781-0.781-1.805-1.172-2.828-1.172s-2.047 0.391-2.828 1.171l-4.242 4.242-1.414-1.414c-0.781-0.781-2.047-0.781-2.828 0l-8.133 8.133c-0.195 0.195-0.195 0.512 0 0.707l0.707 0.707c0.195 0.195 0.512 0.195 0.707 0l8.132-8.132 1.414 1.414-11.298 11.299c-3.177 3.177-5.313 7.395-5.852 12.099l-0.009 0.094-0.002 0.014c-0.099 0.898 0.609 1.666 1.488 1.666 0.358 0 6.941-0.437 12.377-5.872l16.955-16.955c1.562-1.563 1.562-4.095-0.001-5.657zM12.459 24.714c-2.813 2.813-6.496 4.651-10.381 5.212 0.571-3.915 2.406-7.582 5.209-10.385l11.299-11.298 5.172 5.173-11.299 11.299zM29.414 7.759l-4.242 4.242-5.173-5.173 4.242-4.242c0.781-0.781 2.046-0.782 2.828 0l2.344 2.344c0.782 0.781 0.782 2.046 0.001 2.829z"></path>
</svg>
