<!-- Generated by IcoMoon.io -->
<svg version="1.1" xmlns="http://www.w3.org/2000/svg" width="28" height="32" viewBox="0 0 28 32">
<title>pen-square-solid</title>
<path d="M25 30h-22c-1.656 0-3-1.344-3-3v-22c0-1.656 1.344-3 3-3h22c1.656 0 3 1.344 3 3v22c0 1.656-1.344 3-3 3zM14.881 11.119l-8.481 8.481-0.394 3.569c-0.050 0.475 0.35 0.881 0.831 0.831l3.569-0.394 8.481-8.481c0.144-0.144 0.144-0.381 0-0.531l-3.469-3.469c-0.156-0.15-0.394-0.15-0.537-0.006zM21.563 10.319l-1.881-1.881c-0.587-0.588-1.538-0.588-2.119 0l-1.444 1.444c-0.144 0.144-0.144 0.381 0 0.531l3.469 3.469c0.144 0.144 0.381 0.144 0.531 0l1.444-1.444c0.581-0.581 0.581-1.531 0-2.119z"></path>
</svg>
