<!-- Generated by IcoMoon.io -->
<svg version="1.1" xmlns="http://www.w3.org/2000/svg" width="32" height="32" viewBox="0 0 32 32">
<title>pen-alt-solid</title>
<path d="M31.121 4.636l-3.757-3.757c-1.172-1.172-3.073-1.172-4.244 0l-3.534 3.534 8.001 8.001 3.534-3.534c1.172-1.172 1.172-3.072 0-4.244zM15.696 3.353c-0.976-0.976-2.559-0.976-3.535 0l-7.424 7.424c-0.391 0.391-0.391 1.024 0 1.414l1.414 1.414c0.391 0.391 1.024 0.391 1.414 0l6.364-6.364 1.414 1.414-9.473 9.472c-3.177 3.177-5.313 7.395-5.852 12.098l-0.009 0.094-0.002 0.014c-0.106 0.955 0.701 1.763 1.656 1.657 4.804-0.545 9.028-2.682 12.209-5.863l12.299-12.299-10.476-10.476z"></path>
</svg>
