<!-- Generated by IcoMoon.io -->
<svg version="1.1" xmlns="http://www.w3.org/2000/svg" width="32" height="32" viewBox="0 0 32 32">
<title>pen</title>
<path d="M30.828 3.516l-2.344-2.344c-0.781-0.781-1.804-1.172-2.828-1.172s-2.047 0.391-2.829 1.171l-22.024 22.024-0.794 7.139c-0.1 0.899 0.608 1.666 1.488 1.666 0.056 0 0.111-0.003 0.168-0.009l7.134-0.788 22.030-22.030c1.562-1.562 1.562-4.094-0.001-5.656zM7.881 29.293l-5.814 0.644 0.647-5.823 16.493-16.493 5.173 5.173-16.499 16.499zM29.414 7.759l-3.621 3.621-5.173-5.173 3.621-3.621c0.378-0.377 0.88-0.586 1.414-0.586s1.036 0.208 1.414 0.586l2.344 2.344c0.779 0.78 0.779 2.049 0 2.829z"></path>
</svg>
