<!-- Generated by IcoMoon.io -->
<svg version="1.1" xmlns="http://www.w3.org/2000/svg" width="32" height="32" viewBox="0 0 32 32">
<title>pencil-ruler-solid</title>
<path d="M6.841 15.252l8.411-8.41-2.758-2.758-3.855 3.855c-0.090 0.090-0.213 0.145-0.35 0.145s-0.261-0.056-0.35-0.145v0l-0.701-0.701c-0.194-0.194-0.194-0.508 0-0.701l3.855-3.855-2.103-2.103c-0.774-0.774-2.029-0.774-2.804 0l-5.607 5.607c-0.774 0.774-0.774 2.029 0 2.804l6.261 6.261zM31.121 7.952c1.173-1.173 1.172-3.073 0-4.246l-2.828-2.828c-1.172-1.173-3.074-1.173-4.247 0l-2.876 2.876 7.075 7.075 2.876-2.877zM19.755 5.169l-18.563 18.56-1.173 6.715c-0.158 0.906 0.631 1.694 1.537 1.535l6.716-1.177 18.557-18.558-7.075-7.074zM31.419 23.009l-2.102-2.102-3.855 3.855c-0.194 0.194-0.508 0.194-0.701 0l-0.701-0.701c-0.193-0.194-0.193-0.508 0-0.701l3.855-3.855-2.759-2.759-8.411 8.41 6.263 6.262c0.774 0.774 2.029 0.774 2.804 0l5.607-5.606c0.774-0.774 0.774-2.029 0-2.804z"></path>
</svg>
