<!-- Generated by IcoMoon.io -->
<svg version="1.1" xmlns="http://www.w3.org/2000/svg" width="32" height="32" viewBox="0 0 32 32">
<title>pencil-ruler</title>
<path d="M31.419 23.009l-7.677-7.677 7.378-7.379c1.173-1.173 1.172-3.073 0-4.246l-2.828-2.828c-0.586-0.586-1.355-0.879-2.123-0.879s-1.537 0.293-2.123 0.879l-7.378 7.378-7.676-7.676c-0.387-0.387-0.894-0.581-1.402-0.581s-1.014 0.194-1.402 0.581l-5.606 5.607c-0.774 0.774-0.774 2.029 0 2.804l7.675 7.675-7.063 7.063-1.173 6.716c-0.17 0.977 0.701 1.681 1.537 1.535l6.715-1.177 7.059-7.060 7.677 7.677c0.358 0.359 0.853 0.581 1.399 0.581 0.001 0 0.001 0 0.002 0h-0c0.508 0 1.015-0.194 1.402-0.581l5.607-5.606c0.774-0.774 0.774-2.029 0-2.804zM25.46 2.294c0.256-0.256 1.163-0.256 1.418 0l2.828 2.827c0.391 0.391 0.391 1.026 0 1.417l-2.877 2.877-4.246-4.246 2.877-2.875zM1.996 7.602l5.594-5.595 3.497 3.493-2.439 2.439c-0.195 0.195-0.195 0.512 0 0.707l0.707 0.707c0.195 0.195 0.512 0.195 0.707 0l2.44-2.44 2.756 2.753-5.594 5.593-7.668-7.657zM7.306 28.941l-5.149 0.903 0.898-5.148 18.114-18.113 4.246 4.246-18.109 18.111zM24.423 30.005l-7.679-7.675 5.592-5.593 2.758 2.754-2.447 2.448c-0.195 0.195-0.195 0.512 0 0.707l0.707 0.707c0.195 0.195 0.512 0.195 0.707 0l2.448-2.448 3.496 3.492-5.582 5.607z"></path>
</svg>
