<!-- Generated by IcoMoon.io -->
<svg version="1.1" xmlns="http://www.w3.org/2000/svg" width="32" height="32" viewBox="0 0 32 32">
<title>pencil-paintbrush</title>
<path d="M27.089 22.834c-1.285-3.387-3.438-4.614-5.871-4.979l9.902-9.903c1.173-1.173 1.172-3.073 0-4.246l-2.828-2.828c-0.586-0.586-1.355-0.879-2.123-0.879s-1.537 0.293-2.123 0.879l-9.033 9.031-5.129-7.67c-1.113-1.588-2.58-2.241-4.042-2.241-4.048 0-8.057 5.001-4.416 9.003l6.902 7.591-7.136 7.134-1.171 6.716c-0.17 0.977 0.701 1.681 1.537 1.535l6.715-1.177 5.857-5.857c0.376 2.807 2.136 7.056 8.869 7.056 6.333 0 9-5.089 9-10.879-0.688 0.47-3.104 2.416-3.884 2.416-0.464 0-0.861-0.265-1.026-0.702zM25.46 2.294c0.256-0.256 1.163-0.256 1.419 0l2.828 2.827c0.391 0.391 0.391 1.026 0 1.417l-2.877 2.877-4.246-4.246 2.876-2.875zM2.907 7.657c-0.927-1.019-1.146-2.105-0.649-3.228 0.613-1.386 2.154-2.43 3.585-2.43 0.95 0 1.759 0.467 2.404 1.389l5.325 7.964-3.827 3.826-6.838-7.521zM7.306 28.941l-5.149 0.902 0.899-5.148 18.114-18.113 4.246 4.246-18.11 18.112zM23 30c-2.455 0-4.284-0.648-5.435-1.926-1.201-1.333-1.638-3.343-1.484-5.080l1.054-1.054 2.502-2.224c4.481 0.288 5.153 2.698 5.582 3.829 0.458 1.209 1.595 1.992 2.896 1.992 0.411 0 0.823-0.097 1.295-0.304-0.776 2.426-2.53 4.768-6.41 4.768z"></path>
</svg>
