<!-- Generated by IcoMoon.io -->
<svg version="1.1" xmlns="http://www.w3.org/2000/svg" width="32" height="32" viewBox="0 0 32 32">
<title>pencil-alt</title>
<path d="M30.828 3.515l-2.343-2.343c-1.562-1.562-4.095-1.562-5.657 0l-22.026 22.026-0.793 7.137c-0.106 0.955 0.701 1.763 1.656 1.657l7.136-0.793 22.026-22.026c1.562-1.562 1.562-4.095-0-5.657zM10.293 21.707c0.391 0.391 1.024 0.39 1.414 0l11.293-11.293 1.879 1.879-14.004 14.004v-2.172h-3v-3h-2.172l14.004-14.004 1.879 1.879-11.293 11.293c-0.391 0.39-0.391 1.024 0 1.414zM7.884 29.287l-3.687 0.41-1.894-1.894 0.41-3.687 1.241-1.241h2.172v3h3v2.172l-1.241 1.241zM29.414 7.757l-3.121 3.121-5.172-5.172 3.121-3.121c0.782-0.782 2.047-0.782 2.828 0l2.343 2.343c0.782 0.782 0.782 2.047 0 2.828z"></path>
</svg>
