<!-- Generated by IcoMoon.io -->
<svg version="1.1" xmlns="http://www.w3.org/2000/svg" width="32" height="32" viewBox="0 0 32 32">
<title>pencil-paintbrush-solid</title>
<path d="M19.755 5.169l-18.563 18.56-1.173 6.715c-0.158 0.906 0.631 1.694 1.537 1.535l6.716-1.177 18.557-18.558-7.075-7.074zM31.121 7.952c1.172-1.173 1.172-3.073 0-4.246l-2.829-2.828c-1.172-1.173-3.074-1.173-4.246 0l-2.877 2.876 7.075 7.075 2.877-2.877zM28.547 24.476c-0.412 0-0.765-0.236-0.912-0.624-1.133-2.986-3.025-4.086-5.166-4.419l-6.355 6.355c0.551 3.959 3.599 6.212 7.886 6.212 5.629 0 8-4.524 8-9.671-0.612 0.418-2.759 2.147-3.453 2.147zM7.511 14.582l5.989-5.988-4.374-6.526c-3.873-5.525-12.385 1.214-7.808 6.243l6.194 6.271z"></path>
</svg>
