<!-- Generated by IcoMoon.io -->
<svg version="1.1" xmlns="http://www.w3.org/2000/svg" width="36" height="32" viewBox="0 0 36 32">
<title>pennant-solid</title>
<path d="M35.688 14.281c-4.881 5.512-11.238 6.8-11.506 6.85-8.425 1.631-9.581 0.469-14.819 2.344-0.662 0.238-1.362-0.225-1.362-0.925v-15.519c0-0.563 0.456-1.025 1.019-1 2.7 0.125 5.956 0.825 9.7 2.65 8.788 4.281 13.981 3.931 15.806 3.575 1.125-0.238 1.956 1.131 1.163 2.025zM3.5 0c-1.931 0-3.5 1.569-3.5 3.5 0 1.394 0.825 2.588 2 3.15v24.85c0 0.275 0.225 0.5 0.5 0.5h2c0.275 0 0.5-0.225 0.5-0.5v-24.85c1.175-0.563 2-1.756 2-3.15 0-1.931-1.569-3.5-3.5-3.5z"></path>
</svg>
