<!-- Generated by IcoMoon.io -->
<svg version="1.1" xmlns="http://www.w3.org/2000/svg" width="36" height="32" viewBox="0 0 36 32">
<title>pennant</title>
<path d="M34.5 11.956c-1.875 0.387-7.225 0.781-16.294-3.975-5.438-2.856-9.881-3.237-13.125-2.825 0.563-0.55 0.919-1.313 0.919-2.156 0-1.656-1.344-3-3-3s-3 1.344-3 3c0 1.3 0.838 2.4 2 2.819v25.681c0 0.275 0.225 0.5 0.5 0.5h1c0.275 0 0.5-0.225 0.5-0.5v-4.975c2.513-1.7 6.375-3.525 11.219-3.762 1.794-0.087 4.75-0.363 8.619-1.175 0.275-0.056 6.837-1.488 11.875-7.606 0.737-0.894-0.044-2.262-1.212-2.025zM3 2c0.55 0 1 0.45 1 1s-0.45 1-1 1-1-0.45-1-1 0.45-1 1-1zM23.431 19.631c-3.744 0.781-6.587 1.050-8.313 1.137-5.3 0.262-9.081 2.194-11.119 3.387v-16.8c2.95-0.662 7.469-0.656 13.275 2.394 7.431 3.9 12.644 4.525 15.594 4.4-4.344 4.356-9.381 5.469-9.438 5.481z"></path>
</svg>
