<!-- Generated by IcoMoon.io -->
<svg version="1.1" xmlns="http://www.w3.org/2000/svg" width="36" height="32" viewBox="0 0 36 32">
<title>people-arrows</title>
<path d="M30 8c2.209 0 4-1.791 4-4s-1.791-4-4-4c-2.209 0-4 1.791-4 4v0c0 2.209 1.791 4 4 4v0zM30 2c1.105 0 2 0.895 2 2s-0.895 2-2 2c-1.105 0-2-0.895-2-2v0c0-1.105 0.895-2 2-2v0zM32 10h-4c-0 0-0 0-0 0-1.27 0-2.4 0.596-3.128 1.523l-0.007 0.009c0.782 0.084 1.481 0.386 2.049 0.844l-0.008-0.006c0.319-0.215 0.68-0.37 1.093-0.37h4c1.105 0 2 0.895 2 2v0 8h-2v8h-4v-5.387l-0.75 0.738c-0.351 0.346-0.765 0.629-1.224 0.83l-0.026 0.010v3.809c0 1.105 0.895 2 2 2v0h4c1.105 0 2-0.895 2-2v0-6c1.105 0 2-0.895 2-2v0-8c0-2.209-1.791-4-4-4v0zM8 24.613v5.387h-4v-8h-2v-8c0-1.105 0.895-2 2-2v0h4c0.412 0 0.774 0.156 1.093 0.37 0.562-0.451 1.262-0.752 2.027-0.832l0.017-0.001c-0.734-0.938-1.866-1.536-3.137-1.536h-4c-2.209 0-4 1.791-4 4v0 8c0 1.105 0.895 2 2 2v0 6c0 1.105 0.895 2 2 2v0h4c1.105 0 2-0.895 2-2v0-3.808c-0.485-0.212-0.899-0.495-1.251-0.842l0.001 0zM6 8c2.209 0 4-1.791 4-4s-1.791-4-4-4c-2.209 0-4 1.791-4 4v0c0 2.209 1.791 4 4 4v0zM6 2c1.105 0 2 0.895 2 2s-0.895 2-2 2c-1.105 0-2-0.895-2-2v0c0-1.105 0.895-2 2-2v0zM29.556 19c-0-0.558-0.228-1.062-0.597-1.425l-0-0-3.556-3.5c-1.301-1.281-3.403-0.293-3.403 1.425v2.5h-8v-2.5c0-1.713-2.114-2.694-3.403-1.425l-3.556 3.5c-0.368 0.363-0.597 0.867-0.597 1.425s0.228 1.062 0.596 1.425l0 0 3.556 3.5c1.331 1.313 3.403 0.25 3.403-1.425v-2.5h8v2.5c0 1.688 2.085 2.723 3.403 1.425l3.556-3.5c0.369-0.363 0.597-0.867 0.597-1.425v0zM12 22.5l-3.556-3.5 3.556-3.5zM24 22.5v-7l3.556 3.5z"></path>
</svg>
