<!-- Generated by IcoMoon.io -->
<svg version="1.1" xmlns="http://www.w3.org/2000/svg" width="36" height="32" viewBox="0 0 36 32">
<title>people-arrows-solid</title>
<path d="M6 8c2.209 0 4-1.791 4-4s-1.791-4-4-4c-2.209 0-4 1.791-4 4v0c0 2.209 1.791 4 4 4v0zM6 19.005c0-0.002 0-0.004 0-0.007 0-0.783 0.327-1.491 0.851-1.992l0.001-0.001 4.508-4.255c0.103-0.097 0.236-0.144 0.351-0.223-0.601-1.491-2.035-2.525-3.711-2.527h-4c-2.209 0-4 1.791-4 4v0 6c0 1.105 0.895 2 2 2v0 8c0 1.105 0.895 2 2 2v0h4c1.105 0 2-0.895 2-2v0-6.024l-3.147-2.971c-0.526-0.503-0.853-1.209-0.853-1.993 0-0.003 0-0.005 0-0.008v0zM30 8c2.209 0 4-1.791 4-4s-1.791-4-4-4c-2.209 0-4 1.791-4 4v0c0 2.209 1.791 4 4 4v0zM32 10h-4c-1.676 0.002-3.11 1.035-3.702 2.499l-0.010 0.027c0.115 0.079 0.25 0.125 0.351 0.224l4.508 4.254c0.526 0.505 0.852 1.215 0.852 2s-0.327 1.495-0.851 1.999l-0.001 0.001-3.148 2.972v6.024c0 1.105 0.895 2 2 2v0h4c1.105 0 2-0.895 2-2v0-8c1.105 0 2-0.895 2-2v0-6c0-2.209-1.791-4-4-4v0zM27.775 18.459l-4.508-4.254c-0.134-0.128-0.317-0.207-0.517-0.207-0.414 0-0.75 0.336-0.75 0.75 0 0.001 0 0.002 0 0.002v-0 2.25h-8v-2.25c0-0.001 0-0.002 0-0.003 0-0.414-0.336-0.75-0.75-0.75-0.201 0-0.383 0.079-0.518 0.207l0-0-4.508 4.254c-0.139 0.14-0.225 0.333-0.225 0.546s0.086 0.406 0.225 0.546l-0-0 4.508 4.254c0.134 0.128 0.317 0.207 0.518 0.207 0.414 0 0.75-0.336 0.75-0.75 0-0.001 0-0.002 0-0.004v0-2.259h8v2.259c0 0.001 0 0.002 0 0.003 0 0.414 0.336 0.75 0.75 0.75 0.201 0 0.383-0.079 0.518-0.207l-0 0 4.508-4.254c0.139-0.14 0.225-0.333 0.225-0.546s-0.086-0.406-0.225-0.546l0 0z"></path>
</svg>
