<!-- Generated by IcoMoon.io -->
<svg version="1.1" xmlns="http://www.w3.org/2000/svg" width="40" height="32" viewBox="0 0 40 32">
<title>people-carry</title>
<path d="M39.744 27.775l-3.263-7.331c1.212-1.375 1.563-3.012 1.212-4.525l-1.15-5.013c-0.313-1.356-1.206-2.5-2.4-3.194 1.531-1.5 1.775-3.775 0.712-5.537-0.931-1.538-2.5-2.175-3.856-2.175-2.075 0-3.869 1.406-4.369 3.425-0.219 0.881-0.387 3.256 1.831 4.775-1.081 0.825-1.925 1.906-2.462 3.156v-1.356c0-0.55-0.45-1-1-1h-10c-0.55 0-1 0.45-1 1v1.363c-0.531-1.25-1.375-2.331-2.463-3.156 2.213-1.519 2.050-3.888 1.831-4.775-0.494-2.025-2.294-3.431-4.369-3.431-1.362 0-2.925 0.644-3.85 2.169-1.063 1.756-0.825 4.031 0.713 5.537-1.194 0.7-2.087 1.838-2.4 3.194l-1.15 5.012c-0.344 1.506-0.013 3.144 1.212 4.525l-3.269 7.337c-0.669 1.506 0.013 3.288 1.519 3.956 1.813 0.8 3.431-0.325 3.962-1.519l1.856-4.169 0.431 3.331c0.069 0.538 0.813 2.881 3.331 2.594 1.669-0.219 2.831-1.725 2.625-3.363l-0.656-5.094c-0.1-0.794-0.438-1.538-0.969-2.137l-2.575-2.913 0.262-1.056c0.287 0.375 0.637 0.712 1.044 1.006 0.106 0.075-0.169-0.1 2.981 1.9 0.137 0.387 0.5 0.675 0.931 0.675h10c0.438 0 0.8-0.281 0.931-0.675 3.15-2.006 2.881-1.825 2.981-1.9 0.406-0.3 0.756-0.637 1.044-1.006l0.262 1.056-2.569 2.913c-0.531 0.6-0.869 1.344-0.969 2.137l-0.656 5.094c-0.212 1.637 0.95 3.144 2.625 3.363 2.531 0.288 3.256-2.044 3.331-2.594l0.431-3.331 1.856 4.169c0.531 1.194 2.15 2.319 3.962 1.519 1.5-0.675 2.181-2.45 1.513-3.956zM28.575 3.9c0.275-1.137 1.3-1.9 2.425-1.9 1.525 0 2.837 1.425 2.431 3.094-0.288 1.144-1.306 1.906-2.431 1.906-1.525 0-2.837-1.431-2.425-3.1zM9 2c1.125 0 2.144 0.763 2.425 1.9 0.419 1.7-0.925 3.1-2.425 3.1-1.125 0-2.144-0.763-2.425-1.9-0.419-1.7 0.925-3.1 2.425-3.1zM3.913 29.4c-0.225 0.506-0.813 0.731-1.319 0.506s-0.731-0.813-0.506-1.319l2.887-6.494 1.456 1.65zM16.856 18.531c-0.313 0.488-0.938 0.587-1.381 0.306l-3.194-2.031c-0.569-0.413-0.938-0.919-1.131-1.506l-0.706-2.112c-0.144-0.431-0.375-0.8-0.581-1.075-0.169-0.225-0.519-0.15-0.588 0.119l-1.694 6.769 3.275 3.706c0.262 0.3 0.431 0.675 0.488 1.069l0.656 5.094c0.069 0.538-0.306 1.050-0.844 1.119-0.881 0.113-1.119-0.688-1.137-0.863l-0.575-4.488c-0.050-0.394-0.219-0.769-0.488-1.069l-4.013-4.544c-0.644-0.725-0.894-1.719-0.675-2.663l1.15-5.012c0.219-0.938 0.875-1.731 1.763-2.113 1.438-0.619 2.569 0.131 2.606 0.15 1.213 0.713 2.119 1.838 2.563 3.169l0.731 2.181c0.113 0.144 0.219 0.281 0.331 0.425l3.137 1.987c0.462 0.294 0.606 0.913 0.306 1.381zM21.181 18.994h-2.356c0.456-1.288-0.012-2.762-1.206-3.531l-1.619-1.019v-3.444h8v3.438l-1.613 1.025c-1.2 0.762-1.663 2.244-1.206 3.531zM31.056 23.563c-0.262 0.3-0.431 0.669-0.488 1.069l-0.575 4.488c-0.025 0.175-0.262 0.975-1.137 0.863-0.538-0.069-0.913-0.575-0.844-1.119l0.656-5.094c0.050-0.394 0.219-0.769 0.488-1.069l3.275-3.706-1.694-6.762c-0.069-0.275-0.419-0.344-0.587-0.119-0.206 0.275-0.438 0.644-0.581 1.075l-0.706 2.112c-0.194 0.588-0.563 1.094-1.119 1.506l-3.194 2.031c-0.438 0.275-1.069 0.188-1.381-0.306-0.294-0.469-0.156-1.081 0.306-1.381l3.137-1.988c0.113-0.144 0.219-0.281 0.331-0.425l0.731-2.181c0.444-1.331 1.35-2.456 2.563-3.169 0.031-0.019 1.169-0.769 2.606-0.15 0.888 0.381 1.55 1.175 1.763 2.112l1.15 5.012c0.219 0.944-0.038 1.931-0.675 2.663zM37.406 29.906c-0.506 0.225-1.094 0-1.319-0.506l-2.519-5.663 1.456-1.65 2.888 6.494c0.225 0.506 0 1.1-0.506 1.325z"></path>
</svg>
