<!-- Generated by IcoMoon.io -->
<svg version="1.1" xmlns="http://www.w3.org/2000/svg" width="40" height="32" viewBox="0 0 40 32">
<title>people-carry-solid</title>
<path d="M8 6c1.656 0 3-1.344 3-3s-1.344-3-3-3-3 1.344-3 3 1.344 3 3 3zM32 6c1.656 0 3-1.344 3-3s-1.344-3-3-3-3 1.344-3 3 1.344 3 3 3zM39.856 29.256l-2.75-6.875-2.569 2.9-0.125 1.137 1.731 4.325c0.313 0.781 1.063 1.256 1.856 1.256 0.25 0 0.5-0.044 0.744-0.144 1.025-0.413 1.525-1.575 1.112-2.6zM37.719 16.144l-1.156-5.012c-0.288-1.25-1.163-2.3-2.344-2.806-1.156-0.5-2.438-0.419-3.506 0.206-1.419 0.838-2.481 2.156-3.006 3.713l-0.706 2.119-1 0.637v-6c0-0.55-0.45-1-1-1h-10c-0.55 0-1 0.45-1 1v6l-1.006-0.637-0.706-2.119c-0.519-1.563-1.588-2.875-3.006-3.713-1.075-0.625-2.35-0.706-3.506-0.206-1.181 0.506-2.056 1.556-2.344 2.806l-1.15 5.012c-0.288 1.25 0.044 2.575 0.9 3.544l4.2 4.744 0.631 5.788c0.113 1.019 0.975 1.781 1.988 1.781 0.075 0 0.144-0.006 0.219-0.012 1.1-0.119 1.887-1.106 1.769-2.206l-0.631-5.8c-0.094-0.813-0.431-1.569-0.975-2.188l-2.706-3.063 1.1-4.394 0.425 1.275c0.256 0.781 0.744 1.463 1.531 2.037l3.194 2.031c0.287 0.181 0.756 0.288 1.075 0.313h10c0.319-0.025 0.788-0.131 1.075-0.313l3.194-2.031c0.788-0.575 1.275-1.25 1.531-2.037l0.425-1.275 1.1 4.394-2.706 3.063c-0.544 0.619-0.881 1.375-0.975 2.188l-0.631 5.8c-0.119 1.1 0.675 2.087 1.769 2.206 0.075 0.006 0.144 0.012 0.219 0.012 1.006 0 1.875-0.756 1.988-1.781l0.631-5.788 4.2-4.744c0.85-0.969 1.188-2.294 0.9-3.544zM2.894 22.381l-2.75 6.875c-0.412 1.025 0.087 2.188 1.113 2.6 1.050 0.413 2.194-0.106 2.6-1.113l1.731-4.325-0.125-1.137-2.569-2.9z"></path>
</svg>
