<!-- Generated by IcoMoon.io -->
<svg version="1.1" xmlns="http://www.w3.org/2000/svg" width="32" height="32" viewBox="0 0 32 32">
<title>pepper-hot-solid</title>
<path d="M20.667 16.445v-5.607l-3.297-1.514c-3.655 4.349-5.021 15.676-13.87 15.676-1.933 0-3.5 1.567-3.5 3.5s1.567 3.5 3.5 3.5v0c13.29 0 23.166-7.679 26.199-13.146l-2.316-2.409zM28.86 8.422c2.010-3.74 0.964-6.767-0.196-8.234-0.092-0.114-0.232-0.186-0.389-0.186-0.139 0-0.266 0.057-0.356 0.149l-0 0-1.431 1.438c-0.089 0.091-0.145 0.216-0.145 0.353 0 0.107 0.033 0.206 0.090 0.288l-0.001-0.002c0.429 0.647 1.066 2.194-0.087 4.52-1.052-0.472-2.28-0.747-3.572-0.747h-0c-1.75 0-3.375 0.534-4.771 1.412l4.667 2.143v4.89h5.568l3.418 3.555c0.204-0.789 0.348-1.602 0.348-2.457 0-0.003 0-0.006 0-0.009 0-2.814-1.207-5.346-3.133-7.106l-0.007-0.007z"></path>
</svg>
