<!-- Generated by IcoMoon.io -->
<svg version="1.1" xmlns="http://www.w3.org/2000/svg" width="32" height="32" viewBox="0 0 32 32">
<title>pepper-hot</title>
<path d="M28.275 8.475c2.734-4.013 1.578-7.007 0.839-8.241-0.085-0.141-0.238-0.234-0.412-0.234-0.001 0-0.002 0-0.003 0h0c-0.136 0-0.259 0.056-0.348 0.145l-0.75 0.75c-0.087 0.089-0.141 0.211-0.141 0.346 0 0.088 0.023 0.17 0.063 0.241l-0.001-0.002c0.515 0.974 1.046 2.978-0.863 5.813-1.517-0.917-3.004-1.292-4.887-1.292-1.839 0-3.674 0.541-5.304 1.563-0.754 0.474-0.597 1.451 0.092 1.746-1.434 1.551-2.231 3.644-3 5.842-0.671 1.913-1.357 3.851-2.514 5.534-1.573 2.285-4.298 3.29-7.072 3.313-2.588 0.021-3.724 2.193-3.911 3.305-0.039 0.209-0.061 0.449-0.061 0.695 0 2.21 1.79 4.002 4 4.004h0c11.563 0 21.339-5.446 26.014-12.218 0.171 0.177 0.411 0.288 0.676 0.289h0c0.389 0 0.784-0.25 0.931-0.819 0.258-1.002 0.379-1.864 0.379-2.707-0-3.225-1.44-6.113-3.711-8.058l-0.014-0.012zM21.771 8c5.916 0 8.229 5.668 8.229 8.545 0 0.108 0 0.217-0.008 0.328l-1.742-1.81c-0.364-0.379-0.876-0.614-1.442-0.614-0 0-0 0-0 0h-3.808v-3.233c0-0.001 0-0.002 0-0.002 0-0.82-0.493-1.524-1.199-1.833l-0.013-0.005-2.351-1.005c0.697-0.232 1.499-0.368 2.333-0.37h0.001zM4 30c-0.875 0-2.236-0.78-1.969-2.364 0.044-0.261 0.482-1.625 1.955-1.637 3.724-0.029 6.897-1.552 8.704-4.178 1.321-1.918 2.082-4.089 2.754-6.006 1.504-4.289 2.27-4.806 3.029-5.625l2.527 1.025v3.232c0 1.105 0.895 2 2 2v0h3.809s0.914 0.994 1.765 1.901c-5.405 7.831-15.331 11.652-24.574 11.652z"></path>
</svg>
