<!-- Generated by IcoMoon.io -->
<svg version="1.1" xmlns="http://www.w3.org/2000/svg" width="24" height="32" viewBox="0 0 24 32">
<title>percentage-solid</title>
<path d="M6.828 10.828c1.562-1.562 1.562-4.095 0-5.657s-4.095-1.562-5.657 0c-1.562 1.562-1.562 4.095 0 5.657s4.095 1.563 5.657 0zM22.828 21.171c-1.562-1.562-4.095-1.562-5.657 0s-1.562 4.095 0 5.657c1.562 1.562 4.095 1.562 5.657 0s1.563-4.094 0-5.657zM22.707 6.707l-1.414-1.414c-0.781-0.781-2.047-0.781-2.828 0l-17.172 17.172c-0.781 0.781-0.781 2.047 0 2.828l1.414 1.414c0.781 0.781 2.047 0.781 2.828 0l17.172-17.172c0.781-0.781 0.781-2.047 0-2.828z"></path>
</svg>
