<!-- Generated by IcoMoon.io -->
<svg version="1.1" xmlns="http://www.w3.org/2000/svg" width="20" height="32" viewBox="0 0 20 32">
<title>percentage</title>
<path d="M19.854 8.268c0.195-0.195 0.195-0.512 0-0.707l-1.414-1.414c-0.195-0.195-0.512-0.195-0.707 0l-17.586 17.586c-0.195 0.195-0.195 0.512 0 0.707l1.414 1.414c0.195 0.195 0.512 0.195 0.707 0l17.586-17.586zM4 14c1.024 0 2.047-0.391 2.828-1.171 1.562-1.562 1.562-4.095 0-5.657-0.781-0.781-1.804-1.172-2.828-1.172s-2.047 0.391-2.829 1.172c-1.562 1.562-1.562 4.095 0 5.657 0.781 0.781 1.805 1.171 2.829 1.171zM2.586 8.586c0.377-0.377 0.879-0.586 1.414-0.586s1.036 0.208 1.414 0.586c0.78 0.78 0.779 2.049 0 2.828-0.378 0.378-0.88 0.586-1.414 0.586s-1.036-0.208-1.414-0.586c-0.78-0.78-0.78-2.049 0-2.829zM16 18c-1.024 0-2.047 0.391-2.829 1.172-1.562 1.562-1.562 4.095 0 5.657 0.781 0.781 1.805 1.171 2.829 1.171s2.047-0.391 2.828-1.171c1.562-1.562 1.562-4.095 0-5.657-0.781-0.781-1.804-1.172-2.828-1.172zM17.414 23.414c-0.378 0.378-0.88 0.586-1.414 0.586s-1.036-0.208-1.414-0.586c-0.78-0.78-0.78-2.049 0-2.829 0.377-0.378 0.88-0.586 1.414-0.586s1.036 0.208 1.414 0.586c0.78 0.78 0.779 2.049 0 2.829z"></path>
</svg>
