<!-- Generated by IcoMoon.io -->
<svg version="1.1" xmlns="http://www.w3.org/2000/svg" width="28" height="32" viewBox="0 0 28 32">
<title>percent-solid</title>
<path d="M7 14c3.869 0 7-3.131 7-7s-3.131-7-7-7-7 3.131-7 7 3.131 7 7 7zM7 4c1.656 0 3 1.344 3 3s-1.344 3-3 3-3-1.344-3-3 1.344-3 3-3zM21 18c-3.869 0-7 3.131-7 7s3.131 7 7 7 7-3.131 7-7-3.131-7-7-7zM21 28c-1.656 0-3-1.344-3-3s1.344-3 3-3 3 1.344 3 3-1.344 3-3 3zM24.519 0.013l1.975-0.006c1.212-0.006 1.931 1.363 1.231 2.362l-22.887 28.981c-0.274 0.387-0.72 0.637-1.225 0.637h-0l-2.087 0.006c-1.219 0-1.931-1.369-1.231-2.363l23-28.981c0.281-0.4 0.738-0.637 1.225-0.637z"></path>
</svg>
