<!-- Generated by IcoMoon.io -->
<svg version="1.1" xmlns="http://www.w3.org/2000/svg" width="24" height="32" viewBox="0 0 24 32">
<title>percent</title>
<path d="M6 14c3.313 0 6-2.688 6-6s-2.688-6-6-6-6 2.688-6 6 2.688 6 6 6zM6 4.25c2.069 0 3.75 1.681 3.75 3.75s-1.681 3.75-3.75 3.75-3.75-1.681-3.75-3.75 1.681-3.75 3.75-3.75zM18 18c-3.313 0-6 2.688-6 6s2.688 6 6 6 6-2.688 6-6-2.688-6-6-6zM18 27.75c-2.069 0-3.75-1.681-3.75-3.75s1.681-3.75 3.75-3.75 3.75 1.681 3.75 3.75-1.681 3.75-3.75 3.75zM21.738 2h1.887c0.313 0 0.488 0.356 0.3 0.6l-21.363 27.25c-0.069 0.094-0.181 0.15-0.3 0.15h-1.887c-0.313 0-0.487-0.356-0.3-0.6l21.363-27.25c0.069-0.094 0.181-0.15 0.3-0.15z"></path>
</svg>
