<!-- Generated by IcoMoon.io -->
<svg version="1.1" xmlns="http://www.w3.org/2000/svg" width="36" height="32" viewBox="0 0 36 32">
<title>person-booth</title>
<path d="M14.006 31.5c0 0.275 0.225 0.5 0.5 0.5h1c0.275 0 0.5-0.225 0.5-0.5v-11.5h-2v11.5zM34 0h-17.994c-1.106 0-2 0.894-2 2v8h2v-8l4.95 12.819c-0.337 1.325-1.469 5.825-1.469 7.319 0 2.131 1.731 3.863 3.856 3.863 0.769 0 1.5-0.244 2.125-0.663 0.575 0.413 1.275 0.663 2.031 0.663 0.981 0 1.863-0.406 2.5-1.056 0.637 0.65 1.519 1.056 2.5 1.056 0.538 0 1.044-0.131 1.5-0.35v5.85c0 0.275 0.225 0.5 0.5 0.5h1c0.275 0 0.5-0.225 0.5-0.5v-29.5c0-1.106-0.894-2-2-2zM23.344 24c-1.025 0-1.856-0.837-1.856-1.863 0-1.056 0.913-4.931 1.488-7.125 0.050-0.2 0.044-0.419-0.031-0.613l-4.762-12.4h5.825v20.5c0 0.438 0.087 0.85 0.238 1.231-0.281 0.163-0.575 0.269-0.9 0.269zM29 22.5c0 0.831-0.669 1.5-1.5 1.5s-1.5-0.669-1.5-1.5v-20.5h3v20.5zM34 22.5c0 0.831-0.669 1.5-1.5 1.5-0.825 0-1.5-0.669-1.5-1.5v-20.5h3v20.5zM15.006 12h-2.769l-2.531-2.537c-0.531-0.531-1.162-0.912-1.85-1.156 1.275-0.794 2.131-2.2 2.131-3.806 0-2.481-2.019-4.5-4.5-4.5s-4.5 2.019-4.5 4.5c0 1.638 0.887 3.063 2.2 3.85-0.638 0.25-1.225 0.619-1.725 1.119-0.944 0.944-1.462 2.206-1.456 3.544l0.006 5.988-0.013 9.994c0 1.656 1.344 3 2.994 3.006 1.594 0 2.9-1.244 3-2.813 0.1 1.569 1.4 2.813 2.994 2.813 1.656 0 3-1.344 3-3v-3.531c0-2.3-0.844-2.7-3-4.806v-3.488c0.694 0.525 1.55 0.819 2.425 0.819h3.6c1.656 0 3-1.344 3-3s-1.35-2.994-3.006-2.994zM2.987 4.5c0-1.381 1.119-2.5 2.5-2.5s2.5 1.119 2.5 2.5-1.119 2.5-2.5 2.5-2.5-1.119-2.5-2.5zM15.006 16h-3.6c-0.525 0-1.037-0.213-1.412-0.588l-3.013-3.013v9.106c2.631 2.575 3 2.631 3 3.962v3.531c0 0.55-0.45 1-1 1s-1-0.45-1-1c0-4.887 0.969-2.863-3.975-7.619l-0.006 7.619c0 0.55-0.45 1-1 1s-1-0.45-1-1l0.013-10-0.012-5.994c0-1.637 1.325-3.006 3-3.006h1.169c0.8 0 1.556 0.313 2.119 0.881l3.119 3.119h3.6c0.55 0 1 0.45 1 1s-0.444 1-1 1z"></path>
</svg>
