<!-- Generated by IcoMoon.io -->
<svg version="1.1" xmlns="http://www.w3.org/2000/svg" width="24" height="32" viewBox="0 0 24 32">
<title>person-carry</title>
<path d="M23 6h-10c-0.55 0-1 0.45-1 1v4.756l-3.294-3.294c-0.15-0.15-0.319-0.262-0.481-0.394 1.756-1.344 1.963-3.344 1.644-4.65-0.494-2.013-2.294-3.419-4.369-3.419-2.894 0-5.075 2.719-4.369 5.575 0.212 0.862 0.669 1.6 1.275 2.175-1.431 0.881-2.406 2.462-2.406 4.25v17c0 1.656 1.344 3 3 3s3-1.344 3-3v-4.125l0.225 0.194 0.819 4.469c0.275 1.488 1.738 2.738 3.5 2.406 1.606-0.294 2.706-1.844 2.4-3.488l-0.881-4.788c-0.213-1.144-0.813-2.194-1.7-2.944l-2.362-2.031v-2.45l1.756 1.756h13.244c0.55 0 1-0.45 1-1v-10c0-0.55-0.45-1-1-1zM5.5 2c1.125 0 2.144 0.763 2.425 1.906 0.419 1.694-0.925 3.094-2.425 3.094-1.125 0-2.144-0.763-2.425-1.906-0.419-1.694 0.925-3.094 2.425-3.094zM4 29c0 0.55-0.45 1-1 1s-1-0.45-1-1v-7.55l2 1.712v5.838zM10.588 16l-3.731-3.731c-0.1-0.1-0.225-0.15-0.35-0.15-0.256 0-0.506 0.2-0.506 0.5v6.994l3.075 2.631c0.537 0.456 0.9 1.094 1.031 1.788l0.881 4.787c0.1 0.544-0.262 1.063-0.8 1.163-0.063 0.012-0.125 0.019-0.181 0.019-0.475 0-0.894-0.337-0.981-0.819l-0.881-4.781c-0.044-0.244-0.175-0.469-0.362-0.631l-4.725-4.044c-0.675-0.581-1.056-1.406-1.056-2.288v-5.438c0-1.6 1.269-2.95 2.869-3h0.131c0.963 0 1.737 0.319 2.294 0.881l4.119 4.119h2.588c0.55 0 1 0.45 1 1s-0.45 1-1 1h-3.412zM22 16h-5.181c0.113-0.313 0.181-0.65 0.181-1 0-1.656-1.344-3-3-3v-4h8v8z"></path>
</svg>
