<!-- Generated by IcoMoon.io -->
<svg version="1.1" xmlns="http://www.w3.org/2000/svg" width="32" height="32" viewBox="0 0 32 32">
<title>person-sign-solid</title>
<path d="M9 6c1.656 0 3-1.344 3-3s-1.35-3-3-3-3 1.344-3 3 1.344 3 3 3zM31.344 4.162l-4.231-1.538 0.344-0.938c0.188-0.519-0.081-1.094-0.6-1.281l-0.938-0.344c-0.519-0.188-1.094 0.081-1.281 0.6l-0.344 0.938-4.225-1.538c-0.519-0.188-1.094 0.081-1.281 0.6l-2.738 7.519c-0.188 0.519 0.081 1.094 0.6 1.281l4.225 1.537-0.813 2.25-2.988-1-3.081-3.081c-0.756-0.756-1.756-1.175-2.825-1.175h-3.931c-1.525 0-2.894 0.85-3.575 2.212l-3.45 6.9c-0.494 0.988-0.094 2.188 0.894 2.681 0.287 0.144 0.594 0.212 0.894 0.212 0.731 0 1.438-0.406 1.788-1.106l1.212-2.419v3.425l-0.994 9.9c-0.106 1.1 0.694 2.081 1.787 2.188 0.069 0.006 0.138 0.012 0.2 0.012 1.013 0 1.881-0.769 1.987-1.8l0.825-8.2h0.956l2.237 4.469v3.531c0 1.106 0.894 2 2 2s2-0.894 2-2v-3.531c0-0.619-0.144-1.238-0.419-1.788l-2.575-5.156v-5.7l1.25 1.25c0.438 0.438 0.975 0.769 1.563 0.969l2.881 0.962-0.7 1.925c-0.188 0.519 0.081 1.094 0.6 1.281l0.938 0.344c0.519 0.188 1.094-0.081 1.281-0.6l2.887-7.931 4.225 1.537c0.519 0.188 1.094-0.081 1.281-0.6l2.725-7.519c0.194-0.519-0.075-1.087-0.594-1.281z"></path>
</svg>
