<!-- Generated by IcoMoon.io -->
<svg version="1.1" xmlns="http://www.w3.org/2000/svg" width="24" height="32" viewBox="0 0 24 32">
<title>person-carry-solid</title>
<path d="M0 29.994c0 1.106 0.894 2 2 2s2-0.894 2-2v-4.656c-1-0.856-3.962-3.413-4-3.444v8.1zM23 6h-10c-0.55 0-1 0.45-1 1v7h-1.588l-2.081-3.863c-0.694-1.319-2.050-2.138-3.537-2.138h-1.794c-1.656 0-3 1.344-3 3v6.438c0 1.169 0.512 2.275 1.4 3.038l4.75 4.069 0.881 5.781c0.063 0.356 0.631 1.919 2.3 1.644 1.088-0.181 1.825-1.212 1.644-2.3l-0.881-5.781c-0.156-0.925-0.631-1.769-1.344-2.381l-2.75-2.356v-4.894l2 3.744h15c0.55 0 1-0.45 1-1v-10c0-0.556-0.45-1-1-1zM5 6c1.656 0 3-1.344 3-3s-1.344-3-3-3-3 1.344-3 3 1.344 3 3 3z"></path>
</svg>
