<!-- Generated by IcoMoon.io -->
<svg version="1.1" xmlns="http://www.w3.org/2000/svg" width="32" height="32" viewBox="0 0 32 32">
<title>person-dolly</title>
<path d="M31.725 24.488c-0.069-0.269-0.344-0.425-0.613-0.356l-1.269 0.337-2.544-9.488c-0.288-1.069-1.381-1.7-2.45-1.412l-7.944 2.125c0.056-0.225 0.094-0.456 0.094-0.7 0-1.475-1.075-2.7-2.481-2.95l-1.519-5.675c-0.069-0.269-0.344-0.425-0.613-0.356l-0.969 0.256c-0.269 0.069-0.425 0.344-0.356 0.612l1.363 5.112h-0.188l-3.537-3.537c-0.15-0.15-0.319-0.262-0.481-0.394 0.444-0.338 0.825-0.75 1.125-1.244 0.625-1.025 0.806-2.237 0.519-3.406-0.488-2.006-2.287-3.413-4.362-3.413-1.356 0-2.925 0.644-3.85 2.169-0.625 1.025-0.806 2.238-0.519 3.406 0.212 0.862 0.669 1.6 1.275 2.175-1.431 0.881-2.406 2.462-2.406 4.25v17c0 1.656 1.344 3 3 3s3-1.344 3-3v-4.125l0.225 0.194 0.819 4.469c0.275 1.488 1.737 2.738 3.5 2.406 0.781-0.144 1.463-0.587 1.919-1.244 0.456-0.663 0.625-1.456 0.481-2.244l-0.881-4.787c-0.213-1.144-0.813-2.194-1.7-2.944l-2.362-2.031v-2.45l1.756 1.756h4.244c0.012 0 0.025-0.006 0.037-0.006l1.781 6.656c-1.094 0.712-1.819 1.944-1.819 3.35 0 2.206 1.794 4 4 4 1.981 0 3.613-1.444 3.931-3.337l9.7-2.6c0.269-0.069 0.425-0.344 0.356-0.613l-0.262-0.962zM5.5 2c1.125 0 2.144 0.763 2.425 1.906 0.419 1.694-0.925 3.094-2.425 3.094-1.125 0-2.144-0.763-2.425-1.906-0.419-1.694 0.925-3.094 2.425-3.094zM4 29c0 0.55-0.45 1-1 1s-1-0.45-1-1v-7.55l2 1.712v5.838zM10.588 16l-3.731-3.731c-0.1-0.1-0.225-0.15-0.35-0.15-0.256 0-0.506 0.2-0.506 0.5v6.994l3.075 2.631c0.537 0.456 0.9 1.094 1.031 1.788l0.881 4.787c0.1 0.544-0.262 1.063-0.8 1.163-0.063 0.012-0.125 0.019-0.181 0.019-0.475 0-0.894-0.337-0.981-0.819l-0.881-4.781c-0.044-0.244-0.175-0.469-0.362-0.631l-4.725-4.044c-0.675-0.581-1.056-1.406-1.056-2.288v-5.438c0-1.6 1.269-2.95 2.869-3h0.131c0.963 0 1.737 0.319 2.294 0.881l4.119 4.119h2.588c0.55 0 1 0.45 1 1s-0.45 1-1 1h-3.412zM18 30c-1.1 0-2-0.9-2-2s0.9-2 2-2 2 0.9 2 2-0.9 2-2 2zM21.75 26.637c-0.556-1.538-2.019-2.644-3.75-2.644-0.094 0-0.181 0.019-0.275 0.025l-1.619-6.038 9.262-2.481 2.544 9.488-6.163 1.65z"></path>
</svg>
