<!-- Generated by IcoMoon.io -->
<svg version="1.1" xmlns="http://www.w3.org/2000/svg" width="32" height="32" viewBox="0 0 32 32">
<title>person-dolly-solid</title>
<path d="M20.694 22.531c0.144 0.531 0.694 0.85 1.225 0.706l7.313-1.956c0.531-0.144 0.85-0.694 0.706-1.225l-1.962-7.306c-0.144-0.531-0.694-0.85-1.225-0.706l-7.313 1.956c-0.531 0.144-0.85 0.694-0.706 1.225l1.962 7.306zM0 29.994c0 1.106 0.894 2 2 2s2-0.894 2-2v-4.656c-1-0.856-3.969-3.413-4-3.444v8.1zM31.462 23.363c-0.069-0.269-0.344-0.425-0.613-0.356l-9.631 2.581c-0.613-0.806-1.512-1.369-2.556-1.531l-3.713-13.85c-0.069-0.269-0.344-0.425-0.613-0.356l-1.931 0.519c-0.269 0.069-0.425 0.344-0.356 0.613l0.806 3.013h-2.438l-2.081-3.863c-0.694-1.319-2.050-2.138-3.544-2.138h-1.794c-1.656 0-3 1.344-3 3v6.438c0 1.169 0.512 2.275 1.4 3.038l4.75 4.069 0.881 5.781c0.063 0.356 0.631 1.919 2.3 1.644 1.088-0.181 1.825-1.212 1.644-2.3l-0.881-5.781c-0.156-0.925-0.631-1.769-1.344-2.381l-2.75-2.356v-4.894l2 3.744h5.925l1.806 6.738c-1.025 0.725-1.7 1.913-1.7 3.262 0 2.206 1.794 4 4 4 2.044 0 3.706-1.531 3.95-3.506l9.637-2.581c0.269-0.069 0.425-0.344 0.356-0.613l-0.512-1.931zM18.038 28.994c-0.55 0-1-0.45-1-1s0.45-1 1-1 1 0.45 1 1-0.444 1-1 1zM5 6c1.656 0 3-1.344 3-3s-1.338-3-3-3-3 1.344-3 3 1.344 3 3 3z"></path>
</svg>
