<!-- Generated by IcoMoon.io -->
<svg version="1.1" xmlns="http://www.w3.org/2000/svg" width="32" height="32" viewBox="0 0 32 32">
<title>person-sign</title>
<path d="M31.344 4.162l-4.481-1.631 0.594-1.45c0.106-0.256-0.012-0.55-0.269-0.656l-0.925-0.388c-0.256-0.106-0.55 0.012-0.656 0.269l-0.625 1.544-4.912-1.788c-0.556-0.2-1.125 0.169-1.281 0.6l-2.281 6.275c-0.188 0.519 0.075 1.094 0.6 1.281l4.6 1.675-1.406 3.463c-0.231-0.113-0.456-0.244-0.719-0.3l-3.731-0.744-0.631-1.006c-0.744-1.188-1.8-2.094-3.025-2.656 0.8-0.813 1.294-1.925 1.294-3.15 0-2.481-2.019-4.5-4.5-4.5s-4.487 2.019-4.487 4.5c0 1.3 0.563 2.463 1.444 3.287-1.425 0.706-2.619 1.856-3.362 3.344l-2.269 4.525c-0.738 1.481-0.138 3.288 1.344 4.025 0.044 0.019 1.656 0.881 3.188-0.313l-1.775 7.981c-0.356 1.613 0.663 3.219 2.275 3.581 0.225 0.050 0.438 0.069 0.65 0.069 1.394 0 2.625-0.988 2.925-2.35l1.075-4.844 0.994 1.244v2.95c0 1.656 1.344 3 3 3s3-1.344 3-3v-3.3c0-1.131-0.387-2.238-1.094-3.125l-2.906-3.631v-1.269c0.394 0.2 0.819 0.344 1.256 0.431l3.8 0.762-0.019 0.050c-0.106 0.256 0.012 0.55 0.269 0.656l0.925 0.387c0.256 0.106 0.55-0.012 0.656-0.269l0.419-1.038c0.813-0.4 1.444-1.131 1.637-2.069 0.113-0.55 0.056-1.113-0.131-1.625l1.788-4.387 4.787 1.744c0.556 0.206 1.125-0.175 1.281-0.6l2.281-6.275c0.194-0.519-0.075-1.088-0.594-1.281zM8.994 3c1.381 0 2.5 1.119 2.5 2.5s-1.119 2.5-2.5 2.5-2.5-1.119-2.5-2.5 1.119-2.5 2.5-2.5zM18.819 16.981h-0.025l-4.15-0.831c-0.806-0.162-1.519-0.656-1.956-1.35-0.912-1.456-1.019-1.75-1.694-2.225v7.075l3.344 4.181c0.425 0.531 0.656 1.194 0.656 1.875v3.294c0 0.55-0.45 1-1 1s-1-0.45-1-1v-3.3c0-0.225-0.075-0.45-0.219-0.625l-3.262-4.075h-0.719l-1.825 8.219c-0.106 0.481-0.6 0.887-1.194 0.762-0.537-0.119-0.881-0.656-0.763-1.194l1.975-8.894v-7.019c-0.331 0.294-0.631 0.625-0.838 1.044l-2.263 4.531c-0.194 0.387-0.756 0.744-1.344 0.45-0.494-0.25-0.694-0.85-0.45-1.344l2.263-4.531c0.931-1.863 2.806-3.025 4.888-3.025 1.75 0 3.344 0.887 4.269 2.369l0.856 1.369c0.144 0.231 0.381 0.394 0.65 0.45l4.15 0.831c0.137 0.025 0.262 0.081 0.369 0.156l-0.719 1.806zM28.119 10.1l-9.394-3.419 1.6-4.4 9.394 3.419-1.6 4.4z"></path>
</svg>
