<!-- Generated by IcoMoon.io -->
<svg version="1.1" xmlns="http://www.w3.org/2000/svg" width="28" height="32" viewBox="0 0 28 32">
<title>phone-square-alt-solid</title>
<path d="M25 2h-22c-1.657 0-3 1.343-3 3v0 22c0 1.657 1.343 3 3 3v0h22c1.657 0 3-1.343 3-3v0-22c0-1.657-1.343-3-3-3v0zM23.976 21.211l-0.938 4.063c-0.099 0.419-0.47 0.727-0.913 0.727h-0c-10 0-18.125-8.107-18.125-18.125 0.016-0.437 0.316-0.8 0.72-0.912l0.007-0.002 4.063-0.938c0.063-0.014 0.135-0.023 0.209-0.024l0.001-0c0.378 0.020 0.7 0.243 0.859 0.562l0.003 0.006 1.875 4.375c0.044 0.109 0.071 0.235 0.076 0.368l0 0.002c-0.016 0.288-0.145 0.544-0.343 0.725l-0.001 0.001-2.368 1.938c1.464 3.054 3.87 5.46 6.837 6.886l0.087 0.038 1.938-2.368c0.182-0.199 0.437-0.327 0.723-0.344l0.003-0c0.134 0.004 0.26 0.032 0.377 0.078l-0.008-0.003 4.375 1.875c0.325 0.162 0.549 0.483 0.568 0.859l0 0.002c-0.001 0.075-0.010 0.148-0.026 0.218l0.001-0.007z"></path>
</svg>
