<!-- Generated by IcoMoon.io -->
<svg version="1.1" xmlns="http://www.w3.org/2000/svg" width="28" height="32" viewBox="0 0 28 32">
<title>phone-square</title>
<path d="M25 2h-22c-1.657 0-3 1.343-3 3v22c0 1.657 1.343 3 3 3h22c1.657 0 3-1.343 3-3v-22c0-1.657-1.343-3-3-3zM26 27c0 0.551-0.449 1-1 1h-22c-0.551 0-1-0.449-1-1v-22c0-0.551 0.449-1 1-1h22c0.551 0 1 0.449 1 1v22zM22.571 6.891l-3.656-0.843c-0.125-0.030-0.268-0.048-0.416-0.048-0.756 0-1.405 0.455-1.689 1.106l-0.005 0.012-1.688 3.937c-0.322 0.751-0.105 1.636 0.527 2.153l1.508 1.234c-1.114 1.994-2.717 3.597-4.65 4.68l-0.061 0.031-1.234-1.508c-0.517-0.632-1.402-0.849-2.153-0.527l-3.937 1.687c-0.821 0.352-1.271 1.239-1.070 2.109l0.843 3.656c0.194 0.841 0.933 1.429 1.796 1.429 9.565 0 17.313-7.739 17.313-17.313 0-0.864-0.588-1.602-1.429-1.797zM6.812 24l-0.786-3.407 3.709-1.59 2.163 2.643c3.868-1.815 5.887-3.78 7.748-7.748l-2.643-2.163 1.59-3.709 3.407 0.786c-0.066 8.357-6.816 15.122-15.188 15.188z"></path>
</svg>
