<!-- Generated by IcoMoon.io -->
<svg version="1.1" xmlns="http://www.w3.org/2000/svg" width="28" height="32" viewBox="0 0 28 32">
<title>phone-square-solid</title>
<path d="M25 2h-22c-1.657 0-3 1.343-3 3v22c0 1.657 1.343 3 3 3h22c1.657 0 3-1.343 3-3v-22c0-1.657-1.343-3-3-3zM5.875 26c-0.44 0-0.816-0.305-0.913-0.727l-0.937-4.063c-0.015-0.063-0.024-0.136-0.024-0.211 0-0.384 0.231-0.715 0.562-0.859l0.006-0.002 4.375-1.875c0.109-0.048 0.236-0.076 0.369-0.076 0.292 0 0.552 0.133 0.724 0.342l0.001 0.002 1.937 2.368c3.059-1.435 5.519-3.929 6.924-6.924l-2.368-1.937c-0.211-0.173-0.344-0.434-0.344-0.726 0-0.133 0.028-0.26 0.078-0.375l-0.002 0.006 1.875-4.375c0.147-0.337 0.477-0.568 0.862-0.568 0.075 0 0.147 0.009 0.217 0.025l-0.006-0.001 4.063 0.937c0.419 0.099 0.727 0.47 0.727 0.913 0 0 0 0 0 0v0c0 10.018-8.122 18.125-18.125 18.125z"></path>
</svg>
