<!-- Generated by IcoMoon.io -->
<svg version="1.1" xmlns="http://www.w3.org/2000/svg" width="32" height="32" viewBox="0 0 32 32">
<title>phone-alt-solid</title>
<path d="M31.087 22.613l-7-3c-0.173-0.076-0.376-0.12-0.588-0.12-0.467 0-0.885 0.214-1.16 0.549l-0.002 0.003-3.1 3.788c-4.885-2.34-8.734-6.189-11.014-10.935l-0.060-0.139 3.787-3.1c0.338-0.277 0.552-0.694 0.552-1.161 0-0.213-0.044-0.415-0.125-0.599l0.004 0.010-3-7c-0.239-0.538-0.768-0.906-1.384-0.906-0.119 0-0.234 0.014-0.345 0.040l0.010-0.002-6.5 1.5c-0.671 0.159-1.163 0.753-1.163 1.462 0 0 0 0 0 0v-0c0 16.031 12.994 29 29 29 0 0 0.001 0 0.001 0 0.709 0 1.303-0.492 1.459-1.152l0.002-0.010 1.5-6.5c0.023-0.1 0.037-0.215 0.037-0.333 0-0.619-0.371-1.152-0.903-1.388l-0.010-0.004z"></path>
</svg>
