<!-- Generated by IcoMoon.io -->
<svg version="1.1" xmlns="http://www.w3.org/2000/svg" width="40" height="32" viewBox="0 0 40 32">
<title>phone-laptop</title>
<path d="M38 8h-12c-1.105 0-2 0.895-2 2v0 20c0 1.105 0.895 2 2 2v0h12c1.105 0 2-0.895 2-2v0-20c0-1.105-0.895-2-2-2v0zM38 30h-12v-20h12zM6 2h24v4h2v-4c0-1.105-0.895-2-2-2v0h-24c-1.105 0-2 0.895-2 2v0 16h-3c-0.552 0-1 0.448-1 1v0 1c0.005 2.205 1.79 3.992 3.994 4h18.006v-2h-18.006c-1.102-0.003-1.994-0.897-1.994-2 0 0 0 0 0 0v0h20v-2h-16z"></path>
</svg>
