<!-- Generated by IcoMoon.io -->
<svg version="1.1" xmlns="http://www.w3.org/2000/svg" width="32" height="32" viewBox="0 0 32 32">
<title>phone-rotary-solid</title>
<path d="M23.152 12.016c-0.702-1.213-1.994-2.016-3.473-2.016-0 0-0 0-0 0h-7.357c0 0-0 0-0 0-1.479 0-2.771 0.803-3.463 1.996l-0.010 0.019-6.584 11.523c-0.166 0.285-0.264 0.627-0.264 0.992v0 3.469c0 1.105 0.895 2 2 2v0h24c1.105 0 2-0.895 2-2v0-3.469c-0-0.365-0.098-0.707-0.269-1.002l0.005 0.010zM16 24c-2.485 0-4.5-2.015-4.5-4.5s2.015-4.5 4.5-4.5c2.485 0 4.5 2.015 4.5 4.5v0c0 2.485-2.015 4.5-4.5 4.5v0zM31.636 7.688c-4.339-3.625-9.925-5.688-15.636-5.688s-11.297 2.063-15.636 5.688c-0.223 0.19-0.364 0.471-0.364 0.785 0 0.002 0 0.004 0 0.006v-0 3.523c0 0.552 0.448 1 1 1v0h4.382c0.389-0 0.727-0.223 0.892-0.547l0.003-0.006 1.724-4.447c2.494-1.080 5.2-1.5 8-1.5 2.798 0 5.504 0.42 8 1.5l1.724 4.447c0.168 0.331 0.505 0.553 0.894 0.553h4.382c0.552 0 1-0.448 1-1v0-3.522c0-0.002 0-0.003 0-0.005 0-0.314-0.141-0.595-0.362-0.783l-0.001-0.001z"></path>
</svg>
