<!-- Generated by IcoMoon.io -->
<svg version="1.1" xmlns="http://www.w3.org/2000/svg" width="40" height="32" viewBox="0 0 40 32">
<title>phone-slash</title>
<path d="M39.813 30.325l-38.375-30.212c-0.212-0.175-0.531-0.138-0.7 0.075l-0.625 0.781c-0.175 0.219-0.138 0.531 0.075 0.706l38.375 30.219c0.212 0.175 0.531 0.137 0.7-0.075l0.625-0.781c0.175-0.225 0.138-0.538-0.075-0.712zM26.975 13c-0.55 1.113-1.188 2.169-1.913 3.169l1.538 1.212c1.025-1.444 1.962-3.056 2.85-4.938l-4.55-3.719 2.875-6.713 6.225 1.438c-0.006 5.875-1.944 11.287-5.175 15.687l1.569 1.238c3.506-4.756 5.606-10.6 5.606-16.969 0-0.913-0.625-1.7-1.513-1.9l-6.3-1.456c-0.919-0.212-1.863 0.263-2.238 1.131l-2.906 6.781c-0.344 0.794-0.113 1.731 0.556 2.281l3.375 2.756zM7.444 30l-1.438-6.225 6.713-2.875 3.719 4.55c2.381-1.119 4.35-2.3 6.050-3.669l-1.613-1.275c-1.2 0.944-2.494 1.781-3.875 2.462l-2.756-3.369c-0.55-0.669-1.488-0.9-2.281-0.556l-6.781 2.913c-0.869 0.375-1.344 1.313-1.131 2.231l1.45 6.294c0.206 0.894 0.987 1.512 1.9 1.512 7.256 0 13.875-2.731 18.925-7.194l-1.594-1.25c-4.637 4.006-10.675 6.444-17.288 6.45z"></path>
</svg>
