<!-- Generated by IcoMoon.io -->
<svg version="1.1" xmlns="http://www.w3.org/2000/svg" width="28" height="32" viewBox="0 0 28 32">
<title>phone-volume</title>
<path d="M9.681 11.738c0.919 0.094 1.794-0.438 2.138-1.294l2.031-5.063c0.375-0.931 0.025-1.994-0.831-2.531l-4.063-2.531c-0.825-0.512-1.881-0.394-2.569 0.294-8.531 8.512-8.512 22.288 0 30.781 0.688 0.687 1.744 0.806 2.569 0.294l4.063-2.531c0.856-0.531 1.2-1.594 0.831-2.531l-2.031-5.063c-0.344-0.85-1.219-1.381-2.137-1.294l-2.7 0.269c-0.906-2.95-0.906-6.119 0-9.069zM5.612 22.681l4.275-0.425c0.031-0.006 0.063 0.012 0.075 0.044l2.031 5.063c0.012 0.031 0 0.069-0.031 0.087l-4.063 2.531c-0.031 0.019-0.069 0.012-0.094-0.012-7.744-7.719-7.737-20.225 0-27.944 0.025-0.025 0.063-0.031 0.094-0.013l4.063 2.531c0.031 0.019 0.044 0.056 0.031 0.088l-2.031 5.062c-0.012 0.031-0.044 0.050-0.075 0.044l-4.275-0.425c-1.794 4.944-1.725 8.619 0 13.369zM18.262 5.806l-0.375 0.356c-0.244 0.231-0.3 0.6-0.144 0.9 0.306 0.588 0.306 1.288 0 1.869-0.156 0.3-0.1 0.669 0.144 0.9l0.375 0.356c0.35 0.338 0.925 0.256 1.169-0.162 0.738-1.25 0.738-2.813 0-4.069-0.244-0.406-0.813-0.487-1.169-0.15zM22.313 3.075c-0.275-0.35-0.794-0.394-1.119-0.081l-0.363 0.35c-0.275 0.263-0.313 0.694-0.081 0.994 1.656 2.162 1.656 5.162 0 7.319-0.231 0.3-0.194 0.731 0.081 0.994l0.363 0.35c0.325 0.306 0.844 0.269 1.119-0.081 2.256-2.887 2.256-6.944 0-9.844zM25.181 0.269c-0.281-0.331-0.781-0.356-1.1-0.056l-0.363 0.35c-0.288 0.275-0.313 0.719-0.056 1.025 3.106 3.719 3.1 9.119 0 12.838-0.25 0.3-0.225 0.75 0.056 1.025l0.363 0.35c0.313 0.3 0.819 0.275 1.1-0.056 3.762-4.487 3.756-11.006 0-15.475z"></path>
</svg>
