<!-- Generated by IcoMoon.io -->
<svg version="1.1" xmlns="http://www.w3.org/2000/svg" width="40" height="32" viewBox="0 0 40 32">
<title>phone-laptop-solid</title>
<path d="M37.75 8h-11.5c-1.243 0-2.25 1.007-2.25 2.25v0 19.5c0 1.243 1.007 2.25 2.25 2.25v0h11.5c1.243 0 2.25-1.007 2.25-2.25v0-19.5c0-1.243-1.007-2.25-2.25-2.25v0zM36 28h-8v-16h8zM8 4h20v2h4v-3c-0.004-1.653-1.341-2.993-2.994-3h-22.012c-1.653 0.007-2.991 1.347-2.994 3v15h-3c-0.552 0-1 0.448-1 1v0 1c0.005 2.205 1.79 3.992 3.994 4h18.006v-6h-14z"></path>
</svg>
