<!-- Generated by IcoMoon.io -->
<svg version="1.1" xmlns="http://www.w3.org/2000/svg" width="28" height="32" viewBox="0 0 28 32">
<title>phone-square-alt</title>
<path d="M25 2h-22c-1.657 0-3 1.343-3 3v0 22c0 1.657 1.343 3 3 3v0h22c1.657 0 3-1.343 3-3v0-22c0-1.657-1.343-3-3-3v0zM26 27c0 0.552-0.448 1-1 1v0h-22c-0.552 0-1-0.448-1-1v0-22c0-0.552 0.448-1 1-1v0h22c0.552 0 1 0.448 1 1v0zM22.882 18.805l-3.938-1.688c-0.214-0.093-0.462-0.147-0.724-0.147-0.574 0-1.087 0.261-1.427 0.671l-0.002 0.003-1.234 1.508c-1.676-0.924-3.787-3.035-4.711-4.711l1.508-1.234c0.413-0.342 0.674-0.856 0.674-1.43 0-0.261-0.054-0.51-0.152-0.735l0.005 0.012-1.688-3.938c-0.264-0.617-1.023-1.117-1.694-1.117-0.149 0.003-0.292 0.020-0.43 0.050l0.015-0.003-3.656 0.843c-0.824 0.192-1.428 0.92-1.428 1.79 0 0.002 0 0.005 0 0.007v-0c0 9.574 7.75 17.313 17.313 17.313 0.002 0 0.005 0 0.007 0 0.87 0 1.598-0.605 1.787-1.417l0.002-0.012 0.844-3.656c0.030-0.125 0.047-0.268 0.047-0.415 0-0.756-0.455-1.405-1.106-1.69l-0.012-0.005zM21.188 24c-8.371-0.067-15.121-6.832-15.188-15.188l3.407-0.786 1.593 3.708-2.643 2.163c1.862 3.968 3.88 5.933 7.75 7.75l2.158-2.648 3.709 1.589z"></path>
</svg>
