<!-- Generated by IcoMoon.io -->
<svg version="1.1" xmlns="http://www.w3.org/2000/svg" width="32" height="32" viewBox="0 0 32 32">
<title>phone-alt</title>
<path d="M30.818 21.956l-6.774-2.906c-0.227-0.099-0.491-0.157-0.769-0.157-0.607 0-1.15 0.276-1.51 0.71l-0.003 0.003-2.756 3.369c-4.354-2.174-7.801-5.621-9.918-9.849l-0.057-0.126 3.369-2.756c0.437-0.362 0.713-0.905 0.713-1.512 0-0.278-0.058-0.542-0.162-0.781l0.005 0.013-2.906-6.781c-0.308-0.701-0.997-1.181-1.797-1.181-0.156 0-0.308 0.018-0.453 0.053l0.013-0.003-6.3 1.456c-0.872 0.202-1.512 0.973-1.512 1.893 0 0.003 0 0.005 0 0.008v-0c0 15.831 12.831 28.593 28.593 28.593 0.001 0 0.002 0 0.004 0 0.924 0 1.699-0.643 1.901-1.506l0.003-0.013 1.449-6.294c0.032-0.132 0.050-0.283 0.050-0.439 0-0.799-0.481-1.486-1.169-1.788l-0.013-0.005zM28.556 30c-14.656-0.019-26.537-11.894-26.549-26.549l6.225-1.438 2.875 6.712-4.55 3.719c3.025 6.45 6.531 9.969 13.006 13.006l3.719-4.55 6.712 2.875z"></path>
</svg>
