<!-- Generated by IcoMoon.io -->
<svg version="1.1" xmlns="http://www.w3.org/2000/svg" width="32" height="32" viewBox="0 0 32 32">
<title>phone-rotary</title>
<path d="M16 15c-2.761 0-5 2.239-5 5s2.239 5 5 5c2.761 0 5-2.239 5-5v0c0-2.761-2.239-5-5-5v0zM16 23c-1.657 0-3-1.343-3-3s1.343-3 3-3c1.657 0 3 1.343 3 3v0c-0.002 1.656-1.344 2.998-3 3h-0zM23.152 12.016c-0.702-1.213-1.994-2.016-3.473-2.016-0 0-0 0-0 0h-7.357c0 0-0 0-0 0-1.479 0-2.771 0.803-3.463 1.996l-0.010 0.019-6.585 11.523c-0.165 0.285-0.263 0.627-0.263 0.992 0 0 0 0.001 0 0.001v-0 3.469c0 1.105 0.895 2 2 2v0h24c1.105 0 2-0.895 2-2v0-3.469c0-0 0-0.001 0-0.001 0-0.365-0.098-0.707-0.268-1.001l0.005 0.010zM28 28h-24v-3.469l6.585-11.524c0.352-0.606 0.997-1.006 1.736-1.008h7.358c0.739 0.001 1.384 0.402 1.731 0.998l0.005 0.010 6.585 11.524zM31.267 7.388c-4.284-3.437-9.716-5.388-15.267-5.388s-10.982 1.951-15.267 5.388c-0.449 0.372-0.733 0.929-0.733 1.553 0 0.005 0 0.011 0 0.016v-0.001 4.044c0 0.552 0.448 1 1 1v0h4.382c0.389-0 0.727-0.223 0.892-0.547l0.003-0.006 1.724-3.947c2.494-1.080 5.202-1.5 8-1.5s5.505 0.42 8 1.5l1.724 3.947c0.168 0.331 0.505 0.553 0.894 0.553h4.382c0.552 0 1-0.448 1-1v0-4.044c0-0.005 0-0.010 0-0.015 0-0.624-0.284-1.181-0.73-1.55l-0.003-0.003zM30 12h-2.726l-1.442-3.301-0.313-0.722-0.723-0.313c-2.589-1.121-5.466-1.665-8.797-1.665s-6.207 0.544-8.794 1.664l-0.723 0.313-0.313 0.722-1.444 3.301h-2.729l-0.011-3.053c3.802-3.071 8.689-4.934 14.012-4.947h0.003c5.323 0.010 10.207 1.877 14.042 4.988l-0.042-0.033z"></path>
</svg>
