<!-- Generated by IcoMoon.io -->
<svg version="1.1" xmlns="http://www.w3.org/2000/svg" width="32" height="32" viewBox="0 0 32 32">
<title>phone</title>
<path d="M30.488 1.506l-6.3-1.456c-0.919-0.212-1.863 0.263-2.238 1.131l-2.906 6.781c-0.344 0.794-0.113 1.731 0.556 2.281l3.369 2.756c-2.125 4.325-5.644 7.85-9.975 9.975l-2.756-3.369c-0.55-0.669-1.488-0.9-2.281-0.556l-6.775 2.906c-0.869 0.375-1.344 1.313-1.131 2.231l1.45 6.294c0.206 0.894 0.994 1.519 1.906 1.519 15.762 0 28.594-12.762 28.594-28.594 0-0.913-0.625-1.7-1.512-1.9zM3.444 30l-1.438-6.225 6.713-2.875 3.719 4.55c6.475-3.038 9.981-6.556 13.006-13.006l-4.55-3.719 2.875-6.713 6.225 1.438c-0.012 14.656-11.894 26.531-26.55 26.55z"></path>
</svg>
