<!-- Generated by IcoMoon.io -->
<svg version="1.1" xmlns="http://www.w3.org/2000/svg" width="24" height="32" viewBox="0 0 24 32">
<title>phone-volume-solid</title>
<path d="M6.083 31.685c-8.117-8.117-8.105-21.266 0-29.371 0.356-0.356 0.908-0.414 1.329-0.151l4.051 2.532c0.305 0.193 0.505 0.529 0.505 0.911 0 0.144-0.028 0.281-0.079 0.406l0.003-0.007-2.025 5.064c-0.163 0.399-0.548 0.675-0.997 0.675-0.038 0-0.075-0.002-0.111-0.006l0.005 0-3.488-0.349c-1.316 3.641-1.288 7.654 0 11.22l3.488-0.349c0.032-0.003 0.069-0.005 0.107-0.005 0.45 0 0.835 0.276 0.995 0.668l0.003 0.007 2.025 5.064c0.049 0.118 0.077 0.255 0.077 0.399 0 0.382-0.2 0.718-0.5 0.908l-0.004 0.003-4.051 2.532c-0.162 0.102-0.358 0.163-0.569 0.163-0.297 0-0.565-0.12-0.76-0.315v0zM15.445 5.967c0.74 1.253 0.74 2.813 0 4.066-0.247 0.418-0.819 0.497-1.17 0.161l-0.373-0.358c-0.244-0.234-0.3-0.601-0.141-0.901 0.146-0.271 0.232-0.593 0.232-0.936s-0.086-0.665-0.237-0.946l0.005 0.011c-0.158-0.299-0.103-0.666 0.141-0.901l0.373-0.358c0.351-0.336 0.923-0.257 1.17 0.161zM21.182 0.268c3.759 4.475 3.756 10.993 0 15.464-0.28 0.333-0.783 0.359-1.097 0.058l-0.362-0.347c-0.285-0.273-0.311-0.721-0.058-1.024 3.105-3.721 3.103-9.121 0-12.839-0.253-0.303-0.227-0.75 0.058-1.024l0.362-0.347c0.314-0.301 0.817-0.275 1.097 0.058zM18.309 3.077c2.253 2.895 2.257 6.947 0 9.847-0.274 0.353-0.794 0.391-1.116 0.082l-0.364-0.349c-0.275-0.264-0.312-0.693-0.080-0.996 1.659-2.16 1.658-5.161 0-7.321-0.232-0.302-0.195-0.732 0.080-0.996l0.364-0.349c0.322-0.309 0.842-0.271 1.116 0.082z"></path>
</svg>
