<!-- Generated by IcoMoon.io -->
<svg version="1.1" xmlns="http://www.w3.org/2000/svg" width="32" height="32" viewBox="0 0 32 32">
<title>phone-plus-solid</title>
<path d="M30.837 1.538l-6.5-1.5c-0.706-0.163-1.431 0.206-1.719 0.869l-3 7c-0.262 0.613-0.087 1.331 0.431 1.75l3.788 3.1c-2.25 4.794-6.181 8.781-11.075 11.075l-3.1-3.788c-0.425-0.519-1.137-0.694-1.75-0.431l-7 3c-0.669 0.294-1.038 1.019-0.875 1.725l1.5 6.5c0.156 0.675 0.756 1.163 1.462 1.163 16.006 0 29-12.969 29-29 0-0.7-0.481-1.306-1.163-1.462zM1 9h4v4c0 0.55 0.45 1 1 1h2c0.55 0 1-0.45 1-1v-4h4c0.55 0 1-0.45 1-1v-2c0-0.55-0.45-1-1-1h-4v-4c0-0.55-0.45-1-1-1h-2c-0.55 0-1 0.45-1 1v4h-4c-0.55 0-1 0.45-1 1v2c0 0.55 0.45 1 1 1z"></path>
</svg>
