<!-- Generated by IcoMoon.io -->
<svg version="1.1" xmlns="http://www.w3.org/2000/svg" width="36" height="32" viewBox="0 0 36 32">
<title>phone-office-solid</title>
<path d="M8 26h4c1.104 0 2-0.896 2-2v-22c0-1.104-0.896-2-2-2h-4c-1.104 0-2 0.896-2 2v22c0 1.104 0.896 2 2 2zM33 2h-17v22c0 2.206-1.794 4-4 4h-4c-2.206 0-4-1.794-4-4v-22h-1c-1.657 0-3 1.343-3 3v24c0 1.657 1.343 3 3 3h30c1.657 0 3-1.343 3-3v-24c0-1.657-1.343-3-3-3zM24 27c0 0.552-0.448 1-1 1h-2c-0.552 0-1-0.448-1-1v-2c0-0.552 0.448-1 1-1h2c0.552 0 1 0.448 1 1v2zM24 19c0 0.552-0.448 1-1 1h-2c-0.552 0-1-0.448-1-1v-2c0-0.552 0.448-1 1-1h2c0.552 0 1 0.448 1 1v2zM32 27c0 0.552-0.448 1-1 1h-2c-0.552 0-1-0.448-1-1v-2c0-0.552 0.448-1 1-1h2c0.552 0 1 0.448 1 1v2zM32 19c0 0.552-0.448 1-1 1h-2c-0.552 0-1-0.448-1-1v-2c0-0.552 0.448-1 1-1h2c0.552 0 1 0.448 1 1v2zM32 12h-12v-6h12v6z"></path>
</svg>
