<!-- Generated by IcoMoon.io -->
<svg version="1.1" xmlns="http://www.w3.org/2000/svg" width="36" height="32" viewBox="0 0 36 32">
<title>phone-office</title>
<path d="M22 20h-2c-1.104 0-2 0.898-2 2v2c0 1.102 0.896 2 2 2h2c1.104 0 2-0.898 2-2v-2c0-1.102-0.896-2-2-2zM22 24h-2v-2h2v2zM22 12h-2c-1.104 0-2 0.898-2 2v2c0 1.102 0.896 2 2 2h2c1.104 0 2-0.898 2-2v-2c0-1.102-0.896-2-2-2zM22 16h-2v-2h2v2zM30 20h-2c-1.104 0-2 0.898-2 2v2c0 1.102 0.896 2 2 2h2c1.104 0 2-0.898 2-2v-2c0-1.102-0.896-2-2-2zM30 24h-2v-2h2v2zM30 12h-2c-1.104 0-2 0.898-2 2v2c0 1.102 0.896 2 2 2h2c1.104 0 2-0.898 2-2v-2c0-1.102-0.896-2-2-2zM30 16h-2v-2h2v2zM32 2h-17.184c-0.413-1.163-1.512-2-2.816-2h-4c-1.304 0-2.403 0.838-2.816 2h-1.184c-2.209 0-4 1.791-4 4v22c0 2.209 1.791 4 4 4h28c2.209 0 4-1.791 4-4v-22c0-2.209-1.791-4-4-4zM20 4h10v4h-10v-4zM7 3c0-0.551 0.449-1 1-1h4c0.551 0 1 0.449 1 1v21c0 0.551-0.449 1-1 1h-4c-0.551 0-1-0.449-1-1v-21zM34 28c0 1.102-0.898 2-2 2h-28c-1.103 0-2-0.898-2-2v-22c0-1.103 0.897-2 2-2h1v20c0 1.657 1.343 3 3 3h4c1.657 0 3-1.343 3-3v-20h3v4c0 1.102 0.896 2 2 2h10c1.104 0 2-0.898 2-2v-4c1.102 0 2 0.897 2 2v22z"></path>
</svg>
