<!-- Generated by IcoMoon.io -->
<svg version="1.1" xmlns="http://www.w3.org/2000/svg" width="40" height="32" viewBox="0 0 40 32">
<title>phone-slash-solid</title>
<path d="M16.762 23.837l-3.1-3.788c-0.425-0.519-1.137-0.694-1.75-0.431l-7 3c-0.669 0.288-1.031 1.006-0.869 1.719l1.5 6.5c0.156 0.675 0.756 1.163 1.463 1.163 6.294 0 12.106-2.025 16.856-5.431l-5-3.863c-0.681 0.406-1.381 0.794-2.1 1.131zM39.612 28.631l-9.919-7.663c3.925-4.944 6.306-11.162 6.306-17.969 0-0.7-0.481-1.306-1.163-1.462l-6.5-1.5c-0.706-0.163-1.431 0.206-1.719 0.869l-3 7c-0.262 0.613-0.087 1.331 0.431 1.75l3.788 3.1c-0.762 1.631-1.744 3.144-2.875 4.55l-22.119-17.094c-0.438-0.338-1.063-0.263-1.406 0.175l-1.225 1.575c-0.338 0.438-0.263 1.063 0.175 1.4l36.775 28.419c0.438 0.338 1.063 0.262 1.406-0.175l1.225-1.581c0.337-0.425 0.256-1.056-0.181-1.394z"></path>
</svg>
