<!-- Generated by IcoMoon.io -->
<svg version="1.1" xmlns="http://www.w3.org/2000/svg" width="40" height="32" viewBox="0 0 40 32">
<title>photo-video-solid</title>
<path d="M38 0h-28c-1.105 0-2 0.895-2 2v0 6h10v-4h12v20h8c1.105 0 2-0.895 2-2v0-20c0-1.105-0.895-2-2-2v0zM14.5 6.438c0 0.311-0.252 0.563-0.563 0.563v0h-1.875c-0.311 0-0.563-0.252-0.563-0.563v0-1.875c0-0.311 0.252-0.563 0.563-0.563v0h1.875c0.311 0 0.563 0.252 0.563 0.563v0zM36.5 19.438c0 0.311-0.252 0.563-0.563 0.563v0h-1.875c-0.311 0-0.563-0.252-0.563-0.563v0-1.875c0-0.311 0.252-0.563 0.563-0.563v0h1.875c0.311 0 0.563 0.252 0.563 0.563v0zM36.5 12.938c0 0.311-0.252 0.563-0.563 0.563v0h-1.875c-0.311 0-0.563-0.252-0.563-0.563v0-1.875c0-0.311 0.252-0.563 0.563-0.563v0h1.875c0.311 0 0.563 0.252 0.563 0.563v0zM36.5 6.438c0 0.311-0.252 0.563-0.563 0.563v0h-1.875c-0.311 0-0.563-0.252-0.563-0.563v0-1.875c0-0.311 0.252-0.563 0.563-0.563v0h1.875c0.311 0 0.563 0.252 0.563 0.563v0zM26 10h-24c-1.105 0-2 0.895-2 2v0 18c0 1.105 0.895 2 2 2v0h24c1.105 0 2-0.895 2-2v0-18c0-1.105-0.895-2-2-2v0zM6 14c1.105 0 2 0.895 2 2s-0.895 2-2 2c-1.105 0-2-0.895-2-2v0c0-1.105 0.895-2 2-2v0zM24 28h-20v-2l4-4 2 2 8-8 6 6z"></path>
</svg>
