<!-- Generated by IcoMoon.io -->
<svg version="1.1" xmlns="http://www.w3.org/2000/svg" width="40" height="32" viewBox="0 0 40 32">
<title>photo-video</title>
<path d="M38 0h-28c-1.104 0-2 0.821-2 1.833v6.167h8v-6h16v18h-2v2h8c1.104 0 2-0.821 2-1.833v-18.334c0-1.012-0.896-1.833-2-1.833zM14 6h-4v-4h4zM38 20h-4v-4h4zM38 14h-4v-6h4zM38 6h-4v-4h4zM26 10h-24c-1.105 0-2 0.895-2 2v0 18c0 1.105 0.895 2 2 2v0h24c1.105 0 2-0.895 2-2v0-18c0-1.105-0.895-2-2-2v0zM26 30h-24v-1.5l5.106-3.829 5 2.5 7.927-5.946 5.967 3.977zM26 22.798l-6.033-4.023-8.072 6.054-5-2.5-4.894 3.671v-14h24zM7 20c1.657 0 3-1.343 3-3s-1.343-3-3-3c-1.657 0-3 1.343-3 3v0c0 1.657 1.343 3 3 3v0zM7 16c0.552 0 1 0.448 1 1s-0.448 1-1 1c-0.552 0-1-0.448-1-1v0c0-0.552 0.448-1 1-1v0z"></path>
</svg>
