<!-- Generated by IcoMoon.io -->
<svg version="1.1" xmlns="http://www.w3.org/2000/svg" width="32" height="32" viewBox="0 0 32 32">
<title>pi-solid</title>
<path d="M30.5 10c0.828 0 1.5-0.672 1.5-1.5v-3c0-0.829-0.672-1.5-1.5-1.5h-24.256c-1.061 0-2.078 0.421-2.828 1.171l-3.121 3.122c-0.63 0.63-0.184 1.707 0.707 1.707h6.998v8.904c0 2.425-0.806 4.727-2.289 6.601-0.454 0.574-0.357 1.411 0.16 1.928l2.132 2.132c0.641 0.641 1.684 0.559 2.258-0.142 2.422-2.964 3.739-6.641 3.739-10.519v-8.904h4v12.661c0 3.436 2.33 6.585 5.707 7.214 2.641 0.492 5.227-0.492 6.851-2.521l1.113-1.354c0.517-0.647 0.413-1.591-0.234-2.108l-2.341-1.874c-0.647-0.517-1.591-0.413-2.108 0.234l-1.113 1.352c-0.194 0.242-0.49 0.396-0.821 0.396-0 0-0.001 0-0.001 0h0c-0.58 0-1.052-0.473-1.052-1.052v-12.947h6.5z"></path>
</svg>
