<!-- Generated by IcoMoon.io -->
<svg version="1.1" xmlns="http://www.w3.org/2000/svg" width="28" height="32" viewBox="0 0 28 32">
<title>pi</title>
<path d="M27.799 24.1l-0.801-0.6c-0.082-0.062-0.187-0.1-0.3-0.1-0.163 0-0.308 0.078-0.399 0.199l-0.001 0.001-1.297 1.733c-0.314 0.418-0.814 0.667-1.335 0.667-0.918 0-1.666-0.748-1.666-1.667v-16.333h5.5c0.276 0 0.5-0.224 0.5-0.5v-1c0-0.276-0.224-0.5-0.5-0.5h-25.792c-0.265 0-0.519 0.106-0.707 0.293l-0.854 0.853c-0.315 0.315-0.092 0.854 0.354 0.854h7.499v8.216c0 2.062-0.579 4.082-1.672 5.83l-2.911 4.658c-0.048 0.075-0.076 0.167-0.076 0.265 0 0.178 0.093 0.334 0.233 0.423l0.002 0.001 0.848 0.53c0.075 0.048 0.167 0.076 0.265 0.076 0.178 0 0.334-0.093 0.423-0.233l0.001-0.002 2.913-4.661c1.239-1.955 1.975-4.335 1.975-6.887v-8.217h10v16.179c0 1.289 0.6 2.546 1.689 3.237 1.723 1.094 3.822 0.567 4.913-0.883l1.299-1.733c0.165-0.222 0.12-0.535-0.101-0.701z"></path>
</svg>
