<!-- Generated by IcoMoon.io -->
<svg version="1.1" xmlns="http://www.w3.org/2000/svg" width="32" height="32" viewBox="0 0 32 32">
<title>piano-solid</title>
<path d="M29.789 16.863l-3.578-1.789c-1.321-0.671-2.21-2.019-2.211-3.574v-0c0-0.001 0-0.002 0-0.003 0-6.367-5.161-11.528-11.528-11.528h-0.944c-6.367 0-11.528 5.161-11.528 11.528 0 0.001 0 0.002 0 0.003v-0 18.469c0 1.105 0.895 2 2 2v0h28c1.105 0 2-0.895 2-2v0-9.528c-0-1.557-0.89-2.906-2.189-3.567l-0.023-0.011zM28 27.969h-24v-6h2v3.5c0 0.276 0.224 0.5 0.5 0.5v0h1c0.276 0 0.5-0.224 0.5-0.5v0-3.5h2v3.5c0 0.276 0.224 0.5 0.5 0.5v0h1c0.276 0 0.5-0.224 0.5-0.5v0-3.5h2v3.5c0 0.276 0.224 0.5 0.5 0.5v0h1c0.276 0 0.5-0.224 0.5-0.5v0-3.5h4v3.5c0 0.276 0.224 0.5 0.5 0.5v0h1c0.276 0 0.5-0.224 0.5-0.5v0-3.5h2v3.5c0 0.276 0.224 0.5 0.5 0.5v0h1c0.276 0 0.5-0.224 0.5-0.5v0-3.5h2z"></path>
</svg>
