<!-- Generated by IcoMoon.io -->
<svg version="1.1" xmlns="http://www.w3.org/2000/svg" width="36" height="32" viewBox="0 0 36 32">
<title>piano-keyboard</title>
<path d="M34 4h-32c-1.105 0-2 0.895-2 2v0 20c0 1.105 0.895 2 2 2v0h32c1.105 0 2-0.895 2-2v0-20c0-1.105-0.895-2-2-2v0zM8 26h-6v-12h4v6c0 0.552 0.448 1 1 1v0h1zM17 26h-7v-5h1c0.552 0 1-0.448 1-1v0-6h3v6c0 0.552 0.448 1 1 1v0h1zM8 19v-5h2v5zM26 26h-7v-5h1c0.552 0 1-0.448 1-1v0-6h3v6c0 0.552 0.448 1 1 1v0h1zM17 19v-5h2v5zM34 26h-6v-5h1c0.552 0 1-0.448 1-1v0-6h4zM26 19v-5h2v5zM34 12h-32v-6h32z"></path>
</svg>
