<!-- Generated by IcoMoon.io -->
<svg version="1.1" xmlns="http://www.w3.org/2000/svg" width="32" height="32" viewBox="0 0 32 32">
<title>piano</title>
<path d="M29.789 16.894l-3.578-1.789c-1.321-0.671-2.211-2.021-2.211-3.578v0c0-6.367-5.161-11.528-11.528-11.528h-0.944c-6.367 0-11.528 5.161-11.528 11.528v0 0 18.472c0 1.105 0.895 2 2 2v0h28c1.105 0 2-0.895 2-2v0-9.528c-0-1.557-0.89-2.906-2.189-3.567l-0.023-0.011zM30 30h-28v-6h3v2.5c0 0.276 0.224 0.5 0.5 0.5v0h1c0.276 0 0.5-0.224 0.5-0.5v0-2.5h2v2.5c0 0.276 0.224 0.5 0.5 0.5v0h1c0.276 0 0.5-0.224 0.5-0.5v0-2.5h2v2.5c0 0.276 0.224 0.5 0.5 0.5v0h1c0.276 0 0.5-0.224 0.5-0.5v0-2.5h6v2.5c0 0.276 0.224 0.5 0.5 0.5v0h1c0.276 0 0.5-0.224 0.5-0.5v0-2.5h2v2.5c0 0.276 0.224 0.5 0.5 0.5v0h1c0.276 0 0.5-0.224 0.5-0.5v0-2.5h3zM30 22h-28v-10.472c0-5.254 4.274-9.528 9.528-9.528h0.944c5.254 0 9.528 4.274 9.528 9.528-0 0.006-0 0.013-0 0.019 0 2.33 1.335 4.348 3.283 5.331l0.034 0.016 3.578 1.789c0.66 0.333 1.106 1.006 1.106 1.782 0 0.002 0 0.005 0 0.007v-0z"></path>
</svg>
