<!-- Generated by IcoMoon.io -->
<svg version="1.1" xmlns="http://www.w3.org/2000/svg" width="36" height="32" viewBox="0 0 36 32">
<title>piano-keyboard-solid</title>
<path d="M34 3.938h-32c-1.105 0-2 0.895-2 2v0 20c0 1.105 0.895 2 2 2v0h32c1.105 0 2-0.895 2-2v0-20c0-1.105-0.895-2-2-2v0zM9 23.938h-5v-10h4v5c0 0.552 0.448 1 1 1v0zM17 23.938h-6v-4c0.552 0 1-0.448 1-1v0-5h4v5c0 0.552 0.448 1 1 1v0zM25 23.938h-6v-4c0.552 0 1-0.448 1-1v0-5h4v5c0 0.552 0.448 1 1 1v0zM32 23.938h-5v-4c0.552 0 1-0.448 1-1v0-5h4z"></path>
</svg>
