<!-- Generated by IcoMoon.io -->
<svg version="1.1" xmlns="http://www.w3.org/2000/svg" width="36" height="32" viewBox="0 0 36 32">
<title>pie-solid</title>
<path d="M28.674 19c-0.633 0.434-2.262 2-5.328 2s-4.697-1.563-5.329-2h-0.005c-0.458 0.313-2.199 2-5.33 2-3.071 0-4.698-1.563-5.334-2h-0.014c-0.521 0.356-1.668 1.414-3.725 1.825l1.938 5.805c0.272 0.802 1.017 1.369 1.895 1.37h21.117c0 0 0 0 0 0 0.878 0 1.624-0.566 1.893-1.353l0.004-0.014 1.938-5.805c-2.069-0.414-3.279-1.525-3.716-1.825zM34 15c-0.403 0-0.648-0.075-0.904-0.22-2.163-6.269-8.091-10.78-15.096-10.78s-12.938 4.513-15.097 10.784c-0.254 0.143-0.5 0.216-0.903 0.216-1.105 0-2 0.895-2 2s0.895 2 2 2v0c2 0 3.125-0.842 3.87-1.399 0.567-0.425 0.802-0.601 1.471-0.601s0.904 0.176 1.472 0.601c0.744 0.558 1.868 1.399 3.869 1.399s3.125-0.843 3.868-1.401c0.563-0.424 0.8-0.599 1.466-0.599s0.899 0.176 1.465 0.599c0.743 0.558 1.866 1.401 3.866 1.401s3.122-0.843 3.865-1.401c0.566-0.424 0.8-0.599 1.465-0.599s0.896 0.176 1.461 0.599c0.741 0.559 1.863 1.401 3.863 1.401 1.105 0 2-0.895 2-2s-0.895-2-2-2v0zM12.894 9.447l-1 2c-0.59 1.177-2.386 0.299-1.789-0.894l1-2c0.596-1.178 2.381-0.289 1.789 0.894zM19 11c0 1.323-2 1.324-2 0v-2c0-1.323 2-1.324 2 0zM24.106 11.447l-1-2c-0.593-1.184 1.196-2.074 1.789-0.894l1 2c0.596 1.191-1.198 2.072-1.789 0.894z"></path>
</svg>
