<!-- Generated by IcoMoon.io -->
<svg version="1.1" xmlns="http://www.w3.org/2000/svg" width="36" height="32" viewBox="0 0 36 32">
<title>pie</title>
<path d="M33.031 14.264c-2.369-6.16-8.348-10.264-15.031-10.264s-12.662 4.104-15.029 10.264c-2.658 0.102-2.971 2.338-2.971 2.869 0.008 1.585 1.295 2.866 2.881 2.866 0.003 0 0.006 0 0.009 0h-0c0.17 0 0.298-0.038 0.458-0.047l2.029 6.082c0.393 1.151 1.465 1.965 2.727 1.965h19.796c1.262-0 2.334-0.814 2.721-1.945l0.006-0.020 2.027-6.082c0.159 0.011 0.288 0.047 0.458 0.047 0.003 0 0.007 0 0.010 0 1.586 0 2.872-1.282 2.881-2.866v-0.001c0-0.548-0.322-2.759-2.969-2.869zM28.728 25.401c-0.119 0.351-0.446 0.599-0.83 0.599h-19.797c-0.384-0-0.711-0.248-0.828-0.593l-0.002-0.006-1.954-5.862c0.697-0.287 1.298-0.637 1.844-1.057l-0.019 0.014c0.568-0.421 0.787-0.589 1.588 0.004 0.758 0.563 2.029 1.5 4.246 1.5s3.49-0.941 4.25-1.505c0.567-0.419 0.782-0.587 1.576 0.003 0.759 0.563 2.029 1.5 4.246 1.5s3.488-0.941 4.246-1.504c0.68-0.504 0.883-0.512 1.57 0 0.525 0.405 1.123 0.755 1.765 1.024l0.052 0.019-1.954 5.863zM33.111 18c-1.559 0-2.387-0.615-3.057-1.113-1.857-1.375-3.129-0.606-3.951 0.004-0.665 0.494-1.494 1.109-3.054 1.109s-2.389-0.615-3.059-1.111c-1.989-1.48-3.344-0.453-3.956 0-0.666 0.496-1.494 1.111-3.057 1.111s-2.391-0.615-3.063-1.111c-0.424-0.313-1.857-1.563-3.967 0-0.668 0.494-1.5 1.109-3.063 1.109-0.479 0-0.867-0.388-0.867-0.867s0.388-0.867 0.867-0.867v0c0.337 0 0.692 0.030 1.672-0.511 3.333-9.62 12.426-9.754 13.444-9.754 1 0 10.108 0.125 13.438 9.75 0.984 0.557 1.286 0.519 1.674 0.519 0.479 0 0.867 0.388 0.867 0.867s-0.388 0.867-0.867 0.867v0zM12.447 9.106c-0.13-0.066-0.283-0.104-0.445-0.104-0.39 0-0.727 0.222-0.894 0.546l-0.003 0.006-1 2c-0.067 0.13-0.106 0.284-0.106 0.447 0 0.389 0.223 0.727 0.547 0.892l0.006 0.003c0.596 0.294 1.148-0.063 1.342-0.447l1-2c0.067-0.13 0.106-0.284 0.106-0.447 0-0.389-0.223-0.727-0.547-0.892l-0.006-0.003zM24.894 9.553c-0.168-0.331-0.505-0.553-0.895-0.553-0.552 0-1 0.448-1 1 0 0.163 0.039 0.317 0.108 0.453l-0.003-0.006 1 2c0.194 0.386 0.746 0.741 1.342 0.447 0.331-0.168 0.553-0.505 0.553-0.895 0-0.163-0.039-0.317-0.108-0.453l0.003 0.006zM18 9c-0.552 0-1 0.448-1 1v0 2c0 0.552 0.448 1 1 1s1-0.448 1-1v0-2c0-0.552-0.448-1-1-1v0z"></path>
</svg>
