<!-- Generated by IcoMoon.io -->
<svg version="1.1" xmlns="http://www.w3.org/2000/svg" width="36" height="32" viewBox="0 0 36 32">
<title>pig-solid</title>
<path d="M35 12h-1.844c-0.548-1.252-1.352-2.357-2.336-3.279l1.181-4.721h-2c-1.837 0-3.462 0.844-4.563 2.145-0.473-0.069-0.945-0.145-1.438-0.145h-8c-4.838 0-8.872 3.436-9.799 8h-2.701c-0.925 0-1.657-0.841-1.471-1.799 0.139-0.713 0.805-1.201 1.531-1.201h0.063c0.209 0 0.377-0.169 0.377-0.377v-1.245c0-0.209-0.169-0.377-0.377-0.377-1.779 0-3.366 1.275-3.593 3.039-0.274 2.134 1.389 3.961 3.471 3.961h2.5c0 3.261 1.584 6.129 4 7.955v5.045c0 0.552 0.447 1 1 1h4c0.553 0 1-0.448 1-1v-3h8v3c0 0.552 0.448 1 1 1h4c0.552 0 1-0.448 1-1v-5.045c0.745-0.566 1.389-1.21 1.937-1.93l0.018-0.025h3.045c0.553 0 1-0.448 1-1v-8c0-0.553-0.447-1-1-1zM27 16c-0.552 0-1-0.447-1-1s0.448-1 1-1 1 0.447 1 1-0.448 1-1 1z"></path>
</svg>
