<!-- Generated by IcoMoon.io -->
<svg version="1.1" xmlns="http://www.w3.org/2000/svg" width="36" height="32" viewBox="0 0 36 32">
<title>pig</title>
<path d="M35 12h-1.844c-0.694-1.581-1.794-2.931-3.156-3.963v-4.037h-1c-2.918 0-5.197 1.701-5.587 2h-9.414c-2.582 0-5.161 1.083-6.984 2.87-1.402 1.367-2.41 3.134-2.817 5.13h-0.7c-0.925 0-1.656-0.844-1.469-1.8 0.138-0.713 0.806-1.2 1.531-1.2h0.063c0.206 0 0.375-0.169 0.375-0.375v-1.25c0-0.206-0.169-0.375-0.375-0.375-1.781 0-3.369 1.275-3.594 3.037-0.275 2.138 1.387 3.963 3.469 3.963h0.5c0 3.262 1.587 6.131 4 7.956v5.044c0 0.55 0.45 1 1 1h7c0.55 0 1-0.45 1-1v-3h4v3c0 0.55 0.45 1 1 1h7c0.55 0 1-0.45 1-1v-5.056c0.731-0.563 1.4-1.206 1.956-1.944h3.045c0.55 0 1-0.45 1-1v-8c0-0.55-0.45-1-1-1zM34 20h-3.044c-1.063 1.4-1.063 1.506-2.956 2.956v5.044h-5v-4h-8.001v4h-5v-5.044c-4.056-3.063-4-5.844-4-6.956 0-4.412 3.588-8 8.001-8h10.107c1.056-0.844 2.075-1.656 3.894-1.925v2.956c2.481 1.881 2.75 2.456 3.85 4.969h2.149v6zM26.999 14c-0.55 0-1 0.45-1 1s0.45 1 1 1 1-0.45 1-1-0.449-1-1-1z"></path>
</svg>
