<!-- Generated by IcoMoon.io -->
<svg version="1.1" xmlns="http://www.w3.org/2000/svg" width="36" height="32" viewBox="0 0 36 32">
<title>piggy-bank-solid</title>
<path d="M35 14h-1.844c-0.55-1.25-1.35-2.356-2.337-3.281l1.181-4.719h-2c-1.837 0-3.462 0.844-4.563 2.144-0.475-0.069-0.944-0.144-1.438-0.144h-8c-4.838 0-8.869 3.438-9.8 8h-2.7c-0.925 0-1.656-0.844-1.469-1.8 0.138-0.713 0.806-1.2 1.531-1.2h0.063c0.206 0 0.375-0.169 0.375-0.375v-1.25c0-0.206-0.169-0.375-0.375-0.375-1.781 0-3.369 1.275-3.594 3.037-0.275 2.138 1.387 3.963 3.469 3.963h2.5c0 3.262 1.587 6.131 4 7.956v5.044c0 0.55 0.45 1 1 1h4c0.55 0 1-0.45 1-1v-3h8v3c0 0.55 0.45 1 1 1h4c0.55 0 1-0.45 1-1v-5.044c0.738-0.556 1.394-1.212 1.956-1.956h3.044c0.55 0 1-0.45 1-1v-8c0-0.55-0.45-1-1-1zM27 18c-0.55 0-1-0.45-1-1s0.45-1 1-1 1 0.45 1 1-0.45 1-1 1zM16 6h8c0.337 0 0.669 0.025 0.994 0.050 0-0.019 0.006-0.031 0.006-0.050 0-3.313-2.688-6-6-6s-6 2.688-6 6c0 0.131 0.031 0.256 0.037 0.388 0.95-0.244 1.938-0.388 2.963-0.388z"></path>
</svg>
