<!-- Generated by IcoMoon.io -->
<svg version="1.1" xmlns="http://www.w3.org/2000/svg" width="36" height="32" viewBox="0 0 36 32">
<title>piggy-bank</title>
<path d="M27 16c-0.55 0-1 0.45-1 1s0.45 1 1 1 1-0.45 1-1-0.45-1-1-1zM35 14h-1.844c-0.694-1.581-1.794-2.931-3.156-3.963v-4.037h-1c-1.894 0-3.613 0.631-5.056 1.638 0.025-0.213 0.056-0.419 0.056-0.638 0-3.869-3.131-7-7-7s-7 3.131-7 7c0 0.606 0.1 1.181 0.25 1.744-3.063 1.238-5.375 3.944-6.050 7.256h-0.7c-0.925 0-1.656-0.844-1.469-1.8 0.138-0.713 0.806-1.2 1.531-1.2h0.063c0.206 0 0.375-0.169 0.375-0.375v-1.25c0-0.206-0.169-0.375-0.375-0.375-1.781 0-3.369 1.275-3.594 3.037-0.275 2.138 1.387 3.963 3.469 3.963h0.5c0 3.262 1.588 6.131 4 7.956v5.044c0 0.55 0.45 1 1 1h7c0.55 0 1-0.45 1-1v-3h4v3c0 0.55 0.45 1 1 1h7c0.55 0 1-0.45 1-1v-5.056c0.731-0.563 1.4-1.206 1.956-1.944h3.044c0.55 0 1-0.45 1-1v-8c0-0.55-0.45-1-1-1zM17 2c2.762 0 5 2.237 5 5 0 0.344-0.038 0.675-0.1 1h-7.9c-0.631 0-1.244 0.075-1.844 0.188-0.1-0.381-0.156-0.775-0.156-1.188 0-2.763 2.237-5 5-5zM34 22h-3.044c-1.063 1.4-1.063 1.506-2.956 2.956v5.044h-5v-4h-8v4h-5v-5.044c-4.056-3.063-4-5.844-4-6.956 0-4.412 3.588-8 8-8h10.106c1.056-0.844 2.075-1.656 3.894-1.925v2.956c2.481 1.881 2.75 2.456 3.85 4.969h2.15v6z"></path>
</svg>
