<!-- Generated by IcoMoon.io -->
<svg version="1.1" xmlns="http://www.w3.org/2000/svg" width="36" height="32" viewBox="0 0 36 32">
<title>pills-solid</title>
<path d="M7 2c-3.869 0-7 3.131-7 7v14c0 3.869 3.131 7 7 7s7-3.131 7-7v-14c0-3.869-3.131-7-7-7zM10 16h-6v-7c0-1.656 1.344-3 3-3s3 1.344 3 3v7zM18.731 14.144c-0.219-0.219-0.587-0.194-0.769 0.050-2.831 3.906-2.525 9.381 0.994 12.9s8.994 3.825 12.9 0.994c0.25-0.181 0.269-0.55 0.050-0.769l-13.175-13.175zM33.094 12.956c-3.519-3.519-8.994-3.825-12.9-0.994-0.25 0.181-0.269 0.55-0.050 0.769l13.175 13.175c0.219 0.219 0.587 0.194 0.769-0.050 2.831-3.913 2.531-9.381-0.994-12.9z"></path>
</svg>
