<!-- Generated by IcoMoon.io -->
<svg version="1.1" xmlns="http://www.w3.org/2000/svg" width="36" height="32" viewBox="0 0 36 32">
<title>pills</title>
<path d="M7 2c-3.862 0-7 3.138-7 7v14c0 3.863 3.138 7 7 7s7-3.137 7-7v-14c0-3.862-3.137-7-7-7zM12 23c0 2.756-2.244 5-5 5s-5-2.244-5-5v-5h10v5zM12 16h-10v-7c0-2.756 2.244-5 5-5s5 2.244 5 5v7zM26 10c-5.525 0-10 4.475-10 10s4.475 10 10 10 10-4.475 10-10-4.475-10-10-10zM26 28c-4.419 0-8-3.581-8-8 0-1.85 0.65-3.525 1.706-4.881l11.181 11.181c-1.363 1.050-3.038 1.7-4.887 1.7zM32.294 24.881l-11.175-11.175c1.356-1.050 3.031-1.706 4.881-1.706 4.419 0 8 3.581 8 8 0 1.85-0.65 3.525-1.706 4.881z"></path>
</svg>
