<!-- Generated by IcoMoon.io -->
<svg version="1.1" xmlns="http://www.w3.org/2000/svg" width="36" height="32" viewBox="0 0 36 32">
<title>pizza</title>
<path d="M32.7 6.258c-0.178-0.229-0.454-0.375-0.763-0.375-0.003 0-0.006 0-0.010 0h0c-0.001 0-0.001 0-0.002 0-0.282 0-0.538 0.114-0.724 0.299l-9.816 9.818 9.816 9.816c0.186 0.185 0.441 0.299 0.724 0.299 0.001 0 0.001 0 0.002 0h-0c0.003 0 0.007 0 0.010 0 0.309 0 0.585-0.146 0.761-0.373l0.002-0.002c2.058-2.669 3.299-6.060 3.299-9.741s-1.241-7.072-3.327-9.778l0.028 0.037zM28.825 20.614l-4.611-4.614 4.617-4.617c0.731 1.336 1.163 2.925 1.169 4.615v0.002c-0.004 1.691-0.438 3.28-1.198 4.664l0.025-0.051zM31.782 23.57l-1.476-1.475c1.060-1.74 1.69-3.843 1.694-6.094v-0.001c0-2.23-0.637-4.299-1.698-6.088l1.482-1.482c1.39 2.141 2.216 4.759 2.216 7.57s-0.826 5.429-2.25 7.625l0.033-0.055zM16.028 16l10.572-10.572c0.404-0.404 0.403-1.085-0.026-1.462-2.793-2.463-6.483-3.966-10.524-3.966-0.007 0-0.015 0-0.022 0h0.001c-5.068 0-10.136 2.393-13.363 7.178-3.554 5.269-3.554 12.375 0 17.646 3.228 4.784 8.296 7.176 13.363 7.176 0.006 0 0.014 0 0.021 0 4.041 0 7.731-1.503 10.542-3.981l-0.017 0.015c0.429-0.375 0.43-1.058 0.026-1.462zM16.5 12c-0.552 0-1-0.448-1-1s0.448-1 1-1c0.552 0 1 0.448 1 1v0c0 0.552-0.448 1-1 1v0zM19.288 9.912c-0.446-1.13-1.528-1.914-2.794-1.914-1.654 0-2.996 1.341-2.996 2.996 0 1.265 0.785 2.348 1.894 2.787l0.020 0.007-2.213 2.213 8.276 8.276c-1.577 1.063-3.438 1.724-5.476 1.724-1.139 0-2.216-0.232-3.238-0.584 0.754-0.55 1.238-1.43 1.238-2.424 0-1.652-1.339-2.992-2.992-2.992-1.341 0-2.475 0.882-2.856 2.097l-0.006 0.021c-1.325-1.697-2.147-3.805-2.147-6.117 0-5.514 4.486-10 10-10 2.040 0 3.906 0.656 5.483 1.717zM12 23c0 0.552-0.448 1-1 1s-1-0.448-1-1c0-0.552 0.448-1 1-1v0c0.552 0 1 0.448 1 1v0zM16.028 30c-4.739 0-9.005-2.294-11.704-6.295-3.109-4.608-3.109-10.8 0-15.409 2.699-4.001 6.965-6.296 11.705-6.296 0.003 0 0.006 0 0.010 0 3.157 0 6.070 1.047 8.41 2.812l-0.035-0.026-1.484 1.484c-1.962-1.404-4.332-2.271-6.929-2.271-6.625 0-12 5.375-12 12s5.375 12 12 12c2.597 0 4.974-0.861 6.938-2.263l1.476 1.476c-2.305 1.74-5.218 2.787-8.375 2.787-0.004 0-0.007 0-0.011 0h0.001z"></path>
</svg>
