<!-- Generated by IcoMoon.io -->
<svg version="1.1" xmlns="http://www.w3.org/2000/svg" width="32" height="32" viewBox="0 0 32 32">
<title>pizza-slice-solid</title>
<path d="M9.929 0.009c-1.010-0.095-1.95 0.526-2.208 1.508l-0.926 3.517c11.726 0.343 19.659 8.163 20.155 19.813l3.559-0.986c0.983-0.273 1.593-1.23 1.476-2.244-1.305-11.299-10.687-20.534-22.056-21.607zM6.275 7.009l-6.241 23.718c-0.021 0.077-0.033 0.166-0.033 0.258 0 0.56 0.454 1.013 1.013 1.013 0.096 0 0.189-0.013 0.277-0.038l-0.007 0.002 23.688-6.569c-0.267-10.931-7.692-18.259-18.697-18.381zM8 26c-1.105 0-2-0.895-2-2s0.895-2 2-2c1.105 0 2 0.895 2 2v0c0 1.105-0.895 2-2 2v0zM11 16.5c-1.105 0-2-0.895-2-2s0.895-2 2-2c1.105 0 2 0.895 2 2v0c0 1.105-0.895 2-2 2v0zM17.5 23c-1.105 0-2-0.895-2-2s0.895-2 2-2c1.105 0 2 0.895 2 2v0c0 1.105-0.895 2-2 2v0z"></path>
</svg>
