<!-- Generated by IcoMoon.io -->
<svg version="1.1" xmlns="http://www.w3.org/2000/svg" width="36" height="32" viewBox="0 0 36 32">
<title>pizza-solid</title>
<path d="M25.201 25.192c-5.117 5.12-13.438 5.076-18.5-0.132-4.813-4.949-4.813-13.171 0-18.121 5.063-5.208 13.384-5.25 18.5-0.132l1.375-1.379c0.404-0.404 0.402-1.085-0.026-1.462-7.054-6.201-18.263-5.131-23.886 3.211-3.552 5.269-3.552 12.378 0 17.646 5.625 8.341 16.832 9.412 23.889 3.211 0.429-0.375 0.43-1.058 0.026-1.462zM8.244 23.778c1.988 1.991 4.737 3.222 7.772 3.222s5.784-1.231 7.772-3.222l0-0-7.773-7.778 7.773-7.778c-1.988-1.99-4.736-3.222-7.772-3.222s-5.784 1.231-7.772 3.222l-0 0c-4.293 4.296-4.293 11.261 0 15.556zM16.016 22c0.552 0 1 0.448 1 1s-0.448 1-1 1c-0.552 0-1-0.448-1-1v0c0-0.552 0.448-1 1-1v0zM13.016 9c0.552 0 1 0.448 1 1s-0.448 1-1 1c-0.552 0-1-0.448-1-1v0c0 0 0 0 0 0 0-0.552 0.448-1 1-1 0.001 0 0.002 0 0.003 0h-0zM10.016 15c0.552 0 1 0.448 1 1s-0.448 1-1 1c-0.552 0-1-0.448-1-1v0c0 0 0 0 0 0 0-0.552 0.448-1 1-1 0.002 0 0.004 0 0.005 0h-0zM32.703 6.258c-0.362-0.472-1.076-0.495-1.497-0.074l-1.339 1.34c4.169 4.865 4.169 12.087 0 16.953l1.339 1.34c0.421 0.421 1.135 0.398 1.497-0.074 2.057-2.669 3.298-6.061 3.298-9.742s-1.24-7.073-3.325-9.779l0.028 0.038zM28.449 8.946l-3.12 3.125c0.397 0.134 0.678 0.503 0.679 0.937v0c0 0.552-0.448 1-1 1v0c-0.433-0.002-0.801-0.283-0.932-0.672l-0.002-0.007-2.677 2.671 7.052 7.058c1.587-1.898 2.551-4.365 2.551-7.058s-0.964-5.16-2.566-7.075l0.014 0.017zM28.006 18c-0.552 0-1-0.448-1-1s0.448-1 1-1c0.552 0 1 0.448 1 1v0c0 0.552-0.448 1-1 1v0z"></path>
</svg>
