<!-- Generated by IcoMoon.io -->
<svg version="1.1" xmlns="http://www.w3.org/2000/svg" width="32" height="32" viewBox="0 0 32 32">
<title>pizza-slice</title>
<path d="M9.929 0.009c-0.068-0.006-0.136-0.009-0.204-0.009-0.007-0-0.015-0-0.023-0-0.943 0-1.738 0.636-1.978 1.503l-0.003 0.014-7.687 29.21c-0.021 0.077-0.033 0.166-0.033 0.258 0 0.558 0.451 1.011 1.008 1.015h0c0.098-0 0.193-0.014 0.282-0.040l-0.007 0.002 29.225-8.104c0.983-0.272 1.593-1.229 1.476-2.243-1.305-11.297-10.687-20.532-22.056-21.606zM2.406 29.576l5.907-22.456c9.269 0.875 15.524 7.039 16.528 16.234zM26.791 22.813c-1.204-9.914-7.97-16.574-17.962-17.646l0.828-3.144c0.017-0.014 0.038-0.023 0.062-0.023 0.003 0 0.005 0 0.008 0l-0-0h0.016c10.354 0.977 19.063 9.508 20.234 19.931zM12 11c-1.657 0-3 1.343-3 3s1.343 3 3 3c1.657 0 3-1.343 3-3v0c-0.002-1.656-1.344-2.998-3-3h-0zM12 15c-0.552 0-1-0.448-1-1s0.448-1 1-1c0.552 0 1 0.448 1 1v0c0 0.552-0.448 1-1 1v0zM9 20c-1.657 0-3 1.343-3 3s1.343 3 3 3c1.657 0 3-1.343 3-3v0c-0.002-1.656-1.344-2.998-3-3h-0zM9 24c-0.552 0-1-0.448-1-1s0.448-1 1-1c0.552 0 1 0.448 1 1v0c0 0.552-0.448 1-1 1v0zM15 20c0 1.657 1.343 3 3 3s3-1.343 3-3c0-1.657-1.343-3-3-3v0c-1.656 0.002-2.998 1.344-3 3v0zM19 20c0 0.552-0.448 1-1 1s-1-0.448-1-1c0-0.552 0.448-1 1-1v0c0.552 0 1 0.448 1 1v0z"></path>
</svg>
