<!-- Generated by IcoMoon.io -->
<svg version="1.1" xmlns="http://www.w3.org/2000/svg" width="40" height="32" viewBox="0 0 40 32">
<title>place-of-worship-solid</title>
<path d="M38.788 22.909l-6.788-2.909v12h7c0.553 0 1-0.448 1-1v-6.253c-0-0.82-0.493-1.524-1.199-1.833l-0.013-0.005zM0 24.747v6.253c0 0.552 0.448 1 1 1h7v-12l-6.788 2.909c-0.719 0.314-1.212 1.018-1.212 1.838v0zM29.029 15.418l-3.029-1.817v-7.186c0-0.531-0.211-1.039-0.586-1.414l-4.707-4.707c-0.391-0.391-1.024-0.391-1.414 0l-4.707 4.707c-0.375 0.375-0.586 0.884-0.586 1.414v7.186l-3.029 1.817c-0.586 0.356-0.971 0.99-0.971 1.715v0 14.867h6v-6c0-2.209 1.791-4 4-4s4 1.791 4 4v6h6v-14.867c0-0.703-0.369-1.354-0.971-1.715z"></path>
</svg>
