<!-- Generated by IcoMoon.io -->
<svg version="1.1" xmlns="http://www.w3.org/2000/svg" width="36" height="32" viewBox="0 0 36 32">
<title>place-of-worship</title>
<path d="M34.911 22.249l-6.911-3.296v-1.821c0-0.703-0.369-1.353-0.971-1.715l-3.029-1.817v-7.186c0-0.531-0.211-1.039-0.586-1.414l-4.707-4.707c-0.195-0.196-0.451-0.293-0.707-0.293s-0.512 0.098-0.707 0.293l-4.707 4.707c-0.375 0.375-0.586 0.884-0.586 1.414v7.186l-3.029 1.817c-0.585 0.356-0.971 0.99-0.971 1.714 0 0 0 0 0 0.001v-0 1.822l-6.911 3.295c-0.654 0.313-1.089 1.119-1.089 2.021v7.23c0 0.276 0.224 0.5 0.5 0.5h1c0.276 0 0.5-0.224 0.5-0.5 0 0-0.022-7.451 0-7.5l6-2.831v10.331c0 0.276 0.224 0.5 0.5 0.5h1c0.276 0 0.5-0.224 0.5-0.5v-14.367l4-2.4v-8.318l4-4 4 4v8.318l4 2.4v14.367c0 0.276 0.224 0.5 0.5 0.5h1c0.276 0 0.5-0.224 0.5-0.5v-10.331l6 2.831c0.022 0.049 0 7.5 0 7.5 0 0.276 0.224 0.5 0.5 0.5h1c0.276 0 0.5-0.224 0.5-0.5v-7.23c0-0.902-0.435-1.708-1.089-2.021zM17.607 20.019c-2.080 0.198-3.607 2.064-3.607 4.153v7.328c0 0.276 0.224 0.5 0.5 0.5h1c0.276 0 0.5-0.224 0.5-0.5v-7.387c0-0.997 0.679-1.922 1.662-2.085 1.251-0.206 2.338 0.759 2.338 1.973v7.5c0 0.276 0.224 0.5 0.5 0.5h1c0.276 0 0.5-0.224 0.5-0.5v-7.5c0-2.339-2.008-4.209-4.393-3.981z"></path>
</svg>
