<!-- Generated by IcoMoon.io -->
<svg version="1.1" xmlns="http://www.w3.org/2000/svg" width="32" height="32" viewBox="0 0 32 32">
<title>planet-ringed-solid</title>
<path d="M31.432 0.567c-1.468-1.468-5.519 0.001-10.451 3.426-4.714-1.954-10.342-1.018-14.175 2.814s-4.768 9.461-2.814 14.175c-3.425 4.932-4.894 8.983-3.426 10.451 2.325 2.325 11.118-2.701 19.642-11.224s13.548-17.317 11.224-19.642zM21.657 21.657c-2.385 2.385-5.254 4.929-8.168 7.098 0.755 0.156 1.623 0.245 2.512 0.245 7.18 0 13-5.82 13-13 0-0.892-0.090-1.764-0.261-2.606l0.014 0.084c-2.262 3.038-4.873 5.955-7.096 8.178z"></path>
</svg>
