<!-- Generated by IcoMoon.io -->
<svg version="1.1" xmlns="http://www.w3.org/2000/svg" width="40" height="32" viewBox="0 0 40 32">
<title>plane-departure</title>
<path d="M5.032 21.205c0.464 0.49 1.12 0.795 1.846 0.795h0l7.941-0.011c0.739-0.002 1.436-0.178 2.055-0.488l-0.027 0.012 17.694-8.769c1.824-0.904 3.301-2.161 4.273-3.636 1.125-1.704 1.399-3.143 0.822-4.275-0.724-1.429-2.625-1.923-4.544-1.923-1.625 0-3.278 0.413-4.922 1.228l-5.794 2.875-13.044-4.784c-0.236-0.144-0.521-0.229-0.827-0.229-0.002 0-0.004 0-0.005 0h0c-0.261 0.001-0.507 0.062-0.725 0.172l0.009-0.004-4 1.981c-0.464 0.232-0.793 0.675-0.862 1.2l-0.001 0.008c-0.006 0.052-0.010 0.111-0.010 0.172 0 0.542 0.288 1.017 0.719 1.281l0.007 0.004 8.533 5.256-5.247 2.601-4.174-2.055c-0.208-0.105-0.454-0.166-0.714-0.166s-0.506 0.061-0.723 0.17l0.009-0.004-2.442 1.211c-0.433 0.215-0.748 0.613-0.847 1.089l-0.002 0.010c-0.020 0.094-0.032 0.202-0.032 0.313 0 0.394 0.146 0.753 0.388 1.027l-0.001-0.002zM4.037 14.492l4.889 2.407 9.371-4.644-10.889-6.678 3.080-1.526 14.006 5.133 6.563-3.25c1.366-0.677 2.724-1.020 4.037-1.020 1.019 0 2.458 0.225 2.764 0.83 0.213 0.419-0.053 1.266-0.71 2.266-0.777 1.179-1.984 2.198-3.491 2.945l-17.694 8.767c-0.334 0.168-0.728 0.267-1.145 0.268l-7.938 0.011c-0.154-0-0.293-0.064-0.393-0.166l-0-0-4.206-4.471 1.756-0.871zM39.5 28h-38.931c-0.276 0-0.5 0.224-0.5 0.5v0 1c0 0.276 0.224 0.5 0.5 0.5v0h38.931c0.276 0 0.5-0.224 0.5-0.5v0-1c0-0.276-0.224-0.5-0.5-0.5v0z"></path>
</svg>
