<!-- Generated by IcoMoon.io -->
<svg version="1.1" xmlns="http://www.w3.org/2000/svg" width="40" height="32" viewBox="0 0 40 32">
<title>plane-arrival</title>
<path d="M39.5 30h-39c-0.276 0-0.5 0.224-0.5 0.5v1c0 0.276 0.224 0.5 0.5 0.5h39c0.276 0 0.5-0.224 0.5-0.5v-1c0-0.276-0.224-0.5-0.5-0.5zM36.278 18.909c-1.216-1.263-2.871-2.209-4.784-2.736l-6.059-1.668-6.028-11.579c-0.137-0.264-0.259-0.536-0.386-0.806-0.196-0.415-0.561-0.729-1.003-0.851-1.198-0.329-4.468-1.27-4.468-1.27-0.018 0-0.673-0.030-1.168 0.541-0.338 0.391-0.461 1.026-0.318 1.522l2.645 9.491-5.456-1.501-1.68-4.237c-0.183-0.467-0.574-0.824-1.047-0.954-2.783-0.766-2.686-0.759-2.962-0.759-0.847 0-1.548 0.709-1.563 1.581l0.018 6.701c0.016 0.721 0.326 1.409 0.851 1.888l5.832 5.198c0.526 0.479 1.164 0.832 1.843 1.019l18.497 5.091c1.013 0.279 2.020 0.421 2.993 0.421 0.862 0 1.697-0.112 2.482-0.333 1.929-0.543 3.071-1.447 3.394-2.688s-0.226-2.61-1.633-4.071zM35.974 22.476c-0.126 0.483-0.854 0.944-2.001 1.266-1.928 0.543-3.752 0.088-4.401-0.091l-18.497-5.091c-0.377-0.104-0.732-0.301-1.027-0.569l-5.832-5.198c-0.121-0.11-0.194-0.279-0.198-0.452l-0.006-6.098 1.772 0.487 1.971 4.983 9.866 2.715-3.407-12.166 3.050 0.874 6.797 13.064 6.902 1.9c1.568 0.431 2.907 1.19 3.874 2.194 0.852 0.886 1.267 1.68 1.136 2.18z"></path>
</svg>
