<!-- Generated by IcoMoon.io -->
<svg version="1.1" xmlns="http://www.w3.org/2000/svg" width="32" height="32" viewBox="0 0 32 32">
<title>planet-ringed</title>
<path d="M31.279 0.71c-1.774-1.776-5.871-0.042-10.456 3.222-1.427-0.591-3.085-0.934-4.823-0.935h-0c-7.18 0-13 5.821-13 13.001 0.001 1.747 0.347 3.413 0.975 4.934l-0.031-0.086c-0.589 0.831-1.142 1.647-1.615 2.425-2.414 3.972-2.953 6.669-1.607 8.016 0.489 0.489 1.152 0.713 1.955 0.713 2.112 0 5.181-1.564 8.508-3.933 1.426 0.589 3.081 0.931 4.816 0.932h0c7.18 0 13-5.821 13-13.001-0.001-1.744-0.346-3.407-0.972-4.924l0.031 0.086c0.591-0.835 1.136-1.651 1.612-2.434 2.414-3.972 2.953-6.669 1.607-8.016zM16 4.997c4.229 0 7.902 2.402 9.743 5.912-1.887 2.545-4.233 5.264-6.901 7.933-2.91 2.913-5.582 5.188-7.906 6.912-3.522-1.836-5.936-5.516-5.936-9.756 0-6.066 4.935-11.001 11-11.001zM2.142 29.866c-0.255-0.254-0.408-1.747 1.903-5.55 0.286-0.47 0.6-0.954 0.933-1.446 1.070 1.694 2.464 3.088 4.105 4.125l0.054 0.032c-3.844 2.583-6.425 3.405-6.995 2.84zM27 15.998c0 6.066-4.935 11.001-11 11.001-1.019-0.004-2.003-0.146-2.936-0.409l0.077 0.019c2.393-1.87 4.848-4.070 7.121-6.346 2.382-2.383 4.537-4.819 6.343-7.144 0.248 0.862 0.392 1.853 0.395 2.877v0.002zM22.876 4.979c3.063-2.058 5.336-3.019 6.405-3.019 0.269 0 0.463 0.059 0.577 0.172 0.255 0.254 0.408 1.747-1.903 5.55-0.277 0.456-0.628 0.946-0.947 1.422-1.066-1.68-2.45-3.062-4.078-4.093l-0.053-0.032z"></path>
</svg>
