<!-- Generated by IcoMoon.io -->
<svg version="1.1" xmlns="http://www.w3.org/2000/svg" width="40" height="32" viewBox="0 0 40 32">
<title>plane-departure-solid</title>
<path d="M39 28h-38c-0.552 0-1 0.448-1 1v2c0 0.552 0.448 1 1 1h38c0.553 0 1-0.448 1-1v-2c0-0.552-0.447-1-1-1zM5.034 21.329c0.393 0.427 0.944 0.67 1.521 0.669l8.159-0.011c0.676-0.001 1.314-0.165 1.875-0.456l-0.023 0.011 18.185-9.228c1.671-0.848 3.169-2.059 4.189-3.644 1.144-1.78 1.269-3.068 0.817-3.978-0.451-0.911-1.546-1.579-3.641-1.716-1.866-0.121-3.721 0.37-5.392 1.218l-6.157 3.124-13.669-5.129c-0.174-0.119-0.39-0.19-0.622-0.19-0.184 0-0.357 0.045-0.51 0.123l0.006-0.003-4.109 2.086c-0.667 0.338-0.828 1.228-0.323 1.783l9.764 6.131-6.451 3.274-4.522-2.279c-0.146-0.075-0.318-0.119-0.501-0.119s-0.357 0.044-0.51 0.123l0.006-0.003-2.508 1.273c-0.652 0.331-0.824 1.195-0.348 1.755l4.763 5.186z"></path>
</svg>
