<!-- Generated by IcoMoon.io -->
<svg version="1.1" xmlns="http://www.w3.org/2000/svg" width="36" height="32" viewBox="0 0 36 32">
<title>plane-alt</title>
<path d="M28.906 12.020h-6.787l-2.106-4.021c0.408-0.007 0.737-0.34 0.737-0.749v-2.5c0-0.414-0.336-0.75-0.75-0.75h-2.082l-1.644-3.138c-0.321-0.558-0.901-0.862-1.48-0.862h-3.386c-1.097 0-1.905 1.020-1.66 2.083l1.749 10.007c-1.293 0.066-2.552 0.177-3.67 0.323l-2.015-3.618c-0.306-0.51-0.866-0.827-1.46-0.827h-2.494c-1.076 0-1.881 0.984-1.67 2.037l0.838 4.191c-0.681 0.525-1.026 1.13-1.026 1.803s0.344 1.278 1.026 1.803l-0.838 4.191c-0.211 1.055 0.596 2.037 1.67 2.037l2.494-0c0.595-0 1.154-0.317 1.46-0.827l2.015-3.618c1.118 0.146 2.377 0.257 3.67 0.323l-1.749 10.007c-0.245 1.064 0.564 2.083 1.66 2.083h3.386c0.563 0 1.126-0.282 1.466-0.836l1.657-3.164h2.082c0.414 0 0.75-0.336 0.75-0.75v-2.5c0-0.41-0.329-0.742-0.737-0.749l2.106-4.021 6.787 0c3.023 0 7.094-1.023 7.094-3.98 0-2.975-4.111-3.98-7.094-3.98zM28.906 17.98l-8.028-0-6.263 12.020h-2.851l2.099-12.009c-2.833-0.084-4.198-0.14-7.111-0.585l-2.575 4.625-1.957 0 1.218-6.031-1.218-6.031h1.957l2.575 4.625c2.931-0.448 4.304-0.501 7.111-0.585l-2.099-12.009h2.851l6.263 12.020h8.028c2.032 0 5.094 0.669 5.094 1.98 0 1.45-3.509 1.98-5.094 1.98z"></path>
</svg>
