<!-- Generated by IcoMoon.io -->
<svg version="1.1" xmlns="http://www.w3.org/2000/svg" width="36" height="32" viewBox="0 0 36 32">
<title>planet-moon</title>
<path d="M14 4c-7.732 0-14 6.268-14 14s6.268 14 14 14 14-6.268 14-14c0-7.732-6.268-14-14-14zM3.44 12.679c1.692-3.667 5.332-6.169 9.559-6.179h0.001c1.027 0.015 1.5 0.599 1.5 1.289 0 0.004 0 0.009 0 0.014 0 0.697-0.205 1.346-0.558 1.891l0.008-0.014-2.995 3.454c-0.877 1.012-0.898 2.694 0.081 3.607 0.501 0.47 1.178 0.759 1.922 0.759 0.003 0 0.005 0 0.008 0h4.034c0.828 0.001 1.499 0.672 1.5 1.5v1.056c-0.001 0.571-0.137 1.109-0.379 1.586l0.009-0.020-2.52 4.041c-0.185 0.363-0.527 0.624-0.934 0.695l-0.008 0.001c-0.205 0.035-0.413 0.063-0.674 0.088-0.274-0.006-0.494-0.23-0.495-0.505v-0c-0-4.437-0.001-2.788 0.003-3.442h-0.503c-0.828-0.001-1.499-0.672-1.5-1.5v-2.207l-3.56-3.561c-0.452-0.452-1.078-0.732-1.768-0.732l-1.564-0c-0.97 0-1.538-1.004-1.168-1.821zM14 30c-6.617 0-12-5.383-12-12 0.001-0.889 0.099-1.754 0.283-2.586l-0.015 0.080c0.59 0.618 1.42 1.003 2.339 1.007l1.565 0c0 0 0.001 0 0.001 0 0.138 0 0.262 0.056 0.352 0.146l2.975 2.975v1.379c0.001 1.387 0.809 2.586 1.979 3.153l0.021 0.009c-0 0.106-0 0.026 0 1.78 0 0 0 0.001 0 0.002 0 1.38 1.116 2.498 2.495 2.503h0c0.306 0 0.905-0.099 1.005-0.116 1.056-0.184 1.927-0.848 2.39-1.756l0.009-0.019 2.52-4.041c0.365-0.717 0.58-1.563 0.581-2.46v-1.056c-0.002-1.932-1.568-3.498-3.5-3.5h-4.034c-0.001 0-0.001 0-0.002 0-0.229 0-0.436-0.093-0.586-0.244l-0-0c-0.090-0.091-0.146-0.216-0.146-0.354 0-0.125 0.046-0.24 0.122-0.328l-0.001 0.001 3.17-3.656 0.053-0.079c0.579-0.856 0.924-1.911 0.924-3.046 0-0.002 0-0.004 0-0.005v0c-0.003-0.587-0.159-1.137-0.43-1.612l0.009 0.016c5.628 0.989 9.921 5.901 9.921 11.807 0 6.617-5.383 12-12 12zM32 0c-2.209 0-4 1.791-4 4s1.791 4 4 4c2.209 0 4-1.791 4-4v0c-0-2.209-1.791-4-4-4v0zM32 6c-1.105 0-2-0.895-2-2s0.895-2 2-2c1.105 0 2 0.895 2 2v0c-0.001 1.104-0.896 1.999-2 2h-0z"></path>
</svg>
