<!-- Generated by IcoMoon.io -->
<svg version="1.1" xmlns="http://www.w3.org/2000/svg" width="40" height="32" viewBox="0 0 40 32">
<title>plane-slash</title>
<path d="M16.84 30h-3.617l3.324-11.629-0.471-0.371h-7.075l-3 4h-1.666l1.75-6-1.75-6h1.582l-2.541-2h-0.375c-0 0-0.001 0-0.001 0-0.552 0-1 0.448-1 1 0 0.086 0.011 0.17 0.031 0.249l-0.002-0.007 1.971 6.757-1.97 6.758c-0.019 0.073-0.030 0.156-0.030 0.242 0 0.552 0.448 1 1 1h3.5c0.326-0 0.616-0.156 0.798-0.398l0.002-0.003 2.7-3.599h4l-3.063 10.724c-0.025 0.083-0.039 0.177-0.039 0.276 0 0.551 0.446 0.999 0.997 1h5.523c0.37-0 0.692-0.201 0.866-0.499l0.003-0.005 4.633-8.107-1.588-1.25zM11.857 4.5l2.684 2.113-1.319-4.613h3.617l6.674 11.681 0.406 0.319h8.079c1.639 0 3.913 1.359 4 1.994-0.087 0.646-2.361 2.006-4 2.006h-3l2.54 2h0.46c2.209 0 6-1.791 6-4s-3.791-4-6-4h-7.144l-6.568-11.496c-0.159-0.278-0.548-0.504-0.868-0.504h-5.524c-0.551 0.002-0.997 0.449-0.997 1 0 0.098 0.014 0.192 0.040 0.281l-0.002-0.007zM39.813 30.332l-38.375-30.22c-0.085-0.071-0.195-0.113-0.314-0.113-0.157 0-0.296 0.073-0.387 0.187l-0.001 0.001-0.625 0.781c-0.069 0.085-0.111 0.193-0.111 0.312 0 0.157 0.073 0.297 0.186 0.388l0.001 0.001 38.375 30.22c0.085 0.068 0.193 0.109 0.311 0.109 0.157 0 0.296-0.072 0.388-0.185l0.001-0.001 0.625-0.781c0.070-0.084 0.112-0.194 0.112-0.313 0-0.156-0.073-0.295-0.186-0.385l-0.001-0.001z"></path>
</svg>
