<!-- Generated by IcoMoon.io -->
<svg version="1.1" xmlns="http://www.w3.org/2000/svg" width="36" height="32" viewBox="0 0 36 32">
<title>plane-solid</title>
<path d="M30 12h-7.143l-6.569-11.496c-0.176-0.303-0.499-0.504-0.869-0.504-0 0-0 0-0 0h-4.094c-0.664 0-1.144 0.636-0.961 1.274l3.064 10.726h-6.429l-2.7-3.6c-0.189-0.252-0.486-0.4-0.8-0.4h-2.499c-0.651 0-1.128 0.611-0.97 1.242l1.969 6.758-1.969 6.758c-0.158 0.631 0.319 1.242 0.97 1.242h2.499c0.315 0 0.611-0.148 0.8-0.4l2.7-3.6h6.429l-3.064 10.725c-0.182 0.639 0.297 1.275 0.961 1.275h4.094c0.359 0 0.69-0.192 0.868-0.504l6.569-11.496h7.143c2.209 0 6-1.791 6-4s-3.791-4-6-4z"></path>
</svg>
