<!-- Generated by IcoMoon.io -->
<svg version="1.1" xmlns="http://www.w3.org/2000/svg" width="40" height="32" viewBox="0 0 40 32">
<title>plane-arrival-solid</title>
<path d="M39 28h-38c-0.552 0-1 0.448-1 1v2c0 0.552 0.448 1 1 1h38c0.553 0 1-0.448 1-1v-2c0-0.552-0.447-1-1-1zM2.801 12.854l5.546 5c0.439 0.398 0.973 0.698 1.564 0.864l0.028 0.007 17.975 4.897c1.655 0.451 3.41 0.545 5.063 0.085 1.854-0.517 2.715-1.326 2.953-2.232 0.239-0.906-0.108-2.044-1.461-3.435-1.205-1.239-2.772-2.049-4.427-2.5l-6.094-1.66-6.273-11.991c-0.094-0.363-0.372-0.647-0.729-0.744l-4.068-1.108c-0.66-0.18-1.306 0.333-1.294 1.028l2.995 10.263-6.387-1.74-1.724-4.242c-0.121-0.306-0.376-0.536-0.689-0.621l-2.483-0.677c-0.646-0.176-1.283 0.313-1.295 0.992l0.014 6.361c0.012 0.557 0.377 1.084 0.786 1.453z"></path>
</svg>
