<!-- Generated by IcoMoon.io -->
<svg version="1.1" xmlns="http://www.w3.org/2000/svg" width="40" height="32" viewBox="0 0 40 32">
<title>plane-slash-solid</title>
<path d="M2.030 9.242l1.97 6.758-1.97 6.758c-0.019 0.073-0.030 0.156-0.030 0.242 0 0.552 0.448 1 1 1h2.5c0.326-0 0.616-0.156 0.798-0.398l0.002-0.003 2.7-3.599h6.428l-3.063 10.724c-0.025 0.083-0.039 0.177-0.039 0.276 0 0.552 0.447 0.999 0.998 1h4.094c0.37-0 0.692-0.201 0.866-0.499l0.003-0.005 4.163-7.284-20.302-15.691c-0.089 0.143-0.142 0.318-0.142 0.504 0 0.077 0.009 0.152 0.026 0.224l-0.001-0.007zM39.614 28.631l-11.168-8.631h3.554c2.209 0 6-1.791 6-4s-3.791-4-6-4h-7.144l-6.568-11.496c-0.159-0.278-0.548-0.504-0.869-0.504h-4.094c-0.552 0-1 0.448-1 1 0 0.098 0.014 0.192 0.040 0.281l-0.002-0.007 2.309 8.081-11.831-9.144c-0.168-0.131-0.382-0.211-0.614-0.211-0.32 0-0.605 0.15-0.788 0.384l-0.002 0.002-1.227 1.579c-0.131 0.168-0.211 0.382-0.211 0.614 0 0.32 0.15 0.605 0.384 0.788l0.002 0.002 36.773 28.42c0.168 0.131 0.381 0.211 0.614 0.211 0.32 0 0.605-0.151 0.788-0.385l0.002-0.002 1.227-1.579c0.131-0.168 0.211-0.381 0.211-0.614 0-0.32-0.151-0.605-0.385-0.788l-0.002-0.002z"></path>
</svg>
