<!-- Generated by IcoMoon.io -->
<svg version="1.1" xmlns="http://www.w3.org/2000/svg" width="36" height="32" viewBox="0 0 36 32">
<title>planet-moon-solid</title>
<path d="M32 0c-2.209 0-4 1.791-4 4s1.791 4 4 4c2.209 0 4-1.791 4-4v0c0 0 0-0 0-0 0-2.209-1.791-4-4-4 0 0-0 0-0 0v0zM14 4c-7.732 0-14 6.268-14 14s6.268 14 14 14 14-6.268 14-14c0-7.732-6.268-14-14-14zM20 21.056c-0 0.652-0.156 1.268-0.433 1.812l0.011-0.023-2.52 5.041c-0.256 0.504-0.73 0.866-1.295 0.964l-0.011 0.002q-0.323 0.054-0.651 0.090c-0.029 0.003-0.064 0.005-0.098 0.005-0.553 0-1.002-0.449-1.002-1.002 0-0.001 0-0.001 0-0.002v0c-0-1.467-0-3.942 0-3.942-1.105 0-2-0.895-2-2v0-2l-3.414-3.414c-0.362-0.362-0.862-0.586-1.414-0.586l-1.564-0c-1.296 0-2.158-1.347-1.623-2.527 1.728-3.813 5.564-6.472 10.015-6.472q0.141 0 0.281 0.004c0.956 0.034 1.719 0.818 1.719 1.779 0 0.002 0 0.004 0 0.006v-0c0 0 0 0 0 0 0 0.827-0.251 1.595-0.681 2.233l0.009-0.014-3.108 3.585c-0.304 0.349-0.489 0.808-0.489 1.31 0 0.552 0.224 1.052 0.586 1.414v0c0.422 0.422 1.005 0.683 1.649 0.683h4.034c0 0 0 0 0 0 1.105 0 2 0.895 2 2 0 0 0 0 0 0v0z"></path>
</svg>
