<!-- Generated by IcoMoon.io -->
<svg version="1.1" xmlns="http://www.w3.org/2000/svg" width="32" height="32" viewBox="0 0 32 32">
<title>play-circle</title>
<path d="M16 31.5c8.563 0 15.5-6.938 15.5-15.5s-6.938-15.5-15.5-15.5-15.5 6.938-15.5 15.5 6.938 15.5 15.5 15.5zM2.5 16c0-7.419 6.006-13.5 13.5-13.5 7.419 0 13.5 6.006 13.5 13.5 0 7.419-6.006 13.5-13.5 13.5-7.419 0-13.5-6.006-13.5-13.5zM23.231 14.875l-11-6.688c-0.988-0.55-2.231 0.156-2.231 1.313v13c0 1.15 1.238 1.863 2.231 1.313l11-6.313c1.025-0.569 1.025-2.050 0-2.625zM12 20.988v-9.931c0-0.294 0.319-0.475 0.569-0.319l8.406 5.106c0.244 0.15 0.238 0.506-0.006 0.644l-8.406 4.825c-0.25 0.144-0.563-0.038-0.563-0.325z"></path>
</svg>
