<!-- Generated by IcoMoon.io -->
<svg version="1.1" xmlns="http://www.w3.org/2000/svg" width="24" height="32" viewBox="0 0 24 32">
<title>plug</title>
<path d="M22 8h-3v-7c0-0.552-0.448-1-1-1s-1 0.448-1 1v0 7h-10v-7c0-0.552-0.448-1-1-1s-1 0.448-1 1v0 7h-3c-1.105 0-2 0.895-2 2v0 2c0 1.105 0.895 2 2 2v0 2c0 5.172 3.961 9.389 9 9.899v6.101h2v-6.101c5.039-0.51 9-4.727 9-9.899v-2c1.105 0 2-0.895 2-2v0-2c0-1.105-0.895-2-2-2v0zM20 16c0 4.418-3.582 8-8 8s-8-3.582-8-8v0-2h16zM22 12h-20v-2h20z"></path>
</svg>
