<!-- Generated by IcoMoon.io -->
<svg version="1.1" xmlns="http://www.w3.org/2000/svg" width="32" height="32" viewBox="0 0 32 32">
<title>plus-circle</title>
<path d="M24 15.625v0.75c0 0.413-0.337 0.75-0.75 0.75h-6.125v6.125c0 0.413-0.337 0.75-0.75 0.75h-0.75c-0.412 0-0.75-0.337-0.75-0.75v-6.125h-6.125c-0.412 0-0.75-0.337-0.75-0.75v-0.75c0-0.412 0.338-0.75 0.75-0.75h6.125v-6.125c0-0.412 0.338-0.75 0.75-0.75h0.75c0.413 0 0.75 0.338 0.75 0.75v6.125h6.125c0.413 0 0.75 0.338 0.75 0.75zM31.5 16c0 8.563-6.938 15.5-15.5 15.5s-15.5-6.938-15.5-15.5 6.938-15.5 15.5-15.5 15.5 6.938 15.5 15.5zM29.5 16c0-7.494-6.081-13.5-13.5-13.5-7.494 0-13.5 6.081-13.5 13.5 0 7.494 6.081 13.5 13.5 13.5 7.494 0 13.5-6.081 13.5-13.5z"></path>
</svg>
