<!-- Generated by IcoMoon.io -->
<svg version="1.1" xmlns="http://www.w3.org/2000/svg" width="32" height="32" viewBox="0 0 32 32">
<title>plus-circle-solid</title>
<path d="M16 0.5c-8.563 0-15.5 6.938-15.5 15.5s6.938 15.5 15.5 15.5 15.5-6.938 15.5-15.5-6.938-15.5-15.5-15.5zM25 17.75c0 0.413-0.337 0.75-0.75 0.75h-5.75v5.75c0 0.413-0.337 0.75-0.75 0.75h-3.5c-0.412 0-0.75-0.337-0.75-0.75v-5.75h-5.75c-0.412 0-0.75-0.337-0.75-0.75v-3.5c0-0.412 0.338-0.75 0.75-0.75h5.75v-5.75c0-0.412 0.338-0.75 0.75-0.75h3.5c0.413 0 0.75 0.338 0.75 0.75v5.75h5.75c0.413 0 0.75 0.338 0.75 0.75v3.5z"></path>
</svg>
