<!-- Generated by IcoMoon.io -->
<svg version="1.1" xmlns="http://www.w3.org/2000/svg" width="28" height="32" viewBox="0 0 28 32">
<title>plus-square-solid</title>
<path d="M25 2h-22c-1.656 0-3 1.344-3 3v22c0 1.656 1.344 3 3 3h22c1.656 0 3-1.344 3-3v-22c0-1.656-1.344-3-3-3zM23 17.75c0 0.413-0.337 0.75-0.75 0.75h-5.75v5.75c0 0.413-0.337 0.75-0.75 0.75h-3.5c-0.412 0-0.75-0.337-0.75-0.75v-5.75h-5.75c-0.412 0-0.75-0.337-0.75-0.75v-3.5c0-0.412 0.338-0.75 0.75-0.75h5.75v-5.75c0-0.412 0.338-0.75 0.75-0.75h3.5c0.413 0 0.75 0.338 0.75 0.75v5.75h5.75c0.413 0 0.75 0.338 0.75 0.75v3.5z"></path>
</svg>
