<!-- Generated by IcoMoon.io -->
<svg version="1.1" xmlns="http://www.w3.org/2000/svg" width="28" height="32" viewBox="0 0 28 32">
<title>plus-square</title>
<path d="M25 4c0.55 0 1 0.45 1 1v22c0 0.55-0.45 1-1 1h-22c-0.55 0-1-0.45-1-1v-22c0-0.55 0.45-1 1-1h22zM25 2h-22c-1.656 0-3 1.344-3 3v22c0 1.656 1.344 3 3 3h22c1.656 0 3-1.344 3-3v-22c0-1.656-1.344-3-3-3zM21.25 14.875h-6.125v-6.125c0-0.412-0.338-0.75-0.75-0.75h-0.75c-0.412 0-0.75 0.338-0.75 0.75v6.125h-6.125c-0.412 0-0.75 0.338-0.75 0.75v0.75c0 0.413 0.338 0.75 0.75 0.75h6.125v6.125c0 0.413 0.338 0.75 0.75 0.75h0.75c0.412 0 0.75-0.337 0.75-0.75v-6.125h6.125c0.413 0 0.75-0.337 0.75-0.75v-0.75c0-0.412-0.337-0.75-0.75-0.75z"></path>
</svg>
