<!-- Generated by IcoMoon.io -->
<svg version="1.1" xmlns="http://www.w3.org/2000/svg" width="28" height="32" viewBox="0 0 28 32">
<title>podcast</title>
<path d="M20.376 19.585c-0.203-0.384-0.434-0.715-0.7-1.014l0.005 0.005c-0.116-0.131-0.12-0.326-0.017-0.468 0.84-1.155 1.336-2.575 1.336-4.109 0-3.951-3.291-7.148-7.276-6.995-3.608 0.139-6.543 3.045-6.716 6.652-0.080 1.665 0.426 3.211 1.328 4.451 0.103 0.142 0.1 0.336-0.016 0.468-0.261 0.294-0.492 0.625-0.682 0.982l-0.013 0.027c-0.125 0.238-0.453 0.276-0.623 0.067-1.251-1.546-2.002-3.513-2.002-5.652 0-4.987 4.077-9.040 9.074-9 4.849 0.039 8.824 3.963 8.924 8.811 0.046 2.21-0.71 4.245-1.995 5.836-0.171 0.212-0.5 0.18-0.627-0.062zM14 0c-7.737 0-14 6.262-14 14 0 5.125 2.735 9.535 6.725 11.968 0.27 0.165 0.611-0.058 0.567-0.372-0.078-0.559-0.144-1.109-0.194-1.627-0.011-0.111-0.069-0.206-0.153-0.267l-0.001-0.001c-3.013-2.198-4.968-5.763-4.944-9.776 0.040-6.477 5.272-11.789 11.748-11.922 6.732-0.139 12.252 5.297 12.252 11.997 0 3.982-1.95 7.517-4.944 9.701-0.085 0.062-0.143 0.158-0.154 0.267l-0 0.002c-0.050 0.519-0.117 1.068-0.194 1.627-0.044 0.313 0.297 0.537 0.567 0.372 3.95-2.41 6.725-6.796 6.725-11.968 0-7.737-6.262-14-14-14zM18 22.234c0 2.059-0.804 6.511-1.286 8.301-0.321 1.188-1.536 1.465-2.714 1.465s-2.393-0.277-2.714-1.465c-0.478-1.777-1.286-6.229-1.286-8.301 0-2.197 1.946-2.734 4-2.734s4 0.537 4 2.734zM16 22.234c0-1.020-4-1.019-4 0 0 1.73 0.717 5.863 1.188 7.672 0.377 0.126 1.247 0.126 1.624 0 0.47-1.806 1.188-5.941 1.188-7.672zM18 14c0 2.209-1.791 4-4 4s-4-1.791-4-4 1.791-4 4-4 4 1.791 4 4zM16 14c0-1.103-0.897-2-2-2s-2 0.897-2 2 0.897 2 2 2 2-0.897 2-2z"></path>
</svg>
