<!-- Generated by IcoMoon.io -->
<svg version="1.1" xmlns="http://www.w3.org/2000/svg" width="28" height="32" viewBox="0 0 28 32">
<title>podcast-solid</title>
<path d="M16.714 30.535c-0.321 1.188-1.536 1.465-2.714 1.465s-2.393-0.277-2.714-1.465c-0.478-1.777-1.286-6.229-1.286-8.301 0-2.197 1.946-2.734 4-2.734s4 0.537 4 2.734c0 2.059-0.804 6.511-1.286 8.301zM9.804 18.035c-1.168-1.144-1.872-2.761-1.799-4.537 0.128-3.108 2.65-5.622 5.758-5.743 3.416-0.132 6.237 2.608 6.237 5.995 0 1.677-0.692 3.195-1.804 4.285-0.167 0.164-0.15 0.437 0.039 0.574 0.582 0.423 1.029 0.959 1.327 1.585 0.109 0.228 0.406 0.291 0.591 0.118 1.802-1.69 2.91-4.111 2.844-6.785-0.116-4.763-3.975-8.638-8.737-8.773-5.081-0.144-9.26 3.947-9.26 8.996 0 2.585 1.096 4.919 2.847 6.562 0.185 0.173 0.482 0.111 0.591-0.118 0.298-0.626 0.745-1.162 1.327-1.585 0.189-0.137 0.207-0.41 0.039-0.574zM14 0c-7.737 0-14 6.262-14 14 0 5.625 3.288 10.353 7.859 12.588 0.271 0.132 0.579-0.096 0.533-0.394-0.149-0.97-0.271-1.934-0.338-2.771-0.009-0.115-0.072-0.218-0.167-0.282-2.963-1.988-4.91-5.376-4.887-9.209 0.037-6.015 4.956-10.915 10.971-10.931 6.079-0.016 11.029 4.925 11.029 11 0 3.871-2.010 7.281-5.041 9.242-0.062 0.877-0.192 1.912-0.352 2.952-0.046 0.298 0.263 0.527 0.533 0.394 4.56-2.23 7.859-6.951 7.859-12.588 0-7.737-6.262-14-14-14zM14 10c-2.209 0-4 1.791-4 4s1.791 4 4 4 4-1.791 4-4-1.791-4-4-4z"></path>
</svg>
