<!-- Generated by IcoMoon.io -->
<svg version="1.1" xmlns="http://www.w3.org/2000/svg" width="28" height="32" viewBox="0 0 28 32">
<title>podium-solid</title>
<path d="M27 9h-20.040c0.396-1.931 1.92-3.456 3.919-3.878 0.543 0.542 1.293 0.878 2.121 0.878h4c1.657 0 3-1.343 3-3s-1.343-3-3-3h-4c-1.379 0-2.528 0.936-2.879 2.203-3.255 0.726-5.736 3.441-6.161 6.797h-2.959c-0.552 0-1 0.447-1 1v1c0 0.553 0.448 1 1 1h26c0.552 0 1-0.447 1-1v-1c0-0.553-0.448-1-1-1zM25 29h-2.389l1.389-15h-20l1.389 15h-2.389c-0.553 0-1 0.448-1 1v1c0 0.552 0.447 1 1 1h22c0.552 0 1-0.448 1-1v-1c0-0.552-0.448-1-1-1z"></path>
</svg>
