<!-- Generated by IcoMoon.io -->
<svg version="1.1" xmlns="http://www.w3.org/2000/svg" width="28" height="32" viewBox="0 0 28 32">
<title>podium-star-solid</title>
<path d="M27 9h-20.038c0.394-1.931 1.919-3.456 3.919-3.875 0.544 0.544 1.294 0.875 2.119 0.875h4c1.656 0 3-1.344 3-3s-1.344-3-3-3h-4c-1.381 0-2.525 0.938-2.881 2.2-3.256 0.725-5.737 3.438-6.162 6.8h-2.956c-0.55 0-1 0.45-1 1v1c0 0.55 0.45 1 1 1h26c0.55 0 1-0.45 1-1v-1c0-0.55-0.45-1-1-1zM25 29h-2.387l1.387-15h-20l1.388 15h-2.388c-0.55 0-1 0.45-1 1v1c0 0.55 0.45 1 1 1h22c0.55 0 1-0.45 1-1v-1c0-0.55-0.45-1-1-1zM19.031 20.419l-2.063 2.012 0.488 2.844c0.087 0.512-0.45 0.894-0.906 0.656l-2.55-1.344-2.55 1.344c-0.45 0.238-0.994-0.144-0.906-0.656l0.488-2.844-2.063-2.012c-0.369-0.363-0.169-0.994 0.344-1.069l2.85-0.419 1.275-2.587c0.231-0.469 0.894-0.463 1.119 0l1.275 2.587 2.85 0.419c0.512 0.075 0.719 0.706 0.35 1.069z"></path>
</svg>
