<!-- Generated by IcoMoon.io -->
<svg version="1.1" xmlns="http://www.w3.org/2000/svg" width="28" height="32" viewBox="0 0 28 32">
<title>podium-star</title>
<path d="M27.5 10h-21.5v-1c0-2.487 1.825-4.537 4.206-4.919 0.438 1.119 1.519 1.919 2.794 1.919h4c1.656 0 3-1.344 3-3s-1.344-3-3-3h-4c-1.338 0-2.456 0.881-2.844 2.087-3.456 0.419-6.156 3.344-6.156 6.912v1h-3.5c-0.275 0-0.5 0.225-0.5 0.5v1c0 0.275 0.225 0.5 0.5 0.5h3.506v0.113l1.994 17.887h-3.5c-0.275 0-0.5 0.225-0.5 0.5v1c0 0.275 0.225 0.5 0.5 0.5h23c0.275 0 0.5-0.225 0.5-0.5v-1c0-0.275-0.225-0.5-0.5-0.5h-3.494l1.994-18h3.5c0.275 0 0.5-0.225 0.5-0.5v-1c0-0.275-0.225-0.5-0.5-0.5zM13 2h4c0.55 0 1 0.45 1 1s-0.45 1-1 1h-4c-0.55 0-1-0.45-1-1s0.45-1 1-1zM20 30h-12.006v-0.113l-1.994-17.887h15.994l-1.994 18zM10.256 21.631l-0.35 2.044c-0.1 0.594 0.137 1.181 0.631 1.531 0.275 0.2 0.594 0.3 0.912 0.3 0.25 0 0.494-0.063 0.725-0.181l1.831-0.962 1.825 0.962c0.525 0.275 1.156 0.238 1.644-0.119 0.488-0.35 0.725-0.938 0.625-1.531l-0.35-2.038 1.481-1.444c0.431-0.419 0.581-1.031 0.394-1.606-0.188-0.569-0.669-0.975-1.262-1.063l-2.044-0.3-0.912-1.856c-0.262-0.537-0.8-0.869-1.4-0.869s-1.137 0.331-1.4 0.869l-0.919 1.856-2.044 0.3c-0.594 0.087-1.075 0.494-1.262 1.063s-0.031 1.188 0.394 1.6l1.481 1.444zM13.012 19.050l0.988-2 0.988 2 2.206 0.325-1.6 1.563 0.375 2.2-1.969-1.044-1.975 1.038 0.375-2.2-1.6-1.563 2.213-0.319z"></path>
</svg>
