<!-- Generated by IcoMoon.io -->
<svg version="1.1" xmlns="http://www.w3.org/2000/svg" width="28" height="32" viewBox="0 0 28 32">
<title>podium</title>
<path d="M27.5 10h-21.5v-1c0-2.486 1.828-4.537 4.209-4.92 0.434 1.121 1.516 1.92 2.791 1.92h4c1.657 0 3-1.343 3-3s-1.343-3-3-3h-4c-1.336 0-2.454 0.879-2.842 2.085-3.459 0.422-6.157 3.344-6.157 6.915v1h-3.5c-0.276 0-0.5 0.224-0.5 0.5v1c0 0.276 0.224 0.5 0.5 0.5h3.506l0.001 0.111 1.994 17.889h-3.5c-0.276 0-0.5 0.224-0.5 0.5v1c0 0.276 0.224 0.5 0.5 0.5h23c0.276 0 0.5-0.224 0.5-0.5v-1c0-0.276-0.224-0.5-0.5-0.5h-3.494l1.994-18h3.5c0.276 0 0.5-0.224 0.5-0.5v-1c0-0.276-0.224-0.5-0.5-0.5zM13 2h4c0.551 0 1 0.449 1 1s-0.449 1-1 1h-4c-0.551 0-1-0.449-1-1s0.449-1 1-1zM20 30h-12.006l-0.001-0.111-1.994-17.889h15.994l-1.994 18z"></path>
</svg>
