<!-- Generated by IcoMoon.io -->
<svg version="1.1" xmlns="http://www.w3.org/2000/svg" width="24" height="32" viewBox="0 0 24 32">
<title>police-box</title>
<path d="M6.1 21h4.8c0.331-0 0.6-0.269 0.6-0.6v0-4.8c-0-0.331-0.269-0.6-0.6-0.6h-4.8c-0.331 0-0.6 0.269-0.6 0.6v0 4.8c0 0.331 0.269 0.6 0.6 0.6v0zM7 16.5h3v3h-3zM6.1 28h4.8c0.331-0 0.6-0.269 0.6-0.6v0-4.8c-0-0.331-0.269-0.6-0.6-0.6h-4.8c-0.331 0-0.6 0.269-0.6 0.6v0 4.8c0 0.331 0.269 0.6 0.6 0.6v0zM7 23.5h3v3h-3zM13.1 28h4.8c0.331-0 0.6-0.269 0.6-0.6v0-4.8c-0-0.331-0.269-0.6-0.6-0.6h-4.8c-0.331 0-0.6 0.269-0.6 0.6v0 4.8c0 0.331 0.269 0.6 0.6 0.6v0zM14 23.5h3v3h-3zM6.1 14h4.8c0.331-0 0.6-0.269 0.6-0.6v0-4.8c-0-0.331-0.269-0.6-0.6-0.6h-4.8c-0.331 0-0.6 0.269-0.6 0.6v0 4.8c0 0.331 0.269 0.6 0.6 0.6v0zM8.75 9.5h1.25v1.25h-1.25zM8.75 11.25h1.25v1.25h-1.25zM7 9.5h1.25v1.25h-1.25zM7 11.25h1.25v1.25h-1.25zM13.1 14h4.8c0.331-0 0.6-0.269 0.6-0.6v0-4.8c-0-0.331-0.269-0.6-0.6-0.6h-4.8c-0.331 0-0.6 0.269-0.6 0.6v0 4.8c0 0.331 0.269 0.6 0.6 0.6v0zM15.75 9.5h1.25v1.25h-1.25zM15.75 11.25h1.25v1.25h-1.25zM14 9.5h1.25v1.25h-1.25zM14 11.25h1.25v1.25h-1.25zM13.1 21h4.8c0.331-0 0.6-0.269 0.6-0.6v0-4.8c-0-0.331-0.269-0.6-0.6-0.6h-4.8c-0.331 0-0.6 0.269-0.6 0.6v0 4.8c0 0.331 0.269 0.6 0.6 0.6v0zM14 16.5h3v3h-3zM23.5 30h-1.5v-24.5c0 0 0 0 0 0 0-0.828-0.672-1.5-1.5-1.5 0 0 0 0 0 0h-0.501v-1c0-0 0-0 0-0 0-0.552-0.448-1-1-1-0 0-0 0-0 0h-5.999v-1c0-0.552-0.448-1-1-1s-1 0.448-1 1v0 1h-6c0 0-0 0-0 0-0.552 0-1 0.448-1 1 0 0 0 0 0 0v0 1h-0.5c0 0 0 0 0 0-0.828 0-1.5 0.672-1.5 1.5 0 0 0 0 0 0v0 24.5h-1.5c-0.276 0-0.5 0.224-0.5 0.5v0 1c0 0.276 0.224 0.5 0.5 0.5h23c0.276 0 0.5-0.224 0.5-0.5v0-1c0-0.276-0.224-0.5-0.5-0.5v0zM20 30h-16v-24h16z"></path>
</svg>
