<!-- Generated by IcoMoon.io -->
<svg version="1.1" xmlns="http://www.w3.org/2000/svg" width="24" height="32" viewBox="0 0 24 32">
<title>police-box-solid</title>
<path d="M23 29h-1v-23.5c0-0.828-0.672-1.5-1.5-1.5v0h-0.501v-1c0-0.552-0.448-1-1-1v0h-5.999v-1c0-0.552-0.448-1-1-1s-1 0.448-1 1v0 1h-6c-0.552 0-1 0.448-1 1v0 1h-0.5c-0.828 0-1.5 0.672-1.5 1.5v0 23.5h-1c-0.552 0-1 0.448-1 1v0 1c0 0.552 0.448 1 1 1v0h22c0.552 0 1-0.448 1-1v0-1c0-0.552-0.448-1-1-1v0zM10.5 8c0.276 0 0.5 0.224 0.5 0.5v0 1.5h-2v-2zM6.5 8h1.5v2h-2v-1.5c0-0.276 0.224-0.5 0.5-0.5v0zM6.5 13c-0.276 0-0.5-0.224-0.5-0.5v0-1.5h2v2zM11 19.5c0 0.276-0.224 0.5-0.5 0.5h-4c-0.276 0-0.5-0.224-0.5-0.5v0-4c0-0.276 0.224-0.5 0.5-0.5h4c0.276 0 0.5 0.224 0.5 0.5v0zM10.5 13h-1.5v-2h2v1.5c0 0.276-0.224 0.5-0.5 0.5v0zM17.5 8c0.276 0 0.5 0.224 0.5 0.5v0 1.5h-2v-2zM13.5 8h1.5v2h-2v-1.5c0-0.276 0.224-0.5 0.5-0.5v0zM13 12.5v-1.5h2v2h-1.5c-0.276 0-0.5-0.224-0.5-0.5v0zM17.5 13h-1.5v-2h2v1.5c0 0.276-0.224 0.5-0.5 0.5v0z"></path>
</svg>
