<!-- Generated by IcoMoon.io -->
<svg version="1.1" xmlns="http://www.w3.org/2000/svg" width="40" height="32" viewBox="0 0 40 32">
<title>poll-people</title>
<path d="M9.113 24.481c0.55-0.688 0.887-1.544 0.887-2.481 0-2.206-1.794-4-4-4s-4 1.794-4 4c0 0.944 0.344 1.8 0.888 2.481-1.7 0.8-2.888 2.519-2.888 4.519v1.1c0 1.050 0.85 1.9 1.9 1.9h8.2c1.050 0 1.9-0.85 1.9-1.9v-1.1c0-2-1.188-3.719-2.887-4.519zM6 20c1.106 0 2 0.9 2 2s-0.894 2-2 2-2-0.9-2-2 0.894-2 2-2zM2 30.1v-1.1c0-1.656 1.344-3 3-3h2c1.656 0 3 1.344 3 3l0.1 1-8.1 0.1zM9.113 6.481c0.55-0.688 0.887-1.544 0.887-2.481 0-2.206-1.794-4-4-4s-4 1.794-4 4c0 0.944 0.344 1.8 0.888 2.481-1.7 0.8-2.888 2.519-2.888 4.519v1.1c0 1.050 0.85 1.9 1.9 1.9h8.2c1.050 0 1.9-0.85 1.9-1.9v-1.1c0-2-1.188-3.719-2.887-4.519zM6 2c1.106 0 2 0.9 2 2s-0.894 2-2 2-2-0.9-2-2 0.894-2 2-2zM2 12.1v-1.1c0-1.656 1.344-3 3-3h2c1.656 0 3 1.344 3 3l0.1 1-8.1 0.1zM38.5 2h-23c-0.831 0-1.5 0.669-1.5 1.5v7c0 0.831 0.669 1.5 1.5 1.5h23c0.831 0 1.5-0.669 1.5-1.5v-7c0-0.831-0.669-1.5-1.5-1.5zM30 10h-14v-6h14v6zM38 10h-6v-6h6v6zM38.5 20h-23c-0.831 0-1.5 0.669-1.5 1.5v7c0 0.831 0.669 1.5 1.5 1.5h23c0.831 0 1.5-0.669 1.5-1.5v-7c0-0.831-0.669-1.5-1.5-1.5zM20 28h-4v-6h4v6zM38 28h-16v-6h16v6z"></path>
</svg>
