<!-- Generated by IcoMoon.io -->
<svg version="1.1" xmlns="http://www.w3.org/2000/svg" width="28" height="32" viewBox="0 0 28 32">
<title>poll-solid</title>
<path d="M25 2h-22c-1.656 0-3 1.344-3 3v22c0 1.656 1.344 3 3 3h22c1.656 0 3-1.344 3-3v-22c0-1.656-1.344-3-3-3zM10 23c0 0.552-0.447 1-1 1h-2c-0.553 0-1-0.448-1-1v-8c0-0.553 0.447-1 1-1h2c0.553 0 1 0.447 1 1v8zM16 23c0 0.552-0.447 1-1 1h-2c-0.553 0-1-0.448-1-1v-14c0-0.553 0.447-1 1-1h2c0.553 0 1 0.447 1 1v14zM22 23c0 0.552-0.448 1-1 1h-2c-0.552 0-1-0.448-1-1v-4c0-0.552 0.448-1 1-1h2c0.552 0 1 0.448 1 1v4z"></path>
</svg>
