<!-- Generated by IcoMoon.io -->
<svg version="1.1" xmlns="http://www.w3.org/2000/svg" width="40" height="32" viewBox="0 0 40 32">
<title>poll-people-solid</title>
<path d="M5 6c1.656 0 3-1.344 3-3s-1.344-3-3-3-3 1.344-3 3 1.344 3 3 3zM8 21c0-1.656-1.344-3-3-3s-3 1.344-3 3 1.344 3 3 3 3-1.344 3-3zM6 26h-2c-2.206 0-4 1.794-4 4v1c0 0.55 0.45 1 1 1h8c0.55 0 1-0.45 1-1v-1c0-2.206-1.794-4-4-4zM38.5 2h-23c-0.831 0-1.5 0.669-1.5 1.5v7c0 0.831 0.669 1.5 1.5 1.5h23c0.831 0 1.5-0.669 1.5-1.5v-7c0-0.831-0.669-1.5-1.5-1.5zM36 8h-4v-2h4v2zM6 8h-2c-2.206 0-4 1.794-4 4v1c0 0.55 0.45 1 1 1h8c0.55 0 1-0.45 1-1v-1c0-2.206-1.794-4-4-4zM38.5 20h-23c-0.831 0-1.5 0.669-1.5 1.5v7c0 0.831 0.669 1.5 1.5 1.5h23c0.831 0 1.5-0.669 1.5-1.5v-7c0-0.831-0.669-1.5-1.5-1.5zM36 26h-14v-2h14v2z"></path>
</svg>
