<!-- Generated by IcoMoon.io -->
<svg version="1.1" xmlns="http://www.w3.org/2000/svg" width="28" height="32" viewBox="0 0 28 32">
<title>poll-h-solid</title>
<path d="M28 27v-22c0-1.656-1.344-3-3-3h-22c-1.656 0-3 1.344-3 3v22c0 1.656 1.344 3 3 3h22c1.656 0 3-1.344 3-3zM7 12c-0.553 0-1-0.447-1-1v-2c0-0.553 0.447-1 1-1h8c0.553 0 1 0.447 1 1v2c0 0.553-0.447 1-1 1h-8zM7 18c-0.553 0-1-0.448-1-1v-2c0-0.553 0.447-1 1-1h14c0.552 0 1 0.447 1 1v2c0 0.552-0.448 1-1 1h-14zM7 24c-0.553 0-1-0.448-1-1v-2c0-0.552 0.447-1 1-1h4c0.553 0 1 0.448 1 1v2c0 0.552-0.447 1-1 1h-4z"></path>
</svg>
