<!-- Generated by IcoMoon.io -->
<svg version="1.1" xmlns="http://www.w3.org/2000/svg" width="28" height="32" viewBox="0 0 28 32">
<title>poo-storm</title>
<path d="M20 19h-3.719l0.688-2.756c0.075-0.3 0.006-0.613-0.181-0.856s-0.481-0.387-0.788-0.387h-5c-0.456 0-0.863 0.313-0.969 0.756l-2 8c-0.156 0.637 0.325 1.244 0.969 1.244h3.85l-0.838 5.856c-0.1 0.694 0.481 1.137 0.988 1.137 0.531 0 0.794-0.387 0.85-0.475 0.213-0.331 6.994-10.988 6.994-10.988 0.425-0.669-0.063-1.531-0.844-1.531zM14.644 26.575l0.35-2.431c0.044-0.288-0.044-0.575-0.238-0.794-0.188-0.219-0.469-0.344-0.756-0.344h-3.719l1.5-6h2.938l-0.688 2.756c-0.156 0.637 0.325 1.244 0.969 1.244h3.175c-1.506 2.369-2.662 4.181-3.531 5.569zM24.556 12.363c0.006-0.119 0.012-0.238 0.012-0.363 0-2.25-1.425-4.175-3.431-4.956v-0.044c0.006-3.862-3.2-7-7.137-7-0.406 0-0.775 0.050-1.113 0.1-0.694 0.106-1.281 0.569-1.544 1.212s-0.175 1.388 0.238 1.95c0.194 0.256 0.419 0.681 0.419 1.231 0 1.194-1.025 2.169-2.287 2.169h-0.856c-2.994 0-5.431 2.394-5.431 5.331 0 0.119 0.006 0.238 0.013 0.363-2.038 1.031-3.438 3.119-3.438 5.475 0 3.306 2.669 5.988 6 6.137 0-0.231 0.031-0.469 0.088-0.7l0.319-1.275h-0.119c-2.356 0.006-4.287-1.869-4.287-4.162 0-2.175 1.744-3.956 3.938-4.131-0.313-0.5-0.513-1.075-0.513-1.7 0-1.844 1.537-3.331 3.431-3.331h0.856c2.369 0 4.287-1.862 4.287-4.169 0-0.906-0.306-1.737-0.806-2.419 0.262-0.038 0.531-0.081 0.806-0.081 2.837 0 5.144 2.237 5.144 5 0 0.588-0.125 1.144-0.313 1.669h0.313c1.894 0 3.431 1.494 3.431 3.331 0 0.631-0.2 1.2-0.512 1.7 2.194 0.175 3.938 1.956 3.938 4.131 0 2.087-1.606 3.813-3.681 4.106-0.25 0.394-0.719 1.131-1.313 2.063h0.706c3.469 0 6.287-2.769 6.287-6.169 0-2.356-1.4-4.444-3.444-5.469z"></path>
</svg>
