<!-- Generated by IcoMoon.io -->
<svg version="1.1" xmlns="http://www.w3.org/2000/svg" width="28" height="32" viewBox="0 0 28 32">
<title>poo-storm-solid</title>
<path d="M19.25 21h-3.606l1.081-4.056c0.125-0.475-0.231-0.944-0.725-0.944h-4.25c-0.375 0-0.694 0.281-0.744 0.65l-1 7.5c-0.063 0.45 0.287 0.85 0.744 0.85h3.706l-1.438 6.075c-0.113 0.475 0.25 0.925 0.731 0.925 0.262 0 0.512-0.137 0.65-0.375l5.5-9.5c0.288-0.5-0.075-1.125-0.65-1.125zM23.4 14.044c0.369-0.6 0.6-1.287 0.6-2.044 0-2.206-1.794-4-4-4h-0.369c0.225-0.631 0.369-1.294 0.369-2 0-3.313-2.688-6-6-6-0.325 0-0.637 0.044-0.944 0.094 0.588 0.819 0.944 1.819 0.944 2.906 0 2.763-2.238 5-5 5h-1c-2.206 0-4 1.794-4 4 0 0.756 0.231 1.444 0.6 2.044-2.563 0.206-4.6 2.344-4.6 4.956 0 2.75 2.25 5 5 5h3.019c0.006-0.038 0-0.075 0-0.113l1-7.5c0.188-1.363 1.356-2.387 2.731-2.387h4.25c0.863 0 1.656 0.394 2.181 1.075s0.7 1.55 0.475 2.381l-0.413 1.544h1c0.981 0 1.894 0.525 2.381 1.375s0.488 1.906 0 2.75l-0.506 0.875h1.875c2.75 0 5-2.25 5-5 0.006-2.613-2.031-4.75-4.594-4.956z"></path>
</svg>
