<!-- Generated by IcoMoon.io -->
<svg version="1.1" xmlns="http://www.w3.org/2000/svg" width="32" height="32" viewBox="0 0 32 32">
<title>poo-solid</title>
<path d="M28.212 23.069c1.081-0.819 1.788-2.106 1.788-3.569 0-2.488-2.012-4.5-4.5-4.5h-0.881c0.837-0.731 1.381-1.8 1.381-3 0-2.206-1.794-4-4-4h-0.369c0.225-0.631 0.369-1.294 0.369-2 0-3.313-2.688-6-6-6-0.325 0-0.637 0.044-0.944 0.094 0.588 0.819 0.944 1.819 0.944 2.906 0 2.763-2.238 5-5 5h-1c-2.206 0-4 1.794-4 4 0 1.2 0.544 2.269 1.381 3h-0.881c-2.487 0-4.5 2.012-4.5 4.5 0 1.462 0.706 2.75 1.788 3.569-2.144 0.344-3.788 2.188-3.788 4.431 0 2.488 2.013 4.5 4.5 4.5h23c2.488 0 4.5-2.012 4.5-4.5 0-2.244-1.644-4.087-3.788-4.431zM12 16c1.106 0 2 0.894 2 2s-0.894 2-2 2-2-0.894-2-2 0.894-2 2-2zM21.969 24.688c-0.656 1.744-3.656 3.313-5.969 3.313s-5.313-1.569-5.969-3.313c-0.125-0.331 0.125-0.688 0.488-0.688h10.963c0.363 0 0.613 0.356 0.488 0.688zM20 20c-1.106 0-2-0.894-2-2s0.894-2 2-2 2 0.894 2 2-0.894 2-2 2z"></path>
</svg>
