<!-- Generated by IcoMoon.io -->
<svg version="1.1" xmlns="http://www.w3.org/2000/svg" width="32" height="32" viewBox="0 0 32 32">
<title>poo</title>
<path d="M21.481 23h-10.963c-0.363 0-0.613 0.356-0.488 0.688 0.656 1.744 3.65 3.313 5.969 3.313s5.313-1.569 5.969-3.313c0.125-0.331-0.125-0.688-0.488-0.688zM12 20c1.106 0 2-0.894 2-2s-0.894-2-2-2-2 0.894-2 2 0.894 2 2 2zM20 16c-1.106 0-2 0.894-2 2s0.894 2 2 2 2-0.894 2-2-0.894-2-2-2zM29.762 21.419c0.319-0.731 0.488-1.531 0.488-2.356 0-2.45-1.494-4.556-3.613-5.463 0.075-0.356 0.113-0.725 0.113-1.1 0-2.325-1.456-4.325-3.5-5.125v-0.125c0-4-3.25-7.25-7.25-7.25-0.425 0-0.794 0.056-1.137 0.106-0.688 0.106-1.262 0.563-1.531 1.206-0.269 0.637-0.181 1.375 0.219 1.938 0.206 0.288 0.45 0.756 0.45 1.375 0 1.313-1.063 2.375-2.375 2.375h-0.875c-3.031 0-5.5 2.469-5.5 5.5 0 0.369 0.037 0.738 0.112 1.1-2.119 0.906-3.612 3.013-3.612 5.463 0 0.825 0.169 1.625 0.487 2.356-1.375 1.087-2.237 2.769-2.237 4.644 0 3.275 2.663 5.938 5.938 5.938h20.125c3.275 0 5.938-2.663 5.938-5.938 0-1.875-0.863-3.556-2.238-4.644zM26.063 30h-20.125c-2.175 0-3.938-1.762-3.938-3.938 0-1.962 1.438-3.575 3.319-3.875-0.95-0.719-1.569-1.844-1.569-3.125 0-2.175 1.762-3.938 3.938-3.938h0.769c-0.731-0.644-1.206-1.575-1.206-2.625 0-1.931 1.569-3.5 3.5-3.5h0.875c2.419 0 4.375-1.956 4.375-4.375 0-0.95-0.313-1.825-0.825-2.544 0.269-0.044 0.544-0.081 0.825-0.081 2.9 0 5.25 2.35 5.25 5.25 0 0.619-0.125 1.2-0.319 1.75h0.319c1.931 0 3.5 1.569 3.5 3.5 0 1.050-0.475 1.981-1.206 2.625h0.769c2.175 0 3.938 1.762 3.938 3.938 0 1.281-0.619 2.406-1.569 3.125 1.875 0.3 3.319 1.913 3.319 3.875 0 2.175-1.762 3.938-3.938 3.938z"></path>
</svg>
