<!-- Generated by IcoMoon.io -->
<svg version="1.1" xmlns="http://www.w3.org/2000/svg" width="32" height="32" viewBox="0 0 32 32">
<title>poop</title>
<path d="M29.761 21.419c0.319-0.732 0.489-1.531 0.489-2.357 0-2.449-1.491-4.558-3.613-5.464 0.072-0.33 0.113-0.71 0.113-1.099v-0c0-2.328-1.454-4.322-3.501-5.124 0.001-0.042 0.001-0.084 0.001-0.126 0-3.998-3.253-7.25-7.25-7.25-0.424 0-0.796 0.053-1.14 0.108-0.696 0.113-1.263 0.573-1.527 1.192l-0.005 0.013c-0.098 0.228-0.154 0.492-0.154 0.77 0 0.438 0.141 0.842 0.379 1.172l-0.004-0.006c0.206 0.287 0.451 0.758 0.451 1.376 0 1.309-1.066 2.375-2.375 2.375h-0.875c-3.033 0-5.5 2.468-5.5 5.5 0 0.372 0.039 0.74 0.113 1.099-2.122 0.906-3.613 3.014-3.613 5.464 0 0.826 0.169 1.624 0.489 2.357-1.379 1.089-2.239 2.771-2.239 4.643 0 3.274 2.664 5.938 5.938 5.938h20.125c3.274 0 5.938-2.664 5.938-5.938 0-1.872-0.861-3.554-2.239-4.643zM26.063 30h-20.125c-2.174 0-3.938-1.763-3.938-3.938 0-1.962 1.439-3.576 3.316-3.875-0.946-0.719-1.566-1.845-1.566-3.125 0-2.174 1.763-3.938 3.938-3.938h0.769c-0.734-0.641-1.207-1.574-1.207-2.625 0-1.933 1.567-3.5 3.5-3.5h0.875c2.416 0 4.375-1.959 4.375-4.375 0-0.951-0.311-1.824-0.826-2.542 0.271-0.043 0.543-0.083 0.826-0.083 2.899 0 5.25 2.351 5.25 5.25 0 0.617-0.126 1.2-0.321 1.75h0.321c1.933 0 3.5 1.567 3.5 3.5 0 1.051-0.473 1.984-1.207 2.625h0.769c2.174 0 3.938 1.763 3.938 3.938 0 1.28-0.621 2.406-1.566 3.125 1.878 0.299 3.316 1.913 3.316 3.875 0 2.174-1.763 3.938-3.938 3.938z"></path>
</svg>
