<!-- Generated by IcoMoon.io -->
<svg version="1.1" xmlns="http://www.w3.org/2000/svg" width="32" height="32" viewBox="0 0 32 32">
<title>poop-solid</title>
<path d="M28.21 23.071c1.081-0.822 1.79-2.108 1.79-3.571 0-2.486-2.015-4.5-4.5-4.5h-0.879c0.839-0.733 1.379-1.799 1.379-3 0-2.209-1.791-4-4-4h-0.367c0.223-0.628 0.367-1.295 0.367-2 0-3.314-2.686-6-6-6-0.323 0-0.634 0.046-0.944 0.095 0.589 0.82 0.944 1.819 0.944 2.905 0 2.761-2.239 5-5 5h-1c-2.209 0-4 1.791-4 4 0 1.201 0.541 2.267 1.379 3h-0.879c-2.485 0-4.5 2.014-4.5 4.5 0 1.463 0.709 2.749 1.79 3.571-2.146 0.343-3.79 2.186-3.79 4.429 0 2.485 2.015 4.5 4.5 4.5h23c2.485 0 4.5-2.015 4.5-4.5 0-2.242-1.644-4.086-3.79-4.429z"></path>
</svg>
