<!-- Generated by IcoMoon.io -->
<svg version="1.1" xmlns="http://www.w3.org/2000/svg" width="32" height="32" viewBox="0 0 32 32">
<title>popcorn-solid</title>
<path d="M27.726 8.68c-0.435-0.725-1.186-1.221-2.058-1.299l-0.010-0.001c0.188-0.332 0.299-0.729 0.299-1.152 0-0.438-0.119-0.847-0.326-1.199l0.006 0.011c-0.569-1-1.75-1.481-2.847-1.261-0.021-1.040-0.717-2-1.813-2.339-0.249-0.083-0.536-0.132-0.834-0.132-0.607 0-1.167 0.2-1.619 0.537l0.007-0.005c-0.005-0.045-0.020-0.086-0.043-0.121l0.001 0.001c-0.444-1.32-1.941-2.020-3.333-1.596-0.815 0.259-1.444 0.886-1.702 1.681l-0.005 0.018c-0.44-0.321-0.991-0.513-1.587-0.513-0.3 0-0.588 0.049-0.858 0.139l0.019-0.006c-1.096 0.34-1.791 1.299-1.813 2.339-1.098-0.221-2.279 0.258-2.848 1.258-0.205 0.339-0.326 0.749-0.326 1.187 0 0.424 0.113 0.821 0.312 1.163l-0.006-0.011c-0.841 0.080-1.645 0.54-2.066 1.299-0.245 0.421-0.298 0.875-0.267 1.32h23.983c0.032-0.445-0.021-0.898-0.265-1.32zM22.9 12l-1.75 16h-2.813l1.351-16h-7.372l1.348 16h-2.816l-1.75-16h-5.098l2.744 18.297c0.15 0.97 0.978 1.703 1.978 1.703 0 0 0 0 0 0h14.555c0 0 0 0 0 0 1 0 1.828-0.734 1.976-1.692l0.001-0.011 2.744-18.297z"></path>
</svg>
