<!-- Generated by IcoMoon.io -->
<svg version="1.1" xmlns="http://www.w3.org/2000/svg" width="32" height="32" viewBox="0 0 32 32">
<title>portal-exit</title>
<path d="M28.75 13.5h-0.908l-0.564-1.695c-0.508-1.52-1.512-2.75-2.781-3.627 1.191-0.809 2.004-2.132 2.004-3.678 0-2.485-2.015-4.5-4.5-4.5s-4.5 2.015-4.5 4.5v0c0.002 0.532 0.098 1.042 0.272 1.513l-0.010-0.031c-0.503-0.128-1.080-0.201-1.674-0.201-1.338 0-2.588 0.372-3.654 1.018l0.031-0.018-2.887 1.504c-0.384 0.233-0.705 0.531-0.957 0.881l-0.007 0.010c-0.546-4.727-1.752-9.175-4.114-9.175-3.553 0-4.5 10.058-4.5 16s0.947 16 4.5 16c1.434 0 2.437-1.653 3.13-4h3.551c0.001 0 0.003 0 0.004 0 2.151 0 4-1.295 4.809-3.149l0.013-0.034 1.207-2.483 2.73 1.227-1.227 4.296c-0.079 0.267-0.125 0.574-0.125 0.892 0 1.477 0.984 2.724 2.332 3.121l0.023 0.006c0.268 0.079 0.576 0.124 0.894 0.125h0c1.475-0.005 2.719-0.987 3.119-2.332l0.006-0.023 1.523-5.338c0.126-0.429 0.198-0.922 0.198-1.431 0-1.128-0.355-2.173-0.96-3.030l0.011 0.017c0.361 0.087 0.775 0.138 1.201 0.138h1.807c1.795 0 3.25-1.455 3.25-3.25s-1.455-3.25-3.25-3.25v0zM22 2c1.381 0 2.5 1.119 2.5 2.5s-1.119 2.5-2.5 2.5c-1.381 0-2.5-1.119-2.5-2.5v0c0-0 0-0 0-0 0-1.381 1.119-2.5 2.5-2.5 0 0 0 0 0 0v0zM4.541 30.006c-0.887-0.343-2.541-5.456-2.541-14.006 0-8.417 1.604-13.503 2.5-13.986 0.896 0.483 2.5 5.569 2.5 13.986 0 1.054-0.026 2.053-0.072 3h1.994c0.051-1.062 0.077-2.083 0.077-3 0-0.819-0.020-1.72-0.061-2.658 0.588 0.605 1.409 0.98 2.318 0.98 0.588 0 1.139-0.157 1.614-0.431l-0.016 0.008 1.184-0.615-3.68 8.216h-3.109c-0.003 0-0.007-0-0.011-0-1.789 0-3.239 1.45-3.239 3.239 0 1.223 0.678 2.288 1.679 2.839l0.017 0.008c-0.416 1.453-0.847 2.289-1.155 2.42zM14.168 24.030c-0.465 1.087-1.801 1.97-2.984 1.97h-3.934c-0.69 0-1.25-0.56-1.25-1.25s0.56-1.25 1.25-1.25v0h3.932c0.308 0 0.572-0.185 0.688-0.45l0.002-0.005 1.67-3.555c0.449 0.816 1.084 1.48 1.85 1.951l0.023 0.013zM28.75 18h-1.811c-1.293 0-2.674-0.995-3.082-2.222l-0.85-2.55c-0.183-0.528-0.509-0.968-0.931-1.287l-0.007-0.005-2.592 6.48 3.299 1.482c1.139 0.528 1.915 1.661 1.915 2.975 0 0.314-0.044 0.618-0.127 0.906l0.006-0.023-1.525 5.336c-0.154 0.527-0.633 0.906-1.201 0.906-0 0-0 0-0 0h0c-0.122-0-0.241-0.018-0.353-0.050l0.009 0.002c-0.528-0.154-0.907-0.634-0.907-1.203 0-0.122 0.018-0.24 0.050-0.352l-0.002 0.009 1.525-5.336c0.018-0.061 0.028-0.131 0.028-0.204 0-0.303-0.179-0.565-0.437-0.685l-0.005-0.002s-5.363-2.44-5.545-2.573c-0.801-0.6-1.314-1.547-1.314-2.615 0-0.358 0.058-0.703 0.165-1.026l-0.007 0.023 2.359-5.473s-1.057-0.236-1.281-0.236c-0.52 0-1.006 0.147-1.418 0.401l0.012-0.007-2.828 1.47c-0.186 0.103-0.406 0.168-0.64 0.178l-0.003 0c-0 0-0 0-0.001 0-0.69 0-1.25-0.56-1.25-1.25 0-0.453 0.24-0.849 0.601-1.068l0.006-0.003 2.828-1.471c0.769-0.47 1.7-0.748 2.695-0.749h0c0.455 0.001 0.897 0.058 1.318 0.166l-0.037-0.008 4.262 1.065c1.754 0.444 3.133 1.732 3.696 3.396l0.011 0.037 0.85 2.55c0.102 0.3 0.381 0.513 0.711 0.513 0 0 0 0 0 0h1.809c0.69 0 1.25 0.56 1.25 1.25s-0.56 1.25-1.25 1.25v0z"></path>
</svg>
