<!-- Generated by IcoMoon.io -->
<svg version="1.1" xmlns="http://www.w3.org/2000/svg" width="32" height="32" viewBox="0 0 32 32">
<title>portal-enter-solid</title>
<path d="M27 0c-2.549 0-4.648 6.109-4.957 13.999h-0.795l-1.629-3.328c-0.781-1.597-2.216-2.764-3.861-3.184l-4.442-1.321c-0.423-0.107-0.909-0.168-1.408-0.168-1.378 0-2.647 0.466-3.658 1.25l0.014-0.010-2.478 1.9c-0.478 0.369-0.784 0.943-0.784 1.587 0 1.104 0.895 2 2 2 0.46 0 0.884-0.155 1.222-0.417l-0.005 0.003 2.48-1.9c0.479-0.368 1.090-0.5 1.579-0.384l0.919 0.273-2.341 5.462c-0.203 0.463-0.32 1.003-0.32 1.571 0 1.46 0.78 2.737 1.946 3.439l0.018 0.010 5.311 3.136-1.717 5.482c-0.058 0.179-0.092 0.385-0.092 0.599 0 1.105 0.895 2 2 2 0.892 0 1.647-0.583 1.905-1.389l0.004-0.014 1.978-6.316c0.071-0.244 0.112-0.525 0.112-0.815 0-1.092-0.581-2.049-1.451-2.577l-0.013-0.008-3.828-2.259 1.957-4.893 1.268 2.59c0.502 1.001 1.519 1.676 2.694 1.681h1.418c0.308 7.891 2.407 14.001 4.957 14.001 2.761 0 5-7.163 5-16s-2.239-16-5-16zM17 6c1.657 0 3-1.343 3-3s-1.343-3-3-3c-1.657 0-3 1.343-3 3v0c0 0 0 0 0 0 0 1.657 1.343 3 3 3 0 0 0 0 0 0h-0zM7.105 19.842l-0.925 2.157h-4.181c-1.105 0-2 0.895-2 2s0.895 2 2 2v0h4.841c0.001 0 0.002 0 0.004 0 1.228 0 2.284-0.74 2.746-1.798l0.008-0.019 0.549-1.283-0.666-0.394c-1.042-0.63-1.86-1.54-2.36-2.626l-0.015-0.037z"></path>
</svg>
