<!-- Generated by IcoMoon.io -->
<svg version="1.1" xmlns="http://www.w3.org/2000/svg" width="24" height="32" viewBox="0 0 24 32">
<title>portrait-solid</title>
<path d="M21 0h-18c-1.656 0-3 1.344-3 3v26c0 1.656 1.344 3 3 3h18c1.656 0 3-1.344 3-3v-26c0-1.656-1.344-3-3-3zM12 8c2.206 0 4 1.794 4 4s-1.794 4-4 4-4-1.794-4-4 1.794-4 4-4zM19 22.8c0 0.663-0.625 1.2-1.4 1.2h-11.2c-0.775 0-1.4-0.538-1.4-1.2v-1.2c0-1.988 1.881-3.6 4.2-3.6h0.313c0.769 0.319 1.606 0.5 2.488 0.5s1.725-0.181 2.488-0.5h0.313c2.319 0 4.2 1.613 4.2 3.6v1.2z"></path>
</svg>
