<!-- Generated by IcoMoon.io -->
<svg version="1.1" xmlns="http://www.w3.org/2000/svg" width="20" height="32" viewBox="0 0 20 32">
<title>pound-sign</title>
<path d="M19.25 23h-1.006c-0.414 0-0.75 0.336-0.75 0.75v3.9h-11.396v-9.65h6.653c0.414 0 0.75-0.336 0.75-0.75v-0.5c0-0.414-0.336-0.75-0.75-0.75h-6.653v-6.599c0-2.624 1.919-4.895 5.365-4.895 1.744 0 3.212 0.772 3.964 1.258 0.319 0.207 0.743 0.138 0.985-0.156l0.667-0.813c0.28-0.342 0.205-0.85-0.161-1.098-0.957-0.647-2.905-1.698-5.453-1.698-4.739 0-8.106 3.133-8.106 7.245v6.755h-2.106c-0.414 0-0.75 0.336-0.75 0.75v0.5c0 0.414 0.336 0.75 0.75 0.75h2.106v9.69h-2.606c-0.414 0-0.75 0.336-0.75 0.75v0.811c0 0.414 0.336 0.75 0.75 0.75h18.5c0.414 0 0.75-0.336 0.75-0.75v-5.5c0-0.414-0.336-0.75-0.75-0.75z"></path>
</svg>
