<!-- Generated by IcoMoon.io -->
<svg version="1.1" xmlns="http://www.w3.org/2000/svg" width="20" height="32" viewBox="0 0 20 32">
<title>pound-sign-solid</title>
<path d="M19.25 22h-2.843c-0.414 0-0.75 0.336-0.75 0.75v3.178h-7.657v-7.928h5.25c0.414 0 0.75-0.336 0.75-0.75v-2.5c0-0.414-0.336-0.75-0.75-0.75h-5.25v-3.972c0-2.017 1.535-3.568 3.862-3.568 1.479 0 2.867 0.719 3.603 1.178 0.322 0.201 0.743 0.128 0.98-0.168l1.781-2.22c0.265-0.33 0.205-0.813-0.132-1.068-1.024-0.773-3.308-2.183-6.348-2.183-5.119 0-8.746 3.296-8.746 7.873v4.127h-1.75c-0.414 0-0.75 0.336-0.75 0.75v2.5c0 0.414 0.336 0.75 0.75 0.75h1.75v8h-2.25c-0.414 0-0.75 0.336-0.75 0.75v2.5c0 0.414 0.336 0.75 0.75 0.75h18.5c0.414 0 0.75-0.336 0.75-0.75v-6.5c0-0.414-0.336-0.75-0.75-0.75z"></path>
</svg>
