<!-- Generated by IcoMoon.io -->
<svg version="1.1" xmlns="http://www.w3.org/2000/svg" width="32" height="32" viewBox="0 0 32 32">
<title>power-off-solid</title>
<path d="M25 3.381c3.938 2.812 6.5 7.412 6.5 12.619 0 8.55-6.925 15.481-15.469 15.5-8.531 0.019-15.519-6.938-15.531-15.475-0.006-5.206 2.556-9.819 6.487-12.637 0.731-0.519 1.75-0.3 2.188 0.481l0.988 1.756c0.369 0.656 0.194 1.487-0.412 1.938-2.594 1.925-4.25 4.975-4.25 8.431-0.006 5.769 4.656 10.506 10.5 10.506 5.725 0 10.538-4.637 10.5-10.569-0.019-3.237-1.544-6.362-4.256-8.375-0.606-0.45-0.775-1.281-0.406-1.931l0.988-1.756c0.438-0.775 1.45-1.006 2.175-0.487zM18.5 16.5v-15c0-0.831-0.669-1.5-1.5-1.5h-2c-0.831 0-1.5 0.669-1.5 1.5v15c0 0.831 0.669 1.5 1.5 1.5h2c0.831 0 1.5-0.669 1.5-1.5z"></path>
</svg>
