<!-- Generated by IcoMoon.io -->
<svg version="1.1" xmlns="http://www.w3.org/2000/svg" width="24" height="32" viewBox="0 0 24 32">
<title>pray</title>
<path d="M15 9c2.481 0 4.5-2.019 4.5-4.5s-2.019-4.5-4.5-4.5-4.5 2.019-4.5 4.5 2.019 4.5 4.5 4.5zM15 2c1.378 0 2.5 1.122 2.5 2.5s-1.122 2.5-2.5 2.5-2.5-1.122-2.5-2.5 1.122-2.5 2.5-2.5zM13.703 20.431c1.281 1.526 3.441 1.258 4.41 0.191l5.008-5.5c1.171-1.172 1.171-3.071 0-4.242s-3.071-1.172-4.242 0l-2.644 3.106-1.957-2.197c-0.953-1.135-2.374-1.787-3.899-1.787-2.408 0-3.866 1.515-4.448 2.596l-3.086 5.752c-1.438 2.683-0.857 5.762 1.339 7.652h-1.184c-1.654 0-3 1.346-3 3s1.346 3 3 3h12.627c1.303 0 2.461-0.831 2.881-2.067 0.404-1.189 0.032-2.444-0.949-3.199l-6.422-4.684 1.531-2.851 1.035 1.232zM8.551 22.639l7.788 5.68c0.694 0.534 0.206 1.681-0.713 1.681h-12.626c-0.551 0-1-0.448-1-1s0.449-1 1-1h8.641l-5.627-3.126c-2-1.277-2.482-3.573-1.406-5.58l3.084-5.749c0.857-1.589 3.534-2.284 5.055-0.472l3.396 4.042 4.15-4.822c0.391-0.391 1.024-0.391 1.414 0s0.391 1.024 0 1.414l-5.074 5.569c-0.479 0.396-1.101 0.222-1.399-0.133l-2.934-3.49-3.749 6.985z"></path>
</svg>
