<!-- Generated by IcoMoon.io -->
<svg version="1.1" xmlns="http://www.w3.org/2000/svg" width="40" height="32" viewBox="0 0 40 32">
<title>praying-hands</title>
<path d="M31.411 21.264l7.941 2.499c0.321 0.099 0.647-0.141 0.647-0.478v-1.046c0-0.219-0.143-0.413-0.353-0.478l-7.646-2.409v-4.157c0-1.393-0.363-2.761-1.054-3.969l-5.405-9.46c-0.621-1.089-1.786-1.766-3.041-1.766-0.924 0-1.829 0.376-2.499 1.059-0.671-0.683-1.575-1.059-2.499-1.059-1.255 0-2.42 0.677-3.041 1.766l-5.406 9.461c-0.663 1.14-1.054 2.509-1.054 3.969 0 0 0 0 0 0.001v-0 4.157l-7.647 2.408c-0.206 0.065-0.353 0.254-0.353 0.478v1.046c0 0.336 0.326 0.577 0.647 0.478l7.941-2.499c0.839-0.258 1.411-1.034 1.411-1.911v-4.157c0-1.044 0.273-2.071 0.791-2.977l5.407-9.463c0.433-0.76 1.365-0.948 2.047-0.559 0.719 0.411 0.969 1.328 0.559 2.047l-4.012 7.021c-0.497 0.855-0.791 1.882-0.791 2.977v5.258c0 0.276 0.224 0.5 0.5 0.5h1c0.276 0 0.5-0.224 0.5-0.5v-4c0-0.828 0.672-1.5 1.5-1.5s1.5 0.672 1.5 1.5v5.38c0 2.241-1.492 4.209-3.649 4.814l-14.986 4.285c-0.212 0.061-0.365 0.253-0.365 0.481v1.039c0 0.331 0.316 0.571 0.635 0.481l15.256-4.361c1.776-0.498 3.212-1.664 4.109-3.171 0.897 1.506 2.334 2.672 4.109 3.171l15.256 4.361c0.319 0.089 0.635-0.15 0.635-0.481v-1.039c0-0.224-0.149-0.421-0.365-0.481l-14.986-4.285c-2.158-0.606-3.649-2.573-3.649-4.814v-5.38c0-0.828 0.672-1.5 1.5-1.5s1.5 0.672 1.5 1.5v4c0 0.276 0.224 0.5 0.5 0.5h1c0.276 0 0.5-0.224 0.5-0.5v-5.258c0-1.044-0.273-2.071-0.791-2.977l-4.012-7.021c-0.41-0.719-0.16-1.636 0.559-2.047 0.686-0.391 1.617-0.196 2.047 0.559l5.407 9.462c0.497 0.855 0.791 1.882 0.791 2.977v0 4.157c-0.001 0.878 0.572 1.652 1.411 1.911zM23.392 12.116c-0.397-0.105-0.821-0.141-1.26-0.096-0.854 0.088-1.586 0.514-2.132 1.122-0.546-0.608-1.278-1.034-2.132-1.122-0.438-0.045-0.863-0.009-1.26 0.096l3.392-5.935 3.392 5.935z"></path>
</svg>
