<!-- Generated by IcoMoon.io -->
<svg version="1.1" xmlns="http://www.w3.org/2000/svg" width="40" height="32" viewBox="0 0 40 32">
<title>praying-hands-solid</title>
<path d="M17 11.994c-1.1 0-2 0.9-2 2v5c0 0.552-0.447 1-1 1s-1-0.448-1-1v-4.784c0-1.087 0.295-2.154 0.856-3.087l4.859-8.099c0.568-0.947 0.262-2.176-0.686-2.744-0.903-0.542-2.045-0.269-2.644 0.576-0.012 0.014-0.039 0.013-0.049 0.030l-7.329 10.994c-0.66 0.99-1.008 2.141-1.008 3.327v5.014l-5.633 1.878c-0.801 0.272-1.367 1.018-1.367 1.896 0 0 0 0 0 0.001v-0 6c0 0.676 0.532 2 2 2 0.168 0 0.338-0.021 0.504-0.064l11.199-2.914c3.119-0.892 5.297-3.779 5.297-7.022v-8c0-1.1-0.9-2-2-2zM38.633 22.102l-5.633-1.878v-5.014c0-1.186-0.347-2.337-1.008-3.327l-7.329-10.993c-0.011-0.017-0.037-0.015-0.049-0.030-0.599-0.844-1.741-1.117-2.644-0.576-0.948 0.568-1.254 1.797-0.686 2.744l4.859 8.099c0.561 0.932 0.856 2 0.856 3.087v4.784c0 0.552-0.448 1-1 1s-1-0.448-1-1v-5c0-1.1-0.9-2-2-2s-2 0.9-2 2v8c0 3.243 2.177 6.13 5.297 7.021l11.199 2.914c0.166 0.043 0.336 0.064 0.504 0.064 1.468 0 2-1.324 2-2v-6c0-0.861-0.551-1.624-1.367-1.897z"></path>
</svg>
