<!-- Generated by IcoMoon.io -->
<svg version="1.1" xmlns="http://www.w3.org/2000/svg" width="24" height="32" viewBox="0 0 24 32">
<title>pray-solid</title>
<path d="M16 8c2.209 0 4-1.791 4-4s-1.791-4-4-4-4 1.791-4 4 1.791 4 4 4zM14.086 18.609c0.879 1.045 2.438 1.193 3.498 0.326l5.5-4.501c1.068-0.874 1.224-2.449 0.351-3.518-0.873-1.069-2.449-1.224-3.519-0.351l-3.59 2.938-2.432-2.894c-0.965-1.149-2.451-1.745-4-1.583-1.512 0.155-2.828 1.017-3.523 2.308l-3.086 5.752c-1.462 2.727-0.543 6.023 2.137 7.734l2.801 2.181h-5.723c-1.381 0-2.5 1.119-2.5 2.5s1.119 2.5 2.5 2.5h13c2.13 0 3.361-2.674 1.768-4.267l-6.866-6.866 2.175-4.054 1.509 1.797z"></path>
</svg>
