<!-- Generated by IcoMoon.io -->
<svg version="1.1" xmlns="http://www.w3.org/2000/svg" width="24" height="32" viewBox="0 0 24 32">
<title>prescription-bottle-alt</title>
<path d="M6.5 20h3.5v3.5c0 0.275 0.225 0.5 0.5 0.5h3c0.275 0 0.5-0.225 0.5-0.5v-3.5h3.5c0.275 0 0.5-0.225 0.5-0.5v-3c0-0.275-0.225-0.5-0.5-0.5h-3.5v-3.5c0-0.275-0.225-0.5-0.5-0.5h-3c-0.275 0-0.5 0.225-0.5 0.5v3.5h-3.5c-0.275 0-0.5 0.225-0.5 0.5v3c0 0.275 0.225 0.5 0.5 0.5zM22.5 0h-21c-0.825 0-1.5 0.675-1.5 1.5v5c0 0.825 0.675 1.5 1.5 1.5h0.5v22c0 1.1 0.9 2 2 2h16c1.1 0 2-0.9 2-2v-22h0.5c0.825 0 1.5-0.675 1.5-1.5v-5c0-0.825-0.675-1.5-1.5-1.5zM20 30h-16v-22h16v22zM22 6h-20v-4h20v4z"></path>
</svg>
