<!-- Generated by IcoMoon.io -->
<svg version="1.1" xmlns="http://www.w3.org/2000/svg" width="24" height="32" viewBox="0 0 24 32">
<title>prescription</title>
<path d="M17.414 22l6.439-6.439c0.195-0.195 0.195-0.512 0-0.707l-0.707-0.707c-0.195-0.195-0.512-0.195-0.707 0l-6.44 6.439-6.586-6.586h0.586c3.314 0 6-2.686 6-6s-2.686-6-6-6h-9.5c-0.276 0-0.5 0.224-0.5 0.5v17c0 0.276 0.224 0.5 0.5 0.5h1c0.276 0 0.5-0.224 0.5-0.5v-5.5h4.586l8 8-6.439 6.439c-0.195 0.195-0.195 0.512 0 0.707l0.707 0.707c0.195 0.195 0.512 0.195 0.707 0l6.44-6.439 6.439 6.439c0.195 0.195 0.512 0.195 0.707 0l0.707-0.707c0.195-0.195 0.195-0.512 0-0.707l-6.439-6.44zM2 12v-8h8c2.206 0 4 1.794 4 4s-1.794 4-4 4h-8z"></path>
</svg>
