<!-- Generated by IcoMoon.io -->
<svg version="1.1" xmlns="http://www.w3.org/2000/svg" width="24" height="32" viewBox="0 0 24 32">
<title>prescription-bottle-solid</title>
<path d="M2 12h7.5c0.275 0 0.5 0.225 0.5 0.5v1c0 0.275-0.225 0.5-0.5 0.5h-7.5v4h7.5c0.275 0 0.5 0.225 0.5 0.5v1c0 0.275-0.225 0.5-0.5 0.5h-7.5v4h7.5c0.275 0 0.5 0.225 0.5 0.5v1c0 0.275-0.225 0.5-0.5 0.5h-7.5v4c0 1.1 0.9 2 2 2h16c1.1 0 2-0.9 2-2v-22h-20v4zM22.5 0h-21c-0.825 0-1.5 0.675-1.5 1.5v3c0 0.825 0.675 1.5 1.5 1.5h21c0.825 0 1.5-0.675 1.5-1.5v-3c0-0.825-0.675-1.5-1.5-1.5z"></path>
</svg>
