<!-- Generated by IcoMoon.io -->
<svg version="1.1" xmlns="http://www.w3.org/2000/svg" width="36" height="32" viewBox="0 0 36 32">
<title>presentation-solid</title>
<path d="M35 0h-34c-0.552 0-1 0.448-1 1v2c0 0.553 0.448 1 1 1h1v16c0 1.104 0.896 2 2 2h12v2.172l-4.707 4.707c-0.391 0.391-0.391 1.024 0 1.414l1.414 1.414c0.391 0.391 1.024 0.391 1.414 0l3.879-3.879 3.879 3.879c0.391 0.391 1.024 0.391 1.414 0l1.414-1.414c0.391-0.391 0.391-1.024 0-1.414l-4.707-4.707v-2.172h12c1.104 0 2-0.896 2-2v-16h1c0.553 0 1-0.447 1-1v-2c0-0.552-0.447-1-1-1zM30 18h-24v-14h24v14z"></path>
</svg>
