<!-- Generated by IcoMoon.io -->
<svg version="1.1" xmlns="http://www.w3.org/2000/svg" width="36" height="32" viewBox="0 0 36 32">
<title>presentation</title>
<path d="M35.5 0h-35c-0.276 0-0.5 0.224-0.5 0.501v1.002c0 0.277 0.224 0.501 0.5 0.501h1.5v17.986c0 1.106 0.896 2.006 2 2.006h13v3.071l-5.354 5.368c-0.195 0.196-0.195 0.513 0 0.709l0.707 0.709c0.090 0.091 0.215 0.147 0.353 0.147s0.263-0.056 0.353-0.147l4.94-4.953 4.939 4.953c0.090 0.091 0.215 0.147 0.353 0.147s0.263-0.056 0.353-0.147l0.707-0.709c0.195-0.196 0.195-0.513 0-0.709l-5.353-5.368v-3.071h13c1.104 0 2-0.9 2-2.006v-17.986h1.5c0.276 0 0.5-0.224 0.5-0.501v-1.003c0-0.277-0.224-0.501-0.5-0.501zM32 20h-28v-18h28v18z"></path>
</svg>
