<!-- Generated by IcoMoon.io -->
<svg version="1.1" xmlns="http://www.w3.org/2000/svg" width="24" height="32" viewBox="0 0 24 32">
<title>prescription-solid</title>
<path d="M18.829 22l4.879-4.879c0.391-0.391 0.391-1.024 0-1.414l-1.414-1.414c-0.391-0.391-1.024-0.391-1.414 0l-4.879 4.879-5.247-5.247c2.954-0.374 5.247-2.868 5.247-5.924 0-3.314-2.686-6-6-6h-9c-0.552 0-1 0.447-1 1v16c0 0.552 0.448 1 1 1h2c0.553 0 1-0.448 1-1v-5h1.172l8 8-4.879 4.879c-0.391 0.391-0.391 1.024 0 1.414l1.414 1.414c0.391 0.391 1.024 0.391 1.414 0l4.878-4.879 4.879 4.879c0.391 0.391 1.024 0.391 1.414 0l1.414-1.414c0.391-0.391 0.391-1.024 0-1.414l-4.879-4.878zM4 6h6c1.102 0 2 0.897 2 2s-0.898 2-2 2h-6v-4z"></path>
</svg>
