<!-- Generated by IcoMoon.io -->
<svg version="1.1" xmlns="http://www.w3.org/2000/svg" width="40" height="32" viewBox="0 0 40 32">
<title>print-slash-solid</title>
<path d="M12 28v-6h5.951l-12.109-9.359c-1.106 0.712-1.842 1.947-1.842 3.359v7c0 0.552 0.447 1 1 1h3v6c0 1.104 0.896 2 2 2h20c0.25 0 0.485-0.058 0.706-0.142l-4.991-3.858h-13.714zM39.614 28.631l-5.992-4.631h1.378c0.553 0 1-0.448 1-1v-7c0-2.209-1.791-4-4-4v-7.172c0-0.531-0.211-1.039-0.586-1.414l-2.829-2.828c-0.375-0.375-0.884-0.586-1.414-0.586h-17.171c-1.104 0-2 0.896-2 2v2.197l-5.158-3.987c-0.436-0.339-1.065-0.261-1.404 0.176l-1.228 1.579c-0.339 0.436-0.261 1.064 0.176 1.403l36.773 28.421c0.436 0.339 1.064 0.261 1.404-0.176l1.227-1.579c0.338-0.436 0.26-1.064-0.176-1.403zM28 14h-7.317l-8.683-6.711v-3.289h12v3c0 0.553 0.448 1 1 1h3v6zM31 18.5c-0.828 0-1.5-0.672-1.5-1.5s0.672-1.5 1.5-1.5 1.5 0.671 1.5 1.5c0 0.828-0.672 1.5-1.5 1.5z"></path>
</svg>
