<!-- Generated by IcoMoon.io -->
<svg version="1.1" xmlns="http://www.w3.org/2000/svg" width="40" height="32" viewBox="0 0 40 32">
<title>print-slash</title>
<path d="M39.813 30.325l-38.375-30.212c-0.212-0.175-0.531-0.144-0.7 0.075l-0.625 0.781c-0.175 0.219-0.138 0.531 0.075 0.7l38.375 30.219c0.212 0.175 0.531 0.137 0.7-0.075l0.625-0.781c0.175-0.219 0.144-0.531-0.075-0.706zM12.006 2h9.994v4c0 1.106 0.894 2 2 2h4v4h-8.231l2.538 2h8.688c1.656 0 3 1.344 3 3v5h-1.531l2.538 2c0.55-0.006 0.994-0.45 0.994-1v-6c0-2.762-2.237-5-5-5h-1v-5.175c0-0.531-0.212-1.038-0.587-1.413l-4.819-4.825c-0.375-0.375-0.881-0.588-1.413-0.588h-11.269c-1.056 0-1.906 0.894-1.906 2v2.306l2.006 1.581zM24 2.825l3.175 3.175h-3.175zM28 30h-16v-6h13.313l-2.538-2h-16.775v-5c0-1.656 1.344-3 3-3h3.613l-2.613-2.056v0.056h-1c-2.763 0-5 2.238-5 5v6c0 0.55 0.45 1 1 1h5v7c0 0.55 0.45 1 1 1h18c0.55 0 1-0.45 1-1v-3.306l-2-1.575zM27.5 18c0 0.038 0.019 0.069 0.019 0.1l1.712 1.35c0.712-0.119 1.262-0.706 1.262-1.45 0-0.831-0.675-1.5-1.5-1.5s-1.494 0.669-1.494 1.5z"></path>
</svg>
