<!-- Generated by IcoMoon.io -->
<svg version="1.1" xmlns="http://www.w3.org/2000/svg" width="40" height="32" viewBox="0 0 40 32">
<title>print-search-solid</title>
<path d="M8 28v-6h10.202c-0.128-0.601-0.202-1.292-0.202-2v-0c0-2.26 0.782-4.324 2.051-6h-12.051v-10h12v3c0 0.552 0.448 1 1 1v0h3v2.848c1.177-0.534 2.552-0.846 3.999-0.848h0.001v-5.172c0-0 0-0 0-0 0-0.552-0.224-1.052-0.586-1.414l-2.829-2.828c-0.362-0.362-0.862-0.586-1.414-0.586-0 0-0 0-0 0h-17.171c-1.105 0-2 0.895-2 2v0 10c-2.209 0-4 1.791-4 4v0 7c0 0.552 0.448 1 1 1v0h3v6c0 1.105 0.895 2 2 2v0h20c1.105 0 2-0.895 2-2v0c-2.231 0-4.273-0.76-5.938-2zM39.707 28.879l-4.838-4.838c0.701-1.188 1.131-2.559 1.131-4.041 0-4.418-3.582-8-8-8s-8 3.582-8 8c0 4.418 3.582 8 8 8v0c1.481 0 2.851-0.43 4.041-1.132l4.838 4.839c0.181 0.181 0.431 0.293 0.707 0.293s0.526-0.112 0.707-0.293l1.414-1.414c0.181-0.181 0.293-0.431 0.293-0.707s-0.112-0.526-0.293-0.707v0zM28 24c-2.209 0-4-1.791-4-4s1.791-4 4-4c2.209 0 4 1.791 4 4v0c0 2.209-1.791 4-4 4v0z"></path>
</svg>
