<!-- Generated by IcoMoon.io -->
<svg version="1.1" xmlns="http://www.w3.org/2000/svg" width="40" height="32" viewBox="0 0 40 32">
<title>print-search</title>
<path d="M39.854 30.438l-5.563-5.563c2.438-3.138 2.246-7.654-0.636-10.536-1.439-1.399-3.406-2.261-5.574-2.261-4.418 0-8 3.582-8 8 0 2.168 0.862 4.135 2.263 5.575l-0.002-0.002c2.882 2.882 7.398 3.071 10.536 0.636l5.563 5.563c0.090 0.091 0.216 0.147 0.354 0.147s0.263-0.056 0.354-0.147v0l0.707-0.707c0.089-0.090 0.145-0.215 0.145-0.352s-0.056-0.263-0.147-0.354v0zM28 26c-3.314 0-6-2.686-6-6s2.686-6 6-6c3.314 0 6 2.686 6 6v0c0 3.314-2.686 6-6 6v0zM24 30h-16v-6h10.859c-0.261-0.57-0.484-1.239-0.634-1.934l-0.012-0.066h-16.214v-5c0.002-1.656 1.344-2.998 3-3h15.055c0.726-0.962 0.844-1.136 2.004-2h-14.059l0.006-10h9.994v4c0 1.105 0.895 2 2 2v0h4v2.848c0.571-0.262 1.239-0.484 1.935-0.633l0.065-0.012v-3.375c0-0 0-0 0-0 0-0.552-0.224-1.052-0.586-1.414l-4.829-4.827c-0.362-0.362-0.862-0.586-1.414-0.586-0 0-0 0-0 0h-11.266c-1.053 0-1.905 0.896-1.905 2v10h-1c-2.761 0-5 2.239-5 5v0 6c0 0.552 0.448 1 1 1v0h5v7c0 0.552 0.448 1 1 1v0h18c0.552 0 1-0.448 1-1v0-1.203c-0.761-0.161-1.429-0.383-2.062-0.67l0.062 0.025zM20 2.828l3.172 3.172h-3.172z"></path>
</svg>
