<!-- Generated by IcoMoon.io -->
<svg version="1.1" xmlns="http://www.w3.org/2000/svg" width="40" height="32" viewBox="0 0 40 32">
<title>procedures-solid</title>
<path d="M33 14h-16c-0.55 0-1 0.45-1 1v9h-12v-15c0-0.55-0.45-1-1-1h-2c-0.55 0-1 0.45-1 1v22c0 0.55 0.45 1 1 1h2c0.55 0 1-0.45 1-1v-3h32v3c0 0.55 0.45 1 1 1h2c0.55 0 1-0.45 1-1v-10c0-3.869-3.131-7-7-7zM8.5 6h7.881l1.725 3.45c0.369 0.738 1.419 0.738 1.788 0l3.106-6.213 1.381 2.763h7.619c0.55 0 1-0.45 1-1s-0.45-1-1-1h-6.381l-1.725-3.45c-0.369-0.738-1.419-0.738-1.788 0l-3.106 6.213-1.244-2.487c-0.087-0.169-0.256-0.275-0.45-0.275h-8.806c-0.275 0-0.5 0.225-0.5 0.5v1c0 0.275 0.225 0.5 0.5 0.5zM10 22c2.206 0 4-1.794 4-4s-1.794-4-4-4-4 1.794-4 4 1.794 4 4 4z"></path>
</svg>
