<!-- Generated by IcoMoon.io -->
<svg version="1.1" xmlns="http://www.w3.org/2000/svg" width="40" height="32" viewBox="0 0 40 32">
<title>procedures</title>
<path d="M9 24c2.756 0 5-2.244 5-5s-2.244-5-5-5-5 2.244-5 5 2.244 5 5 5zM9 16c1.656 0 3 1.344 3 3s-1.344 3-3 3-3-1.344-3-3 1.344-3 3-3zM33 14h-16c-0.55 0-1 0.45-1 1v11h-14v-17.5c0-0.275-0.225-0.5-0.5-0.5h-1c-0.275 0-0.5 0.225-0.5 0.5v23c0 0.275 0.225 0.5 0.5 0.5h1c0.275 0 0.5-0.225 0.5-0.5v-3.5h36v3.5c0 0.275 0.225 0.5 0.5 0.5h1c0.275 0 0.5-0.225 0.5-0.5v-10.5c0-3.869-3.131-7-7-7zM38 26h-20v-10h15c2.763 0 5 2.238 5 5v5zM8.5 6h7.881l1.725 3.45c0.369 0.738 1.419 0.738 1.788 0l3.106-6.213 1.381 2.763h7.619c0.55 0 1-0.45 1-1s-0.45-1-1-1h-6.381l-1.725-3.45c-0.369-0.738-1.419-0.738-1.788 0l-3.106 6.213-1.244-2.487c-0.087-0.169-0.256-0.275-0.45-0.275h-8.806c-0.275 0-0.5 0.225-0.5 0.5v1c0 0.275 0.225 0.5 0.5 0.5z"></path>
</svg>
