<!-- Generated by IcoMoon.io -->
<svg version="1.1" xmlns="http://www.w3.org/2000/svg" width="40" height="32" viewBox="0 0 40 32">
<title>project-diagram</title>
<path d="M37 0h-6c-1.657 0-3 1.343-3 3v2h-16v-2c0-1.657-1.343-3-3-3h-6c-1.657 0-3 1.343-3 3v6c0 1.657 1.343 3 3 3h5.929l5.547 9.388c-0.298 0.466-0.477 1.017-0.477 1.612v6c0 1.657 1.343 3 3 3h6c1.657 0 3-1.343 3-3v-6c0-1.657-1.343-3-3-3h-6c-0.325 0-0.632 0.065-0.925 0.161l-5.214-8.824c0.69-0.55 1.14-1.387 1.14-2.337v-2h16v2c0 1.657 1.343 3 3 3h6c1.657 0 3-1.343 3-3v-6c0-1.657-1.343-3-3-3zM2 9v-6c0-0.551 0.449-1 1-1h6c0.551 0 1 0.449 1 1v6c0 0.551-0.449 1-1 1h-6c-0.551 0-1-0.449-1-1zM23 22c0.551 0 1 0.449 1 1v6c0 0.551-0.449 1-1 1h-6c-0.551 0-1-0.449-1-1v-6c0-0.551 0.449-1 1-1h6zM38 9c0 0.551-0.449 1-1 1h-6c-0.551 0-1-0.449-1-1v-6c0-0.551 0.449-1 1-1h6c0.551 0 1 0.449 1 1v6z"></path>
</svg>
