<!-- Generated by IcoMoon.io -->
<svg version="1.1" xmlns="http://www.w3.org/2000/svg" width="40" height="32" viewBox="0 0 40 32">
<title>projector</title>
<path d="M21.096 8.511c0.090 0.090 0.215 0.146 0.353 0.146s0.263-0.056 0.353-0.146v0l0.707-0.707c0.090-0.090 0.146-0.215 0.146-0.353s-0.056-0.263-0.146-0.353l-4.947-4.95c-0.090-0.090-0.215-0.146-0.353-0.146s-0.263 0.056-0.353 0.146v0l-0.709 0.708c-0.090 0.090-0.146 0.215-0.146 0.353s0.056 0.263 0.146 0.353v0zM32.197 8.511c0.090 0.090 0.215 0.146 0.353 0.146s0.263-0.056 0.353-0.146l4.95-4.948c0.090-0.090 0.146-0.215 0.146-0.353s-0.056-0.263-0.146-0.353v0l-0.708-0.709c-0.090-0.090-0.215-0.146-0.353-0.146s-0.263 0.056-0.353 0.146l-4.949 4.95c-0.090 0.090-0.146 0.215-0.146 0.353s0.056 0.263 0.146 0.353v0zM26.5 8h1c0.276 0 0.5-0.224 0.5-0.5v0-7c0-0.276-0.224-0.5-0.5-0.5v0h-1c-0.276 0-0.5 0.224-0.5 0.5v0 7c0 0.276 0.224 0.5 0.5 0.5v0zM37 12h-6.957c-1.22-0.618-2.581-1-4.043-1s-2.822 0.382-4.043 1h-18.957c-1.657 0-3 1.343-3 3v0 10c0 1.657 1.343 3 3 3v0h3v3.5c0 0.276 0.224 0.5 0.5 0.5v0h1c0.276 0 0.5-0.224 0.5-0.5v0-3.5h13.957c1.22 0.618 2.581 1 4.043 1s2.822-0.382 4.043-1h1.957v3.5c0 0.276 0.224 0.5 0.5 0.5v0h1c0.276 0 0.5-0.224 0.5-0.5v0-3.5h3c1.657 0 3-1.343 3-3v0-10c0-1.657-1.343-3-3-3v0zM3 26c-0.552 0-1-0.448-1-1v0-10c0-0.552 0.448-1 1-1v0h16.336c-1.437 1.595-2.336 3.688-2.336 6s0.899 4.405 2.336 6zM26 27c-3.866 0-7-3.134-7-7s3.134-7 7-7c3.866 0 7 3.134 7 7v0c-0.006 3.864-3.136 6.994-6.999 7h-0.001zM38 25c0 0.552-0.448 1-1 1v0h-4.336c1.438-1.595 2.336-3.684 2.336-6s-0.899-4.405-2.336-6h4.336c0.552 0 1 0.448 1 1v0zM6.5 18.5c-0.828 0-1.5 0.672-1.5 1.5s0.672 1.5 1.5 1.5c0.828 0 1.5-0.672 1.5-1.5v0c0-0.828-0.672-1.5-1.5-1.5v0zM11.5 18.5c-0.828 0-1.5 0.672-1.5 1.5s0.672 1.5 1.5 1.5c0.828 0 1.5-0.672 1.5-1.5v0c0-0.828-0.672-1.5-1.5-1.5v0z"></path>
</svg>
