<!-- Generated by IcoMoon.io -->
<svg version="1.1" xmlns="http://www.w3.org/2000/svg" width="40" height="32" viewBox="0 0 40 32">
<title>projector-solid</title>
<path d="M37 12h-5.88c2.919 1.529 4.877 4.535 4.88 8v0c0 3.869-2.455 7.176-5.889 8.446l0.701 2.797c0.112 0.438 0.503 0.757 0.968 0.758h2.438c0.466-0 0.857-0.319 0.968-0.751l0.002-0.007 0.813-3.242h1c1.657 0 3-1.343 3-3v0-10c0-1.657-1.343-3-3-3v0zM18 20c0.003-3.465 1.961-6.471 4.831-7.976l0.049-0.024h-19.88c-1.657 0-3 1.343-3 3v0 10c0 1.657 1.343 3 3 3v0h1l0.813 3.242c0.112 0.438 0.503 0.757 0.968 0.758h2.438c0.466-0 0.857-0.319 0.968-0.751l0.002-0.007 0.813-3.242h12.88c-2.919-1.529-4.877-4.535-4.88-8v-0zM6 22c-1.105 0-2-0.895-2-2s0.895-2 2-2c1.105 0 2 0.895 2 2v0c0 1.105-0.895 2-2 2v0zM12 22c-1.105 0-2-0.895-2-2s0.895-2 2-2c1.105 0 2 0.895 2 2v0c0 1.105-0.895 2-2 2v0zM34 20c0-3.866-3.134-7-7-7s-7 3.134-7 7c0 3.866 3.134 7 7 7v0c3.864-0.006 6.994-3.136 7-6.999v-0.001zM26.5 17.5c-1.105 0-2 0.895-2 2v0c0 0.552-0.448 1-1 1s-1-0.448-1-1v0c0.003-2.208 1.792-3.998 4-4h0c0.552 0 1 0.448 1 1s-0.448 1-1 1v0zM26.5 8h1c0.552 0 1-0.448 1-1v0-6c0-0.552-0.448-1-1-1v0h-1c-0.552 0-1 0.448-1 1v0 6c0 0.552 0.448 1 1 1v0zM32.353 8.353c0.181 0.181 0.431 0.293 0.707 0.293s0.526-0.112 0.707-0.293l4.242-4.242c0.181-0.181 0.293-0.431 0.293-0.707s-0.112-0.526-0.293-0.707l-0.707-0.707c-0.181-0.181-0.431-0.293-0.707-0.293s-0.526 0.112-0.707 0.293l-4.242 4.243c-0.181 0.181-0.293 0.431-0.293 0.707s0.112 0.526 0.293 0.707v0zM20.233 8.353c0.181 0.181 0.431 0.293 0.707 0.293s0.526-0.112 0.707-0.293l0.707-0.707c0.181-0.181 0.293-0.431 0.293-0.707s-0.112-0.526-0.293-0.707l-4.242-4.243c-0.181-0.181-0.431-0.293-0.707-0.293s-0.526 0.112-0.707 0.293l-0.707 0.707c-0.181 0.181-0.293 0.431-0.293 0.707s0.112 0.526 0.293 0.707v0z"></path>
</svg>
