<!-- Generated by IcoMoon.io -->
<svg version="1.1" xmlns="http://www.w3.org/2000/svg" width="40" height="32" viewBox="0 0 40 32">
<title>project-diagram-solid</title>
<path d="M24 20h-8c-1.104 0-2 0.896-2 2v8c0 1.104 0.896 2 2 2h8c1.104 0 2-0.896 2-2v-8c0-1.104-0.896-2-2-2zM12 2c0-1.104-0.896-2-2-2h-8c-1.104 0-2 0.896-2 2v8c0 1.104 0.896 2 2 2h5.982l4.572 8.002c0.694-1.191 1.97-2.003 3.445-2.003h0.017l-4.018-7.031v-2.969h14v-4h-14v-2zM38 0h-8c-1.104 0-2 0.896-2 2v8c0 1.104 0.896 2 2 2h8c1.104 0 2-0.896 2-2v-8c0-1.104-0.896-2-2-2z"></path>
</svg>
