<!-- Generated by IcoMoon.io -->
<svg version="1.1" xmlns="http://www.w3.org/2000/svg" width="24" height="32" viewBox="0 0 24 32">
<title>pump-soap-solid</title>
<path d="M14.727 10h-9.454c-0 0-0 0-0 0-2.082 0-3.792 1.59-3.982 3.622l-0.001 0.016-1.272 14c-0.010 0.108-0.016 0.234-0.016 0.362 0 2.209 1.791 4 3.999 4h12c0 0 0 0 0 0 2.209 0 4-1.791 4-4 0-0.127-0.006-0.253-0.018-0.378l0.001 0.016-1.273-14c-0.192-2.048-1.902-3.638-3.984-3.638-0 0-0.001 0-0.001 0h0zM10 26c-2.070 0-3.75-1.646-3.75-3.672 0-1.563 2.231-4.717 3.25-6.079 0.115-0.152 0.296-0.249 0.5-0.249s0.385 0.098 0.499 0.249l0.001 0.002c1.021 1.363 3.25 4.517 3.25 6.079 0 2.025-1.68 3.671-3.75 3.671zM23.707 5.879l-2.707-2.708c-0.724-0.724-1.724-1.171-2.828-1.171 0 0 0 0-0 0h-4.172c0-1.105-0.895-2-2-2v0h-4c-1.105 0-2 0.895-2 2v0 6h8v-2h4.172l2.707 2.707c0.181 0.181 0.431 0.293 0.707 0.293s0.526-0.112 0.707-0.293l1.414-1.414c0.181-0.181 0.293-0.431 0.293-0.707s-0.112-0.526-0.293-0.707v0z"></path>
</svg>
