<!-- Generated by IcoMoon.io -->
<svg version="1.1" xmlns="http://www.w3.org/2000/svg" width="36" height="32" viewBox="0 0 36 32">
<title>pumpkin</title>
<path d="M30.922 6.907c-2.157-2.035-5.339-2.449-7.922-1.226v-2.444c0-0.762-0.424-1.448-1.106-1.789l-2.476-1.239c-0.498-0.248-1.086-0.278-1.604-0.079-0.519 0.198-0.938 0.608-1.146 1.127l-1.794 4.484c-0.299 0.152-0.588 0.324-0.859 0.524-2.713-1.893-6.486-1.673-8.938 0.641-3.276 3.088-5.078 7.204-5.078 11.59s1.802 8.5 5.078 11.588c2.449 2.311 6.221 2.538 8.938 0.642 1.737 1.278 3.898 1.273 3.984 1.273 0.411 0 2.325-0.052 3.984-1.273 1.219 0.849 2.649 1.273 4.076 1.273 1.758 0 3.51-0.639 4.861-1.914 3.276-3.087 5.078-7.203 5.078-11.589s-1.803-8.501-5.078-11.589zM18 29.994c-7.568 0-7.766-22.994 0-22.994 7.576 0 7.763 22.994 0 22.994zM18.526 1.999l2.474 1.238v2.444c-1.138-0.549-2.434-0.749-3.698-0.626l1.224-3.057zM6.449 28.63c-2.869-2.706-4.449-6.304-4.449-10.134s1.58-7.428 4.449-10.134c1.738-1.638 4.501-1.771 6.436-0.418-1.789 2.578-2.638 6.515-2.638 10.452 0 3.299 0.574 6.417 1.617 8.779 0.323 0.732 0.681 1.321 1.049 1.852-1.934 1.373-4.716 1.249-6.464-0.398zM29.551 28.63c-1.734 1.634-4.489 1.769-6.421 0.429 1.782-2.582 2.623-6.523 2.623-10.454 0-4.014-0.856-8.027-2.66-10.644 1.933-1.369 4.711-1.246 6.458 0.402 2.869 2.706 4.449 6.304 4.449 10.134s-1.58 7.428-4.449 10.134z"></path>
</svg>
