<!-- Generated by IcoMoon.io -->
<svg version="1.1" xmlns="http://www.w3.org/2000/svg" width="36" height="32" viewBox="0 0 36 32">
<title>pumpkin-solid</title>
<path d="M22 7.076v-4.838c0-0.379-0.214-0.725-0.552-0.894l-2.475-1.238c-0.523-0.262-1.159-0.020-1.376 0.523l-2.347 5.866c0.829-0.296 1.723-0.496 2.75-0.496 1.573 0 2.889 0.383 4 1.076zM30.956 9.571c-1.976-1.689-4.925-1.981-7.282-0.941 0.192 0.248 0.407 0.461 0.576 0.745 0.52 0.892 0.906 1.986 1.194 3.226-0.231-0.551-0.497-1.054-0.804-1.508-1.417-2.063-3.63-3.094-6.641-3.094s-5.224 1.031-6.641 3.094c-0.306 0.453-0.573 0.956-0.804 1.507 0.288-1.24 0.674-2.334 1.194-3.226 0.168-0.284 0.383-0.497 0.576-0.745-2.357-1.040-5.306-0.749-7.282 0.941-6.725 5.751-6.725 15.107 0 20.859 2.414 2.064 6.301 2.084 8.758 0.078 1.114 0.962 2.494 1.492 4.199 1.492s3.084-0.531 4.199-1.492c2.456 2.006 6.343 1.986 8.758-0.078 6.724-5.751 6.724-15.108-0.001-20.859z"></path>
</svg>
