<!-- Generated by IcoMoon.io -->
<svg version="1.1" xmlns="http://www.w3.org/2000/svg" width="24" height="32" viewBox="0 0 24 32">
<title>pump-medical-solid</title>
<path d="M14.719 9.989h-9.454c-2.081 0-3.791 1.589-3.982 3.62l-0.001 0.016-1.273 14c-0.010 0.109-0.016 0.235-0.016 0.363 0 2.209 1.791 4 4 4 0 0 0 0 0 0h12c2.209-0 4-1.791 4-4 0-0.128-0.006-0.254-0.018-0.378l0.001 0.016-1.273-14c-0.192-2.047-1.902-3.636-3.983-3.636h-0zM14.992 20.822c-0 0.46-0.373 0.833-0.834 0.834h-2.5v2.5c0 0.46-0.373 0.833-0.833 0.833h-1.667c-0.46 0-0.833-0.373-0.833-0.833v0-2.5h-2.5c-0.46-0-0.833-0.373-0.833-0.834 0 0 0 0 0 0v0-1.666c0-0 0-0 0-0.001 0-0.46 0.373-0.833 0.833-0.833h2.5v-2.5c0-0.46 0.373-0.833 0.833-0.833v0h1.667c0.46 0 0.833 0.373 0.833 0.833v0 2.5h2.5c0.46 0 0.834 0.373 0.834 0.834v0zM23.699 5.867l-2.707-2.708c-0.724-0.724-1.723-1.171-2.827-1.171h-4.172c0-1.105-0.895-2-2-2v0h-4c-1.105 0-2 0.895-2 2v0 6h8v-2h4.172l2.707 2.707c0.181 0.181 0.431 0.293 0.707 0.293s0.526-0.112 0.707-0.293l1.414-1.414c0.181-0.181 0.293-0.431 0.293-0.707s-0.112-0.526-0.293-0.707v0z"></path>
</svg>
