<!-- Generated by IcoMoon.io -->
<svg version="1.1" xmlns="http://www.w3.org/2000/svg" width="24" height="32" viewBox="0 0 24 32">
<title>pump-medical</title>
<path d="M14.167 17.333h-2.5v-2.5c0-0.46-0.373-0.833-0.833-0.833-0 0-0 0-0.001 0h-1.666c-0 0-0 0-0.001 0-0.46 0-0.833 0.373-0.833 0.833v0 2.5h-2.5c-0.46 0-0.833 0.373-0.833 0.833 0 0 0 0 0 0.001v-0 1.666c0 0 0 0 0 0.001 0 0.46 0.373 0.833 0.833 0.833h2.5v2.5c0 0.46 0.373 0.833 0.833 0.833 0 0 0 0 0.001 0h1.666c0 0 0 0 0.001 0 0.46 0 0.833-0.373 0.833-0.833v0-2.5h2.5c0.46 0 0.833-0.373 0.833-0.833 0-0 0-0 0-0.001v0-1.666c0-0 0-0 0-0.001 0-0.46-0.373-0.833-0.833-0.833v0zM23.707 6.293l-3-3c-0.181-0.181-0.431-0.293-0.707-0.293h-5v-1c0-1.105-0.895-2-2-2v0h-6c-1.105 0-2 0.895-2 2v0 6.026c-1.96 0.133-3.525 1.663-3.709 3.596l-0.001 0.016-1.272 16c-0.010 0.108-0.016 0.234-0.016 0.362 0 2.209 1.791 4 3.999 4h12c0 0 0 0 0 0 2.209 0 4-1.791 4-4 0-0.127-0.006-0.253-0.018-0.378l0.001 0.016-1.273-16c-0.186-1.949-1.751-3.48-3.699-3.612l-0.012-0.001v-3.026h4.586l2.707 2.707c0.179 0.17 0.422 0.275 0.689 0.275 0.552 0 1-0.448 1-1 0-0.267-0.105-0.51-0.275-0.689l0 0zM7 2h6v6h-6zM16.717 11.796l1.274 16.023c0.005 0.054 0.008 0.117 0.008 0.181 0 1.104-0.895 2-1.999 2h-12c-0 0-0 0-0 0-1.105 0-2-0.895-2-2 0-0.072 0.004-0.143 0.011-0.212l-0.001 0.009 1.271-15.977c0.089-0.979 0.872-1.749 1.849-1.818l0.006-0h9.726c0.975 0.069 1.754 0.827 1.853 1.788l0.001 0.009z"></path>
</svg>
