<!-- Generated by IcoMoon.io -->
<svg version="1.1" xmlns="http://www.w3.org/2000/svg" width="36" height="32" viewBox="0 0 36 32">
<title>puzzle-piece</title>
<path d="M31.662 16c-3.269 0-4.501 2.907-5.454 1.719-1.258-1.568-0.127-6.702 0.217-8.246-2.139 0.398-8.578 1.517-10.24 0.136-1.039-0.863 1.957-2.719 1.957-5.403-0-2.58-2.114-4.206-4.714-4.206-2.722 0-5.3 1.601-5.3 4.301 0 3.314 2.869 4.475 1.522 5.538-1.776 1.401-7.441 0.193-9.65-0.337v21.582c2.082 0.501 4.418 0.916 6.635 0.915 2.643 0 5.365-0.74 5.365-3.383 0-1.834-2-2.552-2-4.617 0-1.527 1.408-2 2.936-2 2.419 0 3.064 1.257 3.064 2 0 1.799-2.142 2.272-2.142 4.786 0 0.859 0.313 1.59 0.906 2.114 2.197 1.942 6.67 0.395 11.693 0.393-0.060-0.214-1.675-5.42-0.481-6.994 1.045-1.376 3.036 1.819 5.782 1.819 2.631 0 4.242-2.517 4.242-5.118 0-2.677-1.639-5-4.338-5zM31.758 24.118c-1.875 0-2.585-2.118-5.095-2.118-3.348 0-3.428 4.061-2.767 7.364-2.275 0.214-6.689 1.027-7.808 0.038-1.258-1.112 1.911-2.634 1.911-5.402 0-2.355-2.082-4-5.064-4-4.686 0-6.43 3.739-3.51 7.627 0.295 0.393 0.574 0.765 0.574 0.99 0 2.106-5.875 1.289-8 0.87v-17.489c3.953 0.729 10 1.133 10-2.907 0-1.785-1.872-2.686-1.872-4.79 0-1.542 1.763-2.301 3.3-2.301 1.252 0 2.714 0.578 2.714 2.206 0 1.839-2.142 2.547-2.142 5.038 0 3.614 6.303 3.183 9.889 2.693-0.505 3.393-0.516 8.062 2.929 8.062 1.821 0 2.73-2 4.844-2 1.56 0 2.338 1.456 2.338 3 0 2.151-1.311 3.118-2.242 3.118z"></path>
</svg>
