<!-- Generated by IcoMoon.io -->
<svg version="1.1" xmlns="http://www.w3.org/2000/svg" width="36" height="32" viewBox="0 0 36 32">
<title>puzzle-piece-solid</title>
<path d="M32.465 18.041c-2.595 0-3.719 1.975-5.129 1.975-3.748 0-0.337-11.015-0.337-11.015s-12.268 5-12.268-0.206c0-2.239 2.268-2.891 2.268-5.374 0-2.219-1.757-3.42-3.841-3.42-2.166 0-4.148 1.181-4.148 3.522 0 2.585 1.982 3.705 1.982 5.109 0 4.351-10.993 1.791-10.993 1.791v20.827s11.165 2.565 11.165-1.791c0-1.405-2.5-2.507-2.5-5.092 0-2.341 1.828-3.522 3.974-3.522 2.105 0 3.862 1.201 3.862 3.42 0 2.483-2.268 3.135-2.268 5.374 0 3.8 8.105 1.608 11.327 1.608 0 0-2.17-7.506 1.614-7.506 2.248 0 2.901 2.259 5.394 2.259 2.227 0 3.433-1.751 3.433-3.847 0-2.137-1.185-4.112-3.535-4.112z"></path>
</svg>
