<!-- Generated by IcoMoon.io -->
<svg version="1.1" xmlns="http://www.w3.org/2000/svg" width="28" height="32" viewBox="0 0 28 32">
<title>question-square</title>
<path d="M25 2h-22c-1.657 0-3 1.343-3 3v22c0 1.657 1.343 3 3 3h22c1.657 0 3-1.343 3-3v-22c0-1.657-1.343-3-3-3zM26 27c0 0.551-0.449 1-1 1h-22c-0.551 0-1-0.449-1-1v-22c0-0.551 0.449-1 1-1h22c0.551 0 1 0.449 1 1v22zM14 21.25c-0.966 0-1.75 0.784-1.75 1.75s0.784 1.75 1.75 1.75 1.75-0.784 1.75-1.75-0.784-1.75-1.75-1.75zM14.479 19.75h-1c-0.414 0-0.75-0.336-0.75-0.75v-0.024c0-4.396 4.84-3.976 4.84-6.713 0-1.251-1.11-2.513-3.59-2.513-1.822 0-2.767 0.603-3.701 1.793-0.244 0.311-0.691 0.375-1.015 0.149l-0.821-0.572c-0.352-0.245-0.429-0.736-0.165-1.074 1.327-1.702 2.901-2.796 5.702-2.796 3.27 0 6.090 1.859 6.090 5.013 0 4.213-4.84 3.991-4.84 6.713v0.024c0 0.414-0.336 0.75-0.75 0.75z"></path>
</svg>
