<!-- Generated by IcoMoon.io -->
<svg version="1.1" xmlns="http://www.w3.org/2000/svg" width="32" height="32" viewBox="0 0 32 32">
<title>question-circle</title>
<path d="M16 21.25c-0.966 0-1.75 0.784-1.75 1.75s0.784 1.75 1.75 1.75 1.75-0.784 1.75-1.75-0.784-1.75-1.75-1.75zM16.479 19.75h-1c-0.414 0-0.75-0.336-0.75-0.75v-0.024c0-4.396 4.84-3.976 4.84-6.713 0-1.251-1.11-2.513-3.59-2.513-1.822 0-2.767 0.603-3.701 1.793-0.244 0.311-0.691 0.375-1.015 0.149l-0.821-0.572c-0.352-0.245-0.429-0.736-0.165-1.074 1.327-1.702 2.901-2.796 5.702-2.796 3.27 0 6.090 1.859 6.090 5.013 0 4.213-4.84 3.991-4.84 6.713v0.024c0 0.414-0.336 0.75-0.75 0.75zM16 2.5c7.414 0 13.5 6.005 13.5 13.5 0 7.456-6.038 13.5-13.5 13.5-7.453 0-13.5-6.035-13.5-13.5 0-7.45 6.038-13.5 13.5-13.5zM16 0.5c-8.56 0-15.5 6.943-15.5 15.5 0 8.562 6.94 15.5 15.5 15.5s15.5-6.938 15.5-15.5c0-8.557-6.94-15.5-15.5-15.5z"></path>
</svg>
