<!-- Generated by IcoMoon.io -->
<svg version="1.1" xmlns="http://www.w3.org/2000/svg" width="24" height="32" viewBox="0 0 24 32">
<title>question-solid</title>
<path d="M12.626 0c-4.989 0-8.22 2.044-10.757 5.689-0.46 0.661-0.318 1.568 0.324 2.055l2.696 2.044c0.648 0.492 1.571 0.377 2.078-0.259 1.566-1.961 2.727-3.091 5.172-3.091 1.923 0 4.301 1.237 4.301 3.102 0 1.409-1.164 2.133-3.062 3.198-2.214 1.241-5.144 2.786-5.144 6.65v0.612c0 0.828 0.672 1.5 1.5 1.5h4.529c0.828 0 1.5-0.672 1.5-1.5v-0.361c0-2.679 7.829-2.79 7.829-10.039 0-5.459-5.663-9.6-10.968-9.6zM12 23.341c-2.387 0-4.329 1.942-4.329 4.329s1.942 4.329 4.329 4.329 4.329-1.942 4.329-4.329-1.942-4.329-4.329-4.329z"></path>
</svg>
