<!-- Generated by IcoMoon.io -->
<svg version="1.1" xmlns="http://www.w3.org/2000/svg" width="24" height="32" viewBox="0 0 24 32">
<title>question</title>
<path d="M12.521 0c-4.769 0-8.161 1.975-10.759 5.831-0.888 1.319-0.591 3.105 0.677 4.066l2.627 1.992c1.294 0.981 3.147 0.76 4.167-0.532 1.342-1.699 1.773-1.998 2.883-1.998 0.639 0 1.581 0.437 1.581 1.14 0 1.608-6.831 1.296-6.831 7.641v0.859c0 1 0.493 1.887 1.248 2.433-1.292 1.101-2.114 2.74-2.114 4.567 0 3.308 2.692 6 6 6s6-2.692 6-6c0-1.827-0.821-3.466-2.114-4.567 0.755-0.545 1.248-1.432 1.248-2.433v-0.294c1.587-1.187 6.518-2.781 6.518-8.714 0-5.692-5.63-9.992-11.131-9.992zM12 30c-2.206 0-4-1.794-4-4s1.794-4 4-4 4 1.794 4 4-1.794 4-4 4zM15.134 18.35v0.65c0 0.552-0.448 1-1 1h-4.268c-0.552 0-1-0.448-1-1v-0.859c0-5.424 6.831-3.583 6.831-7.641 0-2-1.98-3.14-3.581-3.14-2.111 0-3.073 1.011-4.453 2.758-0.338 0.428-0.955 0.507-1.39 0.178l-2.627-1.992c-0.422-0.32-0.522-0.915-0.226-1.355 2.134-3.168 4.851-4.949 9.101-4.949 4.416 0 9.131 3.447 9.131 7.992 0 6.035-6.518 6.128-6.518 8.358z"></path>
</svg>
