<!-- Generated by IcoMoon.io -->
<svg version="1.1" xmlns="http://www.w3.org/2000/svg" width="28" height="32" viewBox="0 0 28 32">
<title>question-square-solid</title>
<path d="M25 2h-22c-1.657 0-3 1.343-3 3v22c0 1.657 1.343 3 3 3h22c1.657 0 3-1.343 3-3v-22c0-1.657-1.343-3-3-3zM14 26.875c-1.585 0-2.875-1.29-2.875-2.875s1.29-2.875 2.875-2.875 2.875 1.29 2.875 2.875c0 1.585-1.29 2.875-2.875 2.875zM16.5 18.667v0.083c0 0.414-0.336 0.75-0.75 0.75h-3.5c-0.414 0-0.75-0.336-0.75-0.75v-0.25c0-2.566 1.945-3.592 3.416-4.416 1.261-0.707 2.033-1.188 2.033-2.123 0-1.238-1.579-2.060-2.856-2.060-1.699 0-2.465 0.821-3.581 2.237-0.253 0.321-0.716 0.379-1.042 0.133l-2.169-1.644c-0.317-0.24-0.391-0.686-0.17-1.016 1.706-2.55 3.878-3.985 7.284-3.985 3.523 0 7.283 2.75 7.283 6.375 0 4.814-5.199 4.888-5.199 6.667z"></path>
</svg>
