<!-- Generated by IcoMoon.io -->
<svg version="1.1" xmlns="http://www.w3.org/2000/svg" width="40" height="32" viewBox="0 0 40 32">
<title>quidditch-solid</title>
<path d="M16.031 13.55l5.419 6.825s-1.038 6.4-4.787 9.381c-3.744 2.981-16.663 2.131-16.663 2.131s0.237-1.444 0.688-3.462l5.912-7.012c0.25-0.294-0.056-0.725-0.412-0.594l-3.775 1.381c0.9-2.606 2.044-5 3.413-6.094 3.744-2.988 10.206-2.556 10.206-2.556zM30.906 21.988c-2.75 0-4.988 2.238-4.988 4.994s2.231 4.994 4.988 4.994c2.756 0 4.987-2.238 4.987-4.994 0-2.762-2.237-4.994-4.988-4.994zM39.781 1.938l-1.237-1.563c-0.344-0.431-0.969-0.5-1.4-0.163l-14.531 11.119-2.131-2.688c-0.319-0.4-0.944-0.325-1.163 0.137l-1.581 3.412 5.419 6.825 3.675-0.775c0.5-0.106 0.712-0.7 0.394-1.1l-2.131-2.681 14.531-11.119c0.431-0.344 0.5-0.975 0.156-1.406z"></path>
</svg>
