<!-- Generated by IcoMoon.io -->
<svg version="1.1" xmlns="http://www.w3.org/2000/svg" width="40" height="32" viewBox="0 0 40 32">
<title>quidditch</title>
<path d="M39.894 0.969l-0.625-0.781c-0.175-0.219-0.487-0.25-0.7-0.081l-15.262 12.063-2.837-3.569c-0.313-0.394-0.913-0.375-1.2 0.031l-3.038 4.287c-1.781 0.019-6.7 0.313-9.875 2.838-3.931 3.125-6.356 16.206-6.356 16.206 0.963 0.044 13.444 0.425 17.225-2.581 3.181-2.531 4.581-7.262 5-8.988l4.844-1.956c0.462-0.188 0.619-0.769 0.306-1.163l-2.825-3.544 15.263-12.056c0.212-0.175 0.25-0.488 0.081-0.706zM15.981 27.85c-1.669 1.325-6.838 2.15-13.494 2.15h-0.038c0.256-1.113 0.563-2.3 0.9-3.494l4.3-3.419c0.313-0.244 0.075-0.744-0.313-0.663l-2.875 0.606c0.938-2.6 2.019-4.831 3.131-5.719 2.1-1.669 5.606-2.325 8.369-2.4l4.238 5.319c-0.444 1.731-1.694 5.613-4.219 7.619zM21.425 18.55l-3.556-4.469 1.775-2.531c0.144-0.206 0.444-0.213 0.6-0.019l4.225 5.306c0.156 0.2 0.081 0.494-0.156 0.581l-2.887 1.131zM31 21.969c-2.756 0-5 2.238-5 4.994s2.244 5.038 5 5.038 5-2.281 5-5.038-2.237-4.994-5-4.994zM31 29.962c-1.656 0-3-1.344-3-3s1.344-3 3-3 3 1.344 3 3-1.344 3-3 3z"></path>
</svg>
