<!-- Generated by IcoMoon.io -->
<svg version="1.1" xmlns="http://www.w3.org/2000/svg" width="32" height="32" viewBox="0 0 32 32">
<title>quote-right-solid</title>
<path d="M29 2h-8c-1.656 0-3 1.344-3 3v8c0 1.656 1.344 3 3 3h5v4c0 2.206-1.794 4-4 4h-0.5c-0.831 0-1.5 0.669-1.5 1.5v3c0 0.831 0.669 1.5 1.5 1.5h0.5c5.525 0 10-4.475 10-10v-15c0-1.656-1.344-3-3-3zM11 2h-8c-1.656 0-3 1.344-3 3v8c0 1.656 1.344 3 3 3h5v4c0 2.206-1.794 4-4 4h-0.5c-0.831 0-1.5 0.669-1.5 1.5v3c0 0.831 0.669 1.5 1.5 1.5h0.5c5.525 0 10-4.475 10-10v-15c0-1.656-1.344-3-3-3z"></path>
</svg>
