<!-- Generated by IcoMoon.io -->
<svg version="1.1" xmlns="http://www.w3.org/2000/svg" width="32" height="32" viewBox="0 0 32 32">
<title>quote-right</title>
<path d="M11 2h-7c-2.206 0-4 1.794-4 4v8c0 2.206 1.794 4 4 4h4v1.5c0 1.931-1.569 3.5-3.5 3.5h-1c-1.381 0-2.5 1.119-2.5 2.5v2c0 1.381 1.119 2.5 2.5 2.5h1c5.787 0 10.5-4.712 10.5-10.5v-13.5c0-2.206-1.794-4-4-4zM13 19.5c0 4.694-3.806 8.5-8.5 8.5h-1c-0.275 0-0.5-0.225-0.5-0.5v-2c0-0.275 0.225-0.5 0.5-0.5h1c3.037 0 5.5-2.462 5.5-5.5v-3.5h-6c-1.106 0-2-0.894-2-2v-8c0-1.106 0.894-2 2-2h7c1.106 0 2 0.894 2 2v13.5zM28 2h-7c-2.206 0-4 1.794-4 4v8c0 2.206 1.794 4 4 4h4v1.5c0 1.931-1.569 3.5-3.5 3.5h-1c-1.381 0-2.5 1.119-2.5 2.5v2c0 1.381 1.119 2.5 2.5 2.5h1c5.788 0 10.5-4.712 10.5-10.5v-13.5c0-2.206-1.794-4-4-4zM30 19.5c0 4.694-3.806 8.5-8.5 8.5h-1c-0.275 0-0.5-0.225-0.5-0.5v-2c0-0.275 0.225-0.5 0.5-0.5h1c3.038 0 5.5-2.462 5.5-5.5v-3.5h-6c-1.106 0-2-0.894-2-2v-8c0-1.106 0.894-2 2-2h7c1.106 0 2 0.894 2 2v13.5z"></path>
</svg>
