<!-- Generated by IcoMoon.io -->
<svg version="1.1" xmlns="http://www.w3.org/2000/svg" width="28" height="32" viewBox="0 0 28 32">
<title>quran-solid</title>
<path d="M28 22.4v-20.8c0-1-0.6-1.6-1.6-1.6h-20.4c-3.4 0-6 2.6-6 6v20c0 3.4 2.6 6 6 6h20.4c0.8 0 1.6-0.6 1.6-1.6v-1c0-0.4-0.2-0.8-0.6-1.2-0.2-1-0.2-3.8 0-4.6 0.4-0.2 0.6-0.6 0.6-1.2zM18.817 9.114c0.038-0.076 0.11-0.114 0.183-0.114s0.145 0.038 0.183 0.114l0.699 1.416 1.563 0.227c0.167 0.024 0.234 0.229 0.113 0.348l-1.131 1.102 0.267 1.556c0.023 0.132-0.082 0.239-0.201 0.239-0.031 0-0.064-0.008-0.095-0.024l-1.398-0.734-1.398 0.734c-0.031 0.016-0.064 0.024-0.095 0.024-0.119 0-0.223-0.107-0.201-0.239l0.267-1.556-1.131-1.102c-0.121-0.118-0.054-0.323 0.113-0.348l1.562-0.227 0.699-1.416zM15.199 4.801c0.854 0 1.704 0.156 2.524 0.463 0.234 0 0.423 0.19 0.423 0.423s-0.19 0.423-0.423 0.423c-0.053 0-0.104-0.010-0.151-0.028l0.003 0.001c-0.042 0-0.193-0.013-0.258-0.013-3.269 0-5.929 2.659-5.929 5.929s2.659 5.929 5.929 5.929c0.064 0 0.218-0.013 0.258-0.013 0.246 0 0.425 0.196 0.425 0.424 0 0.186-0.121 0.344-0.289 0.401-0.817 0.304-1.662 0.459-2.512 0.459-3.969 0.001-7.199-3.229-7.199-7.199s3.229-7.199 7.199-7.199zM23.8 28h-17.8c-1.2 0-2-0.8-2-2s1-2 2-2h17.8v4z"></path>
</svg>
