<!-- Generated by IcoMoon.io -->
<svg version="1.1" xmlns="http://www.w3.org/2000/svg" width="28" height="32" viewBox="0 0 28 32">
<title>quran</title>
<path d="M15.391 21.149c0.939 0 1.873-0.17 2.752-0.498 0.468-0.161 0.799-0.597 0.799-1.111 0-0.001 0-0.001 0-0.002v0c0-0.646-0.527-1.173-1.176-1.173l-0.258 0.012c-2.856 0-5.18-2.323-5.18-5.179s2.324-5.179 5.177-5.179l0.26 0.012c0.559 0 1.041-0.396 1.149-0.941 0.115-0.57-0.195-1.13-0.736-1.33-0.906-0.34-1.844-0.512-2.787-0.512-4.383 0-7.949 3.566-7.949 7.949s3.566 7.95 7.949 7.95zM15.391 6.75c0.115 0 0.229 0.003 0.344 0.010-2.824 0.778-4.906 3.371-4.906 6.439 0 3.069 2.080 5.661 4.906 6.439-3.67 0.229-6.793-2.769-6.793-6.439 0-3.556 2.893-6.449 6.449-6.449zM28 24.5v-23c0-0.831-0.669-1.5-1.5-1.5h-21.5c-2.763 0-5 2.237-5 5v23c0 2.209 1.791 4 4 4h23.25c0.413 0 0.75-0.337 0.75-0.75v-0.5c0-0.413-0.337-0.75-0.75-0.75h-0.206c-0.25-1.262-0.2-3.106 0.025-4.113 0.544-0.225 0.931-0.762 0.931-1.387zM25.269 30h-21.269c-1.104 0-2-0.896-2-2s0.896-2 2-2h21.269c-0.181 1.175-0.194 2.725 0 4zM26 24h-22c-0.732 0-1.409 0.211-2 0.555v-19.555c0-1.656 1.344-3 3-3h21v22zM18.295 9.704l-0.635 1.286-1.42 0.206c-0.377 0.054-0.691 0.318-0.809 0.681s-0.019 0.76 0.254 1.026l1.029 1.002-0.244 1.414c-0.064 0.375 0.090 0.754 0.399 0.979 0.309 0.224 0.719 0.253 1.055 0.075l1.268-0.668 1.267 0.668c0.135 0.072 0.296 0.115 0.467 0.115 0.221 0 0.425-0.072 0.591-0.193l-0.003 0.002c0.309-0.224 0.463-0.604 0.399-0.979l-0.244-1.414 1.029-1.002c0.274-0.266 0.371-0.663 0.254-1.026s-0.432-0.627-0.809-0.681l-1.42-0.206-0.635-1.286c-0.336-0.683-1.457-0.683-1.793 0.001zM19.809 12.168l1.383 0.2-1.002 0.975 0.236 1.376-1.234-0.651-1.234 0.651 0.236-1.376-1.002-0.975 1.383-0.2 0.617-1.252 0.617 1.252z"></path>
</svg>
