<!-- Generated by IcoMoon.io -->
<svg version="1.1" xmlns="http://www.w3.org/2000/svg" width="28" height="32" viewBox="0 0 28 32">
<title>rabbit-solid</title>
<path d="M27.846 30.47l-5.846-9.354v-4.116h0.459c1.956 0 3.541-1.585 3.541-3.541-0-1.183-0.58-2.231-1.472-2.874l-0.010-0.007-3.041-2.172c-0.069-0.034-0.142-0.046-0.211-0.076 0.488-0.781 0.951-1.86 1.284-3.104 0.707-2.64 0.567-4.972-0.313-5.207s-2.167 1.713-2.874 4.354c-0.17 0.634-0.288 1.248-0.362 1.822-0.074-0.574-0.192-1.188-0.362-1.822-0.708-2.641-1.995-4.589-2.875-4.354s-1.020 2.567-0.313 5.207c0.434 1.619 1.086 2.971 1.727 3.726-0.569 0.496-0.994 1.156-1.127 1.972-0.034 0.207-0.051 0.42-0.051 0.637v4.438h-0.8c-5.199 0-9.558 3.548-10.82 8.351-0.416-0.216-0.88-0.351-1.381-0.351-1.657 0-3 1.343-3 3s1.343 3 3 3c0.496 0 0.956-0.132 1.368-0.344 0.631 1.381 2.015 2.344 3.632 2.344h9c0.552 0 1-0.448 1-1v-1c0-1.104-0.896-2-2-2h-1.412l4.647-3.761 4.557 7.291c0.18 0.284 0.492 0.47 0.848 0.47 0 0 0 0 0 0h2.359c0.785 0 1.264-0.864 0.848-1.53zM21 13c-0.552 0-1-0.447-1-1s0.448-1 1-1 1 0.447 1 1-0.448 1-1 1z"></path>
</svg>
