<!-- Generated by IcoMoon.io -->
<svg version="1.1" xmlns="http://www.w3.org/2000/svg" width="32" height="32" viewBox="0 0 32 32">
<title>rabbit</title>
<path d="M31.62 28.175c-0.045-0.071-0.088-0.131-0.134-0.189l0.003 0.004-7.149-8.99h0.12c3.056 0 5.541-2.486 5.541-5.541 0-1.785-0.867-3.471-2.32-4.509-0.038-0.027-0.077-0.053-0.117-0.078l-1.543-0.947c0.017-0.061 0.034-0.121 0.050-0.182 0.869-3.245 0.872-6.961-1.727-7.657-0.217-0.058-0.441-0.087-0.666-0.087-1.098 0-1.982 0.647-2.677 1.53-0.695-0.883-1.579-1.529-2.677-1.53h-0.001c-0.225 0-0.449 0.029-0.666 0.087-2.6 0.696-2.597 4.412-1.727 7.657 0.144 0.536 0.314 1.061 0.511 1.569-0.168 0.408-0.289 0.839-0.363 1.289-0.051 0.315-0.078 0.637-0.078 0.959v2.604c-4.207 0.709-7.67 3.62-9.179 7.498-0.692-0.427-1.486-0.665-2.321-0.665-1.202 0-2.333 0.468-3.183 1.318-1.754 1.754-1.754 4.609 0 6.364 0.85 0.85 1.981 1.318 3.183 1.318 0.645 0 1.249-0.179 1.82-0.435 0.611 1.43 2.030 2.435 3.681 2.435h10.001c1.105 0 2-0.896 2-2 0-1.453-0.779-2.727-1.941-3.428l0.988-0.617 4.069 5.011c0.469 0.651 1.215 1.035 2.026 1.035h2.357c0.909 0 1.746-0.494 2.187-1.288s0.414-1.767-0.067-2.537zM5.998 26v1.439c-0.446 0.347-0.963 0.561-1.5 0.561-0.64 0-1.28-0.244-1.768-0.733-0.976-0.976-0.976-2.559 0-3.536 0.489-0.488 1.128-0.732 1.768-0.732 0.625 0 1.247 0.241 1.731 0.707-0.145 0.743-0.231 1.508-0.231 2.293zM29.5 30h-2.358c-0.172 0-0.332-0.089-0.424-0.235l-5.233-6.443-7.486 4.678h4.001c1.104 0 2 0.898 2 2h-10.001c-1.105 0-2-0.896-2-2v-2c0-5.523 4.478-10 10.001-10v-4.438c0-0.217 0.017-0.429 0.051-0.637 0.096-0.584 0.308-1.093 0.601-1.519-0.298-0.637-0.573-1.369-0.79-2.179-0.707-2.641-0.567-4.972 0.313-5.207 0.048-0.013 0.098-0.019 0.148-0.019 0.851 0 2.002 1.8 2.678 4.213 0.676-2.413 1.826-4.213 2.678-4.213 0.051 0 0.1 0.006 0.148 0.019 0.88 0.236 1.020 2.567 0.313 5.207-0.151 0.563-0.331 1.084-0.526 1.569l2.905 1.782c0.902 0.65 1.482 1.697 1.482 2.88 0 0 0 0.001 0 0.001v-0c0 1.956-1.586 3.541-3.541 3.541h-2.459v2.271l7.924 9.964c0.208 0.333-0.031 0.765-0.424 0.765zM23 12c0-0.553-0.448-1-1-1s-1 0.447-1 1 0.448 1 1 1 1-0.447 1-1z"></path>
</svg>
