<!-- Generated by IcoMoon.io -->
<svg version="1.1" xmlns="http://www.w3.org/2000/svg" width="40" height="32" viewBox="0 0 40 32">
<title>rabbit-fast</title>
<path d="M31.999 13.999c-0.552 0-1 0.447-1 1s0.448 1 1 1 1-0.447 1-1c0-0.552-0.447-1-1-1zM37.68 11.951c-0.038-0.027-3.657-2.249-3.657-2.249-0.159-0.098-0.608-0.317-1.147-0.47-0.101-0.571-0.207-1.035-0.333-1.491l0.027 0.115c-0.368-1.373-1.792-5.854-4.657-5.855h-0.001c-2.372 0-2.762 2.615-2.781 2.708-2.006-1.072-3.466-0.822-4.356 0.068-0.544 0.544-1.284 1.772-0.273 3.955-1.943-1.024-3.847-1.731-5.504-1.731-2.858 0-5.393 1.146-7.368 3.277-0.844-0.821-1.952-1.277-3.132-1.277-1.202 0-2.333 0.468-3.182 1.318-1.754 1.754-1.754 4.609 0 6.364 0.85 0.85 1.98 1.318 3.183 1.318 0.796 0 1.55-0.223 2.219-0.613 0.224 0.396 0.481 0.778 0.802 1.126l3.378 3.659-1.563 0.845c-0.81 0.545-1.336 1.458-1.336 2.494 0 0.001 0 0.002 0 0.003v-0 1.483c0 1.081 0.559 2.052 1.494 2.594 0.471 0.273 0.988 0.409 1.506 0.409 0.51 0 1.021-0.133 1.488-0.399l3.449-1.971 1.593 1.726c0.367 0.396 0.889 0.643 1.47 0.643 0 0 0 0 0 0h10.001c1.105 0 2-0.896 2-2 0-2.206-1.794-4-4-4h-3l4.4-2h6.060c3.055 0 5.541-2.486 5.541-5.541-0.001-1.785-0.868-3.471-2.321-4.508zM6.016 15.433c-1.533 1.198-2.93 0.19-3.286-0.166-0.976-0.976-0.976-2.559 0-3.536s2.559-0.977 3.536 0c0.082 0.082 0.138 0.177 0.203 0.267-0.488 1.089-0.646 2.281-0.452 3.434zM11.494 27.864c-0.658 0.381-1.496-0.095-1.496-0.868v-1.483c0-0.335 0.166-0.646 0.365-0.784l1.933-1.041 2.248 2.435-3.049 1.742zM34.459 19.999h-6.46l-4 1.667v-0.141c0-3.109-2.088-5.877-5.076-6.73l-2.649-0.757c-1.279-0.363-1.818 1.561-0.551 1.924l2.649 0.757c2.137 0.609 3.628 2.586 3.628 4.806v4.474h5c1.104 0 2 0.898 2 2h-10.001l-10.009-10.843c-1.397-1.514-1.416-3.836-0.051-5.379 1.259-1.422 3.208-2.778 6.060-2.778 3.583 0 9.546 4.701 13.001 6.999 0-1.947-0.033-1.923 0.221-2.688-0.957-0.221-2.359-1.116-3.698-2.455-1.933-1.932-2.977-4.022-2.333-4.666 0.671-0.671 2.821 0.487 4.666 2.333 0.203 0.203 0.391 0.409 0.574 0.613-0.727-2.782-0.505-5.137 0.483-5.137 0.871 0 2.058 1.878 2.726 4.373 0.256 0.955 0.398 1.866 0.436 2.656 0.886-0.063 1.548 0.202 1.902 0.377l3.541 2.172c0.902 0.65 1.483 1.697 1.483 2.88 0 0 0 0.001 0 0.001v-0c0.001 1.956-1.585 3.541-3.54 3.541z"></path>
</svg>
