<!-- Generated by IcoMoon.io -->
<svg version="1.1" xmlns="http://www.w3.org/2000/svg" width="36" height="32" viewBox="0 0 36 32">
<title>rabbit-fast-solid</title>
<path d="M8.47 25.792c-0.284 0.18-0.47 0.492-0.47 0.848 0 0 0 0 0 0v-0 2.359c0 0.786 0.864 1.264 1.53 0.848l4.168-2.492-2.991-2.991-2.238 1.427zM34.517 13.578l-3.526-2.164c-0.004-0.872-0.142-1.923-0.442-3.042-0.707-2.64-1.994-4.589-2.874-4.354s-1.020 2.567-0.313 5.207c0.041 0.152 0.090 0.294 0.134 0.441-0.306-0.38-0.639-0.764-1.019-1.145-1.933-1.933-4.022-2.978-4.666-2.333s0.4 2.733 2.333 4.666c0.792 0.792 1.604 1.423 2.339 1.861-0.196 0.36-0.357 0.754-0.431 1.207-0.031 0.189-0.044 0.384-0.047 0.582-3.221-2.312-9.656-6.506-14.006-6.506-3.255 0-5.326 1.765-6.545 3.381-0.111-0.169-0.185-0.354-0.333-0.502-1.172-1.172-3.071-1.172-4.242 0s-1.171 3.071 0 4.242c1.025 1.024 2.581 1.098 3.745 0.331l11.963 11.963c0.375 0.375 0.884 0.586 1.414 0.586h9c0.552 0 1-0.448 1-1v-1c0-1.104-0.896-2-2-2h-6v-3.474c0-2.221-1.491-4.197-3.626-4.807l-2.649-0.757c-0.531-0.152-0.839-0.706-0.688-1.236 0.152-0.533 0.713-0.833 1.236-0.688l2.649 0.757c2.988 0.854 5.076 3.621 5.076 6.731v1.474l4-2h6.459c1.956 0 3.541-1.585 3.541-3.541-0-1.183-0.58-2.231-1.472-2.874l-0.010-0.007zM31 16c-0.552 0-1-0.447-1-1s0.448-1 1-1 1 0.447 1 1-0.448 1-1 1z"></path>
</svg>
