<!-- Generated by IcoMoon.io -->
<svg version="1.1" xmlns="http://www.w3.org/2000/svg" width="40" height="32" viewBox="0 0 40 32">
<title>racquet-solid</title>
<path d="M7.869 21.656l3.544 5-7.544 5.163c-0.45 0.313-1.075 0.206-1.388-0.244l-2.3-3.238c-0.319-0.45-0.212-1.069 0.231-1.394 0.006 0.006 7.456-5.288 7.456-5.288zM33.044 20.613c-3.069 2.175-6.494 3.25-9.594 3.25-1.725 0-5.281-0.944-10.744 1.163l-2.856-4.031c2.044-2.387 3.544-5.2 4.231-8.294 0.762-3.419 3.094-6.906 6.675-9.444 6.281-4.45 14.262-4.388 17.712 0.481 3.394 4.794 0.962 12.35-5.425 16.875zM16.094 20.981c-0.731-0.769-0.75-0.731-1.325-1.856-0.494 0.881-1.019 1.744-1.637 2.563 0.981-0.306 1.969-0.531 2.962-0.706zM30.369 4c-6.65 0-11.163 5.625-12.188 8.819-1.331 4.138 0.831 7.050 5.244 7.050 5.256 0 10.694-4.175 12.188-8.819 1.331-4.131-0.831-7.050-5.244-7.050z"></path>
</svg>
