<!-- Generated by IcoMoon.io -->
<svg version="1.1" xmlns="http://www.w3.org/2000/svg" width="40" height="32" viewBox="0 0 40 32">
<title>racquet</title>
<path d="M38.469 3.725c-3.431-4.844-11.387-4.925-17.675-0.475-3.575 2.531-5.9 6-6.656 9.412-0.669 3.013-2.162 5.731-4.131 8.075-1.119-0.625-2.013 0.012-2.119 0.087l-7.037 4.925c-0.9 0.631-1.125 1.875-0.487 2.781l1.838 2.619c0.619 0.881 1.856 1.137 2.781 0.488l7.037-4.925c0.594-0.419 0.856-1.1 0.813-1.775 2.25-0.856 4.612-1.356 7.019-1.356 1.975 0 7.019 1.363 13.219-3.025 6.362-4.512 8.788-12.050 5.4-16.831zM3.831 30l-1.837-2.613 7.037-4.925 1.838 2.619-7.037 4.919zM11.956 23.15l-0.606-0.869c1.169-1.356 2.175-2.806 2.963-4.35 0.688 2.069 1.819 3.113 2.775 3.844-1.725 0.244-3.45 0.719-5.131 1.375zM31.906 18.925c-5.35 3.788-12.125 3.9-14.894-0.006-2.744-3.875-0.531-10.169 4.938-14.044 5.294-3.75 12.1-3.944 14.894 0 2.625 3.713 0.694 10.069-4.938 14.050z"></path>
</svg>
