<!-- Generated by IcoMoon.io -->
<svg version="1.1" xmlns="http://www.w3.org/2000/svg" width="32" height="32" viewBox="0 0 32 32">
<title>radar-solid</title>
<path d="M31.5 16c0 8.56-6.94 15.5-15.5 15.5s-15.5-6.94-15.5-15.5 6.94-15.5 15.5-15.5c0.004 0 0.008 0 0.013 0 3.244 0 6.253 1.003 8.735 2.716l-0.052-0.034 1.889-1.889c0.181-0.181 0.431-0.293 0.707-0.293s0.526 0.112 0.707 0.293l0.707 0.707c0.181 0.181 0.293 0.431 0.293 0.707s-0.112 0.526-0.293 0.707l-12.586 12.586h3.879c0 0.003 0 0.007 0 0.011 0 2.209-1.791 4-4 4s-4-1.791-4-4c0-2.162 1.715-3.923 3.858-3.998l0.007-0 1.758-1.758c-0.484-0.155-1.042-0.248-1.62-0.255l-0.004-0c-3.314 0-6 2.686-6 6s2.686 6 6 6c3.314 0 6-2.686 6-6v0h4c0 4.971-3.656 9.073-8.415 9.84-0.364-0.496-0.923-0.84-1.585-0.84s-1.222 0.343-1.585 0.84c-4.245-0.705-7.549-4.010-8.246-8.196l-0.008-0.058c0.496-0.364 0.84-0.923 0.84-1.585s-0.343-1.222-0.84-1.585c0.766-4.758 4.869-8.415 9.84-8.415 1.695 0 3.263 0.468 4.658 1.221l1.499-1.499c-1.755-1.080-3.881-1.721-6.157-1.721h-0c-6.016 0-10.984 4.432-11.852 10.206-0.684 0.32-1.148 1.003-1.148 1.794s0.465 1.473 1.136 1.789l0.012 0.005c0.809 5.197 4.861 9.249 9.991 10.049l0.067 0.009c0.32 0.684 1.003 1.148 1.794 1.148s1.473-0.465 1.788-1.136l0.005-0.012c5.774-0.868 10.206-5.835 10.206-11.852z"></path>
</svg>
