<!-- Generated by IcoMoon.io -->
<svg version="1.1" xmlns="http://www.w3.org/2000/svg" width="32" height="32" viewBox="0 0 32 32">
<title>radar</title>
<path d="M31.5 16.512c-0.27 8.323-7.104 14.988-15.496 14.988-8.915 0-16.072-7.522-15.468-16.564 0.513-7.687 6.759-13.906 14.45-14.403 4.321-0.279 8.271 1.232 11.236 3.839l2.226-2.225c0.090-0.091 0.216-0.146 0.354-0.146s0.263 0.056 0.354 0.146l0.707 0.707c0.090 0.090 0.146 0.215 0.146 0.354s-0.056 0.263-0.146 0.354l-13.296 13.293c-0.090 0.090-0.216 0.146-0.354 0.146s-0.263-0.056-0.354-0.146l-0.707-0.707c-0.091-0.090-0.146-0.216-0.146-0.354s0.056-0.263 0.146-0.354l2.868-2.868c-0.574-0.356-1.269-0.568-2.014-0.572h-0.001c-0 0-0 0-0 0-2.21 0-4.001 1.791-4.001 4.001s1.791 4.001 4.001 4.001c2.056 0 3.749-1.55 3.976-3.545l0.002-0.018c0.029-0.248 0.238-0.439 0.492-0.439 0.001 0 0.001 0 0.002 0h1.005c0.278 0.001 0.503 0.227 0.503 0.505 0 0.016-0.001 0.033-0.002 0.049l0-0.002c-0.292 3.068-2.856 5.449-5.976 5.449-3.315 0-6.002-2.687-6.002-6.002 0-0.041 0-0.083 0.001-0.124l-0 0.006c0.058-2.999 2.426-5.544 5.412-5.85 1.528-0.157 2.91 0.307 4.033 1.113l2.129-2.128c-1.537-1.234-3.452-2.015-5.573-2.015-4.421 0-8.088 3.209-8.842 7.415 0.496 0.364 0.84 0.923 0.84 1.585s-0.343 1.221-0.84 1.585c0.686 3.698 3.558 6.57 7.201 7.246l0.056 0.009c0.364-0.496 0.923-0.84 1.586-0.84s1.222 0.343 1.586 0.84c4.052-0.726 7.179-4.154 7.404-8.354 0.010-0.268 0.229-0.483 0.498-0.485h1.002c0.001 0 0.002 0 0.003 0 0.275 0 0.498 0.223 0.498 0.498 0 0.005-0 0.011-0 0.016l0-0.001c-0.241 5.228-4.136 9.492-9.189 10.327-0.319 0.69-1.006 1.16-1.802 1.16s-1.483-0.47-1.797-1.148l-0.005-0.012c-4.639-0.792-8.248-4.4-9.032-8.973l-0.009-0.065c-0.69-0.319-1.16-1.005-1.16-1.801s0.47-1.482 1.148-1.796l0.012-0.005c0.862-5.216 5.381-9.198 10.843-9.198 2.677 0 5.097 0.994 7.004 2.584l1.791-1.791c-2.366-2.042-5.431-3.293-8.795-3.293-7.954 0-14.324 6.911-13.417 15.043 0.691 6.193 5.679 11.18 11.873 11.871 7.967 0.889 14.762-5.203 15.039-12.925 0.006-0.27 0.226-0.487 0.497-0.489h1.001c0 0 0.001 0 0.002 0 0.277 0 0.502 0.225 0.502 0.502 0 0.004-0 0.007-0 0.011v-0.001z"></path>
</svg>
