<!-- Generated by IcoMoon.io -->
<svg version="1.1" xmlns="http://www.w3.org/2000/svg" width="32" height="32" viewBox="0 0 32 32">
<title>radio-alt</title>
<path d="M28 8h-16.468l20.112-6.063c0.208-0.064 0.357-0.254 0.357-0.479 0-0.052-0.008-0.102-0.023-0.149l0.001 0.004-0.291-0.957c-0.064-0.208-0.254-0.356-0.479-0.356-0.052 0-0.102 0.008-0.15 0.023l0.004-0.001-26.465 7.979h-0.598c-2.209 0-4 1.791-4 4v0 16c0 2.209 1.791 4 4 4v0h24c2.209 0 4-1.791 4-4v0-16c0-2.209-1.791-4-4-4v0zM30 28c0 1.105-0.895 2-2 2v0h-24c-1.105 0-2-0.895-2-2v0-12h28zM30 14h-28v-2c0-1.105 0.895-2 2-2v0h24c1.105 0 2 0.895 2 2v0zM13.5 24h-7c-0.276 0-0.5 0.224-0.5 0.5v0 1c0 0.276 0.224 0.5 0.5 0.5v0h7c0.276 0 0.5-0.224 0.5-0.5v0-1c0-0.276-0.224-0.5-0.5-0.5v0zM23 28c2.761 0 5-2.239 5-5s-2.239-5-5-5c-2.761 0-5 2.239-5 5v0c0 2.761 2.239 5 5 5v0zM23 20c1.657 0 3 1.343 3 3s-1.343 3-3 3c-1.657 0-3-1.343-3-3v0c0.002-1.656 1.344-2.998 3-3h0zM4.5 22h11c0.276 0 0.5-0.224 0.5-0.5v0-1c0-0.276-0.224-0.5-0.5-0.5v0h-11c-0.276 0-0.5 0.224-0.5 0.5v0 1c0 0.276 0.224 0.5 0.5 0.5v0z"></path>
</svg>
