<!-- Generated by IcoMoon.io -->
<svg version="1.1" xmlns="http://www.w3.org/2000/svg" width="31" height="32" viewBox="0 0 31 32">
<title>radiation</title>
<path d="M15.494 20c2.206 0 4-1.794 4-4s-1.794-4-4-4-4 1.794-4 4 1.794 4 4 4zM15.494 14c1.1 0 2 0.9 2 2s-0.9 2-2 2-2-0.9-2-2 0.9-2 2-2zM18.694 21.075c-0.931 0.575-2.025 0.925-3.2 0.925s-2.269-0.35-3.2-0.925l-3.931 6.238c-0.638 1.012-0.262 2.387 0.844 2.869 1.919 0.844 4.044 1.319 6.287 1.319s4.369-0.475 6.294-1.319c1.1-0.481 1.481-1.856 0.844-2.869l-3.938-6.238zM15.494 29.5c-1.9 0-3.737-0.387-5.425-1.131l2.994-4.75c0.787 0.25 1.606 0.381 2.425 0.381 0.831 0 1.65-0.131 2.438-0.381l3.038 4.738c-1.731 0.756-3.569 1.144-5.469 1.144zM2.031 16h7.406c0-2.144 1.144-4.012 2.856-5.075l-3.925-6.225c-0.388-0.612-1.063-0.956-1.737-0.956-0.444 0-0.888 0.144-1.256 0.456-2.825 2.375-4.794 5.731-5.356 9.531-0.181 1.2 0.787 2.269 2.013 2.269zM6.65 5.763l2.994 4.737c-0.95 0.981-1.625 2.188-1.969 3.5h-5.644l-0.019 0.025c0.475-3.225 2.138-6.169 4.638-8.262zM21.55 16h7.406c1.225 0 2.194-1.069 2.019-2.269-0.563-3.806-2.531-7.156-5.356-9.531-0.369-0.306-0.813-0.456-1.256-0.456-0.675 0-1.35 0.338-1.738 0.956l-3.925 6.225c1.706 1.063 2.85 2.931 2.85 5.075zM24.306 5.725c2.531 2.131 4.188 5.075 4.65 8.275h-5.644c-0.344-1.319-1.025-2.519-1.975-3.506l2.969-4.769z"></path>
</svg>
