<!-- Generated by IcoMoon.io -->
<svg version="1.1" xmlns="http://www.w3.org/2000/svg" width="31" height="32" viewBox="0 0 31 32">
<title>radiation-solid</title>
<path d="M20.512 15.988h9.475c0.569 0 1.050-0.481 1.012-1.050-0.319-4.738-2.775-8.887-6.406-11.512-0.462-0.331-1.119-0.181-1.419 0.3l-5.025 8.025c1.413 0.894 2.363 2.45 2.363 4.238zM18.15 20.219c-0.769 0.481-1.675 0.775-2.65 0.775s-1.875-0.294-2.65-0.775l-5.025 8.031c-0.3 0.481-0.15 1.131 0.35 1.4 2.181 1.175 4.675 1.85 7.325 1.85s5.144-0.675 7.325-1.85c0.5-0.269 0.65-0.925 0.35-1.4l-5.025-8.031zM15.5 18.988c1.656 0 3-1.344 3-3s-1.344-3-3-3-3 1.344-3 3 1.344 3 3 3zM1.012 15.988h9.475c0-1.787 0.95-3.344 2.362-4.231l-5.025-8.025c-0.3-0.481-0.956-0.638-1.419-0.3-3.631 2.625-6.088 6.775-6.406 11.512-0.037 0.563 0.444 1.044 1.012 1.044z"></path>
</svg>
