<!-- Generated by IcoMoon.io -->
<svg version="1.1" xmlns="http://www.w3.org/2000/svg" width="31" height="32" viewBox="0 0 31 32">
<title>radiation-alt-solid</title>
<path d="M19.5 16h4.944c0.575 0 1.056-0.481 1-1.050-0.288-2.725-1.688-5.113-3.719-6.738-0.475-0.381-1.175-0.281-1.5 0.238l-2.606 4.175c1.125 0.7 1.881 1.95 1.881 3.375zM13.387 19.381l-2.613 4.181c-0.306 0.488-0.15 1.15 0.363 1.406 1.319 0.65 2.794 1.031 4.363 1.031s3.044-0.381 4.369-1.031c0.512-0.256 0.663-0.919 0.363-1.406l-2.613-4.181c-0.613 0.387-1.337 0.619-2.113 0.619s-1.506-0.231-2.119-0.619zM6.556 16h4.944c0-1.425 0.756-2.675 1.887-3.381l-2.606-4.175c-0.325-0.519-1.025-0.619-1.5-0.238-2.037 1.625-3.431 4.012-3.719 6.738-0.069 0.575 0.419 1.056 0.994 1.056zM15.5 31.5c8.563 0 15.5-6.938 15.5-15.5s-6.938-15.5-15.5-15.5-15.5 6.938-15.5 15.5 6.938 15.5 15.5 15.5zM15.5 4.5c6.344 0 11.5 5.156 11.5 11.5s-5.156 11.5-11.5 11.5-11.5-5.156-11.5-11.5 5.156-11.5 11.5-11.5zM15.5 18c1.106 0 2-0.894 2-2s-0.894-2-2-2-2 0.894-2 2 0.894 2 2 2z"></path>
</svg>
