<!-- Generated by IcoMoon.io -->
<svg version="1.1" xmlns="http://www.w3.org/2000/svg" width="31" height="32" viewBox="0 0 31 32">
<title>radiation-alt</title>
<path d="M13.563 16c0 1.069 0.869 1.938 1.938 1.938s1.938-0.869 1.938-1.938-0.869-1.938-1.938-1.938-1.938 0.869-1.938 1.938zM15.5 31.5c8.563 0 15.5-6.938 15.5-15.5s-6.938-15.5-15.5-15.5-15.5 6.938-15.5 15.5 6.938 15.5 15.5 15.5zM15.5 2.5c7.444 0 13.5 6.056 13.5 13.5s-6.056 13.5-13.5 13.5-13.5-6.056-13.5-13.5 6.056-13.5 13.5-13.5zM4.331 16.512c0.275 0.288 0.662 0.456 1.063 0.456h6.237c-0.075-0.313-0.131-0.631-0.131-0.969 0-1.775 1.169-3.269 2.775-3.787l-3.294-5.269c-0.213-0.338-0.563-0.575-0.95-0.656-0.094-0.019-0.194-0.031-0.294-0.031-0.294 0-0.581 0.088-0.825 0.256-2.994 2.075-4.806 5.331-4.981 8.931-0.019 0.394 0.125 0.781 0.4 1.069zM9.594 8.494l1.906 3.050c-0.994 0.887-1.675 2.088-1.906 3.425h-3.612c0.269-2.556 1.556-4.863 3.612-6.475zM19.5 16c0 0.337-0.056 0.656-0.131 0.969h6.238c0.4 0 0.788-0.169 1.063-0.456s0.419-0.675 0.4-1.069c-0.175-3.594-1.988-6.85-4.981-8.931-0.244-0.169-0.531-0.256-0.825-0.256-0.094 0-0.194 0.013-0.294 0.031-0.394 0.081-0.738 0.319-0.95 0.656l-3.294 5.269c1.606 0.519 2.775 2.006 2.775 3.787zM21.406 8.494c2.050 1.606 3.344 3.919 3.619 6.469h-3.613c-0.231-1.338-0.913-2.537-1.906-3.425l1.9-3.044zM18.375 18.775c-0.725 0.756-1.744 1.225-2.875 1.225s-2.15-0.475-2.875-1.231l-3.281 5.256c-0.213 0.337-0.281 0.756-0.181 1.137 0.094 0.381 0.35 0.712 0.688 0.906 1.738 0.994 3.694 1.481 5.65 1.481s3.913-0.494 5.656-1.481c0.337-0.194 0.587-0.519 0.681-0.9 0.1-0.387 0.031-0.8-0.175-1.137l-3.288-5.256zM15.5 25.55c-1.444 0-2.869-0.325-4.156-0.95l1.9-3.038c0.706 0.288 1.469 0.438 2.256 0.438s1.55-0.15 2.256-0.438l1.9 3.038c-1.281 0.625-2.712 0.95-4.156 0.95z"></path>
</svg>
