<!-- Generated by IcoMoon.io -->
<svg version="1.1" xmlns="http://www.w3.org/2000/svg" width="32" height="32" viewBox="0 0 32 32">
<title>radio-alt-solid</title>
<path d="M28 8h-14.781l18.052-5.076c0.424-0.122 0.729-0.507 0.729-0.963 0-0.097-0.014-0.19-0.039-0.278l0.002 0.007-0.271-0.961c-0.122-0.424-0.507-0.729-0.963-0.729-0.097 0-0.19 0.014-0.278 0.039l0.007-0.002-26.458 7.962c-2.209 0-4 1.791-4 4v0 16c0 2.209 1.791 4 4 4v0h24c2.209 0 4-1.791 4-4v0-16c0-2.209-1.791-4-4-4v0zM14 26.5c0 0.276-0.224 0.5-0.5 0.5v0h-7c-0.276 0-0.5-0.224-0.5-0.5v0-1c0-0.276 0.224-0.5 0.5-0.5v0h7c0.276 0 0.5 0.224 0.5 0.5v0zM16 22.5c0 0.276-0.224 0.5-0.5 0.5v0h-11c-0.276 0-0.5-0.224-0.5-0.5v0-1c0-0.276 0.224-0.5 0.5-0.5v0h11c0.276 0 0.5 0.224 0.5 0.5v0zM24 28c-2.209 0-4-1.791-4-4s1.791-4 4-4c2.209 0 4 1.791 4 4v0c0 2.209-1.791 4-4 4v0zM28 16h-24v-4h24z"></path>
</svg>
