<!-- Generated by IcoMoon.io -->
<svg version="1.1" xmlns="http://www.w3.org/2000/svg" width="28" height="32" viewBox="0 0 28 32">
<title>raindrops-solid</title>
<path d="M13.5 8.519c0-2.181-1.988-2.994-2.919-6.088-0.156-0.563-0.981-0.587-1.162 0-0.931 3.081-2.919 3.919-2.919 6.088 0 1.925 1.562 3.481 3.5 3.481s3.5-1.556 3.5-3.481zM2.919 14.431c-0.931 3.081-2.919 3.919-2.919 6.088 0 1.925 1.563 3.481 3.5 3.481s3.5-1.556 3.5-3.481c0-2.181-1.987-2.994-2.919-6.088-0.156-0.563-0.981-0.588-1.163 0zM21.325 8.95c-0.363-1.237-2.25-1.294-2.656 0-2.125 6.775-6.669 8.619-6.669 13.4 0 4.231 3.575 7.65 8 7.65s8-3.425 8-7.65c0-4.806-4.538-6.594-6.675-13.4z"></path>
</svg>
