<!-- Generated by IcoMoon.io -->
<svg version="1.1" xmlns="http://www.w3.org/2000/svg" width="36" height="32" viewBox="0 0 36 32">
<title>rainbow-solid</title>
<path d="M16.769 2.044c-9.556 0.638-16.769 9.012-16.769 18.594v8.363c0 0.55 0.45 1 1 1h2c0.55 0 1-0.45 1-1v-9c0-8.325 7.306-14.981 15.844-13.881 7.056 0.906 12.156 7.256 12.156 14.369v8.512c0 0.55 0.45 1 1 1h2c0.55 0 1-0.45 1-1v-9c0-10.331-8.75-18.663-19.231-17.956zM16.419 8.1c-6.044 0.775-10.419 6.219-10.419 12.319v8.581c0 0.55 0.45 1 1 1h2c0.55 0 1-0.45 1-1v-9c0-4.675 4.031-8.425 8.8-7.963 4.156 0.406 7.2 4.138 7.2 8.319v8.644c0 0.55 0.45 1 1 1h2c0.55 0 1-0.45 1-1v-9c0-7.137-6.262-12.838-13.581-11.9zM16.806 14.119c-2.85 0.556-4.806 3.219-4.806 6.119v8.762c0 0.55 0.45 1 1 1h2c0.55 0 1-0.45 1-1v-9c0-1.1 0.894-2 2-2s2 0.9 2 2v9c0 0.55 0.45 1 1 1h2c0.55 0 1-0.45 1-1v-9c0-3.7-3.363-6.625-7.194-5.881z"></path>
</svg>
