<!-- Generated by IcoMoon.io -->
<svg version="1.1" xmlns="http://www.w3.org/2000/svg" width="28" height="32" viewBox="0 0 28 32">
<title>raindrops</title>
<path d="M25.413 15.794c-1.15-1.606-2.45-3.438-3.288-6.213-0.269-0.938-1.113-1.569-2.1-1.581-0.9-0.019-1.85 0.625-2.137 1.575-0.837 2.769-2.137 4.6-3.287 6.219-1.331 1.875-2.594 3.65-2.594 6.25 0 4.387 3.588 7.956 8 7.956s8-3.569 8-7.956c-0.006-2.613-1.262-4.381-2.594-6.25zM20 28c-3.306 0-6-2.669-6-5.956 0-1.962 0.981-3.344 2.225-5.094 1.175-1.656 2.637-3.713 3.569-6.794 0.012-0.050 0.050-0.156 0.2-0.156 0.081 0.031 0.175 0.044 0.2 0.131l0.006 0.019c0.938 3.094 2.4 5.15 3.575 6.8 1.288 1.806 2.219 3.113 2.219 5.088 0.006 3.294-2.688 5.962-5.994 5.962zM15 8.869c0-1.338-0.613-2.237-1.2-3.112-0.494-0.725-1-1.475-1.338-2.638-0.181-0.663-0.762-1.112-1.444-1.119-0.775-0.006-1.281 0.438-1.475 1.113-0.331 1.162-0.844 1.919-1.338 2.644-0.594 0.875-1.206 1.781-1.206 3.112 0 2.275 1.794 4.131 4 4.131s4-1.856 4-4.131zM11 11c-1.106 0-2-0.956-2-2.131 0-0.688 0.294-1.156 0.863-1.994 0.356-0.531 0.775-1.144 1.137-1.95 0.363 0.806 0.781 1.425 1.144 1.95 0.563 0.831 0.856 1.294 0.856 1.988 0 1.181-0.894 2.137-2 2.137zM5.463 14.119c-0.181-0.662-0.763-1.113-1.444-1.119-0.631 0.075-1.281 0.438-1.475 1.113-0.331 1.162-0.844 1.919-1.337 2.644-0.594 0.875-1.206 1.781-1.206 3.113 0 2.275 1.794 4.131 4 4.131s4-1.856 4-4.131c0-1.337-0.612-2.238-1.2-3.113-0.494-0.725-1-1.475-1.337-2.637zM4 22c-1.106 0-2-0.956-2-2.131 0-0.688 0.294-1.156 0.862-1.994 0.356-0.531 0.775-1.144 1.138-1.95 0.362 0.806 0.781 1.425 1.144 1.95 0.563 0.831 0.856 1.294 0.856 1.988 0 1.181-0.894 2.137-2 2.137z"></path>
</svg>
