<!-- Generated by IcoMoon.io -->
<svg version="1.1" xmlns="http://www.w3.org/2000/svg" width="36" height="32" viewBox="0 0 36 32">
<title>rainbow</title>
<path d="M18 14.025c-3.306 0.006-6 2.662-6 5.969v9.506c0 0.275 0.225 0.5 0.5 0.5h1c0.275 0 0.5-0.225 0.5-0.5v-9.506c0-2.206 1.8-3.975 4-3.981 2.2 0 4 1.775 4 3.981v9.506c0 0.275 0.225 0.5 0.5 0.5h1c0.275 0 0.5-0.225 0.5-0.5v-9.506c0-3.313-2.694-5.969-6-5.969zM18 2c-9.925 0-18 8.063-18 17.994v9.506c0 0.275 0.225 0.5 0.5 0.5h1c0.275 0 0.5-0.225 0.5-0.5v-9.506c0-8.831 7.181-15.988 16-15.994 8.819 0 16 7.162 16 15.994v9.506c0 0.275 0.225 0.5 0.5 0.5h1c0.275 0 0.5-0.225 0.5-0.5v-9.506c0-9.931-8.075-17.994-18-17.994zM18 7.987c-6.619 0-12 5.381-12 12v9.512c0 0.275 0.225 0.5 0.5 0.5h1c0.275 0 0.5-0.225 0.5-0.5v-9.506c0-5.519 4.488-9.994 10-9.994s10 4.475 10 9.994v9.506c0 0.275 0.225 0.5 0.5 0.5h1c0.275 0 0.5-0.225 0.5-0.5v-9.506c0-6.625-5.381-12-12-12.006z"></path>
</svg>
