<!-- Generated by IcoMoon.io -->
<svg version="1.1" xmlns="http://www.w3.org/2000/svg" width="40" height="32" viewBox="0 0 40 32">
<title>ram-solid</title>
<path d="M38.891 6.622l-2.891-1.421v-1.201c0-1.104-0.896-2-2-2h-4.561c-1.099-1.219-2.673-2-4.439-2-3.309 0-6 2.691-6 6 0 2.966 2.169 5.42 5.001 5.899-0.327 0.055-0.658 0.101-1.001 0.101-3.221 0-5.829-2.544-5.973-5.73-0.369-0.164-0.768-0.27-1.208-0.27-0.779 0-1.5 0.3-2.019 0.8-0.54-0.5-1.26-0.8-2.040-0.8-0.82 0-1.561 0.34-2.101 0.859-0.699-0.58-1.639-0.859-2.599-0.639-1.099 0.24-1.939 1.059-2.24 2.080-1.040-0.18-2.139 0.2-2.84 1.080-0.72 0.88-0.84 2.040-0.439 3.019-0.92 0.5-1.54 1.5-1.54 2.62 0 1.139 0.639 2.12 1.559 2.62-0.401 0.981-0.26 2.139 0.441 3.019 0.72 0.881 1.819 1.261 2.859 1.061 0.255 0.867 0.915 1.567 1.779 1.911l-0.384 1.024c-0.161 0.417-0.255 0.9-0.255 1.404 0 0.345 0.044 0.679 0.126 0.999l-0.006-0.028 1.053 4.213c0.112 0.438 0.504 0.757 0.97 0.758h4.122c0.651 0 1.128-0.611 0.97-1.242l-1.144-4.579 0.922-2.46c0.296-0.134 0.576-0.299 0.806-0.519 0.54 0.5 1.261 0.801 2.040 0.801s1.5-0.301 2.040-0.801c0.54 0.5 1.24 0.801 2.040 0.801 0.781 0 1.492-0.31 2.029-0.807 0.010 0.009 0.021 0.017 0.032 0.026v7.781c0 0.552 0.448 1 1 1h4c0.552 0 1-0.448 1-1v-10.333l2.218-1.479c1.080-0.728 1.781-1.946 1.781-3.328v-3.859h5.479c0.579 0 1.11-0.306 1.398-0.809 0.474-0.829 1.124-2.091 1.124-2.787-0.001-0.778-0.448-1.451-1.099-1.777l-0.011-0.005zM22 6c0-1.654 1.346-3 3-3s3 1.346 3 3-1.346 3-3 3-3-1.346-3-3zM32 7c-0.552 0-1-0.447-1-1s0.448-1 1-1 1 0.447 1 1-0.447 1-1 1z"></path>
</svg>
