<!-- Generated by IcoMoon.io -->
<svg version="1.1" xmlns="http://www.w3.org/2000/svg" width="40" height="32" viewBox="0 0 40 32">
<title>ram</title>
<path d="M31 6c-0.552 0-1 0.447-1 1s0.448 1 1 1 1-0.447 1-1-0.448-1-1-1zM38.332 6.726l-2.332-1.146v-0.579c0-1.654-1.346-3-3-3h-5.245c-1.401-1.238-3.218-2-5.196-2-3.453 0-6.26 2.69-6.51 6.081-0.823-0.118-1.681 0.003-2.398 0.424-1.144-0.681-2.693-0.653-3.822 0.063-0.768-0.416-1.66-0.544-2.555-0.354-1.064 0.24-1.963 0.936-2.476 1.885-1.059 0.055-2.066 0.569-2.757 1.445-0.676 0.872-0.941 1.991-0.757 3.059-0.806 0.716-1.282 1.761-1.282 2.878 0 1.119 0.469 2.162 1.262 2.875-0.191 1.081 0.078 2.204 0.757 3.061 0.674 0.876 1.674 1.394 2.736 1.448 0.302 0.569 0.749 1.030 1.276 1.374 0.009 0.247 0.021 0.496 0.079 0.738l1.32 5.491c0.216 0.899 1.021 1.532 1.945 1.532h3.596c1.309 0 2.258-1.235 1.939-2.491l-1.268-5.004c0.523 0.311 1.154 0.496 1.827 0.496 0.001 0 0.003 0 0.004 0h-0c0.664 0 1.305-0.177 1.869-0.511 0.573 0.332 1.289 0.535 1.99 0.501 0.229-0.008 0.448-0.063 0.668-0.111v5.12c0 1.104 0.896 2 2 2h4c1.104 0 2-0.896 2-2v-7.698c0.356-0.227 0.688-0.499 0.961-0.844 0.676-0.872 0.941-1.991 0.758-3.059 0.805-0.716 1.281-1.761 1.281-2.878 0-0.534-0.113-1.048-0.311-1.519h5.789c0.932 0 1.801-0.502 2.267-1.314 1.123-1.972 1.254-2.818 1.254-3.283 0-1.147-0.639-2.173-1.668-2.679zM9.375 30l-1.239-5.152c0.571-0.012 1.134-0.146 1.649-0.42 0.564 0.362 1.237 0.548 1.915 0.558l1.271 5.015h-3.596zM26 30h-4v-5.256c0.553 0.143 1.139 0.17 1.726 0.043 0.946-0.213 1.743-0.799 2.274-1.589v6.802zM37.010 11.693c-0.109 0.193-0.309 0.307-0.531 0.307h-8.694c-0.004 0.223-0.032 0.449-0.122 0.676l-0.323 0.814 0.764 0.428c1.163 0.652 1.227 2.504-0.019 3.205l-0.764 0.427 0.323 0.814c0.532 1.336-0.566 2.753-1.912 2.519l-0.885-0.157-0.252 0.861c-0.343 1.177-1.787 1.753-2.803 0.854l-0.715-0.634-0.666 0.684c-0.543 0.559-1.602 0.769-2.383 0.028l-0.691-0.658-0.689 0.661c-0.644 0.62-1.703 0.619-2.322 0.010l-0.691-0.683-0.701 0.673c-0.662 0.631-1.758 0.608-2.375-0.029l-0.652-0.677-0.715 0.611c-1.090 0.927-2.494 0.267-2.816-0.872l-0.249-0.872-0.891 0.16c-1.325 0.238-2.431-1.168-1.896-2.519l0.322-0.814-0.764-0.427c-1.163-0.652-1.228-2.504 0.019-3.205l0.764-0.428-0.322-0.814c-0.535-1.344 0.574-2.752 1.912-2.519l0.885 0.158 0.252-0.861c0.346-1.189 1.797-1.744 2.803-0.854l0.715 0.634 0.666-0.684c0.619-0.639 1.726-0.661 2.348-0.043l0.693 0.686 0.703-0.673c0.526-0.506 1.322-0.574 1.955-0.251 0.709 2.185 2.74 3.779 5.159 3.779 2.499 0 4.531-2.024 4.552-4.519v-0.083c-0.021-1.809-1.294-3.324-2.994-3.708-0.008-0.002-0.168-0.038-0.266-0.053-0.312-0.049-0.599 0.179-0.599 0.495v1.017c0 0.23 0.156 0.434 0.381 0.481 0.003 0.001 0.004 0 0.007 0 0.001 0 0 0.003 0.001 0.003 0.84 0.173 1.474 0.918 1.474 1.809 0 1.41-1.146 2.558-2.557 2.558-1.901 0-3.447-1.547-3.447-3.447 0.001-2.514 2.046-4.559 4.559-4.559 1.74 0 3.331 0.771 4.43 2h6.011c0.551 0 1 0.448 1 1v1.823l3.449 1.697c0.34 0.167 0.551 0.506 0.551 0.884 0 0.205-0.209 0.919-0.99 2.288z"></path>
</svg>
