<!-- Generated by IcoMoon.io -->
<svg version="1.1" xmlns="http://www.w3.org/2000/svg" width="24" height="32" viewBox="0 0 24 32">
<title>ramp-loading</title>
<path d="M24 22v-20c0-1.106-0.894-2-2-2h-20c-1.106 0-2 0.894-2 2v20c0 1.106 0.894 2 2 2h0.431l-2.231 5.212c-0.569 1.319 0.4 2.788 1.837 2.788h19.931c1.438 0 2.406-1.469 1.837-2.788l-2.238-5.212h0.431c1.106 0 2-0.894 2-2zM21.962 30h-19.925l4.287-10h11.356l4.281 10zM20.712 22l-1.194-2.788c-0.313-0.738-1.038-1.212-1.837-1.212h-11.363c-0.8 0-1.525 0.475-1.838 1.212l-1.194 2.788h-1.288v-20h20v20h-1.288z"></path>
</svg>
