<!-- Generated by IcoMoon.io -->
<svg version="1.1" xmlns="http://www.w3.org/2000/svg" width="24" height="32" viewBox="0 0 24 32">
<title>ramp-loading-solid</title>
<path d="M18.275 20.55c-0.169-0.337-0.512-0.55-0.894-0.55h-10.762c-0.381 0-0.725 0.212-0.894 0.55l-5 10c-0.331 0.669 0.15 1.45 0.894 1.45h20.762c0.744 0 1.225-0.781 0.894-1.45l-5-10zM22 0h-20c-1.106 0-2 0.894-2 2v20c0 1.031 0.787 1.844 1.788 1.956l2.15-4.3c0.019-0.038 0.044-0.063 0.063-0.094v-15.563h16v15.563c0.019 0.031 0.050 0.063 0.063 0.094l2.15 4.3c1-0.113 1.788-0.931 1.788-1.956v-20c0-1.106-0.894-2-2-2z"></path>
</svg>
