<!-- Generated by IcoMoon.io -->
<svg version="1.1" xmlns="http://www.w3.org/2000/svg" width="32" height="32" viewBox="0 0 32 32">
<title>random-solid</title>
<path d="M31.561 22.439c0.586 0.586 0.586 1.536 0 2.121l-5 4.999c-0.938 0.938-2.561 0.281-2.561-1.061v-2.499h-3.674c-0.216-0-0.411-0.091-0.548-0.238l-0-0-4.41-4.725 3.333-3.571 3.299 3.534h2v-2.499c0-1.34 1.621-2 2.561-1.061l5 4.999zM0.75 11h5.25l3.299 3.534 3.333-3.571-4.41-4.725c-0.137-0.147-0.332-0.238-0.548-0.238-0 0-0 0-0 0h-6.924c-0.414 0-0.75 0.336-0.75 0.75v3.5c0 0.414 0.336 0.75 0.75 0.75zM24 11v2.499c0 1.341 1.623 1.999 2.561 1.061l5-4.999c0.586-0.586 0.586-1.536 0-2.121l-5-4.999c-0.939-0.939-2.561-0.279-2.561 1.061v2.499h-3.674c-0.216 0-0.411 0.091-0.548 0.238l-0 0-13.778 14.762h-5.25c-0.414 0-0.75 0.336-0.75 0.75v3.5c0 0.414 0.336 0.75 0.75 0.75h6.924c0.208 0 0.406-0.086 0.548-0.238l13.778-14.762h2z"></path>
</svg>
