<!-- Generated by IcoMoon.io -->
<svg version="1.1" xmlns="http://www.w3.org/2000/svg" width="32" height="32" viewBox="0 0 32 32">
<title>random</title>
<path d="M0 8v-0.5c0-0.412 0.338-0.75 0.75-0.75h6.612c0.206 0 0.406 0.088 0.55 0.244l5.606 6.063-1.363 1.475-5.344-5.781h-6.063c-0.412 0-0.75-0.338-0.75-0.75zM31.413 25.413l-4 4c-1.256 1.256-3.413 0.363-3.413-1.413v-2.75h-1.606c-0.206 0-0.406-0.087-0.55-0.244l-5.606-6.063 1.363-1.475 5.337 5.781h1.063v-3.25c0-1.781 2.156-2.669 3.413-1.413l4 4c0.781 0.781 0.781 2.044 0 2.825zM30.175 23.825l-4-4c-0.156-0.156-0.425-0.044-0.425 0.175v8c0 0.225 0.269 0.337 0.425 0.175l4-4c0.1-0.094 0.1-0.256 0-0.35zM31.413 9.412l-4 4c-1.256 1.256-3.413 0.363-3.413-1.412v-3.25h-1.063l-15.025 16.256c-0.144 0.156-0.344 0.244-0.55 0.244h-6.612c-0.412 0-0.75-0.337-0.75-0.75v-0.5c0-0.413 0.338-0.75 0.75-0.75h6.063l15.025-16.256c0.144-0.156 0.344-0.244 0.55-0.244h1.613v-2.75c0-1.781 2.156-2.669 3.413-1.413l4 4c0.781 0.781 0.781 2.044 0 2.825zM30.175 7.825l-4-4c-0.156-0.156-0.425-0.044-0.425 0.175v8c0 0.225 0.269 0.338 0.425 0.175l4-4c0.1-0.094 0.1-0.256 0-0.35z"></path>
</svg>
