<!-- Generated by IcoMoon.io -->
<svg version="1.1" xmlns="http://www.w3.org/2000/svg" width="36" height="32" viewBox="0 0 36 32">
<title>raygun-solid</title>
<path d="M34.684 7.438l-4.683 1.561h-3.997v-3.999c0-0 0-0 0-0 0-0.552-0.448-1-1-1-0 0-0 0-0 0h-1c-0 0-0 0-0 0-0.552 0-1 0.448-1 1v0 11.999c0 0.552 0.448 1 1 1 0 0 0 0 0 0h1c0 0 0 0 0 0 0.552 0 1-0.448 1-1 0 0 0 0 0 0v0-3.999h4.005l4.676 1.561c0.094 0.033 0.203 0.051 0.317 0.051 0.552 0 1-0.448 1-1v0-5.224c-0-0.552-0.448-1-1-1-0.113 0-0.222 0.019-0.323 0.053l0.007-0.002zM20.002 2h-1c-0 0-0 0-0 0-0.552 0-1 0.448-1 1 0 0 0 0 0 0v0 1.701c-0.877-0.437-1.91-0.696-3.002-0.701h-3l-6.552-3.893c-0.13-0.067-0.284-0.106-0.447-0.106-0.552 0-1 0.448-1 1v0 3.698c-2.359 1.126-4 3.513-4 6.3 0 3.455 2.509 6.308 5.802 6.878l-4.401 7.62c-0.254 0.431-0.403 0.949-0.403 1.502 0 1.105 0.598 2.071 1.489 2.59l0.014 0.008 3.463 2c0.431 0.254 0.949 0.403 1.502 0.403 1.105 0 2.071-0.598 2.591-1.489l0.008-0.014 7.506-13.001c0.149-0.059 0.289-0.131 0.433-0.199v1.701c0 0.552 0.448 1 1 1 0 0 0 0 0 0h1c0.545-0.001 0.987-0.438 0.996-0.98v-16.037c-0.009-0.543-0.452-0.981-0.996-0.981h-0zM6.997 12.499c-0.828-0-1.5-0.672-1.5-1.5s0.672-1.5 1.5-1.5 1.5 0.672 1.5 1.5v0c-0 0.828-0.672 1.5-1.5 1.5-0 0-0 0-0 0v0zM12.998 12.499c-0.828-0-1.5-0.672-1.5-1.5s0.672-1.5 1.5-1.5 1.5 0.672 1.5 1.5v0c-0 0.828-0.672 1.5-1.5 1.5-0 0-0 0-0 0v0z"></path>
</svg>
