<!-- Generated by IcoMoon.io -->
<svg version="1.1" xmlns="http://www.w3.org/2000/svg" width="36" height="32" viewBox="0 0 36 32">
<title>raygun</title>
<path d="M7 10c0 0 0 0 0 0-0.552 0-1 0.448-1 1s0.448 1 1 1c0.552 0 1-0.448 1-1v0c-0-0.552-0.448-1-1-1v0zM34.553 6.106l-6 3c-0.33 0.168-0.552 0.505-0.553 0.894v0-0.001h-2v-5c0-0.552-0.448-1-1-1s-1 0.448-1 1v0 5h-2v-7c0-0.552-0.448-1-1-1s-1 0.448-1 1v0 3.112c-1.268-1.303-3.039-2.112-4.999-2.112-0.001 0-0.002 0-0.003 0h-2.786l-8.807-3.914c-0.119-0.054-0.259-0.086-0.406-0.086-0.552 0-1 0.448-1 1 0 0 0 0 0 0v-0l-0.002 5.114c-1.236 1.257-1.998 2.982-1.998 4.885 0 0.001 0 0.001 0 0.002v-0c0 3.78 3.002 6.839 6.75 6.975l-4.345 7.523c-0.254 0.43-0.403 0.948-0.403 1.501 0 1.105 0.598 2.070 1.489 2.59l0.014 0.008 3.463 2c0.431 0.254 0.949 0.404 1.502 0.404 1.105 0 2.070-0.599 2.589-1.489l0.008-0.014 7.957-13.783c0.364-0.256 0.683-0.527 0.976-0.824l0.001-0.001v3.112c0 0.552 0.448 1 1 1s1-0.448 1-1v0-7h2v5c0 0.552 0.448 1 1 1s1-0.448 1-1v0-5h2v-0.003c0 0 0 0.001 0 0.001 0 0.389 0.222 0.726 0.547 0.891l0.006 0.003 6 3.003c0.13 0.066 0.284 0.105 0.447 0.105 0.552 0 1-0.447 1.001-0.999v-7.999c-0.001-0.552-0.448-1-1.001-1-0.163 0-0.316 0.039-0.452 0.108l0.006-0.003zM4 2.538l3.288 1.462h-0.287c-1.094 0.006-2.126 0.264-3.043 0.718l0.040-0.018zM9.335 29.496c-0.174 0.304-0.496 0.505-0.866 0.505-0.185 0-0.358-0.051-0.507-0.139l0.005 0.003-3.462-1.999c-0.303-0.175-0.504-0.497-0.504-0.866 0-0.185 0.050-0.358 0.138-0.506l-0.003 0.005 4.908-8.498h5.954c0.002 0 0.003-0 0.005-0h0.968zM14.999 16h-7.998c-2.761 0-5-2.239-5-5s2.239-5 5-5v0h7.998c2.761 0 5 2.239 5 5s-2.239 5-5 5v0zM34 13.381l-4-2.002v-0.761l4-2zM11 10c0 0 0 0 0 0-0.552 0-1 0.448-1 1s0.448 1 1 1c0.552 0 1-0.448 1-1v0c-0-0.552-0.448-1-1-1v0zM15 10c0 0 0 0 0 0-0.552 0-1 0.448-1 1s0.448 1 1 1c0.552 0 1-0.448 1-1v0c-0-0.552-0.448-1-1-1v0z"></path>
</svg>
