<!-- Generated by IcoMoon.io -->
<svg version="1.1" xmlns="http://www.w3.org/2000/svg" width="28" height="32" viewBox="0 0 28 32">
<title>receipt</title>
<path d="M21.5 15h-15c-0.275 0-0.5 0.225-0.5 0.5v1c0 0.275 0.225 0.5 0.5 0.5h15c0.275 0 0.5-0.225 0.5-0.5v-1c0-0.275-0.225-0.5-0.5-0.5zM21.5 21h-15c-0.275 0-0.5 0.225-0.5 0.5v1c0 0.275 0.225 0.5 0.5 0.5h15c0.275 0 0.5-0.225 0.5-0.5v-1c0-0.275-0.225-0.5-0.5-0.5zM26.131 0c-0.363 0-0.738 0.113-1.081 0.356l-2.719 1.956-2.413-1.738c-0.525-0.375-1.137-0.569-1.756-0.569-0.613 0-1.225 0.188-1.75 0.569l-2.412 1.738-2.412-1.738c-0.525-0.375-1.144-0.569-1.756-0.569s-1.225 0.188-1.75 0.569l-2.412 1.738-2.719-1.956c-0.337-0.244-0.712-0.356-1.081-0.356-0.969 0.006-1.869 0.769-1.869 1.869v28.269c0 1.081 0.894 1.863 1.869 1.863 0.363 0 0.738-0.113 1.081-0.356l2.719-1.956 2.412 1.738c0.525 0.375 1.137 0.569 1.756 0.569 0.613 0 1.225-0.188 1.75-0.569l2.412-1.738 2.412 1.738c0.525 0.375 1.144 0.569 1.756 0.569s1.225-0.188 1.75-0.569l2.413-1.738 2.719 1.956c0.337 0.244 0.712 0.356 1.081 0.356 0.969 0 1.863-0.762 1.863-1.863v-28.269c0.006-1.087-0.887-1.869-1.863-1.869zM26 29.863l-3.669-2.644-1.169 0.844-2.413 1.738c-0.175 0.125-0.375 0.188-0.581 0.188-0.212 0-0.413-0.069-0.587-0.194l-2.412-1.731-1.169-0.844-1.169 0.844-2.412 1.738c-0.175 0.125-0.375 0.188-0.588 0.188s-0.412-0.069-0.588-0.194l-2.412-1.731-1.169-0.844-1.163 0.844-2.5 1.837v-27.762l3.669 2.644 1.169-0.844 2.412-1.737c0.175-0.125 0.375-0.188 0.581-0.188 0.213 0 0.412 0.069 0.588 0.194l2.412 1.731 1.169 0.844 1.169-0.844 2.412-1.737c0.175-0.125 0.375-0.188 0.587-0.188s0.413 0.069 0.587 0.194l2.413 1.731 1.169 0.844 1.163-0.844 2.5-1.8v27.725zM21.5 9h-15c-0.275 0-0.5 0.225-0.5 0.5v1c0 0.275 0.225 0.5 0.5 0.5h15c0.275 0 0.5-0.225 0.5-0.5v-1c0-0.275-0.225-0.5-0.5-0.5z"></path>
</svg>
