<!-- Generated by IcoMoon.io -->
<svg version="1.1" xmlns="http://www.w3.org/2000/svg" width="24" height="32" viewBox="0 0 24 32">
<title>receipt-solid</title>
<path d="M22.4 0.2l-2.4 2.8-3.4-2.8c-0.165-0.126-0.373-0.202-0.6-0.202s-0.435 0.076-0.602 0.203l0.002-0.002-3.4 2.8-3.4-2.8c-0.165-0.126-0.373-0.202-0.6-0.202s-0.435 0.076-0.602 0.203l0.002-0.002-3.4 2.8-2.4-2.8c-0.662-0.494-1.6-0.025-1.6 0.8v30c0 0.825 0.938 1.294 1.6 0.8l2.4-2.8 3.4 2.8c0.165 0.126 0.373 0.202 0.6 0.202s0.435-0.076 0.602-0.203l-0.002 0.002 3.4-2.8 3.4 2.8c0.165 0.126 0.373 0.202 0.6 0.202s0.435-0.076 0.602-0.203l-0.002 0.002 3.4-2.8 2.4 2.8c0.656 0.494 1.6 0.025 1.6-0.8v-30c0-0.825-0.938-1.294-1.6-0.8zM20 22.5c0 0.275-0.225 0.5-0.5 0.5h-15c-0.275 0-0.5-0.225-0.5-0.5v-1c0-0.275 0.225-0.5 0.5-0.5h15c0.275 0 0.5 0.225 0.5 0.5v1zM20 16.5c0 0.275-0.225 0.5-0.5 0.5h-15c-0.275 0-0.5-0.225-0.5-0.5v-1c0-0.275 0.225-0.5 0.5-0.5h15c0.275 0 0.5 0.225 0.5 0.5v1zM20 10.5c0 0.275-0.225 0.5-0.5 0.5h-15c-0.275 0-0.5-0.225-0.5-0.5v-1c0-0.275 0.225-0.5 0.5-0.5h15c0.275 0 0.5 0.225 0.5 0.5v1z"></path>
</svg>
