<!-- Generated by IcoMoon.io -->
<svg version="1.1" xmlns="http://www.w3.org/2000/svg" width="32" height="32" viewBox="0 0 32 32">
<title>recycle</title>
<path d="M12.608 3.878l-2.712 4.341c-0.219 0.351-0.682 0.458-1.034 0.239l-0.424-0.265c-0.351-0.219-0.458-0.682-0.239-1.033l2.712-4.343c2.348-3.757 7.829-3.755 10.176 0l2.889 4.626 0.752-3.259c0.093-0.404 0.496-0.655 0.899-0.562l0.487 0.112c0.404 0.093 0.655 0.496 0.562 0.899l-1.352 5.856c-0.093 0.404-0.496 0.655-0.899 0.562l-5.856-1.352c-0.404-0.093-0.655-0.496-0.562-0.899l0.112-0.487c0.093-0.404 0.496-0.655 0.899-0.562l3.263 0.753-2.891-4.628c-1.563-2.5-5.217-2.506-6.784 0.001zM31.081 18.82l-3.309-5.299c-0.219-0.351-0.682-0.458-1.034-0.239l-0.423 0.264c-0.351 0.22-0.458 0.682-0.239 1.033l3.31 5.3c1.663 2.66-0.253 6.12-3.392 6.12h-6.581l2.366-2.366c0.293-0.293 0.293-0.768 0-1.061l-0.354-0.354c-0.293-0.293-0.768-0.293-1.061 0l-4.25 4.25c-0.293 0.293-0.293 0.768 0 1.061l4.25 4.25c0.293 0.293 0.768 0.293 1.061 0l0.354-0.354c0.293-0.293 0.293-0.768 0-1.061l-2.366-2.366h6.578c4.705 0 7.583-5.187 5.088-9.18zM2.613 19.879l3.488-5.584 0.753 3.26c0.093 0.404 0.496 0.655 0.899 0.562l0.487-0.112c0.404-0.093 0.655-0.496 0.562-0.899l-1.352-5.856c-0.093-0.404-0.496-0.655-0.899-0.562l-5.856 1.352c-0.404 0.093-0.655 0.496-0.562 0.899l0.112 0.487c0.093 0.404 0.496 0.655 0.9 0.562l3.262-0.753-3.487 5.585c-2.493 3.989 0.38 9.18 5.088 9.18h6.243c0.414 0 0.75-0.336 0.75-0.75v-0.5c0-0.414-0.336-0.75-0.75-0.75h-6.245c-3.137 0-5.055-3.458-3.392-6.121z"></path>
</svg>
