<!-- Generated by IcoMoon.io -->
<svg version="1.1" xmlns="http://www.w3.org/2000/svg" width="32" height="32" viewBox="0 0 32 32">
<title>recycle-solid</title>
<path d="M11.535 16.369c0.202 0.875-0.758 1.54-1.504 1.073l-2.546-1.591-3.179 5.088c-0.83 1.328 0.129 3.061 1.695 3.061h3.249c0.414 0 0.75 0.336 0.75 0.75v2.5c0 0.414-0.336 0.75-0.75 0.75h-3.243c-4.708 0-7.581-5.191-5.088-9.18l3.176-5.087-2.545-1.591c-0.755-0.472-0.56-1.623 0.305-1.822l6.89-1.591c0.538-0.124 1.075 0.211 1.199 0.749l1.591 6.89zM17.695 4.937l2.581 4.13-2.546 1.591c-0.753 0.47-0.563 1.622 0.305 1.822l6.89 1.591c0.542 0.125 1.076-0.215 1.199-0.749l1.591-6.89c0.2-0.865-0.749-1.545-1.504-1.073l-2.543 1.589-2.579-4.13c-2.345-3.752-7.826-3.761-10.176 0l-1.123 1.798c-0.219 0.351-0.113 0.814 0.239 1.033l2.12 1.325c0.351 0.22 0.814 0.113 1.034-0.239l1.123-1.796c0.794-1.271 2.623-1.23 3.391-0.001zM31.081 18.82l-1.72-2.754c-0.219-0.351-0.682-0.458-1.034-0.239l-2.116 1.322c-0.351 0.22-0.458 0.682-0.239 1.034l1.723 2.757c0.829 1.326-0.129 3.060-1.696 3.060h-5.999v-2.999c0-0.888-1.078-1.336-1.707-0.707l-5 4.999c-0.391 0.39-0.391 1.024 0 1.414l5 4.999c0.625 0.625 1.707 0.187 1.707-0.707v-2.999h5.992c4.705 0 7.583-5.187 5.088-9.18z"></path>
</svg>
