<!-- Generated by IcoMoon.io -->
<svg version="1.1" xmlns="http://www.w3.org/2000/svg" width="32" height="32" viewBox="0 0 32 32">
<title>redo-alt-solid</title>
<path d="M16.028 0.5c4.142 0.007 7.902 1.64 10.679 4.293l2.232-2.232c0.945-0.945 2.561-0.276 2.561 1.061v8.379c0 0.828-0.672 1.5-1.5 1.5h-8.379c-1.336 0-2.006-1.616-1.061-2.561l2.609-2.609c-1.929-1.806-4.425-2.807-7.077-2.83-5.775-0.050-10.643 4.624-10.593 10.59 0.047 5.66 4.636 10.41 10.5 10.41 2.57 0 5-0.917 6.914-2.597 0.296-0.26 0.744-0.244 1.023 0.035l2.479 2.479c0.305 0.305 0.289 0.801-0.030 1.090-2.748 2.483-6.391 3.994-10.386 3.994-8.56 0-15.5-6.94-15.5-15.5-0-8.551 6.978-15.515 15.528-15.5z"></path>
</svg>
