<!-- Generated by IcoMoon.io -->
<svg version="1.1" xmlns="http://www.w3.org/2000/svg" width="32" height="32" viewBox="0 0 32 32">
<title>redo-solid</title>
<path d="M31.271 0h-2.963c-0 0-0.001 0-0.001 0-0.414 0-0.75 0.336-0.75 0.75 0 0.013 0 0.025 0.001 0.037l-0-0.002 0.25 5.173c-2.854-3.348-7.076-5.458-11.79-5.458-0.006 0-0.012 0-0.018 0h0.001c-8.541 0-15.506 6.971-15.5 15.512 0.006 8.555 6.944 15.488 15.5 15.488 0.006 0 0.014 0 0.022 0 3.995 0 7.635-1.517 10.377-4.006l-0.013 0.011c0.154-0.138 0.25-0.337 0.25-0.559 0-0.207-0.084-0.395-0.22-0.53l-2.125-2.125c-0.136-0.136-0.323-0.22-0.53-0.22-0.189 0-0.362 0.070-0.494 0.186l0.001-0.001c-1.927 1.702-4.475 2.741-7.266 2.741-6.075 0-11-4.925-11-11s4.925-11 11-11c3.787 0 7.126 1.913 9.105 4.826l0.025 0.038-6.346-0.304c-0.011-0.001-0.023-0.001-0.036-0.001-0.414 0-0.75 0.336-0.75 0.75 0 0 0 0.001 0 0.001v-0 2.963c0 0.414 0.336 0.75 0.75 0.75v0h12.521c0.414 0 0.75-0.336 0.75-0.75v0-12.521c0-0.414-0.336-0.75-0.75-0.75v0z"></path>
</svg>
