<!-- Generated by IcoMoon.io -->
<svg version="1.1" xmlns="http://www.w3.org/2000/svg" width="32" height="32" viewBox="0 0 32 32">
<title>redo</title>
<path d="M30.75 0.5h-0.625c-0.414 0-0.75 0.336-0.75 0.75v6.914c-2.7-4.599-7.702-7.682-13.425-7.664-8.524 0.027-15.464 7-15.45 15.525 0.013 8.549 6.948 15.475 15.5 15.475 3.995 0 7.638-1.512 10.386-3.994 0.32-0.289 0.335-0.785 0.030-1.090l-0.442-0.442c-0.281-0.281-0.734-0.295-1.030-0.028-2.368 2.131-5.503 3.429-8.944 3.429-7.359 0-13.375-5.958-13.375-13.375 0-7.359 5.958-13.375 13.375-13.375 5.179 0 9.671 2.942 11.893 7.25h-7.143c-0.414 0-0.75 0.336-0.75 0.75v0.625c0 0.414 0.336 0.75 0.75 0.75h10c0.414 0 0.75-0.336 0.75-0.75v-10c0-0.414-0.336-0.75-0.75-0.75z"></path>
</svg>
