<!-- Generated by IcoMoon.io -->
<svg version="1.1" xmlns="http://www.w3.org/2000/svg" width="32" height="32" viewBox="0 0 32 32">
<title>redo-alt</title>
<path d="M28.587 0.588l-3.131 3.131c-2.619-2.019-5.906-3.219-9.469-3.219-8.537 0.006-15.506 6.987-15.488 15.531s6.95 15.469 15.5 15.469c3.994 0 7.637-1.512 10.387-3.994 0.319-0.288 0.337-0.788 0.031-1.087l-0.444-0.444c-0.281-0.281-0.731-0.294-1.031-0.031-2.438 2.194-5.587 3.431-8.944 3.431-7.375 0-13.375-5.975-13.375-13.375 0-7.375 5.975-13.375 13.375-13.375 2.906 0 5.669 0.931 7.937 2.606l-3.35 3.35c-1.256 1.256-0.369 3.412 1.413 3.412h8c1.106 0 2-0.894 2-2v-7.994c0-1.781-2.163-2.669-3.413-1.413zM30 10h-8l8-8z"></path>
</svg>
