<!-- Generated by IcoMoon.io -->
<svg version="1.1" xmlns="http://www.w3.org/2000/svg" width="24" height="32" viewBox="0 0 24 32">
<title>refrigerator</title>
<path d="M21 0h-18c-1.657 0-3 1.343-3 3v0 26c0 1.657 1.343 3 3 3v0h18c1.657 0 3-1.343 3-3v0-26c0-1.657-1.343-3-3-3v0zM22 29c0 0.552-0.448 1-1 1v0h-18c-0.552 0-1-0.448-1-1v0-17h14v11.5c0 0.276 0.224 0.5 0.5 0.5v0h1c0.276 0 0.5-0.224 0.5-0.5v0-11.5h4zM22 10h-4v-3.5c0-0.276-0.224-0.5-0.5-0.5v0h-1c-0.276 0-0.5 0.224-0.5 0.5v0 3.5h-14v-7c0-0.552 0.448-1 1-1v0h18c0.552 0 1 0.448 1 1v0z"></path>
</svg>
