<!-- Generated by IcoMoon.io -->
<svg version="1.1" xmlns="http://www.w3.org/2000/svg" width="32" height="32" viewBox="0 0 32 32">
<title>registered</title>
<path d="M16 0.5c-8.56 0-15.5 6.94-15.5 15.5s6.94 15.5 15.5 15.5 15.5-6.94 15.5-15.5-6.94-15.5-15.5-15.5zM29.5 16c0 7.416-6.003 13.5-13.5 13.5-7.416 0-13.5-6.003-13.5-13.5 0-7.416 6.003-13.5 13.5-13.5 7.416 0 13.5 6.003 13.5 13.5zM22.462 23.393c-3.54-6.547-3.237-5.995-3.355-6.19 1.695-0.744 2.757-2.465 2.757-4.552 0-3.621-2.3-5.012-5.87-5.012h-4.443c-0.414 0-0.75 0.336-0.75 0.75v15.361c0 0.414 0.336 0.75 0.75 0.75h1.057c0.414 0 0.75-0.336 0.75-0.75v-5.928h3.194l3.375 6.283c0.129 0.237 0.376 0.395 0.66 0.395 0 0 0 0 0.001 0h1.213c0.569 0 0.93-0.607 0.66-1.107zM16.626 15.423h-3.268v-5.385h2.704c1.295 0 3.2 0.068 3.2 2.659-0 1.707-0.986 2.726-2.636 2.726z"></path>
</svg>
