<!-- Generated by IcoMoon.io -->
<svg version="1.1" xmlns="http://www.w3.org/2000/svg" width="32" height="32" viewBox="0 0 32 32">
<title>registered-solid</title>
<path d="M17.835 12.967c0 1.162-0.614 1.777-1.777 1.777h-1.867v-3.509h1.461c1.792 0 2.183 0.548 2.183 1.732zM31.5 16c0 8.56-6.94 15.5-15.5 15.5s-15.5-6.94-15.5-15.5 6.94-15.5 15.5-15.5 15.5 6.94 15.5 15.5zM22.713 22.526c-2.921-5.302-2.706-4.915-2.794-5.061 1.465-0.948 2.372-2.686 2.372-4.655 0-3.39-1.969-5.578-6.594-5.578h-4.417c-0.828 0-1.5 0.672-1.5 1.5v14.519c0 0.828 0.672 1.5 1.5 1.5h1.41c0.828 0 1.5-0.672 1.5-1.5v-4.479h1.597l2.758 5.184c0.258 0.477 0.754 0.795 1.324 0.795h1.529c1.141-0 1.864-1.224 1.314-2.224z"></path>
</svg>
