<!-- Generated by IcoMoon.io -->
<svg version="1.1" xmlns="http://www.w3.org/2000/svg" width="40" height="32" viewBox="0 0 40 32">
<title>remove-format-solid</title>
<path d="M21 26h-0.698l0.579-1.736-4.193-3.239-1.657 4.975h-2.031c-0.552 0-1 0.448-1 1v0 2c0 0.552 0.448 1 1 1v0h8c0.552 0 1-0.448 1-1v0-2c0-0.552-0.448-1-1-1v0zM39.614 28.631l-16.051-12.407 3.073-9.224h7.364v2c0 0.552 0.448 1 1 1v0h2c0.552 0 1-0.448 1-1v0-6c0-0.552-0.448-1-1-1v0h-26c-0.552 0-1 0.448-1 1v0 2.744l-7.159-5.532c-0.168-0.131-0.382-0.211-0.614-0.211-0.32 0-0.605 0.15-0.788 0.384l-0.002 0.002-1.227 1.579c-0.131 0.168-0.21 0.381-0.21 0.614 0 0.32 0.15 0.605 0.384 0.788l0.002 0.002 36.773 28.42c0.168 0.131 0.382 0.211 0.614 0.211 0.32 0 0.605-0.15 0.788-0.384l0.002-0.002 1.227-1.579c0.131-0.168 0.21-0.381 0.21-0.613 0-0.32-0.15-0.605-0.384-0.788l-0.002-0.002zM19.369 12.985l-5.369-4.15v-1.835h7.364z"></path>
</svg>
