<!-- Generated by IcoMoon.io -->
<svg version="1.1" xmlns="http://www.w3.org/2000/svg" width="40" height="32" viewBox="0 0 40 32">
<title>remove-format</title>
<path d="M12 4h11l-2.785 8.355 1.584 1.25 3.201-9.605h11v3.5c0 0.276 0.224 0.5 0.5 0.5v0h1c0.276 0 0.5-0.224 0.5-0.5v0-4.5c0-0.552-0.448-1-1-1v0h-26c-0.552 0-1 0.448-1 1v0 1.313l2 1.574zM21.5 28h-4.5l2.784-8.352-1.584-1.25-3.2 9.602h-4.5c-0.276 0-0.5 0.224-0.5 0.5v0 1c0 0.276 0.224 0.5 0.5 0.5v0h11c0.276 0 0.5-0.224 0.5-0.5v0-1c0-0.276-0.224-0.5-0.5-0.5v0zM39.813 30.332l-38.375-30.219c-0.084-0.071-0.194-0.113-0.314-0.113-0.157 0-0.296 0.073-0.386 0.187l-0.001 0.001-0.625 0.781c-0.069 0.085-0.112 0.194-0.112 0.313 0 0.157 0.073 0.296 0.186 0.387l0.001 0.001 38.375 30.22c0.084 0.069 0.193 0.11 0.311 0.11 0.157 0 0.296-0.073 0.387-0.186l0.001-0.001 0.625-0.781c0.071-0.084 0.114-0.194 0.114-0.314 0-0.156-0.073-0.295-0.186-0.384l-0.001-0.001z"></path>
</svg>
