<!-- Generated by IcoMoon.io -->
<svg version="1.1" xmlns="http://www.w3.org/2000/svg" width="32" height="32" viewBox="0 0 32 32">
<title>repeat-alt</title>
<path d="M3.377 20.482c-0.869-1.279-1.377-2.823-1.377-4.482 0-4.411 3.589-8 8-8h10v3.998c0 1.827 2.262 2.699 3.487 1.338l4.5-4.998c0.684-0.761 0.685-1.915 0-2.676l-4.5-4.998c-1.222-1.358-3.487-0.493-3.487 1.338v3.998h-10c-5.514 0-10 4.486-10 10 0 2.12 0.663 4.087 1.793 5.706 0.277 0.397 0.85 0.433 1.174 0.074l0.343-0.381c0.229-0.255 0.259-0.634 0.067-0.917zM22 2l4.5 5-4.5 5v-10zM30.207 10.294c-0.277-0.397-0.85-0.434-1.174-0.074l-0.343 0.381c-0.229 0.255-0.259 0.634-0.067 0.917 0.869 1.279 1.377 2.822 1.377 4.482 0 4.411-3.589 8-8 8h-10v-3.998c0-1.827-2.262-2.699-3.487-1.338l-4.5 4.998c-0.684 0.761-0.685 1.915 0 2.676l4.5 4.998c1.222 1.358 3.487 0.493 3.487-1.338v-3.998h10c5.514 0 10-4.486 10-10 0-2.12-0.663-4.087-1.793-5.706zM10 30l-4.5-5 4.5-5v10z"></path>
</svg>
