<!-- Generated by IcoMoon.io -->
<svg version="1.1" xmlns="http://www.w3.org/2000/svg" width="32" height="32" viewBox="0 0 32 32">
<title>repeat-1-solid</title>
<path d="M32 16c0 5.514-4.486 10-10 10h-11.371l2.157 2.026c0.617 0.58 0.632 1.555 0.034 2.154l-0.673 0.673c-0.586 0.586-1.536 0.586-2.121 0l-5.793-5.793c-0.586-0.586-0.586-1.535 0-2.121l5.017-5.017c0.586-0.586 1.536-0.586 2.121 0l0.673 0.673c0.599 0.599 0.584 1.574-0.034 2.154l-1.381 1.25h11.371c3.308 0 6-2.692 6-6 0-0.872-0.187-1.702-0.523-2.45-0.254-0.565-0.143-1.227 0.295-1.665l0.761-0.761c0.719-0.719 1.935-0.533 2.395 0.374 0.686 1.354 1.072 2.884 1.072 4.502zM4.524 18.45c-0.336-0.748-0.524-1.578-0.524-2.45 0-3.308 2.692-6 6-6h11.371l-1.381 1.25c-0.617 0.58-0.632 1.555-0.034 2.154l0.673 0.673c0.586 0.586 1.535 0.586 2.121 0l5.017-5.017c0.586-0.586 0.586-1.535 0-2.121l-5.793-5.793c-0.586-0.586-1.535-0.586-2.121 0l-0.673 0.673c-0.599 0.599-0.584 1.574 0.034 2.154l2.157 2.026h-11.371c-5.514 0-10 4.486-10 10 0 1.619 0.387 3.148 1.072 4.502 0.459 0.907 1.676 1.093 2.394 0.374l0.761-0.761c0.438-0.438 0.549-1.1 0.295-1.665zM14.204 18.72c0-0.467 0.245-0.723 0.723-0.723h0.946v-2.492c0-0.323 0.033-0.656 0.033-0.656h-0.022s-0.111 0.167-0.178 0.234c-0.278 0.267-0.656 0.278-0.979-0.067l-0.345-0.389c-0.334-0.334-0.312-0.701 0.033-1.024l1.357-1.246c0.278-0.256 0.523-0.356 0.901-0.356h0.757c0.479 0 0.734 0.245 0.734 0.723v5.274h0.968c0.478 0 0.723 0.256 0.723 0.723v0.556c0 0.467-0.245 0.723-0.723 0.723h-4.206c-0.479 0-0.723-0.256-0.723-0.723v-0.556z"></path>
</svg>
