<!-- Generated by IcoMoon.io -->
<svg version="1.1" xmlns="http://www.w3.org/2000/svg" width="32" height="32" viewBox="0 0 32 32">
<title>repeat</title>
<path d="M32 16c0 5.514-4.486 10-10 10h-15.086l4.263 4.263c0.293 0.293 0.293 0.768 0 1.061l-0.354 0.354c-0.293 0.293-0.768 0.293-1.061 0l-6.146-6.146c-0.293-0.293-0.293-0.768 0-1.061l6.146-6.146c0.293-0.293 0.768-0.293 1.061 0l0.354 0.354c0.293 0.293 0.293 0.768 0 1.061l-4.263 4.263h15.086c4.411 0 8-3.589 8-8 0-1.785-0.588-3.434-1.579-4.767-0.223-0.3-0.195-0.716 0.069-0.98l0.357-0.357c0.323-0.322 0.855-0.284 1.13 0.079 1.27 1.677 2.024 3.764 2.024 6.024zM3.579 20.767c-0.992-1.332-1.579-2.982-1.579-4.767 0-4.411 3.589-8 8-8h15.086l-4.263 4.263c-0.293 0.293-0.293 0.768 0 1.061l0.354 0.354c0.293 0.293 0.768 0.293 1.061 0l6.146-6.146c0.293-0.293 0.293-0.768 0-1.061l-6.146-6.146c-0.293-0.293-0.768-0.293-1.061 0l-0.354 0.353c-0.293 0.293-0.293 0.768 0 1.061l4.262 4.263h-15.086c-5.514 0-10 4.486-10 10 0 2.26 0.754 4.348 2.023 6.024 0.275 0.364 0.808 0.402 1.13 0.079l0.357-0.357c0.264-0.264 0.292-0.681 0.069-0.98z"></path>
</svg>
