<!-- Generated by IcoMoon.io -->
<svg version="1.1" xmlns="http://www.w3.org/2000/svg" width="32" height="32" viewBox="0 0 32 32">
<title>repeat-1-alt-solid</title>
<path d="M30.846 11.341c0.747 1.413 1.166 3.025 1.153 4.734-0.041 5.509-4.59 9.924-10.099 9.924h-9.9v2.968c0 1.405-1.636 2.017-2.561 1.092l-5-5c-0.586-0.586-0.586-1.536 0-2.121l5-5c0.944-0.944 2.561-0.271 2.561 1.061v3h9.93c3.301 0 6.036-2.636 6.070-5.937 0.010-0.94-0.198-1.832-0.576-2.628-0.273-0.574-0.151-1.258 0.3-1.705 0.297-0.294 0.54-0.535 0.742-0.737 0.71-0.71 1.911-0.539 2.381 0.348zM4 15.937c0.034-3.301 2.769-5.937 6.070-5.937h9.93v2.969c0 1.398 1.633 2.020 2.561 1.092l5-5c0.586-0.586 0.586-1.536 0-2.121l-5-5c-0.935-0.934-2.561-0.298-2.561 1.095v2.966h-9.9c-5.51 0-10.058 4.415-10.099 9.924-0.013 1.709 0.406 3.322 1.153 4.734 0.47 0.888 1.67 1.058 2.381 0.348 0.202-0.202 0.446-0.442 0.742-0.737 0.451-0.448 0.573-1.131 0.3-1.705-0.378-0.796-0.586-1.688-0.576-2.628zM14.204 18.72c0-0.467 0.245-0.723 0.723-0.723h0.946v-2.492c0-0.323 0.033-0.656 0.033-0.656h-0.022s-0.111 0.167-0.178 0.234c-0.278 0.267-0.656 0.278-0.979-0.067l-0.345-0.389c-0.334-0.334-0.312-0.701 0.033-1.024l1.357-1.246c0.278-0.256 0.523-0.356 0.901-0.356h0.757c0.479 0 0.734 0.245 0.734 0.723v5.274h0.968c0.478 0 0.723 0.256 0.723 0.723v0.556c0 0.467-0.245 0.723-0.723 0.723h-4.206c-0.479 0-0.723-0.256-0.723-0.723v-0.556z"></path>
</svg>
