<!-- Generated by IcoMoon.io -->
<svg version="1.1" xmlns="http://www.w3.org/2000/svg" width="36" height="32" viewBox="0 0 36 32">
<title>reply-all-solid</title>
<path d="M8.519 11.865l11-9.499c0.963-0.832 2.48-0.156 2.48 1.135v5.173c8.074 0.639 14 3.263 14 11.472 0 3.84-2.474 7.644-5.208 9.633-0.853 0.621-2.069-0.158-1.755-1.164 2.407-7.698-0.245-10.593-7.037-11.376v5.261c0 1.294-1.519 1.966-2.48 1.135l-11-9.499c-0.692-0.598-0.693-1.672 0-2.271zM0.519 14.135l11 9.499c0.962 0.831 2.48 0.159 2.48-1.135v-0.989l-6.788-5.862c-0.744-0.645-1.212-1.592-1.212-2.648 0-0.001 0-0.001 0-0.002v0c0-0 0-0.001 0-0.001 0-1.056 0.468-2.002 1.208-2.644l0.004-0.004 6.788-5.862v-0.989c0-1.292-1.518-1.967-2.48-1.135l-11 9.499c-0.693 0.598-0.692 1.673 0 2.271z"></path>
</svg>
