<!-- Generated by IcoMoon.io -->
<svg version="1.1" xmlns="http://www.w3.org/2000/svg" width="36" height="32" viewBox="0 0 36 32">
<title>reply</title>
<path d="M0.693 15.728l11 11.5c1.545 1.615 4.307 0.537 4.307-1.728v-5.49c9.652 0.113 13.691 1.046 11.324 9.443-0.521 1.845 1.59 3.264 3.105 2.157 2.081-1.521 5.571-4.974 5.571-10.911 0-10.693-9.659-12.565-20-12.689v-5.51c0-2.267-2.764-3.342-4.307-1.728l-11 11.499c-0.924 0.967-0.924 2.489 0 3.456zM2.139 13.654l11-11.5c0.308-0.323 0.861-0.108 0.861 0.346v7.5c9.82 0 20 0.699 20 10.699 0 4.65-2.5 7.636-4.751 9.282 3.208-11.375-4.537-11.981-15.249-11.981v7.5c0 0.454-0.553 0.668-0.861 0.346l-11-11.5c-0.086-0.089-0.139-0.211-0.139-0.346s0.053-0.256 0.139-0.346l-0 0z"></path>
</svg>
