<!-- Generated by IcoMoon.io -->
<svg version="1.1" xmlns="http://www.w3.org/2000/svg" width="36" height="32" viewBox="0 0 36 32">
<title>reply-all</title>
<path d="M6.585 15.414l10 9.999c1.251 1.251 3.414 0.374 3.414-1.414v-4.447c7.599 0.273 9.306 1.764 7.575 7.901-0.522 1.849 1.594 3.263 3.106 2.157 3.223-2.357 5.319-5.687 5.319-9.748 0-9.556-8.781-11.077-16-11.317v-4.543c0-1.787-2.162-2.667-3.414-1.414l-10 9.998c-0.781 0.781-0.781 2.047 0 2.829zM8 14l10-10v6.506c8.135 0.084 16 1.142 16 9.356 0 4.069-2.531 6.698-4.5 8.138 2.561-9.079-2.396-10.411-11.5-10.494v6.494l-10-10zM0.586 12.586l10-9.998c0.842-0.842 2.093-0.719 2.824-0.007l-11.41 11.419 11.41 11.419c-0.731 0.713-1.984 0.834-2.824-0.007l-10-9.999c-0.781-0.781-0.781-2.047-0-2.829z"></path>
</svg>
