<!-- Generated by IcoMoon.io -->
<svg version="1.1" xmlns="http://www.w3.org/2000/svg" width="40" height="32" viewBox="0 0 40 32">
<title>republican-solid</title>
<path d="M34 12c0-5.525-4.475-10-10-10h-14c-5.525 0-10 4.475-10 10v4h34v-4zM11.019 10.65l-1.238 1.206 0.294 1.706c0.050 0.306-0.269 0.537-0.544 0.394l-1.531-0.806-1.531 0.806c-0.269 0.144-0.594-0.088-0.544-0.394l0.294-1.706-1.237-1.206c-0.225-0.219-0.1-0.594 0.206-0.637l1.713-0.25 0.763-1.55c0.138-0.281 0.538-0.275 0.669 0l0.762 1.55 1.713 0.25c0.313 0.044 0.431 0.419 0.213 0.637zM20.019 10.65l-1.238 1.206 0.294 1.706c0.050 0.306-0.269 0.537-0.544 0.394l-1.531-0.806-1.531 0.806c-0.269 0.144-0.594-0.088-0.544-0.394l0.294-1.706-1.238-1.206c-0.225-0.219-0.1-0.594 0.206-0.637l1.713-0.25 0.763-1.55c0.137-0.281 0.538-0.275 0.669 0l0.762 1.55 1.712 0.25c0.313 0.044 0.431 0.419 0.212 0.637zM29.019 10.65l-1.238 1.206 0.294 1.706c0.050 0.306-0.269 0.537-0.544 0.394l-1.531-0.806-1.531 0.806c-0.269 0.144-0.594-0.088-0.544-0.394l0.294-1.706-1.238-1.206c-0.225-0.219-0.1-0.594 0.206-0.637l1.712-0.25 0.762-1.55c0.137-0.281 0.538-0.275 0.669 0l0.762 1.55 1.712 0.25c0.313 0.044 0.431 0.419 0.212 0.637zM39 20h-2c-0.55 0-1 0.45-1 1v4c0 0.55-0.45 1-1 1s-1-0.45-1-1v-7h-34v11c0 0.55 0.45 1 1 1h6c0.55 0 1-0.45 1-1v-5h12v5c0 0.55 0.45 1 1 1h6c0.55 0 1-0.45 1-1v-7h2v2.706c0 2.613 1.875 5.006 4.475 5.269 2.987 0.306 5.525-2.044 5.525-4.975v-4c0-0.55-0.45-1-1-1z"></path>
</svg>
