<!-- Generated by IcoMoon.io -->
<svg version="1.1" xmlns="http://www.w3.org/2000/svg" width="40" height="32" viewBox="0 0 40 32">
<title>republican</title>
<path d="M10.813 10.012l-1.713-0.25-0.762-1.55c-0.137-0.275-0.531-0.281-0.669 0l-0.763 1.55-1.713 0.25c-0.306 0.044-0.431 0.425-0.206 0.637l1.237 1.206-0.3 1.706c-0.050 0.306 0.269 0.537 0.544 0.394l1.531-0.806 1.531 0.806c0.269 0.144 0.594-0.088 0.544-0.394l-0.294-1.706 1.238-1.206c0.219-0.219 0.1-0.594-0.206-0.637zM18.813 10.012l-1.712-0.25-0.762-1.55c-0.137-0.275-0.531-0.281-0.669 0l-0.762 1.55-1.713 0.25c-0.306 0.044-0.431 0.425-0.206 0.637l1.238 1.206-0.294 1.706c-0.050 0.306 0.269 0.537 0.544 0.394l1.531-0.806 1.531 0.806c0.269 0.144 0.594-0.088 0.544-0.394l-0.294-1.706 1.238-1.206c0.212-0.219 0.094-0.594-0.212-0.637zM38 16h-2c-1.106 0-2 0.894-2 2v5c0 0.55-0.45 1-1 1s-1-0.45-1-1v-11c0-5.525-4.475-10-10-10h-12c-5.525 0-10 4.475-10 10v15c0 1.656 1.344 3 3 3h4c1.656 0 3-1.344 3-3v-3h8v3c0 1.656 1.344 3 3 3h4c1.394 0 2.556-0.956 2.894-2.244 1.525 1.637 3.806 2.569 6.306 2.144 3.413-0.575 5.806-3.725 5.806-7.188v-4.713c-0.006-1.106-0.9-2-2.006-2zM2 12c0-4.412 3.588-8 8-8h12c4.413 0 8 3.588 8 8v4h-28v-4zM38 23c0 2.756-2.244 5-5 5s-5-2.244-5-5v-1h-2v5c0 0.55-0.45 1-1 1h-4c-0.55 0-1-0.45-1-1v-5h-12v5c0 0.55-0.45 1-1 1h-4c-0.55 0-1-0.45-1-1v-9h28v5c0 1.656 1.344 3 3 3s3-1.344 3-3v-5h2v5zM26.813 10.012l-1.712-0.25-0.762-1.55c-0.137-0.275-0.531-0.281-0.669 0l-0.762 1.55-1.712 0.25c-0.306 0.044-0.431 0.425-0.206 0.637l1.238 1.206-0.294 1.706c-0.050 0.306 0.269 0.537 0.544 0.394l1.531-0.806 1.531 0.806c0.269 0.144 0.594-0.088 0.544-0.394l-0.294-1.706 1.238-1.206c0.212-0.219 0.094-0.594-0.212-0.637z"></path>
</svg>
