<!-- Generated by IcoMoon.io -->
<svg version="1.1" xmlns="http://www.w3.org/2000/svg" width="40" height="32" viewBox="0 0 40 32">
<title>restroom-solid</title>
<path d="M8 8c2.206 0 4-1.794 4-4s-1.794-4-4-4-4 1.794-4 4 1.794 4 4 4zM32 8c2.206 0 4-1.794 4-4s-1.794-4-4-4-4 1.794-4 4 1.794 4 4 4zM39.956 22.156l-2.85-11.613c-0.206-0.844-0.969-1.438-1.862-1.512-0.938 0.606-2.050 0.969-3.25 0.969s-2.313-0.363-3.25-0.969c-0.894 0.075-1.656 0.669-1.863 1.512l-2.85 11.613c-0.219 0.944 0.531 1.844 1.544 1.844h3.425v6.5c0 0.831 0.669 1.5 1.5 1.5h3c0.831 0 1.5-0.669 1.5-1.5v-6.5h3.425c1.013 0 1.763-0.9 1.531-1.844zM21 0h-2c-0.55 0-1 0.45-1 1v30c0 0.55 0.45 1 1 1h2c0.55 0 1-0.45 1-1v-30c0-0.55-0.45-1-1-1zM11.256 9.025c-0.938 0.613-2.056 0.975-3.256 0.975s-2.319-0.363-3.256-0.975c-1.538 0.131-2.744 1.406-2.744 2.975v8.5c0 0.831 0.669 1.5 1.5 1.5h0.5v8.5c0 0.831 0.669 1.5 1.5 1.5h5c0.831 0 1.5-0.669 1.5-1.5v-8.5h0.5c0.831 0 1.5-0.669 1.5-1.5v-8.5c0-1.569-1.206-2.844-2.744-2.975z"></path>
</svg>
