<!-- Generated by IcoMoon.io -->
<svg version="1.1" xmlns="http://www.w3.org/2000/svg" width="40" height="32" viewBox="0 0 40 32">
<title>restroom</title>
<path d="M20.5 0h-1c-0.275 0-0.5 0.225-0.5 0.5v31c0 0.275 0.225 0.5 0.5 0.5h1c0.275 0 0.5-0.225 0.5-0.5v-31c0-0.275-0.225-0.5-0.5-0.5zM8 10c2.762 0 5-2.237 5-5s-2.238-5-5-5-5 2.237-5 5 2.237 5 5 5zM8 2c1.656 0 3 1.344 3 3s-1.344 3-3 3-3-1.344-3-3 1.344-3 3-3zM10 11h-4c-2.763 0-5 2.238-5 5v6.331c0 0.919 0.744 1.669 1.669 1.669h0.831v6c0 1.106 0.894 2 2 2h5c1.106 0 2-0.894 2-2v-6h0.831c0.919 0 1.669-0.744 1.669-1.669v-6.331c0-2.762-2.238-5-5-5zM13 22h-2.5v8h-5v-8h-2.5v-6c0-1.656 1.344-3 3-3h4c1.656 0 3 1.344 3 3v6zM32 10c2.763 0 5-2.237 5-5s-2.237-5-5-5-5 2.237-5 5 2.238 5 5 5zM32 2c1.656 0 3 1.344 3 3s-1.344 3-3 3-3-1.344-3-3 1.344-3 3-3zM39.881 22.438l-2.806-7.588c-0.631-2.269-2.719-3.85-5.075-3.85s-4.444 1.581-5.075 3.85l-2.806 7.588c-0.219 0.587-0.137 1.25 0.225 1.769s0.95 0.825 1.581 0.825h1.575v4.975c0 1.1 0.894 1.994 1.994 1.994h5.006c1.1 0 1.994-0.894 1.994-1.994v-4.975h1.575c0.631 0 1.219-0.306 1.581-0.825s0.45-1.181 0.231-1.769zM34.5 23.031l0.006 6.969h-5.012l0.006-6.969h-3.5l2.831-7.563c0.419-1.488 1.712-2.469 3.175-2.469s2.756 0.981 3.175 2.469l2.831 7.563h-3.513z"></path>
</svg>
