<!-- Generated by IcoMoon.io -->
<svg version="1.1" xmlns="http://www.w3.org/2000/svg" width="40" height="32" viewBox="0 0 40 32">
<title>retweet-alt</title>
<path d="M37.998 20h-3.998v-12.5c0-0.828-0.672-1.5-1.5-1.5h-16.748c-0.687 0-1.013 0.848-0.502 1.307l0.556 0.5c0.132 0.119 0.309 0.193 0.502 0.193h15.693v12h-3.998c-1.827 0-2.699 2.262-1.338 3.487l4.998 4.5c0.761 0.684 1.915 0.685 2.676 0l4.998-4.5c1.358-1.222 0.493-3.487-1.338-3.487zM33 26.5l-5-4.5h10l-5 4.5zM24.75 24.692l-0.556-0.5c-0.132-0.119-0.308-0.192-0.502-0.192-0 0-0 0-0 0h-15.693v-12h3.998c1.827 0 2.699-2.262 1.338-3.487l-4.998-4.5c-0.761-0.684-1.915-0.685-2.676 0l-4.998 4.5c-1.358 1.222-0.493 3.487 1.338 3.487h3.998v12.5c0 0.828 0.672 1.5 1.5 1.5h16.748c0.687 0 1.013-0.848 0.502-1.308zM2 10l5-4.5 5 4.5h-10z"></path>
</svg>
