<!-- Generated by IcoMoon.io -->
<svg version="1.1" xmlns="http://www.w3.org/2000/svg" width="40" height="32" viewBox="0 0 40 32">
<title>retweet</title>
<path d="M39.677 22.737l-6.146 6.146c-0.293 0.293-0.768 0.293-1.061 0l-6.146-6.146c-0.293-0.293-0.293-0.768 0-1.061l0.354-0.354c0.293-0.293 0.768-0.293 1.061 0l4.263 4.262v-17.586h-15.748c-0 0-0 0-0 0-0.207 0-0.395-0.084-0.53-0.22l-0.5-0.5c-0.473-0.473-0.138-1.28 0.53-1.28h16.748c0.828 0 1.5 0.672 1.5 1.5v18.086l4.263-4.263c0.293-0.293 0.768-0.293 1.061 0l0.353 0.354c0.293 0.293 0.293 0.768 0 1.061zM24.279 24.22c-0.136-0.136-0.323-0.22-0.53-0.22h-15.748v-17.586l4.263 4.262c0.293 0.293 0.768 0.293 1.061 0l0.354-0.354c0.293-0.293 0.293-0.768 0-1.061l-6.146-6.146c-0.293-0.293-0.768-0.293-1.061 0l-6.146 6.147c-0.293 0.293-0.293 0.768 0 1.061l0.354 0.354c0.293 0.293 0.768 0.293 1.061 0l4.263-4.263v18.086c0 0.828 0.672 1.5 1.5 1.5h16.748c0.668 0 1.003-0.808 0.53-1.28l-0.5-0.5z"></path>
</svg>
