<!-- Generated by IcoMoon.io -->
<svg version="1.1" xmlns="http://www.w3.org/2000/svg" width="40" height="32" viewBox="0 0 40 32">
<title>retweet-alt-solid</title>
<path d="M24.525 23.975c0.747 0.747 0.218 2.025-0.839 2.025h-16.186c-0.828 0-1.5-0.672-1.5-1.5v-12.5h-3c-1.335 0-2.003-1.618-1.061-2.561l5-5c0.586-0.586 1.536-0.586 2.121 0l5 5c0.944 0.944 0.272 2.561-1.061 2.561h-3v10h12.629c0.489 0 0.93 0.299 1.105 0.755 0.185 0.476 0.454 0.882 0.792 1.22l0 0zM37 20h-3v-12.5c0-0.828-0.672-1.5-1.5-1.5h-16.186c-1.057 0-1.586 1.278-0.839 2.025 0.338 0.337 0.607 0.744 0.784 1.196l0.008 0.024c0.175 0.456 0.616 0.755 1.105 0.755h12.628v10h-3c-1.332 0-2.005 1.616-1.061 2.561l5 5c0.586 0.586 1.535 0.586 2.121 0l5-5c0.942-0.942 0.275-2.561-1.061-2.561z"></path>
</svg>
