<!-- Generated by IcoMoon.io -->
<svg version="1.1" xmlns="http://www.w3.org/2000/svg" width="40" height="32" viewBox="0 0 40 32">
<title>retweet-solid</title>
<path d="M39.354 21.475l-6.293 6.293c-0.586 0.586-1.535 0.586-2.121 0l-6.293-6.293c-0.586-0.586-0.586-1.536 0-2.121l0.676-0.676c0.598-0.598 1.571-0.584 2.151 0.031l2.526 2.674v-11.382h-11.722c-0.414-0-0.789-0.168-1.061-0.439l-1-1c-0.945-0.945-0.276-2.561 1.061-2.561h15.222c0.828 0 1.5 0.672 1.5 1.5v13.882l2.526-2.675c0.58-0.614 1.553-0.628 2.151-0.031l0.676 0.676c0.586 0.586 0.586 1.536-0 2.121zM22.782 22.439c-0.271-0.271-0.646-0.439-1.061-0.439-0 0-0 0-0 0h-11.722v-11.382l2.526 2.675c0.58 0.614 1.553 0.628 2.151 0.031l0.676-0.676c0.586-0.586 0.586-1.536 0-2.121l-6.293-6.293c-0.586-0.586-1.536-0.586-2.121 0l-6.293 6.293c-0.586 0.586-0.586 1.536 0 2.121l0.676 0.676c0.598 0.598 1.571 0.584 2.151-0.031l2.526-2.675v13.882c0 0.828 0.672 1.5 1.5 1.5h15.222c1.336 0 2.006-1.616 1.061-2.561l-1-1z"></path>
</svg>
