<!-- Generated by IcoMoon.io -->
<svg version="1.1" xmlns="http://www.w3.org/2000/svg" width="28" height="32" viewBox="0 0 28 32">
<title>ribbon-solid</title>
<path d="M0.381 27.769c-0.6 0.675-0.469 1.725 0.281 2.231l4.3 1.744c0.619 0.419 1.456 0.313 1.956-0.238l5.738-6.369-4.95-5.494-7.325 8.125zM27.619 27.769s-18.25-20.288-18.462-20.631c0.963-0.525 2.512-1.119 4.844-1.119s3.881 0.594 4.844 1.119c-0.206 0.35-3.5 4.037-3.5 4.037l4.944 5.481 2.137-2.375c1.794-1.994 2.081-4.912 0.712-7.219l-2.731-4.594c-0.269-0.45-0.619-0.831-1.050-1.125-2.544-1.725-7.963-1.856-10.713 0-0.431 0.294-0.781 0.675-1.050 1.125l-2.725 4.575c-0.094 0.156-2.319 3.888 0.719 7.25l15.506 17.206c0.5 0.556 1.337 0.656 1.956 0.238l4.3-1.744c0.744-0.5 0.875-1.55 0.269-2.225z"></path>
</svg>
