<!-- Generated by IcoMoon.io -->
<svg version="1.1" xmlns="http://www.w3.org/2000/svg" width="28" height="32" viewBox="0 0 28 32">
<title>ribbon</title>
<path d="M27.469 25.481l-7.238-7.613 2.65-2.838c2.087-2.231 2.337-5.456 0.637-8.219l-2.469-4.006c-0.344-0.563-0.8-1.019-1.344-1.369-1.012-0.656-2.819-1.438-5.706-1.438-2.881 0-4.694 0.781-5.7 1.431-0.55 0.35-1 0.819-1.344 1.381l-2.638 4.281c-1.569 2.544-1.244 5.737 0.813 7.938l2.763 2.956-7.369 7.506c-0.931 1.006-0.506 2.425 0.319 2.95l4.181 3.219c1.031 0.669 2.112 0.225 2.619-0.313l6.356-6.813 6.356 6.813c0.975 1.044 2.231 0.563 2.688 0.269l4.050-3.125c1.019-0.669 1.231-2.087 0.375-3.012zM20.525 5.769l1.288 2.087c1.231 2 1.081 4.225-0.394 5.806l-2.569 2.75-3.425-3.6 3.25-3.519c1-0.969 1.544-2.313 1.85-3.525zM14.050 11.363l-2.819-2.963c1.669-0.5 3.888-0.5 5.556 0l-2.738 2.963zM9.387 3.112c0.781-0.513 2.219-1.113 4.613-1.113s3.831 0.606 4.619 1.113c0.119 0.075 0.188 0.2 0.288 0.294-0.063 0.856-0.281 2.206-0.844 3.331-1.163-0.481-2.512-0.737-4.063-0.737s-2.906 0.256-4.075 0.744c-0.606-1.213-0.781-2.688-0.831-3.413 0.094-0.081 0.188-0.156 0.294-0.219zM6.181 30.031l-4.206-3.156 7.281-7.425 3.381 3.625-6.456 6.956zM21.819 29.981l-15.231-16.319c-1.431-1.531-1.662-3.75-0.569-5.525l1.45-2.35c0.306 1.2 0.856 2.531 1.831 3.475l16.637 17.6-4.119 3.119z"></path>
</svg>
