<!-- Generated by IcoMoon.io -->
<svg version="1.1" xmlns="http://www.w3.org/2000/svg" width="32" height="32" viewBox="0 0 32 32">
<title>rings-wedding-solid</title>
<path d="M21.953 10.048c0.836 1.293 1.459 2.808 1.777 4.433l0.013 0.082c2.523 1.095 4.256 3.565 4.256 6.44 0 3.866-3.134 7-7 7s-7-3.134-7-7c0-0.001 0-0.002 0-0.003v0c0-2.638 1.481-4.911 3.644-6.093 0.211 0.665 0.356 1.359 0.356 2.093-0.003 1.858-0.735 3.544-1.923 4.79l0.003-0.003c0.236 1.441 1.060 2.654 2.214 3.403l0.019 0.012c2.267-2.017 3.688-4.942 3.688-8.2 0-0.001 0-0.002 0-0.002v0c0-5.101-3.477-9.379-8.188-10.625l2.188-4.375-2-2h-6l-2 2 2.188 4.375c-4.71 1.246-8.188 5.524-8.188 10.625 0 6.075 4.925 11 11 11v0c0.509-0.004 1.006-0.043 1.492-0.114l-0.058 0.007c2.032 2.513 5.115 4.107 8.571 4.107 6.073 0 10.996-4.923 10.996-10.996 0-0.002 0-0.003 0-0.005v0c0-5.75-4.419-10.468-10.047-10.952zM4 17c0.004-3.864 3.136-6.996 7-7h0c1.678 0 3.199 0.617 4.406 1.606-3.223 1.909-5.406 5.374-5.406 9.394 0.003 1.047 0.153 2.058 0.429 3.015l-0.019-0.078c-3.579-0.302-6.409-3.28-6.409-6.938z"></path>
</svg>
