<!-- Generated by IcoMoon.io -->
<svg version="1.1" xmlns="http://www.w3.org/2000/svg" width="32" height="32" viewBox="0 0 32 32">
<title>ring-solid</title>
<path d="M16 4c-9.121 0-16 3.869-16 9v6.133c0 4.897 7.164 8.867 16 8.867s16-3.97 16-8.867v-6.133c0-5.131-6.879-9-16-9zM16 8c6.628 0 12 2.239 12 5 0 0.579-0.248 1.133-0.682 1.649-2.809-1.636-6.804-2.649-11.318-2.649s-8.509 1.013-11.318 2.649c-0.434-0.517-0.682-1.071-0.682-1.649 0-2.761 5.373-5 12-5zM7.527 16.54c2.163-0.919 5.076-1.54 8.473-1.54s6.31 0.621 8.473 1.54c-2.171 0.902-5.165 1.46-8.473 1.46s-6.303-0.558-8.473-1.46z"></path>
</svg>
