<!-- Generated by IcoMoon.io -->
<svg version="1.1" xmlns="http://www.w3.org/2000/svg" width="32" height="32" viewBox="0 0 32 32">
<title>ring</title>
<path d="M16 4c-10.504 0-16 4.024-16 8v7.133c0 4.897 7.164 8.867 16 8.867s16-3.97 16-8.867v-7.133c0-3.976-5.496-8-16-8zM30 19.133c0 3.248-5.749 6.867-14 6.867s-14-3.619-14-6.867v-3.133c2.458 2.289 7.159 3.999 14 3.999s11.542-1.711 14-3.999v3.133zM5.582 15.998c2.561-1.225 6.276-1.998 10.418-1.998s7.856 0.773 10.418 1.998c-2.563 1.226-6.274 2.002-10.418 2.002s-7.854-0.776-10.418-2.002zM28.387 14.791c-2.681-1.654-6.821-2.791-12.387-2.791s-9.706 1.137-12.387 2.791c-1.026-0.834-1.612-1.783-1.612-2.791 0-3.314 6.268-6 14-6s14 2.686 14 6c0 1.009-0.587 1.957-1.613 2.791z"></path>
</svg>
