<!-- Generated by IcoMoon.io -->
<svg version="1.1" xmlns="http://www.w3.org/2000/svg" width="32" height="32" viewBox="0 0 32 32">
<title>rings-wedding</title>
<path d="M21.977 10.049c0.41 0.636 0.788 1.369 1.094 2.138l0.031 0.087c3.948 0.954 6.898 4.491 6.898 8.726 0 4.962-4.038 9-9 9s-9-4.038-9-9c0-4.153 2.846-7.601 6.679-8.625 0.821 1.354 1.321 2.927 1.321 4.625 0 3.438-1.961 6.398-4.802 7.912 0.411 0.584 0.887 1.085 1.426 1.509l0.015 0.012c3.207-1.922 5.361-5.421 5.361-9.432 0-4.774-3.047-8.826-7.297-10.348l2.672-3.889-3.801-2.764h-5.149l-3.801 2.764 2.672 3.889c-4.251 1.521-7.298 5.574-7.298 10.348 0 6.075 4.925 11 11 11v0c0.508-0.002 1.007-0.039 1.494-0.109l-0.057 0.007c2.032 2.511 5.114 4.103 8.567 4.103 6.073 0 10.996-4.923 10.996-10.996 0-0.002 0-0.003 0-0.005v0c0-5.745-4.406-10.455-10.023-10.951zM7.375 3.236l1.701-1.236h3.848l1.701 1.236-1.993 2.898c-0.488-0.081-1.052-0.13-1.627-0.134l-0.004-0c-0.58 0.004-1.144 0.053-1.695 0.143l0.063-0.008zM11 26c-4.963 0-9-4.038-9-9s4.037-9 9-9c0.001 0 0.003 0 0.005 0 2.487 0 4.738 1.012 6.363 2.648l0 0c-4.284 1.503-7.368 5.554-7.368 10.352 0.001 1.818 0.444 3.532 1.229 5.041l-0.029-0.061c-0.068 0.002-0.132 0.020-0.201 0.020z"></path>
</svg>
