<!-- Generated by IcoMoon.io -->
<svg version="1.1" xmlns="http://www.w3.org/2000/svg" width="36" height="32" viewBox="0 0 36 32">
<title>road</title>
<path d="M17.467 12h1.066c0.363 0 0.647-0.386 0.608-0.829l-0.234-2.724c-0.022-0.254-0.197-0.447-0.406-0.447h-1.003c-0.209 0-0.384 0.193-0.406 0.447l-0.234 2.724c-0.038 0.443 0.246 0.829 0.609 0.829zM17.091 19h1.819c0.484 0 0.862-0.514 0.811-1.105l-0.258-3c-0.044-0.509-0.394-0.895-0.811-0.895h-1.302c-0.418 0-0.767 0.386-0.811 0.895l-0.258 3c-0.051 0.591 0.326 1.105 0.811 1.105zM17.757 6h0.487c0.242 0 0.431-0.258 0.406-0.553l-0.086-1c-0.022-0.254-0.197-0.447-0.406-0.447h-0.314c-0.209 0-0.384 0.193-0.406 0.447l-0.086 1c-0.026 0.295 0.163 0.553 0.406 0.553zM19.254 21h-2.508c-0.418 0-0.768 0.386-0.811 0.895l-0.431 5c-0.051 0.591 0.327 1.105 0.811 1.105h3.368c0.484 0 0.862-0.514 0.811-1.105l-0.431-5c-0.043-0.509-0.393-0.895-0.811-0.895zM9.834 4c-0 0-0 0-0 0-0.207 0-0.384 0.125-0.46 0.304l-0.001 0.003-9.295 22.308c-0.274 0.658 0.209 1.384 0.923 1.384h1.75c0.444 0 0.836-0.293 0.96-0.72l6.603-22.64c0.093-0.32-0.147-0.64-0.48-0.64zM35.922 26.616l-9.294-22.308c-0.077-0.182-0.255-0.307-0.461-0.308v0c-0.333 0-0.573 0.32-0.48 0.64l6.603 22.64c0.125 0.419 0.507 0.72 0.96 0.72 0 0 0 0 0 0h1.75c0.713 0 1.197-0.726 0.922-1.384z"></path>
</svg>
