<!-- Generated by IcoMoon.io -->
<svg version="1.1" xmlns="http://www.w3.org/2000/svg" width="36" height="32" viewBox="0 0 36 32">
<title>road-solid</title>
<path d="M35.824 25.167l-8.737-20c-0.311-0.711-0.988-1.167-1.733-1.167h-6.099l0.153 1.447c0.031 0.295-0.201 0.553-0.497 0.553h-1.823c-0.297 0-0.529-0.258-0.497-0.553l0.153-1.447h-6.099c-0.746 0-1.422 0.456-1.733 1.167l-8.737 20c-0.578 1.324 0.344 2.833 1.734 2.833h12.303l0.644-6.105c0.054-0.509 0.482-0.895 0.994-0.895h4.3c0.512 0 0.941 0.386 0.994 0.895l0.644 6.105h12.302c1.389 0 2.312-1.509 1.733-2.833zM16.275 8.447c0.027-0.253 0.24-0.447 0.497-0.447 0 0 0 0 0 0h2.456c0.256 0 0.471 0.193 0.497 0.447l0.288 2.724c0.047 0.443-0.301 0.829-0.746 0.829h-2.534c-0.446 0-0.793-0.386-0.746-0.829l0.287-2.724zM19.727 19h-3.456c-0.594 0-1.057-0.514-0.994-1.105l0.317-3c0.054-0.509 0.482-0.895 0.994-0.895h2.822c0.512 0 0.941 0.386 0.994 0.895l0.317 3c0.063 0.591-0.401 1.105-0.994 1.105z"></path>
</svg>
