<!-- Generated by IcoMoon.io -->
<svg version="1.1" xmlns="http://www.w3.org/2000/svg" width="40" height="32" viewBox="0 0 40 32">
<title>robot</title>
<path d="M12 26h4v-2h-4zM36 14h-2v-2c0 0 0 0 0-0 0-3.314-2.686-6-6-6 0 0 0 0-0 0h-7v-5c0-0.552-0.448-1-1-1s-1 0.448-1 1v0 5h-7c0 0 0 0-0 0-3.314 0-6 2.686-6 6 0 0 0 0 0 0v0 2h-2c-0 0-0 0-0 0-1.105 0-2 0.895-2 2 0 0 0 0 0 0v0 8c0 1.105 0.895 2 2 2h2c0 0 0 0 0 0 0 3.314 2.686 6 6 6 0 0 0 0 0 0h16c0 0 0 0 0 0 3.314 0 6-2.686 6-6 0 0 0 0 0-0v0h2c1.105 0 2-0.895 2-2v0-8c0-0 0-0 0-0 0-1.105-0.895-2-2-2-0 0-0 0-0 0v0zM6 24h-2v-8h2zM32 26c-0.007 2.206-1.794 3.993-3.999 4h-16.001c-2.206-0.007-3.993-1.794-4-3.999v-14.001c0 0 0-0 0-0 0-2.209 1.791-4 4-4 0 0 0 0 0 0h16c0 0 0 0 0 0 2.209 0 4 1.791 4 4 0 0 0 0 0 0v0zM36 24h-2v-8h2zM26 12c-2.209 0-4 1.791-4 4s1.791 4 4 4c2.209 0 4-1.791 4-4v0c-0.003-2.208-1.792-3.997-4-4h-0zM26 18c-1.105 0-2-0.895-2-2s0.895-2 2-2c1.105 0 2 0.895 2 2v0c0 0.001 0 0.001 0 0.002 0 1.104-0.895 1.998-1.998 1.998-0.001 0-0.001 0-0.002 0h0zM24 26h4v-2h-4zM18 26h4v-2h-4zM14 12c-2.209 0-4 1.791-4 4s1.791 4 4 4c2.209 0 4-1.791 4-4v0c-0.003-2.208-1.792-3.997-4-4h-0zM14 18c-1.105 0-2-0.895-2-2s0.895-2 2-2c1.105 0 2 0.895 2 2v0c0 0.001 0 0.001 0 0.002 0 1.104-0.895 1.998-1.998 1.998-0.001 0-0.001 0-0.002 0h0z"></path>
</svg>
