<!-- Generated by IcoMoon.io -->
<svg version="1.1" xmlns="http://www.w3.org/2000/svg" width="40" height="32" viewBox="0 0 40 32">
<title>robot-solid</title>
<path d="M2 14h2v12h-2c-0.001 0-0.002 0-0.002 0-1.103 0-1.998-0.894-1.998-1.998 0-0.001 0-0.002 0-0.003v0-8c0-0.001 0-0.002 0-0.002 0-1.103 0.894-1.998 1.998-1.998 0.001 0 0.002 0 0.003 0h-0zM34 11v17c-0.002 2.208-1.792 3.998-4 4h-20c-2.208-0.002-3.998-1.792-4-4v-17c0-0 0-0.001 0-0.002 0-2.761 2.238-4.998 4.998-4.998 0.001 0 0.001 0 0.002 0h7v-4c0-1.105 0.895-2 2-2s2 0.895 2 2v0 4h7c0 0 0.001 0 0.002 0 2.761 0 4.998 2.238 4.998 4.998 0 0.001 0 0.001 0 0.002v-0zM16.5 16c0-1.381-1.119-2.5-2.5-2.5s-2.5 1.119-2.5 2.5c0 1.381 1.119 2.5 2.5 2.5v0c0 0 0 0 0 0 1.381 0 2.5-1.119 2.5-2.5 0-0 0-0 0-0v0zM16 24h-4v2h4zM22 24h-4v2h4zM28.5 16c0-1.381-1.119-2.5-2.5-2.5s-2.5 1.119-2.5 2.5c0 1.381 1.119 2.5 2.5 2.5v0c0 0 0 0 0 0 1.381 0 2.5-1.119 2.5-2.5 0-0 0-0 0-0v0zM28 24h-4v2h4zM40 16v8c0 0.001 0 0.002 0 0.002 0 1.103-0.894 1.998-1.998 1.998-0.001 0-0.002 0-0.003 0h-2v-12h2c0.001 0 0.002 0 0.002 0 1.103 0 1.998 0.894 1.998 1.998 0 0.001 0 0.002 0 0.003v-0z"></path>
</svg>
