<!-- Generated by IcoMoon.io -->
<svg version="1.1" xmlns="http://www.w3.org/2000/svg" width="32" height="32" viewBox="0 0 32 32">
<title>rocket-solid</title>
<path d="M31.57 1.193c-0.074-0.346-0.416-0.688-0.763-0.762-2.012-0.432-3.588-0.432-5.157-0.432-6.452 0-10.321 3.45-13.21 8h-6.513c-1.022 0.001-2.222 0.742-2.68 1.655l-3.090 6.176c-0.091 0.196-0.148 0.425-0.157 0.666l-0 0.003c0 0.828 0.672 1.5 1.5 1.5h6.488l-1.405 1.404c-0.71 0.71-0.812 2.016 0 2.828l3.181 3.182c0.697 0.699 2.010 0.822 2.83 0l1.405-1.404v6.49c0 0.828 0.672 1.5 1.5 1.5v0c0.244-0.009 0.473-0.066 0.68-0.162l-0.011 0.005 6.171-3.087c0.914-0.456 1.657-1.656 1.657-2.679v-6.527c4.537-2.895 8.002-6.775 8.002-13.193 0.006-1.575 0.006-3.15-0.429-5.163zM24.003 10.5c-1.38-0-2.499-1.12-2.499-2.5s1.119-2.5 2.5-2.5 2.5 1.119 2.5 2.5v0c-0.001 1.381-1.12 2.5-2.501 2.5h-0z"></path>
</svg>
