<!-- Generated by IcoMoon.io -->
<svg version="1.1" xmlns="http://www.w3.org/2000/svg" width="32" height="32" viewBox="0 0 32 32">
<title>rocket-launch</title>
<path d="M23.004 5.502c-0 0-0 0-0 0-1.933 0-3.5 1.567-3.5 3.5s1.567 3.5 3.5 3.5c1.933 0 3.5-1.567 3.5-3.5 0-0 0-0 0-0v0c-0.001-1.932-1.567-3.499-3.499-3.5h-0zM23.004 10.501c-0 0-0 0-0 0-0.828 0-1.5-0.672-1.5-1.5s0.672-1.5 1.5-1.5c0.828 0 1.5 0.672 1.5 1.5v0c-0.001 0.828-0.672 1.499-1.5 1.5h-0zM31.573 1.206c-0.073-0.341-0.437-0.704-0.778-0.777-2.005-0.429-3.577-0.429-5.142-0.429-6.449 0-10.317 3.45-13.204 7.999h-6.511c-1.018 0-2.224 0.745-2.68 1.656l-3.088 6.174c-0.091 0.196-0.148 0.425-0.157 0.666l-0 0.003c0 0.828 0.672 1.5 1.5 1.5h6.495c3.313 0 5.999 2.686 5.999 5.999 0 0 0 0 0 0v0 6.499c0 0.828 0.671 1.5 1.5 1.5h0c0.244-0.009 0.473-0.066 0.68-0.162l-0.011 0.005 6.17-3.088c0.91-0.455 1.654-1.66 1.654-2.678v-6.527c4.535-2.894 7.999-6.775 7.999-13.192 0.006-1.572 0.006-3.144-0.426-5.15zM2.322 15.999l2.725-5.449c0.116-0.232 0.632-0.551 0.891-0.551h5.317c-0.871 1.754-1.982 4-2.972 5.999l0.004 0.028c-0.095-0.003-4.474-0.028-5.966-0.028zM22 26.075c0 0.258-0.318 0.773-0.549 0.889l-5.444 2.724c0-1.494-0.025-5.879-0.029-5.976l0.023 0.003c2-0.989 4.238-2.099 5.991-2.971l0.008 0zM15.62 21.668c-0.796-2.535-2.754-4.491-5.233-5.269l-0.056-0.015c3.252-6.499 6.236-14.383 15.322-14.383 1.323 0 2.581 0 4.089 0.262 0.267 1.524 0.262 2.774 0.257 4.094 0 9.061-7.936 12.091-14.379 15.312zM6.402 19.998c-3.005 0-6.275 2.459-6.392 10.002h-0.011v2h2v-0.015c10.726-0.209 11.556-7.189 8.363-10.398-0.934-0.938-2.411-1.589-3.96-1.589zM9.709 26.836c-0.802 1.947-3.602 3.089-7.71 3.159 0.004-0.222-0.070-7.993 4.403-7.993 0.943 0 1.945 0.393 2.551 1.002 0.801 0.805 1.338 2.421 0.756 3.831z"></path>
</svg>
