<!-- Generated by IcoMoon.io -->
<svg version="1.1" xmlns="http://www.w3.org/2000/svg" width="32" height="32" viewBox="0 0 32 32">
<title>rocket</title>
<path d="M31.567 1.209c-0.076-0.351-0.422-0.696-0.771-0.771-2.039-0.438-3.635-0.438-5.223-0.438-6.485 0-10.388 3.443-13.308 8h-6.338c-1.022 0.001-2.221 0.742-2.68 1.655l-3.088 6.176c-0.092 0.196-0.149 0.425-0.158 0.666l-0 0.003c0 0.828 0.672 1.5 1.5 1.5h5.79l-0.662 1.339c-0.583 1.182 0.267 2.173 0.385 2.289l3.36 3.357c0.116 0.116 1.112 0.967 2.289 0.384l1.336-0.661v5.792c0.005 0.826 0.674 1.495 1.5 1.5h0.001c0.243-0.009 0.47-0.067 0.675-0.163l-0.011 0.005 6.171-3.087c0.914-0.457 1.656-1.656 1.656-2.679v-6.345c4.549-2.923 8.010-6.841 8.010-13.294 0.006-1.596 0.006-3.188-0.432-5.229zM2.309 16l2.725-5.45c0.154-0.302 0.553-0.549 0.893-0.55h5.325c-0.871 1.754-1.983 4-2.973 6zM21.99 26.074c-0.002 0.34-0.25 0.74-0.555 0.892l-5.438 2.722v-5.97c2-0.989 4.239-2.1 5.993-2.972zM22.904 18.057c-2.469 1.236-8.493 4.215-11.12 5.515l-3.364-3.347c1.305-2.64 4.284-8.662 5.514-11.137 3.139-4.9 6.731-7.088 11.638-7.088 1.346 0 2.625 0 4.164 0.269 0.271 1.554 0.266 2.825 0.262 4.168 0 4.88-2.188 8.467-7.094 11.62zM22.999 5.502c-0 0-0 0-0 0-1.933 0-3.5 1.567-3.5 3.5s1.567 3.5 3.5 3.5c1.933 0 3.5-1.567 3.5-3.5 0-0 0-0 0-0v0c-0.001-1.932-1.567-3.499-3.499-3.5h-0zM22.999 10.501c-0 0-0 0-0 0-0.828 0-1.5-0.672-1.5-1.5s0.672-1.5 1.5-1.5c0.828 0 1.5 0.672 1.5 1.5v0c-0.001 0.828-0.672 1.499-1.5 1.5h-0z"></path>
</svg>
