<!-- Generated by IcoMoon.io -->
<svg version="1.1" xmlns="http://www.w3.org/2000/svg" width="32" height="32" viewBox="0 0 32 32">
<title>rocket-launch-solid</title>
<path d="M31.573 1.206c-0.073-0.341-0.437-0.704-0.778-0.777-2.006-0.429-3.578-0.429-5.143-0.429-6.451 0-10.32 3.45-13.208 8h-6.513c-1.019 0-2.225 0.745-2.681 1.656l-3.089 6.175c-0.091 0.196-0.148 0.425-0.157 0.666l-0 0.003c0 0.828 0.672 1.5 1.5 1.5h6.497c0 0 0 0 0 0 3.314 0 6 2.686 6 6v6.5c0 0.828 0.672 1.5 1.5 1.5h0c0.244-0.009 0.473-0.066 0.68-0.162l-0.011 0.005 6.172-3.088c0.91-0.455 1.655-1.66 1.655-2.678v-6.527c4.537-2.895 8.001-6.775 8.001-13.193 0.006-1.572 0.006-3.144-0.426-5.15zM24.004 10.5c-1.381-0-2.5-1.119-2.5-2.5s1.119-2.5 2.5-2.5 2.5 1.119 2.5 2.5v0c-0.001 1.381-1.12 2.499-2.5 2.5h-0zM2.23 22.004c-1.616 1.616-2.415 5.658-2.194 9.959 4.32 0.222 8.351-0.584 9.96-2.194 2.518-2.517 2.68-5.874 0.394-8.159s-5.643-2.123-8.161 0.394zM7.332 27.256c-0.537 0.537-1.88 0.805-3.32 0.731-0.073-1.433 0.193-2.781 0.731-3.319 0.839-0.839 1.958-0.893 2.72-0.131s0.708 1.881-0.131 2.72z"></path>
</svg>
