<!-- Generated by IcoMoon.io -->
<svg version="1.1" xmlns="http://www.w3.org/2000/svg" width="36" height="32" viewBox="0 0 36 32">
<title>router</title>
<path d="M10.871 6.051c0.091 0.089 0.216 0.143 0.353 0.143 0.135 0 0.258-0.053 0.349-0.139l-0 0c2.837-2.618 6.52-4.055 10.428-4.055s7.591 1.438 10.427 4.055c0.091 0.086 0.214 0.139 0.349 0.139 0.137 0 0.262-0.055 0.353-0.143l-0 0 0.721-0.709c0.093-0.091 0.151-0.218 0.151-0.358 0-0.144-0.061-0.273-0.158-0.364l-0-0c-3.218-2.983-7.405-4.619-11.843-4.619s-8.625 1.636-11.842 4.619c-0.097 0.091-0.158 0.221-0.158 0.365 0 0.14 0.058 0.267 0.151 0.358l0 0zM22 7c-0.013-0-0.028-0-0.044-0-2.88 0-5.505 1.086-7.49 2.872l0.010-0.009c-0.1 0.092-0.162 0.223-0.162 0.368 0 0.141 0.058 0.268 0.152 0.359l0 0 0.721 0.706c0.092 0.088 0.217 0.143 0.355 0.143 0.133 0 0.255-0.051 0.346-0.134l-0 0c1.622-1.431 3.766-2.305 6.114-2.305s4.492 0.874 6.124 2.314l-0.010-0.009c0.091 0.083 0.212 0.134 0.346 0.134 0.138 0 0.263-0.054 0.355-0.143l-0 0 0.718-0.706c0.094-0.091 0.152-0.218 0.152-0.359 0-0.146-0.062-0.276-0.161-0.368l-0-0c-1.974-1.776-4.6-2.863-7.48-2.863-0.016 0-0.033 0-0.049 0h0.003zM33 20h-10v-5.5c0-0.276-0.224-0.5-0.5-0.5v0h-1c-0.276 0-0.5 0.224-0.5 0.5v0 5.5h-18c-1.657 0-3 1.343-3 3v0 6c0 1.657 1.343 3 3 3v0h30c1.657 0 3-1.343 3-3v0-6c0-1.657-1.343-3-3-3v0zM34 29c0 0.552-0.448 1-1 1v0h-30c-0.552 0-1-0.448-1-1v0-6c0-0.552 0.448-1 1-1v0h30c0.552 0 1 0.448 1 1v0zM11.5 24.5c-0.828 0-1.5 0.672-1.5 1.5s0.672 1.5 1.5 1.5c0.828 0 1.5-0.672 1.5-1.5v0c0-0.828-0.672-1.5-1.5-1.5v0zM6.5 24.5c-0.828 0-1.5 0.672-1.5 1.5s0.672 1.5 1.5 1.5c0.828 0 1.5-0.672 1.5-1.5v0c0-0.828-0.672-1.5-1.5-1.5v0z"></path>
</svg>
