<!-- Generated by IcoMoon.io -->
<svg version="1.1" xmlns="http://www.w3.org/2000/svg" width="30" height="32" viewBox="0 0 30 32">
<title>route-interstate-solid</title>
<path d="M29.052 3.446c-0.225-0.729-0.933-1.194-1.636-0.997-1.139 0.32-2.359 0.498-3.631 0.498-3.070 0-5.851-1.004-7.886-2.632-0.262-0.21-0.581-0.315-0.899-0.315s-0.636 0.105-0.898 0.314c-2.035 1.627-4.816 2.632-7.886 2.632-1.272 0-2.492-0.178-3.631-0.498-0.702-0.197-1.411 0.266-1.636 0.997-2.313 7.499-1.366 22.201 14.051 28.554 15.418-6.354 16.365-21.056 14.052-28.554zM15 27.617c-7.796-3.809-10.499-10.144-10.953-15.617h21.906c-0.454 5.473-3.157 11.808-10.953 15.617z"></path>
</svg>
