<!-- Generated by IcoMoon.io -->
<svg version="1.1" xmlns="http://www.w3.org/2000/svg" width="30" height="32" viewBox="0 0 30 32">
<title>route-interstate</title>
<path d="M29.052 3.446c-0.192-0.622-0.729-1.042-1.309-1.042-0.108 0-0.218 0.014-0.328 0.045-1.139 0.32-2.359 0.498-3.631 0.498-3.070 0-5.851-1.004-7.886-2.632-0.262-0.21-0.581-0.315-0.899-0.315s-0.636 0.105-0.899 0.314c-2.035 1.627-4.816 2.632-7.886 2.632-1.272 0-2.492-0.178-3.631-0.498-0.109-0.031-0.219-0.045-0.328-0.045-0.58 0-1.117 0.421-1.309 1.042-2.313 7.499-1.366 22.201 14.052 28.554 15.418-6.354 16.364-21.056 14.052-28.554zM2.711 4.546c1.143 0.266 2.319 0.401 3.505 0.401 3.256 0 6.357-0.991 8.784-2.799 2.427 1.808 5.528 2.799 8.784 2.799 1.185 0 2.361-0.134 3.503-0.4 0.289 1.074 0.683 3.018 0.705 5.454h-25.988c0.010-1.973 0.261-3.836 0.706-5.454zM15.001 29.824c-8.931-3.995-12.373-11.291-12.918-17.824h25.833c-0.134 1.699-0.456 3.551-1.13 5.497-1.927 5.557-5.89 9.701-11.785 12.327z"></path>
</svg>
