<!-- Generated by IcoMoon.io -->
<svg version="1.1" xmlns="http://www.w3.org/2000/svg" width="28" height="32" viewBox="0 0 28 32">
<title>route-highway</title>
<path d="M26.775 16.826c-1.905-2.839-0.738-6.529 0.813-9.713 0.247-0.508 0.209-1.109-0.117-1.571l-2.573-3.647c-0.285-0.404-0.738-0.634-1.205-0.634-0.171 0-0.345 0.031-0.513 0.095-0.961 0.367-2.042 0.556-3.141 0.556-1.844 0-3.738-0.529-5.197-1.632-0.248-0.186-0.544-0.28-0.841-0.28s-0.592 0.094-0.84 0.281c-1.459 1.103-3.354 1.632-5.198 1.632-1.099 0-2.181-0.188-3.141-0.556-0.152-0.060-0.329-0.095-0.513-0.095 0 0-0 0-0 0v0c-0.468 0-0.92 0.229-1.205 0.633l-2.574 3.648c-0.326 0.461-0.364 1.062-0.117 1.571 1.55 3.182 2.717 6.873 0.813 9.713-2.371 3.532-1.159 8.714 2.426 10.377l10.348 4.797 10.351-4.797c3.586-1.663 4.797-6.844 2.426-10.377zM4.511 3.369c1.073 0.356 2.257 0.543 3.451 0.543 2.227 0 4.353-0.627 6.038-1.774 1.686 1.147 3.811 1.774 6.038 1.774 1.194 0 2.379-0.187 3.452-0.543l2.188 3.101c-0.502 1.049-1.001 2.256-1.366 3.53h-20.622c-0.366-1.274-0.864-2.481-1.366-3.53l2.188-3.101zM25.788 22.496c-0.375 1.34-1.206 2.394-2.279 2.892l-9.51 4.407-9.506-4.407c-1.074-0.498-1.905-1.552-2.28-2.892-0.439-1.57-0.188-3.273 0.674-4.556 1.266-1.886 1.504-3.952 1.242-5.94h19.745c-0.263 1.988-0.024 4.054 1.242 5.941 0.861 1.282 1.112 2.985 0.673 4.555z"></path>
</svg>
