<!-- Generated by IcoMoon.io -->
<svg version="1.1" xmlns="http://www.w3.org/2000/svg" width="32" height="32" viewBox="0 0 32 32">
<title>route</title>
<path d="M27 22h-7c-1.656 0-3-1.344-3-3s1.344-3 3-3h6s6-6.688 6-10-2.688-6-6-6-6 2.688-6 6c0 2.162 2.556 5.762 4.331 8h-4.331c-2.756 0-5 2.244-5 5s2.244 5 5 5h7c1.656 0 3 1.344 3 3s-1.344 3-3 3h-19.331c1.775-2.238 4.331-5.837 4.331-8 0-3.313-2.688-6-6-6s-6 2.688-6 6 6 10 6 10h21c2.756 0 5-2.244 5-5s-2.244-5-5-5zM22 6c0-2.206 1.794-4 4-4s4 1.794 4 4c0 1.275-1.881 4.25-4 6.9-2.125-2.662-4-5.662-4-6.9zM2 22c0-2.206 1.794-4 4-4s4 1.794 4 4c0 1.275-1.881 4.25-4 6.9-2.125-2.663-4-5.663-4-6.9zM6 21c-1.325 0-1.319 2 0 2 1.325 0 1.319-2 0-2zM26 5c-1.325 0-1.319 2 0 2 1.325 0 1.319-2 0-2z"></path>
</svg>
