<!-- Generated by IcoMoon.io -->
<svg version="1.1" xmlns="http://www.w3.org/2000/svg" width="32" height="32" viewBox="0 0 32 32">
<title>route-solid</title>
<path d="M26 20h-6c-1.1 0-2-0.9-2-2s0.9-2 2-2h6s6-6.688 6-10-2.688-6-6-6-6 2.688-6 6c0 1.594 1.387 3.963 2.831 6h-2.831c-3.306 0-6 2.694-6 6s2.694 6 6 6h6c1.1 0 2 0.9 2 2s-0.9 2-2 2h-14.406c-1 1.55-2.113 2.981-2.956 4h17.363c3.306 0 6-2.694 6-6s-2.694-6-6-6zM26 4c1.106 0 2 0.894 2 2s-0.894 2-2 2-2-0.894-2-2 0.894-2 2-2zM6 16c-3.313 0-6 2.688-6 6s6 10 6 10 6-6.688 6-10-2.688-6-6-6zM6 24c-1.106 0-2-0.894-2-2s0.894-2 2-2 2 0.894 2 2-0.894 2-2 2z"></path>
</svg>
