<!-- Generated by IcoMoon.io -->
<svg version="1.1" xmlns="http://www.w3.org/2000/svg" width="36" height="32" viewBox="0 0 36 32">
<title>router-solid</title>
<path d="M33 20h-9.5v-5c0-0.552-0.448-1-1-1v0h-1c-0.552 0-1 0.448-1 1v0 5h-17.5c-1.657 0-3 1.343-3 3v0 6c0 1.657 1.343 3 3 3v0h30c1.657 0 3-1.343 3-3v0-6c0-1.657-1.343-3-3-3v0zM6 28c-1.105 0-2-0.895-2-2s0.895-2 2-2c1.105 0 2 0.895 2 2v0c0 1.105-0.895 2-2 2v0zM12 28c-1.105 0-2-0.895-2-2s0.895-2 2-2c1.105 0 2 0.895 2 2v0c0 1.105-0.895 2-2 2v0zM9.963 7.979c0.18 0.181 0.429 0.294 0.704 0.294 0.255 0 0.487-0.096 0.663-0.255l-0.001 0.001c6.028-5.409 15.265-5.366 21.319 0.026 0.175 0.155 0.407 0.25 0.661 0.25 0.274 0 0.523-0.111 0.704-0.289l-0 0 1.419-1.419c0.18-0.182 0.291-0.432 0.291-0.708 0-0.298-0.129-0.565-0.335-0.75l-0.001-0.001c-7.588-6.837-19.185-6.837-26.777-0.003-0.206 0.185-0.336 0.453-0.336 0.75 0 0.276 0.111 0.526 0.291 0.708l-0-0zM12.867 10.354c-0.214 0.186-0.349 0.459-0.349 0.763 0 0.278 0.113 0.53 0.296 0.713v0l1.419 1.421c0.18 0.18 0.429 0.292 0.704 0.292 0.25 0 0.478-0.092 0.653-0.244l-0.001 0.001c3.673-3.115 9.113-3.085 12.821 0.013 0.174 0.147 0.4 0.236 0.647 0.236 0.275 0 0.524-0.11 0.705-0.289l1.425-1.425c0.182-0.183 0.294-0.435 0.294-0.714 0-0.304-0.134-0.576-0.345-0.762l-0.001-0.001c-5.239-4.494-13.026-4.494-18.267-0.004z"></path>
</svg>
