<!-- Generated by IcoMoon.io -->
<svg version="1.1" xmlns="http://www.w3.org/2000/svg" width="28" height="32" viewBox="0 0 28 32">
<title>rss-square</title>
<path d="M25 2h-22c-1.657 0-3 1.343-3 3v22c0 1.657 1.343 3 3 3h22c1.657 0 3-1.343 3-3v-22c0-1.657-1.343-3-3-3zM26 27c0 0.551-0.449 1-1 1h-22c-0.551 0-1-0.449-1-1v-22c0-0.551 0.449-1 1-1h22c0.551 0 1 0.449 1 1v22zM9 20c0.551 0 1 0.449 1 1s-0.449 1-1 1-1-0.449-1-1 0.449-1 1-1zM9 18c-1.657 0-3 1.343-3 3s1.343 3 3 3 3-1.343 3-3-1.343-3-3-3zM21.249 24h-0.501c-0.398 0-0.73-0.311-0.75-0.708-0.355-7.177-6.108-12.935-13.29-13.29-0.398-0.020-0.708-0.351-0.708-0.75v-0.501c0-0.427 0.355-0.771 0.781-0.75 8.226 0.392 14.825 6.988 15.218 15.218 0.020 0.426-0.324 0.781-0.75 0.781zM16.748 24h-0.503c-0.394 0-0.721-0.304-0.749-0.696-0.341-4.702-4.109-8.46-8.802-8.8-0.392-0.028-0.695-0.356-0.695-0.749v-0.503c0-0.438 0.372-0.78 0.809-0.75 5.712 0.398 10.291 4.977 10.689 10.689 0.030 0.437-0.312 0.809-0.75 0.809z"></path>
</svg>
