<!-- Generated by IcoMoon.io -->
<svg version="1.1" xmlns="http://www.w3.org/2000/svg" width="28" height="32" viewBox="0 0 28 32">
<title>rss-solid</title>
<path d="M8.005 25.997c0 2.211-1.792 4.003-4.003 4.003s-4.003-1.792-4.003-4.003 1.792-4.003 4.003-4.003 4.003 1.792 4.003 4.003zM18.984 28.951c-0.522-9.662-8.262-17.412-17.934-17.934-0.571-0.031-1.049 0.428-1.049 1v3.004c0 0.526 0.406 0.967 0.93 1.001 6.989 0.455 12.592 6.044 13.048 13.048 0.034 0.525 0.475 0.93 1.001 0.93h3.004c0.572 0 1.031-0.478 1-1.049zM27.999 28.969c-0.525-14.614-12.283-26.441-26.968-26.968-0.564-0.020-1.031 0.436-1.031 1v3.004c0 0.539 0.427 0.978 0.966 1 11.949 0.49 21.539 10.082 22.029 22.029 0.022 0.539 0.461 0.966 1 0.966h3.004c0.565-0 1.021-0.467 1-1.032z"></path>
</svg>
