<!-- Generated by IcoMoon.io -->
<svg version="1.1" xmlns="http://www.w3.org/2000/svg" width="28" height="32" viewBox="0 0 28 32">
<title>rss-square-solid</title>
<path d="M25 2h-22c-1.657 0-3 1.343-3 3v22c0 1.657 1.343 3 3 3h22c1.657 0 3-1.343 3-3v-22c0-1.657-1.343-3-3-3zM7 26c-1.657 0-3-1.343-3-3s1.343-3 3-3 3 1.343 3 3-1.343 3-3 3zM16.846 26h-2.146c-0.376 0-0.691-0.29-0.715-0.665-0.326-5.003-4.328-8.995-9.32-9.32-0.375-0.024-0.665-0.339-0.665-0.715v-2.146c0-0.408 0.342-0.736 0.75-0.714 6.909 0.373 12.437 5.909 12.81 12.81 0.022 0.408-0.306 0.75-0.714 0.75zM23.285 26h-2.146c-0.385 0-0.698-0.305-0.714-0.69-0.35-8.533-7.2-15.385-15.735-15.735-0.385-0.016-0.69-0.329-0.69-0.714v-2.146c0-0.403 0.334-0.729 0.737-0.715 10.489 0.377 18.888 8.824 19.263 19.263 0.015 0.403-0.311 0.737-0.715 0.737z"></path>
</svg>
