<!-- Generated by IcoMoon.io -->
<svg version="1.1" xmlns="http://www.w3.org/2000/svg" width="28" height="32" viewBox="0 0 28 32">
<title>rss</title>
<path d="M5 22c1.654 0 3 1.346 3 3s-1.346 3-3 3-3-1.346-3-3 1.346-3 3-3zM5 20c-2.761 0-5 2.239-5 5s2.239 5 5 5 5-2.239 5-5-2.239-5-5-5zM28 29.226c-0.403-14.866-12.379-26.823-27.226-27.226-0.424-0.012-0.774 0.327-0.774 0.75v0.5c0 0.405 0.322 0.739 0.727 0.75 13.801 0.378 24.895 11.495 25.273 25.273 0.011 0.405 0.345 0.727 0.75 0.727h0.5c0.424 0 0.762-0.351 0.75-0.774zM18.984 29.223c-0.397-9.883-8.325-17.811-18.207-18.207-0.424-0.017-0.777 0.325-0.777 0.75v0.5c0 0.404 0.32 0.732 0.723 0.749 8.821 0.368 15.894 7.442 16.262 16.262 0.017 0.403 0.346 0.723 0.749 0.723h0.5c0.425 0 0.767-0.353 0.75-0.777z"></path>
</svg>
