<!-- Generated by IcoMoon.io -->
<svg version="1.1" xmlns="http://www.w3.org/2000/svg" width="24" height="32" viewBox="0 0 24 32">
<title>ruble-sign</title>
<path d="M15.357 17.988c5.018 0 8.643-3.145 8.643-8.050 0-4.868-3.624-7.938-8.643-7.938h-8.607c-0.414 0-0.75 0.336-0.75 0.75v12.75h-5.25c-0.414 0-0.75 0.336-0.75 0.75v1c0 0.414 0.336 0.75 0.75 0.75h5.25v3.625h-5.25c-0.414 0-0.75 0.336-0.75 0.75v0.875c0 0.414 0.336 0.75 0.75 0.75h5.25v5.25c0 0.414 0.336 0.75 0.75 0.75h1.248c0.414 0 0.75-0.336 0.75-0.75v-5.25h10.502c0.414 0 0.75-0.336 0.75-0.75v-0.875c0-0.414-0.336-0.75-0.75-0.75h-10.502v-3.637h6.609zM8.748 4.475h6.54c3.704 0 6.134 1.999 6.134 5.451 0 3.489-2.43 5.56-6.174 5.56h-6.5v-11.011z"></path>
</svg>
