<!-- Generated by IcoMoon.io -->
<svg version="1.1" xmlns="http://www.w3.org/2000/svg" width="24" height="32" viewBox="0 0 24 32">
<title>ruble-sign-solid</title>
<path d="M14.96 20c5.32 0 9.040-3.716 9.040-9.058s-3.72-8.942-9.040-8.942h-10.21c-0.414 0-0.75 0.336-0.75 0.75v12.915h-3.25c-0.414 0-0.75 0.336-0.75 0.75v2.835c0 0.414 0.336 0.75 0.75 0.75h3.25v2h-3.25c-0.414 0-0.75 0.336-0.75 0.75v2.5c0 0.414 0.336 0.75 0.75 0.75h3.25v3.25c0 0.414 0.336 0.75 0.75 0.75h3.66c0.414 0 0.75-0.336 0.75-0.75v-3.25h10.090c0.414 0 0.75-0.336 0.75-0.75v-2.5c0-0.414-0.336-0.75-0.75-0.75h-10.090v-2h5.8zM9.16 6.297h4.92c2.92 0 4.68 1.819 4.68 4.645 0 2.864-1.76 4.723-4.76 4.723h-4.84v-9.368z"></path>
</svg>
