<!-- Generated by IcoMoon.io -->
<svg version="1.1" xmlns="http://www.w3.org/2000/svg" width="32" height="32" viewBox="0 0 32 32">
<title>ruler-triangle-solid</title>
<path d="M31.353 28.255l-3.197-3.198-2.411 2.411c-0.195 0.195-0.512 0.195-0.707 0l-0.707-0.707c-0.195-0.195-0.195-0.512 0-0.707l2.411-2.411-3.536-3.536-2.411 2.411c-0.195 0.195-0.512 0.195-0.707 0l-0.707-0.707c-0.195-0.195-0.195-0.512 0-0.707l2.411-2.411-3.536-3.536-2.411 2.411c-0.195 0.195-0.512 0.195-0.707 0l-0.707-0.707c-0.195-0.195-0.195-0.512 0-0.707l2.411-2.411-3.536-3.536-2.411 2.411c-0.195 0.195-0.512 0.195-0.707 0l-0.707-0.707c-0.195-0.195-0.195-0.512 0-0.707l2.411-2.411-3.537-3.537-2.411 2.411c-0.195 0.195-0.512 0.195-0.707 0l-0.707-0.707c-0.195-0.195-0.195-0.512 0-0.707l2.411-2.411-3.198-3.198c-0.447-0.447-0.996-0.647-1.535-0.647-1.127 0-2.209 0.876-2.209 2.198v27.608c0 1.212 0.982 2.194 2.194 2.194h27.608c1.954 0 2.933-2.363 1.551-3.745zM8 24v-7.784l7.784 7.784h-7.784z"></path>
</svg>
