<!-- Generated by IcoMoon.io -->
<svg version="1.1" xmlns="http://www.w3.org/2000/svg" width="32" height="32" viewBox="0 0 32 32">
<title>ruler-triangle</title>
<path d="M31.353 28.255l-27.609-27.608c-0.447-0.447-0.996-0.647-1.535-0.647-1.127 0-2.209 0.876-2.209 2.198v27.608c0 1.212 0.982 2.194 2.194 2.194h27.608c1.954 0 2.933-2.363 1.551-3.745zM29.981 29.881c-0.049 0.119-0.128 0.119-0.179 0.119h-27.608c-0.107 0-0.194-0.087-0.194-0.194v-27.608c0-0.196 0.201-0.198 0.21-0.198 0.030 0 0.064 0.005 0.121 0.061l4.612 4.612-1.061 1.061c-0.195 0.195-0.195 0.512 0 0.707l0.708 0.707c0.090 0.090 0.215 0.146 0.353 0.146 0 0 0.001 0 0.001 0h-0c0.128 0 0.256-0.049 0.354-0.146l1.061-1.061 2.829 2.829-1.061 1.061c-0.195 0.195-0.195 0.512 0 0.707l0.707 0.707c0.090 0.090 0.215 0.146 0.353 0.146 0 0 0.001 0 0.001 0h-0c0.128 0 0.256-0.049 0.354-0.146l1.061-1.061 2.829 2.829-1.061 1.061c-0.195 0.195-0.195 0.512 0 0.707l0.707 0.707c0.090 0.090 0.215 0.146 0.353 0.146 0 0 0.001 0 0.001 0h-0c0.128 0 0.256-0.049 0.354-0.146l1.061-1.061 2.828 2.828-1.061 1.061c-0.195 0.195-0.195 0.512 0 0.707l0.707 0.707c0.098 0.098 0.226 0.146 0.354 0.146s0.256-0.049 0.354-0.146l1.061-1.061 2.828 2.828-1.061 1.061c-0.195 0.195-0.195 0.512 0 0.707l0.707 0.707c0.098 0.098 0.226 0.146 0.354 0.146s0.256-0.049 0.354-0.146l1.061-1.061 4.612 4.612c0.034 0.038 0.090 0.094 0.040 0.213zM7.707 14.293c-0.285-0.285-0.719-0.372-1.090-0.217-0.365 0.154-0.617 0.51-0.617 0.924 0 0 0 0 0 0v0 10c0 0.552 0.447 1 1 1h10c0.404 0 0.769-0.243 0.924-0.617 0.048-0.113 0.076-0.244 0.076-0.382 0-0.276-0.112-0.527-0.293-0.708l-10-9.999zM8 23.999v-6.586l6.586 6.586h-6.586z"></path>
</svg>
