<!-- Generated by IcoMoon.io -->
<svg version="1.1" xmlns="http://www.w3.org/2000/svg" width="36" height="32" viewBox="0 0 36 32">
<title>ruler-horizontal-solid</title>
<path d="M34 8h-3v5.5c0 0.276-0.224 0.5-0.5 0.5h-1c-0.276 0-0.5-0.224-0.5-0.5v-5.5h-4v5.5c0 0.276-0.224 0.5-0.5 0.5h-1c-0.276 0-0.5-0.224-0.5-0.5v-5.5h-4v5.5c0 0.276-0.224 0.5-0.5 0.5h-1c-0.276 0-0.5-0.224-0.5-0.5v-5.5h-4v5.5c0 0.276-0.224 0.5-0.5 0.5h-1c-0.276 0-0.5-0.224-0.5-0.5v-5.5h-4v5.5c0 0.276-0.224 0.5-0.5 0.5h-1c-0.276 0-0.5-0.224-0.5-0.5v-5.5h-3c-1.104 0-2 0.896-2 2v12c0 1.104 0.896 2 2 2h32c1.104 0 2-0.896 2-2v-12c0-1.104-0.896-2-2-2z"></path>
</svg>
