<!-- Generated by IcoMoon.io -->
<svg version="1.1" xmlns="http://www.w3.org/2000/svg" width="40" height="32" viewBox="0 0 40 32">
<title>ruler</title>
<path d="M39.731 10.363l-4.975-8.619c-0.369-0.637-1.038-0.994-1.725-0.994-0.337 0-0.681 0.088-0.994 0.269l-31.044 17.906c-0.95 0.544-1.275 1.762-0.725 2.712l4.975 8.613c0.369 0.637 1.037 0.994 1.725 0.994 0.338 0 0.681-0.087 0.994-0.269l31.037-17.906c0.956-0.537 1.281-1.756 0.731-2.706zM6.969 29.262l-4.975-8.619 4.313-2.488 2.737 4.738c0.137 0.238 0.444 0.319 0.681 0.181l0.863-0.5c0.238-0.137 0.319-0.444 0.181-0.681l-2.738-4.738 3.45-1.988 1.744 3.012c0.137 0.238 0.444 0.319 0.681 0.181l0.863-0.5c0.238-0.137 0.319-0.444 0.181-0.681l-1.744-3.012 3.45-1.988 2.738 4.738c0.137 0.238 0.444 0.319 0.681 0.181l0.863-0.5c0.238-0.137 0.319-0.444 0.181-0.681l-2.744-4.725 3.45-1.988 1.744 3.012c0.137 0.238 0.444 0.319 0.681 0.181l0.863-0.5c0.238-0.137 0.319-0.444 0.181-0.681l-1.744-3.012 3.45-1.987 2.738 4.737c0.137 0.238 0.444 0.319 0.681 0.181l0.863-0.5c0.238-0.137 0.319-0.444 0.181-0.681l-2.738-4.737 4.313-2.487 4.975 8.613-31.044 17.919z"></path>
</svg>
