<!-- Generated by IcoMoon.io -->
<svg version="1.1" xmlns="http://www.w3.org/2000/svg" width="32" height="32" viewBox="0 0 32 32">
<title>ruler-combined</title>
<path d="M30 20h-18v-18c0-1.104-0.896-2-2-2h-8c-1.104 0-2 0.896-2 2v28c0 1.104 0.896 2 2 2h28c1.104 0 2-0.896 2-2v-8c0-1.104-0.896-2-2-2zM2 2h8v4h-3.5c-0.276 0-0.5 0.224-0.5 0.5v1c0 0.276 0.224 0.5 0.5 0.5h3.5v3h-3.5c-0.276 0-0.5 0.224-0.5 0.5v1c0 0.276 0.224 0.5 0.5 0.5h3.5v3h-3.5c-0.276 0-0.5 0.224-0.5 0.5v1c0 0.276 0.224 0.5 0.5 0.5h3.5v2.586l-8 8v-26.586zM30 30h-26.586l8-8h2.586v3.5c0 0.276 0.224 0.5 0.5 0.5h1c0.276 0 0.5-0.224 0.5-0.5v-3.5h3v3.5c0 0.276 0.224 0.5 0.5 0.5h1c0.276 0 0.5-0.224 0.5-0.5v-3.5h3v3.5c0 0.276 0.224 0.5 0.5 0.5h1c0.276 0 0.5-0.224 0.5-0.5v-3.5h4v8z"></path>
</svg>
