<!-- Generated by IcoMoon.io -->
<svg version="1.1" xmlns="http://www.w3.org/2000/svg" width="16" height="32" viewBox="0 0 16 32">
<title>ruler-vertical</title>
<path d="M14 0h-12c-1.104 0-2 0.896-2 2v28c0 1.104 0.896 2 2 2h12c1.104 0 2-0.896 2-2v-28c0-1.104-0.896-2-2-2zM2 30v-28h12v4h-3.5c-0.276 0-0.5 0.224-0.5 0.5v1c0 0.276 0.224 0.5 0.5 0.5h3.5v4h-3.5c-0.276 0-0.5 0.224-0.5 0.5v1c0 0.276 0.224 0.5 0.5 0.5h3.5v4h-3.5c-0.276 0-0.5 0.224-0.5 0.5v1c0 0.276 0.224 0.5 0.5 0.5h3.5v4h-3.5c-0.276 0-0.5 0.224-0.5 0.5v1c0 0.276 0.224 0.5 0.5 0.5h3.5v4h-12z"></path>
</svg>
