<!-- Generated by IcoMoon.io -->
<svg version="1.1" xmlns="http://www.w3.org/2000/svg" width="40" height="32" viewBox="0 0 40 32">
<title>ruler-solid</title>
<path d="M39.731 10.45l-4.975-8.469c-0.55-0.938-1.769-1.256-2.719-0.719l-4.313 2.444 3.731 6.356c0.137 0.238 0.056 0.531-0.181 0.669l-0.863 0.488c-0.238 0.137-0.544 0.056-0.681-0.181l-3.731-6.35-3.45 1.956 1.744 2.962c0.137 0.238 0.056 0.531-0.181 0.669l-0.863 0.488c-0.238 0.137-0.544 0.056-0.681-0.181l-1.744-2.956-3.45 1.956 3.738 6.356c0.137 0.231 0.056 0.531-0.181 0.669l-0.863 0.488c-0.238 0.137-0.544 0.056-0.681-0.181l-3.731-6.356-3.45 1.956 1.744 2.963c0.137 0.238 0.056 0.531-0.181 0.669l-0.863 0.488c-0.238 0.137-0.544 0.056-0.681-0.181l-1.744-2.969-3.45 1.956 3.731 6.356c0.137 0.231 0.056 0.531-0.181 0.669l-0.863 0.488c-0.238 0.137-0.544 0.056-0.681-0.181l-3.731-6.338-4.313 2.444c-0.95 0.544-1.281 1.738-0.731 2.675l4.975 8.475c0.55 0.938 1.769 1.256 2.719 0.719l31.050-17.619c0.95-0.537 1.275-1.738 0.725-2.675z"></path>
</svg>
