<!-- Generated by IcoMoon.io -->
<svg version="1.1" xmlns="http://www.w3.org/2000/svg" width="32" height="32" viewBox="0 0 32 32">
<title>ruler-combined-solid</title>
<path d="M10 18h-3.5c-0.276 0-0.5-0.224-0.5-0.5v-1c0-0.276 0.224-0.5 0.5-0.5h3.5v-4h-3.5c-0.276 0-0.5-0.224-0.5-0.5v-1c0-0.276 0.224-0.5 0.5-0.5h3.5v-4h-3.5c-0.276 0-0.5-0.224-0.5-0.5v-1c0-0.276 0.224-0.5 0.5-0.5h3.5v-2c0-1.104-0.896-2-2-2h-6c-1.104 0-2 0.896-2 2v28c0 0.173 0.057 0.328 0.098 0.488l9.902-9.901v-2.586zM30 22h-2v3.5c0 0.276-0.224 0.5-0.5 0.5h-1c-0.276 0-0.5-0.224-0.5-0.5v-3.5h-4v3.5c0 0.276-0.224 0.5-0.5 0.5h-1c-0.276 0-0.5-0.224-0.5-0.5v-3.5h-4v3.5c0 0.276-0.224 0.5-0.5 0.5h-1c-0.276 0-0.5-0.224-0.5-0.5v-3.5h-2.586l-9.902 9.902c0.16 0.041 0.315 0.098 0.488 0.098h28c1.104 0 2-0.896 2-2v-6c0-1.104-0.896-2-2-2z"></path>
</svg>
