<!-- Generated by IcoMoon.io -->
<svg version="1.1" xmlns="http://www.w3.org/2000/svg" width="28" height="32" viewBox="0 0 28 32">
<title>running</title>
<path d="M24.75 13.5h-0.908l-0.565-1.695c-0.507-1.519-1.511-2.75-2.781-3.627 1.192-0.808 2.004-2.132 2.004-3.678 0-2.481-2.019-4.5-4.5-4.5s-4.5 2.019-4.5 4.5c0 0.521 0.098 1.018 0.262 1.482-0.539-0.124-1.086-0.201-1.633-0.201-1.284 0-2.55 0.346-3.665 1l-2.887 1.504c-1.534 0.921-2.034 2.921-1.115 4.457 0.587 0.976 1.655 1.579 2.789 1.579 0.561 0 1.114-0.146 1.603-0.422l1.184-0.616-3.68 8.216h-3.109c-1.792 0-3.25 1.458-3.25 3.25s1.458 3.25 3.25 3.25h3.932c2.103 0 3.997-1.249 4.825-3.183l1.207-2.484 2.731 1.227-1.227 4.296c-0.492 1.724 0.509 3.526 2.232 4.018 0.3 0.084 0.597 0.125 0.894 0.125 1.442 0 2.726-0.969 3.124-2.356l1.525-5.338c0.444-1.554 0.126-3.183-0.751-4.445 0.387 0.091 0.789 0.138 1.2 0.138h1.808c1.792 0 3.25-1.458 3.25-3.25s-1.458-3.25-3.25-3.25zM18 2c1.381 0 2.5 1.119 2.5 2.5s-1.119 2.5-2.5 2.5-2.5-1.119-2.5-2.5 1.119-2.5 2.5-2.5zM10.168 24.030c-0.508 1.168-1.652 1.97-2.984 1.97-0.001 0-0.002 0-0.003 0h-3.932c-0.691 0-1.25-0.559-1.25-1.25s0.559-1.25 1.25-1.25h3.932c0.3 0 0.57-0.179 0.689-0.455l1.67-3.555c0.431 0.795 1.067 1.473 1.874 1.964l-1.247 2.576zM24.75 18h-1.809c-0.001 0-0.002 0-0.003 0-1.426 0-2.638-0.92-3.074-2.199l-0.007-0.023-0.849-2.55c-0.177-0.529-0.513-0.964-0.938-1.292l-2.592 6.481 3.299 1.483c1.463 0.659 2.233 2.318 1.792 3.858l-1.524 5.336c-0.157 0.549-0.657 0.906-1.201 0.906-0.114 0-0.229-0.016-0.345-0.048-0.663-0.189-1.048-0.882-0.858-1.546l1.524-5.336c0.102-0.356-0.076-0.738-0.414-0.891 0 0-5.364-2.44-5.544-2.572-1.113-0.818-1.589-2.28-1.157-3.617l2.359-5.473s-1.056-0.236-1.281-0.236c-0.492 0-0.974 0.134-1.406 0.394l-2.828 1.47c-0.184 0.111-0.406 0.177-0.643 0.178h-0c-0.425 0-0.838-0.216-1.072-0.606-0.354-0.592-0.163-1.361 0.429-1.716l2.829-1.47c0.828-0.496 1.754-0.749 2.694-0.749 0.427 0 0.857 0.053 1.282 0.158l4.262 1.066c1.75 0.436 3.136 1.72 3.707 3.432l0.849 2.55c0.102 0.307 0.389 0.512 0.712 0.512h1.808c0.691 0 1.25 0.559 1.25 1.25s-0.559 1.25-1.25 1.25z"></path>
</svg>
