<!-- Generated by IcoMoon.io -->
<svg version="1.1" xmlns="http://www.w3.org/2000/svg" width="26" height="32" viewBox="0 0 26 32">
<title>running-solid</title>
<path d="M17 6c1.657 0 3-1.343 3-3s-1.343-3-3-3-3 1.343-3 3 1.343 3 3 3zM7.106 19.842l-0.925 2.157h-4.181c-1.104 0-2 0.896-2 2s0.896 2 2 2h4.841c1.203 0 2.286-0.715 2.757-1.818l0.549-1.282-0.667-0.394c-1.082-0.639-1.879-1.586-2.374-2.663zM24 13.999h-2.752l-1.629-3.328c-0.781-1.597-2.216-2.764-3.861-3.184l-4.443-1.321c-1.769-0.425-3.611-0.034-5.053 1.071l-2.479 1.901c-0.877 0.672-1.043 1.927-0.37 2.804s1.928 1.041 2.804 0.37l2.481-1.901c0.479-0.368 1.090-0.5 1.579-0.384l0.919 0.273-2.341 5.462c-0.789 1.843-0.082 4.001 1.644 5.019l5.311 3.136-1.717 5.483c-0.33 1.054 0.257 2.176 1.311 2.506 0.199 0.063 0.401 0.093 0.599 0.093 0.851 0 1.639-0.548 1.907-1.403l1.977-6.316c0.369-1.298-0.181-2.692-1.352-3.399l-3.828-2.259 1.957-4.893 1.267 2.589c0.5 1.021 1.558 1.681 2.694 1.681h3.374c1.104 0 2-0.896 2-2s-0.896-1.999-2-1.999z"></path>
</svg>
