<!-- Generated by IcoMoon.io -->
<svg version="1.1" xmlns="http://www.w3.org/2000/svg" width="20" height="32" viewBox="0 0 20 32">
<title>rupee-sign-solid</title>
<path d="M19.25 6c0.414 0 0.75-0.336 0.75-0.75v-2.5c0-0.414-0.336-0.75-0.75-0.75h-18.5c-0.414 0-0.75 0.336-0.75 0.75v2.797c0 0.414 0.336 0.75 0.75 0.75h5.33c1.707 0 3.016 0.622 3.811 1.703h-9.141c-0.414 0-0.75 0.336-0.75 0.75v2.5c0 0.414 0.336 0.75 0.75 0.75h9.922c-0.389 2.255-2.060 3.665-4.672 3.665h-5.25c-0.414 0-0.75 0.336-0.75 0.75v3.313c0 0.209 0.087 0.409 0.241 0.551l10.316 9.522c0.133 0.123 0.312 0.199 0.509 0.199h5.16c0.683 0 1.010-0.838 0.509-1.301l-9.43-8.705c4.781-0.146 8.197-3.337 8.645-7.994h3.301c0.414 0 0.75-0.336 0.75-0.75v-2.5c0-0.414-0.336-0.75-0.75-0.75h-3.668c-0.218-0.721-0.518-1.39-0.891-2h4.559z"></path>
</svg>
