<!-- Generated by IcoMoon.io -->
<svg version="1.1" xmlns="http://www.w3.org/2000/svg" width="20" height="32" viewBox="0 0 20 32">
<title>rupee-sign</title>
<path d="M20 3.75v-1c0-0.414-0.336-0.75-0.75-0.75h-18.5c-0.414 0-0.75 0.336-0.75 0.75v1c0 0.414 0.336 0.75 0.75 0.75h4.538c2.943 0 5.082 1.258 5.836 3.5h-10.374c-0.414 0-0.75 0.336-0.75 0.75v1c0 0.414 0.336 0.75 0.75 0.75h10.649c-0.253 3.132-2.616 4.972-6.151 4.972h-4.499c-0.414 0-0.75 0.336-0.75 0.75v0.988c0 0.187 0.070 0.366 0.195 0.505l10.946 12.040c0.138 0.151 0.335 0.245 0.555 0.245 0 0 0 0 0 0h1.349c0.65 0 0.992-0.77 0.557-1.253l-9.707-10.747h1.463c4.826 0 8.362-2.911 8.627-7.5h5.266c0.414 0 0.75-0.336 0.75-0.75v-1c0-0.414-0.336-0.75-0.75-0.75h-5.459c-0.31-1.38-0.955-2.561-1.864-3.5h7.322c0.414 0 0.75-0.336 0.75-0.75z"></path>
</svg>
