<!-- Generated by IcoMoon.io -->
<svg version="1.1" xmlns="http://www.w3.org/2000/svg" width="40" height="32" viewBox="0 0 40 32">
<title>rv-solid</title>
<path d="M38.831 16.831l-3.644-3.644c-0.75-0.75-1.775-1.175-2.837-1.175l-6.35-0.012v15h0.012c0.006 2.131 1.381 4.144 3.431 4.762 3.425 1.037 6.562-1.494 6.562-4.762v-1h2c1.1 0 2-0.9 2-2v-4.344c-0.006-1.063-0.425-2.075-1.175-2.825zM31 29c-1.1 0-2-0.9-2-2s0.9-2 2-2 2 0.9 2 2-0.9 2-2 2zM30 18v-3h2.344c0.269 0 0.519 0.106 0.706 0.294l2.706 2.706h-5.756zM38 7.95c-0.025-3.288-2.7-5.95-6-5.95h-8v-1c0-0.55-0.45-1-1-1h-8c-0.55 0-1 0.45-1 1v1h-10c-2.206 0-4 1.794-4 4v12.344c0 1.063 0.419 2.081 1.169 2.831l4.831 4.825v0.712c0 2.613 1.881 5 4.488 5.256 2.994 0.3 5.512-2.044 5.512-4.975v-1h8v-15.994h12c1.119 0 2.006-0.925 2-2.050zM11 29c-1.1 0-2-0.9-2-2s0.9-2 2-2 2 0.9 2 2-0.9 2-2 2zM16 13c0 0.55-0.45 1-1 1h-8c-0.55 0-1-0.45-1-1v-4c0-0.55 0.45-1 1-1h8c0.55 0 1 0.45 1 1v4z"></path>
</svg>
