<!-- Generated by IcoMoon.io -->
<svg version="1.1" xmlns="http://www.w3.org/2000/svg" width="40" height="32" viewBox="0 0 40 32">
<title>rv</title>
<path d="M19 8h-12c-0.55 0-1 0.45-1 1v6c0 0.55 0.45 1 1 1h12c0.55 0 1-0.45 1-1v-6c0-0.55-0.45-1-1-1zM18 14h-10v-4h10v4zM36.006 12h1.494c1.381 0 2.5-1.119 2.5-2.5 0-4.144-3.356-7.5-7.5-7.5h-8.5v-1c0-0.55-0.45-1-1-1h-8c-0.55 0-1 0.45-1 1v1h-10c-2.206 0-4 1.794-4 4v12.344c0 1.063 0.419 2.075 1.169 2.825l4.356 4.356c0.175 0.175 0.381 0.288 0.606 0.369-0.081 0.356-0.131 0.725-0.131 1.106 0 2.762 2.237 5 5 5s5-2.238 5-5c0-0.344-0.037-0.675-0.1-1h10.2c-0.069 0.325-0.1 0.656-0.1 1 0 2.762 2.238 5 5 5s5-2.238 5-5c0-0.344-0.038-0.675-0.1-1h2.1c1.1 0 2-0.9 2-2v-6.35c0-1.063-0.419-2.075-1.169-2.825l-2.825-2.825zM37.175 16h-11.175v-4h6.344c0.538 0 1.044 0.213 1.425 0.588l3.406 3.412zM11 30c-1.656 0-3-1.344-3-3s1.344-3 3-3 3 1.344 3 3-1.344 3-3 3zM24 24h-9.025c-0.912-1.206-2.35-2-3.975-2s-3.063 0.794-3.975 2h-0.194l-4.244-4.244c-0.375-0.375-0.587-0.881-0.587-1.413v-12.344c0-1.106 0.894-2 2-2h28.5c3.031 0 5.5 2.469 5.5 5.5 0 0.275-0.225 0.5-0.5 0.5h-13.5v14zM31 30c-1.656 0-3-1.344-3-3s1.344-3 3-3 3 1.344 3 3-1.344 3-3 3zM38 24h-3.025c-0.913-1.206-2.35-2-3.975-2s-3.063 0.794-3.975 2h-1.025v-6h12v6z"></path>
</svg>
