<!-- Generated by IcoMoon.io -->
<svg version="1.1" xmlns="http://www.w3.org/2000/svg" width="32" height="32" viewBox="0 0 32 32">
<title>sack-dollar-solid</title>
<path d="M12 6h8l2.962-4.445c0.105-0.156 0.168-0.348 0.168-0.555 0-0.552-0.448-1-1-1 0 0-0 0-0 0h-12.259c0 0-0 0-0 0-0.552 0-1 0.448-1 1 0 0.207 0.063 0.399 0.17 0.559l-0.002-0.004zM20 8h-8c-12.649 7.213-11.994 16.79-11.994 18 0 3.313 3.069 6 6.855 6h18.28c3.786 0 6.855-2.688 6.855-6 0-1.188 0.584-10.828-11.996-18zM17.089 25.375v1.084c-0.002 0.298-0.245 0.539-0.543 0.539-0 0-0 0-0.001 0h-1.088c-0 0-0.001 0-0.001 0-0.298 0-0.541-0.241-0.543-0.539v-1.095c-0.808-0.043-1.542-0.322-2.146-0.768l0.011 0.008c-0.128-0.099-0.209-0.252-0.209-0.424 0-0.153 0.064-0.291 0.167-0.388l0-0 0.803-0.754c0.098-0.089 0.23-0.144 0.374-0.144 0.117 0 0.226 0.036 0.315 0.098l-0.002-0.001c0.248 0.155 0.548 0.248 0.87 0.25h1.912c0.442 0 0.802-0.397 0.802-0.889 0-0.404-0.245-0.754-0.599-0.854l-3.063-0.909c-1.265-0.375-2.149-1.575-2.149-2.921 0-1.649 1.293-2.989 2.904-3.036v-1.092c0.002-0.298 0.245-0.539 0.543-0.539 0.001 0 0.002 0 0.003 0h1.088c0 0 0.001 0 0.001 0 0.298 0 0.54 0.241 0.543 0.539v1.097c0.808 0.042 1.543 0.321 2.146 0.768l-0.011-0.008c0.127 0.099 0.209 0.252 0.209 0.424 0 0.153-0.064 0.291-0.168 0.389l-0 0-0.796 0.762c-0.098 0.089-0.23 0.144-0.374 0.144-0.117 0-0.226-0.036-0.316-0.098l0.002 0.001c-0.248-0.155-0.548-0.248-0.87-0.25h-1.91c-0.442 0-0.803 0.397-0.803 0.888 0 0.404 0.245 0.754 0.598 0.855l3.062 0.909c1.265 0.375 2.149 1.575 2.149 2.921-0.009 1.65-1.308 2.996-2.913 3.034z"></path>
</svg>
