<!-- Generated by IcoMoon.io -->
<svg version="1.1" xmlns="http://www.w3.org/2000/svg" width="32" height="32" viewBox="0 0 32 32">
<title>sack-dollar</title>
<path d="M20.931 7.602l2.733-4.493c0.885-1.329-0.067-3.109-1.663-3.109h-11.991c-1.598 0-2.55 1.781-1.663 3.11l2.723 4.492c-11.649 7.434-11.064 16.92-11.064 18.148 0 3.452 3.069 6.25 6.855 6.25h18.281c3.786 0 6.855-2.798 6.855-6.25 0-1.205 0.518-10.75-11.066-18.148zM10.009 2h11.991l-3.071 5h-5.858zM30 25.75c0 2.343-2.178 4.25-4.856 4.25h-18.284c-2.678 0-4.856-1.907-4.856-4.25v-0.21c-0.058-3.741 1.25-10.813 10.557-16.54h6.881c9.285 5.716 10.605 12.809 10.558 16.563zM17.851 19.421l-3.063-0.909c-0.354-0.101-0.598-0.451-0.598-0.855 0-0.491 0.36-0.888 0.803-0.888h1.911c0.323 0.002 0.623 0.095 0.878 0.254l-0.007-0.004c0.088 0.061 0.197 0.097 0.314 0.097 0.144 0 0.275-0.055 0.374-0.144l-0 0 0.796-0.761c0.104-0.098 0.168-0.236 0.168-0.389 0-0.172-0.081-0.325-0.208-0.423l-0.001-0.001c-0.593-0.439-1.328-0.718-2.126-0.76l-0.010-0v-1.1c-0.002-0.298-0.244-0.539-0.543-0.539-0 0-0.001 0-0.001 0h-1.087c-0 0-0.001 0-0.001 0-0.298 0-0.541 0.241-0.543 0.539v1.090c-1.612 0.047-2.904 1.387-2.904 3.036 0 1.346 0.884 2.544 2.149 2.921l3.063 0.909c0.354 0.101 0.599 0.451 0.599 0.854 0 0.492-0.361 0.889-0.802 0.889h-1.913c-0.323-0.002-0.623-0.095-0.878-0.254l0.007 0.004c-0.088-0.060-0.196-0.097-0.314-0.097-0.144 0-0.275 0.055-0.374 0.144l0-0-0.803 0.754c-0.104 0.098-0.168 0.236-0.168 0.389 0 0.172 0.081 0.325 0.207 0.423l0.001 0.001c0.593 0.439 1.328 0.718 2.126 0.76l0.010 0v1.097c0.002 0.298 0.245 0.539 0.543 0.539 0 0 0.001 0 0.001 0h1.088c0 0 0 0 0.001 0 0.298 0 0.541-0.241 0.543-0.538v-1.084c1.605-0.040 2.904-1.386 2.911-3.035 0.001-1.344-0.883-2.542-2.148-2.919z"></path>
</svg>
