<!-- Generated by IcoMoon.io -->
<svg version="1.1" xmlns="http://www.w3.org/2000/svg" width="32" height="32" viewBox="0 0 32 32">
<title>sack</title>
<path d="M20.931 7.602l2.733-4.493c0.885-1.329-0.067-3.109-1.663-3.109h-11.991c-1.598 0-2.55 1.781-1.663 3.11l2.723 4.492c-11.649 7.434-11.064 16.92-11.064 18.148 0 3.452 3.069 6.25 6.855 6.25h18.281c3.786 0 6.855-2.798 6.855-6.25 0-1.205 0.518-10.75-11.066-18.148zM10.009 2h11.991l-3.071 5h-5.858zM30 25.75c0 2.343-2.178 4.25-4.856 4.25h-18.284c-2.678 0-4.856-1.907-4.856-4.25v-0.21c-0.058-3.741 1.25-10.813 10.557-16.54h6.881c9.285 5.716 10.605 12.809 10.558 16.563z"></path>
</svg>
