<!-- Generated by IcoMoon.io -->
<svg version="1.1" xmlns="http://www.w3.org/2000/svg" width="31" height="32" viewBox="0 0 31 32">
<title>sad-cry</title>
<path d="M15.5 0.5c-8.563 0-15.5 6.938-15.5 15.5s6.938 15.5 15.5 15.5 15.5-6.938 15.5-15.5-6.938-15.5-15.5-15.5zM23.5 26.85v-9.85c0-0.55-0.45-1-1-1s-1 0.45-1 1v11.075c-1.813 0.906-3.844 1.425-6 1.425s-4.188-0.519-6-1.425v-11.075c0-0.55-0.45-1-1-1s-1 0.45-1 1v9.85c-3.331-2.462-5.5-6.4-5.5-10.85 0-7.444 6.056-13.5 13.5-13.5s13.5 6.056 13.5 13.5c0 4.45-2.169 8.387-5.5 10.85zM12.863 14.656c0.275-0.15 0.431-0.463 0.381-0.775-0.25-1.575-2.138-2.631-3.737-2.631s-3.494 1.056-3.737 2.631c-0.050 0.313 0.106 0.625 0.381 0.775s0.619 0.113 0.856-0.1l0.594-0.531c0.925-0.825 2.887-0.825 3.813 0l0.594 0.531c0.156 0.144 0.494 0.3 0.856 0.1zM21.5 11.25c-1.606 0-3.494 1.056-3.738 2.631-0.050 0.313 0.106 0.625 0.381 0.775s0.619 0.113 0.856-0.1l0.594-0.531c0.925-0.825 2.887-0.825 3.813 0l0.594 0.531c0.156 0.137 0.5 0.294 0.856 0.1 0.275-0.15 0.431-0.463 0.381-0.775-0.244-1.575-2.131-2.631-3.738-2.631zM15.5 18c-1.931 0-3.5 1.794-3.5 4s1.569 4 3.5 4 3.5-1.794 3.5-4-1.569-4-3.5-4zM15.5 24c-0.813 0-1.5-0.919-1.5-2s0.688-2 1.5-2 1.5 0.919 1.5 2-0.688 2-1.5 2z"></path>
</svg>
