<!-- Generated by IcoMoon.io -->
<svg version="1.1" xmlns="http://www.w3.org/2000/svg" width="31" height="32" viewBox="0 0 31 32">
<title>sad-tear-solid</title>
<path d="M15.5 0.5c-8.563 0-15.5 6.938-15.5 15.5s6.938 15.5 15.5 15.5 15.5-6.938 15.5-15.5-6.938-15.5-15.5-15.5zM20.5 11c1.106 0 2 0.894 2 2s-0.894 2-2 2-2-0.894-2-2 0.894-2 2-2zM9.5 26c-1.656 0-3-1.313-3-2.938 0-1.25 1.781-3.775 2.6-4.863 0.2-0.269 0.6-0.269 0.8 0 0.819 1.087 2.6 3.613 2.6 4.863 0 1.625-1.344 2.938-3 2.938zM10.5 15c-1.106 0-2-0.894-2-2s0.894-2 2-2 2 0.894 2 2-0.894 2-2 2zM21.137 24.637c-1.4-1.675-3.456-2.637-5.637-2.637-1.325 0-1.325-2 0-2 2.775 0 5.394 1.225 7.169 3.363 0.863 1.025-0.7 2.281-1.531 1.275z"></path>
</svg>
