<!-- Generated by IcoMoon.io -->
<svg version="1.1" xmlns="http://www.w3.org/2000/svg" width="31" height="32" viewBox="0 0 31 32">
<title>sad-tear</title>
<path d="M10.5 15c1.106 0 2-0.894 2-2s-0.894-2-2-2-2 0.894-2 2 0.894 2 2 2zM20.5 15c1.106 0 2-0.894 2-2s-0.894-2-2-2-2 0.894-2 2 0.894 2 2 2zM15.5 0.5c-8.563 0-15.5 6.938-15.5 15.5s6.938 15.5 15.5 15.5 15.5-6.938 15.5-15.5-6.938-15.5-15.5-15.5zM15.5 29.5c-7.444 0-13.5-6.056-13.5-13.5s6.056-13.5 13.5-13.5 13.5 6.056 13.5 13.5-6.056 13.5-13.5 13.5zM15.5 20c-0.7 0-1.375 0.106-2.044 0.256-0.45-0.788-1.006-1.656-1.756-2.65-0.563-0.756-1.838-0.75-2.4 0-1.856 2.475-2.8 4.313-2.8 5.456 0 2.169 1.794 3.938 4 3.938s4-1.769 4-3.938c0-0.275-0.063-0.594-0.169-0.944 0.381-0.075 0.769-0.119 1.169-0.119 2.181 0 4.238 0.962 5.637 2.637 0.331 0.4 0.962 0.5 1.406 0.125 0.425-0.356 0.481-0.988 0.125-1.406-1.781-2.131-4.394-3.356-7.169-3.356zM10.5 25c-1.106 0-2-0.869-2-1.938 0-0.481 0.625-1.8 2-3.719 1.375 1.919 2 3.238 2 3.719 0 1.069-0.894 1.938-2 1.938z"></path>
</svg>
