<!-- Generated by IcoMoon.io -->
<svg version="1.1" xmlns="http://www.w3.org/2000/svg" width="31" height="32" viewBox="0 0 31 32">
<title>sad-cry-solid</title>
<path d="M15.5 0.5c-8.563 0-15.5 6.938-15.5 15.5 0 5.631 3.013 10.544 7.5 13.256v-11.256c0-0.55 0.45-1 1-1s1 0.45 1 1v12.294c1.844 0.775 3.875 1.206 6 1.206s4.156-0.431 6-1.206v-12.294c0-0.55 0.45-1 1-1s1 0.45 1 1v11.256c4.488-2.712 7.5-7.631 7.5-13.256 0-8.563-6.938-15.5-15.5-15.5zM11.406 14.031c-0.925-0.825-2.887-0.825-3.813 0l-0.594 0.531c-0.237 0.206-0.581 0.25-0.856 0.1s-0.431-0.463-0.381-0.775c0.25-1.575 2.138-2.631 3.744-2.631s3.494 1.056 3.744 2.631c0.050 0.313-0.106 0.625-0.381 0.775-0.363 0.194-0.7 0.044-0.856-0.1l-0.606-0.531zM15.5 26c-1.656 0-3-1.794-3-4s1.344-4 3-4 3 1.794 3 4-1.344 4-3 4zM24.863 14.656c-0.363 0.194-0.7 0.044-0.856-0.1l-0.594-0.531c-0.925-0.825-2.887-0.825-3.813 0l-0.6 0.537c-0.238 0.206-0.581 0.25-0.856 0.1s-0.431-0.463-0.381-0.775c0.25-1.575 2.137-2.631 3.744-2.631s3.494 1.056 3.744 2.631c0.038 0.306-0.113 0.619-0.387 0.769z"></path>
</svg>
