<!-- Generated by IcoMoon.io -->
<svg version="1.1" xmlns="http://www.w3.org/2000/svg" width="32" height="32" viewBox="0 0 32 32">
<title>salad-solid</title>
<path d="M6 16h4.586l-5.438-5.438c-0.090-0.090-0.146-0.215-0.146-0.353s0.056-0.263 0.146-0.353l0.707-0.707c0.090-0.090 0.215-0.146 0.353-0.146s0.263 0.056 0.353 0.146l6.438 6.438v-9.086c0-0.276 0.224-0.5 0.5-0.5v0h1c0.276 0 0.5 0.224 0.5 0.5v0 9.5h3.284c-0.171-0.597-0.274-1.285-0.284-1.995l-0-0.005c0.005-4.416 3.584-7.995 8-8h0c0.166 0 0.32 0.039 0.483 0.049-1.099-1.246-2.69-2.049-4.483-2.049-0.563 0.008-1.103 0.093-1.614 0.245l0.042-0.011c-1.099-2.512-3.562-4.235-6.428-4.235s-5.329 1.723-6.411 4.19l-0.018 0.045c-0.469-0.141-1.009-0.226-1.568-0.234l-0.004-0c-3.314 0-6 2.686-6 6s2.686 6 6 6v0zM20 14c0.007 0.72 0.141 1.406 0.381 2.041l-0.014-0.041h10.581c0.235 0.001 0.463 0.029 0.681 0.082l-0.020-0.004c0.237-0.62 0.375-1.337 0.375-2.086 0-3.309-2.683-5.992-5.992-5.992s-5.992 2.683-5.992 5.992c0 0.003 0 0.006 0 0.009v-0.001zM30.948 18h-29.938c-0.573 0-1.057 0.483-1.007 1.052 0.414 4.773 3.638 8.712 7.996 10.241v0.707c0 1.105 0.895 2 2 2v0h12c1.105 0 2-0.895 2-2v0-0.719c4.337-1.539 7.541-5.468 7.954-10.228 0.049-0.57-0.434-1.052-1.006-1.052z"></path>
</svg>
