<!-- Generated by IcoMoon.io -->
<svg version="1.1" xmlns="http://www.w3.org/2000/svg" width="32" height="32" viewBox="0 0 32 32">
<title>salad</title>
<path d="M30.989 18h0.313c0.438-0.876 0.695-1.907 0.699-2.999v-0.001c0-2.072-0.923-3.918-2.359-5.201-0.953-3.341-3.992-5.799-7.641-5.799-0.227 0-0.441 0.048-0.663 0.067-1.112-2.396-3.524-4.067-6.337-4.067s-5.225 1.671-6.337 4.067c-0.223-0.019-0.438-0.067-0.663-0.067-4.418 0-8 3.582-8 8v0c0 2.411 1.089 4.541 2.783 6h-1.771c-0.574 0-1.058 0.483-1.008 1.052 0.415 4.773 3.632 8.712 7.996 10.241v0.707c0.006 1.106 0.903 2 2.010 2 0.001 0 0.002 0 0.003 0h12.015c1.106 0 1.971-0.896 1.971-2v-0.719c4.343-1.539 7.582-5.468 7.996-10.228 0.050-0.57-0.434-1.052-1.008-1.052zM30 15c-0.006 1.137-0.398 2.182-1.052 3.010l0.008-0.010h-7.911c-0.646-0.818-1.038-1.863-1.044-2.999v-0.001c0-2.761 2.239-5 5-5s5 2.239 5 5v0zM2 12c0-2.196 1.438-6.549 8-6 1.742-3.983 4.080-4 5-4 0.886 0 3.25 0 5 4 2.192-0.183 4.762-0.069 6.625 2.209-0.486-0.128-1.045-0.204-1.621-0.209l-0.004-0c-3.864 0.004-6.996 3.136-7 7v0c0.002 1.092 0.258 2.124 0.711 3.040l-0.018-0.040h-2.693v-11.5c0-0.276-0.224-0.5-0.5-0.5v0h-1c-0.276 0-0.5 0.224-0.5 0.5v0 10.086l-6.938-6.938c-0.090-0.090-0.215-0.146-0.353-0.146s-0.263 0.056-0.353 0.146v0l-0.709 0.706c-0.090 0.090-0.146 0.215-0.146 0.353s0.056 0.263 0.146 0.353l6.938 6.937h-4.584c-3.311-0.004-5.995-2.687-6-5.998v-0zM23.362 27.396l-1.362 0.472v2.132h-12v-2.125l-1.327-0.469c-3.354-1.174-5.814-4.014-6.511-7.406h27.676c-0.695 3.379-3.142 6.214-6.476 7.396z"></path>
</svg>
