<!-- Generated by IcoMoon.io -->
<svg version="1.1" xmlns="http://www.w3.org/2000/svg" width="32" height="32" viewBox="0 0 32 32">
<title>sandwich-solid</title>
<path d="M30 2h-28c-1.105 0-2 0.895-2 2v0 6c0 1.105 0.895 2 2 2v0h28c1.105 0 2-0.895 2-2v0-6c0-1.105-0.895-2-2-2v0zM31.119 15.956c-0.942-0.105-1.5-0.386-2.219-0.744-1.079-0.54-2.421-1.212-4.892-1.212s-3.813 0.672-4.891 1.211c-0.915 0.457-1.576 0.789-3.102 0.789s-2.192-0.331-3.109-0.789c-1.080-0.539-2.424-1.211-4.898-1.211s-3.819 0.671-4.896 1.211c-0.719 0.359-1.282 0.64-2.229 0.744-0.498 0.059-0.88 0.478-0.881 0.987v2.009c0.006 0.556 0.459 1.005 1.016 1.005 0.035 0 0.070-0.002 0.104-0.005l-0.004 0c1.786-0.164 2.875-0.71 3.782-1.162 0.915-0.458 1.58-0.789 3.109-0.789s2.193 0.331 3.111 0.789c1.079 0.541 2.424 1.211 4.896 1.211s3.813-0.672 4.891-1.211c0.915-0.457 1.576-0.789 3.102-0.789s2.188 0.331 3.101 0.788c0.904 0.453 1.993 1 3.776 1.163 0.030 0.003 0.064 0.005 0.099 0.005 0.557 0 1.010-0.448 1.017-1.004v-2.009c-0.002-0.508-0.384-0.927-0.877-0.986l-0.005-0zM30 22h-4l-6 3-6-3h-12c-1.105 0-2 0.895-2 2v0 4c0 1.105 0.895 2 2 2v0h28c1.105 0 2-0.895 2-2v0-4c0-1.105-0.895-2-2-2v0z"></path>
</svg>
