<!-- Generated by IcoMoon.io -->
<svg version="1.1" xmlns="http://www.w3.org/2000/svg" width="32" height="32" viewBox="0 0 32 32">
<title>sandwich</title>
<path d="M30 2h-28c-1.105 0-2 0.895-2 2v0 6c0 1.105 0.895 2 2 2v0h28c1.105 0 2-0.895 2-2v0-6c0-1.105-0.895-2-2-2v0zM30 10h-28v-6h28zM30 20h-28c-1.105 0-2 0.895-2 2v0 6c0 1.105 0.895 2 2 2v0h28c1.105 0 2-0.895 2-2v0-6c0-1.105-0.895-2-2-2v0zM24.697 22l-2.697 1.798-2.697-1.798zM30 28h-28v-6h13.697l5.75 3.832c0.156 0.105 0.348 0.168 0.555 0.168s0.399-0.063 0.559-0.17l-0.004 0.002 5.75-3.832h1.692zM31.51 15.988c-1.438-0.069-2.193-0.449-3.059-0.883-0.756-0.378-4.256-2.32-8.887 0-4.009 2.009-7.034 0.036-7.107 0-0.756-0.379-4.261-2.32-8.9 0-0.868 0.432-1.625 0.813-3.067 0.883-0.271 0.008-0.487 0.228-0.49 0.5v1c0 0 0 0 0 0 0 0.276 0.224 0.5 0.5 0.5 0.006 0 0.013-0 0.019-0l-0.001 0c1.907-0.082 2.979-0.617 3.933-1.094 0.073-0.036 3.093-2.009 7.111 0 4.634 2.317 8.129 0.384 8.896 0 4.009-2.009 7.025-0.036 7.098 0 0.952 0.476 2.021 1.012 3.925 1.094 0.005 0 0.012 0 0.018 0 0.276 0 0.5-0.224 0.5-0.5 0-0 0-0 0-0v0-1c-0.003-0.272-0.219-0.492-0.489-0.501l-0.001-0z"></path>
</svg>
