<!-- Generated by IcoMoon.io -->
<svg version="1.1" xmlns="http://www.w3.org/2000/svg" width="32" height="32" viewBox="0 0 32 32">
<title>satellite-dish</title>
<path d="M21.662 28.494c0.52 0.524 0.432 1.425-0.219 1.774-1.992 1.090-4.365 1.731-6.887 1.731-4.020 0-7.66-1.629-10.295-4.263l0 0c-4.651-4.649-5.494-11.669-2.531-17.181 0.181-0.334 0.53-0.557 0.93-0.557 0.007 0 0.015 0 0.022 0l-0.001-0c0 0 0.001 0 0.001 0 0.319 0 0.608 0.129 0.817 0.338l8.375 8.375 2.225-2.226c-0.043-0.162-0.1-0.313-0.1-0.487 0-0 0-0 0-0 0-1.105 0.895-2 2-2s2 0.895 2 2c0 1.105-0.895 2-2 2v0c-0.176 0-0.326-0.057-0.488-0.1l-2.225 2.225zM19.375 29.037l-16.413-16.412c-1.92 4.631-0.883 10.106 2.711 13.7 2.26 2.27 5.388 3.675 8.845 3.675 0.011 0 0.022 0 0.032-0h-0.002c1.385 0 3.547-0.432 4.826-0.963zM32 19.482c0 0.002 0 0.005 0 0.007 0 0.279-0.226 0.506-0.506 0.506-0 0-0 0-0 0h-1c-0.272-0.002-0.492-0.222-0.494-0.494v-0c-0.256-9.55-7.957-17.268-17.506-17.506-0.273-0.001-0.493-0.222-0.494-0.494v-0.994c0-0 0-0.001 0-0.001 0-0.279 0.226-0.505 0.505-0.505 0.002 0 0.005 0 0.007 0h-0c10.625 0.269 19.219 8.862 19.489 19.481zM25.994 19.482c0 0.002 0 0.004 0 0.005 0 0.28-0.227 0.507-0.507 0.507-0 0-0 0-0.001 0h-0.986c-0.272-0.001-0.492-0.218-0.5-0.488l-0-0.001c-0.225-6.237-5.27-11.25-11.514-11.5-0.269-0.011-0.483-0.23-0.486-0.5v-1c-0-0.002-0-0.004-0-0.005 0-0.276 0.224-0.501 0.501-0.501 0.004 0 0.008 0 0.012 0h-0.001c7.313 0.269 13.219 6.169 13.483 13.481z"></path>
</svg>
