<!-- Generated by IcoMoon.io -->
<svg version="1.1" xmlns="http://www.w3.org/2000/svg" width="32" height="32" viewBox="0 0 32 32">
<title>satellite</title>
<path d="M31.414 16.55c0.359 0.361 0.582 0.86 0.582 1.41s-0.222 1.048-0.582 1.41l-6.043 6.043c-0.36 0.36-0.857 0.582-1.406 0.582s-1.046-0.222-1.406-0.582l-2.875-2.875c0.625 3.013 0.23 6.188-1.258 8.957-0.166 0.304-0.483 0.506-0.847 0.506-0.007 0-0.014-0-0.021-0l0.001 0c-0.001 0-0.002 0-0.003 0-0.289 0-0.552-0.117-0.741-0.307l-7.556-7.537-2.363 2.362c0.045 0.156 0.102 0.313 0.102 0.487-0 1.105-0.895 2-2 2s-2-0.895-2-2c0-1.105 0.895-2 2-2v0c0.174 0 0.33 0.057 0.486 0.101l2.369-2.369-7.543-7.544c-0.477-0.475-0.395-1.293 0.193-1.612 1.81-0.992 3.965-1.575 6.257-1.575 0.94 0 1.857 0.098 2.741 0.285l-0.086-0.015-2.832-2.832c-0.359-0.362-0.58-0.86-0.58-1.409s0.222-1.048 0.58-1.409l6.045-6.044c0.357-0.359 0.852-0.581 1.398-0.581 0.003 0 0.006 0 0.008 0h-0c0 0 0.001 0 0.001 0 0.55 0 1.049 0.222 1.411 0.581l-0-0 4.426 4.432 4.424-4.425c0.361-0.363 0.861-0.588 1.413-0.588s1.052 0.225 1.413 0.588l0 0 4.293 4.287c0.362 0.362 0.586 0.863 0.586 1.416s-0.224 1.053-0.586 1.416v0l-4.426 4.425zM14.707 17.287c-2.035-2.031-4.844-3.287-7.946-3.287-1.458 0-2.851 0.277-4.13 0.782l0.076-0.027 14.539 14.538c1.574-4.088 0.611-8.856-2.539-12.007zM8.002 8.037l4.418 4.426 6.037-6.038-4.424-4.419zM13.721 13.987c0.91 0.56 1.698 1.184 2.407 1.888l-0.001-0.001c0.744 0.744 1.338 1.568 1.869 2.425l12.006-12.006-4.295-4.294zM30.008 17.956l-4.426-4.419-6.037 6.038 4.432 4.425z"></path>
</svg>
