<!-- Generated by IcoMoon.io -->
<svg version="1.1" xmlns="http://www.w3.org/2000/svg" width="32" height="32" viewBox="0 0 32 32">
<title>satellite-solid</title>
<path d="M31.413 19.378l-6.044 6.045c-0.36 0.359-0.858 0.581-1.407 0.581s-1.046-0.222-1.407-0.581l0 0-5.020-5.026-0.618 0.619c0.673 1.446 1.065 3.139 1.065 4.924 0 2.053-0.52 3.985-1.435 5.672l0.031-0.063c-0.281 0.531-1.025 0.6-1.45 0.175l-6.72-6.72-1.112 1.112c0.044 0.163 0.101 0.313 0.101 0.487 0 0 0 0 0 0 0 1.105-0.896 2-2 2s-2-0.896-2-2c0-1.105 0.896-2 2-2v0c0.175 0 0.324 0.057 0.487 0.101l1.112-1.112-6.72-6.72c-0.425-0.426-0.356-1.163 0.175-1.45 1.624-0.884 3.556-1.403 5.609-1.403 1.785 0 3.478 0.393 4.998 1.096l-0.074-0.031 0.612-0.612-5.019-5.026c-0.359-0.361-0.581-0.86-0.581-1.409s0.222-1.048 0.581-1.409l6.045-6.045c0.358-0.359 0.853-0.581 1.4-0.581 0.002 0 0.005 0 0.007 0h-0c0.001 0 0.002 0 0.003 0 0.55 0 1.048 0.222 1.41 0.581l5.020 5.019 2.988-2.994c0.38-0.38 0.905-0.615 1.485-0.615s1.105 0.235 1.485 0.615l2.969 2.969c0.379 0.38 0.614 0.905 0.614 1.485s-0.235 1.104-0.614 1.485l-2.988 2.994 5.019 5.026c0.358 0.359 0.58 0.855 0.58 1.403 0 0.551-0.224 1.050-0.587 1.41l-0 0zM13.723 12.34l4.614-4.614-4.307-4.306-4.613 4.613zM28.582 17.971l-4.306-4.307-4.614 4.614 4.307 4.306z"></path>
</svg>
