<!-- Generated by IcoMoon.io -->
<svg version="1.1" xmlns="http://www.w3.org/2000/svg" width="32" height="32" viewBox="0 0 32 32">
<title>sausage-solid</title>
<path d="M27.989 4.364l0.948-2.853c0.038-0.109 0.059-0.234 0.059-0.364 0-0.633-0.513-1.146-1.145-1.147h-3.703c-0.633 0.001-1.145 0.514-1.145 1.147 0 0.13 0.022 0.255 0.062 0.372l-0.002-0.008 0.951 2.853c-2.333 0.823-4.013 3.023-4.013 5.636 0 5.514-4.486 10-10 10-2.612 0-4.813 1.68-5.636 4.011l-2.853-0.948c-0.109-0.038-0.234-0.059-0.364-0.059-0.633 0-1.146 0.513-1.147 1.145v3.703c0.002 0.633 0.515 1.145 1.148 1.145 0.13 0 0.255-0.022 0.371-0.061l-0.008 0.002 2.853-0.951c0.823 2.333 3.023 4.013 5.636 4.013 12.131 0 22-9.869 22-22 0-2.612-1.68-4.813-4.011-5.636zM10 25c-0.552 0-1-0.448-1-1s0.448-1 1-1v0c7.168 0 13-5.832 13-13 0-0.552 0.448-1 1-1s1 0.448 1 1v0c0 8.271-6.729 15-15 15z"></path>
</svg>
