<!-- Generated by IcoMoon.io -->
<svg version="1.1" xmlns="http://www.w3.org/2000/svg" width="32" height="32" viewBox="0 0 32 32">
<title>sausage</title>
<path d="M28.483 4.552l0.933-2.797c0.043-0.126 0.068-0.271 0.068-0.421 0-0.736-0.597-1.333-1.333-1.334h-4.3c-0.736 0-1.333 0.597-1.333 1.334 0 0.151 0.025 0.296 0.071 0.431l-0.003-0.009 0.933 2.797c-2.090 0.964-3.514 3.039-3.518 5.448v0c0 5.514-4.486 10-10 10-2.409 0.003-4.485 1.428-5.433 3.48l-0.015 0.037-2.797-0.933c-1.099-0.366-1.755 0.618-1.755 1.265v4.3c0 0.602 0.655 1.631 1.755 1.265l2.797-0.933c0.964 2.090 3.039 3.514 5.448 3.518h0c12.131 0 22-9.869 22-22-0.003-2.409-1.428-4.485-3.48-5.433l-0.037-0.015zM4 26.559l-2 0.666v-2.45l2 0.666zM27.225 2l-0.666 2h-1.117l-0.666-2zM10 30c-2.209 0-4-1.791-4-4s1.791-4 4-4v0c6.617 0 12-5.383 12-12 0-2.209 1.791-4 4-4s4 1.791 4 4v0c0 11.028-8.972 20-20 20zM25 10c-0.552 0-1 0.448-1 1v0c0 7.168-5.832 13-13 13-0.552 0-1 0.448-1 1s0.448 1 1 1v0c8.271 0 15-6.729 15-15 0-0.552-0.448-1-1-1v0z"></path>
</svg>
