<!-- Generated by IcoMoon.io -->
<svg version="1.1" xmlns="http://www.w3.org/2000/svg" width="28" height="32" viewBox="0 0 28 32">
<title>save</title>
<path d="M27.121 8.121l-5.243-5.243c-0.543-0.543-1.293-0.879-2.121-0.879h-16.757c-1.657 0-3 1.343-3 3v22c0 1.657 1.343 3 3 3h22c1.657 0 3-1.343 3-3v-16.757c0-0.828-0.336-1.578-0.879-2.121v0zM18 4v6h-12v-6h12zM26 27c0 0.551-0.449 1-1 1h-22c-0.551 0-1-0.449-1-1v-22c0-0.551 0.449-1 1-1h1v6.5c0 0.828 0.672 1.5 1.5 1.5h13c0.828 0 1.5-0.672 1.5-1.5v-6.469c0.183 0.046 0.34 0.138 0.465 0.262l5.243 5.243c0.181 0.18 0.293 0.429 0.293 0.704 0 0.001 0 0.002 0 0.003v-0 16.757zM14 14.5c-3.033 0-5.5 2.467-5.5 5.5s2.467 5.5 5.5 5.5 5.5-2.467 5.5-5.5-2.467-5.5-5.5-5.5zM14 23.5c-1.93 0-3.5-1.57-3.5-3.5s1.57-3.5 3.5-3.5 3.5 1.57 3.5 3.5-1.57 3.5-3.5 3.5z"></path>
</svg>
