<!-- Generated by IcoMoon.io -->
<svg version="1.1" xmlns="http://www.w3.org/2000/svg" width="28" height="32" viewBox="0 0 28 32">
<title>save-solid</title>
<path d="M27.121 8.121l-5.243-5.243c-0.543-0.543-1.293-0.879-2.121-0.879h-16.757c-1.657 0-3 1.343-3 3v22c0 1.657 1.343 3 3 3h22c1.657 0 3-1.343 3-3v-16.757c0-0.828-0.336-1.578-0.879-2.121v0zM14 26c-2.209 0-4-1.791-4-4s1.791-4 4-4 4 1.791 4 4c0 2.209-1.791 4-4 4zM20 6.968v6.282c0 0.414-0.336 0.75-0.75 0.75h-14.5c-0.414 0-0.75-0.336-0.75-0.75v-6.5c0-0.414 0.336-0.75 0.75-0.75h14.282c0.199 0 0.39 0.079 0.53 0.22l0.218 0.218c0.136 0.136 0.22 0.323 0.22 0.53 0 0 0 0 0 0v0z"></path>
</svg>
