<!-- Generated by IcoMoon.io -->
<svg version="1.1" xmlns="http://www.w3.org/2000/svg" width="40" height="32" viewBox="0 0 40 32">
<title>sax-hot-solid</title>
<path d="M5.202 11c-0.439-0.612-0.701-1.375-0.702-2.2v-0c0-0.476 0.541-1.894 1.779-3.596q0.125 0.163 0.243 0.326l2.666 3.674 1.691-2.067c0.379 0.756 0.596 1.39 0.62 1.664-0 0.825-0.262 1.588-0.708 2.212l0.008-0.011h3.834c0.224-0.655 0.358-1.41 0.368-2.195l0-0.005c0-1.664-1.625-5.098-3.889-7.2-0.623 0.582-1.198 1.194-1.73 1.842l-0.026 0.033c-0.953-1.291-1.972-2.428-3.088-3.46l-0.016-0.015c-3.070 2.849-5.25 6.563-5.25 8.8 0.010 0.79 0.144 1.545 0.383 2.252l-0.015-0.052zM39.705 6.293l-1.705-1.707c-0.362-0.362-0.862-0.586-1.414-0.586-0.001 0-0.002 0-0.002 0h-2.927c-0 0-0 0-0.001 0-1.104 0-2.104 0.448-2.828 1.171l-2.766 2.766-0.646-0.646c-0.181-0.181-0.431-0.293-0.707-0.293s-0.526 0.112-0.707 0.293l-0.709 0.709c-0.181 0.181-0.293 0.431-0.293 0.707s0.112 0.526 0.293 0.707v0l0.644 0.648-0.875 0.875-0.646-0.646c-0.181-0.181-0.431-0.293-0.707-0.293s-0.526 0.112-0.707 0.293l-0.709 0.709c-0.181 0.181-0.293 0.431-0.293 0.707s0.112 0.526 0.293 0.707v0l0.644 0.648-0.875 0.875-0.646-0.646c-0.181-0.181-0.431-0.293-0.707-0.293s-0.526 0.112-0.707 0.293l-0.709 0.709c-0.181 0.181-0.293 0.431-0.293 0.707s0.112 0.526 0.293 0.707v0l0.644 0.648-6.813 6.813c-0.287 0.285-0.683 0.462-1.12 0.462-0.877 0-1.588-0.711-1.588-1.588 0-0.299 0.083-0.579 0.227-0.818l-0.004 0.007 2.962-4.938h1.398c0.552 0 1-0.448 1-1v0-1c0-0.552-0.448-1-1-1v0h-14c-0.552 0-1 0.448-1 1v0 1c0.002 0.532 0.422 0.966 0.948 0.99l0.002 0c-0.483 2.045-0.951 4.43-0.951 6.010 0 3.837 2.188 7.131 5.358 8.807 1.318 0.75 2.895 1.193 4.576 1.193 0.023 0 0.046-0 0.069-0l-0.004 0c4.819 0 7.279-3.208 8-4l15.399-19.25c0.37-0.459 0.931-0.75 1.561-0.75 0 0 0.001 0 0.001 0h4.038c0.889 0 1.335-1.077 0.705-1.707zM5.5 24.5c-0.828 0-1.5-0.672-1.5-1.5s0.672-1.5 1.5-1.5c0.828 0 1.5 0.672 1.5 1.5v0c0 0.828-0.672 1.5-1.5 1.5v0zM7.5 19c-0.828 0-1.5-0.672-1.5-1.5s0.672-1.5 1.5-1.5c0.828 0 1.5 0.672 1.5 1.5v0c0 0.828-0.672 1.5-1.5 1.5v0z"></path>
</svg>
