<!-- Generated by IcoMoon.io -->
<svg version="1.1" xmlns="http://www.w3.org/2000/svg" width="40" height="32" viewBox="0 0 40 32">
<title>sax-hot</title>
<path d="M8.996 10.506c-1.125-1.672-2.079-3.088-2.132-3.161l-0.642-0.889-0.629 0.902c-1.241 1.781-2.051 3.078-2.080 4.641h2.007c0.020-0.601 0.245-1.196 0.725-2 0.387 0.574 0.858 1.275 1.345 2h4.41l-2-3zM2.338 12l-0.009-0.027c-0.225-0.715-0.329-1.324-0.329-1.915 0-1.489 1.5-4.472 4.009-7.227 0.66 0.701 1.289 1.455 1.872 2.245l0.047 0.067 1.524 2.1 1.643-2.008q0.203-0.25 0.414-0.49c1.571 2.033 2.491 4.402 2.491 5.313 0 0.591-0.105 1.2-0.329 1.915l-0.009 0.027h2.059c0.159-0.625 0.279-1.266 0.279-1.942 0-1.903-1.857-5.827-4.445-8.229-0.713 0.665-1.37 1.364-1.978 2.104l-0.030 0.038c-1.089-1.475-2.253-2.774-3.529-3.954l-0.018-0.017c-3.509 3.256-6 7.5-6 10.057 0 0.677 0.119 1.317 0.279 1.942zM7.5 19c-0.828 0-1.5 0.672-1.5 1.5s0.672 1.5 1.5 1.5c0.828 0 1.5-0.672 1.5-1.5v0c0-0.828-0.672-1.5-1.5-1.5v0zM39.705 8.296l-2.705-3.71c-0.362-0.362-0.862-0.586-1.414-0.586-0.001 0-0.002 0-0.003 0h-2.927c0 0 0 0-0 0-1.104 0-2.104 0.448-2.828 1.171v0l-1.86 1.726-1.443-1.444c-0.090-0.091-0.216-0.147-0.354-0.147s-0.263 0.056-0.354 0.147l-0.707 0.708c-0.090 0.090-0.146 0.215-0.146 0.353s0.056 0.263 0.146 0.353l1.389 1.39-1.468 1.361-1.337-1.337c-0.090-0.090-0.215-0.146-0.353-0.146s-0.263 0.056-0.353 0.146l-0.707 0.707c-0.091 0.091-0.147 0.216-0.147 0.354s0.056 0.263 0.147 0.354l1.284 1.284-1.468 1.361-1.231-1.231c-0.090-0.091-0.216-0.147-0.354-0.147s-0.263 0.056-0.354 0.147l-0.707 0.707c-0.090 0.090-0.146 0.215-0.146 0.353s0.056 0.263 0.146 0.353l1.178 1.178-5.131 4.797c-0.287 0.285-0.683 0.462-1.12 0.462-0.877 0-1.588-0.711-1.588-1.588 0-0.299 0.083-0.579 0.227-0.818l-0.004 0.007 0.342-0.563h1.143c0.276 0 0.5-0.224 0.5-0.5v0-1c-0.006-0.247-0.195-0.447-0.435-0.473l-0.002-0 0.017-0.027h-14.079c-0.276 0-0.5 0.224-0.5 0.5v0 1c0 0.276 0.224 0.5 0.5 0.5v0h0.308c-0.428 2.174-0.808 4.578-0.808 6 0 4.39 3.583 10 10 10 5.902 0 6.481-2.236 23.5-22h5.5c0.889 0 1.335-1.074 0.705-1.704zM33.5 8h-0.917l-0.599 0.696c-3.103 3.604-5.661 6.625-7.804 9.158-9.555 11.29-10.367 12.146-14.18 12.146-5.22 0-8-4.646-8-8 0-1.317 0.406-3.801 0.85-6h8.266c-0.563 1.329-0.321 2.87 0.723 3.914 0.645 0.649 1.539 1.051 2.527 1.051 0.003 0 0.006 0 0.009 0h-0c0.958 0 1.859-0.375 2.483-1l14.384-13.379c0.36-0.362 0.859-0.586 1.41-0.586 0.002 0 0.003 0 0.005 0h2.897l1.461 2z"></path>
</svg>
