<!-- Generated by IcoMoon.io -->
<svg version="1.1" xmlns="http://www.w3.org/2000/svg" width="40" height="32" viewBox="0 0 40 32">
<title>saxophone-solid</title>
<path d="M39.705 4.293l-1.705-1.708c-0.362-0.362-0.862-0.586-1.414-0.586-0.001 0-0.002 0-0.002 0h-2.927c-0 0-0 0-0.001 0-1.104 0-2.104 0.448-2.828 1.171l-2.766 2.766-0.648-0.644c-0.181-0.181-0.431-0.293-0.707-0.293s-0.526 0.112-0.707 0.293l-0.707 0.707c-0.181 0.181-0.293 0.431-0.293 0.707s0.112 0.526 0.293 0.707v0l0.644 0.648-0.875 0.875-0.646-0.646c-0.181-0.181-0.431-0.293-0.707-0.293s-0.526 0.112-0.707 0.293l-0.709 0.709c-0.181 0.181-0.293 0.431-0.293 0.707s0.112 0.526 0.293 0.707v0l0.644 0.648-0.875 0.875-0.646-0.646c-0.181-0.181-0.431-0.293-0.707-0.293s-0.526 0.112-0.707 0.293l-0.709 0.709c-0.181 0.181-0.293 0.431-0.293 0.707s0.112 0.526 0.293 0.707v0l0.644 0.648-6.813 6.813c-0.287 0.285-0.683 0.462-1.12 0.462-0.877 0-1.588-0.711-1.588-1.588 0-0.299 0.083-0.579 0.227-0.818l-0.004 0.007 4.76-7.938h1.6c0.552 0 1-0.448 1-1v0-1c0-0.552-0.448-1-1-1v0h-16c-0.552 0-1 0.448-1 1v0 1c0 0.552 0.448 1 1 1v0h0.716c-0.551 1.995-1.716 6.508-1.716 9 0 3.837 2.188 7.131 5.358 8.807 1.318 0.75 2.895 1.193 4.576 1.193 0.023 0 0.046-0 0.069-0l-0.004 0c4.819 0 7.279-3.208 8-4l15.399-19.25c0.37-0.459 0.931-0.75 1.561-0.75 0 0 0.001 0 0.001 0h4.038c0.889 0 1.335-1.077 0.705-1.707zM6 21.5c-0.828 0-1.5-0.672-1.5-1.5s0.672-1.5 1.5-1.5c0.828 0 1.5 0.672 1.5 1.5v0c0 0.828-0.672 1.5-1.5 1.5v0zM8 15.5c-0.828 0-1.5-0.672-1.5-1.5s0.672-1.5 1.5-1.5c0.828 0 1.5 0.672 1.5 1.5v0c0 0.828-0.672 1.5-1.5 1.5v0z"></path>
</svg>
