<!-- Generated by IcoMoon.io -->
<svg version="1.1" xmlns="http://www.w3.org/2000/svg" width="40" height="32" viewBox="0 0 40 32">
<title>saxophone</title>
<path d="M39.705 6.296l-2.705-3.71c-0.362-0.362-0.862-0.586-1.414-0.586-0.001 0-0.002 0-0.003 0h-2.927c0 0 0 0-0 0-1.104 0-2.104 0.448-2.828 1.171v0l-1.861 1.726-1.443-1.444c-0.090-0.090-0.215-0.146-0.353-0.146s-0.263 0.056-0.353 0.146v0l-0.707 0.708c-0.090 0.090-0.146 0.215-0.146 0.353s0.056 0.263 0.146 0.353l1.389 1.39-1.468 1.361-1.337-1.337c-0.090-0.090-0.215-0.146-0.353-0.146s-0.263 0.056-0.353 0.146l-0.707 0.707c-0.091 0.090-0.147 0.216-0.147 0.354s0.056 0.263 0.147 0.354v0l1.284 1.284-1.467 1.361-1.231-1.231c-0.090-0.090-0.215-0.146-0.353-0.146s-0.263 0.056-0.353 0.146v0l-0.707 0.707c-0.090 0.090-0.146 0.215-0.146 0.353s0.056 0.263 0.146 0.353l1.178 1.178-4.631 4.297c-0.287 0.285-0.683 0.462-1.12 0.462-0.877 0-1.588-0.711-1.588-1.588 0-0.299 0.083-0.579 0.227-0.818l-0.004 0.007 2.485-4.063h0.5c0.276 0 0.5-0.224 0.5-0.5v0-1c0-0.276-0.224-0.5-0.5-0.5v0h-16c-0.276 0-0.5 0.224-0.5 0.5v0 1c0 0.276 0.224 0.5 0.5 0.5v0h1.216c-0.551 1.995-1.716 7.508-1.716 10 0 4.39 3.583 10 10 10 5.902 0 6.481-2.236 23.5-22h5.5c0.889 0 1.335-1.074 0.705-1.704zM33.5 6h-0.917l-0.599 0.696c-3.103 3.604-5.661 6.625-7.804 9.158-9.555 11.29-10.367 12.146-14.18 12.146-5.22 0-8-4.646-8-8 0-2.146 1.079-7.424 1.644-9.467l0.147-0.533h9.863l-1.854 3.031c-0.321 0.527-0.511 1.164-0.511 1.846 0 1.981 1.605 3.587 3.586 3.588h0c0.958 0 1.859-0.375 2.483-1l13.884-12.879c0.36-0.362 0.859-0.586 1.41-0.586 0.002 0 0.003 0 0.005 0h2.897l1.461 2zM6.5 18c-0.828 0-1.5 0.672-1.5 1.5s0.672 1.5 1.5 1.5c0.828 0 1.5-0.672 1.5-1.5v0c0-0.828-0.672-1.5-1.5-1.5v0zM7.5 13c-0.828 0-1.5 0.672-1.5 1.5s0.672 1.5 1.5 1.5c0.828 0 1.5-0.672 1.5-1.5v0c0-0.828-0.672-1.5-1.5-1.5v0z"></path>
</svg>
