<!-- Generated by IcoMoon.io -->
<svg version="1.1" xmlns="http://www.w3.org/2000/svg" width="40" height="32" viewBox="0 0 40 32">
<title>scalpel-path</title>
<path d="M21.5 30h-5c-0.276 0-0.5 0.224-0.5 0.5v1c0 0.276 0.224 0.5 0.5 0.5h5c0.276 0 0.5-0.224 0.5-0.5v-1c0-0.276-0.224-0.5-0.5-0.5zM30.5 30h-5c-0.276 0-0.5 0.224-0.5 0.5v1c0 0.276 0.224 0.5 0.5 0.5h5c0.276 0 0.5-0.224 0.5-0.5v-1c0-0.276-0.224-0.5-0.5-0.5zM39.5 30h-5c-0.276 0-0.5 0.224-0.5 0.5v1c0 0.276 0.224 0.5 0.5 0.5h5c0.276 0 0.5-0.224 0.5-0.5v-1c0-0.276-0.224-0.5-0.5-0.5zM31.966 0.823c-0.786-0.561-1.696-0.823-2.609-0.823-1.441 0-2.892 0.652-3.883 1.811l-13.993 16.352c-0.362 0.423-0.306 0.959-0.031 1.348l-11.449 12.489h0.024c6.336 0 12.399-2.133 17.060-5.918 0.014-0.012 0.029-0.023 0.043-0.035 1.899-1.556 2.947-3.747 3.264-6.047h1.098c0.651 0 1.269-0.284 1.692-0.779l9.654-11.281c1.831-2.139 1.474-5.446-0.87-7.117zM15.823 24.529c-3.093 2.512-6.829 4.22-10.841 4.996l8.731-9.525h4.701c-0.309 1.799-1.208 3.397-2.591 4.529zM31.316 6.64l-9.654 11.281c-0.043 0.051-0.106 0.080-0.173 0.080h-7.237l12.741-14.889c0.596-0.696 1.479-1.111 2.364-1.111 0.534 0 1.034 0.156 1.448 0.451 0.659 0.47 1.076 1.172 1.174 1.976 0.097 0.799-0.144 1.606-0.663 2.213z"></path>
</svg>
