<!-- Generated by IcoMoon.io -->
<svg version="1.1" xmlns="http://www.w3.org/2000/svg" width="40" height="32" viewBox="0 0 40 32">
<title>scalpel-path-solid</title>
<path d="M19.5 30h-5c-0.276 0-0.5 0.224-0.5 0.5v1c0 0.276 0.224 0.5 0.5 0.5h5c0.276 0 0.5-0.224 0.5-0.5v-1c0-0.276-0.224-0.5-0.5-0.5zM29.5 30h-5c-0.276 0-0.5 0.224-0.5 0.5v1c0 0.276 0.224 0.5 0.5 0.5h5c0.276 0 0.5-0.224 0.5-0.5v-1c0-0.276-0.224-0.5-0.5-0.5zM39.5 30h-5c-0.276 0-0.5 0.224-0.5 0.5v1c0 0.276 0.224 0.5 0.5 0.5h5c0.276 0 0.5-0.224 0.5-0.5v-1c0-0.276-0.224-0.5-0.5-0.5zM14.68 26.898c1.961-1.607 2.92-3.996 2.92-6.395v-0.503h-6.6l-11 12c5.438 0.004 10.643-1.824 14.643-5.072 0.012-0.010 0.024-0.020 0.037-0.030zM30.169 0.741c-1.825-1.302-4.386-0.814-5.843 0.889l-12.594 14.716c-0.556 0.651-0.094 1.654 0.762 1.654h8.246c0.586 0 1.143-0.256 1.523-0.701l8.689-10.152c1.648-1.924 1.326-4.9-0.783-6.405z"></path>
</svg>
