<!-- Generated by IcoMoon.io -->
<svg version="1.1" xmlns="http://www.w3.org/2000/svg" width="40" height="32" viewBox="0 0 40 32">
<title>scanner-image-solid</title>
<path d="M0.683 6.794l28.545 9.206h10.474l0.246-0.734c0.033-0.095 0.052-0.204 0.052-0.317 0-0.439-0.283-0.812-0.676-0.946l-0.007-0.002-37.048-11.948c-0.095-0.033-0.203-0.051-0.317-0.051-0.439 0-0.812 0.283-0.946 0.676l-0.002 0.007-0.952 2.846c-0.033 0.095-0.052 0.204-0.052 0.317 0 0.439 0.283 0.812 0.676 0.946l0.007 0.002zM2 18c-1.105 0-2 0.895-2 2v0 8c0 1.105 0.895 2 2 2v0h36c1.105 0 2-0.895 2-2v0-10zM7.5 25c0 0.276-0.224 0.5-0.5 0.5v0h-2c-0.276 0-0.5-0.224-0.5-0.5v0-2c0-0.276 0.224-0.5 0.5-0.5v0h2c0.276 0 0.5 0.224 0.5 0.5v0zM13.5 25c0 0.276-0.224 0.5-0.5 0.5v0h-2c-0.276 0-0.5-0.224-0.5-0.5v0-2c0-0.276 0.224-0.5 0.5-0.5v0h2c0.276 0 0.5 0.224 0.5 0.5v0z"></path>
</svg>
