<!-- Generated by IcoMoon.io -->
<svg version="1.1" xmlns="http://www.w3.org/2000/svg" width="36" height="32" viewBox="0 0 36 32">
<title>scanner-keyboard-solid</title>
<path d="M25 6h-24c-0.55 0-1 0.45-1 1v8.588c0 0.262 0.106 0.519 0.294 0.706l1.706 1.706v11c0 1.656 1.344 3 3 3h16c1.656 0 3-1.344 3-3v-11l1.706-1.706c0.188-0.188 0.294-0.444 0.294-0.706v-8.588c0-0.55-0.45-1-1-1zM12 27.5c0 0.275-0.225 0.5-0.5 0.5h-5c-0.275 0-0.5-0.225-0.5-0.5v-3c0-0.275 0.225-0.5 0.5-0.5h5c0.275 0 0.5 0.225 0.5 0.5v3zM12 21.5c0 0.275-0.225 0.5-0.5 0.5h-5c-0.275 0-0.5-0.225-0.5-0.5v-3c0-0.275 0.225-0.5 0.5-0.5h5c0.275 0 0.5 0.225 0.5 0.5v3zM20 27.5c0 0.275-0.225 0.5-0.5 0.5h-5c-0.275 0-0.5-0.225-0.5-0.5v-3c0-0.275 0.225-0.5 0.5-0.5h5c0.275 0 0.5 0.225 0.5 0.5v3zM20 21.5c0 0.275-0.225 0.5-0.5 0.5h-5c-0.275 0-0.5-0.225-0.5-0.5v-3c0-0.275 0.225-0.5 0.5-0.5h5c0.275 0 0.5 0.225 0.5 0.5v3zM22 13.5c0 0.275-0.225 0.5-0.5 0.5h-17c-0.275 0-0.5-0.225-0.5-0.5v-3c0-0.275 0.225-0.5 0.5-0.5h17c0.275 0 0.5 0.225 0.5 0.5v3zM16 0.5c0-0.275-0.225-0.5-0.5-0.5h-3c-0.275 0-0.5 0.225-0.5 0.5v3.5h4v-3.5zM25.5 0h-3c-0.275 0-0.5 0.225-0.5 0.5v3.5h4v-3.5c0-0.275-0.225-0.5-0.5-0.5zM35.5 0h-3c-0.275 0-0.5 0.225-0.5 0.5v17c0 0.275 0.225 0.5 0.5 0.5h3c0.275 0 0.5-0.225 0.5-0.5v-17c0-0.275-0.225-0.5-0.5-0.5zM20 0.5c0-0.275-0.225-0.5-0.5-0.5h-1c-0.275 0-0.5 0.225-0.5 0.5v3.5h2v-3.5zM29.5 0h-1c-0.275 0-0.5 0.225-0.5 0.5v17c0 0.275 0.225 0.5 0.5 0.5h1c0.275 0 0.5-0.225 0.5-0.5v-17c0-0.275-0.225-0.5-0.5-0.5z"></path>
</svg>
