<!-- Generated by IcoMoon.io -->
<svg version="1.1" xmlns="http://www.w3.org/2000/svg" width="40" height="32" viewBox="0 0 40 32">
<title>scanner</title>
<path d="M23 4h-16c-3.869 0-7 3.131-7 7 0 3.144 2.081 5.769 4.931 6.656l-4.531 7.844c-0.831 1.438-0.338 3.269 1.1 4.1l3.462 2c0.475 0.275 0.987 0.4 1.5 0.4 1.037 0 2.044-0.538 2.6-1.5l3.75-6.5h4.188c1.656 0 3-1.344 3-3v-3h3c0.55 0 1-0.45 1-1v-12c0-0.55-0.45-1-1-1zM7.331 29.5c-0.181 0.313-0.506 0.5-0.869 0.5-0.175 0-0.344-0.044-0.5-0.137l-3.462-2c-0.313-0.181-0.425-0.456-0.469-0.606s-0.081-0.444 0.1-0.756l4.906-8.5h6.925l-6.631 11.5zM18 21c0 0.55-0.45 1-1 1h-3.031l2.313-4h1.719v3zM22 16h-15c-2.756 0-5-2.244-5-5s2.244-5 5-5h15v10zM39.5 28h-11c-0.275 0-0.5 0.225-0.5 0.5v3c0 0.275 0.225 0.5 0.5 0.5h11c0.275 0 0.5-0.225 0.5-0.5v-3c0-0.275-0.225-0.5-0.5-0.5zM39.5 4h-11c-0.275 0-0.5 0.225-0.5 0.5v3c0 0.275 0.225 0.5 0.5 0.5h11c0.275 0 0.5-0.225 0.5-0.5v-3c0-0.275-0.225-0.5-0.5-0.5zM39.5 22h-11c-0.275 0-0.5 0.225-0.5 0.5v1c0 0.275 0.225 0.5 0.5 0.5h11c0.275 0 0.5-0.225 0.5-0.5v-1c0-0.275-0.225-0.5-0.5-0.5zM39.5 10h-11c-0.275 0-0.5 0.225-0.5 0.5v3c0 0.275 0.225 0.5 0.5 0.5h11c0.275 0 0.5-0.225 0.5-0.5v-3c0-0.275-0.225-0.5-0.5-0.5zM39.5 0h-11c-0.275 0-0.5 0.225-0.5 0.5v1c0 0.275 0.225 0.5 0.5 0.5h11c0.275 0 0.5-0.225 0.5-0.5v-1c0-0.275-0.225-0.5-0.5-0.5zM39.5 18h-11c-0.275 0-0.5 0.225-0.5 0.5v1c0 0.275 0.225 0.5 0.5 0.5h11c0.275 0 0.5-0.225 0.5-0.5v-1c0-0.275-0.225-0.5-0.5-0.5z"></path>
</svg>
