<!-- Generated by IcoMoon.io -->
<svg version="1.1" xmlns="http://www.w3.org/2000/svg" width="40" height="32" viewBox="0 0 40 32">
<title>scanner-image</title>
<path d="M5 25.5h2c0.276 0 0.5-0.224 0.5-0.5v0-2c0-0.276-0.224-0.5-0.5-0.5v0h-2c-0.276 0-0.5 0.224-0.5 0.5v0 2c0 0.276 0.224 0.5 0.5 0.5v0zM11 25.5h2c0.276 0 0.5-0.224 0.5-0.5v0-2c0-0.276-0.224-0.5-0.5-0.5v0h-2c-0.276 0-0.5 0.224-0.5 0.5v0 2c0 0.276 0.224 0.5 0.5 0.5v0zM38.793 16.82l-37.698-14.779c-0.058-0.026-0.127-0.041-0.199-0.041-0.204 0-0.38 0.123-0.458 0.298l-0.001 0.003-0.396 0.918c-0.025 0.058-0.040 0.125-0.040 0.196 0 0.204 0.122 0.38 0.298 0.457l36.028 14.126h-34.326c-1.105 0-2 0.895-2 2v0 8c0 1.105 0.895 2 2 2v0h36c1.105 0 2-0.895 2-2v0-9.344c-0.001-0.817-0.492-1.52-1.194-1.831l-0.013-0.005zM38 24v4h-36v-8h36z"></path>
</svg>
