<!-- Generated by IcoMoon.io -->
<svg version="1.1" xmlns="http://www.w3.org/2000/svg" width="32" height="32" viewBox="0 0 32 32">
<title>scarf</title>
<path d="M31.856 24.731l-8.95-8.919 1.506-1.544c3.038-3.356 0.813-7.081 0.719-7.237l-2.725-4.569c-0.269-0.45-0.619-0.831-1.050-1.125-1.35-0.906-3.337-1.337-5.319-1.337h-0.075c-1.981 0-3.975 0.431-5.325 1.344-0.431 0.294-0.781 0.675-1.050 1.125l-2.725 4.569c-0.094 0.156-2.319 3.881 0.719 7.238l1.506 1.544-4.644 4.637-4.3 4.275c-0.194 0.194-0.194 0.512 0 0.706l0.706 0.706c0.194 0.194 0.512 0.194 0.706 0l4.3-4.288 1.412 1.413-4.3 4.288c-0.194 0.194-0.194 0.512 0 0.706l0.706 0.706c0.194 0.194 0.513 0.194 0.706 0l4.3-4.288 1.406 1.406-4.294 4.356c-0.194 0.194-0.194 0.512 0 0.706l0.706 0.706c0.194 0.194 0.513 0.194 0.706 0l8.794-8.981 8.781 8.981c0.194 0.194 0.512 0.194 0.706 0l0.706-0.706c0.194-0.194 0.194-0.512 0-0.706l-4.294-4.356 1.406-1.406 4.3 4.288c0.194 0.194 0.512 0.194 0.706 0l0.706-0.706c0.194-0.194 0.194-0.512 0-0.706l-4.3-4.288 1.413-1.413 4.3 4.288c0.194 0.194 0.512 0.194 0.706 0l0.706-0.706c0.206-0.194 0.206-0.506 0.012-0.706zM11.5 24.663l-4.219-4.212 3.213-3.206 4.125 4.219-3.119 3.2zM20.5 24.663l-11.431-11.738c-1.994-2.2-0.65-4.6-0.481-4.869l2.725-4.563c0.688-1.156 3.269-1.494 4.65-1.494h0.075c1.381 0 3.962 0.337 4.656 1.488l2.725 4.563c0.163 0.269 1.506 2.669-0.481 4.869l-1.438 1.475-4.081-4.075 2.613-2.606c0.512-0.513 0.706-1.263 0.512-1.962-0.2-0.7-0.762-1.231-1.469-1.4-1.119-0.263-2.137-0.331-3.069-0.325-0.925 0-1.944 0.063-3.069 0.325-0.706 0.162-1.269 0.7-1.469 1.4s-0.006 1.45 0.512 1.963l12.744 12.731-4.225 4.219zM13.387 6.306c0.713-0.169 1.613-0.281 2.613-0.287 1 0 1.9 0.119 2.613 0.287l-2.613 2.606-2.613-2.606z"></path>
</svg>
