<!-- Generated by IcoMoon.io -->
<svg version="1.1" xmlns="http://www.w3.org/2000/svg" width="32" height="32" viewBox="0 0 32 32">
<title>scarf-solid</title>
<path d="M13.387 6.306c2.306-0.537 4.256-0.231 5.275 0.013l-1.219 1.212 6.863 6.85c2.913-3.231 1.275-6.581 0.825-7.331l-2.731-4.588c-0.269-0.45-0.619-0.831-1.050-1.125-2.538-1.719-7.956-1.85-10.706 0.006-0.431 0.294-0.781 0.675-1.050 1.125l-2.725 4.569c-0.094 0.156-2.319 3.881 0.719 7.237l8.444 8.794 7.069-7.069-9.713-9.694zM10.375 20.231l-7.4 7.387c-0.194 0.194-0.194 0.512 0 0.706l0.706 0.706c0.194 0.194 0.513 0.194 0.706 0l7.4-7.387-1.412-1.413zM7.544 17.413l-7.4 7.381c-0.194 0.194-0.194 0.512 0 0.706l0.706 0.706c0.194 0.194 0.512 0.194 0.706 0l7.4-7.387-1.412-1.406zM5.806 30.444c-0.194 0.194-0.194 0.512 0 0.706l0.706 0.706c0.194 0.194 0.513 0.194 0.706 0l7.4-7.387-1.412-1.413-7.4 7.387zM18.863 23.056l-1.413 1.413 7.338 7.325c0.194 0.194 0.512 0.194 0.706 0l0.706-0.706c0.194-0.194 0.194-0.512 0-0.706l-7.337-7.325zM31.856 24.731l-7.338-7.319-1.413 1.413 7.331 7.319c0.194 0.194 0.512 0.194 0.706 0l0.706-0.706c0.2-0.194 0.2-0.506 0.006-0.706zM21.688 20.231l-1.413 1.413 7.337 7.325c0.194 0.194 0.512 0.194 0.706 0l0.706-0.706c0.194-0.194 0.194-0.512 0-0.706l-7.337-7.325z"></path>
</svg>
