<!-- Generated by IcoMoon.io -->
<svg version="1.1" xmlns="http://www.w3.org/2000/svg" width="28" height="32" viewBox="0 0 28 32">
<title>scarecrow-solid</title>
<path d="M14 28.006c-0.481 0-0.963-0.119-1.387-0.344l-0.613-0.325v3.663c0 0.55 0.45 1 1 1h2c0.55 0 1-0.45 1-1v-3.669l-0.613 0.325c-0.425 0.231-0.906 0.35-1.387 0.35zM27.856 11.644l-1.65-1.644 1.144-1.144c0.313-0.313 0.094-0.856-0.356-0.856h-7.363c0.225-0.625 0.369-1.294 0.369-2 0-3.313-2.688-6-6-6s-6 2.688-6 6c0 0.706 0.144 1.375 0.369 2h-7.369c-0.444 0-0.669 0.538-0.356 0.856l1.15 1.144-1.65 1.644c-0.194 0.194-0.194 0.512 0 0.706l1.65 1.65-1.144 1.144c-0.313 0.313-0.094 0.856 0.356 0.856h6.631l-1.625 8.831c-0.131 0.806 0.7 1.425 1.431 1.056l2.044-1.512c0.313-0.231 0.725-0.262 1.069-0.081l2.994 1.594c0.281 0.15 0.613 0.15 0.894 0l2.994-1.594c0.344-0.181 0.756-0.15 1.069 0.081l2.044 1.512c0.731 0.369 1.569-0.25 1.431-1.056l-1.613-8.831h6.631c0.444 0 0.669-0.537 0.356-0.856l-1.15-1.144 1.644-1.644c0.2-0.2 0.2-0.512 0.006-0.713zM12 6c-0.55 0-1-0.45-1-1s0.45-1 1-1 1 0.45 1 1-0.45 1-1 1zM16 7c-0.55 0-1-0.45-1-1s0.45-1 1-1 1 0.45 1 1-0.45 1-1 1z"></path>
</svg>
