<!-- Generated by IcoMoon.io -->
<svg version="1.1" xmlns="http://www.w3.org/2000/svg" width="28" height="32" viewBox="0 0 28 32">
<title>scarecrow</title>
<path d="M16 7.5c0.55 0 1-0.45 1-1s-0.45-1-1-1-1 0.45-1 1 0.45 1 1 1zM12 6.5c0.55 0 1-0.45 1-1s-0.45-1-1-1-1 0.45-1 1 0.45 1 1 1zM27.856 11.644l-1.65-1.644 1.144-1.144c0.313-0.313 0.094-0.856-0.356-0.856h-6.994v-2c0-3.313-2.688-6-6-6s-6 2.688-6 6v2h-7c-0.444 0-0.669 0.538-0.356 0.856l1.15 1.144-1.65 1.644c-0.194 0.194-0.194 0.512 0 0.706l1.65 1.65-1.144 1.144c-0.313 0.313-0.094 0.856 0.356 0.856h6.631l-1.625 8.831c-0.131 0.794 0.694 1.431 1.431 1.056l2.044-1.512c0.569-0.425 1.063-0.081 1.506 0.156v6.469c0 0.55 0.45 1 1 1h4c0.55 0 1-0.45 1-1v-6.469c0.475-0.25 0.944-0.575 1.506-0.156l2.044 1.512c0.744 0.375 1.563-0.269 1.431-1.056l-1.606-8.831h6.631c0.444 0 0.669-0.537 0.356-0.856l-1.15-1.144 1.644-1.644c0.2-0.2 0.2-0.512 0.006-0.713zM10 6c0-2.206 1.794-4 4-4s4 1.794 4 4v2c0 1.1-0.9 2-2 2h-4c-1.1 0-2-0.9-2-2zM15 30h-2v-4.4c0.575 0.306 0.7 0.406 1 0.406 0.294 0 0.406-0.094 1-0.406zM23.381 14h-5.413l1.587 8.669c-0.488-0.319-1.056-0.488-1.644-0.488-0.494 0-0.981 0.125-1.413 0.35l-2.5 1.331-2.5-1.331c-0.438-0.231-0.919-0.35-1.412-0.35-0.588 0-1.156 0.169-1.644 0.488l1.588-8.669h-5.412l-2-2 2-2h3.931c0.694 1.188 1.969 2 3.444 2h4c1.475 0 2.75-0.813 3.444-2h3.938l2 2z"></path>
</svg>
