<!-- Generated by IcoMoon.io -->
<svg version="1.1" xmlns="http://www.w3.org/2000/svg" width="40" height="32" viewBox="0 0 40 32">
<title>school</title>
<path d="M22 12h-1v-2c0-0.276-0.224-0.5-0.5-0.5h-1c-0.276 0-0.5 0.224-0.5 0.5v3.5c0 0.276 0.224 0.5 0.5 0.5h2.5c0.276 0 0.5-0.224 0.5-0.5v-1c0-0.276-0.224-0.5-0.5-0.5zM23 20h-6c-1.657 0-3 1.343-3 3v8.5c0 0.276 0.224 0.5 0.5 0.5h1c0.276 0 0.5-0.224 0.5-0.5v-8.5c0-0.552 0.448-1 1-1h6c0.552 0 1 0.448 1 1v8.5c0 0.276 0.224 0.5 0.5 0.5h1c0.276 0 0.5-0.224 0.5-0.5v-8.5c0-1.657-1.343-3-3-3zM38 12h-6v-3.334c0-0.669-0.334-1.293-0.891-1.664l-10-6.667c-0.336-0.224-0.723-0.336-1.109-0.336s-0.774 0.112-1.109 0.336l-10 6.667c-0.54 0.364-0.89 0.973-0.891 1.664v3.333h-6c-1.104 0-2 0.896-2 2v17.5c0 0.276 0.224 0.5 0.5 0.5h1c0.276 0 0.5-0.224 0.5-0.5v-17.5h6v17.5c0 0.276 0.224 0.5 0.5 0.5h1c0.276 0 0.5-0.224 0.5-0.5v-22.833l10-6.667 10 6.667v22.833c0 0.276 0.224 0.5 0.5 0.5h1c0.276 0 0.5-0.224 0.5-0.5v-17.5h6v17.5c0 0.276 0.224 0.5 0.5 0.5h1c0.276 0 0.5-0.224 0.5-0.5v-17.5c0-1.104-0.896-2-2-2zM20 6c-3.309 0-6 2.691-6 6s2.691 6 6 6 6-2.691 6-6-2.691-6-6-6zM20 16c-2.205 0-4-1.794-4-4s1.795-4 4-4 4 1.794 4 4-1.795 4-4 4z"></path>
</svg>
