<!-- Generated by IcoMoon.io -->
<svg version="1.1" xmlns="http://www.w3.org/2000/svg" width="40" height="32" viewBox="0 0 40 32">
<title>school-solid</title>
<path d="M0 14v17c0 0.552 0.448 1 1 1h5v-20h-4c-1.104 0-2 0.896-2 2zM22.5 11h-1.5v-2.5c0-0.276-0.224-0.5-0.5-0.5h-1c-0.276 0-0.5 0.224-0.5 0.5v4c0 0.276 0.224 0.5 0.5 0.5h3c0.276 0 0.5-0.224 0.5-0.5v-1c0-0.276-0.224-0.5-0.5-0.5zM31.109 7.003l-10-6.667c-0.312-0.21-0.696-0.336-1.109-0.336s-0.798 0.125-1.116 0.34l0.007-0.005-10 6.667c-0.54 0.364-0.89 0.973-0.891 1.664v23.334h8v-9c0-0.552 0.448-1 1-1h6c0.552 0 1 0.448 1 1v9h8v-23.333c0-0.669-0.334-1.294-0.891-1.664zM20 16c-2.761 0-5-2.239-5-5s2.239-5 5-5 5 2.239 5 5-2.239 5-5 5zM38 12h-4v20h5c0.553 0 1-0.448 1-1v-17c0-1.104-0.896-2-2-2z"></path>
</svg>
