<!-- Generated by IcoMoon.io -->
<svg version="1.1" xmlns="http://www.w3.org/2000/svg" width="32" height="32" viewBox="0 0 32 32">
<title>screwdriver</title>
<path d="M26 12l6-8-4-4-8 6v4.586l-6.156 6.156c-0.765-0.491-1.64-0.741-2.517-0.741-1.196 0-2.391 0.456-3.304 1.368l-7.339 7.339c-0.912 0.913-0.912 2.392 0 3.304l3.304 3.304c0.456 0.456 1.054 0.684 1.652 0.684s1.196-0.228 1.652-0.684l7.339-7.339c1.581-1.581 1.787-4.012 0.627-5.821l6.156-6.156h4.586zM22 7l5.813-4.359 1.547 1.547-4.359 5.813h-3v-3zM13.213 22.558l-7.339 7.34c-0.059 0.060-0.141 0.097-0.231 0.097-0.001 0-0.002 0-0.003 0h0c-0.063 0-0.154-0.017-0.234-0.097l-3.303-3.304c-0.060-0.060-0.097-0.143-0.097-0.234s0.037-0.174 0.097-0.234v0l7.339-7.339c0.504-0.504 1.173-0.781 1.886-0.781s1.382 0.277 1.886 0.781c1.039 1.039 1.039 2.731-0.001 3.771z"></path>
</svg>
