<!-- Generated by IcoMoon.io -->
<svg version="1.1" xmlns="http://www.w3.org/2000/svg" width="40" height="32" viewBox="0 0 40 32">
<title>scroll</title>
<path d="M38 22h-4v-15c0-3.859-3.141-7-7-7h-22c-2.757 0-5 2.243-5 5v5c0 1.102 0.896 2 2 2h6v14c0 3.194 2.516 5.789 5.666 5.966v0.034h19.5c3.767 0 6.834-3.066 6.834-6.833v-1.167c0-1.102-0.896-2-2-2zM8 10h-6v-5c0-1.654 1.346-3 3-3s3 1.346 3 3v5zM18 26c0 2.206-1.795 4-4 4s-4-1.794-4-4v-21c0-1.125-0.373-2.164-1.002-3h18.002c2.758 0 5 2.243 5 5v15h-12c-1.104 0-2 0.898-2 2v2zM38 25.167c0 2.665-2.168 4.833-4.834 4.833h-14.727c0.959-1.064 1.561-2.457 1.561-4v-2h18v1.167z"></path>
</svg>
