<!-- Generated by IcoMoon.io -->
<svg version="1.1" xmlns="http://www.w3.org/2000/svg" width="40" height="32" viewBox="0 0 40 32">
<title>scroll-old</title>
<path d="M38.5 22h-4.5v-4.586l-1.414-1.414 1.414-1.414v-5.172l-1.414-1.414 1.391-1.393-0.061-0.486c-0.442-3.49-3.414-6.122-6.916-6.122h-22c-2.757 0-5 2.243-5 5v5.5c0 0.827 0.674 1.5 1.5 1.5h6.5v2.586l1.414 1.414-1.414 1.414v8.301c0 3.205 2.365 5.952 5.385 6.255 0.094 0.009 0.188 0.009 0.281 0.014v0.016h19.5c3.767 0 6.834-3.066 6.834-6.833v-1.667c0-0.827-0.674-1.5-1.5-1.5zM8 10h-6v-5c0-1.654 1.346-3 3-3s3 1.346 3 3v5zM10 25.715v-7.473l2.242-2.242-2.242-2.242v-8.758c0-1.125-0.373-2.164-1.002-3h18.002c2.338 0 4.348 1.649 4.849 3.906l-2.092 2.094 2.242 2.242v3.516l-2.242 2.242 2.242 2.242v3.758h-4.586l-1.414 1.414-1.414-1.414h-4.586c-1.104 0-2 0.898-2 2v2c0 1.128-0.481 2.209-1.316 2.967-0.849 0.769-1.945 1.131-3.099 1.012-2.010-0.201-3.584-2.074-3.584-4.264zM38 25.167c0 2.665-2.168 4.833-4.834 4.833h-14.739c0.989-1.097 1.573-2.511 1.573-4v-2h3.758l2.242 2.242 2.242-2.242h9.758v1.167z"></path>
</svg>
