<!-- Generated by IcoMoon.io -->
<svg version="1.1" xmlns="http://www.w3.org/2000/svg" width="40" height="32" viewBox="0 0 40 32">
<title>scroll-old-solid</title>
<path d="M3 0c-1.654 0-3 1.346-3 3v4c0 0.553 0.448 1 1 1h5v-5c0-1.654-1.346-3-3-3zM16 25.786v-3.786h18v-3.586c0-0.265-0.106-0.519-0.293-0.707l-1.707-1.707 1.707-1.707c0.188-0.188 0.293-0.442 0.293-0.707v-3.172c0-0.265-0.106-0.519-0.293-0.707l-1.707-1.707 1.679-1.679c0.204-0.204 0.326-0.49 0.304-0.778-0.234-3.096-2.828-5.543-5.983-5.543h-21.026c0.634 0.838 1.026 1.87 1.026 3v8.586c0 0.265 0.106 0.519 0.293 0.707l1.707 1.707-1.707 1.707c-0.188 0.188-0.293 0.442-0.293 0.707v9.586c0 2.429 2.166 4.353 4.672 3.945 1.967-0.32 3.328-2.166 3.328-4.159zM27.707 24.293l-1.707 1.707-1.707-1.707c-0.188-0.188-0.442-0.293-0.707-0.293h-5.586v2c0 3.308-2.691 6-6 6h21c3.866 0 7-3.134 7-7 0-0.552-0.447-1-1-1h-10.586c-0.266 0-0.52 0.106-0.707 0.293z"></path>
</svg>
