<!-- Generated by IcoMoon.io -->
<svg version="1.1" xmlns="http://www.w3.org/2000/svg" width="31" height="32" viewBox="0 0 31 32">
<title>scrubber</title>
<path d="M15.5 2.5c7.456 0 13.5 6.037 13.5 13.5 0 7.456-6.038 13.5-13.5 13.5-7.456 0-13.5-6.038-13.5-13.5 0-7.456 6.037-13.5 13.5-13.5zM15.5 0.5c-8.563 0-15.5 6.938-15.5 15.5s6.938 15.5 15.5 15.5 15.5-6.938 15.5-15.5-6.938-15.5-15.5-15.5zM15.5 14c1.1 0 2 0.9 2 2s-0.9 2-2 2-2-0.9-2-2 0.9-2 2-2zM15.5 12c-2.206 0-4 1.794-4 4s1.794 4 4 4 4-1.794 4-4-1.794-4-4-4z"></path>
</svg>
