<!-- Generated by IcoMoon.io -->
<svg version="1.1" xmlns="http://www.w3.org/2000/svg" width="40" height="32" viewBox="0 0 40 32">
<title>scythe-solid</title>
<path d="M38 0h-1.591l-3.734 18h-7.676c-0.552 0-1 0.448-1 1v0 2c0 0.552 0.448 1 1 1v0h6.846l-1.829 8.816c-0.011 0.055-0.017 0.119-0.017 0.184 0 0.552 0.448 1 1 1h1.966c0 0 0 0 0 0 0.486 0 0.891-0.347 0.981-0.806l0.001-0.006 6.017-28.813c0.023-0.113 0.035-0.242 0.035-0.375 0-1.105-0.895-2-2-2-0 0-0 0-0.001 0h0zM34.367 0h-13.188c-9.179 0-17.179 4-21.179 12h31.875z"></path>
</svg>
