<!-- Generated by IcoMoon.io -->
<svg version="1.1" xmlns="http://www.w3.org/2000/svg" width="40" height="32" viewBox="0 0 40 32">
<title>scythe</title>
<path d="M38 0h-16.823c-9.178 0-17.177 4-21.177 14h35.011l-0.816 4h-9.695c-0.276 0-0.5 0.224-0.5 0.5v0 1c0 0.276 0.224 0.5 0.5 0.5v0h9.288l-2.284 11.194c-0.007 0.031-0.011 0.066-0.011 0.102 0 0.24 0.169 0.441 0.395 0.489l0.003 0.001 0.978 0.204c0.030 0.007 0.065 0.011 0.1 0.011 0.001 0 0.001 0 0.002 0h-0c0.24-0 0.44-0.169 0.488-0.395l0.001-0.003 6.491-29.164c0.031-0.131 0.048-0.282 0.048-0.438 0-1.104-0.895-2-2-2h-0zM35.774 12h-32.624c4.514-8.184 12.146-10 18.027-10h16.823z"></path>
</svg>
