<!-- Generated by IcoMoon.io -->
<svg version="1.1" xmlns="http://www.w3.org/2000/svg" width="32" height="32" viewBox="0 0 32 32">
<title>search</title>
<path d="M31.781 30.1l-8.063-8.063c-0.144-0.144-0.331-0.219-0.531-0.219h-0.644c2.144-2.319 3.456-5.413 3.456-8.819 0-7.181-5.819-13-13-13s-13 5.819-13 13 5.819 13 13 13c3.406 0 6.5-1.313 8.819-3.45v0.637c0 0.2 0.081 0.387 0.219 0.531l8.063 8.063c0.294 0.294 0.769 0.294 1.063 0l0.619-0.619c0.294-0.294 0.294-0.769 0-1.063zM13 24c-6.081 0-11-4.919-11-11s4.919-11 11-11 11 4.919 11 11-4.919 11-11 11z"></path>
</svg>
