<!-- Generated by IcoMoon.io -->
<svg version="1.1" xmlns="http://www.w3.org/2000/svg" width="32" height="32" viewBox="0 0 32 32">
<title>search-dollar</title>
<path d="M14.693 12.464l-2.813-0.844c-0.322-0.097-0.548-0.424-0.548-0.796 0-0.454 0.331-0.824 0.738-0.824h1.757c0.285 0 0.56 0.081 0.801 0.232 0.203 0.127 0.46 0.119 0.633-0.046l0.734-0.701c0.221-0.211 0.208-0.576-0.036-0.759-0.569-0.427-1.255-0.673-1.961-0.709v-1.018c0-0.276-0.224-0.5-0.5-0.5h-1c-0.276 0-0.5 0.224-0.5 0.5v1.008c-1.476 0.039-2.667 1.284-2.667 2.817 0 1.248 0.811 2.363 1.974 2.712l2.813 0.844c0.322 0.097 0.548 0.424 0.548 0.796 0 0.454-0.331 0.824-0.738 0.824h-1.757c-0.285 0-0.56-0.081-0.801-0.232-0.203-0.127-0.46-0.119-0.633 0.046l-0.734 0.701c-0.221 0.211-0.208 0.576 0.036 0.759 0.569 0.427 1.255 0.673 1.961 0.709v1.018c0 0.276 0.224 0.5 0.5 0.5h1c0.276 0 0.5-0.224 0.5-0.5v-1.008c1.476-0.039 2.667-1.284 2.667-2.817 0-1.248-0.811-2.363-1.974-2.712zM31.779 30.099l-8.062-8.063c-0.144-0.144-0.331-0.219-0.531-0.219h-0.644c2.144-2.319 3.456-5.412 3.456-8.818 0-7.181-5.819-12.999-12.999-12.999s-12.999 5.819-12.999 12.999c0 7.181 5.819 12.999 12.999 12.999 3.406 0 6.499-1.313 8.818-3.45v0.637c0 0.2 0.081 0.387 0.219 0.531l8.062 8.062c0.294 0.294 0.769 0.294 1.063 0l0.619-0.619c0.294-0.293 0.294-0.768 0-1.062zM12.999 23.999c-6.081 0-10.999-4.918-10.999-10.999s4.919-10.999 10.999-10.999 10.999 4.919 10.999 10.999c0 6.081-4.918 10.999-10.999 10.999z"></path>
</svg>
