<!-- Generated by IcoMoon.io -->
<svg version="1.1" xmlns="http://www.w3.org/2000/svg" width="32" height="32" viewBox="0 0 32 32">
<title>search-plus-solid</title>
<path d="M19 12v2c0 0.412-0.337 0.75-0.75 0.75h-3.5v3.5c0 0.413-0.338 0.75-0.75 0.75h-2c-0.412 0-0.75-0.337-0.75-0.75v-3.5h-3.5c-0.412 0-0.75-0.338-0.75-0.75v-2c0-0.412 0.338-0.75 0.75-0.75h3.5v-3.5c0-0.412 0.338-0.75 0.75-0.75h2c0.412 0 0.75 0.338 0.75 0.75v3.5h3.5c0.413 0 0.75 0.338 0.75 0.75zM31.563 29.794l-1.769 1.769c-0.587 0.587-1.538 0.587-2.119 0l-6.238-6.231c-0.281-0.281-0.438-0.663-0.438-1.063v-1.019c-2.206 1.725-4.981 2.75-8 2.75-7.181 0-13-5.819-13-13s5.819-13 13-13 13 5.819 13 13c0 3.019-1.025 5.794-2.75 8h1.019c0.4 0 0.781 0.156 1.063 0.438l6.231 6.231c0.581 0.587 0.581 1.538 0 2.125zM21.5 13c0-4.7-3.8-8.5-8.5-8.5s-8.5 3.8-8.5 8.5 3.8 8.5 8.5 8.5 8.5-3.8 8.5-8.5z"></path>
</svg>
