<!-- Generated by IcoMoon.io -->
<svg version="1.1" xmlns="http://www.w3.org/2000/svg" width="32" height="32" viewBox="0 0 32 32">
<title>search-location</title>
<path d="M13 6c-3.096 0-5.613 2.519-5.613 5.614 0 2.166 2.396 5.45 4.408 7.825 0.301 0.356 0.74 0.561 1.205 0.561s0.904-0.204 1.207-0.561c2.010-2.375 4.406-5.659 4.406-7.825 0-3.096-2.518-5.614-5.613-5.614zM13 17.764c-2.207-2.669-3.613-5.056-3.613-6.151 0-1.993 1.621-3.614 3.613-3.614s3.613 1.621 3.613 3.614c0 1.095-1.406 3.482-3.613 6.151zM13 10c-0.828 0-1.5 0.671-1.5 1.5s0.672 1.5 1.5 1.5 1.5-0.672 1.5-1.5c0-0.829-0.672-1.5-1.5-1.5zM31.779 30.099l-8.062-8.063c-0.144-0.144-0.331-0.219-0.531-0.219h-0.644c2.144-2.319 3.456-5.412 3.456-8.818 0-7.181-5.819-12.999-12.999-12.999s-12.999 5.819-12.999 12.999c0 7.181 5.819 12.999 12.999 12.999 3.406 0 6.499-1.313 8.818-3.45v0.637c0 0.2 0.081 0.387 0.219 0.531l8.062 8.062c0.294 0.294 0.769 0.294 1.063 0l0.619-0.619c0.294-0.293 0.294-0.768 0-1.062zM12.999 23.999c-6.081 0-10.999-4.918-10.999-10.999s4.919-10.999 10.999-10.999 10.999 4.919 10.999 10.999c0 6.081-4.918 10.999-10.999 10.999z"></path>
</svg>
