<!-- Generated by IcoMoon.io -->
<svg version="1.1" xmlns="http://www.w3.org/2000/svg" width="32" height="32" viewBox="0 0 32 32">
<title>search-location-solid</title>
<path d="M31.565 27.666l-6.232-6.231c-0.281-0.281-0.663-0.438-1.063-0.438h-1.019c1.725-2.206 2.75-4.981 2.75-7.999 0-7.181-5.819-12.999-13.001-12.999s-13.001 5.818-13.001 12.999 5.819 12.999 13.001 12.999c3.019 0 5.794-1.025 8.001-2.75v1.019c0 0.4 0.156 0.781 0.438 1.063l6.232 6.231c0.587 0.587 1.538 0.587 2.119 0l1.769-1.769c0.588-0.587 0.588-1.537 0.006-2.124zM13.001 21.997c-4.971 0-9-4.021-9-8.999 0-4.971 4.022-8.999 9-8.999 4.971 0 9 4.021 9 8.999 0 4.971-4.022 8.999-9 8.999zM13.002 7c-2.549 0-4.615 2.066-4.615 4.614 0 2.060 3.016 5.816 4.172 7.179 0.107 0.127 0.266 0.207 0.443 0.207s0.336-0.080 0.442-0.206l0.001-0.001c1.156-1.363 4.172-5.118 4.172-7.179 0-2.549-2.066-4.614-4.615-4.614zM13.002 13c-0.829 0-1.5-0.672-1.5-1.5s0.672-1.5 1.5-1.5 1.5 0.671 1.5 1.5c0 0.828-0.672 1.5-1.5 1.5z"></path>
</svg>
