<!-- Generated by IcoMoon.io -->
<svg version="1.1" xmlns="http://www.w3.org/2000/svg" width="32" height="32" viewBox="0 0 32 32">
<title>search-dollar-solid</title>
<path d="M31.565 27.666l-6.232-6.231c-0.281-0.281-0.663-0.438-1.063-0.438h-1.019c1.725-2.206 2.75-4.981 2.75-7.999 0-7.181-5.819-12.999-13.001-12.999s-13.001 5.818-13.001 12.999 5.819 12.999 13.001 12.999c3.019 0 5.794-1.025 8.001-2.75v1.019c0 0.4 0.156 0.781 0.438 1.063l6.232 6.231c0.587 0.587 1.538 0.587 2.119 0l1.769-1.769c0.588-0.587 0.588-1.537 0.006-2.124zM13.001 21.997c-4.971 0-9-4.021-9-8.999 0-4.971 4.022-8.999 9-8.999 4.971 0 9 4.021 9 8.999 0 4.971-4.022 8.999-9 8.999zM14.696 12.464l-2.813-0.844c-0.322-0.097-0.548-0.424-0.548-0.796 0-0.454 0.331-0.824 0.738-0.824h1.757c0.285 0 0.56 0.081 0.801 0.232 0.203 0.127 0.46 0.119 0.633-0.046l0.734-0.701c0.221-0.211 0.208-0.576-0.036-0.759-0.569-0.427-1.255-0.673-1.961-0.709v-1.018c0-0.276-0.224-0.5-0.5-0.5h-1c-0.276 0-0.5 0.224-0.5 0.5v1.008c-1.477 0.039-2.668 1.284-2.668 2.817 0 1.248 0.812 2.363 1.974 2.712l2.813 0.844c0.322 0.097 0.548 0.424 0.548 0.796 0 0.454-0.331 0.824-0.738 0.824h-1.756c-0.285 0-0.56-0.081-0.801-0.232-0.203-0.127-0.46-0.119-0.633 0.046l-0.734 0.701c-0.221 0.211-0.208 0.576 0.036 0.759 0.569 0.427 1.255 0.673 1.961 0.709v1.018c0 0.276 0.224 0.5 0.5 0.5h1c0.276 0 0.5-0.224 0.5-0.5v-1.008c1.477-0.039 2.668-1.284 2.668-2.817 0-1.248-0.812-2.363-1.974-2.712z"></path>
</svg>
