<!-- Generated by IcoMoon.io -->
<svg version="1.1" xmlns="http://www.w3.org/2000/svg" width="32" height="32" viewBox="0 0 32 32">
<title>search-plus</title>
<path d="M19.988 12.75v0.5c0 0.412-0.337 0.75-0.75 0.75h-5.25v5.25c0 0.413-0.338 0.75-0.75 0.75h-0.5c-0.412 0-0.75-0.337-0.75-0.75v-5.25h-5.25c-0.412 0-0.75-0.338-0.75-0.75v-0.5c0-0.412 0.338-0.75 0.75-0.75h5.25v-5.25c0-0.412 0.338-0.75 0.75-0.75h0.5c0.412 0 0.75 0.338 0.75 0.75v5.25h5.25c0.413 0 0.75 0.338 0.75 0.75zM31.769 31.063l-0.706 0.706c-0.294 0.294-0.769 0.294-1.063 0l-8.063-8.063c-0.144-0.144-0.219-0.331-0.219-0.531v-0.531c-2.306 2.087-5.363 3.356-8.719 3.356-7.138 0-12.906-5.694-13-12.831-0.094-7.313 5.856-13.262 13.169-13.169 7.137 0.094 12.831 5.862 12.831 13 0 3.356-1.269 6.413-3.356 8.719h0.531c0.2 0 0.387 0.081 0.531 0.219l8.063 8.063c0.294 0.294 0.294 0.769 0 1.063zM24 13c0-6.081-4.919-11-11-11s-11 4.919-11 11 4.919 11 11 11 11-4.919 11-11z"></path>
</svg>
