<!-- Generated by IcoMoon.io -->
<svg version="1.1" xmlns="http://www.w3.org/2000/svg" width="32" height="32" viewBox="0 0 32 32">
<title>seedling</title>
<path d="M27.669 2c-5.994 0-11.025 4.963-12.325 11.606-2.188-4.537-6.294-7.606-11.012-7.606h-4.331v1c0 8.269 5.681 15 12.669 15h2.331v7.5c0 0.275 0.225 0.5 0.5 0.5h1c0.275 0 0.5-0.225 0.5-0.5v-11.5h2.331c6.988 0 12.669-6.731 12.669-15v-1h-4.331zM12.669 20c-5.606 0-10.219-5.3-10.637-12h2.3c5.606 0 10.212 5.3 10.637 12h-2.3zM19.331 16h-2.3c0.419-6.7 5.031-12 10.637-12h2.3c-0.419 6.7-5.031 12-10.637 12z"></path>
</svg>
