<!-- Generated by IcoMoon.io -->
<svg version="1.1" xmlns="http://www.w3.org/2000/svg" width="40" height="32" viewBox="0 0 40 32">
<title>send-back</title>
<path d="M10.938 4h-6c-0.552 0-1 0.448-1 1v0 6c0 0.552 0.448 1 1 1v0h6c0.552 0 1-0.448 1-1v0-6c0-0.552-0.448-1-1-1v0zM9.938 10h-4v-4h4zM27.938 9v5h2v-5c0-1.657-1.343-3-3-3v0h-9v2h9c0.552 0 1 0.448 1 1v0zM34.938 20h-6c-0.552 0-1 0.448-1 1v0 6c0 0.552 0.448 1 1 1v0h6c0.552 0 1-0.448 1-1v0-6c0-0.552-0.448-1-1-1v0zM33.938 26h-4v-4h4zM36.938 16h-10c-1.657 0-3 1.343-3 3v0 10c0 1.657 1.343 3 3 3v0h10c1.657 0 3-1.343 3-3v0-10c0-1.657-1.343-3-3-3v0zM37.938 29c0 0.552-0.448 1-1 1v0h-10c-0.552 0-1-0.448-1-1v0-10c0-0.552 0.448-1 1-1v0h10c0.552 0 1 0.448 1 1v0zM11.938 23v-5h-2v5c0 1.657 1.343 3 3 3v0h9v-2h-9c-0.552 0-1-0.448-1-1v0zM15.938 13v-10c0-1.657-1.343-3-3-3v0h-10c-1.657 0-3 1.343-3 3v0 10c0 1.657 1.343 3 3 3v0h10c1.657 0 3-1.343 3-3v0zM1.938 13v-10c0-0.552 0.448-1 1-1v0h10c0.552 0 1 0.448 1 1v0 10c0 0.552-0.448 1-1 1v0h-10c-0.552 0-1-0.448-1-1v0z"></path>
</svg>
