<!-- Generated by IcoMoon.io -->
<svg version="1.1" xmlns="http://www.w3.org/2000/svg" width="40" height="32" viewBox="0 0 40 32">
<title>send-back-solid</title>
<path d="M16 14v-12c0-1.105-0.895-2-2-2v0h-12c-1.105 0-2 0.895-2 2v0 12c0 1.105 0.895 2 2 2v0h12c1.105 0 2-0.895 2-2v0zM12 12h-8v-8h8zM38 16h-12c-1.105 0-2 0.895-2 2v0 12c0 1.105 0.895 2 2 2v0h12c1.105 0 2-0.895 2-2v0-12c0-1.105-0.895-2-2-2v0zM36 28h-8v-8h8zM30 14v-5c0-1.657-1.343-3-3-3v0h-9v8c-0.003 2.208-1.792 3.997-4 4h-4v5c0 1.657 1.343 3 3 3v0h9v-8c0.003-2.208 1.792-3.998 4-4h0z"></path>
</svg>
