<!-- Generated by IcoMoon.io -->
<svg version="1.1" xmlns="http://www.w3.org/2000/svg" width="40" height="32" viewBox="0 0 40 32">
<title>sensor-on-solid</title>
<path d="M24 2h-20c-2.209 0-4 1.791-4 4v0 20c0 2.209 1.791 4 4 4v0h20c2.209 0 4-1.791 4-4v0-20c0-2.209-1.791-4-4-4v0zM6 17c0 0.552-0.448 1-1 1s-1-0.448-1-1v0-10c0-0.552 0.448-1 1-1s1 0.448 1 1v0zM10 17c0 0.552-0.448 1-1 1s-1-0.448-1-1v0-10c0-0.552 0.448-1 1-1s1 0.448 1 1v0zM14 17c0 0.552-0.448 1-1 1s-1-0.448-1-1v0-10c0-0.552 0.448-1 1-1s1 0.448 1 1v0zM38.5 14.5h-4c-0.828 0-1.5 0.672-1.5 1.5s0.672 1.5 1.5 1.5v0h4c0.828 0 1.5-0.672 1.5-1.5s-0.672-1.5-1.5-1.5v0zM33.5 9c0.001 0 0.003 0 0.004 0 0.308 0 0.594-0.093 0.832-0.253l-0.005 0.003 3-2c0.425-0.27 0.703-0.738 0.703-1.271 0-0.828-0.672-1.5-1.5-1.5-0.325 0-0.625 0.103-0.871 0.279l0.005-0.003-3 2c-0.402 0.273-0.663 0.729-0.663 1.245 0 0.827 0.67 1.498 1.496 1.5h0zM34.331 23.25c-0.234-0.157-0.522-0.251-0.831-0.251-0.829 0-1.501 0.672-1.501 1.501 0 0.519 0.264 0.977 0.665 1.247l0.005 0.003 3 2c0.234 0.158 0.522 0.252 0.832 0.252 0.829 0 1.502-0.672 1.502-1.502 0-0.519-0.264-0.977-0.664-1.247l-0.005-0.003z"></path>
</svg>
