<!-- Generated by IcoMoon.io -->
<svg version="1.1" xmlns="http://www.w3.org/2000/svg" width="28" height="32" viewBox="0 0 28 32">
<title>sensor-solid</title>
<path d="M24 2h-20c-2.209 0-4 1.791-4 4v0 20c0 2.209 1.791 4 4 4v0h20c2.209 0 4-1.791 4-4v0-20c0-2.209-1.791-4-4-4v0zM6 17c0 0.552-0.448 1-1 1s-1-0.448-1-1v0-10c0-0.552 0.448-1 1-1s1 0.448 1 1v0zM10 17c0 0.552-0.448 1-1 1s-1-0.448-1-1v0-10c0-0.552 0.448-1 1-1s1 0.448 1 1v0zM14 17c0 0.552-0.448 1-1 1s-1-0.448-1-1v0-10c0-0.552 0.448-1 1-1s1 0.448 1 1v0z"></path>
</svg>
