<!-- Generated by IcoMoon.io -->
<svg version="1.1" xmlns="http://www.w3.org/2000/svg" width="40" height="32" viewBox="0 0 40 32">
<title>sensor-fire</title>
<path d="M34 9.652c-0.797 0.723-1.37 1.223-2.213 2.129-1.647-2.018-3.188-3.364-4.037-4.129-7.402 6.689-7.75 11.351-7.75 12.348 0 5.514 4.486 10 10 10s10-4.486 10-10c0-4.807-5.518-9.912-6-10.348zM30 28c-4.416-0.005-7.995-3.584-8-8v-0c0-2.391 2.43-6.42 5.75-9.633 1.145 1.088 2.19 2.255 3.135 3.502l0.052 0.072 0.756 1.014 0.813-0.969c0.471-0.563 0.969-1.098 1.484-1.604 2.469 2.559 4.010 6.1 4.010 7.617-0.005 4.416-3.584 7.995-8 8h-0zM10 9v8c0 0.552 0.448 1 1 1s1-0.448 1-1v0-8c0-0.552-0.448-1-1-1s-1 0.448-1 1v0zM4 28c-1.105 0-2-0.895-2-2v0-20c0-1.105 0.895-2 2-2v0h20c1.105 0 2 0.895 2 2v0 0.538c0.529-0.478 0.152-0.179 1.882-1.462-0.43-1.775-2.004-3.073-3.882-3.076h-20c-2.209 0-4 1.791-4 4v0 20c0 2.209 1.791 4 4 4v0h19.381c-0.871-0.587-1.626-1.246-2.29-1.988l-0.010-0.012zM14 9v8c0 0.552 0.448 1 1 1s1-0.448 1-1v0-8c0-0.552-0.448-1-1-1s-1 0.448-1 1v0zM6 9v8c0 0.552 0.448 1 1 1s1-0.448 1-1v0-8c0-0.552-0.448-1-1-1s-1 0.448-1 1v0zM32.757 16.063l-1.621 1.797c-1.076-1.329-0.71-0.893-2.493-2.898-2.555 2.976-3.728 4.153-3.728 6.101 0 2.813 2.216 4.938 5.154 4.938 0.005 0 0.011 0 0.017 0 1.108 0 2.137-0.341 2.987-0.923l-0.018 0.012c1.996-1.358 2.616-4.023 1.443-6.199-0.201-0.374-0.204-0.369-1.74-2.827zM30.069 24c-1.739 0-3.154-1.119-3.154-2.938 0-0.905 0.586-1.703 1.755-3.063 0.167 0.188 2.382 2.938 2.382 2.938l1.414-1.567c1.678 2.692-0.337 4.629-2.397 4.629z"></path>
</svg>
