<!-- Generated by IcoMoon.io -->
<svg version="1.1" xmlns="http://www.w3.org/2000/svg" width="40" height="32" viewBox="0 0 40 32">
<title>sensor-smoke-solid</title>
<path d="M35.792 20.080c0.131-0.324 0.207-0.7 0.207-1.093 0-1.65-1.338-2.988-2.988-2.988-0.962 0-1.817 0.454-2.364 1.16l-0.005 0.007c-0.753-1.865-2.548-3.157-4.645-3.157-2.759 0-4.996 2.237-4.996 4.996 0 0.356 0.037 0.703 0.108 1.038l-0.006-0.033c-0.035 0-0.067-0.011-0.102-0.011-2.761 0-5 2.239-5 5s2.239 5 5 5v0h14c0.004 0 0.008 0 0.013 0 2.756 0 4.991-2.234 4.991-4.991 0-2.481-1.811-4.539-4.182-4.926l-0.029-0.004zM19.037 18.28c0.381-3.542 3.352-6.276 6.963-6.28h0c0.696 0 1.359 0.134 2 0.326v-6.326c0-2.209-1.791-4-4-4v0h-20c-2.209 0-4 1.791-4 4v0 20c0 2.209 1.791 4 4 4v0h12.116c-1.306-1.271-2.116-3.046-2.116-5.010 0-3.164 2.103-5.837 4.987-6.697l0.049-0.013zM6 17c0 0.552-0.448 1-1 1s-1-0.448-1-1v0-10c0-0.552 0.448-1 1-1s1 0.448 1 1v0zM10 17c0 0.552-0.448 1-1 1s-1-0.448-1-1v0-10c0-0.552 0.448-1 1-1s1 0.448 1 1v0zM13 18c-0.552 0-1-0.448-1-1v0-10c0-0.552 0.448-1 1-1s1 0.448 1 1v0 10c0 0.552-0.448 1-1 1v0z"></path>
</svg>
