<!-- Generated by IcoMoon.io -->
<svg version="1.1" xmlns="http://www.w3.org/2000/svg" width="40" height="32" viewBox="0 0 40 32">
<title>sensor-alert-solid</title>
<path d="M14.699 24.211l8.801-15.259c0.901-1.563 2.564-2.599 4.468-2.599 0.011 0 0.023 0 0.034 0h-0.002v-0.353c0-2.209-1.791-4-4-4v0h-20c-2.209 0-4 1.791-4 4v0 20c0 2.209 1.791 4 4 4v0h11.157c-0.154-0.197-0.328-0.375-0.456-0.596-0.443-0.744-0.705-1.64-0.705-2.598 0-0.956 0.261-1.852 0.716-2.618l-0.013 0.024zM6 17c0 0.552-0.448 1-1 1s-1-0.448-1-1v0-10c0-0.552 0.448-1 1-1s1 0.448 1 1v0zM10 17c0 0.552-0.448 1-1 1s-1-0.448-1-1v0-10c0-0.552 0.448-1 1-1s1 0.448 1 1v0zM13 18c-0.552 0-1-0.448-1-1v0-10c0-0.552 0.448-1 1-1s1 0.448 1 1v0 10c0 0.552-0.448 1-1 1v0zM39.568 25.211l-8.801-15.259c-1.229-2.131-4.304-2.131-5.533 0l-8.802 15.259c-1.228 2.129 0.309 4.79 2.767 4.79h17.602c2.458 0 3.995-2.661 2.767-4.789zM28 27c-0.828 0-1.5-0.672-1.5-1.5s0.672-1.5 1.5-1.5c0.828 0 1.5 0.672 1.5 1.5v0c0 0.828-0.672 1.5-1.5 1.5v0zM29.192 21.825c-0.039 0.381-0.358 0.675-0.746 0.675 0 0 0 0 0 0h-0.892c-0 0-0 0-0.001 0-0.388 0-0.707-0.294-0.746-0.672l-0-0.003-0.599-6c-0.002-0.023-0.004-0.049-0.004-0.075 0-0.414 0.336-0.75 0.75-0.75 0 0 0 0 0 0h2.092c0 0 0 0 0 0 0.414 0 0.75 0.336 0.75 0.75 0 0.026-0.001 0.053-0.004 0.078l0-0.003z"></path>
</svg>
