<!-- Generated by IcoMoon.io -->
<svg version="1.1" xmlns="http://www.w3.org/2000/svg" width="40" height="32" viewBox="0 0 40 32">
<title>sensor-fire-solid</title>
<path d="M18.056 19.714c0-3.819 3.357-9.592 8.163-14.038 0.356-0.33 0.835-0.533 1.361-0.533 0.001 0 0.002 0 0.003 0h-0c0.142 0 0.278 0.047 0.418 0.077-0.38-1.849-1.994-3.22-3.929-3.22-0.001 0-0.003 0-0.004 0h-20.056c-0.002 0-0.004 0-0.006 0-2.21 0-4.002 1.79-4.005 4v20c0.003 2.21 1.795 4 4.005 4 0.002 0 0.004 0 0.007 0h19.517c-3.32-2.247-5.473-5.999-5.473-10.254 0-0.011 0-0.022 0-0.033v0.002zM6.017 17c0 0.554-0.449 1.003-1.003 1.003s-1.003-0.449-1.003-1.003v0-10c0-0.554 0.449-1.003 1.003-1.003s1.003 0.449 1.003 1.003v0zM10.028 17c0 0.554-0.449 1.003-1.003 1.003s-1.003-0.449-1.003-1.003v0-10c0-0.554 0.449-1.003 1.003-1.003s1.003 0.449 1.003 1.003v0zM14.039 17c0 0.554-0.449 1.003-1.003 1.003s-1.003-0.449-1.003-1.003v0-10c0-0.554 0.449-1.003 1.003-1.003s1.003 0.449 1.003 1.003v0zM34.445 9.429c-0.891 0.83-1.711 1.704-2.47 2.63l-0.037 0.047c-1.362-1.844-2.818-3.467-4.414-4.942l-0.023-0.021c-4.387 4.069-7.5 9.375-7.5 12.571 0 5.681 4.477 10.286 10 10.286s10-4.604 10-10.286c0-2.378-2.321-7.284-5.555-10.286zM33.754 24.866c-1.006 0.709-2.257 1.134-3.608 1.134-0.004 0-0.009 0-0.013 0h0.001c-3.384 0-6.134-2.238-6.134-5.871 0-1.813 1.139-3.405 3.413-6.129 0.324 0.375 4.632 5.875 4.632 5.875l2.75-3.134c0.194 0.32 0.371 0.634 0.528 0.938 1.281 2.446 0.741 5.574-1.568 7.19z"></path>
</svg>
