<!-- Generated by IcoMoon.io -->
<svg version="1.1" xmlns="http://www.w3.org/2000/svg" width="40" height="32" viewBox="0 0 40 32">
<title>sensor-smoke</title>
<path d="M36.641 18.351c-0.255-2.267-2.16-4.014-4.473-4.018h-0c-0.001 0-0.003 0-0.004 0-0.497 0-0.974 0.081-1.42 0.231l0.031-0.009c-1.123-1.165-2.698-1.888-4.441-1.888-3.104 0-5.673 2.294-6.103 5.279l-0.004 0.033c-2.476 0.839-4.227 3.142-4.227 5.854 0 3.406 2.761 6.167 6.167 6.167 0 0 0.001 0 0.001 0h11.666c0.001 0 0.003 0 0.005 0 3.403 0 6.162-2.759 6.162-6.162 0-2.38-1.349-4.445-3.325-5.471l-0.034-0.016zM33.833 28h-11.666c-0.015 0-0.033 0-0.051 0-2.301 0-4.167-1.866-4.167-4.167s1.866-4.167 4.167-4.167c0.018 0 0.036 0 0.054 0l-0.003-0c0.029 0 0.056 0.008 0.085 0.008-0.055-0.255-0.087-0.547-0.087-0.848 0-2.299 1.864-4.162 4.163-4.162 1.751 0 3.249 1.081 3.864 2.612l0.010 0.028c0.459-0.596 1.174-0.976 1.977-0.976 1.375 0 2.489 1.115 2.489 2.489 0 0.329-0.064 0.644-0.18 0.932l0.006-0.017c1.998 0.327 3.505 2.042 3.505 4.108 0 2.297-1.862 4.159-4.159 4.159-0.002 0-0.004 0-0.005 0h0zM14 9v8c0 0.552 0.448 1 1 1s1-0.448 1-1v0-8c0-0.552-0.448-1-1-1s-1 0.448-1 1v0zM4 28c-1.105 0-2-0.895-2-2v0-20c0-1.105 0.895-2 2-2v0h20c1.105 0 2 0.895 2 2v0 4.694c0.113-0.004 0.22-0.027 0.333-0.027 0.594 0.006 1.168 0.074 1.722 0.198l-0.055-0.010v-4.854c0-2.209-1.791-4-4-4v0h-20c-2.209 0-4 1.791-4 4v0 20c0 2.209 1.791 4 4 4v0h12.875c-0.661-0.568-1.222-1.228-1.671-1.964l-0.020-0.036zM10 9v8c0 0.552 0.448 1 1 1s1-0.448 1-1v0-8c0-0.552-0.448-1-1-1s-1 0.448-1 1v0zM6 9v8c0 0.552 0.448 1 1 1s1-0.448 1-1v0-8c0-0.552-0.448-1-1-1s-1 0.448-1 1v0z"></path>
</svg>
