<!-- Generated by IcoMoon.io -->
<svg version="1.1" xmlns="http://www.w3.org/2000/svg" width="28" height="32" viewBox="0 0 28 32">
<title>sensor</title>
<path d="M24 2h-20c-2.209 0-4 1.791-4 4v0 20c0 2.209 1.791 4 4 4v0h20c2.209 0 4-1.791 4-4v0-20c0-2.209-1.791-4-4-4v0zM26 26c0 1.105-0.895 2-2 2v0h-20c-1.105 0-2-0.895-2-2v0-20c0-1.105 0.895-2 2-2v0h20c1.105 0 2 0.895 2 2v0zM7 8c-0.552 0-1 0.448-1 1v0 8c0 0.552 0.448 1 1 1s1-0.448 1-1v0-8c0-0.552-0.448-1-1-1v0zM11 8c-0.552 0-1 0.448-1 1v0 8c0 0.552 0.448 1 1 1s1-0.448 1-1v0-8c0-0.552-0.448-1-1-1v0zM15 8c-0.552 0-1 0.448-1 1v0 8c0 0.552 0.448 1 1 1s1-0.448 1-1v0-8c0-0.552-0.448-1-1-1v0z"></path>
</svg>
