<!-- Generated by IcoMoon.io -->
<svg version="1.1" xmlns="http://www.w3.org/2000/svg" width="40" height="32" viewBox="0 0 40 32">
<title>sensor-on</title>
<path d="M33 9c0.163-0 0.317-0.039 0.453-0.108l-0.006 0.003 4-2c0.33-0.168 0.553-0.505 0.553-0.895 0-0.552-0.448-1-1-1-0.163 0-0.317 0.039-0.453 0.108l0.006-0.003-4 2c-0.33 0.168-0.553 0.505-0.553 0.894 0 0.552 0.448 1 1 1 0 0 0 0 0 0v0zM39 15h-6c-0.552 0-1 0.448-1 1s0.448 1 1 1v0h6c0.552 0 1-0.448 1-1s-0.448-1-1-1v0zM24 2h-20c-2.209 0-4 1.791-4 4v0 20c0 2.209 1.791 4 4 4v0h20c2.209 0 4-1.791 4-4v0-20c0-2.209-1.791-4-4-4v0zM26 26c0 1.105-0.895 2-2 2v0h-20c-1.105 0-2-0.895-2-2v0-20c0-1.105 0.895-2 2-2v0h20c1.105 0 2 0.895 2 2v0zM7 8c-0.552 0-1 0.448-1 1v0 8c0 0.552 0.448 1 1 1s1-0.448 1-1v0-8c0-0.552-0.448-1-1-1v0zM11 8c-0.552 0-1 0.448-1 1v0 8c0 0.552 0.448 1 1 1s1-0.448 1-1v0-8c0-0.552-0.448-1-1-1v0zM15 8c-0.552 0-1 0.448-1 1v0 8c0 0.552 0.448 1 1 1s1-0.448 1-1v0-8c0-0.552-0.448-1-1-1v0zM37.447 25.106l-4-2c-0.13-0.067-0.284-0.106-0.447-0.106-0.552 0-1 0.448-1 1 0 0.389 0.222 0.727 0.547 0.892l0.006 0.003 4 2c0.13 0.067 0.284 0.106 0.447 0.106 0.552 0 1-0.448 1-1 0-0.389-0.222-0.727-0.547-0.892l-0.006-0.003z"></path>
</svg>
