<!-- Generated by IcoMoon.io -->
<svg version="1.1" xmlns="http://www.w3.org/2000/svg" width="40" height="32" viewBox="0 0 40 32">
<title>sensor-alert</title>
<path d="M39.368 23.016l-7.332-12.688c-0.822-1.402-2.321-2.328-4.036-2.328s-3.214 0.926-4.024 2.306l-0.012 0.022-7.332 12.688c-0.392 0.668-0.624 1.471-0.624 2.328 0 2.571 2.084 4.656 4.656 4.656 0.001 0 0.003 0 0.004 0h14.665c0.001 0 0.003 0 0.004 0 2.571 0 4.656-2.084 4.656-4.656 0-0.857-0.232-1.66-0.636-2.35l0.012 0.022zM35.333 28h-14.665c-2.047 0-3.328-2.212-2.305-3.983l7.333-12.688c0.469-0.8 1.325-1.329 2.305-1.329s1.835 0.529 2.298 1.316l0.007 0.012 7.332 12.688c1.023 1.771-0.258 3.983-2.305 3.983zM28 23.011c-0.69 0-1.25 0.56-1.25 1.25s0.56 1.25 1.25 1.25c0.69 0 1.25-0.56 1.25-1.25v0c0-0.69-0.56-1.25-1.25-1.25v0zM28.875 15.527h-1.744c0 0 0 0 0 0-0.345 0-0.625 0.28-0.625 0.625 0 0.022 0.001 0.044 0.003 0.065l-0-0.003 0.5 4.989c0.033 0.317 0.299 0.563 0.622 0.563 0 0 0 0 0 0h0.744c0 0 0 0 0 0 0.323 0 0.589-0.245 0.622-0.56l0-0.003 0.5-4.989c0.002-0.019 0.003-0.041 0.003-0.063 0-0.345-0.28-0.625-0.625-0.625 0 0 0 0 0 0v0zM14.616 28h-10.616c-1.105 0-2-0.895-2-2v0-20c0-1.105 0.895-2 2-2v0h20c1.105 0 2 0.895 2 2v0 0.313c0.597-0.196 1.285-0.31 1.999-0.313h0.001c0-2.209-1.791-4-4-4v0h-20c-2.209 0-4 1.791-4 4v0 20c0 2.209 1.791 4 4 4v0h11.904c-0.38-0.39-0.714-0.826-0.993-1.3l-0.017-0.032c-0.124-0.214-0.18-0.446-0.278-0.668zM14 9v8c0 0.552 0.448 1 1 1s1-0.448 1-1v0-8c0-0.552-0.448-1-1-1s-1 0.448-1 1v0zM10 9v8c0 0.552 0.448 1 1 1s1-0.448 1-1v0-8c0-0.552-0.448-1-1-1s-1 0.448-1 1v0zM6 9v8c0 0.552 0.448 1 1 1s1-0.448 1-1v0-8c0-0.552-0.448-1-1-1s-1 0.448-1 1v0z"></path>
</svg>
