<!-- Generated by IcoMoon.io -->
<svg version="1.1" xmlns="http://www.w3.org/2000/svg" width="32" height="32" viewBox="0 0 32 32">
<title>server-solid</title>
<path d="M30 10h-28c-1.105 0-2-0.895-2-2v-4c0-1.105 0.895-2 2-2h28c1.105 0 2 0.895 2 2v4c0 1.105-0.895 2-2 2zM27 4.5c-0.828 0-1.5 0.672-1.5 1.5s0.672 1.5 1.5 1.5 1.5-0.672 1.5-1.5-0.672-1.5-1.5-1.5zM23 4.5c-0.828 0-1.5 0.672-1.5 1.5s0.672 1.5 1.5 1.5 1.5-0.672 1.5-1.5-0.672-1.5-1.5-1.5zM30 20h-28c-1.105 0-2-0.895-2-2v-4c0-1.105 0.895-2 2-2h28c1.105 0 2 0.895 2 2v4c0 1.105-0.895 2-2 2zM27 14.5c-0.828 0-1.5 0.672-1.5 1.5s0.672 1.5 1.5 1.5 1.5-0.672 1.5-1.5-0.672-1.5-1.5-1.5zM23 14.5c-0.828 0-1.5 0.672-1.5 1.5s0.672 1.5 1.5 1.5 1.5-0.672 1.5-1.5-0.672-1.5-1.5-1.5zM30 30h-28c-1.105 0-2-0.895-2-2v-4c0-1.105 0.895-2 2-2h28c1.105 0 2 0.895 2 2v4c0 1.105-0.895 2-2 2zM27 24.5c-0.828 0-1.5 0.672-1.5 1.5s0.672 1.5 1.5 1.5 1.5-0.672 1.5-1.5-0.672-1.5-1.5-1.5zM23 24.5c-0.828 0-1.5 0.672-1.5 1.5s0.672 1.5 1.5 1.5 1.5-0.672 1.5-1.5-0.672-1.5-1.5-1.5z"></path>
</svg>
