<!-- Generated by IcoMoon.io -->
<svg version="1.1" xmlns="http://www.w3.org/2000/svg" width="32" height="32" viewBox="0 0 32 32">
<title>server</title>
<path d="M23.5 16c0-0.828 0.672-1.5 1.5-1.5s1.5 0.672 1.5 1.5-0.672 1.5-1.5 1.5-1.5-0.672-1.5-1.5zM21 17.5c0.828 0 1.5-0.672 1.5-1.5s-0.672-1.5-1.5-1.5-1.5 0.672-1.5 1.5 0.672 1.5 1.5 1.5zM32 9.5c0 0.768-0.289 1.469-0.764 2 0.475 0.531 0.764 1.232 0.764 2v5c0 0.768-0.289 1.469-0.764 2 0.475 0.531 0.764 1.232 0.764 2v5c0 1.657-1.343 3-3 3h-26c-1.657 0-3-1.343-3-3v-5c0-0.768 0.289-1.469 0.764-2-0.475-0.531-0.764-1.232-0.764-2v-5c0-0.768 0.289-1.469 0.764-2-0.475-0.531-0.764-1.232-0.764-2v-5c0-1.657 1.343-3 3-3h26c1.657 0 3 1.343 3 3v5zM2 9.5c0 0.551 0.449 1 1 1h26c0.551 0 1-0.449 1-1v-5c0-0.551-0.449-1-1-1h-26c-0.551 0-1 0.449-1 1v5zM29 12.5h-26c-0.551 0-1 0.449-1 1v5c0 0.551 0.449 1 1 1h26c0.551 0 1-0.449 1-1v-5c0-0.551-0.449-1-1-1zM30 22.5c0-0.551-0.449-1-1-1h-26c-0.551 0-1 0.449-1 1v5c0 0.551 0.449 1 1 1h26c0.551 0 1-0.449 1-1v-5zM25 8.5c0.828 0 1.5-0.672 1.5-1.5s-0.672-1.5-1.5-1.5-1.5 0.672-1.5 1.5 0.672 1.5 1.5 1.5zM21 8.5c0.828 0 1.5-0.672 1.5-1.5s-0.672-1.5-1.5-1.5-1.5 0.672-1.5 1.5 0.672 1.5 1.5 1.5zM25 23.5c-0.828 0-1.5 0.672-1.5 1.5s0.672 1.5 1.5 1.5 1.5-0.672 1.5-1.5-0.672-1.5-1.5-1.5zM21 23.5c-0.828 0-1.5 0.672-1.5 1.5s0.672 1.5 1.5 1.5 1.5-0.672 1.5-1.5-0.672-1.5-1.5-1.5z"></path>
</svg>
