<!-- Generated by IcoMoon.io -->
<svg version="1.1" xmlns="http://www.w3.org/2000/svg" width="32" height="32" viewBox="0 0 32 32">
<title>shapes</title>
<path d="M30 18h-10c-1.104 0-2 0.896-2 2v10c0 1.104 0.896 2 2 2h10c1.104 0 2-0.896 2-2v-10c0-1.104-0.896-2-2-2zM30 30h-10v-10h10v10zM8 16c-4.418 0-8 3.582-8 8s3.582 8 8 8 8-3.582 8-8-3.582-8-8-8zM8 30c-3.308 0-6-2.692-6-6s2.692-6 6-6c3.309 0 6 2.691 6 6s-2.691 6-6 6zM31.686 12.571l-6.682-11.428c-0.445-0.762-1.225-1.143-2.004-1.143s-1.559 0.381-2.004 1.143l-6.682 11.428c-0.891 1.524 0.223 3.429 2.004 3.429h13.364c1.782 0 2.896-1.905 2.004-3.429zM29.961 13.846c-0.059 0.102-0.153 0.154-0.279 0.154h-13.364c-0.126 0-0.221-0.052-0.279-0.154-0.076-0.133-0.022-0.225 0.001-0.264l6.682-11.429c0.059-0.101 0.152-0.153 0.278-0.153s0.219 0.051 0.278 0.153l6.682 11.429c0.023 0.039 0.078 0.132 0.001 0.264z"></path>
</svg>
