<!-- Generated by IcoMoon.io -->
<svg version="1.1" xmlns="http://www.w3.org/2000/svg" width="32" height="32" viewBox="0 0 32 32">
<title>shapes-solid</title>
<path d="M8 16c-4.418 0-8 3.582-8 8s3.582 8 8 8c4.418 0 8-3.582 8-8v0c0-4.418-3.582-8-8-8v0zM31.688 12.571l-6.683-11.428c-0.413-0.689-1.156-1.143-2.004-1.143s-1.592 0.454-1.998 1.133l-0.006 0.011-6.683 11.428c-0.89 1.524 0.224 3.429 2.006 3.429h13.364c1.782 0 2.896-1.905 2.006-3.429zM30 18h-10c-1.105 0-2 0.895-2 2v0 10c0 1.105 0.895 2 2 2v0h10c1.105 0 2-0.895 2-2v0-10c0-1.105-0.895-2-2-2v0z"></path>
</svg>
