<!-- Generated by IcoMoon.io -->
<svg version="1.1" xmlns="http://www.w3.org/2000/svg" width="28" height="32" viewBox="0 0 28 32">
<title>share-alt</title>
<path d="M22 20c-1.788 0-3.387 0.781-4.488 2.019l-5.969-3.731c0.6-1.462 0.606-3.113 0-4.575l5.969-3.731c1.1 1.238 2.7 2.019 4.488 2.019 3.313 0 6-2.688 6-6s-2.688-6-6-6-6 2.688-6 6c0 0.813 0.163 1.581 0.45 2.287l-5.969 3.731c-1.094-1.238-2.694-2.019-4.481-2.019-3.313 0-6 2.688-6 6s2.688 6 6 6c1.788 0 3.388-0.781 4.487-2.019l5.969 3.731c-0.294 0.706-0.45 1.475-0.45 2.288 0 3.313 2.688 6 6 6s6-2.688 6-6c-0.006-3.313-2.694-6-6.006-6zM22 2c2.206 0 4 1.794 4 4s-1.794 4-4 4-4-1.794-4-4 1.794-4 4-4zM6 20c-2.206 0-4-1.794-4-4s1.794-4 4-4 4 1.794 4 4-1.794 4-4 4zM22 30c-2.206 0-4-1.794-4-4s1.794-4 4-4 4 1.794 4 4-1.794 4-4 4z"></path>
</svg>
