<!-- Generated by IcoMoon.io -->
<svg version="1.1" xmlns="http://www.w3.org/2000/svg" width="36" height="32" viewBox="0 0 36 32">
<title>share-all</title>
<path d="M29.415 12.586l-10-9.998c-1.253-1.252-3.414-0.373-3.414 1.414v4.543c-7.219 0.24-16 1.761-16 11.317 0 4.061 2.096 7.391 5.319 9.748 1.512 1.106 3.628-0.308 3.106-2.157-1.731-6.137-0.024-7.629 7.575-7.901v4.447c0 1.788 2.163 2.665 3.414 1.414l10-9.999c0.781-0.781 0.781-2.047 0-2.829zM18 24v-6.494c-9.104 0.083-14.061 1.415-11.5 10.494-1.969-1.441-4.5-4.069-4.5-8.138 0-8.214 7.865-9.272 16-9.356v-6.506l10 10-10 10zM35.414 15.414l-10 9.999c-0.841 0.841-2.093 0.719-2.824 0.007l11.41-11.419-11.41-11.419c0.731-0.713 1.983-0.835 2.824 0.007l10 9.998c0.781 0.781 0.781 2.047 0 2.828z"></path>
</svg>
