<!-- Generated by IcoMoon.io -->
<svg version="1.1" xmlns="http://www.w3.org/2000/svg" width="28" height="32" viewBox="0 0 28 32">
<title>share-alt-square</title>
<path d="M18 14.5c1.931 0 3.5-1.569 3.5-3.5s-1.569-3.5-3.5-3.5-3.5 1.569-3.5 3.5c0 0.2 0.019 0.406 0.056 0.606l-3.35 1.675c-0.6-0.488-1.369-0.781-2.2-0.781-1.931 0-3.5 1.569-3.5 3.5s1.569 3.5 3.5 3.5c0.838 0 1.6-0.294 2.2-0.781l3.35 1.675c-0.031 0.194-0.056 0.4-0.056 0.606 0 1.931 1.569 3.5 3.5 3.5s3.5-1.569 3.5-3.5-1.569-3.5-3.5-3.5c-1.006 0-1.913 0.425-2.55 1.106l-3.106-1.556c0.213-0.688 0.213-1.419 0-2.1l3.106-1.556c0.637 0.681 1.544 1.106 2.55 1.106zM18 9.5c0.825 0 1.5 0.675 1.5 1.5s-0.675 1.5-1.5 1.5-1.5-0.675-1.5-1.5 0.675-1.5 1.5-1.5zM9 17.5c-0.825 0-1.5-0.675-1.5-1.5s0.675-1.5 1.5-1.5 1.5 0.675 1.5 1.5-0.675 1.5-1.5 1.5zM18 19.5c0.825 0 1.5 0.675 1.5 1.5s-0.675 1.5-1.5 1.5-1.5-0.675-1.5-1.5 0.675-1.5 1.5-1.5zM25 2h-22c-1.656 0-3 1.344-3 3v22c0 1.656 1.344 3 3 3h22c1.656 0 3-1.344 3-3v-22c0-1.656-1.344-3-3-3zM26 27c0 0.55-0.45 1-1 1h-22c-0.55 0-1-0.45-1-1v-22c0-0.55 0.45-1 1-1h22c0.55 0 1 0.45 1 1z"></path>
</svg>
