<!-- Generated by IcoMoon.io -->
<svg version="1.1" xmlns="http://www.w3.org/2000/svg" width="36" height="32" viewBox="0 0 36 32">
<title>share</title>
<path d="M35.307 12.272l-11-11.499c-1.543-1.613-4.307-0.539-4.307 1.728v5.51c-10.341 0.124-20 1.996-20 12.689 0 5.936 3.49 9.389 5.571 10.911 1.515 1.108 3.626-0.312 3.105-2.157-2.367-8.398 1.673-9.33 11.324-9.443v5.49c0 2.265 2.762 3.343 4.307 1.728l11-11.5c0.924-0.967 0.924-2.489-0-3.456zM33.861 14.346l-11 11.5c-0.308 0.323-0.861 0.108-0.861-0.346v-7.5c-10.712 0-18.457 0.607-15.249 11.981-2.251-1.646-4.751-4.632-4.751-9.282 0-10.001 10.18-10.699 20-10.699v-7.5c0-0.454 0.553-0.668 0.861-0.346l11 11.5c0.086 0.089 0.139 0.211 0.139 0.346s-0.053 0.256-0.139 0.346l0-0z"></path>
</svg>
