<!-- Generated by IcoMoon.io -->
<svg version="1.1" xmlns="http://www.w3.org/2000/svg" width="28" height="32" viewBox="0 0 28 32">
<title>share-alt-square-solid</title>
<path d="M28 5v22c0 1.657-1.343 3-3 3h-22c-1.657 0-3-1.343-3-3v-22c0-1.657 1.343-3 3-3h22c1.657 0 3 1.343 3 3zM19 18.5c-0.91 0-1.739 0.348-2.361 0.917l-4.247-2.548c0.069-0.261 0.109-0.56 0.109-0.869s-0.040-0.608-0.114-0.893l0.005 0.024 4.247-2.548c0.622 0.569 1.451 0.917 2.361 0.917 1.933 0 3.5-1.567 3.5-3.5s-1.567-3.5-3.5-3.5-3.5 1.567-3.5 3.5c0 0.3 0.038 0.591 0.109 0.869l-4.247 2.548c-0.622-0.569-1.451-0.917-2.361-0.917-1.933 0-3.5 1.567-3.5 3.5s1.567 3.5 3.5 3.5c0.91 0 1.739-0.348 2.361-0.917l4.247 2.548c-0.069 0.26-0.109 0.559-0.109 0.866 0 0.001 0 0.002 0 0.002v-0c0 1.933 1.567 3.5 3.5 3.5s3.5-1.567 3.5-3.5c-0-1.933-1.567-3.5-3.5-3.5z"></path>
</svg>
