<!-- Generated by IcoMoon.io -->
<svg version="1.1" xmlns="http://www.w3.org/2000/svg" width="36" height="32" viewBox="0 0 36 32">
<title>share-all-solid</title>
<path d="M27.481 14.135l-11 9.499c-0.962 0.831-2.48 0.159-2.48-1.135v-5.261c-6.792 0.783-9.444 3.678-7.037 11.376 0.315 1.006-0.902 1.785-1.755 1.164-2.734-1.989-5.208-5.793-5.208-9.633 0-8.209 5.926-10.832 14-11.472v-5.173c0-1.292 1.518-1.967 2.48-1.135l11 9.499c0.693 0.598 0.692 1.673 0 2.271zM35.481 11.865l-11-9.499c-0.963-0.832-2.48-0.156-2.48 1.135v0.989l6.788 5.862c0.744 0.645 1.212 1.591 1.212 2.647 0 0.001 0 0.001 0 0.002v-0c0 0 0 0.001 0 0.002 0 1.056-0.468 2.003-1.208 2.644l-0.004 0.004-6.788 5.862v0.989c0 1.294 1.519 1.966 2.48 1.135l11-9.499c0.692-0.598 0.693-1.672 0-2.271z"></path>
</svg>
