<!-- Generated by IcoMoon.io -->
<svg version="1.1" xmlns="http://www.w3.org/2000/svg" width="36" height="32" viewBox="0 0 36 32">
<title>share-square-solid</title>
<path d="M35.53 11.091l-9 8.499c-0.949 0.896-2.53 0.232-2.53-1.090v-4.498c-9.036 0.061-12.848 2.195-10.298 10.71 0.28 0.936-0.803 1.66-1.563 1.083-2.435-1.85-4.639-5.389-4.639-8.96 0-8.996 7.35-10.781 16.5-10.832v-4.501c0-1.323 1.582-1.986 2.53-1.091l9 8.499c0.626 0.591 0.627 1.589 0 2.181zM24 23.695v4.305h-20v-20h3.182c0.212-0 0.404-0.089 0.54-0.231l0-0c0.935-0.973 2.015-1.743 3.188-2.355 0.696-0.363 0.438-1.414-0.347-1.414h-7.565c-1.657 0-3 1.343-3 3v22c0 1.657 1.343 3 3 3h22c1.657 0 3-1.343 3-3v-5.55c0-0.518-0.512-0.879-1.001-0.706-0.446 0.163-0.96 0.257-1.497 0.257-0.226 0-0.448-0.017-0.664-0.049l0.025 0.003c-0.454-0.065-0.863 0.282-0.863 0.741z"></path>
</svg>
