<!-- Generated by IcoMoon.io -->
<svg version="1.1" xmlns="http://www.w3.org/2000/svg" width="36" height="32" viewBox="0 0 36 32">
<title>share-square</title>
<path d="M35.415 10.586l-10-9.999c-1.25-1.25-3.414-0.375-3.414 1.414v4.534c-8.867 0.245-16.5 2.431-16.5 11.359 0 5.296 3.111 8.359 4.966 9.716 1.512 1.106 3.627-0.307 3.106-2.157-1.804-6.401 0.522-7.699 8.428-7.919v4.466c0 1.791 2.166 2.663 3.414 1.414l10-10c0.781-0.781 0.781-2.047 0-2.829zM24 22v-6.497c-8.857 0.049-15.048 0.939-12.353 10.497-1.965-1.438-4.147-4.045-4.147-8.106 0-8.377 8.228-9.337 16.5-9.391v-6.503l10 10-10 10zM26.318 25.262c0.139-0.099 0.269-0.208 0.421-0.349 0.48-0.445 1.261-0.106 1.261 0.549v3.538c0 1.657-1.343 3-3 3h-22c-1.657 0-3-1.343-3-3v-22c0-1.657 1.343-3 3-3h10.759c0.413 0 0.747 0.338 0.741 0.752-0.005 0.34-0.253 0.63-0.583 0.712-0.591 0.146-1.154 0.311-1.692 0.495-0.078 0.027-0.16 0.041-0.242 0.041h-8.982c-0.552 0-1 0.448-1 1v22c0 0.552 0.448 1 1 1h22c0.552 0 1-0.448 1-1v-3.125c0-0.244 0.12-0.471 0.318-0.613z"></path>
</svg>
