<!-- Generated by IcoMoon.io -->
<svg version="1.1" xmlns="http://www.w3.org/2000/svg" width="40" height="32" viewBox="0 0 40 32">
<title>sheep</title>
<path d="M31 6c-0.552 0-1 0.447-1 1s0.448 1 1 1 1-0.447 1-1-0.448-1-1-1zM38.332 6.726l-2.332-1.146v-0.579c0-1.654-1.346-3-3-3h-3.172c-0.412-1.164-1.523-2-2.828-2-1.654 0-3 1.346-3 3v3.313c-0.078-0.022-0.149-0.061-0.229-0.078-0.877-0.211-1.774-0.084-2.559 0.338-0.564-0.356-1.233-0.556-1.971-0.573-0.674 0-1.309 0.174-1.869 0.508-1.125-0.662-2.601-0.661-3.723-0.003-1.144-0.681-2.693-0.653-3.822 0.063-0.768-0.416-1.66-0.544-2.555-0.354-1.064 0.24-1.963 0.936-2.476 1.885-1.059 0.055-2.066 0.569-2.757 1.445-0.676 0.872-0.941 1.991-0.757 3.059-0.805 0.716-1.281 1.761-1.281 2.879 0 1.119 0.469 2.162 1.262 2.875-0.191 1.081 0.078 2.204 0.758 3.061 0.674 0.876 1.674 1.394 2.736 1.448 0.302 0.569 0.749 1.030 1.276 1.374 0.009 0.247 0.021 0.496 0.079 0.738l1.32 5.491c0.216 0.899 1.021 1.533 1.945 1.533h3.596c1.309 0 2.258-1.235 1.939-2.491l-1.268-5.004c0.523 0.311 1.154 0.496 1.827 0.496 0.001 0 0.003 0 0.004 0h-0c0.664 0 1.305-0.177 1.869-0.511 0.573 0.332 1.289 0.535 1.99 0.501 0.229-0.008 0.448-0.063 0.668-0.111v5.12c0 1.104 0.896 2 2 2h4c1.104 0 2-0.896 2-2v-7.698c0.356-0.227 0.688-0.499 0.961-0.844 0.676-0.872 0.941-1.991 0.758-3.059 0.805-0.716 1.281-1.761 1.281-2.878 0-0.534-0.113-1.048-0.311-1.519h5.789c0.932 0 1.801-0.502 2.267-1.314 1.123-1.972 1.254-2.818 1.254-3.283 0-1.147-0.639-2.173-1.668-2.679zM9.375 30l-1.239-5.152c0.571-0.012 1.134-0.146 1.649-0.42 0.564 0.362 1.237 0.548 1.915 0.558l1.271 5.015h-3.596zM26 30h-4v-5.256c0.553 0.143 1.139 0.17 1.726 0.043 0.946-0.213 1.743-0.799 2.274-1.589v6.802zM28.084 17.122l-0.764 0.427 0.323 0.814c0.532 1.336-0.566 2.753-1.912 2.519l-0.885-0.157-0.252 0.861c-0.343 1.177-1.787 1.753-2.803 0.854l-0.715-0.634-0.666 0.684c-0.543 0.559-1.602 0.769-2.383 0.028l-0.691-0.658-0.689 0.661c-0.644 0.62-1.703 0.619-2.322 0.010l-0.691-0.683-0.701 0.673c-0.662 0.631-1.758 0.608-2.375-0.029l-0.652-0.677-0.715 0.611c-1.089 0.927-2.494 0.267-2.816-0.872l-0.248-0.872-0.891 0.16c-1.325 0.238-2.431-1.168-1.896-2.519l0.322-0.814-0.764-0.427c-1.163-0.652-1.228-2.504 0.019-3.205l0.764-0.428-0.322-0.814c-0.535-1.344 0.574-2.752 1.912-2.519l0.885 0.158 0.252-0.861c0.346-1.189 1.797-1.744 2.803-0.854l0.715 0.634 0.666-0.684c0.619-0.639 1.726-0.661 2.348-0.043l0.693 0.686 0.703-0.673c0.643-0.617 1.703-0.618 2.354 0.001l0.691 0.66 0.691-0.662c0.656-0.628 1.725-0.638 2.373 0.030l0.652 0.675 0.715-0.609c1.087-0.929 2.494-0.266 2.816 0.872l0.248 0.872 0.891-0.16c1.328-0.241 2.429 1.172 1.896 2.519l-0.323 0.814 0.764 0.428c1.164 0.652 1.227 2.504-0.019 3.205zM37.010 11.693c-0.109 0.193-0.309 0.307-0.531 0.307h-6.694c0.009-0.871-0.259-1.729-0.804-2.417-0.674-0.876-1.674-1.394-2.736-1.447-0.069-0.13-0.162-0.242-0.244-0.362v-4.774c0-0.552 0.449-1 1-1s1 0.448 1 1v1h5c0.551 0 1 0.448 1 1v1.823l3.449 1.697c0.34 0.167 0.551 0.506 0.551 0.884 0 0.205-0.209 0.919-0.99 2.288z"></path>
</svg>
