<!-- Generated by IcoMoon.io -->
<svg version="1.1" xmlns="http://www.w3.org/2000/svg" width="24" height="32" viewBox="0 0 24 32">
<title>shekel-sign</title>
<path d="M14 9.5v13c0 0.276 0.224 0.5 0.5 0.5h2c0.276 0 0.5-0.224 0.5-0.5v-13c0-4.143-3.358-7.5-7.5-7.5h-8.5c-0.552 0-1 0.447-1 1v26.5c0 0.276 0.224 0.5 0.5 0.5h2c0.276 0 0.5-0.224 0.5-0.5v-24.5h6.5c2.485 0 4.5 2.014 4.5 4.5zM23.5 2h-2c-0.276 0-0.5 0.224-0.5 0.5v20c0 2.485-2.015 4.5-4.5 4.5h-6.5v-17.5c0-0.276-0.224-0.5-0.5-0.5h-2c-0.276 0-0.5 0.224-0.5 0.5v19.5c0 0.552 0.447 1 1 1h8.5c4.142 0 7.5-3.358 7.5-7.5v-20c0-0.276-0.224-0.5-0.5-0.5z"></path>
</svg>
