<!-- Generated by IcoMoon.io -->
<svg version="1.1" xmlns="http://www.w3.org/2000/svg" width="28" height="32" viewBox="0 0 28 32">
<title>shekel-sign-solid</title>
<path d="M15.5 10.5v10.5c0 0.552 0.447 1 1 1h3c0.552 0 1-0.448 1-1v-10.5c0-4.694-3.806-8.5-8.5-8.5h-10.5c-0.828 0-1.5 0.671-1.5 1.5v25.5c0 0.552 0.448 1 1 1h3c0.553 0 1-0.448 1-1v-22h7c1.933 0 3.5 1.567 3.5 3.5zM27 2h-3c-0.552 0-1 0.447-1 1v18.5c0 1.933-1.567 3.5-3.5 3.5h-7v-14c0-0.553-0.447-1-1-1h-3c-0.553 0-1 0.447-1 1v17.5c0 0.828 0.672 1.5 1.5 1.5h10.5c4.694 0 8.5-3.806 8.5-8.5v-18.5c0-0.553-0.448-1-1-1z"></path>
</svg>
