<!-- Generated by IcoMoon.io -->
<svg version="1.1" xmlns="http://www.w3.org/2000/svg" width="28" height="32" viewBox="0 0 28 32">
<title>shield-cross-solid</title>
<path d="M26.277 5.231l-11.2-5c-0.689-0.307-1.464-0.307-2.154 0l-11.2 5c-1.043 0.466-1.723 1.558-1.723 2.769 0 12.406 6.679 20.982 12.923 23.769 0.689 0.308 1.464 0.308 2.154 0 4.994-2.229 12.923-9.939 12.923-23.769 0-1.211-0.68-2.304-1.723-2.769zM23.381 14h-7.381v12.517c-0.709 0.558-1.391 1.008-2.004 1.331-0.668-0.344-1.335-0.791-1.996-1.301v-12.547h-7.325c-0.274-1.266-0.461-2.599-0.556-4h7.881v-4.977l2-0.893 2 0.893v4.977h7.921c-0.092 1.42-0.275 2.754-0.541 4z"></path>
</svg>
