<!-- Generated by IcoMoon.io -->
<svg version="1.1" xmlns="http://www.w3.org/2000/svg" width="32" height="32" viewBox="0 0 32 32">
<title>shield-virus-solid</title>
<path d="M14 12c-0.552 0-1 0.448-1 1s0.448 1 1 1c0.552 0 1-0.448 1-1v0c0-0.552-0.448-1-1-1v0zM29.156 5.23l-12-5c-0.341-0.133-0.735-0.216-1.147-0.23l-0.006-0c-0.418 0.014-0.813 0.097-1.178 0.238l0.025-0.008-12 5c-1.095 0.462-1.849 1.527-1.849 2.768 0 0.001 0 0.002 0 0.003v-0c0 12.406 7.156 20.983 13.844 23.77 0.341 0.146 0.737 0.23 1.153 0.23s0.813-0.085 1.173-0.238l-0.020 0.007c5.355-2.232 13.849-9.939 13.849-23.77 0-0.001 0-0.001 0-0.002 0-1.24-0.752-2.303-1.824-2.761l-0.020-0.007zM24 16h-0.758c-1.782 0-2.674 2.154-1.414 3.414l0.536 0.536c0.181 0.181 0.293 0.431 0.293 0.707 0 0.552-0.448 1-1 1-0.276 0-0.526-0.112-0.707-0.293v0l-0.536-0.536c-1.26-1.26-3.414-0.367-3.414 1.414v0.758c0 0.552-0.448 1-1 1s-1-0.448-1-1v0-0.758c0-1.782-2.154-2.674-3.414-1.414l-0.536 0.536c-0.181 0.181-0.431 0.293-0.707 0.293-0.552 0-1-0.448-1-1 0-0.276 0.112-0.526 0.293-0.707v0l0.536-0.536c1.26-1.26 0.367-3.414-1.414-3.414h-0.758c-0.552 0-1-0.448-1-1s0.448-1 1-1v0h0.758c1.782 0 2.674-2.154 1.414-3.414l-0.536-0.536c-0.181-0.181-0.293-0.431-0.293-0.707 0-0.552 0.448-1 1-1 0.276 0 0.526 0.112 0.707 0.293v0l0.536 0.536c1.26 1.26 3.414 0.367 3.414-1.414v-0.758c0-0.552 0.448-1 1-1s1 0.448 1 1v0 0.758c0 1.782 2.154 2.674 3.414 1.414l0.536-0.536c0.181-0.181 0.431-0.293 0.707-0.293 0.552 0 1 0.448 1 1 0 0.276-0.112 0.526-0.293 0.707v0l-0.536 0.536c-1.26 1.26-0.367 3.414 1.414 3.414h0.758c0.552 0 1 0.448 1 1s-0.448 1-1 1v0zM18 16c-0.552 0-1 0.448-1 1s0.448 1 1 1c0.552 0 1-0.448 1-1v0c0-0.552-0.448-1-1-1v0z"></path>
</svg>
