<!-- Generated by IcoMoon.io -->
<svg version="1.1" xmlns="http://www.w3.org/2000/svg" width="32" height="32" viewBox="0 0 32 32">
<title>shield-virus</title>
<path d="M17 15c-0.552 0-1 0.448-1 1s0.448 1 1 1c0.552 0 1-0.448 1-1v0c0-0.552-0.448-1-1-1v0zM29.156 5.23l-12-5c-0.341-0.133-0.735-0.216-1.147-0.23l-0.006-0c-0.418 0.014-0.813 0.097-1.178 0.238l0.025-0.008-12 5c-1.095 0.462-1.849 1.527-1.849 2.768 0 0.001 0 0.002 0 0.003v-0c0 12.406 7.156 20.983 13.844 23.77 0.341 0.145 0.737 0.23 1.153 0.23s0.813-0.085 1.173-0.237l-0.020 0.007c5.355-2.232 13.849-9.939 13.849-23.77 0-0.001 0-0.001 0-0.002 0-1.24-0.752-2.303-1.824-2.761l-0.020-0.007zM16.383 29.923c-0.114 0.048-0.246 0.077-0.385 0.077s-0.271-0.028-0.392-0.079l0.007 0.002c-6.075-2.531-12.613-10.473-12.613-21.923 0-0.001 0-0.001 0-0.002 0-0.414 0.253-0.768 0.612-0.918l0.007-0.002 11.991-4.998c0.114-0.038 0.248-0.066 0.386-0.079l0.008-0.001c0.142 0.013 0.272 0.040 0.397 0.079l-0.014-0.004 12 5c0.363 0.157 0.612 0.511 0.613 0.924v0c0 13.182-8.254 20.105-12.617 21.923zM24 14h-0.758c-1.782 0-2.674-2.154-1.414-3.414l0.536-0.536c0.181-0.181 0.293-0.431 0.293-0.707 0-0.552-0.448-1-1-1-0.276 0-0.526 0.112-0.707 0.293v0l-0.536 0.536c-0.356 0.364-0.852 0.589-1.4 0.589v0c-1.028 0-2.014-0.798-2.014-2.004v-0.758c0-0.552-0.448-1-1-1s-1 0.448-1 1v0 0.758c0 1.206-0.986 2.004-2.014 2.004-0.548-0-1.044-0.226-1.4-0.589l-0-0-0.536-0.536c-0.181-0.181-0.431-0.293-0.707-0.293-0.552 0-1 0.448-1 1 0 0.276 0.112 0.526 0.293 0.707v0l0.536 0.536c1.26 1.26 0.367 3.414-1.414 3.414h-0.758c-0.552 0-1 0.448-1 1s0.448 1 1 1v0h0.758c1.782 0 2.674 2.154 1.414 3.414l-0.536 0.536c-0.181 0.181-0.293 0.431-0.293 0.707 0 0.552 0.448 1 1 1 0.276 0 0.526-0.112 0.707-0.293v0l0.536-0.536c0.356-0.364 0.851-0.589 1.399-0.589 0 0 0 0 0.001 0h-0c1.028 0 2.014 0.798 2.014 2.004v0.758c0 0.552 0.448 1 1 1s1-0.448 1-1v0-0.758c0-1.206 0.986-2.004 2.014-2.004 0.548 0 1.044 0.226 1.4 0.589l0 0 0.536 0.536c0.181 0.181 0.431 0.293 0.707 0.293 0.552 0 1-0.448 1-1 0-0.276-0.112-0.526-0.293-0.707v0l-0.536-0.536c-1.26-1.26-0.367-3.414 1.414-3.414h0.758c0.552 0 1-0.448 1-1s-0.448-1-1-1v0zM19.547 16.469c-0.192 0.453-0.304 0.98-0.304 1.532 0 0.086 0.003 0.171 0.008 0.255l-0.001-0.012c-0.077-0.004-0.155-0.006-0.233-0.006-0.002 0-0.004 0-0.006 0-1.065 0-2.034 0.414-2.754 1.090l0.002-0.002c-0.093 0.086-0.179 0.176-0.262 0.268-0.739-0.834-1.812-1.356-3.007-1.356-0.001 0-0.002 0-0.003 0h0c-0.078 0-0.156 0-0.233 0.007 0.004-0.070 0.007-0.152 0.007-0.234 0-1.196-0.522-2.271-1.351-3.008l-0.004-0.004c0.83-0.74 1.35-1.813 1.35-3.007 0-0.084-0.003-0.167-0.008-0.249l0.001 0.011c0.077 0.004 0.155 0.006 0.233 0.006 0.001 0 0.003 0 0.005 0 1.198 0 2.273-0.525 3.008-1.358l0.004-0.004c0.739 0.837 1.814 1.363 3.012 1.363 0.001 0 0.002 0 0.002 0h-0c0.078 0 0.156 0 0.233-0.006-0.004 0.070-0.007 0.153-0.007 0.236 0 1.195 0.521 2.269 1.349 3.006l0.004 0.004c-0.447 0.398-0.802 0.888-1.036 1.443l-0.010 0.026zM15 13c-0.552 0-1 0.448-1 1s0.448 1 1 1c0.552 0 1-0.448 1-1v0c0-0.552-0.448-1-1-1v0z"></path>
</svg>
