<!-- Generated by IcoMoon.io -->
<svg version="1.1" xmlns="http://www.w3.org/2000/svg" width="32" height="32" viewBox="0 0 32 32">
<title>shield-check</title>
<path d="M29.156 5.231l-12-5c-0.341-0.145-0.737-0.23-1.153-0.23s-0.812 0.084-1.173 0.237l0.020-0.007-12 5c-1.119 0.463-1.85 1.556-1.85 2.769 0 12.406 7.156 20.981 13.844 23.769 0.738 0.306 1.569 0.306 2.306 0 5.356-2.231 13.85-9.938 13.85-23.769 0-1.213-0.731-2.306-1.844-2.769zM16.387 29.925c-0.25 0.1-0.525 0.1-0.769 0-6.119-2.425-12.619-10.925-12.619-21.925 0-0.406 0.244-0.769 0.612-0.925l12-5c0.244-0.1 0.525-0.1 0.769 0l12 5c0.375 0.156 0.619 0.519 0.613 0.925 0.006 11-6.494 19.5-12.606 21.925zM24.9 9.613c-0.294-0.294-0.769-0.294-1.063-0.006l-10.213 10.131-4.313-4.344c-0.294-0.294-0.769-0.294-1.063-0.006l-0.531 0.531c-0.294 0.294-0.294 0.769-0.006 1.063l5.369 5.413c0.294 0.294 0.769 0.294 1.063 0.006l11.281-11.188c0.294-0.294 0.294-0.769 0.006-1.063z"></path>
</svg>
