<!-- Generated by IcoMoon.io -->
<svg version="1.1" xmlns="http://www.w3.org/2000/svg" width="28" height="32" viewBox="0 0 28 32">
<title>shield-cross</title>
<path d="M26.277 5.231l-11.2-5c-0.344-0.154-0.711-0.231-1.077-0.231s-0.732 0.077-1.077 0.231l-11.2 5c-1.043 0.466-1.723 1.558-1.723 2.769 0 12.406 6.679 20.982 12.923 23.769 0.344 0.154 0.711 0.231 1.077 0.231s0.732-0.077 1.077-0.231c4.994-2.229 12.923-9.939 12.923-23.769 0-1.211-0.68-2.304-1.723-2.769zM2 8c0-0.42 0.216-0.799 0.539-0.943l8.461-3.777v5.721h-8.967c-0.011-0.334-0.033-0.66-0.033-1zM11 28.294c-3.486-2.617-6.721-7.196-8.179-13.294h8.179v13.294zM17 28.259v-13.259h8.205c-1.558 6.574-5.135 10.904-8.205 13.259zM25.599 13h-10.599v16.574c-0.256 0.139-0.504 0.264-0.738 0.369-0.098 0.044-0.293 0.102-0.523 0-0.245-0.109-0.492-0.242-0.738-0.372v-16.571h-10.582c-0.090-0.501-0.181-1.185-0.25-1.877l-0.010-0.123h10.841v-8.613l0.738-0.329c0.23-0.103 0.424-0.044 0.523 0l0.739 0.329v8.613h10.846c-0.064 0.684-0.143 1.354-0.247 2zM25.964 9h-8.964v-5.721l8.462 3.777c0.322 0.144 0.538 0.522 0.538 0.943 0 0.344-0.026 0.665-0.036 1z"></path>
</svg>
