<!-- Generated by IcoMoon.io -->
<svg version="1.1" xmlns="http://www.w3.org/2000/svg" width="32" height="32" viewBox="0 0 32 32">
<title>shield-alt-solid</title>
<path d="M29.156 5.231l-12-5c-0.341-0.145-0.737-0.23-1.153-0.23s-0.812 0.084-1.173 0.237l0.020-0.007-12 5c-1.119 0.463-1.85 1.556-1.85 2.769 0 12.406 7.156 20.981 13.844 23.769 0.738 0.306 1.569 0.306 2.306 0 5.356-2.231 13.85-9.938 13.85-23.769 0-1.213-0.731-2.306-1.844-2.769zM16.006 27.894l-0.006-23.813 10.994 4.581c-0.206 9.462-5.131 16.319-10.988 19.231z"></path>
</svg>
