<!-- Generated by IcoMoon.io -->
<svg version="1.1" xmlns="http://www.w3.org/2000/svg" width="40" height="32" viewBox="0 0 40 32">
<title>ship</title>
<path d="M30 22.88l5.324-4.88c1.129-1.035 0.771-2.778-0.536-3.338l-4.788-2.052v-7.61c0-0.552-0.448-1-1-1h-3v-2.5c0-0.828-0.672-1.5-1.5-1.5h-9c-0.828 0-1.5 0.672-1.5 1.5v2.5h-3c-0.552 0-1 0.448-1 1v7.61l-4.753 2.037c-1.405 0.602-1.648 2.365-0.598 3.327l5.351 4.905c0 2.256-3.184 7.12-9.25 7.12-0.414 0-0.75 0.336-0.75 0.75v0.5c0 0.414 0.336 0.75 0.75 0.75 4.093 0 7.332-1.811 9.422-4.572 0.643 2.621 3.011 4.572 5.828 4.572h8c2.816 0 5.185-1.951 5.828-4.572 2.102 2.776 5.349 4.572 9.422 4.572 0.414 0 0.75-0.336 0.75-0.75v-0.5c0-0.414-0.336-0.75-0.75-0.75-5.851 0-9.25-4.674-9.25-7.12zM16 2h8v2h-8v-2zM12 6h16v5.753l-7.212-3.091c-0.232-0.102-0.503-0.162-0.788-0.162s-0.556 0.059-0.801 0.167l0.013-0.005-7.212 3.091v-5.753zM28 22v4c0 2.209-1.791 4-4 4h-8c-2.209 0-4-1.791-4-4v-4l-6-5.5 14-6 14 6-6 5.5z"></path>
</svg>
