<!-- Generated by IcoMoon.io -->
<svg version="1.1" xmlns="http://www.w3.org/2000/svg" width="40" height="32" viewBox="0 0 40 32">
<title>shipping-fast</title>
<path d="M17.5 12c0.275 0 0.5-0.225 0.5-0.5v-1c0-0.275-0.225-0.5-0.5-0.5h-15c-0.275 0-0.5 0.225-0.5 0.5v1c0 0.275 0.225 0.5 0.5 0.5h15zM39.5 24h-1.5v-6.756c0-1.050-0.425-2.081-1.175-2.825l-5.244-5.244c-0.738-0.75-1.769-1.175-2.825-1.175h-2.756v-3.087c0-1.606-1.387-2.913-3.087-2.913h-15.825c-1.7 0-3.088 1.306-3.088 2.913v1.088h-3.5c-0.275 0-0.5 0.225-0.5 0.5v1c0 0.275 0.225 0.5 0.5 0.5h15c0.275 0 0.5-0.225 0.5-0.5v-1c0-0.275-0.225-0.5-0.5-0.5h-9.5v-1.088c0-0.506 0.487-0.913 1.088-0.913h15.825c0.6 0 1.087 0.406 1.087 0.913v19.087h-11.025c-0.912-1.206-2.35-2-3.975-2-1.131 0-2.162 0.387-3 1.025v-5.025h-2v9c0 2.762 2.237 5 5 5s5-2.238 5-5c0-0.344-0.037-0.675-0.1-1h12.2c-0.069 0.325-0.1 0.656-0.1 1 0 2.762 2.238 5 5 5s5-2.238 5-5c0-0.344-0.038-0.675-0.1-1h3.6c0.275 0 0.5-0.225 0.5-0.5v-1c0-0.275-0.225-0.5-0.5-0.5zM9 30c-1.656 0-3-1.344-3-3s1.344-3 3-3 3 1.344 3 3-1.344 3-3 3zM26 10h2.756c0.525 0 1.044 0.213 1.413 0.588l5.244 5.244c0.050 0.050 0.069 0.119 0.112 0.175h-9.525v-6.006zM31 30c-1.656 0-3-1.344-3-3s1.344-3 3-3 3 1.344 3 3-1.344 3-3 3zM36 24h-1.025c-0.913-1.206-2.35-2-3.975-2s-3.063 0.794-3.975 2h-1.025v-6h10v6zM16 15.5v-1c0-0.275-0.225-0.5-0.5-0.5h-15c-0.275 0-0.5 0.225-0.5 0.5v1c0 0.275 0.225 0.5 0.5 0.5h15c0.275 0 0.5-0.225 0.5-0.5z"></path>
</svg>
