<!-- Generated by IcoMoon.io -->
<svg version="1.1" xmlns="http://www.w3.org/2000/svg" width="40" height="32" viewBox="0 0 40 32">
<title>shipping-timed</title>
<path d="M13 6c-4.137 0-7.5 3.363-7.5 7.5s3.363 7.5 7.5 7.5 7.5-3.363 7.5-7.5-3.363-7.5-7.5-7.5zM13 19c-3.031 0-5.5-2.469-5.5-5.5s2.469-5.5 5.5-5.5 5.5 2.469 5.5 5.5-2.469 5.5-5.5 5.5zM15.5 14h-1.5v-3.5c0-0.275-0.225-0.5-0.5-0.5h-1c-0.275 0-0.5 0.225-0.5 0.5v5c0 0.275 0.225 0.5 0.5 0.5h3c0.275 0 0.5-0.225 0.5-0.5v-1c0-0.275-0.225-0.5-0.5-0.5zM39.5 24h-1.5v-6.756c0-1.050-0.425-2.081-1.175-2.825l-5.244-5.244c-0.738-0.75-1.769-1.175-2.825-1.175h-2.756v-3.087c0-1.606-1.387-2.913-3.087-2.913h-19.825c-1.7 0-3.087 1.306-3.087 2.913v18.175c0 1.606 1.387 2.913 3.087 2.913h1.013c-0.069 0.325-0.1 0.656-0.1 1 0 2.762 2.237 5 5 5s5-2.238 5-5c0-0.344-0.037-0.675-0.1-1h12.2c-0.069 0.325-0.1 0.656-0.1 1 0 2.762 2.238 5 5 5s5-2.238 5-5c0-0.344-0.038-0.675-0.1-1h3.6c0.275 0 0.5-0.225 0.5-0.5v-1c0-0.275-0.225-0.5-0.5-0.5zM9 30c-1.656 0-3-1.344-3-3s1.344-3 3-3 3 1.344 3 3-1.344 3-3 3zM24 24h-11.025c-0.912-1.206-2.35-2-3.975-2s-3.063 0.794-3.975 2h-1.938c-0.6 0-1.087-0.406-1.087-0.913v-18.175c0-0.506 0.487-0.913 1.087-0.913h19.825c0.6 0 1.087 0.406 1.087 0.913v19.087zM26 10h2.756c0.525 0 1.044 0.213 1.413 0.588l5.244 5.244c0.050 0.050 0.069 0.119 0.112 0.175h-9.525v-6.006zM31 30c-1.656 0-3-1.344-3-3s1.344-3 3-3 3 1.344 3 3-1.344 3-3 3zM36 24h-1.025c-0.913-1.206-2.35-2-3.975-2s-3.063 0.794-3.975 2h-1.025v-6h10v6z"></path>
</svg>
