<!-- Generated by IcoMoon.io -->
<svg version="1.1" xmlns="http://www.w3.org/2000/svg" width="40" height="32" viewBox="0 0 40 32">
<title>ship-solid</title>
<path d="M31.038 23.29l4.376-4.376c1.056-1.056 0.621-2.861-0.802-3.318l-2.612-0.84v-8.756c0-1.105-0.895-2-2-2h-4v-2.5c0-0.828-0.672-1.5-1.5-1.5h-9c-0.828 0-1.5 0.672-1.5 1.5v2.5h-4c-1.105 0-2 0.895-2 2v8.756l-2.612 0.84c-1.422 0.457-1.86 2.261-0.802 3.318l4.376 4.376c-1.097 2.728-3.612 4.71-7.462 4.71-0.828 0-1.5 0.672-1.5 1.5v1c0 0.828 0.672 1.5 1.5 1.5 3.814 0 6.719-1.288 8.954-3.712 0.901 2.177 3.048 3.712 5.546 3.712h8c2.499 0 4.645-1.535 5.546-3.712 2.235 2.424 5.139 3.712 8.954 3.712 0.828 0 1.5-0.672 1.5-1.5v-1c0-0.828-0.672-1.5-1.5-1.5-3.801 0-6.346-1.938-7.462-4.71zM12 8h16v5.471l-7.388-2.375c-0.183-0.061-0.393-0.096-0.612-0.096s-0.429 0.035-0.626 0.1l0.014-0.004-7.388 2.375v-5.471z"></path>
</svg>
