<!-- Generated by IcoMoon.io -->
<svg version="1.1" xmlns="http://www.w3.org/2000/svg" width="40" height="32" viewBox="0 0 40 32">
<title>shipping-timed-solid</title>
<path d="M15.5 10h-1.5v-3.5c0-0.275-0.225-0.5-0.5-0.5h-1c-0.275 0-0.5 0.225-0.5 0.5v5c0 0.275 0.225 0.5 0.5 0.5h3c0.275 0 0.5-0.225 0.5-0.5v-1c0-0.275-0.225-0.5-0.5-0.5zM39 22h-1v-6.756c0-0.794-0.319-1.556-0.881-2.119l-6.244-6.244c-0.563-0.563-1.325-0.881-2.119-0.881h-2.756v-3c0-1.656-1.344-3-3-3h-20c-1.656 0-3 1.344-3 3v20c0 1.656 1.344 3 3 3h1c0 3.313 2.688 6 6 6s6-2.688 6-6h8c0 3.313 2.688 6 6 6s6-2.688 6-6h3c0.55 0 1-0.45 1-1v-2c0-0.55-0.45-1-1-1zM10 29c-1.656 0-3-1.344-3-3s1.344-3 3-3 3 1.344 3 3-1.344 3-3 3zM13 18c-3.869 0-7-3.131-7-7s3.131-7 7-7 7 3.131 7 7-3.131 7-7 7zM30 29c-1.656 0-3-1.344-3-3s1.344-3 3-3 3 1.344 3 3-1.344 3-3 3zM35 16h-9v-7h2.756l6.244 6.244v0.756z"></path>
</svg>
