<!-- Generated by IcoMoon.io -->
<svg version="1.1" xmlns="http://www.w3.org/2000/svg" width="32" height="32" viewBox="0 0 32 32">
<title>shish-kebab-solid</title>
<path d="M7.909 15.974c-0.346-0.346-0.824-0.56-1.353-0.56s-1.006 0.214-1.353 0.56v0l-2.642 2.644c-0.346 0.346-0.561 0.824-0.561 1.353s0.214 1.007 0.561 1.353l8.114 8.114c0.346 0.346 0.824 0.561 1.353 0.561s1.007-0.214 1.353-0.561l2.644-2.644c0.346-0.346 0.56-0.824 0.56-1.352s-0.214-1.006-0.56-1.352v0zM14.673 9.211c-0.346-0.346-0.825-0.56-1.353-0.56s-1.007 0.214-1.353 0.56l-2.644 2.644c-0.346 0.346-0.56 0.824-0.56 1.352s0.214 1.006 0.56 1.352l8.114 8.116c0.346 0.346 0.824 0.56 1.352 0.56s1.006-0.214 1.352-0.56l2.644-2.644c0.346-0.346 0.561-0.824 0.561-1.353s-0.214-1.007-0.561-1.353v0zM0.284 29.595c-0.176 0.175-0.285 0.418-0.285 0.686s0.109 0.51 0.285 0.686l0.75 0.75c0.175 0.176 0.418 0.285 0.686 0.285s0.51-0.109 0.686-0.285l3.861-3.858-2.122-2.121zM31.951 5.254c-0.236-1.857-1.316-3.48-2.964-4.451-0.856-0.505-1.886-0.804-2.986-0.804-1.161 0-2.244 0.333-3.16 0.908l0.025-0.015c-2.666 1.669-3.634 4.982-2.241 7.787 0.090 0.183 0.142 0.447 0 0.593l-1.529 1.528 2.121 2.121 1.53-1.529c1.045-1.046 1.268-2.634 0.568-4.045-0.601-1.214-0.375-3.016 1.226-3.96 0.418-0.254 0.923-0.405 1.463-0.405 0.517 0 1.002 0.138 1.42 0.379l-0.014-0.007c0.889 0.5 1.447 1.313 1.571 2.278 0.016 0.116 0.025 0.25 0.025 0.386 0 0.55-0.148 1.066-0.408 1.509l0.008-0.014c-0.232 0.399-0.207 0.895 0.119 1.222l0.768 0.768c0.42 0.42 1.136 0.381 1.471-0.109 0.65-0.94 1.038-2.104 1.038-3.359 0-0.275-0.019-0.546-0.055-0.811l0.003 0.031z"></path>
</svg>
