<!-- Generated by IcoMoon.io -->
<svg version="1.1" xmlns="http://www.w3.org/2000/svg" width="32" height="32" viewBox="0 0 32 32">
<title>shish-kebab</title>
<path d="M31.951 5.261c-0.234-1.859-1.318-3.484-2.97-4.457-0.854-0.505-1.882-0.803-2.98-0.803-1.12 0-2.167 0.31-3.060 0.849l0.027-0.015c-1.481 0.892-2.489 2.289-2.838 3.938s0.011 3.371 0.929 4.773l-1.611 1.61-2.652-2.653c-0.708-0.708-1.686-1.147-2.767-1.147s-2.059 0.438-2.767 1.147l-2.644 2.644c-0.708 0.705-1.146 1.681-1.146 2.759 0 0.077 0.002 0.154 0.007 0.23l-0-0.011c-0.064-0.004-0.138-0.006-0.213-0.006-1.080 0-2.057 0.439-2.763 1.148l-2.644 2.644c-0.707 0.709-1.144 1.687-1.144 2.767s0.437 2.058 1.144 2.767l2.644 2.646-4.354 4.347c-0.091 0.090-0.147 0.216-0.147 0.354s0.056 0.263 0.147 0.354v0l0.707 0.707c0.091 0.091 0.216 0.147 0.354 0.147s0.263-0.056 0.354-0.147v0l4.353-4.349 2.642 2.642c0.708 0.709 1.686 1.147 2.767 1.147s2.059-0.438 2.767-1.147l2.644-2.644c0.709-0.706 1.148-1.684 1.148-2.764 0-0.075-0.002-0.15-0.006-0.224l0 0.010c0.065 0.004 0.142 0.006 0.219 0.006 1.079 0 2.055-0.438 2.761-1.147l2.643-2.644c0.709-0.708 1.147-1.686 1.147-2.767s-0.438-2.059-1.147-2.767l-2.634-2.634 1.611-1.609c0.678-0.678 0.817-1.731 0.346-2.504-0.394-0.647-0.758-1.331-0.813-2.087-0.112-1.58 0.625-2.97 1.928-3.784 1.193-0.745 2.753-0.79 3.975-0.092 1.145 0.655 1.897 1.756 2.058 3.019 0.021 0.153 0.033 0.331 0.033 0.511 0 0.94-0.326 1.803-0.871 2.484l0.006-0.008c-0.075 0.087-0.121 0.201-0.121 0.326 0 0.135 0.053 0.257 0.14 0.347l0.715 0.715c0.091 0.092 0.217 0.149 0.356 0.149 0.147 0 0.279-0.063 0.371-0.165l0-0c0.873-1.029 1.403-2.372 1.403-3.839 0-0.272-0.018-0.54-0.054-0.803l0.003 0.031zM15.318 26.089l-2.644 2.644c-0.346 0.346-0.824 0.56-1.352 0.56s-1.006-0.214-1.352-0.56l-6.702-6.702c-0.346-0.346-0.56-0.824-0.56-1.352s0.214-1.006 0.56-1.352l2.644-2.644c0.346-0.346 0.824-0.561 1.353-0.561s1.006 0.214 1.353 0.561v0l6.702 6.702c0.346 0.346 0.561 0.824 0.561 1.352s-0.214 1.006-0.561 1.352v0zM22.082 16.62c0.346 0.346 0.56 0.825 0.56 1.353s-0.214 1.007-0.56 1.353l-2.644 2.644c-0.346 0.346-0.825 0.56-1.353 0.56s-1.007-0.214-1.353-0.56l-6.701-6.702c-0.346-0.346-0.56-0.825-0.56-1.353s0.214-1.007 0.56-1.353l2.644-2.644c0.346-0.346 0.825-0.56 1.353-0.56s1.007 0.214 1.353 0.56v0z"></path>
</svg>
