<!-- Generated by IcoMoon.io -->
<svg version="1.1" xmlns="http://www.w3.org/2000/svg" width="40" height="32" viewBox="0 0 40 32">
<title>shoe-prints</title>
<path d="M21.091 17c-2.182 0-4.76 0.879-6.546 2.143-1.549 1.097-2.783 2.143-6.546 2.143h-4c-2.209 0-4 1.919-4 4.286s1.791 4.428 4 4.428h4l3.596 0.926c1.993 0.593 4.040 1.074 6.736 1.074 6.909 0 13.669-3.447 13.669-8.571 0-4.286-5.261-6.429-10.909-6.429zM7 28h-3c-1.066 0-2-1.135-2-2.429 0-1.261 0.897-2.286 2-2.286h3v4.714zM12.094 28.99l-3.094-0.797v-4.944c3.458-0.184 5.047-1.291 6.442-2.289 5.703-4.061 14.558-1.164 14.558 2.469 0 3.884-7.593 8.62-17.906 5.561zM26.331 0c-2.714 0-4.761 0.486-6.736 1.073l-3.595 0.927h-4c-2.209 0-4 2.061-4 4.429s1.791 4.286 4 4.286h4c3.762 0 4.996 1.046 6.546 2.143 1.786 1.264 4.363 2.143 6.546 2.143 5.647 0 10.909-2.143 10.909-6.429 0-5.081-6.68-8.571-13.669-8.571zM15 8.714h-3c-1.102 0-2-1.025-2-2.286 0-1.294 0.934-2.429 2-2.429h3v4.714zM29.091 13c-1.724 0-3.89-0.713-5.39-1.775-1.482-1.056-3.047-2.278-6.701-2.473v-4.945l3.166-0.817c1.837-0.547 3.692-0.991 6.165-0.991 3.256 0 11.669 1.626 11.669 6.571 0 2.908-4.482 4.429-8.909 4.429z"></path>
</svg>
