<!-- Generated by IcoMoon.io -->
<svg version="1.1" xmlns="http://www.w3.org/2000/svg" width="40" height="32" viewBox="0 0 40 32">
<title>shoe-prints-solid</title>
<path d="M12 10h2v-8h-2c-2.209 0-4 1.791-4 4s1.791 4 4 4zM0 26c0 2.209 1.791 4 4 4h2v-8h-2c-2.209 0-4 1.791-4 4zM21.091 18c-2.182 0-4.76 0.82-6.546 2-1.549 1.024-2.783 2-6.546 2v8l3.596 0.998c1.638 0.455 3.313 0.82 5.019 0.941 2.043 0.144 4.1 0.042 6.099-0.387 6.843-1.47 9.286-4.725 9.286-7.551 0-4-5.261-6-10.909-6zM30.714 0.449c-1.999-0.429-4.056-0.532-6.099-0.388-1.706 0.121-3.381 0.486-5.019 0.94l-3.596 0.998v8c3.762 0 4.996 0.976 6.546 2 1.786 1.18 4.364 2 6.546 2 5.648 0 10.909-2 10.909-6 0-2.826-2.444-6.081-9.286-7.551z"></path>
</svg>
