<!-- Generated by IcoMoon.io -->
<svg version="1.1" xmlns="http://www.w3.org/2000/svg" width="36" height="32" viewBox="0 0 36 32">
<title>shopping-basket-solid</title>
<path d="M36 13.5v1c0 0.828-0.672 1.5-1.5 1.5h-0.5l-1.632 11.424c-0.211 1.478-1.477 2.576-2.97 2.576h-22.796c-1.493 0-2.759-1.098-2.97-2.576l-1.632-11.424h-0.5c-0.828 0-1.5-0.672-1.5-1.5v-1c0-0.828 0.672-1.5 1.5-1.5h4.209l6.674-9.176c0.65-0.893 1.9-1.091 2.794-0.441s1.091 1.9 0.441 2.794l-4.963 6.824h14.69l-4.963-6.824c-0.65-0.893-0.452-2.144 0.441-2.794s2.144-0.452 2.794 0.441l6.674 9.176h4.209c0.828 0 1.5 0.672 1.5 1.5zM19.5 24.5v-7c0-0.828-0.672-1.5-1.5-1.5s-1.5 0.672-1.5 1.5v7c0 0.828 0.672 1.5 1.5 1.5s1.5-0.672 1.5-1.5zM26.5 24.5v-7c0-0.828-0.672-1.5-1.5-1.5s-1.5 0.672-1.5 1.5v7c0 0.828 0.672 1.5 1.5 1.5s1.5-0.672 1.5-1.5zM12.5 24.5v-7c0-0.828-0.672-1.5-1.5-1.5s-1.5 0.672-1.5 1.5v7c0 0.828 0.672 1.5 1.5 1.5s1.5-0.672 1.5-1.5z"></path>
</svg>
