<!-- Generated by IcoMoon.io -->
<svg version="1.1" xmlns="http://www.w3.org/2000/svg" width="28" height="32" viewBox="0 0 28 32">
<title>shopping-bag-solid</title>
<path d="M22 10v-2c0-4.411-3.589-8-8-8s-8 3.589-8 8v2h-6v17c0 2.761 2.239 5 5 5h18c2.761 0 5-2.239 5-5v-17h-6zM10 8c0-2.206 1.794-4 4-4s4 1.794 4 4v2h-8v-2zM20 15.5c-0.828 0-1.5-0.672-1.5-1.5s0.672-1.5 1.5-1.5 1.5 0.672 1.5 1.5-0.672 1.5-1.5 1.5zM8 15.5c-0.828 0-1.5-0.672-1.5-1.5s0.672-1.5 1.5-1.5 1.5 0.672 1.5 1.5-0.672 1.5-1.5 1.5z"></path>
</svg>
