<!-- Generated by IcoMoon.io -->
<svg version="1.1" xmlns="http://www.w3.org/2000/svg" width="36" height="32" viewBox="0 0 36 32">
<title>shopping-basket</title>
<path d="M35.25 12h-4.805l-8.702-9.669c-0.369-0.41-1.002-0.444-1.412-0.074s-0.444 1.002-0.074 1.412l7.498 8.331h-19.509l7.498-8.331c0.369-0.41 0.336-1.043-0.074-1.412s-1.043-0.336-1.412 0.074l-8.702 9.669h-4.805c-0.414 0-0.75 0.336-0.75 0.75v0.5c0 0.414 0.336 0.75 0.75 0.75h1.028l1.863 13.413c0.206 1.483 1.474 2.587 2.971 2.587h22.776c1.497 0 2.766-1.104 2.971-2.587l1.863-13.413h1.028c0.414 0 0.75-0.336 0.75-0.75v-0.5c0-0.414-0.336-0.75-0.75-0.75zM30.378 27.138c-0.068 0.492-0.494 0.862-0.991 0.862h-22.776c-0.496 0-0.922-0.371-0.99-0.862l-1.825-13.138h28.406l-1.825 13.138zM19 17.5v7c0 0.552-0.448 1-1 1s-1-0.448-1-1v-7c0-0.552 0.448-1 1-1s1 0.448 1 1zM26 17.5v7c0 0.552-0.448 1-1 1s-1-0.448-1-1v-7c0-0.552 0.448-1 1-1s1 0.448 1 1zM12 17.5v7c0 0.552-0.448 1-1 1s-1-0.448-1-1v-7c0-0.552 0.448-1 1-1s1 0.448 1 1z"></path>
</svg>
