<!-- Generated by IcoMoon.io -->
<svg version="1.1" xmlns="http://www.w3.org/2000/svg" width="36" height="32" viewBox="0 0 36 32">
<title>shopping-cart</title>
<path d="M34.499 4h-26.419l-0.521-2.776c-0.133-0.709-0.752-1.224-1.474-1.224h-5.335c-0.414 0-0.75 0.336-0.75 0.75v0.5c0 0.414 0.336 0.75 0.75 0.75h4.92l4.37 23.309c-0.646 0.71-1.040 1.655-1.040 2.691 0 2.209 1.791 4 4 4s4-1.791 4-4c0-0.001 0-0.003 0-0.004 0-0.735-0.199-1.423-0.547-2.014l0.010 0.019h9.073c-0.337 0.572-0.536 1.261-0.536 1.996 0 0.002 0 0.003 0 0.005v-0c0 2.209 1.791 4 4 4s4-1.791 4-4c0-1.125-0.465-2.14-1.212-2.867-0.162-0.64-0.741-1.133-1.455-1.133h-18.503l-0.75-4h20.711c0.711 0 1.324-0.498 1.468-1.194l2.708-13c0.194-0.931-0.517-1.806-1.469-1.806zM15 28c0 1.103-0.897 2-2 2s-2-0.897-2-2 0.897-2 2-2 2 0.897 2 2zM29 30c-1.103 0-2-0.897-2-2s0.897-2 2-2 2 0.897 2 2-0.897 2-2 2zM31.385 18h-20.68l-2.25-12h25.43l-2.5 12z"></path>
</svg>
