<!-- Generated by IcoMoon.io -->
<svg version="1.1" xmlns="http://www.w3.org/2000/svg" width="32" height="32" viewBox="0 0 32 32">
<title>shovel-solid</title>
<path d="M31.269 6.024l-5.293-5.293c-0.974-0.974-2.561-0.974-3.535 0l-2.042 2.042c-1.184 1.184-1.828 2.769-1.828 4.409 0 0.408 0.040 0.821 0.122 1.231 0.109 0.543 0.297 1.053 0.533 1.533l-6.891 6.891-2.829-2.829c-0.781-0.781-2.047-0.781-2.828 0l-4.242 4.242c-3.124 3.124-2.829 11.314-1.414 12.728s9.604 1.71 12.728-1.414l4.243-4.242c0.781-0.781 0.781-2.047 0-2.828l-2.829-2.829 6.891-6.891c0.481 0.237 0.992 0.425 1.536 0.534 2.051 0.41 4.158-0.227 5.637-1.706l2.042-2.042c0.975-0.975 0.975-2.561 0-3.536zM26.399 8.773c-0.406 0.406-0.966 0.656-1.585 0.656-0.156 0-0.309-0.016-0.456-0.046l0.015 0.002c-0.889-0.179-1.579-0.869-1.758-1.761-0.146-0.739 0.082-1.494 0.613-2.024l0.981-0.981 3.172 3.172-0.981 0.981z"></path>
</svg>
