<!-- Generated by IcoMoon.io -->
<svg version="1.1" xmlns="http://www.w3.org/2000/svg" width="32" height="32" viewBox="0 0 32 32">
<title>shovel</title>
<path d="M31.347 5.383l-4.729-4.729c-0.436-0.436-1.008-0.653-1.58-0.653s-1.144 0.217-1.579 0.653l-1.825 1.824c-1.058 1.058-1.633 2.475-1.633 3.94 0 1.532 0.612 2.613 0.997 3.171l-7.956 7.955-3.536-3.536c-0.391-0.391-0.902-0.586-1.414-0.586s-1.024 0.195-1.414 0.586l-4.242 4.242c-3.124 3.124-2.828 11.314-1.414 12.728 0.617 0.617 2.524 1.021 4.737 1.021 2.859 0 6.229-0.674 7.991-2.436l4.242-4.242c0.781-0.781 0.781-2.047 0-2.828l-3.536-3.536 7.955-7.955c0.558 0.385 1.641 0.998 3.172 0.998 1.463 0 2.881-0.576 3.938-1.633l1.824-1.825c0.871-0.872 0.871-2.289 0.001-3.16zM12.335 28.151c-2.292 2.291-8.398 2.045-9.885 1.391-0.665-1.383-0.849-7.628 1.4-9.877l4.242-4.242 8.485 8.486-4.242 4.242zM29.933 7.128l-1.824 1.824c-3.299 3.299-8.381-1.74-5.060-5.060l1.825-1.825c0.091-0.091 0.24-0.091 0.331 0l4.729 4.73c0.090 0.091 0.090 0.24-0.001 0.331z"></path>
</svg>
