<!-- Generated by IcoMoon.io -->
<svg version="1.1" xmlns="http://www.w3.org/2000/svg" width="32" height="32" viewBox="0 0 32 32">
<title>shovel-snow-solid</title>
<path d="M31.45 4.519l-3.969-3.969c-0.731-0.731-1.919-0.731-2.65 0l-1.531 1.531c-0.887 0.888-1.369 2.075-1.369 3.306 0 0.306 0.031 0.612 0.094 0.925 0.081 0.406 0.225 0.787 0.4 1.15l-6.206 6.206-3.081-3.081c-0.706-0.706-1.831-0.781-2.619-0.169l-9.744 7.519c-0.95 0.731-1.038 2.131-0.188 2.975l10.5 10.5c0.85 0.85 2.244 0.756 2.975-0.188l7.525-9.738c0.613-0.794 0.538-1.913-0.169-2.619l-3.081-3.081 6.206-6.206c0.363 0.175 0.744 0.319 1.15 0.4 1.538 0.306 3.119-0.169 4.225-1.281l1.531-1.531c0.731-0.731 0.731-1.919 0-2.65zM7 22c-0.256 0-0.513-0.1-0.706-0.294-0.388-0.387-0.388-1.025 0-1.413l5-5c0.387-0.394 1.025-0.394 1.412 0 0.387 0.387 0.387 1.025 0 1.413l-5 5c-0.194 0.194-0.45 0.294-0.706 0.294zM16.706 20.706l-5 5c-0.194 0.194-0.45 0.294-0.706 0.294s-0.512-0.1-0.706-0.294c-0.387-0.387-0.387-1.025 0-1.413l5-5c0.387-0.387 1.025-0.387 1.413 0s0.394 1.025 0 1.413zM27.8 6.581c-0.4 0.4-0.969 0.569-1.519 0.456-0.669-0.131-1.188-0.65-1.319-1.319-0.106-0.556 0.063-1.119 0.456-1.519l0.738-0.737 2.381 2.381-0.738 0.737z"></path>
</svg>
