<!-- Generated by IcoMoon.io -->
<svg version="1.1" xmlns="http://www.w3.org/2000/svg" width="32" height="32" viewBox="0 0 32 32">
<title>shovel-snow</title>
<path d="M11.294 15.294l-5 5c-0.388 0.387-0.388 1.025 0 1.413 0.194 0.194 0.45 0.294 0.706 0.294s0.513-0.1 0.706-0.294l5-5c0.387-0.387 0.387-1.025 0-1.412-0.387-0.394-1.025-0.394-1.412 0zM10.294 25.706c0.194 0.194 0.45 0.294 0.706 0.294s0.512-0.1 0.706-0.294l5-5c0.387-0.387 0.387-1.025 0-1.413-0.387-0.394-1.025-0.394-1.412 0l-5 5c-0.394 0.387-0.394 1.025 0 1.413zM31.413 4.119l-3.531-3.531c-0.394-0.394-0.906-0.588-1.419-0.588s-1.025 0.194-1.413 0.588l-1.063 1.063c-1.512 1.513-1.712 3.831-0.625 5.569l-6.637 6.644-2.95-2.95c-0.606-0.606-1.406-0.912-2.206-0.912-0.669 0-1.344 0.213-1.906 0.65l-8.45 6.531c-1.488 1.15-1.631 3.344-0.3 4.675l9.231 9.231c0.613 0.613 1.412 0.912 2.206 0.912 0.925 0 1.85-0.413 2.469-1.212l6.531-8.45c0.962-1.244 0.85-3.006-0.262-4.113l-2.95-2.95 6.644-6.644c0.731 0.456 1.556 0.694 2.387 0.694 1.15 0 2.306-0.438 3.181-1.319l1.063-1.063c0.781-0.775 0.781-2.044 0-2.825zM19.669 19.637c0.4 0.4 0.438 1.031 0.094 1.475l-6.525 8.45c-0.213 0.275-0.537 0.438-0.887 0.438-0.175 0-0.506-0.044-0.794-0.331l-9.225-9.225c-0.313-0.313-0.337-0.675-0.325-0.863s0.081-0.544 0.431-0.813l8.45-6.531c0.25-0.194 0.512-0.231 0.681-0.231 0.3 0 0.581 0.119 0.794 0.331l7.306 7.3zM28.938 6.594c-0.475 0.475-1.1 0.731-1.769 0.731s-1.294-0.263-1.769-0.731c-0.475-0.475-0.731-1.1-0.731-1.769s0.262-1.294 0.731-1.769l1.056-1.063 3.544 3.544-1.063 1.056z"></path>
</svg>
