<!-- Generated by IcoMoon.io -->
<svg version="1.1" xmlns="http://www.w3.org/2000/svg" width="32" height="32" viewBox="0 0 32 32">
<title>shower</title>
<path d="M21 20c0.552 0 1-0.448 1-1s-0.448-1-1-1c-0.552 0-1 0.448-1 1v0c0 0.552 0.448 1 1 1v0zM23 12c-0.552 0-1 0.448-1 1s0.448 1 1 1c0.552 0 1-0.448 1-1v0c0-0.552-0.448-1-1-1v0zM23 18c0.552 0 1-0.448 1-1s-0.448-1-1-1c-0.552 0-1 0.448-1 1v0c0 0.552 0.448 1 1 1v0zM21 14c-0.552 0-1 0.448-1 1s0.448 1 1 1c0.552 0 1-0.448 1-1v0c0-0.552-0.448-1-1-1v0zM25 16c0.552 0 1-0.448 1-1s-0.448-1-1-1c-0.552 0-1 0.448-1 1v0c0 0.552 0.448 1 1 1v0zM27 14c0.552 0 1-0.448 1-1s-0.448-1-1-1c-0.552 0-1 0.448-1 1v0c0 0.552 0.448 1 1 1v0zM19 16c-0.552 0-1 0.448-1 1s0.448 1 1 1c0.552 0 1-0.448 1-1v0c0-0.552-0.448-1-1-1v0zM19 20c-0.552 0-1 0.448-1 1s0.448 1 1 1c0.552 0 1-0.448 1-1v0c0-0.552-0.448-1-1-1v0zM19 24c-0.552 0-1 0.448-1 1s0.448 1 1 1c0.552 0 1-0.448 1-1v0c0-0.552-0.448-1-1-1v0zM27 16c-0.552 0-1 0.448-1 1s0.448 1 1 1c0.552 0 1-0.448 1-1v0c0-0.552-0.448-1-1-1v0zM23.854 6.54l-0.707-0.708c-0.090-0.090-0.215-0.146-0.353-0.146s-0.263 0.056-0.353 0.146l-0.369 0.369c-1.264-1.356-3.061-2.202-5.056-2.202-1.581 0-3.039 0.532-4.203 1.426l0.016-0.012-1.465-1.464c-1.205-1.205-2.869-1.95-4.707-1.95-3.676 0-6.656 2.98-6.656 6.656 0 0 0 0.001 0 0.001v-0 20.843c0 0.276 0.224 0.5 0.5 0.5v0h1c0.276 0 0.5-0.224 0.5-0.5v0-20.843c0-0 0-0.001 0-0.001 0-2.572 2.085-4.656 4.656-4.656 1.286 0 2.45 0.521 3.293 1.364l1.464 1.464c-0.882 1.148-1.414 2.605-1.414 4.186 0 1.994 0.846 3.791 2.198 5.052l0.004 0.004-0.369 0.367c-0.090 0.090-0.146 0.215-0.146 0.353s0.056 0.263 0.146 0.353l0.707 0.707c0.090 0.090 0.215 0.146 0.353 0.146s0.263-0.056 0.353-0.146l10.607-10.602c0.091-0.091 0.148-0.216 0.148-0.355s-0.057-0.264-0.148-0.355l-0-0zM13.625 14.646c-0.997-0.903-1.622-2.201-1.625-3.646v-0.001c0.003-2.76 2.24-4.997 5-5h0c1.445 0.003 2.743 0.628 3.642 1.621l0.004 0.004zM31 12c-0.552 0-1 0.448-1 1s0.448 1 1 1c0.552 0 1-0.448 1-1v0c0-0.552-0.448-1-1-1v0zM29 14c-0.552 0-1 0.448-1 1s0.448 1 1 1c0.552 0 1-0.448 1-1v0c0-0.552-0.448-1-1-1v0zM21 22c-0.552 0-1 0.448-1 1s0.448 1 1 1c0.552 0 1-0.448 1-1v0c0-0.552-0.448-1-1-1v0zM23 20c-0.552 0-1 0.448-1 1s0.448 1 1 1c0.552 0 1-0.448 1-1v0c0-0.552-0.448-1-1-1v0zM25 18c-0.552 0-1 0.448-1 1s0.448 1 1 1c0.552 0 1-0.448 1-1v0c0-0.552-0.448-1-1-1v0z"></path>
</svg>
