<!-- Generated by IcoMoon.io -->
<svg version="1.1" xmlns="http://www.w3.org/2000/svg" width="32" height="32" viewBox="0 0 32 32">
<title>shower-solid</title>
<path d="M19 20c-0.552 0-1 0.448-1 1s0.448 1 1 1c0.552 0 1-0.448 1-1v0c0-0.552-0.448-1-1-1v0zM21 14c-0.552 0-1 0.448-1 1s0.448 1 1 1c0.552 0 1-0.448 1-1v0c0-0.552-0.448-1-1-1v0zM23 18c0.552 0 1-0.448 1-1s-0.448-1-1-1c-0.552 0-1 0.448-1 1v0c0 0.552 0.448 1 1 1v0zM21 20c0.552 0 1-0.448 1-1s-0.448-1-1-1c-0.552 0-1 0.448-1 1v0c0 0.552 0.448 1 1 1v0zM19 16c-0.552 0-1 0.448-1 1s0.448 1 1 1c0.552 0 1-0.448 1-1v0c0-0.552-0.448-1-1-1v0zM27 14c0.552 0 1-0.448 1-1s-0.448-1-1-1c-0.552 0-1 0.448-1 1v0c0 0.552 0.448 1 1 1v0zM24 15c0 0.552 0.448 1 1 1s1-0.448 1-1c0-0.552-0.448-1-1-1v0c-0.552 0-1 0.448-1 1v0zM23 12c-0.552 0-1 0.448-1 1s0.448 1 1 1c0.552 0 1-0.448 1-1v0c0-0.552-0.448-1-1-1v0zM29 14c-0.552 0-1 0.448-1 1s0.448 1 1 1c0.552 0 1-0.448 1-1v0c0-0.552-0.448-1-1-1v0zM31 12c-0.552 0-1 0.448-1 1s0.448 1 1 1c0.552 0 1-0.448 1-1v0c0-0.552-0.448-1-1-1v0zM27 16c-0.552 0-1 0.448-1 1s0.448 1 1 1c0.552 0 1-0.448 1-1v0c0-0.552-0.448-1-1-1v0zM25 18c-0.552 0-1 0.448-1 1s0.448 1 1 1c0.552 0 1-0.448 1-1v0c0-0.552-0.448-1-1-1v0zM21 22c-0.552 0-1 0.448-1 1s0.448 1 1 1c0.552 0 1-0.448 1-1v0c0-0.552-0.448-1-1-1v0zM19 24c-0.552 0-1 0.448-1 1s0.448 1 1 1c0.552 0 1-0.448 1-1v0c0-0.552-0.448-1-1-1v0zM23 20c-0.552 0-1 0.448-1 1s0.448 1 1 1c0.552 0 1-0.448 1-1v0c0-0.552-0.448-1-1-1v0zM24.353 6.353l-0.706-0.707c-0.181-0.181-0.431-0.293-0.707-0.293s-0.526 0.112-0.707 0.293v0l-0.354 0.354c-1.254-1.236-2.977-2-4.878-2v0c-1.203 0-2.317 0.331-3.306 0.866l-0.625-0.625c-1.369-1.375-3.261-2.23-5.352-2.241h-0.002c-4.247-0.031-7.715 3.807-7.715 8.053v18.947c0 0.552 0.448 1 1 1v0h2c0.552 0 1-0.448 1-1v0-19.1c0-1.884 1.313-3.638 3.188-3.871 0.142-0.020 0.307-0.031 0.474-0.031 1.010 0 1.923 0.41 2.584 1.073l0.625 0.625c-0.539 0.986-0.871 2.101-0.871 3.304 0 1.901 0.764 3.624 2.001 4.879l-0.001-0.001-0.354 0.354c-0.181 0.181-0.293 0.431-0.293 0.707s0.112 0.526 0.293 0.707l0.706 0.707c0.181 0.181 0.431 0.293 0.707 0.293s0.526-0.112 0.707-0.293l10.586-10.586c0.181-0.181 0.293-0.431 0.293-0.707s-0.112-0.526-0.293-0.707v0z"></path>
</svg>
