<!-- Generated by IcoMoon.io -->
<svg version="1.1" xmlns="http://www.w3.org/2000/svg" width="32" height="32" viewBox="0 0 32 32">
<title>shredder</title>
<path d="M27 12h-1v-5.172c0-0.531-0.211-1.039-0.586-1.414l-4.829-4.828c-0.375-0.375-0.884-0.586-1.414-0.586h-11.266c-1.053 0-1.905 0.896-1.905 2v10h-1c-2.761 0-5 2.239-5 5v6c0 0.552 0.448 1 1 1h30c0.552 0 1-0.448 1-1v-6c0-2.761-2.239-5-5-5zM20 2.828l3.172 3.172h-3.172v-3.172zM8.008 2h9.992v4c0 1.104 0.896 2 2 2h4v4h-15.999l0.006-10zM30 22h-28v-5c0-1.654 1.346-3 3-3h22c1.654 0 3 1.346 3 3v5zM25 16.5c-0.828 0-1.5 0.671-1.5 1.5s0.672 1.5 1.5 1.5 1.5-0.672 1.5-1.5c0-0.829-0.672-1.5-1.5-1.5zM3 31.5c0 0.276 0.224 0.5 0.5 0.5h1c0.276 0 0.5-0.224 0.5-0.5v-5.5h-2v5.5zM9 31.5c0 0.276 0.224 0.5 0.5 0.5h1c0.276 0 0.5-0.224 0.5-0.5v-5.5h-2v5.5zM15 31.5c0 0.276 0.224 0.5 0.5 0.5h1c0.276 0 0.5-0.224 0.5-0.5v-5.5h-2v5.5zM21 31.5c0 0.276 0.224 0.5 0.5 0.5h1c0.276 0 0.5-0.224 0.5-0.5v-5.5h-2v5.5zM27 31.5c0 0.276 0.224 0.5 0.5 0.5h1c0.276 0 0.5-0.224 0.5-0.5v-5.5h-2v5.5z"></path>
</svg>
