<!-- Generated by IcoMoon.io -->
<svg version="1.1" xmlns="http://www.w3.org/2000/svg" width="32" height="32" viewBox="0 0 32 32">
<title>shredder-solid</title>
<path d="M14.5 31c0 0.552 0.447 1 1 1h1c0.552 0 1-0.448 1-1v-5h-3v5zM8.5 31c0 0.552 0.447 1 1 1h1c0.553 0 1-0.448 1-1v-5h-3v5zM2.5 31c0 0.552 0.447 1 1 1h1c0.553 0 1-0.448 1-1v-5h-3v5zM20.5 31c0 0.552 0.448 1 1 1h1c0.552 0 1-0.448 1-1v-5h-3v5zM28 12v-7.172c0-0.531-0.211-1.039-0.586-1.414l-2.829-2.828c-0.375-0.375-0.884-0.586-1.414-0.586h-17.171c-1.104 0-2 0.896-2 2v10c-2.209 0-4 1.791-4 4v7c0 0.552 0.448 1 1 1h30c0.552 0 1-0.448 1-1v-7c0-2.209-1.791-4-4-4zM24 14h-16v-10h12v3c0 0.553 0.448 1 1 1h3v6zM27 18.5c-0.828 0-1.5-0.672-1.5-1.5s0.672-1.5 1.5-1.5 1.5 0.671 1.5 1.5c0 0.828-0.672 1.5-1.5 1.5zM26.5 31c0 0.552 0.448 1 1 1h1c0.552 0 1-0.448 1-1v-5h-3v5z"></path>
</svg>
