<!-- Generated by IcoMoon.io -->
<svg version="1.1" xmlns="http://www.w3.org/2000/svg" width="32" height="32" viewBox="0 0 32 32">
<title>shuttlecock-solid</title>
<path d="M30.25 12h-1.25c0 0.375 0.269 3.481-2.794 4.45l-5.7 1.8-1.65 2.837-4.875 2.269-1.606-1.613 4.425-4.425 8.8-2.781c0.831-0.262 1.4-1.037 1.4-1.906v-5.881c0-0.969-0.781-1.75-1.75-1.75h-5.881c-0.875 0-1.644 0.569-1.906 1.4l-2.781 8.8-4.425 4.425-1.606-1.606 2.269-4.875 2.838-1.65 1.8-5.7c0.906-2.875 3.675-2.794 4.444-2.794v-1.25c0-0.963-0.788-1.75-1.75-1.75h-3.412c-0.675 0-1.3 0.394-1.588 1.012l-7.281 15.644-2.45 2.45 9.375 9.375 2.45-2.45 15.644-7.281c0.613-0.288 1.012-0.906 1.012-1.587v-3.412c0-0.963-0.788-1.75-1.75-1.75zM1.944 20.688c-2.587 2.587-2.587 6.788 0 9.375s6.787 2.587 9.375 0l0.162-0.163-9.375-9.375-0.163 0.163z"></path>
</svg>
