<!-- Generated by IcoMoon.io -->
<svg version="1.1" xmlns="http://www.w3.org/2000/svg" width="40" height="32" viewBox="0 0 40 32">
<title>shuttle-van-solid</title>
<path d="M39.305 13.166l-8.406-10.086c-0.554-0.662-1.38-1.079-2.304-1.079h-26.595c-1.104 0-2 0.896-2 2v18c0 1.104 0.896 2 2 2h2c0 3.314 2.686 6 6 6s6-2.686 6-6h8c0 3.314 2.686 6 6 6s6-2.686 6-6h2c1.104 0 2-0.896 2-2v-6.914c0-0.702-0.246-1.381-0.695-1.921zM4 12v-6h6v6h-6zM10 27c-1.657 0-3-1.343-3-3s1.343-3 3-3 3 1.343 3 3-1.343 3-3 3zM20 12h-6v-6h6v6zM30 27c-1.657 0-3-1.343-3-3s1.343-3 3-3 3 1.343 3 3-1.343 3-3 3zM24 12v-6h4.126l5 6h-9.126z"></path>
</svg>
