<!-- Generated by IcoMoon.io -->
<svg version="1.1" xmlns="http://www.w3.org/2000/svg" width="40" height="32" viewBox="0 0 40 32">
<title>shuttle-van</title>
<path d="M39.073 14.887l-7.874-9.448c-0.739-0.882-1.841-1.439-3.073-1.439h-25.126c-1.657 0-3 1.343-3 3v17c0 1.104 0.896 2 2 2h2.101c0.464 2.279 2.484 4 4.899 4s4.434-1.721 4.899-4h12.203c0.464 2.279 2.484 4 4.899 4s4.434-1.721 4.899-4h2.101c1.104 0 2-0.896 2-2v-6.552c0-0.936-0.328-1.842-0.927-2.561zM22 6h6.126c0.596 0 1.155 0.263 1.536 0.719l6.067 7.281h-13.73v-8zM12 6h8v8h-8v-8zM2 7c0-0.551 0.449-1 1-1h7v8h-8v-7zM9 28c-1.657 0-3-1.343-3-3s1.343-3 3-3 3 1.343 3 3-1.343 3-3 3zM31 28c-1.657 0-3-1.343-3-3s1.343-3 3-3 3 1.343 3 3-1.343 3-3 3zM38 24h-2.101c-0.464-2.279-2.484-4-4.899-4s-4.434 1.721-4.899 4h-12.203c-0.464-2.279-2.484-4-4.899-4s-4.434 1.721-4.899 4h-2.101v-8h35.397l0.139 0.168c0.288 0.344 0.463 0.792 0.464 1.28v6.552z"></path>
</svg>
