<!-- Generated by IcoMoon.io -->
<svg version="1.1" xmlns="http://www.w3.org/2000/svg" width="32" height="32" viewBox="0 0 32 32">
<title>shuttlecock</title>
<path d="M30 12h-3.85l0.65-4.537c0.188-1.3-0.906-2.444-2.262-2.263l-4.537 0.65v-3.85c0-1.106-0.894-2-2-2h-2.694c-0.762 0-1.469 0.444-1.8 1.131l-7.375 15.363-4.188 4.188c-2.587 2.587-2.587 6.787 0 9.375 1.294 1.294 2.987 1.944 4.688 1.944 1.694 0 3.394-0.65 4.688-1.944l4.188-4.188 15.362-7.375c0.688-0.331 1.131-1.038 1.131-1.8v-2.694c0-1.106-0.894-2-2-2zM24.819 7.181l-0.712 5.013-5.731 1.431 1.431-5.731 5.012-0.713zM15.306 2h2.694v4.394l-6.4 3.331 3.706-7.725zM17.494 8.912l-1.394 5.575-5.488 5.488-2.65-2.65 2.2-4.594 7.331-3.819zM2 25.375c0-1.163 0.438-2.25 1.219-3.1l6.512 6.512c-0.856 0.775-1.944 1.212-3.106 1.212-2.556 0-4.625-2.069-4.625-4.625zM11.156 27.387l-6.544-6.544 2.013-2.012 6.544 6.544-2.012 2.012zM14.675 24.044l-2.65-2.65 5.487-5.488 5.575-1.394-3.819 7.331-4.594 2.2zM30 16.688l-7.725 3.712 3.331-6.4h4.394v2.688z"></path>
</svg>
