<!-- Generated by IcoMoon.io -->
<svg version="1.1" xmlns="http://www.w3.org/2000/svg" width="32" height="32" viewBox="0 0 32 32">
<title>sickle-solid</title>
<path d="M8.121 19.293c-0.181-0.181-0.431-0.293-0.707-0.293s-0.526 0.112-0.707 0.293l-1.414 1.414c-0.181 0.181-0.293 0.431-0.293 0.707s0.112 0.526 0.293 0.707v0l0.171 0.172-5.171 5.171c-0.181 0.181-0.293 0.431-0.293 0.707s0.112 0.526 0.293 0.707v0l2.832 2.828c0.181 0.181 0.431 0.293 0.707 0.293s0.526-0.112 0.707-0.293l5.172-5.172 0.171 0.171c0.181 0.181 0.431 0.293 0.707 0.293s0.526-0.112 0.707-0.293l1.414-1.414c0.181-0.181 0.293-0.431 0.293-0.707s-0.112-0.526-0.293-0.707v0zM20 0c-6 0-10.391 4.332-11.508 9.465-0.859 3.946 0.669 8.041 3.526 10.896l1.982 1.881 2.214-2.214c-2.408-4.012-1.492-9.454 2.93-12.25 2.693-1.702 6.224-1.806 9.003-0.25 1.18 0.66 2.166 1.529 2.941 2.564l0.017 0.024c0.317 0.431 0.987 0.121 0.884-0.405-0.666-3.417-3.989-9.712-11.989-9.712z"></path>
</svg>
