<!-- Generated by IcoMoon.io -->
<svg version="1.1" xmlns="http://www.w3.org/2000/svg" width="32" height="32" viewBox="0 0 32 32">
<title>sickle</title>
<path d="M31.971 10.018c-0.676-3.465-4.129-10.018-12.35-10.018-5.75 0-10.64 4.014-11.89 9.762-0.389 1.792-0.456 4.047-0.098 6.12l-3.097 3.096c-0.181 0.181-0.293 0.431-0.293 0.707s0.112 0.526 0.293 0.707l0.707 0.707-4.95 4.95c-0.181 0.181-0.293 0.431-0.293 0.707s0.112 0.526 0.293 0.707l4.242 4.242c0.181 0.181 0.431 0.293 0.707 0.293s0.526-0.112 0.707-0.293l4.95-4.95 0.707 0.707c0.181 0.181 0.431 0.293 0.707 0.293s0.526-0.112 0.707-0.293v0l2.828-2.829c0.181-0.181 0.293-0.431 0.293-0.707s-0.112-0.526-0.293-0.707l-0.197-0.197 1.705-1.704c0.181-0.181 0.293-0.431 0.293-0.707 0-0.245-0.088-0.47-0.235-0.644l0.001 0.002c-1.289-1.536-1.83-3.49-1.521-5.505 0.35-2.205 1.611-4.061 3.378-5.201l0.030-0.018c2.244-1.438 5.197-1.541 7.524-0.253 1.006 0.557 1.847 1.293 2.505 2.174l0.015 0.020c0.267 0.366 0.695 0.602 1.177 0.602 0.214 0 0.418-0.046 0.601-0.13l-0.009 0.004c0.526-0.232 0.887-0.748 0.887-1.349 0-0.104-0.011-0.205-0.031-0.303l0.002 0.010zM12.313 25.343l-1.414-1.414-5.655 5.657-2.829-2.828 5.657-5.656-1.414-1.414 1.414-1.414 5.657 5.657zM27.796 7.244c-2.953-1.637-6.709-1.512-9.571 0.318-2.271 1.465-3.866 3.813-4.301 6.547l-0.007 0.054c-0.348 2.28 0.152 4.505 1.411 6.358l-1.089 1.089-4.176-4.173c-0.882-2.085-0.839-5.134-0.381-7.25 1.049-4.821 5.134-8.188 9.938-8.188 5.447 0 8.404 3.404 9.693 6.271-0.445-0.366-0.941-0.706-1.466-1l-0.051-0.026z"></path>
</svg>
