<!-- Generated by IcoMoon.io -->
<svg version="1.1" xmlns="http://www.w3.org/2000/svg" width="24" height="32" viewBox="0 0 24 32">
<title>sigma-solid</title>
<path d="M22 2h-18.748c-1.229 0-2.34 0.681-2.897 1.777-0.557 1.096-0.453 2.394 0.269 3.385l7.667 8.838-7.664 8.835c-0.724 0.993-0.828 2.292-0.271 3.387 0.556 1.097 1.668 1.777 2.896 1.777h18.748c1.104 0 2-0.896 2-2v-4.5c0-0.828-0.672-1.5-1.5-1.5h-3c-0.828 0-1.5 0.672-1.5 1.5v0.5h-9.109l6.818-8-6.818-8h9.109v0.5c0 0.828 0.672 1.5 1.5 1.5h3c0.828 0 1.5-0.672 1.5-1.5v-4.5c0-1.104-0.896-2-2-2z"></path>
</svg>
