<!-- Generated by IcoMoon.io -->
<svg version="1.1" xmlns="http://www.w3.org/2000/svg" width="20" height="32" viewBox="0 0 20 32">
<title>sigma</title>
<path d="M18.5 10h1c0.276 0 0.5-0.224 0.5-0.5v-3.5c0-1.104-0.895-2-1.999-2h-15.914c-0.699 0-1.387 0.32-1.762 0.91-0.481 0.755-0.422 1.679 0.175 2.406l8.131 8.684-8.174 8.733c-0.551 0.673-0.614 1.606-0.129 2.361 0.379 0.591 1.072 0.906 1.774 0.906h15.9c1.104 0 1.999-0.896 1.999-2v-3.5c0-0.276-0.224-0.5-0.5-0.5h-1c-0.276 0-0.5 0.224-0.5 0.5v3.5l-16.041 0.051 8.129-8.683c0.721-0.767 0.721-1.969 0.002-2.736l-8.088-8.633h15.997v3.5c0 0.276 0.224 0.5 0.499 0.5z"></path>
</svg>
