<!-- Generated by IcoMoon.io -->
<svg version="1.1" xmlns="http://www.w3.org/2000/svg" width="32" height="32" viewBox="0 0 32 32">
<title>sign-out-solid</title>
<path d="M11.25 28h-5.25c-3.313 0-6-2.688-6-6v-12c0-3.313 2.688-6 6-6h5.25c0.412 0 0.75 0.338 0.75 0.75v2.5c0 0.412-0.338 0.75-0.75 0.75h-5.25c-1.106 0-2 0.894-2 2v12c0 1.106 0.894 2 2 2h5.25c0.412 0 0.75 0.337 0.75 0.75v2.5c0 0.413-0.338 0.75-0.75 0.75zM18.619 9.056l4.85 4.444h-11.969c-0.831 0-1.5 0.669-1.5 1.5v2c0 0.831 0.669 1.5 1.5 1.5h11.969l-4.85 4.444c-0.631 0.575-0.65 1.563-0.050 2.169l1.369 1.369c0.581 0.581 1.531 0.587 2.119 0.006l9.5-9.425c0.594-0.587 0.594-1.544 0-2.131l-9.494-9.412c-0.587-0.581-1.531-0.581-2.119 0.006l-1.369 1.369c-0.606 0.6-0.581 1.588 0.044 2.162z"></path>
</svg>
