<!-- Generated by IcoMoon.io -->
<svg version="1.1" xmlns="http://www.w3.org/2000/svg" width="40" height="32" viewBox="0 0 40 32">
<title>signal-alt-slash-solid</title>
<path d="M39.614 28.631l-1.614-1.247v-25.384c0-1.104-0.896-2-2-2h-2c-1.104 0-2 0.896-2 2v20.747l-4-3.091v-9.656c0-1.104-0.896-2-2-2h-2c-1.104 0-2 0.896-2 2v5.018l-19.158-14.807c-0.436-0.339-1.065-0.261-1.404 0.176l-1.228 1.579c-0.339 0.436-0.261 1.064 0.176 1.403l36.773 28.421c0.436 0.339 1.064 0.261 1.404-0.176l1.227-1.579c0.338-0.436 0.26-1.064-0.176-1.403zM6 24h-2c-1.104 0-2 0.896-2 2v4c0 1.104 0.896 2 2 2h2c1.104 0 2-0.896 2-2v-4c0-1.104-0.896-2-2-2zM12 18v12c0 1.104 0.896 2 2 2h2c1.104 0 2-0.896 2-2v-7.962l-5.896-4.556c-0.046 0.169-0.104 0.335-0.104 0.519zM22 30c0 1.104 0.896 2 2 2h2c1.104 0 2-0.896 2-2v-0.233l-6-4.637v4.871z"></path>
</svg>
