<!-- Generated by IcoMoon.io -->
<svg version="1.1" xmlns="http://www.w3.org/2000/svg" width="32" height="32" viewBox="0 0 32 32">
<title>sign</title>
<path d="M31.5 4h-25.5v-3.5c0-0.275-0.225-0.5-0.5-0.5h-1c-0.275 0-0.5 0.225-0.5 0.5v3.5h-3.5c-0.275 0-0.5 0.225-0.5 0.5v1c0 0.275 0.225 0.5 0.5 0.5h3.5v25.5c0 0.275 0.225 0.5 0.5 0.5h1c0.275 0 0.5-0.225 0.5-0.5v-25.5h6v3h-1c-1.106 0-2 0.894-2 2v11c0 1.106 0.894 2 2 2h18c1.106 0 2-0.894 2-2v-11c0-1.106-0.894-2-2-2h-1v-3h3.5c0.275 0 0.5-0.225 0.5-0.5v-1c0-0.275-0.225-0.5-0.5-0.5zM29 22h-18v-11h18v11zM26 9h-12v-3h12v3z"></path>
</svg>
