<!-- Generated by IcoMoon.io -->
<svg version="1.1" xmlns="http://www.w3.org/2000/svg" width="32" height="32" viewBox="0 0 32 32">
<title>sign-in-solid</title>
<path d="M8.575 6.894l1.369-1.369c0.581-0.581 1.531-0.588 2.119-0.006l9.494 9.419c0.594 0.588 0.594 1.544 0 2.131l-9.494 9.413c-0.588 0.581-1.531 0.581-2.119-0.006l-1.369-1.369c-0.606-0.606-0.581-1.587 0.050-2.169l4.85-4.444h-11.975c-0.831 0-1.5-0.669-1.5-1.5v-2c0-0.831 0.669-1.5 1.5-1.5h11.969l-4.85-4.444c-0.625-0.569-0.65-1.556-0.044-2.156zM32 22v-12c0-3.313-2.688-6-6-6h-5.25c-0.413 0-0.75 0.338-0.75 0.75v2.5c0 0.412 0.337 0.75 0.75 0.75h5.25c1.106 0 2 0.894 2 2v12c0 1.106-0.894 2-2 2h-5.25c-0.413 0-0.75 0.337-0.75 0.75v2.5c0 0.413 0.337 0.75 0.75 0.75h5.25c3.313 0 6-2.688 6-6z"></path>
</svg>
