<!-- Generated by IcoMoon.io -->
<svg version="1.1" xmlns="http://www.w3.org/2000/svg" width="40" height="32" viewBox="0 0 40 32">
<title>signal-slash</title>
<path d="M5 24h-2c-0.275 0-0.5 0.225-0.5 0.5v7c0 0.275 0.225 0.5 0.5 0.5h2c0.275 0 0.5-0.225 0.5-0.5v-7c0-0.275-0.225-0.5-0.5-0.5zM29.5 6.5c0-0.275-0.225-0.5-0.5-0.5h-2c-0.275 0-0.5 0.225-0.5 0.5v10.8l3 2.363zM37.5 0.5c0-0.275-0.225-0.5-0.5-0.5h-2c-0.275 0-0.5 0.225-0.5 0.5v23.1l3 2.363zM26.5 31.5c0 0.275 0.225 0.5 0.5 0.5h2c0.275 0 0.5-0.225 0.5-0.5v-4.2l-3-2.363zM13 18h-2c-0.275 0-0.5 0.225-0.5 0.5v13c0 0.275 0.225 0.5 0.5 0.5h2c0.275 0 0.5-0.225 0.5-0.5v-13c0-0.275-0.225-0.5-0.5-0.5zM39.813 30.325l-38.375-30.212c-0.212-0.175-0.531-0.144-0.7 0.075l-0.625 0.781c-0.175 0.219-0.138 0.531 0.075 0.7l38.375 30.219c0.212 0.175 0.531 0.137 0.7-0.075l0.625-0.781c0.175-0.219 0.144-0.531-0.075-0.706zM18.5 31.5c0 0.275 0.225 0.5 0.5 0.5h2c0.275 0 0.5-0.225 0.5-0.5v-10.5l-3-2.363z"></path>
</svg>
