<!-- Generated by IcoMoon.io -->
<svg version="1.1" xmlns="http://www.w3.org/2000/svg" width="28" height="32" viewBox="0 0 28 32">
<title>sign-language-solid</title>
<path d="M5.715 30.249c-0.019-1.001 0.819-1.821 1.821-1.821h3.893v-0.357h-7.867c-1.001 0-1.84-0.819-1.821-1.821 0.019-0.97 0.811-1.751 1.785-1.751h7.902v-0.357h-9.608c-1.001 0-1.84-0.819-1.821-1.821 0.019-0.97 0.811-1.751 1.785-1.751h9.643v-0.357h-7.822c-1.001 0-1.84-0.819-1.821-1.821 0.019-0.97 0.811-1.751 1.785-1.751h10.535l-1.943-1.413c-0.798-0.58-0.974-1.697-0.394-2.495s1.697-0.974 2.495-0.394l7.71 5.607c0.537 0.394 0.882 1.023 0.883 1.733v0 8.821c0 0.994-0.684 1.858-1.652 2.086l-5.029 1.183c-0.59 0.145-1.267 0.228-1.963 0.228h-6.713c-0.975-0-1.767-0.781-1.785-1.751zM10.293 16.143h2.276l-0.699-0.508c-1.161-0.844-1.27-2.555-0.198-3.534l-0.813-1.044c-0.615-0.79-1.777-0.948-2.555-0.318-0.754 0.611-0.883 1.715-0.285 2.484l2.273 2.919zM27.999 16.011l-0.313-9.528c-0.032-0.986-0.858-1.758-1.843-1.726s-1.759 0.858-1.726 1.843l0.079 2.401-6.473-8.313c-0.599-0.769-1.701-0.914-2.478-0.333-0.802 0.6-0.933 1.765-0.318 2.555l4.806 6.172-0.282 0.219-5.924-7.608c-0.599-0.769-1.701-0.914-2.478-0.333-0.802 0.6-0.933 1.765-0.318 2.555l5.903 7.58-0.282 0.219-4.855-6.235c-0.599-0.769-1.701-0.914-2.478-0.333-0.802 0.6-0.933 1.765-0.318 2.555l3.253 4.178c0.781-0.516 1.816-0.518 2.606 0.056l7.71 5.607c0.681 0.496 1.088 1.295 1.088 2.137v1.062l3.817-2.972c0.505-0.396 0.826-1.006 0.826-1.691 0-0.025-0-0.049-0.001-0.074l0 0.004z"></path>
</svg>
