<!-- Generated by IcoMoon.io -->
<svg version="1.1" xmlns="http://www.w3.org/2000/svg" width="32" height="32" viewBox="0 0 32 32">
<title>sign-in</title>
<path d="M11.5 5.219l10.281 10.25c0.294 0.294 0.294 0.769 0 1.063l-10.281 10.25c-0.294 0.294-0.769 0.294-1.063 0l-0.444-0.444c-0.294-0.294-0.294-0.769 0-1.063l8.25-8.212h-17.494c-0.412 0-0.75-0.337-0.75-0.75v-0.625c0-0.412 0.338-0.75 0.75-0.75h17.494l-8.244-8.213c-0.294-0.294-0.294-0.769 0-1.063l0.444-0.444c0.287-0.294 0.762-0.294 1.056 0zM32 25v-18c0-1.656-1.344-3-3-3h-8.25c-0.413 0-0.75 0.338-0.75 0.75v0.5c0 0.412 0.337 0.75 0.75 0.75h8.25c0.55 0 1 0.45 1 1v18c0 0.55-0.45 1-1 1h-8.25c-0.413 0-0.75 0.337-0.75 0.75v0.5c0 0.413 0.337 0.75 0.75 0.75h8.25c1.656 0 3-1.344 3-3z"></path>
</svg>
