<!-- Generated by IcoMoon.io -->
<svg version="1.1" xmlns="http://www.w3.org/2000/svg" width="36" height="32" viewBox="0 0 36 32">
<title>signal-stream-solid</title>
<path d="M18 12.5c-1.933 0-3.5 1.567-3.5 3.5s1.567 3.5 3.5 3.5c1.933 0 3.5-1.567 3.5-3.5v0c0-1.933-1.567-3.5-3.5-3.5v0zM4 16c0-0.005 0-0.010 0-0.016 0-3.464 1.315-6.621 3.474-8.999l-0.010 0.011c0.349-0.389 0.307-0.984-0.067-1.349l-1.396-1.364c-0.184-0.174-0.432-0.282-0.706-0.282-0.304 0-0.578 0.133-0.766 0.343l-0.001 0.001c-2.928 3.217-4.527 7.314-4.527 11.654s1.599 8.438 4.527 11.657c0.189 0.212 0.462 0.344 0.766 0.344 0.274 0 0.522-0.107 0.706-0.282l-0 0 1.396-1.364c0.375-0.366 0.417-0.961 0.067-1.349-2.148-2.367-3.464-5.524-3.464-8.988 0-0.007 0-0.013 0-0.020v0.001zM12.392 10.523l-1.422-1.389c-0.184-0.177-0.435-0.286-0.712-0.286-0.316 0-0.598 0.143-0.787 0.367l-0.001 0.002c-1.537 1.82-2.471 4.193-2.471 6.784s0.934 4.964 2.484 6.8l-0.013-0.016c0.19 0.226 0.472 0.368 0.788 0.368 0.276 0 0.527-0.109 0.712-0.287l-0 0 1.422-1.389c0.181-0.172 0.294-0.415 0.294-0.685 0-0.222-0.076-0.426-0.205-0.587l0.002 0.002c-0.923-1.14-1.482-2.609-1.482-4.207s0.559-3.067 1.492-4.22l-0.010 0.013c0.127-0.159 0.203-0.363 0.203-0.585 0-0.269-0.113-0.512-0.293-0.684l-0-0zM31.473 4.343c-0.189-0.212-0.462-0.344-0.767-0.344-0.274 0-0.523 0.107-0.706 0.282l0-0-1.396 1.367c-0.375 0.366-0.417 0.961-0.067 1.349 2.149 2.372 3.464 5.534 3.464 9.004s-1.315 6.631-3.474 9.015l0.010-0.011c-0.349 0.389-0.307 0.984 0.067 1.349l1.396 1.364c0.183 0.174 0.432 0.282 0.706 0.282 0.304 0 0.578-0.133 0.766-0.343l0.001-0.001c2.928-3.217 4.527-7.314 4.527-11.654s-1.599-8.438-4.527-11.658zM26.529 9.217c-0.19-0.226-0.472-0.368-0.788-0.368-0.276 0-0.527 0.109-0.712 0.287l0-0-1.422 1.389c-0.181 0.172-0.294 0.415-0.294 0.684 0 0.222 0.076 0.426 0.204 0.587l-0.002-0.002c0.923 1.14 1.483 2.609 1.483 4.207s-0.559 3.067-1.492 4.22l0.010-0.013c-0.127 0.159-0.203 0.363-0.203 0.585 0 0.269 0.113 0.512 0.293 0.684l0 0 1.422 1.389c0.184 0.177 0.435 0.286 0.712 0.286 0.316 0 0.598-0.143 0.787-0.367l0.001-0.002c1.537-1.82 2.471-4.193 2.471-6.784s-0.934-4.964-2.484-6.8l0.013 0.016z"></path>
</svg>
