<!-- Generated by IcoMoon.io -->
<svg version="1.1" xmlns="http://www.w3.org/2000/svg" width="32" height="32" viewBox="0 0 32 32">
<title>sign-out</title>
<path d="M3 4h8.25c0.412 0 0.75 0.338 0.75 0.75v0.5c0 0.412-0.338 0.75-0.75 0.75h-8.25c-0.55 0-1 0.45-1 1v18c0 0.55 0.45 1 1 1h8.25c0.412 0 0.75 0.337 0.75 0.75v0.5c0 0.413-0.338 0.75-0.75 0.75h-8.25c-1.656 0-3-1.344-3-3v-18c0-1.656 1.344-3 3-3zM20.438 5.219l-0.444 0.444c-0.294 0.294-0.294 0.769 0 1.063l8.25 8.213h-17.494c-0.412 0-0.75 0.338-0.75 0.75v0.625c0 0.413 0.338 0.75 0.75 0.75h17.494l-8.244 8.212c-0.294 0.294-0.294 0.769 0 1.063l0.444 0.444c0.294 0.294 0.769 0.294 1.063 0l10.281-10.25c0.294-0.294 0.294-0.769 0-1.063l-10.288-10.25c-0.294-0.294-0.769-0.294-1.063 0z"></path>
</svg>
