<!-- Generated by IcoMoon.io -->
<svg version="1.1" xmlns="http://www.w3.org/2000/svg" width="40" height="32" viewBox="0 0 40 32">
<title>signature-solid</title>
<path d="M38.95 12c-3.237 0.219-7.856 3.419-10.194 4.469-1.819 0.819-3.387 1.525-4.756 1.525-1.413 0-1.625-1.012-1.331-3.244 0.069-0.5 0.731-4.95-2.669-4.756-1.569 0.094-4.019 1.55-10.594 7.875l2.594-6.481c1.9-4.744-3.325-9.469-8.106-6.425l-3.431 2.306c-0.463 0.294-0.6 0.912-0.306 1.381l1.075 1.688c0.294 0.469 0.913 0.606 1.381 0.306l3.625-2.431c1.15-0.731 2.544 0.45 2.044 1.694l-6.138 15.35c-0.425 1.056 0.169 2.744 1.856 2.744 0.519 0 1.031-0.2 1.412-0.587 2.638-2.637 9.669-9.419 13.2-12.238-0.137 1.781-0.131 3.681 1.288 5.238 0.956 1.050 2.331 1.581 4.094 1.581 2.225 0 4.25-0.913 6.394-1.875 2.063-0.925 6.188-3.913 8.65-4.113 0.531-0.044 0.95-0.456 0.95-0.988v-2.006c0.013-0.569-0.469-1.050-1.038-1.012z"></path>
</svg>
