<!-- Generated by IcoMoon.io -->
<svg version="1.1" xmlns="http://www.w3.org/2000/svg" width="40" height="32" viewBox="0 0 40 32">
<title>signal-slash-solid</title>
<path d="M39.614 28.631l-1.114-0.861v-26.771c0-0.552-0.447-1-1-1h-3c-0.553 0-1 0.448-1 1v22.906l-3-2.319v-14.588c0-0.553-0.448-1-1-1h-3c-0.552 0-1 0.447-1 1v10.723l-3-2.319v-2.404c0-0.553-0.448-1-1-1h-3c-0.114 0-0.219 0.030-0.321 0.065l-15.338-11.854c-0.436-0.339-1.065-0.261-1.404 0.176l-1.228 1.579c-0.339 0.436-0.261 1.064 0.176 1.403l36.773 28.421c0.076 0.059 0.127 0.136 0.181 0.211h0.16c0.046 0 0.084-0.020 0.129-0.026 0.344 0.050 0.704-0.066 0.933-0.361l1.227-1.579c0.339-0.435 0.261-1.063-0.176-1.402zM5.5 24h-3c-0.552 0-1 0.448-1 1v6c0 0.552 0.448 1 1 1h3c0.553 0 1-0.448 1-1v-6c0-0.552-0.447-1-1-1zM10.5 18c-0.553 0-1 0.448-1 1v12c0 0.552 0.447 1 1 1h3c0.553 0 1-0.448 1-1v-11.668l-1.724-1.332h-2.276zM17.5 31c0 0.552 0.448 1 1 1h3c0.552 0 1-0.448 1-1v-5.484l-5-3.864v9.349zM25.5 31c0 0.552 0.448 1 1 1h3c0.343 0 0.631-0.184 0.811-0.447l-4.811-3.719v3.166z"></path>
</svg>
