<!-- Generated by IcoMoon.io -->
<svg version="1.1" xmlns="http://www.w3.org/2000/svg" width="40" height="32" viewBox="0 0 40 32">
<title>signature</title>
<path d="M39.381 12.925c-2.044 0.525-4.819 1.925-6.794 3.1-0.919 0.55-1.869 1.119-2.594 1.462-1.956 0.95-3.644 1.762-5.256 1.762-0.806 0-1.438-0.269-1.869-0.794-0.706-0.863-0.706-2.206-0.494-3.956 0.206-1.681 0.038-2.988-0.475-3.581-0.275-0.313-0.625-0.431-1.169-0.394-1.544 0.1-4.669 2.65-10.131 8.281l-3.4 3.5 4.375-11.725c0.738-1.975 0.225-4.131-1.306-5.487-1.206-1.075-3.269-1.7-5.438-0.219l-4.612 3.112c-0.219 0.144-0.281 0.438-0.156 0.662l0.575 1.012c0.144 0.256 0.475 0.331 0.719 0.169l4.737-3.206c0.412-0.281 0.875-0.425 1.337-0.425 0.569 0 1.1 0.213 1.55 0.612 0.825 0.731 1.1 1.888 0.706 2.944l-6.237 16.725c-0.119 0.325-0.063 0.788 0.138 1.106 0.15 0.231 0.412 0.381 0.706 0.413 0.306 0.019 0.606-0.087 0.813-0.306 2.706-2.894 9.863-10.294 13.519-13.419l1.275-1.088c0.212-0.181 0.531-0.019 0.512 0.256l-0.131 1.744c-0.125 1.706-0.15 3.494 1.050 4.912 0.775 0.906 1.919 1.369 3.413 1.369 2.044 0 4.006-0.944 6.081-1.944 0.637-0.306 1.556-0.881 2.45-1.438 1.931-1.206 4.519-2.531 6.362-2.981 0.219-0.056 0.369-0.25 0.369-0.475v-1.081c-0.006-0.463-0.313-0.7-0.625-0.625z"></path>
</svg>
