<!-- Generated by IcoMoon.io -->
<svg version="1.1" xmlns="http://www.w3.org/2000/svg" width="40" height="32" viewBox="0 0 40 32">
<title>signal-alt-slash</title>
<path d="M24 10h2v6.906l2 1.575v-8.481c0-1.106-0.894-2-2-2h-2c-1.106 0-2 0.894-2 2v3.756l2 1.575zM34 2h2v22.781l2 1.575v-24.356c0-1.106-0.894-2-2-2h-2c-1.106 0-2 0.894-2 2v19.631l2 1.575zM39.813 30.325l-38.375-30.212c-0.212-0.175-0.531-0.144-0.7 0.075l-0.625 0.781c-0.175 0.219-0.138 0.531 0.075 0.7l38.375 30.219c0.212 0.175 0.531 0.137 0.7-0.075l0.625-0.781c0.175-0.219 0.144-0.531-0.075-0.706zM14 16c-1.106 0-2 0.894-2 2v12c0 1.106 0.894 2 2 2h2c1.106 0 2-0.894 2-2v-11.756l-2.85-2.244zM16 30h-2v-12h2zM26 30h-2v-7.031l-2-1.575v8.606c0 1.106 0.894 2 2 2h2c1.106 0 2-0.894 2-2v-3.881l-2-1.575zM6 24h-2c-1.106 0-2 0.894-2 2v4c0 1.106 0.894 2 2 2h2c1.106 0 2-0.894 2-2v-4c0-1.106-0.894-2-2-2zM6 30h-2v-4h2z"></path>
</svg>
