<!-- Generated by IcoMoon.io -->
<svg version="1.1" xmlns="http://www.w3.org/2000/svg" width="32" height="32" viewBox="0 0 32 32">
<title>sign-in-alt-solid</title>
<path d="M26 28h-5.25c-0.413 0-0.75-0.337-0.75-0.75v-2.5c0-0.413 0.337-0.75 0.75-0.75h5.25c1.106 0 2-0.894 2-2v-12c0-1.106-0.894-2-2-2h-5.25c-0.413 0-0.75-0.338-0.75-0.75v-2.5c0-0.412 0.337-0.75 0.75-0.75h5.25c3.313 0 6 2.688 6 6v12c0 3.313-2.688 6-6 6zM23.063 15.438l-10.5-10.5c-0.938-0.938-2.563-0.281-2.563 1.063v6h-8.5c-0.831 0-1.5 0.669-1.5 1.5v6c0 0.831 0.669 1.5 1.5 1.5h8.5v6c0 1.344 1.625 2 2.563 1.063l10.5-10.5c0.581-0.587 0.581-1.538 0-2.125z"></path>
</svg>
