<!-- Generated by IcoMoon.io -->
<svg version="1.1" xmlns="http://www.w3.org/2000/svg" width="36" height="32" viewBox="0 0 36 32">
<title>signal-stream</title>
<path d="M6.051 4.871l-0.709-0.72c-0.091-0.093-0.218-0.151-0.358-0.151-0.143 0-0.273 0.060-0.364 0.157l-0 0c-2.984 3.218-4.62 7.406-4.62 11.843s1.636 8.625 4.62 11.843c0.091 0.097 0.22 0.157 0.364 0.157 0.14 0 0.267-0.058 0.358-0.151l0-0 0.709-0.719c0.089-0.091 0.143-0.216 0.143-0.354 0-0.135-0.053-0.258-0.139-0.349l0 0c-2.618-2.836-4.055-6.52-4.055-10.427s1.438-7.591 4.055-10.427c0.086-0.091 0.139-0.214 0.139-0.349 0-0.137-0.055-0.262-0.143-0.354l0 0zM11.296 9.183l-0.706-0.718c-0.091-0.094-0.218-0.152-0.359-0.152-0.146 0-0.276 0.062-0.368 0.161l-0 0c-1.777 1.99-2.863 4.63-2.863 7.524s1.086 5.534 2.872 7.535l-0.010-0.011c0.092 0.1 0.223 0.162 0.368 0.162 0.141 0 0.268-0.058 0.359-0.152l0-0 0.706-0.719c0.088-0.092 0.143-0.217 0.143-0.355 0-0.134-0.051-0.255-0.134-0.346l0 0c-1.431-1.622-2.305-3.766-2.305-6.114s0.874-4.492 2.314-6.124l-0.009 0.010c0.082-0.091 0.132-0.211 0.132-0.343 0-0.137-0.054-0.261-0.141-0.353l0 0zM31.381 4.157c-0.091-0.097-0.221-0.157-0.364-0.157-0.14 0-0.267 0.058-0.358 0.151l-0 0-0.709 0.72c-0.089 0.091-0.143 0.216-0.143 0.354 0 0.135 0.053 0.258 0.139 0.349l-0-0c2.617 2.836 4.055 6.52 4.055 10.427s-1.438 7.591-4.055 10.427c-0.086 0.091-0.139 0.214-0.139 0.349 0 0.137 0.055 0.262 0.143 0.354l-0-0 0.709 0.719c0.091 0.093 0.218 0.152 0.359 0.152 0.143 0 0.273-0.060 0.364-0.157l0-0c2.983-3.218 4.619-7.406 4.619-11.843s-1.636-8.625-4.619-11.843zM18 12c-2.209 0-4 1.791-4 4s1.791 4 4 4c2.209 0 4-1.791 4-4v0c0-2.209-1.791-4-4-4v0zM18 18c-1.105 0-2-0.895-2-2s0.895-2 2-2c1.105 0 2 0.895 2 2v0c0 1.105-0.895 2-2 2v0zM25.41 8.467l-0.706 0.721c-0.088 0.092-0.143 0.217-0.143 0.355 0 0.133 0.051 0.255 0.134 0.346l-0-0c1.431 1.622 2.305 3.766 2.305 6.114s-0.874 4.492-2.314 6.124l0.009-0.010c-0.083 0.091-0.134 0.212-0.134 0.346 0 0.138 0.054 0.263 0.143 0.355l-0-0 0.706 0.718c0.091 0.094 0.218 0.152 0.359 0.152 0.145 0 0.276-0.062 0.368-0.161l0-0c1.777-1.99 2.863-4.63 2.863-7.524s-1.086-5.534-2.872-7.535l0.010 0.011c-0.092-0.1-0.223-0.163-0.369-0.163-0.14 0-0.267 0.058-0.358 0.151l-0 0z"></path>
</svg>
