<!-- Generated by IcoMoon.io -->
<svg version="1.1" xmlns="http://www.w3.org/2000/svg" width="40" height="32" viewBox="0 0 40 32">
<title>signal-alt</title>
<path d="M36 2v28h-2v-28h2zM26 10v20h-2v-20h2zM16 18v12h-2v-12h2zM6 26v4h-2v-4h2zM36 0h-2c-1.104 0-2 0.896-2 2v28c0 1.104 0.896 2 2 2h2c1.104 0 2-0.896 2-2v-28c0-1.104-0.896-2-2-2zM26 8h-2c-1.104 0-2 0.896-2 2v20c0 1.104 0.896 2 2 2h2c1.104 0 2-0.896 2-2v-20c0-1.104-0.896-2-2-2zM16 16h-2c-1.104 0-2 0.896-2 2v12c0 1.104 0.896 2 2 2h2c1.104 0 2-0.896 2-2v-12c0-1.104-0.896-2-2-2zM6 24h-2c-1.104 0-2 0.896-2 2v4c0 1.104 0.896 2 2 2h2c1.104 0 2-0.896 2-2v-4c0-1.104-0.896-2-2-2z"></path>
</svg>
