<!-- Generated by IcoMoon.io -->
<svg version="1.1" xmlns="http://www.w3.org/2000/svg" width="28" height="32" viewBox="0 0 28 32">
<title>sign-language</title>
<path d="M27.998 15.962l-0.279-8.635c-0.098-3.031-4.069-4.176-5.71-1.56l-3.495-4.556c-0.59-0.77-1.483-1.211-2.449-1.211-0.996-0-1.881 0.477-2.438 1.2-2.25-1.056-4.798 0.862-4.339 3.393-1.883 0.816-2.44 3.197-1.21 4.8l0.301 0.392c-1.608 0.922-2.069 3.098-0.908 4.611l0.526 0.686h-3.308c-2.045 0-3.499 1.953-2.996 3.897-0.972 0.498-1.67 1.514-1.692 2.722-0.023 1.228 0.667 2.281 1.659 2.809-0.539 2.028 1.019 3.929 3.021 3.929h0.453c-0.268 1.873 1.175 3.56 3.063 3.56h5.993c0.707 0 1.414-0.083 2.101-0.247l4.491-1.072c1.535-0.367 2.627-1.752 2.627-3.349v-5.952l3.284-2.596c0.853-0.674 1.341-1.729 1.306-2.821zM7.102 28.904c-0.006-0.298 0.109-0.582 0.322-0.799 0.216-0.22 0.502-0.342 0.804-0.342h3.476c0.276 0 0.5-0.224 0.5-0.5v0-0.324c0-0.276-0.224-0.5-0.5-0.5v0h-7.024c-1.464 0-1.502-2.237-0.032-2.237h7.055c0.276 0 0.5-0.224 0.5-0.5v0-0.324c0-0.276-0.224-0.5-0.5-0.5v0h-8.578c-1.464 0-1.502-2.237-0.031-2.237h8.61c0.276 0 0.5-0.224 0.5-0.5v0-0.324c0-0.276-0.224-0.5-0.5-0.5v0h-6.984c-1.464 0-1.502-2.237-0.032-2.237h9.407c0.48 0 0.685-0.616 0.297-0.902l-1.735-1.28c-1.196-0.883 0.127-2.665 1.282-1.813l6.884 5.082c0.366 0.27 0.585 0.707 0.585 1.168v7.994c0 0.673-0.449 1.251-1.091 1.404l-4.491 1.072c-0.492 0.122-1.056 0.193-1.637 0.193h-5.993c-0.592 0-1.083-0.492-1.094-1.096zM10.799 11.825l0.474 0.617c-0.723 0.964-0.666 2.29 0.065 3.187h-0.401l-1.88-2.45c-0.91-1.186 0.84-2.53 1.742-1.355zM21.68 16.997l-6.884-5.082c-0.727-0.537-1.678-0.633-2.485-0.29l-2.646-3.45c-0.9-1.174 0.792-2.593 1.703-1.405l4.335 5.65c0.080 0.104 0.198 0.174 0.332 0.192l0.003 0c0.019 0.002 0.040 0.004 0.062 0.004 0.117 0 0.225-0.041 0.311-0.109l-0.001 0.001 0.252-0.199c0.116-0.092 0.19-0.234 0.19-0.392 0-0.115-0.039-0.221-0.104-0.306l0.001 0.001-5.27-6.87c-0.901-1.174 0.792-2.593 1.703-1.405l5.29 6.895c0.080 0.104 0.198 0.174 0.332 0.192l0.003 0c0.019 0.002 0.040 0.004 0.062 0.004 0.117 0 0.225-0.041 0.311-0.109l-0.001 0.001 0.252-0.199c0.116-0.092 0.19-0.234 0.19-0.392 0-0.115-0.039-0.221-0.104-0.306l0.001 0.001-4.291-5.593c-0.9-1.173 0.79-2.595 1.703-1.405l5.779 7.533c0.092 0.119 0.236 0.196 0.397 0.196 0.276 0 0.5-0.224 0.5-0.5 0-0.006-0-0.011-0-0.017l0 0.001-0.070-2.176c-0.049-1.513 2.141-1.524 2.188-0.074l0.279 8.635c0.015 0.461-0.19 0.905-0.547 1.188l-2.598 2.054c-0.021-0.896-0.457-1.741-1.174-2.27z"></path>
</svg>
