<!-- Generated by IcoMoon.io -->
<svg version="1.1" xmlns="http://www.w3.org/2000/svg" width="32" height="32" viewBox="0 0 32 32">
<title>sign-out-alt</title>
<path d="M10 13.569c0-0.55 0.45-1 1-1h9v-5.869c0-0.444 0.538-0.669 0.85-0.356l8.85 8.944c0.394 0.394 0.394 1.025 0 1.419l-8.85 8.944c-0.313 0.313-0.85 0.094-0.85-0.356v-5.869h-9c-0.55 0-1-0.45-1-1v-4.856zM8 13.569v4.856c0 1.656 1.344 3 3 3h7v3.869c0 2.219 2.688 3.344 4.262 1.769l8.856-8.938c1.175-1.175 1.175-3.075 0-4.25l-8.856-8.944c-1.569-1.569-4.262-0.456-4.262 1.769v3.869h-7c-1.656 0-3 1.35-3 3zM0 7v18c0 1.656 1.344 3 3 3h8.25c0.412 0 0.75-0.337 0.75-0.75v-0.5c0-0.413-0.338-0.75-0.75-0.75h-8.25c-0.55 0-1-0.45-1-1v-18c0-0.55 0.45-1 1-1h8.25c0.412 0 0.75-0.338 0.75-0.75v-0.5c0-0.412-0.338-0.75-0.75-0.75h-8.25c-1.656 0-3 1.344-3 3z"></path>
</svg>
