<!-- Generated by IcoMoon.io -->
<svg version="1.1" xmlns="http://www.w3.org/2000/svg" width="24" height="32" viewBox="0 0 24 32">
<title>sim-card</title>
<path d="M4 15v10c0 1.656 1.344 3 3 3h10c1.656 0 3-1.344 3-3v-10c0-1.656-1.344-3-3-3h-10c-1.656 0-3 1.344-3 3zM13.5 16.5h-3v-2.5h3v2.5zM18 16.5h-2.5v-2.5h1.5c0.55 0 1 0.45 1 1v1.5zM15.5 23.5h2.5v1.5c0 0.55-0.45 1-1 1h-1.5v-2.5zM10.5 23.5h3v2.5h-3v-2.5zM6 23.5h2.5v2.5h-1.5c-0.55 0-1-0.45-1-1v-1.5zM6 18.5h12v3h-12v-3zM6 15c0-0.55 0.45-1 1-1h1.5v2.5h-2.5v-1.5zM0 4v24c0 2.206 1.794 4 4 4h16c2.206 0 4-1.794 4-4v-20l-8-8h-12c-2.206 0-4 1.794-4 4zM2 4c0-1.1 0.9-2 2-2h11.169l6.831 6.831v19.169c0 1.1-0.9 2-2 2h-16c-1.1 0-2-0.9-2-2v-24z"></path>
</svg>
