<!-- Generated by IcoMoon.io -->
<svg version="1.1" xmlns="http://www.w3.org/2000/svg" width="32" height="32" viewBox="0 0 32 32">
<title>sink-solid</title>
<path d="M2 26c0 3.314 2.686 6 6 6v0h16c3.314 0 6-2.686 6-6v0-2h-28zM31 18h-6v-2h4c0.552 0 1-0.448 1-1v0-1c0-0.552-0.448-1-1-1v0h-5c-1.105 0-2 0.895-2 2v0 3h-4v-12c0-1.105 0.895-2 2-2s2 0.895 2 2v0 1c0 0.552 0.448 1 1 1v0h2c0.552 0 1-0.448 1-1v0-1c-0.005-3.316-2.694-6.002-6.010-6.002-0.42 0-0.829 0.043-1.225 0.125l0.039-0.007c-2.849 0.553-4.804 3.219-4.804 6.121v11.763h-4v-3c0-1.105-0.895-2-2-2v0h-5c-0.552 0-1 0.448-1 1v0 1c0 0.552 0.448 1 1 1v0h4v2h-6c-0.552 0-1 0.448-1 1v0 2c0 0.552 0.448 1 1 1v0h30c0.552 0 1-0.448 1-1v0-2c0-0.552-0.448-1-1-1v0z"></path>
</svg>
