<!-- Generated by IcoMoon.io -->
<svg version="1.1" xmlns="http://www.w3.org/2000/svg" width="32" height="32" viewBox="0 0 32 32">
<title>sink</title>
<path d="M31.5 18h-5.5v-2h3.5c0.276 0 0.5-0.224 0.5-0.5v0-1c0-0.276-0.224-0.5-0.5-0.5v0h-4.5c-0.552 0-1 0.448-1 1v0 3h-5v-11c0-0.552 0.448-1 1-1s1 0.448 1 1v0 1c0 1.105 0.895 2 2 2v0h2c1.105 0 2-0.895 2-2v0-0.859c0-1.3-0.299-2.601-0.973-3.712-1.25-2.069-3.487-3.431-6.043-3.431-0.485 0-0.959 0.049-1.417 0.143l0.045-0.008c-3.252 0.632-5.613 3.618-5.613 7.103v10.764h-5v-3c0-0.552-0.448-1-1-1v0h-4.5c-0.276 0-0.5 0.224-0.5 0.5v0 1c0 0.276 0.224 0.5 0.5 0.5v0h3.5v2h-5.5c-0.276 0-0.5 0.224-0.5 0.5v0 1c0 0.276 0.224 0.5 0.5 0.5v0h1.5v6c0 3.314 2.686 6 6 6v0h16c3.314 0 6-2.686 6-6v0-6h1.5c0.276 0 0.5-0.224 0.5-0.5v0-1c0-0.276-0.224-0.5-0.5-0.5v0zM15 7.236c0-2.528 1.68-4.688 3.994-5.14 0.299-0.063 0.643-0.1 0.995-0.1 2.765 0 5.007 2.24 5.011 5.004v1h-2v-1c0-1.657-1.343-3-3-3s-3 1.343-3 3v0 11h-2zM28 26c-0.003 2.208-1.792 3.997-4 4h-16c-2.208-0.003-3.998-1.792-4-4v-6h24z"></path>
</svg>
