<!-- Generated by IcoMoon.io -->
<svg version="1.1" xmlns="http://www.w3.org/2000/svg" width="40" height="32" viewBox="0 0 40 32">
<title>siren-on-solid</title>
<path d="M14.013 8.434c0.034-0.246 0.243-0.434 0.496-0.434 0.024 0 0.047 0.002 0.070 0.005l-0.003-0 0.991 0.133c0.246 0.034 0.434 0.243 0.434 0.496 0 0.024-0.002 0.047-0.005 0.070l0-0.003-1.508 11.3h16.511l-1.563-12.496c-0.255-1.985-1.935-3.504-3.969-3.504h-10.938c-2.034 0-3.713 1.519-3.967 3.484l-0.002 0.020-1.563 12.496h3.471zM33 22h-26c-0.552 0-1 0.448-1 1v0 4c0 0.552 0.448 1 1 1v0h26c0.552 0 1-0.448 1-1v0-4c0-0.552-0.448-1-1-1v0zM7 12c0-0.828-0.672-1.5-1.5-1.5v0h-4c-0.828 0-1.5 0.672-1.5 1.5s0.672 1.5 1.5 1.5v0h4c0.828 0 1.5-0.672 1.5-1.5v0zM38.5 10.5h-4c-0.828 0-1.5 0.672-1.5 1.5s0.672 1.5 1.5 1.5v0h4c0.828 0 1.5-0.672 1.5-1.5s-0.672-1.5-1.5-1.5v0zM5.668 4.75c0.241 0.172 0.542 0.276 0.866 0.276 0.828 0 1.5-0.672 1.5-1.5 0-0.533-0.278-1.001-0.697-1.267l-0.006-0.004-3-2c-0.241-0.172-0.542-0.276-0.866-0.276-0.828 0-1.5 0.672-1.5 1.5 0 0.533 0.278 1.001 0.697 1.267l0.006 0.004zM33.5 5c0.001 0 0.003 0 0.004 0 0.308 0 0.594-0.093 0.832-0.253l-0.005 0.003 3-2c0.422-0.27 0.698-0.737 0.698-1.267 0-0.828-0.672-1.5-1.5-1.5-0.322 0-0.62 0.102-0.865 0.274l0.005-0.003-3 2c-0.404 0.273-0.665 0.729-0.665 1.246 0 0.827 0.67 1.498 1.497 1.5h0z"></path>
</svg>
