<!-- Generated by IcoMoon.io -->
<svg version="1.1" xmlns="http://www.w3.org/2000/svg" width="28" height="32" viewBox="0 0 28 32">
<title>siren-solid</title>
<path d="M8.013 8.434c0.034-0.246 0.243-0.434 0.496-0.434 0.024 0 0.047 0.002 0.070 0.005l-0.003-0 0.991 0.133c0.246 0.034 0.434 0.243 0.434 0.496 0 0.024-0.002 0.047-0.005 0.070l0-0.003-1.508 11.3h16.511l-1.563-12.496c-0.255-1.985-1.935-3.504-3.969-3.504h-10.938c-2.034 0-3.713 1.519-3.967 3.484l-0.002 0.020-1.563 12.496h3.471zM27 22h-26c-0.552 0-1 0.448-1 1v0 4c0 0.552 0.448 1 1 1v0h26c0.552 0 1-0.448 1-1v0-4c0-0.552-0.448-1-1-1v0z"></path>
</svg>
