<!-- Generated by IcoMoon.io -->
<svg version="1.1" xmlns="http://www.w3.org/2000/svg" width="40" height="32" viewBox="0 0 40 32">
<title>siren-on</title>
<path d="M32 20h-0.117l-1.453-11.621c-0.323-2.48-2.42-4.376-4.961-4.379h-10.938c-2.541 0.004-4.639 1.9-4.959 4.355l-0.003 0.025-1.453 11.62h-0.117c-1.105 0-2 0.895-2 2v0 4c0 1.105 0.895 2 2 2v0h24c1.105 0 2-0.895 2-2v0-4c0-1.105-0.895-2-2-2v0zM11.555 8.625c0.195-1.487 1.452-2.623 2.976-2.625h10.938c1.524 0.002 2.782 1.138 2.975 2.61l0.002 0.015 1.422 11.375h-15.379l1.507-11.302c0.003-0.020 0.005-0.043 0.005-0.067 0-0.253-0.188-0.462-0.431-0.495l-0.003-0-0.991-0.133c-0.020-0.003-0.043-0.005-0.067-0.005-0.253 0-0.462 0.188-0.495 0.431l-0 0.003-1.541 11.568h-2.339zM32 26h-24v-4h24zM5 10h-4c-0.552 0-1 0.448-1 1s0.448 1 1 1v0h4c0.552 0 1-0.448 1-1s-0.448-1-1-1v0zM39 10h-4c-0.552 0-1 0.448-1 1s0.448 1 1 1v0h4c0.552 0 1-0.448 1-1s-0.448-1-1-1v0zM2.553 1.894l4 2c0.13 0.067 0.284 0.106 0.447 0.106 0.552 0 1-0.448 1-1 0-0.389-0.222-0.727-0.547-0.892l-0.006-0.003-4-2c-0.13-0.067-0.284-0.106-0.447-0.106-0.552 0-1 0.448-1 1 0 0.389 0.222 0.727 0.547 0.892l0.006 0.003zM33 4c0.163-0 0.317-0.039 0.453-0.108l-0.006 0.003 4-2c0.331-0.168 0.553-0.505 0.553-0.895 0-0.553-0.448-1.001-1.001-1.001-0.163 0-0.317 0.039-0.453 0.108l0.006-0.003-4 2c-0.332 0.167-0.555 0.505-0.555 0.896 0 0.552 0.448 1 1 1 0.001 0 0.002 0 0.003 0h-0z"></path>
</svg>
