<!-- Generated by IcoMoon.io -->
<svg version="1.1" xmlns="http://www.w3.org/2000/svg" width="28" height="32" viewBox="0 0 28 32">
<title>siren</title>
<path d="M26 20h-0.117l-1.453-11.62c-0.323-2.48-2.42-4.376-4.961-4.38h-10.938c-2.541 0.004-4.639 1.9-4.959 4.355l-0.003 0.025-1.453 11.62h-0.117c-1.105 0-2 0.895-2 2v0 4c0 1.105 0.895 2 2 2v0h24c1.105 0 2-0.895 2-2v0-4c0-1.105-0.895-2-2-2v0zM5.555 8.628c0.193-1.488 1.452-2.626 2.976-2.628h10.938c1.525 0.002 2.783 1.14 2.975 2.613l0.002 0.015 1.422 11.375h-15.379l1.507-11.301c0.003-0.020 0.005-0.043 0.005-0.067 0-0.253-0.188-0.462-0.431-0.495l-0.003-0-0.991-0.133c-0.020-0.003-0.043-0.005-0.067-0.005-0.253 0-0.462 0.188-0.495 0.431l-0 0.003-1.541 11.564h-2.339zM26 26h-24v-4h24z"></path>
</svg>
