<!-- Generated by IcoMoon.io -->
<svg version="1.1" xmlns="http://www.w3.org/2000/svg" width="28" height="32" viewBox="0 0 28 32">
<title>skating-solid</title>
<path d="M25 0c-1.656 0-3 1.344-3 3s1.344 3 3 3 3-1.344 3-3-1.344-3-3-3zM25 28c-0.55 0-1 0.45-1 1s-0.45 1-1 1h-6c-0.55 0-1 0.45-1 1s0.45 1 1 1h6c1.656 0 3-1.344 3-3 0-0.55-0.45-1-1-1zM7.362 28.538c-0.388 0.387-1.025 0.394-1.413 0l-4.244-4.244c-0.387-0.387-1.025-0.387-1.413 0s-0.388 1.025 0 1.413l4.244 4.244c0.588 0.587 1.356 0.875 2.125 0.875s1.537-0.294 2.119-0.875c0.387-0.387 0.387-1.025 0-1.413s-1.025-0.394-1.419 0zM10.869 17.3l-5.856 5.856c-0.781 0.781-0.781 2.050 0 2.825 0.388 0.387 0.9 0.587 1.413 0.587s1.025-0.194 1.412-0.587l5.744-5.744-1.887-1.887c-0.313-0.313-0.588-0.669-0.825-1.050zM8 10h6.594l-1.256 1.075c-0.844 0.719-1.35 1.775-1.394 2.881-0.044 1.113 0.381 2.2 1.169 2.981l4.888 4.887v5.175c0 1.106 0.894 2 2 2s2-0.894 2-2v-5.587c0-0.788-0.319-1.563-0.881-2.119l-3.813-3.813c0.031-0.025 0.075-0.037 0.106-0.069l5.144-5.144c0.719-0.719 0.931-1.787 0.544-2.725s-1.294-1.544-2.313-1.544h-12.787c-1.106 0-2 0.894-2 2s0.894 2 2 2z"></path>
</svg>
