<!-- Generated by IcoMoon.io -->
<svg version="1.1" xmlns="http://www.w3.org/2000/svg" width="28" height="32" viewBox="0 0 28 32">
<title>skating</title>
<path d="M24 0c-2.206 0-4 1.794-4 4 0 0.794 0.238 1.531 0.644 2.156-0.337-0.094-0.694-0.156-1.056-0.156h-10.588c-1.656 0-3 1.344-3 3s1.344 3 3 3h3.031c-0.639 0.796-1.041 1.806-1.087 2.909l-0 0.010c-0.012 0.281 0.012 0.569 0.050 0.844l-5.688 5.688c-0.569 0.569-0.881 1.319-0.881 2.119s0.313 1.556 0.881 2.119c1.169 1.175 3.069 1.175 4.244 0l4.95-4.95 2.5 2.5v2.762c0 1.656 1.344 3 3 3s3-1.344 3-3v-3.587c0-1.056-0.425-2.087-1.175-2.831l-3.081-3.081 3.669-3.669c1.15-1.15 1.488-2.856 0.869-4.356-0.1-0.238-0.25-0.438-0.387-0.644 0.356 0.1 0.719 0.175 1.106 0.175 2.206 0 4-1.794 4-4s-1.794-4.006-4-4.006zM8.137 24.281c-0.388 0.387-1.025 0.394-1.412 0-0.388-0.387-0.388-1.025 0-1.413l5.050-5.050c0.419 0.644 0.331 0.525 1.319 1.512l-4.956 4.95zM21 11.412l-5.088 5.088 4.5 4.5c0.375 0.375 0.587 0.887 0.587 1.413v3.587c0 0.55-0.45 1-1 1s-1-0.45-1-1v-3.587l-5.2-5.2c-0.006-0.006-0.006-0.006-0.012-0.006-0.012-0.012-0.012-0.025-0.025-0.038-1.338-1.412-0.912-3.369 0.219-4.338l3.362-2.838h-8.344c-0.55 0-1-0.45-1-1s0.45-1 1-1h10.587c1.781 0.006 2.669 2.162 1.413 3.419zM24 6c-1.106 0-2-0.9-2-2s0.894-2 2-2 2 0.9 2 2-0.894 2-2 2zM7.362 28.538c-0.388 0.387-1.025 0.387-1.413 0l-4.244-4.244c-0.387-0.387-1.025-0.387-1.413 0s-0.388 1.025 0 1.413l4.244 4.244c0.581 0.587 1.356 0.875 2.119 0.875s1.537-0.294 2.119-0.875c0.387-0.387 0.387-1.025 0-1.413s-1.019-0.394-1.412 0zM25 28c-0.55 0-1 0.45-1 1s-0.45 1-1 1h-6c-0.55 0-1 0.45-1 1s0.45 1 1 1h6c1.656 0 3-1.344 3-3 0-0.55-0.45-1-1-1z"></path>
</svg>
