<!-- Generated by IcoMoon.io -->
<svg version="1.1" xmlns="http://www.w3.org/2000/svg" width="32" height="32" viewBox="0 0 32 32">
<title>skeleton-solid</title>
<path d="M31 10h-13v-2h9c0.552 0 1-0.447 1-1v-2c0-0.553-0.448-1-1-1h-9v-3c0-0.552-0.448-1-1-1h-2c-0.553 0-1 0.448-1 1v3h-9c-0.553 0-1 0.447-1 1v2c0 0.553 0.447 1 1 1h9v2h-13c-0.552 0-1 0.447-1 1v2c0 0.553 0.448 1 1 1h13v2h-9c-0.553 0-1 0.448-1 1v2c0 0.552 0.447 1 1 1h9v2h-7c-2.761 0-5 2.239-5 5s2.239 5 5 5 5-2.239 5-5c0-0.343-0.035-0.677-0.101-1h8.202c-0.064 0.301-0.101 0.646-0.101 1v0c0 2.761 2.239 5 5 5s5-2.239 5-5-2.239-5-5-5h-7.001v-2h9c0.552 0 1-0.448 1-1v-2c0-0.552-0.448-1-1-1h-9v-2h13c0.552 0 1-0.447 1-1v-2c0-0.553-0.448-1-1-1zM7 29c-1.103 0-2-0.898-2-2s0.897-2 2-2 2 0.898 2 2-0.898 2-2 2zM25 25c1.102 0 2 0.898 2 2s-0.898 2-2 2-2-0.898-2-2 0.898-2 2-2z"></path>
</svg>
