<!-- Generated by IcoMoon.io -->
<svg version="1.1" xmlns="http://www.w3.org/2000/svg" width="32" height="32" viewBox="0 0 32 32">
<title>ski-jump</title>
<path d="M31.925 11.969c-0.094-0.544-0.631-0.906-1.15-0.819-0.544 0.094-0.913 0.606-0.819 1.156 0.238 1.412-0.438 2.844-1.644 3.531l-15.744 8.094 2.925-7.119 7.294-5.675c0.781-0.606 1.344-1.831 1.15-3.144 2.25 0.044 4.063-1.781 4.063-3.994 0-2.206-1.794-4-4-4s-4 1.794-4 4c0 0.35 0.056 0.681 0.144 1h-10.144c-1.656 0-3 1.344-3 3s1.344 3 3 3h2.488c-2.106 2.306-2.356 2.844-3.981 6.938-0.45 1.131-1.019 2.556-1.781 4.419-0.306 0.738-0.306 1.556 0.006 2.294 0.281 0.681 0.813 1.2 1.475 1.519l-7.662 3.938c-0.494 0.25-0.688 0.856-0.431 1.344 0.175 0.344 0.525 0.544 0.887 0.544 0.156 0 0.312-0.038 0.456-0.113l27.806-14.3c1.969-1.113 3.044-3.375 2.663-5.613zM24 2c1.106 0 2 0.9 2 2s-0.894 2-2 2-2-0.9-2-2 0.9-2 2-2zM8.575 23.119c4.375-10.637 2.306-7.25 8.45-14.119h-7.025c-0.55 0-1-0.45-1-1s0.45-1 1-1h10.5c1.337 0 2.006 1.619 1.063 2.563l-7.619 5.925c-0.050 0.050-0.137 0.175-0.194 0.313l-3.331 8.081c-0.206 0.506-0.781 0.756-1.306 0.544-0.5-0.212-0.744-0.794-0.537-1.306z"></path>
</svg>
