<!-- Generated by IcoMoon.io -->
<svg version="1.1" xmlns="http://www.w3.org/2000/svg" width="32" height="32" viewBox="0 0 32 32">
<title>ski-lift</title>
<path d="M31 18.519c-0.55 0-1 0.45-1 1 0 1.144-0.719 2.181-1.794 2.575l-8.044 2.975c0.519-0.538 0.837-1.269 0.837-2.069v-7.5c0-0.912-0.406-1.762-1.113-2.331-0.6-0.494-1.531-0.825-2.538-0.594l-4.769 1.025-1.688-2.894c-0.431-0.875-1.2-1.512-2.088-1.844 0.731-0.738 1.194-1.744 1.194-2.862 0-2.206-1.794-4-4-4s-4 1.794-4 4c0 1.769 1.156 3.25 2.75 3.781-0.325 0.344-0.594 0.744-0.775 1.188-0.438 1.088-0.306 2.331 0.15 3.137l2.7 4.762c0.55 1.087 1.862 1.913 3.344 1.556l4.825-1.15v3.731c0 1.556 1.2 2.831 2.719 2.969l-11.069 4.088c-0.519 0.194-0.781 0.769-0.594 1.288 0.119 0.319 0.6 0.844 1.281 0.594l21.556-7.962c1.856-0.688 3.1-2.475 3.1-4.45 0.012-0.569-0.438-1.012-0.988-1.012zM4 6c0-1.1 0.894-2 2-2s2 0.9 2 2-0.894 2-2 2-2-0.9-2-2zM19 22.994c0 0.55-0.45 1-1 1s-1-0.45-1-1v-6.256l-7.294 1.738c-0.4 0.094-0.894-0.069-1.113-0.544l-2.737-4.819c-0.419-0.925 0.019-2.019 0.963-2.4 1.388-0.556 2.175 0.662 2.288 0.919l2.463 4.213 6.212-1.331c0.594-0.137 1.206 0.325 1.206 0.975v7.506zM16 0h-2v11.5l2-0.5v-11zM11.319 23.944c0.525-0.175 0.806-0.738 0.631-1.262s-0.744-0.806-1.262-0.631c-2.088 0.694-4.375-0.275-5.325-2.262l-3.462-7.219c-0.238-0.5-0.837-0.706-1.331-0.469-0.5 0.238-0.706 0.838-0.469 1.331l3.45 7.219c1.081 2.262 3.362 3.625 5.756 3.625 0.669-0.006 1.35-0.106 2.012-0.331z"></path>
</svg>
