<!-- Generated by IcoMoon.io -->
<svg version="1.1" xmlns="http://www.w3.org/2000/svg" width="32" height="32" viewBox="0 0 32 32">
<title>ski-lift-solid</title>
<path d="M7 8c1.656 0 3-1.344 3-3s-1.344-3-3-3-3 1.344-3 3 1.344 3 3 3zM16 0h-2v11.5l2-0.5v-11zM30.5 18c-0.825 0-1.5 0.675-1.5 1.5 0 0.869-0.55 1.656-1.363 1.956l-7.637 2.825v-8.781c0-0.619-0.281-1.2-0.769-1.575-0.488-0.381-1.119-0.519-1.719-0.363l-4.269 1.063-1.506-3.356c-0.681-1.512-2.456-2.188-3.969-1.506s-2.188 2.456-1.506 3.969c0 0 1.681 4.119 1.737 4.256 0.494 1.194 1.419 1.725 2.487 1.456l5.513-1.381v7.7l-9.019 3.331c-0.775 0.288-1.175 1.15-0.888 1.925 0.225 0.606 0.8 0.981 1.406 0.981 0.175 0 0.35-0.031 0.519-0.094l20.656-7.631c1.988-0.738 3.325-2.656 3.325-4.775 0-0.825-0.669-1.5-1.5-1.5zM11.975 23.837c0.787-0.262 1.213-1.113 0.95-1.9s-1.106-1.219-1.9-0.95l-1.15 0.387c-1.188 0.4-2.5-0.156-3.044-1.294l-3.975-8.313c-0.356-0.744-1.25-1.063-2-0.706s-1.063 1.25-0.706 2l3.975 8.313c0.938 1.95 2.9 3.125 4.969 3.125 0.787 0 1.063-0.056 2.881-0.663z"></path>
</svg>
