<!-- Generated by IcoMoon.io -->
<svg version="1.1" xmlns="http://www.w3.org/2000/svg" width="32" height="32" viewBox="0 0 32 32">
<title>ski-jump-solid</title>
<path d="M31.919 11.887c-0.137-0.819-0.925-1.369-1.731-1.231-0.819 0.137-1.369 0.912-1.231 1.731 0.206 1.206-0.375 2.431-1.381 3.006l-16.7 8.594 2.806-6.813 7.588-6.906c0.719-0.719 0.931-1.787 0.544-2.725s-1.294-1.544-2.313-1.544h-11.5c-1.106 0-2 0.894-2 2s0.894 2 2 2h6.094l-3.681 4.781c-0.213 0.275 0.012-0.225-3.763 8.956-0.319 0.775-0.112 1.637 0.456 2.188l-6.294 3.244c-0.738 0.375-1.025 1.281-0.644 2.019 0.269 0.519 0.794 0.813 1.337 0.813 0.231 0 0.469-0.056 0.687-0.169l26.825-13.806c2.144-1.231 3.313-3.7 2.9-6.137zM25 6c1.656 0 3-1.344 3-3s-1.344-3-3-3-3 1.344-3 3 1.344 3 3 3z"></path>
</svg>
