<!-- Generated by IcoMoon.io -->
<svg version="1.1" xmlns="http://www.w3.org/2000/svg" width="32" height="32" viewBox="0 0 32 32">
<title>skiing-solid</title>
<path d="M27 6c1.656 0 3-1.344 3-3s-1.344-3-3-3-3 1.344-3 3 1.344 3 3 3zM31.563 28.256c-0.587-0.587-1.538-0.587-2.119 0-0.756 0.756-1.906 0.962-2.819 0.544l-8.488-4.387 3.075-4.613c0.794-1.188 0.637-2.781-0.375-3.788l-2.525-2.531-6.688-3.319c-0.181 1.244 0.213 2.5 1.106 3.4l4.694 4.7-2.869 4.3-12.369-6.394c-0.731-0.375-1.637-0.094-2.019 0.644s-0.094 1.644 0.644 2.019l24.494 12.656c0.744 0.344 1.531 0.506 2.319 0.506 1.45 0 2.875-0.563 3.938-1.625 0.581-0.581 0.581-1.531 0-2.113zM7.5 5.725l-0.719 1.406c0.9 0.456 1.95 0.306 2.675-0.3l2.95 1.462c-0.006 0.006-0.006 0.012-0.012 0.019l7.156 3.55 2.025-0.813 0.4 1.194c0.25 0.756 0.788 1.375 1.5 1.731l3.631 1.813c0.994 0.494 2.188 0.094 2.681-0.894s0.094-2.188-0.894-2.681l-3.256-1.631-1.069-3.2c-0.506-1.513-2.556-3.538-5.281-2.45l-5.075 2.031-3.906-1.938c0.019-0.906-0.45-1.788-1.306-2.225l-0.694 1.356h-0.012l-2.15-0.438c-0.112-0.025-0.231 0.013-0.313 0.106-0.119 0.138-0.106 0.344 0.031 0.463l1.638 1.438z"></path>
</svg>
