<!-- Generated by IcoMoon.io -->
<svg version="1.1" xmlns="http://www.w3.org/2000/svg" width="32" height="32" viewBox="0 0 32 32">
<title>skiing</title>
<path d="M31.706 29.106c-0.387-0.394-1.025-0.394-1.413 0-0.9 0.906-2.288 1.15-3.387 0.644l-8.131-4.356c0.275-0.2 0.525-0.438 0.719-0.725l0.063-0.1 2.519-4.275c1.019-1.575 0.8-3.669-0.531-5l-3.094-3.094 8.206 4.488c2.1 1.044 3.631-0.563 4.025-1.338 0.738-1.481 0.137-3.287-1.344-4.025l-2.881-1.45-0.631-1.888c0.063 0 0.119 0.019 0.175 0.019 2.206 0 4-1.794 4-4s-1.794-4.006-4-4.006c-2.144 0-3.887 1.7-3.981 3.819-0.938-0.237-1.962-0.275-3.1 0.181l-5.213 2.088c-0.319 0.125-0.606 0.306-0.887 0.487l-2.5-1.431c0.069-0.95-0.419-1.888-1.319-2.35l-0.694 1.363-2.162-0.438c-0.331-0.069-0.531 0.35-0.281 0.569l1.631 1.431c0.006 0.006 0.006 0.013 0.006 0.019l-0.719 1.4c0.856 0.438 1.844 0.3 2.563-0.237l2.031 1.163c-0.325 0.506-0.594 1.056-0.719 1.669-0.338 1.65 0.169 3.35 1.363 4.537l4.181 4.181-1.738 2.95c-0.287 0.45-0.425 0.95-0.45 1.444l-12.537-6.725c-0.481-0.256-1.094-0.081-1.356 0.406s-0.075 1.094 0.406 1.356l25.488 13.656c0.675 0.313 1.394 0.462 2.106 0.462 1.319 0 2.619-0.512 3.581-1.481 0.4-0.387 0.4-1.025 0.006-1.413zM26 2c1.106 0 2 0.9 2 2s-0.894 2-2 2-2-0.9-2-2 0.894-2 2-2zM19.663 5.862c2.050-0.819 3.587 0.725 3.956 1.837l1.2 3.594 3.631 1.813c1.188 0.594 0.288 2.375-0.894 1.787l-1.769-0.881-2.488-1.425c-0.163-0.194-0.294-0.412-0.375-0.662l-1.131-3.4-3.131 1.4-3.762-2.156 4.762-1.906zM16.169 22.45l2.544-4.319-5.275-5.281c-0.713-0.713-1.019-1.731-0.819-2.725 0.081-0.4 0.256-0.756 0.481-1.081l3.294 1.887-1.419 0.631 5.15 5.15c0.675 0.675 0.775 1.738 0.25 2.525l-2.544 4.319c-0.744 1.106-2.394-0.012-1.663-1.106z"></path>
</svg>
