<!-- Generated by IcoMoon.io -->
<svg version="1.1" xmlns="http://www.w3.org/2000/svg" width="36" height="32" viewBox="0 0 36 32">
<title>skiing-nordic</title>
<path d="M35 27c-0.55 0-1 0.45-1 1 0 1.1-0.894 2-2 2h-4.419l1.606-11.25c1.063-0.462 1.813-1.519 1.813-2.75 0-1.656-1.344-3-3-3h-2.131l-1.356-2.769c-0.488-0.994-1.2-1.85-2.056-2.513 1.494-0.581 2.544-2.031 2.544-3.719 0-2.206-1.794-4-4-4s-4 1.794-4 4c0 0.625 0.144 1.219 0.4 1.744l-1.85-0.55c-2.063-0.494-4.213-0.044-5.9 1.25l-2.475 1.9c-0.638 0.488-1.044 1.194-1.15 1.988s0.106 1.581 0.594 2.219c0.225 0.3 0.506 0.531 0.806 0.719l-3.344 16.731h-3.081c-0.55 0-1 0.45-1 1s0.45 1 1 1h31c2.206 0 4-1.794 4-4 0-0.55-0.45-1-1-1zM14.85 22.15l-3.444 7.275c-0.563 1.181-2.381 0.356-1.806-0.856l3.575-7.544c0.519 0.488 0.838 0.631 1.675 1.125zM16.581 23.175l1.994 1.175-1.438 3.75c-0.194 0.631-0.169 1.288 0.050 1.9h-3.838l3.231-6.825zM23.044 20.019l-3.087-1.825 0.8-2.006 0.275 0.569c0.669 1.363 2.075 2.244 3.594 2.244h2.506l-1.569 11h-2.744c0.006-0.019 0.019-0.038 0.025-0.056l2.006-5.394c0.488-1.731-0.25-3.594-1.806-4.531zM21 2c1.106 0 2 0.9 2 2s-0.894 2-2 2-2-0.9-2-2 0.894-2 2-2zM8.394 9.931l2.475-1.9c1.206-0.919 2.744-1.244 4.162-0.906l4.481 1.331c1.369 0.35 2.569 1.344 3.206 2.656l1.906 3.887h3.375c1.325 0 1.325 2 0 2h-3.375c-0.756 0-1.462-0.438-1.8-1.119l-2.256-4.612-3.113 7.781 4.563 2.688c0.781 0.469 1.15 1.406 0.931 2.194l-1.994 5.369c-0.4 1.294-2.275 0.619-1.925-0.538l2.019-5.275-6.044-3.563c-1.294-0.762-1.825-2.381-1.231-3.762l2.781-6.494c-2.169-0.644-2.169-0.675-2.637-0.675-0.637 0-1.3 0.225-1.831 0.631l-2.481 1.9c-1.063 0.806-2.25-0.8-1.213-1.594zM9.381 13.688c0.506-0.063 1.006-0.25 1.444-0.581l2.481-1.9c0.169-0.131 0.363-0.194 0.506-0.219l-1.881 4.381c-0.525 1.225-0.506 2.556-0.063 3.731l-4.081 8.619c-0.344 0.725-0.381 1.531-0.112 2.288h-1.556l3.262-16.319z"></path>
</svg>
