<!-- Generated by IcoMoon.io -->
<svg version="1.1" xmlns="http://www.w3.org/2000/svg" width="36" height="32" viewBox="0 0 36 32">
<title>skiing-nordic-solid</title>
<path d="M21 6c1.656 0 3-1.344 3-3s-1.344-3-3-3-3 1.344-3 3 1.344 3 3 3zM34.5 26c-0.825 0-1.5 0.669-1.5 1.5 0 0.825-0.675 1.5-1.5 1.5h-4.344l1.594-11.15c0.731-0.294 1.256-1.012 1.256-1.85 0-1.106-0.894-2-2-2h-2.75l-1.631-3.325c-0.781-1.594-2.219-2.763-3.863-3.181l-4.45-1.325c-1.769-0.425-3.613-0.031-5.050 1.069l-2.481 1.9c-0.875 0.669-1.044 1.925-0.369 2.806 0.044 0.056 0.106 0.081 0.15 0.131l-3.381 16.925h-2.681c-0.825 0-1.5 0.669-1.5 1.5s0.675 1.5 1.5 1.5h30c2.481 0 4.5-2.019 4.5-4.5 0-0.825-0.675-1.5-1.5-1.5zM18.219 29h-6.056l2.694-5.688-1.375-0.813c-0.756-0.45-1.369-1.056-1.844-1.738l-3.906 8.238h-1.513l3.269-16.337c0.256-0.063 0.506-0.181 0.731-0.35l2.481-1.9c0.481-0.369 1.088-0.5 1.581-0.381l0.919 0.275-2.344 5.463c-0.787 1.844-0.081 4 1.644 5.019l5.313 3.137-1.594 5.075zM25.131 29h-2.725l1.475-4.719c0.369-1.3-0.181-2.694-1.35-3.4l-3.825-2.256 1.956-4.894 1.269 2.587c0.5 1.019 1.556 1.681 2.694 1.681h2.081l-1.575 11z"></path>
</svg>
