<!-- Generated by IcoMoon.io -->
<svg version="1.1" xmlns="http://www.w3.org/2000/svg" width="32" height="32" viewBox="0 0 32 32">
<title>skull-solid</title>
<path d="M16 0c-8.838 0-16 6.269-16 14 0 4.381 2.306 8.288 5.906 10.856 0.6 0.431 0.95 1.131 0.844 1.869l-0.588 4.137c-0.088 0.6 0.375 1.137 0.981 1.137h4.856v-3.5c0-0.275 0.225-0.5 0.5-0.5h1c0.275 0 0.5 0.225 0.5 0.5v3.5h4v-3.5c0-0.275 0.225-0.5 0.5-0.5h1c0.275 0 0.5 0.225 0.5 0.5v3.5h4.856c0.606 0 1.069-0.538 0.981-1.137l-0.587-4.137c-0.106-0.731 0.238-1.438 0.844-1.869 3.6-2.569 5.906-6.475 5.906-10.856 0-7.731-7.163-14-16-14zM10 20c-2.206 0-4-1.794-4-4s1.794-4 4-4 4 1.794 4 4-1.794 4-4 4zM22 20c-2.206 0-4-1.794-4-4s1.794-4 4-4 4 1.794 4 4-1.794 4-4 4z"></path>
</svg>
