<!-- Generated by IcoMoon.io -->
<svg version="1.1" xmlns="http://www.w3.org/2000/svg" width="32" height="32" viewBox="0 0 32 32">
<title>skull</title>
<path d="M22 11.5c-2.488 0-4.5 2.012-4.5 4.5s2.012 4.5 4.5 4.5 4.5-2.012 4.5-4.5-2.012-4.5-4.5-4.5zM22 18.5c-1.381 0-2.5-1.119-2.5-2.5s1.119-2.5 2.5-2.5 2.5 1.119 2.5 2.5-1.119 2.5-2.5 2.5zM10 11.5c-2.487 0-4.5 2.012-4.5 4.5s2.013 4.5 4.5 4.5 4.5-2.012 4.5-4.5-2.012-4.5-4.5-4.5zM10 18.5c-1.381 0-2.5-1.119-2.5-2.5s1.119-2.5 2.5-2.5 2.5 1.119 2.5 2.5-1.119 2.5-2.5 2.5zM16 0c-8.838 0-16 6.269-16 14 0 4.381 2.306 8.288 5.906 10.856 0.606 0.431 0.95 1.131 0.844 1.869l-0.444 1.331c-0.644 1.944 0.806 3.944 2.85 3.944h13.688c2.044 0 3.494-2 2.85-3.944l-0.444-1.331c-0.106-0.731 0.238-1.438 0.844-1.869 3.6-2.569 5.906-6.475 5.906-10.856 0-7.731-7.163-14-16-14zM24.931 23.225c-1.231 0.875-1.869 2.325-1.663 3.775l0.025 0.175 0.056 0.175 0.444 1.331c0.137 0.425-0.025 0.744-0.137 0.9s-0.363 0.413-0.813 0.413h-2.844v-3.5c0-0.275-0.225-0.5-0.5-0.5h-1c-0.275 0-0.5 0.225-0.5 0.5v3.5h-4v-3.5c0-0.275-0.225-0.5-0.5-0.5h-1c-0.275 0-0.5 0.225-0.5 0.5v3.5h-2.844c-0.444 0-0.7-0.262-0.813-0.413-0.113-0.156-0.281-0.481-0.137-0.9l0.444-1.331 0.056-0.175 0.025-0.175c0.206-1.45-0.431-2.9-1.662-3.775-3.225-2.294-5.069-5.656-5.069-9.225 0-6.619 6.281-12 14-12s14 5.381 14 12c0 3.569-1.844 6.931-5.069 9.225z"></path>
</svg>
