<!-- Generated by IcoMoon.io -->
<svg version="1.1" xmlns="http://www.w3.org/2000/svg" width="40" height="32" viewBox="0 0 40 32">
<title>skull-cow</title>
<path d="M37.704 0.286c-0.18-0.177-0.428-0.287-0.701-0.287-0.552 0-1 0.448-1 1 0 0.126 0.023 0.246 0.065 0.356l-0.002-0.007c0.379 1.008 1.225 4.224 0.18 5.731-0.425 0.611-1.158 0.92-2.246 0.92l-4.563-0.011c-0.7-1.194-1.976-1.985-3.437-1.989h-12.001c-1.466 0.003-2.746 0.799-3.435 1.981l-0.010 0.019h-4.555c-1.084 0-1.817-0.308-2.243-0.919-1.048-1.505-0.227-4.649 0.18-5.733 0.039-0.103 0.062-0.223 0.062-0.348 0-0.552-0.448-1-1-1-0.272 0-0.519 0.109-0.699 0.285l0-0c-1.485 1.452-2.301 3.475-2.301 5.696 0 4.405 3.589 8.019 8 8.019h2v5c0 2.209 1.791 4 4 4v0l1.65 7.433c0.205 0.902 1 1.566 1.95 1.567h4.791c0 0 0 0 0 0 0.95 0 1.744-0.662 1.949-1.549l0.003-0.013 1.657-7.438c2.209 0 4-1.791 4-4v0-5h2c4.412 0 8-3.614 8-8.019 0-2.22-0.813-4.242-2.296-5.695zM10 12h-2c-2.219 0-4.16-1.236-5.199-3.028 0.664 0.552 1.674 1.028 3.199 1.028h4zM28 19c0 1.105-0.895 2-2 2v0h-1.606l-0.349 1.566-1.654 7.434h-4.791l-1.998-9h-1.603c-1.105 0-2-0.895-2-2v0-9c0-1.105 0.895-2 2-2v0h12c1.105 0 2 0.895 2 2v0zM32 12h-2v-2c0-0.004 0-0.008 0-0.012l4 0.012c1.523 0 2.531-0.475 3.194-1.027-1.037 1.791-2.977 3.027-5.194 3.027zM16 14c-1.105 0-2 0.895-2 2s0.895 2 2 2c1.105 0 2-0.895 2-2v0c0-1.105-0.895-2-2-2v0zM24 14c-1.105 0-2 0.895-2 2s0.895 2 2 2c1.105 0 2-0.895 2-2v0c0-1.105-0.895-2-2-2v0z"></path>
</svg>
