<!-- Generated by IcoMoon.io -->
<svg version="1.1" xmlns="http://www.w3.org/2000/svg" width="28" height="32" viewBox="0 0 28 32">
<title>skull-crossbones</title>
<path d="M16.5 10c0.828 0 1.5-0.672 1.5-1.5s-0.672-1.5-1.5-1.5-1.5 0.673-1.5 1.5 0.672 1.5 1.5 1.5zM11.5 10c0.828 0 1.5-0.672 1.5-1.5s-0.672-1.5-1.5-1.5-1.5 0.673-1.5 1.5 0.672 1.5 1.5 1.5zM8.439 14.246l-0.401 1.89c-0.201 0.947 0.406 1.864 1.233 1.864h9.456c0.827 0 1.434-0.917 1.233-1.864l-0.401-1.89c2.080-1.465 3.439-3.704 3.439-6.246 0-4.418-4.029-8-9-8s-9 3.582-9 8c0 2.542 1.359 4.781 3.439 6.246zM14 2c3.86 0 7 2.691 7 6 0 1.77-0.944 3.451-2.591 4.611l-1.078 0.759 0.273 1.29 0.284 1.339h-7.776l0.284-1.339 0.273-1.29-1.078-0.759c-1.646-1.16-2.591-2.841-2.591-4.611 0-3.309 3.14-6 7-6zM16.82 26l10.877-4.121c0.254-0.109 0.371-0.403 0.262-0.657l-0.394-0.919c-0.078-0.18-0.254-0.303-0.459-0.303-0.071 0-0.139 0.015-0.2 0.042l0.003-0.001-12.909 4.892-12.908-4.891c-0.058-0.026-0.126-0.040-0.197-0.040-0.205 0-0.381 0.123-0.458 0.3l-0.001 0.003-0.394 0.919c-0.109 0.254 0.009 0.548 0.263 0.657l10.876 4.121-10.877 4.121c-0.254 0.109-0.371 0.403-0.263 0.657l0.394 0.919c0.078 0.18 0.254 0.303 0.459 0.303 0.071 0 0.139-0.015 0.2-0.042l-0.003 0.001 12.909-4.891 12.908 4.891c0.058 0.026 0.126 0.040 0.197 0.040 0.205 0 0.381-0.123 0.458-0.3l0.001-0.003 0.394-0.919c0.109-0.254-0.009-0.548-0.262-0.657l-10.876-4.121z"></path>
</svg>
