<!-- Generated by IcoMoon.io -->
<svg version="1.1" xmlns="http://www.w3.org/2000/svg" width="32" height="32" viewBox="0 0 32 32">
<title>sledding</title>
<path d="M31.706 27.069c-0.387-0.394-1.025-0.394-1.413 0-0.944 0.944-2.387 1.2-3.563 0.663l-3.788-1.956c0.644-0.55 1.056-1.356 1.056-2.269v-5.5c0-1.656-1.344-3-3-3h-0.756l1.169-1.169c1.113-1.113 1.444-2.75 0.906-4.213 0.512 0.238 1.081 0.381 1.681 0.381 2.206 0 4-1.794 4-4s-1.794-4-4-4-4 1.794-4 4c0 0.5 0.106 0.975 0.269 1.419-0.525-0.244-1.081-0.419-1.688-0.419h-8.581c-1.656 0-3 1.344-3 3s1.344 3 3 3h1.756l-1.169 1.169c-1.15 1.15-1.488 2.863-0.869 4.363 0.088 0.212 0.231 0.387 0.35 0.581l-8.606-4.456c-0.481-0.25-1.094-0.063-1.35 0.431-0.256 0.488-0.063 1.094 0.431 1.35l25.313 13.081c0.694 0.319 1.438 0.475 2.169 0.475 1.356 0 2.694-0.525 3.681-1.519 0.394-0.394 0.394-1.025 0-1.413zM24 4c1.106 0 2 0.9 2 2s-0.894 2-2 2-2-0.9-2-2 0.894-2 2-2zM12 15.588l4.587-4.588h-6.588c-0.55 0-1-0.45-1-1s0.45-1 1-1h8.588c0.813 0 1.538 0.488 1.85 1.238s0.137 1.606-0.431 2.181l-4.594 4.581h5.587c0.55 0 1 0.45 1 1v5.5c0 0.55-0.45 1-1 1s-1-0.45-1-1v-4.5h-6.588c-1.781 0-2.675-2.15-1.412-3.412zM18 21v2.212l-4.281-2.212h4.281z"></path>
</svg>
