<!-- Generated by IcoMoon.io -->
<svg version="1.1" xmlns="http://www.w3.org/2000/svg" width="32" height="32" viewBox="0 0 32 32">
<title>sledding-solid</title>
<path d="M31.563 26.256c-0.587-0.587-1.538-0.587-2.119 0-0.756 0.756-1.906 0.962-2.819 0.544l-3.069-1.587c0.262-0.337 0.45-0.744 0.45-1.212v-6c0-1.106-0.894-2-2-2h-3.175l2.881-2.881c0.863-0.863 1.119-2.144 0.65-3.269s-1.556-1.85-2.769-1.85h-9.594c-1.106 0-2 0.894-2 2s0.894 2 2 2h5.175l-4.588 4.588c-0.188 0.181-0.331 0.406-0.431 0.65-0.131 0.319-0.15 0.656-0.113 0.994l-7.856-4.069c-0.731-0.375-1.644-0.094-2.019 0.644-0.381 0.738-0.094 1.644 0.644 2.025l24.494 12.663c0.744 0.344 1.531 0.506 2.319 0.506 1.45 0 2.875-0.563 3.938-1.625 0.581-0.587 0.581-1.538 0-2.119zM20 23.375l-6.525-3.375h6.525v3.375zM25 8c1.656 0 3-1.344 3-3s-1.344-3-3-3-3 1.344-3 3 1.344 3 3 3z"></path>
</svg>
