<!-- Generated by IcoMoon.io -->
<svg version="1.1" xmlns="http://www.w3.org/2000/svg" width="40" height="32" viewBox="0 0 40 32">
<title>sleigh</title>
<path d="M38.487 22.806l-0.894-0.7c-0.212-0.175-0.531-0.137-0.7 0.075l-0.625 0.781c-0.175 0.212-0.138 0.531 0.075 0.7l0.844 0.656c0.394 0.319 0.694 0.756 0.781 1.25 0.237 1.288-0.756 2.419-2.006 2.419h-7.962v-4h0.625c4.069 0 7.375-3.306 7.375-7.375v-8.581h1.5c0.275 0 0.5-0.225 0.5-0.5v-1c0-0.275-0.225-0.5-0.5-0.5h-7.5c-1.106 0-2 0.894-2 2v3.031c0 1.756-1.837 2.45-2.631 2.669-3.006 0.831-8.563-0.238-11.512-5.194-3.262-5.494-6.231-6.537-10.563-6.537h-2.794c-0.275 0-0.5 0.225-0.5 0.5v1c0 0.275 0.225 0.5 0.5 0.5h1.5v10.5c0 4 2.494 7.412 6 8.813v4.688h-5.5c-0.275 0-0.5 0.225-0.5 0.5v1c0 0.275 0.225 0.5 0.5 0.5h33.25c2.219 0 4.125-1.706 4.244-3.8 0.075-1.325-0.475-2.563-1.506-3.394zM4 14.5v-10.475c3.338 0.112 5.512 1.119 8.144 5.531 2.637 4.45 7.219 6.444 11.106 6.444 0.938 0 1.831-0.113 2.65-0.344 2.569-0.706 4.1-2.425 4.1-4.594v-3.031h4v8.594c0 2.962-2.413 5.375-5.375 5.375h-17.125c-4.138 0-7.5-3.363-7.5-7.5zM10 28v-4.15c0.494 0.081 0.988 0.15 1.5 0.15h14.5v4h-16z"></path>
</svg>
