<!-- Generated by IcoMoon.io -->
<svg version="1.1" xmlns="http://www.w3.org/2000/svg" width="40" height="32" viewBox="0 0 40 32">
<title>sleigh-solid</title>
<path d="M38.294 21.919l-0.581-0.462c-0.431-0.344-1.063-0.275-1.406 0.156l-0.625 0.781c-0.344 0.431-0.275 1.063 0.156 1.406l0.581 0.462c0.369 0.294 0.575 0.731 0.575 1.2 0 0.85-0.688 1.538-1.538 1.538h-32.456c-0.55 0-1 0.45-1 1v1c0 0.55 0.45 1 1 1h32.25c2.438 0 4.606-1.831 4.744-4.269 0.087-1.488-0.544-2.894-1.7-3.813zM2 14c0 3.725 2.556 6.825 6 7.719v3.281h4v-3h12v3h4v-3c3.313 0 6-2.688 6-6v-6c1.106 0 2-0.894 2-2s-0.894-2-2-2h-6v4c0 2.206-1.794 4-4 4h-1.294c-4.113 0-7.869-2.325-9.706-6s-5.6-6-9.706-6h-1.294c-1.106 0-2 0.894-2 2s0.894 2 2 2v8z"></path>
</svg>
