<!-- Generated by IcoMoon.io -->
<svg version="1.1" xmlns="http://www.w3.org/2000/svg" width="28" height="32" viewBox="0 0 28 32">
<title>sliders-h-square-solid</title>
<path d="M25 2h-22c-1.656 0-3 1.344-3 3v22c0 1.656 1.344 3 3 3h22c1.656 0 3-1.344 3-3v-22c0-1.656-1.344-3-3-3zM24 22.25c0 0.413-0.337 0.75-0.75 0.75h-3.25v1.5c0 0.831-0.669 1.5-1.5 1.5h-1c-0.831 0-1.5-0.669-1.5-1.5v-1.5h-11.25c-0.412 0-0.75-0.337-0.75-0.75v-2.5c0-0.413 0.338-0.75 0.75-0.75h11.25v-1.5c0-0.831 0.669-1.5 1.5-1.5h1c0.831 0 1.5 0.669 1.5 1.5v1.5h3.25c0.413 0 0.75 0.337 0.75 0.75v2.5zM24 12.25c0 0.412-0.337 0.75-0.75 0.75h-11.25v1.5c0 0.831-0.669 1.5-1.5 1.5h-1c-0.831 0-1.5-0.669-1.5-1.5v-1.5h-3.25c-0.412 0-0.75-0.338-0.75-0.75v-2.5c0-0.412 0.338-0.75 0.75-0.75h3.25v-1.5c0-0.831 0.669-1.5 1.5-1.5h1c0.831 0 1.5 0.669 1.5 1.5v1.5h11.25c0.413 0 0.75 0.338 0.75 0.75v2.5z"></path>
</svg>
