<!-- Generated by IcoMoon.io -->
<svg version="1.1" xmlns="http://www.w3.org/2000/svg" width="28" height="32" viewBox="0 0 28 32">
<title>sliders-h-square</title>
<path d="M25 2h-22c-1.656 0-3 1.344-3 3v22c0 1.656 1.344 3 3 3h22c1.656 0 3-1.344 3-3v-22c0-1.656-1.344-3-3-3zM26 27c0 0.55-0.45 1-1 1h-22c-0.55 0-1-0.45-1-1v-22c0-0.55 0.45-1 1-1h22c0.55 0 1 0.45 1 1v22zM20.25 10h-6.25v-2.5c0-0.825-0.675-1.5-1.5-1.5h-3c-0.825 0-1.5 0.675-1.5 1.5v2.5h-2.25c-0.412 0-0.75 0.338-0.75 0.75v0.5c0 0.412 0.338 0.75 0.75 0.75h2.25v2.5c0 0.825 0.675 1.5 1.5 1.5h3c0.825 0 1.5-0.675 1.5-1.5v-2.5h6.25c0.413 0 0.75-0.338 0.75-0.75v-0.5c0-0.412-0.337-0.75-0.75-0.75zM12 14h-2v-6h2v6zM21.25 20h-1.25v-2.5c0-0.825-0.675-1.5-1.5-1.5h-3c-0.825 0-1.5 0.675-1.5 1.5v2.5h-7.25c-0.412 0-0.75 0.337-0.75 0.75v0.5c0 0.413 0.338 0.75 0.75 0.75h7.25v2.5c0 0.825 0.675 1.5 1.5 1.5h3c0.825 0 1.5-0.675 1.5-1.5v-2.5h1.25c0.413 0 0.75-0.337 0.75-0.75v-0.5c0-0.413-0.337-0.75-0.75-0.75zM18 24h-2v-6h2v6z"></path>
</svg>
