<!-- Generated by IcoMoon.io -->
<svg version="1.1" xmlns="http://www.w3.org/2000/svg" width="32" height="32" viewBox="0 0 32 32">
<title>sliders-h</title>
<path d="M31.5 24h-19.5v-2.5c0-0.831-0.669-1.5-1.5-1.5h-3c-0.831 0-1.5 0.669-1.5 1.5v2.5h-5.5c-0.275 0-0.5 0.225-0.5 0.5v1c0 0.275 0.225 0.5 0.5 0.5h5.5v2.5c0 0.831 0.669 1.5 1.5 1.5h3c0.831 0 1.5-0.669 1.5-1.5v-2.5h19.5c0.275 0 0.5-0.225 0.5-0.5v-1c0-0.275-0.225-0.5-0.5-0.5zM10 28h-2v-6h2v6zM31.5 6h-15.5v-2.5c0-0.831-0.669-1.5-1.5-1.5h-3c-0.831 0-1.5 0.669-1.5 1.5v2.5h-9.5c-0.275 0-0.5 0.225-0.5 0.5v1c0 0.275 0.225 0.5 0.5 0.5h9.5v2.5c0 0.831 0.669 1.5 1.5 1.5h3c0.831 0 1.5-0.669 1.5-1.5v-2.5h15.5c0.275 0 0.5-0.225 0.5-0.5v-1c0-0.275-0.225-0.5-0.5-0.5zM14 10h-2v-6h2v6zM31.5 15h-5.5v-2.5c0-0.831-0.669-1.5-1.5-1.5h-3c-0.831 0-1.5 0.669-1.5 1.5v2.5h-19.5c-0.275 0-0.5 0.225-0.5 0.5v1c0 0.275 0.225 0.5 0.5 0.5h19.5v2.5c0 0.831 0.669 1.5 1.5 1.5h3c0.831 0 1.5-0.669 1.5-1.5v-2.5h5.5c0.275 0 0.5-0.225 0.5-0.5v-1c0-0.275-0.225-0.5-0.5-0.5zM24 19h-2v-6h2v6z"></path>
</svg>
