<!-- Generated by IcoMoon.io -->
<svg version="1.1" xmlns="http://www.w3.org/2000/svg" width="28" height="32" viewBox="0 0 28 32">
<title>sliders-v-square</title>
<path d="M25 2h-22c-1.656 0-3 1.344-3 3v22c0 1.656 1.344 3 3 3h22c1.656 0 3-1.344 3-3v-22c0-1.656-1.344-3-3-3zM26 27c0 0.55-0.45 1-1 1h-22c-0.55 0-1-0.45-1-1v-22c0-0.55 0.45-1 1-1h22c0.55 0 1 0.45 1 1v22zM12.5 10h-2.5v-2c0-0.412-0.338-0.75-0.75-0.75h-0.5c-0.412 0-0.75 0.338-0.75 0.75v2h-2.5c-0.825 0-1.5 0.675-1.5 1.5v3c0 0.825 0.675 1.5 1.5 1.5h2.5v7.25c0 0.413 0.338 0.75 0.75 0.75h0.5c0.412 0 0.75-0.337 0.75-0.75v-7.25h2.5c0.825 0 1.5-0.675 1.5-1.5v-3c0-0.825-0.675-1.5-1.5-1.5zM12 14h-6v-2h6v2zM22.5 16h-2.5v-8c0-0.412-0.337-0.75-0.75-0.75h-0.5c-0.413 0-0.75 0.338-0.75 0.75v8h-2.5c-0.825 0-1.5 0.675-1.5 1.5v3c0 0.825 0.675 1.5 1.5 1.5h2.5v1.25c0 0.413 0.337 0.75 0.75 0.75h0.5c0.413 0 0.75-0.337 0.75-0.75v-1.25h2.5c0.825 0 1.5-0.675 1.5-1.5v-3c0-0.825-0.675-1.5-1.5-1.5zM22 20h-6v-2h6v2z"></path>
</svg>
