<!-- Generated by IcoMoon.io -->
<svg version="1.1" xmlns="http://www.w3.org/2000/svg" width="28" height="32" viewBox="0 0 28 32">
<title>sliders-v-square-solid</title>
<path d="M25 2h-22c-1.656 0-3 1.344-3 3v22c0 1.656 1.344 3 3 3h22c1.656 0 3-1.344 3-3v-22c0-1.656-1.344-3-3-3zM12.5 14h-1.5v11.25c0 0.413-0.338 0.75-0.75 0.75h-2.5c-0.412 0-0.75-0.337-0.75-0.75v-11.25h-1.5c-0.831 0-1.5-0.669-1.5-1.5v-1c0-0.831 0.669-1.5 1.5-1.5h1.5v-3.25c0-0.412 0.338-0.75 0.75-0.75h2.5c0.412 0 0.75 0.338 0.75 0.75v3.25h1.5c0.831 0 1.5 0.669 1.5 1.5v1c0 0.831-0.669 1.5-1.5 1.5zM24 20.5c0 0.831-0.669 1.5-1.5 1.5h-1.5v3.25c0 0.413-0.337 0.75-0.75 0.75h-2.5c-0.413 0-0.75-0.337-0.75-0.75v-3.25h-1.5c-0.831 0-1.5-0.669-1.5-1.5v-1c0-0.831 0.669-1.5 1.5-1.5h1.5v-11.25c0-0.412 0.337-0.75 0.75-0.75h2.5c0.413 0 0.75 0.338 0.75 0.75v11.25h1.5c0.831 0 1.5 0.669 1.5 1.5v1z"></path>
</svg>
