<!-- Generated by IcoMoon.io -->
<svg version="1.1" xmlns="http://www.w3.org/2000/svg" width="32" height="32" viewBox="0 0 32 32">
<title>sliders-h-solid</title>
<path d="M31 24h-21v-1c0-0.55-0.45-1-1-1h-2c-0.55 0-1 0.45-1 1v1h-5c-0.55 0-1 0.45-1 1v2c0 0.55 0.45 1 1 1h5v1c0 0.55 0.45 1 1 1h2c0.55 0 1-0.45 1-1v-1h21c0.55 0 1-0.45 1-1v-2c0-0.55-0.45-1-1-1zM31 14h-5v-1c0-0.55-0.45-1-1-1h-2c-0.55 0-1 0.45-1 1v1h-21c-0.55 0-1 0.45-1 1v2c0 0.55 0.45 1 1 1h21v1c0 0.55 0.45 1 1 1h2c0.55 0 1-0.45 1-1v-1h5c0.55 0 1-0.45 1-1v-2c0-0.55-0.45-1-1-1zM31 4h-13v-1c0-0.55-0.45-1-1-1h-2c-0.55 0-1 0.45-1 1v1h-13c-0.55 0-1 0.45-1 1v2c0 0.55 0.45 1 1 1h13v1c0 0.55 0.45 1 1 1h2c0.55 0 1-0.45 1-1v-1h13c0.55 0 1-0.45 1-1v-2c0-0.55-0.45-1-1-1z"></path>
</svg>
