<!-- Generated by IcoMoon.io -->
<svg version="1.1" xmlns="http://www.w3.org/2000/svg" width="28" height="32" viewBox="0 0 28 32">
<title>sliders-v-solid</title>
<path d="M7 6h-1v-5c0-0.55-0.45-1-1-1h-2c-0.55 0-1 0.45-1 1v5h-1c-0.55 0-1 0.45-1 1v2c0 0.55 0.45 1 1 1h1v21c0 0.55 0.45 1 1 1h2c0.55 0 1-0.45 1-1v-21h1c0.55 0 1-0.45 1-1v-2c0-0.55-0.45-1-1-1zM27 14h-1v-13c0-0.55-0.45-1-1-1h-2c-0.55 0-1 0.45-1 1v13h-1c-0.55 0-1 0.45-1 1v2c0 0.55 0.45 1 1 1h1v13c0 0.55 0.45 1 1 1h2c0.55 0 1-0.45 1-1v-13h1c0.55 0 1-0.45 1-1v-2c0-0.55-0.45-1-1-1zM17 22h-1v-21c0-0.55-0.45-1-1-1h-2c-0.55 0-1 0.45-1 1v21h-1c-0.55 0-1 0.45-1 1v2c0 0.55 0.45 1 1 1h1v5c0 0.55 0.45 1 1 1h2c0.55 0 1-0.45 1-1v-5h1c0.55 0 1-0.45 1-1v-2c0-0.55-0.45-1-1-1z"></path>
</svg>
