<!-- Generated by IcoMoon.io -->
<svg version="1.1" xmlns="http://www.w3.org/2000/svg" width="40" height="32" viewBox="0 0 40 32">
<title>smile-plus-solid</title>
<path d="M13 6c-7.181 0-13 5.819-13 13s5.819 13 13 13 13-5.819 13-13-5.819-13-13-13zM17 14.325c0.925 0 1.675 0.75 1.675 1.675s-0.75 1.675-1.675 1.675-1.675-0.75-1.675-1.675 0.75-1.675 1.675-1.675zM9 14.325c0.925 0 1.675 0.75 1.675 1.675s-0.75 1.675-1.675 1.675-1.675-0.75-1.675-1.675 0.75-1.675 1.675-1.675zM19.262 23.131c-1.556 1.825-3.838 2.869-6.262 2.869s-4.706-1.044-6.263-2.869c-0.362-0.419-0.313-1.050 0.112-1.406s1.050-0.313 1.406 0.113c1.175 1.375 2.906 2.163 4.737 2.163 1.838 0 3.563-0.788 4.738-2.169 0.363-0.425 0.994-0.469 1.413-0.113 0.425 0.363 0.475 0.994 0.119 1.413zM39 5h-4v-4c0-0.55-0.45-1-1-1h-2c-0.55 0-1 0.45-1 1v4h-4c-0.55 0-1 0.45-1 1v2c0 0.55 0.45 1 1 1h4v4c0 0.55 0.45 1 1 1h2c0.55 0 1-0.45 1-1v-4h4c0.55 0 1-0.45 1-1v-2c0-0.55-0.45-1-1-1z"></path>
</svg>
