<!-- Generated by IcoMoon.io -->
<svg version="1.1" xmlns="http://www.w3.org/2000/svg" width="31" height="32" viewBox="0 0 31 32">
<title>smile-solid</title>
<path d="M15.5 0.5c-8.563 0-15.5 6.938-15.5 15.5s6.938 15.5 15.5 15.5 15.5-6.938 15.5-15.5-6.938-15.5-15.5-15.5zM20.5 11c1.106 0 2 0.894 2 2s-0.894 2-2 2-2-0.894-2-2 0.894-2 2-2zM10.5 11c1.106 0 2 0.894 2 2s-0.894 2-2 2-2-0.894-2-2 0.894-2 2-2zM22.675 21.637c-1.781 2.137-4.394 3.363-7.175 3.363s-5.394-1.225-7.175-3.363c-0.85-1.019 0.688-2.294 1.537-1.281 1.4 1.681 3.45 2.637 5.638 2.637s4.238-0.962 5.637-2.637c0.837-1.012 2.381 0.262 1.538 1.281z"></path>
</svg>
