<!-- Generated by IcoMoon.io -->
<svg version="1.1" xmlns="http://www.w3.org/2000/svg" width="31" height="32" viewBox="0 0 31 32">
<title>smile-beam-solid</title>
<path d="M15.5 0.5c-8.563 0-15.5 6.938-15.5 15.5s6.938 15.5 15.5 15.5 15.5-6.938 15.5-15.5-6.938-15.5-15.5-15.5zM7 13.963c0.206-2.631 2.012-4.463 3.5-4.463s3.294 1.831 3.5 4.463c0.044 0.537-0.675 0.744-0.931 0.281l-0.594-1.063c-0.481-0.856-1.2-1.35-1.969-1.35s-1.488 0.494-1.969 1.35l-0.594 1.063c-0.269 0.463-0.987 0.25-0.944-0.281zM22.675 21.637c-1.781 2.137-4.394 3.363-7.175 3.363s-5.394-1.225-7.175-3.363c-0.844-1.019 0.688-2.294 1.537-1.281 1.4 1.681 3.45 2.637 5.638 2.637s4.238-0.962 5.637-2.637c0.85-1.012 2.381 0.269 1.538 1.281zM23.063 14.244l-0.594-1.063c-0.481-0.856-1.2-1.35-1.969-1.35s-1.488 0.494-1.969 1.35l-0.594 1.063c-0.256 0.456-0.975 0.25-0.931-0.281 0.206-2.631 2.012-4.463 3.5-4.463s3.294 1.831 3.5 4.463c0.038 0.537-0.688 0.744-0.944 0.281z"></path>
</svg>
