<!-- Generated by IcoMoon.io -->
<svg version="1.1" xmlns="http://www.w3.org/2000/svg" width="31" height="32" viewBox="0 0 31 32">
<title>smile-wink-solid</title>
<path d="M0 16c0 8.563 6.938 15.5 15.5 15.5s15.5-6.938 15.5-15.5-6.938-15.5-15.5-15.5-15.5 6.938-15.5 15.5zM12.5 13c0 1.106-0.894 2-2 2s-2-0.894-2-2 0.894-2 2-2 2 0.894 2 2zM22.406 14.031c-0.925-0.825-2.887-0.825-3.813 0l-0.594 0.531c-0.519 0.463-1.35 0.025-1.238-0.675 0.25-1.575 2.137-2.631 3.744-2.631s3.494 1.056 3.744 2.631c0.106 0.694-0.712 1.144-1.238 0.675l-0.606-0.531zM9.863 20.363c1.4 1.681 3.45 2.637 5.637 2.637s4.238-0.962 5.637-2.637c0.85-1.012 2.381 0.262 1.538 1.281-1.781 2.131-4.394 3.356-7.175 3.356s-5.394-1.225-7.175-3.363c-0.844-1.019 0.7-2.294 1.537-1.275z"></path>
</svg>
