<!-- Generated by IcoMoon.io -->
<svg version="1.1" xmlns="http://www.w3.org/2000/svg" width="31" height="32" viewBox="0 0 31 32">
<title>smile-beam</title>
<path d="M10.5 12.838c0.769 0 1.488 0.494 1.969 1.35l0.594 1.063c0.131 0.231 0.387 0.294 0.581 0.231 0.225-0.069 0.375-0.281 0.356-0.519-0.206-2.631-2.012-4.463-3.5-4.463s-3.294 1.831-3.5 4.463c-0.019 0.231 0.131 0.45 0.356 0.519 0.213 0.069 0.463-0.031 0.581-0.231l0.594-1.063c0.481-0.863 1.2-1.35 1.969-1.35zM15.5 0.5c-8.563 0-15.5 6.938-15.5 15.5s6.938 15.5 15.5 15.5 15.5-6.938 15.5-15.5-6.938-15.5-15.5-15.5zM15.5 29.5c-7.444 0-13.5-6.056-13.5-13.5s6.056-13.5 13.5-13.5 13.5 6.056 13.5 13.5-6.056 13.5-13.5 13.5zM20.5 10.5c-1.488 0-3.294 1.831-3.5 4.463-0.019 0.231 0.131 0.45 0.356 0.519 0.212 0.069 0.462-0.031 0.581-0.231l0.594-1.063c0.481-0.856 1.2-1.35 1.969-1.35s1.488 0.494 1.969 1.35l0.594 1.063c0.131 0.231 0.387 0.294 0.581 0.231 0.225-0.069 0.375-0.281 0.356-0.519-0.206-2.631-2.012-4.463-3.5-4.463zM21.137 20.363c-1.4 1.675-3.456 2.637-5.637 2.637s-4.238-0.962-5.637-2.637c-0.356-0.425-0.988-0.481-1.406-0.125-0.425 0.356-0.481 0.981-0.125 1.406 1.775 2.131 4.394 3.356 7.169 3.356s5.394-1.225 7.175-3.363c0.356-0.425 0.3-1.056-0.125-1.406-0.431-0.35-1.056-0.294-1.413 0.131z"></path>
</svg>
