<!-- Generated by IcoMoon.io -->
<svg version="1.1" xmlns="http://www.w3.org/2000/svg" width="31" height="32" viewBox="0 0 31 32">
<title>smile</title>
<path d="M15.5 0.5c-8.563 0-15.5 6.938-15.5 15.5s6.938 15.5 15.5 15.5 15.5-6.938 15.5-15.5-6.938-15.5-15.5-15.5zM15.5 29.5c-7.444 0-13.5-6.056-13.5-13.5s6.056-13.5 13.5-13.5 13.5 6.056 13.5 13.5-6.056 13.5-13.5 13.5zM21.137 20.363c-1.4 1.675-3.456 2.637-5.637 2.637s-4.238-0.962-5.637-2.637c-0.356-0.425-0.988-0.481-1.406-0.125-0.425 0.356-0.481 0.981-0.125 1.406 1.775 2.131 4.394 3.356 7.169 3.356s5.394-1.225 7.175-3.363c0.356-0.425 0.3-1.056-0.125-1.406s-1.056-0.294-1.413 0.131zM10.5 15c1.106 0 2-0.894 2-2s-0.894-2-2-2-2 0.894-2 2 0.894 2 2 2zM20.5 15c1.106 0 2-0.894 2-2s-0.894-2-2-2-2 0.894-2 2 0.894 2 2 2z"></path>
</svg>
