<!-- Generated by IcoMoon.io -->
<svg version="1.1" xmlns="http://www.w3.org/2000/svg" width="40" height="32" viewBox="0 0 40 32">
<title>smile-plus</title>
<path d="M13 6c-7.181 0-13 5.819-13 13s5.819 13 13 13 13-5.819 13-13-5.819-13-13-13zM13 30c-6.063 0-11-4.938-11-11s4.938-11 11-11 11 4.938 11 11-4.938 11-11 11zM17.738 21.831c-1.175 1.381-2.9 2.169-4.738 2.169s-3.563-0.788-4.738-2.163c-0.356-0.419-0.994-0.469-1.406-0.113-0.425 0.363-0.469 0.988-0.112 1.413 1.55 1.819 3.831 2.863 6.256 2.863s4.706-1.044 6.262-2.869c0.363-0.419 0.306-1.050-0.113-1.413-0.413-0.35-1.050-0.306-1.413 0.113zM9 17.5c0.831 0 1.5-0.669 1.5-1.5s-0.669-1.5-1.5-1.5-1.5 0.669-1.5 1.5 0.669 1.5 1.5 1.5zM17 17.5c0.831 0 1.5-0.669 1.5-1.5s-0.669-1.5-1.5-1.5-1.5 0.669-1.5 1.5 0.669 1.5 1.5 1.5zM39.5 6h-5.5v-5.5c0-0.275-0.225-0.5-0.5-0.5h-1c-0.275 0-0.5 0.225-0.5 0.5v5.5h-5.5c-0.275 0-0.5 0.225-0.5 0.5v1c0 0.275 0.225 0.5 0.5 0.5h5.5v5.5c0 0.275 0.225 0.5 0.5 0.5h1c0.275 0 0.5-0.225 0.5-0.5v-5.5h5.5c0.275 0 0.5-0.225 0.5-0.5v-1c0-0.275-0.225-0.5-0.5-0.5z"></path>
</svg>
