<!-- Generated by IcoMoon.io -->
<svg version="1.1" xmlns="http://www.w3.org/2000/svg" width="31" height="32" viewBox="0 0 31 32">
<title>smile-wink</title>
<path d="M15.5 0.5c-8.563 0-15.5 6.938-15.5 15.5s6.938 15.5 15.5 15.5 15.5-6.938 15.5-15.5-6.938-15.5-15.5-15.5zM25.044 25.544c-1.238 1.238-2.688 2.212-4.294 2.894-1.663 0.706-3.431 1.063-5.256 1.063s-3.594-0.356-5.256-1.063c-1.606-0.681-3.050-1.656-4.294-2.894-1.237-1.238-2.212-2.688-2.894-4.294-0.706-1.663-1.063-3.431-1.063-5.256s0.356-3.594 1.063-5.256c0.681-1.606 1.656-3.050 2.894-4.294 1.237-1.237 2.688-2.212 4.294-2.894 1.662-0.706 3.431-1.063 5.256-1.063s3.594 0.356 5.256 1.063c1.606 0.681 3.050 1.656 4.294 2.894 1.238 1.237 2.212 2.688 2.894 4.294 0.706 1.662 1.063 3.431 1.063 5.256s-0.356 3.594-1.063 5.256c-0.675 1.613-1.65 3.056-2.894 4.294zM10.5 15c1.106 0 2-0.894 2-2s-0.894-2-2-2-2 0.894-2 2 0.894 2 2 2zM20.5 11.25c-1.606 0-3.494 1.056-3.744 2.631-0.106 0.7 0.719 1.137 1.238 0.675l0.594-0.531c0.925-0.825 2.887-0.825 3.813 0l0.594 0.531c0.531 0.463 1.35 0.019 1.238-0.675-0.238-1.575-2.125-2.631-3.731-2.631zM21.137 20.363c-1.4 1.675-3.456 2.637-5.637 2.637s-4.238-0.962-5.637-2.637c-0.844-1.012-2.388 0.262-1.537 1.281 1.781 2.131 4.394 3.356 7.175 3.356s5.394-1.225 7.175-3.363c0.844-1.012-0.694-2.294-1.538-1.275z"></path>
</svg>
