<!-- Generated by IcoMoon.io -->
<svg version="1.1" xmlns="http://www.w3.org/2000/svg" width="40" height="32" viewBox="0 0 40 32">
<title>smog-solid</title>
<path d="M39 23h-34c-0.55 0-1 0.45-1 1v1c0 0.55 0.45 1 1 1h34c0.55 0 1-0.45 1-1v-1c0-0.55-0.45-1-1-1zM9 29h-8c-0.55 0-1 0.45-1 1v1c0 0.55 0.45 1 1 1h8c0.55 0 1-0.45 1-1v-1c0-0.55-0.45-1-1-1zM35 29h-21c-0.55 0-1 0.45-1 1v1c0 0.55 0.45 1 1 1h21c0.55 0 1-0.45 1-1v-1c0-0.55-0.45-1-1-1zM9 18h9.756c1.406 1.231 3.225 2 5.244 2s3.831-0.769 5.244-2h3.756c3.869 0 7-3.131 7-7s-3.131-7-7-7c-1.125 0-2.169 0.287-3.106 0.756-1.519-2.819-4.469-4.756-7.894-4.756-2.563 0-4.863 1.081-6.5 2.8-1.637-1.719-3.938-2.8-6.5-2.8-4.969 0-9 4.031-9 9s4.031 9 9 9z"></path>
</svg>
