<!-- Generated by IcoMoon.io -->
<svg version="1.1" xmlns="http://www.w3.org/2000/svg" width="40" height="32" viewBox="0 0 40 32">
<title>smog</title>
<path d="M11.2 18h6.575c1.519 1.294 3.413 2 5.425 2s3.906-0.706 5.425-2h1.775c4.194 0 7.6-3.338 7.6-7.444s-3.413-7.444-7.6-7.444c-0.575 0-1.15 0.069-1.712 0.2-1.725-2.075-4.319-3.313-7.087-3.313-1.887 0-3.681 0.556-5.2 1.587-1.519-1.031-3.313-1.587-5.2-1.587-5.075 0-9.2 4.037-9.2 9s4.125 9 9.2 9zM11.2 2c2.050 0 3.887 0.844 5.2 2.181 1.313-1.337 3.15-2.181 5.2-2.181 2.744 0 5.1 1.506 6.313 3.7 0.75-0.362 1.587-0.588 2.488-0.588 3.094 0 5.6 2.438 5.6 5.444s-2.506 5.444-5.6 5.444h-2.569c-1.169 1.225-2.806 2-4.631 2s-3.462-0.775-4.631-2h-7.369c-3.975 0-7.2-3.131-7.2-7s3.225-7 7.2-7zM39.5 24h-35c-0.275 0-0.5 0.225-0.5 0.5v1c0 0.275 0.225 0.5 0.5 0.5h35c0.275 0 0.5-0.225 0.5-0.5v-1c0-0.275-0.225-0.5-0.5-0.5zM35.5 30h-21c-0.275 0-0.5 0.225-0.5 0.5v1c0 0.275 0.225 0.5 0.5 0.5h21c0.275 0 0.5-0.225 0.5-0.5v-1c0-0.275-0.225-0.5-0.5-0.5zM9.5 30h-9c-0.275 0-0.5 0.225-0.5 0.5v1c0 0.275 0.225 0.5 0.5 0.5h9c0.275 0 0.5-0.225 0.5-0.5v-1c0-0.275-0.225-0.5-0.5-0.5z"></path>
</svg>
