<!-- Generated by IcoMoon.io -->
<svg version="1.1" xmlns="http://www.w3.org/2000/svg" width="32" height="32" viewBox="0 0 32 32">
<title>smoking-ban-solid</title>
<path d="M6 19c0 0.55 0.45 1 1 1h7.344l-6-6h-1.344c-0.55 0-1 0.45-1 1v4zM16 0c-8.838 0-16 7.162-16 16s7.162 16 16 16 16-7.163 16-16-7.163-16-16-16zM16 28c-6.619 0-12-5.381-12-12 0-2.588 0.831-4.981 2.231-6.944l16.712 16.712c-1.962 1.4-4.356 2.231-6.944 2.231zM18.825 16h5.175v2h-3.175l-2-2zM25.769 22.944l-2.944-2.944h2.175c0.55 0 1-0.45 1-1v-4c0-0.55-0.45-1-1-1h-8.175l-7.769-7.769c1.963-1.4 4.356-2.231 6.944-2.231 6.619 0 12 5.381 12 12 0 2.587-0.831 4.981-2.231 6.944zM20.038 8c-0.975 0-1.788-0.7-1.962-1.619-0.044-0.225-0.25-0.381-0.481-0.381h-1.012c-0.313 0-0.544 0.281-0.5 0.588 0.288 1.931 1.95 3.412 3.956 3.412 0.975 0 1.788 0.7 1.962 1.619 0.044 0.225 0.25 0.381 0.481 0.381h1.012c0.313 0 0.544-0.281 0.5-0.588-0.288-1.931-1.95-3.412-3.956-3.412z"></path>
</svg>
