<!-- Generated by IcoMoon.io -->
<svg version="1.1" xmlns="http://www.w3.org/2000/svg" width="40" height="32" viewBox="0 0 40 32">
<title>smoking-solid</title>
<path d="M39.5 22h-3c-0.275 0-0.5 0.225-0.5 0.5v9c0 0.275 0.225 0.5 0.5 0.5h3c0.275 0 0.5-0.225 0.5-0.5v-9c0-0.275-0.225-0.5-0.5-0.5zM34.581 5.444c-0.356-0.237-0.581-0.625-0.581-1.050v-3.894c0-0.275-0.225-0.5-0.5-0.5h-3c-0.275 0-0.5 0.225-0.5 0.5v3.894c0 1.375 0.637 2.712 1.788 3.462 2.638 1.706 4.212 4.613 4.212 7.75v1.894c0 0.275 0.225 0.5 0.5 0.5h3c0.275 0 0.5-0.225 0.5-0.5v-1.894c0-4.094-2.025-7.888-5.419-10.162zM27 22h-24c-1.656 0-3 1.344-3 3v4c0 1.656 1.344 3 3 3h24c0.55 0 1-0.45 1-1v-8c0-0.55-0.45-1-1-1zM25 29h-11v-4h11v4zM30.481 8.85c-1.494-1.037-2.481-2.644-2.481-4.456v-3.894c0-0.275-0.225-0.5-0.5-0.5h-3c-0.275 0-0.5 0.225-0.5 0.5v4.15c0 2.731 1.538 5.1 3.769 6.669 1.4 0.981 2.231 2.575 2.231 4.287v1.894c0 0.275 0.225 0.5 0.5 0.5h3c0.275 0 0.5-0.225 0.5-0.5v-1.894c0-2.706-1.313-5.213-3.519-6.756zM33.5 22h-3c-0.275 0-0.5 0.225-0.5 0.5v9c0 0.275 0.225 0.5 0.5 0.5h3c0.275 0 0.5-0.225 0.5-0.5v-9c0-0.275-0.225-0.5-0.5-0.5z"></path>
</svg>
