<!-- Generated by IcoMoon.io -->
<svg version="1.1" xmlns="http://www.w3.org/2000/svg" width="40" height="32" viewBox="0 0 40 32">
<title>smoking</title>
<path d="M39.5 22h-1c-0.275 0-0.5 0.225-0.5 0.5v9c0 0.275 0.225 0.5 0.5 0.5h1c0.275 0 0.5-0.225 0.5-0.5v-9c0-0.275-0.225-0.5-0.5-0.5zM35.5 22h-1c-0.275 0-0.5 0.225-0.5 0.5v9c0 0.275 0.225 0.5 0.5 0.5h1c0.275 0 0.5-0.225 0.5-0.5v-9c0-0.275-0.225-0.5-0.5-0.5zM30.5 22h-27.5c-1.656 0-3 1.344-3 3v4c0 1.656 1.344 3 3 3h27.5c0.825 0 1.5-0.675 1.5-1.5v-7c0-0.825-0.675-1.5-1.5-1.5zM12 30h-9c-0.55 0-1-0.45-1-1v-4c0-0.55 0.45-1 1-1h9v6zM30 30h-16v-6h16v6zM34.775 5.844c-0.469-0.313-0.775-0.825-0.775-1.388v-3.956c0-0.275-0.225-0.5-0.5-0.5h-1c-0.275 0-0.5 0.225-0.5 0.5v3.894c0 1.263 0.644 2.425 1.688 3.125 2.7 1.813 4.313 4.831 4.313 8.087v1.894c0 0.275 0.225 0.5 0.5 0.5h1c0.275 0 0.5-0.225 0.5-0.5v-1.894c0-3.931-1.95-7.581-5.225-9.762zM32.481 9.119c-1.6-1.037-2.481-2.9-2.481-4.806v-3.813c0-0.275-0.225-0.5-0.5-0.5h-1c-0.275 0-0.5 0.225-0.5 0.5v4.188c0 2.519 1.387 4.75 3.475 6.162 1.581 1.069 2.525 2.844 2.525 4.756v1.894c0 0.275 0.225 0.5 0.5 0.5h1c0.275 0 0.5-0.225 0.5-0.5v-1.894c0-2.625-1.319-5.056-3.519-6.488z"></path>
</svg>
