<!-- Generated by IcoMoon.io -->
<svg version="1.1" xmlns="http://www.w3.org/2000/svg" width="32" height="32" viewBox="0 0 32 32">
<title>smoking-ban</title>
<path d="M16 0c-8.838 0-16 7.162-16 16s7.162 16 16 16 16-7.163 16-16-7.163-16-16-16zM16 30c-7.719 0-14-6.281-14-14 0-3.5 1.3-6.7 3.431-9.156l19.725 19.725c-2.456 2.131-5.656 3.431-9.156 3.431zM17.413 16h6.587v2h-4.587l-2-2zM26.569 25.156l-5.156-5.156h3.587c0.55 0 1-0.45 1-1v-4c0-0.55-0.45-1-1-1h-9.588l-8.569-8.569c2.456-2.131 5.656-3.431 9.156-3.431 7.719 0 14 6.281 14 14 0 3.5-1.3 6.7-3.431 9.156zM7 20h8.756l-2-2h-5.756v-2h3.756l-2-2h-2.756c-0.55 0-1 0.45-1 1v4c0 0.55 0.45 1 1 1zM22 8c-0.975 0-1.788-0.7-1.962-1.619-0.044-0.225-0.25-0.381-0.481-0.381h-1.012c-0.313 0-0.544 0.281-0.5 0.588 0.288 1.931 1.95 3.412 3.956 3.412 0.975 0 1.788 0.7 1.962 1.619 0.044 0.225 0.25 0.381 0.481 0.381h1.012c0.313 0 0.544-0.281 0.5-0.588-0.281-1.931-1.95-3.412-3.956-3.412z"></path>
</svg>
