<!-- Generated by IcoMoon.io -->
<svg version="1.1" xmlns="http://www.w3.org/2000/svg" width="40" height="32" viewBox="0 0 40 32">
<title>smoke-solid</title>
<path d="M33 18c-1.125 0-2.169 0.288-3.106 0.756-1.519-2.819-4.469-4.756-7.894-4.756-2.563 0-4.863 1.081-6.5 2.8-1.637-1.719-3.938-2.8-6.5-2.8-4.969 0-9 4.031-9 9s4.031 9 9 9h24c3.869 0 7-3.131 7-7s-3.131-7-7-7zM25.15 9.925c-1.394-1.181-3.175-1.925-5.15-1.925-3.231 0-5.994 1.925-7.256 4.675 0.975 0.356 1.912 0.838 2.756 1.463 1.875-1.387 4.125-2.138 6.5-2.138 3.431 0 6.625 1.619 8.688 4.319 0.756-0.212 1.531-0.319 2.313-0.319 2.219 0 4.225 0.837 5.794 2.175 0.75-1.219 1.206-2.637 1.206-4.175 0-4.419-3.581-8-8-8-2.925 0-5.456 1.581-6.85 3.925zM9 12c0.619 0 1.219 0.056 1.819 0.156 1.506-3.606 5.037-6.156 9.181-6.156 1.637 0 3.25 0.419 4.694 1.2 0.581-0.638 1.262-1.15 1.975-1.612-1.431-2.156-3.881-3.587-6.669-3.587-1.975 0-3.756 0.744-5.15 1.925-1.394-2.344-3.925-3.925-6.85-3.925-4.419 0-8 3.581-8 8 0 2.387 1.069 4.506 2.731 5.975 1.781-1.244 3.938-1.975 6.269-1.975z"></path>
</svg>
