<!-- Generated by IcoMoon.io -->
<svg version="1.1" xmlns="http://www.w3.org/2000/svg" width="40" height="32" viewBox="0 0 40 32">
<title>smoke</title>
<path d="M40 15c0-4.963-4.038-9-9-9-1.281 0-2.519 0.294-3.663 0.813-1.575-2.856-4.6-4.813-8.087-4.813-1.281 0-2.538 0.281-3.744 0.825-1.706-1.806-4.031-2.825-6.506-2.825-4.963 0-9 4.037-9 9 0 2.55 1.081 4.831 2.794 6.463-1.725 1.756-2.794 4.156-2.794 6.806 0 5.369 4.362 9.731 9.731 9.731h22.594c4.231 0 7.675-3.444 7.675-7.675 0-1.681-0.563-3.231-1.481-4.494 0.913-1.4 1.481-3.038 1.481-4.831zM38 15c0 1.225-0.337 2.369-0.9 3.363-1.313-1.056-2.962-1.719-4.781-1.719-1.444 0-2.819 0.406-4.044 1.175-1.644-2.037-4.094-3.231-6.744-3.231-1.594 0-3.131 0.444-4.5 1.281-0.512-0.581-1.088-1.094-1.713-1.537 0.806-2.513 3.144-4.344 5.919-4.344 1.063 0 2.094 0.281 3.075 0.844l0.738 0.419 0.538-0.656c1.35-1.656 3.319-2.606 5.406-2.606 3.869 0.013 7.006 3.15 7.006 7.013zM2 9c0-3.862 3.138-7 7-7 2.131 0 4.125 0.981 5.475 2.694l0.525 0.669 0.744-0.412c1.125-0.625 2.306-0.944 3.506-0.944 2.769 0 5.156 1.569 6.369 3.862-0.356 0.275-0.712 0.544-1.031 0.875-1.069-0.488-2.188-0.738-3.337-0.738-3.525 0-6.5 2.237-7.675 5.35-1.2-0.525-2.506-0.813-3.844-0.813-2 0-3.856 0.606-5.4 1.644-1.425-1.281-2.331-3.125-2.331-5.188zM32.325 30h-22.594c-4.263 0-7.731-3.469-7.731-7.731s3.469-7.731 7.731-7.731c2.488 0 4.844 1.225 6.294 3.269l0.606 0.85 0.825-0.637c1.206-0.938 2.619-1.431 4.088-1.431 2.306 0 4.425 1.181 5.669 3.163l0.613 0.975 0.881-0.738c1.050-0.881 2.306-1.35 3.625-1.35 3.131 0 5.675 2.544 5.675 5.675s-2.556 5.688-5.681 5.688z"></path>
</svg>
