<!-- Generated by IcoMoon.io -->
<svg version="1.1" xmlns="http://www.w3.org/2000/svg" width="32" height="32" viewBox="0 0 32 32">
<title>sms-solid</title>
<path d="M16 2c-8.838 0-16 5.819-16 13 0 3.1 1.337 5.938 3.563 8.169-0.781 3.15-3.394 5.956-3.425 5.988-0.138 0.144-0.175 0.356-0.094 0.544s0.256 0.3 0.456 0.3c4.144 0 7.25-1.988 8.787-3.212 2.044 0.769 4.313 1.212 6.713 1.212 8.837 0 16-5.819 16-13s-7.163-13-16-13zM8.012 19h-0.763c-0.275 0-0.5-0.225-0.5-0.5v-1c0-0.275 0.225-0.5 0.5-0.5h0.769c0.375 0 0.65-0.219 0.65-0.413 0-0.081-0.050-0.169-0.131-0.238l-1.369-1.175c-0.531-0.45-0.831-1.094-0.831-1.756 0-1.331 1.188-2.412 2.65-2.412h0.762c0.275 0 0.5 0.225 0.5 0.5v1c0 0.275-0.225 0.5-0.5 0.5h-0.769c-0.375 0-0.65 0.219-0.65 0.412 0 0.081 0.050 0.169 0.131 0.238l1.369 1.175c0.531 0.45 0.831 1.094 0.831 1.756 0.006 1.331-1.188 2.413-2.65 2.413zM20 18.5c0 0.275-0.225 0.5-0.5 0.5h-1c-0.275 0-0.5-0.225-0.5-0.5v-4.262l-1.55 3.488c-0.181 0.369-0.713 0.369-0.894 0l-1.556-3.488v4.262c0 0.275-0.225 0.5-0.5 0.5h-1c-0.275 0-0.5-0.225-0.5-0.5v-6.5c0-0.55 0.45-1 1-1h1c0.381 0 0.725 0.213 0.894 0.55l1.106 2.213 1.106-2.213c0.169-0.338 0.519-0.55 0.894-0.55h1c0.55 0 1 0.45 1 1v6.5zM23.019 19h-0.769c-0.275 0-0.5-0.225-0.5-0.5v-1c0-0.275 0.225-0.5 0.5-0.5h0.769c0.375 0 0.65-0.219 0.65-0.413 0-0.081-0.050-0.169-0.131-0.238l-1.369-1.175c-0.531-0.45-0.831-1.094-0.831-1.756 0-1.331 1.188-2.412 2.65-2.412h0.762c0.275 0 0.5 0.225 0.5 0.5v1c0 0.275-0.225 0.5-0.5 0.5h-0.769c-0.375 0-0.65 0.219-0.65 0.412 0 0.081 0.050 0.169 0.131 0.238l1.369 1.175c0.531 0.45 0.831 1.094 0.831 1.756 0.006 1.331-1.181 2.413-2.644 2.413z"></path>
</svg>
