<!-- Generated by IcoMoon.io -->
<svg version="1.1" xmlns="http://www.w3.org/2000/svg" width="32" height="32" viewBox="0 0 32 32">
<title>sms</title>
<path d="M19 11h-1c-0.381 0-0.725 0.213-0.894 0.55l-1.106 2.213-1.106-2.213c-0.169-0.338-0.512-0.55-0.894-0.55h-1c-0.55 0-1 0.45-1 1v6.5c0 0.275 0.225 0.5 0.5 0.5h1c0.275 0 0.5-0.225 0.5-0.5v-4.262l1.55 3.488c0.181 0.369 0.712 0.369 0.894 0l1.55-3.488v4.262c0 0.275 0.225 0.5 0.5 0.5h1c0.275 0 0.5-0.225 0.5-0.5v-6.5c0.006-0.55-0.444-1-0.994-1zM8.463 13.656c-0.088-0.075-0.131-0.156-0.131-0.238 0-0.194 0.281-0.412 0.65-0.412h0.769c0.275 0 0.5-0.225 0.5-0.5v-1c0-0.275-0.225-0.5-0.5-0.5h-0.762c-1.463 0-2.65 1.081-2.65 2.412 0 0.669 0.306 1.306 0.831 1.756l1.369 1.175c0.088 0.075 0.131 0.156 0.131 0.238 0 0.194-0.281 0.413-0.65 0.413h-0.769c-0.275 0-0.5 0.225-0.5 0.5v1c0 0.275 0.225 0.5 0.5 0.5h0.769c1.463 0 2.65-1.081 2.65-2.413 0-0.669-0.306-1.306-0.831-1.756l-1.375-1.175zM23.462 13.656c-0.087-0.075-0.131-0.156-0.131-0.238 0-0.194 0.281-0.412 0.65-0.412h0.769c0.275 0 0.5-0.225 0.5-0.5v-1c0-0.275-0.225-0.5-0.5-0.5h-0.769c-1.462 0-2.65 1.081-2.65 2.412 0 0.669 0.306 1.306 0.831 1.756l1.369 1.175c0.087 0.075 0.131 0.156 0.131 0.238 0 0.194-0.281 0.413-0.65 0.413h-0.762c-0.275 0-0.5 0.225-0.5 0.5v1c0 0.275 0.225 0.5 0.5 0.5h0.769c1.462 0 2.65-1.081 2.65-2.413 0-0.669-0.306-1.306-0.831-1.756l-1.375-1.175zM16 2c-8.838 0-16 5.819-16 13 0 2.975 1.244 5.7 3.306 7.894-0.931 2.462-2.869 4.55-2.9 4.575-0.412 0.438-0.525 1.075-0.287 1.625s0.775 0.906 1.375 0.906c3.844 0 6.875-1.606 8.694-2.894 1.813 0.569 3.762 0.894 5.813 0.894 8.837 0 16-5.819 16-13s-7.163-13-16-13zM16 26c-1.769 0-3.519-0.269-5.2-0.8l-0.95-0.3-0.813 0.575c-1.438 1.019-3.656 2.206-6.412 2.475 0.75-0.944 1.862-2.525 2.55-4.35l0.444-1.169-0.856-0.913c-1.8-1.913-2.756-4.169-2.756-6.519 0-6.063 6.281-11 14-11s14 4.938 14 11-6.288 11-14.006 11z"></path>
</svg>
