<!-- Generated by IcoMoon.io -->
<svg version="1.1" xmlns="http://www.w3.org/2000/svg" width="28" height="32" viewBox="0 0 28 32">
<title>snooze-solid</title>
<path d="M12 14h-9.5c-0.828 0-1.5 0.672-1.5 1.5v0 3c0 0.828 0.672 1.5 1.5 1.5v0h3.152l-5.147 5.791c-0.313 0.352-0.505 0.818-0.505 1.329 0 0 0 0 0 0v0 2.88c0 1.105 0.895 2 2 2v0h9.5c0.828 0 1.5-0.672 1.5-1.5v0-3c0-0.828-0.672-1.5-1.5-1.5v0h-3.152l5.148-5.791c0.313-0.352 0.505-0.818 0.505-1.329 0-0 0-0 0-0v0-2.88c0-1.105-0.895-2-2-2v0zM12 12h6c0.552 0 1-0.448 1-1v0-2c0-0.552-0.448-1-1-1v0h-2.172l3.586-3.586c0.362-0.362 0.586-0.862 0.586-1.414v-1c0-1.105-0.895-2-2-2v0h-6.5c-0.552 0-1 0.448-1 1v0 2c0 0.552 0.448 1 1 1v0h2.672l-3.586 3.586c-0.362 0.362-0.586 0.862-0.586 1.414v1c0 1.105 0.895 2 2 2v0zM28 17v-1c0-1.105-0.895-2-2-2v0h-6c-0.552 0-1 0.448-1 1v0 2c0 0.552 0.448 1 1 1v0h2.172l-3.586 3.586c-0.362 0.362-0.586 0.862-0.586 1.414v1c0 1.105 0.895 2 2 2v0h6.5c0.552 0 1-0.448 1-1v0-2c0-0.552-0.448-1-1-1v0h-2.672l3.586-3.586c0.362-0.362 0.586-0.862 0.586-1.414v-0z"></path>
</svg>
