<!-- Generated by IcoMoon.io -->
<svg version="1.1" xmlns="http://www.w3.org/2000/svg" width="28" height="32" viewBox="0 0 28 32">
<title>snooze</title>
<path d="M11 17h-9.5c-0.276 0-0.5 0.224-0.5 0.5v0 1c0 0.276 0.224 0.5 0.5 0.5v0h8.199l-9.467 10.359c-0.144 0.172-0.232 0.396-0.233 0.641v1c0 0.552 0.448 1 1 1v0h10.5c0.276 0 0.5-0.224 0.5-0.5v0-1c0-0.276-0.224-0.5-0.5-0.5v0h-9.199l9.467-10.361c0.144-0.172 0.232-0.395 0.232-0.639 0-0 0-0 0-0v0-1c0-0.552-0.448-1-1-1v0zM17 0h-6.5c-0.276 0-0.5 0.224-0.5 0.5v0 1c0 0.276 0.224 0.5 0.5 0.5v0h4.875l-6.16 7.825c-0.134 0.169-0.215 0.385-0.215 0.619v0.556c0 0.552 0.448 1 1 1v0h7.5c0.276 0 0.5-0.224 0.5-0.5v0-1c0-0.276-0.224-0.5-0.5-0.5v0h-5.875l6.16-7.825c0.134-0.169 0.215-0.385 0.215-0.619v-0.556c0-0.552-0.448-1-1-1v0zM28 15.556v-0.556c0-0.552-0.448-1-1-1v0h-6.5c-0.276 0-0.5 0.224-0.5 0.5v0 1c0 0.276 0.224 0.5 0.5 0.5v0h4.875l-6.16 7.825c-0.134 0.169-0.215 0.385-0.215 0.619v0.556c0 0.552 0.448 1 1 1v0h7.5c0.276 0 0.5-0.224 0.5-0.5v0-1c0-0.276-0.224-0.5-0.5-0.5v0h-5.875l6.162-7.825c0.133-0.169 0.213-0.384 0.213-0.619 0-0 0-0.001 0-0.001v0z"></path>
</svg>
