<!-- Generated by IcoMoon.io -->
<svg version="1.1" xmlns="http://www.w3.org/2000/svg" width="32" height="32" viewBox="0 0 32 32">
<title>snowboarding</title>
<path d="M30.8 11.1l-4.213-3.162c1.925-0.287 3.413-1.938 3.413-3.938 0-2.206-1.794-4-4-4s-4 1.794-4 4c0 0.412 0.081 0.806 0.2 1.188-0.113-0.044-0.219-0.1-0.331-0.138l-2.975-0.963-1.206-2.431c-0.512-1.019-1.544-1.656-2.688-1.656-0.456 0-0.919 0.106-1.331 0.313-1.488 0.744-2.088 2.55-1.35 4.025l1.588 3.175c0.162 0.325 0.363 0.619 0.6 0.881l-0.738 0.369c-1.706 0.85-2.769 2.569-2.769 4.475v2.6l-3.95 1.319c-1.569 0.519-2.419 2.219-1.9 3.794 0.269 0.806 0.869 1.406 1.606 1.75l-3.206-1.169c-0.731-0.269-1.313-0.8-1.644-1.506-0.238-0.5-0.831-0.712-1.331-0.481s-0.719 0.831-0.481 1.331c0.556 1.188 1.538 2.087 2.769 2.538l22.8 8.3c0.55 0.2 1.119 0.3 1.681 0.3 0.706 0 1.413-0.156 2.075-0.462 0.5-0.231 0.719-0.825 0.488-1.325s-0.831-0.712-1.331-0.481c-0.706 0.325-1.494 0.363-2.231 0.094l-5.287-1.925c1.15-0.231 2.113-1.087 2.369-2.269l1.369-6.375c0.325-1.525-0.275-3.113-1.531-4.056l-1.944-1.4 1.919-0.887 3.962 2.975c0.525 0.394 1.144 0.6 1.8 0.6 0.938 0 1.837-0.45 2.4-1.2 0.994-1.325 0.725-3.213-0.6-4.2zM26 2c1.106 0 2 0.9 2 2s-0.894 2-2 2-2-0.9-2-2 0.9-2 2-2zM18.206 26.856l-10.919-3.975c0.162 0.038 0.781 0.25 1.662-0.044l5.319-1.769c1.387-0.462 2.387-1.625 2.663-3.019l1.731 1.231-1.087 5.088c-0.325 1.481 0.469 2.288 0.631 2.488zM29.8 14.1c-0.331 0.444-0.956 0.531-1.4 0.2l-4.919-3.688-6.131 2.825 4.725 3.363c0.644 0.481 0.938 1.275 0.775 2.031l-1.363 6.375c-0.125 0.581-0.694 0.875-1.188 0.769-0.544-0.113-0.887-0.644-0.769-1.188l1.363-6.375-5.887-4.188v3.050c0 0.863-0.55 1.625-1.369 1.9-5.75 1.919-5.406 1.825-5.631 1.825-0.419 0-0.806-0.262-0.95-0.681-0.175-0.525 0.112-1.094 0.631-1.262l5.319-1.775v-4.044c0-1.144 0.637-2.169 1.656-2.681l4.438-2.219-2.319-0.775c-0.475-0.156-0.863-0.494-1.081-0.944l-1.588-3.175c-0.244-0.494-0.050-1.094 0.45-1.344 0.588-0.294 1.144 0.050 1.344 0.45l1.588 3.175 3.756 1.212c0.819 0.269 1.581 0.669 2.269 1.188l6.094 4.569c0.431 0.338 0.519 0.963 0.188 1.406z"></path>
</svg>
