<!-- Generated by IcoMoon.io -->
<svg version="1.1" xmlns="http://www.w3.org/2000/svg" width="40" height="32" viewBox="0 0 40 32">
<title>snowmobile</title>
<path d="M39.95 29.169l-0.45-0.894c-0.125-0.25-0.425-0.35-0.669-0.225l-3.606 1.631c-0.244 0.125-0.506 0.2-0.775 0.25l-3.45-4.6 4.556-3.038c0.281-0.188 0.444-0.5 0.444-0.831v-4.9c0-0.35-0.181-0.675-0.487-0.856l-8.631-5.181-2.988-5.975c-0.25-0.494-0.844-0.694-1.344-0.45-0.494 0.25-0.694 0.85-0.45 1.344l2.925 5.85-1.056 1.412c-0.15-1.512-1.419-2.706-2.969-2.706h-2.425l-2.569-2.112c-0.006-0.006-0.019-0.013-0.025-0.019 1.731-0.438 3.025-2 3.025-3.862 0-2.206-1.794-4-4-4s-4 1.794-4 4c0 0.975 0.363 1.856 0.944 2.55-0.631 0.075-2.725 0.438-3.869 2.713l-1.581 3.144c-0.706 1.419-0.713 3.044-0.006 4.456 0.213 0.425 0.487 0.794 0.794 1.131h-0.287c-0.756 0-1.45 0.425-1.787 1.106l-2 4c-0.169 0.337-0.231 0.694-0.206 1.038-1.725 0.444-3.006 1.994-3.006 3.856 0 2.206 1.794 4 4 4h12c2.206 0 4-1.794 4-4 0-0.731-0.212-1.406-0.556-2h9.556l3 4h-5.5c-0.275 0-0.5 0.225-0.5 0.5v1c0 0.275 0.225 0.5 0.5 0.5h7.388c0.775 0 1.538-0.181 2.231-0.525l3.606-1.631c0.244-0.125 0.344-0.425 0.225-0.675zM15 2c1.106 0 2 0.9 2 2s-0.894 2-2 2-2-0.9-2-2 0.894-2 2-2zM8.294 13.306l1.575-3.15c0.438-0.869 1.238-1.463 2.2-1.619 0.294-0.050 1.544-0.219 2.606 0.838l2.913 2.394c0.175 0.144 0.406 0.225 0.637 0.225h2.775c0.55 0 1 0.45 1 1s-0.45 1-1 1h-2.781c-0.694 0-1.369-0.244-1.906-0.681l-2.688-2.206-2.313 4.625 4.781 0.894c1.663 0.313 2.212 2.419 0.913 3.5l-4.369 3.644c-0.444 0.369-1.069 0.281-1.406-0.125-0.356-0.425-0.3-1.056 0.125-1.406l4.369-3.637-5.306-0.994c-0.931-0.175-1.713-0.762-2.138-1.613-0.419-0.863-0.412-1.838 0.012-2.688zM21.544 15.944l-0.944 1.256c-0.244 0.325-0.594 0.525-0.969 0.65-0.006-0.019-0.050-0.906-0.85-1.85h2.219c0.188 0 0.363-0.025 0.544-0.056zM14.306 14.256h-0.012v-0.006l0.012 0.006zM7 20h3.912l-0.831 0.694c-0.988 0.825-1.3 2.156-0.894 3.306h-4.188l2-4zM16 30h-12c-1.106 0-2-0.894-2-2s0.894-2 2-2h12c1.106 0 2 0.894 2 2s-0.894 2-2 2zM15.488 24l2.806-2.337c0.563-0.469 0.956-1.069 1.188-1.719 1.069-0.131 2.069-0.669 2.719-1.544l4.319-5.756 7.481 4.487v3.8l-4.606 3.069h-13.906z"></path>
</svg>
