<!-- Generated by IcoMoon.io -->
<svg version="1.1" xmlns="http://www.w3.org/2000/svg" width="32" height="32" viewBox="0 0 32 32">
<title>snowboarding-solid</title>
<path d="M27 6c1.656 0 3-1.344 3-3s-1.344-3-3-3-3 1.344-3 3 1.344 3 3 3zM28.8 15.6c0.363 0.269 0.781 0.4 1.2 0.4 0.606 0 1.206-0.275 1.6-0.8 0.663-0.881 0.487-2.137-0.4-2.8l-6.962-5.219c-0.863-0.644-1.819-1.15-2.837-1.487l-3.981-1.325-1.631-3.256c-0.494-0.988-1.694-1.387-2.681-0.894s-1.387 1.694-0.894 2.681l1.819 3.631c0.356 0.713 0.975 1.244 1.731 1.5l1.025 0.344-2.575 1.287c-1.363 0.681-2.213 2.050-2.213 3.575v3.319l-4.631 1.544c-1.050 0.35-1.612 1.481-1.263 2.531 0.106 0.325 0.306 0.587 0.544 0.806l-2.419-0.881c-0.606-0.219-1.087-0.663-1.362-1.25-0.35-0.75-1.244-1.075-1.994-0.725s-1.075 1.244-0.725 1.994c0.613 1.313 1.694 2.306 3.056 2.8l22.8 8.294c0.606 0.219 1.231 0.331 1.856 0.331 0.781 0 1.556-0.169 2.281-0.512 0.75-0.35 1.075-1.244 0.725-1.994s-1.244-1.075-1.994-0.725c-0.581 0.275-1.238 0.3-1.844 0.081l-5.675-2.069c0.544-0.256 0.975-0.738 1.113-1.369l1.369-6.375c0.244-1.137-0.2-2.325-1.131-3.025l-3.25-2.438 4.125-1.906 5.219 3.931zM19.775 18.831l-1.231 5.75c-0.094 0.444-0.006 0.869 0.175 1.25l-10.588-3.85c0.169-0.012 0.338-0.025 0.5-0.081l5.313-1.775c1.225-0.406 2.050-1.55 2.050-2.844v-1.281l3.781 2.831z"></path>
</svg>
