<!-- Generated by IcoMoon.io -->
<svg version="1.1" xmlns="http://www.w3.org/2000/svg" width="40" height="32" viewBox="0 0 40 32">
<title>snow-blowing-solid</title>
<path d="M33.763 20h-11.156c-0.394 0-0.781 0.119-1.113 0.337l-2.75 1.831c-0.825 0.55-0.438 1.831 0.556 1.831h14.581c0.994 0 1.925 0.681 2.087 1.663 0.206 1.25-0.756 2.337-1.975 2.337-0.881 0-1.631-0.575-1.9-1.369-0.131-0.394-0.538-0.631-0.95-0.631h-2.050c-0.625 0-1.106 0.581-0.981 1.194 0.556 2.738 2.981 4.806 5.881 4.806 3.7 0 6.625-3.363 5.881-7.194-0.544-2.85-3.212-4.806-6.112-4.806zM25 18h9c3.731 0 6.675-3.425 5.862-7.294-0.475-2.262-2.306-4.094-4.569-4.569-3.462-0.725-6.569 1.556-7.181 4.719-0.119 0.6 0.381 1.144 0.988 1.144h2.050c0.419 0 0.819-0.238 0.95-0.631 0.263-0.794 1.019-1.369 1.9-1.369 1.212 0 2.181 1.088 1.975 2.338-0.163 0.981-1.087 1.662-2.087 1.662h-8.887c-0.55 0-1 0.45-1 1v2c0 0.55 0.45 1 1 1zM18.781 19.325l-0.344-1.275 1.663 0.956c0.363 0.212 0.825 0.087 1.038-0.275l0.756-1.313c0.212-0.363 0.087-0.825-0.275-1.038l-1.663-0.956 1.275-0.344c0.406-0.106 0.644-0.525 0.538-0.931l-0.194-0.731c-0.106-0.406-0.525-0.644-0.931-0.537l-3.475 0.931-3.137-1.813 3.137-1.813 3.475 0.931c0.406 0.106 0.819-0.131 0.931-0.537l0.194-0.731c0.106-0.406-0.131-0.819-0.538-0.931l-1.275-0.344 1.663-0.956c0.363-0.213 0.488-0.675 0.275-1.038l-0.756-1.313c-0.212-0.362-0.675-0.487-1.038-0.275l-1.663 0.956 0.344-1.275c0.106-0.406-0.131-0.819-0.538-0.931l-0.731-0.194c-0.406-0.106-0.819 0.131-0.931 0.537l-0.931 3.475-3.15 1.819v-3.556l2.512-2.513c0.294-0.294 0.294-0.769 0-1.063l-0.531-0.531c-0.294-0.294-0.769-0.294-1.063 0l-0.919 0.925v-1.894c0-0.412-0.338-0.75-0.75-0.75h-1.5c-0.412 0-0.75 0.338-0.75 0.75v1.894l-0.925-0.925c-0.294-0.294-0.769-0.294-1.063 0l-0.531 0.531c-0.294 0.294-0.294 0.769 0 1.063l2.519 2.513v3.556l-3.15-1.819-0.938-3.481c-0.106-0.406-0.525-0.644-0.931-0.538l-0.731 0.2c-0.406 0.106-0.644 0.525-0.538 0.931l0.344 1.275-1.656-0.956c-0.363-0.213-0.825-0.088-1.038 0.275l-0.756 1.313c-0.212 0.362-0.087 0.825 0.275 1.038l1.663 0.956-1.275 0.344c-0.406 0.106-0.644 0.525-0.537 0.931l0.194 0.731c0.106 0.406 0.525 0.644 0.931 0.537l3.475-0.931 3.138 1.813-3.138 1.813-3.481-0.938c-0.406-0.106-0.819 0.131-0.931 0.537l-0.194 0.731c-0.106 0.406 0.131 0.819 0.537 0.931l1.275 0.344-1.656 0.963c-0.362 0.212-0.487 0.675-0.275 1.038l0.756 1.313c0.212 0.363 0.675 0.488 1.038 0.275l1.663-0.956-0.344 1.275c-0.106 0.406 0.131 0.819 0.538 0.931l0.731 0.194c0.406 0.106 0.819-0.131 0.931-0.538l0.931-3.475 3.15-1.819v3.556l-2.513 2.512c-0.294 0.294-0.294 0.769 0 1.063l0.531 0.531c0.294 0.294 0.769 0.294 1.063 0l0.925-0.925v1.894c0 0.413 0.338 0.75 0.75 0.75h1.5c0.412 0 0.75-0.337 0.75-0.75v-1.894l0.925 0.925c0.294 0.294 0.769 0.294 1.063 0l0.531-0.531c0.294-0.294 0.294-0.769 0-1.063l-2.525-2.512v-3.556l3.15 1.819 0.931 3.475c0.106 0.406 0.525 0.644 0.931 0.538l0.731-0.194c0.406-0.106 0.65-0.525 0.538-0.931z"></path>
</svg>
