<!-- Generated by IcoMoon.io -->
<svg version="1.1" xmlns="http://www.w3.org/2000/svg" width="40" height="32" viewBox="0 0 40 32">
<title>snowflakes-solid</title>
<path d="M38.006 16l1.744-1c0.237-0.137 0.319-0.444 0.181-0.681l-0.5-0.869c-0.138-0.238-0.444-0.319-0.681-0.181l-1.75 1.006v-1.775c0-0.275-0.225-0.5-0.5-0.5h-1c-0.275 0-0.5 0.225-0.5 0.5v1.775l-1.75-1.006c-0.237-0.137-0.544-0.056-0.681 0.181l-0.5 0.869c-0.137 0.238-0.056 0.544 0.181 0.681l1.744 1-1.744 1c-0.237 0.137-0.319 0.444-0.181 0.681l0.5 0.869c0.138 0.238 0.444 0.319 0.681 0.181l1.75-1.006v1.775c0 0.275 0.225 0.5 0.5 0.5h1c0.275 0 0.5-0.225 0.5-0.5v-1.775l1.75 1.006c0.237 0.137 0.544 0.056 0.681-0.181l0.5-0.869c0.138-0.238 0.056-0.544-0.181-0.681l-1.744-1zM27.869 9.106l-0.969-1.675c-0.269-0.463-0.856-0.619-1.319-0.356l-2.113 1.219 0.438-1.625c0.137-0.513-0.169-1.044-0.681-1.181l-0.931-0.25c-0.512-0.138-1.044 0.169-1.181 0.681l-1.188 4.425-3.925 2.269v-4.844l3.356-3.356c0.387-0.388 0.387-1.025 0-1.413l-0.706-0.706c-0.387-0.387-1.025-0.387-1.413 0l-1.238 1.231v-2.525c0-0.55-0.45-1-1-1h-2c-0.55 0-1 0.45-1 1v2.525l-1.231-1.231c-0.387-0.387-1.025-0.387-1.412 0l-0.713 0.706c-0.387 0.388-0.387 1.025 0 1.412l3.356 3.356v4.844l-3.925-2.262-1.188-4.425c-0.138-0.513-0.669-0.819-1.181-0.681l-0.931 0.25c-0.513 0.138-0.819 0.669-0.681 1.181l0.438 1.625-2.112-1.219c-0.462-0.269-1.050-0.106-1.319 0.356l-0.969 1.669c-0.269 0.463-0.106 1.050 0.356 1.319l2.112 1.219-1.625 0.438c-0.519 0.137-0.825 0.669-0.688 1.188l0.25 0.931c0.137 0.512 0.669 0.819 1.181 0.681l4.425-1.188 3.987 2.306-3.987 2.306-4.425-1.188c-0.512-0.137-1.044 0.169-1.181 0.681l-0.25 0.931c-0.138 0.512 0.169 1.044 0.681 1.181l1.625 0.438-2.112 1.225c-0.463 0.269-0.619 0.856-0.356 1.319l0.969 1.675c0.269 0.462 0.856 0.619 1.319 0.356l2.112-1.219-0.438 1.625c-0.138 0.512 0.169 1.044 0.681 1.181l0.931 0.25c0.513 0.137 1.044-0.169 1.181-0.681l1.188-4.425 3.925-2.262v4.844l-3.356 3.356c-0.387 0.387-0.387 1.025 0 1.413l0.706 0.706c0.387 0.387 1.025 0.387 1.412 0l1.231-1.231v2.519c0 0.55 0.45 1 1 1h2c0.55 0 1-0.45 1-1v-2.525l1.231 1.231c0.387 0.387 1.025 0.387 1.413 0l0.706-0.706c0.387-0.387 0.387-1.025 0-1.413l-3.338-3.356v-4.844l3.925 2.262 1.188 4.425c0.137 0.512 0.669 0.819 1.181 0.681l0.931-0.25c0.512-0.137 0.819-0.669 0.681-1.181l-0.438-1.625 2.113 1.219c0.462 0.269 1.050 0.106 1.319-0.356l0.969-1.675c0.269-0.462 0.106-1.050-0.356-1.319l-2.113-1.219 1.625-0.438c0.512-0.137 0.819-0.669 0.681-1.181l-0.25-0.931c-0.137-0.512-0.669-0.819-1.181-0.681l-4.425 1.188-3.988-2.306 3.988-2.306 4.425 1.188c0.512 0.137 1.044-0.169 1.181-0.681l0.25-0.931c0.137-0.512-0.169-1.044-0.681-1.181l-1.625-0.438 2.113-1.219c0.469-0.269 0.625-0.863 0.356-1.325zM32.994 7.5c0 0.275 0.225 0.5 0.5 0.5h1c0.275 0 0.5-0.225 0.5-0.5v-1.775l1.75 1.006c0.237 0.138 0.544 0.056 0.681-0.181l0.5-0.869c0.138-0.237 0.056-0.544-0.181-0.681l-1.744-1 1.744-1c0.237-0.138 0.319-0.444 0.181-0.681l-0.5-0.869c-0.138-0.238-0.444-0.319-0.681-0.181l-1.75 1.006v-1.775c0-0.275-0.225-0.5-0.5-0.5h-1c-0.275 0-0.5 0.225-0.5 0.5v1.775l-1.75-1.006c-0.238-0.137-0.544-0.056-0.681 0.181l-0.5 0.869c-0.137 0.237-0.056 0.544 0.181 0.681l1.744 1-1.744 1c-0.238 0.138-0.319 0.444-0.181 0.681l0.5 0.869c0.137 0.237 0.444 0.319 0.681 0.181l1.75-1.006v1.775z"></path>
</svg>
