<!-- Generated by IcoMoon.io -->
<svg version="1.1" xmlns="http://www.w3.org/2000/svg" width="32" height="32" viewBox="0 0 32 32">
<title>snowman</title>
<path d="M16 21c-0.55 0-1 0.45-1 1s0.45 1 1 1 1-0.45 1-1-0.45-1-1-1zM14 4.5c-0.55 0-1 0.45-1 1s0.45 1 1 1 1-0.45 1-1-0.45-1-1-1zM31.956 9.219l-0.394-0.919c-0.106-0.256-0.4-0.369-0.656-0.262l-2.906 1.25v-2.787c0-0.275-0.225-0.5-0.5-0.5h-1c-0.275 0-0.5 0.225-0.5 0.5v3.644l-3.337 1.431c-0.288-0.537-0.613-1.056-1.025-1.512 0.65-1.044 0.988-2.213 0.988-3.438 0-3.656-2.975-6.625-6.625-6.625s-6.625 2.969-6.625 6.625c0 1.219 0.338 2.394 0.988 3.438-0.412 0.463-0.738 0.975-1.025 1.512l-3.338-1.431v-3.644c0-0.275-0.225-0.5-0.5-0.5h-1c-0.275 0-0.5 0.225-0.5 0.5v2.788l-2.906-1.244c-0.256-0.106-0.55 0.006-0.656 0.262l-0.394 0.919c-0.106 0.256 0.006 0.55 0.263 0.656l8.331 3.569c-0.119 0.525-0.2 1.063-0.2 1.613 0 0.45 0.050 0.906 0.15 1.4-1.612 1.813-2.494 4.125-2.494 6.569 0 3.387 1.725 6.5 4.612 8.337 0.656 0.413 1.475 0.631 2.369 0.631h5.812c0.988 0 1.938-0.3 2.75-0.863 3.238-2.244 4.806-6.050 4.1-9.944-0.319-1.756-1.119-3.381-2.325-4.738 0.1-0.494 0.15-0.944 0.15-1.394 0-0.55-0.081-1.088-0.2-1.613l8.331-3.569c0.256-0.113 0.375-0.406 0.262-0.662zM23.769 21.55c0.563 3.113-0.688 6.156-3.275 7.944-0.475 0.331-1.038 0.506-1.613 0.506h-5.813c-0.356 0-0.875-0.056-1.3-0.325-2.306-1.462-3.681-3.95-3.681-6.644 0-0.831-0.031-3.225 2.706-5.981-0.363-1.344-0.363-1.594-0.363-1.988 0-1.594 0.669-3.063 1.887-4.144l0.719-0.637-0.606-0.744c-0.7-0.85-1.063-1.856-1.063-2.912 0-2.55 2.075-4.625 4.625-4.625s4.625 2.075 4.625 4.625c0 1.056-0.369 2.063-1.063 2.912l-0.606 0.744 0.719 0.637c1.219 1.081 1.894 2.55 1.894 4.144 0 0.412-0.019 0.694-0.363 1.981 2.319 2.319 2.494 4.075 2.569 4.506zM16 17c-0.55 0-1 0.45-1 1s0.45 1 1 1 1-0.45 1-1-0.45-1-1-1zM18 4.5c-0.55 0-1 0.45-1 1s0.45 1 1 1 1-0.45 1-1-0.45-1-1-1zM16 13c-0.55 0-1 0.45-1 1s0.45 1 1 1 1-0.45 1-1-0.45-1-1-1zM16 7c-0.55 0-1 0.45-1 1s1 2 1 2 1-1.45 1-2-0.45-1-1-1z"></path>
</svg>
