<!-- Generated by IcoMoon.io -->
<svg version="1.1" xmlns="http://www.w3.org/2000/svg" width="40" height="32" viewBox="0 0 40 32">
<title>snowplow</title>
<path d="M22.5 23.5c-0.831 0-1.5 0.669-1.5 1.5s0.669 1.5 1.5 1.5 1.5-0.669 1.5-1.5-0.669-1.5-1.5-1.5zM35.775 26.462c-0.563-0.563-0.881-1.325-0.881-2.125v-8.688c0-0.794 0.319-1.563 0.881-2.125l4.075-3.975c0.194-0.194 0.194-0.512 0-0.706l-0.706-0.706c-0.194-0.194-0.513-0.194-0.706 0l-4.081 3.975c-0.938 0.938-1.462 2.213-1.462 3.537v3.35h-6.006v-4.181c0-0.544-0.113-1.075-0.325-1.575l-4.894-11.425c-0.475-1.106-1.556-1.819-2.762-1.819h-9.019c-1.656 0-3 1.344-3 3v5h-1c-1.656 0-3 1.344-3 3v8.356c-1.744 1.275-2.888 3.319-2.888 5.644 0 3.869 3.131 7 7 7h16c3.869 0 7-3.131 7-7 0-1.488-0.475-2.863-1.269-4h4.163v3.344c0 1.325 0.525 2.6 1.462 3.538l4.075 3.975c0.194 0.194 0.513 0.194 0.706 0l0.706-0.706c0.194-0.194 0.194-0.512 0-0.706l-4.069-3.981zM8.887 8v-5c0-0.55 0.45-1 1-1h9.019c0.406 0 0.769 0.237 0.925 0.606l4.881 11.394h-11.325l-4.5-5.981v-0.019zM4.888 11c0-0.55 0.45-1 1-1h1.987l4.213 5.6c0.188 0.25 0.488 0.4 0.8 0.4h12v2.288c-0.606-0.169-1.231-0.288-1.887-0.288h-16c-0.744 0-1.444 0.144-2.112 0.363v-7.363zM23 30h-16c-2.756 0-5-2.244-5-5s2.244-5 5-5h16c2.756 0 5 2.244 5 5s-2.244 5-5 5zM7.5 23.5c-0.831 0-1.5 0.669-1.5 1.5s0.669 1.5 1.5 1.5 1.5-0.669 1.5-1.5-0.669-1.5-1.5-1.5zM12.5 23.5c-0.831 0-1.5 0.669-1.5 1.5s0.669 1.5 1.5 1.5 1.5-0.669 1.5-1.5-0.669-1.5-1.5-1.5zM17.5 23.5c-0.831 0-1.5 0.669-1.5 1.5s0.669 1.5 1.5 1.5 1.5-0.669 1.5-1.5-0.669-1.5-1.5-1.5z"></path>
</svg>
