<!-- Generated by IcoMoon.io -->
<svg version="1.1" xmlns="http://www.w3.org/2000/svg" width="40" height="32" viewBox="0 0 40 32">
<title>snowmobile-solid</title>
<path d="M39.8 27.9l-0.6-0.8c-0.331-0.444-0.956-0.531-1.4-0.2l-2.131 1.6c-0.431 0.325-0.956 0.5-1.5 0.5h-0.044l-2.875-3.831 4.306-2.869c0.281-0.188 0.444-0.5 0.444-0.831v-4.844c0-0.381-0.212-0.725-0.55-0.894l-9.956-4.981-2.594-5.194c-0.25-0.494-0.844-0.694-1.344-0.45-0.494 0.25-0.694 0.85-0.45 1.344l2.225 4.45-0.831 1.1h-3.669l-3.456-3.45c-0.906-0.906-2.2-1.325-3.469-1.119-1.262 0.206-2.363 1.012-2.938 2.156l-1.862 3.731c-0.475 0.956-0.556 2.037-0.219 3.056 0.213 0.637 0.588 1.181 1.056 1.631h-1.944c-0.756 0-1.45 0.425-1.787 1.106l-2 4c-0.669 1.325 0.3 2.887 1.788 2.887h24.125l2.25 3h-3.375c-0.55 0-1 0.45-1 1v1c0 0.55 0.45 1 1 1h7.169c1.188 0 2.35-0.387 3.3-1.1l2.131-1.6c0.444-0.331 0.531-0.956 0.2-1.4zM18 18h-1.525l-4.188-2.094 1.6-3.194 2.119 2.119c0.756 0.756 1.762 1.175 2.825 1.175h0.669l-1.5 1.994zM15 6c1.656 0 3-1.344 3-3s-1.344-3-3-3-3 1.344-3 3 1.344 3 3 3zM18 28h-16c-1.106 0-2 0.894-2 2s0.894 2 2 2h16c1.106 0 2-0.894 2-2s-0.894-2-2-2z"></path>
</svg>
