<!-- Generated by IcoMoon.io -->
<svg version="1.1" xmlns="http://www.w3.org/2000/svg" width="32" height="32" viewBox="0 0 32 32">
<title>snowman-solid</title>
<path d="M31.931 9.519l-0.369-0.906c-0.206-0.5-0.788-0.744-1.3-0.544l-1.762 0.719v-1.813c0-0.537-0.45-0.975-1-0.975h-1c-0.55 0-1 0.438-1 0.975v2.931c0 0.031 0.019 0.063 0.019 0.094l-3.525 1.438c-0.369-0.625-0.831-1.181-1.375-1.662 0.85-1.037 1.375-2.338 1.375-3.781 0-3.313-2.688-6-6-6s-6 2.688-6 6c0 1.444 0.531 2.744 1.375 3.781-0.544 0.481-1 1.037-1.375 1.662l-3.525-1.438c0.006-0.031 0.019-0.063 0.019-0.094v-2.931c0.013-0.537-0.438-0.975-0.987-0.975h-1c-0.55 0-1 0.438-1 0.975v1.813l-1.756-0.719c-0.512-0.2-1.094 0.044-1.3 0.544l-0.369 0.906c-0.206 0.5 0.044 1.069 0.556 1.269l8.45 3.45c-0.025 0.25-0.075 0.5-0.075 0.762 0 0.631 0.106 1.225 0.262 1.806-1.713 1.719-2.769 4.081-2.769 6.694 0 3.375 1.775 6.306 4.425 7.988 0.581 0.369 1.269 0.512 1.956 0.512h6.2c0.831 0 1.644-0.256 2.325-0.731 2.906-2.019 4.65-5.588 3.931-9.537-0.344-1.887-1.281-3.6-2.6-4.938 0.156-0.575 0.262-1.169 0.262-1.794 0-0.262-0.050-0.506-0.075-0.762l8.45-3.45c0.506-0.194 0.756-0.762 0.556-1.269zM14 6c-0.55 0-1-0.45-1-1s0.45-1 1-1 1 0.45 1 1-0.45 1-1 1zM16 23c-0.55 0-1-0.45-1-1s0.45-1 1-1 1 0.45 1 1-0.45 1-1 1zM16 19c-0.55 0-1-0.45-1-1s0.45-1 1-1 1 0.45 1 1-0.45 1-1 1zM16 15c-0.55 0-1-0.45-1-1s0.45-1 1-1 1 0.45 1 1-0.45 1-1 1zM16 9.5s-1-1.45-1-2 0.45-1 1-1 1 0.45 1 1-1 2-1 2zM18 6c-0.55 0-1-0.45-1-1s0.45-1 1-1 1 0.45 1 1-0.45 1-1 1z"></path>
</svg>
