<!-- Generated by IcoMoon.io -->
<svg version="1.1" xmlns="http://www.w3.org/2000/svg" width="40" height="32" viewBox="0 0 40 32">
<title>snowplow-solid</title>
<path d="M7.5 23.5c-0.831 0-1.5 0.669-1.5 1.5s0.669 1.5 1.5 1.5 1.5-0.669 1.5-1.5-0.669-1.5-1.5-1.5zM12.5 23.5c-0.831 0-1.5 0.669-1.5 1.5s0.669 1.5 1.5 1.5 1.5-0.669 1.5-1.5-0.669-1.5-1.5-1.5zM17.5 23.5c-0.831 0-1.5 0.669-1.5 1.5s0.669 1.5 1.5 1.5 1.5-0.669 1.5-1.5-0.669-1.5-1.5-1.5zM22.5 23.5c-0.831 0-1.5 0.669-1.5 1.5s0.669 1.5 1.5 1.5 1.5-0.669 1.5-1.5-0.669-1.5-1.5-1.5zM37.413 26.587c-0.906-0.906-1.413-2.131-1.413-3.413v-6.35c0-1.281 0.506-2.506 1.413-3.412l2.294-2.294c0.388-0.387 0.388-1.025 0-1.412l-1.413-1.412c-0.388-0.388-1.025-0.388-1.413 0l-2.294 2.294c-1.656 1.656-2.587 3.9-2.587 6.244v1.169h-4v-3.181c0-0.544-0.113-1.075-0.325-1.575l-4.894-11.425c-0.475-1.106-1.556-1.819-2.762-1.819h-9.019c-1.656 0-3 1.344-3 3v7h-1c-1.656 0-3 1.344-3 3v5.7c-2.356 1.125-4 3.512-4 6.3 0 3.869 3.131 7 7 7h16c3.869 0 7-3.131 7-7 0-1.081-0.262-2.087-0.7-3h2.7v1.169c0 2.344 0.931 4.587 2.587 6.244l2.294 2.294c0.388 0.387 1.025 0.387 1.413 0l1.413-1.413c0.388-0.387 0.388-1.025 0-1.413l-2.294-2.294zM12 4h7.363l4.287 10h-7.65l-4-4v-6zM23 28h-16c-1.656 0-3-1.344-3-3s1.344-3 3-3h16c1.656 0 3 1.344 3 3s-1.344 3-3 3z"></path>
</svg>
