<!-- Generated by IcoMoon.io -->
<svg version="1.1" xmlns="http://www.w3.org/2000/svg" width="28" height="32" viewBox="0 0 28 32">
<title>snowflake</title>
<path d="M24.256 20.844l3.294-0.894c0.262-0.069 0.419-0.344 0.35-0.613l-0.256-0.969c-0.069-0.269-0.344-0.425-0.606-0.356l-5.2 1.413-5.863-3.425 5.863-3.425 5.2 1.412c0.262 0.069 0.538-0.088 0.606-0.356l0.256-0.969c0.069-0.269-0.087-0.544-0.35-0.613l-3.294-0.894 3.494-2.044c0.238-0.137 0.319-0.444 0.181-0.681l-0.494-0.869c-0.137-0.237-0.438-0.319-0.675-0.181l-3.494 2.044 0.881-3.331c0.069-0.269-0.087-0.544-0.35-0.612l-0.956-0.256c-0.262-0.069-0.538 0.088-0.606 0.356l-1.394 5.263-5.863 3.425v-6.856l3.813-3.85c0.194-0.194 0.194-0.512 0-0.706l-0.7-0.706c-0.194-0.194-0.506-0.194-0.7 0l-2.412 2.438v-4.088c0-0.275-0.219-0.5-0.494-0.5h-0.988c-0.275 0-0.494 0.225-0.494 0.5v4.088l-2.412-2.438c-0.194-0.194-0.506-0.194-0.7 0l-0.7 0.706c-0.194 0.194-0.194 0.513 0 0.706l3.806 3.856v6.856l-5.862-3.425-1.381-5.275c-0.069-0.269-0.344-0.425-0.606-0.356l-0.956 0.256c-0.263 0.069-0.419 0.344-0.35 0.612l0.881 3.331-3.494-2.044c-0.238-0.138-0.537-0.056-0.675 0.181l-0.494 0.869c-0.138 0.238-0.056 0.544 0.181 0.681l3.494 2.044-3.288 0.9c-0.263 0.069-0.419 0.344-0.35 0.613l0.256 0.969c0.069 0.269 0.344 0.425 0.606 0.356l5.2-1.412 5.863 3.425-5.862 3.425-5.2-1.413c-0.262-0.069-0.537 0.087-0.606 0.356l-0.256 0.969c-0.069 0.269 0.087 0.544 0.35 0.613l3.294 0.894-3.494 2.038c-0.237 0.137-0.319 0.444-0.181 0.681l0.494 0.869c0.137 0.238 0.438 0.319 0.675 0.181l3.494-2.044-0.881 3.331c-0.069 0.269 0.087 0.544 0.35 0.613l0.956 0.256c0.263 0.069 0.537-0.087 0.606-0.356l1.394-5.262 5.862-3.425v6.856l-3.813 3.856c-0.194 0.194-0.194 0.512 0 0.706l0.7 0.706c0.194 0.194 0.506 0.194 0.7 0l2.412-2.438v4.088c0 0.275 0.219 0.5 0.494 0.5h0.988c0.275 0 0.494-0.225 0.494-0.5v-4.087l2.412 2.438c0.194 0.194 0.506 0.194 0.7 0l0.7-0.706c0.194-0.194 0.194-0.512 0-0.706l-3.806-3.856v-6.85l5.862 3.425 1.394 5.262c0.069 0.269 0.344 0.425 0.606 0.356l0.956-0.256c0.262-0.069 0.419-0.344 0.35-0.613l-0.881-3.331 3.494 2.044c0.238 0.137 0.538 0.056 0.675-0.181l0.494-0.869c0.137-0.238 0.056-0.544-0.181-0.681l-3.512-2.044z"></path>
</svg>
