<!-- Generated by IcoMoon.io -->
<svg version="1.1" xmlns="http://www.w3.org/2000/svg" width="40" height="32" viewBox="0 0 40 32">
<title>snow-blowing</title>
<path d="M21.938 7.237l-0.475-0.825c-0.131-0.225-0.419-0.306-0.65-0.175l-2.538 1.469 0.5-1.869c0.069-0.256-0.081-0.513-0.337-0.581l-0.919-0.244c-0.256-0.069-0.512 0.081-0.581 0.338l-0.994 3.706-3.944 2.269v-4.912l2.856-2.85c0.194-0.194 0.194-0.512 0-0.706l-0.706-0.706c-0.194-0.194-0.512-0.194-0.706 0l-1.438 1.438v-3.087c0-0.275-0.225-0.5-0.5-0.5h-1c-0.275 0-0.5 0.225-0.5 0.5v3.087l-1.438-1.438c-0.194-0.194-0.512-0.194-0.706 0l-0.706 0.706c-0.194 0.194-0.194 0.513 0 0.706l2.856 2.856v4.912l-3.944-2.275-1.006-3.713c-0.069-0.256-0.331-0.406-0.581-0.338l-0.919 0.25c-0.256 0.069-0.406 0.331-0.337 0.581l0.5 1.869-2.538-1.469c-0.225-0.131-0.519-0.056-0.65 0.175l-0.475 0.825c-0.131 0.225-0.056 0.519 0.175 0.65l2.538 1.469-1.869 0.5c-0.256 0.069-0.406 0.331-0.338 0.581l0.244 0.919c0.069 0.256 0.331 0.406 0.581 0.338l3.706-0.994 3.994 2.306-3.994 2.306-3.7-1c-0.256-0.069-0.512 0.081-0.581 0.338l-0.244 0.919c-0.069 0.256 0.081 0.512 0.338 0.581l1.869 0.5-2.544 1.469c-0.225 0.131-0.306 0.419-0.175 0.65l0.475 0.825c0.131 0.225 0.419 0.306 0.65 0.175l2.538-1.469-0.5 1.869c-0.069 0.256 0.081 0.512 0.337 0.581l0.919 0.244c0.256 0.069 0.513-0.081 0.581-0.337l0.994-3.706 3.944-2.275v4.912l-2.856 2.85c-0.194 0.194-0.194 0.512 0 0.706l0.706 0.706c0.194 0.194 0.512 0.194 0.706 0l1.438-1.438v3.087c0 0.275 0.225 0.5 0.5 0.5h1c0.275 0 0.5-0.225 0.5-0.5v-3.087l1.438 1.438c0.194 0.194 0.512 0.194 0.706 0l0.706-0.706c0.194-0.194 0.194-0.512 0-0.706l-2.844-2.85v-4.912l3.944 2.275 0.994 3.706c0.069 0.256 0.331 0.406 0.581 0.337l0.919-0.244c0.256-0.069 0.406-0.331 0.337-0.581l-0.5-1.869 2.538 1.469c0.225 0.131 0.519 0.056 0.65-0.175l0.475-0.825c0.131-0.225 0.056-0.519-0.175-0.65l-2.538-1.469 1.869-0.5c0.256-0.069 0.406-0.331 0.337-0.581l-0.244-0.919c-0.069-0.256-0.331-0.406-0.581-0.338l-3.706 0.994-4-2.306 3.994-2.306 3.706 0.994c0.256 0.069 0.512-0.081 0.581-0.338l0.244-0.919c0.069-0.256-0.081-0.512-0.337-0.581l-1.869-0.5 2.538-1.469c0.231-0.131 0.313-0.419 0.181-0.644zM24.5 18h9.5c3.737 0 6.675-3.412 5.862-7.294-0.475-2.269-2.306-4.1-4.575-4.575-3.694-0.769-6.969 1.862-7.269 5.337-0.025 0.287 0.219 0.525 0.5 0.525h1.012c0.262 0 0.462-0.206 0.494-0.463 0.262-2.287 2.469-3.987 4.919-3.425 1.444 0.331 2.612 1.506 2.95 2.95 0.6 2.613-1.381 4.944-3.894 4.944h-9.5c-0.275 0-0.5 0.225-0.5 0.5v1c0 0.275 0.225 0.5 0.5 0.5zM33.731 20h-10.231c-0.275 0-0.5 0.225-0.5 0.5v1c0 0.275 0.225 0.5 0.5 0.5h10.3c2.087 0 3.956 1.525 4.156 3.6 0.231 2.381-1.644 4.4-3.981 4.4-2.050 0-3.744-1.55-3.975-3.531-0.031-0.262-0.231-0.462-0.494-0.462h-1.006c-0.288 0-0.525 0.244-0.5 0.525 0.269 3.069 2.844 5.475 5.975 5.475 3.375 0 6.1-2.788 6-6.181-0.094-3.294-2.962-5.825-6.244-5.825z"></path>
</svg>
