<!-- Generated by IcoMoon.io -->
<svg version="1.1" xmlns="http://www.w3.org/2000/svg" width="32" height="32" viewBox="0 0 32 32">
<title>soap</title>
<path d="M25 6c1.657 0 3-1.343 3-3s-1.343-3-3-3c-1.657 0-3 1.343-3 3v0c0.002 1.656 1.344 2.998 3 3h0zM25 2c0.552 0 1 0.448 1 1s-0.448 1-1 1c-0.552 0-1-0.448-1-1v0c0-0.552 0.448-1 1-1v0zM14 8c2.209 0 4-1.791 4-4s-1.791-4-4-4c-2.209 0-4 1.791-4 4v0c0 2.209 1.791 4 4 4v0zM14 2c1.105 0 2 0.895 2 2s-0.895 2-2 2c-1.105 0-2-0.895-2-2v0c0-1.105 0.895-2 2-2v0zM22 17h-12c-2.761 0-5 2.239-5 5s2.239 5 5 5v0h12c2.761 0 5-2.239 5-5s-2.239-5-5-5v0zM22 25h-12c-1.657 0-3-1.343-3-3s1.343-3 3-3v0h12c1.657 0 3 1.343 3 3s-1.343 3-3 3v0zM26 12h-2c0-2.209-1.791-4-4-4s-4 1.791-4 4v0h-10c-3.314 0-6 2.686-6 6v0 8c0 3.314 2.686 6 6 6v0h20c3.314 0 6-2.686 6-6v0-8c0-3.314-2.686-6-6-6v0zM20 10c1.105 0 2 0.895 2 2s-0.895 2-2 2c-1.105 0-2-0.895-2-2v0c0-1.105 0.895-2 2-2v0zM30 26c-0.003 2.208-1.792 3.997-4 4h-20c-2.208-0.003-3.998-1.792-4-4v-8c0.002-2.208 1.792-3.998 4-4h10.555c0.696 1.203 1.978 2 3.445 2s2.749-0.797 3.435-1.981l0.010-0.019h2.555c2.208 0.002 3.997 1.792 4 4v0z"></path>
</svg>
