<!-- Generated by IcoMoon.io -->
<svg version="1.1" xmlns="http://www.w3.org/2000/svg" width="32" height="32" viewBox="0 0 32 32">
<title>soap-solid</title>
<path d="M26 12c-0.002 1.735-0.745 3.296-1.929 4.384l-0.004 0.004c2.315 0.863 3.934 3.055 3.934 5.624 0 3.307-2.681 5.988-5.988 5.988-0.005 0-0.009 0-0.014 0h-11.999c-3.314 0-6-2.686-6-6s2.686-6 6-6v0h5.557c-0.962-1.051-1.553-2.456-1.557-3.999v-0.001h-8c-3.314 0-6 2.686-6 6v0 8c0 3.314 2.686 6 6 6v0h20c3.314 0 6-2.686 6-6v0-8c0-3.314-2.686-6-6-6v0zM20 16c2.209 0 4-1.791 4-4s-1.791-4-4-4c-2.209 0-4 1.791-4 4v0c0 2.209 1.791 4 4 4v0zM13 6c1.657 0 3-1.343 3-3s-1.343-3-3-3c-1.657 0-3 1.343-3 3v0c0 1.657 1.343 3 3 3v0zM24 4c1.105 0 2-0.895 2-2s-0.895-2-2-2c-1.105 0-2 0.895-2 2v0c0 1.105 0.895 2 2 2v0zM10 18c-2.209 0-4 1.791-4 4s1.791 4 4 4v0h12c2.209 0 4-1.791 4-4s-1.791-4-4-4v0z"></path>
</svg>
