<!-- Generated by IcoMoon.io -->
<svg version="1.1" xmlns="http://www.w3.org/2000/svg" width="32" height="32" viewBox="0 0 32 32">
<title>socks</title>
<path d="M28 0h-5.989c-0.742 0-1.427 0.214-2.023 0.565-0.586-0.347-1.256-0.565-1.988-0.565h-5.989c-2.207 0-3.998 1.779-4 3.986-0.004 4.593-0.011 11.514-0.011 11.514l-4.986 3.712c-2.873 2.156-3.926 6.156-2.129 9.266 1.331 2.302 3.727 3.523 6.12 3.523 1.461 0 2.936-0.456 4.193-1.401l0.86-0.645c1.342 1.341 3.133 2.045 4.946 2.045 1.461 0 2.936-0.456 4.193-1.401l7.601-5.7c1.952-1.475 3.2-3.792 3.201-6.4v-14.499c0.001-2.209-1.79-4-3.999-4zM22.011 2h5.989c1.102 0 2 0.897 2 2v2h-9.991l0.002-2.011c0.001-1.097 0.899-1.989 2-1.989zM12.011 2h5.989c0.182 0 0.355 0.029 0.519 0.078-0.314 0.569-0.508 1.212-0.509 1.909l-0.002 2.014h-8l0.002-2.011c0.001-1.097 0.899-1.989 2-1.989zM10.866 28.35l-0.867 0.65c-0.871 0.654-1.906 1-2.992 1-1.811 0-3.476-0.943-4.389-2.524-1.236-2.138-0.534-5.066 1.598-6.665l5.784-4.311 0.008-8.5h8c-0.004 3.789-0.007 7.5-0.007 7.5l-4.947 3.712c-2.836 2.127-3.886 6.047-2.187 9.138zM30 18.499c0 1.879-0.898 3.673-2.4 4.8l-7.602 5.701c-0.871 0.654-1.906 1-2.992 1-1.811 0-3.438-0.943-4.351-2.524-1.236-2.138-0.534-5.066 1.598-6.665l5.747-4.311 0.008-8.5h9.993v10.499z"></path>
</svg>
