<!-- Generated by IcoMoon.io -->
<svg version="1.1" xmlns="http://www.w3.org/2000/svg" width="32" height="32" viewBox="0 0 32 32">
<title>socks-solid</title>
<path d="M13.416 19.438l4.584-3.438v-10h-10v11l-5.416 4.038c-2.462 1.848-3.366 5.276-1.826 7.941 1.141 1.974 3.196 3.021 5.246 3.021 1.252 0 2.516-0.391 3.595-1.2l1.366-1.024c-1.866-3.461-0.846-7.865 2.45-10.338zM18 2c0-0.691 0.192-1.331 0.501-1.899-0.164-0.044-0.323-0.101-0.501-0.101h-8c-1.104 0-2 0.896-2 2v2h10v-2zM30 0h-8c-1.104 0-2 0.896-2 2v2h12v-2c0-1.104-0.896-2-2-2zM20 17l-5.383 4.038c-2.463 1.848-3.366 5.276-1.826 7.941 1.141 1.974 3.163 3.021 5.214 3.021 1.252 0 2.516-0.391 3.595-1.2l7.2-5.4c1.952-1.475 3.2-3.792 3.2-6.4 0-0 0-0 0-0v0-13h-12v11z"></path>
</svg>
