<!-- Generated by IcoMoon.io -->
<svg version="1.1" xmlns="http://www.w3.org/2000/svg" width="40" height="32" viewBox="0 0 40 32">
<title>solar-panel</title>
<path d="M36.639 1.671c-0.161-0.964-0.995-1.671-1.972-1.671h-29.332c-0.978 0-1.812 0.707-1.973 1.671l-3.333 20c-0.204 1.219 0.736 2.329 1.973 2.329h11.999v6h-2.5c-0.276 0-0.5 0.224-0.5 0.5v1c0 0.276 0.224 0.5 0.5 0.5h17c0.276 0 0.5-0.224 0.5-0.5v-1c0-0.276-0.224-0.5-0.5-0.5h-2.5v-6h11.999c1.236 0 2.176-1.11 1.972-2.329l-3.333-20zM36.166 11h-8.663l-0.9-9h8.063l1.5 9zM25.496 11h-10.991l0.9-9h9.192l0.899 9zM5.334 2h8.063l-0.9 9h-8.662l1.5-9zM3.501 13h8.796l-0.9 9h-9.396l1.5-9zM24 30h-8v-6h8v6zM13.405 22l0.9-9h11.391l0.9 9h-13.191zM28.603 22l-0.9-9h8.796l1.5 9h-9.396z"></path>
</svg>
