<!-- Generated by IcoMoon.io -->
<svg version="1.1" xmlns="http://www.w3.org/2000/svg" width="32" height="32" viewBox="0 0 32 32">
<title>solar-system-solid</title>
<path d="M24.486 7.515c-1.040-1.040-2.629-1.102-3.798-0.296-1.466-0.782-3.068-1.219-4.689-1.219-5.523 0-9.999 4.477-9.999 10s4.477 10 10 10c2.761 0 5.261-1.119 7.071-2.929v0c3.189-3.189 3.729-7.977 1.71-11.759 0.807-1.169 0.744-2.757-0.296-3.797zM20.95 20.95c-1.276 1.3-3.052 2.105-5.016 2.105-3.881 0-7.028-3.146-7.028-7.028s3.146-7.028 7.028-7.028c1.282 0 2.485 0.344 3.52 0.944l-0.034-0.018c0.065 0.667 0.312 1.321 0.822 1.832s1.164 0.756 1.83 0.822c1.499 2.667 1.145 6.104-1.123 8.37zM16 12c-2.209 0-4 1.791-4 4s1.791 4 4 4 4-1.791 4-4v0c-0-2.209-1.791-4-4-4-0 0-0 0-0 0v0zM21.057 27.98c-1.491 0.645-3.227 1.020-5.051 1.020-3.592 0-6.844-1.455-9.199-3.808l0 0c-4.349-4.348-4.955-11.030-1.843-16.043 0.239 0.058 0.514 0.092 0.796 0.092 1.935 0 3.503-1.569 3.503-3.503s-1.569-3.503-3.503-3.503c-1.935 0-3.503 1.569-3.503 3.503 0 0.551 0.127 1.072 0.354 1.536l-0.009-0.021c-4.061 6.205-3.368 14.61 2.084 20.061 2.888 2.895 6.881 4.686 11.292 4.686 2.47 0 4.808-0.561 6.895-1.563l-0.096 0.041c-0.137-0.113-0.284-0.208-0.412-0.336-0.583-0.591-1.033-1.316-1.297-2.124l-0.011-0.038zM27.315 4.686c-2.888-2.895-6.881-4.686-11.292-4.686-2.47 0-4.808 0.561-6.895 1.563l0.096-0.041c0.137 0.113 0.284 0.208 0.412 0.336 0.583 0.591 1.033 1.316 1.297 2.124l0.011 0.038c1.491-0.645 3.227-1.020 5.051-1.020 3.592 0 6.844 1.455 9.199 3.808l-0-0c4.348 4.348 4.955 11.030 1.843 16.043-0.239-0.058-0.514-0.092-0.797-0.092-1.935 0-3.504 1.569-3.504 3.504s1.569 3.504 3.504 3.504c1.935 0 3.504-1.569 3.504-3.504 0-0.551-0.127-1.072-0.354-1.536l0.009 0.021c4.061-6.205 3.368-14.61-2.084-20.061z"></path>
</svg>
