<!-- Generated by IcoMoon.io -->
<svg version="1.1" xmlns="http://www.w3.org/2000/svg" width="32" height="32" viewBox="0 0 32 32">
<title>solar-system</title>
<path d="M23.774 7.732c-0.789-0.789-1.961-0.908-2.903-0.421-1.476-0.829-3.127-1.311-4.867-1.311-5.52 0.003-9.994 4.478-9.994 9.998 0 5.522 4.476 9.998 9.998 9.998s9.998-4.476 9.998-9.998c0-2.071-0.63-3.995-1.708-5.591l0.023 0.035c0.117-0.279 0.185-0.603 0.185-0.943 0-0.69-0.28-1.315-0.732-1.768v0zM21.662 21.657c-3.020 3.021-8.295 3.021-11.316 0-1.448-1.448-2.344-3.448-2.344-5.657 0-4.418 3.582-8 8-8 0 0 0.001 0 0.001 0h-0c1.284 0 2.506 0.334 3.618 0.901-0.205 0.823-0.028 1.723 0.616 2.367 0.449 0.444 1.066 0.718 1.747 0.718 0.298 0 0.584-0.052 0.848-0.149l-0.017 0.005c0.747 1.188 1.191 2.633 1.191 4.182 0 2.202-0.896 4.194-2.344 5.632l-0 0zM27.327 4.686c-2.89-2.895-6.886-4.686-11.3-4.686-2.484 0-4.835 0.567-6.931 1.579l0.095-0.042c0.027 0.026 0.060 0.044 0.087 0.071 0.44 0.447 0.804 0.971 1.069 1.549l0.014 0.034c1.67-0.762 3.623-1.206 5.679-1.206 7.718 0 13.975 6.257 13.975 13.975 0 2.72-0.777 5.258-2.121 7.405l0.034-0.059c-0.425-0.196-0.922-0.31-1.445-0.31-1.947 0-3.525 1.578-3.525 3.525s1.578 3.525 3.525 3.525c1.947 0 3.525-1.578 3.525-3.525 0-0.703-0.206-1.357-0.56-1.907l0.008 0.014c3.986-6.194 3.295-14.522-2.129-19.942zM26.507 28c-0.828-0-1.5-0.672-1.5-1.5s0.672-1.5 1.5-1.5 1.5 0.672 1.5 1.5v0c-0 0.828-0.672 1.5-1.5 1.5-0 0-0 0-0 0v0zM21.558 28.852c-1.637 0.726-3.547 1.149-5.556 1.149-7.734 0-14.004-6.268-14.007-14.001v-0c0-2.625 0.764-5.114 2.109-7.293 0.422 0.192 0.915 0.304 1.434 0.304 1.954 0 3.538-1.584 3.538-3.538s-1.584-3.538-3.538-3.538c-1.954 0-3.538 1.584-3.538 3.538 0 0.698 0.202 1.349 0.551 1.898l-0.009-0.014c-3.993 6.195-3.286 14.536 2.14 19.959 2.89 2.895 6.885 4.686 11.299 4.686 2.456 0 4.782-0.555 6.861-1.545l-0.096 0.041c-0.041-0.038-0.088-0.065-0.128-0.105-0.428-0.436-0.784-0.945-1.046-1.506l-0.014-0.033zM5.501 4c0.828 0 1.5 0.672 1.5 1.5s-0.672 1.5-1.5 1.5-1.5-0.672-1.5-1.5c0 0 0 0 0 0v0c0-0.828 0.672-1.5 1.5-1.5 0 0 0 0 0 0v0zM16.004 11c-2.761 0.001-4.999 2.239-4.999 5s2.239 5 5 5 5-2.239 5-5v0c-0.004-2.76-2.241-4.997-5.001-5h-0zM16.004 19c-1.656-0-2.999-1.343-2.999-3s1.343-3 3-3 3 1.343 3 3v0c-0 1.657-1.343 3-3 3-0 0-0 0-0 0h0z"></path>
</svg>
