<!-- Generated by IcoMoon.io -->
<svg version="1.1" xmlns="http://www.w3.org/2000/svg" width="40" height="32" viewBox="0 0 40 32">
<title>solar-panel-solid</title>
<path d="M26.999 28.001l-2.998 0.003v-2.004h-8v2.013l-2.999 0.003c-0.551 0.001-0.998 0.448-0.999 0.999l-0.003 1.983c-0.001 0.553 0.448 1.002 1.001 1.001l13.998-0.016c0.551-0.001 0.998-0.448 0.999-0.999l0.003-1.983c0.001-0.553-0.448-1.002-1.001-1.001zM36.575 1.671c-0.164-0.964-1.013-1.671-2.009-1.671h-29.133c-0.996 0-1.845 0.707-2.009 1.671-3.632 21.401-3.422 20.084-3.422 20.329-0.002 1.082 0.893 2 2.038 2h35.921c1.139 0 2.032-0.91 2.037-1.987 0.001-0.255 0.209 1.059-3.422-20.342zM16.239 4h7.521l0.611 6h-8.742l0.611-6zM11.541 20h-7.098l1.188-7h6.623l-0.713 7zM12.559 10h-6.419l1.018-6h6.012l-0.611 6zM14.611 20l0.713-7h9.353l0.712 7h-10.778zM26.829 4h6.012l1.018 6h-6.419l-0.611-6zM28.458 20l-0.712-7h6.623l1.188 7h-7.099z"></path>
</svg>
