<!-- Generated by IcoMoon.io -->
<svg version="1.1" xmlns="http://www.w3.org/2000/svg" width="28" height="32" viewBox="0 0 28 32">
<title>sort-numeric-up-alt</title>
<path d="M7.527 2.219c-0.135-0.135-0.321-0.218-0.527-0.218s-0.392 0.083-0.527 0.218v0l-5.25 5.145c-0.138 0.136-0.223 0.325-0.223 0.534 0 0.206 0.083 0.393 0.218 0.529l-0-0 0.351 0.355c0.135 0.137 0.323 0.222 0.531 0.222 0.205 0 0.391-0.083 0.526-0.217l-0 0 3.375-3.296v24.009c0 0.276 0.224 0.5 0.5 0.5v0h1c0.276 0 0.5-0.224 0.5-0.5v0-23.995l3.371 3.272c0.136 0.135 0.322 0.218 0.529 0.218s0.393-0.083 0.529-0.218l-0 0 0.352-0.354c0.136-0.136 0.221-0.324 0.221-0.531s-0.084-0.395-0.221-0.531l-0-0zM21.531 2.12c-2.043 0.454-3.548 2.25-3.548 4.398 0 2.485 2.015 4.5 4.5 4.5 0.006 0 0.012 0 0.018-0h-0.001c0.848-0.004 1.638-0.245 2.31-0.659l-0.019 0.011c-0.552 1.951-2.245 3.429-4.317 3.625-0.262 0.017-0.468 0.231-0.473 0.495v1.005c0 0.001-0 0.003-0 0.004 0 0.276 0.224 0.5 0.5 0.5 0.008 0 0.017-0 0.025-0.001l-0.001 0c3.632-0.286 6.471-3.3 6.476-6.979v-2.501c-0.004-2.487-2.021-4.502-4.508-4.502-0.341 0-0.672 0.038-0.991 0.109l0.030-0.006zM22.5 9.018c-1.381 0-2.5-1.119-2.5-2.5s1.119-2.5 2.5-2.5c1.381 0 2.5 1.119 2.5 2.5v0c0 1.381-1.119 2.5-2.5 2.5v0zM26.5 28h-2.5v-9c0-0.552-0.448-1-1-1v0h-0.75c-0 0-0 0-0 0-0.356 0-0.668 0.186-0.846 0.466l-0.002 0.004-1.25 2c-0.095 0.15-0.152 0.334-0.152 0.53 0 0.552 0.448 1 1 1 0 0 0 0 0 0h1v6h-2.5c-0.276 0-0.5 0.224-0.5 0.5v0 1c0 0.276 0.224 0.5 0.5 0.5v0h7c0.276 0 0.5-0.224 0.5-0.5v0-1c0-0.276-0.224-0.5-0.5-0.5v0z"></path>
</svg>
