<!-- Generated by IcoMoon.io -->
<svg version="1.1" xmlns="http://www.w3.org/2000/svg" width="32" height="32" viewBox="0 0 32 32">
<title>sort-size-up-solid</title>
<path d="M6.707 2.293c-0.181-0.181-0.431-0.293-0.707-0.293s-0.526 0.112-0.707 0.293v0l-5 6c-0.627 0.628-0.182 1.707 0.707 1.707h3v19c0 0.552 0.448 1 1 1v0h2c0.552 0 1-0.448 1-1v0-19h3c0.888 0 1.336-1.078 0.707-1.707zM30.25 2h-12.5c-0.966 0-1.75 0.784-1.75 1.75v0 10.5c0 0.966 0.784 1.75 1.75 1.75v0h12.5c0.966 0 1.75-0.784 1.75-1.75v0-10.5c0-0.966-0.784-1.75-1.75-1.75v0zM26.75 20h-9.5c-0.69 0-1.25 0.56-1.25 1.25v0 7.5c0 0.69 0.56 1.25 1.25 1.25v0h9.5c0.69 0 1.25-0.56 1.25-1.25v0-7.5c0-0.69-0.56-1.25-1.25-1.25v0z"></path>
</svg>
