<!-- Generated by IcoMoon.io -->
<svg version="1.1" xmlns="http://www.w3.org/2000/svg" width="28" height="32" viewBox="0 0 28 32">
<title>sort-shapes-up-alt</title>
<path d="M27.756 27.429l-5.194-8.572c-0.333-0.518-0.907-0.857-1.559-0.857s-1.226 0.338-1.555 0.849l-0.004 0.007-5.2 8.572c-0.693 1.142 0.173 2.571 1.559 2.571h10.394c1.386 0 2.252-1.429 1.559-2.571zM16.236 28l4.764-7.858 4.764 7.858zM16.5 14h9c0.828 0 1.5-0.672 1.5-1.5v0-9c0-0.828-0.672-1.5-1.5-1.5v0h-9c-0.828 0-1.5 0.672-1.5 1.5v0 9c0 0.828 0.672 1.5 1.5 1.5v0zM17 4h8v8h-8zM7.527 2.219c-0.135-0.135-0.321-0.218-0.527-0.218s-0.392 0.083-0.527 0.218v0l-5.25 5.145c-0.138 0.136-0.223 0.325-0.223 0.534 0 0.206 0.083 0.393 0.218 0.529l-0-0 0.351 0.355c0.135 0.137 0.323 0.222 0.531 0.222 0.205 0 0.391-0.083 0.526-0.217l-0 0 3.375-3.296v24.009c0 0.276 0.224 0.5 0.5 0.5v0h1c0.276 0 0.5-0.224 0.5-0.5v0-23.995l3.371 3.272c0.136 0.135 0.322 0.218 0.529 0.218s0.393-0.083 0.529-0.218l-0 0 0.352-0.354c0.136-0.136 0.221-0.324 0.221-0.531s-0.084-0.395-0.221-0.531l-0-0z"></path>
</svg>
