<!-- Generated by IcoMoon.io -->
<svg version="1.1" xmlns="http://www.w3.org/2000/svg" width="28" height="32" viewBox="0 0 28 32">
<title>sort-alpha-down-alt-solid</title>
<path d="M11 22h-3v-19c0-0.552-0.448-1-1-1v0h-2c-0.552 0-1 0.448-1 1v0 19h-3c-0.887 0-1.335 1.078-0.706 1.707l5 6c0.181 0.181 0.431 0.293 0.707 0.293s0.526-0.112 0.707-0.293v0l5-6c0.626-0.628 0.181-1.707-0.708-1.707zM18 14h8c0.552 0 1-0.448 1-1v0-2c0-0.552-0.448-1-1-1v0h-3.5l3.829-4.403c0.413-0.368 0.671-0.901 0.671-1.495 0-0 0-0 0-0v0-1.102c0-0.552-0.448-1-1-1v0h-8c-0.552 0-1 0.448-1 1v0 2c0 0.552 0.448 1 1 1v0h3.5l-3.829 4.403c-0.413 0.368-0.671 0.901-0.671 1.495 0 0 0 0 0 0v0 1.102c0 0.552 0.448 1 1 1v0zM27.941 28.664l-3.704-10c-0.142-0.39-0.51-0.664-0.942-0.664-0 0-0 0-0 0h-2.59c-0 0-0 0-0 0-0.432 0-0.8 0.274-0.94 0.657l-0.002 0.007-3.704 10c-0.037 0.1-0.058 0.216-0.058 0.336 0 0.552 0.447 1 0.999 1h1.552c0 0 0 0 0 0 0.442 0 0.818-0.287 0.95-0.685l0.002-0.007 0.276-0.808h4.438l0.276 0.808c0.134 0.405 0.509 0.692 0.952 0.692 0.001 0 0.002 0 0.003 0h1.552c0.552-0 0.999-0.448 0.999-1 0-0.121-0.021-0.236-0.060-0.343l0.002 0.007zM20.976 25l1.024-3 1.024 3z"></path>
</svg>
