<!-- Generated by IcoMoon.io -->
<svg version="1.1" xmlns="http://www.w3.org/2000/svg" width="32" height="32" viewBox="0 0 32 32">
<title>sort-circle</title>
<path d="M10.297 14h11.398c1.025 0 1.537-1.241 0.813-1.963l-5.694-5.699c-0.208-0.209-0.495-0.338-0.812-0.338h-0c-0.001 0-0.003 0-0.005 0-0.316 0-0.602 0.129-0.808 0.338l-5.703 5.699c-0.724 0.723-0.213 1.963 0.813 1.963zM16 8.354l3.644 3.646h-7.294zM21.694 18h-11.398c-1.025 0-1.537 1.241-0.813 1.963l5.703 5.699c0.206 0.209 0.492 0.338 0.808 0.338 0.002 0 0.003 0 0.005 0h-0c0.318-0 0.605-0.129 0.812-0.338l5.699-5.699c0.72-0.723 0.209-1.963-0.817-1.963zM16 23.646l-3.651-3.646h7.294zM21.93 1.684c-1.75-0.748-3.786-1.183-5.923-1.184h-0c-6.081 0-11.851 3.603-14.322 9.57-3.275 7.907 0.479 16.971 8.386 20.246 1.75 0.748 3.786 1.183 5.923 1.184h0c6.081 0 11.851-3.602 14.322-9.57 3.275-7.907-0.479-16.971-8.386-20.246zM28.469 21.165c-2.077 4.934-6.872 8.335-12.462 8.335-1.866 0-3.644-0.379-5.26-1.064l0.088 0.033c-6.876-2.848-10.152-10.758-7.304-17.634 2.077-4.934 6.872-8.335 12.462-8.335 1.866 0 3.644 0.379 5.26 1.064l-0.088-0.033c6.876 2.848 10.152 10.758 7.304 17.634z"></path>
</svg>
