<!-- Generated by IcoMoon.io -->
<svg version="1.1" xmlns="http://www.w3.org/2000/svg" width="32" height="32" viewBox="0 0 32 32">
<title>sort-size-down-alt-solid</title>
<path d="M17.244 12h9.512c0.688-0.004 1.244-0.562 1.244-1.25 0 0 0 0 0-0v0-7.5c0 0 0 0 0-0 0-0.688-0.556-1.246-1.243-1.25h-9.513c-0.688 0.004-1.244 0.562-1.244 1.25 0 0 0 0 0 0v0 7.5c0 0 0 0 0 0 0 0.688 0.556 1.246 1.243 1.25h0zM30.25 16h-12.5c-0.966 0-1.75 0.784-1.75 1.75v0 10.5c0 0.966 0.784 1.75 1.75 1.75v0h12.5c0.966 0 1.75-0.784 1.75-1.75v0-10.5c0-0.966-0.784-1.75-1.75-1.75v0zM11 22h-3v-19c0-0.552-0.448-1-1-1v0h-2c-0.552 0-1 0.448-1 1v0 19h-3c-0.887 0-1.336 1.078-0.706 1.707l5 6c0.181 0.181 0.431 0.293 0.707 0.293s0.526-0.112 0.707-0.293v0l5-6c0.626-0.628 0.181-1.707-0.708-1.707z"></path>
</svg>
