<!-- Generated by IcoMoon.io -->
<svg version="1.1" xmlns="http://www.w3.org/2000/svg" width="28" height="32" viewBox="0 0 28 32">
<title>sort-numeric-down-alt-solid</title>
<path d="M11 22h-3v-19c0-0.552-0.448-1-1-1v0h-2c-0.552 0-1 0.448-1 1v0 19h-3c-0.887 0-1.335 1.078-0.706 1.707l5 6c0.181 0.181 0.431 0.293 0.707 0.293s0.526-0.112 0.707-0.293v0l5-6c0.626-0.628 0.181-1.707-0.708-1.707zM25 26h-1v-7c0-0.552-0.448-1-1-1v0h-3c-0.389 0-0.725 0.222-0.89 0.546l-0.003 0.006-1 2c-0.067 0.131-0.106 0.285-0.106 0.448 0 0.552 0.447 1 0.999 1h1v4h-1c-0.552 0-1 0.448-1 1v0 2c0 0.552 0.448 1 1 1v0h6c0.552 0 1-0.448 1-1v0-2c0-0.552-0.448-1-1-1v0zM20.636 2.182c-1.661 0.466-2.947 1.735-3.429 3.351l-0.009 0.035c-0.892 3.191 1.324 6.111 4.302 6.408-0.375 0.318-0.805 0.589-1.27 0.794l-0.034 0.013c-0.473 0.213-0.675 0.779-0.511 1.271l0.619 1.25c0.179 0.539 0.783 0.843 1.306 0.619 3.625-1.548 5.391-3.851 5.391-8.25v-0.673c-0.001-3.201-3.025-5.709-6.366-4.818zM22 8.25c-0.69 0-1.25-0.56-1.25-1.25s0.56-1.25 1.25-1.25c0.69 0 1.25 0.56 1.25 1.25v0c0 0.69-0.56 1.25-1.25 1.25v0z"></path>
</svg>
