<!-- Generated by IcoMoon.io -->
<svg version="1.1" xmlns="http://www.w3.org/2000/svg" width="32" height="32" viewBox="0 0 32 32">
<title>sort-size-up-alt</title>
<path d="M1.567 8.777c0.135 0.137 0.323 0.222 0.531 0.222 0.205 0 0.391-0.083 0.526-0.217l-0 0 3.376-3.292v24.009c0 0.276 0.224 0.5 0.5 0.5v0h1c0.276 0 0.5-0.224 0.5-0.5v0-23.995l3.371 3.272c0.136 0.135 0.322 0.218 0.529 0.218s0.393-0.083 0.529-0.218l-0 0 0.352-0.354c0.136-0.136 0.221-0.324 0.221-0.531s-0.084-0.395-0.221-0.531l-0-0-5.254-5.144c-0.135-0.135-0.321-0.218-0.527-0.218s-0.392 0.083-0.527 0.218v0l-5.25 5.145c-0.138 0.136-0.223 0.325-0.223 0.534 0 0.206 0.083 0.393 0.218 0.528l-0-0zM17.25 12h9.5c0.69 0 1.25-0.56 1.25-1.25v0-7.5c0-0.69-0.56-1.25-1.25-1.25v0h-9.5c-0.69 0-1.25 0.56-1.25 1.25v0 7.5c0 0.69 0.56 1.25 1.25 1.25v0zM18 4h8v6h-8zM30.25 16h-12.5c-0.966 0-1.75 0.784-1.75 1.75v0 10.5c0 0.966 0.784 1.75 1.75 1.75v0h12.5c0.966 0 1.75-0.784 1.75-1.75v0-10.5c0-0.966-0.784-1.75-1.75-1.75v0zM30 28h-12v-10h12z"></path>
</svg>
