<!-- Generated by IcoMoon.io -->
<svg version="1.1" xmlns="http://www.w3.org/2000/svg" width="32" height="32" viewBox="0 0 32 32">
<title>sort-amount-up-solid</title>
<path d="M19 26h-4c-0.552 0-1 0.448-1 1v0 2c0 0.552 0.448 1 1 1v0h4c0.552 0 1-0.448 1-1v0-2c0-0.552-0.448-1-1-1v0zM1 10h3v19c0 0.552 0.448 1 1 1v0h2c0.552 0 1-0.448 1-1v0-19h3c0.888 0 1.336-1.078 0.707-1.707l-5-6c-0.181-0.181-0.431-0.293-0.707-0.293s-0.526 0.112-0.707 0.293v0l-5 6c-0.627 0.628-0.182 1.707 0.707 1.707zM27 10h-12c-0.552 0-1 0.448-1 1v0 2c0 0.552 0.448 1 1 1v0h12c0.552 0 1-0.448 1-1v0-2c0-0.552-0.448-1-1-1v0zM23 18h-8c-0.552 0-1 0.448-1 1v0 2c0 0.552 0.448 1 1 1v0h8c0.552 0 1-0.448 1-1v0-2c0-0.552-0.448-1-1-1v0zM31 2h-16c-0.552 0-1 0.448-1 1v0 2c0 0.552 0.448 1 1 1v0h16c0.552 0 1-0.448 1-1v0-2c0-0.552-0.448-1-1-1v0z"></path>
</svg>
