<!-- Generated by IcoMoon.io -->
<svg version="1.1" xmlns="http://www.w3.org/2000/svg" width="24" height="32" viewBox="0 0 24 32">
<title>sort-alt-solid</title>
<path d="M11 22h-3v-19c0-0.552-0.448-1-1-1v0h-2c-0.552 0-1 0.448-1 1v0 19h-3c-0.887 0-1.335 1.078-0.706 1.707l5 6c0.181 0.181 0.431 0.293 0.707 0.293s0.526-0.112 0.707-0.293v0l5-6c0.626-0.628 0.181-1.707-0.708-1.707zM23.706 8.293l-5-6c-0.181-0.181-0.431-0.293-0.707-0.293s-0.526 0.112-0.707 0.293v0l-5 6c-0.626 0.628-0.181 1.707 0.708 1.707h3v19c0 0.552 0.448 1 1 1v0h2c0.552 0 1-0.448 1-1v0-19h3c0.887 0 1.335-1.078 0.706-1.707z"></path>
</svg>
