<!-- Generated by IcoMoon.io -->
<svg version="1.1" xmlns="http://www.w3.org/2000/svg" width="32" height="32" viewBox="0 0 32 32">
<title>sort-size-down</title>
<path d="M12.433 23.223c-0.135-0.137-0.323-0.222-0.531-0.222-0.205 0-0.391 0.083-0.526 0.217l0-0-3.375 3.292v-24.009c0-0.276-0.224-0.5-0.5-0.5v0h-1.001c-0.276 0-0.5 0.224-0.5 0.5v0 23.995l-3.371-3.272c-0.136-0.135-0.322-0.218-0.529-0.218s-0.393 0.083-0.529 0.218l0-0-0.353 0.354c-0.136 0.136-0.221 0.324-0.221 0.531s0.084 0.395 0.221 0.531l0 0 5.254 5.144c0.135 0.135 0.321 0.218 0.527 0.218s0.392-0.083 0.527-0.218v0l5.25-5.145c0.138-0.136 0.223-0.325 0.223-0.534 0-0.206-0.083-0.393-0.218-0.529l0 0zM30.25 2h-12.5c-0.966 0-1.75 0.784-1.75 1.75v0 10.5c0 0.966 0.784 1.75 1.75 1.75v0h12.5c0.966 0 1.75-0.784 1.75-1.75v0-10.5c0-0.966-0.784-1.75-1.75-1.75v0zM30 14h-12v-10h12zM26.75 20h-9.5c-0.69 0-1.25 0.56-1.25 1.25v0 7.5c0 0.69 0.56 1.25 1.25 1.25v0h9.5c0.69 0 1.25-0.56 1.25-1.25v0-7.5c0-0.69-0.56-1.25-1.25-1.25v0zM26 28h-8v-6h8z"></path>
</svg>
