<!-- Generated by IcoMoon.io -->
<svg version="1.1" xmlns="http://www.w3.org/2000/svg" width="32" height="32" viewBox="0 0 32 32">
<title>sort-circle-up</title>
<path d="M10.070 30.316c1.75 0.748 3.786 1.183 5.923 1.184h0c6.081 0 11.851-3.602 14.322-9.57 3.275-7.907-0.479-16.971-8.386-20.246-1.75-0.748-3.786-1.183-5.923-1.184h-0c-6.081 0-11.851 3.603-14.322 9.57-3.275 7.907 0.479 16.971 8.386 20.246zM3.531 10.835c2.077-4.934 6.873-8.335 12.462-8.335 1.866 0 3.644 0.379 5.26 1.065l-0.088-0.033c6.875 2.848 10.151 10.758 7.304 17.634-2.077 4.934-6.872 8.335-12.462 8.335-1.866 0-3.644-0.379-5.26-1.064l0.088 0.033c-6.876-2.848-10.152-10.758-7.304-17.634zM10.297 14h11.398c1.025 0 1.537-1.241 0.813-1.963l-5.694-5.699c-0.208-0.209-0.495-0.338-0.812-0.338h-0c-0.001 0-0.003 0-0.005 0-0.316 0-0.602 0.129-0.808 0.338l-5.703 5.699c-0.724 0.723-0.213 1.963 0.813 1.963zM16 8.354l3.644 3.646h-7.294zM15.293 25.707c0.181 0.181 0.431 0.293 0.707 0.293s0.526-0.112 0.707-0.293l6-6c0.17-0.179 0.275-0.422 0.275-0.689 0-0.552-0.448-1-1-1-0.267 0-0.51 0.105-0.689 0.275l-5.293 5.292-5.293-5.293c-0.179-0.17-0.422-0.275-0.689-0.275-0.552 0-1 0.448-1 1 0 0.267 0.105 0.51 0.275 0.689l-0-0z"></path>
</svg>
