<!-- Generated by IcoMoon.io -->
<svg version="1.1" xmlns="http://www.w3.org/2000/svg" width="32" height="32" viewBox="0 0 32 32">
<title>sort-amount-down-alt-solid</title>
<path d="M15 6h4c0.552 0 1-0.448 1-1v0-2c0-0.552-0.448-1-1-1v0h-4c-0.552 0-1 0.448-1 1v0 2c0 0.552 0.448 1 1 1v0zM15 14h8c0.552 0 1-0.448 1-1v0-2c0-0.552-0.448-1-1-1v0h-8c-0.552 0-1 0.448-1 1v0 2c0 0.552 0.448 1 1 1v0zM31 26h-16c-0.552 0-1 0.448-1 1v0 2c0 0.552 0.448 1 1 1v0h16c0.552 0 1-0.448 1-1v0-2c0-0.552-0.448-1-1-1v0zM15 22h12c0.552 0 1-0.448 1-1v0-2c0-0.552-0.448-1-1-1v0h-12c-0.552 0-1 0.448-1 1v0 2c0 0.552 0.448 1 1 1v0zM11 22h-3v-19c0-0.552-0.448-1-1-1v0h-2c-0.552 0-1 0.448-1 1v0 19h-3c-0.887 0-1.336 1.078-0.706 1.707l5 6c0.181 0.181 0.431 0.293 0.707 0.293s0.526-0.112 0.707-0.293v0l5-6c0.626-0.628 0.181-1.707-0.708-1.707z"></path>
</svg>
