<!-- Generated by IcoMoon.io -->
<svg version="1.1" xmlns="http://www.w3.org/2000/svg" width="28" height="32" viewBox="0 0 28 32">
<title>sort-alpha-up</title>
<path d="M7.527 2.219c-0.135-0.135-0.321-0.218-0.527-0.218s-0.392 0.083-0.527 0.218v0l-5.25 5.145c-0.138 0.136-0.223 0.325-0.223 0.534 0 0.206 0.083 0.393 0.218 0.529l-0-0 0.351 0.355c0.135 0.137 0.323 0.222 0.531 0.222 0.205 0 0.391-0.083 0.526-0.217l-0 0 3.375-3.296v24.009c0 0.276 0.224 0.5 0.5 0.5v0h1c0.276 0 0.5-0.224 0.5-0.5v0-23.995l3.371 3.272c0.136 0.135 0.322 0.218 0.529 0.218s0.393-0.083 0.529-0.218l-0 0 0.352-0.354c0.136-0.136 0.221-0.324 0.221-0.531s-0.084-0.395-0.221-0.531l-0-0zM27.956 12.996l-3.735-10.5c-0.104-0.291-0.377-0.495-0.697-0.496h-1.046c-0.321 0.001-0.593 0.206-0.696 0.491l-0.002 0.005-3.735 10.5c-0.028 0.076-0.044 0.163-0.044 0.254 0 0.412 0.331 0.746 0.742 0.75h0.695c0.324-0.001 0.599-0.21 0.699-0.5l0.002-0.005 0.944-2.767h3.803l0.959 2.772c0.103 0.293 0.378 0.499 0.7 0.5h0.714c0.411-0.004 0.742-0.338 0.742-0.75 0-0.091-0.016-0.178-0.046-0.259l0.002 0.005zM21.712 8.786s1.226-3.554 1.281-3.75c0.054 0.196 1.265 3.75 1.265 3.75zM27 18h-8c-0.276 0-0.5 0.224-0.5 0.5v0 1c0 0.276 0.224 0.5 0.5 0.5v0l5.48 0.004-5.797 8.237c-0.114 0.16-0.182 0.36-0.183 0.576v0.683c0 0.276 0.224 0.5 0.5 0.5v0h8c0.276 0 0.5-0.224 0.5-0.5v0-1c0-0.276-0.224-0.5-0.5-0.5v0h-5.488l5.806-8.241c0.114-0.16 0.182-0.36 0.183-0.576v-0.683c0-0.276-0.224-0.5-0.5-0.5v0z"></path>
</svg>
