<!-- Generated by IcoMoon.io -->
<svg version="1.1" xmlns="http://www.w3.org/2000/svg" width="28" height="32" viewBox="0 0 28 32">
<title>sort-shapes-up-alt-solid</title>
<path d="M6.707 2.293c-0.181-0.181-0.431-0.293-0.707-0.293s-0.526 0.112-0.707 0.293v0l-5 6c-0.627 0.628-0.182 1.707 0.707 1.707h3v19c0 0.552 0.448 1 1 1v0h2c0.552 0 1-0.448 1-1v0-19h3c0.888 0 1.337-1.078 0.707-1.707zM27.756 27.429l-5.194-8.572c-0.693-1.142-2.426-1.142-3.119 0l-5.2 8.572c-0.693 1.142 0.173 2.571 1.559 2.571h10.394c1.386 0 2.252-1.429 1.559-2.571zM16.5 14h9c0.828 0 1.5-0.672 1.5-1.5v0-9c0-0.828-0.672-1.5-1.5-1.5v0h-9c-0.828 0-1.5 0.672-1.5 1.5v0 9c0 0.828 0.672 1.5 1.5 1.5v0z"></path>
</svg>
