<!-- Generated by IcoMoon.io -->
<svg version="1.1" xmlns="http://www.w3.org/2000/svg" width="32" height="32" viewBox="0 0 32 32">
<title>sort-circle-up-solid</title>
<path d="M16 23.646l3.644-3.646h-7.294zM16 0.5c-8.563 0-15.5 6.938-15.5 15.5s6.938 15.5 15.5 15.5 15.5-6.938 15.5-15.5-6.938-15.5-15.5-15.5zM9.464 12.036l5.723-5.698c0.208-0.209 0.496-0.338 0.815-0.338s0.606 0.129 0.815 0.338l0 0 5.719 5.698c0.725 0.723 0.214 1.964-0.817 1.964h-11.438c-1.031 0-1.542-1.241-0.817-1.964zM22.536 19.964l-5.719 5.698c-0.208 0.209-0.496 0.338-0.815 0.338s-0.606-0.129-0.815-0.338l-0-0-5.723-5.698c-0.725-0.723-0.214-1.964 0.817-1.964h11.438c1.031 0 1.542 1.241 0.817 1.964z"></path>
</svg>
