<!-- Generated by IcoMoon.io -->
<svg version="1.1" xmlns="http://www.w3.org/2000/svg" width="24" height="32" viewBox="0 0 24 32">
<title>sort-alt</title>
<path d="M22.781 7.363l-5.254-5.144c-0.135-0.135-0.321-0.218-0.527-0.218s-0.392 0.083-0.527 0.218v0l-5.25 5.145c-0.138 0.136-0.223 0.325-0.223 0.534 0 0.206 0.083 0.393 0.218 0.528l-0-0 0.351 0.355c0.135 0.137 0.323 0.222 0.531 0.222 0.205 0 0.391-0.083 0.526-0.217l-0 0 3.375-3.292v24.004c0 0.276 0.224 0.5 0.5 0.5v0h1c0.276 0 0.5-0.224 0.5-0.5v0-23.995l3.371 3.272c0.136 0.135 0.322 0.218 0.529 0.218s0.393-0.083 0.529-0.218l-0 0 0.352-0.354c0.136-0.136 0.219-0.323 0.219-0.53s-0.084-0.394-0.219-0.53v0zM12.433 23.223c-0.135-0.137-0.323-0.222-0.531-0.222-0.205 0-0.391 0.083-0.526 0.217l0-0-3.375 3.292v-24.009c0-0.276-0.224-0.5-0.5-0.5v0h-1.001c-0.276 0-0.5 0.224-0.5 0.5v0 23.995l-3.371-3.272c-0.136-0.135-0.322-0.218-0.529-0.218s-0.393 0.083-0.529 0.218l0-0-0.353 0.354c-0.136 0.136-0.221 0.324-0.221 0.531s0.084 0.395 0.221 0.531l0 0 5.254 5.144c0.135 0.135 0.321 0.218 0.527 0.218s0.392-0.083 0.527-0.218v0l5.25-5.145c0.138-0.136 0.223-0.325 0.223-0.534 0-0.206-0.083-0.393-0.218-0.529l0 0z"></path>
</svg>
