<!-- Generated by IcoMoon.io -->
<svg version="1.1" xmlns="http://www.w3.org/2000/svg" width="32" height="32" viewBox="0 0 32 32">
<title>soup-solid</title>
<path d="M11.944 9.156c0.085 0.482 0.5 0.844 1 0.844 0 0 0 0 0 0h1.031c0.613 0 1.1-0.531 1.019-1.125-0.25-1.835-1.076-3.443-2.288-4.67l0.001 0.001c-0.867-0.879-1.462-2.029-1.646-3.312l-0.004-0.032c-0.073-0.491-0.491-0.863-0.996-0.863-0.003 0-0.007 0-0.010 0h-1.024c-0.001 0-0.003 0-0.005 0-0.563 0-1.019 0.456-1.019 1.019 0 0.037 0.002 0.074 0.006 0.11l-0-0.004c0.257 2.071 1.178 3.891 2.539 5.276l-0.001-0.001c0.719 0.728 1.22 1.672 1.396 2.727l0.004 0.030zM18.944 9.156c0.084 0.482 0.5 0.844 1 0.844 0 0 0 0 0 0h1.031c0.613 0 1.1-0.531 1.019-1.125-0.25-1.835-1.076-3.443-2.288-4.67l0.001 0.001c-0.867-0.879-1.462-2.029-1.646-3.312l-0.004-0.032c-0.073-0.491-0.491-0.863-0.996-0.863-0.005 0-0.009 0-0.014 0h-1.024c-0.613 0-1.094 0.531-1.019 1.125 0.257 2.071 1.178 3.891 2.539 5.276l-0.001-0.001c0.719 0.728 1.22 1.672 1.396 2.727l0.004 0.030zM30 12h-28c-1.105 0-2 0.895-2 2v0c0 5.919 3.223 11.072 8 13.841v2.159c0 1.105 0.895 2 2 2v0h12c1.105 0 2-0.895 2-2v0-2.159c4.777-2.768 8-7.922 8-13.841 0-1.105-0.895-2-2-2v0z"></path>
</svg>
