<!-- Generated by IcoMoon.io -->
<svg version="1.1" xmlns="http://www.w3.org/2000/svg" width="32" height="32" viewBox="0 0 32 32">
<title>soup</title>
<path d="M19.969 9.494c0.011 0.269 0.23 0.484 0.5 0.488h1c0.001 0 0.003 0 0.004 0 0.274 0 0.496-0.222 0.496-0.496 0-0.006-0-0.011-0-0.017l0 0.001c-0.131-2.631-1.206-4.581-2.6-5.969-1.15-1.169-1.319-2.388-1.369-3.056-0.025-0.25-0.235-0.444-0.49-0.444-0.004 0-0.007 0-0.011 0h0.001l-1 0.006c-0.274 0.002-0.496 0.225-0.496 0.5 0 0.015 0.001 0.031 0.002 0.046l-0-0.002c0.089 1.711 0.818 3.237 1.949 4.356l0.001 0.001c1.081 1.075 1.9 2.544 2.012 4.588zM13 9.494c0.011 0.269 0.23 0.484 0.5 0.488h1c0.001 0 0.003 0 0.004 0 0.274 0 0.496-0.222 0.496-0.496 0-0.006-0-0.011-0-0.017l0 0.001c-0.131-2.631-1.206-4.581-2.6-5.969-1.144-1.169-1.313-2.388-1.363-3.056-0.026-0.25-0.236-0.444-0.491-0.444-0.005 0-0.011 0-0.016 0l0.001-0-1 0.006c-0.274 0.002-0.496 0.225-0.496 0.5 0 0.015 0.001 0.031 0.002 0.046l-0-0.002c0.063 0.931 0.325 2.725 1.95 4.356 1.081 1.075 1.899 2.544 2.012 4.588zM30 12h-28c-1.105 0-2 0.895-2 2v0c0 5.919 3.223 11.072 8 13.841v2.159c0 1.105 0.895 2 2 2v0h12c1.105 0 2-0.895 2-2v0-2.159c4.777-2.768 8-7.922 8-13.841 0-1.105-0.895-2-2-2v0zM22 26.688v3.313h-12v-3.313c-8.271-4.792-8-11.611-8-12.688h28c0 1.091 0.211 7.931-8 12.688z"></path>
</svg>
