<!-- Generated by IcoMoon.io -->
<svg version="1.1" xmlns="http://www.w3.org/2000/svg" width="36" height="32" viewBox="0 0 36 32">
<title>spa-solid</title>
<path d="M35.516 12c-1.815 0.008-8.438 0.385-13.365 5.188-2.070 1.852-3.335 3.956-4.151 5.929-0.816-1.973-2.081-4.077-4.151-5.929-4.927-4.803-11.55-5.179-13.365-5.188-0.276-0.001-0.487 0.213-0.484 0.489 0.014 1.745 0.446 7.884 5.548 12.456 5.251 5.114 10.452 5.055 12.452 5.055s7.199 0.059 12.452-5.055c5.102-4.573 5.534-10.711 5.548-12.456 0.002-0.276-0.209-0.49-0.484-0.489zM17.999 18.913c0.801-1.178 1.725-2.236 2.756-3.158 1.193-1.163 2.474-2.081 3.766-2.824-1.027-4.406-3.233-8.316-6.046-10.764-0.257-0.224-0.689-0.224-0.946 0-2.812 2.446-5.017 6.352-6.046 10.754 1.273 0.731 2.531 1.634 3.701 2.774 1.055 0.948 1.982 2.003 2.776 3.157l0.039 0.060z"></path>
</svg>
