<!-- Generated by IcoMoon.io -->
<svg version="1.1" xmlns="http://www.w3.org/2000/svg" width="36" height="32" viewBox="0 0 36 32">
<title>spa</title>
<path d="M35.517 12.005h-0.002c-1.415 0.006-5.75 0.268-9.928 2.647-1.214-5.099-3.773-9.617-7.032-12.456-0.15-0.131-0.352-0.196-0.553-0.196s-0.402 0.065-0.553 0.196c-3.261 2.838-5.82 7.357-7.036 12.456-4.178-2.379-8.512-2.641-9.928-2.647h-0.003c-0.274 0-0.485 0.213-0.482 0.489 0.014 1.746 0.446 7.887 5.548 12.463 3.639 3.546 8.192 4.675 11.060 5.029 0.001 0.019 2.782 0.019 2.782 0 2.868-0.354 7.421-1.483 11.060-5.029 5.102-4.575 5.534-10.717 5.548-12.463 0.004-0.276-0.206-0.489-0.481-0.489zM6.883 23.467c-3.451-3.095-4.476-7.017-4.77-9.37 2.553 0.256 6.932 1.207 10.402 4.59 1.586 1.42 2.775 3.122 3.636 5.205 0.531 1.286 0.848 2.581 0.848 4.114-2.673-0.072-7.161-1.663-10.116-4.539zM13.849 17.196c-0.532-0.519-1.091-0.964-1.654-1.384 0.946-4.474 3.044-8.634 5.806-11.396 2.761 2.761 4.859 6.921 5.803 11.395-0.564 0.421-1.122 0.866-1.654 1.384-2.070 1.853-3.335 3.959-4.151 5.932-0.816-1.973-2.081-4.079-4.151-5.931zM29.056 23.523c-2.788 2.716-7.258 4.407-10.056 4.482 0-1.519 0.311-2.814 0.848-4.114 0.861-2.083 2.050-3.786 3.698-5.264 3.424-3.339 7.794-4.279 10.34-4.532-0.296 2.355-1.331 6.289-4.83 9.428z"></path>
</svg>
