<!-- Generated by IcoMoon.io -->
<svg version="1.1" xmlns="http://www.w3.org/2000/svg" width="32" height="32" viewBox="0 0 32 32">
<title>space-station-moon</title>
<path d="M16 0.5c-8.56 0-15.5 6.94-15.5 15.5s6.94 15.5 15.5 15.5 15.5-6.94 15.5-15.5-6.94-15.5-15.5-15.5zM16 29.5c-5.848 0-10.825-3.745-12.697-8.957 3.805 0.926 8.172 1.457 12.664 1.457 0.011 0 0.023 0 0.034 0h-0.002c0.010 0 0.021 0 0.032 0 4.492 0 8.86-0.531 13.044-1.534l-0.38 0.077c-1.871 5.212-6.848 8.957-12.697 8.957zM2.719 18.353c-0.135-0.705-0.215-1.518-0.219-2.349v-0.004c0-7.444 6.056-13.5 13.5-13.5s13.5 6.056 13.5 13.5c-0.004 0.834-0.084 1.647-0.232 2.436l0.013-0.084c-8.176 2.135-18.386 2.135-26.562 0zM12.5 5c-3.038 0-5.5 2.462-5.5 5.5s2.462 5.5 5.5 5.5c3.038 0 5.5-2.462 5.5-5.5v0c0 0 0-0 0-0 0-3.038-2.462-5.5-5.5-5.5 0 0-0 0-0 0v0zM12.5 14c-1.933 0-3.5-1.567-3.5-3.5s1.567-3.5 3.5-3.5c1.933 0 3.5 1.567 3.5 3.5v0c-0.002 1.932-1.568 3.498-3.5 3.5h-0zM12.5 9c-0.828 0-1.5 0.672-1.5 1.5s0.672 1.5 1.5 1.5c0.828 0 1.5-0.672 1.5-1.5v0c0 0 0 0 0 0 0-0.828-0.672-1.5-1.5-1.5 0 0 0 0 0 0v0z"></path>
</svg>
