<!-- Generated by IcoMoon.io -->
<svg version="1.1" xmlns="http://www.w3.org/2000/svg" width="32" height="32" viewBox="0 0 32 32">
<title>space-station-moon-solid</title>
<path d="M16 0.5c-8.56 0-15.5 6.94-15.5 15.5 0.003 0.626 0.042 1.239 0.115 1.842l-0.007-0.075c4.467 1.407 9.735 2.233 15.392 2.233s10.925-0.827 15.392-2.233c0.066-0.528 0.105-1.141 0.108-1.763v-0.004c0-8.56-6.94-15.5-15.5-15.5zM12 15c-2.761 0-5-2.239-5-5s2.239-5 5-5c2.761 0 5 2.239 5 5v0c0 2.761-2.239 5-5 5v0zM1.044 20.016c1.772 6.61 7.787 11.484 14.956 11.484s13.184-4.874 14.956-11.484c-4.411 1.267-9.497 1.984-14.956 1.984s-10.545-0.716-14.956-1.984zM12 8.5c-0.828 0-1.5 0.672-1.5 1.5s0.672 1.5 1.5 1.5c0.828 0 1.5-0.672 1.5-1.5v0c0 0 0 0 0 0 0-0.828-0.672-1.5-1.5-1.5 0 0 0 0 0 0v0z"></path>
</svg>
