<!-- Generated by IcoMoon.io -->
<svg version="1.1" xmlns="http://www.w3.org/2000/svg" width="32" height="32" viewBox="0 0 32 32">
<title>space-station-moon-alt-solid</title>
<path d="M12 8.5c-0.828 0-1.5 0.672-1.5 1.5s0.672 1.5 1.5 1.5c0.828 0 1.5-0.672 1.5-1.5v0c0 0 0 0 0 0 0-0.828-0.672-1.5-1.5-1.5 0 0 0 0 0 0v0zM24 21.446c-2.402 0.35-5.176 0.551-7.997 0.554h-0.003c-5.459 0-10.545-0.716-14.956-1.984 1.772 6.61 7.787 11.484 14.956 11.484 0.004 0 0.008 0 0.013 0 4.822 0 9.129-2.207 11.966-5.666l0.022-0.027v-1.807h-4zM31.357 14h-3.357v-4h-5v-4h3v-1.833c-2.673-2.28-6.167-3.667-9.986-3.667-0.005 0-0.010 0-0.015 0h0.001c-8.56 0-15.5 6.94-15.5 15.5 0.003 0.626 0.042 1.239 0.115 1.842l-0.007-0.075c4.467 1.407 9.735 2.233 15.392 2.233s10.925-0.827 15.392-2.233c0.066-0.528 0.105-1.141 0.108-1.763v-0.004c-0.005-0.71-0.057-1.403-0.153-2.082l0.010 0.082zM12 15c-2.761 0-5-2.239-5-5s2.239-5 5-5c2.761 0 5 2.239 5 5v0c0 2.761-2.239 5-5 5v0z"></path>
</svg>
