<!-- Generated by IcoMoon.io -->
<svg version="1.1" xmlns="http://www.w3.org/2000/svg" width="32" height="32" viewBox="0 0 32 32">
<title>space-station-moon-alt</title>
<path d="M14.002 10.5c0 0 0 0 0 0 0 0.829-0.672 1.5-1.5 1.5s-1.5-0.672-1.5-1.5c0-0.829 0.672-1.5 1.5-1.5v0c0 0 0 0 0 0 0.828 0 1.5 0.672 1.5 1.5v0zM31.053 19.653c-0.045 0.178-0.178 0.317-0.349 0.369l-0.004 0.001c-1.844 0.549-4.109 1.040-6.423 1.376l-0.273 0.032v2.569h3.501c0 0 0 0 0 0 0.276 0 0.5 0.224 0.5 0.5 0 0 0 0 0 0v0 1.119c0 0 0 0.001 0 0.001 0 0.126-0.045 0.241-0.12 0.331l0.001-0.001c-2.857 3.402-7.112 5.549-11.869 5.549-0.005 0-0.010 0-0.015 0h0.001c-8.812 0-15.907-7.351-15.485-16.254 0.375-7.921 6.909-14.407 14.833-14.733 0.198-0.009 0.431-0.014 0.664-0.014 3.735 0 7.16 1.327 9.83 3.534l-0.026-0.021c0.114 0.095 0.186 0.237 0.186 0.396 0 0 0 0.001 0 0.001v-0 3.091c-0 0.276-0.224 0.5-0.5 0.5 0 0-0 0-0 0h-1.5v2h3.501c0 0 0 0 0 0 0.276 0 0.5 0.224 0.5 0.5 0 0 0 0 0 0v0 3.5l2.917-0c0.002-0 0.003-0 0.005-0 0.253 0 0.462 0.19 0.491 0.435l0 0.002c0.051 0.468 0.080 1.010 0.080 1.559 0 1.298-0.162 2.559-0.468 3.762l0.023-0.105zM23.004 26c-0 0-0 0-0 0-0.552 0-1-0.448-1-1v0-3.346c-1.79 0.21-3.874 0.336-5.986 0.346l-0.015 0c-0.030 0-0.066 0-0.101 0-4.469 0-8.814-0.532-12.975-1.535l0.376 0.077c1.871 5.213 6.85 8.959 12.7 8.959 0.006 0 0.013 0 0.020 0 3.49 0 6.669-1.329 9.059-3.51l-0.011 0.009zM29.505 16h-5.001c0 0 0 0-0 0-0.276 0-0.5-0.224-0.5-0.5v0-1c0 0 0 0 0 0 0-0.276 0.224-0.5 0.5-0.5 0 0 0 0 0 0h1.5v-2h-3.501c0 0 0 0-0 0-0.276 0-0.5-0.224-0.5-0.5v0-3.5h-1.5c0 0 0 0-0 0-0.276 0-0.5-0.224-0.5-0.5v0-1c0 0 0 0 0 0 0-0.276 0.224-0.5 0.5-0.5 0 0 0 0 0 0h3.501v-0.866c-2.209-1.643-4.989-2.632-8.001-2.634h-0.001c-7.445 0-13.503 6.056-13.503 13.5 0.005 0.827 0.083 1.633 0.229 2.414l-0.013-0.083c4.090 1.078 8.587 1.669 13.287 1.669 0.023 0 0.050 0 0.078 0 4.699 0 9.252-0.628 13.578-1.804l-0.362 0.084c0.13-0.684 0.205-1.472 0.208-2.277v-0.002zM18.003 10.5c0 0 0 0.001 0 0.001 0 3.038-2.463 5.501-5.501 5.501s-5.501-2.463-5.501-5.501c0-3.038 2.463-5.501 5.501-5.501v0c0 0 0 0 0 0 3.038 0 5.5 2.462 5.501 5.5v0zM16.003 10.5c0-0 0-0 0-0.001 0-1.933-1.567-3.501-3.501-3.501s-3.501 1.567-3.501 3.501c0 1.933 1.567 3.501 3.501 3.501v0c1.932-0.002 3.498-1.568 3.501-3.5v-0z"></path>
</svg>
