<!-- Generated by IcoMoon.io -->
<svg version="1.1" xmlns="http://www.w3.org/2000/svg" width="40" height="32" viewBox="0 0 40 32">
<title>space-shuttle-solid</title>
<path d="M37.038 13.015c-2.054-0.963-4.802-1.515-7.538-1.515h-17.855c-0.309-0.41-0.662-0.749-1.045-1h12.9c-9.178-1.891-9.787-8.5-17.5-8.5h-0v8h-1v-8c-1.657 0-3 1.791-3 4v4c-1.45 0-2 0.627-2 1.5v2.5c0 0.874 0.551 1.5 2 1.5v1c-1.45 0-2 0.627-2 1.5v2.5c0 0.874 0.551 1.5 2 1.5v4c0 2.209 1.343 4 3 4v-8h1v8h0c7.713 0 8.322-6.609 17.5-8.5h-12.9c0.383-0.251 0.736-0.59 1.045-1h17.855c2.736 0 5.483-0.552 7.538-1.515 1.855-0.869 2.962-1.985 2.962-2.985s-1.107-2.115-2.962-2.985zM30.5 18.5c-0.276 0-0.5-0.224-0.5-0.5v0-4c0-0.276 0.224-0.5 0.5-0.5v0c1.994 0 1.996 5 0 5z"></path>
</svg>
