<!-- Generated by IcoMoon.io -->
<svg version="1.1" xmlns="http://www.w3.org/2000/svg" width="40" height="32" viewBox="0 0 40 32">
<title>space-shuttle</title>
<path d="M28 10.5c-15 0-13-8.5-22-8.5h-1c-1.657 0-3 1.791-3 4v4c-1.45 0-2 0.627-2 1.5v9c0 0.874 0.551 1.5 2 1.5v4c0 2.209 1.343 4 3 4h1c9 0 7-8.5 22-8.5 6.627 0 12-2.462 12-5.5s-5.373-5.5-12-5.5zM18.5 10.5h-8.094c-0.748-0.328-1.563-0.5-2.406-0.5v-5.801c3.748 0.827 5.729 5.108 10.5 6.301zM7.94 20h-3.94v-3h3c1.105 0 2-0.448 2-1s-0.895-1-2-1h-3v-3h4c2.227 0 4.029 1.82 4 4.053-0.028 2.198-1.861 3.947-4.059 3.947zM4 6c0-1.241 0.647-2 1-2h1v6h-2v-4zM4 26v-4h2v6h-1c-0.353 0-1-0.759-1-2zM8 27.801v-5.802c0.825-0.008 1.626-0.179 2.364-0.499h8.136c-4.77 1.193-6.752 5.474-10.5 6.301zM28 19.5h-15.139c1.545-2.116 1.489-4.955 0.013-7h15.125c2.592 0 5.5 0 8 1.5v4c-2.5 1.5-5.403 1.5-8 1.5zM30.501 18.5c-0.277 0-0.501-0.224-0.501-0.5v-4c0-0.276 0.224-0.5 0.501-0.5 2 0 1.998 5 0 5z"></path>
</svg>
