<!-- Generated by IcoMoon.io -->
<svg version="1.1" xmlns="http://www.w3.org/2000/svg" width="32" height="32" viewBox="0 0 32 32">
<title>spade-solid</title>
<path d="M17.031 0.412c-0.581-0.55-1.488-0.55-2.069 0-3 2.862-11.613 11.15-12.963 12.644-1.206 1.331-2 3.088-2 5.037 0 4.406 3.431 7.887 7.719 7.906 2.294 0.006 4.356-0.981 5.781-2.556-0.006 2.288-0.050 3.269-3.275 4.712-0.881 0.394-1.387 1.35-1.169 2.288 0.206 0.906 1.019 1.55 1.95 1.55h9.963c0.969 0 1.825-0.675 2.006-1.625 0.175-0.913-0.3-1.825-1.15-2.2-3.225-1.438-3.3-2.381-3.313-4.725 1.462 1.613 3.594 2.613 5.956 2.55 4.219-0.106 7.544-3.531 7.544-7.75 0-2.012-0.762-3.825-2-5.194-1.363-1.488-9.975-9.775-12.981-12.637z"></path>
</svg>
