<!-- Generated by IcoMoon.io -->
<svg version="1.1" xmlns="http://www.w3.org/2000/svg" width="32" height="32" viewBox="0 0 32 32">
<title>spade</title>
<path d="M29.462 12.519c-0.956-0.869-9.025-8.912-12.050-11.938-0.781-0.781-2.044-0.781-2.825 0-3.025 3.025-11.094 11.063-12.050 11.938-1.594 1.45-2.538 3.506-2.538 5.731 0 4.275 3.475 7.75 7.75 7.75 2.219 0 3.25-0.5 4.75-2 0 1.5-0.606 1.725-1.887 3.337-1.494 1.881-0.15 4.663 2.25 4.663h6.269c2.406 0 3.75-2.781 2.25-4.663-1.188-1.506-1.881-1.837-1.881-3.337 1.5 1.5 3.056 2 4.75 2 4.275 0 7.75-3.475 7.75-7.75 0-2.231-0.95-4.281-2.538-5.731zM24.094 24c-2.563-0.025-3.413-0.706-5.45-2.825-0.231-0.244-0.644-0.075-0.644 0.262v1.563c0 2.538 0 3.288 1.819 5.581 0.456 0.575 0.044 1.419-0.688 1.419h-6.269c-0.731 0-1.144-0.844-0.688-1.419 1.825-2.294 1.825-3.044 1.825-5.581v-1.563c0-0.337-0.412-0.506-0.644-0.262-2.019 2.106-2.869 2.794-5.444 2.825-3.237 0.031-5.938-2.563-5.906-5.8 0.013-1.625 0.712-3.131 1.881-4.2 1.194-1.094 12.113-12 12.113-12s10.919 10.906 12.119 12c1.188 1.081 1.869 2.6 1.881 4.206 0.025 3.238-2.669 5.825-5.906 5.794z"></path>
</svg>
