<!-- Generated by IcoMoon.io -->
<svg version="1.1" xmlns="http://www.w3.org/2000/svg" width="32" height="32" viewBox="0 0 32 32">
<title>sparkles-solid</title>
<path d="M20.276 6.447l3.724 1.553 1.552 3.724c0.084 0.165 0.253 0.277 0.448 0.277s0.364-0.111 0.446-0.274l0.001-0.003 1.552-3.724 3.724-1.553c0.165-0.084 0.276-0.253 0.276-0.447s-0.111-0.363-0.273-0.446l-0.003-0.001-3.724-1.553-1.552-3.724c-0.084-0.166-0.253-0.277-0.448-0.277s-0.364 0.111-0.446 0.274l-0.001 0.003-1.552 3.724-3.724 1.553c-0.165 0.084-0.276 0.253-0.276 0.447s0.111 0.363 0.273 0.446l0.003 0.001zM31.724 25.552l-3.724-1.552-1.552-3.724c-0.084-0.166-0.253-0.277-0.448-0.277s-0.364 0.111-0.446 0.274l-0.001 0.003-1.552 3.724-3.724 1.552c-0.166 0.084-0.277 0.253-0.277 0.448s0.111 0.364 0.274 0.446l0.003 0.001 3.724 1.552 1.552 3.724c0.084 0.166 0.253 0.277 0.448 0.277s0.364-0.111 0.446-0.274l0.001-0.003 1.552-3.724 3.724-1.552c0.166-0.084 0.277-0.253 0.277-0.448s-0.111-0.364-0.274-0.446l-0.003-0.001zM24 15.977c-0-0.389-0.222-0.727-0.547-0.893l-0.006-0.003-7.036-3.524-3.518-7.048c-0.34-0.679-1.449-0.679-1.789 0l-3.518 7.048-7.036 3.524c-0.332 0.167-0.556 0.505-0.556 0.896s0.224 0.729 0.55 0.893l0.006 0.003 7.036 3.524 3.518 7.048c0.168 0.33 0.505 0.553 0.894 0.553s0.727-0.222 0.892-0.547l0.003-0.006 3.518-7.048 7.036-3.523c0.33-0.169 0.552-0.507 0.552-0.897 0-0 0-0 0-0.001v0z"></path>
</svg>
