<!-- Generated by IcoMoon.io -->
<svg version="1.1" xmlns="http://www.w3.org/2000/svg" width="32" height="32" viewBox="0 0 32 32">
<title>sparkles</title>
<path d="M20.552 6.859l3.036 1.52 1.517 3.039c0.168 0.33 0.505 0.553 0.894 0.553s0.727-0.222 0.892-0.547l0.003-0.006 1.518-3.039 3.036-1.52c0.332-0.167 0.555-0.505 0.555-0.896s-0.224-0.728-0.549-0.893l-0.006-0.003-3.036-1.52-1.517-3.039c-0.339-0.678-1.449-0.678-1.789 0l-1.517 3.039-3.036 1.52c-0.332 0.167-0.555 0.505-0.555 0.896s0.224 0.728 0.549 0.893l0.006 0.003zM24.781 5.188c0.194-0.099 0.348-0.253 0.445-0.442l0.003-0.006 0.771-1.544 0.771 1.546c0.099 0.193 0.254 0.347 0.442 0.442l0.006 0.003 1.545 0.774-1.545 0.776c-0.194 0.099-0.348 0.253-0.445 0.442l-0.003 0.006-0.771 1.546-0.771-1.544c-0.099-0.194-0.253-0.348-0.442-0.445l-0.006-0.003-1.545-0.776zM31.448 25.096l-3.036-1.519-1.517-3.039c-0.339-0.679-1.449-0.679-1.789 0l-1.517 3.039-3.036 1.519c-0.332 0.167-0.556 0.505-0.556 0.896s0.224 0.729 0.55 0.893l0.006 0.003 3.036 1.519 1.517 3.039c0.168 0.33 0.505 0.553 0.894 0.553s0.727-0.222 0.892-0.547l0.003-0.006 1.518-3.039 3.036-1.519c0.332-0.167 0.556-0.505 0.556-0.896s-0.224-0.729-0.55-0.893l-0.006-0.003zM27.219 26.765c-0.194 0.099-0.348 0.254-0.445 0.442l-0.003 0.006-0.771 1.546-0.771-1.546c-0.099-0.194-0.253-0.349-0.442-0.445l-0.006-0.003-1.545-0.773 1.545-0.774c0.194-0.099 0.348-0.254 0.445-0.442l0.003-0.006 0.771-1.546 0.771 1.546c0.099 0.194 0.253 0.349 0.442 0.445l0.006 0.003 1.545 0.774zM24 15.977c-0-0.389-0.222-0.727-0.547-0.893l-0.006-0.003-7.036-3.519-3.518-7.048c-0.339-0.679-1.449-0.679-1.789 0l-3.518 7.048-7.036 3.519c-0.332 0.167-0.556 0.505-0.556 0.896s0.224 0.729 0.55 0.893l0.006 0.003 7.036 3.523 3.518 7.044c0.168 0.33 0.505 0.553 0.894 0.553s0.727-0.222 0.892-0.547l0.003-0.006 3.518-7.044 7.036-3.521c0.33-0.169 0.552-0.507 0.552-0.898v0zM15.219 18.754c-0.194 0.099-0.348 0.253-0.445 0.442l-0.003 0.006-2.771 5.552-2.771-5.552c-0.099-0.194-0.253-0.348-0.442-0.445l-0.006-0.003-5.545-2.777 5.545-2.776c0.194-0.099 0.348-0.253 0.445-0.442l0.003-0.006 2.771-5.552 2.771 5.552c0.099 0.194 0.253 0.348 0.442 0.445l0.006 0.003 5.545 2.776z"></path>
</svg>
