<!-- Generated by IcoMoon.io -->
<svg version="1.1" xmlns="http://www.w3.org/2000/svg" width="40" height="32" viewBox="0 0 40 32">
<title>speakers-solid</title>
<path d="M36.938 0h-16c-1.657 0-3 1.343-3 3v0 26c0 1.657 1.343 3 3 3v0h16c1.657 0 3-1.343 3-3v0-26c0-1.657-1.343-3-3-3v0zM28.938 4c1.657 0 3 1.343 3 3s-1.343 3-3 3c-1.657 0-3-1.343-3-3v0c0-1.657 1.343-3 3-3v0zM28.938 28c-3.866 0-7-3.134-7-7s3.134-7 7-7c3.866 0 7 3.134 7 7v0c0 3.866-3.134 7-7 7v0zM28.938 17c-2.209 0-4 1.791-4 4s1.791 4 4 4c2.209 0 4-1.791 4-4v0c0-2.209-1.791-4-4-4v0zM15.938 3c0.004-1.135 0.389-2.179 1.034-3.011l-0.008 0.011h-14.026c-1.657 0-3 1.343-3 3v0 26c0 1.657 1.343 3 3 3v0h14.026c-0.636-0.821-1.021-1.865-1.026-2.999v-3.112c-1.272 1.303-3.047 2.111-5.010 2.111-3.866 0-7-3.134-7-7s3.134-7 7-7c1.963 0 3.738 0.808 5.009 2.11l0.001 0.001zM10.938 10c-1.657 0-3-1.343-3-3s1.343-3 3-3c1.657 0 3 1.343 3 3v0c0 1.657-1.343 3-3 3v0zM6.938 21c0 2.209 1.791 4 4 4s4-1.791 4-4c0-2.209-1.791-4-4-4v0c-2.209 0-4 1.791-4 4v0z"></path>
</svg>
