<!-- Generated by IcoMoon.io -->
<svg version="1.1" xmlns="http://www.w3.org/2000/svg" width="24" height="32" viewBox="0 0 24 32">
<title>speaker-solid</title>
<path d="M12 17c-2.209 0-4 1.791-4 4s1.791 4 4 4c2.209 0 4-1.791 4-4v0c0-2.209-1.791-4-4-4v0zM21 0h-18c-1.657 0-3 1.343-3 3v0 26c0 1.657 1.343 3 3 3v0h18c1.657 0 3-1.343 3-3v0-26c0-1.657-1.343-3-3-3v0zM12 4c1.657 0 3 1.343 3 3s-1.343 3-3 3c-1.657 0-3-1.343-3-3v0c0-1.657 1.343-3 3-3v0zM12 28c-3.866 0-7-3.134-7-7s3.134-7 7-7c3.866 0 7 3.134 7 7v0c0 3.866-3.134 7-7 7v0z"></path>
</svg>
