<!-- Generated by IcoMoon.io -->
<svg version="1.1" xmlns="http://www.w3.org/2000/svg" width="24" height="32" viewBox="0 0 24 32">
<title>speaker</title>
<path d="M12 12c2.209 0 4-1.791 4-4s-1.791-4-4-4c-2.209 0-4 1.791-4 4v0c0 2.209 1.791 4 4 4v0zM12 6c1.105 0 2 0.895 2 2s-0.895 2-2 2c-1.105 0-2-0.895-2-2v0c0-1.105 0.895-2 2-2v0zM12 14c-3.866 0-7 3.134-7 7s3.134 7 7 7c3.866 0 7-3.134 7-7v0c0-3.866-3.134-7-7-7v0zM12 26c-2.761 0-5-2.239-5-5s2.239-5 5-5c2.761 0 5 2.239 5 5v0c-0.003 2.76-2.24 4.997-5 5h-0zM12 19c-1.105 0-2 0.895-2 2s0.895 2 2 2c1.105 0 2-0.895 2-2v0c0-1.105-0.895-2-2-2v0zM21 0h-18c-1.657 0-3 1.343-3 3v0 26c0 1.657 1.343 3 3 3v0h18c1.657 0 3-1.343 3-3v0-26c0-1.657-1.343-3-3-3v0zM22 29c0 0.552-0.448 1-1 1v0h-18c-0.552 0-1-0.448-1-1v0-26c0-0.552 0.448-1 1-1v0h18c0.552 0 1 0.448 1 1v0z"></path>
</svg>
