<!-- Generated by IcoMoon.io -->
<svg version="1.1" xmlns="http://www.w3.org/2000/svg" width="40" height="32" viewBox="0 0 40 32">
<title>speakers</title>
<path d="M37 0h-18c-1.657 0-3 1.343-3 3v0 26c0 1.657 1.343 3 3 3v0h18c1.657 0 3-1.343 3-3v0-26c0-1.657-1.343-3-3-3v0zM38 29c0 0.552-0.448 1-1 1v0h-18c-0.552 0-1-0.448-1-1v0-26c0-0.552 0.448-1 1-1v0h18c0.552 0 1 0.448 1 1v0zM28 14c-3.866 0-7 3.134-7 7s3.134 7 7 7c3.866 0 7-3.134 7-7v0c0-3.866-3.134-7-7-7v0zM28 26c-2.761 0-5-2.239-5-5s2.239-5 5-5c2.761 0 5 2.239 5 5v0c-0.003 2.76-2.24 4.997-5 5h-0zM28 19c-1.105 0-2 0.895-2 2s0.895 2 2 2c1.105 0 2-0.895 2-2v0c0-1.105-0.895-2-2-2v0zM28 12c2.209 0 4-1.791 4-4s-1.791-4-4-4c-2.209 0-4 1.791-4 4v0c0 2.209 1.791 4 4 4v0zM28 6c1.105 0 2 0.895 2 2s-0.895 2-2 2c-1.105 0-2-0.895-2-2v0c0-1.105 0.895-2 2-2v0zM14 14.325c-0.637-0.191-1.3-0.325-2-0.325-3.866 0-7 3.134-7 7s3.134 7 7 7v0c0.7 0 1.363-0.134 2-0.325v-2.099c-0.593 0.268-1.285 0.424-2.014 0.424-2.761 0-5-2.239-5-5s2.239-5 5-5c0.729 0 1.422 0.156 2.046 0.436l-0.032-0.013zM10 21c0 1.105 0.895 2 2 2s2-0.895 2-2c0-1.105-0.895-2-2-2v0c-1.105 0-2 0.895-2 2v0zM15.026 0h-12.026c-1.657 0-3 1.343-3 3v0 26c0 1.657 1.343 3 3 3v0h12.026c-0.437-0.561-0.759-1.234-0.918-1.967l-0.006-0.033h-11.101c-0.552 0-1-0.448-1-1v0-26c0-0.552 0.448-1 1-1v0h11.101c0.165-0.766 0.488-1.439 0.933-2.011l-0.008 0.011zM14 8c0 1.105-0.895 2-2 2s-2-0.895-2-2c0-1.105 0.895-2 2-2v0c1.105 0 2 0.895 2 2v0-3.445c-0.572-0.345-1.261-0.551-1.999-0.555h-0.001c-2.209 0-4 1.791-4 4s1.791 4 4 4v0c0.739-0.004 1.428-0.21 2.018-0.565l-0.018 0.010z"></path>
</svg>
