<!-- Generated by IcoMoon.io -->
<svg version="1.1" xmlns="http://www.w3.org/2000/svg" width="36" height="32" viewBox="0 0 36 32">
<title>spell-check</title>
<path d="M17 16h5.5c0 0 0 0 0 0 2.485 0 4.5-2.015 4.5-4.5 0-1.79-1.045-3.336-2.559-4.061l-0.027-0.012c0.673-0.782 1.082-1.807 1.082-2.928 0-2.484-2.013-4.498-4.497-4.5h-4c-0.552 0-1 0.448-1 1v0 14c0 0.552 0.448 1 1 1v0zM18 2h3c1.381 0 2.5 1.119 2.5 2.5s-1.119 2.5-2.5 2.5v0h-3zM18 9h4.5c1.381 0 2.5 1.119 2.5 2.5s-1.119 2.5-2.5 2.5v0h-4.5zM14.004 15.334l-5.563-14.667c-0.141-0.392-0.509-0.666-0.942-0.667h-1c-0 0-0 0-0 0-0.433 0-0.801 0.275-0.941 0.66l-0.002 0.007-5.563 14.667c-0.018 0.050-0.028 0.107-0.028 0.166 0 0.276 0.224 0.5 0.5 0.5 0 0 0.001 0 0.001 0h1.062c0.216-0 0.4-0.138 0.47-0.33l0.001-0.003 1.784-4.666h6.433l1.784 4.666c0.071 0.196 0.255 0.334 0.472 0.334 0 0 0 0 0 0h1.062c0.275-0.001 0.498-0.224 0.498-0.5 0-0.060-0.010-0.117-0.030-0.17l0.001 0.003zM4.549 9l2.451-6.412 2.451 6.412zM35.767 17.438l-0.705-0.705c-0.136-0.136-0.324-0.221-0.531-0.221s-0.395 0.084-0.531 0.221l-0 0-11.825 12.043-6.188-6.188c-0.136-0.136-0.324-0.221-0.531-0.221s-0.395 0.084-0.531 0.221l-0.707 0.707c-0.136 0.136-0.221 0.324-0.221 0.531s0.084 0.395 0.221 0.531l7.426 7.423c0.136 0.136 0.324 0.221 0.531 0.221s0.395-0.084 0.531-0.221l0-0 13.061-13.28c0.136-0.136 0.221-0.324 0.221-0.531s-0.084-0.395-0.221-0.531l-0-0z"></path>
</svg>
