<!-- Generated by IcoMoon.io -->
<svg version="1.1" xmlns="http://www.w3.org/2000/svg" width="36" height="32" viewBox="0 0 36 32">
<title>spell-check-solid</title>
<path d="M17 16h5.71c2.7 0 5.125-2.012 5.282-4.709 0.005-0.087 0.009-0.19 0.009-0.293 0-1.439-0.61-2.736-1.584-3.647l-0.003-0.003c0.37-0.68 0.587-1.489 0.587-2.348 0-0.161-0.008-0.321-0.023-0.479l0.002 0.020c-0.236-2.632-2.648-4.543-5.292-4.543h-4.688c-0.552 0-1 0.448-1 1v0 14c0 0.552 0.448 1 1 1v0zM19.5 3.5h2.5c0.828 0 1.5 0.672 1.5 1.5s-0.672 1.5-1.5 1.5v0h-2.5zM19.5 9.5h3.5c0.828 0 1.5 0.672 1.5 1.5s-0.672 1.5-1.5 1.5v0h-3.5zM9.695 1.391c-0.266-0.813-1.018-1.391-1.905-1.391-0 0-0 0-0 0h-1.58c-0 0-0 0-0 0-0.887 0-1.639 0.577-1.901 1.377l-0.004 0.014-4.268 13.342c-0.023 0.080-0.036 0.172-0.036 0.267 0 0.552 0.447 1 0.999 1h1.558c0 0 0 0 0 0 0.457 0 0.843-0.307 0.962-0.726l0.002-0.007 0.746-2.267h5.464l0.746 2.267c0.121 0.426 0.506 0.733 0.964 0.733 0 0 0 0 0 0h1.558c0 0 0 0 0 0 0.552 0 1-0.448 1-1 0-0.095-0.013-0.187-0.038-0.274l0.002 0.007zM5.586 9l1.414-4.294 1.414 4.294zM35.711 17.28l-2.826-2.831c-0.18-0.182-0.43-0.295-0.706-0.295s-0.526 0.113-0.706 0.295l-9.469 9.469-3.463-3.469c-0.18-0.182-0.43-0.295-0.706-0.295s-0.526 0.113-0.706 0.295l-2.831 2.831c-0.18 0.181-0.292 0.43-0.292 0.706s0.111 0.525 0.292 0.706l-0-0 7 7.013c0.18 0.182 0.43 0.295 0.706 0.295s0.526-0.113 0.706-0.295l0-0 13-13.013c0.18-0.181 0.291-0.43 0.291-0.705s-0.112-0.526-0.292-0.707v0z"></path>
</svg>
