<!-- Generated by IcoMoon.io -->
<svg version="1.1" xmlns="http://www.w3.org/2000/svg" width="36" height="32" viewBox="0 0 36 32">
<title>spider-web-solid</title>
<path d="M35.447 14.616c-3.534-3.707-6.12-8.227-7.535-13.169l-0.001-0.004c-0.295-1.030-1.344-1.641-2.375-1.384l-0.004 0.001c-2.261 0.588-4.857 0.926-7.532 0.926s-5.271-0.338-7.748-0.973l0.216 0.047-0.004-0.001c-1.031-0.258-2.080 0.354-2.375 1.384l-0.001 0.004c-1.414 4.942-4.001 9.462-7.534 13.169-0.737 0.773-0.737 1.995 0 2.768 3.534 3.707 6.12 8.227 7.535 13.169l0.001 0.004c0.295 1.030 1.344 1.641 2.375 1.384l0.004-0.001c2.261-0.588 4.857-0.926 7.532-0.926s5.271 0.338 7.748 0.973l-0.215-0.047 0.004 0.001c1.031 0.257 2.080-0.354 2.375-1.384l0.002-0.008c1.414-4.94 3.999-9.457 7.531-13.164l0.002-0.003c0.737-0.773 0.737-1.995 0-2.768zM22.846 4.607l-1.47 2.546c-1.015 0.221-2.181 0.348-3.376 0.348s-2.361-0.127-3.485-0.367l0.109 0.019-1.47-2.546c1.456 0.213 3.137 0.335 4.846 0.335s3.39-0.122 5.034-0.357l-0.188 0.022zM18 13.001l-1.464-2.536c0.438 0.035 0.949 0.055 1.464 0.055s1.026-0.020 1.531-0.059l-0.067 0.004-1.464 2.536zM18.902 14.5h-0.036l-0.018-0.031 0.054 0.031zM18 18.999l1.465 2.537c-0.488-0.036-0.976-0.062-1.465-0.062s-0.977 0.026-1.465 0.062l1.465-2.537zM13.938 11.963l1.464 2.537h-2.929c0.551-0.808 1.041-1.656 1.465-2.537zM10.601 25.816c-1.31-3.176-2.912-5.917-4.832-8.399l0.061 0.083h2.819c1.514 1.694 2.666 3.69 3.376 5.848l-1.425 2.469zM8.65 14.5h-2.819c1.858-2.4 3.46-5.14 4.682-8.079l0.088-0.238 1.426 2.469c-0.759 2.263-1.911 4.212-3.39 5.863l0.014-0.016zM15.402 17.5l-1.464 2.537c-0.477-0.983-0.964-1.814-1.508-2.603l0.043 0.066h2.929zM18 27.017c-1.622 0-3.239 0.152-4.846 0.376l1.47-2.546c2.224-0.464 4.528-0.464 6.752 0l1.47 2.546c-1.608-0.224-3.224-0.376-4.846-0.376zM22.063 20.037l-1.464-2.537h2.929c-0.5 0.723-0.988 1.554-1.414 2.421l-0.051 0.116zM20.598 14.5l1.465-2.537c0.477 0.983 0.964 1.814 1.508 2.603l-0.043-0.066h-2.93zM25.399 25.816l-1.426-2.469c0.709-2.157 1.863-4.153 3.376-5.848h2.819c-1.858 2.4-3.46 5.14-4.682 8.079l-0.088 0.238zM27.35 14.5c-1.465-1.635-2.618-3.584-3.342-5.731l-0.034-0.117 1.426-2.469c1.31 3.176 2.912 5.917 4.831 8.399l-0.061-0.083h-2.819z"></path>
</svg>
