<!-- Generated by IcoMoon.io -->
<svg version="1.1" xmlns="http://www.w3.org/2000/svg" width="36" height="32" viewBox="0 0 36 32">
<title>spider-black-widow-solid</title>
<path d="M23.893 1.633c-0.174-0.524 0.108-1.090 0.633-1.265l0.948-0.316c0.524-0.175 1.091 0.108 1.265 0.632l1.618 4.855c0.065 0.189 0.103 0.406 0.103 0.633 0 0.326-0.078 0.634-0.216 0.906l0.005-0.011-1.697 3.394-1.621 0.54h-0.292l-0.326-1.633c-0.044-0.224-0.113-0.474-0.201-0.737l1.268-2.536-1.488-4.461zM9.448 10.459l1.621 0.541h0.292l0.326-1.633c0.045-0.224 0.113-0.474 0.201-0.737l-1.268-2.536 1.488-4.462c0.174-0.524-0.108-1.090-0.633-1.265l-0.948-0.316c-0.524-0.175-1.091 0.108-1.265 0.632l-1.618 4.855c-0.065 0.189-0.103 0.406-0.103 0.633 0 0.326 0.078 0.634 0.216 0.906l-0.005-0.011 1.697 3.394zM35.554 23.223l-0.832 0.555c-0.459 0.306-1.081 0.182-1.387-0.277l-3-4.5h-2.941l3.802 6.083c0.191 0.301 0.304 0.667 0.304 1.059 0 0 0 0 0 0.001v-0 4.857c0 0.552-0.448 1-1 1h-1c-0.552 0-1-0.448-1-1v-4.569l-4.63-7.408c0.063 0.878 0.13 1.757 0.13 2.638 0 3.317-2.547 6.339-6 6.339s-6-3.023-6-6.339c0-0.881 0.068-1.76 0.13-2.638l-4.63 7.408v4.569c0 0.552-0.447 1-1 1h-1c-0.553 0-1-0.448-1-1v-4.857c0-0.375 0.106-0.742 0.304-1.060l3.802-6.083h-2.941l-3 4.5c-0.306 0.459-0.927 0.584-1.387 0.277l-0.832-0.555c-0.459-0.306-0.584-0.927-0.278-1.387l3.297-4.945c0.364-0.54 0.973-0.891 1.664-0.891 0 0 0 0 0 0h4.871l-4.312-1.523c-0.431-0.147-0.786-0.423-1.027-0.781l-0.005-0.007-3.35-5.026c-0.306-0.459-0.182-1.081 0.278-1.387l0.832-0.555c0.459-0.306 1.081-0.182 1.387 0.277l3.16 4.739 3.781 1.261h2.256l0.648-3.241c0.137-0.686 1.086-3.759 4.352-3.759s4.215 3.074 4.352 3.759l0.648 3.241h2.256l3.781-1.261 3.161-4.739c0.306-0.459 0.927-0.584 1.387-0.277l0.832 0.555c0.459 0.306 0.584 0.927 0.278 1.387l-3.35 5.026c-0.246 0.366-0.601 0.642-1.018 0.784l-0.014 0.004-4.312 1.522h4.871c0.669 0 1.293 0.334 1.664 0.891l3.297 4.945c0.306 0.46 0.182 1.081-0.278 1.387zM18.75 20l1.65-2.2c0.247-0.329 0.012-0.8-0.4-0.8h-4c-0.412 0-0.648 0.471-0.4 0.8l1.65 2.2-1.65 2.2c-0.248 0.329-0.012 0.8 0.4 0.8h4c0.412 0 0.648-0.471 0.4-0.8l-1.65-2.2z"></path>
</svg>
