<!-- Generated by IcoMoon.io -->
<svg version="1.1" xmlns="http://www.w3.org/2000/svg" width="36" height="32" viewBox="0 0 36 32">
<title>spider-web</title>
<path d="M35.726 15.314c-3.859-4.087-6.719-9.131-8.264-14.586-0.148-0.521-0.677-0.831-1.207-0.698-5.402 1.361-11.109 1.361-16.511 0-0.531-0.132-1.059 0.177-1.207 0.698-1.545 5.455-4.404 10.499-8.264 14.586-0.365 0.385-0.365 0.988 0 1.373 3.859 4.087 6.719 9.131 8.264 14.586 0.148 0.519 0.676 0.827 1.207 0.698 5.402-1.361 11.109-1.361 16.511 0 0.082 0.021 0.164 0.030 0.244 0.030 0.438 0 0.838-0.288 0.963-0.727 1.545-5.455 4.404-10.499 8.264-14.586 0.364-0.385 0.364-0.988-0.001-1.373zM32.837 15.001h-4.365c-1.967-2.213-3.446-4.867-4.327-7.736l2.151-3.765c1.484 4.2 3.703 8.104 6.541 11.501zM16.276 15.001h-6.169c1.201-1.568 2.23-3.362 3.006-5.285l0.055-0.154 3.108 5.439zM14.786 8.358c2.131 0.329 4.298 0.329 6.429 0l-3.214 5.625-3.214-5.625zM16.276 17.001l-3.108 5.439c-0.831-2.077-1.86-3.871-3.101-5.494l0.040 0.055h6.169zM18 18.017l3.214 5.626c-1.065-0.164-2.137-0.274-3.214-0.274s-2.149 0.109-3.214 0.274l3.214-5.626zM19.724 17.001h6.168c-1.201 1.568-2.23 3.362-3.006 5.285l-0.055 0.154-3.107-5.439zM19.724 15.001l3.108-5.439c0.771 1.951 1.802 3.782 3.061 5.439h-6.169zM24.626 2.389l-2.107 3.687c-2.961 0.724-6.076 0.724-9.037 0l-2.107-3.687c1.992 0.393 4.282 0.618 6.625 0.618s4.633-0.225 6.851-0.654l-0.225 0.036zM9.704 3.499l2.151 3.765c-0.881 2.87-2.361 5.524-4.327 7.736h-4.365c2.838-3.397 5.057-7.301 6.541-11.501zM3.163 17.001h4.365c1.967 2.212 3.446 4.867 4.327 7.736l-2.151 3.765c-1.484-4.2-3.703-8.105-6.541-11.501zM11.375 29.612l2.107-3.687c2.961-0.724 6.076-0.724 9.037 0l2.106 3.687c-2.188-0.412-4.402-0.663-6.625-0.663s-4.438 0.251-6.625 0.663zM26.296 28.501l-2.151-3.765c0.881-2.87 2.361-5.524 4.327-7.736h4.365c-2.838 3.397-5.057 7.302-6.541 11.501z"></path>
</svg>
