<!-- Generated by IcoMoon.io -->
<svg version="1.1" xmlns="http://www.w3.org/2000/svg" width="36" height="32" viewBox="0 0 36 32">
<title>spider</title>
<path d="M35.919 22.031l-3.425-5.137c-0.369-0.556-0.994-0.887-1.663-0.887h-7.113l5.631-1.875c0.425-0.144 0.788-0.419 1.031-0.787l3.531-5.3c0.156-0.231 0.094-0.537-0.138-0.694l-0.831-0.556c-0.231-0.156-0.538-0.094-0.694 0.138l-3.438 5.156c-0.063 0.094-0.15 0.162-0.256 0.194l-5.194 1.731 3.319-6.638c0.363-0.713 0.419-1.531 0.163-2.294l-1.581-4.737c-0.087-0.263-0.369-0.406-0.631-0.319l-0.95 0.319c-0.262 0.088-0.406 0.369-0.319 0.631l1.581 4.737c0.087 0.25 0.069 0.525-0.056 0.763l-2.281 4.569-0.256-1.281c-0.137-0.688-1.087-3.756-4.35-3.756s-4.213 3.075-4.35 3.756l-0.256 1.281-2.281-4.569c-0.119-0.237-0.144-0.513-0.056-0.763l1.581-4.737c0.088-0.262-0.056-0.544-0.319-0.631l-0.95-0.319c-0.262-0.087-0.544 0.056-0.631 0.319l-1.581 4.737c-0.256 0.763-0.194 1.575 0.162 2.294l3.319 6.637-5.194-1.731c-0.106-0.037-0.194-0.106-0.256-0.194l-3.438-5.156c-0.15-0.231-0.462-0.294-0.694-0.138l-0.831 0.556c-0.231 0.15-0.294 0.463-0.138 0.694l3.531 5.3c0.244 0.369 0.612 0.65 1.031 0.787l5.631 1.875h-7.106c-0.669 0-1.294 0.331-1.663 0.887l-3.431 5.137c-0.156 0.231-0.094 0.538 0.138 0.694l0.831 0.556c0.231 0.156 0.538 0.094 0.694-0.137l3.275-4.919c0.094-0.137 0.25-0.225 0.419-0.225h6.381l-4.362 6.981c-0.3 0.475-0.456 1.025-0.456 1.594v4.925c0 0.275 0.225 0.5 0.5 0.5h1c0.275 0 0.5-0.225 0.5-0.5v-5.069c0-0.094 0.025-0.188 0.075-0.262l2.931-4.694c0 0.063-0.012 0.125-0.012 0.188 0 3.319 2.55 6.337 6 6.337s6-3.025 6-6.337c0-0.063-0.006-0.125-0.006-0.188l2.931 4.694c0.050 0.081 0.075 0.169 0.075 0.262v5.069c0 0.275 0.225 0.5 0.5 0.5h1c0.275 0 0.5-0.225 0.5-0.5v-4.925c0-0.563-0.156-1.113-0.456-1.594l-4.356-6.981h6.381c0.169 0 0.325 0.081 0.419 0.225l3.275 4.919c0.15 0.231 0.462 0.294 0.694 0.137l0.831-0.556c0.225-0.156 0.288-0.469 0.138-0.694zM18 26c-2.469 0-4-2.25-4-4.337 0-2.3 0.231-4.606 0.681-6.856l0.931-4.65c0.044-0.219 0.488-2.15 2.387-2.15s2.344 1.931 2.387 2.15l0.931 4.65c0.45 2.256 0.681 4.556 0.681 6.856 0 2.087-1.531 4.337-4 4.337z"></path>
</svg>
