<!-- Generated by IcoMoon.io -->
<svg version="1.1" xmlns="http://www.w3.org/2000/svg" width="36" height="32" viewBox="0 0 36 32">
<title>spider-solid</title>
<path d="M9.448 10.459l1.621 0.541h0.292l0.326-1.633c0.045-0.224 0.113-0.474 0.201-0.737l-1.268-2.536 1.488-4.462c0.174-0.524-0.108-1.090-0.633-1.265l-0.948-0.316c-0.524-0.175-1.091 0.108-1.265 0.632l-1.618 4.855c-0.065 0.189-0.103 0.406-0.103 0.633 0 0.326 0.078 0.634 0.216 0.906l-0.005-0.011 1.697 3.394zM35.832 21.836l-3.297-4.945c-0.364-0.54-0.973-0.89-1.664-0.891h-4.871l4.312-1.523c0.431-0.147 0.786-0.423 1.027-0.781l0.005-0.007 3.35-5.026c0.306-0.459 0.182-1.081-0.278-1.387l-0.832-0.555c-0.459-0.306-1.081-0.182-1.387 0.277l-3.16 4.739-3.781 1.261h-2.256l-0.648-3.241c-0.137-0.686-1.086-3.759-4.352-3.759s-4.215 3.074-4.352 3.759l-0.648 3.241h-2.256l-3.781-1.261-3.161-4.739c-0.306-0.459-0.927-0.584-1.387-0.277l-0.832 0.555c-0.459 0.306-0.584 0.927-0.278 1.387l3.35 5.026c0.246 0.366 0.601 0.642 1.018 0.784l0.014 0.004 4.312 1.522h-4.871c-0.691 0-1.3 0.351-1.66 0.884l-0.005 0.007-3.296 4.946c-0.306 0.459-0.182 1.081 0.278 1.387l0.832 0.555c0.459 0.306 1.081 0.182 1.387-0.277l3-4.5h2.941l-3.802 6.083c-0.191 0.301-0.304 0.667-0.304 1.059 0 0 0 0 0 0.001v-0 4.856c0 0.552 0.447 1 1 1h1c0.553 0 1-0.448 1-1v-4.569l4.63-7.408c-0.063 0.878-0.13 1.757-0.13 2.638 0 3.317 2.547 6.339 6 6.339s6-3.023 6-6.339c0-0.881-0.067-1.76-0.13-2.638l4.63 7.408v4.569c0 0.552 0.448 1 1 1h1c0.552 0 1-0.448 1-1v-4.857c0-0.375-0.106-0.742-0.304-1.060l-3.802-6.083h2.941l3 4.5c0.306 0.459 0.928 0.584 1.387 0.277l0.832-0.555c0.46-0.306 0.584-0.927 0.278-1.386zM25.381 6.094l-1.268 2.536c0.088 0.263 0.156 0.513 0.201 0.737l0.326 1.633h0.292l1.621-0.541 1.697-3.394c0.133-0.26 0.211-0.568 0.211-0.894 0-0.226-0.038-0.444-0.107-0.647l0.004 0.014-1.618-4.855c-0.174-0.524-0.741-0.807-1.265-0.632l-0.948 0.316c-0.524 0.175-0.807 0.741-0.633 1.265l1.488 4.462z"></path>
</svg>
