<!-- Generated by IcoMoon.io -->
<svg version="1.1" xmlns="http://www.w3.org/2000/svg" width="32" height="32" viewBox="0 0 32 32">
<title>spinner</title>
<path d="M18 2c0 1.105-0.895 2-2 2s-2-0.895-2-2 0.895-2 2-2 2 0.895 2 2zM16 28c-1.105 0-2 0.895-2 2s0.895 2 2 2 2-0.895 2-2-0.895-2-2-2zM32 16c0-1.105-0.895-2-2-2s-2 0.895-2 2 0.895 2 2 2 2-0.895 2-2zM4 16c0-1.105-0.895-2-2-2s-2 0.895-2 2 0.895 2 2 2 2-0.895 2-2zM6.101 23.899c-1.105 0-2 0.895-2 2s0.895 2 2 2 2-0.895 2-2-0.895-2-2-2zM25.899 23.899c-1.105 0-2 0.895-2 2s0.895 2 2 2 2-0.895 2-2-0.895-2-2-2zM6.101 4.101c-1.105 0-2 0.895-2 2s0.895 2 2 2 2-0.895 2-2c0-1.105-0.895-2-2-2z"></path>
</svg>
