<!-- Generated by IcoMoon.io -->
<svg version="1.1" xmlns="http://www.w3.org/2000/svg" width="32" height="32" viewBox="0 0 32 32">
<title>splotch-solid</title>
<path d="M29.518 12.243l-4.191-1.434c-1.205-0.412-2.096-1.308-2.384-2.394l-0.999-3.778c-0.724-2.736-4.786-3.571-6.874-1.414l-2.884 2.979c-0.829 0.857-2.096 1.308-3.387 1.207l-4.492-0.351c-3.253-0.254-5.433 2.805-3.689 5.177l2.409 3.276c0.692 0.942 0.801 2.116 0.29 3.14l-1.777 3.561c-1.287 2.578 1.428 5.304 4.593 4.613l4.372-0.955c1.257-0.274 2.591 0 3.567 0.733l3.395 2.552c2.457 1.848 6.315 0.473 6.528-2.326l0.294-3.866c0.084-1.112 0.8-2.116 1.914-2.687l3.875-1.984c2.805-1.435 2.474-5.011-0.559-6.049z"></path>
</svg>
