<!-- Generated by IcoMoon.io -->
<svg version="1.1" xmlns="http://www.w3.org/2000/svg" width="32" height="32" viewBox="0 0 32 32">
<title>splotch</title>
<path d="M28.996 11.568l-3.932-1.332c-0.811-0.276-1.406-0.849-1.588-1.533l-0.938-3.509c-0.391-1.461-1.594-2.588-3.221-3.014-1.802-0.474-3.684 0.011-4.904 1.261l-2.703 2.768c-0.572 0.586-1.473 0.899-2.383 0.822l-4.215-0.326c-1.963-0.151-3.777 0.759-4.635 2.316-0.731 1.323-0.619 2.851 0.297 4.085l2.258 3.043c0.426 0.573 0.493 1.254 0.182 1.869l-1.666 3.308c-0.668 1.326-0.516 2.829 0.406 4.021 1.117 1.441 3.076 2.102 5.004 1.689l4.099-0.886c0.899-0.193 1.848-0.007 2.535 0.505l3.184 2.37c0.867 0.646 1.939 0.977 3.026 0.977 0.738 0 1.483-0.153 2.17-0.467 1.465-0.667 2.406-1.936 2.519-3.396l0.276-3.591c0.051-0.681 0.517-1.308 1.25-1.679l3.631-1.843c1.559-0.788 2.455-2.264 2.342-3.849-0.114-1.641-1.262-3.023-2.993-3.61zM28.744 17.241l-3.631 1.843c-1.361 0.689-2.236 1.927-2.342 3.311l-0.276 3.59c-0.078 1.041-0.971 1.556-1.352 1.729-1.049 0.476-2.293 0.361-3.172-0.294l-3.184-2.37c-0.854-0.636-1.934-0.976-3.033-0.976-0.375 0-0.75 0.039-1.119 0.119l-4.099 0.886c-1.434 0.311-2.51-0.324-3-0.959-0.262-0.338-0.637-1.034-0.203-1.896l1.666-3.307c0.654-1.297 0.519-2.778-0.361-3.963l-2.258-3.042c-0.607-0.818-0.356-1.558-0.152-1.927 0.482-0.873 1.578-1.367 2.731-1.288l4.213 0.326c1.521 0.115 2.986-0.413 3.969-1.419l2.703-2.767c0.711-0.728 1.879-1.012 2.967-0.724 0.922 0.241 1.594 0.838 1.795 1.596l0.938 3.509c0.358 1.333 1.434 2.421 2.881 2.912l3.928 1.332c0.971 0.329 1.586 1.022 1.644 1.856 0.056 0.78-0.411 1.499-1.251 1.924z"></path>
</svg>
