<!-- Generated by IcoMoon.io -->
<svg version="1.1" xmlns="http://www.w3.org/2000/svg" width="32" height="32" viewBox="0 0 32 32">
<title>spray-can</title>
<path d="M14 8v-6c0-1.104-0.896-2-2-2h-4c-1.104 0-2 0.896-2 2v6c-3.314 0-6 2.686-6 6v16c0 1.104 0.896 2 2 2h16c1.104 0 2-0.896 2-2v-16c0-3.314-2.686-6-6-6zM8 2h4v6h-4v-6zM18 30h-16v-16c0-2.206 1.794-4 4-4h8c2.206 0 4 1.794 4 4v16zM10 15c-2.761 0-5 2.239-5 5s2.239 5 5 5 5-2.239 5-5-2.239-5-5-5zM10 23c-1.654 0-3-1.346-3-3s1.346-3 3-3 3 1.346 3 3-1.346 3-3 3zM30.5 5c0.828 0 1.5-0.672 1.5-1.5s-0.672-1.5-1.5-1.5-1.5 0.671-1.5 1.5c0 0.828 0.672 1.5 1.5 1.5zM30.5 8c-0.828 0-1.5 0.671-1.5 1.5s0.672 1.5 1.5 1.5 1.5-0.672 1.5-1.5c0-0.829-0.672-1.5-1.5-1.5zM24.5 2c-0.828 0-1.5 0.671-1.5 1.5s0.672 1.5 1.5 1.5 1.5-0.672 1.5-1.5c0-0.829-0.672-1.5-1.5-1.5zM24.5 8c-0.828 0-1.5 0.671-1.5 1.5s0.672 1.5 1.5 1.5 1.5-0.672 1.5-1.5c0-0.829-0.672-1.5-1.5-1.5zM18.5 2c-0.828 0-1.5 0.671-1.5 1.5s0.672 1.5 1.5 1.5 1.5-0.672 1.5-1.5c0-0.829-0.672-1.5-1.5-1.5zM30.5 14c-0.828 0-1.5 0.671-1.5 1.5s0.672 1.5 1.5 1.5 1.5-0.672 1.5-1.5c0-0.829-0.672-1.5-1.5-1.5z"></path>
</svg>
