<!-- Generated by IcoMoon.io -->
<svg version="1.1" xmlns="http://www.w3.org/2000/svg" width="32" height="32" viewBox="0 0 32 32">
<title>square-root</title>
<path d="M10.008 29.831c-0.594-0.226-1.055-0.714-1.322-1.291l-5.058-10.958c-0.164-0.354-0.518-0.581-0.908-0.581h-2.221c-0.276 0-0.5-0.224-0.5-0.5v-1c0-0.276 0.224-0.5 0.5-0.5h2.221c1.164 0 2.234 0.684 2.724 1.742l5.082 11.012c0.144 0.323 0.695 0.274 0.791-0.068l6.319-23.466c0.349-1.308 1.541-2.221 2.896-2.221h10.967c0.276 0 0.5 0.224 0.5 0.5v1c0 0.276-0.224 0.5-0.5 0.5h-10.967c-0.451 0-0.849 0.304-0.965 0.739l-6.32 23.468c-0.363 1.342-1.814 2.168-3.24 1.624z"></path>
</svg>
