<!-- Generated by IcoMoon.io -->
<svg version="1.1" xmlns="http://www.w3.org/2000/svg" width="36" height="32" viewBox="0 0 36 32">
<title>square-root-alt-solid</title>
<path d="M35.707 15.707l-1.414-1.414c-0.391-0.391-1.024-0.391-1.414 0l-2.879 2.879-2.879-2.879c-0.391-0.391-1.024-0.391-1.414 0l-1.414 1.414c-0.391 0.391-0.391 1.024 0 1.414l2.879 2.879-2.879 2.879c-0.391 0.391-0.391 1.024 0 1.414l1.414 1.414c0.391 0.391 1.024 0.391 1.414 0l2.879-2.879 2.879 2.879c0.391 0.391 1.024 0.391 1.414 0l1.414-1.414c0.391-0.391 0.391-1.024 0-1.414l-2.879-2.879 2.879-2.879c0.391-0.391 0.391-1.024 0-1.414zM34.5 0h-15.272c-0.909 0-1.704 0.613-1.934 1.492l-5.299 20.175-3.651-6.631c-0.347-0.622-1.001-1.035-1.752-1.036h-5.092c-0.828 0-1.5 0.671-1.5 1.5v3c0 0.828 0.672 1.5 1.5 1.5h2.726l5.555 10.233c0.781 1.236 1.863 1.767 3.027 1.767 1.079 0 2.777-0.563 3.393-2.593l6.113-23.407h12.186c0.828 0 1.5-0.672 1.5-1.5v-3c0-0.829-0.672-1.5-1.5-1.5z"></path>
</svg>
