<!-- Generated by IcoMoon.io -->
<svg version="1.1" xmlns="http://www.w3.org/2000/svg" width="32" height="32" viewBox="0 0 32 32">
<title>square-root-alt</title>
<path d="M31.823 15.561l-3.44 3.439 3.439 3.439c0.195 0.195 0.195 0.512 0 0.707l-0.707 0.707c-0.195 0.195-0.512 0.195-0.707 0l-3.439-3.439-3.439 3.439c-0.195 0.195-0.512 0.195-0.707 0l-0.707-0.707c-0.195-0.195-0.195-0.512 0-0.707l3.439-3.439-3.439-3.439c-0.195-0.195-0.195-0.512 0-0.707l0.707-0.707c0.195-0.195 0.512-0.195 0.707 0l3.439 3.439 3.439-3.439c0.195-0.195 0.512-0.195 0.707 0l0.707 0.707c0.196 0.195 0.196 0.511 0.001 0.707zM13.248 28.207l6.32-23.468c0.115-0.436 0.514-0.739 0.965-0.739h10.967c0.276 0 0.5-0.224 0.5-0.5v-1c0-0.276-0.224-0.5-0.5-0.5h-10.967c-1.356 0-2.547 0.913-2.896 2.221l-6.319 23.466c-0.096 0.343-0.646 0.391-0.791 0.068l-5.082-11.012c-0.49-1.058-1.56-1.742-2.724-1.742h-2.221c-0.276 0-0.5 0.224-0.5 0.5v1c0 0.276 0.224 0.5 0.5 0.5h2.221c0.39 0 0.745 0.227 0.908 0.581l5.058 10.958c0.266 0.578 0.727 1.065 1.322 1.291 1.426 0.544 2.877-0.282 3.24-1.624z"></path>
</svg>
