<!-- Generated by IcoMoon.io -->
<svg version="1.1" xmlns="http://www.w3.org/2000/svg" width="32" height="32" viewBox="0 0 32 32">
<title>squirrel</title>
<path d="M25 10c0.552 0 1-0.447 1-1s-0.448-1-1-1-1 0.447-1 1 0.448 1 1 1zM28.984 26.137c0.638-1.031 1.016-2.114 1.016-3.137 0-2.133-1.805-4.416-4.799-4.904l0.619-3.096h3.17c1.801 0 3.010-1.378 3.010-3.429 0-3.738-2.664-6.948-6.010-7.49v-2.081h-1c-3.133 0-5.256 2.567-6.586 5.004-1.469-3.803-5.462-7.004-9.405-7.004-4.963 0-9 4.037-9 9 0 4.441 3.234 8.142 7.471 8.87l-0.857 1.776c-0.406 1.074-0.613 2.161-0.613 3.231 0 5.031 4.092 9.124 9.123 9.124h14.877c1.105 0 2-0.896 2-2 0-1.864-1.288-3.421-3.016-3.863zM15.123 30c-3.928 0-7.123-3.196-7.123-7.124 0-0.826 0.162-1.675 0.449-2.441l2.144-4.436h-1.349c-3.558 0-6.732-2.549-7.186-6.077-0.549-4.269 2.778-7.923 6.941-7.923 3.889 0 8 4.112 8 8l-3.731 9.154c-0.106 0.255 0.014 0.547 0.269 0.654l0.924 0.385c0.255 0.106 0.547-0.014 0.654-0.269l4.779-11.476c0.715-1.43 2.123-3.693 4.096-4.296v1.848h1c2.668 0 5.010 2.604 5.010 5.571 0 0.533-0.131 1.429-1.010 1.429h-4.811l-1.401 7h1.221c2.471 0 4 1.558 4 3 0 0.929-0.527 2.024-1.391 3h-2.109c-0.276 0-0.5 0.224-0.5 0.5v1c0 0.276 0.224 0.5 0.5 0.5h3.5c1.104 0 2 0.898 2 2h-14.877z"></path>
</svg>
