<!-- Generated by IcoMoon.io -->
<svg version="1.1" xmlns="http://www.w3.org/2000/svg" width="32" height="32" viewBox="0 0 32 32">
<title>squirrel-solid</title>
<path d="M29.991 28h-1.933c1.137-1.15 1.933-2.633 1.933-4 0-1.659-1.38-3.301-2.991-3.818v-6.182h2.991c1.275 0 2.231-1.182 1.964-2.429-0.652-3.044-2.785-5.571-5.963-5.571v-2c-3.001 0-4.639 3.921-5.587 6.768l-4.084 12.282c-0.087 0.262-0.37 0.404-0.632 0.317l-0.949-0.316c-0.262-0.087-0.404-0.37-0.317-0.633l2.158-6.491c2.951-8.873-3.196-15.929-8.583-15.929-4.417 0-7.997 3.582-7.997 8s3.581 8 7.997 8c0.017 0 0.033-0.005 0.049-0.005-1.308 1.729-2.098 3.872-2.046 6.221 0.121 5.526 4.99 9.784 10.516 9.784h14.474c0.552 0 0.999-0.448 0.999-1v-1c0-1.104-0.895-2-1.999-2zM26.992 9c0.552 0 0.999 0.447 0.999 1s-0.448 1-0.999 1-1-0.447-1-1 0.448-1 1-1z"></path>
</svg>
