<!-- Generated by IcoMoon.io -->
<svg version="1.1" xmlns="http://www.w3.org/2000/svg" width="32" height="32" viewBox="0 0 32 32">
<title>staff-solid</title>
<path d="M27 0h-4.764c-1.894 0-3.625 1.070-4.472 2.764l-1 2c-0.247 0.494-0.047 1.094 0.447 1.341l3.578 1.789c0.494 0.247 1.094 0.047 1.342-0.447l0.724-1.447h3.146v4.738l-9.831 2.809c-1.869 0.545-3.471 1.514-4.757 2.799l-1.655 1.655h-2.758c-0.553 0-1 0.448-1 1v2.758l-5.561 5.561c-0.586 0.586-0.586 1.536 0 2.121l2.121 2.121c0.586 0.586 1.536 0.586 2.121 0l10.972-10.972c0.585-0.585 1.313-1.025 2.128-1.264l0.035-0.009 5.301-1.515 2.016 1.164c0.478 0.276 1.090 0.112 1.366-0.366l1.219-2.113 0.654-0.187c2.146-0.613 3.626-2.576 3.626-4.808v-6.491c0.001-2.761-2.238-5-4.999-5z"></path>
</svg>
