<!-- Generated by IcoMoon.io -->
<svg version="1.1" xmlns="http://www.w3.org/2000/svg" width="32" height="32" viewBox="0 0 32 32">
<title>staff</title>
<path d="M27 0h-4.764c-1.894 0-3.625 1.070-4.472 2.764l-1 2c-0.247 0.494-0.047 1.094 0.447 1.341l3.578 1.789c0.144 0.072 0.296 0.106 0.446 0.106 0.367 0 0.72-0.202 0.895-0.553l0.724-1.447h3.146v4.738l-9.831 2.809c-1.869 0.545-3.471 1.514-4.757 2.799l-1.655 1.655h-2.758c-0.553 0-1 0.448-1 1v2.758l-5.561 5.561c-0.586 0.586-0.586 1.536 0 2.121l2.121 2.121c0.293 0.293 0.677 0.439 1.061 0.439s0.767-0.146 1.061-0.439l10.972-10.972c0.585-0.585 1.313-1.025 2.128-1.264l0.035-0.009 5.301-1.515 2.016 1.164c0.157 0.091 0.329 0.134 0.499 0.134 0.346 0 0.682-0.179 0.867-0.5l1.219-2.113 0.654-0.187c2.146-0.613 3.626-2.576 3.626-4.808v-6.492c0.001-2.761-2.238-5-4.999-5zM30 11.491c0 1.332-0.895 2.519-2.176 2.884l-1.432 0.409-1.124 1.947-1.884-1.087-6.116 1.748c-1.19 0.347-2.21 0.964-3.029 1.783l-10.619 10.617-1.414-1.414 5.793-5.793v-2.586h2.586l2.241-2.241c1.052-1.051 2.363-1.843 3.828-2.274l0.064-0.016 11.281-3.223v-8.246h-6.382l-0.829 1.659-1.789-0.895 0.552-1.106c0.511-1.022 1.539-1.658 2.683-1.658h4.764c1.654 0 3 1.346 3 3v6.491z"></path>
</svg>
