<!-- Generated by IcoMoon.io -->
<svg version="1.1" xmlns="http://www.w3.org/2000/svg" width="32" height="32" viewBox="0 0 32 32">
<title>stamp-solid</title>
<path d="M2 32h28v-4h-28v4zM26 16h-4.16c-1.016 0-1.84-0.824-1.84-1.84v-0.591c0-1.711 0.555-3.338 1.341-4.857 0.569-1.101 0.806-2.399 0.566-3.776-0.423-2.424-2.404-4.419-4.829-4.841-3.789-0.659-7.078 2.239-7.078 5.906 0 0.885 0.195 1.721 0.543 2.474 0.833 1.803 1.457 3.695 1.457 5.682v0.004c0 1.016-0.824 1.84-1.84 1.84h-4.16c-3.314 0-6 2.686-6 6v2c0 1.104 0.896 2 2 2h28c1.104 0 2-0.896 2-2v-2c0-3.314-2.686-6-6-6z"></path>
</svg>
