<!-- Generated by IcoMoon.io -->
<svg version="1.1" xmlns="http://www.w3.org/2000/svg" width="32" height="32" viewBox="0 0 32 32">
<title>stamp</title>
<path d="M26 16h-4.16c-1.016 0-1.84-0.824-1.84-1.84v-0.591c0-1.711 0.555-3.339 1.341-4.858 0.569-1.101 0.806-2.399 0.566-3.776-0.423-2.424-2.404-4.419-4.829-4.841-0.365-0.063-0.725-0.094-1.078-0.094-3.314 0-6 2.686-6 6 0 0.885 0.195 1.721 0.543 2.473 0.834 1.804 1.457 3.696 1.457 5.683v0.004c0 1.016-0.824 1.84-1.84 1.84h-4.16c-3.314 0-6 2.686-6 6v2c0 1.104 0.896 2 2 2v4c0 1.104 0.896 2 2 2h24c1.104 0 2-0.896 2-2v-4c1.104 0 2-0.896 2-2v-2c0-3.314-2.686-6-6-6zM28 30h-24v-4h24v4zM30 24h-28v-2c0-2.206 1.794-4 4-4h4.16c2.117 0 3.84-1.723 3.84-3.844 0-2.026-0.522-4.099-1.642-6.522-0.238-0.514-0.358-1.064-0.358-1.634 0-2.206 1.794-4 4-4 0.242 0 0.489 0.022 0.735 0.064 1.578 0.274 2.924 1.626 3.201 3.214 0.153 0.878 0.024 1.747-0.372 2.513-1.052 2.036-1.564 3.926-1.564 5.777v0.591c0 2.117 1.723 3.84 3.84 3.84h4.16c2.206 0 4 1.794 4 4v2z"></path>
</svg>
