<!-- Generated by IcoMoon.io -->
<svg version="1.1" xmlns="http://www.w3.org/2000/svg" width="40" height="32" viewBox="0 0 40 32">
<title>starship</title>
<path d="M28 4c-5.245 0-9.692 3.371-11.324 8.060l-3.243 0.301-3.497-2.36h2.965c1.657 0 3-1.343 3-3s-1.343-3-3-3v0h-10.9c-1.104 0.001-1.999 0.896-2 2v2c0.001 1.104 0.896 1.999 2 2h4.361l3.929 2.652-1.389 0.129c-1.654 0.153-2.9 1.537-2.9 3.22s1.246 3.066 2.9 3.22l1.389 0.129-3.929 2.651h-4.361c-1.104 0.001-1.999 0.896-2 2v2c0.001 1.104 0.896 1.999 2 2h10.9c1.657 0 3-1.343 3-3s-1.343-3-3-3v0h-2.965l3.497-2.36 3.243 0.301c1.632 4.689 6.079 8.060 11.324 8.060 6.627 0 12-5.373 12-12s-5.373-12-12-12zM2 8v-2h10.9c0.552 0 1 0.448 1 1s-0.448 1-1 1v0zM12.9 24c0.552 0 1 0.448 1 1s-0.448 1-1 1v0h-10.9v-2zM16.162 17.884l-7.078-0.656c-0.617-0.057-1.084-0.585-1.084-1.228s0.467-1.171 1.084-1.228l7.078-0.656c-0.098 0.563-0.157 1.215-0.162 1.879l-0 0.005c0.005 0.669 0.064 1.32 0.172 1.955l-0.010-0.071zM28 26c-5.523 0-10-4.477-10-10s4.477-10 10-10c5.523 0 10 4.477 10 10v0c-0 5.523-4.477 10-10 10v0zM28 12c-2.209 0-4 1.791-4 4s1.791 4 4 4c2.209 0 4-1.791 4-4v0c0 0 0-0 0-0 0-2.209-1.791-4-4-4 0 0-0 0-0 0v0zM28 18c-1.105 0-2-0.895-2-2s0.895-2 2-2c1.105 0 2 0.895 2 2v0c0 1.105-0.895 2-2 2v0z"></path>
</svg>
