<!-- Generated by IcoMoon.io -->
<svg version="1.1" xmlns="http://www.w3.org/2000/svg" width="36" height="32" viewBox="0 0 36 32">
<title>star</title>
<path d="M33.006 10.719l-9.131-1.331-4.081-8.275c-0.731-1.475-2.85-1.494-3.587 0l-4.081 8.275-9.131 1.331c-1.637 0.238-2.294 2.256-1.106 3.412l6.606 6.438-1.563 9.094c-0.281 1.644 1.45 2.875 2.9 2.106l8.169-4.294 8.169 4.294c1.45 0.762 3.181-0.462 2.9-2.106l-1.563-9.094 6.606-6.438c1.188-1.156 0.531-3.175-1.106-3.412zM25.363 19.869l1.738 10.125-9.1-4.775-9.094 4.781 1.738-10.125-7.362-7.181 10.169-1.475 4.55-9.219 4.55 9.219 10.169 1.475-7.356 7.175z"></path>
</svg>
