<!-- Generated by IcoMoon.io -->
<svg version="1.1" xmlns="http://www.w3.org/2000/svg" width="30" height="32" viewBox="0 0 30 32">
<title>star-of-life-solid</title>
<path d="M29.499 20.902l-8.496-4.902 8.496-4.902c0.479-0.276 0.642-0.887 0.366-1.366l-2.001-3.464c-0.276-0.478-0.888-0.643-1.367-0.366l-8.496 4.902v-9.803c0-0.552-0.448-1-1.001-1h-4.003c-0.553 0-1.001 0.448-1.001 1v9.804l-8.496-4.902c-0.479-0.276-1.091-0.112-1.367 0.366l-2.001 3.464c-0.276 0.478-0.113 1.090 0.366 1.366l8.496 4.902-8.496 4.902c-0.479 0.276-0.642 0.888-0.366 1.366l2.001 3.464c0.276 0.478 0.888 0.642 1.367 0.366l8.496-4.902v9.803c0 0.552 0.448 1 1.001 1h4.003c0.552 0 1.001-0.448 1.001-1v-9.804l8.496 4.902c0.479 0.276 1.091 0.113 1.367-0.366l2.001-3.464c0.276-0.478 0.113-1.089-0.366-1.366z"></path>
</svg>
