<!-- Generated by IcoMoon.io -->
<svg version="1.1" xmlns="http://www.w3.org/2000/svg" width="36" height="32" viewBox="0 0 36 32">
<title>star-exclamation</title>
<path d="M16.262 9.894c-0.012-0.213 0.156-0.394 0.375-0.394h2.725c0.212 0 0.387 0.181 0.375 0.394l-0.456 8.25c-0.012 0.2-0.175 0.356-0.375 0.356h-1.806c-0.2 0-0.363-0.156-0.375-0.356l-0.462-8.25zM18 20c-1.106 0-2 0.894-2 2s0.894 2 2 2 2-0.894 2-2-0.894-2-2-2zM34.119 14.125l-6.613 6.438 1.563 9.094c0.281 1.637-1.444 2.875-2.9 2.106l-8.169-4.287-8.169 4.294c-1.463 0.769-3.181-0.475-2.9-2.106l1.563-9.094-6.612-6.444c-1.188-1.156-0.531-3.175 1.106-3.412l9.137-1.325 4.081-8.275c0.738-1.488 2.856-1.481 3.587 0l4.081 8.275 9.131 1.325c1.638 0.238 2.294 2.256 1.112 3.412zM32.719 12.694l-10.169-1.481-4.55-9.213-4.55 9.213-10.169 1.481 7.356 7.175-1.738 10.125 9.1-4.781 9.094 4.781-1.738-10.125 7.363-7.175z"></path>
</svg>
