<!-- Generated by IcoMoon.io -->
<svg version="1.1" xmlns="http://www.w3.org/2000/svg" width="30" height="32" viewBox="0 0 30 32">
<title>star-of-life</title>
<path d="M16.984 2v10.536l9.049-5.268 1.984 3.464-9.049 5.267 9.049 5.267-1.984 3.464-9.049-5.268v10.536h-3.967v-10.536l-9.049 5.267-1.984-3.464 9.049-5.268-9.049-5.268 1.984-3.464 9.049 5.268v-10.535h3.968zM16.984 0h-3.967c-1.096 0-1.984 0.896-1.984 2v7.072l-6.074-3.536c-0.313-0.182-0.654-0.268-0.99-0.268-0.686 0-1.352 0.359-1.719 1.001l-1.984 3.464c-0.547 0.956-0.223 2.18 0.726 2.732l6.074 3.536-6.074 3.536c-0.949 0.552-1.274 1.776-0.726 2.732l1.984 3.464c0.347 0.602 0.987 1 1.72 1.001h0c0.336 0 0.678-0.086 0.99-0.268l6.074-3.536v7.071c0 1.104 0.888 2 1.984 2h3.967c1.096 0 1.984-0.896 1.984-2v-7.072l6.074 3.536c0.313 0.182 0.653 0.268 0.99 0.268 0.733-0 1.373-0.399 1.715-0.991l0.005-0.010 1.984-3.464c0.547-0.957 0.223-2.18-0.726-2.732l-6.076-3.535 6.074-3.536c0.949-0.553 1.274-1.776 0.726-2.732l-1.984-3.464c-0.347-0.602-0.987-1-1.719-1.001h-0c-0.336 0-0.677 0.086-0.99 0.268l-6.074 3.536v-7.071c0-1.104-0.888-2-1.983-2z"></path>
</svg>
