<!-- Generated by IcoMoon.io -->
<svg version="1.1" xmlns="http://www.w3.org/2000/svg" width="32" height="32" viewBox="0 0 32 32">
<title>star-shooting-solid</title>
<path d="M19.293 12l0.707 0.707c0.181 0.181 0.431 0.293 0.707 0.293s0.526-0.112 0.707-0.293l10.293-10.293c0.181-0.181 0.293-0.431 0.293-0.707s-0.112-0.526-0.293-0.707l-0.707-0.707c-0.181-0.181-0.431-0.293-0.707-0.293s-0.526 0.112-0.707 0.293l-10.293 10.293c-0.181 0.181-0.293 0.431-0.293 0.707s0.112 0.526 0.293 0.707v0zM14.999 5.707c0.181 0.181 0.431 0.293 0.707 0.293s0.526-0.112 0.707-0.293l3.293-3.293c0.181-0.181 0.293-0.431 0.293-0.707s-0.112-0.526-0.293-0.707l-0.707-0.707c-0.181-0.181-0.431-0.293-0.707-0.293s-0.526 0.112-0.707 0.293l-3.293 3.293c-0.181 0.181-0.293 0.431-0.293 0.707s0.112 0.526 0.293 0.707v0zM31 12.292c-0.181-0.181-0.431-0.293-0.707-0.293s-0.526 0.112-0.707 0.293l-3.293 3.293c-0.181 0.181-0.293 0.431-0.293 0.707s0.112 0.526 0.293 0.707l0.707 0.707c0.181 0.181 0.431 0.293 0.707 0.293s0.526-0.112 0.707-0.293l3.293-3.293c0.181-0.181 0.293-0.431 0.293-0.707s-0.112-0.526-0.293-0.707v0zM22.768 16.705l-6.55-0.956-2.932-5.95c-0.524-1.062-2.043-1.075-2.574 0l-2.932 5.95-6.55 0.956c-1.175 0.169-1.65 1.619-0.794 2.45l4.744 4.625-1.125 6.537c-0.2 1.182 1.043 2.069 2.081 1.513l5.862-3.087 5.862 3.087c0.193 0.104 0.423 0.165 0.667 0.165 0.792 0 1.435-0.642 1.435-1.435 0-0.086-0.008-0.17-0.022-0.251l0.001 0.009-1.118-6.537 4.743-4.625c0.851-0.831 0.375-2.281-0.8-2.45z"></path>
</svg>
