<!-- Generated by IcoMoon.io -->
<svg version="1.1" xmlns="http://www.w3.org/2000/svg" width="32" height="32" viewBox="0 0 32 32">
<title>stars-solid</title>
<path d="M16.231 5.373l3.103 1.294 1.294 3.103c0.070 0.138 0.21 0.231 0.373 0.231s0.303-0.093 0.372-0.229l0.001-0.002 1.294-3.103 3.103-1.294c0.138-0.070 0.23-0.21 0.23-0.373s-0.093-0.303-0.228-0.372l-0.002-0.001-3.103-1.294-1.294-3.103c-0.070-0.138-0.21-0.231-0.373-0.231s-0.303 0.093-0.372 0.229l-0.001 0.002-1.294 3.103-3.103 1.294c-0.138 0.070-0.23 0.21-0.23 0.373s0.093 0.303 0.228 0.372l0.002 0.001zM22.768 16.706l-6.55-0.956-2.932-5.95c-0.524-1.062-2.043-1.075-2.574 0l-2.932 5.95-6.55 0.956c-1.175 0.169-1.65 1.619-0.794 2.45l4.744 4.625-1.125 6.537c-0.2 1.182 1.043 2.069 2.081 1.513l5.862-3.087 5.862 3.087c0.193 0.104 0.423 0.165 0.667 0.165 0.792 0 1.435-0.642 1.435-1.435 0-0.086-0.008-0.17-0.022-0.251l0.001 0.009-1.118-6.537 4.743-4.625c0.851-0.831 0.375-2.281-0.8-2.45zM31.816 13.702l-2.482-1.035-1.035-2.482c-0.056-0.11-0.168-0.185-0.298-0.185s-0.242 0.074-0.297 0.183l-0.001 0.002-1.035 2.482-2.482 1.035c-0.11 0.056-0.184 0.168-0.184 0.298s0.074 0.242 0.182 0.297l0.002 0.001 2.482 1.035 1.035 2.482c0.056 0.11 0.168 0.185 0.298 0.185s0.242-0.074 0.297-0.183l0.001-0.002 1.035-2.482 2.482-1.035c0.11-0.056 0.184-0.168 0.184-0.298s-0.074-0.242-0.182-0.297l-0.002-0.001z"></path>
</svg>
