<!-- Generated by IcoMoon.io -->
<svg version="1.1" xmlns="http://www.w3.org/2000/svg" width="29" height="32" viewBox="0 0 29 32">
<title>star-of-david</title>
<path d="M25.355 16l3.326-5.587c0.901-1.513-0.213-3.413-2.001-3.413h-6.683l-3.497-5.874c-0.447-0.751-1.224-1.126-2.001-1.126s-1.554 0.376-2.001 1.126l-3.497 5.874h-6.683c-1.788 0-2.901 1.9-2.001 3.413l3.326 5.587-3.326 5.587c-0.901 1.513 0.213 3.413 2.001 3.413h6.683l3.497 5.874c0.447 0.751 1.224 1.126 2.001 1.126s1.554-0.376 2.001-1.126l3.497-5.874h6.683c1.788 0 2.901-1.9 2.001-3.413l-3.326-5.587zM26.681 9c0.131 0 0.227 0.052 0.285 0.154 0.067 0.118 0.020 0.197-0.003 0.236l-2.771 4.655-3.004-5.045h5.492zM23.027 16l-4.167 7h-8.721l-4.167-7 4.167-7h8.721l4.167 7zM14.218 2.149c0.059-0.099 0.154-0.149 0.282-0.149s0.223 0.050 0.282 0.149l2.888 4.851h-6.34l2.888-4.851zM2.038 9.39c-0.023-0.038-0.070-0.117-0.003-0.236 0.058-0.102 0.154-0.154 0.285-0.154h5.492l-3.003 5.045-2.771-4.655zM2.319 23c-0.131 0-0.227-0.052-0.285-0.154-0.067-0.118-0.020-0.198 0.002-0.236l2.771-4.655 3.004 5.045h-5.492zM14.782 29.851c-0.059 0.099-0.154 0.149-0.282 0.149s-0.223-0.050-0.282-0.149l-2.888-4.851h6.34l-2.888 4.851zM26.966 22.846c-0.058 0.102-0.154 0.154-0.285 0.154h-5.492l3.003-5.045 2.771 4.655c0.023 0.038 0.070 0.117 0.003 0.236z"></path>
</svg>
