<!-- Generated by IcoMoon.io -->
<svg version="1.1" xmlns="http://www.w3.org/2000/svg" width="32" height="32" viewBox="0 0 32 32">
<title>star-and-crescent</title>
<path d="M21.279 29.148c-0.091 0-0.431 0.029-0.574 0.029-7.266 0-13.176-5.911-13.176-13.176s5.911-13.176 13.176-13.176c0.145 0 0.481 0.029 0.574 0.029 0.446 0 0.833-0.314 0.922-0.754 0.091-0.453-0.159-0.906-0.592-1.068-1.823-0.684-3.71-1.030-5.609-1.030-8.822 0-16 7.178-16 16s7.178 16 16 16c1.889 0 3.767-0.343 5.582-1.020 0.372-0.126 0.642-0.477 0.642-0.891 0-0.506-0.399-0.941-0.946-0.941zM2 16c0-7.284 5.591-13.287 12.708-13.941-5.394 2.329-9.179 7.701-9.179 13.941s3.784 11.611 9.179 13.941c-7.117-0.654-12.709-6.656-12.709-13.941zM31.466 13.366l-4.774-0.694-2.135-4.326c-0.114-0.231-0.336-0.347-0.558-0.347s-0.444 0.116-0.558 0.347l-2.135 4.326-4.774 0.694c-0.511 0.074-0.714 0.701-0.345 1.062l3.454 3.367-0.816 4.754c-0.069 0.402 0.251 0.729 0.613 0.729 0.096 0 0.194-0.023 0.29-0.073l4.271-2.244 4.269 2.244c0.096 0.050 0.194 0.073 0.29 0.073 0.363 0 0.683-0.327 0.613-0.729l-0.816-4.754 3.454-3.367c0.369-0.361 0.166-0.988-0.345-1.062zM26.961 16.363l-0.753 0.734 0.177 1.036 0.344 2.003-2.729-1.435-2.729 1.435 0.344-2.003 0.177-1.036-2.208-2.152 3.052-0.444 0.466-0.943 0.899-1.822 1.365 2.766 3.052 0.444-1.456 1.418z"></path>
</svg>
