<!-- Generated by IcoMoon.io -->
<svg version="1.1" xmlns="http://www.w3.org/2000/svg" width="32" height="32" viewBox="0 0 32 32">
<title>stars</title>
<path d="M31.816 13.69l-2.482-1.036-1.035-2.484c-0.056-0.11-0.168-0.185-0.298-0.185s-0.242 0.074-0.297 0.183l-0.001 0.002-1.035 2.484-2.482 1.036c-0.11 0.056-0.184 0.169-0.184 0.298s0.074 0.242 0.182 0.297l0.002 0.001 2.482 1.036 1.035 2.484c0.056 0.111 0.168 0.185 0.298 0.185s0.243-0.075 0.297-0.183l0.001-0.002 1.035-2.484 2.482-1.036c0.11-0.056 0.184-0.169 0.184-0.298s-0.074-0.242-0.182-0.297l-0.002-0.001zM22.769 16.692l-6.557-0.956-2.932-5.952c-0.236-0.477-0.719-0.799-1.278-0.799-0.003 0-0.007 0-0.010 0h0.001c-0.005-0-0.011-0-0.017-0-0.555 0-1.035 0.323-1.261 0.791l-0.004 0.008-2.932 5.952-6.552 0.956c-1.174 0.168-1.643 1.624-0.793 2.454l4.745 4.629-1.125 6.538c-0.014 0.075-0.022 0.161-0.022 0.249 0 0.793 0.642 1.436 1.434 1.438h0c0 0 0 0 0 0 0.245 0 0.475-0.062 0.675-0.172l-0.007 0.004 5.864-3.086 5.864 3.086c0.192 0.103 0.42 0.165 0.661 0.168h0.001c0.795-0.003 1.438-0.648 1.438-1.443 0-0.084-0.007-0.166-0.021-0.246l0.001 0.009-1.119-6.538 4.745-4.629c0.85-0.836 0.375-2.285-0.799-2.46zM16.674 23.081l1.1 6.447-5.782-3.049-5.782 3.049 1.1-6.447-4.669-4.571 6.462-0.943 2.895-5.865 2.887 5.865 6.464 0.943zM26.449 5.083l-3.037-1.52-1.518-3.053c-0.338-0.681-1.451-0.681-1.789 0l-1.518 3.040-3.037 1.52c-0.329 0.169-0.55 0.506-0.551 0.894v0c0.002 0.392 0.222 0.732 0.545 0.904l0.006 0.003 3.037 1.52 1.518 3.040c0.168 0.331 0.505 0.554 0.894 0.556h0c0.001 0 0.002 0 0.003 0 0.389 0 0.726-0.224 0.889-0.55l0.003-0.006 1.518-3.040 3.037-1.52c0.329-0.168 0.551-0.505 0.551-0.894s-0.221-0.726-0.545-0.891l-0.006-0.003zM22.219 6.746c-0.195 0.1-0.35 0.255-0.447 0.445l-0.003 0.006-0.77 1.545-0.77-1.545c-0.101-0.194-0.256-0.349-0.444-0.448l-0.006-0.003-1.543-0.775 1.543-0.776c0.195-0.1 0.35-0.255 0.447-0.445l0.003-0.006 0.77-1.545 0.77 1.545c0.101 0.194 0.255 0.349 0.444 0.448l0.006 0.003 1.543 0.776z"></path>
</svg>
