<!-- Generated by IcoMoon.io -->
<svg version="1.1" xmlns="http://www.w3.org/2000/svg" width="29" height="32" viewBox="0 0 29 32">
<title>star-of-david-solid</title>
<path d="M25.355 16l3.326-5.587c0.901-1.513-0.213-3.413-2.001-3.413h-6.683l-3.497-5.874c-0.447-0.751-1.224-1.126-2.001-1.126s-1.554 0.376-2.001 1.126l-3.497 5.874h-6.683c-1.788 0-2.901 1.9-2.001 3.413l3.326 5.587-3.326 5.587c-0.901 1.513 0.213 3.413 2.001 3.413h6.683l3.497 5.874c0.447 0.751 1.224 1.126 2.001 1.126s1.554-0.376 2.001-1.126l3.497-5.874h6.683c1.788 0 2.901-1.9 2.001-3.413l-3.326-5.587zM24.556 10.5l-1.238 2.079-1.238-2.079h2.475zM21.282 16l-3.274 5.5h-7.015l-3.274-5.5 3.274-5.5h7.016l3.274 5.5zM14.5 4.607l1.424 2.393h-2.848l1.424-2.393zM4.444 10.5h2.475l-1.237 2.079-1.237-2.079zM4.444 21.5l1.237-2.079 1.237 2.079h-2.475zM14.5 27.392l-1.424-2.392h2.848l-1.424 2.392zM22.081 21.5l1.238-2.079 1.238 2.079h-2.476z"></path>
</svg>
