<!-- Generated by IcoMoon.io -->
<svg version="1.1" xmlns="http://www.w3.org/2000/svg" width="36" height="32" viewBox="0 0 36 32">
<title>star-exclamation-solid</title>
<path d="M16.206 1.113l-4.081 8.275-9.131 1.325c-1.637 0.238-2.294 2.256-1.106 3.412l6.606 6.438-1.563 9.094c-0.281 1.631 1.438 2.875 2.9 2.106l8.169-4.287 8.169 4.294c1.456 0.769 3.181-0.469 2.9-2.106l-1.563-9.094 6.606-6.438c1.188-1.156 0.531-3.175-1.106-3.412l-9.131-1.331-4.081-8.275c-0.731-1.481-2.85-1.488-3.587 0zM16.006 10h4c0.294 0 0.525 0.256 0.5 0.537l-0.5 7c-0.019 0.262-0.238 0.462-0.5 0.462h-3c-0.262 0-0.481-0.2-0.5-0.462l-0.5-7c-0.031-0.294 0.219-0.537 0.5-0.537zM18 24.5c-1.381 0-2.5-1.119-2.5-2.5s1.119-2.5 2.5-2.5 2.5 1.119 2.5 2.5-1.119 2.5-2.5 2.5z"></path>
</svg>
