<!-- Generated by IcoMoon.io -->
<svg version="1.1" xmlns="http://www.w3.org/2000/svg" width="32" height="32" viewBox="0 0 32 32">
<title>star-christmas-solid</title>
<path d="M31.581 15.463l-12.031-3.006-3.012-12.037c-0.137-0.563-0.938-0.563-1.075 0l-3.006 12.037-12.037 3.006c-0.563 0.137-0.563 0.937 0 1.075l12.031 3.006 3.006 12.031c0.137 0.563 0.938 0.563 1.075 0l3.006-12.031 12.037-3.006c0.563-0.137 0.563-0.938 0.006-1.075zM9.556 11.119l1.244-0.313 0.313-1.244-4.3-3.444c-0.469-0.375-1.075 0.231-0.7 0.7l3.444 4.3zM22.444 20.881l-1.244 0.313-0.313 1.244 4.3 3.444c0.469 0.375 1.075-0.231 0.7-0.7l-3.444-4.3zM22.444 11.119l3.444-4.3c0.375-0.469-0.231-1.075-0.7-0.7l-4.3 3.438 0.313 1.244 1.244 0.319zM9.556 20.881l-3.438 4.3c-0.375 0.469 0.231 1.075 0.7 0.7l4.3-3.444-0.313-1.244-1.25-0.313z"></path>
</svg>
