<!-- Generated by IcoMoon.io -->
<svg version="1.1" xmlns="http://www.w3.org/2000/svg" width="40" height="32" viewBox="0 0 40 32">
<title>starfighter</title>
<path d="M18 16v3c0 0.552 0.448 1 1 1h2c0.552-0 1-0.448 1-1v0-3c0-1.105-0.895-2-2-2s-2 0.895-2 2v0zM39 8v-1c0-0.552-0.448-1-1-1s-1 0.448-1 1v0 1h-1v2h1v12h-5v-2c0 0 0 0 0 0 0-1.657-1.343-3-3-3 0 0 0 0 0 0h-2c-0.515 0.004-0.998 0.138-1.419 0.371l0.015-0.008-2.475-15.675c-0.152-0.962-0.974-1.688-1.967-1.688-0.003 0-0.007 0-0.010 0h-2.289c-0.003 0-0.006-0-0.010-0-0.992 0-1.815 0.726-1.966 1.676l-0.001 0.011-2.465 15.682c-0.408-0.229-0.894-0.366-1.413-0.369h-2.001c0 0 0 0 0 0-1.657 0-3 1.343-3 3 0 0 0 0 0 0v0 2h-5v-12h1v-2h-1v-1c0-0.552-0.448-1-1-1s-1 0.448-1 1v0 1h-1v2h1v17c0 0.552 0.448 1 1 1s1-0.448 1-1v0-0.556l5.795 2.576c0.437 0.478 1.025 0.812 1.687 0.927l0.018 0.003v1.050c0 0.552 0.448 1 1 1h1c0.552-0 1-0.448 1-1v0-1.050c0.439-0.085 0.828-0.256 1.164-0.496l-0.009 0.006c0.35 0.331 0.824 0.536 1.344 0.54h8.001c0.522-0.004 0.995-0.209 1.346-0.541l-0.001 0.001c0.327 0.234 0.716 0.405 1.136 0.487l0.019 0.003v1.050c0 0.552 0.448 1 1 1h1c0.552-0 1-0.448 1-1v0-1.050c0.68-0.118 1.268-0.452 1.703-0.927l0.002-0.002 5.795-2.576v0.556c0 0.552 0.448 1 1 1s1-0.448 1-1v0-17h1v-2zM8 26.478l-4-1.778v-0.7h4zM14 27c-0.001 0.552-0.448 0.999-1 1h-2c-0.552-0.001-0.999-0.448-1-1v-7c0.001-0.552 0.448-0.999 1-1h2c0.552 0.001 0.999 0.448 1 1v0zM24 27v1h-8l-0.001-0.992c0-0.003 0.001-0.005 0.001-0.008v-6.918l2.855-18.082h2.289l2.855 18zM30 27c-0.001 0.552-0.448 0.999-1 1h-2c-0.552-0.001-0.999-0.448-1-1v-7c0.001-0.552 0.448-0.999 1-1h2c0.552 0.001 0.999 0.448 1 1v0zM36 24.7l-4 1.778v-2.478h4z"></path>
</svg>
