<!-- Generated by IcoMoon.io -->
<svg version="1.1" xmlns="http://www.w3.org/2000/svg" width="32" height="32" viewBox="0 0 32 32">
<title>star-christmas</title>
<path d="M30.856 14.525l-8.762-2.188 4.181-5.206c0.325-0.406 0.294-0.969-0.069-1.331-0.369-0.362-0.925-0.394-1.331-0.069l-5.213 4.169-2.188-8.75c-0.381-1.525-2.563-1.525-2.95 0l-2.188 8.762-5.206-4.188c-0.406-0.325-0.969-0.3-1.331 0.069-0.362 0.362-0.394 0.925-0.069 1.338l4.169 5.213-8.75 2.188c-0.681 0.169-1.15 0.762-1.15 1.469 0 0.637 0.406 1.294 1.15 1.475l8.762 2.188-4.181 5.206c-0.325 0.406-0.294 0.969 0.069 1.331 0.35 0.344 0.906 0.406 1.331 0.069l5.212-4.169 2.188 8.75c0.188 0.744 0.831 1.15 1.475 1.15 0.281 0 1.212-0.131 1.475-1.15l2.188-8.762 5.206 4.188c0.431 0.344 0.988 0.275 1.331-0.069 0.363-0.363 0.394-0.925 0.069-1.331l-4.169-5.212 8.744-2.188c0.731-0.181 1.156-0.819 1.156-1.475-0.006-0.644-0.413-1.287-1.15-1.475zM18.5 18.5l-2.5 10-2.5-10-10-2.5 10-2.5 2.5-10 2.5 10 10 2.5-10 2.5z"></path>
</svg>
