<!-- Generated by IcoMoon.io -->
<svg version="1.1" xmlns="http://www.w3.org/2000/svg" width="40" height="32" viewBox="0 0 40 32">
<title>starship-solid</title>
<path d="M28 14c-1.105 0-2 0.895-2 2s0.895 2 2 2c1.105 0 2-0.895 2-2v0c-0.001-1.104-0.896-1.999-2-2h-0zM15 8c0-0 0-0 0-0 0-1.105-0.895-2-2-2-0 0-0 0-0 0h-11.5c0 0 0 0 0 0-0.828 0-1.5 0.672-1.5 1.5 0 0 0 0 0 0v0 1c0 0.828 0.672 1.5 1.5 1.5h3.89l3.458 3.559-0.675 0.061c-1.223 0.114-2.173 1.136-2.173 2.379s0.95 2.265 2.163 2.379l0.009 0.001 0.675 0.061-4.848 3.559h-2.5c0 0 0 0 0 0-0.828 0-1.5 0.672-1.5 1.5 0 0 0 0 0 0v0 1c0 0.828 0.672 1.5 1.5 1.5h11.5c1.105 0 2-0.895 2-2s-0.895-2-2-2v0h-4.39l4.406-3.18 1.299 0.118c-0.2-0.883-0.314-1.897-0.314-2.938s0.114-2.055 0.332-3.030l-0.017 0.092-1.299 0.118-3.015-3.18h3c1.105 0 2-0.895 2-2v0zM28 4c-6.627 0-12 5.373-12 12s5.373 12 12 12 12-5.373 12-12-5.373-12-12-12zM28 20c-2.209 0-4-1.791-4-4s1.791-4 4-4c2.209 0 4 1.791 4 4v0c-0.003 2.208-1.792 3.997-4 4h-0z"></path>
</svg>
