<!-- Generated by IcoMoon.io -->
<svg version="1.1" xmlns="http://www.w3.org/2000/svg" width="40" height="32" viewBox="0 0 40 32">
<title>starfighter-solid</title>
<path d="M13 18h-4c0 0 0 0 0 0-0.552 0-1 0.448-1 1 0 0 0 0 0 0v0 3h-5v-12h0.5c0.276 0 0.5-0.224 0.5-0.5v0-1c0 0 0 0 0 0 0-0.276-0.224-0.5-0.5-0.5 0 0 0 0-0 0h-0.5v-0.947c0-0.498-0.34-0.96-0.832-1.040-0.050-0.009-0.108-0.014-0.167-0.014-0.553 0-1 0.448-1.001 1v0 1h-0.5c0 0 0 0 0 0-0.276 0-0.5 0.224-0.5 0.5 0 0 0 0 0 0v0 1c0 0.276 0.224 0.5 0.5 0.5h0.5v16.946c0 0.498 0.34 0.96 0.832 1.040 0.050 0.009 0.108 0.014 0.167 0.014 0.553 0 1.001-0.448 1.001-1v-0.2l8 3.2v1c0 0.552 0.448 1 1 1h1c0.552 0 1-0.448 1-1v0-12c0 0 0 0 0 0 0-0.552-0.448-1-1-1 0 0 0 0 0 0v0zM39.5 8h-0.5v-0.947c0-0.498-0.34-0.96-0.832-1.040-0.050-0.009-0.108-0.014-0.167-0.014-0.553 0-1.001 0.448-1.001 1v0 1h-0.5c0 0 0 0 0 0-0.276 0-0.5 0.224-0.5 0.5 0 0 0 0 0 0v0 1c0 0.276 0.224 0.5 0.5 0.5h0.5v12h-5v-3c0 0 0 0 0 0 0-0.552-0.448-1-1-1 0 0 0 0 0 0h-4c0 0 0 0 0 0-0.552 0-1 0.448-1 1 0 0 0 0 0 0v0 12c0 0.552 0.448 1 1 1h1c0.552 0 1-0.448 1-1v0-1l8-3.2v0.146c0 0.498 0.34 0.96 0.832 1.040 0.050 0.009 0.108 0.014 0.167 0.014 0.553 0 1.001-0.448 1.001-1v-17h0.5c0.276 0 0.5-0.224 0.5-0.5v0-1c0 0 0 0 0 0 0-0.276-0.224-0.5-0.5-0.5 0 0 0 0-0 0v0zM21.117 0h-2.234c-0 0-0 0-0 0-0.509 0-0.928 0.38-0.992 0.871l-0.001 0.005-1.89 15.124v13c0 0.552 0.448 1 1 1h6c0.552-0 1-0.448 1-1v0-13l-1.89-15.124c-0.064-0.496-0.484-0.876-0.992-0.876-0 0-0 0-0 0v0zM22 19c-0 0.552-0.448 1-1 1h-2c-0.552-0-1-0.448-1-1v0-3c0-1.105 0.895-2 2-2s2 0.895 2 2v0z"></path>
</svg>
