<!-- Generated by IcoMoon.io -->
<svg version="1.1" xmlns="http://www.w3.org/2000/svg" width="36" height="32" viewBox="0 0 36 32">
<title>starfighter-alt-solid</title>
<path d="M35 2h-2c0 0-0 0-0 0-0.552 0-1 0.448-1 1 0 0 0 0 0 0v0 10.5l-4.72-1.18c-1.468-3.697-5.060-6.32-9.28-6.32s-7.812 2.623-9.28 6.32l-4.72 1.18v-10.5c0 0 0-0 0-0 0-0.552-0.448-1-1-1 0 0-0 0-0 0h-2c0 0-0 0-0 0-0.552 0-1 0.448-1 1 0 0 0 0 0 0v0 26c0 0.552 0.448 1 1 1h2c0.552-0 1-0.448 1-1v0-10.5l4.72 1.18c1.468 3.697 5.060 6.32 9.28 6.32s7.812-2.623 9.28-6.32l4.72-1.18v10.5c0 0.552 0.448 1 1 1h2c0.552-0 1-0.448 1-1v0-26c0 0 0-0 0-0 0-0.552-0.448-1-1-1 0 0-0 0-0 0v0zM18.75 10.076c1.113 0.141 2.105 0.571 2.925 1.212l-0.013-0.010-1.414 1.414c-0.426-0.293-0.93-0.508-1.472-0.612l-0.025-0.004zM17.25 10.076v2c-0.568 0.109-1.071 0.324-1.511 0.625l0.014-0.009-1.414-1.414c0.806-0.631 1.799-1.061 2.882-1.199l0.029-0.003zM13.278 12.338l1.414 1.414c-0.293 0.426-0.508 0.93-0.612 1.472l-0.004 0.025h-2c0.141-1.113 0.571-2.105 1.212-2.925l-0.010 0.013zM12.076 16.75h2c0.109 0.568 0.324 1.071 0.625 1.511l-0.009-0.014-1.414 1.414c-0.631-0.806-1.061-1.799-1.199-2.882l-0.003-0.029zM17.25 21.924c-1.113-0.141-2.105-0.571-2.925-1.212l0.013 0.010 1.414-1.414c0.426 0.293 0.93 0.508 1.472 0.612l0.025 0.004zM16 16c0-1.105 0.895-2 2-2s2 0.895 2 2c0 1.105-0.895 2-2 2v0c-0 0-0 0-0 0-1.105 0-2-0.895-2-2 0-0 0-0 0-0v0zM18.75 21.924v-2c0.568-0.109 1.071-0.324 1.511-0.625l-0.014 0.009 1.414 1.414c-0.806 0.631-1.799 1.061-2.882 1.199l-0.029 0.003zM22.722 19.662l-1.414-1.414c0.293-0.426 0.508-0.93 0.612-1.472l0.004-0.025h2c-0.141 1.113-0.571 2.105-1.212 2.925l0.010-0.013zM21.924 15.25c-0.109-0.568-0.324-1.071-0.625-1.511l0.009 0.014 1.414-1.414c0.631 0.806 1.061 1.799 1.199 2.882l0.003 0.029z"></path>
</svg>
