<!-- Generated by IcoMoon.io -->
<svg version="1.1" xmlns="http://www.w3.org/2000/svg" width="34" height="32" viewBox="0 0 34 32">
<title>star-half-alt</title>
<path d="M26.080 9.889l-3.445-0.502-1.54-3.115-1.796 0.885 2.006 4.059 4.486 0.652 0.289-1.979zM25.276 26.582l0.59 3.414-3.063-1.606-0.931 1.769 3.064 1.607c0.294 0.153 0.605 0.231 0.924 0.231 0.584 0 1.163-0.271 1.544-0.723 0.304-0.358 0.465-0.795 0.465-1.264l-0.618-3.767-1.976 0.338zM17.206 25.474c-0.281-0.147-0.619-0.174-0.923-0.016l-8.649 4.539 1.744-10.127-7.374-7.174 10.19-1.481 4.55-9.215c0.002 0 0.003-0.001 0.005-0.001v0.001l1.279 2.587 1.796-0.885-1.279-2.588c-0.341-0.687-1.031-1.114-1.801-1.114-0.778 0-1.447 0.416-1.793 1.113l-4.088 8.274-9.151 1.331c-0.756 0.111-1.375 0.633-1.614 1.363-0.237 0.729-0.042 1.516 0.507 2.049l6.619 6.437-1.566 9.094c-0.1 0.591 0.055 1.165 0.436 1.615 0.383 0.453 0.959 0.724 1.542 0.724 0.319 0 0.63-0.078 0.929-0.234l8.184-4.294 3.082 1.617 0.931-1.769-3.548-1.861-0.009 0.016zM33.398 12.081c-0.236-0.729-0.855-1.252-1.616-1.363l-3.434-0.5-0.289 1.979 3.434 0.501-2.479 2.412 1.399 1.432 2.476-2.408c0.394-0.38 0.612-0.886 0.612-1.425-0.001-0.214-0.036-0.426-0.102-0.627zM24.12 19.87l0.768 4.46 1.974-0.338-0.59-3.425 2.493-2.425-1.399-1.432-3.246 3.16z"></path>
</svg>
