<!-- Generated by IcoMoon.io -->
<svg version="1.1" xmlns="http://www.w3.org/2000/svg" width="36" height="32" viewBox="0 0 36 32">
<title>starship-freighter</title>
<path d="M5 15c-0.552 0-1 0.448-1 1s0.448 1 1 1c0.552 0 1-0.448 1-1v0c0 0 0-0 0-0 0-0.552-0.448-1-1-1 0 0-0 0-0 0v0zM7 11c0 0 0 0 0 0 0.552 0 1-0.448 1-1s-0.448-1-1-1c-0.552 0-1 0.448-1 1v0c0 0.552 0.448 1 1 1v0zM7 21c-0.552 0-1 0.448-1 1s0.448 1 1 1c0.552 0 1-0.448 1-1v0c0-0 0-0 0-0 0-0.552-0.448-1-1-1-0 0-0 0-0 0v0zM35 15c0.552-0 1-0.448 1-1v0-3.6c0-0 0-0 0-0 0-0.859-0.541-1.591-1.302-1.874l-0.014-0.005-15.227-5.548c-1.614-0.607-3.479-0.962-5.426-0.973l-0.005-0c-1.822 0-3.632 0.338-5.326 1.072-8.957 3.88-8.7 12.928-8.7 12.928s-0.272 9.042 8.7 12.928c1.693 0.733 3.504 1.072 5.326 1.072 1.725 0 3.457-0.313 5.112-0.873l1.021 1.417c0.642 0.886 1.674 1.455 2.838 1.455 0 0 0.001 0 0.001 0h3.5c0.003 0 0.006 0 0.009 0 1.928 0 3.49-1.563 3.49-3.49 0-1.147-0.553-2.164-1.407-2.801l-0.009-0.007 6.102-2.223c0.774-0.288 1.315-1.020 1.315-1.879v0-3.6c0 0 0-0 0-0 0-0.552-0.448-1-1-1 0 0-0 0-0 0h-7.001v-0.985c0-0.005 0.001-0.010 0.001-0.015 0-0.004-0.001-0.007-0.001-0.010v-0.99zM14.027 28c-1.617 0-3.141-0.305-4.531-0.907-7.565-3.277-7.502-10.727-7.496-11.033l0.001-0.059-0.001-0.049c-0.006-0.316-0.057-7.775 7.496-11.046 1.386-0.6 2.906-0.905 4.517-0.907 0.016 0 0.032 0.002 0.049 0.003 0.68 0.013 1.334 0.075 1.974 0.182l-0.078-0.011c5.682 0.938 10.035 5.869 10.042 11.811v0.022c-0.002 2.72-0.956 5.197-2.49 7.21l-3.841-5.335c0.202-0.56 0.323-1.206 0.332-1.879l0-0.004c-0-3.314-2.686-6-6-6s-6 2.686-6 6 2.686 6 6 6v0c0.002 0 0.005-0.001 0.007-0.001l3.879 5.387c-1.285 0.375-2.578 0.614-3.858 0.614zM18 16c-0 2.209-1.791 4-4 4s-4-1.791-4-4 1.791-4 4-4v0c2.209 0 4 1.791 4 4v0zM26.499 30h-3.5c-0.499 0-0.942-0.244-1.214-0.62l-0.003-0.004-5.614-7.797c0.971-0.39 1.786-0.994 2.416-1.755l0.008-0.010 5.174 7.187h2.732c0.828 0 1.5 0.672 1.5 1.5s-0.672 1.5-1.5 1.5v0zM34 19v2.6l-9.233 3.364-0.010-0.014c1.383-1.65 2.399-3.655 2.895-5.857l0.018-0.093zM27.642 13c-0.508-2.307-1.527-4.323-2.936-6.002l0.018 0.022 9.276 3.38v2.6z"></path>
</svg>
