<!-- Generated by IcoMoon.io -->
<svg version="1.1" xmlns="http://www.w3.org/2000/svg" width="36" height="32" viewBox="0 0 36 32">
<title>starfighter-alt</title>
<path d="M35.5 2h-1c-0.276 0-0.5 0.224-0.5 0.5v0 9.438l-5.291-1.323c-1.978-3.917-6.030-6.616-10.709-6.616s-8.731 2.699-10.709 6.616l-5.291 1.323v-9.438c0-0.276-0.224-0.5-0.5-0.5h-1c-0.276 0-0.5 0.224-0.5 0.5v0 27c0 0.276 0.224 0.5 0.5 0.5h1c0.276 0 0.5-0.224 0.5-0.5v0-9.438l5.291 1.323c1.978 3.917 6.030 6.616 10.709 6.616s8.731-2.699 10.709-6.616l5.291-1.323v9.438c0 0.276 0.224 0.5 0.5 0.5h1c0.276 0 0.5-0.224 0.5-0.5v0-27c0-0.276-0.224-0.5-0.5-0.5v0zM6.422 19.105l-4.422-1.105v-4l4.422-1.105c-0.268 0.931-0.422 2-0.422 3.105s0.154 2.175 0.442 3.188l-0.020-0.082zM18 26c-5.523 0-10-4.477-10-10s4.477-10 10-10c5.523 0 10 4.477 10 10v0c-0 5.523-4.477 10-10 10v0zM34 18l-4.422 1.105c0.268-0.931 0.422-2 0.422-3.105s-0.154-2.175-0.442-3.188l0.020 0.082 4.422 1.105zM18 8c-4.418 0-8 3.582-8 8s3.582 8 8 8c4.418 0 8-3.582 8-8v0c0-0 0-0 0-0 0-4.418-3.582-8-8-8-0 0-0 0-0 0v0zM18.75 10.076c1.113 0.141 2.105 0.571 2.924 1.212l-0.013-0.010-1.414 1.414c-0.426-0.292-0.929-0.507-1.472-0.612l-0.025-0.004zM17.25 10.076v2c-0.567 0.109-1.071 0.324-1.51 0.625l0.014-0.009-1.414-1.414c0.806-0.631 1.798-1.061 2.882-1.199l0.029-0.003zM13.277 12.339l1.414 1.414c-0.292 0.426-0.507 0.929-0.612 1.472l-0.004 0.025h-2c0.141-1.113 0.571-2.105 1.212-2.924l-0.010 0.013zM12.076 16.75h2c0.109 0.567 0.324 1.071 0.625 1.51l-0.009-0.014-1.414 1.414c-0.631-0.806-1.061-1.798-1.199-2.882l-0.003-0.029zM17.25 21.924c-1.113-0.141-2.105-0.571-2.924-1.212l0.013 0.010 1.414-1.414c0.426 0.292 0.929 0.507 1.472 0.612l0.025 0.004zM16 16c0-1.105 0.895-2 2-2s2 0.895 2 2c0 1.105-0.895 2-2 2v0c-0 0-0 0-0 0-1.105 0-2-0.895-2-2 0-0 0-0 0-0v0zM18.75 21.924v-2c0.567-0.109 1.071-0.324 1.51-0.625l-0.014 0.009 1.414 1.414c-0.806 0.631-1.798 1.061-2.882 1.199l-0.029 0.003zM22.723 19.661l-1.414-1.414c0.292-0.426 0.507-0.929 0.612-1.472l0.004-0.025h2c-0.141 1.113-0.571 2.105-1.212 2.924l0.010-0.013zM21.924 15.25c-0.109-0.568-0.324-1.071-0.625-1.51l0.009 0.014 1.414-1.414c0.631 0.806 1.061 1.798 1.199 2.882l0.003 0.029z"></path>
</svg>
