<!-- Generated by IcoMoon.io -->
<svg version="1.1" xmlns="http://www.w3.org/2000/svg" width="36" height="32" viewBox="0 0 36 32">
<title>starship-freighter-solid</title>
<path d="M14.001 13c-0 0-0 0-0 0-1.657 0-3 1.343-3 3s1.343 3 3 3c1.657 0 3-1.343 3-3v0c0 0 0-0 0-0 0-1.657-1.343-3-3-3v0zM35 13.978c0.552-0 1-0.448 1-1v0-3.278c-0-0.429-0.271-0.796-0.651-0.937l-0.007-0.002-15.884-5.788c-3.484-1.254-7.357-1.373-10.757 0.099-8.957 3.879-8.7 12.928-8.7 12.928s-0.272 9.042 8.7 12.928c3.4 1.472 7.272 1.353 10.757 0.099l1.020-0.372 0.2 0.244c0.555 0.674 1.389 1.1 2.322 1.101h4c0.002 0 0.003 0 0.005 0 1.654 0 2.995-1.341 2.995-2.995 0-0.611-0.183-1.178-0.496-1.652l0.007 0.011 5.832-2.125c0.387-0.144 0.658-0.51 0.658-0.94v0-3.278c-0-0.552-0.448-1-1-1h-9v-4.043zM5.001 17c0 0-0 0-0 0-0.552 0-1-0.448-1-1s0.448-1 1-1c0.552 0 1 0.448 1 1v0c-0 0.552-0.448 1-1 1v0zM7.001 23c0 0-0 0-0 0-0.552 0-1-0.448-1-1s0.448-1 1-1c0.552 0 1 0.448 1 1v0c-0 0.552-0.448 1-1 1v0zM7.001 11c0 0-0 0-0 0-0.552 0-1-0.448-1-1s0.448-1 1-1c0.552 0 1 0.448 1 1v0c-0 0.552-0.448 1-1 1v0zM14.001 21c-0 0-0 0-0 0-2.761 0-5-2.239-5-5s2.239-5 5-5c2.761 0 5 2.239 5 5v0c-0.003 2.76-2.24 4.997-5 5h-0z"></path>
</svg>
