<!-- Generated by IcoMoon.io -->
<svg version="1.1" xmlns="http://www.w3.org/2000/svg" width="32" height="32" viewBox="0 0 32 32">
<title>star-shooting</title>
<path d="M22.768 16.705l-6.55-0.956-2.932-5.95c-0.239-0.479-0.725-0.802-1.287-0.802s-1.048 0.323-1.283 0.793l-0.004 0.008-2.932 5.95-6.55 0.956c-1.175 0.169-1.65 1.619-0.794 2.45l4.744 4.625-1.125 6.537c-0.013 0.073-0.020 0.157-0.020 0.242 0 0.794 0.642 1.437 1.434 1.441h0c0.245-0.001 0.474-0.064 0.674-0.174l-0.007 0.004 5.862-3.087 5.862 3.087c0.195 0.105 0.426 0.167 0.672 0.167 0.79 0 1.431-0.641 1.431-1.431 0-0.088-0.008-0.174-0.023-0.258l0.001 0.009-1.118-6.537 4.743-4.625c0.851-0.831 0.375-2.281-0.8-2.45zM17.429 22.348l-0.752 0.733 0.177 1.036 0.925 5.408-5.779-3.043-5.778 3.042 1.109-6.442-4.681-4.563 6.461-0.943 2.889-5.864 2.889 5.864 6.466 0.944zM31.147 12.146c-0.090-0.090-0.215-0.146-0.354-0.146s-0.263 0.056-0.354 0.146l-4.293 4.293c-0.090 0.090-0.146 0.215-0.146 0.354s0.056 0.263 0.146 0.354l0.707 0.707c0.090 0.090 0.215 0.146 0.354 0.146s0.263-0.056 0.354-0.146l4.293-4.293c0.090-0.090 0.147-0.215 0.147-0.354s-0.056-0.263-0.146-0.354v0zM19.646 11.646l0.707 0.707c0.090 0.091 0.215 0.146 0.354 0.146s0.263-0.056 0.354-0.146l10.793-10.793c0.090-0.090 0.147-0.215 0.147-0.353s-0.056-0.263-0.146-0.353l-0.707-0.707c-0.090-0.090-0.215-0.146-0.354-0.146s-0.263 0.056-0.354 0.146l-10.793 10.793c-0.090 0.090-0.146 0.215-0.146 0.354s0.056 0.263 0.146 0.354v0zM14.853 5.853c0.091 0.090 0.216 0.146 0.354 0.146s0.263-0.056 0.354-0.146l4.293-4.293c0.090-0.090 0.146-0.215 0.146-0.353s-0.056-0.263-0.146-0.353l-0.707-0.707c-0.090-0.090-0.215-0.146-0.354-0.146s-0.263 0.056-0.354 0.146l-4.293 4.293c-0.091 0.090-0.146 0.215-0.146 0.354s0.056 0.263 0.146 0.354v0z"></path>
</svg>
