<!-- Generated by IcoMoon.io -->
<svg version="1.1" xmlns="http://www.w3.org/2000/svg" width="34" height="32" viewBox="0 0 34 32">
<title>star-half-alt-solid</title>
<path d="M31.784 10.719l-9.148-1.332-4.088-8.274c-0.367-0.739-1.084-1.113-1.801-1.113-0.712 0-1.424 0.369-1.793 1.113l-4.089 8.274-9.149 1.331c-1.641 0.238-2.298 2.256-1.109 3.412l6.618 6.438-1.566 9.092c-0.223 1.299 0.814 2.341 1.976 2.341 0.308 0 0.625-0.073 0.929-0.234l8.184-4.293 8.184 4.294c0.304 0.159 0.62 0.232 0.927 0.232 1.163 0 2.201-1.038 1.979-2.337l-1.564-9.093 6.619-6.436c1.19-1.156 0.532-3.175-1.108-3.412zM24.176 18.419l-1.133 1.101 1.488 8.646-7.782-4.083 0.002-19.824 3.888 7.87 8.703 1.267-5.166 5.024z"></path>
</svg>
