<!-- Generated by IcoMoon.io -->
<svg version="1.1" xmlns="http://www.w3.org/2000/svg" width="36" height="32" viewBox="0 0 36 32">
<title>steak</title>
<path d="M29.176 7.427c-1.969-2.243-4.087-3.427-6.122-3.427-2.617 0-4.907 2.046-5.833 5.211l-0.039 0.137c-1.090 3.796-4.341 6.896-9.662 9.213-3.581 1.556-3.534 3.8-3.348 4.692 0.669 3.212 5.723 4.675 10.135 4.675 6.103 0 11.787-2.488 15.594-6.825 3.058-3.483 2.726-9.746-0.723-13.676zM28.396 19.784c-4.015 4.574-9.543 6.144-14.091 6.144-6.591 0-11.121-3.301-5.988-5.536 9.151-3.984 10.433-9.287 10.823-10.625 0.673-2.289 2.207-3.768 3.914-3.768 1.422 0 3.063 0.976 4.619 2.75 2.773 3.156 3.111 8.312 0.723 11.034zM24 11.995c-1.105 0-2 0.895-2 2s0.895 2 2 2c1.105 0 2-0.895 2-2v0c0-1.105-0.895-2-2-2v0zM32.182 4.791c-2.938-3.346-6.165-4.791-9.129-4.791-4.411 0-8.241 3.198-9.672 8.087-3.069 8.746-13.296 5.183-13.381 13.89-0.071 7.241 7.895 10.023 14.957 10.023q0.526 0 1.043-0.020c5.486-0.213 11.707-2.319 16.906-8.241 4.393-5.005 4.069-13.489-0.723-18.949zM31.403 22.42c-5.228 5.955-11.304 7.399-15.481 7.561q-0.478 0.019-0.965 0.019c-4.813 0-8.986-1.317-11.172-3.525-1.218-1.23-1.801-2.695-1.784-4.475 0.030-3.098 1.468-3.854 4.719-5.269 3.023-1.319 6.786-2.957 8.549-7.981l0.018-0.050 0.015-0.051c1.182-4.039 4.225-6.649 7.752-6.649 2.629 0 5.266 1.421 7.625 4.11 4.148 4.724 4.472 12.041 0.725 16.31z"></path>
</svg>
