<!-- Generated by IcoMoon.io -->
<svg version="1.1" xmlns="http://www.w3.org/2000/svg" width="36" height="32" viewBox="0 0 36 32">
<title>steak-solid</title>
<path d="M23.053 6c-1.707 0-3.243 1.481-3.914 3.773-0.39 1.335-1.672 6.638-10.822 10.625-8.675 3.772 10.246 10.591 20.079-0.614 2.388-2.721 2.050-7.875-0.723-11.037-1.556-1.773-3.197-2.747-4.619-2.747zM24 15.994c-1.105 0-2-0.895-2-2s0.895-2 2-2c1.105 0 2 0.895 2 2v0c0 1.105-0.895 2-2 2v0zM32.182 4.791c-2.938-3.346-6.165-4.791-9.129-4.791-4.411 0-8.241 3.198-9.672 8.086-3.069 8.746-13.296 5.184-13.381 13.891-0.074 7.601 8.704 10.288 16 10 5.486-0.212 11.707-2.318 16.906-8.24 4.393-5.003 4.069-13.487-0.723-18.946zM29.899 21.103c-4.759 5.422-10.27 6.735-14.051 6.881-2.353 0.086-8.22-0.407-10.703-2.914-0.156-0.157-3.715-3.86 2.375-6.511 4.477-1.949 8.269-4.453 9.702-9.35 0.924-3.166 3.215-5.21 5.831-5.21 2.036 0 4.153 1.188 6.125 3.43 3.447 3.928 3.778 10.189 0.721 13.672z"></path>
</svg>
