<!-- Generated by IcoMoon.io -->
<svg version="1.1" xmlns="http://www.w3.org/2000/svg" width="31" height="32" viewBox="0 0 31 32">
<title>steering-wheel</title>
<path d="M15.5 0.5c-8.561 0-15.5 6.939-15.5 15.5s6.939 15.5 15.5 15.5 15.5-6.939 15.5-15.5-6.939-15.5-15.5-15.5zM15.5 2.5c7.444 0 13.499 6.056 13.5 13.499h-6.601c-0.465-2.279-2.484-3.999-4.899-3.999h-4c-2.415 0-4.434 1.72-4.899 3.999h-6.601c0.001-7.443 6.056-13.499 13.5-13.499zM15.146 21.231l-4.219-4.218c-0.289-0.289-0.371-0.725-0.222-1.105 0.438-1.116 1.526-1.909 2.794-1.909h4c1.269 0 2.357 0.793 2.794 1.909 0.149 0.381 0.067 0.816-0.222 1.105l-4.219 4.218c-0.090 0.091-0.216 0.147-0.354 0.147s-0.263-0.056-0.354-0.147v0zM2.165 17.999h6.92l5.415 5.414v6.036c-6.309-0.466-11.412-5.278-12.335-11.451zM16.5 29.449v-6.036l5.415-5.414h6.92c-0.922 6.172-6.026 10.984-12.335 11.451z"></path>
</svg>
