<!-- Generated by IcoMoon.io -->
<svg version="1.1" xmlns="http://www.w3.org/2000/svg" width="31" height="32" viewBox="0 0 31 32">
<title>steering-wheel-solid</title>
<path d="M15.5 0.5c-8.561 0-15.5 6.939-15.5 15.5s6.939 15.5 15.5 15.5 15.5-6.939 15.5-15.5-6.939-15.5-15.5-15.5zM15.5 4.5c5.658 0 10.364 4.111 11.314 9.5h-5.869c-0.693-1.191-1.968-2-3.445-2h-4c-1.477 0-2.752 0.809-3.445 2h-5.869c0.949-5.389 5.655-9.5 11.313-9.5zM4.186 18h6.314l3 4v5.314c-4.738-0.836-8.478-4.576-9.314-9.314zM17.5 27.314v-5.314l3-4h6.314c-0.836 4.738-4.576 8.478-9.314 9.314z"></path>
</svg>
