<!-- Generated by IcoMoon.io -->
<svg version="1.1" xmlns="http://www.w3.org/2000/svg" width="28" height="32" viewBox="0 0 28 32">
<title>step-forward</title>
<path d="M23.25 1.938h-0.5c-0.413 0-0.75 0.337-0.75 0.75v11.894c-0.069-0.075-0.137-0.15-0.219-0.213l-14.5-11.963c-1.287-1.075-3.281-0.181-3.281 1.531v24c0 1.712 1.994 2.613 3.281 1.538l14.5-12.038c0.081-0.069 0.15-0.137 0.219-0.212v11.962c0 0.413 0.337 0.75 0.75 0.75h0.5c0.413 0 0.75-0.337 0.75-0.75v-26.5c0-0.413-0.337-0.75-0.75-0.75zM20.719 15.9l-14.719 12.037v-24l0.006 0.006 0.013 0.006 14.7 11.95z"></path>
</svg>
