<!-- Generated by IcoMoon.io -->
<svg version="1.1" xmlns="http://www.w3.org/2000/svg" width="28" height="32" viewBox="0 0 28 32">
<title>step-backward</title>
<path d="M4.75 29.938h0.5c0.412 0 0.75-0.337 0.75-0.75v-11.894c0.069 0.075 0.138 0.15 0.219 0.212l14.5 11.963c1.288 1.075 3.281 0.175 3.281-1.538v-23.994c0-1.712-1.994-2.612-3.281-1.538l-14.5 12.037c-0.081 0.069-0.15 0.137-0.219 0.213v-11.963c0-0.413-0.338-0.75-0.75-0.75h-0.5c-0.412 0-0.75 0.337-0.75 0.75v26.5c0 0.413 0.338 0.75 0.75 0.75zM7.281 15.975l14.719-12.037v24l-0.006-0.006-0.012-0.006-14.7-11.95z"></path>
</svg>
