<!-- Generated by IcoMoon.io -->
<svg version="1.1" xmlns="http://www.w3.org/2000/svg" width="32" height="32" viewBox="0 0 32 32">
<title>stethoscope-solid</title>
<path d="M27.944 7c-2.137 0.031-3.894 1.775-3.938 3.912-0.031 1.519 0.781 2.85 2 3.55v7.038c0 3.581-3.137 6.5-7 6.5-3.75 0-6.825-2.756-6.994-6.2 4.55-0.938 7.987-4.975 7.987-9.8v-9.713c0-0.712-0.506-1.331-1.206-1.469l-3.931-0.787c-0.813-0.163-1.6 0.362-1.762 1.175l-0.2 0.981c-0.162 0.813 0.363 1.6 1.175 1.763l1.919 0.381v7.587c0 3.306-2.638 6.044-5.944 6.075-3.338 0.031-6.056-2.669-6.056-6v-7.656l1.919-0.381c0.813-0.163 1.337-0.95 1.175-1.762l-0.194-0.981c-0.162-0.813-0.95-1.337-1.763-1.175l-3.925 0.775c-0.7 0.144-1.206 0.756-1.206 1.475v9.713c0 4.831 3.444 8.875 8.006 9.8 0.162 5.65 5.031 10.2 10.994 10.2 6.063 0 11-4.712 11-10.5v-7.037c1.194-0.694 2-1.981 2-3.463 0-2.231-1.825-4.031-4.056-4zM28 12c-0.55 0-1-0.45-1-1s0.45-1 1-1 1 0.45 1 1-0.45 1-1 1z"></path>
</svg>
