<!-- Generated by IcoMoon.io -->
<svg version="1.1" xmlns="http://www.w3.org/2000/svg" width="32" height="32" viewBox="0 0 32 32">
<title>stethoscope</title>
<path d="M26.881 6.031c-2.725 0.063-4.919 2.344-4.881 5.069 0.031 2.388 1.738 4.369 4 4.825v6.6c0 4.119-3.587 7.469-8 7.469s-8-3.35-8-7.469v-0.556c4.494-0.5 8-4.319 8-8.944v-11.412c0-0.344-0.231-0.644-0.569-0.725l-3.463-0.863c-0.4-0.1-0.806 0.144-0.912 0.544l-0.119 0.487c-0.1 0.4 0.144 0.806 0.544 0.912l2.519 0.625v10.363c0 3.863-3.094 7.056-6.956 7.075-3.881 0.025-7.044-3.125-7.044-7v-10.438l2.513-0.631c0.4-0.1 0.644-0.506 0.544-0.913l-0.119-0.481c-0.1-0.4-0.506-0.644-0.912-0.544l-3.456 0.863c-0.338 0.081-0.569 0.381-0.569 0.725v11.412c0 4.625 3.506 8.444 8 8.944v0.556c0 5.225 4.488 9.475 10 9.475s10-4.25 10-9.469v-6.6c2.281-0.463 4-2.481 4-4.9 0-2.806-2.306-5.069-5.119-5zM27 14.031c-1.656 0-3-1.344-3-3s1.344-3 3-3 3 1.344 3 3-1.344 3-3 3zM28.469 11.031c0 0.813-0.656 1.469-1.469 1.469s-1.469-0.656-1.469-1.469 0.656-1.469 1.469-1.469 1.469 0.656 1.469 1.469z"></path>
</svg>
