<!-- Generated by IcoMoon.io -->
<svg version="1.1" xmlns="http://www.w3.org/2000/svg" width="28" height="32" viewBox="0 0 28 32">
<title>sticky-note</title>
<path d="M28 21.757v-16.757c0-1.657-1.343-3-3-3h-22c-1.657 0-3 1.343-3 3v21.999c0 1.657 1.343 3 3 3h16.757c0.828 0 1.578-0.336 2.121-0.879l5.243-5.243c0.543-0.543 0.879-1.293 0.879-2.121v0zM20.464 27.706c-0.124 0.124-0.282 0.216-0.458 0.261l-0.007 0.001v-5.969h5.969c-0.046 0.183-0.138 0.34-0.262 0.464v0l-5.243 5.243zM26 5v14.999h-6.5c-0.828 0-1.5 0.672-1.5 1.5v6.5h-15c-0.552 0-1-0.448-1-1v-21.999c0-0.552 0.448-1 1-1h22c0.552 0 1 0.448 1 1z"></path>
</svg>
