<!-- Generated by IcoMoon.io -->
<svg version="1.1" xmlns="http://www.w3.org/2000/svg" width="24" height="32" viewBox="0 0 24 32">
<title>stocking</title>
<path d="M22 0h-16c-1.106 0-2 0.894-2 2v4c0 1.106 0.894 2 2 2v7.719l-2.438 1.625c-3.675 2.45-4.669 7.419-2.219 11.094 1.544 2.313 4.075 3.563 6.662 3.563 1.525 0 3.069-0.438 4.431-1.344l5.106-3.406c2.788-1.856 4.45-4.969 4.45-8.319v-10.931c1.106 0 2-0.894 2-2v-4c0.006-1.106-0.887-2-1.994-2zM20 18.931c0 2.681-1.331 5.169-3.563 6.656l-5.113 3.406c-0.988 0.663-2.137 1.006-3.319 1.006-2.013 0-3.888-1-5-2.675-0.888-1.331-1.206-2.931-0.894-4.506 0.313-1.569 1.219-2.925 2.556-3.813l3.325-2.219v-8.787h12v10.931zM22 6h-16v-4h16v4z"></path>
</svg>
