<!-- Generated by IcoMoon.io -->
<svg version="1.1" xmlns="http://www.w3.org/2000/svg" width="32" height="32" viewBox="0 0 32 32">
<title>stomach</title>
<path d="M25.067 6.142c-3.67-0.662-6.989 1.060-8.748 3.858h-1.319c-2.761 0-5-2.239-5-5v-4.5c0-0.276-0.224-0.5-0.5-0.5h-1c-0.276 0-0.5 0.224-0.5 0.5v4.5c0 3.866 3.134 7 7 7h0.419c-0.247 0.796-0.419 1.624-0.419 2.5v3.5c0 2.761-2.239 5-5 5h-3c-3.866 0-7 3.134-7 7v1.5c0 0.276 0.224 0.5 0.5 0.5h1c0.276 0 0.5-0.224 0.5-0.5v-1.5c0-2.022 1.207-3.768 2.938-4.555 0.696-0.316 1.522-0.128 2.088 0.387l3.894 3.549c2.080 1.689 4.701 2.619 7.379 2.619 7.555 0 13.701-6.146 13.701-13.701v-3.489c0-4.153-2.846-7.93-6.933-8.668zM23.5 8c3.584 0 6.5 2.916 6.5 6.5v3.799c0 0.754-0.078 1.491-0.216 2.206-1.958 0.939-4.262 0.49-5.798-1.181-1.854-2.015-4.514-2.743-6.986-2.057v-2.766c0-3.584 2.916-6.5 6.5-6.5zM18.299 30c-2.221 0-4.393-0.771-6.074-2.135l-3.143-2.865h0.918c3.367 0 6.184-2.391 6.849-5.563 1.927-0.855 4.163-0.394 5.665 1.24 1.404 1.527 3.274 2.328 5.172 2.328 0.468 0 0.936-0.078 1.401-0.176-1.774 4.209-5.941 7.171-10.788 7.171z"></path>
</svg>
