<!-- Generated by IcoMoon.io -->
<svg version="1.1" xmlns="http://www.w3.org/2000/svg" width="32" height="32" viewBox="0 0 32 32">
<title>stomach-solid</title>
<path d="M24 6c-3.393 0-5.679 2.036-6.823 4h-1.177c-2.209 0-4-1.791-4-4v-5c0-0.552-0.447-1-1-1h-2c-0.553 0-1 0.448-1 1v5c0 4.418 3.581 8 8 8h0.031c-0.004 0.116-0.031 0.227-0.031 0.344v3.656c0 2.209-1.791 4-4 4h-4c-4.419 0-8 3.582-8 8v1c0 0.552 0.448 1 1 1h2c0.553 0 1-0.448 1-1v-1c0-2.352 2.123-3.201 3.37-3.201 1.069 0 1.849 0.419 2.567 1.137 4.201 4.201 8.665 4.063 9.336 4.063 7.030 0 12.728-5.698 12.728-12.728v-5.272c-0.001-4.418-3.582-8-8.001-8zM28 19.272c0 0.577-0.063 1.138-0.171 1.684-1.348 0.38-2.813 0.061-3.829-0.956-1.086-1.086-2.682-1.384-4.1-0.871 0.052-0.371 0.1-0.744 0.1-1.129v-3.656c0-2.259 1.649-4.344 4-4.344 2.206 0 4 1.794 4 4v5.272z"></path>
</svg>
