<!-- Generated by IcoMoon.io -->
<svg version="1.1" xmlns="http://www.w3.org/2000/svg" width="28" height="32" viewBox="0 0 28 32">
<title>stopwatch</title>
<path d="M24.581 8.831l1.094-1.094c0.294-0.294 0.294-0.769 0-1.063l-0.356-0.356c-0.294-0.294-0.769-0.294-1.063 0l-1.094 1.094c-2.238-1.938-5.094-3.181-8.231-3.388v-2.025h1.563c0.413 0 0.75-0.337 0.75-0.75v-0.5c0-0.412-0.337-0.75-0.75-0.75h-5c-0.412 0-0.75 0.338-0.75 0.75v0.5c0 0.413 0.338 0.75 0.75 0.75h1.438v2.038c-7.231 0.544-12.931 6.587-12.931 13.962 0 7.731 6.269 14 14 14s14-6.269 14-14c0-3.506-1.288-6.713-3.419-9.169zM14 30c-6.631 0-12-5.369-12-12s5.369-12 12-12 12 5.369 12 12-5.369 12-12 12zM14.25 22h-0.5c-0.412 0-0.75-0.337-0.75-0.75v-10.5c0-0.412 0.338-0.75 0.75-0.75h0.5c0.412 0 0.75 0.338 0.75 0.75v10.5c0 0.413-0.338 0.75-0.75 0.75z"></path>
</svg>
