<!-- Generated by IcoMoon.io -->
<svg version="1.1" xmlns="http://www.w3.org/2000/svg" width="28" height="32" viewBox="0 0 28 32">
<title>stopwatch-20-solid</title>
<path d="M24.906 11.932l0.037-0.038 1.662-1.661c0.181-0.181 0.293-0.431 0.293-0.707s-0.112-0.526-0.293-0.707l-1.418-1.418c-0.181-0.181-0.431-0.293-0.707-0.293s-0.526 0.112-0.707 0.293l-1.543 1.543c-1.715-1.418-3.833-2.408-6.157-2.777l-0.073-0.010v-2.156h2c0.552 0 1-0.448 1-1v0-2c0-0.552-0.448-1-1-1v0h-8c-0.552 0.002-0.998 0.448-1 1v2c0.002 0.552 0.448 0.998 1 1h2v2.156c-6.134 0.979-10.795 6.137-10.994 12.422l-0 0.020c-0.216 7.121 5.667 13.291 12.789 13.402 7.276 0.111 13.205-5.75 13.205-13 0-0.009 0-0.020 0-0.030 0-2.618-0.781-5.053-2.124-7.086l0.030 0.048zM12.773 23.597c0.002-0 0.005-0 0.008-0 0.28 0 0.508 0.225 0.512 0.504v1.395c-0.005 0.28-0.232 0.504-0.512 0.504-0.003 0-0.005-0-0.008-0h-5.178c-0.004 0-0.008 0-0.012 0-0.568 0-1.029-0.461-1.029-1.029 0-0.026 0.001-0.051 0.003-0.076l-0 0.003c0.174-2.201 0.917-3.588 2.403-5.711 1.276-1.824 1.694-2.332 1.694-3.896 0-1.057-0.112-1.517-0.763-1.517-0.587 0-0.793 0.463-0.793 1.418v0.327c-0.005 0.28-0.232 0.504-0.512 0.504-0.003 0-0.006-0-0.009-0h-1.556c-0.002 0-0.005 0-0.008 0-0.28 0-0.508-0.225-0.512-0.504v-0.255c0-1.706 0.53-3.765 3.527-3.765 2.688 0 3.473 1.616 3.473 3.813 0 2.224-0.777 3.201-2.147 5.082-0.723 0.938-1.538 2.223-1.651 3.2zM21.5 22.020c0 2.198-0.769 3.98-3.577 3.98-2.724 0-3.423-1.845-3.423-3.966v-6.583c0-2.546 1.224-3.951 3.513-3.951 2.3 0 3.488 1.415 3.488 3.831zM17.992 13.858c-0.588 0-0.827 0.469-0.827 1.25v7.247c0 0.819 0.224 1.287 0.827 1.287s0.813-0.5 0.813-1.329v-7.246c0.001-0.704-0.187-1.208-0.813-1.208z"></path>
</svg>
