<!-- Generated by IcoMoon.io -->
<svg version="1.1" xmlns="http://www.w3.org/2000/svg" width="32" height="32" viewBox="0 0 32 32">
<title>stop-circle</title>
<path d="M16 31.5c8.563 0 15.5-6.938 15.5-15.5s-6.938-15.5-15.5-15.5-15.5 6.938-15.5 15.5 6.938 15.5 15.5 15.5zM2.5 16c0-7.419 6.006-13.5 13.5-13.5 7.419 0 13.5 6.006 13.5 13.5 0 7.419-6.006 13.5-13.5 13.5-7.419 0-13.5-6.006-13.5-13.5zM21 10h-10c-0.55 0-1 0.45-1 1v10c0 0.55 0.45 1 1 1h10c0.55 0 1-0.45 1-1v-10c0-0.55-0.45-1-1-1zM20 20h-8v-8h8v8z"></path>
</svg>
