<!-- Generated by IcoMoon.io -->
<svg version="1.1" xmlns="http://www.w3.org/2000/svg" width="28" height="32" viewBox="0 0 28 32">
<title>stopwatch-solid</title>
<path d="M27 19c0 7.181-5.819 13-13 13s-13-5.819-13-13c0-6.5 4.769-11.887 11-12.844v-2.156h-1.75c-0.412 0-0.75-0.337-0.75-0.75v-2.5c0-0.412 0.338-0.75 0.75-0.75h7.5c0.413 0 0.75 0.338 0.75 0.75v2.5c0 0.413-0.337 0.75-0.75 0.75h-1.75v2.156c2.344 0.362 4.481 1.35 6.231 2.787l1.719-1.719c0.294-0.294 0.769-0.294 1.063 0l1.769 1.769c0.294 0.294 0.294 0.769 0 1.063l-1.875 1.875c1.325 2.025 2.094 4.456 2.094 7.069zM16 21.25v-9.469c0-0.412-0.338-0.75-0.75-0.75h-2.5c-0.412 0-0.75 0.338-0.75 0.75v9.469c0 0.413 0.338 0.75 0.75 0.75h2.5c0.412 0 0.75-0.337 0.75-0.75z"></path>
</svg>
