<!-- Generated by IcoMoon.io -->
<svg version="1.1" xmlns="http://www.w3.org/2000/svg" width="28" height="32" viewBox="0 0 28 32">
<title>stopwatch-20</title>
<path d="M24.581 8.831l1.094-1.094c0.136-0.136 0.221-0.324 0.221-0.531s-0.084-0.395-0.221-0.531l-0.357-0.357c-0.136-0.136-0.324-0.221-0.531-0.221s-0.395 0.084-0.531 0.221l-1.094 1.094c-2.209-1.926-5.056-3.172-8.187-3.384l-0.043-0.002v-2.026h1.563c0.414 0 0.75-0.336 0.75-0.75v0-0.5c0-0.414-0.336-0.75-0.75-0.75v0h-5c-0.414 0-0.75 0.336-0.75 0.75v0 0.5c0 0.414 0.336 0.75 0.75 0.75v0h1.438v2.037c-7.232 0.544-12.932 6.588-12.932 13.963 0 7.731 6.269 14 14 14s14-6.269 14-14c0-0.007 0-0.016 0-0.025 0-3.507-1.295-6.711-3.433-9.16l0.014 0.017zM14 30c-6.627 0-12-5.373-12-12s5.373-12 12-12c6.627 0 12 5.373 12 12v0c0 0.001 0 0.003 0 0.004 0 6.625-5.371 11.996-11.996 11.996-0.002 0-0.003 0-0.005 0h0zM11.155 19.244l0.151-0.207c1.257-1.719 1.944-2.662 1.944-4.721 0-2.466-0.994-3.566-3.224-3.566-2.205 0-3.276 1.151-3.276 3.516v0.254c0.005 0.142 0.121 0.255 0.263 0.255 0.003 0 0.005-0 0.008-0h1.556c0.002 0 0.005 0 0.008 0 0.142 0 0.258-0.113 0.263-0.254v-0.327c0-0.5 0-1.667 1.043-1.667 1.012 0 1.012 0.979 1.012 1.766 0 1.563-0.421 2.161-1.547 3.767l-0.191 0.273c-1.465 2.091-2.191 3.46-2.359 5.587-0.002 0.018-0.002 0.039-0.002 0.061 0 0.2 0.078 0.381 0.204 0.516l-0-0c0.145 0.157 0.352 0.255 0.581 0.255 0.002 0 0.005 0 0.007-0h5.177c0.002 0 0.005 0 0.008 0 0.142 0 0.258-0.113 0.263-0.253v-1.395c-0.005-0.142-0.121-0.255-0.263-0.255-0.003 0-0.005 0-0.008 0h-3.35l0.033-0.279c0.129-1.136 1.122-2.568 1.701-3.324zM18.012 10.75c-2.134 0-3.262 1.28-3.262 3.701v6.584c0 2.534 1.008 3.715 3.173 3.715 2.269 0 3.327-1.188 3.327-3.731v-6.688c0-1.634-0.563-3.582-3.238-3.582zM19.056 21.313c0 1.049-0.358 1.58-1.063 1.58s-1.078-0.517-1.078-1.538v-7.246c0-1.24 0.586-1.5 1.078-1.5s1.063 0.253 1.063 1.459z"></path>
</svg>
