<!-- Generated by IcoMoon.io -->
<svg version="1.1" xmlns="http://www.w3.org/2000/svg" width="40" height="32" viewBox="0 0 40 32">
<title>store-alt-slash-solid</title>
<path d="M1.118 7.726l-0.774 1.161c-0.887 1.331 0.063 3.113 1.662 3.113h4.641zM36 25.839v-11.839h-4v8.75l-8-6.188v-2.563h-3.317l-2.587-2h19.905c1.594 0 2.544-1.781 1.662-3.113l-5.331-8c-0.366-0.538-0.976-0.887-1.668-0.887-0 0-0.001 0-0.001 0h-25.324c-0.002 0-0.004 0-0.005 0-0.689 0-1.295 0.349-1.653 0.88l-0.005 0.007-0.666 1-2.168-1.676c-0.168-0.131-0.382-0.211-0.614-0.211-0.32 0-0.605 0.15-0.788 0.384l-0.002 0.002-1.227 1.579c-0.131 0.168-0.21 0.381-0.21 0.614 0 0.32 0.15 0.605 0.384 0.788l0.002 0.002 36.772 28.42c0.168 0.131 0.382 0.211 0.614 0.211 0.32 0 0.605-0.151 0.788-0.385l0.002-0.002 1.227-1.579c0.131-0.168 0.211-0.381 0.211-0.614 0-0.32-0.15-0.605-0.384-0.788l-0.002-0.002zM20 24h-12v-10h-4v16c0 1.105 0.895 2 2 2v0h16c1.105 0 2-0.895 2-2v0-4.588l-4-3.092z"></path>
</svg>
