<!-- Generated by IcoMoon.io -->
<svg version="1.1" xmlns="http://www.w3.org/2000/svg" width="40" height="32" viewBox="0 0 40 32">
<title>store-alt-slash</title>
<path d="M32.282 2l5.718 10h-16.619l2.619 2.063v-0.063h10v7.938l2 1.575v-9.512h2c1.538 0 2.494-1.656 1.732-2.994l-5.713-10c-0.353-0.604-0.998-1.004-1.737-1.006h-24.563c-0.42 0.005-0.808 0.139-1.126 0.364l0.006-0.004 2.082 1.64zM22 29.906c0 0.057-0.018 0.088-0.012 0.094l-15.95 0.012c-0.023-0.025-0.038-0.059-0.038-0.096 0-0.004 0-0.008 0-0.011l-0 0v-7.906h15.155l-2.54-2h-12.615v-6h4.995l-2.54-2h-6.448l2-3.5-1.59-1.25-2.147 3.756c-0.762 1.338 0.194 2.994 1.731 2.994h2v15.906c0 1.156 0.894 2.094 2 2.094h16c1.107 0 2-0.938 2-2.094v-5.665l-2-1.575zM1.438 0.113c-0.085-0.071-0.195-0.113-0.314-0.113-0.157 0-0.296 0.073-0.387 0.187l-0.001 0.001-0.625 0.781c-0.069 0.085-0.111 0.193-0.111 0.312 0 0.157 0.073 0.297 0.186 0.388l0.001 0.001 38.375 30.22c0.085 0.068 0.193 0.109 0.311 0.109 0.157 0 0.296-0.072 0.388-0.185l0.001-0.001 0.625-0.781c0.070-0.084 0.113-0.194 0.113-0.313 0-0.157-0.073-0.296-0.187-0.386l-0.001-0.001z"></path>
</svg>
