<!-- Generated by IcoMoon.io -->
<svg version="1.1" xmlns="http://www.w3.org/2000/svg" width="39" height="32" viewBox="0 0 39 32">
<title>store</title>
<path d="M37.625 7.412l-4.056-6.475c-0.362-0.581-1.006-0.938-1.694-0.938h-25.25c-0.688 0-1.331 0.356-1.694 0.938l-4.056 6.475c-1.85 2.95-0.625 6.912 2.375 8.175v14.213c0 1.212 0.894 2.2 2 2.2h28c1.106 0 2-0.988 2-2.2v-14.213c3-1.262 4.225-5.225 2.375-8.175zM33.25 29.8c0 0.125-0.050 0.194-0.013 0.2l-27.913 0.019c-0.019-0.012-0.075-0.081-0.075-0.219v-7.8h28zM5.25 20v-4h0.156c1.85 0 3.488-0.813 4.613-2.069 1.125 1.256 2.769 2.069 4.613 2.069 1.85 0 3.488-0.813 4.613-2.069 1.125 1.256 2.769 2.069 4.613 2.069 1.85 0 3.488-0.813 4.613-2.069 1.131 1.256 2.769 2.069 4.619 2.069h0.156v4zM36.138 12.094c-0.487 1.037-1.381 1.719-2.456 1.863-0.194 0.025-0.388 0.037-0.587 0.037-1.206 0-2.313-0.5-3.125-1.406l-1.488-1.65-1.488 1.662c-0.813 0.906-1.919 1.406-3.125 1.406s-2.313-0.5-3.125-1.406l-1.494-1.662-1.488 1.662c-0.813 0.906-1.919 1.406-3.125 1.406s-2.313-0.5-3.125-1.406l-1.494-1.662-1.488 1.662c-0.813 0.906-1.919 1.406-3.125 1.406-0.2 0-0.394-0.012-0.588-0.037-1.075-0.144-1.969-0.825-2.456-1.863-0.544-1.162-0.469-2.55 0.206-3.619l4.056-6.487h25.25l4.056 6.475c0.675 1.075 0.75 2.456 0.206 3.619z"></path>
</svg>
