<!-- Generated by IcoMoon.io -->
<svg version="1.1" xmlns="http://www.w3.org/2000/svg" width="39" height="32" viewBox="0 0 39 32">
<title>store-solid</title>
<path d="M37.625 7.412l-4.056-6.475c-0.362-0.581-1.006-0.938-1.694-0.938h-25.25c-0.688 0-1.331 0.356-1.694 0.938l-4.056 6.475c-2.094 3.344-0.238 7.994 3.675 8.525 0.281 0.037 0.569 0.056 0.856 0.056 1.85 0 3.488-0.813 4.613-2.069 1.125 1.256 2.769 2.069 4.613 2.069 1.85 0 3.488-0.813 4.613-2.069 1.125 1.256 2.769 2.069 4.613 2.069 1.85 0 3.488-0.813 4.613-2.069 1.131 1.256 2.769 2.069 4.613 2.069 0.294 0 0.575-0.019 0.856-0.056 3.925-0.525 5.788-5.175 3.688-8.525zM33.094 18c-0.625 0-1.244-0.094-1.844-0.238v6.238h-24v-6.238c-0.6 0.137-1.219 0.238-1.844 0.238-0.375 0-0.756-0.025-1.125-0.075-0.35-0.050-0.694-0.131-1.025-0.225v12.3c0 1.106 0.894 2 2 2h28c1.106 0 2-0.894 2-2v-12.3c-0.337 0.1-0.675 0.181-1.025 0.225-0.381 0.050-0.756 0.075-1.138 0.075z"></path>
</svg>
