<!-- Generated by IcoMoon.io -->
<svg version="1.1" xmlns="http://www.w3.org/2000/svg" width="40" height="32" viewBox="0 0 40 32">
<title>store-slash</title>
<path d="M6.075 30.019c-0.047-0.050-0.076-0.118-0.076-0.193 0-0.009 0-0.018 0.001-0.027l-0 0.001v-7.8h15.155l-2.54-2h-12.615v-4h0.156c1.814-0.001 3.445-0.784 4.573-2.032l0.005-0.005c-0.379-0.311-1.484-1.338-1.484-1.338-0.762 0.849-1.863 1.381-3.088 1.381-0.002 0-0.004 0-0.006 0h0c-0.004 0-0.010 0-0.015 0-0.202 0-0.401-0.013-0.596-0.039l0.023 0.002c-1.074-0.144-1.969-0.825-2.456-1.863-0.544-1.163-0.469-2.549 0.206-3.619l0.224-0.357-1.585-1.25-0.332 0.532c-1.849 2.951-0.625 6.913 2.375 8.176v14.212c0 1.212 0.894 2.2 2 2.2h27.854l-2.538-2zM32.625 2l4.057 6.474c0.356 0.569 0.567 1.26 0.567 2 0 0.588-0.133 1.145-0.371 1.642l0.010-0.023c-0.487 1.037-1.382 1.719-2.456 1.863-0.177 0.024-0.381 0.038-0.588 0.038h-0c-0.004 0-0.008 0-0.013 0-1.238 0-2.349-0.542-3.108-1.402l-0.004-0.004-1.488-1.651-1.487 1.662c-0.764 0.864-1.875 1.406-3.113 1.406-0.004 0-0.009 0-0.013-0h0.001c-0.284-0.002-0.559-0.033-0.825-0.088l0.027 0.005 2.355 1.854c1.213-0.322 2.247-0.968 3.037-1.84l0.005-0.005c1.139 1.271 2.786 2.068 4.619 2.068h0.156v4h-2.454l4.46 3.512v-7.924c3-1.263 4.224-5.226 2.375-8.176l-4.057-6.474c-0.359-0.566-0.983-0.937-1.693-0.938h-25.25c-0.342 0.002-0.663 0.089-0.943 0.241l0.010-0.005 2.239 1.764zM39.813 30.332l-38.375-30.22c-0.085-0.071-0.195-0.113-0.314-0.113-0.157 0-0.296 0.073-0.387 0.187l-0.001 0.001-0.625 0.781c-0.069 0.085-0.111 0.193-0.111 0.312 0 0.157 0.073 0.297 0.186 0.388l0.001 0.001 38.375 30.22c0.085 0.068 0.193 0.109 0.311 0.109 0.157 0 0.296-0.072 0.388-0.185l0.001-0.001 0.625-0.781c0.070-0.084 0.112-0.194 0.112-0.313 0-0.156-0.073-0.295-0.186-0.385l-0.001-0.001z"></path>
</svg>
