<!-- Generated by IcoMoon.io -->
<svg version="1.1" xmlns="http://www.w3.org/2000/svg" width="40" height="32" viewBox="0 0 40 32">
<title>store-slash-solid</title>
<path d="M7.594 24v-6.238c-0.522 0.141-1.124 0.227-1.744 0.237l-0.006 0c-0.377-0-0.748-0.027-1.11-0.080l0.042 0.005c-0.378-0.061-0.706-0.139-1.025-0.239l0.051 0.014v12.3c0 1.106 0.849 2 1.9 2h25.907l-9.833-8zM5.844 15.994c1.569 0 2.956-0.67 4-1.703l-8.344-6.789c-1.907 3.337-0.153 7.908 3.531 8.438 0.24 0.034 0.518 0.054 0.8 0.054 0.004 0 0.008 0 0.012 0h-0.001zM37.633 28.631l-3.433-2.793v-8.138c-0.275 0.093-0.604 0.172-0.941 0.221l-0.032 0.004c-0.324 0.047-0.699 0.075-1.080 0.075h-0.001c-0.625-0.007-1.227-0.094-1.8-0.249l0.050 0.012v4.98l-8.614-7.007c0.473 0.156 1.018 0.25 1.584 0.259l0.004 0c1.757 0 3.313-0.813 4.382-2.069 1.074 1.257 2.63 2.069 4.382 2.069 0.287-0 0.569-0.021 0.844-0.061l-0.032 0.004c3.729-0.526 5.5-5.175 3.504-8.525l-3.854-6.475c-0.329-0.559-0.925-0.93-1.608-0.938h-23.989c-0.684 0.007-1.28 0.378-1.603 0.929l-0.005 0.009-0.587 0.986-2.106-1.712c-0.158-0.131-0.362-0.211-0.585-0.211-0.308 0-0.58 0.151-0.746 0.384l-0.002 0.003-1.166 1.579c-0.125 0.169-0.2 0.382-0.2 0.612 0 0.317 0.142 0.6 0.366 0.79l0.001 0.001 34.934 28.42c0.157 0.131 0.362 0.21 0.585 0.21 0.308 0 0.58-0.151 0.747-0.384l0.002-0.003 1.166-1.579c0.125-0.169 0.2-0.382 0.2-0.612 0-0.317-0.142-0.6-0.366-0.79l-0.001-0.001z"></path>
</svg>
