<!-- Generated by IcoMoon.io -->
<svg version="1.1" xmlns="http://www.w3.org/2000/svg" width="40" height="32" viewBox="0 0 40 32">
<title>store-alt</title>
<path d="M39.731 11.006l-5.712-10c-0.356-0.619-1.019-1.006-1.737-1.006h-24.563c-0.719 0-1.381 0.388-1.737 1.006l-5.713 10c-0.762 1.338 0.194 2.994 1.731 2.994h2v15.906c0 1.156 0.894 2.094 2 2.094h16c1.106 0 2-0.938 2-2.094v-15.906h10v17.5c0 0.275 0.225 0.5 0.5 0.5h1c0.275 0 0.5-0.225 0.5-0.5v-17.5h2c1.538 0 2.494-1.656 1.731-2.994zM22 29.906c0 0.056-0.019 0.087-0.012 0.094l-15.95 0.012s-0.037-0.031-0.037-0.106v-7.906h16v7.906zM22 20h-16v-6h16v6zM2.006 12l5.713-10h24.563l5.719 10h-35.994z"></path>
</svg>
