<!-- Generated by IcoMoon.io -->
<svg version="1.1" xmlns="http://www.w3.org/2000/svg" width="40" height="32" viewBox="0 0 40 32">
<title>stretcher-solid</title>
<path d="M38 8h-26l-7.010-7.329c-0.368-0.413-0.901-0.671-1.495-0.671-0.511 0-0.977 0.192-1.331 0.507l0.002-0.002-1.495 1.329c-0.413 0.368-0.671 0.901-0.671 1.495 0 0.511 0.192 0.977 0.507 1.33l-0.002-0.002 7.606 8c0.736 0.825 1.802 1.342 2.99 1.342 0 0 0 0 0 0h26.899c1.105 0 2-0.895 2-2v0-2c0-1.105-0.895-2-2-2v0zM32.236 24.683c-0.616-0.428-1.379-0.683-2.202-0.683-0.47 0-0.92 0.083-1.336 0.236l0.027-0.009-2.688-2.352 6.713-5.875h-6.075l-3.675 3.218-3.677-3.218h-6.073l6.712 5.875-2.688 2.352c-0.39-0.144-0.84-0.227-1.309-0.227-0.823 0-1.586 0.256-2.215 0.692l0.013-0.008c-0.429 0.292-0.788 0.652-1.072 1.067l-0.009 0.014c-0.433 0.63-0.692 1.41-0.692 2.25 0 2.212 1.793 4.004 4.004 4.004s4.004-1.793 4.004-4.004c0-0.279-0.028-0.551-0.083-0.813l0.004 0.026 3.078-2.694 3.078 2.694c-0.048 0.233-0.076 0.501-0.076 0.775 0 2.209 1.791 4 4 4s4-1.791 4-4c0-1.376-0.695-2.589-1.752-3.309l-0.014-0.009zM16 29c-0.552 0-1-0.448-1-1s0.448-1 1-1c0.552 0 1 0.448 1 1v0c0 0.552-0.448 1-1 1v0zM30 29c-0.552 0-1-0.448-1-1s0.448-1 1-1c0.552 0 1 0.448 1 1v0c0 0.552-0.448 1-1 1v0z"></path>
</svg>
