<!-- Generated by IcoMoon.io -->
<svg version="1.1" xmlns="http://www.w3.org/2000/svg" width="40" height="32" viewBox="0 0 40 32">
<title>stretcher</title>
<path d="M38 8h-26l-7.010-7.329c-0.368-0.413-0.901-0.671-1.495-0.671-0.511 0-0.977 0.192-1.331 0.507l0.002-0.002-1.495 1.329c-0.413 0.368-0.671 0.901-0.671 1.495 0 0.511 0.192 0.977 0.507 1.33l-0.002-0.002 7.606 8c0.736 0.825 1.802 1.342 2.99 1.342 0 0 0 0 0 0h1.449l8.944 7.863-3.24 2.835c-0.659-0.468-1.481-0.749-2.368-0.749-2.274 0-4.117 1.843-4.117 4.117s1.843 4.117 4.117 4.117c2.274 0 4.117-1.843 4.117-4.117 0-0.677-0.163-1.316-0.453-1.879l0.011 0.023 3.438-3.024 3.438 3.024c-0.255 0.509-0.405 1.108-0.405 1.742 0 2.184 1.77 3.954 3.954 3.954s3.954-1.77 3.954-3.954c0-2.184-1.77-3.954-3.954-3.954-0.839 0-1.616 0.261-2.256 0.707l0.013-0.009-3.24-2.835 8.947-7.864h4.55c1.105 0 2-0.895 2-2v0-2c0-1.105-0.895-2-2-2v0zM16 30c-1.105 0-2-0.895-2-2s0.895-2 2-2c1.105 0 2 0.895 2 2v0c0 1.105-0.895 2-2 2v0zM30 26c1.105 0 2 0.895 2 2s-0.895 2-2 2c-1.105 0-2-0.895-2-2v0c0-1.105 0.895-2 2-2v0zM23 20.546l-7.481-6.546h14.963zM38 12h-26.899c-0.571 0-1.116-0.245-1.541-0.721l-7.561-7.951 1.493-1.329 7.652 8h26.854z"></path>
</svg>
