<!-- Generated by IcoMoon.io -->
<svg version="1.1" xmlns="http://www.w3.org/2000/svg" width="32" height="32" viewBox="0 0 32 32">
<title>street-view</title>
<path d="M23 22.509v1.929c3.892 0.526 6.5 1.475 6.5 2.562 0 1.657-6.044 3-13.5 3s-13.5-1.344-13.5-3.001c0-1.086 2.608-2.035 6.5-2.562v-1.929c-5.324 0.813-9 2.516-9 4.491 0 2.761 7.164 5 16 5s16-2.239 16-5c0-1.976-3.676-3.679-9-4.491zM11 20v5c0 1.654 1.346 3 3 3h4c1.654 0 3-1.346 3-3v-5c1.654 0 3-1.346 3-3v-4c0-2.158-1.382-3.984-3.301-4.683 0.497-0.827 0.801-1.783 0.801-2.817 0-3.033-2.468-5.5-5.5-5.5s-5.5 2.467-5.5 5.5c0 1.034 0.304 1.99 0.801 2.817-1.919 0.699-3.301 2.525-3.301 4.683v4c0 1.654 1.346 3 3 3zM16 2c1.933 0 3.5 1.567 3.5 3.5s-1.567 3.5-3.5 3.5-3.5-1.567-3.5-3.5 1.567-3.5 3.5-3.5zM10 13c0-1.61 1.277-2.918 2.871-2.987 0.89 0.619 1.966 0.987 3.129 0.987s2.239-0.368 3.129-0.987c1.593 0.069 2.871 1.377 2.871 2.987v4c0 0.552-0.449 1-1 1h-2v7c0 0.552-0.449 1-1 1h-4c-0.551 0-1-0.448-1-1v-7h-2c-0.551 0-1-0.448-1-1v-4z"></path>
</svg>
