<!-- Generated by IcoMoon.io -->
<svg version="1.1" xmlns="http://www.w3.org/2000/svg" width="32" height="32" viewBox="0 0 32 32">
<title>street-view-solid</title>
<path d="M22.994 20.61c-0.289 0.331-0.611 0.631-0.994 0.853v1.434c4.157 0.584 7 1.753 7 3.103 0 1.933-5.82 3.5-13 3.5s-13-1.567-13-3.5c0-1.35 2.842-2.519 7-3.103v-1.434c-0.383-0.222-0.705-0.522-0.994-0.853-5.327 0.974-9.006 3.018-9.006 5.39 0 3.314 7.164 6 16 6s16-2.686 16-6c0-2.372-3.679-4.416-9.006-5.39zM16 8c2.209 0 4-1.791 4-4s-1.791-4-4-4-4 1.791-4 4 1.791 4 4 4zM12 20v6c0 1.104 0.896 2 2 2h4c1.104 0 2-0.896 2-2v-6c1.104 0 2-0.896 2-2v-6c0-1.657-1.343-3-3-3h-0.738c-0.692 0.314-1.454 0.5-2.262 0.5s-1.571-0.186-2.262-0.5h-0.738c-1.657 0-3 1.343-3 3v6c0 1.104 0.896 2 2 2z"></path>
</svg>
