<!-- Generated by IcoMoon.io -->
<svg version="1.1" xmlns="http://www.w3.org/2000/svg" width="32" height="32" viewBox="0 0 32 32">
<title>strikethrough</title>
<path d="M22.585 20c0.874 0.828 1.418 1.996 1.418 3.292 0 0.345-0.038 0.681-0.111 1.003l0.006-0.030c-0.304 1.438-1.347 2.633-2.692 3.22-0.724 0.324-1.57 0.514-2.459 0.515h-4.122c-0.005 0-0.011 0-0.016 0-2.149 0-3.975-1.384-4.635-3.309l-0.010-0.034c-0.065-0.209-0.256-0.359-0.483-0.359-0.038 0-0.074 0.004-0.11 0.012l0.003-0.001-0.978 0.228c-0.227 0.050-0.394 0.25-0.394 0.489 0 0.049 0.007 0.096 0.020 0.14l-0.001-0.004c0.903 2.827 3.506 4.838 6.579 4.838 0.009 0 0.017-0 0.026-0h4.124c1.179-0.002 2.298-0.253 3.31-0.703l-0.052 0.021c2.096-0.913 3.635-2.886 3.938-5.152 0.037-0.262 0.058-0.564 0.058-0.871 0-1.214-0.331-2.351-0.908-3.325l0.017 0.030zM10.578 14h4.268l-2.461-1.226c-1.549-0.771-2.5-2.341-2.456-4.169 0.035-1.73 1.038-3.218 2.488-3.947l0.026-0.012c0.798-0.406 1.74-0.645 2.738-0.646h2.992c2.564 0.003 4.795 1.425 5.952 3.522l0.018 0.035c0.085 0.163 0.252 0.273 0.445 0.273 0.072 0 0.141-0.015 0.204-0.043l-0.003 0.001 0.913-0.414c0.178-0.080 0.299-0.256 0.299-0.46 0-0.083-0.020-0.161-0.055-0.23l0.001 0.003c-1.507-2.806-4.42-4.683-7.772-4.686h-2.992c-1.325 0.002-2.576 0.319-3.682 0.88l0.047-0.021c-2.232 1.116-3.619 3.364-3.619 5.951 0 0.004-0 0.009-0 0.015 0 2.123 1.037 4.004 2.632 5.164l0.018 0.013zM31.5 16h-31c-0.276 0-0.5 0.224-0.5 0.5v0 1c0 0.276 0.224 0.5 0.5 0.5v0h31c0.276 0 0.5-0.224 0.5-0.5v0-1c0-0.276-0.224-0.5-0.5-0.5v0z"></path>
</svg>
