<!-- Generated by IcoMoon.io -->
<svg version="1.1" xmlns="http://www.w3.org/2000/svg" width="32" height="32" viewBox="0 0 32 32">
<title>strikethrough-solid</title>
<path d="M31 14h-12.631l-5.448-1.677c-1.121-0.353-1.921-1.384-1.921-2.601 0-1.503 1.219-2.722 2.722-2.722h4.174c0.001 0 0.001 0 0.002 0 1.214 0 2.266 0.694 2.781 1.706l0.008 0.018c0.168 0.33 0.505 0.552 0.894 0.552 0.163 0 0.317-0.039 0.453-0.108l-0.006 0.003 2.684-1.342c0.33-0.168 0.553-0.505 0.553-0.894 0-0.163-0.039-0.317-0.108-0.452l0.003 0.006-0.033-0.063c-1.342-2.644-4.042-4.425-7.157-4.425-0 0-0.001 0-0.001 0h-4.25c-4.266 0.004-7.724 3.463-7.724 7.73 0 0.263 0.013 0.523 0.039 0.78l-0.003-0.032c0.125 1.306 0.631 2.489 1.361 3.522h-6.393c-0.552 0-1 0.448-1 1v0 2c0 0.552 0.448 1 1 1v0h30c0.552 0 1-0.448 1-1v0-2c0-0.552-0.448-1-1-1v0zM19.735 20c0.764 0.482 1.264 1.322 1.265 2.278v0c-0.001 1.503-1.219 2.72-2.722 2.722h-4.175c-0.001 0-0.001 0-0.002 0-1.214 0-2.266-0.694-2.781-1.706l-0.008-0.018c-0.168-0.33-0.505-0.552-0.894-0.552-0.163 0-0.317 0.039-0.453 0.108l0.006-0.003-2.684 1.342c-0.33 0.168-0.553 0.505-0.553 0.894 0 0.163 0.039 0.317 0.108 0.452l-0.003-0.006 0.033 0.063c1.342 2.644 4.042 4.425 7.157 4.425 0 0 0.001 0 0.001 0h4.25c4.266-0.004 7.724-3.463 7.724-7.73 0-0.263-0.013-0.523-0.039-0.78l0.003 0.032c-0.062-0.565-0.179-1.081-0.349-1.573l0.015 0.050z"></path>
</svg>
