<!-- Generated by IcoMoon.io -->
<svg version="1.1" xmlns="http://www.w3.org/2000/svg" width="32" height="32" viewBox="0 0 32 32">
<title>stroopwafel</title>
<path d="M16 0c-8.836 0-16 7.164-16 16s7.164 16 16 16 16-7.164 16-16-7.164-16-16-16zM16 30c-7.719 0-14-6.281-14-14s6.281-14 14-14 14 6.281 14 14-6.281 14-14 14zM25.899 16l1.767-1.768c0.195-0.195 0.195-0.512 0-0.707l-0.707-0.707c-0.195-0.195-0.512-0.195-0.707 0l-1.767 1.768-2.829-2.828 1.414-1.414 1.061 1.061c0.195 0.195 0.512 0.195 0.707 0l0.707-0.707c0.195-0.195 0.195-0.512 0-0.707l-1.061-1.061 0.354-0.354c0.195-0.195 0.195-0.512 0-0.707l-0.707-0.707c-0.195-0.195-0.512-0.195-0.707 0l-0.354 0.354-1.061-1.061c-0.195-0.195-0.512-0.195-0.707 0l-0.707 0.707c-0.195 0.195-0.195 0.512 0 0.707l1.061 1.061-1.414 1.414-2.829-2.828 1.768-1.768c0.195-0.195 0.195-0.512 0-0.707l-0.707-0.709c-0.195-0.195-0.512-0.195-0.707 0l-1.768 1.768-1.768-1.768c-0.195-0.195-0.512-0.195-0.707 0l-0.707 0.707c-0.195 0.195-0.195 0.512 0 0.707l1.768 1.768-2.828 2.828-1.414-1.414 1.061-1.061c0.195-0.195 0.195-0.512 0-0.707l-0.707-0.707c-0.195-0.195-0.512-0.195-0.707 0l-1.061 1.061-0.354-0.354c-0.195-0.195-0.512-0.195-0.707 0l-0.707 0.707c-0.195 0.195-0.195 0.512 0 0.707l0.354 0.354-1.061 1.061c-0.195 0.195-0.195 0.512 0 0.707l0.707 0.707c0.195 0.195 0.512 0.195 0.707 0l1.061-1.061 1.414 1.414-2.828 2.828-1.768-1.768c-0.195-0.195-0.512-0.195-0.707 0l-0.709 0.709c-0.195 0.195-0.195 0.512 0 0.707l1.768 1.768-1.768 1.768c-0.195 0.195-0.195 0.512 0 0.707l0.707 0.707c0.195 0.195 0.512 0.195 0.707 0l1.768-1.768 2.828 2.828-1.414 1.414-1.061-1.061c-0.195-0.195-0.512-0.195-0.707 0l-0.707 0.707c-0.195 0.195-0.195 0.512 0 0.707l1.061 1.061-0.354 0.354c-0.195 0.195-0.195 0.512 0 0.707l0.707 0.707c0.195 0.195 0.512 0.195 0.707 0l0.354-0.354 1.061 1.061c0.195 0.195 0.512 0.195 0.707 0l0.707-0.707c0.195-0.195 0.195-0.512 0-0.707l-1.061-1.061 1.414-1.414 2.829 2.829-1.768 1.768c-0.195 0.195-0.195 0.512 0 0.707l0.707 0.707c0.195 0.195 0.512 0.195 0.707 0l1.769-1.768 1.768 1.768c0.195 0.195 0.512 0.195 0.707 0l0.707-0.707c0.195-0.195 0.195-0.512 0-0.707l-1.768-1.768 2.829-2.829 1.414 1.414-1.061 1.061c-0.195 0.195-0.195 0.512 0 0.707l0.707 0.707c0.195 0.195 0.512 0.195 0.707 0l1.061-1.061 0.354 0.354c0.195 0.195 0.512 0.195 0.707 0l0.707-0.707c0.195-0.195 0.195-0.512 0-0.707l-0.354-0.354 1.061-1.061c0.195-0.195 0.195-0.512 0-0.707l-0.707-0.707c-0.195-0.195-0.512-0.195-0.707 0l-1.061 1.061-1.414-1.414 2.828-2.828 1.768 1.767c0.195 0.195 0.512 0.195 0.707 0l0.707-0.707c0.195-0.195 0.195-0.512 0-0.707l-1.767-1.769zM16 8.929l2.828 2.828-2.828 2.829-2.828-2.828 2.828-2.829zM8.929 16l2.828-2.829 2.829 2.829-2.829 2.829-2.828-2.829zM16 23.071l-2.829-2.829 2.829-2.829 2.829 2.829-2.829 2.829zM20.242 18.828l-2.828-2.828 2.829-2.828 2.828 2.828-2.829 2.828z"></path>
</svg>
