<!-- Generated by IcoMoon.io -->
<svg version="1.1" xmlns="http://www.w3.org/2000/svg" width="32" height="32" viewBox="0 0 32 32">
<title>stroopwafel-solid</title>
<path d="M11.758 13.171l-2.829 2.829 2.828 2.828 2.829-2.828-2.828-2.829zM18.828 11.758l-2.828-2.829-2.828 2.828 2.828 2.829 2.828-2.828zM13.172 20.242l2.828 2.829 2.829-2.829-2.829-2.828-2.828 2.828zM16 0c-8.836 0-16 7.164-16 16s7.164 16 16 16 16-7.164 16-16-7.164-16-16-16zM27.668 18.475l-0.707 0.707c-0.195 0.195-0.512 0.195-0.707 0l-1.768-1.768-2.828 2.828 2.121 2.121 1.061-1.061c0.195-0.195 0.512-0.195 0.707 0l0.707 0.707c0.195 0.195 0.195 0.512 0 0.707l-1.061 1.061 1.061 1.061c0.195 0.195 0.195 0.512 0 0.707l-0.707 0.707c-0.195 0.195-0.512 0.195-0.707 0l-1.061-1.061-1.061 1.061c-0.195 0.195-0.512 0.195-0.707 0l-0.707-0.707c-0.195-0.195-0.195-0.512 0-0.707l1.061-1.061-2.121-2.121-2.829 2.829 1.768 1.768c0.195 0.195 0.195 0.512 0 0.707l-0.707 0.707c-0.195 0.195-0.512 0.195-0.707 0l-1.769-1.767-1.768 1.768c-0.195 0.195-0.512 0.195-0.707 0l-0.707-0.707c-0.195-0.195-0.195-0.512 0-0.707l1.768-1.768-2.828-2.829-2.121 2.121 1.061 1.061c0.195 0.195 0.195 0.512 0 0.707l-0.707 0.707c-0.195 0.195-0.512 0.195-0.707 0l-1.061-1.061-1.061 1.061c-0.195 0.195-0.512 0.195-0.707 0l-0.707-0.707c-0.195-0.195-0.195-0.512 0-0.707l1.061-1.061-1.061-1.061c-0.195-0.195-0.195-0.512 0-0.707l0.707-0.707c0.195-0.195 0.512-0.195 0.707 0l1.061 1.061 2.121-2.121-2.828-2.828-1.768 1.768c-0.195 0.195-0.512 0.195-0.707 0l-0.709-0.708c-0.195-0.195-0.195-0.512 0-0.707l1.768-1.768-1.768-1.768c-0.195-0.195-0.195-0.512 0-0.707l0.707-0.707c0.195-0.195 0.512-0.195 0.707 0l1.768 1.768 2.828-2.829-2.121-2.121-1.061 1.061c-0.195 0.195-0.512 0.195-0.707 0l-0.707-0.707c-0.195-0.195-0.195-0.512 0-0.707l1.061-1.061-1.061-1.061c-0.195-0.195-0.195-0.512 0-0.707l0.707-0.707c0.195-0.195 0.512-0.195 0.707 0l1.061 1.061 1.061-1.061c0.195-0.195 0.512-0.195 0.707 0l0.707 0.707c0.195 0.195 0.195 0.512 0 0.707l-1.061 1.061 2.121 2.121 2.829-2.828-1.768-1.768c-0.195-0.195-0.195-0.512 0-0.707l0.707-0.707c0.195-0.195 0.512-0.195 0.707 0l1.769 1.767 1.768-1.768c0.195-0.195 0.512-0.195 0.707 0l0.707 0.707c0.195 0.195 0.195 0.512 0 0.707l-1.768 1.768 2.829 2.828 2.121-2.121-1.061-1.061c-0.195-0.195-0.195-0.512 0-0.707l0.707-0.707c0.195-0.195 0.512-0.195 0.707 0l1.061 1.061 1.061-1.061c0.195-0.195 0.512-0.195 0.707 0l0.707 0.707c0.195 0.195 0.195 0.512 0 0.707l-1.061 1.061 1.061 1.061c0.195 0.195 0.195 0.512 0 0.707l-0.707 0.707c-0.195 0.195-0.512 0.195-0.707 0l-1.061-1.061-2.121 2.121 2.828 2.829 1.768-1.768c0.195-0.195 0.512-0.195 0.707 0l0.707 0.707c0.195 0.195 0.195 0.512 0 0.707l-1.767 1.769 1.768 1.768c0.090 0.091 0.146 0.216 0.146 0.354s-0.056 0.263-0.146 0.354v0zM17.414 16l2.829 2.828 2.828-2.828-2.828-2.829-2.829 2.829z"></path>
</svg>
