<!-- Generated by IcoMoon.io -->
<svg version="1.1" xmlns="http://www.w3.org/2000/svg" width="32" height="32" viewBox="0 0 32 32">
<title>subscript</title>
<path d="M21.5 4h-3.5c-0.353 0-0.663 0.183-0.841 0.459l-0.002 0.004-6.157 9.674-6.156-9.674c-0.18-0.28-0.491-0.463-0.844-0.463-0 0-0 0-0 0h-3.5c-0.276 0-0.5 0.224-0.5 0.5v0 1c0 0.276 0.224 0.5 0.5 0.5v0h2.951l6.361 10-6.361 10h-2.951c-0.276 0-0.5 0.224-0.5 0.5v0 1c0 0.276 0.224 0.5 0.5 0.5v0h3.5c0 0 0 0 0 0 0.353 0 0.663-0.183 0.841-0.459l0.002-0.004 6.156-9.674 6.157 9.674c0.18 0.28 0.49 0.463 0.843 0.463h3.5c0.276 0 0.5-0.224 0.5-0.5v0-1c0-0.276-0.224-0.5-0.5-0.5v0h-2.951l-6.361-10 6.361-10h2.951c0.276 0 0.5-0.224 0.5-0.5v0-1c0-0.276-0.224-0.5-0.5-0.5v0zM31.5 30h-2.5v-11c0-0.552-0.448-1-1-1v0h-1c-0.389 0-0.725 0.222-0.89 0.546l-0.003 0.006-1 2c-0.067 0.131-0.106 0.285-0.106 0.448 0 0.552 0.447 1 0.999 1h1v8h-2.5c-0.276 0-0.5 0.224-0.5 0.5v0 1c0 0.276 0.224 0.5 0.5 0.5v0h7c0.276 0 0.5-0.224 0.5-0.5v0-1c0-0.276-0.224-0.5-0.5-0.5v0z"></path>
</svg>
