<!-- Generated by IcoMoon.io -->
<svg version="1.1" xmlns="http://www.w3.org/2000/svg" width="24" height="32" viewBox="0 0 24 32">
<title>suitcase-rolling-solid</title>
<path d="M21 10h-18c-1.657 0-3 1.343-3 3v14c0 1.657 1.343 3 3 3h1v1c0 0.552 0.447 1 1 1h2c0.553 0 1-0.448 1-1v-1h8v1c0 0.552 0.448 1 1 1h2c0.552 0 1-0.448 1-1v-1h1c1.657 0 3-1.343 3-3v-14c0-1.657-1.343-3-3-3zM20 23.5c0 0.276-0.224 0.5-0.5 0.5h-15c-0.276 0-0.5-0.224-0.5-0.5v-1c0-0.276 0.224-0.5 0.5-0.5h15c0.276 0 0.5 0.224 0.5 0.5v1zM20 17.5c0 0.276-0.224 0.5-0.5 0.5h-15c-0.276 0-0.5-0.224-0.5-0.5v-1c0-0.276 0.224-0.5 0.5-0.5h15c0.276 0 0.5 0.224 0.5 0.5v1zM9 3h6v5h3v-5c0-1.657-1.343-3-3-3h-6c-1.657 0-3 1.343-3 3v5h3v-5z"></path>
</svg>
