<!-- Generated by IcoMoon.io -->
<svg version="1.1" xmlns="http://www.w3.org/2000/svg" width="32" height="32" viewBox="0 0 32 32">
<title>suitcase</title>
<path d="M29 8h-7v-3c0-1.654-1.346-3-3-3h-6c-1.654 0-3 1.346-3 3v3h-7c-1.656 0-3 1.344-3 3v16c0 1.656 1.344 3 3 3h26c1.656 0 3-1.344 3-3v-16c0-1.656-1.344-3-3-3zM12 5c0-0.552 0.449-1 1-1h6c0.551 0 1 0.448 1 1v3h-8v-3zM6 28h-3c-0.55 0-1-0.45-1-1v-16c0-0.55 0.45-1 1-1h3v18zM24 28h-16v-18h16v18zM30 27c0 0.55-0.45 1-1 1h-3v-18h3c0.55 0 1 0.45 1 1v16z"></path>
</svg>
