<!-- Generated by IcoMoon.io -->
<svg version="1.1" xmlns="http://www.w3.org/2000/svg" width="32" height="32" viewBox="0 0 32 32">
<title>sun-solid</title>
<path d="M16 10c-3.306 0-6 2.694-6 6s2.694 6 6 6 6-2.694 6-6-2.694-6-6-6zM31.4 15.031l-5.919-2.956 2.094-6.275c0.281-0.85-0.525-1.656-1.369-1.369l-6.275 2.094-2.962-5.925c-0.4-0.8-1.537-0.8-1.938 0l-2.956 5.919-6.281-2.094c-0.85-0.281-1.656 0.525-1.369 1.369l2.094 6.275-5.919 2.963c-0.8 0.4-0.8 1.538 0 1.938l5.919 2.956-2.094 6.281c-0.281 0.85 0.525 1.656 1.369 1.369l6.275-2.094 2.956 5.919c0.4 0.8 1.538 0.8 1.938 0l2.956-5.919 6.275 2.094c0.85 0.281 1.656-0.525 1.369-1.369l-2.094-6.275 5.919-2.956c0.813-0.406 0.813-1.544 0.012-1.944zM21.656 21.656c-3.119 3.119-8.194 3.119-11.313 0s-3.119-8.194 0-11.313c3.119-3.119 8.194-3.119 11.313 0s3.119 8.194 0 11.313z"></path>
</svg>
