<!-- Generated by IcoMoon.io -->
<svg version="1.1" xmlns="http://www.w3.org/2000/svg" width="40" height="32" viewBox="0 0 40 32">
<title>sun-haze-solid</title>
<path d="M12.1 15c0.213-1.7 0.938-3.35 2.244-4.656 3.119-3.119 8.194-3.119 11.313 0 1.306 1.306 2.031 2.956 2.244 4.656h7.438l-5.856-2.931 2.094-6.275c0.281-0.85-0.525-1.656-1.369-1.369l-6.275 2.094-2.962-5.919c-0.4-0.8-1.538-0.8-1.938 0l-2.956 5.919-6.281-2.094c-0.85-0.281-1.656 0.525-1.369 1.369l2.094 6.275-5.856 2.931h7.437zM20 10c-2.969 0-5.419 2.169-5.9 5h11.8c-0.481-2.831-2.931-5-5.9-5zM5 21h21c0.55 0 1-0.45 1-1v-1c0-0.55-0.45-1-1-1h-21c-0.55 0-1 0.45-1 1v1c0 0.55 0.45 1 1 1zM39 18h-8c-0.55 0-1 0.45-1 1v1c0 0.55 0.45 1 1 1h8c0.55 0 1-0.45 1-1v-1c0-0.55-0.45-1-1-1zM13 29h-8c-0.55 0-1 0.45-1 1v1c0 0.55 0.45 1 1 1h8c0.55 0 1-0.45 1-1v-1c0-0.55-0.45-1-1-1zM39 29h-21c-0.55 0-1 0.45-1 1v1c0 0.55 0.45 1 1 1h21c0.55 0 1-0.45 1-1v-1c0-0.55-0.45-1-1-1zM36 25.5v-1c0-0.55-0.45-1-1-1h-34c-0.55 0-1 0.45-1 1v1c0 0.55 0.45 1 1 1h34c0.55 0 1-0.45 1-1z"></path>
</svg>
