<!-- Generated by IcoMoon.io -->
<svg version="1.1" xmlns="http://www.w3.org/2000/svg" width="32" height="32" viewBox="0 0 32 32">
<title>sun-dust</title>
<path d="M7.719 11.969l-1.050-5.3 5.3 1.050c0.4 0.075 0.794-0.075 1.025-0.425l3.006-4.494 3.006 4.494c0.238 0.35 0.663 0.519 1.075 0.412l5.356-1.344c0.181-0.044 0.337-0.138 0.462-0.263 0.238-0.237 0.35-0.594 0.262-0.95-0.131-0.537-0.675-0.862-1.212-0.725l-4.675 1.169-3.444-5.15c-0.188-0.275-0.494-0.444-0.831-0.444-0.331 0-0.644 0.156-0.831 0.444l-3.463 5.181-6.112-1.213c-0.063-0.013-0.125 0-0.188 0-0.069 0-0.131-0.013-0.2 0-0.131 0.025-0.256 0.081-0.362 0.15-0.031 0.019-0.050 0.056-0.081 0.081-0.069 0.056-0.138 0.119-0.194 0.194-0.075 0.106-0.125 0.231-0.15 0.362-0.013 0.069 0 0.131 0 0.194s-0.013 0.131 0 0.194v0.006l1.206 6.112-5.181 3.463c-0.281 0.188-0.444 0.494-0.444 0.831 0 0.331 0.169 0.644 0.444 0.831l5.15 3.444-1.169 4.675c-0.138 0.538 0.188 1.081 0.725 1.212 0.356 0.087 0.713-0.025 0.95-0.262 0.125-0.125 0.219-0.281 0.263-0.462l1.344-5.356c0.106-0.413-0.063-0.837-0.412-1.075l-4.494-3.006 4.494-3.006c0.344-0.225 0.5-0.631 0.425-1.025zM19.181 12.144c0.206 0.169 0.5 0.175 0.688-0.019l0.706-0.706c0.2-0.2 0.2-0.537-0.012-0.725-2.744-2.369-6.912-2.25-9.512 0.356-2.606 2.606-2.725 6.769-0.356 9.513 0.188 0.219 0.525 0.219 0.725 0.012l0.706-0.706c0.188-0.188 0.188-0.481 0.019-0.688-1.625-1.962-1.519-4.881 0.319-6.719s4.762-1.938 6.719-0.319zM30.669 29.331c-0.738 0-1.331 0.6-1.331 1.331 0 0.738 0.594 1.331 1.331 1.331s1.331-0.6 1.331-1.331c0-0.731-0.6-1.331-1.331-1.331zM30.669 18.669c-0.738 0-1.331 0.6-1.331 1.331 0 0.738 0.594 1.331 1.331 1.331s1.331-0.6 1.331-1.331c0-0.738-0.6-1.331-1.331-1.331zM30.669 10.669c0.738 0 1.331-0.6 1.331-1.331 0-0.738-0.6-1.331-1.331-1.331-0.738 0-1.331 0.6-1.331 1.331-0.006 0.731 0.594 1.331 1.331 1.331zM9.331 29.331c-0.738 0-1.331 0.6-1.331 1.331 0 0.738 0.6 1.331 1.331 1.331 0.738 0 1.331-0.6 1.331-1.331 0.006-0.731-0.594-1.331-1.331-1.331zM14.669 24c-0.738 0-1.331 0.6-1.331 1.331 0 0.738 0.594 1.331 1.331 1.331s1.331-0.6 1.331-1.331c0-0.731-0.6-1.331-1.331-1.331zM20 18.669c-0.738 0-1.331 0.6-1.331 1.331 0 0.738 0.6 1.331 1.331 1.331s1.331-0.6 1.331-1.331c0-0.738-0.594-1.331-1.331-1.331zM25.331 13.331c-0.738 0-1.331 0.6-1.331 1.331 0 0.738 0.6 1.331 1.331 1.331 0.738 0 1.331-0.6 1.331-1.331 0.006-0.731-0.594-1.331-1.331-1.331zM20 29.331c-0.738 0-1.331 0.6-1.331 1.331 0 0.738 0.6 1.331 1.331 1.331s1.331-0.6 1.331-1.331c0-0.731-0.594-1.331-1.331-1.331zM25.331 24c-0.738 0-1.331 0.6-1.331 1.331 0 0.738 0.6 1.331 1.331 1.331 0.738 0 1.331-0.6 1.331-1.331 0.006-0.731-0.594-1.331-1.331-1.331z"></path>
</svg>
