<!-- Generated by IcoMoon.io -->
<svg version="1.1" xmlns="http://www.w3.org/2000/svg" width="40" height="32" viewBox="0 0 40 32">
<title>sun-cloud</title>
<path d="M34.888 11.6c-1.006-2.131-3.175-3.6-5.637-3.6-2.606 0-4.85 1.575-5.781 3.906-2.031 0.713-3.469 2.631-3.469 4.894 0 2.869 2.331 5.2 5.2 5.2h9.6c2.869 0 5.2-2.331 5.2-5.2 0-2.838-2.288-5.15-5.112-5.2zM34.8 20h-9.6c-1.769 0-3.2-1.431-3.2-3.2 0-1.719 1.363-3.113 3.063-3.188 0.306-2.044 2.056-3.613 4.188-3.613 2.238 0 4.050 1.738 4.219 3.931 0.406-0.194 0.85-0.331 1.331-0.331 1.769 0 3.2 1.431 3.2 3.2s-1.431 3.2-3.2 3.2zM25.2 24c-0.044 0-0.087-0.012-0.131-0.012l0.269 1.35-5.3-1.050c-0.413-0.081-0.8 0.087-1.025 0.425l-3.012 4.488-3.006-4.494c-0.225-0.331-0.619-0.506-1.025-0.425l-5.3 1.050 1.050-5.3c0.075-0.394-0.088-0.8-0.425-1.025l-4.494-3.006 4.494-3.006c0.338-0.225 0.5-0.631 0.425-1.025l-1.050-5.3 5.3 1.050c0.406 0.081 0.8-0.094 1.025-0.425l3.006-4.494 3.006 4.494c0.225 0.331 0.619 0.506 1.025 0.425l6.769-1.344c0.544-0.106 0.894-0.631 0.788-1.175s-0.631-0.9-1.175-0.787l-6.113 1.212-3.469-5.181c-0.188-0.275-0.5-0.444-0.831-0.444s-0.644 0.169-0.831 0.444l-3.469 5.181-6.112-1.213c-0.331-0.069-0.662 0.037-0.9 0.275s-0.338 0.575-0.275 0.9l1.212 6.112-5.181 3.469c-0.275 0.188-0.444 0.494-0.444 0.831s0.169 0.644 0.444 0.831l5.181 3.469-1.213 6.113c-0.063 0.325 0.037 0.669 0.275 0.9 0.237 0.238 0.569 0.337 0.9 0.275l6.113-1.212 3.469 5.181c0.188 0.275 0.5 0.444 0.831 0.444s0.644-0.169 0.831-0.444l3.462-5.181 6.113 1.212c0.337 0.069 0.669-0.038 0.9-0.275 0.238-0.238 0.337-0.575 0.275-0.9l-0.475-2.413h-1.906zM16 11.231c1.313 0 2.5 0.531 3.363 1.394 0.387-0.544 0.85-1.025 1.375-1.444-1.219-1.2-2.894-1.944-4.738-1.944-3.731 0-6.769 3.037-6.769 6.769s3.037 6.762 6.769 6.762c1.425 0 2.75-0.45 3.844-1.206-0.444-0.5-0.819-1.056-1.113-1.663-0.775 0.544-1.712 0.869-2.731 0.869-2.631 0-4.769-2.137-4.769-4.769s2.137-4.769 4.769-4.769z"></path>
</svg>
