<!-- Generated by IcoMoon.io -->
<svg version="1.1" xmlns="http://www.w3.org/2000/svg" width="32" height="32" viewBox="0 0 32 32">
<title>sun-dust-solid</title>
<path d="M16 10c-3.306 0-6 2.694-6 6 0 1.656 0.675 3.156 1.756 4.238l8.481-8.481c-1.081-1.081-2.581-1.756-4.238-1.756zM26.206 4.425l-6.275 2.094-2.962-5.919c-0.4-0.8-1.537-0.8-1.938 0l-2.956 5.919-6.281-2.094c-0.85-0.281-1.656 0.525-1.369 1.369l2.094 6.275-5.919 2.963c-0.8 0.4-0.8 1.538 0 1.938l5.919 2.956-2.094 6.281c-0.144 0.425-0.013 0.837 0.263 1.106l5.656-5.656c-3.119-3.119-3.119-8.194 0-11.313s8.194-3.119 11.313 0l5.656-5.656c-0.269-0.275-0.681-0.406-1.106-0.263zM10 28c-1.106 0-2 0.894-2 2s0.894 2 2 2 2-0.894 2-2-0.894-2-2-2zM30 12c1.106 0 2-0.894 2-2s-0.894-2-2-2-2 0.894-2 2 0.894 2 2 2zM24 18c0-1.106-0.894-2-2-2s-2 0.894-2 2 0.894 2 2 2 2-0.894 2-2zM15 22c-1.106 0-2 0.894-2 2s0.894 2 2 2 2-0.894 2-2-0.894-2-2-2zM25 22c-1.106 0-2 0.894-2 2s0.894 2 2 2 2-0.894 2-2-0.894-2-2-2zM30 28c-1.106 0-2 0.894-2 2s0.894 2 2 2 2-0.894 2-2-0.894-2-2-2zM30 16c-1.106 0-2 0.894-2 2s0.894 2 2 2 2-0.894 2-2-0.894-2-2-2zM20 28c-1.106 0-2 0.894-2 2s0.894 2 2 2 2-0.894 2-2-0.894-2-2-2z"></path>
</svg>
