<!-- Generated by IcoMoon.io -->
<svg version="1.1" xmlns="http://www.w3.org/2000/svg" width="40" height="32" viewBox="0 0 40 32">
<title>sun-cloud-solid</title>
<path d="M36 14c-0.75 0-1.444 0.219-2.044 0.575-0.219-2.563-2.337-4.575-4.956-4.575-2.425 0-4.444 1.725-4.9 4.012-0.031 0-0.063-0.012-0.1-0.012-2.206 0-4 1.794-4 4s1.794 4 4 4h12c2.206 0 4-1.794 4-4s-1.794-4-4-4zM26.837 24h-2.837c-1.387 0-2.65-0.494-3.663-1.281-3.1 2-7.281 1.65-9.994-1.056-3.119-3.119-3.119-8.194 0-11.313s8.194-3.119 11.313 0c0.45 0.45 0.813 0.944 1.131 1.463 0.825-1.594 2.225-2.813 3.913-3.406l0.869-2.606c0.281-0.85-0.525-1.656-1.369-1.369l-6.275 2.094-2.956-5.925c-0.4-0.8-1.537-0.8-1.938 0l-2.956 5.919-6.281-2.094c-0.85-0.281-1.656 0.525-1.369 1.369l2.094 6.275-5.919 2.963c-0.8 0.4-0.8 1.538 0 1.938l5.919 2.956-2.094 6.281c-0.281 0.85 0.525 1.656 1.369 1.369l6.275-2.094 2.956 5.919c0.4 0.8 1.538 0.8 1.938 0l2.956-5.919 6.275 2.094c0.85 0.281 1.656-0.525 1.369-1.369l-0.725-2.206zM21.056 12.794c-1.069-1.675-2.931-2.794-5.056-2.794-3.306 0-6 2.694-6 6s2.694 6 6 6c1.075 0 2.069-0.306 2.944-0.8-0.587-0.925-0.944-2.019-0.944-3.2 0-2.238 1.238-4.175 3.056-5.206z"></path>
</svg>
