<!-- Generated by IcoMoon.io -->
<svg version="1.1" xmlns="http://www.w3.org/2000/svg" width="40" height="32" viewBox="0 0 40 32">
<title>sun-haze</title>
<path d="M13.5 30h-9c-0.275 0-0.5 0.225-0.5 0.5v1c0 0.275 0.225 0.5 0.5 0.5h9c0.275 0 0.5-0.225 0.5-0.5v-1c0-0.275-0.225-0.5-0.5-0.5zM39.5 30h-21c-0.275 0-0.5 0.225-0.5 0.5v1c0 0.275 0.225 0.5 0.5 0.5h21c0.275 0 0.5-0.225 0.5-0.5v-1c0-0.275-0.225-0.5-0.5-0.5zM36 26.5v-1c0-0.275-0.225-0.5-0.5-0.5h-35c-0.275 0-0.5 0.225-0.5 0.5v1c0 0.275 0.225 0.5 0.5 0.5h35c0.275 0 0.5-0.225 0.5-0.5zM39.5 19.994h-9c-0.275 0-0.5 0.225-0.5 0.5v1c0 0.275 0.225 0.5 0.5 0.5h9c0.275 0 0.5-0.225 0.5-0.5v-1c0-0.275-0.225-0.5-0.5-0.5zM4.5 22h21c0.275 0 0.5-0.225 0.5-0.5v-1c0-0.275-0.225-0.5-0.5-0.5h-21c-0.275 0-0.5 0.225-0.5 0.5v1c0 0.275 0.225 0.5 0.5 0.5zM13.019 15.469c-0.019 0.281 0.219 0.525 0.506 0.525h1c0.269 0 0.475-0.213 0.5-0.475 0.238-2.537 2.381-4.525 4.975-4.525s4.738 1.988 4.975 4.525c0.025 0.262 0.231 0.475 0.5 0.475h1c0.288 0 0.525-0.238 0.506-0.525-0.269-3.619-3.3-6.475-6.981-6.475s-6.713 2.862-6.981 6.475zM6 15.994c0.175 0 0.356-0.044 0.513-0.144l4.737-2.838c0.363-0.219 0.55-0.637 0.469-1.050l-1.050-5.306 5.3 1.050c0.406 0.081 0.8-0.088 1.025-0.425l3.006-4.487 3.006 4.494c0.225 0.338 0.619 0.506 1.025 0.425l5.3-1.050-1.050 5.306c-0.081 0.412 0.106 0.838 0.469 1.050l4.737 2.838c0.163 0.094 0.337 0.144 0.513 0.144 0.337 0 0.669-0.175 0.856-0.488 0.288-0.475 0.131-1.088-0.344-1.369l-4.131-2.475 1.206-6.081c0.063-0.325-0.038-0.662-0.275-0.9s-0.569-0.344-0.9-0.275l-6.113 1.212-3.469-5.188c-0.038-0.056-0.087-0.088-0.131-0.131-0.050-0.050-0.081-0.106-0.144-0.144-0.113-0.075-0.238-0.125-0.363-0.15-0.038-0.006-0.075 0-0.113 0-0.087-0.006-0.181-0.019-0.269 0-0.125 0.025-0.25 0.075-0.363 0.15-0.056 0.038-0.094 0.094-0.137 0.138s-0.1 0.081-0.137 0.138l-0.006 0.006-3.463 5.175-6.112-1.212c-0.331-0.069-0.662 0.037-0.9 0.275s-0.338 0.575-0.275 0.9l1.206 6.081-4.131 2.475c-0.475 0.281-0.631 0.9-0.344 1.369 0.181 0.319 0.513 0.488 0.85 0.488z"></path>
</svg>
