<!-- Generated by IcoMoon.io -->
<svg version="1.1" xmlns="http://www.w3.org/2000/svg" width="32" height="32" viewBox="0 0 32 32">
<title>sun</title>
<path d="M16 8.981c-3.863 0-7 3.144-7 7.006s3.137 7.006 7 7.006 7-3.144 7-7.006-3.137-7.006-7-7.006zM16 20.994c-2.756 0-5-2.244-5-5.006s2.244-5.006 5-5.006 5 2.244 5 5.006-2.244 5.006-5 5.006zM32 15.988c0-0.331-0.169-0.644-0.444-0.831l-5.181-3.469 1.212-6.119c0.063-0.325-0.038-0.669-0.275-0.9-0.238-0.237-0.569-0.344-0.9-0.275l-6.113 1.213-3.469-5.188c-0.375-0.556-1.287-0.556-1.662 0l-3.469 5.188-6.112-1.219c-0.331-0.069-0.662 0.037-0.9 0.275s-0.338 0.575-0.275 0.9l1.212 6.125-5.181 3.469c-0.275 0.188-0.444 0.5-0.444 0.831s0.169 0.644 0.444 0.831l5.181 3.469-1.213 6.119c-0.063 0.325 0.037 0.669 0.275 0.9 0.237 0.238 0.569 0.344 0.9 0.275l6.112-1.212 3.469 5.188c0.188 0.281 0.5 0.444 0.831 0.444s0.644-0.169 0.831-0.444l3.469-5.188 6.113 1.212c0.337 0.075 0.669-0.038 0.9-0.275 0.238-0.238 0.337-0.575 0.275-0.9l-1.212-6.119 5.181-3.469c0.275-0.188 0.444-0.5 0.444-0.831zM24.706 18.994c-0.337 0.225-0.5 0.631-0.425 1.025l1.050 5.306-5.3-1.050c-0.413-0.087-0.8 0.087-1.025 0.425l-3.006 4.5-3.006-4.494c-0.188-0.281-0.5-0.444-0.831-0.444-0.063 0-0.131 0.006-0.194 0.019l-5.3 1.050 1.050-5.306c0.075-0.394-0.088-0.8-0.425-1.025l-4.494-3.006 4.494-3.013c0.338-0.225 0.5-0.631 0.425-1.025l-1.050-5.306 5.3 1.050c0.406 0.081 0.8-0.088 1.025-0.425l3.006-4.5 3.006 4.5c0.225 0.338 0.619 0.506 1.025 0.425l5.3-1.050-1.050 5.306c-0.075 0.394 0.087 0.8 0.425 1.025l4.494 3.012-4.494 3z"></path>
</svg>
