<!-- Generated by IcoMoon.io -->
<svg version="1.1" xmlns="http://www.w3.org/2000/svg" width="36" height="32" viewBox="0 0 36 32">
<title>sunglasses</title>
<path d="M6.697 19.102l-3.697 3.131v0.847c0 2.162 1.794 3.92 4 3.92h2.256c2.081 0 3.834-1.594 3.989-3.63l0.239-3.155c-1.624-0.745-3.522-1.18-5.522-1.183h-0.001c-0.439 0-0.856 0.030-1.264 0.069zM35.889 17.536l-2.844-11.75c-0.562-2.193-2.52-3.788-4.851-3.788-0.566 0-1.109 0.094-1.616 0.267l0.035-0.010-1.426 0.477c-0.2 0.068-0.342 0.255-0.342 0.474 0 0.056 0.009 0.11 0.026 0.161l-0.001-0.004 0.316 0.949c0.068 0.2 0.255 0.342 0.474 0.342 0.057 0 0.111-0.009 0.162-0.027l-0.004 0.001 1.362-0.454c0.631-0.211 1.322-0.247 1.953-0.031 1.008 0.348 1.723 1.133 1.969 2.116l2.538 10.714c-1.668-0.592-3.592-0.936-5.595-0.941h-0.002c-2.334 0-5.016 0.5-7.813 1.968h-4.459c-2.795-1.468-5.478-1.969-7.813-1.968-2.006 0.006-3.93 0.35-5.72 0.979l0.122-0.037 2.535-10.702c0.212-0.846 0.765-1.535 1.501-1.923l0.016-0.008c0.766-0.402 1.68-0.406 2.5-0.134l1.268 0.424c0.046 0.016 0.1 0.025 0.156 0.025 0.22 0 0.407-0.142 0.474-0.34l0.001-0.004 0.316-0.949c0.016-0.047 0.025-0.1 0.025-0.156 0-0.219-0.141-0.406-0.338-0.473l-0.004-0.001-1.429-0.476c-0.472-0.163-1.015-0.257-1.58-0.257-2.333 0-4.293 1.6-4.842 3.763l-0.007 0.035-2.84 11.737c-0.072 0.281-0.113 0.603-0.113 0.935 0 0.002 0 0.005 0 0.007v-0 4.602c0 3.823 3.132 6.92 7 6.92h2.256c3.662 0 6.706-2.792 6.981-6.402l0.271-3.598h2.985l0.271 3.598c0.275 3.611 3.318 6.402 6.981 6.402h2.256c3.867 0 7-3.098 7-6.92v-4.603c0-0.001 0-0.002 0-0.002 0-0.333-0.041-0.656-0.117-0.966l0.006 0.028zM14.242 23.446c-0.196 2.554-2.385 4.554-4.987 4.554h-2.256c-2.758 0-5-2.207-5-4.92v-3.83c1.759-0.761 3.807-1.207 5.958-1.217h0.004c2.271 0 4.476 0.527 6.572 1.571zM34 23.080c0 2.713-2.242 4.92-5 4.92h-2.256c-2.602 0-4.791-2-4.987-4.554l-0.291-3.843c2.096-1.041 4.302-1.571 6.574-1.571 2.154 0.010 4.2 0.457 6.060 1.256l-0.101-0.039zM26.805 19.098l-4.106 3.538 0.056 0.736c0.156 2.035 1.908 3.629 3.989 3.629h2.256c2.206 0 4-1.758 4-3.92v-3.151c-1.473-0.559-3.176-0.887-4.954-0.897l-0.004-0c-0.416 0-0.826 0.030-1.236 0.065z"></path>
</svg>
