<!-- Generated by IcoMoon.io -->
<svg version="1.1" xmlns="http://www.w3.org/2000/svg" width="36" height="32" viewBox="0 0 36 32">
<title>sunglasses-solid</title>
<path d="M35.881 17.524l-2.834-11.357c-0.616-2.412-2.77-4.167-5.333-4.167-0.623 0-1.222 0.104-1.78 0.295l0.039-0.011-0.953 0.317c-0.401 0.136-0.684 0.51-0.684 0.949 0 0.113 0.019 0.222 0.054 0.324l-0.002-0.007 0.316 0.947c0.136 0.401 0.509 0.684 0.949 0.684 0.113 0 0.221-0.019 0.322-0.053l-0.007 0.002 0.824-0.274c0.679-0.227 1.438-0.223 2.072 0.108 0.632 0.329 1.096 0.905 1.27 1.596l0.004 0.017 2.404 9.614c-1.517-0.489-3.262-0.773-5.073-0.779h-0.003c-2.172 0-4.625 0.437-7.178 1.672h-4.574c-2.553-1.234-5.004-1.672-7.178-1.672-1.814 0.006-3.559 0.29-5.199 0.812l0.123-0.034 2.404-9.613c0.177-0.709 0.642-1.284 1.26-1.607l0.014-0.006c0.634-0.331 1.392-0.334 2.072-0.108l0.822 0.274c0.095 0.033 0.203 0.051 0.317 0.051 0.439 0 0.813-0.283 0.947-0.678l0.002-0.007 0.316-0.949c0.032-0.094 0.051-0.202 0.051-0.315 0-0.439-0.283-0.812-0.676-0.946l-0.007-0.002-0.953-0.317c-0.52-0.179-1.118-0.283-1.741-0.283-2.563 0-4.717 1.754-5.325 4.128l-0.008 0.038-2.834 11.358c-0.069 0.288-0.113 0.621-0.119 0.963l-0 0.005v4.391c0 3.931 3.224 7.118 7.199 7.118h2.32c3.768 0 6.899-2.871 7.18-6.586l0.183-2.414h2.235l0.183 2.414c0.281 3.714 3.413 6.586 7.18 6.586h2.32c3.975 0 7.199-3.188 7.199-7.117v-4.391c0-0.003 0-0.006 0-0.009 0-0.341-0.044-0.672-0.125-0.987l0.006 0.027zM4.012 22.994c0-0.038-0.012-0.074-0.012-0.113v-2.347c1.349-0.502 2.907-0.797 4.533-0.806l0.004-0c0.571 0 1.134 0.076 1.696 0.155zM23.27 22.865l-0.176-2.33c1.297-0.51 2.8-0.805 4.371-0.806h0c0.637 0.005 1.259 0.056 1.866 0.15l-0.071-0.009z"></path>
</svg>
