<!-- Generated by IcoMoon.io -->
<svg version="1.1" xmlns="http://www.w3.org/2000/svg" width="36" height="32" viewBox="0 0 36 32">
<title>sunrise</title>
<path d="M5.987 28h2.406l-2.75-4.125 5.375-1.075c0.394-0.081 0.706-0.387 0.787-0.788l1.075-5.375 4.563 3.044c0.337 0.225 0.775 0.225 1.113 0l4.563-3.044 1.075 5.375c0.075 0.394 0.387 0.706 0.788 0.788l5.375 1.075-2.75 4.125h2.406l2.844-4.256c0.188-0.275 0.219-0.631 0.094-0.938s-0.4-0.531-0.731-0.6l-6.188-1.238-1.238-6.188c-0.063-0.325-0.288-0.6-0.6-0.731s-0.663-0.094-0.938 0.094l-5.25 3.5-5.25-3.5c-0.275-0.181-0.631-0.219-0.938-0.094s-0.531 0.4-0.6 0.731l-1.238 6.188-6.188 1.238c-0.325 0.063-0.6 0.288-0.731 0.6s-0.094 0.663 0.094 0.938l2.831 4.256zM12.356 7.356c0.194 0.194 0.512 0.194 0.706 0l3.938-3.938v10.081c0 0.275 0.225 0.5 0.5 0.5h1c0.275 0 0.5-0.225 0.5-0.5v-10.088l3.938 3.938c0.194 0.194 0.512 0.194 0.706 0l0.706-0.706c0.194-0.194 0.194-0.513 0-0.706l-5.644-5.644c-0.194-0.194-0.45-0.294-0.706-0.294s-0.512 0.1-0.706 0.294l-5.65 5.644c-0.194 0.194-0.194 0.513 0 0.706l0.713 0.713zM35.5 30h-35c-0.275 0-0.5 0.225-0.5 0.5v1c0 0.275 0.225 0.5 0.5 0.5h35c0.275 0 0.5-0.225 0.5-0.5v-1c0-0.275-0.225-0.5-0.5-0.5zM17.988 22c-3.519 0-6.406 2.619-6.9 6h2c0.463-2.281 2.481-4 4.9-4s4.431 1.719 4.9 4h2c-0.488-3.381-3.381-6-6.9-6z"></path>
</svg>
