<!-- Generated by IcoMoon.io -->
<svg version="1.1" xmlns="http://www.w3.org/2000/svg" width="36" height="32" viewBox="0 0 36 32">
<title>sunrise-solid</title>
<path d="M15.681 23.406c-1.287 0.531-2.269 1.469-2.912 2.594h10.45c-1.488-2.6-4.694-3.769-7.537-2.594zM5.044 26h5.475c0.012-0.031 0.012-0.063 0.025-0.087 1.706-4.113 6.431-6.075 10.544-4.369 2.087 0.863 3.613 2.512 4.394 4.456h5.475l1.775-2.044c0.587-0.681 0.15-1.744-0.75-1.806l-6.656-0.475-0.475-6.656c-0.063-0.9-1.125-1.338-1.806-0.75l-5.044 4.375-5.044-4.375c-0.681-0.588-1.744-0.15-1.806 0.75l-0.475 6.656-6.656 0.475c-0.9 0.063-1.337 1.125-0.75 1.806l1.775 2.044zM35 29h-34c-0.55 0-1 0.45-1 1v1c0 0.55 0.45 1 1 1h34c0.55 0 1-0.45 1-1v-1c0-0.55-0.45-1-1-1zM11.925 8h4.075v5c0 0.55 0.45 1 1 1h2c0.55 0 1-0.45 1-1v-5h4.075c0.894 0 1.337-1.081 0.7-1.713l-6.025-5.975c-0.413-0.412-1.087-0.412-1.5 0l-6.025 5.981c-0.637 0.625-0.188 1.706 0.7 1.706z"></path>
</svg>
