<!-- Generated by IcoMoon.io -->
<svg version="1.1" xmlns="http://www.w3.org/2000/svg" width="32" height="32" viewBox="0 0 32 32">
<title>superscript-solid</title>
<path d="M31 10h-1v-9c0-0.552-0.448-1-1-1v0h-3c-0.389 0-0.725 0.222-0.89 0.546l-0.003 0.006-1 2c-0.067 0.131-0.106 0.285-0.106 0.448 0 0.552 0.447 1 0.999 1h1v6h-1c-0.552 0-1 0.448-1 1v0 2c0 0.552 0.448 1 1 1v0h6c0.552 0 1-0.448 1-1v0-2c0-0.552-0.448-1-1-1v0zM21 4h-4.188c0 0-0 0-0 0-0.339 0-0.638 0.168-0.819 0.426l-0.002 0.003-4.994 7.188-4.994-7.188c-0.182-0.26-0.479-0.428-0.816-0.429h-4.188c-0.552 0-1 0.448-1 1v0 3c0 0.552 0.448 1 1 1v0h2.092l4.863 7-4.863 7h-2.092c-0.552 0-1 0.448-1 1v0 3c0 0.552 0.448 1 1 1v0h4.188c0 0 0 0 0 0 0.339 0 0.638-0.168 0.819-0.426l0.002-0.003 4.994-7.188 4.994 7.188c0.182 0.26 0.479 0.428 0.816 0.429h4.188c0.552 0 1-0.448 1-1v0-3c0-0.552-0.448-1-1-1v0h-2.093l-4.863-7 4.863-7h2.093c0.552 0 1-0.448 1-1v0-3c0-0.552-0.448-1-1-1v0z"></path>
</svg>
