<!-- Generated by IcoMoon.io -->
<svg version="1.1" xmlns="http://www.w3.org/2000/svg" width="31" height="32" viewBox="0 0 31 32">
<title>surprise</title>
<path d="M15.5 0.5c-8.563 0-15.5 6.938-15.5 15.5s6.938 15.5 15.5 15.5 15.5-6.938 15.5-15.5-6.938-15.5-15.5-15.5zM15.5 29.5c-7.444 0-13.5-6.056-13.5-13.5s6.056-13.5 13.5-13.5 13.5 6.056 13.5 13.5-6.056 13.5-13.5 13.5zM15.5 18c-2.206 0-4 1.794-4 4s1.794 4 4 4 4-1.794 4-4-1.794-4-4-4zM15.5 24c-1.1 0-2-0.9-2-2s0.9-2 2-2 2 0.9 2 2-0.9 2-2 2zM12.5 13c0-1.106-0.894-2-2-2s-2 0.894-2 2 0.894 2 2 2 2-0.894 2-2zM20.5 11c-1.106 0-2 0.894-2 2s0.894 2 2 2 2-0.894 2-2-0.894-2-2-2z"></path>
</svg>
