<!-- Generated by IcoMoon.io -->
<svg version="1.1" xmlns="http://www.w3.org/2000/svg" width="32" height="32" viewBox="0 0 32 32">
<title>swatchbook-solid</title>
<path d="M27.166 10.482v0l-5.635-5.647c-0.36-0.361-0.858-0.584-1.408-0.584-0.548 0-1.044 0.222-1.404 0.58l-0.004 0.004-4.714 4.72v16.945l13.166-13.194c0.361-0.362 0.584-0.861 0.584-1.412s-0.223-1.050-0.584-1.412l0 0zM30 20h-6.682l-11.651 11.657c-0.129 0.129-0.281 0.224-0.418 0.343h18.75c1.105 0 2-0.895 2-2v0-8c0-1.105-0.895-2-2-2v0zM12 2c0-1.105-0.895-2-2-2v0h-8c-1.105 0-2 0.895-2 2v0 24c0 3.314 2.686 6 6 6s6-2.686 6-6v0zM6 27.5c-0.828 0-1.5-0.672-1.5-1.5s0.672-1.5 1.5-1.5c0.828 0 1.5 0.672 1.5 1.5v0c0 0.828-0.672 1.5-1.5 1.5v0zM8 16h-4v-4h4zM8 8h-4v-4h4z"></path>
</svg>
