<!-- Generated by IcoMoon.io -->
<svg version="1.1" xmlns="http://www.w3.org/2000/svg" width="32" height="32" viewBox="0 0 32 32">
<title>swatchbook</title>
<path d="M6 27c0.553 0 1-0.448 1-1s-0.447-1-1-1-1 0.448-1 1 0.447 1 1 1zM30 20h-9.514l6.728-6.728c0.781-0.781 0.781-2.047 0-2.829l-5.657-5.656c-0.391-0.391-0.902-0.586-1.414-0.586s-1.024 0.195-1.414 0.586l-6.727 6.728v-9.514c0-1.104-0.896-2-2-2h-8c-1.104 0-2 0.896-2 2v24c0 3.314 2.686 6 6 6h24c1.104 0 2-0.896 2-2v-8c0-1.104-0.896-2-2-2zM10 26c0 2.206-1.794 4-4 4s-4-1.794-4-4v-8h8v8zM10 16h-8v-6h8v6zM10 8h-8v-6h8v6zM12 14.342l8.142-8.141 5.657 5.657-13.799 13.799v-11.315zM30 30h-19.515l8-8h11.515v8z"></path>
</svg>
