<!-- Generated by IcoMoon.io -->
<svg version="1.1" xmlns="http://www.w3.org/2000/svg" width="40" height="32" viewBox="0 0 40 32">
<title>swimmer-solid</title>
<path d="M11.851 19.411c0.221 0.204 0.954 0.589 2.149 0.589s1.929-0.385 2.149-0.589c1.001-0.923 2.156-1.411 3.341-1.411h1.019c1.185 0 2.341 0.488 3.341 1.411 0.221 0.204 0.954 0.589 2.149 0.589s1.929-0.385 2.149-0.589c0.929-0.857 1.992-1.32 3.087-1.385l-7.052-5.037 1.125-0.804c0.227-0.161 0.517-0.22 0.789-0.163l6.272 1.346c1.619 0.346 3.215-0.686 3.563-2.305s-0.684-3.215-2.305-3.563l-6.272-1.346c-1.921-0.411-3.939 0.008-5.535 1.149l-5.001 3.573c-0.649 0.462-1.21 1.027-1.67 1.684l-4.289 6.128c0.342 0.202 0.676 0.433 0.991 0.724zM39 22h-1c-1.627 0-2.862-0.526-3.506-1.119-0.556-0.513-1.229-0.881-1.986-0.881h-1.019c-0.757 0-1.429 0.368-1.986 0.881-0.642 0.593-1.877 1.119-3.504 1.119s-2.863-0.526-3.506-1.119c-0.556-0.513-1.229-0.881-1.986-0.881h-1.019c-0.757 0-1.429 0.368-1.986 0.881-0.642 0.593-1.877 1.119-3.504 1.119s-2.863-0.526-3.506-1.119c-0.556-0.513-1.229-0.881-1.986-0.881h-1.019c-0.757 0-1.429 0.368-1.986 0.881-0.642 0.593-1.877 1.119-3.504 1.119h-1c-0.552 0-1 0.448-1 1v2c0 0.552 0.448 1 1 1h1c2.414 0 4.545-0.762 6-1.99 1.455 1.229 3.586 1.99 6 1.99s4.545-0.762 6-1.99c1.455 1.229 3.586 1.99 6 1.99s4.545-0.762 6-1.99c1.455 1.229 3.586 1.99 6 1.99h1c0.553 0 1-0.448 1-1v-2c0-0.552-0.447-1-1-1zM7 16c2.761 0 5-2.239 5-5s-2.239-5-5-5-5 2.239-5 5 2.239 5 5 5z"></path>
</svg>
