<!-- Generated by IcoMoon.io -->
<svg version="1.1" xmlns="http://www.w3.org/2000/svg" width="40" height="32" viewBox="0 0 40 32">
<title>swimming-pool</title>
<path d="M39.5 28h-1.5c-1.627 0-2.862-0.526-3.506-1.119-0.556-0.513-1.229-0.881-1.986-0.881h-1.019c-0.757 0-1.429 0.368-1.986 0.881-0.642 0.593-1.877 1.119-3.504 1.119s-2.863-0.526-3.506-1.119c-0.556-0.513-1.229-0.881-1.986-0.881h-1.019c-0.757 0-1.429 0.368-1.986 0.881-0.642 0.593-1.877 1.119-3.504 1.119s-2.863-0.526-3.506-1.119c-0.556-0.513-1.229-0.881-1.986-0.881h-1.019c-0.757 0-1.429 0.368-1.986 0.881-0.642 0.593-1.877 1.119-3.504 1.119h-1.5c-0.276 0-0.5 0.224-0.5 0.5v1c0 0.276 0.224 0.5 0.5 0.5h1.5c2.414 0 4.545-0.762 6-1.99 1.455 1.229 3.586 1.99 6 1.99s4.545-0.762 6-1.99c1.455 1.229 3.586 1.99 6 1.99s4.545-0.762 6-1.99c1.455 1.229 3.586 1.99 6 1.99h1.5c0.276 0 0.5-0.224 0.5-0.5v-1c0-0.276-0.224-0.5-0.5-0.5zM12 25.513v-9.513h14v10c1.024 0 1.686-0.278 2-0.487v-18.513c0-1.654 1.346-3 3-3s3 1.346 3 3v0.5c0 0.276 0.224 0.5 0.5 0.5h1c0.276 0 0.5-0.224 0.5-0.5v-0.5c0-2.757-2.242-5-5-5s-5 2.243-5 5v7h-14v-7c0-1.654 1.346-3 3-3s3 1.346 3 3v0.5c0 0.276 0.224 0.5 0.5 0.5h1c0.276 0 0.5-0.224 0.5-0.5v-0.5c0-2.757-2.242-5-5-5s-5 2.243-5 5v17.281c0.651 0.233 1.277 0.601 1.851 1.129 0.031 0.029 0.097 0.067 0.149 0.102z"></path>
</svg>
