<!-- Generated by IcoMoon.io -->
<svg version="1.1" xmlns="http://www.w3.org/2000/svg" width="40" height="32" viewBox="0 0 40 32">
<title>swimmer</title>
<path d="M8 18c3.314 0 6-2.686 6-6s-2.686-6-6-6-6 2.686-6 6 2.686 6 6 6zM8 8c2.206 0 4 1.794 4 4s-1.794 4-4 4-4-1.794-4-4 1.794-4 4-4zM11.851 21.411c0.171 0.157 0.653 0.418 1.41 0.531l2.64-3.768c0.967-1.383 2.043-2.671 3.172-3.908l9.659 6.688c0.694-0.499 1.442-0.799 2.215-0.898l-10.485-7.259c1.453-1.432 3.008-2.762 4.682-3.957 0.686-0.489 1.557-0.668 2.404-0.486l6.274 1.13c0.537 0.096 1.063-0.262 1.162-0.807 0.097-0.544-0.264-1.064-0.807-1.162l-6.242-1.123c-0.315-0.071-0.677-0.111-1.049-0.111-1.090 0-2.099 0.349-2.921 0.941l0.015-0.010c-3.785 2.703-7.055 6.006-9.719 9.814l-2.836 4.051c0.143 0.11 0.289 0.207 0.426 0.334zM39.5 24h-1.5c-1.627 0-2.862-0.526-3.506-1.119-0.556-0.513-1.229-0.881-1.986-0.881h-1.019c-0.757 0-1.429 0.368-1.986 0.881-0.642 0.593-1.877 1.119-3.504 1.119s-2.863-0.526-3.506-1.119c-0.556-0.513-1.229-0.881-1.986-0.881h-1.019c-0.757 0-1.429 0.368-1.986 0.881-0.642 0.593-1.877 1.119-3.504 1.119s-2.863-0.526-3.506-1.119c-0.556-0.513-1.229-0.881-1.986-0.881h-1.019c-0.757 0-1.429 0.368-1.986 0.881-0.642 0.593-1.877 1.119-3.504 1.119h-1.5c-0.276 0-0.5 0.224-0.5 0.5v1c0 0.276 0.224 0.5 0.5 0.5h1.5c2.414 0 4.545-0.762 6-1.99 1.455 1.229 3.586 1.99 6 1.99s4.545-0.762 6-1.99c1.455 1.229 3.586 1.99 6 1.99s4.545-0.762 6-1.99c1.455 1.229 3.586 1.99 6 1.99h1.5c0.276 0 0.5-0.224 0.5-0.5v-1c0-0.276-0.224-0.5-0.5-0.5z"></path>
</svg>
