<!-- Generated by IcoMoon.io -->
<svg version="1.1" xmlns="http://www.w3.org/2000/svg" width="40" height="32" viewBox="0 0 40 32">
<title>swimming-pool-solid</title>
<path d="M39 26h-1c-1.627 0-2.862-0.526-3.506-1.119-0.556-0.513-1.229-0.881-1.986-0.881h-1.019c-0.757 0-1.429 0.368-1.986 0.881-0.642 0.593-1.877 1.119-3.504 1.119s-2.863-0.526-3.506-1.119c-0.556-0.513-1.229-0.881-1.986-0.881h-1.019c-0.757 0-1.429 0.368-1.986 0.881-0.642 0.593-1.877 1.119-3.504 1.119s-2.863-0.526-3.506-1.119c-0.556-0.513-1.229-0.881-1.986-0.881h-1.019c-0.757 0-1.429 0.368-1.986 0.881-0.642 0.593-1.877 1.119-3.504 1.119h-1c-0.552 0-1 0.448-1 1v2c0 0.552 0.448 1 1 1h1c2.414 0 4.545-0.762 6-1.99 1.455 1.229 3.586 1.99 6 1.99s4.545-0.762 6-1.99c1.455 1.229 3.586 1.99 6 1.99s4.545-0.762 6-1.99c1.455 1.229 3.586 1.99 6 1.99h1c0.553 0 1-0.448 1-1v-2c0-0.552-0.447-1-1-1zM14 24v-6h12v6c1.195 0 1.929-0.385 2.149-0.589 0.573-0.529 1.2-0.896 1.851-1.129v-14.282c0-1.103 0.898-2 2-2s2 0.897 2 2v1c0 0.553 0.447 1 1 1h2c0.553 0 1-0.447 1-1v-1c0-3.309-2.691-6-6-6s-6 2.691-6 6v6h-12v-6c0-1.103 0.898-2 2-2s2 0.897 2 2v1c0 0.553 0.448 1 1 1h2c0.552 0 1-0.447 1-1v-1c0-3.309-2.691-6-6-6s-6 2.691-6 6v14.281c0.651 0.233 1.277 0.601 1.851 1.129 0.221 0.204 0.954 0.589 2.149 0.589z"></path>
</svg>
