<!-- Generated by IcoMoon.io -->
<svg version="1.1" xmlns="http://www.w3.org/2000/svg" width="32" height="32" viewBox="0 0 32 32">
<title>sword-laser-solid</title>
<path d="M6.594 20.455l4.95 4.95 1.414-1.414-4.95-4.95zM0.586 25.758c-0.362 0.362-0.586 0.862-0.586 1.414s0.223 1.051 0.585 1.413l2.827 2.83c0.363 0.361 0.863 0.585 1.415 0.585s1.051-0.223 1.414-0.583l4.95-4.95-5.657-5.657zM12.251 14.799c-0.091-0.090-0.216-0.146-0.354-0.146s-0.263 0.056-0.354 0.146l-0.707 0.707c-0.090 0.090-0.146 0.215-0.146 0.354s0.056 0.263 0.146 0.354l4.95 4.95c0.091 0.090 0.215 0.146 0.354 0.146s0.263-0.056 0.354-0.146l0.707-0.707c0.090-0.090 0.146-0.215 0.146-0.354s-0.056-0.263-0.146-0.354v0zM8.715 18.334l4.95 4.95 1.414-1.414-4.95-4.95zM31.561 0.439c-0.271-0.271-0.647-0.439-1.061-0.439-0.394 0-0.752 0.152-1.020 0.4l0.001-0.001-15.382 14.127 3.374 3.374 14.127-15.381c0.247-0.267 0.399-0.625 0.399-1.019 0-0.414-0.168-0.789-0.439-1.061v0z"></path>
</svg>
