<!-- Generated by IcoMoon.io -->
<svg version="1.1" xmlns="http://www.w3.org/2000/svg" width="32" height="32" viewBox="0 0 32 32">
<title>swords-solid</title>
<path d="M19.336 24.336l5-5-18.503-18.503-4.882-0.824c-0.55-0.079-1.021 0.393-0.943 0.943l0.825 4.882 18.502 18.503zM31.707 28.879l-3.707-3.707 1.977-3.689c0.208-0.389 0.137-0.867-0.174-1.179l-1.096-1.096c-0.391-0.391-1.024-0.391-1.414 0l-8.086 8.086c-0.391 0.391-0.391 1.024 0 1.414l1.096 1.096c0.181 0.181 0.431 0.293 0.707 0.293 0.173 0 0.336-0.044 0.477-0.121l-0.005 0.003 3.69-1.977 3.707 3.707c0.391 0.391 1.024 0.391 1.414 0l1.414-1.414c0.391-0.391 0.391-1.024 0-1.414zM31.167 5.833l0.825-4.882c0.079-0.55-0.393-1.021-0.942-0.943l-4.882 0.825-8.753 8.752 5 5 8.752-8.752zM9.586 17.414l-3.336 3.336-1.543-1.543c-0.391-0.391-1.024-0.391-1.414 0l-1.096 1.096c-0.181 0.181-0.293 0.431-0.293 0.707 0 0.173 0.044 0.336 0.121 0.478l-0.003-0.005 1.978 3.69-3.707 3.707c-0.391 0.391-0.391 1.024 0 1.414l1.414 1.414c0.391 0.391 1.024 0.391 1.414 0l3.707-3.707 3.689 1.977c0.389 0.208 0.867 0.137 1.179-0.174l1.096-1.096c0.391-0.391 0.391-1.024 0-1.414l-1.543-1.543 3.336-3.336-5-5z"></path>
</svg>
