<!-- Generated by IcoMoon.io -->
<svg version="1.1" xmlns="http://www.w3.org/2000/svg" width="32" height="32" viewBox="0 0 32 32">
<title>sword</title>
<path d="M31.003 0c-0.047 0-0.096 0.003-0.144 0.011l-5.858 0.989-14.671 14.671-2.447-2.447c-0.18-0.181-0.429-0.293-0.704-0.293-0.001 0-0.002 0-0.003 0h0c-0.256 0-0.512 0.098-0.707 0.293l-2.174 2.175c-0.181 0.181-0.293 0.431-0.293 0.707 0 0.207 0.063 0.399 0.17 0.558l-0.002-0.004 2.869 4.303-2.487 2.487-1.048-0.524c-0.113-0.058-0.246-0.092-0.388-0.092-0 0-0 0-0.001 0h0c-0.226 0-0.448 0.087-0.614 0.254l-2.246 2.246c-0.339 0.339-0.339 0.889 0 1.227l5.183 5.183c0.169 0.169 0.392 0.254 0.614 0.254s0.444-0.085 0.614-0.254l2.246-2.246c0.157-0.157 0.254-0.374 0.254-0.614 0-0.142-0.034-0.275-0.094-0.393l0.002 0.005-0.524-1.047 2.486-2.486 4.303 2.869c0.169 0.113 0.363 0.168 0.554 0.168 0.258 0 0.514-0.099 0.708-0.293l2.175-2.174c0.391-0.391 0.391-1.024 0-1.414l-2.447-2.447 14.672-14.672 0.989-5.858c0.088-0.611-0.391-1.142-0.987-1.142zM16.654 24.825l-0.888 0.888-4.984-3.323-4.665 4.665 0.803 1.607-0.869 0.869-3.583-3.582 0.869-0.869 1.607 0.804 4.666-4.666-3.323-4.984 0.888-0.888 9.479 9.479zM29.134 6.037l-14.22 14.219-3.171-3.171 14.219-14.22 3.816-0.645-0.644 3.817z"></path>
</svg>
