<!-- Generated by IcoMoon.io -->
<svg version="1.1" xmlns="http://www.w3.org/2000/svg" width="32" height="32" viewBox="0 0 32 32">
<title>sword-laser-alt-solid</title>
<path d="M3.413 31.416l0 0c0.363 0.361 0.863 0.584 1.415 0.584s1.052-0.223 1.414-0.584l5.305-5.305-1.415-1.415zM5.889 20.453l-5.303 5.304c-0.362 0.362-0.586 0.862-0.586 1.414s0.224 1.052 0.585 1.413v0l0 0 6.718-6.718zM8.010 22.575l-6.718 6.718 1.414 1.415 6.719-6.719zM19.315 16.004h-8.562c-0 0-0 0-0 0-0.276 0-0.526 0.112-0.707 0.293l-3.449 3.449 5.658 5.658 7.764-7.689c0.635-0.629 0.19-1.711-0.704-1.711zM31.561 0.439c-0.272-0.271-0.647-0.439-1.061-0.439-0.394 0-0.753 0.152-1.020 0.4l0.001-0.001-15.357 14.104h6.47l11.007-11.984c0.247-0.267 0.399-0.625 0.399-1.019 0-0.414-0.168-0.789-0.439-1.061v0z"></path>
</svg>
