<!-- Generated by IcoMoon.io -->
<svg version="1.1" xmlns="http://www.w3.org/2000/svg" width="32" height="32" viewBox="0 0 32 32">
<title>sword-solid</title>
<path d="M6.882 14.224c-0.391-0.391-1.024-0.391-1.414 0l-1.174 1.175c-0.181 0.181-0.293 0.431-0.293 0.707 0 0.207 0.063 0.399 0.17 0.558l-0.002-0.004 3.337 5.006-3.339 3.339-1.829-0.914c-0.113-0.058-0.247-0.092-0.388-0.092-0.24 0-0.457 0.097-0.614 0.254v0l-1.080 1.081c-0.339 0.339-0.339 0.889 0 1.227l5.183 5.183c0.339 0.339 0.889 0.339 1.228 0l1.081-1.081c0.157-0.157 0.254-0.374 0.254-0.613 0-0.142-0.034-0.275-0.094-0.393l0.002 0.005-0.914-1.829 3.339-3.339 5.006 3.337c0.397 0.264 0.925 0.212 1.262-0.125l1.175-1.174c0.391-0.391 0.391-1.024 0-1.414l-10.894-10.894zM30.858 0.010l-5.858 0.99-14.257 14.257 6 6 14.257-14.257 0.989-5.858c0.094-0.66-0.471-1.226-1.131-1.132z"></path>
</svg>
