<!-- Generated by IcoMoon.io -->
<svg version="1.1" xmlns="http://www.w3.org/2000/svg" width="32" height="32" viewBox="0 0 32 32">
<title>sword-laser</title>
<path d="M31.402 0.747c-0.396-0.436-0.955-0.717-1.581-0.746l-0.005-0c-0.016-0-0.032-0.001-0.049-0.001-0.003-0-0.007-0-0.011-0-0.611 0-1.169 0.227-1.595 0.601l0.003-0.002-15.893 14.607-0.884-0.884c-0.091-0.090-0.216-0.146-0.354-0.146s-0.263 0.056-0.354 0.146l-0.707 0.707c-0.090 0.090-0.146 0.215-0.146 0.353s0.056 0.263 0.147 0.354l0.353 0.353-3.536 3.536-0.074-0.073c-0.090-0.090-0.215-0.146-0.353-0.146s-0.263 0.056-0.353 0.146l-5.011 5.011c-0.618 0.618-1 1.471-1 2.414s0.382 1.796 1 2.414l1.609 1.609c0.618 0.618 1.471 1 2.414 1s1.796-0.382 2.414-1l5.011-5.011c0.090-0.090 0.146-0.215 0.146-0.353s-0.056-0.263-0.146-0.353v0l3.536-3.536 0.354 0.354c0.090 0.090 0.215 0.146 0.354 0.146s0.263-0.056 0.353-0.146l0.707-0.707c0.090-0.090 0.146-0.215 0.146-0.354s-0.056-0.263-0.146-0.354l-0.959-0.959 14.612-15.901c0.369-0.404 0.596-0.945 0.596-1.539 0-0.595-0.227-1.136-0.599-1.543l0.002 0.002zM6.023 29.586c-0.256 0.256-0.609 0.414-1 0.414s-0.744-0.158-1-0.413l-1.609-1.61c-0.256-0.256-0.414-0.609-0.414-1s0.158-0.744 0.414-1l3.95-3.95 3.609 3.609zM11.033 23.868l-2.828-2.828 0.707-0.707 2.829 2.829zM12.448 22.454l-2.828-2.829 0.707-0.707 2.829 2.828zM13.862 21.040l-2.828-2.828 0.707-0.707 2.828 2.828zM29.931 2.473l-14.555 15.839-1.69-1.69 15.819-14.539c0.067-0.049 0.15-0.080 0.241-0.082h0.001c0.071 0.008 0.133 0.043 0.176 0.093l0 0c0.048 0.050 0.078 0.118 0.078 0.194 0 0.071-0.027 0.136-0.070 0.186l0-0z"></path>
</svg>
