<!-- Generated by IcoMoon.io -->
<svg version="1.1" xmlns="http://www.w3.org/2000/svg" width="40" height="32" viewBox="0 0 40 32">
<title>swords-laser</title>
<path d="M29.506 2.081c0.067-0.049 0.151-0.080 0.241-0.082h0.001c0.071 0.008 0.133 0.043 0.176 0.093l0 0c0.048 0.050 0.078 0.118 0.078 0.193 0 0.071-0.027 0.136-0.070 0.186l0-0-6.030 6.558 0.146 0.135c0.291-0.105 0.626-0.165 0.976-0.165 0 0 0.001 0 0.001 0h-0c0.483 0.004 0.937 0.125 1.336 0.335l-0.016-0.008 5.060-5.503c0.368-0.405 0.594-0.945 0.594-1.538 0-1.226-0.965-2.227-2.176-2.285l-0.005-0c-0.016-0-0.032-0.001-0.049-0.001-0.003-0-0.007-0-0.011-0-0.611 0-1.169 0.227-1.595 0.601l0.003-0.002-6.717 6.169 1.475 1.359zM17.234 16.279l-1.857 2.020-1.69-1.688 2.094-1.923-1.348-1.476-2.161 1.985-0.885-0.884c-0.091-0.090-0.216-0.146-0.354-0.146s-0.263 0.056-0.354 0.146v0l-0.707 0.707c-0.090 0.090-0.146 0.215-0.146 0.353s0.056 0.263 0.147 0.353v0l0.354 0.353-3.536 3.533-0.074-0.073c-0.090-0.090-0.215-0.146-0.353-0.146s-0.263 0.056-0.353 0.146l-5.011 5.007c-0.618 0.617-1 1.47-1 2.412s0.382 1.795 1 2.412l1.609 1.608c0.618 0.617 1.471 0.999 2.414 0.999s1.796-0.382 2.414-0.999l5.011-5.007c0.090-0.090 0.146-0.215 0.146-0.353s-0.056-0.263-0.146-0.353v0l3.536-3.533 0.354 0.353c0.090 0.090 0.215 0.146 0.354 0.146s0.263-0.056 0.353-0.146l0.707-0.707c0.090-0.090 0.146-0.215 0.146-0.353s-0.056-0.263-0.146-0.353l-0.959-0.958 1.795-1.952zM6.023 29.564c-0.256 0.255-0.61 0.413-1 0.413s-0.743-0.158-1-0.413l-1.609-1.608c-0.256-0.256-0.414-0.609-0.414-0.999s0.158-0.744 0.414-0.999l3.95-3.947 3.609 3.606zM11.033 23.851l-2.828-2.826 0.707-0.707 2.829 2.826zM12.448 22.438l-2.828-2.826 0.707-0.707 2.829 2.826zM13.862 21.024l-2.828-2.826 0.707-0.707 2.828 2.826zM39 24.569l-13.294-13.282c-0.597-0.596-1.566-0.212-1.669 0.585l-12.211-11.254c-0.405-0.368-0.945-0.594-1.539-0.594-1.226 0-2.227 0.964-2.287 2.175l-0 0.005c-0 0.017-0.001 0.037-0.001 0.057 0 0.61 0.226 1.167 0.598 1.593l-0.002-0.003 15.367 16.831 0.037-0.034v1.382c0 0.276 0.112 0.526 0.293 0.706l8.27 8.263c0.618 0.617 1.472 0.999 2.414 0.999s1.796-0.382 2.414-0.999l1.609-1.608c0.618-0.617 1-1.47 1-2.412s-0.382-1.795-1-2.412l-0-0zM23.999 17.758l-13.924-15.251c-0.041-0.053-0.065-0.121-0.065-0.194 0-0.083 0.032-0.159 0.084-0.216l-0 0c0.052-0.045 0.12-0.073 0.194-0.073 0.072 0 0.139 0.026 0.19 0.069l-0-0 13.522 12.461zM26 21.616v-7.213l6.097 6.093-3.609 3.606zM35.977 29.588c-0.256 0.255-0.61 0.413-1 0.413s-0.744-0.158-1-0.413l-4.074-4.072 1.361-1.36 5.074 5.071zM37.586 27.979l-0.361 0.361-5.074-5.071 1.361-1.36 4.074 4.071c0.256 0.256 0.414 0.609 0.414 0.999s-0.158 0.743-0.414 0.999v0z"></path>
</svg>
