<!-- Generated by IcoMoon.io -->
<svg version="1.1" xmlns="http://www.w3.org/2000/svg" width="32" height="32" viewBox="0 0 32 32">
<title>sword-laser-alt</title>
<path d="M31.402 0.747c-0.396-0.436-0.955-0.717-1.581-0.746l-0.005-0c-0.017-0-0.037-0.001-0.057-0.001-0.61 0-1.168 0.226-1.594 0.598l0.003-0.002-16.843 15.367 0.034 0.037h-1.383c0 0-0 0-0 0-0.276 0-0.526 0.112-0.707 0.293l-8.269 8.27c-0.618 0.618-1 1.471-1 2.414s0.382 1.796 1 2.414l1.609 1.609c0.618 0.618 1.471 1 2.414 1s1.796-0.382 2.414-1l13.291-13.294c0.597-0.597 0.212-1.566-0.586-1.669l11.262-12.211c0.369-0.404 0.596-0.945 0.596-1.539 0-0.595-0.227-1.136-0.599-1.542l0.002 0.002zM2.414 27.977c-0.256-0.256-0.414-0.61-0.414-1s0.158-0.744 0.413-1l4.074-4.074 1.361 1.361-5.074 5.074zM6.023 29.586c-0.256 0.256-0.609 0.414-1 0.414s-0.744-0.158-1-0.414l-0.361-0.361 5.074-5.074 1.361 1.361zM11.511 24.097l-3.609-3.609 2.489-2.489h7.218zM29.928 2.477l-12.47 13.522h-3.206l15.262-13.924c0.053-0.041 0.121-0.065 0.194-0.065 0.083 0 0.159 0.032 0.216 0.084l-0-0c0.045 0.052 0.073 0.12 0.073 0.194 0 0.072-0.026 0.139-0.069 0.19l0-0z"></path>
</svg>
