<!-- Generated by IcoMoon.io -->
<svg version="1.1" xmlns="http://www.w3.org/2000/svg" width="40" height="32" viewBox="0 0 40 32">
<title>swords-laser-solid</title>
<path d="M8.439 0.439c-0.271 0.272-0.439 0.647-0.439 1.061 0 0.394 0.152 0.753 0.4 1.020l-0.001-0.001 14.104 15.356v-6.47l-11.984-11.007c-0.267-0.247-0.625-0.399-1.019-0.399-0.414 0-0.789 0.168-1.061 0.439v0zM25.715 11.982c-0.629-0.635-1.711-0.19-1.711 0.704v8.562c0 0 0 0 0 0 0 0.276 0.112 0.526 0.293 0.707l3.449 3.449 5.658-5.658zM30.575 23.989l6.718 6.718 1.415-1.414-6.719-6.719zM39.417 25.758l-5.305-5.305-1.415 1.415 6.719 6.719c0.361-0.363 0.584-0.863 0.584-1.415s-0.223-1.052-0.583-1.414l0 0zM28.453 26.111l5.304 5.303c0.362 0.362 0.862 0.586 1.414 0.586s1.051-0.224 1.413-0.585v0l0-0-6.718-6.718zM16 19.575l2.669-2.917-2.669-2.905zM25.045 9.687l6.556-7.167c0.247-0.267 0.399-0.625 0.399-1.019 0-0.829-0.672-1.5-1.5-1.5-0.394 0-0.752 0.152-1.020 0.4l0.001-0.001-8.002 7.35 2.363 2.171c0.344-0.149 0.745-0.236 1.166-0.236 0.001 0 0.002 0 0.003 0h-0c0.011 0 0.022 0.003 0.033 0.003zM12.287 14.039l-1.798 1.82c-0.362-0.362-0.862-0.586-1.415-0.586-1.105 0-2 0.896-2 2 0 0.552 0.224 1.052 0.586 1.414v0l-7.076 7.073c-0.361 0.362-0.584 0.862-0.584 1.414s0.223 1.052 0.584 1.415l-0-0 2.832 2.827c0.362 0.361 0.862 0.585 1.414 0.585s1.052-0.224 1.414-0.585l-0 0 7.46-7.398c0.183-0.181 0.296-0.432 0.296-0.71 0-0 0-0 0-0v0-8.564c0-0.894-1.084-1.339-1.713-0.703zM10.534 22.528c-0.552-0-0.999-0.448-0.999-1s0.448-1 1-1 1 0.448 1 1v0c-0 0.552-0.448 1-1 1-0 0-0 0-0 0v0z"></path>
</svg>
