<!-- Generated by IcoMoon.io -->
<svg version="1.1" xmlns="http://www.w3.org/2000/svg" width="32" height="32" viewBox="0 0 32 32">
<title>swords</title>
<path d="M31.706 27.707l-3.492-3.492 2.161-3.596c0.105-0.156 0.168-0.348 0.168-0.555 0-0.276-0.112-0.526-0.293-0.707l-2.175-2.175c-0.388-0.388-1.022-0.392-1.414 0l-1.739 1.74-17.921-17.922-5.858-0.989c-0.701-0.102-1.22 0.512-1.131 1.131l0.989 5.858 17.922 17.922-1.74 1.739c-0.391 0.391-0.391 1.024 0 1.414l2.175 2.174c0.337 0.337 0.866 0.389 1.262 0.125l3.595-2.161 3.492 3.492c0.391 0.391 1.024 0.391 1.414 0l2.586-2.586c0.391-0.39 0.391-1.024 0-1.414zM2.866 6.038l-0.644-3.817 3.816 0.646 17.471 17.471-3.171 3.171-17.471-17.471zM28.414 29.586l-3.944-3.945-4.277 2.616-0.888-0.888 8.065-8.064 0.888 0.888-2.616 4.277 3.944 3.944-1.172 1.171zM25.962 2.866l3.817-0.644-0.646 3.816-7.134 7.134 1.414 1.414 7.586-7.586 0.989-5.858c0.102-0.701-0.512-1.22-1.131-1.131l-5.858 0.989-7.586 7.586 1.414 1.414 7.134-7.134zM14.817 26.661l-1.74-1.739 1.508-1.508-1.414-1.414-1.508 1.508-3.171-3.171 1.508-1.508-1.414-1.414-1.508 1.508-1.739-1.74c-0.391-0.391-1.024-0.391-1.414 0l-2.174 2.175c-0.337 0.337-0.389 0.866-0.125 1.262l2.161 3.595-3.493 3.493c-0.391 0.391-0.391 1.024 0 1.414l2.586 2.586c0.391 0.391 1.024 0.391 1.414 0l3.492-3.492 3.596 2.161c0.156 0.105 0.348 0.168 0.555 0.168 0.276 0 0.526-0.112 0.707-0.293l2.175-2.175c0.054-0.054 0.084-0.122 0.123-0.186-0.030-0.171-0.051-0.344-0.051-0.521s0.021-0.351 0.051-0.522c-0.039-0.063-0.069-0.131-0.124-0.186zM11.807 28.256l-4.277-2.616-3.944 3.944-1.172-1.172 3.945-3.944-2.616-4.277 0.888-0.888 8.065 8.066-0.888 0.887z"></path>
</svg>
