<!-- Generated by IcoMoon.io -->
<svg version="1.1" xmlns="http://www.w3.org/2000/svg" width="40" height="32" viewBox="0 0 40 32">
<title>synagogue</title>
<path d="M25.399 9.423c-0.143-0.257-0.413-0.428-0.722-0.428-0 0-0 0-0 0h-2.322l-1.656-2.607c-0.305-0.479-1.090-0.479-1.394-0.001l-1.657 2.608h-2.321c-0.301 0-0.578 0.164-0.723 0.428-0.144 0.262-0.133 0.581 0.027 0.832l1.108 1.744-1.108 1.744c-0.16 0.252-0.172 0.571-0.027 0.833 0.143 0.257 0.413 0.428 0.722 0.428 0 0 0 0 0 0h2.322l1.656 2.607c0.152 0.239 0.412 0.383 0.698 0.383s0.545-0.142 0.698-0.382l1.657-2.608h2.321c0.301 0 0.578-0.164 0.723-0.428 0.144-0.262 0.133-0.581-0.027-0.832l-1.108-1.744 1.108-1.744c0.159-0.252 0.171-0.571 0.027-0.832zM20 7.154l1.169 1.841h-2.339l1.169-1.841zM15.649 9.995h1.362l-0.681 1.072-0.681-1.072zM15.649 14.005l0.681-1.072 0.681 1.072h-1.363zM20 16.846l-1.169-1.841h2.339l-1.169 1.841zM21.804 14.005h-3.609l-1.273-2.005 1.274-2.005h3.609l1.273 2.005-1.274 2.005zM24.351 14.005h-1.362l0.681-1.072 0.681 1.072zM23.67 11.068l-0.681-1.072h1.363l-0.681 1.072zM19.607 20.019c-2.080 0.198-3.607 2.064-3.607 4.153v7.328c0 0.276 0.224 0.5 0.5 0.5h1c0.276 0 0.5-0.224 0.5-0.5v-7.387c0-0.997 0.679-1.922 1.662-2.085 1.251-0.206 2.338 0.759 2.338 1.973v7.5c0 0.276 0.224 0.5 0.5 0.5h1c0.276 0 0.5-0.224 0.5-0.5v-7.5c0-2.339-2.008-4.209-4.393-3.981zM39.499 16.768l-4.75-4.486c-0.413-0.389-1.087-0.389-1.5 0l-3.25 3.069v-6.951c0-0.607-0.276-1.183-0.751-1.562l-8-6.4c-0.364-0.292-0.807-0.438-1.249-0.438s-0.884 0.146-1.249 0.438l-8 6.4c-0.459 0.37-0.751 0.932-0.751 1.562v0 6.952l-3.25-3.069c-0.412-0.389-1.088-0.389-1.5 0l-4.75 4.486c-0.322 0.304-0.5 0.696-0.5 1.102v13.629c0 0.276 0.224 0.5 0.5 0.5h1c0.276 0 0.5-0.224 0.5-0.5v-13.398l4-3.778 4 3.778v13.398c0 0.276 0.224 0.5 0.5 0.5h1c0.276 0 0.5-0.224 0.5-0.5v-23.1l8-6.4 8 6.4v23.1c0 0.276 0.224 0.5 0.5 0.5h1c0.276 0 0.5-0.224 0.5-0.5v-13.398l4-3.778 4 3.778v13.398c0 0.276 0.224 0.5 0.5 0.5h1c0.276 0 0.5-0.224 0.5-0.5v-13.629c0-0.406-0.178-0.798-0.501-1.102z"></path>
</svg>
