<!-- Generated by IcoMoon.io -->
<svg version="1.1" xmlns="http://www.w3.org/2000/svg" width="40" height="32" viewBox="0 0 40 32">
<title>synagogue-solid</title>
<path d="M4.375 12.282l-3.958 4.486c-0.259 0.292-0.417 0.679-0.417 1.102 0 0 0 0 0 0v-0 14.129h8v-17.026l-2.375-2.692c-0.332-0.376-0.918-0.376-1.25 0zM39.583 16.768l-3.958-4.486c-0.332-0.376-0.918-0.376-1.25 0l-2.375 2.692v17.026h8v-14.129c0-0.406-0.148-0.798-0.417-1.102zM21.249 0.438c-0.731-0.584-1.768-0.584-2.499 0l-8 6.4c-0.459 0.37-0.751 0.932-0.751 1.562v0 23.6h6v-5.786c0-1.992 1.361-3.839 3.328-4.159 2.506-0.408 4.672 1.516 4.672 3.945v6h6v-23.6c0-0.607-0.276-1.183-0.751-1.562l-8-6.4zM24.504 13.91c0.124 0.197-0.018 0.453-0.25 0.453h-2.434l-1.57 2.499c-0.116 0.184-0.384 0.184-0.5 0l-1.57-2.499h-2.434c-0.232 0-0.374-0.256-0.25-0.453l1.2-1.91-1.2-1.91c-0.124-0.197 0.018-0.453 0.25-0.453h2.434l1.57-2.5c0.116-0.184 0.384-0.184 0.5 0l1.57 2.499h2.434c0.232 0 0.374 0.256 0.25 0.453l-1.2 1.911 1.199 1.91z"></path>
</svg>
