<!-- Generated by IcoMoon.io -->
<svg version="1.1" xmlns="http://www.w3.org/2000/svg" width="32" height="32" viewBox="0 0 32 32">
<title>sync</title>
<path d="M30.75 0.5h-0.625c-0.414 0-0.75 0.336-0.75 0.75v6.914c-2.692-4.585-7.674-7.664-13.375-7.664-8.298 0-15.073 6.521-15.481 14.718-0.021 0.426 0.323 0.782 0.749 0.782h0.626c0.397 0 0.728-0.309 0.749-0.706 0.366-7.031 6.175-12.669 13.357-12.669 5.179 0 9.671 2.942 11.893 7.25h-7.143c-0.414 0-0.75 0.336-0.75 0.75v0.625c0 0.414 0.336 0.75 0.75 0.75h10c0.414 0 0.75-0.336 0.75-0.75v-10c0-0.414-0.336-0.75-0.75-0.75zM30.731 16h-0.626c-0.397 0-0.728 0.309-0.749 0.706-0.367 7.054-6.198 12.669-13.357 12.669-5.163 0-9.667-2.934-11.894-7.25h7.144c0.414 0 0.75-0.336 0.75-0.75v-0.625c0-0.414-0.336-0.75-0.75-0.75h-10c-0.414 0-0.75 0.336-0.75 0.75v10c0 0.414 0.336 0.75 0.75 0.75h0.625c0.414 0 0.75-0.336 0.75-0.75v-6.914c2.692 4.585 7.674 7.664 13.375 7.664 8.298 0 15.073-6.521 15.481-14.718 0.021-0.426-0.323-0.782-0.749-0.782z"></path>
</svg>
