<!-- Generated by IcoMoon.io -->
<svg version="1.1" xmlns="http://www.w3.org/2000/svg" width="32" height="32" viewBox="0 0 32 32">
<title>sync-alt-solid</title>
<path d="M23.17 8.33c-1.954-1.829-4.489-2.832-7.18-2.83-4.841 0.004-9.021 3.324-10.174 7.928-0.084 0.335-0.383 0.572-0.728 0.572h-3.581c-0.469 0-0.825-0.425-0.738-0.886 1.352-7.181 7.657-12.614 15.232-12.614 4.153 0 7.924 1.633 10.707 4.293l2.232-2.232c0.945-0.945 2.561-0.276 2.561 1.061v8.379c0 0.828-0.672 1.5-1.5 1.5h-8.379c-1.336 0-2.006-1.616-1.061-2.561l2.609-2.609zM2 18.5h8.379c1.336 0 2.006 1.616 1.061 2.561l-2.609 2.609c1.954 1.83 4.49 2.832 7.18 2.83 4.839-0.004 9.020-3.322 10.174-7.928 0.084-0.335 0.383-0.572 0.728-0.572h3.582c0.469 0 0.825 0.425 0.738 0.886-1.352 7.181-7.657 12.614-15.232 12.614-4.153 0-7.924-1.634-10.707-4.293l-2.232 2.232c-0.945 0.945-2.561 0.276-2.561-1.061v-8.379c0-0.828 0.672-1.5 1.5-1.5z"></path>
</svg>
