<!-- Generated by IcoMoon.io -->
<svg version="1.1" xmlns="http://www.w3.org/2000/svg" width="32" height="32" viewBox="0 0 32 32">
<title>sync-solid</title>
<path d="M27.541 0.786l0.25 5.173c-2.852-3.349-7.071-5.459-11.783-5.459-0.006 0-0.012 0-0.019 0h0.001c-7.569 0-13.87 5.433-15.221 12.614-0.008 0.041-0.012 0.088-0.012 0.136 0 0.414 0.336 0.75 0.75 0.75h3.066c0.353-0 0.649-0.245 0.728-0.574l0.001-0.005c1.202-4.867 5.53-8.419 10.688-8.419 3.784 0 7.121 1.912 9.099 4.822l0.025 0.038-6.341-0.304c-0.011-0.001-0.023-0.001-0.036-0.001-0.414 0-0.75 0.336-0.75 0.75 0 0 0 0.001 0 0.001v-0 2.963c0 0.414 0.336 0.75 0.75 0.75v0h12.514c0.414 0 0.75-0.336 0.75-0.75v0-12.522c0-0.414-0.336-0.75-0.75-0.75v0h-2.961c-0.414 0-0.75 0.336-0.75 0.75 0 0.013 0 0.025 0.001 0.037l-0-0.002zM15.989 27c-0.003 0-0.006 0-0.009 0-3.782 0-7.117-1.913-9.091-4.824l-0.025-0.038 6.362 0.304c0.011 0.001 0.023 0.001 0.036 0.001 0.414 0 0.75-0.336 0.75-0.75 0-0 0-0.001 0-0.001v0-2.962c0-0.414-0.336-0.75-0.75-0.75v0h-12.512c-0.414 0-0.75 0.336-0.75 0.75v0 12.521c0 0.414 0.336 0.75 0.75 0.75v0h2.959c0 0 0.001 0 0.001 0 0.414 0 0.75-0.336 0.75-0.75 0-0.013-0-0.026-0.001-0.039l0 0.002-0.259-5.161c2.851 3.342 7.067 5.448 11.775 5.448 0.005 0 0.010 0 0.015 0h-0.001c7.569 0 13.871-5.433 15.222-12.614 0.008-0.041 0.012-0.088 0.012-0.136 0-0.414-0.336-0.75-0.75-0.75h-3.066c-0.353 0-0.649 0.245-0.728 0.574l-0.001 0.005c-1.2 4.868-5.528 8.421-10.687 8.421-0.001 0-0.002 0-0.003 0h0z"></path>
</svg>
