<!-- Generated by IcoMoon.io -->
<svg version="1.1" xmlns="http://www.w3.org/2000/svg" width="32" height="32" viewBox="0 0 32 32">
<title>sync-alt</title>
<path d="M28.586 0.587l-3.131 3.131c-2.617-2.017-5.895-3.218-9.455-3.218-8.298 0-15.073 6.521-15.481 14.718-0.021 0.426 0.323 0.782 0.749 0.782h0.626c0.397 0 0.728-0.309 0.749-0.706 0.367-7.050 6.194-12.669 13.357-12.669 2.972 0 5.718 0.97 7.939 2.609l-3.351 3.351c-1.256 1.256-0.366 3.414 1.414 3.414h7.998c1.105 0 2-0.895 2-2v-7.999c0-1.78-2.16-2.668-3.414-1.414zM30 10h-8l8-8v8zM30.731 16h-0.626c-0.397 0-0.728 0.309-0.749 0.706-0.367 7.057-6.2 12.669-13.357 12.669-2.97 0-5.717-0.969-7.939-2.61l3.351-3.351c1.256-1.256 0.366-3.414-1.414-3.414h-7.998c-1.105 0-2 0.895-2 2v7.999c0 1.788 2.163 2.665 3.414 1.414l3.131-3.131c2.617 2.017 5.895 3.218 9.455 3.218 8.298 0 15.073-6.521 15.481-14.718 0.021-0.426-0.323-0.782-0.749-0.782zM2 30v-8h8l-8 8z"></path>
</svg>
