<!-- Generated by IcoMoon.io -->
<svg version="1.1" xmlns="http://www.w3.org/2000/svg" width="32" height="32" viewBox="0 0 32 32">
<title>syringe-solid</title>
<path d="M12.594 10.925l3.481 3.488c0.194 0.194 0.194 0.512 0 0.706l-0.706 0.706c-0.194 0.194-0.512 0.194-0.706 0l-3.481-3.488-2.831 2.831 3.488 3.488c0.194 0.194 0.194 0.512 0 0.706l-0.706 0.706c-0.194 0.194-0.512 0.194-0.706 0l-3.487-3.494-1.65 1.65c-1.081 1.081-1.6 2.569-1.438 4.088l0.444 3.975-4.15 4.15c-0.194 0.194-0.194 0.512 0 0.706l0.706 0.706c0.194 0.194 0.512 0.194 0.706 0l4.144-4.144 3.975 0.444c1.494 0.163 2.994-0.337 4.088-1.438l11.369-11.369-8.481-8.481-4.056 4.063zM31.856 5.094l-4.95-4.95c-0.194-0.194-0.512-0.194-0.706 0l-0.706 0.706c-0.194 0.194-0.194 0.512 0 0.706l1.769 1.769-2.831 2.831-4.6-4.6c-0.194-0.194-0.512-0.194-0.706 0l-2.119 2.119c-0.194 0.194-0.194 0.512 0 0.706l1.063 1.063 9.544 9.556c0.194 0.194 0.512 0.194 0.706 0l2.119-2.125c0.194-0.194 0.194-0.512 0-0.706l-4.594-4.594 2.831-2.831 1.769 1.769c0.194 0.194 0.512 0.194 0.706 0l0.706-0.706c0.194-0.2 0.194-0.513 0-0.713z"></path>
</svg>
