<!-- Generated by IcoMoon.io -->
<svg version="1.1" xmlns="http://www.w3.org/2000/svg" width="32" height="32" viewBox="0 0 32 32">
<title>syringe</title>
<path d="M31.856 5.094l-4.95-4.95c-0.194-0.194-0.512-0.194-0.706 0l-0.706 0.706c-0.194 0.194-0.194 0.512 0 0.706l1.769 1.769-2.831 2.831-4.6-4.6c-0.194-0.194-0.512-0.194-0.706 0l-0.706 0.706c-0.194 0.194-0.194 0.513 0 0.706l1.063 1.063-14.2 14.2c-1.081 1.081-1.6 2.569-1.438 4.088l0.444 3.975-4.144 4.144c-0.194 0.194-0.194 0.512 0 0.706l0.706 0.706c0.194 0.194 0.512 0.194 0.706 0l4.144-4.144 3.975 0.444c1.494 0.163 2.994-0.337 4.088-1.438l14.2-14.2 1.063 1.063c0.194 0.194 0.512 0.194 0.706 0l0.706-0.7c0.194-0.194 0.194-0.512 0-0.706l-4.594-4.594 2.831-2.831 1.769 1.769c0.194 0.194 0.512 0.194 0.706 0l0.706-0.706c0.194-0.2 0.194-0.513 0-0.713zM26.55 11.106l-14.194 14.2c-0.65 0.65-1.537 0.962-2.45 0.863l-3.656-0.406-0.406-3.656c-0.1-0.913 0.213-1.806 0.862-2.45l1.469-1.469 2.475 2.475c0.194 0.194 0.512 0.194 0.706 0l0.706-0.706c0.194-0.194 0.194-0.512 0-0.706l-2.475-2.475 2.831-2.831 2.475 2.475c0.194 0.194 0.512 0.194 0.706 0l0.706-0.706c0.194-0.194 0.194-0.512 0-0.706l-2.475-2.475 2.831-2.831 2.475 2.475c0.194 0.194 0.512 0.194 0.706 0l0.706-0.706c0.194-0.194 0.194-0.512 0-0.706l-2.488-2.487 2.831-2.831 5.656 5.663z"></path>
</svg>
