<!-- Generated by IcoMoon.io -->
<svg version="1.1" xmlns="http://www.w3.org/2000/svg" width="32" height="32" viewBox="0 0 32 32">
<title>table-tennis-solid</title>
<path d="M31.012 18.531c1.969-4.863 0.988-10.644-2.95-14.588-5.244-5.256-13.75-5.256-18.994 0l-3.5 3.506 13.219 13.219c2.881-3.881 8.219-4.838 12.225-2.137zM17.394 23.512l-13.775-13.769c-1.706 2.831-1.356 6.563 1.081 9.006l2.156 2.163-6.438 5.587c-0.537 0.469-0.569 1.294-0.063 1.8l3.337 3.344c0.5 0.506 1.325 0.475 1.794-0.063l5.581-6.456 2.231 2.231c1.231 1.231 2.788 1.906 4.394 2.081-0.444-1.063-0.688-2.225-0.688-3.444-0.006-0.863 0.156-1.688 0.387-2.481zM26 20c-3.313 0-6 2.688-6 6s2.688 6 6 6 6-2.688 6-6-2.688-6-6-6z"></path>
</svg>
