<!-- Generated by IcoMoon.io -->
<svg version="1.1" xmlns="http://www.w3.org/2000/svg" width="28" height="32" viewBox="0 0 28 32">
<title>tablet-android</title>
<path d="M25 0h-22c-1.656 0-3 1.344-3 3v26c0 1.656 1.344 3 3 3h22c1.656 0 3-1.344 3-3v-26c0-1.656-1.344-3-3-3zM26 29c0 0.55-0.45 1-1 1h-22c-0.55 0-1-0.45-1-1v-26c0-0.55 0.45-1 1-1h22c0.55 0 1 0.45 1 1v26zM17.25 28h-6.5c-0.412 0-0.75-0.337-0.75-0.75v-0.5c0-0.413 0.338-0.75 0.75-0.75h6.5c0.413 0 0.75 0.337 0.75 0.75v0.5c0 0.413-0.337 0.75-0.75 0.75z"></path>
</svg>
