<!-- Generated by IcoMoon.io -->
<svg version="1.1" xmlns="http://www.w3.org/2000/svg" width="40" height="32" viewBox="0 0 40 32">
<title>tablets</title>
<path d="M30 0c-5.525 0-10 4.475-10 10s4.475 10 10 10 10-4.475 10-10-4.475-10-10-10zM30 18c-4.419 0-8-3.581-8-8 0-1.85 0.65-3.525 1.706-4.881l11.181 11.181c-1.362 1.050-3.038 1.7-4.887 1.7zM36.294 14.881l-11.175-11.175c1.356-1.056 3.031-1.706 4.881-1.706 4.419 0 8 3.581 8 8 0 1.85-0.65 3.525-1.706 4.881zM10 12c-5.525 0-10 4.475-10 10s4.475 10 10 10 10-4.475 10-10-4.475-10-10-10zM10 30c-4.075 0-7.4-3.056-7.9-7h15.8c-0.5 3.944-3.825 7-7.9 7zM2.1 21c0.5-3.944 3.825-7 7.9-7s7.4 3.056 7.9 7h-15.8z"></path>
</svg>
