<!-- Generated by IcoMoon.io -->
<svg version="1.1" xmlns="http://www.w3.org/2000/svg" width="28" height="32" viewBox="0 0 28 32">
<title>tablet-alt-solid</title>
<path d="M25 0h-22c-1.656 0-3 1.344-3 3v26c0 1.656 1.344 3 3 3h22c1.656 0 3-1.344 3-3v-26c0-1.656-1.344-3-3-3zM14 30c-1.106 0-2-0.894-2-2s0.894-2 2-2 2 0.894 2 2-0.894 2-2 2zM25 23.25c0 0.413-0.337 0.75-0.75 0.75h-20.5c-0.413 0-0.75-0.337-0.75-0.75v-19.5c0-0.413 0.337-0.75 0.75-0.75h20.5c0.413 0 0.75 0.337 0.75 0.75v19.5z"></path>
</svg>
