<!-- Generated by IcoMoon.io -->
<svg version="1.1" xmlns="http://www.w3.org/2000/svg" width="32" height="32" viewBox="0 0 32 32">
<title>table-tennis</title>
<path d="M30.175 20.325c2.944-5.194 2.262-11.912-2.156-16.337-2.569-2.569-5.981-3.987-9.613-3.987-6.613 0-9.563 3.944-13.706 8.094-3.075 3.081-3.075 8.1 0 11.188l1.263 1.269-5.225 4.537c-0.944 0.825-0.981 2.269-0.113 3.144l3.131 3.131c1.094 1.1 2.544 0.587 3.144-0.113l4.525-5.225c0.994 0.994 3.681 4.413 8.281 3.506 1.288 1.5 3.169 2.469 5.294 2.469 3.863 0 7-3.137 7-7 0-1.8-0.706-3.431-1.825-4.675zM10.213 5.406c4.531-4.544 11.863-4.544 16.394 0 3.681 3.688 4.313 9.238 2 13.625-3.544-2.15-7.769-0.769-9.656 2.506l-12.438-12.438 3.7-3.694zM11.325 23.087l-6.15 6.869-3.131-3.137 6.85-6.162-2.781-2.788c-1.95-1.956-2.225-4.938-0.869-7.213l12.906 12.906c-0.125 0.6-0.394 2.131 0.356 4.012-3.231 0.094-4.406-1.706-7.181-4.488zM25 30c-2.756 0-5-2.244-5-5s2.244-5 5-5 5 2.244 5 5-2.244 5-5 5z"></path>
</svg>
