<!-- Generated by IcoMoon.io -->
<svg version="1.1" xmlns="http://www.w3.org/2000/svg" width="28" height="32" viewBox="0 0 28 32">
<title>tablet-rugged</title>
<path d="M27.45 10.275c0.337-0.169 0.55-0.512 0.55-0.894v-4.763c0-0.381-0.212-0.725-0.55-0.894l-1.45-0.725c0-1.656-1.344-3-3-3h-18c-1.656 0-3 1.344-3 3l-1.45 0.725c-0.338 0.169-0.55 0.513-0.55 0.894v4.763c0 0.381 0.212 0.725 0.55 0.894l1.45 0.725v1l-1.45 0.725c-0.338 0.169-0.55 0.512-0.55 0.894v4.763c0 0.381 0.212 0.725 0.55 0.894l1.45 0.725v1l-1.45 0.725c-0.338 0.169-0.55 0.512-0.55 0.894v4.762c0 0.381 0.212 0.725 0.55 0.894l1.45 0.725c0 1.656 1.344 3 3 3h18c1.656 0 3-1.344 3-3l1.45-0.725c0.337-0.169 0.55-0.512 0.55-0.894v-4.762c0-0.381-0.212-0.725-0.55-0.894l-1.45-0.725v-1l1.45-0.725c0.337-0.169 0.55-0.512 0.55-0.894v-4.762c0-0.381-0.212-0.725-0.55-0.894l-1.45-0.725v-1l1.45-0.725zM25.106 13.787l0.894 0.45v3.525l-0.894 0.45-1.106 0.55v3.475l1.106 0.55 0.894 0.45v3.525l-0.894 0.45-1.106 0.55v1.238c0 0.55-0.45 1-1 1h-18c-0.55 0-1-0.45-1-1v-1.238l-1.106-0.55-0.894-0.45v-3.525l0.894-0.45 1.106-0.55v-3.475l-1.106-0.55-0.894-0.45v-3.525l0.894-0.45 1.106-0.55v-3.475l-1.106-0.55-0.894-0.45v-3.525l0.894-0.45 1.106-0.55v-1.237c0-0.55 0.45-1 1-1h18c0.55 0 1 0.45 1 1v1.237l1.106 0.55 0.894 0.45v3.525l-0.894 0.45-1.106 0.55v3.475l1.106 0.55zM21 4h-14c-0.55 0-1 0.45-1 1v22c0 0.55 0.45 1 1 1h14c0.55 0 1-0.45 1-1v-22c0-0.55-0.45-1-1-1zM20 26h-12v-20h12v20z"></path>
</svg>
