<!-- Generated by IcoMoon.io -->
<svg version="1.1" xmlns="http://www.w3.org/2000/svg" width="40" height="32" viewBox="0 0 40 32">
<title>tablets-solid</title>
<path d="M10 12c-5.069 0-9.219 3.656-9.994 8.419-0.050 0.3 0.206 0.581 0.519 0.581h18.956c0.313 0 0.569-0.281 0.519-0.581-0.781-4.762-4.931-8.419-10-8.419zM19.475 23h-18.95c-0.313 0-0.569 0.281-0.519 0.581 0.775 4.762 4.925 8.419 9.994 8.419s9.219-3.656 9.994-8.419c0.050-0.3-0.206-0.581-0.519-0.581zM37.087 2.913c-3.531-3.531-9.012-3.837-12.931-1-0.25 0.181-0.269 0.556-0.050 0.769l13.206 13.213c0.219 0.219 0.594 0.2 0.769-0.050 2.844-3.919 2.538-9.4-0.994-12.931zM22.688 4.106c-0.219-0.219-0.594-0.2-0.769 0.050-2.837 3.919-2.531 9.4 0.994 12.931 3.531 3.531 9.012 3.837 12.931 0.994 0.25-0.181 0.269-0.556 0.050-0.769l-13.206-13.206z"></path>
</svg>
