<!-- Generated by IcoMoon.io -->
<svg version="1.1" xmlns="http://www.w3.org/2000/svg" width="36" height="32" viewBox="0 0 36 32">
<title>tachometer-alt</title>
<path d="M18 9.5c0.829 0 1.5-0.671 1.5-1.5s-0.671-1.5-1.5-1.5-1.5 0.671-1.5 1.5 0.671 1.5 1.5 1.5zM9.5 10c-0.829 0-1.5 0.671-1.5 1.5s0.671 1.5 1.5 1.5 1.5-0.671 1.5-1.5-0.671-1.5-1.5-1.5zM26.5 10c-0.829 0-1.5 0.671-1.5 1.5s0.671 1.5 1.5 1.5 1.5-0.671 1.5-1.5-0.671-1.5-1.5-1.5zM30 18.5c-0.829 0-1.5 0.671-1.5 1.5s0.671 1.5 1.5 1.5 1.5-0.671 1.5-1.5-0.671-1.5-1.5-1.5zM18 2c-9.941 0-18 8.059-18 18 0 3.3 0.891 6.391 2.441 9.050 0.351 0.601 1.019 0.95 1.715 0.95h27.688c0.696 0 1.364-0.349 1.715-0.95 1.551-2.659 2.441-5.75 2.441-9.050 0-9.941-8.059-18-18-18zM31.844 28l-27.675 0.043c-1.419-2.433-2.169-5.214-2.169-8.043 0-8.822 7.177-16 16-16s16 7.178 16 16c0 2.829-0.75 5.609-2.156 8zM6 18.5c-0.829 0-1.5 0.671-1.5 1.5s0.671 1.5 1.5 1.5 1.5-0.671 1.5-1.5-0.671-1.5-1.5-1.5zM22.826 8.055c-0.512-0.174-1.090 0.097-1.271 0.618l-3.239 9.359c-0.106-0.008-0.207-0.032-0.315-0.032-2.209 0-4 1.791-4 4s1.791 4 4 4 4-1.791 4-4c0-1.391-0.711-2.614-1.789-3.331l3.234-9.342c0.179-0.521-0.096-1.091-0.619-1.272zM18 24c-1.102 0-2-0.898-2-2s0.898-2 2-2 2 0.898 2 2-0.898 2-2 2z"></path>
</svg>
