<!-- Generated by IcoMoon.io -->
<svg version="1.1" xmlns="http://www.w3.org/2000/svg" width="36" height="32" viewBox="0 0 36 32">
<title>tachometer-fastest</title>
<path d="M29.836 19.014l-8.186 1.364c-0.623-1.399-2.020-2.378-3.651-2.378-2.209 0-4 1.791-4 4s1.791 4 4 4c2.088 0 3.783-1.606 3.964-3.647l8.2-1.367c0.545-0.091 0.914-0.606 0.823-1.151s-0.617-0.915-1.151-0.822zM18 24c-1.104 0-2-0.896-2-2s0.896-2 2-2 2 0.896 2 2-0.896 2-2 2zM18 2c-9.941 0-18 8.059-18 18 0 3.3 0.891 6.391 2.441 9.050 0.351 0.601 1.019 0.95 1.715 0.95h27.688c0.696 0 1.364-0.349 1.715-0.95 1.551-2.659 2.441-5.75 2.441-9.050 0-9.941-8.059-18-18-18zM31.844 28l-27.675 0.043c-1.419-2.433-2.169-5.214-2.169-8.043 0-8.822 7.177-16 16-16s16 7.178 16 16c0 2.829-0.75 5.609-2.156 8z"></path>
</svg>
