<!-- Generated by IcoMoon.io -->
<svg version="1.1" xmlns="http://www.w3.org/2000/svg" width="36" height="32" viewBox="0 0 36 32">
<title>tachometer-alt-average</title>
<path d="M19 18.141v-10.141c0-0.553-0.448-1-1-1s-1 0.447-1 1v10.141c-1.723 0.446-3 1.997-3 3.859 0 2.209 1.791 4 4 4s4-1.791 4-4c0-1.862-1.277-3.413-3-3.859zM18 24c-1.104 0-2-0.896-2-2s0.896-2 2-2 2 0.896 2 2-0.896 2-2 2zM7.5 20c0 0.829-0.671 1.5-1.5 1.5s-1.5-0.671-1.5-1.5 0.671-1.5 1.5-1.5 1.5 0.671 1.5 1.5zM11 11.5c0 0.829-0.671 1.5-1.5 1.5s-1.5-0.671-1.5-1.5 0.671-1.5 1.5-1.5 1.5 0.671 1.5 1.5zM28 11.5c0 0.829-0.671 1.5-1.5 1.5s-1.5-0.671-1.5-1.5 0.671-1.5 1.5-1.5 1.5 0.671 1.5 1.5zM18 2c-9.941 0-18 8.059-18 18 0 3.3 0.891 6.391 2.441 9.050 0.351 0.601 1.019 0.95 1.715 0.95h27.688c0.696 0 1.364-0.349 1.715-0.95 1.551-2.659 2.441-5.75 2.441-9.050 0-9.941-8.059-18-18-18zM31.844 28l-27.675 0.043c-1.419-2.433-2.169-5.214-2.169-8.043 0-8.822 7.177-16 16-16s16 7.178 16 16c0 2.829-0.75 5.609-2.156 8zM31.5 20c0 0.829-0.671 1.5-1.5 1.5s-1.5-0.671-1.5-1.5 0.671-1.5 1.5-1.5 1.5 0.671 1.5 1.5z"></path>
</svg>
