<!-- Generated by IcoMoon.io -->
<svg version="1.1" xmlns="http://www.w3.org/2000/svg" width="36" height="32" viewBox="0 0 36 32">
<title>tachometer-alt-average-solid</title>
<path d="M18 2c-9.941 0-18 8.059-18 18 0 3.3 0.891 6.391 2.441 9.050 0.351 0.601 1.019 0.95 1.715 0.95h27.688c0.696 0 1.364-0.349 1.715-0.95 1.551-2.659 2.441-5.75 2.441-9.050 0-9.941-8.059-18-18-18zM6 24c-1.104 0-2-0.896-2-2s0.896-2 2-2 2 0.896 2 2-0.896 2-2 2zM9 14c-1.104 0-2-0.896-2-2s0.896-2 2-2 2 0.896 2 2-0.896 2-2 2zM21.445 26h-6.89c-0.344-0.591-0.555-1.267-0.555-2 0-1.678 1.035-3.109 2.5-3.703v-12.297c0-0.828 0.672-1.5 1.5-1.5s1.5 0.672 1.5 1.5v12.297c1.465 0.594 2.5 2.026 2.5 3.703 0 0.733-0.211 1.409-0.555 2zM25 12c0-1.104 0.896-2 2-2s2 0.896 2 2-0.896 2-2 2-2-0.896-2-2zM30 24c-1.104 0-2-0.896-2-2s0.896-2 2-2 2 0.896 2 2-0.896 2-2 2z"></path>
</svg>
