<!-- Generated by IcoMoon.io -->
<svg version="1.1" xmlns="http://www.w3.org/2000/svg" width="36" height="32" viewBox="0 0 36 32">
<title>tachometer-alt-solid</title>
<path d="M18 2c-9.941 0-18 8.059-18 18 0 3.3 0.891 6.391 2.441 9.050 0.351 0.601 1.019 0.95 1.715 0.95h27.688c0.696 0 1.364-0.349 1.715-0.95 1.551-2.659 2.441-5.75 2.441-9.050 0-9.941-8.059-18-18-18zM18 6c0.919 0 1.661 0.633 1.895 1.478-0.069 0.141-0.165 0.264-0.216 0.417l-0.576 1.729c-0.321 0.218-0.686 0.376-1.102 0.376-1.104 0-2-0.896-2-2s0.895-2 1.999-2zM6 24c-1.104 0-2-0.896-2-2s0.896-2 2-2 2 0.896 2 2-0.896 2-2 2zM9 14c-1.104 0-2-0.896-2-2s0.896-2 2-2 2 0.896 2 2-0.896 2-2 2zM24.423 9.474l-3.833 11.5c0.856 0.734 1.41 1.809 1.41 3.026 0 0.733-0.211 1.409-0.555 2h-6.89c-0.344-0.591-0.555-1.267-0.555-2 0-2.121 1.656-3.839 3.744-3.974l3.834-11.501c0.261-0.785 1.108-1.216 1.898-0.948 0.786 0.262 1.209 1.112 0.948 1.897zM25.339 13.049l0.97-2.909c0.217-0.081 0.446-0.139 0.691-0.139 1.104 0 2 0.896 2 2s-0.896 2-2 2c-0.711-0.001-1.306-0.393-1.661-0.951zM30 24c-1.104 0-2-0.896-2-2s0.896-2 2-2 2 0.896 2 2-0.896 2-2 2z"></path>
</svg>
