<!-- Generated by IcoMoon.io -->
<svg version="1.1" xmlns="http://www.w3.org/2000/svg" width="36" height="32" viewBox="0 0 36 32">
<title>tachometer-alt-fastest-solid</title>
<path d="M18 2c-9.941 0-18 8.059-18 18 0 3.3 0.891 6.391 2.441 9.050 0.351 0.601 1.019 0.95 1.715 0.95h27.688c0.696 0 1.364-0.349 1.715-0.95 1.551-2.659 2.441-5.75 2.441-9.050 0-9.941-8.059-18-18-18zM27 10c1.104 0 2 0.896 2 2s-0.896 2-2 2-2-0.896-2-2 0.896-2 2-2zM18 6c1.104 0 2 0.896 2 2s-0.896 2-2 2-2-0.896-2-2 0.896-2 2-2zM6 24c-1.104 0-2-0.896-2-2s0.896-2 2-2 2 0.896 2 2-0.896 2-2 2zM9 14c-1.104 0-2-0.896-2-2s0.896-2 2-2 2 0.896 2 2-0.896 2-2 2zM30.247 23.479l-8.371 1.395c-0.094 0.398-0.231 0.78-0.431 1.126h-6.89c-0.344-0.591-0.555-1.267-0.555-2 0-2.209 1.791-4 4-4 1.441 0 2.694 0.769 3.398 1.913l8.355-1.392c0.818-0.136 1.591 0.415 1.726 1.233 0.137 0.817-0.416 1.591-1.232 1.726z"></path>
</svg>
