<!-- Generated by IcoMoon.io -->
<svg version="1.1" xmlns="http://www.w3.org/2000/svg" width="36" height="32" viewBox="0 0 36 32">
<title>tachometer-alt-slowest-solid</title>
<path d="M18 2c-9.941 0-18 8.059-18 18 0 3.3 0.891 6.391 2.441 9.050 0.351 0.601 1.019 0.95 1.715 0.95h27.688c0.696 0 1.364-0.349 1.715-0.95 1.551-2.659 2.441-5.75 2.441-9.050 0-9.941-8.059-18-18-18zM18 6c1.104 0 2 0.896 2 2s-0.896 2-2 2-2-0.896-2-2 0.896-2 2-2zM9 10c1.104 0 2 0.896 2 2s-0.896 2-2 2-2-0.896-2-2 0.896-2 2-2zM21.445 26h-6.89c-0.201-0.345-0.337-0.727-0.431-1.126l-8.371-1.395c-0.816-0.136-1.369-0.909-1.232-1.726 0.136-0.817 0.908-1.368 1.726-1.232l8.355 1.392c0.704-1.144 1.957-1.913 3.398-1.913 2.209 0 4 1.791 4 4 0 0.733-0.211 1.409-0.555 2zM25 12c0-1.104 0.896-2 2-2s2 0.896 2 2-0.896 2-2 2-2-0.896-2-2zM30 24c-1.104 0-2-0.896-2-2s0.896-2 2-2 2 0.896 2 2-0.896 2-2 2z"></path>
</svg>
