<!-- Generated by IcoMoon.io -->
<svg version="1.1" xmlns="http://www.w3.org/2000/svg" width="36" height="32" viewBox="0 0 36 32">
<title>tachometer-alt-fast</title>
<path d="M7.5 20c0 0.829-0.671 1.5-1.5 1.5s-1.5-0.671-1.5-1.5 0.671-1.5 1.5-1.5 1.5 0.671 1.5 1.5zM18 9.5c0.829 0 1.5-0.671 1.5-1.5s-0.671-1.5-1.5-1.5-1.5 0.671-1.5 1.5 0.671 1.5 1.5 1.5zM9.5 10c-0.829 0-1.5 0.671-1.5 1.5s0.671 1.5 1.5 1.5 1.5-0.671 1.5-1.5-0.671-1.5-1.5-1.5zM27.129 10.723c0.43 0.348 0.496 0.977 0.149 1.406l-6.071 7.5c0.492 0.665 0.794 1.48 0.794 2.371 0 2.209-1.791 4-4 4s-4-1.791-4-4 1.791-4 4-4c0.592 0 1.149 0.136 1.654 0.367l6.068-7.496c0.348-0.43 0.975-0.495 1.406-0.149zM20 22c0-1.104-0.896-2-2-2s-2 0.896-2 2 0.896 2 2 2 2-0.896 2-2zM30 18.5c-0.829 0-1.5 0.671-1.5 1.5s0.671 1.5 1.5 1.5 1.5-0.671 1.5-1.5-0.671-1.5-1.5-1.5zM36 20c0 3.3-0.891 6.391-2.441 9.050-0.351 0.601-1.019 0.95-1.715 0.95h-27.688c-0.696 0-1.364-0.349-1.715-0.95-1.551-2.659-2.441-5.75-2.441-9.050 0-9.941 8.059-18 18-18s18 8.059 18 18zM34 20c0-8.822-7.178-16-16-16s-16 7.178-16 16c0 2.829 0.75 5.609 2.169 8.043l27.675-0.043c1.406-2.391 2.156-5.171 2.156-8z"></path>
</svg>
