<!-- Generated by IcoMoon.io -->
<svg version="1.1" xmlns="http://www.w3.org/2000/svg" width="36" height="32" viewBox="0 0 36 32">
<title>tachometer-solid</title>
<path d="M18 2c-9.941 0-18 8.059-18 18 0 3.3 0.891 6.391 2.441 9.050 0.351 0.601 1.019 0.95 1.715 0.95h27.688c0.696 0 1.364-0.349 1.715-0.95 1.551-2.659 2.441-5.75 2.441-9.050 0-9.941-8.059-18-18-18zM24.423 9.474l-3.833 11.5c0.856 0.734 1.41 1.809 1.41 3.026 0 0.733-0.211 1.409-0.555 2h-6.89c-0.344-0.591-0.555-1.267-0.555-2 0-2.121 1.656-3.839 3.744-3.974l3.834-11.501c0.261-0.785 1.108-1.216 1.898-0.948 0.786 0.262 1.209 1.112 0.948 1.897z"></path>
</svg>
