<!-- Generated by IcoMoon.io -->
<svg version="1.1" xmlns="http://www.w3.org/2000/svg" width="36" height="32" viewBox="0 0 36 32">
<title>tachometer-alt-slow-solid</title>
<path d="M18 2c-9.941 0-18 8.059-18 18 0 3.3 0.891 6.391 2.441 9.050 0.351 0.601 1.019 0.95 1.715 0.95h27.688c0.696 0 1.364-0.349 1.715-0.95 1.551-2.659 2.441-5.75 2.441-9.050 0-9.941-8.059-18-18-18zM18 6c1.104 0 2 0.896 2 2s-0.896 2-2 2-2-0.896-2-2 0.896-2 2-2zM6 24c-1.104 0-2-0.896-2-2s0.896-2 2-2 2 0.896 2 2-0.896 2-2 2zM21.445 26h-6.89c-0.344-0.591-0.555-1.267-0.555-2 0-0.754 0.221-1.452 0.584-2.054l-6.784-9.046c-0.497-0.663-0.362-1.604 0.3-2.101 0.665-0.495 1.604-0.361 2.101 0.3l6.785 9.046c0.326-0.086 0.662-0.146 1.015-0.146 2.209 0 4 1.791 4 4-0.001 0.733-0.212 1.409-0.556 2zM25 12c0-1.104 0.896-2 2-2s2 0.896 2 2-0.896 2-2 2-2-0.896-2-2zM30 24c-1.104 0-2-0.896-2-2s0.896-2 2-2 2 0.896 2 2-0.896 2-2 2z"></path>
</svg>
