<!-- Generated by IcoMoon.io -->
<svg version="1.1" xmlns="http://www.w3.org/2000/svg" width="36" height="32" viewBox="0 0 36 32">
<title>tachometer-alt-slow</title>
<path d="M7.5 20c0 0.829-0.671 1.5-1.5 1.5s-1.5-0.671-1.5-1.5 0.671-1.5 1.5-1.5 1.5 0.671 1.5 1.5zM18 9.5c0.829 0 1.5-0.671 1.5-1.5s-0.671-1.5-1.5-1.5-1.5 0.671-1.5 1.5 0.671 1.5 1.5 1.5zM22 22c0 2.209-1.791 4-4 4s-4-1.791-4-4c0-0.891 0.301-1.706 0.794-2.371l-6.071-7.5c-0.348-0.429-0.281-1.059 0.149-1.406s1.061-0.281 1.406 0.149l6.068 7.496c0.506-0.231 1.063-0.367 1.654-0.367 2.209 0 3.999 1.791 3.999 4zM20 22c0-1.104-0.896-2-2-2s-2 0.896-2 2 0.896 2 2 2 2-0.896 2-2zM36 20c0 3.3-0.891 6.391-2.441 9.050-0.351 0.601-1.019 0.95-1.715 0.95h-27.688c-0.696 0-1.364-0.349-1.715-0.95-1.551-2.659-2.441-5.75-2.441-9.050 0-9.941 8.059-18 18-18s18 8.059 18 18zM34 20c0-8.822-7.178-16-16-16s-16 7.178-16 16c0 2.829 0.75 5.609 2.169 8.043l27.675-0.043c1.406-2.391 2.156-5.171 2.156-8zM26.5 10c-0.829 0-1.5 0.671-1.5 1.5s0.671 1.5 1.5 1.5 1.5-0.671 1.5-1.5-0.671-1.5-1.5-1.5zM30 18.5c-0.829 0-1.5 0.671-1.5 1.5s0.671 1.5 1.5 1.5 1.5-0.671 1.5-1.5-0.671-1.5-1.5-1.5z"></path>
</svg>
