<!-- Generated by IcoMoon.io -->
<svg version="1.1" xmlns="http://www.w3.org/2000/svg" width="36" height="32" viewBox="0 0 36 32">
<title>tachometer-alt-fastest</title>
<path d="M7.5 20c0 0.829-0.671 1.5-1.5 1.5s-1.5-0.671-1.5-1.5 0.671-1.5 1.5-1.5 1.5 0.671 1.5 1.5zM18 9.5c0.829 0 1.5-0.671 1.5-1.5s-0.671-1.5-1.5-1.5-1.5 0.671-1.5 1.5 0.671 1.5 1.5 1.5zM26.5 13c0.829 0 1.5-0.671 1.5-1.5s-0.671-1.5-1.5-1.5-1.5 0.671-1.5 1.5 0.671 1.5 1.5 1.5zM30.986 19.836c0.092 0.545-0.277 1.059-0.823 1.151l-8.2 1.367c-0.181 2.040-1.876 3.646-3.964 3.646-2.209 0-4-1.791-4-4s1.791-4 4-4c1.631 0 3.027 0.979 3.651 2.378l8.186-1.364c0.533-0.093 1.058 0.277 1.15 0.823zM20 22c0-1.104-0.896-2-2-2s-2 0.896-2 2 0.896 2 2 2 2-0.896 2-2zM9.5 10c-0.829 0-1.5 0.671-1.5 1.5s0.671 1.5 1.5 1.5 1.5-0.671 1.5-1.5-0.671-1.5-1.5-1.5zM36 20c0 3.3-0.891 6.391-2.441 9.050-0.351 0.601-1.019 0.95-1.715 0.95h-27.688c-0.696 0-1.364-0.349-1.715-0.95-1.551-2.659-2.441-5.75-2.441-9.050 0-9.941 8.059-18 18-18s18 8.059 18 18zM34 20c0-8.822-7.178-16-16-16s-16 7.178-16 16c0 2.829 0.75 5.609 2.169 8.043l27.675-0.043c1.406-2.391 2.156-5.171 2.156-8z"></path>
</svg>
