<!-- Generated by IcoMoon.io -->
<svg version="1.1" xmlns="http://www.w3.org/2000/svg" width="32" height="32" viewBox="0 0 32 32">
<title>taco-solid</title>
<path d="M16 12c-8.136 0-14.866 6.712-15.98 15.443-0.172 1.349 0.792 2.558 2.015 2.558h27.93c1.223 0 2.188-1.209 2.015-2.558-1.114-8.73-7.844-15.443-15.98-15.443zM7 26c-0.552 0-1-0.448-1-1s0.448-1 1-1c0.552 0 1 0.448 1 1v0c0 0.552-0.448 1-1 1v0zM11 22c-0.552 0-1-0.448-1-1s0.448-1 1-1c0.552 0 1 0.448 1 1v0c0 0.552-0.448 1-1 1v0zM0.458 17.468c0.15 0.518 0.251 1.12 0.282 1.74l0.001 0.019c3.259-5.569 8.941-9.226 15.259-9.226s12 3.658 15.259 9.227c0.032-0.638 0.133-1.238 0.297-1.812l-0.014 0.057c0-0.006 0.003-0.011 0.005-0.016 0.321-1.082 0.688-2.309 0.26-3.438-0.447-1.191-1.547-1.835-2.519-2.404-0.593-0.346-1.207-0.706-1.482-1.096-0.296-0.418-0.458-1.157-0.614-1.875-0.247-1.13-0.527-2.411-1.477-3.165-0.981-0.778-2.25-0.688-3.375-0.613-0.674 0.048-1.375 0.094-1.824-0.069-0.433-0.157-0.945-0.634-1.438-1.094-1.816-1.692-3.166-2.782-6.149-0.003-0.495 0.461-1.007 0.938-1.438 1.094-0.451 0.162-1.149 0.116-1.824 0.069-1.125-0.077-2.395-0.165-3.375 0.613-0.95 0.754-1.231 2.035-1.478 3.165-0.156 0.716-0.318 1.455-0.614 1.875-0.274 0.39-0.889 0.75-1.482 1.096-0.972 0.569-2.072 1.212-2.519 2.404-0.426 1.13-0.063 2.356 0.26 3.438-0.004 0.004-0.003 0.010-0.001 0.015z"></path>
</svg>
