<!-- Generated by IcoMoon.io -->
<svg version="1.1" xmlns="http://www.w3.org/2000/svg" width="32" height="32" viewBox="0 0 32 32">
<title>taco</title>
<path d="M31.967 25.477c-0.191-1.455-0.511-2.767-0.956-4.019l0.042 0.135c0.481-1.239 0.066-1.717 0.469-3.118 0.332-1.153 0.784-2.717 0.188-4.349-0.632-1.733-2.087-2.609-3.049-3.188-0.209-0.125-0.54-0.324-0.695-0.446-0.054-0.168-0.152-0.637-0.214-0.931-0.257-1.207-0.608-2.859-1.985-3.984-1.282-1.046-2.786-1.046-3.281-1.046-0.714 0-1.344 0.088-1.829 0.084-0.872-0.697-2.296-2.616-4.567-2.616-2.354 0-4.042 2.053-4.742 2.616-0.514 0.004-1.091-0.084-1.829-0.084h-0.007c-0.5 0-2 0.005-3.274 1.047-1.375 1.125-1.729 2.776-1.985 3.982-0.063 0.279-0.152 0.72-0.229 0.938-0.161 0.125-0.478 0.313-0.679 0.434-0.966 0.583-2.421 1.459-3.053 3.193-0.596 1.629-0.145 3.193 0.188 4.334 0.404 1.41-0.007 1.898 0.472 3.131-0.405 1.118-0.726 2.431-0.907 3.788l-0.011 0.099c-0.274 2.184 1.279 4.523 3.748 4.523h24.438c2.469 0 4.024-2.334 3.749-4.523zM28.217 28h-24.438c-1.069 0-1.914-1.074-1.763-2.274 0.976-7.759 6.864-13.726 13.984-13.726s13.008 5.967 13.982 13.726c0.151 1.199-0.694 2.274-1.763 2.274zM29.529 18.25c-2.902-4.983-7.938-8.25-13.533-8.25s-10.627 3.267-13.529 8.25c-0.228-0.98-0.726-2.269-0.298-3.438 0.393-1.073 1.354-1.652 2.205-2.164 1.38-0.829 1.465-0.927 1.834-2.672 0.216-1.017 0.462-2.171 1.293-2.849 0.593-0.484 1.307-0.596 2.016-0.596 2.457 0 2.222 0.5 3.793-1 1.151-1.106 2.024-1.532 2.777-1.532 0.953 0 1.714 0.681 2.601 1.532 1.571 1.505 1.335 1 3.793 1 0.709 0 1.423 0.112 2.016 0.596 0.831 0.679 1.077 1.832 1.293 2.849 0.369 1.744 0.453 1.842 1.834 2.672 0.85 0.512 1.813 1.091 2.204 2.163 0.358 0.974 0.098 1.751-0.297 3.439zM7 22c-0.552 0-1 0.448-1 1s0.448 1 1 1c0.552 0 1-0.448 1-1v0c0-0.552-0.448-1-1-1v0zM11 18c-0.552 0-1 0.448-1 1s0.448 1 1 1c0.552 0 1-0.448 1-1v0c0-0.552-0.448-1-1-1v0z"></path>
</svg>
