<!-- Generated by IcoMoon.io -->
<svg version="1.1" xmlns="http://www.w3.org/2000/svg" width="32" height="32" viewBox="0 0 32 32">
<title>tag</title>
<path d="M31.121 14.121l-13.243-13.243c-0.543-0.543-1.293-0.879-2.121-0.879h-12.757c-1.657 0-3 1.343-3 3v12.757c0 0.828 0.336 1.578 0.879 2.121l13.243 13.243c1.172 1.172 3.071 1.172 4.243 0l12.757-12.757c1.172-1.172 1.172-3.071 0-4.243zM29.707 16.95l-12.757 12.757c-0.39 0.39-1.023 0.391-1.414 0l-13.243-13.243c-0.181-0.18-0.293-0.429-0.293-0.704 0-0.001 0-0.002 0-0.003v0-12.757c0-0.551 0.449-1 1-1h12.757c0.267 0 0.518 0.104 0.707 0.293l13.243 13.243c0.39 0.39 0.39 1.024 0 1.414zM9 7.75c0.689 0 1.25 0.561 1.25 1.25s-0.561 1.25-1.25 1.25-1.25-0.561-1.25-1.25 0.561-1.25 1.25-1.25zM9 6c-1.657 0-3 1.343-3 3s1.343 3 3 3 3-1.343 3-3-1.343-3-3-3z"></path>
</svg>
