<!-- Generated by IcoMoon.io -->
<svg version="1.1" xmlns="http://www.w3.org/2000/svg" width="40" height="32" viewBox="0 0 40 32">
<title>tags-solid</title>
<path d="M31.121 14.121l-13.243-13.243c-0.543-0.543-1.293-0.879-2.121-0.879h-12.757c-1.657 0-3 1.343-3 3v12.757c0 0.828 0.336 1.578 0.879 2.121l13.243 13.243c1.171 1.172 3.071 1.172 4.243 0l12.757-12.757c1.172-1.172 1.172-3.071 0-4.243zM7 10c-1.657 0-3-1.343-3-3s1.343-3 3-3 3 1.343 3 3-1.343 3-3 3zM39.121 18.364l-12.757 12.757c-1.172 1.172-3.071 1.172-4.243 0l-0.023-0.023 10.879-10.879c1.062-1.062 1.648-2.475 1.648-3.977s-0.585-2.915-1.648-3.977l-12.265-12.265h3.045c0.828 0 1.578 0.336 2.121 0.879l13.243 13.243c1.172 1.172 1.172 3.071 0 4.243z"></path>
</svg>
