<!-- Generated by IcoMoon.io -->
<svg version="1.1" xmlns="http://www.w3.org/2000/svg" width="40" height="32" viewBox="0 0 40 32">
<title>tags</title>
<path d="M39.121 18.364l-12.757 12.757c-1.172 1.172-3.071 1.172-4.243 0l-0.111-0.111 1.414-1.414 0.111 0.111c0.391 0.391 1.024 0.39 1.414 0l12.757-12.757c0.39-0.39 0.39-1.024 0-1.414l-13.243-13.243c-0.18-0.181-0.429-0.293-0.704-0.293-0.001 0-0.002 0-0.003 0h-1.222l-2-2h3.222c0.828 0 1.578 0.336 2.121 0.879l13.243 13.243c1.172 1.172 1.172 3.071 0 4.243zM15.757 2h-12.757c-0.551 0-1 0.449-1 1v12.757c0 0.267 0.104 0.518 0.293 0.707l13.243 13.243c0.391 0.391 1.024 0.39 1.414 0l12.757-12.757c0.39-0.39 0.39-1.024 0-1.414l-13.243-13.243c-0.18-0.181-0.429-0.293-0.704-0.293-0.001 0-0.002 0-0.003 0h0zM15.757 0c0.828 0 1.578 0.336 2.121 0.879l13.243 13.243c1.172 1.172 1.172 3.071 0 4.243l-12.757 12.757c-1.172 1.172-3.071 1.172-4.243 0l-13.243-13.243c-0.543-0.543-0.879-1.293-0.879-2.121v0-12.757c0-1.657 1.343-3 3-3h12.757zM9 7.75c-0.689 0-1.25 0.561-1.25 1.25s0.561 1.25 1.25 1.25 1.25-0.561 1.25-1.25-0.561-1.25-1.25-1.25zM9 6c1.657 0 3 1.343 3 3s-1.343 3-3 3-3-1.343-3-3 1.343-3 3-3z"></path>
</svg>
