<!-- Generated by IcoMoon.io -->
<svg version="1.1" xmlns="http://www.w3.org/2000/svg" width="40" height="32" viewBox="0 0 40 32">
<title>tally</title>
<path d="M39.674 9.349c-0.083-0.263-0.364-0.409-0.627-0.326l-6.047 1.883v-8.406c0-0.276-0.224-0.5-0.5-0.5h-1c-0.276 0-0.5 0.224-0.5 0.5v9.028l-6 1.867v-10.896c0-0.276-0.224-0.5-0.5-0.5h-1c-0.276 0-0.5 0.224-0.5 0.5v11.519l-6 1.867v-13.386c0-0.276-0.224-0.5-0.5-0.5h-1c-0.276 0-0.5 0.224-0.5 0.5v14.009l-6 1.867v-15.877c0-0.276-0.224-0.5-0.5-0.5h-1c-0.276 0-0.5 0.224-0.5 0.5v16.499l-6.651 2.071c-0.204 0.066-0.349 0.255-0.349 0.477 0 0.054 0.009 0.106 0.024 0.154l-0.001-0.004 0.302 0.953c0.083 0.263 0.364 0.409 0.627 0.326l6.047-1.882v8.406c0 0.276 0.224 0.5 0.5 0.5h1c0.276 0 0.5-0.224 0.5-0.5v-9.029l6-1.867v10.896c0 0.276 0.224 0.5 0.5 0.5h1c0.276 0 0.5-0.224 0.5-0.5v-11.519l6-1.867v13.386c0 0.276 0.224 0.5 0.5 0.5h1c0.276 0 0.5-0.224 0.5-0.5v-14.009l6-1.867v15.877c0 0.276 0.224 0.5 0.5 0.5h1c0.276 0 0.5-0.224 0.5-0.5v-16.499l6.651-2.071c0.204-0.066 0.349-0.255 0.349-0.477 0-0.054-0.008-0.106-0.024-0.154l0.001 0.004-0.303-0.954z"></path>
</svg>
