<!-- Generated by IcoMoon.io -->
<svg version="1.1" xmlns="http://www.w3.org/2000/svg" width="28" height="32" viewBox="0 0 28 32">
<title>tanakh</title>
<path d="M23 0h-21.5c-0.001 0-0.002 0-0.004 0-0.826 0-1.496 0.67-1.496 1.496 0 0.001 0 0.003 0 0.004v-0 23c0.002 0.623 0.381 1.156 0.921 1.384l0.010 0.004c0.225 1.006 0.275 2.85 0.025 4.113h-0.206c-0.414 0-0.75 0.336-0.75 0.75v0 0.5c0 0.414 0.336 0.75 0.75 0.75v0h23.25c2.209 0 4-1.791 4-4v0-23c0-2.761-2.239-5-5-5v0zM24 30h-21.269c0.090-0.601 0.141-1.294 0.141-2s-0.051-1.399-0.15-2.077l0.009 0.077h21.269c1.105 0 2 0.895 2 2s-0.895 2-2 2v0zM26 24.555c-0.572-0.345-1.261-0.551-1.999-0.555h-22.001v-22h21c1.657 0 3 1.343 3 3v0zM19.661 13l1.731-2.895c0.111-0.183 0.177-0.405 0.177-0.641 0-0.69-0.56-1.25-1.25-1.25-0 0-0.001 0-0.001 0h-3.522l-1.734-2.891c-0.224-0.379-0.617-0.649-1.063-0.605-0 0-0.001 0-0.001 0-0.455 0-0.853 0.243-1.072 0.607l-0.003 0.006-1.725 2.885h-3.519c-0 0-0 0-0.001 0-0.466 0-0.872 0.253-1.090 0.628l-0.003 0.006c-0.103 0.176-0.164 0.388-0.164 0.614 0 0.235 0.066 0.455 0.18 0.642l-0.003-0.005 1.739 2.901-1.731 2.895c-0.111 0.183-0.177 0.405-0.177 0.641 0 0.69 0.56 1.25 1.25 1.25 0 0 0.001 0 0.001 0h3.522l1.734 2.891c0.217 0.365 0.61 0.605 1.058 0.605 0 0 0.001 0 0.001 0h0.004c0 0 0.001 0 0.001 0 0.455 0 0.853-0.243 1.072-0.607l0.003-0.006 1.725-2.885h3.519c0 0 0 0 0.001 0 0.465 0 0.872-0.253 1.090-0.628l0.003-0.006c0.103-0.176 0.164-0.388 0.164-0.614 0-0.235-0.066-0.455-0.18-0.642l0.003 0.005zM19.879 9.714l-1.092 1.826-1.093-1.824zM14 6.461l1.050 1.754h-2.101zM8.125 9.715h2.182l-1.094 1.823zM8.125 16.285l1.092-1.826 1.093 1.826zM14 19.539l-1.050-1.754h2.099zM15.947 16.285h-3.893l-1.967-3.285 1.964-3.284h3.894l1.967 3.284zM17.697 16.285l1.091-1.823 1.091 1.823z"></path>
</svg>
