<!-- Generated by IcoMoon.io -->
<svg version="1.1" xmlns="http://www.w3.org/2000/svg" width="28" height="32" viewBox="0 0 28 32">
<title>tanakh-solid</title>
<path d="M19.875 8.715h-2.181l1.093 1.824zM17.696 15.285h2.182l-1.092-1.823zM14.003 18.539l1.049-1.754h-2.099zM8.125 15.285h2.181l-1.092-1.824zM10.306 8.715h-2.181l1.092 1.823zM22 0h-20.4c-1 0-1.6 0.6-1.6 1.6v20.8q0 0.9 0.6 1.2c0.2 0.8 0.2 3.6 0 4.6q-0.6 0.6-0.6 1.2v1c0 1 0.8 1.6 1.6 1.6h20.4c3.4 0 6-2.6 6-6v-20c0-3.4-2.6-6-6-6zM6.588 7.849c0.221-0.382 0.627-0.634 1.092-0.634 0.001 0 0.001 0 0.002 0h3.519l1.724-2.884c0.222-0.37 0.62-0.614 1.076-0.614 0.001 0 0.002 0 0.002 0h-0c0.001 0 0.002 0 0.004 0 0.449 0 0.841 0.24 1.056 0.599l0.003 0.006 1.731 2.893h3.523c0.69 0 1.249 0.56 1.249 1.25 0 0.238-0.066 0.46-0.181 0.649l0.003-0.006-1.73 2.892 1.737 2.902c0.112 0.181 0.179 0.402 0.179 0.637 0 0.226-0.061 0.437-0.167 0.619l0.003-0.006c-0.221 0.382-0.627 0.634-1.092 0.634-0.001 0-0.001 0-0.002 0h-3.519l-1.724 2.883c-0.221 0.37-0.62 0.613-1.075 0.614h-0c-0.001 0-0.002 0-0.004 0-0.449 0-0.841-0.24-1.056-0.599l-0.003-0.006-1.731-2.893h-3.524c-0.69-0-1.249-0.56-1.249-1.25 0-0.238 0.066-0.46 0.181-0.649l-0.003 0.006 1.729-2.892-1.737-2.902c-0.112-0.181-0.178-0.401-0.178-0.636 0-0.225 0.061-0.437 0.167-0.618l-0.003 0.006zM22 28h-17.8v-4h17.8c1 0 2 0.8 2 2s-0.8 2-2 2zM14 5.461l-1.049 1.754h2.099zM12.055 15.285h3.894l1.963-3.285-1.967-3.286h-3.894l-1.963 3.286z"></path>
</svg>
