<!-- Generated by IcoMoon.io -->
<svg version="1.1" xmlns="http://www.w3.org/2000/svg" width="40" height="32" viewBox="0 0 40 32">
<title>tape</title>
<path d="M39.5 28h-18.319c4.081-2.45 6.819-6.9 6.819-12 0-7.731-6.269-14-14-14s-14 6.269-14 14 6.269 14 14 14h25.5c0.275 0 0.5-0.225 0.5-0.5v-1c0-0.275-0.225-0.5-0.5-0.5zM2 16c0-6.619 5.381-12 12-12s12 5.381 12 12-5.381 12-12 12-12-5.381-12-12zM14 10c-3.313 0-6 2.688-6 6s2.688 6 6 6 6-2.688 6-6-2.688-6-6-6zM14 20c-2.206 0-4-1.794-4-4s1.794-4 4-4 4 1.794 4 4-1.794 4-4 4z"></path>
</svg>
