<!-- Generated by IcoMoon.io -->
<svg version="1.1" xmlns="http://www.w3.org/2000/svg" width="32" height="32" viewBox="0 0 32 32">
<title>tasks-solid</title>
<path d="M8.726 2.219c-0.136-0.136-0.324-0.221-0.531-0.221s-0.395 0.084-0.531 0.221l-0 0-3.98 3.957-1.419-1.383c-0.136-0.136-0.324-0.221-0.531-0.221s-0.395 0.084-0.531 0.221l-0 0-0.981 0.982c-0.136 0.136-0.221 0.324-0.221 0.531s0.084 0.395 0.221 0.531l2.974 2.963c0.143 0.136 0.337 0.22 0.55 0.22s0.407-0.084 0.551-0.22l-0 0 0.974-0.976 4.513-4.512c0.137-0.137 0.221-0.326 0.221-0.534 0-0.206-0.082-0.392-0.216-0.529l0 0zM8.726 12.168c-0.136-0.136-0.324-0.221-0.531-0.221s-0.395 0.084-0.531 0.221l-3.98 3.983-1.419-1.381c-0.136-0.136-0.324-0.221-0.531-0.221s-0.395 0.084-0.531 0.221l-0.981 0.981c-0.136 0.136-0.221 0.324-0.221 0.531s0.084 0.395 0.221 0.531l2.967 2.969c0.143 0.136 0.337 0.22 0.55 0.22s0.407-0.084 0.55-0.22l5.493-5.494c0.136-0.136 0.22-0.324 0.22-0.531 0-0.205-0.082-0.39-0.215-0.525l0 0zM4 23c-1.656 0-3.037 1.344-3.037 3s1.383 3 3.037 3c1.657 0 3-1.343 3-3s-1.343-3-3-3v0zM31 24h-18c-0.552 0-1 0.448-1 1v0 2c0 0.552 0.448 1 1 1v0h18c0.552 0 1-0.448 1-1v0-2c0-0.552-0.448-1-1-1v0zM31 4h-18c-0.552 0-1 0.448-1 1v0 2c0 0.552 0.448 1 1 1v0h18c0.552 0 1-0.448 1-1v0-2c0-0.552-0.448-1-1-1v0zM31 14h-18c-0.552 0-1 0.448-1 1v0 2c0 0.552 0.448 1 1 1v0h18c0.552 0 1-0.448 1-1v0-2c0-0.552-0.448-1-1-1v0z"></path>
</svg>
