<!-- Generated by IcoMoon.io -->
<svg version="1.1" xmlns="http://www.w3.org/2000/svg" width="32" height="32" viewBox="0 0 32 32">
<title>tasks-alt</title>
<path d="M30.5 11.938h-29c-0.831 0-1.5 0.669-1.5 1.5v5c0 0.831 0.669 1.5 1.5 1.5h29c0.831 0 1.5-0.669 1.5-1.5v-5c0-0.831-0.669-1.5-1.5-1.5zM8 17.938h-6v-4h6v4zM30 17.938h-20v-4h20v4zM30.5 1.938h-29c-0.831 0-1.5 0.669-1.5 1.5v5c0 0.831 0.669 1.5 1.5 1.5h29c0.831 0 1.5-0.669 1.5-1.5v-5c0-0.831-0.669-1.5-1.5-1.5zM20 7.938h-18v-4h18v4zM30 7.938h-8v-4h8v4zM30.5 21.938h-29c-0.831 0-1.5 0.669-1.5 1.5v5c0 0.831 0.669 1.5 1.5 1.5h29c0.831 0 1.5-0.669 1.5-1.5v-5c0-0.831-0.669-1.5-1.5-1.5zM16 27.938h-14v-4h14v4zM30 27.938h-12v-4h12v4z"></path>
</svg>
