<!-- Generated by IcoMoon.io -->
<svg version="1.1" xmlns="http://www.w3.org/2000/svg" width="32" height="32" viewBox="0 0 32 32">
<title>tasks</title>
<path d="M9.084 12.938c-0.091-0.091-0.216-0.148-0.355-0.148s-0.264 0.056-0.355 0.148l-4.438 4.438-2.438-2.438c-0.090-0.090-0.215-0.146-0.353-0.146s-0.263 0.056-0.353 0.146l-0.709 0.709c-0.091 0.091-0.147 0.216-0.147 0.354s0.056 0.263 0.147 0.354v0l3.5 3.5c0.090 0.090 0.215 0.146 0.353 0.146s0.263-0.056 0.353-0.146l5.5-5.5c0.091-0.091 0.147-0.216 0.147-0.354s-0.056-0.263-0.147-0.354v0zM3.933 24c-1.104 0-2.025 0.896-2.025 2s0.921 2 2.025 2c1.105 0 2-0.895 2-2s-0.895-2-2-2v0zM9.084 2.938c-0.091-0.091-0.216-0.148-0.355-0.148s-0.264 0.056-0.355 0.148l-4.438 4.438-2.438-2.438c-0.090-0.090-0.215-0.146-0.353-0.146s-0.263 0.056-0.353 0.146l-0.709 0.709c-0.091 0.090-0.147 0.216-0.147 0.354s0.056 0.263 0.147 0.354v0l3.5 3.5c0.090 0.090 0.215 0.146 0.353 0.146s0.263-0.056 0.353-0.146l5.5-5.5c0.091-0.090 0.147-0.216 0.147-0.354s-0.056-0.263-0.147-0.354v0zM31.438 25h-19c-0.276 0-0.5 0.224-0.5 0.5v0 1c0 0.276 0.224 0.5 0.5 0.5v0h19c0.276 0 0.5-0.224 0.5-0.5v0-1c0-0.276-0.224-0.5-0.5-0.5v0zM31.438 5h-19c-0.276 0-0.5 0.224-0.5 0.5v0 1c0 0.276 0.224 0.5 0.5 0.5v0h19c0.276 0 0.5-0.224 0.5-0.5v0-1c0-0.276-0.224-0.5-0.5-0.5v0zM31.438 15h-19c-0.276 0-0.5 0.224-0.5 0.5v0 1c0 0.276 0.224 0.5 0.5 0.5v0h19c0.276 0 0.5-0.224 0.5-0.5v0-1c0-0.276-0.224-0.5-0.5-0.5v0z"></path>
</svg>
