<!-- Generated by IcoMoon.io -->
<svg version="1.1" xmlns="http://www.w3.org/2000/svg" width="32" height="32" viewBox="0 0 32 32">
<title>taxi</title>
<path d="M6 18c-1.104 0-2 0.896-2 2s0.896 2 2 2 2-0.896 2-2-0.896-2-2-2zM26 18c-1.104 0-2 0.896-2 2s0.896 2 2 2 2-0.896 2-2-0.896-2-2-2zM20.5 20h-9c-0.276 0-0.5 0.224-0.5 0.5v1c0 0.276 0.224 0.5 0.5 0.5h9c0.276 0 0.5-0.224 0.5-0.5v-1c0-0.276-0.224-0.5-0.5-0.5zM27.944 14.35l-0.832-4.299c-0.454-2.348-2.518-4.051-4.909-4.051h-0.203v-2c0-1.104-0.896-2-2-2h-8c-1.104 0-2 0.896-2 2v2h-0.203c-2.391 0-4.455 1.703-4.908 4.050l-0.832 4.3c-2.354 0.811-4.056 3.021-4.056 5.65v2c0 1.477 0.809 2.753 2 3.445v2.555c0 1.104 0.896 2 2 2h3c1.104 0 2-0.896 2-2v-2h14v2c0 1.104 0.896 2 2 2h3c1.104 0 2-0.896 2-2v-2.555c1.191-0.693 2-1.968 2-3.445v-2c0-2.629-1.702-4.839-4.056-5.65zM12 4h8v2h-8v-2zM6.854 10.43c0.271-1.409 1.509-2.43 2.943-2.43h12.406c1.434 0 2.672 1.021 2.943 2.431l0.691 3.569h-19.675l0.691-3.57zM7 28h-3v-2h3v2zM28 28h-3v-2h3v2zM30 22c0 1.102-0.898 2-2 2h-24c-1.103 0-2-0.898-2-2v-2c0-2.206 1.794-4 4-4h20c2.206 0 4 1.794 4 4v2z"></path>
</svg>
