<!-- Generated by IcoMoon.io -->
<svg version="1.1" xmlns="http://www.w3.org/2000/svg" width="32" height="32" viewBox="0 0 32 32">
<title>taxi-solid</title>
<path d="M28.875 15.102l-1.375-5.303c-0.6-2.2-2.6-3.8-4.8-3.8h-0.7v-2c0-1.104-0.896-2-2-2h-8c-1.104 0-2 0.896-2 2v2h-0.7c-2.2 0-4.2 1.6-4.8 3.8l-1.375 5.303c-1.787 0.4-3.125 1.989-3.125 3.898v3c0 1.477 0.809 2.753 2 3.445v2.555c0 1.104 0.896 2 2 2h2c1.104 0 2-0.896 2-2v-2h16v2c0 1.104 0.896 2 2 2h2c1.104 0 2-0.896 2-2v-2.555c1.191-0.693 2-1.969 2-3.445v-3c0-1.908-1.338-3.498-3.125-3.898zM6 22c-1.104 0-2-0.896-2-2s0.896-2 2-2 2 0.896 2 2-0.896 2-2 2zM7.284 15l1.075-4.148c0.139-0.51 0.599-0.852 0.941-0.852h13.4c0.342 0 0.802 0.342 0.928 0.804l1.087 4.196h-17.431zM26 22c-1.104 0-2-0.896-2-2s0.896-2 2-2 2 0.896 2 2-0.896 2-2 2z"></path>
</svg>
