<!-- Generated by IcoMoon.io -->
<svg version="1.1" xmlns="http://www.w3.org/2000/svg" width="40" height="32" viewBox="0 0 40 32">
<title>teeth-solid</title>
<path d="M34 0h-28c-3.314 0-6 2.686-6 6v20c0 3.314 2.686 6 6 6h28c3.314 0 6-2.686 6-6v-20c0-3.314-2.686-6-6-6zM10 23c0 1.657-1.343 3-3 3s-3-1.343-3-3v-4c0-0.552 0.447-1 1-1h4c0.553 0 1 0.448 1 1v4zM10 15c0 0.553-0.447 1-1 1h-4c-0.553 0-1-0.447-1-1v-4c0-1.657 1.343-3 3-3s3 1.343 3 3v4zM19 22.5c0 1.933-1.567 3.5-3.5 3.5s-3.5-1.567-3.5-3.5v-3.5c0-0.552 0.447-1 1-1h5c0.552 0 1 0.448 1 1v3.5zM19 15c0 0.553-0.448 1-1 1h-5c-0.553 0-1-0.447-1-1v-5.5c0-1.933 1.567-3.5 3.5-3.5s3.5 1.567 3.5 3.5v5.5zM28 22.5c0 1.933-1.567 3.5-3.5 3.5s-3.5-1.567-3.5-3.5v-3.5c0-0.552 0.448-1 1-1h5c0.552 0 1 0.448 1 1v3.5zM28 15c0 0.553-0.448 1-1 1h-5c-0.552 0-1-0.447-1-1v-5.5c0-1.933 1.567-3.5 3.5-3.5s3.5 1.567 3.5 3.5v5.5zM36 23c0 1.657-1.343 3-3 3s-3-1.343-3-3v-4c0-0.552 0.448-1 1-1h4c0.553 0 1 0.448 1 1v4zM36 15c0 0.553-0.447 1-1 1h-4c-0.552 0-1-0.447-1-1v-4c0-1.657 1.343-3 3-3s3 1.343 3 3v4z"></path>
</svg>
