<!-- Generated by IcoMoon.io -->
<svg version="1.1" xmlns="http://www.w3.org/2000/svg" width="40" height="32" viewBox="0 0 40 32">
<title>teeth-open</title>
<path d="M36 19h-32c-2.209 0-4 1.791-4 4v3c0 3.314 2.686 6 6 6h28c3.314 0 6-2.686 6-6v-3c0-2.209-1.791-4-4-4zM29 23v-1.167c0-0.46 0.373-0.833 0.833-0.833h3.333c0.46 0 0.833 0.373 0.833 0.833v1.333c0 1.381-1.119 2.5-2.5 2.5s-2.5-1.119-2.5-2.5v-0.166zM21 21.857c0-0.473 0.384-0.857 0.857-0.857h4.286c0.473 0 0.857 0.384 0.857 0.857v1.143c0 1.657-1.343 3-3 3s-3-1.343-3-3v-1.143zM13 21.857c0-0.473 0.384-0.857 0.857-0.857h4.286c0.473 0 0.857 0.384 0.857 0.857v1.143c0 1.657-1.343 3-3 3s-3-1.343-3-3v-1.143zM6 21.833c0-0.46 0.373-0.833 0.833-0.833h3.333c0.46 0 0.833 0.373 0.833 0.833v1.334c0 1.381-1.119 2.5-2.5 2.5s-2.5-1.119-2.5-2.5v-1.334zM38 26c0 2.206-1.794 4-4 4h-28c-2.206 0-4-1.794-4-4v-3c0-1.102 0.897-2 2-2h0.139c-0.082 0.265-0.139 0.541-0.139 0.833v1.333c0 2.481 2.019 4.5 4.5 4.5 1.419 0 2.671-0.673 3.496-1.702 0.912 1.228 2.361 2.036 4.004 2.036 1.641 0 3.087-0.806 4-2.031 0.913 1.225 2.359 2.031 4 2.031 1.643 0 3.092-0.808 4.004-2.036 0.826 1.029 2.078 1.702 3.496 1.702 2.481 0 4.5-2.019 4.5-4.5v-1.333c0-0.292-0.057-0.568-0.139-0.833h0.139c1.102 0 2 0.898 2 2v3zM34 0h-28c-3.314 0-6 2.686-6 6v5c0 2.209 1.791 4 4 4h32c2.209 0 4-1.791 4-4v-5c0-3.314-2.686-6-6-6zM11 12.167c0 0.46-0.373 0.833-0.833 0.833h-3.333c-0.46 0-0.833-0.373-0.833-0.833v-1.333c0-1.381 1.119-2.5 2.5-2.5s2.5 1.119 2.5 2.5v1.333zM19 12.143c0 0.473-0.384 0.857-0.857 0.857h-4.286c-0.473 0-0.857-0.384-0.857-0.857v-2.714c0-1.657 1.343-3 3-3s3 1.343 3 3v2.714zM27 12.143c0 0.473-0.384 0.857-0.857 0.857h-4.286c-0.473 0-0.857-0.384-0.857-0.857v-2.714c0-1.657 1.343-3 3-3s3 1.343 3 3v2.714zM34 12.167c0 0.46-0.373 0.833-0.833 0.833h-3.333c-0.46 0-0.833-0.373-0.833-0.833v-1.333c0-1.381 1.119-2.5 2.5-2.5s2.5 1.119 2.5 2.5v1.333zM38 11c0 1.102-0.898 2-2 2h-0.139c0.083-0.265 0.139-0.541 0.139-0.833v-1.333c0-2.481-2.019-4.5-4.5-4.5-1.115 0-2.137 0.407-2.924 1.082-0.776-1.758-2.535-2.987-4.576-2.987-1.634 0-3.087 0.787-4 2.003-0.913-1.216-2.366-2.003-4-2.003-2.041 0-3.8 1.229-4.576 2.986-0.787-0.674-1.809-1.082-2.924-1.082-2.481 0-4.5 2.019-4.5 4.5v1.333c0 0.292 0.057 0.568 0.139 0.833h-0.139c-1.103 0-2-0.897-2-2v-4.999c0-2.206 1.794-4 4-4h28c2.206 0 4 1.794 4 4v5z"></path>
</svg>
