<!-- Generated by IcoMoon.io -->
<svg version="1.1" xmlns="http://www.w3.org/2000/svg" width="40" height="32" viewBox="0 0 40 32">
<title>teeth</title>
<path d="M34 0h-28c-3.314 0-6 2.686-6 6v20c0 3.314 2.686 6 6 6h28c3.314 0 6-2.686 6-6v-20c0-3.314-2.686-6-6-6zM38 26c0 2.206-1.794 4-4 4h-28c-2.206 0-4-1.794-4-4v-8h2.156c-0.086 0.266-0.156 0.539-0.156 0.833v3.333c0 2.481 2.019 4.5 4.5 4.5 1.419 0 2.671-0.673 3.496-1.702 0.912 1.228 2.361 2.036 4.004 2.036 1.641 0 3.087-0.806 4-2.031 0.913 1.225 2.359 2.031 4 2.031 1.643 0 3.092-0.808 4.004-2.036 0.826 1.029 2.078 1.702 3.496 1.702 2.481 0 4.5-2.019 4.5-4.5v-3.333c0-0.294-0.071-0.568-0.156-0.833h2.156v8zM6.833 18h3.333c0.46 0 0.833 0.373 0.833 0.833v3.334c0 1.381-1.119 2.5-2.5 2.5s-2.5-1.119-2.5-2.5v-3.333c0.001-0.461 0.374-0.834 0.834-0.834zM6 15.167v-3.333c0-1.381 1.119-2.5 2.5-2.5s2.5 1.119 2.5 2.5v3.333c0 0.46-0.373 0.833-0.833 0.833h-3.333c-0.461 0-0.834-0.373-0.834-0.833zM13.857 18h4.286c0.473 0 0.857 0.384 0.857 0.857v3.143c0 1.657-1.343 3-3 3s-3-1.343-3-3v-3.143c0.001-0.473 0.384-0.857 0.857-0.857zM13 15.143v-4.714c0-1.657 1.343-3 3-3s3 1.343 3 3v4.714c0 0.473-0.384 0.857-0.857 0.857h-4.286c-0.474-0.001-0.857-0.384-0.857-0.857zM21.857 18h4.286c0.473 0 0.857 0.384 0.857 0.857v3.143c0 1.657-1.343 3-3 3s-3-1.343-3-3v-3.143c0.001-0.473 0.384-0.857 0.858-0.857zM21 15.143v-4.714c0-1.657 1.343-3 3-3s3 1.343 3 3v4.714c0 0.473-0.384 0.857-0.857 0.857h-4.286c-0.474 0.001-0.858-0.383-0.858-0.856zM34 15.167c0 0.46-0.373 0.833-0.833 0.833h-3.333c-0.46 0-0.833-0.373-0.833-0.833v-3.333c0-1.381 1.119-2.5 2.5-2.5s2.5 1.119 2.5 2.5v3.333zM29.833 18h3.333c0.46 0 0.833 0.373 0.833 0.833v3.333c0 1.381-1.119 2.5-2.5 2.5s-2.5-1.119-2.5-2.5v-3.333c0.001-0.46 0.374-0.833 0.834-0.833zM38 16h-2.156c0.086-0.266 0.156-0.539 0.156-0.833v-3.333c0-2.481-2.019-4.5-4.5-4.5-1.119 0-2.131 0.426-2.919 1.104-0.772-1.768-2.532-3.009-4.581-3.009-1.641 0-3.087 0.806-4 2.031-0.913-1.225-2.359-2.031-4-2.031-2.049 0-3.809 1.241-4.581 3.009-0.788-0.678-1.8-1.104-2.919-1.104-2.481 0-4.5 2.019-4.5 4.5v3.333c0 0.294 0.071 0.568 0.156 0.833h-2.156v-10c0-2.206 1.794-4 4-4h28c2.206 0 4 1.794 4 4v10z"></path>
</svg>
