<!-- Generated by IcoMoon.io -->
<svg version="1.1" xmlns="http://www.w3.org/2000/svg" width="40" height="32" viewBox="0 0 40 32">
<title>telescope</title>
<path d="M39.847 12.322l-4.592-11.087c-0.309-0.731-1.019-1.235-1.848-1.235-0.276 0-0.539 0.056-0.778 0.157l0.013-0.005-6.786 2.811c-0.953 0.395-1.407 1.439-1.123 2.406l-20.040 9.718c-0.548 0.266-0.817 0.849-0.616 1.335l0.546 1.319-4.007 1.66c-0.365 0.154-0.617 0.51-0.617 0.924 0 0.138 0.028 0.27 0.079 0.389l-0.002-0.007 1.254 3.026c0.154 0.366 0.51 0.617 0.924 0.617 0.138 0 0.27-0.028 0.389-0.079l-0.007 0.002 4.007-1.66 0.546 1.319c0.253 0.612 0.963 0.653 1.379 0.509l8.369-2.903c0.080 0.096 0.18 0.173 0.268 0.262l-3.179 9.538c-0.016 0.047-0.026 0.102-0.026 0.158 0 0.276 0.224 0.5 0.5 0.5h1.053c0.22 0 0.406-0.142 0.473-0.338l0.001-0.004 2.938-8.811c0.777 0.215 1.355 0.193 2.070-0l2.938 8.812c0.068 0.2 0.255 0.342 0.474 0.342h1.053c0.276 0 0.5-0.224 0.5-0.5 0-0.057-0.009-0.111-0.027-0.162l0.001 0.004-3.167-9.503c0.71-0.703 1.158-1.669 1.184-2.74l0-0.005 5.658-1.963c0.42 0.533 1.32 1.033 2.33 0.614l6.787-2.811c0.731-0.309 1.234-1.019 1.234-1.848 0-0.276-0.056-0.539-0.157-0.779l0.005 0.013zM2.795 22.046l-0.488-1.179 3.083-1.277 0.488 1.179zM20 21c-1.105 0-2-0.895-2-2s0.895-2 2-2c1.105 0 2 0.895 2 2v0c-0.001 1.104-0.896 1.999-2 2h-0zM23.52 17.141c-0.676-1.292-2.006-2.159-3.539-2.159-2.199 0-3.981 1.782-3.981 3.981 0 0.269 0.027 0.532 0.078 0.786l-0.004-0.025-7.401 2.567-2.383-5.754 19.173-9.298 3.342 8.068zM31.213 15.898l-4.592-11.087 6.786-2.811 4.592 11.086z"></path>
</svg>
