<!-- Generated by IcoMoon.io -->
<svg version="1.1" xmlns="http://www.w3.org/2000/svg" width="40" height="32" viewBox="0 0 40 32">
<title>telescope-solid</title>
<path d="M23.776 5.758l-19.133 9.351c-0.52 0.254-0.767 0.829-0.566 1.314l0.546 1.319-4.007 1.66c-0.365 0.154-0.617 0.51-0.617 0.924 0 0.138 0.028 0.27 0.079 0.389l-0.002-0.007 1.254 3.026c0.154 0.366 0.51 0.617 0.924 0.617 0.138 0 0.27-0.028 0.389-0.079l-0.007 0.002 4.007-1.66 0.546 1.319c0.201 0.486 0.782 0.717 1.329 0.529l7.938-2.726c0.012 0.015 0.025 0.029 0.037 0.044l-2.967 8.901c-0.033 0.094-0.051 0.203-0.051 0.316 0 0.552 0.448 1 1 1h1.054c0.439-0 0.812-0.283 0.947-0.677l0.002-0.007 2.635-7.906c0.267 0.057 0.574 0.090 0.889 0.090s0.622-0.033 0.918-0.095l-0.029 0.005 2.635 7.906c0.136 0.401 0.509 0.684 0.949 0.684h1.054c0 0 0 0 0 0 0.552 0 1-0.448 1-1 0-0.113-0.019-0.222-0.053-0.323l0.002 0.007-2.967-8.901c0.613-0.754 0.986-1.724 0.991-2.782v-0.001c0-0.008-0.002-0.016-0.002-0.024l4.16-1.429zM20 20.5c-0.828 0-1.5-0.672-1.5-1.5s0.672-1.5 1.5-1.5c0.828 0 1.5 0.672 1.5 1.5v0c-0.001 0.828-0.672 1.499-1.5 1.5h-0zM39.924 13.552l-5.357-12.934c-0.154-0.365-0.51-0.617-0.924-0.617-0.138 0-0.27 0.028-0.389 0.079l0.007-0.002-7.332 3.037c-0.365 0.154-0.617 0.51-0.617 0.924 0 0.138 0.028 0.27 0.079 0.389l-0.002-0.007 5.357 12.934c0.154 0.366 0.51 0.617 0.924 0.617 0.138 0 0.27-0.028 0.389-0.079l-0.007 0.002 7.332-3.037c0.365-0.154 0.617-0.51 0.617-0.924 0-0.138-0.028-0.27-0.079-0.389l0.002 0.007z"></path>
</svg>
