<!-- Generated by IcoMoon.io -->
<svg version="1.1" xmlns="http://www.w3.org/2000/svg" width="32" height="32" viewBox="0 0 32 32">
<title>temperature-high-solid</title>
<path d="M26 0c-3.306 0-6 2.694-6 6s2.694 6 6 6 6-2.694 6-6-2.694-6-6-6zM26 8c-1.106 0-2-0.894-2-2s0.894-2 2-2 2 0.894 2 2-0.894 2-2 2zM16 7c0-3.869-3.131-7-7-7s-7 3.131-7 7v10.406c-1.231 1.544-2 3.469-2 5.594 0 4.969 4.031 9 9 9s9-4.031 9-9c0-2.125-0.769-4.056-2-5.594v-10.406zM9 28c-2.756 0-5-2.244-5-5 0-1.594 0.763-3.056 2-3.988v-12.012c0-1.656 1.344-3 3-3s3 1.344 3 3v12.012c1.238 0.925 2 2.394 2 3.988 0 2.756-2.244 5-5 5zM10 20.181v-13.181c0-0.55-0.45-1-1-1s-1 0.45-1 1v13.181c-1.162 0.413-2 1.512-2 2.819 0 1.656 1.344 3 3 3s3-1.344 3-3c0-1.306-0.838-2.406-2-2.819z"></path>
</svg>
