<!-- Generated by IcoMoon.io -->
<svg version="1.1" xmlns="http://www.w3.org/2000/svg" width="32" height="32" viewBox="0 0 32 32">
<title>temperature-down-solid</title>
<path d="M10 20.182v-1.182c0-0.552-0.448-1-1-1s-1 0.448-1 1v0 1.182c-1.175 0.424-2 1.53-2 2.828 0 1.657 1.343 3 3 3s3-1.343 3-3c0-1.298-0.825-2.404-1.979-2.822l-0.021-0.007zM16 7c0-3.866-3.134-7-7-7s-7 3.134-7 7v0 10.406c-1.231 1.543-2 3.469-2 5.594 0 4.971 4.029 9 9 9s9-4.029 9-9v0c0-2.125-0.769-4.057-2-5.594zM9 28c-0.003 0-0.006 0-0.009 0-2.757 0-4.992-2.235-4.992-4.992 0-1.629 0.78-3.076 1.988-3.987l0.013-0.009v-12.012c0-1.657 1.343-3 3-3s3 1.343 3 3v0 12.012c1.22 0.92 2 2.367 2 3.996 0 2.757-2.235 4.992-4.992 4.992-0.003 0-0.006 0-0.009 0h0zM31 22h-3v-19c0-0.552-0.448-1-1-1v0h-2c-0.552 0-1 0.448-1 1v0 19h-3c-0.888 0-1.337 1.078-0.707 1.707l5 6c0.181 0.181 0.431 0.293 0.707 0.293s0.526-0.112 0.707-0.293v0l5-6c0.627-0.629 0.182-1.707-0.707-1.707z"></path>
</svg>
