<!-- Generated by IcoMoon.io -->
<svg version="1.1" xmlns="http://www.w3.org/2000/svg" width="24" height="32" viewBox="0 0 24 32">
<title>temperature-high</title>
<path d="M20 0c-2.206 0-4 1.794-4 4s1.794 4 4 4 4-1.794 4-4-1.794-4-4-4zM20 6c-1.106 0-2-0.894-2-2s0.894-2 2-2 2 0.894 2 2-0.894 2-2 2zM12 5c0-2.756-2.244-5-5-5s-5 2.244-5 5v15.119c-1.269 1.294-2 3.056-2 4.881 0 3.863 3.138 7 7 7s7-3.137 7-7c0-1.825-0.731-3.587-2-4.881v-15.119zM7 30c-2.756 0-5-2.244-5-5 0-1.594 0.763-3.056 2-3.988v-16.012c0-1.656 1.344-3 3-3s3 1.344 3 3v16.012c1.238 0.925 2 2.394 2 3.988 0 2.756-2.244 5-5 5zM8 22.181v-17.181c0-0.55-0.45-1-1-1s-1 0.45-1 1v17.181c-1.162 0.413-2 1.512-2 2.819 0 1.656 1.344 3 3 3s3-1.344 3-3c0-1.306-0.838-2.406-2-2.819z"></path>
</svg>
