<!-- Generated by IcoMoon.io -->
<svg version="1.1" xmlns="http://www.w3.org/2000/svg" width="36" height="32" viewBox="0 0 36 32">
<title>temperature-frigid-solid</title>
<path d="M34 17.406v-10.406c0-3.869-3.131-7-7-7s-7 3.131-7 7v10.406c-1.231 1.538-2 3.469-2 5.594 0 4.969 4.031 9 9 9s9-4.031 9-9c0-2.125-0.769-4.056-2-5.594zM27 28c-2.756 0-5-2.244-5-5 0-1.594 0.762-3.056 2-3.988v-12.012c0-1.656 1.344-3 3-3s3 1.344 3 3v12.012c1.238 0.925 2 2.394 2 3.988 0 2.756-2.244 5-5 5zM16.769 19.087c0.319-0.813 0.712-1.606 1.231-2.344v-0.45l-3.963-2.294 3.963-2.287v-3.506l-5.5 3.175v-3.556l2.512-2.513c0.294-0.294 0.294-0.769 0-1.063l-0.531-0.531c-0.294-0.294-0.769-0.294-1.063 0l-0.919 0.925v-1.894c0-0.413-0.338-0.75-0.75-0.75h-1.5c-0.412 0-0.75 0.337-0.75 0.75v1.894l-0.925-0.925c-0.294-0.294-0.769-0.294-1.063 0l-0.531 0.531c-0.294 0.294-0.294 0.769 0 1.063l2.512 2.513v3.556l-3.144-1.819-0.938-3.481c-0.106-0.406-0.525-0.644-0.931-0.537l-0.731 0.2c-0.406 0.106-0.644 0.525-0.538 0.931l0.344 1.275-1.663-0.956c-0.363-0.213-0.825-0.088-1.038 0.275l-0.756 1.313c-0.212 0.363-0.087 0.825 0.275 1.037l1.662 0.956-1.275 0.344c-0.406 0.106-0.644 0.525-0.537 0.931l0.194 0.731c0.106 0.406 0.525 0.644 0.931 0.537l3.481-0.931 3.138 1.813-3.138 1.813-3.481-0.938c-0.406-0.106-0.819 0.131-0.931 0.537l-0.194 0.731c-0.106 0.406 0.131 0.819 0.537 0.931l1.275 0.344-1.656 0.962c-0.362 0.212-0.487 0.675-0.275 1.038l0.756 1.313c0.212 0.363 0.675 0.488 1.038 0.275l1.663-0.956-0.344 1.275c-0.106 0.406 0.131 0.819 0.538 0.931l0.731 0.194c0.406 0.106 0.819-0.131 0.931-0.538l0.931-3.475 3.15-1.819v3.556l-2.513 2.512c-0.294 0.294-0.294 0.769 0 1.063l0.531 0.531c0.294 0.294 0.769 0.294 1.062 0l0.925-0.925v1.894c0 0.413 0.338 0.75 0.75 0.75h1.5c0.412 0 0.75-0.337 0.75-0.75v-1.894l0.925 0.925c0.294 0.294 0.769 0.294 1.063 0l0.531-0.531c0.294-0.294 0.294-0.769 0-1.063l-2.525-2.512v-3.556l4.269 2.469zM28 20.181v-1.181c0-0.55-0.45-1-1-1s-1 0.45-1 1v1.181c-1.163 0.413-2 1.512-2 2.819 0 1.656 1.344 3 3 3s3-1.344 3-3c0-1.306-0.837-2.406-2-2.819z"></path>
</svg>
