<!-- Generated by IcoMoon.io -->
<svg version="1.1" xmlns="http://www.w3.org/2000/svg" width="32" height="32" viewBox="0 0 32 32">
<title>temperature-down</title>
<path d="M10 22.182v-3.182c0-0.552-0.448-1-1-1s-1 0.448-1 1v0 3.182c-1.175 0.424-2 1.53-2 2.828 0 1.657 1.343 3 3 3s3-1.343 3-3c0-1.298-0.825-2.404-1.979-2.822l-0.021-0.007zM14 5c0-2.761-2.239-5-5-5s-5 2.239-5 5v0 15.119c-1.237 1.262-2 2.991-2 4.899 0 3.866 3.134 7 7 7s7-3.134 7-7c0-1.908-0.763-3.637-2.001-4.9l0.001 0.001zM9 30c-0.002 0-0.005 0-0.008 0-2.757 0-4.992-2.235-4.992-4.992 0-1.629 0.78-3.075 1.987-3.986l0.013-0.009v-16.012c0-1.657 1.343-3 3-3s3 1.343 3 3v0 16.012c1.22 0.92 2 2.367 2 3.996 0 2.757-2.235 4.992-4.992 4.992-0.003 0-0.005 0-0.008 0h0zM30.783 23.573l-0.351-0.356c-0.136-0.136-0.323-0.22-0.531-0.22-0.205 0-0.391 0.082-0.526 0.216l0-0-3.375 3.296v-24.009c0-0.276-0.224-0.5-0.5-0.5v0h-1c-0.276 0-0.5 0.224-0.5 0.5v0 23.995l-3.371-3.273c-0.136-0.135-0.323-0.218-0.529-0.218s-0.393 0.083-0.529 0.218l0-0-0.352 0.354c-0.136 0.136-0.221 0.324-0.221 0.531s0.084 0.395 0.221 0.531l0 0 5.254 5.141c0.135 0.135 0.321 0.219 0.527 0.219s0.392-0.084 0.527-0.219l0-0 5.25-5.144c0.138-0.136 0.223-0.325 0.223-0.534 0-0.206-0.083-0.393-0.218-0.529l0 0z"></path>
</svg>
