<!-- Generated by IcoMoon.io -->
<svg version="1.1" xmlns="http://www.w3.org/2000/svg" width="40" height="32" viewBox="0 0 40 32">
<title>temperature-hot-solid</title>
<path d="M22 16.744v-9.744c0-1.056 0.219-2.063 0.556-3.006l-5.119 1.706-2.588-5.175c-0.35-0.7-1.35-0.7-1.7 0l-2.588 5.175-5.494-1.831c-0.737-0.244-1.444 0.463-1.2 1.2l1.831 5.494-5.175 2.588c-0.7 0.35-0.7 1.344 0 1.694l5.175 2.594-1.831 5.494c-0.25 0.744 0.456 1.444 1.2 1.2l5.494-1.831 2.588 5.175c0.35 0.7 1.35 0.7 1.694 0l2.587-5.181 2.569 0.856c0-0.050-0.006-0.1-0.006-0.156 0.006-2.238 0.694-4.387 2.006-6.25zM18.244 18.244c-2.338 2.337-6.144 2.337-8.488 0s-2.338-6.15 0-8.488c2.338-2.338 6.144-2.338 8.488 0 2.337 2.338 2.337 6.15 0 8.488zM14 10c-2.206 0-4 1.794-4 4s1.794 4 4 4 4-1.794 4-4-1.794-4-4-4zM38 17.406v-10.406c0-3.869-3.131-7-7-7s-7 3.131-7 7v10.406c-1.231 1.538-2 3.469-2 5.594 0 4.969 4.031 9 9 9s9-4.031 9-9c0-2.125-0.769-4.056-2-5.594zM31 28c-2.756 0-5-2.244-5-5 0-1.594 0.762-3.056 2-3.988v-12.012c0-1.656 1.344-3 3-3s3 1.344 3 3v12.012c1.237 0.925 2 2.394 2 3.988 0 2.756-2.244 5-5 5zM32 20.181v-13.181c0-0.55-0.45-1-1-1s-1 0.45-1 1v13.181c-1.163 0.413-2 1.512-2 2.819 0 1.656 1.344 3 3 3s3-1.344 3-3c0-1.306-0.837-2.406-2-2.819z"></path>
</svg>
