<!-- Generated by IcoMoon.io -->
<svg version="1.1" xmlns="http://www.w3.org/2000/svg" width="36" height="32" viewBox="0 0 36 32">
<title>temperature-hot</title>
<path d="M8 15c0 3.306 2.694 6 6 6s6-2.694 6-6-2.694-6-6-6-6 2.694-6 6zM18 15c0 2.206-1.794 4-4 4s-4-1.794-4-4 1.794-4 4-4 4 1.794 4 4zM30 22.181v-17.181c0-0.55-0.45-1-1-1s-1 0.45-1 1v17.181c-1.163 0.413-2 1.512-2 2.819 0 1.656 1.344 3 3 3s3-1.344 3-3c0-1.306-0.837-2.406-2-2.819zM34 20.119v-15.119c0-2.756-2.244-5-5-5s-5 2.244-5 5v15.119c-1.269 1.3-2 3.056-2 4.881 0 3.863 3.137 7 7 7s7-3.137 7-7c0-1.825-0.731-3.587-2-4.881zM29 30c-2.756 0-5-2.244-5-5 0-1.594 0.769-3.056 2-3.988v-16.012c0-1.656 1.344-3 3-3s3 1.344 3 3v16.012c1.237 0.925 2 2.394 2 3.988 0 2.756-2.244 5-5 5zM16.494 22.475l-2.494 3.725-2.494-3.731c-0.225-0.337-0.625-0.512-1.025-0.425l-4.4 0.875 0.869-4.4c0.081-0.394-0.088-0.8-0.425-1.025l-3.725-2.494 3.731-2.494c0.338-0.225 0.5-0.631 0.425-1.025l-0.869-4.4 4.4 0.875c0.4 0.081 0.8-0.088 1.025-0.425l2.487-3.731 2.494 3.731c0.225 0.338 0.619 0.506 1.025 0.425l4.481-0.894v-2.038l-4.212 0.838-2.956-4.419c-0.375-0.556-1.287-0.556-1.662 0l-2.956 4.419-5.206-1.037c-0.331-0.069-0.669 0.037-0.9 0.275-0.237 0.237-0.337 0.575-0.275 0.9l1.031 5.213-4.419 2.956c-0.275 0.188-0.444 0.5-0.444 0.831s0.169 0.644 0.444 0.831l4.419 2.956-1.031 5.212c-0.063 0.325 0.038 0.669 0.275 0.9 0.237 0.238 0.569 0.344 0.9 0.275l5.206-1.031 2.956 4.419c0.188 0.281 0.5 0.444 0.831 0.444s0.644-0.169 0.831-0.444l2.956-4.419 2.25 0.444c0.031-0.669 0.144-1.331 0.325-1.975l-2.844-0.563c-0.406-0.087-0.8 0.087-1.025 0.425z"></path>
</svg>
