<!-- Generated by IcoMoon.io -->
<svg version="1.1" xmlns="http://www.w3.org/2000/svg" width="32" height="32" viewBox="0 0 32 32">
<title>temperature-frigid</title>
<path d="M26 22.181v-1.181c0-0.55-0.45-1-1-1s-1 0.45-1 1v1.181c-1.163 0.413-2 1.512-2 2.819 0 1.656 1.344 3 3 3s3-1.344 3-3c0-1.306-0.837-2.406-2-2.819zM30 20.119v-15.119c0-2.756-2.244-5-5-5s-5 2.244-5 5v15.119c-1.269 1.3-2 3.056-2 4.881 0 3.863 3.137 7 7 7s7-3.137 7-7c0-1.825-0.731-3.587-2-4.881zM25 30c-2.756 0-5-2.244-5-5 0-1.594 0.762-3.056 2-3.988v-16.012c0-1.656 1.344-3 3-3s3 1.344 3 3v16.012c1.238 0.925 2 2.394 2 3.988 0 2.756-2.244 5-5 5zM17.319 20.375c0.212-0.35 0.425-0.694 0.681-1.012v-0.887l-4.069-2.475 4.069-2.469v-2.319l-5 3.037v-5.831l2.856-2.856c0.194-0.194 0.194-0.513 0-0.706l-0.706-0.706c-0.194-0.194-0.512-0.194-0.706 0l-1.438 1.438v-3.087c0-0.275-0.225-0.5-0.5-0.5h-1c-0.275 0-0.5 0.225-0.5 0.5v3.087l-1.438-1.438c-0.194-0.194-0.512-0.194-0.706 0l-0.706 0.706c-0.194 0.194-0.194 0.513 0 0.706l2.856 2.856v5.831l-4.856-2.906-1.006-3.9c-0.069-0.269-0.331-0.425-0.588-0.356l-0.931 0.256c-0.256 0.069-0.413 0.344-0.344 0.612l0.506 1.969-2.575-1.544c-0.231-0.137-0.525-0.056-0.656 0.181l-0.5 0.869c-0.131 0.238-0.056 0.544 0.175 0.681l2.575 1.544-1.887 0.531c-0.256 0.069-0.412 0.344-0.344 0.613l0.25 0.969c0.069 0.269 0.331 0.425 0.588 0.356l3.763-1.044 4.887 2.925-4.888 2.925-3.763-1.044c-0.256-0.069-0.519 0.087-0.588 0.356l-0.25 0.969c-0.069 0.269 0.081 0.544 0.344 0.613l1.894 0.525-2.575 1.531c-0.231 0.137-0.313 0.444-0.175 0.681l0.481 0.869c0.131 0.238 0.431 0.319 0.656 0.181l2.575-1.544-0.506 1.969c-0.069 0.269 0.081 0.544 0.344 0.613l0.931 0.256c0.256 0.069 0.519-0.087 0.588-0.356l1.006-3.9 4.856-2.906v5.831l-2.856 2.863c-0.194 0.194-0.194 0.512 0 0.706l0.706 0.706c0.194 0.194 0.512 0.194 0.706 0l1.438-1.438v3.087c0 0.275 0.225 0.5 0.5 0.5h1c0.275 0 0.5-0.225 0.5-0.5v-3.087l1.438 1.438c0.194 0.194 0.512 0.194 0.706 0l0.706-0.706c0.194-0.194 0.194-0.512 0-0.706l-2.844-2.85v-5.831l4.319 2.619z"></path>
</svg>
