<!-- Generated by IcoMoon.io -->
<svg version="1.1" xmlns="http://www.w3.org/2000/svg" width="32" height="32" viewBox="0 0 32 32">
<title>temperature-up</title>
<path d="M14 5c0-2.761-2.239-5-5-5s-5 2.239-5 5v0 15.119c-1.237 1.262-2 2.991-2 4.899 0 3.866 3.134 7 7 7s7-3.134 7-7c0-1.908-0.763-3.637-2.001-4.9l0.001 0.001zM9 30c-0.002 0-0.005 0-0.008 0-2.757 0-4.992-2.235-4.992-4.992 0-1.629 0.78-3.075 1.987-3.986l0.013-0.009v-16.012c0-1.657 1.343-3 3-3s3 1.343 3 3v0 16.012c1.22 0.92 2 2.367 2 3.996 0 2.757-2.235 4.992-4.992 4.992-0.003 0-0.005 0-0.008 0h0zM10 22.182v-17.182c0-0.552-0.448-1-1-1s-1 0.448-1 1v0 17.182c-1.175 0.424-2 1.53-2 2.828 0 1.657 1.343 3 3 3s3-1.343 3-3c0-1.298-0.825-2.404-1.979-2.822l-0.021-0.007zM30.779 7.359l-5.254-5.141c-0.135-0.135-0.321-0.219-0.527-0.219s-0.392 0.084-0.527 0.219l-0 0-5.25 5.144c-0.128 0.142-0.211 0.327-0.222 0.532l-0 0.002c0.011 0.204 0.091 0.387 0.218 0.529l-0.001-0.001 0.351 0.356c0.135 0.137 0.323 0.222 0.531 0.222 0.205 0 0.391-0.083 0.526-0.217l-0 0 3.375-3.296v24.010c0 0.276 0.224 0.5 0.5 0.5v0h1c0.276 0 0.5-0.224 0.5-0.5v0-23.996l3.371 3.273c0.136 0.135 0.323 0.218 0.529 0.218s0.393-0.083 0.529-0.218l-0 0 0.352-0.354c0.127-0.141 0.209-0.326 0.221-0.529l0-0.002c-0.012-0.206-0.094-0.39-0.222-0.532l0.001 0.001z"></path>
</svg>
