<!-- Generated by IcoMoon.io -->
<svg version="1.1" xmlns="http://www.w3.org/2000/svg" width="24" height="32" viewBox="0 0 24 32">
<title>tenge-solid</title>
<path d="M23.25 10h-22.5c-0.412 0-0.75 0.338-0.75 0.75v3.5c0 0.412 0.338 0.75 0.75 0.75h8.75v14.25c0 0.413 0.338 0.75 0.75 0.75h3.5c0.412 0 0.75-0.337 0.75-0.75v-14.25h8.75c0.413 0 0.75-0.338 0.75-0.75v-3.5c0-0.412-0.337-0.75-0.75-0.75zM23.25 2h-22.5c-0.412 0-0.75 0.337-0.75 0.75v3.5c0 0.412 0.338 0.75 0.75 0.75h22.5c0.413 0 0.75-0.338 0.75-0.75v-3.5c0-0.413-0.337-0.75-0.75-0.75z"></path>
</svg>
