<!-- Generated by IcoMoon.io -->
<svg version="1.1" xmlns="http://www.w3.org/2000/svg" width="31" height="32" viewBox="0 0 31 32">
<title>tennis-ball</title>
<path d="M15.5 0.5c-8.55 0-15.5 6.95-15.5 15.5s6.95 15.5 15.5 15.5 15.5-6.95 15.5-15.5-6.95-15.5-15.5-15.5zM14.719 2.538c-0.344 0.606-0.581 1.281-0.581 2.025 0 2.581-1.156 5.475-2.875 7.194s-4.612 2.875-7.188 2.875c-0.75 0-1.425 0.238-2.031 0.588 0.388-6.819 5.856-12.287 12.675-12.681zM2.156 17.95c0.306-0.788 1.038-1.319 1.912-1.319 3.125 0 6.5-1.363 8.6-3.463s3.462-5.481 3.462-8.606c0-0.875 0.525-1.606 1.313-1.906 5.881 0.856 10.537 5.513 11.394 11.394-0.306 0.781-1.038 1.306-1.913 1.313-3.125 0-6.5 1.362-8.6 3.463s-3.463 5.481-3.463 8.606c0 0.875-0.531 1.613-1.319 1.913-5.875-0.856-10.531-5.512-11.387-11.394zM16.281 29.462c0.35-0.606 0.581-1.281 0.587-2.031 0-2.581 1.156-5.475 2.875-7.194s4.613-2.875 7.188-2.875c0.744 0 1.425-0.238 2.025-0.581-0.387 6.819-5.856 12.287-12.675 12.681z"></path>
</svg>
