<!-- Generated by IcoMoon.io -->
<svg version="1.1" xmlns="http://www.w3.org/2000/svg" width="31" height="32" viewBox="0 0 31 32">
<title>tennis-ball-solid</title>
<path d="M13.688 4.944c-0.056-1.744 0.35-3.275 1.15-4.444-7.725 0.325-14.475 6.412-14.838 14.831 1.169-0.806 2.694-1.225 4.444-1.15 4.931 0.119 9.381-4.787 9.244-9.238zM26.65 14.806c1.212 0.025 4.050-0.194 3.669-3.425-0.725-2.325-2-4.519-3.844-6.362s-4.037-3.119-6.363-3.844c-3.231-0.375-3.462 2.45-3.425 3.669 0.094 2.944-1.35 6.35-3.669 8.669-2.319 2.331-5.706 3.787-8.669 3.675-1.225-0.031-4.056 0.194-3.669 3.438 0.725 2.325 1.994 4.512 3.837 6.356s4.031 3.113 6.356 3.837c3.238 0.375 3.475-2.444 3.438-3.669-0.094-2.944 1.35-6.35 3.669-8.669 2.325-2.325 5.744-3.794 8.669-3.675zM26.556 17.813c-4.469-0.163-9.394 4.4-9.244 9.244 0.056 1.744-0.35 3.275-1.156 4.444 7.563-0.319 14.475-6.256 14.837-14.837-1.163 0.8-2.694 1.206-4.438 1.15z"></path>
</svg>
