<!-- Generated by IcoMoon.io -->
<svg version="1.1" xmlns="http://www.w3.org/2000/svg" width="40" height="32" viewBox="0 0 40 32">
<title>terminal</title>
<path d="M2.156 2.279l13.191 13.191c0.293 0.293 0.293 0.768 0 1.061l-13.191 13.191c-0.293 0.293-0.768 0.293-1.061 0l-0.442-0.442c-0.293-0.293-0.293-0.768 0-1.061l12.218-12.218-12.218-12.218c-0.293-0.293-0.293-0.768 0-1.061l0.442-0.442c0.293-0.293 0.768-0.293 1.061 0zM40 29.25v-0.625c0-0.414-0.336-0.75-0.75-0.75h-20.5c-0.414 0-0.75 0.336-0.75 0.75v0.625c0 0.414 0.336 0.75 0.75 0.75h20.5c0.414 0 0.75-0.336 0.75-0.75z"></path>
</svg>
