<!-- Generated by IcoMoon.io -->
<svg version="1.1" xmlns="http://www.w3.org/2000/svg" width="28" height="32" viewBox="0 0 28 32">
<title>text-width</title>
<path d="M22.644 18.293c-0.182-0.181-0.433-0.293-0.71-0.293-0.002 0-0.005 0-0.007 0h0c-0.5 0-0.989 0.356-0.989 1v4h-14v-4c0 0 0-0 0-0 0-0.552-0.448-1-1-1-0.003 0-0.005 0-0.008 0h0c-0 0-0 0-0 0-0.274 0-0.521 0.113-0.699 0.294l-5 5c-0.181 0.181-0.293 0.431-0.293 0.707s0.112 0.526 0.293 0.707l5 5c0.182 0.18 0.433 0.291 0.71 0.291 0.003 0 0.006 0 0.008-0h-0c0.5 0 0.989-0.356 0.989-1v-4h14v4c0 0 0 0 0 0 0 0.552 0.448 1 1 1 0.003 0 0.006 0 0.009-0h-0c0 0 0 0 0 0 0.274 0 0.521-0.112 0.698-0.294l5-5c0.181-0.181 0.293-0.431 0.293-0.707s-0.112-0.526-0.293-0.707v0zM4.938 23v3.586l-2.586-2.586 2.586-2.585zM22.938 26.585v-5.171l2.586 2.586zM26.938 2h-26c-0.552 0-1 0.448-1 1v0 4.5c0 0.276 0.224 0.5 0.5 0.5v0h1c0.276 0 0.5-0.224 0.5-0.5v0-3.5h11v12h-2.5c-0.276 0-0.5 0.224-0.5 0.5v0 1c0 0.276 0.224 0.5 0.5 0.5v0h7c0.276 0 0.5-0.224 0.5-0.5v0-1c0-0.276-0.224-0.5-0.5-0.5v0h-2.5v-12h11v3.5c0 0.276 0.224 0.5 0.5 0.5v0h1c0.276 0 0.5-0.224 0.5-0.5v0-4.5c0-0.552-0.448-1-1-1v0z"></path>
</svg>
