<!-- Generated by IcoMoon.io -->
<svg version="1.1" xmlns="http://www.w3.org/2000/svg" width="36" height="32" viewBox="0 0 36 32">
<title>text-height</title>
<path d="M35 23h-4v-14h4c0.894 0 1.333-1.082 0.707-1.707l-5-5c-0.181-0.181-0.431-0.293-0.707-0.293s-0.526 0.112-0.707 0.293l-5 5c-0.582 0.582-0.27 1.707 0.707 1.707h4v14h-4c-0.894 0-1.333 1.082-0.707 1.707l5 5c0.181 0.181 0.431 0.293 0.707 0.293s0.526-0.112 0.707-0.293l5-5c0.583-0.582 0.27-1.707-0.708-1.707zM27.414 7l2.586-2.586 2.585 2.586h-5.171zM30 27.585l-2.585-2.585h5.171zM19 2h-18c-0.552 0-1 0.448-1 1v0 4.5c0 0.276 0.224 0.5 0.5 0.5v0h1c0.276 0 0.5-0.224 0.5-0.5v0-3.5h7v24h-4.5c-0.276 0-0.5 0.224-0.5 0.5v0 1c0 0.276 0.224 0.5 0.5 0.5v0h11c0.276 0 0.5-0.224 0.5-0.5v0-1c0-0.276-0.224-0.5-0.5-0.5v0h-4.5v-24h7v3.5c0 0.276 0.224 0.5 0.5 0.5v0h1c0.276 0 0.5-0.224 0.5-0.5v0-4.5c0-0.552-0.448-1-1-1v0z"></path>
</svg>
