<!-- Generated by IcoMoon.io -->
<svg version="1.1" xmlns="http://www.w3.org/2000/svg" width="36" height="32" viewBox="0 0 36 32">
<title>text-height-solid</title>
<path d="M19 2h-18c-0.552 0-1 0.448-1 1v0 6c0 0.552 0.448 1 1 1v0h2c0.552 0 1-0.448 1-1v0-2h3.5v19h-2.5c-0.552 0-1 0.448-1 1v0 2c0 0.552 0.448 1 1 1v0h10c0.552 0 1-0.448 1-1v0-2c0-0.552-0.448-1-1-1v0h-2.5v-19h3.5v2c0 0.552 0.448 1 1 1v0h2c0.552 0 1-0.448 1-1v0-6c0-0.552-0.448-1-1-1v0zM35 23h-3v-14h3c0.894 0 1.333-1.082 0.707-1.707l-5-5c-0.181-0.181-0.431-0.293-0.707-0.293s-0.526 0.112-0.707 0.293l-5 5c-0.583 0.582-0.271 1.707 0.707 1.707h3v14h-3c-0.894 0-1.332 1.082-0.707 1.707l5 5c0.181 0.181 0.431 0.293 0.707 0.293s0.526-0.112 0.707-0.293l5-5c0.583-0.582 0.271-1.707-0.707-1.707z"></path>
</svg>
