<!-- Generated by IcoMoon.io -->
<svg version="1.1" xmlns="http://www.w3.org/2000/svg" width="40" height="32" viewBox="0 0 40 32">
<title>text-size-solid</title>
<path d="M39 2h-22c-0.552 0-1 0.448-1 1v0 6c0 0.552 0.448 1 1 1v0h2c0.552 0 1-0.448 1-1v0-2h5.5v19h-2.5c-0.552 0-1 0.448-1 1v0 2c0 0.552 0.448 1 1 1v0h10c0.552 0 1-0.448 1-1v0-2c0-0.552-0.448-1-1-1v0h-2.5v-19h5.5v2c0 0.552 0.448 1 1 1v0h2c0.552 0 1-0.448 1-1v0-6c0-0.552-0.448-1-1-1v0zM19 14h-18c-0.552 0-1 0.448-1 1v0 4c0 0.552 0.448 1 1 1v0h2c0.552 0 1-0.448 1-1v0-1h3.5v8h-1.5c-0.552 0-1 0.448-1 1v0 2c0 0.552 0.448 1 1 1v0h8c0.552 0 1-0.448 1-1v0-2c0-0.552-0.448-1-1-1v0h-1.5v-8h3.5v1c0 0.552 0.448 1 1 1v0h2c0.552 0 1-0.448 1-1v0-4c0-0.552-0.448-1-1-1v0z"></path>
</svg>
