<!-- Generated by IcoMoon.io -->
<svg version="1.1" xmlns="http://www.w3.org/2000/svg" width="28" height="32" viewBox="0 0 28 32">
<title>text-width-solid</title>
<path d="M27 2h-26c-0.552 0-1 0.448-1 1v0 5c0 0.552 0.448 1 1 1v0h2c0.552 0 1-0.448 1-1v0-1h7.5v7h-1.5c-0.552 0-1 0.448-1 1v0 2c0 0.552 0.448 1 1 1v0h8c0.552 0 1-0.448 1-1v0-2c0-0.552-0.448-1-1-1v0h-1.5v-7h7.5v1c0 0.552 0.448 1 1 1v0h2c0.552 0 1-0.448 1-1v0-5c0-0.552-0.448-1-1-1v0zM22.707 18.293c-0.582-0.583-1.707-0.271-1.707 0.707v3h-14v-3c0-0.894-1.082-1.332-1.707-0.707l-5 5c-0.181 0.181-0.293 0.431-0.293 0.707s0.112 0.526 0.293 0.707l5 5c0.582 0.583 1.707 0.271 1.707-0.707v-3h14v3c0 0.894 1.082 1.333 1.707 0.707l5-5c0.181-0.181 0.293-0.431 0.293-0.707s-0.112-0.526-0.293-0.707v0z"></path>
</svg>
