<!-- Generated by IcoMoon.io -->
<svg version="1.1" xmlns="http://www.w3.org/2000/svg" width="32" height="32" viewBox="0 0 32 32">
<title>th-large-solid</title>
<path d="M18.5 2h12c0.828 0 1.5 0.672 1.5 1.5v10c0 0.828-0.672 1.5-1.5 1.5h-12c-0.828 0-1.5-0.672-1.5-1.5v-10c0-0.828 0.672-1.5 1.5-1.5zM13.5 2h-12c-0.828 0-1.5 0.672-1.5 1.5v10c0 0.828 0.672 1.5 1.5 1.5h12c0.828 0 1.5-0.672 1.5-1.5v-10c0-0.828-0.672-1.5-1.5-1.5zM0 18.5v10c0 0.828 0.672 1.5 1.5 1.5h12c0.828 0 1.5-0.672 1.5-1.5v-10c0-0.828-0.672-1.5-1.5-1.5h-12c-0.828 0-1.5 0.672-1.5 1.5zM18.5 30h12c0.828 0 1.5-0.672 1.5-1.5v-10c0-0.828-0.672-1.5-1.5-1.5h-12c-0.828 0-1.5 0.672-1.5 1.5v10c0 0.828 0.672 1.5 1.5 1.5z"></path>
</svg>
