<!-- Generated by IcoMoon.io -->
<svg version="1.1" xmlns="http://www.w3.org/2000/svg" width="32" height="32" viewBox="0 0 32 32">
<title>th-list-solid</title>
<path d="M9.333 13.5v5c0 0.828-0.672 1.5-1.5 1.5h-6.333c-0.828 0-1.5-0.672-1.5-1.5v-5c0-0.828 0.672-1.5 1.5-1.5h6.333c0.828 0 1.5 0.672 1.5 1.5zM0 23.5v5c0 0.828 0.672 1.5 1.5 1.5h6.333c0.828 0 1.5-0.672 1.5-1.5v-5c0-0.828-0.672-1.5-1.5-1.5h-6.333c-0.828 0-1.5 0.672-1.5 1.5zM7.833 2h-6.333c-0.828 0-1.5 0.672-1.5 1.5v5c0 0.828 0.672 1.5 1.5 1.5h6.333c0.828 0 1.5-0.672 1.5-1.5v-5c0-0.828-0.672-1.5-1.5-1.5zM12.833 30h17.667c0.828 0 1.5-0.672 1.5-1.5v-5c0-0.828-0.672-1.5-1.5-1.5h-17.667c-0.828 0-1.5 0.672-1.5 1.5v5c0 0.828 0.672 1.5 1.5 1.5zM11.333 3.5v5c0 0.828 0.672 1.5 1.5 1.5h17.667c0.828 0 1.5-0.672 1.5-1.5v-5c0-0.828-0.672-1.5-1.5-1.5h-17.667c-0.828 0-1.5 0.672-1.5 1.5zM12.833 20h17.667c0.828 0 1.5-0.672 1.5-1.5v-5c0-0.828-0.672-1.5-1.5-1.5h-17.667c-0.828 0-1.5 0.672-1.5 1.5v5c0 0.828 0.672 1.5 1.5 1.5z"></path>
</svg>
