<!-- Generated by IcoMoon.io -->
<svg version="1.1" xmlns="http://www.w3.org/2000/svg" width="32" height="32" viewBox="0 0 32 32">
<title>th-solid</title>
<path d="M9.333 3.5v5c0 0.828-0.672 1.5-1.5 1.5h-6.333c-0.828 0-1.5-0.672-1.5-1.5v-5c0-0.828 0.672-1.5 1.5-1.5h6.333c0.828 0 1.5 0.672 1.5 1.5zM20.667 18.5v-5c0-0.828-0.672-1.5-1.5-1.5h-6.333c-0.828 0-1.5 0.672-1.5 1.5v5c0 0.828 0.672 1.5 1.5 1.5h6.333c0.828 0 1.5-0.672 1.5-1.5zM22.667 3.5v5c0 0.828 0.672 1.5 1.5 1.5h6.333c0.828 0 1.5-0.672 1.5-1.5v-5c0-0.828-0.672-1.5-1.5-1.5h-6.333c-0.828 0-1.5 0.672-1.5 1.5zM20.667 8.5v-5c0-0.828-0.672-1.5-1.5-1.5h-6.333c-0.828 0-1.5 0.672-1.5 1.5v5c0 0.828 0.672 1.5 1.5 1.5h6.333c0.828 0 1.5-0.672 1.5-1.5zM7.833 12h-6.333c-0.828 0-1.5 0.672-1.5 1.5v5c0 0.828 0.672 1.5 1.5 1.5h6.333c0.828 0 1.5-0.672 1.5-1.5v-5c0-0.828-0.672-1.5-1.5-1.5zM0 23.5v5c0 0.828 0.672 1.5 1.5 1.5h6.333c0.828 0 1.5-0.672 1.5-1.5v-5c0-0.828-0.672-1.5-1.5-1.5h-6.333c-0.828 0-1.5 0.672-1.5 1.5zM24.167 20h6.333c0.828 0 1.5-0.672 1.5-1.5v-5c0-0.828-0.672-1.5-1.5-1.5h-6.333c-0.828 0-1.5 0.672-1.5 1.5v5c0 0.828 0.672 1.5 1.5 1.5zM24.167 30h6.333c0.828 0 1.5-0.672 1.5-1.5v-5c0-0.828-0.672-1.5-1.5-1.5h-6.333c-0.828 0-1.5 0.672-1.5 1.5v5c0 0.828 0.672 1.5 1.5 1.5zM11.333 23.5v5c0 0.828 0.672 1.5 1.5 1.5h6.333c0.828 0 1.5-0.672 1.5-1.5v-5c0-0.828-0.672-1.5-1.5-1.5h-6.333c-0.828 0-1.5 0.672-1.5 1.5z"></path>
</svg>
