<!-- Generated by IcoMoon.io -->
<svg version="1.1" xmlns="http://www.w3.org/2000/svg" width="32" height="32" viewBox="0 0 32 32">
<title>th</title>
<path d="M0 5v22c0 1.657 1.343 3 3 3h26c1.657 0 3-1.343 3-3v-22c0-1.657-1.343-3-3-3h-26c-1.657 0-3 1.343-3 3zM20 4v6.667h-8v-6.667h8zM30 19.333h-8v-6.667h8v6.667zM20 19.333h-8v-6.667h8v6.667zM2 12.667h8v6.667h-8v-6.667zM10 4v6.667h-8v-5.667c0-0.552 0.448-1 1-1h7zM2 27v-5.667h8v6.667h-7c-0.552 0-1-0.448-1-1zM12 28v-6.667h8v6.667h-8zM22 28v-6.667h8v5.667c0 0.552-0.448 1-1 1h-7zM30 10.667h-8v-6.667h7c0.552 0 1 0.448 1 1v5.667z"></path>
</svg>
