<!-- Generated by IcoMoon.io -->
<svg version="1.1" xmlns="http://www.w3.org/2000/svg" width="40" height="32" viewBox="0 0 40 32">
<title>theater-masks-solid</title>
<path d="M12.929 15.322c-2.242 0.653-3.747 2.575-3.596 4.631 0.713-0.795 1.801-1.481 3.119-1.933l0.477-2.699zM5.988 18.438l-1.983-11.219c-0.018-0.101 0.018-0.164 0.015-0.166 3.61-2.004 7.695-3.063 11.813-3.063 0.101 0 0.202 0.011 0.303 0.012 0.872-0.842 1.983-1.427 3.224-1.625 1.181-0.189 2.378-0.284 3.574-0.333-0.624-0.872-1.53-1.514-2.611-1.688-1.494-0.238-2.996-0.356-4.491-0.356-4.791 0-9.519 1.214-13.758 3.566-1.511 0.839-2.32 2.589-2.009 4.345l1.983 11.219c0.889 5.032 8.521 8.88 12.778 8.88 0.224 0 0.422-0.029 0.626-0.050-0.845-1.067-1.809-2.53-2.469-4.224-2.976-0.811-6.629-3.226-6.996-5.299zM12.085 9.846c-0.046-0.258-0.139-0.492-0.254-0.713-0.516 0.557-1.292 0.984-2.207 1.145s-1.792 0.025-2.467-0.323c-0.032 0.246-0.040 0.499 0.006 0.756 0.24 1.356 1.536 2.262 2.896 2.023s2.268-1.533 2.027-2.889zM37.925 7.556c-5.561-3.086-11.964-4.213-18.249-3.209-1.707 0.272-3.067 1.641-3.378 3.397l-1.983 11.219c-0.962 5.441 5.955 12.267 9.894 12.959s12.779-3.362 13.741-8.803l1.983-11.219c0.311-1.757-0.499-3.507-2.009-4.345zM20.848 13.606c0.24-1.356 1.536-2.262 2.896-2.023s2.267 1.533 2.028 2.889c-0.046 0.258-0.139 0.492-0.254 0.713-0.516-0.557-1.292-0.984-2.207-1.145s-1.792-0.025-2.468 0.323c-0.033-0.247-0.041-0.499 0.005-0.757zM25.252 26.029c-3.48-0.612-5.845-3.704-5.565-7.056 1.288 1.596 3.513 2.886 6.218 3.361s5.239 0.023 6.996-1.038c-0.886 3.246-4.169 5.344-7.649 4.733zM33.396 16.57c-0.516-0.557-1.292-0.984-2.208-1.145s-1.792-0.025-2.468 0.323c-0.032-0.246-0.040-0.499 0.006-0.756 0.24-1.356 1.536-2.262 2.896-2.023s2.267 1.533 2.028 2.889c-0.046 0.258-0.139 0.493-0.254 0.713z"></path>
</svg>
