<!-- Generated by IcoMoon.io -->
<svg version="1.1" xmlns="http://www.w3.org/2000/svg" width="40" height="32" viewBox="0 0 40 32">
<title>theater-masks</title>
<path d="M9.441 12.876c1.209-0.213 2.236-1.116 2.822-2.479 0.217-0.508-0.018-1.096-0.526-1.314s-1.096 0.016-1.314 0.524c-0.184 0.431-0.601 1.171-1.33 1.299-0.731 0.135-1.377-0.426-1.697-0.766-0.381-0.402-1.014-0.42-1.414-0.043-0.402 0.379-0.422 1.012-0.043 1.414 0.323 0.344 1.644 1.696 3.502 1.365zM32.115 13.009c-1.213-0.217-2.467 0.266-3.502 1.363-0.379 0.402-0.359 1.035 0.043 1.414 0.401 0.377 1.033 0.359 1.414-0.043 0.32-0.342 0.961-0.896 1.698-0.766 0.729 0.129 1.146 0.869 1.33 1.299 0.221 0.512 0.814 0.741 1.314 0.524 0.508-0.218 0.742-0.806 0.526-1.314-0.586-1.361-1.613-2.264-2.822-2.478zM32.471 19.922c-1.644 0.996-3.941 1.327-6.305 0.911-2.363-0.417-4.408-1.514-5.613-3.012-0.572-0.709-1.703-0.345-1.776 0.544-0.328 3.942 2.418 7.442 6.387 8.142 1.319 0.233 7.19 0.406 8.789-5.466 0.236-0.864-0.703-1.584-1.482-1.119zM25.512 24.537c-2.074-0.366-3.699-1.755-4.393-3.559 1.334 0.881 2.951 1.517 4.699 1.824 1.752 0.311 3.484 0.266 5.041-0.108-1.272 1.458-3.274 2.206-5.348 1.843zM21.207 14.181c0.32-0.34 0.969-0.909 1.698-0.766 0.729 0.128 1.146 0.868 1.33 1.299 0.221 0.512 0.814 0.741 1.314 0.524 0.508-0.217 0.742-0.806 0.526-1.314-0.594-1.384-1.596-2.264-2.823-2.481-1.224-0.21-2.469 0.269-3.502 1.365-0.379 0.402-0.359 1.035 0.043 1.414s1.033 0.361 1.414-0.042zM37.925 7.494c-2.608-1.451-7.5-3.659-14.194-3.558-0.367-2.078-1.787-3.319-3.408-3.579-1.494-0.239-2.996-0.357-4.491-0.357-4.791 0-9.519 1.217-13.758 3.576-1.511 0.84-2.32 2.594-2.009 4.356l1.983 11.248c0.889 5.045 8.521 8.902 12.778 8.902 0.866 0 1.491-0.117 2.726-0.729 0.161 0.186 3.924 4.648 7.621 4.648 4.258 0 11.889-3.857 12.778-8.902l1.983-11.248c0.311-1.761-0.499-3.515-2.009-4.356zM14.827 26.081c-3.591 0-10.127-3.388-10.809-7.249l-1.982-11.248c-0.163-0.924 0.244-1.833 1.012-2.261 1.59-0.884 8.093-4.41 16.96-2.991 0.843 0.135 1.511 0.816 1.699 1.701-0.677 0.059-1.354 0.134-2.029 0.242-1.707 0.273-3.067 1.645-3.378 3.406l-1.479 8.387c-4.203 0.191-6.266 2.877-6.353 2.986-0.346 0.431-0.277 1.061 0.152 1.406 0.494 0.395 1.112 0.213 1.406-0.152 0.064-0.079 1.396-1.847 4.434-2.195l-0.144 0.817c-0.391 2.214 0.527 4.651 2.006 6.819-0.658 0.28-1.008 0.331-1.496 0.331zM37.965 11.502l-1.984 11.248c-0.681 3.861-7.218 7.249-10.808 7.249-2.441 0-5.429-3.146-6.223-4.082-1.988-2.346-2.985-4.829-2.665-6.641l1.983-11.248c0.163-0.924 0.856-1.639 1.724-1.778 8.884-1.421 15.392 2.118 16.96 2.991 0.768 0.427 1.174 1.336 1.012 2.26z"></path>
</svg>
