<!-- Generated by IcoMoon.io -->
<svg version="1.1" xmlns="http://www.w3.org/2000/svg" width="16" height="32" viewBox="0 0 16 32">
<title>thermometer-three-quarters</title>
<path d="M11 24c0 1.657-1.343 3-3 3s-3-1.343-3-3c0-1.306 0.835-2.417 2-2.829v-12.171c0-0.552 0.448-1 1-1s1 0.448 1 1v12.171c1.165 0.412 2 1.523 2 2.829zM14 18.709c1.245 1.41 2 3.262 2 5.291 0 4.419-3.581 8-8 8-0.019 0-0.038-0-0.057-0-4.394-0.030-7.965-3.648-7.943-8.041 0.010-2.012 0.764-3.849 2-5.249v-12.709c0-3.314 2.686-6 6-6s6 2.686 6 6v12.709zM14 24c0-2.493-1.426-3.884-2-4.535v-13.465c0-2.206-1.794-4-4-4s-4 1.794-4 4v13.465c-0.592 0.671-1.987 2.036-2 4.503-0.017 3.294 2.664 6.008 5.957 6.031l0.043 0c3.308 0 6-2.692 6-6z"></path>
</svg>
