<!-- Generated by IcoMoon.io -->
<svg version="1.1" xmlns="http://www.w3.org/2000/svg" width="32" height="32" viewBox="0 0 32 32">
<title>thermometer</title>
<path d="M29.775 1.281c-2.344-1.925-5.956-1.65-8.212 0.613l-12.988 13.019c-0.375 0.375-0.556 0.887-0.556 1.419v3.438l-7.144 7.106c-1.581 1.581-0.662 3.581 0 4.25 1.169 1.175 3.069 1.169 4.237 0l7.094-7.131h3.431c0.531 0 1.038-0.181 1.413-0.556l13.188-13.244c2.162-2.175 2.687-6.325-0.462-8.912zM3.7 29.706c-0.938 0.938-2.344-0.481-1.413-1.413l1.906-1.887 1.412 1.413-1.906 1.887zM28.819 8.775l-13.188 13.225h-3.431c-0.531 0-1.037 0.231-1.412 0.606l-3.775 3.8-1.406-1.413 3.787-3.813c0.375-0.375 0.613-0.887 0.613-1.419v-3.438l2.156-2.181 2.469 2.475c0.194 0.194 0.512 0.194 0.706 0l0.706-0.706c0.194-0.194 0.194-0.512 0-0.706l-2.469-2.475 2.825-2.831 2.469 2.475c0.194 0.194 0.512 0.194 0.706 0l0.706-0.706c0.194-0.194 0.194-0.512 0-0.706l-2.469-2.481 2.825-2.831 2.469 2.475c0.194 0.194 0.512 0.194 0.706 0l0.706-0.706c0.194-0.194 0.194-0.513 0-0.706l-2.475-2.475 0.925-0.925c1.544-1.544 3.975-1.756 5.537-0.475 2.069 1.681 1.788 4.463 0.313 5.938z"></path>
</svg>
