<!-- Generated by IcoMoon.io -->
<svg version="1.1" xmlns="http://www.w3.org/2000/svg" width="32" height="32" viewBox="0 0 32 32">
<title>thermometer-solid</title>
<path d="M29.8 1.275c-2.344-1.919-5.969-1.644-8.244 0.637l-2.856 2.875 3.156 3.156c0.194 0.194 0.194 0.512 0 0.706l-0.706 0.706c-0.194 0.194-0.512 0.194-0.706 0l-3.15-3.156-2.819 2.838 3.144 3.15c0.194 0.194 0.194 0.512 0 0.706l-0.706 0.706c-0.194 0.194-0.512 0.194-0.706 0l-3.144-3.138-2.819 2.838 3.131 3.138c0.194 0.194 0.194 0.512 0 0.706l-0.706 0.706c-0.194 0.194-0.512 0.194-0.706 0l-3.131-3.137-2.831 2.856v6.306l-5.563 5.563c-0.588 0.587-0.588 1.538 0 2.119 0.587 0.587 1.538 0.587 2.119 0l5.563-5.563h6.244l15.887-15.831c2.181-2.181 2.638-6.344-0.45-8.887z"></path>
</svg>
