<!-- Generated by IcoMoon.io -->
<svg version="1.1" xmlns="http://www.w3.org/2000/svg" width="16" height="32" viewBox="0 0 16 32">
<title>thermometer-full-solid</title>
<path d="M14 6c0-3.314-2.686-6-6-6s-6 2.686-6 6v12.709c-1.236 1.401-1.99 3.237-2 5.249-0.022 4.394 3.549 8.011 7.943 8.041 0.019 0 0.038 0 0.057 0 4.419 0 8-3.582 8-8 0-2.029-0.755-3.881-2-5.291v-12.709zM8 29l-0.036-0c-2.741-0.019-4.978-2.284-4.964-5.026 0.011-2.124 1.204-3.228 2-4.13v-13.844c0-1.654 1.346-3 3-3s3 1.346 3 3v13.844c0.789 0.895 2 2.010 2 4.156 0 2.757-2.243 5-5 5zM12 24c0 2.209-1.791 4-4 4s-4-1.791-4-4c0-1.48 0.805-2.772 2-3.464v-14.536c0-1.105 0.895-2 2-2s2 0.895 2 2v14.536c1.195 0.692 2 1.983 2 3.464z"></path>
</svg>
