<!-- Generated by IcoMoon.io -->
<svg version="1.1" xmlns="http://www.w3.org/2000/svg" width="16" height="32" viewBox="0 0 16 32">
<title>thermometer-half-solid</title>
<path d="M12 24c0 2.209-1.791 4-4 4s-4-1.791-4-4c0-1.48 0.805-2.772 2-3.464v-6.536c0-1.105 0.895-2 2-2s2 0.895 2 2v6.536c1.195 0.692 2 1.983 2 3.464zM14 18.709c1.245 1.41 2 3.262 2 5.291 0 4.419-3.581 8-8 8-0.019 0-0.038-0-0.057-0-4.394-0.030-7.965-3.648-7.943-8.041 0.010-2.012 0.764-3.849 2-5.249v-12.709c0-3.314 2.686-6 6-6s6 2.686 6 6v12.709zM13 24c0-2.146-1.211-3.262-2-4.156v-13.844c0-1.654-1.346-3-3-3s-3 1.346-3 3v13.844c-0.796 0.902-1.989 2.006-2 4.13-0.014 2.742 2.223 5.007 4.964 5.026l0.036 0c2.757 0 5-2.243 5-5z"></path>
</svg>
