<!-- Generated by IcoMoon.io -->
<svg version="1.1" xmlns="http://www.w3.org/2000/svg" width="16" height="32" viewBox="0 0 16 32">
<title>thermometer-full</title>
<path d="M14 6c0-3.314-2.686-6-6-6s-6 2.686-6 6v12.709c-1.236 1.401-1.99 3.237-2 5.249-0.022 4.394 3.549 8.011 7.943 8.041 0.019 0 0.038 0 0.057 0 4.419 0 8-3.582 8-8 0-2.029-0.755-3.881-2-5.291v-12.709zM8 30l-0.043-0c-3.293-0.023-5.974-2.737-5.957-6.031 0.013-2.467 1.408-3.833 2-4.503v-13.465c0-2.206 1.794-4 4-4s4 1.794 4 4v13.465c0.574 0.651 2 2.041 2 4.535 0 3.308-2.692 6-6 6zM11 24c0 1.657-1.343 3-3 3s-3-1.343-3-3c0-1.306 0.835-2.417 2-2.829v-15.171c0-0.552 0.448-1 1-1s1 0.448 1 1v15.171c1.165 0.412 2 1.523 2 2.829z"></path>
</svg>
