<!-- Generated by IcoMoon.io -->
<svg version="1.1" xmlns="http://www.w3.org/2000/svg" width="24" height="32" viewBox="0 0 24 32">
<title>thumbtack</title>
<path d="M18.8 12.744l-0.631-4.744h2.331c0.825 0 1.5-0.675 1.5-1.5v-5c0-0.825-0.675-1.5-1.5-1.5h-17c-0.825 0-1.5 0.675-1.5 1.5v5c0 0.825 0.675 1.5 1.5 1.5h2.331l-0.631 4.744c-3.019 1.725-5.2 4.656-5.2 8.206 0 0.55 0.45 1 1 1h10v7.55c0 0.044 0.006 0.081 0.012 0.119l0.5 2c0.125 0.5 0.844 0.506 0.969 0l0.5-2c0.012-0.038 0.012-0.081 0.012-0.119v-7.55h10c0.55 0 1-0.45 1-1 0.006-3.55-2.175-6.481-5.194-8.206zM2.081 19.95c0.425-2.681 2.475-4.775 4.969-5.906l0.95-8.044h-4v-4h16v4h-4l0.956 8.050c2.5 1.137 4.544 3.238 4.969 5.906h-19.844z"></path>
</svg>
