<!-- Generated by IcoMoon.io -->
<svg version="1.1" xmlns="http://www.w3.org/2000/svg" width="24" height="32" viewBox="0 0 24 32">
<title>thumbtack-solid</title>
<path d="M18.627 13.392l-0.765-7.392h2.638c0.828 0 1.5-0.672 1.5-1.5v-3c0-0.828-0.672-1.5-1.5-1.5h-17c-0.828 0-1.5 0.672-1.5 1.5v3c0 0.828 0.672 1.5 1.5 1.5h2.638l-0.765 7.392c-3.032 1.41-5.373 3.937-5.373 7.108 0 0.828 0.672 1.5 1.5 1.5h8.5v6.5c0 0.078 0.018 0.154 0.053 0.224l1.5 3c0.184 0.368 0.71 0.368 0.894 0l1.5-3c0.033-0.065 0.053-0.142 0.053-0.224v0-6.5h8.5c0.828 0 1.5-0.672 1.5-1.5-0-3.199-2.374-5.714-5.373-7.108z"></path>
</svg>
