<!-- Generated by IcoMoon.io -->
<svg version="1.1" xmlns="http://www.w3.org/2000/svg" width="32" height="32" viewBox="0 0 32 32">
<title>thumbs-down</title>
<path d="M31.041 14.145c0.344-1.396 0.177-3.117-0.602-4.338 0.27-1.486-0.194-3.086-1.139-4.194 0.12-3.369-1.941-5.613-5.646-5.612-0.21-0.002-2.219-0-2.563 0-4.804-0.001-8.846 2.499-11.091 2.499h-0.678c-0.352-0.311-0.815-0.5-1.322-0.5h-6c-1.105 0-2 0.895-2 2v16c0 1.105 0.895 2 2 2h6c1.105 0 2-0.895 2-2v-0.78c0.053 0.017 0.103 0.034 0.149 0.053 1.351 0.727 3.6 4.305 5.073 5.778 0.619 0.619 0.82 1.652 1.033 2.747 0.356 1.832 1.052 4.202 2.927 4.202 3.726 0 5.182-2.167 5.182-5.817 0-1.932-0.748-3.278-1.293-4.364h4.384c2.541 0 4.545-2.181 4.545-4.536-0-1.283-0.339-2.334-0.959-3.138zM8 20h-6v-16h6v16zM27.455 19.819h-7c0 2.545 1.909 3.727 1.909 6.364 0 1.598 0 3.818-3.182 3.818-1.273-1.273-0.636-4.454-2.545-6.364-1.788-1.788-4.454-6.364-6.364-6.364h-0.273v-12.727h0.273c2.169 0 6.364-2.545 10.818-2.545 0.218 0 2.338-0.002 2.545 0 2.391 0.023 4.094 1.152 3.576 4.436 1.023 0.549 1.784 2.452 0.938 3.875 1.349 0.689 1.349 3.689 0.351 4.417 0.999 0.272 1.505 1.273 1.499 2.545s-1.125 2.545-2.545 2.545zM6.5 17c0 0.828-0.672 1.5-1.5 1.5s-1.5-0.672-1.5-1.5 0.672-1.5 1.5-1.5 1.5 0.672 1.5 1.5z"></path>
</svg>
