<!-- Generated by IcoMoon.io -->
<svg version="1.1" xmlns="http://www.w3.org/2000/svg" width="32" height="32" viewBox="0 0 32 32">
<title>thumbs-down-solid</title>
<path d="M0 3.5v15c0 0.828 0.672 1.5 1.5 1.5h5c0.828 0 1.5-0.672 1.5-1.5v-15c0-0.828-0.672-1.5-1.5-1.5h-5c-0.828 0-1.5 0.672-1.5 1.5zM2.5 16c0-0.828 0.672-1.5 1.5-1.5s1.5 0.672 1.5 1.5-0.672 1.5-1.5 1.5-1.5-0.672-1.5-1.5zM19.5 32c-1.261 0-1.843-2.456-2.121-3.612-0.325-1.354-0.662-2.754-1.587-3.681-2.029-2.033-3.094-4.623-5.57-7.069-0.137-0.136-0.222-0.324-0.222-0.532 0-0 0-0 0-0v0-13.361c0-0.409 0.328-0.742 0.736-0.75 0.989-0.018 2.293-0.567 3.291-1.011 1.985-0.883 4.455-1.982 7.472-1.983h0.178c2.674 0 5.835 0.026 7.111 1.859 0.524 0.754 0.653 1.69 0.384 2.789 1.020 1.066 1.566 3.054 1.024 4.672 1.096 1.464 1.196 3.508 0.582 4.967l0.007 0.007c0.743 0.747 1.22 1.954 1.215 3.075-0.010 1.897-1.635 3.631-3.722 3.631h-6.358c0.457 1.771 2.080 3.258 2.080 5.909 0 4.591-3 5.091-4.5 5.091z"></path>
</svg>
