<!-- Generated by IcoMoon.io -->
<svg version="1.1" xmlns="http://www.w3.org/2000/svg" width="32" height="32" viewBox="0 0 32 32">
<title>thumbs-up</title>
<path d="M31.041 17.855c0.62-0.805 0.959-1.855 0.959-3.138-0-2.355-2.005-4.536-4.545-4.536h-4.384c0.545-1.085 1.293-2.432 1.293-4.364 0-3.651-1.456-5.817-5.182-5.817-1.875 0-2.57 2.37-2.927 4.202-0.213 1.094-0.414 2.128-1.033 2.747-1.473 1.473-3.722 5.051-5.073 5.778-0.137 0.058-0.312 0.103-0.502 0.139-0.361-0.523-0.964-0.866-1.647-0.866h-6c-1.105 0-2 0.895-2 2v16c0 1.105 0.895 2 2 2h6c1.105 0 2-0.895 2-2v-0.546c2.031 0 6.293 2.547 11.091 2.545 0.344 0 2.353 0.002 2.563 0 3.705 0.001 5.766-2.243 5.646-5.612 0.945-1.108 1.409-2.709 1.139-4.194 0.779-1.22 0.945-2.942 0.602-4.338zM2 30v-16h6v16h-6zM28.501 17.272c0.999 0.728 0.999 3.728-0.35 4.417 0.845 1.422 0.084 3.326-0.938 3.875 0.518 3.284-1.185 4.413-3.576 4.436-0.207 0.002-2.328 0-2.545 0-4.558 0-8.421-2.545-11.091-2.545v-12.727c2.357 0 4.519-4.246 6.636-6.364 1.909-1.909 1.273-5.091 2.545-6.364 3.182 0 3.182 2.22 3.182 3.818 0 2.637-1.909 3.818-1.909 6.364h7c1.421 0 2.539 1.273 2.545 2.545s-0.5 2.273-1.499 2.545zM6.5 27c0 0.828-0.672 1.5-1.5 1.5s-1.5-0.672-1.5-1.5 0.672-1.5 1.5-1.5 1.5 0.672 1.5 1.5z"></path>
</svg>
