<!-- Generated by IcoMoon.io -->
<svg version="1.1" xmlns="http://www.w3.org/2000/svg" width="32" height="32" viewBox="0 0 32 32">
<title>thumbs-up-solid</title>
<path d="M6.5 14h-5c-0.828 0-1.5 0.672-1.5 1.5v15c0 0.828 0.672 1.5 1.5 1.5h5c0.828 0 1.5-0.672 1.5-1.5v-15c0-0.828-0.672-1.5-1.5-1.5zM4 29.5c-0.828 0-1.5-0.672-1.5-1.5s0.672-1.5 1.5-1.5 1.5 0.672 1.5 1.5-0.672 1.5-1.5 1.5zM24 5.091c0 2.651-1.623 4.138-2.080 5.909h6.358c2.087 0 3.712 1.734 3.722 3.631 0.005 1.121-0.472 2.328-1.215 3.075l-0.007 0.007c0.615 1.459 0.515 3.502-0.582 4.967 0.543 1.618-0.004 3.607-1.024 4.672 0.269 1.1 0.14 2.036-0.384 2.79-1.276 1.833-4.437 1.859-7.111 1.859l-0.178-0c-3.018-0.001-5.488-1.1-7.473-1.983-0.997-0.444-2.301-0.993-3.291-1.011-0.409-0.008-0.736-0.341-0.736-0.75v-13.361c0-0.2 0.080-0.392 0.222-0.533 2.476-2.447 3.54-5.037 5.57-7.069 0.925-0.927 1.262-2.327 1.587-3.681 0.278-1.156 0.859-3.612 2.121-3.612 1.5 0 4.5 0.5 4.5 5.091z"></path>
</svg>
