<!-- Generated by IcoMoon.io -->
<svg version="1.1" xmlns="http://www.w3.org/2000/svg" width="36" height="32" viewBox="0 0 36 32">
<title>thunderstorm-moon-solid</title>
<path d="M35.494 13.988c-4.4 0.831-8.438-2.519-8.438-6.925 0-2.538 1.369-4.875 3.594-6.131 0.344-0.194 0.256-0.713-0.131-0.781-0.544-0.1-1.1-0.15-1.656-0.15-4.869 0-8.819 3.825-9.025 8.619 1.669 0.744 3.012 2.113 3.681 3.856 2.319 0.894 4 2.963 4.387 5.425 0.319 0.031 0.625 0.094 0.95 0.094 2.794 0 5.35-1.262 7.038-3.331 0.263-0.3-0.013-0.75-0.4-0.675zM17.25 21h-3.606l1.081-4.056c0.125-0.475-0.231-0.944-0.725-0.944h-4.25c-0.375 0-0.694 0.281-0.744 0.65l-1 7.5c-0.063 0.45 0.287 0.85 0.744 0.85h3.706l-1.438 6.075c-0.113 0.475 0.25 0.925 0.731 0.925 0.262 0 0.512-0.137 0.65-0.375l5.5-9.5c0.288-0.5-0.075-1.125-0.65-1.125zM21.906 14.094c-0.431-2.325-2.456-4.094-4.906-4.094-0.769 0-1.494 0.188-2.144 0.5-1.088-1.506-2.85-2.5-4.856-2.5-3.313 0-6 2.688-6 6 0 0.031 0.013 0.069 0.013 0.1-2.288 0.456-4.013 2.475-4.013 4.9 0 2.762 2.237 5 5 5h1.019c0.006-0.038 0-0.075 0-0.113l1-7.5c0.188-1.363 1.356-2.387 2.731-2.387h4.25c0.863 0 1.656 0.394 2.181 1.075s0.7 1.55 0.475 2.381l-0.413 1.544h1c0.981 0 1.894 0.525 2.381 1.375s0.488 1.906 0 2.75l-0.506 0.875h1.875c2.762 0 5-2.238 5-5 0.006-2.45-1.756-4.481-4.087-4.906z"></path>
</svg>
