<!-- Generated by IcoMoon.io -->
<svg version="1.1" xmlns="http://www.w3.org/2000/svg" width="36" height="32" viewBox="0 0 36 32">
<title>thunderstorm-moon</title>
<path d="M35.869 14.844c-0.225-0.481-0.719-0.787-1.244-0.787h-0.087l-0.169 0.025c-0.394 0.075-0.788 0.113-1.181 0.113-3.4 0-6.169-2.75-6.169-6.137 0-2.2 1.2-4.244 3.131-5.331 0.512-0.288 0.775-0.85 0.681-1.425-0.1-0.581-0.531-1.019-1.113-1.125-0.613-0.119-1.231-0.175-1.844-0.175-4.194 0-7.794 2.569-9.3 6.2 0.656 0.156 1.281 0.394 1.856 0.719 1.2-2.844 4.012-4.862 7.3-4.919-1.706 1.525-2.719 3.725-2.719 6.050 0 4.419 3.563 8.031 7.975 8.131-1.394 1.137-3.144 1.775-4.988 1.8v0.012c0 0.688-0.113 1.344-0.281 1.988 0.050 0 0.1 0.012 0.15 0.012 3.044 0 5.894-1.35 7.812-3.7 0.344-0.406 0.413-0.969 0.188-1.45zM19 19h-3.719l0.688-2.756c0.075-0.3 0.006-0.613-0.181-0.856s-0.481-0.387-0.787-0.387h-5c-0.456 0-0.863 0.313-0.969 0.756l-2 8c-0.156 0.637 0.325 1.244 0.969 1.244h3.85l-0.838 5.856c-0.1 0.694 0.481 1.137 0.988 1.137 0.531 0 0.794-0.387 0.85-0.475 0.213-0.331 6.994-10.988 6.994-10.988 0.425-0.669-0.063-1.531-0.844-1.531zM13.644 26.575l0.35-2.431c0.044-0.288-0.044-0.575-0.238-0.794-0.188-0.219-0.469-0.344-0.756-0.344h-3.719l1.5-6h2.938l-0.688 2.756c-0.156 0.637 0.325 1.244 0.969 1.244h3.175c-1.506 2.369-2.662 4.181-3.531 5.569zM21.956 12.331c-0.331-2.444-2.425-4.331-4.956-4.331-0.538 0-1.063 0.088-1.575 0.269-1.231-1.438-3.012-2.269-4.925-2.269-3.531 0-6.419 2.831-6.5 6.35-2.362 0.831-4 3.081-4 5.65 0 2.969 2.169 5.425 5.006 5.9 0.006-0.212 0.031-0.419 0.081-0.631l0.331-1.331c-1.925-0.281-3.419-1.931-3.419-3.938 0-1.913 1.362-3.563 3.25-3.925l0.906-0.175-0.125-1.125c-0.013-0.094-0.025-0.181-0.025-0.275 0-2.481 2.019-4.5 4.5-4.5 1.519 0 2.925 0.762 3.762 2.050l0.506 0.775 0.813-0.444c2.044-1.113 4.419 0.512 4.425 2.525l-0.012 1.012 0.8 0.162c1.863 0.375 3.206 2.019 3.206 3.919 0 1.688-1.056 3.125-2.531 3.712-0.175 0.269-0.725 1.137-1.456 2.288 3.306-0.006 5.988-2.694 5.988-6-0.006-2.581-1.669-4.85-4.050-5.669z"></path>
</svg>
