<!-- Generated by IcoMoon.io -->
<svg version="1.1" xmlns="http://www.w3.org/2000/svg" width="32" height="32" viewBox="0 0 32 32">
<title>thunderstorm</title>
<path d="M23 16h-4.613l1.563-4.681c0.1-0.306 0.050-0.637-0.137-0.9s-0.488-0.412-0.813-0.412h-7c-0.481 0-0.894 0.344-0.988 0.819l-2 11c-0.050 0.294 0.025 0.594 0.219 0.819s0.469 0.363 0.769 0.363h5v8c0 0.462 0.319 0.869 0.769 0.975 0.075 0.019 0.156 0.025 0.231 0.025 0.375 0 0.725-0.206 0.894-0.55l7-14c0.156-0.313 0.137-0.675-0.044-0.975s-0.506-0.481-0.85-0.481zM17 26.762v-4.762c0-0.55-0.45-1-1-1h-4.8l1.637-9h4.781l-1.563 4.681c-0.1 0.306-0.050 0.637 0.137 0.9s0.488 0.413 0.813 0.413h4.381l-4.387 8.769zM25.981 7.019c-0.244-2.806-2.613-5.019-5.481-5.019-1.113 0-2.175 0.331-3.075 0.95-1.406-1.844-3.581-2.95-5.925-2.95-4.138 0-7.5 3.362-7.5 7.5v0.025c-2.394 1-4 3.344-4 5.975 0 3.581 2.919 6.5 6.5 6.5h0.813l0.362-2h-1.175c-2.481 0-4.5-2.019-4.5-4.5 0-2.019 1.369-3.794 3.331-4.325l0.831-0.225-0.125-1.075c-0.019-0.125-0.037-0.25-0.037-0.375 0-3.031 2.469-5.5 5.5-5.5 2.012 0 3.863 1.119 4.825 2.925l0.663 1.237 0.95-1.031c0.681-0.731 1.587-1.131 2.563-1.131 1.931 0 3.5 1.569 3.5 3.5 0 0.1-0.019 0.194-0.050 0.431l-0.156 1.25 1.469-0.15c0.075-0.012 0.156-0.025 0.238-0.025 2.481 0 4.5 2.019 4.5 4.5 0 2.375-1.856 4.306-4.188 4.469-0.044 0.125-0.069 0.25-0.131 0.375l-0.825 1.65h0.644c3.581 0 6.5-2.919 6.5-6.5 0-3.425-2.663-6.237-6.019-6.481z"></path>
</svg>
