<!-- Generated by IcoMoon.io -->
<svg version="1.1" xmlns="http://www.w3.org/2000/svg" width="32" height="32" viewBox="0 0 32 32">
<title>thunderstorm-solid</title>
<path d="M21.063 18h-4.506l1.413-4.819c0.156-0.594-0.288-1.181-0.906-1.181h-5.125c-0.469 0-0.869 0.35-0.931 0.813l-1 8.125c-0.075 0.563 0.363 1.063 0.931 1.063h5.063l-1.975 8.844c-0.137 0.594 0.313 1.156 0.912 1.156 0.325 0 0.637-0.169 0.813-0.469l6.125-12.125c0.356-0.625-0.094-1.406-0.813-1.406zM26 8c-0.038 0-0.069 0.012-0.1 0.012 0.069-0.325 0.1-0.662 0.1-1.013 0-2.763-2.238-5-5-5-1.538 0-2.894 0.706-3.813 1.8-1.163-2.25-3.481-3.8-6.188-3.8-3.869 0-7 3.131-7 7 0 0.456 0.050 0.894 0.131 1.325-2.394 0.787-4.131 3.019-4.131 5.675 0 3.313 2.688 6 6 6h2.031l0.994-7.45c0.194-1.456 1.444-2.55 2.912-2.55h5.313c0.919 0 1.769 0.419 2.331 1.15s0.744 1.656 0.506 2.544l-0.681 2.556h1.906c1.044 0 2.019 0.563 2.544 1.469 0.4 0.7 0.488 1.525 0.269 2.281h1.875c3.313 0 6-2.688 6-6s-2.688-6-6-6z"></path>
</svg>
