<!-- Generated by IcoMoon.io -->
<svg version="1.1" xmlns="http://www.w3.org/2000/svg" width="36" height="32" viewBox="0 0 36 32">
<title>ticket-alt</title>
<path d="M26.5 10h-17c-0.828 0-1.5 0.672-1.5 1.5v9c0 0.828 0.672 1.5 1.5 1.5h17c0.828 0 1.5-0.672 1.5-1.5v-9c0-0.828-0.672-1.5-1.5-1.5zM26 20h-16v-8h16v8zM34 14h2v-7c0-1.657-1.343-3-3-3h-30c-1.657 0-3 1.343-3 3v7h2c1.105 0 2 0.895 2 2s-0.895 2-2 2h-2v7c0 1.657 1.343 3 3 3h30c1.657 0 3-1.343 3-3v-7h-2c-1.105 0-2-0.895-2-2s0.895-2 2-2zM34 20v5c0 0.551-0.449 1-1 1h-30c-0.551 0-1-0.449-1-1v-5c2.206 0 4-1.794 4-4s-1.794-4-4-4v-5c0-0.551 0.449-1 1-1h30c0.551 0 1 0.449 1 1v5c-2.206 0-4 1.794-4 4s1.794 4 4 4z"></path>
</svg>
