<!-- Generated by IcoMoon.io -->
<svg version="1.1" xmlns="http://www.w3.org/2000/svg" width="36" height="32" viewBox="0 0 36 32">
<title>ticket-alt-solid</title>
<path d="M8 10h20v12h-20v-12zM33 16c0 1.657 1.343 3 3 3v6c0 1.657-1.343 3-3 3h-30c-1.657 0-3-1.343-3-3v-6c1.657 0 3-1.343 3-3s-1.343-3-3-3v-6c0-1.657 1.343-3 3-3h30c1.657 0 3 1.343 3 3v6c-1.657 0-3 1.343-3 3zM30 9.5c0-0.828-0.672-1.5-1.5-1.5h-21c-0.828 0-1.5 0.672-1.5 1.5v13c0 0.828 0.672 1.5 1.5 1.5h21c0.828 0 1.5-0.672 1.5-1.5v-13z"></path>
</svg>
