<!-- Generated by IcoMoon.io -->
<svg version="1.1" xmlns="http://www.w3.org/2000/svg" width="32" height="32" viewBox="0 0 32 32">
<title>tilde-solid</title>
<path d="M21.221 23.844c-2.22-0.405-4.172-1.73-5.582-3.492l-4.157-5.197c-0.586-0.735-1.463-1.156-2.404-1.156-1.697 0-3.078 1.381-3.078 3.078v2.984c0 1.104-0.896 2-2 2h-2c-1.104 0-2-0.896-2-2v-2.558c0-4.881 3.667-9.208 8.54-9.489 2.975-0.172 5.784 1.087 7.628 3.392l4.349 5.438c0.587 0.734 1.464 1.155 2.404 1.155 1.698 0 3.078-1.381 3.078-3.078v-2.922c0-1.104 0.896-2 2-2h2c1.104 0 2 0.896 2 2v2.922c0 5.563-5.028 9.973-10.779 8.922z"></path>
</svg>
