<!-- Generated by IcoMoon.io -->
<svg version="1.1" xmlns="http://www.w3.org/2000/svg" width="28" height="32" viewBox="0 0 28 32">
<title>tilde</title>
<path d="M26 10.5v4.491c0 2.244-1.448 4.322-3.626 4.865-1.988 0.494-4.004-0.308-5.122-1.921l-4.705-6.784c-1.321-1.904-3.464-3.161-5.781-3.149-3.735 0.019-6.766 3.063-6.766 6.801v4.698c0 0.276 0.224 0.5 0.5 0.5h1c0.276 0 0.5-0.224 0.5-0.5v-4.491c0-2.244 1.447-4.322 3.626-4.865 1.987-0.494 4.004 0.308 5.123 1.921l4.705 6.784c1.321 1.904 3.464 3.161 5.781 3.149 3.735-0.019 6.766-3.063 6.766-6.801v-4.697c0-0.276-0.224-0.5-0.5-0.5h-1c-0.276 0-0.5 0.224-0.5 0.5z"></path>
</svg>
