<!-- Generated by IcoMoon.io -->
<svg version="1.1" xmlns="http://www.w3.org/2000/svg" width="32" height="32" viewBox="0 0 32 32">
<title>times-octagon-solid</title>
<path d="M31.119 9.406c0.563 0.563 0.881 1.325 0.881 2.119v8.944c0 0.794-0.319 1.556-0.881 2.119l-8.525 8.531c-0.563 0.563-1.325 0.881-2.119 0.881h-8.944c-0.794 0-1.556-0.319-2.119-0.881l-8.531-8.525c-0.563-0.563-0.881-1.325-0.881-2.119v-8.944c0-0.794 0.319-1.556 0.881-2.119l8.525-8.531c0.563-0.563 1.325-0.881 2.119-0.881h8.944c0.794 0 1.556 0.319 2.119 0.881l8.531 8.525zM23.6 21.125c0.294-0.294 0.294-0.769 0-1.063l-4.063-4.063 4.069-4.069c0.294-0.294 0.294-0.769 0-1.063l-2.481-2.469c-0.294-0.294-0.769-0.294-1.063 0l-4.063 4.063-4.069-4.069c-0.294-0.294-0.769-0.294-1.063 0l-2.469 2.481c-0.294 0.294-0.294 0.769 0 1.063l4.069 4.069-4.069 4.069c-0.294 0.294-0.294 0.769 0 1.063l2.475 2.475c0.294 0.294 0.769 0.294 1.063 0l4.069-4.069 4.069 4.069c0.294 0.294 0.769 0.294 1.063 0l2.462-2.488z"></path>
</svg>
