<!-- Generated by IcoMoon.io -->
<svg version="1.1" xmlns="http://www.w3.org/2000/svg" width="36" height="32" viewBox="0 0 36 32">
<title>times-hexagon-solid</title>
<path d="M34.594 14.488c0.544 0.931 0.544 2.087 0 3.025l-7 12c-0.538 0.919-1.525 1.488-2.594 1.488h-14c-1.069 0-2.056-0.569-2.594-1.488l-7-12c-0.544-0.931-0.544-2.088 0-3.025l7-12c0.537-0.919 1.525-1.488 2.594-1.488h14c1.069 0 2.056 0.569 2.594 1.488l7 12zM25.6 21.125c0.294-0.294 0.294-0.769 0-1.063l-4.063-4.063 4.069-4.069c0.294-0.294 0.294-0.769 0-1.063l-2.481-2.469c-0.294-0.294-0.769-0.294-1.063 0l-4.063 4.063-4.069-4.069c-0.294-0.294-0.769-0.294-1.063 0l-2.469 2.481c-0.294 0.294-0.294 0.769 0 1.063l4.069 4.069-4.069 4.069c-0.294 0.294-0.294 0.769 0 1.063l2.475 2.475c0.294 0.294 0.769 0.294 1.063 0l4.069-4.069 4.069 4.069c0.294 0.294 0.769 0.294 1.063 0l2.462-2.488z"></path>
</svg>
