<!-- Generated by IcoMoon.io -->
<svg version="1.1" xmlns="http://www.w3.org/2000/svg" width="20" height="32" viewBox="0 0 20 32">
<title>times</title>
<path d="M12.121 16l7.732-7.732c0.195-0.195 0.195-0.512 0-0.707l-1.414-1.414c-0.195-0.195-0.512-0.195-0.707 0l-7.732 7.732-7.732-7.732c-0.195-0.195-0.512-0.195-0.707 0l-1.415 1.414c-0.195 0.195-0.195 0.512 0 0.707l7.732 7.732-7.732 7.732c-0.195 0.195-0.195 0.512 0 0.707l1.414 1.414c0.195 0.195 0.512 0.195 0.707 0l7.732-7.732 7.732 7.732c0.195 0.195 0.512 0.195 0.707 0l1.414-1.414c0.195-0.195 0.195-0.512 0-0.707l-7.732-7.732z"></path>
</svg>
