<!-- Generated by IcoMoon.io -->
<svg version="1.1" xmlns="http://www.w3.org/2000/svg" width="28" height="32" viewBox="0 0 28 32">
<title>times-square-solid</title>
<path d="M25 2h-22c-1.656 0-3 1.344-3 3v22c0 1.656 1.344 3 3 3h22c1.656 0 3-1.344 3-3v-22c0-1.656-1.344-3-3-3zM21.6 20.069c0.294 0.294 0.294 0.769 0 1.063l-2.475 2.469c-0.294 0.294-0.769 0.294-1.063 0l-4.063-4.1-4.069 4.1c-0.294 0.294-0.769 0.294-1.063 0l-2.469-2.475c-0.294-0.294-0.294-0.769 0-1.063l4.1-4.063-4.1-4.069c-0.294-0.294-0.294-0.769 0-1.063l2.475-2.475c0.294-0.294 0.769-0.294 1.063 0l4.063 4.106 4.069-4.1c0.294-0.294 0.769-0.294 1.063 0l2.475 2.475c0.294 0.294 0.294 0.769 0 1.063l-4.106 4.063 4.1 4.069z"></path>
</svg>
