<!-- Generated by IcoMoon.io -->
<svg version="1.1" xmlns="http://www.w3.org/2000/svg" width="32" height="32" viewBox="0 0 32 32">
<title>times-octagon</title>
<path d="M22.594 0.881c-0.563-0.563-1.325-0.881-2.119-0.881h-8.944c-0.794 0-1.556 0.319-2.119 0.881l-8.531 8.525c-0.563 0.563-0.881 1.325-0.881 2.119v8.944c0 0.794 0.319 1.556 0.881 2.119l8.531 8.531c0.563 0.563 1.325 0.881 2.119 0.881h8.944c0.794 0 1.556-0.319 2.119-0.881l8.531-8.531c0.563-0.563 0.881-1.325 0.881-2.119v-8.938c0-0.794-0.319-1.556-0.881-2.119l-8.531-8.531zM30 20.469c0 0.269-0.106 0.519-0.294 0.706l-8.525 8.531c-0.188 0.188-0.438 0.294-0.706 0.294h-8.944c-0.269 0-0.519-0.106-0.706-0.294l-8.531-8.525c-0.188-0.188-0.294-0.438-0.294-0.706v-8.944c0-0.269 0.106-0.519 0.294-0.706l8.525-8.531c0.188-0.188 0.438-0.294 0.706-0.294h8.944c0.269 0 0.519 0.106 0.706 0.294l8.531 8.531c0.188 0.188 0.294 0.438 0.294 0.706v8.938zM21.925 21.394l-0.531 0.531c-0.294 0.294-0.769 0.294-1.063 0l-4.331-4.331-4.331 4.331c-0.294 0.294-0.769 0.294-1.063 0l-0.531-0.531c-0.294-0.294-0.294-0.769 0-1.063l4.331-4.331-4.331-4.331c-0.294-0.294-0.294-0.769 0-1.063l0.531-0.531c0.294-0.294 0.769-0.294 1.063 0l4.331 4.331 4.331-4.331c0.294-0.294 0.769-0.294 1.063 0l0.531 0.531c0.294 0.294 0.294 0.769 0 1.063l-4.331 4.331 4.331 4.331c0.288 0.294 0.288 0.769 0 1.063z"></path>
</svg>
