<!-- Generated by IcoMoon.io -->
<svg version="1.1" xmlns="http://www.w3.org/2000/svg" width="28" height="32" viewBox="0 0 28 32">
<title>times-square</title>
<path d="M25 2h-22c-1.656 0-3 1.344-3 3v22c0 1.656 1.344 3 3 3h22c1.656 0 3-1.344 3-3v-22c0-1.656-1.344-3-3-3zM26 27c0 0.55-0.45 1-1 1h-22c-0.55 0-1-0.45-1-1v-22c0-0.55 0.45-1 1-1h22c0.55 0 1 0.45 1 1v22zM19.925 11.669l-4.331 4.331 4.331 4.331c0.294 0.294 0.294 0.769 0 1.063l-0.531 0.531c-0.294 0.294-0.769 0.294-1.063 0l-4.331-4.331-4.331 4.331c-0.294 0.294-0.769 0.294-1.063 0l-0.531-0.531c-0.294-0.294-0.294-0.769 0-1.063l4.331-4.331-4.331-4.331c-0.294-0.294-0.294-0.769 0-1.063l0.531-0.531c0.294-0.294 0.769-0.294 1.063 0l4.331 4.331 4.331-4.331c0.294-0.294 0.769-0.294 1.063 0l0.531 0.531c0.288 0.294 0.288 0.769 0 1.063z"></path>
</svg>
