<!-- Generated by IcoMoon.io -->
<svg version="1.1" xmlns="http://www.w3.org/2000/svg" width="36" height="32" viewBox="0 0 36 32">
<title>times-hexagon</title>
<path d="M27.594 2.487c-0.538-0.919-1.525-1.488-2.594-1.488h-14c-1.069 0-2.056 0.569-2.594 1.488l-7 12c-0.544 0.931-0.544 2.087 0 3.025l7 12c0.537 0.919 1.525 1.488 2.594 1.488h14c1.069 0 2.056-0.569 2.594-1.488l7-12c0.544-0.931 0.544-2.088 0-3.025l-7-12zM32.862 16.506l-7 12c-0.181 0.306-0.512 0.494-0.863 0.494h-14c-0.356 0-0.688-0.188-0.863-0.494l-7-12c-0.181-0.313-0.181-0.7 0-1.006l7-12c0.175-0.313 0.506-0.5 0.863-0.5h14c0.356 0 0.688 0.188 0.863 0.494l7 12c0.181 0.313 0.181 0.7 0 1.012zM23.925 21.394l-0.531 0.531c-0.294 0.294-0.769 0.294-1.063 0l-4.331-4.331-4.331 4.331c-0.294 0.294-0.769 0.294-1.063 0l-0.531-0.531c-0.294-0.294-0.294-0.769 0-1.063l4.331-4.331-4.331-4.331c-0.294-0.294-0.294-0.769 0-1.063l0.531-0.531c0.294-0.294 0.769-0.294 1.063 0l4.331 4.331 4.331-4.331c0.294-0.294 0.769-0.294 1.063 0l0.531 0.531c0.294 0.294 0.294 0.769 0 1.063l-4.331 4.331 4.331 4.331c0.288 0.294 0.288 0.769 0 1.063z"></path>
</svg>
