<!-- Generated by IcoMoon.io -->
<svg version="1.1" xmlns="http://www.w3.org/2000/svg" width="32" height="32" viewBox="0 0 32 32">
<title>times-circle</title>
<path d="M16 0.5c-8.563 0-15.5 6.938-15.5 15.5s6.938 15.5 15.5 15.5 15.5-6.938 15.5-15.5-6.938-15.5-15.5-15.5zM16 29.5c-7.419 0-13.5-6.006-13.5-13.5 0-7.419 6.006-13.5 13.5-13.5 7.419 0 13.5 6.006 13.5 13.5 0 7.419-6.006 13.5-13.5 13.5zM21.925 11.669l-4.331 4.331 4.331 4.331c0.294 0.294 0.294 0.769 0 1.063l-0.531 0.531c-0.294 0.294-0.769 0.294-1.063 0l-4.331-4.331-4.331 4.331c-0.294 0.294-0.769 0.294-1.063 0l-0.531-0.531c-0.294-0.294-0.294-0.769 0-1.063l4.331-4.331-4.331-4.331c-0.294-0.294-0.294-0.769 0-1.063l0.531-0.531c0.294-0.294 0.769-0.294 1.063 0l4.331 4.331 4.331-4.331c0.294-0.294 0.769-0.294 1.063 0l0.531 0.531c0.288 0.294 0.288 0.769 0 1.063z"></path>
</svg>
