<!-- Generated by IcoMoon.io -->
<svg version="1.1" xmlns="http://www.w3.org/2000/svg" width="40" height="32" viewBox="0 0 40 32">
<title>tint-slash</title>
<path d="M20 30c-4.963 0-9-4.094-9-9.131 0-2.087 0.694-3.719 1.775-5.469l-1.581-1.25c-1.281 2.044-2.194 4.069-2.194 6.712 0 6.15 4.919 11.131 11 11.131 3.469 0 6.556-1.625 8.569-4.156l-1.606-1.262c-1.65 2.075-4.137 3.425-6.963 3.425zM20 2.256c1.488 4.844 3.756 8.081 5.581 10.694 1.15 1.65 2.106 3.031 2.719 4.494l2.613 2.056c-0.75-6-6.35-8.887-9.081-18.119-0.256-0.912-1.044-1.381-1.831-1.381-0.775 0-1.544 0.45-1.825 1.381-0.706 2.388-1.613 4.35-2.575 6.063l1.587 1.25c1.031-1.806 2.031-3.9 2.813-6.438zM39.813 30.325l-38.375-30.212c-0.212-0.175-0.531-0.144-0.7 0.075l-0.625 0.781c-0.175 0.219-0.138 0.531 0.075 0.7l38.375 30.219c0.212 0.175 0.531 0.137 0.7-0.075l0.625-0.781c0.175-0.219 0.144-0.531-0.075-0.706z"></path>
</svg>
