<!-- Generated by IcoMoon.io -->
<svg version="1.1" xmlns="http://www.w3.org/2000/svg" width="40" height="32" viewBox="0 0 40 32">
<title>tint-slash-solid</title>
<path d="M39.614 28.631l-8.678-6.707c0.032-0.348 0.064-0.698 0.064-1.054 0-6.985-6.237-9.584-9.174-19.489-0.496-1.799-3.090-1.883-3.652 0-0.97 3.271-2.304 5.747-3.656 7.855l-11.676-9.025c-0.436-0.339-1.065-0.261-1.404 0.176l-1.228 1.579c-0.339 0.436-0.261 1.064 0.176 1.403l36.773 28.421c0.436 0.339 1.064 0.261 1.404-0.176l1.227-1.579c0.338-0.436 0.26-1.064-0.176-1.403zM9 20.869c0 6.152 4.92 11.131 11 11.131 2.794 0 5.336-1.060 7.275-2.794l-17.105-13.22c-0.713 1.469-1.17 3.022-1.17 4.883z"></path>
</svg>
