<!-- Generated by IcoMoon.io -->
<svg version="1.1" xmlns="http://www.w3.org/2000/svg" width="22" height="32" viewBox="0 0 22 32">
<title>tint</title>
<path d="M12.826 1.381c-0.251-0.91-1.038-1.381-1.828-1.381-0.772 0-1.546 0.45-1.824 1.381-2.923 9.86-9.174 12.539-9.174 19.489 0 6.152 4.92 11.131 11 11.131s11-4.978 11-11.131c0-6.984-6.237-9.584-9.174-19.489zM11 30c-4.963 0-9-4.096-9-9.131 0-3.023 1.438-5.082 3.428-7.934 1.824-2.613 4.084-5.852 5.574-10.682 1.489 4.845 3.754 8.082 5.581 10.693 1.984 2.836 3.418 4.885 3.418 7.923 0 5.034-4.037 9.131-9 9.131zM11 26c-2.758 0-5-2.243-5-5 0-0.552-0.447-1-1-1s-1 0.448-1 1c0 3.859 3.141 7 7 7 0.553 0 1-0.448 1-1s-0.447-1-1-1z"></path>
</svg>
