<!-- Generated by IcoMoon.io -->
<svg version="1.1" xmlns="http://www.w3.org/2000/svg" width="31" height="32" viewBox="0 0 31 32">
<title>tired-solid</title>
<path d="M15.5 0.5c-8.563 0-15.5 6.938-15.5 15.5s6.938 15.5 15.5 15.5 15.5-6.938 15.5-15.5-6.938-15.5-15.5-15.5zM17.613 12.356l5-3c0.725-0.431 1.5 0.481 0.962 1.125l-2.1 2.519 2.1 2.519c0.544 0.65-0.244 1.55-0.962 1.125l-5-3c-0.481-0.294-0.481-0.994 0-1.287zM7.425 10.481c-0.537-0.644 0.237-1.556 0.962-1.125l5 3c0.488 0.294 0.488 0.994 0 1.287l-5 3c-0.719 0.425-1.5-0.475-0.963-1.125l2.1-2.519-2.1-2.519zM15.5 18c3.244 0 7.206 2.738 7.7 6.669 0.106 0.85-0.5 1.538-1.106 1.275-1.619-0.694-4.025-1.087-6.594-1.087s-4.975 0.394-6.594 1.087c-0.613 0.262-1.213-0.438-1.106-1.275 0.494-3.931 4.456-6.669 7.7-6.669z"></path>
</svg>
