<!-- Generated by IcoMoon.io -->
<svg version="1.1" xmlns="http://www.w3.org/2000/svg" width="31" height="32" viewBox="0 0 31 32">
<title>tired</title>
<path d="M15.5 0.5c-8.563 0-15.5 6.938-15.5 15.5s6.938 15.5 15.5 15.5 15.5-6.938 15.5-15.5-6.938-15.5-15.5-15.5zM15.5 29.5c-7.444 0-13.5-6.056-13.5-13.5s6.056-13.5 13.5-13.5 13.5 6.056 13.5 13.5-6.056 13.5-13.5 13.5zM22.613 9.356l-5 3c-0.488 0.294-0.488 0.994 0 1.287l5 3c0.725 0.431 1.5-0.481 0.962-1.125l-2.1-2.519 2.1-2.519c0.538-0.644-0.238-1.55-0.962-1.125zM8.387 16.644l5-3c0.488-0.294 0.488-0.994 0-1.287l-5-3c-0.725-0.431-1.5 0.481-0.963 1.125l2.1 2.519-2.1 2.519c-0.537 0.644 0.237 1.556 0.963 1.125zM15.5 17c-3.244 0-7.206 2.738-7.7 6.669-0.050 0.394 0.056 0.794 0.288 1.056 0.037 0.044 0.363 0.419 0.825 0.225 1.619-0.694 4.025-1.087 6.594-1.087s4.975 0.394 6.594 1.087c0.344 0.15 0.656-0.031 0.825-0.225 0.225-0.262 0.331-0.663 0.288-1.056-0.506-3.931-4.469-6.669-7.713-6.669zM15.5 21.856c-1.912 0-3.719 0.2-5.269 0.569 0.988-2.031 3.313-3.425 5.269-3.425s4.281 1.394 5.269 3.425c-1.55-0.369-3.35-0.569-5.269-0.569z"></path>
</svg>
