<!-- Generated by IcoMoon.io -->
<svg version="1.1" xmlns="http://www.w3.org/2000/svg" width="32" height="32" viewBox="0 0 32 32">
<title>tire-flat</title>
<path d="M16 8c-5.523 0-10 4.477-10 10s4.477 10 10 10 10-4.477 10-10-4.477-10-10-10zM16 10c1.396 0 2.69 0.391 3.834 1.023l-2.348 3.232c-0.461-0.183-0.959-0.291-1.486-0.291s-1.024 0.107-1.486 0.291l-2.348-3.232c1.144-0.631 2.438-1.023 3.834-1.023zM8 18c0-2.296 0.986-4.354 2.54-5.814l2.364 3.254c-0.578 0.699-0.94 1.583-0.94 2.561 0 0.086 0.020 0.167 0.026 0.252l-3.838 1.247c-0.093-0.487-0.152-0.986-0.152-1.499zM15 25.899c-2.759-0.357-5.049-2.078-6.195-4.455l-0.021-0.048 3.814-1.239c0.543 0.854 1.395 1.482 2.401 1.74v4.003zM14 17.999c0-1.104 0.896-2 2-2s2 0.896 2 2-0.896 2-2 2-2-0.895-2-2zM17 25.899v-4.003c1.006-0.258 1.859-0.886 2.401-1.74l3.814 1.239c-1.166 2.425-3.456 4.147-6.176 4.499l-0.040 0.004zM20.011 18.252c0.006-0.085 0.026-0.166 0.026-0.252 0-0.977-0.362-1.862-0.94-2.561l2.364-3.254c1.554 1.46 2.54 3.518 2.54 5.814 0 0.513-0.059 1.012-0.151 1.498l-3.838-1.246zM29.797 26.108c1.437-2.431 2.203-5.208 2.203-8.108 0-8.822-7.178-16-16-16s-16 7.178-16 16c0 2.899 0.766 5.677 2.203 8.108-1.268 0.35-2.203 1.514-2.203 2.892 0 1.654 1.346 3 3 3h26c1.654 0 3-1.346 3-3 0-1.378-0.934-2.543-2.203-2.892zM29 30h-26c-0.553 0-1-0.448-1-1s0.447-1 1-1h3c0.553 0 1-0.448 1-1s-0.447-1-1-1h-1.478c-1.586-2.267-2.522-5.023-2.522-8 0-7.732 6.268-14 14-14s14 6.268 14 14c0 2.977-0.936 5.733-2.522 8h-1.478c-0.552 0-1 0.448-1 1s0.448 1 1 1h3c0.552 0 1 0.448 1 1s-0.448 1-1 1z"></path>
</svg>
