<!-- Generated by IcoMoon.io -->
<svg version="1.1" xmlns="http://www.w3.org/2000/svg" width="32" height="32" viewBox="0 0 32 32">
<title>tire-pressure-warning</title>
<path d="M16 18.501c-0.829 0-1.5 0.671-1.5 1.5s0.671 1.5 1.5 1.5 1.5-0.672 1.5-1.5c0-0.829-0.671-1.5-1.5-1.5zM15.503 17.001h0.994c0.429 0 0.788-0.325 0.831-0.752l0.668-9.331c0.049-0.492-0.337-0.918-0.831-0.918h-2.33c-0.494 0-0.88 0.426-0.831 0.918l0.668 9.331c0.043 0.426 0.402 0.752 0.831 0.752zM29.469 8.307c-0.691-1.143-1.055-2.362-1.055-3.527v-2.28c0-1.379-1.121-2.5-2.5-2.5h-1c-1.379 0-2.5 1.121-2.5 2.5v2.28c0 2.255 0.662 4.545 1.914 6.623 1.094 1.816 1.672 3.901 1.672 6.030 0 2.384-0.776 4.289-2.593 6.371-0.108 0.124-0.271 0.195-0.446 0.195h-13.922c-0.176 0-0.338-0.071-0.446-0.195-1.817-2.081-2.592-3.987-2.592-6.371 0-2.129 0.578-4.214 1.672-6.029 1.252-2.079 1.914-4.37 1.914-6.624v-2.28c0-1.379-1.121-2.5-2.5-2.5h-1c-1.379 0-2.5 1.121-2.5 2.5v2.28c0 1.164-0.364 2.384-1.054 3.526-1.656 2.749-2.531 5.905-2.531 9.127 0 3.855 1.294 7.133 4.071 10.316 0.28 0.321 0.597 0.601 0.929 0.858v2.892c0 0.276 0.224 0.5 0.5 0.5h1c0.276 0 0.5-0.224 0.5-0.5v-1.859c0.643 0.209 1.309 0.351 2 0.356v1.504c0 0.276 0.224 0.5 0.5 0.5h1c0.276 0 0.5-0.224 0.5-0.5v-1.5h2v1.5c0 0.276 0.224 0.5 0.5 0.5h1c0.276 0 0.5-0.224 0.5-0.5v-1.5h2v1.5c0 0.276 0.224 0.5 0.5 0.5h1c0.276 0 0.5-0.224 0.5-0.5v-1.5h2v1.5c0 0.276 0.224 0.5 0.5 0.5h1c0.276 0 0.5-0.224 0.5-0.5v-1.504c0.691-0.004 1.358-0.146 2-0.356v1.86c0 0.276 0.224 0.5 0.5 0.5h1c0.276 0 0.5-0.224 0.5-0.5v-2.892c0.332-0.258 0.649-0.538 0.93-0.859 2.776-3.182 4.070-6.459 4.070-10.314 0-3.222-0.875-6.378-2.531-9.127zM26.422 26.434c-0.867 0.996-2.129 1.566-3.461 1.566h-13.922c-1.332 0-2.594-0.57-3.461-1.566-2.441-2.797-3.578-5.658-3.578-9.001 0-2.857 0.776-5.656 2.244-8.094 0.879-1.456 1.342-3.033 1.342-4.559v-2.281c0-0.276 0.224-0.5 0.5-0.5h1c0.276 0 0.5 0.224 0.5 0.5v2.28c0 1.891-0.563 3.824-1.627 5.592-1.282 2.126-1.959 4.569-1.959 7.062 0 2.87 0.951 5.241 3.086 7.686 0.488 0.559 1.199 0.88 1.953 0.88h13.922c0.754 0 1.465-0.32 1.953-0.88 2.134-2.445 3.086-4.816 3.086-7.686 0-2.493-0.677-4.936-1.959-7.063-1.064-1.767-1.627-3.7-1.627-5.591v-2.281c0-0.276 0.224-0.5 0.5-0.5h1c0.276 0 0.5 0.224 0.5 0.5v2.28c0 1.526 0.463 3.104 1.342 4.559 1.469 2.439 2.244 5.237 2.244 8.095-0.001 3.343-1.137 6.203-3.579 9.001z"></path>
</svg>
