<!-- Generated by IcoMoon.io -->
<svg version="1.1" xmlns="http://www.w3.org/2000/svg" width="32" height="32" viewBox="0 0 32 32">
<title>tire-pressure-warning-solid</title>
<path d="M29.656 8.846c-1.011-1.768-1.656-3.808-1.656-5.966v-1.809c0-0.592-0.448-1.071-1-1.071h-2c-0.552 0-1 0.448-1 1v3c0 2 0.952 4.678 2.184 6.832 1.188 2.078 1.816 4.472 1.816 6.923 0 2.571-0.797 5.156-2.238 7.383-0.358 0.553-0.997 0.862-1.655 0.862h-16.214c-0.658 0-1.298-0.309-1.655-0.862-1.441-2.227-2.237-4.813-2.237-7.383 0-2.451 0.628-4.846 1.816-6.923 1.231-2.154 2.183-4.832 2.183-6.832v-3c0-0.552-0.447-1-1-1h-2c-0.553 0-1 0.479-1 1.071v1.809c0 2.158-0.646 4.198-1.656 5.966-1.484 2.594-2.344 5.641-2.344 8.908 0 4.801 2.034 9.134 5 12.245v1c0 0.552 0.447 1 1 1h2c0.553 0 1-0.448 1-1v-1h2v1c0 0.552 0.447 1 1 1h2c0.553 0 1-0.448 1-1v-1h2v1c0 0.552 0.448 1 1 1h2c0.552 0 1-0.448 1-1v-1h2v1c0 0.552 0.448 1 1 1h2c0.552 0 1-0.448 1-1v-1c2.966-3.111 5-7.444 5-12.245 0-3.267-0.86-6.314-2.344-8.909zM15.405 16h1.19c0.514 0 0.944-0.389 0.995-0.901l0.8-8c0.059-0.589-0.403-1.099-0.995-1.099h-2.79c-0.592 0-1.054 0.511-0.995 1.099l0.8 8c0.051 0.511 0.481 0.901 0.995 0.901zM16 18c-1.104 0-2 0.896-2 2s0.896 2 2 2 2-0.896 2-2-0.896-2-2-2z"></path>
</svg>
