<!-- Generated by IcoMoon.io -->
<svg version="1.1" xmlns="http://www.w3.org/2000/svg" width="32" height="32" viewBox="0 0 32 32">
<title>tire-rugged-solid</title>
<path d="M30 12h-0.587c-0.277-0.93-0.642-1.822-1.096-2.66l0.411-0.411c0.781-0.781 0.781-2.047 0-2.829l-2.828-2.828c-0.781-0.781-2.047-0.781-2.829 0l-0.411 0.411c-0.838-0.454-1.73-0.819-2.66-1.096v-0.587c0-1.104-0.896-2-2-2h-4c-1.104 0-2 0.896-2 2v0.587c-0.93 0.277-1.822 0.642-2.66 1.096l-0.411-0.411c-0.781-0.781-2.047-0.781-2.829 0l-2.828 2.829c-0.781 0.781-0.781 2.047 0 2.829l0.411 0.411c-0.454 0.838-0.819 1.73-1.096 2.66h-0.587c-1.104 0-2 0.896-2 2v4c0 1.104 0.896 2 2 2h0.587c0.277 0.93 0.642 1.822 1.096 2.66l-0.411 0.411c-0.781 0.781-0.781 2.047 0 2.828l2.828 2.829c0.781 0.781 2.047 0.781 2.829 0l0.411-0.411c0.838 0.454 1.73 0.819 2.66 1.096v0.587c0 1.104 0.896 2 2 2h4c1.104 0 2-0.896 2-2v-0.587c0.93-0.277 1.822-0.642 2.66-1.096l0.411 0.411c0.781 0.781 2.047 0.781 2.829 0l2.828-2.829c0.781-0.781 0.781-2.047 0-2.828l-0.411-0.411c0.454-0.838 0.819-1.73 1.096-2.66h0.587c1.104 0 2-0.896 2-2v-4c0-1.105-0.896-2.001-2-2.001zM16 23.999c-4.418 0-8-3.582-8-8s3.582-8 8-8 8 3.582 8 8c0 4.419-3.582 8-8 8zM16 10c-0.828 0-1.5 0.671-1.5 1.5s0.672 1.5 1.5 1.5 1.5-0.672 1.5-1.5c0-0.829-0.672-1.5-1.5-1.5zM16 19c-0.828 0-1.5 0.671-1.5 1.5s0.672 1.5 1.5 1.5 1.5-0.672 1.5-1.5c0-0.829-0.672-1.5-1.5-1.5zM20.5 14.5c-0.828 0-1.5 0.671-1.5 1.5s0.672 1.5 1.5 1.5 1.5-0.672 1.5-1.5c0-0.829-0.672-1.5-1.5-1.5zM11.5 14.5c-0.828 0-1.5 0.671-1.5 1.5s0.672 1.5 1.5 1.5 1.5-0.672 1.5-1.5c0-0.829-0.672-1.5-1.5-1.5z"></path>
</svg>
