<!-- Generated by IcoMoon.io -->
<svg version="1.1" xmlns="http://www.w3.org/2000/svg" width="32" height="32" viewBox="0 0 32 32">
<title>tire-rugged</title>
<path d="M29.195 10.621c-0.020-0.049-0.040-0.098-0.061-0.148 0.843-1.437 0.648-3.318-0.583-4.549l-2.475-2.475c-0.708-0.708-1.65-1.098-2.652-1.098-0.679 0-1.329 0.179-1.899 0.514-0.049-0.020-0.097-0.040-0.146-0.060-0.42-1.612-1.887-2.805-3.629-2.805h-3.5c-1.742 0-3.209 1.193-3.629 2.805-0.049 0.020-0.098 0.040-0.146 0.060-0.569-0.336-1.221-0.514-1.899-0.514-1.002 0-1.944 0.39-2.652 1.099l-2.475 2.474c-1.231 1.231-1.426 3.113-0.583 4.549-0.021 0.049-0.041 0.098-0.061 0.148-1.612 0.42-2.805 1.887-2.805 3.629v3.5c0 1.741 1.193 3.209 2.805 3.629 0.020 0.049 0.040 0.098 0.061 0.148-0.842 1.437-0.648 3.318 0.583 4.549l2.475 2.475c0.708 0.708 1.65 1.098 2.652 1.098 0.679 0 1.329-0.179 1.899-0.514 0.049 0.020 0.097 0.040 0.146 0.060 0.42 1.612 1.887 2.805 3.629 2.805h3.5c1.742 0 3.209-1.193 3.629-2.805l0.146-0.060c0.569 0.336 1.221 0.514 1.899 0.514 1.002 0 1.943-0.39 2.652-1.098l2.475-2.475c1.231-1.231 1.426-3.113 0.583-4.549 0.021-0.049 0.041-0.098 0.061-0.148 1.612-0.42 2.805-1.888 2.805-3.629v-3.5c0-1.742-1.193-3.209-2.805-3.629zM30 17.75c0 0.966-0.784 1.75-1.75 1.75h-0.514c-0.242 0.814-0.561 1.594-0.959 2.328l0.36 0.36c0.683 0.683 0.683 1.791 0 2.475l-2.475 2.475c-0.342 0.342-0.789 0.512-1.238 0.512s-0.896-0.171-1.238-0.512l-0.36-0.36c-0.733 0.398-1.514 0.716-2.328 0.959v0.514c0 0.966-0.784 1.75-1.75 1.75h-3.5c-0.966 0-1.75-0.784-1.75-1.75v-0.514c-0.814-0.242-1.594-0.561-2.328-0.959l-0.36 0.36c-0.342 0.342-0.789 0.512-1.238 0.512s-0.896-0.171-1.237-0.512l-2.475-2.475c-0.683-0.683-0.683-1.791 0-2.475l0.36-0.36c-0.397-0.733-0.716-1.514-0.959-2.328h-0.514c-0.966 0-1.75-0.784-1.75-1.75v-3.5c0-0.966 0.784-1.75 1.75-1.75h0.514c0.242-0.814 0.561-1.594 0.959-2.328l-0.36-0.36c-0.683-0.684-0.683-1.792 0-2.475l2.475-2.475c0.342-0.342 0.789-0.513 1.238-0.513s0.896 0.171 1.238 0.513l0.36 0.36c0.733-0.397 1.514-0.716 2.328-0.959v-0.514c0-0.966 0.784-1.75 1.75-1.75h3.5c0.966 0 1.75 0.784 1.75 1.75v0.514c0.814 0.242 1.594 0.561 2.328 0.959l0.36-0.36c0.342-0.342 0.789-0.513 1.238-0.513s0.896 0.171 1.238 0.513l2.475 2.475c0.683 0.683 0.683 1.791 0 2.475l-0.36 0.36c0.398 0.733 0.716 1.514 0.959 2.328h0.514c0.966 0 1.75 0.784 1.75 1.75v3.5zM16 5.999c-5.523 0-10 4.477-10 10s4.477 10 10 10 10-4.477 10-10-4.477-10-10-10zM16 23.999c-4.411 0-8-3.589-8-8s3.589-8 8-8 8 3.589 8 8-3.589 8-8 8zM16 10c-0.828 0-1.5 0.671-1.5 1.5s0.672 1.5 1.5 1.5 1.5-0.672 1.5-1.5c0-0.829-0.672-1.5-1.5-1.5zM16 18.999c-0.828 0-1.5 0.671-1.5 1.5s0.672 1.5 1.5 1.5 1.5-0.672 1.5-1.5-0.672-1.5-1.5-1.5zM20.5 14.5c-0.828 0-1.5 0.671-1.5 1.5s0.672 1.5 1.5 1.5 1.5-0.672 1.5-1.5c0-0.829-0.672-1.5-1.5-1.5zM11.5 14.5c-0.828 0-1.5 0.671-1.5 1.5s0.672 1.5 1.5 1.5 1.5-0.672 1.5-1.5c0-0.829-0.672-1.5-1.5-1.5z"></path>
</svg>
