<!-- Generated by IcoMoon.io -->
<svg version="1.1" xmlns="http://www.w3.org/2000/svg" width="32" height="32" viewBox="0 0 32 32">
<title>tire-flat-solid</title>
<path d="M16 10c-1.657 0-3.196 0.441-4.572 1.155l2.996 4.123c0.498-0.166 1.022-0.278 1.576-0.278s1.078 0.112 1.576 0.278l2.996-4.123c-1.376-0.714-2.915-1.155-4.572-1.155zM6 20c0 0.554 0.076 1.089 0.163 1.618l4.841-1.573c0-0.016-0.004-0.030-0.004-0.046 0-1.114 0.377-2.133 0.992-2.963l-3.014-4.149c-1.836 1.814-2.978 4.328-2.978 7.113zM20.008 17.037c0.616 0.831 0.992 1.849 0.992 2.963 0 0.016-0.004 0.030-0.004 0.046l4.841 1.573c0.087-0.53 0.163-1.064 0.163-1.618 0-2.784-1.142-5.299-2.978-7.112l-3.014 4.148zM16 18c-1.104 0-2 0.896-2 2s0.896 2 2 2 2-0.896 2-2-0.896-2-2-2zM30 28h-0.163c1.369-2.352 2.163-5.081 2.163-8 0-8.836-7.164-16-16-16s-16 7.164-16 16c0 2.919 0.794 5.648 2.163 8h-0.163c-1.104 0-2 0.896-2 2s0.896 2 2 2h28c1.104 0 2-0.896 2-2s-0.896-2-2-2zM24.919 28h-2.987c1.242-0.93 2.244-2.111 2.943-3.474l0.026-0.056-4.839-1.572c-0.622 0.871-1.519 1.518-2.563 1.848v3.254h-3v-3.254c-1.043-0.33-1.94-0.977-2.563-1.848l-4.839 1.572c0.725 1.419 1.727 2.601 2.943 3.512l0.026 0.019h-2.987c-1.909-2.126-3.081-4.925-3.081-8 0-6.617 5.383-12 12-12s12 5.383 12 12c0 3.075-1.172 5.874-3.081 8z"></path>
</svg>
