<!-- Generated by IcoMoon.io -->
<svg version="1.1" xmlns="http://www.w3.org/2000/svg" width="32" height="32" viewBox="0 0 32 32">
<title>tire-solid</title>
<path d="M16 0c-8.836 0-16 7.164-16 16s7.164 16 16 16 16-7.164 16-16-7.164-16-16-16zM16 28c-6.617 0-12-5.383-12-12s5.383-12 12-12 12 5.383 12 12-5.383 12-12 12zM11 16c0-1.114 0.377-2.133 0.992-2.963l-3.014-4.149c-1.836 1.813-2.978 4.327-2.978 7.112 0 0.554 0.076 1.089 0.163 1.618l4.841-1.573c0-0.015-0.004-0.029-0.004-0.045zM11.938 18.898l-4.839 1.572c1.429 2.837 4.145 4.886 7.401 5.379v-5.103c-1.043-0.33-1.94-0.977-2.563-1.848zM16 11c0.554 0 1.078 0.112 1.576 0.278l2.996-4.123c-1.376-0.714-2.915-1.155-4.572-1.155s-3.196 0.441-4.572 1.155l2.996 4.123c0.498-0.166 1.022-0.278 1.576-0.278zM23.022 8.888l-3.014 4.149c0.616 0.831 0.992 1.849 0.992 2.963 0 0.016-0.004 0.030-0.004 0.046l4.841 1.573c0.087-0.53 0.163-1.064 0.163-1.618 0-2.785-1.142-5.299-2.978-7.113zM17.5 20.746v5.103c3.256-0.494 5.972-2.542 7.401-5.379l-4.839-1.572c-0.622 0.871-1.519 1.518-2.563 1.848zM16 14c-1.104 0-2 0.896-2 2s0.896 2 2 2 2-0.896 2-2-0.896-2-2-2z"></path>
</svg>
