<!-- Generated by IcoMoon.io -->
<svg version="1.1" xmlns="http://www.w3.org/2000/svg" width="36" height="32" viewBox="0 0 36 32">
<title>toggle-off</title>
<path d="M24 6c2.671 0 5.182 1.040 7.071 2.929s2.929 4.4 2.929 7.071-1.040 5.182-2.929 7.071-4.4 2.929-7.071 2.929h-12c-2.671 0-5.182-1.040-7.071-2.929s-2.929-4.4-2.929-7.071 1.040-5.182 2.929-7.071 4.4-2.929 7.071-2.929h12zM24 4h-12c-6.627 0-12 5.373-12 12s5.373 12 12 12h12c6.627 0 12-5.373 12-12s-5.373-12-12-12zM12 10c3.308 0 6 2.692 6 6s-2.692 6-6 6-6-2.692-6-6 2.692-6 6-6zM12 8c-4.418 0-8 3.582-8 8s3.582 8 8 8 8-3.582 8-8-3.582-8-8-8z"></path>
</svg>
