<!-- Generated by IcoMoon.io -->
<svg version="1.1" xmlns="http://www.w3.org/2000/svg" width="40" height="32" viewBox="0 0 40 32">
<title>toilet-paper-slash-solid</title>
<path d="M4 12v10.758c0 2.57-0.609 3.922-1.945 7.929-0.032 0.093-0.050 0.201-0.050 0.313 0 0.551 0.445 0.997 0.995 1h17.554c0.002 0 0.005 0 0.007 0 0.877 0 1.621-0.566 1.887-1.353l0.004-0.014c0.582-1.739 1.125-3.334 1.386-5.347l-19.75-15.266c-0.056 0.646-0.089 1.304-0.089 1.979zM39.614 28.631l-6.375-4.926c2.716-1.148 4.761-5.935 4.761-11.705 0-6.625-2.688-12-6-12s-6 5.375-6 12c0 2.625 0.438 5.025 1.152 7l-3.152-2.438v-4.563c0-5.226 1.477-9.594 3.781-12h-17.781c-1.458 0-2.789 1.052-3.829 2.783l-3.33-2.572c-0.168-0.131-0.382-0.211-0.614-0.211-0.32 0-0.605 0.15-0.788 0.384l-0.002 0.002-1.227 1.579c-0.131 0.168-0.211 0.382-0.211 0.614 0 0.32 0.15 0.605 0.384 0.788l0.002 0.002 36.773 28.42c0.168 0.131 0.381 0.211 0.614 0.211 0.32 0 0.605-0.151 0.788-0.385l0.002-0.002 1.227-1.579c0.131-0.168 0.211-0.381 0.211-0.614 0-0.32-0.151-0.605-0.385-0.788l-0.002-0.002zM32 16c-1.102 0-2-1.789-2-4s0.898-4 2-4 2 1.789 2 4-0.899 4-2 4z"></path>
</svg>
