<!-- Generated by IcoMoon.io -->
<svg version="1.1" xmlns="http://www.w3.org/2000/svg" width="36" height="32" viewBox="0 0 36 32">
<title>toilet-paper-alt-solid</title>
<path d="M8 0c-3.314 0-6 5.372-6 12v10.754c0 2.57-0.613 3.923-1.948 7.929-0.216 0.648 0.266 1.316 0.949 1.316h17.558c0.861 0 1.625-0.551 1.898-1.367 0.802-2.405 1.544-4.525 1.544-7.878v-10.754c0-5.225 1.479-9.595 3.777-12h-17.777zM30 0c-3.314 0-6 5.372-6 12s2.686 12 6 12 6-5.372 6-12-2.686-12-6-12zM30 16c-1.104 0-2-1.791-2-4s0.896-4 2-4 2 1.791 2 4-0.896 4-2 4z"></path>
</svg>
