<!-- Generated by IcoMoon.io -->
<svg version="1.1" xmlns="http://www.w3.org/2000/svg" width="24" height="32" viewBox="0 0 24 32">
<title>toilet</title>
<path d="M23.5 2c0.275 0 0.5-0.225 0.5-0.5v-1c0-0.275-0.225-0.5-0.5-0.5h-23c-0.275 0-0.5 0.225-0.5 0.5v1c0 0.275 0.225 0.5 0.5 0.5h1.5v10.794c-1.262 0.631-2 1.387-2 2.206 0 4.2 2.163 7.887 5.425 10.031l-1.337 4.387c-0.394 1.281 0.569 2.581 1.912 2.581h12c1.344 0 2.306-1.3 1.913-2.581l-1.337-4.387c3.262-2.144 5.425-5.831 5.425-10.031 0-0.819-0.738-1.575-2-2.206v-10.794h1.5zM4 2h16v10.025c-2.125-0.637-4.925-1.025-8-1.025s-5.875 0.387-8 1.025v-10.025zM12 13c5.244 0 9.5 0.894 9.5 2s-4.256 2-9.5 2-9.5-0.894-9.5-2 4.256-2 9.5-2zM6 30l1.219-3.994c1.469 0.637 3.081 0.994 4.781 0.994s3.313-0.356 4.781-0.994l1.219 3.994h-12zM12 25c-4.7 0-8.631-3.269-9.694-7.65 2.181 1 5.706 1.65 9.694 1.65s7.512-0.65 9.694-1.65c-1.063 4.381-4.994 7.65-9.694 7.65zM9.5 4h-3c-0.275 0-0.5 0.225-0.5 0.5v1c0 0.275 0.225 0.5 0.5 0.5h3c0.275 0 0.5-0.225 0.5-0.5v-1c0-0.275-0.225-0.5-0.5-0.5z"></path>
</svg>
