<!-- Generated by IcoMoon.io -->
<svg version="1.1" xmlns="http://www.w3.org/2000/svg" width="36" height="32" viewBox="0 0 36 32">
<title>toilet-paper-alt</title>
<path d="M29 0h-20c-3.866 0-7 5.372-7 12v10.754c0 2.57-0.613 3.923-1.948 7.929-0.216 0.648 0.266 1.316 0.949 1.316h19.558c0.861 0 1.625-0.551 1.898-1.367 0.698-2.093 1.349-3.971 1.507-6.633h5.037c3.866 0 7-5.372 7-12s-3.134-12-7-12zM22 12v10.754c0 2.927-0.604 4.737-1.369 7.028l-0.073 0.218h-18.166c0.034-0.101 0.067-0.199 0.101-0.295 0.971-2.858 1.506-4.432 1.506-6.951v-10.754c0-5.893 2.635-10 5-10h16.134c-1.888 2.149-3.134 5.824-3.134 10zM29 22c-2.365 0-5-4.107-5-10s2.635-10 5-10 5 4.107 5 10-2.635 10-5 10zM29 9c-0.828 0-1.5 1.343-1.5 3s0.672 3 1.5 3c0.829 0 1.5-1.343 1.5-3s-0.671-3-1.5-3z"></path>
</svg>
