<!-- Generated by IcoMoon.io -->
<svg version="1.1" xmlns="http://www.w3.org/2000/svg" width="24" height="32" viewBox="0 0 24 32">
<title>toilet-solid</title>
<path d="M23 3c0.55 0 1-0.45 1-1v-1c0-0.55-0.45-1-1-1h-22c-0.55 0-1 0.45-1 1v1c0 0.55 0.45 1 1 1h1v9.794c-1.262 0.631-2 1.387-2 2.206 0 4.2 2.163 7.887 5.425 10.031l-1.337 4.387c-0.394 1.281 0.569 2.581 1.912 2.581h12c1.344 0 2.306-1.3 1.913-2.581l-1.337-4.387c3.262-2.144 5.425-5.831 5.425-10.031 0-0.819-0.738-1.575-2-2.206v-9.794h1zM5 4.5c0-0.275 0.225-0.5 0.5-0.5h3c0.275 0 0.5 0.225 0.5 0.5v1c0 0.275-0.225 0.5-0.5 0.5h-3c-0.275 0-0.5-0.225-0.5-0.5v-1zM12 17c-4.819 0-8.725-0.894-8.725-2s3.906-2 8.725-2 8.725 0.894 8.725 2-3.906 2-8.725 2z"></path>
</svg>
