<!-- Generated by IcoMoon.io -->
<svg version="1.1" xmlns="http://www.w3.org/2000/svg" width="40" height="32" viewBox="0 0 40 32">
<title>toilet-paper-slash</title>
<path d="M29.5 12c0 1.658 0.672 3 1.5 3s1.5-1.342 1.5-3-0.671-3-1.5-3-1.5 1.342-1.5 3zM11 2h16.134c-1.887 2.149-3.134 5.824-3.134 10v2.063l2.438 1.919c-0.278-1.181-0.438-2.536-0.438-3.929 0-0.019 0-0.037 0-0.056v0.003c0-5.894 2.635-10 5-10s5 4.106 5 10c0 4.281-1.395 7.595-3.063 9.101l1.589 1.25c2.076-2.081 3.473-5.932 3.473-10.351 0-6.625-3.134-12-7-12h-20c-1.147 0-2.226 0.482-3.181 1.32l1.625 1.278c0.511-0.369 1.039-0.598 1.556-0.598zM22.631 29.782l-0.072 0.218h-18.165c0.033-0.101 0.067-0.199 0.101-0.295 0.971-2.858 1.506-4.431 1.506-6.951v-10.754c0-0.643 0.044-1.255 0.103-1.852l-1.83-1.441c-0.173 0.99-0.272 2.13-0.273 3.293v10.754c0 2.571-0.612 3.924-1.948 7.93-0.033 0.094-0.051 0.203-0.051 0.316 0 0.552 0.447 1 0.999 1h19.559c0 0 0 0 0 0 0.878 0 1.624-0.566 1.893-1.353l0.004-0.014c0.544-1.633 1.051-3.146 1.327-4.989l-1.859-1.463c-0.165 2.123-0.664 3.716-1.294 5.601zM39.812 30.332l-38.374-30.22c-0.085-0.071-0.195-0.113-0.314-0.113-0.157 0-0.296 0.073-0.387 0.187l-0.001 0.001-0.625 0.781c-0.069 0.085-0.111 0.193-0.111 0.312 0 0.157 0.073 0.297 0.186 0.388l0.001 0.001 38.375 30.22c0.085 0.068 0.193 0.109 0.311 0.109 0.157 0 0.296-0.072 0.388-0.185l0.001-0.001 0.625-0.781c0.070-0.084 0.112-0.194 0.112-0.313 0-0.156-0.073-0.295-0.186-0.385l-0.001-0.001z"></path>
</svg>
