<!-- Generated by IcoMoon.io -->
<svg version="1.1" xmlns="http://www.w3.org/2000/svg" width="32" height="32" viewBox="0 0 32 32">
<title>tombstone</title>
<path d="M31 26h-3v-13.497c0-6.571-5.063-12.301-11.631-12.498-6.796-0.204-12.369 5.244-12.369 11.994v14h-3c-0.552 0-1 0.448-1 1v4c0 0.552 0.448 1 1 1h30c0.552 0 1-0.448 1-1v-4c0-0.552-0.448-1-1-1zM6 12c0-5.514 4.486-10 10-10s10 4.486 10 10v14h-20v-14zM29.997 30h-27.996l0.002-2h27.996l-0.003 2zM21.001 9h-2v-2c0-0.553-0.448-1-1-1h-4.001c-0.553 0-1 0.447-1 1v2h-2c-0.553 0-1 0.447-1 1v4c0 0.553 0.447 1 1 1h2v6c0 0.552 0.447 1 1 1h4.001c0.553 0 1-0.448 1-1v-6h2c0.553 0 1-0.447 1-1v-4c0-0.553-0.447-1-1-1zM20.001 13h-3.001v7h-2v-7h-3.001v-2h3.001v-3h2v3h3.001v2z"></path>
</svg>
