<!-- Generated by IcoMoon.io -->
<svg version="1.1" xmlns="http://www.w3.org/2000/svg" width="32" height="32" viewBox="0 0 32 32">
<title>tools</title>
<path d="M31.413 24.344l-7.775-7.781c-0.975-0.975-2.256-1.463-3.538-1.463-0.962 0-1.925 0.275-2.756 0.831l-5.344-5.344v-4.588l-8-6-4 4 6 8h4.588l5.344 5.344c-1.287 1.944-1.075 4.581 0.638 6.294l7.781 7.781c0.387 0.387 0.9 0.588 1.413 0.588s1.025-0.194 1.413-0.587l4.244-4.244c0.775-0.788 0.775-2.050-0.006-2.831zM10 9.881v0.119h-3l-4.356-5.813 1.544-1.544 5.813 4.356v2.881zM25.756 30l-7.775-7.781c-0.569-0.569-0.881-1.319-0.881-2.119s0.313-1.556 0.881-2.119c0.569-0.569 1.319-0.881 2.119-0.881s1.556 0.313 2.119 0.881l7.781 7.775-4.244 4.244zM4 27c0 0.55 0.45 1 1 1s1-0.45 1-1-0.45-1-1-1-1 0.45-1 1zM17.3 4.181c1.419-1.419 3.288-2.181 5.238-2.181 0.431 0 0.863 0.038 1.294 0.112l-4.331 4.338 0.863 5.188 5.194 0.863 4.331-4.331c0.419 2.387-0.331 4.8-2.069 6.531-0.556 0.556-1.194 1-1.875 1.344l1.475 1.475c0.65-0.387 1.262-0.85 1.813-1.406 2.363-2.363 3.294-5.713 2.481-8.956-0.144-0.594-0.606-1.063-1.194-1.225-0.594-0.162-1.231 0-1.669 0.438l-3.994 3.994-2.762-0.463-0.462-2.763 3.994-3.994c0.431-0.431 0.6-1.069 0.438-1.656-0.163-0.594-0.637-1.050-1.231-1.2-3.231-0.806-6.581 0.119-8.95 2.481-0.806 0.806-1.431 1.744-1.881 2.75v4.238l1.381 1.381c-0.6-2.525 0.1-5.138 1.919-6.956zM6.688 29.194c-1.037 1.038-2.85 1.038-3.888 0-1.069-1.069-1.069-2.819 0-3.887l9.131-9.131-1.412-1.412-9.131 9.131c-1.85 1.85-1.85 4.863 0 6.719 0.894 0.894 2.087 1.388 3.356 1.388s2.462-0.494 3.356-1.394l6.362-6.356c-0.419-0.575-0.738-1.206-0.969-1.863l-6.806 6.806z"></path>
</svg>
