<!-- Generated by IcoMoon.io -->
<svg version="1.1" xmlns="http://www.w3.org/2000/svg" width="32" height="32" viewBox="0 0 32 32">
<title>tools-solid</title>
<path d="M31.319 24.731l-7.319-7.319c-1.444-1.444-3.6-1.725-5.337-0.869l-6.662-6.662v-3.881l-8-6-4 4 6 8h3.881l6.663 6.662c-0.85 1.738-0.575 3.894 0.869 5.337l7.319 7.319c0.913 0.913 2.387 0.913 3.294 0l3.294-3.294c0.906-0.913 0.906-2.387 0-3.294zM20.731 14.063c1.769 0 3.431 0.688 4.681 1.938l1.212 1.212c0.988-0.431 1.925-1.031 2.738-1.844 2.319-2.319 3.106-5.581 2.369-8.544-0.137-0.563-0.844-0.756-1.256-0.344l-4.65 4.65-4.244-0.706-0.706-4.244 4.65-4.65c0.413-0.413 0.212-1.119-0.356-1.262-2.962-0.731-6.225 0.056-8.537 2.369-1.781 1.781-2.619 4.131-2.575 6.475l5.131 5.131c0.506-0.119 1.031-0.181 1.544-0.181zM14.238 19.188l-3.544-3.544-9.525 9.531c-1.563 1.563-1.563 4.094 0 5.656s4.094 1.562 5.656 0l7.725-7.725c-0.475-1.244-0.619-2.6-0.313-3.919zM4 29.5c-0.825 0-1.5-0.675-1.5-1.5 0-0.831 0.669-1.5 1.5-1.5s1.5 0.669 1.5 1.5c0 0.825-0.669 1.5-1.5 1.5z"></path>
</svg>
