<!-- Generated by IcoMoon.io -->
<svg version="1.1" xmlns="http://www.w3.org/2000/svg" width="32" height="32" viewBox="0 0 32 32">
<title>toolbox-solid</title>
<path d="M31.414 13.414l-2.828-2.828c-0.375-0.375-0.884-0.586-1.414-0.586h-3.172v-5.001c0-1.657-1.343-3-3-3h-10c-1.657 0-3 1.343-3 3v5h-3.172c-0.531 0-1.039 0.211-1.414 0.586l-2.828 2.829c-0.375 0.375-0.586 0.884-0.586 1.414v5.171h8v-1c0-0.552 0.447-1 1-1h2c0.553 0 1 0.448 1 1v1h8v-1c0-0.552 0.448-1 1-1h2c0.552 0 1 0.448 1 1v1h8v-5.172c0-0.53-0.211-1.039-0.586-1.414zM20 10h-8v-4h8v4zM24 23c0 0.552-0.448 1-1 1h-2c-0.552 0-1-0.448-1-1v-1h-8v1c0 0.552-0.447 1-1 1h-2c-0.553 0-1-0.448-1-1v-1h-8v6c0 1.104 0.896 2 2 2h28c1.104 0 2-0.896 2-2v-6h-8v1z"></path>
</svg>
