<!-- Generated by IcoMoon.io -->
<svg version="1.1" xmlns="http://www.w3.org/2000/svg" width="32" height="32" viewBox="0 0 32 32">
<title>toolbox</title>
<path d="M31.414 13.414l-2.828-2.829c-0.375-0.375-0.884-0.586-1.414-0.586h-3.172v-5c0-1.654-1.346-3-3-3h-10c-1.654 0-3 1.346-3 3v5h-3.172c-0.531 0-1.039 0.211-1.414 0.586l-2.828 2.829c-0.375 0.375-0.586 0.884-0.586 1.414v13.171c0 1.104 0.896 2 2 2h28c1.104 0 2-0.896 2-2v-13.172c0-0.53-0.211-1.039-0.586-1.414zM10 5c0-0.552 0.449-1 1-1h10c0.551 0 1 0.448 1 1v5h-12v-5zM30 28h-28v-6h6v1.5c0 0.276 0.224 0.5 0.5 0.5h1c0.276 0 0.5-0.224 0.5-0.5v-1.5h12v1.5c0 0.276 0.224 0.5 0.5 0.5h1c0.276 0 0.5-0.224 0.5-0.5v-1.5h6v6zM24 20v-1.5c0-0.276-0.224-0.5-0.5-0.5h-1c-0.276 0-0.5 0.224-0.5 0.5v1.5h-12v-1.5c0-0.276-0.224-0.5-0.5-0.5h-1c-0.276 0-0.5 0.224-0.5 0.5v1.5h-6v-5.172l2.828-2.828h22.343l2.829 2.828v5.172h-6z"></path>
</svg>
