<!-- Generated by IcoMoon.io -->
<svg version="1.1" xmlns="http://www.w3.org/2000/svg" width="40" height="32" viewBox="0 0 40 32">
<title>toothbrush</title>
<path d="M39 26h-11v-12h-2v12h-2v-12h-2v12h-2v-12h-2v12h-2v-12h-2v12h-2v-12h-2v12h-2v-12h-2v12h-2v-12h-2v12h-1c-0.552 0-1 0.448-1 1v4c0 0.552 0.448 1 1 1h38c0.553 0 1-0.448 1-1v-4c0-0.552-0.447-1-1-1zM38 30h-36v-2h36v2zM4 12h22c2.209 0 4-1.791 4-4 0-4.418-3.582-8-8-8 1.476 1.476 0.431 4-1.657 4h-16.343c-2.209 0-4 1.791-4 4s1.791 4 4 4zM4 6h16.343c1.763 0 3.338-1.053 4.012-2.681 0.099-0.24 0.176-0.485 0.231-0.732 2.017 0.968 3.414 3.031 3.414 5.414 0 1.102-0.898 2-2 2h-22c-1.103 0-2-0.898-2-2s0.897-2 2-2z"></path>
</svg>
