<!-- Generated by IcoMoon.io -->
<svg version="1.1" xmlns="http://www.w3.org/2000/svg" width="28" height="32" viewBox="0 0 28 32">
<title>tooth-solid</title>
<path d="M27.749 6.016c-0.688-2.826-2.944-5.129-5.751-5.857-2.012-0.522-3.938 0.319-5.571 1.521-0.203 0.149-0.435 0.233-0.656 0.343l1.77 1.138c0.464 0.298 0.599 0.917 0.3 1.382-0.279 0.434-0.892 0.616-1.382 0.3l-6.282-4.039c-1.294-0.678-2.711-1.025-4.176-0.644-2.806 0.729-5.063 3.031-5.751 5.857-0.633 2.601-0.026 5.051 1.344 6.902 1.46 1.973 2.042 4.291 2.268 6.709 0.275 2.947 0.646 5.885 1.309 8.77l0.487 2.122c0.199 0.867 0.968 1.481 1.854 1.481 0.873 0 1.634-0.597 1.846-1.448l2.154-8.651c0.285-1.145 1.31-1.948 2.485-1.948s2.2 0.803 2.485 1.948l2.154 8.651c0.212 0.851 0.973 1.448 1.846 1.448 0.886 0 1.655-0.614 1.854-1.481l0.488-2.122c0.663-2.884 1.033-5.823 1.309-8.77 0.226-2.419 0.808-4.736 2.268-6.709 1.372-1.851 1.979-4.3 1.346-6.902z"></path>
</svg>
