<!-- Generated by IcoMoon.io -->
<svg version="1.1" xmlns="http://www.w3.org/2000/svg" width="28" height="32" viewBox="0 0 28 32">
<title>tooth</title>
<path d="M27.746 6.016c-0.689-2.83-2.945-5.13-5.751-5.858-1.746-0.451-3.598 0.070-5.567 1.521-0.786 0.577-2.762 1.53-4.849 0.004l-0.025-0.018c-0.004-0.002-0.008-0.002-0.012-0.005-1.959-1.435-3.796-1.951-5.538-1.501-2.804 0.728-5.062 3.027-5.75 5.857-0.601 2.467-0.123 4.919 1.344 6.902 1.282 1.733 2.004 3.865 2.268 6.709 0.226 2.418 0.578 5.601 1.308 8.769l0.488 2.123c0.201 0.872 0.963 1.481 1.853 1.481 0.877 0 1.636-0.597 1.846-1.448l2.156-8.652c0.285-1.146 1.306-1.946 2.484-1.946s2.199 0.801 2.484 1.948l2.156 8.651c0.209 0.837 0.955 1.448 1.843 1.448 0.001 0 0.002 0 0.003 0h-0c0.891 0 1.652-0.608 1.853-1.481l0.488-2.123c0.731-3.17 1.082-6.352 1.308-8.769 0.267-2.848 0.988-4.979 2.269-6.709 1.467-1.985 1.944-4.436 1.342-6.903zM24.796 11.729c-1.506 2.035-2.349 4.485-2.652 7.712-0.219 2.356-0.563 5.452-1.266 8.507l-0.396 1.724-2.056-8.254c-0.508-2.040-2.328-3.464-4.425-3.464s-3.918 1.424-4.425 3.463l-1.964 8.653-0.488-2.123c-0.703-3.054-1.047-6.149-1.266-8.506-0.301-3.223-1.144-5.674-2.653-7.713-1.107-1.498-1.466-3.359-1.008-5.24 0.516-2.124 2.208-3.849 4.309-4.394 1.519-0.392 3.034 0.571 3.882 1.196 0.004 0.003 0.009 0.005 0.013 0.008 0.002 0.001 0.002 0.003 0.004 0.004l5.021 3.516c0.669 0.464 1.259-0.054 1.393-0.246 0.318-0.452 0.207-1.075-0.244-1.393l-1.231-0.861c0.816-0.196 1.596-0.534 2.269-1.029 1.469-1.085 2.734-1.493 3.881-1.196 2.101 0.546 3.794 2.271 4.312 4.394 0.456 1.881 0.099 3.742-1.010 5.241z"></path>
</svg>
