<!-- Generated by IcoMoon.io -->
<svg version="1.1" xmlns="http://www.w3.org/2000/svg" width="40" height="32" viewBox="0 0 40 32">
<title>toothbrush-solid</title>
<path d="M39 28h-38c-0.552 0-1 0.448-1 1v2c0 0.552 0.448 1 1 1h38c0.553 0 1-0.448 1-1v-2c0-0.552-0.447-1-1-1zM4 26v-11.5c0-0.276-0.224-0.5-0.5-0.5h-1c-0.276 0-0.5 0.224-0.5 0.5v11.5h2zM8 26v-11.5c0-0.276-0.224-0.5-0.5-0.5h-1c-0.276 0-0.5 0.224-0.5 0.5v11.5h2zM12 26v-11.5c0-0.276-0.224-0.5-0.5-0.5h-1c-0.276 0-0.5 0.224-0.5 0.5v11.5h2zM16 26v-11.5c0-0.276-0.224-0.5-0.5-0.5h-1c-0.276 0-0.5 0.224-0.5 0.5v11.5h2zM20 26v-11.5c0-0.276-0.224-0.5-0.5-0.5h-1c-0.276 0-0.5 0.224-0.5 0.5v11.5h2zM24 26v-11.5c0-0.276-0.224-0.5-0.5-0.5h-1c-0.276 0-0.5 0.224-0.5 0.5v11.5h2zM26 26h2v-11.5c0-0.276-0.224-0.5-0.5-0.5h-1c-0.276 0-0.5 0.224-0.5 0.5v11.5zM4 12h22c2.209 0 4-1.791 4-4 0-4.418-3.582-8-8-8 1.476 1.476 0.431 4-1.657 4h-16.343c-2.209 0-4 1.791-4 4s1.791 4 4 4z"></path>
</svg>
