<!-- Generated by IcoMoon.io -->
<svg version="1.1" xmlns="http://www.w3.org/2000/svg" width="40" height="32" viewBox="0 0 40 32">
<title>torah</title>
<path d="M13.165 15.938l-2.087 3.491c-0.135 0.222-0.215 0.49-0.215 0.776 0 0.833 0.675 1.509 1.508 1.51h4.254l2.090 3.492c0.262 0.44 0.736 0.731 1.278 0.731 0.003 0 0.005 0 0.008-0h-0c0.55-0 1.030-0.295 1.294-0.734l0.004-0.007 2.082-3.48h4.25c0 0 0.001 0 0.001 0 0.562 0 1.052-0.305 1.315-0.758l0.004-0.007c0.125-0.212 0.198-0.468 0.198-0.74 0-0.285-0.080-0.55-0.22-0.776l0.004 0.006-2.098-3.504 2.089-3.491c0.135-0.222 0.215-0.49 0.215-0.776 0-0.833-0.675-1.509-1.508-1.51h-4.254l-2.091-3.492c-0.262-0.44-0.736-0.731-1.277-0.731-0.001 0-0.002 0-0.003 0h0c-0.001 0-0.003 0-0.004 0-0.55 0-1.031 0.295-1.294 0.734l-0.004 0.007-2.082 3.48h-4.25c-0 0-0.001 0-0.001 0-0.562 0-1.053 0.305-1.315 0.759l-0.004 0.007c-0.124 0.212-0.198 0.467-0.198 0.739 0 0.284 0.080 0.55 0.219 0.775l-0.004-0.006zM12.906 19.904l1.313-2.203 1.319 2.203zM20.004 23.833l-1.268-2.118h2.534zM27.097 19.904h-2.634l1.316-2.201zM27.093 11.971l-1.313 2.203-1.319-2.203zM20 8.043l1.264 2.117h-2.534zM17.647 11.97h4.701l2.375 3.967-2.37 3.966h-4.702l-2.375-3.966zM15.537 11.97l-1.313 2.201-1.319-2.201zM36-0.063c-1.77 0-3.223 0.826-3.763 2h-24.475c-0.539-1.174-1.992-2-3.763-2-2.243 0-4 1.317-4 3v26c0 1.683 1.758 3 4 3 1.77 0 3.223-0.826 3.763-2h24.475c0.539 1.174 1.992 2 3.763 2 2.242 0 4-1.317 4-3v-26c0-1.683-1.758-3-4-3zM6 3.938v25c0 0.399-0.797 1-2 1s-2-0.601-2-1v-26c0-0.398 0.797-1 2-1s2 0.602 2 1zM32 27.938h-24v-24h24zM38 28.938c0 0.399-0.797 1-2 1s-2-0.601-2-1v-26c0-0.398 0.797-1 2-1s2 0.602 2 1z"></path>
</svg>
