<!-- Generated by IcoMoon.io -->
<svg version="1.1" xmlns="http://www.w3.org/2000/svg" width="40" height="32" viewBox="0 0 40 32">
<title>torah-solid</title>
<path d="M20.003 22.905l1.107-1.852h-2.216zM26.204 12.53h-2.304l1.154 1.926zM3 0c-1.657 0-3 0.896-3 2v28c0 1.104 1.343 2 3 2s3-0.896 3-2v-28c0-1.104-1.343-2-3-2zM13.796 19.469h2.303l-1.154-1.926zM23.903 19.469h2.304l-1.153-1.925zM8 29h24v-26h-24zM12.173 11.617c0.233-0.403 0.661-0.669 1.152-0.669 0.001 0 0.002 0 0.003 0h3.715l1.821-3.044c0.234-0.391 0.655-0.648 1.137-0.648 0.001 0 0.002 0 0.002 0h-0c0.001 0 0.003 0 0.004 0 0.473 0 0.888 0.254 1.114 0.632l0.003 0.006 1.828 3.054h3.72c0.729 0 1.32 0.591 1.32 1.32 0 0.251-0.070 0.486-0.192 0.686l0.003-0.006-1.828 3.053 1.836 3.063c0.119 0.192 0.189 0.424 0.189 0.673 0 0.238-0.064 0.462-0.177 0.653l0.003-0.006c-0.233 0.403-0.662 0.67-1.154 0.67-0 0-0.001 0-0.001 0h-3.717l-1.821 3.044c-0.233 0.391-0.654 0.649-1.135 0.65h-0c-0.002 0-0.004 0-0.006 0-0.474 0-0.889-0.254-1.116-0.633l-0.003-0.006-1.828-3.055h-3.719c-0 0-0.001 0-0.001 0-0.729 0-1.319-0.591-1.319-1.319 0-0.251 0.070-0.486 0.192-0.686l-0.003 0.006 1.826-3.053-1.835-3.063c-0.118-0.192-0.188-0.424-0.188-0.672 0-0.239 0.065-0.462 0.177-0.654l-0.003 0.006zM37 0c-1.657 0-3 0.896-3 2v28c0 1.104 1.343 2 3 2s3-0.896 3-2v-28c0-1.104-1.343-2-3-2zM20 9.096l-1.111 1.851h2.216zM16.097 12.533h-2.301l1.152 1.925zM17.946 19.471h4.112l2.073-3.471-2.077-3.47h-4.112l-2.073 3.47z"></path>
</svg>
