<!-- Generated by IcoMoon.io -->
<svg version="1.1" xmlns="http://www.w3.org/2000/svg" width="32" height="32" viewBox="0 0 32 32">
<title>torii-gate-solid</title>
<path d="M23.528 2h-15.056c-3.088-0-6.004-0.739-8.579-2.050l0.108 0.050v6c0 1.104 0.896 2 2 2h2v4h-3c-0.552 0-1 0.447-1 1v2c0 0.553 0.448 1 1 1h3v15c0 0.552 0.448 1 1 1h2c0.553 0 1-0.448 1-1v-15h16v15c0 0.552 0.448 1 1 1h2c0.552 0 1-0.448 1-1v-15h3c0.552 0 1-0.447 1-1v-2c0-0.553-0.448-1-1-1h-3v-4h2c1.104 0 2-0.896 2-2v-6c-2.468 1.261-5.384 2-8.472 2h-0zM8 8h6v4h-6v-4zM24 12h-6v-4h6v4z"></path>
</svg>
