<!-- Generated by IcoMoon.io -->
<svg version="1.1" xmlns="http://www.w3.org/2000/svg" width="32" height="32" viewBox="0 0 32 32">
<title>torii-gate</title>
<path d="M30 10c1.104 0 2-0.896 2-2v-8c-2.468 1.261-5.384 2-8.472 2h-15.056c-3.088-0-6.004-0.739-8.579-2.050l0.108 0.050v8c0 1.104 0.896 2 2 2h2v6h-3.5c-0.276 0-0.5 0.224-0.5 0.5v1c0 0.276 0.224 0.5 0.5 0.5h3.5v13.5c0 0.276 0.224 0.5 0.5 0.5h1c0.276 0 0.5-0.224 0.5-0.5v-13.5h20v13.5c0 0.276 0.224 0.5 0.5 0.5h1c0.276 0 0.5-0.224 0.5-0.5v-13.5h3.5c0.276 0 0.5-0.224 0.5-0.5v-1c0-0.276-0.224-0.5-0.5-0.5h-3.5v-6h2zM2 8v-5.027c2.087 0.676 4.281 1.027 6.472 1.027h15.056c2.192 0 4.386-0.351 6.472-1.027v5.027h-27.999zM6 10h9v6h-9v-6zM26 16h-9v-6h9v6z"></path>
</svg>
