<!-- Generated by IcoMoon.io -->
<svg version="1.1" xmlns="http://www.w3.org/2000/svg" width="32" height="32" viewBox="0 0 32 32">
<title>tornado-solid</title>
<path d="M24.613 6h-23.85c0.606 2.137 1.531 3.881 2.669 5.331h21.863c-0.881-1.444-1.288-3.137-0.681-5.331zM26.825 1.575c0.462-0.662 0-1.575-0.806-1.575h-25.012c-0.563 0-1.025 0.475-1.006 1.031 0.037 1.063 0.156 2.038 0.319 2.969h25.069c0.369-0.756 0.831-1.556 1.438-2.425zM18.688 20.669c2.063 1.281 3.4 2.863 3.331 5.331h7.844c1.569-2.15 2.169-3.875 2.131-5.331h-13.306zM26.869 13.331h-21.563c2.819 2.525 6.313 3.975 9.381 5.331h16.837c-0.906-2.006-2.962-3.556-4.656-5.331zM20.738 30.569c-0.313 0.663 0.169 1.431 0.9 1.431h1.712c0.494 0 0.988-0.188 1.356-0.519 1.419-1.269 2.563-2.413 3.525-3.481h-6.519c-0.212 0.781-0.525 1.631-0.975 2.569z"></path>
</svg>
