<!-- Generated by IcoMoon.io -->
<svg version="1.1" xmlns="http://www.w3.org/2000/svg" width="32" height="32" viewBox="0 0 32 32">
<title>tornado</title>
<path d="M26.819 1.575c0.462-0.662 0-1.575-0.806-1.575h-25c-0.569 0-1.031 0.475-1.012 1.031 0.831 22.044 28.25 13.738 20.731 29.538-0.313 0.663 0.163 1.431 0.894 1.431h1.712c0.494 0 0.988-0.188 1.356-0.519 20.038-17.919-8.681-14.363 2.125-29.906zM24.169 2c-0.856 1.469-1.375 2.787-1.65 4h-19.675c-0.381-1.181-0.656-2.5-0.781-4h22.106zM3.65 8h18.625c-0.006 1.531 0.425 2.844 1.075 4h-16.563c-1.244-1.081-2.319-2.381-3.138-4zM9.606 14h15.162c0.694 0.806 1.45 1.531 2.15 2.2s1.262 1.244 1.744 1.8h-10.681c-0.994-0.5-2.044-0.969-3.113-1.438-1.787-0.787-3.594-1.581-5.262-2.563zM21.181 20h8.675c0.075 0.275 0.15 0.544 0.15 0.831-0.012 0.9-0.425 1.962-1.194 3.169h-5.031c-0.063-0.25-0.1-0.506-0.188-0.744-0.494-1.325-1.344-2.369-2.413-3.256zM23.337 30h-0.181c0.556-1.456 0.825-2.775 0.85-4h3.319c-1.038 1.219-2.363 2.55-3.988 4z"></path>
</svg>
