<!-- Generated by IcoMoon.io -->
<svg version="1.1" xmlns="http://www.w3.org/2000/svg" width="40" height="32" viewBox="0 0 40 32">
<title>tractor</title>
<path d="M11 16c-2.761 0-5 2.239-5 5s2.239 5 5 5 5-2.239 5-5-2.239-5-5-5zM11 23.5c-1.379 0-2.5-1.121-2.5-2.5s1.121-2.5 2.5-2.5 2.5 1.121 2.5 2.5-1.121 2.5-2.5 2.5zM38 12h-4v-0.684c0-1.398 0.487-2.719 1.383-3.771 0.173-0.203 0.176-0.499-0.013-0.688l-0.708-0.708c-0.201-0.201-0.539-0.202-0.727 0.013-1.251 1.426-1.935 3.237-1.935 5.154v0.684h-8.964l-5.24-10.869c-0.331-0.675-1.013-1.131-1.802-1.131h-7.994c-1.104 0-2 0.896-2 2v9.734c-0.673-0.091-1.376 0.088-1.894 0.603l-1.768 1.768c-0.801 0.802-0.871 2.063-0.207 2.943-0.070 0.156-0.137 0.314-0.198 0.474-1.092 0.155-1.934 1.094-1.934 2.228v2.5c0 1.134 0.842 2.073 1.934 2.227 0.061 0.159 0.127 0.317 0.198 0.474-0.293 0.387-0.451 0.856-0.451 1.351-0.002 0.601 0.232 1.168 0.658 1.593l1.768 1.767c0.805 0.802 2.064 0.871 2.943 0.208 0.156 0.069 0.314 0.135 0.473 0.196 0.154 1.091 1.096 1.934 2.229 1.934h2.5c1.133 0 2.074-0.843 2.229-1.934 0.158-0.061 0.316-0.127 0.473-0.196 0.883 0.663 2.142 0.594 2.943-0.208l1.767-1.767c0.426-0.425 0.66-0.991 0.658-1.593 0-0.494-0.158-0.965-0.451-1.351 0.070-0.156 0.137-0.314 0.198-0.474 0.397-0.056 0.739-0.242 1.041-0.477h5.259c-0.223 0.628-0.367 1.295-0.367 2 0 3.314 2.686 6 6 6s6-2.686 6-6c0-1.657-0.671-3.157-1.758-4.242l3.171-3.171c0.375-0.375 0.586-0.884 0.586-1.414v-3.172c0.001-1.104-0.894-2-1.999-2zM8 2h7.994l4.821 10h-3.413c-0.684-0.388-1.505-0.385-2.191 0h-0.573c-0.054-0.022-0.106-0.046-0.16-0.066-0.154-1.091-1.096-1.934-2.228-1.934h-2.5c-0.721 0-1.338 0.363-1.75 0.892v-8.892zM20 22.25c0 0.137-0.111 0.25-0.25 0.25h-1.151c-0.444 1.477-0.419 1.428-1.164 2.811l0.811 0.814 0.002 0.354-1.768 1.768c-0.098 0.101-0.256 0.097-0.354 0l-0.813-0.813c-1.359 0.73-1.354 0.728-2.814 1.163v1.152c0 0.137-0.111 0.25-0.25 0.25h-2.5c-0.139 0-0.25-0.113-0.25-0.25v-1.151c-1.461-0.435-1.456-0.433-2.814-1.163l-0.813 0.813c-0.045 0.046-0.108 0.074-0.177 0.074s-0.132-0.028-0.177-0.074l-1.768-1.768 0.002-0.354 0.811-0.814c-0.745-1.384-0.72-1.337-1.164-2.812h-1.151c-0.139 0-0.25-0.113-0.25-0.25v-2.5c0-0.137 0.111-0.25 0.25-0.25h1.151c0.447-1.486 0.42-1.427 1.164-2.814l-0.813-0.813c-0.045-0.045-0.073-0.108-0.073-0.177s0.028-0.132 0.073-0.177v0l1.768-1.768c0.099-0.098 0.258-0.096 0.354 0l0.813 0.813c1.359-0.73 1.354-0.728 2.814-1.163v-1.151c0-0.137 0.111-0.25 0.25-0.25h2.5c0.139 0 0.25 0.113 0.25 0.25v1.151c1.461 0.435 1.456 0.433 2.814 1.163l0.813-0.813c0.098-0.096 0.256-0.098 0.354 0l1.767 1.768c0.045 0.045 0.073 0.108 0.073 0.177s-0.028 0.132-0.073 0.177v0l-0.813 0.813c0.744 1.387 0.718 1.33 1.164 2.814h1.151c0.139 0 0.25 0.113 0.25 0.25v2.5zM32 30c-2.206 0-4-1.794-4-4s1.794-4 4-4 4 1.794 4 4-1.794 4-4 4zM38 17.171l-3.428 3.428c-0.782-0.373-1.648-0.6-2.572-0.6-1.77 0-3.344 0.781-4.443 2h-5.557v-2.25c0-1.134-0.842-2.073-1.934-2.227-0.061-0.159-0.127-0.317-0.198-0.474 0.664-0.881 0.594-2.142-0.207-2.943l-0.106-0.106h18.444v3.172z"></path>
</svg>
