<!-- Generated by IcoMoon.io -->
<svg version="1.1" xmlns="http://www.w3.org/2000/svg" width="40" height="32" viewBox="0 0 40 32">
<title>tractor-solid</title>
<path d="M33 21c-3.038 0-5.5 2.462-5.5 5.5s2.462 5.5 5.5 5.5 5.5-2.462 5.5-5.5-2.462-5.5-5.5-5.5zM33 28c-0.827 0-1.5-0.673-1.5-1.5s0.673-1.5 1.5-1.5 1.5 0.673 1.5 1.5-0.673 1.5-1.5 1.5zM38 10h-4v-2.513c0-0.883 0.294-1.735 0.822-2.428 0.276-0.362 0.222-0.879-0.083-1.218l-1.352-1.511c-0.416-0.466-1.145-0.433-1.544 0.049-1.183 1.426-1.844 3.233-1.844 5.107v2.513h-6.396l-3.506-8.179c-0.468-1.080-1.525-1.821-2.755-1.821-0.001 0-0.002 0-0.003 0h-8.34c-1.654 0-3 1.346-3 3v9.157c-0.539-0.421-1.31-0.404-1.806 0.092l-1.944 1.944c-0.537 0.537-0.537 1.408 0 1.944l0.316 0.316c-0.312 0.579-0.56 1.176-0.744 1.795h-0.447c-0.759 0-1.375 0.616-1.375 1.375v2.75c0 0.759 0.616 1.375 1.375 1.375h0.446c0.185 0.619 0.433 1.216 0.744 1.796l-0.316 0.316c-0.537 0.537-0.537 1.407 0 1.944l1.944 1.944c0.537 0.537 1.407 0.537 1.944 0l0.316-0.316c0.579 0.312 1.176 0.56 1.795 0.744v0.447c0 0.759 0.616 1.375 1.375 1.375h2.75c0.759 0 1.375-0.616 1.375-1.375v-0.446c0.619-0.184 1.216-0.433 1.795-0.744l0.316 0.316c0.537 0.537 1.408 0.537 1.944 0l1.944-1.944c0.537-0.537 0.537-1.407 0-1.944l-0.316-0.316c0.312-0.579 0.56-1.176 0.744-1.795h0.448c0.759 0 1.375-0.616 1.375-1.375v-0.375h5.034c1.369-1.812 3.52-3 5.966-3 1.165 0 2.254 0.288 3.237 0.762l3.176-3.176c0.375-0.375 0.586-0.884 0.586-1.414v-3.172c0.001-1.104-0.895-2-1.999-2zM11 26c-2.761 0-5-2.239-5-5s2.239-5 5-5 5 2.239 5 5-2.239 5-5 5zM12.375 10h-2.375v-6h6.681l2.572 6h-6.878z"></path>
</svg>
