<!-- Generated by IcoMoon.io -->
<svg version="1.1" xmlns="http://www.w3.org/2000/svg" width="40" height="32" viewBox="0 0 40 32">
<title>trademark</title>
<path d="M16.506 6h-15.012c-0.413 0-0.75 0.338-0.75 0.75v0.938c0 0.412 0.337 0.75 0.75 0.75h6.106v16.813c0 0.413 0.338 0.75 0.75 0.75h1.306c0.412 0 0.75-0.337 0.75-0.75v-16.813h6.106c0.413 0 0.75-0.338 0.75-0.75v-0.938c-0.006-0.412-0.337-0.75-0.756-0.75zM40 25.188l-1.494-18.5c-0.031-0.388-0.356-0.688-0.75-0.688h-1.756c-0.3 0-0.575 0.181-0.688 0.456l-4.394 10.363c-0.456 1.106-0.994 2.694-0.994 2.694h-0.056s-0.538-1.587-0.994-2.694l-4.394-10.363c-0.119-0.275-0.387-0.456-0.688-0.456h-1.756c-0.394 0-0.719 0.3-0.75 0.688l-1.494 18.5c-0.038 0.438 0.313 0.813 0.75 0.813h1.294c0.394 0 0.719-0.3 0.75-0.694l0.913-11.912c0.087-1.219 0.056-3 0.056-3h0.056s0.625 1.925 1.075 3l3.769 8.562c0.119 0.275 0.387 0.45 0.688 0.45h1.519c0.294 0 0.563-0.175 0.688-0.444l3.794-8.563c0.481-1.106 1.075-2.944 1.075-2.944h0.056s-0.056 1.725 0.031 2.944l0.938 11.912c0.031 0.387 0.356 0.694 0.75 0.694h1.256c0.438-0.006 0.781-0.381 0.75-0.819z"></path>
</svg>
