<!-- Generated by IcoMoon.io -->
<svg version="1.1" xmlns="http://www.w3.org/2000/svg" width="40" height="32" viewBox="0 0 40 32">
<title>trademark-solid</title>
<path d="M16.288 6h-15.537c-0.412 0-0.75 0.338-0.75 0.75v2.694c0 0.412 0.338 0.75 0.75 0.75h5.319v15.056c0 0.413 0.338 0.75 0.75 0.75h3.394c0.412 0 0.75-0.337 0.75-0.75v-15.056h5.319c0.413 0 0.75-0.338 0.75-0.75v-2.694c0.006-0.412-0.331-0.75-0.744-0.75zM40 25.188l-1.5-18.5c-0.031-0.388-0.356-0.688-0.75-0.688h-4.087c-0.319 0-0.606 0.206-0.706 0.506l-2.738 7.944c-0.45 1.287-1.006 3.3-1.006 3.3h-0.056s-0.556-2.012-1.006-3.3l-2.738-7.944c-0.106-0.3-0.387-0.506-0.706-0.506h-4.088c-0.387 0-0.712 0.3-0.75 0.688l-1.525 18.5c-0.038 0.438 0.306 0.813 0.75 0.813h3.406c0.394 0 0.719-0.306 0.75-0.7l0.569-8.306c0.113-1.512 0-3.356 0-3.356h0.056s0.669 2.1 1.119 3.356l1.919 5.294c0.106 0.294 0.387 0.494 0.706 0.494h3.144c0.319 0 0.6-0.2 0.706-0.494l1.919-5.294c0.45-1.256 1.119-3.356 1.119-3.356h0.056s-0.112 1.844 0 3.356l0.569 8.306c0.025 0.394 0.356 0.7 0.75 0.7h3.369c0.438 0 0.781-0.375 0.75-0.813z"></path>
</svg>
