<!-- Generated by IcoMoon.io -->
<svg version="1.1" xmlns="http://www.w3.org/2000/svg" width="26" height="32" viewBox="0 0 26 32">
<title>traffic-light-stop</title>
<path d="M26 4v-1h-5v-1.222c0-0.982-0.796-1.778-1.778-1.778h-12.444c-0.982 0-1.778 0.796-1.778 1.778v1.222h-5v1c0 3.159 2.118 5.798 5 6.661v0.339h-5v1c0 3.159 2.118 5.798 5 6.661v0.339h-5v1c0 3.346 2.379 6.094 5.524 6.777 1.132 3.044 4.039 5.223 7.476 5.223s6.344-2.179 7.476-5.223c3.144-0.683 5.524-3.431 5.524-6.777v-1h-5v-0.339c2.882-0.863 5-3.501 5-6.661v-1h-5v-0.339c2.882-0.863 5-3.501 5-6.661zM21 5h2.901c-0.328 1.601-1.441 2.888-2.901 3.535v-3.535zM2.099 5h2.901v3.535c-1.46-0.647-2.572-1.934-2.901-3.535zM2.099 13h2.901v3.535c-1.46-0.647-2.572-1.934-2.901-3.535zM2.099 21h2.901v3c0 0.19 0.043 0.369 0.056 0.556-1.487-0.637-2.625-1.934-2.957-3.556zM19 24c0 3.308-2.691 6-6 6s-6-2.692-6-6v-22h12v22zM23.901 21c-0.332 1.621-1.469 2.918-2.956 3.556 0.013-0.187 0.056-0.365 0.056-0.556v-3h2.9zM23.901 13c-0.328 1.601-1.441 2.888-2.901 3.535v-3.535h2.901zM13 11.5c1.933 0 3.5-1.567 3.5-3.5s-1.567-3.5-3.5-3.5-3.5 1.567-3.5 3.5 1.567 3.5 3.5 3.5zM13 19.5c1.933 0 3.5-1.567 3.5-3.5s-1.567-3.5-3.5-3.5-3.5 1.567-3.5 3.5 1.567 3.5 3.5 3.5zM13 14c1.102 0 2 0.898 2 2s-0.898 2-2 2-2-0.898-2-2 0.898-2 2-2zM13 27.5c1.933 0 3.5-1.567 3.5-3.5s-1.567-3.5-3.5-3.5-3.5 1.567-3.5 3.5 1.567 3.5 3.5 3.5zM13 22c1.102 0 2 0.898 2 2s-0.898 2-2 2-2-0.898-2-2 0.898-2 2-2z"></path>
</svg>
