<!-- Generated by IcoMoon.io -->
<svg version="1.1" xmlns="http://www.w3.org/2000/svg" width="24" height="32" viewBox="0 0 24 32">
<title>traffic-light-solid</title>
<path d="M24 12h-4v-2.367c2.325-0.826 4-3.024 4-5.633h-4v-2c0-1.104-0.896-2-2-2h-12c-1.104 0-2 0.896-2 2v2h-4c0 2.609 1.675 4.806 4 5.633v2.367h-4c0 2.609 1.675 4.806 4 5.633v2.367h-4c0 2.678 1.766 4.918 4.187 5.691 0.777 3.604 3.976 6.309 7.813 6.309s7.036-2.705 7.813-6.309c2.421-0.773 4.187-3.013 4.187-5.691h-4v-2.367c2.325-0.826 4-3.024 4-5.633zM12 26c-1.657 0-3-1.343-3-3s1.343-3 3-3 3 1.343 3 3-1.343 3-3 3zM12 18c-1.657 0-3-1.343-3-3s1.343-3 3-3 3 1.343 3 3-1.343 3-3 3zM12 10c-1.657 0-3-1.343-3-3s1.343-3 3-3 3 1.343 3 3-1.343 3-3 3z"></path>
</svg>
