<!-- Generated by IcoMoon.io -->
<svg version="1.1" xmlns="http://www.w3.org/2000/svg" width="32" height="32" viewBox="0 0 32 32">
<title>traffic-cone</title>
<path d="M31.5 30h-1.439l-11.652-29.28c-0.173-0.425-0.583-0.72-1.062-0.72-0 0-0 0-0 0h-2.694c-0.468 0-0.889 0.286-1.062 0.72l-11.652 29.28h-1.439c-0.276 0-0.5 0.224-0.5 0.5v1c0 0.276 0.224 0.5 0.5 0.5h31c0.276 0 0.5-0.224 0.5-0.5v-1c0-0.276-0.224-0.5-0.5-0.5zM23.929 20h-15.859l3.184-8h9.491l3.184 8zM15.234 2h1.531l3.184 8h-7.899l3.184-8zM4.091 30l3.184-8h17.45l3.184 8h-23.817z"></path>
</svg>
