<!-- Generated by IcoMoon.io -->
<svg version="1.1" xmlns="http://www.w3.org/2000/svg" width="28" height="32" viewBox="0 0 28 32">
<title>train</title>
<path d="M14 20c0.551 0 1 0.449 1 1s-0.449 1-1 1-1-0.449-1-1 0.449-1 1-1zM14 18c-1.657 0-3 1.343-3 3s1.343 3 3 3 3-1.343 3-3-1.343-3-3-3zM20 0h-12c-4 0-8 2.686-8 6v16c0 2.948 3.166 5.399 6.681 5.905l-3.455 3.455c-0.236 0.236-0.069 0.64 0.265 0.64h1.612c0.199 0 0.39-0.079 0.53-0.22l3.78-3.78h9.172l3.78 3.78c0.136 0.136 0.323 0.22 0.53 0.22h1.612c0.334 0 0.501-0.404 0.265-0.64l-3.455-3.455c3.515-0.505 6.681-2.956 6.681-5.904v-16c0-3.314-3.938-6-8-6zM2 8h24v6h-24v-6zM8 2h12c3.64 0 6 2.368 6 4h-24c0-2.019 2.972-4 6-4zM20 26h-12c-3.028 0-6-1.981-6-4v-6h24v6c0 2.019-2.972 4-6 4z"></path>
</svg>
