<!-- Generated by IcoMoon.io -->
<svg version="1.1" xmlns="http://www.w3.org/2000/svg" width="28" height="32" viewBox="0 0 28 32">
<title>train-solid</title>
<path d="M28 6v16c0 3.238-3.852 6-8.126 6l3.936 3.108c0.372 0.294 0.163 0.892-0.31 0.892h-19c-0.474 0-0.681-0.6-0.31-0.892l3.936-3.108c-4.263 0-8.126-2.753-8.126-6v-16c0-3.314 4-6 8-6h12c4.063 0 8 2.686 8 6zM25 14.5v-7c0-0.828-0.672-1.5-1.5-1.5h-19c-0.828 0-1.5 0.672-1.5 1.5v7c0 0.828 0.672 1.5 1.5 1.5h19c0.828 0 1.5-0.672 1.5-1.5zM14 18.5c-1.933 0-3.5 1.567-3.5 3.5s1.567 3.5 3.5 3.5 3.5-1.567 3.5-3.5-1.567-3.5-3.5-3.5z"></path>
</svg>
