<!-- Generated by IcoMoon.io -->
<svg version="1.1" xmlns="http://www.w3.org/2000/svg" width="40" height="32" viewBox="0 0 40 32">
<title>trailer</title>
<path d="M39.5 22h-5.5v-16c0-1.105-0.895-2-2-2v0h-30c-1.105 0-2 0.895-2 2v0 16c0 1.105 0.895 2 2 2v0h2.286c0.474 0 0.856-0.34 0.978-0.799 0.793-2.991 3.495-5.201 6.736-5.201s5.943 2.21 6.736 5.201c0.125 0.459 0.503 0.799 0.977 0.799h19.786c0.276 0 0.5-0.224 0.5-0.5v0-1c0-0.276-0.224-0.5-0.5-0.5v0zM32 22h-11.587c-1.233-3.486-4.504-6-8.413-6s-7.181 2.514-8.413 6h-1.587v-16h30zM12 20c-2.761 0-5 2.239-5 5s2.239 5 5 5c2.761 0 5-2.239 5-5v0c0-2.761-2.239-5-5-5v0zM12 28c-1.657 0-3-1.343-3-3s1.343-3 3-3c1.657 0 3 1.343 3 3v0c-0.002 1.656-1.344 2.998-3 3h-0zM22.5 20h1c0.276 0 0.5-0.224 0.5-0.5v0-11c0-0.276-0.224-0.5-0.5-0.5v0h-1c-0.276 0-0.5 0.224-0.5 0.5v0 11c0 0.276 0.224 0.5 0.5 0.5v0zM28.5 20h1c0.276 0 0.5-0.224 0.5-0.5v0-11c0-0.276-0.224-0.5-0.5-0.5v0h-1c-0.276 0-0.5 0.224-0.5 0.5v0 11c0 0.276 0.224 0.5 0.5 0.5v0zM6 8.5c0-0.276-0.224-0.5-0.5-0.5v0h-1c-0.276 0-0.5 0.224-0.5 0.5v0 8.966c0.59-0.626 1.245-1.18 1.959-1.653l0.041-0.026zM12 8.5c0-0.276-0.224-0.5-0.5-0.5v0h-1c-0.276 0-0.5 0.224-0.5 0.5v0 5.691c0.6-0.119 1.291-0.188 1.998-0.191h0.002zM18 8.5c0-0.276-0.224-0.5-0.5-0.5v0h-1c-0.276 0-0.5 0.224-0.5 0.5v0 6.261c0.767 0.302 1.426 0.646 2.041 1.052l-0.041-0.025z"></path>
</svg>
