<!-- Generated by IcoMoon.io -->
<svg version="1.1" xmlns="http://www.w3.org/2000/svg" width="40" height="32" viewBox="0 0 40 32">
<title>trailer-solid</title>
<path d="M39 20h-5v-15c0-0.552-0.448-1-1-1v0h-32c-0.552 0-1 0.448-1 1v0 18c0 0.552 0.448 1 1 1v0h3.101c0.489-3.388 3.375-6 6.899-6s6.41 2.612 6.899 6h21.101c0.552 0 1-0.448 1-1v0-2c0-0.552-0.448-1-1-1v0zM6 15.23c-0.761 0.387-1.417 0.817-2.020 1.31l0.020-0.016v-8.024c0-0.276 0.224-0.5 0.5-0.5v0h1c0.276 0 0.5 0.224 0.5 0.5v0zM12 14.071c-0.332-0.031-0.661-0.071-1-0.071s-0.668 0.041-1 0.071v-5.571c0-0.276 0.224-0.5 0.5-0.5v0h1c0.276 0 0.5 0.224 0.5 0.5v0zM18 16.524c-0.583-0.477-1.239-0.908-1.938-1.265l-0.062-0.029v-6.73c0-0.276 0.224-0.5 0.5-0.5v0h1c0.276 0 0.5 0.224 0.5 0.5v0zM24 20h-2v-11.5c0-0.276 0.224-0.5 0.5-0.5v0h1c0.276 0 0.5 0.224 0.5 0.5v0zM30 20h-2v-11.5c0-0.276 0.224-0.5 0.5-0.5v0h1c0.276 0 0.5 0.224 0.5 0.5v0zM11 20c-2.761 0-5 2.239-5 5s2.239 5 5 5c2.761 0 5-2.239 5-5v0c0-2.761-2.239-5-5-5v0zM11 27c-1.105 0-2-0.895-2-2s0.895-2 2-2c1.105 0 2 0.895 2 2v0c0 1.105-0.895 2-2 2v0z"></path>
</svg>
