<!-- Generated by IcoMoon.io -->
<svg version="1.1" xmlns="http://www.w3.org/2000/svg" width="32" height="32" viewBox="0 0 32 32">
<title>tram</title>
<path d="M31.975 4.775c-0.125-0.537-0.656-0.869-1.2-0.744l-30 7c-0.537 0.125-0.875 0.662-0.75 1.2 0.112 0.456 0.519 0.769 0.975 0.769 0.075 0 0.15-0.006 0.225-0.025l13.775-3.213v4.238h-11c-1.106 0-2 0.894-2 2v14c0 1.106 0.894 2 2 2h24c1.106 0 2-0.894 2-2v-14c0-1.106-0.894-2-2-2h-11v-4.706l14.225-3.319c0.538-0.125 0.875-0.662 0.75-1.2zM4 16h6v6h-6v-6zM22 16h6v6h-6v-6zM28 24v6h-24v-6h24zM20 16v6h-8v-6h8zM11 8c1.656 0 3-1.344 3-3s-1.344-3-3-3-3 1.344-3 3 1.344 3 3 3zM11 4c0.55 0 1 0.45 1 1s-0.45 1-1 1-1-0.45-1-1 0.45-1 1-1zM19 6c1.656 0 3-1.344 3-3s-1.344-3-3-3-3 1.344-3 3 1.344 3 3 3zM19 2c0.55 0 1 0.45 1 1s-0.45 1-1 1-1-0.45-1-1 0.45-1 1-1z"></path>
</svg>
