<!-- Generated by IcoMoon.io -->
<svg version="1.1" xmlns="http://www.w3.org/2000/svg" width="32" height="32" viewBox="0 0 32 32">
<title>tram-solid</title>
<path d="M18 4c1.106 0 2-0.894 2-2s-0.894-2-2-2-2 0.894-2 2 0.894 2 2 2zM31.969 3.244c-0.144-0.538-0.688-0.85-1.225-0.706l-30 8c-0.531 0.144-0.85 0.688-0.706 1.225 0.119 0.444 0.519 0.738 0.963 0.738 0.088 0 0.175-0.012 0.256-0.031l13.744-3.669v5.2h-11c-1.106 0-2 0.894-2 2v14c0 1.106 0.894 2 2 2h24c1.106 0 2-0.894 2-2v-14c0-1.106-0.894-2-2-2h-11v-5.731l14.256-3.8c0.538-0.144 0.85-0.694 0.712-1.225zM11 24h-6v-6h6v6zM21 18h6v6h-6v-6zM19 18v6h-6v-6h6zM12 6c1.106 0 2-0.894 2-2s-0.894-2-2-2-2 0.894-2 2 0.894 2 2 2z"></path>
</svg>
