<!-- Generated by IcoMoon.io -->
<svg version="1.1" xmlns="http://www.w3.org/2000/svg" width="32" height="32" viewBox="0 0 32 32">
<title>transporter-empty-solid</title>
<path d="M24 28h-16c-0 0-0 0-0 0-1.105 0-2 0.895-2 2 0 0 0 0 0 0v0 2h20.001v-2c0 0 0-0 0-0 0-1.105-0.895-2-2-2-0 0-0 0-0 0v0zM31.862 16.776l-1.862-0.776-0.776-1.862c-0.042-0.083-0.126-0.139-0.224-0.139s-0.182 0.056-0.223 0.137l-0.001 0.001-0.776 1.862-1.862 0.776c-0.083 0.042-0.138 0.126-0.138 0.224s0.056 0.182 0.137 0.223l0.001 0.001 1.862 0.776 0.776 1.862c0.042 0.083 0.126 0.139 0.224 0.139s0.182-0.056 0.223-0.137l0.001-0.001 0.776-1.862 1.862-0.776c0.083-0.042 0.138-0.126 0.138-0.224s-0.056-0.182-0.137-0.223l-0.001-0.001zM3.999 2l-0.776-1.861c-0.042-0.083-0.126-0.139-0.224-0.139s-0.182 0.056-0.223 0.137l-0.001 0.001-0.776 1.861-1.862 0.776c-0.083 0.042-0.138 0.126-0.138 0.224s0.056 0.182 0.137 0.223l0.001 0.001 1.862 0.776 0.776 1.861c0.042 0.083 0.126 0.139 0.224 0.139s0.182-0.056 0.223-0.137l0.001-0.001 0.776-1.861 1.862-0.776c0.083-0.042 0.138-0.126 0.138-0.224s-0.056-0.182-0.137-0.223l-0.001-0.001z"></path>
</svg>
