<!-- Generated by IcoMoon.io -->
<svg version="1.1" xmlns="http://www.w3.org/2000/svg" width="32" height="32" viewBox="0 0 32 32">
<title>transporter-2</title>
<path d="M12 16v-1.956l-1.631 1.956zM16.999 24v-2h-2v2zM22 22h-2v2h2zM19.999 14.041v1.959h1.632zM11.098 10.439c0.739-0.882 1.841-1.439 3.073-1.439 0 0 0 0 0 0h3.657c1.232 0 2.334 0.557 3.068 1.433l0.005 0.006 1.301 1.561h2.604l-2.368-2.841c-0.752-0.886-1.745-1.544-2.879-1.876l-0.042-0.011c0.608-0.752 0.978-1.719 0.983-2.771v-0.001c-0.003-2.484-2.016-4.497-4.5-4.5h-0.002c-2.484 0.003-4.497 2.016-4.5 4.5v0c0.005 1.054 0.375 2.021 0.99 2.782l-0.007-0.008c-1.175 0.342-2.167 1-2.911 1.877l-0.007 0.009-2.368 2.841h2.604zM15.997 2l0.001 0 0.001-0c1.381 0 2.5 1.119 2.5 2.5s-1.119 2.5-2.5 2.5v0l-0.001-0-0.001 0c-1.381 0-2.5-1.119-2.5-2.5s1.119-2.5 2.5-2.5v0zM8.131 14h-2.603c-0.868 1.041-0.931 1.631-0.984 2h2.055c0.132-0.369 0.108-0.291 1.533-2zM20 20h2v-0.627c0.557 0.396 1.251 0.633 2.001 0.633 1.387 0 2.584-0.811 3.143-1.985l0.009-0.021h-7.153zM22 26v-0h-12.001c-0 0-0 0-0 0-2.209 0-4 1.791-4 4 0 0 0 0 0 0v0 1c0 0 0 0 0 0 0 0.552 0.448 1 1 1 0 0 0 0 0 0h18.001c0.552-0 1-0.448 1-1v0-1c-0-2.209-1.791-4-3.999-4h-0zM7.999 30c0.001-1.104 0.896-1.999 2-2h12c1.104 0.001 1.999 0.896 2 2v0zM23.869 14c1.422 1.707 1.401 1.631 1.533 2h2.054c-0.054-0.374-0.12-0.963-0.984-2zM10 19.372v0.628h2v-2h-7.153c0.223 0.471 0.531 0.867 0.907 1.185l0.005 0.004c0.603 0.503 1.386 0.809 2.241 0.809 0.748 0 1.442-0.234 2.011-0.634l-0.011 0.007zM10 24h2v-2h-2zM31.862 8.776l-1.862-0.776-0.776-1.861c-0.042-0.083-0.126-0.139-0.224-0.139s-0.182 0.056-0.223 0.137l-0.001 0.001-0.776 1.861-1.862 0.776c-0.083 0.042-0.138 0.126-0.138 0.224s0.056 0.182 0.137 0.223l0.001 0.001 1.862 0.776 0.776 1.861c0.042 0.083 0.126 0.139 0.224 0.139s0.182-0.056 0.223-0.137l0.001-0.001 0.776-1.861 1.862-0.776c0.083-0.042 0.138-0.126 0.138-0.224s-0.056-0.182-0.137-0.223l-0.001-0.001zM5.999 3c-0.005-0.096-0.059-0.178-0.137-0.223l-0.001-0.001-1.862-0.776-0.776-1.861c-0.042-0.083-0.126-0.139-0.224-0.139s-0.182 0.056-0.223 0.137l-0.001 0.001-0.776 1.861-1.862 0.776c-0.083 0.042-0.138 0.126-0.138 0.224s0.056 0.182 0.137 0.223l0.001 0.001 1.862 0.776 0.776 1.862c0.042 0.083 0.126 0.139 0.224 0.139s0.182-0.056 0.223-0.137l0.001-0.001 0.776-1.862 1.862-0.776c0.079-0.046 0.133-0.128 0.138-0.223l0-0.001z"></path>
</svg>
