<!-- Generated by IcoMoon.io -->
<svg version="1.1" xmlns="http://www.w3.org/2000/svg" width="32" height="32" viewBox="0 0 32 32">
<title>transporter-empty</title>
<path d="M31.862 16.776l-1.862-0.776-0.776-1.862c-0.042-0.083-0.126-0.139-0.224-0.139s-0.182 0.056-0.223 0.137l-0.001 0.001-0.776 1.862-1.862 0.776c-0.083 0.042-0.138 0.126-0.138 0.224s0.056 0.182 0.137 0.223l0.001 0.001 1.862 0.776 0.776 1.862c0.042 0.083 0.126 0.139 0.224 0.139s0.182-0.056 0.223-0.137l0.001-0.001 0.776-1.862 1.862-0.776c0.083-0.042 0.138-0.126 0.138-0.224s-0.056-0.182-0.137-0.223l-0.001-0.001zM5.861 2.776l-1.862-0.776-0.776-1.861c-0.042-0.083-0.126-0.139-0.224-0.139s-0.182 0.056-0.223 0.137l-0.001 0.001-0.776 1.861-1.862 0.776c-0.083 0.042-0.138 0.126-0.138 0.224s0.056 0.182 0.137 0.223l0.001 0.001 1.862 0.776 0.776 1.861c0.042 0.083 0.126 0.139 0.224 0.139s0.182-0.056 0.223-0.137l0.001-0.001 0.776-1.861 1.862-0.776c0.083-0.042 0.138-0.126 0.138-0.224s-0.056-0.182-0.137-0.223l-0.001-0.001zM22 26v-0h-12.001c-0 0-0 0-0 0-2.209 0-4 1.791-4 4 0 0 0 0 0 0v0 1c0 0 0 0 0 0 0 0.552 0.448 1 1 1 0 0 0 0 0 0h18.001c0.552-0 1-0.448 1-1v0-1c-0-2.209-1.791-4-4-4h-0zM7.999 30c0.001-1.104 0.896-1.999 2-2h12c1.104 0.001 1.999 0.896 2 2v0z"></path>
</svg>
