<!-- Generated by IcoMoon.io -->
<svg version="1.1" xmlns="http://www.w3.org/2000/svg" width="24" height="32" viewBox="0 0 24 32">
<title>transgender-solid</title>
<path d="M23.25 0h-4.938c-0.669 0-1 0.806-0.531 1.281l1.056 1.056-5.044 5.044c-1.387-0.875-3.031-1.381-4.794-1.381-4.969 0-9 4.031-9 9 0 4.281 2.994 7.869 7 8.775v1.725h-2.25c-0.412 0-0.75 0.337-0.75 0.75v2.5c0 0.413 0.338 0.75 0.75 0.75h2.25v1.75c0 0.413 0.338 0.75 0.75 0.75h2.5c0.412 0 0.75-0.337 0.75-0.75v-1.75h2.25c0.412 0 0.75-0.337 0.75-0.75v-2.5c0-0.413-0.338-0.75-0.75-0.75h-2.25v-1.725c4.006-0.913 7-4.494 7-8.775 0-1.762-0.506-3.406-1.381-4.794l5.044-5.044 1.056 1.056c0.475 0.475 1.281 0.138 1.281-0.531v-4.938c0-0.412-0.337-0.75-0.75-0.75zM9 20c-2.756 0-5-2.244-5-5s2.244-5 5-5 5 2.244 5 5-2.244 5-5 5z"></path>
</svg>
