<!-- Generated by IcoMoon.io -->
<svg version="1.1" xmlns="http://www.w3.org/2000/svg" width="30" height="32" viewBox="0 0 30 32">
<title>transgender-alt</title>
<path d="M29.25 0h-5.5c-0.413 0-0.75 0.338-0.75 0.75v0.5c0 0.413 0.337 0.75 0.75 0.75h2.837l-5.969 5.969c-1.544-1.231-3.494-1.969-5.619-1.969s-4.075 0.737-5.619 1.969l-1.806-1.806 1.944-1.944c0.294-0.294 0.294-0.769 0-1.063l-0.356-0.356c-0.294-0.294-0.769-0.294-1.063 0l-1.938 1.95-2.75-2.75h2.838c0.412 0 0.75-0.337 0.75-0.75v-0.5c0-0.412-0.338-0.75-0.75-0.75h-5.5c-0.412 0-0.75 0.338-0.75 0.75v5.5c0 0.412 0.338 0.75 0.75 0.75h0.5c0.413 0 0.75-0.338 0.75-0.75v-2.837l2.75 2.75-1.944 1.944c-0.294 0.294-0.294 0.769 0 1.063l0.356 0.356c0.294 0.294 0.769 0.294 1.062 0l1.944-1.944 1.806 1.806c-1.237 1.537-1.975 3.488-1.975 5.613 0 4.631 3.5 8.45 8 8.944v2.556h-3.25c-0.412 0-0.75 0.337-0.75 0.75v0.5c0 0.413 0.338 0.75 0.75 0.75h3.25v2.75c0 0.413 0.338 0.75 0.75 0.75h0.5c0.412 0 0.75-0.337 0.75-0.75v-2.75h3.25c0.413 0 0.75-0.337 0.75-0.75v-0.5c0-0.413-0.337-0.75-0.75-0.75h-3.25v-2.556c4.5-0.5 8-4.313 8-8.944 0-2.125-0.738-4.075-1.969-5.619l5.969-5.969v2.838c0 0.412 0.337 0.75 0.75 0.75h0.5c0.413 0 0.75-0.338 0.75-0.75v-5.5c0-0.412-0.337-0.75-0.75-0.75zM15 22c-3.869 0-7-3.125-7-7 0-3.869 3.125-7 7-7 3.869 0 7 3.125 7 7 0 3.869-3.125 7-7 7z"></path>
</svg>
