<!-- Generated by IcoMoon.io -->
<svg version="1.1" xmlns="http://www.w3.org/2000/svg" width="32" height="32" viewBox="0 0 32 32">
<title>transporter-3</title>
<path d="M12 18h-7.153c0.223 0.471 0.531 0.867 0.907 1.185l0.005 0.004c0.603 0.503 1.386 0.809 2.241 0.809 0.748 0 1.442-0.234 2.011-0.634l-0.011 0.007v0.628h2zM15.999 2h-0.002l0.001 0zM19.516 7.272c0.291-0.364 0.533-0.785 0.705-1.241l0.011-0.032h-2.285c-0.457 0.593-1.142 1-1.948 1l-0.001-0-0.001 0c-0.806 0-1.491-0.407-1.948-1h-2.285c0.182 0.487 0.424 0.909 0.723 1.283l-0.007-0.009c-0.609 0.181-1.139 0.428-1.624 0.741l0.024-0.015h10.237c-0.461-0.299-0.992-0.546-1.558-0.716l-0.044-0.011zM16.999 24v-2h-2v2zM15.997 2h-3.738c-0.378 0.567-0.632 1.248-0.71 1.981l-0.002 0.019h2.051c0.239-1.132 1.2-2 2.399-2zM19.999 14.041v1.959h1.632zM22 22h-2v2h2zM18.398 4h2.051c-0.079-0.752-0.333-1.433-0.721-2.017l0.010 0.016h-3.738c1.199 0 2.159 0.868 2.399 2zM20.901 10.439l1.301 1.561h2.604l-1.667-2h-2.694c0.166 0.137 0.316 0.281 0.453 0.435l0.004 0.004zM20 20h2v-0.627c0.557 0.396 1.251 0.633 2.001 0.633 1.387 0 2.584-0.811 3.143-1.985l0.009-0.021h-7.153zM23.869 14l1.284 1.54c0.105 0.131 0.19 0.284 0.246 0.45l0.003 0.010h2.054c-0.054-0.375-0.12-0.963-0.984-2zM10 24h2v-2h-2zM22 26v-0h-12.001c-0 0-0 0-0 0-2.209 0-4 1.791-4 4 0 0 0 0 0 0v0 1c0 0 0 0 0 0 0 0.552 0.448 1 1 1 0 0 0 0 0 0h18.001c0.552-0 1-0.448 1-1v0-1c-0-2.209-1.791-4-3.999-4h-0zM7.999 30c0.001-1.104 0.896-1.999 2-2h12c1.104 0.001 1.999 0.896 2 2v0zM11.098 10.439c0.141-0.159 0.29-0.302 0.45-0.434l0.007-0.005h-2.694l-1.667 2h2.604zM12 14.044l-1.631 1.956h1.631zM6.847 15.54l1.283-1.54h-2.603c-0.868 1.041-0.931 1.631-0.984 2h2.055c0.059-0.176 0.144-0.329 0.251-0.463l-0.002 0.003zM31.862 2.777l-1.862-0.776-0.776-1.862c-0.042-0.083-0.126-0.139-0.224-0.139s-0.182 0.056-0.223 0.137l-0.001 0.001-0.776 1.862-1.862 0.776c-0.083 0.042-0.138 0.126-0.138 0.224s0.056 0.182 0.137 0.223l0.001 0.001 1.862 0.776 0.776 1.862c0.042 0.083 0.126 0.139 0.224 0.139s0.182-0.056 0.223-0.137l0.001-0.001 0.776-1.862 1.862-0.776c0.083-0.042 0.138-0.126 0.138-0.224s-0.056-0.182-0.137-0.223l-0.001-0.001zM5.861 22.776l-1.862-0.776-0.776-1.861c-0.042-0.083-0.126-0.139-0.224-0.139s-0.182 0.056-0.223 0.137l-0.001 0.001-0.776 1.861-1.862 0.776c-0.083 0.042-0.138 0.126-0.138 0.224s0.056 0.182 0.137 0.223l0.001 0.001 1.862 0.776 0.776 1.861c0.042 0.083 0.126 0.139 0.224 0.139s0.182-0.056 0.223-0.137l0.001-0.001 0.776-1.861 1.862-0.776c0.083-0.042 0.138-0.126 0.138-0.224s-0.056-0.182-0.137-0.223l-0.001-0.001z"></path>
</svg>
