<!-- Generated by IcoMoon.io -->
<svg version="1.1" xmlns="http://www.w3.org/2000/svg" width="32" height="32" viewBox="0 0 32 32">
<title>transporter-solid</title>
<path d="M24 28h-3.5v-13.076l1.964 2.357c0.369 0.441 0.92 0.719 1.536 0.719 1.104 0 2-0.895 2-2 0-0.489-0.175-0.936-0.466-1.283l0.003 0.003-4.4-5.28c-0.737-0.882-1.838-1.439-3.068-1.439-0.002 0-0.003 0-0.005 0h-4.127c-0.002 0-0.004 0-0.006 0-1.23 0-2.33 0.557-3.062 1.433l-0.005 0.006-4.401 5.28c-0.288 0.344-0.464 0.792-0.464 1.28 0 1.104 0.895 2 2 2 0.616 0 1.167-0.278 1.534-0.716l0.003-0.003 1.964-2.357v13.076h-3.5c-0 0-0 0-0 0-1.105 0-2 0.895-2 2 0 0 0 0 0 0v0 2h20.001v-2c0 0 0-0 0-0 0-1.105-0.895-2-2-2-0 0-0 0-0 0v0zM16.5 28h-1v-8h1zM15.997 6l0.001-0 0.001 0c1.657 0 3-1.343 3-3s-1.343-3-3-3v0l-0.001 0-0.001-0c-1.657 0-3 1.343-3 3s1.343 3 3 3v0zM31.862 2.777l-1.861-0.776-0.776-1.862c-0.042-0.083-0.126-0.139-0.224-0.139s-0.182 0.056-0.223 0.137l-0.001 0.001-0.776 1.862-1.861 0.776c-0.083 0.042-0.138 0.126-0.138 0.224s0.056 0.182 0.137 0.223l0.001 0.001 1.861 0.776 0.776 1.862c0.042 0.083 0.126 0.139 0.224 0.139s0.182-0.056 0.223-0.137l0.001-0.001 0.776-1.862 1.861-0.776c0.083-0.042 0.138-0.126 0.138-0.224s-0.056-0.182-0.137-0.223l-0.001-0.001zM3.999 6l-0.776-1.862c-0.042-0.083-0.126-0.139-0.224-0.139s-0.182 0.056-0.223 0.137l-0.001 0.001-0.776 1.862-1.862 0.776c-0.083 0.042-0.138 0.126-0.138 0.224s0.056 0.182 0.137 0.223l0.001 0.001 1.862 0.776 0.776 1.862c0.042 0.083 0.126 0.139 0.224 0.139s0.182-0.056 0.223-0.137l0.001-0.001 0.776-1.862 1.862-0.776c0.083-0.042 0.138-0.126 0.138-0.224s-0.056-0.182-0.137-0.223l-0.001-0.001z"></path>
</svg>
