<!-- Generated by IcoMoon.io -->
<svg version="1.1" xmlns="http://www.w3.org/2000/svg" width="32" height="32" viewBox="0 0 32 32">
<title>transporter-2-solid</title>
<path d="M20.5 20h-4v2h4zM16.5 26h4v-2h-4zM15.997 6l0.001-0 0.001 0c1.657 0 3-1.343 3-3s-1.343-3-3-3v0l-0.001 0-0.001-0c-1.657 0-3 1.343-3 3s1.343 3 3 3v0zM20.5 16h-9v2h9zM22.464 17.28c0.369 0.441 0.92 0.72 1.536 0.72 0.489 0 0.936-0.175 1.284-0.466l-0.003 0.003c0.425-0.363 0.693-0.899 0.693-1.498 0-0.013-0-0.026-0-0.040l0 0.002h-4.576zM21.137 9.439c-0.737-0.882-1.838-1.439-3.068-1.439-0.002 0-0.003 0-0.005 0h-4.127c-0.002 0-0.004 0-0.006 0-1.23 0-2.33 0.557-3.062 1.433l-0.005 0.006-3.801 4.561h17.873zM24 28h-16c-0 0-0 0-0 0-1.105 0-2 0.895-2 2 0 0 0 0 0 0v0 2h20.001v-2c0 0 0-0 0-0 0-1.105-0.895-2-2-2-0 0-0 0-0 0v0zM15.5 20h-4v2h4zM9.536 17.28l1.067-1.28h-4.576c-0 0.011-0 0.024-0 0.038 0 0.599 0.268 1.136 0.691 1.496l0.003 0.002c0.344 0.288 0.792 0.463 1.28 0.463 0.616 0 1.167-0.278 1.534-0.716l0.003-0.003zM11.5 26h4v-2h-4zM31.862 8.776l-1.862-0.776-0.776-1.861c-0.042-0.083-0.126-0.139-0.224-0.139s-0.182 0.056-0.223 0.137l-0.001 0.001-0.776 1.861-1.862 0.776c-0.083 0.042-0.138 0.126-0.138 0.224s0.056 0.182 0.137 0.223l0.001 0.001 1.862 0.776 0.776 1.861c0.042 0.083 0.126 0.139 0.224 0.139s0.182-0.056 0.223-0.137l0.001-0.001 0.776-1.861 1.862-0.776c0.083-0.042 0.138-0.126 0.138-0.224s-0.056-0.182-0.137-0.223l-0.001-0.001zM3.999 2l-0.776-1.861c-0.042-0.083-0.126-0.139-0.224-0.139s-0.182 0.056-0.223 0.137l-0.001 0.001-0.776 1.861-1.862 0.776c-0.083 0.042-0.138 0.126-0.138 0.224s0.056 0.182 0.137 0.223l0.001 0.001 1.862 0.776 0.776 1.862c0.042 0.083 0.126 0.139 0.224 0.139s0.182-0.056 0.223-0.137l0.001-0.001 0.776-1.862 1.862-0.776c0.083-0.042 0.138-0.126 0.138-0.224s-0.056-0.182-0.137-0.223l-0.001-0.001z"></path>
</svg>
