<!-- Generated by IcoMoon.io -->
<svg version="1.1" xmlns="http://www.w3.org/2000/svg" width="30" height="32" viewBox="0 0 30 32">
<title>transgender-alt-solid</title>
<path d="M29.25 0h-4.938c-0.669 0-1 0.806-0.531 1.281l1.056 1.056-5.044 5.044c-1.387-0.875-3.031-1.381-4.794-1.381s-3.406 0.506-4.794 1.381l-1.031-1.031 1.238-1.237c0.294-0.294 0.294-0.769 0-1.063l-1.769-1.769c-0.294-0.294-0.769-0.294-1.063 0l-1.237 1.237-1.188-1.188 1.056-1.056c0.481-0.469 0.144-1.275-0.525-1.275h-4.938c-0.412 0-0.75 0.338-0.75 0.75v4.938c0 0.669 0.806 1 1.281 0.531l1.056-1.056 1.188 1.188-1.238 1.237c-0.294 0.294-0.294 0.769 0 1.062l1.769 1.769c0.294 0.294 0.769 0.294 1.063 0l1.237-1.238 1.031 1.031c-0.881 1.381-1.388 3.025-1.388 4.787 0 4.281 2.994 7.869 7 8.775v1.725h-2.25c-0.412 0-0.75 0.337-0.75 0.75v2.5c0 0.413 0.338 0.75 0.75 0.75h2.25v1.75c0 0.413 0.338 0.75 0.75 0.75h2.5c0.413 0 0.75-0.337 0.75-0.75v-1.75h2.25c0.413 0 0.75-0.337 0.75-0.75v-2.5c0-0.413-0.337-0.75-0.75-0.75h-2.25v-1.725c4.006-0.913 7-4.494 7-8.775 0-1.762-0.506-3.406-1.381-4.794l5.044-5.044 1.056 1.056c0.475 0.475 1.281 0.138 1.281-0.531v-4.938c0-0.412-0.337-0.75-0.75-0.75zM15 20c-2.756 0-5-2.244-5-5s2.244-5 5-5 5 2.244 5 5-2.244 5-5 5z"></path>
</svg>
