<!-- Generated by IcoMoon.io -->
<svg version="1.1" xmlns="http://www.w3.org/2000/svg" width="28" height="32" viewBox="0 0 28 32">
<title>trash-undo-solid</title>
<path d="M3.325 29.188c0.102 1.574 1.403 2.812 2.994 2.813h15.363c1.591-0 2.892-1.238 2.993-2.804l0-0.009 1.325-21.188h-24zM6.274 17.346l5.25-5.099c0.553-0.537 1.476-0.14 1.476 0.654v2.604c5.154 0.050 9 1.148 9 6.495 0 2.143-1.259 4.266-2.651 5.375-0.434 0.346-1.053-0.088-0.893-0.65 1.442-5.058-0.409-6.359-5.456-6.42v2.793c0 0.793-0.922 1.192-1.476 0.654l-5.25-5.099c-0.169-0.167-0.273-0.398-0.273-0.654s0.104-0.487 0.273-0.654l0-0zM27 2h-7.5l-0.587-1.169c-0.251-0.497-0.758-0.831-1.343-0.831-0 0-0.001 0-0.001 0h-7.144c-0.002 0-0.004 0-0.006 0-0.582 0-1.085 0.335-1.328 0.823l-0.004 0.009-0.588 1.169h-7.5c-0.552 0-1 0.448-1 1v0 2c0 0.552 0.448 1 1 1v0h26c0.552 0 1-0.448 1-1v0-2c0-0.552-0.448-1-1-1v0z"></path>
</svg>
