<!-- Generated by IcoMoon.io -->
<svg version="1.1" xmlns="http://www.w3.org/2000/svg" width="28" height="32" viewBox="0 0 28 32">
<title>trash-undo</title>
<path d="M27.5 4h-6.5l-2.099-2.8c-0.498-0.663-1.573-1.2-2.401-1.2h-5c-0.828 0-1.902 0.537-2.401 1.2l-2.099 2.8h-6.5c-0.276 0-0.5 0.224-0.5 0.5v0 1c0 0.276 0.224 0.5 0.5 0.5v0h1.182l2.074 23.269c0.137 1.508 1.475 2.731 2.989 2.731h14.511c1.514 0 2.852-1.224 2.989-2.731l2.074-23.269h1.182c0.276 0 0.5-0.224 0.5-0.5v0-1c0-0.276-0.224-0.5-0.5-0.5v0zM10.699 2.401c0.195-0.23 0.479-0.381 0.797-0.4l0.003-0h5c0.322 0.019 0.605 0.17 0.799 0.399l0.001 0.002 1.199 1.599h-9zM22.25 29.088c-0.052 0.508-0.474 0.903-0.989 0.912h-14.521c-0.516-0.009-0.938-0.404-0.99-0.908l-0-0.004-2.063-23.088h20.625zM12.047 22.521c0.313 0.297 0.737 0.479 1.203 0.479 0.966 0 1.75-0.784 1.75-1.75 0-0 0-0 0-0v0-3.25h1c1.656 0.002 2.998 1.344 3 3v0c0 0.552 0.448 1 1 1s1-0.448 1-1v0c-0.003-2.76-2.24-4.997-5-5h-1v-3.25c0-0 0-0 0-0 0-0.966-0.784-1.75-1.75-1.75-0.466 0-0.89 0.182-1.204 0.48l0.001-0.001-4.5 4.25c-0.337 0.32-0.547 0.771-0.547 1.271s0.21 0.952 0.547 1.27l0.001 0.001zM13 13.33v7.34l-3.887-3.67z"></path>
</svg>
