<!-- Generated by IcoMoon.io -->
<svg version="1.1" xmlns="http://www.w3.org/2000/svg" width="28" height="32" viewBox="0 0 28 32">
<title>trash-alt-solid</title>
<path d="M2 29c0 1.657 1.343 3 3 3v0h18c1.657 0 3-1.343 3-3v0-21h-24zM19 13c0-0.552 0.448-1 1-1s1 0.448 1 1v0 14c0 0.552-0.448 1-1 1s-1-0.448-1-1v0zM13 13c0-0.552 0.448-1 1-1s1 0.448 1 1v0 14c0 0.552-0.448 1-1 1s-1-0.448-1-1v0zM7 13c0-0.552 0.448-1 1-1s1 0.448 1 1v0 14c0 0.552-0.448 1-1 1s-1-0.448-1-1v0zM27 2h-7.5l-0.587-1.169c-0.251-0.497-0.758-0.831-1.343-0.831-0 0-0.001 0-0.001 0h-7.144c-0.002 0-0.004 0-0.006 0-0.582 0-1.085 0.335-1.328 0.823l-0.004 0.009-0.588 1.169h-7.5c-0.552 0-1 0.448-1 1v0 2c0 0.552 0.448 1 1 1v0h26c0.552 0 1-0.448 1-1v0-2c0-0.552-0.448-1-1-1v0z"></path>
</svg>
