<!-- Generated by IcoMoon.io -->
<svg version="1.1" xmlns="http://www.w3.org/2000/svg" width="28" height="32" viewBox="0 0 28 32">
<title>trash</title>
<path d="M27.5 4h-6.5l-2.1-2.8c-0.553-0.732-1.422-1.2-2.4-1.2v0h-5c-0.978 0-1.847 0.468-2.395 1.192l-0.005 0.008-2.1 2.8h-6.5c-0.276 0-0.5 0.224-0.5 0.5v0 1c0 0.276 0.224 0.5 0.5 0.5v0h1.181l2.075 23.269c0.142 1.537 1.425 2.731 2.987 2.731h14.513c1.562-0 2.845-1.194 2.987-2.719l0.001-0.012 2.075-23.269h1.181c0.276 0 0.5-0.224 0.5-0.5v0-1c0-0.276-0.224-0.5-0.5-0.5v0zM10.7 2.4c0.185-0.243 0.474-0.399 0.8-0.4h5c0.326 0.001 0.615 0.157 0.798 0.398l0.002 0.002 1.2 1.6h-9zM22.25 29.087c-0.044 0.513-0.471 0.913-0.991 0.913-0.001 0-0.002 0-0.003 0h-14.512c-0.001 0-0.002 0-0.003 0-0.52 0-0.947-0.4-0.991-0.909l-0-0.004-2.063-23.087h20.625z"></path>
</svg>
