<!-- Generated by IcoMoon.io -->
<svg version="1.1" xmlns="http://www.w3.org/2000/svg" width="28" height="32" viewBox="0 0 28 32">
<title>trash-restore-solid</title>
<path d="M3.325 29.188c0.102 1.574 1.403 2.812 2.994 2.813h15.363c1.591-0 2.892-1.238 2.993-2.804l0-0.009 1.325-21.188h-24zM7.707 18.2l5.586-5.891c0.176-0.19 0.428-0.309 0.707-0.309s0.53 0.119 0.706 0.308l0.001 0.001 5.586 5.891c0.63 0.664 0.184 1.8-0.707 1.8h-3.586v7c0 0.552-0.448 1-1 1v0h-2c-0.552 0-1-0.448-1-1v0-7h-3.586c-0.891 0-1.338-1.136-0.707-1.8zM27 2h-7.5l-0.587-1.169c-0.251-0.497-0.758-0.831-1.343-0.831-0 0-0.001 0-0.001 0h-7.144c-0.002 0-0.004 0-0.006 0-0.582 0-1.085 0.335-1.328 0.823l-0.004 0.009-0.588 1.169h-7.5c-0.552 0-1 0.448-1 1v0 2c0 0.552 0.448 1 1 1v0h26c0.552 0 1-0.448 1-1v0-2c0-0.552-0.448-1-1-1v0z"></path>
</svg>
