<!-- Generated by IcoMoon.io -->
<svg version="1.1" xmlns="http://www.w3.org/2000/svg" width="28" height="32" viewBox="0 0 28 32">
<title>trash-alt</title>
<path d="M18.5 27h1c0.276 0 0.5-0.224 0.5-0.5v0-17c0-0.276-0.224-0.5-0.5-0.5v0h-1c-0.276 0-0.5 0.224-0.5 0.5v0 17c0 0.276 0.224 0.5 0.5 0.5v0zM8.5 27h1c0.276 0 0.5-0.224 0.5-0.5v0-17c0-0.276-0.224-0.5-0.5-0.5v0h-1c-0.276 0-0.5 0.224-0.5 0.5v0 17c0 0.276 0.224 0.5 0.5 0.5v0zM27.5 4h-6.5l-2.1-2.8c-0.553-0.732-1.422-1.2-2.4-1.2v0h-5c-0.978 0-1.847 0.468-2.395 1.192l-0.005 0.008-2.1 2.8h-6.5c-0.276 0-0.5 0.224-0.5 0.5v0 1c0 0.276 0.224 0.5 0.5 0.5v0h1.5v23c0 1.657 1.343 3 3 3v0h18c1.657 0 3-1.343 3-3v0-23h1.5c0.276 0 0.5-0.224 0.5-0.5v0-1c0-0.276-0.224-0.5-0.5-0.5v0zM10.7 2.4c0.185-0.243 0.474-0.399 0.8-0.4h5c0.326 0.001 0.615 0.157 0.798 0.398l0.002 0.002 1.2 1.6h-9zM24 29c0 0.552-0.448 1-1 1v0h-18c-0.552 0-1-0.448-1-1v0-23h20zM13.5 27h1c0.276 0 0.5-0.224 0.5-0.5v0-17c0-0.276-0.224-0.5-0.5-0.5v0h-1c-0.276 0-0.5 0.224-0.5 0.5v0 17c0 0.276 0.224 0.5 0.5 0.5v0z"></path>
</svg>
