<!-- Generated by IcoMoon.io -->
<svg version="1.1" xmlns="http://www.w3.org/2000/svg" width="36" height="32" viewBox="0 0 36 32">
<title>treasure-chest</title>
<path d="M30 2h-24c-3.314 0-6 2.686-6 6v20c0 1.104 0.896 2 2 2h32c1.104 0 2-0.896 2-2v-20c0-3.314-2.686-6-6-6zM6 28h-4v-10h4v10zM6 16h-4v-8c0-2.206 1.794-4 4-4v12zM28 28h-20v-10h4v3c0 1.654 1.346 3 3 3h6c1.654 0 3-1.346 3-3v-3h4v10zM14 21v-8c0-0.553 0.447-1 1-1h6c0.552 0 1 0.447 1 1v8c0 0.552-0.448 1-1 1h-6c-0.553 0-1-0.448-1-1zM28 16h-4v-3c0-1.654-1.346-3-3-3h-6c-1.654 0-3 1.346-3 3v3h-4v-12h20v12zM34 28h-4v-10h4v10zM34 16h-4v-12c2.206 0 4 1.794 4 4v8zM18 20c0.552 0 1-0.448 1-1v-4c0-0.553-0.448-1-1-1s-1 0.447-1 1v4c0 0.552 0.448 1 1 1z"></path>
</svg>
