<!-- Generated by IcoMoon.io -->
<svg version="1.1" xmlns="http://www.w3.org/2000/svg" width="36" height="32" viewBox="0 0 36 32">
<title>treasure-chest-solid</title>
<path d="M0 28c0 1.104 0.896 2 2 2h4v-12h-6v10zM0 8v8h6v-14c-3.314 0-6 2.686-6 6zM22 21c0 0.552-0.448 1-1 1h-6c-0.553 0-1-0.448-1-1v-3h-6v12h20v-12h-6v3zM30 30h4c1.104 0 2-0.896 2-2v-10h-6v12zM8 16h6v-3c0-0.553 0.447-1 1-1h6c0.552 0 1 0.447 1 1v3h6v-14h-20v14zM30 2v14h6v-8c0-3.314-2.686-6-6-6zM19 19v-4c0-0.553-0.448-1-1-1s-1 0.447-1 1v4c0 0.552 0.448 1 1 1s1-0.448 1-1z"></path>
</svg>
