<!-- Generated by IcoMoon.io -->
<svg version="1.1" xmlns="http://www.w3.org/2000/svg" width="32" height="32" viewBox="0 0 32 32">
<title>tree-large</title>
<path d="M31.581 28.775l-3.712-4.775h0.131c0.756 0 1.45-0.425 1.788-1.106 0.337-0.675 0.269-1.488-0.188-2.094l-5.137-6.856c0.581-0.137 1.075-0.531 1.344-1.081 0.331-0.694 0.238-1.512-0.244-2.119l-8-9.994c-0.381-0.475-0.956-0.75-1.563-0.75s-1.181 0.275-1.563 0.75l-8 10c-0.481 0.6-0.575 1.425-0.244 2.119 0.263 0.55 0.763 0.944 1.344 1.081l-5.138 6.85c-0.456 0.606-0.525 1.419-0.188 2.094 0.337 0.681 1.031 1.106 1.788 1.106h0.131l-3.712 4.775c-0.469 0.6-0.556 1.419-0.219 2.106s1.038 1.119 1.8 1.119h28c0.762 0 1.462-0.438 1.794-1.119s0.256-1.506-0.212-2.106zM2 30l6.225-8h-4.225l7.5-10h-3.5l8-10 8 10h-3.5l7.5 10h-4.225l6.225 8h-28z"></path>
</svg>
