<!-- Generated by IcoMoon.io -->
<svg version="1.1" xmlns="http://www.w3.org/2000/svg" width="28" height="32" viewBox="0 0 28 32">
<title>tree-large-solid</title>
<path d="M27.475 28.475l-5.613-6.475h2.25c1.6 0 2.469-1.825 1.45-3.031l-5.931-6.969h2.8c1.331 0 2.056-1.406 1.206-2.331l-8.431-9.156c-0.625-0.681-1.787-0.681-2.412 0l-8.425 9.156c-0.85 0.925-0.125 2.331 1.206 2.331h2.8l-5.938 6.969c-1.019 1.206-0.15 3.031 1.45 3.031h2.25l-5.612 6.475c-1.188 1.369-0.237 3.525 1.544 3.525h23.856c1.788 0 2.731-2.163 1.55-3.525z"></path>
</svg>
