<!-- Generated by IcoMoon.io -->
<svg version="1.1" xmlns="http://www.w3.org/2000/svg" width="40" height="32" viewBox="0 0 40 32">
<title>trees-solid</title>
<path d="M18.651 18h1.914c0.563 0 1.061-0.313 1.299-0.816 0.238-0.503 0.159-1.079-0.205-1.503l-4.883-5.681h1.806c0.569 0 1.081-0.334 1.304-0.851 0.22-0.508 0.116-1.099-0.265-1.505l-6.892-7.343c-0.377-0.403-1.080-0.403-1.457 0l-6.893 7.343c-0.381 0.406-0.484 0.997-0.265 1.505 0.223 0.516 0.736 0.851 1.304 0.851h1.806l-4.884 5.682c-0.363 0.424-0.441 0.999-0.204 1.502s0.735 0.816 1.299 0.816h1.914l-4.993 5.656c-0.375 0.424-0.46 1.006-0.223 1.516 0.234 0.503 0.75 0.828 1.313 0.828h8.554v1.528l-1.893 3.025c-0.332 0.665 0.151 1.448 0.894 1.448h5.998c0.743 0 1.227-0.782 0.894-1.448l-1.893-3.025v-1.528h8.554c0.563 0 1.079-0.325 1.313-0.828 0.238-0.511 0.152-1.092-0.223-1.516l-4.994-5.656zM39.644 23.656l-4.993-5.656h1.914c0.563 0 1.061-0.313 1.299-0.816 0.237-0.503 0.159-1.079-0.205-1.503l-4.883-5.681h1.806c0.569 0 1.081-0.334 1.304-0.851 0.22-0.508 0.116-1.099-0.265-1.505l-6.892-7.343c-0.377-0.403-1.080-0.403-1.457 0l-5.941 6.329c0.693 0.961 0.873 2.206 0.396 3.31-0.25 0.579-0.649 1.064-1.141 1.418l2.596 3.020c0.871 1.016 1.065 2.452 0.496 3.658-0.262 0.556-0.654 1.015-1.132 1.349l2.601 2.947c0.541 0.613 0.834 0.884 0.853 1.668v3.528l-1.893 3.025c-0.332 0.665 0.151 1.448 0.894 1.448h5.997c0.743 0 1.227-0.782 0.894-1.448l-1.893-3.024v-1.528h8.554c0.563 0 1.079-0.325 1.313-0.828 0.237-0.511 0.152-1.092-0.223-1.516z"></path>
</svg>
