<!-- Generated by IcoMoon.io -->
<svg version="1.1" xmlns="http://www.w3.org/2000/svg" width="32" height="32" viewBox="0 0 32 32">
<title>tree-alt</title>
<path d="M28.746 12.686c0.168-0.554 0.254-1.118 0.254-1.686 0-3.309-2.691-6-6-6-0.359 0-0.715 0.033-1.068 0.098-0.436-2.882-2.93-5.098-5.932-5.098s-5.496 2.216-5.932 5.098c-0.321-0.062-0.69-0.097-1.068-0.098h-0c-3.309 0-6 2.691-6 6 0 0.568 0.086 1.133 0.254 1.686-1.982 1.012-3.254 3.034-3.254 5.314 0 3.309 2.691 6 6 6h7v3.528l-1.512 3.025c-0.332 0.665 0.151 1.448 0.894 1.448h7.236c0.743 0 1.227-0.782 0.894-1.448l-1.512-3.025v-3.528h7c3.309 0 6-2.691 6-6 0-2.279-1.271-4.302-3.254-5.314zM14 30l1-2v-4h2v4l1 2h-4zM26 22h-20c-2.205 0-4-1.794-4-4 0-1.758 1.143-3.287 2.842-3.805l1.135-0.346-0.533-1.061c-0.293-0.586-0.444-1.188-0.444-1.789 0-2.206 1.795-4 4-4 0.896 0 1.247 0.184 3.197 1.061-0.181-1.981-0.143-1.589-0.197-2.061 0-2.206 1.795-4 4-4s4 1.794 3.984 4.151l-0.182 1.91c1.765-0.794 2.204-1.061 3.198-1.061 2.205 0 4 1.794 4 4 0 0.601-0.151 1.203-0.443 1.789l-0.533 1.061 1.135 0.346c1.699 0.518 2.841 2.047 2.841 3.805 0 2.206-1.795 4-4 4z"></path>
</svg>
