<!-- Generated by IcoMoon.io -->
<svg version="1.1" xmlns="http://www.w3.org/2000/svg" width="28" height="32" viewBox="0 0 28 32">
<title>tree-christmas-solid</title>
<path d="M14 10l1.669-3.331 3.331-1.669-3.331-1.669-1.669-3.331-1.669 3.331-3.331 1.669 3.331 1.669 1.669 3.331zM27.475 28.475l-5.613-6.475h2.25c1.6 0 2.469-1.644 1.45-2.719l-9.137-9.656-2.425 3.375-2.425-3.375-9.137 9.656c-1.019 1.075-0.15 2.719 1.45 2.719h2.25l-5.612 6.475c-1.188 1.369-0.237 3.525 1.544 3.525h23.856c1.788 0 2.731-2.163 1.55-3.525zM10 19.5c-0.831 0-1.5-0.669-1.5-1.5s0.669-1.5 1.5-1.5 1.5 0.669 1.5 1.5-0.669 1.5-1.5 1.5zM18 27.5c-0.831 0-1.5-0.669-1.5-1.5s0.669-1.5 1.5-1.5 1.5 0.669 1.5 1.5-0.669 1.5-1.5 1.5z"></path>
</svg>
