<!-- Generated by IcoMoon.io -->
<svg version="1.1" xmlns="http://www.w3.org/2000/svg" width="32" height="32" viewBox="0 0 32 32">
<title>tree-christmas</title>
<path d="M19 22c-1.656 0-3 1.344-3 3s1.344 3 3 3 3-1.344 3-3-1.344-3-3-3zM19 26c-0.55 0-1-0.45-1-1s0.45-1 1-1 1 0.45 1 1-0.45 1-1 1zM17 17c0-1.656-1.344-3-3-3s-3 1.344-3 3 1.344 3 3 3 3-1.344 3-3zM14 18c-0.55 0-1-0.45-1-1s0.45-1 1-1 1 0.45 1 1-0.45 1-1 1zM31.581 28.775l-5.281-6.794c0.656-0.1 1.231-0.519 1.519-1.131 0.331-0.7 0.225-1.531-0.275-2.131l-8.381-10.063 1.744-0.869c0.675-0.338 1.106-1.031 1.106-1.787s-0.425-1.45-1.106-1.787l-2.069-1.038-1.038-2.069c-0.35-0.681-1.044-1.106-1.8-1.106s-1.45 0.425-1.787 1.106l-1.037 2.069-2.069 1.038c-0.681 0.338-1.106 1.031-1.106 1.787s0.425 1.45 1.106 1.787l1.744 0.869-8.381 10.063c-0.494 0.594-0.606 1.425-0.275 2.131 0.287 0.613 0.862 1.031 1.519 1.131l-5.294 6.794c-0.469 0.6-0.556 1.419-0.219 2.106s1.038 1.119 1.8 1.119h28c0.762 0 1.462-0.438 1.794-1.119s0.256-1.506-0.212-2.106zM12 6l2.669-1.331 1.331-2.669 1.331 2.669 2.669 1.331-2.669 1.331-1.331 2.669-1.331-2.669-2.669-1.331zM2 30l7.775-10h-3.775l7.975-9.575 0.231 0.469c0.338 0.675 1.031 1.106 1.787 1.106s1.45-0.425 1.788-1.106l0.231-0.469 7.988 9.575h-3.775l7.775 10h-28z"></path>
</svg>
