<!-- Generated by IcoMoon.io -->
<svg version="1.1" xmlns="http://www.w3.org/2000/svg" width="40" height="32" viewBox="0 0 40 32">
<title>tree-palm-solid</title>
<path d="M28.047 4c-2.464 0-4.691 0.734-6.438 1.906-1.164-3.396-5.024-5.906-9.658-5.906-5.039 0-9.211 2.953-9.938 6.804-0.116 0.621 0.407 1.196 1.11 1.196h3.375l1.5-3 2.091 4.183c-0.221 0.192-0.455 0.356-0.666 0.567-3.563 3.563-4.425 8.601-2.214 11.837 0.356 0.521 1.133 0.559 1.629 0.063l9.133-9.134c0.67 6.547-0.714 13.438-1.616 17.009-0.317 1.258 0.642 2.476 1.942 2.476h3.446c0.984 0 1.854-0.711 1.982-1.688 0.924-7.092-0.723-14.771-1.651-18.313h8.423l1.5-3 1.5 3h3.375c0.703 0 1.226-0.576 1.109-1.196-0.726-3.851-4.898-6.804-9.936-6.804z"></path>
</svg>
