<!-- Generated by IcoMoon.io -->
<svg version="1.1" xmlns="http://www.w3.org/2000/svg" width="40" height="32" viewBox="0 0 40 32">
<title>tree-palm</title>
<path d="M29.047 4c-2.789 0-5.445 0.924-7.492 2.491-1.337-3.741-5.579-6.491-10.602-6.491-5.494 0-10.088 3.204-10.919 7.618-0.23 1.222 0.744 2.382 2.091 2.382h3.727l2.148-1.72 0.831 0.666c-0.036 0.035-0.076 0.063-0.112 0.096-3.887 3.887-4.867 9.399-2.334 13.107 0.688 1.005 2.181 1.191 3.194 0.173l7.539-8.264c0.188 6.357-1.271 12.621-2.045 15.412-0.047 0.162-0.075 0.347-0.075 0.539 0 1.095 0.885 1.984 1.978 1.99h5.652c0.002 0 0.004 0 0.006 0 0.985 0 1.802-0.72 1.954-1.662l0.002-0.011c0.938-5.813 0.105-12.044-0.781-16.327h5.604l1.586-1.586 1.586 1.586h5.289c1.341 0 2.321-1.152 2.091-2.382-0.832-4.414-5.426-7.618-10.919-7.618zM8 5.72l-2.849 2.28-3.151-0.011c0.643-3.414 4.492-5.989 8.953-5.989 3.355 0 6.272 1.43 7.834 3.536-2.701-0.518-5.772 0.218-8.394 2.097zM8.037 21.021c-1.961-2.868-1.059-7.41 2.096-10.563 2.031-2.031 4.592-3.112 6.928-3.112 0.020-0 0.044-0 0.067-0 1.026 0 1.996 0.236 2.86 0.657l-0.039-0.017zM22.629 30l-5.629 0.003c0.883-3.182 2.645-10.716 2.018-18.029l1.759-1.928c0.758 2.634 3.144 11.891 1.852 19.953zM33.414 12l-2.414-2.414-2.414 2.414h-5.221c-0.548-2.277-0.991-3.571-1.009-3.625 1.737-1.5 4.151-2.375 6.691-2.375 4.461 0 8.312 2.575 8.828 6z"></path>
</svg>
