<!-- Generated by IcoMoon.io -->
<svg version="1.1" xmlns="http://www.w3.org/2000/svg" width="40" height="32" viewBox="0 0 40 32">
<title>trees</title>
<path d="M39.756 24.341l-4.633-5.347h1.877c0.389 0 0.744-0.226 0.906-0.579 0.164-0.354 0.109-0.77-0.142-1.067l-4.531-5.357h1.767c0.394 0 0.752-0.232 0.914-0.593 0.16-0.361 0.094-0.783-0.17-1.077l-9-10.004c-0.383-0.422-1.106-0.422-1.488 0l-5.256 5.843-5.256-5.843c-0.383-0.422-1.106-0.422-1.488 0l-9 10.004c-0.159 0.177-0.256 0.412-0.256 0.67 0 0.147 0.032 0.287 0.089 0.413l-0.003-0.006c0.162 0.361 0.519 0.593 0.914 0.593h1.768l-4.531 5.357c-0.252 0.297-0.307 0.713-0.143 1.067 0.162 0.354 0.518 0.579 0.906 0.579h1.877l-4.633 5.347c-0.256 0.296-0.316 0.715-0.154 1.071 0.164 0.357 0.519 0.585 0.91 0.585h10v1.529l-1.512 3.026c-0.332 0.665 0.151 1.448 0.894 1.448h7.236c0.743 0 1.227-0.782 0.894-1.448l-1.512-3.026v-1.529h6v1.529l-1.512 3.026c-0.332 0.665 0.151 1.448 0.894 1.448h7.236c0.743 0 1.227-0.782 0.894-1.448l-1.512-3.026v-1.529h10c0.391 0 0.746-0.229 0.91-0.585 0.163-0.356 0.102-0.774-0.154-1.071zM12 29.999l1-2.001v-2.001h2v2.001l1 2.001h-4zM3.174 24l6-7h-4.018l5.924-7h-3.834l6.754-7.505 6.754 7.505h-3.834l5.924 7h-4.017l6 7h-21.652zM24 29.999l1-2.001v-2.001h2v2.001l1 2.001h-4zM27.46 24l-4.337-5.006h1.877c0.389 0 0.744-0.226 0.906-0.579 0.164-0.354 0.109-0.77-0.142-1.067l-4.531-5.357h1.767c0.394 0 0.752-0.232 0.914-0.593 0.16-0.361 0.094-0.783-0.17-1.077l-2.393-2.66 4.649-5.166 6.754 7.505h-3.834l5.924 7h-4.017l6 7h-9.366z"></path>
</svg>
