<!-- Generated by IcoMoon.io -->
<svg version="1.1" xmlns="http://www.w3.org/2000/svg" width="32" height="32" viewBox="0 0 32 32">
<title>triangle-music</title>
<path d="M16.004 16c-0.013-0-0.029-0-0.044-0-2.233 0-4.043 1.81-4.043 4.043s1.81 4.043 4.043 4.043c2.233 0 4.043-1.81 4.043-4.043 0-0.761-0.21-1.473-0.576-2.081l0.010 0.018 12.416-12.418c0.090-0.090 0.146-0.215 0.146-0.353s-0.056-0.263-0.146-0.353v0l-0.707-0.709c-0.090-0.090-0.215-0.146-0.353-0.146s-0.263 0.056-0.353 0.146l-12.416 12.419c-0.576-0.352-1.273-0.562-2.018-0.566h-0.001zM16.004 22c-1.105 0-2-0.895-2-2s0.895-2 2-2c1.105 0 2 0.895 2 2v0c0 1.105-0.895 2-2 2v0zM25.813 14.43l-1.453 1.453 5.052 8.176c0.366 0.574 0.584 1.273 0.584 2.024 0 0.69-0.184 1.336-0.505 1.894l0.010-0.018c-0.701 1.228-2.003 2.042-3.494 2.042-0.005 0-0.010 0-0.015-0h-19.982c-0.004 0-0.009 0-0.013 0-1.492 0-2.794-0.815-3.485-2.023l-0.010-0.020c-0.311-0.539-0.495-1.186-0.495-1.875 0-0.751 0.218-1.45 0.593-2.040l-0.009 0.015 9.992-16.169c0.728-1.142 1.987-1.888 3.421-1.888s2.693 0.746 3.411 1.872l0.010 0.016 1.7 2.75 1.451-1.451-1.449-2.351c-0.921-1.486-2.424-2.428-4.121-2.711v-3.625c0-0.276-0.224-0.5-0.5-0.5v0h-1c-0.276 0-0.5 0.224-0.5 0.5v0 3.625c-1.701 0.281-3.207 1.223-4.125 2.713l-9.992 16.168c-0.557 0.873-0.888 1.937-0.888 3.078 0 1.047 0.279 2.030 0.766 2.877l-0.015-0.028c1.050 1.844 3.002 3.068 5.241 3.068 0.006 0 0.013 0 0.019-0h19.982c0.005 0 0.012 0 0.018 0 2.238 0 4.191-1.224 5.225-3.039l0.016-0.030c0.473-0.819 0.752-1.802 0.752-2.85 0-1.14-0.33-2.204-0.901-3.099l0.014 0.023z"></path>
</svg>
