<!-- Generated by IcoMoon.io -->
<svg version="1.1" xmlns="http://www.w3.org/2000/svg" width="32" height="32" viewBox="0 0 32 32">
<title>triangle-music-solid</title>
<path d="M31.113 23.006l-5.030-8.14-2.906 2.906 4.534 7.338c0.178 0.275 0.283 0.612 0.283 0.973 0 0.332-0.089 0.643-0.245 0.91l0.005-0.009c-0.346 0.611-0.991 1.016-1.731 1.016-0.011 0-0.022-0-0.034-0l0.002 0h-19.984c-0.010 0-0.021 0-0.033 0-0.74 0-1.384-0.405-1.725-1.005l-0.005-0.010c-0.151-0.259-0.24-0.57-0.24-0.902 0-0.361 0.106-0.698 0.288-0.98l-0.004 0.007 9.992-16.169c0.525-0.85 1.378-0.942 1.72-0.942s1.195 0.092 1.72 0.941l2.757 4.461-3.313 3.313c-0.362-0.136-0.781-0.215-1.218-0.215-1.962 0-3.553 1.591-3.553 3.553s1.591 3.553 3.553 3.553c1.962 0 3.553-1.591 3.553-3.553 0-0.437-0.079-0.855-0.223-1.241l0.008 0.025 12.419-12.421c0.181-0.181 0.293-0.431 0.293-0.707s-0.112-0.526-0.293-0.707l-0.707-0.707c-0.181-0.181-0.431-0.293-0.707-0.293s-0.526 0.112-0.707 0.293l-6.201 6.202-2.257-3.658c-0.733-1.188-1.847-2.014-3.125-2.459v-3.378c0-0.552-0.448-1-1-1v0h-2c-0.552 0-1 0.448-1 1v0 3.378c-1.276 0.445-2.39 1.273-3.125 2.459l-9.988 16.169c-0.557 0.873-0.888 1.937-0.888 3.078 0 1.047 0.279 2.030 0.766 2.877l-0.015-0.028c1.050 1.844 3.003 3.068 5.241 3.068 0.006 0 0.012 0 0.018-0h19.983c0.005 0 0.011 0 0.017 0 2.238 0 4.191-1.223 5.225-3.038l0.016-0.030c0.472-0.819 0.751-1.801 0.751-2.849 0-1.141-0.331-2.205-0.902-3.101l0.014 0.023z"></path>
</svg>
