<!-- Generated by IcoMoon.io -->
<svg version="1.1" xmlns="http://www.w3.org/2000/svg" width="40" height="32" viewBox="0 0 40 32">
<title>truck-container</title>
<path d="M2 20h21c1.106 0 2-0.894 2-2v-14c0-1.106-0.894-2-2-2h-21c-1.106 0-2 0.894-2 2v14c0 1.106 0.894 2 2 2zM2 4h21v14h-21v-14zM38.831 12.831l-3.656-3.656c-0.75-0.75-1.769-1.169-2.831-1.169h-4.344c-0.55 0-1 0.45-1 1v13h-12.706c-0.769-0.619-1.731-1-2.794-1-1.425 0-2.675 0.675-3.5 1.706-0.825-1.038-2.075-1.712-3.5-1.712-2.487 0-4.5 2.012-4.5 4.5s2.013 4.5 4.5 4.5c1.425 0 2.675-0.675 3.5-1.706 0.825 1.031 2.075 1.706 3.5 1.706 2.488 0 4.5-2.012 4.5-4.5 0-0.531-0.106-1.031-0.275-1.5h12.375c-0.169 0.825-0.137 1.725 0.175 2.65 0.525 1.569 1.869 2.806 3.475 3.194 3.3 0.8 6.25-1.681 6.25-4.85 0-0.344-0.038-0.675-0.1-1h1.1c0.55 0 1-0.45 1-1v-7.338c0-1.063-0.419-2.075-1.169-2.825zM4.5 28c-1.381 0-2.5-1.119-2.5-2.5s1.119-2.5 2.5-2.5 2.5 1.119 2.5 2.5-1.119 2.5-2.5 2.5zM11.5 28c-1.381 0-2.5-1.119-2.5-2.5s1.119-2.5 2.5-2.5 2.5 1.119 2.5 2.5-1.119 2.5-2.5 2.5zM29 10h3.344c0.531 0 1.038 0.206 1.413 0.588l3.413 3.412h-8.169v-4zM33 28c-1.656 0-3-1.344-3-3s1.344-3 3-3 3 1.344 3 3-1.344 3-3 3zM38 22h-1.025c-0.913-1.206-2.344-2-3.975-2s-3.063 0.794-3.975 2h-0.025v-6h9v6zM6.5 16h1c0.275 0 0.5-0.225 0.5-0.5v-9c0-0.275-0.225-0.5-0.5-0.5h-1c-0.275 0-0.5 0.225-0.5 0.5v9c0 0.275 0.225 0.5 0.5 0.5zM12.5 16h1c0.275 0 0.5-0.225 0.5-0.5v-9c0-0.275-0.225-0.5-0.5-0.5h-1c-0.275 0-0.5 0.225-0.5 0.5v9c0 0.275 0.225 0.5 0.5 0.5zM18.5 16h1c0.275 0 0.5-0.225 0.5-0.5v-9c0-0.275-0.225-0.5-0.5-0.5h-1c-0.275 0-0.5 0.225-0.5 0.5v9c0 0.275 0.225 0.5 0.5 0.5z"></path>
</svg>
