<!-- Generated by IcoMoon.io -->
<svg version="1.1" xmlns="http://www.w3.org/2000/svg" width="40" height="32" viewBox="0 0 40 32">
<title>truck-loading</title>
<path d="M6.275 25.913l13.338-4.262c1.050-0.337 1.631-1.462 1.294-2.512l-3.656-11.431c-0.337-1.056-1.469-1.638-2.512-1.3l-13.331 4.263c-1.050 0.331-1.637 1.456-1.3 2.512l3.65 11.431c0.331 1.038 1.45 1.637 2.519 1.3zM9.631 10.137l1.219 3.813-1.9 0.613-1.219-3.813 1.9-0.613zM5.819 11.356l1.831 5.713 5.713-1.825-1.825-5.713 3.806-1.219 3.656 11.431-13.338 4.262-3.65-11.431 3.806-1.219zM26 2h14v-2h-14c-2.206 0-4 1.794-4 4v19.244l-21.631 6.806c-0.269 0.075-0.425 0.35-0.35 0.613l0.263 0.962c0.075 0.269 0.35 0.425 0.613 0.35l22.056-6.975h3.050c0 3.869 3.131 7 7 7s7-3.131 7-7-3.131-7-7-7c-3.163 0-5.8 2.119-6.669 5h-2.331v-19c0-1.1 0.9-2 2-2zM33 20c2.756 0 5 2.244 5 5s-2.244 5-5 5-5-2.244-5-5 2.244-5 5-5z"></path>
</svg>
