<!-- Generated by IcoMoon.io -->
<svg version="1.1" xmlns="http://www.w3.org/2000/svg" width="40" height="32" viewBox="0 0 40 32">
<title>truck-pickup</title>
<path d="M39.5 22h-1.5v-8c0-1.657-1.343-3-3-3h-2.8l-5.999-7.499c-0.739-0.918-1.863-1.501-3.123-1.501h-7.078c-1.104 0-2 0.896-2 2v7h-9c-1.657 0-3 1.343-3 3v8h-1.5c-0.276 0-0.5 0.224-0.5 0.5v1c0 0.276 0.224 0.5 0.5 0.5h4.5c0 3.314 2.686 6 6 6s6-2.686 6-6h6c0 3.314 2.686 6 6 6s6-2.686 6-6h4.5c0.276 0 0.5-0.224 0.5-0.5v-1c0-0.276-0.224-0.5-0.5-0.5zM16 4h7.078c0.611 0 1.18 0.274 1.562 0.751l4.999 6.249h-13.639v-7zM11 28c-2.209 0-4-1.791-4-4s1.791-4 4-4 4 1.791 4 4-1.791 4-4 4zM29 28c-2.209 0-4-1.791-4-4s1.791-4 4-4 4 1.791 4 4-1.791 4-4 4zM36 22h-1.367c-0.826-2.325-3.024-4-5.633-4s-4.806 1.675-5.633 4h-6.735c-0.826-2.325-3.024-4-5.633-4s-4.806 1.675-5.633 4h-1.367v-8c0-0.551 0.449-1 1-1h30c0.551 0 1 0.449 1 1v8z"></path>
</svg>
