<!-- Generated by IcoMoon.io -->
<svg version="1.1" xmlns="http://www.w3.org/2000/svg" width="40" height="32" viewBox="0 0 40 32">
<title>truck-pickup-solid</title>
<path d="M39 18h-1v-4c0-1.104-0.896-2-2-2h-3l-6.799-8.499c-0.739-0.918-1.863-1.501-3.124-1.501h-7.078c-1.104 0-2 0.896-2 2v8h-10c-1.104 0-2 0.896-2 2v4h-1c-0.552 0-1 0.448-1 1v2c0 0.552 0.448 1 1 1h3.101c-0.048 0.329-0.101 0.657-0.101 1 0 3.866 3.134 7 7 7s7-3.134 7-7c0-0.343-0.053-0.671-0.101-1h4.202c-0.047 0.329-0.101 0.657-0.101 1 0 3.866 3.134 7 7 7s7-3.134 7-7c0-0.343-0.053-0.671-0.101-1h3.1c0.553 0 1-0.448 1-1v-2c0-0.552-0.447-1-1-1zM18 6h5.078l4.8 6h-9.878v-6zM11 26c-1.654 0-3-1.346-3-3s1.346-3 3-3 3 1.346 3 3-1.346 3-3 3zM29 26c-1.654 0-3-1.346-3-3s1.346-3 3-3 3 1.346 3 3-1.346 3-3 3z"></path>
</svg>
