<!-- Generated by IcoMoon.io -->
<svg version="1.1" xmlns="http://www.w3.org/2000/svg" width="40" height="32" viewBox="0 0 40 32">
<title>truck-moving-solid</title>
<path d="M38.831 14.831l-3.656-3.656c-0.75-0.75-1.769-1.169-2.831-1.169h-2.344v-6.006c0-1.106-0.894-2-2-2h-26c-1.106 0-2 0.894-2 2v21c0 2.762 2.237 5 5 5 1.644 0 3.088-0.806 4-2.025 0.912 1.225 2.356 2.025 4 2.025 2.762 0 5-2.238 5-5 0-0.344-0.038-0.675-0.1-1h10.2c-0.069 0.325-0.1 0.656-0.1 1 0 2.762 2.238 5 5 5s5-2.238 5-5c0-0.344-0.038-0.675-0.1-1h1.1c0.55 0 1-0.45 1-1v-5.344c0-1.063-0.419-2.075-1.169-2.825zM5 27c-1.1 0-2-0.9-2-2s0.9-2 2-2 2 0.9 2 2-0.9 2-2 2zM13 27c-1.1 0-2-0.9-2-2s0.9-2 2-2 2 0.9 2 2-0.9 2-2 2zM30 13h2.344c0.269 0 0.519 0.106 0.706 0.294l2.706 2.706h-5.756v-3zM33 27c-1.1 0-2-0.9-2-2s0.9-2 2-2 2 0.9 2 2-0.9 2-2 2z"></path>
</svg>
