<!-- Generated by IcoMoon.io -->
<svg version="1.1" xmlns="http://www.w3.org/2000/svg" width="40" height="32" viewBox="0 0 40 32">
<title>truck-plow-solid</title>
<path d="M37.413 24.587c-0.906-0.906-1.413-2.131-1.413-3.413v-6.35c0-1.281 0.506-2.506 1.413-3.412l2.294-2.294c0.388-0.387 0.388-1.025 0-1.412l-1.413-1.412c-0.388-0.388-1.025-0.388-1.413 0l-2.294 2.294c-1.656 1.656-2.587 3.9-2.587 6.244v3.169h-2v-4c0-1.106-0.894-2-2-2h-2.869l-5.125-8.544c-0.538-0.9-1.525-1.456-2.575-1.456h-6.931c-1.381 0-2.5 1.119-2.5 2.5v7.5h-6c-1.106 0-2 0.894-2 2v6c0 1.106 0.894 2 2 2h0.369c-0.225 0.631-0.369 1.294-0.369 2 0 3.313 2.688 6 6 6s6-2.688 6-6c0-0.706-0.144-1.369-0.369-2h4.738c-0.225 0.631-0.369 1.294-0.369 2 0 3.313 2.688 6 6 6s6-2.688 6-6c0-0.706-0.144-1.369-0.369-2h2.45c0.194 2.038 1.044 3.956 2.506 5.413l2.294 2.294c0.388 0.387 1.025 0.387 1.413 0l1.413-1.413c0.388-0.387 0.388-1.025 0-1.413l-2.294-2.294zM12 6h4.869l3.6 6h-8.469v-6zM10 24c0 1.1-0.9 2-2 2s-2-0.9-2-2 0.9-2 2-2 2 0.9 2 2zM24 26c-1.1 0-2-0.9-2-2s0.9-2 2-2 2 0.9 2 2-0.9 2-2 2z"></path>
</svg>
