<!-- Generated by IcoMoon.io -->
<svg version="1.1" xmlns="http://www.w3.org/2000/svg" width="40" height="32" viewBox="0 0 40 32">
<title>truck-ramp</title>
<path d="M26 2h14v-2h-14c-2.206 0-4 1.794-4 4v19.244l-21.631 6.806c-0.269 0.075-0.425 0.35-0.35 0.613l0.263 0.962c0.075 0.269 0.35 0.425 0.613 0.35l22.056-6.975h3.050c0 3.869 3.131 7 7 7s7-3.131 7-7-3.131-7-7-7c-3.169 0-5.813 2.119-6.675 5h-2.325v-19c0-1.1 0.9-2 2-2zM33 20c2.756 0 5 2.244 5 5s-2.244 5-5 5-5-2.244-5-5 2.244-5 5-5z"></path>
</svg>
