<!-- Generated by IcoMoon.io -->
<svg version="1.1" xmlns="http://www.w3.org/2000/svg" width="40" height="32" viewBox="0 0 40 32">
<title>truck-couch-solid</title>
<path d="M1.506 25l18.494-4.956v-7.625c-0.519-0.25-1.125-0.35-1.725-0.194-1.331 0.356-2.125 1.731-1.769 3.063l0.387 1.45-11.588 3.106-0.388-1.45c-0.356-1.331-1.731-2.125-3.063-1.769s-2.125 1.731-1.769 3.063l1.419 5.313zM1.337 14.694c2.475-0.662 4.606 0.838 5.344 2.713l7.819-2.094c-0.338-2.231 1.031-4.419 3.262-5.012 0.163-0.044 0.331-0.044 0.5-0.069-0.619-2.306-2.869-3.444-4.919-2.894l-9.662 2.587c-2.050 0.55-3.425 2.662-2.819 4.944 0.156-0.063 0.313-0.131 0.475-0.175zM24 0c-1.106 0-2 0.894-2 2v20.225l-21.631 5.9c-0.269 0.075-0.425 0.35-0.35 0.613l0.787 2.894c0.075 0.269 0.35 0.425 0.613 0.35l24.606-6.712c0.15 3.738 3.2 6.731 6.975 6.731 3.869 0 7-3.131 7-7v-25h-16zM33 28c-1.656 0-3-1.344-3-3s1.344-3 3-3 3 1.344 3 3-1.344 3-3 3z"></path>
</svg>
