<!-- Generated by IcoMoon.io -->
<svg version="1.1" xmlns="http://www.w3.org/2000/svg" width="40" height="32" viewBox="0 0 40 32">
<title>truck-plow</title>
<path d="M35.775 24.462c-0.563-0.563-0.881-1.325-0.881-2.125v-8.688c0-0.794 0.319-1.563 0.881-2.125l4.075-3.975c0.194-0.194 0.194-0.513 0-0.706l-0.706-0.706c-0.194-0.194-0.513-0.194-0.706 0l-4.081 3.975c-0.938 0.938-1.462 2.213-1.462 3.537v3.35h-2.894v-2c0-1.656-1.344-3-3-3h-2.431l-5.419-9.025c-0.356-0.6-1.019-0.975-1.719-0.975h-7.931c-0.825 0-1.5 0.675-1.5 1.5v8.5h-5c-1.656 0-3 1.344-3 3v6c0 1.313 0.844 2.413 2.019 2.825 0 0.063-0.019 0.119-0.019 0.175 0 3.313 2.688 6 6 6s6-2.688 6-6h4c0 3.313 2.688 6 6 6s6-2.688 6-6v-5h2.894v3.344c0 1.325 0.525 2.6 1.462 3.538l4.075 3.975c0.194 0.194 0.513 0.194 0.706 0l0.706-0.706c0.194-0.194 0.194-0.512 0-0.706l-4.069-3.981zM10 4h7.431l4.8 8h-12.231v-8zM8 28c-2.206 0-4-1.794-4-4s1.794-4 4-4 4 1.794 4 4-1.794 4-4 4zM18.369 22h-4.738c-0.825-2.325-3.025-4-5.631-4-2.537 0-4.694 1.575-5.569 3.8-0.256-0.181-0.431-0.462-0.431-0.8v-6c0-0.55 0.45-1 1-1h24c0.55 0 1 0.45 1 1v4.556c-1.063-0.956-2.456-1.556-4-1.556-2.606 0-4.806 1.675-5.631 4zM24 28c-2.206 0-4-1.794-4-4s1.794-4 4-4 4 1.794 4 4-1.794 4-4 4z"></path>
</svg>
