<!-- Generated by IcoMoon.io -->
<svg version="1.1" xmlns="http://www.w3.org/2000/svg" width="40" height="32" viewBox="0 0 40 32">
<title>truck-couch</title>
<path d="M26 2h14v-2h-14c-2.206 0-4 1.794-4 4v19.244l-21.631 6.806c-0.269 0.075-0.425 0.35-0.35 0.613l0.263 0.962c0.075 0.269 0.35 0.425 0.613 0.35l22.056-6.975h3.050c0 3.869 3.131 7 7 7s7-3.131 7-7-3.131-7-7-7c-3.163 0-5.8 2.119-6.669 5h-2.331v-19c0-1.1 0.9-2 2-2zM33 20c2.756 0 5 2.244 5 5s-2.244 5-5 5-5-2.244-5-5 2.244-5 5-5zM0.188 20.356l1.337 4.3c0.331 1.050 1.45 1.637 2.5 1.313h0.006l15.969-4.962v-2.094l-16.563 5.15-1.337-4.3c-0.25-0.8 0.2-1.631 0.988-1.875s1.631 0.2 1.875 0.988l0.744 2.387 13.369-4.156-0.744-2.387c-0.244-0.787 0.194-1.631 0.988-1.881 0.231-0.069 0.456-0.081 0.675-0.044v-2.831l-0.137-0.438c-0.819-2.631-3.625-4.106-6.25-3.294h-0.006l-9.544 2.975c-2.638 0.819-4.112 3.619-3.288 6.256l0.4 1.288c-1.069 0.988-1.363 2.381-0.981 3.606zM4.65 11.119l9.556-2.969c1.575-0.487 3.256 0.4 3.75 1.975l0.313 1.006c-1.544 0.738-2.363 2.506-1.844 4.188l0.15 0.475-9.55 2.969-0.15-0.475c-0.519-1.681-2.2-2.669-3.888-2.406l-0.313-1.006c-0.494-1.588 0.394-3.263 1.975-3.756z"></path>
</svg>
