<!-- Generated by IcoMoon.io -->
<svg version="1.1" xmlns="http://www.w3.org/2000/svg" width="40" height="32" viewBox="0 0 40 32">
<title>truck-monster-solid</title>
<path d="M39 14h-1v-4c0-1.104-0.896-2-2-2h-4.6l-5.199-6.499c-0.739-0.918-1.863-1.501-3.124-1.501h-7.078c-1.104 0-2 0.896-2 2v6h-11c-0.553 0-1 0.447-1 1v5h-1c-0.552 0-1 0.447-1 1v2c0 0.552 0.448 1 1 1h1.045c1.826-2.416 4.694-4 7.955-4s6.129 1.584 7.955 4h4.091c1.826-2.416 4.694-4 7.955-4s6.129 1.584 7.955 4h1.044c0.553 0 1-0.448 1-1v-2c0-0.553-0.447-1-1-1zM18 8v-4h5.078l3.2 4h-8.277zM37 22h-0.325c-0.138-0.458-0.317-0.892-0.541-1.306l0.229-0.229c0.391-0.391 0.391-1.024 0-1.414l-1.414-1.414c-0.391-0.391-1.024-0.391-1.414 0l-0.229 0.229c-0.372-0.205-0.804-0.389-1.257-0.528l-0.049-0.013v-0.325c0-0.552-0.448-1-1-1h-2c-0.552 0-1 0.448-1 1v0.325c-0.458 0.137-0.892 0.317-1.306 0.541l-0.229-0.229c-0.391-0.391-1.024-0.391-1.414 0l-1.414 1.414c-0.391 0.391-0.391 1.024 0 1.414l0.229 0.229c-0.205 0.372-0.389 0.804-0.528 1.257l-0.013 0.049h-0.325c-0.552 0-1 0.448-1 1v2c0 0.552 0.448 1 1 1h0.325c0.137 0.458 0.317 0.892 0.541 1.306l-0.229 0.229c-0.391 0.391-0.391 1.024 0 1.414l1.414 1.414c0.391 0.391 1.024 0.391 1.414 0l0.229-0.229c0.413 0.223 0.848 0.403 1.306 0.541v0.325c0 0.552 0.448 1 1 1h2c0.552 0 1-0.448 1-1v-0.325c0.458-0.137 0.892-0.317 1.306-0.541l0.229 0.229c0.391 0.391 1.024 0.391 1.414 0l1.414-1.414c0.391-0.391 0.391-1.024 0-1.414l-0.229-0.229c0.205-0.372 0.389-0.804 0.528-1.257l0.013-0.049h0.325c0.553 0 1-0.448 1-1v-2c-0.001-0.552-0.449-1-1.001-1zM30 27c-1.657 0-3-1.343-3-3s1.343-3 3-3 3 1.343 3 3-1.343 3-3 3zM17 22h-0.325c-0.137-0.458-0.317-0.892-0.541-1.306l0.229-0.229c0.391-0.391 0.391-1.024 0-1.414l-1.414-1.414c-0.391-0.391-1.024-0.391-1.414 0l-0.229 0.229c-0.372-0.205-0.804-0.389-1.257-0.528l-0.049-0.013v-0.325c0-0.552-0.447-1-1-1h-2c-0.553 0-1 0.448-1 1v0.325c-0.458 0.137-0.893 0.317-1.306 0.541l-0.229-0.229c-0.391-0.391-1.024-0.391-1.414 0l-1.414 1.414c-0.391 0.391-0.391 1.024 0 1.414l0.229 0.229c-0.205 0.372-0.389 0.804-0.528 1.257l-0.013 0.049h-0.325c-0.552 0-1 0.448-1 1v2c0 0.552 0.448 1 1 1h0.325c0.138 0.458 0.317 0.892 0.541 1.306l-0.229 0.229c-0.391 0.391-0.391 1.024 0 1.414l1.414 1.414c0.391 0.391 1.024 0.391 1.414 0l0.229-0.229c0.413 0.223 0.848 0.403 1.306 0.541v0.325c0 0.552 0.447 1 1 1h2c0.553 0 1-0.448 1-1v-0.325c0.458-0.137 0.893-0.317 1.306-0.541l0.229 0.229c0.391 0.391 1.024 0.391 1.414 0l1.414-1.414c0.391-0.391 0.391-1.024 0-1.414l-0.229-0.229c0.205-0.372 0.389-0.804 0.528-1.257l0.013-0.049h0.325c0.552 0 1-0.448 1-1v-2c-0.001-0.552-0.449-0.999-1.001-0.999zM10 27c-1.657 0-3-1.343-3-3s1.343-3 3-3 3 1.343 3 3-1.343 3-3 3z"></path>
</svg>
