<!-- Generated by IcoMoon.io -->
<svg version="1.1" xmlns="http://www.w3.org/2000/svg" width="40" height="32" viewBox="0 0 40 32">
<title>truck-container-solid</title>
<path d="M38.831 14.831l-3.656-3.656c-0.75-0.75-1.769-1.169-2.831-1.169h-3.344c-1.106 0-2 0.894-2 2v9h-25c-1.106 0-2 0.894-2 2v1.738c0 2.55 1.794 4.881 4.319 5.219 1.919 0.256 3.644-0.594 4.681-1.981 1.15 1.544 3.15 2.419 5.331 1.856 1.575-0.406 2.881-1.637 3.4-3.175 0.306-0.925 0.337-1.825 0.175-2.65h10.2c-0.169 0.825-0.137 1.725 0.175 2.65 0.525 1.569 1.869 2.806 3.475 3.194 3.3 0.8 6.25-1.681 6.25-4.85 0-0.344-0.038-0.675-0.1-1h1.094c0.55 0 1-0.45 1-1v-5.344c0-1.069-0.419-2.081-1.169-2.831zM5 27c-1.1 0-2-0.9-2-2s0.9-2 2-2 2 0.9 2 2-0.9 2-2 2zM13 27c-1.1 0-2-0.9-2-2s0.9-2 2-2 2 0.9 2 2-0.9 2-2 2zM33 27c-1.1 0-2-0.9-2-2s0.9-2 2-2 2 0.9 2 2-0.9 2-2 2zM30 16v-3h2.344c0.263 0 0.519 0.106 0.706 0.294l2.706 2.706h-5.756zM2 19h21c1.106 0 2-0.894 2-2v-13c0-1.106-0.894-2-2-2h-21c-1.106 0-2 0.894-2 2v13c0 1.106 0.894 2 2 2zM19 5h2v11h-2v-11zM14 5h2v11h-2v-11zM9 5h2v11h-2v-11zM4 5h2v11h-2v-11z"></path>
</svg>
