<!-- Generated by IcoMoon.io -->
<svg version="1.1" xmlns="http://www.w3.org/2000/svg" width="40" height="32" viewBox="0 0 40 32">
<title>truck-monster</title>
<path d="M39.5 16h-1.5v-5c0-1.657-1.343-3-3-3h-3.6l-5.199-6.499c-0.739-0.918-1.863-1.501-3.123-1.501h-7.078c-1.104 0-2 0.896-2 2v6h-9c-1.657 0-3 1.343-3 3v5h-1.5c-0.276 0-0.5 0.224-0.5 0.5v1c0 0.276 0.224 0.5 0.5 0.5h1.5v0.055c0.568-0.763 1.241-1.436 2-2.009v-5.046c0-0.551 0.449-1 1-1h30c0.551 0 1 0.449 1 1v5.045c0.759 0.574 1.432 1.246 2 2.009v-0.054h1.5c0.276 0 0.5-0.224 0.5-0.5v-1c0-0.276-0.224-0.5-0.5-0.5zM16 8v-6h7.078c0.611 0 1.18 0.274 1.562 0.751l4.199 5.249h-12.839zM17 22h-0.325c-0.137-0.458-0.317-0.892-0.541-1.306l0.229-0.229c0.391-0.391 0.391-1.024 0-1.414l-1.414-1.414c-0.391-0.391-1.024-0.391-1.414 0l-0.229 0.229c-0.372-0.205-0.804-0.389-1.257-0.528l-0.049-0.013v-0.325c0-0.552-0.447-1-1-1h-2c-0.553 0-1 0.448-1 1v0.325c-0.458 0.137-0.893 0.317-1.306 0.541l-0.229-0.229c-0.391-0.391-1.024-0.391-1.414 0l-1.414 1.414c-0.391 0.391-0.391 1.024 0 1.414l0.229 0.229c-0.205 0.372-0.389 0.804-0.528 1.257l-0.013 0.049h-0.325c-0.552 0-1 0.448-1 1v2c0 0.552 0.448 1 1 1h0.325c0.138 0.458 0.317 0.892 0.541 1.306l-0.229 0.229c-0.391 0.391-0.391 1.024 0 1.414l1.414 1.414c0.391 0.391 1.024 0.391 1.414 0l0.229-0.229c0.413 0.223 0.848 0.403 1.306 0.541v0.325c0 0.552 0.447 1 1 1h2c0.553 0 1-0.448 1-1v-0.325c0.458-0.137 0.893-0.317 1.306-0.541l0.229 0.229c0.391 0.391 1.024 0.391 1.414 0l1.414-1.414c0.391-0.391 0.391-1.024 0-1.414l-0.229-0.229c0.205-0.372 0.389-0.804 0.528-1.257l0.013-0.049h0.325c0.552 0 1-0.448 1-1v-2c-0.001-0.552-0.449-0.999-1.001-0.999zM10 29c-2.761 0-5-2.239-5-5s2.239-5 5-5 5 2.239 5 5-2.239 5-5 5zM37 22h-0.325c-0.138-0.458-0.317-0.892-0.541-1.306l0.23-0.229c0.391-0.391 0.391-1.024 0-1.414l-1.414-1.414c-0.391-0.391-1.024-0.391-1.414 0l-0.229 0.229c-0.372-0.205-0.804-0.389-1.257-0.528l-0.049-0.013v-0.325c0-0.552-0.448-1-1-1h-2c-0.552 0-1 0.448-1 1v0.325c-0.458 0.137-0.892 0.317-1.306 0.541l-0.229-0.229c-0.391-0.391-1.024-0.391-1.414 0l-1.414 1.414c-0.391 0.391-0.391 1.024 0 1.414l0.229 0.229c-0.205 0.372-0.389 0.804-0.528 1.257l-0.013 0.049h-0.326c-0.552 0-1 0.448-1 1v2c0 0.552 0.448 1 1 1h0.325c0.137 0.458 0.317 0.892 0.541 1.306l-0.229 0.229c-0.391 0.391-0.391 1.024 0 1.414l1.414 1.414c0.391 0.391 1.024 0.391 1.414 0l0.229-0.229c0.413 0.223 0.848 0.403 1.306 0.541v0.325c0 0.552 0.448 1 1 1h2c0.552 0 1-0.448 1-1v-0.325c0.458-0.137 0.892-0.317 1.306-0.541l0.229 0.229c0.391 0.391 1.024 0.391 1.414 0l1.414-1.414c0.391-0.391 0.391-1.024 0-1.414l-0.23-0.229c0.224-0.413 0.403-0.848 0.541-1.306h0.325c0.553 0 1-0.448 1-1v-2c-0.001-0.552-0.448-1-1.001-1zM30 29c-2.761 0-5-2.239-5-5s2.239-5 5-5 5 2.239 5 5-2.239 5-5 5z"></path>
</svg>
