<!-- Generated by IcoMoon.io -->
<svg version="1.1" xmlns="http://www.w3.org/2000/svg" width="40" height="32" viewBox="0 0 40 32">
<title>truck-moving</title>
<path d="M38.831 12.831l-3.656-3.656c-0.75-0.75-1.769-1.169-2.831-1.169h-3.344v-4.006c0-1.106-0.894-2-2-2h-25c-1.106 0-2 0.894-2 2v21c0 2.762 2.237 5 5 5 1.644 0 3.088-0.806 4-2.025 0.912 1.225 2.356 2.025 4 2.025 2.762 0 5-2.238 5-5 0-0.344-0.038-0.675-0.1-1h10.2c-0.069 0.325-0.1 0.656-0.1 1 0 2.762 2.238 5 5 5s5-2.238 5-5c0-0.344-0.038-0.675-0.1-1h1.1c0.55 0 1-0.45 1-1v-7.344c0-1.063-0.419-2.075-1.169-2.825zM5 28c-1.656 0-3-1.344-3-3s1.344-3 3-3 3 1.344 3 3-1.344 3-3 3zM13 28c-1.656 0-3-1.344-3-3s1.344-3 3-3 3 1.344 3 3-1.344 3-3 3zM27 22h-10.025c-0.913-1.206-2.344-2-3.975-2s-3.063 0.794-3.975 2h-0.044c-0.919-1.206-2.356-2-3.981-2-1.131 0-2.163 0.387-3 1.025v-17.025h25zM29 10h3.344c0.531 0 1.038 0.206 1.413 0.588l3.413 3.412h-8.169zM33 28c-1.656 0-3-1.344-3-3s1.344-3 3-3 3 1.344 3 3-1.344 3-3 3zM38 22h-1.025c-0.913-1.206-2.344-2-3.975-2s-3.063 0.794-3.975 2h-0.025v-6h9z"></path>
</svg>
