<!-- Generated by IcoMoon.io -->
<svg version="1.1" xmlns="http://www.w3.org/2000/svg" width="40" height="32" viewBox="0 0 40 32">
<title>trumpet-solid</title>
<path d="M39 4c-0.333 0.003-0.627 0.165-0.811 0.414l-0.002 0.003c-1.282 1.651-2.638 3.115-4.109 4.455l-0.028 0.025c-0.961 0.813-2.058 1.604-3.284 2.25-0.347 0.184-1.609 0.85-3.75 0.852h-2.017v-1.999c0-0.552-0.448-1-1-1v0h-1c-0.552 0-1 0.448-1 1v0 2h-2.5v-2c0-0.552-0.448-1-1-1v0h-1c-0.552 0-1 0.448-1 1v0 2h-2.5v-2c0-0.552-0.448-1-1-1v0h-1c-0.552 0-1 0.448-1 1v0 2h-8c0-0.552-0.448-1-1-1v0h-1c-0.552 0-1 0.448-1 1v0 4c0 0.552 0.448 1 1 1v0h1c0.552 0 1-0.448 1-1v0h2.113c-0.689 1.181-1.113 2.536-1.113 4 0.005 4.416 3.584 7.995 8 8h14c3.312-0.004 5.996-2.688 6-6v-1.965c-0.631-0.495-1.34-0.964-2.085-1.375l-0.081-0.041c-0.539-0.284-1.172-0.438-1.833-0.526v3.906c0 1.105-0.895 2-2 2v0h-1v-8h2c2.155 0 3.416 0.666 3.767 0.851 1.167 0.634 2.173 1.324 3.101 2.103l-0.028-0.023c2.468 2.166 4.318 4.611 4.328 4.625 0.182 0.269 0.486 0.444 0.831 0.444 0 0 0.001 0 0.001 0h-0c0.756 0 1-0.684 1-1v-18c0-0.75-0.676-1-1-1zM11 23.858c-1.738-0.452-3.001-2.008-3.001-3.858s1.262-3.406 2.973-3.852l0.028-0.006zM16.5 24h-2.5v-8h2.5zM22 24h-2.5v-8h2.5z"></path>
</svg>
