<!-- Generated by IcoMoon.io -->
<svg version="1.1" xmlns="http://www.w3.org/2000/svg" width="40" height="32" viewBox="0 0 40 32">
<title>trumpet</title>
<path d="M38.586 4.085l-0.006-0.004c-0.17-0.051-0.365-0.081-0.566-0.081-0.694 0-1.306 0.35-1.67 0.883l-0.005 0.007c-0.028 0.041-2.808 4.146-7.023 6.375-0.911 0.479-1.997 0.736-3.144 0.736h-3.148v-1.5c0-0.276-0.224-0.5-0.5-0.5v0h-1c-0.276 0-0.5 0.224-0.5 0.5v0 1.5h-2v-1.5c0-0.276-0.224-0.5-0.5-0.5v0h-1c-0.276 0-0.5 0.224-0.5 0.5v0 1.5h-1.988v-1.5c0-0.276-0.224-0.5-0.5-0.5v0h-1c-0.276 0-0.5 0.224-0.5 0.5v0 1.5h-10.976v-0.5c0-0.276-0.224-0.5-0.5-0.5v0h-1c-0.276 0-0.5 0.224-0.5 0.5v0 7c0 0.276 0.224 0.5 0.5 0.5v0h1c0.276 0 0.5-0.224 0.5-0.5v0-0.5h3.031c-0.65 0.993-1.036 2.21-1.036 3.516 0 3.581 2.903 6.484 6.484 6.484 0.002 0 0.004 0 0.006 0h14.976c3.585-0.003 6.49-2.91 6.49-6.496 0-0.002 0-0.003 0-0.005v0c-0.009-0.378-0.050-0.741-0.121-1.093l0.007 0.040c2.725 2.151 4.421 4.629 4.444 4.664 0.364 0.538 0.972 0.888 1.661 0.888h0c0.208-0.001 0.409-0.033 0.598-0.092l-0.015 0.004c0.825-0.255 1.414-1.011 1.414-1.904 0-0.003 0-0.005-0-0.008v0-18c0-0.003 0-0.007 0-0.011 0-0.893-0.589-1.649-1.4-1.9l-0.014-0.004zM10.546 26c-0.002 0-0.005 0-0.007 0-2.476 0-4.484-2.007-4.484-4.484 0-1.421 0.661-2.688 1.693-3.509l0.009-0.007h5.285v8zM15.039 26v-8h1.997v8zM19.032 26v-8h2v8zM25.523 26h-2.496v-8h3.148c0.996 0.003 1.941 0.22 2.793 0.607l-0.043-0.017c0.68 0.781 1.094 1.808 1.094 2.933 0 2.473-2.005 4.478-4.478 4.478-0.006 0-0.012 0-0.018-0h0.001zM30.25 16.966c-1.196-0.633-2.606-0.966-4.076-0.966h-24.111v-2h24.111c1.471 0 2.881-0.334 4.076-0.967 4.712-2.494 7.736-7.007 7.751-7.033l0.010 18.016c-0.024-0.046-3.049-4.558-7.76-7.050z"></path>
</svg>
