<!-- Generated by IcoMoon.io -->
<svg version="1.1" xmlns="http://www.w3.org/2000/svg" width="40" height="32" viewBox="0 0 40 32">
<title>tshirt-solid</title>
<path d="M39.45 6.031l-12.169-6.031c-1.256 1.738-4.037 2.95-7.281 2.95s-6.025-1.212-7.281-2.95l-12.169 6.031c-0.494 0.25-0.694 0.85-0.45 1.344l3.575 7.156c0.25 0.494 0.85 0.694 1.344 0.45l3.537-1.731c0.662-0.325 1.438 0.156 1.438 0.9v15.85c0 1.106 0.894 2 2 2h16c1.106 0 2-0.894 2-2v-15.856c0-0.738 0.775-1.225 1.438-0.9l3.538 1.731c0.494 0.25 1.094 0.050 1.344-0.45l3.581-7.15c0.25-0.494 0.050-1.1-0.444-1.344z"></path>
</svg>
