<!-- Generated by IcoMoon.io -->
<svg version="1.1" xmlns="http://www.w3.org/2000/svg" width="38" height="32" viewBox="0 0 38 32">
<title>tshirt</title>
<path d="M37.9 6.975c-0.163-0.487-0.5-0.881-0.95-1.112l-11.712-5.862-0.494 0.694c-0.981 1.375-3.238 2.263-5.744 2.263s-4.762-0.887-5.744-2.263l-0.494-0.694-11.713 5.862c-0.456 0.231-0.794 0.625-0.95 1.112-0.163 0.487-0.125 1.006 0.106 1.463l3.219 6.5c0.225 0.463 0.612 0.806 1.094 0.963 0.481 0.169 1 0.125 1.45-0.1l3.038-1.5v14.863c0 1.563 1.256 2.831 2.8 2.831h14.4c1.544 0 2.8-1.269 2.8-2.831v-14.856l3.031 1.5c0.45 0.231 0.969 0.269 1.456 0.1 0.481-0.162 0.869-0.506 1.094-0.963l3.219-6.506c0.219-0.456 0.256-0.975 0.094-1.463zM32.919 13.994l-5.919-2.925v18.106c0 0.444-0.356 0.806-0.8 0.806h-14.4c-0.444 0-0.8-0.363-0.8-0.806v-18.106l-5.787 2.975-3.269-6.369 10.256-5.138c1.5 1.519 4.012 2.438 6.806 2.438s5.306-0.919 6.806-2.438l10.156 5.088-3.050 6.369z"></path>
</svg>
