<!-- Generated by IcoMoon.io -->
<svg version="1.1" xmlns="http://www.w3.org/2000/svg" width="32" height="32" viewBox="0 0 32 32">
<title>tty-solid</title>
<path d="M0.336 6.489c8.658-8.658 22.683-8.645 31.329 0 0.38 0.38 0.442 0.968 0.161 1.418l-2.701 4.321c-0.206 0.326-0.564 0.539-0.972 0.539-0.153 0-0.3-0.030-0.433-0.085l0.008 0.003-5.401-2.161c-0.426-0.174-0.72-0.584-0.72-1.064 0-0.040 0.002-0.080 0.006-0.119l-0 0.005 0.372-3.721c-3.884-1.403-8.165-1.374-11.968 0l0.372 3.721c0.004 0.034 0.006 0.074 0.006 0.114 0 0.48-0.295 0.89-0.713 1.061l-0.008 0.003-5.401 2.161c-0.126 0.052-0.272 0.082-0.426 0.082-0.408 0-0.766-0.213-0.969-0.534l-0.003-0.005-2.701-4.321c-0.109-0.172-0.174-0.382-0.174-0.607 0-0.316 0.128-0.603 0.336-0.81v0zM6 19.25v-2.5c0-0.414-0.336-0.75-0.75-0.75h-2.5c-0.414 0-0.75 0.336-0.75 0.75v2.5c0 0.414 0.336 0.75 0.75 0.75h2.5c0.414 0 0.75-0.336 0.75-0.75zM12 19.25v-2.5c0-0.414-0.336-0.75-0.75-0.75h-2.5c-0.414 0-0.75 0.336-0.75 0.75v2.5c0 0.414 0.336 0.75 0.75 0.75h2.5c0.414 0 0.75-0.336 0.75-0.75zM18 19.25v-2.5c0-0.414-0.336-0.75-0.75-0.75h-2.5c-0.414 0-0.75 0.336-0.75 0.75v2.5c0 0.414 0.336 0.75 0.75 0.75h2.5c0.414 0 0.75-0.336 0.75-0.75zM24 19.25v-2.5c0-0.414-0.336-0.75-0.75-0.75h-2.5c-0.414 0-0.75 0.336-0.75 0.75v2.5c0 0.414 0.336 0.75 0.75 0.75h2.5c0.414 0 0.75-0.336 0.75-0.75zM30 19.25v-2.5c0-0.414-0.336-0.75-0.75-0.75h-2.5c-0.414 0-0.75 0.336-0.75 0.75v2.5c0 0.414 0.336 0.75 0.75 0.75h2.5c0.414 0 0.75-0.336 0.75-0.75zM9 25.25v-2.5c0-0.414-0.336-0.75-0.75-0.75h-2.5c-0.414 0-0.75 0.336-0.75 0.75v2.5c0 0.414 0.336 0.75 0.75 0.75h2.5c0.414 0 0.75-0.336 0.75-0.75zM15 25.25v-2.5c0-0.414-0.336-0.75-0.75-0.75h-2.5c-0.414 0-0.75 0.336-0.75 0.75v2.5c0 0.414 0.336 0.75 0.75 0.75h2.5c0.414 0 0.75-0.336 0.75-0.75zM21 25.25v-2.5c0-0.414-0.336-0.75-0.75-0.75h-2.5c-0.414 0-0.75 0.336-0.75 0.75v2.5c0 0.414 0.336 0.75 0.75 0.75h2.5c0.414 0 0.75-0.336 0.75-0.75zM27 25.25v-2.5c0-0.414-0.336-0.75-0.75-0.75h-2.5c-0.414 0-0.75 0.336-0.75 0.75v2.5c0 0.414 0.336 0.75 0.75 0.75h2.5c0.414 0 0.75-0.336 0.75-0.75zM6 31.25v-2.5c0-0.414-0.336-0.75-0.75-0.75h-2.5c-0.414 0-0.75 0.336-0.75 0.75v2.5c0 0.414 0.336 0.75 0.75 0.75h2.5c0.414 0 0.75-0.336 0.75-0.75zM24 31.25v-2.5c0-0.414-0.336-0.75-0.75-0.75h-14.5c-0.414 0-0.75 0.336-0.75 0.75v2.5c0 0.414 0.336 0.75 0.75 0.75h14.5c0.414 0 0.75-0.336 0.75-0.75zM30 31.25v-2.5c0-0.414-0.336-0.75-0.75-0.75h-2.5c-0.414 0-0.75 0.336-0.75 0.75v2.5c0 0.414 0.336 0.75 0.75 0.75h2.5c0.414 0 0.75-0.336 0.75-0.75z"></path>
</svg>
