<!-- Generated by IcoMoon.io -->
<svg version="1.1" xmlns="http://www.w3.org/2000/svg" width="32" height="32" viewBox="0 0 32 32">
<title>tty</title>
<path d="M22.75 29h-13.5c-0.412 0-0.75 0.337-0.75 0.75v0.5c0 0.413 0.338 0.75 0.75 0.75h13.5c0.413 0 0.75-0.337 0.75-0.75v-0.5c0-0.413-0.337-0.75-0.75-0.75zM11.5 24.75c0 0.413 0.338 0.75 0.75 0.75h1.5c0.412 0 0.75-0.337 0.75-0.75v-1.5c0-0.413-0.338-0.75-0.75-0.75h-1.5c-0.412 0-0.75 0.337-0.75 0.75v1.5zM8.5 23.25c0-0.413-0.338-0.75-0.75-0.75h-1.5c-0.412 0-0.75 0.337-0.75 0.75v1.5c0 0.413 0.338 0.75 0.75 0.75h1.5c0.412 0 0.75-0.337 0.75-0.75v-1.5zM4.75 28.5h-1.5c-0.413 0-0.75 0.337-0.75 0.75v1.5c0 0.413 0.337 0.75 0.75 0.75h1.5c0.412 0 0.75-0.337 0.75-0.75v-1.5c0-0.413-0.338-0.75-0.75-0.75zM3.25 19.5h1.5c0.412 0 0.75-0.337 0.75-0.75v-1.5c0-0.413-0.338-0.75-0.75-0.75h-1.5c-0.413 0-0.75 0.337-0.75 0.75v1.5c0 0.413 0.337 0.75 0.75 0.75zM16.75 16.5h-1.5c-0.412 0-0.75 0.337-0.75 0.75v1.5c0 0.413 0.338 0.75 0.75 0.75h1.5c0.413 0 0.75-0.337 0.75-0.75v-1.5c0-0.413-0.337-0.75-0.75-0.75zM10.75 16.5h-1.5c-0.412 0-0.75 0.337-0.75 0.75v1.5c0 0.413 0.338 0.75 0.75 0.75h1.5c0.412 0 0.75-0.337 0.75-0.75v-1.5c0-0.413-0.338-0.75-0.75-0.75zM28.75 16.5h-1.5c-0.413 0-0.75 0.337-0.75 0.75v1.5c0 0.413 0.337 0.75 0.75 0.75h1.5c0.413 0 0.75-0.337 0.75-0.75v-1.5c0-0.413-0.337-0.75-0.75-0.75zM31.387 6.394c-8.506-8.531-22.288-8.512-30.775 0-0.688 0.688-0.806 1.744-0.294 2.569l2.531 4.063c0.531 0.856 1.594 1.2 2.531 0.831l5.063-2.031c0.85-0.344 1.381-1.219 1.294-2.138l-0.269-2.7c2.95-0.906 6.119-0.906 9.069 0l-0.269 2.7c-0.094 0.919 0.438 1.794 1.294 2.137l5.063 2.031c0.931 0.375 1.994 0.025 2.531-0.831l2.531-4.063c0.513-0.825 0.388-1.881-0.3-2.569zM29.988 7.9l-2.531 4.063c-0.019 0.031-0.056 0.044-0.087 0.031l-5.063-2.031c-0.031-0.012-0.050-0.044-0.044-0.075l0.425-4.275c-4.938-1.788-8.613-1.719-13.363 0l0.425 4.275c0.006 0.031-0.012 0.063-0.044 0.075l-5.063 2.031c-0.031 0.012-0.069 0-0.088-0.031l-2.531-4.063c-0.019-0.031-0.013-0.069 0.013-0.094 7.712-7.744 20.219-7.737 27.938 0 0.025 0.025 0.031 0.069 0.012 0.094zM28.75 28.5h-1.5c-0.413 0-0.75 0.337-0.75 0.75v1.5c0 0.413 0.337 0.75 0.75 0.75h1.5c0.413 0 0.75-0.337 0.75-0.75v-1.5c0-0.413-0.337-0.75-0.75-0.75zM17.5 24.75c0 0.413 0.337 0.75 0.75 0.75h1.5c0.413 0 0.75-0.337 0.75-0.75v-1.5c0-0.413-0.337-0.75-0.75-0.75h-1.5c-0.413 0-0.75 0.337-0.75 0.75v1.5zM26.5 23.25c0-0.413-0.337-0.75-0.75-0.75h-1.5c-0.413 0-0.75 0.337-0.75 0.75v1.5c0 0.413 0.337 0.75 0.75 0.75h1.5c0.413 0 0.75-0.337 0.75-0.75v-1.5zM22.75 19.5c0.413 0 0.75-0.337 0.75-0.75v-1.5c0-0.413-0.337-0.75-0.75-0.75h-1.5c-0.413 0-0.75 0.337-0.75 0.75v1.5c0 0.413 0.337 0.75 0.75 0.75h1.5z"></path>
</svg>
