<!-- Generated by IcoMoon.io -->
<svg version="1.1" xmlns="http://www.w3.org/2000/svg" width="40" height="32" viewBox="0 0 40 32">
<title>turkey</title>
<path d="M36.236 4.722c0.345-2.071-1.232-4.431-3.68-4.696-2.886-0.324-5.206 2.433-4.448 5.239 0.181 0.691 0.031 1.316-0.404 1.673-0.745 0.612-0.938 0.796-1.844 1.354-2.368-1.406-5.016-2.292-7.825-2.292-9.926 0-18.035 10.821-18.035 18s8.109 8 18.035 8 17.972-0.82 17.972-8c0-3.296-1.71-7.352-4.506-10.784 0.25-0.227 0.097-0.139 0.625-0.573 0.672-0.556 1.525-0.164 1.769-0.031 0.438 0.245 0.952 0.414 1.499 0.475l0.018 0.002c2.25 0.253 4.322-1.401 4.563-3.737 0.233-2.208-1.287-4.357-3.739-4.629zM34.011 24c0 4.43-4.181 6-15.975 6s-16.036-1.569-16.036-6c0-6.172 7.375-16 16.038-16 1.949 0 3.821 0.516 5.563 1.357-1.444 0.494-2.427 0.592-3.679 0.634-3.554 0.121-6.668 2.5-7.575 5.794-0.75 2.721-0.082 5.575 1.786 7.633 1.445 1.589 3.52 2.582 5.827 2.582 0.008 0 0.017 0 0.025-0h-0.001c4.867 0 7.079-3.971 7.668-6.375 0.443-1.813 1.309-3.489 2.461-4.93 2.413 3.023 3.899 6.531 3.899 9.305zM34.855 10.858c-4.817-2.631-8.64 6.234-9.168 8.385-0.599 2.442-2.414 4.271-4.625 4.659-2.075 0.369-4.068-0.299-5.455-1.827-1.406-1.549-1.905-3.7-1.338-5.758 0.25-0.907 1.464-4.188 6.183-4.343 2.956-0.1 10.826-2.508 9.584-7.225-0.046-0.168-0.072-0.36-0.072-0.559 0-0.692 0.318-1.309 0.815-1.715l0.004-0.003c1.445-1.171 3.682-0.039 3.475 1.966-0.041 0.352-0.16 0.671-0.339 0.946l0.005-0.008c-0.094 0.15-0.15 0.332-0.15 0.527 0 0.552 0.448 1 1 1 0.124 0 0.243-0.023 0.353-0.064l-0.007 0.002c0.223-0.088 0.482-0.14 0.753-0.14 0.071 0 0.142 0.004 0.211 0.011l-0.009-0.001c1.184 0.125 2.042 1.218 1.917 2.429-0.167 1.588-1.849 2.422-3.138 1.714z"></path>
</svg>
