<!-- Generated by IcoMoon.io -->
<svg version="1.1" xmlns="http://www.w3.org/2000/svg" width="40" height="32" viewBox="0 0 40 32">
<title>turkey-solid</title>
<path d="M37.274 5.227c-0.17-0.031-0.366-0.049-0.566-0.049-0.331 0-0.651 0.049-0.953 0.141l0.023-0.006c0.409-0.536 0.656-1.216 0.656-1.953 0-0.111-0.006-0.221-0.017-0.329l0.001 0.014c-0.125-1.299-1.015-2.467-2.256-2.875-0.312-0.107-0.671-0.169-1.044-0.169-1.628 0-2.983 1.172-3.265 2.719l-0.003 0.020c-0.034 0.176-0.053 0.379-0.053 0.587 0 0.255 0.029 0.503 0.084 0.74l-0.004-0.022c0.221 0.979-0.085 2-0.911 2.574-0.968 0.671-1.514 1.101-3.004 1.75-2.401-1.452-5.099-2.369-7.963-2.369-9.941 0-18 10.821-18 18s8.059 8 18 8 18-0.82 18-8c0-3.125-1.534-6.934-4.078-10.244-1.749 1.455-3.072 3.366-3.788 5.552l-0.024 0.086c-1.191 3.634-4.258 6.208-7.813 6.558q-0.5 0.049-0.981 0.049c-3.085 0-5.863-1.438-7.621-3.938-0.699-0.986-1.219-2.153-1.481-3.414l-0.010-0.060c-0.005-0.027-0.008-0.057-0.008-0.089 0-0.276 0.224-0.5 0.5-0.5 0.001 0 0.003 0 0.004 0h1.027c0.235 0.003 0.431 0.168 0.481 0.389l0.001 0.003c0.743 3.136 3.519 5.607 7.107 5.607q0.387 0 0.785-0.039c2.865-0.282 5.208-2.441 6.109-5.191 1.295-3.954 3.942-6.326 5.665-7.526 0.922-0.642 2.092-0.522 3.038 0.084 0.503 0.325 1.118 0.518 1.778 0.518 0.040 0 0.080-0.001 0.119-0.002l-0.006 0c1.306-0.036 2.508-0.899 2.97-2.121 0.764-2.019-0.491-4.131-2.499-4.497z"></path>
</svg>
