<!-- Generated by IcoMoon.io -->
<svg version="1.1" xmlns="http://www.w3.org/2000/svg" width="36" height="32" viewBox="0 0 36 32">
<title>turntable</title>
<path d="M30.287 19.031l-0.296-0.148c0-0.030 0.009-0.058 0.009-0.088v-10.295c0-0.276-0.224-0.5-0.5-0.5v0h-1c-0.276 0-0.5 0.224-0.5 0.5v0 9.5c-0.126-0.029-0.27-0.045-0.419-0.045-0.725 0-1.358 0.391-1.701 0.973l-0.005 0.009 0.033 0.019c-0.287 0.454-0.75 1.366-1.699 3.255-0.133 0.26-0.211 0.568-0.211 0.894 0 0.778 0.445 1.453 1.094 1.783l0.011 0.005 1.789 0.894c0.26 0.134 0.567 0.212 0.892 0.212h0c0.228-0 0.447-0.038 0.651-0.108l-0.014 0.004c0.508-0.172 0.914-0.529 1.147-0.989l0.005-0.011 1.604-3.182c0.134-0.261 0.212-0.569 0.212-0.896 0-0.778-0.445-1.453-1.094-1.783l-0.011-0.005zM27.787 24l-1.787-0.892s1.474-2.924 1.611-3.174l-0.008-0.004v-0.004l1.789 0.894zM14 14.5c-0.828 0-1.5 0.672-1.5 1.5s0.672 1.5 1.5 1.5c0.828 0 1.5-0.672 1.5-1.5v0c0-0.828-0.672-1.5-1.5-1.5v0zM32 2h-28c-2.209 0-4 1.791-4 4v0 20c0 2.209 1.791 4 4 4v0h28c2.209 0 4-1.791 4-4v0-20c0-2.209-1.791-4-4-4v0zM34 26c0 1.105-0.895 2-2 2v0h-28c-1.105 0-2-0.895-2-2v0-20c0-1.105 0.895-2 2-2v0h28c1.105 0 2 0.895 2 2v0zM14 6c-5.523 0-10 4.477-10 10s4.477 10 10 10c5.523 0 10-4.477 10-10v0c0-5.523-4.477-10-10-10v0zM14 24c-4.418 0-8-3.582-8-8s3.582-8 8-8c4.418 0 8 3.582 8 8v0c-0.005 4.416-3.584 7.995-8 8h-0z"></path>
</svg>
