<!-- Generated by IcoMoon.io -->
<svg version="1.1" xmlns="http://www.w3.org/2000/svg" width="36" height="32" viewBox="0 0 36 32">
<title>turntable-solid</title>
<path d="M14 14c-1.105 0-2 0.895-2 2s0.895 2 2 2c1.105 0 2-0.895 2-2v0c0-1.105-0.895-2-2-2v0zM32 2h-28c-2.209 0-4 1.791-4 4v0 20c0 2.209 1.791 4 4 4v0h28c2.209 0 4-1.791 4-4v0-20c0-2.209-1.791-4-4-4v0zM14 26c-5.523 0-10-4.477-10-10s4.477-10 10-10c5.523 0 10 4.477 10 10v0c0 5.523-4.477 10-10 10v0zM32 16.739c0 0 0 0 0 0 0 0.652-0.156 1.268-0.433 1.812l0.011-0.023-1.183 2.366c0.33 0.168 0.553 0.505 0.553 0.894 0 0.163-0.039 0.317-0.108 0.452l0.003-0.006-1.606 3.211c-0.168 0.331-0.505 0.553-0.895 0.553-0.163 0-0.317-0.039-0.453-0.108l0.006 0.003-1.789-0.894c-0.33-0.168-0.553-0.505-0.553-0.894 0-0.163 0.039-0.317 0.108-0.452l-0.003 0.006 1.606-3.211c0.168-0.331 0.505-0.553 0.895-0.553 0.163 0 0.317 0.039 0.453 0.108l-0.006-0.003 1.183-2.367c0.133-0.261 0.211-0.569 0.211-0.895 0-0 0-0 0-0v0-10.238c0-0.276 0.224-0.5 0.5-0.5v0h1c0.276 0 0.5 0.224 0.5 0.5v0z"></path>
</svg>
