<!-- Generated by IcoMoon.io -->
<svg version="1.1" xmlns="http://www.w3.org/2000/svg" width="36" height="32" viewBox="0 0 36 32">
<title>turtle-solid</title>
<path d="M4.266 16h17.469c1.471 0 2.561-1.238 2.194-2.502-1.251-4.312-5.658-9.498-10.903-9.498h-0.051c-5.244 0-9.652 5.186-10.902 9.498-0.367 1.265 0.723 2.502 2.194 2.502zM34.517 8.578l-3.041-2.172c-2.198-1.089-5.031 0.098-5.426 2.519-0.034 0.207-0.051 0.42-0.051 0.637v4.451c-0.002 0.867-0.288 1.699-0.829 2.402-0.776 1.007-1.953 1.584-3.23 1.584h-20.778c-0.642 0-1.163 0.521-1.163 1.163 0 0.5 0.32 0.944 0.794 1.102l6.143 1.381-2.802 4.854c-0.385 0.667 0.096 1.5 0.866 1.5h2.309c0.357 0 0.688-0.191 0.866-0.5l2.519-4.363c1.624 0.532 2.847 0.863 5.304 0.863s3.681-0.33 5.304-0.863l2.519 4.363c0.179 0.309 0.509 0.5 0.866 0.5h2.309c0.77 0 1.251-0.833 0.866-1.5l-2.951-5.11c1.328-0.526 2.523-1.361 3.426-2.533 0.88-1.142 1.404-2.462 1.581-3.856h2.539c1.956 0 3.541-1.585 3.541-3.541-0-1.184-0.581-2.231-1.473-2.875l-0.010-0.007zM30 11c-0.552 0-1-0.447-1-1s0.448-1 1-1 1 0.447 1 1-0.448 1-1 1z"></path>
</svg>
