<!-- Generated by IcoMoon.io -->
<svg version="1.1" xmlns="http://www.w3.org/2000/svg" width="36" height="32" viewBox="0 0 36 32">
<title>turtle</title>
<path d="M29 8c-0.552 0-1 0.447-1 1s0.448 1 1 1 1-0.447 1-1-0.448-1-1-1zM34.099 6.764c-2.192-1.554-3.649-2.771-5.434-2.764-4.417 0.018-4.665 4.386-4.665 4.563v4.449c-0.001 0.431-0.129 0.838-0.312 1.224-4.534-14.576-18.209-12.86-21.616 0.844-0.080 0.322-0.080 0.64-0.033 0.944-1.131 0.067-2.039 0.989-2.039 2.137 0 0.932 0.594 1.757 1.479 2.051l2.981 0.994-2.19 3.793c-0.361 0.626-0.361 1.374 0 2s1.010 1 1.733 1h2.309c0.711 0 1.375-0.383 1.732-1l2.117-3.666c1.326 0.401 2.636 0.666 4.839 0.666s3.514-0.266 4.84-0.666l2.117 3.668c0.358 0.615 1.021 0.998 1.733 0.998h2.309c0.723 0 1.371-0.374 1.732-1s0.361-1.374 0-2l-2.404-4.165c1.113-0.599 2.055-1.393 2.807-2.369 0.797-1.036 1.342-2.199 1.627-3.466h1.699c2.504 0 4.541-2.037 4.541-4.541-0.001-1.462-0.712-2.842-1.902-3.694zM21.988 15.563c0.056 0.224-0.095 0.437-0.253 0.437h-17.469c-0.158 0-0.308-0.214-0.253-0.438 3.151-12.674 14.812-12.717 17.974 0.001zM31.459 13h-3.422l-0.109 0.875c-0.158 1.252-0.623 2.386-1.381 3.371-1.242 1.617-2.692 2.091-4.078 2.641l3.529 6.113h-2.311l-2.922-5.066c-1.817 0.596-2.977 1.066-5.766 1.066-2.866 0-4.040-0.5-5.766-1.066l-2.924 5.066h-2.311l3.416-5.914-5.416-2.086h18.941c1.826 0 3.227-0.942 4.024-1.974 0.674-0.878 1.033-1.919 1.035-3.012v-4.451c0-1.687 1.402-2.534 2.641-2.563 1.246-0.028 2.297 0.965 4.294 2.391 0.666 0.476 1.064 1.25 1.064 2.068 0 1.402-1.141 2.541-2.541 2.541z"></path>
</svg>
