<!-- Generated by IcoMoon.io -->
<svg version="1.1" xmlns="http://www.w3.org/2000/svg" width="40" height="32" viewBox="0 0 40 32">
<title>tv-music</title>
<path d="M38 0h-36c-1.105 0-2 0.895-2 2v0 22c0 1.105 0.895 2 2 2v0h36c1.105 0 2-0.895 2-2v0-22c0-1.105-0.895-2-2-2v0zM38 24h-36v-22h36zM33.5 30h-27c-0.276 0-0.5 0.224-0.5 0.5v0 1c0 0.276 0.224 0.5 0.5 0.5v0h27c0.276 0 0.5-0.224 0.5-0.5v0-1c0-0.276-0.224-0.5-0.5-0.5v0zM15 20c1.656 0 3-0.896 3-2v-6.803l6-2.345v5.273c-0.299-0.076-0.644-0.122-0.998-0.125h-0.002c-1.656 0-3 0.896-3 2s1.344 2 3 2 3-0.896 3-2v-9c-0-0.552-0.448-0.999-1-0.999-0.107 0-0.211 0.017-0.308 0.048l0.007-0.002-8 2.953c-0.409 0.132-0.699 0.508-0.699 0.953v6.172c-0.299-0.076-0.644-0.122-0.998-0.125h-0.002c-1.656 0-3 0.896-3 2s1.344 2 3 2z"></path>
</svg>
