<!-- Generated by IcoMoon.io -->
<svg version="1.1" xmlns="http://www.w3.org/2000/svg" width="40" height="32" viewBox="0 0 40 32">
<title>tv-music-solid</title>
<path d="M32 28h-24c-1.105 0-2 0.895-2 2s0.895 2 2 2v0h24c1.105 0 2-0.895 2-2s-0.895-2-2-2v0zM15 20c1.656 0 3-0.896 3-2v-5.303l6-2.345v3.773c-0.299-0.076-0.644-0.122-0.998-0.125h-0.002c-1.656 0-3 0.896-3 2s1.344 2 3 2 3-0.896 3-2v-9c-0-0.552-0.448-0.999-1-0.999-0.107 0-0.211 0.017-0.308 0.048l0.007-0.002-8 2.953c-0.409 0.132-0.699 0.508-0.699 0.953v6.172c-0.299-0.076-0.644-0.122-0.998-0.125h-0.002c-1.656 0-3 0.896-3 2s1.344 2 3 2zM37 0h-34c-1.657 0-3 1.343-3 3v0 20c0 1.657 1.343 3 3 3v0h34c1.657 0 3-1.343 3-3v0-20c0-1.657-1.343-3-3-3v0zM36 22h-32v-18h32z"></path>
</svg>
