<!-- Generated by IcoMoon.io -->
<svg version="1.1" xmlns="http://www.w3.org/2000/svg" width="32" height="32" viewBox="0 0 32 32">
<title>tv-retro</title>
<path d="M26 15.188v-0.5c0-0.412 0.337-0.75 0.75-0.75h0.5c0.413 0 0.75 0.338 0.75 0.75v0.5c0 0.412-0.337 0.75-0.75 0.75h-0.5c-0.413 0-0.75-0.338-0.75-0.75zM32 8.938v18c0 1.656-1.344 3-3 3h-1v2.063h-1l-0.688-2.063h-20.625l-0.688 2.063h-1v-2.063h-1c-1.656 0-3-1.344-3-3v-18c0-1.656 1.344-3 3-3h10.006l-4.675-4.194c-0.412-0.369-0.45-1-0.081-1.413s1-0.45 1.412-0.081l6.338 5.688h0.050l6.281-5.681c0.413-0.369 1.044-0.338 1.413 0.075s0.337 1.044-0.075 1.413l-4.637 4.194h9.969c1.656 0 3 1.344 3 3zM30 8.938c0-0.55-0.45-1-1-1h-26c-0.55 0-1 0.45-1 1v18c0 0.55 0.45 1 1 1h26c0.55 0 1-0.45 1-1v-18zM14 12c-4.3 0-6.638 0.144-7.831 0.269-0.081 0.9-0.169 2.594-0.169 5.669 0 3.156 0.088 4.875 0.169 5.8 1.2 0.119 3.531 0.262 7.831 0.262s6.631-0.144 7.831-0.262c0.081-0.919 0.169-2.644 0.169-5.8 0-3.075-0.087-4.769-0.169-5.669-1.194-0.125-3.531-0.269-7.831-0.269zM14 10c8 0 9.5 0.5 9.5 0.5s0.5 0 0.5 7.438c0 7.563-0.5 7.563-0.5 7.563s-1.5 0.5-9.5 0.5-9.5-0.5-9.5-0.5-0.5 0-0.5-7.563c0-7.438 0.5-7.438 0.5-7.438s1.5-0.5 9.5-0.5zM26.75 19.938h0.5c0.413 0 0.75-0.337 0.75-0.75v-0.5c0-0.413-0.337-0.75-0.75-0.75h-0.5c-0.413 0-0.75 0.337-0.75 0.75v0.5c0 0.413 0.337 0.75 0.75 0.75z"></path>
</svg>
