<!-- Generated by IcoMoon.io -->
<svg version="1.1" xmlns="http://www.w3.org/2000/svg" width="32" height="32" viewBox="0 0 32 32">
<title>tv-retro-solid</title>
<path d="M29 6h-7.825l2.231-2.587c0.781-0.781 0.781-2.050 0-2.831s-2.050-0.781-2.831 0l-4.575 5.306-4.575-5.3c-0.781-0.781-2.050-0.781-2.831 0s-0.781 2.050 0 2.831l2.231 2.581h-7.825c-1.656 0-3 1.344-3 3v18c0 1.656 1.344 3 3 3h1v2h3l1.331-2h15.331l1.331 2h3v-2h1c1.656 0 3-1.344 3-3v-18c0.006-1.656-1.337-3-2.994-3zM24.5 25.5s0 0.5-10.5 0.5c-9.5 0-9.5-0.5-9.5-0.5s-0.5 0-0.5-7.5 0.5-7.5 0.5-7.5 0-0.5 9.5-0.5c10.5 0 10.5 0.5 10.5 0.5s0.5 0 0.5 7.5-0.5 7.5-0.5 7.5zM29 19.25c0 0.413-0.337 0.75-0.75 0.75h-0.5c-0.413 0-0.75-0.337-0.75-0.75v-0.5c0-0.413 0.337-0.75 0.75-0.75h0.5c0.413 0 0.75 0.337 0.75 0.75v0.5zM29 15.25c0 0.412-0.337 0.75-0.75 0.75h-0.5c-0.413 0-0.75-0.338-0.75-0.75v-0.5c0-0.412 0.337-0.75 0.75-0.75h0.5c0.413 0 0.75 0.338 0.75 0.75v0.5z"></path>
</svg>
