<!-- Generated by IcoMoon.io -->
<svg version="1.1" xmlns="http://www.w3.org/2000/svg" width="40" height="32" viewBox="0 0 40 32">
<title>tv</title>
<path d="M37 0h-34c-1.657 0-3 1.343-3 3v0 20c0 1.657 1.343 3 3 3v0h16v4h-10.5c-0.276 0-0.5 0.224-0.5 0.5v0 1c0 0.276 0.224 0.5 0.5 0.5v0h23c0.276 0 0.5-0.224 0.5-0.5v0-1c0-0.276-0.224-0.5-0.5-0.5v0h-10.5v-4h16c1.657 0 3-1.343 3-3v0-20c0-1.657-1.343-3-3-3v0zM38 23c0 0.552-0.448 1-1 1v0h-34c-0.552 0-1-0.448-1-1v0-20c0-0.552 0.448-1 1-1v0h34c0.552 0 1 0.448 1 1v0z"></path>
</svg>
