<!-- Generated by IcoMoon.io -->
<svg version="1.1" xmlns="http://www.w3.org/2000/svg" width="32" height="32" viewBox="0 0 32 32">
<title>typewriter-solid</title>
<path d="M30 12h-2v-7.171c0-0 0-0 0-0 0-0.553-0.224-1.053-0.586-1.415l-2.828-2.828c-0.362-0.362-0.862-0.586-1.415-0.586-0 0-0.001 0-0.001 0h-17.171c-1.105 0-2 0.895-2 2v0 10h-2c-1.105 0-2 0.895-2 2v0 2c0 1.105 0.895 2 2 2v0 10c0 2.209 1.791 4 4 4v0h20c2.209 0 4-1.791 4-4v0-10c1.105 0 2-0.895 2-2v0-2c0-1.105-0.895-2-2-2v0zM8 4h12v3c0 0.552 0.448 1 1 1v0h3v4h-1.172c-0.552 0-1.052 0.224-1.414 0.586l-0.829 0.829c-0.362 0.362-0.862 0.586-1.414 0.586h-6.344c-0.552-0-1.052-0.224-1.414-0.586l-0.829-0.829c-0.362-0.362-0.862-0.586-1.414-0.586h-1.172zM23 18.5v1c0 0.276-0.224 0.5-0.5 0.5v0h-1c-0.276 0-0.5-0.224-0.5-0.5v0-1c0-0.276 0.224-0.5 0.5-0.5v0h1c0.276 0 0.5 0.224 0.5 0.5v0zM19 22.5c0-0.276 0.224-0.5 0.5-0.5v0h1c0.276 0 0.5 0.224 0.5 0.5v0 1c0 0.276-0.224 0.5-0.5 0.5v0h-1c-0.276 0-0.5-0.224-0.5-0.5v0zM18.5 20h-1c-0.276 0-0.5-0.224-0.5-0.5v0-1c0-0.276 0.224-0.5 0.5-0.5v0h1c0.276 0 0.5 0.224 0.5 0.5v0 1c0 0.276-0.224 0.5-0.5 0.5v0zM15 22.5c0-0.276 0.224-0.5 0.5-0.5v0h1c0.276 0 0.5 0.224 0.5 0.5v0 1c0 0.276-0.224 0.5-0.5 0.5v0h-1c-0.276 0-0.5-0.224-0.5-0.5v0zM14.5 20h-1c-0.276 0-0.5-0.224-0.5-0.5v0-1c0-0.276 0.224-0.5 0.5-0.5v0h1c0.276 0 0.5 0.224 0.5 0.5v0 1c0 0.276-0.224 0.5-0.5 0.5v0zM11 22.5c0-0.276 0.224-0.5 0.5-0.5v0h1c0.276 0 0.5 0.224 0.5 0.5v0 1c0 0.276-0.224 0.5-0.5 0.5v0h-1c-0.276 0-0.5-0.224-0.5-0.5v0zM10.5 20h-1c-0.276 0-0.5-0.224-0.5-0.5v0-1c0-0.276 0.224-0.5 0.5-0.5v0h1c0.276 0 0.5 0.224 0.5 0.5v0 1c0 0.276-0.224 0.5-0.5 0.5v0zM6.5 20h-1c-0.276 0-0.5-0.224-0.5-0.5v0-1c0-0.276 0.224-0.5 0.5-0.5v0h1c0.276 0 0.5 0.224 0.5 0.5v0 1c0 0.276-0.224 0.5-0.5 0.5v0zM8.5 24h-1c-0.276 0-0.5-0.224-0.5-0.5v0-1c0-0.276 0.224-0.5 0.5-0.5v0h1c0.276 0 0.5 0.224 0.5 0.5v0 1c0 0.276-0.224 0.5-0.5 0.5v0zM23 27.5c0 0.276-0.224 0.5-0.5 0.5v0h-13c-0.276 0-0.5-0.224-0.5-0.5v0-1c0-0.276 0.224-0.5 0.5-0.5v0h13c0.276 0 0.5 0.224 0.5 0.5v0zM25 23.5c0 0.276-0.224 0.5-0.5 0.5v0h-1c-0.276 0-0.5-0.224-0.5-0.5v0-1c0-0.276 0.224-0.5 0.5-0.5v0h1c0.276 0 0.5 0.224 0.5 0.5v0zM27 19.5c0 0.276-0.224 0.5-0.5 0.5v0h-1c-0.276 0-0.5-0.224-0.5-0.5v0-1c0-0.276 0.224-0.5 0.5-0.5v0h1c0.276 0 0.5 0.224 0.5 0.5v0z"></path>
</svg>
