<!-- Generated by IcoMoon.io -->
<svg version="1.1" xmlns="http://www.w3.org/2000/svg" width="32" height="32" viewBox="0 0 32 32">
<title>typewriter</title>
<path d="M19.5 24h1c0.276 0 0.5-0.224 0.5-0.5v0-1c0-0.276-0.224-0.5-0.5-0.5v0h-1c-0.276 0-0.5 0.224-0.5 0.5v0 1c0 0.276 0.224 0.5 0.5 0.5v0zM23.5 24h1c0.276 0 0.5-0.224 0.5-0.5v0-1c0-0.276-0.224-0.5-0.5-0.5v0h-1c-0.276 0-0.5 0.224-0.5 0.5v0 1c0 0.276 0.224 0.5 0.5 0.5v0zM7.5 24h1c0.276 0 0.5-0.224 0.5-0.5v0-1c0-0.276-0.224-0.5-0.5-0.5v0h-1c-0.276 0-0.5 0.224-0.5 0.5v0 1c0 0.276 0.224 0.5 0.5 0.5v0zM30 12h-2v-5.171c-0-0.553-0.224-1.053-0.586-1.416l-4.827-4.827c-0.362-0.362-0.862-0.586-1.414-0.586h-14.172c-1.657 0-3 1.343-3 3v0 9h-2c-1.105 0-2 0.895-2 2v0 4c0 1.105 0.895 2 2 2v0 8c0 2.209 1.791 4 4 4v0h20c2.209 0 4-1.791 4-4v0-8c1.105 0 2-0.895 2-2v0-4c0-1.105-0.895-2-2-2v0zM22 2.828l3.172 3.172h-3.172zM6 3c0-0.552 0.448-1 1-1v0h13v4c0 1.105 0.895 2 2 2v0h4v4h-3.172c-0.552 0-1.052 0.224-1.414 0.586l-0.829 0.829c-0.362 0.362-0.862 0.586-1.414 0.586h-6.344c-0.552-0-1.052-0.224-1.414-0.586l-0.829-0.829c-0.362-0.362-0.862-0.586-1.414-0.586h-3.172zM28 28c0 1.105-0.895 2-2 2v0h-20c-1.105 0-2-0.895-2-2v0-8h24zM30 18h-28v-4h7.172l0.828 0.828c0.72 0.724 1.717 1.172 2.818 1.172 0.004 0 0.007 0 0.011 0h6.343c0.003 0 0.007 0 0.010 0 1.101 0 2.098-0.448 2.818-1.172l0.828-0.828h7.172zM9 27.5c0 0.276 0.224 0.5 0.5 0.5v0h13c0.276 0 0.5-0.224 0.5-0.5v0-1c0-0.276-0.224-0.5-0.5-0.5v0h-13c-0.276 0-0.5 0.224-0.5 0.5v0zM11.5 24h1c0.276 0 0.5-0.224 0.5-0.5v0-1c0-0.276-0.224-0.5-0.5-0.5v0h-1c-0.276 0-0.5 0.224-0.5 0.5v0 1c0 0.276 0.224 0.5 0.5 0.5v0zM15.5 24h1c0.276 0 0.5-0.224 0.5-0.5v0-1c0-0.276-0.224-0.5-0.5-0.5v0h-1c-0.276 0-0.5 0.224-0.5 0.5v0 1c0 0.276 0.224 0.5 0.5 0.5v0z"></path>
</svg>
