<!-- Generated by IcoMoon.io -->
<svg version="1.1" xmlns="http://www.w3.org/2000/svg" width="40" height="32" viewBox="0 0 40 32">
<title>ufo-beam-solid</title>
<path d="M2.106 30.105c-0.067 0.13-0.106 0.284-0.106 0.447 0 0.389 0.222 0.727 0.547 0.892l0.006 0.003 0.895 0.447c0.13 0.067 0.284 0.106 0.447 0.106 0.389 0 0.727-0.222 0.892-0.547l0.003-0.006 5.105-10.211c0.053-0.105 0.088-0.229 0.098-0.359l0-0.003c-1.166-0.279-2.119-0.569-3.048-0.905l0.198 0.062zM32.858 20.032c-0.732 0.274-1.684 0.563-2.655 0.802l-0.195 0.041c0.010 0.134 0.045 0.257 0.101 0.368l-0.003-0.006 5.105 10.211c0.168 0.33 0.505 0.553 0.894 0.553 0.163 0 0.317-0.039 0.453-0.108l-0.006 0.003 0.895-0.447c0.33-0.168 0.553-0.505 0.553-0.894 0-0.163-0.039-0.317-0.108-0.453l0.003 0.006zM38 13c0-2.556-3.533-4.785-8.793-6.007-1.131-4.020-4.809-6.993-9.207-6.993s-8.076 2.974-9.207 6.993c-5.259 1.222-8.793 3.451-8.793 6.007 0 3.866 8.059 7 18 7s18-3.134 18-7zM8.001 14.5c0 0-0 0-0 0-0.828 0-1.5-0.672-1.5-1.5s0.672-1.5 1.5-1.5c0.828 0 1.5 0.672 1.5 1.5 0 0 0 0 0 0v0c-0 0.828-0.672 1.5-1.5 1.5v0zM20 17.5c0 0-0 0-0 0-0.828 0-1.5-0.672-1.5-1.5s0.672-1.5 1.5-1.5c0.828 0 1.5 0.672 1.5 1.5v0c-0 0.828-0.672 1.5-1.5 1.5v0zM26.513 10.404c-1.887 1.006-4.126 1.596-6.504 1.596-0.003 0-0.006 0-0.010 0h0c-0.003 0-0.006 0-0.009 0-2.377 0-4.617-0.591-6.58-1.633l0.076 0.037c-0.045-0.251-0.076-0.546-0.087-0.847l-0-0.011c0-3.615 2.955-6.545 6.6-6.545s6.6 2.93 6.6 6.545c-0.011 0.312-0.042 0.608-0.093 0.897l0.006-0.038zM32 14.5c0 0-0 0-0 0-0.828 0-1.5-0.672-1.5-1.5s0.672-1.5 1.5-1.5c0.828 0 1.5 0.672 1.5 1.5 0 0 0 0 0 0v0c-0 0.828-0.672 1.5-1.5 1.5v0z"></path>
</svg>
