<!-- Generated by IcoMoon.io -->
<svg version="1.1" xmlns="http://www.w3.org/2000/svg" width="40" height="32" viewBox="0 0 40 32">
<title>ufo-solid</title>
<path d="M30.921 13.303c-0.825-5.26-5.401-9.303-10.921-9.303s-10.096 4.042-10.921 9.303c-5.463 1.428-9.079 3.892-9.079 6.697 0 4.418 8.954 8 20 8s20-3.582 20-8c0-2.805-3.616-5.269-9.079-6.697zM8 22.5c-0.828 0-1.5-0.672-1.5-1.5s0.672-1.5 1.5-1.5c0.828 0 1.5 0.672 1.5 1.5v0c-0 0.828-0.672 1.5-1.5 1.5v0zM20 24.5c-0.828 0-1.5-0.672-1.5-1.5s0.672-1.5 1.5-1.5c0.828 0 1.5 0.672 1.5 1.5v0c-0 0.828-0.672 1.5-1.5 1.5v0zM27.96 16.049c-2.31 1.229-5.051 1.951-7.96 1.951s-5.65-0.722-8.053-1.996l0.093 0.045c-0.046-0.347-0.107-0.69-0.107-1.049 0-4.418 3.611-8 8.067-8s8.067 3.582 8.067 8c0 0.359-0.060 0.702-0.107 1.049zM32 22.5c-0.828 0-1.5-0.672-1.5-1.5s0.672-1.5 1.5-1.5c0.828 0 1.5 0.672 1.5 1.5v0c-0 0.828-0.672 1.5-1.5 1.5v0z"></path>
</svg>
