<!-- Generated by IcoMoon.io -->
<svg version="1.1" xmlns="http://www.w3.org/2000/svg" width="40" height="32" viewBox="0 0 40 32">
<title>ufo-beam</title>
<path d="M20 13.5c-0.828 0-1.5 0.672-1.5 1.5s0.672 1.5 1.5 1.5c0.828 0 1.5-0.672 1.5-1.5v0c0 0 0 0 0 0 0-0.828-0.672-1.5-1.5-1.5 0 0 0 0 0 0v0zM9.5 11.5c-0.828 0-1.5 0.672-1.5 1.5s0.672 1.5 1.5 1.5c0.828 0 1.5-0.672 1.5-1.5v0c0 0 0 0 0 0 0-0.828-0.672-1.5-1.5-1.5 0 0 0 0 0 0v0zM30.5 11.5c-0.828 0-1.5 0.672-1.5 1.5s0.672 1.5 1.5 1.5c0.828 0 1.5-0.672 1.5-1.5v0c0 0 0 0 0 0 0-0.828-0.672-1.5-1.5-1.5 0 0 0 0 0 0v0zM38 13c0-2.558-3.558-4.778-8.826-5.999-1.107-4.043-4.838-7.001-9.174-7.001s-8.067 2.958-9.174 7.001c-5.268 1.221-8.826 3.441-8.826 5.999 0 3.866 8.059 7 18 7s18-3.134 18-7zM20 2c0.004 0 0.009 0 0.015 0 3.942 0 7.173 3.044 7.471 6.909l0.002 0.026c-2.235 0.678-4.781 1.065-7.487 1.065s-5.253-0.387-7.487-1.065c0.3-3.891 3.531-6.935 7.473-6.935 0.005 0 0.010 0 0.015 0h-0.001zM20 18c-10.353 0-16-3.303-16-5 0-1.071 2.286-2.771 6.55-3.887 0.074 0.798 0.594 1.496 1.382 1.735 2.519 0.764 5.233 1.151 8.068 1.151s5.549-0.387 8.068-1.151c0.788-0.239 1.309-0.937 1.382-1.735 4.263 1.116 6.55 2.816 6.55 3.887 0 1.697-5.647 5-16 5zM32.557 20.141c-0.624 0.213-1.269 0.412-1.943 0.589l5.544 10.994c0.084 0.165 0.253 0.276 0.447 0.276 0.081 0 0.158-0.020 0.226-0.054l-0.003 0.001 0.895-0.447c0.165-0.084 0.276-0.253 0.276-0.447 0-0.081-0.019-0.158-0.054-0.226l0.001 0.003zM2.053 30.829c-0.033 0.065-0.053 0.142-0.053 0.224 0 0.195 0.111 0.363 0.274 0.446l0.003 0.001 0.895 0.447c0.065 0.033 0.142 0.053 0.224 0.053 0.195 0 0.363-0.111 0.446-0.274l0.001-0.003 5.544-10.994c-0.674-0.177-1.319-0.376-1.943-0.589z"></path>
</svg>
