<!-- Generated by IcoMoon.io -->
<svg version="1.1" xmlns="http://www.w3.org/2000/svg" width="40" height="32" viewBox="0 0 40 32">
<title>ufo</title>
<path d="M20 21.5c-0.828 0-1.5 0.672-1.5 1.5s0.672 1.5 1.5 1.5c0.828 0 1.5-0.672 1.5-1.5v0c0 0 0 0 0 0 0-0.828-0.672-1.5-1.5-1.5 0 0 0 0 0 0v0zM8 18.5c-0.828 0-1.5 0.672-1.5 1.5s0.672 1.5 1.5 1.5c0.828 0 1.5-0.672 1.5-1.5v0c0 0 0 0 0 0 0-0.828-0.672-1.5-1.5-1.5 0 0 0 0 0 0v0zM32 18.5c-0.828 0-1.5 0.672-1.5 1.5s0.672 1.5 1.5 1.5c0.828 0 1.5-0.672 1.5-1.5v0c0 0 0 0 0 0 0-0.828-0.672-1.5-1.5-1.5 0 0 0 0 0 0v0zM30.687 13.263c-0.723-5.223-5.234-9.263-10.687-9.263s-9.964 4.040-10.687 9.263c-5.58 1.419-9.313 3.897-9.313 6.737 0 4.418 8.954 8 20 8s20-3.582 20-8c0-2.841-3.733-5.318-9.313-6.737zM20 6c4.86 0 8.8 3.907 8.8 8.727 0 0.392-0.066 0.766-0.116 1.144-2.516 1.341-5.502 2.129-8.671 2.129-0.004 0-0.009 0-0.013 0h0.001c-0.004 0-0.008 0-0.012 0-3.17 0-6.156-0.788-8.773-2.178l0.101 0.049c-0.051-0.378-0.116-0.752-0.116-1.144 0-4.82 3.94-8.727 8.8-8.727zM20 26c-10.988 0-18-3.554-18-6 0-1.501 2.676-3.404 7.254-4.662 0.034 0.332 0.008 0.278 0.080 0.798 0.091 0.659 0.491 1.209 1.047 1.503l0.011 0.005c2.789 1.48 6.096 2.351 9.607 2.355h0.001c3.512-0.004 6.82-0.875 9.722-2.41l-0.113 0.055c0.567-0.3 0.967-0.849 1.057-1.498l0.001-0.010c0.072-0.52 0.046-0.467 0.080-0.798 4.577 1.258 7.254 3.161 7.254 4.662 0 2.446-7.012 6-18 6z"></path>
</svg>
