<!-- Generated by IcoMoon.io -->
<svg version="1.1" xmlns="http://www.w3.org/2000/svg" width="40" height="32" viewBox="0 0 40 32">
<title>umbrella-beach</title>
<path d="M27.718 1.13c-2.107-0.767-4.261-1.13-6.379-1.13-5.654 0-11.053 2.591-14.59 7.021-0.419 0.524-0.167 1.315 0.464 1.544l14.759 5.372-5.847 16.063h-15.624c-0.276 0-0.5 0.224-0.5 0.5v1c0 0.276 0.224 0.5 0.5 0.5h35c0.276 0 0.5-0.224 0.5-0.5v-1c0-0.276-0.224-0.5-0.5-0.5h-17.248l5.598-15.379 14.797 5.386c0.114 0.042 0.231 0.061 0.346 0.061 0.517 0 0.989-0.397 1.002-0.946 0.189-7.791-4.548-15.178-12.277-17.991zM9.261 7.183c3.121-3.268 7.537-5.183 12.078-5.183 0.488 0 0.975 0.022 1.46 0.065-2.304 1.448-4.61 4.164-6.441 7.701l-7.097-2.583zM28.961 14.353l-10.695-3.893c2.527-4.777 5.789-7.579 8.009-7.58 0.272 0 0.52 0.042 0.758 0.129 1.223 0.445 2.123 2.197 2.41 4.688 0.229 1.989 0.033 4.278-0.482 6.656zM30.886 15.054c0.864-3.848 0.854-7.393 0.044-9.977 4.083 2.88 6.724 7.466 7.038 12.556l-7.082-2.578z"></path>
</svg>
