<!-- Generated by IcoMoon.io -->
<svg version="1.1" xmlns="http://www.w3.org/2000/svg" width="36" height="32" viewBox="0 0 36 32">
<title>umbrella-solid</title>
<path d="M35.981 17.55c-1.788-8.519-8.65-13.637-15.981-14.431v-1.119c0-1.106-0.894-2-2-2s-2 0.894-2 2v1.119c-7.356 0.794-14.156 5.912-15.981 14.431-0.138 0.631 0.531 1.331 1.169 0.712 3.25-3.438 6.731-3.275 9.912 2.313 0.331 0.594 0.931 0.538 1.231 0 1.262-2.212 2.806-4.575 5.669-4.575 3.656 0 5.512 4.3 5.669 4.575 0.3 0.538 0.9 0.594 1.231 0 3.188-5.594 6.694-5.713 9.912-2.313 0.644 0.625 1.306-0.081 1.169-0.712zM16 18.856v8.144c0 0.55-0.45 1-1 1-0.488 0-0.825-0.331-0.944-0.669-0.369-1.044-1.506-1.587-2.55-1.219s-1.588 1.512-1.219 2.55c0.7 1.994 2.6 3.331 4.713 3.331 2.756 0 5-2.244 5-5v-8.144c-0.569-0.494-1.238-0.85-2-0.85-0.769 0.006-1.4 0.3-2 0.856z"></path>
</svg>
