<!-- Generated by IcoMoon.io -->
<svg version="1.1" xmlns="http://www.w3.org/2000/svg" width="36" height="32" viewBox="0 0 36 32">
<title>umbrella</title>
<path d="M35.95 15.863c-1.831-7.688-9.044-12.456-16.95-12.838v-2.025c0-0.55-0.45-1-1-1s-1 0.45-1 1v2.025c-7.875 0.375-15.069 5.094-16.95 12.831-0.375 1.494 1.425 2.756 2.756 1.569 3.094-2.881 5.619-1.731 7.838 1.731 0.713 1.113 2.175 1.056 2.85 0 0.95-1.469 1.95-2.813 3.513-3.219v12.069c0 1.106-0.894 2-2 2-0.85 0-1.606-0.538-1.887-1.331-0.188-0.519-0.756-0.794-1.275-0.613s-0.794 0.756-0.606 1.275c0.563 1.594 2.081 2.669 3.775 2.669 2.206 0 4-1.794 4-4v-12.056c1.881 0.519 2.788 2.081 3.512 3.2 0.675 1.063 2.144 1.106 2.85 0 2.262-3.494 4.788-4.563 7.837-1.731 1.306 1.181 3.106-0.063 2.737-1.556zM23.956 17.656c-1.519-2.481-3.619-3.844-5.956-3.844-2.781 0-4.475 1.688-5.919 3.844-2.6-4.238-6.719-4.844-9.756-2.456 2.181-6.531 8.85-10.2 15.675-10.2 6.831 0 13.563 3.706 15.7 10.231-3.644-2.744-7.131-1.369-9.744 2.425z"></path>
</svg>
