<!-- Generated by IcoMoon.io -->
<svg version="1.1" xmlns="http://www.w3.org/2000/svg" width="40" height="32" viewBox="0 0 40 32">
<title>umbrella-beach-solid</title>
<path d="M7.211 8.556l6.382 2.324c2.199-5.096 5.388-9.018 8.688-10.856-5.992-0.306-11.799 2.31-15.533 6.987-0.418 0.525-0.166 1.316 0.464 1.545zM15.477 11.566l14.905 5.427c2.235-7.586 1.169-14.479-2.664-15.874-0.462-0.169-0.946-0.25-1.443-0.25-3.626 0.001-8.017 4.323-10.797 10.697zM32.593 3.781c0.389 1.019 0.677 2.162 0.825 3.449 0.359 3.118-0.089 6.764-1.184 10.436l6.414 2.335c0.631 0.229 1.332-0.214 1.348-0.886 0.145-5.981-2.619-11.715-7.403-15.335zM35 27.999h-14.934l4.059-11.155-3.759-1.369-4.556 12.523h-14.81c-0.552 0-1 0.448-1 1.001v2.001c0 0.552 0.448 1.001 1 1.001h34c0.553 0 1-0.448 1-1.001v-2.001c0-0.552-0.447-1-1-1z"></path>
</svg>
