<!-- Generated by IcoMoon.io -->
<svg version="1.1" xmlns="http://www.w3.org/2000/svg" width="28" height="32" viewBox="0 0 28 32">
<title>underline-solid</title>
<path d="M2 4h2v10c0 5.514 4.486 10 10 10s10-4.486 10-10v-10h2c0.552 0 1-0.448 1-1v0-2c0-0.552-0.448-1-1-1v0h-9c-0.552 0-1 0.448-1 1v0 2c0 0.552 0.448 1 1 1v0h2v10c0 2.761-2.239 5-5 5s-5-2.239-5-5v0-10h2c0.552 0 1-0.448 1-1v0-2c0-0.552-0.448-1-1-1v0h-9c-0.552 0-1 0.448-1 1v0 2c0 0.552 0.448 1 1 1v0zM27 28h-26c-0.552 0-1 0.448-1 1v0 2c0 0.552 0.448 1 1 1v0h26c0.552 0 1-0.448 1-1v0-2c0-0.552-0.448-1-1-1v0z"></path>
</svg>
