<!-- Generated by IcoMoon.io -->
<svg version="1.1" xmlns="http://www.w3.org/2000/svg" width="32" height="32" viewBox="0 0 32 32">
<title>undo-solid</title>
<path d="M13.271 14.021h-12.521c-0.414 0-0.75-0.336-0.75-0.75v-12.521c0-0.414 0.336-0.75 0.75-0.75h3c0.414 0 0.75 0.336 0.75 0.75v4.882c2.861-3.177 7.016-5.165 11.636-5.132 8.557 0.062 15.403 6.976 15.385 15.533-0.018 8.545-6.951 15.466-15.5 15.466-4.006 0-7.656-1.52-10.407-4.013-0.319-0.289-0.333-0.785-0.029-1.089l2.123-2.123c0.28-0.28 0.729-0.295 1.025-0.033 1.94 1.716 4.491 2.758 7.288 2.758 6.079 0 11-4.92 11-11 0-6.079-4.92-11-11-11-3.656 0-6.893 1.78-8.892 4.521h6.142c0.414 0 0.75 0.336 0.75 0.75v3c0 0.414-0.336 0.75-0.75 0.75z"></path>
</svg>
