<!-- Generated by IcoMoon.io -->
<svg version="1.1" xmlns="http://www.w3.org/2000/svg" width="32" height="32" viewBox="0 0 32 32">
<title>undo-alt</title>
<path d="M16.012 0.5c-3.563 0-6.844 1.2-9.469 3.219l-3.131-3.131c-1.25-1.256-3.413-0.369-3.413 1.413v8c0 1.106 0.894 2 2 2h8c1.781 0 2.669-2.156 1.412-3.412l-3.35-3.356c2.269-1.675 5.031-2.606 7.938-2.606 7.4 0 13.375 6 13.375 13.375 0 7.4-6 13.375-13.375 13.375-3.356 0-6.512-1.238-8.944-3.431-0.294-0.269-0.75-0.25-1.031 0.031l-0.444 0.444c-0.306 0.306-0.287 0.8 0.031 1.087 2.75 2.481 6.394 3.994 10.387 3.994 8.55 0 15.481-6.925 15.5-15.469s-6.95-15.525-15.488-15.531zM10 10h-8v-8z"></path>
</svg>
