<!-- Generated by IcoMoon.io -->
<svg version="1.1" xmlns="http://www.w3.org/2000/svg" width="32" height="32" viewBox="0 0 32 32">
<title>universal-access-solid</title>
<path d="M16 3c7.185 0 13 5.814 13 13 0 7.185-5.814 13-13 13-7.185 0-13-5.814-13-13 0-7.185 5.814-13 13-13zM16 0.5c-8.56 0-15.5 6.94-15.5 15.5s6.94 15.5 15.5 15.5 15.5-6.94 15.5-15.5-6.94-15.5-15.5-15.5zM16 4c-6.627 0-12 5.373-12 12s5.373 12 12 12 12-5.373 12-12-5.373-12-12-12zM16 6.75c1.243 0 2.25 1.007 2.25 2.25s-1.007 2.25-2.25 2.25-2.25-1.007-2.25-2.25 1.007-2.25 2.25-2.25zM23.359 12.876c-1.794 0.424-3.469 0.797-5.134 0.988 0.053 6.314 0.769 7.691 1.565 9.726 0.226 0.579-0.060 1.231-0.639 1.457s-1.231-0.060-1.457-0.639c-0.544-1.394-1.068-2.54-1.391-4.909h-0.605c-0.323 2.366-0.846 3.513-1.391 4.909-0.226 0.578-0.878 0.865-1.457 0.639s-0.865-0.878-0.639-1.457c0.795-2.034 1.512-3.409 1.565-9.726-1.664-0.191-3.339-0.564-5.134-0.988-0.537-0.127-0.87-0.665-0.743-1.203s0.665-0.87 1.203-0.743c6.043 1.427 7.768 1.424 13.798 0 0.537-0.127 1.076 0.206 1.203 0.743s-0.206 1.076-0.744 1.203z"></path>
</svg>
