<!-- Generated by IcoMoon.io -->
<svg version="1.1" xmlns="http://www.w3.org/2000/svg" width="32" height="32" viewBox="0 0 32 32">
<title>universal-access</title>
<path d="M16 0.5c-8.56 0-15.5 6.94-15.5 15.5s6.94 15.5 15.5 15.5 15.5-6.94 15.5-15.5-6.94-15.5-15.5-15.5zM16 29.5c-7.416 0-13.5-6.003-13.5-13.5 0-7.416 6.003-13.5 13.5-13.5 7.416 0 13.5 6.003 13.5 13.5 0 7.416-6.003 13.5-13.5 13.5zM24.731 10.77c0.127 0.538-0.206 1.076-0.744 1.203-1.938 0.458-3.747 0.861-5.543 1.070 0.033 7.178 0.823 8.749 1.703 11.002 0.251 0.643-0.066 1.368-0.709 1.619s-1.368-0.067-1.619-0.709c-0.582-1.49-1.159-2.785-1.517-5.455h-0.605c-0.358 2.673-0.937 3.97-1.517 5.455-0.251 0.644-0.977 0.961-1.619 0.71s-0.961-0.976-0.71-1.619c0.881-2.255 1.67-3.827 1.703-11.002-1.796-0.209-3.605-0.612-5.543-1.070-0.537-0.127-0.87-0.665-0.743-1.203s0.665-0.87 1.203-0.744c6.576 1.553 8.467 1.556 15.057 0 0.537-0.126 1.076 0.206 1.203 0.744zM13.613 8.113c0-1.318 1.069-2.387 2.387-2.387s2.387 1.069 2.387 2.387-1.069 2.387-2.387 2.387-2.387-1.069-2.387-2.387z"></path>
</svg>
