<!-- Generated by IcoMoon.io -->
<svg version="1.1" xmlns="http://www.w3.org/2000/svg" width="32" height="32" viewBox="0 0 32 32">
<title>university-solid</title>
<path d="M31 8v1c0 0.276-0.224 0.5-0.5 0.5v0h-1.5v0.75c0 0.414-0.336 0.75-0.75 0.75h-24.5c-0.414 0-0.75-0.336-0.75-0.75v-0.75h-1.5c-0.276 0-0.5-0.224-0.5-0.5v0-1c0-0.207 0.126-0.385 0.306-0.461l0.003-0.001 14.5-5.5c0.056-0.024 0.122-0.038 0.191-0.038s0.135 0.014 0.194 0.039l-0.003-0.001 14.5 5.5c0.183 0.077 0.309 0.255 0.309 0.462v0zM29.5 27h-27c-0.828 0-1.5 0.672-1.5 1.5v1c0 0.276 0.224 0.5 0.5 0.5v0h29c0.276 0 0.5-0.224 0.5-0.5v0-1c0-0.828-0.672-1.5-1.5-1.5zM6 12v12h-2.25c-0.414 0-0.75 0.336-0.75 0.75v1.25h26v-1.25c0-0.414-0.336-0.75-0.75-0.75h-2.25v-12h-4v12h-4v-12h-4v12h-4v-12h-4z"></path>
</svg>
