<!-- Generated by IcoMoon.io -->
<svg version="1.1" xmlns="http://www.w3.org/2000/svg" width="32" height="32" viewBox="0 0 32 32">
<title>university</title>
<path d="M31 28h-1v-2.5c0-0.828-0.672-1.5-1.5-1.5h-2.5v-11h-2v11h-4v-11h-2v11h-4v-11h-2v11h-4v-11h-2v11h-2.5c-0.828 0-1.5 0.672-1.5 1.5v2.5h-1c-0.552 0-1 0.448-1 1v0.5c0 0.276 0.224 0.5 0.5 0.5v0h31c0.276 0 0.5-0.224 0.5-0.5v0-0.5c0-0.552-0.448-1-1-1zM4 26h24v2h-24v-2zM31.517 8.5l-14.568-6.346c-0.283-0.098-0.609-0.154-0.949-0.154s-0.666 0.056-0.97 0.16l0.021-0.006-14.568 6.346c-0.285 0.111-0.483 0.383-0.483 0.701 0 0 0 0 0 0v0 0.549c0 0.414 0.336 0.75 0.75 0.75h1.25v0.75c0 0.414 0.336 0.75 0.75 0.75h26.5c0.414 0 0.75-0.336 0.75-0.75v-0.75h1.25c0.414 0 0.75-0.336 0.75-0.75v-0.549c0-0.311-0.192-0.59-0.483-0.701zM28 10h-24v-0.85l11.746-5.117c0.076-0.021 0.163-0.033 0.254-0.033s0.177 0.012 0.261 0.034l-0.007-0.002 11.746 5.117v0.85z"></path>
</svg>
