<!-- Generated by IcoMoon.io -->
<svg version="1.1" xmlns="http://www.w3.org/2000/svg" width="32" height="32" viewBox="0 0 32 32">
<title>unlink</title>
<path d="M12.993 8.577c-0.293-0.293-0.293-0.768 0-1.061l5.135-5.135c3.176-3.176 8.315-3.175 11.491 0s3.175 8.316-0 11.49l-5.135 5.135c-0.293 0.293-0.768 0.293-1.061 0l-0.53-0.53c-0.293-0.293-0.293-0.768 0-1.061l5.135-5.135c2.296-2.296 2.296-6.013 0-8.309s-6.012-2.296-8.309-0l-5.135 5.135c-0.293 0.293-0.768 0.293-1.061 0l-0.53-0.53zM12.281 28.033c-2.291 2.291-6.018 2.291-8.309-0-2.296-2.296-2.296-6.012 0-8.309l5.137-5.137c0.293-0.293 0.293-0.768 0-1.061l-0.53-0.53c-0.293-0.293-0.768-0.293-1.061 0l-5.137 5.137c-3.175 3.175-3.176 8.315 0 11.491 3.168 3.168 8.323 3.168 11.49 0l5.137-5.137c0.293-0.293 0.293-0.768 0-1.061l-0.53-0.53c-0.293-0.293-0.768-0.293-1.061 0l-5.137 5.137zM0.75 0.22l-0.53 0.53c-0.293 0.293-0.293 0.768 0 1.061l29.97 29.97c0.293 0.293 0.768 0.293 1.061 0l0.53-0.53c0.293-0.293 0.293-0.768 0-1.061l-29.97-29.97c-0.293-0.293-0.768-0.293-1.061 0z"></path>
</svg>
