<!-- Generated by IcoMoon.io -->
<svg version="1.1" xmlns="http://www.w3.org/2000/svg" width="24" height="32" viewBox="0 0 24 32">
<title>unlock</title>
<path d="M21 16h-15v-6c0-4.412 1.588-8 6-8s6 3.588 6 8v1.25c0 0.412 0.337 0.75 0.75 0.75h0.5c0.413 0 0.75-0.338 0.75-0.75v-1.156c0-5.525-2.444-10.075-7.969-10.094-5.531-0.019-8.031 4.475-8.031 10v6h-1c-1.656 0-3 1.344-3 3v10c0 1.656 1.344 3 3 3h18c1.656 0 3-1.344 3-3v-10c0-1.656-1.344-3-3-3zM22 29c0 0.55-0.45 1-1 1h-18c-0.55 0-1-0.45-1-1v-10c0-0.55 0.45-1 1-1h18c0.55 0 1 0.45 1 1v10z"></path>
</svg>
