<!-- Generated by IcoMoon.io -->
<svg version="1.1" xmlns="http://www.w3.org/2000/svg" width="28" height="32" viewBox="0 0 28 32">
<title>unlock-alt-solid</title>
<path d="M25 16h-15.5v-6.444c0-2.475 1.981-4.531 4.456-4.556 2.5-0.025 4.544 2.006 4.544 4.5v1c0 0.831 0.669 1.5 1.5 1.5h2c0.831 0 1.5-0.669 1.5-1.5v-1c0-5.25-4.281-9.519-9.531-9.5s-9.469 4.344-9.469 9.594v6.406h-1.5c-1.656 0-3 1.344-3 3v10c0 1.656 1.344 3 3 3h22c1.656 0 3-1.344 3-3v-10c0-1.656-1.344-3-3-3zM16.5 25.5c0 1.381-1.119 2.5-2.5 2.5s-2.5-1.119-2.5-2.5v-3c0-1.381 1.119-2.5 2.5-2.5s2.5 1.119 2.5 2.5v3z"></path>
</svg>
