<!-- Generated by IcoMoon.io -->
<svg version="1.1" xmlns="http://www.w3.org/2000/svg" width="32" height="32" viewBox="0 0 32 32">
<title>upload-solid</title>
<path d="M18.5 24h-5c-0.831 0-1.5-0.669-1.5-1.5v-10.5h-5.481c-1.112 0-1.669-1.344-0.881-2.131l9.506-9.512c0.469-0.469 1.238-0.469 1.706 0l9.512 9.512c0.788 0.787 0.231 2.131-0.881 2.131h-5.481v10.5c0 0.831-0.669 1.5-1.5 1.5zM32 23.5v7c0 0.831-0.669 1.5-1.5 1.5h-29c-0.831 0-1.5-0.669-1.5-1.5v-7c0-0.831 0.669-1.5 1.5-1.5h8.5v0.5c0 1.931 1.569 3.5 3.5 3.5h5c1.931 0 3.5-1.569 3.5-3.5v-0.5h8.5c0.831 0 1.5 0.669 1.5 1.5zM24.25 29c0-0.688-0.563-1.25-1.25-1.25s-1.25 0.563-1.25 1.25 0.563 1.25 1.25 1.25 1.25-0.563 1.25-1.25zM28.25 29c0-0.688-0.563-1.25-1.25-1.25s-1.25 0.563-1.25 1.25 0.563 1.25 1.25 1.25 1.25-0.563 1.25-1.25z"></path>
</svg>
