<!-- Generated by IcoMoon.io -->
<svg version="1.1" xmlns="http://www.w3.org/2000/svg" width="40" height="32" viewBox="0 0 40 32">
<title>usb-drive-solid</title>
<path d="M39 8h-9v16h9c0.552 0 1-0.448 1-1v0-14c0-0.552-0.448-1-1-1v0zM36.5 19.5c0 0.552-0.448 1-1 1v0h-1c-0.552 0-1-0.448-1-1v0-1c0-0.552 0.448-1 1-1v0h1c0.552 0 1 0.448 1 1v0zM36.5 13.5c0 0.552-0.448 1-1 1v0h-1c-0.552 0-1-0.448-1-1v0-1c0-0.552 0.448-1 1-1v0h1c0.552 0 1 0.448 1 1v0zM27 6h-23c-2.209 0-4 1.791-4 4v0 12c0 2.209 1.791 4 4 4v0h23c0.552 0 1-0.448 1-1v0-18c0-0.552-0.448-1-1-1v0z"></path>
</svg>
