<!-- Generated by IcoMoon.io -->
<svg version="1.1" xmlns="http://www.w3.org/2000/svg" width="40" height="32" viewBox="0 0 40 32">
<title>usb-drive</title>
<path d="M33.5 15h1c0.552 0 1-0.448 1-1v0-1c0-0.552-0.448-1-1-1v0h-1c-0.552 0-1 0.448-1 1v0 1c0 0.552 0.448 1 1 1v0zM33.5 20h1c0.552 0 1-0.448 1-1v0-1c0-0.552-0.448-1-1-1v0h-1c-0.552 0-1 0.448-1 1v0 1c0 0.552 0.448 1 1 1v0zM39 8h-9v-1c0-0.552-0.448-1-1-1v0h-25c-2.209 0-4 1.791-4 4v0 12c0 2.209 1.791 4 4 4v0h25c0.552 0 1-0.448 1-1v0-1h9c0.552 0 1-0.448 1-1v0-14c0-0.552-0.448-1-1-1v0zM28 24h-24c-1.105 0-2-0.895-2-2v0-12c0-1.105 0.895-2 2-2v0h24zM38 22h-8v-12h8z"></path>
</svg>
