<!-- Generated by IcoMoon.io -->
<svg version="1.1" xmlns="http://www.w3.org/2000/svg" width="31" height="32" viewBox="0 0 31 32">
<title>usd-circle-solid</title>
<path d="M15.5 0.5c-8.563 0-15.5 6.938-15.5 15.5s6.938 15.5 15.5 15.5 15.5-6.938 15.5-15.5-6.938-15.5-15.5-15.5zM17 24v1c0 0.55-0.45 1-1 1h-1c-0.55 0-1-0.45-1-1v-1.012c-1.031-0.038-2.037-0.363-2.9-0.944-0.544-0.369-0.625-1.131-0.144-1.575l0.75-0.706c0.338-0.319 0.831-0.337 1.231-0.1 0.381 0.225 0.806 0.337 1.244 0.337h2.813c0.706 0 1.281-0.656 1.281-1.462 0-0.663-0.394-1.244-0.95-1.419l-4.512-1.369c-1.813-0.55-3.075-2.313-3.075-4.287 0-2.456 1.912-4.456 4.262-4.463v-1c0-0.55 0.45-1 1-1h1c0.55 0 1 0.45 1 1v1.012c1.031 0.037 2.038 0.363 2.9 0.944 0.544 0.369 0.625 1.131 0.144 1.575l-0.75 0.706c-0.337 0.319-0.831 0.338-1.231 0.1-0.381-0.225-0.806-0.338-1.244-0.338h-2.813c-0.706 0-1.281 0.656-1.281 1.463 0 0.662 0.394 1.244 0.95 1.419l4.5 1.369c1.813 0.55 3.075 2.313 3.075 4.287 0.012 2.456-1.9 4.45-4.25 4.463z"></path>
</svg>
