<!-- Generated by IcoMoon.io -->
<svg version="1.1" xmlns="http://www.w3.org/2000/svg" width="28" height="32" viewBox="0 0 28 32">
<title>usd-square</title>
<path d="M16.519 15.669l-4.5-1.262c-0.756-0.213-1.287-0.9-1.287-1.669 0-0.956 0.8-1.738 1.781-1.738h2.813c0.7 0 1.369 0.225 1.912 0.631 0.2 0.15 0.475 0.125 0.65-0.050l0.706-0.719c0.212-0.213 0.188-0.563-0.050-0.75-0.913-0.725-2.038-1.119-3.225-1.119h-0.319v-2.5c0-0.275-0.225-0.5-0.5-0.5h-1c-0.275 0-0.5 0.225-0.5 0.5v2.5h-0.488c-2.081 0-3.781 1.675-3.781 3.738 0 1.662 1.131 3.137 2.744 3.594l4.5 1.262c0.756 0.212 1.287 0.9 1.287 1.669 0 0.956-0.8 1.738-1.781 1.738h-2.813c-0.7 0-1.369-0.225-1.912-0.631-0.2-0.15-0.475-0.125-0.65 0.050l-0.706 0.719c-0.213 0.212-0.188 0.563 0.050 0.75 0.912 0.725 2.037 1.119 3.225 1.119h0.325v2.5c0 0.275 0.225 0.5 0.5 0.5h1c0.275 0 0.5-0.225 0.5-0.5v-2.5h0.488c2.081 0 3.781-1.675 3.781-3.738-0.006-1.663-1.131-3.137-2.75-3.594zM25 2h-22c-1.656 0-3 1.344-3 3v22c0 1.656 1.344 3 3 3h22c1.656 0 3-1.344 3-3v-22c0-1.656-1.344-3-3-3zM26 27c0 0.55-0.45 1-1 1h-22c-0.55 0-1-0.45-1-1v-22c0-0.55 0.45-1 1-1h22c0.55 0 1 0.45 1 1v22z"></path>
</svg>
