<!-- Generated by IcoMoon.io -->
<svg version="1.1" xmlns="http://www.w3.org/2000/svg" width="40" height="32" viewBox="0 0 40 32">
<title>user-music</title>
<path d="M37.375 6.103l-6.035 1.993c-0.795 0.263-1.34 1.030-1.34 1.905v13.508c-1.271-0.928-3.039-1.508-5-1.508-3.866 0-7 2.239-7 5s3.134 5 7 5 7-2.239 7-5v-9l6.633-2.211c0.801-0.273 1.367-1.019 1.367-1.897 0-0 0-0 0-0v0-5.892c-0.001-1.104-0.896-1.998-2-1.998-0.224 0-0.438 0.037-0.639 0.104l0.014-0.004zM25 30c-2.946 0-5-1.581-5-3s2.054-3 5-3 5 1.581 5 3-2.054 3-5 3zM38 13.893l-6 2v-5.893h-0.035v-0.008l6.035-1.992zM16.869 30h-13.869c-0.552 0-1-0.448-1-1v0-2.599c0.003-3.534 2.867-6.398 6.4-6.401h0c1.224 0 2.443 1 5.599 1s4.375-1 5.599-1c0.825 0.005 1.612 0.166 2.333 0.456l-0.043-0.015c0.926-0.273 1.99-0.432 3.090-0.438h0.003c-1.461-1.231-3.323-2-5.383-2-1.793 0-2.656 1-5.599 1s-3.801-1-5.599-1c-4.638 0.001-8.398 3.759-8.401 8.397v2.6c0 1.657 1.343 3 3 3v0h15.651c-0.713-0.55-1.307-1.213-1.764-1.968l-0.018-0.032zM14 16c4.418 0 8-3.582 8-8s-3.582-8-8-8c-4.418 0-8 3.582-8 8v0c0 4.418 3.582 8 8 8v0zM14 2c3.314 0 6 2.686 6 6s-2.686 6-6 6c-3.314 0-6-2.686-6-6v0c0.005-3.312 2.688-5.995 6-6h0z"></path>
</svg>
