<!-- Generated by IcoMoon.io -->
<svg version="1.1" xmlns="http://www.w3.org/2000/svg" width="28" height="32" viewBox="0 0 28 32">
<title>user-nurse</title>
<path d="M19.963 19.875l-5.963 5.962-5.963-5.962c-4.469 0.193-8.037 3.849-8.037 8.363 0.001 2.009 1.629 3.636 3.637 3.637h20.725c2.009-0.001 3.636-1.629 3.637-3.637v-0c0-4.513-3.568-8.169-8.037-8.363zM13 29.875h-9.363c-0.903-0.003-1.635-0.734-1.637-1.637v-0c0-2.966 2.375-5.777 5.296-6.276l5.704 5.704zM24.363 29.875h-9.363v-2.21l5.703-5.703c2.922 0.498 5.297 3.309 5.297 6.276-0.003 0.903-0.734 1.635-1.637 1.637h-0zM14 18.875c4.418 0 8-3.582 8-8v0-6.886c0-0.001 0-0.002 0-0.002 0-0.852-0.533-1.58-1.284-1.868l-0.014-0.005-5.298-1.984c-0.417-0.161-0.9-0.254-1.404-0.254s-0.987 0.093-1.432 0.264l0.027-0.009-5.298 1.987c-0.764 0.293-1.297 1.020-1.298 1.873v0 6.886c0 4.418 3.582 8 8 8v0zM8 3.989l5.298-1.989c0.209-0.081 0.45-0.127 0.702-0.127s0.494 0.047 0.716 0.132l-0.014-0.005 5.297 1.989v4.886h-12zM20 10.875c0 3.314-2.686 6-6 6s-6-2.686-6-6v0zM16.188 4.542h-1.354v-1.354c0-0.173-0.14-0.313-0.313-0.313v0h-1.041c-0.173 0-0.313 0.14-0.313 0.313v0 1.354h-1.354c-0.173 0-0.313 0.14-0.313 0.313v0 1.041c0 0.173 0.14 0.313 0.313 0.313v0h1.354v1.354c0 0.173 0.14 0.313 0.313 0.313v0h1.041c0.173 0 0.313-0.14 0.313-0.313v0-1.354h1.354c0.173 0 0.313-0.14 0.313-0.313v0-1.041c0-0.173-0.14-0.313-0.313-0.313v0z"></path>
</svg>
