<!-- Generated by IcoMoon.io -->
<svg version="1.1" xmlns="http://www.w3.org/2000/svg" width="40" height="32" viewBox="0 0 40 32">
<title>user-edit</title>
<path d="M14 16c4.419 0 8-3.581 8-8s-3.581-8-8-8-8 3.581-8 8 3.581 8 8 8zM14 2c3.306 0 6 2.694 6 6s-2.694 6-6 6-6-2.694-6-6 2.694-6 6-6zM39.413 14.756l-2.169-2.169c-0.394-0.394-0.906-0.588-1.425-0.588-0.513 0-1.031 0.194-1.425 0.588l-13.906 13.913-0.475 4.262c-0.075 0.669 0.45 1.238 1.106 1.238 0.044 0 0.081 0 0.125-0.006l4.262-0.475 13.906-13.906c0.781-0.794 0.781-2.069 0-2.856zM24.581 29.606l-2.462 0.281 0.275-2.469 9.806-9.806 2.188 2.188-9.806 9.806zM35.8 18.387l-2.188-2.188 2.2-2.2h0.006l0.013 0.006 2.169 2.188-2.2 2.194zM8.4 20c1.225 0 2.444 1 5.6 1 3.15 0 4.375-1 5.6-1 1.294 0 2.494 0.394 3.5 1.056l1.425-1.425c-1.387-1.012-3.081-1.625-4.925-1.625-1.794 0-2.656 1-5.6 1s-3.8-1-5.6-1c-4.638-0.006-8.4 3.756-8.4 8.394v2.6c0 1.656 1.344 3 3 3h15.219c-0.175-0.462-0.256-0.962-0.2-1.462l0.063-0.538h-15.081c-0.55 0-1-0.45-1-1v-2.6c0-3.531 2.869-6.4 6.4-6.4z"></path>
</svg>
