<!-- Generated by IcoMoon.io -->
<svg version="1.1" xmlns="http://www.w3.org/2000/svg" width="40" height="32" viewBox="0 0 40 32">
<title>user-friends-solid</title>
<path d="M12 16c3.869 0 7-3.131 7-7s-3.131-7-7-7-7 3.131-7 7 3.131 7 7 7zM16.8 18h-0.519c-1.3 0.625-2.744 1-4.281 1s-2.975-0.375-4.281-1h-0.519c-3.975 0-7.2 3.225-7.2 7.2v1.8c0 1.656 1.344 3 3 3h18c1.656 0 3-1.344 3-3v-1.8c0-3.975-3.225-7.2-7.2-7.2zM30 16c3.313 0 6-2.688 6-6s-2.688-6-6-6-6 2.688-6 6 2.688 6 6 6zM33 18h-0.237c-0.869 0.3-1.788 0.5-2.762 0.5s-1.894-0.2-2.762-0.5h-0.238c-1.275 0-2.45 0.369-3.481 0.962 1.525 1.644 2.481 3.825 2.481 6.238v2.4c0 0.137-0.031 0.269-0.038 0.4h11.037c1.656 0 3-1.344 3-3 0-3.869-3.131-7-7-7z"></path>
</svg>
