<!-- Generated by IcoMoon.io -->
<svg version="1.1" xmlns="http://www.w3.org/2000/svg" width="28" height="32" viewBox="0 0 28 32">
<title>user-alien-solid</title>
<path d="M22 24h-2.149c-1.228 1.124-2.439 2.096-3.468 2.865-0.656 0.495-1.485 0.792-2.383 0.792s-1.727-0.298-2.393-0.8l0.010 0.007c-1.029-0.769-2.24-1.741-3.468-2.866h-2.149c0 0 0 0-0 0-3.314 0-6 2.686-6 6 0 0 0 0 0 0v0c0 1.105 0.895 2 2 2h24c1.105 0 2-0.895 2-2v0c0 0 0 0 0-0 0-3.314-2.686-6-6-6 0 0 0 0-0 0v0zM12.814 25.263c0.326 0.246 0.739 0.395 1.186 0.395s0.859-0.148 1.191-0.398l-0.005 0.004c2.843-2.125 9.814-7.919 9.814-13.658 0-7.21-4.926-11.605-11-11.605-6.076 0-11 4.395-11 11.605 0 5.739 6.971 11.534 9.814 13.658zM15 15.75c0-2.071 1.679-3.75 3.75-3.75h1.5c0.414 0 0.75 0.336 0.75 0.75v0 0.5c0 2.071-1.679 3.75-3.75 3.75h-1.5c-0.414-0-0.75-0.336-0.75-0.75v0zM7 13.25v-0.5c0-0.414 0.336-0.75 0.75-0.75h1.5c2.071 0 3.75 1.679 3.75 3.75v0 0.5c-0 0.414-0.336 0.75-0.75 0.75h-1.5c-2.071 0-3.75-1.679-3.75-3.75v0z"></path>
</svg>
