<!-- Generated by IcoMoon.io -->
<svg version="1.1" xmlns="http://www.w3.org/2000/svg" width="40" height="32" viewBox="0 0 40 32">
<title>users-class</title>
<path d="M34 14c-2.762 0-5 2.238-5 5s2.238 5 5 5 5-2.238 5-5-2.237-5-5-5zM34 22c-1.656 0-3-1.344-3-3s1.344-3 3-3 3 1.344 3 3-1.344 3-3 3zM15 19c0 2.762 2.238 5 5 5s5-2.238 5-5-2.238-5-5-5-5 2.238-5 5zM23 19c0 1.656-1.344 3-3 3s-3-1.344-3-3 1.344-3 3-3 3 1.344 3 3zM6 24c2.762 0 5-2.238 5-5s-2.238-5-5-5-5 2.238-5 5 2.237 5 5 5zM6 16c1.656 0 3 1.344 3 3s-1.344 3-3 3-3-1.344-3-3 1.344-3 3-3zM35.25 26h-2.5c-2.619 0-4.75 2.244-4.75 5 0 0.55 0.45 1 1 1s1-0.45 1-1c0-1.656 1.238-3 2.75-3h2.5c1.513 0 2.75 1.344 2.75 3 0 0.55 0.45 1 1 1s1-0.45 1-1c0-2.756-2.131-5-4.75-5zM7.25 26h-2.5c-2.619 0-4.75 2.244-4.75 5 0 0.55 0.45 1 1 1s1-0.45 1-1c0-1.656 1.237-3 2.75-3h2.5c1.512 0 2.75 1.344 2.75 3 0 0.55 0.45 1 1 1s1-0.45 1-1c0-2.756-2.131-5-4.75-5zM21.25 26h-2.5c-2.619 0-4.75 2.244-4.75 5 0 0.55 0.45 1 1 1s1-0.45 1-1c0-1.656 1.238-3 2.75-3h2.5c1.512 0 2.75 1.344 2.75 3 0 0.55 0.45 1 1 1s1-0.45 1-1c0-2.756-2.131-5-4.75-5zM4 3c0-0.552 0.449-1 1-1h30c0.551 0 1 0.448 1 1v9.326c0.719 0.216 1.398 0.522 2 0.944v-10.271c0-1.654-1.346-3-3-3h-30c-1.654 0-3 1.346-3 3v10.271c0.602-0.422 1.281-0.727 2-0.944v-9.326z"></path>
</svg>
