<!-- Generated by IcoMoon.io -->
<svg version="1.1" xmlns="http://www.w3.org/2000/svg" width="40" height="32" viewBox="0 0 40 32">
<title>users-cog-solid</title>
<path d="M38.156 21.331c0.163-0.881 0.163-1.781 0-2.663l1.612-0.931c0.188-0.106 0.269-0.325 0.206-0.531-0.419-1.35-1.138-2.575-2.075-3.588-0.144-0.156-0.375-0.194-0.563-0.088l-1.612 0.931c-0.681-0.581-1.462-1.031-2.306-1.331v-1.863c0-0.213-0.15-0.4-0.356-0.444-1.394-0.313-2.813-0.3-4.137 0-0.206 0.044-0.356 0.231-0.356 0.444v1.863c-0.844 0.3-1.625 0.75-2.306 1.331l-1.613-0.931c-0.181-0.106-0.419-0.069-0.563 0.088-0.938 1.012-1.656 2.237-2.075 3.588-0.063 0.206 0.025 0.425 0.206 0.531l1.613 0.931c-0.163 0.881-0.163 1.781 0 2.663l-1.613 0.931c-0.188 0.106-0.269 0.325-0.206 0.531 0.419 1.35 1.137 2.569 2.075 3.587 0.144 0.156 0.375 0.194 0.563 0.087l1.613-0.931c0.681 0.581 1.462 1.031 2.306 1.331v1.863c0 0.212 0.15 0.4 0.356 0.444 1.394 0.313 2.813 0.3 4.137 0 0.206-0.044 0.356-0.231 0.356-0.444v-1.863c0.844-0.3 1.625-0.75 2.306-1.331l1.612 0.931c0.181 0.106 0.419 0.069 0.563-0.087 0.938-1.012 1.656-2.238 2.075-3.587 0.063-0.206-0.025-0.425-0.206-0.531l-1.612-0.931zM31 23.031c-1.675 0-3.031-1.363-3.031-3.031s1.363-3.031 3.031-3.031 3.031 1.363 3.031 3.031-1.356 3.031-3.031 3.031zM6 14c2.206 0 4-1.794 4-4s-1.794-4-4-4-4 1.794-4 4 1.794 4 4 4zM20 16c0.119 0 0.231-0.031 0.35-0.037 0.519-1.356 1.281-2.631 2.269-3.7 0.462-0.5 1.119-0.787 1.806-0.787 0.431 0 0.856 0.113 1.225 0.331l0.494 0.287c0.050-0.031 0.1-0.056 0.15-0.088 0.438-0.912 0.7-1.925 0.7-3 0-3.869-3.131-7-7-7s-6.994 3.125-6.994 6.994c0 3.869 3.131 7 7 7zM26.575 28.156c-0.144-0.075-0.288-0.163-0.425-0.244-0.512 0.3-0.956 0.613-1.719 0.613-0.681 0-1.337-0.288-1.806-0.788-1.144-1.238-2.019-2.744-2.512-4.35-0.669-2.156 1.556-3.106 1.613-3.144-0.006-0.163-0.006-0.325 0-0.488l-0.494-0.288c-0.238-0.137-0.438-0.313-0.613-0.506-0.206 0.012-0.406 0.038-0.613 0.038-1.538 0-2.975-0.375-4.281-1h-0.519c-3.981 0-7.206 3.225-7.206 7.2v1.8c0 1.656 1.344 3 3 3h15.962c-0.231-0.375-0.387-0.8-0.387-1.269v-0.575zM10.819 17.163c-0.725-0.719-1.719-1.163-2.819-1.163h-4c-2.206 0-4 1.794-4 4v2c0 1.106 0.894 2 2 2h4.119c0.394-2.962 2.181-5.456 4.7-6.837z"></path>
</svg>
