<!-- Generated by IcoMoon.io -->
<svg version="1.1" xmlns="http://www.w3.org/2000/svg" width="28" height="32" viewBox="0 0 28 32">
<title>user-secret</title>
<path d="M23.994 19.269l1.494-3.912c0.25-0.656-0.231-1.356-0.938-1.356h-2.7c0.094-0.488 0.15-0.988 0.15-1.5 0-0.45-0.056-0.887-0.137-1.319 2.531-0.613 4.137-1.512 4.137-2.512 0-1.031-1.688-1.95-4.331-2.563-0.556-2.1-1.712-4.244-2.581-5.338-0.394-0.5-0.981-0.769-1.581-0.769-0.594 0-0.769 0.15-2.613 1.075-0.8 0.4-1.519 0.131-1.787 0-1.863-0.931-2.025-1.075-2.612-1.075-0.6 0-1.181 0.269-1.575 0.762-0.869 1.094-2.025 3.237-2.581 5.338-2.65 0.612-4.338 1.537-4.338 2.569 0 1.006 1.606 1.906 4.138 2.512-0.081 0.431-0.138 0.869-0.138 1.319 0 0.512 0.056 1.012 0.15 1.5h-2.631c-0.719 0-1.2 0.731-0.919 1.394l1.612 3.763c-2.506 1.456-4.213 4.137-4.213 7.244v2.8c0 1.544 1.256 2.8 2.8 2.8h22.4c1.544 0 2.8-1.256 2.8-2.8v-2.8c0-3.025-1.613-5.65-4.006-7.131zM8 12.5c0-0.169 0.019-0.331 0.037-0.494 0.081 0.050 0.319 0.206 0.363 0.338 0.244 0.744 0.438 1.537 1.031 2.088 0.5 0.463 2.938 1.569 4-1.563 0.175-0.525 0.963-0.525 1.144 0 1 2.963 3.369 2.15 4 1.563 0.594-0.55 0.794-1.344 1.031-2.088 0.044-0.131 0.275-0.287 0.363-0.338 0.019 0.162 0.038 0.325 0.038 0.494 0 3.306-2.694 6-6 6s-6.006-2.694-6.006-6zM7.956 7.781c0.044-0.169 0.769-3.563 2.531-5.781 1.794 0.9 2.356 1.281 3.512 1.281 1.162 0 1.731-0.394 3.512-1.281l0.006 0.006c1.756 2.212 2.481 5.6 2.525 5.775 1.337 0.306 2.238 0.494 3.188 0.887-1.519 0.619-4.713 1.331-9.231 1.331s-7.713-0.713-9.231-1.331c0.95-0.394 1.869-0.581 3.188-0.888zM2.8 30c-0.444 0-0.8-0.356-0.8-0.8v-2.8c0-2.281 1.2-4.344 3.212-5.512l1.538-0.887-1.713-4h1.806c0.294 0.6 4.019 6.781 4.019 6.781l-1.931 7.219h-6.131zM11 30l2-7.5-1.369-2.4c0.756 0.238 1.537 0.4 2.369 0.4s1.619-0.163 2.369-0.4l-1.369 2.4 2 7.5h-6zM26 29.2c0 0.444-0.356 0.8-0.8 0.8h-6.131l-1.925-7.219s3.725-6.181 4.019-6.781h1.938l-1.563 4.1 1.406 0.869c1.913 1.181 3.056 3.212 3.056 5.431v2.8z"></path>
</svg>
