<!-- Generated by IcoMoon.io -->
<svg version="1.1" xmlns="http://www.w3.org/2000/svg" width="40" height="32" viewBox="0 0 40 32">
<title>user-slash-solid</title>
<path d="M39.612 28.631l-16.969-13.113c3.113-1.1 5.356-4.031 5.356-7.519 0-4.419-3.581-8-8-8-4.194 0-7.594 3.237-7.931 7.338l-9.225-7.125c-0.438-0.338-1.063-0.263-1.406 0.175l-1.225 1.575c-0.338 0.438-0.263 1.063 0.175 1.4l36.775 28.419c0.438 0.337 1.063 0.263 1.406-0.175l1.225-1.581c0.337-0.425 0.256-1.056-0.181-1.394zM6 26.4v2.6c0 1.656 1.344 3 3 3h21.887l-17.925-13.856c-3.95 0.688-6.963 4.106-6.963 8.256z"></path>
</svg>
