<!-- Generated by IcoMoon.io -->
<svg version="1.1" xmlns="http://www.w3.org/2000/svg" width="40" height="32" viewBox="0 0 40 32">
<title>users-medical-solid</title>
<path d="M6 14c2.209 0 4-1.791 4-4s-1.791-4-4-4c-2.209 0-4 1.791-4 4v0c0.002 2.208 1.792 3.998 4 4h0zM20 16c3.866 0 7-3.134 7-7s-3.134-7-7-7c-3.866 0-7 3.134-7 7v0c0 0.001 0 0.002 0 0.004 0 3.864 3.132 6.996 6.996 6.996 0.001 0 0.003 0 0.004 0h-0zM22 22c0-1.194 0.245-2.323 0.631-3.386-0.787 0.239-1.691 0.38-2.628 0.386h-0.003c-1.538 0-2.975-0.375-4.281-1h-0.519c-3.976 0.001-7.199 3.224-7.2 7.2v1.8c0 1.657 1.343 3 3 3v0h15.063c-2.451-1.824-4.063-4.717-4.063-8zM10.819 17.163c-0.721-0.718-1.716-1.163-2.814-1.163-0.002 0-0.003 0-0.005 0h-4c-2.208 0.002-3.998 1.792-4 4v2c0 1.105 0.895 2 2 2v0h4.119c0.406-2.965 2.179-5.445 4.653-6.814l0.047-0.024zM32 14c-4.418 0-8 3.582-8 8s3.582 8 8 8c4.418 0 8-3.582 8-8v0c0-4.418-3.582-8-8-8v0zM36 23c0 0.184-0.149 0.333-0.333 0.333v0h-2.334v2.334c0 0.184-0.149 0.333-0.333 0.333h-2c-0.184 0-0.333-0.149-0.333-0.333v0-2.334h-2.334c-0.184 0-0.333-0.149-0.333-0.333v-2c0-0.184 0.149-0.333 0.333-0.333v0h2.334v-2.334c0-0.184 0.149-0.333 0.333-0.333h2c0.184 0 0.333 0.149 0.333 0.333v0 2.334h2.334c0.184 0 0.333 0.149 0.333 0.333v0z"></path>
</svg>
