<!-- Generated by IcoMoon.io -->
<svg version="1.1" xmlns="http://www.w3.org/2000/svg" width="28" height="32" viewBox="0 0 28 32">
<title>user-crown</title>
<path d="M19.6 20c-1.794 0-2.663 1-5.6 1-2.943 0-3.801-1-5.6-1-4.639 0-8.4 3.761-8.4 8.4v0.6c0 1.657 1.343 3 3 3h22c1.657 0 3-1.343 3-3v-0.6c0-4.639-3.761-8.4-8.4-8.4zM26 29c0 0.551-0.449 1-1 1h-22c-0.551 0-1-0.449-1-1v-0.6c0-3.529 2.871-6.4 6.4-6.4 1.211 0 2.458 1 5.6 1 3.087 0 4.416-1 5.6-1 3.529 0 6.4 2.871 6.4 6.4v0.6zM14 18c4.419 0 8-3.582 8-8v-10l-4 2-4-2-4 2-4-2v10c0 4.418 3.582 8 8 8zM8 3.236l2 1 4-2 4 2 2-1v3.764h-12v-3.764zM8 9h12v1c0 3.308-2.691 6-6 6s-6-2.692-6-6v-1z"></path>
</svg>
