<!-- Generated by IcoMoon.io -->
<svg version="1.1" xmlns="http://www.w3.org/2000/svg" width="28" height="32" viewBox="0 0 28 32">
<title>user-ninja-solid</title>
<path d="M20.337 18.075l-6.338 6.338-6.338-6.337c-4.287 0.381-7.662 3.938-7.662 8.325v2.6c0 1.656 1.344 3 3 3h22c1.656 0 3-1.344 3-3v-2.6c0-4.387-3.375-7.944-7.663-8.325zM2 12c1.706 0 3.237-0.719 4.325-1.856 0.944 3.369 4 5.856 7.675 5.856 4.419 0 8-3.581 8-8s-3.581-8-8-8c-3.15 0-5.85 1.837-7.156 4.487-1.088-1.5-2.844-2.487-4.844-2.487 0 2.088 1.069 3.925 2.694 5-1.625 1.075-2.694 2.912-2.694 5zM11 6h6c1.106 0 2 0.894 2 2h-10c0-1.106 0.894-2 2-2z"></path>
</svg>
