<!-- Generated by IcoMoon.io -->
<svg version="1.1" xmlns="http://www.w3.org/2000/svg" width="28" height="32" viewBox="0 0 28 32">
<title>user-hard-hat-solid</title>
<path d="M5.5 11h17c0.276 0 0.5-0.224 0.5-0.5v0-2c0-0.276-0.224-0.5-0.5-0.5v0h-0.5c0-0.001 0-0.001 0-0.002 0-2.882-1.742-5.357-4.23-6.43l-0.045-0.017-1.725 3.45v-4c0-0.552-0.448-1-1-1v0h-2c-0.552 0-1 0.448-1 1v0 4l-1.725-3.45c-2.533 1.091-4.275 3.566-4.275 6.448 0 0.001 0 0.002 0 0.002v-0h-0.5c-0.276 0-0.5 0.224-0.5 0.5v0 2c0 0.276 0.224 0.5 0.5 0.5v0zM19.6 22h-1.044c-1.337 0.631-2.903 1-4.556 1s-3.22-0.369-4.623-1.028l0.067 0.028h-1.044c-4.639 0-8.4 3.761-8.4 8.4v0c0 0.884 0.716 1.6 1.6 1.6v0h24.8c0.884 0 1.6-0.716 1.6-1.6v0c0-4.639-3.761-8.4-8.4-8.4v0zM14 20c4.076 0 7.402-3.059 7.899-7h-15.799c0.497 3.941 3.823 7 7.899 7z"></path>
</svg>
