<!-- Generated by IcoMoon.io -->
<svg version="1.1" xmlns="http://www.w3.org/2000/svg" width="28" height="32" viewBox="0 0 28 32">
<title>user-astronaut</title>
<path d="M18 8h-8c-2.206 0-4 1.794-4 4v1c0 3.863 3.137 7 7 7h2c3.863 0 7-3.137 7-7v-1c0-2.206-1.794-4-4-4zM20 13c0 2.756-2.244 5-5 5h-2c-2.756 0-5-2.244-5-5v-1c0-1.1 0.894-2 2-2h8c1.106 0 2 0.9 2 2v1zM12 11l-0.75 2.25-2.25 0.75 2.25 0.75 0.75 2.25 0.75-2.25 2.25-0.75-2.25-0.75-0.75-2.25zM19 25h-10c-1.656 0-3 1.344-3 3v3.5c0 0.275 0.225 0.5 0.5 0.5h1c0.275 0 0.5-0.225 0.5-0.5v-3.5c0-0.55 0.45-1 1-1h10c0.55 0 1 0.45 1 1v3.5c0 0.275 0.225 0.5 0.5 0.5h1c0.275 0 0.5-0.225 0.5-0.5v-3.5c0-1.656-1.344-3-3-3zM17 28c-0.55 0-1 0.45-1 1s0.45 1 1 1 1-0.45 1-1-0.45-1-1-1zM11 28c-0.55 0-1 0.45-1 1v2.5c0 0.275 0.225 0.5 0.5 0.5h1c0.275 0 0.5-0.225 0.5-0.5v-2.5c0-0.55-0.45-1-1-1zM22.45 20.519c1.269-1.256 2.244-2.8 2.856-4.519h0.694c0.55 0 1-0.45 1-1v-6c0-0.55-0.45-1-1-1h-0.7c-1.644-4.656-6.075-8-11.3-8s-9.656 3.344-11.3 8h-0.7c-0.55 0-1 0.45-1 1v6c0 0.55 0.45 1 1 1h0.7c0.606 1.719 1.588 3.262 2.856 4.519-3.237 1.169-5.556 4.244-5.556 7.881v3.1c0 0.275 0.225 0.5 0.5 0.5h1c0.275 0 0.5-0.225 0.5-0.5v-3.1c0-3.225 2.406-5.875 5.519-6.313 1.869 1.206 4.094 1.913 6.481 1.913s4.613-0.706 6.481-1.913c3.113 0.431 5.519 3.081 5.519 6.313v3.1c0 0.275 0.225 0.5 0.5 0.5h1c0.275 0 0.5-0.225 0.5-0.5v-3.1c0-3.637-2.319-6.712-5.55-7.881zM14 22c-5.512 0-10-4.488-10-10s4.488-10 10-10 10 4.487 10 10-4.488 10-10 10z"></path>
</svg>
