<!-- Generated by IcoMoon.io -->
<svg version="1.1" xmlns="http://www.w3.org/2000/svg" width="40" height="32" viewBox="0 0 40 32">
<title>user-chart-solid</title>
<path d="M13 22h-0.238c-0.871 0.302-1.79 0.5-2.762 0.5s-1.891-0.198-2.762-0.5h-0.238c-3.866 0-7 3.134-7 7 0 1.657 1.343 3 3 3h14c1.657 0 3-1.343 3-3 0-3.866-3.134-7-7-7zM37 0h-24c-1.654 0-3 1.391-3 3.099v2.901c1.464 0 2.819 0.424 4 1.112v-3.112h22v18h-16.765c1.194 1.043 2.070 2.421 2.481 4h15.284c1.654 0 3-1.391 3-3.099v-19.801c0-1.709-1.346-3.099-3-3.099zM10 20c3.314 0 6-2.686 6-6s-2.686-6-6-6-6 2.686-6 6 2.686 6 6 6zM20.561 10.439c-0.586-0.586-1.536-0.586-2.121 0l-0.922 0.922c0.293 0.831 0.483 1.709 0.483 2.638 0 0.427-0.061 0.838-0.126 1.247l1.626-1.625 3.439 3.439c0.586 0.586 1.536 0.586 2.121 0l4.5-4.5 1.519 1.519c0.709 0.709 1.921 0.207 1.921-0.796v-5.534c0-0.414-0.336-0.75-0.75-0.75h-5.534c-1.003 0-1.504 1.212-0.796 1.921l1.519 1.519-3.439 3.439-3.439-3.439z"></path>
</svg>
