<!-- Generated by IcoMoon.io -->
<svg version="1.1" xmlns="http://www.w3.org/2000/svg" width="40" height="32" viewBox="0 0 40 32">
<title>users-class-solid</title>
<path d="M16 18c0 2.209 1.791 4 4 4s4-1.791 4-4-1.791-4-4-4c-2.209 0-4 1.791-4 4zM30 18c0 2.209 1.791 4 4 4s4-1.791 4-4-1.791-4-4-4c-2.209 0-4 1.791-4 4zM6 22c2.209 0 4-1.791 4-4s-1.791-4-4-4c-2.209 0-4 1.791-4 4s1.791 4 4 4zM36 24h-4c-2.209 0-4 1.791-4 4v2c0 1.104 0.896 2 2 2h8c1.104 0 2-0.896 2-2v-2c0-2.209-1.791-4-4-4zM22 24h-4c-2.209 0-4 1.791-4 4v2c0 1.104 0.896 2 2 2h8c1.104 0 2-0.896 2-2v-2c0-2.209-1.791-4-4-4zM8 24h-4c-2.209 0-4 1.791-4 4v2c0 1.104 0.896 2 2 2h8c1.104 0 2-0.896 2-2v-2c0-2.209-1.791-4-4-4zM6 4h28v8c1.542 0 2.936 0.601 4 1.561v-10.461c0-1.709-1.346-3.099-3-3.099h-30c-1.654 0-3 1.391-3 3.099v10.461c1.064-0.959 2.458-1.561 4-1.561v-8z"></path>
</svg>
