<!-- Generated by IcoMoon.io -->
<svg version="1.1" xmlns="http://www.w3.org/2000/svg" width="40" height="32" viewBox="0 0 40 32">
<title>user-tag-solid</title>
<path d="M39.413 22.806l-5.644-5.637c-0.75-0.75-1.769-1.169-2.831-1.169h-4.956c-1.106 0-2 0.894-2 2v4.95c0 1.063 0.419 2.075 1.169 2.825l5.644 5.637c0.781 0.781 2.050 0.781 2.831 0l5.781-5.781c0.788-0.781 0.788-2.044 0.006-2.825zM27.988 21.494c-0.831 0-1.5-0.669-1.5-1.5s0.669-1.5 1.5-1.5 1.5 0.669 1.5 1.5c0 0.825-0.669 1.5-1.5 1.5zM14 15.994c4.419 0 8-3.581 8-8 0-4.412-3.581-7.994-8-7.994s-8 3.581-8 8c0 4.412 3.581 7.994 8 7.994zM21.988 22.944v-4.569c-0.762-0.225-1.556-0.387-2.387-0.387h-1.044c-1.387 0.637-2.931 1-4.556 1s-3.162-0.363-4.556-1h-1.044c-4.638 0.006-8.4 3.769-8.4 8.406v2.6c0 1.656 1.344 3 3 3h22c0.969 0 1.819-0.469 2.369-1.181l-3.625-3.625c-1.131-1.131-1.756-2.637-1.756-4.244z"></path>
</svg>
