<!-- Generated by IcoMoon.io -->
<svg version="1.1" xmlns="http://www.w3.org/2000/svg" width="40" height="32" viewBox="0 0 40 32">
<title>users-cog</title>
<path d="M17.962 15.662c0.181-0.65 0.406-1.275 0.681-1.875-2.1-0.594-3.65-2.506-3.65-4.794 0-2.756 2.244-5 5-5 2.288 0 4.194 1.55 4.794 3.65 0.6-0.275 1.225-0.506 1.875-0.681-0.875-2.862-3.512-4.963-6.662-4.963-3.869 0-7 3.131-7 7 0 3.15 2.1 5.787 4.962 6.662zM6 14c2.762 0 5-2.238 5-5s-2.238-5-5-5-5 2.237-5 5 2.237 5 5 5zM6 6c1.656 0 3 1.344 3 3s-1.344 3-3 3-3-1.344-3-3 1.344-3 3-3zM9.819 16.806c-0.744-0.506-1.625-0.806-2.569-0.806h-2.5c-2.619 0-4.75 2.244-4.75 5 0 0.55 0.45 1 1 1s1-0.45 1-1c0-1.656 1.237-3 2.75-3h2.5c0.344 0 0.675 0.075 0.981 0.206 0.469-0.531 1.006-1 1.588-1.4zM11 28c-0.55 0-1-0.45-1-1v-2.8c0-1.038 0.306-2.044 0.881-2.9 0.863-1.281 2.4-2.050 4.106-2.050 0.894 0 1.175 0.15 2.544 0.45-0.012-0.238-0.087-0.837 0.038-2.038-1.019-0.269-1.65-0.413-2.581-0.413-2.269 0-4.475 1.012-5.769 2.931-0.775 1.15-1.225 2.531-1.225 4.019v2.8c0 1.656 1.344 3 3 3h13.062c-1-0.538-1.913-1.219-2.719-2h-10.338zM30 14.969c-2.225 0-4.031 1.813-4.031 4.031s1.806 4.031 4.031 4.031 4.031-1.813 4.031-4.031-1.806-4.031-4.031-4.031zM30 21.031c-1.119 0-2.031-0.913-2.031-2.031s0.913-2.031 2.031-2.031 2.031 0.913 2.031 2.031-0.913 2.031-2.031 2.031zM39.269 20.394l-1.031-0.594c0.050-0.531 0.050-1.069 0-1.6l1.038-0.594c0.594-0.344 0.862-1.044 0.656-1.688-0.45-1.463-1.244-2.838-2.294-3.969-0.462-0.506-1.206-0.619-1.8-0.275l-1.031 0.594c-0.438-0.313-0.9-0.581-1.388-0.8v-1.188c0-0.688-0.469-1.269-1.138-1.419-1.494-0.338-3.081-0.338-4.581 0-0.669 0.15-1.137 0.738-1.137 1.419v1.188c-0.488 0.219-0.956 0.488-1.387 0.8l-1.031-0.594c-0.594-0.344-1.331-0.231-1.794 0.275-1.050 1.131-1.837 2.506-2.294 3.963-0.206 0.65 0.075 1.362 0.663 1.7l1.031 0.594c-0.050 0.531-0.050 1.069 0 1.6l-1.038 0.594c-0.581 0.337-0.863 1.056-0.656 1.694 0.456 1.462 1.244 2.837 2.294 3.969 0.462 0.5 1.2 0.613 1.8 0.275l1.031-0.594c0.438 0.313 0.9 0.581 1.387 0.8v1.188c0 0.688 0.469 1.269 1.137 1.419 0.75 0.169 1.519 0.25 2.288 0.25s1.544-0.081 2.287-0.25c0.669-0.15 1.138-0.738 1.138-1.419v-1.188c0.487-0.219 0.95-0.488 1.388-0.8l1.031 0.594c0.587 0.337 1.331 0.225 1.794-0.275 1.050-1.131 1.837-2.506 2.294-3.962 0.212-0.65-0.069-1.369-0.656-1.706zM36.044 20.844l1.837 1.063c-0.331 0.894-0.813 1.738-1.425 2.469l-1.837-1.063c-1.337 1.144-1.531 1.256-3.194 1.844v2.125c-0.944 0.163-1.913 0.163-2.85 0v-2.125c-1.681-0.594-1.887-0.731-3.194-1.844l-1.837 1.063c-0.613-0.738-1.1-1.575-1.425-2.469l1.837-1.063c-0.306-1.675-0.325-1.913 0-3.688l-1.837-1.063c0.325-0.894 0.813-1.731 1.425-2.469l1.837 1.063c1.337-1.144 1.531-1.256 3.194-1.844v-2.125c0.944-0.156 1.919-0.156 2.85 0v2.125c1.675 0.594 1.888 0.725 3.194 1.844l1.837-1.063c0.612 0.738 1.1 1.575 1.425 2.469l-1.837 1.063c0.306 1.675 0.325 1.913 0 3.688z"></path>
</svg>
