<!-- Generated by IcoMoon.io -->
<svg version="1.1" xmlns="http://www.w3.org/2000/svg" width="31" height="32" viewBox="0 0 31 32">
<title>user-circle-solid</title>
<path d="M15.5 0.5c-8.563 0-15.5 6.938-15.5 15.5s6.938 15.5 15.5 15.5 15.5-6.938 15.5-15.5-6.938-15.5-15.5-15.5zM15.5 6.5c3.038 0 5.5 2.463 5.5 5.5s-2.462 5.5-5.5 5.5-5.5-2.463-5.5-5.5 2.463-5.5 5.5-5.5zM15.5 28c-3.669 0-6.956-1.663-9.156-4.262 1.175-2.212 3.475-3.738 6.156-3.738 0.15 0 0.3 0.025 0.444 0.069 0.813 0.262 1.662 0.431 2.556 0.431s1.75-0.169 2.556-0.431c0.144-0.044 0.294-0.069 0.444-0.069 2.681 0 4.981 1.525 6.156 3.738-2.2 2.6-5.488 4.262-9.156 4.262z"></path>
</svg>
