<!-- Generated by IcoMoon.io -->
<svg version="1.1" xmlns="http://www.w3.org/2000/svg" width="40" height="32" viewBox="0 0 40 32">
<title>users-solid</title>
<path d="M6 14c2.206 0 4-1.794 4-4s-1.794-4-4-4-4 1.794-4 4 1.794 4 4 4zM34 14c2.206 0 4-1.794 4-4s-1.794-4-4-4-4 1.794-4 4 1.794 4 4 4zM36 16h-4c-1.1 0-2.094 0.444-2.819 1.163 2.519 1.381 4.306 3.875 4.694 6.837h4.125c1.106 0 2-0.894 2-2v-2c0-2.206-1.794-4-4-4zM20 16c3.869 0 7-3.131 7-7s-3.131-7-7-7-7 3.131-7 7 3.131 7 7 7zM24.8 18h-0.519c-1.3 0.625-2.744 1-4.281 1s-2.975-0.375-4.281-1h-0.519c-3.975 0-7.2 3.225-7.2 7.2v1.8c0 1.656 1.344 3 3 3h18c1.656 0 3-1.344 3-3v-1.8c0-3.975-3.225-7.2-7.2-7.2zM10.819 17.163c-0.725-0.719-1.719-1.163-2.819-1.163h-4c-2.206 0-4 1.794-4 4v2c0 1.106 0.894 2 2 2h4.119c0.394-2.962 2.181-5.456 4.7-6.837z"></path>
</svg>
