<!-- Generated by IcoMoon.io -->
<svg version="1.1" xmlns="http://www.w3.org/2000/svg" width="28" height="32" viewBox="0 0 28 32">
<title>user-graduate-solid</title>
<path d="M19.962 20.038l-5.963 5.962-5.963-5.962c-4.469 0.194-8.037 3.85-8.037 8.363v0.6c0 1.656 1.344 3 3 3h22c1.656 0 3-1.344 3-3v-0.6c0-4.512-3.569-8.169-8.038-8.363zM0.85 4.987l0.4 0.094v3.65c-0.438 0.262-0.75 0.719-0.75 1.269 0 0.525 0.287 0.963 0.694 1.231l-0.975 3.894c-0.106 0.431 0.131 0.875 0.475 0.875h2.612c0.344 0 0.581-0.444 0.475-0.875l-0.975-3.894c0.406-0.269 0.694-0.706 0.694-1.231 0-0.55-0.313-1.006-0.75-1.269v-3.287l4.125 0.994c-0.537 1.075-0.875 2.275-0.875 3.563 0 4.419 3.581 8 8 8s8-3.581 8-8c0-1.287-0.331-2.487-0.875-3.563l6.019-1.45c1.137-0.275 1.137-1.694 0-1.969l-11.9-2.875c-0.813-0.194-1.669-0.194-2.481 0l-11.912 2.869c-1.131 0.275-1.131 1.7 0 1.975z"></path>
</svg>
