<!-- Generated by IcoMoon.io -->
<svg version="1.1" xmlns="http://www.w3.org/2000/svg" width="28" height="32" viewBox="0 0 28 32">
<title>user-headset-solid</title>
<path d="M20 22h-1.444c-1.337 0.631-2.903 1-4.556 1s-3.22-0.369-4.623-1.028l0.067 0.028h-1.444c-4.418 0-8 3.582-8 8v0c0 1.105 0.895 2 2 2v0h24c1.105 0 2-0.895 2-2v0c0-4.418-3.582-8-8-8v0zM3 14c0.552 0 1-0.448 1-1v0-1c0-5.514 4.486-10 10-10s10 4.486 10 10v1c-0.003 2.76-2.24 4.997-5 5h-2c0-1.105-0.895-2-2-2v0h-2c-1.105 0-2 0.895-2 2s0.895 2 2 2v0h6c3.864-0.005 6.995-3.136 7-7v-1c0-6.617-5.383-12-12-12s-12 5.383-12 12v1c0 0.552 0.448 1 1 1v0zM13 14h2c1.472 0 2.759 0.796 3.453 1.981l0.010 0.019h0.537c1.656-0.002 2.998-1.344 3-3v-1c0-4.418-3.582-8-8-8s-8 3.582-8 8v0c0 2.526 1.194 4.75 3.022 6.217-0.004-0.073-0.022-0.142-0.022-0.217 0.002-2.208 1.792-3.998 4-4h0z"></path>
</svg>
