<!-- Generated by IcoMoon.io -->
<svg version="1.1" xmlns="http://www.w3.org/2000/svg" width="28" height="32" viewBox="0 0 28 32">
<title>user-hard-hat</title>
<path d="M19.6 22c-1.795 0-2.653 1-5.6 1s-3.805-1-5.598-1c-0.001 0-0.002 0-0.002 0-4.639 0-8.4 3.761-8.4 8.4v0c0 0.884 0.716 1.6 1.6 1.6v0h24.8c0.884 0 1.6-0.716 1.6-1.6v0c0-4.639-3.761-8.4-8.4-8.4v0zM2.013 30c0.221-3.357 2.997-5.997 6.39-6h0c1.239 0 2.433 1 5.598 1 3.188 0 4.35-1 5.6-1 3.392 0.004 6.167 2.644 6.386 5.981l0.001 0.019zM5.5 10h0.791c-0.175 0.597-0.281 1.284-0.291 1.994l-0 0.006c0 4.418 3.582 8 8 8s8-3.582 8-8v0c-0.010-0.716-0.116-1.403-0.305-2.055l0.014 0.055h0.791c0.276 0 0.5-0.224 0.5-0.5v0-1c0-0.276-0.224-0.5-0.5-0.5v0h-0.5c0-3.22-2.188-5.904-5.146-6.72-0.294-0.753-1.013-1.277-1.854-1.28h-2c-0.842 0.003-1.56 0.527-1.85 1.266l-0.005 0.014c-2.958 0.816-5.146 3.5-5.146 6.72h-0.5c-0.276 0-0.5 0.224-0.5 0.5v0 1c0 0.276 0.224 0.5 0.5 0.5v0zM17 3.432c1.777 0.789 2.995 2.536 3 4.567v0.001h-3zM13 2h2v6h-2zM8 8c0.005-2.033 1.223-3.779 2.968-4.556l0.032-0.013v4.568zM8.375 10h11.25c0.232 0.593 0.369 1.28 0.375 1.998v0.002c0 3.314-2.686 6-6 6s-6-2.686-6-6v0c0.006-0.72 0.143-1.407 0.388-2.039l-0.013 0.039z"></path>
</svg>
