<!-- Generated by IcoMoon.io -->
<svg version="1.1" xmlns="http://www.w3.org/2000/svg" width="40" height="32" viewBox="0 0 40 32">
<title>user-music-solid</title>
<path d="M14 16.063c4.418 0 8-3.582 8-8s-3.582-8-8-8c-4.418 0-8 3.582-8 8v0c0 4.418 3.582 8 8 8v0zM18 27.063c0-3.431 3.021-6.212 7.153-6.858-1.483-1.317-3.414-2.142-5.554-2.142h-1.043c-1.337 0.631-2.904 1-4.557 1s-3.22-0.369-4.623-1.028l0.067 0.028h-1.043c-4.639 0.001-8.4 3.761-8.401 8.401v2.599c0 1.657 1.343 3 3 3v0h17.651c-1.643-1.262-2.651-3.021-2.651-5zM37.434 6.146l-6.033 1.782c-0.818 0.263-1.4 1.016-1.401 1.906v12.729c-0.894-0.316-1.926-0.499-3-0.5h-0c-3.866 0-7 2.239-7 5s3.134 5 7 5 7-2.239 7-5v-11.741l4.563-1.337c0.838-0.251 1.438-1.015 1.438-1.919 0-0 0-0 0-0v0-4.003c-0.001-1.104-0.896-1.999-2-1.999-0.202 0-0.397 0.030-0.58 0.086l0.014-0.004z"></path>
</svg>
