<!-- Generated by IcoMoon.io -->
<svg version="1.1" xmlns="http://www.w3.org/2000/svg" width="28" height="32" viewBox="0 0 28 32">
<title>user-injured</title>
<path d="M19.6 18c-0.69 0-1.361 0.163-2.012 0.39-1.125 0.392-2.33 0.61-3.588 0.61s-2.463-0.218-3.587-0.61c-0.651-0.227-1.323-0.39-2.013-0.39-4.639 0-8.4 3.761-8.4 8.4v2.6c0 1.657 1.343 3 3 3h22c1.657 0 3-1.343 3-3v-2.6c0-4.639-3.761-8.4-8.4-8.4zM5 30h-2c-0.551 0-1-0.449-1-1v-2.6c0-2.277 1.204-4.266 3-5.401v9.001zM7 30v-9.835c0.452-0.101 0.918-0.165 1.4-0.165 0.092 0 0.199 0.023 0.297 0.032l4.431 9.968h-6.128zM17 30h-1.683l-1.778-4h3.461c1.104 0 2 0.898 2 2s-0.896 2-2 2zM26 29c0 0.551-0.449 1-1 1h-4.556c0.344-0.591 0.556-1.268 0.556-2 0-2.206-1.795-4-4-4h-4.35l-1.494-3.36c0.935 0.213 1.882 0.36 2.844 0.36 1.445 0 2.874-0.243 4.247-0.722 0.543-0.19 0.973-0.278 1.353-0.278 3.529 0 6.4 2.871 6.4 6.4v2.6zM14 16c4.419 0 8-3.582 8-8s-3.581-8-8-8c-4.418 0-8 3.581-8 8s3.582 8 8 8zM19.631 6h-4.632l3.121-2.341c0.677 0.644 1.191 1.443 1.511 2.341zM14 2c0.836 0 1.631 0.174 2.355 0.484l-4.688 3.516h-3.299c0.828-2.323 3.027-4 5.631-4zM20 8c0 3.308-2.691 6-6 6s-6-2.692-6-6h12z"></path>
</svg>
