<!-- Generated by IcoMoon.io -->
<svg version="1.1" xmlns="http://www.w3.org/2000/svg" width="40" height="32" viewBox="0 0 40 32">
<title>user-shield-solid</title>
<path d="M38.894 16.944l-7.2-2.813c-0.256-0.1-0.788-0.231-1.387 0l-7.2 2.813c-0.669 0.262-1.106 0.875-1.106 1.556 0 6.975 4.294 11.8 8.306 13.369 0.6 0.231 1.125 0.1 1.387 0 3.206-1.25 8.306-5.587 8.306-13.369 0-0.681-0.438-1.294-1.106-1.556zM31 28.9v-11.819l5.969 2.331c-0.35 5.444-3.806 8.463-5.969 9.488zM14 16c4.419 0 8-3.581 8-8s-3.581-8-8-8-8 3.581-8 8 3.581 8 8 8zM20 18.5c0-0.156 0.050-0.3 0.069-0.45-0.156-0.006-0.306-0.050-0.469-0.050h-1.044c-1.387 0.637-2.931 1-4.556 1s-3.162-0.363-4.556-1h-1.044c-4.638 0-8.4 3.762-8.4 8.4v2.6c0 1.656 1.344 3 3 3h22c0.425 0 0.831-0.094 1.2-0.25-3.375-2.681-6.2-7.294-6.2-13.25z"></path>
</svg>
