<!-- Generated by IcoMoon.io -->
<svg version="1.1" xmlns="http://www.w3.org/2000/svg" width="28" height="32" viewBox="0 0 28 32">
<title>user-md</title>
<path d="M14 16c4.419 0 8-3.581 8-8s-3.581-8-8-8-8 3.581-8 8 3.581 8 8 8zM14 2c3.306 0 6 2.694 6 6s-2.694 6-6 6-6-2.694-6-6 2.694-6 6-6zM19.856 18.006c-2.113-0.063-2.769 0.994-5.856 0.994-3.081 0-3.738-1.056-5.85-0.994-4.525 0.131-8.15 3.837-8.15 8.394v5.1c0 0.275 0.225 0.5 0.5 0.5h1c0.275 0 0.5-0.225 0.5-0.5v-5.1c0-3.394 2.662-6.15 6-6.363v5.106c-1.444 0.431-2.5 1.769-2.5 3.356 0 1.931 1.569 3.5 3.5 3.5s3.5-1.569 3.5-3.5c0-1.587-1.056-2.925-2.5-3.356v-4.806c1.3 0.425 2.637 0.656 4 0.656s2.7-0.231 4-0.656v4.3c-1.762 0.469-3 2.156-3 4.037v1.825c0 0.262 0.106 0.519 0.294 0.706l0.644 0.644c0.194 0.194 0.512 0.194 0.706 0l0.706-0.706c0.194-0.194 0.194-0.512 0-0.706l-0.356-0.356v-1.581c0-1.212 1.087-2.175 2.337-1.975 0.981 0.163 1.663 1.087 1.663 2.081v1.475l-0.356 0.356c-0.194 0.194-0.194 0.512 0 0.706l0.706 0.706c0.194 0.194 0.512 0.194 0.706 0l0.644-0.644c0.188-0.188 0.294-0.444 0.294-0.706v-2c0-1.856-1.281-3.406-3-3.85v-4.606c3.337 0.212 6 2.969 6 6.363v5.094c0 0.275 0.225 0.5 0.5 0.5h1c0.275 0 0.5-0.225 0.5-0.5v-5.1c0.012-4.556-3.613-8.262-8.131-8.394zM10.5 28.5c0 0.825-0.675 1.5-1.5 1.5s-1.5-0.675-1.5-1.5 0.675-1.5 1.5-1.5 1.5 0.675 1.5 1.5z"></path>
</svg>
