<!-- Generated by IcoMoon.io -->
<svg version="1.1" xmlns="http://www.w3.org/2000/svg" width="40" height="32" viewBox="0 0 40 32">
<title>user-md-chat-solid</title>
<path d="M6.5 26.5c0 0.828 0.672 1.5 1.5 1.5s1.5-0.672 1.5-1.5c0-0.828-0.672-1.5-1.5-1.5v0c-0.828 0-1.5 0.672-1.5 1.5v0zM14 16c4.418 0 8-3.582 8-8s-3.582-8-8-8c-4.418 0-8 3.582-8 8v0c0 4.418 3.582 8 8 8v0zM20 18.041v3.063c2.296 0.484 3.996 2.491 4 4.896v2.5c0 0 0 0 0 0 0 0.483-0.342 0.886-0.797 0.979l-0.006 0.001-2.009 0.403c-0.029 0.006-0.063 0.010-0.098 0.010-0.241 0-0.443-0.171-0.49-0.398l-0.001-0.003-0.196-0.981c-0.006-0.029-0.010-0.063-0.010-0.098 0-0.242 0.171-0.443 0.399-0.49l0.003-0.001 1.204-0.241v-1.682c-0.005-1.656-1.348-2.997-3.005-2.997-0.21 0-0.415 0.022-0.613 0.063l0.019-0.003c-1.424 0.276-2.402 1.609-2.402 3.063v1.563l1.206 0.241c0.231 0.047 0.402 0.249 0.402 0.49 0 0.035-0.004 0.068-0.010 0.101l0.001-0.003-0.196 0.981c-0.048 0.231-0.249 0.402-0.49 0.402-0.035 0-0.068-0.004-0.101-0.010l0.003 0.001-1.948-0.265c-0.491-0.069-0.866-0.486-0.866-0.991 0-0.002 0-0.004 0-0.006v0-2.628c0.003-2.406 1.703-4.414 3.967-4.893l0.033-0.006v-2.881c-1.189 0.493-2.57 0.779-4.017 0.779-1.28 0-2.508-0.224-3.647-0.634l0.075 0.024c-0.407-0.145-0.884-0.259-1.377-0.322l-0.034-0.004v5.1c1.458 0.445 2.5 1.778 2.5 3.354 0 1.933-1.567 3.5-3.5 3.5s-3.5-1.567-3.5-3.5c0-1.576 1.042-2.909 2.475-3.348l0.025-0.007v-5.021c-3.969 0.671-7 4.099-7 8.259v2.6c0 1.657 1.343 3 3 3v0h22c1.657 0 3-1.343 3-3v0-2.6c0-4.502-3.551-8.146-8-8.359zM32 0c-4.418 0-8 3.134-8 7 0 1.797 0.797 3.42 2.069 4.659-0.585 1.325-1.239 2.462-1.996 3.52l0.040-0.059c-0.072 0.099-0.115 0.224-0.115 0.358 0 0.075 0.013 0.147 0.038 0.213l-0.001-0.004c0.068 0.196 0.214 0.313 0.382 0.313 2.49 0 4.522-1.071 5.951-2.148 0.49 0.094 1.054 0.148 1.631 0.148h0c4.418 0 8-3.134 8-7s-3.582-7-8-7z"></path>
</svg>
