<!-- Generated by IcoMoon.io -->
<svg version="1.1" xmlns="http://www.w3.org/2000/svg" width="40" height="32" viewBox="0 0 40 32">
<title>user-clock</title>
<path d="M14 16c4.419 0 8-3.581 8-8s-3.581-8-8-8-8 3.581-8 8 3.581 8 8 8zM14 2c3.306 0 6 2.694 6 6s-2.694 6-6 6-6-2.694-6-6 2.694-6 6-6zM31 14c-4.975 0-9 4.025-9 9s4.025 9 9 9 9-4.025 9-9-4.025-9-9-9zM31 30c-3.863 0-7-3.137-7-7s3.137-7 7-7 7 3.137 7 7-3.138 7-7 7zM22.512 30h-19.512c-0.55 0-1-0.45-1-1v-2.6c0-3.531 2.869-6.4 6.4-6.4 1.225 0 2.444 1 5.6 1 3.15 0 4.375-1 5.6-1 0.275 0 0.538 0.050 0.806 0.081 0.181-0.669 0.431-1.313 0.731-1.925-0.5-0.094-1.006-0.156-1.531-0.156-1.794 0-2.656 1-5.6 1s-3.8-1-5.6-1c-4.644 0-8.406 3.762-8.406 8.4v2.6c0 1.656 1.344 3 3 3h21.681c-0.806-0.569-1.544-1.238-2.169-2zM34.394 22h-2.394v-3.394c0-0.331-0.275-0.606-0.606-0.606h-0.788c-0.331 0-0.606 0.275-0.606 0.606v4.787c0 0.331 0.275 0.606 0.606 0.606h3.788c0.331 0 0.606-0.275 0.606-0.606v-0.788c0-0.331-0.275-0.606-0.606-0.606z"></path>
</svg>
