<!-- Generated by IcoMoon.io -->
<svg version="1.1" xmlns="http://www.w3.org/2000/svg" width="40" height="32" viewBox="0 0 40 32">
<title>user-chart</title>
<path d="M38 0h-26c-1.104 0-2 0.896-2 2v6c-3.314 0-6 2.686-6 6s2.686 6 6 6 6-2.686 6-6c0-2.609-1.675-4.806-4-5.633v-6.367h26v22h-18.916c-0.037-0.059-0.064-0.122-0.103-0.18-1.078-1.601-2.917-2.444-4.806-2.444-1.737 0.001-2.173 0.624-4.174 0.624-1.998 0-2.434-0.624-4.174-0.624-1.889 0-3.728 0.843-4.806 2.444-0.644 0.956-1.019 2.107-1.019 3.346v2.333c0 1.381 1.119 2.5 2.5 2.5h15c1.381 0 2.5-1.119 2.5-2.5v-2.333c0-0.401-0.052-0.788-0.128-1.167h18.128c1.104 0 2-0.896 2-2v-22c0-1.104-0.896-2-2-2zM14 14c0 2.206-1.794 4-4 4s-4-1.794-4-4 1.794-4 4-4 4 1.794 4 4zM18 29.5c0 0.276-0.224 0.5-0.5 0.5h-15c-0.276 0-0.5-0.224-0.5-0.5v-2.333c0-0.799 0.234-1.571 0.678-2.229 0.658-0.977 1.834-1.561 3.148-1.561 1.362 0 1.874 0.624 4.174 0.624s2.813-0.624 4.174-0.624c1.313 0 2.489 0.584 3.148 1.561 0.444 0.659 0.678 1.43 0.678 2.229v2.333zM21.164 9.543c-0.586-0.586-1.535-0.586-2.121 0l-1.593 1.593c0.285 0.732 0.456 1.511 0.513 2.315l2.141-2.141 3.94 3.939c0.293 0.293 0.676 0.439 1.061 0.439s0.767-0.146 1.061-0.439l3.686-3.686 2.078 2.078c0.248 0.248 0.551 0.358 0.85 0.358 0.624 0 1.223-0.485 1.223-1.217v-5.974c0-0.447-0.362-0.809-0.809-0.809h-5.974c-1.082 0-1.624 1.308-0.859 2.073l2.078 2.078-3.332 3.332-3.941-3.939zM32 8v2.886l-2.886-2.886h2.886z"></path>
</svg>
