<!-- Generated by IcoMoon.io -->
<svg version="1.1" xmlns="http://www.w3.org/2000/svg" width="28" height="32" viewBox="0 0 28 32">
<title>user-md-solid</title>
<path d="M14 16c4.419 0 8-3.581 8-8s-3.581-8-8-8-8 3.581-8 8 3.581 8 8 8zM6.5 26.5c0 0.831 0.669 1.5 1.5 1.5s1.5-0.669 1.5-1.5-0.669-1.5-1.5-1.5-1.5 0.669-1.5 1.5zM20 18.038v3.063c2.281 0.462 4 2.488 4 4.9v2.606c0 0.475-0.337 0.887-0.806 0.981l-2.012 0.4c-0.269 0.056-0.531-0.119-0.587-0.394l-0.194-0.981c-0.056-0.269 0.119-0.538 0.394-0.587l1.206-0.244v-1.781c0-3.925-6-4.069-6 0.119v1.669l1.206 0.244c0.269 0.056 0.444 0.319 0.394 0.587l-0.194 0.981c-0.056 0.269-0.319 0.444-0.587 0.394l-1.95-0.262c-0.494-0.069-0.863-0.488-0.863-0.994v-2.738c0-2.413 1.719-4.431 4-4.9v-2.825c-0.137 0.044-0.275 0.069-0.413 0.119-1.125 0.394-2.331 0.613-3.588 0.613s-2.463-0.219-3.588-0.613c-0.463-0.163-0.931-0.262-1.412-0.325v5.1c1.444 0.431 2.5 1.756 2.5 3.337 0 1.931-1.569 3.5-3.5 3.5s-3.5-1.569-3.5-3.5c0-1.581 1.056-2.906 2.5-3.337v-5.025c-3.975 0.669-7.006 4.094-7.006 8.256v2.8c0 1.544 1.256 2.8 2.8 2.8h22.4c1.544 0 2.8-1.256 2.8-2.8v-2.8c0-4.5-3.55-8.144-8-8.363z"></path>
</svg>
