<!-- Generated by IcoMoon.io -->
<svg version="1.1" xmlns="http://www.w3.org/2000/svg" width="40" height="32" viewBox="0 0 40 32">
<title>users-crown</title>
<path d="M35.25 18h-2.5c-0.949 0-1.829 0.302-2.572 0.808 0.586 0.398 1.121 0.867 1.591 1.398 0.306-0.128 0.634-0.206 0.981-0.206h2.5c1.516 0 2.75 1.346 2.75 3 0 0.552 0.447 1 1 1s1-0.448 1-1c0-2.757-2.131-5-4.75-5zM34 16c2.761 0 5-2.239 5-5s-2.239-5-5-5-5 2.239-5 5 2.239 5 5 5zM34 8c1.654 0 3 1.346 3 3s-1.346 3-3 3-3-1.346-3-3 1.346-3 3-3zM25.009 19.251c-0.742 0-1.492 0.108-2.218 0.329-0.885 0.269-1.819 0.42-2.791 0.42s-1.906-0.151-2.791-0.419c-0.663-0.209-1.426-0.329-2.217-0.329-0.001 0-0.001 0-0.001 0h0c-2.268 0-4.474 1.011-5.768 2.933-0.773 1.146-1.223 2.528-1.223 4.015v0.8c0 1.657 1.343 3 3 3h18c1.657 0 3-1.343 3-3v-0.8c0-1.487-0.451-2.869-1.223-4.016-1.294-1.922-3.5-2.933-5.768-2.933zM30 27c0 0.551-0.449 1-1 1h-18c-0.551 0-1-0.449-1-1v-0.8c0-1.039 0.305-2.042 0.882-2.899 0.864-1.284 2.4-2.050 4.109-2.050 0.556 0 1.107 0.082 1.637 0.242 1.106 0.336 2.24 0.506 3.372 0.506s2.267-0.17 3.372-0.506c0.488-0.154 1.050-0.242 1.633-0.242 0.001 0 0.003 0 0.004 0h-0c1.709 0 3.244 0.766 4.109 2.050 0.577 0.857 0.882 1.859 0.882 2.899v0.8zM6 16c2.761 0 5-2.239 5-5s-2.239-5-5-5-5 2.239-5 5 2.239 5 5 5zM6 8c1.654 0 3 1.346 3 3s-1.346 3-3 3-3-1.346-3-3 1.346-3 3-3zM9.822 18.808c-0.742-0.506-1.623-0.808-2.572-0.808h-2.5c-2.619 0-4.75 2.243-4.75 5 0 0.552 0.448 1 1 1s1-0.448 1-1c0-1.654 1.234-3 2.75-3h2.5c0.347 0 0.676 0.078 0.981 0.206 0.47-0.531 1.004-1 1.591-1.398zM20 18c3.866 0 7-3.134 7-7v-9l-3.5 1.75-3.5-1.75-3.5 1.75-3.5-1.75v9c0 3.866 3.134 7 7 7zM15 5.236l1.5 0.75 3.5-1.75 3.5 1.75 1.5-0.75v2.764h-10v-2.764zM15 10h10v1c0 2.757-2.243 5-5 5s-5-2.243-5-5v-1z"></path>
</svg>
