<!-- Generated by IcoMoon.io -->
<svg version="1.1" xmlns="http://www.w3.org/2000/svg" width="28" height="32" viewBox="0 0 28 32">
<title>user-tie</title>
<path d="M14 16c4.419 0 8-3.581 8-8s-3.581-8-8-8-8 3.581-8 8 3.581 8 8 8zM14 2c3.306 0 6 2.694 6 6s-2.694 6-6 6-6-2.694-6-6 2.694-6 6-6zM19.744 19.012l-2.481 8.613-2.119-6.356 1.562-1.563c0.631-0.631 0.181-1.706-0.706-1.706h-4c-0.894 0-1.338 1.075-0.706 1.706l1.563 1.563-2.119 6.356-2.481-8.606c-4.575 0.075-8.256 3.794-8.256 8.381v1.6c0 1.656 1.344 3 3 3h22c1.656 0 3-1.344 3-3v-1.6c0-4.587-3.681-8.306-8.256-8.387zM3 30c-0.55 0-1-0.45-1-1v-1.6c0-2.95 2.050-5.469 4.806-6.181l2.537 8.781h-6.344zM12.056 30l1.944-5.837 1.944 5.837h-3.888zM26 29c0 0.55-0.45 1-1 1h-6.344l2.531-8.781c2.756 0.712 4.806 3.231 4.806 6.181v1.6z"></path>
</svg>
