<!-- Generated by IcoMoon.io -->
<svg version="1.1" xmlns="http://www.w3.org/2000/svg" width="40" height="32" viewBox="0 0 40 32">
<title>user-md-chat</title>
<path d="M32 0c-4.418 0-8 3.136-8 7 0 1.797 0.797 3.42 2.069 4.659-0.585 1.325-1.239 2.462-1.996 3.52l0.040-0.059c-0.072 0.099-0.115 0.224-0.115 0.358 0 0.075 0.013 0.147 0.038 0.213l-0.001-0.004c0.068 0.196 0.214 0.313 0.381 0.313 2.491 0 4.522-1.071 5.952-2.148 0.49 0.094 1.054 0.148 1.631 0.148h0c4.419 0 8-3.134 8-7s-3.581-7-8-7zM32 12c-0.45-0-0.891-0.042-1.318-0.122l0.044 0.007-0.861-0.156-0.699 0.526c-0.474 0.364-1.010 0.698-1.576 0.979l-0.057 0.025c0.125-0.255 0.25-0.522 0.369-0.799l0.554-1.268-0.992-0.966c-0.668-0.649-1.465-1.738-1.465-3.227 0-2.757 2.691-5 6-5s6 2.243 6 5-2.691 5-6 5zM19.856 18.006c-2.113-0.063-2.769 0.994-5.856 0.994s-3.737-1.056-5.849-0.994c-4.53 0.137-8.15 3.842-8.15 8.392 0 0.001 0 0.001 0 0.002v-0 5.1c0 0.276 0.224 0.5 0.5 0.5v0h1c0.276 0 0.5-0.224 0.5-0.5v0-5.1c0-3.394 2.662-6.15 6-6.363v5.106c-1.458 0.445-2.5 1.778-2.5 3.354 0 1.933 1.567 3.5 3.5 3.5s3.5-1.567 3.5-3.5c0-1.576-1.042-2.909-2.475-3.348l-0.025-0.007v-4.806c1.193 0.416 2.569 0.656 4 0.656s2.807-0.24 4.088-0.683l-0.088 0.026v4.3c-1.762 0.469-3 2.156-3 4.037v1.825c0.001 0.276 0.113 0.525 0.294 0.706l0.644 0.644c0.090 0.090 0.215 0.146 0.353 0.146s0.263-0.056 0.353-0.146v0l0.706-0.706c0.090-0.090 0.146-0.215 0.146-0.353s-0.056-0.263-0.146-0.353v0l-0.356-0.356v-1.581c0.004-1.107 0.902-2.002 2.009-2.002 0.116 0 0.23 0.010 0.341 0.029l-0.012-0.002c0.981 0.163 1.663 1.087 1.663 2.081v1.475l-0.356 0.356c-0.090 0.090-0.146 0.215-0.146 0.353s0.056 0.263 0.146 0.353v0l0.706 0.706c0.090 0.090 0.215 0.146 0.353 0.146s0.263-0.056 0.353-0.146v0l0.644-0.644c0.181-0.181 0.293-0.43 0.294-0.706v-2c-0.006-1.846-1.266-3.396-2.972-3.844l-0.028-0.006v-4.606c3.337 0.212 6 2.969 6 6.363v5.094c0 0.276 0.224 0.5 0.5 0.5v0h1c0.276 0 0.5-0.224 0.5-0.5v0-5.1c0-0.007 0-0.014 0-0.022 0-4.54-3.612-8.236-8.119-8.371l-0.012-0zM10.5 28.5c0 0.828-0.672 1.5-1.5 1.5s-1.5-0.672-1.5-1.5c0-0.828 0.672-1.5 1.5-1.5v0c0.828 0.002 1.498 0.672 1.5 1.5v0zM14 16c4.418 0 8-3.582 8-8s-3.582-8-8-8c-4.418 0-8 3.582-8 8v0c0 4.418 3.582 8 8 8v0zM14 2c3.314 0 6 2.686 6 6s-2.686 6-6 6c-3.314 0-6-2.686-6-6v0c0.005-3.312 2.688-5.995 6-6h0.001z"></path>
</svg>
