<!-- Generated by IcoMoon.io -->
<svg version="1.1" xmlns="http://www.w3.org/2000/svg" width="28" height="32" viewBox="0 0 28 32">
<title>user-secret-solid</title>
<path d="M23.994 19.269l1.494-3.912c0.25-0.656-0.231-1.356-0.938-1.356h-3.656c0.688-1.181 1.113-2.537 1.113-4v-0.019c2.45-0.488 4-1.194 4-1.981 0-0.831-1.706-1.569-4.381-2.063-0.575-2.050-1.688-4.112-2.538-5.175-0.594-0.744-1.619-0.975-2.469-0.55l-1.725 0.863c-0.563 0.281-1.225 0.281-1.787 0l-1.725-0.863c-0.85-0.425-1.875-0.194-2.469 0.55-0.844 1.063-1.963 3.125-2.537 5.175-2.669 0.494-4.375 1.231-4.375 2.063 0 0.787 1.55 1.494 4 1.981v0.019c0 1.463 0.425 2.819 1.112 4h-3.594c-0.719 0-1.2 0.731-0.919 1.394l1.612 3.763c-2.506 1.456-4.213 4.137-4.213 7.244v2.8c0 1.544 1.256 2.8 2.8 2.8h22.4c1.544 0 2.8-1.256 2.8-2.8v-2.8c0-3.025-1.613-5.65-4.006-7.131zM11 30l-2.6-12 3.1 2 1.5 2.5-2 7.5zM17 30l-2-7.5 1.5-2.5 3.1-2-2.6 12zM19.606 11.344c-0.244 0.744-0.438 1.537-1.031 2.088-0.631 0.581-3 1.4-4-1.563-0.175-0.525-0.963-0.525-1.144 0-1.063 3.138-3.5 2.025-4 1.563-0.594-0.55-0.794-1.344-1.031-2.088-0.050-0.156-0.394-0.356-0.394-0.363v-0.675c1.769 0.225 3.813 0.363 6 0.363s4.231-0.131 6-0.363v0.675c-0.006 0.006-0.35 0.2-0.4 0.363z"></path>
</svg>
