<!-- Generated by IcoMoon.io -->
<svg version="1.1" xmlns="http://www.w3.org/2000/svg" width="28" height="32" viewBox="0 0 28 32">
<title>user-alien</title>
<path d="M15.75 18h2.5c2.071 0 3.75-1.679 3.75-3.75v0-1.5c-0-0.414-0.336-0.75-0.75-0.75h-2.5c-2.071 0-3.75 1.679-3.75 3.75v0 1.5c0 0.414 0.336 0.75 0.75 0.75v0zM17 15.75c0.001-0.966 0.784-1.749 1.75-1.75h1.25v0.25c-0.001 0.966-0.784 1.749-1.75 1.75h-1.25zM12.25 18c0.414-0 0.75-0.336 0.75-0.75v0-1.5c0-2.071-1.679-3.75-3.75-3.75h-2.5c-0.414 0-0.75 0.336-0.75 0.75v0 1.5c0 2.071 1.679 3.75 3.75 3.75v0zM8 14.25v-0.25h1.25c0.966 0.001 1.749 0.784 1.75 1.75v0.25h-1.25c-0.966-0.001-1.749-0.784-1.75-1.75v-0zM22 22h-0.551c2.447-2.736 4.555-6.041 4.555-9.335 0-7.869-5.376-12.665-12.004-12.665-6.63 0-12.004 4.796-12.004 12.665 0 3.294 2.108 6.599 4.555 9.335h-0.551c0 0 0 0-0 0-3.314 0-6 2.686-6 6 0 0 0 0 0 0v0 1c0 0 0 0 0 0 0 1.657 1.343 3 3 3 0 0 0 0 0 0h22c0 0 0 0 0 0 1.657 0 3-1.343 3-3 0 0 0 0 0 0v0-1c0 0 0 0 0-0 0-3.314-2.686-6-6-6 0 0 0 0-0 0v0zM3.996 12.665c0-6.379 4.020-10.665 10.004-10.665s10.004 4.286 10.004 10.665c0 5.474-7.583 11.566-9.907 13.303-0.026 0.020-0.060 0.033-0.097 0.033s-0.070-0.012-0.097-0.033l0 0c-2.324-1.737-9.907-7.828-9.907-13.303zM26 29c-0.001 0.552-0.448 0.999-1 1h-22c-0.552-0.001-0.999-0.448-1-1v-1c0.003-2.208 1.792-3.997 4-4h2.488c1.285 1.227 2.66 2.397 4.101 3.484l0.118 0.085c0.356 0.269 0.806 0.431 1.294 0.431s0.938-0.162 1.299-0.434l-0.005 0.004c1.558-1.173 2.934-2.342 4.237-3.587l-0.018 0.017h2.487c2.208 0.003 3.997 1.792 4 4v0z"></path>
</svg>
