<!-- Generated by IcoMoon.io -->
<svg version="1.1" xmlns="http://www.w3.org/2000/svg" width="28" height="32" viewBox="0 0 28 32">
<title>user</title>
<path d="M19.6 18c-1.794 0-2.656 1-5.6 1s-3.8-1-5.6-1c-4.638 0-8.4 3.762-8.4 8.4v2.6c0 1.656 1.344 3 3 3h22c1.656 0 3-1.344 3-3v-2.6c0-4.637-3.762-8.4-8.4-8.4zM26 29c0 0.55-0.45 1-1 1h-22c-0.55 0-1-0.45-1-1v-2.6c0-3.531 2.869-6.4 6.4-6.4 1.225 0 2.444 1 5.6 1 3.15 0 4.375-1 5.6-1 3.531 0 6.4 2.869 6.4 6.4v2.6zM14 16c4.419 0 8-3.581 8-8s-3.581-8-8-8-8 3.581-8 8 3.581 8 8 8zM14 2c3.306 0 6 2.694 6 6s-2.694 6-6 6-6-2.694-6-6 2.694-6 6-6z"></path>
</svg>
