<!-- Generated by IcoMoon.io -->
<svg version="1.1" xmlns="http://www.w3.org/2000/svg" width="40" height="32" viewBox="0 0 40 32">
<title>users-medical</title>
<path d="M32 14c-4.418 0-8 3.582-8 8s3.582 8 8 8c4.418 0 8-3.582 8-8v0c0-4.418-3.582-8-8-8v0zM32 28c-3.314 0-6-2.686-6-6s2.686-6 6-6c3.314 0 6 2.686 6 6v0c0 3.314-2.686 6-6 6v0zM35.667 20.667h-2.334v-2.334c0-0.184-0.149-0.333-0.333-0.333h-2c-0.184 0-0.333 0.149-0.333 0.333v0 2.334h-2.334c-0.184 0-0.333 0.149-0.333 0.333v2c0 0.184 0.149 0.333 0.333 0.333v0h2.334v2.334c0 0.184 0.149 0.333 0.333 0.333h2c0.184 0 0.333-0.149 0.333-0.333v0-2.334h2.334c0.184 0 0.333-0.149 0.333-0.333v-2c0-0.184-0.149-0.333-0.333-0.333v0zM20 16c3.866 0 7-3.134 7-7s-3.134-7-7-7c-3.866 0-7 3.134-7 7v0c0 0.001 0 0.002 0 0.004 0 3.864 3.132 6.996 6.996 6.996 0.001 0 0.003 0 0.004 0h-0zM20 4c2.761 0 5 2.239 5 5s-2.239 5-5 5c-2.761 0-5-2.239-5-5v0c0.004-2.76 2.24-4.996 5-5h0zM6 14c2.761 0 5-2.239 5-5s-2.239-5-5-5c-2.761 0-5 2.239-5 5v0c0 2.761 2.239 5 5 5v0zM6 6c1.657 0 3 1.343 3 3s-1.343 3-3 3c-1.657 0-3-1.343-3-3v0c0-1.657 1.343-3 3-3v0zM24.051 28h-13.051c-0.552 0-1-0.448-1-1v0-2.8c0-0.002 0-0.004 0-0.006 0-1.079 0.329-2.082 0.893-2.912l-0.012 0.018c0.863-1.281 2.4-2.050 4.106-2.050s2.325 0.75 5.012 0.75c0.034 0 0.074 0.001 0.114 0.001 0.764 0 1.509-0.084 2.225-0.242l-0.068 0.013c0.21-0.866 0.503-1.625 0.88-2.334l-0.026 0.053c-0.867 0.219-1.632 0.509-3.125 0.509-2.4 0-2.919-0.75-5.006-0.75-2.269 0-4.475 1.012-5.769 2.931-0.767 1.123-1.225 2.511-1.225 4.006 0 0.005 0 0.009 0 0.014v-0.001 2.8c0 1.657 1.343 3 3 3v0h15.062c-0.768-0.577-1.431-1.236-1.994-1.975l-0.018-0.025zM9.819 16.806c-0.718-0.501-1.608-0.802-2.568-0.806h-2.501c-2.619 0-4.75 2.244-4.75 5 0 0.552 0.448 1 1 1s1-0.448 1-1v0c0-1.656 1.237-3 2.75-3h2.5c0.355 0.002 0.692 0.077 0.997 0.213l-0.016-0.006c0.468-0.525 0.988-0.986 1.559-1.381l0.029-0.019z"></path>
</svg>
