<!-- Generated by IcoMoon.io -->
<svg version="1.1" xmlns="http://www.w3.org/2000/svg" width="40" height="32" viewBox="0 0 40 32">
<title>user-check-solid</title>
<path d="M14 16c4.419 0 8-3.581 8-8s-3.581-8-8-8-8 3.581-8 8 3.581 8 8 8zM19.6 18h-1.044c-1.387 0.637-2.931 1-4.556 1s-3.162-0.363-4.556-1h-1.044c-4.638 0-8.4 3.762-8.4 8.4v2.6c0 1.656 1.344 3 3 3h22c1.656 0 3-1.344 3-3v-2.6c0-4.637-3.762-8.4-8.4-8.4zM39.788 9.975l-1.737-1.756c-0.288-0.294-0.756-0.294-1.050-0.006l-6.55 6.5-2.844-2.862c-0.288-0.294-0.756-0.294-1.050-0.006l-1.756 1.744c-0.294 0.287-0.294 0.756-0.006 1.050l5.106 5.144c0.288 0.294 0.756 0.294 1.050 0.006l8.831-8.762c0.288-0.294 0.294-0.762 0.006-1.050z"></path>
</svg>
