<!-- Generated by IcoMoon.io -->
<svg version="1.1" xmlns="http://www.w3.org/2000/svg" width="40" height="32" viewBox="0 0 40 32">
<title>user-clock-solid</title>
<path d="M31 14c-4.975 0-9 4.025-9 9s4.025 9 9 9 9-4.025 9-9-4.025-9-9-9zM35 23.394c0 0.331-0.275 0.606-0.606 0.606h-3.788c-0.331 0-0.606-0.275-0.606-0.606v-4.787c0-0.331 0.275-0.606 0.606-0.606h0.788c0.331 0 0.606 0.275 0.606 0.606v3.394h2.394c0.331 0 0.606 0.275 0.606 0.606v0.788zM20 23c0-1.738 0.419-3.381 1.137-4.844-0.5-0.094-1.012-0.156-1.538-0.156h-1.044c-1.387 0.637-2.931 1-4.556 1s-3.162-0.363-4.556-1h-1.044c-4.638 0-8.4 3.762-8.4 8.4v2.6c0 1.656 1.344 3 3 3h21.694c-2.831-1.994-4.694-5.281-4.694-9zM14 16c4.419 0 8-3.581 8-8s-3.581-8-8-8-8 3.581-8 8 3.581 8 8 8z"></path>
</svg>
