<!-- Generated by IcoMoon.io -->
<svg version="1.1" xmlns="http://www.w3.org/2000/svg" width="28" height="32" viewBox="0 0 28 32">
<title>user-visor-solid</title>
<path d="M6.566 10.916c1.167 2.974 4.046 5.088 7.434 5.088s6.267-2.114 7.434-5.088c0.889-0.203 1.566-0.962 1.566-1.912v-4c0-0 0-0 0-0 0-1.105-0.895-2-2-2-0 0-0 0-0 0h-0.801c-1.467-1.815-3.683-3-6.199-3s-4.732 1.185-6.199 3h-0.801c-0 0-0 0-0 0-1.105 0-2 0.895-2 2 0 0 0 0 0 0v0 4c0 0.951 0.677 1.709 1.566 1.912zM8 6.003h12v2h-12zM19.6 18.003h-1.043c-1.337 0.631-2.904 1-4.557 1s-3.22-0.369-4.623-1.028l0.067 0.028h-1.043c-4.639 0.001-8.399 3.761-8.4 8.4v2.6c0 1.657 1.343 3 3 3h22c1.657-0 3-1.343 3-3v-2.6c-0.001-4.639-3.761-8.399-8.4-8.4h-0zM22.080 27.991c-0.024 0.008-0.051 0.013-0.079 0.013-0 0-0.001 0-0.001 0h0c-0.084-0-0.158-0.041-0.204-0.105l-0-0.001c-0.762-1.074-1.102-1.44-1.241-1.564-0.032 0.005-0.061 0.013-0.088 0.024l0.002-0.001c-0.206 0.063-0.762 0.343-2.315 1.551-0.042 0.032-0.096 0.051-0.154 0.051-0.044 0-0.085-0.011-0.122-0.031l0.001 0.001c-0.078-0.044-0.129-0.126-0.129-0.22 0-0.009 0-0.017 0.001-0.026l-0 0.001c0.242-2.274 0.992-4.156 2.231-5.594 0.049-0.053 0.119-0.086 0.196-0.087h0c0.078 0.002 0.147 0.040 0.191 0.097l0 0.001c1.176 1.537 1.808 3.436 1.88 5.645 0 0.003 0 0.006 0 0.009 0 0.109-0.070 0.202-0.168 0.236l-0.002 0.001z"></path>
</svg>
