<!-- Generated by IcoMoon.io -->
<svg version="1.1" xmlns="http://www.w3.org/2000/svg" width="28" height="32" viewBox="0 0 28 32">
<title>user-robot-solid</title>
<path d="M1.125 16h1.875v-8h-1.875c-0 0-0.001 0-0.001 0-0.621 0-1.124 0.503-1.124 1.124 0 0 0 0.001 0 0.001v-0 5.75c0 0 0 0.001 0 0.001 0 0.621 0.503 1.124 1.124 1.124 0 0 0.001 0 0.001 0h-0zM26.875 8h-1.875v8h1.875c0 0 0.001 0 0.001 0 0.621 0 1.124-0.503 1.124-1.124 0-0 0-0.001 0-0.001v0-5.75c0-0 0-0.001 0-0.001 0-0.621-0.503-1.124-1.124-1.124-0 0-0.001 0-0.002 0h0zM7.25 20h13.5c1.242-0.001 2.249-1.008 2.25-2.25v-10.938c0-0 0-0.001 0-0.001 0-1.553-1.259-2.812-2.811-2.812-0 0-0.001 0-0.001 0h-5.062v-2.875c0-0.621-0.504-1.125-1.125-1.125s-1.125 0.504-1.125 1.125v0 2.875h-5.063c-0 0-0.001 0-0.001 0-1.553 0-2.812 1.259-2.812 2.812 0 0 0 0.001 0 0.001v-0 10.938c0.001 1.242 1.008 2.249 2.25 2.25h0zM19 17h-2v-2h2zM18 8c1.105 0 2 0.895 2 2s-0.895 2-2 2c-1.105 0-2-0.895-2-2v0c0-0 0-0 0-0 0-1.104 0.895-2 2-2 0 0 0 0 0 0v0zM13 15h2v2h-2zM11 17h-2v-2h2zM10 8c1.105 0 2 0.895 2 2s-0.895 2-2 2c-1.105 0-2-0.895-2-2v0c0-0 0-0 0-0 0-1.104 0.895-2 2-2 0 0 0 0 0 0v0zM22 22h-16c0 0 0 0-0 0-3.314 0-6 2.686-6 6 0 0 0 0 0 0v0 2c0 1.105 0.895 2 2 2h6v-4c0-0 0-0 0-0 0-1.105 0.895-2 2-2 0 0 0 0 0 0h8c0 0 0 0 0 0 1.105 0 2 0.895 2 2 0 0 0 0 0 0v0 4h6c1.105 0 2-0.895 2-2v0-2c0 0 0 0 0-0 0-3.314-2.686-6-6-6 0 0 0 0-0 0v0zM11 28c0 0-0 0-0 0-0.552 0-1 0.448-1 1 0 0 0 0 0 0v0 3h2v-3c0 0 0-0 0-0 0-0.552-0.448-1-1-1 0 0-0 0-0 0v0zM17 28c-0.552 0-1 0.448-1 1s0.448 1 1 1c0.552 0 1-0.448 1-1v0c0 0 0-0 0-0 0-0.552-0.448-1-1-1 0 0-0 0-0 0v0z"></path>
</svg>
