<!-- Generated by IcoMoon.io -->
<svg version="1.1" xmlns="http://www.w3.org/2000/svg" width="40" height="32" viewBox="0 0 40 32">
<title>user-shield</title>
<path d="M38.894 16.944l-7.2-2.813c-0.219-0.088-0.456-0.131-0.694-0.131s-0.469 0.044-0.694 0.131l-7.2 2.813c-0.669 0.262-1.106 0.875-1.106 1.556 0 6.975 4.294 11.8 8.306 13.369 0.219 0.087 0.456 0.131 0.694 0.131s0.469-0.044 0.694-0.131c3.206-1.25 8.306-5.587 8.306-13.369 0-0.681-0.438-1.294-1.106-1.556zM30 29.5c-3.012-1.675-5.913-5.475-6-10.756l6-2.344v13.1zM31.038 30.006c-0.006 0-0.012-0.006-0.012-0.006h0.031c-0.012 0-0.019 0.006-0.019 0.006zM32 29.531v-13.131l6 2.344c-0.094 5.925-3.569 9.387-6 10.788zM3 30c-0.55 0-1-0.45-1-1v-2.6c0-3.531 2.869-6.4 6.4-6.4 1.225 0 2.444 1 5.6 1 3.15 0 4.375-1 5.6-1 0.163 0 0.313 0.038 0.469 0.050-0.044-0.506-0.069-1.019-0.069-1.55 0-0.156 0.050-0.3 0.069-0.45-0.156-0.006-0.306-0.050-0.469-0.050-1.794 0-2.656 1-5.6 1s-3.8-1-5.6-1c-4.638 0-8.4 3.762-8.4 8.4v2.6c0 1.656 1.344 3 3 3h22c0.425 0 0.831-0.094 1.2-0.25-0.644-0.512-1.262-1.1-1.856-1.75h-21.344zM14 16c4.419 0 8-3.581 8-8s-3.581-8-8-8-8 3.581-8 8 3.581 8 8 8zM14 2c3.306 0 6 2.694 6 6s-2.694 6-6 6-6-2.694-6-6 2.694-6 6-6z"></path>
</svg>
