<!-- Generated by IcoMoon.io -->
<svg version="1.1" xmlns="http://www.w3.org/2000/svg" width="28" height="32" viewBox="0 0 28 32">
<title>user-graduate</title>
<path d="M19.962 20.038l-5.963 4.962-5.963-4.962c-1.15 0.050-8.037 0.969-8.037 8.962 0 1.656 1.344 3 3 3h22c1.656 0 3-1.344 3-3 0-7.994-6.881-8.913-8.038-8.962zM13 30h-10c-0.55 0-1-0.45-1-1 0-6.225 5.256-6.869 5.4-6.894l5.6 4.662v3.231zM26 29c0 0.55-0.45 1-1 1h-10v-3.231l5.6-4.662c0.144 0.025 5.4 0.669 5.4 6.894zM0.825 6.25l0.425 0.125v2.35c-0.438 0.262-0.75 0.719-0.75 1.269 0 0.525 0.287 0.963 0.694 1.231l-0.975 3.9c-0.106 0.431 0.131 0.875 0.475 0.875h2.612c0.344 0 0.581-0.444 0.475-0.875l-0.975-3.894c0.406-0.269 0.694-0.706 0.694-1.231 0-0.55-0.313-1.006-0.75-1.269v-1.906l2.919 0.862c-0.419 1.025-0.669 2.138-0.669 3.313 0 4.969 4.031 9 9 9s9-4.031 9-9c0-1.175-0.25-2.287-0.669-3.313l4.844-1.438c1.1-0.325 1.1-2.175 0-2.5l-12.119-3.594c-0.35-0.106-0.7-0.156-1.056-0.156s-0.706 0.050-1.056 0.156l-12.119 3.594c-1.1 0.325-1.1 2.175 0 2.5zM14 18c-3.863 0-7-3.137-7-7 0-0.981 0.231-1.894 0.6-2.738l5.344 1.588c0.925 0.275 1.7 0.125 2.112 0l5.344-1.588c0.369 0.844 0.6 1.762 0.6 2.738 0 3.863-3.137 7-7 7zM13.512 2.069c0.050-0.013 0.456-0.15 0.975 0l9.875 2.931-9.875 2.931c-0.050 0.013-0.456 0.15-0.975 0l-9.875-2.931 9.875-2.931z"></path>
</svg>
