<!-- Generated by IcoMoon.io -->
<svg version="1.1" xmlns="http://www.w3.org/2000/svg" width="40" height="32" viewBox="0 0 40 32">
<title>user-cog-solid</title>
<path d="M38.156 23.331c0.163-0.881 0.163-1.781 0-2.663l1.612-0.931c0.188-0.106 0.269-0.325 0.206-0.531-0.419-1.35-1.138-2.575-2.075-3.588-0.144-0.156-0.375-0.194-0.563-0.088l-1.612 0.931c-0.681-0.581-1.462-1.031-2.306-1.331v-1.863c0-0.213-0.15-0.4-0.356-0.444-1.394-0.313-2.813-0.3-4.137 0-0.206 0.044-0.356 0.231-0.356 0.444v1.863c-0.844 0.3-1.625 0.75-2.306 1.331l-1.613-0.931c-0.181-0.106-0.419-0.069-0.563 0.088-0.938 1.012-1.656 2.238-2.075 3.587-0.063 0.206 0.025 0.425 0.206 0.531l1.613 0.931c-0.163 0.881-0.163 1.781 0 2.663l-1.613 0.931c-0.188 0.106-0.269 0.325-0.206 0.531 0.419 1.35 1.137 2.569 2.075 3.587 0.144 0.156 0.375 0.194 0.563 0.087l1.613-0.931c0.681 0.581 1.462 1.031 2.306 1.331v1.863c0 0.212 0.15 0.4 0.356 0.444 1.394 0.313 2.813 0.3 4.137 0 0.206-0.044 0.356-0.231 0.356-0.444v-1.863c0.844-0.3 1.625-0.75 2.306-1.331l1.612 0.931c0.181 0.106 0.419 0.069 0.563-0.087 0.938-1.012 1.656-2.238 2.075-3.587 0.063-0.206-0.025-0.425-0.206-0.531l-1.612-0.931zM31 25.031c-1.675 0-3.031-1.363-3.031-3.031s1.363-3.031 3.031-3.031 3.031 1.363 3.031 3.031-1.356 3.031-3.031 3.031zM14 16c4.419 0 8-3.581 8-8s-3.581-8-8-8-8 3.581-8 8 3.581 8 8 8zM26.575 30.156c-0.144-0.075-0.288-0.163-0.425-0.244l-0.494 0.288c-0.375 0.212-0.8 0.331-1.225 0.331-0.681 0-1.337-0.288-1.806-0.788-1.144-1.238-2.019-2.744-2.512-4.35-0.344-1.106 0.119-2.275 1.119-2.856l0.494-0.288c-0.006-0.163-0.006-0.325 0-0.488l-0.494-0.288c-1-0.575-1.462-1.75-1.119-2.856 0.056-0.181 0.137-0.363 0.2-0.544-0.238-0.019-0.469-0.075-0.712-0.075h-1.044c-1.387 0.637-2.931 1-4.556 1s-3.162-0.363-4.556-1h-1.044c-4.638 0-8.4 3.762-8.4 8.4v2.6c0 1.656 1.344 3 3 3h22c0.631 0 1.219-0.2 1.7-0.531-0.075-0.238-0.125-0.481-0.125-0.738v-0.575z"></path>
</svg>
