<!-- Generated by IcoMoon.io -->
<svg version="1.1" xmlns="http://www.w3.org/2000/svg" width="40" height="32" viewBox="0 0 40 32">
<title>user-tag</title>
<path d="M13.994 16c4.419 0 8-3.581 8-8s-3.581-8-8-8c-4.412 0-7.994 3.581-7.994 8s3.581 8 7.994 8zM13.994 2c3.306 0 6 2.694 6 6s-2.694 6-6 6-6-2.694-6-6c0.006-3.306 2.694-6 6-6zM39.413 22.8l-5.638-5.644c-0.75-0.75-1.769-1.169-2.825-1.169h-4.956c-1.106 0-2 0.894-2 2v4.956c0 1.063 0.419 2.081 1.169 2.831l5.637 5.644c0.387 0.387 0.9 0.587 1.413 0.587s1.025-0.194 1.413-0.587l5.781-5.781c0.788-0.788 0.788-2.056 0.006-2.837zM32.219 30l-5.637-5.644c-0.375-0.375-0.587-0.881-0.587-1.413v-4.956h4.956c0.531 0 1.038 0.206 1.413 0.587l5.638 5.644-5.781 5.781zM28.994 20c-0.55 0-1 0.45-1 1s0.45 1 1 1 1-0.45 1-1-0.45-1-1-1zM24.994 30h-21.994c-0.55 0-1-0.45-1-1v-2.6c0-3.531 2.869-6.4 6.4-6.4 1.225 0 2.444 1 5.6 1 3.144 0 4.375-1 5.6-1 0.85 0 1.656 0.175 2.4 0.475v-2.087c-0.762-0.231-1.563-0.387-2.4-0.387-1.794 0-2.656 1-5.6 1s-3.8-1-5.6-1c-4.638 0-8.4 3.762-8.4 8.4v2.6c0 1.656 1.344 3 3 3h21.994c0.975 0 1.831-0.475 2.381-1.194l-1.45-1.45c-0.15 0.375-0.506 0.644-0.931 0.644z"></path>
</svg>
