<!-- Generated by IcoMoon.io -->
<svg version="1.1" xmlns="http://www.w3.org/2000/svg" width="40" height="32" viewBox="0 0 40 32">
<title>user-edit-solid</title>
<path d="M14 16c4.419 0 8-3.581 8-8s-3.581-8-8-8-8 3.581-8 8 3.581 8 8 8zM19.6 18h-1.044c-1.387 0.637-2.931 1-4.556 1s-3.162-0.363-4.556-1h-1.044c-4.638 0-8.4 3.762-8.4 8.4v2.6c0 1.656 1.344 3 3 3h17.181c-0.15-0.425-0.212-0.875-0.163-1.331l0.425-3.806 0.075-0.694 5.325-5.325c-1.531-1.731-3.75-2.844-6.244-2.844zM22.431 27.081l-0.425 3.813c-0.069 0.637 0.469 1.175 1.1 1.1l3.806-0.425 8.619-8.619-4.481-4.481-8.619 8.613zM39.563 16.806l-2.369-2.369c-0.581-0.581-1.531-0.581-2.112 0l-2.619 2.619 4.487 4.481 2.612-2.613c0.581-0.587 0.581-1.531 0-2.119z"></path>
</svg>
