<!-- Generated by IcoMoon.io -->
<svg version="1.1" xmlns="http://www.w3.org/2000/svg" width="40" height="32" viewBox="0 0 40 32">
<title>user-friends</title>
<path d="M30 16c3.313 0 6-2.688 6-6s-2.688-6-6-6-6 2.688-6 6 2.688 6 6 6zM30 6c2.206 0 4 1.794 4 4s-1.794 4-4 4-4-1.794-4-4 1.794-4 4-4zM12 16c3.869 0 7-3.131 7-7s-3.131-7-7-7-7 3.131-7 7 3.131 7 7 7zM12 4c2.756 0 5 2.244 5 5s-2.244 5-5 5-5-2.244-5-5 2.244-5 5-5zM17.006 17.25c-2.088 0-2.606 0.75-5.006 0.75s-2.919-0.75-5.006-0.75c-2.269 0-4.475 1.012-5.769 2.931-0.775 1.15-1.225 2.531-1.225 4.019v2.8c0 1.656 1.344 3 3 3h18c1.656 0 3-1.344 3-3v-2.8c0-1.488-0.45-2.869-1.225-4.019-1.294-1.919-3.5-2.931-5.769-2.931zM22 27c0 0.55-0.45 1-1 1h-18c-0.55 0-1-0.45-1-1v-2.8c0-1.038 0.306-2.044 0.881-2.9 0.863-1.281 2.4-2.050 4.106-2.050 1.713 0 2.325 0.75 5.012 0.75s3.3-0.75 5.006-0.75c1.706 0 3.244 0.769 4.106 2.050 0.575 0.856 0.881 1.863 0.881 2.9v2.8zM38.981 19.819c-1.081-1.6-2.919-2.444-4.806-2.444-1.737 0-2.175 0.625-4.175 0.625s-2.438-0.625-4.175-0.625c-0.825 0-1.631 0.188-2.381 0.506 0.95 0.962 1.156 1.475 1.262 1.663 0.356-0.1 0.725-0.163 1.119-0.163 1.363 0 1.875 0.625 4.175 0.625s2.813-0.625 4.175-0.625c1.313 0 2.487 0.581 3.15 1.563 0.444 0.656 0.681 1.431 0.681 2.231v2.325c0 0.275-0.225 0.5-0.5 0.5h-11.506c0 1.106 0.019 1.406-0.1 2h11.6c1.381 0 2.5-1.119 2.5-2.5v-2.331c0-1.244-0.375-2.394-1.019-3.35z"></path>
</svg>
