<!-- Generated by IcoMoon.io -->
<svg version="1.1" xmlns="http://www.w3.org/2000/svg" width="28" height="32" viewBox="0 0 28 32">
<title>user-injured-solid</title>
<path d="M17.336 0.749c-1.018-0.469-2.141-0.749-3.336-0.749-3.356 0-6.219 2.071-7.407 5h5.074l5.668-4.251zM21.407 5c-0.494-1.217-1.292-2.263-2.281-3.095l-4.127 3.095h6.408zM14 16c4.418 0 8-3.582 8-8 0-0.343-0.059-0.669-0.101-1h-15.799c-0.042 0.331-0.101 0.657-0.101 1 0 4.418 3.582 8 8 8zM5 18.731v13.269h8.016l-6.153-13.845c-0.703 0.132-1.327 0.331-1.915 0.597l0.052-0.021zM0 29c0 1.657 1.343 3 3 3v-11.985c-1.82 1.541-3 3.814-3 6.385v2.6zM16 26h-3.461l2.667 6h0.794c1.654 0 3-1.346 3-3s-1.346-3-3-3zM19.6 18h-1.044c-1.39 0.636-2.93 1-4.556 1s-3.166-0.364-4.556-1h-0.461l2.667 6h4.349c2.757 0 5 2.243 5 5 0 1.13-0.391 2.162-1.026 3h5.026c1.657 0 3-1.343 3-3v-2.6c0-4.639-3.761-8.4-8.4-8.4z"></path>
</svg>
