<!-- Generated by IcoMoon.io -->
<svg version="1.1" xmlns="http://www.w3.org/2000/svg" width="40" height="32" viewBox="0 0 40 32">
<title>users-crown-solid</title>
<path d="M6 14c2.209 0 4-1.791 4-4s-1.791-4-4-4-4 1.791-4 4 1.791 4 4 4zM20 16c3.314 0 6-2.686 6-6v-1h-12v1c0 3.314 2.686 6 6 6zM36 16h-4c-1.099 0-2.094 0.444-2.817 1.162 2.517 1.379 4.304 3.877 4.696 6.838h4.121c1.104 0 2-0.896 2-2v-2c0-2.209-1.791-4-4-4zM10.817 17.162c-0.723-0.718-1.717-1.162-2.817-1.162h-4c-2.209 0-4 1.791-4 4v2c0 1.104 0.896 2 2 2h4.121c0.392-2.961 2.178-5.459 4.696-6.838zM34 14c2.209 0 4-1.791 4-4s-1.791-4-4-4-4 1.791-4 4 1.791 4 4 4zM24.8 18h-0.519c-1.302 0.622-2.743 1-4.281 1s-2.977-0.378-4.281-1h-0.519c-3.976 0-7.2 3.224-7.2 7.2v1.8c0 1.657 1.343 3 3 3h18c1.657 0 3-1.343 3-3v-1.8c0-3.976-3.224-7.2-7.2-7.2zM26 2l-3 1.5-3-1.5-3 1.5-3-1.5v5h12v-5z"></path>
</svg>
