<!-- Generated by IcoMoon.io -->
<svg version="1.1" xmlns="http://www.w3.org/2000/svg" width="40" height="32" viewBox="0 0 40 32">
<title>users-slash</title>
<path d="M20 4c0.001 0 0.002 0 0.004 0 2.759 0 4.996 2.237 4.996 4.996 0 1.711-0.86 3.22-2.17 4.121l-0.017 0.011 1.604 1.263c1.565-1.283 2.583-3.207 2.583-5.391 0-0.001 0-0.003 0-0.004 0-3.864-3.132-6.996-6.996-6.996-0.002 0-0.003 0-0.005 0h0c-2.776 0-5.151 1.625-6.283 3.965l1.619 1.275c0.731-1.904 2.541-3.233 4.663-3.24h0.001zM34 14c2.761 0 5-2.239 5-5s-2.239-5-5-5c-2.761 0-5 2.239-5 5v0c0 2.761 2.239 5 5 5v0zM34 6c1.657 0 3 1.343 3 3s-1.343 3-3 3c-1.657 0-3-1.343-3-3v0c0-1.657 1.343-3 3-3v0zM35.25 16h-2.5c-0.961 0.002-1.851 0.303-2.583 0.816l0.014-0.010c0.6 0.411 1.121 0.873 1.579 1.39l0.008 0.009c0.289-0.129 0.626-0.205 0.981-0.206h2.501c1.513 0 2.75 1.344 2.75 3 0 0.552 0.448 1 1 1s1-0.448 1-1v0c0-2.756-2.131-5-4.75-5zM11 28c-0.552 0-1-0.448-1-1v0-2.8c0-0.001 0-0.003 0-0.005 0-1.080 0.329-2.082 0.892-2.914l-0.012 0.018c0.864-1.281 2.401-2.050 4.107-2.050 1.331 0 2.009 0.449 3.5 0.651l-3.357-2.645c-0.048 0-0.087-0.006-0.136-0.006-2.27 0-4.476 1.012-5.77 2.932-0.767 1.123-1.224 2.511-1.224 4.006 0 0.004 0 0.009 0 0.013v-0.001 2.8c0 1.657 1.343 3 3 3v0h18c0.001 0 0.002 0 0.003 0 0.621 0 1.198-0.19 1.676-0.515l-0.010 0.007-1.894-1.492zM1.625 6.625c-0.388 0.684-0.619 1.502-0.625 2.373v0.002c-0 0.006-0 0.012-0 0.019 0 2.751 2.23 4.981 4.981 4.981 1.296 0 2.477-0.495 3.363-1.307l-0.004 0.003-1.601-1.259c-0.485 0.352-1.092 0.564-1.748 0.564-1.652 0-2.991-1.339-2.991-2.991 0-0.407 0.081-0.796 0.229-1.15l-0.007 0.020zM9.816 16.813c-0.716-0.503-1.605-0.807-2.565-0.813h-2.501c-2.619 0-4.75 2.244-4.75 5 0 0.552 0.448 1 1 1s1-0.448 1-1v0c0-1.656 1.237-3 2.75-3h2.5c0.355 0.002 0.692 0.077 0.997 0.213l-0.016-0.006c0.467-0.525 0.988-0.986 1.558-1.381l0.029-0.019zM1.438 0.113c-0.085-0.071-0.195-0.113-0.314-0.113-0.157 0-0.296 0.073-0.387 0.187l-0.001 0.001-0.625 0.781c-0.069 0.085-0.111 0.193-0.111 0.312 0 0.157 0.073 0.297 0.186 0.388l0.001 0.001 38.375 30.22c0.085 0.068 0.193 0.109 0.311 0.109 0.157 0 0.296-0.072 0.388-0.185l0.001-0.001 0.625-0.781c0.070-0.084 0.113-0.194 0.113-0.313 0-0.157-0.073-0.296-0.187-0.386l-0.001-0.001z"></path>
</svg>
