<!-- Generated by IcoMoon.io -->
<svg version="1.1" xmlns="http://www.w3.org/2000/svg" width="28" height="32" viewBox="0 0 28 32">
<title>user-astronaut-solid</title>
<path d="M4 14h0.844c1.544 3.531 5.056 6 9.156 6s7.613-2.469 9.156-6h0.844c0.55 0 1-0.45 1-1v-6c0-0.55-0.45-1-1-1h-0.844c-1.544-3.531-5.056-6-9.156-6s-7.612 2.469-9.156 6h-0.844c-0.55 0-1 0.45-1 1v6c0 0.55 0.45 1 1 1zM6.5 8.5c0-1.381 1.344-2.5 3-2.5h9c1.656 0 3 1.119 3 2.5v1.5c0 3.313-2.688 6-6 6h-3c-3.313 0-6-2.688-6-6v-1.5zM11 13l0.75-2.25 2.25-0.75-2.25-0.75-0.75-2.25-0.75 2.25-2.25 0.75 2.25 0.75 0.75 2.25zM20.475 20.087c-1.869 1.206-4.087 1.913-6.475 1.913s-4.606-0.706-6.475-1.913c-4.219 0.444-7.525 3.975-7.525 8.313v0.6c0 1.656 1.344 3 3 3h5v-4c0-1.106 0.894-2 2-2h8c1.106 0 2 0.894 2 2v4h5c1.656 0 3-1.344 3-3v-0.6c0-4.337-3.306-7.869-7.525-8.313zM17 28c-0.55 0-1 0.45-1 1s0.45 1 1 1 1-0.45 1-1-0.45-1-1-1zM11 28c-0.55 0-1 0.45-1 1v3h2v-3c0-0.55-0.45-1-1-1z"></path>
</svg>
