<!-- Generated by IcoMoon.io -->
<svg version="1.1" xmlns="http://www.w3.org/2000/svg" width="28" height="32" viewBox="0 0 28 32">
<title>user-cowboy</title>
<path d="M6.216 10.319c-0.115 0.495-0.193 1.072-0.216 1.663l-0.001 0.018c0 4.418 3.582 8 8 8s8-3.582 8-8v0c-0.024-0.613-0.102-1.194-0.231-1.755l0.012 0.063c4.512-2.226 6.117-5.866 6.141-5.919 0.050-0.115 0.080-0.25 0.080-0.392 0-0.553-0.448-1.001-1.001-1.001-0.411 0-0.765 0.248-0.918 0.603l-0.003 0.006c-0.073 0.167-1.236 2.72-4.451 4.549-0.617-3.142-1.957-8.155-4.248-8.155-0.646 0-1.222 0.278-1.706 0.654-0.444 0.348-1.010 0.558-1.625 0.558v0c-0.615-0-1.181-0.21-1.631-0.562l0.006 0.004c-0.488-0.376-1.065-0.654-1.711-0.654-2.299 0-3.641 5.049-4.255 8.188-3.266-1.832-4.469-4.422-4.543-4.59-0.16-0.353-0.509-0.595-0.915-0.595-0.553 0-1.001 0.448-1.001 1.001 0 0.147 0.032 0.287 0.089 0.413l-0.003-0.006c0.095 0.211 1.715 3.738 6.13 5.909zM10.804 2.014c0.15 0.052 0.279 0.127 0.391 0.221l-0.002-0.002c0.78 0.609 1.774 0.977 2.854 0.979h0c1.080-0.002 2.075-0.37 2.865-0.987l-0.010 0.008c0.11-0.093 0.24-0.168 0.381-0.217l0.009-0.003c0.573 0.431 1.662 2.612 2.469 7.017v0.004c-1.558 0.581-3.457 0.966-5.761 0.966-2.258 0-4.125-0.375-5.669-0.944 0.806-4.419 1.898-6.611 2.473-7.043zM8.099 11.076c1.655 0.556 3.596 0.924 5.901 0.924s4.244-0.37 5.9-0.929c0.054 0.274 0.090 0.594 0.1 0.921l0 0.009c0 3.314-2.686 6-6 6s-6-2.686-6-6v0c0.010-0.334 0.046-0.652 0.105-0.962l-0.006 0.037zM19.599 22.001c-1.795 0-2.652 1-5.599 1s-3.805-1-5.598-1c-4.639 0.001-8.4 3.76-8.402 8.399v0c0.001 0.883 0.716 1.599 1.599 1.599h24.801c0.883-0 1.599-0.716 1.6-1.599v-0c-0.002-4.639-3.762-8.399-8.4-8.401h-0zM2.012 30c0.212-3.309 3.074-5.997 6.391-6 1.238 0 2.433 1 5.598 1 3.188 0 4.349-1 5.599-1 3.313 0.004 6.178 2.692 6.389 6z"></path>
</svg>
