<!-- Generated by IcoMoon.io -->
<svg version="1.1" xmlns="http://www.w3.org/2000/svg" width="28" height="32" viewBox="0 0 28 32">
<title>user-nurse-solid</title>
<path d="M19.963 20l-5.963 5.962-5.963-5.962c-4.468 0.194-8.037 3.85-8.037 8.362 0 2.009 1.629 3.638 3.638 3.638v0h20.724c2.009 0 3.638-1.629 3.638-3.638v0c0-4.512-3.569-8.168-8.037-8.362zM14 19c4.418 0 8-3.582 8-8v0-6.886c0-0.001 0-0.002 0-0.002 0-0.852-0.533-1.58-1.284-1.868l-0.014-0.005-5.298-1.984c-0.417-0.161-0.9-0.255-1.404-0.255s-0.987 0.093-1.432 0.264l0.027-0.009-5.298 1.987c-0.764 0.293-1.297 1.020-1.298 1.873v0 6.886c0 4.418 3.582 8 8 8v0zM11.5 4.479c0-0.173 0.14-0.313 0.313-0.313v0h1.354v-1.354c0-0.173 0.14-0.313 0.313-0.313v0h1.041c0.173 0 0.313 0.14 0.313 0.313v0 1.354h1.354c0.173 0 0.313 0.14 0.313 0.313v0 1.041c0 0.173-0.14 0.313-0.313 0.313v0h-1.354v1.354c0 0.173-0.14 0.313-0.313 0.313v0h-1.041c-0.173 0-0.313-0.14-0.313-0.313v0-1.354h-1.354c-0.173 0-0.313-0.14-0.313-0.313v0zM9 10h10v1c0 2.761-2.239 5-5 5s-5-2.239-5-5v0z"></path>
</svg>
