<!-- Generated by IcoMoon.io -->
<svg version="1.1" xmlns="http://www.w3.org/2000/svg" width="28" height="32" viewBox="0 0 28 32">
<title>user-ninja</title>
<path d="M19.962 18.038l-5.963 4.962-5.963-4.962c-4.469 0.194-8.037 3.85-8.037 8.363v2.6c0 1.656 1.344 3 3 3h22c1.656 0 3-1.344 3-3v-2.6c0-4.512-3.569-8.169-8.038-8.363zM13 30h-10c-0.55 0-1-0.45-1-1v-2.6c0-3.175 2.319-5.813 5.4-6.294 5.619 4.675 5.2 4.325 5.6 4.662v5.231zM26 29c0 0.55-0.45 1-1 1h-10v-5.231c0.394-0.331-0.012 0.012 5.6-4.662 3.081 0.481 5.4 3.119 5.4 6.294v2.6zM2 12c1.706 0 3.237-0.719 4.325-1.856 0.944 3.369 4 5.856 7.675 5.856 4.419 0 8-3.581 8-8s-3.581-8-8-8c-3.15 0-5.85 1.837-7.156 4.487-1.088-1.5-2.844-2.487-4.844-2.487 0 2.088 1.069 3.925 2.694 5-1.625 1.075-2.694 2.912-2.694 5zM14 2c3.306 0 6 2.694 6 6s-2.694 6-6 6-6-2.694-6-6 2.694-6 6-6zM17 6h-6c-1.106 0-2 0.894-2 2h10c0-1.106-0.894-2-2-2z"></path>
</svg>
