<!-- Generated by IcoMoon.io -->
<svg version="1.1" xmlns="http://www.w3.org/2000/svg" width="28" height="32" viewBox="0 0 28 32">
<title>user-headset</title>
<path d="M20 22h-0.294c-0.76 0-1.5 0.181-2.219 0.425-1.040 0.365-2.24 0.576-3.489 0.576s-2.448-0.211-3.565-0.599l0.076 0.023c-0.717-0.244-1.456-0.424-2.214-0.424h-0.296c-4.418 0-7.999 3.581-8 7.999v0c0 1.105 0.895 2 2 2v0h24c1.105 0 2-0.895 2-2v0c0-4.418-3.582-8-8-8v0zM2 30c0.004-3.312 2.688-5.996 6-6h0.297c0.432 0 0.932 0.101 1.572 0.318 1.232 0.432 2.652 0.681 4.13 0.681s2.898-0.249 4.22-0.709l-0.090 0.027c0.644-0.218 1.146-0.319 1.578-0.319h0.294c3.312 0.004 5.996 2.688 6 6v0zM3 14c0.552 0 1-0.448 1-1v0-1c0-5.514 4.486-10 10-10s10 4.486 10 10v1c-0.003 2.76-2.24 4.997-5 5h-2c0-1.105-0.895-2-2-2v0h-2c-1.105 0-2 0.895-2 2s0.895 2 2 2v0h6c3.864-0.005 6.995-3.136 7-7v-1c0-6.617-5.383-12-12-12s-12 5.383-12 12v1c0 0.552 0.448 1 1 1v0zM14 6c0.008-0 0.017-0 0.027-0 3.299 0 5.973 2.674 5.973 5.973 0 1.547-0.588 2.956-1.552 4.017l0.004-0.005c0 0.006 0.008 0.009 0.011 0.015h0.537c1.065-0.002 1.998-0.56 2.527-1.399l0.007-0.012c0.278-0.816 0.466-1.678 0.466-2.589 0-4.418-3.582-8-8-8s-8 3.582-8 8v0c0 2.526 1.194 4.75 3.022 6.217-0.004-0.073-0.022-0.142-0.022-0.217 0.005-0.739 0.212-1.429 0.568-2.018l-0.010 0.018c-0.968-1.058-1.561-2.473-1.561-4.026 0-3.299 2.675-5.974 5.974-5.974 0.010 0 0.020 0 0.030 0h-0.002z"></path>
</svg>
