<!-- Generated by IcoMoon.io -->
<svg version="1.1" xmlns="http://www.w3.org/2000/svg" width="40" height="32" viewBox="0 0 40 32">
<title>user-alt-slash</title>
<path d="M39.813 30.325l-38.375-30.212c-0.212-0.175-0.531-0.138-0.7 0.075l-0.625 0.781c-0.175 0.219-0.138 0.531 0.075 0.706l38.375 30.219c0.212 0.175 0.531 0.137 0.7-0.075l0.625-0.781c0.175-0.225 0.138-0.538-0.075-0.712zM20 2c3.863 0 7 3.138 7 7 0 2.175-1.019 4.1-2.581 5.387l1.6 1.262c1.819-1.65 2.981-4.006 2.981-6.65 0-4.969-4.031-9-9-9-3.413 0-6.338 1.919-7.869 4.713l1.588 1.25c1.137-2.337 3.512-3.962 6.281-3.962zM6 30v-2c0-3.306 2.694-6 6-6h2.3c1.4 0 2.519 1 5.7 1 0.731 0 1.456-0.069 2.175-0.194l-2.306-1.819c-2.887-0.038-3.706-0.988-5.575-0.988h-2.294c-4.419 0-8 3.581-8 8v2c0 1.106 0.894 2 2 2h27.85l-2.538-2h-25.313z"></path>
</svg>
