<!-- Generated by IcoMoon.io -->
<svg version="1.1" xmlns="http://www.w3.org/2000/svg" width="40" height="32" viewBox="0 0 40 32">
<title>user-alt-slash-solid</title>
<path d="M39.612 28.631l-15.262-11.8c2.762-1.537 4.65-4.45 4.65-7.831 0-4.969-4.031-9-9-9-4.194 0-7.688 2.881-8.688 6.763l-8.469-6.55c-0.438-0.338-1.063-0.263-1.406 0.175l-1.225 1.575c-0.338 0.438-0.263 1.063 0.175 1.4l36.775 28.419c0.438 0.337 1.063 0.263 1.406-0.175l1.225-1.581c0.337-0.425 0.256-1.056-0.181-1.394zM12.4 20c-4.638 0-8.4 3.762-8.4 8.4v0.6c0 1.656 1.344 3 3 3h23.887l-15.525-12h-2.963z"></path>
</svg>
