<!-- Generated by IcoMoon.io -->
<svg version="1.1" xmlns="http://www.w3.org/2000/svg" width="40" height="32" viewBox="0 0 40 32">
<title>user-times-solid</title>
<path d="M36.85 15l2.85-2.85c0.394-0.394 0.394-1.031 0-1.425l-1.425-1.425c-0.394-0.394-1.031-0.394-1.425 0l-2.85 2.85-2.85-2.85c-0.394-0.394-1.031-0.394-1.425 0l-1.425 1.425c-0.394 0.394-0.394 1.031 0 1.425l2.85 2.85-2.85 2.85c-0.394 0.394-0.394 1.031 0 1.425l1.425 1.425c0.394 0.394 1.031 0.394 1.425 0l2.85-2.85 2.85 2.85c0.394 0.394 1.031 0.394 1.425 0l1.425-1.425c0.394-0.394 0.394-1.031 0-1.425l-2.85-2.85zM14 16c4.419 0 8-3.581 8-8s-3.581-8-8-8-8 3.581-8 8 3.581 8 8 8zM19.6 18h-1.044c-1.387 0.637-2.931 1-4.556 1s-3.162-0.363-4.556-1h-1.044c-4.638 0-8.4 3.762-8.4 8.4v2.6c0 1.656 1.344 3 3 3h22c1.656 0 3-1.344 3-3v-2.6c0-4.637-3.762-8.4-8.4-8.4z"></path>
</svg>
