<!-- Generated by IcoMoon.io -->
<svg version="1.1" xmlns="http://www.w3.org/2000/svg" width="28" height="32" viewBox="0 0 28 32">
<title>user-robot</title>
<path d="M9 18h2v-2h-2zM17 18h2v-2h-2zM13 18h2v-2h-2zM16 27c-0.552 0-1 0.448-1 1s0.448 1 1 1c0.552 0 1-0.448 1-1v0c0 0 0-0 0-0 0-0.552-0.448-1-1-1 0 0-0 0-0 0v0zM24 17h2c0 0 0 0 0 0 1.105 0 2-0.895 2-2 0-0 0-0 0-0v0-4c0-0 0-0 0-0 0-1.105-0.895-2-2-2-0 0-0 0-0 0h-2v-1c-0-2.209-1.791-4-4-4h-4.875v-2.875c0-0.621-0.504-1.125-1.125-1.125s-1.125 0.504-1.125 1.125v0 2.875h-4.875c-2.209 0-4 1.791-4 4v0 1h-2c-0 0-0 0-0 0-1.105 0-2 0.895-2 2 0 0 0 0 0 0v0 4c0 0 0 0 0 0 0 1.105 0.895 2 2 2 0 0 0 0 0 0h2v1c0.001 0.806 0.242 1.556 0.655 2.182l-0.009-0.015c-2.679 0.634-4.642 3.004-4.645 5.833v4c0 0 0 0 0 0 0 1.105 0.895 2 2 2 0 0 0 0 0 0h24c0 0 0 0 0 0 1.105 0 2-0.895 2-2 0-0 0-0 0-0v0-4c-0.003-2.829-1.966-5.199-4.605-5.825l-0.041-0.008c0.404-0.611 0.645-1.361 0.645-2.167v-0zM24 11h2v4h-2zM4 15h-2v-4h2zM6 8c0.001-1.104 0.896-1.999 2-2h12c1.104 0.001 1.999 0.896 2 2v10c-0.001 1.104-0.896 1.999-2 2h-12c-1.104-0.001-1.999-0.896-2-2v-0zM20 30h-7v-2c0-0.552-0.448-1-1-1s-1 0.448-1 1v0 2h-3v-3c0-0.552 0.448-1 1-1h10c0.552 0 1 0.448 1 1v0zM26 26v4h-4v-3c-0.002-1.656-1.344-2.998-3-3h-10c-1.656 0.002-2.998 1.344-3 3v3h-4v-4c0.003-2.208 1.792-3.997 4-4h16c2.208 0.003 3.997 1.792 4 4v0zM18 14c1.657 0 3-1.343 3-3s-1.343-3-3-3c-1.657 0-3 1.343-3 3v0c0 0 0 0 0 0 0 1.657 1.343 3 3 3 0 0 0 0 0 0v0zM18 10c0.552 0 1 0.448 1 1s-0.448 1-1 1c-0.552 0-1-0.448-1-1v0c0.001-0.552 0.448-0.999 1-1h0zM10 14c1.657 0 3-1.343 3-3s-1.343-3-3-3c-1.657 0-3 1.343-3 3v0c0 0 0 0 0 0 0 1.657 1.343 3 3 3 0 0 0 0 0 0v0zM10 10c0.552 0 1 0.448 1 1s-0.448 1-1 1c-0.552 0-1-0.448-1-1v0c0.001-0.552 0.448-0.999 1-1h0z"></path>
</svg>
