<!-- Generated by IcoMoon.io -->
<svg version="1.1" xmlns="http://www.w3.org/2000/svg" width="40" height="32" viewBox="0 0 40 32">
<title>users-slash-solid</title>
<path d="M8.291 13.27l-6.027-4.659c-0.163 0.412-0.259 0.888-0.263 1.387v0.002c0 0.003 0 0.007 0 0.010 0 2.204 1.786 3.99 3.99 3.99 0.862 0 1.66-0.273 2.313-0.738l-0.012 0.008zM10.818 17.163c-0.721-0.718-1.716-1.163-2.814-1.163-0.001 0-0.003 0-0.004 0h-4c-2.208 0.002-3.998 1.792-4 4v2c0 1.105 0.895 2 2 2v0h4.119c0.405-2.965 2.179-5.444 4.652-6.814l0.047-0.024zM34 14c2.209 0 4-1.791 4-4s-1.791-4-4-4c-2.209 0-4 1.791-4 4v0c0.002 2.208 1.792 3.998 4 4h0zM31.285 22.194c-0.981-2.122-2.914-3.659-5.236-4.074l-0.043-0.006-3.443-2.662c2.591-1.019 4.438-3.495 4.438-6.452 0-0.001 0-0.003 0-0.004 0-3.864-3.132-6.996-6.996-6.996-0.002 0-0.003 0-0.005 0h0c-3.571 0-6.481 2.677-6.912 6.13l-10.246-7.919c-0.168-0.131-0.382-0.211-0.614-0.211-0.32 0-0.605 0.15-0.788 0.384l-0.002 0.002-1.227 1.579c-0.131 0.168-0.21 0.381-0.21 0.614 0 0.32 0.15 0.605 0.384 0.788l0.002 0.002 36.772 28.42c0.168 0.132 0.382 0.211 0.614 0.211 0.32 0 0.605-0.15 0.788-0.385l0.002-0.002 1.227-1.579c0.131-0.168 0.211-0.381 0.211-0.614 0-0.32-0.15-0.605-0.384-0.788l-0.002-0.002zM8 25.201v1.799c0 1.657 1.343 3 3 3v0h18c0.281-0.004 0.551-0.046 0.807-0.122l-0.021 0.005-15.286-11.813c-3.641 0.356-6.5 3.393-6.5 7.13zM36 16h-4c-0.001 0-0.003 0-0.004 0-1.098 0-2.093 0.444-2.814 1.163l0-0c2.52 1.392 4.292 3.872 4.688 6.79l0.005 0.047h4.125c1.105 0 2-0.895 2-2v0-2c-0.002-2.208-1.792-3.998-4-4h-0z"></path>
</svg>
