<!-- Generated by IcoMoon.io -->
<svg version="1.1" xmlns="http://www.w3.org/2000/svg" width="40" height="32" viewBox="0 0 40 32">
<title>user-unlock</title>
<path d="M37 18h-9v-4.951c0-1.645 1.304-3.021 2.949-3.049 0.015-0 0.033-0 0.051-0 1.657 0 3 1.343 3 3v0 0.5c0 0.276 0.224 0.5 0.5 0.5v0h1c0.276 0 0.5-0.224 0.5-0.5v0-0.438c0-2.705-2.125-4.969-4.829-5.059-0.051-0.002-0.111-0.003-0.171-0.003-2.761 0-5 2.238-5 5v0 5h-1c-1.657 0-3 1.343-3 3v0 8c0 1.657 1.343 3 3 3v0h12c1.657 0 3-1.343 3-3v0-8c0-1.657-1.343-3-3-3v0zM38 29c0 0.552-0.448 1-1 1v0h-12c-0.552 0-1-0.448-1-1v0-8c0-0.552 0.448-1 1-1v0h12c0.552 0 1 0.448 1 1v0zM14 16c4.418 0 8-3.582 8-8s-3.582-8-8-8c-4.418 0-8 3.582-8 8v0c0 4.418 3.582 8 8 8v0zM14 2c3.314 0 6 2.686 6 6s-2.686 6-6 6c-3.314 0-6-2.686-6-6v0c0-3.314 2.686-6 6-6v0zM31 23c-1.105 0-2 0.895-2 2s0.895 2 2 2c1.105 0 2-0.895 2-2v0c0-1.105-0.895-2-2-2v0zM3 30c-0.552 0-1-0.448-1-1v0-2.6c0.002-3.534 2.866-6.398 6.4-6.4h0c1.225 0 2.444 1 5.6 1s4.375-1 5.6-1c0.169 0 0.331 0.038 0.494 0.050 0.145-0.73 0.43-1.375 0.829-1.934l-0.010 0.015c-0.391-0.075-0.846-0.122-1.311-0.131l-0.008-0c-1.794 0-2.656 1-5.6 1s-3.8-1-5.6-1c-4.631 0-8.394 3.762-8.394 8.4v2.6c0 1.657 1.343 3 3 3v0h18.025c-0.439-0.561-0.761-1.234-0.919-1.968l-0.006-0.032z"></path>
</svg>
