<!-- Generated by IcoMoon.io -->
<svg version="1.1" xmlns="http://www.w3.org/2000/svg" width="32" height="32" viewBox="0 0 32 32">
<title>user-alt</title>
<path d="M16 2c3.863 0 7 3.138 7 7s-3.137 7-7 7-7-3.137-7-7 3.137-7 7-7zM24 22c3.306 0 6 2.694 6 6v2h-28v-2c0-3.306 2.694-6 6-6 5.313 0 4.206 1 8 1 3.806 0 2.681-1 8-1zM16 0c-4.969 0-9 4.031-9 9s4.031 9 9 9 9-4.031 9-9-4.031-9-9-9zM24 20c-5.775 0-4.438 1-8 1-3.55 0-2.231-1-8-1-4.419 0-8 3.581-8 8v2c0 1.106 0.894 2 2 2h28c1.106 0 2-0.894 2-2v-2c0-4.419-3.581-8-8-8z"></path>
</svg>
