<!-- Generated by IcoMoon.io -->
<svg version="1.1" xmlns="http://www.w3.org/2000/svg" width="28" height="32" viewBox="0 0 28 32">
<title>user-cowboy-solid</title>
<path d="M27.404 6.112c-0.14-0.067-0.305-0.106-0.479-0.106-0.36 0-0.681 0.167-0.889 0.428l-0.002 0.002c-0.027 0.036-2.801 3.849-12.034 3.849-9.18-0.001-11.975-3.774-12.034-3.849-0.208-0.268-0.53-0.439-0.891-0.439-0.171 0-0.332 0.038-0.477 0.106l0.007-0.003c-0.485 0.221-0.719 0.74-0.549 1.215 0.022 0.063 1.541 4.125 5.946 6.669v0.014c0 4.418 3.582 8 8 8s8-3.582 8-8v0-0.014c4.403-2.549 5.922-6.611 5.944-6.669 0.168-0.471-0.064-0.981-0.541-1.204zM19.599 24h-1.043c-1.337 0.631-2.904 1-4.557 1s-3.22-0.369-4.623-1.028l0.067 0.028h-1.043c-3.539 0.001-6.564 2.2-7.784 5.306l-0.020 0.057c-0.492 1.274 0.533 2.637 1.9 2.637h23.007c1.367 0 2.392-1.363 1.9-2.637-1.24-3.162-4.265-5.361-7.804-5.363h-0zM21.406 7.098c-0.691-3.095-1.977-7.098-4.024-7.098-0.646 0-1.222 0.278-1.706 0.654-0.444 0.348-1.011 0.558-1.627 0.558s-1.183-0.21-1.633-0.563l0.006 0.004c-0.482-0.376-1.061-0.654-1.706-0.654-2.054 0-3.342 4.031-4.032 7.13 1.631 0.62 3.99 1.156 7.318 1.156 3.386 0 5.773-0.553 7.406-1.188z"></path>
</svg>
