<!-- Generated by IcoMoon.io -->
<svg version="1.1" xmlns="http://www.w3.org/2000/svg" width="40" height="32" viewBox="0 0 40 32">
<title>user-slash</title>
<path d="M39.813 30.325l-38.375-30.212c-0.212-0.175-0.531-0.138-0.7 0.075l-0.625 0.781c-0.175 0.219-0.138 0.531 0.075 0.706l38.375 30.219c0.212 0.175 0.531 0.137 0.7-0.075l0.625-0.781c0.175-0.225 0.138-0.538-0.075-0.712zM20 2c3.306 0 6 2.694 6 6 0 2.244-1.25 4.181-3.081 5.206l1.675 1.319c2.056-1.444 3.406-3.825 3.406-6.525 0-4.419-3.581-8-8-8-3.375 0-6.25 2.1-7.425 5.063l1.675 1.319c0.713-2.519 3.006-4.381 5.75-4.381zM31 30h-22c-0.55 0-1-0.45-1-1v-2.6c0-3.531 2.869-6.4 6.4-6.4 0.381 0 0.813 0.087 1.356 0.275 1.331 0.462 2.713 0.694 4.112 0.712l-3.225-2.538c-1.094-0.356-1.675-0.45-2.244-0.45-4.638 0-8.4 3.762-8.4 8.4v2.6c0 1.656 1.344 3 3 3h22c0.744 0 1.412-0.281 1.931-0.725l-1.688-1.325c-0.075 0.019-0.156 0.050-0.244 0.050z"></path>
</svg>
