<!-- Generated by IcoMoon.io -->
<svg version="1.1" xmlns="http://www.w3.org/2000/svg" width="28" height="32" viewBox="0 0 28 32">
<title>user-visor</title>
<path d="M6.157 9.553c0.749 3.701 3.976 6.447 7.843 6.447s7.094-2.747 7.835-6.396l0.009-0.051c0.68-0.447 1.157-1.18 1.157-2.053v-1c0-1.223-0.899-2.197-2.061-2.411-1.373-2.43-3.949-4.089-6.939-4.089s-5.565 1.659-6.939 4.089c-1.162 0.215-2.061 1.188-2.061 2.411v1c0 0.873 0.477 1.606 1.157 2.053zM14 14c-2.602 0-4.802-1.678-5.631-4h11.262c-0.829 2.322-3.029 4-5.631 4zM14 2c1.765 0 3.339 0.782 4.438 2h-8.876c1.099-1.218 2.673-2 4.438-2zM7 6.5c0.001-0.276 0.224-0.499 0.5-0.5h13c0.276 0.001 0.499 0.224 0.5 0.5v1c-0.001 0.276-0.224 0.499-0.5 0.5h-13c-0.276-0.001-0.499-0.224-0.5-0.5v-0zM20.18 22h-0.008c-0 0-0.001 0-0.001 0-0.075 0-0.143 0.034-0.188 0.087l-0 0c-1.238 1.437-1.988 3.318-2.23 5.594-0.001 0.008-0.001 0.017-0.001 0.027 0 0.138 0.112 0.25 0.25 0.25 0.058 0 0.112-0.020 0.154-0.053l-0.001 0c1.553-1.208 2.109-1.488 2.314-1.551 0.025-0.010 0.054-0.018 0.084-0.023l0.002-0c0.164 0.145 0.512 0.536 1.242 1.564 0.045 0.064 0.119 0.105 0.202 0.105 0 0 0.001 0 0.001 0h-0c0 0 0 0 0.001 0 0.028 0 0.056-0.005 0.081-0.013l-0.002 0.001c0.1-0.035 0.17-0.128 0.17-0.237 0-0.003-0-0.005-0-0.008v0c-0.072-2.208-0.705-4.106-1.879-5.644-0.045-0.058-0.113-0.096-0.191-0.099h-0zM19.6 18c-1.793 0-2.656 1-5.6 1s-3.801-1-5.6-1c-4.639 0.001-8.399 3.761-8.4 8.4v2.6c0 1.657 1.343 3 3 3h22c1.657-0 3-1.343 3-3v-2.6c-0.001-4.639-3.761-8.399-8.4-8.4h-0zM26 29c-0.001 0.552-0.448 0.999-1 1h-22c-0.552-0.001-0.999-0.448-1-1v-2.6c0.003-3.534 2.867-6.398 6.4-6.4h0c1.225 0 2.443 1 5.6 1 3.15 0 4.375-1 5.6-1 3.534 0.003 6.398 2.867 6.4 6.4v0z"></path>
</svg>
