<!-- Generated by IcoMoon.io -->
<svg version="1.1" xmlns="http://www.w3.org/2000/svg" width="40" height="32" viewBox="0 0 40 32">
<title>user-cog</title>
<path d="M39.269 22.394l-1.031-0.594c0.050-0.531 0.050-1.069 0-1.6l1.038-0.594c0.594-0.344 0.862-1.044 0.656-1.688-0.45-1.462-1.244-2.838-2.294-3.969-0.462-0.506-1.206-0.619-1.794-0.275l-1.031 0.594c-0.438-0.313-0.9-0.581-1.388-0.8v-1.188c0-0.688-0.469-1.269-1.138-1.419-1.494-0.338-3.081-0.338-4.575 0-0.669 0.15-1.137 0.738-1.137 1.419v1.188c-0.488 0.219-0.95 0.488-1.387 0.8l-1.031-0.594c-0.594-0.344-1.331-0.231-1.794 0.275-1.044 1.131-1.837 2.506-2.294 3.962-0.206 0.65 0.075 1.363 0.663 1.7l1.031 0.594c-0.050 0.531-0.050 1.069 0 1.6l-1.038 0.594c-0.581 0.337-0.863 1.056-0.656 1.694 0.45 1.462 1.244 2.837 2.294 3.969 0.462 0.5 1.2 0.613 1.794 0.275l1.031-0.594c0.438 0.313 0.9 0.581 1.387 0.8v1.188c0 0.688 0.469 1.269 1.137 1.419 0.75 0.169 1.519 0.25 2.288 0.25s1.544-0.081 2.287-0.25c0.669-0.15 1.138-0.738 1.138-1.419v-1.188c0.487-0.219 0.95-0.488 1.388-0.8l1.031 0.594c0.587 0.337 1.331 0.225 1.794-0.275 1.044-1.131 1.837-2.506 2.294-3.962 0.206-0.65-0.075-1.369-0.663-1.706zM36.044 22.844l1.837 1.063c-0.325 0.894-0.813 1.738-1.425 2.469l-1.837-1.063c-1.337 1.144-1.531 1.256-3.194 1.844v2.125c-0.944 0.163-1.913 0.163-2.85 0v-2.125c-1.681-0.594-1.887-0.731-3.194-1.844l-1.837 1.063c-0.613-0.738-1.1-1.575-1.425-2.469l1.837-1.063c-0.306-1.675-0.325-1.913 0-3.688l-1.837-1.063c0.325-0.894 0.813-1.731 1.425-2.469l1.837 1.063c1.337-1.144 1.531-1.256 3.194-1.844v-2.125c0.944-0.156 1.919-0.156 2.85 0v2.125c1.675 0.594 1.888 0.725 3.194 1.844l1.837-1.063c0.612 0.738 1.1 1.575 1.425 2.469l-1.837 1.063c0.306 1.675 0.325 1.913 0 3.688zM30 16.969c-2.225 0-4.031 1.813-4.031 4.031s1.806 4.031 4.031 4.031 4.031-1.813 4.031-4.031-1.806-4.031-4.031-4.031zM30 23.031c-1.119 0-2.031-0.913-2.031-2.031s0.913-2.031 2.031-2.031 2.031 0.913 2.031 2.031-0.913 2.031-2.031 2.031zM14 16c4.419 0 8-3.581 8-8s-3.581-8-8-8-8 3.581-8 8 3.581 8 8 8zM14 2c3.306 0 6 2.694 6 6s-2.694 6-6 6-6-2.694-6-6 2.694-6 6-6zM3 30c-0.55 0-1-0.45-1-1v-2.6c0-3.531 2.869-6.4 6.4-6.4 1.225 0 2.444 1 5.6 1 1.2 0 2.375-0.206 3.531-0.544 0.031-0.725 0.113-1.438 0.262-2.125-0.556 0.169-1.881 0.669-3.794 0.669-2.944 0-3.8-1-5.6-1-4.638 0-8.4 3.762-8.4 8.4v2.6c0 1.656 1.344 3 3 3h21.063c-1-0.538-1.913-1.219-2.719-2h-18.344z"></path>
</svg>
