<!-- Generated by IcoMoon.io -->
<svg version="1.1" xmlns="http://www.w3.org/2000/svg" width="32" height="32" viewBox="0 0 32 32">
<title>utensil-spoon</title>
<path d="M3.769 31.238l-3.006-3.006c-1.050-1.044-1.012-2.769 0.1-3.762l12.012-10.781c-1.394-3.325-0.662-6.987 2.2-9.856 3.881-3.881 10.969-5.456 14.756-1.669 3.794 3.794 2.206 10.887-1.669 14.756-2.863 2.869-6.525 3.606-9.85 2.206l-10.781 12.012c-0.994 1.106-2.713 1.156-3.763 0.1zM16.488 5.244c-2.856 2.856-2.781 5.787-1.15 8.919l-13.137 11.794c-0.256 0.225-0.262 0.619-0.025 0.863l3.006 3.006c0.244 0.244 0.638 0.225 0.862-0.025l11.794-13.144c3.094 1.613 6.044 1.731 8.919-1.15 3.081-3.088 4.625-8.981 1.669-11.938-2.837-2.831-8.688-1.575-11.938 1.675z"></path>
</svg>
