<!-- Generated by IcoMoon.io -->
<svg version="1.1" xmlns="http://www.w3.org/2000/svg" width="32" height="32" viewBox="0 0 32 32">
<title>utensil-fork-solid</title>
<path d="M29.344 7.463l-7.075 7.075c-0.238 0.106-0.919-0.594-0.806-0.806 1.2-1.344 6.581-7.369 6.706-7.506 0.881-1.206-1.194-3.281-2.4-2.4-0.144 0.125-6.169 5.506-7.506 6.706-0.212 0.113-0.913-0.569-0.806-0.806l7.075-7.075c0.962-1.212-1.169-3.313-2.344-2.456-0.275 0.194-5.537 3.925-7.262 5.644-2.613 2.612-3.1 5.881-1.794 8.694l-12.569 11.294c-0.725 0.656-0.756 1.781-0.063 2.469l3.206 3.206c0.688 0.688 1.819 0.656 2.469-0.069l11.281-12.575c2.813 1.306 6.075 0.831 8.694-1.794 1.725-1.725 5.456-6.988 5.65-7.262 0.856-1.169-1.244-3.294-2.456-2.338z"></path>
</svg>
