<!-- Generated by IcoMoon.io -->
<svg version="1.1" xmlns="http://www.w3.org/2000/svg" width="36" height="32" viewBox="0 0 36 32">
<title>utensils-alt-solid</title>
<path d="M3.362 0.537l14.95 13.881c1.8-1.594 1.125-1 3.025-2.681-1.337-2.269-1.075-4.694 1.006-6.775 1.363-1.356 5.925-4.588 6.169-4.763 1.006-0.738 2.35 0.719 1.55 1.637l-5.075 5.862c-0.081 0.094 0.188 0.375 0.294 0.287l6.056-4.925c0.944-0.769 2.369 0.638 1.594 1.594l-4.925 6.056c-0.081 0.1 0.194 0.375 0.288 0.287l5.863-5.075c0.919-0.794 2.375 0.544 1.638 1.556-0.175 0.25-3.406 4.806-4.762 6.162-2.137 2.144-4.594 2.306-6.781 1.012-1.663 1.881-0.906 1.019-2.563 2.894l9.669 8.975c0.831 0.769 0.856 2.081 0.050 2.881l-2 2c-0.8 0.8-2.1 0.775-2.875-0.044-1.194-1.413-12.537-14.781-13.031-15.363-10 0-13.5-5.631-13.5-13.994 0-1.744 2.081-2.656 3.362-1.469zM4.588 29.413l2 2c0.813 0.813 2.15 0.775 2.912-0.087l7.344-8.294-3.537-4.175-8.631 7.644c-0.862 0.769-0.906 2.1-0.088 2.913z"></path>
</svg>
