<!-- Generated by IcoMoon.io -->
<svg version="1.1" xmlns="http://www.w3.org/2000/svg" width="26" height="32" viewBox="0 0 26 32">
<title>utensils-solid</title>
<path d="M12.994 0.95c0.050 0.294 1.006 5.906 1.006 8.050 0 3.269-1.738 5.6-4.306 6.537l0.806 14.881c0.044 0.856-0.637 1.581-1.5 1.581h-4c-0.856 0-1.544-0.719-1.5-1.581l0.806-14.881c-2.575-0.938-4.306-3.275-4.306-6.537 0-2.15 0.956-7.756 1.006-8.050 0.2-1.269 2.831-1.288 2.994 0.069v8.825c0.081 0.213 0.944 0.2 1 0 0.088-1.581 0.494-8.7 0.5-8.863 0.206-1.3 2.794-1.3 2.994 0 0.012 0.169 0.412 7.281 0.5 8.863 0.056 0.2 0.925 0.213 1 0v-8.825c0.162-1.35 2.8-1.337 3-0.069zM20.444 18.806l-0.938 11.569c-0.075 0.875 0.619 1.625 1.494 1.625h3.5c0.831 0 1.5-0.669 1.5-1.5v-29c0-0.825-0.669-1.5-1.5-1.5-5.156 0-13.838 11.156-4.056 18.806z"></path>
</svg>
