<!-- Generated by IcoMoon.io -->
<svg version="1.1" xmlns="http://www.w3.org/2000/svg" width="30" height="32" viewBox="0 0 30 32">
<title>utensils</title>
<path d="M21.506 29.394l0.887-10.3c-2.631-2.069-4.4-4.813-4.4-8.094 0.006-5.894 5.512-11 9.506-11 1.381 0 2.5 1.081 2.5 2.406v27.188c0 1.325-1.119 2.406-2.5 2.406h-3.5c-1.425 0-2.613-1.169-2.494-2.606zM20 11c0 3.188 2.012 5.344 4.488 7.156l-0.988 11.413c-0.019 0.231 0.212 0.431 0.5 0.431h3.5c0.269 0 0.5-0.188 0.5-0.406v-27.188c0-0.219-0.231-0.406-0.5-0.406-2.788 0-7.5 4.112-7.5 9zM15.044 2.112c-0.206-1.219-1.325-2.112-2.881-2.112-0.744 0-1.506 0.212-2.081 0.7-0.525-0.444-1.25-0.7-2.081-0.7s-1.556 0.256-2.081 0.7c-0.575-0.487-1.337-0.7-2.081-0.7-1.575 0-2.675 0.906-2.881 2.112-0.113 0.587-0.956 5.287-0.956 7.256 0 3.181 1.669 5.725 4.438 6.919l-0.712 13.175c-0.075 1.375 1.019 2.538 2.4 2.538h3.75c1.375 0 2.475-1.156 2.4-2.538l-0.713-13.175c2.762-1.194 4.438-3.738 4.438-6.919 0-1.969-0.844-6.669-0.956-7.256zM9.519 15l0.762 14.569c0.012 0.231-0.169 0.431-0.406 0.431h-3.75c-0.231 0-0.419-0.194-0.406-0.431l0.763-14.569c-2.65-0.55-4.481-2.688-4.481-5.631 0-1.856 0.925-6.912 0.925-6.912 0.1-0.619 1.769-0.606 1.844 0.013v7.656c0.056 0.719 1.763 0.731 1.844 0.012l0.463-7.681c0.1-0.606 1.744-0.606 1.844 0l0.463 7.681c0.081 0.713 1.787 0.7 1.844-0.012v-7.65c0.075-0.619 1.744-0.631 1.844-0.013 0 0 0.925 5.056 0.925 6.913 0.006 2.925-1.813 5.075-4.475 5.625z"></path>
</svg>
