<!-- Generated by IcoMoon.io -->
<svg version="1.1" xmlns="http://www.w3.org/2000/svg" width="32" height="32" viewBox="0 0 32 32">
<title>utensil-fork</title>
<path d="M28.656 6.694c0.025-1.713-1.706-3.375-3.35-3.35 0.025-2.15-2.738-4.294-4.706-2.906-0.55 0.381-5.006 3.481-6.575 5.044-2.631 2.631-3.219 6.106-2 9.113l-11.213 10.094c-1.050 0.944-1.094 2.575-0.094 3.575l3.019 3.019c1.013 1.013 2.644 0.938 3.575-0.094l10.088-11.2c3.063 1.238 6.519 0.587 9.113-2 1.569-1.569 4.656-6.025 5.037-6.575 1.375-1.956-0.637-4.75-2.894-4.719zM29.919 10.256s-3.325 4.813-4.825 6.313c-2.381 2.381-5.575 2.619-8.15 0.925l-11.125 12.35c-0.175 0.2-0.481 0.206-0.669 0.019l-3.019-3.019c-0.188-0.188-0.181-0.494 0.019-0.669l12.35-11.125c-1.694-2.581-1.45-5.775 0.925-8.15 1.494-1.494 6.313-4.825 6.313-4.825 0.575-0.419 1.913 0.938 1.475 1.5l-6.162 6.163c-0.531 0.625 0.831 2.012 1.475 1.5l6.563-5.819c0.569-0.406 1.894 0.919 1.488 1.487l-5.819 6.562c-0.512 0.644 0.875 2.006 1.5 1.475l6.163-6.162c0.569-0.438 1.919 0.9 1.5 1.475z"></path>
</svg>
