<!-- Generated by IcoMoon.io -->
<svg version="1.1" xmlns="http://www.w3.org/2000/svg" width="32" height="32" viewBox="0 0 32 32">
<title>utensil-knife</title>
<path d="M4.556 31.15l-3.019-3.019c-1.1-1.1-1.15-2.85-0.081-3.919l23.438-23.438c1.056-1.056 2.819-1.025 3.919 0.081 1.3 1.288 2.5 3.8 2.5 7.644 0 6.425-4.225 14.112-14.494 12.825l-8.188 9.738c-1.037 1.231-2.919 1.244-4.075 0.087zM26.313 2.188l-23.438 23.438c-0.288 0.288-0.231 0.781 0.081 1.094l3.019 3.019c0.338 0.337 0.862 0.356 1.125 0.044l8.906-10.594c5.175 0.794 9.575-0.25 11.956-4.956 0.919-1.813 1.356-3.838 1.356-5.731 0-3-0.706-5.025-1.913-6.231-0.325-0.325-0.813-0.363-1.094-0.081z"></path>
</svg>
