<!-- Generated by IcoMoon.io -->
<svg version="1.1" xmlns="http://www.w3.org/2000/svg" width="36" height="32" viewBox="0 0 36 32">
<title>utensils-alt</title>
<path d="M0 3.75c0 8.931 4.362 13.488 11.787 14.156l-6.525 5.788c-1.612 1.431-1.688 3.938-0.162 5.456l1.75 1.75c1.537 1.537 4.037 1.444 5.456-0.163l5.819-6.569c6.019 7.094 5.587 6.587 5.644 6.644 1.431 1.525 3.869 1.606 5.387 0.087l1.75-1.75c1.506-1.506 1.45-3.956-0.1-5.4l-6.756-6.269 0.45-0.481c2.425 0.756 4.819 0.438 6.894-1.631 1.306-1.306 3.856-4.981 4.175-5.444 1.256-1.781-0.456-4.175-2.337-4.412-0.175-1.381-1.475-2.594-2.744-2.75-0.244-1.938-2.663-3.569-4.413-2.337-0.462 0.319-4.137 2.875-5.444 4.181-2.006 2.006-2.419 4.394-1.631 6.894l-0.7 0.644-12-11.137c-2.388-2.219-6.3-0.525-6.3 2.744zM23.731 14.825l-1.15 1.294-2.806-2.606 1.406-1.244c-1.175-2.063-0.962-4.419 0.869-6.25 1.219-1.225 5.175-3.956 5.175-3.956 0.475-0.344 1.569 0.769 1.212 1.231l-5.063 5.056c-0.438 0.512 0.681 1.65 1.212 1.231l5.381-4.775c0.462-0.338 1.556 0.75 1.219 1.219l-4.775 5.381c-0.413 0.531 0.719 1.656 1.238 1.219l5.056-5.056c0.462-0.362 1.575 0.738 1.231 1.213 0 0-2.731 3.95-3.956 5.181-1.85 1.838-4.206 2.025-6.25 0.863zM13.669 18.919l3.15 3.706-6.006 6.788c-0.669 0.75-1.831 0.794-2.55 0.075l-1.75-1.75c-0.713-0.712-0.675-1.881 0.075-2.55l7.081-6.269zM2 3.75c0-1.525 1.819-2.325 2.944-1.281l24.5 22.75c0.725 0.675 0.75 1.819 0.044 2.519l-1.75 1.75c-0.7 0.7-1.837 0.681-2.512-0.038l-11.412-13.45c-8.75 0-11.813-4.925-11.813-12.25z"></path>
</svg>
