<!-- Generated by IcoMoon.io -->
<svg version="1.1" xmlns="http://www.w3.org/2000/svg" width="40" height="32" viewBox="0 0 40 32">
<title>vacuum</title>
<path d="M22 25c-0.552 0-1 0.448-1 1s0.448 1 1 1c0.552 0 1-0.448 1-1v0c0-0.552-0.448-1-1-1v0zM40 7c-0.005-3.864-3.136-6.995-7-7h-14.115c-3.36 0.011-6.164 2.378-6.845 5.536l-0.008 0.046-4.224 20.418h-2.807c-2.761 0-5 2.239-5 5v0c0 0.552 0.448 1 1 1v0h12c0.552 0 1-0.448 1-1v0-4c0-0.552-0.448-1-1-1v0h-3.152l4.14-20.014c0.494-2.288 2.497-3.978 4.896-3.986h14.116c2.761 0 5 2.239 5 5s-2.239 5-5 5v0h-2.074c-2.199-2.459-5.382-4-8.924-4-0.001 0-0.001 0-0.002 0h0c-1.105 0-2 0.895-2 2v0 10.369c-2.323 0.828-4 3.027-4 5.631 0.004 3.312 2.688 5.996 6 6h8c2.209 0 4-1.791 4-4v0-8c0-0 0-0.001 0-0.001 0-2.21-0.601-4.28-1.649-6.054l0.030 0.056h0.619c3.864-0.005 6.995-3.136 7-7v-0zM12 28v2h-9.829c0.426-1.174 1.531-1.998 2.829-2h0zM22 30c-2.209 0-4-1.791-4-4s1.791-4 4-4c2.209 0 4 1.791 4 4v0c-0.003 2.208-1.792 3.997-4 4h-0zM32 28c0 1.105-0.895 2-2 2v0h-3.563c0.968-1.058 1.561-2.473 1.561-4.026 0-3.299-2.675-5.974-5.974-5.974-0.009 0-0.017 0-0.026 0h0.001v-10c5.514 0 10 4.486 10 10z"></path>
</svg>
