<!-- Generated by IcoMoon.io -->
<svg version="1.1" xmlns="http://www.w3.org/2000/svg" width="32" height="32" viewBox="0 0 32 32">
<title>vacuum-robot-solid</title>
<path d="M26.96 5.040c-6.053-6.053-15.867-6.053-21.92 0s-6.053 15.867 0 21.92 15.867 6.053 21.92 0 6.053-15.867 0-21.92zM12.464 25.192c-0.181 0.181-0.431 0.293-0.707 0.293s-0.526-0.112-0.707-0.293l-4.242-4.242c-0.181-0.181-0.293-0.431-0.293-0.707 0-0.552 0.448-1 1-1 0.276 0 0.526 0.112 0.707 0.293v0l4.242 4.242c0.181 0.181 0.293 0.431 0.293 0.707s-0.112 0.526-0.293 0.707v0zM16.707 23.778c-0.181 0.181-0.431 0.293-0.707 0.293s-0.526-0.112-0.707-0.293l-7.071-7.071c-0.175-0.18-0.282-0.426-0.282-0.697 0-0.552 0.448-1 1-1 0.271 0 0.517 0.108 0.697 0.283l7.070 7.070c0.181 0.181 0.293 0.431 0.293 0.707s-0.112 0.526-0.293 0.707v0zM18.121 19.536c-0.181 0.181-0.431 0.293-0.707 0.293s-0.526-0.112-0.707-0.293l-4.242-4.242c-0.181-0.181-0.293-0.431-0.293-0.707 0-0.552 0.448-1 1-1 0.276 0 0.526 0.112 0.707 0.293l4.242 4.242c0.181 0.181 0.293 0.431 0.293 0.707s-0.112 0.526-0.293 0.707v0zM23.778 23.778c-0.179 0.17-0.422 0.275-0.689 0.275-0.552 0-1-0.448-1-1 0-0.267 0.105-0.51 0.275-0.689l-0 0c3.509-3.51 3.509-9.219 0-12.729s-9.219-3.509-12.729 0c-0.179 0.17-0.422 0.275-0.689 0.275-0.552 0-1-0.448-1-1 0-0.267 0.105-0.51 0.275-0.689l-0 0c4.289-4.289 11.268-4.289 15.556 0s4.289 11.268 0 15.556z"></path>
</svg>
