<!-- Generated by IcoMoon.io -->
<svg version="1.1" xmlns="http://www.w3.org/2000/svg" width="40" height="32" viewBox="0 0 40 32">
<title>vacuum-solid</title>
<path d="M8.954 16l-2.572 12h-3.382c-1.657 0-3 1.343-3 3v0c0 0.552 0.448 1 1 1v0h10c0.552 0 1-0.448 1-1v0-2c0-0.552-0.448-1-1-1v0h-0.526l2.571-12zM40 8c-0.005-4.416-3.584-7.995-8-8h-13.15c-3.748 0-7.038 2.66-7.823 6.324l-1.645 7.676h4.092l1.463-6.838c0.407-1.816 2.003-3.155 3.912-3.162h13.15c2.202 0.009 3.984 1.796 3.984 4 0 1.905-1.332 3.499-3.115 3.902l-0.027 0.005c-2.195-2.404-5.342-3.907-8.84-3.907-0.001 0-0.001 0-0.002 0h0c-1.105 0-2 0.895-2 2v0 10.101c0.294-0.055 0.639-0.091 0.99-0.101l0.010-0c0.003 0 0.007 0 0.011 0 3.86 0 6.989 3.129 6.989 6.989 0 1.964-0.81 3.739-2.115 5.009l-0.002 0.002h4.116c2.209 0 4-1.791 4-4v0-8c0-0.005 0-0.010 0-0.016 0-1.679-0.346-3.277-0.971-4.727l0.030 0.078c2.889-1.203 4.941-4.014 4.941-7.334zM23 22c-2.761 0-5 2.239-5 5s2.239 5 5 5c2.761 0 5-2.239 5-5v0c0-2.761-2.239-5-5-5v0zM23 28c-0.552 0-1-0.448-1-1s0.448-1 1-1c0.552 0 1 0.448 1 1v0c0 0.552-0.448 1-1 1v0z"></path>
</svg>
