<!-- Generated by IcoMoon.io -->
<svg version="1.1" xmlns="http://www.w3.org/2000/svg" width="32" height="32" viewBox="0 0 32 32">
<title>vacuum-robot</title>
<path d="M26.96 5.040c-2.805-2.805-6.68-4.54-10.96-4.54s-8.155 1.735-10.96 4.54v0c-6.053 6.053-6.053 15.867 0 21.92 2.805 2.805 6.68 4.54 10.96 4.54s8.155-1.735 10.96-4.54v0c6.053-6.053 6.053-15.867 0-21.92zM25.546 25.546c-2.443 2.443-5.818 3.954-9.546 3.954s-7.103-1.511-9.546-3.954v0c-5.263-5.263-5.263-13.828 0-19.092 2.443-2.443 5.818-3.954 9.546-3.954s7.103 1.511 9.546 3.954v0c5.266 5.264 5.266 13.829 0 19.092zM8.758 19c-0.181-0.181-0.431-0.293-0.707-0.293-0.552 0-1 0.448-1 1 0 0.276 0.112 0.526 0.293 0.707l4.242 4.242c0.181 0.181 0.431 0.293 0.707 0.293 0.552 0 1-0.448 1-1 0-0.276-0.112-0.526-0.293-0.707v0zM10.171 14.758c-0.179-0.17-0.422-0.275-0.689-0.275-0.552 0-1 0.448-1 1 0 0.267 0.105 0.51 0.275 0.689l7.070 7.071c0.181 0.181 0.431 0.293 0.707 0.293 0.552 0 1-0.448 1-1 0-0.276-0.112-0.526-0.293-0.707v0zM14.414 13.343c-0.181-0.181-0.431-0.293-0.707-0.293-0.552 0-1 0.448-1 1 0 0.276 0.112 0.526 0.293 0.707l4.242 4.242c0.181 0.181 0.431 0.293 0.707 0.293 0.552 0 1-0.448 1-1 0-0.276-0.112-0.526-0.293-0.707v0zM23.778 8.222c-4.289-4.289-11.268-4.289-15.556 0-0.17 0.179-0.275 0.422-0.275 0.689 0 0.552 0.448 1 1 1 0.267 0 0.51-0.105 0.689-0.275l-0 0c3.51-3.509 9.219-3.509 12.729 0s3.509 9.219 0 12.729c-0.192 0.183-0.311 0.44-0.311 0.725 0 0.552 0.448 1 1 1 0.285 0 0.542-0.119 0.725-0.311l0-0c4.289-4.289 4.289-11.268 0-15.556z"></path>
</svg>
