<!-- Generated by IcoMoon.io -->
<svg version="1.1" xmlns="http://www.w3.org/2000/svg" width="28" height="32" viewBox="0 0 28 32">
<title>value-absolute</title>
<path d="M1.5 2h-1c-0.275 0-0.5 0.225-0.5 0.5v27c0 0.275 0.225 0.5 0.5 0.5h1c0.275 0 0.5-0.225 0.5-0.5v-27c0-0.275-0.225-0.5-0.5-0.5zM27.5 2h-1c-0.275 0-0.5 0.225-0.5 0.5v27c0 0.275 0.225 0.5 0.5 0.5h1c0.275 0 0.5-0.225 0.5-0.5v-27c0-0.275-0.225-0.5-0.5-0.5zM20.356 10.35l-0.706-0.706c-0.194-0.194-0.512-0.194-0.706 0l-4.938 4.938-4.938-4.938c-0.194-0.194-0.512-0.194-0.706 0l-0.706 0.706c-0.194 0.194-0.194 0.512 0 0.706l4.937 4.938-4.938 4.937c-0.194 0.194-0.194 0.512 0 0.706l0.706 0.706c0.194 0.194 0.512 0.194 0.706 0l4.938-4.938 4.938 4.938c0.194 0.194 0.512 0.194 0.706 0l0.706-0.706c0.194-0.194 0.194-0.512 0-0.706l-4.938-4.938 4.938-4.938c0.194-0.194 0.194-0.506 0-0.706z"></path>
</svg>
