<!-- Generated by IcoMoon.io -->
<svg version="1.1" xmlns="http://www.w3.org/2000/svg" width="32" height="32" viewBox="0 0 32 32">
<title>value-absolute-solid</title>
<path d="M3 2h-2c-0.552 0-1 0.447-1 1v26c0 0.552 0.448 1 1 1h2c0.553 0 1-0.448 1-1v-26c0-0.553-0.447-1-1-1zM31 2h-2c-0.552 0-1 0.447-1 1v26c0 0.552 0.448 1 1 1h2c0.552 0 1-0.448 1-1v-26c0-0.553-0.448-1-1-1zM23.581 9.429l-1.011-1.011c-0.558-0.558-1.463-0.558-2.022 0l-4.549 4.549-4.549-4.549c-0.558-0.558-1.463-0.558-2.022 0l-1.011 1.011c-0.558 0.558-0.558 1.463 0 2.022l4.549 4.549-4.549 4.549c-0.558 0.558-0.558 1.463 0 2.022l1.011 1.011c0.558 0.558 1.463 0.558 2.022 0l4.549-4.549 4.549 4.549c0.558 0.558 1.463 0.558 2.022 0l1.011-1.011c0.558-0.558 0.558-1.463 0-2.022l-4.549-4.549 4.549-4.549c0.558-0.558 0.558-1.464 0-2.022z"></path>
</svg>
