<!-- Generated by IcoMoon.io -->
<svg version="1.1" xmlns="http://www.w3.org/2000/svg" width="32" height="32" viewBox="0 0 32 32">
<title>vector-square</title>
<path d="M30.4 8c0.884 0 1.6-0.716 1.6-1.6v-4.8c0-0.884-0.716-1.6-1.6-1.6h-4.8c-0.884 0-1.6 0.716-1.6 1.6v1.4h-16v-1.4c0-0.884-0.716-1.6-1.6-1.6h-4.8c-0.884 0-1.6 0.716-1.6 1.6v4.8c0 0.884 0.716 1.6 1.6 1.6h1.4v16h-1.4c-0.884 0-1.6 0.716-1.6 1.6v4.8c0 0.884 0.716 1.6 1.6 1.6h4.8c0.884 0 1.6-0.716 1.6-1.6v-1.4h16v1.4c0 0.884 0.716 1.6 1.6 1.6h4.8c0.884 0 1.6-0.716 1.6-1.6v-4.8c0-0.884-0.716-1.6-1.6-1.6h-1.4v-16h1.4zM26 2h4v4h-4v-4zM2 6v-4h4v4h-4zM6 30h-4v-4h4v4zM30 26v4h-4v-4h4zM27 24h-1.4c-0.884 0-1.6 0.716-1.6 1.6v1.4h-16v-1.4c0-0.884-0.716-1.6-1.6-1.6h-1.4v-16h1.4c0.884 0 1.6-0.716 1.6-1.6v-1.4h16v1.4c0 0.884 0.716 1.6 1.6 1.6h1.4v16z"></path>
</svg>
