<!-- Generated by IcoMoon.io -->
<svg version="1.1" xmlns="http://www.w3.org/2000/svg" width="32" height="32" viewBox="0 0 32 32">
<title>vector-square-solid</title>
<path d="M32 8v-6c0-1.104-0.896-2-2-2h-6c-1.104 0-2 0.896-2 2h-12c0-1.104-0.896-2-2-2h-6c-1.104 0-2 0.896-2 2v6c0 1.104 0.896 2 2 2v12c-1.104 0-2 0.896-2 2v6c0 1.104 0.896 2 2 2h6c1.104 0 2-0.896 2-2h12c0 1.104 0.896 2 2 2h6c1.104 0 2-0.896 2-2v-6c0-1.104-0.896-2-2-2v-12c1.104 0 2-0.896 2-2zM26 4h2v2h-2v-2zM4 4h2v2h-2v-2zM6 28h-2v-2h2v2zM28 28h-2v-2h2v2zM26 22h-2c-1.104 0-2 0.896-2 2v2h-12v-2c0-1.104-0.896-2-2-2h-2v-12h2c1.104 0 2-0.896 2-2v-2h12v2c0 1.104 0.896 2 2 2h2v12z"></path>
</svg>
