<!-- Generated by IcoMoon.io -->
<svg version="1.1" xmlns="http://www.w3.org/2000/svg" width="18" height="32" viewBox="0 0 18 32">
<title>venus-solid</title>
<path d="M18 11c0-4.969-4.031-9-9-9s-9 4.031-9 9c0 4.281 2.994 7.869 7 8.775v3.225h-2.25c-0.412 0-0.75 0.337-0.75 0.75v2.5c0 0.413 0.338 0.75 0.75 0.75h2.25v2.25c0 0.413 0.338 0.75 0.75 0.75h2.5c0.412 0 0.75-0.337 0.75-0.75v-2.25h2.25c0.412 0 0.75-0.337 0.75-0.75v-2.5c0-0.413-0.338-0.75-0.75-0.75h-2.25v-3.225c4.006-0.906 7-4.494 7-8.775zM4 11c0-2.756 2.244-5 5-5s5 2.244 5 5-2.244 5-5 5-5-2.244-5-5z"></path>
</svg>
