<!-- Generated by IcoMoon.io -->
<svg version="1.1" xmlns="http://www.w3.org/2000/svg" width="32" height="32" viewBox="0 0 32 32">
<title>venus-double</title>
<path d="M18 11c0-4.969-4.031-9-9-9s-9 4.031-9 9c0 4.631 3.5 8.45 8 8.944v4.056h-3.25c-0.412 0-0.75 0.337-0.75 0.75v0.5c0 0.413 0.338 0.75 0.75 0.75h3.25v3.25c0 0.413 0.338 0.75 0.75 0.75h0.5c0.412 0 0.75-0.337 0.75-0.75v-3.25h3.25c0.412 0 0.75-0.337 0.75-0.75v-0.5c0-0.413-0.338-0.75-0.75-0.75h-3.25v-4.056c4.5-0.494 8-4.313 8-8.944zM2 11c0-3.869 3.125-7 7-7 3.869 0 7 3.125 7 7 0 3.869-3.125 7-7 7-3.869 0-7-3.125-7-7zM24 19.944v4.056h3.25c0.413 0 0.75 0.337 0.75 0.75v0.5c0 0.413-0.337 0.75-0.75 0.75h-3.25v3.25c0 0.413-0.337 0.75-0.75 0.75h-0.5c-0.413 0-0.75-0.337-0.75-0.75v-3.25h-3.25c-0.413 0-0.75-0.337-0.75-0.75v-0.5c0-0.413 0.337-0.75 0.75-0.75h3.25v-4.056c-1.712-0.188-3.288-0.863-4.575-1.875 0.431-0.512 0.813-1.063 1.144-1.644 1.244 1.019 2.794 1.575 4.425 1.575 3.875 0 7-3.131 7-7 0-3.875-3.131-7-7-7-1.631 0-3.181 0.556-4.425 1.575-0.331-0.581-0.712-1.138-1.144-1.644 1.538-1.206 3.469-1.931 5.575-1.931 4.969 0 9 4.031 9 9 0 4.631-3.5 8.45-8 8.944z"></path>
</svg>
