<!-- Generated by IcoMoon.io -->
<svg version="1.1" xmlns="http://www.w3.org/2000/svg" width="36" height="32" viewBox="0 0 36 32">
<title>venus-mars-solid</title>
<path d="M35.25 0h-4.938c-0.669 0-1 0.806-0.531 1.281l1.056 1.056-3.044 3.044c-1.387-0.875-3.031-1.381-4.794-1.381-2.106 0-4.038 0.725-5.575 1.931 0.875 1.044 1.563 2.25 2.006 3.569 0.906-0.925 2.169-1.5 3.569-1.5 2.756 0 5 2.244 5 5s-2.244 5-5 5c-1.394 0-2.663-0.575-3.569-1.5-0.444 1.319-1.125 2.525-2.006 3.569 1.531 1.212 3.469 1.931 5.575 1.931 4.969 0 9-4.031 9-9 0-1.762-0.506-3.406-1.381-4.794l3.044-3.044 1.056 1.056c0.15 0.15 0.337 0.219 0.525 0.219 0.388 0 0.756-0.3 0.756-0.75v-4.938c0-0.412-0.337-0.75-0.75-0.75zM9 4c-4.969 0-9 4.031-9 9 0 4.281 2.994 7.869 7 8.775v3.225h-2.25c-0.412 0-0.75 0.337-0.75 0.75v2.5c0 0.413 0.338 0.75 0.75 0.75h2.25v2.25c0 0.413 0.338 0.75 0.75 0.75h2.5c0.412 0 0.75-0.337 0.75-0.75v-2.25h2.25c0.412 0 0.75-0.337 0.75-0.75v-2.5c0-0.413-0.338-0.75-0.75-0.75h-2.25v-3.225c4.006-0.913 7-4.494 7-8.775 0-4.969-4.031-9-9-9zM9 18c-2.756 0-5-2.244-5-5s2.244-5 5-5 5 2.244 5 5-2.244 5-5 5z"></path>
</svg>
