<!-- Generated by IcoMoon.io -->
<svg version="1.1" xmlns="http://www.w3.org/2000/svg" width="36" height="32" viewBox="0 0 36 32">
<title>venus-mars</title>
<path d="M18 13c0-4.969-4.031-9-9-9s-9 4.031-9 9c0 4.631 3.5 8.45 8 8.944v4.056h-3.25c-0.412 0-0.75 0.337-0.75 0.75v0.5c0 0.413 0.338 0.75 0.75 0.75h3.25v3.25c0 0.413 0.338 0.75 0.75 0.75h0.5c0.412 0 0.75-0.337 0.75-0.75v-3.25h3.25c0.412 0 0.75-0.337 0.75-0.75v-0.5c0-0.413-0.338-0.75-0.75-0.75h-3.25v-4.056c4.5-0.494 8-4.313 8-8.944zM2 13c0-3.869 3.125-7 7-7 3.869 0 7 3.125 7 7 0 3.869-3.125 7-7 7-3.869 0-7-3.125-7-7zM36 0.75v5.5c0 0.412-0.337 0.75-0.75 0.75h-0.5c-0.413 0-0.75-0.338-0.75-0.75v-2.837l-3.969 3.969c1.231 1.544 1.969 3.494 1.969 5.619 0 4.969-4.031 9-9 9-2.106 0-4.038-0.725-5.575-1.931 0.431-0.512 0.813-1.063 1.144-1.644 1.244 1.019 2.794 1.575 4.425 1.575 3.875 0 7-3.131 7-7 0-3.875-3.131-7-7-7-1.631 0-3.181 0.556-4.425 1.575-0.331-0.581-0.712-1.138-1.144-1.644 1.538-1.206 3.469-1.931 5.575-1.931 2.125 0 4.075 0.737 5.619 1.969l3.969-3.969h-2.837c-0.413 0-0.75-0.337-0.75-0.75v-0.5c0-0.412 0.337-0.75 0.75-0.75h5.5c0.413 0 0.75 0.338 0.75 0.75z"></path>
</svg>
