<!-- Generated by IcoMoon.io -->
<svg version="1.1" xmlns="http://www.w3.org/2000/svg" width="18" height="32" viewBox="0 0 18 32">
<title>venus</title>
<path d="M18 11c0-4.969-4.031-9-9-9s-9 4.031-9 9c0 4.631 3.5 8.45 8 8.944v4.056h-3.25c-0.412 0-0.75 0.337-0.75 0.75v0.5c0 0.413 0.338 0.75 0.75 0.75h3.25v3.25c0 0.413 0.338 0.75 0.75 0.75h0.5c0.412 0 0.75-0.337 0.75-0.75v-3.25h3.25c0.412 0 0.75-0.337 0.75-0.75v-0.5c0-0.413-0.338-0.75-0.75-0.75h-3.25v-4.056c4.5-0.494 8-4.313 8-8.944zM2 11c0-3.869 3.125-7 7-7 3.869 0 7 3.125 7 7 0 3.869-3.125 7-7 7-3.869 0-7-3.125-7-7z"></path>
</svg>
