<!-- Generated by IcoMoon.io -->
<svg version="1.1" xmlns="http://www.w3.org/2000/svg" width="32" height="32" viewBox="0 0 32 32">
<title>venus-double-solid</title>
<path d="M18 11c0-4.969-4.031-9-9-9s-9 4.031-9 9c0 4.281 2.994 7.869 7 8.775v3.225h-2.25c-0.412 0-0.75 0.337-0.75 0.75v2.5c0 0.413 0.338 0.75 0.75 0.75h2.25v2.25c0 0.413 0.338 0.75 0.75 0.75h2.5c0.412 0 0.75-0.337 0.75-0.75v-2.25h2.25c0.412 0 0.75-0.337 0.75-0.75v-2.5c0-0.413-0.338-0.75-0.75-0.75h-2.25v-3.225c4.006-0.906 7-4.494 7-8.775zM4 11c0-2.756 2.244-5 5-5s5 2.244 5 5-2.244 5-5 5-5-2.244-5-5zM25 19.775v3.225h2.25c0.413 0 0.75 0.337 0.75 0.75v2.5c0 0.413-0.337 0.75-0.75 0.75h-2.25v2.25c0 0.413-0.337 0.75-0.75 0.75h-2.5c-0.413 0-0.75-0.337-0.75-0.75v-2.25h-2.25c-0.413 0-0.75-0.337-0.75-0.75v-2.5c0-0.413 0.337-0.75 0.75-0.75h2.25v-3.225c-1.325-0.3-2.538-0.894-3.575-1.706 0.875-1.044 1.563-2.25 2.006-3.569 0.906 0.925 2.169 1.5 3.569 1.5 2.756 0 5-2.244 5-5s-2.244-5-5-5c-1.394 0-2.663 0.575-3.569 1.5-0.444-1.319-1.125-2.525-2.006-3.569 1.538-1.206 3.469-1.931 5.575-1.931 4.969 0 9 4.031 9 9 0 4.281-2.994 7.869-7 8.775z"></path>
</svg>
