<!-- Generated by IcoMoon.io -->
<svg version="1.1" xmlns="http://www.w3.org/2000/svg" width="28" height="32" viewBox="0 0 28 32">
<title>vest-solid</title>
<path d="M27.328 14.992l-3.328-4.992v-8c0-1.105-0.895-2-2-2v0h-2c-0.31 0-0.598 0.094-0.837 0.255l0.005-0.003-1.563 1.042c-1.013 0.685-2.261 1.094-3.605 1.094s-2.593-0.409-3.628-1.109l0.023 0.015-1.563-1.042c-0.234-0.158-0.522-0.252-0.832-0.252h-2c-1.105 0-2 0.895-2 2v0 8l-3.328 4.992c-0.421 0.623-0.672 1.392-0.672 2.219 0 0 0 0 0 0v0 12.789c0 1.105 0.895 2 2 2v0h10v-14c0-0.226 0.038-0.444 0.107-0.646l-0.004 0.014 0.843-2.53-3.559-10.677c1.327 0.765 2.916 1.22 4.61 1.229h0.003c1.697-0.010 3.287-0.465 4.659-1.254l-0.046 0.024-4.613 13.84v14h12c1.105 0 2-0.895 2-2v0-12.789c0 0 0 0 0-0 0-0.827-0.251-1.595-0.681-2.233l0.009 0.014zM8.207 23.207l-3 3c-0.18 0.174-0.425 0.281-0.695 0.281-0.552 0-1-0.448-1-1 0-0.27 0.107-0.515 0.281-0.695l3-3c0.18-0.174 0.425-0.281 0.695-0.281 0.552 0 1 0.448 1 1 0 0.27-0.107 0.515-0.281 0.695l0-0zM24.207 26.207c-0.181 0.181-0.431 0.293-0.707 0.293s-0.526-0.112-0.707-0.293l-3-3c-0.174-0.18-0.281-0.425-0.281-0.695 0-0.552 0.448-1 1-1 0.27 0 0.515 0.107 0.695 0.281l3 3c0.181 0.181 0.293 0.431 0.293 0.707s-0.112 0.526-0.293 0.707v0z"></path>
</svg>
