<!-- Generated by IcoMoon.io -->
<svg version="1.1" xmlns="http://www.w3.org/2000/svg" width="28" height="32" viewBox="0 0 28 32">
<title>vest-patches-solid</title>
<path d="M27.328 14.992l-3.328-4.992v-8c0-1.105-0.895-2-2-2v0h-2c-0 0-0 0-0 0-0.31 0-0.598 0.094-0.837 0.255l0.005-0.003-1.563 1.042c-1.013 0.685-2.261 1.094-3.605 1.094s-2.593-0.409-3.628-1.109l0.023 0.015-1.563-1.042c-0.234-0.158-0.522-0.252-0.832-0.252-0 0-0 0-0 0h-2c-1.105 0-2 0.895-2 2v0 8l-3.328 4.992c-0.421 0.623-0.672 1.392-0.672 2.219 0 0 0 0 0 0v0 12.789c0 1.105 0.895 2 2 2v0h10v-14c0-0.226 0.038-0.444 0.107-0.646l-0.004 0.014 0.843-2.53-3.559-10.677c1.327 0.765 2.916 1.22 4.61 1.23h0.003c1.697-0.010 3.287-0.465 4.659-1.254l-0.046 0.024-4.613 13.84v14h12c1.105 0 2-0.895 2-2v0-12.789c0 0 0 0 0-0 0-0.827-0.251-1.595-0.681-2.233l0.009 0.014zM3.969 17.030c-0.133-0.135-0.215-0.321-0.215-0.525 0-0.415 0.336-0.751 0.751-0.751 0.205 0 0.391 0.082 0.527 0.216l0.969 0.969 0.969-0.969c0.135-0.133 0.321-0.216 0.526-0.216 0.415 0 0.751 0.336 0.751 0.751 0 0.205-0.082 0.39-0.215 0.526l-0.97 0.97 0.97 0.97c0.133 0.135 0.215 0.321 0.215 0.525 0 0.415-0.336 0.751-0.751 0.751-0.205 0-0.391-0.082-0.527-0.216l-0.969-0.969-0.969 0.969c-0.135 0.133-0.321 0.216-0.526 0.216-0.415 0-0.751-0.336-0.751-0.751 0-0.205 0.082-0.39 0.215-0.526l0.97-0.97zM6 28.5c-1.381 0-2.5-1.119-2.5-2.5s1.119-2.5 2.5-2.5c1.381 0 2.5 1.119 2.5 2.5v0c0 1.381-1.119 2.5-2.5 2.5v0zM22.452 20.987l-3.033 0.013c-0.001 0-0.001 0-0.002 0-0.23 0-0.417-0.187-0.417-0.417 0-0.001 0-0.001 0-0.002v0l0.013-3.036c0.009-0.855 0.705-1.545 1.562-1.545 0.049 0 0.098 0.002 0.145 0.007l-0.006-0c0.799 0.073 1.383 0.789 1.378 1.589l-0.002 0.316 0.316-0.002c0.802-0.002 1.515 0.58 1.587 1.38 0.004 0.042 0.006 0.090 0.006 0.139 0 0.857-0.692 1.553-1.548 1.559h-0.001z"></path>
</svg>
