<!-- Generated by IcoMoon.io -->
<svg version="1.1" xmlns="http://www.w3.org/2000/svg" width="28" height="32" viewBox="0 0 28 32">
<title>vest</title>
<path d="M3.793 24.793c-0.188 0.182-0.305 0.437-0.305 0.719 0 0.552 0.448 1 1 1 0.282 0 0.537-0.117 0.719-0.305l3-3c0.174-0.18 0.281-0.425 0.281-0.695 0-0.552-0.448-1-1-1-0.27 0-0.515 0.107-0.695 0.281l0-0zM27.16 14.438l-3.16-4.74v-6.697c-0.002-1.656-1.344-2.998-3-3h-1c-0.207 0-0.399 0.063-0.558 0.171l0.004-0.002-0.001 0.001-0.001 0.001-1.56 1.040c-1.090 0.739-2.435 1.179-3.883 1.179s-2.792-0.441-3.907-1.195l0.025 0.016-1.563-1.042-0.005 0.007c-0.154-0.107-0.344-0.172-0.549-0.175h-1.001c-1.656 0.002-2.998 1.344-3 3v6.697l-3.16 4.74c-0.526 0.777-0.84 1.735-0.84 2.767 0 0.002 0 0.005 0 0.007v-0 11.789c0.002 1.656 1.344 2.998 3 3h22c1.656-0.002 2.998-1.344 3-3v-11.789c0-0.002 0-0.004 0-0.007 0-1.031-0.314-1.99-0.851-2.784l0.011 0.018zM12.075 17.619c-0.047 0.112-0.075 0.243-0.075 0.38 0 0 0 0.001 0 0.001v-0 12h-9c-0.552-0-1-0.448-1-1v-11.789c0-0.001 0-0.003 0-0.005 0-0.619 0.188-1.193 0.511-1.67l-0.007 0.011 3.328-4.992c0.105-0.156 0.168-0.348 0.168-0.555v-7c0-0.552 0.448-1 1-1h0.292l5.176 14.665zM9.9 3.377c1.19 0.632 2.601 1.006 4.098 1.012h0.002c1.416-0.002 2.754-0.332 3.944-0.918l-0.053 0.023-4.28 10.395zM26 29c-0 0.552-0.448 1-1 1h-11v-11.802l6.67-16.198h0.33c0.552 0 1 0.448 1 1v7c0 0.207 0.063 0.399 0.17 0.558l-0.002-0.004 3.328 4.992c0.316 0.466 0.504 1.041 0.504 1.66 0 0.002 0 0.003 0 0.005v-0zM21.207 21.793c-0.18-0.174-0.425-0.281-0.695-0.281-0.552 0-1 0.448-1 1 0 0.27 0.107 0.515 0.281 0.695l3 3c0.18 0.174 0.425 0.281 0.695 0.281 0.552 0 1-0.448 1-1 0-0.27-0.107-0.515-0.281-0.695l0 0z"></path>
</svg>
