<!-- Generated by IcoMoon.io -->
<svg version="1.1" xmlns="http://www.w3.org/2000/svg" width="28" height="32" viewBox="0 0 28 32">
<title>vest-patches</title>
<path d="M22.023 17.981c-0.25-1.053-1.135-1.872-2.219-1.971-0.074-0.008-0.159-0.012-0.246-0.012-0.657 0-1.255 0.252-1.703 0.664l0.002-0.002c-0.512 0.467-0.835 1.134-0.844 1.877v0.002l-0.014 3.032c-0 0.004-0 0.008-0 0.012 0 0.782 0.634 1.416 1.416 1.416 0 0 0 0 0.001 0h0.006l3.037-0.014c1.406-0.010 2.541-1.152 2.541-2.559 0-0.080-0.004-0.16-0.011-0.238l0.001 0.010c-0.098-1.083-0.916-1.967-1.967-2.218zM21.857 20.801c-0.102 0.113-0.247 0.183-0.41 0.186h-0l-2.445 0.011 0.012-2.441c0.003-0.306 0.252-0.554 0.558-0.555h0c0.019 0 0.037 0.001 0.055 0.003l-0.002-0c0.26 0.023 0.471 0.287 0.469 0.579l-0.016 1.335 1.334-0.008c0.301 0 0.563 0.21 0.586 0.469 0.002 0.016 0.003 0.035 0.003 0.053 0 0.142-0.054 0.272-0.144 0.37l0-0zM7 22c-1.657 0-3 1.343-3 3s1.343 3 3 3c1.657 0 3-1.343 3-3v0c0-1.657-1.343-3-3-3v0zM7 26c-0.552 0-1-0.448-1-1s0.448-1 1-1c0.552 0 1 0.448 1 1v0c-0.001 0.552-0.448 0.999-1 1h-0zM6.031 14.97c-0.135-0.133-0.321-0.216-0.526-0.216-0.415 0-0.751 0.336-0.751 0.751 0 0.205 0.082 0.39 0.215 0.526l0.97 0.97-0.97 0.97c-0.133 0.135-0.215 0.321-0.215 0.525 0 0.415 0.336 0.751 0.751 0.751 0.205 0 0.391-0.082 0.527-0.216l0.969-0.969 0.969 0.969c0.135 0.133 0.321 0.216 0.526 0.216 0.415 0 0.751-0.336 0.751-0.751 0-0.205-0.082-0.39-0.215-0.526l-0.97-0.97 0.97-0.97c0.133-0.135 0.215-0.321 0.215-0.525 0-0.415-0.336-0.751-0.751-0.751-0.205 0-0.391 0.082-0.527 0.216l-0.969 0.969zM27.16 14.438l-3.16-4.74v-6.697c-0.002-1.656-1.344-2.998-3-3h-1c-0.207 0-0.399 0.063-0.558 0.171l0.004-0.002-0.001 0.001-0.001 0.001-1.56 1.040c-1.090 0.739-2.435 1.179-3.883 1.179s-2.792-0.441-3.907-1.195l0.025 0.016-1.563-1.042-0.005 0.007c-0.154-0.107-0.344-0.172-0.549-0.175h-1.001c-1.656 0.002-2.998 1.344-3 3v6.697l-3.16 4.74c-0.526 0.777-0.84 1.735-0.84 2.767 0 0.002 0 0.005 0 0.007v-0 11.789c0.002 1.656 1.344 2.998 3 3h22c1.656-0.002 2.998-1.344 3-3v-11.789c0-0.002 0-0.004 0-0.007 0-1.031-0.314-1.99-0.851-2.784l0.011 0.018zM12.075 17.619c-0.047 0.112-0.075 0.243-0.075 0.38 0 0 0 0.001 0 0.001v-0 12h-9c-0.552-0-1-0.448-1-1v-11.789c0-0.001 0-0.003 0-0.005 0-0.619 0.188-1.193 0.511-1.67l-0.007 0.011 3.328-4.992c0.105-0.156 0.168-0.348 0.168-0.555v-7c0-0.552 0.448-1 1-1h0.292l5.176 14.665zM9.9 3.377c1.19 0.632 2.601 1.006 4.098 1.012h0.002c1.416-0.002 2.754-0.332 3.944-0.918l-0.053 0.023-4.28 10.395zM26 29c-0 0.552-0.448 1-1 1h-11v-11.802l6.67-16.198h0.33c0.552 0 1 0.448 1 1v7c0 0.207 0.063 0.399 0.17 0.558l-0.002-0.004 3.328 4.992c0.316 0.466 0.504 1.041 0.504 1.66 0 0.002 0 0.003 0 0.005v-0z"></path>
</svg>
