<!-- Generated by IcoMoon.io -->
<svg version="1.1" xmlns="http://www.w3.org/2000/svg" width="32" height="32" viewBox="0 0 32 32">
<title>vhs-solid</title>
<path d="M31 4h-30c-0.552 0-1 0.448-1 1v0 3h32v-3c0-0.552-0.448-1-1-1v0zM0 25c0 1.657 1.343 3 3 3v0h26c1.657 0 3-1.343 3-3v0-15h-32zM24 21.816c1.174-0.419 1.999-1.521 1.999-2.816s-0.825-2.397-1.979-2.81l-0.021-0.006v-2.184h3.054c1.196 1.329 1.946 3.070 1.946 5s-0.75 3.671-1.946 5h-3.054zM12 14h8v10h-8zM4.946 14h3.054v2.184c-1.174 0.419-1.999 1.521-1.999 2.816s0.825 2.397 1.979 2.81l0.021 0.006v2.184h-3.054c-1.196-1.329-1.946-3.071-1.946-5s0.75-3.671 1.946-5z"></path>
</svg>
