<!-- Generated by IcoMoon.io -->
<svg version="1.1" xmlns="http://www.w3.org/2000/svg" width="32" height="32" viewBox="0 0 32 32">
<title>vhs</title>
<path d="M31 4h-30c-0.552 0-1 0.448-1 1v0 20c0 1.657 1.343 3 3 3v0h26c1.657 0 3-1.343 3-3v0-20c0-0.552-0.448-1-1-1v0zM30 25c0 0.552-0.448 1-1 1v0h-26c-0.552 0-1-0.448-1-1v0-13h3.716c-1.070 1.368-1.716 3.112-1.716 5.008 0 2.572 1.189 4.866 3.047 6.363l0.016 0.012c0.492 0.399 1.144 0.617 1.836 0.617h14.203c0.692 0 1.344-0.219 1.836-0.616 1.874-1.509 3.063-3.804 3.063-6.376 0-1.896-0.646-3.64-1.729-5.026l0.014 0.018h3.716zM10 20.101v1.899h-1.101c-0.658 0-2.899-1.892-2.899-5 0-3.094 2.213-5 2.899-5h1.101v1.899c-0.917 0.731-1.5 1.848-1.5 3.101s0.583 2.37 1.492 3.094l0.008 0.006zM12 22v-10h8v10zM22 13.899v-1.899h1.101c0.657 0 2.899 1.892 2.899 5 0 3.094-2.213 5-2.899 5h-1.101v-1.899c0.917-0.731 1.5-1.848 1.5-3.101s-0.583-2.37-1.492-3.094l-0.008-0.006zM30 10h-28v-4h28z"></path>
</svg>
