<!-- Generated by IcoMoon.io -->
<svg version="1.1" xmlns="http://www.w3.org/2000/svg" width="30" height="32" viewBox="0 0 30 32">
<title>vial</title>
<path d="M29.856 11.75l-10.606-10.606c-0.194-0.194-0.512-0.194-0.706 0l-0.706 0.706c-0.194 0.194-0.194 0.512 0 0.706l1.063 1.063-17.144 17.137c-2.344 2.344-2.35 6.137 0 8.481 2.344 2.344 6.138 2.35 8.481 0l17.137-17.137 1.063 1.063c0.194 0.194 0.512 0.194 0.706 0l0.706-0.706c0.2-0.194 0.2-0.506 0.006-0.706zM8.831 27.825c-1.513 1.512-4.144 1.512-5.656 0-1.563-1.563-1.563-4.094 0-5.656l4.169-4.169h11.313l-9.825 9.825zM20.656 16h-11.313l10.962-10.963 5.656 5.656-5.306 5.306z"></path>
</svg>
