<!-- Generated by IcoMoon.io -->
<svg version="1.1" xmlns="http://www.w3.org/2000/svg" width="40" height="32" viewBox="0 0 40 32">
<title>vials-solid</title>
<path d="M4.5 4h1.5v15c0 2.756 2.244 5 5 5s5-2.244 5-5v-15h1.5c0.275 0 0.5-0.225 0.5-0.5v-3c0-0.275-0.225-0.5-0.5-0.5h-13c-0.275 0-0.5 0.225-0.5 0.5v3c0 0.275 0.225 0.5 0.5 0.5zM9 4h4v6h-4v-6zM39 28h-38c-0.55 0-1 0.45-1 1v2c0 0.55 0.45 1 1 1h38c0.55 0 1-0.45 1-1v-2c0-0.55-0.45-1-1-1zM22.5 4h1.5v15c0 2.756 2.244 5 5 5s5-2.244 5-5v-15h1.5c0.275 0 0.5-0.225 0.5-0.5v-3c0-0.275-0.225-0.5-0.5-0.5h-13c-0.275 0-0.5 0.225-0.5 0.5v3c0 0.275 0.225 0.5 0.5 0.5zM27 4h4v6h-4v-6z"></path>
</svg>
