<!-- Generated by IcoMoon.io -->
<svg version="1.1" xmlns="http://www.w3.org/2000/svg" width="30" height="32" viewBox="0 0 30 32">
<title>vial-solid</title>
<path d="M29.856 11.631l-10.512-10.488c-0.194-0.194-0.512-0.194-0.706 0l-2.125 2.119c-0.194 0.194-0.194 0.512 0 0.706l0.7 0.694-15.15 15.119c-2.425 2.419-2.819 6.375-0.587 8.969 1.288 1.5 3.094 2.25 4.9 2.244 1.65 0 3.3-0.625 4.556-1.881l15.394-15.356 0.7 0.694c0.194 0.194 0.512 0.194 0.706 0l2.125-2.119c0.194-0.188 0.194-0.506 0-0.7zM19.875 16h-9.813l9.25-9.231 4.906 4.894-4.344 4.337z"></path>
</svg>
