<!-- Generated by IcoMoon.io -->
<svg version="1.1" xmlns="http://www.w3.org/2000/svg" width="40" height="32" viewBox="0 0 40 32">
<title>vials</title>
<path d="M4.5 2h1.5v19c0 2.756 2.244 5 5 5s5-2.244 5-5v-19h1.5c0.275 0 0.5-0.225 0.5-0.5v-1c0-0.275-0.225-0.5-0.5-0.5h-13c-0.275 0-0.5 0.225-0.5 0.5v1c0 0.275 0.225 0.5 0.5 0.5zM8 2h6v8h-6v-8zM8 12h6v9c0 3.969-6 3.969-6 0v-9zM22.5 2h1.5v19c0 2.756 2.244 5 5 5s5-2.244 5-5v-19h1.5c0.275 0 0.5-0.225 0.5-0.5v-1c0-0.275-0.225-0.5-0.5-0.5h-13c-0.275 0-0.5 0.225-0.5 0.5v1c0 0.275 0.225 0.5 0.5 0.5zM26 2h6v8h-6v-8zM26 12h6v9c0 3.969-6 3.969-6 0v-9zM39.5 30h-39c-0.275 0-0.5 0.225-0.5 0.5v1c0 0.275 0.225 0.5 0.5 0.5h39c0.275 0 0.5-0.225 0.5-0.5v-1c0-0.275-0.225-0.5-0.5-0.5z"></path>
</svg>
