<!-- Generated by IcoMoon.io -->
<svg version="1.1" xmlns="http://www.w3.org/2000/svg" width="36" height="32" viewBox="0 0 36 32">
<title>video-plus-solid</title>
<path d="M21.012 4h-18.025c-1.65 0-2.987 1.338-2.987 2.987v18.025c0 1.65 1.337 2.988 2.987 2.988h18.025c1.65 0 2.988-1.337 2.988-2.988v-18.025c0-1.65-1.337-2.987-2.988-2.987zM19 16.5c0 0.55-0.45 1-1 1h-4.5v4.5c0 0.55-0.45 1-1 1h-1c-0.55 0-1-0.45-1-1v-4.5h-4.5c-0.55 0-1-0.45-1-1v-1c0-0.55 0.45-1 1-1h4.5v-4.5c0-0.55 0.45-1 1-1h1c0.55 0 1 0.45 1 1v4.5h4.5c0.55 0 1 0.45 1 1v1zM36 7.969v16.056c0 1.594-1.819 2.525-3.15 1.613l-6.85-4.719v-9.838l6.85-4.719c1.331-0.919 3.15 0.019 3.15 1.606z"></path>
</svg>
