<!-- Generated by IcoMoon.io -->
<svg version="1.1" xmlns="http://www.w3.org/2000/svg" width="40" height="32" viewBox="0 0 40 32">
<title>video-slash</title>
<path d="M39.813 30.325l-38.375-30.212c-0.212-0.175-0.531-0.138-0.7 0.075l-0.625 0.781c-0.175 0.219-0.138 0.531 0.075 0.706l38.375 30.219c0.212 0.175 0.531 0.137 0.7-0.075l0.625-0.781c0.175-0.225 0.138-0.538-0.075-0.712zM24.762 26h-19.525c-0.669 0-1.237-0.45-1.237-0.988v-16.519l-1.994-1.569c0 0.025-0.006 0.044-0.006 0.069v18.025c0 1.65 1.45 2.988 3.237 2.988h19.525c1.038 0 1.95-0.456 2.544-1.156l-1.581-1.244c-0.231 0.231-0.569 0.394-0.962 0.394zM24.762 6c0.669 0 1.238 0.45 1.238 0.987v8.644l2 1.575v-4.113l8-5.094v15.506l1.775 1.4c0.131-0.262 0.225-0.55 0.225-0.875v-16.063c0-1.156-0.969-1.969-2.006-1.969-0.388 0-0.781 0.112-1.138 0.356l-6.856 4.369v-3.737c0-1.65-1.45-2.987-3.238-2.987h-13.537l2.537 2h11z"></path>
</svg>
