<!-- Generated by IcoMoon.io -->
<svg version="1.1" xmlns="http://www.w3.org/2000/svg" width="40" height="32" viewBox="0 0 40 32">
<title>video-slash-solid</title>
<path d="M39.612 28.631l-3.438-2.656c0.962-0.087 1.825-0.856 1.825-1.944v-16.063c0-1.594-1.819-2.525-3.15-1.612l-6.85 4.725v8.575l-2-1.544v-11.125c0-1.65-1.337-2.987-2.988-2.987h-15.269l-4.9-3.788c-0.438-0.338-1.063-0.263-1.406 0.175l-1.225 1.575c-0.338 0.438-0.263 1.063 0.175 1.4l36.769 28.425c0.438 0.337 1.063 0.263 1.406-0.175l1.225-1.581c0.344-0.431 0.263-1.063-0.175-1.4zM2 25.012c0 1.65 1.337 2.988 2.987 2.988h18.025c0.7 0 1.337-0.25 1.85-0.656l-22.863-17.675v15.344z"></path>
</svg>
