<!-- Generated by IcoMoon.io -->
<svg version="1.1" xmlns="http://www.w3.org/2000/svg" width="36" height="32" viewBox="0 0 36 32">
<title>video-plus</title>
<path d="M33.994 6c-0.388 0-0.781 0.112-1.138 0.356l-6.856 4.369v-3.737c0-1.65-1.45-2.987-3.238-2.987h-19.525c-1.788 0-3.237 1.338-3.237 2.987v18.025c0 1.65 1.45 2.988 3.237 2.988h19.525c1.788 0 3.238-1.337 3.238-2.988v-3.738l6.85 4.369c0.356 0.25 0.756 0.356 1.138 0.356 1.038 0 2.006-0.813 2.006-1.969v-16.063c0.006-1.156-0.962-1.969-2-1.969zM24 12v13.012c0 0.538-0.569 0.988-1.238 0.988h-19.525c-0.669 0-1.237-0.45-1.237-0.988v-18.025c0-0.537 0.569-0.987 1.237-0.987h19.525c0.669 0 1.238 0.45 1.238 0.987v5.012zM34 24.031l-0.075-0.081-7.925-5.050v-5.806l8-5.094v16.031zM18.5 15h-4.5v-4.5c0-0.275-0.225-0.5-0.5-0.5h-1c-0.275 0-0.5 0.225-0.5 0.5v4.5h-4.5c-0.275 0-0.5 0.225-0.5 0.5v1c0 0.275 0.225 0.5 0.5 0.5h4.5v4.5c0 0.275 0.225 0.5 0.5 0.5h1c0.275 0 0.5-0.225 0.5-0.5v-4.5h4.5c0.275 0 0.5-0.225 0.5-0.5v-1c0-0.275-0.225-0.5-0.5-0.5z"></path>
</svg>
