<!-- Generated by IcoMoon.io -->
<svg version="1.1" xmlns="http://www.w3.org/2000/svg" width="40" height="32" viewBox="0 0 40 32">
<title>vihara-solid</title>
<path d="M39.555 25.044l-5.555-3.044v-4l3.447-1.106c0.737-0.369 0.737-1.42 0-1.789l-7.447-3.106v-4l1.707-1.019c0.482-0.482 0.351-1.296-0.26-1.601l-11.447-5.38-11.447 5.379c-0.611 0.305-0.742 1.119-0.26 1.601l1.707 1.019v4l-7.447 3.106c-0.737 0.369-0.737 1.42 0 1.789l3.447 1.106v4l-5.555 3.044c-0.339 0.226-0.481 0.602-0.438 0.956 0.039 0.313 0.223 0.609 0.545 0.771l3.447 1.229v3c0 0.552 0.447 1 1 1h2c0.553 0 1-0.448 1-1v-3h10v3c0 0.552 0.448 1 1 1h2c0.552 0 1-0.448 1-1v-3h10v3c0 0.552 0.447 1 1 1h2c0.553 0 1-0.448 1-1v-3l3.447-1.229c0.322-0.161 0.506-0.457 0.545-0.771 0.044-0.354-0.098-0.73-0.437-0.956zM14 8h12v4h-12v-4zM10 22v-4h20v4h-20z"></path>
</svg>
