<!-- Generated by IcoMoon.io -->
<svg version="1.1" xmlns="http://www.w3.org/2000/svg" width="40" height="32" viewBox="0 0 40 32">
<title>vihara</title>
<path d="M39.555 25.044l-5.555-3.044v-4l3.447-1.106c0.737-0.369 0.737-1.42 0-1.789l-7.447-3.106v-4l1.707-1.019c0.482-0.482 0.351-1.296-0.26-1.601l-11.447-5.38-11.447 5.379c-0.611 0.305-0.742 1.119-0.26 1.601l1.707 1.019v4l-7.447 3.106c-0.737 0.369-0.737 1.42 0 1.789l3.447 1.106v4l-5.555 3.044c-0.639 0.426-0.579 1.383 0.108 1.726l3.447 1.229v3.5c0 0.276 0.224 0.5 0.5 0.5h1c0.276 0 0.5-0.224 0.5-0.5v-3.5h13v3.5c0 0.276 0.224 0.5 0.5 0.5h1c0.276 0 0.5-0.224 0.5-0.5v-3.5h13v3.5c0 0.276 0.224 0.5 0.5 0.5h1c0.276 0 0.5-0.224 0.5-0.5v-3.5l3.447-1.229c0.687-0.343 0.747-1.301 0.108-1.726zM20 2.21l8.066 3.79h-16.131l8.065-3.79zM12 8h16v4h-16v-4zM5.912 15.871l4.487-1.871h19.2l4.488 1.871-0.401 0.129h-27.374l-0.401-0.129zM8 18h24v4h-24v-4zM35.654 26h-31.309l-0.899-0.321 3.065-1.679h26.976l3.065 1.679-0.898 0.321z"></path>
</svg>
