<!-- Generated by IcoMoon.io -->
<svg version="1.1" xmlns="http://www.w3.org/2000/svg" width="40" height="32" viewBox="0 0 40 32">
<title>violin</title>
<path d="M29.5 6c0.828 0 1.5-0.672 1.5-1.5s-0.672-1.5-1.5-1.5c-0.828 0-1.5 0.672-1.5 1.5v0c0 0.828 0.672 1.5 1.5 1.5v0zM21.854 0.854l-0.707-0.708c-0.090-0.090-0.215-0.146-0.353-0.146s-0.263 0.056-0.353 0.146l-20.293 20.291c-0.091 0.090-0.147 0.216-0.147 0.354s0.056 0.263 0.147 0.354l0.708 0.707c0.090 0.090 0.215 0.146 0.353 0.146s0.263-0.056 0.353-0.146l20.293-20.289c0.091-0.091 0.147-0.216 0.147-0.354s-0.056-0.264-0.147-0.354l-0-0zM32.5 3c0.828 0 1.5-0.672 1.5-1.5s-0.672-1.5-1.5-1.5c-0.828 0-1.5 0.672-1.5 1.5v0c0 0.828 0.672 1.5 1.5 1.5v0zM38.5 6c-0.828 0-1.5 0.672-1.5 1.5s0.672 1.5 1.5 1.5c0.828 0 1.5-0.672 1.5-1.5v0c0-0.828-0.672-1.5-1.5-1.5v0zM35.5 9c-0.828 0-1.5 0.672-1.5 1.5s0.672 1.5 1.5 1.5c0.828 0 1.5-0.672 1.5-1.5v0c0-0.828-0.672-1.5-1.5-1.5v0zM30.071 12.050l9.636-9.636c0.181-0.181 0.293-0.431 0.293-0.707s-0.112-0.526-0.293-0.707l-0.707-0.707c-0.181-0.181-0.431-0.293-0.707-0.293s-0.526 0.112-0.707 0.293l-9.637 9.637c-0.965-0.803-2.066-1.438-3.287-1.721-0.538-0.13-1.157-0.205-1.792-0.206h-0.001c-1.319 0-2.972 0.345-4.334 1.708-0.23 0.231-0.406 0.494-0.587 0.753 0.026 0.17 0.041 0.366 0.041 0.566 0 2.191-1.775 3.967-3.965 3.969h-0c-0.521-0.001-1.018-0.101-1.475-0.281l0.027 0.010c-0.952 0.322-1.832 0.819-2.563 1.554-2.388 2.383-2.575 6.225-0.831 9.597l-0.556 0.371c-0.378 0.255-0.623 0.681-0.623 1.165 0 0.387 0.157 0.737 0.41 0.99l3.184 3.184c0.139 0.137 0.307 0.244 0.494 0.313l0.010 0.003c0.051 0.014 0.113 0.027 0.177 0.034l0.006 0.001c0.088 0.029 0.191 0.049 0.297 0.058l0.005 0c0.023 0 0.042-0.014 0.063-0.016 0.15-0.014 0.289-0.049 0.418-0.103l-0.009 0.003c0.078-0.018 0.144-0.039 0.209-0.066l-0.009 0.003c0.201-0.109 0.367-0.26 0.491-0.442l0.003-0.005 0.363-0.544c1.462 0.757 3.009 1.163 4.492 1.163 1.938 0 3.761-0.658 5.113-2.010 0.734-0.73 1.232-1.611 1.554-2.563-1.006-2.636 0.938-5.404 3.693-5.404 0.197 0 0.391 0.014 0.58 0.040l-0.022-0.003c0.263-0.184 0.53-0.363 0.764-0.596 1.559-1.563 2.027-3.843 1.5-6.119-0.282-1.222-0.913-2.324-1.717-3.289zM12.491 29.658l-2.149-2.149 5.005-3.337 0.481 0.481zM28.899 20.017c-3.264 0.041-5.893 2.696-5.893 5.965 0 0.478 0.056 0.943 0.162 1.388l-0.008-0.041c-0.22 0.481-0.508 0.891-0.856 1.241l0-0c-1.178 1.179-2.661 1.424-3.698 1.424-1.11 0-2.276-0.295-3.38-0.832l2.54-3.813c0.147-0.218 0.235-0.487 0.235-0.776 0-0.387-0.157-0.737-0.41-0.99l-1.177-1.177c-0.249-0.221-0.569-0.366-0.922-0.397l-0.006-0c-0.021 0-0.041-0.012-0.063-0.012-0.081 0.005-0.156 0.017-0.229 0.034l0.009-0.002c-0.055 0.005-0.103 0.012-0.151 0.022l0.009-0.002c-0.158 0.041-0.296 0.104-0.42 0.186l0.005-0.003-3.799 2.532c-1.285-2.611-1.098-5.396 0.584-7.077 0.347-0.345 0.754-0.63 1.204-0.838l0.026-0.011c0.409 0.1 0.878 0.157 1.361 0.157 1.793 0 3.402-0.792 4.494-2.046l0.006-0.007c0.904-1.024 1.458-2.375 1.464-3.856v-0.001c0.739-0.72 1.709-1.085 2.882-1.085 0.476 0.001 0.938 0.057 1.381 0.162l-0.041-0.008c0.765 0.179 1.54 0.597 2.308 1.206l-6.223 6.224c-0.181 0.181-0.293 0.431-0.293 0.707s0.112 0.526 0.293 0.707v0l0.707 0.709c0.181 0.181 0.431 0.293 0.707 0.293s0.526-0.112 0.707-0.293l6.224-6.224c0.608 0.766 1.024 1.541 1.201 2.306 0.389 1.683 0.046 3.221-0.941 4.228z"></path>
</svg>
