<!-- Generated by IcoMoon.io -->
<svg version="1.1" xmlns="http://www.w3.org/2000/svg" width="40" height="32" viewBox="0 0 40 32">
<title>violin-solid</title>
<path d="M21.707 1l-0.707-0.707c-0.181-0.181-0.431-0.293-0.707-0.293s-0.526 0.112-0.707 0.293l-19.293 19.293c-0.181 0.181-0.293 0.431-0.293 0.707s0.112 0.526 0.293 0.707l0.707 0.707c0.181 0.181 0.431 0.293 0.707 0.293s0.526-0.112 0.707-0.293l19.293-19.293c0.181-0.181 0.293-0.431 0.293-0.707s-0.112-0.526-0.293-0.707v0zM32.5 3c0.828 0 1.5-0.672 1.5-1.5s-0.672-1.5-1.5-1.5c-0.828 0-1.5 0.672-1.5 1.5v0c0 0.828 0.672 1.5 1.5 1.5v0zM14.851 25.99l-0.841-0.841c-0.181-0.181-0.431-0.293-0.707-0.293-0.207 0-0.399 0.063-0.558 0.17l0.004-0.002-4.303 2.869c-0.27 0.182-0.445 0.486-0.445 0.832 0 0.276 0.112 0.526 0.293 0.707l2.275 2.275c0.181 0.181 0.431 0.293 0.707 0.293 0.345 0 0.65-0.175 0.83-0.442l0.002-0.004 2.869-4.304c0.105-0.156 0.167-0.347 0.167-0.554 0-0.276-0.112-0.526-0.292-0.706v0zM29.5 6c0.828 0 1.5-0.672 1.5-1.5s-0.672-1.5-1.5-1.5c-0.828 0-1.5 0.672-1.5 1.5v0c0 0.828 0.672 1.5 1.5 1.5v0zM28.611 14.217l11.096-11.096c0.181-0.181 0.293-0.431 0.293-0.707s-0.112-0.526-0.293-0.707l-1.414-1.414c-0.181-0.181-0.431-0.293-0.707-0.293s-0.526 0.112-0.707 0.293l-11.096 11.096c-0.761-0.548-1.596-0.985-2.509-1.197-2.054-0.478-4.106-0.058-5.535 1.316 0.159 0.451 0.254 0.972 0.262 1.514l0 0.004c0 0.004 0 0.008 0 0.013 0 2.754-2.232 4.986-4.986 4.986-1.011 0-1.952-0.301-2.738-0.818l0.019 0.012c-0.166 0.125-0.312 0.248-0.451 0.378l0.003-0.003c-1.953 1.948-2.292 4.958-1.221 7.779l3.014-2.010c0.468-0.316 1.044-0.504 1.664-0.504 0.829 0 1.579 0.336 2.122 0.879l0.841 0.841c0.541 0.544 0.876 1.294 0.876 2.123 0 0.619-0.187 1.195-0.508 1.674l0.007-0.011-2.010 3.012c2.82 1.068 5.829 0.727 7.776-1.221 0.132-0.142 0.26-0.294 0.379-0.453l0.010-0.014c-0.516-0.77-0.824-1.717-0.824-2.736 0-2.736 2.218-4.954 4.954-4.954 0.56 0 1.098 0.093 1.6 0.264l-0.035-0.010c1.37-1.427 1.788-3.475 1.313-5.525-0.21-0.912-0.646-1.747-1.194-2.508zM38.5 6c-0.828 0-1.5 0.672-1.5 1.5s0.672 1.5 1.5 1.5c0.828 0 1.5-0.672 1.5-1.5v0c0-0.828-0.672-1.5-1.5-1.5v0zM35.5 9c-0.828 0-1.5 0.672-1.5 1.5s0.672 1.5 1.5 1.5c0.828 0 1.5-0.672 1.5-1.5v0c0-0.828-0.672-1.5-1.5-1.5v0z"></path>
</svg>
