<!-- Generated by IcoMoon.io -->
<svg version="1.1" xmlns="http://www.w3.org/2000/svg" width="40" height="32" viewBox="0 0 40 32">
<title>viruses</title>
<path d="M39 22h-0.758c-1.782 0-2.674-2.154-1.414-3.414l0.536-0.536c0.181-0.181 0.293-0.431 0.293-0.707 0-0.552-0.448-1-1-1-0.276 0-0.526 0.112-0.707 0.293v0l-0.536 0.536c-0.356 0.364-0.852 0.589-1.4 0.589h-0c-1.028 0-2.014-0.798-2.014-2.004v-0.758c0-0.552-0.448-1-1-1s-1 0.448-1 1v0 0.758c0 1.206-0.986 2.004-2.014 2.004-0.548-0-1.044-0.226-1.4-0.589l-0-0-0.536-0.536c-0.181-0.181-0.431-0.293-0.707-0.293-0.552 0-1 0.448-1 1 0 0.276 0.112 0.526 0.293 0.707v0l0.536 0.536c1.26 1.26 0.367 3.414-1.414 3.414h-0.758c-0.552 0-1 0.448-1 1s0.448 1 1 1v0h0.758c1.782 0 2.674 2.154 1.414 3.414l-0.536 0.536c-0.181 0.181-0.293 0.431-0.293 0.707 0 0.552 0.448 1 1 1 0.276 0 0.526-0.112 0.707-0.293v0l0.536-0.536c0.356-0.364 0.852-0.589 1.4-0.589h0c1.028 0 2.014 0.798 2.014 2.004v0.758c0 0.552 0.448 1 1 1s1-0.448 1-1v0-0.758c0-1.206 0.986-2.004 2.014-2.004 0.548 0 1.044 0.226 1.4 0.589l0 0 0.536 0.536c0.181 0.181 0.431 0.293 0.707 0.293 0.552 0 1-0.448 1-1 0-0.276-0.112-0.526-0.293-0.707v0l-0.536-0.536c-1.26-1.26-0.367-3.414 1.414-3.414h0.758c0.552 0 1-0.448 1-1s-0.448-1-1-1v0zM34.547 24.469c-0.192 0.453-0.304 0.98-0.304 1.532 0 0.086 0.003 0.171 0.008 0.255l-0.001-0.012c-0.077-0.004-0.155-0.006-0.233-0.006-0.001 0-0.003 0-0.005 0-1.198 0-2.273 0.525-3.008 1.358l-0.004 0.004c-0.739-0.837-1.814-1.362-3.012-1.362-0.001 0-0.002 0-0.002 0h0c-0.078 0-0.156 0-0.233 0.006 0.004-0.070 0.007-0.153 0.007-0.236 0-1.195-0.521-2.269-1.349-3.006l-0.004-0.004c0.83-0.74 1.35-1.813 1.35-3.007 0-0.084-0.003-0.167-0.008-0.249l0.001 0.011c0.077 0.004 0.155 0.006 0.233 0.006 0.001 0 0.003 0 0.005 0 1.198 0 2.273-0.525 3.008-1.358l0.004-0.004c0.739 0.837 1.814 1.362 3.012 1.362 0.001 0 0.002 0 0.002 0h-0c0.078 0 0.156 0 0.233-0.006-0.004 0.070-0.007 0.153-0.007 0.236 0 1.195 0.521 2.269 1.349 3.006l0.004 0.004c-0.447 0.398-0.802 0.888-1.036 1.443l-0.010 0.026zM21.657 13.333h1.010c0.736 0 1.333-0.597 1.333-1.333s-0.597-1.333-1.333-1.333v0h-1.010c-2.375 0-3.566-2.875-1.886-4.553l0.714-0.715c0.243-0.242 0.394-0.576 0.394-0.946 0-0.736-0.597-1.333-1.333-1.333-0.37 0-0.704 0.151-0.946 0.394l-0.714 0.714c-0.474 0.485-1.135 0.786-1.866 0.786h-0c-1.371 0-2.688-1.063-2.688-2.672v-1.010c0-0.736-0.597-1.333-1.333-1.333s-1.333 0.597-1.333 1.333v0 1.010c0 1.607-1.313 2.672-2.688 2.672-0.73-0.001-1.39-0.302-1.863-0.786l-0.715-0.715c-0.241-0.239-0.573-0.387-0.94-0.387-0.736 0-1.333 0.597-1.333 1.333 0 0.366 0.148 0.698 0.387 0.939l0.714 0.715c1.68 1.68 0.491 4.553-1.886 4.553h-1.010c-0.736 0-1.333 0.597-1.333 1.333s0.597 1.333 1.333 1.333v0h1.010c2.375 0 3.566 2.875 1.886 4.552l-0.714 0.714c-0.241 0.241-0.391 0.575-0.391 0.943 0 0.736 0.597 1.333 1.333 1.333 0.368 0 0.702-0.149 0.943-0.391l0.714-0.714c0.474-0.485 1.135-0.787 1.866-0.787h0c1.371 0 2.688 1.063 2.688 2.672v1.010c0 0.736 0.597 1.333 1.333 1.333s1.333-0.597 1.333-1.333v0-1.010c0-1.608 1.313-2.672 2.688-2.672 0.731 0 1.392 0.301 1.866 0.786l0.715 0.715c0.241 0.241 0.575 0.391 0.943 0.391 0.736 0 1.333-0.597 1.333-1.333 0-0.368-0.149-0.702-0.391-0.943l-0.714-0.714c-1.683-1.68-0.493-4.553 1.883-4.553zM17.344 14.214c-0.225 0.528-0.356 1.141-0.356 1.786 0 0.397 0.050 0.783 0.143 1.151l-0.007-0.032c-0.331-0.085-0.71-0.134-1.101-0.134-0.001 0-0.002 0-0.003 0h0c-0.001 0-0.002 0-0.004 0-1.697 0-3.183 0.902-4.006 2.252l-0.012 0.021c-0.834-1.371-2.321-2.273-4.018-2.273-0.001 0-0.001 0-0.002 0h0c-0.001 0-0.003 0-0.005 0-0.391 0-0.77 0.049-1.133 0.141l0.032-0.007c0.085-0.334 0.134-0.718 0.134-1.113 0-1.69-0.896-3.171-2.239-3.994l-0.020-0.012c1.363-0.834 2.259-2.315 2.259-4.006 0-0.395-0.049-0.779-0.141-1.145l0.007 0.032c0.331 0.085 0.71 0.134 1.101 0.134 0.001 0 0.002 0 0.003 0h-0c0 0 0.001 0 0.001 0 1.698 0 3.185-0.901 4.008-2.252l0.012-0.021c0.835 1.371 2.322 2.272 4.019 2.272h0c0.001 0 0.003 0 0.005 0 0.391 0 0.77-0.049 1.133-0.141l-0.032 0.007c-0.085 0.334-0.134 0.718-0.134 1.113 0 1.69 0.896 3.171 2.239 3.994l0.020 0.012c-0.852 0.518-1.512 1.278-1.894 2.183l-0.011 0.031zM10 8c-1.105 0-2 0.895-2 2s0.895 2 2 2c1.105 0 2-0.895 2-2v0c0-1.105-0.895-2-2-2v0zM14 13c-0.552 0-1 0.448-1 1s0.448 1 1 1c0.552 0 1-0.448 1-1v0c0-0.552-0.448-1-1-1v0zM30 21c-0.552 0-1 0.448-1 1s0.448 1 1 1c0.552 0 1-0.448 1-1v0c0-0.552-0.448-1-1-1v0z"></path>
</svg>
