<!-- Generated by IcoMoon.io -->
<svg version="1.1" xmlns="http://www.w3.org/2000/svg" width="40" height="32" viewBox="0 0 40 32">
<title>virus-slash</title>
<path d="M20 27.319c-0.705-2.335-2.837-4.006-5.359-4.007h-0c-0.002 0-0.004 0-0.007 0-0.96 0-1.863 0.249-2.646 0.686l0.028-0.014c0.799-1.446 0.906-3.171 0.24-4.777s-1.957-2.75-3.543-3.207c1.034-0.299 1.922-0.915 2.615-1.736l-1.57-1.236c-0.637 0.734-1.57 1.195-2.612 1.195-0.008 0-0.015-0-0.023-0h-1.346c-0.010-0-0.022-0-0.033-0-0.982 0-1.778 0.796-1.778 1.778s0.796 1.778 1.778 1.778c0.012 0 0.023-0 0.035-0l-0.002 0h1.347c3.167 0 4.754 3.83 2.514 6.070l-0.951 0.953c-0.346 0.325-0.561 0.785-0.561 1.296 0 0.982 0.796 1.777 1.777 1.777 0.511 0 0.971-0.215 1.295-0.56l0.001-0.001 0.953-0.953c0.633-0.646 1.514-1.047 2.489-1.047 0 0 0 0 0 0v0c1.828 0 3.581 1.419 3.581 3.563v1.346c-0 0.010-0 0.022-0 0.033 0 0.982 0.796 1.778 1.778 1.778s1.778-0.796 1.778-1.778c0-0.012-0-0.023-0-0.035l0 0.002v-1.346c0-2.143 1.754-3.563 3.582-3.563v0l-2.036-1.602c-1.602 0.636-2.818 1.946-3.314 3.57l-0.010 0.040zM20 4.68c0.705 2.336 2.837 4.007 5.36 4.008h0c0.002 0 0.004 0 0.007 0 0.96 0 1.863-0.249 2.646-0.686l-0.028 0.014c-0.797 1.446-0.907 3.172-0.241 4.777s1.957 2.75 3.543 3.207c-1.036 0.299-1.925 0.916-2.617 1.739l1.569 1.236c0.637-0.735 1.572-1.198 2.615-1.198 0.008 0 0.015 0 0.023 0h1.346c0.010 0 0.022 0 0.033 0 0.982 0 1.778-0.796 1.778-1.778s-0.796-1.778-1.778-1.778c-0.012 0-0.023 0-0.035 0l0.002-0h-1.347c-3.168 0-4.754-3.829-2.514-6.069l0.952-0.953c0.354-0.326 0.574-0.791 0.574-1.309 0-0.982-0.796-1.777-1.777-1.777-0.517 0-0.982 0.221-1.307 0.573l-0.001 0.001-0.953 0.951c-0.632 0.647-1.513 1.048-2.488 1.049h-0c-1.828 0-3.582-1.419-3.582-3.563v-1.347c-0.019-0.968-0.808-1.745-1.778-1.745s-1.759 0.777-1.778 1.743l-0 0.002v1.347c0 2.143-1.753 3.563-3.581 3.563h-0.009l2.039 1.606c1.604-0.636 2.822-1.947 3.319-3.574l0.010-0.040zM39.813 30.332l-38.375-30.219c-0.085-0.071-0.195-0.114-0.315-0.114-0.156 0-0.296 0.073-0.386 0.187l-0.001 0.001-0.625 0.781c-0.068 0.085-0.11 0.194-0.11 0.312 0 0.157 0.072 0.297 0.186 0.389l0.001 0.001 38.375 30.219c0.085 0.068 0.193 0.109 0.311 0.109 0.157 0 0.296-0.072 0.388-0.185l0.001-0.001 0.625-0.781c0.070-0.084 0.112-0.194 0.112-0.313 0-0.156-0.073-0.295-0.186-0.385l-0.001-0.001z"></path>
</svg>
