<!-- Generated by IcoMoon.io -->
<svg version="1.1" xmlns="http://www.w3.org/2000/svg" width="32" height="32" viewBox="0 0 32 32">
<title>virus-solid</title>
<path d="M30.222 14.222h-1.347c-3.168 0-4.754-3.829-2.514-6.069l0.952-0.953c0.295-0.317 0.477-0.743 0.477-1.211 0-0.982-0.796-1.777-1.777-1.777-0.469 0-0.895 0.181-1.213 0.478l0.001-0.001-0.953 0.951c-2.24 2.239-6.069 0.653-6.069-2.514v-1.347c0-0.982-0.796-1.778-1.778-1.778s-1.778 0.796-1.778 1.778v0 1.347c0 3.168-3.829 4.754-6.069 2.514l-0.952-0.952c-0.317-0.296-0.743-0.477-1.212-0.477-0.982 0-1.777 0.796-1.777 1.777 0 0.469 0.181 0.895 0.478 1.212l-0.001-0.001 0.953 0.953c2.24 2.24 0.653 6.069-2.514 6.069h-1.348c-0.010-0-0.022-0-0.033-0-0.982 0-1.778 0.796-1.778 1.778s0.796 1.778 1.778 1.778c0.012 0 0.023-0 0.035-0l-0.002 0h1.347c3.167 0 4.754 3.83 2.514 6.070l-0.952 0.953c-0.291 0.316-0.47 0.739-0.47 1.204 0 0.982 0.796 1.778 1.778 1.778 0.465 0 0.889-0.179 1.205-0.471l-0.001 0.001 0.953-0.953c2.24-2.24 6.069-0.653 6.069 2.514v1.346c0 0.982 0.796 1.778 1.778 1.778s1.778-0.796 1.778-1.778v0-1.345c0-3.168 3.829-4.754 6.069-2.514l0.953 0.952c0.316 0.291 0.739 0.47 1.204 0.47 0.982 0 1.778-0.796 1.778-1.778 0-0.465-0.179-0.889-0.471-1.206l0.001 0.001-0.953-0.953c-2.24-2.24-0.653-6.070 2.514-6.070h1.346c0.010 0 0.022 0 0.033 0 0.982 0 1.778-0.796 1.778-1.778s-0.796-1.778-1.778-1.778c-0.012 0-0.023 0-0.035 0l0.002-0zM14 17c-1.657 0-3-1.343-3-3s1.343-3 3-3c1.657 0 3 1.343 3 3v0c0 1.657-1.343 3-3 3v0zM19 20.5c-0.828 0-1.5-0.672-1.5-1.5s0.672-1.5 1.5-1.5c0.828 0 1.5 0.672 1.5 1.5v0c0 0.828-0.672 1.5-1.5 1.5v0z"></path>
</svg>
