<!-- Generated by IcoMoon.io -->
<svg version="1.1" xmlns="http://www.w3.org/2000/svg" width="40" height="32" viewBox="0 0 40 32">
<title>viruses-solid</title>
<path d="M39 22h-0.758c-1.782 0-2.674-2.154-1.414-3.414l0.536-0.536c0.181-0.181 0.293-0.431 0.293-0.707 0-0.552-0.448-1-1-1-0.276 0-0.526 0.112-0.707 0.293v0l-0.536 0.536c-1.26 1.26-3.414 0.367-3.414-1.414v-0.758c0-0.552-0.448-1-1-1s-1 0.448-1 1v0 0.758c0 1.782-2.154 2.674-3.414 1.414l-0.536-0.536c-0.181-0.181-0.431-0.293-0.707-0.293-0.552 0-1 0.448-1 1 0 0.276 0.112 0.526 0.293 0.707v0l0.536 0.536c1.26 1.26 0.367 3.414-1.414 3.414h-0.758c-0.552 0-1 0.448-1 1s0.448 1 1 1v0h0.758c1.782 0 2.674 2.154 1.414 3.414l-0.536 0.536c-0.181 0.181-0.293 0.431-0.293 0.707 0 0.552 0.448 1 1 1 0.276 0 0.526-0.112 0.707-0.293v0l0.536-0.536c1.26-1.26 3.414-0.367 3.414 1.414v0.758c0 0.552 0.448 1 1 1s1-0.448 1-1v0-0.758c0-1.782 2.154-2.674 3.414-1.414l0.536 0.536c0.181 0.181 0.431 0.293 0.707 0.293 0.552 0 1-0.448 1-1 0-0.276-0.112-0.526-0.293-0.707v0l-0.536-0.536c-1.26-1.26-0.367-3.414 1.414-3.414h0.758c0.552 0 1-0.448 1-1s-0.448-1-1-1v0zM30 24c-1.105 0-2-0.895-2-2s0.895-2 2-2c1.105 0 2 0.895 2 2v0c0 1.105-0.895 2-2 2v0zM21.657 13.333h1.010c0.736 0 1.333-0.597 1.333-1.333s-0.597-1.333-1.333-1.333v0h-1.010c-2.375 0-3.566-2.875-1.886-4.553l0.714-0.715c0.239-0.241 0.387-0.573 0.387-0.939 0-0.736-0.597-1.333-1.333-1.333-0.367 0-0.699 0.148-0.94 0.387l-0.714 0.714c-1.68 1.68-4.553 0.491-4.553-1.886v-1.010c0-0.736-0.597-1.333-1.333-1.333s-1.333 0.597-1.333 1.333v0 1.010c0 2.375-2.875 3.566-4.553 1.886l-0.714-0.714c-0.241-0.239-0.573-0.387-0.94-0.387-0.736 0-1.333 0.597-1.333 1.333 0 0.366 0.148 0.698 0.387 0.939l0.714 0.715c1.68 1.68 0.491 4.552-1.886 4.552h-1.010c-0.736 0-1.333 0.597-1.333 1.333s0.597 1.333 1.333 1.333v0h1.010c2.375 0 3.566 2.875 1.886 4.552l-0.714 0.714c-0.241 0.241-0.391 0.575-0.391 0.943 0 0.736 0.597 1.333 1.333 1.333 0.368 0 0.702-0.149 0.943-0.391l0.714-0.714c1.68-1.68 4.553-0.491 4.553 1.886v1.010c0 0.736 0.597 1.333 1.333 1.333s1.333-0.597 1.333-1.333v0-1.010c0-2.375 2.875-3.566 4.553-1.886l0.714 0.714c0.241 0.241 0.575 0.391 0.943 0.391 0.736 0 1.333-0.597 1.333-1.333 0-0.368-0.149-0.702-0.391-0.943l-0.714-0.714c-1.68-1.68-0.491-4.553 1.886-4.553zM10 12c-1.105 0-2-0.895-2-2s0.895-2 2-2c1.105 0 2 0.895 2 2v0c0 1.105-0.895 2-2 2v0zM15 14c-0.552 0-1-0.448-1-1s0.448-1 1-1c0.552 0 1 0.448 1 1v0c0 0.552-0.448 1-1 1v0z"></path>
</svg>
