<!-- Generated by IcoMoon.io -->
<svg version="1.1" xmlns="http://www.w3.org/2000/svg" width="32" height="32" viewBox="0 0 32 32">
<title>virus</title>
<path d="M30.222 14.222h-1.347c-3.168 0-4.754-3.829-2.514-6.069l0.952-0.953c0.295-0.317 0.477-0.743 0.477-1.211 0-0.982-0.796-1.777-1.777-1.777-0.469 0-0.895 0.181-1.213 0.478l0.001-0.001-0.953 0.951c-0.633 0.647-1.514 1.048-2.489 1.049h-0c-1.828 0-3.581-1.419-3.581-3.563v-1.347c0-0.982-0.796-1.778-1.778-1.778s-1.778 0.796-1.778 1.778v0 1.347c0 2.143-1.753 3.563-3.581 3.563-0.975-0-1.856-0.401-2.488-1.047l-0.001-0.001-0.952-0.952c-0.317-0.296-0.743-0.477-1.212-0.477-0.982 0-1.777 0.796-1.777 1.777 0 0.469 0.181 0.895 0.478 1.212l-0.001-0.001 0.953 0.953c2.24 2.24 0.653 6.069-2.514 6.069h-1.348c-0.010-0-0.022-0-0.033-0-0.982 0-1.778 0.796-1.778 1.778s0.796 1.778 1.778 1.778c0.012 0 0.023-0 0.035-0l-0.002 0h1.347c3.167 0 4.754 3.83 2.514 6.070l-0.952 0.953c-0.291 0.316-0.47 0.739-0.47 1.204 0 0.982 0.796 1.778 1.778 1.778 0.465 0 0.889-0.179 1.205-0.471l-0.001 0.001 0.953-0.953c0.632-0.646 1.514-1.047 2.488-1.047h0c1.828 0 3.581 1.419 3.581 3.563v1.346c0 0.982 0.796 1.778 1.778 1.778s1.778-0.796 1.778-1.778v0-1.346c0-2.143 1.753-3.563 3.581-3.563 0.975 0 1.856 0.402 2.488 1.047l0.001 0.001 0.953 0.952c0.316 0.291 0.739 0.47 1.204 0.47 0.982 0 1.778-0.796 1.778-1.778 0-0.465-0.179-0.889-0.471-1.206l0.001 0.001-0.953-0.953c-2.24-2.24-0.653-6.070 2.514-6.070h1.346c0.010 0 0.022 0 0.033 0 0.982 0 1.778-0.796 1.778-1.778s-0.796-1.778-1.778-1.778c-0.012 0-0.023 0-0.035 0l0.002-0zM23.742 19.207c-0.665 1.607-0.559 3.331 0.24 4.777-0.755-0.423-1.657-0.672-2.617-0.672-0.003 0-0.006 0-0.008 0h0c-2.521 0.001-4.652 1.672-5.347 3.967l-0.010 0.040c-0.705-2.335-2.837-4.006-5.359-4.007h-0c-0.002 0-0.005 0-0.008 0-0.96 0-1.862 0.249-2.645 0.686l0.028-0.014c0.799-1.446 0.905-3.171 0.24-4.777s-1.958-2.75-3.543-3.207c1.585-0.459 2.878-1.602 3.543-3.207s0.559-3.331-0.24-4.777c0.755 0.423 1.658 0.672 2.618 0.672 0.002 0 0.005 0 0.007 0h-0c2.522-0 4.654-1.671 5.349-3.967l0.010-0.040c0.705 2.335 2.836 4.007 5.359 4.008h0c0.002 0 0.004 0 0.007 0 0.96 0 1.863-0.249 2.646-0.686l-0.028 0.014c-0.799 1.446-0.905 3.171-0.24 4.777s1.958 2.75 3.543 3.208c-1.586 0.457-2.879 1.601-3.544 3.207zM14 11c-1.657 0-3 1.343-3 3s1.343 3 3 3c1.657 0 3-1.343 3-3v0c0-1.657-1.343-3-3-3v0zM14 15c-0.552 0-1-0.448-1-1s0.448-1 1-1c0.552 0 1 0.448 1 1v0c0 0.552-0.448 1-1 1v0zM19 18c-0.552 0-1 0.448-1 1s0.448 1 1 1c0.552 0 1-0.448 1-1v0c0-0.552-0.448-1-1-1v0z"></path>
</svg>
