<!-- Generated by IcoMoon.io -->
<svg version="1.1" xmlns="http://www.w3.org/2000/svg" width="40" height="32" viewBox="0 0 40 32">
<title>virus-slash-solid</title>
<path d="M7.125 14.225h-1.35c-0.981 0-1.775 0.794-1.775 1.775s0.794 1.775 1.775 1.775h1.35c3.169 0 4.756 3.831 2.512 6.069l-0.95 0.956c-0.719 0.669-0.763 1.794-0.1 2.512s1.794 0.762 2.513 0.1c0.031-0.031 0.069-0.063 0.1-0.1l0.95-0.95c2.237-2.238 6.069-0.656 6.069 2.512v1.344c0 0.981 0.8 1.775 1.781 1.775s1.775-0.794 1.775-1.775v-1.344c0-1.663 1.063-2.869 2.387-3.337l-15.281-11.813c-0.525 0.319-1.138 0.494-1.756 0.5zM38.563 31.613l1.225-1.581c0.337-0.438 0.263-1.063-0.175-1.406l-10.2-7.875c0.262-1.587 1.556-2.969 3.463-2.969h1.344c0.981 0 1.775-0.794 1.775-1.775s-0.794-1.775-1.775-1.775h-1.344c-3.169 0-4.756-3.831-2.512-6.069l0.95-0.956c0.669-0.719 0.625-1.844-0.1-2.513-0.681-0.631-1.731-0.631-2.413 0l-0.95 0.95c-2.238 2.237-6.069 0.656-6.069-2.513v-1.35c-0.006-0.988-0.8-1.781-1.781-1.781s-1.775 0.794-1.775 1.775v1.35c0 3.169-3.831 4.756-6.069 2.512l-0.956-0.95c-0.694-0.694-1.838-0.662-2.531 0.031l-5.825-4.506c-0.438-0.338-1.063-0.263-1.406 0.175l-1.225 1.581c-0.338 0.438-0.263 1.063 0.175 1.406l36.775 28.419c0.431 0.338 1.063 0.256 1.4-0.181zM20.962 14.219l-3.931-3.037c0.306-0.113 0.637-0.175 0.962-0.181 1.656 0 3 1.344 3 3 0.006 0.075-0.025 0.144-0.031 0.219z"></path>
</svg>
