<!-- Generated by IcoMoon.io -->
<svg version="1.1" xmlns="http://www.w3.org/2000/svg" width="40" height="32" viewBox="0 0 40 32">
<title>voicemail-solid</title>
<path d="M31 8c-0 0-0 0-0 0-4.971 0-9 4.029-9 9 0 1.864 0.567 3.595 1.537 5.032l-0.020-0.032h-7.032c0.95-1.405 1.517-3.136 1.517-5 0-4.971-4.029-9-9-9s-9 4.029-9 9c0 4.97 4.029 9 9 9h22c4.971 0 9-4.029 9-9s-4.029-9-9-9v0zM4 17c0-2.761 2.239-5 5-5s5 2.239 5 5c0 2.761-2.239 5-5 5v0c-2.761 0-5-2.239-5-5v0zM31 22c-2.761 0-5-2.239-5-5s2.239-5 5-5c2.761 0 5 2.239 5 5v0c0 2.761-2.239 5-5 5v0z"></path>
</svg>
