<!-- Generated by IcoMoon.io -->
<svg version="1.1" xmlns="http://www.w3.org/2000/svg" width="40" height="32" viewBox="0 0 40 32">
<title>voicemail</title>
<path d="M40 17c0-4.971-4.029-9-9-9s-9 4.029-9 9v0c0 2.845 1.346 5.351 3.407 7h-10.813c2.063-1.649 3.407-4.155 3.407-7 0-4.971-4.030-9.001-9.001-9.001s-9.001 4.030-9.001 9.001v0c0 4.628 3.506 8.396 8 8.899v0.101h24v-0.101c4.494-0.504 8-4.271 8-8.899zM2 17c0-3.866 3.134-7 7-7s7 3.134 7 7c0 3.866-3.134 7-7 7v0c-3.864-0.004-6.996-3.136-7-7v-0zM31 24c-3.866 0-7-3.134-7-7s3.134-7 7-7c3.866 0 7 3.134 7 7v0c-0.004 3.864-3.136 6.996-7 7h-0z"></path>
</svg>
