<!-- Generated by IcoMoon.io -->
<svg version="1.1" xmlns="http://www.w3.org/2000/svg" width="32" height="32" viewBox="0 0 32 32">
<title>volcano-solid</title>
<path d="M10 9c0.806 0 1.55-0.244 2.175-0.65l1.825 3.65h4l1.825-3.65c0.625 0.406 1.369 0.65 2.175 0.65 2.206 0 4-1.794 4-4s-1.794-4-4-4c-0.988 0-1.875 0.369-2.575 0.962-0.7-1.169-1.962-1.962-3.425-1.962s-2.725 0.794-3.425 1.962c-0.7-0.594-1.588-0.963-2.575-0.963-2.206 0-4 1.794-4 4s1.794 4 4 4zM19.025 14h-6.050c-0.613 0-1.194 0.281-1.575 0.769l-3.475 4.438 0.825 1.031c0.613 0.762 1.894 0.762 2.506 0 0.675-0.844 1.675-1.331 2.756-1.35 1.075-0.094 2.1 0.438 2.8 1.256l1.975 2.3c0.613 0.712 1.825 0.712 2.438 0l2.819-3.288-3.438-4.387c-0.387-0.488-0.962-0.769-1.581-0.769zM31.594 28.8l-6.3-8.044-2.556 2.981c-0.688 0.8-1.688 1.262-2.738 1.262s-2.050-0.456-2.738-1.262l-1.975-2.3c-0.306-0.356-0.75-0.563-1.219-0.563h-0.025c-0.481 0.012-0.925 0.231-1.225 0.606-1.381 1.719-4.256 1.719-5.631 0l-0.525-0.663-6.256 7.981c-0.994 1.319-0.050 3.2 1.6 3.2h27.994c1.644 0 2.587-1.881 1.594-3.2z"></path>
</svg>
