<!-- Generated by IcoMoon.io -->
<svg version="1.1" xmlns="http://www.w3.org/2000/svg" width="32" height="32" viewBox="0 0 32 32">
<title>volcano</title>
<path d="M31.594 28.788l-10.994-14.063c-0.306-0.394-0.756-0.606-1.238-0.694l1.025-3.088h1.613c2.756 0 5-2.25 5-5.013s-2.244-5.013-5-5.013c-0.819 0-1.625 0.212-2.35 0.6-1.869-2.038-5.431-2.038-7.306 0-0.725-0.394-1.531-0.6-2.35-0.6-2.756 0-5 2.25-5 5.013s2.244 5.013 5 5.013h1.613l1.025 3.088c-0.481 0.088-0.931 0.3-1.238 0.694l-10.988 14.063c-0.994 1.325-0.050 3.212 1.6 3.212h27.994c1.644 0 2.588-1.887 1.594-3.212zM10 8.944c-1.656 0-3-1.35-3-3.006s1.344-3.006 3-3.006c0.887 0 1.537 0.394 1.925 0.725l0.9 0.763 0.606-1.013c1.106-1.856 4.031-1.856 5.138 0l0.606 1.013 0.9-0.763c0.387-0.331 1.044-0.725 1.925-0.725 1.656 0 3 1.35 3 3.006s-1.344 3.006-3 3.006h-3.056l-1.669 5.013h-2.556l-1.669-5.012h-3.050zM12.975 15.963h6.050l3.188 4.075-2.188 2.563c-0.419 0.494-1.231 0.488-1.644 0l-1.581-1.85c-0.6-0.7-1.444-1.063-2.394-1.081-0.925 0.019-1.781 0.438-2.356 1.163-0.412 0.519-1.281 0.519-1.694 0l-0.6-0.75 3.219-4.119zM1.981 30.025l6.506-8.325 0.306 0.381c1.175 1.469 3.644 1.475 4.819 0 0.206-0.256 0.506-0.406 0.831-0.406 0.331 0.006 0.631 0.137 0.838 0.381l1.581 1.844c0.587 0.688 1.444 1.081 2.344 1.081s1.756-0.394 2.344-1.081l1.925-2.256 6.525 8.35-28.019 0.031z"></path>
</svg>
