<!-- Generated by IcoMoon.io -->
<svg version="1.1" xmlns="http://www.w3.org/2000/svg" width="31" height="32" viewBox="0 0 31 32">
<title>volleyball-ball</title>
<path d="M15.5 0.5c-8.55 0-15.5 6.95-15.5 15.5s6.95 15.5 15.5 15.5 15.5-6.95 15.5-15.5-6.95-15.5-15.5-15.5zM26.25 24.131c-5.35 1.4-11.031 0.3-15.481-2.931 1.331-1.6 2.944-2.969 4.781-4.050 5.269 2.944 9.988 2.819 12.969 2.369-0.456 1.688-1.238 3.25-2.269 4.613zM28.925 17.431c-1.525 0.288-3.056 0.4-4.575 0.306 0.544-5.1-0.85-10.181-3.863-14.269 3.7 1.475 9.262 6.137 8.438 13.963zM17.15 2.612c3.894 3.931 5.788 9.4 5.212 14.881-2.050-0.35-4.031-1.063-5.887-2.106-0.063-4.55-1.606-8.887-4.431-12.431 2.513-0.656 4.331-0.438 5.106-0.344zM10.031 3.669c1.006 1.175 1.875 2.444 2.55 3.8-4.681 2.075-8.387 5.825-10.425 10.469-1.281-8.825 5.544-13.231 7.875-14.269zM3.075 21.275c1.456-5.344 5.25-9.725 10.288-11.969 0.719 1.95 1.094 4.025 1.119 6.15-3.912 2.325-6.894 5.844-8.55 10.056-1.2-1.212-2.181-2.644-2.856-4.238zM7.556 26.894c0.506-1.45 1.175-2.825 2.006-4.081 2.969 2.163 7.856 4.494 14.281 3.781-3.281 2.587-10.044 4.869-16.288 0.3z"></path>
</svg>
