<!-- Generated by IcoMoon.io -->
<svg version="1.1" xmlns="http://www.w3.org/2000/svg" width="32" height="32" viewBox="0 0 32 32">
<title>volleyball-ball-solid</title>
<path d="M14.462 15.217c-0.052-2.397-0.569-4.66-1.463-6.722l0.045 0.115c-5.675 2.65-9.844 7.65-11.269 13.55 0.877 1.98 2.076 3.664 3.549 5.062l0.007 0.006c1.499-5.102 4.75-9.289 9.043-11.961l0.088-0.051zM12.156 6.817c-0.989-1.705-2.181-3.162-3.57-4.404l-0.017-0.015c-5.688 3.112-9.050 9.556-7.813 16.387 2.087-5.194 6.15-9.5 11.4-11.969zM23.881 17.136c0.538-6.238-1.706-12.344-6.094-16.525-0.919-0.106-3.225-0.344-6.181 0.531 3.491 3.614 5.691 8.496 5.843 13.891l0.001 0.029c1.858 1.042 4.032 1.775 6.344 2.065l0.087 0.009zM16.087 17.73c-1.975 1.212-3.638 2.724-4.98 4.493l-0.032 0.044c5.125 3.581 11.531 4.694 17.344 2.988 1.198-1.591 2.11-3.472 2.615-5.513l0.022-0.106c-1.514 0.402-3.255 0.638-5.049 0.65l-0.007 0c-3.413-0.006-6.806-0.881-9.913-2.556zM9.943 23.961c-0.95 1.625-1.606 3.4-2.006 5.262 2.298 1.432 5.089 2.281 8.078 2.281 3.817 0 7.311-1.385 10.007-3.681l-0.022 0.018c-7.056 1.006-12.706-1.55-16.056-3.881zM21.212 1.424c3.456 4.4 5.156 10.075 4.663 15.85 0.011 0 0.025 0 0.038 0 1.991 0 3.906-0.325 5.695-0.924l-0.126 0.037c0-0.125 0.019-0.25 0.019-0.375 0-6.738-4.294-12.444-10.287-14.588z"></path>
</svg>
