<!-- Generated by IcoMoon.io -->
<svg version="1.1" xmlns="http://www.w3.org/2000/svg" width="36" height="32" viewBox="0 0 36 32">
<title>volume-up</title>
<path d="M21.432 12.098c-0.488-0.238-1.094-0.030-1.334 0.469-0.238 0.498-0.027 1.096 0.471 1.334 0.883 0.424 1.431 1.228 1.431 2.099s-0.549 1.675-1.431 2.099c-0.498 0.238-0.709 0.836-0.471 1.334 0.241 0.503 0.846 0.706 1.334 0.469 1.584-0.759 2.568-2.254 2.568-3.901s-0.984-3.143-2.568-3.902zM14.488 4c-0.369 0-0.745 0.136-1.049 0.441l-5.561 5.559h-6.379c-0.829 0-1.5 0.671-1.5 1.5v9c0 0.828 0.671 1.5 1.5 1.5h6.379l5.561 5.559c0.304 0.304 0.68 0.441 1.049 0.441 0.771 0 1.512-0.595 1.512-1.501v-20.997c0-0.907-0.742-1.501-1.512-1.501zM14 25.292l-5.293-5.292h-6.707v-8h6.707l5.293-5.292v18.584zM26.344 0.114c-0.493-0.255-1.096-0.070-1.354 0.419s-0.071 1.094 0.419 1.351c5.297 2.784 8.587 8.194 8.587 14.116s-3.29 11.331-8.587 14.116c-0.489 0.257-0.677 0.863-0.419 1.351 0.256 0.484 0.855 0.678 1.354 0.419 5.954-3.131 9.656-9.217 9.656-15.885s-3.701-12.754-9.656-15.885zM30 15.999c0-4.133-2.126-7.914-5.551-9.867-0.481-0.274-1.099-0.111-1.378 0.368s-0.111 1.090 0.372 1.366c2.798 1.597 4.538 4.713 4.538 8.133s-1.74 6.536-4.538 8.133c-0.483 0.276-0.65 0.887-0.372 1.366 0.269 0.461 0.879 0.652 1.378 0.368 3.424-1.953 5.551-5.734 5.551-9.867z"></path>
</svg>
