<!-- Generated by IcoMoon.io -->
<svg version="1.1" xmlns="http://www.w3.org/2000/svg" width="40" height="32" viewBox="0 0 40 32">
<title>volume-slash-solid</title>
<path d="M39.614 28.631l-4.313-3.333c1.725-2.748 2.699-5.943 2.699-9.298 0-5.958-2.983-11.474-7.978-14.752-0.698-0.458-1.636-0.265-2.094 0.434-0.459 0.698-0.264 1.636 0.434 2.094 4.142 2.718 6.614 7.287 6.614 12.224 0 2.674-0.748 5.224-2.076 7.441l-2.383-1.841c0.951-1.683 1.483-3.597 1.483-5.601 0-3.943-2.004-7.631-5.361-9.76-0.699-0.443-1.627-0.237-2.070 0.463s-0.236 1.627 0.463 2.071c2.484 1.576 3.968 4.316 3.968 7.226 0 1.326-0.314 2.598-0.887 3.742l-2.473-1.911c0.211-0.584 0.36-1.192 0.36-1.831 0-1.992-1.096-3.833-2.861-4.805-0.724-0.396-1.637-0.135-2.038 0.591-0.399 0.726-0.135 1.637 0.591 2.038 0.735 0.404 1.195 1.136 1.275 1.941l-4.967-3.839v-6.425c0-1.341-1.622-1.999-2.561-1.061l-3.107 3.106-9.491-7.336c-0.436-0.339-1.065-0.261-1.404 0.176l-1.228 1.579c-0.339 0.436-0.261 1.064 0.176 1.403l36.773 28.421c0.436 0.339 1.064 0.261 1.404-0.176l1.227-1.579c0.338-0.436 0.26-1.064-0.176-1.403zM2 11.5v9c0 0.828 0.671 1.5 1.5 1.5h6.379l5.561 5.559c0.939 0.939 2.561 0.279 2.561-1.061v-4.461l-15.265-11.797c-0.431 0.263-0.735 0.717-0.735 1.26z"></path>
</svg>
