<!-- Generated by IcoMoon.io -->
<svg version="1.1" xmlns="http://www.w3.org/2000/svg" width="32" height="32" viewBox="0 0 32 32">
<title>volume-mute</title>
<path d="M28.414 16l3.439-3.439c0.195-0.195 0.195-0.512 0-0.707l-0.707-0.707c-0.195-0.195-0.512-0.195-0.707 0l-3.44 3.439-3.439-3.439c-0.195-0.195-0.512-0.195-0.707 0l-0.707 0.707c-0.195 0.195-0.195 0.512 0 0.707l3.439 3.44-3.439 3.439c-0.195 0.195-0.195 0.512 0 0.707l0.707 0.707c0.195 0.195 0.512 0.195 0.707 0l3.44-3.439 3.439 3.439c0.195 0.195 0.512 0.195 0.707 0l0.707-0.707c0.195-0.195 0.195-0.512 0-0.707l-3.439-3.44zM14.488 4c-0.369 0-0.745 0.136-1.049 0.441l-5.561 5.559h-6.379c-0.829 0-1.5 0.671-1.5 1.5v9c0 0.828 0.671 1.5 1.5 1.5h6.379l5.561 5.559c0.304 0.304 0.68 0.441 1.049 0.441 0.771 0 1.512-0.595 1.512-1.501v-20.997c0-0.907-0.742-1.501-1.512-1.501zM14 25.292l-5.293-5.292h-6.707v-8h6.707l5.293-5.292v18.584z"></path>
</svg>
