<!-- Generated by IcoMoon.io -->
<svg version="1.1" xmlns="http://www.w3.org/2000/svg" width="24" height="32" viewBox="0 0 24 32">
<title>volume-down</title>
<path d="M21.432 12.161c-0.488-0.238-1.094-0.030-1.334 0.469-0.238 0.498-0.027 1.096 0.471 1.334 0.883 0.424 1.431 1.228 1.431 2.099s-0.549 1.675-1.431 2.099c-0.498 0.238-0.709 0.836-0.471 1.334 0.241 0.503 0.846 0.706 1.334 0.469 1.584-0.759 2.568-2.254 2.568-3.901s-0.984-3.143-2.568-3.902zM14.488 4.063c-0.369 0-0.745 0.136-1.049 0.441l-5.561 5.559h-6.379c-0.829 0-1.5 0.671-1.5 1.5v9c0 0.828 0.671 1.5 1.5 1.5h6.379l5.561 5.559c0.304 0.304 0.68 0.441 1.049 0.441 0.771 0 1.512-0.595 1.512-1.501v-20.997c0-0.907-0.742-1.501-1.512-1.501zM14 25.354l-5.293-5.292h-6.707v-8h6.707l5.293-5.292v18.584z"></path>
</svg>
