<!-- Generated by IcoMoon.io -->
<svg version="1.1" xmlns="http://www.w3.org/2000/svg" width="16" height="32" viewBox="0 0 16 32">
<title>volume-off</title>
<path d="M14.488 4c-0.001 0-0.003 0-0.005 0-0.409 0-0.778 0.167-1.044 0.437l-5.563 5.563h-6.377c-0.828 0-1.5 0.672-1.5 1.5v0 9c0 0.828 0.672 1.5 1.5 1.5v0h6.379l5.559 5.563c0.266 0.27 0.636 0.438 1.045 0.438 0.002 0 0.004 0 0.006 0h-0c0.771 0 1.512-0.595 1.512-1.5v-21c0-0.907-0.741-1.5-1.512-1.5zM14 25.292l-5.293-5.292h-6.707v-8h6.707l5.293-5.292v18.584z"></path>
</svg>
