<!-- Generated by IcoMoon.io -->
<svg version="1.1" xmlns="http://www.w3.org/2000/svg" width="36" height="32" viewBox="0 0 36 32">
<title>volume-up-solid</title>
<path d="M13.439 4.441l-5.561 5.559h-6.379c-0.829 0-1.5 0.671-1.5 1.5v9c0 0.828 0.671 1.5 1.5 1.5h6.379l5.561 5.559c0.939 0.939 2.561 0.279 2.561-1.061v-20.997c0-1.341-1.623-1.999-2.561-1.061zM28.022 1.248c-0.698-0.458-1.636-0.265-2.094 0.434-0.459 0.698-0.264 1.636 0.434 2.094 4.142 2.718 6.614 7.287 6.614 12.224s-2.472 9.506-6.614 12.224c-0.698 0.457-0.893 1.396-0.434 2.094 0.44 0.669 1.371 0.91 2.094 0.434 4.995-3.279 7.978-8.794 7.978-14.753s-2.983-11.473-7.978-14.752zM30 16c0-3.971-2.004-7.621-5.361-9.765-0.699-0.446-1.627-0.239-2.070 0.466s-0.236 1.638 0.463 2.085c2.484 1.587 3.968 4.283 3.968 7.214s-1.483 5.627-3.968 7.214c-0.699 0.446-0.906 1.379-0.463 2.085 0.407 0.648 1.32 0.946 2.070 0.466 3.357-2.144 5.361-5.794 5.361-9.765zM21.139 11.196c-0.724-0.396-1.637-0.135-2.038 0.591-0.399 0.726-0.135 1.637 0.591 2.038 0.807 0.443 1.308 1.277 1.308 2.176s-0.501 1.733-1.308 2.176c-0.726 0.401-0.99 1.313-0.591 2.038 0.402 0.729 1.316 0.988 2.038 0.591 1.764-0.972 2.861-2.813 2.861-4.805s-1.096-3.832-2.861-4.804z"></path>
</svg>
