<!-- Generated by IcoMoon.io -->
<svg version="1.1" xmlns="http://www.w3.org/2000/svg" width="24" height="32" viewBox="0 0 24 32">
<title>volume-down-solid</title>
<path d="M13.439 4.503l-5.561 5.56h-6.379c-0.829 0-1.5 0.671-1.5 1.5v9c0 0.828 0.671 1.5 1.5 1.5h6.379l5.561 5.559c0.939 0.939 2.561 0.279 2.561-1.061v-20.997c0-1.342-1.623-1.999-2.561-1.061zM21.139 11.258c-0.724-0.396-1.637-0.135-2.038 0.591-0.399 0.726-0.135 1.637 0.591 2.038 0.807 0.444 1.308 1.277 1.308 2.176s-0.501 1.733-1.308 2.176c-0.726 0.401-0.99 1.313-0.591 2.038 0.402 0.729 1.316 0.988 2.038 0.591 1.764-0.972 2.861-2.813 2.861-4.805s-1.096-3.832-2.861-4.804z"></path>
</svg>
