<!-- Generated by IcoMoon.io -->
<svg version="1.1" xmlns="http://www.w3.org/2000/svg" width="32" height="32" viewBox="0 0 32 32">
<title>volume-mute-solid</title>
<path d="M13.439 4.441l-5.561 5.559h-6.379c-0.829 0-1.5 0.671-1.5 1.5v9c0 0.828 0.671 1.5 1.5 1.5h6.379l5.561 5.559c0.939 0.939 2.561 0.279 2.561-1.061v-20.997c0-1.341-1.623-1.999-2.561-1.061zM28.852 16l2.852-2.852c0.394-0.394 0.394-1.033 0-1.426l-1.426-1.426c-0.394-0.394-1.032-0.394-1.426 0l-2.852 2.852-2.852-2.852c-0.394-0.394-1.032-0.394-1.426 0l-1.426 1.426c-0.394 0.394-0.394 1.033 0 1.426l2.852 2.852-2.852 2.852c-0.394 0.394-0.394 1.032 0 1.426l1.426 1.426c0.394 0.394 1.032 0.394 1.426 0l2.852-2.852 2.852 2.852c0.394 0.394 1.032 0.394 1.426 0l1.426-1.426c0.394-0.394 0.394-1.032 0-1.426l-2.852-2.852z"></path>
</svg>
