<!-- Generated by IcoMoon.io -->
<svg version="1.1" xmlns="http://www.w3.org/2000/svg" width="40" height="32" viewBox="0 0 40 32">
<title>volume-slash</title>
<path d="M16 6.706v2.325l2 1.575v-5.106c0-0.906-0.744-1.5-1.512-1.5-0.369 0-0.744 0.138-1.050 0.438l-2.319 2.319 1.581 1.244zM25.5 7.869c2.775 1.594 4.5 4.713 4.5 8.131 0 1.238-0.231 2.438-0.656 3.538l1.619 1.275c0.663-1.475 1.038-3.113 1.038-4.813 0-4.131-2.106-7.912-5.5-9.869-0.475-0.275-1.087-0.112-1.363 0.369-0.281 0.481-0.113 1.094 0.363 1.369zM27.425 1.887c5.287 2.781 8.575 8.188 8.575 14.113 0 2.613-0.669 5.106-1.837 7.331l1.594 1.256c1.431-2.587 2.244-5.519 2.244-8.588 0-6.669-3.694-12.756-9.637-15.887-0.494-0.256-1.094-0.069-1.35 0.419-0.262 0.494-0.075 1.094 0.413 1.356zM22.569 13.9c0.594 0.281 1.019 0.75 1.244 1.281l2.069 1.625c0.056-0.269 0.119-0.531 0.119-0.813 0-1.65-0.988-3.144-2.569-3.9-0.488-0.238-1.094-0.031-1.331 0.469s-0.031 1.1 0.469 1.338zM39.813 30.325l-38.375-30.212c-0.212-0.175-0.531-0.144-0.7 0.075l-0.625 0.781c-0.175 0.219-0.138 0.531 0.075 0.7l38.375 30.219c0.212 0.175 0.531 0.137 0.7-0.075l0.625-0.781c0.175-0.219 0.144-0.531-0.075-0.706zM27.425 30.113c-0.488 0.256-0.675 0.863-0.419 1.35 0.175 0.331 0.512 0.537 0.887 0.531 0.156 0 0.319-0.038 0.469-0.113 1.356-0.712 2.575-1.594 3.675-2.587l-1.606-1.262c-0.919 0.788-1.906 1.506-3.006 2.081zM16 25.294l-5.294-5.294h-6.706v-8h6.069l-2.537-2h-4.031c-0.831 0-1.5 0.669-1.5 1.5v9c0 0.825 0.669 1.5 1.5 1.5h6.381l5.563 5.563c0.306 0.306 0.681 0.438 1.050 0.438 0.769 0 1.512-0.594 1.512-1.5v-8.256l-2-1.575v8.625z"></path>
</svg>
