<!-- Generated by IcoMoon.io -->
<svg version="1.1" xmlns="http://www.w3.org/2000/svg" width="40" height="32" viewBox="0 0 40 32">
<title>vote-nay</title>
<path d="M24.594 9.613l-0.706-0.706c-0.1-0.1-0.225-0.144-0.356-0.144s-0.256 0.050-0.356 0.144l-3.175 3.181-3.181-3.181c-0.1-0.1-0.225-0.144-0.356-0.144s-0.256 0.050-0.356 0.144l-0.706 0.706c-0.194 0.194-0.194 0.512 0 0.706l3.181 3.181-3.181 3.181c-0.194 0.194-0.194 0.512 0 0.706l0.706 0.706c0.1 0.1 0.225 0.144 0.356 0.144s0.256-0.050 0.356-0.144l3.181-3.181 3.181 3.181c0.1 0.1 0.225 0.144 0.356 0.144s0.256-0.050 0.356-0.144l0.706-0.706c0.194-0.194 0.194-0.512 0-0.706l-3.188-3.181 3.181-3.181c0.2-0.194 0.2-0.512 0-0.706zM38 18h-4v-14.094c0-1.050-0.894-1.906-2-1.906h-24c-1.106 0-2 0.856-2 1.906v14.094h-4c-1.106 0-2 0.894-2 2v8c0 1.106 0.894 2 2 2h36c1.106 0 2-0.894 2-2v-8c0-1.106-0.894-2-2-2zM8 4h24v19h-24v-19zM38 28h-36v-8h4v3h-1.4c-0.331 0-0.6 0.225-0.6 0.5v1c0 0.275 0.269 0.5 0.6 0.5h30.8c0.331 0 0.6-0.225 0.6-0.5v-1c0-0.275-0.269-0.5-0.6-0.5h-1.4v-3h4v8z"></path>
</svg>
