<!-- Generated by IcoMoon.io -->
<svg version="1.1" xmlns="http://www.w3.org/2000/svg" width="40" height="32" viewBox="0 0 40 32">
<title>vote-yea-solid</title>
<path d="M38 20h-4v4h1.4c0.331 0 0.6 0.225 0.6 0.5v1c0 0.275-0.269 0.5-0.6 0.5h-30.8c-0.331 0-0.6-0.225-0.6-0.5v-1c0-0.275 0.269-0.5 0.6-0.5h1.4v-4h-4c-1.106 0-2 0.894-2 2v6c0 1.106 0.894 2 2 2h36c1.106 0 2-0.894 2-2v-6c0-1.106-0.894-2-2-2zM32 24v-19.981c0-1.119-0.906-2.019-2.019-2.019h-19.956c-1.119 0-2.025 0.906-2.025 2.019v19.981h24zM13.2 12.625l1.594-1.581c0.262-0.262 0.688-0.262 0.95 0.006l2.581 2.6 5.95-5.9c0.262-0.263 0.688-0.263 0.95 0.006l1.581 1.594c0.262 0.262 0.262 0.688-0.006 0.95l-8.019 7.95c-0.262 0.262-0.688 0.262-0.95-0.006l-4.631-4.669c-0.269-0.262-0.262-0.688 0-0.95z"></path>
</svg>
