<!-- Generated by IcoMoon.io -->
<svg version="1.1" xmlns="http://www.w3.org/2000/svg" width="40" height="32" viewBox="0 0 40 32">
<title>vr-cardboard</title>
<path d="M37 4h-34c-1.657 0-3 1.343-3 3v18c0 1.657 1.343 3 3 3h10.364c1.574 0 3.002-0.923 3.648-2.359l1.035-2.3c0.37-0.822 1.126-1.341 1.954-1.341s1.584 0.519 1.954 1.341l1.035 2.3c0.646 1.436 2.074 2.359 3.648 2.359h10.364c1.657 0 3-1.343 3-3v-18c0-1.657-1.343-3-3-3zM38 25c0 0.551-0.449 1-1 1h-10.364c-0.786 0-1.501-0.463-1.824-1.179l-1.035-2.3c-0.689-1.531-2.172-2.521-3.777-2.521s-3.089 0.989-3.777 2.521l-1.035 2.3c-0.322 0.716-1.038 1.179-1.824 1.179h-10.364c-0.551 0-1-0.449-1-1v-18c0-0.551 0.449-1 1-1h34c0.551 0 1 0.449 1 1v18zM11 10c-2.761 0-5 2.238-5 5s2.239 5 5 5 5-2.239 5-5-2.239-5-5-5zM11 18c-1.654 0-3-1.346-3-3s1.346-3 3-3 3 1.346 3 3-1.346 3-3 3zM29 10c-2.761 0-5 2.238-5 5s2.239 5 5 5 5-2.239 5-5-2.239-5-5-5zM29 18c-1.654 0-3-1.346-3-3s1.346-3 3-3 3 1.346 3 3-1.346 3-3 3z"></path>
</svg>
