<!-- Generated by IcoMoon.io -->
<svg version="1.1" xmlns="http://www.w3.org/2000/svg" width="40" height="32" viewBox="0 0 40 32">
<title>vr-cardboard-solid</title>
<path d="M38 4h-36c-1.104 0-2 0.896-2 2v20c0 1.104 0.896 2 2 2h10.014c1.574 0 3.002-0.923 3.647-2.359l1.734-3.852c0.493-1.096 1.502-1.789 2.605-1.789s2.112 0.692 2.605 1.789l1.734 3.852c0.646 1.436 2.074 2.359 3.648 2.359h10.014c1.104 0 2-0.896 2-2v-20c0-1.104-0.896-2-2-2zM10 19c-2.209 0-4-1.791-4-4s1.791-4 4-4 4 1.791 4 4-1.791 4-4 4zM30 19c-2.209 0-4-1.791-4-4s1.791-4 4-4 4 1.791 4 4-1.791 4-4 4z"></path>
</svg>
