<!-- Generated by IcoMoon.io -->
<svg version="1.1" xmlns="http://www.w3.org/2000/svg" width="40" height="32" viewBox="0 0 40 32">
<title>wagon-covered</title>
<path d="M34.009 16l5.688-10.604c0.193-0.446 0.305-0.964 0.305-1.509 0-2.146-1.74-3.886-3.886-3.886-0.004 0-0.008 0-0.011 0h0.001c-1.058 0-9.474 2-10.477 2-0.696-0.619-1.618-0.997-2.628-1h-6.001c-1.009 0.003-1.93 0.382-2.629 1.004l0.004-0.004c-1.005 0-9.407-2-10.476-2-0.003 0-0.006 0-0.009 0-2.146 0-3.886 1.74-3.886 3.886 0 0.534 0.108 1.042 0.302 1.505l-0.010-0.026 5.703 10.634v4.114c-1.235 1.26-1.997 2.988-1.997 4.893 0 3.862 3.131 6.993 6.992 6.993 0.002 0 0.003 0 0.005 0h-0c3.523 0 6.41-2.612 6.899-6h4.201c0.489 3.388 3.375 6 6.899 6 0.002 0 0.005 0 0.008 0 3.862 0 6.992-3.131 6.992-6.992 0-1.907-0.763-3.636-2.001-4.897l0.001 0.001v-4.111zM35.75 2.032c0.209-0.038 1.153-0.166 1.828 0.669 0.261 0.321 0.419 0.734 0.419 1.184 0 0.238-0.044 0.465-0.124 0.675l0.004-0.013-5.064 9.453h-5.813v-9.026c-0.006-0.394-0.070-0.772-0.183-1.127l0.008 0.028zM15.294 4c0.346-0.594 0.966-1.013 1.706-1.013h6c0.739 0 1.359 0.419 1.706 1.013 0.129 0.221 0.294 0.616 0.294 0.974v9.026h-10v-9.026c0-0.359 0.166-0.753 0.294-0.974zM2.419 2.703c0.353-0.431 0.884-0.704 1.48-0.704 0.109 0 0.215 0.009 0.319 0.026l-0.011-0.002 8.969 1.847c-0.106 0.329-0.17 0.707-0.176 1.1l-0 0.003v9.026h-5.801l-5.087-9.482c-0.071-0.189-0.112-0.408-0.112-0.636 0-0.449 0.159-0.862 0.424-1.183l-0.003 0.003zM15.899 24h-3.899v-3.899c1.963 0.415 3.484 1.935 3.893 3.866l0.006 0.033zM10 24h-3.899c0.415-1.963 1.935-3.484 3.866-3.893l0.033-0.006zM6.101 26h3.899v3.899c-1.963-0.415-3.484-1.935-3.893-3.866l-0.006-0.033zM12 29.899v-3.899h3.899c-0.415 1.963-1.935 3.484-3.866 3.893l-0.033 0.006zM33.899 24h-3.899v-3.899c1.963 0.415 3.484 1.935 3.893 3.866l0.006 0.033zM28 24h-3.899c0.415-1.963 1.935-3.484 3.866-3.893l0.033-0.006zM24.101 26h3.899v3.899c-1.963-0.415-3.484-1.935-3.893-3.866l-0.006-0.033zM30 29.899v-3.899h3.899c-0.415 1.963-1.935 3.484-3.866 3.893l-0.033 0.006zM32.008 18.703c-0.878-0.438-1.912-0.697-3.006-0.703h-0.002c-3.524 0-6.41 2.612-6.899 6h-4.201c-0.489-3.388-3.375-6-6.899-6-1.096 0.006-2.13 0.265-3.048 0.721l0.040-0.018v-2.703h24.015z"></path>
</svg>
