<!-- Generated by IcoMoon.io -->
<svg version="1.1" xmlns="http://www.w3.org/2000/svg" width="40" height="32" viewBox="0 0 40 32">
<title>wagon-covered-solid</title>
<path d="M14 14v-8.195c0-2.305-1.583-4.259-3.714-4.586l-7.814-1.195c-1.625-0.25-2.908 1.459-2.331 3.106l4.283 10.87zM37.528 0.024l-7.813 1.195c-2.133 0.326-3.716 2.281-3.716 4.586v8.195h9.576l4.283-10.87c0.578-1.647-0.704-3.354-2.331-3.106zM24 3.5c0-1.381-1.119-2.5-2.5-2.5v0h-3c-1.381 0-2.5 1.119-2.5 2.5v0 10.5h8zM35 16h-30c-0.552 0-1 0.448-1 1v0 2c0 0.552 0.448 1 1 1v0h1.112c-0.019 0.019-0.043 0.031-0.063 0.050-1.283 1.269-2.077 3.030-2.077 4.976 0 3.866 3.134 7 7 7 3.523 0 6.437-2.602 6.927-5.989l0.004-0.038h4.191c0.506 3.407 3.411 5.991 6.919 5.991 3.861 0 6.991-3.13 6.991-6.991 0-1.934-0.785-3.685-2.055-4.95l-0-0c-0.019-0.019-0.042-0.031-0.063-0.050h1.112c0.552 0 1-0.448 1-1v0-2c0-0.552-0.448-1-1-1v0zM10 28.859c-1.412-0.356-2.503-1.447-2.853-2.832l-0.006-0.027h2.859zM10 24h-2.859c0.355-1.413 1.446-2.503 2.832-2.853l0.027-0.006zM13.828 27.828c-0.491 0.487-1.109 0.847-1.801 1.025l-0.027 0.006v-2.859h2.859c-0.184 0.719-0.543 1.337-1.031 1.828l0-0zM12 24v-2.859c1.413 0.355 2.503 1.446 2.853 2.832l0.006 0.027zM28 28.859c-1.412-0.356-2.503-1.447-2.853-2.832l-0.006-0.027h2.859zM28 24h-2.859c0.355-1.413 1.446-2.503 2.832-2.853l0.027-0.006zM31.828 27.828c-0.491 0.487-1.109 0.847-1.801 1.025l-0.027 0.006v-2.859h2.859c-0.184 0.719-0.543 1.337-1.031 1.828l0-0zM30 24v-2.859c1.413 0.355 2.503 1.446 2.853 2.832l0.006 0.027z"></path>
</svg>
