<!-- Generated by IcoMoon.io -->
<svg version="1.1" xmlns="http://www.w3.org/2000/svg" width="28" height="32" viewBox="0 0 28 32">
<title>walker-solid</title>
<path d="M26 24.555v-18.555c0-3.314-2.686-6-6-6v0h-8.084c-0.006-0-0.013-0-0.020-0-2.956 0-5.41 2.146-5.891 4.965l-0.005 0.035-5.985 25.486c-0.009 0.052-0.015 0.111-0.015 0.172 0 0.491 0.354 0.9 0.821 0.984l0.006 0.001 1.971 0.343c0.051 0.009 0.111 0.015 0.171 0.015 0.491 0 0.9-0.354 0.984-0.821l0.001-0.006 4.033-17.172h14.012v10.555c-1.204 0.704-2 1.991-2 3.464 0 2.209 1.791 4 4 4s4-1.791 4-4c0-1.473-0.796-2.76-1.981-3.454l-0.019-0.010zM22 10h-13.073l1.016-4.328c0.161-0.954 0.981-1.672 1.968-1.672 0.002 0 0.004 0 0.005 0h8.083c1.105 0 2 0.895 2 2v0zM24 29c-0.552 0-1-0.448-1-1s0.448-1 1-1c0.552 0 1 0.448 1 1v0c0 0.552-0.448 1-1 1v0z"></path>
</svg>
