<!-- Generated by IcoMoon.io -->
<svg version="1.1" xmlns="http://www.w3.org/2000/svg" width="20" height="32" viewBox="0 0 20 32">
<title>walking-solid</title>
<path d="M13 6c1.656 0 3-1.344 3-3s-1.344-3-3-3-3 1.344-3 3 1.344 3 3 3zM18.906 15.319l-1.456-0.738-0.606-1.838c-0.919-2.787-3.481-4.738-6.387-4.744-2.25-0.006-3.494 0.631-5.831 1.575-1.35 0.544-2.456 1.575-3.106 2.888l-0.419 0.85c-0.488 0.988-0.094 2.188 0.887 2.681 0.975 0.494 2.162 0.094 2.656-0.894l0.419-0.85c0.219-0.438 0.581-0.781 1.031-0.963l1.675-0.675-0.95 3.794c-0.325 1.3 0.025 2.681 0.931 3.675l3.744 4.087c0.45 0.494 0.769 1.087 0.931 1.731l1.144 4.581c0.269 1.069 1.356 1.725 2.425 1.456s1.725-1.356 1.456-2.425l-1.387-5.563c-0.162-0.644-0.481-1.244-0.931-1.731l-2.844-3.106 1.075-4.294 0.344 1.031c0.331 1.006 1.044 1.837 1.981 2.313l1.456 0.738c0.975 0.494 2.163 0.094 2.656-0.894 0.481-0.981 0.087-2.194-0.894-2.688zM4.6 24.113c-0.2 0.506-0.5 0.962-0.888 1.344l-3.125 3.131c-0.781 0.781-0.781 2.050 0 2.831s2.044 0.781 2.825 0l3.713-3.712c0.381-0.381 0.681-0.837 0.887-1.344l0.844-2.113c-3.456-3.769-2.419-2.613-2.963-3.356l-1.294 3.219z"></path>
</svg>
