<!-- Generated by IcoMoon.io -->
<svg version="1.1" xmlns="http://www.w3.org/2000/svg" width="24" height="32" viewBox="0 0 24 32">
<title>walkie-talkie</title>
<path d="M6.5 12h11c0.276 0 0.5-0.224 0.5-0.5v0-1c0-0.276-0.224-0.5-0.5-0.5v0h-11c-0.276 0-0.5 0.224-0.5 0.5v0 1c0 0.276 0.224 0.5 0.5 0.5v0zM22 6h-2v-1c0-0.552-0.448-1-1-1v0h-2c-0.552 0-1 0.448-1 1v0 1h-2v-1c0-0.552-0.448-1-1-1v0h-2c-0.552 0-1 0.448-1 1v0 1h-4v-5.5c0-0.276-0.224-0.5-0.5-0.5v0h-1c-0.276 0-0.5 0.224-0.5 0.5v0 5.5h-2c-1.103 0.003-1.997 0.897-2 2v11.172c0 0.552 0.224 1.052 0.586 1.414v0l1.414 1.414v7c0 1.657 1.343 3 3 3v0h14c1.657 0 3-1.343 3-3v0-7l1.414-1.414c0.362-0.362 0.586-0.862 0.586-1.414v-11.171c-0.003-1.103-0.897-1.997-2-2h-0zM22 19.172l-2 2v7.828c0 0.552-0.448 1-1 1v0h-14c-0.552 0-1-0.448-1-1v0-7.828l-2-2.001v-11.171h20zM6.5 16h11c0.276 0 0.5-0.224 0.5-0.5v0-1c0-0.276-0.224-0.5-0.5-0.5v0h-11c-0.276 0-0.5 0.224-0.5 0.5v0 1c0 0.276 0.224 0.5 0.5 0.5v0zM6.5 20h11c0.276 0 0.5-0.224 0.5-0.5v0-1c0-0.276-0.224-0.5-0.5-0.5v0h-11c-0.276 0-0.5 0.224-0.5 0.5v0 1c0 0.276 0.224 0.5 0.5 0.5v0z"></path>
</svg>
