<!-- Generated by IcoMoon.io -->
<svg version="1.1" xmlns="http://www.w3.org/2000/svg" width="24" height="32" viewBox="0 0 24 32">
<title>walkie-talkie-solid</title>
<path d="M22 6h-2v-1c0-0.552-0.448-1-1-1v0h-2c-0.552 0-1 0.448-1 1v0 1h-2v-1c0-0.552-0.448-1-1-1v0h-2c-0.552 0-1 0.448-1 1v0 1h-3v-5c0-0.552-0.448-1-1-1v0h-1c-0.552 0-1 0.448-1 1v0 5h-2c-1.103 0.003-1.997 0.897-2 2v11.172c0 0 0 0 0 0 0 0.552 0.224 1.052 0.586 1.414l1.414 1.414v7c0 1.657 1.343 3 3 3v0h14c1.657 0 3-1.343 3-3v0-7l1.414-1.414c0.362-0.362 0.586-0.862 0.586-1.414 0-0 0-0 0-0v0-11.171c-0.003-1.103-0.897-1.997-2-2h-0zM18 19.5c0 0.276-0.224 0.5-0.5 0.5v0h-11c-0.276 0-0.5-0.224-0.5-0.5v0-1c0-0.276 0.224-0.5 0.5-0.5v0h11c0.276 0 0.5 0.224 0.5 0.5v0zM18 15.5c0 0.276-0.224 0.5-0.5 0.5v0h-11c-0.276 0-0.5-0.224-0.5-0.5v0-1c0-0.276 0.224-0.5 0.5-0.5v0h11c0.276 0 0.5 0.224 0.5 0.5v0zM18 11.5c0 0.276-0.224 0.5-0.5 0.5v0h-11c-0.276 0-0.5-0.224-0.5-0.5v0-1c0-0.276 0.224-0.5 0.5-0.5v0h11c0.276 0 0.5 0.224 0.5 0.5v0z"></path>
</svg>
