<!-- Generated by IcoMoon.io -->
<svg version="1.1" xmlns="http://www.w3.org/2000/svg" width="28" height="32" viewBox="0 0 28 32">
<title>walker</title>
<path d="M25.053 24.158v-19.158c0-2.761-2.239-5-5-5v0h-8.375c-0.001 0-0.003 0-0.005 0-2.33 0-4.288 1.595-4.84 3.754l-0.008 0.035-6.811 27.348c-0.009 0.036-0.015 0.078-0.015 0.121 0 0.233 0.16 0.429 0.376 0.484l0.003 0.001 0.971 0.242c0.036 0.009 0.078 0.015 0.121 0.015 0.233 0 0.429-0.159 0.484-0.375l0.001-0.003 3.392-13.621h17.705v6.125c-1.778 0.437-3.076 2.017-3.076 3.901 0 2.215 1.796 4.011 4.011 4.011s4.011-1.796 4.011-4.011c0-1.837-1.234-3.385-2.919-3.861l-0.028-0.007zM8.766 4.272c0.335-1.315 1.509-2.272 2.907-2.272 0.001 0 0.002 0 0.004 0h8.375c1.657 0 3 1.343 3 3v0 7h-16.209zM5.846 16l0.5-2h16.708v2zM24 30c-1.105 0-2-0.895-2-2s0.895-2 2-2c1.105 0 2 0.895 2 2v0c0 1.105-0.895 2-2 2v0z"></path>
</svg>
