<!-- Generated by IcoMoon.io -->
<svg version="1.1" xmlns="http://www.w3.org/2000/svg" width="20" height="32" viewBox="0 0 20 32">
<title>walking</title>
<path d="M19.094 15.456l-1.225-1.319-0.544-1.781c-0.494-1.631-1.456-2.987-2.7-3.925 1.206-0.838 2-2.231 2-3.806 0-2.55-2.075-4.625-4.625-4.625s-4.625 2.075-4.625 4.625c0 0.981 0.306 1.894 0.831 2.644-0.919 0.237-1.775 0.612-2.831 1.087l-0.537 0.238c-1.5 0.656-2.712 1.881-3.431 3.45l-0.738 1.75c-0.456 1.075-0.356 2.231 0.262 3.169 0.606 0.913 1.644 1.475 2.719 1.475 0.781 0 1.5-0.294 2.056-0.806 0.013 0.087 0.025 0.169 0.037 0.256l-0.888 2.431-1.019 2.788-2.962 3.275c-1.169 1.275-1.169 3.275 0 4.556 0.6 0.656 1.45 1.038 2.325 1.038s1.725-0.375 2.325-1.038l2.919-3.2c0.6-0.663 1.063-1.431 1.375-2.281l0.544-1.494 0.662 0.669c0.031 0.031 0.050 0.081 0.056 0.119l0.975 4.637c0.319 1.519 1.631 2.613 3.119 2.613 0.25 0 0.506-0.031 0.756-0.094 1.713-0.431 2.75-2.163 2.375-3.931l-0.975-4.631c-0.175-0.825-0.488-1.6-0.919-2.294 0.113 0.012 0.225 0.019 0.344 0.019 1.269 0 2.431-0.788 2.962-2.012 0.538-1.219 0.294-2.6-0.625-3.6zM12 2c1.45 0 2.625 1.175 2.625 2.625s-1.175 2.625-2.625 2.625-2.625-1.175-2.625-2.625 1.175-2.625 2.625-2.625zM7.938 24.769c-0.219 0.606-0.55 1.15-0.975 1.619l-2.919 3.2c-0.231 0.256-0.538 0.387-0.85 0.387-0.306 0-0.613-0.131-0.85-0.387-0.469-0.512-0.469-1.344 0-1.856l2.919-3.2c0.194-0.212 0.344-0.462 0.444-0.738l1.019-2.788 0.006 0.006 0.063 0.075 1.813 1.831-0.669 1.85zM16.756 19.075c-0.275 0-0.563-0.113-0.813-0.387l-1.469-1.581c-0.313-0.337-0.55-0.756-0.688-1.213-0.713-2.344-0.719-2.494-1.094-3.031l-1.306 5.731 2.688 2.712c0.65 0.663 1.106 1.512 1.3 2.456l0.975 4.631c0.15 0.706-0.25 1.413-0.9 1.575-0.094 0.025-0.188 0.031-0.275 0.031-0.588 0-1.044-0.475-1.162-1.019l-0.975-4.637c-0.088-0.431-0.294-0.813-0.594-1.113l-3.944-3.994c-0.725-0.863-0.981-1.95-0.744-2.981l0.988-4.331c-0.563 0.2-1.131 0.456-2.213 0.938-0.5 0.219-0.906 0.625-1.144 1.15l-0.7 1.662c-0.231 0.544-0.631 0.769-1.038 0.769-0.781 0-1.575-0.838-1.137-1.869l0.719-1.7c0.519-1.137 1.369-1.994 2.413-2.45 2.138-0.944 3.044-1.425 4.787-1.425 2.269 0 4.269 1.581 4.988 3.938l0.644 2.119c0.019 0.063 0.050 0.125 0.1 0.175l1.462 1.581c0.881 0.956 0.056 2.262-0.869 2.262z"></path>
</svg>
