<!-- Generated by IcoMoon.io -->
<svg version="1.1" xmlns="http://www.w3.org/2000/svg" width="32" height="32" viewBox="0 0 32 32">
<title>wallet</title>
<path d="M24 16c-1.104 0-2 0.896-2 2s0.896 2 2 2 2-0.896 2-2-0.896-2-2-2zM29 6h-1v-1c0-1.657-1.343-3-3-3h-19c-3.314 0-6 2.686-6 6v16c0 3.314 2.686 6 6 6h22c2.209 0 4-1.791 4-4v-17c0-1.657-1.343-3-3-3zM30 26c0 1.102-0.898 2-2 2h-22c-2.206 0-4-1.794-4-4v-16c0-2.206 1.794-4 4-4h19c0.551 0 1 0.449 1 1v1h-19c-0.553 0-1 0.447-1 1s0.447 1 1 1h22c0.551 0 1 0.449 1 1v17z"></path>
</svg>
