<!-- Generated by IcoMoon.io -->
<svg version="1.1" xmlns="http://www.w3.org/2000/svg" width="32" height="32" viewBox="0 0 32 32">
<title>wand-magic-solid</title>
<path d="M5 10l1.666-3.333 3.334-1.667-3.334-1.667-1.666-3.333-1.666 3.334-3.334 1.666 3.334 1.667 1.666 3.333zM14 6l1-2 2-1-2-1-1-2-1 2-2 1 2 1 1 2zM28.666 21.333l-1.666-3.333-1.666 3.333-3.334 1.667 3.334 1.667 1.666 3.333 1.666-3.333 3.334-1.667-3.334-1.667zM25 12c0.552 0 1-0.447 1-1v-1.748l5.742-6.364c0.358-0.395 0.343-1.001-0.034-1.378l-1.218-1.217c-0.377-0.377-0.983-0.392-1.378-0.034l-17.449 15.741h-2.662c-0.553 0-1 0.448-1 1v2.304l-7.342 6.623c-0.848 0.767-0.881 2.089-0.073 2.898l2.589 2.589c0.809 0.809 2.13 0.776 2.897-0.073l17.449-19.342h1.479z"></path>
</svg>
