<!-- Generated by IcoMoon.io -->
<svg version="1.1" xmlns="http://www.w3.org/2000/svg" width="32" height="32" viewBox="0 0 32 32">
<title>wand-magic</title>
<path d="M28.666 21.333l-1.666-3.333-1.666 3.333-3.334 1.667 3.334 1.667 1.666 3.333 1.666-3.333 3.334-1.667-3.334-1.667zM27 24c-0.552 0-1-0.448-1-1s0.448-1 1-1 1 0.448 1 1-0.448 1-1 1zM14 6l1-2 2-1-2-1-1-2-1 2-2 1 2 1 1 2zM25 12c0.552 0 1-0.447 1-1v-1.748l5.742-6.364c0.358-0.395 0.343-1.001-0.034-1.378l-1.218-1.217c-0.181-0.181-0.431-0.293-0.707-0.293-0 0-0.001 0-0.001 0h0c-0.24 0-0.48 0.086-0.671 0.258l-17.449 15.742h-2.662c-0.553 0-1 0.448-1 1v2.304l-7.342 6.623c-0.848 0.767-0.881 2.089-0.073 2.898l2.589 2.589c0.391 0.392 0.903 0.586 1.414 0.586 0.544 0 1.087-0.221 1.483-0.658l17.449-19.342h1.479zM4.589 30l-2.591-2.587 26.461-23.872-23.87 26.459zM5 10l1.666-3.333 3.334-1.667-3.334-1.667-1.666-3.333-1.666 3.333-3.334 1.667 3.334 1.667 1.666 3.333zM5 4c0.553 0 1 0.447 1 1s-0.447 1-1 1-1-0.447-1-1 0.447-1 1-1z"></path>
</svg>
