<!-- Generated by IcoMoon.io -->
<svg version="1.1" xmlns="http://www.w3.org/2000/svg" width="40" height="32" viewBox="0 0 40 32">
<title>warehouse</title>
<path d="M32 14h-24c-1.106 0-2 0.9-2 2v15.5c0 0.275 0.225 0.5 0.5 0.5h1c0.275 0 0.5-0.225 0.5-0.5v-3.5h24v3.5c0 0.275 0.225 0.5 0.5 0.5h1c0.275 0 0.5-0.225 0.5-0.5v-15.5c0-1.1-0.894-2-2-2zM32 26h-24v-4h24v4zM32 20h-24v-4h24v4zM38.163 7.394l-17-7.162c-0.738-0.313-1.581-0.313-2.325 0l-17 7.162c-1.119 0.469-1.837 1.556-1.837 2.763v21.344c0 0.275 0.225 0.5 0.5 0.5h1c0.275 0 0.5-0.225 0.5-0.5v-21.344c0-0.406 0.237-0.762 0.613-0.925l17-7.162c0.244-0.106 0.531-0.106 0.775 0l17 7.162c0.375 0.156 0.612 0.519 0.612 0.925v21.344c0 0.275 0.225 0.5 0.5 0.5h1c0.275 0 0.5-0.225 0.5-0.5v-21.344c0-1.206-0.719-2.294-1.837-2.763z"></path>
</svg>
