<!-- Generated by IcoMoon.io -->
<svg version="1.1" xmlns="http://www.w3.org/2000/svg" width="40" height="32" viewBox="0 0 40 32">
<title>warehouse-alt-solid</title>
<path d="M38.156 7.313l-17.006-7.081c-0.341-0.145-0.737-0.23-1.153-0.23s-0.812 0.084-1.173 0.237l0.020-0.007-17 7.081c-1.113 0.469-1.844 1.556-1.844 2.769v21.419c0 0.275 0.225 0.5 0.5 0.5h3c0.275 0 0.5-0.225 0.5-0.5v-18.5c0-0.55 0.45-1 1-1h30c0.55 0 1 0.45 1 1v18.5c0 0.275 0.225 0.5 0.5 0.5h3c0.275 0 0.5-0.225 0.5-0.5v-21.419c0-1.213-0.731-2.3-1.844-2.769zM19 26h-10c-0.55 0-1 0.45-1 1v4c0 0.55 0.45 1 1 1h10c0.55 0 1-0.45 1-1v-4c0-0.55-0.45-1-1-1zM31 26h-8c-0.55 0-1 0.45-1 1v4c0 0.55 0.45 1 1 1h8c0.55 0 1-0.45 1-1v-4c0-0.55-0.45-1-1-1zM19 18h-10c-0.55 0-1 0.45-1 1v4c0 0.55 0.45 1 1 1h10c0.55 0 1-0.45 1-1v-4c0-0.55-0.45-1-1-1z"></path>
</svg>
