<!-- Generated by IcoMoon.io -->
<svg version="1.1" xmlns="http://www.w3.org/2000/svg" width="40" height="32" viewBox="0 0 40 32">
<title>warehouse-solid</title>
<path d="M31.5 22h-22.975c-0.275 0-0.5 0.225-0.5 0.5l-0.006 3c0 0.275 0.225 0.5 0.5 0.5h22.981c0.275 0 0.5-0.225 0.5-0.5v-3c0-0.275-0.225-0.5-0.5-0.5zM31.5 28h-22.994c-0.275 0-0.5 0.225-0.5 0.5l-0.006 3c0 0.275 0.225 0.5 0.5 0.5h23c0.275 0 0.5-0.225 0.5-0.5v-3c0-0.275-0.225-0.5-0.5-0.5zM31.5 16h-22.962c-0.275 0-0.5 0.225-0.5 0.5l-0.006 3c0 0.275 0.225 0.5 0.5 0.5h22.969c0.275 0 0.5-0.225 0.5-0.5v-3c0-0.275-0.225-0.5-0.5-0.5zM38.156 7.313l-17.006-7.081c-0.341-0.145-0.737-0.23-1.153-0.23s-0.812 0.084-1.173 0.237l0.020-0.007-17 7.081c-1.113 0.469-1.844 1.556-1.844 2.769v21.419c0 0.275 0.225 0.5 0.5 0.5h5c0.275 0 0.5-0.225 0.5-0.5v-15.5c0-1.1 0.912-2 2.037-2h23.925c1.125 0 2.038 0.9 2.038 2v15.5c0 0.275 0.225 0.5 0.5 0.5h5c0.275 0 0.5-0.225 0.5-0.5v-21.419c0-1.213-0.731-2.3-1.844-2.769z"></path>
</svg>
