<!-- Generated by IcoMoon.io -->
<svg version="1.1" xmlns="http://www.w3.org/2000/svg" width="28" height="32" viewBox="0 0 28 32">
<title>washer</title>
<path d="M24-0.063h-20c-2.209 0-4 1.791-4 4v0 26c0 1.105 0.895 2 2 2v0h24c1.105 0 2-0.895 2-2v0-26c0-2.209-1.791-4-4-4v0zM26 29.938h-24v-26c0-1.105 0.895-2 2-2v0h20c1.105 0 2 0.895 2 2v0zM5 5.938c0.552 0 1-0.448 1-1s-0.448-1-1-1c-0.552 0-1 0.448-1 1v0c0 0.552 0.448 1 1 1v0zM9 5.938c0.552 0 1-0.448 1-1s-0.448-1-1-1c-0.552 0-1 0.448-1 1v0c0 0.552 0.448 1 1 1v0zM14 7.938c-5.523 0-10 4.477-10 10s4.477 10 10 10c5.523 0 10-4.477 10-10v0c0-5.523-4.477-10-10-10v0zM14 25.938c-4.418 0-8-3.582-8-8s3.582-8 8-8c4.418 0 8 3.582 8 8v0c-0.005 4.416-3.584 7.995-8 8h-0zM16.304 17.709c-0.583 0.604-1.4 0.979-2.304 0.979s-1.721-0.375-2.303-0.978l-0.001-0.001c-0.589 0.604-1.41 0.979-2.32 0.979-0 0-0.001 0-0.001 0h0c-0.482 0-0.921-0.134-1.332-0.323 0.224 3.106 2.795 5.573 5.957 5.573s5.733-2.467 5.957-5.572c-0.411 0.188-0.85 0.323-1.332 0.323-0 0-0.001 0-0.001 0-0.909 0-1.731-0.375-2.319-0.978l-0.001-0.001z"></path>
</svg>
