<!-- Generated by IcoMoon.io -->
<svg version="1.1" xmlns="http://www.w3.org/2000/svg" width="28" height="32" viewBox="0 0 28 32">
<title>washer-solid</title>
<path d="M24 0h-20c-2.209 0-4 1.791-4 4v0 26c0 1.105 0.895 2 2 2v0h24c1.105 0 2-0.895 2-2v0-26c0-2.209-1.791-4-4-4v0zM11.5 4c0.828 0 1.5 0.672 1.5 1.5s-0.672 1.5-1.5 1.5c-0.828 0-1.5-0.672-1.5-1.5v0c0-0.828 0.672-1.5 1.5-1.5v0zM4 5.5c0-0.828 0.672-1.5 1.5-1.5s1.5 0.672 1.5 1.5c0 0.828-0.672 1.5-1.5 1.5v0c-0.828 0-1.5-0.672-1.5-1.5v0zM14 28c-4.971 0-9-4.029-9-9s4.029-9 9-9c4.971 0 9 4.029 9 9v0c0 4.971-4.029 9-9 9v0zM16.304 17.771c-0.583 0.604-1.4 0.979-2.304 0.979s-1.721-0.375-2.303-0.978l-0.001-0.001c-0.589 0.605-1.411 0.98-2.32 0.98-0.878 0-1.675-0.35-2.258-0.918l0.001 0.001c-0.069 0.347-0.111 0.749-0.118 1.16l-0 0.006c0 3.866 3.134 7 7 7s7-3.134 7-7v0c-0.007-0.418-0.049-0.82-0.125-1.212l0.007 0.044c-0.582 0.567-1.379 0.917-2.258 0.917-0.909 0-1.731-0.375-2.319-0.979l-0.001-0.001z"></path>
</svg>
