<!-- Generated by IcoMoon.io -->
<svg version="1.1" xmlns="http://www.w3.org/2000/svg" width="24" height="32" viewBox="0 0 24 32">
<title>watch</title>
<path d="M20 7.056v-5.556c0-0.825-0.675-1.5-1.5-1.5h-13c-0.825 0-1.5 0.675-1.5 1.5v5.556c-2.456 2.2-4 5.388-4 8.944s1.544 6.744 4 8.944v5.556c0 0.825 0.675 1.5 1.5 1.5h13c0.825 0 1.5-0.675 1.5-1.5v-5.556c2.456-2.2 4-5.387 4-8.944s-1.544-6.744-4-8.944zM6 2h12v3.606c-1.762-1.025-3.813-1.606-6-1.606s-4.237 0.581-6 1.606v-3.606zM18 30h-12v-3.606c1.763 1.019 3.813 1.606 6 1.606s4.238-0.587 6-1.606v3.606zM12 26c-5.537 0-10-4.488-10-10s4.469-10 10-10c5.525 0 10 4.475 10 10s-4.475 10-10 10zM15.063 20.238l-3.756-2.731c-0.194-0.144-0.306-0.369-0.306-0.606v-7.506c0-0.412 0.338-0.75 0.75-0.75h0.5c0.412 0 0.75 0.338 0.75 0.75v6.869l3.238 2.356c0.337 0.244 0.406 0.712 0.163 1.050l-0.294 0.406c-0.238 0.331-0.706 0.406-1.044 0.163z"></path>
</svg>
