<!-- Generated by IcoMoon.io -->
<svg version="1.1" xmlns="http://www.w3.org/2000/svg" width="24" height="32" viewBox="0 0 24 32">
<title>watch-fitness-solid</title>
<path d="M4 30c0 1.104 0.896 2 2 2h12c1.104 0 2-0.896 2-2v-1h-16v1zM20 2c0-1.104-0.896-2-2-2h-12c-1.104 0-2 0.896-2 2v1h16v-1zM20 5h-16c-2.209 0-4 1.791-4 4v14c0 2.209 1.791 4 4 4h16c2.209 0 4-1.791 4-4v-14c0-2.209-1.791-4-4-4zM17.911 16.388l-5.292 5.352c-0.158 0.16-0.377 0.259-0.619 0.259s-0.461-0.099-0.619-0.259l-0-0-5.292-5.352c-1.538-1.555-1.447-4.133 0.271-5.567 1.498-1.251 3.728-1.026 5.101 0.363l0.539 0.545 0.539-0.545c1.373-1.389 3.604-1.614 5.101-0.363 1.718 1.435 1.808 4.013 0.271 5.567z"></path>
</svg>
