<!-- Generated by IcoMoon.io -->
<svg version="1.1" xmlns="http://www.w3.org/2000/svg" width="24" height="32" viewBox="0 0 24 32">
<title>watch-calculator</title>
<path d="M8.5 14.5h-2c-0.276 0-0.5 0.224-0.5 0.5v0 2c0 0.276 0.224 0.5 0.5 0.5v0h2c0.276 0 0.5-0.224 0.5-0.5v0-2c0-0.276-0.224-0.5-0.5-0.5v0zM13 19h-2c-0.276 0-0.5 0.224-0.5 0.5v0 2c0 0.276 0.224 0.5 0.5 0.5v0h2c0.276 0 0.5-0.224 0.5-0.5v0-2c0-0.276-0.224-0.5-0.5-0.5v0zM8.5 19h-2c-0.276 0-0.5 0.224-0.5 0.5v0 2c0 0.276 0.224 0.5 0.5 0.5v0h2c0.276 0 0.5-0.224 0.5-0.5v0-2c0-0.276-0.224-0.5-0.5-0.5v0zM17.5 19h-2c-0.276 0-0.5 0.224-0.5 0.5v0 2c0 0.276 0.224 0.5 0.5 0.5v0h2c0.276 0 0.5-0.224 0.5-0.5v0-2c0-0.276-0.224-0.5-0.5-0.5v0zM13 14.5h-2c-0.276 0-0.5 0.224-0.5 0.5v0 2c0 0.276 0.224 0.5 0.5 0.5v0h2c0.276 0 0.5-0.224 0.5-0.5v0-2c0-0.276-0.224-0.5-0.5-0.5v0zM20 5.101v-3.101c0-1.105-0.895-2-2-2v0h-12c-1.105 0-2 0.895-2 2v0 3.101c-2.299 0.481-4 2.492-4 4.899 0 0 0 0 0 0v-0 12c0 0 0 0 0 0 0 2.407 1.701 4.418 3.967 4.893l0.033 0.006v3.101c0 1.105 0.895 2 2 2v0h12c1.105 0 2-0.895 2-2v0-3.101c2.299-0.482 4-2.492 4-4.899 0-0 0-0 0-0v0-12c0-0 0-0 0-0 0-2.407-1.701-4.418-3.967-4.893l-0.033-0.006zM6 2h12v3h-12zM18 30h-12v-3h12zM22 22c-0.002 1.656-1.344 2.998-3 3h-14c-1.656-0.002-2.998-1.344-3-3v-12c0.002-1.656 1.344-2.998 3-3h14c1.656 0.002 2.998 1.344 3 3v0zM17.5 10h-11c-0.276 0-0.5 0.224-0.5 0.5v0 2c0 0.276 0.224 0.5 0.5 0.5v0h11c0.276 0 0.5-0.224 0.5-0.5v0-2c0-0.276-0.224-0.5-0.5-0.5v0zM17.5 14.5h-2c-0.276 0-0.5 0.224-0.5 0.5v0 2c0 0.276 0.224 0.5 0.5 0.5v0h2c0.276 0 0.5-0.224 0.5-0.5v0-2c0-0.276-0.224-0.5-0.5-0.5v0z"></path>
</svg>
