<!-- Generated by IcoMoon.io -->
<svg version="1.1" xmlns="http://www.w3.org/2000/svg" width="24" height="32" viewBox="0 0 24 32">
<title>watch-calculator-solid</title>
<path d="M20 5h-16c-2.209 0-4 1.791-4 4v0 14c0 2.209 1.791 4 4 4v0h16c2.209 0 4-1.791 4-4v0-14c0-2.209-1.791-4-4-4v0zM7.5 23c0 0.276-0.224 0.5-0.5 0.5v0h-2c-0.276 0-0.5-0.224-0.5-0.5v0-2c0-0.276 0.224-0.5 0.5-0.5v0h2c0.276 0 0.5 0.224 0.5 0.5v0zM7.5 17c0 0.276-0.224 0.5-0.5 0.5v0h-2c-0.276 0-0.5-0.224-0.5-0.5v0-2c0-0.276 0.224-0.5 0.5-0.5v0h2c0.276 0 0.5 0.224 0.5 0.5v0zM13.5 23c0 0.276-0.224 0.5-0.5 0.5v0h-2c-0.276 0-0.5-0.224-0.5-0.5v0-2c0-0.276 0.224-0.5 0.5-0.5v0h2c0.276 0 0.5 0.224 0.5 0.5v0zM13.5 17c0 0.276-0.224 0.5-0.5 0.5v0h-2c-0.276 0-0.5-0.224-0.5-0.5v0-2c0-0.276 0.224-0.5 0.5-0.5v0h2c0.276 0 0.5 0.224 0.5 0.5v0zM19.5 23c0 0.276-0.224 0.5-0.5 0.5v0h-2c-0.276 0-0.5-0.224-0.5-0.5v0-2c0-0.276 0.224-0.5 0.5-0.5v0h2c0.276 0 0.5 0.224 0.5 0.5v0zM19.5 17c0 0.276-0.224 0.5-0.5 0.5v0h-2c-0.276 0-0.5-0.224-0.5-0.5v0-2c0-0.276 0.224-0.5 0.5-0.5v0h2c0.276 0 0.5 0.224 0.5 0.5v0zM19.5 11c0 0.276-0.224 0.5-0.5 0.5v0h-14c-0.276 0-0.5-0.224-0.5-0.5v0-2c0-0.276 0.224-0.5 0.5-0.5v0h14c0.276 0 0.5 0.224 0.5 0.5v0zM20 2c0-1.105-0.895-2-2-2v0h-12c-1.105 0-2 0.895-2 2v0 1h16zM4 30c0 1.105 0.895 2 2 2v0h12c1.105 0 2-0.895 2-2v0-1h-16z"></path>
</svg>
