<!-- Generated by IcoMoon.io -->
<svg version="1.1" xmlns="http://www.w3.org/2000/svg" width="24" height="32" viewBox="0 0 24 32">
<title>watch-solid</title>
<path d="M12 5c6.075 0 11 4.925 11 11s-4.925 11-11 11-11-4.925-11-11 4.925-11 11-11zM12 3.5c2.963 0 5.775 1.037 8 2.894v-4.894c0-0.831-0.669-1.5-1.5-1.5h-13c-0.831 0-1.5 0.669-1.5 1.5v4.894c2.225-1.856 5.031-2.894 8-2.894zM12 28.5c-2.969 0-5.775-1.044-8-2.894v4.894c0 0.831 0.669 1.5 1.5 1.5h13c0.831 0 1.5-0.669 1.5-1.5v-4.894c-2.225 1.856-5.037 2.894-8 2.894zM15.313 20.356l1.175-1.619c0.244-0.337 0.169-0.806-0.163-1.050l-2.575-1.875v-5.813c0-0.412-0.338-0.75-0.75-0.75h-2c-0.412 0-0.75 0.338-0.75 0.75v7.212c0 0.238 0.113 0.462 0.306 0.606l3.706 2.7c0.338 0.25 0.806 0.175 1.050-0.163z"></path>
</svg>
