<!-- Generated by IcoMoon.io -->
<svg version="1.1" xmlns="http://www.w3.org/2000/svg" width="24" height="32" viewBox="0 0 24 32">
<title>watch-fitness</title>
<path d="M15.526 10.501c-0.985 0-2.189 0.419-3.526 1.734-1.338-1.315-2.541-1.734-3.526-1.734-1.029 0-1.819 0.457-2.274 0.826-1.767 1.434-1.859 4.011-0.278 5.565l5.442 5.349c0.351 0.345 0.921 0.346 1.273 0l5.442-5.349c1.581-1.554 1.488-4.131-0.279-5.565-0.455-0.369-1.246-0.826-2.274-0.826zM16.677 15.466l-4.677 4.597-4.677-4.597c-0.736-0.723-0.699-1.907 0.138-2.586 0.694-0.564 1.697-0.635 3.137 0.781l1.402 1.379 1.402-1.378c1.435-1.411 2.438-1.349 3.137-0.781 0.839 0.68 0.871 1.863 0.137 2.585zM20 5.101v-3.101c0-1.104-0.896-2-2-2h-12c-1.104 0-2 0.896-2 2v3.101c-2.283 0.464-4 2.481-4 4.899v12c0 2.419 1.718 4.436 4 4.899v3.101c0 1.104 0.896 2 2 2h12c1.104 0 2-0.896 2-2v-3.101c2.282-0.463 4-2.481 4-4.899v-12c0-2.419-1.718-4.436-4-4.899zM6 2h12v3h-12v-3zM18 30h-12v-3h12v3zM22 22c0 1.654-1.346 3-3 3h-14c-1.654 0-3-1.346-3-3v-12c0-1.654 1.346-3 3-3h14c1.654 0 3 1.346 3 3v12z"></path>
</svg>
