<!-- Generated by IcoMoon.io -->
<svg version="1.1" xmlns="http://www.w3.org/2000/svg" width="36" height="32" viewBox="0 0 36 32">
<title>water-rise</title>
<path d="M12.356 7.356c0.194 0.194 0.512 0.194 0.706 0l3.938-3.938v12.088c0 0.275 0.225 0.5 0.5 0.5h1c0.275 0 0.5-0.225 0.5-0.5v-12.094l3.938 3.938c0.194 0.194 0.512 0.194 0.706 0l0.706-0.706c0.194-0.194 0.194-0.513 0-0.706l-5.644-5.644c-0.194-0.194-0.45-0.294-0.706-0.294s-0.512 0.1-0.706 0.294l-5.644 5.65c-0.194 0.194-0.194 0.513 0 0.706l0.706 0.706zM35.519 30c-1.844-0.094-3.606-0.725-4.887-1.769-0.369-0.3-0.894-0.3-1.262 0.006-2.731 2.244-7.938 2.269-10.738-0.006-0.369-0.3-0.894-0.3-1.262 0.006-2.731 2.244-7.938 2.269-10.738-0.006-0.369-0.3-0.894-0.294-1.263 0.006-1.263 1.038-3.025 1.669-4.888 1.762-0.269 0.012-0.481 0.225-0.481 0.494v1c0 0.281 0.237 0.519 0.519 0.506 2.019-0.094 3.956-0.712 5.488-1.744 3.363 2.256 8.7 2.237 12 0 3.356 2.256 8.7 2.237 12 0 1.538 1.031 3.475 1.65 5.475 1.744 0.281 0.013 0.519-0.225 0.519-0.506v-1c0-0.269-0.212-0.481-0.481-0.494zM35.519 21.994c-1.844-0.094-3.606-0.725-4.887-1.769-0.369-0.3-0.894-0.3-1.262 0.006-2.731 2.244-7.938 2.269-10.738-0.006-0.369-0.3-0.894-0.3-1.262 0.006-2.731 2.244-7.938 2.269-10.738-0.006-0.369-0.3-0.894-0.294-1.263 0.006-1.263 1.038-3.019 1.669-4.881 1.762-0.269 0.012-0.481 0.225-0.481 0.494v1c0 0.281 0.237 0.519 0.519 0.506 2.019-0.094 3.956-0.712 5.487-1.744 3.362 2.256 8.7 2.238 12 0 3.356 2.256 8.7 2.238 12 0 1.538 1.031 3.475 1.65 5.475 1.744 0.281 0.012 0.519-0.225 0.519-0.506v-1c-0.006-0.269-0.219-0.475-0.487-0.494z"></path>
</svg>
