<!-- Generated by IcoMoon.io -->
<svg version="1.1" xmlns="http://www.w3.org/2000/svg" width="36" height="32" viewBox="0 0 36 32">
<title>water-rise-solid</title>
<path d="M35.131 27.994c-1.344-0.15-2.631-0.656-3.619-1.431-0.881-0.694-2.137-0.706-3.012 0-2.369 1.9-6.7 1.9-9.106-0.094-0.844-0.7-2.063-0.569-2.919 0.113-2.375 1.881-6.681 1.875-9.075-0.106-0.844-0.7-2.081-0.556-2.944 0.125-0.969 0.762-2.25 1.256-3.606 1.4-0.494 0.050-0.85 0.488-0.85 0.981v2.012c0 0.569 0.475 1.050 1.044 1 1.8-0.156 3.506-0.712 4.963-1.619 3.531 2.163 8.563 2.131 12 0 3.531 2.163 8.563 2.131 12 0 1.456 0.887 3.181 1.456 4.944 1.613 0.569 0.050 1.044-0.431 1.044-1v-1.975c0.006-0.5-0.356-0.962-0.862-1.019zM35.131 18.994c-1.344-0.15-2.631-0.656-3.619-1.431-0.881-0.694-2.137-0.706-3.012 0-2.369 1.9-6.7 1.9-9.106-0.094-0.844-0.7-2.063-0.569-2.919 0.113-2.375 1.881-6.681 1.875-9.075-0.106-0.844-0.7-2.081-0.556-2.944 0.125-0.969 0.762-2.25 1.256-3.606 1.4-0.494 0.050-0.85 0.488-0.85 0.981v2.012c0 0.569 0.475 1.050 1.044 1 1.8-0.156 3.506-0.712 4.963-1.619 3.531 2.163 8.563 2.131 12 0 3.531 2.163 8.563 2.131 12 0 1.456 0.887 3.181 1.456 4.944 1.613 0.569 0.050 1.044-0.431 1.044-1v-1.975c0.006-0.5-0.356-0.962-0.862-1.019zM11.925 8h4.075v5c0 0.55 0.45 1 1 1h2c0.55 0 1-0.45 1-1v-5h4.075c0.894 0 1.337-1.081 0.7-1.713l-6.025-5.975c-0.413-0.412-1.087-0.412-1.5 0l-6.025 5.981c-0.637 0.625-0.188 1.706 0.7 1.706z"></path>
</svg>
