<!-- Generated by IcoMoon.io -->
<svg version="1.1" xmlns="http://www.w3.org/2000/svg" width="36" height="32" viewBox="0 0 36 32">
<title>water-lower</title>
<path d="M17.294 14.731c0.194 0.181 0.45 0.275 0.706 0.275s0.512-0.094 0.706-0.275l5.644-5.294c0.194-0.181 0.194-0.481 0-0.662l-0.706-0.662c-0.194-0.181-0.512-0.181-0.706 0l-3.938 3.694v-11.338c0-0.256-0.225-0.469-0.5-0.469h-1c-0.275 0-0.5 0.212-0.5 0.469v11.331l-3.938-3.694c-0.194-0.181-0.512-0.181-0.706 0l-0.706 0.662c-0.194 0.181-0.194 0.481 0 0.662l5.644 5.3zM35.519 28.125c-1.844-0.087-3.606-0.681-4.887-1.656-0.369-0.281-0.894-0.281-1.262 0.006-2.731 2.1-7.938 2.125-10.738-0.006-0.369-0.281-0.894-0.281-1.262 0.006-2.731 2.1-7.938 2.125-10.738-0.006-0.369-0.281-0.894-0.275-1.263 0.006-1.263 0.975-3.019 1.563-4.881 1.65-0.269 0.012-0.481 0.212-0.481 0.462v0.938c0 0.262 0.237 0.488 0.519 0.475 2.019-0.087 3.956-0.663 5.487-1.637 3.362 2.119 8.7 2.094 12 0 3.356 2.119 8.7 2.094 12 0 1.538 0.969 3.475 1.55 5.475 1.637 0.281 0.012 0.519-0.206 0.519-0.475v-0.938c-0.006-0.25-0.219-0.45-0.487-0.462zM35.519 20.631c-1.844-0.087-3.606-0.681-4.887-1.656-0.369-0.281-0.894-0.281-1.262 0.006-2.731 2.1-7.938 2.125-10.738-0.006-0.369-0.281-0.894-0.281-1.262 0.006-2.731 2.1-7.938 2.125-10.738-0.006-0.369-0.281-0.894-0.275-1.263 0.006-1.263 0.975-3.019 1.563-4.881 1.65-0.269 0.012-0.481 0.212-0.481 0.462v0.938c0 0.262 0.237 0.488 0.519 0.475 2.019-0.087 3.956-0.663 5.487-1.637 3.362 2.119 8.7 2.094 12 0 3.356 2.119 8.7 2.094 12 0 1.538 0.969 3.475 1.55 5.475 1.637 0.281 0.012 0.519-0.206 0.519-0.475v-0.938c-0.006-0.25-0.219-0.45-0.487-0.462z"></path>
</svg>
