<!-- Generated by IcoMoon.io -->
<svg version="1.1" xmlns="http://www.w3.org/2000/svg" width="40" height="32" viewBox="0 0 40 32">
<title>waveform-path-solid</title>
<path d="M39 16.438h-2.731l-0.791-5.25c-0.122-0.702-0.718-1.232-1.442-1.25l-0.002-0h-0.008c-0.594 0-1.336 0.451-1.494 1.184l-1.273 6.441-1.776-12.348c-0.112-0.727-0.733-1.278-1.483-1.278-0.741 0-1.357 0.538-1.478 1.245l-0.001 0.009-2.406 14.937-2.629-18.904c-0.103-0.737-0.729-1.297-1.486-1.297s-1.383 0.561-1.485 1.289l-0.001 0.008-2.629 18.904-2.406-14.938c-0.122-0.716-0.738-1.254-1.48-1.254-0.75 0-1.372 0.551-1.482 1.27l-0.001 0.008-1.776 12.347-1.273-6.438c-0.137-0.682-0.731-1.188-1.444-1.188-0.011 0-0.022 0-0.032 0l0.002-0h-0.031c-0.723 0.021-1.316 0.55-1.436 1.241l-0.001 0.009-0.793 5.25h-2.731c-0.552 0-1 0.448-1 1v0 1c0 0.552 0.448 1 1 1v0h5.074l1.459 7.313c0.16 0.743 0.746 1.214 1.508 1.188 0.732-0.023 1.332-0.565 1.442-1.27l0.001-0.009 1.594-11.13 2.443 15.158c0.114 0.696 0.789 1.238 1.491 1.253 0.749-0.005 1.367-0.559 1.473-1.28l0.001-0.008 2.514-18.109 2.514 18.107c0.107 0.733 0.731 1.289 1.485 1.289 0.742 0 1.358-0.539 1.479-1.246l0.001-0.009 2.443-15.156 1.594 11.133c0.11 0.712 0.707 1.253 1.435 1.276l0.002 0c0.75 0 1.365-0.5 1.512-1.184l1.459-7.313h5.076c0.552 0 1-0.448 1-1v0-1.003c0-0.552-0.448-1-1-1v0z"></path>
</svg>
