<!-- Generated by IcoMoon.io -->
<svg version="1.1" xmlns="http://www.w3.org/2000/svg" width="40" height="32" viewBox="0 0 40 32">
<title>wave-sine-solid</title>
<path d="M29 30c-5.657 0-8.303-6.746-10.863-13.269-1.973-5.031-4.207-10.731-7.137-10.731-2.481 0-5.711 5.118-7.133 9.313-0.136 0.402-0.509 0.687-0.95 0.687-0.101 0-0.199-0.015-0.291-0.043l0.007 0.002-1.92-0.576c-0.416-0.127-0.714-0.508-0.714-0.958 0-0.114 0.019-0.224 0.054-0.326l-0.002 0.007c1.169-3.493 5.082-12.105 10.947-12.105 5.657 0 8.303 6.746 10.863 13.269 1.973 5.031 4.207 10.731 7.137 10.731 2.481 0 5.711-5.118 7.133-9.313 0.136-0.402 0.509-0.687 0.95-0.687 0.101 0 0.199 0.015 0.291 0.043l-0.007-0.002 1.92 0.576c0.416 0.127 0.713 0.508 0.713 0.958 0 0.114-0.019 0.224-0.054 0.326l0.002-0.007c-1.169 3.494-5.082 12.106-10.947 12.106z"></path>
</svg>
