<!-- Generated by IcoMoon.io -->
<svg version="1.1" xmlns="http://www.w3.org/2000/svg" width="40" height="32" viewBox="0 0 40 32">
<title>wave-triangle-solid</title>
<path d="M29 30h-0.021c-0.644-0.007-1.214-0.318-1.574-0.795l-0.004-0.005-16.438-21.916-7.605 10.333c-0.185 0.234-0.468 0.382-0.786 0.382-0.234 0-0.449-0.080-0.62-0.215l0.002 0.002-1.572-1.235c-0.234-0.185-0.382-0.468-0.382-0.787 0-0.234 0.080-0.45 0.215-0.62l-0.002 0.002 9.214-12.383c0.369-0.467 0.936-0.764 1.572-0.764h0.021c0.644 0.007 1.214 0.318 1.574 0.795l0.004 0.005 16.438 21.916 7.605-10.333c0.185-0.234 0.468-0.382 0.786-0.382 0.234 0 0.449 0.080 0.62 0.215l-0.002-0.002 1.572 1.235c0.234 0.185 0.382 0.468 0.382 0.787 0 0.234-0.080 0.45-0.215 0.62l0.002-0.002-9.214 12.383c-0.369 0.467-0.936 0.764-1.573 0.764v0z"></path>
</svg>
