<!-- Generated by IcoMoon.io -->
<svg version="1.1" xmlns="http://www.w3.org/2000/svg" width="40" height="32" viewBox="0 0 40 32">
<title>wave-triangle</title>
<path d="M39.796 14.691l-0.807-0.592c-0.082-0.060-0.184-0.097-0.296-0.097-0.165 0-0.311 0.080-0.402 0.203l-0.001 0.001-9.266 13.071-17.201-24.844c-0.18-0.259-0.474-0.428-0.808-0.433h-0.001c-0.389-0.027-0.625 0.149-0.821 0.409l-10.096 14.205c-0.060 0.082-0.097 0.184-0.097 0.296 0 0.165 0.080 0.311 0.203 0.402l0.001 0.001 0.807 0.592c0.082 0.060 0.184 0.097 0.296 0.097 0.165 0 0.311-0.080 0.402-0.203l0.001-0.001 9.266-13.072 17.201 24.844c0.18 0.258 0.474 0.426 0.808 0.431h0.014c0 0 0.001 0 0.001 0 0.33 0 0.622-0.159 0.804-0.405l0.002-0.003 10.096-14.203c0.060-0.082 0.097-0.184 0.097-0.296 0-0.165-0.080-0.311-0.203-0.402l-0.001-0.001z"></path>
</svg>
