<!-- Generated by IcoMoon.io -->
<svg version="1.1" xmlns="http://www.w3.org/2000/svg" width="40" height="32" viewBox="0 0 40 32">
<title>waveform-path</title>
<path d="M39.5 17.25h-3.858l-0.903-5.864c-0.056-0.357-0.358-0.627-0.724-0.636l-0.001-0c-0.293 0.007-0.682 0.257-0.75 0.604l-2.141 10.709-2.383-16.669c-0.051-0.369-0.364-0.649-0.743-0.649-0.375 0-0.686 0.275-0.741 0.635l-0.001 0.004-3.195 20.392-3.316-25.125c-0.047-0.373-0.362-0.658-0.744-0.658s-0.697 0.285-0.744 0.655l-0 0.004-3.32 25.125-3.195-20.392c-0.056-0.364-0.367-0.639-0.742-0.639-0.379 0-0.692 0.281-0.743 0.645l-0 0.004-2.383 16.669-2.141-10.71c-0.072-0.363-0.492-0.596-0.762-0.602-0.363 0.013-0.659 0.282-0.714 0.631l-0.001 0.004-0.9 5.864h-3.857c-0.276 0-0.5 0.224-0.5 0.5v0 0.5c0 0.276 0.224 0.5 0.5 0.5v0h4.5c0.373-0.001 0.683-0.274 0.739-0.631l0.001-0.004 0.357-2.307 2.168 10.84c0.072 0.37 0.348 0.584 0.773 0.602 0.361-0.017 0.654-0.289 0.703-0.64l0-0.004 2.293-16.044 3.223 20.807c0.031 0.192 0.164 0.634 0.725 0.634h0.023c0.376-0.005 0.686-0.284 0.738-0.647l0-0.004 3.256-24.678 3.256 24.675c0.046 0.374 0.362 0.66 0.745 0.66 0.376 0 0.688-0.277 0.742-0.639l0-0.004 3.223-20.804 2.293 16.044c0.053 0.36 0.354 0.634 0.722 0.644l0.001 0c0.297-0.016 0.676-0.212 0.756-0.604l2.166-10.839 0.358 2.307c0.054 0.362 0.362 0.636 0.735 0.636 0.002 0 0.004 0 0.005-0h4.5c0.276 0 0.5-0.224 0.5-0.5v0-0.5c0-0.276-0.224-0.5-0.5-0.5v0z"></path>
</svg>
