<!-- Generated by IcoMoon.io -->
<svg version="1.1" xmlns="http://www.w3.org/2000/svg" width="40" height="32" viewBox="0 0 40 32">
<title>wave-square-solid</title>
<path d="M29.75 30h-9.5c-1.243 0-2.25-1.007-2.25-2.25v0-21.75h-6v9.75c0 1.243-1.007 2.25-2.25 2.25v0h-8.75c-0.552 0-1-0.448-1-1v0-2c0-0.552 0.448-1 1-1v0h7v-9.75c0-1.243 1.007-2.25 2.25-2.25v0h9.5c1.243 0 2.25 1.007 2.25 2.25v0 21.75h6v-9.75c0-1.243 1.007-2.25 2.25-2.25v0h8.75c0.552 0 1 0.448 1 1v0 2c0 0.552-0.448 1-1 1v0h-7v9.75c0 1.243-1.007 2.25-2.25 2.25v0z"></path>
</svg>
