<!-- Generated by IcoMoon.io -->
<svg version="1.1" xmlns="http://www.w3.org/2000/svg" width="40" height="32" viewBox="0 0 40 32">
<title>waveform</title>
<path d="M14.5 6h-1c-0.276 0-0.5 0.224-0.5 0.5v0 19c0 0.276 0.224 0.5 0.5 0.5v0h1c0.276 0 0.5-0.224 0.5-0.5v0-19c0-0.276-0.224-0.5-0.5-0.5v0zM8.5 12h-1c-0.276 0-0.5 0.224-0.5 0.5v0 7c0 0.276 0.224 0.5 0.5 0.5v0h1c0.276 0 0.5-0.224 0.5-0.5v0-7c0-0.276-0.224-0.5-0.5-0.5v0zM2.5 14h-1c-0.276 0-0.5 0.224-0.5 0.5v0 3c0 0.276 0.224 0.5 0.5 0.5v0h1c0.276 0 0.5-0.224 0.5-0.5v0-3c0-0.276-0.224-0.5-0.5-0.5v0zM26.5 8h-1c-0.276 0-0.5 0.224-0.5 0.5v0 15c0 0.276 0.224 0.5 0.5 0.5v0h1c0.276 0 0.5-0.224 0.5-0.5v0-15c0-0.276-0.224-0.5-0.5-0.5v0zM38.5 14h-1c-0.276 0-0.5 0.224-0.5 0.5v0 3c0 0.276 0.224 0.5 0.5 0.5v0h1c0.276 0 0.5-0.224 0.5-0.5v0-3c0-0.276-0.224-0.5-0.5-0.5v0zM32.5 4h-1c-0.276 0-0.5 0.224-0.5 0.5v0 23c0 0.276 0.224 0.5 0.5 0.5v0h1c0.276 0 0.5-0.224 0.5-0.5v0-23c0-0.276-0.224-0.5-0.5-0.5v0zM20.5 0h-1c-0.276 0-0.5 0.224-0.5 0.5v0 31c0 0.276 0.224 0.5 0.5 0.5v0h1c0.276 0 0.5-0.224 0.5-0.5v0-31c0-0.276-0.224-0.5-0.5-0.5v0z"></path>
</svg>
