<!-- Generated by IcoMoon.io -->
<svg version="1.1" xmlns="http://www.w3.org/2000/svg" width="40" height="32" viewBox="0 0 40 32">
<title>wave-sine</title>
<path d="M39.631 16.285l-0.962-0.267c-0.040-0.012-0.086-0.018-0.133-0.018-0.223 0-0.412 0.146-0.476 0.348l-0.001 0.004c-1.053 3.518-5.446 11.649-9.058 11.649-3.592 0-5.863-6.274-8.063-12.341-2.427-6.715-4.941-13.659-9.938-13.659-5.544 0-10.184 10.414-10.979 13.097-0.013 0.042-0.020 0.090-0.020 0.14 0 0.228 0.155 0.421 0.365 0.478l0.003 0.001 0.962 0.266c0.041 0.012 0.088 0.019 0.136 0.019 0.222 0 0.411-0.146 0.473-0.348l0.001-0.004c1.053-3.518 5.446-11.649 9.058-11.649 3.592 0 5.863 6.274 8.063 12.341 2.428 6.715 4.941 13.659 9.938 13.659 5.544 0 10.188-10.414 10.979-13.097 0.013-0.042 0.020-0.090 0.020-0.14 0-0.228-0.155-0.421-0.365-0.478l-0.003-0.001z"></path>
</svg>
