<!-- Generated by IcoMoon.io -->
<svg version="1.1" xmlns="http://www.w3.org/2000/svg" width="40" height="32" viewBox="0 0 40 32">
<title>waveform-solid</title>
<path d="M8.75 12h-1.5c-0.552 0-1 0.448-1 1v0 6c0 0.552 0.448 1 1 1v0h1.5c0.552 0 1-0.448 1-1v0-6c0-0.552-0.448-1-1-1v0zM2.75 14h-1.5c-0.552 0-1 0.448-1 1v0 2c0 0.552 0.448 1 1 1v0h1.5c0.552 0 1-0.448 1-1v0-2c0-0.552-0.448-1-1-1v0zM14.75 6h-1.5c-0.552 0-1 0.448-1 1v0 18c0 0.552 0.448 1 1 1v0h1.5c0.552 0 1-0.448 1-1v0-18c0-0.552-0.448-1-1-1v0zM38.75 14h-1.5c-0.552 0-1 0.448-1 1v0 2c0 0.552 0.448 1 1 1v0h1.5c0.552 0 1-0.448 1-1v0-2c0-0.552-0.448-1-1-1v0zM32.75 4h-1.5c-0.552 0-1 0.448-1 1v0 22c0 0.552 0.448 1 1 1v0h1.5c0.552 0 1-0.448 1-1v0-22c0-0.552-0.448-1-1-1v0zM26.75 8h-1.5c-0.552 0-1 0.448-1 1v0 14c0 0.552 0.448 1 1 1v0h1.5c0.552 0 1-0.448 1-1v0-14c0-0.552-0.448-1-1-1v0zM20.75 0h-1.5c-0.552 0-1 0.448-1 1v0 30c0 0.552 0.448 1 1 1v0h1.5c0.552 0 1-0.448 1-1v0-30c0-0.552-0.448-1-1-1v0z"></path>
</svg>
