<!-- Generated by IcoMoon.io -->
<svg version="1.1" xmlns="http://www.w3.org/2000/svg" width="40" height="32" viewBox="0 0 40 32">
<title>webcam-slash</title>
<path d="M39.813 30.328l-38.375-30.219c-0.085-0.068-0.194-0.109-0.312-0.109-0.157 0-0.298 0.073-0.39 0.187l-0.001 0.001-0.625 0.782c-0.068 0.085-0.11 0.194-0.11 0.312 0 0.157 0.073 0.298 0.186 0.389l0.001 0.001 38.375 30.219c0.085 0.068 0.194 0.11 0.313 0.11 0.158 0 0.298-0.073 0.39-0.187l0.001-0.001 0.625-0.782c0.068-0.085 0.109-0.194 0.109-0.312 0-0.157-0.073-0.298-0.187-0.39l-0.001-0.001zM20 2c6.625 0 12 5.375 12 12-0 2.31-0.657 4.466-1.794 6.292l0.029-0.050 1.57 1.236c1.374-2.114 2.193-4.7 2.195-7.477v-0.001c0-7.732-6.267-14-14-14-0.003 0-0.006 0-0.009 0-3.941 0-7.501 1.635-10.038 4.263l-0.004 0.004 1.574 1.24c2.165-2.167 5.157-3.507 8.461-3.507 0.005 0 0.010 0 0.016 0h-0.001zM10.192 12.096c-0.122 0.585-0.192 1.257-0.192 1.946 0 5.5 4.459 9.959 9.959 9.959 0.015 0 0.029-0 0.044-0h-0.002c1.503-0.005 2.926-0.344 4.2-0.946l-0.060 0.026-1.847-1.454c-0.731 0.221-1.491 0.375-2.293 0.375-4.416-0.005-7.995-3.584-8.001-8v-0.001c0-0.152 0.037-0.295 0.045-0.445zM28.625 18.975c0.85-1.471 1.375-3.154 1.375-4.975 0-0.006 0-0.014 0-0.022 0-5.511-4.467-9.978-9.978-9.978-2.677 0-5.108 1.054-6.901 2.771l0.004-0.003 1.603 1.262c1.412-1.248 3.244-2.030 5.272-2.030 4.416 0.005 7.995 3.584 8 8v0c0 1.351-0.369 2.606-0.962 3.723zM16.326 9.287l1.634 1.287c0.581-0.358 1.286-0.572 2.039-0.574h0.001c0.552 0 1-0.448 1-1s-0.448-1-1-1v0c-1.394 0.006-2.674 0.491-3.684 1.299l0.012-0.009zM20 26c-6.625 0-12-5.375-12-12 0.003-1.165 0.171-2.289 0.483-3.352l-0.021 0.085-1.677-1.321c-0.495 1.366-0.782 2.943-0.785 4.586v0.001c0 4.762 2.382 8.962 6.015 11.491l-3.078 1.922c-0.567 0.36-0.938 0.984-0.938 1.694 0 0.001 0 0.001 0 0.002v-0 0.891c0 1.105 0.895 2 2 2v0h20c1.105 0 2-0.895 2-2v0-0.731l-6.117-4.816c-1.69 0.973-3.716 1.547-5.877 1.547-0.002 0-0.004 0-0.006 0h0zM30 29.109v0.891h-20v-0.891l3.977-2.484c1.76 0.869 3.833 1.377 6.023 1.377s4.263-0.508 6.105-1.413l-0.082 0.036z"></path>
</svg>
