<!-- Generated by IcoMoon.io -->
<svg version="1.1" xmlns="http://www.w3.org/2000/svg" width="28" height="32" viewBox="0 0 28 32">
<title>webcam-solid</title>
<path d="M25.143 27.413l-3.074-1.922c3.632-2.529 6.014-6.729 6.014-11.491 0-7.732-6.268-14-14-14s-14 6.268-14 14c0 4.762 2.382 8.962 6.014 11.491l-3.074 1.922c-0.567 0.36-0.938 0.984-0.938 1.694 0 0.001 0 0.001 0 0.002v-0 0.891c0 1.105 0.895 2 2 2v0h20c1.105 0 2-0.895 2-2v0-0.891c-0-0.712-0.373-1.337-0.934-1.691l-0.008-0.005zM14.081 24c-5.523 0-10-4.477-10-10s4.477-10 10-10c5.523 0 10 4.477 10 10v0c0 5.522-4.476 9.999-9.997 10h-0zM14.081 6c-4.418 0-8 3.582-8 8s3.582 8 8 8c4.418 0 8-3.582 8-8v0c0-4.417-3.58-7.999-7.997-8h-0zM14.081 11c-1.656 0.002-2.998 1.344-3 3v0c0 0.552-0.448 1-1 1s-1-0.448-1-1v0c0.003-2.76 2.24-4.997 5-5h0c0.552 0 1 0.448 1 1s-0.448 1-1 1v0z"></path>
</svg>
