<!-- Generated by IcoMoon.io -->
<svg version="1.1" xmlns="http://www.w3.org/2000/svg" width="28" height="32" viewBox="0 0 28 32">
<title>webcam</title>
<path d="M25.063 27.413l-3.074-1.922c3.629-2.529 6.012-6.729 6.012-11.491 0-7.732-6.268-14-14-14s-14 6.268-14 14c0 4.762 2.382 8.962 6.014 11.491l-3.077 1.922c-0.567 0.36-0.938 0.984-0.938 1.694 0 0.001 0 0.001 0 0.002v-0 0.891c0 1.105 0.895 2 2 2v0h20c1.105 0 2-0.895 2-2v0-0.891c0-0.001 0-0.001 0-0.002 0-0.711-0.371-1.335-0.929-1.69l-0.008-0.005zM2 14c0-6.625 5.375-12 12-12s12 5.375 12 12-5.375 12-12 12-12-5.375-12-12zM24 30h-20v-0.891l3.976-2.484c1.761 0.869 3.833 1.377 6.024 1.377s4.263-0.508 6.105-1.413l-0.082 0.036 3.976 2.484zM24 14c0-5.523-4.477-10-10-10s-10 4.477-10 10c0 5.523 4.477 10 10 10v0c5.523 0 10-4.477 10-10v0zM6 14c0-4.418 3.582-8 8-8s8 3.582 8 8c0 4.418-3.582 8-8 8v0c-4.416-0.005-7.995-3.584-8-8v-0zM15 9c0-0.552-0.448-1-1-1v0c-3.312 0.004-5.996 2.688-6 6v0c0 0.552 0.448 1 1 1s1-0.448 1-1v0c0.002-2.208 1.792-3.998 4-4h0c0.552 0 1-0.448 1-1v0z"></path>
</svg>
