<!-- Generated by IcoMoon.io -->
<svg version="1.1" xmlns="http://www.w3.org/2000/svg" width="40" height="32" viewBox="0 0 40 32">
<title>webcam-slash-solid</title>
<path d="M10.216 16.058l-4.158-3.213c-0.031 0.382-0.058 0.766-0.058 1.156 0 4.762 2.383 8.962 6.014 11.491l-3.077 1.922c-0.567 0.36-0.938 0.984-0.938 1.694 0 0.001 0 0.001 0 0.002v-0 0.891c0 1.105 0.895 2 2 2v0h20c0.242-0.006 0.471-0.055 0.682-0.14l-0.013 0.005-10.231-7.909c-5.214 0.231-9.276-3.381-10.221-7.899zM39.614 28.631l-8.32-6.431c1.688-2.303 2.706-5.125 2.706-8.201 0-7.732-6.268-14-14-14-0.003 0-0.007 0-0.011 0-4.342 0-8.221 1.981-10.783 5.089l-0.019 0.024-6.346-4.902c-0.168-0.131-0.382-0.211-0.614-0.211-0.32 0-0.605 0.15-0.788 0.384l-0.002 0.002-1.227 1.579c-0.131 0.168-0.21 0.381-0.21 0.614 0 0.32 0.15 0.605 0.384 0.788l0.002 0.002 36.773 28.421c0.168 0.131 0.382 0.211 0.614 0.211 0.32 0 0.605-0.15 0.788-0.384l0.002-0.002 1.227-1.579c0.131-0.168 0.21-0.381 0.21-0.613 0-0.32-0.15-0.605-0.384-0.788l-0.002-0.002zM20 11c-0.815 0-1.553 0.327-2.092 0.856l0-0-1.581-1.222c0.911-1.002 2.218-1.63 3.672-1.634h0.001c0.552 0 1 0.448 1 1s-0.448 1-1 1v0zM28.133 19.758l-1.577-1.219c0.902-1.263 1.443-2.837 1.444-4.538v-0c0-0.003 0-0.006 0-0.009 0-4.413-3.578-7.991-7.991-7.991-2.422 0-4.593 1.078-6.058 2.78l-0.009 0.010-1.541-1.188c1.821-2.189 4.527-3.603 7.599-3.603 5.523 0 10 4.477 10 10v0c-0.001 2.163-0.701 4.163-1.887 5.785l0.019-0.028z"></path>
</svg>
