<!-- Generated by IcoMoon.io -->
<svg version="1.1" xmlns="http://www.w3.org/2000/svg" width="32" height="32" viewBox="0 0 32 32">
<title>weight-solid</title>
<path d="M28 4h-1.624c1.026 1.768 1.624 3.813 1.624 6 0 6.617-5.383 12-12 12s-12-5.383-12-12c0-2.187 0.598-4.232 1.624-6h-1.624c-2.206 0-4 1.794-4 4v20c0 2.206 1.794 4 4 4h24c2.206 0 4-1.794 4-4v-20c0-2.206-1.794-4-4-4zM16 20c5.523 0 10-4.477 10-10s-4.477-10-10-10-10 4.477-10 10 4.477 10 10 10zM15.981 10.504l2.099-4.897c0.219-0.511 0.809-0.745 1.314-0.526 0.508 0.218 0.742 0.806 0.526 1.313l-2.104 4.909c0.418 0.447 0.684 1.038 0.684 1.697 0 1.381-1.119 2.5-2.5 2.5s-2.5-1.119-2.5-2.5c0-1.374 1.11-2.486 2.481-2.496z"></path>
</svg>
