<!-- Generated by IcoMoon.io -->
<svg version="1.1" xmlns="http://www.w3.org/2000/svg" width="32" height="32" viewBox="0 0 32 32">
<title>weight</title>
<path d="M28 4h-4.051c-1.828-2.414-4.695-4-7.949-4s-6.122 1.586-7.949 4h-4.051c-2.206 0-4 1.794-4 4v20c0 2.206 1.794 4 4 4h24c2.206 0 4-1.794 4-4v-20c0-2.206-1.794-4-4-4zM16 2c4.418 0 8 3.582 8 8s-3.582 8-8 8-8-3.582-8-8 3.582-8 8-8zM30 28c0 1.104-0.896 2-2 2h-24c-1.104 0-2-0.896-2-2v-20c0-1.104 0.896-2 2-2h2.848c-0.539 1.227-0.848 2.576-0.848 4 0 5.514 4.486 10 10 10s10-4.486 10-10c0-1.424-0.309-2.773-0.848-4h2.848c1.104 0 2 0.896 2 2v20zM16 16c1.654 0 3-1.346 3-3 0-0.87-0.378-1.648-0.971-2.196l1.89-4.411c0.218-0.507-0.017-1.095-0.526-1.313-0.505-0.218-1.095 0.017-1.313 0.526l-1.891 4.412c-2.216-0.144-3.189 1.771-3.189 2.981 0 1.654 1.346 3 3 3zM16 12c0.552 0 1 0.447 1 1s-0.448 1-1 1-1-0.447-1-1 0.447-1 1-1z"></path>
</svg>
