<!-- Generated by IcoMoon.io -->
<svg version="1.1" xmlns="http://www.w3.org/2000/svg" width="32" height="32" viewBox="0 0 32 32">
<title>weight-hanging-solid</title>
<path d="M31.892 27.866l-4.564-18.258c-0.238-0.949-1.027-1.607-1.929-1.607h-3.766c0.223-0.628 0.367-1.295 0.367-2 0-3.314-2.686-6-6-6s-6 2.686-6 6c0 0.705 0.144 1.372 0.367 2h-3.766c-0.902 0-1.692 0.659-1.929 1.607l-4.566 18.258c-0.521 2.082 0.916 4.134 2.894 4.134h25.997c1.977 0 3.414-2.052 2.894-4.134zM16 8c-1.102 0-2-0.897-2-2s0.898-2 2-2 2 0.897 2 2-0.898 2-2 2z"></path>
</svg>
