<!-- Generated by IcoMoon.io -->
<svg version="1.1" xmlns="http://www.w3.org/2000/svg" width="32" height="32" viewBox="0 0 32 32">
<title>weight-hanging</title>
<path d="M31.892 27.866l-4.564-18.258c-0.238-0.949-1.027-1.607-1.929-1.607h-5.421c0.633-0.838 1.023-1.87 1.023-3.001 0-2.761-2.239-5-5-5s-5 2.239-5 5c0 1.131 0.389 2.162 1.023 3h-5.421c-0.902 0-1.692 0.659-1.929 1.607l-4.564 18.259c-0.521 2.082 0.916 4.134 2.894 4.134h25.997c1.977 0 3.414-2.052 2.894-4.134zM13 5c0-1.654 1.346-3 3-3s3 1.346 3 3-1.346 3-3 3-3-1.346-3-3zM29.704 29.62c-0.136 0.173-0.367 0.38-0.706 0.38h-25.996c-0.339 0-0.571-0.206-0.706-0.38-0.268-0.343-0.361-0.817-0.248-1.269l4.564-18.258c0.013-0.052 0.032-0.082 0.027-0.092h18.707c0.012 0.016 0.029 0.045 0.041 0.092l4.564 18.258c0.113 0.451 0.021 0.926-0.247 1.269z"></path>
</svg>
