<!-- Generated by IcoMoon.io -->
<svg version="1.1" xmlns="http://www.w3.org/2000/svg" width="40" height="32" viewBox="0 0 40 32">
<title>whale</title>
<path d="M27 18c-0.552 0-1 0.448-1 1s0.448 1 1 1 1-0.448 1-1-0.448-1-1-1zM32 8c-13.156 0-17.959 14-20.758 14-0.685 0-1.242-0.558-1.242-1.242v-6.758l2.961-1.556c0.649-0.371 1.039-0.996 1.039-1.664v-5.778c0-0.588-0.563-1.002-1.17-1.002-0.217 0-0.439 0.053-0.644 0.169l-5.186 2.964-5.186-2.964c-0.184-0.107-0.405-0.169-0.641-0.169-0.001 0-0.002 0-0.003 0h0c-0.607 0-1.17 0.413-1.17 1.002v5.778c0 0.669 0.39 1.293 1.039 1.664l2.961 1.556v6.758c0 4 3.243 7.242 7.243 7.242h23.758c2.761 0 5-2.239 5-5v-6.966c0-4.559-4-8.034-8-8.034zM38 23c0 1.654-1.346 3-3 3h-23.758c-2.891 0-5.242-2.352-5.242-5.242v-7.966l-4-2.115v-4.098l5 2.857 5-2.857v4.11l-4 2.102v7.966c0 1.788 1.454 3.242 3.242 3.242 1.863 0 3.122-1.622 5.028-4.077 3.067-3.953 7.704-9.924 15.729-9.924 2.838 0 6 2.478 6 6.034v6.966z"></path>
</svg>
