<!-- Generated by IcoMoon.io -->
<svg version="1.1" xmlns="http://www.w3.org/2000/svg" width="40" height="32" viewBox="0 0 40 32">
<title>whale-solid</title>
<path d="M34 10c-15.191 0-19.706 14-23.758 14-1.236 0-2.242-1.006-2.242-2.242v-6.124l3.109-1.907c0.54-0.364 0.891-0.973 0.891-1.664 0 0 0-0 0-0v0-5.061c0-0.799-0.89-1.275-1.555-0.832l-4.445 2.964-4.445-2.964c-0.665-0.442-1.555 0.034-1.555 0.833v5.061c0 0.669 0.334 1.293 0.891 1.664l3.109 1.908v6.124c0 3.442 2.8 6.242 6.242 6.242h25.758c2.209 0 4-1.791 4-4v-8c0-3.309-2.691-6-6-6zM27 18c0.552 0 1 0.448 1 1s-0.448 1-1 1-1-0.448-1-1 0.448-1 1-1z"></path>
</svg>
