<!-- Generated by IcoMoon.io -->
<svg version="1.1" xmlns="http://www.w3.org/2000/svg" width="32" height="32" viewBox="0 0 32 32">
<title>wheat</title>
<path d="M28.379 10.711c-0.277-0.277-0.578-0.516-0.891-0.727 0.918-0.329 1.768-0.765 2.452-1.401 1.661-1.804 2.174-4.69 2.040-7.506-0.027-0.577-0.502-1.029-1.079-1.057-0.267-0.012-0.547-0.019-0.837-0.019-2.144 0-4.812 0.401-6.611 2.072-0.677 0.68-1.145 1.506-1.466 2.373-0.199-0.285-0.413-0.563-0.668-0.817l-2.153-2.152c-0.39-0.39-1.023-0.391-1.414 0l-2.107 2.105c-1.094 1.093-1.656 2.504-1.729 3.936l-0.396-0.396c-0.39-0.39-1.023-0.391-1.414 0l-2.107 2.106c-1.099 1.098-1.662 2.518-1.731 3.956l-0.405-0.405c-0.39-0.39-1.023-0.391-1.414 0l-2.107 2.106c-2.344 2.343-2.344 6.144 0 8.488l1.435 1.434-5.485 5.488c-0.391 0.391-0.391 1.024 0 1.414 0.194 0.196 0.451 0.293 0.706 0.293s0.512-0.098 0.707-0.293l5.472-5.474 1.427 1.427c1.171 1.171 2.706 1.756 4.242 1.756s3.070-0.586 4.242-1.756l2.111-2.109c0.391-0.391 0.391-1.024 0-1.414l-0.404-0.404c1.436-0.069 2.854-0.632 3.951-1.729l2.111-2.109c0.391-0.391 0.391-1.024 0-1.414l-0.396-0.395c1.429-0.074 2.839-0.635 3.931-1.726l2.111-2.109c0.391-0.391 0.391-1.024 0-1.414l-2.124-2.123zM24.814 3.537c1.349-1.254 3.551-1.53 5.185-1.537-0.013 2.252-0.539 4.103-1.479 5.169-1.374 1.227-3.562 1.486-5.166 1.486h-0.024c-0.021-1.621 0.247-3.874 1.484-5.119zM17.059 4.996l1.4-1.399 1.446 1.445c1.524 1.523 1.589 4.008 0.043 5.606-0.018 0.016-0.041 0.021-0.058 0.039l-1.399 1.399-1.433-1.432c-1.563-1.562-1.565-4.093 0-5.657zM11.414 10.642l1.4-1.399 1.446 1.446c0.851 0.851 2.109 3.326 0.122 5.51l-1.534 1.535-1.434-1.433c-1.564-1.563-1.565-4.094 0-5.658zM5.757 21.957c-1.564-1.563-1.565-4.094 0-5.658l1.4-1.399 1.446 1.446c1.486 1.485 1.602 3.901 0.109 5.525l-1.521 1.521-1.435-1.434zM15.676 26.245c-1.563 1.561-4.091 1.563-5.656 0l-1.416-1.416 1.403-1.402c1.562-1.561 4.091-1.564 5.656 0l1.416 1.416-1.403 1.402zM21.332 20.588c-1.563 1.561-4.091 1.563-5.656 0l-1.416-1.416 1.403-1.402c1.562-1.561 4.091-1.564 5.656 0l1.416 1.416-1.403 1.402zM26.978 14.943c-1.563 1.561-4.091 1.563-5.656 0l-1.416-1.416 1.403-1.402c1.562-1.561 4.091-1.564 5.656 0l1.416 1.416-1.403 1.402z"></path>
</svg>
