<!-- Generated by IcoMoon.io -->
<svg version="1.1" xmlns="http://www.w3.org/2000/svg" width="32" height="32" viewBox="0 0 32 32">
<title>wheat-solid</title>
<path d="M30.106 7.097c1.587-1.714 2.029-4.505 1.859-7.063-1.811-0.121-5.016-0.016-7.034 1.867-2.325 2.334-1.937 6.519-1.86 7.063 2.599 0.174 5.313-0.259 7.035-1.867zM27.387 10.597c-1.006 0.242-2.078 0.403-3.261 0.403-0.396 0-0.793-0.014-1.188-0.040l-1.619-0.108-0.228-1.606c-0.020-0.143-0.311-2.333 0.291-4.742-0.804-1.996-2.562-3.464-2.862-3.689-1.742 1.524-3.176 3.502-3.248 5.595 0.068 1.78 1.166 3.525 2.558 4.933l-2.592 2.592c0.099-0.373 0.175-0.754 0.189-1.149-0.006-2.929-2.88-5.315-3.27-5.608-1.742 1.524-3.176 3.502-3.248 5.595 0.069 1.78 1.166 3.525 2.558 4.933l-2.592 2.593c0.099-0.373 0.175-0.754 0.189-1.149-0.006-2.929-2.88-5.315-3.27-5.608-1.742 1.524-3.176 3.502-3.248 5.595 0.068 1.78 1.166 3.525 2.558 4.933l-4.517 4.518c-0.781 0.781-0.781 2.047 0 2.828 0.391 0.391 0.902 0.586 1.414 0.586s1.024-0.195 1.414-0.586l4.515-4.515c1.421 1.423 3.147 2.511 4.963 2.573 2.076-0.080 4.107-1.556 5.608-3.27-1.063-1.215-3.143-3.163-5.595-3.248-0.414 0.001-0.812 0.069-1.2 0.169l2.588-2.588c1.421 1.423 3.147 2.511 4.963 2.573 2.076-0.080 4.107-1.556 5.608-3.27-1.063-1.215-3.143-3.163-5.595-3.248-0.414 0.001-0.812 0.069-1.2 0.169l2.588-2.588c1.421 1.423 3.148 2.511 4.962 2.573 2.076-0.080 4.107-1.556 5.608-3.27-0.797-0.912-2.169-2.238-3.841-2.877z"></path>
</svg>
