<!-- Generated by IcoMoon.io -->
<svg version="1.1" xmlns="http://www.w3.org/2000/svg" width="32" height="32" viewBox="0 0 32 32">
<title>wheelchair-solid</title>
<path d="M31.006 24.104l0.889 1.791c0.246 0.495 0.044 1.095-0.451 1.34l-4.092 2.055c-1.003 0.498-2.222 0.075-2.699-0.941l-3.924-8.351h-8.73c-0.995 0-1.839-0.732-1.98-1.717-2.118-14.826-1.996-13.905-2.020-14.283 0-2.272 1.895-4.102 4.191-3.996 2.079 0.097 3.753 1.807 3.808 3.888 0.054 2.058-1.447 3.776-3.413 4.065l0.292 2.043h8.123c0.552 0 1 0.448 1 1v2c0 0.552-0.448 1-1 1h-7.551l0.286 2h8.265c0.796 0 1.483 0.465 1.805 1.137l0.005 0.012 3.595 7.65 2.261-1.147c0.495-0.246 1.095-0.044 1.34 0.451zM19.46 22h-1.532c-0.487 3.388-3.408 6-6.928 6-3.86 0-7-3.14-7-7 0-2.594 1.418-4.863 3.52-6.072-0.232-1.623-0.428-2.991-0.593-4.146-4.055 1.622-6.927 5.591-6.927 10.218 0 6.065 4.935 11 11 11 4.492 0 8.363-2.707 10.069-6.575l-1.61-3.425z"></path>
</svg>
