<!-- Generated by IcoMoon.io -->
<svg version="1.1" xmlns="http://www.w3.org/2000/svg" width="28" height="32" viewBox="0 0 28 32">
<title>wheelchair</title>
<path d="M27.742 24.77l0.197 0.46c0.163 0.381-0.013 0.822-0.394 0.985l-2.651 1.205c-0.479 0.205-1.084 0.019-1.323-0.55l-3.734-8.869h-8.836c-0.502 0-0.918-0.37-0.989-0.853l-0.001-0.005c-2.149-15.042-1.997-13.944-2.010-14.141 0-1.696 1.407-3.063 3.117-2.998 1.555 0.059 2.822 1.326 2.881 2.881 0.065 1.71-1.302 3.117-2.998 3.117-0.195 0-0.385-0.019-0.569-0.055l0.579 4.055h8.24c0.414 0 0.75 0.336 0.75 0.75v0.5c0 0.414-0.336 0.75-0.75 0.75h-7.954l0.571 4h8.633c0.412 0 0.766 0.249 0.919 0.605l0.003 0.006 3.61 8.572 1.726-0.808c0.381-0.163 0.822 0.013 0.985 0.394zM19.774 23.007c-0.915 4-4.501 6.993-8.774 6.993-4.963 0-9-4.037-9-9 0-3.67 2.208-6.833 5.365-8.232l-0.292-2.042c-4.132 1.585-7.073 5.592-7.073 10.275 0 6.065 4.935 11 11 11 4.369 0 8.151-2.561 9.925-6.26l-1.151-2.733z"></path>
</svg>
