<!-- Generated by IcoMoon.io -->
<svg version="1.1" xmlns="http://www.w3.org/2000/svg" width="40" height="32" viewBox="0 0 40 32">
<title>whistle</title>
<path d="M13.125 11.838c-2.231 0-4.037 1.806-4.037 4.037s1.806 4.038 4.037 4.038 4.038-1.806 4.038-4.037c0-2.231-1.806-4.037-4.037-4.037zM13.125 17.894c-1.113 0-2.019-0.906-2.019-2.019s0.906-2.019 2.019-2.019 2.019 0.906 2.019 2.019c0 1.113-0.906 2.019-2.019 2.019zM29.012 12.662l-1.731 1.025c-0.181 0.106-0.406 0.094-0.575-0.037l-1.587-1.275c-0.169-0.131-0.231-0.356-0.163-0.556l0.644-1.863c0.137-0.406 0.006-0.85-0.325-1.119-4.25-3.4-6.738-6.081-12.156-6.081-2.063 0-4.125 0.487-6.006 1.456-0.769-0.913-1.875-1.462-3.075-1.462-2.225 0-4.037 1.812-4.037 4.037 0 1.219 0.544 2.344 1.45 3.1-2.531 4.938-1.738 11.138 2.394 15.269 2.563 2.563 5.919 3.844 9.281 3.844s6.719-1.281 9.281-3.844c0.631-0.631 1.181-1.306 1.656-2.025l9.494 5.425c0.444 0.25 1 0.137 1.306-0.269l4.938-6.581c0.325-0.438 0.25-1.056-0.175-1.394l-9.469-7.575c-0.325-0.262-0.781-0.294-1.144-0.075zM2.019 6.787c0-1.112 0.906-2.019 2.019-2.019 0.506 0 0.987 0.188 1.35 0.519-0.537 0.394-1.063 0.819-1.544 1.306-0.481 0.481-0.9 1-1.294 1.531-0.325-0.362-0.531-0.825-0.531-1.338zM34.050 26.006c-0.15 0.206-0.431 0.262-0.656 0.137l-9.969-5.7c-0.825 1.244-3.563 6.512-10.256 6.538-9.875 0.038-14.894-11.963-7.9-18.956 5.144-5.144 11.462-3 13.781-1.531 0.575 0.419 4.406 3.475 4.406 3.475l-0.756 2.2c-0.137 0.406-0.006 0.85 0.325 1.119l3.244 2.594c0.325 0.263 0.781 0.294 1.144 0.081l2.031-1.2 7.775 6.219c0.212 0.169 0.25 0.481 0.087 0.7l-3.256 4.325z"></path>
</svg>
