<!-- Generated by IcoMoon.io -->
<svg version="1.1" xmlns="http://www.w3.org/2000/svg" width="40" height="32" viewBox="0 0 40 32">
<title>whistle-solid</title>
<path d="M14.5 16c0 0.825-0.675 1.5-1.5 1.5s-1.5-0.675-1.5-1.5 0.675-1.5 1.5-1.5 1.5 0.675 1.5 1.5zM30.25 12.894l9.375 7.5c0.419 0.337 0.5 0.95 0.175 1.381l-4.888 6.519c-0.3 0.406-0.856 0.519-1.294 0.269l-9.4-5.375c-4.712 7.088-14.794 7.613-20.406 2-4.094-4.094-4.881-10.238-2.375-15.125-0.9-0.738-1.438-1.856-1.438-3.063 0-2.206 1.794-4 4-4 1.2 0 2.306 0.556 3.063 1.469 4.081-2.1 9.025-1.925 12.938 0.581l5.413 3.975c0.331 0.262 0.456 0.706 0.319 1.106l-0.637 1.844c-0.069 0.2-0.006 0.419 0.163 0.556l1.575 1.262c0.163 0.131 0.387 0.144 0.569 0.037l1.712-1.012c0.363-0.213 0.813-0.181 1.137 0.075zM5.344 5.519c-0.362-0.331-0.844-0.519-1.344-0.519-1.106 0-2 0.894-2 2 0 0.506 0.206 0.963 0.525 1.325 0.95-1.287 1.706-1.994 2.819-2.806zM17.5 16c0-2.481-2.019-4.5-4.5-4.5s-4.5 2.019-4.5 4.5 2.019 4.5 4.5 4.5 4.5-2.019 4.5-4.5z"></path>
</svg>
