<!-- Generated by IcoMoon.io -->
<svg version="1.1" xmlns="http://www.w3.org/2000/svg" width="40" height="32" viewBox="0 0 40 32">
<title>wifi-slash-solid</title>
<path d="M0.318 9.679c-0.416 0.385-0.424 1.037-0.022 1.436l2.14 2.123c0.384 0.381 1.001 0.389 1.4 0.024 0.437-0.4 0.894-0.764 1.353-1.126l-4.060-3.138c-0.269 0.232-0.549 0.44-0.811 0.682zM29.802 21.048l2.839-2.826c0.407-0.404 0.393-1.066-0.036-1.448-4.059-3.609-9.307-5.166-14.396-4.686l-5.197-4.017c7.871-2.397 16.734-0.688 23.152 5.191 0.399 0.366 1.016 0.357 1.4-0.024l2.14-2.123c0.403-0.399 0.394-1.051-0.022-1.436-8.653-8.004-21.052-9.727-31.343-5.221l-5.497-4.249c-0.436-0.339-1.065-0.261-1.404 0.176l-1.228 1.579c-0.339 0.436-0.261 1.064 0.176 1.403l36.773 28.421c0.436 0.339 1.064 0.261 1.404-0.176l1.227-1.579c0.339-0.436 0.261-1.064-0.176-1.403l-9.812-7.583zM7.394 16.774c-0.429 0.381-0.442 1.044-0.036 1.448l2.143 2.126c0.373 0.371 0.974 0.395 1.371 0.050 0.834-0.725 1.751-1.291 2.697-1.784l-4.273-3.302c-0.655 0.447-1.296 0.924-1.902 1.462zM16 26c0 2.209 1.791 4 4 4 1.994 0 3.634-1.464 3.937-3.374l-5.544-4.285c-1.407 0.619-2.393 2.023-2.393 3.659z"></path>
</svg>
