<!-- Generated by IcoMoon.io -->
<svg version="1.1" xmlns="http://www.w3.org/2000/svg" width="40" height="32" viewBox="0 0 40 32">
<title>wifi-solid</title>
<path d="M39.682 9.68c-11.073-10.242-28.295-10.238-39.364 0-0.416 0.385-0.424 1.037-0.022 1.436l2.14 2.123c0.384 0.381 1.001 0.389 1.4 0.024 9.12-8.355 23.206-8.357 32.328 0 0.399 0.366 1.016 0.357 1.4-0.024l2.14-2.123c0.402-0.399 0.394-1.051-0.023-1.436zM20 22c-2.209 0-4 1.791-4 4s1.791 4 4 4 4-1.791 4-4-1.791-4-4-4zM32.667 16.776c-7.204-6.371-18.138-6.364-25.334 0-0.431 0.381-0.445 1.043-0.036 1.447l2.152 2.124c0.375 0.37 0.979 0.395 1.378 0.050 5.247-4.536 13.109-4.526 18.343 0 0.399 0.345 1.003 0.321 1.378-0.050l2.152-2.124c0.41-0.404 0.396-1.066-0.035-1.447z"></path>
</svg>
