<!-- Generated by IcoMoon.io -->
<svg version="1.1" xmlns="http://www.w3.org/2000/svg" width="40" height="32" viewBox="0 0 40 32">
<title>wifi-slash</title>
<path d="M20.262 20.025c-0.087-0.006-0.175-0.025-0.262-0.025-2.762 0-5 2.238-5 5s2.238 5 5 5 5-2.238 5-5c0-0.5-0.094-0.969-0.231-1.425zM20 28c-1.656 0-3-1.344-3-3s1.344-3 3-3 3 1.344 3 3-1.344 3-3 3zM0.237 9.875c-0.306 0.294-0.319 0.781-0.019 1.081l0.356 0.356c0.287 0.287 0.756 0.294 1.050 0.019 1.194-1.131 2.469-2.119 3.8-2.988l-1.65-1.3c-1.225 0.85-2.419 1.769-3.538 2.831zM38.375 11.331c0.294 0.281 0.763 0.275 1.050-0.019l0.356-0.356c0.3-0.3 0.294-0.787-0.019-1.081-8.288-7.862-20.131-9.838-30.206-5.919l1.887 1.487c9.113-3.075 19.544-1.119 26.931 5.888zM19.781 12.006l2.788 2.2c3.238 0.481 6.363 1.863 8.956 4.169 0.3 0.269 0.762 0.25 1.037-0.044l0.344-0.363c0.294-0.306 0.275-0.794-0.044-1.075-3.712-3.313-8.4-4.938-13.081-4.887zM39.813 30.325l-38.375-30.212c-0.212-0.175-0.531-0.144-0.7 0.075l-0.625 0.781c-0.175 0.219-0.138 0.531 0.075 0.7l38.375 30.219c0.212 0.175 0.531 0.137 0.7-0.075l0.625-0.781c0.175-0.219 0.144-0.531-0.075-0.706zM7.125 16.894c-0.313 0.281-0.331 0.769-0.037 1.075l0.344 0.363c0.281 0.294 0.738 0.313 1.044 0.044 1.613-1.438 3.481-2.556 5.506-3.3l-1.794-1.412c-1.813 0.794-3.525 1.863-5.063 3.231z"></path>
</svg>
