<!-- Generated by IcoMoon.io -->
<svg version="1.1" xmlns="http://www.w3.org/2000/svg" width="40" height="32" viewBox="0 0 40 32">
<title>wifi</title>
<path d="M20 20c-2.761 0-5 2.239-5 5s2.239 5 5 5c2.762 0 5-2.24 5-5 0-2.761-2.239-5-5-5zM20 28c-1.654 0-3-1.346-3-3s1.346-3 3-3 3 1.346 3 3-1.346 3-3 3zM39.763 9.872c-11.062-10.491-28.454-10.501-39.526 0-0.309 0.293-0.318 0.782-0.016 1.082l0.356 0.356c0.288 0.288 0.754 0.296 1.050 0.016 10.312-9.774 26.477-9.735 36.748 0 0.296 0.28 0.762 0.272 1.050-0.016l0.356-0.356c0.301-0.301 0.292-0.789-0.017-1.082zM32.876 16.894c-7.334-6.53-18.429-6.521-25.753 0-0.316 0.281-0.332 0.769-0.041 1.075l0.346 0.362c0.279 0.292 0.739 0.31 1.041 0.042 6.573-5.836 16.5-5.826 23.061 0 0.302 0.268 0.762 0.251 1.041-0.042l0.346-0.362c0.291-0.306 0.274-0.794-0.042-1.075z"></path>
</svg>
