<!-- Generated by IcoMoon.io -->
<svg version="1.1" xmlns="http://www.w3.org/2000/svg" width="32" height="32" viewBox="0 0 32 32">
<title>window-restore</title>
<path d="M29 0h-20c-1.656 0-3 1.344-3 3v3h-3c-1.656 0-3 1.344-3 3v20c0 1.656 1.344 3 3 3h20c1.656 0 3-1.344 3-3v-3h3c1.656 0 3-1.344 3-3v-20c0-1.656-1.344-3-3-3zM2 9c0-0.55 0.45-1 1-1h20c0.55 0 1 0.45 1 1v5h-22v-5zM24 29c0 0.55-0.45 1-1 1h-20c-0.55 0-1-0.45-1-1v-13h22v13zM30 23c0 0.55-0.45 1-1 1h-3v-15c0-1.656-1.344-3-3-3h-15v-3c0-0.55 0.45-1 1-1h20c0.55 0 1 0.45 1 1v20z"></path>
</svg>
