<!-- Generated by IcoMoon.io -->
<svg version="1.1" xmlns="http://www.w3.org/2000/svg" width="32" height="32" viewBox="0 0 32 32">
<title>wind-turbine-solid</title>
<path d="M21.881 30h-3.020l-0.313-4.791-4.736-5.584-0.674 10.375h-3.020c-0.898 0.001-1.675 0.514-2.056 1.263l-0.006 0.013c-0.033 0.065-0.053 0.142-0.053 0.224 0 0.275 0.222 0.498 0.496 0.5h15c0.276-0 0.5-0.224 0.5-0.5 0-0.082-0.020-0.159-0.054-0.227l0.001 0.003c-0.387-0.763-1.166-1.276-2.065-1.276-0 0-0.001 0-0.001 0h0zM24.918 26.612l-5.522-11.395c-0.183-0.41-0.29-0.889-0.29-1.392 0-0.462 0.090-0.902 0.253-1.306l-0.008 0.023 4.58-11.192c0.044-0.108 0.070-0.233 0.070-0.364 0-0.545-0.442-0.988-0.988-0.988-0.328 0-0.619 0.16-0.799 0.407l-0.002 0.003-7.133 9.792c-0.535 0.734-1.336 1.247-2.259 1.397l-0.020 0.003-11.967 1.896c-0.475 0.078-0.833 0.485-0.833 0.976 0 0.007 0 0.015 0 0.022l-0-0.001v0.014c0.012 0.499 0.391 0.905 0.877 0.959l0.004 0 11.858 1.283c0.953 0.106 1.779 0.582 2.341 1.28l0.005 0.007 8.144 9.594c0.183 0.226 0.46 0.37 0.771 0.37 0.189 0 0.366-0.053 0.517-0.146l-0.004 0.002 0.012-0.008c0.287-0.176 0.475-0.488 0.475-0.844 0-0.142-0.030-0.278-0.084-0.4l0.003 0.006zM16 15.5c-0.828 0-1.5-0.672-1.5-1.5s0.672-1.5 1.5-1.5c0.828 0 1.5 0.672 1.5 1.5v0c0 0.828-0.672 1.5-1.5 1.5v0z"></path>
</svg>
