<!-- Generated by IcoMoon.io -->
<svg version="1.1" xmlns="http://www.w3.org/2000/svg" width="32" height="32" viewBox="0 0 32 32">
<title>wind-solid</title>
<path d="M9.794 16h-8.794c-0.55 0-1 0.45-1 1v2c0 0.55 0.45 1 1 1h8.887c0.994 0 1.925 0.681 2.088 1.663 0.206 1.25-0.756 2.337-1.975 2.337-0.881 0-1.631-0.575-1.9-1.369-0.131-0.394-0.537-0.631-0.95-0.631h-2.050c-0.612 0-1.106 0.55-0.994 1.15 0.537 2.756 2.975 4.85 5.887 4.85 3.569 0 6.419-3.131 5.95-6.788-0.381-3.025-3.106-5.213-6.15-5.213zM1 14h21c3.731 0 6.675-3.425 5.863-7.294-0.475-2.263-2.306-4.094-4.569-4.569-3.462-0.725-6.569 1.556-7.181 4.719-0.119 0.6 0.381 1.144 0.988 1.144h2.050c0.419 0 0.819-0.237 0.95-0.631 0.269-0.794 1.019-1.369 1.9-1.369 1.212 0 2.181 1.088 1.975 2.338-0.163 0.981-1.087 1.662-2.087 1.662h-20.887c-0.55 0-1 0.45-1 1v2c0 0.55 0.45 1 1 1zM25 16h-9.769c1.206 1.038 2.075 2.425 2.488 4h7.281c1.656 0 3 1.344 3 3s-1.344 3-3 3c-1.119 0-2.081-0.619-2.6-1.525-0.181-0.313-0.544-0.475-0.906-0.475h-2.113c-0.681 0-1.188 0.675-0.956 1.319 1.113 3.163 4.406 5.3 8.087 4.519 2.575-0.544 4.694-2.6 5.294-5.169 1.069-4.575-2.4-8.669-6.806-8.669z"></path>
</svg>
