<!-- Generated by IcoMoon.io -->
<svg version="1.1" xmlns="http://www.w3.org/2000/svg" width="32" height="32" viewBox="0 0 32 32">
<title>wind</title>
<path d="M0.5 14h21.5c3.738 0 6.675-3.412 5.863-7.294-0.475-2.269-2.306-4.1-4.575-4.575-3.694-0.769-6.969 1.862-7.269 5.338-0.025 0.287 0.219 0.525 0.5 0.525h1.012c0.262 0 0.462-0.206 0.494-0.463 0.269-2.287 2.469-3.987 4.919-3.425 1.444 0.331 2.613 1.506 2.95 2.95 0.6 2.612-1.381 4.944-3.894 4.944h-21.5c-0.275 0-0.5 0.225-0.5 0.5v1c0 0.275 0.225 0.5 0.5 0.5zM9.75 16h-9.25c-0.275 0-0.5 0.225-0.5 0.5v1c0 0.275 0.225 0.5 0.5 0.5h9.319c2.088 0 3.956 1.525 4.156 3.6 0.231 2.381-1.644 4.4-3.981 4.4-2.050 0-3.744-1.55-3.975-3.531-0.031-0.262-0.231-0.462-0.494-0.462h-1c-0.287 0-0.525 0.244-0.5 0.525 0.269 3.069 2.844 5.475 5.975 5.475 3.375 0 6.1-2.788 6-6.181-0.1-3.294-2.969-5.825-6.25-5.825zM24.706 16h-9.469c0.656 0.575 1.212 1.244 1.65 2h7.887c2.613 0 4.944 1.9 5.2 4.5 0.294 2.981-2.056 5.5-4.975 5.5-2.281 0-4.206-1.531-4.806-3.625-0.063-0.219-0.25-0.375-0.481-0.375h-1.006c-0.313 0-0.563 0.288-0.494 0.594 0.719 3.094 3.475 5.406 6.787 5.406 3.938 0 7.119-3.25 7-7.212-0.119-3.831-3.462-6.788-7.294-6.788z"></path>
</svg>
