<!-- Generated by IcoMoon.io -->
<svg version="1.1" xmlns="http://www.w3.org/2000/svg" width="32" height="32" viewBox="0 0 32 32">
<title>window-close</title>
<path d="M29 2h-26c-1.656 0-3 1.344-3 3v22c0 1.656 1.344 3 3 3h26c1.656 0 3-1.344 3-3v-22c0-1.656-1.344-3-3-3zM30 27c0 0.55-0.45 1-1 1h-26c-0.55 0-1-0.45-1-1v-22c0-0.55 0.45-1 1-1h26c0.55 0 1 0.45 1 1v22zM21.788 11.769l-4.231 4.231 4.231 4.231c0.288 0.288 0.288 0.75 0 1.038l-0.519 0.519c-0.288 0.288-0.75 0.288-1.038 0l-4.231-4.231-4.231 4.231c-0.287 0.288-0.75 0.288-1.037 0l-0.519-0.519c-0.287-0.288-0.287-0.75 0-1.038l4.231-4.231-4.231-4.231c-0.287-0.287-0.287-0.75 0-1.037l0.519-0.519c0.287-0.287 0.75-0.287 1.037 0l4.231 4.231 4.231-4.231c0.288-0.287 0.75-0.287 1.038 0l0.519 0.519c0.281 0.287 0.281 0.75 0 1.037z"></path>
</svg>
