<!-- Generated by IcoMoon.io -->
<svg version="1.1" xmlns="http://www.w3.org/2000/svg" width="40" height="32" viewBox="0 0 40 32">
<title>wind-warning-solid</title>
<path d="M39.706 10.094c-0.556-1.787-2.013-3.244-3.794-3.8-3.694-1.15-7.125 1.194-7.794 4.525-0.125 0.613 0.363 1.181 0.981 1.181h2.050c0.419 0 0.819-0.238 0.95-0.631 0.263-0.794 1.019-1.369 1.9-1.369 1.212 0 2.181 1.088 1.975 2.338-0.163 0.981-1.087 1.662-2.087 1.662h-8.050c-0.206 1.412-0.619 2.756-1.212 4h9.375c3.925 0 6.987-3.794 5.706-7.906zM39.881 24.806c-0.556-2.85-3.219-4.806-6.119-4.806h-10.288c-1.125 1.613-2.587 2.962-4.269 3.981 0.038 0.006 0.063 0.019 0.1 0.019h14.581c0.994 0 1.925 0.681 2.087 1.663 0.206 1.25-0.756 2.337-1.975 2.337-0.881 0-1.631-0.575-1.9-1.369-0.131-0.394-0.538-0.631-0.95-0.631h-2.050c-0.625 0-1.106 0.581-0.981 1.194 0.556 2.738 2.981 4.806 5.881 4.806 3.7 0 6.625-3.363 5.881-7.194zM24 12c0-6.625-5.375-12-12-12s-12 5.375-12 12 5.375 12 12 12 12-5.375 12-12zM12 20c-1.106 0-2-0.894-2-2s0.894-2 2-2 2 0.894 2 2-0.894 2-2 2zM13.588 13.1c-0.050 0.512-0.481 0.9-0.994 0.9h-1.188c-0.512 0-0.944-0.387-0.994-0.9l-0.8-8c-0.056-0.588 0.4-1.1 0.994-1.1h2.787c0.594 0 1.056 0.512 0.994 1.1l-0.8 8z"></path>
</svg>
