<!-- Generated by IcoMoon.io -->
<svg version="1.1" xmlns="http://www.w3.org/2000/svg" width="32" height="32" viewBox="0 0 32 32">
<title>wind-turbine</title>
<path d="M20.218 26.927c0.531 0.652 1.333 1.066 2.233 1.066 1.586 0 2.871-1.285 2.871-2.871 0-0.409-0.086-0.798-0.24-1.151l0.007 0.018-4.234-9.724c-0.055-0.123-0.088-0.268-0.088-0.419 0-0.139 0.027-0.272 0.076-0.393l-0.003 0.007 3.779-9.542c0.127-0.312 0.201-0.674 0.201-1.054 0-1.582-1.282-2.864-2.864-2.864-0.951 0-1.794 0.464-2.315 1.178l-0.006 0.008-6.011 8.316c-0.162 0.221-0.403 0.375-0.681 0.42l-0.006 0.001-10.472 1.659c-1.377 0.227-2.415 1.41-2.415 2.834 0 1.474 1.111 2.689 2.542 2.852l0.013 0.001 10.332 1.121-0.75 11.608h-2.019c-0.898 0.001-1.675 0.514-2.056 1.263l-0.006 0.013c-0.033 0.065-0.053 0.142-0.053 0.224 0 0.275 0.222 0.498 0.497 0.5h15c0.276-0 0.5-0.224 0.5-0.5 0-0.082-0.020-0.159-0.054-0.227l0.001 0.003c-0.387-0.762-1.165-1.275-2.062-1.276h-2.021l-0.241-3.724 0.438 0.519zM14.188 30l0.614-9.477 2.697 3.188 0.411 6.29zM15.25 17.534c-0.497-0.616-1.219-1.032-2.039-1.124l-0.014-0.001-10.375-1.125c-0.429-0.047-0.762-0.403-0.772-0.839l-0-0.001v-0.012c-0-0.007-0-0.014-0-0.022 0-0.429 0.313-0.785 0.723-0.852l0.005-0.001 10.471-1.656c0.825-0.134 1.526-0.582 1.988-1.216l0.006-0.009 6.013-8.318c0.159-0.217 0.413-0.356 0.699-0.356 0.477 0 0.864 0.387 0.864 0.864 0 0.114-0.022 0.223-0.062 0.322l0.002-0.006-3.779 9.543c-0.135 0.332-0.214 0.718-0.214 1.122 0 0.441 0.094 0.86 0.262 1.238l-0.008-0.019 4.233 9.72c0.045 0.102 0.072 0.22 0.072 0.345 0 0.311-0.165 0.584-0.411 0.736l-0.004 0.002-0.011 0.006c-0.128 0.079-0.284 0.126-0.45 0.126-0.272 0-0.515-0.126-0.674-0.323l-0.001-0.002zM16.050 12.5c-0.828 0-1.5 0.672-1.5 1.5s0.672 1.5 1.5 1.5c0.828 0 1.5-0.672 1.5-1.5v0c0-0.828-0.672-1.5-1.5-1.5v0z"></path>
</svg>
