<!-- Generated by IcoMoon.io -->
<svg version="1.1" xmlns="http://www.w3.org/2000/svg" width="32" height="32" viewBox="0 0 32 32">
<title>window</title>
<path d="M6 10c-1.106 0-2-0.894-2-2s0.894-2 2-2 2 0.894 2 2-0.894 2-2 2zM14 8c0-1.106-0.894-2-2-2s-2 0.894-2 2 0.894 2 2 2 2-0.894 2-2zM20 8c0-1.106-0.894-2-2-2s-2 0.894-2 2 0.894 2 2 2 2-0.894 2-2zM32 5v22c0 1.656-1.344 3-3 3h-26c-1.656 0-3-1.344-3-3v-22c0-1.656 1.344-3 3-3h26c1.656 0 3 1.344 3 3zM30 14h-28v13c0 0.55 0.45 1 1 1h26c0.55 0 1-0.45 1-1v-13zM30 12v-7c0-0.55-0.45-1-1-1h-26c-0.55 0-1 0.45-1 1v7h28z"></path>
</svg>
