<!-- Generated by IcoMoon.io -->
<svg version="1.1" xmlns="http://www.w3.org/2000/svg" width="32" height="32" viewBox="0 0 32 32">
<title>windsock</title>
<path d="M31.081 9.875l-27.081-3.606v-0.45c1.162-0.412 2-1.513 2-2.819 0-1.656-1.344-3-3-3s-3 1.344-3 3c0 1.306 0.838 2.406 2 2.819v25.644c0 0.3 0.225 0.538 0.5 0.538h1c0.275 0 0.5-0.244 0.5-0.538v-6.231l27.081-3.606c0.525-0.069 0.919-0.494 0.919-0.988v-9.769c0-0.5-0.394-0.919-0.919-0.994zM3 2c0.55 0 1 0.45 1 1s-0.45 1-1 1-1-0.45-1-1 0.45-1 1-1zM19 10.281l5 0.669v9.6l-5 0.669v-10.938zM17 21.481l-6 0.8v-13.063l6 0.8v11.463zM4 8.281l5 0.669v13.6l-5 0.669v-14.938zM30 19.75l-4 0.531v-9.063l4 0.531v8z"></path>
</svg>
