<!-- Generated by IcoMoon.io -->
<svg version="1.1" xmlns="http://www.w3.org/2000/svg" width="32" height="32" viewBox="0 0 32 32">
<title>window-close-solid</title>
<path d="M29 2h-26c-1.656 0-3 1.344-3 3v22c0 1.656 1.344 3 3 3h26c1.656 0 3-1.344 3-3v-22c0-1.656-1.344-3-3-3zM23.775 20.156c0.3 0.3 0.3 0.788 0 1.087l-2.531 2.531c-0.3 0.3-0.788 0.3-1.087 0l-4.156-4.194-4.156 4.194c-0.3 0.3-0.787 0.3-1.088 0l-2.531-2.531c-0.3-0.3-0.3-0.788 0-1.087l4.194-4.156-4.194-4.156c-0.3-0.3-0.3-0.787 0-1.088l2.531-2.531c0.3-0.3 0.787-0.3 1.088 0l4.156 4.194 4.156-4.194c0.3-0.3 0.788-0.3 1.087 0l2.531 2.531c0.3 0.3 0.3 0.787 0 1.088l-4.194 4.156 4.194 4.156z"></path>
</svg>
