<!-- Generated by IcoMoon.io -->
<svg version="1.1" xmlns="http://www.w3.org/2000/svg" width="32" height="32" viewBox="0 0 32 32">
<title>windsock-solid</title>
<path d="M16 23.788l6-0.856v-12.863l-6-0.856v14.575zM7 25.069l5-0.712v-15.713l-5-0.713v17.137zM31.144 11.375l-5.144-0.731v11.713l5.144-0.738c0.494-0.069 0.856-0.494 0.856-0.988v-8.262c0-0.5-0.369-0.919-0.856-0.994zM3.5 0c-1.931 0-3.5 1.569-3.5 3.5 0 1.394 0.819 2.588 2 3.15v24.35c0 0.55 0.45 1 1 1h1c0.55 0 1-0.45 1-1v-24.35c1.181-0.563 2-1.756 2-3.15 0-1.931-1.569-3.5-3.5-3.5z"></path>
</svg>
