<!-- Generated by IcoMoon.io -->
<svg version="1.1" xmlns="http://www.w3.org/2000/svg" width="40" height="32" viewBox="0 0 40 32">
<title>wind-warning</title>
<path d="M12 0c-6.625 0-12 5.375-12 12s5.375 12 12 12 12-5.375 12-12-5.375-12-12-12zM12 22c-5.513 0-10-4.488-10-10s4.487-10 10-10 10 4.487 10 10-4.488 10-10 10zM11.469 13h1.063c0.262 0 0.481-0.206 0.5-0.469l0.438-7c0.019-0.287-0.213-0.531-0.5-0.531h-1.938c-0.287 0-0.519 0.244-0.5 0.531l0.438 7c0.019 0.262 0.238 0.469 0.5 0.469zM12 14.5c-0.831 0-1.5 0.669-1.5 1.5s0.669 1.5 1.5 1.5 1.5-0.669 1.5-1.5-0.669-1.5-1.5-1.5zM33.731 20h-10.256c-0.5 0.719-1.069 1.387-1.694 2h12.025c2.087 0 3.956 1.525 4.156 3.6 0.231 2.381-1.644 4.4-3.981 4.4-2.050 0-3.744-1.55-3.975-3.531-0.031-0.262-0.231-0.462-0.494-0.462h-1.006c-0.288 0-0.525 0.244-0.5 0.525 0.269 3.069 2.844 5.475 5.975 5.475 3.375 0 6.1-2.788 6-6.181-0.1-3.294-2.969-5.825-6.25-5.825zM39.862 10.706c-0.475-2.269-2.306-4.1-4.575-4.575-3.694-0.769-6.969 1.862-7.269 5.337-0.025 0.287 0.219 0.525 0.5 0.525h1.012c0.262 0 0.462-0.206 0.494-0.463 0.262-2.287 2.469-3.987 4.919-3.425 1.444 0.331 2.612 1.506 2.95 2.95 0.6 2.613-1.381 4.944-3.894 4.944h-8.587c-0.206 0.694-0.475 1.356-0.781 2h9.369c3.737 0 6.675-3.412 5.862-7.294z"></path>
</svg>
