<!-- Generated by IcoMoon.io -->
<svg version="1.1" xmlns="http://www.w3.org/2000/svg" width="18" height="32" viewBox="0 0 18 32">
<title>wine-glass-alt-solid</title>
<path d="M13.5 29h-2.5v-7.324c4.279-0.993 7.378-4.994 6.962-9.635l-0.997-11.131c-0.046-0.515-0.472-0.909-0.982-0.909h-13.967c-0.509 0-0.936 0.394-0.981 0.909l-0.998 11.132c-0.416 4.641 2.683 8.642 6.963 9.635v7.324h-2.5c-1.381 0-2.5 1.119-2.5 2.5 0 0.276 0.224 0.5 0.5 0.5h13c0.276 0 0.5-0.224 0.5-0.5 0-1.381-1.119-2.5-2.5-2.5zM3.859 3h10.281l0.448 5h-11.178l0.448-5z"></path>
</svg>
