<!-- Generated by IcoMoon.io -->
<svg version="1.1" xmlns="http://www.w3.org/2000/svg" width="32" height="32" viewBox="0 0 32 32">
<title>wine-bottle</title>
<path d="M31.432 4.529l-3.976-3.978c-0.734-0.734-2.008-0.734-2.742-0.001l-1.328 1.328c-0.494 0.496-0.664 1.198-0.508 1.835l-3.527 3.529c-3.041-1.014-6.386-0.242-8.681 2.053l-9.283 9.285c-1.85 1.854-1.85 4.868 0 6.721l5.305 5.306c0.897 0.898 2.088 1.393 3.357 1.393s2.463-0.494 3.36-1.392l9.283-9.286c2.293-2.294 3.065-5.639 2.051-8.686l3.526-3.527c0.642 0.156 1.359-0.034 1.838-0.512l1.324-1.325c0.365-0.366 0.568-0.853 0.568-1.372s-0.203-1.005-0.568-1.371zM19.888 21.297l-5.587 5.589-9.194-9.198 5.588-5.589 9.193 9.198zM8.107 29.192l-5.305-5.306c-1.071-1.073-1.071-2.819 0-3.892l0.892-0.892 9.194 9.198-0.891 0.892c-1.039 1.039-2.85 1.039-3.889-0.001zM28.783 7.184l-0.709-0.709-5.676 5.681 0.262 0.621c1.034 2.444 0.499 5.228-1.358 7.106l-9.19-9.194c3.177-3.143 6.984-1.409 7.102-1.36l0.619 0.263 5.674-5.591-0.705-0.708 1.238-1.327 3.934 3.938-1.191 1.282z"></path>
</svg>
