<!-- Generated by IcoMoon.io -->
<svg version="1.1" xmlns="http://www.w3.org/2000/svg" width="32" height="32" viewBox="0 0 32 32">
<title>wine-bottle-solid</title>
<path d="M31.707 4.536l-4.242-4.242c-0.391-0.391-1.024-0.391-1.414 0l-1.414 1.414c-0.391 0.391-0.391 1.024 0 1.414l-4.792 4.792c-2.911-1.231-6.4-0.671-8.773 1.702l-9.899 9.899c-1.562 1.562-1.562 4.095 0 5.657l5.657 5.657c1.562 1.562 4.095 1.562 5.657 0l9.899-9.899c2.372-2.372 2.933-5.862 1.702-8.773l4.792-4.792c0.391 0.391 1.024 0.391 1.414 0l1.414-1.414c0.39-0.39 0.39-1.023-0.001-1.414zM11.201 26.456l-5.657-5.657 7.628-7.628 5.657 5.657-7.628 7.628z"></path>
</svg>
