<!-- Generated by IcoMoon.io -->
<svg version="1.1" xmlns="http://www.w3.org/2000/svg" width="18" height="32" viewBox="0 0 18 32">
<title>wine-glass</title>
<path d="M17.962 12.041l-0.997-11.132c-0.046-0.515-0.471-0.909-0.981-0.909h-13.967c-0.509 0-0.936 0.394-0.981 0.909l-0.998 11.132c-0.448 5.001 3.167 9.306 7.963 9.851v8.108h-3.333c-0.921 0-1.667 0.746-1.667 1.667 0 0.184 0.149 0.333 0.333 0.333h11.334c0.184 0 0.333-0.149 0.333-0.333 0-0.921-0.746-1.667-1.667-1.667h-3.333v-8.108c4.796-0.545 8.411-4.85 7.963-9.851zM9 19.892c-2.761 0-5.296-1.604-6.403-4.134-0.468-1.071-0.68-2.277-0.567-3.537l0.915-10.22h12.11l0.916 10.219c0.113 1.26-0.099 2.467-0.567 3.537-1.107 2.53-3.643 4.135-6.404 4.135z"></path>
</svg>
