<!-- Generated by IcoMoon.io -->
<svg version="1.1" xmlns="http://www.w3.org/2000/svg" width="18" height="32" viewBox="0 0 18 32">
<title>wine-glass-alt</title>
<path d="M13.334 30h-3.334v-8.108c4.796-0.545 8.411-4.85 7.962-9.851l-0.997-11.132c-0.046-0.515-0.471-0.909-0.981-0.909h-13.967c-0.509 0-0.936 0.394-0.981 0.909l-0.998 11.132c-0.448 5.001 3.167 9.306 7.963 9.851v8.108h-3.333c-0.921 0-1.667 0.746-1.667 1.667 0 0.184 0.149 0.333 0.333 0.333h11.334c0.184 0 0.333-0.149 0.333-0.333 0-0.921-0.746-1.667-1.666-1.667zM15.055 2l0.537 6h-13.185l0.538-6h12.11zM2.029 12.219l0.199-2.219h13.543l0.199 2.219c0.113 1.26-0.099 2.467-0.567 3.537-1.107 2.53-3.642 4.134-6.403 4.134s-5.296-1.604-6.403-4.134c-0.469-1.070-0.681-2.277-0.568-3.537z"></path>
</svg>
