<!-- Generated by IcoMoon.io -->
<svg version="1.1" xmlns="http://www.w3.org/2000/svg" width="36" height="32" viewBox="0 0 36 32">
<title>won-sign-solid</title>
<path d="M35.25 12c0.413 0 0.75-0.338 0.75-0.75v-2.5c0-0.412-0.337-0.75-0.75-0.75h-3l1.163-5.037c0.106-0.469-0.25-0.919-0.731-0.919h-2.881c-0.356 0-0.663 0.25-0.731 0.594l-0.9 5.362h-6.869l-1.231-5.375c-0.081-0.344-0.381-0.581-0.731-0.581h-2.75c-0.35 0-0.65 0.237-0.731 0.581l-1.25 5.375h-6.794l-1.094-5.356c-0.069-0.35-0.381-0.6-0.737-0.6h-2.631c-0.481 0-0.837 0.444-0.731 0.913l1.131 5.044h-3c-0.412 0-0.75 0.338-0.75 0.75v2.5c0 0.412 0.338 0.75 0.75 0.75h3.894l0.45 2h-4.344c-0.412 0-0.75 0.338-0.75 0.75v2.5c0 0.413 0.338 0.75 0.75 0.75h5.244l2.556 11.413c0.075 0.344 0.381 0.587 0.731 0.587h3.55c0.35 0 0.65-0.244 0.731-0.581l2.644-11.419h3.444l2.65 11.419c0.081 0.337 0.381 0.581 0.731 0.581h3.55c0.35 0 0.65-0.244 0.731-0.581l2.631-11.419h5.306c0.413 0 0.75-0.337 0.75-0.75v-2.5c0-0.412-0.337-0.75-0.75-0.75h-4.381l0.462-2zM11.488 21.375c-0.387 1.613-0.425 2.95-0.456 2.95h-0.069s-0.106-1.375-0.425-2.95l-0.688-3.375h2.425zM13.206 14h-4.175l-0.406-2h5.050zM17.137 14l0.125-0.537c0.119-0.5 0.219-1 0.3-1.463h0.738c0.081 0.463 0.181 0.963 0.3 1.463l0.125 0.537zM25.319 21.375c-0.319 1.575-0.425 2.95-0.425 2.95h-0.069c-0.038 0-0.069-1.337-0.456-2.95l-0.775-3.375h2.444zM26.894 14h-4.213l-0.456-2h5.1z"></path>
</svg>
