<!-- Generated by IcoMoon.io -->
<svg version="1.1" xmlns="http://www.w3.org/2000/svg" width="36" height="32" viewBox="0 0 36 32">
<title>won-sign</title>
<path d="M35.25 10c0.414 0 0.75-0.336 0.75-0.75v-1c0-0.414-0.336-0.75-0.75-0.75h-3.363l1.077-4.521c0.112-0.471-0.245-0.924-0.73-0.924h-1.017c0 0-0 0-0 0-0.354 0-0.651 0.246-0.73 0.576l-0.001 0.005-1.125 4.863h-8.918l-1.183-4.871c-0.082-0.331-0.377-0.573-0.729-0.573-0 0-0 0-0 0h-1.17c-0.351 0-0.646 0.242-0.728 0.568l-0.001 0.005-1.183 4.871h-8.785l-1.084-4.858c-0.077-0.338-0.376-0.587-0.732-0.587h-1.018c-0.483 0-0.84 0.449-0.731 0.919l1.049 4.525h-3.401c-0.414 0-0.75 0.336-0.75 0.75v1c0 0.414 0.336 0.75 0.75 0.75h3.98l0.811 3.5h-4.792c-0.414 0-0.75 0.336-0.75 0.75v1c0 0.414 0.336 0.75 0.75 0.75h5.371l3.111 13.419c0.080 0.335 0.376 0.581 0.731 0.581 0 0 0 0 0 0h1.769c0.346 0 0.647-0.237 0.729-0.573l3.255-13.427h4.461l3.255 13.427c0.082 0.331 0.377 0.573 0.729 0.573h1.773c0.353 0 0.648-0.243 0.729-0.571l0.001-0.005 3.198-13.424h5.388c0.414 0 0.75-0.336 0.75-0.75v-1c0-0.414-0.336-0.75-0.75-0.75h-4.793l0.834-3.5h3.959zM17.911 6.15h0.071s0.093 0.565 0.237 1.35h-0.545c0.008 0.042 0.091-0.416 0.17-0.875l0.067-0.475zM7.224 10h7.62l-0.85 3.5h-5.99l-0.781-3.5zM11.504 23.759c-0.356 1.431-0.534 2.981-0.57 2.981h-0.071s-0.249-1.55-0.57-2.981l-1.731-7.759h4.825l-1.884 7.759zM16.323 13.5l0.77-3.176c0.025-0.106 0.050-0.214 0.076-0.324h1.558c0.025 0.11 0.050 0.218 0.076 0.324l0.77 3.176h-3.249zM25.601 23.759c-0.32 1.431-0.57 2.981-0.57 2.981h-0.071c-0.036 0-0.214-1.55-0.57-2.981l-1.884-7.759h4.889l-1.794 7.759zM27.974 13.5h-6.074l-0.85-3.5h7.733l-0.809 3.5z"></path>
</svg>
