<!-- Generated by IcoMoon.io -->
<svg version="1.1" xmlns="http://www.w3.org/2000/svg" width="28" height="32" viewBox="0 0 28 32">
<title>wreath-solid</title>
<path d="M18.681 24.050l-4.681 1.95-4.681-1.95c-0.65-0.219-1.319 0.269-1.319 0.95v6c0 0.681 0.669 1.163 1.319 0.95l4.681-1.95 4.681 1.95c0.65 0.219 1.319-0.269 1.319-0.95v-6c0-0.681-0.669-1.163-1.319-0.95zM28 14c0-1.056-0.544-1.975-1.369-2.512 0.556-0.806 0.706-1.869 0.3-2.844-0.413-0.994-1.294-1.638-2.275-1.806 0.206-0.963-0.012-1.994-0.756-2.737s-1.781-0.962-2.738-0.756c-0.169-0.988-0.813-1.869-1.8-2.275-0.975-0.406-2.038-0.25-2.844 0.3-0.544-0.825-1.463-1.369-2.519-1.369s-1.975 0.544-2.512 1.369c-0.813-0.556-1.875-0.706-2.844-0.3-0.987 0.413-1.638 1.294-1.8 2.275-0.963-0.206-1.994 0.013-2.737 0.756s-0.962 1.775-0.756 2.737c-0.988 0.169-1.863 0.813-2.275 1.8-0.406 0.975-0.25 2.037 0.3 2.844-0.831 0.544-1.375 1.463-1.375 2.519s0.544 1.975 1.369 2.512c-0.556 0.806-0.706 1.869-0.3 2.844 0.413 0.988 1.294 1.613 2.281 1.781-0.212 0.969 0 2.012 0.756 2.762 0.537 0.538 1.225 0.794 1.925 0.844 0.063-0.712 0.356-1.375 0.875-1.887 0.563-0.55 1.312-0.856 2.094-0.856 0.325 0 0.644 0.050 0.95 0.156l0.137 0.050 3.919 1.631 4.056-1.681c0.306-0.1 0.625-0.156 0.95-0.156 1.563 0 2.837 1.206 2.975 2.738 0.7-0.044 1.387-0.306 1.925-0.844 0.75-0.75 0.969-1.794 0.756-2.762 0.988-0.169 1.869-0.788 2.281-1.781 0.406-0.975 0.25-2.038-0.3-2.844 0.806-0.531 1.35-1.45 1.35-2.506zM18.844 15.637c-0.175 0.556-0.069 1.262-0.394 1.725-0.325 0.469-1.006 0.581-1.456 0.925-0.444 0.337-0.756 0.975-1.294 1.156-0.512 0.175-1.131-0.144-1.7-0.144s-1.188 0.319-1.7 0.144c-0.531-0.181-0.85-0.819-1.294-1.156-0.45-0.337-1.131-0.456-1.456-0.925-0.325-0.462-0.219-1.169-0.394-1.725-0.169-0.537-0.656-1.044-0.656-1.637s0.488-1.1 0.656-1.637c0.175-0.556 0.069-1.262 0.394-1.725 0.325-0.469 1.006-0.581 1.456-0.925 0.444-0.338 0.756-0.975 1.294-1.156 0.512-0.175 1.131 0.144 1.7 0.144s1.188-0.319 1.7-0.144c0.531 0.181 0.85 0.819 1.294 1.156 0.45 0.338 1.131 0.456 1.456 0.925 0.325 0.463 0.219 1.169 0.394 1.725 0.169 0.537 0.656 1.044 0.656 1.637s-0.488 1.1-0.656 1.637z"></path>
</svg>
