<!-- Generated by IcoMoon.io -->
<svg version="1.1" xmlns="http://www.w3.org/2000/svg" width="28" height="32" viewBox="0 0 28 32">
<title>wreath</title>
<path d="M19.425 12.088c-0.144-1.381-0.644-2.162-1.962-2.781-0.087-0.044-0.056-0.019-0.119-0.094-0.988-1.137-1.906-1.394-3.256-1.1-0.106 0.025-0.056 0.019-0.162 0-1.35-0.294-2.269-0.037-3.256 1.1-0.063 0.075-0.031 0.050-0.119 0.094-1.319 0.619-1.819 1.4-1.969 2.781-0.012 0.144 0 0.094-0.056 0.2-0.688 1.238-0.7 2.169 0 3.431 0.063 0.106 0.044 0.056 0.056 0.2 0.15 1.425 0.681 2.175 1.963 2.781 0.088 0.044 0.056 0.019 0.119 0.094 0.988 1.137 1.906 1.394 3.256 1.1 0.1-0.019 0.056-0.025 0.162 0 1.35 0.294 2.269 0.038 3.256-1.1 0.063-0.075 0.038-0.050 0.119-0.094 1.319-0.619 1.819-1.4 1.969-2.781 0.012-0.144 0-0.094 0.056-0.2 0.681-1.231 0.7-2.162 0-3.431-0.056-0.106-0.038-0.056-0.056-0.2zM17.525 15.194c-0.125 0.406-0.050 0.919-0.288 1.256s-0.731 0.425-1.056 0.675c-0.325 0.244-0.55 0.712-0.938 0.844-0.375 0.125-0.825-0.106-1.238-0.106s-0.863 0.231-1.238 0.106c-0.387-0.131-0.619-0.594-0.938-0.844-0.325-0.25-0.819-0.331-1.056-0.675-0.238-0.337-0.162-0.85-0.287-1.256-0.119-0.387-0.475-0.762-0.475-1.194s0.356-0.8 0.475-1.194c0.125-0.406 0.050-0.919 0.287-1.256s0.731-0.425 1.056-0.675c0.325-0.244 0.55-0.713 0.938-0.844 0.375-0.125 0.825 0.106 1.238 0.106s0.863-0.231 1.238-0.106c0.387 0.131 0.619 0.594 0.938 0.844 0.325 0.25 0.819 0.331 1.056 0.675 0.238 0.338 0.163 0.85 0.288 1.256 0.119 0.387 0.475 0.762 0.475 1.194s-0.356 0.8-0.475 1.194zM28 14c0-0.956-0.294-1.863-0.825-2.619 0.2-0.9 0.125-1.856-0.238-2.737-0.369-0.9-1.006-1.631-1.8-2.125-0.15-0.912-0.575-1.756-1.238-2.419-0.656-0.656-1.5-1.087-2.419-1.237-0.494-0.794-1.225-1.425-2.125-1.8-1.163-0.481-2.194-0.363-2.738-0.238-0.756-0.531-1.662-0.825-2.619-0.825s-1.863 0.294-2.619 0.825c-0.544-0.119-1.575-0.244-2.738 0.238-0.894 0.369-1.625 1-2.119 1.8-0.919 0.15-1.756 0.575-2.419 1.237-0.669 0.662-1.087 1.506-1.244 2.419-0.794 0.494-1.425 1.225-1.8 2.125-0.363 0.881-0.444 1.838-0.238 2.738-0.531 0.756-0.825 1.662-0.825 2.619s0.294 1.863 0.825 2.619c-0.2 0.9-0.125 1.856 0.238 2.738 0.369 0.887 1 1.619 1.794 2.106 0.15 0.919 0.575 1.769 1.237 2.438 0.787 0.781 1.787 1.1 2.906 1.1v4.912c0 0.594 0.225 1.188 0.669 1.581 0.538 0.475 1.281 0.631 2.031 0.375l4.3-1.788 4.369 1.813c0.206 0.069 0.419 0.1 0.631 0.1 0.419 0 0.825-0.131 1.175-0.375 0.519-0.375 0.831-0.981 0.831-1.625v-5c1.113 0 2.113-0.313 2.9-1.1 0.669-0.669 1.087-1.519 1.238-2.438 0.8-0.494 1.425-1.219 1.794-2.106 0.363-0.881 0.438-1.837 0.238-2.738 0.531-0.75 0.825-1.656 0.825-2.613zM14 27.919l-5 2.081-0.069-6.025 5.069 2.106 5-2.081 0.069 6.025-5.069-2.106zM24.825 16.156c0.475 0.694 0.606 1.606 0.262 2.438-0.35 0.85-1.113 1.381-1.956 1.525 0.181 0.831 0 1.725-0.644 2.369-0.462 0.462-1.056 0.688-1.663 0.725-0.144-0.325-0.356-0.619-0.656-0.831-0.519-0.375-1.188-0.481-1.8-0.275l-4.369 1.813-4.369-1.813c-0.619-0.206-1.287-0.1-1.8 0.275-0.294 0.212-0.513 0.506-0.656 0.831-0.606-0.038-1.2-0.262-1.663-0.725-0.644-0.644-0.831-1.538-0.644-2.369-0.844-0.144-1.606-0.675-1.956-1.525-0.344-0.837-0.219-1.744 0.263-2.438-0.706-0.463-1.175-1.25-1.175-2.156s0.469-1.694 1.175-2.156c-0.475-0.694-0.606-1.606-0.263-2.438 0.35-0.85 1.106-1.406 1.95-1.544-0.175-0.825 0.013-1.706 0.65-2.35 0.925-0.925 2.1-0.7 2.35-0.65 0.144-0.844 0.694-1.6 1.544-1.95 0.881-0.362 1.787-0.188 2.438 0.263 0.456-0.706 1.25-1.175 2.156-1.175s1.694 0.469 2.156 1.175c0.656-0.45 1.563-0.619 2.438-0.256 0.85 0.35 1.4 1.106 1.544 1.95 0.25-0.056 1.425-0.275 2.35 0.65 0.637 0.638 0.825 1.525 0.65 2.344 0.844 0.144 1.6 0.694 1.95 1.544 0.344 0.838 0.219 1.744-0.262 2.438 0.706 0.456 1.175 1.25 1.175 2.156s-0.469 1.694-1.175 2.156z"></path>
</svg>
