<!-- Generated by IcoMoon.io -->
<svg version="1.1" xmlns="http://www.w3.org/2000/svg" width="32" height="32" viewBox="0 0 32 32">
<title>wrench</title>
<path d="M31.714 7.156c-0.146-0.592-0.604-1.061-1.191-1.226-0.592-0.163-1.228 0-1.666 0.436l-3.992 3.992-2.766-0.46-0.461-2.765 3.992-3.992c0.434-0.433 0.601-1.068 0.438-1.659-0.164-0.592-0.637-1.052-1.234-1.2-3.233-0.802-6.586 0.126-8.949 2.486-2.365 2.367-3.263 5.782-2.414 9.044l-12.083 12.081c-1.849 1.852-1.849 4.864 0 6.716 0.897 0.897 2.090 1.391 3.359 1.391s2.461-0.494 3.357-1.391l12.071-12.069c3.252 0.858 6.675-0.045 9.056-2.426 2.363-2.363 3.293-5.712 2.484-8.957zM27.816 14.699c-1.992 1.988-4.902 2.664-7.611 1.764l-0.586-0.196-12.93 12.927c-1.039 1.039-2.849 1.039-3.888 0-1.070-1.071-1.070-2.816 0-3.888l12.938-12.936-0.193-0.584c-0.894-2.716-0.223-5.629 1.752-7.604 1.419-1.42 3.292-2.183 5.237-2.183 0.429 0 0.863 0.037 1.295 0.113l-4.332 4.334 0.863 5.189 5.191 0.864 4.331-4.334c0.42 2.391-0.334 4.799-2.067 6.534zM5 26c-0.553 0-1 0.448-1 1s0.447 1 1 1 1-0.448 1-1-0.447-1-1-1z"></path>
</svg>
