<!-- Generated by IcoMoon.io -->
<svg version="1.1" xmlns="http://www.w3.org/2000/svg" width="32" height="32" viewBox="0 0 32 32">
<title>wrench-solid</title>
<path d="M31.733 6.819c-0.14-0.564-0.846-0.756-1.258-0.344l-4.648 4.647-4.242-0.707-0.707-4.242 4.648-4.647c0.414-0.414 0.214-1.119-0.354-1.26-2.961-0.734-6.222 0.057-8.536 2.371-2.477 2.478-3.159 6.069-2.128 9.2l-13.337 13.337c-1.562 1.562-1.562 4.094 0 5.656s4.094 1.562 5.656 0l13.326-13.326c3.133 1.044 6.717 0.355 9.211-2.139 2.317-2.317 3.106-5.582 2.369-8.546zM4 29.5c-0.828 0-1.5-0.672-1.5-1.5s0.672-1.5 1.5-1.5 1.5 0.671 1.5 1.5c0 0.828-0.672 1.5-1.5 1.5z"></path>
</svg>
