<!-- Generated by IcoMoon.io -->
<svg version="1.1" xmlns="http://www.w3.org/2000/svg" width="40" height="32" viewBox="0 0 40 32">
<title>x-ray-solid</title>
<path d="M15 24c-0.55 0-1 0.45-1 1s0.45 1 1 1 1-0.45 1-1-0.45-1-1-1zM25 26c0.55 0 1-0.45 1-1s-0.45-1-1-1-1 0.45-1 1 0.45 1 1 1zM39 0h-38c-0.55 0-1 0.45-1 1v2c0 0.55 0.45 1 1 1h38c0.55 0 1-0.45 1-1v-2c0-0.55-0.45-1-1-1zM39 28h-3v-22h-32v22h-3c-0.55 0-1 0.45-1 1v2c0 0.55 0.45 1 1 1h38c0.55 0 1-0.45 1-1v-2c0-0.55-0.45-1-1-1zM30 15.5c0 0.275-0.225 0.5-0.5 0.5h-8.5v2h6.5c0.275 0 0.5 0.225 0.5 0.5v1c0 0.275-0.225 0.5-0.5 0.5h-6.5v2h4c1.656 0 3 1.344 3 3s-1.344 3-3 3-3-1.344-3-3v-1h-4v1c0 1.656-1.344 3-3 3s-3-1.344-3-3 1.344-3 3-3h4v-2h-6.5c-0.275 0-0.5-0.225-0.5-0.5v-1c0-0.275 0.225-0.5 0.5-0.5h6.5v-2h-8.5c-0.275 0-0.5-0.225-0.5-0.5v-1c0-0.275 0.225-0.5 0.5-0.5h8.5v-2h-6.5c-0.275 0-0.5-0.225-0.5-0.5v-1c0-0.275 0.225-0.5 0.5-0.5h6.5v-1.5c0-0.275 0.225-0.5 0.5-0.5h1c0.275 0 0.5 0.225 0.5 0.5v1.5h6.5c0.275 0 0.5 0.225 0.5 0.5v1c0 0.275-0.225 0.5-0.5 0.5h-6.5v2h8.5c0.275 0 0.5 0.225 0.5 0.5v1z"></path>
</svg>
