<!-- Generated by IcoMoon.io -->
<svg version="1.1" xmlns="http://www.w3.org/2000/svg" width="20" height="32" viewBox="0 0 20 32">
<title>yen-sign</title>
<path d="M19.249 2h-1.408c-0.276 0-0.518 0.15-0.648 0.372l-0.002 0.004-5.459 9.582c-0.836 1.593-1.713 3.545-1.713 3.545h-0.080s-0.876-1.952-1.713-3.545l-5.413-9.58c-0.132-0.227-0.374-0.378-0.651-0.378 0 0-0 0-0 0h-1.413c-0.577 0-0.938 0.625-0.65 1.125l6.209 10.875h-3.561c-0.414 0-0.75 0.336-0.75 0.75v0.5c0 0.414 0.336 0.75 0.75 0.75h4.715l1.161 2.011v1.989h-5.876c-0.414 0-0.75 0.336-0.75 0.75v0.5c0 0.414 0.336 0.75 0.75 0.75h5.876v7.25c0 0.414 0.336 0.75 0.75 0.75h1.288c0.414 0 0.75-0.336 0.75-0.75v-7.25h5.836c0.414 0 0.75-0.336 0.75-0.75v-0.5c0-0.414-0.336-0.75-0.75-0.75h-5.836v-1.989l1.106-2.011h4.73c0.414 0 0.75-0.336 0.75-0.75v-0.5c0-0.414-0.336-0.75-0.75-0.75h-3.629l6.276-10.872c0.291-0.5-0.069-1.128-0.648-1.128z"></path>
</svg>
