<!-- Generated by IcoMoon.io -->
<svg version="1.1" xmlns="http://www.w3.org/2000/svg" width="24" height="32" viewBox="0 0 24 32">
<title>yen-sign-solid</title>
<path d="M21.95 2h-4.081c-0.288 0-0.55 0.163-0.675 0.419l-3.463 7.075c-0.906 2.169-1.694 4.494-1.694 4.494h-0.081s-0.787-2.325-1.694-4.494l-3.463-7.075c-0.125-0.256-0.388-0.419-0.675-0.419h-4.075c-0.569 0-0.925 0.606-0.663 1.1l5.006 9.4h-3.644c-0.413 0-0.75 0.338-0.75 0.75v2c0 0.412 0.337 0.75 0.75 0.75h5.513l1.238 2.325v1.675h-6.75c-0.413 0-0.75 0.337-0.75 0.75v2c0 0.413 0.337 0.75 0.75 0.75h6.75v5.75c0 0.413 0.338 0.75 0.75 0.75h3.5c0.412 0 0.75-0.337 0.75-0.75v-5.75h6.75c0.413 0 0.75-0.337 0.75-0.75v-2c0-0.413-0.337-0.75-0.75-0.75h-6.75v-1.675l1.238-2.325h5.512c0.413 0 0.75-0.338 0.75-0.75v-2c0-0.412-0.337-0.75-0.75-0.75h-3.644l5.006-9.4c0.269-0.494-0.094-1.1-0.663-1.1z"></path>
</svg>
