<!-- Generated by IcoMoon.io -->
<svg version="1.1" xmlns="http://www.w3.org/2000/svg" width="31" height="32" viewBox="0 0 31 32">
<title>yin-yang</title>
<path d="M14.5 12c1.654 0 3-1.346 3-3s-1.346-3-3-3-3 1.346-3 3 1.346 3 3 3zM14.5 8c0.551 0 1 0.448 1 1s-0.449 1-1 1-1-0.448-1-1 0.449-1 1-1zM16.5 20c-1.654 0-3 1.346-3 3s1.346 3 3 3 3-1.346 3-3-1.346-3-3-3zM16.5 24c-0.551 0-1-0.448-1-1s0.449-1 1-1 1 0.448 1 1-0.449 1-1 1zM15.5 0.5c-8.561 0-15.5 6.939-15.5 15.5s6.939 15.5 15.5 15.5c8.547 0 15.5-6.953 15.5-15.5s-6.953-15.5-15.5-15.5zM2 16c0-7.444 6.056-13.5 13.5-13.5 3.445 0 6.25 2.804 6.25 6.25s-2.805 6.25-6.25 6.25c-4.549 0-8.25 3.701-8.25 8.25 0 1.56 0.461 3.005 1.216 4.251-3.871-2.376-6.466-6.636-6.466-11.501zM15.5 29.5c-3.445 0-6.25-2.804-6.25-6.25s2.805-6.25 6.25-6.25c4.549 0 8.25-3.701 8.25-8.25 0-1.552-0.43-3.005-1.177-4.246 3.853 2.38 6.427 6.643 6.427 11.496 0 7.444-6.057 13.5-13.5 13.5z"></path>
</svg>
